<?xml version="1.0" encoding="UTF-8" standalone="no"?>
<!DOCTYPE svg PUBLIC "-//W3C//DTD SVG 1.1//EN"
 "http://www.w3.org/Graphics/SVG/1.1/DTD/svg11.dtd">
<!-- Generated by graphviz version 2.38.0 (20140413.2041)
 -->
<!-- Title: proof_3adant3 Pages: 1 -->
<svg width="723pt" height="512pt"
 viewBox="0.00 0.00 722.69 512.00" xmlns="http://www.w3.org/2000/svg" xmlns:xlink="http://www.w3.org/1999/xlink">
<g id="graph0" class="graph" transform="scale(1 1) rotate(0) translate(4 508)">
<title>proof_3adant3</title>
<polygon fill="white" stroke="none" points="-4,4 -4,-508 718.687,-508 718.687,4 -4,4"/>
<!-- n19490 -->
<g id="node1" class="node"><title>n19490</title>
<ellipse fill="none" stroke="lightgray" cx="27" cy="-486" rx="27" ry="18"/>
<text text-anchor="middle" x="27" y="-482.3" font-family="Times New Roman,serif" font-size="14.00" fill="lightgray">wph</text>
</g>
<!-- n19493 -->
<g id="node2" class="node"><title>n19493</title>
<ellipse fill="none" stroke="lightgray" cx="168.596" cy="-347" rx="27" ry="18"/>
<text text-anchor="middle" x="168.596" y="-343.3" font-family="Times New Roman,serif" font-size="14.00" fill="lightgray">w3a</text>
</g>
<!-- n19490&#45;&gt;n19493 -->
<g id="edge1" class="edge"><title>n19490&#45;&gt;n19493</title>
<path fill="none" stroke="lightgray" d="M44.2561,-471.98C60.9222,-457.416 87.3876,-433.756 109,-412 122.351,-398.56 136.597,-382.793 147.699,-370.153"/>
<polygon fill="lightgray" stroke="lightgray" points="150.565,-372.192 154.5,-362.355 145.29,-367.591 150.565,-372.192"/>
<text text-anchor="middle" x="90.5" y="-450.8" font-family="Times New Roman,serif" font-size="14.00" fill="lightgray">wff ph</text>
</g>
<!-- n19491 -->
<g id="node3" class="node"><title>n19491</title>
<ellipse fill="none" stroke="lightgray" cx="27" cy="-414" rx="27" ry="18"/>
<text text-anchor="middle" x="27" y="-410.3" font-family="Times New Roman,serif" font-size="14.00" fill="lightgray">wps</text>
</g>
<!-- n19490&#45;&gt;n19491 -->
<g id="edge5" class="edge"><title>n19490&#45;&gt;n19491</title>
</g>
<!-- n19503 -->
<g id="node5" class="node"><title>n19503</title>
<ellipse fill="cyan" stroke="black" cx="454.193" cy="-203" rx="27" ry="18"/>
<text text-anchor="middle" x="454.193" y="-199.3" font-family="Times New Roman,serif" font-size="14.00">syl</text>
</g>
<!-- n19493&#45;&gt;n19503 -->
<g id="edge4" class="edge"><title>n19493&#45;&gt;n19503</title>
<path fill="none" stroke="lightgray" d="M195.609,-346.842C243.045,-345.253 344.652,-335.689 409.193,-285 426.774,-271.192 438.205,-248.353 444.997,-230.281"/>
<polygon fill="lightgray" stroke="lightgray" points="448.309,-231.413 448.303,-220.818 441.7,-229.104 448.309,-231.413"/>
<text text-anchor="middle" x="318.693" y="-348.8" font-family="Times New Roman,serif" font-size="14.00" fill="lightgray">wff ( ph / ps / th )</text>
</g>
<!-- n19496 -->
<g id="node7" class="node"><title>n19496</title>
<ellipse fill="none" stroke="lightgray" cx="168.596" cy="-275" rx="27" ry="18"/>
<text text-anchor="middle" x="168.596" y="-271.3" font-family="Times New Roman,serif" font-size="14.00" fill="lightgray">wa</text>
</g>
<!-- n19493&#45;&gt;n19496 -->
<g id="edge20" class="edge"><title>n19493&#45;&gt;n19496</title>
</g>
<!-- n19491&#45;&gt;n19493 -->
<g id="edge2" class="edge"><title>n19491&#45;&gt;n19493</title>
<path fill="none" stroke="lightgray" d="M49.506,-403.678C72.9376,-392.432 110.611,-374.35 137.092,-361.641"/>
<polygon fill="lightgray" stroke="lightgray" points="138.794,-364.706 146.295,-357.224 135.765,-358.395 138.794,-364.706"/>
<text text-anchor="middle" x="90.5" y="-396.8" font-family="Times New Roman,serif" font-size="14.00" fill="lightgray">wff ps</text>
</g>
<!-- n19492 -->
<g id="node4" class="node"><title>n19492</title>
<ellipse fill="none" stroke="lightgray" cx="27" cy="-342" rx="27" ry="18"/>
<text text-anchor="middle" x="27" y="-338.3" font-family="Times New Roman,serif" font-size="14.00" fill="lightgray">wth</text>
</g>
<!-- n19491&#45;&gt;n19492 -->
<g id="edge6" class="edge"><title>n19491&#45;&gt;n19492</title>
</g>
<!-- n19492&#45;&gt;n19493 -->
<g id="edge3" class="edge"><title>n19492&#45;&gt;n19493</title>
<path fill="none" stroke="lightgray" d="M54.257,-342.94C75.9974,-343.719 107.121,-344.834 131.255,-345.698"/>
<polygon fill="lightgray" stroke="lightgray" points="131.338,-349.203 141.457,-346.064 131.589,-342.208 131.338,-349.203"/>
<text text-anchor="middle" x="90.5" y="-348.8" font-family="Times New Roman,serif" font-size="14.00" fill="lightgray">wff th</text>
</g>
<!-- QED -->
<g id="node15" class="node"><title>QED</title>
</g>
<!-- n19503&#45;&gt;QED -->
<g id="edge19" class="edge"><title>n19503&#45;&gt;QED</title>
<path fill="none" stroke="black" d="M481.49,-203C521.837,-203 599.228,-203 645.91,-203"/>
<polygon fill="black" stroke="black" points="645.945,-206.5 655.945,-203 645.945,-199.5 645.945,-206.5"/>
<text text-anchor="middle" x="568.693" y="-206.8" font-family="Times New Roman,serif" font-size="14.00">|&#45; ( ( ph / ps / th ) &#45;&gt; ch )</text>
</g>
<!-- n19494 -->
<g id="node6" class="node"><title>n19494</title>
<ellipse fill="none" stroke="lightgray" cx="27" cy="-288" rx="27" ry="18"/>
<text text-anchor="middle" x="27" y="-284.3" font-family="Times New Roman,serif" font-size="14.00" fill="lightgray">wph</text>
</g>
<!-- n19494&#45;&gt;n19496 -->
<g id="edge7" class="edge"><title>n19494&#45;&gt;n19496</title>
<path fill="none" stroke="lightgray" d="M53.9298,-285.585C75.7714,-283.551 107.251,-280.62 131.546,-278.357"/>
<polygon fill="lightgray" stroke="lightgray" points="132.173,-281.814 141.805,-277.402 131.524,-274.844 132.173,-281.814"/>
<text text-anchor="middle" x="90.5" y="-287.8" font-family="Times New Roman,serif" font-size="14.00" fill="lightgray">wff ph</text>
</g>
<!-- n19495 -->
<g id="node8" class="node"><title>n19495</title>
<ellipse fill="none" stroke="lightgray" cx="27" cy="-216" rx="27" ry="18"/>
<text text-anchor="middle" x="27" y="-212.3" font-family="Times New Roman,serif" font-size="14.00" fill="lightgray">wps</text>
</g>
<!-- n19494&#45;&gt;n19495 -->
<g id="edge10" class="edge"><title>n19494&#45;&gt;n19495</title>
</g>
<!-- n19496&#45;&gt;n19503 -->
<g id="edge9" class="edge"><title>n19496&#45;&gt;n19503</title>
<path fill="none" stroke="lightgray" d="M195.2,-270.983C239.491,-263.671 332.984,-246.636 409.193,-222 413.495,-220.609 417.954,-218.953 422.308,-217.206"/>
<polygon fill="lightgray" stroke="lightgray" points="423.715,-220.411 431.574,-213.306 420.999,-213.959 423.715,-220.411"/>
<text text-anchor="middle" x="318.693" y="-269.8" font-family="Times New Roman,serif" font-size="14.00" fill="lightgray">wff ( ph / ps )</text>
</g>
<!-- n19497 -->
<g id="node9" class="node"><title>n19497</title>
<ellipse fill="none" stroke="lightgray" cx="168.596" cy="-203" rx="27" ry="18"/>
<text text-anchor="middle" x="168.596" y="-199.3" font-family="Times New Roman,serif" font-size="14.00" fill="lightgray">wch</text>
</g>
<!-- n19496&#45;&gt;n19497 -->
<g id="edge21" class="edge"><title>n19496&#45;&gt;n19497</title>
</g>
<!-- n19495&#45;&gt;n19496 -->
<g id="edge8" class="edge"><title>n19495&#45;&gt;n19496</title>
<path fill="none" stroke="lightgray" d="M50.1195,-225.349C73.1611,-235.087 109.482,-250.438 135.639,-261.493"/>
<polygon fill="lightgray" stroke="lightgray" points="134.544,-264.83 145.118,-265.5 137.27,-258.383 134.544,-264.83"/>
<text text-anchor="middle" x="90.5" y="-253.8" font-family="Times New Roman,serif" font-size="14.00" fill="lightgray">wff ps</text>
</g>
<!-- n19497&#45;&gt;n19503 -->
<g id="edge11" class="edge"><title>n19497&#45;&gt;n19503</title>
<path fill="none" stroke="lightgray" d="M195.768,-203C246.629,-203 358.899,-203 416.911,-203"/>
<polygon fill="lightgray" stroke="lightgray" points="417.084,-206.5 427.084,-203 417.084,-199.5 417.084,-206.5"/>
<text text-anchor="middle" x="318.693" y="-206.8" font-family="Times New Roman,serif" font-size="14.00" fill="lightgray">wff ch</text>
</g>
<!-- n19501 -->
<g id="node11" class="node"><title>n19501</title>
<ellipse fill="cyan" stroke="black" cx="168.596" cy="-131" rx="36.2938" ry="18"/>
<text text-anchor="middle" x="168.596" y="-127.3" font-family="Times New Roman,serif" font-size="14.00">3simpa</text>
</g>
<!-- n19497&#45;&gt;n19501 -->
<g id="edge22" class="edge"><title>n19497&#45;&gt;n19501</title>
</g>
<!-- n19498 -->
<g id="node10" class="node"><title>n19498</title>
<ellipse fill="none" stroke="lightgray" cx="27" cy="-162" rx="27" ry="18"/>
<text text-anchor="middle" x="27" y="-158.3" font-family="Times New Roman,serif" font-size="14.00" fill="lightgray">wph</text>
</g>
<!-- n19498&#45;&gt;n19501 -->
<g id="edge12" class="edge"><title>n19498&#45;&gt;n19501</title>
<path fill="none" stroke="lightgray" d="M52.957,-156.458C72.9942,-152.008 101.581,-145.66 125.195,-140.416"/>
<polygon fill="lightgray" stroke="lightgray" points="125.968,-143.83 134.972,-138.245 124.451,-136.996 125.968,-143.83"/>
<text text-anchor="middle" x="90.5" y="-155.8" font-family="Times New Roman,serif" font-size="14.00" fill="lightgray">wff ph</text>
</g>
<!-- n19499 -->
<g id="node12" class="node"><title>n19499</title>
<ellipse fill="none" stroke="lightgray" cx="27" cy="-90" rx="27" ry="18"/>
<text text-anchor="middle" x="27" y="-86.3" font-family="Times New Roman,serif" font-size="14.00" fill="lightgray">wps</text>
</g>
<!-- n19498&#45;&gt;n19499 -->
<g id="edge16" class="edge"><title>n19498&#45;&gt;n19499</title>
</g>
<!-- n19501&#45;&gt;n19503 -->
<g id="edge15" class="edge"><title>n19501&#45;&gt;n19503</title>
<path fill="none" stroke="black" d="M203.466,-136.4C250.372,-144.348 337.443,-160.805 409.193,-184 413.495,-185.391 417.954,-187.047 422.308,-188.794"/>
<polygon fill="black" stroke="black" points="420.999,-192.041 431.574,-192.694 423.715,-185.589 420.999,-192.041"/>
<text text-anchor="middle" x="318.693" y="-187.8" font-family="Times New Roman,serif" font-size="14.00">|&#45; ( ( ph / ps / th ) &#45;&gt; ( ph / ps ) )</text>
</g>
<!-- n19502 -->
<g id="node14" class="node"><title>n19502</title>
<ellipse fill="orange" stroke="black" cx="168.596" cy="-59" rx="41.6928" ry="18"/>
<text text-anchor="middle" x="168.596" y="-55.3" font-family="Times New Roman,serif" font-size="14.00">3adant.1</text>
</g>
<!-- n19501&#45;&gt;n19502 -->
<g id="edge23" class="edge"><title>n19501&#45;&gt;n19502</title>
</g>
<!-- n19499&#45;&gt;n19501 -->
<g id="edge13" class="edge"><title>n19499&#45;&gt;n19501</title>
<path fill="none" stroke="lightgray" d="M51.9975,-97.0482C72.6204,-103.105 102.794,-111.967 127.143,-119.119"/>
<polygon fill="lightgray" stroke="lightgray" points="126.254,-122.505 136.835,-121.965 128.227,-115.789 126.254,-122.505"/>
<text text-anchor="middle" x="90.5" y="-116.8" font-family="Times New Roman,serif" font-size="14.00" fill="lightgray">wff ps</text>
</g>
<!-- n19500 -->
<g id="node13" class="node"><title>n19500</title>
<ellipse fill="none" stroke="lightgray" cx="27" cy="-18" rx="27" ry="18"/>
<text text-anchor="middle" x="27" y="-14.3" font-family="Times New Roman,serif" font-size="14.00" fill="lightgray">wth</text>
</g>
<!-- n19499&#45;&gt;n19500 -->
<g id="edge17" class="edge"><title>n19499&#45;&gt;n19500</title>
</g>
<!-- n19500&#45;&gt;n19501 -->
<g id="edge14" class="edge"><title>n19500&#45;&gt;n19501</title>
<path fill="none" stroke="lightgray" d="M44.8386,-31.6304C68.599,-50.864 112.223,-86.1762 140.555,-109.111"/>
<polygon fill="lightgray" stroke="lightgray" points="138.49,-111.942 148.465,-115.514 142.895,-106.501 138.49,-111.942"/>
<text text-anchor="middle" x="90.5" y="-85.8" font-family="Times New Roman,serif" font-size="14.00" fill="lightgray">wff th</text>
</g>
<!-- n19502&#45;&gt;n19503 -->
<g id="edge18" class="edge"><title>n19502&#45;&gt;n19503</title>
<path fill="none" stroke="black" d="M210.36,-60.091C261.81,-63.4509 350.647,-76.0769 409.193,-122 426.455,-135.541 437.847,-157.808 444.706,-175.572"/>
<polygon fill="black" stroke="black" points="441.563,-177.178 448.23,-185.411 448.153,-174.817 441.563,-177.178"/>
<text text-anchor="middle" x="318.693" y="-125.8" font-family="Times New Roman,serif" font-size="14.00">|&#45; ( ( ph / ps ) &#45;&gt; ch )</text>
</g>
</g>
</svg>
