<?xml version="1.0" encoding="UTF-8" standalone="no"?>
<!DOCTYPE svg PUBLIC "-//W3C//DTD SVG 1.1//EN"
 "http://www.w3.org/Graphics/SVG/1.1/DTD/svg11.dtd">
<!-- Generated by graphviz version 2.38.0 (20140413.2041)
 -->
<!-- Title: proof_3anrot Pages: 1 -->
<svg width="1072pt" height="1160pt"
 viewBox="0.00 0.00 1072.28 1160.00" xmlns="http://www.w3.org/2000/svg" xmlns:xlink="http://www.w3.org/1999/xlink">
<g id="graph0" class="graph" transform="scale(1 1) rotate(0) translate(4 1156)">
<title>proof_3anrot</title>
<polygon fill="white" stroke="none" points="-4,4 -4,-1156 1068.28,-1156 1068.28,4 -4,4"/>
<!-- n18722 -->
<g id="node1" class="node"><title>n18722</title>
<ellipse fill="none" stroke="lightgray" cx="154" cy="-1134" rx="27" ry="18"/>
<text text-anchor="middle" x="154" y="-1130.3" font-family="Times New Roman,serif" font-size="14.00" fill="lightgray">wph</text>
</g>
<!-- n18726 -->
<g id="node2" class="node"><title>n18726</title>
<ellipse fill="none" stroke="lightgray" cx="334.097" cy="-1026" rx="27" ry="18"/>
<text text-anchor="middle" x="334.097" y="-1022.3" font-family="Times New Roman,serif" font-size="14.00" fill="lightgray">wa</text>
</g>
<!-- n18722&#45;&gt;n18726 -->
<g id="edge1" class="edge"><title>n18722&#45;&gt;n18726</title>
<path fill="none" stroke="lightgray" d="M177.833,-1124.95C203.862,-1114.14 247.176,-1094.66 281,-1072 291.544,-1064.94 302.219,-1055.91 311.136,-1047.73"/>
<polygon fill="lightgray" stroke="lightgray" points="313.588,-1050.23 318.474,-1040.83 308.792,-1045.13 313.588,-1050.23"/>
<text text-anchor="middle" x="240" y="-1118.8" font-family="Times New Roman,serif" font-size="14.00" fill="lightgray">wff ph</text>
</g>
<!-- n18725 -->
<g id="node4" class="node"><title>n18725</title>
<ellipse fill="none" stroke="lightgray" cx="154" cy="-1062" rx="27" ry="18"/>
<text text-anchor="middle" x="154" y="-1058.3" font-family="Times New Roman,serif" font-size="14.00" fill="lightgray">wa</text>
</g>
<!-- n18722&#45;&gt;n18725 -->
<g id="edge7" class="edge"><title>n18722&#45;&gt;n18725</title>
</g>
<!-- n18753 -->
<g id="node6" class="node"><title>n18753</title>
<ellipse fill="cyan" stroke="black" cx="703.991" cy="-612" rx="33.5952" ry="18"/>
<text text-anchor="middle" x="703.991" y="-608.3" font-family="Times New Roman,serif" font-size="14.00">3bitr4i</text>
</g>
<!-- n18726&#45;&gt;n18753 -->
<g id="edge6" class="edge"><title>n18726&#45;&gt;n18753</title>
<path fill="none" stroke="lightgray" d="M361.268,-1026.76C422.514,-1027.01 575.751,-1018.37 652.194,-931 689.963,-887.834 699.806,-709.976 702.237,-640.238"/>
<polygon fill="lightgray" stroke="lightgray" points="705.743,-640.119 702.567,-630.011 698.746,-639.893 705.743,-640.119"/>
<text text-anchor="middle" x="519.694" y="-1030.8" font-family="Times New Roman,serif" font-size="14.00" fill="lightgray">wff ( ph /\ ( ps /\ ch ) )</text>
</g>
<!-- n18731 -->
<g id="node10" class="node"><title>n18731</title>
<ellipse fill="none" stroke="lightgray" cx="334.097" cy="-936" rx="27" ry="18"/>
<text text-anchor="middle" x="334.097" y="-932.3" font-family="Times New Roman,serif" font-size="14.00" fill="lightgray">wa</text>
</g>
<!-- n18726&#45;&gt;n18731 -->
<g id="edge47" class="edge"><title>n18726&#45;&gt;n18731</title>
</g>
<!-- n18723 -->
<g id="node3" class="node"><title>n18723</title>
<ellipse fill="none" stroke="lightgray" cx="27" cy="-1134" rx="27" ry="18"/>
<text text-anchor="middle" x="27" y="-1130.3" font-family="Times New Roman,serif" font-size="14.00" fill="lightgray">wps</text>
</g>
<!-- n18723&#45;&gt;n18725 -->
<g id="edge2" class="edge"><title>n18723&#45;&gt;n18725</title>
<path fill="none" stroke="lightgray" d="M48.0834,-1122.43C68.6762,-1110.57 100.901,-1092.01 124.206,-1078.59"/>
<polygon fill="lightgray" stroke="lightgray" points="126.048,-1081.56 132.966,-1073.54 122.554,-1075.5 126.048,-1081.56"/>
<text text-anchor="middle" x="90.5" y="-1112.8" font-family="Times New Roman,serif" font-size="14.00" fill="lightgray">wff ps</text>
</g>
<!-- n18724 -->
<g id="node5" class="node"><title>n18724</title>
<ellipse fill="none" stroke="lightgray" cx="27" cy="-1062" rx="27" ry="18"/>
<text text-anchor="middle" x="27" y="-1058.3" font-family="Times New Roman,serif" font-size="14.00" fill="lightgray">wch</text>
</g>
<!-- n18723&#45;&gt;n18724 -->
<g id="edge5" class="edge"><title>n18723&#45;&gt;n18724</title>
</g>
<!-- n18725&#45;&gt;n18726 -->
<g id="edge4" class="edge"><title>n18725&#45;&gt;n18726</title>
<path fill="none" stroke="lightgray" d="M180.139,-1056.92C210.9,-1050.7 263.165,-1040.14 297.909,-1033.11"/>
<polygon fill="lightgray" stroke="lightgray" points="298.977,-1036.47 308.086,-1031.06 297.59,-1029.61 298.977,-1036.47"/>
<text text-anchor="middle" x="240" y="-1056.8" font-family="Times New Roman,serif" font-size="14.00" fill="lightgray">wff ( ps /\ ch )</text>
</g>
<!-- n18724&#45;&gt;n18725 -->
<g id="edge3" class="edge"><title>n18724&#45;&gt;n18725</title>
<path fill="none" stroke="lightgray" d="M54.2041,-1062C72.3711,-1062 96.7994,-1062 116.82,-1062"/>
<polygon fill="lightgray" stroke="lightgray" points="116.83,-1065.5 126.83,-1062 116.83,-1058.5 116.83,-1065.5"/>
<text text-anchor="middle" x="90.5" y="-1065.8" font-family="Times New Roman,serif" font-size="14.00" fill="lightgray">wff ch</text>
</g>
<!-- QED -->
<g id="node33" class="node"><title>QED</title>
</g>
<!-- n18753&#45;&gt;QED -->
<g id="edge46" class="edge"><title>n18753&#45;&gt;QED</title>
<path fill="none" stroke="black" d="M738.047,-612C799.335,-612 930.274,-612 995.482,-612"/>
<polygon fill="black" stroke="black" points="995.738,-615.5 1005.74,-612 995.738,-608.5 995.738,-615.5"/>
<text text-anchor="middle" x="871.788" y="-615.8" font-family="Times New Roman,serif" font-size="14.00">|&#45; ( ( ph /\ ps /\ ch ) &lt;&#45;&gt; ( ps /\ ch /\ ph ) )</text>
</g>
<!-- n18727 -->
<g id="node7" class="node"><title>n18727</title>
<ellipse fill="none" stroke="lightgray" cx="27" cy="-1008" rx="27" ry="18"/>
<text text-anchor="middle" x="27" y="-1004.3" font-family="Times New Roman,serif" font-size="14.00" fill="lightgray">wch</text>
</g>
<!-- n18729 -->
<g id="node8" class="node"><title>n18729</title>
<ellipse fill="none" stroke="lightgray" cx="154" cy="-1008" rx="27" ry="18"/>
<text text-anchor="middle" x="154" y="-1004.3" font-family="Times New Roman,serif" font-size="14.00" fill="lightgray">wa</text>
</g>
<!-- n18727&#45;&gt;n18729 -->
<g id="edge8" class="edge"><title>n18727&#45;&gt;n18729</title>
<path fill="none" stroke="lightgray" d="M54.2041,-1008C72.3711,-1008 96.7994,-1008 116.82,-1008"/>
<polygon fill="lightgray" stroke="lightgray" points="116.83,-1011.5 126.83,-1008 116.83,-1004.5 116.83,-1011.5"/>
<text text-anchor="middle" x="90.5" y="-1011.8" font-family="Times New Roman,serif" font-size="14.00" fill="lightgray">wff ch</text>
</g>
<!-- n18728 -->
<g id="node9" class="node"><title>n18728</title>
<ellipse fill="none" stroke="lightgray" cx="27" cy="-936" rx="27" ry="18"/>
<text text-anchor="middle" x="27" y="-932.3" font-family="Times New Roman,serif" font-size="14.00" fill="lightgray">wps</text>
</g>
<!-- n18727&#45;&gt;n18728 -->
<g id="edge11" class="edge"><title>n18727&#45;&gt;n18728</title>
</g>
<!-- n18729&#45;&gt;n18731 -->
<g id="edge10" class="edge"><title>n18729&#45;&gt;n18731</title>
<path fill="none" stroke="lightgray" d="M177.556,-998.881C208.87,-986.222 265.67,-963.259 301.281,-948.863"/>
<polygon fill="lightgray" stroke="lightgray" points="302.765,-952.038 310.724,-945.045 300.141,-945.548 302.765,-952.038"/>
<text text-anchor="middle" x="240" y="-992.8" font-family="Times New Roman,serif" font-size="14.00" fill="lightgray">wff ( ps /\ ch )</text>
</g>
<!-- n18730 -->
<g id="node11" class="node"><title>n18730</title>
<ellipse fill="none" stroke="lightgray" cx="154" cy="-936" rx="27" ry="18"/>
<text text-anchor="middle" x="154" y="-932.3" font-family="Times New Roman,serif" font-size="14.00" fill="lightgray">wph</text>
</g>
<!-- n18729&#45;&gt;n18730 -->
<g id="edge14" class="edge"><title>n18729&#45;&gt;n18730</title>
</g>
<!-- n18728&#45;&gt;n18729 -->
<g id="edge9" class="edge"><title>n18728&#45;&gt;n18729</title>
<path fill="none" stroke="lightgray" d="M48.0834,-947.568C68.6762,-959.429 100.901,-977.991 124.206,-991.414"/>
<polygon fill="lightgray" stroke="lightgray" points="122.554,-994.502 132.966,-996.461 126.048,-988.437 122.554,-994.502"/>
<text text-anchor="middle" x="90.5" y="-986.8" font-family="Times New Roman,serif" font-size="14.00" fill="lightgray">wff ps</text>
</g>
<!-- n18731&#45;&gt;n18753 -->
<g id="edge13" class="edge"><title>n18731&#45;&gt;n18753</title>
<path fill="none" stroke="lightgray" d="M357.595,-926.874C422.825,-900.02 610.071,-820.03 652.194,-770 683.926,-732.31 695.931,-674.478 700.404,-640.227"/>
<polygon fill="lightgray" stroke="lightgray" points="703.916,-640.33 701.607,-629.99 696.964,-639.513 703.916,-640.33"/>
<text text-anchor="middle" x="519.694" y="-915.8" font-family="Times New Roman,serif" font-size="14.00" fill="lightgray">wff ( ( ps /\ ch ) /\ ph )</text>
</g>
<!-- n18735 -->
<g id="node13" class="node"><title>n18735</title>
<ellipse fill="none" stroke="lightgray" cx="334.097" cy="-774" rx="27" ry="18"/>
<text text-anchor="middle" x="334.097" y="-770.3" font-family="Times New Roman,serif" font-size="14.00" fill="lightgray">w3a</text>
</g>
<!-- n18731&#45;&gt;n18735 -->
<g id="edge48" class="edge"><title>n18731&#45;&gt;n18735</title>
</g>
<!-- n18730&#45;&gt;n18731 -->
<g id="edge12" class="edge"><title>n18730&#45;&gt;n18731</title>
<path fill="none" stroke="lightgray" d="M181.279,-936C211.882,-936 262.609,-936 296.92,-936"/>
<polygon fill="lightgray" stroke="lightgray" points="297,-939.5 307,-936 297,-932.5 297,-939.5"/>
<text text-anchor="middle" x="240" y="-939.8" font-family="Times New Roman,serif" font-size="14.00" fill="lightgray">wff ph</text>
</g>
<!-- n18732 -->
<g id="node12" class="node"><title>n18732</title>
<ellipse fill="none" stroke="lightgray" cx="154" cy="-882" rx="27" ry="18"/>
<text text-anchor="middle" x="154" y="-878.3" font-family="Times New Roman,serif" font-size="14.00" fill="lightgray">wph</text>
</g>
<!-- n18732&#45;&gt;n18735 -->
<g id="edge15" class="edge"><title>n18732&#45;&gt;n18735</title>
<path fill="none" stroke="lightgray" d="M177.833,-872.947C203.862,-862.141 247.176,-842.662 281,-820 291.544,-812.936 302.219,-803.91 311.136,-795.728"/>
<polygon fill="lightgray" stroke="lightgray" points="313.588,-798.227 318.474,-788.826 308.792,-793.129 313.588,-798.227"/>
<text text-anchor="middle" x="240" y="-866.8" font-family="Times New Roman,serif" font-size="14.00" fill="lightgray">wff ph</text>
</g>
<!-- n18733 -->
<g id="node14" class="node"><title>n18733</title>
<ellipse fill="none" stroke="lightgray" cx="154" cy="-810" rx="27" ry="18"/>
<text text-anchor="middle" x="154" y="-806.3" font-family="Times New Roman,serif" font-size="14.00" fill="lightgray">wps</text>
</g>
<!-- n18732&#45;&gt;n18733 -->
<g id="edge19" class="edge"><title>n18732&#45;&gt;n18733</title>
</g>
<!-- n18735&#45;&gt;n18753 -->
<g id="edge18" class="edge"><title>n18735&#45;&gt;n18753</title>
<path fill="none" stroke="lightgray" d="M357.009,-764.351C418.446,-737.298 592.758,-660.54 667.858,-627.471"/>
<polygon fill="lightgray" stroke="lightgray" points="669.613,-630.522 677.354,-623.289 666.792,-624.116 669.613,-630.522"/>
<text text-anchor="middle" x="519.694" y="-754.8" font-family="Times New Roman,serif" font-size="14.00" fill="lightgray">wff ( ph /\ ps /\ ch )</text>
</g>
<!-- n18739 -->
<g id="node17" class="node"><title>n18739</title>
<ellipse fill="none" stroke="lightgray" cx="334.097" cy="-612" rx="27" ry="18"/>
<text text-anchor="middle" x="334.097" y="-608.3" font-family="Times New Roman,serif" font-size="14.00" fill="lightgray">w3a</text>
</g>
<!-- n18735&#45;&gt;n18739 -->
<g id="edge49" class="edge"><title>n18735&#45;&gt;n18739</title>
</g>
<!-- n18733&#45;&gt;n18735 -->
<g id="edge16" class="edge"><title>n18733&#45;&gt;n18735</title>
<path fill="none" stroke="lightgray" d="M180.139,-804.918C210.9,-798.701 263.165,-788.136 297.909,-781.113"/>
<polygon fill="lightgray" stroke="lightgray" points="298.977,-784.468 308.086,-779.056 297.59,-777.606 298.977,-784.468"/>
<text text-anchor="middle" x="240" y="-804.8" font-family="Times New Roman,serif" font-size="14.00" fill="lightgray">wff ps</text>
</g>
<!-- n18734 -->
<g id="node15" class="node"><title>n18734</title>
<ellipse fill="none" stroke="lightgray" cx="154" cy="-738" rx="27" ry="18"/>
<text text-anchor="middle" x="154" y="-734.3" font-family="Times New Roman,serif" font-size="14.00" fill="lightgray">wch</text>
</g>
<!-- n18733&#45;&gt;n18734 -->
<g id="edge20" class="edge"><title>n18733&#45;&gt;n18734</title>
</g>
<!-- n18734&#45;&gt;n18735 -->
<g id="edge17" class="edge"><title>n18734&#45;&gt;n18735</title>
<path fill="none" stroke="lightgray" d="M180.139,-743.082C210.9,-749.299 263.165,-759.864 297.909,-766.887"/>
<polygon fill="lightgray" stroke="lightgray" points="297.59,-770.394 308.086,-768.944 298.977,-763.532 297.59,-770.394"/>
<text text-anchor="middle" x="240" y="-767.8" font-family="Times New Roman,serif" font-size="14.00" fill="lightgray">wff ch</text>
</g>
<!-- n18736 -->
<g id="node16" class="node"><title>n18736</title>
<ellipse fill="none" stroke="lightgray" cx="154" cy="-684" rx="27" ry="18"/>
<text text-anchor="middle" x="154" y="-680.3" font-family="Times New Roman,serif" font-size="14.00" fill="lightgray">wps</text>
</g>
<!-- n18736&#45;&gt;n18739 -->
<g id="edge21" class="edge"><title>n18736&#45;&gt;n18739</title>
<path fill="none" stroke="lightgray" d="M177.556,-674.881C208.87,-662.222 265.67,-639.259 301.281,-624.863"/>
<polygon fill="lightgray" stroke="lightgray" points="302.765,-628.038 310.724,-621.045 300.141,-621.548 302.765,-628.038"/>
<text text-anchor="middle" x="240" y="-668.8" font-family="Times New Roman,serif" font-size="14.00" fill="lightgray">wff ps</text>
</g>
<!-- n18737 -->
<g id="node18" class="node"><title>n18737</title>
<ellipse fill="none" stroke="lightgray" cx="154" cy="-612" rx="27" ry="18"/>
<text text-anchor="middle" x="154" y="-608.3" font-family="Times New Roman,serif" font-size="14.00" fill="lightgray">wch</text>
</g>
<!-- n18736&#45;&gt;n18737 -->
<g id="edge25" class="edge"><title>n18736&#45;&gt;n18737</title>
</g>
<!-- n18739&#45;&gt;n18753 -->
<g id="edge24" class="edge"><title>n18739&#45;&gt;n18753</title>
<path fill="none" stroke="lightgray" d="M361.26,-612C423.817,-612 582.56,-612 659.655,-612"/>
<polygon fill="lightgray" stroke="lightgray" points="659.973,-615.5 669.973,-612 659.973,-608.5 659.973,-615.5"/>
<text text-anchor="middle" x="519.694" y="-615.8" font-family="Times New Roman,serif" font-size="14.00" fill="lightgray">wff ( ps /\ ch /\ ph )</text>
</g>
<!-- n18744 -->
<g id="node21" class="node"><title>n18744</title>
<ellipse fill="cyan" stroke="black" cx="334.097" cy="-486" rx="35.194" ry="18"/>
<text text-anchor="middle" x="334.097" y="-482.3" font-family="Times New Roman,serif" font-size="14.00">ancom</text>
</g>
<!-- n18739&#45;&gt;n18744 -->
<g id="edge50" class="edge"><title>n18739&#45;&gt;n18744</title>
</g>
<!-- n18737&#45;&gt;n18739 -->
<g id="edge22" class="edge"><title>n18737&#45;&gt;n18739</title>
<path fill="none" stroke="lightgray" d="M181.279,-612C211.882,-612 262.609,-612 296.92,-612"/>
<polygon fill="lightgray" stroke="lightgray" points="297,-615.5 307,-612 297,-608.5 297,-615.5"/>
<text text-anchor="middle" x="240" y="-615.8" font-family="Times New Roman,serif" font-size="14.00" fill="lightgray">wff ch</text>
</g>
<!-- n18738 -->
<g id="node19" class="node"><title>n18738</title>
<ellipse fill="none" stroke="lightgray" cx="154" cy="-540" rx="27" ry="18"/>
<text text-anchor="middle" x="154" y="-536.3" font-family="Times New Roman,serif" font-size="14.00" fill="lightgray">wph</text>
</g>
<!-- n18737&#45;&gt;n18738 -->
<g id="edge26" class="edge"><title>n18737&#45;&gt;n18738</title>
</g>
<!-- n18738&#45;&gt;n18739 -->
<g id="edge23" class="edge"><title>n18738&#45;&gt;n18739</title>
<path fill="none" stroke="lightgray" d="M177.556,-549.119C208.87,-561.778 265.67,-584.741 301.281,-599.137"/>
<polygon fill="lightgray" stroke="lightgray" points="300.141,-602.452 310.724,-602.955 302.765,-595.962 300.141,-602.452"/>
<text text-anchor="middle" x="240" y="-594.8" font-family="Times New Roman,serif" font-size="14.00" fill="lightgray">wff ph</text>
</g>
<!-- n18740 -->
<g id="node20" class="node"><title>n18740</title>
<ellipse fill="none" stroke="lightgray" cx="154" cy="-486" rx="27" ry="18"/>
<text text-anchor="middle" x="154" y="-482.3" font-family="Times New Roman,serif" font-size="14.00" fill="lightgray">wph</text>
</g>
<!-- n18740&#45;&gt;n18744 -->
<g id="edge27" class="edge"><title>n18740&#45;&gt;n18744</title>
<path fill="none" stroke="lightgray" d="M181.279,-486C209.514,-486 254.881,-486 288.679,-486"/>
<polygon fill="lightgray" stroke="lightgray" points="288.765,-489.5 298.765,-486 288.765,-482.5 288.765,-489.5"/>
<text text-anchor="middle" x="240" y="-489.8" font-family="Times New Roman,serif" font-size="14.00" fill="lightgray">wff ph</text>
</g>
<!-- n18743 -->
<g id="node23" class="node"><title>n18743</title>
<ellipse fill="none" stroke="lightgray" cx="154" cy="-414" rx="27" ry="18"/>
<text text-anchor="middle" x="154" y="-410.3" font-family="Times New Roman,serif" font-size="14.00" fill="lightgray">wa</text>
</g>
<!-- n18740&#45;&gt;n18743 -->
<g id="edge33" class="edge"><title>n18740&#45;&gt;n18743</title>
</g>
<!-- n18744&#45;&gt;n18753 -->
<g id="edge32" class="edge"><title>n18744&#45;&gt;n18753</title>
<path fill="none" stroke="black" d="M364.061,-495.424C419.963,-513.691 546.541,-555.426 652.194,-593 656.829,-594.648 661.688,-596.415 666.487,-598.184"/>
<polygon fill="black" stroke="black" points="665.568,-601.576 676.161,-601.779 668.006,-595.015 665.568,-601.576"/>
<text text-anchor="middle" x="519.694" y="-596.8" font-family="Times New Roman,serif" font-size="14.00">|&#45; ( ( ph /\ ( ps /\ ch ) ) &lt;&#45;&gt; ( ( ps /\ ch ) /\ ph ) )</text>
</g>
<!-- n18748 -->
<g id="node26" class="node"><title>n18748</title>
<ellipse fill="cyan" stroke="black" cx="334.097" cy="-332" rx="35.194" ry="18"/>
<text text-anchor="middle" x="334.097" y="-328.3" font-family="Times New Roman,serif" font-size="14.00">3anass</text>
</g>
<!-- n18744&#45;&gt;n18748 -->
<g id="edge51" class="edge"><title>n18744&#45;&gt;n18748</title>
</g>
<!-- n18741 -->
<g id="node22" class="node"><title>n18741</title>
<ellipse fill="none" stroke="lightgray" cx="27" cy="-451" rx="27" ry="18"/>
<text text-anchor="middle" x="27" y="-447.3" font-family="Times New Roman,serif" font-size="14.00" fill="lightgray">wch</text>
</g>
<!-- n18741&#45;&gt;n18743 -->
<g id="edge28" class="edge"><title>n18741&#45;&gt;n18743</title>
<path fill="none" stroke="lightgray" d="M52.1013,-443.866C71.2097,-438.21 98.1365,-430.24 119.368,-423.955"/>
<polygon fill="lightgray" stroke="lightgray" points="120.377,-427.306 128.973,-421.112 118.391,-420.594 120.377,-427.306"/>
<text text-anchor="middle" x="90.5" y="-441.8" font-family="Times New Roman,serif" font-size="14.00" fill="lightgray">wff ch</text>
</g>
<!-- n18742 -->
<g id="node24" class="node"><title>n18742</title>
<ellipse fill="none" stroke="lightgray" cx="27" cy="-379" rx="27" ry="18"/>
<text text-anchor="middle" x="27" y="-375.3" font-family="Times New Roman,serif" font-size="14.00" fill="lightgray">wps</text>
</g>
<!-- n18741&#45;&gt;n18742 -->
<g id="edge31" class="edge"><title>n18741&#45;&gt;n18742</title>
</g>
<!-- n18743&#45;&gt;n18744 -->
<g id="edge30" class="edge"><title>n18743&#45;&gt;n18744</title>
<path fill="none" stroke="lightgray" d="M177.556,-423.119C207.501,-435.225 260.752,-456.753 296.493,-471.202"/>
<polygon fill="lightgray" stroke="lightgray" points="295.492,-474.573 306.075,-475.076 298.116,-468.083 295.492,-474.573"/>
<text text-anchor="middle" x="240" y="-468.8" font-family="Times New Roman,serif" font-size="14.00" fill="lightgray">wff ( ps /\ ch )</text>
</g>
<!-- n18742&#45;&gt;n18743 -->
<g id="edge29" class="edge"><title>n18742&#45;&gt;n18743</title>
<path fill="none" stroke="lightgray" d="M52.1013,-385.748C71.0013,-391.04 97.5501,-398.474 118.671,-404.388"/>
<polygon fill="lightgray" stroke="lightgray" points="117.973,-407.827 128.546,-407.153 119.86,-401.086 117.973,-407.827"/>
<text text-anchor="middle" x="90.5" y="-405.8" font-family="Times New Roman,serif" font-size="14.00" fill="lightgray">wff ps</text>
</g>
<!-- n18745 -->
<g id="node25" class="node"><title>n18745</title>
<ellipse fill="none" stroke="lightgray" cx="154" cy="-360" rx="27" ry="18"/>
<text text-anchor="middle" x="154" y="-356.3" font-family="Times New Roman,serif" font-size="14.00" fill="lightgray">wph</text>
</g>
<!-- n18745&#45;&gt;n18748 -->
<g id="edge34" class="edge"><title>n18745&#45;&gt;n18748</title>
<path fill="none" stroke="lightgray" d="M180.517,-355.988C209.107,-351.493 255.929,-344.132 290.176,-338.748"/>
<polygon fill="lightgray" stroke="lightgray" points="291.031,-342.157 300.366,-337.146 289.944,-335.241 291.031,-342.157"/>
<text text-anchor="middle" x="240" y="-356.8" font-family="Times New Roman,serif" font-size="14.00" fill="lightgray">wff ph</text>
</g>
<!-- n18746 -->
<g id="node27" class="node"><title>n18746</title>
<ellipse fill="none" stroke="lightgray" cx="154" cy="-288" rx="27" ry="18"/>
<text text-anchor="middle" x="154" y="-284.3" font-family="Times New Roman,serif" font-size="14.00" fill="lightgray">wps</text>
</g>
<!-- n18745&#45;&gt;n18746 -->
<g id="edge38" class="edge"><title>n18745&#45;&gt;n18746</title>
</g>
<!-- n18748&#45;&gt;n18753 -->
<g id="edge37" class="edge"><title>n18748&#45;&gt;n18753</title>
<path fill="none" stroke="black" d="M366.677,-339.078C429.454,-354.698 570.872,-397.858 652.194,-485 678.197,-512.864 691.561,-555.708 697.914,-583.796"/>
<polygon fill="black" stroke="black" points="694.53,-584.713 700.017,-593.777 701.38,-583.27 694.53,-584.713"/>
<text text-anchor="middle" x="519.694" y="-488.8" font-family="Times New Roman,serif" font-size="14.00">|&#45; ( ( ph /\ ps /\ ch ) &lt;&#45;&gt; ( ph /\ ( ps /\ ch ) ) )</text>
</g>
<!-- n18752 -->
<g id="node30" class="node"><title>n18752</title>
<ellipse fill="lawngreen" stroke="black" cx="334.097" cy="-162" rx="34.394" ry="18"/>
<text text-anchor="middle" x="334.097" y="-158.3" font-family="Times New Roman,serif" font-size="14.00">df&#45;3an</text>
</g>
<!-- n18748&#45;&gt;n18752 -->
<g id="edge52" class="edge"><title>n18748&#45;&gt;n18752</title>
</g>
<!-- n18746&#45;&gt;n18748 -->
<g id="edge35" class="edge"><title>n18746&#45;&gt;n18748</title>
<path fill="none" stroke="lightgray" d="M179.764,-294.118C208.906,-301.318 257.716,-313.377 292.435,-321.954"/>
<polygon fill="lightgray" stroke="lightgray" points="291.724,-325.384 302.272,-324.384 293.403,-318.588 291.724,-325.384"/>
<text text-anchor="middle" x="240" y="-322.8" font-family="Times New Roman,serif" font-size="14.00" fill="lightgray">wff ps</text>
</g>
<!-- n18747 -->
<g id="node28" class="node"><title>n18747</title>
<ellipse fill="none" stroke="lightgray" cx="154" cy="-216" rx="27" ry="18"/>
<text text-anchor="middle" x="154" y="-212.3" font-family="Times New Roman,serif" font-size="14.00" fill="lightgray">wch</text>
</g>
<!-- n18746&#45;&gt;n18747 -->
<g id="edge39" class="edge"><title>n18746&#45;&gt;n18747</title>
</g>
<!-- n18747&#45;&gt;n18748 -->
<g id="edge36" class="edge"><title>n18747&#45;&gt;n18748</title>
<path fill="none" stroke="lightgray" d="M177.547,-225.179C203.69,-236.361 247.478,-256.788 281,-281 291.902,-288.874 302.728,-298.997 311.664,-308.146"/>
<polygon fill="lightgray" stroke="lightgray" points="309.259,-310.696 318.686,-315.531 314.332,-305.872 309.259,-310.696"/>
<text text-anchor="middle" x="240" y="-284.8" font-family="Times New Roman,serif" font-size="14.00" fill="lightgray">wff ch</text>
</g>
<!-- n18749 -->
<g id="node29" class="node"><title>n18749</title>
<ellipse fill="none" stroke="lightgray" cx="154" cy="-162" rx="27" ry="18"/>
<text text-anchor="middle" x="154" y="-158.3" font-family="Times New Roman,serif" font-size="14.00" fill="lightgray">wps</text>
</g>
<!-- n18749&#45;&gt;n18752 -->
<g id="edge40" class="edge"><title>n18749&#45;&gt;n18752</title>
<path fill="none" stroke="lightgray" d="M181.279,-162C209.69,-162 255.445,-162 289.307,-162"/>
<polygon fill="lightgray" stroke="lightgray" points="289.402,-165.5 299.402,-162 289.402,-158.5 289.402,-165.5"/>
<text text-anchor="middle" x="240" y="-165.8" font-family="Times New Roman,serif" font-size="14.00" fill="lightgray">wff ps</text>
</g>
<!-- n18750 -->
<g id="node31" class="node"><title>n18750</title>
<ellipse fill="none" stroke="lightgray" cx="154" cy="-90" rx="27" ry="18"/>
<text text-anchor="middle" x="154" y="-86.3" font-family="Times New Roman,serif" font-size="14.00" fill="lightgray">wch</text>
</g>
<!-- n18749&#45;&gt;n18750 -->
<g id="edge44" class="edge"><title>n18749&#45;&gt;n18750</title>
</g>
<!-- n18752&#45;&gt;n18753 -->
<g id="edge43" class="edge"><title>n18752&#45;&gt;n18753</title>
<path fill="none" stroke="black" d="M366.327,-168.554C431.048,-183.88 579.803,-228.481 652.194,-327 682.084,-367.679 696.343,-520 701.097,-583.709"/>
<polygon fill="black" stroke="black" points="697.617,-584.115 701.828,-593.837 704.599,-583.611 697.617,-584.115"/>
<text text-anchor="middle" x="519.694" y="-330.8" font-family="Times New Roman,serif" font-size="14.00">|&#45; ( ( ps /\ ch /\ ph ) &lt;&#45;&gt; ( ( ps /\ ch ) /\ ph ) )</text>
</g>
<!-- n18750&#45;&gt;n18752 -->
<g id="edge41" class="edge"><title>n18750&#45;&gt;n18752</title>
<path fill="none" stroke="lightgray" d="M177.556,-99.1188C207.586,-111.259 261.057,-132.876 296.799,-147.326"/>
<polygon fill="lightgray" stroke="lightgray" points="295.792,-150.694 306.375,-151.197 298.416,-144.204 295.792,-150.694"/>
<text text-anchor="middle" x="240" y="-144.8" font-family="Times New Roman,serif" font-size="14.00" fill="lightgray">wff ch</text>
</g>
<!-- n18751 -->
<g id="node32" class="node"><title>n18751</title>
<ellipse fill="none" stroke="lightgray" cx="154" cy="-18" rx="27" ry="18"/>
<text text-anchor="middle" x="154" y="-14.3" font-family="Times New Roman,serif" font-size="14.00" fill="lightgray">wph</text>
</g>
<!-- n18750&#45;&gt;n18751 -->
<g id="edge45" class="edge"><title>n18750&#45;&gt;n18751</title>
</g>
<!-- n18751&#45;&gt;n18752 -->
<g id="edge42" class="edge"><title>n18751&#45;&gt;n18752</title>
<path fill="none" stroke="lightgray" d="M177.276,-27.4609C203.947,-39.5212 249.015,-62.2932 281,-91 295.511,-104.023 308.493,-121.691 317.868,-136.144"/>
<polygon fill="lightgray" stroke="lightgray" points="314.935,-138.055 323.221,-144.657 320.861,-134.329 314.935,-138.055"/>
<text text-anchor="middle" x="240" y="-94.8" font-family="Times New Roman,serif" font-size="14.00" fill="lightgray">wff ph</text>
</g>
</g>
</svg>
