<?xml version="1.0" encoding="UTF-8" standalone="no"?>
<!DOCTYPE svg PUBLIC "-//W3C//DTD SVG 1.1//EN"
 "http://www.w3.org/Graphics/SVG/1.1/DTD/svg11.dtd">
<!-- Generated by graphviz version 2.38.0 (20140413.2041)
 -->
<!-- Title: proof_3anrev Pages: 1 -->
<svg width="875pt" height="980pt"
 viewBox="0.00 0.00 875.08 980.00" xmlns="http://www.w3.org/2000/svg" xmlns:xlink="http://www.w3.org/1999/xlink">
<g id="graph0" class="graph" transform="scale(1 1) rotate(0) translate(4 976)">
<title>proof_3anrev</title>
<polygon fill="white" stroke="none" points="-4,4 -4,-976 871.082,-976 871.082,4 -4,4"/>
<!-- n18914 -->
<g id="node1" class="node"><title>n18914</title>
<ellipse fill="none" stroke="lightgray" cx="27" cy="-954" rx="27" ry="18"/>
<text text-anchor="middle" x="27" y="-950.3" font-family="Times New Roman,serif" font-size="14.00" fill="lightgray">wph</text>
</g>
<!-- n18917 -->
<g id="node2" class="node"><title>n18917</title>
<ellipse fill="none" stroke="lightgray" cx="170.546" cy="-810" rx="27" ry="18"/>
<text text-anchor="middle" x="170.546" y="-806.3" font-family="Times New Roman,serif" font-size="14.00" fill="lightgray">w3a</text>
</g>
<!-- n18914&#45;&gt;n18917 -->
<g id="edge1" class="edge"><title>n18914&#45;&gt;n18917</title>
<path fill="none" stroke="lightgray" d="M43.9254,-939.835C60.5545,-924.866 87.2006,-900.376 109,-878 123.067,-863.561 138.145,-846.632 149.735,-833.278"/>
<polygon fill="lightgray" stroke="lightgray" points="152.58,-835.338 156.46,-825.479 147.279,-830.766 152.58,-835.338"/>
<text text-anchor="middle" x="90.5" y="-916.8" font-family="Times New Roman,serif" font-size="14.00" fill="lightgray">wff ph</text>
</g>
<!-- n18915 -->
<g id="node3" class="node"><title>n18915</title>
<ellipse fill="none" stroke="lightgray" cx="27" cy="-882" rx="27" ry="18"/>
<text text-anchor="middle" x="27" y="-878.3" font-family="Times New Roman,serif" font-size="14.00" fill="lightgray">wps</text>
</g>
<!-- n18914&#45;&gt;n18915 -->
<g id="edge5" class="edge"><title>n18914&#45;&gt;n18915</title>
</g>
<!-- n18934 -->
<g id="node5" class="node"><title>n18934</title>
<ellipse fill="cyan" stroke="black" cx="511.34" cy="-486" rx="29.4969" ry="18"/>
<text text-anchor="middle" x="511.34" y="-482.3" font-family="Times New Roman,serif" font-size="14.00">bitr4i</text>
</g>
<!-- n18917&#45;&gt;n18934 -->
<g id="edge4" class="edge"><title>n18917&#45;&gt;n18934</title>
<path fill="none" stroke="lightgray" d="M195.207,-802.191C250.666,-782.68 389.943,-726.468 464.092,-632 491.407,-597.201 502.752,-545.964 507.347,-514.355"/>
<polygon fill="lightgray" stroke="lightgray" points="510.868,-514.425 508.706,-504.053 503.928,-513.509 510.868,-514.425"/>
<text text-anchor="middle" x="348.092" y="-791.8" font-family="Times New Roman,serif" font-size="14.00" fill="lightgray">wff ( ph /\ ps /\ ch )</text>
</g>
<!-- n18921 -->
<g id="node7" class="node"><title>n18921</title>
<ellipse fill="none" stroke="lightgray" cx="170.546" cy="-643" rx="27" ry="18"/>
<text text-anchor="middle" x="170.546" y="-639.3" font-family="Times New Roman,serif" font-size="14.00" fill="lightgray">w3a</text>
</g>
<!-- n18917&#45;&gt;n18921 -->
<g id="edge32" class="edge"><title>n18917&#45;&gt;n18921</title>
</g>
<!-- n18915&#45;&gt;n18917 -->
<g id="edge2" class="edge"><title>n18915&#45;&gt;n18917</title>
<path fill="none" stroke="lightgray" d="M48.8856,-871.376C72.8247,-859.199 112.258,-839.141 139.495,-825.286"/>
<polygon fill="lightgray" stroke="lightgray" points="141.249,-828.321 148.575,-820.667 138.075,-822.082 141.249,-828.321"/>
<text text-anchor="middle" x="90.5" y="-862.8" font-family="Times New Roman,serif" font-size="14.00" fill="lightgray">wff ps</text>
</g>
<!-- n18916 -->
<g id="node4" class="node"><title>n18916</title>
<ellipse fill="none" stroke="lightgray" cx="27" cy="-810" rx="27" ry="18"/>
<text text-anchor="middle" x="27" y="-806.3" font-family="Times New Roman,serif" font-size="14.00" fill="lightgray">wch</text>
</g>
<!-- n18915&#45;&gt;n18916 -->
<g id="edge6" class="edge"><title>n18915&#45;&gt;n18916</title>
</g>
<!-- n18916&#45;&gt;n18917 -->
<g id="edge3" class="edge"><title>n18916&#45;&gt;n18917</title>
<path fill="none" stroke="lightgray" d="M54.292,-810C76.5379,-810 108.644,-810 133.323,-810"/>
<polygon fill="lightgray" stroke="lightgray" points="133.395,-813.5 143.395,-810 133.395,-806.5 133.395,-813.5"/>
<text text-anchor="middle" x="90.5" y="-813.8" font-family="Times New Roman,serif" font-size="14.00" fill="lightgray">wff ch</text>
</g>
<!-- QED -->
<g id="node22" class="node"><title>QED</title>
</g>
<!-- n18934&#45;&gt;QED -->
<g id="edge31" class="edge"><title>n18934&#45;&gt;QED</title>
<path fill="none" stroke="black" d="M540.852,-486C599.158,-486 732.082,-486 798.12,-486"/>
<polygon fill="black" stroke="black" points="798.503,-489.5 808.503,-486 798.503,-482.5 798.503,-489.5"/>
<text text-anchor="middle" x="674.587" y="-489.8" font-family="Times New Roman,serif" font-size="14.00">|&#45; ( ( ph /\ ps /\ ch ) &lt;&#45;&gt; ( ch /\ ps /\ ph ) )</text>
</g>
<!-- n18918 -->
<g id="node6" class="node"><title>n18918</title>
<ellipse fill="none" stroke="lightgray" cx="27" cy="-756" rx="27" ry="18"/>
<text text-anchor="middle" x="27" y="-752.3" font-family="Times New Roman,serif" font-size="14.00" fill="lightgray">wps</text>
</g>
<!-- n18918&#45;&gt;n18921 -->
<g id="edge7" class="edge"><title>n18918&#45;&gt;n18921</title>
<path fill="none" stroke="lightgray" d="M45.0738,-742.37C69.8353,-722.602 115.872,-685.85 144.485,-663.007"/>
<polygon fill="lightgray" stroke="lightgray" points="146.78,-665.653 152.412,-656.679 142.413,-660.183 146.78,-665.653"/>
<text text-anchor="middle" x="90.5" y="-723.8" font-family="Times New Roman,serif" font-size="14.00" fill="lightgray">wff ps</text>
</g>
<!-- n18919 -->
<g id="node8" class="node"><title>n18919</title>
<ellipse fill="none" stroke="lightgray" cx="27" cy="-684" rx="27" ry="18"/>
<text text-anchor="middle" x="27" y="-680.3" font-family="Times New Roman,serif" font-size="14.00" fill="lightgray">wph</text>
</g>
<!-- n18918&#45;&gt;n18919 -->
<g id="edge11" class="edge"><title>n18918&#45;&gt;n18919</title>
</g>
<!-- n18921&#45;&gt;n18934 -->
<g id="edge10" class="edge"><title>n18921&#45;&gt;n18934</title>
<path fill="none" stroke="lightgray" d="M193.255,-632.94C251.162,-606.105 409.542,-532.711 478.052,-500.962"/>
<polygon fill="lightgray" stroke="lightgray" points="479.884,-503.971 487.485,-496.591 476.94,-497.62 479.884,-503.971"/>
<text text-anchor="middle" x="348.092" y="-616.8" font-family="Times New Roman,serif" font-size="14.00" fill="lightgray">wff ( ps /\ ph /\ ch )</text>
</g>
<!-- n18925 -->
<g id="node11" class="node"><title>n18925</title>
<ellipse fill="none" stroke="lightgray" cx="170.546" cy="-486" rx="27" ry="18"/>
<text text-anchor="middle" x="170.546" y="-482.3" font-family="Times New Roman,serif" font-size="14.00" fill="lightgray">w3a</text>
</g>
<!-- n18921&#45;&gt;n18925 -->
<g id="edge33" class="edge"><title>n18921&#45;&gt;n18925</title>
</g>
<!-- n18919&#45;&gt;n18921 -->
<g id="edge8" class="edge"><title>n18919&#45;&gt;n18921</title>
<path fill="none" stroke="lightgray" d="M52.0114,-677.045C74.9897,-670.389 109.872,-660.285 135.672,-652.812"/>
<polygon fill="lightgray" stroke="lightgray" points="136.786,-656.133 145.417,-649.989 134.838,-649.41 136.786,-656.133"/>
<text text-anchor="middle" x="90.5" y="-674.8" font-family="Times New Roman,serif" font-size="14.00" fill="lightgray">wff ph</text>
</g>
<!-- n18920 -->
<g id="node9" class="node"><title>n18920</title>
<ellipse fill="none" stroke="lightgray" cx="27" cy="-612" rx="27" ry="18"/>
<text text-anchor="middle" x="27" y="-608.3" font-family="Times New Roman,serif" font-size="14.00" fill="lightgray">wch</text>
</g>
<!-- n18919&#45;&gt;n18920 -->
<g id="edge12" class="edge"><title>n18919&#45;&gt;n18920</title>
</g>
<!-- n18920&#45;&gt;n18921 -->
<g id="edge9" class="edge"><title>n18920&#45;&gt;n18921</title>
<path fill="none" stroke="lightgray" d="M52.9798,-617.471C75.5803,-622.421 109.099,-629.762 134.4,-635.303"/>
<polygon fill="lightgray" stroke="lightgray" points="133.823,-638.759 144.34,-637.48 135.32,-631.921 133.823,-638.759"/>
<text text-anchor="middle" x="90.5" y="-633.8" font-family="Times New Roman,serif" font-size="14.00" fill="lightgray">wff ch</text>
</g>
<!-- n18922 -->
<g id="node10" class="node"><title>n18922</title>
<ellipse fill="none" stroke="lightgray" cx="27" cy="-558" rx="27" ry="18"/>
<text text-anchor="middle" x="27" y="-554.3" font-family="Times New Roman,serif" font-size="14.00" fill="lightgray">wch</text>
</g>
<!-- n18922&#45;&gt;n18925 -->
<g id="edge13" class="edge"><title>n18922&#45;&gt;n18925</title>
<path fill="none" stroke="lightgray" d="M48.8856,-547.376C72.8247,-535.199 112.258,-515.141 139.495,-501.286"/>
<polygon fill="lightgray" stroke="lightgray" points="141.249,-504.321 148.575,-496.667 138.075,-498.082 141.249,-504.321"/>
<text text-anchor="middle" x="90.5" y="-538.8" font-family="Times New Roman,serif" font-size="14.00" fill="lightgray">wff ch</text>
</g>
<!-- n18923 -->
<g id="node12" class="node"><title>n18923</title>
<ellipse fill="none" stroke="lightgray" cx="27" cy="-486" rx="27" ry="18"/>
<text text-anchor="middle" x="27" y="-482.3" font-family="Times New Roman,serif" font-size="14.00" fill="lightgray">wps</text>
</g>
<!-- n18922&#45;&gt;n18923 -->
<g id="edge17" class="edge"><title>n18922&#45;&gt;n18923</title>
</g>
<!-- n18925&#45;&gt;n18934 -->
<g id="edge16" class="edge"><title>n18925&#45;&gt;n18934</title>
<path fill="none" stroke="lightgray" d="M197.568,-486C256.815,-486 402.013,-486 471.738,-486"/>
<polygon fill="lightgray" stroke="lightgray" points="471.858,-489.5 481.858,-486 471.858,-482.5 471.858,-489.5"/>
<text text-anchor="middle" x="348.092" y="-489.8" font-family="Times New Roman,serif" font-size="14.00" fill="lightgray">wff ( ch /\ ps /\ ph )</text>
</g>
<!-- n18929 -->
<g id="node15" class="node"><title>n18929</title>
<ellipse fill="cyan" stroke="black" cx="170.546" cy="-319" rx="43.5923" ry="18"/>
<text text-anchor="middle" x="170.546" y="-315.3" font-family="Times New Roman,serif" font-size="14.00">3ancoma</text>
</g>
<!-- n18925&#45;&gt;n18929 -->
<g id="edge34" class="edge"><title>n18925&#45;&gt;n18929</title>
</g>
<!-- n18923&#45;&gt;n18925 -->
<g id="edge14" class="edge"><title>n18923&#45;&gt;n18925</title>
<path fill="none" stroke="lightgray" d="M54.292,-486C76.5379,-486 108.644,-486 133.323,-486"/>
<polygon fill="lightgray" stroke="lightgray" points="133.395,-489.5 143.395,-486 133.395,-482.5 133.395,-489.5"/>
<text text-anchor="middle" x="90.5" y="-489.8" font-family="Times New Roman,serif" font-size="14.00" fill="lightgray">wff ps</text>
</g>
<!-- n18924 -->
<g id="node13" class="node"><title>n18924</title>
<ellipse fill="none" stroke="lightgray" cx="27" cy="-414" rx="27" ry="18"/>
<text text-anchor="middle" x="27" y="-410.3" font-family="Times New Roman,serif" font-size="14.00" fill="lightgray">wph</text>
</g>
<!-- n18923&#45;&gt;n18924 -->
<g id="edge18" class="edge"><title>n18923&#45;&gt;n18924</title>
</g>
<!-- n18924&#45;&gt;n18925 -->
<g id="edge15" class="edge"><title>n18924&#45;&gt;n18925</title>
<path fill="none" stroke="lightgray" d="M48.8856,-424.624C72.8247,-436.801 112.258,-456.859 139.495,-470.714"/>
<polygon fill="lightgray" stroke="lightgray" points="138.075,-473.918 148.575,-475.333 141.249,-467.679 138.075,-473.918"/>
<text text-anchor="middle" x="90.5" y="-458.8" font-family="Times New Roman,serif" font-size="14.00" fill="lightgray">wff ph</text>
</g>
<!-- n18926 -->
<g id="node14" class="node"><title>n18926</title>
<ellipse fill="none" stroke="lightgray" cx="27" cy="-360" rx="27" ry="18"/>
<text text-anchor="middle" x="27" y="-356.3" font-family="Times New Roman,serif" font-size="14.00" fill="lightgray">wph</text>
</g>
<!-- n18926&#45;&gt;n18929 -->
<g id="edge19" class="edge"><title>n18926&#45;&gt;n18929</title>
<path fill="none" stroke="lightgray" d="M52.0114,-353.045C71.9072,-347.282 100.727,-338.934 124.849,-331.947"/>
<polygon fill="lightgray" stroke="lightgray" points="125.885,-335.291 134.516,-329.147 123.937,-328.567 125.885,-335.291"/>
<text text-anchor="middle" x="90.5" y="-350.8" font-family="Times New Roman,serif" font-size="14.00" fill="lightgray">wff ph</text>
</g>
<!-- n18927 -->
<g id="node16" class="node"><title>n18927</title>
<ellipse fill="none" stroke="lightgray" cx="27" cy="-288" rx="27" ry="18"/>
<text text-anchor="middle" x="27" y="-284.3" font-family="Times New Roman,serif" font-size="14.00" fill="lightgray">wps</text>
</g>
<!-- n18926&#45;&gt;n18927 -->
<g id="edge23" class="edge"><title>n18926&#45;&gt;n18927</title>
</g>
<!-- n18929&#45;&gt;n18934 -->
<g id="edge22" class="edge"><title>n18929&#45;&gt;n18934</title>
<path fill="none" stroke="black" d="M199.271,-332.666C261.631,-363.405 412.634,-437.838 478.608,-470.359"/>
<polygon fill="black" stroke="black" points="477.187,-473.56 487.704,-474.842 480.282,-467.282 477.187,-473.56"/>
<text text-anchor="middle" x="348.092" y="-465.8" font-family="Times New Roman,serif" font-size="14.00">|&#45; ( ( ph /\ ps /\ ch ) &lt;&#45;&gt; ( ps /\ ph /\ ch ) )</text>
</g>
<!-- n18933 -->
<g id="node19" class="node"><title>n18933</title>
<ellipse fill="cyan" stroke="black" cx="170.546" cy="-162" rx="33.5952" ry="18"/>
<text text-anchor="middle" x="170.546" y="-158.3" font-family="Times New Roman,serif" font-size="14.00">3anrot</text>
</g>
<!-- n18929&#45;&gt;n18933 -->
<g id="edge35" class="edge"><title>n18929&#45;&gt;n18933</title>
</g>
<!-- n18927&#45;&gt;n18929 -->
<g id="edge20" class="edge"><title>n18927&#45;&gt;n18929</title>
<path fill="none" stroke="lightgray" d="M52.9798,-293.471C71.9918,-297.635 98.7304,-303.491 121.804,-308.544"/>
<polygon fill="lightgray" stroke="lightgray" points="121.252,-312.006 131.769,-310.726 122.749,-305.168 121.252,-312.006"/>
<text text-anchor="middle" x="90.5" y="-309.8" font-family="Times New Roman,serif" font-size="14.00" fill="lightgray">wff ps</text>
</g>
<!-- n18928 -->
<g id="node17" class="node"><title>n18928</title>
<ellipse fill="none" stroke="lightgray" cx="27" cy="-216" rx="27" ry="18"/>
<text text-anchor="middle" x="27" y="-212.3" font-family="Times New Roman,serif" font-size="14.00" fill="lightgray">wch</text>
</g>
<!-- n18927&#45;&gt;n18928 -->
<g id="edge24" class="edge"><title>n18927&#45;&gt;n18928</title>
</g>
<!-- n18928&#45;&gt;n18929 -->
<g id="edge21" class="edge"><title>n18928&#45;&gt;n18929</title>
<path fill="none" stroke="lightgray" d="M45.9269,-229.045C69.5227,-246.215 111.327,-276.635 139.723,-297.298"/>
<polygon fill="lightgray" stroke="lightgray" points="137.925,-300.318 148.07,-303.372 142.044,-294.658 137.925,-300.318"/>
<text text-anchor="middle" x="90.5" y="-277.8" font-family="Times New Roman,serif" font-size="14.00" fill="lightgray">wff ch</text>
</g>
<!-- n18930 -->
<g id="node18" class="node"><title>n18930</title>
<ellipse fill="none" stroke="lightgray" cx="27" cy="-162" rx="27" ry="18"/>
<text text-anchor="middle" x="27" y="-158.3" font-family="Times New Roman,serif" font-size="14.00" fill="lightgray">wch</text>
</g>
<!-- n18930&#45;&gt;n18933 -->
<g id="edge25" class="edge"><title>n18930&#45;&gt;n18933</title>
<path fill="none" stroke="lightgray" d="M54.292,-162C74.5582,-162 103.008,-162 126.57,-162"/>
<polygon fill="lightgray" stroke="lightgray" points="126.667,-165.5 136.667,-162 126.667,-158.5 126.667,-165.5"/>
<text text-anchor="middle" x="90.5" y="-165.8" font-family="Times New Roman,serif" font-size="14.00" fill="lightgray">wff ch</text>
</g>
<!-- n18931 -->
<g id="node20" class="node"><title>n18931</title>
<ellipse fill="none" stroke="lightgray" cx="27" cy="-90" rx="27" ry="18"/>
<text text-anchor="middle" x="27" y="-86.3" font-family="Times New Roman,serif" font-size="14.00" fill="lightgray">wps</text>
</g>
<!-- n18930&#45;&gt;n18931 -->
<g id="edge29" class="edge"><title>n18930&#45;&gt;n18931</title>
</g>
<!-- n18933&#45;&gt;n18934 -->
<g id="edge28" class="edge"><title>n18933&#45;&gt;n18934</title>
<path fill="none" stroke="black" d="M200.47,-170.743C259.175,-189.982 392.77,-241.617 464.092,-332 493.428,-369.176 504.193,-424.706 508.117,-457.94"/>
<polygon fill="black" stroke="black" points="504.637,-458.318 509.165,-467.896 511.599,-457.584 504.637,-458.318"/>
<text text-anchor="middle" x="348.092" y="-335.8" font-family="Times New Roman,serif" font-size="14.00">|&#45; ( ( ch /\ ps /\ ph ) &lt;&#45;&gt; ( ps /\ ph /\ ch ) )</text>
</g>
<!-- n18931&#45;&gt;n18933 -->
<g id="edge26" class="edge"><title>n18931&#45;&gt;n18933</title>
<path fill="none" stroke="lightgray" d="M48.8856,-100.624C71.8617,-112.311 109.11,-131.258 136.15,-145.013"/>
<polygon fill="lightgray" stroke="lightgray" points="134.749,-148.226 145.249,-149.641 137.922,-141.987 134.749,-148.226"/>
<text text-anchor="middle" x="90.5" y="-134.8" font-family="Times New Roman,serif" font-size="14.00" fill="lightgray">wff ps</text>
</g>
<!-- n18932 -->
<g id="node21" class="node"><title>n18932</title>
<ellipse fill="none" stroke="lightgray" cx="27" cy="-18" rx="27" ry="18"/>
<text text-anchor="middle" x="27" y="-14.3" font-family="Times New Roman,serif" font-size="14.00" fill="lightgray">wph</text>
</g>
<!-- n18931&#45;&gt;n18932 -->
<g id="edge30" class="edge"><title>n18931&#45;&gt;n18932</title>
</g>
<!-- n18932&#45;&gt;n18933 -->
<g id="edge27" class="edge"><title>n18932&#45;&gt;n18933</title>
<path fill="none" stroke="lightgray" d="M43.8671,-32.4183C60.4486,-47.6384 87.0565,-72.4954 109,-95 122.596,-108.943 137.253,-125.13 148.74,-138.101"/>
<polygon fill="lightgray" stroke="lightgray" points="146.209,-140.522 155.445,-145.712 151.461,-135.895 146.209,-140.522"/>
<text text-anchor="middle" x="90.5" y="-98.8" font-family="Times New Roman,serif" font-size="14.00" fill="lightgray">wff ph</text>
</g>
</g>
</svg>
