<?xml version="1.0" encoding="UTF-8" standalone="no"?>
<!DOCTYPE svg PUBLIC "-//W3C//DTD SVG 1.1//EN"
 "http://www.w3.org/Graphics/SVG/1.1/DTD/svg11.dtd">
<!-- Generated by graphviz version 2.38.0 (20140413.2041)
 -->
<!-- Title: proof_3bitr3g Pages: 1 -->
<svg width="808pt" height="503pt"
 viewBox="0.00 0.00 808.27 503.00" xmlns="http://www.w3.org/2000/svg" xmlns:xlink="http://www.w3.org/1999/xlink">
<g id="graph0" class="graph" transform="scale(1 1) rotate(0) translate(4 499)">
<title>proof_3bitr3g</title>
<polygon fill="white" stroke="none" points="-4,4 -4,-499 804.273,-499 804.273,4 -4,4"/>
<!-- n5611 -->
<g id="node1" class="node"><title>n5611</title>
<ellipse fill="none" stroke="lightgray" cx="298.689" cy="-477" rx="27" ry="18"/>
<text text-anchor="middle" x="298.689" y="-473.3" font-family="Times New Roman,serif" font-size="14.00" fill="lightgray">wph</text>
</g>
<!-- n5623 -->
<g id="node2" class="node"><title>n5623</title>
<ellipse fill="cyan" stroke="black" cx="543.682" cy="-296" rx="35.194" ry="18"/>
<text text-anchor="middle" x="543.682" y="-292.3" font-family="Times New Roman,serif" font-size="14.00">syl6bb</text>
</g>
<!-- n5611&#45;&gt;n5623 -->
<g id="edge1" class="edge"><title>n5611&#45;&gt;n5623</title>
<path fill="none" stroke="lightgray" d="M325.506,-474.548C365.567,-469.463 443.03,-454.348 490.585,-411 515.927,-387.9 529.751,-350.085 536.671,-324.168"/>
<polygon fill="lightgray" stroke="lightgray" points="540.132,-324.752 539.15,-314.202 533.339,-323.062 540.132,-324.752"/>
<text text-anchor="middle" x="425.085" y="-471.8" font-family="Times New Roman,serif" font-size="14.00" fill="lightgray">wff ph</text>
</g>
<!-- n5612 -->
<g id="node3" class="node"><title>n5612</title>
<ellipse fill="none" stroke="lightgray" cx="298.689" cy="-405" rx="27" ry="18"/>
<text text-anchor="middle" x="298.689" y="-401.3" font-family="Times New Roman,serif" font-size="14.00" fill="lightgray">wth</text>
</g>
<!-- n5611&#45;&gt;n5612 -->
<g id="edge19" class="edge"><title>n5611&#45;&gt;n5612</title>
</g>
<!-- QED -->
<g id="node14" class="node"><title>QED</title>
</g>
<!-- n5623&#45;&gt;QED -->
<g id="edge18" class="edge"><title>n5623&#45;&gt;QED</title>
<path fill="none" stroke="black" d="M578.907,-296C619.969,-296 688.626,-296 731.508,-296"/>
<polygon fill="black" stroke="black" points="731.559,-299.5 741.559,-296 731.559,-292.5 731.559,-299.5"/>
<text text-anchor="middle" x="660.279" y="-299.8" font-family="Times New Roman,serif" font-size="14.00">|&#45; ( ph &#45;&gt; ( th &lt;&#45;&gt; ta ) )</text>
</g>
<!-- n5612&#45;&gt;n5623 -->
<g id="edge2" class="edge"><title>n5612&#45;&gt;n5623</title>
<path fill="none" stroke="lightgray" d="M324.867,-400.344C362.758,-392.584 435.826,-374.646 490.585,-343 501.516,-336.683 512.134,-327.777 520.902,-319.415"/>
<polygon fill="lightgray" stroke="lightgray" points="523.457,-321.811 528.093,-312.284 518.528,-316.841 523.457,-321.811"/>
<text text-anchor="middle" x="425.085" y="-395.8" font-family="Times New Roman,serif" font-size="14.00" fill="lightgray">wff th</text>
</g>
<!-- n5613 -->
<g id="node4" class="node"><title>n5613</title>
<ellipse fill="none" stroke="lightgray" cx="298.689" cy="-333" rx="27" ry="18"/>
<text text-anchor="middle" x="298.689" y="-329.3" font-family="Times New Roman,serif" font-size="14.00" fill="lightgray">wch</text>
</g>
<!-- n5612&#45;&gt;n5613 -->
<g id="edge20" class="edge"><title>n5612&#45;&gt;n5613</title>
</g>
<!-- n5613&#45;&gt;n5623 -->
<g id="edge3" class="edge"><title>n5613&#45;&gt;n5623</title>
<path fill="none" stroke="lightgray" d="M325.234,-329.11C366.729,-322.792 449.22,-310.231 499.817,-302.527"/>
<polygon fill="lightgray" stroke="lightgray" points="500.437,-305.973 509.796,-301.007 499.383,-299.053 500.437,-305.973"/>
<text text-anchor="middle" x="425.085" y="-327.8" font-family="Times New Roman,serif" font-size="14.00" fill="lightgray">wff ch</text>
</g>
<!-- n5614 -->
<g id="node5" class="node"><title>n5614</title>
<ellipse fill="none" stroke="lightgray" cx="298.689" cy="-261" rx="27" ry="18"/>
<text text-anchor="middle" x="298.689" y="-257.3" font-family="Times New Roman,serif" font-size="14.00" fill="lightgray">wta</text>
</g>
<!-- n5613&#45;&gt;n5614 -->
<g id="edge21" class="edge"><title>n5613&#45;&gt;n5614</title>
</g>
<!-- n5614&#45;&gt;n5623 -->
<g id="edge4" class="edge"><title>n5614&#45;&gt;n5623</title>
<path fill="none" stroke="lightgray" d="M325.359,-264.201C362.049,-268.842 431.58,-277.888 490.585,-287 493.66,-287.475 496.835,-287.982 500.029,-288.504"/>
<polygon fill="lightgray" stroke="lightgray" points="499.756,-292.007 510.196,-290.204 500.91,-285.103 499.756,-292.007"/>
<text text-anchor="middle" x="425.085" y="-290.8" font-family="Times New Roman,serif" font-size="14.00" fill="lightgray">wff ta</text>
</g>
<!-- n5621 -->
<g id="node7" class="node"><title>n5621</title>
<ellipse fill="cyan" stroke="black" cx="298.689" cy="-189" rx="38.1938" ry="18"/>
<text text-anchor="middle" x="298.689" y="-185.3" font-family="Times New Roman,serif" font-size="14.00">syl5bbr</text>
</g>
<!-- n5614&#45;&gt;n5621 -->
<g id="edge22" class="edge"><title>n5614&#45;&gt;n5621</title>
</g>
<!-- n5615 -->
<g id="node6" class="node"><title>n5615</title>
<ellipse fill="none" stroke="lightgray" cx="42.8962" cy="-378" rx="27" ry="18"/>
<text text-anchor="middle" x="42.8962" y="-374.3" font-family="Times New Roman,serif" font-size="14.00" fill="lightgray">wth</text>
</g>
<!-- n5615&#45;&gt;n5621 -->
<g id="edge5" class="edge"><title>n5615&#45;&gt;n5621</title>
<path fill="none" stroke="lightgray" d="M70.1951,-377.011C112.084,-373.955 193.714,-361.695 237.792,-313 261.959,-286.302 238.945,-265.827 255.792,-234 259.956,-226.134 265.852,-218.619 271.909,-212.06"/>
<polygon fill="lightgray" stroke="lightgray" points="274.493,-214.424 279.001,-204.836 269.498,-209.52 274.493,-214.424"/>
<text text-anchor="middle" x="170.792" y="-376.8" font-family="Times New Roman,serif" font-size="14.00" fill="lightgray">wff th</text>
</g>
<!-- n5616 -->
<g id="node8" class="node"><title>n5616</title>
<ellipse fill="none" stroke="lightgray" cx="42.8962" cy="-306" rx="27" ry="18"/>
<text text-anchor="middle" x="42.8962" y="-302.3" font-family="Times New Roman,serif" font-size="14.00" fill="lightgray">wps</text>
</g>
<!-- n5615&#45;&gt;n5616 -->
<g id="edge12" class="edge"><title>n5615&#45;&gt;n5616</title>
</g>
<!-- n5621&#45;&gt;n5623 -->
<g id="edge11" class="edge"><title>n5621&#45;&gt;n5623</title>
<path fill="none" stroke="black" d="M334.482,-195.91C374.1,-204.749 439.89,-222.427 490.585,-251 501.107,-256.931 511.441,-265.192 520.095,-273.019"/>
<polygon fill="black" stroke="black" points="517.844,-275.707 527.527,-280.006 522.639,-270.607 517.844,-275.707"/>
<text text-anchor="middle" x="425.085" y="-254.8" font-family="Times New Roman,serif" font-size="14.00">|&#45; ( ph &#45;&gt; ( th &lt;&#45;&gt; ch ) )</text>
</g>
<!-- n5622 -->
<g id="node13" class="node"><title>n5622</title>
<ellipse fill="orange" stroke="black" cx="298.689" cy="-117" rx="42.7926" ry="18"/>
<text text-anchor="middle" x="298.689" y="-113.3" font-family="Times New Roman,serif" font-size="14.00">3bitr3g.3</text>
</g>
<!-- n5621&#45;&gt;n5622 -->
<g id="edge23" class="edge"><title>n5621&#45;&gt;n5622</title>
</g>
<!-- n5616&#45;&gt;n5621 -->
<g id="edge6" class="edge"><title>n5616&#45;&gt;n5621</title>
<path fill="none" stroke="lightgray" d="M69.1911,-301.551C107.635,-294.012 182.17,-276.303 237.792,-244 251.84,-235.842 265.361,-223.905 275.99,-213.235"/>
<polygon fill="lightgray" stroke="lightgray" points="278.771,-215.393 283.185,-205.762 273.728,-210.539 278.771,-215.393"/>
<text text-anchor="middle" x="170.792" y="-297.8" font-family="Times New Roman,serif" font-size="14.00" fill="lightgray">wff ps</text>
</g>
<!-- n5617 -->
<g id="node9" class="node"><title>n5617</title>
<ellipse fill="none" stroke="lightgray" cx="42.8962" cy="-234" rx="27" ry="18"/>
<text text-anchor="middle" x="42.8962" y="-230.3" font-family="Times New Roman,serif" font-size="14.00" fill="lightgray">wph</text>
</g>
<!-- n5616&#45;&gt;n5617 -->
<g id="edge13" class="edge"><title>n5616&#45;&gt;n5617</title>
</g>
<!-- n5617&#45;&gt;n5621 -->
<g id="edge7" class="edge"><title>n5617&#45;&gt;n5621</title>
<path fill="none" stroke="lightgray" d="M69.3765,-230.212C106.513,-224.596 177.637,-213.485 237.792,-202 242.951,-201.015 248.348,-199.927 253.698,-198.811"/>
<polygon fill="lightgray" stroke="lightgray" points="254.801,-202.155 263.856,-196.653 253.347,-195.308 254.801,-202.155"/>
<text text-anchor="middle" x="170.792" y="-228.8" font-family="Times New Roman,serif" font-size="14.00" fill="lightgray">wff ph</text>
</g>
<!-- n5618 -->
<g id="node10" class="node"><title>n5618</title>
<ellipse fill="none" stroke="lightgray" cx="42.8962" cy="-162" rx="27" ry="18"/>
<text text-anchor="middle" x="42.8962" y="-158.3" font-family="Times New Roman,serif" font-size="14.00" fill="lightgray">wch</text>
</g>
<!-- n5617&#45;&gt;n5618 -->
<g id="edge14" class="edge"><title>n5617&#45;&gt;n5618</title>
</g>
<!-- n5618&#45;&gt;n5621 -->
<g id="edge8" class="edge"><title>n5618&#45;&gt;n5621</title>
<path fill="none" stroke="lightgray" d="M69.6278,-164.737C112.041,-169.25 197.24,-178.314 250.648,-183.996"/>
<polygon fill="lightgray" stroke="lightgray" points="250.569,-187.507 260.884,-185.084 251.31,-180.546 250.569,-187.507"/>
<text text-anchor="middle" x="170.792" y="-186.8" font-family="Times New Roman,serif" font-size="14.00" fill="lightgray">wff ch</text>
</g>
<!-- n5619 -->
<g id="node11" class="node"><title>n5619</title>
<ellipse fill="orange" stroke="black" cx="42.8962" cy="-90" rx="42.7926" ry="18"/>
<text text-anchor="middle" x="42.8962" y="-86.3" font-family="Times New Roman,serif" font-size="14.00">3bitr3g.2</text>
</g>
<!-- n5618&#45;&gt;n5619 -->
<g id="edge15" class="edge"><title>n5618&#45;&gt;n5619</title>
</g>
<!-- n5619&#45;&gt;n5621 -->
<g id="edge9" class="edge"><title>n5619&#45;&gt;n5621</title>
<path fill="none" stroke="black" d="M81.1171,-98.2559C121.009,-107.844 185.633,-125.532 237.792,-150 248.458,-155.003 259.45,-161.659 269.06,-168.054"/>
<polygon fill="black" stroke="black" points="267.22,-171.036 277.448,-173.798 271.175,-165.26 267.22,-171.036"/>
<text text-anchor="middle" x="170.792" y="-153.8" font-family="Times New Roman,serif" font-size="14.00">|&#45; ( ps &lt;&#45;&gt; th )</text>
</g>
<!-- n5620 -->
<g id="node12" class="node"><title>n5620</title>
<ellipse fill="orange" stroke="black" cx="42.8962" cy="-18" rx="42.7926" ry="18"/>
<text text-anchor="middle" x="42.8962" y="-14.3" font-family="Times New Roman,serif" font-size="14.00">3bitr3g.1</text>
</g>
<!-- n5619&#45;&gt;n5620 -->
<g id="edge16" class="edge"><title>n5619&#45;&gt;n5620</title>
</g>
<!-- n5620&#45;&gt;n5621 -->
<g id="edge10" class="edge"><title>n5620&#45;&gt;n5621</title>
<path fill="none" stroke="black" d="M85.2889,-21.7175C129.03,-27.8236 197.184,-43.8864 237.792,-86 256.527,-105.429 242.257,-120.649 255.792,-144 260.255,-151.7 266.255,-159.157 272.318,-165.714"/>
<polygon fill="black" stroke="black" points="269.889,-168.237 279.374,-172.957 274.903,-163.352 269.889,-168.237"/>
<text text-anchor="middle" x="170.792" y="-89.8" font-family="Times New Roman,serif" font-size="14.00">|&#45; ( ph &#45;&gt; ( ps &lt;&#45;&gt; ch ) )</text>
</g>
<!-- n5622&#45;&gt;n5623 -->
<g id="edge17" class="edge"><title>n5622&#45;&gt;n5623</title>
<path fill="none" stroke="black" d="M340.171,-121.877C382.377,-128.898 448.171,-145.545 490.585,-184 515.3,-206.408 529.216,-242.941 536.33,-268.158"/>
<polygon fill="black" stroke="black" points="532.957,-269.094 538.894,-277.869 539.725,-267.307 532.957,-269.094"/>
<text text-anchor="middle" x="425.085" y="-187.8" font-family="Times New Roman,serif" font-size="14.00">|&#45; ( ch &lt;&#45;&gt; ta )</text>
</g>
</g>
</svg>
