<?xml version="1.0" encoding="UTF-8" standalone="no"?>
<!DOCTYPE svg PUBLIC "-//W3C//DTD SVG 1.1//EN"
 "http://www.w3.org/Graphics/SVG/1.1/DTD/svg11.dtd">
<!-- Generated by graphviz version 2.38.0 (20140413.2041)
 -->
<!-- Title: proof_3orcomb Pages: 1 -->
<svg width="1140pt" height="1304pt"
 viewBox="0.00 0.00 1139.88 1304.00" xmlns="http://www.w3.org/2000/svg" xmlns:xlink="http://www.w3.org/1999/xlink">
<g id="graph0" class="graph" transform="scale(1 1) rotate(0) translate(4 1300)">
<title>proof_3orcomb</title>
<polygon fill="white" stroke="none" points="-4,4 -4,-1300 1135.88,-1300 1135.88,4 -4,4"/>
<!-- n18876 -->
<g id="node1" class="node"><title>n18876</title>
<ellipse fill="none" stroke="lightgray" cx="161.447" cy="-1278" rx="27" ry="18"/>
<text text-anchor="middle" x="161.447" y="-1274.3" font-family="Times New Roman,serif" font-size="14.00" fill="lightgray">wph</text>
</g>
<!-- n18880 -->
<g id="node2" class="node"><title>n18880</title>
<ellipse fill="none" stroke="lightgray" cx="432.341" cy="-1170" rx="27" ry="18"/>
<text text-anchor="middle" x="432.341" y="-1166.3" font-family="Times New Roman,serif" font-size="14.00" fill="lightgray">wo</text>
</g>
<!-- n18876&#45;&gt;n18880 -->
<g id="edge1" class="edge"><title>n18876&#45;&gt;n18880</title>
<path fill="none" stroke="lightgray" d="M188.071,-1274.97C230.339,-1269.12 316.322,-1253.56 379.894,-1218 391.555,-1211.48 402.642,-1201.77 411.518,-1192.78"/>
<polygon fill="lightgray" stroke="lightgray" points="414.086,-1195.16 418.418,-1185.49 409.002,-1190.35 414.086,-1195.16"/>
<text text-anchor="middle" x="296.894" y="-1273.8" font-family="Times New Roman,serif" font-size="14.00" fill="lightgray">wff ph</text>
</g>
<!-- n18879 -->
<g id="node4" class="node"><title>n18879</title>
<ellipse fill="none" stroke="lightgray" cx="161.447" cy="-1206" rx="27" ry="18"/>
<text text-anchor="middle" x="161.447" y="-1202.3" font-family="Times New Roman,serif" font-size="14.00" fill="lightgray">wo</text>
</g>
<!-- n18876&#45;&gt;n18879 -->
<g id="edge7" class="edge"><title>n18876&#45;&gt;n18879</title>
</g>
<!-- n18913 -->
<g id="node6" class="node"><title>n18913</title>
<ellipse fill="cyan" stroke="black" cx="786.585" cy="-756" rx="33.5952" ry="18"/>
<text text-anchor="middle" x="786.585" y="-752.3" font-family="Times New Roman,serif" font-size="14.00">3bitr4i</text>
</g>
<!-- n18880&#45;&gt;n18913 -->
<g id="edge6" class="edge"><title>n18880&#45;&gt;n18913</title>
<path fill="none" stroke="lightgray" d="M459.576,-1170.19C518.738,-1169.08 662.969,-1157.48 734.788,-1074 771.994,-1030.75 782.161,-854.363 784.755,-784.596"/>
<polygon fill="lightgray" stroke="lightgray" points="788.262,-784.467 785.109,-774.351 781.266,-784.225 788.262,-784.467"/>
<text text-anchor="middle" x="609.788" y="-1173.8" font-family="Times New Roman,serif" font-size="14.00" fill="lightgray">wff ( ph / ( ps / ch ) )</text>
</g>
<!-- n18885 -->
<g id="node8" class="node"><title>n18885</title>
<ellipse fill="none" stroke="lightgray" cx="432.341" cy="-1080" rx="27" ry="18"/>
<text text-anchor="middle" x="432.341" y="-1076.3" font-family="Times New Roman,serif" font-size="14.00" fill="lightgray">wo</text>
</g>
<!-- n18880&#45;&gt;n18885 -->
<g id="edge57" class="edge"><title>n18880&#45;&gt;n18885</title>
</g>
<!-- n18877 -->
<g id="node3" class="node"><title>n18877</title>
<ellipse fill="none" stroke="lightgray" cx="27" cy="-1235" rx="27" ry="18"/>
<text text-anchor="middle" x="27" y="-1231.3" font-family="Times New Roman,serif" font-size="14.00" fill="lightgray">wps</text>
</g>
<!-- n18877&#45;&gt;n18879 -->
<g id="edge2" class="edge"><title>n18877&#45;&gt;n18879</title>
<path fill="none" stroke="lightgray" d="M52.9123,-1229.55C73.4467,-1225.05 102.805,-1218.62 125.659,-1213.62"/>
<polygon fill="lightgray" stroke="lightgray" points="126.626,-1216.99 135.646,-1211.43 125.129,-1210.15 126.626,-1216.99"/>
<text text-anchor="middle" x="90.5" y="-1227.8" font-family="Times New Roman,serif" font-size="14.00" fill="lightgray">wff ps</text>
</g>
<!-- n18878 -->
<g id="node5" class="node"><title>n18878</title>
<ellipse fill="none" stroke="lightgray" cx="27" cy="-1163" rx="27" ry="18"/>
<text text-anchor="middle" x="27" y="-1159.3" font-family="Times New Roman,serif" font-size="14.00" fill="lightgray">wch</text>
</g>
<!-- n18877&#45;&gt;n18878 -->
<g id="edge5" class="edge"><title>n18877&#45;&gt;n18878</title>
</g>
<!-- n18879&#45;&gt;n18880 -->
<g id="edge4" class="edge"><title>n18879&#45;&gt;n18880</title>
<path fill="none" stroke="lightgray" d="M188.23,-1202.55C236.514,-1196.08 340.649,-1182.14 395.644,-1174.78"/>
<polygon fill="lightgray" stroke="lightgray" points="396.189,-1178.24 405.636,-1173.44 395.26,-1171.3 396.189,-1178.24"/>
<text text-anchor="middle" x="296.894" y="-1202.8" font-family="Times New Roman,serif" font-size="14.00" fill="lightgray">wff ( ps / ch )</text>
</g>
<!-- n18878&#45;&gt;n18879 -->
<g id="edge3" class="edge"><title>n18878&#45;&gt;n18879</title>
<path fill="none" stroke="lightgray" d="M51.6789,-1170.69C72.7733,-1177.54 103.855,-1187.63 127.397,-1195.27"/>
<polygon fill="lightgray" stroke="lightgray" points="126.381,-1198.62 136.973,-1198.38 128.543,-1191.96 126.381,-1198.62"/>
<text text-anchor="middle" x="90.5" y="-1192.8" font-family="Times New Roman,serif" font-size="14.00" fill="lightgray">wff ch</text>
</g>
<!-- QED -->
<g id="node39" class="node"><title>QED</title>
</g>
<!-- n18913&#45;&gt;QED -->
<g id="edge56" class="edge"><title>n18913&#45;&gt;QED</title>
<path fill="none" stroke="black" d="M820.599,-756C879.104,-756 1000.67,-756 1062.98,-756"/>
<polygon fill="black" stroke="black" points="1063.17,-759.5 1073.17,-756 1063.17,-752.5 1063.17,-759.5"/>
<text text-anchor="middle" x="946.882" y="-759.8" font-family="Times New Roman,serif" font-size="14.00">|&#45; ( ( ph / ps / ch ) &lt;&#45;&gt; ( ph / ch / ps ) )</text>
</g>
<!-- n18881 -->
<g id="node7" class="node"><title>n18881</title>
<ellipse fill="none" stroke="lightgray" cx="161.447" cy="-1152" rx="27" ry="18"/>
<text text-anchor="middle" x="161.447" y="-1148.3" font-family="Times New Roman,serif" font-size="14.00" fill="lightgray">wph</text>
</g>
<!-- n18881&#45;&gt;n18885 -->
<g id="edge8" class="edge"><title>n18881&#45;&gt;n18885</title>
<path fill="none" stroke="lightgray" d="M187.483,-1146.88C228.202,-1138.33 311.145,-1120 379.894,-1099 386.169,-1097.08 392.793,-1094.82 399.124,-1092.54"/>
<polygon fill="lightgray" stroke="lightgray" points="400.573,-1095.74 408.738,-1088.98 398.145,-1089.17 400.573,-1095.74"/>
<text text-anchor="middle" x="296.894" y="-1144.8" font-family="Times New Roman,serif" font-size="14.00" fill="lightgray">wff ph</text>
</g>
<!-- n18884 -->
<g id="node10" class="node"><title>n18884</title>
<ellipse fill="none" stroke="lightgray" cx="161.447" cy="-1080" rx="27" ry="18"/>
<text text-anchor="middle" x="161.447" y="-1076.3" font-family="Times New Roman,serif" font-size="14.00" fill="lightgray">wo</text>
</g>
<!-- n18881&#45;&gt;n18884 -->
<g id="edge14" class="edge"><title>n18881&#45;&gt;n18884</title>
</g>
<!-- n18885&#45;&gt;n18913 -->
<g id="edge13" class="edge"><title>n18885&#45;&gt;n18913</title>
<path fill="none" stroke="lightgray" d="M455.162,-1070.23C517.544,-1041.91 694.73,-958.738 734.788,-910 765.113,-873.104 777.553,-817.483 782.496,-784.155"/>
<polygon fill="lightgray" stroke="lightgray" points="785.974,-784.55 783.85,-774.17 779.038,-783.609 785.974,-784.55"/>
<text text-anchor="middle" x="609.788" y="-1058.8" font-family="Times New Roman,serif" font-size="14.00" fill="lightgray">wff ( ph / ( ch / ps ) )</text>
</g>
<!-- n18889 -->
<g id="node13" class="node"><title>n18889</title>
<ellipse fill="none" stroke="lightgray" cx="432.341" cy="-918" rx="27" ry="18"/>
<text text-anchor="middle" x="432.341" y="-914.3" font-family="Times New Roman,serif" font-size="14.00" fill="lightgray">w3o</text>
</g>
<!-- n18885&#45;&gt;n18889 -->
<g id="edge58" class="edge"><title>n18885&#45;&gt;n18889</title>
</g>
<!-- n18882 -->
<g id="node9" class="node"><title>n18882</title>
<ellipse fill="none" stroke="lightgray" cx="27" cy="-1101" rx="27" ry="18"/>
<text text-anchor="middle" x="27" y="-1097.3" font-family="Times New Roman,serif" font-size="14.00" fill="lightgray">wch</text>
</g>
<!-- n18882&#45;&gt;n18884 -->
<g id="edge9" class="edge"><title>n18882&#45;&gt;n18884</title>
<path fill="none" stroke="lightgray" d="M53.5371,-1096.95C73.7839,-1093.74 102.315,-1089.22 124.811,-1085.65"/>
<polygon fill="lightgray" stroke="lightgray" points="125.66,-1089.06 134.988,-1084.04 124.563,-1082.15 125.66,-1089.06"/>
<text text-anchor="middle" x="90.5" y="-1097.8" font-family="Times New Roman,serif" font-size="14.00" fill="lightgray">wff ch</text>
</g>
<!-- n18883 -->
<g id="node11" class="node"><title>n18883</title>
<ellipse fill="none" stroke="lightgray" cx="27" cy="-1029" rx="27" ry="18"/>
<text text-anchor="middle" x="27" y="-1025.3" font-family="Times New Roman,serif" font-size="14.00" fill="lightgray">wps</text>
</g>
<!-- n18882&#45;&gt;n18883 -->
<g id="edge12" class="edge"><title>n18882&#45;&gt;n18883</title>
</g>
<!-- n18884&#45;&gt;n18885 -->
<g id="edge11" class="edge"><title>n18884&#45;&gt;n18885</title>
<path fill="none" stroke="lightgray" d="M188.719,-1080C237.013,-1080 339.972,-1080 394.956,-1080"/>
<polygon fill="lightgray" stroke="lightgray" points="394.962,-1083.5 404.962,-1080 394.962,-1076.5 394.962,-1083.5"/>
<text text-anchor="middle" x="296.894" y="-1083.8" font-family="Times New Roman,serif" font-size="14.00" fill="lightgray">wff ( ch / ps )</text>
</g>
<!-- n18883&#45;&gt;n18884 -->
<g id="edge10" class="edge"><title>n18883&#45;&gt;n18884</title>
<path fill="none" stroke="lightgray" d="M50.7684,-1037.77C72.0903,-1045.98 104.172,-1058.33 128.138,-1067.56"/>
<polygon fill="lightgray" stroke="lightgray" points="126.943,-1070.85 137.532,-1071.18 129.458,-1064.32 126.943,-1070.85"/>
<text text-anchor="middle" x="90.5" y="-1063.8" font-family="Times New Roman,serif" font-size="14.00" fill="lightgray">wff ps</text>
</g>
<!-- n18886 -->
<g id="node12" class="node"><title>n18886</title>
<ellipse fill="none" stroke="lightgray" cx="161.447" cy="-1026" rx="27" ry="18"/>
<text text-anchor="middle" x="161.447" y="-1022.3" font-family="Times New Roman,serif" font-size="14.00" fill="lightgray">wph</text>
</g>
<!-- n18886&#45;&gt;n18889 -->
<g id="edge15" class="edge"><title>n18886&#45;&gt;n18889</title>
<path fill="none" stroke="lightgray" d="M188.071,-1022.97C230.339,-1017.12 316.322,-1001.56 379.894,-966 391.555,-959.478 402.642,-949.767 411.518,-940.782"/>
<polygon fill="lightgray" stroke="lightgray" points="414.086,-943.161 418.418,-933.492 409.002,-938.349 414.086,-943.161"/>
<text text-anchor="middle" x="296.894" y="-1022.8" font-family="Times New Roman,serif" font-size="14.00" fill="lightgray">wff ph</text>
</g>
<!-- n18887 -->
<g id="node14" class="node"><title>n18887</title>
<ellipse fill="none" stroke="lightgray" cx="161.447" cy="-954" rx="27" ry="18"/>
<text text-anchor="middle" x="161.447" y="-950.3" font-family="Times New Roman,serif" font-size="14.00" fill="lightgray">wps</text>
</g>
<!-- n18886&#45;&gt;n18887 -->
<g id="edge19" class="edge"><title>n18886&#45;&gt;n18887</title>
</g>
<!-- n18889&#45;&gt;n18913 -->
<g id="edge18" class="edge"><title>n18889&#45;&gt;n18913</title>
<path fill="none" stroke="lightgray" d="M455.109,-907.988C514.395,-880.722 679.094,-804.976 751.121,-771.85"/>
<polygon fill="lightgray" stroke="lightgray" points="752.621,-775.013 760.244,-767.654 749.696,-768.653 752.621,-775.013"/>
<text text-anchor="middle" x="609.788" y="-894.8" font-family="Times New Roman,serif" font-size="14.00" fill="lightgray">wff ( ph / ps / ch )</text>
</g>
<!-- n18893 -->
<g id="node17" class="node"><title>n18893</title>
<ellipse fill="none" stroke="lightgray" cx="432.341" cy="-756" rx="27" ry="18"/>
<text text-anchor="middle" x="432.341" y="-752.3" font-family="Times New Roman,serif" font-size="14.00" fill="lightgray">w3o</text>
</g>
<!-- n18889&#45;&gt;n18893 -->
<g id="edge59" class="edge"><title>n18889&#45;&gt;n18893</title>
</g>
<!-- n18887&#45;&gt;n18889 -->
<g id="edge16" class="edge"><title>n18887&#45;&gt;n18889</title>
<path fill="none" stroke="lightgray" d="M188.23,-950.548C236.514,-944.084 340.649,-930.142 395.644,-922.779"/>
<polygon fill="lightgray" stroke="lightgray" points="396.189,-926.237 405.636,-921.441 395.26,-919.299 396.189,-926.237"/>
<text text-anchor="middle" x="296.894" y="-950.8" font-family="Times New Roman,serif" font-size="14.00" fill="lightgray">wff ps</text>
</g>
<!-- n18888 -->
<g id="node15" class="node"><title>n18888</title>
<ellipse fill="none" stroke="lightgray" cx="161.447" cy="-882" rx="27" ry="18"/>
<text text-anchor="middle" x="161.447" y="-878.3" font-family="Times New Roman,serif" font-size="14.00" fill="lightgray">wch</text>
</g>
<!-- n18887&#45;&gt;n18888 -->
<g id="edge20" class="edge"><title>n18887&#45;&gt;n18888</title>
</g>
<!-- n18888&#45;&gt;n18889 -->
<g id="edge17" class="edge"><title>n18888&#45;&gt;n18889</title>
<path fill="none" stroke="lightgray" d="M188.36,-883.855C229.261,-887.008 311.199,-894.241 379.894,-906 385.431,-906.948 391.263,-908.129 396.933,-909.378"/>
<polygon fill="lightgray" stroke="lightgray" points="396.333,-912.831 406.864,-911.662 397.903,-906.009 396.333,-912.831"/>
<text text-anchor="middle" x="296.894" y="-909.8" font-family="Times New Roman,serif" font-size="14.00" fill="lightgray">wff ch</text>
</g>
<!-- n18890 -->
<g id="node16" class="node"><title>n18890</title>
<ellipse fill="none" stroke="lightgray" cx="161.447" cy="-828" rx="27" ry="18"/>
<text text-anchor="middle" x="161.447" y="-824.3" font-family="Times New Roman,serif" font-size="14.00" fill="lightgray">wph</text>
</g>
<!-- n18890&#45;&gt;n18893 -->
<g id="edge21" class="edge"><title>n18890&#45;&gt;n18893</title>
<path fill="none" stroke="lightgray" d="M187.483,-822.876C228.202,-814.325 311.145,-795.998 379.894,-775 386.169,-773.084 392.793,-770.822 399.124,-768.541"/>
<polygon fill="lightgray" stroke="lightgray" points="400.573,-771.736 408.738,-764.985 398.145,-765.171 400.573,-771.736"/>
<text text-anchor="middle" x="296.894" y="-820.8" font-family="Times New Roman,serif" font-size="14.00" fill="lightgray">wff ph</text>
</g>
<!-- n18891 -->
<g id="node18" class="node"><title>n18891</title>
<ellipse fill="none" stroke="lightgray" cx="161.447" cy="-756" rx="27" ry="18"/>
<text text-anchor="middle" x="161.447" y="-752.3" font-family="Times New Roman,serif" font-size="14.00" fill="lightgray">wch</text>
</g>
<!-- n18890&#45;&gt;n18891 -->
<g id="edge25" class="edge"><title>n18890&#45;&gt;n18891</title>
</g>
<!-- n18893&#45;&gt;n18913 -->
<g id="edge24" class="edge"><title>n18893&#45;&gt;n18913</title>
<path fill="none" stroke="lightgray" d="M459.529,-756C519.707,-756 668.352,-756 742.328,-756"/>
<polygon fill="lightgray" stroke="lightgray" points="742.681,-759.5 752.681,-756 742.681,-752.5 742.681,-759.5"/>
<text text-anchor="middle" x="609.788" y="-759.8" font-family="Times New Roman,serif" font-size="14.00" fill="lightgray">wff ( ph / ch / ps )</text>
</g>
<!-- n18904 -->
<g id="node23" class="node"><title>n18904</title>
<ellipse fill="cyan" stroke="black" cx="432.341" cy="-558" rx="31.6951" ry="18"/>
<text text-anchor="middle" x="432.341" y="-554.3" font-family="Times New Roman,serif" font-size="14.00">orbi2i</text>
</g>
<!-- n18893&#45;&gt;n18904 -->
<g id="edge60" class="edge"><title>n18893&#45;&gt;n18904</title>
</g>
<!-- n18891&#45;&gt;n18893 -->
<g id="edge22" class="edge"><title>n18891&#45;&gt;n18893</title>
<path fill="none" stroke="lightgray" d="M188.719,-756C237.013,-756 339.972,-756 394.956,-756"/>
<polygon fill="lightgray" stroke="lightgray" points="394.962,-759.5 404.962,-756 394.962,-752.5 394.962,-759.5"/>
<text text-anchor="middle" x="296.894" y="-759.8" font-family="Times New Roman,serif" font-size="14.00" fill="lightgray">wff ch</text>
</g>
<!-- n18892 -->
<g id="node19" class="node"><title>n18892</title>
<ellipse fill="none" stroke="lightgray" cx="161.447" cy="-684" rx="27" ry="18"/>
<text text-anchor="middle" x="161.447" y="-680.3" font-family="Times New Roman,serif" font-size="14.00" fill="lightgray">wps</text>
</g>
<!-- n18891&#45;&gt;n18892 -->
<g id="edge26" class="edge"><title>n18891&#45;&gt;n18892</title>
</g>
<!-- n18892&#45;&gt;n18893 -->
<g id="edge23" class="edge"><title>n18892&#45;&gt;n18893</title>
<path fill="none" stroke="lightgray" d="M187.483,-689.124C228.202,-697.675 311.145,-716.002 379.894,-737 386.169,-738.916 392.793,-741.178 399.124,-743.459"/>
<polygon fill="lightgray" stroke="lightgray" points="398.145,-746.829 408.738,-747.015 400.573,-740.264 398.145,-746.829"/>
<text text-anchor="middle" x="296.894" y="-740.8" font-family="Times New Roman,serif" font-size="14.00" fill="lightgray">wff ps</text>
</g>
<!-- n18894 -->
<g id="node20" class="node"><title>n18894</title>
<ellipse fill="none" stroke="lightgray" cx="27" cy="-692" rx="27" ry="18"/>
<text text-anchor="middle" x="27" y="-688.3" font-family="Times New Roman,serif" font-size="14.00" fill="lightgray">wch</text>
</g>
<!-- n18896 -->
<g id="node21" class="node"><title>n18896</title>
<ellipse fill="none" stroke="lightgray" cx="161.447" cy="-630" rx="27" ry="18"/>
<text text-anchor="middle" x="161.447" y="-626.3" font-family="Times New Roman,serif" font-size="14.00" fill="lightgray">wo</text>
</g>
<!-- n18894&#45;&gt;n18896 -->
<g id="edge27" class="edge"><title>n18894&#45;&gt;n18896</title>
<path fill="none" stroke="lightgray" d="M49.5747,-681.901C71.3177,-671.722 105.081,-655.918 129.638,-644.422"/>
<polygon fill="lightgray" stroke="lightgray" points="131.309,-647.505 138.882,-640.095 128.341,-641.165 131.309,-647.505"/>
<text text-anchor="middle" x="90.5" y="-674.8" font-family="Times New Roman,serif" font-size="14.00" fill="lightgray">wff ch</text>
</g>
<!-- n18895 -->
<g id="node22" class="node"><title>n18895</title>
<ellipse fill="none" stroke="lightgray" cx="27" cy="-620" rx="27" ry="18"/>
<text text-anchor="middle" x="27" y="-616.3" font-family="Times New Roman,serif" font-size="14.00" fill="lightgray">wps</text>
</g>
<!-- n18894&#45;&gt;n18895 -->
<g id="edge30" class="edge"><title>n18894&#45;&gt;n18895</title>
</g>
<!-- n18896&#45;&gt;n18904 -->
<g id="edge29" class="edge"><title>n18896&#45;&gt;n18904</title>
<path fill="none" stroke="lightgray" d="M187.483,-624.876C228.202,-616.325 311.145,-597.998 379.894,-577 385.244,-575.366 390.848,-573.481 396.307,-571.547"/>
<polygon fill="lightgray" stroke="lightgray" points="397.695,-574.767 405.893,-568.055 395.299,-568.19 397.695,-574.767"/>
<text text-anchor="middle" x="296.894" y="-622.8" font-family="Times New Roman,serif" font-size="14.00" fill="lightgray">wff ( ps / ch )</text>
</g>
<!-- n18899 -->
<g id="node25" class="node"><title>n18899</title>
<ellipse fill="none" stroke="lightgray" cx="161.447" cy="-558" rx="27" ry="18"/>
<text text-anchor="middle" x="161.447" y="-554.3" font-family="Times New Roman,serif" font-size="14.00" fill="lightgray">wo</text>
</g>
<!-- n18896&#45;&gt;n18899 -->
<g id="edge41" class="edge"><title>n18896&#45;&gt;n18899</title>
</g>
<!-- n18895&#45;&gt;n18896 -->
<g id="edge28" class="edge"><title>n18895&#45;&gt;n18896</title>
<path fill="none" stroke="lightgray" d="M53.8515,-621.952C73.8683,-623.463 101.843,-625.575 124.111,-627.257"/>
<polygon fill="lightgray" stroke="lightgray" points="123.973,-630.756 134.208,-628.019 124.5,-623.776 123.973,-630.756"/>
<text text-anchor="middle" x="90.5" y="-629.8" font-family="Times New Roman,serif" font-size="14.00" fill="lightgray">wff ps</text>
</g>
<!-- n18904&#45;&gt;n18913 -->
<g id="edge40" class="edge"><title>n18904&#45;&gt;n18913</title>
<path fill="none" stroke="black" d="M455.642,-570.536C516.141,-604.543 683.521,-698.629 753.832,-738.151"/>
<polygon fill="black" stroke="black" points="752.265,-741.285 762.697,-743.134 755.695,-735.183 752.265,-741.285"/>
<text text-anchor="middle" x="609.788" y="-731.8" font-family="Times New Roman,serif" font-size="14.00">|&#45; ( ( ph / ( ps / ch ) ) &lt;&#45;&gt; ( ph / ( ch / ps ) ) )</text>
</g>
<!-- n18908 -->
<g id="node32" class="node"><title>n18908</title>
<ellipse fill="cyan" stroke="black" cx="432.341" cy="-332" rx="34.394" ry="18"/>
<text text-anchor="middle" x="432.341" y="-328.3" font-family="Times New Roman,serif" font-size="14.00">3orass</text>
</g>
<!-- n18904&#45;&gt;n18908 -->
<g id="edge61" class="edge"><title>n18904&#45;&gt;n18908</title>
</g>
<!-- n18897 -->
<g id="node24" class="node"><title>n18897</title>
<ellipse fill="none" stroke="lightgray" cx="27" cy="-564" rx="27" ry="18"/>
<text text-anchor="middle" x="27" y="-560.3" font-family="Times New Roman,serif" font-size="14.00" fill="lightgray">wps</text>
</g>
<!-- n18897&#45;&gt;n18899 -->
<g id="edge31" class="edge"><title>n18897&#45;&gt;n18899</title>
<path fill="none" stroke="lightgray" d="M54.1673,-562.815C74.2124,-561.907 102.101,-560.643 124.28,-559.638"/>
<polygon fill="lightgray" stroke="lightgray" points="124.503,-563.132 134.334,-559.183 124.186,-556.139 124.503,-563.132"/>
<text text-anchor="middle" x="90.5" y="-565.8" font-family="Times New Roman,serif" font-size="14.00" fill="lightgray">wff ps</text>
</g>
<!-- n18898 -->
<g id="node26" class="node"><title>n18898</title>
<ellipse fill="none" stroke="lightgray" cx="27" cy="-492" rx="27" ry="18"/>
<text text-anchor="middle" x="27" y="-488.3" font-family="Times New Roman,serif" font-size="14.00" fill="lightgray">wch</text>
</g>
<!-- n18897&#45;&gt;n18898 -->
<g id="edge34" class="edge"><title>n18897&#45;&gt;n18898</title>
</g>
<!-- n18899&#45;&gt;n18904 -->
<g id="edge33" class="edge"><title>n18899&#45;&gt;n18904</title>
<path fill="none" stroke="lightgray" d="M188.719,-558C235.647,-558 334.193,-558 390.179,-558"/>
<polygon fill="lightgray" stroke="lightgray" points="390.448,-561.5 400.448,-558 390.448,-554.5 390.448,-561.5"/>
<text text-anchor="middle" x="296.894" y="-561.8" font-family="Times New Roman,serif" font-size="14.00" fill="lightgray">wff ( ch / ps )</text>
</g>
<!-- n18900 -->
<g id="node27" class="node"><title>n18900</title>
<ellipse fill="none" stroke="lightgray" cx="161.447" cy="-486" rx="27" ry="18"/>
<text text-anchor="middle" x="161.447" y="-482.3" font-family="Times New Roman,serif" font-size="14.00" fill="lightgray">wph</text>
</g>
<!-- n18899&#45;&gt;n18900 -->
<g id="edge42" class="edge"><title>n18899&#45;&gt;n18900</title>
</g>
<!-- n18898&#45;&gt;n18899 -->
<g id="edge32" class="edge"><title>n18898&#45;&gt;n18899</title>
<path fill="none" stroke="lightgray" d="M48.9866,-502.458C70.8482,-513.352 105.309,-530.524 130.127,-542.891"/>
<polygon fill="lightgray" stroke="lightgray" points="128.609,-546.045 139.12,-547.372 131.731,-539.78 128.609,-546.045"/>
<text text-anchor="middle" x="90.5" y="-534.8" font-family="Times New Roman,serif" font-size="14.00" fill="lightgray">wff ch</text>
</g>
<!-- n18900&#45;&gt;n18904 -->
<g id="edge35" class="edge"><title>n18900&#45;&gt;n18904</title>
<path fill="none" stroke="lightgray" d="M187.483,-491.124C228.202,-499.675 311.145,-518.002 379.894,-539 385.244,-540.634 390.848,-542.519 396.307,-544.453"/>
<polygon fill="lightgray" stroke="lightgray" points="395.299,-547.81 405.893,-547.945 397.695,-541.233 395.299,-547.81"/>
<text text-anchor="middle" x="296.894" y="-542.8" font-family="Times New Roman,serif" font-size="14.00" fill="lightgray">wff ph</text>
</g>
<!-- n18903 -->
<g id="node29" class="node"><title>n18903</title>
<ellipse fill="cyan" stroke="black" cx="161.447" cy="-414" rx="34.394" ry="18"/>
<text text-anchor="middle" x="161.447" y="-410.3" font-family="Times New Roman,serif" font-size="14.00">orcom</text>
</g>
<!-- n18900&#45;&gt;n18903 -->
<g id="edge43" class="edge"><title>n18900&#45;&gt;n18903</title>
</g>
<!-- n18901 -->
<g id="node28" class="node"><title>n18901</title>
<ellipse fill="none" stroke="lightgray" cx="27" cy="-431" rx="27" ry="18"/>
<text text-anchor="middle" x="27" y="-427.3" font-family="Times New Roman,serif" font-size="14.00" fill="lightgray">wps</text>
</g>
<!-- n18901&#45;&gt;n18903 -->
<g id="edge36" class="edge"><title>n18901&#45;&gt;n18903</title>
<path fill="none" stroke="lightgray" d="M53.8515,-427.682C71.9663,-425.357 96.5982,-422.195 117.621,-419.497"/>
<polygon fill="lightgray" stroke="lightgray" points="118.133,-422.96 127.606,-418.215 117.242,-416.017 118.133,-422.96"/>
<text text-anchor="middle" x="90.5" y="-429.8" font-family="Times New Roman,serif" font-size="14.00" fill="lightgray">wff ps</text>
</g>
<!-- n18902 -->
<g id="node30" class="node"><title>n18902</title>
<ellipse fill="none" stroke="lightgray" cx="27" cy="-359" rx="27" ry="18"/>
<text text-anchor="middle" x="27" y="-355.3" font-family="Times New Roman,serif" font-size="14.00" fill="lightgray">wch</text>
</g>
<!-- n18901&#45;&gt;n18902 -->
<g id="edge39" class="edge"><title>n18901&#45;&gt;n18902</title>
</g>
<!-- n18903&#45;&gt;n18904 -->
<g id="edge38" class="edge"><title>n18903&#45;&gt;n18904</title>
<path fill="none" stroke="black" d="M195.832,-416.819C241.472,-422.152 324.039,-437.238 379.894,-479 397.811,-492.397 411.262,-514.009 419.908,-531.245"/>
<polygon fill="black" stroke="black" points="416.756,-532.766 424.215,-540.29 423.076,-529.757 416.756,-532.766"/>
<text text-anchor="middle" x="296.894" y="-482.8" font-family="Times New Roman,serif" font-size="14.00">|&#45; ( ( ps / ch ) &lt;&#45;&gt; ( ch / ps ) )</text>
</g>
<!-- n18902&#45;&gt;n18903 -->
<g id="edge37" class="edge"><title>n18902&#45;&gt;n18903</title>
<path fill="none" stroke="lightgray" d="M50.4678,-368.33C70.7063,-376.734 100.813,-389.237 124.413,-399.036"/>
<polygon fill="lightgray" stroke="lightgray" points="123.176,-402.313 133.754,-402.915 125.861,-395.848 123.176,-402.313"/>
<text text-anchor="middle" x="90.5" y="-395.8" font-family="Times New Roman,serif" font-size="14.00" fill="lightgray">wff ch</text>
</g>
<!-- n18905 -->
<g id="node31" class="node"><title>n18905</title>
<ellipse fill="none" stroke="lightgray" cx="161.447" cy="-360" rx="27" ry="18"/>
<text text-anchor="middle" x="161.447" y="-356.3" font-family="Times New Roman,serif" font-size="14.00" fill="lightgray">wph</text>
</g>
<!-- n18905&#45;&gt;n18908 -->
<g id="edge44" class="edge"><title>n18905&#45;&gt;n18908</title>
<path fill="none" stroke="lightgray" d="M188.23,-357.315C234.387,-352.509 331.583,-342.388 388.099,-336.503"/>
<polygon fill="lightgray" stroke="lightgray" points="388.573,-339.972 398.156,-335.456 387.848,-333.01 388.573,-339.972"/>
<text text-anchor="middle" x="296.894" y="-357.8" font-family="Times New Roman,serif" font-size="14.00" fill="lightgray">wff ph</text>
</g>
<!-- n18906 -->
<g id="node33" class="node"><title>n18906</title>
<ellipse fill="none" stroke="lightgray" cx="161.447" cy="-288" rx="27" ry="18"/>
<text text-anchor="middle" x="161.447" y="-284.3" font-family="Times New Roman,serif" font-size="14.00" fill="lightgray">wps</text>
</g>
<!-- n18905&#45;&gt;n18906 -->
<g id="edge48" class="edge"><title>n18905&#45;&gt;n18906</title>
</g>
<!-- n18908&#45;&gt;n18913 -->
<g id="edge47" class="edge"><title>n18908&#45;&gt;n18913</title>
<path fill="none" stroke="black" d="M457.539,-344.342C514.923,-374.879 660.026,-459.773 734.788,-573 766.701,-621.333 778.735,-689.499 783.146,-727.523"/>
<polygon fill="black" stroke="black" points="779.706,-728.279 784.24,-737.855 786.667,-727.541 779.706,-728.279"/>
<text text-anchor="middle" x="609.788" y="-576.8" font-family="Times New Roman,serif" font-size="14.00">|&#45; ( ( ph / ps / ch ) &lt;&#45;&gt; ( ph / ( ps / ch ) ) )</text>
</g>
<!-- n18912 -->
<g id="node36" class="node"><title>n18912</title>
<ellipse fill="cyan" stroke="black" cx="432.341" cy="-162" rx="34.394" ry="18"/>
<text text-anchor="middle" x="432.341" y="-158.3" font-family="Times New Roman,serif" font-size="14.00">3orass</text>
</g>
<!-- n18908&#45;&gt;n18912 -->
<g id="edge62" class="edge"><title>n18908&#45;&gt;n18912</title>
</g>
<!-- n18906&#45;&gt;n18908 -->
<g id="edge45" class="edge"><title>n18906&#45;&gt;n18908</title>
<path fill="none" stroke="lightgray" d="M188.37,-290.796C229.284,-295.41 311.24,-305.472 379.894,-319 383.749,-319.76 387.749,-320.627 391.736,-321.545"/>
<polygon fill="lightgray" stroke="lightgray" points="390.996,-324.967 401.537,-323.9 392.631,-318.161 390.996,-324.967"/>
<text text-anchor="middle" x="296.894" y="-322.8" font-family="Times New Roman,serif" font-size="14.00" fill="lightgray">wff ps</text>
</g>
<!-- n18907 -->
<g id="node34" class="node"><title>n18907</title>
<ellipse fill="none" stroke="lightgray" cx="161.447" cy="-216" rx="27" ry="18"/>
<text text-anchor="middle" x="161.447" y="-212.3" font-family="Times New Roman,serif" font-size="14.00" fill="lightgray">wch</text>
</g>
<!-- n18906&#45;&gt;n18907 -->
<g id="edge49" class="edge"><title>n18906&#45;&gt;n18907</title>
</g>
<!-- n18907&#45;&gt;n18908 -->
<g id="edge46" class="edge"><title>n18907&#45;&gt;n18908</title>
<path fill="none" stroke="lightgray" d="M188.388,-218.486C231.113,-223.556 317.737,-238.021 379.894,-276 392.911,-283.954 404.658,-296.136 413.63,-307.109"/>
<polygon fill="lightgray" stroke="lightgray" points="411.013,-309.445 419.925,-315.175 416.532,-305.138 411.013,-309.445"/>
<text text-anchor="middle" x="296.894" y="-279.8" font-family="Times New Roman,serif" font-size="14.00" fill="lightgray">wff ch</text>
</g>
<!-- n18909 -->
<g id="node35" class="node"><title>n18909</title>
<ellipse fill="none" stroke="lightgray" cx="161.447" cy="-162" rx="27" ry="18"/>
<text text-anchor="middle" x="161.447" y="-158.3" font-family="Times New Roman,serif" font-size="14.00" fill="lightgray">wph</text>
</g>
<!-- n18909&#45;&gt;n18912 -->
<g id="edge50" class="edge"><title>n18909&#45;&gt;n18912</title>
<path fill="none" stroke="lightgray" d="M188.719,-162C234.998,-162 331.477,-162 387.832,-162"/>
<polygon fill="lightgray" stroke="lightgray" points="387.867,-165.5 397.867,-162 387.867,-158.5 387.867,-165.5"/>
<text text-anchor="middle" x="296.894" y="-165.8" font-family="Times New Roman,serif" font-size="14.00" fill="lightgray">wff ph</text>
</g>
<!-- n18910 -->
<g id="node37" class="node"><title>n18910</title>
<ellipse fill="none" stroke="lightgray" cx="161.447" cy="-90" rx="27" ry="18"/>
<text text-anchor="middle" x="161.447" y="-86.3" font-family="Times New Roman,serif" font-size="14.00" fill="lightgray">wch</text>
</g>
<!-- n18909&#45;&gt;n18910 -->
<g id="edge54" class="edge"><title>n18909&#45;&gt;n18910</title>
</g>
<!-- n18912&#45;&gt;n18913 -->
<g id="edge53" class="edge"><title>n18912&#45;&gt;n18913</title>
<path fill="none" stroke="black" d="M463.552,-170.242C526.07,-189.028 669.253,-241.379 734.788,-342 776.392,-405.879 783.922,-644.722 785.284,-727.522"/>
<polygon fill="black" stroke="black" points="781.787,-727.754 785.433,-737.701 788.786,-727.651 781.787,-727.754"/>
<text text-anchor="middle" x="609.788" y="-345.8" font-family="Times New Roman,serif" font-size="14.00">|&#45; ( ( ph / ch / ps ) &lt;&#45;&gt; ( ph / ( ch / ps ) ) )</text>
</g>
<!-- n18910&#45;&gt;n18912 -->
<g id="edge51" class="edge"><title>n18910&#45;&gt;n18912</title>
<path fill="none" stroke="lightgray" d="M187.483,-95.1235C228.202,-103.675 311.145,-122.002 379.894,-143 384.777,-144.491 389.872,-146.192 394.875,-147.948"/>
<polygon fill="lightgray" stroke="lightgray" points="393.711,-151.249 404.305,-151.354 396.089,-144.665 393.711,-151.249"/>
<text text-anchor="middle" x="296.894" y="-146.8" font-family="Times New Roman,serif" font-size="14.00" fill="lightgray">wff ch</text>
</g>
<!-- n18911 -->
<g id="node38" class="node"><title>n18911</title>
<ellipse fill="none" stroke="lightgray" cx="161.447" cy="-18" rx="27" ry="18"/>
<text text-anchor="middle" x="161.447" y="-14.3" font-family="Times New Roman,serif" font-size="14.00" fill="lightgray">wps</text>
</g>
<!-- n18910&#45;&gt;n18911 -->
<g id="edge55" class="edge"><title>n18910&#45;&gt;n18911</title>
</g>
<!-- n18911&#45;&gt;n18912 -->
<g id="edge52" class="edge"><title>n18911&#45;&gt;n18912</title>
<path fill="none" stroke="lightgray" d="M188.461,-20.0049C232.057,-24.533 320.883,-38.8789 379.894,-83 397.811,-96.3965 411.262,-118.009 419.908,-135.245"/>
<polygon fill="lightgray" stroke="lightgray" points="416.756,-136.766 424.215,-144.29 423.076,-133.757 416.756,-136.766"/>
<text text-anchor="middle" x="296.894" y="-86.8" font-family="Times New Roman,serif" font-size="14.00" fill="lightgray">wff ps</text>
</g>
</g>
</svg>
