<?xml version="1.0" encoding="UTF-8" standalone="no"?>
<!DOCTYPE svg PUBLIC "-//W3C//DTD SVG 1.1//EN"
 "http://www.w3.org/Graphics/SVG/1.1/DTD/svg11.dtd">
<!-- Generated by graphviz version 2.38.0 (20140413.2041)
 -->
<!-- Title: proof_3orcoma Pages: 1 -->
<svg width="1071pt" height="1232pt"
 viewBox="0.00 0.00 1070.98 1232.00" xmlns="http://www.w3.org/2000/svg" xmlns:xlink="http://www.w3.org/1999/xlink">
<g id="graph0" class="graph" transform="scale(1 1) rotate(0) translate(4 1228)">
<title>proof_3orcoma</title>
<polygon fill="white" stroke="none" points="-4,4 -4,-1228 1066.98,-1228 1066.98,4 -4,4"/>
<!-- n18824 -->
<g id="node1" class="node"><title>n18824</title>
<ellipse fill="none" stroke="lightgray" cx="154" cy="-1206" rx="27" ry="18"/>
<text text-anchor="middle" x="154" y="-1202.3" font-family="Times New Roman,serif" font-size="14.00" fill="lightgray">wph</text>
</g>
<!-- n18828 -->
<g id="node2" class="node"><title>n18828</title>
<ellipse fill="none" stroke="lightgray" cx="333.447" cy="-1098" rx="27" ry="18"/>
<text text-anchor="middle" x="333.447" y="-1094.3" font-family="Times New Roman,serif" font-size="14.00" fill="lightgray">wo</text>
</g>
<!-- n18824&#45;&gt;n18828 -->
<g id="edge1" class="edge"><title>n18824&#45;&gt;n18828</title>
<path fill="none" stroke="lightgray" d="M177.859,-1196.98C203.911,-1186.21 247.246,-1166.77 281,-1144 291.448,-1136.95 301.996,-1127.93 310.798,-1119.75"/>
<polygon fill="lightgray" stroke="lightgray" points="313.217,-1122.28 318.037,-1112.84 308.385,-1117.21 313.217,-1122.28"/>
<text text-anchor="middle" x="240" y="-1189.8" font-family="Times New Roman,serif" font-size="14.00" fill="lightgray">wff ph</text>
</g>
<!-- n18827 -->
<g id="node4" class="node"><title>n18827</title>
<ellipse fill="none" stroke="lightgray" cx="154" cy="-1134" rx="27" ry="18"/>
<text text-anchor="middle" x="154" y="-1130.3" font-family="Times New Roman,serif" font-size="14.00" fill="lightgray">wo</text>
</g>
<!-- n18824&#45;&gt;n18827 -->
<g id="edge7" class="edge"><title>n18824&#45;&gt;n18827</title>
</g>
<!-- n18854 -->
<g id="node6" class="node"><title>n18854</title>
<ellipse fill="cyan" stroke="black" cx="702.691" cy="-684" rx="33.5952" ry="18"/>
<text text-anchor="middle" x="702.691" y="-680.3" font-family="Times New Roman,serif" font-size="14.00">3bitr4i</text>
</g>
<!-- n18828&#45;&gt;n18854 -->
<g id="edge6" class="edge"><title>n18828&#45;&gt;n18854</title>
<path fill="none" stroke="lightgray" d="M360.566,-1098.75C421.69,-1098.95 574.62,-1090.22 650.894,-1003 688.651,-959.823 698.501,-781.972 700.936,-712.237"/>
<polygon fill="lightgray" stroke="lightgray" points="704.441,-712.118 701.266,-702.01 697.445,-711.892 704.441,-712.118"/>
<text text-anchor="middle" x="518.394" y="-1102.8" font-family="Times New Roman,serif" font-size="14.00" fill="lightgray">wff ( ph \/ ( ps \/ ch ) )</text>
</g>
<!-- n18833 -->
<g id="node8" class="node"><title>n18833</title>
<ellipse fill="none" stroke="lightgray" cx="333.447" cy="-1008" rx="27" ry="18"/>
<text text-anchor="middle" x="333.447" y="-1004.3" font-family="Times New Roman,serif" font-size="14.00" fill="lightgray">wo</text>
</g>
<!-- n18828&#45;&gt;n18833 -->
<g id="edge46" class="edge"><title>n18828&#45;&gt;n18833</title>
</g>
<!-- n18825 -->
<g id="node3" class="node"><title>n18825</title>
<ellipse fill="none" stroke="lightgray" cx="27" cy="-1177" rx="27" ry="18"/>
<text text-anchor="middle" x="27" y="-1173.3" font-family="Times New Roman,serif" font-size="14.00" fill="lightgray">wps</text>
</g>
<!-- n18825&#45;&gt;n18827 -->
<g id="edge2" class="edge"><title>n18825&#45;&gt;n18827</title>
<path fill="none" stroke="lightgray" d="M51.2186,-1169.01C70.5662,-1162.36 98.3595,-1152.8 120.016,-1145.35"/>
<polygon fill="lightgray" stroke="lightgray" points="121.164,-1148.65 129.482,-1142.09 118.887,-1142.03 121.164,-1148.65"/>
<text text-anchor="middle" x="90.5" y="-1164.8" font-family="Times New Roman,serif" font-size="14.00" fill="lightgray">wff ps</text>
</g>
<!-- n18826 -->
<g id="node5" class="node"><title>n18826</title>
<ellipse fill="none" stroke="lightgray" cx="27" cy="-1105" rx="27" ry="18"/>
<text text-anchor="middle" x="27" y="-1101.3" font-family="Times New Roman,serif" font-size="14.00" fill="lightgray">wch</text>
</g>
<!-- n18825&#45;&gt;n18826 -->
<g id="edge5" class="edge"><title>n18825&#45;&gt;n18826</title>
</g>
<!-- n18827&#45;&gt;n18828 -->
<g id="edge4" class="edge"><title>n18827&#45;&gt;n18828</title>
<path fill="none" stroke="lightgray" d="M180.047,-1128.92C210.696,-1122.7 262.77,-1112.14 297.387,-1105.11"/>
<polygon fill="lightgray" stroke="lightgray" points="298.422,-1108.47 307.527,-1103.06 297.031,-1101.61 298.422,-1108.47"/>
<text text-anchor="middle" x="240" y="-1128.8" font-family="Times New Roman,serif" font-size="14.00" fill="lightgray">wff ( ps \/ ch )</text>
</g>
<!-- n18826&#45;&gt;n18827 -->
<g id="edge3" class="edge"><title>n18826&#45;&gt;n18827</title>
<path fill="none" stroke="lightgray" d="M52.696,-1110.73C71.5285,-1115.1 97.6962,-1121.17 118.582,-1126.02"/>
<polygon fill="lightgray" stroke="lightgray" points="117.823,-1129.43 128.355,-1128.28 119.405,-1122.61 117.823,-1129.43"/>
<text text-anchor="middle" x="90.5" y="-1127.8" font-family="Times New Roman,serif" font-size="14.00" fill="lightgray">wff ch</text>
</g>
<!-- QED -->
<g id="node32" class="node"><title>QED</title>
</g>
<!-- n18854&#45;&gt;QED -->
<g id="edge45" class="edge"><title>n18854&#45;&gt;QED</title>
<path fill="none" stroke="black" d="M736.747,-684C798.035,-684 928.974,-684 994.182,-684"/>
<polygon fill="black" stroke="black" points="994.438,-687.5 1004.44,-684 994.438,-680.5 994.438,-687.5"/>
<text text-anchor="middle" x="870.488" y="-687.8" font-family="Times New Roman,serif" font-size="14.00">|&#45; ( ( ph \/ ps \/ ch ) &lt;&#45;&gt; ( ps \/ ph \/ ch ) )</text>
</g>
<!-- n18829 -->
<g id="node7" class="node"><title>n18829</title>
<ellipse fill="none" stroke="lightgray" cx="154" cy="-1080" rx="27" ry="18"/>
<text text-anchor="middle" x="154" y="-1076.3" font-family="Times New Roman,serif" font-size="14.00" fill="lightgray">wps</text>
</g>
<!-- n18829&#45;&gt;n18833 -->
<g id="edge8" class="edge"><title>n18829&#45;&gt;n18833</title>
<path fill="none" stroke="lightgray" d="M177.474,-1070.88C208.588,-1058.26 264.957,-1035.38 300.455,-1020.98"/>
<polygon fill="lightgray" stroke="lightgray" points="301.926,-1024.16 309.876,-1017.16 299.294,-1017.67 301.926,-1024.16"/>
<text text-anchor="middle" x="240" y="-1064.8" font-family="Times New Roman,serif" font-size="14.00" fill="lightgray">wff ps</text>
</g>
<!-- n18832 -->
<g id="node10" class="node"><title>n18832</title>
<ellipse fill="none" stroke="lightgray" cx="154" cy="-1008" rx="27" ry="18"/>
<text text-anchor="middle" x="154" y="-1004.3" font-family="Times New Roman,serif" font-size="14.00" fill="lightgray">wo</text>
</g>
<!-- n18829&#45;&gt;n18832 -->
<g id="edge14" class="edge"><title>n18829&#45;&gt;n18832</title>
</g>
<!-- n18833&#45;&gt;n18854 -->
<g id="edge13" class="edge"><title>n18833&#45;&gt;n18854</title>
<path fill="none" stroke="lightgray" d="M356.899,-998.868C421.996,-971.998 608.86,-891.967 650.894,-842 682.61,-804.297 694.62,-746.469 699.099,-712.222"/>
<polygon fill="lightgray" stroke="lightgray" points="702.611,-712.328 700.304,-701.987 695.659,-711.509 702.611,-712.328"/>
<text text-anchor="middle" x="518.394" y="-990.8" font-family="Times New Roman,serif" font-size="14.00" fill="lightgray">wff ( ps \/ ( ph \/ ch ) )</text>
</g>
<!-- n18837 -->
<g id="node13" class="node"><title>n18837</title>
<ellipse fill="none" stroke="lightgray" cx="333.447" cy="-846" rx="27" ry="18"/>
<text text-anchor="middle" x="333.447" y="-842.3" font-family="Times New Roman,serif" font-size="14.00" fill="lightgray">w3o</text>
</g>
<!-- n18833&#45;&gt;n18837 -->
<g id="edge47" class="edge"><title>n18833&#45;&gt;n18837</title>
</g>
<!-- n18830 -->
<g id="node9" class="node"><title>n18830</title>
<ellipse fill="none" stroke="lightgray" cx="27" cy="-1047" rx="27" ry="18"/>
<text text-anchor="middle" x="27" y="-1043.3" font-family="Times New Roman,serif" font-size="14.00" fill="lightgray">wph</text>
</g>
<!-- n18830&#45;&gt;n18832 -->
<g id="edge9" class="edge"><title>n18830&#45;&gt;n18832</title>
<path fill="none" stroke="lightgray" d="M51.8058,-1039.57C71.0071,-1033.58 98.2415,-1025.08 119.621,-1018.41"/>
<polygon fill="lightgray" stroke="lightgray" points="120.779,-1021.72 129.283,-1015.4 118.694,-1015.04 120.779,-1021.72"/>
<text text-anchor="middle" x="90.5" y="-1037.8" font-family="Times New Roman,serif" font-size="14.00" fill="lightgray">wff ph</text>
</g>
<!-- n18831 -->
<g id="node11" class="node"><title>n18831</title>
<ellipse fill="none" stroke="lightgray" cx="27" cy="-975" rx="27" ry="18"/>
<text text-anchor="middle" x="27" y="-971.3" font-family="Times New Roman,serif" font-size="14.00" fill="lightgray">wch</text>
</g>
<!-- n18830&#45;&gt;n18831 -->
<g id="edge12" class="edge"><title>n18830&#45;&gt;n18831</title>
</g>
<!-- n18832&#45;&gt;n18833 -->
<g id="edge11" class="edge"><title>n18832&#45;&gt;n18833</title>
<path fill="none" stroke="lightgray" d="M181.183,-1008C211.674,-1008 262.217,-1008 296.402,-1008"/>
<polygon fill="lightgray" stroke="lightgray" points="296.446,-1011.5 306.446,-1008 296.446,-1004.5 296.446,-1011.5"/>
<text text-anchor="middle" x="240" y="-1011.8" font-family="Times New Roman,serif" font-size="14.00" fill="lightgray">wff ( ph \/ ch )</text>
</g>
<!-- n18831&#45;&gt;n18832 -->
<g id="edge10" class="edge"><title>n18831&#45;&gt;n18832</title>
<path fill="none" stroke="lightgray" d="M52.398,-981.441C71.326,-986.438 97.7933,-993.425 118.83,-998.979"/>
<polygon fill="lightgray" stroke="lightgray" points="118.101,-1002.41 128.664,-1001.58 119.888,-995.638 118.101,-1002.41"/>
<text text-anchor="middle" x="90.5" y="-1000.8" font-family="Times New Roman,serif" font-size="14.00" fill="lightgray">wff ch</text>
</g>
<!-- n18834 -->
<g id="node12" class="node"><title>n18834</title>
<ellipse fill="none" stroke="lightgray" cx="154" cy="-954" rx="27" ry="18"/>
<text text-anchor="middle" x="154" y="-950.3" font-family="Times New Roman,serif" font-size="14.00" fill="lightgray">wph</text>
</g>
<!-- n18834&#45;&gt;n18837 -->
<g id="edge15" class="edge"><title>n18834&#45;&gt;n18837</title>
<path fill="none" stroke="lightgray" d="M177.859,-944.985C203.911,-934.215 247.246,-914.767 281,-892 291.448,-884.952 301.996,-875.93 310.798,-867.746"/>
<polygon fill="lightgray" stroke="lightgray" points="313.217,-870.275 318.037,-860.84 308.385,-865.21 313.217,-870.275"/>
<text text-anchor="middle" x="240" y="-938.8" font-family="Times New Roman,serif" font-size="14.00" fill="lightgray">wff ph</text>
</g>
<!-- n18835 -->
<g id="node14" class="node"><title>n18835</title>
<ellipse fill="none" stroke="lightgray" cx="154" cy="-882" rx="27" ry="18"/>
<text text-anchor="middle" x="154" y="-878.3" font-family="Times New Roman,serif" font-size="14.00" fill="lightgray">wps</text>
</g>
<!-- n18834&#45;&gt;n18835 -->
<g id="edge19" class="edge"><title>n18834&#45;&gt;n18835</title>
</g>
<!-- n18837&#45;&gt;n18854 -->
<g id="edge18" class="edge"><title>n18837&#45;&gt;n18854</title>
<path fill="none" stroke="lightgray" d="M356.32,-836.351C417.649,-809.298 591.653,-732.54 666.62,-699.471"/>
<polygon fill="lightgray" stroke="lightgray" points="668.363,-702.527 676.099,-695.289 665.537,-696.123 668.363,-702.527"/>
<text text-anchor="middle" x="518.394" y="-826.8" font-family="Times New Roman,serif" font-size="14.00" fill="lightgray">wff ( ph \/ ps \/ ch )</text>
</g>
<!-- n18841 -->
<g id="node17" class="node"><title>n18841</title>
<ellipse fill="none" stroke="lightgray" cx="333.447" cy="-684" rx="27" ry="18"/>
<text text-anchor="middle" x="333.447" y="-680.3" font-family="Times New Roman,serif" font-size="14.00" fill="lightgray">w3o</text>
</g>
<!-- n18837&#45;&gt;n18841 -->
<g id="edge48" class="edge"><title>n18837&#45;&gt;n18841</title>
</g>
<!-- n18835&#45;&gt;n18837 -->
<g id="edge16" class="edge"><title>n18835&#45;&gt;n18837</title>
<path fill="none" stroke="lightgray" d="M180.047,-876.918C210.696,-870.701 262.77,-860.136 297.387,-853.113"/>
<polygon fill="lightgray" stroke="lightgray" points="298.422,-856.474 307.527,-851.056 297.031,-849.614 298.422,-856.474"/>
<text text-anchor="middle" x="240" y="-876.8" font-family="Times New Roman,serif" font-size="14.00" fill="lightgray">wff ps</text>
</g>
<!-- n18836 -->
<g id="node15" class="node"><title>n18836</title>
<ellipse fill="none" stroke="lightgray" cx="154" cy="-810" rx="27" ry="18"/>
<text text-anchor="middle" x="154" y="-806.3" font-family="Times New Roman,serif" font-size="14.00" fill="lightgray">wch</text>
</g>
<!-- n18835&#45;&gt;n18836 -->
<g id="edge20" class="edge"><title>n18835&#45;&gt;n18836</title>
</g>
<!-- n18836&#45;&gt;n18837 -->
<g id="edge17" class="edge"><title>n18836&#45;&gt;n18837</title>
<path fill="none" stroke="lightgray" d="M180.047,-815.082C210.696,-821.299 262.77,-831.864 297.387,-838.887"/>
<polygon fill="lightgray" stroke="lightgray" points="297.031,-842.386 307.527,-840.944 298.422,-835.526 297.031,-842.386"/>
<text text-anchor="middle" x="240" y="-839.8" font-family="Times New Roman,serif" font-size="14.00" fill="lightgray">wff ch</text>
</g>
<!-- n18838 -->
<g id="node16" class="node"><title>n18838</title>
<ellipse fill="none" stroke="lightgray" cx="154" cy="-756" rx="27" ry="18"/>
<text text-anchor="middle" x="154" y="-752.3" font-family="Times New Roman,serif" font-size="14.00" fill="lightgray">wps</text>
</g>
<!-- n18838&#45;&gt;n18841 -->
<g id="edge21" class="edge"><title>n18838&#45;&gt;n18841</title>
<path fill="none" stroke="lightgray" d="M177.474,-746.881C208.588,-734.256 264.957,-711.384 300.455,-696.981"/>
<polygon fill="lightgray" stroke="lightgray" points="301.926,-700.161 309.876,-693.158 299.294,-693.675 301.926,-700.161"/>
<text text-anchor="middle" x="240" y="-740.8" font-family="Times New Roman,serif" font-size="14.00" fill="lightgray">wff ps</text>
</g>
<!-- n18839 -->
<g id="node18" class="node"><title>n18839</title>
<ellipse fill="none" stroke="lightgray" cx="154" cy="-684" rx="27" ry="18"/>
<text text-anchor="middle" x="154" y="-680.3" font-family="Times New Roman,serif" font-size="14.00" fill="lightgray">wph</text>
</g>
<!-- n18838&#45;&gt;n18839 -->
<g id="edge25" class="edge"><title>n18838&#45;&gt;n18839</title>
</g>
<!-- n18841&#45;&gt;n18854 -->
<g id="edge24" class="edge"><title>n18841&#45;&gt;n18854</title>
<path fill="none" stroke="lightgray" d="M360.564,-684C423.01,-684 581.473,-684 658.431,-684"/>
<polygon fill="lightgray" stroke="lightgray" points="658.731,-687.5 668.731,-684 658.731,-680.5 658.731,-687.5"/>
<text text-anchor="middle" x="518.394" y="-687.8" font-family="Times New Roman,serif" font-size="14.00" fill="lightgray">wff ( ps \/ ph \/ ch )</text>
</g>
<!-- n18845 -->
<g id="node21" class="node"><title>n18845</title>
<ellipse fill="cyan" stroke="black" cx="333.447" cy="-518" rx="27.0966" ry="18"/>
<text text-anchor="middle" x="333.447" y="-514.3" font-family="Times New Roman,serif" font-size="14.00">or12</text>
</g>
<!-- n18841&#45;&gt;n18845 -->
<g id="edge49" class="edge"><title>n18841&#45;&gt;n18845</title>
</g>
<!-- n18839&#45;&gt;n18841 -->
<g id="edge22" class="edge"><title>n18839&#45;&gt;n18841</title>
<path fill="none" stroke="lightgray" d="M181.183,-684C211.674,-684 262.217,-684 296.402,-684"/>
<polygon fill="lightgray" stroke="lightgray" points="296.446,-687.5 306.446,-684 296.446,-680.5 296.446,-687.5"/>
<text text-anchor="middle" x="240" y="-687.8" font-family="Times New Roman,serif" font-size="14.00" fill="lightgray">wff ph</text>
</g>
<!-- n18840 -->
<g id="node19" class="node"><title>n18840</title>
<ellipse fill="none" stroke="lightgray" cx="154" cy="-612" rx="27" ry="18"/>
<text text-anchor="middle" x="154" y="-608.3" font-family="Times New Roman,serif" font-size="14.00" fill="lightgray">wch</text>
</g>
<!-- n18839&#45;&gt;n18840 -->
<g id="edge26" class="edge"><title>n18839&#45;&gt;n18840</title>
</g>
<!-- n18840&#45;&gt;n18841 -->
<g id="edge23" class="edge"><title>n18840&#45;&gt;n18841</title>
<path fill="none" stroke="lightgray" d="M177.474,-621.119C208.588,-633.744 264.957,-656.616 300.455,-671.019"/>
<polygon fill="lightgray" stroke="lightgray" points="299.294,-674.325 309.876,-674.842 301.926,-667.839 299.294,-674.325"/>
<text text-anchor="middle" x="240" y="-666.8" font-family="Times New Roman,serif" font-size="14.00" fill="lightgray">wff ch</text>
</g>
<!-- n18842 -->
<g id="node20" class="node"><title>n18842</title>
<ellipse fill="none" stroke="lightgray" cx="154" cy="-558" rx="27" ry="18"/>
<text text-anchor="middle" x="154" y="-554.3" font-family="Times New Roman,serif" font-size="14.00" fill="lightgray">wph</text>
</g>
<!-- n18842&#45;&gt;n18845 -->
<g id="edge27" class="edge"><title>n18842&#45;&gt;n18845</title>
<path fill="none" stroke="lightgray" d="M180.047,-552.354C210.609,-545.465 262.476,-533.773 297.093,-525.969"/>
<polygon fill="lightgray" stroke="lightgray" points="298.255,-529.296 307.24,-523.682 296.715,-522.467 298.255,-529.296"/>
<text text-anchor="middle" x="240" y="-551.8" font-family="Times New Roman,serif" font-size="14.00" fill="lightgray">wff ph</text>
</g>
<!-- n18843 -->
<g id="node22" class="node"><title>n18843</title>
<ellipse fill="none" stroke="lightgray" cx="154" cy="-486" rx="27" ry="18"/>
<text text-anchor="middle" x="154" y="-482.3" font-family="Times New Roman,serif" font-size="14.00" fill="lightgray">wps</text>
</g>
<!-- n18842&#45;&gt;n18843 -->
<g id="edge31" class="edge"><title>n18842&#45;&gt;n18843</title>
</g>
<!-- n18845&#45;&gt;n18854 -->
<g id="edge30" class="edge"><title>n18845&#45;&gt;n18854</title>
<path fill="none" stroke="black" d="M356.32,-527.887C417.649,-555.609 591.653,-634.261 666.62,-668.147"/>
<polygon fill="black" stroke="black" points="665.545,-671.503 676.099,-672.432 668.429,-665.124 665.545,-671.503"/>
<text text-anchor="middle" x="518.394" y="-663.8" font-family="Times New Roman,serif" font-size="14.00">|&#45; ( ( ph \/ ( ps \/ ch ) ) &lt;&#45;&gt; ( ps \/ ( ph \/ ch ) ) )</text>
</g>
<!-- n18849 -->
<g id="node25" class="node"><title>n18849</title>
<ellipse fill="cyan" stroke="black" cx="333.447" cy="-332" rx="34.394" ry="18"/>
<text text-anchor="middle" x="333.447" y="-328.3" font-family="Times New Roman,serif" font-size="14.00">3orass</text>
</g>
<!-- n18845&#45;&gt;n18849 -->
<g id="edge50" class="edge"><title>n18845&#45;&gt;n18849</title>
</g>
<!-- n18843&#45;&gt;n18845 -->
<g id="edge28" class="edge"><title>n18843&#45;&gt;n18845</title>
<path fill="none" stroke="lightgray" d="M180.741,-488.732C206.32,-491.668 246.593,-496.889 281,-504 286.609,-505.159 292.512,-506.576 298.239,-508.058"/>
<polygon fill="lightgray" stroke="lightgray" points="297.691,-511.535 308.257,-510.754 299.511,-504.775 297.691,-511.535"/>
<text text-anchor="middle" x="240" y="-507.8" font-family="Times New Roman,serif" font-size="14.00" fill="lightgray">wff ps</text>
</g>
<!-- n18844 -->
<g id="node23" class="node"><title>n18844</title>
<ellipse fill="none" stroke="lightgray" cx="154" cy="-414" rx="27" ry="18"/>
<text text-anchor="middle" x="154" y="-410.3" font-family="Times New Roman,serif" font-size="14.00" fill="lightgray">wch</text>
</g>
<!-- n18843&#45;&gt;n18844 -->
<g id="edge32" class="edge"><title>n18843&#45;&gt;n18844</title>
</g>
<!-- n18844&#45;&gt;n18845 -->
<g id="edge29" class="edge"><title>n18844&#45;&gt;n18845</title>
<path fill="none" stroke="lightgray" d="M177.85,-422.44C203.894,-432.562 247.221,-450.952 281,-473 291.195,-479.654 301.481,-488.202 310.148,-496.058"/>
<polygon fill="lightgray" stroke="lightgray" points="307.9,-498.747 317.603,-503.003 312.672,-493.625 307.9,-498.747"/>
<text text-anchor="middle" x="240" y="-476.8" font-family="Times New Roman,serif" font-size="14.00" fill="lightgray">wff ch</text>
</g>
<!-- n18846 -->
<g id="node24" class="node"><title>n18846</title>
<ellipse fill="none" stroke="lightgray" cx="154" cy="-360" rx="27" ry="18"/>
<text text-anchor="middle" x="154" y="-356.3" font-family="Times New Roman,serif" font-size="14.00" fill="lightgray">wph</text>
</g>
<!-- n18846&#45;&gt;n18849 -->
<g id="edge33" class="edge"><title>n18846&#45;&gt;n18849</title>
<path fill="none" stroke="lightgray" d="M180.424,-355.988C208.997,-351.48 255.845,-344.087 289.994,-338.699"/>
<polygon fill="lightgray" stroke="lightgray" points="290.818,-342.112 300.15,-337.096 289.727,-335.198 290.818,-342.112"/>
<text text-anchor="middle" x="240" y="-356.8" font-family="Times New Roman,serif" font-size="14.00" fill="lightgray">wff ph</text>
</g>
<!-- n18847 -->
<g id="node26" class="node"><title>n18847</title>
<ellipse fill="none" stroke="lightgray" cx="154" cy="-288" rx="27" ry="18"/>
<text text-anchor="middle" x="154" y="-284.3" font-family="Times New Roman,serif" font-size="14.00" fill="lightgray">wps</text>
</g>
<!-- n18846&#45;&gt;n18847 -->
<g id="edge37" class="edge"><title>n18846&#45;&gt;n18847</title>
</g>
<!-- n18849&#45;&gt;n18854 -->
<g id="edge36" class="edge"><title>n18849&#45;&gt;n18854</title>
<path fill="none" stroke="black" d="M363.235,-341.533C425.214,-363.523 572.041,-423.736 650.894,-524 681.701,-563.172 694.016,-621.399 698.798,-655.748"/>
<polygon fill="black" stroke="black" points="695.369,-656.528 700.1,-666.008 702.313,-655.646 695.369,-656.528"/>
<text text-anchor="middle" x="518.394" y="-527.8" font-family="Times New Roman,serif" font-size="14.00">|&#45; ( ( ph \/ ps \/ ch ) &lt;&#45;&gt; ( ph \/ ( ps \/ ch ) ) )</text>
</g>
<!-- n18853 -->
<g id="node29" class="node"><title>n18853</title>
<ellipse fill="cyan" stroke="black" cx="333.447" cy="-162" rx="34.394" ry="18"/>
<text text-anchor="middle" x="333.447" y="-158.3" font-family="Times New Roman,serif" font-size="14.00">3orass</text>
</g>
<!-- n18849&#45;&gt;n18853 -->
<g id="edge51" class="edge"><title>n18849&#45;&gt;n18853</title>
</g>
<!-- n18847&#45;&gt;n18849 -->
<g id="edge34" class="edge"><title>n18847&#45;&gt;n18849</title>
<path fill="none" stroke="lightgray" d="M179.673,-294.118C208.796,-301.339 257.632,-313.449 292.243,-322.031"/>
<polygon fill="lightgray" stroke="lightgray" points="291.495,-325.451 302.044,-324.461 293.18,-318.657 291.495,-325.451"/>
<text text-anchor="middle" x="240" y="-322.8" font-family="Times New Roman,serif" font-size="14.00" fill="lightgray">wff ps</text>
</g>
<!-- n18848 -->
<g id="node27" class="node"><title>n18848</title>
<ellipse fill="none" stroke="lightgray" cx="154" cy="-216" rx="27" ry="18"/>
<text text-anchor="middle" x="154" y="-212.3" font-family="Times New Roman,serif" font-size="14.00" fill="lightgray">wch</text>
</g>
<!-- n18847&#45;&gt;n18848 -->
<g id="edge38" class="edge"><title>n18847&#45;&gt;n18848</title>
</g>
<!-- n18848&#45;&gt;n18849 -->
<g id="edge35" class="edge"><title>n18848&#45;&gt;n18849</title>
<path fill="none" stroke="lightgray" d="M177.574,-225.141C203.742,-236.289 247.554,-256.683 281,-281 291.808,-288.858 302.507,-298.978 311.325,-308.13"/>
<polygon fill="lightgray" stroke="lightgray" points="308.858,-310.616 318.251,-315.518 313.965,-305.828 308.858,-310.616"/>
<text text-anchor="middle" x="240" y="-284.8" font-family="Times New Roman,serif" font-size="14.00" fill="lightgray">wff ch</text>
</g>
<!-- n18850 -->
<g id="node28" class="node"><title>n18850</title>
<ellipse fill="none" stroke="lightgray" cx="154" cy="-162" rx="27" ry="18"/>
<text text-anchor="middle" x="154" y="-158.3" font-family="Times New Roman,serif" font-size="14.00" fill="lightgray">wps</text>
</g>
<!-- n18850&#45;&gt;n18853 -->
<g id="edge39" class="edge"><title>n18850&#45;&gt;n18853</title>
<path fill="none" stroke="lightgray" d="M181.183,-162C209.49,-162 255.078,-162 288.817,-162"/>
<polygon fill="lightgray" stroke="lightgray" points="288.875,-165.5 298.875,-162 288.875,-158.5 288.875,-165.5"/>
<text text-anchor="middle" x="240" y="-165.8" font-family="Times New Roman,serif" font-size="14.00" fill="lightgray">wff ps</text>
</g>
<!-- n18851 -->
<g id="node30" class="node"><title>n18851</title>
<ellipse fill="none" stroke="lightgray" cx="154" cy="-90" rx="27" ry="18"/>
<text text-anchor="middle" x="154" y="-86.3" font-family="Times New Roman,serif" font-size="14.00" fill="lightgray">wph</text>
</g>
<!-- n18850&#45;&gt;n18851 -->
<g id="edge43" class="edge"><title>n18850&#45;&gt;n18851</title>
</g>
<!-- n18853&#45;&gt;n18854 -->
<g id="edge42" class="edge"><title>n18853&#45;&gt;n18854</title>
<path fill="none" stroke="black" d="M365.407,-168.866C430.279,-185.007 580.286,-231.879 650.894,-333 687.273,-385.1 698.011,-581.36 700.806,-655.449"/>
<polygon fill="black" stroke="black" points="697.323,-655.988 701.176,-665.857 704.319,-655.739 697.323,-655.988"/>
<text text-anchor="middle" x="518.394" y="-336.8" font-family="Times New Roman,serif" font-size="14.00">|&#45; ( ( ps \/ ph \/ ch ) &lt;&#45;&gt; ( ps \/ ( ph \/ ch ) ) )</text>
</g>
<!-- n18851&#45;&gt;n18853 -->
<g id="edge40" class="edge"><title>n18851&#45;&gt;n18853</title>
<path fill="none" stroke="lightgray" d="M177.474,-99.1188C207.395,-111.259 260.67,-132.876 296.281,-147.326"/>
<polygon fill="lightgray" stroke="lightgray" points="295.241,-150.68 305.823,-151.197 297.873,-144.194 295.241,-150.68"/>
<text text-anchor="middle" x="240" y="-144.8" font-family="Times New Roman,serif" font-size="14.00" fill="lightgray">wff ph</text>
</g>
<!-- n18852 -->
<g id="node31" class="node"><title>n18852</title>
<ellipse fill="none" stroke="lightgray" cx="154" cy="-18" rx="27" ry="18"/>
<text text-anchor="middle" x="154" y="-14.3" font-family="Times New Roman,serif" font-size="14.00" fill="lightgray">wch</text>
</g>
<!-- n18851&#45;&gt;n18852 -->
<g id="edge44" class="edge"><title>n18851&#45;&gt;n18852</title>
</g>
<!-- n18852&#45;&gt;n18853 -->
<g id="edge41" class="edge"><title>n18852&#45;&gt;n18853</title>
<path fill="none" stroke="lightgray" d="M177.305,-27.4286C204.005,-39.457 249.101,-62.1978 281,-91 295.409,-104.01 308.229,-121.678 317.468,-136.134"/>
<polygon fill="lightgray" stroke="lightgray" points="314.5,-137.989 322.74,-144.65 320.452,-134.305 314.5,-137.989"/>
<text text-anchor="middle" x="240" y="-94.8" font-family="Times New Roman,serif" font-size="14.00" fill="lightgray">wff ch</text>
</g>
</g>
</svg>
