<?xml version="1.0" encoding="UTF-8" standalone="no"?>
<!DOCTYPE svg PUBLIC "-//W3C//DTD SVG 1.1//EN"
 "http://www.w3.org/Graphics/SVG/1.1/DTD/svg11.dtd">
<!-- Generated by graphviz version 2.38.0 (20140413.2041)
 -->
<!-- Title: proof_3orcomb Pages: 1 -->
<svg width="1177pt" height="1304pt"
 viewBox="0.00 0.00 1176.88 1304.00" xmlns="http://www.w3.org/2000/svg" xmlns:xlink="http://www.w3.org/1999/xlink">
<g id="graph0" class="graph" transform="scale(1 1) rotate(0) translate(4 1300)">
<title>proof_3orcomb</title>
<polygon fill="white" stroke="none" points="-4,4 -4,-1300 1172.88,-1300 1172.88,4 -4,4"/>
<!-- n18876 -->
<g id="node1" class="node"><title>n18876</title>
<ellipse fill="none" stroke="lightgray" cx="161.447" cy="-1278" rx="27" ry="18"/>
<text text-anchor="middle" x="161.447" y="-1274.3" font-family="Times New Roman,serif" font-size="14.00" fill="lightgray">wph</text>
</g>
<!-- n18880 -->
<g id="node2" class="node"><title>n18880</title>
<ellipse fill="none" stroke="lightgray" cx="439.341" cy="-1170" rx="27" ry="18"/>
<text text-anchor="middle" x="439.341" y="-1166.3" font-family="Times New Roman,serif" font-size="14.00" fill="lightgray">wo</text>
</g>
<!-- n18876&#45;&gt;n18880 -->
<g id="edge1" class="edge"><title>n18876&#45;&gt;n18880</title>
<path fill="none" stroke="lightgray" d="M188.235,-1275.45C231.668,-1270.27 321.104,-1255.72 386.894,-1219 398.674,-1212.43 409.78,-1202.52 418.636,-1193.34"/>
<polygon fill="lightgray" stroke="lightgray" points="421.307,-1195.61 425.512,-1185.88 416.161,-1190.86 421.307,-1195.61"/>
<text text-anchor="middle" x="300.394" y="-1274.8" font-family="Times New Roman,serif" font-size="14.00" fill="lightgray">wff ph</text>
</g>
<!-- n18879 -->
<g id="node4" class="node"><title>n18879</title>
<ellipse fill="none" stroke="lightgray" cx="161.447" cy="-1206" rx="27" ry="18"/>
<text text-anchor="middle" x="161.447" y="-1202.3" font-family="Times New Roman,serif" font-size="14.00" fill="lightgray">wo</text>
</g>
<!-- n18876&#45;&gt;n18879 -->
<g id="edge7" class="edge"><title>n18876&#45;&gt;n18879</title>
</g>
<!-- n18913 -->
<g id="node6" class="node"><title>n18913</title>
<ellipse fill="cyan" stroke="black" cx="808.585" cy="-756" rx="33.5952" ry="18"/>
<text text-anchor="middle" x="808.585" y="-752.3" font-family="Times New Roman,serif" font-size="14.00">3bitr4i</text>
</g>
<!-- n18880&#45;&gt;n18913 -->
<g id="edge6" class="edge"><title>n18880&#45;&gt;n18913</title>
<path fill="none" stroke="lightgray" d="M466.46,-1170.75C527.583,-1170.95 680.514,-1162.22 756.788,-1075 794.545,-1031.82 804.395,-853.972 806.829,-784.237"/>
<polygon fill="lightgray" stroke="lightgray" points="810.335,-784.118 807.16,-774.01 803.339,-783.892 810.335,-784.118"/>
<text text-anchor="middle" x="624.288" y="-1174.8" font-family="Times New Roman,serif" font-size="14.00" fill="lightgray">wff ( ph \/ ( ps \/ ch ) )</text>
</g>
<!-- n18885 -->
<g id="node8" class="node"><title>n18885</title>
<ellipse fill="none" stroke="lightgray" cx="439.341" cy="-1080" rx="27" ry="18"/>
<text text-anchor="middle" x="439.341" y="-1076.3" font-family="Times New Roman,serif" font-size="14.00" fill="lightgray">wo</text>
</g>
<!-- n18880&#45;&gt;n18885 -->
<g id="edge57" class="edge"><title>n18880&#45;&gt;n18885</title>
</g>
<!-- n18877 -->
<g id="node3" class="node"><title>n18877</title>
<ellipse fill="none" stroke="lightgray" cx="27" cy="-1235" rx="27" ry="18"/>
<text text-anchor="middle" x="27" y="-1231.3" font-family="Times New Roman,serif" font-size="14.00" fill="lightgray">wps</text>
</g>
<!-- n18877&#45;&gt;n18879 -->
<g id="edge2" class="edge"><title>n18877&#45;&gt;n18879</title>
<path fill="none" stroke="lightgray" d="M52.9123,-1229.55C73.4467,-1225.05 102.805,-1218.62 125.659,-1213.62"/>
<polygon fill="lightgray" stroke="lightgray" points="126.626,-1216.99 135.646,-1211.43 125.129,-1210.15 126.626,-1216.99"/>
<text text-anchor="middle" x="90.5" y="-1227.8" font-family="Times New Roman,serif" font-size="14.00" fill="lightgray">wff ps</text>
</g>
<!-- n18878 -->
<g id="node5" class="node"><title>n18878</title>
<ellipse fill="none" stroke="lightgray" cx="27" cy="-1163" rx="27" ry="18"/>
<text text-anchor="middle" x="27" y="-1159.3" font-family="Times New Roman,serif" font-size="14.00" fill="lightgray">wch</text>
</g>
<!-- n18877&#45;&gt;n18878 -->
<g id="edge5" class="edge"><title>n18877&#45;&gt;n18878</title>
</g>
<!-- n18879&#45;&gt;n18880 -->
<g id="edge4" class="edge"><title>n18879&#45;&gt;n18880</title>
<path fill="none" stroke="lightgray" d="M188.402,-1202.61C237.928,-1196.15 345.993,-1182.05 402.419,-1174.69"/>
<polygon fill="lightgray" stroke="lightgray" points="403.192,-1178.12 412.655,-1173.35 402.287,-1171.17 403.192,-1178.12"/>
<text text-anchor="middle" x="300.394" y="-1203.8" font-family="Times New Roman,serif" font-size="14.00" fill="lightgray">wff ( ps \/ ch )</text>
</g>
<!-- n18878&#45;&gt;n18879 -->
<g id="edge3" class="edge"><title>n18878&#45;&gt;n18879</title>
<path fill="none" stroke="lightgray" d="M51.6789,-1170.69C72.7733,-1177.54 103.855,-1187.63 127.397,-1195.27"/>
<polygon fill="lightgray" stroke="lightgray" points="126.381,-1198.62 136.973,-1198.38 128.543,-1191.96 126.381,-1198.62"/>
<text text-anchor="middle" x="90.5" y="-1192.8" font-family="Times New Roman,serif" font-size="14.00" fill="lightgray">wff ch</text>
</g>
<!-- QED -->
<g id="node39" class="node"><title>QED</title>
</g>
<!-- n18913&#45;&gt;QED -->
<g id="edge56" class="edge"><title>n18913&#45;&gt;QED</title>
<path fill="none" stroke="black" d="M842.641,-756C903.929,-756 1034.87,-756 1100.08,-756"/>
<polygon fill="black" stroke="black" points="1100.33,-759.5 1110.33,-756 1100.33,-752.5 1100.33,-759.5"/>
<text text-anchor="middle" x="976.382" y="-759.8" font-family="Times New Roman,serif" font-size="14.00">|&#45; ( ( ph \/ ps \/ ch ) &lt;&#45;&gt; ( ph \/ ch \/ ps ) )</text>
</g>
<!-- n18881 -->
<g id="node7" class="node"><title>n18881</title>
<ellipse fill="none" stroke="lightgray" cx="161.447" cy="-1152" rx="27" ry="18"/>
<text text-anchor="middle" x="161.447" y="-1148.3" font-family="Times New Roman,serif" font-size="14.00" fill="lightgray">wph</text>
</g>
<!-- n18881&#45;&gt;n18885 -->
<g id="edge8" class="edge"><title>n18881&#45;&gt;n18885</title>
<path fill="none" stroke="lightgray" d="M187.621,-1147.1C229.417,-1138.73 315.593,-1120.5 386.894,-1099 393.175,-1097.11 399.803,-1094.86 406.135,-1092.58"/>
<polygon fill="lightgray" stroke="lightgray" points="407.584,-1095.77 415.749,-1089.02 405.156,-1089.21 407.584,-1095.77"/>
<text text-anchor="middle" x="300.394" y="-1144.8" font-family="Times New Roman,serif" font-size="14.00" fill="lightgray">wff ph</text>
</g>
<!-- n18884 -->
<g id="node10" class="node"><title>n18884</title>
<ellipse fill="none" stroke="lightgray" cx="161.447" cy="-1080" rx="27" ry="18"/>
<text text-anchor="middle" x="161.447" y="-1076.3" font-family="Times New Roman,serif" font-size="14.00" fill="lightgray">wo</text>
</g>
<!-- n18881&#45;&gt;n18884 -->
<g id="edge14" class="edge"><title>n18881&#45;&gt;n18884</title>
</g>
<!-- n18885&#45;&gt;n18913 -->
<g id="edge13" class="edge"><title>n18885&#45;&gt;n18913</title>
<path fill="none" stroke="lightgray" d="M462.793,-1070.87C527.89,-1044 714.754,-963.967 756.788,-914 788.504,-876.297 800.514,-818.469 804.993,-784.222"/>
<polygon fill="lightgray" stroke="lightgray" points="808.505,-784.328 806.198,-773.987 801.553,-783.509 808.505,-784.328"/>
<text text-anchor="middle" x="624.288" y="-1062.8" font-family="Times New Roman,serif" font-size="14.00" fill="lightgray">wff ( ph \/ ( ch \/ ps ) )</text>
</g>
<!-- n18889 -->
<g id="node13" class="node"><title>n18889</title>
<ellipse fill="none" stroke="lightgray" cx="439.341" cy="-918" rx="27" ry="18"/>
<text text-anchor="middle" x="439.341" y="-914.3" font-family="Times New Roman,serif" font-size="14.00" fill="lightgray">w3o</text>
</g>
<!-- n18885&#45;&gt;n18889 -->
<g id="edge58" class="edge"><title>n18885&#45;&gt;n18889</title>
</g>
<!-- n18882 -->
<g id="node9" class="node"><title>n18882</title>
<ellipse fill="none" stroke="lightgray" cx="27" cy="-1101" rx="27" ry="18"/>
<text text-anchor="middle" x="27" y="-1097.3" font-family="Times New Roman,serif" font-size="14.00" fill="lightgray">wch</text>
</g>
<!-- n18882&#45;&gt;n18884 -->
<g id="edge9" class="edge"><title>n18882&#45;&gt;n18884</title>
<path fill="none" stroke="lightgray" d="M53.5371,-1096.95C73.7839,-1093.74 102.315,-1089.22 124.811,-1085.65"/>
<polygon fill="lightgray" stroke="lightgray" points="125.66,-1089.06 134.988,-1084.04 124.563,-1082.15 125.66,-1089.06"/>
<text text-anchor="middle" x="90.5" y="-1097.8" font-family="Times New Roman,serif" font-size="14.00" fill="lightgray">wff ch</text>
</g>
<!-- n18883 -->
<g id="node11" class="node"><title>n18883</title>
<ellipse fill="none" stroke="lightgray" cx="27" cy="-1029" rx="27" ry="18"/>
<text text-anchor="middle" x="27" y="-1025.3" font-family="Times New Roman,serif" font-size="14.00" fill="lightgray">wps</text>
</g>
<!-- n18882&#45;&gt;n18883 -->
<g id="edge12" class="edge"><title>n18882&#45;&gt;n18883</title>
</g>
<!-- n18884&#45;&gt;n18885 -->
<g id="edge11" class="edge"><title>n18884&#45;&gt;n18885</title>
<path fill="none" stroke="lightgray" d="M188.901,-1080C238.443,-1080 345.288,-1080 401.714,-1080"/>
<polygon fill="lightgray" stroke="lightgray" points="401.967,-1083.5 411.967,-1080 401.967,-1076.5 401.967,-1083.5"/>
<text text-anchor="middle" x="300.394" y="-1083.8" font-family="Times New Roman,serif" font-size="14.00" fill="lightgray">wff ( ch \/ ps )</text>
</g>
<!-- n18883&#45;&gt;n18884 -->
<g id="edge10" class="edge"><title>n18883&#45;&gt;n18884</title>
<path fill="none" stroke="lightgray" d="M50.7684,-1037.77C72.0903,-1045.98 104.172,-1058.33 128.138,-1067.56"/>
<polygon fill="lightgray" stroke="lightgray" points="126.943,-1070.85 137.532,-1071.18 129.458,-1064.32 126.943,-1070.85"/>
<text text-anchor="middle" x="90.5" y="-1063.8" font-family="Times New Roman,serif" font-size="14.00" fill="lightgray">wff ps</text>
</g>
<!-- n18886 -->
<g id="node12" class="node"><title>n18886</title>
<ellipse fill="none" stroke="lightgray" cx="161.447" cy="-1026" rx="27" ry="18"/>
<text text-anchor="middle" x="161.447" y="-1022.3" font-family="Times New Roman,serif" font-size="14.00" fill="lightgray">wph</text>
</g>
<!-- n18886&#45;&gt;n18889 -->
<g id="edge15" class="edge"><title>n18886&#45;&gt;n18889</title>
<path fill="none" stroke="lightgray" d="M188.235,-1023.45C231.668,-1018.27 321.104,-1003.72 386.894,-967 398.674,-960.425 409.78,-950.524 418.636,-941.339"/>
<polygon fill="lightgray" stroke="lightgray" points="421.307,-943.606 425.512,-933.881 416.161,-938.861 421.307,-943.606"/>
<text text-anchor="middle" x="300.394" y="-1023.8" font-family="Times New Roman,serif" font-size="14.00" fill="lightgray">wff ph</text>
</g>
<!-- n18887 -->
<g id="node14" class="node"><title>n18887</title>
<ellipse fill="none" stroke="lightgray" cx="161.447" cy="-954" rx="27" ry="18"/>
<text text-anchor="middle" x="161.447" y="-950.3" font-family="Times New Roman,serif" font-size="14.00" fill="lightgray">wps</text>
</g>
<!-- n18886&#45;&gt;n18887 -->
<g id="edge19" class="edge"><title>n18886&#45;&gt;n18887</title>
</g>
<!-- n18889&#45;&gt;n18913 -->
<g id="edge18" class="edge"><title>n18889&#45;&gt;n18913</title>
<path fill="none" stroke="lightgray" d="M462.214,-908.351C523.543,-881.298 697.547,-804.54 772.514,-771.471"/>
<polygon fill="lightgray" stroke="lightgray" points="774.257,-774.527 781.993,-767.289 771.431,-768.123 774.257,-774.527"/>
<text text-anchor="middle" x="624.288" y="-898.8" font-family="Times New Roman,serif" font-size="14.00" fill="lightgray">wff ( ph \/ ps \/ ch )</text>
</g>
<!-- n18893 -->
<g id="node17" class="node"><title>n18893</title>
<ellipse fill="none" stroke="lightgray" cx="439.341" cy="-756" rx="27" ry="18"/>
<text text-anchor="middle" x="439.341" y="-752.3" font-family="Times New Roman,serif" font-size="14.00" fill="lightgray">w3o</text>
</g>
<!-- n18889&#45;&gt;n18893 -->
<g id="edge59" class="edge"><title>n18889&#45;&gt;n18893</title>
</g>
<!-- n18887&#45;&gt;n18889 -->
<g id="edge16" class="edge"><title>n18887&#45;&gt;n18889</title>
<path fill="none" stroke="lightgray" d="M188.402,-950.613C237.928,-944.151 345.993,-930.05 402.419,-922.687"/>
<polygon fill="lightgray" stroke="lightgray" points="403.192,-926.116 412.655,-921.352 402.287,-919.175 403.192,-926.116"/>
<text text-anchor="middle" x="300.394" y="-951.8" font-family="Times New Roman,serif" font-size="14.00" fill="lightgray">wff ps</text>
</g>
<!-- n18888 -->
<g id="node15" class="node"><title>n18888</title>
<ellipse fill="none" stroke="lightgray" cx="161.447" cy="-882" rx="27" ry="18"/>
<text text-anchor="middle" x="161.447" y="-878.3" font-family="Times New Roman,serif" font-size="14.00" fill="lightgray">wch</text>
</g>
<!-- n18887&#45;&gt;n18888 -->
<g id="edge20" class="edge"><title>n18887&#45;&gt;n18888</title>
</g>
<!-- n18888&#45;&gt;n18889 -->
<g id="edge17" class="edge"><title>n18888&#45;&gt;n18889</title>
<path fill="none" stroke="lightgray" d="M188.509,-883.744C230.493,-886.787 315.607,-893.922 386.894,-906 392.433,-906.938 398.266,-908.115 403.936,-909.361"/>
<polygon fill="lightgray" stroke="lightgray" points="403.336,-912.815 413.866,-911.645 404.905,-905.993 403.336,-912.815"/>
<text text-anchor="middle" x="300.394" y="-909.8" font-family="Times New Roman,serif" font-size="14.00" fill="lightgray">wff ch</text>
</g>
<!-- n18890 -->
<g id="node16" class="node"><title>n18890</title>
<ellipse fill="none" stroke="lightgray" cx="161.447" cy="-828" rx="27" ry="18"/>
<text text-anchor="middle" x="161.447" y="-824.3" font-family="Times New Roman,serif" font-size="14.00" fill="lightgray">wph</text>
</g>
<!-- n18890&#45;&gt;n18893 -->
<g id="edge21" class="edge"><title>n18890&#45;&gt;n18893</title>
<path fill="none" stroke="lightgray" d="M187.621,-823.101C229.417,-814.735 315.593,-796.497 386.894,-775 393.175,-773.106 399.803,-770.855 406.135,-768.577"/>
<polygon fill="lightgray" stroke="lightgray" points="407.584,-771.772 415.749,-765.021 405.156,-765.207 407.584,-771.772"/>
<text text-anchor="middle" x="300.394" y="-820.8" font-family="Times New Roman,serif" font-size="14.00" fill="lightgray">wff ph</text>
</g>
<!-- n18891 -->
<g id="node18" class="node"><title>n18891</title>
<ellipse fill="none" stroke="lightgray" cx="161.447" cy="-756" rx="27" ry="18"/>
<text text-anchor="middle" x="161.447" y="-752.3" font-family="Times New Roman,serif" font-size="14.00" fill="lightgray">wch</text>
</g>
<!-- n18890&#45;&gt;n18891 -->
<g id="edge25" class="edge"><title>n18890&#45;&gt;n18891</title>
</g>
<!-- n18893&#45;&gt;n18913 -->
<g id="edge24" class="edge"><title>n18893&#45;&gt;n18913</title>
<path fill="none" stroke="lightgray" d="M466.458,-756C528.904,-756 687.367,-756 764.325,-756"/>
<polygon fill="lightgray" stroke="lightgray" points="764.625,-759.5 774.625,-756 764.625,-752.5 764.625,-759.5"/>
<text text-anchor="middle" x="624.288" y="-759.8" font-family="Times New Roman,serif" font-size="14.00" fill="lightgray">wff ( ph \/ ch \/ ps )</text>
</g>
<!-- n18904 -->
<g id="node23" class="node"><title>n18904</title>
<ellipse fill="cyan" stroke="black" cx="439.341" cy="-558" rx="31.6951" ry="18"/>
<text text-anchor="middle" x="439.341" y="-554.3" font-family="Times New Roman,serif" font-size="14.00">orbi2i</text>
</g>
<!-- n18893&#45;&gt;n18904 -->
<g id="edge60" class="edge"><title>n18893&#45;&gt;n18904</title>
</g>
<!-- n18891&#45;&gt;n18893 -->
<g id="edge22" class="edge"><title>n18891&#45;&gt;n18893</title>
<path fill="none" stroke="lightgray" d="M188.901,-756C238.443,-756 345.288,-756 401.714,-756"/>
<polygon fill="lightgray" stroke="lightgray" points="401.967,-759.5 411.967,-756 401.967,-752.5 401.967,-759.5"/>
<text text-anchor="middle" x="300.394" y="-759.8" font-family="Times New Roman,serif" font-size="14.00" fill="lightgray">wff ch</text>
</g>
<!-- n18892 -->
<g id="node19" class="node"><title>n18892</title>
<ellipse fill="none" stroke="lightgray" cx="161.447" cy="-684" rx="27" ry="18"/>
<text text-anchor="middle" x="161.447" y="-680.3" font-family="Times New Roman,serif" font-size="14.00" fill="lightgray">wps</text>
</g>
<!-- n18891&#45;&gt;n18892 -->
<g id="edge26" class="edge"><title>n18891&#45;&gt;n18892</title>
</g>
<!-- n18892&#45;&gt;n18893 -->
<g id="edge23" class="edge"><title>n18892&#45;&gt;n18893</title>
<path fill="none" stroke="lightgray" d="M187.621,-688.899C229.417,-697.265 315.593,-715.503 386.894,-737 393.175,-738.894 399.803,-741.145 406.135,-743.423"/>
<polygon fill="lightgray" stroke="lightgray" points="405.156,-746.793 415.749,-746.979 407.584,-740.228 405.156,-746.793"/>
<text text-anchor="middle" x="300.394" y="-740.8" font-family="Times New Roman,serif" font-size="14.00" fill="lightgray">wff ps</text>
</g>
<!-- n18894 -->
<g id="node20" class="node"><title>n18894</title>
<ellipse fill="none" stroke="lightgray" cx="27" cy="-692" rx="27" ry="18"/>
<text text-anchor="middle" x="27" y="-688.3" font-family="Times New Roman,serif" font-size="14.00" fill="lightgray">wch</text>
</g>
<!-- n18896 -->
<g id="node21" class="node"><title>n18896</title>
<ellipse fill="none" stroke="lightgray" cx="161.447" cy="-630" rx="27" ry="18"/>
<text text-anchor="middle" x="161.447" y="-626.3" font-family="Times New Roman,serif" font-size="14.00" fill="lightgray">wo</text>
</g>
<!-- n18894&#45;&gt;n18896 -->
<g id="edge27" class="edge"><title>n18894&#45;&gt;n18896</title>
<path fill="none" stroke="lightgray" d="M49.5747,-681.901C71.3177,-671.722 105.081,-655.918 129.638,-644.422"/>
<polygon fill="lightgray" stroke="lightgray" points="131.309,-647.505 138.882,-640.095 128.341,-641.165 131.309,-647.505"/>
<text text-anchor="middle" x="90.5" y="-674.8" font-family="Times New Roman,serif" font-size="14.00" fill="lightgray">wff ch</text>
</g>
<!-- n18895 -->
<g id="node22" class="node"><title>n18895</title>
<ellipse fill="none" stroke="lightgray" cx="27" cy="-620" rx="27" ry="18"/>
<text text-anchor="middle" x="27" y="-616.3" font-family="Times New Roman,serif" font-size="14.00" fill="lightgray">wps</text>
</g>
<!-- n18894&#45;&gt;n18895 -->
<g id="edge30" class="edge"><title>n18894&#45;&gt;n18895</title>
</g>
<!-- n18896&#45;&gt;n18904 -->
<g id="edge29" class="edge"><title>n18896&#45;&gt;n18904</title>
<path fill="none" stroke="lightgray" d="M187.621,-625.101C229.417,-616.735 315.593,-598.497 386.894,-577 392.25,-575.385 397.857,-573.511 403.318,-571.581"/>
<polygon fill="lightgray" stroke="lightgray" points="404.704,-574.801 412.904,-568.092 402.31,-568.224 404.704,-574.801"/>
<text text-anchor="middle" x="300.394" y="-622.8" font-family="Times New Roman,serif" font-size="14.00" fill="lightgray">wff ( ps \/ ch )</text>
</g>
<!-- n18899 -->
<g id="node25" class="node"><title>n18899</title>
<ellipse fill="none" stroke="lightgray" cx="161.447" cy="-558" rx="27" ry="18"/>
<text text-anchor="middle" x="161.447" y="-554.3" font-family="Times New Roman,serif" font-size="14.00" fill="lightgray">wo</text>
</g>
<!-- n18896&#45;&gt;n18899 -->
<g id="edge41" class="edge"><title>n18896&#45;&gt;n18899</title>
</g>
<!-- n18895&#45;&gt;n18896 -->
<g id="edge28" class="edge"><title>n18895&#45;&gt;n18896</title>
<path fill="none" stroke="lightgray" d="M53.8515,-621.952C73.8683,-623.463 101.843,-625.575 124.111,-627.257"/>
<polygon fill="lightgray" stroke="lightgray" points="123.973,-630.756 134.208,-628.019 124.5,-623.776 123.973,-630.756"/>
<text text-anchor="middle" x="90.5" y="-629.8" font-family="Times New Roman,serif" font-size="14.00" fill="lightgray">wff ps</text>
</g>
<!-- n18904&#45;&gt;n18913 -->
<g id="edge40" class="edge"><title>n18904&#45;&gt;n18913</title>
<path fill="none" stroke="black" d="M463.036,-570.236C525.745,-604.046 701.572,-698.843 774.864,-738.359"/>
<polygon fill="black" stroke="black" points="773.633,-741.671 784.097,-743.336 776.955,-735.51 773.633,-741.671"/>
<text text-anchor="middle" x="624.288" y="-731.8" font-family="Times New Roman,serif" font-size="14.00">|&#45; ( ( ph \/ ( ps \/ ch ) ) &lt;&#45;&gt; ( ph \/ ( ch \/ ps ) ) )</text>
</g>
<!-- n18908 -->
<g id="node32" class="node"><title>n18908</title>
<ellipse fill="cyan" stroke="black" cx="439.341" cy="-332" rx="34.394" ry="18"/>
<text text-anchor="middle" x="439.341" y="-328.3" font-family="Times New Roman,serif" font-size="14.00">3orass</text>
</g>
<!-- n18904&#45;&gt;n18908 -->
<g id="edge61" class="edge"><title>n18904&#45;&gt;n18908</title>
</g>
<!-- n18897 -->
<g id="node24" class="node"><title>n18897</title>
<ellipse fill="none" stroke="lightgray" cx="27" cy="-564" rx="27" ry="18"/>
<text text-anchor="middle" x="27" y="-560.3" font-family="Times New Roman,serif" font-size="14.00" fill="lightgray">wps</text>
</g>
<!-- n18897&#45;&gt;n18899 -->
<g id="edge31" class="edge"><title>n18897&#45;&gt;n18899</title>
<path fill="none" stroke="lightgray" d="M54.1673,-562.815C74.2124,-561.907 102.101,-560.643 124.28,-559.638"/>
<polygon fill="lightgray" stroke="lightgray" points="124.503,-563.132 134.334,-559.183 124.186,-556.139 124.503,-563.132"/>
<text text-anchor="middle" x="90.5" y="-565.8" font-family="Times New Roman,serif" font-size="14.00" fill="lightgray">wff ps</text>
</g>
<!-- n18898 -->
<g id="node26" class="node"><title>n18898</title>
<ellipse fill="none" stroke="lightgray" cx="27" cy="-492" rx="27" ry="18"/>
<text text-anchor="middle" x="27" y="-488.3" font-family="Times New Roman,serif" font-size="14.00" fill="lightgray">wch</text>
</g>
<!-- n18897&#45;&gt;n18898 -->
<g id="edge34" class="edge"><title>n18897&#45;&gt;n18898</title>
</g>
<!-- n18899&#45;&gt;n18904 -->
<g id="edge33" class="edge"><title>n18899&#45;&gt;n18904</title>
<path fill="none" stroke="lightgray" d="M188.901,-558C237.149,-558 339.747,-558 397.193,-558"/>
<polygon fill="lightgray" stroke="lightgray" points="397.37,-561.5 407.37,-558 397.37,-554.5 397.37,-561.5"/>
<text text-anchor="middle" x="300.394" y="-561.8" font-family="Times New Roman,serif" font-size="14.00" fill="lightgray">wff ( ch \/ ps )</text>
</g>
<!-- n18900 -->
<g id="node27" class="node"><title>n18900</title>
<ellipse fill="none" stroke="lightgray" cx="161.447" cy="-486" rx="27" ry="18"/>
<text text-anchor="middle" x="161.447" y="-482.3" font-family="Times New Roman,serif" font-size="14.00" fill="lightgray">wph</text>
</g>
<!-- n18899&#45;&gt;n18900 -->
<g id="edge42" class="edge"><title>n18899&#45;&gt;n18900</title>
</g>
<!-- n18898&#45;&gt;n18899 -->
<g id="edge32" class="edge"><title>n18898&#45;&gt;n18899</title>
<path fill="none" stroke="lightgray" d="M48.9866,-502.458C70.8482,-513.352 105.309,-530.524 130.127,-542.891"/>
<polygon fill="lightgray" stroke="lightgray" points="128.609,-546.045 139.12,-547.372 131.731,-539.78 128.609,-546.045"/>
<text text-anchor="middle" x="90.5" y="-534.8" font-family="Times New Roman,serif" font-size="14.00" fill="lightgray">wff ch</text>
</g>
<!-- n18900&#45;&gt;n18904 -->
<g id="edge35" class="edge"><title>n18900&#45;&gt;n18904</title>
<path fill="none" stroke="lightgray" d="M187.621,-490.899C229.417,-499.265 315.593,-517.503 386.894,-539 392.25,-540.615 397.857,-542.489 403.318,-544.419"/>
<polygon fill="lightgray" stroke="lightgray" points="402.31,-547.776 412.904,-547.908 404.704,-541.199 402.31,-547.776"/>
<text text-anchor="middle" x="300.394" y="-542.8" font-family="Times New Roman,serif" font-size="14.00" fill="lightgray">wff ph</text>
</g>
<!-- n18903 -->
<g id="node29" class="node"><title>n18903</title>
<ellipse fill="cyan" stroke="black" cx="161.447" cy="-414" rx="34.394" ry="18"/>
<text text-anchor="middle" x="161.447" y="-410.3" font-family="Times New Roman,serif" font-size="14.00">orcom</text>
</g>
<!-- n18900&#45;&gt;n18903 -->
<g id="edge43" class="edge"><title>n18900&#45;&gt;n18903</title>
</g>
<!-- n18901 -->
<g id="node28" class="node"><title>n18901</title>
<ellipse fill="none" stroke="lightgray" cx="27" cy="-431" rx="27" ry="18"/>
<text text-anchor="middle" x="27" y="-427.3" font-family="Times New Roman,serif" font-size="14.00" fill="lightgray">wps</text>
</g>
<!-- n18901&#45;&gt;n18903 -->
<g id="edge36" class="edge"><title>n18901&#45;&gt;n18903</title>
<path fill="none" stroke="lightgray" d="M53.8515,-427.682C71.9663,-425.357 96.5982,-422.195 117.621,-419.497"/>
<polygon fill="lightgray" stroke="lightgray" points="118.133,-422.96 127.606,-418.215 117.242,-416.017 118.133,-422.96"/>
<text text-anchor="middle" x="90.5" y="-429.8" font-family="Times New Roman,serif" font-size="14.00" fill="lightgray">wff ps</text>
</g>
<!-- n18902 -->
<g id="node30" class="node"><title>n18902</title>
<ellipse fill="none" stroke="lightgray" cx="27" cy="-359" rx="27" ry="18"/>
<text text-anchor="middle" x="27" y="-355.3" font-family="Times New Roman,serif" font-size="14.00" fill="lightgray">wch</text>
</g>
<!-- n18901&#45;&gt;n18902 -->
<g id="edge39" class="edge"><title>n18901&#45;&gt;n18902</title>
</g>
<!-- n18903&#45;&gt;n18904 -->
<g id="edge38" class="edge"><title>n18903&#45;&gt;n18904</title>
<path fill="none" stroke="black" d="M195.706,-416.411C242.546,-421.295 328.713,-435.887 386.894,-479 404.869,-492.32 418.316,-513.937 426.945,-531.195"/>
<polygon fill="black" stroke="black" points="423.794,-532.718 431.242,-540.253 430.119,-529.718 423.794,-532.718"/>
<text text-anchor="middle" x="300.394" y="-482.8" font-family="Times New Roman,serif" font-size="14.00">|&#45; ( ( ps \/ ch ) &lt;&#45;&gt; ( ch \/ ps ) )</text>
</g>
<!-- n18902&#45;&gt;n18903 -->
<g id="edge37" class="edge"><title>n18902&#45;&gt;n18903</title>
<path fill="none" stroke="lightgray" d="M50.4678,-368.33C70.7063,-376.734 100.813,-389.237 124.413,-399.036"/>
<polygon fill="lightgray" stroke="lightgray" points="123.176,-402.313 133.754,-402.915 125.861,-395.848 123.176,-402.313"/>
<text text-anchor="middle" x="90.5" y="-395.8" font-family="Times New Roman,serif" font-size="14.00" fill="lightgray">wff ch</text>
</g>
<!-- n18905 -->
<g id="node31" class="node"><title>n18905</title>
<ellipse fill="none" stroke="lightgray" cx="161.447" cy="-360" rx="27" ry="18"/>
<text text-anchor="middle" x="161.447" y="-356.3" font-family="Times New Roman,serif" font-size="14.00" fill="lightgray">wph</text>
</g>
<!-- n18905&#45;&gt;n18908 -->
<g id="edge44" class="edge"><title>n18905&#45;&gt;n18908</title>
<path fill="none" stroke="lightgray" d="M188.402,-357.366C235.884,-352.547 337.173,-342.267 395.177,-336.381"/>
<polygon fill="lightgray" stroke="lightgray" points="395.885,-339.827 405.481,-335.335 395.179,-332.863 395.885,-339.827"/>
<text text-anchor="middle" x="300.394" y="-358.8" font-family="Times New Roman,serif" font-size="14.00" fill="lightgray">wff ph</text>
</g>
<!-- n18906 -->
<g id="node33" class="node"><title>n18906</title>
<ellipse fill="none" stroke="lightgray" cx="161.447" cy="-288" rx="27" ry="18"/>
<text text-anchor="middle" x="161.447" y="-284.3" font-family="Times New Roman,serif" font-size="14.00" fill="lightgray">wps</text>
</g>
<!-- n18905&#45;&gt;n18906 -->
<g id="edge48" class="edge"><title>n18905&#45;&gt;n18906</title>
</g>
<!-- n18908&#45;&gt;n18913 -->
<g id="edge47" class="edge"><title>n18908&#45;&gt;n18913</title>
<path fill="none" stroke="black" d="M465.805,-343.574C526.178,-372.359 678.775,-453.219 756.788,-568 790.489,-617.585 801.875,-688.682 805.69,-727.696"/>
<polygon fill="black" stroke="black" points="802.216,-728.15 806.577,-737.805 809.189,-727.538 802.216,-728.15"/>
<text text-anchor="middle" x="624.288" y="-571.8" font-family="Times New Roman,serif" font-size="14.00">|&#45; ( ( ph \/ ps \/ ch ) &lt;&#45;&gt; ( ph \/ ( ps \/ ch ) ) )</text>
</g>
<!-- n18912 -->
<g id="node36" class="node"><title>n18912</title>
<ellipse fill="cyan" stroke="black" cx="439.341" cy="-162" rx="34.394" ry="18"/>
<text text-anchor="middle" x="439.341" y="-158.3" font-family="Times New Roman,serif" font-size="14.00">3orass</text>
</g>
<!-- n18908&#45;&gt;n18912 -->
<g id="edge62" class="edge"><title>n18908&#45;&gt;n18912</title>
</g>
<!-- n18906&#45;&gt;n18908 -->
<g id="edge45" class="edge"><title>n18906&#45;&gt;n18908</title>
<path fill="none" stroke="lightgray" d="M188.181,-290.62C230.059,-295.093 315.464,-305.086 386.894,-319 390.751,-319.751 394.751,-320.613 398.74,-321.528"/>
<polygon fill="lightgray" stroke="lightgray" points="398.001,-324.95 408.541,-323.878 399.633,-318.143 398.001,-324.95"/>
<text text-anchor="middle" x="300.394" y="-322.8" font-family="Times New Roman,serif" font-size="14.00" fill="lightgray">wff ps</text>
</g>
<!-- n18907 -->
<g id="node34" class="node"><title>n18907</title>
<ellipse fill="none" stroke="lightgray" cx="161.447" cy="-216" rx="27" ry="18"/>
<text text-anchor="middle" x="161.447" y="-212.3" font-family="Times New Roman,serif" font-size="14.00" fill="lightgray">wch</text>
</g>
<!-- n18906&#45;&gt;n18907 -->
<g id="edge49" class="edge"><title>n18906&#45;&gt;n18907</title>
</g>
<!-- n18907&#45;&gt;n18908 -->
<g id="edge46" class="edge"><title>n18907&#45;&gt;n18908</title>
<path fill="none" stroke="lightgray" d="M188.547,-218.01C232.44,-222.401 322.537,-235.825 386.894,-275 400.142,-283.064 411.974,-295.571 420.941,-306.818"/>
<polygon fill="lightgray" stroke="lightgray" points="418.38,-309.232 427.216,-315.077 423.954,-304.997 418.38,-309.232"/>
<text text-anchor="middle" x="300.394" y="-278.8" font-family="Times New Roman,serif" font-size="14.00" fill="lightgray">wff ch</text>
</g>
<!-- n18909 -->
<g id="node35" class="node"><title>n18909</title>
<ellipse fill="none" stroke="lightgray" cx="161.447" cy="-162" rx="27" ry="18"/>
<text text-anchor="middle" x="161.447" y="-158.3" font-family="Times New Roman,serif" font-size="14.00" fill="lightgray">wph</text>
</g>
<!-- n18909&#45;&gt;n18912 -->
<g id="edge50" class="edge"><title>n18909&#45;&gt;n18912</title>
<path fill="none" stroke="lightgray" d="M188.901,-162C236.387,-162 336.521,-162 394.438,-162"/>
<polygon fill="lightgray" stroke="lightgray" points="394.739,-165.5 404.739,-162 394.739,-158.5 394.739,-165.5"/>
<text text-anchor="middle" x="300.394" y="-165.8" font-family="Times New Roman,serif" font-size="14.00" fill="lightgray">wff ph</text>
</g>
<!-- n18910 -->
<g id="node37" class="node"><title>n18910</title>
<ellipse fill="none" stroke="lightgray" cx="161.447" cy="-90" rx="27" ry="18"/>
<text text-anchor="middle" x="161.447" y="-86.3" font-family="Times New Roman,serif" font-size="14.00" fill="lightgray">wch</text>
</g>
<!-- n18909&#45;&gt;n18910 -->
<g id="edge54" class="edge"><title>n18909&#45;&gt;n18910</title>
</g>
<!-- n18912&#45;&gt;n18913 -->
<g id="edge53" class="edge"><title>n18912&#45;&gt;n18913</title>
<path fill="none" stroke="black" d="M471.019,-169.3C536.026,-186.526 687.355,-236.29 756.788,-340 799.4,-403.648 806.28,-643.993 807.379,-727.334"/>
<polygon fill="black" stroke="black" points="803.882,-727.62 807.495,-737.58 810.882,-727.541 803.882,-727.62"/>
<text text-anchor="middle" x="624.288" y="-343.8" font-family="Times New Roman,serif" font-size="14.00">|&#45; ( ( ph \/ ch \/ ps ) &lt;&#45;&gt; ( ph \/ ( ch \/ ps ) ) )</text>
</g>
<!-- n18910&#45;&gt;n18912 -->
<g id="edge51" class="edge"><title>n18910&#45;&gt;n18912</title>
<path fill="none" stroke="lightgray" d="M187.621,-94.8991C229.417,-103.265 315.593,-121.503 386.894,-143 391.782,-144.474 396.88,-146.164 401.885,-147.915"/>
<polygon fill="lightgray" stroke="lightgray" points="400.722,-151.216 411.317,-151.317 403.097,-144.631 400.722,-151.216"/>
<text text-anchor="middle" x="300.394" y="-146.8" font-family="Times New Roman,serif" font-size="14.00" fill="lightgray">wff ch</text>
</g>
<!-- n18911 -->
<g id="node38" class="node"><title>n18911</title>
<ellipse fill="none" stroke="lightgray" cx="161.447" cy="-18" rx="27" ry="18"/>
<text text-anchor="middle" x="161.447" y="-14.3" font-family="Times New Roman,serif" font-size="14.00" fill="lightgray">wps</text>
</g>
<!-- n18910&#45;&gt;n18911 -->
<g id="edge55" class="edge"><title>n18910&#45;&gt;n18911</title>
</g>
<!-- n18911&#45;&gt;n18912 -->
<g id="edge52" class="edge"><title>n18911&#45;&gt;n18912</title>
<path fill="none" stroke="lightgray" d="M188.572,-19.7108C233.295,-23.8226 325.617,-37.593 386.894,-83 404.869,-96.3195 418.316,-117.937 426.945,-135.195"/>
<polygon fill="lightgray" stroke="lightgray" points="423.794,-136.718 431.242,-144.253 430.119,-133.718 423.794,-136.718"/>
<text text-anchor="middle" x="300.394" y="-86.8" font-family="Times New Roman,serif" font-size="14.00" fill="lightgray">wff ps</text>
</g>
</g>
</svg>
