<?xml version="1.0" encoding="UTF-8" standalone="no"?>
<!DOCTYPE svg PUBLIC "-//W3C//DTD SVG 1.1//EN"
 "http://www.w3.org/Graphics/SVG/1.1/DTD/svg11.dtd">
<!-- Generated by graphviz version 2.38.0 (20140413.2041)
 -->
<!-- Title: proof_3simpc Pages: 1 -->
<svg width="794pt" height="908pt"
 viewBox="0.00 0.00 794.18 908.00" xmlns="http://www.w3.org/2000/svg" xmlns:xlink="http://www.w3.org/1999/xlink">
<g id="graph0" class="graph" transform="scale(1 1) rotate(0) translate(4 904)">
<title>proof_3simpc</title>
<polygon fill="white" stroke="none" points="-4,4 -4,-904 790.183,-904 790.183,4 -4,4"/>
<!-- n19238 -->
<g id="node1" class="node"><title>n19238</title>
<ellipse fill="none" stroke="lightgray" cx="27" cy="-882" rx="27" ry="18"/>
<text text-anchor="middle" x="27" y="-878.3" font-family="Times New Roman,serif" font-size="14.00" fill="lightgray">wph</text>
</g>
<!-- n19241 -->
<g id="node2" class="node"><title>n19241</title>
<ellipse fill="none" stroke="lightgray" cx="163.397" cy="-738" rx="27" ry="18"/>
<text text-anchor="middle" x="163.397" y="-734.3" font-family="Times New Roman,serif" font-size="14.00" fill="lightgray">w3a</text>
</g>
<!-- n19238&#45;&gt;n19241 -->
<g id="edge1" class="edge"><title>n19238&#45;&gt;n19241</title>
<path fill="none" stroke="lightgray" d="M43.7865,-867.882C60.5335,-852.661 87.4902,-827.451 109,-804 121.34,-790.546 134.24,-774.66 144.268,-761.845"/>
<polygon fill="lightgray" stroke="lightgray" points="147.048,-763.971 150.409,-753.924 141.516,-759.683 147.048,-763.971"/>
<text text-anchor="middle" x="90.5" y="-845.8" font-family="Times New Roman,serif" font-size="14.00" fill="lightgray">wff ph</text>
</g>
<!-- n19239 -->
<g id="node3" class="node"><title>n19239</title>
<ellipse fill="none" stroke="lightgray" cx="27" cy="-810" rx="27" ry="18"/>
<text text-anchor="middle" x="27" y="-806.3" font-family="Times New Roman,serif" font-size="14.00" fill="lightgray">wps</text>
</g>
<!-- n19238&#45;&gt;n19239 -->
<g id="edge5" class="edge"><title>n19238&#45;&gt;n19239</title>
</g>
<!-- n19257 -->
<g id="node5" class="node"><title>n19257</title>
<ellipse fill="cyan" stroke="black" cx="480.741" cy="-444" rx="27.8951" ry="18"/>
<text text-anchor="middle" x="480.741" y="-440.3" font-family="Times New Roman,serif" font-size="14.00">sylbi</text>
</g>
<!-- n19241&#45;&gt;n19257 -->
<g id="edge4" class="edge"><title>n19241&#45;&gt;n19257</title>
<path fill="none" stroke="lightgray" d="M187.575,-729.649C239.348,-709.854 365.288,-655.182 434.794,-569 457.799,-540.474 469.563,-499.199 475.177,-471.993"/>
<polygon fill="lightgray" stroke="lightgray" points="478.654,-472.446 477.099,-461.966 471.779,-471.128 478.654,-472.446"/>
<text text-anchor="middle" x="326.294" y="-719.8" font-family="Times New Roman,serif" font-size="14.00" fill="lightgray">wff ( ph / ps / ch )</text>
</g>
<!-- n19245 -->
<g id="node7" class="node"><title>n19245</title>
<ellipse fill="none" stroke="lightgray" cx="163.397" cy="-571" rx="27" ry="18"/>
<text text-anchor="middle" x="163.397" y="-567.3" font-family="Times New Roman,serif" font-size="14.00" fill="lightgray">w3a</text>
</g>
<!-- n19241&#45;&gt;n19245 -->
<g id="edge30" class="edge"><title>n19241&#45;&gt;n19245</title>
</g>
<!-- n19239&#45;&gt;n19241 -->
<g id="edge2" class="edge"><title>n19239&#45;&gt;n19241</title>
<path fill="none" stroke="lightgray" d="M48.705,-798.908C71.2638,-786.822 107.534,-767.391 133.029,-753.733"/>
<polygon fill="lightgray" stroke="lightgray" points="134.727,-756.794 141.889,-748.987 131.421,-750.624 134.727,-756.794"/>
<text text-anchor="middle" x="90.5" y="-788.8" font-family="Times New Roman,serif" font-size="14.00" fill="lightgray">wff ps</text>
</g>
<!-- n19240 -->
<g id="node4" class="node"><title>n19240</title>
<ellipse fill="none" stroke="lightgray" cx="27" cy="-738" rx="27" ry="18"/>
<text text-anchor="middle" x="27" y="-734.3" font-family="Times New Roman,serif" font-size="14.00" fill="lightgray">wch</text>
</g>
<!-- n19239&#45;&gt;n19240 -->
<g id="edge6" class="edge"><title>n19239&#45;&gt;n19240</title>
</g>
<!-- n19240&#45;&gt;n19241 -->
<g id="edge3" class="edge"><title>n19240&#45;&gt;n19241</title>
<path fill="none" stroke="lightgray" d="M54.2321,-738C74.6755,-738 103.299,-738 125.966,-738"/>
<polygon fill="lightgray" stroke="lightgray" points="126.231,-741.5 136.231,-738 126.231,-734.5 126.231,-741.5"/>
<text text-anchor="middle" x="90.5" y="-741.8" font-family="Times New Roman,serif" font-size="14.00" fill="lightgray">wff ch</text>
</g>
<!-- QED -->
<g id="node21" class="node"><title>QED</title>
</g>
<!-- n19257&#45;&gt;QED -->
<g id="edge29" class="edge"><title>n19257&#45;&gt;QED</title>
<path fill="none" stroke="black" d="M509.034,-444C558.028,-444 661.014,-444 717.259,-444"/>
<polygon fill="black" stroke="black" points="717.525,-447.5 727.525,-444 717.525,-440.5 717.525,-447.5"/>
<text text-anchor="middle" x="618.189" y="-447.8" font-family="Times New Roman,serif" font-size="14.00">|&#45; ( ( ph / ps / ch ) &#45;&gt; ( ps / ch ) )</text>
</g>
<!-- n19242 -->
<g id="node6" class="node"><title>n19242</title>
<ellipse fill="none" stroke="lightgray" cx="27" cy="-684" rx="27" ry="18"/>
<text text-anchor="middle" x="27" y="-680.3" font-family="Times New Roman,serif" font-size="14.00" fill="lightgray">wps</text>
</g>
<!-- n19242&#45;&gt;n19245 -->
<g id="edge7" class="edge"><title>n19242&#45;&gt;n19245</title>
<path fill="none" stroke="lightgray" d="M44.8357,-670.239C61.276,-656.762 86.9665,-635.6 109,-617 118.69,-608.82 129.286,-599.724 138.466,-591.794"/>
<polygon fill="lightgray" stroke="lightgray" points="140.84,-594.369 146.111,-585.178 136.259,-589.076 140.84,-594.369"/>
<text text-anchor="middle" x="90.5" y="-650.8" font-family="Times New Roman,serif" font-size="14.00" fill="lightgray">wff ps</text>
</g>
<!-- n19243 -->
<g id="node8" class="node"><title>n19243</title>
<ellipse fill="none" stroke="lightgray" cx="27" cy="-612" rx="27" ry="18"/>
<text text-anchor="middle" x="27" y="-608.3" font-family="Times New Roman,serif" font-size="14.00" fill="lightgray">wch</text>
</g>
<!-- n19242&#45;&gt;n19243 -->
<g id="edge11" class="edge"><title>n19242&#45;&gt;n19243</title>
</g>
<!-- n19245&#45;&gt;n19257 -->
<g id="edge10" class="edge"><title>n19245&#45;&gt;n19257</title>
<path fill="none" stroke="lightgray" d="M187.249,-562.05C233.896,-543.742 343.388,-500.569 434.794,-463 438.961,-461.287 443.337,-459.466 447.655,-457.655"/>
<polygon fill="lightgray" stroke="lightgray" points="449.056,-460.863 456.912,-453.754 446.338,-454.412 449.056,-460.863"/>
<text text-anchor="middle" x="326.294" y="-553.8" font-family="Times New Roman,serif" font-size="14.00" fill="lightgray">wff ( ps / ch / ph )</text>
</g>
<!-- n19248 -->
<g id="node11" class="node"><title>n19248</title>
<ellipse fill="none" stroke="lightgray" cx="163.397" cy="-444" rx="27" ry="18"/>
<text text-anchor="middle" x="163.397" y="-440.3" font-family="Times New Roman,serif" font-size="14.00" fill="lightgray">wa</text>
</g>
<!-- n19245&#45;&gt;n19248 -->
<g id="edge31" class="edge"><title>n19245&#45;&gt;n19248</title>
</g>
<!-- n19243&#45;&gt;n19245 -->
<g id="edge8" class="edge"><title>n19243&#45;&gt;n19245</title>
<path fill="none" stroke="lightgray" d="M52.0274,-604.67C73.4324,-598.14 104.972,-588.518 128.86,-581.231"/>
<polygon fill="lightgray" stroke="lightgray" points="130.034,-584.532 138.577,-578.267 127.991,-577.837 130.034,-584.532"/>
<text text-anchor="middle" x="90.5" y="-601.8" font-family="Times New Roman,serif" font-size="14.00" fill="lightgray">wff ch</text>
</g>
<!-- n19244 -->
<g id="node9" class="node"><title>n19244</title>
<ellipse fill="none" stroke="lightgray" cx="27" cy="-540" rx="27" ry="18"/>
<text text-anchor="middle" x="27" y="-536.3" font-family="Times New Roman,serif" font-size="14.00" fill="lightgray">wph</text>
</g>
<!-- n19243&#45;&gt;n19244 -->
<g id="edge12" class="edge"><title>n19243&#45;&gt;n19244</title>
</g>
<!-- n19244&#45;&gt;n19245 -->
<g id="edge9" class="edge"><title>n19244&#45;&gt;n19245</title>
<path fill="none" stroke="lightgray" d="M52.8449,-545.385C68.8877,-548.896 90.1994,-553.623 109,-558 115.22,-559.448 121.838,-561.028 128.221,-562.571"/>
<polygon fill="lightgray" stroke="lightgray" points="127.422,-565.979 137.966,-564.942 129.077,-559.177 127.422,-565.979"/>
<text text-anchor="middle" x="90.5" y="-561.8" font-family="Times New Roman,serif" font-size="14.00" fill="lightgray">wff ph</text>
</g>
<!-- n19246 -->
<g id="node10" class="node"><title>n19246</title>
<ellipse fill="none" stroke="lightgray" cx="27" cy="-486" rx="27" ry="18"/>
<text text-anchor="middle" x="27" y="-482.3" font-family="Times New Roman,serif" font-size="14.00" fill="lightgray">wps</text>
</g>
<!-- n19246&#45;&gt;n19248 -->
<g id="edge13" class="edge"><title>n19246&#45;&gt;n19248</title>
<path fill="none" stroke="lightgray" d="M51.7181,-478.588C73.0817,-471.912 104.72,-462.024 128.705,-454.529"/>
<polygon fill="lightgray" stroke="lightgray" points="129.963,-457.803 138.464,-451.479 127.875,-451.121 129.963,-457.803"/>
<text text-anchor="middle" x="90.5" y="-475.8" font-family="Times New Roman,serif" font-size="14.00" fill="lightgray">wff ps</text>
</g>
<!-- n19247 -->
<g id="node12" class="node"><title>n19247</title>
<ellipse fill="none" stroke="lightgray" cx="27" cy="-414" rx="27" ry="18"/>
<text text-anchor="middle" x="27" y="-410.3" font-family="Times New Roman,serif" font-size="14.00" fill="lightgray">wch</text>
</g>
<!-- n19246&#45;&gt;n19247 -->
<g id="edge16" class="edge"><title>n19246&#45;&gt;n19247</title>
</g>
<!-- n19248&#45;&gt;n19257 -->
<g id="edge15" class="edge"><title>n19248&#45;&gt;n19257</title>
<path fill="none" stroke="lightgray" d="M190.471,-444C246.384,-444 377.966,-444 442.597,-444"/>
<polygon fill="lightgray" stroke="lightgray" points="442.744,-447.5 452.744,-444 442.744,-440.5 442.744,-447.5"/>
<text text-anchor="middle" x="326.294" y="-447.8" font-family="Times New Roman,serif" font-size="14.00" fill="lightgray">wff ( ps / ch )</text>
</g>
<!-- n19252 -->
<g id="node14" class="node"><title>n19252</title>
<ellipse fill="cyan" stroke="black" cx="163.397" cy="-318" rx="33.5952" ry="18"/>
<text text-anchor="middle" x="163.397" y="-314.3" font-family="Times New Roman,serif" font-size="14.00">3anrot</text>
</g>
<!-- n19248&#45;&gt;n19252 -->
<g id="edge32" class="edge"><title>n19248&#45;&gt;n19252</title>
</g>
<!-- n19247&#45;&gt;n19248 -->
<g id="edge14" class="edge"><title>n19247&#45;&gt;n19248</title>
<path fill="none" stroke="lightgray" d="M52.8189,-419.499C68.8514,-423.056 90.1613,-427.79 109,-432 115,-433.341 121.378,-434.77 127.559,-436.158"/>
<polygon fill="lightgray" stroke="lightgray" points="127.152,-439.654 137.676,-438.432 128.687,-432.824 127.152,-439.654"/>
<text text-anchor="middle" x="90.5" y="-435.8" font-family="Times New Roman,serif" font-size="14.00" fill="lightgray">wff ch</text>
</g>
<!-- n19249 -->
<g id="node13" class="node"><title>n19249</title>
<ellipse fill="none" stroke="lightgray" cx="27" cy="-360" rx="27" ry="18"/>
<text text-anchor="middle" x="27" y="-356.3" font-family="Times New Roman,serif" font-size="14.00" fill="lightgray">wph</text>
</g>
<!-- n19249&#45;&gt;n19252 -->
<g id="edge17" class="edge"><title>n19249&#45;&gt;n19252</title>
<path fill="none" stroke="lightgray" d="M51.7181,-352.588C71.763,-346.324 100.854,-337.233 124.18,-329.943"/>
<polygon fill="lightgray" stroke="lightgray" points="125.281,-333.266 133.782,-326.942 123.193,-326.585 125.281,-333.266"/>
<text text-anchor="middle" x="90.5" y="-349.8" font-family="Times New Roman,serif" font-size="14.00" fill="lightgray">wff ph</text>
</g>
<!-- n19250 -->
<g id="node15" class="node"><title>n19250</title>
<ellipse fill="none" stroke="lightgray" cx="27" cy="-288" rx="27" ry="18"/>
<text text-anchor="middle" x="27" y="-284.3" font-family="Times New Roman,serif" font-size="14.00" fill="lightgray">wps</text>
</g>
<!-- n19249&#45;&gt;n19250 -->
<g id="edge21" class="edge"><title>n19249&#45;&gt;n19250</title>
</g>
<!-- n19252&#45;&gt;n19257 -->
<g id="edge20" class="edge"><title>n19252&#45;&gt;n19257</title>
<path fill="none" stroke="black" d="M191.345,-328.426C240.071,-347.33 346.014,-388.676 434.794,-425 438.964,-426.706 443.342,-428.524 447.66,-430.333"/>
<polygon fill="black" stroke="black" points="446.343,-433.575 456.918,-434.232 449.061,-427.124 446.343,-433.575"/>
<text text-anchor="middle" x="326.294" y="-428.8" font-family="Times New Roman,serif" font-size="14.00">|&#45; ( ( ph / ps / ch ) &lt;&#45;&gt; ( ps / ch / ph ) )</text>
</g>
<!-- n19256 -->
<g id="node18" class="node"><title>n19256</title>
<ellipse fill="cyan" stroke="black" cx="163.397" cy="-162" rx="36.2938" ry="18"/>
<text text-anchor="middle" x="163.397" y="-158.3" font-family="Times New Roman,serif" font-size="14.00">3simpa</text>
</g>
<!-- n19252&#45;&gt;n19256 -->
<g id="edge33" class="edge"><title>n19252&#45;&gt;n19256</title>
</g>
<!-- n19250&#45;&gt;n19252 -->
<g id="edge18" class="edge"><title>n19250&#45;&gt;n19252</title>
<path fill="none" stroke="lightgray" d="M52.8189,-293.499C68.8514,-297.056 90.1613,-301.79 109,-306 113.173,-306.933 117.528,-307.908 121.874,-308.882"/>
<polygon fill="lightgray" stroke="lightgray" points="121.379,-312.359 131.903,-311.134 122.913,-305.529 121.379,-312.359"/>
<text text-anchor="middle" x="90.5" y="-309.8" font-family="Times New Roman,serif" font-size="14.00" fill="lightgray">wff ps</text>
</g>
<!-- n19251 -->
<g id="node16" class="node"><title>n19251</title>
<ellipse fill="none" stroke="lightgray" cx="27" cy="-216" rx="27" ry="18"/>
<text text-anchor="middle" x="27" y="-212.3" font-family="Times New Roman,serif" font-size="14.00" fill="lightgray">wch</text>
</g>
<!-- n19250&#45;&gt;n19251 -->
<g id="edge22" class="edge"><title>n19250&#45;&gt;n19251</title>
</g>
<!-- n19251&#45;&gt;n19252 -->
<g id="edge19" class="edge"><title>n19251&#45;&gt;n19252</title>
<path fill="none" stroke="lightgray" d="M45.57,-229.335C68.2981,-246.584 108.14,-276.822 134.894,-297.127"/>
<polygon fill="lightgray" stroke="lightgray" points="133.001,-300.084 143.083,-303.342 137.233,-294.508 133.001,-300.084"/>
<text text-anchor="middle" x="90.5" y="-280.8" font-family="Times New Roman,serif" font-size="14.00" fill="lightgray">wff ch</text>
</g>
<!-- n19253 -->
<g id="node17" class="node"><title>n19253</title>
<ellipse fill="none" stroke="lightgray" cx="27" cy="-162" rx="27" ry="18"/>
<text text-anchor="middle" x="27" y="-158.3" font-family="Times New Roman,serif" font-size="14.00" fill="lightgray">wps</text>
</g>
<!-- n19253&#45;&gt;n19256 -->
<g id="edge23" class="edge"><title>n19253&#45;&gt;n19256</title>
<path fill="none" stroke="lightgray" d="M54.2321,-162C71.9419,-162 95.7902,-162 116.587,-162"/>
<polygon fill="lightgray" stroke="lightgray" points="116.823,-165.5 126.822,-162 116.822,-158.5 116.823,-165.5"/>
<text text-anchor="middle" x="90.5" y="-165.8" font-family="Times New Roman,serif" font-size="14.00" fill="lightgray">wff ps</text>
</g>
<!-- n19254 -->
<g id="node19" class="node"><title>n19254</title>
<ellipse fill="none" stroke="lightgray" cx="27" cy="-90" rx="27" ry="18"/>
<text text-anchor="middle" x="27" y="-86.3" font-family="Times New Roman,serif" font-size="14.00" fill="lightgray">wch</text>
</g>
<!-- n19253&#45;&gt;n19254 -->
<g id="edge27" class="edge"><title>n19253&#45;&gt;n19254</title>
</g>
<!-- n19256&#45;&gt;n19257 -->
<g id="edge26" class="edge"><title>n19256&#45;&gt;n19257</title>
<path fill="none" stroke="black" d="M194.095,-171.783C249.224,-191.402 367.852,-240.678 434.794,-321 457.795,-348.599 469.526,-388.992 475.137,-415.869"/>
<polygon fill="black" stroke="black" points="471.722,-416.644 477.06,-425.796 478.594,-415.313 471.722,-416.644"/>
<text text-anchor="middle" x="326.294" y="-324.8" font-family="Times New Roman,serif" font-size="14.00">|&#45; ( ( ps / ch / ph ) &#45;&gt; ( ps / ch ) )</text>
</g>
<!-- n19254&#45;&gt;n19256 -->
<g id="edge24" class="edge"><title>n19254&#45;&gt;n19256</title>
<path fill="none" stroke="lightgray" d="M48.705,-101.092C70.0834,-112.545 103.776,-130.595 128.942,-144.077"/>
<polygon fill="lightgray" stroke="lightgray" points="127.322,-147.18 137.789,-148.817 130.627,-141.009 127.322,-147.18"/>
<text text-anchor="middle" x="90.5" y="-136.8" font-family="Times New Roman,serif" font-size="14.00" fill="lightgray">wff ch</text>
</g>
<!-- n19255 -->
<g id="node20" class="node"><title>n19255</title>
<ellipse fill="none" stroke="lightgray" cx="27" cy="-18" rx="27" ry="18"/>
<text text-anchor="middle" x="27" y="-14.3" font-family="Times New Roman,serif" font-size="14.00" fill="lightgray">wph</text>
</g>
<!-- n19254&#45;&gt;n19255 -->
<g id="edge28" class="edge"><title>n19254&#45;&gt;n19255</title>
</g>
<!-- n19255&#45;&gt;n19256 -->
<g id="edge25" class="edge"><title>n19255&#45;&gt;n19256</title>
<path fill="none" stroke="lightgray" d="M43.7286,-32.3651C60.4273,-47.8371 87.344,-73.4158 109,-97 120.798,-109.848 133.21,-124.856 143.095,-137.212"/>
<polygon fill="lightgray" stroke="lightgray" points="140.54,-139.623 149.496,-145.283 146.025,-135.273 140.54,-139.623"/>
<text text-anchor="middle" x="90.5" y="-100.8" font-family="Times New Roman,serif" font-size="14.00" fill="lightgray">wff ph</text>
</g>
</g>
</svg>
