<?xml version="1.0" encoding="UTF-8" standalone="no"?>
<!DOCTYPE svg PUBLIC "-//W3C//DTD SVG 1.1//EN"
 "http://www.w3.org/Graphics/SVG/1.1/DTD/svg11.dtd">
<!-- Generated by graphviz version 2.38.0 (20140413.2041)
 -->
<!-- Title: proof_3syl Pages: 1 -->
<svg width="583pt" height="404pt"
 viewBox="0.00 0.00 583.48 404.00" xmlns="http://www.w3.org/2000/svg" xmlns:xlink="http://www.w3.org/1999/xlink">
<g id="graph0" class="graph" transform="scale(1 1) rotate(0) translate(4 400)">
<title>proof_3syl</title>
<polygon fill="white" stroke="none" points="-4,4 -4,-400 579.483,-400 579.483,4 -4,4"/>
<!-- n111 -->
<g id="node1" class="node"><title>n111</title>
<ellipse fill="none" stroke="lightgray" cx="209.491" cy="-378" rx="27" ry="18"/>
<text text-anchor="middle" x="209.491" y="-374.3" font-family="Times New Roman,serif" font-size="14.00" fill="lightgray">wph</text>
</g>
<!-- n121 -->
<g id="node2" class="node"><title>n121</title>
<ellipse fill="cyan" stroke="black" cx="380.988" cy="-234" rx="27" ry="18"/>
<text text-anchor="middle" x="380.988" y="-230.3" font-family="Times New Roman,serif" font-size="14.00">syl</text>
</g>
<!-- n111&#45;&gt;n121 -->
<g id="edge1" class="edge"><title>n111&#45;&gt;n121</title>
<path fill="none" stroke="lightgray" d="M233.025,-368.704C259.931,-356.769 305.155,-333.97 335.988,-304 348.868,-291.481 359.668,-274.478 367.345,-260.364"/>
<polygon fill="lightgray" stroke="lightgray" points="370.632,-261.63 372.149,-251.145 364.424,-258.396 370.632,-261.63"/>
<text text-anchor="middle" x="297.988" y="-357.8" font-family="Times New Roman,serif" font-size="14.00" fill="lightgray">wff ph</text>
</g>
<!-- n112 -->
<g id="node3" class="node"><title>n112</title>
<ellipse fill="none" stroke="lightgray" cx="209.491" cy="-306" rx="27" ry="18"/>
<text text-anchor="middle" x="209.491" y="-302.3" font-family="Times New Roman,serif" font-size="14.00" fill="lightgray">wch</text>
</g>
<!-- n111&#45;&gt;n112 -->
<g id="edge16" class="edge"><title>n111&#45;&gt;n112</title>
</g>
<!-- QED -->
<g id="node12" class="node"><title>QED</title>
</g>
<!-- n121&#45;&gt;QED -->
<g id="edge15" class="edge"><title>n121&#45;&gt;QED</title>
<path fill="none" stroke="black" d="M408.217,-234C434.823,-234 476.296,-234 506.649,-234"/>
<polygon fill="black" stroke="black" points="506.879,-237.5 516.879,-234 506.879,-230.5 506.879,-237.5"/>
<text text-anchor="middle" x="462.488" y="-237.8" font-family="Times New Roman,serif" font-size="14.00">|&#45; ( ph &#45;&gt; th )</text>
</g>
<!-- n112&#45;&gt;n121 -->
<g id="edge2" class="edge"><title>n112&#45;&gt;n121</title>
<path fill="none" stroke="lightgray" d="M232.73,-296.671C257.834,-286.127 299.883,-268.419 335.988,-253 339.948,-251.309 344.105,-249.525 348.218,-247.755"/>
<polygon fill="lightgray" stroke="lightgray" points="349.823,-250.875 357.619,-243.701 347.051,-244.447 349.823,-250.875"/>
<text text-anchor="middle" x="297.988" y="-288.8" font-family="Times New Roman,serif" font-size="14.00" fill="lightgray">wff ch</text>
</g>
<!-- n113 -->
<g id="node4" class="node"><title>n113</title>
<ellipse fill="none" stroke="lightgray" cx="209.491" cy="-234" rx="27" ry="18"/>
<text text-anchor="middle" x="209.491" y="-230.3" font-family="Times New Roman,serif" font-size="14.00" fill="lightgray">wth</text>
</g>
<!-- n112&#45;&gt;n113 -->
<g id="edge17" class="edge"><title>n112&#45;&gt;n113</title>
</g>
<!-- n113&#45;&gt;n121 -->
<g id="edge3" class="edge"><title>n113&#45;&gt;n121</title>
<path fill="none" stroke="lightgray" d="M236.604,-234C265.221,-234 311.332,-234 343.513,-234"/>
<polygon fill="lightgray" stroke="lightgray" points="343.846,-237.5 353.846,-234 343.846,-230.5 343.846,-237.5"/>
<text text-anchor="middle" x="297.988" y="-237.8" font-family="Times New Roman,serif" font-size="14.00" fill="lightgray">wff th</text>
</g>
<!-- n119 -->
<g id="node6" class="node"><title>n119</title>
<ellipse fill="cyan" stroke="black" cx="209.491" cy="-162" rx="27" ry="18"/>
<text text-anchor="middle" x="209.491" y="-158.3" font-family="Times New Roman,serif" font-size="14.00">syl</text>
</g>
<!-- n113&#45;&gt;n119 -->
<g id="edge18" class="edge"><title>n113&#45;&gt;n119</title>
</g>
<!-- n114 -->
<g id="node5" class="node"><title>n114</title>
<ellipse fill="none" stroke="lightgray" cx="32.4971" cy="-306" rx="27" ry="18"/>
<text text-anchor="middle" x="32.4971" y="-302.3" font-family="Times New Roman,serif" font-size="14.00" fill="lightgray">wph</text>
</g>
<!-- n114&#45;&gt;n119 -->
<g id="edge4" class="edge"><title>n114&#45;&gt;n119</title>
<path fill="none" stroke="lightgray" d="M55.7594,-296.417C82.3975,-284.199 127.359,-261.122 158.994,-232 160.038,-231.04 177.39,-206.402 191.257,-186.626"/>
<polygon fill="lightgray" stroke="lightgray" points="194.249,-188.456 197.121,-178.258 188.516,-184.439 194.249,-188.456"/>
<text text-anchor="middle" x="120.994" y="-286.8" font-family="Times New Roman,serif" font-size="14.00" fill="lightgray">wff ph</text>
</g>
<!-- n115 -->
<g id="node7" class="node"><title>n115</title>
<ellipse fill="none" stroke="lightgray" cx="32.4971" cy="-234" rx="27" ry="18"/>
<text text-anchor="middle" x="32.4971" y="-230.3" font-family="Times New Roman,serif" font-size="14.00" fill="lightgray">wps</text>
</g>
<!-- n114&#45;&gt;n115 -->
<g id="edge10" class="edge"><title>n114&#45;&gt;n115</title>
</g>
<!-- n119&#45;&gt;n121 -->
<g id="edge9" class="edge"><title>n119&#45;&gt;n121</title>
<path fill="none" stroke="black" d="M232.73,-171.329C257.834,-181.873 299.883,-199.581 335.988,-215 339.948,-216.691 344.105,-218.475 348.218,-220.245"/>
<polygon fill="black" stroke="black" points="347.051,-223.553 357.619,-224.299 349.823,-217.125 347.051,-223.553"/>
<text text-anchor="middle" x="297.988" y="-218.8" font-family="Times New Roman,serif" font-size="14.00">|&#45; ( ph &#45;&gt; ch )</text>
</g>
<!-- n120 -->
<g id="node11" class="node"><title>n120</title>
<ellipse fill="orange" stroke="black" cx="209.491" cy="-90" rx="32.4942" ry="18"/>
<text text-anchor="middle" x="209.491" y="-86.3" font-family="Times New Roman,serif" font-size="14.00">3syl.3</text>
</g>
<!-- n119&#45;&gt;n120 -->
<g id="edge19" class="edge"><title>n119&#45;&gt;n120</title>
</g>
<!-- n115&#45;&gt;n119 -->
<g id="edge5" class="edge"><title>n115&#45;&gt;n119</title>
<path fill="none" stroke="lightgray" d="M56.0163,-224.735C86.7299,-212.098 141.915,-189.392 176.796,-175.041"/>
<polygon fill="lightgray" stroke="lightgray" points="178.143,-178.272 186.059,-171.23 175.479,-171.798 178.143,-178.272"/>
<text text-anchor="middle" x="120.994" y="-216.8" font-family="Times New Roman,serif" font-size="14.00" fill="lightgray">wff ps</text>
</g>
<!-- n116 -->
<g id="node8" class="node"><title>n116</title>
<ellipse fill="none" stroke="lightgray" cx="32.4971" cy="-162" rx="27" ry="18"/>
<text text-anchor="middle" x="32.4971" y="-158.3" font-family="Times New Roman,serif" font-size="14.00" fill="lightgray">wch</text>
</g>
<!-- n115&#45;&gt;n116 -->
<g id="edge11" class="edge"><title>n115&#45;&gt;n116</title>
</g>
<!-- n116&#45;&gt;n119 -->
<g id="edge6" class="edge"><title>n116&#45;&gt;n119</title>
<path fill="none" stroke="lightgray" d="M59.6955,-162C89.5499,-162 138.538,-162 172.092,-162"/>
<polygon fill="lightgray" stroke="lightgray" points="172.4,-165.5 182.4,-162 172.4,-158.5 172.4,-165.5"/>
<text text-anchor="middle" x="120.994" y="-165.8" font-family="Times New Roman,serif" font-size="14.00" fill="lightgray">wff ch</text>
</g>
<!-- n117 -->
<g id="node9" class="node"><title>n117</title>
<ellipse fill="orange" stroke="black" cx="32.4971" cy="-90" rx="32.4942" ry="18"/>
<text text-anchor="middle" x="32.4971" y="-86.3" font-family="Times New Roman,serif" font-size="14.00">3syl.1</text>
</g>
<!-- n116&#45;&gt;n117 -->
<g id="edge12" class="edge"><title>n116&#45;&gt;n117</title>
</g>
<!-- n117&#45;&gt;n119 -->
<g id="edge7" class="edge"><title>n117&#45;&gt;n119</title>
<path fill="none" stroke="black" d="M58.9428,-100.469C90.0887,-113.284 142.847,-134.991 176.652,-148.9"/>
<polygon fill="black" stroke="black" points="175.491,-152.207 186.07,-152.775 178.154,-145.733 175.491,-152.207"/>
<text text-anchor="middle" x="120.994" y="-144.8" font-family="Times New Roman,serif" font-size="14.00">|&#45; ( ph &#45;&gt; ps )</text>
</g>
<!-- n118 -->
<g id="node10" class="node"><title>n118</title>
<ellipse fill="orange" stroke="black" cx="32.4971" cy="-18" rx="32.4942" ry="18"/>
<text text-anchor="middle" x="32.4971" y="-14.3" font-family="Times New Roman,serif" font-size="14.00">3syl.2</text>
</g>
<!-- n117&#45;&gt;n118 -->
<g id="edge13" class="edge"><title>n117&#45;&gt;n118</title>
</g>
<!-- n118&#45;&gt;n119 -->
<g id="edge8" class="edge"><title>n118&#45;&gt;n119</title>
<path fill="none" stroke="black" d="M58.6006,-29.179C85.4686,-41.9666 128.356,-64.8214 158.994,-93 161.029,-94.8715 177.678,-118.246 191.113,-137.278"/>
<polygon fill="black" stroke="black" points="188.374,-139.467 196.996,-145.624 194.096,-135.434 188.374,-139.467"/>
<text text-anchor="middle" x="120.994" y="-97.8" font-family="Times New Roman,serif" font-size="14.00">|&#45; ( ps &#45;&gt; ch )</text>
</g>
<!-- n120&#45;&gt;n121 -->
<g id="edge14" class="edge"><title>n120&#45;&gt;n121</title>
<path fill="none" stroke="black" d="M235.897,-100.859C263.024,-113.373 306.13,-135.995 335.988,-165 348.657,-177.306 359.397,-193.931 367.095,-207.779"/>
<polygon fill="black" stroke="black" points="364.13,-209.658 371.924,-216.835 370.307,-206.364 364.13,-209.658"/>
<text text-anchor="middle" x="297.988" y="-168.8" font-family="Times New Roman,serif" font-size="14.00">|&#45; ( ch &#45;&gt; th )</text>
</g>
</g>
</svg>
