<?xml version="1.0" encoding="UTF-8" standalone="no"?>
<!DOCTYPE svg PUBLIC "-//W3C//DTD SVG 1.1//EN"
 "http://www.w3.org/Graphics/SVG/1.1/DTD/svg11.dtd">
<!-- Generated by graphviz version 2.38.0 (20140413.2041)
 -->
<!-- Title: proof_a1d Pages: 1 -->
<svg width="632pt" height="363pt"
 viewBox="0.00 0.00 631.59 363.00" xmlns="http://www.w3.org/2000/svg" xmlns:xlink="http://www.w3.org/1999/xlink">
<g id="graph0" class="graph" transform="scale(1 1) rotate(0) translate(4 359)">
<title>proof_a1d</title>
<polygon fill="white" stroke="none" points="-4,4 -4,-359 627.589,-359 627.589,4 -4,4"/>
<!-- n183 -->
<g id="node1" class="node"><title>n183</title>
<ellipse fill="none" stroke="lightgray" cx="157.547" cy="-337" rx="27" ry="18"/>
<text text-anchor="middle" x="157.547" y="-333.3" font-family="Times New Roman,serif" font-size="14.00" fill="lightgray">wph</text>
</g>
<!-- n192 -->
<g id="node2" class="node"><title>n192</title>
<ellipse fill="cyan" stroke="black" cx="376.095" cy="-193" rx="27" ry="18"/>
<text text-anchor="middle" x="376.095" y="-189.3" font-family="Times New Roman,serif" font-size="14.00">syl</text>
</g>
<!-- n183&#45;&gt;n192 -->
<g id="edge1" class="edge"><title>n183&#45;&gt;n192</title>
<path fill="none" stroke="lightgray" d="M183.854,-332.711C220.142,-325.438 287.388,-307.644 331.095,-270 346.552,-256.687 357.796,-236.527 365.047,-220.175"/>
<polygon fill="lightgray" stroke="lightgray" points="368.429,-221.158 369.047,-210.581 361.968,-218.464 368.429,-221.158"/>
<text text-anchor="middle" x="268.595" y="-329.8" font-family="Times New Roman,serif" font-size="14.00" fill="lightgray">wff ph</text>
</g>
<!-- n184 -->
<g id="node3" class="node"><title>n184</title>
<ellipse fill="none" stroke="lightgray" cx="157.547" cy="-265" rx="27" ry="18"/>
<text text-anchor="middle" x="157.547" y="-261.3" font-family="Times New Roman,serif" font-size="14.00" fill="lightgray">wps</text>
</g>
<!-- n183&#45;&gt;n184 -->
<g id="edge13" class="edge"><title>n183&#45;&gt;n184</title>
</g>
<!-- QED -->
<g id="node11" class="node"><title>QED</title>
</g>
<!-- n192&#45;&gt;QED -->
<g id="edge12" class="edge"><title>n192&#45;&gt;QED</title>
<path fill="none" stroke="black" d="M403.179,-193C440.85,-193 510.753,-193 554.505,-193"/>
<polygon fill="black" stroke="black" points="554.761,-196.5 564.761,-193 554.761,-189.5 554.761,-196.5"/>
<text text-anchor="middle" x="484.095" y="-196.8" font-family="Times New Roman,serif" font-size="14.00">|&#45; ( ph &#45;&gt; ( ch &#45;&gt; ps ) )</text>
</g>
<!-- n184&#45;&gt;n192 -->
<g id="edge2" class="edge"><title>n184&#45;&gt;n192</title>
<path fill="none" stroke="lightgray" d="M182.831,-258.449C216.485,-249.166 279.044,-231.167 331.095,-212 335.338,-210.438 339.762,-208.682 344.1,-206.886"/>
<polygon fill="lightgray" stroke="lightgray" points="345.521,-210.085 353.353,-202.949 342.781,-203.644 345.521,-210.085"/>
<text text-anchor="middle" x="268.595" y="-254.8" font-family="Times New Roman,serif" font-size="14.00" fill="lightgray">wff ps</text>
</g>
<!-- n187 -->
<g id="node5" class="node"><title>n187</title>
<ellipse fill="none" stroke="lightgray" cx="157.547" cy="-193" rx="27" ry="18"/>
<text text-anchor="middle" x="157.547" y="-189.3" font-family="Times New Roman,serif" font-size="14.00" fill="lightgray">wi</text>
</g>
<!-- n184&#45;&gt;n187 -->
<g id="edge14" class="edge"><title>n184&#45;&gt;n187</title>
</g>
<!-- n185 -->
<g id="node4" class="node"><title>n185</title>
<ellipse fill="none" stroke="lightgray" cx="27" cy="-225" rx="27" ry="18"/>
<text text-anchor="middle" x="27" y="-221.3" font-family="Times New Roman,serif" font-size="14.00" fill="lightgray">wch</text>
</g>
<!-- n185&#45;&gt;n187 -->
<g id="edge3" class="edge"><title>n185&#45;&gt;n187</title>
<path fill="none" stroke="lightgray" d="M52.4813,-218.906C72.1018,-214.021 99.8784,-207.107 121.8,-201.65"/>
<polygon fill="lightgray" stroke="lightgray" points="122.861,-204.993 131.719,-199.181 121.17,-198.2 122.861,-204.993"/>
<text text-anchor="middle" x="90.5" y="-216.8" font-family="Times New Roman,serif" font-size="14.00" fill="lightgray">wff ch</text>
</g>
<!-- n186 -->
<g id="node6" class="node"><title>n186</title>
<ellipse fill="none" stroke="lightgray" cx="27" cy="-153" rx="27" ry="18"/>
<text text-anchor="middle" x="27" y="-149.3" font-family="Times New Roman,serif" font-size="14.00" fill="lightgray">wps</text>
</g>
<!-- n185&#45;&gt;n186 -->
<g id="edge6" class="edge"><title>n185&#45;&gt;n186</title>
</g>
<!-- n187&#45;&gt;n192 -->
<g id="edge5" class="edge"><title>n187&#45;&gt;n192</title>
<path fill="none" stroke="lightgray" d="M184.668,-193C223.119,-193 295.103,-193 338.709,-193"/>
<polygon fill="lightgray" stroke="lightgray" points="338.881,-196.5 348.881,-193 338.881,-189.5 338.881,-196.5"/>
<text text-anchor="middle" x="268.595" y="-196.8" font-family="Times New Roman,serif" font-size="14.00" fill="lightgray">wff ( ch &#45;&gt; ps )</text>
</g>
<!-- n188 -->
<g id="node7" class="node"><title>n188</title>
<ellipse fill="orange" stroke="black" cx="157.547" cy="-121" rx="30.5947" ry="18"/>
<text text-anchor="middle" x="157.547" y="-117.3" font-family="Times New Roman,serif" font-size="14.00">a1d.1</text>
</g>
<!-- n187&#45;&gt;n188 -->
<g id="edge15" class="edge"><title>n187&#45;&gt;n188</title>
</g>
<!-- n186&#45;&gt;n187 -->
<g id="edge4" class="edge"><title>n186&#45;&gt;n187</title>
<path fill="none" stroke="lightgray" d="M51.8775,-160.43C71.9001,-166.66 100.718,-175.628 123.049,-182.576"/>
<polygon fill="lightgray" stroke="lightgray" points="122.209,-185.981 132.798,-185.61 124.289,-179.297 122.209,-185.981"/>
<text text-anchor="middle" x="90.5" y="-180.8" font-family="Times New Roman,serif" font-size="14.00" fill="lightgray">wff ps</text>
</g>
<!-- n188&#45;&gt;n192 -->
<g id="edge7" class="edge"><title>n188&#45;&gt;n192</title>
<path fill="none" stroke="black" d="M185.751,-128.358C220.011,-137.852 280.514,-155.375 331.095,-174 335.338,-175.562 339.762,-177.318 344.1,-179.114"/>
<polygon fill="black" stroke="black" points="342.781,-182.356 353.353,-183.051 345.521,-175.915 342.781,-182.356"/>
<text text-anchor="middle" x="268.595" y="-177.8" font-family="Times New Roman,serif" font-size="14.00">|&#45; ( ph &#45;&gt; ps )</text>
</g>
<!-- n191 -->
<g id="node9" class="node"><title>n191</title>
<ellipse fill="lawngreen" stroke="black" cx="157.547" cy="-49" rx="27" ry="18"/>
<text text-anchor="middle" x="157.547" y="-45.3" font-family="Times New Roman,serif" font-size="14.00">ax&#45;1</text>
</g>
<!-- n188&#45;&gt;n191 -->
<g id="edge16" class="edge"><title>n188&#45;&gt;n191</title>
</g>
<!-- n189 -->
<g id="node8" class="node"><title>n189</title>
<ellipse fill="none" stroke="lightgray" cx="27" cy="-90" rx="27" ry="18"/>
<text text-anchor="middle" x="27" y="-86.3" font-family="Times New Roman,serif" font-size="14.00" fill="lightgray">wps</text>
</g>
<!-- n189&#45;&gt;n191 -->
<g id="edge8" class="edge"><title>n189&#45;&gt;n191</title>
<path fill="none" stroke="lightgray" d="M51.5776,-82.48C71.5655,-76.1049 100.473,-66.8847 122.894,-59.7336"/>
<polygon fill="lightgray" stroke="lightgray" points="124.22,-62.9844 132.684,-56.6112 122.093,-56.3154 124.22,-62.9844"/>
<text text-anchor="middle" x="90.5" y="-79.8" font-family="Times New Roman,serif" font-size="14.00" fill="lightgray">wff ps</text>
</g>
<!-- n190 -->
<g id="node10" class="node"><title>n190</title>
<ellipse fill="none" stroke="lightgray" cx="27" cy="-18" rx="27" ry="18"/>
<text text-anchor="middle" x="27" y="-14.3" font-family="Times New Roman,serif" font-size="14.00" fill="lightgray">wch</text>
</g>
<!-- n189&#45;&gt;n190 -->
<g id="edge11" class="edge"><title>n189&#45;&gt;n190</title>
</g>
<!-- n191&#45;&gt;n192 -->
<g id="edge10" class="edge"><title>n191&#45;&gt;n192</title>
<path fill="none" stroke="black" d="M183.854,-53.2886C220.142,-60.5619 287.388,-78.3561 331.095,-116 346.552,-129.313 357.796,-149.473 365.047,-165.825"/>
<polygon fill="black" stroke="black" points="361.968,-167.536 369.047,-175.419 368.429,-164.842 361.968,-167.536"/>
<text text-anchor="middle" x="268.595" y="-119.8" font-family="Times New Roman,serif" font-size="14.00">|&#45; ( ps &#45;&gt; ( ch &#45;&gt; ps ) )</text>
</g>
<!-- n190&#45;&gt;n191 -->
<g id="edge9" class="edge"><title>n190&#45;&gt;n191</title>
<path fill="none" stroke="lightgray" d="M52.888,-23.2059C68.9481,-26.6452 90.2627,-31.3594 109,-36 113.418,-37.0942 118.053,-38.2949 122.623,-39.5106"/>
<polygon fill="lightgray" stroke="lightgray" points="121.851,-42.9273 132.418,-42.1604 123.679,-36.1702 121.851,-42.9273"/>
<text text-anchor="middle" x="90.5" y="-39.8" font-family="Times New Roman,serif" font-size="14.00" fill="lightgray">wff ch</text>
</g>
</g>
</svg>
