<?xml version="1.0" encoding="UTF-8" standalone="no"?>
<!DOCTYPE svg PUBLIC "-//W3C//DTD SVG 1.1//EN"
 "http://www.w3.org/Graphics/SVG/1.1/DTD/svg11.dtd">
<!-- Generated by graphviz version 2.38.0 (20140413.2041)
 -->
<!-- Title: proof_ad6antlr Pages: 1 -->
<svg width="1997pt" height="802pt"
 viewBox="0.00 0.00 1997.27 802.00" xmlns="http://www.w3.org/2000/svg" xmlns:xlink="http://www.w3.org/1999/xlink">
<g id="graph0" class="graph" transform="scale(1 1) rotate(0) translate(4 798)">
<title>proof_ad6antlr</title>
<polygon fill="white" stroke="none" points="-4,4 -4,-798 1993.27,-798 1993.27,4 -4,4"/>
<!-- n12446 -->
<g id="node1" class="node"><title>n12446</title>
<ellipse fill="none" stroke="lightgray" cx="27" cy="-776" rx="27" ry="18"/>
<text text-anchor="middle" x="27" y="-772.3" font-family="Times New Roman,serif" font-size="14.00" fill="lightgray">wch</text>
</g>
<!-- n12448 -->
<g id="node2" class="node"><title>n12448</title>
<ellipse fill="none" stroke="lightgray" cx="154" cy="-744" rx="27" ry="18"/>
<text text-anchor="middle" x="154" y="-740.3" font-family="Times New Roman,serif" font-size="14.00" fill="lightgray">wa</text>
</g>
<!-- n12446&#45;&gt;n12448 -->
<g id="edge1" class="edge"><title>n12446&#45;&gt;n12448</title>
<path fill="none" stroke="lightgray" d="M52.398,-769.754C71.326,-764.909 97.7933,-758.133 118.83,-752.748"/>
<polygon fill="lightgray" stroke="lightgray" points="119.844,-756.101 128.664,-750.23 118.108,-749.32 119.844,-756.101"/>
<text text-anchor="middle" x="90.5" y="-767.8" font-family="Times New Roman,serif" font-size="14.00" fill="lightgray">wff ch</text>
</g>
<!-- n12447 -->
<g id="node3" class="node"><title>n12447</title>
<ellipse fill="none" stroke="lightgray" cx="27" cy="-704" rx="27" ry="18"/>
<text text-anchor="middle" x="27" y="-700.3" font-family="Times New Roman,serif" font-size="14.00" fill="lightgray">wph</text>
</g>
<!-- n12446&#45;&gt;n12447 -->
<g id="edge4" class="edge"><title>n12446&#45;&gt;n12447</title>
</g>
<!-- n12450 -->
<g id="node4" class="node"><title>n12450</title>
<ellipse fill="none" stroke="lightgray" cx="326" cy="-712" rx="27" ry="18"/>
<text text-anchor="middle" x="326" y="-708.3" font-family="Times New Roman,serif" font-size="14.00" fill="lightgray">wa</text>
</g>
<!-- n12448&#45;&gt;n12450 -->
<g id="edge3" class="edge"><title>n12448&#45;&gt;n12450</title>
<path fill="none" stroke="lightgray" d="M180.084,-739.278C209.087,-733.819 257.024,-724.795 289.761,-718.633"/>
<polygon fill="lightgray" stroke="lightgray" points="290.633,-722.031 299.813,-716.741 289.338,-715.151 290.633,-722.031"/>
<text text-anchor="middle" x="240" y="-738.8" font-family="Times New Roman,serif" font-size="14.00" fill="lightgray">wff ( ch /\ ph )</text>
</g>
<!-- n12449 -->
<g id="node5" class="node"><title>n12449</title>
<ellipse fill="none" stroke="lightgray" cx="154" cy="-672" rx="27" ry="18"/>
<text text-anchor="middle" x="154" y="-668.3" font-family="Times New Roman,serif" font-size="14.00" fill="lightgray">wth</text>
</g>
<!-- n12448&#45;&gt;n12449 -->
<g id="edge7" class="edge"><title>n12448&#45;&gt;n12449</title>
</g>
<!-- n12447&#45;&gt;n12448 -->
<g id="edge2" class="edge"><title>n12447&#45;&gt;n12448</title>
<path fill="none" stroke="lightgray" d="M51.8058,-711.618C71.0071,-717.762 98.2415,-726.477 119.621,-733.319"/>
<polygon fill="lightgray" stroke="lightgray" points="118.692,-736.696 129.283,-736.411 120.825,-730.029 118.692,-736.696"/>
<text text-anchor="middle" x="90.5" y="-732.8" font-family="Times New Roman,serif" font-size="14.00" fill="lightgray">wff ph</text>
</g>
<!-- n12452 -->
<g id="node6" class="node"><title>n12452</title>
<ellipse fill="none" stroke="lightgray" cx="540" cy="-680" rx="27" ry="18"/>
<text text-anchor="middle" x="540" y="-676.3" font-family="Times New Roman,serif" font-size="14.00" fill="lightgray">wa</text>
</g>
<!-- n12450&#45;&gt;n12452 -->
<g id="edge6" class="edge"><title>n12450&#45;&gt;n12452</title>
<path fill="none" stroke="lightgray" d="M352.572,-708.14C390.216,-702.458 460.688,-691.821 503.378,-685.377"/>
<polygon fill="lightgray" stroke="lightgray" points="503.972,-688.827 513.337,-683.874 502.927,-681.905 503.972,-688.827"/>
<text text-anchor="middle" x="433" y="-708.8" font-family="Times New Roman,serif" font-size="14.00" fill="lightgray">wff ( ( ch /\ ph ) /\ th )</text>
</g>
<!-- n12451 -->
<g id="node7" class="node"><title>n12451</title>
<ellipse fill="none" stroke="lightgray" cx="326" cy="-640" rx="27" ry="18"/>
<text text-anchor="middle" x="326" y="-636.3" font-family="Times New Roman,serif" font-size="14.00" fill="lightgray">wta</text>
</g>
<!-- n12450&#45;&gt;n12451 -->
<g id="edge10" class="edge"><title>n12450&#45;&gt;n12451</title>
</g>
<!-- n12449&#45;&gt;n12450 -->
<g id="edge5" class="edge"><title>n12449&#45;&gt;n12450</title>
<path fill="none" stroke="lightgray" d="M180.134,-677.639C205.589,-683.384 246.077,-692.617 281,-701 284.041,-701.73 287.198,-702.498 290.361,-703.275"/>
<polygon fill="lightgray" stroke="lightgray" points="289.804,-706.743 300.352,-705.752 291.488,-699.949 289.804,-706.743"/>
<text text-anchor="middle" x="240" y="-704.8" font-family="Times New Roman,serif" font-size="14.00" fill="lightgray">wff th</text>
</g>
<!-- n12454 -->
<g id="node8" class="node"><title>n12454</title>
<ellipse fill="none" stroke="lightgray" cx="810.596" cy="-648" rx="27" ry="18"/>
<text text-anchor="middle" x="810.596" y="-644.3" font-family="Times New Roman,serif" font-size="14.00" fill="lightgray">wa</text>
</g>
<!-- n12452&#45;&gt;n12454 -->
<g id="edge9" class="edge"><title>n12452&#45;&gt;n12454</title>
<path fill="none" stroke="lightgray" d="M566.754,-676.932C614.985,-671.186 719.005,-658.793 773.939,-652.248"/>
<polygon fill="lightgray" stroke="lightgray" points="774.404,-655.718 783.92,-651.059 773.576,-648.767 774.404,-655.718"/>
<text text-anchor="middle" x="668" y="-677.8" font-family="Times New Roman,serif" font-size="14.00" fill="lightgray">wff ( ( ( ch /\ ph ) /\ th ) /\ ta )</text>
</g>
<!-- n12453 -->
<g id="node9" class="node"><title>n12453</title>
<ellipse fill="none" stroke="lightgray" cx="540" cy="-608" rx="27" ry="18"/>
<text text-anchor="middle" x="540" y="-604.3" font-family="Times New Roman,serif" font-size="14.00" fill="lightgray">wet</text>
</g>
<!-- n12452&#45;&gt;n12453 -->
<g id="edge13" class="edge"><title>n12452&#45;&gt;n12453</title>
</g>
<!-- n12451&#45;&gt;n12452 -->
<g id="edge8" class="edge"><title>n12451&#45;&gt;n12452</title>
<path fill="none" stroke="lightgray" d="M352.812,-643.105C385.962,-647.331 445.163,-655.682 495,-667 498.444,-667.782 502.016,-668.684 505.567,-669.639"/>
<polygon fill="lightgray" stroke="lightgray" points="504.823,-673.066 515.398,-672.423 506.729,-666.331 504.823,-673.066"/>
<text text-anchor="middle" x="433" y="-670.8" font-family="Times New Roman,serif" font-size="14.00" fill="lightgray">wff ta</text>
</g>
<!-- n12456 -->
<g id="node10" class="node"><title>n12456</title>
<ellipse fill="none" stroke="lightgray" cx="1134.84" cy="-546" rx="27" ry="18"/>
<text text-anchor="middle" x="1134.84" y="-542.3" font-family="Times New Roman,serif" font-size="14.00" fill="lightgray">wa</text>
</g>
<!-- n12454&#45;&gt;n12456 -->
<g id="edge12" class="edge"><title>n12454&#45;&gt;n12456</title>
<path fill="none" stroke="lightgray" d="M837.667,-645.931C886.652,-641.253 994.908,-627.131 1077.19,-589 1088.98,-583.539 1100.64,-575.307 1110.29,-567.501"/>
<polygon fill="lightgray" stroke="lightgray" points="1112.82,-569.952 1118.21,-560.833 1108.31,-564.598 1112.82,-569.952"/>
<text text-anchor="middle" x="973.693" y="-644.8" font-family="Times New Roman,serif" font-size="14.00" fill="lightgray">wff ( ( ( ( ch /\ ph ) /\ th ) /\ ta ) /\ et )</text>
</g>
<!-- n12455 -->
<g id="node11" class="node"><title>n12455</title>
<ellipse fill="none" stroke="lightgray" cx="810.596" cy="-576" rx="27" ry="18"/>
<text text-anchor="middle" x="810.596" y="-572.3" font-family="Times New Roman,serif" font-size="14.00" fill="lightgray">wze</text>
</g>
<!-- n12454&#45;&gt;n12455 -->
<g id="edge16" class="edge"><title>n12454&#45;&gt;n12455</title>
</g>
<!-- n12453&#45;&gt;n12454 -->
<g id="edge11" class="edge"><title>n12453&#45;&gt;n12454</title>
<path fill="none" stroke="lightgray" d="M566.951,-610.872C606.699,-615.404 684.993,-624.855 751,-636 758.76,-637.31 767.061,-638.897 774.903,-640.48"/>
<polygon fill="lightgray" stroke="lightgray" points="774.361,-643.942 784.863,-642.538 775.777,-637.087 774.361,-643.942"/>
<text text-anchor="middle" x="668" y="-639.8" font-family="Times New Roman,serif" font-size="14.00" fill="lightgray">wff et</text>
</g>
<!-- n12468 -->
<g id="node12" class="node"><title>n12468</title>
<ellipse fill="cyan" stroke="black" cx="1532.63" cy="-434" rx="33.2948" ry="18"/>
<text text-anchor="middle" x="1532.63" y="-430.3" font-family="Times New Roman,serif" font-size="14.00">adantr</text>
</g>
<!-- n12456&#45;&gt;n12468 -->
<g id="edge15" class="edge"><title>n12456&#45;&gt;n12468</title>
<path fill="none" stroke="lightgray" d="M1161.84,-546.659C1221.83,-547.106 1373.09,-542.021 1481.49,-485 1493.51,-478.677 1504.41,-468.448 1512.95,-458.804"/>
<polygon fill="lightgray" stroke="lightgray" points="1515.81,-460.85 1519.55,-450.939 1510.44,-456.351 1515.81,-460.85"/>
<text text-anchor="middle" x="1336.99" y="-549.8" font-family="Times New Roman,serif" font-size="14.00" fill="lightgray">wff ( ( ( ( ( ch /\ ph ) /\ th ) /\ ta ) /\ et ) /\ ze )</text>
</g>
<!-- n12457 -->
<g id="node13" class="node"><title>n12457</title>
<ellipse fill="none" stroke="lightgray" cx="1134.84" cy="-471" rx="27" ry="18"/>
<text text-anchor="middle" x="1134.84" y="-467.3" font-family="Times New Roman,serif" font-size="14.00" fill="lightgray">wps</text>
</g>
<!-- n12456&#45;&gt;n12457 -->
<g id="edge36" class="edge"><title>n12456&#45;&gt;n12457</title>
</g>
<!-- n12455&#45;&gt;n12456 -->
<g id="edge14" class="edge"><title>n12455&#45;&gt;n12456</title>
<path fill="none" stroke="lightgray" d="M837.422,-573.596C894.577,-568.275 1031.89,-555.491 1097.61,-549.373"/>
<polygon fill="lightgray" stroke="lightgray" points="1098.26,-552.828 1107.89,-548.416 1097.61,-545.858 1098.26,-552.828"/>
<text text-anchor="middle" x="973.693" y="-573.8" font-family="Times New Roman,serif" font-size="14.00" fill="lightgray">wff ze</text>
</g>
<!-- QED -->
<g id="node24" class="node"><title>QED</title>
</g>
<!-- n12468&#45;&gt;QED -->
<g id="edge35" class="edge"><title>n12468&#45;&gt;QED</title>
<path fill="none" stroke="black" d="M1565.96,-434C1643.12,-434 1837.82,-434 1920.71,-434"/>
<polygon fill="black" stroke="black" points="1920.71,-437.5 1930.71,-434 1920.71,-430.5 1920.71,-437.5"/>
<text text-anchor="middle" x="1748.28" y="-437.8" font-family="Times New Roman,serif" font-size="14.00">|&#45; ( ( ( ( ( ( ( ch /\ ph ) /\ th ) /\ ta ) /\ et ) /\ ze ) /\ si ) &#45;&gt; ps )</text>
</g>
<!-- n12457&#45;&gt;n12468 -->
<g id="edge17" class="edge"><title>n12457&#45;&gt;n12468</title>
<path fill="none" stroke="lightgray" d="M1161.88,-468.93C1219.52,-464.289 1362.24,-452.478 1481.49,-440 1484.31,-439.705 1487.21,-439.388 1490.14,-439.061"/>
<polygon fill="lightgray" stroke="lightgray" points="1490.55,-442.538 1500.08,-437.919 1489.75,-435.583 1490.55,-442.538"/>
<text text-anchor="middle" x="1336.99" y="-469.8" font-family="Times New Roman,serif" font-size="14.00" fill="lightgray">wff ps</text>
</g>
<!-- n12458 -->
<g id="node14" class="node"><title>n12458</title>
<ellipse fill="none" stroke="lightgray" cx="1134.84" cy="-399" rx="27" ry="18"/>
<text text-anchor="middle" x="1134.84" y="-395.3" font-family="Times New Roman,serif" font-size="14.00" fill="lightgray">wsi</text>
</g>
<!-- n12457&#45;&gt;n12458 -->
<g id="edge37" class="edge"><title>n12457&#45;&gt;n12458</title>
</g>
<!-- n12458&#45;&gt;n12468 -->
<g id="edge18" class="edge"><title>n12458&#45;&gt;n12468</title>
<path fill="none" stroke="lightgray" d="M1161.95,-400.049C1219.72,-402.57 1362.69,-409.912 1481.49,-425 1484.69,-425.407 1488,-425.881 1491.32,-426.394"/>
<polygon fill="lightgray" stroke="lightgray" points="1490.78,-429.852 1501.21,-428.025 1491.92,-422.945 1490.78,-429.852"/>
<text text-anchor="middle" x="1336.99" y="-428.8" font-family="Times New Roman,serif" font-size="14.00" fill="lightgray">wff si</text>
</g>
<!-- n12467 -->
<g id="node16" class="node"><title>n12467</title>
<ellipse fill="cyan" stroke="black" cx="1134.84" cy="-321" rx="39.7935" ry="18"/>
<text text-anchor="middle" x="1134.84" y="-317.3" font-family="Times New Roman,serif" font-size="14.00">ad5antlr</text>
</g>
<!-- n12458&#45;&gt;n12467 -->
<g id="edge38" class="edge"><title>n12458&#45;&gt;n12467</title>
</g>
<!-- n12459 -->
<g id="node15" class="node"><title>n12459</title>
<ellipse fill="none" stroke="lightgray" cx="810.596" cy="-522" rx="27" ry="18"/>
<text text-anchor="middle" x="810.596" y="-518.3" font-family="Times New Roman,serif" font-size="14.00" fill="lightgray">wph</text>
</g>
<!-- n12459&#45;&gt;n12467 -->
<g id="edge19" class="edge"><title>n12459&#45;&gt;n12467</title>
<path fill="none" stroke="lightgray" d="M837.457,-525.04C890.557,-529.712 1012.33,-532.084 1077.19,-466 1106.99,-435.643 1077.89,-410.86 1095.19,-372 1099.35,-362.66 1105.51,-353.444 1111.7,-345.47"/>
<polygon fill="lightgray" stroke="lightgray" points="1114.47,-347.618 1118.08,-337.657 1109.04,-343.192 1114.47,-347.618"/>
<text text-anchor="middle" x="973.693" y="-530.8" font-family="Times New Roman,serif" font-size="14.00" fill="lightgray">wff ph</text>
</g>
<!-- n12460 -->
<g id="node17" class="node"><title>n12460</title>
<ellipse fill="none" stroke="lightgray" cx="810.596" cy="-450" rx="27" ry="18"/>
<text text-anchor="middle" x="810.596" y="-446.3" font-family="Times New Roman,serif" font-size="14.00" fill="lightgray">wps</text>
</g>
<!-- n12459&#45;&gt;n12460 -->
<g id="edge28" class="edge"><title>n12459&#45;&gt;n12460</title>
</g>
<!-- n12467&#45;&gt;n12468 -->
<g id="edge27" class="edge"><title>n12467&#45;&gt;n12468</title>
<path fill="none" stroke="black" d="M1174.64,-320.232C1241.35,-320.508 1380.36,-328.176 1481.49,-382 1493.89,-388.603 1505.04,-399.387 1513.66,-409.428"/>
<polygon fill="black" stroke="black" points="1510.98,-411.679 1520.01,-417.227 1516.41,-407.261 1510.98,-411.679"/>
<text text-anchor="middle" x="1336.99" y="-385.8" font-family="Times New Roman,serif" font-size="14.00">|&#45; ( ( ( ( ( ( ch /\ ph ) /\ th ) /\ ta ) /\ et ) /\ ze ) &#45;&gt; ps )</text>
</g>
<!-- n12460&#45;&gt;n12467 -->
<g id="edge20" class="edge"><title>n12460&#45;&gt;n12467</title>
<path fill="none" stroke="lightgray" d="M837.827,-449.591C888.017,-447.681 999.545,-437.905 1077.19,-390 1082.05,-387.001 1100.1,-364.574 1114.54,-346.089"/>
<polygon fill="lightgray" stroke="lightgray" points="1117.48,-348.002 1120.85,-337.958 1111.95,-343.707 1117.48,-348.002"/>
<text text-anchor="middle" x="973.693" y="-450.8" font-family="Times New Roman,serif" font-size="14.00" fill="lightgray">wff ps</text>
</g>
<!-- n12461 -->
<g id="node18" class="node"><title>n12461</title>
<ellipse fill="none" stroke="lightgray" cx="810.596" cy="-378" rx="27" ry="18"/>
<text text-anchor="middle" x="810.596" y="-374.3" font-family="Times New Roman,serif" font-size="14.00" fill="lightgray">wch</text>
</g>
<!-- n12460&#45;&gt;n12461 -->
<g id="edge29" class="edge"><title>n12460&#45;&gt;n12461</title>
</g>
<!-- n12461&#45;&gt;n12467 -->
<g id="edge21" class="edge"><title>n12461&#45;&gt;n12467</title>
<path fill="none" stroke="lightgray" d="M837.461,-375.341C885.214,-370.159 990.285,-357.481 1077.19,-338 1082.2,-336.878 1087.41,-335.546 1092.55,-334.129"/>
<polygon fill="lightgray" stroke="lightgray" points="1093.65,-337.457 1102.29,-331.332 1091.71,-330.729 1093.65,-337.457"/>
<text text-anchor="middle" x="973.693" y="-374.8" font-family="Times New Roman,serif" font-size="14.00" fill="lightgray">wff ch</text>
</g>
<!-- n12462 -->
<g id="node19" class="node"><title>n12462</title>
<ellipse fill="none" stroke="lightgray" cx="810.596" cy="-306" rx="27" ry="18"/>
<text text-anchor="middle" x="810.596" y="-302.3" font-family="Times New Roman,serif" font-size="14.00" fill="lightgray">wth</text>
</g>
<!-- n12461&#45;&gt;n12462 -->
<g id="edge30" class="edge"><title>n12461&#45;&gt;n12462</title>
</g>
<!-- n12462&#45;&gt;n12467 -->
<g id="edge22" class="edge"><title>n12462&#45;&gt;n12467</title>
<path fill="none" stroke="lightgray" d="M837.694,-307.215C891.566,-309.722 1015.81,-315.506 1085.03,-318.728"/>
<polygon fill="lightgray" stroke="lightgray" points="1085.09,-322.234 1095.24,-319.203 1085.41,-315.242 1085.09,-322.234"/>
<text text-anchor="middle" x="973.693" y="-322.8" font-family="Times New Roman,serif" font-size="14.00" fill="lightgray">wff th</text>
</g>
<!-- n12463 -->
<g id="node20" class="node"><title>n12463</title>
<ellipse fill="none" stroke="lightgray" cx="810.596" cy="-234" rx="27" ry="18"/>
<text text-anchor="middle" x="810.596" y="-230.3" font-family="Times New Roman,serif" font-size="14.00" fill="lightgray">wta</text>
</g>
<!-- n12462&#45;&gt;n12463 -->
<g id="edge31" class="edge"><title>n12462&#45;&gt;n12463</title>
</g>
<!-- n12463&#45;&gt;n12467 -->
<g id="edge23" class="edge"><title>n12463&#45;&gt;n12467</title>
<path fill="none" stroke="lightgray" d="M837.562,-236.911C885.922,-242.889 992.554,-258.694 1077.19,-290 1085.51,-293.075 1094.09,-297.207 1101.98,-301.451"/>
<polygon fill="lightgray" stroke="lightgray" points="1100.43,-304.596 1110.87,-306.426 1103.85,-298.488 1100.43,-304.596"/>
<text text-anchor="middle" x="973.693" y="-293.8" font-family="Times New Roman,serif" font-size="14.00" fill="lightgray">wff ta</text>
</g>
<!-- n12464 -->
<g id="node21" class="node"><title>n12464</title>
<ellipse fill="none" stroke="lightgray" cx="810.596" cy="-162" rx="27" ry="18"/>
<text text-anchor="middle" x="810.596" y="-158.3" font-family="Times New Roman,serif" font-size="14.00" fill="lightgray">wet</text>
</g>
<!-- n12463&#45;&gt;n12464 -->
<g id="edge32" class="edge"><title>n12463&#45;&gt;n12464</title>
</g>
<!-- n12464&#45;&gt;n12467 -->
<g id="edge24" class="edge"><title>n12464&#45;&gt;n12467</title>
<path fill="none" stroke="lightgray" d="M837.37,-165.266C896.32,-173.149 1038.85,-194.679 1077.19,-223 1100.91,-240.517 1116.28,-271.159 1124.95,-293.527"/>
<polygon fill="lightgray" stroke="lightgray" points="1121.74,-294.954 1128.46,-303.145 1128.31,-292.552 1121.74,-294.954"/>
<text text-anchor="middle" x="973.693" y="-226.8" font-family="Times New Roman,serif" font-size="14.00" fill="lightgray">wff et</text>
</g>
<!-- n12465 -->
<g id="node22" class="node"><title>n12465</title>
<ellipse fill="none" stroke="lightgray" cx="810.596" cy="-90" rx="27" ry="18"/>
<text text-anchor="middle" x="810.596" y="-86.3" font-family="Times New Roman,serif" font-size="14.00" fill="lightgray">wze</text>
</g>
<!-- n12464&#45;&gt;n12465 -->
<g id="edge33" class="edge"><title>n12464&#45;&gt;n12465</title>
</g>
<!-- n12465&#45;&gt;n12467 -->
<g id="edge25" class="edge"><title>n12465&#45;&gt;n12467</title>
<path fill="none" stroke="lightgray" d="M837.615,-88.312C889.939,-86.3926 1008.73,-89.694 1077.19,-152 1117.5,-188.681 1129.16,-254.876 1132.51,-292.617"/>
<polygon fill="lightgray" stroke="lightgray" points="1129.04,-293.194 1133.28,-302.906 1136.02,-292.672 1129.04,-293.194"/>
<text text-anchor="middle" x="973.693" y="-155.8" font-family="Times New Roman,serif" font-size="14.00" fill="lightgray">wff ze</text>
</g>
<!-- n12466 -->
<g id="node23" class="node"><title>n12466</title>
<ellipse fill="orange" stroke="black" cx="810.596" cy="-18" rx="41.6928" ry="18"/>
<text text-anchor="middle" x="810.596" y="-14.3" font-family="Times New Roman,serif" font-size="14.00">ad2ant.1</text>
</g>
<!-- n12465&#45;&gt;n12466 -->
<g id="edge34" class="edge"><title>n12465&#45;&gt;n12466</title>
</g>
<!-- n12466&#45;&gt;n12467 -->
<g id="edge26" class="edge"><title>n12466&#45;&gt;n12467</title>
<path fill="none" stroke="black" d="M850.924,-13.5132C908.686,-9.27777 1016.2,-10.7313 1077.19,-70 1108.86,-100.774 1125.4,-233.706 1131.29,-292.66"/>
<polygon fill="black" stroke="black" points="1127.82,-293.15 1132.27,-302.766 1134.79,-292.476 1127.82,-293.15"/>
<text text-anchor="middle" x="973.693" y="-73.8" font-family="Times New Roman,serif" font-size="14.00">|&#45; ( ph &#45;&gt; ps )</text>
</g>
</g>
</svg>
