<?xml version="1.0" encoding="UTF-8" standalone="no"?>
<!DOCTYPE svg PUBLIC "-//W3C//DTD SVG 1.1//EN"
 "http://www.w3.org/Graphics/SVG/1.1/DTD/svg11.dtd">
<!-- Generated by graphviz version 2.38.0 (20140413.2041)
 -->
<!-- Title: proof_ad7antr Pages: 1 -->
<svg width="2416pt" height="906pt"
 viewBox="0.00 0.00 2416.37 906.00" xmlns="http://www.w3.org/2000/svg" xmlns:xlink="http://www.w3.org/1999/xlink">
<g id="graph0" class="graph" transform="scale(1 1) rotate(0) translate(4 902)">
<title>proof_ad7antr</title>
<polygon fill="white" stroke="none" points="-4,4 -4,-902 2412.37,-902 2412.37,4 -4,4"/>
<!-- n12469 -->
<g id="node1" class="node"><title>n12469</title>
<ellipse fill="none" stroke="lightgray" cx="27" cy="-880" rx="27" ry="18"/>
<text text-anchor="middle" x="27" y="-876.3" font-family="Times New Roman,serif" font-size="14.00" fill="lightgray">wph</text>
</g>
<!-- n12471 -->
<g id="node2" class="node"><title>n12471</title>
<ellipse fill="none" stroke="lightgray" cx="154" cy="-848" rx="27" ry="18"/>
<text text-anchor="middle" x="154" y="-844.3" font-family="Times New Roman,serif" font-size="14.00" fill="lightgray">wa</text>
</g>
<!-- n12469&#45;&gt;n12471 -->
<g id="edge1" class="edge"><title>n12469&#45;&gt;n12471</title>
<path fill="none" stroke="lightgray" d="M52.398,-873.754C71.326,-868.909 97.7933,-862.133 118.83,-856.748"/>
<polygon fill="lightgray" stroke="lightgray" points="119.844,-860.101 128.664,-854.23 118.108,-853.32 119.844,-860.101"/>
<text text-anchor="middle" x="90.5" y="-871.8" font-family="Times New Roman,serif" font-size="14.00" fill="lightgray">wff ph</text>
</g>
<!-- n12470 -->
<g id="node3" class="node"><title>n12470</title>
<ellipse fill="none" stroke="lightgray" cx="27" cy="-808" rx="27" ry="18"/>
<text text-anchor="middle" x="27" y="-804.3" font-family="Times New Roman,serif" font-size="14.00" fill="lightgray">wch</text>
</g>
<!-- n12469&#45;&gt;n12470 -->
<g id="edge4" class="edge"><title>n12469&#45;&gt;n12470</title>
</g>
<!-- n12473 -->
<g id="node4" class="node"><title>n12473</title>
<ellipse fill="none" stroke="lightgray" cx="326" cy="-816" rx="27" ry="18"/>
<text text-anchor="middle" x="326" y="-812.3" font-family="Times New Roman,serif" font-size="14.00" fill="lightgray">wa</text>
</g>
<!-- n12471&#45;&gt;n12473 -->
<g id="edge3" class="edge"><title>n12471&#45;&gt;n12473</title>
<path fill="none" stroke="lightgray" d="M180.084,-843.278C209.087,-837.819 257.024,-828.795 289.761,-822.633"/>
<polygon fill="lightgray" stroke="lightgray" points="290.633,-826.031 299.813,-820.741 289.338,-819.151 290.633,-826.031"/>
<text text-anchor="middle" x="240" y="-842.8" font-family="Times New Roman,serif" font-size="14.00" fill="lightgray">wff ( ph /\ ch )</text>
</g>
<!-- n12472 -->
<g id="node5" class="node"><title>n12472</title>
<ellipse fill="none" stroke="lightgray" cx="154" cy="-776" rx="27" ry="18"/>
<text text-anchor="middle" x="154" y="-772.3" font-family="Times New Roman,serif" font-size="14.00" fill="lightgray">wth</text>
</g>
<!-- n12471&#45;&gt;n12472 -->
<g id="edge7" class="edge"><title>n12471&#45;&gt;n12472</title>
</g>
<!-- n12470&#45;&gt;n12471 -->
<g id="edge2" class="edge"><title>n12470&#45;&gt;n12471</title>
<path fill="none" stroke="lightgray" d="M51.8058,-815.618C71.0071,-821.762 98.2415,-830.477 119.621,-837.319"/>
<polygon fill="lightgray" stroke="lightgray" points="118.692,-840.696 129.283,-840.411 120.825,-834.029 118.692,-840.696"/>
<text text-anchor="middle" x="90.5" y="-836.8" font-family="Times New Roman,serif" font-size="14.00" fill="lightgray">wff ch</text>
</g>
<!-- n12475 -->
<g id="node6" class="node"><title>n12475</title>
<ellipse fill="none" stroke="lightgray" cx="540" cy="-784" rx="27" ry="18"/>
<text text-anchor="middle" x="540" y="-780.3" font-family="Times New Roman,serif" font-size="14.00" fill="lightgray">wa</text>
</g>
<!-- n12473&#45;&gt;n12475 -->
<g id="edge6" class="edge"><title>n12473&#45;&gt;n12475</title>
<path fill="none" stroke="lightgray" d="M352.572,-812.14C390.216,-806.458 460.688,-795.821 503.378,-789.377"/>
<polygon fill="lightgray" stroke="lightgray" points="503.972,-792.827 513.337,-787.874 502.927,-785.905 503.972,-792.827"/>
<text text-anchor="middle" x="433" y="-812.8" font-family="Times New Roman,serif" font-size="14.00" fill="lightgray">wff ( ( ph /\ ch ) /\ th )</text>
</g>
<!-- n12474 -->
<g id="node7" class="node"><title>n12474</title>
<ellipse fill="none" stroke="lightgray" cx="326" cy="-744" rx="27" ry="18"/>
<text text-anchor="middle" x="326" y="-740.3" font-family="Times New Roman,serif" font-size="14.00" fill="lightgray">wta</text>
</g>
<!-- n12473&#45;&gt;n12474 -->
<g id="edge10" class="edge"><title>n12473&#45;&gt;n12474</title>
</g>
<!-- n12472&#45;&gt;n12473 -->
<g id="edge5" class="edge"><title>n12472&#45;&gt;n12473</title>
<path fill="none" stroke="lightgray" d="M180.134,-781.639C205.589,-787.384 246.077,-796.617 281,-805 284.041,-805.73 287.198,-806.498 290.361,-807.275"/>
<polygon fill="lightgray" stroke="lightgray" points="289.804,-810.743 300.352,-809.752 291.488,-803.949 289.804,-810.743"/>
<text text-anchor="middle" x="240" y="-808.8" font-family="Times New Roman,serif" font-size="14.00" fill="lightgray">wff th</text>
</g>
<!-- n12477 -->
<g id="node8" class="node"><title>n12477</title>
<ellipse fill="none" stroke="lightgray" cx="796" cy="-752" rx="27" ry="18"/>
<text text-anchor="middle" x="796" y="-748.3" font-family="Times New Roman,serif" font-size="14.00" fill="lightgray">wa</text>
</g>
<!-- n12475&#45;&gt;n12477 -->
<g id="edge9" class="edge"><title>n12475&#45;&gt;n12477</title>
<path fill="none" stroke="lightgray" d="M566.753,-780.756C612.298,-775.018 707.142,-763.069 759.085,-756.525"/>
<polygon fill="lightgray" stroke="lightgray" points="759.695,-759.976 769.179,-755.253 758.82,-753.031 759.695,-759.976"/>
<text text-anchor="middle" x="668" y="-780.8" font-family="Times New Roman,serif" font-size="14.00" fill="lightgray">wff ( ( ( ph /\ ch ) /\ th ) /\ ta )</text>
</g>
<!-- n12476 -->
<g id="node9" class="node"><title>n12476</title>
<ellipse fill="none" stroke="lightgray" cx="540" cy="-712" rx="27" ry="18"/>
<text text-anchor="middle" x="540" y="-708.3" font-family="Times New Roman,serif" font-size="14.00" fill="lightgray">wet</text>
</g>
<!-- n12475&#45;&gt;n12476 -->
<g id="edge13" class="edge"><title>n12475&#45;&gt;n12476</title>
</g>
<!-- n12474&#45;&gt;n12475 -->
<g id="edge8" class="edge"><title>n12474&#45;&gt;n12475</title>
<path fill="none" stroke="lightgray" d="M352.812,-747.105C385.962,-751.331 445.163,-759.682 495,-771 498.444,-771.782 502.016,-772.684 505.567,-773.639"/>
<polygon fill="lightgray" stroke="lightgray" points="504.823,-777.066 515.398,-776.423 506.729,-770.331 504.823,-777.066"/>
<text text-anchor="middle" x="433" y="-774.8" font-family="Times New Roman,serif" font-size="14.00" fill="lightgray">wff ta</text>
</g>
<!-- n12479 -->
<g id="node10" class="node"><title>n12479</title>
<ellipse fill="none" stroke="lightgray" cx="1107.6" cy="-720" rx="27" ry="18"/>
<text text-anchor="middle" x="1107.6" y="-716.3" font-family="Times New Roman,serif" font-size="14.00" fill="lightgray">wa</text>
</g>
<!-- n12477&#45;&gt;n12479 -->
<g id="edge12" class="edge"><title>n12477&#45;&gt;n12479</title>
<path fill="none" stroke="lightgray" d="M822.864,-749.327C877.953,-743.633 1007,-730.295 1070.29,-723.753"/>
<polygon fill="lightgray" stroke="lightgray" points="1071,-727.198 1080.59,-722.688 1070.28,-720.235 1071,-727.198"/>
<text text-anchor="middle" x="944.5" y="-750.8" font-family="Times New Roman,serif" font-size="14.00" fill="lightgray">wff ( ( ( ( ph /\ ch ) /\ th ) /\ ta ) /\ et )</text>
</g>
<!-- n12478 -->
<g id="node11" class="node"><title>n12478</title>
<ellipse fill="none" stroke="lightgray" cx="796" cy="-680" rx="27" ry="18"/>
<text text-anchor="middle" x="796" y="-676.3" font-family="Times New Roman,serif" font-size="14.00" fill="lightgray">wze</text>
</g>
<!-- n12477&#45;&gt;n12478 -->
<g id="edge16" class="edge"><title>n12477&#45;&gt;n12478</title>
</g>
<!-- n12476&#45;&gt;n12477 -->
<g id="edge11" class="edge"><title>n12476&#45;&gt;n12477</title>
<path fill="none" stroke="lightgray" d="M567.087,-714.008C607.013,-717.383 685.536,-725.213 751,-739 754.456,-739.728 758.035,-740.594 761.591,-741.528"/>
<polygon fill="lightgray" stroke="lightgray" points="760.855,-744.956 771.428,-744.283 762.743,-738.216 760.855,-744.956"/>
<text text-anchor="middle" x="668" y="-742.8" font-family="Times New Roman,serif" font-size="14.00" fill="lightgray">wff et</text>
</g>
<!-- n12481 -->
<g id="node12" class="node"><title>n12481</title>
<ellipse fill="none" stroke="lightgray" cx="1472.89" cy="-613" rx="27" ry="18"/>
<text text-anchor="middle" x="1472.89" y="-609.3" font-family="Times New Roman,serif" font-size="14.00" fill="lightgray">wa</text>
</g>
<!-- n12479&#45;&gt;n12481 -->
<g id="edge15" class="edge"><title>n12479&#45;&gt;n12481</title>
<path fill="none" stroke="lightgray" d="M1134.83,-719.562C1189.95,-717.687 1320.65,-708.184 1417.19,-661 1429.91,-654.784 1441.97,-644.814 1451.52,-635.567"/>
<polygon fill="lightgray" stroke="lightgray" points="1454.07,-637.968 1458.6,-628.392 1449.08,-633.052 1454.07,-637.968"/>
<text text-anchor="middle" x="1292.19" y="-720.8" font-family="Times New Roman,serif" font-size="14.00" fill="lightgray">wff ( ( ( ( ( ph /\ ch ) /\ th ) /\ ta ) /\ et ) /\ ze )</text>
</g>
<!-- n12480 -->
<g id="node13" class="node"><title>n12480</title>
<ellipse fill="none" stroke="lightgray" cx="1107.6" cy="-648" rx="27" ry="18"/>
<text text-anchor="middle" x="1107.6" y="-644.3" font-family="Times New Roman,serif" font-size="14.00" fill="lightgray">wsi</text>
</g>
<!-- n12479&#45;&gt;n12480 -->
<g id="edge19" class="edge"><title>n12479&#45;&gt;n12480</title>
</g>
<!-- n12478&#45;&gt;n12479 -->
<g id="edge14" class="edge"><title>n12478&#45;&gt;n12479</title>
<path fill="none" stroke="lightgray" d="M823.145,-681.85C868.922,-685.302 966.476,-693.615 1048,-707 1055.79,-708.28 1064.11,-709.941 1071.95,-711.646"/>
<polygon fill="lightgray" stroke="lightgray" points="1071.39,-715.106 1081.91,-713.884 1072.92,-708.276 1071.39,-715.106"/>
<text text-anchor="middle" x="944.5" y="-710.8" font-family="Times New Roman,serif" font-size="14.00" fill="lightgray">wff ze</text>
</g>
<!-- n12494 -->
<g id="node14" class="node"><title>n12494</title>
<ellipse fill="cyan" stroke="black" cx="1908.73" cy="-498" rx="33.2948" ry="18"/>
<text text-anchor="middle" x="1908.73" y="-494.3" font-family="Times New Roman,serif" font-size="14.00">adantr</text>
</g>
<!-- n12481&#45;&gt;n12494 -->
<g id="edge18" class="edge"><title>n12481&#45;&gt;n12494</title>
<path fill="none" stroke="lightgray" d="M1499.86,-614.177C1564.39,-615.996 1735.64,-613.976 1857.59,-550 1870.03,-543.472 1881.19,-532.697 1889.8,-522.643"/>
<polygon fill="lightgray" stroke="lightgray" points="1892.56,-524.8 1896.14,-514.829 1887.12,-520.391 1892.56,-524.8"/>
<text text-anchor="middle" x="1693.09" y="-617.8" font-family="Times New Roman,serif" font-size="14.00" fill="lightgray">wff ( ( ( ( ( ( ph /\ ch ) /\ th ) /\ ta ) /\ et ) /\ ze ) /\ si )</text>
</g>
<!-- n12482 -->
<g id="node15" class="node"><title>n12482</title>
<ellipse fill="none" stroke="lightgray" cx="1472.89" cy="-535" rx="27" ry="18"/>
<text text-anchor="middle" x="1472.89" y="-531.3" font-family="Times New Roman,serif" font-size="14.00" fill="lightgray">wps</text>
</g>
<!-- n12481&#45;&gt;n12482 -->
<g id="edge41" class="edge"><title>n12481&#45;&gt;n12482</title>
</g>
<!-- n12480&#45;&gt;n12481 -->
<g id="edge17" class="edge"><title>n12480&#45;&gt;n12481</title>
<path fill="none" stroke="lightgray" d="M1134.43,-645.511C1198.09,-639.378 1362.61,-623.528 1435.82,-616.475"/>
<polygon fill="lightgray" stroke="lightgray" points="1436.32,-619.943 1445.94,-615.5 1435.65,-612.975 1436.32,-619.943"/>
<text text-anchor="middle" x="1292.19" y="-645.8" font-family="Times New Roman,serif" font-size="14.00" fill="lightgray">wff si</text>
</g>
<!-- QED -->
<g id="node27" class="node"><title>QED</title>
</g>
<!-- n12494&#45;&gt;QED -->
<g id="edge40" class="edge"><title>n12494&#45;&gt;QED</title>
<path fill="none" stroke="black" d="M1941.93,-498C2025.53,-498 2249.28,-498 2339.56,-498"/>
<polygon fill="black" stroke="black" points="2339.64,-501.5 2349.64,-498 2339.64,-494.5 2339.64,-501.5"/>
<text text-anchor="middle" x="2145.88" y="-501.8" font-family="Times New Roman,serif" font-size="14.00">|&#45; ( ( ( ( ( ( ( ( ph /\ ch ) /\ th ) /\ ta ) /\ et ) /\ ze ) /\ si ) /\ rh ) &#45;&gt; ps )</text>
</g>
<!-- n12482&#45;&gt;n12494 -->
<g id="edge20" class="edge"><title>n12482&#45;&gt;n12494</title>
<path fill="none" stroke="lightgray" d="M1499.97,-533.24C1562.02,-528.978 1723.26,-517.457 1857.59,-504 1860.41,-503.717 1863.32,-503.41 1866.25,-503.09"/>
<polygon fill="lightgray" stroke="lightgray" points="1866.65,-506.567 1876.19,-501.962 1865.86,-499.611 1866.65,-506.567"/>
<text text-anchor="middle" x="1693.09" y="-534.8" font-family="Times New Roman,serif" font-size="14.00" fill="lightgray">wff ps</text>
</g>
<!-- n12483 -->
<g id="node16" class="node"><title>n12483</title>
<ellipse fill="none" stroke="lightgray" cx="1472.89" cy="-463" rx="27" ry="18"/>
<text text-anchor="middle" x="1472.89" y="-459.3" font-family="Times New Roman,serif" font-size="14.00" fill="lightgray">wrh</text>
</g>
<!-- n12482&#45;&gt;n12483 -->
<g id="edge42" class="edge"><title>n12482&#45;&gt;n12483</title>
</g>
<!-- n12483&#45;&gt;n12494 -->
<g id="edge21" class="edge"><title>n12483&#45;&gt;n12494</title>
<path fill="none" stroke="lightgray" d="M1500.04,-463.781C1562.22,-465.853 1723.73,-472.504 1857.59,-489 1860.79,-489.395 1864.1,-489.86 1867.42,-490.368"/>
<polygon fill="lightgray" stroke="lightgray" points="1866.88,-493.826 1877.32,-491.989 1868.01,-486.918 1866.88,-493.826"/>
<text text-anchor="middle" x="1693.09" y="-492.8" font-family="Times New Roman,serif" font-size="14.00" fill="lightgray">wff rh</text>
</g>
<!-- n12493 -->
<g id="node18" class="node"><title>n12493</title>
<ellipse fill="cyan" stroke="black" cx="1472.89" cy="-378" rx="37.8943" ry="18"/>
<text text-anchor="middle" x="1472.89" y="-374.3" font-family="Times New Roman,serif" font-size="14.00">ad6antr</text>
</g>
<!-- n12483&#45;&gt;n12493 -->
<g id="edge43" class="edge"><title>n12483&#45;&gt;n12493</title>
</g>
<!-- n12484 -->
<g id="node17" class="node"><title>n12484</title>
<ellipse fill="none" stroke="lightgray" cx="1107.6" cy="-594" rx="27" ry="18"/>
<text text-anchor="middle" x="1107.6" y="-590.3" font-family="Times New Roman,serif" font-size="14.00" fill="lightgray">wph</text>
</g>
<!-- n12484&#45;&gt;n12493 -->
<g id="edge22" class="edge"><title>n12484&#45;&gt;n12493</title>
<path fill="none" stroke="lightgray" d="M1134.78,-593.35C1201.9,-591.119 1377.6,-581.545 1417.19,-542 1451,-508.232 1418.08,-480.618 1435.19,-436 1439.57,-424.586 1446.33,-413.005 1452.86,-403.224"/>
<polygon fill="lightgray" stroke="lightgray" points="1455.89,-405.012 1458.73,-394.805 1450.14,-401.013 1455.89,-405.012"/>
<text text-anchor="middle" x="1292.19" y="-594.8" font-family="Times New Roman,serif" font-size="14.00" fill="lightgray">wff ph</text>
</g>
<!-- n12485 -->
<g id="node19" class="node"><title>n12485</title>
<ellipse fill="none" stroke="lightgray" cx="1107.6" cy="-522" rx="27" ry="18"/>
<text text-anchor="middle" x="1107.6" y="-518.3" font-family="Times New Roman,serif" font-size="14.00" fill="lightgray">wps</text>
</g>
<!-- n12484&#45;&gt;n12485 -->
<g id="edge32" class="edge"><title>n12484&#45;&gt;n12485</title>
</g>
<!-- n12493&#45;&gt;n12494 -->
<g id="edge31" class="edge"><title>n12493&#45;&gt;n12494</title>
<path fill="none" stroke="black" d="M1510.72,-376.958C1582.09,-376.486 1742.32,-383.078 1857.59,-445 1870.18,-451.764 1881.41,-462.862 1890.04,-473.159"/>
<polygon fill="black" stroke="black" points="1887.42,-475.488 1896.37,-481.148 1892.9,-471.138 1887.42,-475.488"/>
<text text-anchor="middle" x="1693.09" y="-448.8" font-family="Times New Roman,serif" font-size="14.00">|&#45; ( ( ( ( ( ( ( ph /\ ch ) /\ th ) /\ ta ) /\ et ) /\ ze ) /\ si ) &#45;&gt; ps )</text>
</g>
<!-- n12485&#45;&gt;n12493 -->
<g id="edge23" class="edge"><title>n12485&#45;&gt;n12493</title>
<path fill="none" stroke="lightgray" d="M1134.69,-523.301C1191.23,-524.835 1327.21,-521.46 1417.19,-461 1420.03,-459.09 1440.38,-427.642 1455.43,-404.018"/>
<polygon fill="lightgray" stroke="lightgray" points="1458.48,-405.742 1460.89,-395.425 1452.57,-401.987 1458.48,-405.742"/>
<text text-anchor="middle" x="1292.19" y="-526.8" font-family="Times New Roman,serif" font-size="14.00" fill="lightgray">wff ps</text>
</g>
<!-- n12486 -->
<g id="node20" class="node"><title>n12486</title>
<ellipse fill="none" stroke="lightgray" cx="1107.6" cy="-450" rx="27" ry="18"/>
<text text-anchor="middle" x="1107.6" y="-446.3" font-family="Times New Roman,serif" font-size="14.00" fill="lightgray">wch</text>
</g>
<!-- n12485&#45;&gt;n12486 -->
<g id="edge33" class="edge"><title>n12485&#45;&gt;n12486</title>
</g>
<!-- n12486&#45;&gt;n12493 -->
<g id="edge24" class="edge"><title>n12486&#45;&gt;n12493</title>
<path fill="none" stroke="lightgray" d="M1134.5,-447.012C1187.94,-440.531 1314.02,-423.588 1417.19,-397 1422.49,-395.636 1428,-393.994 1433.4,-392.254"/>
<polygon fill="lightgray" stroke="lightgray" points="1434.56,-395.557 1442.92,-389.055 1432.33,-388.921 1434.56,-395.557"/>
<text text-anchor="middle" x="1292.19" y="-445.8" font-family="Times New Roman,serif" font-size="14.00" fill="lightgray">wff ch</text>
</g>
<!-- n12487 -->
<g id="node21" class="node"><title>n12487</title>
<ellipse fill="none" stroke="lightgray" cx="1107.6" cy="-378" rx="27" ry="18"/>
<text text-anchor="middle" x="1107.6" y="-374.3" font-family="Times New Roman,serif" font-size="14.00" fill="lightgray">wth</text>
</g>
<!-- n12486&#45;&gt;n12487 -->
<g id="edge34" class="edge"><title>n12486&#45;&gt;n12487</title>
</g>
<!-- n12487&#45;&gt;n12493 -->
<g id="edge25" class="edge"><title>n12487&#45;&gt;n12493</title>
<path fill="none" stroke="lightgray" d="M1134.72,-378C1195.48,-378 1346.97,-378 1424.52,-378"/>
<polygon fill="lightgray" stroke="lightgray" points="1424.96,-381.5 1434.96,-378 1424.96,-374.5 1424.96,-381.5"/>
<text text-anchor="middle" x="1292.19" y="-381.8" font-family="Times New Roman,serif" font-size="14.00" fill="lightgray">wff th</text>
</g>
<!-- n12488 -->
<g id="node22" class="node"><title>n12488</title>
<ellipse fill="none" stroke="lightgray" cx="1107.6" cy="-306" rx="27" ry="18"/>
<text text-anchor="middle" x="1107.6" y="-302.3" font-family="Times New Roman,serif" font-size="14.00" fill="lightgray">wta</text>
</g>
<!-- n12487&#45;&gt;n12488 -->
<g id="edge35" class="edge"><title>n12487&#45;&gt;n12488</title>
</g>
<!-- n12488&#45;&gt;n12493 -->
<g id="edge26" class="edge"><title>n12488&#45;&gt;n12493</title>
<path fill="none" stroke="lightgray" d="M1134.5,-308.988C1187.94,-315.469 1314.02,-332.412 1417.19,-359 1422.49,-360.364 1428,-362.006 1433.4,-363.746"/>
<polygon fill="lightgray" stroke="lightgray" points="1432.33,-367.079 1442.92,-366.945 1434.56,-360.443 1432.33,-367.079"/>
<text text-anchor="middle" x="1292.19" y="-362.8" font-family="Times New Roman,serif" font-size="14.00" fill="lightgray">wff ta</text>
</g>
<!-- n12489 -->
<g id="node23" class="node"><title>n12489</title>
<ellipse fill="none" stroke="lightgray" cx="1107.6" cy="-234" rx="27" ry="18"/>
<text text-anchor="middle" x="1107.6" y="-230.3" font-family="Times New Roman,serif" font-size="14.00" fill="lightgray">wet</text>
</g>
<!-- n12488&#45;&gt;n12489 -->
<g id="edge36" class="edge"><title>n12488&#45;&gt;n12489</title>
</g>
<!-- n12489&#45;&gt;n12493 -->
<g id="edge27" class="edge"><title>n12489&#45;&gt;n12493</title>
<path fill="none" stroke="lightgray" d="M1133.68,-239.185C1144.05,-241.316 1156.2,-243.796 1167.19,-246 1278.21,-268.247 1323.16,-231.927 1417.19,-295 1437.45,-308.589 1452.01,-332.478 1461,-351.149"/>
<polygon fill="lightgray" stroke="lightgray" points="1457.86,-352.702 1465.18,-360.355 1464.23,-349.803 1457.86,-352.702"/>
<text text-anchor="middle" x="1292.19" y="-298.8" font-family="Times New Roman,serif" font-size="14.00" fill="lightgray">wff et</text>
</g>
<!-- n12490 -->
<g id="node24" class="node"><title>n12490</title>
<ellipse fill="none" stroke="lightgray" cx="1107.6" cy="-162" rx="27" ry="18"/>
<text text-anchor="middle" x="1107.6" y="-158.3" font-family="Times New Roman,serif" font-size="14.00" fill="lightgray">wze</text>
</g>
<!-- n12489&#45;&gt;n12490 -->
<g id="edge37" class="edge"><title>n12489&#45;&gt;n12490</title>
</g>
<!-- n12490&#45;&gt;n12493 -->
<g id="edge28" class="edge"><title>n12490&#45;&gt;n12493</title>
<path fill="none" stroke="lightgray" d="M1134.44,-164.237C1200.74,-170.461 1374.63,-190.009 1417.19,-227 1453.27,-258.356 1465.56,-315.438 1469.74,-349.725"/>
<polygon fill="lightgray" stroke="lightgray" points="1466.29,-350.421 1470.83,-359.995 1473.25,-349.68 1466.29,-350.421"/>
<text text-anchor="middle" x="1292.19" y="-230.8" font-family="Times New Roman,serif" font-size="14.00" fill="lightgray">wff ze</text>
</g>
<!-- n12491 -->
<g id="node25" class="node"><title>n12491</title>
<ellipse fill="none" stroke="lightgray" cx="1107.6" cy="-90" rx="27" ry="18"/>
<text text-anchor="middle" x="1107.6" y="-86.3" font-family="Times New Roman,serif" font-size="14.00" fill="lightgray">wsi</text>
</g>
<!-- n12490&#45;&gt;n12491 -->
<g id="edge38" class="edge"><title>n12490&#45;&gt;n12491</title>
</g>
<!-- n12491&#45;&gt;n12493 -->
<g id="edge29" class="edge"><title>n12491&#45;&gt;n12493</title>
<path fill="none" stroke="lightgray" d="M1134.24,-86.6124C1192.9,-80.4113 1337.95,-74.1298 1417.19,-150 1445.86,-177.448 1462.59,-295.37 1468.94,-350.009"/>
<polygon fill="lightgray" stroke="lightgray" points="1465.47,-350.502 1470.07,-360.047 1472.42,-349.718 1465.47,-350.502"/>
<text text-anchor="middle" x="1292.19" y="-153.8" font-family="Times New Roman,serif" font-size="14.00" fill="lightgray">wff si</text>
</g>
<!-- n12492 -->
<g id="node26" class="node"><title>n12492</title>
<ellipse fill="orange" stroke="black" cx="1107.6" cy="-18" rx="41.6928" ry="18"/>
<text text-anchor="middle" x="1107.6" y="-14.3" font-family="Times New Roman,serif" font-size="14.00">ad2ant.1</text>
</g>
<!-- n12491&#45;&gt;n12492 -->
<g id="edge39" class="edge"><title>n12491&#45;&gt;n12492</title>
</g>
<!-- n12492&#45;&gt;n12493 -->
<g id="edge30" class="edge"><title>n12492&#45;&gt;n12493</title>
<path fill="none" stroke="black" d="M1146.16,-11.2165C1211.02,-1.86599 1344.08,6.53526 1417.19,-65 1457.43,-104.365 1468.27,-279.885 1471.02,-349.458"/>
<polygon fill="black" stroke="black" points="1467.53,-349.812 1471.39,-359.677 1474.52,-349.556 1467.53,-349.812"/>
<text text-anchor="middle" x="1292.19" y="-68.8" font-family="Times New Roman,serif" font-size="14.00">|&#45; ( ph &#45;&gt; ps )</text>
</g>
</g>
</svg>
