<?xml version="1.0" encoding="UTF-8" standalone="no"?>
<!DOCTYPE svg PUBLIC "-//W3C//DTD SVG 1.1//EN"
 "http://www.w3.org/Graphics/SVG/1.1/DTD/svg11.dtd">
<!-- Generated by graphviz version 2.38.0 (20140413.2041)
 -->
<!-- Title: proof_ad8antr Pages: 1 -->
<svg width="2755pt" height="1010pt"
 viewBox="0.00 0.00 2755.37 1010.00" xmlns="http://www.w3.org/2000/svg" xmlns:xlink="http://www.w3.org/1999/xlink">
<g id="graph0" class="graph" transform="scale(1 1) rotate(0) translate(4 1006)">
<title>proof_ad8antr</title>
<polygon fill="white" stroke="none" points="-4,4 -4,-1006 2751.37,-1006 2751.37,4 -4,4"/>
<!-- n12521 -->
<g id="node1" class="node"><title>n12521</title>
<ellipse fill="none" stroke="lightgray" cx="27" cy="-984" rx="27" ry="18"/>
<text text-anchor="middle" x="27" y="-980.3" font-family="Times New Roman,serif" font-size="14.00" fill="lightgray">wph</text>
</g>
<!-- n12523 -->
<g id="node2" class="node"><title>n12523</title>
<ellipse fill="none" stroke="lightgray" cx="154" cy="-952" rx="27" ry="18"/>
<text text-anchor="middle" x="154" y="-948.3" font-family="Times New Roman,serif" font-size="14.00" fill="lightgray">wa</text>
</g>
<!-- n12521&#45;&gt;n12523 -->
<g id="edge1" class="edge"><title>n12521&#45;&gt;n12523</title>
<path fill="none" stroke="lightgray" d="M52.398,-977.754C71.326,-972.909 97.7933,-966.133 118.83,-960.748"/>
<polygon fill="lightgray" stroke="lightgray" points="119.844,-964.101 128.664,-958.23 118.108,-957.32 119.844,-964.101"/>
<text text-anchor="middle" x="90.5" y="-975.8" font-family="Times New Roman,serif" font-size="14.00" fill="lightgray">wff ph</text>
</g>
<!-- n12522 -->
<g id="node3" class="node"><title>n12522</title>
<ellipse fill="none" stroke="lightgray" cx="27" cy="-912" rx="27" ry="18"/>
<text text-anchor="middle" x="27" y="-908.3" font-family="Times New Roman,serif" font-size="14.00" fill="lightgray">wch</text>
</g>
<!-- n12521&#45;&gt;n12522 -->
<g id="edge4" class="edge"><title>n12521&#45;&gt;n12522</title>
</g>
<!-- n12525 -->
<g id="node4" class="node"><title>n12525</title>
<ellipse fill="none" stroke="lightgray" cx="323" cy="-920" rx="27" ry="18"/>
<text text-anchor="middle" x="323" y="-916.3" font-family="Times New Roman,serif" font-size="14.00" fill="lightgray">wa</text>
</g>
<!-- n12523&#45;&gt;n12525 -->
<g id="edge3" class="edge"><title>n12523&#45;&gt;n12525</title>
<path fill="none" stroke="lightgray" d="M180.364,-947.14C208.728,-941.705 254.861,-932.865 286.73,-926.758"/>
<polygon fill="lightgray" stroke="lightgray" points="287.782,-930.12 296.945,-924.801 286.465,-923.246 287.782,-930.12"/>
<text text-anchor="middle" x="238.5" y="-946.8" font-family="Times New Roman,serif" font-size="14.00" fill="lightgray">wff ( ph / ch )</text>
</g>
<!-- n12524 -->
<g id="node5" class="node"><title>n12524</title>
<ellipse fill="none" stroke="lightgray" cx="154" cy="-880" rx="27" ry="18"/>
<text text-anchor="middle" x="154" y="-876.3" font-family="Times New Roman,serif" font-size="14.00" fill="lightgray">wth</text>
</g>
<!-- n12523&#45;&gt;n12524 -->
<g id="edge7" class="edge"><title>n12523&#45;&gt;n12524</title>
</g>
<!-- n12522&#45;&gt;n12523 -->
<g id="edge2" class="edge"><title>n12522&#45;&gt;n12523</title>
<path fill="none" stroke="lightgray" d="M51.8058,-919.618C71.0071,-925.762 98.2415,-934.477 119.621,-941.319"/>
<polygon fill="lightgray" stroke="lightgray" points="118.692,-944.696 129.283,-944.411 120.825,-938.029 118.692,-944.696"/>
<text text-anchor="middle" x="90.5" y="-940.8" font-family="Times New Roman,serif" font-size="14.00" fill="lightgray">wff ch</text>
</g>
<!-- n12527 -->
<g id="node6" class="node"><title>n12527</title>
<ellipse fill="none" stroke="lightgray" cx="530" cy="-888" rx="27" ry="18"/>
<text text-anchor="middle" x="530" y="-884.3" font-family="Times New Roman,serif" font-size="14.00" fill="lightgray">wa</text>
</g>
<!-- n12525&#45;&gt;n12527 -->
<g id="edge6" class="edge"><title>n12525&#45;&gt;n12527</title>
<path fill="none" stroke="lightgray" d="M349.549,-916.012C385.785,-910.355 452.26,-899.979 493.338,-893.567"/>
<polygon fill="lightgray" stroke="lightgray" points="494.111,-896.988 503.452,-891.988 493.032,-890.072 494.111,-896.988"/>
<text text-anchor="middle" x="426.5" y="-916.8" font-family="Times New Roman,serif" font-size="14.00" fill="lightgray">wff ( ( ph / ch ) / th )</text>
</g>
<!-- n12526 -->
<g id="node7" class="node"><title>n12526</title>
<ellipse fill="none" stroke="lightgray" cx="323" cy="-848" rx="27" ry="18"/>
<text text-anchor="middle" x="323" y="-844.3" font-family="Times New Roman,serif" font-size="14.00" fill="lightgray">wta</text>
</g>
<!-- n12525&#45;&gt;n12526 -->
<g id="edge10" class="edge"><title>n12525&#45;&gt;n12526</title>
</g>
<!-- n12524&#45;&gt;n12525 -->
<g id="edge5" class="edge"><title>n12524&#45;&gt;n12525</title>
<path fill="none" stroke="lightgray" d="M179.995,-885.789C204.863,-891.574 244.101,-900.767 278,-909 281.039,-909.738 284.194,-910.512 287.356,-911.293"/>
<polygon fill="lightgray" stroke="lightgray" points="286.798,-914.76 297.347,-913.775 288.486,-907.967 286.798,-914.76"/>
<text text-anchor="middle" x="238.5" y="-912.8" font-family="Times New Roman,serif" font-size="14.00" fill="lightgray">wff th</text>
</g>
<!-- n12529 -->
<g id="node8" class="node"><title>n12529</title>
<ellipse fill="none" stroke="lightgray" cx="774" cy="-856" rx="27" ry="18"/>
<text text-anchor="middle" x="774" y="-852.3" font-family="Times New Roman,serif" font-size="14.00" fill="lightgray">wa</text>
</g>
<!-- n12527&#45;&gt;n12529 -->
<g id="edge9" class="edge"><title>n12527&#45;&gt;n12529</title>
<path fill="none" stroke="lightgray" d="M556.898,-884.575C600.292,-878.837 687.771,-867.27 737.082,-860.749"/>
<polygon fill="lightgray" stroke="lightgray" points="737.833,-864.181 747.288,-859.4 736.915,-857.241 737.833,-864.181"/>
<text text-anchor="middle" x="652" y="-884.8" font-family="Times New Roman,serif" font-size="14.00" fill="lightgray">wff ( ( ( ph / ch ) / th ) / ta )</text>
</g>
<!-- n12528 -->
<g id="node9" class="node"><title>n12528</title>
<ellipse fill="none" stroke="lightgray" cx="530" cy="-816" rx="27" ry="18"/>
<text text-anchor="middle" x="530" y="-812.3" font-family="Times New Roman,serif" font-size="14.00" fill="lightgray">wet</text>
</g>
<!-- n12527&#45;&gt;n12528 -->
<g id="edge13" class="edge"><title>n12527&#45;&gt;n12528</title>
</g>
<!-- n12526&#45;&gt;n12527 -->
<g id="edge8" class="edge"><title>n12526&#45;&gt;n12527</title>
<path fill="none" stroke="lightgray" d="M349.563,-851.312C381.478,-855.67 437.638,-864.074 485,-875 488.442,-875.794 492.011,-876.703 495.561,-877.663"/>
<polygon fill="lightgray" stroke="lightgray" points="494.815,-881.09 505.391,-880.453 496.726,-874.356 494.815,-881.09"/>
<text text-anchor="middle" x="426.5" y="-878.8" font-family="Times New Roman,serif" font-size="14.00" fill="lightgray">wff ta</text>
</g>
<!-- n12531 -->
<g id="node10" class="node"><title>n12531</title>
<ellipse fill="none" stroke="lightgray" cx="1056" cy="-824" rx="27" ry="18"/>
<text text-anchor="middle" x="1056" y="-820.3" font-family="Times New Roman,serif" font-size="14.00" fill="lightgray">wa</text>
</g>
<!-- n12529&#45;&gt;n12531 -->
<g id="edge12" class="edge"><title>n12529&#45;&gt;n12531</title>
<path fill="none" stroke="lightgray" d="M800.84,-853.047C851.056,-847.308 961.902,-834.64 1019.18,-828.094"/>
<polygon fill="lightgray" stroke="lightgray" points="1019.68,-831.559 1029.22,-826.946 1018.89,-824.604 1019.68,-831.559"/>
<text text-anchor="middle" x="915" y="-853.8" font-family="Times New Roman,serif" font-size="14.00" fill="lightgray">wff ( ( ( ( ph / ch ) / th ) / ta ) / et )</text>
</g>
<!-- n12530 -->
<g id="node11" class="node"><title>n12530</title>
<ellipse fill="none" stroke="lightgray" cx="774" cy="-784" rx="27" ry="18"/>
<text text-anchor="middle" x="774" y="-780.3" font-family="Times New Roman,serif" font-size="14.00" fill="lightgray">wze</text>
</g>
<!-- n12529&#45;&gt;n12530 -->
<g id="edge16" class="edge"><title>n12529&#45;&gt;n12530</title>
</g>
<!-- n12528&#45;&gt;n12529 -->
<g id="edge11" class="edge"><title>n12528&#45;&gt;n12529</title>
<path fill="none" stroke="lightgray" d="M556.847,-818.261C594.859,-821.871 667.943,-829.896 729,-843 732.453,-843.741 736.031,-844.616 739.585,-845.555"/>
<polygon fill="lightgray" stroke="lightgray" points="738.847,-848.983 749.421,-848.317 740.74,-842.244 738.847,-848.983"/>
<text text-anchor="middle" x="652" y="-846.8" font-family="Times New Roman,serif" font-size="14.00" fill="lightgray">wff et</text>
</g>
<!-- n12533 -->
<g id="node12" class="node"><title>n12533</title>
<ellipse fill="none" stroke="lightgray" cx="1392.6" cy="-792" rx="27" ry="18"/>
<text text-anchor="middle" x="1392.6" y="-788.3" font-family="Times New Roman,serif" font-size="14.00" fill="lightgray">wa</text>
</g>
<!-- n12531&#45;&gt;n12533 -->
<g id="edge15" class="edge"><title>n12531&#45;&gt;n12533</title>
<path fill="none" stroke="lightgray" d="M1082.98,-821.516C1142.15,-815.856 1287.09,-801.994 1355.17,-795.484"/>
<polygon fill="lightgray" stroke="lightgray" points="1355.78,-798.941 1365.41,-794.505 1355.12,-791.973 1355.78,-798.941"/>
<text text-anchor="middle" x="1217" y="-822.8" font-family="Times New Roman,serif" font-size="14.00" fill="lightgray">wff ( ( ( ( ( ph / ch ) / th ) / ta ) / et ) / ze )</text>
</g>
<!-- n12532 -->
<g id="node13" class="node"><title>n12532</title>
<ellipse fill="none" stroke="lightgray" cx="1056" cy="-752" rx="27" ry="18"/>
<text text-anchor="middle" x="1056" y="-748.3" font-family="Times New Roman,serif" font-size="14.00" fill="lightgray">wsi</text>
</g>
<!-- n12531&#45;&gt;n12532 -->
<g id="edge19" class="edge"><title>n12531&#45;&gt;n12532</title>
</g>
<!-- n12530&#45;&gt;n12531 -->
<g id="edge14" class="edge"><title>n12530&#45;&gt;n12531</title>
<path fill="none" stroke="lightgray" d="M801.109,-785.183C844.913,-787.545 935.796,-794.058 1011,-810 1014.67,-810.777 1018.46,-811.737 1022.21,-812.788"/>
<polygon fill="lightgray" stroke="lightgray" points="1021.35,-816.184 1031.94,-815.716 1023.37,-809.481 1021.35,-816.184"/>
<text text-anchor="middle" x="915" y="-813.8" font-family="Times New Roman,serif" font-size="14.00" fill="lightgray">wff ze</text>
</g>
<!-- n12535 -->
<g id="node14" class="node"><title>n12535</title>
<ellipse fill="none" stroke="lightgray" cx="1775.89" cy="-624" rx="27" ry="18"/>
<text text-anchor="middle" x="1775.89" y="-620.3" font-family="Times New Roman,serif" font-size="14.00" fill="lightgray">wa</text>
</g>
<!-- n12533&#45;&gt;n12535 -->
<g id="edge18" class="edge"><title>n12533&#45;&gt;n12535</title>
<path fill="none" stroke="lightgray" d="M1419.79,-793.176C1479.27,-794.503 1626.58,-790.077 1720.19,-721 1743.53,-703.779 1758.3,-673.429 1766.53,-651.253"/>
<polygon fill="lightgray" stroke="lightgray" points="1769.87,-652.31 1769.86,-641.715 1763.26,-650.004 1769.87,-652.31"/>
<text text-anchor="middle" x="1586.19" y="-796.8" font-family="Times New Roman,serif" font-size="14.00" fill="lightgray">wff ( ( ( ( ( ( ph / ch ) / th ) / ta ) / et ) / ze ) / si )</text>
</g>
<!-- n12534 -->
<g id="node15" class="node"><title>n12534</title>
<ellipse fill="none" stroke="lightgray" cx="1392.6" cy="-720" rx="27" ry="18"/>
<text text-anchor="middle" x="1392.6" y="-716.3" font-family="Times New Roman,serif" font-size="14.00" fill="lightgray">wrh</text>
</g>
<!-- n12533&#45;&gt;n12534 -->
<g id="edge22" class="edge"><title>n12533&#45;&gt;n12534</title>
</g>
<!-- n12532&#45;&gt;n12533 -->
<g id="edge17" class="edge"><title>n12532&#45;&gt;n12533</title>
<path fill="none" stroke="lightgray" d="M1083.01,-753.493C1132.11,-756.544 1241.71,-764.463 1333,-779 1340.8,-780.242 1349.12,-781.888 1356.96,-783.59"/>
<polygon fill="lightgray" stroke="lightgray" points="1356.39,-787.05 1366.92,-785.83 1357.93,-780.22 1356.39,-787.05"/>
<text text-anchor="middle" x="1217" y="-782.8" font-family="Times New Roman,serif" font-size="14.00" fill="lightgray">wff si</text>
</g>
<!-- n12549 -->
<g id="node16" class="node"><title>n12549</title>
<ellipse fill="cyan" stroke="black" cx="2228.73" cy="-511" rx="33.2948" ry="18"/>
<text text-anchor="middle" x="2228.73" y="-507.3" font-family="Times New Roman,serif" font-size="14.00">adantr</text>
</g>
<!-- n12535&#45;&gt;n12549 -->
<g id="edge21" class="edge"><title>n12535&#45;&gt;n12549</title>
<path fill="none" stroke="lightgray" d="M1803.01,-625.592C1869.59,-628.52 2049.46,-629.268 2177.59,-563 2190.07,-556.544 2201.23,-545.778 2209.84,-535.712"/>
<polygon fill="lightgray" stroke="lightgray" points="2212.6,-537.86 2216.17,-527.884 2207.16,-533.459 2212.6,-537.86"/>
<text text-anchor="middle" x="2004.59" y="-629.8" font-family="Times New Roman,serif" font-size="14.00" fill="lightgray">wff ( ( ( ( ( ( ( ph / ch ) / th ) / ta ) / et ) / ze ) / si ) / rh )</text>
</g>
<!-- n12536 -->
<g id="node17" class="node"><title>n12536</title>
<ellipse fill="none" stroke="lightgray" cx="1775.89" cy="-548" rx="27" ry="18"/>
<text text-anchor="middle" x="1775.89" y="-544.3" font-family="Times New Roman,serif" font-size="14.00" fill="lightgray">wps</text>
</g>
<!-- n12535&#45;&gt;n12536 -->
<g id="edge46" class="edge"><title>n12535&#45;&gt;n12536</title>
</g>
<!-- n12534&#45;&gt;n12535 -->
<g id="edge20" class="edge"><title>n12534&#45;&gt;n12535</title>
<path fill="none" stroke="lightgray" d="M1418.03,-713.849C1483.65,-697.328 1663.9,-651.944 1740.13,-632.753"/>
<polygon fill="lightgray" stroke="lightgray" points="1741.32,-636.06 1750.17,-630.224 1739.62,-629.272 1741.32,-636.06"/>
<text text-anchor="middle" x="1586.19" y="-706.8" font-family="Times New Roman,serif" font-size="14.00" fill="lightgray">wff rh</text>
</g>
<!-- QED -->
<g id="node30" class="node"><title>QED</title>
</g>
<!-- n12549&#45;&gt;QED -->
<g id="edge45" class="edge"><title>n12549&#45;&gt;QED</title>
<path fill="none" stroke="black" d="M2262.09,-511C2348.69,-511 2585.47,-511 2678.69,-511"/>
<polygon fill="black" stroke="black" points="2678.81,-514.5 2688.81,-511 2678.81,-507.5 2678.81,-514.5"/>
<text text-anchor="middle" x="2475.38" y="-514.8" font-family="Times New Roman,serif" font-size="14.00">|&#45; ( ( ( ( ( ( ( ( ( ph / ch ) / th ) / ta ) / et ) / ze ) / si ) / rh ) / mu ) &#45;&gt; ps )</text>
</g>
<!-- n12536&#45;&gt;n12549 -->
<g id="edge23" class="edge"><title>n12536&#45;&gt;n12549</title>
<path fill="none" stroke="lightgray" d="M1803.18,-546.349C1867.26,-542.24 2036.63,-530.879 2177.59,-517 2180.41,-516.722 2183.32,-516.419 2186.25,-516.101"/>
<polygon fill="lightgray" stroke="lightgray" points="2186.64,-519.578 2196.19,-514.978 2185.86,-512.622 2186.64,-519.578"/>
<text text-anchor="middle" x="2004.59" y="-547.8" font-family="Times New Roman,serif" font-size="14.00" fill="lightgray">wff ps</text>
</g>
<!-- n12537 -->
<g id="node18" class="node"><title>n12537</title>
<ellipse fill="none" stroke="lightgray" cx="1775.89" cy="-476" rx="28.6953" ry="18"/>
<text text-anchor="middle" x="1775.89" y="-472.3" font-family="Times New Roman,serif" font-size="14.00" fill="lightgray">wmu</text>
</g>
<!-- n12536&#45;&gt;n12537 -->
<g id="edge47" class="edge"><title>n12536&#45;&gt;n12537</title>
</g>
<!-- n12537&#45;&gt;n12549 -->
<g id="edge24" class="edge"><title>n12537&#45;&gt;n12549</title>
<path fill="none" stroke="lightgray" d="M1804.68,-476.724C1869.97,-478.661 2038.15,-485.018 2177.59,-502 2180.79,-502.39 2184.1,-502.852 2187.42,-503.358"/>
<polygon fill="lightgray" stroke="lightgray" points="2186.89,-506.816 2197.32,-504.975 2188.01,-499.908 2186.89,-506.816"/>
<text text-anchor="middle" x="2004.59" y="-505.8" font-family="Times New Roman,serif" font-size="14.00" fill="lightgray">wff mu</text>
</g>
<!-- n12548 -->
<g id="node20" class="node"><title>n12548</title>
<ellipse fill="cyan" stroke="black" cx="1775.89" cy="-396" rx="37.8943" ry="18"/>
<text text-anchor="middle" x="1775.89" y="-392.3" font-family="Times New Roman,serif" font-size="14.00">ad7antr</text>
</g>
<!-- n12537&#45;&gt;n12548 -->
<g id="edge48" class="edge"><title>n12537&#45;&gt;n12548</title>
</g>
<!-- n12538 -->
<g id="node19" class="node"><title>n12538</title>
<ellipse fill="none" stroke="lightgray" cx="1392.6" cy="-666" rx="27" ry="18"/>
<text text-anchor="middle" x="1392.6" y="-662.3" font-family="Times New Roman,serif" font-size="14.00" fill="lightgray">wph</text>
</g>
<!-- n12538&#45;&gt;n12548 -->
<g id="edge25" class="edge"><title>n12538&#45;&gt;n12548</title>
<path fill="none" stroke="lightgray" d="M1408.08,-650.697C1419.15,-639.918 1435.33,-626.028 1452.19,-618 1561.98,-565.729 1636.2,-650.926 1720.19,-563 1755.62,-525.908 1719.11,-496.614 1738.19,-449 1742.19,-439.027 1748.35,-429.08 1754.49,-420.543"/>
<polygon fill="lightgray" stroke="lightgray" points="1757.31,-422.617 1760.54,-412.527 1751.72,-418.4 1757.31,-422.617"/>
<text text-anchor="middle" x="1586.19" y="-621.8" font-family="Times New Roman,serif" font-size="14.00" fill="lightgray">wff ph</text>
</g>
<!-- n12539 -->
<g id="node21" class="node"><title>n12539</title>
<ellipse fill="none" stroke="lightgray" cx="1392.6" cy="-594" rx="27" ry="18"/>
<text text-anchor="middle" x="1392.6" y="-590.3" font-family="Times New Roman,serif" font-size="14.00" fill="lightgray">wps</text>
</g>
<!-- n12538&#45;&gt;n12539 -->
<g id="edge36" class="edge"><title>n12538&#45;&gt;n12539</title>
</g>
<!-- n12548&#45;&gt;n12549 -->
<g id="edge35" class="edge"><title>n12548&#45;&gt;n12549</title>
<path fill="none" stroke="black" d="M1813.6,-394.018C1887.17,-391.629 2056.04,-394.214 2177.59,-458 2190.24,-464.642 2201.48,-475.725 2210.1,-486.045"/>
<polygon fill="black" stroke="black" points="2207.48,-488.375 2216.42,-494.057 2212.97,-484.039 2207.48,-488.375"/>
<text text-anchor="middle" x="2004.59" y="-461.8" font-family="Times New Roman,serif" font-size="14.00">|&#45; ( ( ( ( ( ( ( ( ph / ch ) / th ) / ta ) / et ) / ze ) / si ) / rh ) &#45;&gt; ps )</text>
</g>
<!-- n12539&#45;&gt;n12548 -->
<g id="edge26" class="edge"><title>n12539&#45;&gt;n12548</title>
<path fill="none" stroke="lightgray" d="M1407.97,-578.822C1418.98,-568.237 1435.15,-554.831 1452.19,-548 1507.73,-525.743 1674.93,-561.133 1720.19,-522 1745.47,-500.145 1724.45,-479.462 1738.19,-449 1742.61,-439.206 1748.87,-429.304 1754.98,-420.753"/>
<polygon fill="lightgray" stroke="lightgray" points="1757.8,-422.82 1760.96,-412.706 1752.18,-418.646 1757.8,-422.82"/>
<text text-anchor="middle" x="1586.19" y="-551.8" font-family="Times New Roman,serif" font-size="14.00" fill="lightgray">wff ps</text>
</g>
<!-- n12540 -->
<g id="node22" class="node"><title>n12540</title>
<ellipse fill="none" stroke="lightgray" cx="1392.6" cy="-522" rx="27" ry="18"/>
<text text-anchor="middle" x="1392.6" y="-518.3" font-family="Times New Roman,serif" font-size="14.00" fill="lightgray">wch</text>
</g>
<!-- n12539&#45;&gt;n12540 -->
<g id="edge37" class="edge"><title>n12539&#45;&gt;n12540</title>
</g>
<!-- n12540&#45;&gt;n12548 -->
<g id="edge27" class="edge"><title>n12540&#45;&gt;n12548</title>
<path fill="none" stroke="lightgray" d="M1417.71,-515.277C1428.24,-512.483 1440.78,-509.35 1452.19,-507 1570.28,-482.69 1616.05,-525.74 1720.19,-465 1729.53,-459.557 1745.23,-439.086 1757.42,-421.844"/>
<polygon fill="lightgray" stroke="lightgray" points="1760.59,-423.425 1763.43,-413.218 1754.84,-419.426 1760.59,-423.425"/>
<text text-anchor="middle" x="1586.19" y="-510.8" font-family="Times New Roman,serif" font-size="14.00" fill="lightgray">wff ch</text>
</g>
<!-- n12541 -->
<g id="node23" class="node"><title>n12541</title>
<ellipse fill="none" stroke="lightgray" cx="1392.6" cy="-450" rx="27" ry="18"/>
<text text-anchor="middle" x="1392.6" y="-446.3" font-family="Times New Roman,serif" font-size="14.00" fill="lightgray">wth</text>
</g>
<!-- n12540&#45;&gt;n12541 -->
<g id="edge38" class="edge"><title>n12540&#45;&gt;n12541</title>
</g>
<!-- n12541&#45;&gt;n12548 -->
<g id="edge28" class="edge"><title>n12541&#45;&gt;n12548</title>
<path fill="none" stroke="lightgray" d="M1419.69,-448.717C1475.4,-445.612 1609.9,-436.171 1720.19,-413 1725.17,-411.953 1730.35,-410.646 1735.44,-409.223"/>
<polygon fill="lightgray" stroke="lightgray" points="1736.46,-412.571 1745.07,-406.384 1734.48,-405.857 1736.46,-412.571"/>
<text text-anchor="middle" x="1586.19" y="-449.8" font-family="Times New Roman,serif" font-size="14.00" fill="lightgray">wff th</text>
</g>
<!-- n12542 -->
<g id="node24" class="node"><title>n12542</title>
<ellipse fill="none" stroke="lightgray" cx="1392.6" cy="-378" rx="27" ry="18"/>
<text text-anchor="middle" x="1392.6" y="-374.3" font-family="Times New Roman,serif" font-size="14.00" fill="lightgray">wta</text>
</g>
<!-- n12541&#45;&gt;n12542 -->
<g id="edge39" class="edge"><title>n12541&#45;&gt;n12542</title>
</g>
<!-- n12542&#45;&gt;n12548 -->
<g id="edge29" class="edge"><title>n12542&#45;&gt;n12548</title>
<path fill="none" stroke="lightgray" d="M1419.8,-379.237C1483.41,-382.24 1646.66,-389.947 1727.74,-393.774"/>
<polygon fill="lightgray" stroke="lightgray" points="1727.99,-397.29 1738.15,-394.266 1728.32,-390.298 1727.99,-397.29"/>
<text text-anchor="middle" x="1586.19" y="-397.8" font-family="Times New Roman,serif" font-size="14.00" fill="lightgray">wff ta</text>
</g>
<!-- n12543 -->
<g id="node25" class="node"><title>n12543</title>
<ellipse fill="none" stroke="lightgray" cx="1392.6" cy="-306" rx="27" ry="18"/>
<text text-anchor="middle" x="1392.6" y="-302.3" font-family="Times New Roman,serif" font-size="14.00" fill="lightgray">wet</text>
</g>
<!-- n12542&#45;&gt;n12543 -->
<g id="edge40" class="edge"><title>n12542&#45;&gt;n12543</title>
</g>
<!-- n12543&#45;&gt;n12548 -->
<g id="edge30" class="edge"><title>n12543&#45;&gt;n12548</title>
<path fill="none" stroke="lightgray" d="M1417.71,-312.723C1428.24,-315.517 1440.78,-318.65 1452.19,-321 1570.28,-345.31 1606.9,-321.754 1720.19,-363 1728.98,-366.198 1737.9,-370.867 1745.93,-375.692"/>
<polygon fill="lightgray" stroke="lightgray" points="1744.23,-378.756 1754.55,-381.135 1747.97,-372.837 1744.23,-378.756"/>
<text text-anchor="middle" x="1586.19" y="-366.8" font-family="Times New Roman,serif" font-size="14.00" fill="lightgray">wff et</text>
</g>
<!-- n12544 -->
<g id="node26" class="node"><title>n12544</title>
<ellipse fill="none" stroke="lightgray" cx="1392.6" cy="-234" rx="27" ry="18"/>
<text text-anchor="middle" x="1392.6" y="-230.3" font-family="Times New Roman,serif" font-size="14.00" fill="lightgray">wze</text>
</g>
<!-- n12543&#45;&gt;n12544 -->
<g id="edge41" class="edge"><title>n12543&#45;&gt;n12544</title>
</g>
<!-- n12544&#45;&gt;n12548 -->
<g id="edge31" class="edge"><title>n12544&#45;&gt;n12548</title>
<path fill="none" stroke="lightgray" d="M1413.6,-245.393C1424.66,-251.212 1438.82,-257.909 1452.19,-262 1567.35,-297.24 1620.52,-234.4 1720.19,-302 1743.39,-317.737 1758.08,-346.842 1766.33,-368.513"/>
<polygon fill="lightgray" stroke="lightgray" points="1763.11,-369.923 1769.77,-378.168 1769.71,-367.573 1763.11,-369.923"/>
<text text-anchor="middle" x="1586.19" y="-305.8" font-family="Times New Roman,serif" font-size="14.00" fill="lightgray">wff ze</text>
</g>
<!-- n12545 -->
<g id="node27" class="node"><title>n12545</title>
<ellipse fill="none" stroke="lightgray" cx="1392.6" cy="-162" rx="27" ry="18"/>
<text text-anchor="middle" x="1392.6" y="-158.3" font-family="Times New Roman,serif" font-size="14.00" fill="lightgray">wsi</text>
</g>
<!-- n12544&#45;&gt;n12545 -->
<g id="edge42" class="edge"><title>n12544&#45;&gt;n12545</title>
</g>
<!-- n12545&#45;&gt;n12548 -->
<g id="edge32" class="edge"><title>n12545&#45;&gt;n12548</title>
<path fill="none" stroke="lightgray" d="M1416.52,-170.449C1427.27,-174.249 1440.3,-178.627 1452.19,-182 1569.71,-215.331 1628.81,-161.935 1720.19,-243 1756.37,-275.094 1768.62,-332.823 1772.77,-367.456"/>
<polygon fill="lightgray" stroke="lightgray" points="1769.33,-368.244 1773.85,-377.827 1776.3,-367.518 1769.33,-368.244"/>
<text text-anchor="middle" x="1586.19" y="-246.8" font-family="Times New Roman,serif" font-size="14.00" fill="lightgray">wff si</text>
</g>
<!-- n12546 -->
<g id="node28" class="node"><title>n12546</title>
<ellipse fill="none" stroke="lightgray" cx="1392.6" cy="-90" rx="27" ry="18"/>
<text text-anchor="middle" x="1392.6" y="-86.3" font-family="Times New Roman,serif" font-size="14.00" fill="lightgray">wrh</text>
</g>
<!-- n12545&#45;&gt;n12546 -->
<g id="edge43" class="edge"><title>n12545&#45;&gt;n12546</title>
</g>
<!-- n12546&#45;&gt;n12548 -->
<g id="edge33" class="edge"><title>n12546&#45;&gt;n12548</title>
<path fill="none" stroke="lightgray" d="M1419.47,-87.3903C1480.88,-82.7376 1636.56,-80.2524 1720.19,-163 1748.99,-191.493 1765.65,-311.769 1771.96,-367.47"/>
<polygon fill="lightgray" stroke="lightgray" points="1768.51,-368.145 1773.08,-377.703 1775.47,-367.381 1768.51,-368.145"/>
<text text-anchor="middle" x="1586.19" y="-166.8" font-family="Times New Roman,serif" font-size="14.00" fill="lightgray">wff rh</text>
</g>
<!-- n12547 -->
<g id="node29" class="node"><title>n12547</title>
<ellipse fill="orange" stroke="black" cx="1392.6" cy="-18" rx="41.6928" ry="18"/>
<text text-anchor="middle" x="1392.6" y="-14.3" font-family="Times New Roman,serif" font-size="14.00">ad2ant.1</text>
</g>
<!-- n12546&#45;&gt;n12547 -->
<g id="edge44" class="edge"><title>n12546&#45;&gt;n12547</title>
</g>
<!-- n12547&#45;&gt;n12548 -->
<g id="edge34" class="edge"><title>n12547&#45;&gt;n12548</title>
<path fill="none" stroke="black" d="M1430.98,-11.0152C1498.76,-0.713405 1642.15,9.82059 1720.19,-67 1762.58,-108.725 1772.16,-295.382 1774.29,-367.466"/>
<polygon fill="black" stroke="black" points="1770.8,-367.724 1774.56,-377.626 1777.8,-367.536 1770.8,-367.724"/>
<text text-anchor="middle" x="1586.19" y="-70.8" font-family="Times New Roman,serif" font-size="14.00">|&#45; ( ph &#45;&gt; ps )</text>
</g>
</g>
</svg>
