<?xml version="1.0" encoding="UTF-8" standalone="no"?>
<!DOCTYPE svg PUBLIC "-//W3C//DTD SVG 1.1//EN"
 "http://www.w3.org/Graphics/SVG/1.1/DTD/svg11.dtd">
<!-- Generated by graphviz version 2.38.0 (20140413.2041)
 -->
<!-- Title: proof_ad9antr Pages: 1 -->
<svg width="3233pt" height="1117pt"
 viewBox="0.00 0.00 3233.37 1117.18" xmlns="http://www.w3.org/2000/svg" xmlns:xlink="http://www.w3.org/1999/xlink">
<g id="graph0" class="graph" transform="scale(1 1) rotate(0) translate(4 1113.18)">
<title>proof_ad9antr</title>
<polygon fill="white" stroke="none" points="-4,4 -4,-1113.18 3229.37,-1113.18 3229.37,4 -4,4"/>
<!-- n12579 -->
<g id="node1" class="node"><title>n12579</title>
<ellipse fill="none" stroke="lightgray" cx="27" cy="-1091.18" rx="27" ry="18"/>
<text text-anchor="middle" x="27" y="-1087.48" font-family="Times New Roman,serif" font-size="14.00" fill="lightgray">wph</text>
</g>
<!-- n12581 -->
<g id="node2" class="node"><title>n12581</title>
<ellipse fill="none" stroke="lightgray" cx="154" cy="-1059.18" rx="27" ry="18"/>
<text text-anchor="middle" x="154" y="-1055.48" font-family="Times New Roman,serif" font-size="14.00" fill="lightgray">wa</text>
</g>
<!-- n12579&#45;&gt;n12581 -->
<g id="edge1" class="edge"><title>n12579&#45;&gt;n12581</title>
<path fill="none" stroke="lightgray" d="M52.398,-1084.93C71.326,-1080.09 97.7933,-1073.31 118.83,-1067.93"/>
<polygon fill="lightgray" stroke="lightgray" points="119.844,-1071.28 128.664,-1065.41 118.108,-1064.5 119.844,-1071.28"/>
<text text-anchor="middle" x="90.5" y="-1082.98" font-family="Times New Roman,serif" font-size="14.00" fill="lightgray">wff ph</text>
</g>
<!-- n12580 -->
<g id="node3" class="node"><title>n12580</title>
<ellipse fill="none" stroke="lightgray" cx="27" cy="-1019.18" rx="27" ry="18"/>
<text text-anchor="middle" x="27" y="-1015.48" font-family="Times New Roman,serif" font-size="14.00" fill="lightgray">wch</text>
</g>
<!-- n12579&#45;&gt;n12580 -->
<g id="edge4" class="edge"><title>n12579&#45;&gt;n12580</title>
</g>
<!-- n12583 -->
<g id="node4" class="node"><title>n12583</title>
<ellipse fill="none" stroke="lightgray" cx="323" cy="-1027.18" rx="27" ry="18"/>
<text text-anchor="middle" x="323" y="-1023.48" font-family="Times New Roman,serif" font-size="14.00" fill="lightgray">wa</text>
</g>
<!-- n12581&#45;&gt;n12583 -->
<g id="edge3" class="edge"><title>n12581&#45;&gt;n12583</title>
<path fill="none" stroke="lightgray" d="M180.364,-1054.32C208.728,-1048.89 254.861,-1040.05 286.73,-1033.94"/>
<polygon fill="lightgray" stroke="lightgray" points="287.782,-1037.3 296.945,-1031.98 286.465,-1030.43 287.782,-1037.3"/>
<text text-anchor="middle" x="238.5" y="-1053.98" font-family="Times New Roman,serif" font-size="14.00" fill="lightgray">wff ( ph / ch )</text>
</g>
<!-- n12582 -->
<g id="node5" class="node"><title>n12582</title>
<ellipse fill="none" stroke="lightgray" cx="154" cy="-987.181" rx="27" ry="18"/>
<text text-anchor="middle" x="154" y="-983.481" font-family="Times New Roman,serif" font-size="14.00" fill="lightgray">wth</text>
</g>
<!-- n12581&#45;&gt;n12582 -->
<g id="edge7" class="edge"><title>n12581&#45;&gt;n12582</title>
</g>
<!-- n12580&#45;&gt;n12581 -->
<g id="edge2" class="edge"><title>n12580&#45;&gt;n12581</title>
<path fill="none" stroke="lightgray" d="M51.8058,-1026.8C71.0071,-1032.94 98.2415,-1041.66 119.621,-1048.5"/>
<polygon fill="lightgray" stroke="lightgray" points="118.692,-1051.88 129.283,-1051.59 120.825,-1045.21 118.692,-1051.88"/>
<text text-anchor="middle" x="90.5" y="-1047.98" font-family="Times New Roman,serif" font-size="14.00" fill="lightgray">wff ch</text>
</g>
<!-- n12585 -->
<g id="node6" class="node"><title>n12585</title>
<ellipse fill="none" stroke="lightgray" cx="530" cy="-995.181" rx="27" ry="18"/>
<text text-anchor="middle" x="530" y="-991.481" font-family="Times New Roman,serif" font-size="14.00" fill="lightgray">wa</text>
</g>
<!-- n12583&#45;&gt;n12585 -->
<g id="edge6" class="edge"><title>n12583&#45;&gt;n12585</title>
<path fill="none" stroke="lightgray" d="M349.549,-1023.19C385.785,-1017.54 452.26,-1007.16 493.338,-1000.75"/>
<polygon fill="lightgray" stroke="lightgray" points="494.111,-1004.17 503.452,-999.169 493.032,-997.253 494.111,-1004.17"/>
<text text-anchor="middle" x="426.5" y="-1023.98" font-family="Times New Roman,serif" font-size="14.00" fill="lightgray">wff ( ( ph / ch ) / th )</text>
</g>
<!-- n12584 -->
<g id="node7" class="node"><title>n12584</title>
<ellipse fill="none" stroke="lightgray" cx="323" cy="-955.181" rx="27" ry="18"/>
<text text-anchor="middle" x="323" y="-951.481" font-family="Times New Roman,serif" font-size="14.00" fill="lightgray">wta</text>
</g>
<!-- n12583&#45;&gt;n12584 -->
<g id="edge10" class="edge"><title>n12583&#45;&gt;n12584</title>
</g>
<!-- n12582&#45;&gt;n12583 -->
<g id="edge5" class="edge"><title>n12582&#45;&gt;n12583</title>
<path fill="none" stroke="lightgray" d="M179.995,-992.97C204.863,-998.755 244.101,-1007.95 278,-1016.18 281.039,-1016.92 284.194,-1017.69 287.356,-1018.47"/>
<polygon fill="lightgray" stroke="lightgray" points="286.798,-1021.94 297.347,-1020.96 288.486,-1015.15 286.798,-1021.94"/>
<text text-anchor="middle" x="238.5" y="-1019.98" font-family="Times New Roman,serif" font-size="14.00" fill="lightgray">wff th</text>
</g>
<!-- n12587 -->
<g id="node8" class="node"><title>n12587</title>
<ellipse fill="none" stroke="lightgray" cx="774" cy="-963.181" rx="27" ry="18"/>
<text text-anchor="middle" x="774" y="-959.481" font-family="Times New Roman,serif" font-size="14.00" fill="lightgray">wa</text>
</g>
<!-- n12585&#45;&gt;n12587 -->
<g id="edge9" class="edge"><title>n12585&#45;&gt;n12587</title>
<path fill="none" stroke="lightgray" d="M556.898,-991.756C600.292,-986.018 687.771,-974.451 737.082,-967.93"/>
<polygon fill="lightgray" stroke="lightgray" points="737.833,-971.362 747.288,-966.581 736.915,-964.422 737.833,-971.362"/>
<text text-anchor="middle" x="652" y="-991.981" font-family="Times New Roman,serif" font-size="14.00" fill="lightgray">wff ( ( ( ph / ch ) / th ) / ta )</text>
</g>
<!-- n12586 -->
<g id="node9" class="node"><title>n12586</title>
<ellipse fill="none" stroke="lightgray" cx="530" cy="-923.181" rx="27" ry="18"/>
<text text-anchor="middle" x="530" y="-919.481" font-family="Times New Roman,serif" font-size="14.00" fill="lightgray">wet</text>
</g>
<!-- n12585&#45;&gt;n12586 -->
<g id="edge13" class="edge"><title>n12585&#45;&gt;n12586</title>
</g>
<!-- n12584&#45;&gt;n12585 -->
<g id="edge8" class="edge"><title>n12584&#45;&gt;n12585</title>
<path fill="none" stroke="lightgray" d="M349.563,-958.493C381.478,-962.851 437.638,-971.255 485,-982.181 488.442,-982.975 492.011,-983.884 495.561,-984.844"/>
<polygon fill="lightgray" stroke="lightgray" points="494.815,-988.27 505.391,-987.633 496.726,-981.536 494.815,-988.27"/>
<text text-anchor="middle" x="426.5" y="-985.981" font-family="Times New Roman,serif" font-size="14.00" fill="lightgray">wff ta</text>
</g>
<!-- n12589 -->
<g id="node10" class="node"><title>n12589</title>
<ellipse fill="none" stroke="lightgray" cx="1056" cy="-931.181" rx="27" ry="18"/>
<text text-anchor="middle" x="1056" y="-927.481" font-family="Times New Roman,serif" font-size="14.00" fill="lightgray">wa</text>
</g>
<!-- n12587&#45;&gt;n12589 -->
<g id="edge12" class="edge"><title>n12587&#45;&gt;n12589</title>
<path fill="none" stroke="lightgray" d="M800.84,-960.228C851.056,-954.489 961.902,-941.821 1019.18,-935.275"/>
<polygon fill="lightgray" stroke="lightgray" points="1019.68,-938.74 1029.22,-934.127 1018.89,-931.785 1019.68,-938.74"/>
<text text-anchor="middle" x="915" y="-960.981" font-family="Times New Roman,serif" font-size="14.00" fill="lightgray">wff ( ( ( ( ph / ch ) / th ) / ta ) / et )</text>
</g>
<!-- n12588 -->
<g id="node11" class="node"><title>n12588</title>
<ellipse fill="none" stroke="lightgray" cx="774" cy="-891.181" rx="27" ry="18"/>
<text text-anchor="middle" x="774" y="-887.481" font-family="Times New Roman,serif" font-size="14.00" fill="lightgray">wze</text>
</g>
<!-- n12587&#45;&gt;n12588 -->
<g id="edge16" class="edge"><title>n12587&#45;&gt;n12588</title>
</g>
<!-- n12586&#45;&gt;n12587 -->
<g id="edge11" class="edge"><title>n12586&#45;&gt;n12587</title>
<path fill="none" stroke="lightgray" d="M556.847,-925.442C594.859,-929.052 667.943,-937.077 729,-950.181 732.453,-950.922 736.031,-951.796 739.585,-952.736"/>
<polygon fill="lightgray" stroke="lightgray" points="738.847,-956.164 749.421,-955.498 740.74,-949.424 738.847,-956.164"/>
<text text-anchor="middle" x="652" y="-953.981" font-family="Times New Roman,serif" font-size="14.00" fill="lightgray">wff et</text>
</g>
<!-- n12591 -->
<g id="node12" class="node"><title>n12591</title>
<ellipse fill="none" stroke="lightgray" cx="1378" cy="-899.181" rx="27" ry="18"/>
<text text-anchor="middle" x="1378" y="-895.481" font-family="Times New Roman,serif" font-size="14.00" fill="lightgray">wa</text>
</g>
<!-- n12589&#45;&gt;n12591 -->
<g id="edge15" class="edge"><title>n12589&#45;&gt;n12591</title>
<path fill="none" stroke="lightgray" d="M1082.92,-928.589C1139.72,-922.909 1275.3,-909.35 1340.61,-902.819"/>
<polygon fill="lightgray" stroke="lightgray" points="1341.24,-906.274 1350.84,-901.797 1340.54,-899.309 1341.24,-906.274"/>
<text text-anchor="middle" x="1217" y="-929.981" font-family="Times New Roman,serif" font-size="14.00" fill="lightgray">wff ( ( ( ( ( ph / ch ) / th ) / ta ) / et ) / ze )</text>
</g>
<!-- n12590 -->
<g id="node13" class="node"><title>n12590</title>
<ellipse fill="none" stroke="lightgray" cx="1056" cy="-859.181" rx="27" ry="18"/>
<text text-anchor="middle" x="1056" y="-855.481" font-family="Times New Roman,serif" font-size="14.00" fill="lightgray">wsi</text>
</g>
<!-- n12589&#45;&gt;n12590 -->
<g id="edge19" class="edge"><title>n12589&#45;&gt;n12590</title>
</g>
<!-- n12588&#45;&gt;n12589 -->
<g id="edge14" class="edge"><title>n12588&#45;&gt;n12589</title>
<path fill="none" stroke="lightgray" d="M801.109,-892.364C844.913,-894.726 935.796,-901.239 1011,-917.181 1014.67,-917.958 1018.46,-918.918 1022.21,-919.969"/>
<polygon fill="lightgray" stroke="lightgray" points="1021.35,-923.365 1031.94,-922.896 1023.37,-916.662 1021.35,-923.365"/>
<text text-anchor="middle" x="915" y="-920.981" font-family="Times New Roman,serif" font-size="14.00" fill="lightgray">wff ze</text>
</g>
<!-- n12593 -->
<g id="node14" class="node"><title>n12593</title>
<ellipse fill="none" stroke="lightgray" cx="1750.6" cy="-867.181" rx="27" ry="18"/>
<text text-anchor="middle" x="1750.6" y="-863.481" font-family="Times New Roman,serif" font-size="14.00" fill="lightgray">wa</text>
</g>
<!-- n12591&#45;&gt;n12593 -->
<g id="edge18" class="edge"><title>n12591&#45;&gt;n12593</title>
<path fill="none" stroke="lightgray" d="M1405.06,-896.931C1469.91,-891.331 1638.7,-876.756 1713.27,-870.317"/>
<polygon fill="lightgray" stroke="lightgray" points="1713.9,-873.776 1723.57,-869.428 1713.3,-866.802 1713.9,-873.776"/>
<text text-anchor="middle" x="1557" y="-898.981" font-family="Times New Roman,serif" font-size="14.00" fill="lightgray">wff ( ( ( ( ( ( ph / ch ) / th ) / ta ) / et ) / ze ) / si )</text>
</g>
<!-- n12592 -->
<g id="node15" class="node"><title>n12592</title>
<ellipse fill="none" stroke="lightgray" cx="1378" cy="-827.181" rx="27" ry="18"/>
<text text-anchor="middle" x="1378" y="-823.481" font-family="Times New Roman,serif" font-size="14.00" fill="lightgray">wrh</text>
</g>
<!-- n12591&#45;&gt;n12592 -->
<g id="edge22" class="edge"><title>n12591&#45;&gt;n12592</title>
</g>
<!-- n12590&#45;&gt;n12591 -->
<g id="edge17" class="edge"><title>n12590&#45;&gt;n12591</title>
<path fill="none" stroke="lightgray" d="M1083.18,-859.486C1132.57,-860.515 1242.64,-864.974 1333,-884.181 1336.89,-885.007 1340.9,-886.069 1344.86,-887.248"/>
<polygon fill="lightgray" stroke="lightgray" points="1343.86,-890.603 1354.45,-890.344 1346.01,-883.942 1343.86,-890.603"/>
<text text-anchor="middle" x="1217" y="-887.981" font-family="Times New Roman,serif" font-size="14.00" fill="lightgray">wff si</text>
</g>
<!-- n12595 -->
<g id="node16" class="node"><title>n12595</title>
<ellipse fill="none" stroke="lightgray" cx="2172.89" cy="-693.181" rx="27" ry="18"/>
<text text-anchor="middle" x="2172.89" y="-689.481" font-family="Times New Roman,serif" font-size="14.00" fill="lightgray">wa</text>
</g>
<!-- n12593&#45;&gt;n12595 -->
<g id="edge21" class="edge"><title>n12593&#45;&gt;n12595</title>
<path fill="none" stroke="lightgray" d="M1777.56,-868.961C1841.83,-872.007 2010.84,-871.544 2117.19,-793.181 2141.34,-775.389 2156.07,-743.611 2164.06,-720.644"/>
<polygon fill="lightgray" stroke="lightgray" points="2167.4,-721.694 2167.18,-711.101 2160.75,-719.521 2167.4,-721.694"/>
<text text-anchor="middle" x="1963.69" y="-872.981" font-family="Times New Roman,serif" font-size="14.00" fill="lightgray">wff ( ( ( ( ( ( ( ph / ch ) / th ) / ta ) / et ) / ze ) / si ) / rh )</text>
</g>
<!-- n12594 -->
<g id="node17" class="node"><title>n12594</title>
<ellipse fill="none" stroke="lightgray" cx="1750.6" cy="-795.181" rx="28.6953" ry="18"/>
<text text-anchor="middle" x="1750.6" y="-791.481" font-family="Times New Roman,serif" font-size="14.00" fill="lightgray">wmu</text>
</g>
<!-- n12593&#45;&gt;n12594 -->
<g id="edge25" class="edge"><title>n12593&#45;&gt;n12594</title>
</g>
<!-- n12592&#45;&gt;n12593 -->
<g id="edge20" class="edge"><title>n12592&#45;&gt;n12593</title>
<path fill="none" stroke="lightgray" d="M1405.05,-828.019C1458.8,-830.042 1585.81,-836.331 1691,-853.181 1698.99,-854.46 1707.5,-856.245 1715.48,-858.112"/>
<polygon fill="lightgray" stroke="lightgray" points="1714.7,-861.523 1725.24,-860.49 1716.36,-854.722 1714.7,-861.523"/>
<text text-anchor="middle" x="1557" y="-856.981" font-family="Times New Roman,serif" font-size="14.00" fill="lightgray">wff rh</text>
</g>
<!-- n12610 -->
<g id="node18" class="node"><title>n12610</title>
<ellipse fill="cyan" stroke="black" cx="2670.73" cy="-576.181" rx="33.2948" ry="18"/>
<text text-anchor="middle" x="2670.73" y="-572.481" font-family="Times New Roman,serif" font-size="14.00">adantr</text>
</g>
<!-- n12595&#45;&gt;n12610 -->
<g id="edge24" class="edge"><title>n12595&#45;&gt;n12610</title>
<path fill="none" stroke="lightgray" d="M2199.76,-695.015C2271.09,-698.941 2474.88,-702.447 2619.59,-628.181 2632.09,-621.764 2643.25,-611.003 2651.86,-600.93"/>
<polygon fill="lightgray" stroke="lightgray" points="2654.62,-603.074 2658.18,-593.094 2649.18,-598.676 2654.62,-603.074"/>
<text text-anchor="middle" x="2424.09" y="-699.981" font-family="Times New Roman,serif" font-size="14.00" fill="lightgray">wff ( ( ( ( ( ( ( ( ph / ch ) / th ) / ta ) / et ) / ze ) / si ) / rh ) / mu )</text>
</g>
<!-- n12596 -->
<g id="node19" class="node"><title>n12596</title>
<ellipse fill="none" stroke="lightgray" cx="2172.89" cy="-613.181" rx="27" ry="18"/>
<text text-anchor="middle" x="2172.89" y="-609.481" font-family="Times New Roman,serif" font-size="14.00" fill="lightgray">wps</text>
</g>
<!-- n12595&#45;&gt;n12596 -->
<g id="edge51" class="edge"><title>n12595&#45;&gt;n12596</title>
</g>
<!-- n12594&#45;&gt;n12595 -->
<g id="edge23" class="edge"><title>n12594&#45;&gt;n12595</title>
<path fill="none" stroke="lightgray" d="M1776.61,-787.616C1786.97,-784.563 1799.13,-781.084 1810.19,-778.181 1929.29,-746.934 2071.86,-715.029 2136.7,-700.818"/>
<polygon fill="lightgray" stroke="lightgray" points="2137.76,-704.168 2146.78,-698.613 2136.27,-697.329 2137.76,-704.168"/>
<text text-anchor="middle" x="1963.69" y="-781.981" font-family="Times New Roman,serif" font-size="14.00" fill="lightgray">wff mu</text>
</g>
<!-- QED -->
<g id="node33" class="node"><title>QED</title>
</g>
<!-- n12610&#45;&gt;QED -->
<g id="edge50" class="edge"><title>n12610&#45;&gt;QED</title>
<path fill="none" stroke="black" d="M2704.08,-576.181C2795.79,-576.181 3057.28,-576.181 3156.4,-576.181"/>
<polygon fill="black" stroke="black" points="3156.57,-579.681 3166.57,-576.181 3156.57,-572.681 3156.57,-579.681"/>
<text text-anchor="middle" x="2935.38" y="-579.981" font-family="Times New Roman,serif" font-size="14.00">|&#45; ( ( ( ( ( ( ( ( ( ( ph / ch ) / th ) / ta ) / et ) / ze ) / si ) / rh ) / mu ) / la ) &#45;&gt; ps )</text>
</g>
<!-- n12596&#45;&gt;n12610 -->
<g id="edge26" class="edge"><title>n12596&#45;&gt;n12610</title>
<path fill="none" stroke="lightgray" d="M2200.05,-611.816C2268.85,-608.129 2460.51,-597.22 2619.59,-582.181 2622.41,-581.914 2625.32,-581.619 2628.25,-581.306"/>
<polygon fill="lightgray" stroke="lightgray" points="2628.64,-584.784 2638.19,-580.197 2627.87,-577.828 2628.64,-584.784"/>
<text text-anchor="middle" x="2424.09" y="-612.981" font-family="Times New Roman,serif" font-size="14.00" fill="lightgray">wff ps</text>
</g>
<!-- n12597 -->
<g id="node20" class="node"><title>n12597</title>
<ellipse fill="none" stroke="lightgray" cx="2172.89" cy="-541.181" rx="27" ry="18"/>
<text text-anchor="middle" x="2172.89" y="-537.481" font-family="Times New Roman,serif" font-size="14.00" fill="lightgray">wla</text>
</g>
<!-- n12596&#45;&gt;n12597 -->
<g id="edge52" class="edge"><title>n12596&#45;&gt;n12597</title>
</g>
<!-- n12597&#45;&gt;n12610 -->
<g id="edge27" class="edge"><title>n12597&#45;&gt;n12610</title>
<path fill="none" stroke="lightgray" d="M2200.11,-541.619C2269.05,-543.007 2461.03,-548.395 2619.59,-567.181 2622.79,-567.561 2626.1,-568.015 2629.42,-568.515"/>
<polygon fill="lightgray" stroke="lightgray" points="2628.89,-571.974 2639.32,-570.123 2630.01,-565.065 2628.89,-571.974"/>
<text text-anchor="middle" x="2424.09" y="-570.981" font-family="Times New Roman,serif" font-size="14.00" fill="lightgray">wff la</text>
</g>
<!-- n12609 -->
<g id="node22" class="node"><title>n12609</title>
<ellipse fill="cyan" stroke="black" cx="2172.89" cy="-453.181" rx="37.8943" ry="18"/>
<text text-anchor="middle" x="2172.89" y="-449.481" font-family="Times New Roman,serif" font-size="14.00">ad8antr</text>
</g>
<!-- n12597&#45;&gt;n12609 -->
<g id="edge53" class="edge"><title>n12597&#45;&gt;n12609</title>
</g>
<!-- n12598 -->
<g id="node21" class="node"><title>n12598</title>
<ellipse fill="none" stroke="lightgray" cx="1750.6" cy="-741.181" rx="27" ry="18"/>
<text text-anchor="middle" x="1750.6" y="-737.481" font-family="Times New Roman,serif" font-size="14.00" fill="lightgray">wph</text>
</g>
<!-- n12598&#45;&gt;n12609 -->
<g id="edge28" class="edge"><title>n12598&#45;&gt;n12609</title>
<path fill="none" stroke="lightgray" d="M1764.05,-725.525C1774.87,-713.065 1791.69,-696.261 1810.19,-687.181 1934.43,-626.216 2020.33,-734.015 2117.19,-635.181 2155.25,-596.351 2116.82,-565.353 2135.19,-514.181 2139.66,-501.731 2146.81,-489.028 2153.61,-478.461"/>
<polygon fill="lightgray" stroke="lightgray" points="2156.53,-480.396 2159.18,-470.139 2150.71,-476.503 2156.53,-480.396"/>
<text text-anchor="middle" x="1963.69" y="-690.981" font-family="Times New Roman,serif" font-size="14.00" fill="lightgray">wff ph</text>
</g>
<!-- n12599 -->
<g id="node23" class="node"><title>n12599</title>
<ellipse fill="none" stroke="lightgray" cx="1750.6" cy="-669.181" rx="27" ry="18"/>
<text text-anchor="middle" x="1750.6" y="-665.481" font-family="Times New Roman,serif" font-size="14.00" fill="lightgray">wps</text>
</g>
<!-- n12598&#45;&gt;n12599 -->
<g id="edge40" class="edge"><title>n12598&#45;&gt;n12599</title>
</g>
<!-- n12609&#45;&gt;n12610 -->
<g id="edge39" class="edge"><title>n12609&#45;&gt;n12610</title>
<path fill="none" stroke="black" d="M2210.42,-451.23C2289.81,-448.569 2482,-450.776 2619.59,-523.181 2632.23,-529.837 2643.48,-540.922 2652.09,-551.239"/>
<polygon fill="black" stroke="black" points="2649.47,-553.569 2658.42,-559.248 2654.97,-549.231 2649.47,-553.569"/>
<text text-anchor="middle" x="2424.09" y="-526.981" font-family="Times New Roman,serif" font-size="14.00">|&#45; ( ( ( ( ( ( ( ( ( ph / ch ) / th ) / ta ) / et ) / ze ) / si ) / rh ) / mu ) &#45;&gt; ps )</text>
</g>
<!-- n12599&#45;&gt;n12609 -->
<g id="edge29" class="edge"><title>n12599&#45;&gt;n12609</title>
<path fill="none" stroke="lightgray" d="M1765.29,-653.424C1776.2,-642.044 1792.53,-627.449 1810.19,-620.181 1873.51,-594.121 2065.58,-639.171 2117.19,-594.181 2144.66,-570.233 2121.63,-548.006 2135.19,-514.181 2140.07,-502.026 2147.19,-489.483 2153.87,-478.955"/>
<polygon fill="lightgray" stroke="lightgray" points="2157,-480.564 2159.56,-470.282 2151.15,-476.726 2157,-480.564"/>
<text text-anchor="middle" x="1963.69" y="-623.981" font-family="Times New Roman,serif" font-size="14.00" fill="lightgray">wff ps</text>
</g>
<!-- n12600 -->
<g id="node24" class="node"><title>n12600</title>
<ellipse fill="none" stroke="lightgray" cx="1750.6" cy="-597.181" rx="27" ry="18"/>
<text text-anchor="middle" x="1750.6" y="-593.481" font-family="Times New Roman,serif" font-size="14.00" fill="lightgray">wch</text>
</g>
<!-- n12599&#45;&gt;n12600 -->
<g id="edge41" class="edge"><title>n12599&#45;&gt;n12600</title>
</g>
<!-- n12600&#45;&gt;n12609 -->
<g id="edge30" class="edge"><title>n12600&#45;&gt;n12609</title>
<path fill="none" stroke="lightgray" d="M1774.74,-589.104C1785.42,-585.627 1798.34,-581.774 1810.19,-579.181 1944.67,-549.758 2001,-611.987 2117.19,-538.181 2123.04,-534.464 2142.51,-502.948 2156.56,-479.369"/>
<polygon fill="lightgray" stroke="lightgray" points="2159.74,-480.87 2161.82,-470.482 2153.71,-477.303 2159.74,-480.87"/>
<text text-anchor="middle" x="1963.69" y="-582.981" font-family="Times New Roman,serif" font-size="14.00" fill="lightgray">wff ch</text>
</g>
<!-- n12601 -->
<g id="node25" class="node"><title>n12601</title>
<ellipse fill="none" stroke="lightgray" cx="1750.6" cy="-525.181" rx="27" ry="18"/>
<text text-anchor="middle" x="1750.6" y="-521.481" font-family="Times New Roman,serif" font-size="14.00" fill="lightgray">wth</text>
</g>
<!-- n12600&#45;&gt;n12601 -->
<g id="edge42" class="edge"><title>n12600&#45;&gt;n12601</title>
</g>
<!-- n12601&#45;&gt;n12609 -->
<g id="edge31" class="edge"><title>n12601&#45;&gt;n12609</title>
<path fill="none" stroke="lightgray" d="M1777.63,-523.121C1838,-517.975 1991.95,-502.717 2117.19,-472.181 2122.5,-470.886 2128.03,-469.284 2133.43,-467.564"/>
<polygon fill="lightgray" stroke="lightgray" points="2134.58,-470.869 2142.96,-464.381 2132.37,-464.229 2134.58,-470.869"/>
<text text-anchor="middle" x="1963.69" y="-522.981" font-family="Times New Roman,serif" font-size="14.00" fill="lightgray">wff th</text>
</g>
<!-- n12602 -->
<g id="node26" class="node"><title>n12602</title>
<ellipse fill="none" stroke="lightgray" cx="1750.6" cy="-453.181" rx="27" ry="18"/>
<text text-anchor="middle" x="1750.6" y="-449.481" font-family="Times New Roman,serif" font-size="14.00" fill="lightgray">wta</text>
</g>
<!-- n12601&#45;&gt;n12602 -->
<g id="edge43" class="edge"><title>n12601&#45;&gt;n12602</title>
</g>
<!-- n12602&#45;&gt;n12609 -->
<g id="edge32" class="edge"><title>n12602&#45;&gt;n12609</title>
<path fill="none" stroke="lightgray" d="M1777.89,-453.181C1847.38,-453.181 2036.65,-453.181 2125.13,-453.181"/>
<polygon fill="lightgray" stroke="lightgray" points="2125.15,-456.681 2135.15,-453.181 2125.15,-449.681 2125.15,-456.681"/>
<text text-anchor="middle" x="1963.69" y="-456.981" font-family="Times New Roman,serif" font-size="14.00" fill="lightgray">wff ta</text>
</g>
<!-- n12603 -->
<g id="node27" class="node"><title>n12603</title>
<ellipse fill="none" stroke="lightgray" cx="1750.6" cy="-381.181" rx="27" ry="18"/>
<text text-anchor="middle" x="1750.6" y="-377.481" font-family="Times New Roman,serif" font-size="14.00" fill="lightgray">wet</text>
</g>
<!-- n12602&#45;&gt;n12603 -->
<g id="edge44" class="edge"><title>n12602&#45;&gt;n12603</title>
</g>
<!-- n12603&#45;&gt;n12609 -->
<g id="edge33" class="edge"><title>n12603&#45;&gt;n12609</title>
<path fill="none" stroke="lightgray" d="M1777.46,-384.279C1849.61,-393.026 2052.08,-418.305 2117.19,-434.181 2122.5,-435.476 2128.03,-437.078 2133.43,-438.798"/>
<polygon fill="lightgray" stroke="lightgray" points="2132.37,-442.132 2142.96,-441.981 2134.58,-435.493 2132.37,-442.132"/>
<text text-anchor="middle" x="1963.69" y="-437.981" font-family="Times New Roman,serif" font-size="14.00" fill="lightgray">wff et</text>
</g>
<!-- n12604 -->
<g id="node28" class="node"><title>n12604</title>
<ellipse fill="none" stroke="lightgray" cx="1750.6" cy="-309.181" rx="27" ry="18"/>
<text text-anchor="middle" x="1750.6" y="-305.481" font-family="Times New Roman,serif" font-size="14.00" fill="lightgray">wze</text>
</g>
<!-- n12603&#45;&gt;n12604 -->
<g id="edge45" class="edge"><title>n12603&#45;&gt;n12604</title>
</g>
<!-- n12604&#45;&gt;n12609 -->
<g id="edge34" class="edge"><title>n12604&#45;&gt;n12609</title>
<path fill="none" stroke="lightgray" d="M1771.86,-320.485C1782.87,-326.115 1796.92,-332.492 1810.19,-336.181 1942.46,-372.935 2000.1,-298.519 2117.19,-370.181 2138.13,-382.992 2152.68,-407.183 2161.48,-426.157"/>
<polygon fill="lightgray" stroke="lightgray" points="2158.36,-427.749 2165.57,-435.516 2164.78,-424.95 2158.36,-427.749"/>
<text text-anchor="middle" x="1963.69" y="-373.981" font-family="Times New Roman,serif" font-size="14.00" fill="lightgray">wff ze</text>
</g>
<!-- n12605 -->
<g id="node29" class="node"><title>n12605</title>
<ellipse fill="none" stroke="lightgray" cx="1750.6" cy="-237.181" rx="27" ry="18"/>
<text text-anchor="middle" x="1750.6" y="-233.481" font-family="Times New Roman,serif" font-size="14.00" fill="lightgray">wsi</text>
</g>
<!-- n12604&#45;&gt;n12605 -->
<g id="edge46" class="edge"><title>n12604&#45;&gt;n12605</title>
</g>
<!-- n12605&#45;&gt;n12609 -->
<g id="edge35" class="edge"><title>n12605&#45;&gt;n12609</title>
<path fill="none" stroke="lightgray" d="M1769.09,-250.569C1780.25,-258.423 1795.37,-267.826 1810.19,-273.181 1939.83,-320.01 2008.76,-232.085 2117.19,-317.181 2150.65,-343.436 2163.73,-393.365 2168.79,-424.873"/>
<polygon fill="lightgray" stroke="lightgray" points="2165.32,-425.39 2170.21,-434.791 2172.25,-424.395 2165.32,-425.39"/>
<text text-anchor="middle" x="1963.69" y="-320.981" font-family="Times New Roman,serif" font-size="14.00" fill="lightgray">wff si</text>
</g>
<!-- n12606 -->
<g id="node30" class="node"><title>n12606</title>
<ellipse fill="none" stroke="lightgray" cx="1750.6" cy="-165.181" rx="27" ry="18"/>
<text text-anchor="middle" x="1750.6" y="-161.481" font-family="Times New Roman,serif" font-size="14.00" fill="lightgray">wrh</text>
</g>
<!-- n12605&#45;&gt;n12606 -->
<g id="edge47" class="edge"><title>n12605&#45;&gt;n12606</title>
</g>
<!-- n12606&#45;&gt;n12609 -->
<g id="edge36" class="edge"><title>n12606&#45;&gt;n12609</title>
<path fill="none" stroke="lightgray" d="M1774.83,-173.244C1785.53,-176.82 1798.44,-180.942 1810.19,-184.181 1945.11,-221.356 2016.08,-157.427 2117.19,-254.181 2164.56,-299.51 2172.16,-381.716 2172.64,-424.918"/>
<polygon fill="lightgray" stroke="lightgray" points="2169.14,-425.01 2172.63,-435.014 2176.14,-425.018 2169.14,-425.01"/>
<text text-anchor="middle" x="1963.69" y="-257.981" font-family="Times New Roman,serif" font-size="14.00" fill="lightgray">wff rh</text>
</g>
<!-- n12607 -->
<g id="node31" class="node"><title>n12607</title>
<ellipse fill="none" stroke="lightgray" cx="1750.6" cy="-93.1808" rx="28.6953" ry="18"/>
<text text-anchor="middle" x="1750.6" y="-89.4808" font-family="Times New Roman,serif" font-size="14.00" fill="lightgray">wmu</text>
</g>
<!-- n12606&#45;&gt;n12607 -->
<g id="edge48" class="edge"><title>n12606&#45;&gt;n12607</title>
</g>
<!-- n12607&#45;&gt;n12609 -->
<g id="edge37" class="edge"><title>n12607&#45;&gt;n12609</title>
<path fill="none" stroke="lightgray" d="M1778.71,-89.3543C1846.39,-81.4713 2023.96,-71.3199 2117.19,-165.181 2153.39,-201.619 2166.51,-359.606 2170.44,-424.841"/>
<polygon fill="lightgray" stroke="lightgray" points="2166.97,-425.407 2171.03,-435.191 2173.96,-425.007 2166.97,-425.407"/>
<text text-anchor="middle" x="1963.69" y="-168.981" font-family="Times New Roman,serif" font-size="14.00" fill="lightgray">wff mu</text>
</g>
<!-- n12608 -->
<g id="node32" class="node"><title>n12608</title>
<ellipse fill="orange" stroke="black" cx="1750.6" cy="-21.1808" rx="41.6928" ry="18"/>
<text text-anchor="middle" x="1750.6" y="-17.4808" font-family="Times New Roman,serif" font-size="14.00">ad2ant.1</text>
</g>
<!-- n12607&#45;&gt;n12608 -->
<g id="edge49" class="edge"><title>n12607&#45;&gt;n12608</title>
</g>
<!-- n12608&#45;&gt;n12609 -->
<g id="edge38" class="edge"><title>n12608&#45;&gt;n12609</title>
<path fill="none" stroke="black" d="M1787.69,-12.9635C1860.97,1.36894 2027.77,21.6519 2117.19,-66.1808 2167.94,-116.021 2172.25,-343.757 2172.15,-424.606"/>
<polygon fill="black" stroke="black" points="2168.65,-424.992 2172.11,-435.005 2175.65,-425.019 2168.65,-424.992"/>
<text text-anchor="middle" x="1963.69" y="-69.9808" font-family="Times New Roman,serif" font-size="14.00">|&#45; ( ph &#45;&gt; ps )</text>
</g>
</g>
</svg>
