<?xml version="1.0" encoding="UTF-8" standalone="no"?>
<!DOCTYPE svg PUBLIC "-//W3C//DTD SVG 1.1//EN"
 "http://www.w3.org/Graphics/SVG/1.1/DTD/svg11.dtd">
<!-- Generated by graphviz version 2.38.0 (20140413.2041)
 -->
<!-- Title: proof_adantrrl Pages: 1 -->
<svg width="775pt" height="516pt"
 viewBox="0.00 0.00 774.68 516.00" xmlns="http://www.w3.org/2000/svg" xmlns:xlink="http://www.w3.org/1999/xlink">
<g id="graph0" class="graph" transform="scale(1 1) rotate(0) translate(4 512)">
<title>proof_adantrrl</title>
<polygon fill="white" stroke="none" points="-4,4 -4,-512 770.681,-512 770.681,4 -4,4"/>
<!-- n12257 -->
<g id="node1" class="node"><title>n12257</title>
<ellipse fill="none" stroke="lightgray" cx="27" cy="-490" rx="27" ry="18"/>
<text text-anchor="middle" x="27" y="-486.3" font-family="Times New Roman,serif" font-size="14.00" fill="lightgray">wta</text>
</g>
<!-- n12259 -->
<g id="node2" class="node"><title>n12259</title>
<ellipse fill="none" stroke="lightgray" cx="171.196" cy="-450" rx="27" ry="18"/>
<text text-anchor="middle" x="171.196" y="-446.3" font-family="Times New Roman,serif" font-size="14.00" fill="lightgray">wa</text>
</g>
<!-- n12257&#45;&gt;n12259 -->
<g id="edge1" class="edge"><title>n12257&#45;&gt;n12259</title>
<path fill="none" stroke="lightgray" d="M52.1216,-483.215C75.2055,-476.721 110.248,-466.864 136.166,-459.573"/>
<polygon fill="lightgray" stroke="lightgray" points="137.278,-462.896 145.956,-456.819 135.382,-456.157 137.278,-462.896"/>
<text text-anchor="middle" x="90.5" y="-481.8" font-family="Times New Roman,serif" font-size="14.00" fill="lightgray">wff ta</text>
</g>
<!-- n12258 -->
<g id="node3" class="node"><title>n12258</title>
<ellipse fill="none" stroke="lightgray" cx="27" cy="-418" rx="27" ry="18"/>
<text text-anchor="middle" x="27" y="-414.3" font-family="Times New Roman,serif" font-size="14.00" fill="lightgray">wch</text>
</g>
<!-- n12257&#45;&gt;n12258 -->
<g id="edge4" class="edge"><title>n12257&#45;&gt;n12258</title>
</g>
<!-- n12268 -->
<g id="node4" class="node"><title>n12268</title>
<ellipse fill="cyan" stroke="black" cx="442.789" cy="-234" rx="36.2938" ry="18"/>
<text text-anchor="middle" x="442.789" y="-230.3" font-family="Times New Roman,serif" font-size="14.00">sylanr2</text>
</g>
<!-- n12259&#45;&gt;n12268 -->
<g id="edge3" class="edge"><title>n12259&#45;&gt;n12268</title>
<path fill="none" stroke="lightgray" d="M198.218,-450.19C242.999,-449.09 334.962,-440.364 388.392,-390 424.354,-356.102 436.096,-296.978 439.93,-262.067"/>
<polygon fill="lightgray" stroke="lightgray" points="443.419,-262.352 440.884,-252.065 436.45,-261.688 443.419,-262.352"/>
<text text-anchor="middle" x="310.892" y="-451.8" font-family="Times New Roman,serif" font-size="14.00" fill="lightgray">wff ( ta / ch )</text>
</g>
<!-- n12260 -->
<g id="node5" class="node"><title>n12260</title>
<ellipse fill="none" stroke="lightgray" cx="171.196" cy="-378" rx="27" ry="18"/>
<text text-anchor="middle" x="171.196" y="-374.3" font-family="Times New Roman,serif" font-size="14.00" fill="lightgray">wph</text>
</g>
<!-- n12259&#45;&gt;n12260 -->
<g id="edge15" class="edge"><title>n12259&#45;&gt;n12260</title>
</g>
<!-- n12258&#45;&gt;n12259 -->
<g id="edge2" class="edge"><title>n12258&#45;&gt;n12259</title>
<path fill="none" stroke="lightgray" d="M52.8245,-423.475C68.8591,-427.021 90.1694,-431.754 109,-436 117.635,-437.947 126.951,-440.068 135.646,-442.056"/>
<polygon fill="lightgray" stroke="lightgray" points="134.961,-445.49 145.49,-444.311 136.524,-438.667 134.961,-445.49"/>
<text text-anchor="middle" x="90.5" y="-439.8" font-family="Times New Roman,serif" font-size="14.00" fill="lightgray">wff ch</text>
</g>
<!-- QED -->
<g id="node13" class="node"><title>QED</title>
</g>
<!-- n12268&#45;&gt;QED -->
<g id="edge14" class="edge"><title>n12268&#45;&gt;QED</title>
<path fill="none" stroke="black" d="M479.38,-234C534.732,-234 640.997,-234 698.023,-234"/>
<polygon fill="black" stroke="black" points="698.075,-237.5 708.075,-234 698.075,-230.5 698.075,-237.5"/>
<text text-anchor="middle" x="593.686" y="-237.8" font-family="Times New Roman,serif" font-size="14.00">|&#45; ( ( ph / ( ps / ( ta / ch ) ) ) &#45;&gt; th )</text>
</g>
<!-- n12260&#45;&gt;n12268 -->
<g id="edge5" class="edge"><title>n12260&#45;&gt;n12268</title>
<path fill="none" stroke="lightgray" d="M198.304,-375.626C241.618,-370.55 329.399,-355.32 388.392,-312 406.361,-298.805 420.295,-277.651 429.417,-260.699"/>
<polygon fill="lightgray" stroke="lightgray" points="432.536,-262.287 433.985,-251.791 426.307,-259.093 432.536,-262.287"/>
<text text-anchor="middle" x="310.892" y="-374.8" font-family="Times New Roman,serif" font-size="14.00" fill="lightgray">wff ph</text>
</g>
<!-- n12261 -->
<g id="node6" class="node"><title>n12261</title>
<ellipse fill="none" stroke="lightgray" cx="171.196" cy="-306" rx="27" ry="18"/>
<text text-anchor="middle" x="171.196" y="-302.3" font-family="Times New Roman,serif" font-size="14.00" fill="lightgray">wps</text>
</g>
<!-- n12260&#45;&gt;n12261 -->
<g id="edge16" class="edge"><title>n12260&#45;&gt;n12261</title>
</g>
<!-- n12261&#45;&gt;n12268 -->
<g id="edge6" class="edge"><title>n12261&#45;&gt;n12268</title>
<path fill="none" stroke="lightgray" d="M197.057,-300.767C237.5,-292.061 319.907,-273.521 388.392,-253 393.389,-251.503 398.607,-249.811 403.739,-248.069"/>
<polygon fill="lightgray" stroke="lightgray" points="405.13,-251.29 413.423,-244.696 402.828,-244.68 405.13,-251.29"/>
<text text-anchor="middle" x="310.892" y="-296.8" font-family="Times New Roman,serif" font-size="14.00" fill="lightgray">wff ps</text>
</g>
<!-- n12262 -->
<g id="node7" class="node"><title>n12262</title>
<ellipse fill="none" stroke="lightgray" cx="171.196" cy="-234" rx="27" ry="18"/>
<text text-anchor="middle" x="171.196" y="-230.3" font-family="Times New Roman,serif" font-size="14.00" fill="lightgray">wch</text>
</g>
<!-- n12261&#45;&gt;n12262 -->
<g id="edge17" class="edge"><title>n12261&#45;&gt;n12262</title>
</g>
<!-- n12262&#45;&gt;n12268 -->
<g id="edge7" class="edge"><title>n12262&#45;&gt;n12268</title>
<path fill="none" stroke="lightgray" d="M198.537,-234C244.313,-234 339.075,-234 395.868,-234"/>
<polygon fill="lightgray" stroke="lightgray" points="396.01,-237.5 406.01,-234 396.01,-230.5 396.01,-237.5"/>
<text text-anchor="middle" x="310.892" y="-237.8" font-family="Times New Roman,serif" font-size="14.00" fill="lightgray">wff ch</text>
</g>
<!-- n12263 -->
<g id="node8" class="node"><title>n12263</title>
<ellipse fill="none" stroke="lightgray" cx="171.196" cy="-162" rx="27" ry="18"/>
<text text-anchor="middle" x="171.196" y="-158.3" font-family="Times New Roman,serif" font-size="14.00" fill="lightgray">wth</text>
</g>
<!-- n12262&#45;&gt;n12263 -->
<g id="edge18" class="edge"><title>n12262&#45;&gt;n12263</title>
</g>
<!-- n12263&#45;&gt;n12268 -->
<g id="edge8" class="edge"><title>n12263&#45;&gt;n12268</title>
<path fill="none" stroke="lightgray" d="M197.057,-167.233C237.5,-175.939 319.907,-194.479 388.392,-215 393.389,-216.497 398.607,-218.189 403.739,-219.931"/>
<polygon fill="lightgray" stroke="lightgray" points="402.828,-223.32 413.423,-223.304 405.13,-216.71 402.828,-223.32"/>
<text text-anchor="middle" x="310.892" y="-218.8" font-family="Times New Roman,serif" font-size="14.00" fill="lightgray">wff th</text>
</g>
<!-- n12266 -->
<g id="node10" class="node"><title>n12266</title>
<ellipse fill="cyan" stroke="black" cx="171.196" cy="-90" rx="31.3957" ry="18"/>
<text text-anchor="middle" x="171.196" y="-86.3" font-family="Times New Roman,serif" font-size="14.00">simpr</text>
</g>
<!-- n12263&#45;&gt;n12266 -->
<g id="edge19" class="edge"><title>n12263&#45;&gt;n12266</title>
</g>
<!-- n12264 -->
<g id="node9" class="node"><title>n12264</title>
<ellipse fill="none" stroke="lightgray" cx="27" cy="-127" rx="27" ry="18"/>
<text text-anchor="middle" x="27" y="-123.3" font-family="Times New Roman,serif" font-size="14.00" fill="lightgray">wta</text>
</g>
<!-- n12264&#45;&gt;n12266 -->
<g id="edge9" class="edge"><title>n12264&#45;&gt;n12266</title>
<path fill="none" stroke="lightgray" d="M52.4444,-120.639C74.3586,-114.937 106.86,-106.48 132.168,-99.895"/>
<polygon fill="lightgray" stroke="lightgray" points="133.377,-103.197 142.173,-97.2917 131.614,-96.4228 133.377,-103.197"/>
<text text-anchor="middle" x="90.5" y="-119.8" font-family="Times New Roman,serif" font-size="14.00" fill="lightgray">wff ta</text>
</g>
<!-- n12265 -->
<g id="node11" class="node"><title>n12265</title>
<ellipse fill="none" stroke="lightgray" cx="27" cy="-55" rx="27" ry="18"/>
<text text-anchor="middle" x="27" y="-51.3" font-family="Times New Roman,serif" font-size="14.00" fill="lightgray">wch</text>
</g>
<!-- n12264&#45;&gt;n12265 -->
<g id="edge12" class="edge"><title>n12264&#45;&gt;n12265</title>
</g>
<!-- n12266&#45;&gt;n12268 -->
<g id="edge11" class="edge"><title>n12266&#45;&gt;n12268</title>
<path fill="none" stroke="black" d="M202.221,-93.056C246.705,-98.871 331.027,-114.954 388.392,-157 406.051,-169.943 419.901,-190.559 429.066,-207.203"/>
<polygon fill="black" stroke="black" points="426.172,-209.222 433.914,-216.455 432.373,-205.973 426.172,-209.222"/>
<text text-anchor="middle" x="310.892" y="-160.8" font-family="Times New Roman,serif" font-size="14.00">|&#45; ( ( ta / ch ) &#45;&gt; ch )</text>
</g>
<!-- n12267 -->
<g id="node12" class="node"><title>n12267</title>
<ellipse fill="orange" stroke="black" cx="171.196" cy="-18" rx="44.393" ry="18"/>
<text text-anchor="middle" x="171.196" y="-14.3" font-family="Times New Roman,serif" font-size="14.00">adantr2.1</text>
</g>
<!-- n12266&#45;&gt;n12267 -->
<g id="edge20" class="edge"><title>n12266&#45;&gt;n12267</title>
</g>
<!-- n12265&#45;&gt;n12266 -->
<g id="edge10" class="edge"><title>n12265&#45;&gt;n12266</title>
<path fill="none" stroke="lightgray" d="M52.7687,-61.0965C74.7283,-66.5017 107.132,-74.4775 132.34,-80.6823"/>
<polygon fill="lightgray" stroke="lightgray" points="131.757,-84.1431 142.304,-83.1347 133.431,-77.346 131.757,-84.1431"/>
<text text-anchor="middle" x="90.5" y="-78.8" font-family="Times New Roman,serif" font-size="14.00" fill="lightgray">wff ch</text>
</g>
<!-- n12267&#45;&gt;n12268 -->
<g id="edge13" class="edge"><title>n12267&#45;&gt;n12268</title>
<path fill="none" stroke="black" d="M215.684,-19.0441C263.932,-22.5169 341.186,-35.2979 388.392,-80 423.619,-113.358 435.611,-171.106 439.69,-205.615"/>
<polygon fill="black" stroke="black" points="436.248,-206.354 440.756,-215.942 443.211,-205.635 436.248,-206.354"/>
<text text-anchor="middle" x="310.892" y="-83.8" font-family="Times New Roman,serif" font-size="14.00">|&#45; ( ( ph / ( ps / ch ) ) &#45;&gt; th )</text>
</g>
</g>
</svg>
