<?xml version="1.0" encoding="UTF-8" standalone="no"?>
<!DOCTYPE svg PUBLIC "-//W3C//DTD SVG 1.1//EN"
 "http://www.w3.org/Graphics/SVG/1.1/DTD/svg11.dtd">
<!-- Generated by graphviz version 2.38.0 (20140413.2041)
 -->
<!-- Title: proof_adantlrr Pages: 1 -->
<svg width="772pt" height="516pt"
 viewBox="0.00 0.00 772.08 516.00" xmlns="http://www.w3.org/2000/svg" xmlns:xlink="http://www.w3.org/1999/xlink">
<g id="graph0" class="graph" transform="scale(1 1) rotate(0) translate(4 512)">
<title>proof_adantlrr</title>
<polygon fill="white" stroke="none" points="-4,4 -4,-512 768.081,-512 768.081,4 -4,4"/>
<!-- n12221 -->
<g id="node1" class="node"><title>n12221</title>
<ellipse fill="none" stroke="lightgray" cx="27" cy="-490" rx="27" ry="18"/>
<text text-anchor="middle" x="27" y="-486.3" font-family="Times New Roman,serif" font-size="14.00" fill="lightgray">wps</text>
</g>
<!-- n12223 -->
<g id="node2" class="node"><title>n12223</title>
<ellipse fill="none" stroke="lightgray" cx="170.546" cy="-450" rx="27" ry="18"/>
<text text-anchor="middle" x="170.546" y="-446.3" font-family="Times New Roman,serif" font-size="14.00" fill="lightgray">wa</text>
</g>
<!-- n12221&#45;&gt;n12223 -->
<g id="edge1" class="edge"><title>n12221&#45;&gt;n12223</title>
<path fill="none" stroke="lightgray" d="M52.0114,-483.215C74.9897,-476.721 109.872,-466.864 135.672,-459.573"/>
<polygon fill="lightgray" stroke="lightgray" points="136.746,-462.906 145.417,-456.819 134.842,-456.17 136.746,-462.906"/>
<text text-anchor="middle" x="90.5" y="-481.8" font-family="Times New Roman,serif" font-size="14.00" fill="lightgray">wff ps</text>
</g>
<!-- n12222 -->
<g id="node3" class="node"><title>n12222</title>
<ellipse fill="none" stroke="lightgray" cx="27" cy="-418" rx="27" ry="18"/>
<text text-anchor="middle" x="27" y="-414.3" font-family="Times New Roman,serif" font-size="14.00" fill="lightgray">wta</text>
</g>
<!-- n12221&#45;&gt;n12222 -->
<g id="edge4" class="edge"><title>n12221&#45;&gt;n12222</title>
</g>
<!-- n12232 -->
<g id="node4" class="node"><title>n12232</title>
<ellipse fill="cyan" stroke="black" cx="440.839" cy="-234" rx="35.9954" ry="18"/>
<text text-anchor="middle" x="440.839" y="-230.3" font-family="Times New Roman,serif" font-size="14.00">sylanl2</text>
</g>
<!-- n12223&#45;&gt;n12232 -->
<g id="edge3" class="edge"><title>n12223&#45;&gt;n12232</title>
<path fill="none" stroke="lightgray" d="M197.867,-450.177C242.676,-449.032 334.065,-440.21 387.092,-390 422.932,-356.064 434.421,-296.953 438.103,-262.055"/>
<polygon fill="lightgray" stroke="lightgray" points="441.593,-262.333 439.014,-252.057 434.621,-261.698 441.593,-262.333"/>
<text text-anchor="middle" x="309.592" y="-451.8" font-family="Times New Roman,serif" font-size="14.00" fill="lightgray">wff ( ps / ta )</text>
</g>
<!-- n12224 -->
<g id="node5" class="node"><title>n12224</title>
<ellipse fill="none" stroke="lightgray" cx="170.546" cy="-378" rx="27" ry="18"/>
<text text-anchor="middle" x="170.546" y="-374.3" font-family="Times New Roman,serif" font-size="14.00" fill="lightgray">wph</text>
</g>
<!-- n12223&#45;&gt;n12224 -->
<g id="edge15" class="edge"><title>n12223&#45;&gt;n12224</title>
</g>
<!-- n12222&#45;&gt;n12223 -->
<g id="edge2" class="edge"><title>n12222&#45;&gt;n12223</title>
<path fill="none" stroke="lightgray" d="M52.8279,-423.46C68.8639,-427 90.1744,-431.732 109,-436 117.378,-437.899 126.402,-439.972 134.859,-441.926"/>
<polygon fill="lightgray" stroke="lightgray" points="134.281,-445.384 144.812,-444.23 135.86,-438.565 134.281,-445.384"/>
<text text-anchor="middle" x="90.5" y="-439.8" font-family="Times New Roman,serif" font-size="14.00" fill="lightgray">wff ta</text>
</g>
<!-- QED -->
<g id="node13" class="node"><title>QED</title>
</g>
<!-- n12232&#45;&gt;QED -->
<g id="edge14" class="edge"><title>n12232&#45;&gt;QED</title>
<path fill="none" stroke="black" d="M476.77,-234C531.778,-234 638.192,-234 695.334,-234"/>
<polygon fill="black" stroke="black" points="695.407,-237.5 705.407,-234 695.407,-230.5 695.407,-237.5"/>
<text text-anchor="middle" x="591.086" y="-237.8" font-family="Times New Roman,serif" font-size="14.00">|&#45; ( ( ( ph / ( ps / ta ) ) / ch ) &#45;&gt; th )</text>
</g>
<!-- n12224&#45;&gt;n12232 -->
<g id="edge5" class="edge"><title>n12224&#45;&gt;n12232</title>
<path fill="none" stroke="lightgray" d="M197.603,-375.643C240.828,-370.59 328.403,-355.393 387.092,-312 404.783,-298.92 418.451,-278.035 427.437,-261.166"/>
<polygon fill="lightgray" stroke="lightgray" points="430.791,-262.291 432.182,-251.788 424.544,-259.131 430.791,-262.291"/>
<text text-anchor="middle" x="309.592" y="-374.8" font-family="Times New Roman,serif" font-size="14.00" fill="lightgray">wff ph</text>
</g>
<!-- n12225 -->
<g id="node6" class="node"><title>n12225</title>
<ellipse fill="none" stroke="lightgray" cx="170.546" cy="-306" rx="27" ry="18"/>
<text text-anchor="middle" x="170.546" y="-302.3" font-family="Times New Roman,serif" font-size="14.00" fill="lightgray">wps</text>
</g>
<!-- n12224&#45;&gt;n12225 -->
<g id="edge16" class="edge"><title>n12224&#45;&gt;n12225</title>
</g>
<!-- n12225&#45;&gt;n12232 -->
<g id="edge6" class="edge"><title>n12225&#45;&gt;n12232</title>
<path fill="none" stroke="lightgray" d="M196.669,-300.719C237.117,-292.016 319.032,-273.564 387.092,-253 392.032,-251.508 397.188,-249.818 402.259,-248.078"/>
<polygon fill="lightgray" stroke="lightgray" points="403.558,-251.331 411.826,-244.706 401.231,-244.729 403.558,-251.331"/>
<text text-anchor="middle" x="309.592" y="-296.8" font-family="Times New Roman,serif" font-size="14.00" fill="lightgray">wff ps</text>
</g>
<!-- n12226 -->
<g id="node7" class="node"><title>n12226</title>
<ellipse fill="none" stroke="lightgray" cx="170.546" cy="-234" rx="27" ry="18"/>
<text text-anchor="middle" x="170.546" y="-230.3" font-family="Times New Roman,serif" font-size="14.00" fill="lightgray">wch</text>
</g>
<!-- n12225&#45;&gt;n12226 -->
<g id="edge17" class="edge"><title>n12225&#45;&gt;n12226</title>
</g>
<!-- n12226&#45;&gt;n12232 -->
<g id="edge7" class="edge"><title>n12226&#45;&gt;n12232</title>
<path fill="none" stroke="lightgray" d="M197.76,-234C243.439,-234 338.134,-234 394.6,-234"/>
<polygon fill="lightgray" stroke="lightgray" points="394.678,-237.5 404.678,-234 394.678,-230.5 394.678,-237.5"/>
<text text-anchor="middle" x="309.592" y="-237.8" font-family="Times New Roman,serif" font-size="14.00" fill="lightgray">wff ch</text>
</g>
<!-- n12227 -->
<g id="node8" class="node"><title>n12227</title>
<ellipse fill="none" stroke="lightgray" cx="170.546" cy="-162" rx="27" ry="18"/>
<text text-anchor="middle" x="170.546" y="-158.3" font-family="Times New Roman,serif" font-size="14.00" fill="lightgray">wth</text>
</g>
<!-- n12226&#45;&gt;n12227 -->
<g id="edge18" class="edge"><title>n12226&#45;&gt;n12227</title>
</g>
<!-- n12227&#45;&gt;n12232 -->
<g id="edge8" class="edge"><title>n12227&#45;&gt;n12232</title>
<path fill="none" stroke="lightgray" d="M196.669,-167.281C237.117,-175.984 319.032,-194.436 387.092,-215 392.032,-216.492 397.188,-218.182 402.259,-219.922"/>
<polygon fill="lightgray" stroke="lightgray" points="401.231,-223.271 411.826,-223.294 403.558,-216.669 401.231,-223.271"/>
<text text-anchor="middle" x="309.592" y="-218.8" font-family="Times New Roman,serif" font-size="14.00" fill="lightgray">wff th</text>
</g>
<!-- n12230 -->
<g id="node10" class="node"><title>n12230</title>
<ellipse fill="cyan" stroke="black" cx="170.546" cy="-90" rx="30.5947" ry="18"/>
<text text-anchor="middle" x="170.546" y="-86.3" font-family="Times New Roman,serif" font-size="14.00">simpl</text>
</g>
<!-- n12227&#45;&gt;n12230 -->
<g id="edge19" class="edge"><title>n12227&#45;&gt;n12230</title>
</g>
<!-- n12228 -->
<g id="node9" class="node"><title>n12228</title>
<ellipse fill="none" stroke="lightgray" cx="27" cy="-127" rx="27" ry="18"/>
<text text-anchor="middle" x="27" y="-123.3" font-family="Times New Roman,serif" font-size="14.00" fill="lightgray">wps</text>
</g>
<!-- n12228&#45;&gt;n12230 -->
<g id="edge9" class="edge"><title>n12228&#45;&gt;n12230</title>
<path fill="none" stroke="lightgray" d="M52.3326,-120.639C74.2857,-114.901 106.912,-106.372 132.173,-99.7694"/>
<polygon fill="lightgray" stroke="lightgray" points="133.357,-103.077 142.147,-97.1621 131.587,-96.3049 133.357,-103.077"/>
<text text-anchor="middle" x="90.5" y="-119.8" font-family="Times New Roman,serif" font-size="14.00" fill="lightgray">wff ps</text>
</g>
<!-- n12229 -->
<g id="node11" class="node"><title>n12229</title>
<ellipse fill="none" stroke="lightgray" cx="27" cy="-55" rx="27" ry="18"/>
<text text-anchor="middle" x="27" y="-51.3" font-family="Times New Roman,serif" font-size="14.00" fill="lightgray">wta</text>
</g>
<!-- n12228&#45;&gt;n12229 -->
<g id="edge12" class="edge"><title>n12228&#45;&gt;n12229</title>
</g>
<!-- n12230&#45;&gt;n12232 -->
<g id="edge11" class="edge"><title>n12230&#45;&gt;n12232</title>
<path fill="none" stroke="black" d="M200.78,-92.9423C244.972,-98.652 329.707,-114.649 387.092,-157 404.639,-169.95 418.315,-190.565 427.34,-207.207"/>
<polygon fill="black" stroke="black" points="424.417,-209.175 432.111,-216.459 430.638,-205.967 424.417,-209.175"/>
<text text-anchor="middle" x="309.592" y="-160.8" font-family="Times New Roman,serif" font-size="14.00">|&#45; ( ( ps / ta ) &#45;&gt; ps )</text>
</g>
<!-- n12231 -->
<g id="node12" class="node"><title>n12231</title>
<ellipse fill="orange" stroke="black" cx="170.546" cy="-18" rx="43.5923" ry="18"/>
<text text-anchor="middle" x="170.546" y="-14.3" font-family="Times New Roman,serif" font-size="14.00">adantl2.1</text>
</g>
<!-- n12230&#45;&gt;n12231 -->
<g id="edge20" class="edge"><title>n12230&#45;&gt;n12231</title>
</g>
<!-- n12229&#45;&gt;n12230 -->
<g id="edge10" class="edge"><title>n12229&#45;&gt;n12230</title>
<path fill="none" stroke="lightgray" d="M52.6555,-61.0965C74.5147,-66.5017 106.77,-74.4775 131.864,-80.6823"/>
<polygon fill="lightgray" stroke="lightgray" points="131.234,-84.1319 141.782,-83.1347 132.914,-77.3366 131.234,-84.1319"/>
<text text-anchor="middle" x="90.5" y="-78.8" font-family="Times New Roman,serif" font-size="14.00" fill="lightgray">wff ta</text>
</g>
<!-- n12231&#45;&gt;n12232 -->
<g id="edge13" class="edge"><title>n12231&#45;&gt;n12232</title>
<path fill="none" stroke="black" d="M214.073,-18.9885C262.143,-22.3762 339.837,-35.0462 387.092,-80 422.197,-113.395 433.939,-171.131 437.866,-205.627"/>
<polygon fill="black" stroke="black" points="434.42,-206.342 438.887,-215.95 441.386,-205.654 434.42,-206.342"/>
<text text-anchor="middle" x="309.592" y="-83.8" font-family="Times New Roman,serif" font-size="14.00">|&#45; ( ( ( ph / ps ) / ch ) &#45;&gt; th )</text>
</g>
</g>
</svg>
