<?xml version="1.0" encoding="UTF-8" standalone="no"?>
<!DOCTYPE svg PUBLIC "-//W3C//DTD SVG 1.1//EN"
 "http://www.w3.org/Graphics/SVG/1.1/DTD/svg11.dtd">
<!-- Generated by graphviz version 2.38.0 (20140413.2041)
 -->
<!-- Title: proof_adantrd Pages: 1 -->
<svg width="699pt" height="444pt"
 viewBox="0.00 0.00 699.19 444.00" xmlns="http://www.w3.org/2000/svg" xmlns:xlink="http://www.w3.org/1999/xlink">
<g id="graph0" class="graph" transform="scale(1 1) rotate(0) translate(4 440)">
<title>proof_adantrd</title>
<polygon fill="white" stroke="none" points="-4,4 -4,-440 695.187,-440 695.187,4 -4,4"/>
<!-- n8181 -->
<g id="node1" class="node"><title>n8181</title>
<ellipse fill="none" stroke="lightgray" cx="27" cy="-418" rx="27" ry="18"/>
<text text-anchor="middle" x="27" y="-414.3" font-family="Times New Roman,serif" font-size="14.00" fill="lightgray">wps</text>
</g>
<!-- n8183 -->
<g id="node2" class="node"><title>n8183</title>
<ellipse fill="none" stroke="lightgray" cx="171.846" cy="-378" rx="27" ry="18"/>
<text text-anchor="middle" x="171.846" y="-374.3" font-family="Times New Roman,serif" font-size="14.00" fill="lightgray">wa</text>
</g>
<!-- n8181&#45;&gt;n8183 -->
<g id="edge1" class="edge"><title>n8181&#45;&gt;n8183</title>
<path fill="none" stroke="lightgray" d="M52.2319,-411.215C75.4213,-404.721 110.624,-394.864 136.661,-387.573"/>
<polygon fill="lightgray" stroke="lightgray" points="137.809,-390.886 146.495,-384.819 135.922,-384.145 137.809,-390.886"/>
<text text-anchor="middle" x="90.5" y="-408.8" font-family="Times New Roman,serif" font-size="14.00" fill="lightgray">wff ps</text>
</g>
<!-- n8182 -->
<g id="node3" class="node"><title>n8182</title>
<ellipse fill="none" stroke="lightgray" cx="27" cy="-346" rx="27" ry="18"/>
<text text-anchor="middle" x="27" y="-342.3" font-family="Times New Roman,serif" font-size="14.00" fill="lightgray">wth</text>
</g>
<!-- n8181&#45;&gt;n8182 -->
<g id="edge4" class="edge"><title>n8181&#45;&gt;n8182</title>
</g>
<!-- n8191 -->
<g id="node4" class="node"><title>n8191</title>
<ellipse fill="cyan" stroke="black" cx="405.692" cy="-197" rx="27" ry="18"/>
<text text-anchor="middle" x="405.692" y="-193.3" font-family="Times New Roman,serif" font-size="14.00">syl5</text>
</g>
<!-- n8183&#45;&gt;n8191 -->
<g id="edge3" class="edge"><title>n8183&#45;&gt;n8191</title>
<path fill="none" stroke="lightgray" d="M198.898,-375.721C238.844,-370.882 315.351,-356.109 360.692,-312 384.663,-288.68 395.768,-250.915 400.78,-225.068"/>
<polygon fill="lightgray" stroke="lightgray" points="404.243,-225.587 402.523,-215.133 397.348,-224.378 404.243,-225.587"/>
<text text-anchor="middle" x="297.692" y="-373.8" font-family="Times New Roman,serif" font-size="14.00" fill="lightgray">wff ( ps / th )</text>
</g>
<!-- n8184 -->
<g id="node5" class="node"><title>n8184</title>
<ellipse fill="none" stroke="lightgray" cx="171.846" cy="-306" rx="27" ry="18"/>
<text text-anchor="middle" x="171.846" y="-302.3" font-family="Times New Roman,serif" font-size="14.00" fill="lightgray">wps</text>
</g>
<!-- n8183&#45;&gt;n8184 -->
<g id="edge14" class="edge"><title>n8183&#45;&gt;n8184</title>
</g>
<!-- n8182&#45;&gt;n8183 -->
<g id="edge2" class="edge"><title>n8182&#45;&gt;n8183</title>
<path fill="none" stroke="lightgray" d="M52.8212,-351.489C68.8545,-355.042 90.1646,-359.775 109,-364 117.802,-365.974 127.305,-368.119 136.159,-370.123"/>
<polygon fill="lightgray" stroke="lightgray" points="135.647,-373.595 146.173,-372.391 137.194,-366.768 135.647,-373.595"/>
<text text-anchor="middle" x="90.5" y="-367.8" font-family="Times New Roman,serif" font-size="14.00" fill="lightgray">wff th</text>
</g>
<!-- QED -->
<g id="node12" class="node"><title>QED</title>
</g>
<!-- n8191&#45;&gt;QED -->
<g id="edge13" class="edge"><title>n8191&#45;&gt;QED</title>
<path fill="none" stroke="black" d="M432.943,-197C477.93,-197 569.952,-197 622.289,-197"/>
<polygon fill="black" stroke="black" points="622.512,-200.5 632.512,-197 622.512,-193.5 622.512,-200.5"/>
<text text-anchor="middle" x="532.692" y="-200.8" font-family="Times New Roman,serif" font-size="14.00">|&#45; ( ph &#45;&gt; ( ( ps / th ) &#45;&gt; ch ) )</text>
</g>
<!-- n8184&#45;&gt;n8191 -->
<g id="edge5" class="edge"><title>n8184&#45;&gt;n8191</title>
<path fill="none" stroke="lightgray" d="M198.28,-301.772C236.097,-294.604 308.312,-277.469 360.692,-244 370.158,-237.952 378.973,-229.409 386.189,-221.262"/>
<polygon fill="lightgray" stroke="lightgray" points="389.081,-223.261 392.837,-213.354 383.723,-218.756 389.081,-223.261"/>
<text text-anchor="middle" x="297.692" y="-296.8" font-family="Times New Roman,serif" font-size="14.00" fill="lightgray">wff ps</text>
</g>
<!-- n8185 -->
<g id="node6" class="node"><title>n8185</title>
<ellipse fill="none" stroke="lightgray" cx="171.846" cy="-234" rx="27" ry="18"/>
<text text-anchor="middle" x="171.846" y="-230.3" font-family="Times New Roman,serif" font-size="14.00" fill="lightgray">wph</text>
</g>
<!-- n8184&#45;&gt;n8185 -->
<g id="edge15" class="edge"><title>n8184&#45;&gt;n8185</title>
</g>
<!-- n8185&#45;&gt;n8191 -->
<g id="edge6" class="edge"><title>n8185&#45;&gt;n8191</title>
<path fill="none" stroke="lightgray" d="M198.543,-229.899C240.085,-223.269 322.082,-210.184 369.179,-202.668"/>
<polygon fill="lightgray" stroke="lightgray" points="369.909,-206.095 379.233,-201.063 368.806,-199.183 369.909,-206.095"/>
<text text-anchor="middle" x="297.692" y="-228.8" font-family="Times New Roman,serif" font-size="14.00" fill="lightgray">wff ph</text>
</g>
<!-- n8186 -->
<g id="node7" class="node"><title>n8186</title>
<ellipse fill="none" stroke="lightgray" cx="171.846" cy="-162" rx="27" ry="18"/>
<text text-anchor="middle" x="171.846" y="-158.3" font-family="Times New Roman,serif" font-size="14.00" fill="lightgray">wch</text>
</g>
<!-- n8185&#45;&gt;n8186 -->
<g id="edge16" class="edge"><title>n8185&#45;&gt;n8186</title>
</g>
<!-- n8186&#45;&gt;n8191 -->
<g id="edge7" class="edge"><title>n8186&#45;&gt;n8191</title>
<path fill="none" stroke="lightgray" d="M198.754,-165.052C235.061,-169.45 303.093,-178.133 360.692,-188 363.574,-188.494 366.556,-189.036 369.546,-189.602"/>
<polygon fill="lightgray" stroke="lightgray" points="369.128,-193.086 379.615,-191.581 370.478,-186.218 369.128,-193.086"/>
<text text-anchor="middle" x="297.692" y="-191.8" font-family="Times New Roman,serif" font-size="14.00" fill="lightgray">wff ch</text>
</g>
<!-- n8189 -->
<g id="node9" class="node"><title>n8189</title>
<ellipse fill="cyan" stroke="black" cx="171.846" cy="-90" rx="30.5947" ry="18"/>
<text text-anchor="middle" x="171.846" y="-86.3" font-family="Times New Roman,serif" font-size="14.00">simpl</text>
</g>
<!-- n8186&#45;&gt;n8189 -->
<g id="edge17" class="edge"><title>n8186&#45;&gt;n8189</title>
</g>
<!-- n8187 -->
<g id="node8" class="node"><title>n8187</title>
<ellipse fill="none" stroke="lightgray" cx="27" cy="-127" rx="27" ry="18"/>
<text text-anchor="middle" x="27" y="-123.3" font-family="Times New Roman,serif" font-size="14.00" fill="lightgray">wps</text>
</g>
<!-- n8187&#45;&gt;n8189 -->
<g id="edge8" class="edge"><title>n8187&#45;&gt;n8189</title>
<path fill="none" stroke="lightgray" d="M52.5561,-120.639C74.95,-114.839 108.349,-106.188 133.953,-99.5561"/>
<polygon fill="lightgray" stroke="lightgray" points="134.89,-102.929 143.693,-97.0332 133.135,-96.1526 134.89,-102.929"/>
<text text-anchor="middle" x="90.5" y="-119.8" font-family="Times New Roman,serif" font-size="14.00" fill="lightgray">wff ps</text>
</g>
<!-- n8188 -->
<g id="node10" class="node"><title>n8188</title>
<ellipse fill="none" stroke="lightgray" cx="27" cy="-55" rx="27" ry="18"/>
<text text-anchor="middle" x="27" y="-51.3" font-family="Times New Roman,serif" font-size="14.00" fill="lightgray">wth</text>
</g>
<!-- n8187&#45;&gt;n8188 -->
<g id="edge11" class="edge"><title>n8187&#45;&gt;n8188</title>
</g>
<!-- n8189&#45;&gt;n8191 -->
<g id="edge10" class="edge"><title>n8189&#45;&gt;n8191</title>
<path fill="none" stroke="black" d="M201.442,-94.7445C239.965,-102.107 309.588,-118.903 360.692,-151 370.097,-156.907 378.899,-165.266 386.122,-173.241"/>
<polygon fill="black" stroke="black" points="383.607,-175.684 392.782,-180.982 388.914,-171.119 383.607,-175.684"/>
<text text-anchor="middle" x="297.692" y="-154.8" font-family="Times New Roman,serif" font-size="14.00">|&#45; ( ( ps / th ) &#45;&gt; ps )</text>
</g>
<!-- n8190 -->
<g id="node11" class="node"><title>n8190</title>
<ellipse fill="orange" stroke="black" cx="171.846" cy="-18" rx="44.6926" ry="18"/>
<text text-anchor="middle" x="171.846" y="-14.3" font-family="Times New Roman,serif" font-size="14.00">adantrd.1</text>
</g>
<!-- n8189&#45;&gt;n8190 -->
<g id="edge18" class="edge"><title>n8189&#45;&gt;n8190</title>
</g>
<!-- n8188&#45;&gt;n8189 -->
<g id="edge9" class="edge"><title>n8188&#45;&gt;n8189</title>
<path fill="none" stroke="lightgray" d="M52.5561,-61.0167C74.8092,-66.4691 107.93,-74.5843 133.469,-80.8419"/>
<polygon fill="lightgray" stroke="lightgray" points="132.65,-84.2446 143.195,-83.2251 134.316,-77.4458 132.65,-84.2446"/>
<text text-anchor="middle" x="90.5" y="-78.8" font-family="Times New Roman,serif" font-size="14.00" fill="lightgray">wff th</text>
</g>
<!-- n8190&#45;&gt;n8191 -->
<g id="edge12" class="edge"><title>n8190&#45;&gt;n8191</title>
<path fill="none" stroke="black" d="M215.51,-22.6624C257.498,-29.3825 320.936,-45.5517 360.692,-84 384.13,-106.667 395.313,-143.266 400.491,-168.644"/>
<polygon fill="black" stroke="black" points="397.101,-169.562 402.36,-178.759 403.985,-168.29 397.101,-169.562"/>
<text text-anchor="middle" x="297.692" y="-87.8" font-family="Times New Roman,serif" font-size="14.00">|&#45; ( ph &#45;&gt; ( ps &#45;&gt; ch ) )</text>
</g>
</g>
</svg>
