<?xml version="1.0" encoding="UTF-8" standalone="no"?>
<!DOCTYPE svg PUBLIC "-//W3C//DTD SVG 1.1//EN"
 "http://www.w3.org/Graphics/SVG/1.1/DTD/svg11.dtd">
<!-- Generated by graphviz version 2.38.0 (20140413.2041)
 -->
<!-- Title: proof_adantrr Pages: 1 -->
<svg width="700pt" height="444pt"
 viewBox="0.00 0.00 700.28 444.00" xmlns="http://www.w3.org/2000/svg" xmlns:xlink="http://www.w3.org/1999/xlink">
<g id="graph0" class="graph" transform="scale(1 1) rotate(0) translate(4 440)">
<title>proof_adantrr</title>
<polygon fill="white" stroke="none" points="-4,4 -4,-440 696.281,-440 696.281,4 -4,4"/>
<!-- n12174 -->
<g id="node1" class="node"><title>n12174</title>
<ellipse fill="none" stroke="lightgray" cx="27" cy="-418" rx="27" ry="18"/>
<text text-anchor="middle" x="27" y="-414.3" font-family="Times New Roman,serif" font-size="14.00" fill="lightgray">wps</text>
</g>
<!-- n12176 -->
<g id="node2" class="node"><title>n12176</title>
<ellipse fill="none" stroke="lightgray" cx="168.596" cy="-378" rx="27" ry="18"/>
<text text-anchor="middle" x="168.596" y="-374.3" font-family="Times New Roman,serif" font-size="14.00" fill="lightgray">wa</text>
</g>
<!-- n12174&#45;&gt;n12176 -->
<g id="edge1" class="edge"><title>n12174&#45;&gt;n12176</title>
<path fill="none" stroke="lightgray" d="M51.9975,-411.124C74.4702,-404.684 108.284,-394.995 133.543,-387.758"/>
<polygon fill="lightgray" stroke="lightgray" points="134.796,-391.04 143.445,-384.92 132.868,-384.31 134.796,-391.04"/>
<text text-anchor="middle" x="90.5" y="-408.8" font-family="Times New Roman,serif" font-size="14.00" fill="lightgray">wff ps</text>
</g>
<!-- n12175 -->
<g id="node3" class="node"><title>n12175</title>
<ellipse fill="none" stroke="lightgray" cx="27" cy="-346" rx="27" ry="18"/>
<text text-anchor="middle" x="27" y="-342.3" font-family="Times New Roman,serif" font-size="14.00" fill="lightgray">wth</text>
</g>
<!-- n12174&#45;&gt;n12175 -->
<g id="edge4" class="edge"><title>n12174&#45;&gt;n12175</title>
</g>
<!-- n12184 -->
<g id="node4" class="node"><title>n12184</title>
<ellipse fill="cyan" stroke="black" cx="400.99" cy="-197" rx="33.5952" ry="18"/>
<text text-anchor="middle" x="400.99" y="-193.3" font-family="Times New Roman,serif" font-size="14.00">sylan2</text>
</g>
<!-- n12176&#45;&gt;n12184 -->
<g id="edge3" class="edge"><title>n12176&#45;&gt;n12184</title>
<path fill="none" stroke="lightgray" d="M195.191,-374.789C233.298,-368.753 305.177,-352.363 349.193,-311 373.895,-287.786 387.376,-250.371 394.125,-224.78"/>
<polygon fill="lightgray" stroke="lightgray" points="397.555,-225.491 396.544,-214.944 390.757,-223.82 397.555,-225.491"/>
<text text-anchor="middle" x="288.693" y="-371.8" font-family="Times New Roman,serif" font-size="14.00" fill="lightgray">wff ( ps /\ th )</text>
</g>
<!-- n12177 -->
<g id="node5" class="node"><title>n12177</title>
<ellipse fill="none" stroke="lightgray" cx="168.596" cy="-306" rx="27" ry="18"/>
<text text-anchor="middle" x="168.596" y="-302.3" font-family="Times New Roman,serif" font-size="14.00" fill="lightgray">wph</text>
</g>
<!-- n12176&#45;&gt;n12177 -->
<g id="edge14" class="edge"><title>n12176&#45;&gt;n12177</title>
</g>
<!-- n12175&#45;&gt;n12176 -->
<g id="edge2" class="edge"><title>n12175&#45;&gt;n12176</title>
<path fill="none" stroke="lightgray" d="M52.8385,-351.413C68.8788,-354.935 90.19,-359.663 109,-364 116.883,-365.817 125.351,-367.815 133.331,-369.717"/>
<polygon fill="lightgray" stroke="lightgray" points="132.558,-373.131 143.098,-372.055 134.188,-366.323 132.558,-373.131"/>
<text text-anchor="middle" x="90.5" y="-367.8" font-family="Times New Roman,serif" font-size="14.00" fill="lightgray">wff th</text>
</g>
<!-- QED -->
<g id="node12" class="node"><title>QED</title>
</g>
<!-- n12184&#45;&gt;QED -->
<g id="edge13" class="edge"><title>n12184&#45;&gt;QED</title>
<path fill="none" stroke="black" d="M434.924,-197C483.027,-197 572.318,-197 623.438,-197"/>
<polygon fill="black" stroke="black" points="623.739,-200.5 633.739,-197 623.739,-193.5 623.739,-200.5"/>
<text text-anchor="middle" x="534.287" y="-200.8" font-family="Times New Roman,serif" font-size="14.00">|&#45; ( ( ph /\ ( ps /\ th ) ) &#45;&gt; ch )</text>
</g>
<!-- n12177&#45;&gt;n12184 -->
<g id="edge5" class="edge"><title>n12177&#45;&gt;n12184</title>
<path fill="none" stroke="lightgray" d="M194.515,-300.848C230.535,-292.66 298.393,-274.416 349.193,-244 359.768,-237.668 370.026,-228.863 378.521,-220.583"/>
<polygon fill="lightgray" stroke="lightgray" points="381.259,-222.792 385.787,-213.214 376.274,-217.878 381.259,-222.792"/>
<text text-anchor="middle" x="288.693" y="-295.8" font-family="Times New Roman,serif" font-size="14.00" fill="lightgray">wff ph</text>
</g>
<!-- n12178 -->
<g id="node6" class="node"><title>n12178</title>
<ellipse fill="none" stroke="lightgray" cx="168.596" cy="-234" rx="27" ry="18"/>
<text text-anchor="middle" x="168.596" y="-230.3" font-family="Times New Roman,serif" font-size="14.00" fill="lightgray">wps</text>
</g>
<!-- n12177&#45;&gt;n12178 -->
<g id="edge15" class="edge"><title>n12177&#45;&gt;n12178</title>
</g>
<!-- n12178&#45;&gt;n12184 -->
<g id="edge6" class="edge"><title>n12178&#45;&gt;n12184</title>
<path fill="none" stroke="lightgray" d="M195.133,-229.899C234.645,-223.553 310.988,-211.293 358.497,-203.663"/>
<polygon fill="lightgray" stroke="lightgray" points="359.145,-207.104 368.464,-202.063 358.035,-200.193 359.145,-207.104"/>
<text text-anchor="middle" x="288.693" y="-228.8" font-family="Times New Roman,serif" font-size="14.00" fill="lightgray">wff ps</text>
</g>
<!-- n12179 -->
<g id="node7" class="node"><title>n12179</title>
<ellipse fill="none" stroke="lightgray" cx="168.596" cy="-162" rx="27" ry="18"/>
<text text-anchor="middle" x="168.596" y="-158.3" font-family="Times New Roman,serif" font-size="14.00" fill="lightgray">wch</text>
</g>
<!-- n12178&#45;&gt;n12179 -->
<g id="edge16" class="edge"><title>n12178&#45;&gt;n12179</title>
</g>
<!-- n12179&#45;&gt;n12184 -->
<g id="edge7" class="edge"><title>n12179&#45;&gt;n12184</title>
<path fill="none" stroke="lightgray" d="M195.212,-165.449C230.09,-170.205 294.448,-179.19 349.193,-188 352.376,-188.512 355.668,-189.058 358.977,-189.619"/>
<polygon fill="lightgray" stroke="lightgray" points="358.404,-193.072 368.854,-191.323 359.595,-186.174 358.404,-193.072"/>
<text text-anchor="middle" x="288.693" y="-191.8" font-family="Times New Roman,serif" font-size="14.00" fill="lightgray">wff ch</text>
</g>
<!-- n12182 -->
<g id="node9" class="node"><title>n12182</title>
<ellipse fill="cyan" stroke="black" cx="168.596" cy="-90" rx="30.5947" ry="18"/>
<text text-anchor="middle" x="168.596" y="-86.3" font-family="Times New Roman,serif" font-size="14.00">simpl</text>
</g>
<!-- n12179&#45;&gt;n12182 -->
<g id="edge17" class="edge"><title>n12179&#45;&gt;n12182</title>
</g>
<!-- n12180 -->
<g id="node8" class="node"><title>n12180</title>
<ellipse fill="none" stroke="lightgray" cx="27" cy="-127" rx="27" ry="18"/>
<text text-anchor="middle" x="27" y="-123.3" font-family="Times New Roman,serif" font-size="14.00" fill="lightgray">wps</text>
</g>
<!-- n12180&#45;&gt;n12182 -->
<g id="edge8" class="edge"><title>n12180&#45;&gt;n12182</title>
<path fill="none" stroke="lightgray" d="M52.3158,-120.555C73.8739,-114.841 105.685,-106.41 130.433,-99.8502"/>
<polygon fill="lightgray" stroke="lightgray" points="131.445,-103.203 140.214,-97.2576 129.651,-96.4365 131.445,-103.203"/>
<text text-anchor="middle" x="90.5" y="-119.8" font-family="Times New Roman,serif" font-size="14.00" fill="lightgray">wff ps</text>
</g>
<!-- n12181 -->
<g id="node10" class="node"><title>n12181</title>
<ellipse fill="none" stroke="lightgray" cx="27" cy="-55" rx="27" ry="18"/>
<text text-anchor="middle" x="27" y="-51.3" font-family="Times New Roman,serif" font-size="14.00" fill="lightgray">wth</text>
</g>
<!-- n12180&#45;&gt;n12181 -->
<g id="edge11" class="edge"><title>n12180&#45;&gt;n12181</title>
</g>
<!-- n12182&#45;&gt;n12184 -->
<g id="edge10" class="edge"><title>n12182&#45;&gt;n12184</title>
<path fill="none" stroke="black" d="M197.502,-96.0228C234.1,-104.707 299.491,-122.967 349.193,-152 359.474,-158.006 369.554,-166.283 377.99,-174.102"/>
<polygon fill="black" stroke="black" points="375.602,-176.661 385.233,-181.076 380.457,-171.618 375.602,-176.661"/>
<text text-anchor="middle" x="288.693" y="-155.8" font-family="Times New Roman,serif" font-size="14.00">|&#45; ( ( ps /\ th ) &#45;&gt; ps )</text>
</g>
<!-- n12183 -->
<g id="node11" class="node"><title>n12183</title>
<ellipse fill="orange" stroke="black" cx="168.596" cy="-18" rx="41.6928" ry="18"/>
<text text-anchor="middle" x="168.596" y="-14.3" font-family="Times New Roman,serif" font-size="14.00">adant2.1</text>
</g>
<!-- n12182&#45;&gt;n12183 -->
<g id="edge18" class="edge"><title>n12182&#45;&gt;n12183</title>
</g>
<!-- n12181&#45;&gt;n12182 -->
<g id="edge9" class="edge"><title>n12181&#45;&gt;n12182</title>
<path fill="none" stroke="lightgray" d="M52.6357,-61.1767C74.0994,-66.5582 105.548,-74.4431 130.13,-80.6063"/>
<polygon fill="lightgray" stroke="lightgray" points="129.304,-84.0075 139.855,-83.0446 131.006,-77.2176 129.304,-84.0075"/>
<text text-anchor="middle" x="90.5" y="-78.8" font-family="Times New Roman,serif" font-size="14.00" fill="lightgray">wff th</text>
</g>
<!-- n12183&#45;&gt;n12184 -->
<g id="edge12" class="edge"><title>n12183&#45;&gt;n12184</title>
<path fill="none" stroke="black" d="M208.112,-24.0437C247.886,-32.0998 309.57,-49.903 349.193,-87 372.84,-109.14 386.419,-144.449 393.485,-169.072"/>
<polygon fill="black" stroke="black" points="390.151,-170.151 396.126,-178.9 396.911,-168.335 390.151,-170.151"/>
<text text-anchor="middle" x="288.693" y="-90.8" font-family="Times New Roman,serif" font-size="14.00">|&#45; ( ( ph /\ ps ) &#45;&gt; ch )</text>
</g>
</g>
</svg>
