<?xml version="1.0" encoding="UTF-8" standalone="no"?>
<!DOCTYPE svg PUBLIC "-//W3C//DTD SVG 1.1//EN"
 "http://www.w3.org/Graphics/SVG/1.1/DTD/svg11.dtd">
<!-- Generated by graphviz version 2.38.0 (20140413.2041)
 -->
<!-- Title: proof_an13 Pages: 1 -->
<svg width="1072pt" height="1016pt"
 viewBox="0.00 0.00 1072.28 1016.00" xmlns="http://www.w3.org/2000/svg" xmlns:xlink="http://www.w3.org/1999/xlink">
<g id="graph0" class="graph" transform="scale(1 1) rotate(0) translate(4 1012)">
<title>proof_an13</title>
<polygon fill="white" stroke="none" points="-4,4 -4,-1012 1068.28,-1012 1068.28,4 -4,4"/>
<!-- n13668 -->
<g id="node1" class="node"><title>n13668</title>
<ellipse fill="none" stroke="lightgray" cx="154" cy="-990" rx="27" ry="18"/>
<text text-anchor="middle" x="154" y="-986.3" font-family="Times New Roman,serif" font-size="14.00" fill="lightgray">wph</text>
</g>
<!-- n13672 -->
<g id="node2" class="node"><title>n13672</title>
<ellipse fill="none" stroke="lightgray" cx="331.097" cy="-882" rx="27" ry="18"/>
<text text-anchor="middle" x="331.097" y="-878.3" font-family="Times New Roman,serif" font-size="14.00" fill="lightgray">wa</text>
</g>
<!-- n13668&#45;&gt;n13672 -->
<g id="edge1" class="edge"><title>n13668&#45;&gt;n13672</title>
<path fill="none" stroke="lightgray" d="M177.271,-980.847C202.663,-969.951 244.93,-950.388 278,-928 288.51,-920.885 299.178,-911.851 308.101,-903.676"/>
<polygon fill="lightgray" stroke="lightgray" points="310.549,-906.179 315.445,-896.783 305.758,-901.075 310.549,-906.179"/>
<text text-anchor="middle" x="238.5" y="-974.8" font-family="Times New Roman,serif" font-size="14.00" fill="lightgray">wff ph</text>
</g>
<!-- n13671 -->
<g id="node4" class="node"><title>n13671</title>
<ellipse fill="none" stroke="lightgray" cx="154" cy="-918" rx="27" ry="18"/>
<text text-anchor="middle" x="154" y="-914.3" font-family="Times New Roman,serif" font-size="14.00" fill="lightgray">wa</text>
</g>
<!-- n13668&#45;&gt;n13671 -->
<g id="edge7" class="edge"><title>n13668&#45;&gt;n13671</title>
</g>
<!-- n13701 -->
<g id="node6" class="node"><title>n13701</title>
<ellipse fill="cyan" stroke="black" cx="685.991" cy="-546" rx="33.5952" ry="18"/>
<text text-anchor="middle" x="685.991" y="-542.3" font-family="Times New Roman,serif" font-size="14.00">3bitr2i</text>
</g>
<!-- n13672&#45;&gt;n13701 -->
<g id="edge6" class="edge"><title>n13672&#45;&gt;n13701</title>
<path fill="none" stroke="lightgray" d="M358.042,-883.433C416.614,-885.138 559.766,-880.457 634.194,-801 664.771,-768.357 678.447,-633.453 683.066,-574.165"/>
<polygon fill="lightgray" stroke="lightgray" points="686.57,-574.25 683.825,-564.017 679.589,-573.728 686.57,-574.25"/>
<text text-anchor="middle" x="509.194" y="-887.8" font-family="Times New Roman,serif" font-size="14.00" fill="lightgray">wff ( ph / ( ps / ch ) )</text>
</g>
<!-- n13677 -->
<g id="node8" class="node"><title>n13677</title>
<ellipse fill="none" stroke="lightgray" cx="331.097" cy="-792" rx="27" ry="18"/>
<text text-anchor="middle" x="331.097" y="-788.3" font-family="Times New Roman,serif" font-size="14.00" fill="lightgray">wa</text>
</g>
<!-- n13672&#45;&gt;n13677 -->
<g id="edge49" class="edge"><title>n13672&#45;&gt;n13677</title>
</g>
<!-- n13669 -->
<g id="node3" class="node"><title>n13669</title>
<ellipse fill="none" stroke="lightgray" cx="27" cy="-990" rx="27" ry="18"/>
<text text-anchor="middle" x="27" y="-986.3" font-family="Times New Roman,serif" font-size="14.00" fill="lightgray">wps</text>
</g>
<!-- n13669&#45;&gt;n13671 -->
<g id="edge2" class="edge"><title>n13669&#45;&gt;n13671</title>
<path fill="none" stroke="lightgray" d="M48.0834,-978.432C68.6762,-966.571 100.901,-948.009 124.206,-934.586"/>
<polygon fill="lightgray" stroke="lightgray" points="126.048,-937.563 132.966,-929.539 122.554,-931.498 126.048,-937.563"/>
<text text-anchor="middle" x="90.5" y="-968.8" font-family="Times New Roman,serif" font-size="14.00" fill="lightgray">wff ps</text>
</g>
<!-- n13670 -->
<g id="node5" class="node"><title>n13670</title>
<ellipse fill="none" stroke="lightgray" cx="27" cy="-918" rx="27" ry="18"/>
<text text-anchor="middle" x="27" y="-914.3" font-family="Times New Roman,serif" font-size="14.00" fill="lightgray">wch</text>
</g>
<!-- n13669&#45;&gt;n13670 -->
<g id="edge5" class="edge"><title>n13669&#45;&gt;n13670</title>
</g>
<!-- n13671&#45;&gt;n13672 -->
<g id="edge4" class="edge"><title>n13671&#45;&gt;n13672</title>
<path fill="none" stroke="lightgray" d="M180.087,-912.842C210.252,-906.64 261.061,-896.194 295.079,-889.2"/>
<polygon fill="lightgray" stroke="lightgray" points="295.966,-892.591 305.056,-887.148 294.556,-885.734 295.966,-892.591"/>
<text text-anchor="middle" x="238.5" y="-912.8" font-family="Times New Roman,serif" font-size="14.00" fill="lightgray">wff ( ps / ch )</text>
</g>
<!-- n13670&#45;&gt;n13671 -->
<g id="edge3" class="edge"><title>n13670&#45;&gt;n13671</title>
<path fill="none" stroke="lightgray" d="M54.2041,-918C72.3711,-918 96.7994,-918 116.82,-918"/>
<polygon fill="lightgray" stroke="lightgray" points="116.83,-921.5 126.83,-918 116.83,-914.5 116.83,-921.5"/>
<text text-anchor="middle" x="90.5" y="-921.8" font-family="Times New Roman,serif" font-size="14.00" fill="lightgray">wff ch</text>
</g>
<!-- QED -->
<g id="node35" class="node"><title>QED</title>
</g>
<!-- n13701&#45;&gt;QED -->
<g id="edge48" class="edge"><title>n13701&#45;&gt;QED</title>
<path fill="none" stroke="black" d="M719.953,-546C784.355,-546 926.59,-546 995.337,-546"/>
<polygon fill="black" stroke="black" points="995.716,-549.5 1005.72,-546 995.716,-542.5 995.716,-549.5"/>
<text text-anchor="middle" x="862.788" y="-549.8" font-family="Times New Roman,serif" font-size="14.00">|&#45; ( ( ph / ( ps / ch ) ) &lt;&#45;&gt; ( ch / ( ps / ph ) ) )</text>
</g>
<!-- n13673 -->
<g id="node7" class="node"><title>n13673</title>
<ellipse fill="none" stroke="lightgray" cx="154" cy="-864" rx="27" ry="18"/>
<text text-anchor="middle" x="154" y="-860.3" font-family="Times New Roman,serif" font-size="14.00" fill="lightgray">wps</text>
</g>
<!-- n13673&#45;&gt;n13677 -->
<g id="edge8" class="edge"><title>n13673&#45;&gt;n13677</title>
<path fill="none" stroke="lightgray" d="M177.532,-854.735C208.264,-842.098 263.481,-819.392 298.383,-805.041"/>
<polygon fill="lightgray" stroke="lightgray" points="299.733,-808.27 307.651,-801.23 297.071,-801.796 299.733,-808.27"/>
<text text-anchor="middle" x="238.5" y="-848.8" font-family="Times New Roman,serif" font-size="14.00" fill="lightgray">wff ps</text>
</g>
<!-- n13676 -->
<g id="node10" class="node"><title>n13676</title>
<ellipse fill="none" stroke="lightgray" cx="154" cy="-792" rx="27" ry="18"/>
<text text-anchor="middle" x="154" y="-788.3" font-family="Times New Roman,serif" font-size="14.00" fill="lightgray">wa</text>
</g>
<!-- n13673&#45;&gt;n13676 -->
<g id="edge14" class="edge"><title>n13673&#45;&gt;n13676</title>
</g>
<!-- n13677&#45;&gt;n13701 -->
<g id="edge13" class="edge"><title>n13677&#45;&gt;n13701</title>
<path fill="none" stroke="lightgray" d="M357.587,-788.166C414.6,-778.322 553.717,-747.064 634.194,-667 659.859,-641.466 673.234,-601.01 679.688,-573.995"/>
<polygon fill="lightgray" stroke="lightgray" points="683.154,-574.535 681.905,-564.014 676.32,-573.017 683.154,-574.535"/>
<text text-anchor="middle" x="509.194" y="-785.8" font-family="Times New Roman,serif" font-size="14.00" fill="lightgray">wff ( ps / ( ph / ch ) )</text>
</g>
<!-- n13682 -->
<g id="node15" class="node"><title>n13682</title>
<ellipse fill="none" stroke="lightgray" cx="331.097" cy="-666" rx="27" ry="18"/>
<text text-anchor="middle" x="331.097" y="-662.3" font-family="Times New Roman,serif" font-size="14.00" fill="lightgray">wa</text>
</g>
<!-- n13677&#45;&gt;n13682 -->
<g id="edge50" class="edge"><title>n13677&#45;&gt;n13682</title>
</g>
<!-- n13674 -->
<g id="node9" class="node"><title>n13674</title>
<ellipse fill="none" stroke="lightgray" cx="27" cy="-864" rx="27" ry="18"/>
<text text-anchor="middle" x="27" y="-860.3" font-family="Times New Roman,serif" font-size="14.00" fill="lightgray">wph</text>
</g>
<!-- n13674&#45;&gt;n13676 -->
<g id="edge9" class="edge"><title>n13674&#45;&gt;n13676</title>
<path fill="none" stroke="lightgray" d="M48.0834,-852.432C68.6762,-840.571 100.901,-822.009 124.206,-808.586"/>
<polygon fill="lightgray" stroke="lightgray" points="126.048,-811.563 132.966,-803.539 122.554,-805.498 126.048,-811.563"/>
<text text-anchor="middle" x="90.5" y="-842.8" font-family="Times New Roman,serif" font-size="14.00" fill="lightgray">wff ph</text>
</g>
<!-- n13675 -->
<g id="node11" class="node"><title>n13675</title>
<ellipse fill="none" stroke="lightgray" cx="27" cy="-792" rx="27" ry="18"/>
<text text-anchor="middle" x="27" y="-788.3" font-family="Times New Roman,serif" font-size="14.00" fill="lightgray">wch</text>
</g>
<!-- n13674&#45;&gt;n13675 -->
<g id="edge12" class="edge"><title>n13674&#45;&gt;n13675</title>
</g>
<!-- n13676&#45;&gt;n13677 -->
<g id="edge11" class="edge"><title>n13676&#45;&gt;n13677</title>
<path fill="none" stroke="lightgray" d="M181.214,-792C211.086,-792 260.102,-792 293.676,-792"/>
<polygon fill="lightgray" stroke="lightgray" points="293.99,-795.5 303.99,-792 293.99,-788.5 293.99,-795.5"/>
<text text-anchor="middle" x="238.5" y="-795.8" font-family="Times New Roman,serif" font-size="14.00" fill="lightgray">wff ( ph / ch )</text>
</g>
<!-- n13675&#45;&gt;n13676 -->
<g id="edge10" class="edge"><title>n13675&#45;&gt;n13676</title>
<path fill="none" stroke="lightgray" d="M54.2041,-792C72.3711,-792 96.7994,-792 116.82,-792"/>
<polygon fill="lightgray" stroke="lightgray" points="116.83,-795.5 126.83,-792 116.83,-788.5 116.83,-795.5"/>
<text text-anchor="middle" x="90.5" y="-795.8" font-family="Times New Roman,serif" font-size="14.00" fill="lightgray">wff ch</text>
</g>
<!-- n13678 -->
<g id="node12" class="node"><title>n13678</title>
<ellipse fill="none" stroke="lightgray" cx="27" cy="-738" rx="27" ry="18"/>
<text text-anchor="middle" x="27" y="-734.3" font-family="Times New Roman,serif" font-size="14.00" fill="lightgray">wps</text>
</g>
<!-- n13680 -->
<g id="node13" class="node"><title>n13680</title>
<ellipse fill="none" stroke="lightgray" cx="154" cy="-738" rx="27" ry="18"/>
<text text-anchor="middle" x="154" y="-734.3" font-family="Times New Roman,serif" font-size="14.00" fill="lightgray">wa</text>
</g>
<!-- n13678&#45;&gt;n13680 -->
<g id="edge15" class="edge"><title>n13678&#45;&gt;n13680</title>
<path fill="none" stroke="lightgray" d="M54.2041,-738C72.3711,-738 96.7994,-738 116.82,-738"/>
<polygon fill="lightgray" stroke="lightgray" points="116.83,-741.5 126.83,-738 116.83,-734.5 116.83,-741.5"/>
<text text-anchor="middle" x="90.5" y="-741.8" font-family="Times New Roman,serif" font-size="14.00" fill="lightgray">wff ps</text>
</g>
<!-- n13679 -->
<g id="node14" class="node"><title>n13679</title>
<ellipse fill="none" stroke="lightgray" cx="27" cy="-666" rx="27" ry="18"/>
<text text-anchor="middle" x="27" y="-662.3" font-family="Times New Roman,serif" font-size="14.00" fill="lightgray">wph</text>
</g>
<!-- n13678&#45;&gt;n13679 -->
<g id="edge18" class="edge"><title>n13678&#45;&gt;n13679</title>
</g>
<!-- n13680&#45;&gt;n13682 -->
<g id="edge17" class="edge"><title>n13680&#45;&gt;n13682</title>
<path fill="none" stroke="lightgray" d="M177.532,-728.735C208.264,-716.098 263.481,-693.392 298.383,-679.041"/>
<polygon fill="lightgray" stroke="lightgray" points="299.733,-682.27 307.651,-675.23 297.071,-675.796 299.733,-682.27"/>
<text text-anchor="middle" x="238.5" y="-722.8" font-family="Times New Roman,serif" font-size="14.00" fill="lightgray">wff ( ps / ph )</text>
</g>
<!-- n13681 -->
<g id="node16" class="node"><title>n13681</title>
<ellipse fill="none" stroke="lightgray" cx="154" cy="-666" rx="27" ry="18"/>
<text text-anchor="middle" x="154" y="-662.3" font-family="Times New Roman,serif" font-size="14.00" fill="lightgray">wch</text>
</g>
<!-- n13680&#45;&gt;n13681 -->
<g id="edge21" class="edge"><title>n13680&#45;&gt;n13681</title>
</g>
<!-- n13679&#45;&gt;n13680 -->
<g id="edge16" class="edge"><title>n13679&#45;&gt;n13680</title>
<path fill="none" stroke="lightgray" d="M48.0834,-677.568C68.6762,-689.429 100.901,-707.991 124.206,-721.414"/>
<polygon fill="lightgray" stroke="lightgray" points="122.554,-724.502 132.966,-726.461 126.048,-718.437 122.554,-724.502"/>
<text text-anchor="middle" x="90.5" y="-716.8" font-family="Times New Roman,serif" font-size="14.00" fill="lightgray">wff ph</text>
</g>
<!-- n13682&#45;&gt;n13701 -->
<g id="edge20" class="edge"><title>n13682&#45;&gt;n13701</title>
<path fill="none" stroke="lightgray" d="M355.696,-658.424C406.707,-641.978 530.977,-601.545 634.194,-565 638.831,-563.358 643.692,-561.595 648.491,-559.828"/>
<polygon fill="lightgray" stroke="lightgray" points="650.01,-562.998 658.166,-556.235 647.573,-556.436 650.01,-562.998"/>
<text text-anchor="middle" x="509.194" y="-651.8" font-family="Times New Roman,serif" font-size="14.00" fill="lightgray">wff ( ( ps / ph ) / ch )</text>
</g>
<!-- n13687 -->
<g id="node18" class="node"><title>n13687</title>
<ellipse fill="none" stroke="lightgray" cx="331.097" cy="-546" rx="27" ry="18"/>
<text text-anchor="middle" x="331.097" y="-542.3" font-family="Times New Roman,serif" font-size="14.00" fill="lightgray">wa</text>
</g>
<!-- n13682&#45;&gt;n13687 -->
<g id="edge51" class="edge"><title>n13682&#45;&gt;n13687</title>
</g>
<!-- n13681&#45;&gt;n13682 -->
<g id="edge19" class="edge"><title>n13681&#45;&gt;n13682</title>
<path fill="none" stroke="lightgray" d="M181.214,-666C211.086,-666 260.102,-666 293.676,-666"/>
<polygon fill="lightgray" stroke="lightgray" points="293.99,-669.5 303.99,-666 293.99,-662.5 293.99,-669.5"/>
<text text-anchor="middle" x="238.5" y="-669.8" font-family="Times New Roman,serif" font-size="14.00" fill="lightgray">wff ch</text>
</g>
<!-- n13683 -->
<g id="node17" class="node"><title>n13683</title>
<ellipse fill="none" stroke="lightgray" cx="154" cy="-612" rx="27" ry="18"/>
<text text-anchor="middle" x="154" y="-608.3" font-family="Times New Roman,serif" font-size="14.00" fill="lightgray">wch</text>
</g>
<!-- n13683&#45;&gt;n13687 -->
<g id="edge22" class="edge"><title>n13683&#45;&gt;n13687</title>
<path fill="none" stroke="lightgray" d="M177.891,-603.372C208.433,-591.859 262.696,-571.406 297.503,-558.286"/>
<polygon fill="lightgray" stroke="lightgray" points="299.078,-561.433 307.2,-554.63 296.609,-554.883 299.078,-561.433"/>
<text text-anchor="middle" x="238.5" y="-598.8" font-family="Times New Roman,serif" font-size="14.00" fill="lightgray">wff ch</text>
</g>
<!-- n13686 -->
<g id="node20" class="node"><title>n13686</title>
<ellipse fill="none" stroke="lightgray" cx="154" cy="-540" rx="27" ry="18"/>
<text text-anchor="middle" x="154" y="-536.3" font-family="Times New Roman,serif" font-size="14.00" fill="lightgray">wa</text>
</g>
<!-- n13683&#45;&gt;n13686 -->
<g id="edge28" class="edge"><title>n13683&#45;&gt;n13686</title>
</g>
<!-- n13687&#45;&gt;n13701 -->
<g id="edge27" class="edge"><title>n13687&#45;&gt;n13701</title>
<path fill="none" stroke="lightgray" d="M358.333,-546C418.623,-546 567.542,-546 641.654,-546"/>
<polygon fill="lightgray" stroke="lightgray" points="642.027,-549.5 652.027,-546 642.027,-542.5 642.027,-549.5"/>
<text text-anchor="middle" x="509.194" y="-549.8" font-family="Times New Roman,serif" font-size="14.00" fill="lightgray">wff ( ch / ( ps / ph ) )</text>
</g>
<!-- n13691 -->
<g id="node23" class="node"><title>n13691</title>
<ellipse fill="cyan" stroke="black" cx="331.097" cy="-451" rx="27.8951" ry="18"/>
<text text-anchor="middle" x="331.097" y="-447.3" font-family="Times New Roman,serif" font-size="14.00">an12</text>
</g>
<!-- n13687&#45;&gt;n13691 -->
<g id="edge52" class="edge"><title>n13687&#45;&gt;n13691</title>
</g>
<!-- n13684 -->
<g id="node19" class="node"><title>n13684</title>
<ellipse fill="none" stroke="lightgray" cx="27" cy="-576" rx="27" ry="18"/>
<text text-anchor="middle" x="27" y="-572.3" font-family="Times New Roman,serif" font-size="14.00" fill="lightgray">wph</text>
</g>
<!-- n13684&#45;&gt;n13686 -->
<g id="edge23" class="edge"><title>n13684&#45;&gt;n13686</title>
<path fill="none" stroke="lightgray" d="M52.1013,-569.059C71.1232,-563.581 97.893,-555.871 119.079,-549.769"/>
<polygon fill="lightgray" stroke="lightgray" points="120.332,-553.051 128.973,-546.92 118.395,-546.324 120.332,-553.051"/>
<text text-anchor="middle" x="90.5" y="-567.8" font-family="Times New Roman,serif" font-size="14.00" fill="lightgray">wff ph</text>
</g>
<!-- n13685 -->
<g id="node21" class="node"><title>n13685</title>
<ellipse fill="none" stroke="lightgray" cx="27" cy="-504" rx="27" ry="18"/>
<text text-anchor="middle" x="27" y="-500.3" font-family="Times New Roman,serif" font-size="14.00" fill="lightgray">wps</text>
</g>
<!-- n13684&#45;&gt;n13685 -->
<g id="edge26" class="edge"><title>n13684&#45;&gt;n13685</title>
</g>
<!-- n13686&#45;&gt;n13687 -->
<g id="edge25" class="edge"><title>n13686&#45;&gt;n13687</title>
<path fill="none" stroke="lightgray" d="M181.214,-540.898C211.086,-541.922 260.102,-543.602 293.676,-544.752"/>
<polygon fill="lightgray" stroke="lightgray" points="293.876,-548.261 303.99,-545.105 294.116,-541.265 293.876,-548.261"/>
<text text-anchor="middle" x="238.5" y="-548.8" font-family="Times New Roman,serif" font-size="14.00" fill="lightgray">wff ( ps / ph )</text>
</g>
<!-- n13685&#45;&gt;n13686 -->
<g id="edge24" class="edge"><title>n13685&#45;&gt;n13686</title>
<path fill="none" stroke="lightgray" d="M52.1013,-510.941C71.1232,-516.419 97.893,-524.129 119.079,-530.231"/>
<polygon fill="lightgray" stroke="lightgray" points="118.395,-533.676 128.973,-533.08 120.332,-526.949 118.395,-533.676"/>
<text text-anchor="middle" x="90.5" y="-531.8" font-family="Times New Roman,serif" font-size="14.00" fill="lightgray">wff ps</text>
</g>
<!-- n13688 -->
<g id="node22" class="node"><title>n13688</title>
<ellipse fill="none" stroke="lightgray" cx="154" cy="-486" rx="27" ry="18"/>
<text text-anchor="middle" x="154" y="-482.3" font-family="Times New Roman,serif" font-size="14.00" fill="lightgray">wph</text>
</g>
<!-- n13688&#45;&gt;n13691 -->
<g id="edge29" class="edge"><title>n13688&#45;&gt;n13691</title>
<path fill="none" stroke="lightgray" d="M180.087,-480.985C209.995,-475.007 260.196,-464.972 294.206,-458.174"/>
<polygon fill="lightgray" stroke="lightgray" points="295.08,-461.569 304.2,-456.176 293.708,-454.705 295.08,-461.569"/>
<text text-anchor="middle" x="238.5" y="-480.8" font-family="Times New Roman,serif" font-size="14.00" fill="lightgray">wff ph</text>
</g>
<!-- n13689 -->
<g id="node24" class="node"><title>n13689</title>
<ellipse fill="none" stroke="lightgray" cx="154" cy="-414" rx="27" ry="18"/>
<text text-anchor="middle" x="154" y="-410.3" font-family="Times New Roman,serif" font-size="14.00" fill="lightgray">wps</text>
</g>
<!-- n13688&#45;&gt;n13689 -->
<g id="edge33" class="edge"><title>n13688&#45;&gt;n13689</title>
</g>
<!-- n13691&#45;&gt;n13701 -->
<g id="edge32" class="edge"><title>n13691&#45;&gt;n13701</title>
<path fill="none" stroke="black" d="M357.827,-456.455C410.303,-467.804 533.255,-495.533 634.194,-527 639.069,-528.52 644.158,-530.248 649.152,-532.029"/>
<polygon fill="black" stroke="black" points="647.963,-535.321 658.557,-535.477 650.373,-528.749 647.963,-535.321"/>
<text text-anchor="middle" x="509.194" y="-530.8" font-family="Times New Roman,serif" font-size="14.00">|&#45; ( ( ph / ( ps / ch ) ) &lt;&#45;&gt; ( ps / ( ph / ch ) ) )</text>
</g>
<!-- n13695 -->
<g id="node27" class="node"><title>n13695</title>
<ellipse fill="cyan" stroke="black" cx="331.097" cy="-255" rx="30.5947" ry="18"/>
<text text-anchor="middle" x="331.097" y="-251.3" font-family="Times New Roman,serif" font-size="14.00">anass</text>
</g>
<!-- n13691&#45;&gt;n13695 -->
<g id="edge53" class="edge"><title>n13691&#45;&gt;n13695</title>
</g>
<!-- n13689&#45;&gt;n13691 -->
<g id="edge30" class="edge"><title>n13689&#45;&gt;n13691</title>
<path fill="none" stroke="lightgray" d="M180.087,-419.301C209.995,-425.621 260.196,-436.229 294.206,-443.416"/>
<polygon fill="lightgray" stroke="lightgray" points="293.693,-446.885 304.2,-445.528 295.14,-440.036 293.693,-446.885"/>
<text text-anchor="middle" x="238.5" y="-443.8" font-family="Times New Roman,serif" font-size="14.00" fill="lightgray">wff ps</text>
</g>
<!-- n13690 -->
<g id="node25" class="node"><title>n13690</title>
<ellipse fill="none" stroke="lightgray" cx="154" cy="-342" rx="27" ry="18"/>
<text text-anchor="middle" x="154" y="-338.3" font-family="Times New Roman,serif" font-size="14.00" fill="lightgray">wch</text>
</g>
<!-- n13689&#45;&gt;n13690 -->
<g id="edge34" class="edge"><title>n13689&#45;&gt;n13690</title>
</g>
<!-- n13690&#45;&gt;n13691 -->
<g id="edge31" class="edge"><title>n13690&#45;&gt;n13691</title>
<path fill="none" stroke="lightgray" d="M177.258,-351.366C202.638,-362.498 244.894,-382.431 278,-405 288.228,-411.973 298.625,-420.744 307.413,-428.754"/>
<polygon fill="lightgray" stroke="lightgray" points="305.283,-431.553 314.981,-435.821 310.061,-426.437 305.283,-431.553"/>
<text text-anchor="middle" x="238.5" y="-408.8" font-family="Times New Roman,serif" font-size="14.00" fill="lightgray">wff ch</text>
</g>
<!-- n13692 -->
<g id="node26" class="node"><title>n13692</title>
<ellipse fill="none" stroke="lightgray" cx="154" cy="-288" rx="27" ry="18"/>
<text text-anchor="middle" x="154" y="-284.3" font-family="Times New Roman,serif" font-size="14.00" fill="lightgray">wps</text>
</g>
<!-- n13692&#45;&gt;n13695 -->
<g id="edge35" class="edge"><title>n13692&#45;&gt;n13695</title>
<path fill="none" stroke="lightgray" d="M180.087,-283.272C209.31,-277.764 257.905,-268.606 291.842,-262.21"/>
<polygon fill="lightgray" stroke="lightgray" points="292.687,-265.612 301.866,-260.321 291.391,-258.733 292.687,-265.612"/>
<text text-anchor="middle" x="238.5" y="-283.8" font-family="Times New Roman,serif" font-size="14.00" fill="lightgray">wff ps</text>
</g>
<!-- n13693 -->
<g id="node28" class="node"><title>n13693</title>
<ellipse fill="none" stroke="lightgray" cx="154" cy="-216" rx="27" ry="18"/>
<text text-anchor="middle" x="154" y="-212.3" font-family="Times New Roman,serif" font-size="14.00" fill="lightgray">wph</text>
</g>
<!-- n13692&#45;&gt;n13693 -->
<g id="edge39" class="edge"><title>n13692&#45;&gt;n13693</title>
</g>
<!-- n13695&#45;&gt;n13701 -->
<g id="edge38" class="edge"><title>n13695&#45;&gt;n13701</title>
<path fill="none" stroke="black" d="M356.756,-264.956C412.658,-288.592 550.642,-353.069 634.194,-445 653.681,-466.442 667.585,-496.739 675.865,-518.55"/>
<polygon fill="black" stroke="black" points="672.669,-520.003 679.375,-528.205 679.247,-517.611 672.669,-520.003"/>
<text text-anchor="middle" x="509.194" y="-448.8" font-family="Times New Roman,serif" font-size="14.00">|&#45; ( ( ( ps / ph ) / ch ) &lt;&#45;&gt; ( ps / ( ph / ch ) ) )</text>
</g>
<!-- n13700 -->
<g id="node33" class="node"><title>n13700</title>
<ellipse fill="cyan" stroke="black" cx="331.097" cy="-153" rx="35.194" ry="18"/>
<text text-anchor="middle" x="331.097" y="-149.3" font-family="Times New Roman,serif" font-size="14.00">ancom</text>
</g>
<!-- n13695&#45;&gt;n13700 -->
<g id="edge54" class="edge"><title>n13695&#45;&gt;n13700</title>
</g>
<!-- n13693&#45;&gt;n13695 -->
<g id="edge36" class="edge"><title>n13693&#45;&gt;n13695</title>
<path fill="none" stroke="lightgray" d="M179.716,-221.505C209.019,-228.032 258.17,-238.979 292.268,-246.574"/>
<polygon fill="lightgray" stroke="lightgray" points="291.807,-250.057 302.329,-248.815 293.329,-243.225 291.807,-250.057"/>
<text text-anchor="middle" x="238.5" y="-246.8" font-family="Times New Roman,serif" font-size="14.00" fill="lightgray">wff ph</text>
</g>
<!-- n13694 -->
<g id="node29" class="node"><title>n13694</title>
<ellipse fill="none" stroke="lightgray" cx="154" cy="-144" rx="27" ry="18"/>
<text text-anchor="middle" x="154" y="-140.3" font-family="Times New Roman,serif" font-size="14.00" fill="lightgray">wch</text>
</g>
<!-- n13693&#45;&gt;n13694 -->
<g id="edge40" class="edge"><title>n13693&#45;&gt;n13694</title>
</g>
<!-- n13694&#45;&gt;n13695 -->
<g id="edge37" class="edge"><title>n13694&#45;&gt;n13695</title>
<path fill="none" stroke="lightgray" d="M177.289,-153.514C202.697,-164.823 244.979,-185.073 278,-208 288.37,-215.2 298.883,-224.274 307.722,-232.524"/>
<polygon fill="lightgray" stroke="lightgray" points="305.367,-235.114 315.014,-239.494 310.204,-230.054 305.367,-235.114"/>
<text text-anchor="middle" x="238.5" y="-211.8" font-family="Times New Roman,serif" font-size="14.00" fill="lightgray">wff ch</text>
</g>
<!-- n13696 -->
<g id="node30" class="node"><title>n13696</title>
<ellipse fill="none" stroke="lightgray" cx="27" cy="-127" rx="27" ry="18"/>
<text text-anchor="middle" x="27" y="-123.3" font-family="Times New Roman,serif" font-size="14.00" fill="lightgray">wph</text>
</g>
<!-- n13698 -->
<g id="node31" class="node"><title>n13698</title>
<ellipse fill="none" stroke="lightgray" cx="154" cy="-90" rx="27" ry="18"/>
<text text-anchor="middle" x="154" y="-86.3" font-family="Times New Roman,serif" font-size="14.00" fill="lightgray">wa</text>
</g>
<!-- n13696&#45;&gt;n13698 -->
<g id="edge41" class="edge"><title>n13696&#45;&gt;n13698</title>
<path fill="none" stroke="lightgray" d="M52.1013,-119.866C71.2097,-114.21 98.1365,-106.24 119.368,-99.9551"/>
<polygon fill="lightgray" stroke="lightgray" points="120.377,-103.306 128.973,-97.1121 118.391,-96.5943 120.377,-103.306"/>
<text text-anchor="middle" x="90.5" y="-117.8" font-family="Times New Roman,serif" font-size="14.00" fill="lightgray">wff ph</text>
</g>
<!-- n13697 -->
<g id="node32" class="node"><title>n13697</title>
<ellipse fill="none" stroke="lightgray" cx="27" cy="-55" rx="27" ry="18"/>
<text text-anchor="middle" x="27" y="-51.3" font-family="Times New Roman,serif" font-size="14.00" fill="lightgray">wps</text>
</g>
<!-- n13696&#45;&gt;n13697 -->
<g id="edge44" class="edge"><title>n13696&#45;&gt;n13697</title>
</g>
<!-- n13698&#45;&gt;n13700 -->
<g id="edge43" class="edge"><title>n13698&#45;&gt;n13700</title>
<path fill="none" stroke="lightgray" d="M180.08,-95.0887C205.352,-100.64 245.198,-110.562 278,-124 285.046,-126.887 292.345,-130.509 299.169,-134.206"/>
<polygon fill="lightgray" stroke="lightgray" points="297.679,-137.383 308.112,-139.231 301.108,-131.281 297.679,-137.383"/>
<text text-anchor="middle" x="238.5" y="-127.8" font-family="Times New Roman,serif" font-size="14.00" fill="lightgray">wff ( ps / ph )</text>
</g>
<!-- n13699 -->
<g id="node34" class="node"><title>n13699</title>
<ellipse fill="none" stroke="lightgray" cx="154" cy="-18" rx="27" ry="18"/>
<text text-anchor="middle" x="154" y="-14.3" font-family="Times New Roman,serif" font-size="14.00" fill="lightgray">wch</text>
</g>
<!-- n13698&#45;&gt;n13699 -->
<g id="edge47" class="edge"><title>n13698&#45;&gt;n13699</title>
</g>
<!-- n13697&#45;&gt;n13698 -->
<g id="edge42" class="edge"><title>n13697&#45;&gt;n13698</title>
<path fill="none" stroke="lightgray" d="M52.1013,-61.7484C71.0013,-67.0404 97.5501,-74.474 118.671,-80.3879"/>
<polygon fill="lightgray" stroke="lightgray" points="117.973,-83.8269 128.546,-83.1529 119.86,-77.0862 117.973,-83.8269"/>
<text text-anchor="middle" x="90.5" y="-81.8" font-family="Times New Roman,serif" font-size="14.00" fill="lightgray">wff ps</text>
</g>
<!-- n13700&#45;&gt;n13701 -->
<g id="edge46" class="edge"><title>n13700&#45;&gt;n13701</title>
<path fill="none" stroke="black" d="M366.353,-154.564C429.739,-159.42 565.144,-179.34 634.194,-261 666.788,-299.547 679.507,-453.082 683.473,-517.412"/>
<polygon fill="black" stroke="black" points="679.994,-517.865 684.076,-527.642 686.982,-517.453 679.994,-517.865"/>
<text text-anchor="middle" x="509.194" y="-264.8" font-family="Times New Roman,serif" font-size="14.00">|&#45; ( ( ( ps / ph ) / ch ) &lt;&#45;&gt; ( ch / ( ps / ph ) ) )</text>
</g>
<!-- n13699&#45;&gt;n13700 -->
<g id="edge45" class="edge"><title>n13699&#45;&gt;n13700</title>
<path fill="none" stroke="lightgray" d="M178.234,-26.0913C204.51,-36.0541 247.586,-54.9166 278,-81 293.033,-93.8927 306.089,-111.958 315.37,-126.767"/>
<polygon fill="lightgray" stroke="lightgray" points="312.476,-128.745 320.645,-135.492 318.466,-125.123 312.476,-128.745"/>
<text text-anchor="middle" x="238.5" y="-84.8" font-family="Times New Roman,serif" font-size="14.00" fill="lightgray">wff ch</text>
</g>
</g>
</svg>
