<?xml version="1.0" encoding="UTF-8" standalone="no"?>
<!DOCTYPE svg PUBLIC "-//W3C//DTD SVG 1.1//EN"
 "http://www.w3.org/Graphics/SVG/1.1/DTD/svg11.dtd">
<!-- Generated by graphviz version 2.38.0 (20140413.2041)
 -->
<!-- Title: proof_an4 Pages: 1 -->
<svg width="1614pt" height="1480pt"
 viewBox="0.00 0.00 1613.98 1480.00" xmlns="http://www.w3.org/2000/svg" xmlns:xlink="http://www.w3.org/1999/xlink">
<g id="graph0" class="graph" transform="scale(1 1) rotate(0) translate(4 1476)">
<title>proof_an4</title>
<polygon fill="white" stroke="none" points="-4,4 -4,-1476 1609.98,-1476 1609.98,4 -4,4"/>
<!-- n13995 -->
<g id="node1" class="node"><title>n13995</title>
<ellipse fill="none" stroke="lightgray" cx="323.948" cy="-1454" rx="27" ry="18"/>
<text text-anchor="middle" x="323.948" y="-1450.3" font-family="Times New Roman,serif" font-size="14.00" fill="lightgray">wph</text>
</g>
<!-- n14001 -->
<g id="node2" class="node"><title>n14001</title>
<ellipse fill="none" stroke="lightgray" cx="677.392" cy="-1346" rx="27" ry="18"/>
<text text-anchor="middle" x="677.392" y="-1342.3" font-family="Times New Roman,serif" font-size="14.00" fill="lightgray">wa</text>
</g>
<!-- n13995&#45;&gt;n14001 -->
<g id="edge1" class="edge"><title>n13995&#45;&gt;n14001</title>
<path fill="none" stroke="lightgray" d="M351.301,-1454.06C405.977,-1453.12 534.352,-1445.38 626.895,-1396 638.85,-1389.62 649.739,-1379.38 658.241,-1369.82"/>
<polygon fill="lightgray" stroke="lightgray" points="661.02,-1371.96 664.792,-1362.06 655.669,-1367.45 661.02,-1371.96"/>
<text text-anchor="middle" x="498.395" y="-1456.8" font-family="Times New Roman,serif" font-size="14.00" fill="lightgray">wff ph</text>
</g>
<!-- n14000 -->
<g id="node4" class="node"><title>n14000</title>
<ellipse fill="none" stroke="lightgray" cx="323.948" cy="-1382" rx="27" ry="18"/>
<text text-anchor="middle" x="323.948" y="-1378.3" font-family="Times New Roman,serif" font-size="14.00" fill="lightgray">wa</text>
</g>
<!-- n13995&#45;&gt;n14000 -->
<g id="edge10" class="edge"><title>n13995&#45;&gt;n14000</title>
</g>
<!-- n14051 -->
<g id="node8" class="node"><title>n14051</title>
<ellipse fill="cyan" stroke="black" cx="1128.69" cy="-850" rx="33.5952" ry="18"/>
<text text-anchor="middle" x="1128.69" y="-846.3" font-family="Times New Roman,serif" font-size="14.00">3bitr4i</text>
</g>
<!-- n14001&#45;&gt;n14051 -->
<g id="edge9" class="edge"><title>n14001&#45;&gt;n14051</title>
<path fill="none" stroke="lightgray" d="M704.313,-1347.7C776.097,-1350.86 978.651,-1348.88 1076.89,-1236 1123.3,-1182.68 1127.78,-958.813 1127.87,-878.681"/>
<polygon fill="lightgray" stroke="lightgray" points="1131.37,-878.356 1127.85,-868.36 1124.37,-878.365 1131.37,-878.356"/>
<text text-anchor="middle" x="902.389" y="-1352.8" font-family="Times New Roman,serif" font-size="14.00" fill="lightgray">wff ( ph /\ ( ps /\ ( ch /\ th ) ) )</text>
</g>
<!-- n14008 -->
<g id="node10" class="node"><title>n14008</title>
<ellipse fill="none" stroke="lightgray" cx="677.392" cy="-1256" rx="27" ry="18"/>
<text text-anchor="middle" x="677.392" y="-1252.3" font-family="Times New Roman,serif" font-size="14.00" fill="lightgray">wa</text>
</g>
<!-- n14001&#45;&gt;n14008 -->
<g id="edge85" class="edge"><title>n14001&#45;&gt;n14008</title>
</g>
<!-- n13996 -->
<g id="node3" class="node"><title>n13996</title>
<ellipse fill="none" stroke="lightgray" cx="154" cy="-1454" rx="27" ry="18"/>
<text text-anchor="middle" x="154" y="-1450.3" font-family="Times New Roman,serif" font-size="14.00" fill="lightgray">wps</text>
</g>
<!-- n13996&#45;&gt;n14000 -->
<g id="edge2" class="edge"><title>n13996&#45;&gt;n14000</title>
<path fill="none" stroke="lightgray" d="M177.302,-1444.44C206.62,-1431.87 258.289,-1409.72 291.549,-1395.46"/>
<polygon fill="lightgray" stroke="lightgray" points="293.009,-1398.64 300.821,-1391.49 290.251,-1392.21 293.009,-1398.64"/>
<text text-anchor="middle" x="238.5" y="-1438.8" font-family="Times New Roman,serif" font-size="14.00" fill="lightgray">wff ps</text>
</g>
<!-- n13999 -->
<g id="node6" class="node"><title>n13999</title>
<ellipse fill="none" stroke="lightgray" cx="154" cy="-1382" rx="27" ry="18"/>
<text text-anchor="middle" x="154" y="-1378.3" font-family="Times New Roman,serif" font-size="14.00" fill="lightgray">wa</text>
</g>
<!-- n13996&#45;&gt;n13999 -->
<g id="edge8" class="edge"><title>n13996&#45;&gt;n13999</title>
</g>
<!-- n14000&#45;&gt;n14001 -->
<g id="edge7" class="edge"><title>n14000&#45;&gt;n14001</title>
<path fill="none" stroke="lightgray" d="M350.79,-1379.35C412.609,-1373.02 569.156,-1356.98 640.261,-1349.7"/>
<polygon fill="lightgray" stroke="lightgray" points="640.92,-1353.15 650.512,-1348.65 640.207,-1346.19 640.92,-1353.15"/>
<text text-anchor="middle" x="498.395" y="-1380.8" font-family="Times New Roman,serif" font-size="14.00" fill="lightgray">wff ( ps /\ ( ch /\ th ) )</text>
</g>
<!-- n13997 -->
<g id="node5" class="node"><title>n13997</title>
<ellipse fill="none" stroke="lightgray" cx="27" cy="-1419" rx="27" ry="18"/>
<text text-anchor="middle" x="27" y="-1415.3" font-family="Times New Roman,serif" font-size="14.00" fill="lightgray">wch</text>
</g>
<!-- n13997&#45;&gt;n13999 -->
<g id="edge3" class="edge"><title>n13997&#45;&gt;n13999</title>
<path fill="none" stroke="lightgray" d="M52.1013,-1411.87C71.2097,-1406.21 98.1365,-1398.24 119.368,-1391.96"/>
<polygon fill="lightgray" stroke="lightgray" points="120.377,-1395.31 128.973,-1389.11 118.391,-1388.59 120.377,-1395.31"/>
<text text-anchor="middle" x="90.5" y="-1409.8" font-family="Times New Roman,serif" font-size="14.00" fill="lightgray">wff ch</text>
</g>
<!-- n13998 -->
<g id="node7" class="node"><title>n13998</title>
<ellipse fill="none" stroke="lightgray" cx="27" cy="-1347" rx="27" ry="18"/>
<text text-anchor="middle" x="27" y="-1343.3" font-family="Times New Roman,serif" font-size="14.00" fill="lightgray">wth</text>
</g>
<!-- n13997&#45;&gt;n13998 -->
<g id="edge6" class="edge"><title>n13997&#45;&gt;n13998</title>
</g>
<!-- n13999&#45;&gt;n14000 -->
<g id="edge5" class="edge"><title>n13999&#45;&gt;n14000</title>
<path fill="none" stroke="lightgray" d="M181.242,-1382C209.589,-1382 254.948,-1382 286.691,-1382"/>
<polygon fill="lightgray" stroke="lightgray" points="286.89,-1385.5 296.89,-1382 286.89,-1378.5 286.89,-1385.5"/>
<text text-anchor="middle" x="238.5" y="-1385.8" font-family="Times New Roman,serif" font-size="14.00" fill="lightgray">wff ( ch /\ th )</text>
</g>
<!-- n13998&#45;&gt;n13999 -->
<g id="edge4" class="edge"><title>n13998&#45;&gt;n13999</title>
<path fill="none" stroke="lightgray" d="M52.1013,-1353.75C71.0013,-1359.04 97.5501,-1366.47 118.671,-1372.39"/>
<polygon fill="lightgray" stroke="lightgray" points="117.973,-1375.83 128.546,-1375.15 119.86,-1369.09 117.973,-1375.83"/>
<text text-anchor="middle" x="90.5" y="-1373.8" font-family="Times New Roman,serif" font-size="14.00" fill="lightgray">wff th</text>
</g>
<!-- QED -->
<g id="node58" class="node"><title>QED</title>
</g>
<!-- n14051&#45;&gt;QED -->
<g id="edge84" class="edge"><title>n14051&#45;&gt;QED</title>
<path fill="none" stroke="black" d="M1162.48,-850C1243.12,-850 1450.73,-850 1537.12,-850"/>
<polygon fill="black" stroke="black" points="1537.28,-853.5 1547.28,-850 1537.28,-846.5 1537.28,-853.5"/>
<text text-anchor="middle" x="1354.98" y="-853.8" font-family="Times New Roman,serif" font-size="14.00">|&#45; ( ( ( ph /\ ps ) /\ ( ch /\ th ) ) &lt;&#45;&gt; ( ( ph /\ ch ) /\ ( ps /\ th ) ) )</text>
</g>
<!-- n14002 -->
<g id="node9" class="node"><title>n14002</title>
<ellipse fill="none" stroke="lightgray" cx="323.948" cy="-1328" rx="27" ry="18"/>
<text text-anchor="middle" x="323.948" y="-1324.3" font-family="Times New Roman,serif" font-size="14.00" fill="lightgray">wph</text>
</g>
<!-- n14002&#45;&gt;n14008 -->
<g id="edge11" class="edge"><title>n14002&#45;&gt;n14008</title>
<path fill="none" stroke="lightgray" d="M350.767,-1325.17C403.404,-1319.03 526.618,-1302.77 626.895,-1275 632.692,-1273.39 638.754,-1271.37 644.568,-1269.25"/>
<polygon fill="lightgray" stroke="lightgray" points="645.936,-1272.47 654.03,-1265.63 643.439,-1265.93 645.936,-1272.47"/>
<text text-anchor="middle" x="498.395" y="-1326.8" font-family="Times New Roman,serif" font-size="14.00" fill="lightgray">wff ph</text>
</g>
<!-- n14007 -->
<g id="node12" class="node"><title>n14007</title>
<ellipse fill="none" stroke="lightgray" cx="323.948" cy="-1256" rx="27" ry="18"/>
<text text-anchor="middle" x="323.948" y="-1252.3" font-family="Times New Roman,serif" font-size="14.00" fill="lightgray">wa</text>
</g>
<!-- n14002&#45;&gt;n14007 -->
<g id="edge20" class="edge"><title>n14002&#45;&gt;n14007</title>
</g>
<!-- n14008&#45;&gt;n14051 -->
<g id="edge19" class="edge"><title>n14008&#45;&gt;n14051</title>
<path fill="none" stroke="lightgray" d="M695.791,-1242.64C705.072,-1235.78 716.832,-1227.53 727.889,-1221 876.304,-1133.4 968.108,-1185.67 1076.89,-1052 1118.36,-1001.04 1126.55,-920.671 1127.81,-878.302"/>
<polygon fill="lightgray" stroke="lightgray" points="1131.32,-878.21 1128,-868.146 1124.32,-878.079 1131.32,-878.21"/>
<text text-anchor="middle" x="902.389" y="-1224.8" font-family="Times New Roman,serif" font-size="14.00" fill="lightgray">wff ( ph /\ ( ch /\ ( ps /\ th ) ) )</text>
</g>
<!-- n14015 -->
<g id="node19" class="node"><title>n14015</title>
<ellipse fill="none" stroke="lightgray" cx="677.392" cy="-1058" rx="27" ry="18"/>
<text text-anchor="middle" x="677.392" y="-1054.3" font-family="Times New Roman,serif" font-size="14.00" fill="lightgray">wa</text>
</g>
<!-- n14008&#45;&gt;n14015 -->
<g id="edge86" class="edge"><title>n14008&#45;&gt;n14015</title>
</g>
<!-- n14003 -->
<g id="node11" class="node"><title>n14003</title>
<ellipse fill="none" stroke="lightgray" cx="154" cy="-1328" rx="27" ry="18"/>
<text text-anchor="middle" x="154" y="-1324.3" font-family="Times New Roman,serif" font-size="14.00" fill="lightgray">wch</text>
</g>
<!-- n14003&#45;&gt;n14007 -->
<g id="edge12" class="edge"><title>n14003&#45;&gt;n14007</title>
<path fill="none" stroke="lightgray" d="M177.302,-1318.44C206.62,-1305.87 258.289,-1283.72 291.549,-1269.46"/>
<polygon fill="lightgray" stroke="lightgray" points="293.009,-1272.64 300.821,-1265.49 290.251,-1266.21 293.009,-1272.64"/>
<text text-anchor="middle" x="238.5" y="-1312.8" font-family="Times New Roman,serif" font-size="14.00" fill="lightgray">wff ch</text>
</g>
<!-- n14006 -->
<g id="node14" class="node"><title>n14006</title>
<ellipse fill="none" stroke="lightgray" cx="154" cy="-1256" rx="27" ry="18"/>
<text text-anchor="middle" x="154" y="-1252.3" font-family="Times New Roman,serif" font-size="14.00" fill="lightgray">wa</text>
</g>
<!-- n14003&#45;&gt;n14006 -->
<g id="edge18" class="edge"><title>n14003&#45;&gt;n14006</title>
</g>
<!-- n14007&#45;&gt;n14008 -->
<g id="edge17" class="edge"><title>n14007&#45;&gt;n14008</title>
<path fill="none" stroke="lightgray" d="M351.076,-1256C412.962,-1256 568.618,-1256 639.818,-1256"/>
<polygon fill="lightgray" stroke="lightgray" points="640.092,-1259.5 650.092,-1256 640.092,-1252.5 640.092,-1259.5"/>
<text text-anchor="middle" x="498.395" y="-1259.8" font-family="Times New Roman,serif" font-size="14.00" fill="lightgray">wff ( ch /\ ( ps /\ th ) )</text>
</g>
<!-- n14004 -->
<g id="node13" class="node"><title>n14004</title>
<ellipse fill="none" stroke="lightgray" cx="27" cy="-1280" rx="27" ry="18"/>
<text text-anchor="middle" x="27" y="-1276.3" font-family="Times New Roman,serif" font-size="14.00" fill="lightgray">wps</text>
</g>
<!-- n14004&#45;&gt;n14006 -->
<g id="edge13" class="edge"><title>n14004&#45;&gt;n14006</title>
<path fill="none" stroke="lightgray" d="M53.2956,-1275.14C71.8481,-1271.58 97.2772,-1266.7 117.811,-1262.76"/>
<polygon fill="lightgray" stroke="lightgray" points="118.581,-1266.17 127.742,-1260.85 117.261,-1259.3 118.581,-1266.17"/>
<text text-anchor="middle" x="90.5" y="-1275.8" font-family="Times New Roman,serif" font-size="14.00" fill="lightgray">wff ps</text>
</g>
<!-- n14005 -->
<g id="node15" class="node"><title>n14005</title>
<ellipse fill="none" stroke="lightgray" cx="27" cy="-1208" rx="27" ry="18"/>
<text text-anchor="middle" x="27" y="-1204.3" font-family="Times New Roman,serif" font-size="14.00" fill="lightgray">wth</text>
</g>
<!-- n14004&#45;&gt;n14005 -->
<g id="edge16" class="edge"><title>n14004&#45;&gt;n14005</title>
</g>
<!-- n14006&#45;&gt;n14007 -->
<g id="edge15" class="edge"><title>n14006&#45;&gt;n14007</title>
<path fill="none" stroke="lightgray" d="M181.242,-1256C209.589,-1256 254.948,-1256 286.691,-1256"/>
<polygon fill="lightgray" stroke="lightgray" points="286.89,-1259.5 296.89,-1256 286.89,-1252.5 286.89,-1259.5"/>
<text text-anchor="middle" x="238.5" y="-1259.8" font-family="Times New Roman,serif" font-size="14.00" fill="lightgray">wff ( ps /\ th )</text>
</g>
<!-- n14005&#45;&gt;n14006 -->
<g id="edge14" class="edge"><title>n14005&#45;&gt;n14006</title>
<path fill="none" stroke="lightgray" d="M50.9269,-1216.8C70.4855,-1224.31 98.8274,-1235.2 120.686,-1243.59"/>
<polygon fill="lightgray" stroke="lightgray" points="119.628,-1246.93 130.218,-1247.25 122.138,-1240.4 119.628,-1246.93"/>
<text text-anchor="middle" x="90.5" y="-1243.8" font-family="Times New Roman,serif" font-size="14.00" fill="lightgray">wff th</text>
</g>
<!-- n14009 -->
<g id="node16" class="node"><title>n14009</title>
<ellipse fill="none" stroke="lightgray" cx="154" cy="-1202" rx="27" ry="18"/>
<text text-anchor="middle" x="154" y="-1198.3" font-family="Times New Roman,serif" font-size="14.00" fill="lightgray">wph</text>
</g>
<!-- n14011 -->
<g id="node17" class="node"><title>n14011</title>
<ellipse fill="none" stroke="lightgray" cx="323.948" cy="-1130" rx="27" ry="18"/>
<text text-anchor="middle" x="323.948" y="-1126.3" font-family="Times New Roman,serif" font-size="14.00" fill="lightgray">wa</text>
</g>
<!-- n14009&#45;&gt;n14011 -->
<g id="edge21" class="edge"><title>n14009&#45;&gt;n14011</title>
<path fill="none" stroke="lightgray" d="M177.302,-1192.44C206.62,-1179.87 258.289,-1157.72 291.549,-1143.46"/>
<polygon fill="lightgray" stroke="lightgray" points="293.009,-1146.64 300.821,-1139.49 290.251,-1140.21 293.009,-1146.64"/>
<text text-anchor="middle" x="238.5" y="-1186.8" font-family="Times New Roman,serif" font-size="14.00" fill="lightgray">wff ph</text>
</g>
<!-- n14010 -->
<g id="node18" class="node"><title>n14010</title>
<ellipse fill="none" stroke="lightgray" cx="154" cy="-1130" rx="27" ry="18"/>
<text text-anchor="middle" x="154" y="-1126.3" font-family="Times New Roman,serif" font-size="14.00" fill="lightgray">wps</text>
</g>
<!-- n14009&#45;&gt;n14010 -->
<g id="edge24" class="edge"><title>n14009&#45;&gt;n14010</title>
</g>
<!-- n14011&#45;&gt;n14015 -->
<g id="edge23" class="edge"><title>n14011&#45;&gt;n14015</title>
<path fill="none" stroke="lightgray" d="M350.767,-1127.17C403.404,-1121.03 526.618,-1104.77 626.895,-1077 632.692,-1075.39 638.754,-1073.37 644.568,-1071.25"/>
<polygon fill="lightgray" stroke="lightgray" points="645.936,-1074.47 654.03,-1067.63 643.439,-1067.93 645.936,-1074.47"/>
<text text-anchor="middle" x="498.395" y="-1128.8" font-family="Times New Roman,serif" font-size="14.00" fill="lightgray">wff ( ph /\ ps )</text>
</g>
<!-- n14014 -->
<g id="node21" class="node"><title>n14014</title>
<ellipse fill="none" stroke="lightgray" cx="323.948" cy="-1058" rx="27" ry="18"/>
<text text-anchor="middle" x="323.948" y="-1054.3" font-family="Times New Roman,serif" font-size="14.00" fill="lightgray">wa</text>
</g>
<!-- n14011&#45;&gt;n14014 -->
<g id="edge30" class="edge"><title>n14011&#45;&gt;n14014</title>
</g>
<!-- n14010&#45;&gt;n14011 -->
<g id="edge22" class="edge"><title>n14010&#45;&gt;n14011</title>
<path fill="none" stroke="lightgray" d="M181.242,-1130C209.589,-1130 254.948,-1130 286.691,-1130"/>
<polygon fill="lightgray" stroke="lightgray" points="286.89,-1133.5 296.89,-1130 286.89,-1126.5 286.89,-1133.5"/>
<text text-anchor="middle" x="238.5" y="-1133.8" font-family="Times New Roman,serif" font-size="14.00" fill="lightgray">wff ps</text>
</g>
<!-- n14015&#45;&gt;n14051 -->
<g id="edge29" class="edge"><title>n14015&#45;&gt;n14051</title>
<path fill="none" stroke="lightgray" d="M700.063,-1047.97C772.291,-1014.53 1005.23,-906.691 1093.42,-865.864"/>
<polygon fill="lightgray" stroke="lightgray" points="1095.11,-868.939 1102.71,-861.562 1092.17,-862.587 1095.11,-868.939"/>
<text text-anchor="middle" x="902.389" y="-1036.8" font-family="Times New Roman,serif" font-size="14.00" fill="lightgray">wff ( ( ph /\ ps ) /\ ( ch /\ th ) )</text>
</g>
<!-- n14022 -->
<g id="node26" class="node"><title>n14022</title>
<ellipse fill="none" stroke="lightgray" cx="677.392" cy="-850" rx="27" ry="18"/>
<text text-anchor="middle" x="677.392" y="-846.3" font-family="Times New Roman,serif" font-size="14.00" fill="lightgray">wa</text>
</g>
<!-- n14015&#45;&gt;n14022 -->
<g id="edge87" class="edge"><title>n14015&#45;&gt;n14022</title>
</g>
<!-- n14012 -->
<g id="node20" class="node"><title>n14012</title>
<ellipse fill="none" stroke="lightgray" cx="154" cy="-1076" rx="27" ry="18"/>
<text text-anchor="middle" x="154" y="-1072.3" font-family="Times New Roman,serif" font-size="14.00" fill="lightgray">wth</text>
</g>
<!-- n14012&#45;&gt;n14014 -->
<g id="edge25" class="edge"><title>n14012&#45;&gt;n14014</title>
<path fill="none" stroke="lightgray" d="M180.874,-1073.23C209.229,-1070.19 254.919,-1065.29 286.805,-1061.87"/>
<polygon fill="lightgray" stroke="lightgray" points="287.474,-1065.32 297.044,-1060.78 286.728,-1058.36 287.474,-1065.32"/>
<text text-anchor="middle" x="238.5" y="-1075.8" font-family="Times New Roman,serif" font-size="14.00" fill="lightgray">wff th</text>
</g>
<!-- n14013 -->
<g id="node22" class="node"><title>n14013</title>
<ellipse fill="none" stroke="lightgray" cx="154" cy="-1004" rx="27" ry="18"/>
<text text-anchor="middle" x="154" y="-1000.3" font-family="Times New Roman,serif" font-size="14.00" fill="lightgray">wch</text>
</g>
<!-- n14012&#45;&gt;n14013 -->
<g id="edge28" class="edge"><title>n14012&#45;&gt;n14013</title>
</g>
<!-- n14014&#45;&gt;n14015 -->
<g id="edge27" class="edge"><title>n14014&#45;&gt;n14015</title>
<path fill="none" stroke="lightgray" d="M351.076,-1058C412.962,-1058 568.618,-1058 639.818,-1058"/>
<polygon fill="lightgray" stroke="lightgray" points="640.092,-1061.5 650.092,-1058 640.092,-1054.5 640.092,-1061.5"/>
<text text-anchor="middle" x="498.395" y="-1061.8" font-family="Times New Roman,serif" font-size="14.00" fill="lightgray">wff ( ch /\ th )</text>
</g>
<!-- n14013&#45;&gt;n14014 -->
<g id="edge26" class="edge"><title>n14013&#45;&gt;n14014</title>
<path fill="none" stroke="lightgray" d="M178.707,-1011.62C207.714,-1020.95 257.001,-1036.8 289.765,-1047.33"/>
<polygon fill="lightgray" stroke="lightgray" points="288.77,-1050.69 299.362,-1050.42 290.913,-1044.02 288.77,-1050.69"/>
<text text-anchor="middle" x="238.5" y="-1047.8" font-family="Times New Roman,serif" font-size="14.00" fill="lightgray">wff ch</text>
</g>
<!-- n14016 -->
<g id="node23" class="node"><title>n14016</title>
<ellipse fill="none" stroke="lightgray" cx="154" cy="-950" rx="27" ry="18"/>
<text text-anchor="middle" x="154" y="-946.3" font-family="Times New Roman,serif" font-size="14.00" fill="lightgray">wph</text>
</g>
<!-- n14018 -->
<g id="node24" class="node"><title>n14018</title>
<ellipse fill="none" stroke="lightgray" cx="323.948" cy="-891" rx="27" ry="18"/>
<text text-anchor="middle" x="323.948" y="-887.3" font-family="Times New Roman,serif" font-size="14.00" fill="lightgray">wa</text>
</g>
<!-- n14016&#45;&gt;n14018 -->
<g id="edge31" class="edge"><title>n14016&#45;&gt;n14018</title>
<path fill="none" stroke="lightgray" d="M178.594,-941.796C203.365,-933.173 243.441,-919.192 278,-907 281.845,-905.644 285.872,-904.218 289.871,-902.798"/>
<polygon fill="lightgray" stroke="lightgray" points="291.378,-905.977 299.628,-899.329 289.033,-899.382 291.378,-905.977"/>
<text text-anchor="middle" x="238.5" y="-937.8" font-family="Times New Roman,serif" font-size="14.00" fill="lightgray">wff ph</text>
</g>
<!-- n14017 -->
<g id="node25" class="node"><title>n14017</title>
<ellipse fill="none" stroke="lightgray" cx="154" cy="-878" rx="27" ry="18"/>
<text text-anchor="middle" x="154" y="-874.3" font-family="Times New Roman,serif" font-size="14.00" fill="lightgray">wch</text>
</g>
<!-- n14016&#45;&gt;n14017 -->
<g id="edge34" class="edge"><title>n14016&#45;&gt;n14017</title>
</g>
<!-- n14018&#45;&gt;n14022 -->
<g id="edge33" class="edge"><title>n14018&#45;&gt;n14022</title>
<path fill="none" stroke="lightgray" d="M350.79,-887.985C412.609,-880.773 569.156,-862.51 640.261,-854.215"/>
<polygon fill="lightgray" stroke="lightgray" points="640.985,-857.655 650.512,-853.019 640.173,-850.702 640.985,-857.655"/>
<text text-anchor="middle" x="498.395" y="-889.8" font-family="Times New Roman,serif" font-size="14.00" fill="lightgray">wff ( ph /\ ch )</text>
</g>
<!-- n14021 -->
<g id="node28" class="node"><title>n14021</title>
<ellipse fill="none" stroke="lightgray" cx="323.948" cy="-819" rx="27" ry="18"/>
<text text-anchor="middle" x="323.948" y="-815.3" font-family="Times New Roman,serif" font-size="14.00" fill="lightgray">wa</text>
</g>
<!-- n14018&#45;&gt;n14021 -->
<g id="edge40" class="edge"><title>n14018&#45;&gt;n14021</title>
</g>
<!-- n14017&#45;&gt;n14018 -->
<g id="edge32" class="edge"><title>n14017&#45;&gt;n14018</title>
<path fill="none" stroke="lightgray" d="M180.874,-880.003C209.229,-882.198 254.919,-885.734 286.805,-888.202"/>
<polygon fill="lightgray" stroke="lightgray" points="286.804,-891.713 297.044,-888.995 287.344,-884.734 286.804,-891.713"/>
<text text-anchor="middle" x="238.5" y="-891.8" font-family="Times New Roman,serif" font-size="14.00" fill="lightgray">wff ch</text>
</g>
<!-- n14022&#45;&gt;n14051 -->
<g id="edge39" class="edge"><title>n14022&#45;&gt;n14051</title>
<path fill="none" stroke="lightgray" d="M704.49,-850C778.879,-850 992.536,-850 1084.61,-850"/>
<polygon fill="lightgray" stroke="lightgray" points="1084.7,-853.5 1094.7,-850 1084.7,-846.5 1084.7,-853.5"/>
<text text-anchor="middle" x="902.389" y="-853.8" font-family="Times New Roman,serif" font-size="14.00" fill="lightgray">wff ( ( ph /\ ch ) /\ ( ps /\ th ) )</text>
</g>
<!-- n14038 -->
<g id="node35" class="node"><title>n14038</title>
<ellipse fill="cyan" stroke="black" cx="677.392" cy="-590" rx="32.4942" ry="18"/>
<text text-anchor="middle" x="677.392" y="-586.3" font-family="Times New Roman,serif" font-size="14.00">anbi2i</text>
</g>
<!-- n14022&#45;&gt;n14038 -->
<g id="edge88" class="edge"><title>n14022&#45;&gt;n14038</title>
</g>
<!-- n14019 -->
<g id="node27" class="node"><title>n14019</title>
<ellipse fill="none" stroke="lightgray" cx="154" cy="-824" rx="27" ry="18"/>
<text text-anchor="middle" x="154" y="-820.3" font-family="Times New Roman,serif" font-size="14.00" fill="lightgray">wth</text>
</g>
<!-- n14019&#45;&gt;n14021 -->
<g id="edge35" class="edge"><title>n14019&#45;&gt;n14021</title>
<path fill="none" stroke="lightgray" d="M181.242,-823.219C209.589,-822.375 254.948,-821.024 286.691,-820.079"/>
<polygon fill="lightgray" stroke="lightgray" points="286.999,-823.572 296.89,-819.776 286.79,-816.575 286.999,-823.572"/>
<text text-anchor="middle" x="238.5" y="-826.8" font-family="Times New Roman,serif" font-size="14.00" fill="lightgray">wff th</text>
</g>
<!-- n14020 -->
<g id="node29" class="node"><title>n14020</title>
<ellipse fill="none" stroke="lightgray" cx="154" cy="-752" rx="27" ry="18"/>
<text text-anchor="middle" x="154" y="-748.3" font-family="Times New Roman,serif" font-size="14.00" fill="lightgray">wps</text>
</g>
<!-- n14019&#45;&gt;n14020 -->
<g id="edge38" class="edge"><title>n14019&#45;&gt;n14020</title>
</g>
<!-- n14021&#45;&gt;n14022 -->
<g id="edge37" class="edge"><title>n14021&#45;&gt;n14022</title>
<path fill="none" stroke="lightgray" d="M350.984,-818.831C403.508,-818.868 525.77,-820.868 626.895,-837 632.028,-837.819 637.399,-838.942 642.633,-840.188"/>
<polygon fill="lightgray" stroke="lightgray" points="641.872,-843.606 652.427,-842.688 643.603,-836.824 641.872,-843.606"/>
<text text-anchor="middle" x="498.395" y="-840.8" font-family="Times New Roman,serif" font-size="14.00" fill="lightgray">wff ( ps /\ th )</text>
</g>
<!-- n14020&#45;&gt;n14021 -->
<g id="edge36" class="edge"><title>n14020&#45;&gt;n14021</title>
<path fill="none" stroke="lightgray" d="M177.65,-761.036C206.78,-772.657 257.558,-792.914 290.71,-806.139"/>
<polygon fill="lightgray" stroke="lightgray" points="289.804,-809.546 300.389,-810 292.397,-803.044 289.804,-809.546"/>
<text text-anchor="middle" x="238.5" y="-805.8" font-family="Times New Roman,serif" font-size="14.00" fill="lightgray">wff ps</text>
</g>
<!-- n14023 -->
<g id="node30" class="node"><title>n14023</title>
<ellipse fill="none" stroke="lightgray" cx="27" cy="-751" rx="27" ry="18"/>
<text text-anchor="middle" x="27" y="-747.3" font-family="Times New Roman,serif" font-size="14.00" fill="lightgray">wth</text>
</g>
<!-- n14025 -->
<g id="node31" class="node"><title>n14025</title>
<ellipse fill="none" stroke="lightgray" cx="154" cy="-698" rx="27" ry="18"/>
<text text-anchor="middle" x="154" y="-694.3" font-family="Times New Roman,serif" font-size="14.00" fill="lightgray">wa</text>
</g>
<!-- n14023&#45;&gt;n14025 -->
<g id="edge41" class="edge"><title>n14023&#45;&gt;n14025</title>
<path fill="none" stroke="lightgray" d="M50.3475,-741.525C70.167,-733.121 99.3284,-720.757 121.51,-711.352"/>
<polygon fill="lightgray" stroke="lightgray" points="123.006,-714.519 130.846,-707.393 120.273,-708.075 123.006,-714.519"/>
<text text-anchor="middle" x="90.5" y="-736.8" font-family="Times New Roman,serif" font-size="14.00" fill="lightgray">wff th</text>
</g>
<!-- n14024 -->
<g id="node32" class="node"><title>n14024</title>
<ellipse fill="none" stroke="lightgray" cx="27" cy="-679" rx="27" ry="18"/>
<text text-anchor="middle" x="27" y="-675.3" font-family="Times New Roman,serif" font-size="14.00" fill="lightgray">wch</text>
</g>
<!-- n14023&#45;&gt;n14024 -->
<g id="edge44" class="edge"><title>n14023&#45;&gt;n14024</title>
</g>
<!-- n14027 -->
<g id="node33" class="node"><title>n14027</title>
<ellipse fill="none" stroke="lightgray" cx="323.948" cy="-662" rx="27" ry="18"/>
<text text-anchor="middle" x="323.948" y="-658.3" font-family="Times New Roman,serif" font-size="14.00" fill="lightgray">wa</text>
</g>
<!-- n14025&#45;&gt;n14027 -->
<g id="edge43" class="edge"><title>n14025&#45;&gt;n14027</title>
<path fill="none" stroke="lightgray" d="M180.143,-692.61C208.796,-686.469 255.811,-676.391 288.014,-669.488"/>
<polygon fill="lightgray" stroke="lightgray" points="288.863,-672.886 297.907,-667.368 287.395,-666.041 288.863,-672.886"/>
<text text-anchor="middle" x="238.5" y="-692.8" font-family="Times New Roman,serif" font-size="14.00" fill="lightgray">wff ( ch /\ th )</text>
</g>
<!-- n14026 -->
<g id="node34" class="node"><title>n14026</title>
<ellipse fill="none" stroke="lightgray" cx="154" cy="-626" rx="27" ry="18"/>
<text text-anchor="middle" x="154" y="-622.3" font-family="Times New Roman,serif" font-size="14.00" fill="lightgray">wps</text>
</g>
<!-- n14025&#45;&gt;n14026 -->
<g id="edge47" class="edge"><title>n14025&#45;&gt;n14026</title>
</g>
<!-- n14024&#45;&gt;n14025 -->
<g id="edge42" class="edge"><title>n14024&#45;&gt;n14025</title>
<path fill="none" stroke="lightgray" d="M53.5973,-682.891C71.9662,-685.683 96.9608,-689.482 117.291,-692.572"/>
<polygon fill="lightgray" stroke="lightgray" points="117.025,-696.072 127.437,-694.114 118.077,-689.151 117.025,-696.072"/>
<text text-anchor="middle" x="90.5" y="-695.8" font-family="Times New Roman,serif" font-size="14.00" fill="lightgray">wff ch</text>
</g>
<!-- n14027&#45;&gt;n14038 -->
<g id="edge46" class="edge"><title>n14027&#45;&gt;n14038</title>
<path fill="none" stroke="lightgray" d="M350.767,-659.171C403.404,-653.034 526.618,-636.767 626.895,-609 631.688,-607.673 636.663,-606.059 641.529,-604.34"/>
<polygon fill="lightgray" stroke="lightgray" points="643.118,-607.483 651.272,-600.719 640.679,-600.922 643.118,-607.483"/>
<text text-anchor="middle" x="498.395" y="-660.8" font-family="Times New Roman,serif" font-size="14.00" fill="lightgray">wff ( ps /\ ( ch /\ th ) )</text>
</g>
<!-- n14032 -->
<g id="node39" class="node"><title>n14032</title>
<ellipse fill="none" stroke="lightgray" cx="323.948" cy="-590" rx="27" ry="18"/>
<text text-anchor="middle" x="323.948" y="-586.3" font-family="Times New Roman,serif" font-size="14.00" fill="lightgray">wa</text>
</g>
<!-- n14027&#45;&gt;n14032 -->
<g id="edge63" class="edge"><title>n14027&#45;&gt;n14032</title>
</g>
<!-- n14026&#45;&gt;n14027 -->
<g id="edge45" class="edge"><title>n14026&#45;&gt;n14027</title>
<path fill="none" stroke="lightgray" d="M180.143,-631.39C208.796,-637.531 255.811,-647.609 288.014,-654.512"/>
<polygon fill="lightgray" stroke="lightgray" points="287.395,-657.959 297.907,-656.632 288.863,-651.114 287.395,-657.959"/>
<text text-anchor="middle" x="238.5" y="-656.8" font-family="Times New Roman,serif" font-size="14.00" fill="lightgray">wff ps</text>
</g>
<!-- n14038&#45;&gt;n14051 -->
<g id="edge62" class="edge"><title>n14038&#45;&gt;n14051</title>
<path fill="none" stroke="black" d="M700.673,-602.893C774.391,-645.553 1010.57,-782.224 1096.25,-831.81"/>
<polygon fill="black" stroke="black" points="1094.6,-834.895 1105,-836.874 1098.1,-828.836 1094.6,-834.895"/>
<text text-anchor="middle" x="902.389" y="-821.8" font-family="Times New Roman,serif" font-size="14.00">|&#45; ( ( ph /\ ( ps /\ ( ch /\ th ) ) ) &lt;&#45;&gt; ( ph /\ ( ch /\ ( ps /\ th ) ) ) )</text>
</g>
<!-- n14044 -->
<g id="node47" class="node"><title>n14044</title>
<ellipse fill="cyan" stroke="black" cx="677.392" cy="-364" rx="30.5947" ry="18"/>
<text text-anchor="middle" x="677.392" y="-360.3" font-family="Times New Roman,serif" font-size="14.00">anass</text>
</g>
<!-- n14038&#45;&gt;n14044 -->
<g id="edge89" class="edge"><title>n14038&#45;&gt;n14044</title>
</g>
<!-- n14028 -->
<g id="node36" class="node"><title>n14028</title>
<ellipse fill="none" stroke="lightgray" cx="27" cy="-609" rx="27" ry="18"/>
<text text-anchor="middle" x="27" y="-605.3" font-family="Times New Roman,serif" font-size="14.00" fill="lightgray">wth</text>
</g>
<!-- n14030 -->
<g id="node37" class="node"><title>n14030</title>
<ellipse fill="none" stroke="lightgray" cx="154" cy="-572" rx="27" ry="18"/>
<text text-anchor="middle" x="154" y="-568.3" font-family="Times New Roman,serif" font-size="14.00" fill="lightgray">wa</text>
</g>
<!-- n14028&#45;&gt;n14030 -->
<g id="edge48" class="edge"><title>n14028&#45;&gt;n14030</title>
<path fill="none" stroke="lightgray" d="M52.1013,-601.866C71.2097,-596.21 98.1365,-588.24 119.368,-581.955"/>
<polygon fill="lightgray" stroke="lightgray" points="120.377,-585.306 128.973,-579.112 118.391,-578.594 120.377,-585.306"/>
<text text-anchor="middle" x="90.5" y="-599.8" font-family="Times New Roman,serif" font-size="14.00" fill="lightgray">wff th</text>
</g>
<!-- n14029 -->
<g id="node38" class="node"><title>n14029</title>
<ellipse fill="none" stroke="lightgray" cx="27" cy="-537" rx="27" ry="18"/>
<text text-anchor="middle" x="27" y="-533.3" font-family="Times New Roman,serif" font-size="14.00" fill="lightgray">wps</text>
</g>
<!-- n14028&#45;&gt;n14029 -->
<g id="edge51" class="edge"><title>n14028&#45;&gt;n14029</title>
</g>
<!-- n14030&#45;&gt;n14032 -->
<g id="edge50" class="edge"><title>n14030&#45;&gt;n14032</title>
<path fill="none" stroke="lightgray" d="M180.874,-574.773C209.229,-577.812 254.919,-582.709 286.805,-586.126"/>
<polygon fill="lightgray" stroke="lightgray" points="286.728,-589.638 297.044,-587.224 287.474,-582.678 286.728,-589.638"/>
<text text-anchor="middle" x="238.5" y="-589.8" font-family="Times New Roman,serif" font-size="14.00" fill="lightgray">wff ( ps /\ th )</text>
</g>
<!-- n14031 -->
<g id="node40" class="node"><title>n14031</title>
<ellipse fill="none" stroke="lightgray" cx="154" cy="-500" rx="27" ry="18"/>
<text text-anchor="middle" x="154" y="-496.3" font-family="Times New Roman,serif" font-size="14.00" fill="lightgray">wch</text>
</g>
<!-- n14030&#45;&gt;n14031 -->
<g id="edge54" class="edge"><title>n14030&#45;&gt;n14031</title>
</g>
<!-- n14029&#45;&gt;n14030 -->
<g id="edge49" class="edge"><title>n14029&#45;&gt;n14030</title>
<path fill="none" stroke="lightgray" d="M52.1013,-543.748C71.0013,-549.04 97.5501,-556.474 118.671,-562.388"/>
<polygon fill="lightgray" stroke="lightgray" points="117.973,-565.827 128.546,-565.153 119.86,-559.086 117.973,-565.827"/>
<text text-anchor="middle" x="90.5" y="-563.8" font-family="Times New Roman,serif" font-size="14.00" fill="lightgray">wff ps</text>
</g>
<!-- n14032&#45;&gt;n14038 -->
<g id="edge53" class="edge"><title>n14032&#45;&gt;n14038</title>
<path fill="none" stroke="lightgray" d="M351.076,-590C411.497,-590 561.302,-590 634.623,-590"/>
<polygon fill="lightgray" stroke="lightgray" points="634.866,-593.5 644.866,-590 634.866,-586.5 634.866,-593.5"/>
<text text-anchor="middle" x="498.395" y="-593.8" font-family="Times New Roman,serif" font-size="14.00" fill="lightgray">wff ( ch /\ ( ps /\ th ) )</text>
</g>
<!-- n14033 -->
<g id="node41" class="node"><title>n14033</title>
<ellipse fill="none" stroke="lightgray" cx="323.948" cy="-518" rx="27" ry="18"/>
<text text-anchor="middle" x="323.948" y="-514.3" font-family="Times New Roman,serif" font-size="14.00" fill="lightgray">wph</text>
</g>
<!-- n14032&#45;&gt;n14033 -->
<g id="edge64" class="edge"><title>n14032&#45;&gt;n14033</title>
</g>
<!-- n14031&#45;&gt;n14032 -->
<g id="edge52" class="edge"><title>n14031&#45;&gt;n14032</title>
<path fill="none" stroke="lightgray" d="M177.377,-509.123C202.501,-519.69 244.179,-538.199 278,-558 284.332,-561.707 290.898,-566.06 296.992,-570.341"/>
<polygon fill="lightgray" stroke="lightgray" points="295.342,-573.467 305.5,-576.478 299.437,-567.789 295.342,-573.467"/>
<text text-anchor="middle" x="238.5" y="-561.8" font-family="Times New Roman,serif" font-size="14.00" fill="lightgray">wff ch</text>
</g>
<!-- n14033&#45;&gt;n14038 -->
<g id="edge55" class="edge"><title>n14033&#45;&gt;n14038</title>
<path fill="none" stroke="lightgray" d="M350.767,-520.829C403.404,-526.966 526.618,-543.233 626.895,-571 631.688,-572.327 636.663,-573.941 641.529,-575.66"/>
<polygon fill="lightgray" stroke="lightgray" points="640.679,-579.078 651.272,-579.281 643.118,-572.517 640.679,-579.078"/>
<text text-anchor="middle" x="498.395" y="-574.8" font-family="Times New Roman,serif" font-size="14.00" fill="lightgray">wff ph</text>
</g>
<!-- n14037 -->
<g id="node43" class="node"><title>n14037</title>
<ellipse fill="cyan" stroke="black" cx="323.948" cy="-446" rx="27.8951" ry="18"/>
<text text-anchor="middle" x="323.948" y="-442.3" font-family="Times New Roman,serif" font-size="14.00">an12</text>
</g>
<!-- n14033&#45;&gt;n14037 -->
<g id="edge65" class="edge"><title>n14033&#45;&gt;n14037</title>
</g>
<!-- n14034 -->
<g id="node42" class="node"><title>n14034</title>
<ellipse fill="none" stroke="lightgray" cx="154" cy="-446" rx="27" ry="18"/>
<text text-anchor="middle" x="154" y="-442.3" font-family="Times New Roman,serif" font-size="14.00" fill="lightgray">wps</text>
</g>
<!-- n14034&#45;&gt;n14037 -->
<g id="edge56" class="edge"><title>n14034&#45;&gt;n14037</title>
<path fill="none" stroke="lightgray" d="M181.242,-446C209.257,-446 253.889,-446 285.572,-446"/>
<polygon fill="lightgray" stroke="lightgray" points="285.777,-449.5 295.777,-446 285.777,-442.5 285.777,-449.5"/>
<text text-anchor="middle" x="238.5" y="-449.8" font-family="Times New Roman,serif" font-size="14.00" fill="lightgray">wff ps</text>
</g>
<!-- n14035 -->
<g id="node44" class="node"><title>n14035</title>
<ellipse fill="none" stroke="lightgray" cx="154" cy="-374" rx="27" ry="18"/>
<text text-anchor="middle" x="154" y="-370.3" font-family="Times New Roman,serif" font-size="14.00" fill="lightgray">wch</text>
</g>
<!-- n14034&#45;&gt;n14035 -->
<g id="edge60" class="edge"><title>n14034&#45;&gt;n14035</title>
</g>
<!-- n14037&#45;&gt;n14038 -->
<g id="edge59" class="edge"><title>n14037&#45;&gt;n14038</title>
<path fill="none" stroke="black" d="M352.006,-444.239C408.564,-441.951 541.148,-444.014 626.895,-505 646.685,-519.075 659.762,-543.743 667.478,-562.891"/>
<polygon fill="black" stroke="black" points="664.228,-564.194 671.031,-572.316 670.778,-561.724 664.228,-564.194"/>
<text text-anchor="middle" x="498.395" y="-508.8" font-family="Times New Roman,serif" font-size="14.00">|&#45; ( ( ps /\ ( ch /\ th ) ) &lt;&#45;&gt; ( ch /\ ( ps /\ th ) ) )</text>
</g>
<!-- n14035&#45;&gt;n14037 -->
<g id="edge57" class="edge"><title>n14035&#45;&gt;n14037</title>
<path fill="none" stroke="lightgray" d="M177.302,-383.561C206.457,-396.06 257.717,-418.035 290.994,-432.301"/>
<polygon fill="lightgray" stroke="lightgray" points="289.714,-435.561 300.284,-436.284 292.473,-429.127 289.714,-435.561"/>
<text text-anchor="middle" x="238.5" y="-430.8" font-family="Times New Roman,serif" font-size="14.00" fill="lightgray">wff ch</text>
</g>
<!-- n14036 -->
<g id="node45" class="node"><title>n14036</title>
<ellipse fill="none" stroke="lightgray" cx="154" cy="-302" rx="27" ry="18"/>
<text text-anchor="middle" x="154" y="-298.3" font-family="Times New Roman,serif" font-size="14.00" fill="lightgray">wth</text>
</g>
<!-- n14035&#45;&gt;n14036 -->
<g id="edge61" class="edge"><title>n14035&#45;&gt;n14036</title>
</g>
<!-- n14036&#45;&gt;n14037 -->
<g id="edge58" class="edge"><title>n14036&#45;&gt;n14037</title>
<path fill="none" stroke="lightgray" d="M177.982,-310.358C205.234,-321.332 250.428,-343.034 278,-375 291.8,-390.999 284.309,-401.401 296,-419 297.127,-420.696 298.372,-422.375 299.69,-424.015"/>
<polygon fill="lightgray" stroke="lightgray" points="297.402,-426.705 306.688,-431.805 302.609,-422.027 297.402,-426.705"/>
<text text-anchor="middle" x="238.5" y="-379.8" font-family="Times New Roman,serif" font-size="14.00" fill="lightgray">wff th</text>
</g>
<!-- n14039 -->
<g id="node46" class="node"><title>n14039</title>
<ellipse fill="none" stroke="lightgray" cx="323.948" cy="-392" rx="27" ry="18"/>
<text text-anchor="middle" x="323.948" y="-388.3" font-family="Times New Roman,serif" font-size="14.00" fill="lightgray">wph</text>
</g>
<!-- n14039&#45;&gt;n14044 -->
<g id="edge66" class="edge"><title>n14039&#45;&gt;n14044</title>
<path fill="none" stroke="lightgray" d="M350.79,-389.941C411.679,-385.09 564.464,-372.917 636.992,-367.139"/>
<polygon fill="lightgray" stroke="lightgray" points="637.4,-370.618 647.09,-366.335 636.844,-363.64 637.4,-370.618"/>
<text text-anchor="middle" x="498.395" y="-391.8" font-family="Times New Roman,serif" font-size="14.00" fill="lightgray">wff ph</text>
</g>
<!-- n14040 -->
<g id="node48" class="node"><title>n14040</title>
<ellipse fill="none" stroke="lightgray" cx="323.948" cy="-320" rx="27" ry="18"/>
<text text-anchor="middle" x="323.948" y="-316.3" font-family="Times New Roman,serif" font-size="14.00" fill="lightgray">wps</text>
</g>
<!-- n14039&#45;&gt;n14040 -->
<g id="edge73" class="edge"><title>n14039&#45;&gt;n14040</title>
</g>
<!-- n14044&#45;&gt;n14051 -->
<g id="edge72" class="edge"><title>n14044&#45;&gt;n14051</title>
<path fill="none" stroke="black" d="M705.19,-371.771C777.9,-394.328 979.925,-467.073 1076.89,-604 1101.63,-638.939 1118.3,-764.993 1124.73,-821.843"/>
<polygon fill="black" stroke="black" points="1121.26,-822.375 1125.84,-831.93 1128.22,-821.606 1121.26,-822.375"/>
<text text-anchor="middle" x="902.389" y="-607.8" font-family="Times New Roman,serif" font-size="14.00">|&#45; ( ( ( ph /\ ps ) /\ ( ch /\ th ) ) &lt;&#45;&gt; ( ph /\ ( ps /\ ( ch /\ th ) ) ) )</text>
</g>
<!-- n14050 -->
<g id="node53" class="node"><title>n14050</title>
<ellipse fill="cyan" stroke="black" cx="677.392" cy="-194" rx="30.5947" ry="18"/>
<text text-anchor="middle" x="677.392" y="-190.3" font-family="Times New Roman,serif" font-size="14.00">anass</text>
</g>
<!-- n14044&#45;&gt;n14050 -->
<g id="edge90" class="edge"><title>n14044&#45;&gt;n14050</title>
</g>
<!-- n14040&#45;&gt;n14044 -->
<g id="edge67" class="edge"><title>n14040&#45;&gt;n14044</title>
<path fill="none" stroke="lightgray" d="M351.018,-321.039C403.602,-323.476 525.967,-330.868 626.895,-350 631.308,-350.837 635.898,-351.885 640.424,-353.029"/>
<polygon fill="lightgray" stroke="lightgray" points="639.574,-356.425 650.14,-355.644 641.393,-349.665 639.574,-356.425"/>
<text text-anchor="middle" x="498.395" y="-353.8" font-family="Times New Roman,serif" font-size="14.00" fill="lightgray">wff ps</text>
</g>
<!-- n14043 -->
<g id="node50" class="node"><title>n14043</title>
<ellipse fill="none" stroke="lightgray" cx="323.948" cy="-248" rx="27" ry="18"/>
<text text-anchor="middle" x="323.948" y="-244.3" font-family="Times New Roman,serif" font-size="14.00" fill="lightgray">wa</text>
</g>
<!-- n14040&#45;&gt;n14043 -->
<g id="edge74" class="edge"><title>n14040&#45;&gt;n14043</title>
</g>
<!-- n14041 -->
<g id="node49" class="node"><title>n14041</title>
<ellipse fill="none" stroke="lightgray" cx="154" cy="-248" rx="27" ry="18"/>
<text text-anchor="middle" x="154" y="-244.3" font-family="Times New Roman,serif" font-size="14.00" fill="lightgray">wth</text>
</g>
<!-- n14041&#45;&gt;n14043 -->
<g id="edge68" class="edge"><title>n14041&#45;&gt;n14043</title>
<path fill="none" stroke="lightgray" d="M181.242,-248C209.589,-248 254.948,-248 286.691,-248"/>
<polygon fill="lightgray" stroke="lightgray" points="286.89,-251.5 296.89,-248 286.89,-244.5 286.89,-251.5"/>
<text text-anchor="middle" x="238.5" y="-251.8" font-family="Times New Roman,serif" font-size="14.00" fill="lightgray">wff th</text>
</g>
<!-- n14042 -->
<g id="node51" class="node"><title>n14042</title>
<ellipse fill="none" stroke="lightgray" cx="154" cy="-176" rx="27" ry="18"/>
<text text-anchor="middle" x="154" y="-172.3" font-family="Times New Roman,serif" font-size="14.00" fill="lightgray">wch</text>
</g>
<!-- n14041&#45;&gt;n14042 -->
<g id="edge71" class="edge"><title>n14041&#45;&gt;n14042</title>
</g>
<!-- n14043&#45;&gt;n14044 -->
<g id="edge70" class="edge"><title>n14043&#45;&gt;n14044</title>
<path fill="none" stroke="lightgray" d="M351.248,-247.06C406.371,-246.272 536.39,-250.704 626.895,-304 640.94,-312.271 652.744,-326.081 661.299,-338.368"/>
<polygon fill="lightgray" stroke="lightgray" points="658.52,-340.512 666.939,-346.945 664.369,-336.666 658.52,-340.512"/>
<text text-anchor="middle" x="498.395" y="-307.8" font-family="Times New Roman,serif" font-size="14.00" fill="lightgray">wff ( ch /\ th )</text>
</g>
<!-- n14042&#45;&gt;n14043 -->
<g id="edge69" class="edge"><title>n14042&#45;&gt;n14043</title>
<path fill="none" stroke="lightgray" d="M177.302,-185.561C206.62,-198.13 258.289,-220.28 291.549,-234.539"/>
<polygon fill="lightgray" stroke="lightgray" points="290.251,-237.791 300.821,-238.514 293.009,-231.357 290.251,-237.791"/>
<text text-anchor="middle" x="238.5" y="-232.8" font-family="Times New Roman,serif" font-size="14.00" fill="lightgray">wff ch</text>
</g>
<!-- n14045 -->
<g id="node52" class="node"><title>n14045</title>
<ellipse fill="none" stroke="lightgray" cx="323.948" cy="-194" rx="27" ry="18"/>
<text text-anchor="middle" x="323.948" y="-190.3" font-family="Times New Roman,serif" font-size="14.00" fill="lightgray">wph</text>
</g>
<!-- n14045&#45;&gt;n14050 -->
<g id="edge75" class="edge"><title>n14045&#45;&gt;n14050</title>
<path fill="none" stroke="lightgray" d="M351.076,-194C412.028,-194 563.94,-194 636.537,-194"/>
<polygon fill="lightgray" stroke="lightgray" points="636.652,-197.5 646.652,-194 636.652,-190.5 636.652,-197.5"/>
<text text-anchor="middle" x="498.395" y="-197.8" font-family="Times New Roman,serif" font-size="14.00" fill="lightgray">wff ph</text>
</g>
<!-- n14046 -->
<g id="node54" class="node"><title>n14046</title>
<ellipse fill="none" stroke="lightgray" cx="323.948" cy="-122" rx="27" ry="18"/>
<text text-anchor="middle" x="323.948" y="-118.3" font-family="Times New Roman,serif" font-size="14.00" fill="lightgray">wch</text>
</g>
<!-- n14045&#45;&gt;n14046 -->
<g id="edge82" class="edge"><title>n14045&#45;&gt;n14046</title>
</g>
<!-- n14050&#45;&gt;n14051 -->
<g id="edge81" class="edge"><title>n14050&#45;&gt;n14051</title>
<path fill="none" stroke="black" d="M707.799,-196.609C783.386,-205.032 984.949,-238.689 1076.89,-363 1104.3,-400.055 1121.72,-723.829 1126.41,-821.941"/>
<polygon fill="black" stroke="black" points="1122.92,-822.173 1126.88,-831.997 1129.91,-821.844 1122.92,-822.173"/>
<text text-anchor="middle" x="902.389" y="-366.8" font-family="Times New Roman,serif" font-size="14.00">|&#45; ( ( ( ph /\ ch ) /\ ( ps /\ th ) ) &lt;&#45;&gt; ( ph /\ ( ch /\ ( ps /\ th ) ) ) )</text>
</g>
<!-- n14046&#45;&gt;n14050 -->
<g id="edge76" class="edge"><title>n14046&#45;&gt;n14050</title>
<path fill="none" stroke="lightgray" d="M350.767,-124.829C403.404,-130.966 526.618,-147.233 626.895,-175 632.03,-176.422 637.374,-178.172 642.57,-180.03"/>
<polygon fill="lightgray" stroke="lightgray" points="641.692,-183.439 652.284,-183.676 644.152,-176.886 641.692,-183.439"/>
<text text-anchor="middle" x="498.395" y="-178.8" font-family="Times New Roman,serif" font-size="14.00" fill="lightgray">wff ch</text>
</g>
<!-- n14049 -->
<g id="node56" class="node"><title>n14049</title>
<ellipse fill="none" stroke="lightgray" cx="323.948" cy="-50" rx="27" ry="18"/>
<text text-anchor="middle" x="323.948" y="-46.3" font-family="Times New Roman,serif" font-size="14.00" fill="lightgray">wa</text>
</g>
<!-- n14046&#45;&gt;n14049 -->
<g id="edge83" class="edge"><title>n14046&#45;&gt;n14049</title>
</g>
<!-- n14047 -->
<g id="node55" class="node"><title>n14047</title>
<ellipse fill="none" stroke="lightgray" cx="154" cy="-90" rx="27" ry="18"/>
<text text-anchor="middle" x="154" y="-86.3" font-family="Times New Roman,serif" font-size="14.00" fill="lightgray">wth</text>
</g>
<!-- n14047&#45;&gt;n14049 -->
<g id="edge77" class="edge"><title>n14047&#45;&gt;n14049</title>
<path fill="none" stroke="lightgray" d="M179.781,-84.0979C208.516,-77.2541 256.065,-65.9294 288.413,-58.2251"/>
<polygon fill="lightgray" stroke="lightgray" points="289.421,-61.5829 298.338,-55.8612 287.799,-54.7734 289.421,-61.5829"/>
<text text-anchor="middle" x="238.5" y="-83.8" font-family="Times New Roman,serif" font-size="14.00" fill="lightgray">wff th</text>
</g>
<!-- n14048 -->
<g id="node57" class="node"><title>n14048</title>
<ellipse fill="none" stroke="lightgray" cx="154" cy="-18" rx="27" ry="18"/>
<text text-anchor="middle" x="154" y="-14.3" font-family="Times New Roman,serif" font-size="14.00" fill="lightgray">wps</text>
</g>
<!-- n14047&#45;&gt;n14048 -->
<g id="edge80" class="edge"><title>n14047&#45;&gt;n14048</title>
</g>
<!-- n14049&#45;&gt;n14050 -->
<g id="edge79" class="edge"><title>n14049&#45;&gt;n14050</title>
<path fill="none" stroke="lightgray" d="M351.15,-48.2742C407.217,-45.9313 540.712,-47.7043 626.895,-109 646.685,-123.075 659.762,-147.743 667.478,-166.891"/>
<polygon fill="lightgray" stroke="lightgray" points="664.228,-168.194 671.031,-176.316 670.778,-165.724 664.228,-168.194"/>
<text text-anchor="middle" x="498.395" y="-112.8" font-family="Times New Roman,serif" font-size="14.00" fill="lightgray">wff ( ps /\ th )</text>
</g>
<!-- n14048&#45;&gt;n14049 -->
<g id="edge78" class="edge"><title>n14048&#45;&gt;n14049</title>
<path fill="none" stroke="lightgray" d="M181.134,-20.6224C206.184,-23.4181 244.961,-28.4857 278,-36 281.835,-36.8723 285.817,-37.9114 289.755,-39.0237"/>
<polygon fill="lightgray" stroke="lightgray" points="288.76,-42.3793 299.343,-41.8864 290.762,-35.6718 288.76,-42.3793"/>
<text text-anchor="middle" x="238.5" y="-39.8" font-family="Times New Roman,serif" font-size="14.00" fill="lightgray">wff ps</text>
</g>
</g>
</svg>
