<?xml version="1.0" encoding="UTF-8" standalone="no"?>
<!DOCTYPE svg PUBLIC "-//W3C//DTD SVG 1.1//EN"
 "http://www.w3.org/Graphics/SVG/1.1/DTD/svg11.dtd">
<!-- Generated by graphviz version 2.38.0 (20140413.2041)
 -->
<!-- Title: proof_an42s Pages: 1 -->
<svg width="987pt" height="534pt"
 viewBox="0.00 0.00 987.47 534.00" xmlns="http://www.w3.org/2000/svg" xmlns:xlink="http://www.w3.org/1999/xlink">
<g id="graph0" class="graph" transform="scale(1 1) rotate(0) translate(4 530)">
<title>proof_an42s</title>
<polygon fill="white" stroke="none" points="-4,4 -4,-530 983.474,-530 983.474,4 -4,4"/>
<!-- n14114 -->
<g id="node1" class="node"><title>n14114</title>
<ellipse fill="none" stroke="lightgray" cx="46.1459" cy="-508" rx="27" ry="18"/>
<text text-anchor="middle" x="46.1459" y="-504.3" font-family="Times New Roman,serif" font-size="14.00" fill="lightgray">wph</text>
</g>
<!-- n14116 -->
<g id="node2" class="node"><title>n14116</title>
<ellipse fill="none" stroke="lightgray" cx="348.589" cy="-478" rx="27" ry="18"/>
<text text-anchor="middle" x="348.589" y="-474.3" font-family="Times New Roman,serif" font-size="14.00" fill="lightgray">wa</text>
</g>
<!-- n14114&#45;&gt;n14116 -->
<g id="edge1" class="edge"><title>n14114&#45;&gt;n14116</title>
<path fill="none" stroke="lightgray" d="M73.0216,-505.416C126.708,-500.056 250.302,-487.714 311.669,-481.587"/>
<polygon fill="lightgray" stroke="lightgray" points="312.067,-485.065 321.669,-480.588 311.371,-478.099 312.067,-485.065"/>
<text text-anchor="middle" x="206.792" y="-504.8" font-family="Times New Roman,serif" font-size="14.00" fill="lightgray">wff ph</text>
</g>
<!-- n14115 -->
<g id="node3" class="node"><title>n14115</title>
<ellipse fill="none" stroke="lightgray" cx="46.1459" cy="-436" rx="27" ry="18"/>
<text text-anchor="middle" x="46.1459" y="-432.3" font-family="Times New Roman,serif" font-size="14.00" fill="lightgray">wch</text>
</g>
<!-- n14114&#45;&gt;n14115 -->
<g id="edge4" class="edge"><title>n14114&#45;&gt;n14115</title>
</g>
<!-- n14127 -->
<g id="node4" class="node"><title>n14127</title>
<ellipse fill="cyan" stroke="black" cx="648.433" cy="-334" rx="43.5923" ry="18"/>
<text text-anchor="middle" x="648.433" y="-330.3" font-family="Times New Roman,serif" font-size="14.00">ancom2s</text>
</g>
<!-- n14116&#45;&gt;n14127 -->
<g id="edge3" class="edge"><title>n14116&#45;&gt;n14127</title>
<path fill="none" stroke="lightgray" d="M375.782,-476.781C422.148,-473.476 520.071,-461.239 586.887,-416 607.351,-402.144 623.507,-379.002 633.964,-360.83"/>
<polygon fill="lightgray" stroke="lightgray" points="637.148,-362.303 638.906,-351.855 631.016,-358.926 637.148,-362.303"/>
<text text-anchor="middle" x="490.387" y="-477.8" font-family="Times New Roman,serif" font-size="14.00" fill="lightgray">wff ( ph / ch )</text>
</g>
<!-- n14117 -->
<g id="node5" class="node"><title>n14117</title>
<ellipse fill="none" stroke="lightgray" cx="348.589" cy="-406" rx="27" ry="18"/>
<text text-anchor="middle" x="348.589" y="-402.3" font-family="Times New Roman,serif" font-size="14.00" fill="lightgray">wps</text>
</g>
<!-- n14116&#45;&gt;n14117 -->
<g id="edge21" class="edge"><title>n14116&#45;&gt;n14117</title>
</g>
<!-- n14115&#45;&gt;n14116 -->
<g id="edge2" class="edge"><title>n14115&#45;&gt;n14116</title>
<path fill="none" stroke="lightgray" d="M73.2262,-437.151C119.84,-439.584 220.338,-446.536 303.292,-464 306.982,-464.777 310.801,-465.737 314.58,-466.787"/>
<polygon fill="lightgray" stroke="lightgray" points="313.786,-470.203 324.37,-469.715 315.792,-463.496 313.786,-470.203"/>
<text text-anchor="middle" x="206.792" y="-467.8" font-family="Times New Roman,serif" font-size="14.00" fill="lightgray">wff ch</text>
</g>
<!-- QED -->
<g id="node15" class="node"><title>QED</title>
</g>
<!-- n14127&#45;&gt;QED -->
<g id="edge20" class="edge"><title>n14127&#45;&gt;QED</title>
<path fill="none" stroke="black" d="M692.068,-334C750.385,-334 854.189,-334 910.429,-334"/>
<polygon fill="black" stroke="black" points="910.685,-337.5 920.685,-334 910.685,-330.5 910.685,-337.5"/>
<text text-anchor="middle" x="806.479" y="-337.8" font-family="Times New Roman,serif" font-size="14.00">|&#45; ( ( ( ph / ch ) / ( th / ps ) ) &#45;&gt; ta )</text>
</g>
<!-- n14117&#45;&gt;n14127 -->
<g id="edge5" class="edge"><title>n14117&#45;&gt;n14127</title>
<path fill="none" stroke="lightgray" d="M374.698,-401.118C418.189,-392.5 510.234,-373.548 586.887,-353 592.545,-351.483 598.465,-349.777 604.293,-348.025"/>
<polygon fill="lightgray" stroke="lightgray" points="605.421,-351.34 613.954,-345.06 603.367,-344.648 605.421,-351.34"/>
<text text-anchor="middle" x="490.387" y="-400.8" font-family="Times New Roman,serif" font-size="14.00" fill="lightgray">wff ps</text>
</g>
<!-- n14118 -->
<g id="node6" class="node"><title>n14118</title>
<ellipse fill="none" stroke="lightgray" cx="348.589" cy="-334" rx="27" ry="18"/>
<text text-anchor="middle" x="348.589" y="-330.3" font-family="Times New Roman,serif" font-size="14.00" fill="lightgray">wth</text>
</g>
<!-- n14117&#45;&gt;n14118 -->
<g id="edge22" class="edge"><title>n14117&#45;&gt;n14118</title>
</g>
<!-- n14118&#45;&gt;n14127 -->
<g id="edge6" class="edge"><title>n14118&#45;&gt;n14127</title>
<path fill="none" stroke="lightgray" d="M375.76,-334C424.504,-334 530.064,-334 594.306,-334"/>
<polygon fill="lightgray" stroke="lightgray" points="594.633,-337.5 604.633,-334 594.633,-330.5 594.633,-337.5"/>
<text text-anchor="middle" x="490.387" y="-337.8" font-family="Times New Roman,serif" font-size="14.00" fill="lightgray">wff th</text>
</g>
<!-- n14119 -->
<g id="node7" class="node"><title>n14119</title>
<ellipse fill="none" stroke="lightgray" cx="348.589" cy="-262" rx="27" ry="18"/>
<text text-anchor="middle" x="348.589" y="-258.3" font-family="Times New Roman,serif" font-size="14.00" fill="lightgray">wta</text>
</g>
<!-- n14118&#45;&gt;n14119 -->
<g id="edge23" class="edge"><title>n14118&#45;&gt;n14119</title>
</g>
<!-- n14119&#45;&gt;n14127 -->
<g id="edge7" class="edge"><title>n14119&#45;&gt;n14127</title>
<path fill="none" stroke="lightgray" d="M374.698,-266.882C418.189,-275.5 510.234,-294.452 586.887,-315 592.545,-316.517 598.465,-318.223 604.293,-319.975"/>
<polygon fill="lightgray" stroke="lightgray" points="603.367,-323.352 613.954,-322.94 605.421,-316.66 603.367,-323.352"/>
<text text-anchor="middle" x="490.387" y="-318.8" font-family="Times New Roman,serif" font-size="14.00" fill="lightgray">wff ta</text>
</g>
<!-- n14126 -->
<g id="node9" class="node"><title>n14126</title>
<ellipse fill="cyan" stroke="black" cx="348.589" cy="-190" rx="27.0966" ry="18"/>
<text text-anchor="middle" x="348.589" y="-186.3" font-family="Times New Roman,serif" font-size="14.00">an4s</text>
</g>
<!-- n14119&#45;&gt;n14126 -->
<g id="edge24" class="edge"><title>n14119&#45;&gt;n14126</title>
</g>
<!-- n14120 -->
<g id="node8" class="node"><title>n14120</title>
<ellipse fill="none" stroke="lightgray" cx="46.1459" cy="-378" rx="27" ry="18"/>
<text text-anchor="middle" x="46.1459" y="-374.3" font-family="Times New Roman,serif" font-size="14.00" fill="lightgray">wph</text>
</g>
<!-- n14120&#45;&gt;n14126 -->
<g id="edge8" class="edge"><title>n14120&#45;&gt;n14126</title>
<path fill="none" stroke="lightgray" d="M73.2133,-380.601C124.925,-384.197 240.873,-384.213 303.292,-321 330.73,-293.213 307.258,-271.442 321.292,-235 323.87,-228.305 327.373,-221.441 330.982,-215.155"/>
<polygon fill="lightgray" stroke="lightgray" points="334.069,-216.813 336.248,-206.445 328.079,-213.191 334.069,-216.813"/>
<text text-anchor="middle" x="206.792" y="-385.8" font-family="Times New Roman,serif" font-size="14.00" fill="lightgray">wff ph</text>
</g>
<!-- n14121 -->
<g id="node10" class="node"><title>n14121</title>
<ellipse fill="none" stroke="lightgray" cx="46.1459" cy="-306" rx="27" ry="18"/>
<text text-anchor="middle" x="46.1459" y="-302.3" font-family="Times New Roman,serif" font-size="14.00" fill="lightgray">wps</text>
</g>
<!-- n14120&#45;&gt;n14121 -->
<g id="edge15" class="edge"><title>n14120&#45;&gt;n14121</title>
</g>
<!-- n14126&#45;&gt;n14127 -->
<g id="edge14" class="edge"><title>n14126&#45;&gt;n14127</title>
<path fill="none" stroke="black" d="M376.127,-191.419C422.605,-195.053 520.135,-207.898 586.887,-253 607.204,-266.727 623.372,-289.583 633.872,-307.523"/>
<polygon fill="black" stroke="black" points="630.895,-309.37 638.839,-316.381 637.001,-305.947 630.895,-309.37"/>
<text text-anchor="middle" x="490.387" y="-256.8" font-family="Times New Roman,serif" font-size="14.00">|&#45; ( ( ( ph / ch ) / ( ps / th ) ) &#45;&gt; ta )</text>
</g>
<!-- n14121&#45;&gt;n14126 -->
<g id="edge9" class="edge"><title>n14121&#45;&gt;n14126</title>
<path fill="none" stroke="lightgray" d="M73.2188,-305.071C122.01,-302.23 228.892,-290.711 303.292,-244 314.845,-236.746 324.799,-225.44 332.328,-215.043"/>
<polygon fill="lightgray" stroke="lightgray" points="335.321,-216.866 338.064,-206.633 329.538,-212.922 335.321,-216.866"/>
<text text-anchor="middle" x="206.792" y="-305.8" font-family="Times New Roman,serif" font-size="14.00" fill="lightgray">wff ps</text>
</g>
<!-- n14122 -->
<g id="node11" class="node"><title>n14122</title>
<ellipse fill="none" stroke="lightgray" cx="46.1459" cy="-234" rx="27" ry="18"/>
<text text-anchor="middle" x="46.1459" y="-230.3" font-family="Times New Roman,serif" font-size="14.00" fill="lightgray">wch</text>
</g>
<!-- n14121&#45;&gt;n14122 -->
<g id="edge16" class="edge"><title>n14121&#45;&gt;n14122</title>
</g>
<!-- n14122&#45;&gt;n14126 -->
<g id="edge10" class="edge"><title>n14122&#45;&gt;n14126</title>
<path fill="none" stroke="lightgray" d="M72.6117,-230.436C118.672,-223.963 218.882,-209.765 303.292,-197 306.107,-196.574 309.021,-196.127 311.949,-195.674"/>
<polygon fill="lightgray" stroke="lightgray" points="312.493,-199.132 321.832,-194.129 311.412,-192.216 312.493,-199.132"/>
<text text-anchor="middle" x="206.792" y="-228.8" font-family="Times New Roman,serif" font-size="14.00" fill="lightgray">wff ch</text>
</g>
<!-- n14123 -->
<g id="node12" class="node"><title>n14123</title>
<ellipse fill="none" stroke="lightgray" cx="46.1459" cy="-162" rx="27" ry="18"/>
<text text-anchor="middle" x="46.1459" y="-158.3" font-family="Times New Roman,serif" font-size="14.00" fill="lightgray">wth</text>
</g>
<!-- n14122&#45;&gt;n14123 -->
<g id="edge17" class="edge"><title>n14122&#45;&gt;n14123</title>
</g>
<!-- n14123&#45;&gt;n14126 -->
<g id="edge11" class="edge"><title>n14123&#45;&gt;n14126</title>
<path fill="none" stroke="lightgray" d="M73.4164,-163.176C119.912,-165.453 219.681,-171.214 303.292,-182 306.198,-182.375 309.204,-182.812 312.217,-183.284"/>
<polygon fill="lightgray" stroke="lightgray" points="311.916,-186.783 322.358,-184.99 313.077,-179.88 311.916,-186.783"/>
<text text-anchor="middle" x="206.792" y="-185.8" font-family="Times New Roman,serif" font-size="14.00" fill="lightgray">wff th</text>
</g>
<!-- n14124 -->
<g id="node13" class="node"><title>n14124</title>
<ellipse fill="none" stroke="lightgray" cx="46.1459" cy="-90" rx="27" ry="18"/>
<text text-anchor="middle" x="46.1459" y="-86.3" font-family="Times New Roman,serif" font-size="14.00" fill="lightgray">wta</text>
</g>
<!-- n14123&#45;&gt;n14124 -->
<g id="edge18" class="edge"><title>n14123&#45;&gt;n14124</title>
</g>
<!-- n14124&#45;&gt;n14126 -->
<g id="edge12" class="edge"><title>n14124&#45;&gt;n14126</title>
<path fill="none" stroke="lightgray" d="M73.1107,-91.143C121.269,-94.2306 226.511,-105.576 303.292,-147 312.436,-151.933 321.006,-159.296 328.127,-166.541"/>
<polygon fill="lightgray" stroke="lightgray" points="325.883,-169.27 335.242,-174.236 331.023,-164.517 325.883,-169.27"/>
<text text-anchor="middle" x="206.792" y="-150.8" font-family="Times New Roman,serif" font-size="14.00" fill="lightgray">wff ta</text>
</g>
<!-- n14125 -->
<g id="node14" class="node"><title>n14125</title>
<ellipse fill="orange" stroke="black" cx="46.1459" cy="-18" rx="46.2923" ry="18"/>
<text text-anchor="middle" x="46.1459" y="-14.3" font-family="Times New Roman,serif" font-size="14.00">an41r3s.1</text>
</g>
<!-- n14124&#45;&gt;n14125 -->
<g id="edge19" class="edge"><title>n14124&#45;&gt;n14125</title>
</g>
<!-- n14125&#45;&gt;n14126 -->
<g id="edge13" class="edge"><title>n14125&#45;&gt;n14126</title>
<path fill="none" stroke="black" d="M92.1078,-16.0961C148.128,-16.1654 243.718,-24.6466 303.292,-76 328.594,-97.8108 339.527,-135.868 344.196,-161.966"/>
<polygon fill="black" stroke="black" points="340.765,-162.672 345.791,-171.999 347.678,-161.573 340.765,-162.672"/>
<text text-anchor="middle" x="206.792" y="-79.8" font-family="Times New Roman,serif" font-size="14.00">|&#45; ( ( ( ph / ps ) / ( ch / th ) ) &#45;&gt; ta )</text>
</g>
</g>
</svg>
