<?xml version="1.0" encoding="UTF-8" standalone="no"?>
<!DOCTYPE svg PUBLIC "-//W3C//DTD SVG 1.1//EN"
 "http://www.w3.org/Graphics/SVG/1.1/DTD/svg11.dtd">
<!-- Generated by graphviz version 2.38.0 (20140413.2041)
 -->
<!-- Title: proof_anabsi5 Pages: 1 -->
<svg width="970pt" height="367pt"
 viewBox="0.00 0.00 969.78 367.00" xmlns="http://www.w3.org/2000/svg" xmlns:xlink="http://www.w3.org/1999/xlink">
<g id="graph0" class="graph" transform="scale(1 1) rotate(0) translate(4 363)">
<title>proof_anabsi5</title>
<polygon fill="white" stroke="none" points="-4,4 -4,-363 965.78,-363 965.78,4 -4,4"/>
<!-- n13926 -->
<g id="node1" class="node"><title>n13926</title>
<ellipse fill="none" stroke="lightgray" cx="447.692" cy="-341" rx="27" ry="18"/>
<text text-anchor="middle" x="447.692" y="-337.3" font-family="Times New Roman,serif" font-size="14.00" fill="lightgray">wph</text>
</g>
<!-- n13936 -->
<g id="node2" class="node"><title>n13936</title>
<ellipse fill="cyan" stroke="black" cx="709.988" cy="-232" rx="40.0939" ry="18"/>
<text text-anchor="middle" x="709.988" y="-228.3" font-family="Times New Roman,serif" font-size="14.00">anabss5</text>
</g>
<!-- n13926&#45;&gt;n13936 -->
<g id="edge1" class="edge"><title>n13926&#45;&gt;n13936</title>
<path fill="none" stroke="lightgray" d="M474.014,-336.807C513.727,-329.498 592.258,-312.055 651.692,-280 663.768,-273.487 675.643,-264.165 685.423,-255.467"/>
<polygon fill="lightgray" stroke="lightgray" points="687.797,-258.039 692.781,-248.69 683.054,-252.89 687.797,-258.039"/>
<text text-anchor="middle" x="572.192" y="-335.8" font-family="Times New Roman,serif" font-size="14.00" fill="lightgray">wff ph</text>
</g>
<!-- n13927 -->
<g id="node3" class="node"><title>n13927</title>
<ellipse fill="none" stroke="lightgray" cx="447.692" cy="-269" rx="27" ry="18"/>
<text text-anchor="middle" x="447.692" y="-265.3" font-family="Times New Roman,serif" font-size="14.00" fill="lightgray">wps</text>
</g>
<!-- n13926&#45;&gt;n13927 -->
<g id="edge16" class="edge"><title>n13926&#45;&gt;n13927</title>
</g>
<!-- QED -->
<g id="node12" class="node"><title>QED</title>
</g>
<!-- n13936&#45;&gt;QED -->
<g id="edge15" class="edge"><title>n13936&#45;&gt;QED</title>
<path fill="none" stroke="black" d="M750.417,-232C790.68,-232 852.792,-232 892.8,-232"/>
<polygon fill="black" stroke="black" points="892.965,-235.5 902.965,-232 892.965,-228.5 892.965,-235.5"/>
<text text-anchor="middle" x="826.785" y="-235.8" font-family="Times New Roman,serif" font-size="14.00">|&#45; ( ( ph / ps ) &#45;&gt; ch )</text>
</g>
<!-- n13927&#45;&gt;n13936 -->
<g id="edge2" class="edge"><title>n13927&#45;&gt;n13936</title>
<path fill="none" stroke="lightgray" d="M474.602,-265.317C517.971,-259.152 605.907,-246.653 660.877,-238.839"/>
<polygon fill="lightgray" stroke="lightgray" points="661.666,-242.262 671.074,-237.389 660.681,-235.332 661.666,-242.262"/>
<text text-anchor="middle" x="572.192" y="-264.8" font-family="Times New Roman,serif" font-size="14.00" fill="lightgray">wff ps</text>
</g>
<!-- n13928 -->
<g id="node4" class="node"><title>n13928</title>
<ellipse fill="none" stroke="lightgray" cx="447.692" cy="-197" rx="27" ry="18"/>
<text text-anchor="middle" x="447.692" y="-193.3" font-family="Times New Roman,serif" font-size="14.00" fill="lightgray">wch</text>
</g>
<!-- n13927&#45;&gt;n13928 -->
<g id="edge17" class="edge"><title>n13927&#45;&gt;n13928</title>
</g>
<!-- n13928&#45;&gt;n13936 -->
<g id="edge3" class="edge"><title>n13928&#45;&gt;n13936</title>
<path fill="none" stroke="lightgray" d="M474.36,-200.05C512.909,-204.685 588.025,-213.924 651.692,-223 654.932,-223.462 658.272,-223.951 661.636,-224.454"/>
<polygon fill="lightgray" stroke="lightgray" points="661.306,-227.944 671.718,-225.988 662.359,-221.024 661.306,-227.944"/>
<text text-anchor="middle" x="572.192" y="-226.8" font-family="Times New Roman,serif" font-size="14.00" fill="lightgray">wff ch</text>
</g>
<!-- n13935 -->
<g id="node6" class="node"><title>n13935</title>
<ellipse fill="cyan" stroke="black" cx="447.692" cy="-125" rx="27" ry="18"/>
<text text-anchor="middle" x="447.692" y="-121.3" font-family="Times New Roman,serif" font-size="14.00">imp</text>
</g>
<!-- n13928&#45;&gt;n13935 -->
<g id="edge18" class="edge"><title>n13928&#45;&gt;n13935</title>
</g>
<!-- n13929 -->
<g id="node5" class="node"><title>n13929</title>
<ellipse fill="none" stroke="lightgray" cx="171.846" cy="-234" rx="27" ry="18"/>
<text text-anchor="middle" x="171.846" y="-230.3" font-family="Times New Roman,serif" font-size="14.00" fill="lightgray">wph</text>
</g>
<!-- n13929&#45;&gt;n13935 -->
<g id="edge4" class="edge"><title>n13929&#45;&gt;n13935</title>
<path fill="none" stroke="lightgray" d="M198.826,-231.88C243.456,-227.243 336.285,-213.18 402.692,-173 412.66,-166.969 421.734,-158.014 429.017,-149.467"/>
<polygon fill="lightgray" stroke="lightgray" points="431.881,-151.492 435.423,-141.507 426.427,-147.103 431.881,-151.492"/>
<text text-anchor="middle" x="318.692" y="-229.8" font-family="Times New Roman,serif" font-size="14.00" fill="lightgray">wff ph</text>
</g>
<!-- n13932 -->
<g id="node8" class="node"><title>n13932</title>
<ellipse fill="none" stroke="lightgray" cx="171.846" cy="-162" rx="27" ry="18"/>
<text text-anchor="middle" x="171.846" y="-158.3" font-family="Times New Roman,serif" font-size="14.00" fill="lightgray">wa</text>
</g>
<!-- n13929&#45;&gt;n13932 -->
<g id="edge12" class="edge"><title>n13929&#45;&gt;n13932</title>
</g>
<!-- n13935&#45;&gt;n13936 -->
<g id="edge11" class="edge"><title>n13935&#45;&gt;n13936</title>
<path fill="none" stroke="black" d="M474.343,-128.944C514.163,-135.821 592.434,-152.386 651.692,-184 663.798,-190.458 675.678,-199.77 685.453,-208.477"/>
<polygon fill="black" stroke="black" points="683.084,-211.053 692.806,-215.263 687.831,-205.909 683.084,-211.053"/>
<text text-anchor="middle" x="572.192" y="-187.8" font-family="Times New Roman,serif" font-size="14.00">|&#45; ( ( ph / ( ph / ps ) ) &#45;&gt; ch )</text>
</g>
<!-- n13930 -->
<g id="node7" class="node"><title>n13930</title>
<ellipse fill="none" stroke="lightgray" cx="27" cy="-207" rx="27" ry="18"/>
<text text-anchor="middle" x="27" y="-203.3" font-family="Times New Roman,serif" font-size="14.00" fill="lightgray">wph</text>
</g>
<!-- n13930&#45;&gt;n13932 -->
<g id="edge5" class="edge"><title>n13930&#45;&gt;n13932</title>
<path fill="none" stroke="lightgray" d="M51.9092,-199.468C75.1877,-192.135 110.79,-180.919 136.978,-172.669"/>
<polygon fill="lightgray" stroke="lightgray" points="138.373,-175.9 146.859,-169.557 136.269,-169.223 138.373,-175.9"/>
<text text-anchor="middle" x="90.5" y="-196.8" font-family="Times New Roman,serif" font-size="14.00" fill="lightgray">wff ph</text>
</g>
<!-- n13931 -->
<g id="node9" class="node"><title>n13931</title>
<ellipse fill="none" stroke="lightgray" cx="27" cy="-135" rx="27" ry="18"/>
<text text-anchor="middle" x="27" y="-131.3" font-family="Times New Roman,serif" font-size="14.00" fill="lightgray">wps</text>
</g>
<!-- n13930&#45;&gt;n13931 -->
<g id="edge8" class="edge"><title>n13930&#45;&gt;n13931</title>
</g>
<!-- n13932&#45;&gt;n13935 -->
<g id="edge7" class="edge"><title>n13932&#45;&gt;n13935</title>
<path fill="none" stroke="lightgray" d="M198.357,-158.572C240.772,-152.869 328.478,-141.065 402.692,-131 405.392,-130.634 408.185,-130.254 410.995,-129.872"/>
<polygon fill="lightgray" stroke="lightgray" points="411.663,-133.314 421.1,-128.496 410.719,-126.378 411.663,-133.314"/>
<text text-anchor="middle" x="318.692" y="-157.8" font-family="Times New Roman,serif" font-size="14.00" fill="lightgray">wff ( ph / ps )</text>
</g>
<!-- n13933 -->
<g id="node10" class="node"><title>n13933</title>
<ellipse fill="none" stroke="lightgray" cx="171.846" cy="-90" rx="27" ry="18"/>
<text text-anchor="middle" x="171.846" y="-86.3" font-family="Times New Roman,serif" font-size="14.00" fill="lightgray">wch</text>
</g>
<!-- n13932&#45;&gt;n13933 -->
<g id="edge13" class="edge"><title>n13932&#45;&gt;n13933</title>
</g>
<!-- n13931&#45;&gt;n13932 -->
<g id="edge6" class="edge"><title>n13931&#45;&gt;n13932</title>
<path fill="none" stroke="lightgray" d="M53.2092,-139.765C76.0173,-144.076 109.844,-150.47 135.377,-155.296"/>
<polygon fill="lightgray" stroke="lightgray" points="134.932,-158.774 145.408,-157.192 136.232,-151.895 134.932,-158.774"/>
<text text-anchor="middle" x="90.5" y="-154.8" font-family="Times New Roman,serif" font-size="14.00" fill="lightgray">wff ps</text>
</g>
<!-- n13933&#45;&gt;n13935 -->
<g id="edge9" class="edge"><title>n13933&#45;&gt;n13935</title>
<path fill="none" stroke="lightgray" d="M198.8,-92.1761C241.486,-95.9251 329.117,-104.338 402.692,-116 405.58,-116.458 408.566,-116.975 411.559,-117.523"/>
<polygon fill="lightgray" stroke="lightgray" points="411.15,-121.009 421.633,-119.472 412.48,-114.136 411.15,-121.009"/>
<text text-anchor="middle" x="318.692" y="-119.8" font-family="Times New Roman,serif" font-size="14.00" fill="lightgray">wff ch</text>
</g>
<!-- n13934 -->
<g id="node11" class="node"><title>n13934</title>
<ellipse fill="orange" stroke="black" cx="171.846" cy="-18" rx="44.6926" ry="18"/>
<text text-anchor="middle" x="171.846" y="-14.3" font-family="Times New Roman,serif" font-size="14.00">anabsi5.1</text>
</g>
<!-- n13933&#45;&gt;n13934 -->
<g id="edge14" class="edge"><title>n13933&#45;&gt;n13934</title>
</g>
<!-- n13934&#45;&gt;n13935 -->
<g id="edge10" class="edge"><title>n13934&#45;&gt;n13935</title>
<path fill="none" stroke="black" d="M215.91,-21.659C264.329,-27.3811 343.861,-41.73 402.692,-77 412.685,-82.9908 421.763,-91.9376 429.043,-100.489"/>
<polygon fill="black" stroke="black" points="426.453,-102.853 435.444,-108.458 431.911,-98.4698 426.453,-102.853"/>
<text text-anchor="middle" x="318.692" y="-80.8" font-family="Times New Roman,serif" font-size="14.00">|&#45; ( ph &#45;&gt; ( ( ph / ps ) &#45;&gt; ch ) )</text>
</g>
</g>
</svg>
