<?xml version="1.0" encoding="UTF-8" standalone="no"?>
<!DOCTYPE svg PUBLIC "-//W3C//DTD SVG 1.1//EN"
 "http://www.w3.org/Graphics/SVG/1.1/DTD/svg11.dtd">
<!-- Generated by graphviz version 2.38.0 (20140413.2041)
 -->
<!-- Title: proof_anandirs Pages: 1 -->
<svg width="960pt" height="534pt"
 viewBox="0.00 0.00 959.67 534.00" xmlns="http://www.w3.org/2000/svg" xmlns:xlink="http://www.w3.org/1999/xlink">
<g id="graph0" class="graph" transform="scale(1 1) rotate(0) translate(4 530)">
<title>proof_anandirs</title>
<polygon fill="white" stroke="none" points="-4,4 -4,-530 955.674,-530 955.674,4 -4,4"/>
<!-- n14211 -->
<g id="node1" class="node"><title>n14211</title>
<ellipse fill="none" stroke="lightgray" cx="48.0957" cy="-508" rx="27" ry="18"/>
<text text-anchor="middle" x="48.0957" y="-504.3" font-family="Times New Roman,serif" font-size="14.00" fill="lightgray">wph</text>
</g>
<!-- n14213 -->
<g id="node2" class="node"><title>n14213</title>
<ellipse fill="none" stroke="lightgray" cx="355.489" cy="-447" rx="27" ry="18"/>
<text text-anchor="middle" x="355.489" y="-443.3" font-family="Times New Roman,serif" font-size="14.00" fill="lightgray">wa</text>
</g>
<!-- n14211&#45;&gt;n14213 -->
<g id="edge1" class="edge"><title>n14211&#45;&gt;n14213</title>
<path fill="none" stroke="lightgray" d="M75.083,-505.656C122.506,-500.954 225.955,-488.73 310.191,-465 314.534,-463.777 319.028,-462.262 323.416,-460.634"/>
<polygon fill="lightgray" stroke="lightgray" points="324.724,-463.88 332.746,-456.96 322.159,-457.367 324.724,-463.88"/>
<text text-anchor="middle" x="212.191" y="-503.8" font-family="Times New Roman,serif" font-size="14.00" fill="lightgray">wff ph</text>
</g>
<!-- n14212 -->
<g id="node3" class="node"><title>n14212</title>
<ellipse fill="none" stroke="lightgray" cx="48.0957" cy="-436" rx="27" ry="18"/>
<text text-anchor="middle" x="48.0957" y="-432.3" font-family="Times New Roman,serif" font-size="14.00" fill="lightgray">wps</text>
</g>
<!-- n14211&#45;&gt;n14212 -->
<g id="edge4" class="edge"><title>n14211&#45;&gt;n14212</title>
</g>
<!-- n14223 -->
<g id="node4" class="node"><title>n14223</title>
<ellipse fill="cyan" stroke="black" cx="658.983" cy="-338" rx="44.393" ry="18"/>
<text text-anchor="middle" x="658.983" y="-334.3" font-family="Times New Roman,serif" font-size="14.00">anabsan2</text>
</g>
<!-- n14213&#45;&gt;n14223 -->
<g id="edge3" class="edge"><title>n14213&#45;&gt;n14223</title>
<path fill="none" stroke="lightgray" d="M382.324,-444.442C427.785,-439.136 524.142,-424.255 596.787,-388 610.286,-381.263 623.48,-371.087 634.14,-361.671"/>
<polygon fill="lightgray" stroke="lightgray" points="636.753,-364.024 641.761,-354.687 632.023,-358.863 636.753,-364.024"/>
<text text-anchor="middle" x="498.787" y="-445.8" font-family="Times New Roman,serif" font-size="14.00" fill="lightgray">wff ( ph / ps )</text>
</g>
<!-- n14214 -->
<g id="node5" class="node"><title>n14214</title>
<ellipse fill="none" stroke="lightgray" cx="355.489" cy="-375" rx="27" ry="18"/>
<text text-anchor="middle" x="355.489" y="-371.3" font-family="Times New Roman,serif" font-size="14.00" fill="lightgray">wch</text>
</g>
<!-- n14213&#45;&gt;n14214 -->
<g id="edge20" class="edge"><title>n14213&#45;&gt;n14214</title>
</g>
<!-- n14212&#45;&gt;n14213 -->
<g id="edge2" class="edge"><title>n14212&#45;&gt;n14213</title>
<path fill="none" stroke="lightgray" d="M75.1334,-436.938C129.675,-438.902 256.022,-443.453 318.366,-445.699"/>
<polygon fill="lightgray" stroke="lightgray" points="318.398,-449.202 328.517,-446.065 318.65,-442.207 318.398,-449.202"/>
<text text-anchor="middle" x="212.191" y="-449.8" font-family="Times New Roman,serif" font-size="14.00" fill="lightgray">wff ps</text>
</g>
<!-- QED -->
<g id="node14" class="node"><title>QED</title>
</g>
<!-- n14223&#45;&gt;QED -->
<g id="edge19" class="edge"><title>n14223&#45;&gt;QED</title>
<path fill="none" stroke="black" d="M703.448,-338C753.395,-338 834.619,-338 882.548,-338"/>
<polygon fill="black" stroke="black" points="882.824,-341.5 892.824,-338 882.823,-334.5 882.824,-341.5"/>
<text text-anchor="middle" x="798.179" y="-341.8" font-family="Times New Roman,serif" font-size="14.00">|&#45; ( ( ( ph / ps ) / ch ) &#45;&gt; ta )</text>
</g>
<!-- n14214&#45;&gt;n14223 -->
<g id="edge5" class="edge"><title>n14214&#45;&gt;n14223</title>
<path fill="none" stroke="lightgray" d="M382.194,-371.845C431.734,-365.766 541.278,-352.322 606.413,-344.329"/>
<polygon fill="lightgray" stroke="lightgray" points="606.97,-347.787 616.469,-343.095 606.117,-340.839 606.97,-347.787"/>
<text text-anchor="middle" x="498.787" y="-372.8" font-family="Times New Roman,serif" font-size="14.00" fill="lightgray">wff ch</text>
</g>
<!-- n14215 -->
<g id="node6" class="node"><title>n14215</title>
<ellipse fill="none" stroke="lightgray" cx="355.489" cy="-303" rx="27" ry="18"/>
<text text-anchor="middle" x="355.489" y="-299.3" font-family="Times New Roman,serif" font-size="14.00" fill="lightgray">wta</text>
</g>
<!-- n14214&#45;&gt;n14215 -->
<g id="edge21" class="edge"><title>n14214&#45;&gt;n14215</title>
</g>
<!-- n14215&#45;&gt;n14223 -->
<g id="edge6" class="edge"><title>n14215&#45;&gt;n14223</title>
<path fill="none" stroke="lightgray" d="M382.485,-305.484C426.608,-309.773 518.949,-319.069 596.787,-329 600.192,-329.434 603.701,-329.901 607.235,-330.384"/>
<polygon fill="lightgray" stroke="lightgray" points="606.806,-333.858 617.195,-331.78 607.777,-326.926 606.806,-333.858"/>
<text text-anchor="middle" x="498.787" y="-332.8" font-family="Times New Roman,serif" font-size="14.00" fill="lightgray">wff ta</text>
</g>
<!-- n14222 -->
<g id="node8" class="node"><title>n14222</title>
<ellipse fill="cyan" stroke="black" cx="355.489" cy="-231" rx="27.0966" ry="18"/>
<text text-anchor="middle" x="355.489" y="-227.3" font-family="Times New Roman,serif" font-size="14.00">an4s</text>
</g>
<!-- n14215&#45;&gt;n14222 -->
<g id="edge22" class="edge"><title>n14215&#45;&gt;n14222</title>
</g>
<!-- n14216 -->
<g id="node7" class="node"><title>n14216</title>
<ellipse fill="none" stroke="lightgray" cx="48.0957" cy="-378" rx="27" ry="18"/>
<text text-anchor="middle" x="48.0957" y="-374.3" font-family="Times New Roman,serif" font-size="14.00" fill="lightgray">wph</text>
</g>
<!-- n14216&#45;&gt;n14222 -->
<g id="edge7" class="edge"><title>n14216&#45;&gt;n14222</title>
<path fill="none" stroke="lightgray" d="M75.3992,-379.155C126.606,-379.986 240.734,-374.714 310.191,-317 325.498,-304.282 319.156,-293.732 328.191,-276 331.504,-269.5 335.338,-262.63 339.037,-256.269"/>
<polygon fill="lightgray" stroke="lightgray" points="342.197,-257.803 344.283,-247.415 336.175,-254.234 342.197,-257.803"/>
<text text-anchor="middle" x="212.191" y="-382.8" font-family="Times New Roman,serif" font-size="14.00" fill="lightgray">wff ph</text>
</g>
<!-- n14217 -->
<g id="node9" class="node"><title>n14217</title>
<ellipse fill="none" stroke="lightgray" cx="48.0957" cy="-306" rx="27" ry="18"/>
<text text-anchor="middle" x="48.0957" y="-302.3" font-family="Times New Roman,serif" font-size="14.00" fill="lightgray">wch</text>
</g>
<!-- n14216&#45;&gt;n14217 -->
<g id="edge14" class="edge"><title>n14216&#45;&gt;n14217</title>
</g>
<!-- n14222&#45;&gt;n14223 -->
<g id="edge13" class="edge"><title>n14222&#45;&gt;n14223</title>
<path fill="none" stroke="black" d="M382.649,-233.54C428.201,-238.767 524.155,-253.376 596.787,-289 610.127,-295.543 623.219,-305.417 633.847,-314.591"/>
<polygon fill="black" stroke="black" points="631.673,-317.342 641.459,-321.403 636.341,-312.125 631.673,-317.342"/>
<text text-anchor="middle" x="498.787" y="-292.8" font-family="Times New Roman,serif" font-size="14.00">|&#45; ( ( ( ph / ps ) / ( ch / ch ) ) &#45;&gt; ta )</text>
</g>
<!-- n14217&#45;&gt;n14222 -->
<g id="edge8" class="edge"><title>n14217&#45;&gt;n14222</title>
<path fill="none" stroke="lightgray" d="M74.8844,-303.031C122.418,-297.066 226.632,-281.679 310.191,-253 315.141,-251.301 320.244,-249.165 325.147,-246.895"/>
<polygon fill="lightgray" stroke="lightgray" points="326.793,-249.986 334.236,-242.447 323.716,-243.699 326.793,-249.986"/>
<text text-anchor="middle" x="212.191" y="-301.8" font-family="Times New Roman,serif" font-size="14.00" fill="lightgray">wff ch</text>
</g>
<!-- n14218 -->
<g id="node10" class="node"><title>n14218</title>
<ellipse fill="none" stroke="lightgray" cx="48.0957" cy="-234" rx="27" ry="18"/>
<text text-anchor="middle" x="48.0957" y="-230.3" font-family="Times New Roman,serif" font-size="14.00" fill="lightgray">wps</text>
</g>
<!-- n14217&#45;&gt;n14218 -->
<g id="edge15" class="edge"><title>n14217&#45;&gt;n14218</title>
</g>
<!-- n14218&#45;&gt;n14222 -->
<g id="edge9" class="edge"><title>n14218&#45;&gt;n14222</title>
<path fill="none" stroke="lightgray" d="M75.1334,-233.744C129.539,-233.21 255.391,-231.973 317.897,-231.359"/>
<polygon fill="lightgray" stroke="lightgray" points="318.118,-234.858 328.084,-231.259 318.05,-227.858 318.118,-234.858"/>
<text text-anchor="middle" x="212.191" y="-237.8" font-family="Times New Roman,serif" font-size="14.00" fill="lightgray">wff ps</text>
</g>
<!-- n14219 -->
<g id="node11" class="node"><title>n14219</title>
<ellipse fill="none" stroke="lightgray" cx="48.0957" cy="-162" rx="27" ry="18"/>
<text text-anchor="middle" x="48.0957" y="-158.3" font-family="Times New Roman,serif" font-size="14.00" fill="lightgray">wch</text>
</g>
<!-- n14218&#45;&gt;n14219 -->
<g id="edge16" class="edge"><title>n14218&#45;&gt;n14219</title>
</g>
<!-- n14219&#45;&gt;n14222 -->
<g id="edge10" class="edge"><title>n14219&#45;&gt;n14222</title>
<path fill="none" stroke="lightgray" d="M74.6937,-165.325C121.918,-171.825 225.646,-187.823 310.191,-213 314.309,-214.226 318.571,-215.692 322.753,-217.251"/>
<polygon fill="lightgray" stroke="lightgray" points="321.667,-220.585 332.254,-220.987 324.229,-214.07 321.667,-220.585"/>
<text text-anchor="middle" x="212.191" y="-216.8" font-family="Times New Roman,serif" font-size="14.00" fill="lightgray">wff ch</text>
</g>
<!-- n14220 -->
<g id="node12" class="node"><title>n14220</title>
<ellipse fill="none" stroke="lightgray" cx="48.0957" cy="-90" rx="27" ry="18"/>
<text text-anchor="middle" x="48.0957" y="-86.3" font-family="Times New Roman,serif" font-size="14.00" fill="lightgray">wta</text>
</g>
<!-- n14219&#45;&gt;n14220 -->
<g id="edge17" class="edge"><title>n14219&#45;&gt;n14220</title>
</g>
<!-- n14220&#45;&gt;n14222 -->
<g id="edge11" class="edge"><title>n14220&#45;&gt;n14222</title>
<path fill="none" stroke="lightgray" d="M75.2967,-89.725C125.829,-90.5008 238.118,-98.716 310.191,-153 327.037,-165.688 338.456,-186.779 345.476,-203.833"/>
<polygon fill="lightgray" stroke="lightgray" points="342.262,-205.227 349.109,-213.313 348.799,-202.722 342.262,-205.227"/>
<text text-anchor="middle" x="212.191" y="-156.8" font-family="Times New Roman,serif" font-size="14.00" fill="lightgray">wff ta</text>
</g>
<!-- n14221 -->
<g id="node13" class="node"><title>n14221</title>
<ellipse fill="orange" stroke="black" cx="48.0957" cy="-18" rx="48.1917" ry="18"/>
<text text-anchor="middle" x="48.0957" y="-14.3" font-family="Times New Roman,serif" font-size="14.00">anandirs.1</text>
</g>
<!-- n14220&#45;&gt;n14221 -->
<g id="edge18" class="edge"><title>n14220&#45;&gt;n14221</title>
</g>
<!-- n14221&#45;&gt;n14222 -->
<g id="edge12" class="edge"><title>n14221&#45;&gt;n14222</title>
<path fill="none" stroke="black" d="M95.1883,-14.322C153.021,-12.3643 251.692,-18.2249 310.191,-73 346.187,-106.704 353.758,-167.064 354.886,-202.624"/>
<polygon fill="black" stroke="black" points="351.389,-202.866 355.054,-212.807 358.388,-202.751 351.389,-202.866"/>
<text text-anchor="middle" x="212.191" y="-76.8" font-family="Times New Roman,serif" font-size="14.00">|&#45; ( ( ( ph / ch ) / ( ps / ch ) ) &#45;&gt; ta )</text>
</g>
</g>
</svg>
