<?xml version="1.0" encoding="UTF-8" standalone="no"?>
<!DOCTYPE svg PUBLIC "-//W3C//DTD SVG 1.1//EN"
 "http://www.w3.org/Graphics/SVG/1.1/DTD/svg11.dtd">
<!-- Generated by graphviz version 2.38.0 (20140413.2041)
 -->
<!-- Title: proof_anass1rs Pages: 1 -->
<svg width="876pt" height="476pt"
 viewBox="0.00 0.00 876.07 476.00" xmlns="http://www.w3.org/2000/svg" xmlns:xlink="http://www.w3.org/1999/xlink">
<g id="graph0" class="graph" transform="scale(1 1) rotate(0) translate(4 472)">
<title>proof_anass1rs</title>
<polygon fill="white" stroke="none" points="-4,4 -4,-472 872.074,-472 872.074,4 -4,4"/>
<!-- n13827 -->
<g id="node1" class="node"><title>n13827</title>
<ellipse fill="none" stroke="lightgray" cx="326.188" cy="-450" rx="27" ry="18"/>
<text text-anchor="middle" x="326.188" y="-446.3" font-family="Times New Roman,serif" font-size="14.00" fill="lightgray">wph</text>
</g>
<!-- n13837 -->
<g id="node2" class="node"><title>n13837</title>
<ellipse fill="cyan" stroke="black" cx="586.732" cy="-306" rx="31.6951" ry="18"/>
<text text-anchor="middle" x="586.732" y="-302.3" font-family="Times New Roman,serif" font-size="14.00">an32s</text>
</g>
<!-- n13827&#45;&gt;n13837 -->
<g id="edge1" class="edge"><title>n13827&#45;&gt;n13837</title>
<path fill="none" stroke="lightgray" d="M353.052,-447.634C395.473,-442.586 480.722,-427.419 536.885,-384 553.898,-370.848 566.523,-349.966 574.672,-333.117"/>
<polygon fill="lightgray" stroke="lightgray" points="577.979,-334.302 578.952,-323.752 571.612,-331.392 577.979,-334.302"/>
<text text-anchor="middle" x="459.385" y="-446.8" font-family="Times New Roman,serif" font-size="14.00" fill="lightgray">wff ph</text>
</g>
<!-- n13828 -->
<g id="node3" class="node"><title>n13828</title>
<ellipse fill="none" stroke="lightgray" cx="326.188" cy="-378" rx="27" ry="18"/>
<text text-anchor="middle" x="326.188" y="-374.3" font-family="Times New Roman,serif" font-size="14.00" fill="lightgray">wps</text>
</g>
<!-- n13827&#45;&gt;n13828 -->
<g id="edge16" class="edge"><title>n13827&#45;&gt;n13828</title>
</g>
<!-- QED -->
<g id="node12" class="node"><title>QED</title>
</g>
<!-- n13837&#45;&gt;QED -->
<g id="edge15" class="edge"><title>n13837&#45;&gt;QED</title>
<path fill="none" stroke="black" d="M618.649,-306C664.281,-306 749.608,-306 799.266,-306"/>
<polygon fill="black" stroke="black" points="799.294,-309.5 809.294,-306 799.294,-302.5 799.294,-309.5"/>
<text text-anchor="middle" x="714.079" y="-309.8" font-family="Times New Roman,serif" font-size="14.00">|&#45; ( ( ( ph / ch ) / ps ) &#45;&gt; th )</text>
</g>
<!-- n13828&#45;&gt;n13837 -->
<g id="edge2" class="edge"><title>n13828&#45;&gt;n13837</title>
<path fill="none" stroke="lightgray" d="M352.325,-372.701C391.966,-364.11 471.248,-345.972 536.885,-325 541.516,-323.52 546.343,-321.83 551.081,-320.082"/>
<polygon fill="lightgray" stroke="lightgray" points="552.491,-323.291 560.592,-316.462 550.001,-316.749 552.491,-323.291"/>
<text text-anchor="middle" x="459.385" y="-368.8" font-family="Times New Roman,serif" font-size="14.00" fill="lightgray">wff ps</text>
</g>
<!-- n13829 -->
<g id="node4" class="node"><title>n13829</title>
<ellipse fill="none" stroke="lightgray" cx="326.188" cy="-306" rx="27" ry="18"/>
<text text-anchor="middle" x="326.188" y="-302.3" font-family="Times New Roman,serif" font-size="14.00" fill="lightgray">wch</text>
</g>
<!-- n13828&#45;&gt;n13829 -->
<g id="edge17" class="edge"><title>n13828&#45;&gt;n13829</title>
</g>
<!-- n13829&#45;&gt;n13837 -->
<g id="edge3" class="edge"><title>n13829&#45;&gt;n13837</title>
<path fill="none" stroke="lightgray" d="M353.401,-306C398.414,-306 490.732,-306 544.455,-306"/>
<polygon fill="lightgray" stroke="lightgray" points="544.66,-309.5 554.66,-306 544.66,-302.5 544.66,-309.5"/>
<text text-anchor="middle" x="459.385" y="-309.8" font-family="Times New Roman,serif" font-size="14.00" fill="lightgray">wff ch</text>
</g>
<!-- n13830 -->
<g id="node5" class="node"><title>n13830</title>
<ellipse fill="none" stroke="lightgray" cx="326.188" cy="-234" rx="27" ry="18"/>
<text text-anchor="middle" x="326.188" y="-230.3" font-family="Times New Roman,serif" font-size="14.00" fill="lightgray">wth</text>
</g>
<!-- n13829&#45;&gt;n13830 -->
<g id="edge18" class="edge"><title>n13829&#45;&gt;n13830</title>
</g>
<!-- n13830&#45;&gt;n13837 -->
<g id="edge4" class="edge"><title>n13830&#45;&gt;n13837</title>
<path fill="none" stroke="lightgray" d="M352.325,-239.299C391.966,-247.89 471.248,-266.028 536.885,-287 541.516,-288.48 546.343,-290.17 551.081,-291.918"/>
<polygon fill="lightgray" stroke="lightgray" points="550.001,-295.251 560.592,-295.538 552.491,-288.709 550.001,-295.251"/>
<text text-anchor="middle" x="459.385" y="-290.8" font-family="Times New Roman,serif" font-size="14.00" fill="lightgray">wff th</text>
</g>
<!-- n13836 -->
<g id="node7" class="node"><title>n13836</title>
<ellipse fill="cyan" stroke="black" cx="326.188" cy="-162" rx="37.8943" ry="18"/>
<text text-anchor="middle" x="326.188" y="-158.3" font-family="Times New Roman,serif" font-size="14.00">anassrs</text>
</g>
<!-- n13830&#45;&gt;n13836 -->
<g id="edge19" class="edge"><title>n13830&#45;&gt;n13836</title>
</g>
<!-- n13831 -->
<g id="node6" class="node"><title>n13831</title>
<ellipse fill="none" stroke="lightgray" cx="48.7457" cy="-306" rx="27" ry="18"/>
<text text-anchor="middle" x="48.7457" y="-302.3" font-family="Times New Roman,serif" font-size="14.00" fill="lightgray">wph</text>
</g>
<!-- n13831&#45;&gt;n13836 -->
<g id="edge5" class="edge"><title>n13831&#45;&gt;n13836</title>
<path fill="none" stroke="lightgray" d="M75.7062,-304.087C120.093,-299.6 211.482,-284.921 270.491,-238 282.962,-228.084 279.429,-220.103 288.491,-207 293.249,-200.121 298.777,-192.974 304.077,-186.456"/>
<polygon fill="lightgray" stroke="lightgray" points="306.901,-188.533 310.593,-178.603 301.514,-184.064 306.901,-188.533"/>
<text text-anchor="middle" x="192.991" y="-300.8" font-family="Times New Roman,serif" font-size="14.00" fill="lightgray">wff ph</text>
</g>
<!-- n13832 -->
<g id="node8" class="node"><title>n13832</title>
<ellipse fill="none" stroke="lightgray" cx="48.7457" cy="-234" rx="27" ry="18"/>
<text text-anchor="middle" x="48.7457" y="-230.3" font-family="Times New Roman,serif" font-size="14.00" fill="lightgray">wps</text>
</g>
<!-- n13831&#45;&gt;n13832 -->
<g id="edge11" class="edge"><title>n13831&#45;&gt;n13832</title>
</g>
<!-- n13836&#45;&gt;n13837 -->
<g id="edge10" class="edge"><title>n13836&#45;&gt;n13837</title>
<path fill="none" stroke="black" d="M363.36,-165.44C408.206,-171.321 485.047,-186.868 536.885,-227 554.152,-240.368 566.82,-261.7 574.922,-278.829"/>
<polygon fill="black" stroke="black" points="571.894,-280.631 579.166,-288.336 578.286,-277.778 571.894,-280.631"/>
<text text-anchor="middle" x="459.385" y="-230.8" font-family="Times New Roman,serif" font-size="14.00">|&#45; ( ( ( ph / ps ) / ch ) &#45;&gt; th )</text>
</g>
<!-- n13832&#45;&gt;n13836 -->
<g id="edge6" class="edge"><title>n13832&#45;&gt;n13836</title>
<path fill="none" stroke="lightgray" d="M74.7856,-228.832C115.943,-220.149 200.329,-201.555 270.491,-181 275.547,-179.519 280.825,-177.848 286.022,-176.127"/>
<polygon fill="lightgray" stroke="lightgray" points="287.495,-179.323 295.838,-172.793 285.244,-172.695 287.495,-179.323"/>
<text text-anchor="middle" x="192.991" y="-222.8" font-family="Times New Roman,serif" font-size="14.00" fill="lightgray">wff ps</text>
</g>
<!-- n13833 -->
<g id="node9" class="node"><title>n13833</title>
<ellipse fill="none" stroke="lightgray" cx="48.7457" cy="-162" rx="27" ry="18"/>
<text text-anchor="middle" x="48.7457" y="-158.3" font-family="Times New Roman,serif" font-size="14.00" fill="lightgray">wch</text>
</g>
<!-- n13832&#45;&gt;n13833 -->
<g id="edge12" class="edge"><title>n13832&#45;&gt;n13833</title>
</g>
<!-- n13833&#45;&gt;n13836 -->
<g id="edge7" class="edge"><title>n13833&#45;&gt;n13836</title>
<path fill="none" stroke="lightgray" d="M76.1562,-162C122.774,-162 220.214,-162 278.429,-162"/>
<polygon fill="lightgray" stroke="lightgray" points="278.471,-165.5 288.471,-162 278.471,-158.5 278.471,-165.5"/>
<text text-anchor="middle" x="192.991" y="-165.8" font-family="Times New Roman,serif" font-size="14.00" fill="lightgray">wff ch</text>
</g>
<!-- n13834 -->
<g id="node10" class="node"><title>n13834</title>
<ellipse fill="none" stroke="lightgray" cx="48.7457" cy="-90" rx="27" ry="18"/>
<text text-anchor="middle" x="48.7457" y="-86.3" font-family="Times New Roman,serif" font-size="14.00" fill="lightgray">wth</text>
</g>
<!-- n13833&#45;&gt;n13834 -->
<g id="edge13" class="edge"><title>n13833&#45;&gt;n13834</title>
</g>
<!-- n13834&#45;&gt;n13836 -->
<g id="edge8" class="edge"><title>n13834&#45;&gt;n13836</title>
<path fill="none" stroke="lightgray" d="M74.7856,-95.1681C115.943,-103.851 200.329,-122.445 270.491,-143 275.547,-144.481 280.825,-146.152 286.022,-147.873"/>
<polygon fill="lightgray" stroke="lightgray" points="285.244,-151.305 295.838,-151.207 287.495,-144.677 285.244,-151.305"/>
<text text-anchor="middle" x="192.991" y="-146.8" font-family="Times New Roman,serif" font-size="14.00" fill="lightgray">wff th</text>
</g>
<!-- n13835 -->
<g id="node11" class="node"><title>n13835</title>
<ellipse fill="orange" stroke="black" cx="48.7457" cy="-18" rx="48.9926" ry="18"/>
<text text-anchor="middle" x="48.7457" y="-14.3" font-family="Times New Roman,serif" font-size="14.00">anass1rs.1</text>
</g>
<!-- n13834&#45;&gt;n13835 -->
<g id="edge14" class="edge"><title>n13834&#45;&gt;n13835</title>
</g>
<!-- n13835&#45;&gt;n13836 -->
<g id="edge9" class="edge"><title>n13835&#45;&gt;n13836</title>
<path fill="none" stroke="black" d="M95.3954,-23.3731C142.886,-30.8312 217.566,-47.9837 270.491,-86 288.151,-98.6846 302.288,-118.86 311.762,-135.237"/>
<polygon fill="black" stroke="black" points="308.898,-137.29 316.794,-144.355 315.027,-133.908 308.898,-137.29"/>
<text text-anchor="middle" x="192.991" y="-89.8" font-family="Times New Roman,serif" font-size="14.00">|&#45; ( ( ph / ( ps / ch ) ) &#45;&gt; th )</text>
</g>
</g>
</svg>
