<?xml version="1.0" encoding="UTF-8" standalone="no"?>
<!DOCTYPE svg PUBLIC "-//W3C//DTD SVG 1.1//EN"
 "http://www.w3.org/Graphics/SVG/1.1/DTD/svg11.dtd">
<!-- Generated by graphviz version 2.38.0 (20140413.2041)
 -->
<!-- Title: proof_anassrs Pages: 1 -->
<svg width="877pt" height="476pt"
 viewBox="0.00 0.00 877.18 476.00" xmlns="http://www.w3.org/2000/svg" xmlns:xlink="http://www.w3.org/1999/xlink">
<g id="graph0" class="graph" transform="scale(1 1) rotate(0) translate(4 472)">
<title>proof_anassrs</title>
<polygon fill="white" stroke="none" points="-4,4 -4,-472 873.175,-472 873.175,4 -4,4"/>
<!-- n11188 -->
<g id="node1" class="node"><title>n11188</title>
<ellipse fill="none" stroke="lightgray" cx="311.889" cy="-450" rx="27" ry="18"/>
<text text-anchor="middle" x="311.889" y="-446.3" font-family="Times New Roman,serif" font-size="14.00" fill="lightgray">wph</text>
</g>
<!-- n11198 -->
<g id="node2" class="node"><title>n11198</title>
<ellipse fill="cyan" stroke="black" cx="586.533" cy="-306" rx="33.2948" ry="18"/>
<text text-anchor="middle" x="586.533" y="-302.3" font-family="Times New Roman,serif" font-size="14.00">imp31</text>
</g>
<!-- n11188&#45;&gt;n11198 -->
<g id="edge1" class="edge"><title>n11188&#45;&gt;n11198</title>
<path fill="none" stroke="lightgray" d="M338.868,-448.474C383.325,-444.666 475.024,-431.459 535.386,-386 553.395,-372.438 566.527,-350.358 574.825,-332.827"/>
<polygon fill="lightgray" stroke="lightgray" points="578.047,-334.196 578.938,-323.639 571.658,-331.336 578.047,-334.196"/>
<text text-anchor="middle" x="448.886" y="-448.8" font-family="Times New Roman,serif" font-size="14.00" fill="lightgray">wff ph</text>
</g>
<!-- n11189 -->
<g id="node3" class="node"><title>n11189</title>
<ellipse fill="none" stroke="lightgray" cx="311.889" cy="-378" rx="27" ry="18"/>
<text text-anchor="middle" x="311.889" y="-374.3" font-family="Times New Roman,serif" font-size="14.00" fill="lightgray">wps</text>
</g>
<!-- n11188&#45;&gt;n11189 -->
<g id="edge16" class="edge"><title>n11188&#45;&gt;n11189</title>
</g>
<!-- QED -->
<g id="node12" class="node"><title>QED</title>
</g>
<!-- n11198&#45;&gt;QED -->
<g id="edge15" class="edge"><title>n11198&#45;&gt;QED</title>
<path fill="none" stroke="black" d="M619.884,-306C666.091,-306 750.852,-306 800.293,-306"/>
<polygon fill="black" stroke="black" points="800.577,-309.5 810.577,-306 800.577,-302.5 800.577,-309.5"/>
<text text-anchor="middle" x="715.181" y="-309.8" font-family="Times New Roman,serif" font-size="14.00">|&#45; ( ( ( ph / ps ) / ch ) &#45;&gt; th )</text>
</g>
<!-- n11189&#45;&gt;n11198 -->
<g id="edge2" class="edge"><title>n11189&#45;&gt;n11198</title>
<path fill="none" stroke="lightgray" d="M338.197,-373.076C379.78,-364.74 464.973,-346.628 535.386,-325 540.089,-323.555 544.987,-321.898 549.8,-320.176"/>
<polygon fill="lightgray" stroke="lightgray" points="551.302,-323.353 559.467,-316.601 548.874,-316.787 551.302,-323.353"/>
<text text-anchor="middle" x="448.886" y="-370.8" font-family="Times New Roman,serif" font-size="14.00" fill="lightgray">wff ps</text>
</g>
<!-- n11190 -->
<g id="node4" class="node"><title>n11190</title>
<ellipse fill="none" stroke="lightgray" cx="311.889" cy="-306" rx="27" ry="18"/>
<text text-anchor="middle" x="311.889" y="-302.3" font-family="Times New Roman,serif" font-size="14.00" fill="lightgray">wch</text>
</g>
<!-- n11189&#45;&gt;n11190 -->
<g id="edge17" class="edge"><title>n11189&#45;&gt;n11190</title>
</g>
<!-- n11190&#45;&gt;n11198 -->
<g id="edge3" class="edge"><title>n11190&#45;&gt;n11198</title>
<path fill="none" stroke="lightgray" d="M339.032,-306C386.209,-306 485.972,-306 543.063,-306"/>
<polygon fill="lightgray" stroke="lightgray" points="543.204,-309.5 553.204,-306 543.204,-302.5 543.204,-309.5"/>
<text text-anchor="middle" x="448.886" y="-309.8" font-family="Times New Roman,serif" font-size="14.00" fill="lightgray">wff ch</text>
</g>
<!-- n11191 -->
<g id="node5" class="node"><title>n11191</title>
<ellipse fill="none" stroke="lightgray" cx="311.889" cy="-234" rx="27" ry="18"/>
<text text-anchor="middle" x="311.889" y="-230.3" font-family="Times New Roman,serif" font-size="14.00" fill="lightgray">wth</text>
</g>
<!-- n11190&#45;&gt;n11191 -->
<g id="edge18" class="edge"><title>n11190&#45;&gt;n11191</title>
</g>
<!-- n11191&#45;&gt;n11198 -->
<g id="edge4" class="edge"><title>n11191&#45;&gt;n11198</title>
<path fill="none" stroke="lightgray" d="M338.197,-238.924C379.78,-247.26 464.973,-265.372 535.386,-287 540.089,-288.445 544.987,-290.102 549.8,-291.824"/>
<polygon fill="lightgray" stroke="lightgray" points="548.874,-295.213 559.467,-295.399 551.302,-288.647 548.874,-295.213"/>
<text text-anchor="middle" x="448.886" y="-290.8" font-family="Times New Roman,serif" font-size="14.00" fill="lightgray">wff th</text>
</g>
<!-- n11197 -->
<g id="node7" class="node"><title>n11197</title>
<ellipse fill="cyan" stroke="black" cx="311.889" cy="-162" rx="32.4942" ry="18"/>
<text text-anchor="middle" x="311.889" y="-158.3" font-family="Times New Roman,serif" font-size="14.00">exp32</text>
</g>
<!-- n11191&#45;&gt;n11197 -->
<g id="edge19" class="edge"><title>n11191&#45;&gt;n11197</title>
</g>
<!-- n11192 -->
<g id="node6" class="node"><title>n11192</title>
<ellipse fill="none" stroke="lightgray" cx="44.1961" cy="-306" rx="27" ry="18"/>
<text text-anchor="middle" x="44.1961" y="-302.3" font-family="Times New Roman,serif" font-size="14.00" fill="lightgray">wph</text>
</g>
<!-- n11192&#45;&gt;n11197 -->
<g id="edge5" class="edge"><title>n11192&#45;&gt;n11197</title>
<path fill="none" stroke="lightgray" d="M71.3896,-304.085C115.219,-299.641 204.23,-285.174 261.392,-239 274.086,-228.746 270.703,-220.812 279.392,-207 283.512,-200.452 288.183,-193.535 292.643,-187.14"/>
<polygon fill="lightgray" stroke="lightgray" points="295.605,-189.013 298.522,-178.828 289.89,-184.971 295.605,-189.013"/>
<text text-anchor="middle" x="183.892" y="-302.8" font-family="Times New Roman,serif" font-size="14.00" fill="lightgray">wff ph</text>
</g>
<!-- n11193 -->
<g id="node8" class="node"><title>n11193</title>
<ellipse fill="none" stroke="lightgray" cx="44.1961" cy="-234" rx="27" ry="18"/>
<text text-anchor="middle" x="44.1961" y="-230.3" font-family="Times New Roman,serif" font-size="14.00" fill="lightgray">wps</text>
</g>
<!-- n11192&#45;&gt;n11193 -->
<g id="edge11" class="edge"><title>n11192&#45;&gt;n11193</title>
</g>
<!-- n11197&#45;&gt;n11198 -->
<g id="edge10" class="edge"><title>n11197&#45;&gt;n11198</title>
<path fill="none" stroke="black" d="M344.436,-163.821C390.65,-167.943 477.532,-181.366 535.386,-225 553.547,-238.697 566.668,-261.055 574.923,-278.815"/>
<polygon fill="black" stroke="black" points="571.785,-280.375 579.009,-288.124 578.195,-277.561 571.785,-280.375"/>
<text text-anchor="middle" x="448.886" y="-228.8" font-family="Times New Roman,serif" font-size="14.00">|&#45; ( ph &#45;&gt; ( ps &#45;&gt; ( ch &#45;&gt; th ) ) )</text>
</g>
<!-- n11193&#45;&gt;n11197 -->
<g id="edge6" class="edge"><title>n11193&#45;&gt;n11197</title>
<path fill="none" stroke="lightgray" d="M70.1169,-228.961C110.643,-220.529 193.165,-202.364 261.392,-181 266.086,-179.53 270.977,-177.846 275.778,-176.101"/>
<polygon fill="lightgray" stroke="lightgray" points="277.284,-179.275 285.416,-172.484 274.824,-172.721 277.284,-179.275"/>
<text text-anchor="middle" x="183.892" y="-223.8" font-family="Times New Roman,serif" font-size="14.00" fill="lightgray">wff ps</text>
</g>
<!-- n11194 -->
<g id="node9" class="node"><title>n11194</title>
<ellipse fill="none" stroke="lightgray" cx="44.1961" cy="-162" rx="27" ry="18"/>
<text text-anchor="middle" x="44.1961" y="-158.3" font-family="Times New Roman,serif" font-size="14.00" fill="lightgray">wch</text>
</g>
<!-- n11193&#45;&gt;n11194 -->
<g id="edge12" class="edge"><title>n11193&#45;&gt;n11194</title>
</g>
<!-- n11194&#45;&gt;n11197 -->
<g id="edge7" class="edge"><title>n11194&#45;&gt;n11197</title>
<path fill="none" stroke="lightgray" d="M71.6431,-162C117.885,-162 213.762,-162 269.075,-162"/>
<polygon fill="lightgray" stroke="lightgray" points="269.24,-165.5 279.24,-162 269.24,-158.5 269.24,-165.5"/>
<text text-anchor="middle" x="183.892" y="-165.8" font-family="Times New Roman,serif" font-size="14.00" fill="lightgray">wff ch</text>
</g>
<!-- n11195 -->
<g id="node10" class="node"><title>n11195</title>
<ellipse fill="none" stroke="lightgray" cx="44.1961" cy="-90" rx="27" ry="18"/>
<text text-anchor="middle" x="44.1961" y="-86.3" font-family="Times New Roman,serif" font-size="14.00" fill="lightgray">wth</text>
</g>
<!-- n11194&#45;&gt;n11195 -->
<g id="edge13" class="edge"><title>n11194&#45;&gt;n11195</title>
</g>
<!-- n11195&#45;&gt;n11197 -->
<g id="edge8" class="edge"><title>n11195&#45;&gt;n11197</title>
<path fill="none" stroke="lightgray" d="M70.1169,-95.0389C110.643,-103.471 193.165,-121.636 261.392,-143 266.086,-144.47 270.977,-146.154 275.778,-147.899"/>
<polygon fill="lightgray" stroke="lightgray" points="274.824,-151.279 285.416,-151.516 277.284,-144.725 274.824,-151.279"/>
<text text-anchor="middle" x="183.892" y="-146.8" font-family="Times New Roman,serif" font-size="14.00" fill="lightgray">wff th</text>
</g>
<!-- n11196 -->
<g id="node11" class="node"><title>n11196</title>
<ellipse fill="orange" stroke="black" cx="44.1961" cy="-18" rx="44.393" ry="18"/>
<text text-anchor="middle" x="44.1961" y="-14.3" font-family="Times New Roman,serif" font-size="14.00">anassrs.1</text>
</g>
<!-- n11195&#45;&gt;n11196 -->
<g id="edge14" class="edge"><title>n11195&#45;&gt;n11196</title>
</g>
<!-- n11196&#45;&gt;n11197 -->
<g id="edge9" class="edge"><title>n11196&#45;&gt;n11197</title>
<path fill="none" stroke="black" d="M87.3164,-22.3829C133.976,-29.0716 209.464,-45.5237 261.392,-85 278.419,-97.9438 291.223,-118.56 299.539,-135.203"/>
<polygon fill="black" stroke="black" points="296.475,-136.912 303.914,-144.456 302.803,-133.919 296.475,-136.912"/>
<text text-anchor="middle" x="183.892" y="-88.8" font-family="Times New Roman,serif" font-size="14.00">|&#45; ( ( ph / ( ps / ch ) ) &#45;&gt; th )</text>
</g>
</g>
</svg>
