<?xml version="1.0" encoding="UTF-8" standalone="no"?>
<!DOCTYPE svg PUBLIC "-//W3C//DTD SVG 1.1//EN"
 "http://www.w3.org/Graphics/SVG/1.1/DTD/svg11.dtd">
<!-- Generated by graphviz version 2.38.0 (20140413.2041)
 -->
<!-- Title: proof_anass Pages: 1 -->
<svg width="1608pt" height="1080pt"
 viewBox="0.00 0.00 1608.18 1080.00" xmlns="http://www.w3.org/2000/svg" xmlns:xlink="http://www.w3.org/1999/xlink">
<g id="graph0" class="graph" transform="scale(1 1) rotate(0) translate(4 1076)">
<title>proof_anass</title>
<polygon fill="white" stroke="none" points="-4,4 -4,-1076 1604.18,-1076 1604.18,4 -4,4"/>
<!-- n11199 -->
<g id="node1" class="node"><title>n11199</title>
<ellipse fill="none" stroke="lightgray" cx="323" cy="-1054" rx="27" ry="18"/>
<text text-anchor="middle" x="323" y="-1050.3" font-family="Times New Roman,serif" font-size="14.00" fill="lightgray">wph</text>
</g>
<!-- n11201 -->
<g id="node2" class="node"><title>n11201</title>
<ellipse fill="none" stroke="lightgray" cx="533" cy="-1014" rx="27" ry="18"/>
<text text-anchor="middle" x="533" y="-1010.3" font-family="Times New Roman,serif" font-size="14.00" fill="lightgray">wa</text>
</g>
<!-- n11199&#45;&gt;n11201 -->
<g id="edge1" class="edge"><title>n11199&#45;&gt;n11201</title>
<path fill="none" stroke="lightgray" d="M349.09,-1049.18C385.945,-1042.09 454.874,-1028.83 496.784,-1020.77"/>
<polygon fill="lightgray" stroke="lightgray" points="497.662,-1024.17 506.821,-1018.84 496.34,-1017.29 497.662,-1024.17"/>
<text text-anchor="middle" x="428" y="-1049.8" font-family="Times New Roman,serif" font-size="14.00" fill="lightgray">wff ph</text>
</g>
<!-- n11200 -->
<g id="node3" class="node"><title>n11200</title>
<ellipse fill="none" stroke="lightgray" cx="323" cy="-982" rx="27" ry="18"/>
<text text-anchor="middle" x="323" y="-978.3" font-family="Times New Roman,serif" font-size="14.00" fill="lightgray">wps</text>
</g>
<!-- n11199&#45;&gt;n11200 -->
<g id="edge4" class="edge"><title>n11199&#45;&gt;n11200</title>
</g>
<!-- n11203 -->
<g id="node4" class="node"><title>n11203</title>
<ellipse fill="none" stroke="lightgray" cx="874.697" cy="-906" rx="27" ry="18"/>
<text text-anchor="middle" x="874.697" y="-902.3" font-family="Times New Roman,serif" font-size="14.00" fill="lightgray">wa</text>
</g>
<!-- n11201&#45;&gt;n11203 -->
<g id="edge3" class="edge"><title>n11201&#45;&gt;n11203</title>
<path fill="none" stroke="lightgray" d="M560.287,-1013.28C612.43,-1010.88 731.469,-1000.54 819,-956 832.029,-949.371 844.268,-938.776 853.851,-929.042"/>
<polygon fill="lightgray" stroke="lightgray" points="856.63,-931.195 860.931,-921.513 851.531,-926.4 856.63,-931.195"/>
<text text-anchor="middle" x="698.5" y="-1016.8" font-family="Times New Roman,serif" font-size="14.00" fill="lightgray">wff ( ph / ps )</text>
</g>
<!-- n11202 -->
<g id="node5" class="node"><title>n11202</title>
<ellipse fill="none" stroke="lightgray" cx="533" cy="-942" rx="27" ry="18"/>
<text text-anchor="middle" x="533" y="-938.3" font-family="Times New Roman,serif" font-size="14.00" fill="lightgray">wch</text>
</g>
<!-- n11201&#45;&gt;n11202 -->
<g id="edge7" class="edge"><title>n11201&#45;&gt;n11202</title>
</g>
<!-- n11200&#45;&gt;n11201 -->
<g id="edge2" class="edge"><title>n11200&#45;&gt;n11201</title>
<path fill="none" stroke="lightgray" d="M350.101,-983.262C382.672,-985.203 439.943,-989.823 488,-1000 491.666,-1000.78 495.461,-1001.74 499.215,-1002.79"/>
<polygon fill="lightgray" stroke="lightgray" points="498.355,-1006.18 508.94,-1005.71 500.373,-999.48 498.355,-1006.18"/>
<text text-anchor="middle" x="428" y="-1003.8" font-family="Times New Roman,serif" font-size="14.00" fill="lightgray">wff ps</text>
</g>
<!-- n11239 -->
<g id="node6" class="node"><title>n11239</title>
<ellipse fill="cyan" stroke="black" cx="1222.54" cy="-735" rx="33.2948" ry="18"/>
<text text-anchor="middle" x="1222.54" y="-731.3" font-family="Times New Roman,serif" font-size="14.00">impbii</text>
</g>
<!-- n11203&#45;&gt;n11239 -->
<g id="edge6" class="edge"><title>n11203&#45;&gt;n11239</title>
<path fill="none" stroke="lightgray" d="M901.942,-905C957.413,-901.62 1088.28,-886.818 1171.39,-822 1190.94,-806.753 1204.25,-781.599 1212.21,-762.249"/>
<polygon fill="lightgray" stroke="lightgray" points="1215.55,-763.331 1215.9,-752.742 1209.02,-760.802 1215.55,-763.331"/>
<text text-anchor="middle" x="1050.89" y="-906.8" font-family="Times New Roman,serif" font-size="14.00" fill="lightgray">wff ( ( ph / ps ) / ch )</text>
</g>
<!-- n11208 -->
<g id="node8" class="node"><title>n11208</title>
<ellipse fill="none" stroke="lightgray" cx="874.697" cy="-816" rx="27" ry="18"/>
<text text-anchor="middle" x="874.697" y="-812.3" font-family="Times New Roman,serif" font-size="14.00" fill="lightgray">wa</text>
</g>
<!-- n11203&#45;&gt;n11208 -->
<g id="edge62" class="edge"><title>n11203&#45;&gt;n11208</title>
</g>
<!-- n11202&#45;&gt;n11203 -->
<g id="edge5" class="edge"><title>n11202&#45;&gt;n11203</title>
<path fill="none" stroke="lightgray" d="M559.811,-939.265C619.774,-932.91 768.615,-917.136 837.57,-909.829"/>
<polygon fill="lightgray" stroke="lightgray" points="838.349,-913.266 847.925,-908.731 837.611,-906.305 838.349,-913.266"/>
<text text-anchor="middle" x="698.5" y="-940.8" font-family="Times New Roman,serif" font-size="14.00" fill="lightgray">wff ch</text>
</g>
<!-- QED -->
<g id="node42" class="node"><title>QED</title>
</g>
<!-- n11239&#45;&gt;QED -->
<g id="edge61" class="edge"><title>n11239&#45;&gt;QED</title>
<path fill="none" stroke="black" d="M1255.82,-735C1319.75,-735 1462.23,-735 1531.14,-735"/>
<polygon fill="black" stroke="black" points="1531.54,-738.5 1541.54,-735 1531.54,-731.5 1531.54,-738.5"/>
<text text-anchor="middle" x="1398.69" y="-738.8" font-family="Times New Roman,serif" font-size="14.00">|&#45; ( ( ( ph / ps ) / ch ) &lt;&#45;&gt; ( ph / ( ps / ch ) ) )</text>
</g>
<!-- n11204 -->
<g id="node7" class="node"><title>n11204</title>
<ellipse fill="none" stroke="lightgray" cx="533" cy="-888" rx="27" ry="18"/>
<text text-anchor="middle" x="533" y="-884.3" font-family="Times New Roman,serif" font-size="14.00" fill="lightgray">wph</text>
</g>
<!-- n11204&#45;&gt;n11208 -->
<g id="edge8" class="edge"><title>n11204&#45;&gt;n11208</title>
<path fill="none" stroke="lightgray" d="M559.835,-884.527C610.209,-877.463 724.867,-859.95 819,-835 826.348,-833.052 834.129,-830.597 841.444,-828.105"/>
<polygon fill="lightgray" stroke="lightgray" points="842.775,-831.346 851.047,-824.726 840.452,-824.743 842.775,-831.346"/>
<text text-anchor="middle" x="698.5" y="-885.8" font-family="Times New Roman,serif" font-size="14.00" fill="lightgray">wff ph</text>
</g>
<!-- n11207 -->
<g id="node10" class="node"><title>n11207</title>
<ellipse fill="none" stroke="lightgray" cx="533" cy="-816" rx="27" ry="18"/>
<text text-anchor="middle" x="533" y="-812.3" font-family="Times New Roman,serif" font-size="14.00" fill="lightgray">wa</text>
</g>
<!-- n11204&#45;&gt;n11207 -->
<g id="edge14" class="edge"><title>n11204&#45;&gt;n11207</title>
</g>
<!-- n11208&#45;&gt;n11239 -->
<g id="edge13" class="edge"><title>n11208&#45;&gt;n11239</title>
<path fill="none" stroke="lightgray" d="M900.292,-810.24C959.346,-796.408 1109.59,-761.221 1181.71,-744.328"/>
<polygon fill="lightgray" stroke="lightgray" points="1182.83,-747.661 1191.77,-741.973 1181.23,-740.846 1182.83,-747.661"/>
<text text-anchor="middle" x="1050.89" y="-806.8" font-family="Times New Roman,serif" font-size="14.00" fill="lightgray">wff ( ph / ( ps / ch ) )</text>
</g>
<!-- n11223 -->
<g id="node13" class="node"><title>n11223</title>
<ellipse fill="cyan" stroke="black" cx="874.697" cy="-658" rx="37.8943" ry="18"/>
<text text-anchor="middle" x="874.697" y="-654.3" font-family="Times New Roman,serif" font-size="14.00">anassrs</text>
</g>
<!-- n11208&#45;&gt;n11223 -->
<g id="edge63" class="edge"><title>n11208&#45;&gt;n11223</title>
</g>
<!-- n11205 -->
<g id="node9" class="node"><title>n11205</title>
<ellipse fill="none" stroke="lightgray" cx="323" cy="-853" rx="27" ry="18"/>
<text text-anchor="middle" x="323" y="-849.3" font-family="Times New Roman,serif" font-size="14.00" fill="lightgray">wps</text>
</g>
<!-- n11205&#45;&gt;n11207 -->
<g id="edge9" class="edge"><title>n11205&#45;&gt;n11207</title>
<path fill="none" stroke="lightgray" d="M349.505,-848.463C386.407,-841.899 454.832,-829.727 496.602,-822.297"/>
<polygon fill="lightgray" stroke="lightgray" points="497.38,-825.713 506.612,-820.516 496.154,-818.822 497.38,-825.713"/>
<text text-anchor="middle" x="428" y="-849.8" font-family="Times New Roman,serif" font-size="14.00" fill="lightgray">wff ps</text>
</g>
<!-- n11206 -->
<g id="node11" class="node"><title>n11206</title>
<ellipse fill="none" stroke="lightgray" cx="323" cy="-781" rx="27" ry="18"/>
<text text-anchor="middle" x="323" y="-777.3" font-family="Times New Roman,serif" font-size="14.00" fill="lightgray">wch</text>
</g>
<!-- n11205&#45;&gt;n11206 -->
<g id="edge12" class="edge"><title>n11205&#45;&gt;n11206</title>
</g>
<!-- n11207&#45;&gt;n11208 -->
<g id="edge11" class="edge"><title>n11207&#45;&gt;n11208</title>
<path fill="none" stroke="lightgray" d="M560.091,-816C620.112,-816 768.107,-816 837.14,-816"/>
<polygon fill="lightgray" stroke="lightgray" points="837.516,-819.5 847.516,-816 837.516,-812.5 837.516,-819.5"/>
<text text-anchor="middle" x="698.5" y="-819.8" font-family="Times New Roman,serif" font-size="14.00" fill="lightgray">wff ( ps / ch )</text>
</g>
<!-- n11206&#45;&gt;n11207 -->
<g id="edge10" class="edge"><title>n11206&#45;&gt;n11207</title>
<path fill="none" stroke="lightgray" d="M349.626,-784.702C381.951,-789.454 439.213,-798.148 488,-807 490.877,-807.522 493.855,-808.084 496.843,-808.664"/>
<polygon fill="lightgray" stroke="lightgray" points="496.417,-812.147 506.908,-810.666 497.783,-805.282 496.417,-812.147"/>
<text text-anchor="middle" x="428" y="-810.8" font-family="Times New Roman,serif" font-size="14.00" fill="lightgray">wff ch</text>
</g>
<!-- n11209 -->
<g id="node12" class="node"><title>n11209</title>
<ellipse fill="none" stroke="lightgray" cx="533" cy="-762" rx="27" ry="18"/>
<text text-anchor="middle" x="533" y="-758.3" font-family="Times New Roman,serif" font-size="14.00" fill="lightgray">wph</text>
</g>
<!-- n11209&#45;&gt;n11223 -->
<g id="edge15" class="edge"><title>n11209&#45;&gt;n11223</title>
<path fill="none" stroke="lightgray" d="M560.168,-761.158C612.1,-758.567 730.783,-748.009 819,-705 830.957,-699.17 842.411,-690.084 851.719,-681.448"/>
<polygon fill="lightgray" stroke="lightgray" points="854.261,-683.858 858.998,-674.381 849.385,-678.836 854.261,-683.858"/>
<text text-anchor="middle" x="698.5" y="-764.8" font-family="Times New Roman,serif" font-size="14.00" fill="lightgray">wff ph</text>
</g>
<!-- n11210 -->
<g id="node14" class="node"><title>n11210</title>
<ellipse fill="none" stroke="lightgray" cx="533" cy="-690" rx="27" ry="18"/>
<text text-anchor="middle" x="533" y="-686.3" font-family="Times New Roman,serif" font-size="14.00" fill="lightgray">wps</text>
</g>
<!-- n11209&#45;&gt;n11210 -->
<g id="edge34" class="edge"><title>n11209&#45;&gt;n11210</title>
</g>
<!-- n11223&#45;&gt;n11239 -->
<g id="edge33" class="edge"><title>n11223&#45;&gt;n11239</title>
<path fill="none" stroke="black" d="M909.172,-665.453C973.185,-679.705 1112.69,-710.765 1181.51,-726.087"/>
<polygon fill="black" stroke="black" points="1181.01,-729.561 1191.53,-728.318 1182.53,-722.728 1181.01,-729.561"/>
<text text-anchor="middle" x="1050.89" y="-727.8" font-family="Times New Roman,serif" font-size="14.00">|&#45; ( ( ( ph / ps ) / ch ) &#45;&gt; ( ph / ( ps / ch ) ) )</text>
</g>
<!-- n11238 -->
<g id="node28" class="node"><title>n11238</title>
<ellipse fill="cyan" stroke="black" cx="874.697" cy="-348" rx="34.394" ry="18"/>
<text text-anchor="middle" x="874.697" y="-344.3" font-family="Times New Roman,serif" font-size="14.00">anasss</text>
</g>
<!-- n11223&#45;&gt;n11238 -->
<g id="edge64" class="edge"><title>n11223&#45;&gt;n11238</title>
</g>
<!-- n11210&#45;&gt;n11223 -->
<g id="edge16" class="edge"><title>n11210&#45;&gt;n11223</title>
<path fill="none" stroke="lightgray" d="M559.811,-687.569C616.922,-682.189 754.656,-669.214 827.206,-662.38"/>
<polygon fill="lightgray" stroke="lightgray" points="827.792,-665.84 837.419,-661.417 827.135,-658.871 827.792,-665.84"/>
<text text-anchor="middle" x="698.5" y="-689.8" font-family="Times New Roman,serif" font-size="14.00" fill="lightgray">wff ps</text>
</g>
<!-- n11211 -->
<g id="node15" class="node"><title>n11211</title>
<ellipse fill="none" stroke="lightgray" cx="533" cy="-618" rx="27" ry="18"/>
<text text-anchor="middle" x="533" y="-614.3" font-family="Times New Roman,serif" font-size="14.00" fill="lightgray">wch</text>
</g>
<!-- n11210&#45;&gt;n11211 -->
<g id="edge35" class="edge"><title>n11210&#45;&gt;n11211</title>
</g>
<!-- n11211&#45;&gt;n11223 -->
<g id="edge17" class="edge"><title>n11211&#45;&gt;n11223</title>
<path fill="none" stroke="lightgray" d="M560.091,-619.257C610.434,-621.95 724.363,-629.349 819,-645 822.95,-645.653 827.038,-646.431 831.119,-647.276"/>
<polygon fill="lightgray" stroke="lightgray" points="830.646,-650.756 841.164,-649.485 832.149,-643.919 830.646,-650.756"/>
<text text-anchor="middle" x="698.5" y="-648.8" font-family="Times New Roman,serif" font-size="14.00" fill="lightgray">wff ch</text>
</g>
<!-- n11216 -->
<g id="node19" class="node"><title>n11216</title>
<ellipse fill="none" stroke="lightgray" cx="533" cy="-546" rx="27" ry="18"/>
<text text-anchor="middle" x="533" y="-542.3" font-family="Times New Roman,serif" font-size="14.00" fill="lightgray">wa</text>
</g>
<!-- n11211&#45;&gt;n11216 -->
<g id="edge36" class="edge"><title>n11211&#45;&gt;n11216</title>
</g>
<!-- n11212 -->
<g id="node16" class="node"><title>n11212</title>
<ellipse fill="none" stroke="lightgray" cx="154" cy="-628" rx="27" ry="18"/>
<text text-anchor="middle" x="154" y="-624.3" font-family="Times New Roman,serif" font-size="14.00" fill="lightgray">wch</text>
</g>
<!-- n11214 -->
<g id="node17" class="node"><title>n11214</title>
<ellipse fill="none" stroke="lightgray" cx="323" cy="-608" rx="27" ry="18"/>
<text text-anchor="middle" x="323" y="-604.3" font-family="Times New Roman,serif" font-size="14.00" fill="lightgray">wa</text>
</g>
<!-- n11212&#45;&gt;n11214 -->
<g id="edge18" class="edge"><title>n11212&#45;&gt;n11214</title>
<path fill="none" stroke="lightgray" d="M180.728,-624.919C208.923,-621.542 254.355,-616.101 286.061,-612.304"/>
<polygon fill="lightgray" stroke="lightgray" points="286.73,-615.749 296.243,-611.085 285.898,-608.799 286.73,-615.749"/>
<text text-anchor="middle" x="238.5" y="-626.8" font-family="Times New Roman,serif" font-size="14.00" fill="lightgray">wff ch</text>
</g>
<!-- n11213 -->
<g id="node18" class="node"><title>n11213</title>
<ellipse fill="none" stroke="lightgray" cx="154" cy="-556" rx="27" ry="18"/>
<text text-anchor="middle" x="154" y="-552.3" font-family="Times New Roman,serif" font-size="14.00" fill="lightgray">wps</text>
</g>
<!-- n11212&#45;&gt;n11213 -->
<g id="edge21" class="edge"><title>n11212&#45;&gt;n11213</title>
</g>
<!-- n11214&#45;&gt;n11216 -->
<g id="edge20" class="edge"><title>n11214&#45;&gt;n11216</title>
<path fill="none" stroke="lightgray" d="M348.681,-602.055C380.978,-594.087 439.207,-579.075 488,-563 491.828,-561.739 495.811,-560.334 499.747,-558.888"/>
<polygon fill="lightgray" stroke="lightgray" points="501.207,-562.078 509.321,-555.265 498.73,-555.531 501.207,-562.078"/>
<text text-anchor="middle" x="428" y="-600.8" font-family="Times New Roman,serif" font-size="14.00" fill="lightgray">wff ( ps / ch )</text>
</g>
<!-- n11215 -->
<g id="node20" class="node"><title>n11215</title>
<ellipse fill="none" stroke="lightgray" cx="323" cy="-536" rx="27" ry="18"/>
<text text-anchor="middle" x="323" y="-532.3" font-family="Times New Roman,serif" font-size="14.00" fill="lightgray">wph</text>
</g>
<!-- n11214&#45;&gt;n11215 -->
<g id="edge24" class="edge"><title>n11214&#45;&gt;n11215</title>
</g>
<!-- n11213&#45;&gt;n11214 -->
<g id="edge19" class="edge"><title>n11213&#45;&gt;n11214</title>
<path fill="none" stroke="lightgray" d="M178.927,-563.45C207.573,-572.37 255.739,-587.368 288.181,-597.47"/>
<polygon fill="lightgray" stroke="lightgray" points="287.529,-600.932 298.117,-600.563 289.61,-594.249 287.529,-600.932"/>
<text text-anchor="middle" x="238.5" y="-598.8" font-family="Times New Roman,serif" font-size="14.00" fill="lightgray">wff ps</text>
</g>
<!-- n11216&#45;&gt;n11223 -->
<g id="edge23" class="edge"><title>n11216&#45;&gt;n11223</title>
<path fill="none" stroke="lightgray" d="M560.1,-546.058C612.416,-547.223 732.501,-555.239 819,-602 833.045,-609.593 845.719,-622.011 855.322,-633.226"/>
<polygon fill="lightgray" stroke="lightgray" points="852.711,-635.562 861.747,-641.094 858.133,-631.135 852.711,-635.562"/>
<text text-anchor="middle" x="698.5" y="-605.8" font-family="Times New Roman,serif" font-size="14.00" fill="lightgray">wff ( ph / ( ps / ch ) )</text>
</g>
<!-- n11222 -->
<g id="node26" class="node"><title>n11222</title>
<ellipse fill="cyan" stroke="black" cx="533" cy="-474" rx="27" ry="18"/>
<text text-anchor="middle" x="533" y="-470.3" font-family="Times New Roman,serif" font-size="14.00">id</text>
</g>
<!-- n11216&#45;&gt;n11222 -->
<g id="edge37" class="edge"><title>n11216&#45;&gt;n11222</title>
</g>
<!-- n11215&#45;&gt;n11216 -->
<g id="edge22" class="edge"><title>n11215&#45;&gt;n11216</title>
<path fill="none" stroke="lightgray" d="M350.343,-537.267C387.149,-539.036 454.103,-542.255 495.638,-544.252"/>
<polygon fill="lightgray" stroke="lightgray" points="495.714,-547.759 505.871,-544.744 496.05,-540.768 495.714,-547.759"/>
<text text-anchor="middle" x="428" y="-547.8" font-family="Times New Roman,serif" font-size="14.00" fill="lightgray">wff ph</text>
</g>
<!-- n11217 -->
<g id="node21" class="node"><title>n11217</title>
<ellipse fill="none" stroke="lightgray" cx="27" cy="-539" rx="27" ry="18"/>
<text text-anchor="middle" x="27" y="-535.3" font-family="Times New Roman,serif" font-size="14.00" fill="lightgray">wch</text>
</g>
<!-- n11219 -->
<g id="node22" class="node"><title>n11219</title>
<ellipse fill="none" stroke="lightgray" cx="154" cy="-495" rx="27" ry="18"/>
<text text-anchor="middle" x="154" y="-491.3" font-family="Times New Roman,serif" font-size="14.00" fill="lightgray">wa</text>
</g>
<!-- n11217&#45;&gt;n11219 -->
<g id="edge25" class="edge"><title>n11217&#45;&gt;n11219</title>
<path fill="none" stroke="lightgray" d="M51.2186,-530.827C70.6886,-523.974 98.7117,-514.109 120.426,-506.466"/>
<polygon fill="lightgray" stroke="lightgray" points="121.635,-509.751 129.906,-503.129 119.311,-503.148 121.635,-509.751"/>
<text text-anchor="middle" x="90.5" y="-527.8" font-family="Times New Roman,serif" font-size="14.00" fill="lightgray">wff ch</text>
</g>
<!-- n11218 -->
<g id="node23" class="node"><title>n11218</title>
<ellipse fill="none" stroke="lightgray" cx="27" cy="-467" rx="27" ry="18"/>
<text text-anchor="middle" x="27" y="-463.3" font-family="Times New Roman,serif" font-size="14.00" fill="lightgray">wps</text>
</g>
<!-- n11217&#45;&gt;n11218 -->
<g id="edge28" class="edge"><title>n11217&#45;&gt;n11218</title>
</g>
<!-- n11221 -->
<g id="node24" class="node"><title>n11221</title>
<ellipse fill="none" stroke="lightgray" cx="323" cy="-474" rx="27" ry="18"/>
<text text-anchor="middle" x="323" y="-470.3" font-family="Times New Roman,serif" font-size="14.00" fill="lightgray">wa</text>
</g>
<!-- n11219&#45;&gt;n11221 -->
<g id="edge27" class="edge"><title>n11219&#45;&gt;n11221</title>
<path fill="none" stroke="lightgray" d="M180.728,-491.765C208.923,-488.219 254.355,-482.506 286.061,-478.519"/>
<polygon fill="lightgray" stroke="lightgray" points="286.758,-481.959 296.243,-477.239 285.884,-475.014 286.758,-481.959"/>
<text text-anchor="middle" x="238.5" y="-493.8" font-family="Times New Roman,serif" font-size="14.00" fill="lightgray">wff ( ps / ch )</text>
</g>
<!-- n11220 -->
<g id="node25" class="node"><title>n11220</title>
<ellipse fill="none" stroke="lightgray" cx="154" cy="-423" rx="27" ry="18"/>
<text text-anchor="middle" x="154" y="-419.3" font-family="Times New Roman,serif" font-size="14.00" fill="lightgray">wph</text>
</g>
<!-- n11219&#45;&gt;n11220 -->
<g id="edge31" class="edge"><title>n11219&#45;&gt;n11220</title>
</g>
<!-- n11218&#45;&gt;n11219 -->
<g id="edge26" class="edge"><title>n11218&#45;&gt;n11219</title>
<path fill="none" stroke="lightgray" d="M52.8224,-472.484C68.8563,-476.034 90.1664,-480.767 109,-485 112.036,-485.682 115.189,-486.394 118.349,-487.108"/>
<polygon fill="lightgray" stroke="lightgray" points="117.811,-490.575 128.337,-489.373 119.359,-483.748 117.811,-490.575"/>
<text text-anchor="middle" x="90.5" y="-488.8" font-family="Times New Roman,serif" font-size="14.00" fill="lightgray">wff ps</text>
</g>
<!-- n11221&#45;&gt;n11222 -->
<g id="edge30" class="edge"><title>n11221&#45;&gt;n11222</title>
<path fill="none" stroke="lightgray" d="M350.343,-474C387.149,-474 454.103,-474 495.638,-474"/>
<polygon fill="lightgray" stroke="lightgray" points="495.871,-477.5 505.871,-474 495.871,-470.5 495.871,-477.5"/>
<text text-anchor="middle" x="428" y="-477.8" font-family="Times New Roman,serif" font-size="14.00" fill="lightgray">wff ( ph / ( ps / ch ) )</text>
</g>
<!-- n11220&#45;&gt;n11221 -->
<g id="edge29" class="edge"><title>n11220&#45;&gt;n11221</title>
<path fill="none" stroke="lightgray" d="M178.927,-430.307C207.573,-439.055 255.739,-453.765 288.181,-463.672"/>
<polygon fill="lightgray" stroke="lightgray" points="287.531,-467.133 298.117,-466.706 289.576,-460.438 287.531,-467.133"/>
<text text-anchor="middle" x="238.5" y="-464.8" font-family="Times New Roman,serif" font-size="14.00" fill="lightgray">wff ph</text>
</g>
<!-- n11222&#45;&gt;n11223 -->
<g id="edge32" class="edge"><title>n11222&#45;&gt;n11223</title>
<path fill="none" stroke="black" d="M559.729,-471.375C614.023,-467.281 741.656,-465.468 819,-528 850.34,-553.338 863.991,-599.833 869.743,-629.806"/>
<polygon fill="black" stroke="black" points="866.295,-630.408 871.465,-639.657 873.191,-629.203 866.295,-630.408"/>
<text text-anchor="middle" x="698.5" y="-531.8" font-family="Times New Roman,serif" font-size="14.00">|&#45; ( ( ph / ( ps / ch ) ) &#45;&gt; ( ph / ( ps / ch ) ) )</text>
</g>
<!-- n11224 -->
<g id="node27" class="node"><title>n11224</title>
<ellipse fill="none" stroke="lightgray" cx="533" cy="-420" rx="27" ry="18"/>
<text text-anchor="middle" x="533" y="-416.3" font-family="Times New Roman,serif" font-size="14.00" fill="lightgray">wph</text>
</g>
<!-- n11224&#45;&gt;n11238 -->
<g id="edge38" class="edge"><title>n11224&#45;&gt;n11238</title>
<path fill="none" stroke="lightgray" d="M559.835,-416.527C610.209,-409.463 724.867,-391.95 819,-367 824.789,-365.466 830.846,-363.616 836.733,-361.682"/>
<polygon fill="lightgray" stroke="lightgray" points="838.066,-364.925 846.402,-358.386 835.807,-358.3 838.066,-364.925"/>
<text text-anchor="middle" x="698.5" y="-417.8" font-family="Times New Roman,serif" font-size="14.00" fill="lightgray">wff ph</text>
</g>
<!-- n11225 -->
<g id="node29" class="node"><title>n11225</title>
<ellipse fill="none" stroke="lightgray" cx="533" cy="-348" rx="27" ry="18"/>
<text text-anchor="middle" x="533" y="-344.3" font-family="Times New Roman,serif" font-size="14.00" fill="lightgray">wps</text>
</g>
<!-- n11224&#45;&gt;n11225 -->
<g id="edge57" class="edge"><title>n11224&#45;&gt;n11225</title>
</g>
<!-- n11238&#45;&gt;n11239 -->
<g id="edge56" class="edge"><title>n11238&#45;&gt;n11239</title>
<path fill="none" stroke="black" d="M893.114,-363.27C941.089,-405.857 1077.8,-530.785 1171.39,-652 1185.16,-669.823 1198.23,-691.678 1207.57,-708.488"/>
<polygon fill="black" stroke="black" points="1204.75,-710.634 1212.62,-717.733 1210.9,-707.279 1204.75,-710.634"/>
<text text-anchor="middle" x="1050.89" y="-655.8" font-family="Times New Roman,serif" font-size="14.00">|&#45; ( ( ph / ( ps / ch ) ) &#45;&gt; ( ( ph / ps ) / ch ) )</text>
</g>
<!-- n11225&#45;&gt;n11238 -->
<g id="edge39" class="edge"><title>n11225&#45;&gt;n11238</title>
<path fill="none" stroke="lightgray" d="M560.091,-348C618.138,-348 758.467,-348 830.078,-348"/>
<polygon fill="lightgray" stroke="lightgray" points="830.127,-351.5 840.127,-348 830.127,-344.5 830.127,-351.5"/>
<text text-anchor="middle" x="698.5" y="-351.8" font-family="Times New Roman,serif" font-size="14.00" fill="lightgray">wff ps</text>
</g>
<!-- n11226 -->
<g id="node30" class="node"><title>n11226</title>
<ellipse fill="none" stroke="lightgray" cx="533" cy="-276" rx="27" ry="18"/>
<text text-anchor="middle" x="533" y="-272.3" font-family="Times New Roman,serif" font-size="14.00" fill="lightgray">wch</text>
</g>
<!-- n11225&#45;&gt;n11226 -->
<g id="edge58" class="edge"><title>n11225&#45;&gt;n11226</title>
</g>
<!-- n11226&#45;&gt;n11238 -->
<g id="edge40" class="edge"><title>n11226&#45;&gt;n11238</title>
<path fill="none" stroke="lightgray" d="M559.835,-279.473C610.209,-286.537 724.867,-304.05 819,-329 824.789,-330.534 830.846,-332.384 836.733,-334.318"/>
<polygon fill="lightgray" stroke="lightgray" points="835.807,-337.7 846.402,-337.614 838.066,-331.075 835.807,-337.7"/>
<text text-anchor="middle" x="698.5" y="-332.8" font-family="Times New Roman,serif" font-size="14.00" fill="lightgray">wff ch</text>
</g>
<!-- n11231 -->
<g id="node32" class="node"><title>n11231</title>
<ellipse fill="none" stroke="lightgray" cx="533" cy="-204" rx="27" ry="18"/>
<text text-anchor="middle" x="533" y="-200.3" font-family="Times New Roman,serif" font-size="14.00" fill="lightgray">wa</text>
</g>
<!-- n11226&#45;&gt;n11231 -->
<g id="edge59" class="edge"><title>n11226&#45;&gt;n11231</title>
</g>
<!-- n11227 -->
<g id="node31" class="node"><title>n11227</title>
<ellipse fill="none" stroke="lightgray" cx="323" cy="-272" rx="27" ry="18"/>
<text text-anchor="middle" x="323" y="-268.3" font-family="Times New Roman,serif" font-size="14.00" fill="lightgray">wch</text>
</g>
<!-- n11227&#45;&gt;n11231 -->
<g id="edge41" class="edge"><title>n11227&#45;&gt;n11231</title>
<path fill="none" stroke="lightgray" d="M348.466,-265.655C380.774,-257.057 439.271,-240.731 488,-223 492.249,-221.454 496.677,-219.708 501.016,-217.917"/>
<polygon fill="lightgray" stroke="lightgray" points="502.437,-221.116 510.27,-213.983 499.698,-214.674 502.437,-221.116"/>
<text text-anchor="middle" x="428" y="-264.8" font-family="Times New Roman,serif" font-size="14.00" fill="lightgray">wff ch</text>
</g>
<!-- n11230 -->
<g id="node34" class="node"><title>n11230</title>
<ellipse fill="none" stroke="lightgray" cx="323" cy="-200" rx="27" ry="18"/>
<text text-anchor="middle" x="323" y="-196.3" font-family="Times New Roman,serif" font-size="14.00" fill="lightgray">wa</text>
</g>
<!-- n11227&#45;&gt;n11230 -->
<g id="edge47" class="edge"><title>n11227&#45;&gt;n11230</title>
</g>
<!-- n11231&#45;&gt;n11238 -->
<g id="edge46" class="edge"><title>n11231&#45;&gt;n11238</title>
<path fill="none" stroke="lightgray" d="M560.154,-203.114C613.611,-202.577 737.236,-207.996 819,-264 839.296,-277.901 853.855,-302.063 862.824,-320.915"/>
<polygon fill="lightgray" stroke="lightgray" points="859.71,-322.524 867.006,-330.207 866.094,-319.651 859.71,-322.524"/>
<text text-anchor="middle" x="698.5" y="-267.8" font-family="Times New Roman,serif" font-size="14.00" fill="lightgray">wff ( ( ph / ps ) / ch )</text>
</g>
<!-- n11237 -->
<g id="node41" class="node"><title>n11237</title>
<ellipse fill="cyan" stroke="black" cx="533" cy="-132" rx="27" ry="18"/>
<text text-anchor="middle" x="533" y="-128.3" font-family="Times New Roman,serif" font-size="14.00">id</text>
</g>
<!-- n11231&#45;&gt;n11237 -->
<g id="edge60" class="edge"><title>n11231&#45;&gt;n11237</title>
</g>
<!-- n11228 -->
<g id="node33" class="node"><title>n11228</title>
<ellipse fill="none" stroke="lightgray" cx="154" cy="-261" rx="27" ry="18"/>
<text text-anchor="middle" x="154" y="-257.3" font-family="Times New Roman,serif" font-size="14.00" fill="lightgray">wps</text>
</g>
<!-- n11228&#45;&gt;n11230 -->
<g id="edge42" class="edge"><title>n11228&#45;&gt;n11230</title>
<path fill="none" stroke="lightgray" d="M178.186,-252.901C202.961,-244.202 243.352,-229.888 278,-217 281.778,-215.595 285.729,-214.101 289.648,-212.606"/>
<polygon fill="lightgray" stroke="lightgray" points="291.126,-215.788 299.205,-208.933 288.615,-209.254 291.126,-215.788"/>
<text text-anchor="middle" x="238.5" y="-248.8" font-family="Times New Roman,serif" font-size="14.00" fill="lightgray">wff ps</text>
</g>
<!-- n11229 -->
<g id="node35" class="node"><title>n11229</title>
<ellipse fill="none" stroke="lightgray" cx="154" cy="-189" rx="27" ry="18"/>
<text text-anchor="middle" x="154" y="-185.3" font-family="Times New Roman,serif" font-size="14.00" fill="lightgray">wph</text>
</g>
<!-- n11228&#45;&gt;n11229 -->
<g id="edge45" class="edge"><title>n11228&#45;&gt;n11229</title>
</g>
<!-- n11230&#45;&gt;n11231 -->
<g id="edge44" class="edge"><title>n11230&#45;&gt;n11231</title>
<path fill="none" stroke="lightgray" d="M350.343,-200.507C387.149,-201.214 454.103,-202.502 495.638,-203.301"/>
<polygon fill="lightgray" stroke="lightgray" points="495.805,-206.804 505.871,-203.498 495.94,-199.806 495.805,-206.804"/>
<text text-anchor="middle" x="428" y="-207.8" font-family="Times New Roman,serif" font-size="14.00" fill="lightgray">wff ( ph / ps )</text>
</g>
<!-- n11229&#45;&gt;n11230 -->
<g id="edge43" class="edge"><title>n11229&#45;&gt;n11230</title>
<path fill="none" stroke="lightgray" d="M181.094,-190.719C209.281,-192.575 254.384,-195.546 285.948,-197.625"/>
<polygon fill="lightgray" stroke="lightgray" points="285.881,-201.128 296.089,-198.293 286.341,-194.144 285.881,-201.128"/>
<text text-anchor="middle" x="238.5" y="-201.8" font-family="Times New Roman,serif" font-size="14.00" fill="lightgray">wff ph</text>
</g>
<!-- n11232 -->
<g id="node36" class="node"><title>n11232</title>
<ellipse fill="none" stroke="lightgray" cx="154" cy="-134" rx="27" ry="18"/>
<text text-anchor="middle" x="154" y="-130.3" font-family="Times New Roman,serif" font-size="14.00" fill="lightgray">wch</text>
</g>
<!-- n11236 -->
<g id="node37" class="node"><title>n11236</title>
<ellipse fill="none" stroke="lightgray" cx="323" cy="-132" rx="27" ry="18"/>
<text text-anchor="middle" x="323" y="-128.3" font-family="Times New Roman,serif" font-size="14.00" fill="lightgray">wa</text>
</g>
<!-- n11232&#45;&gt;n11236 -->
<g id="edge48" class="edge"><title>n11232&#45;&gt;n11236</title>
<path fill="none" stroke="lightgray" d="M181.094,-133.688C209.199,-133.351 254.121,-132.813 285.671,-132.435"/>
<polygon fill="lightgray" stroke="lightgray" points="285.857,-135.933 295.814,-132.314 285.773,-128.934 285.857,-135.933"/>
<text text-anchor="middle" x="238.5" y="-137.8" font-family="Times New Roman,serif" font-size="14.00" fill="lightgray">wff ch</text>
</g>
<!-- n11235 -->
<g id="node39" class="node"><title>n11235</title>
<ellipse fill="none" stroke="lightgray" cx="154" cy="-62" rx="27" ry="18"/>
<text text-anchor="middle" x="154" y="-58.3" font-family="Times New Roman,serif" font-size="14.00" fill="lightgray">wa</text>
</g>
<!-- n11232&#45;&gt;n11235 -->
<g id="edge54" class="edge"><title>n11232&#45;&gt;n11235</title>
</g>
<!-- n11236&#45;&gt;n11237 -->
<g id="edge53" class="edge"><title>n11236&#45;&gt;n11237</title>
<path fill="none" stroke="lightgray" d="M350.343,-132C387.149,-132 454.103,-132 495.638,-132"/>
<polygon fill="lightgray" stroke="lightgray" points="495.871,-135.5 505.871,-132 495.871,-128.5 495.871,-135.5"/>
<text text-anchor="middle" x="428" y="-135.8" font-family="Times New Roman,serif" font-size="14.00" fill="lightgray">wff ( ( ph / ps ) / ch )</text>
</g>
<!-- n11233 -->
<g id="node38" class="node"><title>n11233</title>
<ellipse fill="none" stroke="lightgray" cx="27" cy="-90" rx="27" ry="18"/>
<text text-anchor="middle" x="27" y="-86.3" font-family="Times New Roman,serif" font-size="14.00" fill="lightgray">wps</text>
</g>
<!-- n11233&#45;&gt;n11235 -->
<g id="edge49" class="edge"><title>n11233&#45;&gt;n11235</title>
<path fill="none" stroke="lightgray" d="M52.696,-84.4681C71.3212,-80.2961 97.1209,-74.5169 117.89,-69.8646"/>
<polygon fill="lightgray" stroke="lightgray" points="118.934,-73.2175 127.927,-67.6162 117.404,-66.3868 118.934,-73.2175"/>
<text text-anchor="middle" x="90.5" y="-84.8" font-family="Times New Roman,serif" font-size="14.00" fill="lightgray">wff ps</text>
</g>
<!-- n11234 -->
<g id="node40" class="node"><title>n11234</title>
<ellipse fill="none" stroke="lightgray" cx="27" cy="-18" rx="27" ry="18"/>
<text text-anchor="middle" x="27" y="-14.3" font-family="Times New Roman,serif" font-size="14.00" fill="lightgray">wph</text>
</g>
<!-- n11233&#45;&gt;n11234 -->
<g id="edge52" class="edge"><title>n11233&#45;&gt;n11234</title>
</g>
<!-- n11235&#45;&gt;n11236 -->
<g id="edge51" class="edge"><title>n11235&#45;&gt;n11236</title>
<path fill="none" stroke="lightgray" d="M177.176,-71.2955C206.248,-83.4811 257.422,-104.931 290.503,-118.798"/>
<polygon fill="lightgray" stroke="lightgray" points="289.156,-122.028 299.732,-122.666 291.862,-115.572 289.156,-122.028"/>
<text text-anchor="middle" x="238.5" y="-117.8" font-family="Times New Roman,serif" font-size="14.00" fill="lightgray">wff ( ph / ps )</text>
</g>
<!-- n11234&#45;&gt;n11235 -->
<g id="edge50" class="edge"><title>n11234&#45;&gt;n11235</title>
<path fill="none" stroke="lightgray" d="M51.2186,-26.1729C70.6886,-33.0264 98.7117,-42.8905 120.426,-50.534"/>
<polygon fill="lightgray" stroke="lightgray" points="119.311,-53.8519 129.906,-53.8708 121.635,-47.249 119.311,-53.8519"/>
<text text-anchor="middle" x="90.5" y="-50.8" font-family="Times New Roman,serif" font-size="14.00" fill="lightgray">wff ph</text>
</g>
<!-- n11237&#45;&gt;n11238 -->
<g id="edge55" class="edge"><title>n11237&#45;&gt;n11238</title>
<path fill="none" stroke="black" d="M559.676,-128.863C614.43,-123.676 743.786,-119.635 819,-185 858.474,-219.305 869.536,-283.002 872.587,-319.792"/>
<polygon fill="black" stroke="black" points="869.1,-320.108 873.276,-329.846 876.084,-319.63 869.1,-320.108"/>
<text text-anchor="middle" x="698.5" y="-188.8" font-family="Times New Roman,serif" font-size="14.00">|&#45; ( ( ( ph / ps ) / ch ) &#45;&gt; ( ( ph / ps ) / ch ) )</text>
</g>
</g>
</svg>
