<?xml version="1.0" encoding="UTF-8" standalone="no"?>
<!DOCTYPE svg PUBLIC "-//W3C//DTD SVG 1.1//EN"
 "http://www.w3.org/Graphics/SVG/1.1/DTD/svg11.dtd">
<!-- Generated by graphviz version 2.38.0 (20140413.2041)
 -->
<!-- Title: proof_anbi2 Pages: 1 -->
<svg width="1052pt" height="399pt"
 viewBox="0.00 0.00 1051.69 399.00" xmlns="http://www.w3.org/2000/svg" xmlns:xlink="http://www.w3.org/1999/xlink">
<g id="graph0" class="graph" transform="scale(1 1) rotate(0) translate(4 395)">
<title>proof_anbi2</title>
<polygon fill="white" stroke="none" points="-4,4 -4,-395 1047.69,-395 1047.69,4 -4,4"/>
<!-- n12021 -->
<g id="node1" class="node"><title>n12021</title>
<ellipse fill="none" stroke="lightgray" cx="154" cy="-373" rx="27" ry="18"/>
<text text-anchor="middle" x="154" y="-369.3" font-family="Times New Roman,serif" font-size="14.00" fill="lightgray">wph</text>
</g>
<!-- n12023 -->
<g id="node2" class="node"><title>n12023</title>
<ellipse fill="none" stroke="lightgray" cx="340" cy="-333" rx="27" ry="18"/>
<text text-anchor="middle" x="340" y="-329.3" font-family="Times New Roman,serif" font-size="14.00" fill="lightgray">wb</text>
</g>
<!-- n12021&#45;&gt;n12023 -->
<g id="edge1" class="edge"><title>n12021&#45;&gt;n12023</title>
<path fill="none" stroke="lightgray" d="M179.815,-367.605C211.778,-360.657 267.529,-348.537 303.845,-340.642"/>
<polygon fill="lightgray" stroke="lightgray" points="304.962,-343.981 313.99,-338.437 303.475,-337.141 304.962,-343.981"/>
<text text-anchor="middle" x="247" y="-367.8" font-family="Times New Roman,serif" font-size="14.00" fill="lightgray">wff ph</text>
</g>
<!-- n12022 -->
<g id="node3" class="node"><title>n12022</title>
<ellipse fill="none" stroke="lightgray" cx="154" cy="-301" rx="27" ry="18"/>
<text text-anchor="middle" x="154" y="-297.3" font-family="Times New Roman,serif" font-size="14.00" fill="lightgray">wps</text>
</g>
<!-- n12021&#45;&gt;n12022 -->
<g id="edge4" class="edge"><title>n12021&#45;&gt;n12022</title>
</g>
<!-- n12031 -->
<g id="node4" class="node"><title>n12031</title>
<ellipse fill="cyan" stroke="black" cx="631.097" cy="-189" rx="35.194" ry="18"/>
<text text-anchor="middle" x="631.097" y="-185.3" font-family="Times New Roman,serif" font-size="14.00">anbi2d</text>
</g>
<!-- n12023&#45;&gt;n12031 -->
<g id="edge3" class="edge"><title>n12023&#45;&gt;n12031</title>
<path fill="none" stroke="lightgray" d="M367.14,-332.425C413.844,-330.161 512.824,-319.63 578,-272 597.212,-257.96 610.981,-234.487 619.521,-216.079"/>
<polygon fill="lightgray" stroke="lightgray" points="622.811,-217.292 623.62,-206.728 616.399,-214.482 622.811,-217.292"/>
<text text-anchor="middle" x="481.5" y="-334.8" font-family="Times New Roman,serif" font-size="14.00" fill="lightgray">wff ( ph &lt;&#45;&gt; ps )</text>
</g>
<!-- n12024 -->
<g id="node5" class="node"><title>n12024</title>
<ellipse fill="none" stroke="lightgray" cx="340" cy="-261" rx="27" ry="18"/>
<text text-anchor="middle" x="340" y="-257.3" font-family="Times New Roman,serif" font-size="14.00" fill="lightgray">wph</text>
</g>
<!-- n12023&#45;&gt;n12024 -->
<g id="edge14" class="edge"><title>n12023&#45;&gt;n12024</title>
</g>
<!-- n12022&#45;&gt;n12023 -->
<g id="edge2" class="edge"><title>n12022&#45;&gt;n12023</title>
<path fill="none" stroke="lightgray" d="M181.044,-302.936C209.341,-305.366 255.762,-310.309 295,-319 298.659,-319.81 302.449,-320.792 306.2,-321.854"/>
<polygon fill="lightgray" stroke="lightgray" points="305.337,-325.25 315.922,-324.796 307.364,-318.55 305.337,-325.25"/>
<text text-anchor="middle" x="247" y="-322.8" font-family="Times New Roman,serif" font-size="14.00" fill="lightgray">wff ps</text>
</g>
<!-- QED -->
<g id="node12" class="node"><title>QED</title>
</g>
<!-- n12031&#45;&gt;QED -->
<g id="edge13" class="edge"><title>n12031&#45;&gt;QED</title>
<path fill="none" stroke="black" d="M666.274,-189C737.192,-189 899.937,-189 974.652,-189"/>
<polygon fill="black" stroke="black" points="975.015,-192.5 985.015,-189 975.015,-185.5 975.015,-192.5"/>
<text text-anchor="middle" x="825.694" y="-192.8" font-family="Times New Roman,serif" font-size="14.00">|&#45; ( ( ph &lt;&#45;&gt; ps ) &#45;&gt; ( ( ch /\ ph ) &lt;&#45;&gt; ( ch /\ ps ) ) )</text>
</g>
<!-- n12024&#45;&gt;n12031 -->
<g id="edge5" class="edge"><title>n12024&#45;&gt;n12031</title>
<path fill="none" stroke="lightgray" d="M366.18,-256.483C409.772,-248.417 501.93,-230.275 578,-208 582.955,-206.549 588.119,-204.872 593.189,-203.128"/>
<polygon fill="lightgray" stroke="lightgray" points="594.491,-206.38 602.74,-199.732 592.146,-199.785 594.491,-206.38"/>
<text text-anchor="middle" x="481.5" y="-256.8" font-family="Times New Roman,serif" font-size="14.00" fill="lightgray">wff ph</text>
</g>
<!-- n12025 -->
<g id="node6" class="node"><title>n12025</title>
<ellipse fill="none" stroke="lightgray" cx="340" cy="-189" rx="27" ry="18"/>
<text text-anchor="middle" x="340" y="-185.3" font-family="Times New Roman,serif" font-size="14.00" fill="lightgray">wps</text>
</g>
<!-- n12024&#45;&gt;n12025 -->
<g id="edge15" class="edge"><title>n12024&#45;&gt;n12025</title>
</g>
<!-- n12025&#45;&gt;n12031 -->
<g id="edge6" class="edge"><title>n12025&#45;&gt;n12031</title>
<path fill="none" stroke="lightgray" d="M367.165,-189C416.7,-189 524.666,-189 585.721,-189"/>
<polygon fill="lightgray" stroke="lightgray" points="585.826,-192.5 595.826,-189 585.826,-185.5 585.826,-192.5"/>
<text text-anchor="middle" x="481.5" y="-192.8" font-family="Times New Roman,serif" font-size="14.00" fill="lightgray">wff ps</text>
</g>
<!-- n12026 -->
<g id="node7" class="node"><title>n12026</title>
<ellipse fill="none" stroke="lightgray" cx="340" cy="-117" rx="27" ry="18"/>
<text text-anchor="middle" x="340" y="-113.3" font-family="Times New Roman,serif" font-size="14.00" fill="lightgray">wch</text>
</g>
<!-- n12025&#45;&gt;n12026 -->
<g id="edge16" class="edge"><title>n12025&#45;&gt;n12026</title>
</g>
<!-- n12026&#45;&gt;n12031 -->
<g id="edge7" class="edge"><title>n12026&#45;&gt;n12031</title>
<path fill="none" stroke="lightgray" d="M366.18,-121.517C409.772,-129.583 501.93,-147.725 578,-170 582.955,-171.451 588.119,-173.128 593.189,-174.872"/>
<polygon fill="lightgray" stroke="lightgray" points="592.146,-178.215 602.74,-178.268 594.491,-171.62 592.146,-178.215"/>
<text text-anchor="middle" x="481.5" y="-173.8" font-family="Times New Roman,serif" font-size="14.00" fill="lightgray">wff ch</text>
</g>
<!-- n12030 -->
<g id="node11" class="node"><title>n12030</title>
<ellipse fill="cyan" stroke="black" cx="340" cy="-45" rx="27" ry="18"/>
<text text-anchor="middle" x="340" y="-41.3" font-family="Times New Roman,serif" font-size="14.00">id</text>
</g>
<!-- n12026&#45;&gt;n12030 -->
<g id="edge17" class="edge"><title>n12026&#45;&gt;n12030</title>
</g>
<!-- n12027 -->
<g id="node8" class="node"><title>n12027</title>
<ellipse fill="none" stroke="lightgray" cx="27" cy="-90" rx="27" ry="18"/>
<text text-anchor="middle" x="27" y="-86.3" font-family="Times New Roman,serif" font-size="14.00" fill="lightgray">wps</text>
</g>
<!-- n12029 -->
<g id="node9" class="node"><title>n12029</title>
<ellipse fill="none" stroke="lightgray" cx="154" cy="-45" rx="27" ry="18"/>
<text text-anchor="middle" x="154" y="-41.3" font-family="Times New Roman,serif" font-size="14.00" fill="lightgray">wb</text>
</g>
<!-- n12027&#45;&gt;n12029 -->
<g id="edge8" class="edge"><title>n12027&#45;&gt;n12029</title>
<path fill="none" stroke="lightgray" d="M51.2186,-81.6413C70.6886,-74.6321 98.7117,-64.5438 120.426,-56.7266"/>
<polygon fill="lightgray" stroke="lightgray" points="121.682,-59.9943 129.906,-53.3139 119.311,-53.4081 121.682,-59.9943"/>
<text text-anchor="middle" x="90.5" y="-78.8" font-family="Times New Roman,serif" font-size="14.00" fill="lightgray">wff ps</text>
</g>
<!-- n12028 -->
<g id="node10" class="node"><title>n12028</title>
<ellipse fill="none" stroke="lightgray" cx="27" cy="-18" rx="27" ry="18"/>
<text text-anchor="middle" x="27" y="-14.3" font-family="Times New Roman,serif" font-size="14.00" fill="lightgray">wph</text>
</g>
<!-- n12027&#45;&gt;n12028 -->
<g id="edge11" class="edge"><title>n12027&#45;&gt;n12028</title>
</g>
<!-- n12029&#45;&gt;n12030 -->
<g id="edge10" class="edge"><title>n12029&#45;&gt;n12030</title>
<path fill="none" stroke="lightgray" d="M181.363,-45C213.289,-45 267.22,-45 302.967,-45"/>
<polygon fill="lightgray" stroke="lightgray" points="302.983,-48.5001 312.983,-45 302.983,-41.5001 302.983,-48.5001"/>
<text text-anchor="middle" x="247" y="-48.8" font-family="Times New Roman,serif" font-size="14.00" fill="lightgray">wff ( ph &lt;&#45;&gt; ps )</text>
</g>
<!-- n12028&#45;&gt;n12029 -->
<g id="edge9" class="edge"><title>n12028&#45;&gt;n12029</title>
<path fill="none" stroke="lightgray" d="M52.9952,-23.399C71.6456,-27.4275 97.3666,-32.9832 118.053,-37.4514"/>
<polygon fill="lightgray" stroke="lightgray" points="117.535,-40.9201 128.048,-39.6104 119.013,-34.0779 117.535,-40.9201"/>
<text text-anchor="middle" x="90.5" y="-39.8" font-family="Times New Roman,serif" font-size="14.00" fill="lightgray">wff ph</text>
</g>
<!-- n12030&#45;&gt;n12031 -->
<g id="edge12" class="edge"><title>n12030&#45;&gt;n12031</title>
<path fill="none" stroke="black" d="M367.119,-45.7406C413.791,-48.2888 512.721,-59.3705 578,-107 596.854,-120.756 610.547,-143.599 619.149,-161.686"/>
<polygon fill="black" stroke="black" points="616.114,-163.471 623.406,-171.158 622.499,-160.602 616.114,-163.471"/>
<text text-anchor="middle" x="481.5" y="-110.8" font-family="Times New Roman,serif" font-size="14.00">|&#45; ( ( ph &lt;&#45;&gt; ps ) &#45;&gt; ( ph &lt;&#45;&gt; ps ) )</text>
</g>
</g>
</svg>
