<?xml version="1.0" encoding="UTF-8" standalone="no"?>
<!DOCTYPE svg PUBLIC "-//W3C//DTD SVG 1.1//EN"
 "http://www.w3.org/Graphics/SVG/1.1/DTD/svg11.dtd">
<!-- Generated by graphviz version 2.38.0 (20140413.2041)
 -->
<!-- Title: proof_anbi2d Pages: 1 -->
<svg width="1033pt" height="439pt"
 viewBox="0.00 0.00 1032.78 439.00" xmlns="http://www.w3.org/2000/svg" xmlns:xlink="http://www.w3.org/1999/xlink">
<g id="graph0" class="graph" transform="scale(1 1) rotate(0) translate(4 435)">
<title>proof_anbi2d</title>
<polygon fill="white" stroke="none" points="-4,4 -4,-435 1028.78,-435 1028.78,4 -4,4"/>
<!-- n11975 -->
<g id="node1" class="node"><title>n11975</title>
<ellipse fill="none" stroke="lightgray" cx="382.495" cy="-413" rx="27" ry="18"/>
<text text-anchor="middle" x="382.495" y="-409.3" font-family="Times New Roman,serif" font-size="14.00" fill="lightgray">wph</text>
</g>
<!-- n11986 -->
<g id="node2" class="node"><title>n11986</title>
<ellipse fill="cyan" stroke="black" cx="669.391" cy="-269" rx="42.7926" ry="18"/>
<text text-anchor="middle" x="669.391" y="-265.3" font-family="Times New Roman,serif" font-size="14.00">pm5.32d</text>
</g>
<!-- n11975&#45;&gt;n11986 -->
<g id="edge1" class="edge"><title>n11975&#45;&gt;n11986</title>
<path fill="none" stroke="lightgray" d="M409.396,-411.188C453.794,-406.971 545.706,-393.283 608.495,-350 628.605,-336.137 644.599,-313.293 654.983,-295.393"/>
<polygon fill="lightgray" stroke="lightgray" points="658.095,-296.998 659.894,-286.557 651.977,-293.598 658.095,-296.998"/>
<text text-anchor="middle" x="517.995" y="-412.8" font-family="Times New Roman,serif" font-size="14.00" fill="lightgray">wff ph</text>
</g>
<!-- n11976 -->
<g id="node3" class="node"><title>n11976</title>
<ellipse fill="none" stroke="lightgray" cx="382.495" cy="-341" rx="27" ry="18"/>
<text text-anchor="middle" x="382.495" y="-337.3" font-family="Times New Roman,serif" font-size="14.00" fill="lightgray">wth</text>
</g>
<!-- n11975&#45;&gt;n11976 -->
<g id="edge17" class="edge"><title>n11975&#45;&gt;n11976</title>
</g>
<!-- QED -->
<g id="node13" class="node"><title>QED</title>
</g>
<!-- n11986&#45;&gt;QED -->
<g id="edge16" class="edge"><title>n11986&#45;&gt;QED</title>
<path fill="none" stroke="black" d="M712.435,-269C775.75,-269 894.667,-269 955.909,-269"/>
<polygon fill="black" stroke="black" points="955.937,-272.5 965.937,-269 955.937,-265.5 955.937,-272.5"/>
<text text-anchor="middle" x="839.287" y="-272.8" font-family="Times New Roman,serif" font-size="14.00">|&#45; ( ph &#45;&gt; ( ( th /\ ps ) &lt;&#45;&gt; ( th /\ ch ) ) )</text>
</g>
<!-- n11976&#45;&gt;n11986 -->
<g id="edge2" class="edge"><title>n11976&#45;&gt;n11986</title>
<path fill="none" stroke="lightgray" d="M408.623,-335.733C450.368,-326.837 536.54,-307.857 608.495,-288 614.086,-286.457 619.939,-284.735 625.704,-282.976"/>
<polygon fill="lightgray" stroke="lightgray" points="626.75,-286.316 635.259,-280.003 624.671,-279.632 626.75,-286.316"/>
<text text-anchor="middle" x="517.995" y="-334.8" font-family="Times New Roman,serif" font-size="14.00" fill="lightgray">wff th</text>
</g>
<!-- n11977 -->
<g id="node4" class="node"><title>n11977</title>
<ellipse fill="none" stroke="lightgray" cx="382.495" cy="-269" rx="27" ry="18"/>
<text text-anchor="middle" x="382.495" y="-265.3" font-family="Times New Roman,serif" font-size="14.00" fill="lightgray">wps</text>
</g>
<!-- n11976&#45;&gt;n11977 -->
<g id="edge18" class="edge"><title>n11976&#45;&gt;n11977</title>
</g>
<!-- n11977&#45;&gt;n11986 -->
<g id="edge3" class="edge"><title>n11977&#45;&gt;n11986</title>
<path fill="none" stroke="lightgray" d="M409.533,-269C456.214,-269 554.97,-269 616.105,-269"/>
<polygon fill="lightgray" stroke="lightgray" points="616.32,-272.5 626.32,-269 616.32,-265.5 616.32,-272.5"/>
<text text-anchor="middle" x="517.995" y="-272.8" font-family="Times New Roman,serif" font-size="14.00" fill="lightgray">wff ps</text>
</g>
<!-- n11978 -->
<g id="node5" class="node"><title>n11978</title>
<ellipse fill="none" stroke="lightgray" cx="382.495" cy="-197" rx="27" ry="18"/>
<text text-anchor="middle" x="382.495" y="-193.3" font-family="Times New Roman,serif" font-size="14.00" fill="lightgray">wch</text>
</g>
<!-- n11977&#45;&gt;n11978 -->
<g id="edge19" class="edge"><title>n11977&#45;&gt;n11978</title>
</g>
<!-- n11978&#45;&gt;n11986 -->
<g id="edge4" class="edge"><title>n11978&#45;&gt;n11986</title>
<path fill="none" stroke="lightgray" d="M408.623,-202.267C450.368,-211.163 536.54,-230.143 608.495,-250 614.086,-251.543 619.939,-253.265 625.704,-255.024"/>
<polygon fill="lightgray" stroke="lightgray" points="624.671,-258.368 635.259,-257.997 626.75,-251.684 624.671,-258.368"/>
<text text-anchor="middle" x="517.995" y="-253.8" font-family="Times New Roman,serif" font-size="14.00" fill="lightgray">wff ch</text>
</g>
<!-- n11985 -->
<g id="node7" class="node"><title>n11985</title>
<ellipse fill="cyan" stroke="black" cx="382.495" cy="-125" rx="27" ry="18"/>
<text text-anchor="middle" x="382.495" y="-121.3" font-family="Times New Roman,serif" font-size="14.00">a1d</text>
</g>
<!-- n11978&#45;&gt;n11985 -->
<g id="edge20" class="edge"><title>n11978&#45;&gt;n11985</title>
</g>
<!-- n11979 -->
<g id="node6" class="node"><title>n11979</title>
<ellipse fill="none" stroke="lightgray" cx="156.247" cy="-234" rx="27" ry="18"/>
<text text-anchor="middle" x="156.247" y="-230.3" font-family="Times New Roman,serif" font-size="14.00" fill="lightgray">wph</text>
</g>
<!-- n11979&#45;&gt;n11985 -->
<g id="edge5" class="edge"><title>n11979&#45;&gt;n11985</title>
<path fill="none" stroke="lightgray" d="M182.651,-229.823C219.286,-222.895 287.983,-206.455 337.495,-174 347.598,-167.378 356.856,-157.875 364.246,-148.998"/>
<polygon fill="lightgray" stroke="lightgray" points="367.018,-151.135 370.479,-141.122 361.529,-146.792 367.018,-151.135"/>
<text text-anchor="middle" x="270.495" y="-228.8" font-family="Times New Roman,serif" font-size="14.00" fill="lightgray">wff ph</text>
</g>
<!-- n11982 -->
<g id="node9" class="node"><title>n11982</title>
<ellipse fill="none" stroke="lightgray" cx="156.247" cy="-162" rx="27" ry="18"/>
<text text-anchor="middle" x="156.247" y="-158.3" font-family="Times New Roman,serif" font-size="14.00" fill="lightgray">wb</text>
</g>
<!-- n11979&#45;&gt;n11982 -->
<g id="edge13" class="edge"><title>n11979&#45;&gt;n11982</title>
</g>
<!-- n11985&#45;&gt;n11986 -->
<g id="edge12" class="edge"><title>n11985&#45;&gt;n11986</title>
<path fill="none" stroke="black" d="M409.396,-126.812C453.794,-131.029 545.706,-144.717 608.495,-188 628.605,-201.863 644.599,-224.707 654.983,-242.607"/>
<polygon fill="black" stroke="black" points="651.977,-244.402 659.894,-251.443 658.095,-241.002 651.977,-244.402"/>
<text text-anchor="middle" x="517.995" y="-191.8" font-family="Times New Roman,serif" font-size="14.00">|&#45; ( ph &#45;&gt; ( th &#45;&gt; ( ps &lt;&#45;&gt; ch ) ) )</text>
</g>
<!-- n11980 -->
<g id="node8" class="node"><title>n11980</title>
<ellipse fill="none" stroke="lightgray" cx="27" cy="-207" rx="27" ry="18"/>
<text text-anchor="middle" x="27" y="-203.3" font-family="Times New Roman,serif" font-size="14.00" fill="lightgray">wps</text>
</g>
<!-- n11980&#45;&gt;n11982 -->
<g id="edge6" class="edge"><title>n11980&#45;&gt;n11982</title>
<path fill="none" stroke="lightgray" d="M51.3391,-198.746C71.2494,-191.705 100.101,-181.502 122.353,-173.633"/>
<polygon fill="lightgray" stroke="lightgray" points="123.795,-176.835 132.056,-170.201 121.461,-170.236 123.795,-176.835"/>
<text text-anchor="middle" x="90.5" y="-195.8" font-family="Times New Roman,serif" font-size="14.00" fill="lightgray">wff ps</text>
</g>
<!-- n11981 -->
<g id="node10" class="node"><title>n11981</title>
<ellipse fill="none" stroke="lightgray" cx="27" cy="-135" rx="27" ry="18"/>
<text text-anchor="middle" x="27" y="-131.3" font-family="Times New Roman,serif" font-size="14.00" fill="lightgray">wch</text>
</g>
<!-- n11980&#45;&gt;n11981 -->
<g id="edge9" class="edge"><title>n11980&#45;&gt;n11981</title>
</g>
<!-- n11982&#45;&gt;n11985 -->
<g id="edge8" class="edge"><title>n11982&#45;&gt;n11985</title>
<path fill="none" stroke="lightgray" d="M182.536,-157.828C222.492,-151.235 300.355,-138.388 345.927,-130.869"/>
<polygon fill="lightgray" stroke="lightgray" points="346.658,-134.295 355.955,-129.214 345.519,-127.389 346.658,-134.295"/>
<text text-anchor="middle" x="270.495" y="-158.8" font-family="Times New Roman,serif" font-size="14.00" fill="lightgray">wff ( ps &lt;&#45;&gt; ch )</text>
</g>
<!-- n11983 -->
<g id="node11" class="node"><title>n11983</title>
<ellipse fill="none" stroke="lightgray" cx="156.247" cy="-90" rx="27" ry="18"/>
<text text-anchor="middle" x="156.247" y="-86.3" font-family="Times New Roman,serif" font-size="14.00" fill="lightgray">wth</text>
</g>
<!-- n11982&#45;&gt;n11983 -->
<g id="edge14" class="edge"><title>n11982&#45;&gt;n11983</title>
</g>
<!-- n11981&#45;&gt;n11982 -->
<g id="edge7" class="edge"><title>n11981&#45;&gt;n11982</title>
<path fill="none" stroke="lightgray" d="M52.8367,-140.27C71.9807,-144.332 98.7008,-150.002 120.048,-154.531"/>
<polygon fill="lightgray" stroke="lightgray" points="119.53,-157.999 130.039,-156.651 120.983,-151.152 119.53,-157.999"/>
<text text-anchor="middle" x="90.5" y="-155.8" font-family="Times New Roman,serif" font-size="14.00" fill="lightgray">wff ch</text>
</g>
<!-- n11983&#45;&gt;n11985 -->
<g id="edge10" class="edge"><title>n11983&#45;&gt;n11985</title>
<path fill="none" stroke="lightgray" d="M182.992,-93.2319C218.037,-97.741 282.675,-106.448 337.495,-116 340.375,-116.502 343.356,-117.05 346.346,-117.62"/>
<polygon fill="lightgray" stroke="lightgray" points="345.925,-121.104 356.413,-119.606 347.28,-114.236 345.925,-121.104"/>
<text text-anchor="middle" x="270.495" y="-119.8" font-family="Times New Roman,serif" font-size="14.00" fill="lightgray">wff th</text>
</g>
<!-- n11984 -->
<g id="node12" class="node"><title>n11984</title>
<ellipse fill="orange" stroke="black" cx="156.247" cy="-18" rx="29.4969" ry="18"/>
<text text-anchor="middle" x="156.247" y="-14.3" font-family="Times New Roman,serif" font-size="14.00">bid.1</text>
</g>
<!-- n11983&#45;&gt;n11984 -->
<g id="edge15" class="edge"><title>n11983&#45;&gt;n11984</title>
</g>
<!-- n11984&#45;&gt;n11985 -->
<g id="edge11" class="edge"><title>n11984&#45;&gt;n11985</title>
<path fill="none" stroke="black" d="M184.734,-22.7413C221.753,-30.0679 288.62,-46.6836 337.495,-78 346.953,-84.0604 355.766,-92.6059 362.983,-100.751"/>
<polygon fill="black" stroke="black" points="360.517,-103.257 369.633,-108.657 365.874,-98.751 360.517,-103.257"/>
<text text-anchor="middle" x="270.495" y="-81.8" font-family="Times New Roman,serif" font-size="14.00">|&#45; ( ph &#45;&gt; ( ps &lt;&#45;&gt; ch ) )</text>
</g>
</g>
</svg>
