<?xml version="1.0" encoding="UTF-8" standalone="no"?>
<!DOCTYPE svg PUBLIC "-//W3C//DTD SVG 1.1//EN"
 "http://www.w3.org/Graphics/SVG/1.1/DTD/svg11.dtd">
<!-- Generated by graphviz version 2.38.0 (20140413.2041)
 -->
<!-- Title: proof_anc2l Pages: 1 -->
<svg width="1443pt" height="440pt"
 viewBox="0.00 0.00 1443.48 440.00" xmlns="http://www.w3.org/2000/svg" xmlns:xlink="http://www.w3.org/1999/xlink">
<g id="graph0" class="graph" transform="scale(1 1) rotate(0) translate(4 436)">
<title>proof_anc2l</title>
<polygon fill="white" stroke="none" points="-4,4 -4,-436 1439.48,-436 1439.48,4 -4,4"/>
<!-- n9457 -->
<g id="node1" class="node"><title>n9457</title>
<ellipse fill="none" stroke="lightgray" cx="323" cy="-414" rx="27" ry="18"/>
<text text-anchor="middle" x="323" y="-410.3" font-family="Times New Roman,serif" font-size="14.00" fill="lightgray">wph</text>
</g>
<!-- n9461 -->
<g id="node2" class="node"><title>n9461</title>
<ellipse fill="none" stroke="lightgray" cx="553.347" cy="-322" rx="27" ry="18"/>
<text text-anchor="middle" x="553.347" y="-318.3" font-family="Times New Roman,serif" font-size="14.00" fill="lightgray">wi</text>
</g>
<!-- n9457&#45;&gt;n9461 -->
<g id="edge1" class="edge"><title>n9457&#45;&gt;n9461</title>
<path fill="none" stroke="lightgray" d="M348.506,-407.968C382.702,-399.099 446.242,-380.963 497,-357 506.792,-352.377 516.96,-346.349 525.868,-340.601"/>
<polygon fill="lightgray" stroke="lightgray" points="527.898,-343.455 534.295,-335.01 524.027,-337.622 527.898,-343.455"/>
<text text-anchor="middle" x="432.5" y="-404.8" font-family="Times New Roman,serif" font-size="14.00" fill="lightgray">wff ph</text>
</g>
<!-- n9460 -->
<g id="node4" class="node"><title>n9460</title>
<ellipse fill="none" stroke="lightgray" cx="323" cy="-342" rx="27" ry="18"/>
<text text-anchor="middle" x="323" y="-338.3" font-family="Times New Roman,serif" font-size="14.00" fill="lightgray">wi</text>
</g>
<!-- n9457&#45;&gt;n9460 -->
<g id="edge7" class="edge"><title>n9457&#45;&gt;n9460</title>
</g>
<!-- n9473 -->
<g id="node6" class="node"><title>n9473</title>
<ellipse fill="cyan" stroke="black" cx="988.84" cy="-238" rx="33.2948" ry="18"/>
<text text-anchor="middle" x="988.84" y="-234.3" font-family="Times New Roman,serif" font-size="14.00">biimpi</text>
</g>
<!-- n9461&#45;&gt;n9473 -->
<g id="edge6" class="edge"><title>n9461&#45;&gt;n9473</title>
<path fill="none" stroke="lightgray" d="M580.292,-319.362C642.693,-312.638 805.773,-292.81 937.693,-257 942.621,-255.662 947.739,-254.026 952.739,-252.28"/>
<polygon fill="lightgray" stroke="lightgray" points="953.945,-255.566 962.129,-248.837 951.536,-248.993 953.945,-255.566"/>
<text text-anchor="middle" x="773.693" y="-319.8" font-family="Times New Roman,serif" font-size="14.00" fill="lightgray">wff ( ph &#45;&gt; ( ps &#45;&gt; ch ) )</text>
</g>
<!-- n9468 -->
<g id="node8" class="node"><title>n9468</title>
<ellipse fill="none" stroke="lightgray" cx="553.347" cy="-238" rx="27" ry="18"/>
<text text-anchor="middle" x="553.347" y="-234.3" font-family="Times New Roman,serif" font-size="14.00" fill="lightgray">wi</text>
</g>
<!-- n9461&#45;&gt;n9468 -->
<g id="edge25" class="edge"><title>n9461&#45;&gt;n9468</title>
</g>
<!-- n9458 -->
<g id="node3" class="node"><title>n9458</title>
<ellipse fill="none" stroke="lightgray" cx="154" cy="-385" rx="27" ry="18"/>
<text text-anchor="middle" x="154" y="-381.3" font-family="Times New Roman,serif" font-size="14.00" fill="lightgray">wps</text>
</g>
<!-- n9458&#45;&gt;n9460 -->
<g id="edge2" class="edge"><title>n9458&#45;&gt;n9460</title>
<path fill="none" stroke="lightgray" d="M179.54,-378.964C204.392,-372.815 243.918,-362.941 278,-354 281.217,-353.156 284.562,-352.266 287.908,-351.368"/>
<polygon fill="lightgray" stroke="lightgray" points="289.077,-354.677 297.815,-348.686 287.248,-347.92 289.077,-354.677"/>
<text text-anchor="middle" x="238.5" y="-376.8" font-family="Times New Roman,serif" font-size="14.00" fill="lightgray">wff ps</text>
</g>
<!-- n9459 -->
<g id="node5" class="node"><title>n9459</title>
<ellipse fill="none" stroke="lightgray" cx="154" cy="-313" rx="27" ry="18"/>
<text text-anchor="middle" x="154" y="-309.3" font-family="Times New Roman,serif" font-size="14.00" fill="lightgray">wch</text>
</g>
<!-- n9458&#45;&gt;n9459 -->
<g id="edge5" class="edge"><title>n9458&#45;&gt;n9459</title>
</g>
<!-- n9460&#45;&gt;n9461 -->
<g id="edge4" class="edge"><title>n9460&#45;&gt;n9461</title>
<path fill="none" stroke="lightgray" d="M350.194,-339.706C391.058,-336.127 470.075,-329.206 516.289,-325.158"/>
<polygon fill="lightgray" stroke="lightgray" points="516.801,-328.627 526.458,-324.267 516.191,-321.653 516.801,-328.627"/>
<text text-anchor="middle" x="432.5" y="-341.8" font-family="Times New Roman,serif" font-size="14.00" fill="lightgray">wff ( ps &#45;&gt; ch )</text>
</g>
<!-- n9459&#45;&gt;n9460 -->
<g id="edge3" class="edge"><title>n9459&#45;&gt;n9460</title>
<path fill="none" stroke="lightgray" d="M180.364,-317.404C208.646,-322.316 254.594,-330.295 286.453,-335.827"/>
<polygon fill="lightgray" stroke="lightgray" points="286.22,-339.339 296.672,-337.602 287.418,-332.442 286.22,-339.339"/>
<text text-anchor="middle" x="238.5" y="-338.8" font-family="Times New Roman,serif" font-size="14.00" fill="lightgray">wff ch</text>
</g>
<!-- QED -->
<g id="node18" class="node"><title>QED</title>
</g>
<!-- n9473&#45;&gt;QED -->
<g id="edge24" class="edge"><title>n9473&#45;&gt;QED</title>
<path fill="none" stroke="black" d="M1022.09,-238C1097.53,-238 1285.24,-238 1366.6,-238"/>
<polygon fill="black" stroke="black" points="1366.9,-241.5 1376.9,-238 1366.9,-234.5 1366.9,-241.5"/>
<text text-anchor="middle" x="1199.49" y="-241.8" font-family="Times New Roman,serif" font-size="14.00">|&#45; ( ( ph &#45;&gt; ( ps &#45;&gt; ch ) ) &#45;&gt; ( ph &#45;&gt; ( ps &#45;&gt; ( ph / ch ) ) ) )</text>
</g>
<!-- n9462 -->
<g id="node7" class="node"><title>n9462</title>
<ellipse fill="none" stroke="lightgray" cx="323" cy="-288" rx="27" ry="18"/>
<text text-anchor="middle" x="323" y="-284.3" font-family="Times New Roman,serif" font-size="14.00" fill="lightgray">wph</text>
</g>
<!-- n9462&#45;&gt;n9468 -->
<g id="edge8" class="edge"><title>n9462&#45;&gt;n9468</title>
<path fill="none" stroke="lightgray" d="M349.286,-283.089C383.051,-276.451 444.684,-264.054 497,-252 503.814,-250.43 511.075,-248.662 518.02,-246.925"/>
<polygon fill="lightgray" stroke="lightgray" points="519.045,-250.276 527.88,-244.428 517.326,-243.49 519.045,-250.276"/>
<text text-anchor="middle" x="432.5" y="-282.8" font-family="Times New Roman,serif" font-size="14.00" fill="lightgray">wff ph</text>
</g>
<!-- n9467 -->
<g id="node10" class="node"><title>n9467</title>
<ellipse fill="none" stroke="lightgray" cx="323" cy="-216" rx="27" ry="18"/>
<text text-anchor="middle" x="323" y="-212.3" font-family="Times New Roman,serif" font-size="14.00" fill="lightgray">wi</text>
</g>
<!-- n9462&#45;&gt;n9467 -->
<g id="edge17" class="edge"><title>n9462&#45;&gt;n9467</title>
</g>
<!-- n9468&#45;&gt;n9473 -->
<g id="edge16" class="edge"><title>n9468&#45;&gt;n9473</title>
<path fill="none" stroke="lightgray" d="M580.487,-238C652.87,-238 856.423,-238 945.362,-238"/>
<polygon fill="lightgray" stroke="lightgray" points="945.623,-241.5 955.623,-238 945.623,-234.5 945.623,-241.5"/>
<text text-anchor="middle" x="773.693" y="-241.8" font-family="Times New Roman,serif" font-size="14.00" fill="lightgray">wff ( ph &#45;&gt; ( ps &#45;&gt; ( ph / ch ) ) )</text>
</g>
<!-- n9472 -->
<g id="node15" class="node"><title>n9472</title>
<ellipse fill="cyan" stroke="black" cx="553.347" cy="-162" rx="38.1938" ry="18"/>
<text text-anchor="middle" x="553.347" y="-158.3" font-family="Times New Roman,serif" font-size="14.00">pm5.42</text>
</g>
<!-- n9468&#45;&gt;n9472 -->
<g id="edge26" class="edge"><title>n9468&#45;&gt;n9472</title>
</g>
<!-- n9463 -->
<g id="node9" class="node"><title>n9463</title>
<ellipse fill="none" stroke="lightgray" cx="154" cy="-255" rx="27" ry="18"/>
<text text-anchor="middle" x="154" y="-251.3" font-family="Times New Roman,serif" font-size="14.00" fill="lightgray">wps</text>
</g>
<!-- n9463&#45;&gt;n9467 -->
<g id="edge9" class="edge"><title>n9463&#45;&gt;n9467</title>
<path fill="none" stroke="lightgray" d="M179.641,-249.245C208.132,-242.592 255.224,-231.594 287.383,-224.084"/>
<polygon fill="lightgray" stroke="lightgray" points="288.315,-227.461 297.257,-221.778 286.724,-220.644 288.315,-227.461"/>
<text text-anchor="middle" x="238.5" y="-248.8" font-family="Times New Roman,serif" font-size="14.00" fill="lightgray">wff ps</text>
</g>
<!-- n9466 -->
<g id="node12" class="node"><title>n9466</title>
<ellipse fill="none" stroke="lightgray" cx="154" cy="-183" rx="27" ry="18"/>
<text text-anchor="middle" x="154" y="-179.3" font-family="Times New Roman,serif" font-size="14.00" fill="lightgray">wa</text>
</g>
<!-- n9463&#45;&gt;n9466 -->
<g id="edge15" class="edge"><title>n9463&#45;&gt;n9466</title>
</g>
<!-- n9467&#45;&gt;n9468 -->
<g id="edge14" class="edge"><title>n9467&#45;&gt;n9468</title>
<path fill="none" stroke="lightgray" d="M349.75,-218.481C390.437,-222.401 469.724,-230.04 516.128,-234.511"/>
<polygon fill="lightgray" stroke="lightgray" points="516.05,-238.019 526.34,-235.494 516.722,-231.051 516.05,-238.019"/>
<text text-anchor="middle" x="432.5" y="-236.8" font-family="Times New Roman,serif" font-size="14.00" fill="lightgray">wff ( ps &#45;&gt; ( ph / ch ) )</text>
</g>
<!-- n9464 -->
<g id="node11" class="node"><title>n9464</title>
<ellipse fill="none" stroke="lightgray" cx="27" cy="-228" rx="27" ry="18"/>
<text text-anchor="middle" x="27" y="-224.3" font-family="Times New Roman,serif" font-size="14.00" fill="lightgray">wph</text>
</g>
<!-- n9464&#45;&gt;n9466 -->
<g id="edge10" class="edge"><title>n9464&#45;&gt;n9466</title>
<path fill="none" stroke="lightgray" d="M51.2186,-219.641C70.6886,-212.632 98.7117,-202.544 120.426,-194.727"/>
<polygon fill="lightgray" stroke="lightgray" points="121.682,-197.994 129.906,-191.314 119.311,-191.408 121.682,-197.994"/>
<text text-anchor="middle" x="90.5" y="-216.8" font-family="Times New Roman,serif" font-size="14.00" fill="lightgray">wff ph</text>
</g>
<!-- n9465 -->
<g id="node13" class="node"><title>n9465</title>
<ellipse fill="none" stroke="lightgray" cx="27" cy="-156" rx="27" ry="18"/>
<text text-anchor="middle" x="27" y="-152.3" font-family="Times New Roman,serif" font-size="14.00" fill="lightgray">wch</text>
</g>
<!-- n9464&#45;&gt;n9465 -->
<g id="edge13" class="edge"><title>n9464&#45;&gt;n9465</title>
</g>
<!-- n9466&#45;&gt;n9467 -->
<g id="edge12" class="edge"><title>n9466&#45;&gt;n9467</title>
<path fill="none" stroke="lightgray" d="M180.002,-187.94C208.41,-193.554 254.973,-202.755 286.986,-209.081"/>
<polygon fill="lightgray" stroke="lightgray" points="286.339,-212.521 296.827,-211.026 287.696,-205.654 286.339,-212.521"/>
<text text-anchor="middle" x="238.5" y="-211.8" font-family="Times New Roman,serif" font-size="14.00" fill="lightgray">wff ( ph / ch )</text>
</g>
<!-- n9465&#45;&gt;n9466 -->
<g id="edge11" class="edge"><title>n9465&#45;&gt;n9466</title>
<path fill="none" stroke="lightgray" d="M52.9952,-161.399C71.6456,-165.427 97.3666,-170.983 118.053,-175.451"/>
<polygon fill="lightgray" stroke="lightgray" points="117.535,-178.92 128.048,-177.61 119.013,-172.078 117.535,-178.92"/>
<text text-anchor="middle" x="90.5" y="-177.8" font-family="Times New Roman,serif" font-size="14.00" fill="lightgray">wff ch</text>
</g>
<!-- n9469 -->
<g id="node14" class="node"><title>n9469</title>
<ellipse fill="none" stroke="lightgray" cx="323" cy="-162" rx="27" ry="18"/>
<text text-anchor="middle" x="323" y="-158.3" font-family="Times New Roman,serif" font-size="14.00" fill="lightgray">wph</text>
</g>
<!-- n9469&#45;&gt;n9472 -->
<g id="edge18" class="edge"><title>n9469&#45;&gt;n9472</title>
<path fill="none" stroke="lightgray" d="M350.194,-162C387.768,-162 457.598,-162 504.525,-162"/>
<polygon fill="lightgray" stroke="lightgray" points="504.756,-165.5 514.756,-162 504.756,-158.5 504.756,-165.5"/>
<text text-anchor="middle" x="432.5" y="-165.8" font-family="Times New Roman,serif" font-size="14.00" fill="lightgray">wff ph</text>
</g>
<!-- n9470 -->
<g id="node16" class="node"><title>n9470</title>
<ellipse fill="none" stroke="lightgray" cx="323" cy="-90" rx="27" ry="18"/>
<text text-anchor="middle" x="323" y="-86.3" font-family="Times New Roman,serif" font-size="14.00" fill="lightgray">wps</text>
</g>
<!-- n9469&#45;&gt;n9470 -->
<g id="edge22" class="edge"><title>n9469&#45;&gt;n9470</title>
</g>
<!-- n9472&#45;&gt;n9473 -->
<g id="edge21" class="edge"><title>n9472&#45;&gt;n9473</title>
<path fill="none" stroke="black" d="M591.343,-164.845C660.352,-170.733 813.006,-186.512 937.693,-219 942.634,-220.287 947.76,-221.895 952.764,-223.627"/>
<polygon fill="black" stroke="black" points="951.563,-226.915 962.157,-227.059 953.965,-220.34 951.563,-226.915"/>
<text text-anchor="middle" x="773.693" y="-222.8" font-family="Times New Roman,serif" font-size="14.00">|&#45; ( ( ph &#45;&gt; ( ps &#45;&gt; ch ) ) &lt;&#45;&gt; ( ph &#45;&gt; ( ps &#45;&gt; ( ph / ch ) ) ) )</text>
</g>
<!-- n9470&#45;&gt;n9472 -->
<g id="edge19" class="edge"><title>n9470&#45;&gt;n9472</title>
<path fill="none" stroke="lightgray" d="M347.865,-97.0366C381.308,-106.959 443.969,-125.779 497,-143 502.005,-144.625 507.25,-146.371 512.434,-148.121"/>
<polygon fill="lightgray" stroke="lightgray" points="511.652,-151.552 522.247,-151.463 513.909,-144.926 511.652,-151.552"/>
<text text-anchor="middle" x="432.5" y="-146.8" font-family="Times New Roman,serif" font-size="14.00" fill="lightgray">wff ps</text>
</g>
<!-- n9471 -->
<g id="node17" class="node"><title>n9471</title>
<ellipse fill="none" stroke="lightgray" cx="323" cy="-18" rx="27" ry="18"/>
<text text-anchor="middle" x="323" y="-14.3" font-family="Times New Roman,serif" font-size="14.00" fill="lightgray">wch</text>
</g>
<!-- n9470&#45;&gt;n9471 -->
<g id="edge23" class="edge"><title>n9470&#45;&gt;n9471</title>
</g>
<!-- n9471&#45;&gt;n9472 -->
<g id="edge20" class="edge"><title>n9471&#45;&gt;n9472</title>
<path fill="none" stroke="lightgray" d="M349.163,-22.9624C384.989,-31.0193 451.403,-49.7187 497,-85 514.415,-98.475 528.74,-118.888 538.451,-135.311"/>
<polygon fill="lightgray" stroke="lightgray" points="535.647,-137.463 543.623,-144.437 541.737,-134.012 535.647,-137.463"/>
<text text-anchor="middle" x="432.5" y="-88.8" font-family="Times New Roman,serif" font-size="14.00" fill="lightgray">wff ch</text>
</g>
</g>
</svg>
