<?xml version="1.0" encoding="UTF-8" standalone="no"?>
<!DOCTYPE svg PUBLIC "-//W3C//DTD SVG 1.1//EN"
 "http://www.w3.org/Graphics/SVG/1.1/DTD/svg11.dtd">
<!-- Generated by graphviz version 2.38.0 (20140413.2041)
 -->
<!-- Title: proof_ancl Pages: 1 -->
<svg width="774pt" height="325pt"
 viewBox="0.00 0.00 774.09 325.00" xmlns="http://www.w3.org/2000/svg" xmlns:xlink="http://www.w3.org/1999/xlink">
<g id="graph0" class="graph" transform="scale(1 1) rotate(0) translate(4 321)">
<title>proof_ancl</title>
<polygon fill="white" stroke="none" points="-4,4 -4,-321 770.089,-321 770.089,4 -4,4"/>
<!-- n9369 -->
<g id="node1" class="node"><title>n9369</title>
<ellipse fill="none" stroke="lightgray" cx="160.797" cy="-299" rx="27" ry="18"/>
<text text-anchor="middle" x="160.797" y="-295.3" font-family="Times New Roman,serif" font-size="14.00" fill="lightgray">wph</text>
</g>
<!-- n9377 -->
<g id="node2" class="node"><title>n9377</title>
<ellipse fill="cyan" stroke="black" cx="425.594" cy="-190" rx="27" ry="18"/>
<text text-anchor="middle" x="425.594" y="-186.3" font-family="Times New Roman,serif" font-size="14.00">a2i</text>
</g>
<!-- n9369&#45;&gt;n9377 -->
<g id="edge1" class="edge"><title>n9369&#45;&gt;n9377</title>
<path fill="none" stroke="lightgray" d="M187.559,-296.458C230.435,-291.26 317.909,-276.464 380.594,-238 390.524,-231.907 399.591,-222.94 406.879,-214.401"/>
<polygon fill="lightgray" stroke="lightgray" points="409.736,-216.433 413.292,-206.453 404.288,-212.037 409.736,-216.433"/>
<text text-anchor="middle" x="296.594" y="-295.8" font-family="Times New Roman,serif" font-size="14.00" fill="lightgray">wff ph</text>
</g>
<!-- n9370 -->
<g id="node3" class="node"><title>n9370</title>
<ellipse fill="none" stroke="lightgray" cx="160.797" cy="-227" rx="27" ry="18"/>
<text text-anchor="middle" x="160.797" y="-223.3" font-family="Times New Roman,serif" font-size="14.00" fill="lightgray">wps</text>
</g>
<!-- n9369&#45;&gt;n9370 -->
<g id="edge12" class="edge"><title>n9369&#45;&gt;n9370</title>
</g>
<!-- QED -->
<g id="node10" class="node"><title>QED</title>
</g>
<!-- n9377&#45;&gt;QED -->
<g id="edge11" class="edge"><title>n9377&#45;&gt;QED</title>
<path fill="none" stroke="black" d="M452.694,-190C507.179,-190 633.249,-190 697.177,-190"/>
<polygon fill="black" stroke="black" points="697.252,-193.5 707.252,-190 697.252,-186.5 697.252,-193.5"/>
<text text-anchor="middle" x="580.094" y="-193.8" font-family="Times New Roman,serif" font-size="14.00">|&#45; ( ( ph &#45;&gt; ps ) &#45;&gt; ( ph &#45;&gt; ( ph / ps ) ) )</text>
</g>
<!-- n9370&#45;&gt;n9377 -->
<g id="edge2" class="edge"><title>n9370&#45;&gt;n9377</title>
<path fill="none" stroke="lightgray" d="M187.474,-223.385C234.574,-216.753 334.879,-202.631 388.699,-195.054"/>
<polygon fill="lightgray" stroke="lightgray" points="389.399,-198.49 398.813,-193.63 388.423,-191.558 389.399,-198.49"/>
<text text-anchor="middle" x="296.594" y="-222.8" font-family="Times New Roman,serif" font-size="14.00" fill="lightgray">wff ps</text>
</g>
<!-- n9373 -->
<g id="node5" class="node"><title>n9373</title>
<ellipse fill="none" stroke="lightgray" cx="160.797" cy="-155" rx="27" ry="18"/>
<text text-anchor="middle" x="160.797" y="-151.3" font-family="Times New Roman,serif" font-size="14.00" fill="lightgray">wa</text>
</g>
<!-- n9370&#45;&gt;n9373 -->
<g id="edge13" class="edge"><title>n9370&#45;&gt;n9373</title>
</g>
<!-- n9371 -->
<g id="node4" class="node"><title>n9371</title>
<ellipse fill="none" stroke="lightgray" cx="27" cy="-218" rx="27" ry="18"/>
<text text-anchor="middle" x="27" y="-214.3" font-family="Times New Roman,serif" font-size="14.00" fill="lightgray">wph</text>
</g>
<!-- n9371&#45;&gt;n9373 -->
<g id="edge3" class="edge"><title>n9371&#45;&gt;n9373</title>
<path fill="none" stroke="lightgray" d="M49.4688,-207.738C71.1052,-197.395 104.702,-181.336 129.139,-169.655"/>
<polygon fill="lightgray" stroke="lightgray" points="130.825,-172.728 138.337,-165.258 127.806,-166.413 130.825,-172.728"/>
<text text-anchor="middle" x="90.5" y="-198.8" font-family="Times New Roman,serif" font-size="14.00" fill="lightgray">wff ph</text>
</g>
<!-- n9372 -->
<g id="node6" class="node"><title>n9372</title>
<ellipse fill="none" stroke="lightgray" cx="27" cy="-146" rx="27" ry="18"/>
<text text-anchor="middle" x="27" y="-142.3" font-family="Times New Roman,serif" font-size="14.00" fill="lightgray">wps</text>
</g>
<!-- n9371&#45;&gt;n9372 -->
<g id="edge6" class="edge"><title>n9371&#45;&gt;n9372</title>
</g>
<!-- n9373&#45;&gt;n9377 -->
<g id="edge5" class="edge"><title>n9373&#45;&gt;n9377</title>
<path fill="none" stroke="lightgray" d="M187.829,-157.384C228.926,-161.306 311.297,-169.815 380.594,-181 383.481,-181.466 386.466,-181.988 389.458,-182.541"/>
<polygon fill="lightgray" stroke="lightgray" points="389.047,-186.026 399.531,-184.497 390.381,-179.155 389.047,-186.026"/>
<text text-anchor="middle" x="296.594" y="-184.8" font-family="Times New Roman,serif" font-size="14.00" fill="lightgray">wff ( ph / ps )</text>
</g>
<!-- n9376 -->
<g id="node8" class="node"><title>n9376</title>
<ellipse fill="cyan" stroke="black" cx="160.797" cy="-83" rx="33.5952" ry="18"/>
<text text-anchor="middle" x="160.797" y="-79.3" font-family="Times New Roman,serif" font-size="14.00">pm3.2</text>
</g>
<!-- n9373&#45;&gt;n9376 -->
<g id="edge14" class="edge"><title>n9373&#45;&gt;n9376</title>
</g>
<!-- n9372&#45;&gt;n9373 -->
<g id="edge4" class="edge"><title>n9372&#45;&gt;n9373</title>
<path fill="none" stroke="lightgray" d="M54.0388,-147.778C73.9857,-149.14 101.737,-151.035 123.807,-152.542"/>
<polygon fill="lightgray" stroke="lightgray" points="123.597,-156.036 133.812,-153.226 124.074,-149.052 123.597,-156.036"/>
<text text-anchor="middle" x="90.5" y="-154.8" font-family="Times New Roman,serif" font-size="14.00" fill="lightgray">wff ps</text>
</g>
<!-- n9374 -->
<g id="node7" class="node"><title>n9374</title>
<ellipse fill="none" stroke="lightgray" cx="27" cy="-90" rx="27" ry="18"/>
<text text-anchor="middle" x="27" y="-86.3" font-family="Times New Roman,serif" font-size="14.00" fill="lightgray">wph</text>
</g>
<!-- n9374&#45;&gt;n9376 -->
<g id="edge7" class="edge"><title>n9374&#45;&gt;n9376</title>
<path fill="none" stroke="lightgray" d="M54.0388,-88.617C71.8799,-87.6695 95.9645,-86.3903 116.643,-85.292"/>
<polygon fill="lightgray" stroke="lightgray" points="116.986,-88.7788 126.786,-84.7533 116.615,-81.7887 116.986,-88.7788"/>
<text text-anchor="middle" x="90.5" y="-91.8" font-family="Times New Roman,serif" font-size="14.00" fill="lightgray">wff ph</text>
</g>
<!-- n9375 -->
<g id="node9" class="node"><title>n9375</title>
<ellipse fill="none" stroke="lightgray" cx="27" cy="-18" rx="27" ry="18"/>
<text text-anchor="middle" x="27" y="-14.3" font-family="Times New Roman,serif" font-size="14.00" fill="lightgray">wps</text>
</g>
<!-- n9374&#45;&gt;n9375 -->
<g id="edge10" class="edge"><title>n9374&#45;&gt;n9375</title>
</g>
<!-- n9376&#45;&gt;n9377 -->
<g id="edge9" class="edge"><title>n9376&#45;&gt;n9377</title>
<path fill="none" stroke="black" d="M194.495,-85.7894C239.381,-90.8671 321.263,-104.696 380.594,-141 390.898,-147.305 400.192,-156.752 407.554,-165.674"/>
<polygon fill="black" stroke="black" points="404.836,-167.88 413.745,-173.614 410.356,-163.576 404.836,-167.88"/>
<text text-anchor="middle" x="296.594" y="-144.8" font-family="Times New Roman,serif" font-size="14.00">|&#45; ( ph &#45;&gt; ( ps &#45;&gt; ( ph / ps ) ) )</text>
</g>
<!-- n9375&#45;&gt;n9376 -->
<g id="edge8" class="edge"><title>n9375&#45;&gt;n9376</title>
<path fill="none" stroke="lightgray" d="M49.1755,-28.4434C69.9887,-38.7081 102.072,-54.5308 126.337,-66.4979"/>
<polygon fill="lightgray" stroke="lightgray" points="125.025,-69.7536 135.542,-71.0378 128.121,-63.4756 125.025,-69.7536"/>
<text text-anchor="middle" x="90.5" y="-60.8" font-family="Times New Roman,serif" font-size="14.00" fill="lightgray">wff ps</text>
</g>
</g>
</svg>
