<?xml version="1.0" encoding="UTF-8" standalone="no"?>
<!DOCTYPE svg PUBLIC "-//W3C//DTD SVG 1.1//EN"
 "http://www.w3.org/Graphics/SVG/1.1/DTD/svg11.dtd">
<!-- Generated by graphviz version 2.38.0 (20140413.2041)
 -->
<!-- Title: proof_ancom Pages: 1 -->
<svg width="749pt" height="494pt"
 viewBox="0.00 0.00 749.48 494.00" xmlns="http://www.w3.org/2000/svg" xmlns:xlink="http://www.w3.org/1999/xlink">
<g id="graph0" class="graph" transform="scale(1 1) rotate(0) translate(4 490)">
<title>proof_ancom</title>
<polygon fill="white" stroke="none" points="-4,4 -4,-490 745.482,-490 745.482,4 -4,4"/>
<!-- n8013 -->
<g id="node1" class="node"><title>n8013</title>
<ellipse fill="none" stroke="lightgray" cx="27" cy="-468" rx="27" ry="18"/>
<text text-anchor="middle" x="27" y="-464.3" font-family="Times New Roman,serif" font-size="14.00" fill="lightgray">wph</text>
</g>
<!-- n8015 -->
<g id="node2" class="node"><title>n8015</title>
<ellipse fill="none" stroke="lightgray" cx="165.347" cy="-365" rx="27" ry="18"/>
<text text-anchor="middle" x="165.347" y="-361.3" font-family="Times New Roman,serif" font-size="14.00" fill="lightgray">wa</text>
</g>
<!-- n8013&#45;&gt;n8015 -->
<g id="edge1" class="edge"><title>n8013&#45;&gt;n8015</title>
<path fill="none" stroke="lightgray" d="M45.5458,-454.745C69.1694,-436.899 111.374,-405.017 138.598,-384.451"/>
<polygon fill="lightgray" stroke="lightgray" points="140.999,-387.024 146.868,-378.204 136.779,-381.439 140.999,-387.024"/>
<text text-anchor="middle" x="90.5" y="-437.8" font-family="Times New Roman,serif" font-size="14.00" fill="lightgray">wff ph</text>
</g>
<!-- n8014 -->
<g id="node3" class="node"><title>n8014</title>
<ellipse fill="none" stroke="lightgray" cx="27" cy="-396" rx="27" ry="18"/>
<text text-anchor="middle" x="27" y="-392.3" font-family="Times New Roman,serif" font-size="14.00" fill="lightgray">wps</text>
</g>
<!-- n8013&#45;&gt;n8014 -->
<g id="edge4" class="edge"><title>n8013&#45;&gt;n8014</title>
</g>
<!-- n8025 -->
<g id="node4" class="node"><title>n8025</title>
<ellipse fill="cyan" stroke="black" cx="438.84" cy="-239" rx="33.2948" ry="18"/>
<text text-anchor="middle" x="438.84" y="-235.3" font-family="Times New Roman,serif" font-size="14.00">impbii</text>
</g>
<!-- n8015&#45;&gt;n8025 -->
<g id="edge3" class="edge"><title>n8015&#45;&gt;n8025</title>
<path fill="none" stroke="lightgray" d="M191.477,-360.036C234.241,-350.795 322.828,-328.154 387.693,-288 398.58,-281.261 408.986,-271.787 417.469,-262.964"/>
<polygon fill="lightgray" stroke="lightgray" points="420.182,-265.185 424.393,-255.462 415.038,-260.437 420.182,-265.185"/>
<text text-anchor="middle" x="304.693" y="-356.8" font-family="Times New Roman,serif" font-size="14.00" fill="lightgray">wff ( ph /\ ps )</text>
</g>
<!-- n8018 -->
<g id="node6" class="node"><title>n8018</title>
<ellipse fill="none" stroke="lightgray" cx="165.347" cy="-276" rx="27" ry="18"/>
<text text-anchor="middle" x="165.347" y="-272.3" font-family="Times New Roman,serif" font-size="14.00" fill="lightgray">wa</text>
</g>
<!-- n8015&#45;&gt;n8018 -->
<g id="edge18" class="edge"><title>n8015&#45;&gt;n8018</title>
</g>
<!-- n8014&#45;&gt;n8015 -->
<g id="edge2" class="edge"><title>n8014&#45;&gt;n8015</title>
<path fill="none" stroke="lightgray" d="M52.6913,-390.386C74.1788,-385.501 105.557,-378.366 129.582,-372.904"/>
<polygon fill="lightgray" stroke="lightgray" points="130.403,-376.307 139.378,-370.677 128.851,-369.481 130.403,-376.307"/>
<text text-anchor="middle" x="90.5" y="-389.8" font-family="Times New Roman,serif" font-size="14.00" fill="lightgray">wff ps</text>
</g>
<!-- QED -->
<g id="node14" class="node"><title>QED</title>
</g>
<!-- n8025&#45;&gt;QED -->
<g id="edge17" class="edge"><title>n8025&#45;&gt;QED</title>
<path fill="none" stroke="black" d="M472.039,-239C522.191,-239 618.782,-239 672.609,-239"/>
<polygon fill="black" stroke="black" points="672.778,-242.5 682.778,-239 672.778,-235.5 672.778,-242.5"/>
<text text-anchor="middle" x="577.487" y="-242.8" font-family="Times New Roman,serif" font-size="14.00">|&#45; ( ( ph /\ ps ) &lt;&#45;&gt; ( ps /\ ph ) )</text>
</g>
<!-- n8016 -->
<g id="node5" class="node"><title>n8016</title>
<ellipse fill="none" stroke="lightgray" cx="27" cy="-342" rx="27" ry="18"/>
<text text-anchor="middle" x="27" y="-338.3" font-family="Times New Roman,serif" font-size="14.00" fill="lightgray">wps</text>
</g>
<!-- n8016&#45;&gt;n8018 -->
<g id="edge5" class="edge"><title>n8016&#45;&gt;n8018</title>
<path fill="none" stroke="lightgray" d="M49.3042,-331.688C71.8846,-320.757 107.761,-303.391 133.446,-290.958"/>
<polygon fill="lightgray" stroke="lightgray" points="135.266,-293.965 142.742,-286.458 132.216,-287.665 135.266,-293.965"/>
<text text-anchor="middle" x="90.5" y="-324.8" font-family="Times New Roman,serif" font-size="14.00" fill="lightgray">wff ps</text>
</g>
<!-- n8017 -->
<g id="node7" class="node"><title>n8017</title>
<ellipse fill="none" stroke="lightgray" cx="27" cy="-270" rx="27" ry="18"/>
<text text-anchor="middle" x="27" y="-266.3" font-family="Times New Roman,serif" font-size="14.00" fill="lightgray">wph</text>
</g>
<!-- n8016&#45;&gt;n8017 -->
<g id="edge8" class="edge"><title>n8016&#45;&gt;n8017</title>
</g>
<!-- n8018&#45;&gt;n8025 -->
<g id="edge7" class="edge"><title>n8018&#45;&gt;n8025</title>
<path fill="none" stroke="lightgray" d="M191.888,-272.519C238.861,-266.118 339.348,-252.423 396.272,-244.665"/>
<polygon fill="lightgray" stroke="lightgray" points="396.935,-248.107 406.371,-243.289 395.99,-241.171 396.935,-248.107"/>
<text text-anchor="middle" x="304.693" y="-272.8" font-family="Times New Roman,serif" font-size="14.00" fill="lightgray">wff ( ps /\ ph )</text>
</g>
<!-- n8021 -->
<g id="node9" class="node"><title>n8021</title>
<ellipse fill="cyan" stroke="black" cx="165.347" cy="-204" rx="38.1938" ry="18"/>
<text text-anchor="middle" x="165.347" y="-200.3" font-family="Times New Roman,serif" font-size="14.00">pm3.22</text>
</g>
<!-- n8018&#45;&gt;n8021 -->
<g id="edge19" class="edge"><title>n8018&#45;&gt;n8021</title>
</g>
<!-- n8017&#45;&gt;n8018 -->
<g id="edge6" class="edge"><title>n8017&#45;&gt;n8018</title>
<path fill="none" stroke="lightgray" d="M53.9667,-271.143C74.8717,-272.063 104.506,-273.367 127.807,-274.392"/>
<polygon fill="lightgray" stroke="lightgray" points="127.868,-277.898 138.012,-274.841 128.176,-270.905 127.868,-277.898"/>
<text text-anchor="middle" x="90.5" y="-277.8" font-family="Times New Roman,serif" font-size="14.00" fill="lightgray">wff ph</text>
</g>
<!-- n8019 -->
<g id="node8" class="node"><title>n8019</title>
<ellipse fill="none" stroke="lightgray" cx="27" cy="-216" rx="27" ry="18"/>
<text text-anchor="middle" x="27" y="-212.3" font-family="Times New Roman,serif" font-size="14.00" fill="lightgray">wph</text>
</g>
<!-- n8019&#45;&gt;n8021 -->
<g id="edge9" class="edge"><title>n8019&#45;&gt;n8021</title>
<path fill="none" stroke="lightgray" d="M53.9667,-213.715C71.8282,-212.143 96.0624,-210.01 117.274,-208.143"/>
<polygon fill="lightgray" stroke="lightgray" points="117.748,-211.615 127.402,-207.252 117.134,-204.642 117.748,-211.615"/>
<text text-anchor="middle" x="90.5" y="-216.8" font-family="Times New Roman,serif" font-size="14.00" fill="lightgray">wff ph</text>
</g>
<!-- n8020 -->
<g id="node10" class="node"><title>n8020</title>
<ellipse fill="none" stroke="lightgray" cx="27" cy="-144" rx="27" ry="18"/>
<text text-anchor="middle" x="27" y="-140.3" font-family="Times New Roman,serif" font-size="14.00" fill="lightgray">wps</text>
</g>
<!-- n8019&#45;&gt;n8020 -->
<g id="edge12" class="edge"><title>n8019&#45;&gt;n8020</title>
</g>
<!-- n8021&#45;&gt;n8025 -->
<g id="edge11" class="edge"><title>n8021&#45;&gt;n8025</title>
<path fill="none" stroke="black" d="M203.252,-207.643C247.265,-212.148 323.011,-220.406 387.693,-230 390.887,-230.474 394.189,-230.995 397.504,-231.541"/>
<polygon fill="black" stroke="black" points="396.946,-234.997 407.392,-233.23 398.124,-228.097 396.946,-234.997"/>
<text text-anchor="middle" x="304.693" y="-233.8" font-family="Times New Roman,serif" font-size="14.00">|&#45; ( ( ph /\ ps ) &#45;&gt; ( ps /\ ph ) )</text>
</g>
<!-- n8024 -->
<g id="node12" class="node"><title>n8024</title>
<ellipse fill="cyan" stroke="black" cx="165.347" cy="-118" rx="38.1938" ry="18"/>
<text text-anchor="middle" x="165.347" y="-114.3" font-family="Times New Roman,serif" font-size="14.00">pm3.22</text>
</g>
<!-- n8021&#45;&gt;n8024 -->
<g id="edge20" class="edge"><title>n8021&#45;&gt;n8024</title>
</g>
<!-- n8020&#45;&gt;n8021 -->
<g id="edge10" class="edge"><title>n8020&#45;&gt;n8021</title>
<path fill="none" stroke="lightgray" d="M49.9064,-153.64C70.7736,-162.823 102.591,-176.824 127.384,-187.735"/>
<polygon fill="lightgray" stroke="lightgray" points="126.282,-191.073 136.845,-191.898 129.101,-184.666 126.282,-191.073"/>
<text text-anchor="middle" x="90.5" y="-183.8" font-family="Times New Roman,serif" font-size="14.00" fill="lightgray">wff ps</text>
</g>
<!-- n8022 -->
<g id="node11" class="node"><title>n8022</title>
<ellipse fill="none" stroke="lightgray" cx="27" cy="-90" rx="27" ry="18"/>
<text text-anchor="middle" x="27" y="-86.3" font-family="Times New Roman,serif" font-size="14.00" fill="lightgray">wps</text>
</g>
<!-- n8022&#45;&gt;n8024 -->
<g id="edge13" class="edge"><title>n8022&#45;&gt;n8024</title>
<path fill="none" stroke="lightgray" d="M53.0081,-95.1356C71.7419,-98.9828 97.8635,-104.347 120.097,-108.913"/>
<polygon fill="lightgray" stroke="lightgray" points="119.499,-112.363 129.998,-110.946 120.907,-105.506 119.499,-112.363"/>
<text text-anchor="middle" x="90.5" y="-110.8" font-family="Times New Roman,serif" font-size="14.00" fill="lightgray">wff ps</text>
</g>
<!-- n8023 -->
<g id="node13" class="node"><title>n8023</title>
<ellipse fill="none" stroke="lightgray" cx="27" cy="-18" rx="27" ry="18"/>
<text text-anchor="middle" x="27" y="-14.3" font-family="Times New Roman,serif" font-size="14.00" fill="lightgray">wph</text>
</g>
<!-- n8022&#45;&gt;n8023 -->
<g id="edge16" class="edge"><title>n8022&#45;&gt;n8023</title>
</g>
<!-- n8024&#45;&gt;n8025 -->
<g id="edge15" class="edge"><title>n8024&#45;&gt;n8025</title>
<path fill="none" stroke="black" d="M201.352,-124.51C246.774,-134.045 327.342,-154.738 387.693,-191 398.4,-197.433 408.656,-206.524 417.072,-215.067"/>
<polygon fill="black" stroke="black" points="414.547,-217.491 423.96,-222.353 419.634,-212.682 414.547,-217.491"/>
<text text-anchor="middle" x="304.693" y="-194.8" font-family="Times New Roman,serif" font-size="14.00">|&#45; ( ( ps /\ ph ) &#45;&gt; ( ph /\ ps ) )</text>
</g>
<!-- n8023&#45;&gt;n8024 -->
<g id="edge14" class="edge"><title>n8023&#45;&gt;n8024</title>
<path fill="none" stroke="lightgray" d="M45.8249,-31.0733C68.6222,-47.7933 108.391,-76.9608 135.52,-96.8579"/>
<polygon fill="lightgray" stroke="lightgray" points="133.713,-99.8729 143.847,-102.965 137.853,-94.2283 133.713,-99.8729"/>
<text text-anchor="middle" x="90.5" y="-80.8" font-family="Times New Roman,serif" font-size="14.00" fill="lightgray">wff ph</text>
</g>
</g>
</svg>
