<?xml version="1.0" encoding="UTF-8" standalone="no"?>
<!DOCTYPE svg PUBLIC "-//W3C//DTD SVG 1.1//EN"
 "http://www.w3.org/Graphics/SVG/1.1/DTD/svg11.dtd">
<!-- Generated by graphviz version 2.38.0 (20140413.2041)
 -->
<!-- Title: proof_ancomd Pages: 1 -->
<svg width="709pt" height="389pt"
 viewBox="0.00 0.00 708.98 389.00" xmlns="http://www.w3.org/2000/svg" xmlns:xlink="http://www.w3.org/1999/xlink">
<g id="graph0" class="graph" transform="scale(1 1) rotate(0) translate(4 385)">
<title>proof_ancomd</title>
<polygon fill="white" stroke="none" points="-4,4 -4,-385 704.982,-385 704.982,4 -4,4"/>
<!-- n8026 -->
<g id="node1" class="node"><title>n8026</title>
<ellipse fill="none" stroke="lightgray" cx="173.796" cy="-363" rx="27" ry="18"/>
<text text-anchor="middle" x="173.796" y="-359.3" font-family="Times New Roman,serif" font-size="14.00" fill="lightgray">wph</text>
</g>
<!-- n8037 -->
<g id="node2" class="node"><title>n8037</title>
<ellipse fill="cyan" stroke="black" cx="457.539" cy="-219" rx="27.8951" ry="18"/>
<text text-anchor="middle" x="457.539" y="-215.3" font-family="Times New Roman,serif" font-size="14.00">sylib</text>
</g>
<!-- n8026&#45;&gt;n8037 -->
<g id="edge1" class="edge"><title>n8026&#45;&gt;n8037</title>
<path fill="none" stroke="lightgray" d="M201.124,-362.014C248.123,-358.988 347.53,-346.711 411.592,-297 428.313,-284.025 439.921,-262.95 447.147,-245.976"/>
<polygon fill="lightgray" stroke="lightgray" points="450.453,-247.133 450.9,-236.548 443.95,-244.544 450.453,-247.133"/>
<text text-anchor="middle" x="325.092" y="-360.8" font-family="Times New Roman,serif" font-size="14.00" fill="lightgray">wff ph</text>
</g>
<!-- n8029 -->
<g id="node4" class="node"><title>n8029</title>
<ellipse fill="none" stroke="lightgray" cx="173.796" cy="-291" rx="27" ry="18"/>
<text text-anchor="middle" x="173.796" y="-287.3" font-family="Times New Roman,serif" font-size="14.00" fill="lightgray">wa</text>
</g>
<!-- n8026&#45;&gt;n8029 -->
<g id="edge16" class="edge"><title>n8026&#45;&gt;n8029</title>
</g>
<!-- QED -->
<g id="node13" class="node"><title>QED</title>
</g>
<!-- n8037&#45;&gt;QED -->
<g id="edge15" class="edge"><title>n8037&#45;&gt;QED</title>
<path fill="none" stroke="black" d="M485.846,-219C522.994,-219 589.665,-219 631.979,-219"/>
<polygon fill="black" stroke="black" points="632.179,-222.5 642.179,-219 632.179,-215.5 632.179,-222.5"/>
<text text-anchor="middle" x="563.987" y="-222.8" font-family="Times New Roman,serif" font-size="14.00">|&#45; ( ph &#45;&gt; ( ch /\ ps ) )</text>
</g>
<!-- n8027 -->
<g id="node3" class="node"><title>n8027</title>
<ellipse fill="none" stroke="lightgray" cx="27" cy="-350" rx="27" ry="18"/>
<text text-anchor="middle" x="27" y="-346.3" font-family="Times New Roman,serif" font-size="14.00" fill="lightgray">wps</text>
</g>
<!-- n8027&#45;&gt;n8029 -->
<g id="edge2" class="edge"><title>n8027&#45;&gt;n8029</title>
<path fill="none" stroke="lightgray" d="M50.307,-340.911C74.4701,-331.065 113.234,-315.27 140.675,-304.088"/>
<polygon fill="lightgray" stroke="lightgray" points="142.285,-307.212 150.225,-300.197 139.643,-300.729 142.285,-307.212"/>
<text text-anchor="middle" x="90.5" y="-333.8" font-family="Times New Roman,serif" font-size="14.00" fill="lightgray">wff ps</text>
</g>
<!-- n8028 -->
<g id="node5" class="node"><title>n8028</title>
<ellipse fill="none" stroke="lightgray" cx="27" cy="-278" rx="27" ry="18"/>
<text text-anchor="middle" x="27" y="-274.3" font-family="Times New Roman,serif" font-size="14.00" fill="lightgray">wch</text>
</g>
<!-- n8027&#45;&gt;n8028 -->
<g id="edge5" class="edge"><title>n8027&#45;&gt;n8028</title>
</g>
<!-- n8029&#45;&gt;n8037 -->
<g id="edge4" class="edge"><title>n8029&#45;&gt;n8037</title>
<path fill="none" stroke="lightgray" d="M200.428,-286.823C244.309,-279.329 336.369,-262.101 411.592,-238 415.976,-236.595 420.525,-234.931 424.97,-233.18"/>
<polygon fill="lightgray" stroke="lightgray" points="426.523,-236.326 434.433,-229.277 423.853,-229.854 426.523,-236.326"/>
<text text-anchor="middle" x="325.092" y="-281.8" font-family="Times New Roman,serif" font-size="14.00" fill="lightgray">wff ( ps /\ ch )</text>
</g>
<!-- n8032 -->
<g id="node7" class="node"><title>n8032</title>
<ellipse fill="none" stroke="lightgray" cx="173.796" cy="-219" rx="27" ry="18"/>
<text text-anchor="middle" x="173.796" y="-215.3" font-family="Times New Roman,serif" font-size="14.00" fill="lightgray">wa</text>
</g>
<!-- n8029&#45;&gt;n8032 -->
<g id="edge17" class="edge"><title>n8029&#45;&gt;n8032</title>
</g>
<!-- n8028&#45;&gt;n8029 -->
<g id="edge3" class="edge"><title>n8028&#45;&gt;n8029</title>
<path fill="none" stroke="lightgray" d="M53.8866,-280.324C76.9077,-282.391 110.81,-285.435 136.53,-287.744"/>
<polygon fill="lightgray" stroke="lightgray" points="136.372,-291.244 146.645,-288.652 136.998,-284.272 136.372,-291.244"/>
<text text-anchor="middle" x="90.5" y="-288.8" font-family="Times New Roman,serif" font-size="14.00" fill="lightgray">wff ch</text>
</g>
<!-- n8030 -->
<g id="node6" class="node"><title>n8030</title>
<ellipse fill="none" stroke="lightgray" cx="27" cy="-223" rx="27" ry="18"/>
<text text-anchor="middle" x="27" y="-219.3" font-family="Times New Roman,serif" font-size="14.00" fill="lightgray">wch</text>
</g>
<!-- n8030&#45;&gt;n8032 -->
<g id="edge6" class="edge"><title>n8030&#45;&gt;n8032</title>
<path fill="none" stroke="lightgray" d="M54.2214,-222.276C77.2856,-221.638 111.081,-220.705 136.697,-219.997"/>
<polygon fill="lightgray" stroke="lightgray" points="136.87,-223.494 146.769,-219.719 136.677,-216.497 136.87,-223.494"/>
<text text-anchor="middle" x="90.5" y="-224.8" font-family="Times New Roman,serif" font-size="14.00" fill="lightgray">wff ch</text>
</g>
<!-- n8031 -->
<g id="node8" class="node"><title>n8031</title>
<ellipse fill="none" stroke="lightgray" cx="27" cy="-151" rx="27" ry="18"/>
<text text-anchor="middle" x="27" y="-147.3" font-family="Times New Roman,serif" font-size="14.00" fill="lightgray">wps</text>
</g>
<!-- n8030&#45;&gt;n8031 -->
<g id="edge9" class="edge"><title>n8030&#45;&gt;n8031</title>
</g>
<!-- n8032&#45;&gt;n8037 -->
<g id="edge8" class="edge"><title>n8032&#45;&gt;n8037</title>
<path fill="none" stroke="lightgray" d="M200.797,-219C250.94,-219 361.166,-219 419.168,-219"/>
<polygon fill="lightgray" stroke="lightgray" points="419.365,-222.5 429.365,-219 419.365,-215.5 419.365,-222.5"/>
<text text-anchor="middle" x="325.092" y="-222.8" font-family="Times New Roman,serif" font-size="14.00" fill="lightgray">wff ( ch /\ ps )</text>
</g>
<!-- n8033 -->
<g id="node9" class="node"><title>n8033</title>
<ellipse fill="orange" stroke="black" cx="173.796" cy="-147" rx="46.5926" ry="18"/>
<text text-anchor="middle" x="173.796" y="-143.3" font-family="Times New Roman,serif" font-size="14.00">ancomd.1</text>
</g>
<!-- n8032&#45;&gt;n8033 -->
<g id="edge18" class="edge"><title>n8032&#45;&gt;n8033</title>
</g>
<!-- n8031&#45;&gt;n8032 -->
<g id="edge7" class="edge"><title>n8031&#45;&gt;n8032</title>
<path fill="none" stroke="lightgray" d="M49.6774,-161.18C74.0954,-172.648 113.983,-191.38 141.714,-204.403"/>
<polygon fill="lightgray" stroke="lightgray" points="140.431,-207.667 150.97,-208.75 143.407,-201.331 140.431,-207.667"/>
<text text-anchor="middle" x="90.5" y="-193.8" font-family="Times New Roman,serif" font-size="14.00" fill="lightgray">wff ps</text>
</g>
<!-- n8033&#45;&gt;n8037 -->
<g id="edge10" class="edge"><title>n8033&#45;&gt;n8037</title>
<path fill="none" stroke="black" d="M216.894,-154.057C264.719,-162.616 344.794,-178.598 411.592,-200 415.976,-201.405 420.525,-203.069 424.97,-204.82"/>
<polygon fill="black" stroke="black" points="423.853,-208.146 434.433,-208.723 426.523,-201.674 423.853,-208.146"/>
<text text-anchor="middle" x="325.092" y="-203.8" font-family="Times New Roman,serif" font-size="14.00">|&#45; ( ph &#45;&gt; ( ps /\ ch ) )</text>
</g>
<!-- n8036 -->
<g id="node11" class="node"><title>n8036</title>
<ellipse fill="cyan" stroke="black" cx="173.796" cy="-75" rx="35.194" ry="18"/>
<text text-anchor="middle" x="173.796" y="-71.3" font-family="Times New Roman,serif" font-size="14.00">ancom</text>
</g>
<!-- n8033&#45;&gt;n8036 -->
<g id="edge19" class="edge"><title>n8033&#45;&gt;n8036</title>
</g>
<!-- n8034 -->
<g id="node10" class="node"><title>n8034</title>
<ellipse fill="none" stroke="lightgray" cx="27" cy="-90" rx="27" ry="18"/>
<text text-anchor="middle" x="27" y="-86.3" font-family="Times New Roman,serif" font-size="14.00" fill="lightgray">wps</text>
</g>
<!-- n8034&#45;&gt;n8036 -->
<g id="edge11" class="edge"><title>n8034&#45;&gt;n8036</title>
<path fill="none" stroke="lightgray" d="M53.8866,-87.3183C74.7413,-85.1579 104.525,-82.0724 129.067,-79.53"/>
<polygon fill="lightgray" stroke="lightgray" points="129.637,-82.9899 139.223,-78.478 128.915,-76.0271 129.637,-82.9899"/>
<text text-anchor="middle" x="90.5" y="-89.8" font-family="Times New Roman,serif" font-size="14.00" fill="lightgray">wff ps</text>
</g>
<!-- n8035 -->
<g id="node12" class="node"><title>n8035</title>
<ellipse fill="none" stroke="lightgray" cx="27" cy="-18" rx="27" ry="18"/>
<text text-anchor="middle" x="27" y="-14.3" font-family="Times New Roman,serif" font-size="14.00" fill="lightgray">wch</text>
</g>
<!-- n8034&#45;&gt;n8035 -->
<g id="edge14" class="edge"><title>n8034&#45;&gt;n8035</title>
</g>
<!-- n8036&#45;&gt;n8037 -->
<g id="edge13" class="edge"><title>n8036&#45;&gt;n8037</title>
<path fill="none" stroke="black" d="M208.967,-76.5449C258.489,-80.4083 350.901,-93.9055 411.592,-141 428.313,-153.975 439.921,-175.05 447.147,-192.024"/>
<polygon fill="black" stroke="black" points="443.95,-193.456 450.9,-201.452 450.453,-190.867 443.95,-193.456"/>
<text text-anchor="middle" x="325.092" y="-144.8" font-family="Times New Roman,serif" font-size="14.00">|&#45; ( ( ps /\ ch ) &lt;&#45;&gt; ( ch /\ ps ) )</text>
</g>
<!-- n8035&#45;&gt;n8036 -->
<g id="edge12" class="edge"><title>n8035&#45;&gt;n8036</title>
<path fill="none" stroke="lightgray" d="M50.6244,-26.9063C73.4346,-35.8857 109.021,-49.8946 135.915,-60.4817"/>
<polygon fill="lightgray" stroke="lightgray" points="134.804,-63.8054 145.391,-64.2117 137.368,-57.2919 134.804,-63.8054"/>
<text text-anchor="middle" x="90.5" y="-53.8" font-family="Times New Roman,serif" font-size="14.00" fill="lightgray">wff ch</text>
</g>
</g>
</svg>
