<?xml version="1.0" encoding="UTF-8" standalone="no"?>
<!DOCTYPE svg PUBLIC "-//W3C//DTD SVG 1.1//EN"
 "http://www.w3.org/Graphics/SVG/1.1/DTD/svg11.dtd">
<!-- Generated by graphviz version 2.38.0 (20140413.2041)
 -->
<!-- Title: proof_ancrb Pages: 1 -->
<svg width="811pt" height="325pt"
 viewBox="0.00 0.00 811.09 325.00" xmlns="http://www.w3.org/2000/svg" xmlns:xlink="http://www.w3.org/1999/xlink">
<g id="graph0" class="graph" transform="scale(1 1) rotate(0) translate(4 321)">
<title>proof_ancrb</title>
<polygon fill="white" stroke="none" points="-4,4 -4,-321 807.088,-321 807.088,4 -4,4"/>
<!-- n9416 -->
<g id="node1" class="node"><title>n9416</title>
<ellipse fill="none" stroke="lightgray" cx="154" cy="-299" rx="27" ry="18"/>
<text text-anchor="middle" x="154" y="-295.3" font-family="Times New Roman,serif" font-size="14.00" fill="lightgray">wph</text>
</g>
<!-- n9424 -->
<g id="node2" class="node"><title>n9424</title>
<ellipse fill="cyan" stroke="black" cx="437.296" cy="-190" rx="40.0939" ry="18"/>
<text text-anchor="middle" x="437.296" y="-186.3" font-family="Times New Roman,serif" font-size="14.00">pm5.74i</text>
</g>
<!-- n9416&#45;&gt;n9424 -->
<g id="edge1" class="edge"><title>n9416&#45;&gt;n9424</title>
<path fill="none" stroke="lightgray" d="M180.874,-295.869C224.041,-289.837 312.561,-273.979 379,-239 391.429,-232.457 403.505,-222.789 413.342,-213.766"/>
<polygon fill="lightgray" stroke="lightgray" points="415.889,-216.173 420.713,-206.74 411.06,-211.105 415.889,-216.173"/>
<text text-anchor="middle" x="289" y="-295.8" font-family="Times New Roman,serif" font-size="14.00" fill="lightgray">wff ph</text>
</g>
<!-- n9417 -->
<g id="node3" class="node"><title>n9417</title>
<ellipse fill="none" stroke="lightgray" cx="154" cy="-227" rx="27" ry="18"/>
<text text-anchor="middle" x="154" y="-223.3" font-family="Times New Roman,serif" font-size="14.00" fill="lightgray">wps</text>
</g>
<!-- n9416&#45;&gt;n9417 -->
<g id="edge12" class="edge"><title>n9416&#45;&gt;n9417</title>
</g>
<!-- QED -->
<g id="node10" class="node"><title>QED</title>
</g>
<!-- n9424&#45;&gt;QED -->
<g id="edge11" class="edge"><title>n9424&#45;&gt;QED</title>
<path fill="none" stroke="black" d="M477.657,-190C542.284,-190 670.101,-190 734.233,-190"/>
<polygon fill="black" stroke="black" points="734.33,-193.5 744.33,-190 734.33,-186.5 734.33,-193.5"/>
<text text-anchor="middle" x="611.093" y="-193.8" font-family="Times New Roman,serif" font-size="14.00">|&#45; ( ( ph &#45;&gt; ps ) &lt;&#45;&gt; ( ph &#45;&gt; ( ps /\ ph ) ) )</text>
</g>
<!-- n9417&#45;&gt;n9424 -->
<g id="edge2" class="edge"><title>n9417&#45;&gt;n9424</title>
<path fill="none" stroke="lightgray" d="M180.959,-223.585C228.146,-217.379 328.62,-204.163 388.502,-196.287"/>
<polygon fill="lightgray" stroke="lightgray" points="389.011,-199.75 398.469,-194.976 388.098,-192.81 389.011,-199.75"/>
<text text-anchor="middle" x="289" y="-223.8" font-family="Times New Roman,serif" font-size="14.00" fill="lightgray">wff ps</text>
</g>
<!-- n9420 -->
<g id="node5" class="node"><title>n9420</title>
<ellipse fill="none" stroke="lightgray" cx="154" cy="-155" rx="27" ry="18"/>
<text text-anchor="middle" x="154" y="-151.3" font-family="Times New Roman,serif" font-size="14.00" fill="lightgray">wa</text>
</g>
<!-- n9417&#45;&gt;n9420 -->
<g id="edge13" class="edge"><title>n9417&#45;&gt;n9420</title>
</g>
<!-- n9418 -->
<g id="node4" class="node"><title>n9418</title>
<ellipse fill="none" stroke="lightgray" cx="27" cy="-218" rx="27" ry="18"/>
<text text-anchor="middle" x="27" y="-214.3" font-family="Times New Roman,serif" font-size="14.00" fill="lightgray">wps</text>
</g>
<!-- n9418&#45;&gt;n9420 -->
<g id="edge3" class="edge"><title>n9418&#45;&gt;n9420</title>
<path fill="none" stroke="lightgray" d="M48.9222,-207.455C69.2023,-197.234 100.171,-181.626 123.059,-170.09"/>
<polygon fill="lightgray" stroke="lightgray" points="124.655,-173.205 132.01,-165.579 121.504,-166.954 124.655,-173.205"/>
<text text-anchor="middle" x="90.5" y="-198.8" font-family="Times New Roman,serif" font-size="14.00" fill="lightgray">wff ps</text>
</g>
<!-- n9419 -->
<g id="node6" class="node"><title>n9419</title>
<ellipse fill="none" stroke="lightgray" cx="27" cy="-146" rx="27" ry="18"/>
<text text-anchor="middle" x="27" y="-142.3" font-family="Times New Roman,serif" font-size="14.00" fill="lightgray">wph</text>
</g>
<!-- n9418&#45;&gt;n9419 -->
<g id="edge6" class="edge"><title>n9418&#45;&gt;n9419</title>
</g>
<!-- n9420&#45;&gt;n9424 -->
<g id="edge5" class="edge"><title>n9420&#45;&gt;n9424</title>
<path fill="none" stroke="lightgray" d="M180.912,-157.665C222.674,-162.038 307.432,-171.23 379,-181 382.242,-181.443 385.585,-181.918 388.95,-182.411"/>
<polygon fill="lightgray" stroke="lightgray" points="388.626,-185.901 399.035,-183.924 389.666,-178.979 388.626,-185.901"/>
<text text-anchor="middle" x="289" y="-184.8" font-family="Times New Roman,serif" font-size="14.00" fill="lightgray">wff ( ps /\ ph )</text>
</g>
<!-- n9423 -->
<g id="node8" class="node"><title>n9423</title>
<ellipse fill="cyan" stroke="black" cx="154" cy="-83" rx="27" ry="18"/>
<text text-anchor="middle" x="154" y="-79.3" font-family="Times New Roman,serif" font-size="14.00">iba</text>
</g>
<!-- n9420&#45;&gt;n9423 -->
<g id="edge14" class="edge"><title>n9420&#45;&gt;n9423</title>
</g>
<!-- n9419&#45;&gt;n9420 -->
<g id="edge4" class="edge"><title>n9419&#45;&gt;n9420</title>
<path fill="none" stroke="lightgray" d="M53.9001,-147.865C72.1687,-149.18 96.8789,-150.959 117.054,-152.412"/>
<polygon fill="lightgray" stroke="lightgray" points="116.908,-155.91 127.133,-153.138 117.41,-148.928 116.908,-155.91"/>
<text text-anchor="middle" x="90.5" y="-154.8" font-family="Times New Roman,serif" font-size="14.00" fill="lightgray">wff ph</text>
</g>
<!-- n9421 -->
<g id="node7" class="node"><title>n9421</title>
<ellipse fill="none" stroke="lightgray" cx="27" cy="-90" rx="27" ry="18"/>
<text text-anchor="middle" x="27" y="-86.3" font-family="Times New Roman,serif" font-size="14.00" fill="lightgray">wph</text>
</g>
<!-- n9421&#45;&gt;n9423 -->
<g id="edge7" class="edge"><title>n9421&#45;&gt;n9423</title>
<path fill="none" stroke="lightgray" d="M54.2041,-88.5326C72.3711,-87.5152 96.7994,-86.1472 116.82,-85.0261"/>
<polygon fill="lightgray" stroke="lightgray" points="117.042,-88.5192 126.83,-84.4655 116.65,-81.5302 117.042,-88.5192"/>
<text text-anchor="middle" x="90.5" y="-91.8" font-family="Times New Roman,serif" font-size="14.00" fill="lightgray">wff ph</text>
</g>
<!-- n9422 -->
<g id="node9" class="node"><title>n9422</title>
<ellipse fill="none" stroke="lightgray" cx="27" cy="-18" rx="27" ry="18"/>
<text text-anchor="middle" x="27" y="-14.3" font-family="Times New Roman,serif" font-size="14.00" fill="lightgray">wps</text>
</g>
<!-- n9421&#45;&gt;n9422 -->
<g id="edge10" class="edge"><title>n9421&#45;&gt;n9422</title>
</g>
<!-- n9423&#45;&gt;n9424 -->
<g id="edge9" class="edge"><title>n9423&#45;&gt;n9424</title>
<path fill="none" stroke="black" d="M180.913,-85.6319C224.135,-90.8634 312.734,-105.219 379,-140 391.729,-146.681 403.996,-156.725 413.891,-166.062"/>
<polygon fill="black" stroke="black" points="411.694,-168.81 421.281,-173.321 416.599,-163.816 411.694,-168.81"/>
<text text-anchor="middle" x="289" y="-143.8" font-family="Times New Roman,serif" font-size="14.00">|&#45; ( ph &#45;&gt; ( ps &lt;&#45;&gt; ( ps /\ ph ) ) )</text>
</g>
<!-- n9422&#45;&gt;n9423 -->
<g id="edge8" class="edge"><title>n9422&#45;&gt;n9423</title>
<path fill="none" stroke="lightgray" d="M48.9222,-28.8795C69.2023,-39.4252 100.171,-55.5291 123.059,-67.4306"/>
<polygon fill="lightgray" stroke="lightgray" points="121.523,-70.5766 132.01,-72.085 124.752,-64.3661 121.523,-70.5766"/>
<text text-anchor="middle" x="90.5" y="-64.8" font-family="Times New Roman,serif" font-size="14.00" fill="lightgray">wff ps</text>
</g>
</g>
</svg>
