<?xml version="1.0" encoding="UTF-8" standalone="no"?>
<!DOCTYPE svg PUBLIC "-//W3C//DTD SVG 1.1//EN"
 "http://www.w3.org/Graphics/SVG/1.1/DTD/svg11.dtd">
<!-- Generated by graphviz version 2.38.0 (20140413.2041)
 -->
<!-- Title: proof_ancri Pages: 1 -->
<svg width="584pt" height="332pt"
 viewBox="0.00 0.00 583.69 332.00" xmlns="http://www.w3.org/2000/svg" xmlns:xlink="http://www.w3.org/1999/xlink">
<g id="graph0" class="graph" transform="scale(1 1) rotate(0) translate(4 328)">
<title>proof_ancri</title>
<polygon fill="white" stroke="none" points="-4,4 -4,-328 579.689,-328 579.689,4 -4,4"/>
<!-- n9432 -->
<g id="node1" class="node"><title>n9432</title>
<ellipse fill="none" stroke="lightgray" cx="162.097" cy="-306" rx="27" ry="18"/>
<text text-anchor="middle" x="162.097" y="-302.3" font-family="Times New Roman,serif" font-size="14.00" fill="lightgray">wph</text>
</g>
<!-- n9438 -->
<g id="node2" class="node"><title>n9438</title>
<ellipse fill="cyan" stroke="black" cx="336.194" cy="-162" rx="27" ry="18"/>
<text text-anchor="middle" x="336.194" y="-158.3" font-family="Times New Roman,serif" font-size="14.00">jca</text>
</g>
<!-- n9432&#45;&gt;n9438 -->
<g id="edge1" class="edge"><title>n9432&#45;&gt;n9438</title>
<path fill="none" stroke="lightgray" d="M185.545,-296.567C212.877,-284.266 259.326,-260.654 291.194,-230 303.709,-217.961 314.39,-201.712 322.092,-188.117"/>
<polygon fill="lightgray" stroke="lightgray" points="325.232,-189.67 326.935,-179.213 319.083,-186.326 325.232,-189.67"/>
<text text-anchor="middle" x="253.194" y="-284.8" font-family="Times New Roman,serif" font-size="14.00" fill="lightgray">wff ph</text>
</g>
<!-- n9433 -->
<g id="node3" class="node"><title>n9433</title>
<ellipse fill="none" stroke="lightgray" cx="162.097" cy="-234" rx="27" ry="18"/>
<text text-anchor="middle" x="162.097" y="-230.3" font-family="Times New Roman,serif" font-size="14.00" fill="lightgray">wps</text>
</g>
<!-- n9432&#45;&gt;n9433 -->
<g id="edge8" class="edge"><title>n9432&#45;&gt;n9433</title>
</g>
<!-- QED -->
<g id="node8" class="node"><title>QED</title>
</g>
<!-- n9438&#45;&gt;QED -->
<g id="edge7" class="edge"><title>n9438&#45;&gt;QED</title>
<path fill="none" stroke="black" d="M363.568,-162C399.79,-162 465.176,-162 506.888,-162"/>
<polygon fill="black" stroke="black" points="506.951,-165.5 516.951,-162 506.951,-158.5 506.951,-165.5"/>
<text text-anchor="middle" x="440.194" y="-165.8" font-family="Times New Roman,serif" font-size="14.00">|&#45; ( ph &#45;&gt; ( ps / ph ) )</text>
</g>
<!-- n9433&#45;&gt;n9438 -->
<g id="edge2" class="edge"><title>n9433&#45;&gt;n9438</title>
<path fill="none" stroke="lightgray" d="M185.817,-224.722C211.459,-214.223 254.395,-196.557 291.194,-181 295.359,-179.239 299.738,-177.37 304.053,-175.517"/>
<polygon fill="lightgray" stroke="lightgray" points="305.491,-178.709 313.289,-171.537 302.72,-172.281 305.491,-178.709"/>
<text text-anchor="middle" x="253.194" y="-214.8" font-family="Times New Roman,serif" font-size="14.00" fill="lightgray">wff ps</text>
</g>
<!-- n9434 -->
<g id="node4" class="node"><title>n9434</title>
<ellipse fill="none" stroke="lightgray" cx="162.097" cy="-162" rx="27" ry="18"/>
<text text-anchor="middle" x="162.097" y="-158.3" font-family="Times New Roman,serif" font-size="14.00" fill="lightgray">wph</text>
</g>
<!-- n9433&#45;&gt;n9434 -->
<g id="edge9" class="edge"><title>n9433&#45;&gt;n9434</title>
</g>
<!-- n9434&#45;&gt;n9438 -->
<g id="edge3" class="edge"><title>n9434&#45;&gt;n9438</title>
<path fill="none" stroke="lightgray" d="M189.235,-162C218.507,-162 266.143,-162 298.99,-162"/>
<polygon fill="lightgray" stroke="lightgray" points="299.093,-165.5 309.092,-162 299.092,-158.5 299.093,-165.5"/>
<text text-anchor="middle" x="253.194" y="-165.8" font-family="Times New Roman,serif" font-size="14.00" fill="lightgray">wff ph</text>
</g>
<!-- n9435 -->
<g id="node5" class="node"><title>n9435</title>
<ellipse fill="orange" stroke="black" cx="162.097" cy="-90" rx="35.194" ry="18"/>
<text text-anchor="middle" x="162.097" y="-86.3" font-family="Times New Roman,serif" font-size="14.00">ancri.1</text>
</g>
<!-- n9434&#45;&gt;n9435 -->
<g id="edge10" class="edge"><title>n9434&#45;&gt;n9435</title>
</g>
<!-- n9435&#45;&gt;n9438 -->
<g id="edge4" class="edge"><title>n9435&#45;&gt;n9438</title>
<path fill="none" stroke="black" d="M190.137,-101.047C216.096,-111.686 256.39,-128.287 291.194,-143 295.359,-144.761 299.738,-146.63 304.053,-148.483"/>
<polygon fill="black" stroke="black" points="302.72,-151.719 313.289,-152.463 305.491,-145.291 302.72,-151.719"/>
<text text-anchor="middle" x="253.194" y="-146.8" font-family="Times New Roman,serif" font-size="14.00">|&#45; ( ph &#45;&gt; ps )</text>
</g>
<!-- n9437 -->
<g id="node7" class="node"><title>n9437</title>
<ellipse fill="cyan" stroke="black" cx="162.097" cy="-18" rx="27" ry="18"/>
<text text-anchor="middle" x="162.097" y="-14.3" font-family="Times New Roman,serif" font-size="14.00">id</text>
</g>
<!-- n9435&#45;&gt;n9437 -->
<g id="edge11" class="edge"><title>n9435&#45;&gt;n9437</title>
</g>
<!-- n9436 -->
<g id="node6" class="node"><title>n9436</title>
<ellipse fill="none" stroke="lightgray" cx="27" cy="-18" rx="27" ry="18"/>
<text text-anchor="middle" x="27" y="-14.3" font-family="Times New Roman,serif" font-size="14.00" fill="lightgray">wph</text>
</g>
<!-- n9436&#45;&gt;n9437 -->
<g id="edge5" class="edge"><title>n9436&#45;&gt;n9437</title>
<path fill="none" stroke="lightgray" d="M54.2957,-18C74.4392,-18 102.464,-18 124.752,-18"/>
<polygon fill="lightgray" stroke="lightgray" points="124.856,-21.5001 134.856,-18 124.856,-14.5001 124.856,-21.5001"/>
<text text-anchor="middle" x="90.5" y="-21.8" font-family="Times New Roman,serif" font-size="14.00" fill="lightgray">wff ph</text>
</g>
<!-- n9437&#45;&gt;n9438 -->
<g id="edge6" class="edge"><title>n9437&#45;&gt;n9438</title>
<path fill="none" stroke="black" d="M185.545,-27.4335C212.877,-39.7339 259.326,-63.3458 291.194,-94 303.709,-106.039 314.39,-122.288 322.092,-135.883"/>
<polygon fill="black" stroke="black" points="319.083,-137.674 326.935,-144.787 325.232,-134.33 319.083,-137.674"/>
<text text-anchor="middle" x="253.194" y="-97.8" font-family="Times New Roman,serif" font-size="14.00">|&#45; ( ph &#45;&gt; ph )</text>
</g>
</g>
</svg>
