<?xml version="1.0" encoding="UTF-8" standalone="no"?>
<!DOCTYPE svg PUBLIC "-//W3C//DTD SVG 1.1//EN"
 "http://www.w3.org/Graphics/SVG/1.1/DTD/svg11.dtd">
<!-- Generated by graphviz version 2.38.0 (20140413.2041)
 -->
<!-- Title: proof_andir Pages: 1 -->
<svg width="1302pt" height="1628pt"
 viewBox="0.00 0.00 1302.08 1628.00" xmlns="http://www.w3.org/2000/svg" xmlns:xlink="http://www.w3.org/1999/xlink">
<g id="graph0" class="graph" transform="scale(1 1) rotate(0) translate(4 1624)">
<title>proof_andir</title>
<polygon fill="white" stroke="none" points="-4,4 -4,-1624 1298.08,-1624 1298.08,4 -4,4"/>
<!-- n15015 -->
<g id="node1" class="node"><title>n15015</title>
<ellipse fill="none" stroke="lightgray" cx="162.097" cy="-1556" rx="27" ry="18"/>
<text text-anchor="middle" x="162.097" y="-1552.3" font-family="Times New Roman,serif" font-size="14.00" fill="lightgray">wch</text>
</g>
<!-- n15019 -->
<g id="node2" class="node"><title>n15019</title>
<ellipse fill="none" stroke="lightgray" cx="436.591" cy="-1429" rx="27" ry="18"/>
<text text-anchor="middle" x="436.591" y="-1425.3" font-family="Times New Roman,serif" font-size="14.00" fill="lightgray">wa</text>
</g>
<!-- n15015&#45;&gt;n15019 -->
<g id="edge1" class="edge"><title>n15015&#45;&gt;n15019</title>
<path fill="none" stroke="lightgray" d="M189.101,-1553.5C232.337,-1548.32 320.359,-1533.31 382.194,-1493 397.507,-1483.02 410.71,-1467.3 420.156,-1453.94"/>
<polygon fill="lightgray" stroke="lightgray" points="423.103,-1455.83 425.806,-1445.59 417.305,-1451.91 423.103,-1455.83"/>
<text text-anchor="middle" x="298.694" y="-1552.8" font-family="Times New Roman,serif" font-size="14.00" fill="lightgray">wff ch</text>
</g>
<!-- n15018 -->
<g id="node4" class="node"><title>n15018</title>
<ellipse fill="none" stroke="lightgray" cx="162.097" cy="-1484" rx="27" ry="18"/>
<text text-anchor="middle" x="162.097" y="-1480.3" font-family="Times New Roman,serif" font-size="14.00" fill="lightgray">wo</text>
</g>
<!-- n15015&#45;&gt;n15018 -->
<g id="edge7" class="edge"><title>n15015&#45;&gt;n15018</title>
</g>
<!-- n15067 -->
<g id="node6" class="node"><title>n15067</title>
<ellipse fill="cyan" stroke="black" cx="874.784" cy="-1057" rx="33.5952" ry="18"/>
<text text-anchor="middle" x="874.784" y="-1053.3" font-family="Times New Roman,serif" font-size="14.00">3bitr4i</text>
</g>
<!-- n15019&#45;&gt;n15067 -->
<g id="edge6" class="edge"><title>n15019&#45;&gt;n15067</title>
<path fill="none" stroke="lightgray" d="M463.549,-1431.21C533.124,-1435.58 725.124,-1437.14 822.987,-1333 856.42,-1297.42 868.638,-1148.41 872.368,-1085.36"/>
<polygon fill="lightgray" stroke="lightgray" points="875.866,-1085.5 872.933,-1075.32 868.877,-1085.11 875.866,-1085.5"/>
<text text-anchor="middle" x="656.987" y="-1436.8" font-family="Times New Roman,serif" font-size="14.00" fill="lightgray">wff ( ch / ( ph / ps ) )</text>
</g>
<!-- n15026 -->
<g id="node10" class="node"><title>n15026</title>
<ellipse fill="none" stroke="lightgray" cx="436.591" cy="-1332" rx="27" ry="18"/>
<text text-anchor="middle" x="436.591" y="-1328.3" font-family="Times New Roman,serif" font-size="14.00" fill="lightgray">wo</text>
</g>
<!-- n15019&#45;&gt;n15026 -->
<g id="edge79" class="edge"><title>n15019&#45;&gt;n15026</title>
</g>
<!-- n15016 -->
<g id="node3" class="node"><title>n15016</title>
<ellipse fill="none" stroke="lightgray" cx="27" cy="-1602" rx="27" ry="18"/>
<text text-anchor="middle" x="27" y="-1598.3" font-family="Times New Roman,serif" font-size="14.00" fill="lightgray">wph</text>
</g>
<!-- n15016&#45;&gt;n15018 -->
<g id="edge2" class="edge"><title>n15016&#45;&gt;n15018</title>
<path fill="none" stroke="lightgray" d="M44.6491,-1588.23C61.1696,-1574.46 87.116,-1552.59 109,-1533 118.731,-1524.29 129.261,-1514.46 138.29,-1505.91"/>
<polygon fill="lightgray" stroke="lightgray" points="140.95,-1508.21 145.781,-1498.78 136.124,-1503.14 140.95,-1508.21"/>
<text text-anchor="middle" x="90.5" y="-1566.8" font-family="Times New Roman,serif" font-size="14.00" fill="lightgray">wff ph</text>
</g>
<!-- n15017 -->
<g id="node5" class="node"><title>n15017</title>
<ellipse fill="none" stroke="lightgray" cx="27" cy="-1530" rx="27" ry="18"/>
<text text-anchor="middle" x="27" y="-1526.3" font-family="Times New Roman,serif" font-size="14.00" fill="lightgray">wps</text>
</g>
<!-- n15016&#45;&gt;n15017 -->
<g id="edge5" class="edge"><title>n15016&#45;&gt;n15017</title>
</g>
<!-- n15018&#45;&gt;n15019 -->
<g id="edge4" class="edge"><title>n15018&#45;&gt;n15019</title>
<path fill="none" stroke="lightgray" d="M188.244,-1478.92C237.012,-1469.08 344.541,-1447.38 400.381,-1436.11"/>
<polygon fill="lightgray" stroke="lightgray" points="401.394,-1439.47 410.504,-1434.06 400.009,-1432.61 401.394,-1439.47"/>
<text text-anchor="middle" x="298.694" y="-1477.8" font-family="Times New Roman,serif" font-size="14.00" fill="lightgray">wff ( ph / ps )</text>
</g>
<!-- n15017&#45;&gt;n15018 -->
<g id="edge3" class="edge"><title>n15017&#45;&gt;n15018</title>
<path fill="none" stroke="lightgray" d="M51.1837,-1521.99C72.4288,-1514.64 104.118,-1503.69 128.019,-1495.43"/>
<polygon fill="lightgray" stroke="lightgray" points="129.424,-1498.65 137.732,-1492.08 127.138,-1492.03 129.424,-1498.65"/>
<text text-anchor="middle" x="90.5" y="-1517.8" font-family="Times New Roman,serif" font-size="14.00" fill="lightgray">wff ps</text>
</g>
<!-- QED -->
<g id="node54" class="node"><title>QED</title>
</g>
<!-- n15067&#45;&gt;QED -->
<g id="edge78" class="edge"><title>n15067&#45;&gt;QED</title>
<path fill="none" stroke="black" d="M908.869,-1057C980.376,-1057 1149.02,-1057 1225.23,-1057"/>
<polygon fill="black" stroke="black" points="1225.36,-1060.5 1235.36,-1057 1225.36,-1053.5 1225.36,-1060.5"/>
<text text-anchor="middle" x="1072.08" y="-1060.8" font-family="Times New Roman,serif" font-size="14.00">|&#45; ( ( ( ph / ps ) / ch ) &lt;&#45;&gt; ( ( ph / ch ) / ( ps / ch ) ) )</text>
</g>
<!-- n15020 -->
<g id="node7" class="node"><title>n15020</title>
<ellipse fill="none" stroke="lightgray" cx="27" cy="-1476" rx="27" ry="18"/>
<text text-anchor="middle" x="27" y="-1472.3" font-family="Times New Roman,serif" font-size="14.00" fill="lightgray">wch</text>
</g>
<!-- n15022 -->
<g id="node8" class="node"><title>n15022</title>
<ellipse fill="none" stroke="lightgray" cx="162.097" cy="-1404" rx="27" ry="18"/>
<text text-anchor="middle" x="162.097" y="-1400.3" font-family="Times New Roman,serif" font-size="14.00" fill="lightgray">wa</text>
</g>
<!-- n15020&#45;&gt;n15022 -->
<g id="edge8" class="edge"><title>n15020&#45;&gt;n15022</title>
<path fill="none" stroke="lightgray" d="M48.5047,-1464.91C70.6181,-1452.95 106.036,-1433.79 131.239,-1420.15"/>
<polygon fill="lightgray" stroke="lightgray" points="133.219,-1423.06 140.35,-1415.22 129.889,-1416.9 133.219,-1423.06"/>
<text text-anchor="middle" x="90.5" y="-1454.8" font-family="Times New Roman,serif" font-size="14.00" fill="lightgray">wff ch</text>
</g>
<!-- n15021 -->
<g id="node9" class="node"><title>n15021</title>
<ellipse fill="none" stroke="lightgray" cx="27" cy="-1404" rx="27" ry="18"/>
<text text-anchor="middle" x="27" y="-1400.3" font-family="Times New Roman,serif" font-size="14.00" fill="lightgray">wph</text>
</g>
<!-- n15020&#45;&gt;n15021 -->
<g id="edge11" class="edge"><title>n15020&#45;&gt;n15021</title>
</g>
<!-- n15022&#45;&gt;n15026 -->
<g id="edge10" class="edge"><title>n15022&#45;&gt;n15026</title>
<path fill="none" stroke="lightgray" d="M188.296,-1398.8C229.288,-1390.15 312.809,-1371.67 382.194,-1351 389.036,-1348.96 396.29,-1346.55 403.172,-1344.15"/>
<polygon fill="lightgray" stroke="lightgray" points="404.661,-1347.33 412.897,-1340.67 402.303,-1340.74 404.661,-1347.33"/>
<text text-anchor="middle" x="298.694" y="-1396.8" font-family="Times New Roman,serif" font-size="14.00" fill="lightgray">wff ( ch / ph )</text>
</g>
<!-- n15025 -->
<g id="node12" class="node"><title>n15025</title>
<ellipse fill="none" stroke="lightgray" cx="162.097" cy="-1332" rx="27" ry="18"/>
<text text-anchor="middle" x="162.097" y="-1328.3" font-family="Times New Roman,serif" font-size="14.00" fill="lightgray">wa</text>
</g>
<!-- n15022&#45;&gt;n15025 -->
<g id="edge17" class="edge"><title>n15022&#45;&gt;n15025</title>
</g>
<!-- n15021&#45;&gt;n15022 -->
<g id="edge9" class="edge"><title>n15021&#45;&gt;n15022</title>
<path fill="none" stroke="lightgray" d="M54.2957,-1404C74.4392,-1404 102.464,-1404 124.752,-1404"/>
<polygon fill="lightgray" stroke="lightgray" points="124.856,-1407.5 134.856,-1404 124.856,-1400.5 124.856,-1407.5"/>
<text text-anchor="middle" x="90.5" y="-1407.8" font-family="Times New Roman,serif" font-size="14.00" fill="lightgray">wff ph</text>
</g>
<!-- n15026&#45;&gt;n15067 -->
<g id="edge16" class="edge"><title>n15026&#45;&gt;n15067</title>
<path fill="none" stroke="lightgray" d="M461.031,-1324.14C535.776,-1298.74 766.854,-1217.28 822.987,-1163 845.223,-1141.5 858.935,-1108.3 866.422,-1084.79"/>
<polygon fill="lightgray" stroke="lightgray" points="869.82,-1085.65 869.345,-1075.06 863.116,-1083.63 869.82,-1085.65"/>
<text text-anchor="middle" x="656.987" y="-1317.8" font-family="Times New Roman,serif" font-size="14.00" fill="lightgray">wff ( ( ch / ph ) / ( ch / ps ) )</text>
</g>
<!-- n15031 -->
<g id="node17" class="node"><title>n15031</title>
<ellipse fill="none" stroke="lightgray" cx="436.591" cy="-1152" rx="27" ry="18"/>
<text text-anchor="middle" x="436.591" y="-1148.3" font-family="Times New Roman,serif" font-size="14.00" fill="lightgray">wa</text>
</g>
<!-- n15026&#45;&gt;n15031 -->
<g id="edge80" class="edge"><title>n15026&#45;&gt;n15031</title>
</g>
<!-- n15023 -->
<g id="node11" class="node"><title>n15023</title>
<ellipse fill="none" stroke="lightgray" cx="27" cy="-1350" rx="27" ry="18"/>
<text text-anchor="middle" x="27" y="-1346.3" font-family="Times New Roman,serif" font-size="14.00" fill="lightgray">wch</text>
</g>
<!-- n15023&#45;&gt;n15025 -->
<g id="edge12" class="edge"><title>n15023&#45;&gt;n15025</title>
<path fill="none" stroke="lightgray" d="M53.6624,-1346.53C74.1007,-1343.77 102.939,-1339.87 125.593,-1336.8"/>
<polygon fill="lightgray" stroke="lightgray" points="126.073,-1340.27 135.513,-1335.46 125.134,-1333.33 126.073,-1340.27"/>
<text text-anchor="middle" x="90.5" y="-1347.8" font-family="Times New Roman,serif" font-size="14.00" fill="lightgray">wff ch</text>
</g>
<!-- n15024 -->
<g id="node13" class="node"><title>n15024</title>
<ellipse fill="none" stroke="lightgray" cx="27" cy="-1278" rx="27" ry="18"/>
<text text-anchor="middle" x="27" y="-1274.3" font-family="Times New Roman,serif" font-size="14.00" fill="lightgray">wps</text>
</g>
<!-- n15023&#45;&gt;n15024 -->
<g id="edge15" class="edge"><title>n15023&#45;&gt;n15024</title>
</g>
<!-- n15025&#45;&gt;n15026 -->
<g id="edge14" class="edge"><title>n15025&#45;&gt;n15026</title>
<path fill="none" stroke="lightgray" d="M189.225,-1332C238.156,-1332 343.685,-1332 399.415,-1332"/>
<polygon fill="lightgray" stroke="lightgray" points="399.542,-1335.5 409.542,-1332 399.542,-1328.5 399.542,-1335.5"/>
<text text-anchor="middle" x="298.694" y="-1335.8" font-family="Times New Roman,serif" font-size="14.00" fill="lightgray">wff ( ch / ps )</text>
</g>
<!-- n15024&#45;&gt;n15025 -->
<g id="edge13" class="edge"><title>n15024&#45;&gt;n15025</title>
<path fill="none" stroke="lightgray" d="M50.5781,-1287.16C72.0892,-1295.89 104.695,-1309.12 128.922,-1318.95"/>
<polygon fill="lightgray" stroke="lightgray" points="127.826,-1322.28 138.408,-1322.79 130.458,-1315.79 127.826,-1322.28"/>
<text text-anchor="middle" x="90.5" y="-1313.8" font-family="Times New Roman,serif" font-size="14.00" fill="lightgray">wff ps</text>
</g>
<!-- n15027 -->
<g id="node14" class="node"><title>n15027</title>
<ellipse fill="none" stroke="lightgray" cx="27" cy="-1224" rx="27" ry="18"/>
<text text-anchor="middle" x="27" y="-1220.3" font-family="Times New Roman,serif" font-size="14.00" fill="lightgray">wps</text>
</g>
<!-- n15029 -->
<g id="node15" class="node"><title>n15029</title>
<ellipse fill="none" stroke="lightgray" cx="162.097" cy="-1224" rx="27" ry="18"/>
<text text-anchor="middle" x="162.097" y="-1220.3" font-family="Times New Roman,serif" font-size="14.00" fill="lightgray">wo</text>
</g>
<!-- n15027&#45;&gt;n15029 -->
<g id="edge18" class="edge"><title>n15027&#45;&gt;n15029</title>
<path fill="none" stroke="lightgray" d="M54.2957,-1224C74.4392,-1224 102.464,-1224 124.752,-1224"/>
<polygon fill="lightgray" stroke="lightgray" points="124.856,-1227.5 134.856,-1224 124.856,-1220.5 124.856,-1227.5"/>
<text text-anchor="middle" x="90.5" y="-1227.8" font-family="Times New Roman,serif" font-size="14.00" fill="lightgray">wff ps</text>
</g>
<!-- n15028 -->
<g id="node16" class="node"><title>n15028</title>
<ellipse fill="none" stroke="lightgray" cx="27" cy="-1152" rx="27" ry="18"/>
<text text-anchor="middle" x="27" y="-1148.3" font-family="Times New Roman,serif" font-size="14.00" fill="lightgray">wph</text>
</g>
<!-- n15027&#45;&gt;n15028 -->
<g id="edge21" class="edge"><title>n15027&#45;&gt;n15028</title>
</g>
<!-- n15029&#45;&gt;n15031 -->
<g id="edge20" class="edge"><title>n15029&#45;&gt;n15031</title>
<path fill="none" stroke="lightgray" d="M188.296,-1218.8C229.288,-1210.15 312.809,-1191.67 382.194,-1171 389.036,-1168.96 396.29,-1166.55 403.172,-1164.15"/>
<polygon fill="lightgray" stroke="lightgray" points="404.661,-1167.33 412.897,-1160.67 402.303,-1160.74 404.661,-1167.33"/>
<text text-anchor="middle" x="298.694" y="-1216.8" font-family="Times New Roman,serif" font-size="14.00" fill="lightgray">wff ( ph / ps )</text>
</g>
<!-- n15030 -->
<g id="node18" class="node"><title>n15030</title>
<ellipse fill="none" stroke="lightgray" cx="162.097" cy="-1152" rx="27" ry="18"/>
<text text-anchor="middle" x="162.097" y="-1148.3" font-family="Times New Roman,serif" font-size="14.00" fill="lightgray">wch</text>
</g>
<!-- n15029&#45;&gt;n15030 -->
<g id="edge24" class="edge"><title>n15029&#45;&gt;n15030</title>
</g>
<!-- n15028&#45;&gt;n15029 -->
<g id="edge19" class="edge"><title>n15028&#45;&gt;n15029</title>
<path fill="none" stroke="lightgray" d="M48.5047,-1163.09C70.6181,-1175.05 106.036,-1194.21 131.239,-1207.85"/>
<polygon fill="lightgray" stroke="lightgray" points="129.889,-1211.1 140.35,-1212.78 133.219,-1204.94 129.889,-1211.1"/>
<text text-anchor="middle" x="90.5" y="-1198.8" font-family="Times New Roman,serif" font-size="14.00" fill="lightgray">wff ph</text>
</g>
<!-- n15031&#45;&gt;n15067 -->
<g id="edge23" class="edge"><title>n15031&#45;&gt;n15067</title>
<path fill="none" stroke="lightgray" d="M463.181,-1148.43C525.501,-1139.43 689.797,-1113.77 822.987,-1076 827.9,-1074.61 833.011,-1072.95 838.016,-1071.21"/>
<polygon fill="lightgray" stroke="lightgray" points="839.225,-1074.49 847.43,-1067.79 836.835,-1067.91 839.225,-1074.49"/>
<text text-anchor="middle" x="656.987" y="-1147.8" font-family="Times New Roman,serif" font-size="14.00" fill="lightgray">wff ( ( ph / ps ) / ch )</text>
</g>
<!-- n15038 -->
<g id="node22" class="node"><title>n15038</title>
<ellipse fill="none" stroke="lightgray" cx="436.591" cy="-1057" rx="27" ry="18"/>
<text text-anchor="middle" x="436.591" y="-1053.3" font-family="Times New Roman,serif" font-size="14.00" fill="lightgray">wo</text>
</g>
<!-- n15031&#45;&gt;n15038 -->
<g id="edge81" class="edge"><title>n15031&#45;&gt;n15038</title>
</g>
<!-- n15030&#45;&gt;n15031 -->
<g id="edge22" class="edge"><title>n15030&#45;&gt;n15031</title>
<path fill="none" stroke="lightgray" d="M189.225,-1152C238.156,-1152 343.685,-1152 399.415,-1152"/>
<polygon fill="lightgray" stroke="lightgray" points="399.542,-1155.5 409.542,-1152 399.542,-1148.5 399.542,-1155.5"/>
<text text-anchor="middle" x="298.694" y="-1155.8" font-family="Times New Roman,serif" font-size="14.00" fill="lightgray">wff ch</text>
</g>
<!-- n15032 -->
<g id="node19" class="node"><title>n15032</title>
<ellipse fill="none" stroke="lightgray" cx="27" cy="-1098" rx="27" ry="18"/>
<text text-anchor="middle" x="27" y="-1094.3" font-family="Times New Roman,serif" font-size="14.00" fill="lightgray">wph</text>
</g>
<!-- n15034 -->
<g id="node20" class="node"><title>n15034</title>
<ellipse fill="none" stroke="lightgray" cx="162.097" cy="-1098" rx="27" ry="18"/>
<text text-anchor="middle" x="162.097" y="-1094.3" font-family="Times New Roman,serif" font-size="14.00" fill="lightgray">wa</text>
</g>
<!-- n15032&#45;&gt;n15034 -->
<g id="edge25" class="edge"><title>n15032&#45;&gt;n15034</title>
<path fill="none" stroke="lightgray" d="M54.2957,-1098C74.4392,-1098 102.464,-1098 124.752,-1098"/>
<polygon fill="lightgray" stroke="lightgray" points="124.856,-1101.5 134.856,-1098 124.856,-1094.5 124.856,-1101.5"/>
<text text-anchor="middle" x="90.5" y="-1101.8" font-family="Times New Roman,serif" font-size="14.00" fill="lightgray">wff ph</text>
</g>
<!-- n15033 -->
<g id="node21" class="node"><title>n15033</title>
<ellipse fill="none" stroke="lightgray" cx="27" cy="-1026" rx="27" ry="18"/>
<text text-anchor="middle" x="27" y="-1022.3" font-family="Times New Roman,serif" font-size="14.00" fill="lightgray">wch</text>
</g>
<!-- n15032&#45;&gt;n15033 -->
<g id="edge28" class="edge"><title>n15032&#45;&gt;n15033</title>
</g>
<!-- n15034&#45;&gt;n15038 -->
<g id="edge27" class="edge"><title>n15034&#45;&gt;n15038</title>
<path fill="none" stroke="lightgray" d="M188.732,-1094.14C237.523,-1086.8 343.838,-1070.81 399.685,-1062.4"/>
<polygon fill="lightgray" stroke="lightgray" points="400.457,-1065.83 409.825,-1060.88 399.415,-1058.9 400.457,-1065.83"/>
<text text-anchor="middle" x="298.694" y="-1094.8" font-family="Times New Roman,serif" font-size="14.00" fill="lightgray">wff ( ph / ch )</text>
</g>
<!-- n15037 -->
<g id="node24" class="node"><title>n15037</title>
<ellipse fill="none" stroke="lightgray" cx="162.097" cy="-1026" rx="27" ry="18"/>
<text text-anchor="middle" x="162.097" y="-1022.3" font-family="Times New Roman,serif" font-size="14.00" fill="lightgray">wa</text>
</g>
<!-- n15034&#45;&gt;n15037 -->
<g id="edge34" class="edge"><title>n15034&#45;&gt;n15037</title>
</g>
<!-- n15033&#45;&gt;n15034 -->
<g id="edge26" class="edge"><title>n15033&#45;&gt;n15034</title>
<path fill="none" stroke="lightgray" d="M48.5047,-1037.09C70.6181,-1049.05 106.036,-1068.21 131.239,-1081.85"/>
<polygon fill="lightgray" stroke="lightgray" points="129.889,-1085.1 140.35,-1086.78 133.219,-1078.94 129.889,-1085.1"/>
<text text-anchor="middle" x="90.5" y="-1072.8" font-family="Times New Roman,serif" font-size="14.00" fill="lightgray">wff ch</text>
</g>
<!-- n15038&#45;&gt;n15067 -->
<g id="edge33" class="edge"><title>n15038&#45;&gt;n15067</title>
<path fill="none" stroke="lightgray" d="M463.894,-1057C536.625,-1057 740.968,-1057 830.66,-1057"/>
<polygon fill="lightgray" stroke="lightgray" points="830.76,-1060.5 840.76,-1057 830.76,-1053.5 830.76,-1060.5"/>
<text text-anchor="middle" x="656.987" y="-1060.8" font-family="Times New Roman,serif" font-size="14.00" fill="lightgray">wff ( ( ph / ch ) / ( ps / ch ) )</text>
</g>
<!-- n15042 -->
<g id="node27" class="node"><title>n15042</title>
<ellipse fill="cyan" stroke="black" cx="436.591" cy="-940" rx="27" ry="18"/>
<text text-anchor="middle" x="436.591" y="-936.3" font-family="Times New Roman,serif" font-size="14.00">andi</text>
</g>
<!-- n15038&#45;&gt;n15042 -->
<g id="edge82" class="edge"><title>n15038&#45;&gt;n15042</title>
</g>
<!-- n15035 -->
<g id="node23" class="node"><title>n15035</title>
<ellipse fill="none" stroke="lightgray" cx="27" cy="-972" rx="27" ry="18"/>
<text text-anchor="middle" x="27" y="-968.3" font-family="Times New Roman,serif" font-size="14.00" fill="lightgray">wps</text>
</g>
<!-- n15035&#45;&gt;n15037 -->
<g id="edge29" class="edge"><title>n15035&#45;&gt;n15037</title>
<path fill="none" stroke="lightgray" d="M50.5781,-981.16C72.0892,-989.888 104.695,-1003.12 128.922,-1012.95"/>
<polygon fill="lightgray" stroke="lightgray" points="127.826,-1016.28 138.408,-1016.79 130.458,-1009.79 127.826,-1016.28"/>
<text text-anchor="middle" x="90.5" y="-1007.8" font-family="Times New Roman,serif" font-size="14.00" fill="lightgray">wff ps</text>
</g>
<!-- n15036 -->
<g id="node25" class="node"><title>n15036</title>
<ellipse fill="none" stroke="lightgray" cx="27" cy="-900" rx="27" ry="18"/>
<text text-anchor="middle" x="27" y="-896.3" font-family="Times New Roman,serif" font-size="14.00" fill="lightgray">wch</text>
</g>
<!-- n15035&#45;&gt;n15036 -->
<g id="edge32" class="edge"><title>n15035&#45;&gt;n15036</title>
</g>
<!-- n15037&#45;&gt;n15038 -->
<g id="edge31" class="edge"><title>n15037&#45;&gt;n15038</title>
<path fill="none" stroke="lightgray" d="M189.226,-1026.82C230.464,-1028.42 313.058,-1032.82 382.194,-1044 388.498,-1045.02 395.157,-1046.4 401.553,-1047.87"/>
<polygon fill="lightgray" stroke="lightgray" points="400.756,-1051.28 411.299,-1050.23 402.406,-1044.48 400.756,-1051.28"/>
<text text-anchor="middle" x="298.694" y="-1047.8" font-family="Times New Roman,serif" font-size="14.00" fill="lightgray">wff ( ps / ch )</text>
</g>
<!-- n15036&#45;&gt;n15037 -->
<g id="edge30" class="edge"><title>n15036&#45;&gt;n15037</title>
<path fill="none" stroke="lightgray" d="M45.1895,-913.503C62.3559,-927.427 88.9954,-950.257 109,-973 118.282,-983.553 117.386,-988.748 127,-999 129.45,-1001.61 132.163,-1004.18 134.957,-1006.64"/>
<polygon fill="lightgray" stroke="lightgray" points="132.956,-1009.53 142.896,-1013.19 137.412,-1004.13 132.956,-1009.53"/>
<text text-anchor="middle" x="90.5" y="-976.8" font-family="Times New Roman,serif" font-size="14.00" fill="lightgray">wff ch</text>
</g>
<!-- n15039 -->
<g id="node26" class="node"><title>n15039</title>
<ellipse fill="none" stroke="lightgray" cx="162.097" cy="-972" rx="27" ry="18"/>
<text text-anchor="middle" x="162.097" y="-968.3" font-family="Times New Roman,serif" font-size="14.00" fill="lightgray">wch</text>
</g>
<!-- n15039&#45;&gt;n15042 -->
<g id="edge35" class="edge"><title>n15039&#45;&gt;n15042</title>
<path fill="none" stroke="lightgray" d="M188.732,-968.99C237.523,-963.26 343.838,-950.775 399.685,-944.217"/>
<polygon fill="lightgray" stroke="lightgray" points="400.301,-947.668 409.825,-943.026 399.485,-940.716 400.301,-947.668"/>
<text text-anchor="middle" x="298.694" y="-969.8" font-family="Times New Roman,serif" font-size="14.00" fill="lightgray">wff ch</text>
</g>
<!-- n15040 -->
<g id="node28" class="node"><title>n15040</title>
<ellipse fill="none" stroke="lightgray" cx="162.097" cy="-900" rx="27" ry="18"/>
<text text-anchor="middle" x="162.097" y="-896.3" font-family="Times New Roman,serif" font-size="14.00" fill="lightgray">wph</text>
</g>
<!-- n15039&#45;&gt;n15040 -->
<g id="edge39" class="edge"><title>n15039&#45;&gt;n15040</title>
</g>
<!-- n15042&#45;&gt;n15067 -->
<g id="edge38" class="edge"><title>n15042&#45;&gt;n15067</title>
<path fill="none" stroke="black" d="M462.652,-945.377C524.464,-958.854 688.914,-996.016 822.987,-1038 827.86,-1039.53 832.949,-1041.26 837.942,-1043.04"/>
<polygon fill="black" stroke="black" points="836.753,-1046.33 847.347,-1046.49 839.163,-1039.76 836.753,-1046.33"/>
<text text-anchor="middle" x="656.987" y="-1041.8" font-family="Times New Roman,serif" font-size="14.00">|&#45; ( ( ch / ( ph / ps ) ) &lt;&#45;&gt; ( ( ch / ph ) / ( ch / ps ) ) )</text>
</g>
<!-- n15047 -->
<g id="node33" class="node"><title>n15047</title>
<ellipse fill="cyan" stroke="black" cx="436.591" cy="-774" rx="35.194" ry="18"/>
<text text-anchor="middle" x="436.591" y="-770.3" font-family="Times New Roman,serif" font-size="14.00">ancom</text>
</g>
<!-- n15042&#45;&gt;n15047 -->
<g id="edge83" class="edge"><title>n15042&#45;&gt;n15047</title>
</g>
<!-- n15040&#45;&gt;n15042 -->
<g id="edge36" class="edge"><title>n15040&#45;&gt;n15042</title>
<path fill="none" stroke="lightgray" d="M188.85,-902.499C229.919,-906.661 312.702,-915.779 382.194,-928 388.249,-929.065 394.654,-930.358 400.845,-931.696"/>
<polygon fill="lightgray" stroke="lightgray" points="400.442,-935.192 410.964,-933.958 401.969,-928.361 400.442,-935.192"/>
<text text-anchor="middle" x="298.694" y="-931.8" font-family="Times New Roman,serif" font-size="14.00" fill="lightgray">wff ph</text>
</g>
<!-- n15041 -->
<g id="node29" class="node"><title>n15041</title>
<ellipse fill="none" stroke="lightgray" cx="162.097" cy="-828" rx="27" ry="18"/>
<text text-anchor="middle" x="162.097" y="-824.3" font-family="Times New Roman,serif" font-size="14.00" fill="lightgray">wps</text>
</g>
<!-- n15040&#45;&gt;n15041 -->
<g id="edge40" class="edge"><title>n15040&#45;&gt;n15041</title>
</g>
<!-- n15041&#45;&gt;n15042 -->
<g id="edge37" class="edge"><title>n15041&#45;&gt;n15042</title>
<path fill="none" stroke="lightgray" d="M189.039,-830.622C231.808,-835.863 318.694,-850.444 382.194,-887 395.183,-894.478 407.256,-905.901 416.625,-916.23"/>
<polygon fill="lightgray" stroke="lightgray" points="414.03,-918.58 423.232,-923.831 419.313,-913.988 414.03,-918.58"/>
<text text-anchor="middle" x="298.694" y="-890.8" font-family="Times New Roman,serif" font-size="14.00" fill="lightgray">wff ps</text>
</g>
<!-- n15043 -->
<g id="node30" class="node"><title>n15043</title>
<ellipse fill="none" stroke="lightgray" cx="27" cy="-846" rx="27" ry="18"/>
<text text-anchor="middle" x="27" y="-842.3" font-family="Times New Roman,serif" font-size="14.00" fill="lightgray">wps</text>
</g>
<!-- n15045 -->
<g id="node31" class="node"><title>n15045</title>
<ellipse fill="none" stroke="lightgray" cx="162.097" cy="-774" rx="27" ry="18"/>
<text text-anchor="middle" x="162.097" y="-770.3" font-family="Times New Roman,serif" font-size="14.00" fill="lightgray">wo</text>
</g>
<!-- n15043&#45;&gt;n15045 -->
<g id="edge41" class="edge"><title>n15043&#45;&gt;n15045</title>
<path fill="none" stroke="lightgray" d="M48.5047,-834.908C70.6181,-822.945 106.036,-803.786 131.239,-790.152"/>
<polygon fill="lightgray" stroke="lightgray" points="133.219,-793.06 140.35,-785.223 129.889,-786.903 133.219,-793.06"/>
<text text-anchor="middle" x="90.5" y="-824.8" font-family="Times New Roman,serif" font-size="14.00" fill="lightgray">wff ps</text>
</g>
<!-- n15044 -->
<g id="node32" class="node"><title>n15044</title>
<ellipse fill="none" stroke="lightgray" cx="27" cy="-774" rx="27" ry="18"/>
<text text-anchor="middle" x="27" y="-770.3" font-family="Times New Roman,serif" font-size="14.00" fill="lightgray">wph</text>
</g>
<!-- n15043&#45;&gt;n15044 -->
<g id="edge44" class="edge"><title>n15043&#45;&gt;n15044</title>
</g>
<!-- n15045&#45;&gt;n15047 -->
<g id="edge43" class="edge"><title>n15045&#45;&gt;n15047</title>
<path fill="none" stroke="lightgray" d="M189.225,-774C235.749,-774 333.442,-774 390.845,-774"/>
<polygon fill="lightgray" stroke="lightgray" points="391.073,-777.5 401.073,-774 391.073,-770.5 391.073,-777.5"/>
<text text-anchor="middle" x="298.694" y="-777.8" font-family="Times New Roman,serif" font-size="14.00" fill="lightgray">wff ( ph / ps )</text>
</g>
<!-- n15046 -->
<g id="node34" class="node"><title>n15046</title>
<ellipse fill="none" stroke="lightgray" cx="162.097" cy="-702" rx="27" ry="18"/>
<text text-anchor="middle" x="162.097" y="-698.3" font-family="Times New Roman,serif" font-size="14.00" fill="lightgray">wch</text>
</g>
<!-- n15045&#45;&gt;n15046 -->
<g id="edge47" class="edge"><title>n15045&#45;&gt;n15046</title>
</g>
<!-- n15044&#45;&gt;n15045 -->
<g id="edge42" class="edge"><title>n15044&#45;&gt;n15045</title>
<path fill="none" stroke="lightgray" d="M54.2957,-774C74.4392,-774 102.464,-774 124.752,-774"/>
<polygon fill="lightgray" stroke="lightgray" points="124.856,-777.5 134.856,-774 124.856,-770.5 124.856,-777.5"/>
<text text-anchor="middle" x="90.5" y="-777.8" font-family="Times New Roman,serif" font-size="14.00" fill="lightgray">wff ph</text>
</g>
<!-- n15047&#45;&gt;n15067 -->
<g id="edge46" class="edge"><title>n15047&#45;&gt;n15067</title>
<path fill="none" stroke="black" d="M470.427,-778.945C543.422,-791.578 720.756,-831.579 822.987,-934 849.038,-960.099 862.351,-1001.47 868.682,-1028.92"/>
<polygon fill="black" stroke="black" points="865.26,-1029.65 870.779,-1038.7 872.105,-1028.19 865.26,-1029.65"/>
<text text-anchor="middle" x="656.987" y="-937.8" font-family="Times New Roman,serif" font-size="14.00">|&#45; ( ( ( ph / ps ) / ch ) &lt;&#45;&gt; ( ch / ( ph / ps ) ) )</text>
</g>
<!-- n15066 -->
<g id="node38" class="node"><title>n15066</title>
<ellipse fill="cyan" stroke="black" cx="436.591" cy="-489" rx="36.2938" ry="18"/>
<text text-anchor="middle" x="436.591" y="-485.3" font-family="Times New Roman,serif" font-size="14.00">orbi12i</text>
</g>
<!-- n15047&#45;&gt;n15066 -->
<g id="edge84" class="edge"><title>n15047&#45;&gt;n15066</title>
</g>
<!-- n15046&#45;&gt;n15047 -->
<g id="edge45" class="edge"><title>n15046&#45;&gt;n15047</title>
<path fill="none" stroke="lightgray" d="M188.296,-707.198C229.288,-715.854 312.809,-734.325 382.194,-755 387.439,-756.563 392.926,-758.344 398.302,-760.174"/>
<polygon fill="lightgray" stroke="lightgray" points="397.187,-763.492 407.782,-763.485 399.496,-756.884 397.187,-763.492"/>
<text text-anchor="middle" x="298.694" y="-758.8" font-family="Times New Roman,serif" font-size="14.00" fill="lightgray">wff ch</text>
</g>
<!-- n15048 -->
<g id="node35" class="node"><title>n15048</title>
<ellipse fill="none" stroke="lightgray" cx="27" cy="-720" rx="27" ry="18"/>
<text text-anchor="middle" x="27" y="-716.3" font-family="Times New Roman,serif" font-size="14.00" fill="lightgray">wch</text>
</g>
<!-- n15050 -->
<g id="node36" class="node"><title>n15050</title>
<ellipse fill="none" stroke="lightgray" cx="162.097" cy="-617" rx="27" ry="18"/>
<text text-anchor="middle" x="162.097" y="-613.3" font-family="Times New Roman,serif" font-size="14.00" fill="lightgray">wa</text>
</g>
<!-- n15048&#45;&gt;n15050 -->
<g id="edge48" class="edge"><title>n15048&#45;&gt;n15050</title>
<path fill="none" stroke="lightgray" d="M45.4001,-706.535C68.417,-688.722 109.157,-657.195 135.637,-636.703"/>
<polygon fill="lightgray" stroke="lightgray" points="137.926,-639.357 143.693,-630.469 133.642,-633.821 137.926,-639.357"/>
<text text-anchor="middle" x="90.5" y="-687.8" font-family="Times New Roman,serif" font-size="14.00" fill="lightgray">wff ch</text>
</g>
<!-- n15049 -->
<g id="node37" class="node"><title>n15049</title>
<ellipse fill="none" stroke="lightgray" cx="27" cy="-648" rx="27" ry="18"/>
<text text-anchor="middle" x="27" y="-644.3" font-family="Times New Roman,serif" font-size="14.00" fill="lightgray">wph</text>
</g>
<!-- n15048&#45;&gt;n15049 -->
<g id="edge51" class="edge"><title>n15048&#45;&gt;n15049</title>
</g>
<!-- n15050&#45;&gt;n15066 -->
<g id="edge50" class="edge"><title>n15050&#45;&gt;n15066</title>
<path fill="none" stroke="lightgray" d="M188.304,-612.031C230.751,-602.87 318.128,-580.546 382.194,-541 394.184,-533.599 405.635,-523.086 414.836,-513.447"/>
<polygon fill="lightgray" stroke="lightgray" points="417.508,-515.711 421.7,-505.981 412.355,-510.974 417.508,-515.711"/>
<text text-anchor="middle" x="298.694" y="-608.8" font-family="Times New Roman,serif" font-size="14.00" fill="lightgray">wff ( ph / ch )</text>
</g>
<!-- n15053 -->
<g id="node40" class="node"><title>n15053</title>
<ellipse fill="none" stroke="lightgray" cx="162.097" cy="-529" rx="27" ry="18"/>
<text text-anchor="middle" x="162.097" y="-525.3" font-family="Times New Roman,serif" font-size="14.00" fill="lightgray">wa</text>
</g>
<!-- n15050&#45;&gt;n15053 -->
<g id="edge73" class="edge"><title>n15050&#45;&gt;n15053</title>
</g>
<!-- n15049&#45;&gt;n15050 -->
<g id="edge49" class="edge"><title>n15049&#45;&gt;n15050</title>
<path fill="none" stroke="lightgray" d="M52.7226,-642.242C73.4162,-637.422 103.184,-630.489 126.287,-625.108"/>
<polygon fill="lightgray" stroke="lightgray" points="127.11,-628.51 136.055,-622.833 125.522,-621.692 127.11,-628.51"/>
<text text-anchor="middle" x="90.5" y="-641.8" font-family="Times New Roman,serif" font-size="14.00" fill="lightgray">wff ph</text>
</g>
<!-- n15066&#45;&gt;n15067 -->
<g id="edge72" class="edge"><title>n15066&#45;&gt;n15067</title>
<path fill="none" stroke="black" d="M465.634,-500.043C538.214,-530.203 732.822,-621.433 822.987,-765 850.539,-808.869 866.175,-964.369 871.595,-1028.76"/>
<polygon fill="black" stroke="black" points="868.127,-1029.3 872.433,-1038.98 875.104,-1028.73 868.127,-1029.3"/>
<text text-anchor="middle" x="656.987" y="-768.8" font-family="Times New Roman,serif" font-size="14.00">|&#45; ( ( ( ph / ch ) / ( ps / ch ) ) &lt;&#45;&gt; ( ( ch / ph ) / ( ch / ps ) ) )</text>
</g>
<!-- n15051 -->
<g id="node39" class="node"><title>n15051</title>
<ellipse fill="none" stroke="lightgray" cx="27" cy="-594" rx="27" ry="18"/>
<text text-anchor="middle" x="27" y="-590.3" font-family="Times New Roman,serif" font-size="14.00" fill="lightgray">wph</text>
</g>
<!-- n15051&#45;&gt;n15053 -->
<g id="edge52" class="edge"><title>n15051&#45;&gt;n15053</title>
<path fill="none" stroke="lightgray" d="M49.3843,-583.557C71.408,-572.801 105.927,-555.943 130.766,-543.813"/>
<polygon fill="lightgray" stroke="lightgray" points="132.316,-546.951 139.766,-539.417 129.244,-540.661 132.316,-546.951"/>
<text text-anchor="middle" x="90.5" y="-575.8" font-family="Times New Roman,serif" font-size="14.00" fill="lightgray">wff ph</text>
</g>
<!-- n15052 -->
<g id="node41" class="node"><title>n15052</title>
<ellipse fill="none" stroke="lightgray" cx="27" cy="-522" rx="27" ry="18"/>
<text text-anchor="middle" x="27" y="-518.3" font-family="Times New Roman,serif" font-size="14.00" fill="lightgray">wch</text>
</g>
<!-- n15051&#45;&gt;n15052 -->
<g id="edge55" class="edge"><title>n15051&#45;&gt;n15052</title>
</g>
<!-- n15053&#45;&gt;n15066 -->
<g id="edge54" class="edge"><title>n15053&#45;&gt;n15066</title>
<path fill="none" stroke="lightgray" d="M188.732,-525.237C235.226,-518.412 333.956,-503.919 391.473,-495.476"/>
<polygon fill="lightgray" stroke="lightgray" points="391.982,-498.939 401.368,-494.024 390.966,-492.013 391.982,-498.939"/>
<text text-anchor="middle" x="298.694" y="-525.8" font-family="Times New Roman,serif" font-size="14.00" fill="lightgray">wff ( ch / ph )</text>
</g>
<!-- n15056 -->
<g id="node43" class="node"><title>n15056</title>
<ellipse fill="none" stroke="lightgray" cx="162.097" cy="-457" rx="27" ry="18"/>
<text text-anchor="middle" x="162.097" y="-453.3" font-family="Times New Roman,serif" font-size="14.00" fill="lightgray">wa</text>
</g>
<!-- n15053&#45;&gt;n15056 -->
<g id="edge74" class="edge"><title>n15053&#45;&gt;n15056</title>
</g>
<!-- n15052&#45;&gt;n15053 -->
<g id="edge53" class="edge"><title>n15052&#45;&gt;n15053</title>
<path fill="none" stroke="lightgray" d="M53.9784,-523.366C74.0934,-524.424 102.205,-525.903 124.583,-527.08"/>
<polygon fill="lightgray" stroke="lightgray" points="124.559,-530.583 134.729,-527.613 124.927,-523.593 124.559,-530.583"/>
<text text-anchor="middle" x="90.5" y="-530.8" font-family="Times New Roman,serif" font-size="14.00" fill="lightgray">wff ch</text>
</g>
<!-- n15054 -->
<g id="node42" class="node"><title>n15054</title>
<ellipse fill="none" stroke="lightgray" cx="27" cy="-468" rx="27" ry="18"/>
<text text-anchor="middle" x="27" y="-464.3" font-family="Times New Roman,serif" font-size="14.00" fill="lightgray">wch</text>
</g>
<!-- n15054&#45;&gt;n15056 -->
<g id="edge56" class="edge"><title>n15054&#45;&gt;n15056</title>
<path fill="none" stroke="lightgray" d="M53.9784,-465.853C74.2241,-464.18 102.571,-461.837 125.018,-459.982"/>
<polygon fill="lightgray" stroke="lightgray" points="125.506,-463.453 135.184,-459.142 124.93,-456.477 125.506,-463.453"/>
<text text-anchor="middle" x="90.5" y="-468.8" font-family="Times New Roman,serif" font-size="14.00" fill="lightgray">wff ch</text>
</g>
<!-- n15055 -->
<g id="node44" class="node"><title>n15055</title>
<ellipse fill="none" stroke="lightgray" cx="27" cy="-396" rx="27" ry="18"/>
<text text-anchor="middle" x="27" y="-392.3" font-family="Times New Roman,serif" font-size="14.00" fill="lightgray">wps</text>
</g>
<!-- n15054&#45;&gt;n15055 -->
<g id="edge59" class="edge"><title>n15054&#45;&gt;n15055</title>
</g>
<!-- n15056&#45;&gt;n15066 -->
<g id="edge58" class="edge"><title>n15056&#45;&gt;n15066</title>
<path fill="none" stroke="lightgray" d="M189.251,-457.676C230.521,-459.072 313.16,-463.207 382.194,-475 386.392,-475.717 390.741,-476.607 395.063,-477.588"/>
<polygon fill="lightgray" stroke="lightgray" points="394.47,-481.046 405.013,-480.005 396.122,-474.244 394.47,-481.046"/>
<text text-anchor="middle" x="298.694" y="-478.8" font-family="Times New Roman,serif" font-size="14.00" fill="lightgray">wff ( ps / ch )</text>
</g>
<!-- n15059 -->
<g id="node46" class="node"><title>n15059</title>
<ellipse fill="none" stroke="lightgray" cx="162.097" cy="-342" rx="27" ry="18"/>
<text text-anchor="middle" x="162.097" y="-338.3" font-family="Times New Roman,serif" font-size="14.00" fill="lightgray">wa</text>
</g>
<!-- n15056&#45;&gt;n15059 -->
<g id="edge75" class="edge"><title>n15056&#45;&gt;n15059</title>
</g>
<!-- n15055&#45;&gt;n15056 -->
<g id="edge57" class="edge"><title>n15055&#45;&gt;n15056</title>
<path fill="none" stroke="lightgray" d="M49.6805,-405.936C71.5303,-415.95 105.459,-431.5 130.137,-442.811"/>
<polygon fill="lightgray" stroke="lightgray" points="128.877,-446.083 139.426,-447.068 131.793,-439.72 128.877,-446.083"/>
<text text-anchor="middle" x="90.5" y="-435.8" font-family="Times New Roman,serif" font-size="14.00" fill="lightgray">wff ps</text>
</g>
<!-- n15057 -->
<g id="node45" class="node"><title>n15057</title>
<ellipse fill="none" stroke="lightgray" cx="27" cy="-342" rx="27" ry="18"/>
<text text-anchor="middle" x="27" y="-338.3" font-family="Times New Roman,serif" font-size="14.00" fill="lightgray">wps</text>
</g>
<!-- n15057&#45;&gt;n15059 -->
<g id="edge60" class="edge"><title>n15057&#45;&gt;n15059</title>
<path fill="none" stroke="lightgray" d="M54.2957,-342C74.4392,-342 102.464,-342 124.752,-342"/>
<polygon fill="lightgray" stroke="lightgray" points="124.856,-345.5 134.856,-342 124.856,-338.5 124.856,-345.5"/>
<text text-anchor="middle" x="90.5" y="-345.8" font-family="Times New Roman,serif" font-size="14.00" fill="lightgray">wff ps</text>
</g>
<!-- n15058 -->
<g id="node47" class="node"><title>n15058</title>
<ellipse fill="none" stroke="lightgray" cx="27" cy="-270" rx="27" ry="18"/>
<text text-anchor="middle" x="27" y="-266.3" font-family="Times New Roman,serif" font-size="14.00" fill="lightgray">wch</text>
</g>
<!-- n15057&#45;&gt;n15058 -->
<g id="edge63" class="edge"><title>n15057&#45;&gt;n15058</title>
</g>
<!-- n15059&#45;&gt;n15066 -->
<g id="edge62" class="edge"><title>n15059&#45;&gt;n15066</title>
<path fill="none" stroke="lightgray" d="M186.741,-349.735C228.326,-363.94 316.385,-396.739 382.194,-440 393.2,-447.235 404.134,-456.747 413.215,-465.464"/>
<polygon fill="lightgray" stroke="lightgray" points="410.794,-467.992 420.367,-472.531 415.714,-463.013 410.794,-467.992"/>
<text text-anchor="middle" x="298.694" y="-443.8" font-family="Times New Roman,serif" font-size="14.00" fill="lightgray">wff ( ch / ps )</text>
</g>
<!-- n15062 -->
<g id="node49" class="node"><title>n15062</title>
<ellipse fill="cyan" stroke="black" cx="162.097" cy="-216" rx="35.194" ry="18"/>
<text text-anchor="middle" x="162.097" y="-212.3" font-family="Times New Roman,serif" font-size="14.00">ancom</text>
</g>
<!-- n15059&#45;&gt;n15062 -->
<g id="edge76" class="edge"><title>n15059&#45;&gt;n15062</title>
</g>
<!-- n15058&#45;&gt;n15059 -->
<g id="edge61" class="edge"><title>n15058&#45;&gt;n15059</title>
<path fill="none" stroke="lightgray" d="M48.5047,-281.092C70.6181,-293.055 106.036,-312.214 131.239,-325.848"/>
<polygon fill="lightgray" stroke="lightgray" points="129.889,-329.097 140.35,-330.777 133.219,-322.94 129.889,-329.097"/>
<text text-anchor="middle" x="90.5" y="-316.8" font-family="Times New Roman,serif" font-size="14.00" fill="lightgray">wff ch</text>
</g>
<!-- n15060 -->
<g id="node48" class="node"><title>n15060</title>
<ellipse fill="none" stroke="lightgray" cx="27" cy="-216" rx="27" ry="18"/>
<text text-anchor="middle" x="27" y="-212.3" font-family="Times New Roman,serif" font-size="14.00" fill="lightgray">wph</text>
</g>
<!-- n15060&#45;&gt;n15062 -->
<g id="edge64" class="edge"><title>n15060&#45;&gt;n15062</title>
<path fill="none" stroke="lightgray" d="M54.2957,-216C72.0534,-216 95.9362,-216 116.614,-216"/>
<polygon fill="lightgray" stroke="lightgray" points="116.775,-219.5 126.775,-216 116.775,-212.5 116.775,-219.5"/>
<text text-anchor="middle" x="90.5" y="-219.8" font-family="Times New Roman,serif" font-size="14.00" fill="lightgray">wff ph</text>
</g>
<!-- n15061 -->
<g id="node50" class="node"><title>n15061</title>
<ellipse fill="none" stroke="lightgray" cx="27" cy="-144" rx="27" ry="18"/>
<text text-anchor="middle" x="27" y="-140.3" font-family="Times New Roman,serif" font-size="14.00" fill="lightgray">wch</text>
</g>
<!-- n15060&#45;&gt;n15061 -->
<g id="edge67" class="edge"><title>n15060&#45;&gt;n15061</title>
</g>
<!-- n15062&#45;&gt;n15066 -->
<g id="edge66" class="edge"><title>n15062&#45;&gt;n15066</title>
<path fill="none" stroke="black" d="M192.244,-225.509C238.777,-242.113 329.917,-280.688 382.194,-343 411.182,-377.552 425.077,-429.207 431.233,-460.913"/>
<polygon fill="black" stroke="black" points="427.806,-461.633 433.034,-470.848 434.694,-460.384 427.806,-461.633"/>
<text text-anchor="middle" x="298.694" y="-346.8" font-family="Times New Roman,serif" font-size="14.00">|&#45; ( ( ph / ch ) &lt;&#45;&gt; ( ch / ph ) )</text>
</g>
<!-- n15065 -->
<g id="node52" class="node"><title>n15065</title>
<ellipse fill="cyan" stroke="black" cx="162.097" cy="-117" rx="35.194" ry="18"/>
<text text-anchor="middle" x="162.097" y="-113.3" font-family="Times New Roman,serif" font-size="14.00">ancom</text>
</g>
<!-- n15062&#45;&gt;n15065 -->
<g id="edge77" class="edge"><title>n15062&#45;&gt;n15065</title>
</g>
<!-- n15061&#45;&gt;n15062 -->
<g id="edge65" class="edge"><title>n15061&#45;&gt;n15062</title>
<path fill="none" stroke="lightgray" d="M48.5047,-155.092C69.7129,-166.565 103.158,-184.657 128.094,-198.147"/>
<polygon fill="lightgray" stroke="lightgray" points="126.731,-201.388 137.191,-203.068 130.061,-195.232 126.731,-201.388"/>
<text text-anchor="middle" x="90.5" y="-190.8" font-family="Times New Roman,serif" font-size="14.00" fill="lightgray">wff ch</text>
</g>
<!-- n15063 -->
<g id="node51" class="node"><title>n15063</title>
<ellipse fill="none" stroke="lightgray" cx="27" cy="-90" rx="27" ry="18"/>
<text text-anchor="middle" x="27" y="-86.3" font-family="Times New Roman,serif" font-size="14.00" fill="lightgray">wps</text>
</g>
<!-- n15063&#45;&gt;n15065 -->
<g id="edge68" class="edge"><title>n15063&#45;&gt;n15065</title>
<path fill="none" stroke="lightgray" d="M53.0345,-95.0785C71.6266,-98.8501 97.4164,-104.082 119.139,-108.488"/>
<polygon fill="lightgray" stroke="lightgray" points="118.612,-111.953 129.108,-110.511 120.004,-105.093 118.612,-111.953"/>
<text text-anchor="middle" x="90.5" y="-109.8" font-family="Times New Roman,serif" font-size="14.00" fill="lightgray">wff ps</text>
</g>
<!-- n15064 -->
<g id="node53" class="node"><title>n15064</title>
<ellipse fill="none" stroke="lightgray" cx="27" cy="-18" rx="27" ry="18"/>
<text text-anchor="middle" x="27" y="-14.3" font-family="Times New Roman,serif" font-size="14.00" fill="lightgray">wch</text>
</g>
<!-- n15063&#45;&gt;n15064 -->
<g id="edge71" class="edge"><title>n15063&#45;&gt;n15064</title>
</g>
<!-- n15065&#45;&gt;n15066 -->
<g id="edge70" class="edge"><title>n15065&#45;&gt;n15066</title>
<path fill="none" stroke="black" d="M196.016,-122.344C244.695,-132.064 335.173,-157.433 382.194,-217 411.94,-254.683 427.754,-398.848 433.284,-460.626"/>
<polygon fill="black" stroke="black" points="429.817,-461.162 434.169,-470.822 436.791,-460.556 429.817,-461.162"/>
<text text-anchor="middle" x="298.694" y="-220.8" font-family="Times New Roman,serif" font-size="14.00">|&#45; ( ( ps / ch ) &lt;&#45;&gt; ( ch / ps ) )</text>
</g>
<!-- n15064&#45;&gt;n15065 -->
<g id="edge69" class="edge"><title>n15064&#45;&gt;n15065</title>
<path fill="none" stroke="lightgray" d="M45.6742,-31.1464C68.0068,-47.7578 106.705,-76.5424 133.082,-96.162"/>
<polygon fill="lightgray" stroke="lightgray" points="131.064,-99.0229 141.177,-102.183 135.242,-93.4063 131.064,-99.0229"/>
<text text-anchor="middle" x="90.5" y="-80.8" font-family="Times New Roman,serif" font-size="14.00" fill="lightgray">wff ch</text>
</g>
</g>
</svg>
