<?xml version="1.0" encoding="UTF-8" standalone="no"?>
<!DOCTYPE svg PUBLIC "-//W3C//DTD SVG 1.1//EN"
 "http://www.w3.org/Graphics/SVG/1.1/DTD/svg11.dtd">
<!-- Generated by graphviz version 2.38.0 (20140413.2041)
 -->
<!-- Title: proof_anidms Pages: 1 -->
<svg width="717pt" height="295pt"
 viewBox="0.00 0.00 717.18 295.00" xmlns="http://www.w3.org/2000/svg" xmlns:xlink="http://www.w3.org/1999/xlink">
<g id="graph0" class="graph" transform="scale(1 1) rotate(0) translate(4 291)">
<title>proof_anidms</title>
<polygon fill="white" stroke="none" points="-4,4 -4,-291 713.18,-291 713.18,4 -4,4"/>
<!-- n11161 -->
<g id="node1" class="node"><title>n11161</title>
<ellipse fill="none" stroke="lightgray" cx="268.092" cy="-269" rx="27" ry="18"/>
<text text-anchor="middle" x="268.092" y="-265.3" font-family="Times New Roman,serif" font-size="14.00" fill="lightgray">wph</text>
</g>
<!-- n11168 -->
<g id="node2" class="node"><title>n11168</title>
<ellipse fill="cyan" stroke="black" cx="498.389" cy="-197" rx="40.0939" ry="18"/>
<text text-anchor="middle" x="498.389" y="-193.3" font-family="Times New Roman,serif" font-size="14.00">pm2.43i</text>
</g>
<!-- n11161&#45;&gt;n11168 -->
<g id="edge1" class="edge"><title>n11161&#45;&gt;n11168</title>
<path fill="none" stroke="lightgray" d="M292.929,-261.774C326.016,-251.706 387.708,-232.802 440.092,-216 445.269,-214.34 450.7,-212.572 456.071,-210.809"/>
<polygon fill="lightgray" stroke="lightgray" points="457.203,-214.121 465.603,-207.664 455.01,-207.473 457.203,-214.121"/>
<text text-anchor="middle" x="376.592" y="-258.8" font-family="Times New Roman,serif" font-size="14.00" fill="lightgray">wff ph</text>
</g>
<!-- n11162 -->
<g id="node3" class="node"><title>n11162</title>
<ellipse fill="none" stroke="lightgray" cx="268.092" cy="-197" rx="27" ry="18"/>
<text text-anchor="middle" x="268.092" y="-193.3" font-family="Times New Roman,serif" font-size="14.00" fill="lightgray">wps</text>
</g>
<!-- n11161&#45;&gt;n11162 -->
<g id="edge12" class="edge"><title>n11161&#45;&gt;n11162</title>
</g>
<!-- QED -->
<g id="node9" class="node"><title>QED</title>
</g>
<!-- n11168&#45;&gt;QED -->
<g id="edge11" class="edge"><title>n11168&#45;&gt;QED</title>
<path fill="none" stroke="black" d="M538.79,-197C568.985,-197 610.421,-197 640.398,-197"/>
<polygon fill="black" stroke="black" points="640.486,-200.5 650.486,-197 640.486,-193.5 640.486,-200.5"/>
<text text-anchor="middle" x="594.685" y="-200.8" font-family="Times New Roman,serif" font-size="14.00">|&#45; ( ph &#45;&gt; ps )</text>
</g>
<!-- n11162&#45;&gt;n11168 -->
<g id="edge2" class="edge"><title>n11162&#45;&gt;n11168</title>
<path fill="none" stroke="lightgray" d="M295.281,-197C332.302,-197 400.644,-197 447.524,-197"/>
<polygon fill="lightgray" stroke="lightgray" points="447.769,-200.5 457.769,-197 447.769,-193.5 447.769,-200.5"/>
<text text-anchor="middle" x="376.592" y="-200.8" font-family="Times New Roman,serif" font-size="14.00" fill="lightgray">wff ps</text>
</g>
<!-- n11167 -->
<g id="node5" class="node"><title>n11167</title>
<ellipse fill="cyan" stroke="black" cx="268.092" cy="-125" rx="27" ry="18"/>
<text text-anchor="middle" x="268.092" y="-121.3" font-family="Times New Roman,serif" font-size="14.00">ex</text>
</g>
<!-- n11162&#45;&gt;n11167 -->
<g id="edge13" class="edge"><title>n11162&#45;&gt;n11167</title>
</g>
<!-- n11163 -->
<g id="node4" class="node"><title>n11163</title>
<ellipse fill="none" stroke="lightgray" cx="43.5461" cy="-234" rx="27" ry="18"/>
<text text-anchor="middle" x="43.5461" y="-230.3" font-family="Times New Roman,serif" font-size="14.00" fill="lightgray">wph</text>
</g>
<!-- n11163&#45;&gt;n11167 -->
<g id="edge3" class="edge"><title>n11163&#45;&gt;n11167</title>
<path fill="none" stroke="lightgray" d="M69.5704,-229.06C105.688,-221.104 173.527,-203.009 223.092,-171 232.422,-164.975 241.208,-156.591 248.439,-148.629"/>
<polygon fill="lightgray" stroke="lightgray" points="251.22,-150.764 255.114,-140.91 245.925,-146.185 251.22,-150.764"/>
<text text-anchor="middle" x="164.092" y="-222.8" font-family="Times New Roman,serif" font-size="14.00" fill="lightgray">wff ph</text>
</g>
<!-- n11164 -->
<g id="node6" class="node"><title>n11164</title>
<ellipse fill="none" stroke="lightgray" cx="43.5461" cy="-162" rx="27" ry="18"/>
<text text-anchor="middle" x="43.5461" y="-158.3" font-family="Times New Roman,serif" font-size="14.00" fill="lightgray">wph</text>
</g>
<!-- n11163&#45;&gt;n11164 -->
<g id="edge8" class="edge"><title>n11163&#45;&gt;n11164</title>
</g>
<!-- n11167&#45;&gt;n11168 -->
<g id="edge7" class="edge"><title>n11167&#45;&gt;n11168</title>
<path fill="none" stroke="black" d="M292.929,-132.226C326.016,-142.294 387.708,-161.198 440.092,-178 445.269,-179.66 450.7,-181.428 456.071,-183.191"/>
<polygon fill="black" stroke="black" points="455.01,-186.527 465.603,-186.336 457.203,-179.879 455.01,-186.527"/>
<text text-anchor="middle" x="376.592" y="-181.8" font-family="Times New Roman,serif" font-size="14.00">|&#45; ( ph &#45;&gt; ( ph &#45;&gt; ps ) )</text>
</g>
<!-- n11164&#45;&gt;n11167 -->
<g id="edge4" class="edge"><title>n11164&#45;&gt;n11167</title>
<path fill="none" stroke="lightgray" d="M70.075,-157.756C109.795,-151.152 186.501,-138.399 231.591,-130.902"/>
<polygon fill="lightgray" stroke="lightgray" points="232.229,-134.344 241.519,-129.252 231.081,-127.439 232.229,-134.344"/>
<text text-anchor="middle" x="164.092" y="-155.8" font-family="Times New Roman,serif" font-size="14.00" fill="lightgray">wff ph</text>
</g>
<!-- n11165 -->
<g id="node7" class="node"><title>n11165</title>
<ellipse fill="none" stroke="lightgray" cx="43.5461" cy="-90" rx="27" ry="18"/>
<text text-anchor="middle" x="43.5461" y="-86.3" font-family="Times New Roman,serif" font-size="14.00" fill="lightgray">wps</text>
</g>
<!-- n11164&#45;&gt;n11165 -->
<g id="edge9" class="edge"><title>n11164&#45;&gt;n11165</title>
</g>
<!-- n11165&#45;&gt;n11167 -->
<g id="edge5" class="edge"><title>n11165&#45;&gt;n11167</title>
<path fill="none" stroke="lightgray" d="M70.3434,-93.2857C105.123,-97.8229 168.94,-106.527 223.092,-116 225.972,-116.504 228.953,-117.053 231.943,-117.624"/>
<polygon fill="lightgray" stroke="lightgray" points="231.521,-121.108 242.01,-119.612 232.877,-114.241 231.521,-121.108"/>
<text text-anchor="middle" x="164.092" y="-119.8" font-family="Times New Roman,serif" font-size="14.00" fill="lightgray">wff ps</text>
</g>
<!-- n11166 -->
<g id="node8" class="node"><title>n11166</title>
<ellipse fill="orange" stroke="black" cx="43.5461" cy="-18" rx="43.5923" ry="18"/>
<text text-anchor="middle" x="43.5461" y="-14.3" font-family="Times New Roman,serif" font-size="14.00">anidms.1</text>
</g>
<!-- n11165&#45;&gt;n11166 -->
<g id="edge10" class="edge"><title>n11165&#45;&gt;n11166</title>
</g>
<!-- n11166&#45;&gt;n11167 -->
<g id="edge6" class="edge"><title>n11166&#45;&gt;n11167</title>
<path fill="none" stroke="black" d="M83.048,-25.9188C120.833,-34.8998 179.039,-52.0468 223.092,-80 232.036,-85.6749 240.515,-93.5043 247.599,-101.043"/>
<polygon fill="black" stroke="black" points="245.425,-103.863 254.695,-108.993 250.647,-99.2021 245.425,-103.863"/>
<text text-anchor="middle" x="164.092" y="-83.8" font-family="Times New Roman,serif" font-size="14.00">|&#45; ( ( ph / ph ) &#45;&gt; ps )</text>
</g>
</g>
</svg>
