<?xml version="1.0" encoding="UTF-8" standalone="no"?>
<!DOCTYPE svg PUBLIC "-//W3C//DTD SVG 1.1//EN"
 "http://www.w3.org/Graphics/SVG/1.1/DTD/svg11.dtd">
<!-- Generated by graphviz version 2.38.0 (20140413.2041)
 -->
<!-- Title: proof_anim1i Pages: 1 -->
<svg width="658pt" height="404pt"
 viewBox="0.00 0.00 658.08 404.00" xmlns="http://www.w3.org/2000/svg" xmlns:xlink="http://www.w3.org/1999/xlink">
<g id="graph0" class="graph" transform="scale(1 1) rotate(0) translate(4 400)">
<title>proof_anim1i</title>
<polygon fill="white" stroke="none" points="-4,4 -4,-400 654.081,-400 654.081,4 -4,4"/>
<!-- n9620 -->
<g id="node1" class="node"><title>n9620</title>
<ellipse fill="none" stroke="lightgray" cx="167.946" cy="-378" rx="27" ry="18"/>
<text text-anchor="middle" x="167.946" y="-374.3" font-family="Times New Roman,serif" font-size="14.00" fill="lightgray">wph</text>
</g>
<!-- n9627 -->
<g id="node2" class="node"><title>n9627</title>
<ellipse fill="cyan" stroke="black" cx="359.239" cy="-197" rx="38.1938" ry="18"/>
<text text-anchor="middle" x="359.239" y="-193.3" font-family="Times New Roman,serif" font-size="14.00">anim12i</text>
</g>
<!-- n9620&#45;&gt;n9627 -->
<g id="edge1" class="edge"><title>n9620&#45;&gt;n9627</title>
<path fill="none" stroke="lightgray" d="M191.829,-369.071C220.692,-356.872 270.462,-332.611 302.893,-299 323.759,-277.375 339.099,-246.323 348.268,-224.17"/>
<polygon fill="lightgray" stroke="lightgray" points="351.598,-225.27 352.045,-214.684 345.094,-222.68 351.598,-225.27"/>
<text text-anchor="middle" x="264.893" y="-355.8" font-family="Times New Roman,serif" font-size="14.00" fill="lightgray">wff ph</text>
</g>
<!-- n9621 -->
<g id="node3" class="node"><title>n9621</title>
<ellipse fill="none" stroke="lightgray" cx="167.946" cy="-306" rx="27" ry="18"/>
<text text-anchor="middle" x="167.946" y="-302.3" font-family="Times New Roman,serif" font-size="14.00" fill="lightgray">wps</text>
</g>
<!-- n9620&#45;&gt;n9621 -->
<g id="edge9" class="edge"><title>n9620&#45;&gt;n9621</title>
</g>
<!-- QED -->
<g id="node9" class="node"><title>QED</title>
</g>
<!-- n9627&#45;&gt;QED -->
<g id="edge8" class="edge"><title>n9627&#45;&gt;QED</title>
<path fill="none" stroke="black" d="M397.709,-197C446.633,-197 531.84,-197 581.288,-197"/>
<polygon fill="black" stroke="black" points="581.567,-200.5 591.567,-197 581.567,-193.5 581.567,-200.5"/>
<text text-anchor="middle" x="494.586" y="-200.8" font-family="Times New Roman,serif" font-size="14.00">|&#45; ( ( ph / ch ) &#45;&gt; ( ps / ch ) )</text>
</g>
<!-- n9621&#45;&gt;n9627 -->
<g id="edge2" class="edge"><title>n9621&#45;&gt;n9627</title>
<path fill="none" stroke="lightgray" d="M191.548,-296.846C218.839,-285.389 265.704,-264.406 302.893,-241 313.074,-234.592 323.571,-226.642 332.65,-219.27"/>
<polygon fill="lightgray" stroke="lightgray" points="335.079,-221.803 340.539,-212.723 330.609,-216.416 335.079,-221.803"/>
<text text-anchor="middle" x="264.893" y="-283.8" font-family="Times New Roman,serif" font-size="14.00" fill="lightgray">wff ps</text>
</g>
<!-- n9622 -->
<g id="node4" class="node"><title>n9622</title>
<ellipse fill="none" stroke="lightgray" cx="167.946" cy="-234" rx="27" ry="18"/>
<text text-anchor="middle" x="167.946" y="-230.3" font-family="Times New Roman,serif" font-size="14.00" fill="lightgray">wch</text>
</g>
<!-- n9621&#45;&gt;n9622 -->
<g id="edge10" class="edge"><title>n9621&#45;&gt;n9622</title>
</g>
<!-- n9622&#45;&gt;n9627 -->
<g id="edge3" class="edge"><title>n9622&#45;&gt;n9627</title>
<path fill="none" stroke="lightgray" d="M194.083,-229.087C224.511,-223.139 276.3,-213.016 313.579,-205.729"/>
<polygon fill="lightgray" stroke="lightgray" points="314.536,-209.109 323.679,-203.755 313.193,-202.239 314.536,-209.109"/>
<text text-anchor="middle" x="264.893" y="-225.8" font-family="Times New Roman,serif" font-size="14.00" fill="lightgray">wff ch</text>
</g>
<!-- n9623 -->
<g id="node5" class="node"><title>n9623</title>
<ellipse fill="none" stroke="lightgray" cx="167.946" cy="-162" rx="27" ry="18"/>
<text text-anchor="middle" x="167.946" y="-158.3" font-family="Times New Roman,serif" font-size="14.00" fill="lightgray">wch</text>
</g>
<!-- n9622&#45;&gt;n9623 -->
<g id="edge11" class="edge"><title>n9622&#45;&gt;n9623</title>
</g>
<!-- n9623&#45;&gt;n9627 -->
<g id="edge4" class="edge"><title>n9623&#45;&gt;n9627</title>
<path fill="none" stroke="lightgray" d="M194.083,-166.648C224.419,-172.257 275.987,-181.792 313.241,-188.68"/>
<polygon fill="lightgray" stroke="lightgray" points="312.869,-192.17 323.339,-190.547 314.142,-185.287 312.869,-192.17"/>
<text text-anchor="middle" x="264.893" y="-190.8" font-family="Times New Roman,serif" font-size="14.00" fill="lightgray">wff ch</text>
</g>
<!-- n9624 -->
<g id="node6" class="node"><title>n9624</title>
<ellipse fill="orange" stroke="black" cx="167.946" cy="-90" rx="40.8928" ry="18"/>
<text text-anchor="middle" x="167.946" y="-86.3" font-family="Times New Roman,serif" font-size="14.00">anim1i.1</text>
</g>
<!-- n9623&#45;&gt;n9624 -->
<g id="edge12" class="edge"><title>n9623&#45;&gt;n9624</title>
</g>
<!-- n9624&#45;&gt;n9627 -->
<g id="edge5" class="edge"><title>n9624&#45;&gt;n9627</title>
<path fill="none" stroke="black" d="M198.297,-102.235C226.034,-114.259 268.416,-133.84 302.893,-155 312.631,-160.977 322.74,-168.281 331.613,-175.112"/>
<polygon fill="black" stroke="black" points="329.663,-178.031 339.688,-181.458 333.988,-172.527 329.663,-178.031"/>
<text text-anchor="middle" x="264.893" y="-158.8" font-family="Times New Roman,serif" font-size="14.00">|&#45; ( ph &#45;&gt; ps )</text>
</g>
<!-- n9626 -->
<g id="node8" class="node"><title>n9626</title>
<ellipse fill="cyan" stroke="black" cx="167.946" cy="-18" rx="27" ry="18"/>
<text text-anchor="middle" x="167.946" y="-14.3" font-family="Times New Roman,serif" font-size="14.00">id</text>
</g>
<!-- n9624&#45;&gt;n9626 -->
<g id="edge13" class="edge"><title>n9624&#45;&gt;n9626</title>
</g>
<!-- n9625 -->
<g id="node7" class="node"><title>n9625</title>
<ellipse fill="none" stroke="lightgray" cx="27" cy="-18" rx="27" ry="18"/>
<text text-anchor="middle" x="27" y="-14.3" font-family="Times New Roman,serif" font-size="14.00" fill="lightgray">wch</text>
</g>
<!-- n9625&#45;&gt;n9626 -->
<g id="edge6" class="edge"><title>n9625&#45;&gt;n9626</title>
<path fill="none" stroke="lightgray" d="M54.1347,-18C75.7739,-18 106.753,-18 130.774,-18"/>
<polygon fill="lightgray" stroke="lightgray" points="130.929,-21.5001 140.929,-18 130.929,-14.5001 130.929,-21.5001"/>
<text text-anchor="middle" x="90.5" y="-21.8" font-family="Times New Roman,serif" font-size="14.00" fill="lightgray">wff ch</text>
</g>
<!-- n9626&#45;&gt;n9627 -->
<g id="edge7" class="edge"><title>n9626&#45;&gt;n9627</title>
<path fill="none" stroke="black" d="M191.785,-26.9715C220.602,-39.2156 270.322,-63.5247 302.893,-97 323.412,-118.089 338.731,-148.3 347.988,-169.989"/>
<polygon fill="black" stroke="black" points="344.773,-171.372 351.812,-179.291 351.247,-168.711 344.773,-171.372"/>
<text text-anchor="middle" x="264.893" y="-100.8" font-family="Times New Roman,serif" font-size="14.00">|&#45; ( ch &#45;&gt; ch )</text>
</g>
</g>
</svg>
