<?xml version="1.0" encoding="UTF-8" standalone="no"?>
<!DOCTYPE svg PUBLIC "-//W3C//DTD SVG 1.1//EN"
 "http://www.w3.org/Graphics/SVG/1.1/DTD/svg11.dtd">
<!-- Generated by graphviz version 2.38.0 (20140413.2041)
 -->
<!-- Title: proof_anim12ii Pages: 1 -->
<svg width="1020pt" height="660pt"
 viewBox="0.00 0.00 1019.68 660.00" xmlns="http://www.w3.org/2000/svg" xmlns:xlink="http://www.w3.org/1999/xlink">
<g id="graph0" class="graph" transform="scale(1 1) rotate(0) translate(4 656)">
<title>proof_anim12ii</title>
<polygon fill="white" stroke="none" points="-4,4 -4,-656 1015.68,-656 1015.68,4 -4,4"/>
<!-- n9636 -->
<g id="node1" class="node"><title>n9636</title>
<ellipse fill="none" stroke="lightgray" cx="174.446" cy="-634" rx="27" ry="18"/>
<text text-anchor="middle" x="174.446" y="-630.3" font-family="Times New Roman,serif" font-size="14.00" fill="lightgray">wph</text>
</g>
<!-- n9638 -->
<g id="node2" class="node"><title>n9638</title>
<ellipse fill="none" stroke="lightgray" cx="417.039" cy="-604" rx="27" ry="18"/>
<text text-anchor="middle" x="417.039" y="-600.3" font-family="Times New Roman,serif" font-size="14.00" fill="lightgray">wa</text>
</g>
<!-- n9636&#45;&gt;n9638 -->
<g id="edge1" class="edge"><title>n9636&#45;&gt;n9638</title>
<path fill="none" stroke="lightgray" d="M201.193,-630.789C244.222,-625.424 330.85,-614.622 379.944,-608.501"/>
<polygon fill="lightgray" stroke="lightgray" points="380.622,-611.943 390.112,-607.233 379.756,-604.997 380.622,-611.943"/>
<text text-anchor="middle" x="302.892" y="-628.8" font-family="Times New Roman,serif" font-size="14.00" fill="lightgray">wff ph</text>
</g>
<!-- n9637 -->
<g id="node3" class="node"><title>n9637</title>
<ellipse fill="none" stroke="lightgray" cx="174.446" cy="-562" rx="27" ry="18"/>
<text text-anchor="middle" x="174.446" y="-558.3" font-family="Times New Roman,serif" font-size="14.00" fill="lightgray">wth</text>
</g>
<!-- n9636&#45;&gt;n9637 -->
<g id="edge4" class="edge"><title>n9636&#45;&gt;n9637</title>
</g>
<!-- n9656 -->
<g id="node4" class="node"><title>n9656</title>
<ellipse fill="cyan" stroke="black" cx="681.186" cy="-423" rx="27" ry="18"/>
<text text-anchor="middle" x="681.186" y="-419.3" font-family="Times New Roman,serif" font-size="14.00">jcad</text>
</g>
<!-- n9638&#45;&gt;n9656 -->
<g id="edge3" class="edge"><title>n9638&#45;&gt;n9656</title>
<path fill="none" stroke="lightgray" d="M444.199,-604.459C489.238,-603.816 581.812,-596.004 636.186,-546 662.978,-521.361 673.47,-479.271 677.57,-451.296"/>
<polygon fill="lightgray" stroke="lightgray" points="681.047,-451.695 678.849,-441.331 674.104,-450.804 681.047,-451.695"/>
<text text-anchor="middle" x="552.186" y="-606.8" font-family="Times New Roman,serif" font-size="14.00" fill="lightgray">wff ( ph /\ th )</text>
</g>
<!-- n9639 -->
<g id="node5" class="node"><title>n9639</title>
<ellipse fill="none" stroke="lightgray" cx="417.039" cy="-532" rx="27" ry="18"/>
<text text-anchor="middle" x="417.039" y="-528.3" font-family="Times New Roman,serif" font-size="14.00" fill="lightgray">wps</text>
</g>
<!-- n9638&#45;&gt;n9639 -->
<g id="edge31" class="edge"><title>n9638&#45;&gt;n9639</title>
</g>
<!-- n9637&#45;&gt;n9638 -->
<g id="edge2" class="edge"><title>n9637&#45;&gt;n9638</title>
<path fill="none" stroke="lightgray" d="M201.161,-565.065C237.893,-569.635 307.411,-579 365.892,-591 371.099,-592.069 376.576,-593.337 381.919,-594.655"/>
<polygon fill="lightgray" stroke="lightgray" points="381.369,-598.127 391.925,-597.214 383.103,-591.346 381.369,-598.127"/>
<text text-anchor="middle" x="302.892" y="-594.8" font-family="Times New Roman,serif" font-size="14.00" fill="lightgray">wff th</text>
</g>
<!-- QED -->
<g id="node22" class="node"><title>QED</title>
</g>
<!-- n9656&#45;&gt;QED -->
<g id="edge30" class="edge"><title>n9656&#45;&gt;QED</title>
<path fill="none" stroke="black" d="M708.218,-423C761.046,-423 881.057,-423 942.941,-423"/>
<polygon fill="black" stroke="black" points="943.073,-426.5 953.073,-423 943.073,-419.5 943.073,-426.5"/>
<text text-anchor="middle" x="830.686" y="-426.8" font-family="Times New Roman,serif" font-size="14.00">|&#45; ( ( ph /\ th ) &#45;&gt; ( ps &#45;&gt; ( ch /\ ta ) ) )</text>
</g>
<!-- n9639&#45;&gt;n9656 -->
<g id="edge5" class="edge"><title>n9639&#45;&gt;n9656</title>
<path fill="none" stroke="lightgray" d="M444.112,-529.613C487.044,-524.685 574.045,-510.421 636.186,-472 646.46,-465.647 655.749,-456.192 663.115,-447.277"/>
<polygon fill="lightgray" stroke="lightgray" points="665.913,-449.381 669.312,-439.346 660.397,-445.07 665.913,-449.381"/>
<text text-anchor="middle" x="552.186" y="-530.8" font-family="Times New Roman,serif" font-size="14.00" fill="lightgray">wff ps</text>
</g>
<!-- n9640 -->
<g id="node6" class="node"><title>n9640</title>
<ellipse fill="none" stroke="lightgray" cx="417.039" cy="-460" rx="27" ry="18"/>
<text text-anchor="middle" x="417.039" y="-456.3" font-family="Times New Roman,serif" font-size="14.00" fill="lightgray">wch</text>
</g>
<!-- n9639&#45;&gt;n9640 -->
<g id="edge32" class="edge"><title>n9639&#45;&gt;n9640</title>
</g>
<!-- n9640&#45;&gt;n9656 -->
<g id="edge6" class="edge"><title>n9640&#45;&gt;n9656</title>
<path fill="none" stroke="lightgray" d="M443.652,-456.385C490.636,-449.753 590.692,-435.631 644.379,-428.054"/>
<polygon fill="lightgray" stroke="lightgray" points="645.056,-431.493 654.469,-426.63 644.078,-424.562 645.056,-431.493"/>
<text text-anchor="middle" x="552.186" y="-456.8" font-family="Times New Roman,serif" font-size="14.00" fill="lightgray">wff ch</text>
</g>
<!-- n9641 -->
<g id="node7" class="node"><title>n9641</title>
<ellipse fill="none" stroke="lightgray" cx="417.039" cy="-388" rx="27" ry="18"/>
<text text-anchor="middle" x="417.039" y="-384.3" font-family="Times New Roman,serif" font-size="14.00" fill="lightgray">wta</text>
</g>
<!-- n9640&#45;&gt;n9641 -->
<g id="edge33" class="edge"><title>n9640&#45;&gt;n9641</title>
</g>
<!-- n9641&#45;&gt;n9656 -->
<g id="edge7" class="edge"><title>n9641&#45;&gt;n9656</title>
<path fill="none" stroke="lightgray" d="M443.993,-390.389C484.968,-394.318 567.093,-402.836 636.186,-414 639.072,-414.466 642.057,-414.989 645.05,-415.542"/>
<polygon fill="lightgray" stroke="lightgray" points="644.638,-419.027 655.122,-417.498 645.973,-412.156 644.638,-419.027"/>
<text text-anchor="middle" x="552.186" y="-417.8" font-family="Times New Roman,serif" font-size="14.00" fill="lightgray">wff ta</text>
</g>
<!-- n9648 -->
<g id="node9" class="node"><title>n9648</title>
<ellipse fill="cyan" stroke="black" cx="417.039" cy="-316" rx="33.2948" ry="18"/>
<text text-anchor="middle" x="417.039" y="-312.3" font-family="Times New Roman,serif" font-size="14.00">adantr</text>
</g>
<!-- n9641&#45;&gt;n9648 -->
<g id="edge34" class="edge"><title>n9641&#45;&gt;n9648</title>
</g>
<!-- n9642 -->
<g id="node8" class="node"><title>n9642</title>
<ellipse fill="none" stroke="lightgray" cx="174.446" cy="-504" rx="27" ry="18"/>
<text text-anchor="middle" x="174.446" y="-500.3" font-family="Times New Roman,serif" font-size="14.00" fill="lightgray">wph</text>
</g>
<!-- n9642&#45;&gt;n9648 -->
<g id="edge8" class="edge"><title>n9642&#45;&gt;n9648</title>
<path fill="none" stroke="lightgray" d="M201.595,-502.492C242.814,-498.657 322.645,-485.079 365.892,-437 389.106,-411.192 369.534,-392.604 383.892,-361 387.113,-353.909 391.521,-346.793 396.04,-340.38"/>
<polygon fill="lightgray" stroke="lightgray" points="399.01,-342.252 402.171,-332.139 393.394,-338.074 399.01,-342.252"/>
<text text-anchor="middle" x="302.892" y="-500.8" font-family="Times New Roman,serif" font-size="14.00" fill="lightgray">wff ph</text>
</g>
<!-- n9645 -->
<g id="node11" class="node"><title>n9645</title>
<ellipse fill="none" stroke="lightgray" cx="174.446" cy="-432" rx="27" ry="18"/>
<text text-anchor="middle" x="174.446" y="-428.3" font-family="Times New Roman,serif" font-size="14.00" fill="lightgray">wi</text>
</g>
<!-- n9642&#45;&gt;n9645 -->
<g id="edge16" class="edge"><title>n9642&#45;&gt;n9645</title>
</g>
<!-- n9648&#45;&gt;n9656 -->
<g id="edge15" class="edge"><title>n9648&#45;&gt;n9656</title>
<path fill="none" stroke="black" d="M449.836,-318.986C494.363,-324.36 576.522,-338.707 636.186,-375 646.14,-381.055 655.21,-390.014 662.496,-398.558"/>
<polygon fill="black" stroke="black" points="659.905,-400.922 668.904,-406.514 665.357,-396.531 659.905,-400.922"/>
<text text-anchor="middle" x="552.186" y="-378.8" font-family="Times New Roman,serif" font-size="14.00">|&#45; ( ( ph /\ th ) &#45;&gt; ( ps &#45;&gt; ch ) )</text>
</g>
<!-- n9655 -->
<g id="node16" class="node"><title>n9655</title>
<ellipse fill="cyan" stroke="black" cx="417.039" cy="-197" rx="32.4942" ry="18"/>
<text text-anchor="middle" x="417.039" y="-193.3" font-family="Times New Roman,serif" font-size="14.00">adantl</text>
</g>
<!-- n9648&#45;&gt;n9655 -->
<g id="edge35" class="edge"><title>n9648&#45;&gt;n9655</title>
</g>
<!-- n9643 -->
<g id="node10" class="node"><title>n9643</title>
<ellipse fill="none" stroke="lightgray" cx="27" cy="-476" rx="27" ry="18"/>
<text text-anchor="middle" x="27" y="-472.3" font-family="Times New Roman,serif" font-size="14.00" fill="lightgray">wps</text>
</g>
<!-- n9643&#45;&gt;n9645 -->
<g id="edge9" class="edge"><title>n9643&#45;&gt;n9645</title>
<path fill="none" stroke="lightgray" d="M52.0174,-468.734C75.9134,-461.505 112.794,-450.348 139.642,-442.226"/>
<polygon fill="lightgray" stroke="lightgray" points="140.835,-445.522 149.393,-439.276 138.808,-438.822 140.835,-445.522"/>
<text text-anchor="middle" x="90.5" y="-465.8" font-family="Times New Roman,serif" font-size="14.00" fill="lightgray">wff ps</text>
</g>
<!-- n9644 -->
<g id="node12" class="node"><title>n9644</title>
<ellipse fill="none" stroke="lightgray" cx="27" cy="-404" rx="27" ry="18"/>
<text text-anchor="middle" x="27" y="-400.3" font-family="Times New Roman,serif" font-size="14.00" fill="lightgray">wch</text>
</g>
<!-- n9643&#45;&gt;n9644 -->
<g id="edge12" class="edge"><title>n9643&#45;&gt;n9644</title>
</g>
<!-- n9645&#45;&gt;n9648 -->
<g id="edge11" class="edge"><title>n9645&#45;&gt;n9648</title>
<path fill="none" stroke="lightgray" d="M200.85,-427.491C239.019,-419.864 312.384,-401.836 365.892,-368 377.486,-360.669 388.326,-350.11 396.941,-340.42"/>
<polygon fill="lightgray" stroke="lightgray" points="399.803,-342.457 403.622,-332.574 394.474,-337.919 399.803,-342.457"/>
<text text-anchor="middle" x="302.892" y="-421.8" font-family="Times New Roman,serif" font-size="14.00" fill="lightgray">wff ( ps &#45;&gt; ch )</text>
</g>
<!-- n9646 -->
<g id="node13" class="node"><title>n9646</title>
<ellipse fill="none" stroke="lightgray" cx="174.446" cy="-360" rx="27" ry="18"/>
<text text-anchor="middle" x="174.446" y="-356.3" font-family="Times New Roman,serif" font-size="14.00" fill="lightgray">wth</text>
</g>
<!-- n9645&#45;&gt;n9646 -->
<g id="edge17" class="edge"><title>n9645&#45;&gt;n9646</title>
</g>
<!-- n9644&#45;&gt;n9645 -->
<g id="edge10" class="edge"><title>n9644&#45;&gt;n9645</title>
<path fill="none" stroke="lightgray" d="M53.3347,-408.877C76.9019,-413.414 112.23,-420.215 138.477,-425.268"/>
<polygon fill="lightgray" stroke="lightgray" points="137.92,-428.725 148.401,-427.179 139.243,-421.851 137.92,-428.725"/>
<text text-anchor="middle" x="90.5" y="-423.8" font-family="Times New Roman,serif" font-size="14.00" fill="lightgray">wff ch</text>
</g>
<!-- n9646&#45;&gt;n9648 -->
<g id="edge13" class="edge"><title>n9646&#45;&gt;n9648</title>
<path fill="none" stroke="lightgray" d="M200.739,-355.374C242.301,-347.773 325.404,-332.575 375.331,-323.445"/>
<polygon fill="lightgray" stroke="lightgray" points="376.247,-326.835 385.454,-321.593 374.987,-319.95 376.247,-326.835"/>
<text text-anchor="middle" x="302.892" y="-352.8" font-family="Times New Roman,serif" font-size="14.00" fill="lightgray">wff th</text>
</g>
<!-- n9647 -->
<g id="node14" class="node"><title>n9647</title>
<ellipse fill="orange" stroke="black" cx="174.446" cy="-288" rx="47.3916" ry="18"/>
<text text-anchor="middle" x="174.446" y="-284.3" font-family="Times New Roman,serif" font-size="14.00">anim12ii.1</text>
</g>
<!-- n9646&#45;&gt;n9647 -->
<g id="edge18" class="edge"><title>n9646&#45;&gt;n9647</title>
</g>
<!-- n9647&#45;&gt;n9648 -->
<g id="edge14" class="edge"><title>n9647&#45;&gt;n9648</title>
<path fill="none" stroke="black" d="M220.933,-292.086C259.566,-295.722 316.454,-301.465 365.892,-308 368.897,-308.397 372.001,-308.832 375.121,-309.288"/>
<polygon fill="black" stroke="black" points="374.635,-312.754 385.046,-310.79 375.682,-305.833 374.635,-312.754"/>
<text text-anchor="middle" x="302.892" y="-311.8" font-family="Times New Roman,serif" font-size="14.00">|&#45; ( ph &#45;&gt; ( ps &#45;&gt; ch ) )</text>
</g>
<!-- n9649 -->
<g id="node15" class="node"><title>n9649</title>
<ellipse fill="none" stroke="lightgray" cx="174.446" cy="-234" rx="27" ry="18"/>
<text text-anchor="middle" x="174.446" y="-230.3" font-family="Times New Roman,serif" font-size="14.00" fill="lightgray">wth</text>
</g>
<!-- n9649&#45;&gt;n9655 -->
<g id="edge19" class="edge"><title>n9649&#45;&gt;n9655</title>
<path fill="none" stroke="lightgray" d="M201.193,-230.04C242.954,-223.618 325.783,-210.88 375.508,-203.233"/>
<polygon fill="lightgray" stroke="lightgray" points="376.238,-206.662 385.59,-201.683 375.174,-199.743 376.238,-206.662"/>
<text text-anchor="middle" x="302.892" y="-228.8" font-family="Times New Roman,serif" font-size="14.00" fill="lightgray">wff th</text>
</g>
<!-- n9652 -->
<g id="node18" class="node"><title>n9652</title>
<ellipse fill="none" stroke="lightgray" cx="174.446" cy="-162" rx="27" ry="18"/>
<text text-anchor="middle" x="174.446" y="-158.3" font-family="Times New Roman,serif" font-size="14.00" fill="lightgray">wi</text>
</g>
<!-- n9649&#45;&gt;n9652 -->
<g id="edge27" class="edge"><title>n9649&#45;&gt;n9652</title>
</g>
<!-- n9655&#45;&gt;n9656 -->
<g id="edge26" class="edge"><title>n9655&#45;&gt;n9656</title>
<path fill="none" stroke="black" d="M447.393,-203.7C493.778,-215.749 584.091,-245.367 636.186,-303 659.595,-328.898 670.849,-368.285 676.047,-394.801"/>
<polygon fill="black" stroke="black" points="672.659,-395.733 677.867,-404.959 679.549,-394.499 672.659,-395.733"/>
<text text-anchor="middle" x="552.186" y="-306.8" font-family="Times New Roman,serif" font-size="14.00">|&#45; ( ( ph /\ th ) &#45;&gt; ( ps &#45;&gt; ta ) )</text>
</g>
<!-- n9650 -->
<g id="node17" class="node"><title>n9650</title>
<ellipse fill="none" stroke="lightgray" cx="27" cy="-190" rx="27" ry="18"/>
<text text-anchor="middle" x="27" y="-186.3" font-family="Times New Roman,serif" font-size="14.00" fill="lightgray">wps</text>
</g>
<!-- n9650&#45;&gt;n9652 -->
<g id="edge20" class="edge"><title>n9650&#45;&gt;n9652</title>
<path fill="none" stroke="lightgray" d="M53.3347,-185.123C76.9019,-180.586 112.23,-173.785 138.477,-168.732"/>
<polygon fill="lightgray" stroke="lightgray" points="139.243,-172.149 148.401,-166.821 137.92,-165.275 139.243,-172.149"/>
<text text-anchor="middle" x="90.5" y="-184.8" font-family="Times New Roman,serif" font-size="14.00" fill="lightgray">wff ps</text>
</g>
<!-- n9651 -->
<g id="node19" class="node"><title>n9651</title>
<ellipse fill="none" stroke="lightgray" cx="27" cy="-118" rx="27" ry="18"/>
<text text-anchor="middle" x="27" y="-114.3" font-family="Times New Roman,serif" font-size="14.00" fill="lightgray">wta</text>
</g>
<!-- n9650&#45;&gt;n9651 -->
<g id="edge23" class="edge"><title>n9650&#45;&gt;n9651</title>
</g>
<!-- n9652&#45;&gt;n9655 -->
<g id="edge22" class="edge"><title>n9652&#45;&gt;n9655</title>
<path fill="none" stroke="lightgray" d="M201.063,-165.151C237.677,-169.733 307.055,-178.708 365.892,-188 369.168,-188.517 372.56,-189.076 375.965,-189.654"/>
<polygon fill="lightgray" stroke="lightgray" points="375.657,-193.153 386.109,-191.417 376.856,-186.256 375.657,-193.153"/>
<text text-anchor="middle" x="302.892" y="-191.8" font-family="Times New Roman,serif" font-size="14.00" fill="lightgray">wff ( ps &#45;&gt; ta )</text>
</g>
<!-- n9653 -->
<g id="node20" class="node"><title>n9653</title>
<ellipse fill="none" stroke="lightgray" cx="174.446" cy="-90" rx="27" ry="18"/>
<text text-anchor="middle" x="174.446" y="-86.3" font-family="Times New Roman,serif" font-size="14.00" fill="lightgray">wph</text>
</g>
<!-- n9652&#45;&gt;n9653 -->
<g id="edge28" class="edge"><title>n9652&#45;&gt;n9653</title>
</g>
<!-- n9651&#45;&gt;n9652 -->
<g id="edge21" class="edge"><title>n9651&#45;&gt;n9652</title>
<path fill="none" stroke="lightgray" d="M52.0174,-125.266C75.9134,-132.495 112.794,-143.652 139.642,-151.774"/>
<polygon fill="lightgray" stroke="lightgray" points="138.808,-155.178 149.393,-154.724 140.835,-148.478 138.808,-155.178"/>
<text text-anchor="middle" x="90.5" y="-146.8" font-family="Times New Roman,serif" font-size="14.00" fill="lightgray">wff ta</text>
</g>
<!-- n9653&#45;&gt;n9655 -->
<g id="edge24" class="edge"><title>n9653&#45;&gt;n9655</title>
<path fill="none" stroke="lightgray" d="M200.554,-94.6867C238.341,-102.487 311.219,-120.475 365.892,-152 376.028,-157.845 385.9,-165.993 394.166,-173.752"/>
<polygon fill="lightgray" stroke="lightgray" points="391.96,-176.49 401.555,-180.983 396.856,-171.487 391.96,-176.49"/>
<text text-anchor="middle" x="302.892" y="-155.8" font-family="Times New Roman,serif" font-size="14.00" fill="lightgray">wff ph</text>
</g>
<!-- n9654 -->
<g id="node21" class="node"><title>n9654</title>
<ellipse fill="orange" stroke="black" cx="174.446" cy="-18" rx="47.3916" ry="18"/>
<text text-anchor="middle" x="174.446" y="-14.3" font-family="Times New Roman,serif" font-size="14.00">anim12ii.2</text>
</g>
<!-- n9653&#45;&gt;n9654 -->
<g id="edge29" class="edge"><title>n9653&#45;&gt;n9654</title>
</g>
<!-- n9654&#45;&gt;n9655 -->
<g id="edge25" class="edge"><title>n9654&#45;&gt;n9655</title>
<path fill="none" stroke="black" d="M219.874,-23.7374C262.12,-31.3133 325.105,-48.4045 365.892,-86 389.972,-108.197 403.27,-144.162 410.018,-169.113"/>
<polygon fill="black" stroke="black" points="406.687,-170.216 412.522,-179.06 413.475,-168.508 406.687,-170.216"/>
<text text-anchor="middle" x="302.892" y="-89.8" font-family="Times New Roman,serif" font-size="14.00">|&#45; ( th &#45;&gt; ( ps &#45;&gt; ta ) )</text>
</g>
</g>
</svg>
