<?xml version="1.0" encoding="UTF-8" standalone="no"?>
<!DOCTYPE svg PUBLIC "-//W3C//DTD SVG 1.1//EN"
 "http://www.w3.org/Graphics/SVG/1.1/DTD/svg11.dtd">
<!-- Generated by graphviz version 2.38.0 (20140413.2041)
 -->
<!-- Title: proof_baib Pages: 1 -->
<svg width="723pt" height="404pt"
 viewBox="0.00 0.00 722.68 404.00" xmlns="http://www.w3.org/2000/svg" xmlns:xlink="http://www.w3.org/1999/xlink">
<g id="graph0" class="graph" transform="scale(1 1) rotate(0) translate(4 400)">
<title>proof_baib</title>
<polygon fill="white" stroke="none" points="-4,4 -4,-400 718.682,-400 718.682,4 -4,4"/>
<!-- n16087 -->
<g id="node1" class="node"><title>n16087</title>
<ellipse fill="none" stroke="lightgray" cx="160.147" cy="-378" rx="27" ry="18"/>
<text text-anchor="middle" x="160.147" y="-374.3" font-family="Times New Roman,serif" font-size="14.00" fill="lightgray">wps</text>
</g>
<!-- n16097 -->
<g id="node2" class="node"><title>n16097</title>
<ellipse fill="cyan" stroke="black" cx="445.24" cy="-197" rx="40.8928" ry="18"/>
<text text-anchor="middle" x="445.24" y="-193.3" font-family="Times New Roman,serif" font-size="14.00">syl6rbbr</text>
</g>
<!-- n16087&#45;&gt;n16097 -->
<g id="edge1" class="edge"><title>n16087&#45;&gt;n16097</title>
<path fill="none" stroke="lightgray" d="M187.238,-377.697C232.747,-375.836 327.398,-365.883 386.294,-317 414.866,-293.286 430.388,-252.14 437.993,-224.741"/>
<polygon fill="lightgray" stroke="lightgray" points="441.402,-225.537 440.531,-214.978 434.628,-223.776 441.402,-225.537"/>
<text text-anchor="middle" x="298.794" y="-379.8" font-family="Times New Roman,serif" font-size="14.00" fill="lightgray">wff ps</text>
</g>
<!-- n16088 -->
<g id="node3" class="node"><title>n16088</title>
<ellipse fill="none" stroke="lightgray" cx="160.147" cy="-306" rx="27" ry="18"/>
<text text-anchor="middle" x="160.147" y="-302.3" font-family="Times New Roman,serif" font-size="14.00" fill="lightgray">wch</text>
</g>
<!-- n16087&#45;&gt;n16088 -->
<g id="edge14" class="edge"><title>n16087&#45;&gt;n16088</title>
</g>
<!-- QED -->
<g id="node12" class="node"><title>QED</title>
</g>
<!-- n16097&#45;&gt;QED -->
<g id="edge13" class="edge"><title>n16097&#45;&gt;QED</title>
<path fill="none" stroke="black" d="M486.377,-197C530.84,-197 602.024,-197 645.852,-197"/>
<polygon fill="black" stroke="black" points="646.105,-200.5 656.105,-197 646.105,-193.5 646.105,-200.5"/>
<text text-anchor="middle" x="571.187" y="-200.8" font-family="Times New Roman,serif" font-size="14.00">|&#45; ( ps &#45;&gt; ( ph &lt;&#45;&gt; ch ) )</text>
</g>
<!-- n16088&#45;&gt;n16097 -->
<g id="edge2" class="edge"><title>n16088&#45;&gt;n16097</title>
<path fill="none" stroke="lightgray" d="M186.785,-302.904C230.012,-296.888 319.238,-281.011 386.294,-246 398.827,-239.456 411.035,-229.789 420.988,-220.766"/>
<polygon fill="lightgray" stroke="lightgray" points="423.569,-223.143 428.45,-213.74 418.77,-218.047 423.569,-223.143"/>
<text text-anchor="middle" x="298.794" y="-301.8" font-family="Times New Roman,serif" font-size="14.00" fill="lightgray">wff ch</text>
</g>
<!-- n16091 -->
<g id="node5" class="node"><title>n16091</title>
<ellipse fill="none" stroke="lightgray" cx="160.147" cy="-234" rx="27" ry="18"/>
<text text-anchor="middle" x="160.147" y="-230.3" font-family="Times New Roman,serif" font-size="14.00" fill="lightgray">wa</text>
</g>
<!-- n16088&#45;&gt;n16091 -->
<g id="edge15" class="edge"><title>n16088&#45;&gt;n16091</title>
</g>
<!-- n16089 -->
<g id="node4" class="node"><title>n16089</title>
<ellipse fill="none" stroke="lightgray" cx="27" cy="-261" rx="27" ry="18"/>
<text text-anchor="middle" x="27" y="-257.3" font-family="Times New Roman,serif" font-size="14.00" fill="lightgray">wps</text>
</g>
<!-- n16089&#45;&gt;n16091 -->
<g id="edge3" class="edge"><title>n16089&#45;&gt;n16091</title>
<path fill="none" stroke="lightgray" d="M52.9765,-255.858C73.2132,-251.692 101.955,-245.775 124.431,-241.147"/>
<polygon fill="lightgray" stroke="lightgray" points="125.175,-244.568 134.264,-239.123 123.763,-237.711 125.175,-244.568"/>
<text text-anchor="middle" x="90.5" y="-254.8" font-family="Times New Roman,serif" font-size="14.00" fill="lightgray">wff ps</text>
</g>
<!-- n16090 -->
<g id="node6" class="node"><title>n16090</title>
<ellipse fill="none" stroke="lightgray" cx="27" cy="-189" rx="27" ry="18"/>
<text text-anchor="middle" x="27" y="-185.3" font-family="Times New Roman,serif" font-size="14.00" fill="lightgray">wch</text>
</g>
<!-- n16089&#45;&gt;n16090 -->
<g id="edge6" class="edge"><title>n16089&#45;&gt;n16090</title>
</g>
<!-- n16091&#45;&gt;n16097 -->
<g id="edge5" class="edge"><title>n16091&#45;&gt;n16097</title>
<path fill="none" stroke="lightgray" d="M186.769,-230.651C233.859,-224.497 334.879,-211.293 395.438,-203.378"/>
<polygon fill="lightgray" stroke="lightgray" points="396.062,-206.827 405.524,-202.06 395.155,-199.886 396.062,-206.827"/>
<text text-anchor="middle" x="298.794" y="-230.8" font-family="Times New Roman,serif" font-size="14.00" fill="lightgray">wff ( ps / ch )</text>
</g>
<!-- n16092 -->
<g id="node7" class="node"><title>n16092</title>
<ellipse fill="none" stroke="lightgray" cx="160.147" cy="-162" rx="27" ry="18"/>
<text text-anchor="middle" x="160.147" y="-158.3" font-family="Times New Roman,serif" font-size="14.00" fill="lightgray">wph</text>
</g>
<!-- n16091&#45;&gt;n16092 -->
<g id="edge16" class="edge"><title>n16091&#45;&gt;n16092</title>
</g>
<!-- n16090&#45;&gt;n16091 -->
<g id="edge4" class="edge"><title>n16090&#45;&gt;n16091</title>
<path fill="none" stroke="lightgray" d="M51.4465,-197.045C72.3339,-204.212 103.111,-214.772 126.421,-222.771"/>
<polygon fill="lightgray" stroke="lightgray" points="125.309,-226.09 135.904,-226.025 127.581,-219.468 125.309,-226.09"/>
<text text-anchor="middle" x="90.5" y="-220.8" font-family="Times New Roman,serif" font-size="14.00" fill="lightgray">wff ch</text>
</g>
<!-- n16092&#45;&gt;n16097 -->
<g id="edge7" class="edge"><title>n16092&#45;&gt;n16097</title>
<path fill="none" stroke="lightgray" d="M187.19,-164.673C229.164,-169.056 314.353,-178.263 386.294,-188 389.573,-188.444 392.953,-188.92 396.356,-189.413"/>
<polygon fill="lightgray" stroke="lightgray" points="396.15,-192.921 406.555,-190.928 397.178,-185.997 396.15,-192.921"/>
<text text-anchor="middle" x="298.794" y="-191.8" font-family="Times New Roman,serif" font-size="14.00" fill="lightgray">wff ph</text>
</g>
<!-- n16095 -->
<g id="node9" class="node"><title>n16095</title>
<ellipse fill="cyan" stroke="black" cx="160.147" cy="-90" rx="27" ry="18"/>
<text text-anchor="middle" x="160.147" y="-86.3" font-family="Times New Roman,serif" font-size="14.00">ibar</text>
</g>
<!-- n16092&#45;&gt;n16095 -->
<g id="edge17" class="edge"><title>n16092&#45;&gt;n16095</title>
</g>
<!-- n16093 -->
<g id="node8" class="node"><title>n16093</title>
<ellipse fill="none" stroke="lightgray" cx="27" cy="-121" rx="27" ry="18"/>
<text text-anchor="middle" x="27" y="-117.3" font-family="Times New Roman,serif" font-size="14.00" fill="lightgray">wps</text>
</g>
<!-- n16093&#45;&gt;n16095 -->
<g id="edge8" class="edge"><title>n16093&#45;&gt;n16095</title>
<path fill="none" stroke="lightgray" d="M52.6678,-115.169C72.872,-110.393 101.703,-103.578 124.27,-98.2442"/>
<polygon fill="lightgray" stroke="lightgray" points="125.217,-101.617 134.144,-95.9101 123.607,-94.8044 125.217,-101.617"/>
<text text-anchor="middle" x="90.5" y="-114.8" font-family="Times New Roman,serif" font-size="14.00" fill="lightgray">wff ps</text>
</g>
<!-- n16094 -->
<g id="node10" class="node"><title>n16094</title>
<ellipse fill="none" stroke="lightgray" cx="27" cy="-49" rx="27" ry="18"/>
<text text-anchor="middle" x="27" y="-45.3" font-family="Times New Roman,serif" font-size="14.00" fill="lightgray">wch</text>
</g>
<!-- n16093&#45;&gt;n16094 -->
<g id="edge11" class="edge"><title>n16093&#45;&gt;n16094</title>
</g>
<!-- n16095&#45;&gt;n16097 -->
<g id="edge10" class="edge"><title>n16095&#45;&gt;n16097</title>
<path fill="none" stroke="black" d="M187.094,-93.078C230.394,-99.008 319.243,-114.599 386.294,-149 398.583,-155.305 410.606,-164.59 420.486,-173.318"/>
<polygon fill="black" stroke="black" points="418.179,-175.951 427.915,-180.131 422.91,-170.792 418.179,-175.951"/>
<text text-anchor="middle" x="298.794" y="-152.8" font-family="Times New Roman,serif" font-size="14.00">|&#45; ( ps &#45;&gt; ( ch &lt;&#45;&gt; ( ps / ch ) ) )</text>
</g>
<!-- n16096 -->
<g id="node11" class="node"><title>n16096</title>
<ellipse fill="orange" stroke="black" cx="160.147" cy="-18" rx="33.2948" ry="18"/>
<text text-anchor="middle" x="160.147" y="-14.3" font-family="Times New Roman,serif" font-size="14.00">baib.1</text>
</g>
<!-- n16095&#45;&gt;n16096 -->
<g id="edge18" class="edge"><title>n16095&#45;&gt;n16096</title>
</g>
<!-- n16094&#45;&gt;n16095 -->
<g id="edge9" class="edge"><title>n16094&#45;&gt;n16095</title>
<path fill="none" stroke="lightgray" d="M51.7497,-56.4248C72.3255,-62.8573 102.33,-72.2376 125.399,-79.4493"/>
<polygon fill="lightgray" stroke="lightgray" points="124.542,-82.8485 135.131,-82.4919 126.631,-76.1674 124.542,-82.8485"/>
<text text-anchor="middle" x="90.5" y="-78.8" font-family="Times New Roman,serif" font-size="14.00" fill="lightgray">wff ch</text>
</g>
<!-- n16096&#45;&gt;n16097 -->
<g id="edge12" class="edge"><title>n16096&#45;&gt;n16097</title>
<path fill="none" stroke="black" d="M193.628,-18.6545C241.097,-21.248 329.892,-32.5017 386.294,-79 414.278,-102.07 429.848,-141.965 437.633,-168.909"/>
<polygon fill="black" stroke="black" points="434.342,-170.146 440.333,-178.885 441.099,-168.318 434.342,-170.146"/>
<text text-anchor="middle" x="298.794" y="-82.8" font-family="Times New Roman,serif" font-size="14.00">|&#45; ( ph &lt;&#45;&gt; ( ps / ch ) )</text>
</g>
</g>
</svg>
