<?xml version="1.0" encoding="UTF-8" standalone="no"?>
<!DOCTYPE svg PUBLIC "-//W3C//DTD SVG 1.1//EN"
 "http://www.w3.org/Graphics/SVG/1.1/DTD/svg11.dtd">
<!-- Generated by graphviz version 2.38.0 (20140413.2041)
 -->
<!-- Title: proof_bi2anan9r Pages: 1 -->
<svg width="1200pt" height="735pt"
 viewBox="0.00 0.00 1200.47 735.00" xmlns="http://www.w3.org/2000/svg" xmlns:xlink="http://www.w3.org/1999/xlink">
<g id="graph0" class="graph" transform="scale(1 1) rotate(0) translate(4 731)">
<title>proof_bi2anan9r</title>
<polygon fill="white" stroke="none" points="-4,4 -4,-731 1196.47,-731 1196.47,4 -4,4"/>
<!-- n15290 -->
<g id="node1" class="node"><title>n15290</title>
<ellipse fill="none" stroke="lightgray" cx="423.089" cy="-644" rx="27" ry="18"/>
<text text-anchor="middle" x="423.089" y="-640.3" font-family="Times New Roman,serif" font-size="14.00" fill="lightgray">wph</text>
</g>
<!-- n15308 -->
<g id="node2" class="node"><title>n15308</title>
<ellipse fill="cyan" stroke="black" cx="799.982" cy="-535" rx="38.9931" ry="18"/>
<text text-anchor="middle" x="799.982" y="-531.3" font-family="Times New Roman,serif" font-size="14.00">ancoms</text>
</g>
<!-- n15290&#45;&gt;n15308 -->
<g id="edge1" class="edge"><title>n15290&#45;&gt;n15308</title>
<path fill="none" stroke="lightgray" d="M450.365,-643.845C506.864,-642.535 642.891,-634.083 742.985,-585 755.727,-578.752 767.761,-568.772 777.383,-559.367"/>
<polygon fill="lightgray" stroke="lightgray" points="780.067,-561.628 784.551,-552.029 775.059,-556.737 780.067,-561.628"/>
<text text-anchor="middle" x="613.485" y="-646.8" font-family="Times New Roman,serif" font-size="14.00" fill="lightgray">wff ph</text>
</g>
<!-- n15291 -->
<g id="node3" class="node"><title>n15291</title>
<ellipse fill="none" stroke="lightgray" cx="423.089" cy="-572" rx="27" ry="18"/>
<text text-anchor="middle" x="423.089" y="-568.3" font-family="Times New Roman,serif" font-size="14.00" fill="lightgray">wth</text>
</g>
<!-- n15290&#45;&gt;n15291 -->
<g id="edge30" class="edge"><title>n15290&#45;&gt;n15291</title>
</g>
<!-- QED -->
<g id="node20" class="node"><title>QED</title>
</g>
<!-- n15308&#45;&gt;QED -->
<g id="edge29" class="edge"><title>n15308&#45;&gt;QED</title>
<path fill="none" stroke="black" d="M839.299,-535C908.558,-535 1053.84,-535 1123.44,-535"/>
<polygon fill="black" stroke="black" points="1123.54,-538.5 1133.54,-535 1123.54,-531.5 1123.54,-538.5"/>
<text text-anchor="middle" x="986.478" y="-538.8" font-family="Times New Roman,serif" font-size="14.00">|&#45; ( ( th /\ ph ) &#45;&gt; ( ( ps /\ ta ) &lt;&#45;&gt; ( ch /\ et ) ) )</text>
</g>
<!-- n15291&#45;&gt;n15308 -->
<g id="edge2" class="edge"><title>n15291&#45;&gt;n15308</title>
<path fill="none" stroke="lightgray" d="M450.139,-569.555C504.553,-564.429 634.248,-552.11 742.985,-541 745.857,-540.707 748.812,-540.401 751.792,-540.09"/>
<polygon fill="lightgray" stroke="lightgray" points="752.36,-543.549 761.938,-539.021 751.627,-536.588 752.36,-543.549"/>
<text text-anchor="middle" x="613.485" y="-569.8" font-family="Times New Roman,serif" font-size="14.00" fill="lightgray">wff th</text>
</g>
<!-- n15298 -->
<g id="node7" class="node"><title>n15298</title>
<ellipse fill="none" stroke="lightgray" cx="423.089" cy="-500" rx="27" ry="18"/>
<text text-anchor="middle" x="423.089" y="-496.3" font-family="Times New Roman,serif" font-size="14.00" fill="lightgray">wb</text>
</g>
<!-- n15291&#45;&gt;n15298 -->
<g id="edge31" class="edge"><title>n15291&#45;&gt;n15298</title>
</g>
<!-- n15292 -->
<g id="node4" class="node"><title>n15292</title>
<ellipse fill="none" stroke="lightgray" cx="27" cy="-709" rx="27" ry="18"/>
<text text-anchor="middle" x="27" y="-705.3" font-family="Times New Roman,serif" font-size="14.00" fill="lightgray">wps</text>
</g>
<!-- n15294 -->
<g id="node5" class="node"><title>n15294</title>
<ellipse fill="none" stroke="lightgray" cx="168.596" cy="-648" rx="27" ry="18"/>
<text text-anchor="middle" x="168.596" y="-644.3" font-family="Times New Roman,serif" font-size="14.00" fill="lightgray">wa</text>
</g>
<!-- n15292&#45;&gt;n15294 -->
<g id="edge3" class="edge"><title>n15292&#45;&gt;n15294</title>
<path fill="none" stroke="lightgray" d="M50.1195,-699.334C73.2975,-689.206 109.912,-673.207 136.103,-661.762"/>
<polygon fill="lightgray" stroke="lightgray" points="137.818,-664.832 145.58,-657.62 135.016,-658.417 137.818,-664.832"/>
<text text-anchor="middle" x="90.5" y="-693.8" font-family="Times New Roman,serif" font-size="14.00" fill="lightgray">wff ps</text>
</g>
<!-- n15293 -->
<g id="node6" class="node"><title>n15293</title>
<ellipse fill="none" stroke="lightgray" cx="27" cy="-637" rx="27" ry="18"/>
<text text-anchor="middle" x="27" y="-633.3" font-family="Times New Roman,serif" font-size="14.00" fill="lightgray">wta</text>
</g>
<!-- n15292&#45;&gt;n15293 -->
<g id="edge6" class="edge"><title>n15292&#45;&gt;n15293</title>
</g>
<!-- n15294&#45;&gt;n15298 -->
<g id="edge5" class="edge"><title>n15294&#45;&gt;n15298</title>
<path fill="none" stroke="lightgray" d="M195.276,-644.576C235.196,-638.07 312.685,-620.556 362.193,-578 374.862,-567.11 370.424,-558.553 380.193,-545 385.968,-536.987 393.042,-528.888 399.721,-521.811"/>
<polygon fill="lightgray" stroke="lightgray" points="402.28,-524.2 406.734,-514.586 397.257,-519.324 402.28,-524.2"/>
<text text-anchor="middle" x="295.193" y="-641.8" font-family="Times New Roman,serif" font-size="14.00" fill="lightgray">wff ( ps /\ ta )</text>
</g>
<!-- n15297 -->
<g id="node9" class="node"><title>n15297</title>
<ellipse fill="none" stroke="lightgray" cx="168.596" cy="-576" rx="27" ry="18"/>
<text text-anchor="middle" x="168.596" y="-572.3" font-family="Times New Roman,serif" font-size="14.00" fill="lightgray">wa</text>
</g>
<!-- n15294&#45;&gt;n15297 -->
<g id="edge12" class="edge"><title>n15294&#45;&gt;n15297</title>
</g>
<!-- n15293&#45;&gt;n15294 -->
<g id="edge4" class="edge"><title>n15293&#45;&gt;n15294</title>
<path fill="none" stroke="lightgray" d="M53.9298,-639.043C75.634,-640.753 106.855,-643.214 131.087,-645.123"/>
<polygon fill="lightgray" stroke="lightgray" points="131.088,-648.634 141.332,-645.93 131.638,-641.656 131.088,-648.634"/>
<text text-anchor="middle" x="90.5" y="-647.8" font-family="Times New Roman,serif" font-size="14.00" fill="lightgray">wff ta</text>
</g>
<!-- n15298&#45;&gt;n15308 -->
<g id="edge11" class="edge"><title>n15298&#45;&gt;n15308</title>
<path fill="none" stroke="lightgray" d="M450.2,-501.437C504.728,-504.589 634.624,-512.895 742.985,-526 746.26,-526.396 749.636,-526.843 753.032,-527.32"/>
<polygon fill="lightgray" stroke="lightgray" points="752.789,-530.822 763.193,-528.822 753.813,-523.897 752.789,-530.822"/>
<text text-anchor="middle" x="613.485" y="-529.8" font-family="Times New Roman,serif" font-size="14.00" fill="lightgray">wff ( ( ps /\ ta ) &lt;&#45;&gt; ( ch /\ et ) )</text>
</g>
<!-- n15307 -->
<g id="node12" class="node"><title>n15307</title>
<ellipse fill="cyan" stroke="black" cx="423.089" cy="-341" rx="42.7926" ry="18"/>
<text text-anchor="middle" x="423.089" y="-337.3" font-family="Times New Roman,serif" font-size="14.00">bi2anan9</text>
</g>
<!-- n15298&#45;&gt;n15307 -->
<g id="edge32" class="edge"><title>n15298&#45;&gt;n15307</title>
</g>
<!-- n15295 -->
<g id="node8" class="node"><title>n15295</title>
<ellipse fill="none" stroke="lightgray" cx="27" cy="-582" rx="27" ry="18"/>
<text text-anchor="middle" x="27" y="-578.3" font-family="Times New Roman,serif" font-size="14.00" fill="lightgray">wch</text>
</g>
<!-- n15295&#45;&gt;n15297 -->
<g id="edge7" class="edge"><title>n15295&#45;&gt;n15297</title>
<path fill="none" stroke="lightgray" d="M54.257,-580.871C75.9974,-579.937 107.121,-578.599 131.255,-577.562"/>
<polygon fill="lightgray" stroke="lightgray" points="131.617,-581.05 141.457,-577.123 131.316,-574.056 131.617,-581.05"/>
<text text-anchor="middle" x="90.5" y="-584.8" font-family="Times New Roman,serif" font-size="14.00" fill="lightgray">wff ch</text>
</g>
<!-- n15296 -->
<g id="node10" class="node"><title>n15296</title>
<ellipse fill="none" stroke="lightgray" cx="27" cy="-510" rx="27" ry="18"/>
<text text-anchor="middle" x="27" y="-506.3" font-family="Times New Roman,serif" font-size="14.00" fill="lightgray">wet</text>
</g>
<!-- n15295&#45;&gt;n15296 -->
<g id="edge10" class="edge"><title>n15295&#45;&gt;n15296</title>
</g>
<!-- n15297&#45;&gt;n15298 -->
<g id="edge9" class="edge"><title>n15297&#45;&gt;n15298</title>
<path fill="none" stroke="lightgray" d="M193.662,-569.041C230.163,-558.448 301.682,-537.55 362.193,-519 370.814,-516.357 380.112,-513.44 388.751,-510.702"/>
<polygon fill="lightgray" stroke="lightgray" points="390.043,-513.964 398.51,-507.596 387.92,-507.293 390.043,-513.964"/>
<text text-anchor="middle" x="295.193" y="-562.8" font-family="Times New Roman,serif" font-size="14.00" fill="lightgray">wff ( ch /\ et )</text>
</g>
<!-- n15296&#45;&gt;n15297 -->
<g id="edge8" class="edge"><title>n15296&#45;&gt;n15297</title>
<path fill="none" stroke="lightgray" d="M49.506,-520.168C72.8014,-531.182 110.174,-548.851 136.629,-561.359"/>
<polygon fill="lightgray" stroke="lightgray" points="135.299,-564.602 145.836,-565.712 138.291,-558.273 135.299,-564.602"/>
<text text-anchor="middle" x="90.5" y="-550.8" font-family="Times New Roman,serif" font-size="14.00" fill="lightgray">wff et</text>
</g>
<!-- n15299 -->
<g id="node11" class="node"><title>n15299</title>
<ellipse fill="none" stroke="lightgray" cx="168.596" cy="-522" rx="27" ry="18"/>
<text text-anchor="middle" x="168.596" y="-518.3" font-family="Times New Roman,serif" font-size="14.00" fill="lightgray">wph</text>
</g>
<!-- n15299&#45;&gt;n15307 -->
<g id="edge13" class="edge"><title>n15299&#45;&gt;n15307</title>
<path fill="none" stroke="lightgray" d="M192.334,-513.21C203.156,-509.092 216.302,-504.182 228.193,-500 287.325,-479.201 314.409,-496.571 362.193,-456 389.309,-432.976 405.771,-394.558 414.4,-368.523"/>
<polygon fill="lightgray" stroke="lightgray" points="417.773,-369.464 417.429,-358.875 411.094,-367.368 417.773,-369.464"/>
<text text-anchor="middle" x="295.193" y="-503.8" font-family="Times New Roman,serif" font-size="14.00" fill="lightgray">wff ph</text>
</g>
<!-- n15300 -->
<g id="node13" class="node"><title>n15300</title>
<ellipse fill="none" stroke="lightgray" cx="168.596" cy="-450" rx="27" ry="18"/>
<text text-anchor="middle" x="168.596" y="-446.3" font-family="Times New Roman,serif" font-size="14.00" fill="lightgray">wps</text>
</g>
<!-- n15299&#45;&gt;n15300 -->
<g id="edge22" class="edge"><title>n15299&#45;&gt;n15300</title>
</g>
<!-- n15307&#45;&gt;n15308 -->
<g id="edge21" class="edge"><title>n15307&#45;&gt;n15308</title>
<path fill="none" stroke="black" d="M456.981,-352.068C516.752,-372.981 645.967,-421.919 742.985,-485 754.538,-492.512 766.1,-502.348 775.693,-511.307"/>
<polygon fill="black" stroke="black" points="773.286,-513.848 782.926,-518.243 778.131,-508.795 773.286,-513.848"/>
<text text-anchor="middle" x="613.485" y="-488.8" font-family="Times New Roman,serif" font-size="14.00">|&#45; ( ( ph /\ th ) &#45;&gt; ( ( ps /\ ta ) &lt;&#45;&gt; ( ch /\ et ) ) )</text>
</g>
<!-- n15300&#45;&gt;n15307 -->
<g id="edge14" class="edge"><title>n15300&#45;&gt;n15307</title>
<path fill="none" stroke="lightgray" d="M194.774,-445.137C232.711,-437.137 306.059,-419.025 362.193,-389 374.617,-382.355 386.996,-373.01 397.247,-364.33"/>
<polygon fill="lightgray" stroke="lightgray" points="399.748,-366.793 404.973,-357.576 395.141,-361.523 399.748,-366.793"/>
<text text-anchor="middle" x="295.193" y="-440.8" font-family="Times New Roman,serif" font-size="14.00" fill="lightgray">wff ps</text>
</g>
<!-- n15301 -->
<g id="node14" class="node"><title>n15301</title>
<ellipse fill="none" stroke="lightgray" cx="168.596" cy="-378" rx="27" ry="18"/>
<text text-anchor="middle" x="168.596" y="-374.3" font-family="Times New Roman,serif" font-size="14.00" fill="lightgray">wch</text>
</g>
<!-- n15300&#45;&gt;n15301 -->
<g id="edge23" class="edge"><title>n15300&#45;&gt;n15301</title>
</g>
<!-- n15301&#45;&gt;n15307 -->
<g id="edge15" class="edge"><title>n15301&#45;&gt;n15307</title>
<path fill="none" stroke="lightgray" d="M195.196,-374.249C236.655,-368.173 319.209,-356.076 372.478,-348.27"/>
<polygon fill="lightgray" stroke="lightgray" points="373.007,-351.73 382.394,-346.817 371.992,-344.804 373.007,-351.73"/>
<text text-anchor="middle" x="295.193" y="-373.8" font-family="Times New Roman,serif" font-size="14.00" fill="lightgray">wff ch</text>
</g>
<!-- n15302 -->
<g id="node15" class="node"><title>n15302</title>
<ellipse fill="none" stroke="lightgray" cx="168.596" cy="-306" rx="27" ry="18"/>
<text text-anchor="middle" x="168.596" y="-302.3" font-family="Times New Roman,serif" font-size="14.00" fill="lightgray">wth</text>
</g>
<!-- n15301&#45;&gt;n15302 -->
<g id="edge24" class="edge"><title>n15301&#45;&gt;n15302</title>
</g>
<!-- n15302&#45;&gt;n15307 -->
<g id="edge16" class="edge"><title>n15302&#45;&gt;n15307</title>
<path fill="none" stroke="lightgray" d="M195.159,-309.327C232.064,-314.159 302.403,-323.473 362.193,-332 365.574,-332.482 369.062,-332.987 372.575,-333.501"/>
<polygon fill="lightgray" stroke="lightgray" points="372.068,-336.964 382.472,-334.962 373.091,-330.039 372.068,-336.964"/>
<text text-anchor="middle" x="295.193" y="-335.8" font-family="Times New Roman,serif" font-size="14.00" fill="lightgray">wff th</text>
</g>
<!-- n15303 -->
<g id="node16" class="node"><title>n15303</title>
<ellipse fill="none" stroke="lightgray" cx="168.596" cy="-234" rx="27" ry="18"/>
<text text-anchor="middle" x="168.596" y="-230.3" font-family="Times New Roman,serif" font-size="14.00" fill="lightgray">wta</text>
</g>
<!-- n15302&#45;&gt;n15303 -->
<g id="edge25" class="edge"><title>n15302&#45;&gt;n15303</title>
</g>
<!-- n15303&#45;&gt;n15307 -->
<g id="edge17" class="edge"><title>n15303&#45;&gt;n15307</title>
<path fill="none" stroke="lightgray" d="M194.696,-239.011C232.532,-247.201 305.752,-265.557 362.193,-295 374.301,-301.316 386.471,-310.107 396.649,-318.314"/>
<polygon fill="lightgray" stroke="lightgray" points="394.417,-321.011 404.345,-324.712 398.892,-315.628 394.417,-321.011"/>
<text text-anchor="middle" x="295.193" y="-298.8" font-family="Times New Roman,serif" font-size="14.00" fill="lightgray">wff ta</text>
</g>
<!-- n15304 -->
<g id="node17" class="node"><title>n15304</title>
<ellipse fill="none" stroke="lightgray" cx="168.596" cy="-162" rx="27" ry="18"/>
<text text-anchor="middle" x="168.596" y="-158.3" font-family="Times New Roman,serif" font-size="14.00" fill="lightgray">wet</text>
</g>
<!-- n15303&#45;&gt;n15304 -->
<g id="edge26" class="edge"><title>n15303&#45;&gt;n15304</title>
</g>
<!-- n15304&#45;&gt;n15307 -->
<g id="edge18" class="edge"><title>n15304&#45;&gt;n15307</title>
<path fill="none" stroke="lightgray" d="M195.306,-164.921C235.267,-170.668 312.81,-186.791 362.193,-229 388.268,-251.288 404.771,-287.847 413.706,-313.102"/>
<polygon fill="lightgray" stroke="lightgray" points="410.471,-314.465 416.973,-322.83 417.107,-312.236 410.471,-314.465"/>
<text text-anchor="middle" x="295.193" y="-232.8" font-family="Times New Roman,serif" font-size="14.00" fill="lightgray">wff et</text>
</g>
<!-- n15305 -->
<g id="node18" class="node"><title>n15305</title>
<ellipse fill="orange" stroke="black" cx="168.596" cy="-90" rx="41.6928" ry="18"/>
<text text-anchor="middle" x="168.596" y="-86.3" font-family="Times New Roman,serif" font-size="14.00">bi2an9.1</text>
</g>
<!-- n15304&#45;&gt;n15305 -->
<g id="edge27" class="edge"><title>n15304&#45;&gt;n15305</title>
</g>
<!-- n15305&#45;&gt;n15307 -->
<g id="edge19" class="edge"><title>n15305&#45;&gt;n15307</title>
<path fill="none" stroke="black" d="M209.804,-92.603C253.116,-97.5353 321.305,-111.796 362.193,-153 405.716,-196.86 417.642,-272.25 420.891,-312.961"/>
<polygon fill="black" stroke="black" points="417.402,-313.256 421.57,-322.997 424.386,-312.783 417.402,-313.256"/>
<text text-anchor="middle" x="295.193" y="-156.8" font-family="Times New Roman,serif" font-size="14.00">|&#45; ( ph &#45;&gt; ( ps &lt;&#45;&gt; ch ) )</text>
</g>
<!-- n15306 -->
<g id="node19" class="node"><title>n15306</title>
<ellipse fill="orange" stroke="black" cx="168.596" cy="-18" rx="41.6928" ry="18"/>
<text text-anchor="middle" x="168.596" y="-14.3" font-family="Times New Roman,serif" font-size="14.00">bi2an9.2</text>
</g>
<!-- n15305&#45;&gt;n15306 -->
<g id="edge28" class="edge"><title>n15305&#45;&gt;n15306</title>
</g>
<!-- n15306&#45;&gt;n15307 -->
<g id="edge20" class="edge"><title>n15306&#45;&gt;n15307</title>
<path fill="none" stroke="black" d="M210.42,-19.0358C254.272,-22.4277 322.932,-34.7143 362.193,-77 394.018,-111.278 412.564,-251.855 419.24,-312.706"/>
<polygon fill="black" stroke="black" points="415.772,-313.192 420.315,-322.764 422.732,-312.449 415.772,-313.192"/>
<text text-anchor="middle" x="295.193" y="-80.8" font-family="Times New Roman,serif" font-size="14.00">|&#45; ( th &#45;&gt; ( ta &lt;&#45;&gt; et ) )</text>
</g>
</g>
</svg>
