<?xml version="1.0" encoding="UTF-8" standalone="no"?>
<!DOCTYPE svg PUBLIC "-//W3C//DTD SVG 1.1//EN"
 "http://www.w3.org/Graphics/SVG/1.1/DTD/svg11.dtd">
<!-- Generated by graphviz version 2.38.0 (20140413.2041)
 -->
<!-- Title: proof_biadan2 Pages: 1 -->
<svg width="844pt" height="710pt"
 viewBox="0.00 0.00 843.58 710.00" xmlns="http://www.w3.org/2000/svg" xmlns:xlink="http://www.w3.org/1999/xlink">
<g id="graph0" class="graph" transform="scale(1 1) rotate(0) translate(4 706)">
<title>proof_biadan2</title>
<polygon fill="white" stroke="none" points="-4,4 -4,-706 839.579,-706 839.579,4 -4,4"/>
<!-- n11132 -->
<g id="node1" class="node"><title>n11132</title>
<ellipse fill="none" stroke="lightgray" cx="305.188" cy="-630" rx="27" ry="18"/>
<text text-anchor="middle" x="305.188" y="-626.3" font-family="Times New Roman,serif" font-size="14.00" fill="lightgray">wph</text>
</g>
<!-- n11148 -->
<g id="node2" class="node"><title>n11148</title>
<ellipse fill="cyan" stroke="black" cx="585.084" cy="-486" rx="27" ry="18"/>
<text text-anchor="middle" x="585.084" y="-482.3" font-family="Times New Roman,serif" font-size="14.00">bitri</text>
</g>
<!-- n11132&#45;&gt;n11148 -->
<g id="edge1" class="edge"><title>n11132&#45;&gt;n11148</title>
<path fill="none" stroke="lightgray" d="M332.264,-629.143C378.8,-626.343 477.161,-614.528 540.084,-565 556.79,-551.851 568.134,-530.506 575.114,-513.317"/>
<polygon fill="lightgray" stroke="lightgray" points="578.461,-514.361 578.727,-503.769 571.914,-511.883 578.461,-514.361"/>
<text text-anchor="middle" x="453.084" y="-628.8" font-family="Times New Roman,serif" font-size="14.00" fill="lightgray">wff ph</text>
</g>
<!-- n11135 -->
<g id="node4" class="node"><title>n11135</title>
<ellipse fill="none" stroke="lightgray" cx="305.188" cy="-558" rx="27" ry="18"/>
<text text-anchor="middle" x="305.188" y="-554.3" font-family="Times New Roman,serif" font-size="14.00" fill="lightgray">wa</text>
</g>
<!-- n11132&#45;&gt;n11135 -->
<g id="edge25" class="edge"><title>n11132&#45;&gt;n11135</title>
</g>
<!-- QED -->
<g id="node18" class="node"><title>QED</title>
</g>
<!-- n11148&#45;&gt;QED -->
<g id="edge24" class="edge"><title>n11148&#45;&gt;QED</title>
<path fill="none" stroke="black" d="M612.096,-486C650.425,-486 722.33,-486 766.796,-486"/>
<polygon fill="black" stroke="black" points="766.93,-489.5 776.93,-486 766.93,-482.5 766.93,-489.5"/>
<text text-anchor="middle" x="694.584" y="-489.8" font-family="Times New Roman,serif" font-size="14.00">|&#45; ( ph &lt;&#45;&gt; ( ps /\ ch ) )</text>
</g>
<!-- n11133 -->
<g id="node3" class="node"><title>n11133</title>
<ellipse fill="none" stroke="lightgray" cx="46.1459" cy="-684" rx="27" ry="18"/>
<text text-anchor="middle" x="46.1459" y="-680.3" font-family="Times New Roman,serif" font-size="14.00" fill="lightgray">wps</text>
</g>
<!-- n11133&#45;&gt;n11135 -->
<g id="edge2" class="edge"><title>n11133&#45;&gt;n11135</title>
<path fill="none" stroke="lightgray" d="M72.3227,-679.023C111.35,-670.522 187.832,-650.672 244.292,-616 259.325,-606.768 273.619,-593.181 284.472,-581.478"/>
<polygon fill="lightgray" stroke="lightgray" points="287.329,-583.534 291.401,-573.753 282.118,-578.859 287.329,-583.534"/>
<text text-anchor="middle" x="177.292" y="-672.8" font-family="Times New Roman,serif" font-size="14.00" fill="lightgray">wff ps</text>
</g>
<!-- n11134 -->
<g id="node5" class="node"><title>n11134</title>
<ellipse fill="none" stroke="lightgray" cx="46.1459" cy="-612" rx="27" ry="18"/>
<text text-anchor="middle" x="46.1459" y="-608.3" font-family="Times New Roman,serif" font-size="14.00" fill="lightgray">wph</text>
</g>
<!-- n11133&#45;&gt;n11134 -->
<g id="edge5" class="edge"><title>n11133&#45;&gt;n11134</title>
</g>
<!-- n11135&#45;&gt;n11148 -->
<g id="edge4" class="edge"><title>n11135&#45;&gt;n11148</title>
<path fill="none" stroke="lightgray" d="M331.523,-553.846C374.892,-546.384 465.863,-529.204 540.084,-505 544.383,-503.598 548.84,-501.935 553.193,-500.185"/>
<polygon fill="lightgray" stroke="lightgray" points="554.601,-503.39 562.458,-496.283 551.884,-496.939 554.601,-503.39"/>
<text text-anchor="middle" x="453.084" y="-549.8" font-family="Times New Roman,serif" font-size="14.00" fill="lightgray">wff ( ps /\ ph )</text>
</g>
<!-- n11138 -->
<g id="node7" class="node"><title>n11138</title>
<ellipse fill="none" stroke="lightgray" cx="305.188" cy="-486" rx="27" ry="18"/>
<text text-anchor="middle" x="305.188" y="-482.3" font-family="Times New Roman,serif" font-size="14.00" fill="lightgray">wa</text>
</g>
<!-- n11135&#45;&gt;n11138 -->
<g id="edge26" class="edge"><title>n11135&#45;&gt;n11138</title>
</g>
<!-- n11134&#45;&gt;n11135 -->
<g id="edge3" class="edge"><title>n11134&#45;&gt;n11135</title>
<path fill="none" stroke="lightgray" d="M72.2602,-606.724C118.329,-597.046 216.437,-576.435 269.079,-565.376"/>
<polygon fill="lightgray" stroke="lightgray" points="269.905,-568.779 278.972,-563.297 268.466,-561.928 269.905,-568.779"/>
<text text-anchor="middle" x="177.292" y="-600.8" font-family="Times New Roman,serif" font-size="14.00" fill="lightgray">wff ph</text>
</g>
<!-- n11136 -->
<g id="node6" class="node"><title>n11136</title>
<ellipse fill="none" stroke="lightgray" cx="46.1459" cy="-558" rx="27" ry="18"/>
<text text-anchor="middle" x="46.1459" y="-554.3" font-family="Times New Roman,serif" font-size="14.00" fill="lightgray">wps</text>
</g>
<!-- n11136&#45;&gt;n11138 -->
<g id="edge6" class="edge"><title>n11136&#45;&gt;n11138</title>
<path fill="none" stroke="lightgray" d="M71.5237,-551.819C108.86,-542.269 182.388,-523.13 244.292,-505 252.946,-502.466 262.255,-499.587 270.895,-496.851"/>
<polygon fill="lightgray" stroke="lightgray" points="272.191,-500.111 280.651,-493.733 270.06,-493.444 272.191,-500.111"/>
<text text-anchor="middle" x="177.292" y="-544.8" font-family="Times New Roman,serif" font-size="14.00" fill="lightgray">wff ps</text>
</g>
<!-- n11137 -->
<g id="node8" class="node"><title>n11137</title>
<ellipse fill="none" stroke="lightgray" cx="46.1459" cy="-486" rx="27" ry="18"/>
<text text-anchor="middle" x="46.1459" y="-482.3" font-family="Times New Roman,serif" font-size="14.00" fill="lightgray">wch</text>
</g>
<!-- n11136&#45;&gt;n11137 -->
<g id="edge9" class="edge"><title>n11136&#45;&gt;n11137</title>
</g>
<!-- n11138&#45;&gt;n11148 -->
<g id="edge8" class="edge"><title>n11138&#45;&gt;n11148</title>
<path fill="none" stroke="lightgray" d="M332.332,-486C382.09,-486 490.512,-486 547.466,-486"/>
<polygon fill="lightgray" stroke="lightgray" points="547.807,-489.5 557.807,-486 547.807,-482.5 547.807,-489.5"/>
<text text-anchor="middle" x="453.084" y="-489.8" font-family="Times New Roman,serif" font-size="14.00" fill="lightgray">wff ( ps /\ ch )</text>
</g>
<!-- n11142 -->
<g id="node10" class="node"><title>n11142</title>
<ellipse fill="cyan" stroke="black" cx="305.188" cy="-392" rx="42.7926" ry="18"/>
<text text-anchor="middle" x="305.188" y="-388.3" font-family="Times New Roman,serif" font-size="14.00">pm4.71ri</text>
</g>
<!-- n11138&#45;&gt;n11142 -->
<g id="edge27" class="edge"><title>n11138&#45;&gt;n11142</title>
</g>
<!-- n11137&#45;&gt;n11138 -->
<g id="edge7" class="edge"><title>n11137&#45;&gt;n11138</title>
<path fill="none" stroke="lightgray" d="M73.207,-486C119.298,-486 215.277,-486 267.842,-486"/>
<polygon fill="lightgray" stroke="lightgray" points="268.058,-489.5 278.058,-486 268.058,-482.5 268.058,-489.5"/>
<text text-anchor="middle" x="177.292" y="-489.8" font-family="Times New Roman,serif" font-size="14.00" fill="lightgray">wff ch</text>
</g>
<!-- n11139 -->
<g id="node9" class="node"><title>n11139</title>
<ellipse fill="none" stroke="lightgray" cx="46.1459" cy="-432" rx="27" ry="18"/>
<text text-anchor="middle" x="46.1459" y="-428.3" font-family="Times New Roman,serif" font-size="14.00" fill="lightgray">wph</text>
</g>
<!-- n11139&#45;&gt;n11142 -->
<g id="edge10" class="edge"><title>n11139&#45;&gt;n11142</title>
<path fill="none" stroke="lightgray" d="M72.6843,-428.234C110.287,-422.661 182.753,-411.819 244.292,-402 247.887,-401.426 251.602,-400.826 255.339,-400.215"/>
<polygon fill="lightgray" stroke="lightgray" points="255.917,-403.667 265.216,-398.59 254.78,-396.76 255.917,-403.667"/>
<text text-anchor="middle" x="177.292" y="-425.8" font-family="Times New Roman,serif" font-size="14.00" fill="lightgray">wff ph</text>
</g>
<!-- n11140 -->
<g id="node11" class="node"><title>n11140</title>
<ellipse fill="none" stroke="lightgray" cx="46.1459" cy="-360" rx="27" ry="18"/>
<text text-anchor="middle" x="46.1459" y="-356.3" font-family="Times New Roman,serif" font-size="14.00" fill="lightgray">wps</text>
</g>
<!-- n11139&#45;&gt;n11140 -->
<g id="edge14" class="edge"><title>n11139&#45;&gt;n11140</title>
</g>
<!-- n11142&#45;&gt;n11148 -->
<g id="edge13" class="edge"><title>n11142&#45;&gt;n11148</title>
<path fill="none" stroke="black" d="M341.028,-402.016C387.048,-415.508 470.414,-440.858 540.084,-467 544.318,-468.589 548.737,-470.359 553.071,-472.162"/>
<polygon fill="black" stroke="black" points="551.751,-475.404 562.322,-476.105 554.495,-468.964 551.751,-475.404"/>
<text text-anchor="middle" x="453.084" y="-470.8" font-family="Times New Roman,serif" font-size="14.00">|&#45; ( ph &lt;&#45;&gt; ( ps /\ ph ) )</text>
</g>
<!-- n11147 -->
<g id="node14" class="node"><title>n11147</title>
<ellipse fill="cyan" stroke="black" cx="305.188" cy="-203" rx="40.0939" ry="18"/>
<text text-anchor="middle" x="305.188" y="-199.3" font-family="Times New Roman,serif" font-size="14.00">pm5.32i</text>
</g>
<!-- n11142&#45;&gt;n11147 -->
<g id="edge28" class="edge"><title>n11142&#45;&gt;n11147</title>
</g>
<!-- n11140&#45;&gt;n11142 -->
<g id="edge11" class="edge"><title>n11140&#45;&gt;n11142</title>
<path fill="none" stroke="lightgray" d="M72.7318,-363.185C114.724,-368.413 199.025,-378.908 253.466,-385.685"/>
<polygon fill="lightgray" stroke="lightgray" points="253.245,-389.185 263.601,-386.947 254.11,-382.238 253.245,-389.185"/>
<text text-anchor="middle" x="177.292" y="-388.8" font-family="Times New Roman,serif" font-size="14.00" fill="lightgray">wff ps</text>
</g>
<!-- n11141 -->
<g id="node12" class="node"><title>n11141</title>
<ellipse fill="orange" stroke="black" cx="46.1459" cy="-288" rx="46.2923" ry="18"/>
<text text-anchor="middle" x="46.1459" y="-284.3" font-family="Times New Roman,serif" font-size="14.00">biadan2.1</text>
</g>
<!-- n11140&#45;&gt;n11141 -->
<g id="edge15" class="edge"><title>n11140&#45;&gt;n11141</title>
</g>
<!-- n11141&#45;&gt;n11142 -->
<g id="edge12" class="edge"><title>n11141&#45;&gt;n11142</title>
<path fill="none" stroke="black" d="M86.6597,-296.632C127.462,-306.405 192.322,-324.373 244.292,-350 255.393,-355.474 266.722,-362.867 276.496,-369.924"/>
<polygon fill="black" stroke="black" points="274.529,-372.823 284.641,-375.983 278.707,-367.206 274.529,-372.823"/>
<text text-anchor="middle" x="177.292" y="-353.8" font-family="Times New Roman,serif" font-size="14.00">|&#45; ( ph &#45;&gt; ps )</text>
</g>
<!-- n11143 -->
<g id="node13" class="node"><title>n11143</title>
<ellipse fill="none" stroke="lightgray" cx="46.1459" cy="-234" rx="27" ry="18"/>
<text text-anchor="middle" x="46.1459" y="-230.3" font-family="Times New Roman,serif" font-size="14.00" fill="lightgray">wps</text>
</g>
<!-- n11143&#45;&gt;n11147 -->
<g id="edge16" class="edge"><title>n11143&#45;&gt;n11147</title>
<path fill="none" stroke="lightgray" d="M73.207,-230.857C116.013,-225.694 201.85,-215.342 255.976,-208.814"/>
<polygon fill="lightgray" stroke="lightgray" points="256.517,-212.275 266.026,-207.602 255.679,-205.325 256.517,-212.275"/>
<text text-anchor="middle" x="177.292" y="-229.8" font-family="Times New Roman,serif" font-size="14.00" fill="lightgray">wff ps</text>
</g>
<!-- n11144 -->
<g id="node15" class="node"><title>n11144</title>
<ellipse fill="none" stroke="lightgray" cx="46.1459" cy="-162" rx="27" ry="18"/>
<text text-anchor="middle" x="46.1459" y="-158.3" font-family="Times New Roman,serif" font-size="14.00" fill="lightgray">wph</text>
</g>
<!-- n11143&#45;&gt;n11144 -->
<g id="edge21" class="edge"><title>n11143&#45;&gt;n11144</title>
</g>
<!-- n11147&#45;&gt;n11148 -->
<g id="edge20" class="edge"><title>n11147&#45;&gt;n11148</title>
<path fill="none" stroke="black" d="M330.457,-217.163C376.654,-245.164 478.138,-311.798 540.084,-391 556.082,-411.454 567.927,-438.665 575.272,-458.721"/>
<polygon fill="black" stroke="black" points="571.989,-459.934 578.608,-468.207 578.593,-457.612 571.989,-459.934"/>
<text text-anchor="middle" x="453.084" y="-394.8" font-family="Times New Roman,serif" font-size="14.00">|&#45; ( ( ps /\ ph ) &lt;&#45;&gt; ( ps /\ ch ) )</text>
</g>
<!-- n11144&#45;&gt;n11147 -->
<g id="edge17" class="edge"><title>n11144&#45;&gt;n11147</title>
<path fill="none" stroke="lightgray" d="M72.7059,-165.634C110.336,-171.043 182.834,-181.683 244.292,-192 248.692,-192.739 253.27,-193.533 257.846,-194.344"/>
<polygon fill="lightgray" stroke="lightgray" points="257.332,-197.808 267.794,-196.132 258.571,-190.918 257.332,-197.808"/>
<text text-anchor="middle" x="177.292" y="-195.8" font-family="Times New Roman,serif" font-size="14.00" fill="lightgray">wff ph</text>
</g>
<!-- n11145 -->
<g id="node16" class="node"><title>n11145</title>
<ellipse fill="none" stroke="lightgray" cx="46.1459" cy="-90" rx="27" ry="18"/>
<text text-anchor="middle" x="46.1459" y="-86.3" font-family="Times New Roman,serif" font-size="14.00" fill="lightgray">wch</text>
</g>
<!-- n11144&#45;&gt;n11145 -->
<g id="edge22" class="edge"><title>n11144&#45;&gt;n11145</title>
</g>
<!-- n11145&#45;&gt;n11147 -->
<g id="edge18" class="edge"><title>n11145&#45;&gt;n11147</title>
<path fill="none" stroke="lightgray" d="M72.3552,-94.7881C111.099,-102.849 186.821,-121.421 244.292,-153 257.347,-160.173 270.238,-170.41 280.698,-179.755"/>
<polygon fill="lightgray" stroke="lightgray" points="278.461,-182.454 288.184,-186.662 283.207,-177.308 278.461,-182.454"/>
<text text-anchor="middle" x="177.292" y="-156.8" font-family="Times New Roman,serif" font-size="14.00" fill="lightgray">wff ch</text>
</g>
<!-- n11146 -->
<g id="node17" class="node"><title>n11146</title>
<ellipse fill="orange" stroke="black" cx="46.1459" cy="-18" rx="46.2923" ry="18"/>
<text text-anchor="middle" x="46.1459" y="-14.3" font-family="Times New Roman,serif" font-size="14.00">biadan2.2</text>
</g>
<!-- n11145&#45;&gt;n11146 -->
<g id="edge23" class="edge"><title>n11145&#45;&gt;n11146</title>
</g>
<!-- n11146&#45;&gt;n11147 -->
<g id="edge19" class="edge"><title>n11146&#45;&gt;n11147</title>
<path fill="none" stroke="black" d="M90.6824,-23.1465C134.095,-30.3052 200.457,-46.9899 244.292,-85 271.874,-108.917 288.292,-148.608 296.779,-175.275"/>
<polygon fill="black" stroke="black" points="293.514,-176.571 299.746,-185.138 300.217,-174.554 293.514,-176.571"/>
<text text-anchor="middle" x="177.292" y="-88.8" font-family="Times New Roman,serif" font-size="14.00">|&#45; ( ps &#45;&gt; ( ph &lt;&#45;&gt; ch ) )</text>
</g>
</g>
</svg>
