<?xml version="1.0" encoding="UTF-8" standalone="no"?>
<!DOCTYPE svg PUBLIC "-//W3C//DTD SVG 1.1//EN"
 "http://www.w3.org/Graphics/SVG/1.1/DTD/svg11.dtd">
<!-- Generated by graphviz version 2.38.0 (20140413.2041)
 -->
<!-- Title: proof_biantrurd Pages: 1 -->
<svg width="943pt" height="363pt"
 viewBox="0.00 0.00 943.39 363.00" xmlns="http://www.w3.org/2000/svg" xmlns:xlink="http://www.w3.org/1999/xlink">
<g id="graph0" class="graph" transform="scale(1 1) rotate(0) translate(4 359)">
<title>proof_biantrurd</title>
<polygon fill="white" stroke="none" points="-4,4 -4,-359 939.386,-359 939.386,4 -4,4"/>
<!-- n8724 -->
<g id="node1" class="node"><title>n8724</title>
<ellipse fill="none" stroke="lightgray" cx="346.446" cy="-337" rx="27" ry="18"/>
<text text-anchor="middle" x="346.446" y="-333.3" font-family="Times New Roman,serif" font-size="14.00" fill="lightgray">wph</text>
</g>
<!-- n8735 -->
<g id="node2" class="node"><title>n8735</title>
<ellipse fill="cyan" stroke="black" cx="634.892" cy="-193" rx="27" ry="18"/>
<text text-anchor="middle" x="634.892" y="-189.3" font-family="Times New Roman,serif" font-size="14.00">syl</text>
</g>
<!-- n8724&#45;&gt;n8735 -->
<g id="edge1" class="edge"><title>n8724&#45;&gt;n8735</title>
<path fill="none" stroke="lightgray" d="M373.725,-336.615C421.655,-334.615 524.359,-324.178 589.892,-273 606.914,-259.706 618.281,-237.9 625.19,-220.409"/>
<polygon fill="lightgray" stroke="lightgray" points="628.592,-221.3 628.752,-210.706 622.02,-218.888 628.592,-221.3"/>
<text text-anchor="middle" x="500.892" y="-336.8" font-family="Times New Roman,serif" font-size="14.00" fill="lightgray">wff ph</text>
</g>
<!-- n8725 -->
<g id="node3" class="node"><title>n8725</title>
<ellipse fill="none" stroke="lightgray" cx="346.446" cy="-265" rx="27" ry="18"/>
<text text-anchor="middle" x="346.446" y="-261.3" font-family="Times New Roman,serif" font-size="14.00" fill="lightgray">wps</text>
</g>
<!-- n8724&#45;&gt;n8725 -->
<g id="edge16" class="edge"><title>n8724&#45;&gt;n8725</title>
</g>
<!-- QED -->
<g id="node13" class="node"><title>QED</title>
</g>
<!-- n8735&#45;&gt;QED -->
<g id="edge15" class="edge"><title>n8735&#45;&gt;QED</title>
<path fill="none" stroke="black" d="M662.198,-193C709.934,-193 811.009,-193 866.56,-193"/>
<polygon fill="black" stroke="black" points="866.707,-196.5 876.707,-193 866.707,-189.5 866.707,-196.5"/>
<text text-anchor="middle" x="769.392" y="-196.8" font-family="Times New Roman,serif" font-size="14.00">|&#45; ( ph &#45;&gt; ( ch &lt;&#45;&gt; ( ps /\ ch ) ) )</text>
</g>
<!-- n8725&#45;&gt;n8735 -->
<g id="edge2" class="edge"><title>n8725&#45;&gt;n8735</title>
<path fill="none" stroke="lightgray" d="M372.999,-261.079C417.674,-253.859 512.582,-236.886 589.892,-212 594.196,-210.614 598.655,-208.961 603.01,-207.216"/>
<polygon fill="lightgray" stroke="lightgray" points="604.417,-210.421 612.276,-203.317 601.702,-203.969 604.417,-210.421"/>
<text text-anchor="middle" x="500.892" y="-257.8" font-family="Times New Roman,serif" font-size="14.00" fill="lightgray">wff ps</text>
</g>
<!-- n8730 -->
<g id="node5" class="node"><title>n8730</title>
<ellipse fill="none" stroke="lightgray" cx="346.446" cy="-193" rx="27" ry="18"/>
<text text-anchor="middle" x="346.446" y="-189.3" font-family="Times New Roman,serif" font-size="14.00" fill="lightgray">wb</text>
</g>
<!-- n8725&#45;&gt;n8730 -->
<g id="edge17" class="edge"><title>n8725&#45;&gt;n8730</title>
</g>
<!-- n8726 -->
<g id="node4" class="node"><title>n8726</title>
<ellipse fill="none" stroke="lightgray" cx="154" cy="-225" rx="27" ry="18"/>
<text text-anchor="middle" x="154" y="-221.3" font-family="Times New Roman,serif" font-size="14.00" fill="lightgray">wch</text>
</g>
<!-- n8726&#45;&gt;n8730 -->
<g id="edge3" class="edge"><title>n8726&#45;&gt;n8730</title>
<path fill="none" stroke="lightgray" d="M180.29,-220.751C213.585,-215.156 272.302,-205.29 310.011,-198.954"/>
<polygon fill="lightgray" stroke="lightgray" points="310.77,-202.376 320.051,-197.267 309.61,-195.472 310.77,-202.376"/>
<text text-anchor="middle" x="240" y="-220.8" font-family="Times New Roman,serif" font-size="14.00" fill="lightgray">wff ch</text>
</g>
<!-- n8729 -->
<g id="node7" class="node"><title>n8729</title>
<ellipse fill="none" stroke="lightgray" cx="154" cy="-153" rx="27" ry="18"/>
<text text-anchor="middle" x="154" y="-149.3" font-family="Times New Roman,serif" font-size="14.00" fill="lightgray">wa</text>
</g>
<!-- n8726&#45;&gt;n8729 -->
<g id="edge9" class="edge"><title>n8726&#45;&gt;n8729</title>
</g>
<!-- n8730&#45;&gt;n8735 -->
<g id="edge8" class="edge"><title>n8730&#45;&gt;n8735</title>
<path fill="none" stroke="lightgray" d="M373.625,-193C424.982,-193 539.026,-193 597.611,-193"/>
<polygon fill="lightgray" stroke="lightgray" points="597.877,-196.5 607.876,-193 597.876,-189.5 597.877,-196.5"/>
<text text-anchor="middle" x="500.892" y="-196.8" font-family="Times New Roman,serif" font-size="14.00" fill="lightgray">wff ( ch &lt;&#45;&gt; ( ps /\ ch ) )</text>
</g>
<!-- n8731 -->
<g id="node9" class="node"><title>n8731</title>
<ellipse fill="orange" stroke="black" cx="346.446" cy="-121" rx="47.3916" ry="18"/>
<text text-anchor="middle" x="346.446" y="-117.3" font-family="Times New Roman,serif" font-size="14.00">biantrud.1</text>
</g>
<!-- n8730&#45;&gt;n8731 -->
<g id="edge18" class="edge"><title>n8730&#45;&gt;n8731</title>
</g>
<!-- n8727 -->
<g id="node6" class="node"><title>n8727</title>
<ellipse fill="none" stroke="lightgray" cx="27" cy="-198" rx="27" ry="18"/>
<text text-anchor="middle" x="27" y="-194.3" font-family="Times New Roman,serif" font-size="14.00" fill="lightgray">wps</text>
</g>
<!-- n8727&#45;&gt;n8729 -->
<g id="edge4" class="edge"><title>n8727&#45;&gt;n8729</title>
<path fill="none" stroke="lightgray" d="M51.2186,-189.641C70.6886,-182.632 98.7117,-172.544 120.426,-164.727"/>
<polygon fill="lightgray" stroke="lightgray" points="121.682,-167.994 129.906,-161.314 119.311,-161.408 121.682,-167.994"/>
<text text-anchor="middle" x="90.5" y="-186.8" font-family="Times New Roman,serif" font-size="14.00" fill="lightgray">wff ps</text>
</g>
<!-- n8728 -->
<g id="node8" class="node"><title>n8728</title>
<ellipse fill="none" stroke="lightgray" cx="27" cy="-126" rx="27" ry="18"/>
<text text-anchor="middle" x="27" y="-122.3" font-family="Times New Roman,serif" font-size="14.00" fill="lightgray">wch</text>
</g>
<!-- n8727&#45;&gt;n8728 -->
<g id="edge7" class="edge"><title>n8727&#45;&gt;n8728</title>
</g>
<!-- n8729&#45;&gt;n8730 -->
<g id="edge6" class="edge"><title>n8729&#45;&gt;n8730</title>
<path fill="none" stroke="lightgray" d="M179.897,-158.229C213.26,-165.236 272.644,-177.709 310.481,-185.656"/>
<polygon fill="lightgray" stroke="lightgray" points="310.036,-189.139 320.542,-187.769 311.475,-182.289 310.036,-189.139"/>
<text text-anchor="middle" x="240" y="-182.8" font-family="Times New Roman,serif" font-size="14.00" fill="lightgray">wff ( ps /\ ch )</text>
</g>
<!-- n8728&#45;&gt;n8729 -->
<g id="edge5" class="edge"><title>n8728&#45;&gt;n8729</title>
<path fill="none" stroke="lightgray" d="M52.9952,-131.399C71.6456,-135.427 97.3666,-140.983 118.053,-145.451"/>
<polygon fill="lightgray" stroke="lightgray" points="117.535,-148.92 128.048,-147.61 119.013,-142.078 117.535,-148.92"/>
<text text-anchor="middle" x="90.5" y="-147.8" font-family="Times New Roman,serif" font-size="14.00" fill="lightgray">wff ch</text>
</g>
<!-- n8731&#45;&gt;n8735 -->
<g id="edge10" class="edge"><title>n8731&#45;&gt;n8735</title>
<path fill="none" stroke="black" d="M390.586,-127.844C439.588,-136.211 521.605,-152.019 589.892,-174 594.196,-175.386 598.655,-177.039 603.01,-178.784"/>
<polygon fill="black" stroke="black" points="601.702,-182.031 612.276,-182.683 604.417,-175.579 601.702,-182.031"/>
<text text-anchor="middle" x="500.892" y="-177.8" font-family="Times New Roman,serif" font-size="14.00">|&#45; ( ph &#45;&gt; ps )</text>
</g>
<!-- n8734 -->
<g id="node11" class="node"><title>n8734</title>
<ellipse fill="cyan" stroke="black" cx="346.446" cy="-49" rx="27" ry="18"/>
<text text-anchor="middle" x="346.446" y="-45.3" font-family="Times New Roman,serif" font-size="14.00">ibar</text>
</g>
<!-- n8731&#45;&gt;n8734 -->
<g id="edge19" class="edge"><title>n8731&#45;&gt;n8734</title>
</g>
<!-- n8732 -->
<g id="node10" class="node"><title>n8732</title>
<ellipse fill="none" stroke="lightgray" cx="154" cy="-90" rx="27" ry="18"/>
<text text-anchor="middle" x="154" y="-86.3" font-family="Times New Roman,serif" font-size="14.00" fill="lightgray">wps</text>
</g>
<!-- n8732&#45;&gt;n8734 -->
<g id="edge11" class="edge"><title>n8732&#45;&gt;n8734</title>
<path fill="none" stroke="lightgray" d="M179.897,-84.64C213.26,-77.4576 272.644,-64.6732 310.481,-56.5274"/>
<polygon fill="lightgray" stroke="lightgray" points="311.503,-59.8877 320.542,-54.3613 310.03,-53.0444 311.503,-59.8877"/>
<text text-anchor="middle" x="240" y="-84.8" font-family="Times New Roman,serif" font-size="14.00" fill="lightgray">wff ps</text>
</g>
<!-- n8733 -->
<g id="node12" class="node"><title>n8733</title>
<ellipse fill="none" stroke="lightgray" cx="154" cy="-18" rx="27" ry="18"/>
<text text-anchor="middle" x="154" y="-14.3" font-family="Times New Roman,serif" font-size="14.00" fill="lightgray">wch</text>
</g>
<!-- n8732&#45;&gt;n8733 -->
<g id="edge14" class="edge"><title>n8732&#45;&gt;n8733</title>
</g>
<!-- n8734&#45;&gt;n8735 -->
<g id="edge13" class="edge"><title>n8734&#45;&gt;n8735</title>
<path fill="none" stroke="black" d="M373.725,-49.3847C421.655,-51.3853 524.359,-61.8222 589.892,-113 606.914,-126.294 618.281,-148.1 625.19,-165.591"/>
<polygon fill="black" stroke="black" points="622.02,-167.112 628.752,-175.294 628.592,-164.7 622.02,-167.112"/>
<text text-anchor="middle" x="500.892" y="-116.8" font-family="Times New Roman,serif" font-size="14.00">|&#45; ( ps &#45;&gt; ( ch &lt;&#45;&gt; ( ps /\ ch ) ) )</text>
</g>
<!-- n8733&#45;&gt;n8734 -->
<g id="edge12" class="edge"><title>n8733&#45;&gt;n8734</title>
<path fill="none" stroke="lightgray" d="M180.647,-21.2272C206.155,-24.5394 246.375,-30.0395 281,-36 290.582,-37.6495 300.923,-39.6408 310.457,-41.5636"/>
<polygon fill="lightgray" stroke="lightgray" points="309.913,-45.0247 320.412,-43.6039 311.318,-38.1672 309.913,-45.0247"/>
<text text-anchor="middle" x="240" y="-39.8" font-family="Times New Roman,serif" font-size="14.00" fill="lightgray">wff ch</text>
</g>
</g>
</svg>
