<?xml version="1.0" encoding="UTF-8" standalone="no"?>
<!DOCTYPE svg PUBLIC "-//W3C//DTD SVG 1.1//EN"
 "http://www.w3.org/Graphics/SVG/1.1/DTD/svg11.dtd">
<!-- Generated by graphviz version 2.38.0 (20140413.2041)
 -->
<!-- Title: proof_bianfi Pages: 1 -->
<svg width="631pt" height="332pt"
 viewBox="0.00 0.00 630.98 332.00" xmlns="http://www.w3.org/2000/svg" xmlns:xlink="http://www.w3.org/1999/xlink">
<g id="graph0" class="graph" transform="scale(1 1) rotate(0) translate(4 328)">
<title>proof_bianfi</title>
<polygon fill="white" stroke="none" points="-4,4 -4,-328 626.976,-328 626.976,4 -4,4"/>
<!-- n16385 -->
<g id="node1" class="node"><title>n16385</title>
<ellipse fill="none" stroke="lightgray" cx="186.09" cy="-306" rx="27" ry="18"/>
<text text-anchor="middle" x="186.09" y="-302.3" font-family="Times New Roman,serif" font-size="14.00" fill="lightgray">wph</text>
</g>
<!-- n16394 -->
<g id="node2" class="node"><title>n16394</title>
<ellipse fill="cyan" stroke="black" cx="370.634" cy="-197" rx="31.6951" ry="18"/>
<text text-anchor="middle" x="370.634" y="-193.3" font-family="Times New Roman,serif" font-size="14.00">2false</text>
</g>
<!-- n16385&#45;&gt;n16394 -->
<g id="edge1" class="edge"><title>n16385&#45;&gt;n16394</title>
<path fill="none" stroke="lightgray" d="M209.898,-297.222C237.381,-286.135 284.399,-265.516 320.787,-241 329.874,-234.878 339.015,-227.16 346.891,-219.904"/>
<polygon fill="lightgray" stroke="lightgray" points="349.451,-222.299 354.297,-212.878 344.633,-217.221 349.451,-222.299"/>
<text text-anchor="middle" x="281.287" y="-285.8" font-family="Times New Roman,serif" font-size="14.00" fill="lightgray">wff ph</text>
</g>
<!-- n16388 -->
<g id="node4" class="node"><title>n16388</title>
<ellipse fill="none" stroke="lightgray" cx="186.09" cy="-234" rx="27" ry="18"/>
<text text-anchor="middle" x="186.09" y="-230.3" font-family="Times New Roman,serif" font-size="14.00" fill="lightgray">wa</text>
</g>
<!-- n16385&#45;&gt;n16388 -->
<g id="edge14" class="edge"><title>n16385&#45;&gt;n16388</title>
</g>
<!-- QED -->
<g id="node11" class="node"><title>QED</title>
</g>
<!-- n16394&#45;&gt;QED -->
<g id="edge13" class="edge"><title>n16394&#45;&gt;QED</title>
<path fill="none" stroke="black" d="M402.842,-197C442.65,-197 511.468,-197 554.414,-197"/>
<polygon fill="black" stroke="black" points="554.479,-200.5 564.479,-197 554.479,-193.5 554.479,-200.5"/>
<text text-anchor="middle" x="483.481" y="-200.8" font-family="Times New Roman,serif" font-size="14.00">|&#45; ( ph &lt;&#45;&gt; ( ps / ph ) )</text>
</g>
<!-- n16386 -->
<g id="node3" class="node"><title>n16386</title>
<ellipse fill="none" stroke="lightgray" cx="37.6967" cy="-293" rx="27" ry="18"/>
<text text-anchor="middle" x="37.6967" y="-289.3" font-family="Times New Roman,serif" font-size="14.00" fill="lightgray">wps</text>
</g>
<!-- n16386&#45;&gt;n16388 -->
<g id="edge2" class="edge"><title>n16386&#45;&gt;n16388</title>
<path fill="none" stroke="lightgray" d="M61.2498,-283.911C85.7866,-274.022 125.216,-258.131 152.98,-246.941"/>
<polygon fill="lightgray" stroke="lightgray" points="154.303,-250.181 162.27,-243.197 151.687,-243.689 154.303,-250.181"/>
<text text-anchor="middle" x="111.893" y="-273.8" font-family="Times New Roman,serif" font-size="14.00" fill="lightgray">wff ps</text>
</g>
<!-- n16387 -->
<g id="node5" class="node"><title>n16387</title>
<ellipse fill="none" stroke="lightgray" cx="37.6967" cy="-221" rx="27" ry="18"/>
<text text-anchor="middle" x="37.6967" y="-217.3" font-family="Times New Roman,serif" font-size="14.00" fill="lightgray">wph</text>
</g>
<!-- n16386&#45;&gt;n16387 -->
<g id="edge5" class="edge"><title>n16386&#45;&gt;n16387</title>
</g>
<!-- n16388&#45;&gt;n16394 -->
<g id="edge4" class="edge"><title>n16388&#45;&gt;n16394</title>
<path fill="none" stroke="lightgray" d="M212.089,-228.933C242.572,-222.754 294.453,-212.238 330.305,-204.971"/>
<polygon fill="lightgray" stroke="lightgray" points="331.313,-208.339 340.418,-202.922 329.922,-201.478 331.313,-208.339"/>
<text text-anchor="middle" x="281.287" y="-225.8" font-family="Times New Roman,serif" font-size="14.00" fill="lightgray">wff ( ps / ph )</text>
</g>
<!-- n16389 -->
<g id="node6" class="node"><title>n16389</title>
<ellipse fill="orange" stroke="black" cx="186.09" cy="-162" rx="37.8943" ry="18"/>
<text text-anchor="middle" x="186.09" y="-158.3" font-family="Times New Roman,serif" font-size="14.00">bianfi.1</text>
</g>
<!-- n16388&#45;&gt;n16389 -->
<g id="edge15" class="edge"><title>n16388&#45;&gt;n16389</title>
</g>
<!-- n16387&#45;&gt;n16388 -->
<g id="edge3" class="edge"><title>n16387&#45;&gt;n16388</title>
<path fill="none" stroke="lightgray" d="M64.5319,-223.294C87.9063,-225.37 122.573,-228.448 148.741,-230.772"/>
<polygon fill="lightgray" stroke="lightgray" points="148.75,-234.287 159.021,-231.685 149.369,-227.314 148.75,-234.287"/>
<text text-anchor="middle" x="111.893" y="-232.8" font-family="Times New Roman,serif" font-size="14.00" fill="lightgray">wff ph</text>
</g>
<!-- n16389&#45;&gt;n16394 -->
<g id="edge6" class="edge"><title>n16389&#45;&gt;n16394</title>
<path fill="none" stroke="black" d="M221.425,-168.583C252.365,-174.515 297.839,-183.234 330.246,-189.448"/>
<polygon fill="black" stroke="black" points="329.793,-192.925 340.273,-191.371 331.111,-186.05 329.793,-192.925"/>
<text text-anchor="middle" x="281.287" y="-190.8" font-family="Times New Roman,serif" font-size="14.00">|&#45; &#45;. ph</text>
</g>
<!-- n16393 -->
<g id="node8" class="node"><title>n16393</title>
<ellipse fill="cyan" stroke="black" cx="186.09" cy="-90" rx="32.4942" ry="18"/>
<text text-anchor="middle" x="186.09" y="-86.3" font-family="Times New Roman,serif" font-size="14.00">intnan</text>
</g>
<!-- n16389&#45;&gt;n16393 -->
<g id="edge16" class="edge"><title>n16389&#45;&gt;n16393</title>
</g>
<!-- n16390 -->
<g id="node7" class="node"><title>n16390</title>
<ellipse fill="none" stroke="lightgray" cx="37.6967" cy="-162" rx="27" ry="18"/>
<text text-anchor="middle" x="37.6967" y="-158.3" font-family="Times New Roman,serif" font-size="14.00" fill="lightgray">wph</text>
</g>
<!-- n16390&#45;&gt;n16393 -->
<g id="edge7" class="edge"><title>n16390&#45;&gt;n16393</title>
<path fill="none" stroke="lightgray" d="M59.9835,-151.531C84.2073,-139.617 124.058,-120.017 152.267,-106.143"/>
<polygon fill="lightgray" stroke="lightgray" points="153.919,-109.231 161.348,-101.677 150.83,-102.95 153.919,-109.231"/>
<text text-anchor="middle" x="111.893" y="-138.8" font-family="Times New Roman,serif" font-size="14.00" fill="lightgray">wff ph</text>
</g>
<!-- n16391 -->
<g id="node9" class="node"><title>n16391</title>
<ellipse fill="none" stroke="lightgray" cx="37.6967" cy="-90" rx="27" ry="18"/>
<text text-anchor="middle" x="37.6967" y="-86.3" font-family="Times New Roman,serif" font-size="14.00" fill="lightgray">wps</text>
</g>
<!-- n16390&#45;&gt;n16391 -->
<g id="edge11" class="edge"><title>n16390&#45;&gt;n16391</title>
</g>
<!-- n16393&#45;&gt;n16394 -->
<g id="edge10" class="edge"><title>n16393&#45;&gt;n16394</title>
<path fill="none" stroke="black" d="M213.029,-100.25C240.767,-111.74 285.521,-131.827 320.787,-155 329.435,-160.683 338.214,-167.745 345.898,-174.447"/>
<polygon fill="black" stroke="black" points="343.969,-177.419 353.749,-181.495 348.646,-172.21 343.969,-177.419"/>
<text text-anchor="middle" x="281.287" y="-158.8" font-family="Times New Roman,serif" font-size="14.00">|&#45; &#45;. ( ps / ph )</text>
</g>
<!-- n16391&#45;&gt;n16393 -->
<g id="edge8" class="edge"><title>n16391&#45;&gt;n16393</title>
<path fill="none" stroke="lightgray" d="M64.8688,-90C86.6983,-90 118.204,-90 143.487,-90"/>
<polygon fill="lightgray" stroke="lightgray" points="143.542,-93.5001 153.542,-90 143.542,-86.5001 143.542,-93.5001"/>
<text text-anchor="middle" x="111.893" y="-93.8" font-family="Times New Roman,serif" font-size="14.00" fill="lightgray">wff ps</text>
</g>
<!-- n16392 -->
<g id="node10" class="node"><title>n16392</title>
<ellipse fill="orange" stroke="black" cx="37.6967" cy="-18" rx="37.8943" ry="18"/>
<text text-anchor="middle" x="37.6967" y="-14.3" font-family="Times New Roman,serif" font-size="14.00">bianfi.1</text>
</g>
<!-- n16391&#45;&gt;n16392 -->
<g id="edge12" class="edge"><title>n16391&#45;&gt;n16392</title>
</g>
<!-- n16392&#45;&gt;n16393 -->
<g id="edge9" class="edge"><title>n16392&#45;&gt;n16393</title>
<path fill="none" stroke="black" d="M64.5319,-30.7064C88.8028,-42.6435 125.249,-60.5687 151.713,-73.5843"/>
<polygon fill="black" stroke="black" points="150.452,-76.8644 160.97,-78.1371 153.541,-70.583 150.452,-76.8644"/>
<text text-anchor="middle" x="111.893" y="-66.8" font-family="Times New Roman,serif" font-size="14.00">|&#45; &#45;. ph</text>
</g>
</g>
</svg>
