<?xml version="1.0" encoding="UTF-8" standalone="no"?>
<!DOCTYPE svg PUBLIC "-//W3C//DTD SVG 1.1//EN"
 "http://www.w3.org/Graphics/SVG/1.1/DTD/svg11.dtd">
<!-- Generated by graphviz version 2.38.0 (20140413.2041)
 -->
<!-- Title: proof_bibif Pages: 1 -->
<svg width="844pt" height="602pt"
 viewBox="0.00 0.00 843.78 602.00" xmlns="http://www.w3.org/2000/svg" xmlns:xlink="http://www.w3.org/1999/xlink">
<g id="graph0" class="graph" transform="scale(1 1) rotate(0) translate(4 598)">
<title>proof_bibif</title>
<polygon fill="white" stroke="none" points="-4,4 -4,-598 839.782,-598 839.782,4 -4,4"/>
<!-- n6569 -->
<g id="node1" class="node"><title>n6569</title>
<ellipse fill="none" stroke="lightgray" cx="27" cy="-576" rx="27" ry="18"/>
<text text-anchor="middle" x="27" y="-572.3" font-family="Times New Roman,serif" font-size="14.00" fill="lightgray">wps</text>
</g>
<!-- n6570 -->
<g id="node2" class="node"><title>n6570</title>
<ellipse fill="none" stroke="lightgray" cx="160.797" cy="-540" rx="27" ry="18"/>
<text text-anchor="middle" x="160.797" y="-536.3" font-family="Times New Roman,serif" font-size="14.00" fill="lightgray">wn</text>
</g>
<!-- n6569&#45;&gt;n6570 -->
<g id="edge1" class="edge"><title>n6569&#45;&gt;n6570</title>
<path fill="none" stroke="lightgray" d="M52.1736,-569.397C72.7591,-563.774 102.573,-555.631 125.603,-549.34"/>
<polygon fill="lightgray" stroke="lightgray" points="126.606,-552.694 135.33,-546.683 124.761,-545.942 126.606,-552.694"/>
<text text-anchor="middle" x="90.5" y="-566.8" font-family="Times New Roman,serif" font-size="14.00" fill="lightgray">wff ps</text>
</g>
<!-- n6585 -->
<g id="node3" class="node"><title>n6585</title>
<ellipse fill="cyan" stroke="black" cx="485.941" cy="-359" rx="38.1938" ry="18"/>
<text text-anchor="middle" x="485.941" y="-355.3" font-family="Times New Roman,serif" font-size="14.00">syl6rbb</text>
</g>
<!-- n6570&#45;&gt;n6585 -->
<g id="edge2" class="edge"><title>n6570&#45;&gt;n6585</title>
<path fill="none" stroke="lightgray" d="M187.893,-541.765C239.876,-543.86 357.54,-541.309 429.594,-483 459.169,-459.067 473.451,-416.03 479.968,-387.487"/>
<polygon fill="lightgray" stroke="lightgray" points="483.471,-387.833 482.101,-377.327 476.621,-386.395 483.471,-387.833"/>
<text text-anchor="middle" x="321.094" y="-545.8" font-family="Times New Roman,serif" font-size="14.00" fill="lightgray">wff &#45;. ps</text>
</g>
<!-- n6572 -->
<g id="node5" class="node"><title>n6572</title>
<ellipse fill="none" stroke="lightgray" cx="160.797" cy="-468" rx="27" ry="18"/>
<text text-anchor="middle" x="160.797" y="-464.3" font-family="Times New Roman,serif" font-size="14.00" fill="lightgray">wn</text>
</g>
<!-- n6570&#45;&gt;n6572 -->
<g id="edge22" class="edge"><title>n6570&#45;&gt;n6572</title>
</g>
<!-- QED -->
<g id="node18" class="node"><title>QED</title>
</g>
<!-- n6585&#45;&gt;QED -->
<g id="edge21" class="edge"><title>n6585&#45;&gt;QED</title>
<path fill="none" stroke="black" d="M524.424,-359C585.377,-359 705.352,-359 766.985,-359"/>
<polygon fill="black" stroke="black" points="767.073,-362.5 777.073,-359 767.073,-355.5 767.073,-362.5"/>
<text text-anchor="middle" x="650.787" y="-362.8" font-family="Times New Roman,serif" font-size="14.00">|&#45; ( &#45;. ps &#45;&gt; ( ( ph &lt;&#45;&gt; ps ) &lt;&#45;&gt; &#45;. ph ) )</text>
</g>
<!-- n6571 -->
<g id="node4" class="node"><title>n6571</title>
<ellipse fill="none" stroke="lightgray" cx="27" cy="-522" rx="27" ry="18"/>
<text text-anchor="middle" x="27" y="-518.3" font-family="Times New Roman,serif" font-size="14.00" fill="lightgray">wph</text>
</g>
<!-- n6571&#45;&gt;n6572 -->
<g id="edge3" class="edge"><title>n6571&#45;&gt;n6572</title>
<path fill="none" stroke="lightgray" d="M50.3576,-512.84C71.6586,-504.112 103.946,-490.883 127.936,-481.054"/>
<polygon fill="lightgray" stroke="lightgray" points="129.403,-484.235 137.33,-477.205 126.749,-477.758 129.403,-484.235"/>
<text text-anchor="middle" x="90.5" y="-505.8" font-family="Times New Roman,serif" font-size="14.00" fill="lightgray">wff ph</text>
</g>
<!-- n6572&#45;&gt;n6585 -->
<g id="edge4" class="edge"><title>n6572&#45;&gt;n6585</title>
<path fill="none" stroke="lightgray" d="M187.979,-466.462C237.658,-462.635 347.927,-449.744 429.594,-408 442.037,-401.64 453.908,-391.825 463.443,-382.645"/>
<polygon fill="lightgray" stroke="lightgray" points="465.983,-385.055 470.555,-375.497 461.021,-380.117 465.983,-385.055"/>
<text text-anchor="middle" x="321.094" y="-467.8" font-family="Times New Roman,serif" font-size="14.00" fill="lightgray">wff &#45;. ph</text>
</g>
<!-- n6575 -->
<g id="node7" class="node"><title>n6575</title>
<ellipse fill="none" stroke="lightgray" cx="160.797" cy="-396" rx="27" ry="18"/>
<text text-anchor="middle" x="160.797" y="-392.3" font-family="Times New Roman,serif" font-size="14.00" fill="lightgray">wb</text>
</g>
<!-- n6572&#45;&gt;n6575 -->
<g id="edge23" class="edge"><title>n6572&#45;&gt;n6575</title>
</g>
<!-- n6573 -->
<g id="node6" class="node"><title>n6573</title>
<ellipse fill="none" stroke="lightgray" cx="27" cy="-468" rx="27" ry="18"/>
<text text-anchor="middle" x="27" y="-464.3" font-family="Times New Roman,serif" font-size="14.00" fill="lightgray">wps</text>
</g>
<!-- n6573&#45;&gt;n6575 -->
<g id="edge5" class="edge"><title>n6573&#45;&gt;n6575</title>
<path fill="none" stroke="lightgray" d="M48.3044,-456.908C70.2019,-444.945 105.273,-425.786 130.231,-412.152"/>
<polygon fill="lightgray" stroke="lightgray" points="132.154,-415.089 139.252,-407.223 128.798,-408.946 132.154,-415.089"/>
<text text-anchor="middle" x="90.5" y="-445.8" font-family="Times New Roman,serif" font-size="14.00" fill="lightgray">wff ps</text>
</g>
<!-- n6574 -->
<g id="node8" class="node"><title>n6574</title>
<ellipse fill="none" stroke="lightgray" cx="27" cy="-396" rx="27" ry="18"/>
<text text-anchor="middle" x="27" y="-392.3" font-family="Times New Roman,serif" font-size="14.00" fill="lightgray">wph</text>
</g>
<!-- n6573&#45;&gt;n6574 -->
<g id="edge8" class="edge"><title>n6573&#45;&gt;n6574</title>
</g>
<!-- n6575&#45;&gt;n6585 -->
<g id="edge7" class="edge"><title>n6575&#45;&gt;n6585</title>
<path fill="none" stroke="lightgray" d="M187.695,-393.035C242.184,-386.796 369.326,-372.238 438.353,-364.334"/>
<polygon fill="lightgray" stroke="lightgray" points="438.97,-367.787 448.507,-363.172 438.174,-360.832 438.97,-367.787"/>
<text text-anchor="middle" x="321.094" y="-392.8" font-family="Times New Roman,serif" font-size="14.00" fill="lightgray">wff ( ps &lt;&#45;&gt; ph )</text>
</g>
<!-- n6578 -->
<g id="node10" class="node"><title>n6578</title>
<ellipse fill="none" stroke="lightgray" cx="160.797" cy="-324" rx="27" ry="18"/>
<text text-anchor="middle" x="160.797" y="-320.3" font-family="Times New Roman,serif" font-size="14.00" fill="lightgray">wb</text>
</g>
<!-- n6575&#45;&gt;n6578 -->
<g id="edge24" class="edge"><title>n6575&#45;&gt;n6578</title>
</g>
<!-- n6574&#45;&gt;n6575 -->
<g id="edge6" class="edge"><title>n6574&#45;&gt;n6575</title>
<path fill="none" stroke="lightgray" d="M54.0388,-396C73.7665,-396 101.128,-396 123.078,-396"/>
<polygon fill="lightgray" stroke="lightgray" points="123.361,-399.5 133.361,-396 123.361,-392.5 123.361,-399.5"/>
<text text-anchor="middle" x="90.5" y="-399.8" font-family="Times New Roman,serif" font-size="14.00" fill="lightgray">wff ph</text>
</g>
<!-- n6576 -->
<g id="node9" class="node"><title>n6576</title>
<ellipse fill="none" stroke="lightgray" cx="27" cy="-342" rx="27" ry="18"/>
<text text-anchor="middle" x="27" y="-338.3" font-family="Times New Roman,serif" font-size="14.00" fill="lightgray">wph</text>
</g>
<!-- n6576&#45;&gt;n6578 -->
<g id="edge9" class="edge"><title>n6576&#45;&gt;n6578</title>
<path fill="none" stroke="lightgray" d="M53.7247,-338.487C73.7726,-335.749 101.842,-331.915 124.071,-328.879"/>
<polygon fill="lightgray" stroke="lightgray" points="124.703,-332.326 134.137,-327.504 123.756,-325.39 124.703,-332.326"/>
<text text-anchor="middle" x="90.5" y="-339.8" font-family="Times New Roman,serif" font-size="14.00" fill="lightgray">wff ph</text>
</g>
<!-- n6577 -->
<g id="node11" class="node"><title>n6577</title>
<ellipse fill="none" stroke="lightgray" cx="27" cy="-270" rx="27" ry="18"/>
<text text-anchor="middle" x="27" y="-266.3" font-family="Times New Roman,serif" font-size="14.00" fill="lightgray">wps</text>
</g>
<!-- n6576&#45;&gt;n6577 -->
<g id="edge12" class="edge"><title>n6576&#45;&gt;n6577</title>
</g>
<!-- n6578&#45;&gt;n6585 -->
<g id="edge11" class="edge"><title>n6578&#45;&gt;n6585</title>
<path fill="none" stroke="lightgray" d="M187.711,-325.958C235.593,-329.699 341.117,-338.523 429.594,-350 432.828,-350.42 436.164,-350.883 439.518,-351.373"/>
<polygon fill="lightgray" stroke="lightgray" points="439.147,-354.856 449.56,-352.899 440.199,-347.936 439.147,-354.856"/>
<text text-anchor="middle" x="321.094" y="-353.8" font-family="Times New Roman,serif" font-size="14.00" fill="lightgray">wff ( ph &lt;&#45;&gt; ps )</text>
</g>
<!-- n6581 -->
<g id="node13" class="node"><title>n6581</title>
<ellipse fill="cyan" stroke="black" cx="160.797" cy="-216" rx="28.6953" ry="18"/>
<text text-anchor="middle" x="160.797" y="-212.3" font-family="Times New Roman,serif" font-size="14.00">nbn2</text>
</g>
<!-- n6578&#45;&gt;n6581 -->
<g id="edge25" class="edge"><title>n6578&#45;&gt;n6581</title>
</g>
<!-- n6577&#45;&gt;n6578 -->
<g id="edge10" class="edge"><title>n6577&#45;&gt;n6578</title>
<path fill="none" stroke="lightgray" d="M50.3576,-279.16C71.6586,-287.888 103.946,-301.117 127.936,-310.946"/>
<polygon fill="lightgray" stroke="lightgray" points="126.749,-314.242 137.33,-314.795 129.403,-307.765 126.749,-314.242"/>
<text text-anchor="middle" x="90.5" y="-307.8" font-family="Times New Roman,serif" font-size="14.00" fill="lightgray">wff ps</text>
</g>
<!-- n6579 -->
<g id="node12" class="node"><title>n6579</title>
<ellipse fill="none" stroke="lightgray" cx="27" cy="-216" rx="27" ry="18"/>
<text text-anchor="middle" x="27" y="-212.3" font-family="Times New Roman,serif" font-size="14.00" fill="lightgray">wps</text>
</g>
<!-- n6579&#45;&gt;n6581 -->
<g id="edge13" class="edge"><title>n6579&#45;&gt;n6581</title>
<path fill="none" stroke="lightgray" d="M54.0388,-216C73.3797,-216 100.058,-216 121.78,-216"/>
<polygon fill="lightgray" stroke="lightgray" points="121.992,-219.5 131.992,-216 121.992,-212.5 121.992,-219.5"/>
<text text-anchor="middle" x="90.5" y="-219.8" font-family="Times New Roman,serif" font-size="14.00" fill="lightgray">wff ps</text>
</g>
<!-- n6580 -->
<g id="node14" class="node"><title>n6580</title>
<ellipse fill="none" stroke="lightgray" cx="27" cy="-144" rx="27" ry="18"/>
<text text-anchor="middle" x="27" y="-140.3" font-family="Times New Roman,serif" font-size="14.00" fill="lightgray">wph</text>
</g>
<!-- n6579&#45;&gt;n6580 -->
<g id="edge16" class="edge"><title>n6579&#45;&gt;n6580</title>
</g>
<!-- n6581&#45;&gt;n6585 -->
<g id="edge15" class="edge"><title>n6581&#45;&gt;n6585</title>
<path fill="none" stroke="black" d="M188.345,-221.703C238.172,-233.167 348.021,-262.083 429.594,-310 441.351,-316.906 452.883,-326.52 462.351,-335.405"/>
<polygon fill="black" stroke="black" points="460.167,-338.163 469.778,-342.621 465.045,-333.142 460.167,-338.163"/>
<text text-anchor="middle" x="321.094" y="-313.8" font-family="Times New Roman,serif" font-size="14.00">|&#45; ( &#45;. ps &#45;&gt; ( &#45;. ph &lt;&#45;&gt; ( ps &lt;&#45;&gt; ph ) ) )</text>
</g>
<!-- n6584 -->
<g id="node16" class="node"><title>n6584</title>
<ellipse fill="cyan" stroke="black" cx="160.797" cy="-126" rx="33.5952" ry="18"/>
<text text-anchor="middle" x="160.797" y="-122.3" font-family="Times New Roman,serif" font-size="14.00">bicom</text>
</g>
<!-- n6581&#45;&gt;n6584 -->
<g id="edge26" class="edge"><title>n6581&#45;&gt;n6584</title>
</g>
<!-- n6580&#45;&gt;n6581 -->
<g id="edge14" class="edge"><title>n6580&#45;&gt;n6581</title>
<path fill="none" stroke="lightgray" d="M48.3044,-155.092C69.9457,-166.915 104.455,-185.767 129.351,-199.368"/>
<polygon fill="lightgray" stroke="lightgray" points="127.921,-202.575 138.375,-204.297 131.277,-196.432 127.921,-202.575"/>
<text text-anchor="middle" x="90.5" y="-192.8" font-family="Times New Roman,serif" font-size="14.00" fill="lightgray">wff ph</text>
</g>
<!-- n6582 -->
<g id="node15" class="node"><title>n6582</title>
<ellipse fill="none" stroke="lightgray" cx="27" cy="-90" rx="27" ry="18"/>
<text text-anchor="middle" x="27" y="-86.3" font-family="Times New Roman,serif" font-size="14.00" fill="lightgray">wps</text>
</g>
<!-- n6582&#45;&gt;n6584 -->
<g id="edge17" class="edge"><title>n6582&#45;&gt;n6584</title>
<path fill="none" stroke="lightgray" d="M52.1736,-96.603C71.249,-101.813 98.2484,-109.188 120.432,-115.248"/>
<polygon fill="lightgray" stroke="lightgray" points="119.671,-118.668 130.24,-117.927 121.515,-111.915 119.671,-118.668"/>
<text text-anchor="middle" x="90.5" y="-116.8" font-family="Times New Roman,serif" font-size="14.00" fill="lightgray">wff ps</text>
</g>
<!-- n6583 -->
<g id="node17" class="node"><title>n6583</title>
<ellipse fill="none" stroke="lightgray" cx="27" cy="-18" rx="27" ry="18"/>
<text text-anchor="middle" x="27" y="-14.3" font-family="Times New Roman,serif" font-size="14.00" fill="lightgray">wph</text>
</g>
<!-- n6582&#45;&gt;n6583 -->
<g id="edge20" class="edge"><title>n6582&#45;&gt;n6583</title>
</g>
<!-- n6584&#45;&gt;n6585 -->
<g id="edge19" class="edge"><title>n6584&#45;&gt;n6585</title>
<path fill="none" stroke="black" d="M194.834,-127.158C250.499,-130.866 363.375,-146.197 429.594,-209 463.942,-241.576 477.089,-297.319 482.038,-330.905"/>
<polygon fill="black" stroke="black" points="478.589,-331.52 483.374,-340.973 485.528,-330.6 478.589,-331.52"/>
<text text-anchor="middle" x="321.094" y="-212.8" font-family="Times New Roman,serif" font-size="14.00">|&#45; ( ( ps &lt;&#45;&gt; ph ) &lt;&#45;&gt; ( ph &lt;&#45;&gt; ps ) )</text>
</g>
<!-- n6583&#45;&gt;n6584 -->
<g id="edge18" class="edge"><title>n6583&#45;&gt;n6584</title>
<path fill="none" stroke="lightgray" d="M44.7829,-31.6166C61.184,-44.9373 86.8463,-65.8163 109,-84 117.009,-90.5737 125.707,-97.7515 133.605,-104.284"/>
<polygon fill="lightgray" stroke="lightgray" points="131.548,-107.125 141.484,-110.805 136.012,-101.732 131.548,-107.125"/>
<text text-anchor="middle" x="90.5" y="-87.8" font-family="Times New Roman,serif" font-size="14.00" fill="lightgray">wff ph</text>
</g>
</g>
</svg>
