<?xml version="1.0" encoding="UTF-8" standalone="no"?>
<!DOCTYPE svg PUBLIC "-//W3C//DTD SVG 1.1//EN"
 "http://www.w3.org/Graphics/SVG/1.1/DTD/svg11.dtd">
<!-- Generated by graphviz version 2.38.0 (20140413.2041)
 -->
<!-- Title: proof_bibi1i Pages: 1 -->
<svg width="849pt" height="1016pt"
 viewBox="0.00 0.00 848.68 1016.00" xmlns="http://www.w3.org/2000/svg" xmlns:xlink="http://www.w3.org/1999/xlink">
<g id="graph0" class="graph" transform="scale(1 1) rotate(0) translate(4 1012)">
<title>proof_bibi1i</title>
<polygon fill="white" stroke="none" points="-4,4 -4,-1012 844.678,-1012 844.678,4 -4,4"/>
<!-- n6011 -->
<g id="node1" class="node"><title>n6011</title>
<ellipse fill="none" stroke="lightgray" cx="30.5473" cy="-990" rx="27" ry="18"/>
<text text-anchor="middle" x="30.5473" y="-986.3" font-family="Times New Roman,serif" font-size="14.00" fill="lightgray">wph</text>
</g>
<!-- n6013 -->
<g id="node2" class="node"><title>n6013</title>
<ellipse fill="none" stroke="lightgray" cx="214.892" cy="-881" rx="27" ry="18"/>
<text text-anchor="middle" x="214.892" y="-877.3" font-family="Times New Roman,serif" font-size="14.00" fill="lightgray">wb</text>
</g>
<!-- n6011&#45;&gt;n6013 -->
<g id="edge1" class="edge"><title>n6011&#45;&gt;n6013</title>
<path fill="none" stroke="lightgray" d="M54.5441,-981.653C81.7241,-971.24 127.723,-951.863 163.095,-928 173.571,-920.932 184.014,-911.737 192.683,-903.357"/>
<polygon fill="lightgray" stroke="lightgray" points="195.18,-905.81 199.8,-896.276 190.242,-900.848 195.18,-905.81"/>
<text text-anchor="middle" x="121.095" y="-974.8" font-family="Times New Roman,serif" font-size="14.00" fill="lightgray">wff ph</text>
</g>
<!-- n6012 -->
<g id="node3" class="node"><title>n6012</title>
<ellipse fill="none" stroke="lightgray" cx="30.5473" cy="-918" rx="27" ry="18"/>
<text text-anchor="middle" x="30.5473" y="-914.3" font-family="Times New Roman,serif" font-size="14.00" fill="lightgray">wch</text>
</g>
<!-- n6011&#45;&gt;n6012 -->
<g id="edge4" class="edge"><title>n6011&#45;&gt;n6012</title>
</g>
<!-- n6034 -->
<g id="node4" class="node"><title>n6034</title>
<ellipse fill="cyan" stroke="black" cx="515.936" cy="-576" rx="29.4969" ry="18"/>
<text text-anchor="middle" x="515.936" y="-572.3" font-family="Times New Roman,serif" font-size="14.00">3bitri</text>
</g>
<!-- n6013&#45;&gt;n6034 -->
<g id="edge3" class="edge"><title>n6013&#45;&gt;n6034</title>
<path fill="none" stroke="lightgray" d="M241.885,-880.547C293.402,-878.161 408.654,-865.155 468.689,-798 494.095,-769.58 507.528,-657.117 512.564,-604.028"/>
<polygon fill="lightgray" stroke="lightgray" points="516.06,-604.225 513.486,-593.947 509.09,-603.587 516.06,-604.225"/>
<text text-anchor="middle" x="367.689" y="-882.8" font-family="Times New Roman,serif" font-size="14.00" fill="lightgray">wff ( ph &lt;&#45;&gt; ch )</text>
</g>
<!-- n6016 -->
<g id="node6" class="node"><title>n6016</title>
<ellipse fill="none" stroke="lightgray" cx="214.892" cy="-792" rx="27" ry="18"/>
<text text-anchor="middle" x="214.892" y="-788.3" font-family="Times New Roman,serif" font-size="14.00" fill="lightgray">wb</text>
</g>
<!-- n6013&#45;&gt;n6016 -->
<g id="edge34" class="edge"><title>n6013&#45;&gt;n6016</title>
</g>
<!-- n6012&#45;&gt;n6013 -->
<g id="edge2" class="edge"><title>n6012&#45;&gt;n6013</title>
<path fill="none" stroke="lightgray" d="M56.5192,-912.933C88.2118,-906.502 143.06,-895.373 178.909,-888.098"/>
<polygon fill="lightgray" stroke="lightgray" points="179.825,-891.484 188.929,-886.065 178.433,-884.624 179.825,-891.484"/>
<text text-anchor="middle" x="121.095" y="-912.8" font-family="Times New Roman,serif" font-size="14.00" fill="lightgray">wff ch</text>
</g>
<!-- QED -->
<g id="node25" class="node"><title>QED</title>
</g>
<!-- n6034&#45;&gt;QED -->
<g id="edge33" class="edge"><title>n6034&#45;&gt;QED</title>
<path fill="none" stroke="black" d="M545.344,-576C598.271,-576 712.012,-576 771.839,-576"/>
<polygon fill="black" stroke="black" points="772.007,-579.5 782.007,-576 772.007,-572.5 772.007,-579.5"/>
<text text-anchor="middle" x="663.683" y="-579.8" font-family="Times New Roman,serif" font-size="14.00">|&#45; ( ( ph &lt;&#45;&gt; ch ) &lt;&#45;&gt; ( ps &lt;&#45;&gt; ch ) )</text>
</g>
<!-- n6014 -->
<g id="node5" class="node"><title>n6014</title>
<ellipse fill="none" stroke="lightgray" cx="30.5473" cy="-864" rx="27" ry="18"/>
<text text-anchor="middle" x="30.5473" y="-860.3" font-family="Times New Roman,serif" font-size="14.00" fill="lightgray">wch</text>
</g>
<!-- n6014&#45;&gt;n6016 -->
<g id="edge5" class="edge"><title>n6014&#45;&gt;n6016</title>
<path fill="none" stroke="lightgray" d="M54.2726,-855.027C86.2991,-842.381 144.88,-819.25 181.47,-804.802"/>
<polygon fill="lightgray" stroke="lightgray" points="183.151,-807.901 191.167,-800.973 180.58,-801.39 183.151,-807.901"/>
<text text-anchor="middle" x="121.095" y="-848.8" font-family="Times New Roman,serif" font-size="14.00" fill="lightgray">wff ch</text>
</g>
<!-- n6015 -->
<g id="node7" class="node"><title>n6015</title>
<ellipse fill="none" stroke="lightgray" cx="30.5473" cy="-792" rx="27" ry="18"/>
<text text-anchor="middle" x="30.5473" y="-788.3" font-family="Times New Roman,serif" font-size="14.00" fill="lightgray">wph</text>
</g>
<!-- n6014&#45;&gt;n6015 -->
<g id="edge8" class="edge"><title>n6014&#45;&gt;n6015</title>
</g>
<!-- n6016&#45;&gt;n6034 -->
<g id="edge7" class="edge"><title>n6016&#45;&gt;n6034</title>
<path fill="none" stroke="lightgray" d="M240.69,-786.315C290.058,-773.842 401.638,-739.72 468.689,-673 488.009,-653.775 500.339,-624.902 507.366,-603.654"/>
<polygon fill="lightgray" stroke="lightgray" points="510.768,-604.5 510.397,-593.912 504.084,-602.421 510.768,-604.5"/>
<text text-anchor="middle" x="367.689" y="-782.8" font-family="Times New Roman,serif" font-size="14.00" fill="lightgray">wff ( ch &lt;&#45;&gt; ph )</text>
</g>
<!-- n6019 -->
<g id="node9" class="node"><title>n6019</title>
<ellipse fill="none" stroke="lightgray" cx="214.892" cy="-666" rx="27" ry="18"/>
<text text-anchor="middle" x="214.892" y="-662.3" font-family="Times New Roman,serif" font-size="14.00" fill="lightgray">wb</text>
</g>
<!-- n6016&#45;&gt;n6019 -->
<g id="edge35" class="edge"><title>n6016&#45;&gt;n6019</title>
</g>
<!-- n6015&#45;&gt;n6016 -->
<g id="edge6" class="edge"><title>n6015&#45;&gt;n6016</title>
<path fill="none" stroke="lightgray" d="M57.6728,-792C89.0867,-792 141.998,-792 177.425,-792"/>
<polygon fill="lightgray" stroke="lightgray" points="177.815,-795.5 187.815,-792 177.815,-788.5 177.815,-795.5"/>
<text text-anchor="middle" x="121.095" y="-795.8" font-family="Times New Roman,serif" font-size="14.00" fill="lightgray">wff ph</text>
</g>
<!-- n6017 -->
<g id="node8" class="node"><title>n6017</title>
<ellipse fill="none" stroke="lightgray" cx="30.5473" cy="-738" rx="27" ry="18"/>
<text text-anchor="middle" x="30.5473" y="-734.3" font-family="Times New Roman,serif" font-size="14.00" fill="lightgray">wch</text>
</g>
<!-- n6017&#45;&gt;n6019 -->
<g id="edge9" class="edge"><title>n6017&#45;&gt;n6019</title>
<path fill="none" stroke="lightgray" d="M54.2726,-729.027C86.2991,-716.381 144.88,-693.25 181.47,-678.802"/>
<polygon fill="lightgray" stroke="lightgray" points="183.151,-681.901 191.167,-674.973 180.58,-675.39 183.151,-681.901"/>
<text text-anchor="middle" x="121.095" y="-722.8" font-family="Times New Roman,serif" font-size="14.00" fill="lightgray">wff ch</text>
</g>
<!-- n6018 -->
<g id="node10" class="node"><title>n6018</title>
<ellipse fill="none" stroke="lightgray" cx="30.5473" cy="-666" rx="27" ry="18"/>
<text text-anchor="middle" x="30.5473" y="-662.3" font-family="Times New Roman,serif" font-size="14.00" fill="lightgray">wps</text>
</g>
<!-- n6017&#45;&gt;n6018 -->
<g id="edge12" class="edge"><title>n6017&#45;&gt;n6018</title>
</g>
<!-- n6019&#45;&gt;n6034 -->
<g id="edge11" class="edge"><title>n6019&#45;&gt;n6034</title>
<path fill="none" stroke="lightgray" d="M240.586,-660.078C286.164,-648.926 386.368,-623.363 468.689,-595 473.054,-593.496 477.601,-591.797 482.067,-590.049"/>
<polygon fill="lightgray" stroke="lightgray" points="483.645,-593.186 491.61,-586.199 481.027,-586.694 483.645,-593.186"/>
<text text-anchor="middle" x="367.689" y="-657.8" font-family="Times New Roman,serif" font-size="14.00" fill="lightgray">wff ( ch &lt;&#45;&gt; ps )</text>
</g>
<!-- n6022 -->
<g id="node12" class="node"><title>n6022</title>
<ellipse fill="none" stroke="lightgray" cx="214.892" cy="-576" rx="27" ry="18"/>
<text text-anchor="middle" x="214.892" y="-572.3" font-family="Times New Roman,serif" font-size="14.00" fill="lightgray">wb</text>
</g>
<!-- n6019&#45;&gt;n6022 -->
<g id="edge36" class="edge"><title>n6019&#45;&gt;n6022</title>
</g>
<!-- n6018&#45;&gt;n6019 -->
<g id="edge10" class="edge"><title>n6018&#45;&gt;n6019</title>
<path fill="none" stroke="lightgray" d="M57.6728,-666C89.0867,-666 141.998,-666 177.425,-666"/>
<polygon fill="lightgray" stroke="lightgray" points="177.815,-669.5 187.815,-666 177.815,-662.5 177.815,-669.5"/>
<text text-anchor="middle" x="121.095" y="-669.8" font-family="Times New Roman,serif" font-size="14.00" fill="lightgray">wff ps</text>
</g>
<!-- n6020 -->
<g id="node11" class="node"><title>n6020</title>
<ellipse fill="none" stroke="lightgray" cx="30.5473" cy="-612" rx="27" ry="18"/>
<text text-anchor="middle" x="30.5473" y="-608.3" font-family="Times New Roman,serif" font-size="14.00" fill="lightgray">wps</text>
</g>
<!-- n6020&#45;&gt;n6022 -->
<g id="edge13" class="edge"><title>n6020&#45;&gt;n6022</title>
<path fill="none" stroke="lightgray" d="M56.5192,-607.07C88.123,-600.83 142.752,-590.045 178.607,-582.966"/>
<polygon fill="lightgray" stroke="lightgray" points="179.503,-586.357 188.636,-580.986 178.148,-579.489 179.503,-586.357"/>
<text text-anchor="middle" x="121.095" y="-606.8" font-family="Times New Roman,serif" font-size="14.00" fill="lightgray">wff ps</text>
</g>
<!-- n6021 -->
<g id="node13" class="node"><title>n6021</title>
<ellipse fill="none" stroke="lightgray" cx="30.5473" cy="-540" rx="27" ry="18"/>
<text text-anchor="middle" x="30.5473" y="-536.3" font-family="Times New Roman,serif" font-size="14.00" fill="lightgray">wch</text>
</g>
<!-- n6020&#45;&gt;n6021 -->
<g id="edge16" class="edge"><title>n6020&#45;&gt;n6021</title>
</g>
<!-- n6022&#45;&gt;n6034 -->
<g id="edge15" class="edge"><title>n6022&#45;&gt;n6034</title>
<path fill="none" stroke="lightgray" d="M241.907,-576C294.698,-576 414.628,-576 476.47,-576"/>
<polygon fill="lightgray" stroke="lightgray" points="476.595,-579.5 486.595,-576 476.595,-572.5 476.595,-579.5"/>
<text text-anchor="middle" x="367.689" y="-579.8" font-family="Times New Roman,serif" font-size="14.00" fill="lightgray">wff ( ps &lt;&#45;&gt; ch )</text>
</g>
<!-- n6025 -->
<g id="node15" class="node"><title>n6025</title>
<ellipse fill="cyan" stroke="black" cx="214.892" cy="-486" rx="33.5952" ry="18"/>
<text text-anchor="middle" x="214.892" y="-482.3" font-family="Times New Roman,serif" font-size="14.00">bicom</text>
</g>
<!-- n6022&#45;&gt;n6025 -->
<g id="edge37" class="edge"><title>n6022&#45;&gt;n6025</title>
</g>
<!-- n6021&#45;&gt;n6022 -->
<g id="edge14" class="edge"><title>n6021&#45;&gt;n6022</title>
<path fill="none" stroke="lightgray" d="M56.5192,-544.93C88.123,-551.17 142.752,-561.955 178.607,-569.034"/>
<polygon fill="lightgray" stroke="lightgray" points="178.148,-572.511 188.636,-571.014 179.503,-565.643 178.148,-572.511"/>
<text text-anchor="middle" x="121.095" y="-569.8" font-family="Times New Roman,serif" font-size="14.00" fill="lightgray">wff ch</text>
</g>
<!-- n6023 -->
<g id="node14" class="node"><title>n6023</title>
<ellipse fill="none" stroke="lightgray" cx="30.5473" cy="-486" rx="27" ry="18"/>
<text text-anchor="middle" x="30.5473" y="-482.3" font-family="Times New Roman,serif" font-size="14.00" fill="lightgray">wph</text>
</g>
<!-- n6023&#45;&gt;n6025 -->
<g id="edge17" class="edge"><title>n6023&#45;&gt;n6025</title>
<path fill="none" stroke="lightgray" d="M57.6728,-486C87.1233,-486 135.468,-486 170.587,-486"/>
<polygon fill="lightgray" stroke="lightgray" points="171.025,-489.5 181.025,-486 171.025,-482.5 171.025,-489.5"/>
<text text-anchor="middle" x="121.095" y="-489.8" font-family="Times New Roman,serif" font-size="14.00" fill="lightgray">wff ph</text>
</g>
<!-- n6024 -->
<g id="node16" class="node"><title>n6024</title>
<ellipse fill="none" stroke="lightgray" cx="30.5473" cy="-414" rx="27" ry="18"/>
<text text-anchor="middle" x="30.5473" y="-410.3" font-family="Times New Roman,serif" font-size="14.00" fill="lightgray">wch</text>
</g>
<!-- n6023&#45;&gt;n6024 -->
<g id="edge20" class="edge"><title>n6023&#45;&gt;n6024</title>
</g>
<!-- n6025&#45;&gt;n6034 -->
<g id="edge19" class="edge"><title>n6025&#45;&gt;n6034</title>
<path fill="none" stroke="black" d="M246.204,-493.301C294.006,-505.086 389.6,-529.75 468.689,-557 473.054,-558.504 477.601,-560.203 482.067,-561.951"/>
<polygon fill="black" stroke="black" points="481.027,-565.306 491.61,-565.801 483.645,-558.814 481.027,-565.306"/>
<text text-anchor="middle" x="367.689" y="-560.8" font-family="Times New Roman,serif" font-size="14.00">|&#45; ( ( ph &lt;&#45;&gt; ch ) &lt;&#45;&gt; ( ch &lt;&#45;&gt; ph ) )</text>
</g>
<!-- n6030 -->
<g id="node18" class="node"><title>n6030</title>
<ellipse fill="cyan" stroke="black" cx="214.892" cy="-288" rx="30.5947" ry="18"/>
<text text-anchor="middle" x="214.892" y="-284.3" font-family="Times New Roman,serif" font-size="14.00">bibi2i</text>
</g>
<!-- n6025&#45;&gt;n6030 -->
<g id="edge38" class="edge"><title>n6025&#45;&gt;n6030</title>
</g>
<!-- n6024&#45;&gt;n6025 -->
<g id="edge18" class="edge"><title>n6024&#45;&gt;n6025</title>
<path fill="none" stroke="lightgray" d="M54.2726,-422.973C85.2966,-435.223 141.239,-457.313 177.971,-471.817"/>
<polygon fill="lightgray" stroke="lightgray" points="176.74,-475.093 187.327,-475.511 179.311,-468.583 176.74,-475.093"/>
<text text-anchor="middle" x="121.095" y="-468.8" font-family="Times New Roman,serif" font-size="14.00" fill="lightgray">wff ch</text>
</g>
<!-- n6026 -->
<g id="node17" class="node"><title>n6026</title>
<ellipse fill="none" stroke="lightgray" cx="30.5473" cy="-360" rx="27" ry="18"/>
<text text-anchor="middle" x="30.5473" y="-356.3" font-family="Times New Roman,serif" font-size="14.00" fill="lightgray">wph</text>
</g>
<!-- n6026&#45;&gt;n6030 -->
<g id="edge21" class="edge"><title>n6026&#45;&gt;n6030</title>
<path fill="none" stroke="lightgray" d="M54.2726,-351.027C85.8225,-338.569 143.142,-315.936 179.822,-301.453"/>
<polygon fill="lightgray" stroke="lightgray" points="181.112,-304.706 189.128,-297.778 178.541,-298.195 181.112,-304.706"/>
<text text-anchor="middle" x="121.095" y="-344.8" font-family="Times New Roman,serif" font-size="14.00" fill="lightgray">wff ph</text>
</g>
<!-- n6027 -->
<g id="node19" class="node"><title>n6027</title>
<ellipse fill="none" stroke="lightgray" cx="30.5473" cy="-288" rx="27" ry="18"/>
<text text-anchor="middle" x="30.5473" y="-284.3" font-family="Times New Roman,serif" font-size="14.00" fill="lightgray">wps</text>
</g>
<!-- n6026&#45;&gt;n6027 -->
<g id="edge26" class="edge"><title>n6026&#45;&gt;n6027</title>
</g>
<!-- n6030&#45;&gt;n6034 -->
<g id="edge25" class="edge"><title>n6030&#45;&gt;n6034</title>
<path fill="none" stroke="black" d="M237.947,-299.886C285.604,-326.509 399.469,-395.287 468.689,-480 485.512,-500.589 498.022,-528.317 505.759,-548.679"/>
<polygon fill="black" stroke="black" points="502.554,-550.105 509.27,-558.299 509.129,-547.705 502.554,-550.105"/>
<text text-anchor="middle" x="367.689" y="-483.8" font-family="Times New Roman,serif" font-size="14.00">|&#45; ( ( ch &lt;&#45;&gt; ph ) &lt;&#45;&gt; ( ch &lt;&#45;&gt; ps ) )</text>
</g>
<!-- n6033 -->
<g id="node23" class="node"><title>n6033</title>
<ellipse fill="cyan" stroke="black" cx="214.892" cy="-153" rx="33.5952" ry="18"/>
<text text-anchor="middle" x="214.892" y="-149.3" font-family="Times New Roman,serif" font-size="14.00">bicom</text>
</g>
<!-- n6030&#45;&gt;n6033 -->
<g id="edge39" class="edge"><title>n6030&#45;&gt;n6033</title>
</g>
<!-- n6027&#45;&gt;n6030 -->
<g id="edge22" class="edge"><title>n6027&#45;&gt;n6030</title>
<path fill="none" stroke="lightgray" d="M57.6728,-288C88.0158,-288 138.415,-288 173.742,-288"/>
<polygon fill="lightgray" stroke="lightgray" points="174.183,-291.5 184.183,-288 174.183,-284.5 174.183,-291.5"/>
<text text-anchor="middle" x="121.095" y="-291.8" font-family="Times New Roman,serif" font-size="14.00" fill="lightgray">wff ps</text>
</g>
<!-- n6028 -->
<g id="node20" class="node"><title>n6028</title>
<ellipse fill="none" stroke="lightgray" cx="30.5473" cy="-216" rx="27" ry="18"/>
<text text-anchor="middle" x="30.5473" y="-212.3" font-family="Times New Roman,serif" font-size="14.00" fill="lightgray">wch</text>
</g>
<!-- n6027&#45;&gt;n6028 -->
<g id="edge27" class="edge"><title>n6027&#45;&gt;n6028</title>
</g>
<!-- n6028&#45;&gt;n6030 -->
<g id="edge23" class="edge"><title>n6028&#45;&gt;n6030</title>
<path fill="none" stroke="lightgray" d="M54.2726,-224.973C85.8225,-237.431 143.142,-260.064 179.822,-274.547"/>
<polygon fill="lightgray" stroke="lightgray" points="178.541,-277.805 189.128,-278.222 181.112,-271.294 178.541,-277.805"/>
<text text-anchor="middle" x="121.095" y="-270.8" font-family="Times New Roman,serif" font-size="14.00" fill="lightgray">wff ch</text>
</g>
<!-- n6029 -->
<g id="node21" class="node"><title>n6029</title>
<ellipse fill="orange" stroke="black" cx="30.5473" cy="-144" rx="30.5947" ry="18"/>
<text text-anchor="middle" x="30.5473" y="-140.3" font-family="Times New Roman,serif" font-size="14.00">bibi.a</text>
</g>
<!-- n6028&#45;&gt;n6029 -->
<g id="edge28" class="edge"><title>n6028&#45;&gt;n6029</title>
</g>
<!-- n6029&#45;&gt;n6030 -->
<g id="edge24" class="edge"><title>n6029&#45;&gt;n6030</title>
<path fill="none" stroke="black" d="M56.386,-153.809C84.4779,-165.75 130.539,-187.971 163.095,-217 177.615,-229.948 190.345,-247.761 199.429,-262.306"/>
<polygon fill="black" stroke="black" points="196.433,-264.115 204.598,-270.867 202.426,-260.497 196.433,-264.115"/>
<text text-anchor="middle" x="121.095" y="-220.8" font-family="Times New Roman,serif" font-size="14.00">|&#45; ( ph &lt;&#45;&gt; ps )</text>
</g>
<!-- n6031 -->
<g id="node22" class="node"><title>n6031</title>
<ellipse fill="none" stroke="lightgray" cx="30.5473" cy="-90" rx="27" ry="18"/>
<text text-anchor="middle" x="30.5473" y="-86.3" font-family="Times New Roman,serif" font-size="14.00" fill="lightgray">wch</text>
</g>
<!-- n6031&#45;&gt;n6033 -->
<g id="edge29" class="edge"><title>n6031&#45;&gt;n6033</title>
<path fill="none" stroke="lightgray" d="M56.9121,-94.4722C83.8818,-99.7028 127.472,-109.53 163.095,-124 170.08,-126.838 177.287,-130.469 183.999,-134.194"/>
<polygon fill="lightgray" stroke="lightgray" points="182.368,-137.294 192.777,-139.268 185.87,-131.234 182.368,-137.294"/>
<text text-anchor="middle" x="121.095" y="-127.8" font-family="Times New Roman,serif" font-size="14.00" fill="lightgray">wff ch</text>
</g>
<!-- n6032 -->
<g id="node24" class="node"><title>n6032</title>
<ellipse fill="none" stroke="lightgray" cx="30.5473" cy="-18" rx="27" ry="18"/>
<text text-anchor="middle" x="30.5473" y="-14.3" font-family="Times New Roman,serif" font-size="14.00" fill="lightgray">wps</text>
</g>
<!-- n6031&#45;&gt;n6032 -->
<g id="edge32" class="edge"><title>n6031&#45;&gt;n6032</title>
</g>
<!-- n6033&#45;&gt;n6034 -->
<g id="edge31" class="edge"><title>n6033&#45;&gt;n6034</title>
<path fill="none" stroke="black" d="M245.416,-160.945C299.363,-177.111 413.387,-219.24 468.689,-299 496.468,-339.066 509.069,-485.585 513.253,-547.779"/>
<polygon fill="black" stroke="black" points="509.777,-548.275 513.917,-558.028 516.763,-547.823 509.777,-548.275"/>
<text text-anchor="middle" x="367.689" y="-302.8" font-family="Times New Roman,serif" font-size="14.00">|&#45; ( ( ch &lt;&#45;&gt; ps ) &lt;&#45;&gt; ( ps &lt;&#45;&gt; ch ) )</text>
</g>
<!-- n6032&#45;&gt;n6033 -->
<g id="edge30" class="edge"><title>n6032&#45;&gt;n6033</title>
<path fill="none" stroke="lightgray" d="M55.4733,-25.3137C83.547,-34.7725 130.405,-53.3818 163.095,-81 178.191,-93.7544 190.987,-111.972 199.96,-126.89"/>
<polygon fill="lightgray" stroke="lightgray" points="197.003,-128.769 205.039,-135.674 203.063,-125.265 197.003,-128.769"/>
<text text-anchor="middle" x="121.095" y="-84.8" font-family="Times New Roman,serif" font-size="14.00" fill="lightgray">wff ps</text>
</g>
</g>
</svg>
