<?xml version="1.0" encoding="UTF-8" standalone="no"?>
<!DOCTYPE svg PUBLIC "-//W3C//DTD SVG 1.1//EN"
 "http://www.w3.org/Graphics/SVG/1.1/DTD/svg11.dtd">
<!-- Generated by graphviz version 2.38.0 (20140413.2041)
 -->
<!-- Title: proof_bibi2i Pages: 1 -->
<svg width="1279pt" height="1070pt"
 viewBox="0.00 0.00 1278.58 1070.00" xmlns="http://www.w3.org/2000/svg" xmlns:xlink="http://www.w3.org/1999/xlink">
<g id="graph0" class="graph" transform="scale(1 1) rotate(0) translate(4 1066)">
<title>proof_bibi2i</title>
<polygon fill="white" stroke="none" points="-4,4 -4,-1066 1274.58,-1066 1274.58,4 -4,4"/>
<!-- n5980 -->
<g id="node1" class="node"><title>n5980</title>
<ellipse fill="none" stroke="lightgray" cx="343.547" cy="-1044" rx="27" ry="18"/>
<text text-anchor="middle" x="343.547" y="-1040.3" font-family="Times New Roman,serif" font-size="14.00" fill="lightgray">wch</text>
</g>
<!-- n5982 -->
<g id="node2" class="node"><title>n5982</title>
<ellipse fill="none" stroke="lightgray" cx="641.441" cy="-935" rx="27" ry="18"/>
<text text-anchor="middle" x="641.441" y="-931.3" font-family="Times New Roman,serif" font-size="14.00" fill="lightgray">wb</text>
</g>
<!-- n5980&#45;&gt;n5982 -->
<g id="edge1" class="edge"><title>n5980&#45;&gt;n5982</title>
<path fill="none" stroke="lightgray" d="M370.599,-1041.82C416.4,-1037.09 513.297,-1023.08 585.095,-985 597.913,-978.202 610.113,-967.777 619.78,-958.201"/>
<polygon fill="lightgray" stroke="lightgray" points="622.514,-960.409 626.954,-950.79 617.484,-955.541 622.514,-960.409"/>
<text text-anchor="middle" x="488.595" y="-1041.8" font-family="Times New Roman,serif" font-size="14.00" fill="lightgray">wff ch</text>
</g>
<!-- n5981 -->
<g id="node3" class="node"><title>n5981</title>
<ellipse fill="none" stroke="lightgray" cx="343.547" cy="-972" rx="27" ry="18"/>
<text text-anchor="middle" x="343.547" y="-968.3" font-family="Times New Roman,serif" font-size="14.00" fill="lightgray">wph</text>
</g>
<!-- n5980&#45;&gt;n5981 -->
<g id="edge4" class="edge"><title>n5980&#45;&gt;n5981</title>
</g>
<!-- n6010 -->
<g id="node4" class="node"><title>n6010</title>
<ellipse fill="cyan" stroke="black" cx="941.935" cy="-740" rx="33.2948" ry="18"/>
<text text-anchor="middle" x="941.935" y="-736.3" font-family="Times New Roman,serif" font-size="14.00">impbii</text>
</g>
<!-- n5982&#45;&gt;n6010 -->
<g id="edge3" class="edge"><title>n5982&#45;&gt;n6010</title>
<path fill="none" stroke="lightgray" d="M668.246,-932.132C717.36,-925.414 825.215,-904.449 890.788,-845 913.472,-824.434 926.874,-791.413 934.033,-767.896"/>
<polygon fill="lightgray" stroke="lightgray" points="937.436,-768.727 936.811,-758.151 930.704,-766.808 937.436,-768.727"/>
<text text-anchor="middle" x="794.288" y="-931.8" font-family="Times New Roman,serif" font-size="14.00" fill="lightgray">wff ( ch &lt;&#45;&gt; ph )</text>
</g>
<!-- n5985 -->
<g id="node6" class="node"><title>n5985</title>
<ellipse fill="none" stroke="lightgray" cx="641.441" cy="-846" rx="27" ry="18"/>
<text text-anchor="middle" x="641.441" y="-842.3" font-family="Times New Roman,serif" font-size="14.00" fill="lightgray">wb</text>
</g>
<!-- n5982&#45;&gt;n5985 -->
<g id="edge48" class="edge"><title>n5982&#45;&gt;n5985</title>
</g>
<!-- n5981&#45;&gt;n5982 -->
<g id="edge2" class="edge"><title>n5981&#45;&gt;n5982</title>
<path fill="none" stroke="lightgray" d="M370.288,-968.781C423.079,-962.18 543.72,-947.094 604.312,-939.518"/>
<polygon fill="lightgray" stroke="lightgray" points="605.061,-942.952 614.549,-938.238 604.192,-936.006 605.061,-942.952"/>
<text text-anchor="middle" x="488.595" y="-969.8" font-family="Times New Roman,serif" font-size="14.00" fill="lightgray">wff ph</text>
</g>
<!-- QED -->
<g id="node32" class="node"><title>QED</title>
</g>
<!-- n6010&#45;&gt;QED -->
<g id="edge47" class="edge"><title>n6010&#45;&gt;QED</title>
<path fill="none" stroke="black" d="M975.327,-740C1030.57,-740 1142.76,-740 1201.88,-740"/>
<polygon fill="black" stroke="black" points="1201.93,-743.5 1211.93,-740 1201.93,-736.5 1201.93,-743.5"/>
<text text-anchor="middle" x="1093.58" y="-743.8" font-family="Times New Roman,serif" font-size="14.00">|&#45; ( ( ch &lt;&#45;&gt; ph ) &lt;&#45;&gt; ( ch &lt;&#45;&gt; ps ) )</text>
</g>
<!-- n5983 -->
<g id="node5" class="node"><title>n5983</title>
<ellipse fill="none" stroke="lightgray" cx="343.547" cy="-918" rx="27" ry="18"/>
<text text-anchor="middle" x="343.547" y="-914.3" font-family="Times New Roman,serif" font-size="14.00" fill="lightgray">wch</text>
</g>
<!-- n5983&#45;&gt;n5985 -->
<g id="edge5" class="edge"><title>n5983&#45;&gt;n5985</title>
<path fill="none" stroke="lightgray" d="M369.713,-913.435C413.749,-905.228 507.488,-886.794 585.095,-865 592.575,-862.899 600.527,-860.358 607.999,-857.826"/>
<polygon fill="lightgray" stroke="lightgray" points="609.166,-861.126 617.467,-854.543 606.872,-854.513 609.166,-861.126"/>
<text text-anchor="middle" x="488.595" y="-912.8" font-family="Times New Roman,serif" font-size="14.00" fill="lightgray">wff ch</text>
</g>
<!-- n5984 -->
<g id="node7" class="node"><title>n5984</title>
<ellipse fill="none" stroke="lightgray" cx="343.547" cy="-846" rx="27" ry="18"/>
<text text-anchor="middle" x="343.547" y="-842.3" font-family="Times New Roman,serif" font-size="14.00" fill="lightgray">wps</text>
</g>
<!-- n5983&#45;&gt;n5984 -->
<g id="edge8" class="edge"><title>n5983&#45;&gt;n5984</title>
</g>
<!-- n5985&#45;&gt;n6010 -->
<g id="edge7" class="edge"><title>n5985&#45;&gt;n6010</title>
<path fill="none" stroke="lightgray" d="M665.863,-837.682C717.548,-819.328 841.707,-775.238 903.991,-753.119"/>
<polygon fill="lightgray" stroke="lightgray" points="905.543,-756.282 913.795,-749.638 903.2,-749.686 905.543,-756.282"/>
<text text-anchor="middle" x="794.288" y="-829.8" font-family="Times New Roman,serif" font-size="14.00" fill="lightgray">wff ( ch &lt;&#45;&gt; ps )</text>
</g>
<!-- n5997 -->
<g id="node11" class="node"><title>n5997</title>
<ellipse fill="cyan" stroke="black" cx="641.441" cy="-648" rx="35.194" ry="18"/>
<text text-anchor="middle" x="641.441" y="-644.3" font-family="Times New Roman,serif" font-size="14.00">syl6bb</text>
</g>
<!-- n5985&#45;&gt;n5997 -->
<g id="edge49" class="edge"><title>n5985&#45;&gt;n5997</title>
</g>
<!-- n5984&#45;&gt;n5985 -->
<g id="edge6" class="edge"><title>n5984&#45;&gt;n5985</title>
<path fill="none" stroke="lightgray" d="M370.806,-846C423.776,-846 543.523,-846 604.014,-846"/>
<polygon fill="lightgray" stroke="lightgray" points="604.241,-849.5 614.241,-846 604.241,-842.5 604.241,-849.5"/>
<text text-anchor="middle" x="488.595" y="-849.8" font-family="Times New Roman,serif" font-size="14.00" fill="lightgray">wff ps</text>
</g>
<!-- n5986 -->
<g id="node8" class="node"><title>n5986</title>
<ellipse fill="none" stroke="lightgray" cx="154" cy="-836" rx="27" ry="18"/>
<text text-anchor="middle" x="154" y="-832.3" font-family="Times New Roman,serif" font-size="14.00" fill="lightgray">wph</text>
</g>
<!-- n5988 -->
<g id="node9" class="node"><title>n5988</title>
<ellipse fill="none" stroke="lightgray" cx="343.547" cy="-792" rx="27" ry="18"/>
<text text-anchor="middle" x="343.547" y="-788.3" font-family="Times New Roman,serif" font-size="14.00" fill="lightgray">wb</text>
</g>
<!-- n5986&#45;&gt;n5988 -->
<g id="edge9" class="edge"><title>n5986&#45;&gt;n5988</title>
<path fill="none" stroke="lightgray" d="M179.905,-830.157C212.784,-822.443 270.838,-808.823 307.961,-800.114"/>
<polygon fill="lightgray" stroke="lightgray" points="308.902,-803.489 317.838,-797.797 307.303,-796.674 308.902,-803.489"/>
<text text-anchor="middle" x="247" y="-829.8" font-family="Times New Roman,serif" font-size="14.00" fill="lightgray">wff ph</text>
</g>
<!-- n5987 -->
<g id="node10" class="node"><title>n5987</title>
<ellipse fill="none" stroke="lightgray" cx="154" cy="-764" rx="27" ry="18"/>
<text text-anchor="middle" x="154" y="-760.3" font-family="Times New Roman,serif" font-size="14.00" fill="lightgray">wch</text>
</g>
<!-- n5986&#45;&gt;n5987 -->
<g id="edge12" class="edge"><title>n5986&#45;&gt;n5987</title>
</g>
<!-- n5988&#45;&gt;n5997 -->
<g id="edge11" class="edge"><title>n5988&#45;&gt;n5997</title>
<path fill="none" stroke="lightgray" d="M370.549,-791.205C417.547,-788.577 517.976,-777.378 585.095,-730 604.72,-716.147 619.421,-692.955 628.721,-674.763"/>
<polygon fill="lightgray" stroke="lightgray" points="631.989,-676.047 633.209,-665.523 625.692,-672.989 631.989,-676.047"/>
<text text-anchor="middle" x="488.595" y="-793.8" font-family="Times New Roman,serif" font-size="14.00" fill="lightgray">wff ( ch &lt;&#45;&gt; ph )</text>
</g>
<!-- n5989 -->
<g id="node12" class="node"><title>n5989</title>
<ellipse fill="none" stroke="lightgray" cx="343.547" cy="-720" rx="27" ry="18"/>
<text text-anchor="middle" x="343.547" y="-716.3" font-family="Times New Roman,serif" font-size="14.00" fill="lightgray">wch</text>
</g>
<!-- n5988&#45;&gt;n5989 -->
<g id="edge23" class="edge"><title>n5988&#45;&gt;n5989</title>
</g>
<!-- n5987&#45;&gt;n5988 -->
<g id="edge10" class="edge"><title>n5987&#45;&gt;n5988</title>
<path fill="none" stroke="lightgray" d="M180.894,-766.706C209.063,-769.795 255.374,-775.296 295,-782 299.003,-782.677 303.181,-783.453 307.327,-784.267"/>
<polygon fill="lightgray" stroke="lightgray" points="306.951,-787.762 317.449,-786.332 308.35,-780.903 306.951,-787.762"/>
<text text-anchor="middle" x="247" y="-785.8" font-family="Times New Roman,serif" font-size="14.00" fill="lightgray">wff ch</text>
</g>
<!-- n5997&#45;&gt;n6010 -->
<g id="edge22" class="edge"><title>n5997&#45;&gt;n6010</title>
<path fill="none" stroke="black" d="M671.879,-657.073C726.242,-673.829 842.334,-709.61 902.698,-728.215"/>
<polygon fill="black" stroke="black" points="902.005,-731.664 912.592,-731.264 904.067,-724.974 902.005,-731.664"/>
<text text-anchor="middle" x="794.288" y="-728.8" font-family="Times New Roman,serif" font-size="14.00">|&#45; ( ( ch &lt;&#45;&gt; ph ) &#45;&gt; ( ch &lt;&#45;&gt; ps ) )</text>
</g>
<!-- n6009 -->
<g id="node23" class="node"><title>n6009</title>
<ellipse fill="cyan" stroke="black" cx="641.441" cy="-262" rx="38.1938" ry="18"/>
<text text-anchor="middle" x="641.441" y="-258.3" font-family="Times New Roman,serif" font-size="14.00">syl6bbr</text>
</g>
<!-- n5997&#45;&gt;n6009 -->
<g id="edge50" class="edge"><title>n5997&#45;&gt;n6009</title>
</g>
<!-- n5989&#45;&gt;n5997 -->
<g id="edge13" class="edge"><title>n5989&#45;&gt;n5997</title>
<path fill="none" stroke="lightgray" d="M369.713,-715.435C413.749,-707.228 507.488,-688.794 585.095,-667 590.859,-665.381 596.903,-663.501 602.792,-661.565"/>
<polygon fill="lightgray" stroke="lightgray" points="604.127,-664.808 612.48,-658.291 601.886,-658.177 604.127,-664.808"/>
<text text-anchor="middle" x="488.595" y="-714.8" font-family="Times New Roman,serif" font-size="14.00" fill="lightgray">wff ch</text>
</g>
<!-- n5990 -->
<g id="node13" class="node"><title>n5990</title>
<ellipse fill="none" stroke="lightgray" cx="343.547" cy="-648" rx="27" ry="18"/>
<text text-anchor="middle" x="343.547" y="-644.3" font-family="Times New Roman,serif" font-size="14.00" fill="lightgray">wph</text>
</g>
<!-- n5989&#45;&gt;n5990 -->
<g id="edge24" class="edge"><title>n5989&#45;&gt;n5990</title>
</g>
<!-- n5990&#45;&gt;n5997 -->
<g id="edge14" class="edge"><title>n5990&#45;&gt;n5997</title>
<path fill="none" stroke="lightgray" d="M370.806,-648C421.479,-648 533.263,-648 595.82,-648"/>
<polygon fill="lightgray" stroke="lightgray" points="596.162,-651.5 606.162,-648 596.162,-644.5 596.162,-651.5"/>
<text text-anchor="middle" x="488.595" y="-651.8" font-family="Times New Roman,serif" font-size="14.00" fill="lightgray">wff ph</text>
</g>
<!-- n5991 -->
<g id="node14" class="node"><title>n5991</title>
<ellipse fill="none" stroke="lightgray" cx="343.547" cy="-576" rx="27" ry="18"/>
<text text-anchor="middle" x="343.547" y="-572.3" font-family="Times New Roman,serif" font-size="14.00" fill="lightgray">wps</text>
</g>
<!-- n5990&#45;&gt;n5991 -->
<g id="edge25" class="edge"><title>n5990&#45;&gt;n5991</title>
</g>
<!-- n5991&#45;&gt;n5997 -->
<g id="edge15" class="edge"><title>n5991&#45;&gt;n5997</title>
<path fill="none" stroke="lightgray" d="M369.713,-580.565C413.749,-588.772 507.488,-607.206 585.095,-629 590.859,-630.619 596.903,-632.499 602.792,-634.435"/>
<polygon fill="lightgray" stroke="lightgray" points="601.886,-637.823 612.48,-637.709 604.127,-631.192 601.886,-637.823"/>
<text text-anchor="middle" x="488.595" y="-632.8" font-family="Times New Roman,serif" font-size="14.00" fill="lightgray">wff ps</text>
</g>
<!-- n5995 -->
<g id="node18" class="node"><title>n5995</title>
<ellipse fill="cyan" stroke="black" cx="343.547" cy="-504" rx="27" ry="18"/>
<text text-anchor="middle" x="343.547" y="-500.3" font-family="Times New Roman,serif" font-size="14.00">id</text>
</g>
<!-- n5991&#45;&gt;n5995 -->
<g id="edge26" class="edge"><title>n5991&#45;&gt;n5995</title>
</g>
<!-- n5992 -->
<g id="node15" class="node"><title>n5992</title>
<ellipse fill="none" stroke="lightgray" cx="27" cy="-548" rx="27" ry="18"/>
<text text-anchor="middle" x="27" y="-544.3" font-family="Times New Roman,serif" font-size="14.00" fill="lightgray">wph</text>
</g>
<!-- n5994 -->
<g id="node16" class="node"><title>n5994</title>
<ellipse fill="none" stroke="lightgray" cx="154" cy="-504" rx="27" ry="18"/>
<text text-anchor="middle" x="154" y="-500.3" font-family="Times New Roman,serif" font-size="14.00" fill="lightgray">wb</text>
</g>
<!-- n5992&#45;&gt;n5994 -->
<g id="edge16" class="edge"><title>n5992&#45;&gt;n5994</title>
<path fill="none" stroke="lightgray" d="M51.2186,-539.827C70.6886,-532.974 98.7117,-523.109 120.426,-515.466"/>
<polygon fill="lightgray" stroke="lightgray" points="121.635,-518.751 129.906,-512.129 119.311,-512.148 121.635,-518.751"/>
<text text-anchor="middle" x="90.5" y="-536.8" font-family="Times New Roman,serif" font-size="14.00" fill="lightgray">wff ph</text>
</g>
<!-- n5993 -->
<g id="node17" class="node"><title>n5993</title>
<ellipse fill="none" stroke="lightgray" cx="27" cy="-476" rx="27" ry="18"/>
<text text-anchor="middle" x="27" y="-472.3" font-family="Times New Roman,serif" font-size="14.00" fill="lightgray">wch</text>
</g>
<!-- n5992&#45;&gt;n5993 -->
<g id="edge19" class="edge"><title>n5992&#45;&gt;n5993</title>
</g>
<!-- n5994&#45;&gt;n5995 -->
<g id="edge18" class="edge"><title>n5994&#45;&gt;n5995</title>
<path fill="none" stroke="lightgray" d="M181.078,-504C213.598,-504 269.378,-504 306.109,-504"/>
<polygon fill="lightgray" stroke="lightgray" points="306.39,-507.5 316.389,-504 306.389,-500.5 306.39,-507.5"/>
<text text-anchor="middle" x="247" y="-507.8" font-family="Times New Roman,serif" font-size="14.00" fill="lightgray">wff ( ch &lt;&#45;&gt; ph )</text>
</g>
<!-- n5993&#45;&gt;n5994 -->
<g id="edge17" class="edge"><title>n5993&#45;&gt;n5994</title>
<path fill="none" stroke="lightgray" d="M52.8224,-481.484C68.8563,-485.034 90.1664,-489.767 109,-494 112.036,-494.682 115.189,-495.394 118.349,-496.108"/>
<polygon fill="lightgray" stroke="lightgray" points="117.811,-499.575 128.337,-498.373 119.359,-492.748 117.811,-499.575"/>
<text text-anchor="middle" x="90.5" y="-497.8" font-family="Times New Roman,serif" font-size="14.00" fill="lightgray">wff ch</text>
</g>
<!-- n5995&#45;&gt;n5997 -->
<g id="edge20" class="edge"><title>n5995&#45;&gt;n5997</title>
<path fill="none" stroke="black" d="M370.527,-504.96C417.49,-507.876 517.865,-519.635 585.095,-567 604.361,-580.574 618.97,-603.139 628.327,-621.01"/>
<polygon fill="black" stroke="black" points="625.395,-622.973 632.982,-630.369 631.662,-619.856 625.395,-622.973"/>
<text text-anchor="middle" x="488.595" y="-570.8" font-family="Times New Roman,serif" font-size="14.00">|&#45; ( ( ch &lt;&#45;&gt; ph ) &#45;&gt; ( ch &lt;&#45;&gt; ph ) )</text>
</g>
<!-- n5996 -->
<g id="node19" class="node"><title>n5996</title>
<ellipse fill="orange" stroke="black" cx="343.547" cy="-432" rx="30.5947" ry="18"/>
<text text-anchor="middle" x="343.547" y="-428.3" font-family="Times New Roman,serif" font-size="14.00">bibi.a</text>
</g>
<!-- n5995&#45;&gt;n5996 -->
<g id="edge27" class="edge"><title>n5995&#45;&gt;n5996</title>
</g>
<!-- n5996&#45;&gt;n5997 -->
<g id="edge21" class="edge"><title>n5996&#45;&gt;n5997</title>
<path fill="none" stroke="black" d="M374.168,-430.325C424.087,-429.163 525.359,-434.191 585.095,-488 622.995,-522.14 634.945,-583.524 638.71,-619.523"/>
<polygon fill="black" stroke="black" points="635.255,-620.175 639.636,-629.822 642.227,-619.549 635.255,-620.175"/>
<text text-anchor="middle" x="488.595" y="-491.8" font-family="Times New Roman,serif" font-size="14.00">|&#45; ( ph &lt;&#45;&gt; ps )</text>
</g>
<!-- n5998 -->
<g id="node20" class="node"><title>n5998</title>
<ellipse fill="none" stroke="lightgray" cx="154" cy="-415" rx="27" ry="18"/>
<text text-anchor="middle" x="154" y="-411.3" font-family="Times New Roman,serif" font-size="14.00" fill="lightgray">wps</text>
</g>
<!-- n6000 -->
<g id="node21" class="node"><title>n6000</title>
<ellipse fill="none" stroke="lightgray" cx="343.547" cy="-378" rx="27" ry="18"/>
<text text-anchor="middle" x="343.547" y="-374.3" font-family="Times New Roman,serif" font-size="14.00" fill="lightgray">wb</text>
</g>
<!-- n5998&#45;&gt;n6000 -->
<g id="edge28" class="edge"><title>n5998&#45;&gt;n6000</title>
<path fill="none" stroke="lightgray" d="M180.293,-410.01C213.103,-403.537 270.506,-392.213 307.5,-384.914"/>
<polygon fill="lightgray" stroke="lightgray" points="308.222,-388.339 317.356,-382.97 306.867,-381.472 308.222,-388.339"/>
<text text-anchor="middle" x="247" y="-410.8" font-family="Times New Roman,serif" font-size="14.00" fill="lightgray">wff ps</text>
</g>
<!-- n5999 -->
<g id="node22" class="node"><title>n5999</title>
<ellipse fill="none" stroke="lightgray" cx="154" cy="-343" rx="27" ry="18"/>
<text text-anchor="middle" x="154" y="-339.3" font-family="Times New Roman,serif" font-size="14.00" fill="lightgray">wch</text>
</g>
<!-- n5998&#45;&gt;n5999 -->
<g id="edge31" class="edge"><title>n5998&#45;&gt;n5999</title>
</g>
<!-- n6000&#45;&gt;n6009 -->
<g id="edge30" class="edge"><title>n6000&#45;&gt;n6009</title>
<path fill="none" stroke="lightgray" d="M370.463,-376.131C416.469,-371.853 514.226,-358.375 585.095,-318 598.953,-310.105 611.676,-297.773 621.42,-286.69"/>
<polygon fill="lightgray" stroke="lightgray" points="624.198,-288.825 627.962,-278.921 618.843,-284.316 624.198,-288.825"/>
<text text-anchor="middle" x="488.595" y="-377.8" font-family="Times New Roman,serif" font-size="14.00" fill="lightgray">wff ( ch &lt;&#45;&gt; ps )</text>
</g>
<!-- n6001 -->
<g id="node24" class="node"><title>n6001</title>
<ellipse fill="none" stroke="lightgray" cx="343.547" cy="-306" rx="27" ry="18"/>
<text text-anchor="middle" x="343.547" y="-302.3" font-family="Times New Roman,serif" font-size="14.00" fill="lightgray">wch</text>
</g>
<!-- n6000&#45;&gt;n6001 -->
<g id="edge42" class="edge"><title>n6000&#45;&gt;n6001</title>
</g>
<!-- n5999&#45;&gt;n6000 -->
<g id="edge29" class="edge"><title>n5999&#45;&gt;n6000</title>
<path fill="none" stroke="lightgray" d="M180.296,-347.671C208.339,-352.855 254.909,-361.483 295,-369 298.974,-369.745 303.134,-370.528 307.27,-371.308"/>
<polygon fill="lightgray" stroke="lightgray" points="306.905,-374.801 317.381,-373.22 308.205,-367.923 306.905,-374.801"/>
<text text-anchor="middle" x="247" y="-372.8" font-family="Times New Roman,serif" font-size="14.00" fill="lightgray">wff ch</text>
</g>
<!-- n6009&#45;&gt;n6010 -->
<g id="edge41" class="edge"><title>n6009&#45;&gt;n6010</title>
<path fill="none" stroke="black" d="M654.326,-279.345C690.986,-333.067 805.003,-501.827 890.788,-647 903.82,-669.055 917.558,-694.724 927.352,-713.5"/>
<polygon fill="black" stroke="black" points="924.379,-715.369 932.09,-722.635 930.593,-712.146 924.379,-715.369"/>
<text text-anchor="middle" x="794.288" y="-650.8" font-family="Times New Roman,serif" font-size="14.00">|&#45; ( ( ch &lt;&#45;&gt; ps ) &#45;&gt; ( ch &lt;&#45;&gt; ph ) )</text>
</g>
<!-- n6001&#45;&gt;n6009 -->
<g id="edge32" class="edge"><title>n6001&#45;&gt;n6009</title>
<path fill="none" stroke="lightgray" d="M370.031,-302.211C419.96,-294.786 531.282,-278.232 594.419,-268.844"/>
<polygon fill="lightgray" stroke="lightgray" points="595.12,-272.278 604.496,-267.345 594.09,-265.354 595.12,-272.278"/>
<text text-anchor="middle" x="488.595" y="-302.8" font-family="Times New Roman,serif" font-size="14.00" fill="lightgray">wff ch</text>
</g>
<!-- n6002 -->
<g id="node25" class="node"><title>n6002</title>
<ellipse fill="none" stroke="lightgray" cx="343.547" cy="-234" rx="27" ry="18"/>
<text text-anchor="middle" x="343.547" y="-230.3" font-family="Times New Roman,serif" font-size="14.00" fill="lightgray">wps</text>
</g>
<!-- n6001&#45;&gt;n6002 -->
<g id="edge43" class="edge"><title>n6001&#45;&gt;n6002</title>
</g>
<!-- n6002&#45;&gt;n6009 -->
<g id="edge33" class="edge"><title>n6002&#45;&gt;n6009</title>
<path fill="none" stroke="lightgray" d="M370.622,-235.061C414.865,-237.06 507.41,-242.103 585.095,-252 588.541,-252.439 592.098,-252.949 595.669,-253.502"/>
<polygon fill="lightgray" stroke="lightgray" points="595.252,-256.981 605.688,-255.151 596.389,-250.074 595.252,-256.981"/>
<text text-anchor="middle" x="488.595" y="-255.8" font-family="Times New Roman,serif" font-size="14.00" fill="lightgray">wff ps</text>
</g>
<!-- n6003 -->
<g id="node26" class="node"><title>n6003</title>
<ellipse fill="none" stroke="lightgray" cx="343.547" cy="-162" rx="27" ry="18"/>
<text text-anchor="middle" x="343.547" y="-158.3" font-family="Times New Roman,serif" font-size="14.00" fill="lightgray">wph</text>
</g>
<!-- n6002&#45;&gt;n6003 -->
<g id="edge44" class="edge"><title>n6002&#45;&gt;n6003</title>
</g>
<!-- n6003&#45;&gt;n6009 -->
<g id="edge34" class="edge"><title>n6003&#45;&gt;n6009</title>
<path fill="none" stroke="lightgray" d="M370.359,-164.253C415.789,-169.018 512.129,-182.735 585.095,-218 596.207,-223.371 607.128,-231.31 616.294,-238.972"/>
<polygon fill="lightgray" stroke="lightgray" points="614.019,-241.632 623.858,-245.562 618.618,-236.354 614.019,-241.632"/>
<text text-anchor="middle" x="488.595" y="-221.8" font-family="Times New Roman,serif" font-size="14.00" fill="lightgray">wff ph</text>
</g>
<!-- n6007 -->
<g id="node30" class="node"><title>n6007</title>
<ellipse fill="cyan" stroke="black" cx="343.547" cy="-90" rx="27" ry="18"/>
<text text-anchor="middle" x="343.547" y="-86.3" font-family="Times New Roman,serif" font-size="14.00">id</text>
</g>
<!-- n6003&#45;&gt;n6007 -->
<g id="edge45" class="edge"><title>n6003&#45;&gt;n6007</title>
</g>
<!-- n6004 -->
<g id="node27" class="node"><title>n6004</title>
<ellipse fill="none" stroke="lightgray" cx="27" cy="-118" rx="27" ry="18"/>
<text text-anchor="middle" x="27" y="-114.3" font-family="Times New Roman,serif" font-size="14.00" fill="lightgray">wps</text>
</g>
<!-- n6006 -->
<g id="node28" class="node"><title>n6006</title>
<ellipse fill="none" stroke="lightgray" cx="154" cy="-90" rx="27" ry="18"/>
<text text-anchor="middle" x="154" y="-86.3" font-family="Times New Roman,serif" font-size="14.00" fill="lightgray">wb</text>
</g>
<!-- n6004&#45;&gt;n6006 -->
<g id="edge35" class="edge"><title>n6004&#45;&gt;n6006</title>
<path fill="none" stroke="lightgray" d="M52.696,-112.468C71.3212,-108.296 97.1209,-102.517 117.89,-97.8646"/>
<polygon fill="lightgray" stroke="lightgray" points="118.934,-101.218 127.927,-95.6162 117.404,-94.3868 118.934,-101.218"/>
<text text-anchor="middle" x="90.5" y="-112.8" font-family="Times New Roman,serif" font-size="14.00" fill="lightgray">wff ps</text>
</g>
<!-- n6005 -->
<g id="node29" class="node"><title>n6005</title>
<ellipse fill="none" stroke="lightgray" cx="27" cy="-46" rx="27" ry="18"/>
<text text-anchor="middle" x="27" y="-42.3" font-family="Times New Roman,serif" font-size="14.00" fill="lightgray">wch</text>
</g>
<!-- n6004&#45;&gt;n6005 -->
<g id="edge38" class="edge"><title>n6004&#45;&gt;n6005</title>
</g>
<!-- n6006&#45;&gt;n6007 -->
<g id="edge37" class="edge"><title>n6006&#45;&gt;n6007</title>
<path fill="none" stroke="lightgray" d="M181.078,-90C213.598,-90 269.378,-90 306.109,-90"/>
<polygon fill="lightgray" stroke="lightgray" points="306.39,-93.5001 316.389,-90 306.389,-86.5001 306.39,-93.5001"/>
<text text-anchor="middle" x="247" y="-93.8" font-family="Times New Roman,serif" font-size="14.00" fill="lightgray">wff ( ch &lt;&#45;&gt; ps )</text>
</g>
<!-- n6005&#45;&gt;n6006 -->
<g id="edge36" class="edge"><title>n6005&#45;&gt;n6006</title>
<path fill="none" stroke="lightgray" d="M51.2186,-54.1729C70.6886,-61.0264 98.7117,-70.8905 120.426,-78.534"/>
<polygon fill="lightgray" stroke="lightgray" points="119.311,-81.8519 129.906,-81.8708 121.635,-75.249 119.311,-81.8519"/>
<text text-anchor="middle" x="90.5" y="-78.8" font-family="Times New Roman,serif" font-size="14.00" fill="lightgray">wff ch</text>
</g>
<!-- n6007&#45;&gt;n6009 -->
<g id="edge39" class="edge"><title>n6007&#45;&gt;n6009</title>
<path fill="none" stroke="black" d="M370.824,-89.517C418.709,-89.9997 521.127,-97.4897 585.095,-149 611.862,-170.555 626.632,-208.293 634.042,-234.184"/>
<polygon fill="black" stroke="black" points="630.738,-235.377 636.698,-244.137 637.501,-233.573 630.738,-235.377"/>
<text text-anchor="middle" x="488.595" y="-152.8" font-family="Times New Roman,serif" font-size="14.00">|&#45; ( ( ch &lt;&#45;&gt; ps ) &#45;&gt; ( ch &lt;&#45;&gt; ps ) )</text>
</g>
<!-- n6008 -->
<g id="node31" class="node"><title>n6008</title>
<ellipse fill="orange" stroke="black" cx="343.547" cy="-18" rx="30.5947" ry="18"/>
<text text-anchor="middle" x="343.547" y="-14.3" font-family="Times New Roman,serif" font-size="14.00">bibi.a</text>
</g>
<!-- n6007&#45;&gt;n6008 -->
<g id="edge46" class="edge"><title>n6007&#45;&gt;n6008</title>
</g>
<!-- n6008&#45;&gt;n6009 -->
<g id="edge40" class="edge"><title>n6008&#45;&gt;n6009</title>
<path fill="none" stroke="black" d="M374.033,-15.7455C424.207,-13.6115 526.443,-16.9113 585.095,-72 630.478,-114.627 639.343,-192.118 640.65,-233.749"/>
<polygon fill="black" stroke="black" points="637.15,-233.827 640.838,-243.76 644.149,-233.695 637.15,-233.827"/>
<text text-anchor="middle" x="488.595" y="-75.8" font-family="Times New Roman,serif" font-size="14.00">|&#45; ( ph &lt;&#45;&gt; ps )</text>
</g>
</g>
</svg>
