<?xml version="1.0" encoding="UTF-8" standalone="no"?>
<!DOCTYPE svg PUBLIC "-//W3C//DTD SVG 1.1//EN"
 "http://www.w3.org/Graphics/SVG/1.1/DTD/svg11.dtd">
<!-- Generated by graphviz version 2.38.0 (20140413.2041)
 -->
<!-- Title: proof_biimpar Pages: 1 -->
<svg width="768pt" height="367pt"
 viewBox="0.00 0.00 767.98 367.00" xmlns="http://www.w3.org/2000/svg" xmlns:xlink="http://www.w3.org/1999/xlink">
<g id="graph0" class="graph" transform="scale(1 1) rotate(0) translate(4 363)">
<title>proof_biimpar</title>
<polygon fill="white" stroke="none" points="-4,4 -4,-363 763.98,-363 763.98,4 -4,4"/>
<!-- n8395 -->
<g id="node1" class="node"><title>n8395</title>
<ellipse fill="none" stroke="lightgray" cx="293.489" cy="-341" rx="27" ry="18"/>
<text text-anchor="middle" x="293.489" y="-337.3" font-family="Times New Roman,serif" font-size="14.00" fill="lightgray">wph</text>
</g>
<!-- n8403 -->
<g id="node2" class="node"><title>n8403</title>
<ellipse fill="cyan" stroke="black" cx="521.486" cy="-232" rx="27" ry="18"/>
<text text-anchor="middle" x="521.486" y="-228.3" font-family="Times New Roman,serif" font-size="14.00">imp</text>
</g>
<!-- n8395&#45;&gt;n8403 -->
<g id="edge1" class="edge"><title>n8395&#45;&gt;n8403</title>
<path fill="none" stroke="lightgray" d="M319.692,-336.232C356.432,-328.443 425.83,-310.5 476.486,-278 485.834,-272.003 494.623,-263.625 501.852,-255.66"/>
<polygon fill="lightgray" stroke="lightgray" points="504.636,-257.791 508.523,-247.936 499.338,-253.216 504.636,-257.791"/>
<text text-anchor="middle" x="413.486" y="-331.8" font-family="Times New Roman,serif" font-size="14.00" fill="lightgray">wff ph</text>
</g>
<!-- n8396 -->
<g id="node3" class="node"><title>n8396</title>
<ellipse fill="none" stroke="lightgray" cx="293.489" cy="-269" rx="27" ry="18"/>
<text text-anchor="middle" x="293.489" y="-265.3" font-family="Times New Roman,serif" font-size="14.00" fill="lightgray">wch</text>
</g>
<!-- n8395&#45;&gt;n8396 -->
<g id="edge13" class="edge"><title>n8395&#45;&gt;n8396</title>
</g>
<!-- QED -->
<g id="node10" class="node"><title>QED</title>
</g>
<!-- n8403&#45;&gt;QED -->
<g id="edge12" class="edge"><title>n8403&#45;&gt;QED</title>
<path fill="none" stroke="black" d="M548.734,-232C584.781,-232 649.853,-232 691.365,-232"/>
<polygon fill="black" stroke="black" points="691.379,-235.5 701.379,-232 691.379,-228.5 691.379,-235.5"/>
<text text-anchor="middle" x="624.986" y="-235.8" font-family="Times New Roman,serif" font-size="14.00">|&#45; ( ( ph / ch ) &#45;&gt; ps )</text>
</g>
<!-- n8396&#45;&gt;n8403 -->
<g id="edge2" class="edge"><title>n8396&#45;&gt;n8403</title>
<path fill="none" stroke="lightgray" d="M319.974,-264.828C360.349,-258.217 439.131,-245.319 485.006,-237.809"/>
<polygon fill="lightgray" stroke="lightgray" points="485.79,-241.227 495.093,-236.157 484.659,-234.319 485.79,-241.227"/>
<text text-anchor="middle" x="413.486" y="-262.8" font-family="Times New Roman,serif" font-size="14.00" fill="lightgray">wff ch</text>
</g>
<!-- n8397 -->
<g id="node4" class="node"><title>n8397</title>
<ellipse fill="none" stroke="lightgray" cx="293.489" cy="-197" rx="27" ry="18"/>
<text text-anchor="middle" x="293.489" y="-193.3" font-family="Times New Roman,serif" font-size="14.00" fill="lightgray">wps</text>
</g>
<!-- n8396&#45;&gt;n8397 -->
<g id="edge14" class="edge"><title>n8396&#45;&gt;n8397</title>
</g>
<!-- n8397&#45;&gt;n8403 -->
<g id="edge3" class="edge"><title>n8397&#45;&gt;n8403</title>
<path fill="none" stroke="lightgray" d="M320.184,-200.178C355.501,-204.658 420.981,-213.368 476.486,-223 479.366,-223.5 482.347,-224.047 485.337,-224.615"/>
<polygon fill="lightgray" stroke="lightgray" points="484.917,-228.1 495.405,-226.6 486.271,-221.232 484.917,-228.1"/>
<text text-anchor="middle" x="413.486" y="-226.8" font-family="Times New Roman,serif" font-size="14.00" fill="lightgray">wff ps</text>
</g>
<!-- n8402 -->
<g id="node6" class="node"><title>n8402</title>
<ellipse fill="cyan" stroke="black" cx="293.489" cy="-125" rx="38.9931" ry="18"/>
<text text-anchor="middle" x="293.489" y="-121.3" font-family="Times New Roman,serif" font-size="14.00">biimprd</text>
</g>
<!-- n8397&#45;&gt;n8402 -->
<g id="edge15" class="edge"><title>n8397&#45;&gt;n8402</title>
</g>
<!-- n8398 -->
<g id="node5" class="node"><title>n8398</title>
<ellipse fill="none" stroke="lightgray" cx="42.2463" cy="-234" rx="27" ry="18"/>
<text text-anchor="middle" x="42.2463" y="-230.3" font-family="Times New Roman,serif" font-size="14.00" fill="lightgray">wph</text>
</g>
<!-- n8398&#45;&gt;n8402 -->
<g id="edge4" class="edge"><title>n8398&#45;&gt;n8402</title>
<path fill="none" stroke="lightgray" d="M68.6378,-229.389C106.869,-221.715 180.677,-204.017 236.493,-173 248.21,-166.489 259.708,-157.276 269.207,-148.66"/>
<polygon fill="lightgray" stroke="lightgray" points="271.789,-151.036 276.677,-141.635 266.994,-145.936 271.789,-151.036"/>
<text text-anchor="middle" x="169.493" y="-224.8" font-family="Times New Roman,serif" font-size="14.00" fill="lightgray">wff ph</text>
</g>
<!-- n8399 -->
<g id="node7" class="node"><title>n8399</title>
<ellipse fill="none" stroke="lightgray" cx="42.2463" cy="-162" rx="27" ry="18"/>
<text text-anchor="middle" x="42.2463" y="-158.3" font-family="Times New Roman,serif" font-size="14.00" fill="lightgray">wps</text>
</g>
<!-- n8398&#45;&gt;n8399 -->
<g id="edge9" class="edge"><title>n8398&#45;&gt;n8399</title>
</g>
<!-- n8402&#45;&gt;n8403 -->
<g id="edge8" class="edge"><title>n8402&#45;&gt;n8403</title>
<path fill="none" stroke="black" d="M330.294,-131.298C368.744,-139.266 430.503,-155.63 476.486,-185 485.953,-191.047 494.768,-199.589 501.984,-207.736"/>
<polygon fill="black" stroke="black" points="499.518,-210.242 508.632,-215.644 504.876,-205.737 499.518,-210.242"/>
<text text-anchor="middle" x="413.486" y="-188.8" font-family="Times New Roman,serif" font-size="14.00">|&#45; ( ph &#45;&gt; ( ch &#45;&gt; ps ) )</text>
</g>
<!-- n8399&#45;&gt;n8402 -->
<g id="edge5" class="edge"><title>n8399&#45;&gt;n8402</title>
<path fill="none" stroke="lightgray" d="M68.9808,-158.18C110.725,-151.983 193.783,-139.653 246.054,-131.893"/>
<polygon fill="lightgray" stroke="lightgray" points="246.698,-135.336 256.076,-130.405 245.671,-128.412 246.698,-135.336"/>
<text text-anchor="middle" x="169.493" y="-157.8" font-family="Times New Roman,serif" font-size="14.00" fill="lightgray">wff ps</text>
</g>
<!-- n8400 -->
<g id="node8" class="node"><title>n8400</title>
<ellipse fill="none" stroke="lightgray" cx="42.2463" cy="-90" rx="27" ry="18"/>
<text text-anchor="middle" x="42.2463" y="-86.3" font-family="Times New Roman,serif" font-size="14.00" fill="lightgray">wch</text>
</g>
<!-- n8399&#45;&gt;n8400 -->
<g id="edge10" class="edge"><title>n8399&#45;&gt;n8400</title>
</g>
<!-- n8400&#45;&gt;n8402 -->
<g id="edge6" class="edge"><title>n8400&#45;&gt;n8402</title>
<path fill="none" stroke="lightgray" d="M68.9081,-93.2401C105.952,-97.9655 176.547,-107.151 236.493,-116 239.707,-116.474 243.023,-116.976 246.362,-117.49"/>
<polygon fill="lightgray" stroke="lightgray" points="245.942,-120.967 256.363,-119.054 247.024,-114.051 245.942,-120.967"/>
<text text-anchor="middle" x="169.493" y="-119.8" font-family="Times New Roman,serif" font-size="14.00" fill="lightgray">wff ch</text>
</g>
<!-- n8401 -->
<g id="node9" class="node"><title>n8401</title>
<ellipse fill="orange" stroke="black" cx="42.2463" cy="-18" rx="42.4939" ry="18"/>
<text text-anchor="middle" x="42.2463" y="-14.3" font-family="Times New Roman,serif" font-size="14.00">biimpa.1</text>
</g>
<!-- n8400&#45;&gt;n8401 -->
<g id="edge11" class="edge"><title>n8400&#45;&gt;n8401</title>
</g>
<!-- n8401&#45;&gt;n8402 -->
<g id="edge7" class="edge"><title>n8401&#45;&gt;n8402</title>
<path fill="none" stroke="black" d="M80.8964,-25.4002C121.122,-34.3084 185.923,-51.5878 236.493,-79 247.785,-85.1212 258.976,-93.6761 268.351,-101.75"/>
<polygon fill="black" stroke="black" points="266.288,-104.6 276.079,-108.648 270.95,-99.3779 266.288,-104.6"/>
<text text-anchor="middle" x="169.493" y="-82.8" font-family="Times New Roman,serif" font-size="14.00">|&#45; ( ph &#45;&gt; ( ps &lt;&#45;&gt; ch ) )</text>
</g>
</g>
</svg>
