<?xml version="1.0" encoding="UTF-8" standalone="no"?>
<!DOCTYPE svg PUBLIC "-//W3C//DTD SVG 1.1//EN"
 "http://www.w3.org/Graphics/SVG/1.1/DTD/svg11.dtd">
<!-- Generated by graphviz version 2.38.0 (20140413.2041)
 -->
<!-- Title: proof_biortn Pages: 1 -->
<svg width="1116pt" height="393pt"
 viewBox="0.00 0.00 1116.19 393.00" xmlns="http://www.w3.org/2000/svg" xmlns:xlink="http://www.w3.org/1999/xlink">
<g id="graph0" class="graph" transform="scale(1 1) rotate(0) translate(4 389)">
<title>proof_biortn</title>
<polygon fill="white" stroke="none" points="-4,4 -4,-389 1112.19,-389 1112.19,4 -4,4"/>
<!-- n7490 -->
<g id="node1" class="node"><title>n7490</title>
<ellipse fill="none" stroke="lightgray" cx="485.347" cy="-367" rx="27" ry="18"/>
<text text-anchor="middle" x="485.347" y="-363.3" font-family="Times New Roman,serif" font-size="14.00" fill="lightgray">wph</text>
</g>
<!-- n7506 -->
<g id="node2" class="node"><title>n7506</title>
<ellipse fill="cyan" stroke="black" cx="798.693" cy="-223" rx="27" ry="18"/>
<text text-anchor="middle" x="798.693" y="-219.3" font-family="Times New Roman,serif" font-size="14.00">syl</text>
</g>
<!-- n7490&#45;&gt;n7506 -->
<g id="edge1" class="edge"><title>n7490&#45;&gt;n7506</title>
<path fill="none" stroke="lightgray" d="M512.496,-367.881C564.055,-368.272 680.195,-362.32 753.693,-306 771.716,-292.19 783.149,-268.853 789.83,-250.436"/>
<polygon fill="lightgray" stroke="lightgray" points="793.199,-251.396 793.064,-240.802 786.563,-249.169 793.199,-251.396"/>
<text text-anchor="middle" x="647.693" y="-370.8" font-family="Times New Roman,serif" font-size="14.00" fill="lightgray">wff ph</text>
</g>
<!-- n7493 -->
<g id="node5" class="node"><title>n7493</title>
<ellipse fill="none" stroke="lightgray" cx="485.347" cy="-295" rx="27" ry="18"/>
<text text-anchor="middle" x="485.347" y="-291.3" font-family="Times New Roman,serif" font-size="14.00" fill="lightgray">wn</text>
</g>
<!-- n7490&#45;&gt;n7493 -->
<g id="edge21" class="edge"><title>n7490&#45;&gt;n7493</title>
</g>
<!-- QED -->
<g id="node18" class="node"><title>QED</title>
</g>
<!-- n7506&#45;&gt;QED -->
<g id="edge20" class="edge"><title>n7506&#45;&gt;QED</title>
<path fill="none" stroke="black" d="M825.87,-223C875.158,-223 981.934,-223 1039.43,-223"/>
<polygon fill="black" stroke="black" points="1039.56,-226.5 1049.56,-223 1039.56,-219.5 1039.56,-226.5"/>
<text text-anchor="middle" x="937.693" y="-226.8" font-family="Times New Roman,serif" font-size="14.00">|&#45; ( ph &#45;&gt; ( ps &lt;&#45;&gt; ( &#45;. ph / ps ) ) )</text>
</g>
<!-- n7491 -->
<g id="node3" class="node"><title>n7491</title>
<ellipse fill="none" stroke="lightgray" cx="154" cy="-329" rx="27" ry="18"/>
<text text-anchor="middle" x="154" y="-325.3" font-family="Times New Roman,serif" font-size="14.00" fill="lightgray">wph</text>
</g>
<!-- n7492 -->
<g id="node4" class="node"><title>n7492</title>
<ellipse fill="none" stroke="lightgray" cx="293" cy="-329" rx="27" ry="18"/>
<text text-anchor="middle" x="293" y="-325.3" font-family="Times New Roman,serif" font-size="14.00" fill="lightgray">wn</text>
</g>
<!-- n7491&#45;&gt;n7492 -->
<g id="edge2" class="edge"><title>n7491&#45;&gt;n7492</title>
<path fill="none" stroke="lightgray" d="M181.091,-329C202.096,-329 231.873,-329 255.285,-329"/>
<polygon fill="lightgray" stroke="lightgray" points="255.539,-332.5 265.539,-329 255.539,-325.5 255.539,-332.5"/>
<text text-anchor="middle" x="223.5" y="-332.8" font-family="Times New Roman,serif" font-size="14.00" fill="lightgray">wff ph</text>
</g>
<!-- n7492&#45;&gt;n7493 -->
<g id="edge3" class="edge"><title>n7492&#45;&gt;n7493</title>
<path fill="none" stroke="lightgray" d="M319.277,-324.485C352.554,-318.541 411.241,-308.058 448.931,-301.326"/>
<polygon fill="lightgray" stroke="lightgray" points="449.737,-304.738 458.965,-299.534 448.506,-297.847 449.737,-304.738"/>
<text text-anchor="middle" x="383.5" y="-323.8" font-family="Times New Roman,serif" font-size="14.00" fill="lightgray">wff &#45;. ph</text>
</g>
<!-- n7493&#45;&gt;n7506 -->
<g id="edge4" class="edge"><title>n7493&#45;&gt;n7506</title>
<path fill="none" stroke="lightgray" d="M512.231,-291.729C560.494,-285.224 667.172,-268.923 753.693,-242 758.011,-240.657 762.478,-239.027 766.837,-237.294"/>
<polygon fill="lightgray" stroke="lightgray" points="768.239,-240.501 776.106,-233.404 765.53,-234.047 768.239,-240.501"/>
<text text-anchor="middle" x="647.693" y="-290.8" font-family="Times New Roman,serif" font-size="14.00" fill="lightgray">wff &#45;. &#45;. ph</text>
</g>
<!-- n7499 -->
<g id="node7" class="node"><title>n7499</title>
<ellipse fill="none" stroke="lightgray" cx="485.347" cy="-223" rx="27" ry="18"/>
<text text-anchor="middle" x="485.347" y="-219.3" font-family="Times New Roman,serif" font-size="14.00" fill="lightgray">wb</text>
</g>
<!-- n7493&#45;&gt;n7499 -->
<g id="edge22" class="edge"><title>n7493&#45;&gt;n7499</title>
</g>
<!-- n7494 -->
<g id="node6" class="node"><title>n7494</title>
<ellipse fill="none" stroke="lightgray" cx="293" cy="-275" rx="27" ry="18"/>
<text text-anchor="middle" x="293" y="-271.3" font-family="Times New Roman,serif" font-size="14.00" fill="lightgray">wps</text>
</g>
<!-- n7494&#45;&gt;n7499 -->
<g id="edge5" class="edge"><title>n7494&#45;&gt;n7499</title>
<path fill="none" stroke="lightgray" d="M318.495,-268.308C351.903,-259.182 411.929,-242.783 449.871,-232.418"/>
<polygon fill="lightgray" stroke="lightgray" points="451.222,-235.678 459.946,-229.666 449.377,-228.925 451.222,-235.678"/>
<text text-anchor="middle" x="383.5" y="-265.8" font-family="Times New Roman,serif" font-size="14.00" fill="lightgray">wff ps</text>
</g>
<!-- n7498 -->
<g id="node10" class="node"><title>n7498</title>
<ellipse fill="none" stroke="lightgray" cx="293" cy="-203" rx="27" ry="18"/>
<text text-anchor="middle" x="293" y="-199.3" font-family="Times New Roman,serif" font-size="14.00" fill="lightgray">wo</text>
</g>
<!-- n7494&#45;&gt;n7498 -->
<g id="edge12" class="edge"><title>n7494&#45;&gt;n7498</title>
</g>
<!-- n7499&#45;&gt;n7506 -->
<g id="edge11" class="edge"><title>n7499&#45;&gt;n7506</title>
<path fill="none" stroke="lightgray" d="M512.356,-223C567.758,-223 697.531,-223 761.183,-223"/>
<polygon fill="lightgray" stroke="lightgray" points="761.539,-226.5 771.539,-223 761.539,-219.5 761.539,-226.5"/>
<text text-anchor="middle" x="647.693" y="-226.8" font-family="Times New Roman,serif" font-size="14.00" fill="lightgray">wff ( ps &lt;&#45;&gt; ( &#45;. ph / ps ) )</text>
</g>
<!-- n7501 -->
<g id="node13" class="node"><title>n7501</title>
<ellipse fill="cyan" stroke="black" cx="485.347" cy="-151" rx="38.1938" ry="18"/>
<text text-anchor="middle" x="485.347" y="-147.3" font-family="Times New Roman,serif" font-size="14.00">notnot1</text>
</g>
<!-- n7499&#45;&gt;n7501 -->
<g id="edge23" class="edge"><title>n7499&#45;&gt;n7501</title>
</g>
<!-- n7495 -->
<g id="node8" class="node"><title>n7495</title>
<ellipse fill="none" stroke="lightgray" cx="27" cy="-239" rx="27" ry="18"/>
<text text-anchor="middle" x="27" y="-235.3" font-family="Times New Roman,serif" font-size="14.00" fill="lightgray">wph</text>
</g>
<!-- n7496 -->
<g id="node9" class="node"><title>n7496</title>
<ellipse fill="none" stroke="lightgray" cx="154" cy="-239" rx="27" ry="18"/>
<text text-anchor="middle" x="154" y="-235.3" font-family="Times New Roman,serif" font-size="14.00" fill="lightgray">wn</text>
</g>
<!-- n7495&#45;&gt;n7496 -->
<g id="edge6" class="edge"><title>n7495&#45;&gt;n7496</title>
<path fill="none" stroke="lightgray" d="M54.2041,-239C72.3711,-239 96.7994,-239 116.82,-239"/>
<polygon fill="lightgray" stroke="lightgray" points="116.83,-242.5 126.83,-239 116.83,-235.5 116.83,-242.5"/>
<text text-anchor="middle" x="90.5" y="-242.8" font-family="Times New Roman,serif" font-size="14.00" fill="lightgray">wff ph</text>
</g>
<!-- n7496&#45;&gt;n7498 -->
<g id="edge7" class="edge"><title>n7496&#45;&gt;n7498</title>
<path fill="none" stroke="lightgray" d="M179.493,-232.564C201.312,-226.83 233.463,-218.382 257.814,-211.983"/>
<polygon fill="lightgray" stroke="lightgray" points="258.937,-215.307 267.719,-209.38 257.158,-208.537 258.937,-215.307"/>
<text text-anchor="middle" x="223.5" y="-230.8" font-family="Times New Roman,serif" font-size="14.00" fill="lightgray">wff &#45;. ph</text>
</g>
<!-- n7497 -->
<g id="node11" class="node"><title>n7497</title>
<ellipse fill="none" stroke="lightgray" cx="154" cy="-167" rx="27" ry="18"/>
<text text-anchor="middle" x="154" y="-163.3" font-family="Times New Roman,serif" font-size="14.00" fill="lightgray">wps</text>
</g>
<!-- n7496&#45;&gt;n7497 -->
<g id="edge10" class="edge"><title>n7496&#45;&gt;n7497</title>
</g>
<!-- n7498&#45;&gt;n7499 -->
<g id="edge9" class="edge"><title>n7498&#45;&gt;n7499</title>
<path fill="none" stroke="lightgray" d="M320.068,-205.739C353.386,-209.24 411.221,-215.317 448.623,-219.247"/>
<polygon fill="lightgray" stroke="lightgray" points="448.283,-222.73 458.594,-220.294 449.014,-215.768 448.283,-222.73"/>
<text text-anchor="middle" x="383.5" y="-221.8" font-family="Times New Roman,serif" font-size="14.00" fill="lightgray">wff ( &#45;. ph / ps )</text>
</g>
<!-- n7497&#45;&gt;n7498 -->
<g id="edge8" class="edge"><title>n7497&#45;&gt;n7498</title>
<path fill="none" stroke="lightgray" d="M179.493,-173.436C201.312,-179.17 233.463,-187.618 257.814,-194.017"/>
<polygon fill="lightgray" stroke="lightgray" points="257.158,-197.463 267.719,-196.62 258.937,-190.693 257.158,-197.463"/>
<text text-anchor="middle" x="223.5" y="-195.8" font-family="Times New Roman,serif" font-size="14.00" fill="lightgray">wff ps</text>
</g>
<!-- n7500 -->
<g id="node12" class="node"><title>n7500</title>
<ellipse fill="none" stroke="lightgray" cx="293" cy="-149" rx="27" ry="18"/>
<text text-anchor="middle" x="293" y="-145.3" font-family="Times New Roman,serif" font-size="14.00" fill="lightgray">wph</text>
</g>
<!-- n7500&#45;&gt;n7501 -->
<g id="edge13" class="edge"><title>n7500&#45;&gt;n7501</title>
<path fill="none" stroke="lightgray" d="M320.068,-149.274C350.036,-149.589 399.837,-150.112 436.766,-150.5"/>
<polygon fill="lightgray" stroke="lightgray" points="436.777,-154 446.813,-150.606 436.85,-147.001 436.777,-154"/>
<text text-anchor="middle" x="383.5" y="-154.8" font-family="Times New Roman,serif" font-size="14.00" fill="lightgray">wff ph</text>
</g>
<!-- n7501&#45;&gt;n7506 -->
<g id="edge14" class="edge"><title>n7501&#45;&gt;n7506</title>
<path fill="none" stroke="black" d="M522.407,-155.67C574.335,-162.95 672.819,-178.835 753.693,-204 758.011,-205.343 762.478,-206.973 766.837,-208.706"/>
<polygon fill="black" stroke="black" points="765.53,-211.953 776.106,-212.596 768.239,-205.499 765.53,-211.953"/>
<text text-anchor="middle" x="647.693" y="-207.8" font-family="Times New Roman,serif" font-size="14.00">|&#45; ( ph &#45;&gt; &#45;. &#45;. ph )</text>
</g>
<!-- n7505 -->
<g id="node16" class="node"><title>n7505</title>
<ellipse fill="cyan" stroke="black" cx="485.347" cy="-79" rx="28.6953" ry="18"/>
<text text-anchor="middle" x="485.347" y="-75.3" font-family="Times New Roman,serif" font-size="14.00">biorf</text>
</g>
<!-- n7501&#45;&gt;n7505 -->
<g id="edge24" class="edge"><title>n7501&#45;&gt;n7505</title>
</g>
<!-- n7502 -->
<g id="node14" class="node"><title>n7502</title>
<ellipse fill="none" stroke="lightgray" cx="154" cy="-90" rx="27" ry="18"/>
<text text-anchor="middle" x="154" y="-86.3" font-family="Times New Roman,serif" font-size="14.00" fill="lightgray">wph</text>
</g>
<!-- n7503 -->
<g id="node15" class="node"><title>n7503</title>
<ellipse fill="none" stroke="lightgray" cx="293" cy="-90" rx="27" ry="18"/>
<text text-anchor="middle" x="293" y="-86.3" font-family="Times New Roman,serif" font-size="14.00" fill="lightgray">wn</text>
</g>
<!-- n7502&#45;&gt;n7503 -->
<g id="edge15" class="edge"><title>n7502&#45;&gt;n7503</title>
<path fill="none" stroke="lightgray" d="M181.091,-90C202.096,-90 231.873,-90 255.285,-90"/>
<polygon fill="lightgray" stroke="lightgray" points="255.539,-93.5001 265.539,-90 255.539,-86.5001 255.539,-93.5001"/>
<text text-anchor="middle" x="223.5" y="-93.8" font-family="Times New Roman,serif" font-size="14.00" fill="lightgray">wff ph</text>
</g>
<!-- n7503&#45;&gt;n7505 -->
<g id="edge16" class="edge"><title>n7503&#45;&gt;n7505</title>
<path fill="none" stroke="lightgray" d="M320.068,-88.4936C352.828,-86.6004 409.289,-83.3375 446.726,-81.1741"/>
<polygon fill="lightgray" stroke="lightgray" points="446.963,-84.6663 456.745,-80.5951 446.56,-77.6779 446.963,-84.6663"/>
<text text-anchor="middle" x="383.5" y="-91.8" font-family="Times New Roman,serif" font-size="14.00" fill="lightgray">wff &#45;. ph</text>
</g>
<!-- n7504 -->
<g id="node17" class="node"><title>n7504</title>
<ellipse fill="none" stroke="lightgray" cx="293" cy="-18" rx="27" ry="18"/>
<text text-anchor="middle" x="293" y="-14.3" font-family="Times New Roman,serif" font-size="14.00" fill="lightgray">wps</text>
</g>
<!-- n7503&#45;&gt;n7504 -->
<g id="edge19" class="edge"><title>n7503&#45;&gt;n7504</title>
</g>
<!-- n7505&#45;&gt;n7506 -->
<g id="edge18" class="edge"><title>n7505&#45;&gt;n7506</title>
<path fill="none" stroke="black" d="M514.107,-78.1088C566.439,-77.8558 680.95,-84.259 753.693,-140 771.716,-153.81 783.149,-177.147 789.83,-195.564"/>
<polygon fill="black" stroke="black" points="786.563,-196.831 793.064,-205.198 793.199,-194.604 786.563,-196.831"/>
<text text-anchor="middle" x="647.693" y="-143.8" font-family="Times New Roman,serif" font-size="14.00">|&#45; ( &#45;. &#45;. ph &#45;&gt; ( ps &lt;&#45;&gt; ( &#45;. ph / ps ) ) )</text>
</g>
<!-- n7504&#45;&gt;n7505 -->
<g id="edge17" class="edge"><title>n7504&#45;&gt;n7505</title>
<path fill="none" stroke="lightgray" d="M317.723,-25.6024C350.932,-36.2447 411.492,-55.6523 449.735,-67.908"/>
<polygon fill="lightgray" stroke="lightgray" points="448.826,-71.292 459.417,-71.0109 450.962,-64.626 448.826,-71.292"/>
<text text-anchor="middle" x="383.5" y="-64.8" font-family="Times New Roman,serif" font-size="14.00" fill="lightgray">wff ps</text>
</g>
</g>
</svg>
