<?xml version="1.0" encoding="UTF-8" standalone="no"?>
<!DOCTYPE svg PUBLIC "-//W3C//DTD SVG 1.1//EN"
 "http://www.w3.org/Graphics/SVG/1.1/DTD/svg11.dtd">
<!-- Generated by graphviz version 2.38.0 (20140413.2041)
 -->
<!-- Title: proof_bitri Pages: 1 -->
<svg width="802pt" height="674pt"
 viewBox="0.00 0.00 802.37 674.00" xmlns="http://www.w3.org/2000/svg" xmlns:xlink="http://www.w3.org/1999/xlink">
<g id="graph0" class="graph" transform="scale(1 1) rotate(0) translate(4 670)">
<title>proof_bitri</title>
<polygon fill="white" stroke="none" points="-4,4 -4,-670 798.371,-670 798.371,4 -4,4"/>
<!-- n5154 -->
<g id="node1" class="node"><title>n5154</title>
<ellipse fill="none" stroke="lightgray" cx="407.035" cy="-576" rx="27" ry="18"/>
<text text-anchor="middle" x="407.035" y="-572.3" font-family="Times New Roman,serif" font-size="14.00" fill="lightgray">wph</text>
</g>
<!-- n5174 -->
<g id="node2" class="node"><title>n5174</title>
<ellipse fill="cyan" stroke="black" cx="582.73" cy="-467" rx="33.2948" ry="18"/>
<text text-anchor="middle" x="582.73" y="-463.3" font-family="Times New Roman,serif" font-size="14.00">impbii</text>
</g>
<!-- n5154&#45;&gt;n5174 -->
<g id="edge1" class="edge"><title>n5154&#45;&gt;n5174</title>
<path fill="none" stroke="lightgray" d="M430.416,-566.488C455.93,-555.181 498.394,-534.933 531.582,-512 541.063,-505.449 550.673,-497.276 558.909,-489.699"/>
<polygon fill="lightgray" stroke="lightgray" points="561.465,-492.099 566.336,-482.69 556.661,-487.009 561.465,-492.099"/>
<text text-anchor="middle" x="493.582" y="-557.8" font-family="Times New Roman,serif" font-size="14.00" fill="lightgray">wff ph</text>
</g>
<!-- n5155 -->
<g id="node3" class="node"><title>n5155</title>
<ellipse fill="none" stroke="lightgray" cx="407.035" cy="-504" rx="27" ry="18"/>
<text text-anchor="middle" x="407.035" y="-500.3" font-family="Times New Roman,serif" font-size="14.00" fill="lightgray">wch</text>
</g>
<!-- n5154&#45;&gt;n5155 -->
<g id="edge34" class="edge"><title>n5154&#45;&gt;n5155</title>
</g>
<!-- QED -->
<g id="node22" class="node"><title>QED</title>
</g>
<!-- n5174&#45;&gt;QED -->
<g id="edge33" class="edge"><title>n5174&#45;&gt;QED</title>
<path fill="none" stroke="black" d="M615.98,-467C646.707,-467 692.99,-467 725.632,-467"/>
<polygon fill="black" stroke="black" points="725.714,-470.5 735.714,-467 725.714,-463.5 725.714,-470.5"/>
<text text-anchor="middle" x="675.877" y="-470.8" font-family="Times New Roman,serif" font-size="14.00">|&#45; ( ph &lt;&#45;&gt; ch )</text>
</g>
<!-- n5155&#45;&gt;n5174 -->
<g id="edge2" class="edge"><title>n5155&#45;&gt;n5174</title>
<path fill="none" stroke="lightgray" d="M432.921,-498.699C461.315,-492.65 508.145,-482.675 541.69,-475.529"/>
<polygon fill="lightgray" stroke="lightgray" points="542.587,-478.917 551.639,-473.41 541.129,-472.07 542.587,-478.917"/>
<text text-anchor="middle" x="493.582" y="-496.8" font-family="Times New Roman,serif" font-size="14.00" fill="lightgray">wff ch</text>
</g>
<!-- n5164 -->
<g id="node5" class="node"><title>n5164</title>
<ellipse fill="cyan" stroke="black" cx="407.035" cy="-432" rx="27.8951" ry="18"/>
<text text-anchor="middle" x="407.035" y="-428.3" font-family="Times New Roman,serif" font-size="14.00">sylib</text>
</g>
<!-- n5155&#45;&gt;n5164 -->
<g id="edge35" class="edge"><title>n5155&#45;&gt;n5164</title>
</g>
<!-- n5156 -->
<g id="node4" class="node"><title>n5156</title>
<ellipse fill="none" stroke="lightgray" cx="220.091" cy="-648" rx="27" ry="18"/>
<text text-anchor="middle" x="220.091" y="-644.3" font-family="Times New Roman,serif" font-size="14.00" fill="lightgray">wph</text>
</g>
<!-- n5156&#45;&gt;n5164 -->
<g id="edge3" class="edge"><title>n5156&#45;&gt;n5164</title>
<path fill="none" stroke="lightgray" d="M245.248,-641.411C276.575,-631.546 330.506,-609.818 358.488,-571 383.362,-536.494 360.509,-516.421 376.488,-477 379.384,-469.854 383.483,-462.641 387.707,-456.145"/>
<polygon fill="lightgray" stroke="lightgray" points="390.66,-458.028 393.445,-447.806 384.893,-454.06 390.66,-458.028"/>
<text text-anchor="middle" x="316.488" y="-632.8" font-family="Times New Roman,serif" font-size="14.00" fill="lightgray">wff ph</text>
</g>
<!-- n5157 -->
<g id="node6" class="node"><title>n5157</title>
<ellipse fill="none" stroke="lightgray" cx="220.091" cy="-576" rx="27" ry="18"/>
<text text-anchor="middle" x="220.091" y="-572.3" font-family="Times New Roman,serif" font-size="14.00" fill="lightgray">wps</text>
</g>
<!-- n5156&#45;&gt;n5157 -->
<g id="edge14" class="edge"><title>n5156&#45;&gt;n5157</title>
</g>
<!-- n5164&#45;&gt;n5174 -->
<g id="edge13" class="edge"><title>n5164&#45;&gt;n5174</title>
<path fill="none" stroke="black" d="M434.039,-437.24C462.513,-442.978 508.524,-452.249 541.627,-458.919"/>
<polygon fill="black" stroke="black" points="540.958,-462.355 551.453,-460.899 542.341,-455.493 540.958,-462.355"/>
<text text-anchor="middle" x="493.582" y="-459.8" font-family="Times New Roman,serif" font-size="14.00">|&#45; ( ph &#45;&gt; ch )</text>
</g>
<!-- n5173 -->
<g id="node14" class="node"><title>n5173</title>
<ellipse fill="cyan" stroke="black" cx="407.035" cy="-234" rx="30.5947" ry="18"/>
<text text-anchor="middle" x="407.035" y="-230.3" font-family="Times New Roman,serif" font-size="14.00">sylibr</text>
</g>
<!-- n5164&#45;&gt;n5173 -->
<g id="edge36" class="edge"><title>n5164&#45;&gt;n5173</title>
</g>
<!-- n5157&#45;&gt;n5164 -->
<g id="edge4" class="edge"><title>n5157&#45;&gt;n5164</title>
<path fill="none" stroke="lightgray" d="M244.041,-567.387C273.096,-555.662 323.565,-532.477 358.488,-501 362.458,-497.422 377.538,-475.215 389.664,-456.946"/>
<polygon fill="lightgray" stroke="lightgray" points="392.724,-458.664 395.318,-448.392 386.884,-454.804 392.724,-458.664"/>
<text text-anchor="middle" x="316.488" y="-555.8" font-family="Times New Roman,serif" font-size="14.00" fill="lightgray">wff ps</text>
</g>
<!-- n5158 -->
<g id="node7" class="node"><title>n5158</title>
<ellipse fill="none" stroke="lightgray" cx="220.091" cy="-504" rx="27" ry="18"/>
<text text-anchor="middle" x="220.091" y="-500.3" font-family="Times New Roman,serif" font-size="14.00" fill="lightgray">wch</text>
</g>
<!-- n5157&#45;&gt;n5158 -->
<g id="edge15" class="edge"><title>n5157&#45;&gt;n5158</title>
</g>
<!-- n5158&#45;&gt;n5164 -->
<g id="edge5" class="edge"><title>n5158&#45;&gt;n5164</title>
<path fill="none" stroke="lightgray" d="M243.976,-495.269C271.273,-484.831 318.269,-466.792 358.488,-451 363.328,-449.099 368.44,-447.075 373.445,-445.083"/>
<polygon fill="lightgray" stroke="lightgray" points="374.851,-448.291 382.841,-441.333 372.256,-441.789 374.851,-448.291"/>
<text text-anchor="middle" x="316.488" y="-485.8" font-family="Times New Roman,serif" font-size="14.00" fill="lightgray">wff ch</text>
</g>
<!-- n5162 -->
<g id="node9" class="node"><title>n5162</title>
<ellipse fill="cyan" stroke="black" cx="220.091" cy="-432" rx="33.2948" ry="18"/>
<text text-anchor="middle" x="220.091" y="-428.3" font-family="Times New Roman,serif" font-size="14.00">biimpi</text>
</g>
<!-- n5158&#45;&gt;n5162 -->
<g id="edge16" class="edge"><title>n5158&#45;&gt;n5162</title>
</g>
<!-- n5159 -->
<g id="node8" class="node"><title>n5159</title>
<ellipse fill="none" stroke="lightgray" cx="31.8472" cy="-504" rx="27" ry="18"/>
<text text-anchor="middle" x="31.8472" y="-500.3" font-family="Times New Roman,serif" font-size="14.00" fill="lightgray">wph</text>
</g>
<!-- n5159&#45;&gt;n5162 -->
<g id="edge6" class="edge"><title>n5159&#45;&gt;n5162</title>
<path fill="none" stroke="lightgray" d="M55.6843,-495.171C87.4274,-482.9 145.22,-460.558 182.877,-446"/>
<polygon fill="lightgray" stroke="lightgray" points="184.391,-449.167 192.456,-442.297 181.867,-442.638 184.391,-449.167"/>
<text text-anchor="middle" x="123.694" y="-487.8" font-family="Times New Roman,serif" font-size="14.00" fill="lightgray">wff ph</text>
</g>
<!-- n5160 -->
<g id="node10" class="node"><title>n5160</title>
<ellipse fill="none" stroke="lightgray" cx="31.8472" cy="-432" rx="27" ry="18"/>
<text text-anchor="middle" x="31.8472" y="-428.3" font-family="Times New Roman,serif" font-size="14.00" fill="lightgray">wps</text>
</g>
<!-- n5159&#45;&gt;n5160 -->
<g id="edge10" class="edge"><title>n5159&#45;&gt;n5160</title>
</g>
<!-- n5162&#45;&gt;n5164 -->
<g id="edge9" class="edge"><title>n5162&#45;&gt;n5164</title>
<path fill="none" stroke="black" d="M253.306,-432C285.43,-432 334.739,-432 368.589,-432"/>
<polygon fill="black" stroke="black" points="368.994,-435.5 378.994,-432 368.994,-428.5 368.994,-435.5"/>
<text text-anchor="middle" x="316.488" y="-435.8" font-family="Times New Roman,serif" font-size="14.00">|&#45; ( ph &#45;&gt; ps )</text>
</g>
<!-- n5163 -->
<g id="node12" class="node"><title>n5163</title>
<ellipse fill="orange" stroke="black" cx="220.091" cy="-360" rx="31.6951" ry="18"/>
<text text-anchor="middle" x="220.091" y="-356.3" font-family="Times New Roman,serif" font-size="14.00">bitri.2</text>
</g>
<!-- n5162&#45;&gt;n5163 -->
<g id="edge17" class="edge"><title>n5162&#45;&gt;n5163</title>
</g>
<!-- n5160&#45;&gt;n5162 -->
<g id="edge7" class="edge"><title>n5160&#45;&gt;n5162</title>
<path fill="none" stroke="lightgray" d="M59.1364,-432C89.6177,-432 140.291,-432 176.433,-432"/>
<polygon fill="lightgray" stroke="lightgray" points="176.678,-435.5 186.678,-432 176.678,-428.5 176.678,-435.5"/>
<text text-anchor="middle" x="123.694" y="-435.8" font-family="Times New Roman,serif" font-size="14.00" fill="lightgray">wff ps</text>
</g>
<!-- n5161 -->
<g id="node11" class="node"><title>n5161</title>
<ellipse fill="orange" stroke="black" cx="31.8472" cy="-360" rx="31.6951" ry="18"/>
<text text-anchor="middle" x="31.8472" y="-356.3" font-family="Times New Roman,serif" font-size="14.00">bitri.1</text>
</g>
<!-- n5160&#45;&gt;n5161 -->
<g id="edge11" class="edge"><title>n5160&#45;&gt;n5161</title>
</g>
<!-- n5161&#45;&gt;n5162 -->
<g id="edge8" class="edge"><title>n5161&#45;&gt;n5162</title>
<path fill="none" stroke="black" d="M58.7436,-370.011C90.9941,-382.479 146.279,-403.852 182.757,-417.954"/>
<polygon fill="black" stroke="black" points="181.923,-421.383 192.512,-421.725 184.447,-414.854 181.923,-421.383"/>
<text text-anchor="middle" x="123.694" y="-413.8" font-family="Times New Roman,serif" font-size="14.00">|&#45; ( ph &lt;&#45;&gt; ps )</text>
</g>
<!-- n5163&#45;&gt;n5164 -->
<g id="edge12" class="edge"><title>n5163&#45;&gt;n5164</title>
<path fill="none" stroke="black" d="M246.957,-369.871C274.602,-380.447 319.697,-397.769 358.488,-413 363.328,-414.901 368.44,-416.925 373.445,-418.917"/>
<polygon fill="black" stroke="black" points="372.256,-422.211 382.841,-422.667 374.851,-415.709 372.256,-422.211"/>
<text text-anchor="middle" x="316.488" y="-416.8" font-family="Times New Roman,serif" font-size="14.00">|&#45; ( ps &lt;&#45;&gt; ch )</text>
</g>
<!-- n5165 -->
<g id="node13" class="node"><title>n5165</title>
<ellipse fill="none" stroke="lightgray" cx="220.091" cy="-306" rx="27" ry="18"/>
<text text-anchor="middle" x="220.091" y="-302.3" font-family="Times New Roman,serif" font-size="14.00" fill="lightgray">wch</text>
</g>
<!-- n5165&#45;&gt;n5173 -->
<g id="edge18" class="edge"><title>n5165&#45;&gt;n5173</title>
<path fill="none" stroke="lightgray" d="M243.976,-297.269C271.273,-286.831 318.269,-268.792 358.488,-253 362.793,-251.31 367.313,-249.521 371.781,-247.745"/>
<polygon fill="lightgray" stroke="lightgray" points="373.387,-250.873 381.38,-243.918 370.794,-244.37 373.387,-250.873"/>
<text text-anchor="middle" x="316.488" y="-288.8" font-family="Times New Roman,serif" font-size="14.00" fill="lightgray">wff ch</text>
</g>
<!-- n5166 -->
<g id="node15" class="node"><title>n5166</title>
<ellipse fill="none" stroke="lightgray" cx="220.091" cy="-234" rx="27" ry="18"/>
<text text-anchor="middle" x="220.091" y="-230.3" font-family="Times New Roman,serif" font-size="14.00" fill="lightgray">wps</text>
</g>
<!-- n5165&#45;&gt;n5166 -->
<g id="edge29" class="edge"><title>n5165&#45;&gt;n5166</title>
</g>
<!-- n5173&#45;&gt;n5174 -->
<g id="edge28" class="edge"><title>n5173&#45;&gt;n5174</title>
<path fill="none" stroke="black" d="M420.249,-250.384C450.199,-290.561 527.44,-394.175 563.136,-442.058"/>
<polygon fill="black" stroke="black" points="560.514,-444.397 569.297,-450.322 566.126,-440.213 560.514,-444.397"/>
<text text-anchor="middle" x="493.582" y="-401.8" font-family="Times New Roman,serif" font-size="14.00">|&#45; ( ch &#45;&gt; ph )</text>
</g>
<!-- n5166&#45;&gt;n5173 -->
<g id="edge19" class="edge"><title>n5166&#45;&gt;n5173</title>
<path fill="none" stroke="lightgray" d="M247.197,-234C278.19,-234 330.207,-234 366.229,-234"/>
<polygon fill="lightgray" stroke="lightgray" points="366.393,-237.5 376.393,-234 366.393,-230.5 366.393,-237.5"/>
<text text-anchor="middle" x="316.488" y="-237.8" font-family="Times New Roman,serif" font-size="14.00" fill="lightgray">wff ps</text>
</g>
<!-- n5167 -->
<g id="node16" class="node"><title>n5167</title>
<ellipse fill="none" stroke="lightgray" cx="220.091" cy="-162" rx="27" ry="18"/>
<text text-anchor="middle" x="220.091" y="-158.3" font-family="Times New Roman,serif" font-size="14.00" fill="lightgray">wph</text>
</g>
<!-- n5166&#45;&gt;n5167 -->
<g id="edge30" class="edge"><title>n5166&#45;&gt;n5167</title>
</g>
<!-- n5167&#45;&gt;n5173 -->
<g id="edge20" class="edge"><title>n5167&#45;&gt;n5173</title>
<path fill="none" stroke="lightgray" d="M243.976,-170.731C271.273,-181.169 318.269,-199.208 358.488,-215 362.793,-216.69 367.313,-218.479 371.781,-220.255"/>
<polygon fill="lightgray" stroke="lightgray" points="370.794,-223.63 381.38,-224.082 373.387,-217.127 370.794,-223.63"/>
<text text-anchor="middle" x="316.488" y="-218.8" font-family="Times New Roman,serif" font-size="14.00" fill="lightgray">wff ph</text>
</g>
<!-- n5171 -->
<g id="node18" class="node"><title>n5171</title>
<ellipse fill="cyan" stroke="black" cx="220.091" cy="-90" rx="36.2938" ry="18"/>
<text text-anchor="middle" x="220.091" y="-86.3" font-family="Times New Roman,serif" font-size="14.00">biimpri</text>
</g>
<!-- n5167&#45;&gt;n5171 -->
<g id="edge31" class="edge"><title>n5167&#45;&gt;n5171</title>
</g>
<!-- n5168 -->
<g id="node17" class="node"><title>n5168</title>
<ellipse fill="none" stroke="lightgray" cx="31.8472" cy="-162" rx="27" ry="18"/>
<text text-anchor="middle" x="31.8472" y="-158.3" font-family="Times New Roman,serif" font-size="14.00" fill="lightgray">wps</text>
</g>
<!-- n5168&#45;&gt;n5171 -->
<g id="edge21" class="edge"><title>n5168&#45;&gt;n5171</title>
<path fill="none" stroke="lightgray" d="M55.6843,-153.171C86.9815,-141.072 143.602,-119.183 181.278,-104.618"/>
<polygon fill="lightgray" stroke="lightgray" points="182.828,-107.771 190.893,-100.901 180.304,-101.242 182.828,-107.771"/>
<text text-anchor="middle" x="123.694" y="-146.8" font-family="Times New Roman,serif" font-size="14.00" fill="lightgray">wff ps</text>
</g>
<!-- n5169 -->
<g id="node19" class="node"><title>n5169</title>
<ellipse fill="none" stroke="lightgray" cx="31.8472" cy="-90" rx="27" ry="18"/>
<text text-anchor="middle" x="31.8472" y="-86.3" font-family="Times New Roman,serif" font-size="14.00" fill="lightgray">wch</text>
</g>
<!-- n5168&#45;&gt;n5169 -->
<g id="edge25" class="edge"><title>n5168&#45;&gt;n5169</title>
</g>
<!-- n5171&#45;&gt;n5173 -->
<g id="edge24" class="edge"><title>n5171&#45;&gt;n5173</title>
<path fill="none" stroke="black" d="M249.287,-100.761C278.879,-113.046 325.584,-135.343 358.488,-165 372.051,-177.224 383.743,-194.047 392.139,-208.021"/>
<polygon fill="black" stroke="black" points="389.131,-209.811 397.167,-216.716 395.191,-206.307 389.131,-209.811"/>
<text text-anchor="middle" x="316.488" y="-168.8" font-family="Times New Roman,serif" font-size="14.00">|&#45; ( ch &#45;&gt; ps )</text>
</g>
<!-- n5172 -->
<g id="node21" class="node"><title>n5172</title>
<ellipse fill="orange" stroke="black" cx="220.091" cy="-18" rx="31.6951" ry="18"/>
<text text-anchor="middle" x="220.091" y="-14.3" font-family="Times New Roman,serif" font-size="14.00">bitri.1</text>
</g>
<!-- n5171&#45;&gt;n5172 -->
<g id="edge32" class="edge"><title>n5171&#45;&gt;n5172</title>
</g>
<!-- n5169&#45;&gt;n5171 -->
<g id="edge22" class="edge"><title>n5169&#45;&gt;n5171</title>
<path fill="none" stroke="lightgray" d="M59.1364,-90C88.7051,-90 137.275,-90 173.149,-90"/>
<polygon fill="lightgray" stroke="lightgray" points="173.371,-93.5001 183.371,-90 173.371,-86.5001 173.371,-93.5001"/>
<text text-anchor="middle" x="123.694" y="-93.8" font-family="Times New Roman,serif" font-size="14.00" fill="lightgray">wff ch</text>
</g>
<!-- n5170 -->
<g id="node20" class="node"><title>n5170</title>
<ellipse fill="orange" stroke="black" cx="31.8472" cy="-18" rx="31.6951" ry="18"/>
<text text-anchor="middle" x="31.8472" y="-14.3" font-family="Times New Roman,serif" font-size="14.00">bitri.2</text>
</g>
<!-- n5169&#45;&gt;n5170 -->
<g id="edge26" class="edge"><title>n5169&#45;&gt;n5170</title>
</g>
<!-- n5170&#45;&gt;n5171 -->
<g id="edge23" class="edge"><title>n5170&#45;&gt;n5171</title>
<path fill="none" stroke="black" d="M58.7436,-28.0113C90.5373,-40.3024 144.717,-61.2479 181.196,-75.35"/>
<polygon fill="black" stroke="black" points="180.392,-78.7918 190.982,-79.1332 182.916,-72.2627 180.392,-78.7918"/>
<text text-anchor="middle" x="123.694" y="-72.8" font-family="Times New Roman,serif" font-size="14.00">|&#45; ( ps &lt;&#45;&gt; ch )</text>
</g>
<!-- n5172&#45;&gt;n5173 -->
<g id="edge27" class="edge"><title>n5172&#45;&gt;n5173</title>
<path fill="none" stroke="black" d="M248.21,-26.5309C279.096,-37.5776 329.077,-59.7109 358.488,-95 385.364,-127.248 397.335,-175.488 402.458,-205.826"/>
<polygon fill="black" stroke="black" points="399.006,-206.409 403.997,-215.754 405.924,-205.336 399.006,-206.409"/>
<text text-anchor="middle" x="316.488" y="-98.8" font-family="Times New Roman,serif" font-size="14.00">|&#45; ( ph &lt;&#45;&gt; ps )</text>
</g>
</g>
</svg>
