<?xml version="1.0" encoding="UTF-8" standalone="no"?>
<!DOCTYPE svg PUBLIC "-//W3C//DTD SVG 1.1//EN"
 "http://www.w3.org/Graphics/SVG/1.1/DTD/svg11.dtd">
<!-- Generated by graphviz version 2.38.0 (20140413.2041)
 -->
<!-- Title: proof_com35 Pages: 1 -->
<svg width="1689pt" height="926pt"
 viewBox="0.00 0.00 1688.67 926.00" xmlns="http://www.w3.org/2000/svg" xmlns:xlink="http://www.w3.org/1999/xlink">
<g id="graph0" class="graph" transform="scale(1 1) rotate(0) translate(4 922)">
<title>proof_com35</title>
<polygon fill="white" stroke="none" points="-4,4 -4,-922 1684.67,-922 1684.67,4 -4,4"/>
<!-- n961 -->
<g id="node1" class="node"><title>n961</title>
<ellipse fill="none" stroke="lightgray" cx="910.934" cy="-897" rx="27" ry="18"/>
<text text-anchor="middle" x="910.934" y="-893.3" font-family="Times New Roman,serif" font-size="14.00" fill="lightgray">wph</text>
</g>
<!-- n984 -->
<g id="node2" class="node"><title>n984</title>
<ellipse fill="cyan" stroke="black" cx="1284.43" cy="-716" rx="35.9954" ry="18"/>
<text text-anchor="middle" x="1284.43" y="-712.3" font-family="Times New Roman,serif" font-size="14.00">com34</text>
</g>
<!-- n961&#45;&gt;n984 -->
<g id="edge1" class="edge"><title>n961&#45;&gt;n984</title>
<path fill="none" stroke="lightgray" d="M937.529,-900.325C996.262,-906.486 1142.43,-913.275 1230.68,-843 1261.29,-818.628 1274.32,-773.417 1279.74,-744.034"/>
<polygon fill="lightgray" stroke="lightgray" points="1283.22,-744.432 1281.41,-733.993 1276.32,-743.283 1283.22,-744.432"/>
<text text-anchor="middle" x="1097.68" y="-906.8" font-family="Times New Roman,serif" font-size="14.00" fill="lightgray">wff ph</text>
</g>
<!-- n962 -->
<g id="node3" class="node"><title>n962</title>
<ellipse fill="none" stroke="lightgray" cx="910.934" cy="-825" rx="27" ry="18"/>
<text text-anchor="middle" x="910.934" y="-821.3" font-family="Times New Roman,serif" font-size="14.00" fill="lightgray">wps</text>
</g>
<!-- n961&#45;&gt;n962 -->
<g id="edge38" class="edge"><title>n961&#45;&gt;n962</title>
</g>
<!-- QED -->
<g id="node25" class="node"><title>QED</title>
</g>
<!-- n984&#45;&gt;QED -->
<g id="edge37" class="edge"><title>n984&#45;&gt;QED</title>
<path fill="none" stroke="black" d="M1320.42,-716C1388.82,-716 1539.77,-716 1611.33,-716"/>
<polygon fill="black" stroke="black" points="1611.7,-719.5 1621.7,-716 1611.7,-712.5 1611.7,-719.5"/>
<text text-anchor="middle" x="1471.17" y="-719.8" font-family="Times New Roman,serif" font-size="14.00">|&#45; ( ph &#45;&gt; ( ps &#45;&gt; ( ta &#45;&gt; ( th &#45;&gt; ( ch &#45;&gt; et ) ) ) ) )</text>
</g>
<!-- n962&#45;&gt;n984 -->
<g id="edge2" class="edge"><title>n962&#45;&gt;n984</title>
<path fill="none" stroke="lightgray" d="M938.347,-825.25C995.111,-824.743 1131.6,-817.862 1230.68,-767 1243.2,-760.574 1254.74,-750.197 1263.81,-740.476"/>
<polygon fill="lightgray" stroke="lightgray" points="1266.5,-742.71 1270.52,-732.908 1261.27,-738.063 1266.5,-742.71"/>
<text text-anchor="middle" x="1097.68" y="-827.8" font-family="Times New Roman,serif" font-size="14.00" fill="lightgray">wff ps</text>
</g>
<!-- n963 -->
<g id="node4" class="node"><title>n963</title>
<ellipse fill="none" stroke="lightgray" cx="910.934" cy="-753" rx="27" ry="18"/>
<text text-anchor="middle" x="910.934" y="-749.3" font-family="Times New Roman,serif" font-size="14.00" fill="lightgray">wth</text>
</g>
<!-- n962&#45;&gt;n963 -->
<g id="edge39" class="edge"><title>n962&#45;&gt;n963</title>
</g>
<!-- n963&#45;&gt;n984 -->
<g id="edge3" class="edge"><title>n963&#45;&gt;n984</title>
<path fill="none" stroke="lightgray" d="M937.978,-750.612C992.378,-745.593 1122.03,-733.462 1230.68,-722 1233.52,-721.701 1236.44,-721.386 1239.38,-721.065"/>
<polygon fill="lightgray" stroke="lightgray" points="1239.83,-724.536 1249.39,-719.955 1239.06,-717.579 1239.83,-724.536"/>
<text text-anchor="middle" x="1097.68" y="-751.8" font-family="Times New Roman,serif" font-size="14.00" fill="lightgray">wff th</text>
</g>
<!-- n964 -->
<g id="node5" class="node"><title>n964</title>
<ellipse fill="none" stroke="lightgray" cx="910.934" cy="-681" rx="27" ry="18"/>
<text text-anchor="middle" x="910.934" y="-677.3" font-family="Times New Roman,serif" font-size="14.00" fill="lightgray">wta</text>
</g>
<!-- n963&#45;&gt;n964 -->
<g id="edge40" class="edge"><title>n963&#45;&gt;n964</title>
</g>
<!-- n964&#45;&gt;n984 -->
<g id="edge4" class="edge"><title>n964&#45;&gt;n984</title>
<path fill="none" stroke="lightgray" d="M938.043,-682.353C992.565,-685.349 1122.43,-693.377 1230.68,-707 1233.91,-707.406 1237.24,-707.869 1240.58,-708.366"/>
<polygon fill="lightgray" stroke="lightgray" points="1240.15,-711.842 1250.57,-709.937 1241.24,-704.926 1240.15,-711.842"/>
<text text-anchor="middle" x="1097.68" y="-710.8" font-family="Times New Roman,serif" font-size="14.00" fill="lightgray">wff ta</text>
</g>
<!-- n967 -->
<g id="node7" class="node"><title>n967</title>
<ellipse fill="none" stroke="lightgray" cx="910.934" cy="-609" rx="27" ry="18"/>
<text text-anchor="middle" x="910.934" y="-605.3" font-family="Times New Roman,serif" font-size="14.00" fill="lightgray">wi</text>
</g>
<!-- n964&#45;&gt;n967 -->
<g id="edge41" class="edge"><title>n964&#45;&gt;n967</title>
</g>
<!-- n965 -->
<g id="node6" class="node"><title>n965</title>
<ellipse fill="none" stroke="lightgray" cx="537.44" cy="-755" rx="27" ry="18"/>
<text text-anchor="middle" x="537.44" y="-751.3" font-family="Times New Roman,serif" font-size="14.00" fill="lightgray">wch</text>
</g>
<!-- n965&#45;&gt;n967 -->
<g id="edge5" class="edge"><title>n965&#45;&gt;n967</title>
<path fill="none" stroke="lightgray" d="M564.308,-757.201C622.978,-760.78 767.963,-761.502 857.187,-692 871.93,-680.516 865.42,-669.932 875.187,-654 879.612,-646.781 884.973,-639.348 890.146,-632.654"/>
<polygon fill="lightgray" stroke="lightgray" points="893.031,-634.649 896.513,-624.642 887.551,-630.294 893.031,-634.649"/>
<text text-anchor="middle" x="724.187" y="-761.8" font-family="Times New Roman,serif" font-size="14.00" fill="lightgray">wff ch</text>
</g>
<!-- n966 -->
<g id="node8" class="node"><title>n966</title>
<ellipse fill="none" stroke="lightgray" cx="537.44" cy="-683" rx="27" ry="18"/>
<text text-anchor="middle" x="537.44" y="-679.3" font-family="Times New Roman,serif" font-size="14.00" fill="lightgray">wet</text>
</g>
<!-- n965&#45;&gt;n966 -->
<g id="edge8" class="edge"><title>n965&#45;&gt;n966</title>
</g>
<!-- n967&#45;&gt;n984 -->
<g id="edge7" class="edge"><title>n967&#45;&gt;n984</title>
<path fill="none" stroke="lightgray" d="M937.945,-608.369C994.5,-608.051 1131.53,-613.064 1230.68,-664 1243.5,-670.584 1255.2,-681.366 1264.31,-691.41"/>
<polygon fill="lightgray" stroke="lightgray" points="1261.85,-693.919 1271.03,-699.213 1267.15,-689.351 1261.85,-693.919"/>
<text text-anchor="middle" x="1097.68" y="-667.8" font-family="Times New Roman,serif" font-size="14.00" fill="lightgray">wff ( ch &#45;&gt; et )</text>
</g>
<!-- n983 -->
<g id="node10" class="node"><title>n983</title>
<ellipse fill="cyan" stroke="black" cx="910.934" cy="-485" rx="35.9954" ry="18"/>
<text text-anchor="middle" x="910.934" y="-481.3" font-family="Times New Roman,serif" font-size="14.00">com45</text>
</g>
<!-- n967&#45;&gt;n983 -->
<g id="edge42" class="edge"><title>n967&#45;&gt;n983</title>
</g>
<!-- n966&#45;&gt;n967 -->
<g id="edge6" class="edge"><title>n966&#45;&gt;n967</title>
<path fill="none" stroke="lightgray" d="M563.738,-678.625C617.791,-669.175 748.482,-645.78 857.187,-622 863.148,-620.696 869.466,-619.221 875.579,-617.744"/>
<polygon fill="lightgray" stroke="lightgray" points="876.698,-621.073 885.574,-615.287 875.027,-614.275 876.698,-621.073"/>
<text text-anchor="middle" x="724.187" y="-676.8" font-family="Times New Roman,serif" font-size="14.00" fill="lightgray">wff et</text>
</g>
<!-- n968 -->
<g id="node9" class="node"><title>n968</title>
<ellipse fill="none" stroke="lightgray" cx="537.44" cy="-629" rx="27" ry="18"/>
<text text-anchor="middle" x="537.44" y="-625.3" font-family="Times New Roman,serif" font-size="14.00" fill="lightgray">wph</text>
</g>
<!-- n968&#45;&gt;n983 -->
<g id="edge9" class="edge"><title>n968&#45;&gt;n983</title>
<path fill="none" stroke="lightgray" d="M558.331,-617.223C567.947,-612.051 579.841,-606.394 591.187,-603 705.317,-568.855 756.855,-634.227 857.187,-570 878.084,-556.623 892.084,-531.705 900.377,-512.293"/>
<polygon fill="lightgray" stroke="lightgray" points="903.627,-513.592 904.098,-503.007 897.13,-510.988 903.627,-513.592"/>
<text text-anchor="middle" x="724.187" y="-606.8" font-family="Times New Roman,serif" font-size="14.00" fill="lightgray">wff ph</text>
</g>
<!-- n969 -->
<g id="node11" class="node"><title>n969</title>
<ellipse fill="none" stroke="lightgray" cx="537.44" cy="-557" rx="27" ry="18"/>
<text text-anchor="middle" x="537.44" y="-553.3" font-family="Times New Roman,serif" font-size="14.00" fill="lightgray">wps</text>
</g>
<!-- n968&#45;&gt;n969 -->
<g id="edge31" class="edge"><title>n968&#45;&gt;n969</title>
</g>
<!-- n983&#45;&gt;n984 -->
<g id="edge30" class="edge"><title>n983&#45;&gt;n984</title>
<path fill="none" stroke="black" d="M946.602,-487.045C1010.72,-492.616 1148.73,-513.224 1230.68,-589 1259.09,-615.273 1272.67,-659.191 1278.81,-687.876"/>
<polygon fill="black" stroke="black" points="1275.38,-688.562 1280.75,-697.694 1282.25,-687.206 1275.38,-688.562"/>
<text text-anchor="middle" x="1097.68" y="-592.8" font-family="Times New Roman,serif" font-size="14.00">|&#45; ( ph &#45;&gt; ( ps &#45;&gt; ( th &#45;&gt; ( ta &#45;&gt; ( ch &#45;&gt; et ) ) ) ) )</text>
</g>
<!-- n969&#45;&gt;n983 -->
<g id="edge10" class="edge"><title>n969&#45;&gt;n983</title>
<path fill="none" stroke="lightgray" d="M564.388,-554.299C619.143,-548.247 750.255,-531.904 857.187,-504 862.237,-502.682 867.486,-501.083 872.629,-499.377"/>
<polygon fill="lightgray" stroke="lightgray" points="874.011,-502.603 882.308,-496.014 871.713,-495.99 874.011,-502.603"/>
<text text-anchor="middle" x="724.187" y="-554.8" font-family="Times New Roman,serif" font-size="14.00" fill="lightgray">wff ps</text>
</g>
<!-- n970 -->
<g id="node12" class="node"><title>n970</title>
<ellipse fill="none" stroke="lightgray" cx="537.44" cy="-485" rx="27" ry="18"/>
<text text-anchor="middle" x="537.44" y="-481.3" font-family="Times New Roman,serif" font-size="14.00" fill="lightgray">wth</text>
</g>
<!-- n969&#45;&gt;n970 -->
<g id="edge32" class="edge"><title>n969&#45;&gt;n970</title>
</g>
<!-- n970&#45;&gt;n983 -->
<g id="edge11" class="edge"><title>n970&#45;&gt;n983</title>
<path fill="none" stroke="lightgray" d="M564.563,-485C627.233,-485 786.716,-485 865.085,-485"/>
<polygon fill="lightgray" stroke="lightgray" points="865.134,-488.5 875.134,-485 865.134,-481.5 865.134,-488.5"/>
<text text-anchor="middle" x="724.187" y="-488.8" font-family="Times New Roman,serif" font-size="14.00" fill="lightgray">wff th</text>
</g>
<!-- n971 -->
<g id="node13" class="node"><title>n971</title>
<ellipse fill="none" stroke="lightgray" cx="537.44" cy="-413" rx="27" ry="18"/>
<text text-anchor="middle" x="537.44" y="-409.3" font-family="Times New Roman,serif" font-size="14.00" fill="lightgray">wch</text>
</g>
<!-- n970&#45;&gt;n971 -->
<g id="edge33" class="edge"><title>n970&#45;&gt;n971</title>
</g>
<!-- n971&#45;&gt;n983 -->
<g id="edge12" class="edge"><title>n971&#45;&gt;n983</title>
<path fill="none" stroke="lightgray" d="M564.388,-415.701C619.143,-421.753 750.255,-438.096 857.187,-466 862.237,-467.318 867.486,-468.917 872.629,-470.623"/>
<polygon fill="lightgray" stroke="lightgray" points="871.713,-474.01 882.308,-473.986 874.011,-467.397 871.713,-474.01"/>
<text text-anchor="middle" x="724.187" y="-469.8" font-family="Times New Roman,serif" font-size="14.00" fill="lightgray">wff ch</text>
</g>
<!-- n972 -->
<g id="node14" class="node"><title>n972</title>
<ellipse fill="none" stroke="lightgray" cx="537.44" cy="-341" rx="27" ry="18"/>
<text text-anchor="middle" x="537.44" y="-337.3" font-family="Times New Roman,serif" font-size="14.00" fill="lightgray">wta</text>
</g>
<!-- n971&#45;&gt;n972 -->
<g id="edge34" class="edge"><title>n971&#45;&gt;n972</title>
</g>
<!-- n972&#45;&gt;n983 -->
<g id="edge13" class="edge"><title>n972&#45;&gt;n983</title>
<path fill="none" stroke="lightgray" d="M564.634,-338.966C622.74,-335.796 764.594,-335.611 857.187,-399 877.835,-413.135 891.864,-438.277 900.232,-457.738"/>
<polygon fill="lightgray" stroke="lightgray" points="896.998,-459.078 903.992,-467.036 903.487,-456.453 896.998,-459.078"/>
<text text-anchor="middle" x="724.187" y="-402.8" font-family="Times New Roman,serif" font-size="14.00" fill="lightgray">wff ta</text>
</g>
<!-- n973 -->
<g id="node15" class="node"><title>n973</title>
<ellipse fill="none" stroke="lightgray" cx="537.44" cy="-269" rx="27" ry="18"/>
<text text-anchor="middle" x="537.44" y="-265.3" font-family="Times New Roman,serif" font-size="14.00" fill="lightgray">wet</text>
</g>
<!-- n972&#45;&gt;n973 -->
<g id="edge35" class="edge"><title>n972&#45;&gt;n973</title>
</g>
<!-- n973&#45;&gt;n983 -->
<g id="edge14" class="edge"><title>n973&#45;&gt;n983</title>
<path fill="none" stroke="lightgray" d="M563.984,-264.837C623.245,-256.72 771.544,-245.482 857.187,-319 897.596,-353.688 907.37,-419.213 909.535,-456.729"/>
<polygon fill="lightgray" stroke="lightgray" points="906.049,-457.123 909.976,-466.963 913.042,-456.822 906.049,-457.123"/>
<text text-anchor="middle" x="724.187" y="-322.8" font-family="Times New Roman,serif" font-size="14.00" fill="lightgray">wff et</text>
</g>
<!-- n982 -->
<g id="node17" class="node"><title>n982</title>
<ellipse fill="cyan" stroke="black" cx="537.44" cy="-197" rx="35.9954" ry="18"/>
<text text-anchor="middle" x="537.44" y="-193.3" font-family="Times New Roman,serif" font-size="14.00">com34</text>
</g>
<!-- n973&#45;&gt;n982 -->
<g id="edge36" class="edge"><title>n973&#45;&gt;n982</title>
</g>
<!-- n974 -->
<g id="node16" class="node"><title>n974</title>
<ellipse fill="none" stroke="lightgray" cx="161.347" cy="-378" rx="27" ry="18"/>
<text text-anchor="middle" x="161.347" y="-374.3" font-family="Times New Roman,serif" font-size="14.00" fill="lightgray">wph</text>
</g>
<!-- n974&#45;&gt;n982 -->
<g id="edge15" class="edge"><title>n974&#45;&gt;n982</title>
<path fill="none" stroke="lightgray" d="M187.714,-382.362C247.948,-391.144 400.727,-403.91 483.693,-325 511.044,-298.986 485.768,-276.222 501.693,-242 505.014,-234.863 509.638,-227.806 514.431,-221.471"/>
<polygon fill="lightgray" stroke="lightgray" points="517.429,-223.328 520.965,-213.341 511.972,-218.943 517.429,-223.328"/>
<text text-anchor="middle" x="350.693" y="-391.8" font-family="Times New Roman,serif" font-size="14.00" fill="lightgray">wff ph</text>
</g>
<!-- n975 -->
<g id="node18" class="node"><title>n975</title>
<ellipse fill="none" stroke="lightgray" cx="161.347" cy="-306" rx="27" ry="18"/>
<text text-anchor="middle" x="161.347" y="-302.3" font-family="Times New Roman,serif" font-size="14.00" fill="lightgray">wps</text>
</g>
<!-- n974&#45;&gt;n975 -->
<g id="edge25" class="edge"><title>n974&#45;&gt;n975</title>
</g>
<!-- n982&#45;&gt;n983 -->
<g id="edge24" class="edge"><title>n982&#45;&gt;n983</title>
<path fill="none" stroke="black" d="M570.984,-190.484C634.884,-179.746 777.455,-166.254 857.187,-240 888.62,-269.073 902.898,-398.255 907.82,-456.432"/>
<polygon fill="black" stroke="black" points="904.359,-457.065 908.657,-466.75 911.337,-456.499 904.359,-457.065"/>
<text text-anchor="middle" x="724.187" y="-243.8" font-family="Times New Roman,serif" font-size="14.00">|&#45; ( ph &#45;&gt; ( ps &#45;&gt; ( th &#45;&gt; ( ch &#45;&gt; ( ta &#45;&gt; et ) ) ) ) )</text>
</g>
<!-- n975&#45;&gt;n982 -->
<g id="edge16" class="edge"><title>n975&#45;&gt;n982</title>
<path fill="none" stroke="lightgray" d="M188.542,-306.304C245.502,-305.926 383.546,-299.321 483.693,-248 496.216,-241.583 507.753,-231.207 516.823,-221.484"/>
<polygon fill="lightgray" stroke="lightgray" points="519.521,-223.718 523.54,-213.915 514.285,-219.072 519.521,-223.718"/>
<text text-anchor="middle" x="350.693" y="-309.8" font-family="Times New Roman,serif" font-size="14.00" fill="lightgray">wff ps</text>
</g>
<!-- n976 -->
<g id="node19" class="node"><title>n976</title>
<ellipse fill="none" stroke="lightgray" cx="161.347" cy="-234" rx="27" ry="18"/>
<text text-anchor="middle" x="161.347" y="-230.3" font-family="Times New Roman,serif" font-size="14.00" fill="lightgray">wch</text>
</g>
<!-- n975&#45;&gt;n976 -->
<g id="edge26" class="edge"><title>n975&#45;&gt;n976</title>
</g>
<!-- n976&#45;&gt;n982 -->
<g id="edge17" class="edge"><title>n976&#45;&gt;n982</title>
<path fill="none" stroke="lightgray" d="M188.187,-231.658C242.783,-226.677 373.883,-214.541 483.693,-203 486.529,-202.702 489.45,-202.388 492.393,-202.067"/>
<polygon fill="lightgray" stroke="lightgray" points="492.847,-205.539 502.4,-200.959 492.076,-198.581 492.847,-205.539"/>
<text text-anchor="middle" x="350.693" y="-232.8" font-family="Times New Roman,serif" font-size="14.00" fill="lightgray">wff ch</text>
</g>
<!-- n977 -->
<g id="node20" class="node"><title>n977</title>
<ellipse fill="none" stroke="lightgray" cx="161.347" cy="-162" rx="27" ry="18"/>
<text text-anchor="middle" x="161.347" y="-158.3" font-family="Times New Roman,serif" font-size="14.00" fill="lightgray">wth</text>
</g>
<!-- n976&#45;&gt;n977 -->
<g id="edge27" class="edge"><title>n976&#45;&gt;n977</title>
</g>
<!-- n977&#45;&gt;n982 -->
<g id="edge18" class="edge"><title>n977&#45;&gt;n982</title>
<path fill="none" stroke="lightgray" d="M188.669,-163.341C243.636,-166.314 374.565,-174.302 483.693,-188 486.919,-188.405 490.249,-188.867 493.594,-189.364"/>
<polygon fill="lightgray" stroke="lightgray" points="493.164,-192.839 503.586,-190.933 494.25,-185.924 493.164,-192.839"/>
<text text-anchor="middle" x="350.693" y="-191.8" font-family="Times New Roman,serif" font-size="14.00" fill="lightgray">wff th</text>
</g>
<!-- n980 -->
<g id="node22" class="node"><title>n980</title>
<ellipse fill="none" stroke="lightgray" cx="161.347" cy="-90" rx="27" ry="18"/>
<text text-anchor="middle" x="161.347" y="-86.3" font-family="Times New Roman,serif" font-size="14.00" fill="lightgray">wi</text>
</g>
<!-- n977&#45;&gt;n980 -->
<g id="edge28" class="edge"><title>n977&#45;&gt;n980</title>
</g>
<!-- n978 -->
<g id="node21" class="node"><title>n978</title>
<ellipse fill="none" stroke="lightgray" cx="27" cy="-135" rx="27" ry="18"/>
<text text-anchor="middle" x="27" y="-131.3" font-family="Times New Roman,serif" font-size="14.00" fill="lightgray">wta</text>
</g>
<!-- n978&#45;&gt;n980 -->
<g id="edge19" class="edge"><title>n978&#45;&gt;n980</title>
<path fill="none" stroke="lightgray" d="M51.3563,-127.058C72.394,-119.905 103.55,-109.312 127.169,-101.281"/>
<polygon fill="lightgray" stroke="lightgray" points="128.438,-104.546 136.779,-98.0135 126.184,-97.919 128.438,-104.546"/>
<text text-anchor="middle" x="88.5" y="-123.8" font-family="Times New Roman,serif" font-size="14.00" fill="lightgray">wff ta</text>
</g>
<!-- n979 -->
<g id="node23" class="node"><title>n979</title>
<ellipse fill="none" stroke="lightgray" cx="27" cy="-63" rx="27" ry="18"/>
<text text-anchor="middle" x="27" y="-59.3" font-family="Times New Roman,serif" font-size="14.00" fill="lightgray">wet</text>
</g>
<!-- n978&#45;&gt;n979 -->
<g id="edge22" class="edge"><title>n978&#45;&gt;n979</title>
</g>
<!-- n980&#45;&gt;n982 -->
<g id="edge21" class="edge"><title>n980&#45;&gt;n982</title>
<path fill="none" stroke="lightgray" d="M188.501,-89.6698C245.378,-89.9785 383.271,-96.3535 483.693,-147 496.139,-153.277 507.665,-163.447 516.748,-172.981"/>
<polygon fill="lightgray" stroke="lightgray" points="514.17,-175.348 523.48,-180.405 519.355,-170.646 514.17,-175.348"/>
<text text-anchor="middle" x="350.693" y="-150.8" font-family="Times New Roman,serif" font-size="14.00" fill="lightgray">wff ( ta &#45;&gt; et )</text>
</g>
<!-- n981 -->
<g id="node24" class="node"><title>n981</title>
<ellipse fill="orange" stroke="black" cx="161.347" cy="-18" rx="38.1938" ry="18"/>
<text text-anchor="middle" x="161.347" y="-14.3" font-family="Times New Roman,serif" font-size="14.00">com5.1</text>
</g>
<!-- n980&#45;&gt;n981 -->
<g id="edge29" class="edge"><title>n980&#45;&gt;n981</title>
</g>
<!-- n979&#45;&gt;n980 -->
<g id="edge20" class="edge"><title>n979&#45;&gt;n980</title>
<path fill="none" stroke="lightgray" d="M53.2049,-68.142C73.6267,-72.3083 102.631,-78.2254 125.313,-82.8527"/>
<polygon fill="lightgray" stroke="lightgray" points="124.738,-86.3075 135.236,-84.8771 126.137,-79.4487 124.738,-86.3075"/>
<text text-anchor="middle" x="88.5" y="-82.8" font-family="Times New Roman,serif" font-size="14.00" fill="lightgray">wff et</text>
</g>
<!-- n981&#45;&gt;n982 -->
<g id="edge23" class="edge"><title>n981&#45;&gt;n982</title>
<path fill="none" stroke="black" d="M198.597,-13.6245C263.206,-7.88188 399.376,-5.33792 483.693,-72 513.808,-95.8092 526.957,-139.968 532.537,-168.915"/>
<polygon fill="black" stroke="black" points="529.099,-169.577 534.267,-178.825 535.995,-168.372 529.099,-169.577"/>
<text text-anchor="middle" x="350.693" y="-75.8" font-family="Times New Roman,serif" font-size="14.00">|&#45; ( ph &#45;&gt; ( ps &#45;&gt; ( ch &#45;&gt; ( th &#45;&gt; ( ta &#45;&gt; et ) ) ) ) )</text>
</g>
</g>
</svg>
