<?xml version="1.0" encoding="UTF-8" standalone="no"?>
<!DOCTYPE svg PUBLIC "-//W3C//DTD SVG 1.1//EN"
 "http://www.w3.org/Graphics/SVG/1.1/DTD/svg11.dtd">
<!-- Generated by graphviz version 2.38.0 (20140413.2041)
 -->
<!-- Title: proof_con3and Pages: 1 -->
<svg width="811pt" height="433pt"
 viewBox="0.00 0.00 810.58 433.00" xmlns="http://www.w3.org/2000/svg" xmlns:xlink="http://www.w3.org/1999/xlink">
<g id="graph0" class="graph" transform="scale(1 1) rotate(0) translate(4 429)">
<title>proof_con3and</title>
<polygon fill="white" stroke="none" points="-4,4 -4,-429 806.58,-429 806.58,4 -4,4"/>
<!-- n7907 -->
<g id="node1" class="node"><title>n7907</title>
<ellipse fill="none" stroke="lightgray" cx="293.288" cy="-407" rx="27" ry="18"/>
<text text-anchor="middle" x="293.288" y="-403.3" font-family="Times New Roman,serif" font-size="14.00" fill="lightgray">wph</text>
</g>
<!-- n7917 -->
<g id="node2" class="node"><title>n7917</title>
<ellipse fill="cyan" stroke="black" cx="540.085" cy="-298" rx="27" ry="18"/>
<text text-anchor="middle" x="540.085" y="-294.3" font-family="Times New Roman,serif" font-size="14.00">imp</text>
</g>
<!-- n7907&#45;&gt;n7917 -->
<g id="edge1" class="edge"><title>n7907&#45;&gt;n7917</title>
<path fill="none" stroke="lightgray" d="M319.868,-403.664C359.871,-397.517 438.509,-381.62 495.085,-346 504.945,-339.793 513.997,-330.803 521.294,-322.279"/>
<polygon fill="lightgray" stroke="lightgray" points="524.141,-324.325 527.722,-314.353 518.704,-319.916 524.141,-324.325"/>
<text text-anchor="middle" x="420.085" y="-402.8" font-family="Times New Roman,serif" font-size="14.00" fill="lightgray">wff ph</text>
</g>
<!-- n7909 -->
<g id="node4" class="node"><title>n7909</title>
<ellipse fill="none" stroke="lightgray" cx="293.288" cy="-335" rx="27" ry="18"/>
<text text-anchor="middle" x="293.288" y="-331.3" font-family="Times New Roman,serif" font-size="14.00" fill="lightgray">wn</text>
</g>
<!-- n7907&#45;&gt;n7909 -->
<g id="edge15" class="edge"><title>n7907&#45;&gt;n7909</title>
</g>
<!-- QED -->
<g id="node12" class="node"><title>QED</title>
</g>
<!-- n7917&#45;&gt;QED -->
<g id="edge14" class="edge"><title>n7917&#45;&gt;QED</title>
<path fill="none" stroke="black" d="M567.163,-298C607.794,-298 686.438,-298 733.678,-298"/>
<polygon fill="black" stroke="black" points="733.827,-301.5 743.827,-298 733.827,-294.5 733.827,-301.5"/>
<text text-anchor="middle" x="655.585" y="-301.8" font-family="Times New Roman,serif" font-size="14.00">|&#45; ( ( ph / &#45;. ch ) &#45;&gt; &#45;. ps )</text>
</g>
<!-- n7908 -->
<g id="node3" class="node"><title>n7908</title>
<ellipse fill="none" stroke="lightgray" cx="48.7457" cy="-342" rx="27" ry="18"/>
<text text-anchor="middle" x="48.7457" y="-338.3" font-family="Times New Roman,serif" font-size="14.00" fill="lightgray">wch</text>
</g>
<!-- n7908&#45;&gt;n7909 -->
<g id="edge2" class="edge"><title>n7908&#45;&gt;n7909</title>
<path fill="none" stroke="lightgray" d="M76.1637,-341.238C119.744,-339.98 206.773,-337.468 256.062,-336.046"/>
<polygon fill="lightgray" stroke="lightgray" points="256.375,-339.538 266.27,-335.751 256.173,-332.541 256.375,-339.538"/>
<text text-anchor="middle" x="178.491" y="-342.8" font-family="Times New Roman,serif" font-size="14.00" fill="lightgray">wff ch</text>
</g>
<!-- n7909&#45;&gt;n7917 -->
<g id="edge3" class="edge"><title>n7909&#45;&gt;n7917</title>
<path fill="none" stroke="lightgray" d="M320.023,-331.11C364.031,-324.459 453.811,-310.889 503.688,-303.35"/>
<polygon fill="lightgray" stroke="lightgray" points="504.331,-306.793 513.695,-301.838 503.284,-299.871 504.331,-306.793"/>
<text text-anchor="middle" x="420.085" y="-330.8" font-family="Times New Roman,serif" font-size="14.00" fill="lightgray">wff &#45;. ch</text>
</g>
<!-- n7911 -->
<g id="node6" class="node"><title>n7911</title>
<ellipse fill="none" stroke="lightgray" cx="293.288" cy="-263" rx="27" ry="18"/>
<text text-anchor="middle" x="293.288" y="-259.3" font-family="Times New Roman,serif" font-size="14.00" fill="lightgray">wn</text>
</g>
<!-- n7909&#45;&gt;n7911 -->
<g id="edge16" class="edge"><title>n7909&#45;&gt;n7911</title>
</g>
<!-- n7910 -->
<g id="node5" class="node"><title>n7910</title>
<ellipse fill="none" stroke="lightgray" cx="48.7457" cy="-288" rx="27" ry="18"/>
<text text-anchor="middle" x="48.7457" y="-284.3" font-family="Times New Roman,serif" font-size="14.00" fill="lightgray">wps</text>
</g>
<!-- n7910&#45;&gt;n7911 -->
<g id="edge4" class="edge"><title>n7910&#45;&gt;n7911</title>
<path fill="none" stroke="lightgray" d="M75.702,-285.325C119.193,-280.842 206.868,-271.805 256.29,-266.711"/>
<polygon fill="lightgray" stroke="lightgray" points="256.93,-270.163 266.519,-265.656 256.212,-263.2 256.93,-270.163"/>
<text text-anchor="middle" x="178.491" y="-283.8" font-family="Times New Roman,serif" font-size="14.00" fill="lightgray">wff ps</text>
</g>
<!-- n7911&#45;&gt;n7917 -->
<g id="edge5" class="edge"><title>n7911&#45;&gt;n7917</title>
<path fill="none" stroke="lightgray" d="M320.051,-265.727C358.347,-269.918 432.501,-278.562 495.085,-289 497.969,-289.481 500.953,-290.014 503.944,-290.574"/>
<polygon fill="lightgray" stroke="lightgray" points="503.529,-294.059 514.015,-292.542 504.872,-287.189 503.529,-294.059"/>
<text text-anchor="middle" x="420.085" y="-292.8" font-family="Times New Roman,serif" font-size="14.00" fill="lightgray">wff &#45;. ps</text>
</g>
<!-- n7916 -->
<g id="node8" class="node"><title>n7916</title>
<ellipse fill="cyan" stroke="black" cx="293.288" cy="-177" rx="33.5952" ry="18"/>
<text text-anchor="middle" x="293.288" y="-173.3" font-family="Times New Roman,serif" font-size="14.00">con3d</text>
</g>
<!-- n7911&#45;&gt;n7916 -->
<g id="edge17" class="edge"><title>n7911&#45;&gt;n7916</title>
</g>
<!-- n7912 -->
<g id="node7" class="node"><title>n7912</title>
<ellipse fill="none" stroke="lightgray" cx="48.7457" cy="-234" rx="27" ry="18"/>
<text text-anchor="middle" x="48.7457" y="-230.3" font-family="Times New Roman,serif" font-size="14.00" fill="lightgray">wph</text>
</g>
<!-- n7912&#45;&gt;n7916 -->
<g id="edge6" class="edge"><title>n7912&#45;&gt;n7916</title>
<path fill="none" stroke="lightgray" d="M75.0516,-229.38C111.909,-222.472 182.407,-208.585 241.491,-193 245.665,-191.899 250.006,-190.667 254.315,-189.39"/>
<polygon fill="lightgray" stroke="lightgray" points="255.674,-192.634 264.214,-186.363 253.628,-185.94 255.674,-192.634"/>
<text text-anchor="middle" x="178.491" y="-224.8" font-family="Times New Roman,serif" font-size="14.00" fill="lightgray">wff ph</text>
</g>
<!-- n7913 -->
<g id="node9" class="node"><title>n7913</title>
<ellipse fill="none" stroke="lightgray" cx="48.7457" cy="-162" rx="27" ry="18"/>
<text text-anchor="middle" x="48.7457" y="-158.3" font-family="Times New Roman,serif" font-size="14.00" fill="lightgray">wps</text>
</g>
<!-- n7912&#45;&gt;n7913 -->
<g id="edge11" class="edge"><title>n7912&#45;&gt;n7913</title>
</g>
<!-- n7916&#45;&gt;n7917 -->
<g id="edge10" class="edge"><title>n7916&#45;&gt;n7917</title>
<path fill="none" stroke="black" d="M325.364,-183.127C366.79,-192.363 441.14,-212.748 495.085,-249 504.866,-255.572 513.902,-264.795 521.209,-273.468"/>
<polygon fill="black" stroke="black" points="518.669,-275.895 527.652,-281.511 524.132,-271.518 518.669,-275.895"/>
<text text-anchor="middle" x="420.085" y="-252.8" font-family="Times New Roman,serif" font-size="14.00">|&#45; ( ph &#45;&gt; ( &#45;. ch &#45;&gt; &#45;. ps ) )</text>
</g>
<!-- n7913&#45;&gt;n7916 -->
<g id="edge7" class="edge"><title>n7913&#45;&gt;n7916</title>
<path fill="none" stroke="lightgray" d="M75.702,-163.605C117.231,-166.174 199.046,-171.233 249.374,-174.346"/>
<polygon fill="lightgray" stroke="lightgray" points="249.412,-177.855 259.609,-174.979 249.845,-170.868 249.412,-177.855"/>
<text text-anchor="middle" x="178.491" y="-177.8" font-family="Times New Roman,serif" font-size="14.00" fill="lightgray">wff ps</text>
</g>
<!-- n7914 -->
<g id="node10" class="node"><title>n7914</title>
<ellipse fill="none" stroke="lightgray" cx="48.7457" cy="-90" rx="27" ry="18"/>
<text text-anchor="middle" x="48.7457" y="-86.3" font-family="Times New Roman,serif" font-size="14.00" fill="lightgray">wch</text>
</g>
<!-- n7913&#45;&gt;n7914 -->
<g id="edge12" class="edge"><title>n7913&#45;&gt;n7914</title>
</g>
<!-- n7914&#45;&gt;n7916 -->
<g id="edge8" class="edge"><title>n7914&#45;&gt;n7916</title>
<path fill="none" stroke="lightgray" d="M74.5857,-95.6125C111.756,-104.431 183.665,-123.125 241.491,-148 248.135,-150.858 255.013,-154.37 261.482,-157.951"/>
<polygon fill="lightgray" stroke="lightgray" points="260.175,-161.237 270.591,-163.18 263.66,-155.166 260.175,-161.237"/>
<text text-anchor="middle" x="178.491" y="-151.8" font-family="Times New Roman,serif" font-size="14.00" fill="lightgray">wff ch</text>
</g>
<!-- n7915 -->
<g id="node11" class="node"><title>n7915</title>
<ellipse fill="orange" stroke="black" cx="48.7457" cy="-18" rx="48.9926" ry="18"/>
<text text-anchor="middle" x="48.7457" y="-14.3" font-family="Times New Roman,serif" font-size="14.00">con3and.1</text>
</g>
<!-- n7914&#45;&gt;n7915 -->
<g id="edge13" class="edge"><title>n7914&#45;&gt;n7915</title>
</g>
<!-- n7915&#45;&gt;n7916 -->
<g id="edge9" class="edge"><title>n7915&#45;&gt;n7916</title>
<path fill="none" stroke="black" d="M93.6862,-25.3451C135.634,-34.2596 198.628,-52.8269 241.491,-89 260.663,-105.18 274.21,-130.539 282.466,-149.887"/>
<polygon fill="black" stroke="black" points="279.309,-151.417 286.302,-159.376 285.799,-148.793 279.309,-151.417"/>
<text text-anchor="middle" x="178.491" y="-92.8" font-family="Times New Roman,serif" font-size="14.00">|&#45; ( ph &#45;&gt; ( ps &#45;&gt; ch ) )</text>
</g>
</g>
</svg>
