<?xml version="1.0" encoding="UTF-8" standalone="no"?>
<!DOCTYPE svg PUBLIC "-//W3C//DTD SVG 1.1//EN"
 "http://www.w3.org/Graphics/SVG/1.1/DTD/svg11.dtd">
<!-- Generated by graphviz version 2.38.0 (20140413.2041)
 -->
<!-- Title: proof_con4bii Pages: 1 -->
<svg width="868pt" height="376pt"
 viewBox="0.00 0.00 867.88 376.00" xmlns="http://www.w3.org/2000/svg" xmlns:xlink="http://www.w3.org/1999/xlink">
<g id="graph0" class="graph" transform="scale(1 1) rotate(0) translate(4 372)">
<title>proof_con4bii</title>
<polygon fill="white" stroke="none" points="-4,4 -4,-372 863.881,-372 863.881,4 -4,4"/>
<!-- n5821 -->
<g id="node1" class="node"><title>n5821</title>
<ellipse fill="none" stroke="lightgray" cx="154" cy="-350" rx="27" ry="18"/>
<text text-anchor="middle" x="154" y="-346.3" font-family="Times New Roman,serif" font-size="14.00" fill="lightgray">wph</text>
</g>
<!-- n5823 -->
<g id="node2" class="node"><title>n5823</title>
<ellipse fill="none" stroke="lightgray" cx="310.196" cy="-291" rx="27" ry="18"/>
<text text-anchor="middle" x="310.196" y="-287.3" font-family="Times New Roman,serif" font-size="14.00" fill="lightgray">wb</text>
</g>
<!-- n5821&#45;&gt;n5823 -->
<g id="edge1" class="edge"><title>n5821&#45;&gt;n5823</title>
<path fill="none" stroke="lightgray" d="M177.752,-341.294C203.945,-331.272 247.164,-314.736 276.847,-303.378"/>
<polygon fill="lightgray" stroke="lightgray" points="278.262,-306.584 286.351,-299.741 275.76,-300.046 278.262,-306.584"/>
<text text-anchor="middle" x="223.5" y="-335.8" font-family="Times New Roman,serif" font-size="14.00" fill="lightgray">wff ph</text>
</g>
<!-- n5822 -->
<g id="node3" class="node"><title>n5822</title>
<ellipse fill="none" stroke="lightgray" cx="154" cy="-278" rx="27" ry="18"/>
<text text-anchor="middle" x="154" y="-274.3" font-family="Times New Roman,serif" font-size="14.00" fill="lightgray">wps</text>
</g>
<!-- n5821&#45;&gt;n5822 -->
<g id="edge4" class="edge"><title>n5821&#45;&gt;n5822</title>
</g>
<!-- n5833 -->
<g id="node4" class="node"><title>n5833</title>
<ellipse fill="cyan" stroke="black" cx="648.889" cy="-182" rx="32.4942" ry="18"/>
<text text-anchor="middle" x="648.889" y="-178.3" font-family="Times New Roman,serif" font-size="14.00">mpbir</text>
</g>
<!-- n5823&#45;&gt;n5833 -->
<g id="edge3" class="edge"><title>n5823&#45;&gt;n5833</title>
<path fill="none" stroke="lightgray" d="M337.479,-290.601C390.166,-288.767 511.12,-279.285 598.392,-232 609.971,-225.727 620.576,-215.869 628.974,-206.559"/>
<polygon fill="lightgray" stroke="lightgray" points="631.636,-208.831 635.482,-198.958 626.319,-204.278 631.636,-208.831"/>
<text text-anchor="middle" x="485.392" y="-292.8" font-family="Times New Roman,serif" font-size="14.00" fill="lightgray">wff ( ph &lt;&#45;&gt; ps )</text>
</g>
<!-- n5828 -->
<g id="node7" class="node"><title>n5828</title>
<ellipse fill="none" stroke="lightgray" cx="310.196" cy="-219" rx="27" ry="18"/>
<text text-anchor="middle" x="310.196" y="-215.3" font-family="Times New Roman,serif" font-size="14.00" fill="lightgray">wb</text>
</g>
<!-- n5823&#45;&gt;n5828 -->
<g id="edge17" class="edge"><title>n5823&#45;&gt;n5828</title>
</g>
<!-- n5822&#45;&gt;n5823 -->
<g id="edge2" class="edge"><title>n5822&#45;&gt;n5823</title>
<path fill="none" stroke="lightgray" d="M180.809,-280.176C206.048,-282.304 244.709,-285.563 273.012,-287.949"/>
<polygon fill="lightgray" stroke="lightgray" points="273.044,-291.464 283.303,-288.817 273.632,-284.489 273.044,-291.464"/>
<text text-anchor="middle" x="223.5" y="-289.8" font-family="Times New Roman,serif" font-size="14.00" fill="lightgray">wff ps</text>
</g>
<!-- QED -->
<g id="node14" class="node"><title>QED</title>
</g>
<!-- n5833&#45;&gt;QED -->
<g id="edge16" class="edge"><title>n5833&#45;&gt;QED</title>
<path fill="none" stroke="black" d="M681.61,-182C712.166,-182 758.44,-182 791.101,-182"/>
<polygon fill="black" stroke="black" points="791.19,-185.5 801.19,-182 791.19,-178.5 791.19,-185.5"/>
<text text-anchor="middle" x="741.386" y="-185.8" font-family="Times New Roman,serif" font-size="14.00">|&#45; ( ph &lt;&#45;&gt; ps )</text>
</g>
<!-- n5824 -->
<g id="node5" class="node"><title>n5824</title>
<ellipse fill="none" stroke="lightgray" cx="27" cy="-222" rx="27" ry="18"/>
<text text-anchor="middle" x="27" y="-218.3" font-family="Times New Roman,serif" font-size="14.00" fill="lightgray">wph</text>
</g>
<!-- n5825 -->
<g id="node6" class="node"><title>n5825</title>
<ellipse fill="none" stroke="lightgray" cx="154" cy="-222" rx="27" ry="18"/>
<text text-anchor="middle" x="154" y="-218.3" font-family="Times New Roman,serif" font-size="14.00" fill="lightgray">wn</text>
</g>
<!-- n5824&#45;&gt;n5825 -->
<g id="edge5" class="edge"><title>n5824&#45;&gt;n5825</title>
<path fill="none" stroke="lightgray" d="M54.2041,-222C72.3711,-222 96.7994,-222 116.82,-222"/>
<polygon fill="lightgray" stroke="lightgray" points="116.83,-225.5 126.83,-222 116.83,-218.5 116.83,-225.5"/>
<text text-anchor="middle" x="90.5" y="-225.8" font-family="Times New Roman,serif" font-size="14.00" fill="lightgray">wff ph</text>
</g>
<!-- n5825&#45;&gt;n5828 -->
<g id="edge6" class="edge"><title>n5825&#45;&gt;n5828</title>
<path fill="none" stroke="lightgray" d="M181.157,-221.491C206.376,-221 244.757,-220.254 272.923,-219.706"/>
<polygon fill="lightgray" stroke="lightgray" points="273.238,-223.2 283.168,-219.506 273.102,-216.202 273.238,-223.2"/>
<text text-anchor="middle" x="223.5" y="-225.8" font-family="Times New Roman,serif" font-size="14.00" fill="lightgray">wff &#45;. ph</text>
</g>
<!-- n5827 -->
<g id="node9" class="node"><title>n5827</title>
<ellipse fill="none" stroke="lightgray" cx="154" cy="-150" rx="27" ry="18"/>
<text text-anchor="middle" x="154" y="-146.3" font-family="Times New Roman,serif" font-size="14.00" fill="lightgray">wn</text>
</g>
<!-- n5825&#45;&gt;n5827 -->
<g id="edge10" class="edge"><title>n5825&#45;&gt;n5827</title>
</g>
<!-- n5828&#45;&gt;n5833 -->
<g id="edge9" class="edge"><title>n5828&#45;&gt;n5833</title>
<path fill="none" stroke="lightgray" d="M336.953,-216.334C387.235,-211.105 501.983,-199.046 598.392,-188 601.214,-187.677 604.126,-187.338 607.058,-186.992"/>
<polygon fill="lightgray" stroke="lightgray" points="607.489,-190.466 617.004,-185.807 606.66,-183.515 607.489,-190.466"/>
<text text-anchor="middle" x="485.392" y="-216.8" font-family="Times New Roman,serif" font-size="14.00" fill="lightgray">wff ( &#45;. ph &lt;&#45;&gt; &#45;. ps )</text>
</g>
<!-- n5829 -->
<g id="node10" class="node"><title>n5829</title>
<ellipse fill="orange" stroke="black" cx="310.196" cy="-147" rx="44.393" ry="18"/>
<text text-anchor="middle" x="310.196" y="-143.3" font-family="Times New Roman,serif" font-size="14.00">con4bii.1</text>
</g>
<!-- n5828&#45;&gt;n5829 -->
<g id="edge18" class="edge"><title>n5828&#45;&gt;n5829</title>
</g>
<!-- n5826 -->
<g id="node8" class="node"><title>n5826</title>
<ellipse fill="none" stroke="lightgray" cx="27" cy="-150" rx="27" ry="18"/>
<text text-anchor="middle" x="27" y="-146.3" font-family="Times New Roman,serif" font-size="14.00" fill="lightgray">wps</text>
</g>
<!-- n5826&#45;&gt;n5827 -->
<g id="edge7" class="edge"><title>n5826&#45;&gt;n5827</title>
<path fill="none" stroke="lightgray" d="M54.2041,-150C72.3711,-150 96.7994,-150 116.82,-150"/>
<polygon fill="lightgray" stroke="lightgray" points="116.83,-153.5 126.83,-150 116.83,-146.5 116.83,-153.5"/>
<text text-anchor="middle" x="90.5" y="-153.8" font-family="Times New Roman,serif" font-size="14.00" fill="lightgray">wff ps</text>
</g>
<!-- n5827&#45;&gt;n5828 -->
<g id="edge8" class="edge"><title>n5827&#45;&gt;n5828</title>
<path fill="none" stroke="lightgray" d="M176.765,-159.74C203.133,-171.539 247.752,-191.505 277.829,-204.964"/>
<polygon fill="lightgray" stroke="lightgray" points="276.485,-208.197 287.042,-209.086 279.344,-201.807 276.485,-208.197"/>
<text text-anchor="middle" x="223.5" y="-194.8" font-family="Times New Roman,serif" font-size="14.00" fill="lightgray">wff &#45;. ps</text>
</g>
<!-- n5829&#45;&gt;n5833 -->
<g id="edge11" class="edge"><title>n5829&#45;&gt;n5833</title>
<path fill="none" stroke="black" d="M354.149,-149.683C410.417,-153.474 512.074,-161.269 598.392,-173 601.594,-173.435 604.905,-173.933 608.226,-174.465"/>
<polygon fill="black" stroke="black" points="607.675,-177.922 618.12,-176.141 608.845,-171.02 607.675,-177.922"/>
<text text-anchor="middle" x="485.392" y="-176.8" font-family="Times New Roman,serif" font-size="14.00">|&#45; ( &#45;. ph &lt;&#45;&gt; &#45;. ps )</text>
</g>
<!-- n5832 -->
<g id="node12" class="node"><title>n5832</title>
<ellipse fill="cyan" stroke="black" cx="310.196" cy="-75" rx="29.4969" ry="18"/>
<text text-anchor="middle" x="310.196" y="-71.3" font-family="Times New Roman,serif" font-size="14.00">notbi</text>
</g>
<!-- n5829&#45;&gt;n5832 -->
<g id="edge19" class="edge"><title>n5829&#45;&gt;n5832</title>
</g>
<!-- n5830 -->
<g id="node11" class="node"><title>n5830</title>
<ellipse fill="none" stroke="lightgray" cx="154" cy="-90" rx="27" ry="18"/>
<text text-anchor="middle" x="154" y="-86.3" font-family="Times New Roman,serif" font-size="14.00" fill="lightgray">wph</text>
</g>
<!-- n5830&#45;&gt;n5832 -->
<g id="edge12" class="edge"><title>n5830&#45;&gt;n5832</title>
<path fill="none" stroke="lightgray" d="M180.809,-87.4893C205.44,-85.0933 242.853,-81.4537 270.948,-78.7207"/>
<polygon fill="lightgray" stroke="lightgray" points="271.6,-82.174 281.214,-77.7221 270.922,-75.2068 271.6,-82.174"/>
<text text-anchor="middle" x="223.5" y="-89.8" font-family="Times New Roman,serif" font-size="14.00" fill="lightgray">wff ph</text>
</g>
<!-- n5831 -->
<g id="node13" class="node"><title>n5831</title>
<ellipse fill="none" stroke="lightgray" cx="154" cy="-18" rx="27" ry="18"/>
<text text-anchor="middle" x="154" y="-14.3" font-family="Times New Roman,serif" font-size="14.00" fill="lightgray">wps</text>
</g>
<!-- n5830&#45;&gt;n5831 -->
<g id="edge15" class="edge"><title>n5830&#45;&gt;n5831</title>
</g>
<!-- n5832&#45;&gt;n5833 -->
<g id="edge14" class="edge"><title>n5832&#45;&gt;n5833</title>
<path fill="none" stroke="black" d="M339.492,-75.4323C393.136,-77.3513 511.986,-86.933 598.392,-133 609.781,-139.072 620.277,-148.598 628.645,-157.643"/>
<polygon fill="black" stroke="black" points="626.196,-160.158 635.42,-165.369 631.459,-155.543 626.196,-160.158"/>
<text text-anchor="middle" x="485.392" y="-136.8" font-family="Times New Roman,serif" font-size="14.00">|&#45; ( ( ph &lt;&#45;&gt; ps ) &lt;&#45;&gt; ( &#45;. ph &lt;&#45;&gt; &#45;. ps ) )</text>
</g>
<!-- n5831&#45;&gt;n5832 -->
<g id="edge13" class="edge"><title>n5831&#45;&gt;n5832</title>
<path fill="none" stroke="lightgray" d="M178.085,-26.5335C203.824,-36.0483 245.704,-51.5297 275.193,-62.4305"/>
<polygon fill="lightgray" stroke="lightgray" points="274.084,-65.752 284.677,-65.9364 276.511,-59.1862 274.084,-65.752"/>
<text text-anchor="middle" x="223.5" y="-55.8" font-family="Times New Roman,serif" font-size="14.00" fill="lightgray">wff ps</text>
</g>
</g>
</svg>
