<?xml version="1.0" encoding="UTF-8" standalone="no"?>
<!DOCTYPE svg PUBLIC "-//W3C//DTD SVG 1.1//EN"
 "http://www.w3.org/Graphics/SVG/1.1/DTD/svg11.dtd">
<!-- Generated by graphviz version 2.38.0 (20140413.2041)
 -->
<!-- Title: proof_dfbi Pages: 1 -->
<svg width="1849pt" height="1303pt"
 viewBox="0.00 0.00 1848.58 1303.00" xmlns="http://www.w3.org/2000/svg" xmlns:xlink="http://www.w3.org/1999/xlink">
<g id="graph0" class="graph" transform="scale(1 1) rotate(0) translate(4 1299)">
<title>proof_dfbi</title>
<polygon fill="white" stroke="none" points="-4,4 -4,-1299 1844.58,-1299 1844.58,4 -4,4"/>
<!-- n10745 -->
<g id="node1" class="node"><title>n10745</title>
<ellipse fill="none" stroke="lightgray" cx="154" cy="-1277" rx="27" ry="18"/>
<text text-anchor="middle" x="154" y="-1273.3" font-family="Times New Roman,serif" font-size="14.00" fill="lightgray">wph</text>
</g>
<!-- n10747 -->
<g id="node2" class="node"><title>n10747</title>
<ellipse fill="none" stroke="lightgray" cx="334.897" cy="-1182" rx="27" ry="18"/>
<text text-anchor="middle" x="334.897" y="-1178.3" font-family="Times New Roman,serif" font-size="14.00" fill="lightgray">wb</text>
</g>
<!-- n10745&#45;&gt;n10747 -->
<g id="edge1" class="edge"><title>n10745&#45;&gt;n10747</title>
<path fill="none" stroke="lightgray" d="M178.228,-1268.53C205.248,-1258.25 250.776,-1239.59 287,-1218 294.731,-1213.39 302.668,-1207.72 309.763,-1202.25"/>
<polygon fill="lightgray" stroke="lightgray" points="311.984,-1204.95 317.643,-1195.99 307.633,-1199.47 311.984,-1204.95"/>
<text text-anchor="middle" x="243" y="-1262.8" font-family="Times New Roman,serif" font-size="14.00" fill="lightgray">wff ph</text>
</g>
<!-- n10746 -->
<g id="node3" class="node"><title>n10746</title>
<ellipse fill="none" stroke="lightgray" cx="154" cy="-1205" rx="27" ry="18"/>
<text text-anchor="middle" x="154" y="-1201.3" font-family="Times New Roman,serif" font-size="14.00" fill="lightgray">wps</text>
</g>
<!-- n10745&#45;&gt;n10746 -->
<g id="edge4" class="edge"><title>n10745&#45;&gt;n10746</title>
</g>
<!-- n10755 -->
<g id="node4" class="node"><title>n10755</title>
<ellipse fill="none" stroke="lightgray" cx="726.191" cy="-952" rx="27" ry="18"/>
<text text-anchor="middle" x="726.191" y="-948.3" font-family="Times New Roman,serif" font-size="14.00" fill="lightgray">wi</text>
</g>
<!-- n10747&#45;&gt;n10755 -->
<g id="edge3" class="edge"><title>n10747&#45;&gt;n10755</title>
<path fill="none" stroke="lightgray" d="M362.306,-1182.06C424.343,-1180.78 580.972,-1169.08 671.795,-1087 702.74,-1059.03 715.99,-1010.81 721.492,-980.206"/>
<polygon fill="lightgray" stroke="lightgray" points="724.972,-980.612 723.131,-970.178 718.063,-979.482 724.972,-980.612"/>
<text text-anchor="middle" x="527.295" y="-1185.8" font-family="Times New Roman,serif" font-size="14.00" fill="lightgray">wff ( ph &lt;&#45;&gt; ps )</text>
</g>
<!-- n10754 -->
<g id="node8" class="node"><title>n10754</title>
<ellipse fill="none" stroke="lightgray" cx="334.897" cy="-1093" rx="27" ry="18"/>
<text text-anchor="middle" x="334.897" y="-1089.3" font-family="Times New Roman,serif" font-size="14.00" fill="lightgray">wa</text>
</g>
<!-- n10747&#45;&gt;n10754 -->
<g id="edge16" class="edge"><title>n10747&#45;&gt;n10754</title>
</g>
<!-- n10746&#45;&gt;n10747 -->
<g id="edge2" class="edge"><title>n10746&#45;&gt;n10747</title>
<path fill="none" stroke="lightgray" d="M180.632,-1201.7C211.452,-1197.74 263.363,-1191.07 298.12,-1186.6"/>
<polygon fill="lightgray" stroke="lightgray" points="298.841,-1190.04 308.313,-1185.29 297.949,-1183.09 298.841,-1190.04"/>
<text text-anchor="middle" x="243" y="-1202.8" font-family="Times New Roman,serif" font-size="14.00" fill="lightgray">wff ps</text>
</g>
<!-- n10795 -->
<g id="node12" class="node"><title>n10795</title>
<ellipse fill="cyan" stroke="black" cx="1127.34" cy="-719" rx="35.9954" ry="18"/>
<text text-anchor="middle" x="1127.34" y="-715.3" font-family="Times New Roman,serif" font-size="14.00">pm3.2i</text>
</g>
<!-- n10755&#45;&gt;n10795 -->
<g id="edge15" class="edge"><title>n10755&#45;&gt;n10795</title>
<path fill="none" stroke="lightgray" d="M753.248,-949.825C816.045,-943.281 977.639,-918.522 1073.59,-832 1098.74,-809.318 1112.85,-772.157 1120.02,-746.685"/>
<polygon fill="lightgray" stroke="lightgray" points="1123.44,-747.452 1122.6,-736.891 1116.67,-745.67 1123.44,-747.452"/>
<text text-anchor="middle" x="927.088" y="-949.8" font-family="Times New Roman,serif" font-size="14.00" fill="lightgray">wff ( ( ph &lt;&#45;&gt; ps ) &#45;&gt; ( ( ph &#45;&gt; ps ) /\ ( ps &#45;&gt; ph ) ) )</text>
</g>
<!-- n10766 -->
<g id="node20" class="node"><title>n10766</title>
<ellipse fill="none" stroke="lightgray" cx="726.191" cy="-828" rx="27" ry="18"/>
<text text-anchor="middle" x="726.191" y="-824.3" font-family="Times New Roman,serif" font-size="14.00" fill="lightgray">wi</text>
</g>
<!-- n10755&#45;&gt;n10766 -->
<g id="edge76" class="edge"><title>n10755&#45;&gt;n10766</title>
</g>
<!-- n10748 -->
<g id="node5" class="node"><title>n10748</title>
<ellipse fill="none" stroke="lightgray" cx="27" cy="-1250" rx="27" ry="18"/>
<text text-anchor="middle" x="27" y="-1246.3" font-family="Times New Roman,serif" font-size="14.00" fill="lightgray">wph</text>
</g>
<!-- n10750 -->
<g id="node6" class="node"><title>n10750</title>
<ellipse fill="none" stroke="lightgray" cx="154" cy="-1151" rx="27" ry="18"/>
<text text-anchor="middle" x="154" y="-1147.3" font-family="Times New Roman,serif" font-size="14.00" fill="lightgray">wi</text>
</g>
<!-- n10748&#45;&gt;n10750 -->
<g id="edge5" class="edge"><title>n10748&#45;&gt;n10750</title>
<path fill="none" stroke="lightgray" d="M45.5597,-1236.92C62.0884,-1224.53 87.4535,-1205.29 109,-1188 115.458,-1182.82 122.352,-1177.11 128.721,-1171.76"/>
<polygon fill="lightgray" stroke="lightgray" points="131.056,-1174.37 136.435,-1165.24 126.538,-1169.02 131.056,-1174.37"/>
<text text-anchor="middle" x="90.5" y="-1219.8" font-family="Times New Roman,serif" font-size="14.00" fill="lightgray">wff ph</text>
</g>
<!-- n10749 -->
<g id="node7" class="node"><title>n10749</title>
<ellipse fill="none" stroke="lightgray" cx="27" cy="-1178" rx="27" ry="18"/>
<text text-anchor="middle" x="27" y="-1174.3" font-family="Times New Roman,serif" font-size="14.00" fill="lightgray">wps</text>
</g>
<!-- n10748&#45;&gt;n10749 -->
<g id="edge8" class="edge"><title>n10748&#45;&gt;n10749</title>
</g>
<!-- n10750&#45;&gt;n10754 -->
<g id="edge7" class="edge"><title>n10750&#45;&gt;n10754</title>
<path fill="none" stroke="lightgray" d="M178.894,-1143.56C205.372,-1135.28 249.314,-1121.42 287,-1109 291.56,-1107.5 296.361,-1105.89 301.081,-1104.29"/>
<polygon fill="lightgray" stroke="lightgray" points="302.212,-1107.6 310.552,-1101.07 299.958,-1100.98 302.212,-1107.6"/>
<text text-anchor="middle" x="243" y="-1141.8" font-family="Times New Roman,serif" font-size="14.00" fill="lightgray">wff ( ph &#45;&gt; ps )</text>
</g>
<!-- n10753 -->
<g id="node10" class="node"><title>n10753</title>
<ellipse fill="none" stroke="lightgray" cx="154" cy="-1079" rx="27" ry="18"/>
<text text-anchor="middle" x="154" y="-1075.3" font-family="Times New Roman,serif" font-size="14.00" fill="lightgray">wi</text>
</g>
<!-- n10750&#45;&gt;n10753 -->
<g id="edge14" class="edge"><title>n10750&#45;&gt;n10753</title>
</g>
<!-- n10749&#45;&gt;n10750 -->
<g id="edge6" class="edge"><title>n10749&#45;&gt;n10750</title>
<path fill="none" stroke="lightgray" d="M52.9952,-1172.6C71.6456,-1168.57 97.3666,-1163.02 118.053,-1158.55"/>
<polygon fill="lightgray" stroke="lightgray" points="119.013,-1161.92 128.048,-1156.39 117.535,-1155.08 119.013,-1161.92"/>
<text text-anchor="middle" x="90.5" y="-1172.8" font-family="Times New Roman,serif" font-size="14.00" fill="lightgray">wff ps</text>
</g>
<!-- n10754&#45;&gt;n10755 -->
<g id="edge13" class="edge"><title>n10754&#45;&gt;n10755</title>
<path fill="none" stroke="lightgray" d="M357.685,-1082.79C365.538,-1079.23 374.507,-1075.3 382.795,-1072 494.49,-1027.51 629.971,-982.653 691.674,-962.709"/>
<polygon fill="lightgray" stroke="lightgray" points="692.832,-966.013 701.276,-959.614 690.685,-959.351 692.832,-966.013"/>
<text text-anchor="middle" x="527.295" y="-1075.8" font-family="Times New Roman,serif" font-size="14.00" fill="lightgray">wff ( ( ph &#45;&gt; ps ) /\ ( ps &#45;&gt; ph ) )</text>
</g>
<!-- n10751 -->
<g id="node9" class="node"><title>n10751</title>
<ellipse fill="none" stroke="lightgray" cx="27" cy="-1124" rx="27" ry="18"/>
<text text-anchor="middle" x="27" y="-1120.3" font-family="Times New Roman,serif" font-size="14.00" fill="lightgray">wps</text>
</g>
<!-- n10751&#45;&gt;n10753 -->
<g id="edge9" class="edge"><title>n10751&#45;&gt;n10753</title>
<path fill="none" stroke="lightgray" d="M51.2186,-1115.64C70.6886,-1108.63 98.7117,-1098.54 120.426,-1090.73"/>
<polygon fill="lightgray" stroke="lightgray" points="121.682,-1093.99 129.906,-1087.31 119.311,-1087.41 121.682,-1093.99"/>
<text text-anchor="middle" x="90.5" y="-1112.8" font-family="Times New Roman,serif" font-size="14.00" fill="lightgray">wff ps</text>
</g>
<!-- n10752 -->
<g id="node11" class="node"><title>n10752</title>
<ellipse fill="none" stroke="lightgray" cx="27" cy="-1052" rx="27" ry="18"/>
<text text-anchor="middle" x="27" y="-1048.3" font-family="Times New Roman,serif" font-size="14.00" fill="lightgray">wph</text>
</g>
<!-- n10751&#45;&gt;n10752 -->
<g id="edge12" class="edge"><title>n10751&#45;&gt;n10752</title>
</g>
<!-- n10753&#45;&gt;n10754 -->
<g id="edge11" class="edge"><title>n10753&#45;&gt;n10754</title>
<path fill="none" stroke="lightgray" d="M181.013,-1081.04C211.751,-1083.44 263.08,-1087.46 297.69,-1090.17"/>
<polygon fill="lightgray" stroke="lightgray" points="297.61,-1093.67 307.853,-1090.96 298.156,-1086.69 297.61,-1093.67"/>
<text text-anchor="middle" x="243" y="-1093.8" font-family="Times New Roman,serif" font-size="14.00" fill="lightgray">wff ( ps &#45;&gt; ph )</text>
</g>
<!-- n10752&#45;&gt;n10753 -->
<g id="edge10" class="edge"><title>n10752&#45;&gt;n10753</title>
<path fill="none" stroke="lightgray" d="M52.9952,-1057.4C71.6456,-1061.43 97.3666,-1066.98 118.053,-1071.45"/>
<polygon fill="lightgray" stroke="lightgray" points="117.535,-1074.92 128.048,-1073.61 119.013,-1068.08 117.535,-1074.92"/>
<text text-anchor="middle" x="90.5" y="-1073.8" font-family="Times New Roman,serif" font-size="14.00" fill="lightgray">wff ph</text>
</g>
<!-- QED -->
<g id="node52" class="node"><title>QED</title>
</g>
<!-- n10795&#45;&gt;QED -->
<g id="edge75" class="edge"><title>n10795&#45;&gt;QED</title>
<path fill="none" stroke="black" d="M1163.09,-719C1278.76,-719 1650.25,-719 1771.59,-719"/>
<polygon fill="black" stroke="black" points="1771.88,-722.5 1781.88,-719 1771.88,-715.5 1771.88,-722.5"/>
<text text-anchor="middle" x="1472.58" y="-722.8" font-family="Times New Roman,serif" font-size="14.00">|&#45; ( ( ( ph &lt;&#45;&gt; ps ) &#45;&gt; ( ( ph &#45;&gt; ps ) /\ ( ps &#45;&gt; ph ) ) ) /\ ( ( ( ph &#45;&gt; ps ) /\ ( ps &#45;&gt; ph ) ) &#45;&gt; ( ph &lt;&#45;&gt; ps ) ) )</text>
</g>
<!-- n10756 -->
<g id="node13" class="node"><title>n10756</title>
<ellipse fill="none" stroke="lightgray" cx="27" cy="-998" rx="27" ry="18"/>
<text text-anchor="middle" x="27" y="-994.3" font-family="Times New Roman,serif" font-size="14.00" fill="lightgray">wph</text>
</g>
<!-- n10758 -->
<g id="node14" class="node"><title>n10758</title>
<ellipse fill="none" stroke="lightgray" cx="154" cy="-972" rx="27" ry="18"/>
<text text-anchor="middle" x="154" y="-968.3" font-family="Times New Roman,serif" font-size="14.00" fill="lightgray">wi</text>
</g>
<!-- n10756&#45;&gt;n10758 -->
<g id="edge17" class="edge"><title>n10756&#45;&gt;n10758</title>
<path fill="none" stroke="lightgray" d="M52.9952,-992.801C71.6456,-988.922 97.3666,-983.572 118.053,-979.269"/>
<polygon fill="lightgray" stroke="lightgray" points="118.97,-982.653 128.048,-977.19 117.545,-975.8 118.97,-982.653"/>
<text text-anchor="middle" x="90.5" y="-992.8" font-family="Times New Roman,serif" font-size="14.00" fill="lightgray">wff ph</text>
</g>
<!-- n10757 -->
<g id="node15" class="node"><title>n10757</title>
<ellipse fill="none" stroke="lightgray" cx="27" cy="-926" rx="27" ry="18"/>
<text text-anchor="middle" x="27" y="-922.3" font-family="Times New Roman,serif" font-size="14.00" fill="lightgray">wps</text>
</g>
<!-- n10756&#45;&gt;n10757 -->
<g id="edge20" class="edge"><title>n10756&#45;&gt;n10757</title>
</g>
<!-- n10762 -->
<g id="node16" class="node"><title>n10762</title>
<ellipse fill="none" stroke="lightgray" cx="334.897" cy="-900" rx="27" ry="18"/>
<text text-anchor="middle" x="334.897" y="-896.3" font-family="Times New Roman,serif" font-size="14.00" fill="lightgray">wa</text>
</g>
<!-- n10758&#45;&gt;n10762 -->
<g id="edge19" class="edge"><title>n10758&#45;&gt;n10762</title>
<path fill="none" stroke="lightgray" d="M177.43,-963.019C203.7,-952.494 248.524,-934.518 287,-919 291.865,-917.038 297.013,-914.957 302.046,-912.92"/>
<polygon fill="lightgray" stroke="lightgray" points="303.525,-916.097 311.48,-909.099 300.897,-909.609 303.525,-916.097"/>
<text text-anchor="middle" x="243" y="-958.8" font-family="Times New Roman,serif" font-size="14.00" fill="lightgray">wff ( ps &#45;&gt; ph )</text>
</g>
<!-- n10761 -->
<g id="node18" class="node"><title>n10761</title>
<ellipse fill="none" stroke="lightgray" cx="154" cy="-900" rx="27" ry="18"/>
<text text-anchor="middle" x="154" y="-896.3" font-family="Times New Roman,serif" font-size="14.00" fill="lightgray">wi</text>
</g>
<!-- n10758&#45;&gt;n10761 -->
<g id="edge26" class="edge"><title>n10758&#45;&gt;n10761</title>
</g>
<!-- n10757&#45;&gt;n10758 -->
<g id="edge18" class="edge"><title>n10757&#45;&gt;n10758</title>
<path fill="none" stroke="lightgray" d="M50.9269,-934.437C70.3633,-941.59 98.4735,-951.934 120.276,-959.957"/>
<polygon fill="lightgray" stroke="lightgray" points="119.202,-963.292 129.795,-963.461 121.619,-956.722 119.202,-963.292"/>
<text text-anchor="middle" x="90.5" y="-959.8" font-family="Times New Roman,serif" font-size="14.00" fill="lightgray">wff ps</text>
</g>
<!-- n10762&#45;&gt;n10766 -->
<g id="edge25" class="edge"><title>n10762&#45;&gt;n10766</title>
<path fill="none" stroke="lightgray" d="M361.934,-897.554C418.826,-891.847 558.226,-875.899 671.795,-847 678.714,-845.239 686.001,-842.95 692.891,-840.574"/>
<polygon fill="lightgray" stroke="lightgray" points="694.385,-843.756 702.613,-837.081 692.018,-837.168 694.385,-843.756"/>
<text text-anchor="middle" x="527.295" y="-898.8" font-family="Times New Roman,serif" font-size="14.00" fill="lightgray">wff ( ( ph &#45;&gt; ps ) /\ ( ps &#45;&gt; ph ) )</text>
</g>
<!-- n10765 -->
<g id="node22" class="node"><title>n10765</title>
<ellipse fill="none" stroke="lightgray" cx="334.897" cy="-828" rx="27" ry="18"/>
<text text-anchor="middle" x="334.897" y="-824.3" font-family="Times New Roman,serif" font-size="14.00" fill="lightgray">wb</text>
</g>
<!-- n10762&#45;&gt;n10765 -->
<g id="edge32" class="edge"><title>n10762&#45;&gt;n10765</title>
</g>
<!-- n10759 -->
<g id="node17" class="node"><title>n10759</title>
<ellipse fill="none" stroke="lightgray" cx="27" cy="-872" rx="27" ry="18"/>
<text text-anchor="middle" x="27" y="-868.3" font-family="Times New Roman,serif" font-size="14.00" fill="lightgray">wps</text>
</g>
<!-- n10759&#45;&gt;n10761 -->
<g id="edge21" class="edge"><title>n10759&#45;&gt;n10761</title>
<path fill="none" stroke="lightgray" d="M52.696,-877.532C71.3212,-881.704 97.1209,-887.483 117.89,-892.135"/>
<polygon fill="lightgray" stroke="lightgray" points="117.404,-895.613 127.927,-894.384 118.934,-888.782 117.404,-895.613"/>
<text text-anchor="middle" x="90.5" y="-894.8" font-family="Times New Roman,serif" font-size="14.00" fill="lightgray">wff ps</text>
</g>
<!-- n10760 -->
<g id="node19" class="node"><title>n10760</title>
<ellipse fill="none" stroke="lightgray" cx="27" cy="-800" rx="27" ry="18"/>
<text text-anchor="middle" x="27" y="-796.3" font-family="Times New Roman,serif" font-size="14.00" fill="lightgray">wph</text>
</g>
<!-- n10759&#45;&gt;n10760 -->
<g id="edge24" class="edge"><title>n10759&#45;&gt;n10760</title>
</g>
<!-- n10761&#45;&gt;n10762 -->
<g id="edge23" class="edge"><title>n10761&#45;&gt;n10762</title>
<path fill="none" stroke="lightgray" d="M181.013,-900C211.751,-900 263.08,-900 297.69,-900"/>
<polygon fill="lightgray" stroke="lightgray" points="297.853,-903.5 307.853,-900 297.853,-896.5 297.853,-903.5"/>
<text text-anchor="middle" x="243" y="-903.8" font-family="Times New Roman,serif" font-size="14.00" fill="lightgray">wff ( ph &#45;&gt; ps )</text>
</g>
<!-- n10760&#45;&gt;n10761 -->
<g id="edge22" class="edge"><title>n10760&#45;&gt;n10761</title>
<path fill="none" stroke="lightgray" d="M45.5315,-813.328C62.0403,-825.951 87.3919,-845.522 109,-863 115.438,-868.208 122.325,-873.926 128.693,-879.278"/>
<polygon fill="lightgray" stroke="lightgray" points="126.511,-882.016 136.41,-885.793 131.027,-876.667 126.511,-882.016"/>
<text text-anchor="middle" x="90.5" y="-866.8" font-family="Times New Roman,serif" font-size="14.00" fill="lightgray">wff ph</text>
</g>
<!-- n10766&#45;&gt;n10795 -->
<g id="edge31" class="edge"><title>n10766&#45;&gt;n10795</title>
<path fill="none" stroke="lightgray" d="M751.559,-821.346C818.095,-803.176 1003.39,-752.575 1085.86,-730.054"/>
<polygon fill="lightgray" stroke="lightgray" points="1086.9,-733.398 1095.62,-727.387 1085.05,-726.645 1086.9,-733.398"/>
<text text-anchor="middle" x="927.088" y="-816.8" font-family="Times New Roman,serif" font-size="14.00" fill="lightgray">wff ( ( ( ph &#45;&gt; ps ) /\ ( ps &#45;&gt; ph ) ) &#45;&gt; ( ph &lt;&#45;&gt; ps ) )</text>
</g>
<!-- n10780 -->
<g id="node27" class="node"><title>n10780</title>
<ellipse fill="cyan" stroke="black" cx="726.191" cy="-612" rx="33.2948" ry="18"/>
<text text-anchor="middle" x="726.191" y="-608.3" font-family="Times New Roman,serif" font-size="14.00">biimpi</text>
</g>
<!-- n10766&#45;&gt;n10780 -->
<g id="edge77" class="edge"><title>n10766&#45;&gt;n10780</title>
</g>
<!-- n10763 -->
<g id="node21" class="node"><title>n10763</title>
<ellipse fill="none" stroke="lightgray" cx="154" cy="-846" rx="27" ry="18"/>
<text text-anchor="middle" x="154" y="-842.3" font-family="Times New Roman,serif" font-size="14.00" fill="lightgray">wps</text>
</g>
<!-- n10763&#45;&gt;n10765 -->
<g id="edge27" class="edge"><title>n10763&#45;&gt;n10765</title>
<path fill="none" stroke="lightgray" d="M181.013,-843.383C211.839,-840.281 263.373,-835.096 297.986,-831.613"/>
<polygon fill="lightgray" stroke="lightgray" points="298.544,-835.075 308.143,-830.591 297.843,-828.11 298.544,-835.075"/>
<text text-anchor="middle" x="243" y="-845.8" font-family="Times New Roman,serif" font-size="14.00" fill="lightgray">wff ps</text>
</g>
<!-- n10764 -->
<g id="node23" class="node"><title>n10764</title>
<ellipse fill="none" stroke="lightgray" cx="154" cy="-774" rx="27" ry="18"/>
<text text-anchor="middle" x="154" y="-770.3" font-family="Times New Roman,serif" font-size="14.00" fill="lightgray">wph</text>
</g>
<!-- n10763&#45;&gt;n10764 -->
<g id="edge30" class="edge"><title>n10763&#45;&gt;n10764</title>
</g>
<!-- n10765&#45;&gt;n10766 -->
<g id="edge29" class="edge"><title>n10765&#45;&gt;n10766</title>
<path fill="none" stroke="lightgray" d="M362.045,-828C429.777,-828 611.068,-828 688.887,-828"/>
<polygon fill="lightgray" stroke="lightgray" points="689.158,-831.5 699.158,-828 689.158,-824.5 689.158,-831.5"/>
<text text-anchor="middle" x="527.295" y="-831.8" font-family="Times New Roman,serif" font-size="14.00" fill="lightgray">wff ( ph &lt;&#45;&gt; ps )</text>
</g>
<!-- n10764&#45;&gt;n10765 -->
<g id="edge28" class="edge"><title>n10764&#45;&gt;n10765</title>
<path fill="none" stroke="lightgray" d="M179.127,-781.283C210.29,-790.689 264.711,-807.116 300.013,-817.772"/>
<polygon fill="lightgray" stroke="lightgray" points="299.283,-821.208 309.868,-820.747 301.306,-814.506 299.283,-821.208"/>
<text text-anchor="middle" x="243" y="-817.8" font-family="Times New Roman,serif" font-size="14.00" fill="lightgray">wff ph</text>
</g>
<!-- n10767 -->
<g id="node24" class="node"><title>n10767</title>
<ellipse fill="none" stroke="lightgray" cx="154" cy="-720" rx="27" ry="18"/>
<text text-anchor="middle" x="154" y="-716.3" font-family="Times New Roman,serif" font-size="14.00" fill="lightgray">wps</text>
</g>
<!-- n10769 -->
<g id="node25" class="node"><title>n10769</title>
<ellipse fill="none" stroke="lightgray" cx="334.897" cy="-648" rx="27" ry="18"/>
<text text-anchor="middle" x="334.897" y="-644.3" font-family="Times New Roman,serif" font-size="14.00" fill="lightgray">wb</text>
</g>
<!-- n10767&#45;&gt;n10769 -->
<g id="edge33" class="edge"><title>n10767&#45;&gt;n10769</title>
<path fill="none" stroke="lightgray" d="M177.43,-711.019C203.7,-700.494 248.524,-682.518 287,-667 291.865,-665.038 297.013,-662.957 302.046,-660.92"/>
<polygon fill="lightgray" stroke="lightgray" points="303.525,-664.097 311.48,-657.099 300.897,-657.609 303.525,-664.097"/>
<text text-anchor="middle" x="243" y="-706.8" font-family="Times New Roman,serif" font-size="14.00" fill="lightgray">wff ps</text>
</g>
<!-- n10768 -->
<g id="node26" class="node"><title>n10768</title>
<ellipse fill="none" stroke="lightgray" cx="154" cy="-648" rx="27" ry="18"/>
<text text-anchor="middle" x="154" y="-644.3" font-family="Times New Roman,serif" font-size="14.00" fill="lightgray">wph</text>
</g>
<!-- n10767&#45;&gt;n10768 -->
<g id="edge36" class="edge"><title>n10767&#45;&gt;n10768</title>
</g>
<!-- n10769&#45;&gt;n10780 -->
<g id="edge35" class="edge"><title>n10769&#45;&gt;n10780</title>
<path fill="none" stroke="lightgray" d="M361.742,-645.61C427.563,-639.523 602.016,-623.391 682.906,-615.91"/>
<polygon fill="lightgray" stroke="lightgray" points="683.582,-619.363 693.217,-614.957 682.937,-612.393 683.582,-619.363"/>
<text text-anchor="middle" x="527.295" y="-647.8" font-family="Times New Roman,serif" font-size="14.00" fill="lightgray">wff ( ph &lt;&#45;&gt; ps )</text>
</g>
<!-- n10776 -->
<g id="node31" class="node"><title>n10776</title>
<ellipse fill="none" stroke="lightgray" cx="334.897" cy="-576" rx="27" ry="18"/>
<text text-anchor="middle" x="334.897" y="-572.3" font-family="Times New Roman,serif" font-size="14.00" fill="lightgray">wa</text>
</g>
<!-- n10769&#45;&gt;n10776 -->
<g id="edge52" class="edge"><title>n10769&#45;&gt;n10776</title>
</g>
<!-- n10768&#45;&gt;n10769 -->
<g id="edge34" class="edge"><title>n10768&#45;&gt;n10769</title>
<path fill="none" stroke="lightgray" d="M181.013,-648C211.751,-648 263.08,-648 297.69,-648"/>
<polygon fill="lightgray" stroke="lightgray" points="297.853,-651.5 307.853,-648 297.853,-644.5 297.853,-651.5"/>
<text text-anchor="middle" x="243" y="-651.8" font-family="Times New Roman,serif" font-size="14.00" fill="lightgray">wff ph</text>
</g>
<!-- n10780&#45;&gt;n10795 -->
<g id="edge51" class="edge"><title>n10780&#45;&gt;n10795</title>
<path fill="none" stroke="black" d="M756.218,-619.781C826.323,-638.575 1005.03,-686.48 1085.71,-708.11"/>
<polygon fill="black" stroke="black" points="1084.95,-711.528 1095.51,-710.737 1086.76,-704.767 1084.95,-711.528"/>
<text text-anchor="middle" x="927.088" y="-707.8" font-family="Times New Roman,serif" font-size="14.00">|&#45; ( ( ph &lt;&#45;&gt; ps ) &#45;&gt; ( ( ph &#45;&gt; ps ) /\ ( ps &#45;&gt; ph ) ) )</text>
</g>
<!-- n10794 -->
<g id="node41" class="node"><title>n10794</title>
<ellipse fill="cyan" stroke="black" cx="726.191" cy="-275" rx="36.2938" ry="18"/>
<text text-anchor="middle" x="726.191" y="-271.3" font-family="Times New Roman,serif" font-size="14.00">biimpri</text>
</g>
<!-- n10780&#45;&gt;n10794 -->
<g id="edge78" class="edge"><title>n10780&#45;&gt;n10794</title>
</g>
<!-- n10770 -->
<g id="node28" class="node"><title>n10770</title>
<ellipse fill="none" stroke="lightgray" cx="27" cy="-660" rx="27" ry="18"/>
<text text-anchor="middle" x="27" y="-656.3" font-family="Times New Roman,serif" font-size="14.00" fill="lightgray">wph</text>
</g>
<!-- n10772 -->
<g id="node29" class="node"><title>n10772</title>
<ellipse fill="none" stroke="lightgray" cx="154" cy="-594" rx="27" ry="18"/>
<text text-anchor="middle" x="154" y="-590.3" font-family="Times New Roman,serif" font-size="14.00" fill="lightgray">wi</text>
</g>
<!-- n10770&#45;&gt;n10772 -->
<g id="edge37" class="edge"><title>n10770&#45;&gt;n10772</title>
<path fill="none" stroke="lightgray" d="M48.6412,-649.101C68.9971,-638.354 100.317,-621.817 123.336,-609.662"/>
<polygon fill="lightgray" stroke="lightgray" points="125.119,-612.679 132.328,-604.915 121.851,-606.489 125.119,-612.679"/>
<text text-anchor="middle" x="90.5" y="-640.8" font-family="Times New Roman,serif" font-size="14.00" fill="lightgray">wff ph</text>
</g>
<!-- n10771 -->
<g id="node30" class="node"><title>n10771</title>
<ellipse fill="none" stroke="lightgray" cx="27" cy="-588" rx="27" ry="18"/>
<text text-anchor="middle" x="27" y="-584.3" font-family="Times New Roman,serif" font-size="14.00" fill="lightgray">wps</text>
</g>
<!-- n10770&#45;&gt;n10771 -->
<g id="edge40" class="edge"><title>n10770&#45;&gt;n10771</title>
</g>
<!-- n10772&#45;&gt;n10776 -->
<g id="edge39" class="edge"><title>n10772&#45;&gt;n10776</title>
<path fill="none" stroke="lightgray" d="M181.013,-591.383C211.839,-588.281 263.373,-583.096 297.986,-579.613"/>
<polygon fill="lightgray" stroke="lightgray" points="298.544,-583.075 308.143,-578.591 297.843,-576.11 298.544,-583.075"/>
<text text-anchor="middle" x="243" y="-593.8" font-family="Times New Roman,serif" font-size="14.00" fill="lightgray">wff ( ps &#45;&gt; ph )</text>
</g>
<!-- n10775 -->
<g id="node33" class="node"><title>n10775</title>
<ellipse fill="none" stroke="lightgray" cx="154" cy="-522" rx="27" ry="18"/>
<text text-anchor="middle" x="154" y="-518.3" font-family="Times New Roman,serif" font-size="14.00" fill="lightgray">wi</text>
</g>
<!-- n10772&#45;&gt;n10775 -->
<g id="edge46" class="edge"><title>n10772&#45;&gt;n10775</title>
</g>
<!-- n10771&#45;&gt;n10772 -->
<g id="edge38" class="edge"><title>n10771&#45;&gt;n10772</title>
<path fill="none" stroke="lightgray" d="M54.2041,-589.258C72.3711,-590.13 96.7994,-591.302 116.82,-592.263"/>
<polygon fill="lightgray" stroke="lightgray" points="116.674,-595.76 126.83,-592.744 117.01,-588.768 116.674,-595.76"/>
<text text-anchor="middle" x="90.5" y="-595.8" font-family="Times New Roman,serif" font-size="14.00" fill="lightgray">wff ps</text>
</g>
<!-- n10776&#45;&gt;n10780 -->
<g id="edge45" class="edge"><title>n10776&#45;&gt;n10780</title>
<path fill="none" stroke="lightgray" d="M362.198,-576.28C419.034,-577.218 557.422,-581.294 671.795,-599 676.553,-599.737 681.511,-600.688 686.404,-601.741"/>
<polygon fill="lightgray" stroke="lightgray" points="685.744,-605.18 696.273,-604.009 687.311,-598.358 685.744,-605.18"/>
<text text-anchor="middle" x="527.295" y="-602.8" font-family="Times New Roman,serif" font-size="14.00" fill="lightgray">wff ( ( ph &#45;&gt; ps ) /\ ( ps &#45;&gt; ph ) )</text>
</g>
<!-- n10779 -->
<g id="node36" class="node"><title>n10779</title>
<ellipse fill="cyan" stroke="black" cx="334.897" cy="-495" rx="29.795" ry="18"/>
<text text-anchor="middle" x="334.897" y="-491.3" font-family="Times New Roman,serif" font-size="14.00">dfbi2</text>
</g>
<!-- n10776&#45;&gt;n10779 -->
<g id="edge53" class="edge"><title>n10776&#45;&gt;n10779</title>
</g>
<!-- n10773 -->
<g id="node32" class="node"><title>n10773</title>
<ellipse fill="none" stroke="lightgray" cx="27" cy="-533" rx="27" ry="18"/>
<text text-anchor="middle" x="27" y="-529.3" font-family="Times New Roman,serif" font-size="14.00" fill="lightgray">wps</text>
</g>
<!-- n10773&#45;&gt;n10775 -->
<g id="edge41" class="edge"><title>n10773&#45;&gt;n10775</title>
<path fill="none" stroke="lightgray" d="M53.9001,-530.721C72.1687,-529.113 96.8789,-526.939 117.054,-525.163"/>
<polygon fill="lightgray" stroke="lightgray" points="117.478,-528.64 127.133,-524.276 116.865,-521.666 117.478,-528.64"/>
<text text-anchor="middle" x="90.5" y="-533.8" font-family="Times New Roman,serif" font-size="14.00" fill="lightgray">wff ps</text>
</g>
<!-- n10774 -->
<g id="node34" class="node"><title>n10774</title>
<ellipse fill="none" stroke="lightgray" cx="27" cy="-461" rx="27" ry="18"/>
<text text-anchor="middle" x="27" y="-457.3" font-family="Times New Roman,serif" font-size="14.00" fill="lightgray">wph</text>
</g>
<!-- n10773&#45;&gt;n10774 -->
<g id="edge44" class="edge"><title>n10773&#45;&gt;n10774</title>
</g>
<!-- n10775&#45;&gt;n10776 -->
<g id="edge43" class="edge"><title>n10775&#45;&gt;n10776</title>
<path fill="none" stroke="lightgray" d="M179.127,-529.283C210.29,-538.689 264.711,-555.116 300.013,-565.772"/>
<polygon fill="lightgray" stroke="lightgray" points="299.283,-569.208 309.868,-568.747 301.306,-562.506 299.283,-569.208"/>
<text text-anchor="middle" x="243" y="-565.8" font-family="Times New Roman,serif" font-size="14.00" fill="lightgray">wff ( ph &#45;&gt; ps )</text>
</g>
<!-- n10774&#45;&gt;n10775 -->
<g id="edge42" class="edge"><title>n10774&#45;&gt;n10775</title>
<path fill="none" stroke="lightgray" d="M49.2045,-471.348C69.3173,-481.163 99.757,-496.017 122.479,-507.106"/>
<polygon fill="lightgray" stroke="lightgray" points="121.169,-510.361 131.691,-511.601 124.239,-504.07 121.169,-510.361"/>
<text text-anchor="middle" x="90.5" y="-504.8" font-family="Times New Roman,serif" font-size="14.00" fill="lightgray">wff ph</text>
</g>
<!-- n10777 -->
<g id="node35" class="node"><title>n10777</title>
<ellipse fill="none" stroke="lightgray" cx="154" cy="-468" rx="27" ry="18"/>
<text text-anchor="middle" x="154" y="-464.3" font-family="Times New Roman,serif" font-size="14.00" fill="lightgray">wph</text>
</g>
<!-- n10777&#45;&gt;n10779 -->
<g id="edge47" class="edge"><title>n10777&#45;&gt;n10779</title>
<path fill="none" stroke="lightgray" d="M180.632,-471.868C210.664,-476.401 260.722,-483.956 295.421,-489.193"/>
<polygon fill="lightgray" stroke="lightgray" points="295.247,-492.706 305.657,-490.738 296.291,-485.785 295.247,-492.706"/>
<text text-anchor="middle" x="243" y="-491.8" font-family="Times New Roman,serif" font-size="14.00" fill="lightgray">wff ph</text>
</g>
<!-- n10778 -->
<g id="node37" class="node"><title>n10778</title>
<ellipse fill="none" stroke="lightgray" cx="154" cy="-396" rx="27" ry="18"/>
<text text-anchor="middle" x="154" y="-392.3" font-family="Times New Roman,serif" font-size="14.00" fill="lightgray">wps</text>
</g>
<!-- n10777&#45;&gt;n10778 -->
<g id="edge50" class="edge"><title>n10777&#45;&gt;n10778</title>
</g>
<!-- n10779&#45;&gt;n10780 -->
<g id="edge49" class="edge"><title>n10779&#45;&gt;n10780</title>
<path fill="none" stroke="black" d="M365.211,-494.766C426.028,-495.462 568.827,-503.315 671.795,-558 685.249,-565.146 697.436,-576.842 706.759,-587.525"/>
<polygon fill="black" stroke="black" points="704.222,-589.948 713.303,-595.405 709.607,-585.476 704.222,-589.948"/>
<text text-anchor="middle" x="527.295" y="-561.8" font-family="Times New Roman,serif" font-size="14.00">|&#45; ( ( ph &lt;&#45;&gt; ps ) &lt;&#45;&gt; ( ( ph &#45;&gt; ps ) /\ ( ps &#45;&gt; ph ) ) )</text>
</g>
<!-- n10778&#45;&gt;n10779 -->
<g id="edge48" class="edge"><title>n10778&#45;&gt;n10779</title>
<path fill="none" stroke="lightgray" d="M177.825,-404.533C204.857,-415.088 250.783,-434.448 287,-457 294.8,-461.857 302.759,-467.845 309.853,-473.62"/>
<polygon fill="lightgray" stroke="lightgray" points="307.811,-476.475 317.722,-480.22 312.309,-471.112 307.811,-476.475"/>
<text text-anchor="middle" x="243" y="-460.8" font-family="Times New Roman,serif" font-size="14.00" fill="lightgray">wff ps</text>
</g>
<!-- n10781 -->
<g id="node38" class="node"><title>n10781</title>
<ellipse fill="none" stroke="lightgray" cx="154" cy="-342" rx="27" ry="18"/>
<text text-anchor="middle" x="154" y="-338.3" font-family="Times New Roman,serif" font-size="14.00" fill="lightgray">wps</text>
</g>
<!-- n10783 -->
<g id="node39" class="node"><title>n10783</title>
<ellipse fill="none" stroke="lightgray" cx="334.897" cy="-275" rx="27" ry="18"/>
<text text-anchor="middle" x="334.897" y="-271.3" font-family="Times New Roman,serif" font-size="14.00" fill="lightgray">wb</text>
</g>
<!-- n10781&#45;&gt;n10783 -->
<g id="edge54" class="edge"><title>n10781&#45;&gt;n10783</title>
<path fill="none" stroke="lightgray" d="M177.921,-333.578C204.272,-323.877 248.808,-307.417 287,-293 291.651,-291.244 296.555,-289.378 301.37,-287.538"/>
<polygon fill="lightgray" stroke="lightgray" points="302.933,-290.687 311.018,-283.84 300.427,-284.151 302.933,-290.687"/>
<text text-anchor="middle" x="243" y="-329.8" font-family="Times New Roman,serif" font-size="14.00" fill="lightgray">wff ps</text>
</g>
<!-- n10782 -->
<g id="node40" class="node"><title>n10782</title>
<ellipse fill="none" stroke="lightgray" cx="154" cy="-270" rx="27" ry="18"/>
<text text-anchor="middle" x="154" y="-266.3" font-family="Times New Roman,serif" font-size="14.00" fill="lightgray">wph</text>
</g>
<!-- n10781&#45;&gt;n10782 -->
<g id="edge57" class="edge"><title>n10781&#45;&gt;n10782</title>
</g>
<!-- n10783&#45;&gt;n10794 -->
<g id="edge56" class="edge"><title>n10783&#45;&gt;n10794</title>
<path fill="none" stroke="lightgray" d="M362.045,-275C427.193,-275 597.401,-275 679.541,-275"/>
<polygon fill="lightgray" stroke="lightgray" points="679.582,-278.5 689.582,-275 679.582,-271.5 679.582,-278.5"/>
<text text-anchor="middle" x="527.295" y="-278.8" font-family="Times New Roman,serif" font-size="14.00" fill="lightgray">wff ( ph &lt;&#45;&gt; ps )</text>
</g>
<!-- n10790 -->
<g id="node45" class="node"><title>n10790</title>
<ellipse fill="none" stroke="lightgray" cx="334.897" cy="-203" rx="27" ry="18"/>
<text text-anchor="middle" x="334.897" y="-199.3" font-family="Times New Roman,serif" font-size="14.00" fill="lightgray">wa</text>
</g>
<!-- n10783&#45;&gt;n10790 -->
<g id="edge73" class="edge"><title>n10783&#45;&gt;n10790</title>
</g>
<!-- n10782&#45;&gt;n10783 -->
<g id="edge55" class="edge"><title>n10782&#45;&gt;n10783</title>
<path fill="none" stroke="lightgray" d="M181.013,-270.727C211.751,-271.586 263.08,-273.021 297.69,-273.988"/>
<polygon fill="lightgray" stroke="lightgray" points="297.759,-277.491 307.853,-274.272 297.954,-270.494 297.759,-277.491"/>
<text text-anchor="middle" x="243" y="-277.8" font-family="Times New Roman,serif" font-size="14.00" fill="lightgray">wff ph</text>
</g>
<!-- n10794&#45;&gt;n10795 -->
<g id="edge72" class="edge"><title>n10794&#45;&gt;n10795</title>
<path fill="none" stroke="black" d="M747.185,-290.011C804.382,-333.769 971.133,-467.106 1073.59,-609 1092.27,-634.877 1107.24,-668.406 1116.39,-691.611"/>
<polygon fill="black" stroke="black" points="1113.21,-693.096 1120.06,-701.177 1119.74,-690.587 1113.21,-693.096"/>
<text text-anchor="middle" x="927.088" y="-612.8" font-family="Times New Roman,serif" font-size="14.00">|&#45; ( ( ( ph &#45;&gt; ps ) /\ ( ps &#45;&gt; ph ) ) &#45;&gt; ( ph &lt;&#45;&gt; ps ) )</text>
</g>
<!-- n10784 -->
<g id="node42" class="node"><title>n10784</title>
<ellipse fill="none" stroke="lightgray" cx="27" cy="-277" rx="27" ry="18"/>
<text text-anchor="middle" x="27" y="-273.3" font-family="Times New Roman,serif" font-size="14.00" fill="lightgray">wph</text>
</g>
<!-- n10786 -->
<g id="node43" class="node"><title>n10786</title>
<ellipse fill="none" stroke="lightgray" cx="154" cy="-216" rx="27" ry="18"/>
<text text-anchor="middle" x="154" y="-212.3" font-family="Times New Roman,serif" font-size="14.00" fill="lightgray">wi</text>
</g>
<!-- n10784&#45;&gt;n10786 -->
<g id="edge58" class="edge"><title>n10784&#45;&gt;n10786</title>
<path fill="none" stroke="lightgray" d="M49.2045,-266.652C69.3173,-256.837 99.757,-241.983 122.479,-230.894"/>
<polygon fill="lightgray" stroke="lightgray" points="124.239,-233.93 131.691,-226.399 121.169,-227.639 124.239,-233.93"/>
<text text-anchor="middle" x="90.5" y="-259.8" font-family="Times New Roman,serif" font-size="14.00" fill="lightgray">wff ph</text>
</g>
<!-- n10785 -->
<g id="node44" class="node"><title>n10785</title>
<ellipse fill="none" stroke="lightgray" cx="27" cy="-205" rx="27" ry="18"/>
<text text-anchor="middle" x="27" y="-201.3" font-family="Times New Roman,serif" font-size="14.00" fill="lightgray">wps</text>
</g>
<!-- n10784&#45;&gt;n10785 -->
<g id="edge61" class="edge"><title>n10784&#45;&gt;n10785</title>
</g>
<!-- n10786&#45;&gt;n10790 -->
<g id="edge60" class="edge"><title>n10786&#45;&gt;n10790</title>
<path fill="none" stroke="lightgray" d="M181.013,-214.11C211.751,-211.876 263.08,-208.146 297.69,-205.631"/>
<polygon fill="lightgray" stroke="lightgray" points="298.133,-209.108 307.853,-204.893 297.625,-202.127 298.133,-209.108"/>
<text text-anchor="middle" x="243" y="-216.8" font-family="Times New Roman,serif" font-size="14.00" fill="lightgray">wff ( ps &#45;&gt; ph )</text>
</g>
<!-- n10789 -->
<g id="node47" class="node"><title>n10789</title>
<ellipse fill="none" stroke="lightgray" cx="154" cy="-144" rx="27" ry="18"/>
<text text-anchor="middle" x="154" y="-140.3" font-family="Times New Roman,serif" font-size="14.00" fill="lightgray">wi</text>
</g>
<!-- n10786&#45;&gt;n10789 -->
<g id="edge67" class="edge"><title>n10786&#45;&gt;n10789</title>
</g>
<!-- n10785&#45;&gt;n10786 -->
<g id="edge59" class="edge"><title>n10785&#45;&gt;n10786</title>
<path fill="none" stroke="lightgray" d="M53.9001,-207.279C72.1687,-208.887 96.8789,-211.061 117.054,-212.837"/>
<polygon fill="lightgray" stroke="lightgray" points="116.865,-216.334 127.133,-213.724 117.478,-209.36 116.865,-216.334"/>
<text text-anchor="middle" x="90.5" y="-216.8" font-family="Times New Roman,serif" font-size="14.00" fill="lightgray">wff ps</text>
</g>
<!-- n10790&#45;&gt;n10794 -->
<g id="edge66" class="edge"><title>n10790&#45;&gt;n10794</title>
<path fill="none" stroke="lightgray" d="M361.934,-205.446C418.826,-211.153 558.226,-227.101 671.795,-256 676.908,-257.301 682.222,-258.891 687.429,-260.591"/>
<polygon fill="lightgray" stroke="lightgray" points="686.633,-264.018 697.227,-263.951 688.903,-257.397 686.633,-264.018"/>
<text text-anchor="middle" x="527.295" y="-259.8" font-family="Times New Roman,serif" font-size="14.00" fill="lightgray">wff ( ( ph &#45;&gt; ps ) /\ ( ps &#45;&gt; ph ) )</text>
</g>
<!-- n10793 -->
<g id="node50" class="node"><title>n10793</title>
<ellipse fill="cyan" stroke="black" cx="334.897" cy="-104" rx="29.795" ry="18"/>
<text text-anchor="middle" x="334.897" y="-100.3" font-family="Times New Roman,serif" font-size="14.00">dfbi2</text>
</g>
<!-- n10790&#45;&gt;n10793 -->
<g id="edge74" class="edge"><title>n10790&#45;&gt;n10793</title>
</g>
<!-- n10787 -->
<g id="node46" class="node"><title>n10787</title>
<ellipse fill="none" stroke="lightgray" cx="27" cy="-150" rx="27" ry="18"/>
<text text-anchor="middle" x="27" y="-146.3" font-family="Times New Roman,serif" font-size="14.00" fill="lightgray">wps</text>
</g>
<!-- n10787&#45;&gt;n10789 -->
<g id="edge62" class="edge"><title>n10787&#45;&gt;n10789</title>
<path fill="none" stroke="lightgray" d="M54.2041,-148.742C72.3711,-147.87 96.7994,-146.698 116.82,-145.737"/>
<polygon fill="lightgray" stroke="lightgray" points="117.01,-149.232 126.83,-145.256 116.674,-142.24 117.01,-149.232"/>
<text text-anchor="middle" x="90.5" y="-151.8" font-family="Times New Roman,serif" font-size="14.00" fill="lightgray">wff ps</text>
</g>
<!-- n10788 -->
<g id="node48" class="node"><title>n10788</title>
<ellipse fill="none" stroke="lightgray" cx="27" cy="-78" rx="27" ry="18"/>
<text text-anchor="middle" x="27" y="-74.3" font-family="Times New Roman,serif" font-size="14.00" fill="lightgray">wph</text>
</g>
<!-- n10787&#45;&gt;n10788 -->
<g id="edge65" class="edge"><title>n10787&#45;&gt;n10788</title>
</g>
<!-- n10789&#45;&gt;n10790 -->
<g id="edge64" class="edge"><title>n10789&#45;&gt;n10790</title>
<path fill="none" stroke="lightgray" d="M178.756,-151.835C209.985,-162.134 265.023,-180.285 300.451,-191.97"/>
<polygon fill="lightgray" stroke="lightgray" points="299.735,-195.419 310.328,-195.227 301.927,-188.771 299.735,-195.419"/>
<text text-anchor="middle" x="243" y="-191.8" font-family="Times New Roman,serif" font-size="14.00" fill="lightgray">wff ( ph &#45;&gt; ps )</text>
</g>
<!-- n10788&#45;&gt;n10789 -->
<g id="edge63" class="edge"><title>n10788&#45;&gt;n10789</title>
<path fill="none" stroke="lightgray" d="M48.6412,-88.8986C68.9971,-99.6465 100.317,-116.183 123.336,-128.338"/>
<polygon fill="lightgray" stroke="lightgray" points="121.851,-131.511 132.328,-133.085 125.119,-125.321 121.851,-131.511"/>
<text text-anchor="middle" x="90.5" y="-124.8" font-family="Times New Roman,serif" font-size="14.00" fill="lightgray">wff ph</text>
</g>
<!-- n10791 -->
<g id="node49" class="node"><title>n10791</title>
<ellipse fill="none" stroke="lightgray" cx="154" cy="-90" rx="27" ry="18"/>
<text text-anchor="middle" x="154" y="-86.3" font-family="Times New Roman,serif" font-size="14.00" fill="lightgray">wps</text>
</g>
<!-- n10791&#45;&gt;n10793 -->
<g id="edge68" class="edge"><title>n10791&#45;&gt;n10793</title>
<path fill="none" stroke="lightgray" d="M181.013,-92.0357C210.961,-94.3793 260.453,-98.2525 294.987,-100.955"/>
<polygon fill="lightgray" stroke="lightgray" points="294.944,-104.462 305.186,-101.753 295.49,-97.4835 294.944,-104.462"/>
<text text-anchor="middle" x="243" y="-104.8" font-family="Times New Roman,serif" font-size="14.00" fill="lightgray">wff ps</text>
</g>
<!-- n10792 -->
<g id="node51" class="node"><title>n10792</title>
<ellipse fill="none" stroke="lightgray" cx="154" cy="-18" rx="27" ry="18"/>
<text text-anchor="middle" x="154" y="-14.3" font-family="Times New Roman,serif" font-size="14.00" fill="lightgray">wph</text>
</g>
<!-- n10791&#45;&gt;n10792 -->
<g id="edge71" class="edge"><title>n10791&#45;&gt;n10792</title>
</g>
<!-- n10793&#45;&gt;n10794 -->
<g id="edge70" class="edge"><title>n10793&#45;&gt;n10794</title>
<path fill="none" stroke="black" d="M364.982,-104.426C427.228,-106.724 575.506,-119.754 671.795,-190 691.696,-204.519 705.9,-228.921 714.631,-247.864"/>
<polygon fill="black" stroke="black" points="711.493,-249.425 718.699,-257.192 717.909,-246.626 711.493,-249.425"/>
<text text-anchor="middle" x="527.295" y="-193.8" font-family="Times New Roman,serif" font-size="14.00">|&#45; ( ( ph &lt;&#45;&gt; ps ) &lt;&#45;&gt; ( ( ph &#45;&gt; ps ) /\ ( ps &#45;&gt; ph ) ) )</text>
</g>
<!-- n10792&#45;&gt;n10793 -->
<g id="edge69" class="edge"><title>n10792&#45;&gt;n10793</title>
<path fill="none" stroke="lightgray" d="M177.888,-26.7011C204.589,-37.12 249.817,-55.6078 287,-75 293.159,-78.2121 299.594,-81.9332 305.655,-85.6167"/>
<polygon fill="lightgray" stroke="lightgray" points="303.849,-88.6152 314.189,-90.9229 307.545,-82.6705 303.849,-88.6152"/>
<text text-anchor="middle" x="243" y="-78.8" font-family="Times New Roman,serif" font-size="14.00" fill="lightgray">wff ph</text>
</g>
</g>
</svg>
