<?xml version="1.0" encoding="UTF-8" standalone="no"?>
<!DOCTYPE svg PUBLIC "-//W3C//DTD SVG 1.1//EN"
 "http://www.w3.org/Graphics/SVG/1.1/DTD/svg11.dtd">
<!-- Generated by graphviz version 2.38.0 (20140413.2041)
 -->
<!-- Title: proof_ecased Pages: 1 -->
<svg width="1348pt" height="660pt"
 viewBox="0.00 0.00 1348.07 660.00" xmlns="http://www.w3.org/2000/svg" xmlns:xlink="http://www.w3.org/1999/xlink">
<g id="graph0" class="graph" transform="scale(1 1) rotate(0) translate(4 656)">
<title>proof_ecased</title>
<polygon fill="white" stroke="none" points="-4,4 -4,-656 1344.07,-656 1344.07,4 -4,4"/>
<!-- n17111 -->
<g id="node1" class="node"><title>n17111</title>
<ellipse fill="none" stroke="lightgray" cx="813.739" cy="-634" rx="27" ry="18"/>
<text text-anchor="middle" x="813.739" y="-630.3" font-family="Times New Roman,serif" font-size="14.00" fill="lightgray">wph</text>
</g>
<!-- n17135 -->
<g id="node2" class="node"><title>n17135</title>
<ellipse fill="cyan" stroke="black" cx="1132.28" cy="-418" rx="40.0939" ry="18"/>
<text text-anchor="middle" x="1132.28" y="-414.3" font-family="Times New Roman,serif" font-size="14.00">ecase3d</text>
</g>
<!-- n17111&#45;&gt;n17135 -->
<g id="edge1" class="edge"><title>n17111&#45;&gt;n17135</title>
<path fill="none" stroke="lightgray" d="M840.775,-635.952C891.979,-638.321 1006.64,-636.147 1073.99,-577 1112.25,-543.397 1124.96,-482.282 1129.19,-446.4"/>
<polygon fill="lightgray" stroke="lightgray" points="1132.7,-446.438 1130.24,-436.133 1125.74,-445.722 1132.7,-446.438"/>
<text text-anchor="middle" x="973.985" y="-639.8" font-family="Times New Roman,serif" font-size="14.00" fill="lightgray">wff ph</text>
</g>
<!-- n17113 -->
<g id="node4" class="node"><title>n17113</title>
<ellipse fill="none" stroke="lightgray" cx="813.739" cy="-562" rx="27" ry="18"/>
<text text-anchor="middle" x="813.739" y="-558.3" font-family="Times New Roman,serif" font-size="14.00" fill="lightgray">wn</text>
</g>
<!-- n17111&#45;&gt;n17113 -->
<g id="edge34" class="edge"><title>n17111&#45;&gt;n17113</title>
</g>
<!-- QED -->
<g id="node26" class="node"><title>QED</title>
</g>
<!-- n17135&#45;&gt;QED -->
<g id="edge33" class="edge"><title>n17135&#45;&gt;QED</title>
<path fill="none" stroke="black" d="M1172.9,-418C1202.24,-418 1242,-418 1271.12,-418"/>
<polygon fill="black" stroke="black" points="1271.32,-421.5 1281.32,-418 1271.32,-414.5 1271.32,-421.5"/>
<text text-anchor="middle" x="1227.08" y="-421.8" font-family="Times New Roman,serif" font-size="14.00">|&#45; ( ph &#45;&gt; th )</text>
</g>
<!-- n17112 -->
<g id="node3" class="node"><title>n17112</title>
<ellipse fill="none" stroke="lightgray" cx="500.246" cy="-562" rx="27" ry="18"/>
<text text-anchor="middle" x="500.246" y="-558.3" font-family="Times New Roman,serif" font-size="14.00" fill="lightgray">wps</text>
</g>
<!-- n17112&#45;&gt;n17113 -->
<g id="edge2" class="edge"><title>n17112&#45;&gt;n17113</title>
<path fill="none" stroke="lightgray" d="M527.268,-562C582.695,-562 712.53,-562 776.211,-562"/>
<polygon fill="lightgray" stroke="lightgray" points="776.572,-565.5 786.572,-562 776.572,-558.5 776.572,-565.5"/>
<text text-anchor="middle" x="656.993" y="-565.8" font-family="Times New Roman,serif" font-size="14.00" fill="lightgray">wff ps</text>
</g>
<!-- n17113&#45;&gt;n17135 -->
<g id="edge3" class="edge"><title>n17113&#45;&gt;n17135</title>
<path fill="none" stroke="lightgray" d="M841.042,-561.382C890.751,-559.027 1000.11,-548.069 1073.99,-498 1093.43,-484.818 1108.52,-462.71 1118.32,-445.071"/>
<polygon fill="lightgray" stroke="lightgray" points="1121.64,-446.293 1123.22,-435.817 1115.45,-443.021 1121.64,-446.293"/>
<text text-anchor="middle" x="973.985" y="-561.8" font-family="Times New Roman,serif" font-size="14.00" fill="lightgray">wff &#45;. ps</text>
</g>
<!-- n17115 -->
<g id="node6" class="node"><title>n17115</title>
<ellipse fill="none" stroke="lightgray" cx="813.739" cy="-490" rx="27" ry="18"/>
<text text-anchor="middle" x="813.739" y="-486.3" font-family="Times New Roman,serif" font-size="14.00" fill="lightgray">wn</text>
</g>
<!-- n17113&#45;&gt;n17115 -->
<g id="edge35" class="edge"><title>n17113&#45;&gt;n17115</title>
</g>
<!-- n17114 -->
<g id="node5" class="node"><title>n17114</title>
<ellipse fill="none" stroke="lightgray" cx="500.246" cy="-490" rx="27" ry="18"/>
<text text-anchor="middle" x="500.246" y="-486.3" font-family="Times New Roman,serif" font-size="14.00" fill="lightgray">wch</text>
</g>
<!-- n17114&#45;&gt;n17115 -->
<g id="edge4" class="edge"><title>n17114&#45;&gt;n17115</title>
<path fill="none" stroke="lightgray" d="M527.268,-490C582.695,-490 712.53,-490 776.211,-490"/>
<polygon fill="lightgray" stroke="lightgray" points="776.572,-493.5 786.572,-490 776.572,-486.5 776.572,-493.5"/>
<text text-anchor="middle" x="656.993" y="-493.8" font-family="Times New Roman,serif" font-size="14.00" fill="lightgray">wff ch</text>
</g>
<!-- n17115&#45;&gt;n17135 -->
<g id="edge5" class="edge"><title>n17115&#45;&gt;n17135</title>
<path fill="none" stroke="lightgray" d="M840.363,-485.801C887.162,-477.901 989.434,-459.577 1073.99,-437 1079.36,-435.564 1084.98,-433.905 1090.5,-432.179"/>
<polygon fill="lightgray" stroke="lightgray" points="1091.82,-435.431 1100.26,-429.031 1089.67,-428.769 1091.82,-435.431"/>
<text text-anchor="middle" x="973.985" y="-482.8" font-family="Times New Roman,serif" font-size="14.00" fill="lightgray">wff &#45;. ch</text>
</g>
<!-- n17116 -->
<g id="node7" class="node"><title>n17116</title>
<ellipse fill="none" stroke="lightgray" cx="813.739" cy="-418" rx="27" ry="18"/>
<text text-anchor="middle" x="813.739" y="-414.3" font-family="Times New Roman,serif" font-size="14.00" fill="lightgray">wth</text>
</g>
<!-- n17115&#45;&gt;n17116 -->
<g id="edge36" class="edge"><title>n17115&#45;&gt;n17116</title>
</g>
<!-- n17116&#45;&gt;n17135 -->
<g id="edge6" class="edge"><title>n17116&#45;&gt;n17135</title>
<path fill="none" stroke="lightgray" d="M840.912,-418C893.746,-418 1013.89,-418 1081.92,-418"/>
<polygon fill="lightgray" stroke="lightgray" points="1081.97,-421.5 1091.97,-418 1081.97,-414.5 1081.97,-421.5"/>
<text text-anchor="middle" x="973.985" y="-421.8" font-family="Times New Roman,serif" font-size="14.00" fill="lightgray">wff th</text>
</g>
<!-- n17117 -->
<g id="node8" class="node"><title>n17117</title>
<ellipse fill="orange" stroke="black" cx="813.739" cy="-346" rx="42.4939" ry="18"/>
<text text-anchor="middle" x="813.739" y="-342.3" font-family="Times New Roman,serif" font-size="14.00">ecased.1</text>
</g>
<!-- n17116&#45;&gt;n17117 -->
<g id="edge37" class="edge"><title>n17116&#45;&gt;n17117</title>
</g>
<!-- n17117&#45;&gt;n17135 -->
<g id="edge7" class="edge"><title>n17117&#45;&gt;n17135</title>
<path fill="none" stroke="black" d="M853.285,-352.407C904.217,-361.207 996.535,-378.32 1073.99,-399 1079.36,-400.436 1084.98,-402.095 1090.5,-403.821"/>
<polygon fill="black" stroke="black" points="1089.67,-407.231 1100.26,-406.969 1091.82,-400.569 1089.67,-407.231"/>
<text text-anchor="middle" x="973.985" y="-402.8" font-family="Times New Roman,serif" font-size="14.00">|&#45; ( ph &#45;&gt; ( &#45;. ps &#45;&gt; th ) )</text>
</g>
<!-- n17118 -->
<g id="node9" class="node"><title>n17118</title>
<ellipse fill="orange" stroke="black" cx="813.739" cy="-274" rx="42.4939" ry="18"/>
<text text-anchor="middle" x="813.739" y="-270.3" font-family="Times New Roman,serif" font-size="14.00">ecased.2</text>
</g>
<!-- n17117&#45;&gt;n17118 -->
<g id="edge38" class="edge"><title>n17117&#45;&gt;n17118</title>
</g>
<!-- n17118&#45;&gt;n17135 -->
<g id="edge8" class="edge"><title>n17118&#45;&gt;n17135</title>
<path fill="none" stroke="black" d="M856.007,-275.497C910.341,-279.289 1006.83,-292.483 1073.99,-338 1093.43,-351.182 1108.52,-373.29 1118.32,-390.929"/>
<polygon fill="black" stroke="black" points="1115.45,-392.979 1123.22,-400.183 1121.64,-389.707 1115.45,-392.979"/>
<text text-anchor="middle" x="973.985" y="-341.8" font-family="Times New Roman,serif" font-size="14.00">|&#45; ( ph &#45;&gt; ( &#45;. ch &#45;&gt; th ) )</text>
</g>
<!-- n17134 -->
<g id="node16" class="node"><title>n17134</title>
<ellipse fill="cyan" stroke="black" cx="813.739" cy="-202" rx="27" ry="18"/>
<text text-anchor="middle" x="813.739" y="-198.3" font-family="Times New Roman,serif" font-size="14.00">syl5</text>
</g>
<!-- n17118&#45;&gt;n17134 -->
<g id="edge39" class="edge"><title>n17118&#45;&gt;n17134</title>
</g>
<!-- n17119 -->
<g id="node10" class="node"><title>n17119</title>
<ellipse fill="none" stroke="lightgray" cx="27" cy="-423" rx="27" ry="18"/>
<text text-anchor="middle" x="27" y="-419.3" font-family="Times New Roman,serif" font-size="14.00" fill="lightgray">wps</text>
</g>
<!-- n17120 -->
<g id="node11" class="node"><title>n17120</title>
<ellipse fill="none" stroke="lightgray" cx="154" cy="-423" rx="27" ry="18"/>
<text text-anchor="middle" x="154" y="-419.3" font-family="Times New Roman,serif" font-size="14.00" fill="lightgray">wn</text>
</g>
<!-- n17119&#45;&gt;n17120 -->
<g id="edge9" class="edge"><title>n17119&#45;&gt;n17120</title>
<path fill="none" stroke="lightgray" d="M54.2041,-423C72.3711,-423 96.7994,-423 116.82,-423"/>
<polygon fill="lightgray" stroke="lightgray" points="116.83,-426.5 126.83,-423 116.83,-419.5 116.83,-426.5"/>
<text text-anchor="middle" x="90.5" y="-426.8" font-family="Times New Roman,serif" font-size="14.00" fill="lightgray">wff ps</text>
</g>
<!-- n17123 -->
<g id="node12" class="node"><title>n17123</title>
<ellipse fill="none" stroke="lightgray" cx="293" cy="-378" rx="27" ry="18"/>
<text text-anchor="middle" x="293" y="-374.3" font-family="Times New Roman,serif" font-size="14.00" fill="lightgray">wo</text>
</g>
<!-- n17120&#45;&gt;n17123 -->
<g id="edge10" class="edge"><title>n17120&#45;&gt;n17123</title>
<path fill="none" stroke="lightgray" d="M178.551,-415.264C200.606,-408.02 233.791,-397.12 258.581,-388.977"/>
<polygon fill="lightgray" stroke="lightgray" points="259.889,-392.231 268.298,-385.785 257.705,-385.581 259.889,-392.231"/>
<text text-anchor="middle" x="223.5" y="-412.8" font-family="Times New Roman,serif" font-size="14.00" fill="lightgray">wff &#45;. ps</text>
</g>
<!-- n17122 -->
<g id="node14" class="node"><title>n17122</title>
<ellipse fill="none" stroke="lightgray" cx="154" cy="-351" rx="27" ry="18"/>
<text text-anchor="middle" x="154" y="-347.3" font-family="Times New Roman,serif" font-size="14.00" fill="lightgray">wn</text>
</g>
<!-- n17120&#45;&gt;n17122 -->
<g id="edge14" class="edge"><title>n17120&#45;&gt;n17122</title>
</g>
<!-- n17124 -->
<g id="node15" class="node"><title>n17124</title>
<ellipse fill="none" stroke="lightgray" cx="500.246" cy="-378" rx="27" ry="18"/>
<text text-anchor="middle" x="500.246" y="-374.3" font-family="Times New Roman,serif" font-size="14.00" fill="lightgray">wn</text>
</g>
<!-- n17123&#45;&gt;n17124 -->
<g id="edge13" class="edge"><title>n17123&#45;&gt;n17124</title>
<path fill="none" stroke="lightgray" d="M320.412,-378C356.666,-378 421.991,-378 462.855,-378"/>
<polygon fill="lightgray" stroke="lightgray" points="462.935,-381.5 472.935,-378 462.935,-374.5 462.935,-381.5"/>
<text text-anchor="middle" x="389" y="-381.8" font-family="Times New Roman,serif" font-size="14.00" fill="lightgray">wff ( &#45;. ps / &#45;. ch )</text>
</g>
<!-- n17121 -->
<g id="node13" class="node"><title>n17121</title>
<ellipse fill="none" stroke="lightgray" cx="27" cy="-351" rx="27" ry="18"/>
<text text-anchor="middle" x="27" y="-347.3" font-family="Times New Roman,serif" font-size="14.00" fill="lightgray">wch</text>
</g>
<!-- n17121&#45;&gt;n17122 -->
<g id="edge11" class="edge"><title>n17121&#45;&gt;n17122</title>
<path fill="none" stroke="lightgray" d="M54.2041,-351C72.3711,-351 96.7994,-351 116.82,-351"/>
<polygon fill="lightgray" stroke="lightgray" points="116.83,-354.5 126.83,-351 116.83,-347.5 116.83,-354.5"/>
<text text-anchor="middle" x="90.5" y="-354.8" font-family="Times New Roman,serif" font-size="14.00" fill="lightgray">wff ch</text>
</g>
<!-- n17122&#45;&gt;n17123 -->
<g id="edge12" class="edge"><title>n17122&#45;&gt;n17123</title>
<path fill="none" stroke="lightgray" d="M180.128,-355.952C201.526,-360.169 232.517,-366.277 256.457,-370.995"/>
<polygon fill="lightgray" stroke="lightgray" points="256.079,-374.488 266.567,-372.988 257.433,-367.62 256.079,-374.488"/>
<text text-anchor="middle" x="223.5" y="-373.8" font-family="Times New Roman,serif" font-size="14.00" fill="lightgray">wff &#45;. ch</text>
</g>
<!-- n17124&#45;&gt;n17134 -->
<g id="edge15" class="edge"><title>n17124&#45;&gt;n17134</title>
<path fill="none" stroke="lightgray" d="M527.127,-379.915C577.92,-382.16 691.128,-379.451 753.493,-318 776.681,-295.152 756.026,-275.645 771.493,-247 776.152,-238.371 782.831,-230.101 789.462,-223.058"/>
<polygon fill="lightgray" stroke="lightgray" points="791.973,-225.497 796.54,-215.937 787.008,-220.562 791.973,-225.497"/>
<text text-anchor="middle" x="656.993" y="-384.8" font-family="Times New Roman,serif" font-size="14.00" fill="lightgray">wff &#45;. ( &#45;. ps / &#45;. ch )</text>
</g>
<!-- n17127 -->
<g id="node18" class="node"><title>n17127</title>
<ellipse fill="none" stroke="lightgray" cx="500.246" cy="-306" rx="27" ry="18"/>
<text text-anchor="middle" x="500.246" y="-302.3" font-family="Times New Roman,serif" font-size="14.00" fill="lightgray">wa</text>
</g>
<!-- n17124&#45;&gt;n17127 -->
<g id="edge28" class="edge"><title>n17124&#45;&gt;n17127</title>
</g>
<!-- n17134&#45;&gt;n17135 -->
<g id="edge27" class="edge"><title>n17134&#45;&gt;n17135</title>
<path fill="none" stroke="black" d="M840.775,-200.048C891.979,-197.679 1006.64,-199.853 1073.99,-259 1112.25,-292.603 1124.96,-353.718 1129.19,-389.6"/>
<polygon fill="black" stroke="black" points="1125.74,-390.278 1130.24,-399.867 1132.7,-389.562 1125.74,-390.278"/>
<text text-anchor="middle" x="973.985" y="-262.8" font-family="Times New Roman,serif" font-size="14.00">|&#45; ( ph &#45;&gt; ( &#45;. ( &#45;. ps / &#45;. ch ) &#45;&gt; th ) )</text>
</g>
<!-- n17125 -->
<g id="node17" class="node"><title>n17125</title>
<ellipse fill="none" stroke="lightgray" cx="293" cy="-320" rx="27" ry="18"/>
<text text-anchor="middle" x="293" y="-316.3" font-family="Times New Roman,serif" font-size="14.00" fill="lightgray">wps</text>
</g>
<!-- n17125&#45;&gt;n17127 -->
<g id="edge16" class="edge"><title>n17125&#45;&gt;n17127</title>
<path fill="none" stroke="lightgray" d="M319.995,-318.227C356.214,-315.756 422.02,-311.268 463.029,-308.47"/>
<polygon fill="lightgray" stroke="lightgray" points="463.401,-311.953 473.139,-307.781 462.924,-304.97 463.401,-311.953"/>
<text text-anchor="middle" x="389" y="-320.8" font-family="Times New Roman,serif" font-size="14.00" fill="lightgray">wff ps</text>
</g>
<!-- n17126 -->
<g id="node19" class="node"><title>n17126</title>
<ellipse fill="none" stroke="lightgray" cx="293" cy="-248" rx="27" ry="18"/>
<text text-anchor="middle" x="293" y="-244.3" font-family="Times New Roman,serif" font-size="14.00" fill="lightgray">wch</text>
</g>
<!-- n17125&#45;&gt;n17126 -->
<g id="edge19" class="edge"><title>n17125&#45;&gt;n17126</title>
</g>
<!-- n17127&#45;&gt;n17134 -->
<g id="edge18" class="edge"><title>n17127&#45;&gt;n17134</title>
<path fill="none" stroke="lightgray" d="M527.109,-303.551C574.14,-298.332 675.964,-283.468 753.493,-247 766.404,-240.927 779.205,-231.715 789.586,-223.205"/>
<polygon fill="lightgray" stroke="lightgray" points="791.998,-225.749 797.348,-216.604 787.463,-220.416 791.998,-225.749"/>
<text text-anchor="middle" x="656.993" y="-302.8" font-family="Times New Roman,serif" font-size="14.00" fill="lightgray">wff ( ps / ch )</text>
</g>
<!-- n17128 -->
<g id="node20" class="node"><title>n17128</title>
<ellipse fill="none" stroke="lightgray" cx="500.246" cy="-234" rx="27" ry="18"/>
<text text-anchor="middle" x="500.246" y="-230.3" font-family="Times New Roman,serif" font-size="14.00" fill="lightgray">wph</text>
</g>
<!-- n17127&#45;&gt;n17128 -->
<g id="edge29" class="edge"><title>n17127&#45;&gt;n17128</title>
</g>
<!-- n17126&#45;&gt;n17127 -->
<g id="edge17" class="edge"><title>n17126&#45;&gt;n17127</title>
<path fill="none" stroke="lightgray" d="M318.35,-254.881C354.843,-265.193 423.846,-284.693 465.276,-296.4"/>
<polygon fill="lightgray" stroke="lightgray" points="464.353,-299.776 474.928,-299.128 466.256,-293.04 464.353,-299.776"/>
<text text-anchor="middle" x="389" y="-292.8" font-family="Times New Roman,serif" font-size="14.00" fill="lightgray">wff ch</text>
</g>
<!-- n17128&#45;&gt;n17134 -->
<g id="edge20" class="edge"><title>n17128&#45;&gt;n17134</title>
<path fill="none" stroke="lightgray" d="M527.002,-231.354C582.508,-225.652 713.509,-212.194 777.001,-205.671"/>
<polygon fill="lightgray" stroke="lightgray" points="777.363,-209.153 786.953,-204.649 776.648,-202.189 777.363,-209.153"/>
<text text-anchor="middle" x="656.993" y="-231.8" font-family="Times New Roman,serif" font-size="14.00" fill="lightgray">wff ph</text>
</g>
<!-- n17129 -->
<g id="node21" class="node"><title>n17129</title>
<ellipse fill="none" stroke="lightgray" cx="500.246" cy="-162" rx="27" ry="18"/>
<text text-anchor="middle" x="500.246" y="-158.3" font-family="Times New Roman,serif" font-size="14.00" fill="lightgray">wth</text>
</g>
<!-- n17128&#45;&gt;n17129 -->
<g id="edge30" class="edge"><title>n17128&#45;&gt;n17129</title>
</g>
<!-- n17129&#45;&gt;n17134 -->
<g id="edge21" class="edge"><title>n17129&#45;&gt;n17134</title>
<path fill="none" stroke="lightgray" d="M527.13,-164.105C572.937,-168 671.217,-177.128 753.493,-190 761.512,-191.255 770.094,-192.847 778.166,-194.457"/>
<polygon fill="lightgray" stroke="lightgray" points="777.538,-197.901 788.037,-196.484 778.945,-191.044 777.538,-197.901"/>
<text text-anchor="middle" x="656.993" y="-193.8" font-family="Times New Roman,serif" font-size="14.00" fill="lightgray">wff th</text>
</g>
<!-- n17132 -->
<g id="node23" class="node"><title>n17132</title>
<ellipse fill="cyan" stroke="black" cx="500.246" cy="-90" rx="38.1938" ry="18"/>
<text text-anchor="middle" x="500.246" y="-86.3" font-family="Times New Roman,serif" font-size="14.00">pm3.11</text>
</g>
<!-- n17129&#45;&gt;n17132 -->
<g id="edge31" class="edge"><title>n17129&#45;&gt;n17132</title>
</g>
<!-- n17130 -->
<g id="node22" class="node"><title>n17130</title>
<ellipse fill="none" stroke="lightgray" cx="293" cy="-118" rx="27" ry="18"/>
<text text-anchor="middle" x="293" y="-114.3" font-family="Times New Roman,serif" font-size="14.00" fill="lightgray">wps</text>
</g>
<!-- n17130&#45;&gt;n17132 -->
<g id="edge22" class="edge"><title>n17130&#45;&gt;n17132</title>
<path fill="none" stroke="lightgray" d="M319.58,-114.51C352.965,-109.956 411.985,-101.904 453.239,-96.2764"/>
<polygon fill="lightgray" stroke="lightgray" points="453.883,-99.721 463.318,-94.9014 452.937,-92.7853 453.883,-99.721"/>
<text text-anchor="middle" x="389" y="-115.8" font-family="Times New Roman,serif" font-size="14.00" fill="lightgray">wff ps</text>
</g>
<!-- n17131 -->
<g id="node24" class="node"><title>n17131</title>
<ellipse fill="none" stroke="lightgray" cx="293" cy="-46" rx="27" ry="18"/>
<text text-anchor="middle" x="293" y="-42.3" font-family="Times New Roman,serif" font-size="14.00" fill="lightgray">wch</text>
</g>
<!-- n17130&#45;&gt;n17131 -->
<g id="edge25" class="edge"><title>n17130&#45;&gt;n17131</title>
</g>
<!-- n17132&#45;&gt;n17134 -->
<g id="edge24" class="edge"><title>n17132&#45;&gt;n17134</title>
<path fill="none" stroke="black" d="M538.31,-92.8903C589.324,-98.1169 682.875,-112.255 753.493,-149 767.876,-156.484 781.535,-168.261 792.106,-178.815"/>
<polygon fill="black" stroke="black" points="789.765,-181.43 799.224,-186.205 794.807,-176.574 789.765,-181.43"/>
<text text-anchor="middle" x="656.993" y="-152.8" font-family="Times New Roman,serif" font-size="14.00">|&#45; ( &#45;. ( &#45;. ps / &#45;. ch ) &#45;&gt; ( ps / ch ) )</text>
</g>
<!-- n17133 -->
<g id="node25" class="node"><title>n17133</title>
<ellipse fill="orange" stroke="black" cx="500.246" cy="-18" rx="42.4939" ry="18"/>
<text text-anchor="middle" x="500.246" y="-14.3" font-family="Times New Roman,serif" font-size="14.00">ecased.3</text>
</g>
<!-- n17132&#45;&gt;n17133 -->
<g id="edge32" class="edge"><title>n17132&#45;&gt;n17133</title>
</g>
<!-- n17131&#45;&gt;n17132 -->
<g id="edge23" class="edge"><title>n17131&#45;&gt;n17132</title>
<path fill="none" stroke="lightgray" d="M319.167,-51.3953C352.988,-58.6456 413.642,-71.6483 455.133,-80.5431"/>
<polygon fill="lightgray" stroke="lightgray" points="454.468,-83.98 464.979,-82.654 455.935,-77.1355 454.468,-83.98"/>
<text text-anchor="middle" x="389" y="-80.8" font-family="Times New Roman,serif" font-size="14.00" fill="lightgray">wff ch</text>
</g>
<!-- n17133&#45;&gt;n17134 -->
<g id="edge26" class="edge"><title>n17133&#45;&gt;n17134</title>
<path fill="none" stroke="black" d="M542.629,-17.1373C596.858,-18.1512 692.243,-27.5729 753.493,-77 783.953,-101.581 799.642,-145.529 807.022,-174.221"/>
<polygon fill="black" stroke="black" points="803.64,-175.129 809.377,-184.037 810.447,-173.496 803.64,-175.129"/>
<text text-anchor="middle" x="656.993" y="-80.8" font-family="Times New Roman,serif" font-size="14.00">|&#45; ( ph &#45;&gt; ( ( ps / ch ) &#45;&gt; th ) )</text>
</g>
</g>
</svg>
