<?xml version="1.0" encoding="UTF-8" standalone="no"?>
<!DOCTYPE svg PUBLIC "-//W3C//DTD SVG 1.1//EN"
 "http://www.w3.org/Graphics/SVG/1.1/DTD/svg11.dtd">
<!-- Generated by graphviz version 2.38.0 (20140413.2041)
 -->
<!-- Title: proof_ecased Pages: 1 -->
<svg width="1364pt" height="660pt"
 viewBox="0.00 0.00 1364.07 660.00" xmlns="http://www.w3.org/2000/svg" xmlns:xlink="http://www.w3.org/1999/xlink">
<g id="graph0" class="graph" transform="scale(1 1) rotate(0) translate(4 656)">
<title>proof_ecased</title>
<polygon fill="white" stroke="none" points="-4,4 -4,-656 1360.07,-656 1360.07,4 -4,4"/>
<!-- n17111 -->
<g id="node1" class="node"><title>n17111</title>
<ellipse fill="none" stroke="lightgray" cx="825.739" cy="-634" rx="27" ry="18"/>
<text text-anchor="middle" x="825.739" y="-630.3" font-family="Times New Roman,serif" font-size="14.00" fill="lightgray">wph</text>
</g>
<!-- n17135 -->
<g id="node2" class="node"><title>n17135</title>
<ellipse fill="cyan" stroke="black" cx="1148.28" cy="-418" rx="40.0939" ry="18"/>
<text text-anchor="middle" x="1148.28" y="-414.3" font-family="Times New Roman,serif" font-size="14.00">ecase3d</text>
</g>
<!-- n17111&#45;&gt;n17135 -->
<g id="edge1" class="edge"><title>n17111&#45;&gt;n17135</title>
<path fill="none" stroke="lightgray" d="M852.77,-636.19C904.551,-639.067 1021.38,-637.96 1089.99,-578 1128.64,-544.215 1141.22,-482.44 1145.31,-446.332"/>
<polygon fill="lightgray" stroke="lightgray" points="1148.83,-446.305 1146.33,-436.01 1141.86,-445.619 1148.83,-446.305"/>
<text text-anchor="middle" x="987.985" y="-640.8" font-family="Times New Roman,serif" font-size="14.00" fill="lightgray">wff ph</text>
</g>
<!-- n17113 -->
<g id="node4" class="node"><title>n17113</title>
<ellipse fill="none" stroke="lightgray" cx="825.739" cy="-562" rx="27" ry="18"/>
<text text-anchor="middle" x="825.739" y="-558.3" font-family="Times New Roman,serif" font-size="14.00" fill="lightgray">wn</text>
</g>
<!-- n17111&#45;&gt;n17113 -->
<g id="edge34" class="edge"><title>n17111&#45;&gt;n17113</title>
</g>
<!-- QED -->
<g id="node26" class="node"><title>QED</title>
</g>
<!-- n17135&#45;&gt;QED -->
<g id="edge33" class="edge"><title>n17135&#45;&gt;QED</title>
<path fill="none" stroke="black" d="M1188.9,-418C1218.24,-418 1258,-418 1287.12,-418"/>
<polygon fill="black" stroke="black" points="1287.32,-421.5 1297.32,-418 1287.32,-414.5 1287.32,-421.5"/>
<text text-anchor="middle" x="1243.08" y="-421.8" font-family="Times New Roman,serif" font-size="14.00">|&#45; ( ph &#45;&gt; th )</text>
</g>
<!-- n17112 -->
<g id="node3" class="node"><title>n17112</title>
<ellipse fill="none" stroke="lightgray" cx="504.246" cy="-562" rx="27" ry="18"/>
<text text-anchor="middle" x="504.246" y="-558.3" font-family="Times New Roman,serif" font-size="14.00" fill="lightgray">wps</text>
</g>
<!-- n17112&#45;&gt;n17113 -->
<g id="edge2" class="edge"><title>n17112&#45;&gt;n17113</title>
<path fill="none" stroke="lightgray" d="M531.392,-562C588.284,-562 723.416,-562 788.489,-562"/>
<polygon fill="lightgray" stroke="lightgray" points="788.68,-565.5 798.68,-562 788.68,-558.5 788.68,-565.5"/>
<text text-anchor="middle" x="664.993" y="-565.8" font-family="Times New Roman,serif" font-size="14.00" fill="lightgray">wff ps</text>
</g>
<!-- n17113&#45;&gt;n17135 -->
<g id="edge3" class="edge"><title>n17113&#45;&gt;n17135</title>
<path fill="none" stroke="lightgray" d="M853.074,-561.668C903.395,-559.829 1014.88,-549.838 1089.99,-499 1109.91,-485.516 1125.14,-462.638 1134.88,-444.628"/>
<polygon fill="lightgray" stroke="lightgray" points="1138,-446.222 1139.46,-435.73 1131.77,-443.016 1138,-446.222"/>
<text text-anchor="middle" x="987.985" y="-562.8" font-family="Times New Roman,serif" font-size="14.00" fill="lightgray">wff &#45;. ps</text>
</g>
<!-- n17115 -->
<g id="node6" class="node"><title>n17115</title>
<ellipse fill="none" stroke="lightgray" cx="825.739" cy="-490" rx="27" ry="18"/>
<text text-anchor="middle" x="825.739" y="-486.3" font-family="Times New Roman,serif" font-size="14.00" fill="lightgray">wn</text>
</g>
<!-- n17113&#45;&gt;n17115 -->
<g id="edge35" class="edge"><title>n17113&#45;&gt;n17115</title>
</g>
<!-- n17114 -->
<g id="node5" class="node"><title>n17114</title>
<ellipse fill="none" stroke="lightgray" cx="504.246" cy="-490" rx="27" ry="18"/>
<text text-anchor="middle" x="504.246" y="-486.3" font-family="Times New Roman,serif" font-size="14.00" fill="lightgray">wch</text>
</g>
<!-- n17114&#45;&gt;n17115 -->
<g id="edge4" class="edge"><title>n17114&#45;&gt;n17115</title>
<path fill="none" stroke="lightgray" d="M531.392,-490C588.284,-490 723.416,-490 788.489,-490"/>
<polygon fill="lightgray" stroke="lightgray" points="788.68,-493.5 798.68,-490 788.68,-486.5 788.68,-493.5"/>
<text text-anchor="middle" x="664.993" y="-493.8" font-family="Times New Roman,serif" font-size="14.00" fill="lightgray">wff ch</text>
</g>
<!-- n17115&#45;&gt;n17135 -->
<g id="edge5" class="edge"><title>n17115&#45;&gt;n17135</title>
<path fill="none" stroke="lightgray" d="M852.389,-485.903C899.743,-478.103 1003.92,-459.843 1089.99,-437 1095.37,-435.572 1100.98,-433.918 1106.5,-432.194"/>
<polygon fill="lightgray" stroke="lightgray" points="1107.82,-435.446 1116.26,-429.048 1105.67,-428.784 1107.82,-435.446"/>
<text text-anchor="middle" x="987.985" y="-483.8" font-family="Times New Roman,serif" font-size="14.00" fill="lightgray">wff &#45;. ch</text>
</g>
<!-- n17116 -->
<g id="node7" class="node"><title>n17116</title>
<ellipse fill="none" stroke="lightgray" cx="825.739" cy="-418" rx="27" ry="18"/>
<text text-anchor="middle" x="825.739" y="-414.3" font-family="Times New Roman,serif" font-size="14.00" fill="lightgray">wth</text>
</g>
<!-- n17115&#45;&gt;n17116 -->
<g id="edge36" class="edge"><title>n17115&#45;&gt;n17116</title>
</g>
<!-- n17116&#45;&gt;n17135 -->
<g id="edge6" class="edge"><title>n17116&#45;&gt;n17135</title>
<path fill="none" stroke="lightgray" d="M852.97,-418C906.445,-418 1028.82,-418 1097.74,-418"/>
<polygon fill="lightgray" stroke="lightgray" points="1097.92,-421.5 1107.92,-418 1097.92,-414.5 1097.92,-421.5"/>
<text text-anchor="middle" x="987.985" y="-421.8" font-family="Times New Roman,serif" font-size="14.00" fill="lightgray">wff th</text>
</g>
<!-- n17117 -->
<g id="node8" class="node"><title>n17117</title>
<ellipse fill="orange" stroke="black" cx="825.739" cy="-346" rx="42.4939" ry="18"/>
<text text-anchor="middle" x="825.739" y="-342.3" font-family="Times New Roman,serif" font-size="14.00">ecased.1</text>
</g>
<!-- n17116&#45;&gt;n17117 -->
<g id="edge37" class="edge"><title>n17116&#45;&gt;n17117</title>
</g>
<!-- n17117&#45;&gt;n17135 -->
<g id="edge7" class="edge"><title>n17117&#45;&gt;n17135</title>
<path fill="none" stroke="black" d="M865.442,-352.274C917.07,-360.989 1011.13,-378.071 1089.99,-399 1095.37,-400.428 1100.98,-402.082 1106.5,-403.806"/>
<polygon fill="black" stroke="black" points="1105.67,-407.216 1116.26,-406.952 1107.82,-400.554 1105.67,-407.216"/>
<text text-anchor="middle" x="987.985" y="-402.8" font-family="Times New Roman,serif" font-size="14.00">|&#45; ( ph &#45;&gt; ( &#45;. ps &#45;&gt; th ) )</text>
</g>
<!-- n17118 -->
<g id="node9" class="node"><title>n17118</title>
<ellipse fill="orange" stroke="black" cx="825.739" cy="-274" rx="42.4939" ry="18"/>
<text text-anchor="middle" x="825.739" y="-270.3" font-family="Times New Roman,serif" font-size="14.00">ecased.2</text>
</g>
<!-- n17117&#45;&gt;n17118 -->
<g id="edge38" class="edge"><title>n17117&#45;&gt;n17118</title>
</g>
<!-- n17118&#45;&gt;n17135 -->
<g id="edge8" class="edge"><title>n17118&#45;&gt;n17135</title>
<path fill="none" stroke="black" d="M868.198,-275.057C923.313,-278.318 1021.69,-290.772 1089.99,-337 1109.91,-350.484 1125.14,-373.362 1134.88,-391.372"/>
<polygon fill="black" stroke="black" points="1131.77,-392.984 1139.46,-400.27 1138,-389.778 1131.77,-392.984"/>
<text text-anchor="middle" x="987.985" y="-340.8" font-family="Times New Roman,serif" font-size="14.00">|&#45; ( ph &#45;&gt; ( &#45;. ch &#45;&gt; th ) )</text>
</g>
<!-- n17134 -->
<g id="node16" class="node"><title>n17134</title>
<ellipse fill="cyan" stroke="black" cx="825.739" cy="-202" rx="27" ry="18"/>
<text text-anchor="middle" x="825.739" y="-198.3" font-family="Times New Roman,serif" font-size="14.00">syl5</text>
</g>
<!-- n17118&#45;&gt;n17134 -->
<g id="edge39" class="edge"><title>n17118&#45;&gt;n17134</title>
</g>
<!-- n17119 -->
<g id="node10" class="node"><title>n17119</title>
<ellipse fill="none" stroke="lightgray" cx="27" cy="-423" rx="27" ry="18"/>
<text text-anchor="middle" x="27" y="-419.3" font-family="Times New Roman,serif" font-size="14.00" fill="lightgray">wps</text>
</g>
<!-- n17120 -->
<g id="node11" class="node"><title>n17120</title>
<ellipse fill="none" stroke="lightgray" cx="154" cy="-423" rx="27" ry="18"/>
<text text-anchor="middle" x="154" y="-419.3" font-family="Times New Roman,serif" font-size="14.00" fill="lightgray">wn</text>
</g>
<!-- n17119&#45;&gt;n17120 -->
<g id="edge9" class="edge"><title>n17119&#45;&gt;n17120</title>
<path fill="none" stroke="lightgray" d="M54.2041,-423C72.3711,-423 96.7994,-423 116.82,-423"/>
<polygon fill="lightgray" stroke="lightgray" points="116.83,-426.5 126.83,-423 116.83,-419.5 116.83,-426.5"/>
<text text-anchor="middle" x="90.5" y="-426.8" font-family="Times New Roman,serif" font-size="14.00" fill="lightgray">wff ps</text>
</g>
<!-- n17123 -->
<g id="node12" class="node"><title>n17123</title>
<ellipse fill="none" stroke="lightgray" cx="293" cy="-378" rx="27" ry="18"/>
<text text-anchor="middle" x="293" y="-374.3" font-family="Times New Roman,serif" font-size="14.00" fill="lightgray">wo</text>
</g>
<!-- n17120&#45;&gt;n17123 -->
<g id="edge10" class="edge"><title>n17120&#45;&gt;n17123</title>
<path fill="none" stroke="lightgray" d="M178.551,-415.264C200.606,-408.02 233.791,-397.12 258.581,-388.977"/>
<polygon fill="lightgray" stroke="lightgray" points="259.889,-392.231 268.298,-385.785 257.705,-385.581 259.889,-392.231"/>
<text text-anchor="middle" x="223.5" y="-412.8" font-family="Times New Roman,serif" font-size="14.00" fill="lightgray">wff &#45;. ps</text>
</g>
<!-- n17122 -->
<g id="node14" class="node"><title>n17122</title>
<ellipse fill="none" stroke="lightgray" cx="154" cy="-351" rx="27" ry="18"/>
<text text-anchor="middle" x="154" y="-347.3" font-family="Times New Roman,serif" font-size="14.00" fill="lightgray">wn</text>
</g>
<!-- n17120&#45;&gt;n17122 -->
<g id="edge14" class="edge"><title>n17120&#45;&gt;n17122</title>
</g>
<!-- n17124 -->
<g id="node15" class="node"><title>n17124</title>
<ellipse fill="none" stroke="lightgray" cx="504.246" cy="-378" rx="27" ry="18"/>
<text text-anchor="middle" x="504.246" y="-374.3" font-family="Times New Roman,serif" font-size="14.00" fill="lightgray">wn</text>
</g>
<!-- n17123&#45;&gt;n17124 -->
<g id="edge13" class="edge"><title>n17123&#45;&gt;n17124</title>
<path fill="none" stroke="lightgray" d="M320.078,-378C357.144,-378 425.204,-378 467.113,-378"/>
<polygon fill="lightgray" stroke="lightgray" points="467.169,-381.5 477.169,-378 467.169,-374.5 467.169,-381.5"/>
<text text-anchor="middle" x="391" y="-381.8" font-family="Times New Roman,serif" font-size="14.00" fill="lightgray">wff ( &#45;. ps \/ &#45;. ch )</text>
</g>
<!-- n17121 -->
<g id="node13" class="node"><title>n17121</title>
<ellipse fill="none" stroke="lightgray" cx="27" cy="-351" rx="27" ry="18"/>
<text text-anchor="middle" x="27" y="-347.3" font-family="Times New Roman,serif" font-size="14.00" fill="lightgray">wch</text>
</g>
<!-- n17121&#45;&gt;n17122 -->
<g id="edge11" class="edge"><title>n17121&#45;&gt;n17122</title>
<path fill="none" stroke="lightgray" d="M54.2041,-351C72.3711,-351 96.7994,-351 116.82,-351"/>
<polygon fill="lightgray" stroke="lightgray" points="116.83,-354.5 126.83,-351 116.83,-347.5 116.83,-354.5"/>
<text text-anchor="middle" x="90.5" y="-354.8" font-family="Times New Roman,serif" font-size="14.00" fill="lightgray">wff ch</text>
</g>
<!-- n17122&#45;&gt;n17123 -->
<g id="edge12" class="edge"><title>n17122&#45;&gt;n17123</title>
<path fill="none" stroke="lightgray" d="M180.128,-355.952C201.526,-360.169 232.517,-366.277 256.457,-370.995"/>
<polygon fill="lightgray" stroke="lightgray" points="256.079,-374.488 266.567,-372.988 257.433,-367.62 256.079,-374.488"/>
<text text-anchor="middle" x="223.5" y="-373.8" font-family="Times New Roman,serif" font-size="14.00" fill="lightgray">wff &#45;. ch</text>
</g>
<!-- n17124&#45;&gt;n17134 -->
<g id="edge15" class="edge"><title>n17124&#45;&gt;n17134</title>
<path fill="none" stroke="lightgray" d="M531.133,-380.284C583.116,-383.344 700.747,-382.334 765.493,-319 789.072,-295.935 767.869,-276.05 783.493,-247 788.137,-238.364 794.813,-230.091 801.445,-223.048"/>
<polygon fill="lightgray" stroke="lightgray" points="803.955,-225.488 808.525,-215.929 798.992,-220.551 803.955,-225.488"/>
<text text-anchor="middle" x="664.993" y="-385.8" font-family="Times New Roman,serif" font-size="14.00" fill="lightgray">wff &#45;. ( &#45;. ps \/ &#45;. ch )</text>
</g>
<!-- n17127 -->
<g id="node18" class="node"><title>n17127</title>
<ellipse fill="none" stroke="lightgray" cx="504.246" cy="-306" rx="27" ry="18"/>
<text text-anchor="middle" x="504.246" y="-302.3" font-family="Times New Roman,serif" font-size="14.00" fill="lightgray">wa</text>
</g>
<!-- n17124&#45;&gt;n17127 -->
<g id="edge28" class="edge"><title>n17124&#45;&gt;n17127</title>
</g>
<!-- n17134&#45;&gt;n17135 -->
<g id="edge27" class="edge"><title>n17134&#45;&gt;n17135</title>
<path fill="none" stroke="black" d="M852.77,-199.81C904.551,-196.933 1021.38,-198.04 1089.99,-258 1128.64,-291.785 1141.22,-353.56 1145.31,-389.668"/>
<polygon fill="black" stroke="black" points="1141.86,-390.381 1146.33,-399.99 1148.83,-389.695 1141.86,-390.381"/>
<text text-anchor="middle" x="987.985" y="-261.8" font-family="Times New Roman,serif" font-size="14.00">|&#45; ( ph &#45;&gt; ( &#45;. ( &#45;. ps \/ &#45;. ch ) &#45;&gt; th ) )</text>
</g>
<!-- n17125 -->
<g id="node17" class="node"><title>n17125</title>
<ellipse fill="none" stroke="lightgray" cx="293" cy="-320" rx="27" ry="18"/>
<text text-anchor="middle" x="293" y="-316.3" font-family="Times New Roman,serif" font-size="14.00" fill="lightgray">wps</text>
</g>
<!-- n17125&#45;&gt;n17127 -->
<g id="edge16" class="edge"><title>n17125&#45;&gt;n17127</title>
<path fill="none" stroke="lightgray" d="M320.078,-318.255C357.144,-315.775 425.204,-311.222 467.113,-308.418"/>
<polygon fill="lightgray" stroke="lightgray" points="467.425,-311.905 477.169,-307.745 466.958,-304.92 467.425,-311.905"/>
<text text-anchor="middle" x="391" y="-320.8" font-family="Times New Roman,serif" font-size="14.00" fill="lightgray">wff ps</text>
</g>
<!-- n17126 -->
<g id="node19" class="node"><title>n17126</title>
<ellipse fill="none" stroke="lightgray" cx="293" cy="-248" rx="27" ry="18"/>
<text text-anchor="middle" x="293" y="-244.3" font-family="Times New Roman,serif" font-size="14.00" fill="lightgray">wch</text>
</g>
<!-- n17125&#45;&gt;n17126 -->
<g id="edge19" class="edge"><title>n17125&#45;&gt;n17126</title>
</g>
<!-- n17127&#45;&gt;n17134 -->
<g id="edge18" class="edge"><title>n17127&#45;&gt;n17134</title>
<path fill="none" stroke="lightgray" d="M531.17,-303.791C579.347,-298.905 685.084,-284.488 765.493,-247 778.425,-240.971 791.228,-231.766 801.606,-223.248"/>
<polygon fill="lightgray" stroke="lightgray" points="804.022,-225.788 809.364,-216.639 799.482,-220.459 804.022,-225.788"/>
<text text-anchor="middle" x="664.993" y="-303.8" font-family="Times New Roman,serif" font-size="14.00" fill="lightgray">wff ( ps /\ ch )</text>
</g>
<!-- n17128 -->
<g id="node20" class="node"><title>n17128</title>
<ellipse fill="none" stroke="lightgray" cx="504.246" cy="-234" rx="27" ry="18"/>
<text text-anchor="middle" x="504.246" y="-230.3" font-family="Times New Roman,serif" font-size="14.00" fill="lightgray">wph</text>
</g>
<!-- n17127&#45;&gt;n17128 -->
<g id="edge29" class="edge"><title>n17127&#45;&gt;n17128</title>
</g>
<!-- n17126&#45;&gt;n17127 -->
<g id="edge17" class="edge"><title>n17126&#45;&gt;n17127</title>
<path fill="none" stroke="lightgray" d="M318.413,-254.767C355.661,-265.092 426.809,-284.813 469.141,-296.546"/>
<polygon fill="lightgray" stroke="lightgray" points="468.417,-299.978 478.989,-299.276 470.287,-293.232 468.417,-299.978"/>
<text text-anchor="middle" x="391" y="-292.8" font-family="Times New Roman,serif" font-size="14.00" fill="lightgray">wff ch</text>
</g>
<!-- n17128&#45;&gt;n17134 -->
<g id="edge20" class="edge"><title>n17128&#45;&gt;n17134</title>
<path fill="none" stroke="lightgray" d="M531.121,-231.408C587.832,-225.728 723.204,-212.17 788.41,-205.639"/>
<polygon fill="lightgray" stroke="lightgray" points="789.021,-209.095 798.622,-204.616 788.323,-202.13 789.021,-209.095"/>
<text text-anchor="middle" x="664.993" y="-231.8" font-family="Times New Roman,serif" font-size="14.00" fill="lightgray">wff ph</text>
</g>
<!-- n17129 -->
<g id="node21" class="node"><title>n17129</title>
<ellipse fill="none" stroke="lightgray" cx="504.246" cy="-162" rx="27" ry="18"/>
<text text-anchor="middle" x="504.246" y="-158.3" font-family="Times New Roman,serif" font-size="14.00" fill="lightgray">wth</text>
</g>
<!-- n17128&#45;&gt;n17129 -->
<g id="edge30" class="edge"><title>n17128&#45;&gt;n17129</title>
</g>
<!-- n17129&#45;&gt;n17134 -->
<g id="edge21" class="edge"><title>n17129&#45;&gt;n17134</title>
<path fill="none" stroke="lightgray" d="M531.207,-163.991C578.142,-167.769 680.167,-176.798 765.493,-190 773.514,-191.241 782.096,-192.828 790.169,-194.438"/>
<polygon fill="lightgray" stroke="lightgray" points="789.54,-197.882 800.04,-196.465 790.949,-191.025 789.54,-197.882"/>
<text text-anchor="middle" x="664.993" y="-193.8" font-family="Times New Roman,serif" font-size="14.00" fill="lightgray">wff th</text>
</g>
<!-- n17132 -->
<g id="node23" class="node"><title>n17132</title>
<ellipse fill="cyan" stroke="black" cx="504.246" cy="-90" rx="38.1938" ry="18"/>
<text text-anchor="middle" x="504.246" y="-86.3" font-family="Times New Roman,serif" font-size="14.00">pm3.11</text>
</g>
<!-- n17129&#45;&gt;n17132 -->
<g id="edge31" class="edge"><title>n17129&#45;&gt;n17132</title>
</g>
<!-- n17130 -->
<g id="node22" class="node"><title>n17130</title>
<ellipse fill="none" stroke="lightgray" cx="293" cy="-118" rx="27" ry="18"/>
<text text-anchor="middle" x="293" y="-114.3" font-family="Times New Roman,serif" font-size="14.00" fill="lightgray">wps</text>
</g>
<!-- n17130&#45;&gt;n17132 -->
<g id="edge22" class="edge"><title>n17130&#45;&gt;n17132</title>
<path fill="none" stroke="lightgray" d="M319.658,-114.567C353.835,-109.993 414.89,-101.823 457.155,-96.1676"/>
<polygon fill="lightgray" stroke="lightgray" points="457.754,-99.6188 467.201,-94.8233 456.825,-92.6806 457.754,-99.6188"/>
<text text-anchor="middle" x="391" y="-115.8" font-family="Times New Roman,serif" font-size="14.00" fill="lightgray">wff ps</text>
</g>
<!-- n17131 -->
<g id="node24" class="node"><title>n17131</title>
<ellipse fill="none" stroke="lightgray" cx="293" cy="-46" rx="27" ry="18"/>
<text text-anchor="middle" x="293" y="-42.3" font-family="Times New Roman,serif" font-size="14.00" fill="lightgray">wch</text>
</g>
<!-- n17130&#45;&gt;n17131 -->
<g id="edge25" class="edge"><title>n17130&#45;&gt;n17131</title>
</g>
<!-- n17132&#45;&gt;n17134 -->
<g id="edge24" class="edge"><title>n17132&#45;&gt;n17134</title>
<path fill="none" stroke="black" d="M542.594,-92.5625C595.017,-97.4325 692.21,-111.185 765.493,-149 779.901,-156.435 793.563,-168.208 804.128,-178.772"/>
<polygon fill="black" stroke="black" points="801.788,-181.387 811.241,-186.171 806.834,-176.536 801.788,-181.387"/>
<text text-anchor="middle" x="664.993" y="-152.8" font-family="Times New Roman,serif" font-size="14.00">|&#45; ( &#45;. ( &#45;. ps \/ &#45;. ch ) &#45;&gt; ( ps /\ ch ) )</text>
</g>
<!-- n17133 -->
<g id="node25" class="node"><title>n17133</title>
<ellipse fill="orange" stroke="black" cx="504.246" cy="-18" rx="42.4939" ry="18"/>
<text text-anchor="middle" x="504.246" y="-14.3" font-family="Times New Roman,serif" font-size="14.00">ecased.3</text>
</g>
<!-- n17132&#45;&gt;n17133 -->
<g id="edge32" class="edge"><title>n17132&#45;&gt;n17133</title>
</g>
<!-- n17131&#45;&gt;n17132 -->
<g id="edge23" class="edge"><title>n17131&#45;&gt;n17132</title>
<path fill="none" stroke="lightgray" d="M319.24,-51.3074C353.857,-58.5866 416.601,-71.7803 459.088,-80.7145"/>
<polygon fill="lightgray" stroke="lightgray" points="458.385,-84.1431 468.891,-82.7759 459.825,-77.2929 458.385,-84.1431"/>
<text text-anchor="middle" x="391" y="-80.8" font-family="Times New Roman,serif" font-size="14.00" fill="lightgray">wff ch</text>
</g>
<!-- n17133&#45;&gt;n17134 -->
<g id="edge26" class="edge"><title>n17133&#45;&gt;n17134</title>
<path fill="none" stroke="black" d="M546.491,-16.742C602.154,-17.196 701.684,-25.8666 765.493,-77 796.037,-101.477 811.703,-145.454 819.055,-174.179"/>
<polygon fill="black" stroke="black" points="815.675,-175.093 821.4,-184.008 822.484,-173.469 815.675,-175.093"/>
<text text-anchor="middle" x="664.993" y="-80.8" font-family="Times New Roman,serif" font-size="14.00">|&#45; ( ph &#45;&gt; ( ( ps /\ ch ) &#45;&gt; th ) )</text>
</g>
</g>
</svg>
