<?xml version="1.0" encoding="UTF-8" standalone="no"?>
<!DOCTYPE svg PUBLIC "-//W3C//DTD SVG 1.1//EN"
 "http://www.w3.org/Graphics/SVG/1.1/DTD/svg11.dtd">
<!-- Generated by graphviz version 2.38.0 (20140413.2041)
 -->
<!-- Title: proof_ex Pages: 1 -->
<svg width="1287pt" height="404pt"
 viewBox="0.00 0.00 1286.68 404.00" xmlns="http://www.w3.org/2000/svg" xmlns:xlink="http://www.w3.org/1999/xlink">
<g id="graph0" class="graph" transform="scale(1 1) rotate(0) translate(4 400)">
<title>proof_ex</title>
<polygon fill="white" stroke="none" points="-4,4 -4,-400 1282.68,-400 1282.68,4 -4,4"/>
<!-- n7832 -->
<g id="node1" class="node"><title>n7832</title>
<ellipse fill="none" stroke="lightgray" cx="787.642" cy="-378" rx="27" ry="18"/>
<text text-anchor="middle" x="787.642" y="-374.3" font-family="Times New Roman,serif" font-size="14.00" fill="lightgray">wph</text>
</g>
<!-- n7849 -->
<g id="node2" class="node"><title>n7849</title>
<ellipse fill="cyan" stroke="black" cx="1031.19" cy="-269" rx="27" ry="18"/>
<text text-anchor="middle" x="1031.19" y="-265.3" font-family="Times New Roman,serif" font-size="14.00">expi</text>
</g>
<!-- n7832&#45;&gt;n7849 -->
<g id="edge1" class="edge"><title>n7832&#45;&gt;n7849</title>
<path fill="none" stroke="lightgray" d="M814.498,-374.691C854.109,-368.667 931.011,-353.134 986.189,-318 996.379,-311.512 1005.65,-302.033 1013.03,-293.137"/>
<polygon fill="lightgray" stroke="lightgray" points="1015.82,-295.258 1019.25,-285.233 1010.31,-290.931 1015.82,-295.258"/>
<text text-anchor="middle" x="911.189" y="-374.8" font-family="Times New Roman,serif" font-size="14.00" fill="lightgray">wff ph</text>
</g>
<!-- n7833 -->
<g id="node3" class="node"><title>n7833</title>
<ellipse fill="none" stroke="lightgray" cx="787.642" cy="-306" rx="27" ry="18"/>
<text text-anchor="middle" x="787.642" y="-302.3" font-family="Times New Roman,serif" font-size="14.00" fill="lightgray">wps</text>
</g>
<!-- n7832&#45;&gt;n7833 -->
<g id="edge26" class="edge"><title>n7832&#45;&gt;n7833</title>
</g>
<!-- QED -->
<g id="node19" class="node"><title>QED</title>
</g>
<!-- n7849&#45;&gt;QED -->
<g id="edge25" class="edge"><title>n7849&#45;&gt;QED</title>
<path fill="none" stroke="black" d="M1058.27,-269C1095.94,-269 1165.85,-269 1209.6,-269"/>
<polygon fill="black" stroke="black" points="1209.86,-272.5 1219.86,-269 1209.86,-265.5 1209.86,-272.5"/>
<text text-anchor="middle" x="1139.19" y="-272.8" font-family="Times New Roman,serif" font-size="14.00">|&#45; ( ph &#45;&gt; ( ps &#45;&gt; ch ) )</text>
</g>
<!-- n7833&#45;&gt;n7849 -->
<g id="edge2" class="edge"><title>n7833&#45;&gt;n7849</title>
<path fill="none" stroke="lightgray" d="M814.035,-302.11C857.346,-295.476 945.586,-281.959 994.877,-274.409"/>
<polygon fill="lightgray" stroke="lightgray" points="995.419,-277.867 1004.77,-272.893 994.359,-270.948 995.419,-277.867"/>
<text text-anchor="middle" x="911.189" y="-302.8" font-family="Times New Roman,serif" font-size="14.00" fill="lightgray">wff ps</text>
</g>
<!-- n7834 -->
<g id="node4" class="node"><title>n7834</title>
<ellipse fill="none" stroke="lightgray" cx="787.642" cy="-234" rx="27" ry="18"/>
<text text-anchor="middle" x="787.642" y="-230.3" font-family="Times New Roman,serif" font-size="14.00" fill="lightgray">wch</text>
</g>
<!-- n7833&#45;&gt;n7834 -->
<g id="edge27" class="edge"><title>n7833&#45;&gt;n7834</title>
</g>
<!-- n7834&#45;&gt;n7849 -->
<g id="edge3" class="edge"><title>n7834&#45;&gt;n7849</title>
<path fill="none" stroke="lightgray" d="M814.616,-236.824C852.468,-241.074 924.953,-249.721 986.189,-260 989.073,-260.484 992.056,-261.019 995.047,-261.581"/>
<polygon fill="lightgray" stroke="lightgray" points="994.631,-265.066 1005.12,-263.552 995.976,-258.196 994.631,-265.066"/>
<text text-anchor="middle" x="911.189" y="-263.8" font-family="Times New Roman,serif" font-size="14.00" fill="lightgray">wff ch</text>
</g>
<!-- n7848 -->
<g id="node10" class="node"><title>n7848</title>
<ellipse fill="cyan" stroke="black" cx="787.642" cy="-162" rx="30.5947" ry="18"/>
<text text-anchor="middle" x="787.642" y="-158.3" font-family="Times New Roman,serif" font-size="14.00">sylbir</text>
</g>
<!-- n7834&#45;&gt;n7848 -->
<g id="edge28" class="edge"><title>n7834&#45;&gt;n7848</title>
</g>
<!-- n7835 -->
<g id="node5" class="node"><title>n7835</title>
<ellipse fill="none" stroke="lightgray" cx="154" cy="-351" rx="27" ry="18"/>
<text text-anchor="middle" x="154" y="-347.3" font-family="Times New Roman,serif" font-size="14.00" fill="lightgray">wph</text>
</g>
<!-- n7838 -->
<g id="node6" class="node"><title>n7838</title>
<ellipse fill="none" stroke="lightgray" cx="293" cy="-306" rx="27" ry="18"/>
<text text-anchor="middle" x="293" y="-302.3" font-family="Times New Roman,serif" font-size="14.00" fill="lightgray">wi</text>
</g>
<!-- n7835&#45;&gt;n7838 -->
<g id="edge4" class="edge"><title>n7835&#45;&gt;n7838</title>
<path fill="none" stroke="lightgray" d="M178.551,-343.264C200.606,-336.02 233.791,-325.12 258.581,-316.977"/>
<polygon fill="lightgray" stroke="lightgray" points="259.889,-320.231 268.298,-313.785 257.705,-313.581 259.889,-320.231"/>
<text text-anchor="middle" x="223.5" y="-340.8" font-family="Times New Roman,serif" font-size="14.00" fill="lightgray">wff ph</text>
</g>
<!-- n7837 -->
<g id="node8" class="node"><title>n7837</title>
<ellipse fill="none" stroke="lightgray" cx="154" cy="-279" rx="27" ry="18"/>
<text text-anchor="middle" x="154" y="-275.3" font-family="Times New Roman,serif" font-size="14.00" fill="lightgray">wn</text>
</g>
<!-- n7835&#45;&gt;n7837 -->
<g id="edge8" class="edge"><title>n7835&#45;&gt;n7837</title>
</g>
<!-- n7839 -->
<g id="node9" class="node"><title>n7839</title>
<ellipse fill="none" stroke="lightgray" cx="486.547" cy="-306" rx="27" ry="18"/>
<text text-anchor="middle" x="486.547" y="-302.3" font-family="Times New Roman,serif" font-size="14.00" fill="lightgray">wn</text>
</g>
<!-- n7838&#45;&gt;n7839 -->
<g id="edge7" class="edge"><title>n7838&#45;&gt;n7839</title>
<path fill="none" stroke="lightgray" d="M320.232,-306C353.667,-306 411.635,-306 449.283,-306"/>
<polygon fill="lightgray" stroke="lightgray" points="449.325,-309.5 459.325,-306 449.325,-302.5 449.325,-309.5"/>
<text text-anchor="middle" x="388" y="-309.8" font-family="Times New Roman,serif" font-size="14.00" fill="lightgray">wff ( ph &#45;&gt; &#45;. ps )</text>
</g>
<!-- n7836 -->
<g id="node7" class="node"><title>n7836</title>
<ellipse fill="none" stroke="lightgray" cx="27" cy="-279" rx="27" ry="18"/>
<text text-anchor="middle" x="27" y="-275.3" font-family="Times New Roman,serif" font-size="14.00" fill="lightgray">wps</text>
</g>
<!-- n7836&#45;&gt;n7837 -->
<g id="edge5" class="edge"><title>n7836&#45;&gt;n7837</title>
<path fill="none" stroke="lightgray" d="M54.2041,-279C72.3711,-279 96.7994,-279 116.82,-279"/>
<polygon fill="lightgray" stroke="lightgray" points="116.83,-282.5 126.83,-279 116.83,-275.5 116.83,-282.5"/>
<text text-anchor="middle" x="90.5" y="-282.8" font-family="Times New Roman,serif" font-size="14.00" fill="lightgray">wff ps</text>
</g>
<!-- n7837&#45;&gt;n7838 -->
<g id="edge6" class="edge"><title>n7837&#45;&gt;n7838</title>
<path fill="none" stroke="lightgray" d="M180.128,-283.952C201.526,-288.169 232.517,-294.277 256.457,-298.995"/>
<polygon fill="lightgray" stroke="lightgray" points="256.079,-302.488 266.567,-300.988 257.433,-295.62 256.079,-302.488"/>
<text text-anchor="middle" x="223.5" y="-301.8" font-family="Times New Roman,serif" font-size="14.00" fill="lightgray">wff &#45;. ps</text>
</g>
<!-- n7839&#45;&gt;n7848 -->
<g id="edge9" class="edge"><title>n7839&#45;&gt;n7848</title>
<path fill="none" stroke="lightgray" d="M513.531,-306.682C563.015,-306.617 671.83,-299.748 739.095,-245 753.588,-233.203 747.944,-223.294 757.095,-207 760.723,-200.539 764.938,-193.764 769.028,-187.489"/>
<polygon fill="lightgray" stroke="lightgray" points="772.219,-189.012 774.848,-178.749 766.392,-185.132 772.219,-189.012"/>
<text text-anchor="middle" x="637.095" y="-310.8" font-family="Times New Roman,serif" font-size="14.00" fill="lightgray">wff &#45;. ( ph &#45;&gt; &#45;. ps )</text>
</g>
<!-- n7842 -->
<g id="node12" class="node"><title>n7842</title>
<ellipse fill="none" stroke="lightgray" cx="486.547" cy="-234" rx="27" ry="18"/>
<text text-anchor="middle" x="486.547" y="-230.3" font-family="Times New Roman,serif" font-size="14.00" fill="lightgray">wa</text>
</g>
<!-- n7839&#45;&gt;n7842 -->
<g id="edge21" class="edge"><title>n7839&#45;&gt;n7842</title>
</g>
<!-- n7848&#45;&gt;n7849 -->
<g id="edge20" class="edge"><title>n7848&#45;&gt;n7849</title>
<path fill="none" stroke="black" d="M817.787,-165.728C858.197,-171.954 932.345,-187.277 986.189,-221 996.063,-227.184 1005.12,-236.169 1012.41,-244.697"/>
<polygon fill="black" stroke="black" points="1009.82,-247.06 1018.84,-252.626 1015.26,-242.653 1009.82,-247.06"/>
<text text-anchor="middle" x="911.189" y="-224.8" font-family="Times New Roman,serif" font-size="14.00">|&#45; ( &#45;. ( ph &#45;&gt; &#45;. ps ) &#45;&gt; ch )</text>
</g>
<!-- n7840 -->
<g id="node11" class="node"><title>n7840</title>
<ellipse fill="none" stroke="lightgray" cx="293" cy="-248" rx="27" ry="18"/>
<text text-anchor="middle" x="293" y="-244.3" font-family="Times New Roman,serif" font-size="14.00" fill="lightgray">wph</text>
</g>
<!-- n7840&#45;&gt;n7842 -->
<g id="edge10" class="edge"><title>n7840&#45;&gt;n7842</title>
<path fill="none" stroke="lightgray" d="M320.232,-246.083C353.761,-243.632 411.96,-239.378 449.599,-236.627"/>
<polygon fill="lightgray" stroke="lightgray" points="449.914,-240.114 459.632,-235.894 449.403,-233.132 449.914,-240.114"/>
<text text-anchor="middle" x="388" y="-248.8" font-family="Times New Roman,serif" font-size="14.00" fill="lightgray">wff ph</text>
</g>
<!-- n7841 -->
<g id="node13" class="node"><title>n7841</title>
<ellipse fill="none" stroke="lightgray" cx="293" cy="-176" rx="27" ry="18"/>
<text text-anchor="middle" x="293" y="-172.3" font-family="Times New Roman,serif" font-size="14.00" fill="lightgray">wps</text>
</g>
<!-- n7840&#45;&gt;n7841 -->
<g id="edge13" class="edge"><title>n7840&#45;&gt;n7841</title>
</g>
<!-- n7842&#45;&gt;n7848 -->
<g id="edge12" class="edge"><title>n7842&#45;&gt;n7848</title>
<path fill="none" stroke="lightgray" d="M513.264,-230.089C559.205,-222.77 658.147,-205.501 739.095,-181 743.742,-179.593 748.571,-177.922 753.293,-176.163"/>
<polygon fill="lightgray" stroke="lightgray" points="754.691,-179.374 762.74,-172.485 752.152,-172.851 754.691,-179.374"/>
<text text-anchor="middle" x="637.095" y="-229.8" font-family="Times New Roman,serif" font-size="14.00" fill="lightgray">wff ( ph /\ ps )</text>
</g>
<!-- n7843 -->
<g id="node14" class="node"><title>n7843</title>
<ellipse fill="none" stroke="lightgray" cx="486.547" cy="-162" rx="27" ry="18"/>
<text text-anchor="middle" x="486.547" y="-158.3" font-family="Times New Roman,serif" font-size="14.00" fill="lightgray">wch</text>
</g>
<!-- n7842&#45;&gt;n7843 -->
<g id="edge22" class="edge"><title>n7842&#45;&gt;n7843</title>
</g>
<!-- n7841&#45;&gt;n7842 -->
<g id="edge11" class="edge"><title>n7841&#45;&gt;n7842</title>
<path fill="none" stroke="lightgray" d="M317.985,-183.039C346.594,-191.464 395.848,-206.058 438,-219 442.618,-220.418 447.483,-221.931 452.267,-223.429"/>
<polygon fill="lightgray" stroke="lightgray" points="451.279,-226.787 461.868,-226.451 453.38,-220.11 451.279,-226.787"/>
<text text-anchor="middle" x="388" y="-222.8" font-family="Times New Roman,serif" font-size="14.00" fill="lightgray">wff ps</text>
</g>
<!-- n7843&#45;&gt;n7848 -->
<g id="edge14" class="edge"><title>n7843&#45;&gt;n7848</title>
<path fill="none" stroke="lightgray" d="M513.567,-162C565.964,-162 684.489,-162 746.743,-162"/>
<polygon fill="lightgray" stroke="lightgray" points="746.958,-165.5 756.958,-162 746.958,-158.5 746.958,-165.5"/>
<text text-anchor="middle" x="637.095" y="-165.8" font-family="Times New Roman,serif" font-size="14.00" fill="lightgray">wff ch</text>
</g>
<!-- n7846 -->
<g id="node16" class="node"><title>n7846</title>
<ellipse fill="lawngreen" stroke="black" cx="486.547" cy="-90" rx="29.795" ry="18"/>
<text text-anchor="middle" x="486.547" y="-86.3" font-family="Times New Roman,serif" font-size="14.00">df&#45;an</text>
</g>
<!-- n7843&#45;&gt;n7846 -->
<g id="edge23" class="edge"><title>n7843&#45;&gt;n7846</title>
</g>
<!-- n7844 -->
<g id="node15" class="node"><title>n7844</title>
<ellipse fill="none" stroke="lightgray" cx="293" cy="-113" rx="27" ry="18"/>
<text text-anchor="middle" x="293" y="-109.3" font-family="Times New Roman,serif" font-size="14.00" fill="lightgray">wph</text>
</g>
<!-- n7844&#45;&gt;n7846 -->
<g id="edge15" class="edge"><title>n7844&#45;&gt;n7846</title>
<path fill="none" stroke="lightgray" d="M319.833,-109.898C352.503,-105.975 409.046,-99.1859 446.872,-94.6439"/>
<polygon fill="lightgray" stroke="lightgray" points="447.498,-98.0939 457.01,-93.4266 446.664,-91.1439 447.498,-98.0939"/>
<text text-anchor="middle" x="388" y="-111.8" font-family="Times New Roman,serif" font-size="14.00" fill="lightgray">wff ph</text>
</g>
<!-- n7845 -->
<g id="node17" class="node"><title>n7845</title>
<ellipse fill="none" stroke="lightgray" cx="293" cy="-41" rx="27" ry="18"/>
<text text-anchor="middle" x="293" y="-37.3" font-family="Times New Roman,serif" font-size="14.00" fill="lightgray">wps</text>
</g>
<!-- n7844&#45;&gt;n7845 -->
<g id="edge18" class="edge"><title>n7844&#45;&gt;n7845</title>
</g>
<!-- n7846&#45;&gt;n7848 -->
<g id="edge17" class="edge"><title>n7846&#45;&gt;n7848</title>
<path fill="none" stroke="black" d="M515.863,-94.3268C562.854,-101.87 659.642,-118.952 739.095,-143 743.742,-144.407 748.571,-146.078 753.293,-147.837"/>
<polygon fill="black" stroke="black" points="752.152,-151.149 762.74,-151.515 754.691,-144.626 752.152,-151.149"/>
<text text-anchor="middle" x="637.095" y="-146.8" font-family="Times New Roman,serif" font-size="14.00">|&#45; ( ( ph /\ ps ) &lt;&#45;&gt; &#45;. ( ph &#45;&gt; &#45;. ps ) )</text>
</g>
<!-- n7847 -->
<g id="node18" class="node"><title>n7847</title>
<ellipse fill="orange" stroke="black" cx="486.547" cy="-18" rx="30.5947" ry="18"/>
<text text-anchor="middle" x="486.547" y="-14.3" font-family="Times New Roman,serif" font-size="14.00">exp.1</text>
</g>
<!-- n7846&#45;&gt;n7847 -->
<g id="edge24" class="edge"><title>n7846&#45;&gt;n7847</title>
</g>
<!-- n7845&#45;&gt;n7846 -->
<g id="edge16" class="edge"><title>n7845&#45;&gt;n7846</title>
<path fill="none" stroke="lightgray" d="M318.649,-47.3056C351.763,-55.7763 410.862,-70.8947 449.116,-80.6805"/>
<polygon fill="lightgray" stroke="lightgray" points="448.283,-84.0801 458.839,-83.1676 450.018,-77.2984 448.283,-84.0801"/>
<text text-anchor="middle" x="388" y="-80.8" font-family="Times New Roman,serif" font-size="14.00" fill="lightgray">wff ps</text>
</g>
<!-- n7847&#45;&gt;n7848 -->
<g id="edge19" class="edge"><title>n7847&#45;&gt;n7848</title>
<path fill="none" stroke="black" d="M517.448,-18.073C568.048,-19.6616 671.627,-29.3999 739.095,-80 757.312,-93.6626 769.727,-116.513 777.29,-134.627"/>
<polygon fill="black" stroke="black" points="774.098,-136.075 780.999,-144.115 780.618,-133.527 774.098,-136.075"/>
<text text-anchor="middle" x="637.095" y="-83.8" font-family="Times New Roman,serif" font-size="14.00">|&#45; ( ( ph /\ ps ) &#45;&gt; ch )</text>
</g>
</g>
</svg>
