<?xml version="1.0" encoding="UTF-8" standalone="no"?>
<!DOCTYPE svg PUBLIC "-//W3C//DTD SVG 1.1//EN"
 "http://www.w3.org/Graphics/SVG/1.1/DTD/svg11.dtd">
<!-- Generated by graphviz version 2.38.0 (20140413.2041)
 -->
<!-- Title: proof_exbiri Pages: 1 -->
<svg width="1031pt" height="439pt"
 viewBox="0.00 0.00 1030.58 439.00" xmlns="http://www.w3.org/2000/svg" xmlns:xlink="http://www.w3.org/1999/xlink">
<g id="graph0" class="graph" transform="scale(1 1) rotate(0) translate(4 435)">
<title>proof_exbiri</title>
<polygon fill="white" stroke="none" points="-4,4 -4,-435 1026.58,-435 1026.58,4 -4,4"/>
<!-- n10667 -->
<g id="node1" class="node"><title>n10667</title>
<ellipse fill="none" stroke="lightgray" cx="452.74" cy="-413" rx="27" ry="18"/>
<text text-anchor="middle" x="452.74" y="-409.3" font-family="Times New Roman,serif" font-size="14.00" fill="lightgray">wph</text>
</g>
<!-- n10678 -->
<g id="node2" class="node"><title>n10678</title>
<ellipse fill="cyan" stroke="black" cx="722.584" cy="-269" rx="32.4942" ry="18"/>
<text text-anchor="middle" x="722.584" y="-265.3" font-family="Times New Roman,serif" font-size="14.00">exp31</text>
</g>
<!-- n10667&#45;&gt;n10678 -->
<g id="edge1" class="edge"><title>n10667&#45;&gt;n10678</title>
<path fill="none" stroke="lightgray" d="M479.922,-410.961C523.787,-406.358 613.108,-391.784 672.087,-347 689.277,-333.947 702.073,-313.06 710.344,-296.184"/>
<polygon fill="lightgray" stroke="lightgray" points="713.663,-297.346 714.69,-286.801 707.311,-294.404 713.663,-297.346"/>
<text text-anchor="middle" x="590.587" y="-409.8" font-family="Times New Roman,serif" font-size="14.00" fill="lightgray">wff ph</text>
</g>
<!-- n10668 -->
<g id="node3" class="node"><title>n10668</title>
<ellipse fill="none" stroke="lightgray" cx="452.74" cy="-341" rx="27" ry="18"/>
<text text-anchor="middle" x="452.74" y="-337.3" font-family="Times New Roman,serif" font-size="14.00" fill="lightgray">wps</text>
</g>
<!-- n10667&#45;&gt;n10668 -->
<g id="edge17" class="edge"><title>n10667&#45;&gt;n10668</title>
</g>
<!-- QED -->
<g id="node13" class="node"><title>QED</title>
</g>
<!-- n10678&#45;&gt;QED -->
<g id="edge16" class="edge"><title>n10678&#45;&gt;QED</title>
<path fill="none" stroke="black" d="M755.202,-269C804.632,-269 900.077,-269 953.572,-269"/>
<polygon fill="black" stroke="black" points="953.685,-272.5 963.685,-269 953.685,-265.5 953.685,-272.5"/>
<text text-anchor="middle" x="859.581" y="-272.8" font-family="Times New Roman,serif" font-size="14.00">|&#45; ( ph &#45;&gt; ( ps &#45;&gt; ( th &#45;&gt; ch ) ) )</text>
</g>
<!-- n10668&#45;&gt;n10678 -->
<g id="edge2" class="edge"><title>n10668&#45;&gt;n10678</title>
<path fill="none" stroke="lightgray" d="M478.912,-335.989C519.845,-327.596 603.194,-309.486 672.087,-288 676.782,-286.536 681.674,-284.855 686.476,-283.111"/>
<polygon fill="lightgray" stroke="lightgray" points="687.981,-286.285 696.114,-279.495 685.522,-279.731 687.981,-286.285"/>
<text text-anchor="middle" x="590.587" y="-331.8" font-family="Times New Roman,serif" font-size="14.00" fill="lightgray">wff ps</text>
</g>
<!-- n10669 -->
<g id="node4" class="node"><title>n10669</title>
<ellipse fill="none" stroke="lightgray" cx="452.74" cy="-269" rx="27" ry="18"/>
<text text-anchor="middle" x="452.74" y="-265.3" font-family="Times New Roman,serif" font-size="14.00" fill="lightgray">wth</text>
</g>
<!-- n10668&#45;&gt;n10669 -->
<g id="edge18" class="edge"><title>n10668&#45;&gt;n10669</title>
</g>
<!-- n10669&#45;&gt;n10678 -->
<g id="edge3" class="edge"><title>n10669&#45;&gt;n10678</title>
<path fill="none" stroke="lightgray" d="M479.91,-269C526.407,-269 623.778,-269 679.694,-269"/>
<polygon fill="lightgray" stroke="lightgray" points="679.964,-272.5 689.964,-269 679.964,-265.5 679.964,-272.5"/>
<text text-anchor="middle" x="590.587" y="-272.8" font-family="Times New Roman,serif" font-size="14.00" fill="lightgray">wff th</text>
</g>
<!-- n10670 -->
<g id="node5" class="node"><title>n10670</title>
<ellipse fill="none" stroke="lightgray" cx="452.74" cy="-197" rx="27" ry="18"/>
<text text-anchor="middle" x="452.74" y="-193.3" font-family="Times New Roman,serif" font-size="14.00" fill="lightgray">wch</text>
</g>
<!-- n10669&#45;&gt;n10670 -->
<g id="edge19" class="edge"><title>n10669&#45;&gt;n10670</title>
</g>
<!-- n10670&#45;&gt;n10678 -->
<g id="edge4" class="edge"><title>n10670&#45;&gt;n10678</title>
<path fill="none" stroke="lightgray" d="M478.912,-202.011C519.845,-210.404 603.194,-228.514 672.087,-250 676.782,-251.464 681.674,-253.145 686.476,-254.889"/>
<polygon fill="lightgray" stroke="lightgray" points="685.522,-258.269 696.114,-258.505 687.981,-251.715 685.522,-258.269"/>
<text text-anchor="middle" x="590.587" y="-253.8" font-family="Times New Roman,serif" font-size="14.00" fill="lightgray">wff ch</text>
</g>
<!-- n10677 -->
<g id="node9" class="node"><title>n10677</title>
<ellipse fill="cyan" stroke="black" cx="452.74" cy="-125" rx="38.1938" ry="18"/>
<text text-anchor="middle" x="452.74" y="-121.3" font-family="Times New Roman,serif" font-size="14.00">biimpar</text>
</g>
<!-- n10670&#45;&gt;n10677 -->
<g id="edge20" class="edge"><title>n10670&#45;&gt;n10677</title>
</g>
<!-- n10671 -->
<g id="node6" class="node"><title>n10671</title>
<ellipse fill="none" stroke="lightgray" cx="27" cy="-279" rx="27" ry="18"/>
<text text-anchor="middle" x="27" y="-275.3" font-family="Times New Roman,serif" font-size="14.00" fill="lightgray">wph</text>
</g>
<!-- n10673 -->
<g id="node7" class="node"><title>n10673</title>
<ellipse fill="none" stroke="lightgray" cx="164.697" cy="-234" rx="27" ry="18"/>
<text text-anchor="middle" x="164.697" y="-230.3" font-family="Times New Roman,serif" font-size="14.00" fill="lightgray">wa</text>
</g>
<!-- n10671&#45;&gt;n10673 -->
<g id="edge5" class="edge"><title>n10671&#45;&gt;n10673</title>
<path fill="none" stroke="lightgray" d="M51.6366,-271.162C73.3933,-263.947 105.893,-253.169 130.298,-245.076"/>
<polygon fill="lightgray" stroke="lightgray" points="131.486,-248.369 139.876,-241.9 129.282,-241.725 131.486,-248.369"/>
<text text-anchor="middle" x="90.5" y="-267.8" font-family="Times New Roman,serif" font-size="14.00" fill="lightgray">wff ph</text>
</g>
<!-- n10672 -->
<g id="node8" class="node"><title>n10672</title>
<ellipse fill="none" stroke="lightgray" cx="27" cy="-207" rx="27" ry="18"/>
<text text-anchor="middle" x="27" y="-203.3" font-family="Times New Roman,serif" font-size="14.00" fill="lightgray">wps</text>
</g>
<!-- n10671&#45;&gt;n10672 -->
<g id="edge8" class="edge"><title>n10671&#45;&gt;n10672</title>
</g>
<!-- n10673&#45;&gt;n10677 -->
<g id="edge7" class="edge"><title>n10673&#45;&gt;n10677</title>
<path fill="none" stroke="lightgray" d="M191.7,-231.249C235.99,-225.713 327.912,-210.487 396.393,-174 408.427,-167.588 420.006,-158.058 429.434,-149.103"/>
<polygon fill="lightgray" stroke="lightgray" points="432.169,-151.32 436.811,-141.796 427.243,-146.347 432.169,-151.32"/>
<text text-anchor="middle" x="308.393" y="-230.8" font-family="Times New Roman,serif" font-size="14.00" fill="lightgray">wff ( ph /\ ps )</text>
</g>
<!-- n10674 -->
<g id="node10" class="node"><title>n10674</title>
<ellipse fill="none" stroke="lightgray" cx="164.697" cy="-162" rx="27" ry="18"/>
<text text-anchor="middle" x="164.697" y="-158.3" font-family="Times New Roman,serif" font-size="14.00" fill="lightgray">wch</text>
</g>
<!-- n10673&#45;&gt;n10674 -->
<g id="edge13" class="edge"><title>n10673&#45;&gt;n10674</title>
</g>
<!-- n10672&#45;&gt;n10673 -->
<g id="edge6" class="edge"><title>n10672&#45;&gt;n10673</title>
<path fill="none" stroke="lightgray" d="M53.2055,-212.015C74.4369,-216.24 105.037,-222.328 128.653,-227.027"/>
<polygon fill="lightgray" stroke="lightgray" points="128.135,-230.493 138.626,-229.012 129.501,-223.627 128.135,-230.493"/>
<text text-anchor="middle" x="90.5" y="-226.8" font-family="Times New Roman,serif" font-size="14.00" fill="lightgray">wff ps</text>
</g>
<!-- n10677&#45;&gt;n10678 -->
<g id="edge12" class="edge"><title>n10677&#45;&gt;n10678</title>
<path fill="none" stroke="black" d="M490.507,-128.249C536.991,-133.994 617.523,-149.569 672.087,-191 689.277,-204.053 702.073,-224.94 710.344,-241.816"/>
<polygon fill="black" stroke="black" points="707.311,-243.596 714.69,-251.199 713.663,-240.654 707.311,-243.596"/>
<text text-anchor="middle" x="590.587" y="-194.8" font-family="Times New Roman,serif" font-size="14.00">|&#45; ( ( ( ph /\ ps ) /\ th ) &#45;&gt; ch )</text>
</g>
<!-- n10674&#45;&gt;n10677 -->
<g id="edge9" class="edge"><title>n10674&#45;&gt;n10677</title>
<path fill="none" stroke="lightgray" d="M191.333,-158.684C239.555,-152.446 344.379,-138.887 405.306,-131.006"/>
<polygon fill="lightgray" stroke="lightgray" points="405.951,-134.452 415.419,-129.698 405.053,-127.51 405.951,-134.452"/>
<text text-anchor="middle" x="308.393" y="-158.8" font-family="Times New Roman,serif" font-size="14.00" fill="lightgray">wff ch</text>
</g>
<!-- n10675 -->
<g id="node11" class="node"><title>n10675</title>
<ellipse fill="none" stroke="lightgray" cx="164.697" cy="-90" rx="27" ry="18"/>
<text text-anchor="middle" x="164.697" y="-86.3" font-family="Times New Roman,serif" font-size="14.00" fill="lightgray">wth</text>
</g>
<!-- n10674&#45;&gt;n10675 -->
<g id="edge14" class="edge"><title>n10674&#45;&gt;n10675</title>
</g>
<!-- n10675&#45;&gt;n10677 -->
<g id="edge10" class="edge"><title>n10675&#45;&gt;n10677</title>
<path fill="none" stroke="lightgray" d="M191.696,-92.5111C234.469,-96.7361 322.325,-105.81 396.393,-116 399.624,-116.444 402.957,-116.927 406.31,-117.429"/>
<polygon fill="lightgray" stroke="lightgray" points="405.931,-120.912 416.348,-118.98 407,-113.994 405.931,-120.912"/>
<text text-anchor="middle" x="308.393" y="-119.8" font-family="Times New Roman,serif" font-size="14.00" fill="lightgray">wff th</text>
</g>
<!-- n10676 -->
<g id="node12" class="node"><title>n10676</title>
<ellipse fill="orange" stroke="black" cx="164.697" cy="-18" rx="37.8943" ry="18"/>
<text text-anchor="middle" x="164.697" y="-14.3" font-family="Times New Roman,serif" font-size="14.00">exbiri.1</text>
</g>
<!-- n10675&#45;&gt;n10676 -->
<g id="edge15" class="edge"><title>n10675&#45;&gt;n10676</title>
</g>
<!-- n10676&#45;&gt;n10677 -->
<g id="edge11" class="edge"><title>n10676&#45;&gt;n10677</title>
<path fill="none" stroke="black" d="M201.523,-21.9563C248.513,-28.278 332.486,-43.5338 396.393,-77 408.365,-83.2693 419.933,-92.6029 429.371,-101.377"/>
<polygon fill="black" stroke="black" points="427.142,-104.091 436.759,-108.537 432.013,-99.0643 427.142,-104.091"/>
<text text-anchor="middle" x="308.393" y="-80.8" font-family="Times New Roman,serif" font-size="14.00">|&#45; ( ( ph /\ ps ) &#45;&gt; ( ch &lt;&#45;&gt; th ) )</text>
</g>
</g>
</svg>
