<?xml version="1.0" encoding="UTF-8" standalone="no"?>
<!DOCTYPE svg PUBLIC "-//W3C//DTD SVG 1.1//EN"
 "http://www.w3.org/Graphics/SVG/1.1/DTD/svg11.dtd">
<!-- Generated by graphviz version 2.38.0 (20140413.2041)
 -->
<!-- Title: proof_exmidd Pages: 1 -->
<svg width="750pt" height="224pt"
 viewBox="0.00 0.00 750.49 224.00" xmlns="http://www.w3.org/2000/svg" xmlns:xlink="http://www.w3.org/1999/xlink">
<g id="graph0" class="graph" transform="scale(1 1) rotate(0) translate(4 220)">
<title>proof_exmidd</title>
<polygon fill="white" stroke="none" points="-4,4 -4,-220 746.489,-220 746.489,4 -4,4"/>
<!-- n7639 -->
<g id="node1" class="node"><title>n7639</title>
<ellipse fill="none" stroke="lightgray" cx="154" cy="-198" rx="27" ry="18"/>
<text text-anchor="middle" x="154" y="-194.3" font-family="Times New Roman,serif" font-size="14.00" fill="lightgray">wps</text>
</g>
<!-- n7642 -->
<g id="node2" class="node"><title>n7642</title>
<ellipse fill="none" stroke="lightgray" cx="298.497" cy="-162" rx="27" ry="18"/>
<text text-anchor="middle" x="298.497" y="-158.3" font-family="Times New Roman,serif" font-size="14.00" fill="lightgray">wo</text>
</g>
<!-- n7639&#45;&gt;n7642 -->
<g id="edge1" class="edge"><title>n7639&#45;&gt;n7642</title>
<path fill="none" stroke="lightgray" d="M179.496,-191.811C202.538,-185.99 237.259,-177.218 263.08,-170.695"/>
<polygon fill="lightgray" stroke="lightgray" points="264.006,-174.071 272.844,-168.228 262.291,-167.284 264.006,-174.071"/>
<text text-anchor="middle" x="223.5" y="-189.8" font-family="Times New Roman,serif" font-size="14.00" fill="lightgray">wff ps</text>
</g>
<!-- n7641 -->
<g id="node4" class="node"><title>n7641</title>
<ellipse fill="none" stroke="lightgray" cx="154" cy="-126" rx="27" ry="18"/>
<text text-anchor="middle" x="154" y="-122.3" font-family="Times New Roman,serif" font-size="14.00" fill="lightgray">wn</text>
</g>
<!-- n7639&#45;&gt;n7641 -->
<g id="edge5" class="edge"><title>n7639&#45;&gt;n7641</title>
</g>
<!-- n7646 -->
<g id="node5" class="node"><title>n7646</title>
<ellipse fill="cyan" stroke="black" cx="487.994" cy="-90" rx="27" ry="18"/>
<text text-anchor="middle" x="487.994" y="-86.3" font-family="Times New Roman,serif" font-size="14.00">a1i</text>
</g>
<!-- n7642&#45;&gt;n7646 -->
<g id="edge4" class="edge"><title>n7642&#45;&gt;n7646</title>
<path fill="none" stroke="lightgray" d="M322.757,-153.844C351.262,-143.749 400.956,-125.826 442.994,-109 447.192,-107.32 451.591,-105.497 455.915,-103.667"/>
<polygon fill="lightgray" stroke="lightgray" points="457.346,-106.862 465.158,-99.7046 454.588,-100.428 457.346,-106.862"/>
<text text-anchor="middle" x="395.994" y="-147.8" font-family="Times New Roman,serif" font-size="14.00" fill="lightgray">wff ( ps \/ &#45;. ps )</text>
</g>
<!-- n7643 -->
<g id="node6" class="node"><title>n7643</title>
<ellipse fill="none" stroke="lightgray" cx="298.497" cy="-90" rx="27" ry="18"/>
<text text-anchor="middle" x="298.497" y="-86.3" font-family="Times New Roman,serif" font-size="14.00" fill="lightgray">wph</text>
</g>
<!-- n7642&#45;&gt;n7643 -->
<g id="edge10" class="edge"><title>n7642&#45;&gt;n7643</title>
</g>
<!-- n7640 -->
<g id="node3" class="node"><title>n7640</title>
<ellipse fill="none" stroke="lightgray" cx="27" cy="-126" rx="27" ry="18"/>
<text text-anchor="middle" x="27" y="-122.3" font-family="Times New Roman,serif" font-size="14.00" fill="lightgray">wps</text>
</g>
<!-- n7640&#45;&gt;n7641 -->
<g id="edge2" class="edge"><title>n7640&#45;&gt;n7641</title>
<path fill="none" stroke="lightgray" d="M54.2041,-126C72.3711,-126 96.7994,-126 116.82,-126"/>
<polygon fill="lightgray" stroke="lightgray" points="116.83,-129.5 126.83,-126 116.83,-122.5 116.83,-129.5"/>
<text text-anchor="middle" x="90.5" y="-129.8" font-family="Times New Roman,serif" font-size="14.00" fill="lightgray">wff ps</text>
</g>
<!-- n7641&#45;&gt;n7642 -->
<g id="edge3" class="edge"><title>n7641&#45;&gt;n7642</title>
<path fill="none" stroke="lightgray" d="M179.496,-132.189C202.538,-138.01 237.259,-146.782 263.08,-153.305"/>
<polygon fill="lightgray" stroke="lightgray" points="262.291,-156.716 272.844,-155.772 264.006,-149.929 262.291,-156.716"/>
<text text-anchor="middle" x="223.5" y="-152.8" font-family="Times New Roman,serif" font-size="14.00" fill="lightgray">wff &#45;. ps</text>
</g>
<!-- QED -->
<g id="node9" class="node"><title>QED</title>
</g>
<!-- n7646&#45;&gt;QED -->
<g id="edge9" class="edge"><title>n7646&#45;&gt;QED</title>
<path fill="none" stroke="black" d="M515.04,-90C554.202,-90 628.486,-90 673.861,-90"/>
<polygon fill="black" stroke="black" points="673.908,-93.5001 683.908,-90 673.908,-86.5001 673.908,-93.5001"/>
<text text-anchor="middle" x="599.494" y="-93.8" font-family="Times New Roman,serif" font-size="14.00">|&#45; ( ph &#45;&gt; ( ps \/ &#45;. ps ) )</text>
</g>
<!-- n7643&#45;&gt;n7646 -->
<g id="edge6" class="edge"><title>n7643&#45;&gt;n7646</title>
<path fill="none" stroke="lightgray" d="M325.568,-90C358.08,-90 413.844,-90 450.566,-90"/>
<polygon fill="lightgray" stroke="lightgray" points="450.843,-93.5001 460.843,-90 450.843,-86.5001 450.843,-93.5001"/>
<text text-anchor="middle" x="395.994" y="-93.8" font-family="Times New Roman,serif" font-size="14.00" fill="lightgray">wff ph</text>
</g>
<!-- n7645 -->
<g id="node8" class="node"><title>n7645</title>
<ellipse fill="cyan" stroke="black" cx="298.497" cy="-18" rx="32.4942" ry="18"/>
<text text-anchor="middle" x="298.497" y="-14.3" font-family="Times New Roman,serif" font-size="14.00">exmid</text>
</g>
<!-- n7643&#45;&gt;n7645 -->
<g id="edge11" class="edge"><title>n7643&#45;&gt;n7645</title>
</g>
<!-- n7644 -->
<g id="node7" class="node"><title>n7644</title>
<ellipse fill="none" stroke="lightgray" cx="154" cy="-18" rx="27" ry="18"/>
<text text-anchor="middle" x="154" y="-14.3" font-family="Times New Roman,serif" font-size="14.00" fill="lightgray">wps</text>
</g>
<!-- n7644&#45;&gt;n7645 -->
<g id="edge7" class="edge"><title>n7644&#45;&gt;n7645</title>
<path fill="none" stroke="lightgray" d="M181.136,-18C201.923,-18 231.413,-18 255.503,-18"/>
<polygon fill="lightgray" stroke="lightgray" points="255.798,-21.5001 265.798,-18 255.798,-14.5001 255.798,-21.5001"/>
<text text-anchor="middle" x="223.5" y="-21.8" font-family="Times New Roman,serif" font-size="14.00" fill="lightgray">wff ps</text>
</g>
<!-- n7645&#45;&gt;n7646 -->
<g id="edge8" class="edge"><title>n7645&#45;&gt;n7646</title>
<path fill="none" stroke="black" d="M326.373,-27.4386C355.329,-37.7212 402.682,-54.8651 442.994,-71 447.192,-72.6802 451.591,-74.5033 455.915,-76.3328"/>
<polygon fill="black" stroke="black" points="454.588,-79.5719 465.158,-80.2954 457.346,-73.1382 454.588,-79.5719"/>
<text text-anchor="middle" x="395.994" y="-74.8" font-family="Times New Roman,serif" font-size="14.00">|&#45; ( ps \/ &#45;. ps )</text>
</g>
</g>
</svg>
