<?xml version="1.0" encoding="UTF-8" standalone="no"?>
<!DOCTYPE svg PUBLIC "-//W3C//DTD SVG 1.1//EN"
 "http://www.w3.org/Graphics/SVG/1.1/DTD/svg11.dtd">
<!-- Generated by graphviz version 2.38.0 (20140413.2041)
 -->
<!-- Title: proof_exp4a Pages: 1 -->
<svg width="1060pt" height="516pt"
 viewBox="0.00 0.00 1060.48 516.00" xmlns="http://www.w3.org/2000/svg" xmlns:xlink="http://www.w3.org/1999/xlink">
<g id="graph0" class="graph" transform="scale(1 1) rotate(0) translate(4 512)">
<title>proof_exp4a</title>
<polygon fill="white" stroke="none" points="-4,4 -4,-512 1056.48,-512 1056.48,4 -4,4"/>
<!-- n10436 -->
<g id="node1" class="node"><title>n10436</title>
<ellipse fill="none" stroke="lightgray" cx="335.997" cy="-486" rx="27" ry="18"/>
<text text-anchor="middle" x="335.997" y="-482.3" font-family="Times New Roman,serif" font-size="14.00" fill="lightgray">wph</text>
</g>
<!-- n10453 -->
<g id="node2" class="node"><title>n10453</title>
<ellipse fill="cyan" stroke="black" cx="705.49" cy="-305" rx="32.4942" ry="18"/>
<text text-anchor="middle" x="705.49" y="-301.3" font-family="Times New Roman,serif" font-size="14.00">syl6ib</text>
</g>
<!-- n10436&#45;&gt;n10453 -->
<g id="edge1" class="edge"><title>n10436&#45;&gt;n10453</title>
<path fill="none" stroke="lightgray" d="M362.641,-489.438C421.464,-495.839 567.734,-503.097 654.993,-432 685.057,-407.505 696.913,-362.329 701.554,-332.986"/>
<polygon fill="lightgray" stroke="lightgray" points="705.037,-333.349 702.957,-322.96 698.105,-332.378 705.037,-333.349"/>
<text text-anchor="middle" x="523.993" y="-496.8" font-family="Times New Roman,serif" font-size="14.00" fill="lightgray">wff ph</text>
</g>
<!-- n10437 -->
<g id="node3" class="node"><title>n10437</title>
<ellipse fill="none" stroke="lightgray" cx="335.997" cy="-414" rx="27" ry="18"/>
<text text-anchor="middle" x="335.997" y="-410.3" font-family="Times New Roman,serif" font-size="14.00" fill="lightgray">wps</text>
</g>
<!-- n10436&#45;&gt;n10437 -->
<g id="edge25" class="edge"><title>n10436&#45;&gt;n10437</title>
</g>
<!-- QED -->
<g id="node19" class="node"><title>QED</title>
</g>
<!-- n10453&#45;&gt;QED -->
<g id="edge24" class="edge"><title>n10453&#45;&gt;QED</title>
<path fill="none" stroke="black" d="M738.211,-305C796.456,-305 920.26,-305 983.42,-305"/>
<polygon fill="black" stroke="black" points="983.748,-308.5 993.748,-305 983.748,-301.5 983.748,-308.5"/>
<text text-anchor="middle" x="865.987" y="-308.8" font-family="Times New Roman,serif" font-size="14.00">|&#45; ( ph &#45;&gt; ( ps &#45;&gt; ( ch &#45;&gt; ( th &#45;&gt; ta ) ) ) )</text>
</g>
<!-- n10437&#45;&gt;n10453 -->
<g id="edge2" class="edge"><title>n10437&#45;&gt;n10453</title>
<path fill="none" stroke="lightgray" d="M363.045,-414.476C419.66,-414.439 556.725,-408.463 654.993,-356 666.898,-349.644 677.665,-339.41 686.094,-329.771"/>
<polygon fill="lightgray" stroke="lightgray" points="688.918,-331.849 692.598,-321.913 683.526,-327.385 688.918,-331.849"/>
<text text-anchor="middle" x="523.993" y="-416.8" font-family="Times New Roman,serif" font-size="14.00" fill="lightgray">wff ps</text>
</g>
<!-- n10442 -->
<g id="node7" class="node"><title>n10442</title>
<ellipse fill="none" stroke="lightgray" cx="335.997" cy="-342" rx="27" ry="18"/>
<text text-anchor="middle" x="335.997" y="-338.3" font-family="Times New Roman,serif" font-size="14.00" fill="lightgray">wi</text>
</g>
<!-- n10437&#45;&gt;n10442 -->
<g id="edge26" class="edge"><title>n10437&#45;&gt;n10442</title>
</g>
<!-- n10438 -->
<g id="node4" class="node"><title>n10438</title>
<ellipse fill="none" stroke="lightgray" cx="27" cy="-422" rx="27" ry="18"/>
<text text-anchor="middle" x="27" y="-418.3" font-family="Times New Roman,serif" font-size="14.00" fill="lightgray">wch</text>
</g>
<!-- n10440 -->
<g id="node5" class="node"><title>n10440</title>
<ellipse fill="none" stroke="lightgray" cx="154" cy="-414" rx="27" ry="18"/>
<text text-anchor="middle" x="154" y="-410.3" font-family="Times New Roman,serif" font-size="14.00" fill="lightgray">wa</text>
</g>
<!-- n10438&#45;&gt;n10440 -->
<g id="edge3" class="edge"><title>n10438&#45;&gt;n10440</title>
<path fill="none" stroke="lightgray" d="M53.9001,-420.342C72.0469,-419.181 96.5497,-417.613 116.65,-416.326"/>
<polygon fill="lightgray" stroke="lightgray" points="116.947,-419.815 126.703,-415.683 116.5,-412.829 116.947,-419.815"/>
<text text-anchor="middle" x="90.5" y="-422.8" font-family="Times New Roman,serif" font-size="14.00" fill="lightgray">wff ch</text>
</g>
<!-- n10439 -->
<g id="node6" class="node"><title>n10439</title>
<ellipse fill="none" stroke="lightgray" cx="27" cy="-350" rx="27" ry="18"/>
<text text-anchor="middle" x="27" y="-346.3" font-family="Times New Roman,serif" font-size="14.00" fill="lightgray">wth</text>
</g>
<!-- n10438&#45;&gt;n10439 -->
<g id="edge6" class="edge"><title>n10438&#45;&gt;n10439</title>
</g>
<!-- n10440&#45;&gt;n10442 -->
<g id="edge5" class="edge"><title>n10440&#45;&gt;n10442</title>
<path fill="none" stroke="lightgray" d="M177.433,-405.027C209.047,-392.381 266.873,-369.25 302.993,-354.802"/>
<polygon fill="lightgray" stroke="lightgray" points="304.58,-357.937 312.565,-350.973 301.98,-351.437 304.58,-357.937"/>
<text text-anchor="middle" x="239" y="-397.8" font-family="Times New Roman,serif" font-size="14.00" fill="lightgray">wff ( ch / th )</text>
</g>
<!-- n10441 -->
<g id="node8" class="node"><title>n10441</title>
<ellipse fill="none" stroke="lightgray" cx="154" cy="-342" rx="27" ry="18"/>
<text text-anchor="middle" x="154" y="-338.3" font-family="Times New Roman,serif" font-size="14.00" fill="lightgray">wta</text>
</g>
<!-- n10440&#45;&gt;n10441 -->
<g id="edge9" class="edge"><title>n10440&#45;&gt;n10441</title>
</g>
<!-- n10439&#45;&gt;n10440 -->
<g id="edge4" class="edge"><title>n10439&#45;&gt;n10440</title>
<path fill="none" stroke="lightgray" d="M48.9222,-360.712C69.2023,-371.096 100.171,-386.952 123.059,-398.67"/>
<polygon fill="lightgray" stroke="lightgray" points="121.513,-401.811 132.01,-403.253 124.704,-395.58 121.513,-401.811"/>
<text text-anchor="middle" x="90.5" y="-394.8" font-family="Times New Roman,serif" font-size="14.00" fill="lightgray">wff th</text>
</g>
<!-- n10442&#45;&gt;n10453 -->
<g id="edge8" class="edge"><title>n10442&#45;&gt;n10453</title>
<path fill="none" stroke="lightgray" d="M362.986,-339.674C417.27,-334.771 546.641,-322.847 654.993,-311 657.817,-310.691 660.729,-310.363 663.662,-310.026"/>
<polygon fill="lightgray" stroke="lightgray" points="664.088,-313.5 673.611,-308.857 663.271,-306.548 664.088,-313.5"/>
<text text-anchor="middle" x="523.993" y="-340.8" font-family="Times New Roman,serif" font-size="14.00" fill="lightgray">wff ( ( ch / th ) &#45;&gt; ta )</text>
</g>
<!-- n10447 -->
<g id="node10" class="node"><title>n10447</title>
<ellipse fill="none" stroke="lightgray" cx="335.997" cy="-270" rx="27" ry="18"/>
<text text-anchor="middle" x="335.997" y="-266.3" font-family="Times New Roman,serif" font-size="14.00" fill="lightgray">wi</text>
</g>
<!-- n10442&#45;&gt;n10447 -->
<g id="edge27" class="edge"><title>n10442&#45;&gt;n10447</title>
</g>
<!-- n10441&#45;&gt;n10442 -->
<g id="edge7" class="edge"><title>n10441&#45;&gt;n10442</title>
<path fill="none" stroke="lightgray" d="M181.173,-342C212.1,-342 263.744,-342 298.566,-342"/>
<polygon fill="lightgray" stroke="lightgray" points="298.792,-345.5 308.792,-342 298.792,-338.5 298.792,-345.5"/>
<text text-anchor="middle" x="239" y="-345.8" font-family="Times New Roman,serif" font-size="14.00" fill="lightgray">wff ta</text>
</g>
<!-- n10443 -->
<g id="node9" class="node"><title>n10443</title>
<ellipse fill="none" stroke="lightgray" cx="154" cy="-288" rx="27" ry="18"/>
<text text-anchor="middle" x="154" y="-284.3" font-family="Times New Roman,serif" font-size="14.00" fill="lightgray">wch</text>
</g>
<!-- n10443&#45;&gt;n10447 -->
<g id="edge10" class="edge"><title>n10443&#45;&gt;n10447</title>
<path fill="none" stroke="lightgray" d="M180.789,-285.421C211.799,-282.32 264.029,-277.097 298.999,-273.6"/>
<polygon fill="lightgray" stroke="lightgray" points="299.653,-277.052 309.255,-272.574 298.957,-270.087 299.653,-277.052"/>
<text text-anchor="middle" x="239" y="-287.8" font-family="Times New Roman,serif" font-size="14.00" fill="lightgray">wff ch</text>
</g>
<!-- n10446 -->
<g id="node12" class="node"><title>n10446</title>
<ellipse fill="none" stroke="lightgray" cx="154" cy="-216" rx="27" ry="18"/>
<text text-anchor="middle" x="154" y="-212.3" font-family="Times New Roman,serif" font-size="14.00" fill="lightgray">wi</text>
</g>
<!-- n10443&#45;&gt;n10446 -->
<g id="edge16" class="edge"><title>n10443&#45;&gt;n10446</title>
</g>
<!-- n10447&#45;&gt;n10453 -->
<g id="edge15" class="edge"><title>n10447&#45;&gt;n10453</title>
<path fill="none" stroke="lightgray" d="M363.057,-271.261C417.473,-274.086 547.077,-281.812 654.993,-296 658.197,-296.421 661.509,-296.909 664.831,-297.434"/>
<polygon fill="lightgray" stroke="lightgray" points="664.284,-300.892 674.726,-299.099 665.445,-293.989 664.284,-300.892"/>
<text text-anchor="middle" x="523.993" y="-299.8" font-family="Times New Roman,serif" font-size="14.00" fill="lightgray">wff ( ch &#45;&gt; ( th &#45;&gt; ta ) )</text>
</g>
<!-- n10448 -->
<g id="node14" class="node"><title>n10448</title>
<ellipse fill="orange" stroke="black" cx="335.997" cy="-198" rx="38.9931" ry="18"/>
<text text-anchor="middle" x="335.997" y="-194.3" font-family="Times New Roman,serif" font-size="14.00">exp4a.1</text>
</g>
<!-- n10447&#45;&gt;n10448 -->
<g id="edge28" class="edge"><title>n10447&#45;&gt;n10448</title>
</g>
<!-- n10444 -->
<g id="node11" class="node"><title>n10444</title>
<ellipse fill="none" stroke="lightgray" cx="27" cy="-288" rx="27" ry="18"/>
<text text-anchor="middle" x="27" y="-284.3" font-family="Times New Roman,serif" font-size="14.00" fill="lightgray">wth</text>
</g>
<!-- n10444&#45;&gt;n10446 -->
<g id="edge11" class="edge"><title>n10444&#45;&gt;n10446</title>
<path fill="none" stroke="lightgray" d="M48.0834,-276.432C68.6762,-264.571 100.901,-246.009 124.206,-232.586"/>
<polygon fill="lightgray" stroke="lightgray" points="126.048,-235.563 132.966,-227.539 122.554,-229.498 126.048,-235.563"/>
<text text-anchor="middle" x="90.5" y="-266.8" font-family="Times New Roman,serif" font-size="14.00" fill="lightgray">wff th</text>
</g>
<!-- n10445 -->
<g id="node13" class="node"><title>n10445</title>
<ellipse fill="none" stroke="lightgray" cx="27" cy="-216" rx="27" ry="18"/>
<text text-anchor="middle" x="27" y="-212.3" font-family="Times New Roman,serif" font-size="14.00" fill="lightgray">wta</text>
</g>
<!-- n10444&#45;&gt;n10445 -->
<g id="edge14" class="edge"><title>n10444&#45;&gt;n10445</title>
</g>
<!-- n10446&#45;&gt;n10447 -->
<g id="edge13" class="edge"><title>n10446&#45;&gt;n10447</title>
<path fill="none" stroke="lightgray" d="M178.902,-223.171C210.236,-232.571 265.392,-249.118 301.048,-259.815"/>
<polygon fill="lightgray" stroke="lightgray" points="300.412,-263.278 310.996,-262.8 302.423,-256.574 300.412,-263.278"/>
<text text-anchor="middle" x="239" y="-256.8" font-family="Times New Roman,serif" font-size="14.00" fill="lightgray">wff ( th &#45;&gt; ta )</text>
</g>
<!-- n10445&#45;&gt;n10446 -->
<g id="edge12" class="edge"><title>n10445&#45;&gt;n10446</title>
<path fill="none" stroke="lightgray" d="M54.2041,-216C72.3711,-216 96.7994,-216 116.82,-216"/>
<polygon fill="lightgray" stroke="lightgray" points="116.83,-219.5 126.83,-216 116.83,-212.5 116.83,-219.5"/>
<text text-anchor="middle" x="90.5" y="-219.8" font-family="Times New Roman,serif" font-size="14.00" fill="lightgray">wff ta</text>
</g>
<!-- n10448&#45;&gt;n10453 -->
<g id="edge17" class="edge"><title>n10448&#45;&gt;n10453</title>
<path fill="none" stroke="black" d="M375.11,-197.575C437.301,-198.411 562.896,-206.595 654.993,-255 666.819,-261.215 677.575,-271.247 686.016,-280.699"/>
<polygon fill="black" stroke="black" points="683.405,-283.031 692.536,-288.406 688.75,-278.511 683.405,-283.031"/>
<text text-anchor="middle" x="523.993" y="-258.8" font-family="Times New Roman,serif" font-size="14.00">|&#45; ( ph &#45;&gt; ( ps &#45;&gt; ( ( ch / th ) &#45;&gt; ta ) ) )</text>
</g>
<!-- n10452 -->
<g id="node16" class="node"><title>n10452</title>
<ellipse fill="cyan" stroke="black" cx="335.997" cy="-126" rx="37.8943" ry="18"/>
<text text-anchor="middle" x="335.997" y="-122.3" font-family="Times New Roman,serif" font-size="14.00">impexp</text>
</g>
<!-- n10448&#45;&gt;n10452 -->
<g id="edge29" class="edge"><title>n10448&#45;&gt;n10452</title>
</g>
<!-- n10449 -->
<g id="node15" class="node"><title>n10449</title>
<ellipse fill="none" stroke="lightgray" cx="154" cy="-162" rx="27" ry="18"/>
<text text-anchor="middle" x="154" y="-158.3" font-family="Times New Roman,serif" font-size="14.00" fill="lightgray">wch</text>
</g>
<!-- n10449&#45;&gt;n10452 -->
<g id="edge18" class="edge"><title>n10449&#45;&gt;n10452</title>
<path fill="none" stroke="lightgray" d="M180.028,-156.994C208.689,-151.262 256.176,-141.765 291.042,-134.791"/>
<polygon fill="lightgray" stroke="lightgray" points="291.849,-138.199 300.969,-132.806 290.476,-131.335 291.849,-138.199"/>
<text text-anchor="middle" x="239" y="-156.8" font-family="Times New Roman,serif" font-size="14.00" fill="lightgray">wff ch</text>
</g>
<!-- n10450 -->
<g id="node17" class="node"><title>n10450</title>
<ellipse fill="none" stroke="lightgray" cx="154" cy="-90" rx="27" ry="18"/>
<text text-anchor="middle" x="154" y="-86.3" font-family="Times New Roman,serif" font-size="14.00" fill="lightgray">wth</text>
</g>
<!-- n10449&#45;&gt;n10450 -->
<g id="edge22" class="edge"><title>n10449&#45;&gt;n10450</title>
</g>
<!-- n10452&#45;&gt;n10453 -->
<g id="edge21" class="edge"><title>n10452&#45;&gt;n10453</title>
<path fill="none" stroke="black" d="M372.525,-121.453C436.508,-115.31 572.142,-111.889 654.993,-179 684.758,-203.11 696.686,-247.593 701.424,-276.734"/>
<polygon fill="black" stroke="black" points="697.971,-277.313 702.864,-286.71 704.899,-276.313 697.971,-277.313"/>
<text text-anchor="middle" x="523.993" y="-182.8" font-family="Times New Roman,serif" font-size="14.00">|&#45; ( ( ( ch / th ) &#45;&gt; ta ) &lt;&#45;&gt; ( ch &#45;&gt; ( th &#45;&gt; ta ) ) )</text>
</g>
<!-- n10450&#45;&gt;n10452 -->
<g id="edge19" class="edge"><title>n10450&#45;&gt;n10452</title>
<path fill="none" stroke="lightgray" d="M180.028,-95.0056C208.689,-100.738 256.176,-110.235 291.042,-117.209"/>
<polygon fill="lightgray" stroke="lightgray" points="290.476,-120.665 300.969,-119.194 291.849,-113.801 290.476,-120.665"/>
<text text-anchor="middle" x="239" y="-118.8" font-family="Times New Roman,serif" font-size="14.00" fill="lightgray">wff th</text>
</g>
<!-- n10451 -->
<g id="node18" class="node"><title>n10451</title>
<ellipse fill="none" stroke="lightgray" cx="154" cy="-18" rx="27" ry="18"/>
<text text-anchor="middle" x="154" y="-14.3" font-family="Times New Roman,serif" font-size="14.00" fill="lightgray">wta</text>
</g>
<!-- n10450&#45;&gt;n10451 -->
<g id="edge23" class="edge"><title>n10450&#45;&gt;n10451</title>
</g>
<!-- n10451&#45;&gt;n10452 -->
<g id="edge20" class="edge"><title>n10451&#45;&gt;n10452</title>
<path fill="none" stroke="lightgray" d="M177.259,-27.6155C202.679,-38.9768 245.127,-59.1201 279,-81 289.372,-87.6993 300.096,-95.947 309.349,-103.543"/>
<polygon fill="lightgray" stroke="lightgray" points="307.141,-106.26 317.056,-109.996 311.635,-100.893 307.141,-106.26"/>
<text text-anchor="middle" x="239" y="-84.8" font-family="Times New Roman,serif" font-size="14.00" fill="lightgray">wff ta</text>
</g>
</g>
</svg>
