<?xml version="1.0" encoding="UTF-8" standalone="no"?>
<!DOCTYPE svg PUBLIC "-//W3C//DTD SVG 1.1//EN"
 "http://www.w3.org/Graphics/SVG/1.1/DTD/svg11.dtd">
<!-- Generated by graphviz version 2.38.0 (20140413.2041)
 -->
<!-- Title: proof_exp45 Pages: 1 -->
<svg width="1135pt" height="548pt"
 viewBox="0.00 0.00 1134.78 548.00" xmlns="http://www.w3.org/2000/svg" xmlns:xlink="http://www.w3.org/1999/xlink">
<g id="graph0" class="graph" transform="scale(1 1) rotate(0) translate(4 544)">
<title>proof_exp45</title>
<polygon fill="white" stroke="none" points="-4,4 -4,-544 1130.78,-544 1130.78,4 -4,4"/>
<!-- n10559 -->
<g id="node1" class="node"><title>n10559</title>
<ellipse fill="none" stroke="lightgray" cx="467.79" cy="-522" rx="27" ry="18"/>
<text text-anchor="middle" x="467.79" y="-518.3" font-family="Times New Roman,serif" font-size="14.00" fill="lightgray">wph</text>
</g>
<!-- n10572 -->
<g id="node2" class="node"><title>n10572</title>
<ellipse fill="cyan" stroke="black" cx="779.784" cy="-341" rx="32.4942" ry="18"/>
<text text-anchor="middle" x="779.784" y="-337.3" font-family="Times New Roman,serif" font-size="14.00">exp4a</text>
</g>
<!-- n10559&#45;&gt;n10572 -->
<g id="edge1" class="edge"><title>n10559&#45;&gt;n10572</title>
<path fill="none" stroke="lightgray" d="M494.777,-523.793C545.917,-525.88 660.604,-523.229 729.287,-465 757.821,-440.81 770.05,-397.84 775.191,-369.382"/>
<polygon fill="lightgray" stroke="lightgray" points="778.688,-369.686 776.834,-359.255 771.778,-368.565 778.688,-369.686"/>
<text text-anchor="middle" x="623.787" y="-527.8" font-family="Times New Roman,serif" font-size="14.00" fill="lightgray">wff ph</text>
</g>
<!-- n10560 -->
<g id="node3" class="node"><title>n10560</title>
<ellipse fill="none" stroke="lightgray" cx="467.79" cy="-450" rx="27" ry="18"/>
<text text-anchor="middle" x="467.79" y="-446.3" font-family="Times New Roman,serif" font-size="14.00" fill="lightgray">wps</text>
</g>
<!-- n10559&#45;&gt;n10560 -->
<g id="edge20" class="edge"><title>n10559&#45;&gt;n10560</title>
</g>
<!-- QED -->
<g id="node15" class="node"><title>QED</title>
</g>
<!-- n10572&#45;&gt;QED -->
<g id="edge19" class="edge"><title>n10572&#45;&gt;QED</title>
<path fill="none" stroke="black" d="M812.505,-341C870.75,-341 994.555,-341 1057.71,-341"/>
<polygon fill="black" stroke="black" points="1058.04,-344.5 1068.04,-341 1058.04,-337.5 1058.04,-344.5"/>
<text text-anchor="middle" x="940.281" y="-344.8" font-family="Times New Roman,serif" font-size="14.00">|&#45; ( ph &#45;&gt; ( ps &#45;&gt; ( ch &#45;&gt; ( th &#45;&gt; ta ) ) ) )</text>
</g>
<!-- n10560&#45;&gt;n10572 -->
<g id="edge2" class="edge"><title>n10560&#45;&gt;n10572</title>
<path fill="none" stroke="lightgray" d="M494.858,-448.684C543.731,-445.241 651.234,-432.983 729.287,-390 740.592,-383.774 751.075,-374.222 759.455,-365.2"/>
<polygon fill="lightgray" stroke="lightgray" points="762.254,-367.318 766.247,-357.504 757.006,-362.686 762.254,-367.318"/>
<text text-anchor="middle" x="623.787" y="-449.8" font-family="Times New Roman,serif" font-size="14.00" fill="lightgray">wff ps</text>
</g>
<!-- n10561 -->
<g id="node4" class="node"><title>n10561</title>
<ellipse fill="none" stroke="lightgray" cx="467.79" cy="-378" rx="27" ry="18"/>
<text text-anchor="middle" x="467.79" y="-374.3" font-family="Times New Roman,serif" font-size="14.00" fill="lightgray">wch</text>
</g>
<!-- n10560&#45;&gt;n10561 -->
<g id="edge21" class="edge"><title>n10560&#45;&gt;n10561</title>
</g>
<!-- n10561&#45;&gt;n10572 -->
<g id="edge3" class="edge"><title>n10561&#45;&gt;n10572</title>
<path fill="none" stroke="lightgray" d="M494.674,-374.939C541.494,-369.397 643.371,-357.32 729.287,-347 732.107,-346.661 735.018,-346.311 737.949,-345.957"/>
<polygon fill="lightgray" stroke="lightgray" points="738.386,-349.43 747.893,-344.755 737.545,-342.481 738.386,-349.43"/>
<text text-anchor="middle" x="623.787" y="-374.8" font-family="Times New Roman,serif" font-size="14.00" fill="lightgray">wff ch</text>
</g>
<!-- n10562 -->
<g id="node5" class="node"><title>n10562</title>
<ellipse fill="none" stroke="lightgray" cx="467.79" cy="-306" rx="27" ry="18"/>
<text text-anchor="middle" x="467.79" y="-302.3" font-family="Times New Roman,serif" font-size="14.00" fill="lightgray">wth</text>
</g>
<!-- n10561&#45;&gt;n10562 -->
<g id="edge22" class="edge"><title>n10561&#45;&gt;n10562</title>
</g>
<!-- n10562&#45;&gt;n10572 -->
<g id="edge4" class="edge"><title>n10562&#45;&gt;n10572</title>
<path fill="none" stroke="lightgray" d="M494.754,-307.896C541.701,-311.479 643.773,-319.978 729.287,-332 732.487,-332.45 735.796,-332.958 739.116,-333.497"/>
<polygon fill="lightgray" stroke="lightgray" points="738.562,-336.953 749.008,-335.186 739.74,-330.053 738.562,-336.953"/>
<text text-anchor="middle" x="623.787" y="-335.8" font-family="Times New Roman,serif" font-size="14.00" fill="lightgray">wff th</text>
</g>
<!-- n10563 -->
<g id="node6" class="node"><title>n10563</title>
<ellipse fill="none" stroke="lightgray" cx="467.79" cy="-234" rx="27" ry="18"/>
<text text-anchor="middle" x="467.79" y="-230.3" font-family="Times New Roman,serif" font-size="14.00" fill="lightgray">wta</text>
</g>
<!-- n10562&#45;&gt;n10563 -->
<g id="edge23" class="edge"><title>n10562&#45;&gt;n10563</title>
</g>
<!-- n10563&#45;&gt;n10572 -->
<g id="edge5" class="edge"><title>n10563&#45;&gt;n10572</title>
<path fill="none" stroke="lightgray" d="M494.89,-234.873C543.818,-237.516 651.407,-248.157 729.287,-291 740.825,-297.347 751.424,-307.216 759.828,-316.515"/>
<polygon fill="lightgray" stroke="lightgray" points="757.173,-318.796 766.344,-324.102 762.484,-314.236 757.173,-318.796"/>
<text text-anchor="middle" x="623.787" y="-294.8" font-family="Times New Roman,serif" font-size="14.00" fill="lightgray">wff ta</text>
</g>
<!-- n10571 -->
<g id="node8" class="node"><title>n10571</title>
<ellipse fill="cyan" stroke="black" cx="467.79" cy="-162" rx="32.4942" ry="18"/>
<text text-anchor="middle" x="467.79" y="-158.3" font-family="Times New Roman,serif" font-size="14.00">exp32</text>
</g>
<!-- n10563&#45;&gt;n10571 -->
<g id="edge24" class="edge"><title>n10563&#45;&gt;n10571</title>
</g>
<!-- n10564 -->
<g id="node7" class="node"><title>n10564</title>
<ellipse fill="none" stroke="lightgray" cx="166.646" cy="-306" rx="27" ry="18"/>
<text text-anchor="middle" x="166.646" y="-302.3" font-family="Times New Roman,serif" font-size="14.00" fill="lightgray">wph</text>
</g>
<!-- n10564&#45;&gt;n10571 -->
<g id="edge6" class="edge"><title>n10564&#45;&gt;n10571</title>
<path fill="none" stroke="lightgray" d="M193.728,-306.246C242.866,-305.37 350.232,-296.917 417.293,-243 431.234,-231.791 426.139,-222.369 435.293,-207 439.252,-200.353 443.864,-193.4 448.319,-187.003"/>
<polygon fill="lightgray" stroke="lightgray" points="451.277,-188.882 454.219,-178.703 445.572,-184.825 451.277,-188.882"/>
<text text-anchor="middle" x="320.793" y="-307.8" font-family="Times New Roman,serif" font-size="14.00" fill="lightgray">wff ph</text>
</g>
<!-- n10565 -->
<g id="node9" class="node"><title>n10565</title>
<ellipse fill="none" stroke="lightgray" cx="166.646" cy="-234" rx="27" ry="18"/>
<text text-anchor="middle" x="166.646" y="-230.3" font-family="Times New Roman,serif" font-size="14.00" fill="lightgray">wps</text>
</g>
<!-- n10564&#45;&gt;n10565 -->
<g id="edge15" class="edge"><title>n10564&#45;&gt;n10565</title>
</g>
<!-- n10571&#45;&gt;n10572 -->
<g id="edge14" class="edge"><title>n10571&#45;&gt;n10572</title>
<path fill="none" stroke="black" d="M500.092,-159.737C553.477,-157.614 662.798,-161.049 729.287,-217 757.909,-241.086 770.115,-284.082 775.228,-312.575"/>
<polygon fill="black" stroke="black" points="771.815,-313.399 776.859,-322.716 778.726,-312.287 771.815,-313.399"/>
<text text-anchor="middle" x="623.787" y="-220.8" font-family="Times New Roman,serif" font-size="14.00">|&#45; ( ph &#45;&gt; ( ps &#45;&gt; ( ( ch / th ) &#45;&gt; ta ) ) )</text>
</g>
<!-- n10565&#45;&gt;n10571 -->
<g id="edge7" class="edge"><title>n10565&#45;&gt;n10571</title>
<path fill="none" stroke="lightgray" d="M193.134,-229.954C238.674,-222.425 336.785,-204.837 417.293,-181 422.009,-179.604 426.913,-177.962 431.721,-176.239"/>
<polygon fill="lightgray" stroke="lightgray" points="433.22,-179.416 441.364,-172.64 430.772,-172.858 433.22,-179.416"/>
<text text-anchor="middle" x="320.793" y="-227.8" font-family="Times New Roman,serif" font-size="14.00" fill="lightgray">wff ps</text>
</g>
<!-- n10568 -->
<g id="node11" class="node"><title>n10568</title>
<ellipse fill="none" stroke="lightgray" cx="166.646" cy="-162" rx="27" ry="18"/>
<text text-anchor="middle" x="166.646" y="-158.3" font-family="Times New Roman,serif" font-size="14.00" fill="lightgray">wa</text>
</g>
<!-- n10565&#45;&gt;n10568 -->
<g id="edge16" class="edge"><title>n10565&#45;&gt;n10568</title>
</g>
<!-- n10566 -->
<g id="node10" class="node"><title>n10566</title>
<ellipse fill="none" stroke="lightgray" cx="27" cy="-207" rx="27" ry="18"/>
<text text-anchor="middle" x="27" y="-203.3" font-family="Times New Roman,serif" font-size="14.00" fill="lightgray">wch</text>
</g>
<!-- n10566&#45;&gt;n10568 -->
<g id="edge8" class="edge"><title>n10566&#45;&gt;n10568</title>
<path fill="none" stroke="lightgray" d="M51.6623,-199.264C73.8212,-192.02 107.163,-181.12 132.069,-172.977"/>
<polygon fill="lightgray" stroke="lightgray" points="133.415,-176.22 141.832,-169.785 131.24,-169.566 133.415,-176.22"/>
<text text-anchor="middle" x="90.5" y="-196.8" font-family="Times New Roman,serif" font-size="14.00" fill="lightgray">wff ch</text>
</g>
<!-- n10567 -->
<g id="node12" class="node"><title>n10567</title>
<ellipse fill="none" stroke="lightgray" cx="27" cy="-135" rx="27" ry="18"/>
<text text-anchor="middle" x="27" y="-131.3" font-family="Times New Roman,serif" font-size="14.00" fill="lightgray">wth</text>
</g>
<!-- n10566&#45;&gt;n10567 -->
<g id="edge11" class="edge"><title>n10566&#45;&gt;n10567</title>
</g>
<!-- n10568&#45;&gt;n10571 -->
<g id="edge10" class="edge"><title>n10568&#45;&gt;n10571</title>
<path fill="none" stroke="lightgray" d="M193.67,-162C245.539,-162 362.196,-162 424.951,-162"/>
<polygon fill="lightgray" stroke="lightgray" points="425.278,-165.5 435.278,-162 425.278,-158.5 425.278,-165.5"/>
<text text-anchor="middle" x="320.793" y="-165.8" font-family="Times New Roman,serif" font-size="14.00" fill="lightgray">wff ( ch / th )</text>
</g>
<!-- n10569 -->
<g id="node13" class="node"><title>n10569</title>
<ellipse fill="none" stroke="lightgray" cx="166.646" cy="-90" rx="27" ry="18"/>
<text text-anchor="middle" x="166.646" y="-86.3" font-family="Times New Roman,serif" font-size="14.00" fill="lightgray">wta</text>
</g>
<!-- n10568&#45;&gt;n10569 -->
<g id="edge17" class="edge"><title>n10568&#45;&gt;n10569</title>
</g>
<!-- n10567&#45;&gt;n10568 -->
<g id="edge9" class="edge"><title>n10567&#45;&gt;n10568</title>
<path fill="none" stroke="lightgray" d="M53.2465,-139.952C74.9779,-144.215 106.556,-150.409 130.712,-155.147"/>
<polygon fill="lightgray" stroke="lightgray" points="130.073,-158.589 140.56,-157.079 131.421,-151.72 130.073,-158.589"/>
<text text-anchor="middle" x="90.5" y="-154.8" font-family="Times New Roman,serif" font-size="14.00" fill="lightgray">wff th</text>
</g>
<!-- n10569&#45;&gt;n10571 -->
<g id="edge12" class="edge"><title>n10569&#45;&gt;n10571</title>
<path fill="none" stroke="lightgray" d="M193.134,-94.0456C238.674,-101.575 336.785,-119.163 417.293,-143 422.009,-144.396 426.913,-146.038 431.721,-147.761"/>
<polygon fill="lightgray" stroke="lightgray" points="430.772,-151.142 441.364,-151.36 433.22,-144.584 430.772,-151.142"/>
<text text-anchor="middle" x="320.793" y="-146.8" font-family="Times New Roman,serif" font-size="14.00" fill="lightgray">wff ta</text>
</g>
<!-- n10570 -->
<g id="node14" class="node"><title>n10570</title>
<ellipse fill="orange" stroke="black" cx="166.646" cy="-18" rx="39.7935" ry="18"/>
<text text-anchor="middle" x="166.646" y="-14.3" font-family="Times New Roman,serif" font-size="14.00">exp45.1</text>
</g>
<!-- n10569&#45;&gt;n10570 -->
<g id="edge18" class="edge"><title>n10569&#45;&gt;n10570</title>
</g>
<!-- n10570&#45;&gt;n10571 -->
<g id="edge13" class="edge"><title>n10570&#45;&gt;n10571</title>
<path fill="none" stroke="black" d="M206.511,-19.1513C259.103,-22.529 353.661,-35.2295 417.293,-82 435.392,-95.3031 448.33,-117.402 456.429,-135.006"/>
<polygon fill="black" stroke="black" points="453.243,-136.457 460.432,-144.24 459.665,-133.673 453.243,-136.457"/>
<text text-anchor="middle" x="320.793" y="-85.8" font-family="Times New Roman,serif" font-size="14.00">|&#45; ( ( ph / ( ps / ( ch / th ) ) ) &#45;&gt; ta )</text>
</g>
</g>
</svg>
