<?xml version="1.0" encoding="UTF-8" standalone="no"?>
<!DOCTYPE svg PUBLIC "-//W3C//DTD SVG 1.1//EN"
 "http://www.w3.org/Graphics/SVG/1.1/DTD/svg11.dtd">
<!-- Generated by graphviz version 2.38.0 (20140413.2041)
 -->
<!-- Title: proof_exp43 Pages: 1 -->
<svg width="1116pt" height="511pt"
 viewBox="0.00 0.00 1116.08 511.00" xmlns="http://www.w3.org/2000/svg" xmlns:xlink="http://www.w3.org/1999/xlink">
<g id="graph0" class="graph" transform="scale(1 1) rotate(0) translate(4 507)">
<title>proof_exp43</title>
<polygon fill="white" stroke="none" points="-4,4 -4,-507 1112.08,-507 1112.08,4 -4,4"/>
<!-- n10529 -->
<g id="node1" class="node"><title>n10529</title>
<ellipse fill="none" stroke="lightgray" cx="462.293" cy="-485" rx="27" ry="18"/>
<text text-anchor="middle" x="462.293" y="-481.3" font-family="Times New Roman,serif" font-size="14.00" fill="lightgray">wph</text>
</g>
<!-- n10543 -->
<g id="node2" class="node"><title>n10543</title>
<ellipse fill="cyan" stroke="black" cx="760.44" cy="-304" rx="33.2948" ry="18"/>
<text text-anchor="middle" x="760.44" y="-300.3" font-family="Times New Roman,serif" font-size="14.00">exp4b</text>
</g>
<!-- n10529&#45;&gt;n10543 -->
<g id="edge1" class="edge"><title>n10529&#45;&gt;n10543</title>
<path fill="none" stroke="lightgray" d="M489.343,-486.199C538.353,-487.033 645.104,-481.905 709.293,-427 737.574,-402.809 750.127,-360.237 755.543,-332.073"/>
<polygon fill="lightgray" stroke="lightgray" points="759.02,-332.504 757.287,-322.052 752.124,-331.304 759.02,-332.504"/>
<text text-anchor="middle" x="608.293" y="-489.8" font-family="Times New Roman,serif" font-size="14.00" fill="lightgray">wff ph</text>
</g>
<!-- n10530 -->
<g id="node3" class="node"><title>n10530</title>
<ellipse fill="none" stroke="lightgray" cx="462.293" cy="-413" rx="27" ry="18"/>
<text text-anchor="middle" x="462.293" y="-409.3" font-family="Times New Roman,serif" font-size="14.00" fill="lightgray">wps</text>
</g>
<!-- n10529&#45;&gt;n10530 -->
<g id="edge21" class="edge"><title>n10529&#45;&gt;n10530</title>
</g>
<!-- QED -->
<g id="node16" class="node"><title>QED</title>
</g>
<!-- n10543&#45;&gt;QED -->
<g id="edge20" class="edge"><title>n10543&#45;&gt;QED</title>
<path fill="none" stroke="black" d="M793.813,-304C852.473,-304 976.087,-304 1039.11,-304"/>
<polygon fill="black" stroke="black" points="1039.42,-307.5 1049.42,-304 1039.42,-300.5 1039.42,-307.5"/>
<text text-anchor="middle" x="921.587" y="-307.8" font-family="Times New Roman,serif" font-size="14.00">|&#45; ( ph &#45;&gt; ( ps &#45;&gt; ( ch &#45;&gt; ( th &#45;&gt; ta ) ) ) )</text>
</g>
<!-- n10530&#45;&gt;n10543 -->
<g id="edge2" class="edge"><title>n10530&#45;&gt;n10543</title>
<path fill="none" stroke="lightgray" d="M489.351,-411.172C536.126,-406.945 636.256,-393.522 709.293,-353 720.654,-346.697 731.258,-337.132 739.762,-328.121"/>
<polygon fill="lightgray" stroke="lightgray" points="742.583,-330.219 746.661,-320.44 737.375,-325.541 742.583,-330.219"/>
<text text-anchor="middle" x="608.293" y="-411.8" font-family="Times New Roman,serif" font-size="14.00" fill="lightgray">wff ps</text>
</g>
<!-- n10531 -->
<g id="node4" class="node"><title>n10531</title>
<ellipse fill="none" stroke="lightgray" cx="462.293" cy="-341" rx="27" ry="18"/>
<text text-anchor="middle" x="462.293" y="-337.3" font-family="Times New Roman,serif" font-size="14.00" fill="lightgray">wch</text>
</g>
<!-- n10530&#45;&gt;n10531 -->
<g id="edge22" class="edge"><title>n10530&#45;&gt;n10531</title>
</g>
<!-- n10531&#45;&gt;n10543 -->
<g id="edge3" class="edge"><title>n10531&#45;&gt;n10543</title>
<path fill="none" stroke="lightgray" d="M489.056,-337.781C540.272,-331.382 655.296,-317.012 717.536,-309.235"/>
<polygon fill="lightgray" stroke="lightgray" points="718.297,-312.668 727.785,-307.955 717.429,-305.722 718.297,-312.668"/>
<text text-anchor="middle" x="608.293" y="-337.8" font-family="Times New Roman,serif" font-size="14.00" fill="lightgray">wff ch</text>
</g>
<!-- n10532 -->
<g id="node5" class="node"><title>n10532</title>
<ellipse fill="none" stroke="lightgray" cx="462.293" cy="-269" rx="27" ry="18"/>
<text text-anchor="middle" x="462.293" y="-265.3" font-family="Times New Roman,serif" font-size="14.00" fill="lightgray">wth</text>
</g>
<!-- n10531&#45;&gt;n10532 -->
<g id="edge23" class="edge"><title>n10531&#45;&gt;n10532</title>
</g>
<!-- n10532&#45;&gt;n10543 -->
<g id="edge4" class="edge"><title>n10532&#45;&gt;n10543</title>
<path fill="none" stroke="lightgray" d="M489.224,-271.12C534.159,-274.931 629.36,-283.618 709.293,-295 712.489,-295.455 715.793,-295.963 719.11,-296.5"/>
<polygon fill="lightgray" stroke="lightgray" points="718.556,-299.956 729,-298.174 719.724,-293.055 718.556,-299.956"/>
<text text-anchor="middle" x="608.293" y="-298.8" font-family="Times New Roman,serif" font-size="14.00" fill="lightgray">wff th</text>
</g>
<!-- n10533 -->
<g id="node6" class="node"><title>n10533</title>
<ellipse fill="none" stroke="lightgray" cx="462.293" cy="-197" rx="27" ry="18"/>
<text text-anchor="middle" x="462.293" y="-193.3" font-family="Times New Roman,serif" font-size="14.00" fill="lightgray">wta</text>
</g>
<!-- n10532&#45;&gt;n10533 -->
<g id="edge24" class="edge"><title>n10532&#45;&gt;n10533</title>
</g>
<!-- n10533&#45;&gt;n10543 -->
<g id="edge5" class="edge"><title>n10533&#45;&gt;n10543</title>
<path fill="none" stroke="lightgray" d="M489.385,-198.365C536.214,-201.792 636.427,-213.642 709.293,-254 720.888,-260.422 731.611,-270.303 740.14,-279.59"/>
<polygon fill="lightgray" stroke="lightgray" points="737.542,-281.937 746.759,-287.163 742.813,-277.331 737.542,-281.937"/>
<text text-anchor="middle" x="608.293" y="-257.8" font-family="Times New Roman,serif" font-size="14.00" fill="lightgray">wff ta</text>
</g>
<!-- n10542 -->
<g id="node10" class="node"><title>n10542</title>
<ellipse fill="cyan" stroke="black" cx="462.293" cy="-125" rx="27" ry="18"/>
<text text-anchor="middle" x="462.293" y="-121.3" font-family="Times New Roman,serif" font-size="14.00">ex</text>
</g>
<!-- n10533&#45;&gt;n10542 -->
<g id="edge25" class="edge"><title>n10533&#45;&gt;n10542</title>
</g>
<!-- n10534 -->
<g id="node7" class="node"><title>n10534</title>
<ellipse fill="none" stroke="lightgray" cx="27" cy="-295" rx="27" ry="18"/>
<text text-anchor="middle" x="27" y="-291.3" font-family="Times New Roman,serif" font-size="14.00" fill="lightgray">wph</text>
</g>
<!-- n10536 -->
<g id="node8" class="node"><title>n10536</title>
<ellipse fill="none" stroke="lightgray" cx="166.646" cy="-234" rx="27" ry="18"/>
<text text-anchor="middle" x="166.646" y="-230.3" font-family="Times New Roman,serif" font-size="14.00" fill="lightgray">wa</text>
</g>
<!-- n10534&#45;&gt;n10536 -->
<g id="edge6" class="edge"><title>n10534&#45;&gt;n10536</title>
<path fill="none" stroke="lightgray" d="M49.8105,-285.334C72.5303,-275.266 108.344,-259.395 134.136,-247.964"/>
<polygon fill="lightgray" stroke="lightgray" points="135.758,-251.074 143.482,-243.822 132.922,-244.674 135.758,-251.074"/>
<text text-anchor="middle" x="90.5" y="-279.8" font-family="Times New Roman,serif" font-size="14.00" fill="lightgray">wff ph</text>
</g>
<!-- n10535 -->
<g id="node9" class="node"><title>n10535</title>
<ellipse fill="none" stroke="lightgray" cx="27" cy="-223" rx="27" ry="18"/>
<text text-anchor="middle" x="27" y="-219.3" font-family="Times New Roman,serif" font-size="14.00" fill="lightgray">wps</text>
</g>
<!-- n10534&#45;&gt;n10535 -->
<g id="edge9" class="edge"><title>n10534&#45;&gt;n10535</title>
</g>
<!-- n10536&#45;&gt;n10542 -->
<g id="edge8" class="edge"><title>n10536&#45;&gt;n10542</title>
<path fill="none" stroke="lightgray" d="M193.612,-232.79C241.187,-229.535 344.158,-217.59 417.293,-174 427.67,-167.815 436.976,-158.389 444.328,-149.451"/>
<polygon fill="lightgray" stroke="lightgray" points="447.142,-151.533 450.505,-141.486 441.61,-147.243 447.142,-151.533"/>
<text text-anchor="middle" x="320.793" y="-233.8" font-family="Times New Roman,serif" font-size="14.00" fill="lightgray">wff ( ph / ps )</text>
</g>
<!-- n10539 -->
<g id="node12" class="node"><title>n10539</title>
<ellipse fill="none" stroke="lightgray" cx="166.646" cy="-162" rx="27" ry="18"/>
<text text-anchor="middle" x="166.646" y="-158.3" font-family="Times New Roman,serif" font-size="14.00" fill="lightgray">wa</text>
</g>
<!-- n10536&#45;&gt;n10539 -->
<g id="edge17" class="edge"><title>n10536&#45;&gt;n10539</title>
</g>
<!-- n10535&#45;&gt;n10536 -->
<g id="edge7" class="edge"><title>n10535&#45;&gt;n10536</title>
<path fill="none" stroke="lightgray" d="M53.8903,-225.069C75.1913,-226.771 105.628,-229.204 129.36,-231.1"/>
<polygon fill="lightgray" stroke="lightgray" points="129.157,-234.595 139.404,-231.903 129.715,-227.617 129.157,-234.595"/>
<text text-anchor="middle" x="90.5" y="-233.8" font-family="Times New Roman,serif" font-size="14.00" fill="lightgray">wff ps</text>
</g>
<!-- n10542&#45;&gt;n10543 -->
<g id="edge16" class="edge"><title>n10542&#45;&gt;n10543</title>
<path fill="none" stroke="black" d="M489.32,-123.696C538.29,-122.664 644.978,-127.36 709.293,-182 737.458,-205.928 750.041,-248.171 755.495,-276.128"/>
<polygon fill="black" stroke="black" points="752.066,-276.838 757.254,-286.076 758.959,-275.619 752.066,-276.838"/>
<text text-anchor="middle" x="608.293" y="-185.8" font-family="Times New Roman,serif" font-size="14.00">|&#45; ( ( ph / ps ) &#45;&gt; ( ( ch / th ) &#45;&gt; ta ) )</text>
</g>
<!-- n10537 -->
<g id="node11" class="node"><title>n10537</title>
<ellipse fill="none" stroke="lightgray" cx="27" cy="-168" rx="27" ry="18"/>
<text text-anchor="middle" x="27" y="-164.3" font-family="Times New Roman,serif" font-size="14.00" fill="lightgray">wch</text>
</g>
<!-- n10537&#45;&gt;n10539 -->
<g id="edge10" class="edge"><title>n10537&#45;&gt;n10539</title>
<path fill="none" stroke="lightgray" d="M54.2142,-166.857C75.5495,-165.927 105.892,-164.605 129.528,-163.574"/>
<polygon fill="lightgray" stroke="lightgray" points="129.692,-167.071 139.53,-163.138 129.387,-160.077 129.692,-167.071"/>
<text text-anchor="middle" x="90.5" y="-170.8" font-family="Times New Roman,serif" font-size="14.00" fill="lightgray">wff ch</text>
</g>
<!-- n10538 -->
<g id="node13" class="node"><title>n10538</title>
<ellipse fill="none" stroke="lightgray" cx="27" cy="-96" rx="27" ry="18"/>
<text text-anchor="middle" x="27" y="-92.3" font-family="Times New Roman,serif" font-size="14.00" fill="lightgray">wth</text>
</g>
<!-- n10537&#45;&gt;n10538 -->
<g id="edge13" class="edge"><title>n10537&#45;&gt;n10538</title>
</g>
<!-- n10539&#45;&gt;n10542 -->
<g id="edge12" class="edge"><title>n10539&#45;&gt;n10542</title>
<path fill="none" stroke="lightgray" d="M193.535,-158.889C238.889,-153.416 335.657,-141.634 417.293,-131 419.995,-130.648 422.79,-130.279 425.6,-129.904"/>
<polygon fill="lightgray" stroke="lightgray" points="426.264,-133.346 435.707,-128.542 425.329,-126.409 426.264,-133.346"/>
<text text-anchor="middle" x="320.793" y="-158.8" font-family="Times New Roman,serif" font-size="14.00" fill="lightgray">wff ( ch / th )</text>
</g>
<!-- n10540 -->
<g id="node14" class="node"><title>n10540</title>
<ellipse fill="none" stroke="lightgray" cx="166.646" cy="-90" rx="27" ry="18"/>
<text text-anchor="middle" x="166.646" y="-86.3" font-family="Times New Roman,serif" font-size="14.00" fill="lightgray">wta</text>
</g>
<!-- n10539&#45;&gt;n10540 -->
<g id="edge18" class="edge"><title>n10539&#45;&gt;n10540</title>
</g>
<!-- n10538&#45;&gt;n10539 -->
<g id="edge11" class="edge"><title>n10538&#45;&gt;n10539</title>
<path fill="none" stroke="lightgray" d="M49.5073,-106.313C72.538,-117.356 109.27,-134.968 135.25,-147.425"/>
<polygon fill="lightgray" stroke="lightgray" points="133.76,-150.592 144.29,-151.76 136.786,-144.28 133.76,-150.592"/>
<text text-anchor="middle" x="90.5" y="-136.8" font-family="Times New Roman,serif" font-size="14.00" fill="lightgray">wff th</text>
</g>
<!-- n10540&#45;&gt;n10542 -->
<g id="edge14" class="edge"><title>n10540&#45;&gt;n10542</title>
<path fill="none" stroke="lightgray" d="M193.63,-91.8625C239.128,-95.3117 336.109,-103.5 417.293,-116 420.183,-116.445 423.17,-116.953 426.164,-117.495"/>
<polygon fill="lightgray" stroke="lightgray" points="425.759,-120.981 436.24,-119.433 427.081,-114.107 425.759,-120.981"/>
<text text-anchor="middle" x="320.793" y="-119.8" font-family="Times New Roman,serif" font-size="14.00" fill="lightgray">wff ta</text>
</g>
<!-- n10541 -->
<g id="node15" class="node"><title>n10541</title>
<ellipse fill="orange" stroke="black" cx="166.646" cy="-18" rx="39.7935" ry="18"/>
<text text-anchor="middle" x="166.646" y="-14.3" font-family="Times New Roman,serif" font-size="14.00">exp43.1</text>
</g>
<!-- n10540&#45;&gt;n10541 -->
<g id="edge19" class="edge"><title>n10540&#45;&gt;n10541</title>
</g>
<!-- n10541&#45;&gt;n10542 -->
<g id="edge15" class="edge"><title>n10541&#45;&gt;n10542</title>
<path fill="none" stroke="black" d="M206.234,-19.8141C257.684,-23.7577 350.063,-36.2742 417.293,-76 427.693,-82.1453 437.003,-91.5646 444.352,-100.509"/>
<polygon fill="black" stroke="black" points="441.635,-102.716 450.524,-108.481 447.17,-98.4313 441.635,-102.716"/>
<text text-anchor="middle" x="320.793" y="-79.8" font-family="Times New Roman,serif" font-size="14.00">|&#45; ( ( ( ph / ps ) / ( ch / th ) ) &#45;&gt; ta )</text>
</g>
</g>
</svg>
