<?xml version="1.0" encoding="UTF-8" standalone="no"?>
<!DOCTYPE svg PUBLIC "-//W3C//DTD SVG 1.1//EN"
 "http://www.w3.org/Graphics/SVG/1.1/DTD/svg11.dtd">
<!-- Generated by graphviz version 2.38.0 (20140413.2041)
 -->
<!-- Title: proof_exp5c Pages: 1 -->
<svg width="1282pt" height="634pt"
 viewBox="0.00 0.00 1281.78 634.00" xmlns="http://www.w3.org/2000/svg" xmlns:xlink="http://www.w3.org/1999/xlink">
<g id="graph0" class="graph" transform="scale(1 1) rotate(0) translate(4 630)">
<title>proof_exp5c</title>
<polygon fill="white" stroke="none" points="-4,4 -4,-630 1277.78,-630 1277.78,4 -4,4"/>
<!-- n10585 -->
<g id="node1" class="node"><title>n10585</title>
<ellipse fill="none" stroke="lightgray" cx="522.79" cy="-608" rx="27" ry="18"/>
<text text-anchor="middle" x="522.79" y="-604.3" font-family="Times New Roman,serif" font-size="14.00" fill="lightgray">wph</text>
</g>
<!-- n10602 -->
<g id="node2" class="node"><title>n10602</title>
<ellipse fill="cyan" stroke="black" cx="880.784" cy="-464" rx="32.4942" ry="18"/>
<text text-anchor="middle" x="880.784" y="-460.3" font-family="Times New Roman,serif" font-size="14.00">exp3a</text>
</g>
<!-- n10585&#45;&gt;n10602 -->
<g id="edge1" class="edge"><title>n10585&#45;&gt;n10602</title>
<path fill="none" stroke="lightgray" d="M549.952,-609.824C606.597,-612.423 742.546,-611.22 830.287,-549 850.097,-534.952 863.172,-510.282 870.882,-491.125"/>
<polygon fill="lightgray" stroke="lightgray" points="874.184,-492.288 874.432,-481.696 867.633,-489.821 874.184,-492.288"/>
<text text-anchor="middle" x="701.787" y="-613.8" font-family="Times New Roman,serif" font-size="14.00" fill="lightgray">wff ph</text>
</g>
<!-- n10586 -->
<g id="node3" class="node"><title>n10586</title>
<ellipse fill="none" stroke="lightgray" cx="522.79" cy="-536" rx="27" ry="18"/>
<text text-anchor="middle" x="522.79" y="-532.3" font-family="Times New Roman,serif" font-size="14.00" fill="lightgray">wps</text>
</g>
<!-- n10585&#45;&gt;n10586 -->
<g id="edge27" class="edge"><title>n10585&#45;&gt;n10586</title>
</g>
<!-- QED -->
<g id="node19" class="node"><title>QED</title>
</g>
<!-- n10602&#45;&gt;QED -->
<g id="edge26" class="edge"><title>n10602&#45;&gt;QED</title>
<path fill="none" stroke="black" d="M913.57,-464C979.821,-464 1132.49,-464 1204.54,-464"/>
<polygon fill="black" stroke="black" points="1204.98,-467.5 1214.98,-464 1204.98,-460.5 1204.98,-467.5"/>
<text text-anchor="middle" x="1064.28" y="-467.8" font-family="Times New Roman,serif" font-size="14.00">|&#45; ( ph &#45;&gt; ( ps &#45;&gt; ( ch &#45;&gt; ( th &#45;&gt; ( ta &#45;&gt; et ) ) ) ) )</text>
</g>
<!-- n10586&#45;&gt;n10602 -->
<g id="edge2" class="edge"><title>n10586&#45;&gt;n10602</title>
<path fill="none" stroke="lightgray" d="M549.592,-533.264C602.793,-527.247 728.248,-511.116 830.287,-483 835.082,-481.679 840.058,-480.069 844.924,-478.351"/>
<polygon fill="lightgray" stroke="lightgray" points="846.513,-481.495 854.668,-474.731 844.075,-474.933 846.513,-481.495"/>
<text text-anchor="middle" x="701.787" y="-533.8" font-family="Times New Roman,serif" font-size="14.00" fill="lightgray">wff ps</text>
</g>
<!-- n10587 -->
<g id="node4" class="node"><title>n10587</title>
<ellipse fill="none" stroke="lightgray" cx="522.79" cy="-464" rx="27" ry="18"/>
<text text-anchor="middle" x="522.79" y="-460.3" font-family="Times New Roman,serif" font-size="14.00" fill="lightgray">wch</text>
</g>
<!-- n10586&#45;&gt;n10587 -->
<g id="edge28" class="edge"><title>n10586&#45;&gt;n10587</title>
</g>
<!-- n10587&#45;&gt;n10602 -->
<g id="edge3" class="edge"><title>n10587&#45;&gt;n10602</title>
<path fill="none" stroke="lightgray" d="M549.967,-464C611.032,-464 763.344,-464 837.663,-464"/>
<polygon fill="lightgray" stroke="lightgray" points="838.042,-467.5 848.042,-464 838.042,-460.5 838.042,-467.5"/>
<text text-anchor="middle" x="701.787" y="-467.8" font-family="Times New Roman,serif" font-size="14.00" fill="lightgray">wff ch</text>
</g>
<!-- n10592 -->
<g id="node6" class="node"><title>n10592</title>
<ellipse fill="none" stroke="lightgray" cx="522.79" cy="-392" rx="27" ry="18"/>
<text text-anchor="middle" x="522.79" y="-388.3" font-family="Times New Roman,serif" font-size="14.00" fill="lightgray">wi</text>
</g>
<!-- n10587&#45;&gt;n10592 -->
<g id="edge29" class="edge"><title>n10587&#45;&gt;n10592</title>
</g>
<!-- n10588 -->
<g id="node5" class="node"><title>n10588</title>
<ellipse fill="none" stroke="lightgray" cx="166.646" cy="-504" rx="27" ry="18"/>
<text text-anchor="middle" x="166.646" y="-500.3" font-family="Times New Roman,serif" font-size="14.00" fill="lightgray">wth</text>
</g>
<!-- n10588&#45;&gt;n10592 -->
<g id="edge4" class="edge"><title>n10588&#45;&gt;n10592</title>
<path fill="none" stroke="lightgray" d="M193.936,-504.231C249.085,-503.624 379.433,-496.386 472.293,-445 484.81,-438.074 495.966,-426.855 504.505,-416.518"/>
<polygon fill="lightgray" stroke="lightgray" points="507.36,-418.549 510.766,-408.517 501.847,-414.235 507.36,-418.549"/>
<text text-anchor="middle" x="348.293" y="-506.8" font-family="Times New Roman,serif" font-size="14.00" fill="lightgray">wff th</text>
</g>
<!-- n10591 -->
<g id="node8" class="node"><title>n10591</title>
<ellipse fill="none" stroke="lightgray" cx="166.646" cy="-432" rx="27" ry="18"/>
<text text-anchor="middle" x="166.646" y="-428.3" font-family="Times New Roman,serif" font-size="14.00" fill="lightgray">wi</text>
</g>
<!-- n10588&#45;&gt;n10591 -->
<g id="edge10" class="edge"><title>n10588&#45;&gt;n10591</title>
</g>
<!-- n10592&#45;&gt;n10602 -->
<g id="edge9" class="edge"><title>n10592&#45;&gt;n10602</title>
<path fill="none" stroke="lightgray" d="M549.592,-394.736C602.793,-400.753 728.248,-416.884 830.287,-445 835.082,-446.321 840.058,-447.931 844.924,-449.649"/>
<polygon fill="lightgray" stroke="lightgray" points="844.075,-453.067 854.668,-453.269 846.513,-446.505 844.075,-453.067"/>
<text text-anchor="middle" x="701.787" y="-448.8" font-family="Times New Roman,serif" font-size="14.00" fill="lightgray">wff ( th &#45;&gt; ( ta &#45;&gt; et ) )</text>
</g>
<!-- n10601 -->
<g id="node11" class="node"><title>n10601</title>
<ellipse fill="cyan" stroke="black" cx="522.79" cy="-268" rx="32.4942" ry="18"/>
<text text-anchor="middle" x="522.79" y="-264.3" font-family="Times New Roman,serif" font-size="14.00">exp4a</text>
</g>
<!-- n10592&#45;&gt;n10601 -->
<g id="edge30" class="edge"><title>n10592&#45;&gt;n10601</title>
</g>
<!-- n10589 -->
<g id="node7" class="node"><title>n10589</title>
<ellipse fill="none" stroke="lightgray" cx="27" cy="-468" rx="27" ry="18"/>
<text text-anchor="middle" x="27" y="-464.3" font-family="Times New Roman,serif" font-size="14.00" fill="lightgray">wta</text>
</g>
<!-- n10589&#45;&gt;n10591 -->
<g id="edge5" class="edge"><title>n10589&#45;&gt;n10591</title>
<path fill="none" stroke="lightgray" d="M52.2916,-461.647C74.1718,-455.924 106.576,-447.449 131.14,-441.025"/>
<polygon fill="lightgray" stroke="lightgray" points="132.346,-444.327 141.135,-438.411 130.575,-437.555 132.346,-444.327"/>
<text text-anchor="middle" x="90.5" y="-459.8" font-family="Times New Roman,serif" font-size="14.00" fill="lightgray">wff ta</text>
</g>
<!-- n10590 -->
<g id="node9" class="node"><title>n10590</title>
<ellipse fill="none" stroke="lightgray" cx="27" cy="-396" rx="27" ry="18"/>
<text text-anchor="middle" x="27" y="-392.3" font-family="Times New Roman,serif" font-size="14.00" fill="lightgray">wet</text>
</g>
<!-- n10589&#45;&gt;n10590 -->
<g id="edge8" class="edge"><title>n10589&#45;&gt;n10590</title>
</g>
<!-- n10591&#45;&gt;n10592 -->
<g id="edge7" class="edge"><title>n10591&#45;&gt;n10592</title>
<path fill="none" stroke="lightgray" d="M193.401,-429.091C255.625,-422.063 414.276,-404.144 485.827,-396.062"/>
<polygon fill="lightgray" stroke="lightgray" points="486.588,-399.498 496.132,-394.898 485.803,-392.543 486.588,-399.498"/>
<text text-anchor="middle" x="348.293" y="-429.8" font-family="Times New Roman,serif" font-size="14.00" fill="lightgray">wff ( ta &#45;&gt; et )</text>
</g>
<!-- n10590&#45;&gt;n10591 -->
<g id="edge6" class="edge"><title>n10590&#45;&gt;n10591</title>
<path fill="none" stroke="lightgray" d="M52.2916,-402.353C74.1718,-408.076 106.576,-416.551 131.14,-422.975"/>
<polygon fill="lightgray" stroke="lightgray" points="130.575,-426.445 141.135,-425.589 132.346,-419.673 130.575,-426.445"/>
<text text-anchor="middle" x="90.5" y="-421.8" font-family="Times New Roman,serif" font-size="14.00" fill="lightgray">wff et</text>
</g>
<!-- n10593 -->
<g id="node10" class="node"><title>n10593</title>
<ellipse fill="none" stroke="lightgray" cx="166.646" cy="-378" rx="27" ry="18"/>
<text text-anchor="middle" x="166.646" y="-374.3" font-family="Times New Roman,serif" font-size="14.00" fill="lightgray">wph</text>
</g>
<!-- n10593&#45;&gt;n10601 -->
<g id="edge11" class="edge"><title>n10593&#45;&gt;n10601</title>
<path fill="none" stroke="lightgray" d="M193.893,-378.267C248.962,-377.746 379.166,-370.766 472.293,-320 484.433,-313.382 495.347,-302.735 503.817,-292.793"/>
<polygon fill="lightgray" stroke="lightgray" points="506.78,-294.694 510.33,-284.712 501.33,-290.301 506.78,-294.694"/>
<text text-anchor="middle" x="348.293" y="-381.8" font-family="Times New Roman,serif" font-size="14.00" fill="lightgray">wff ph</text>
</g>
<!-- n10596 -->
<g id="node13" class="node"><title>n10596</title>
<ellipse fill="none" stroke="lightgray" cx="166.646" cy="-306" rx="27" ry="18"/>
<text text-anchor="middle" x="166.646" y="-302.3" font-family="Times New Roman,serif" font-size="14.00" fill="lightgray">wa</text>
</g>
<!-- n10593&#45;&gt;n10596 -->
<g id="edge21" class="edge"><title>n10593&#45;&gt;n10596</title>
</g>
<!-- n10601&#45;&gt;n10602 -->
<g id="edge20" class="edge"><title>n10601&#45;&gt;n10602</title>
<path fill="none" stroke="black" d="M554.642,-272.071C614.126,-281.322 746.212,-308.833 830.287,-379 848.624,-394.304 861.699,-418.257 869.788,-436.84"/>
<polygon fill="black" stroke="black" points="866.623,-438.345 873.668,-446.258 873.095,-435.679 866.623,-438.345"/>
<text text-anchor="middle" x="701.787" y="-382.8" font-family="Times New Roman,serif" font-size="14.00">|&#45; ( ph &#45;&gt; ( ( ps / ch ) &#45;&gt; ( th &#45;&gt; ( ta &#45;&gt; et ) ) ) )</text>
</g>
<!-- n10594 -->
<g id="node12" class="node"><title>n10594</title>
<ellipse fill="none" stroke="lightgray" cx="27" cy="-333" rx="27" ry="18"/>
<text text-anchor="middle" x="27" y="-329.3" font-family="Times New Roman,serif" font-size="14.00" fill="lightgray">wps</text>
</g>
<!-- n10594&#45;&gt;n10596 -->
<g id="edge12" class="edge"><title>n10594&#45;&gt;n10596</title>
<path fill="none" stroke="lightgray" d="M53.2465,-328.048C74.9779,-323.785 106.556,-317.591 130.712,-312.853"/>
<polygon fill="lightgray" stroke="lightgray" points="131.421,-316.28 140.56,-310.921 130.073,-309.411 131.421,-316.28"/>
<text text-anchor="middle" x="90.5" y="-328.8" font-family="Times New Roman,serif" font-size="14.00" fill="lightgray">wff ps</text>
</g>
<!-- n10595 -->
<g id="node14" class="node"><title>n10595</title>
<ellipse fill="none" stroke="lightgray" cx="27" cy="-261" rx="27" ry="18"/>
<text text-anchor="middle" x="27" y="-257.3" font-family="Times New Roman,serif" font-size="14.00" fill="lightgray">wch</text>
</g>
<!-- n10594&#45;&gt;n10595 -->
<g id="edge15" class="edge"><title>n10594&#45;&gt;n10595</title>
</g>
<!-- n10596&#45;&gt;n10601 -->
<g id="edge14" class="edge"><title>n10596&#45;&gt;n10601</title>
<path fill="none" stroke="lightgray" d="M193.766,-303.689C246.489,-298.948 369.382,-287.508 472.293,-275 475.16,-274.652 478.119,-274.275 481.096,-273.885"/>
<polygon fill="lightgray" stroke="lightgray" points="481.746,-277.328 491.186,-272.519 480.807,-270.392 481.746,-277.328"/>
<text text-anchor="middle" x="348.293" y="-304.8" font-family="Times New Roman,serif" font-size="14.00" fill="lightgray">wff ( ps / ch )</text>
</g>
<!-- n10597 -->
<g id="node15" class="node"><title>n10597</title>
<ellipse fill="none" stroke="lightgray" cx="166.646" cy="-234" rx="27" ry="18"/>
<text text-anchor="middle" x="166.646" y="-230.3" font-family="Times New Roman,serif" font-size="14.00" fill="lightgray">wth</text>
</g>
<!-- n10596&#45;&gt;n10597 -->
<g id="edge22" class="edge"><title>n10596&#45;&gt;n10597</title>
</g>
<!-- n10595&#45;&gt;n10596 -->
<g id="edge13" class="edge"><title>n10595&#45;&gt;n10596</title>
<path fill="none" stroke="lightgray" d="M51.6623,-268.736C73.8212,-275.98 107.163,-286.88 132.069,-295.023"/>
<polygon fill="lightgray" stroke="lightgray" points="131.24,-298.434 141.832,-298.215 133.415,-291.78 131.24,-298.434"/>
<text text-anchor="middle" x="90.5" y="-291.8" font-family="Times New Roman,serif" font-size="14.00" fill="lightgray">wff ch</text>
</g>
<!-- n10597&#45;&gt;n10601 -->
<g id="edge16" class="edge"><title>n10597&#45;&gt;n10601</title>
<path fill="none" stroke="lightgray" d="M193.796,-235.567C246.574,-238.877 369.561,-247.332 472.293,-260 475.306,-260.372 478.417,-260.79 481.542,-261.237"/>
<polygon fill="lightgray" stroke="lightgray" points="481.067,-264.704 491.477,-262.731 482.109,-257.782 481.067,-264.704"/>
<text text-anchor="middle" x="348.293" y="-263.8" font-family="Times New Roman,serif" font-size="14.00" fill="lightgray">wff th</text>
</g>
<!-- n10598 -->
<g id="node16" class="node"><title>n10598</title>
<ellipse fill="none" stroke="lightgray" cx="166.646" cy="-162" rx="27" ry="18"/>
<text text-anchor="middle" x="166.646" y="-158.3" font-family="Times New Roman,serif" font-size="14.00" fill="lightgray">wta</text>
</g>
<!-- n10597&#45;&gt;n10598 -->
<g id="edge23" class="edge"><title>n10597&#45;&gt;n10598</title>
</g>
<!-- n10598&#45;&gt;n10601 -->
<g id="edge17" class="edge"><title>n10598&#45;&gt;n10601</title>
<path fill="none" stroke="lightgray" d="M193.771,-161.848C248.609,-162.568 378.401,-169.801 472.293,-219 483.725,-224.99 494.228,-234.503 502.59,-243.56"/>
<polygon fill="lightgray" stroke="lightgray" points="500.14,-246.076 509.357,-251.302 505.411,-241.469 500.14,-246.076"/>
<text text-anchor="middle" x="348.293" y="-222.8" font-family="Times New Roman,serif" font-size="14.00" fill="lightgray">wff ta</text>
</g>
<!-- n10599 -->
<g id="node17" class="node"><title>n10599</title>
<ellipse fill="none" stroke="lightgray" cx="166.646" cy="-90" rx="27" ry="18"/>
<text text-anchor="middle" x="166.646" y="-86.3" font-family="Times New Roman,serif" font-size="14.00" fill="lightgray">wet</text>
</g>
<!-- n10598&#45;&gt;n10599 -->
<g id="edge24" class="edge"><title>n10598&#45;&gt;n10599</title>
</g>
<!-- n10599&#45;&gt;n10601 -->
<g id="edge18" class="edge"><title>n10599&#45;&gt;n10601</title>
<path fill="none" stroke="lightgray" d="M193.47,-86.8443C250.596,-81.3447 389.185,-76.3504 472.293,-144 501.464,-167.745 513.541,-211.209 518.474,-239.853"/>
<polygon fill="lightgray" stroke="lightgray" points="515.06,-240.68 520.036,-250.034 521.979,-239.619 515.06,-240.68"/>
<text text-anchor="middle" x="348.293" y="-147.8" font-family="Times New Roman,serif" font-size="14.00" fill="lightgray">wff et</text>
</g>
<!-- n10600 -->
<g id="node18" class="node"><title>n10600</title>
<ellipse fill="orange" stroke="black" cx="166.646" cy="-18" rx="39.7935" ry="18"/>
<text text-anchor="middle" x="166.646" y="-14.3" font-family="Times New Roman,serif" font-size="14.00">exp5c.1</text>
</g>
<!-- n10599&#45;&gt;n10600 -->
<g id="edge25" class="edge"><title>n10599&#45;&gt;n10600</title>
</g>
<!-- n10600&#45;&gt;n10601 -->
<g id="edge19" class="edge"><title>n10600&#45;&gt;n10601</title>
<path fill="none" stroke="black" d="M204.01,-11.9223C267.23,-3.59154 397.761,3.37622 472.293,-65 497.819,-88.4179 512.807,-189.879 518.773,-239.903"/>
<polygon fill="black" stroke="black" points="515.319,-240.5 519.942,-250.033 522.273,-239.698 515.319,-240.5"/>
<text text-anchor="middle" x="348.293" y="-68.8" font-family="Times New Roman,serif" font-size="14.00">|&#45; ( ph &#45;&gt; ( ( ps / ch ) &#45;&gt; ( ( th / ta ) &#45;&gt; et ) ) )</text>
</g>
</g>
</svg>
