<?xml version="1.0" encoding="UTF-8" standalone="no"?>
<!DOCTYPE svg PUBLIC "-//W3C//DTD SVG 1.1//EN"
 "http://www.w3.org/Graphics/SVG/1.1/DTD/svg11.dtd">
<!-- Generated by graphviz version 2.38.0 (20140413.2041)
 -->
<!-- Title: proof_expimpd Pages: 1 -->
<svg width="1020pt" height="439pt"
 viewBox="0.00 0.00 1020.28 439.00" xmlns="http://www.w3.org/2000/svg" xmlns:xlink="http://www.w3.org/1999/xlink">
<g id="graph0" class="graph" transform="scale(1 1) rotate(0) translate(4 435)">
<title>proof_expimpd</title>
<polygon fill="white" stroke="none" points="-4,4 -4,-435 1016.28,-435 1016.28,4 -4,4"/>
<!-- n10399 -->
<g id="node1" class="node"><title>n10399</title>
<ellipse fill="none" stroke="lightgray" cx="452.791" cy="-413" rx="27" ry="18"/>
<text text-anchor="middle" x="452.791" y="-409.3" font-family="Times New Roman,serif" font-size="14.00" fill="lightgray">wph</text>
</g>
<!-- n10410 -->
<g id="node2" class="node"><title>n10410</title>
<ellipse fill="cyan" stroke="black" cx="721.288" cy="-269" rx="32.4942" ry="18"/>
<text text-anchor="middle" x="721.288" y="-265.3" font-family="Times New Roman,serif" font-size="14.00">imp3a</text>
</g>
<!-- n10399&#45;&gt;n10410 -->
<g id="edge1" class="edge"><title>n10399&#45;&gt;n10410</title>
<path fill="none" stroke="lightgray" d="M479.882,-411.443C523.58,-407.624 612.499,-394.536 670.791,-350 688.802,-336.24 701.746,-313.886 709.87,-296.144"/>
<polygon fill="lightgray" stroke="lightgray" points="713.134,-297.414 713.889,-286.846 706.709,-294.637 713.134,-297.414"/>
<text text-anchor="middle" x="584.291" y="-412.8" font-family="Times New Roman,serif" font-size="14.00" fill="lightgray">wff ph</text>
</g>
<!-- n10400 -->
<g id="node3" class="node"><title>n10400</title>
<ellipse fill="none" stroke="lightgray" cx="452.791" cy="-341" rx="27" ry="18"/>
<text text-anchor="middle" x="452.791" y="-337.3" font-family="Times New Roman,serif" font-size="14.00" fill="lightgray">wps</text>
</g>
<!-- n10399&#45;&gt;n10400 -->
<g id="edge17" class="edge"><title>n10399&#45;&gt;n10400</title>
</g>
<!-- QED -->
<g id="node13" class="node"><title>QED</title>
</g>
<!-- n10410&#45;&gt;QED -->
<g id="edge16" class="edge"><title>n10410&#45;&gt;QED</title>
<path fill="none" stroke="black" d="M753.878,-269C801.564,-269 891.82,-269 943.367,-269"/>
<polygon fill="black" stroke="black" points="943.443,-272.5 953.443,-269 943.443,-265.5 943.443,-272.5"/>
<text text-anchor="middle" x="853.785" y="-272.8" font-family="Times New Roman,serif" font-size="14.00">|&#45; ( ph &#45;&gt; ( ( ps / ch ) &#45;&gt; th ) )</text>
</g>
<!-- n10400&#45;&gt;n10410 -->
<g id="edge2" class="edge"><title>n10400&#45;&gt;n10410</title>
<path fill="none" stroke="lightgray" d="M478.806,-335.972C519.484,-327.554 602.315,-309.41 670.791,-288 675.486,-286.532 680.377,-284.849 685.179,-283.105"/>
<polygon fill="lightgray" stroke="lightgray" points="686.684,-286.279 694.816,-279.488 684.224,-279.725 686.684,-286.279"/>
<text text-anchor="middle" x="584.291" y="-334.8" font-family="Times New Roman,serif" font-size="14.00" fill="lightgray">wff ps</text>
</g>
<!-- n10401 -->
<g id="node4" class="node"><title>n10401</title>
<ellipse fill="none" stroke="lightgray" cx="452.791" cy="-269" rx="27" ry="18"/>
<text text-anchor="middle" x="452.791" y="-265.3" font-family="Times New Roman,serif" font-size="14.00" fill="lightgray">wch</text>
</g>
<!-- n10400&#45;&gt;n10401 -->
<g id="edge18" class="edge"><title>n10400&#45;&gt;n10401</title>
</g>
<!-- n10401&#45;&gt;n10410 -->
<g id="edge3" class="edge"><title>n10401&#45;&gt;n10410</title>
<path fill="none" stroke="lightgray" d="M479.829,-269C525.97,-269 622.459,-269 678.164,-269"/>
<polygon fill="lightgray" stroke="lightgray" points="678.402,-272.5 688.402,-269 678.402,-265.5 678.402,-272.5"/>
<text text-anchor="middle" x="584.291" y="-272.8" font-family="Times New Roman,serif" font-size="14.00" fill="lightgray">wff ch</text>
</g>
<!-- n10402 -->
<g id="node5" class="node"><title>n10402</title>
<ellipse fill="none" stroke="lightgray" cx="452.791" cy="-197" rx="27" ry="18"/>
<text text-anchor="middle" x="452.791" y="-193.3" font-family="Times New Roman,serif" font-size="14.00" fill="lightgray">wth</text>
</g>
<!-- n10401&#45;&gt;n10402 -->
<g id="edge19" class="edge"><title>n10401&#45;&gt;n10402</title>
</g>
<!-- n10402&#45;&gt;n10410 -->
<g id="edge4" class="edge"><title>n10402&#45;&gt;n10410</title>
<path fill="none" stroke="lightgray" d="M478.806,-202.028C519.484,-210.446 602.315,-228.59 670.791,-250 675.486,-251.468 680.377,-253.151 685.179,-254.895"/>
<polygon fill="lightgray" stroke="lightgray" points="684.224,-258.275 694.816,-258.512 686.684,-251.721 684.224,-258.275"/>
<text text-anchor="middle" x="584.291" y="-253.8" font-family="Times New Roman,serif" font-size="14.00" fill="lightgray">wff th</text>
</g>
<!-- n10409 -->
<g id="node7" class="node"><title>n10409</title>
<ellipse fill="cyan" stroke="black" cx="452.791" cy="-125" rx="27" ry="18"/>
<text text-anchor="middle" x="452.791" y="-121.3" font-family="Times New Roman,serif" font-size="14.00">ex</text>
</g>
<!-- n10402&#45;&gt;n10409 -->
<g id="edge20" class="edge"><title>n10402&#45;&gt;n10409</title>
</g>
<!-- n10403 -->
<g id="node6" class="node"><title>n10403</title>
<ellipse fill="none" stroke="lightgray" cx="176.396" cy="-234" rx="27" ry="18"/>
<text text-anchor="middle" x="176.396" y="-230.3" font-family="Times New Roman,serif" font-size="14.00" fill="lightgray">wph</text>
</g>
<!-- n10403&#45;&gt;n10409 -->
<g id="edge5" class="edge"><title>n10403&#45;&gt;n10409</title>
<path fill="none" stroke="lightgray" d="M203.395,-231.684C248.067,-226.729 341.023,-212.079 407.791,-172 417.668,-166.071 426.724,-157.299 434.019,-148.933"/>
<polygon fill="lightgray" stroke="lightgray" points="436.781,-151.085 440.442,-141.143 431.38,-146.631 436.781,-151.085"/>
<text text-anchor="middle" x="325.791" y="-228.8" font-family="Times New Roman,serif" font-size="14.00" fill="lightgray">wff ph</text>
</g>
<!-- n10404 -->
<g id="node8" class="node"><title>n10404</title>
<ellipse fill="none" stroke="lightgray" cx="176.396" cy="-162" rx="27" ry="18"/>
<text text-anchor="middle" x="176.396" y="-158.3" font-family="Times New Roman,serif" font-size="14.00" fill="lightgray">wps</text>
</g>
<!-- n10403&#45;&gt;n10404 -->
<g id="edge13" class="edge"><title>n10403&#45;&gt;n10404</title>
</g>
<!-- n10409&#45;&gt;n10410 -->
<g id="edge12" class="edge"><title>n10409&#45;&gt;n10410</title>
<path fill="none" stroke="black" d="M479.904,-126.382C523.633,-129.921 612.597,-142.483 670.791,-187 689.067,-200.98 702.047,-223.805 710.117,-241.828"/>
<polygon fill="black" stroke="black" points="706.985,-243.408 714.098,-251.261 713.434,-240.687 706.985,-243.408"/>
<text text-anchor="middle" x="584.291" y="-190.8" font-family="Times New Roman,serif" font-size="14.00">|&#45; ( ph &#45;&gt; ( ps &#45;&gt; ( ch &#45;&gt; th ) ) )</text>
</g>
<!-- n10404&#45;&gt;n10409 -->
<g id="edge6" class="edge"><title>n10404&#45;&gt;n10409</title>
<path fill="none" stroke="lightgray" d="M202.968,-158.574C245.485,-152.875 333.402,-141.077 407.791,-131 410.491,-130.634 413.285,-130.255 416.094,-129.873"/>
<polygon fill="lightgray" stroke="lightgray" points="416.763,-133.315 426.199,-128.498 415.818,-126.379 416.763,-133.315"/>
<text text-anchor="middle" x="325.791" y="-156.8" font-family="Times New Roman,serif" font-size="14.00" fill="lightgray">wff ps</text>
</g>
<!-- n10407 -->
<g id="node10" class="node"><title>n10407</title>
<ellipse fill="none" stroke="lightgray" cx="176.396" cy="-90" rx="27" ry="18"/>
<text text-anchor="middle" x="176.396" y="-86.3" font-family="Times New Roman,serif" font-size="14.00" fill="lightgray">wi</text>
</g>
<!-- n10404&#45;&gt;n10407 -->
<g id="edge14" class="edge"><title>n10404&#45;&gt;n10407</title>
</g>
<!-- n10405 -->
<g id="node9" class="node"><title>n10405</title>
<ellipse fill="none" stroke="lightgray" cx="27" cy="-135" rx="27" ry="18"/>
<text text-anchor="middle" x="27" y="-131.3" font-family="Times New Roman,serif" font-size="14.00" fill="lightgray">wch</text>
</g>
<!-- n10405&#45;&gt;n10407 -->
<g id="edge7" class="edge"><title>n10405&#45;&gt;n10407</title>
<path fill="none" stroke="lightgray" d="M52.0097,-127.67C76.3139,-120.25 114.113,-108.71 141.472,-100.357"/>
<polygon fill="lightgray" stroke="lightgray" points="142.854,-103.595 151.396,-97.327 140.81,-96.8996 142.854,-103.595"/>
<text text-anchor="middle" x="90.5" y="-124.8" font-family="Times New Roman,serif" font-size="14.00" fill="lightgray">wff ch</text>
</g>
<!-- n10406 -->
<g id="node11" class="node"><title>n10406</title>
<ellipse fill="none" stroke="lightgray" cx="27" cy="-63" rx="27" ry="18"/>
<text text-anchor="middle" x="27" y="-59.3" font-family="Times New Roman,serif" font-size="14.00" fill="lightgray">wth</text>
</g>
<!-- n10405&#45;&gt;n10406 -->
<g id="edge10" class="edge"><title>n10405&#45;&gt;n10406</title>
</g>
<!-- n10407&#45;&gt;n10409 -->
<g id="edge9" class="edge"><title>n10407&#45;&gt;n10409</title>
<path fill="none" stroke="lightgray" d="M203.412,-92.172C246.2,-95.9153 334.041,-104.32 407.791,-116 410.679,-116.457 413.665,-116.974 416.658,-117.522"/>
<polygon fill="lightgray" stroke="lightgray" points="416.249,-121.008 426.732,-119.471 417.579,-114.135 416.249,-121.008"/>
<text text-anchor="middle" x="325.791" y="-119.8" font-family="Times New Roman,serif" font-size="14.00" fill="lightgray">wff ( ch &#45;&gt; th )</text>
</g>
<!-- n10408 -->
<g id="node12" class="node"><title>n10408</title>
<ellipse fill="orange" stroke="black" cx="176.396" cy="-18" rx="49.2915" ry="18"/>
<text text-anchor="middle" x="176.396" y="-14.3" font-family="Times New Roman,serif" font-size="14.00">expimpd.1</text>
</g>
<!-- n10407&#45;&gt;n10408 -->
<g id="edge15" class="edge"><title>n10407&#45;&gt;n10408</title>
</g>
<!-- n10406&#45;&gt;n10407 -->
<g id="edge8" class="edge"><title>n10406&#45;&gt;n10407</title>
<path fill="none" stroke="lightgray" d="M53.3382,-67.6415C77.172,-72.0074 113.087,-78.5863 139.795,-83.4787"/>
<polygon fill="lightgray" stroke="lightgray" points="139.428,-86.9696 149.895,-85.3287 140.689,-80.0841 139.428,-86.9696"/>
<text text-anchor="middle" x="90.5" y="-81.8" font-family="Times New Roman,serif" font-size="14.00" fill="lightgray">wff th</text>
</g>
<!-- n10408&#45;&gt;n10409 -->
<g id="edge11" class="edge"><title>n10408&#45;&gt;n10409</title>
<path fill="none" stroke="black" d="M224.565,-22.1176C273.391,-28.1275 350.411,-42.6227 407.791,-77 417.786,-82.9879 426.864,-91.9342 434.145,-100.486"/>
<polygon fill="black" stroke="black" points="431.554,-102.85 440.545,-108.456 437.012,-98.4671 431.554,-102.85"/>
<text text-anchor="middle" x="325.791" y="-80.8" font-family="Times New Roman,serif" font-size="14.00">|&#45; ( ( ph / ps ) &#45;&gt; ( ch &#45;&gt; th ) )</text>
</g>
</g>
</svg>
