<?xml version="1.0" encoding="UTF-8" standalone="no"?>
<!DOCTYPE svg PUBLIC "-//W3C//DTD SVG 1.1//EN"
 "http://www.w3.org/Graphics/SVG/1.1/DTD/svg11.dtd">
<!-- Generated by graphviz version 2.38.0 (20140413.2041)
 -->
<!-- Title: proof_expi Pages: 1 -->
<svg width="1060pt" height="404pt"
 viewBox="0.00 0.00 1059.99 404.00" xmlns="http://www.w3.org/2000/svg" xmlns:xlink="http://www.w3.org/1999/xlink">
<g id="graph0" class="graph" transform="scale(1 1) rotate(0) translate(4 400)">
<title>proof_expi</title>
<polygon fill="white" stroke="none" points="-4,4 -4,-400 1055.99,-400 1055.99,4 -4,4"/>
<!-- n1657 -->
<g id="node1" class="node"><title>n1657</title>
<ellipse fill="none" stroke="lightgray" cx="498.246" cy="-378" rx="27" ry="18"/>
<text text-anchor="middle" x="498.246" y="-374.3" font-family="Times New Roman,serif" font-size="14.00" fill="lightgray">wph</text>
</g>
<!-- n1669 -->
<g id="node2" class="node"><title>n1669</title>
<ellipse fill="cyan" stroke="black" cx="804.493" cy="-197" rx="27" ry="18"/>
<text text-anchor="middle" x="804.493" y="-193.3" font-family="Times New Roman,serif" font-size="14.00">syl6</text>
</g>
<!-- n1657&#45;&gt;n1669 -->
<g id="edge1" class="edge"><title>n1657&#45;&gt;n1669</title>
<path fill="none" stroke="lightgray" d="M525.406,-380.014C576.849,-382.492 692.02,-380.503 759.493,-321 787.141,-296.617 797.416,-253.698 801.235,-225.303"/>
<polygon fill="lightgray" stroke="lightgray" points="804.731,-225.537 802.405,-215.2 797.777,-224.731 804.731,-225.537"/>
<text text-anchor="middle" x="658.993" y="-383.8" font-family="Times New Roman,serif" font-size="14.00" fill="lightgray">wff ph</text>
</g>
<!-- n1658 -->
<g id="node3" class="node"><title>n1658</title>
<ellipse fill="none" stroke="lightgray" cx="498.246" cy="-306" rx="27" ry="18"/>
<text text-anchor="middle" x="498.246" y="-302.3" font-family="Times New Roman,serif" font-size="14.00" fill="lightgray">wps</text>
</g>
<!-- n1657&#45;&gt;n1658 -->
<g id="edge16" class="edge"><title>n1657&#45;&gt;n1658</title>
</g>
<!-- QED -->
<g id="node14" class="node"><title>QED</title>
</g>
<!-- n1669&#45;&gt;QED -->
<g id="edge15" class="edge"><title>n1669&#45;&gt;QED</title>
<path fill="none" stroke="black" d="M831.577,-197C869.248,-197 939.151,-197 982.903,-197"/>
<polygon fill="black" stroke="black" points="983.159,-200.5 993.159,-197 983.159,-193.5 983.159,-200.5"/>
<text text-anchor="middle" x="912.493" y="-200.8" font-family="Times New Roman,serif" font-size="14.00">|&#45; ( ph &#45;&gt; ( ps &#45;&gt; ch ) )</text>
</g>
<!-- n1658&#45;&gt;n1669 -->
<g id="edge2" class="edge"><title>n1658&#45;&gt;n1669</title>
<path fill="none" stroke="lightgray" d="M525.532,-305.104C574.763,-302.362 682.81,-291.224 759.493,-246 769.898,-239.863 779.209,-230.446 786.557,-221.501"/>
<polygon fill="lightgray" stroke="lightgray" points="789.376,-223.577 792.728,-213.526 783.84,-219.293 789.376,-223.577"/>
<text text-anchor="middle" x="658.993" y="-305.8" font-family="Times New Roman,serif" font-size="14.00" fill="lightgray">wff ps</text>
</g>
<!-- n1663 -->
<g id="node8" class="node"><title>n1663</title>
<ellipse fill="none" stroke="lightgray" cx="498.246" cy="-234" rx="27" ry="18"/>
<text text-anchor="middle" x="498.246" y="-230.3" font-family="Times New Roman,serif" font-size="14.00" fill="lightgray">wn</text>
</g>
<!-- n1658&#45;&gt;n1663 -->
<g id="edge17" class="edge"><title>n1658&#45;&gt;n1663</title>
</g>
<!-- n1659 -->
<g id="node4" class="node"><title>n1659</title>
<ellipse fill="none" stroke="lightgray" cx="154" cy="-279" rx="27" ry="18"/>
<text text-anchor="middle" x="154" y="-275.3" font-family="Times New Roman,serif" font-size="14.00" fill="lightgray">wph</text>
</g>
<!-- n1662 -->
<g id="node5" class="node"><title>n1662</title>
<ellipse fill="none" stroke="lightgray" cx="293" cy="-234" rx="27" ry="18"/>
<text text-anchor="middle" x="293" y="-230.3" font-family="Times New Roman,serif" font-size="14.00" fill="lightgray">wi</text>
</g>
<!-- n1659&#45;&gt;n1662 -->
<g id="edge3" class="edge"><title>n1659&#45;&gt;n1662</title>
<path fill="none" stroke="lightgray" d="M178.551,-271.264C200.606,-264.02 233.791,-253.12 258.581,-244.977"/>
<polygon fill="lightgray" stroke="lightgray" points="259.889,-248.231 268.298,-241.785 257.705,-241.581 259.889,-248.231"/>
<text text-anchor="middle" x="223.5" y="-268.8" font-family="Times New Roman,serif" font-size="14.00" fill="lightgray">wff ph</text>
</g>
<!-- n1661 -->
<g id="node7" class="node"><title>n1661</title>
<ellipse fill="none" stroke="lightgray" cx="154" cy="-207" rx="27" ry="18"/>
<text text-anchor="middle" x="154" y="-203.3" font-family="Times New Roman,serif" font-size="14.00" fill="lightgray">wn</text>
</g>
<!-- n1659&#45;&gt;n1661 -->
<g id="edge7" class="edge"><title>n1659&#45;&gt;n1661</title>
</g>
<!-- n1662&#45;&gt;n1663 -->
<g id="edge6" class="edge"><title>n1662&#45;&gt;n1663</title>
<path fill="none" stroke="lightgray" d="M320.155,-234C355.979,-234 420.47,-234 460.952,-234"/>
<polygon fill="lightgray" stroke="lightgray" points="461.192,-237.5 471.192,-234 461.192,-230.5 461.192,-237.5"/>
<text text-anchor="middle" x="388" y="-237.8" font-family="Times New Roman,serif" font-size="14.00" fill="lightgray">wff ( ph &#45;&gt; &#45;. ps )</text>
</g>
<!-- n1660 -->
<g id="node6" class="node"><title>n1660</title>
<ellipse fill="none" stroke="lightgray" cx="27" cy="-207" rx="27" ry="18"/>
<text text-anchor="middle" x="27" y="-203.3" font-family="Times New Roman,serif" font-size="14.00" fill="lightgray">wps</text>
</g>
<!-- n1660&#45;&gt;n1661 -->
<g id="edge4" class="edge"><title>n1660&#45;&gt;n1661</title>
<path fill="none" stroke="lightgray" d="M54.2041,-207C72.3711,-207 96.7994,-207 116.82,-207"/>
<polygon fill="lightgray" stroke="lightgray" points="116.83,-210.5 126.83,-207 116.83,-203.5 116.83,-210.5"/>
<text text-anchor="middle" x="90.5" y="-210.8" font-family="Times New Roman,serif" font-size="14.00" fill="lightgray">wff ps</text>
</g>
<!-- n1661&#45;&gt;n1662 -->
<g id="edge5" class="edge"><title>n1661&#45;&gt;n1662</title>
<path fill="none" stroke="lightgray" d="M180.128,-211.952C201.526,-216.169 232.517,-222.277 256.457,-226.995"/>
<polygon fill="lightgray" stroke="lightgray" points="256.079,-230.488 266.567,-228.988 257.433,-223.62 256.079,-230.488"/>
<text text-anchor="middle" x="223.5" y="-229.8" font-family="Times New Roman,serif" font-size="14.00" fill="lightgray">wff &#45;. ps</text>
</g>
<!-- n1663&#45;&gt;n1669 -->
<g id="edge8" class="edge"><title>n1663&#45;&gt;n1669</title>
<path fill="none" stroke="lightgray" d="M525.121,-231.065C571.92,-225.724 673.737,-213.954 759.493,-203 762.195,-202.655 764.991,-202.29 767.801,-201.919"/>
<polygon fill="lightgray" stroke="lightgray" points="768.463,-205.362 777.909,-200.563 767.533,-198.424 768.463,-205.362"/>
<text text-anchor="middle" x="658.993" y="-230.8" font-family="Times New Roman,serif" font-size="14.00" fill="lightgray">wff &#45;. ( ph &#45;&gt; &#45;. ps )</text>
</g>
<!-- n1664 -->
<g id="node9" class="node"><title>n1664</title>
<ellipse fill="none" stroke="lightgray" cx="498.246" cy="-162" rx="27" ry="18"/>
<text text-anchor="middle" x="498.246" y="-158.3" font-family="Times New Roman,serif" font-size="14.00" fill="lightgray">wch</text>
</g>
<!-- n1663&#45;&gt;n1664 -->
<g id="edge18" class="edge"><title>n1663&#45;&gt;n1664</title>
</g>
<!-- n1664&#45;&gt;n1669 -->
<g id="edge9" class="edge"><title>n1664&#45;&gt;n1669</title>
<path fill="none" stroke="lightgray" d="M525.213,-163.711C572.158,-167.001 674.197,-175.051 759.493,-188 762.383,-188.439 765.371,-188.942 768.366,-189.482"/>
<polygon fill="lightgray" stroke="lightgray" points="767.962,-192.968 778.442,-191.415 769.281,-186.093 767.962,-192.968"/>
<text text-anchor="middle" x="658.993" y="-191.8" font-family="Times New Roman,serif" font-size="14.00" fill="lightgray">wff ch</text>
</g>
<!-- n1667 -->
<g id="node11" class="node"><title>n1667</title>
<ellipse fill="cyan" stroke="black" cx="498.246" cy="-90" rx="42.4939" ry="18"/>
<text text-anchor="middle" x="498.246" y="-86.3" font-family="Times New Roman,serif" font-size="14.00">pm3.2im</text>
</g>
<!-- n1664&#45;&gt;n1667 -->
<g id="edge19" class="edge"><title>n1664&#45;&gt;n1667</title>
</g>
<!-- n1665 -->
<g id="node10" class="node"><title>n1665</title>
<ellipse fill="none" stroke="lightgray" cx="293" cy="-118" rx="27" ry="18"/>
<text text-anchor="middle" x="293" y="-114.3" font-family="Times New Roman,serif" font-size="14.00" fill="lightgray">wph</text>
</g>
<!-- n1665&#45;&gt;n1667 -->
<g id="edge10" class="edge"><title>n1665&#45;&gt;n1667</title>
<path fill="none" stroke="lightgray" d="M319.741,-114.454C351.843,-110.031 407.417,-102.375 447.847,-96.8055"/>
<polygon fill="lightgray" stroke="lightgray" points="448.347,-100.27 457.776,-95.4376 447.392,-93.3352 448.347,-100.27"/>
<text text-anchor="middle" x="388" y="-115.8" font-family="Times New Roman,serif" font-size="14.00" fill="lightgray">wff ph</text>
</g>
<!-- n1666 -->
<g id="node12" class="node"><title>n1666</title>
<ellipse fill="none" stroke="lightgray" cx="293" cy="-46" rx="27" ry="18"/>
<text text-anchor="middle" x="293" y="-42.3" font-family="Times New Roman,serif" font-size="14.00" fill="lightgray">wps</text>
</g>
<!-- n1665&#45;&gt;n1666 -->
<g id="edge13" class="edge"><title>n1665&#45;&gt;n1666</title>
</g>
<!-- n1667&#45;&gt;n1669 -->
<g id="edge12" class="edge"><title>n1667&#45;&gt;n1669</title>
<path fill="none" stroke="black" d="M540.381,-91.4932C594.177,-95.0865 689.765,-107.221 759.493,-148 769.92,-154.098 779.235,-163.51 786.58,-172.46"/>
<polygon fill="black" stroke="black" points="783.863,-174.668 792.746,-180.442 789.403,-170.389 783.863,-174.668"/>
<text text-anchor="middle" x="658.993" y="-151.8" font-family="Times New Roman,serif" font-size="14.00">|&#45; ( ph &#45;&gt; ( ps &#45;&gt; &#45;. ( ph &#45;&gt; &#45;. ps ) ) )</text>
</g>
<!-- n1668 -->
<g id="node13" class="node"><title>n1668</title>
<ellipse fill="orange" stroke="black" cx="498.246" cy="-18" rx="32.4942" ry="18"/>
<text text-anchor="middle" x="498.246" y="-14.3" font-family="Times New Roman,serif" font-size="14.00">expi.1</text>
</g>
<!-- n1667&#45;&gt;n1668 -->
<g id="edge20" class="edge"><title>n1667&#45;&gt;n1668</title>
</g>
<!-- n1666&#45;&gt;n1667 -->
<g id="edge11" class="edge"><title>n1666&#45;&gt;n1667</title>
<path fill="none" stroke="lightgray" d="M318.922,-51.3953C351.463,-58.4399 409.089,-70.9151 450.02,-79.7763"/>
<polygon fill="lightgray" stroke="lightgray" points="449.527,-83.2506 460.042,-81.9457 451.009,-76.409 449.527,-83.2506"/>
<text text-anchor="middle" x="388" y="-80.8" font-family="Times New Roman,serif" font-size="14.00" fill="lightgray">wff ps</text>
</g>
<!-- n1668&#45;&gt;n1669 -->
<g id="edge14" class="edge"><title>n1668&#45;&gt;n1669</title>
<path fill="none" stroke="black" d="M530.742,-15.7902C584.415,-13.7945 694.127,-17.6541 759.493,-75 786.657,-98.8321 797.055,-140.734 801.032,-168.681"/>
<polygon fill="black" stroke="black" points="797.563,-169.147 802.264,-178.642 804.51,-168.288 797.563,-169.147"/>
<text text-anchor="middle" x="658.993" y="-78.8" font-family="Times New Roman,serif" font-size="14.00">|&#45; ( &#45;. ( ph &#45;&gt; &#45;. ps ) &#45;&gt; ch )</text>
</g>
</g>
</svg>
