<?xml version="1.0" encoding="UTF-8" standalone="no"?>
<!DOCTYPE svg PUBLIC "-//W3C//DTD SVG 1.1//EN"
 "http://www.w3.org/Graphics/SVG/1.1/DTD/svg11.dtd">
<!-- Generated by graphviz version 2.38.0 (20140413.2041)
 -->
<!-- Title: proof_ibd Pages: 1 -->
<svg width="688pt" height="435pt"
 viewBox="0.00 0.00 687.99 435.00" xmlns="http://www.w3.org/2000/svg" xmlns:xlink="http://www.w3.org/1999/xlink">
<g id="graph0" class="graph" transform="scale(1 1) rotate(0) translate(4 431)">
<title>proof_ibd</title>
<polygon fill="white" stroke="none" points="-4,4 -4,-431 683.99,-431 683.99,4 -4,4"/>
<!-- n4977 -->
<g id="node1" class="node"><title>n4977</title>
<ellipse fill="none" stroke="lightgray" cx="156.247" cy="-409" rx="27" ry="18"/>
<text text-anchor="middle" x="156.247" y="-405.3" font-family="Times New Roman,serif" font-size="14.00" fill="lightgray">wps</text>
</g>
<!-- n4987 -->
<g id="node2" class="node"><title>n4987</title>
<ellipse fill="cyan" stroke="black" cx="432.495" cy="-228" rx="27" ry="18"/>
<text text-anchor="middle" x="432.495" y="-224.3" font-family="Times New Roman,serif" font-size="14.00">syli</text>
</g>
<!-- n4977&#45;&gt;n4987 -->
<g id="edge1" class="edge"><title>n4977&#45;&gt;n4987</title>
<path fill="none" stroke="lightgray" d="M183.333,-409.917C230.241,-410.124 329.346,-403.777 387.495,-351 414.448,-326.537 424.899,-284.402 428.946,-256.369"/>
<polygon fill="lightgray" stroke="lightgray" points="432.427,-256.741 430.205,-246.382 425.482,-255.866 432.427,-256.741"/>
<text text-anchor="middle" x="295.495" y="-412.8" font-family="Times New Roman,serif" font-size="14.00" fill="lightgray">wff ps</text>
</g>
<!-- n4978 -->
<g id="node3" class="node"><title>n4978</title>
<ellipse fill="none" stroke="lightgray" cx="156.247" cy="-337" rx="27" ry="18"/>
<text text-anchor="middle" x="156.247" y="-333.3" font-family="Times New Roman,serif" font-size="14.00" fill="lightgray">wph</text>
</g>
<!-- n4977&#45;&gt;n4978 -->
<g id="edge14" class="edge"><title>n4977&#45;&gt;n4978</title>
</g>
<!-- QED -->
<g id="node12" class="node"><title>QED</title>
</g>
<!-- n4987&#45;&gt;QED -->
<g id="edge13" class="edge"><title>n4987&#45;&gt;QED</title>
<path fill="none" stroke="black" d="M459.579,-228C497.251,-228 567.154,-228 610.905,-228"/>
<polygon fill="black" stroke="black" points="611.161,-231.5 621.161,-228 611.161,-224.5 611.161,-231.5"/>
<text text-anchor="middle" x="540.495" y="-231.8" font-family="Times New Roman,serif" font-size="14.00">|&#45; ( ph &#45;&gt; ( ps &#45;&gt; ch ) )</text>
</g>
<!-- n4978&#45;&gt;n4987 -->
<g id="edge2" class="edge"><title>n4978&#45;&gt;n4987</title>
<path fill="none" stroke="lightgray" d="M183.314,-335.099C228.084,-330.818 321.167,-317.394 387.495,-277 397.812,-270.717 407.108,-261.273 414.468,-252.349"/>
<polygon fill="lightgray" stroke="lightgray" points="417.273,-254.444 420.657,-244.404 411.75,-250.142 417.273,-254.444"/>
<text text-anchor="middle" x="295.495" y="-335.8" font-family="Times New Roman,serif" font-size="14.00" fill="lightgray">wff ph</text>
</g>
<!-- n4981 -->
<g id="node5" class="node"><title>n4981</title>
<ellipse fill="none" stroke="lightgray" cx="156.247" cy="-265" rx="27" ry="18"/>
<text text-anchor="middle" x="156.247" y="-261.3" font-family="Times New Roman,serif" font-size="14.00" fill="lightgray">wb</text>
</g>
<!-- n4978&#45;&gt;n4981 -->
<g id="edge15" class="edge"><title>n4978&#45;&gt;n4981</title>
</g>
<!-- n4979 -->
<g id="node4" class="node"><title>n4979</title>
<ellipse fill="none" stroke="lightgray" cx="27" cy="-309" rx="27" ry="18"/>
<text text-anchor="middle" x="27" y="-305.3" font-family="Times New Roman,serif" font-size="14.00" fill="lightgray">wps</text>
</g>
<!-- n4979&#45;&gt;n4981 -->
<g id="edge3" class="edge"><title>n4979&#45;&gt;n4981</title>
<path fill="none" stroke="lightgray" d="M51.3391,-300.93C71.2494,-294.045 100.101,-284.069 122.353,-276.374"/>
<polygon fill="lightgray" stroke="lightgray" points="123.749,-279.595 132.056,-273.019 121.461,-272.979 123.749,-279.595"/>
<text text-anchor="middle" x="90.5" y="-296.8" font-family="Times New Roman,serif" font-size="14.00" fill="lightgray">wff ps</text>
</g>
<!-- n4980 -->
<g id="node6" class="node"><title>n4980</title>
<ellipse fill="none" stroke="lightgray" cx="27" cy="-237" rx="27" ry="18"/>
<text text-anchor="middle" x="27" y="-233.3" font-family="Times New Roman,serif" font-size="14.00" fill="lightgray">wch</text>
</g>
<!-- n4979&#45;&gt;n4980 -->
<g id="edge6" class="edge"><title>n4979&#45;&gt;n4980</title>
</g>
<!-- n4981&#45;&gt;n4987 -->
<g id="edge5" class="edge"><title>n4981&#45;&gt;n4987</title>
<path fill="none" stroke="lightgray" d="M182.803,-261.574C225.293,-255.874 313.153,-244.073 387.495,-234 390.195,-233.634 392.988,-233.255 395.797,-232.873"/>
<polygon fill="lightgray" stroke="lightgray" points="396.466,-236.314 405.903,-231.497 395.522,-229.378 396.466,-236.314"/>
<text text-anchor="middle" x="295.495" y="-261.8" font-family="Times New Roman,serif" font-size="14.00" fill="lightgray">wff ( ps &lt;&#45;&gt; ch )</text>
</g>
<!-- n4982 -->
<g id="node7" class="node"><title>n4982</title>
<ellipse fill="none" stroke="lightgray" cx="156.247" cy="-193" rx="27" ry="18"/>
<text text-anchor="middle" x="156.247" y="-189.3" font-family="Times New Roman,serif" font-size="14.00" fill="lightgray">wch</text>
</g>
<!-- n4981&#45;&gt;n4982 -->
<g id="edge16" class="edge"><title>n4981&#45;&gt;n4982</title>
</g>
<!-- n4980&#45;&gt;n4981 -->
<g id="edge4" class="edge"><title>n4980&#45;&gt;n4981</title>
<path fill="none" stroke="lightgray" d="M52.8367,-242.465C72.105,-246.705 99.0482,-252.634 120.463,-257.346"/>
<polygon fill="lightgray" stroke="lightgray" points="119.955,-260.818 130.473,-259.549 121.459,-253.981 119.955,-260.818"/>
<text text-anchor="middle" x="90.5" y="-257.8" font-family="Times New Roman,serif" font-size="14.00" fill="lightgray">wff ch</text>
</g>
<!-- n4982&#45;&gt;n4987 -->
<g id="edge7" class="edge"><title>n4982&#45;&gt;n4987</title>
<path fill="none" stroke="lightgray" d="M183.247,-195.173C226.007,-198.918 313.792,-207.325 387.495,-219 390.383,-219.457 393.369,-219.974 396.362,-220.523"/>
<polygon fill="lightgray" stroke="lightgray" points="395.953,-224.008 406.436,-222.471 397.282,-217.136 395.953,-224.008"/>
<text text-anchor="middle" x="295.495" y="-222.8" font-family="Times New Roman,serif" font-size="14.00" fill="lightgray">wff ch</text>
</g>
<!-- n4983 -->
<g id="node8" class="node"><title>n4983</title>
<ellipse fill="orange" stroke="black" cx="156.247" cy="-121" rx="29.4969" ry="18"/>
<text text-anchor="middle" x="156.247" y="-117.3" font-family="Times New Roman,serif" font-size="14.00">ibd.1</text>
</g>
<!-- n4982&#45;&gt;n4983 -->
<g id="edge17" class="edge"><title>n4982&#45;&gt;n4983</title>
</g>
<!-- n4983&#45;&gt;n4987 -->
<g id="edge8" class="edge"><title>n4983&#45;&gt;n4987</title>
<path fill="none" stroke="black" d="M185.488,-122.817C231.034,-126.855 322.2,-139.599 387.495,-179 397.838,-185.241 407.138,-194.677 414.494,-203.608"/>
<polygon fill="black" stroke="black" points="411.777,-205.815 420.678,-211.561 417.303,-201.518 411.777,-205.815"/>
<text text-anchor="middle" x="295.495" y="-182.8" font-family="Times New Roman,serif" font-size="14.00">|&#45; ( ph &#45;&gt; ( ps &#45;&gt; ( ps &lt;&#45;&gt; ch ) ) )</text>
</g>
<!-- n4986 -->
<g id="node10" class="node"><title>n4986</title>
<ellipse fill="cyan" stroke="black" cx="156.247" cy="-49" rx="27" ry="18"/>
<text text-anchor="middle" x="156.247" y="-45.3" font-family="Times New Roman,serif" font-size="14.00">bi1</text>
</g>
<!-- n4983&#45;&gt;n4986 -->
<g id="edge18" class="edge"><title>n4983&#45;&gt;n4986</title>
</g>
<!-- n4984 -->
<g id="node9" class="node"><title>n4984</title>
<ellipse fill="none" stroke="lightgray" cx="27" cy="-90" rx="27" ry="18"/>
<text text-anchor="middle" x="27" y="-86.3" font-family="Times New Roman,serif" font-size="14.00" fill="lightgray">wps</text>
</g>
<!-- n4984&#45;&gt;n4986 -->
<g id="edge9" class="edge"><title>n4984&#45;&gt;n4986</title>
<path fill="none" stroke="lightgray" d="M51.636,-82.3843C71.4562,-75.9981 99.983,-66.8066 122.088,-59.6842"/>
<polygon fill="lightgray" stroke="lightgray" points="123.293,-62.9731 131.738,-56.5749 121.146,-56.3104 123.293,-62.9731"/>
<text text-anchor="middle" x="90.5" y="-79.8" font-family="Times New Roman,serif" font-size="14.00" fill="lightgray">wff ps</text>
</g>
<!-- n4985 -->
<g id="node11" class="node"><title>n4985</title>
<ellipse fill="none" stroke="lightgray" cx="27" cy="-18" rx="27" ry="18"/>
<text text-anchor="middle" x="27" y="-14.3" font-family="Times New Roman,serif" font-size="14.00" fill="lightgray">wch</text>
</g>
<!-- n4984&#45;&gt;n4985 -->
<g id="edge12" class="edge"><title>n4984&#45;&gt;n4985</title>
</g>
<!-- n4986&#45;&gt;n4987 -->
<g id="edge11" class="edge"><title>n4986&#45;&gt;n4987</title>
<path fill="none" stroke="black" d="M183.306,-48.1127C230.17,-47.9536 329.208,-54.375 387.495,-107 414.005,-130.936 424.564,-172.132 428.755,-199.717"/>
<polygon fill="black" stroke="black" points="425.323,-200.459 430.11,-209.91 432.262,-199.536 425.323,-200.459"/>
<text text-anchor="middle" x="295.495" y="-110.8" font-family="Times New Roman,serif" font-size="14.00">|&#45; ( ( ps &lt;&#45;&gt; ch ) &#45;&gt; ( ps &#45;&gt; ch ) )</text>
</g>
<!-- n4985&#45;&gt;n4986 -->
<g id="edge10" class="edge"><title>n4985&#45;&gt;n4986</title>
<path fill="none" stroke="lightgray" d="M52.8994,-23.1603C68.964,-26.5815 90.2794,-31.2926 109,-36 113.095,-37.0297 117.379,-38.1605 121.617,-39.3121"/>
<polygon fill="lightgray" stroke="lightgray" points="120.74,-42.701 131.312,-41.9995 122.61,-35.9554 120.74,-42.701"/>
<text text-anchor="middle" x="90.5" y="-39.8" font-family="Times New Roman,serif" font-size="14.00" fill="lightgray">wff ch</text>
</g>
</g>
</svg>
