<?xml version="1.0" encoding="UTF-8" standalone="no"?>
<!DOCTYPE svg PUBLIC "-//W3C//DTD SVG 1.1//EN"
 "http://www.w3.org/Graphics/SVG/1.1/DTD/svg11.dtd">
<!-- Generated by graphviz version 2.38.0 (20140413.2041)
 -->
<!-- Title: proof_im2anan9 Pages: 1 -->
<svg width="1082pt" height="740pt"
 viewBox="0.00 0.00 1082.07 740.00" xmlns="http://www.w3.org/2000/svg" xmlns:xlink="http://www.w3.org/1999/xlink">
<g id="graph0" class="graph" transform="scale(1 1) rotate(0) translate(4 736)">
<title>proof_im2anan9</title>
<polygon fill="white" stroke="none" points="-4,4 -4,-736 1078.07,-736 1078.07,4 -4,4"/>
<!-- n14279 -->
<g id="node1" class="node"><title>n14279</title>
<ellipse fill="none" stroke="lightgray" cx="170.546" cy="-714" rx="27" ry="18"/>
<text text-anchor="middle" x="170.546" y="-710.3" font-family="Times New Roman,serif" font-size="14.00" fill="lightgray">wph</text>
</g>
<!-- n14281 -->
<g id="node2" class="node"><title>n14281</title>
<ellipse fill="none" stroke="lightgray" cx="409.239" cy="-679" rx="27" ry="18"/>
<text text-anchor="middle" x="409.239" y="-675.3" font-family="Times New Roman,serif" font-size="14.00" fill="lightgray">wa</text>
</g>
<!-- n14279&#45;&gt;n14281 -->
<g id="edge1" class="edge"><title>n14279&#45;&gt;n14281</title>
<path fill="none" stroke="lightgray" d="M197.327,-710.188C239.745,-703.915 324.341,-691.406 372.507,-684.284"/>
<polygon fill="lightgray" stroke="lightgray" points="373.11,-687.733 382.49,-682.808 372.086,-680.808 373.11,-687.733"/>
<text text-anchor="middle" x="295.092" y="-707.8" font-family="Times New Roman,serif" font-size="14.00" fill="lightgray">wff ph</text>
</g>
<!-- n14280 -->
<g id="node3" class="node"><title>n14280</title>
<ellipse fill="none" stroke="lightgray" cx="170.546" cy="-642" rx="27" ry="18"/>
<text text-anchor="middle" x="170.546" y="-638.3" font-family="Times New Roman,serif" font-size="14.00" fill="lightgray">wth</text>
</g>
<!-- n14279&#45;&gt;n14280 -->
<g id="edge4" class="edge"><title>n14279&#45;&gt;n14280</title>
</g>
<!-- n14300 -->
<g id="node4" class="node"><title>n14300</title>
<ellipse fill="cyan" stroke="black" cx="687.983" cy="-463" rx="41.6928" ry="18"/>
<text text-anchor="middle" x="687.983" y="-459.3" font-family="Times New Roman,serif" font-size="14.00">anim12d</text>
</g>
<!-- n14281&#45;&gt;n14300 -->
<g id="edge3" class="edge"><title>n14281&#45;&gt;n14300</title>
<path fill="none" stroke="lightgray" d="M436.339,-679.393C481.286,-678.649 573.724,-670.688 628.386,-621 665.859,-586.937 679.447,-526.704 684.317,-491.263"/>
<polygon fill="lightgray" stroke="lightgray" points="687.818,-491.469 685.565,-481.116 680.87,-490.614 687.818,-491.469"/>
<text text-anchor="middle" x="544.386" y="-682.8" font-family="Times New Roman,serif" font-size="14.00" fill="lightgray">wff ( ph /\ th )</text>
</g>
<!-- n14282 -->
<g id="node5" class="node"><title>n14282</title>
<ellipse fill="none" stroke="lightgray" cx="409.239" cy="-607" rx="27" ry="18"/>
<text text-anchor="middle" x="409.239" y="-603.3" font-family="Times New Roman,serif" font-size="14.00" fill="lightgray">wps</text>
</g>
<!-- n14281&#45;&gt;n14282 -->
<g id="edge32" class="edge"><title>n14281&#45;&gt;n14282</title>
</g>
<!-- n14280&#45;&gt;n14281 -->
<g id="edge2" class="edge"><title>n14280&#45;&gt;n14281</title>
<path fill="none" stroke="lightgray" d="M197.326,-644.616C233.441,-648.471 301.072,-656.385 358.092,-667 363.241,-667.958 368.655,-669.105 373.944,-670.305"/>
<polygon fill="lightgray" stroke="lightgray" points="373.324,-673.754 383.86,-672.64 374.929,-666.941 373.324,-673.754"/>
<text text-anchor="middle" x="295.092" y="-670.8" font-family="Times New Roman,serif" font-size="14.00" fill="lightgray">wff th</text>
</g>
<!-- QED -->
<g id="node23" class="node"><title>QED</title>
</g>
<!-- n14300&#45;&gt;QED -->
<g id="edge31" class="edge"><title>n14300&#45;&gt;QED</title>
<path fill="none" stroke="black" d="M729.688,-463C798.634,-463 937.472,-463 1005.07,-463"/>
<polygon fill="black" stroke="black" points="1005.29,-466.5 1015.29,-463 1005.29,-459.5 1005.29,-466.5"/>
<text text-anchor="middle" x="872.579" y="-466.8" font-family="Times New Roman,serif" font-size="14.00">|&#45; ( ( ph /\ th ) &#45;&gt; ( ( ps /\ ta ) &#45;&gt; ( ch /\ et ) ) )</text>
</g>
<!-- n14282&#45;&gt;n14300 -->
<g id="edge5" class="edge"><title>n14282&#45;&gt;n14300</title>
<path fill="none" stroke="lightgray" d="M436.074,-604.799C479.421,-600.007 567.975,-585.402 628.386,-543 647.766,-529.397 663.235,-507.321 673.402,-489.801"/>
<polygon fill="lightgray" stroke="lightgray" points="676.705,-491.062 678.496,-480.62 670.584,-487.666 676.705,-491.062"/>
<text text-anchor="middle" x="544.386" y="-605.8" font-family="Times New Roman,serif" font-size="14.00" fill="lightgray">wff ps</text>
</g>
<!-- n14283 -->
<g id="node6" class="node"><title>n14283</title>
<ellipse fill="none" stroke="lightgray" cx="409.239" cy="-535" rx="27" ry="18"/>
<text text-anchor="middle" x="409.239" y="-531.3" font-family="Times New Roman,serif" font-size="14.00" fill="lightgray">wch</text>
</g>
<!-- n14282&#45;&gt;n14283 -->
<g id="edge33" class="edge"><title>n14282&#45;&gt;n14283</title>
</g>
<!-- n14283&#45;&gt;n14300 -->
<g id="edge6" class="edge"><title>n14283&#45;&gt;n14300</title>
<path fill="none" stroke="lightgray" d="M435.262,-529.564C475.982,-520.575 559.011,-501.645 628.386,-482 633.724,-480.488 639.305,-478.809 644.811,-477.093"/>
<polygon fill="lightgray" stroke="lightgray" points="646.102,-480.355 654.572,-473.99 643.981,-473.684 646.102,-480.355"/>
<text text-anchor="middle" x="544.386" y="-527.8" font-family="Times New Roman,serif" font-size="14.00" fill="lightgray">wff ch</text>
</g>
<!-- n14284 -->
<g id="node7" class="node"><title>n14284</title>
<ellipse fill="none" stroke="lightgray" cx="409.239" cy="-463" rx="27" ry="18"/>
<text text-anchor="middle" x="409.239" y="-459.3" font-family="Times New Roman,serif" font-size="14.00" fill="lightgray">wta</text>
</g>
<!-- n14283&#45;&gt;n14284 -->
<g id="edge34" class="edge"><title>n14283&#45;&gt;n14284</title>
</g>
<!-- n14284&#45;&gt;n14300 -->
<g id="edge7" class="edge"><title>n14284&#45;&gt;n14300</title>
<path fill="none" stroke="lightgray" d="M436.275,-463C481.843,-463 576.82,-463 635.904,-463"/>
<polygon fill="lightgray" stroke="lightgray" points="636.14,-466.5 646.14,-463 636.14,-459.5 636.14,-466.5"/>
<text text-anchor="middle" x="544.386" y="-466.8" font-family="Times New Roman,serif" font-size="14.00" fill="lightgray">wff ta</text>
</g>
<!-- n14285 -->
<g id="node8" class="node"><title>n14285</title>
<ellipse fill="none" stroke="lightgray" cx="409.239" cy="-391" rx="27" ry="18"/>
<text text-anchor="middle" x="409.239" y="-387.3" font-family="Times New Roman,serif" font-size="14.00" fill="lightgray">wet</text>
</g>
<!-- n14284&#45;&gt;n14285 -->
<g id="edge35" class="edge"><title>n14284&#45;&gt;n14285</title>
</g>
<!-- n14285&#45;&gt;n14300 -->
<g id="edge8" class="edge"><title>n14285&#45;&gt;n14300</title>
<path fill="none" stroke="lightgray" d="M435.262,-396.436C475.982,-405.425 559.011,-424.355 628.386,-444 633.724,-445.512 639.305,-447.191 644.811,-448.907"/>
<polygon fill="lightgray" stroke="lightgray" points="643.981,-452.316 654.572,-452.01 646.102,-445.645 643.981,-452.316"/>
<text text-anchor="middle" x="544.386" y="-447.8" font-family="Times New Roman,serif" font-size="14.00" fill="lightgray">wff et</text>
</g>
<!-- n14292 -->
<g id="node10" class="node"><title>n14292</title>
<ellipse fill="cyan" stroke="black" cx="409.239" cy="-319" rx="33.2948" ry="18"/>
<text text-anchor="middle" x="409.239" y="-315.3" font-family="Times New Roman,serif" font-size="14.00">adantr</text>
</g>
<!-- n14285&#45;&gt;n14292 -->
<g id="edge36" class="edge"><title>n14285&#45;&gt;n14292</title>
</g>
<!-- n14286 -->
<g id="node9" class="node"><title>n14286</title>
<ellipse fill="none" stroke="lightgray" cx="170.546" cy="-504" rx="27" ry="18"/>
<text text-anchor="middle" x="170.546" y="-500.3" font-family="Times New Roman,serif" font-size="14.00" fill="lightgray">wph</text>
</g>
<!-- n14286&#45;&gt;n14292 -->
<g id="edge9" class="edge"><title>n14286&#45;&gt;n14292</title>
<path fill="none" stroke="lightgray" d="M197.459,-502.405C237.887,-498.48 315.719,-484.906 358.092,-438 380.782,-412.883 361.999,-394.774 376.092,-364 379.335,-356.918 383.751,-349.806 388.271,-343.393"/>
<polygon fill="lightgray" stroke="lightgray" points="391.241,-345.265 394.398,-335.152 385.623,-341.089 391.241,-345.265"/>
<text text-anchor="middle" x="295.092" y="-501.8" font-family="Times New Roman,serif" font-size="14.00" fill="lightgray">wff ph</text>
</g>
<!-- n14289 -->
<g id="node12" class="node"><title>n14289</title>
<ellipse fill="none" stroke="lightgray" cx="170.546" cy="-432" rx="27" ry="18"/>
<text text-anchor="middle" x="170.546" y="-428.3" font-family="Times New Roman,serif" font-size="14.00" fill="lightgray">wi</text>
</g>
<!-- n14286&#45;&gt;n14289 -->
<g id="edge17" class="edge"><title>n14286&#45;&gt;n14289</title>
</g>
<!-- n14292&#45;&gt;n14300 -->
<g id="edge16" class="edge"><title>n14292&#45;&gt;n14300</title>
<path fill="none" stroke="black" d="M442.228,-322.137C487.348,-327.893 570.613,-343.526 628.386,-384 647.503,-397.392 662.911,-419.005 673.12,-436.242"/>
<polygon fill="black" stroke="black" points="670.272,-438.315 678.248,-445.288 676.361,-434.863 670.272,-438.315"/>
<text text-anchor="middle" x="544.386" y="-387.8" font-family="Times New Roman,serif" font-size="14.00">|&#45; ( ( ph /\ th ) &#45;&gt; ( ps &#45;&gt; ch ) )</text>
</g>
<!-- n14299 -->
<g id="node17" class="node"><title>n14299</title>
<ellipse fill="cyan" stroke="black" cx="409.239" cy="-190" rx="32.4942" ry="18"/>
<text text-anchor="middle" x="409.239" y="-186.3" font-family="Times New Roman,serif" font-size="14.00">adantl</text>
</g>
<!-- n14292&#45;&gt;n14299 -->
<g id="edge37" class="edge"><title>n14292&#45;&gt;n14299</title>
</g>
<!-- n14287 -->
<g id="node11" class="node"><title>n14287</title>
<ellipse fill="none" stroke="lightgray" cx="27" cy="-476" rx="27" ry="18"/>
<text text-anchor="middle" x="27" y="-472.3" font-family="Times New Roman,serif" font-size="14.00" fill="lightgray">wps</text>
</g>
<!-- n14287&#45;&gt;n14289 -->
<g id="edge10" class="edge"><title>n14287&#45;&gt;n14289</title>
<path fill="none" stroke="lightgray" d="M51.6916,-468.635C74.7583,-461.465 110.037,-450.499 135.987,-442.432"/>
<polygon fill="lightgray" stroke="lightgray" points="137.267,-445.699 145.777,-439.389 135.189,-439.015 137.267,-445.699"/>
<text text-anchor="middle" x="90.5" y="-465.8" font-family="Times New Roman,serif" font-size="14.00" fill="lightgray">wff ps</text>
</g>
<!-- n14288 -->
<g id="node13" class="node"><title>n14288</title>
<ellipse fill="none" stroke="lightgray" cx="27" cy="-404" rx="27" ry="18"/>
<text text-anchor="middle" x="27" y="-400.3" font-family="Times New Roman,serif" font-size="14.00" fill="lightgray">wch</text>
</g>
<!-- n14287&#45;&gt;n14288 -->
<g id="edge13" class="edge"><title>n14287&#45;&gt;n14288</title>
</g>
<!-- n14289&#45;&gt;n14292 -->
<g id="edge12" class="edge"><title>n14289&#45;&gt;n14292</title>
<path fill="none" stroke="lightgray" d="M196.657,-427.339C234.024,-419.591 305.501,-401.593 358.092,-369 369.359,-362.018 380.03,-352.048 388.609,-342.846"/>
<polygon fill="lightgray" stroke="lightgray" points="391.23,-345.166 395.29,-335.38 386.013,-340.498 391.23,-345.166"/>
<text text-anchor="middle" x="295.092" y="-422.8" font-family="Times New Roman,serif" font-size="14.00" fill="lightgray">wff ( ps &#45;&gt; ch )</text>
</g>
<!-- n14290 -->
<g id="node14" class="node"><title>n14290</title>
<ellipse fill="none" stroke="lightgray" cx="170.546" cy="-360" rx="27" ry="18"/>
<text text-anchor="middle" x="170.546" y="-356.3" font-family="Times New Roman,serif" font-size="14.00" fill="lightgray">wth</text>
</g>
<!-- n14289&#45;&gt;n14290 -->
<g id="edge18" class="edge"><title>n14289&#45;&gt;n14290</title>
</g>
<!-- n14288&#45;&gt;n14289 -->
<g id="edge11" class="edge"><title>n14288&#45;&gt;n14289</title>
<path fill="none" stroke="lightgray" d="M52.9798,-408.941C75.5803,-413.412 109.099,-420.043 134.4,-425.048"/>
<polygon fill="lightgray" stroke="lightgray" points="133.851,-428.507 144.34,-427.014 135.209,-421.64 133.851,-428.507"/>
<text text-anchor="middle" x="90.5" y="-423.8" font-family="Times New Roman,serif" font-size="14.00" fill="lightgray">wff ch</text>
</g>
<!-- n14290&#45;&gt;n14292 -->
<g id="edge14" class="edge"><title>n14290&#45;&gt;n14292</title>
<path fill="none" stroke="lightgray" d="M196.876,-355.612C237.738,-348.534 318.564,-334.534 367.568,-326.045"/>
<polygon fill="lightgray" stroke="lightgray" points="368.26,-329.477 377.516,-324.322 367.065,-322.58 368.26,-329.477"/>
<text text-anchor="middle" x="295.092" y="-353.8" font-family="Times New Roman,serif" font-size="14.00" fill="lightgray">wff th</text>
</g>
<!-- n14291 -->
<g id="node15" class="node"><title>n14291</title>
<ellipse fill="orange" stroke="black" cx="170.546" cy="-288" rx="43.5923" ry="18"/>
<text text-anchor="middle" x="170.546" y="-284.3" font-family="Times New Roman,serif" font-size="14.00">im2an9.1</text>
</g>
<!-- n14290&#45;&gt;n14291 -->
<g id="edge19" class="edge"><title>n14290&#45;&gt;n14291</title>
</g>
<!-- n14291&#45;&gt;n14292 -->
<g id="edge15" class="edge"><title>n14291&#45;&gt;n14292</title>
<path fill="none" stroke="black" d="M213.582,-291.188C251.506,-294.377 308.744,-299.967 358.092,-308 361.54,-308.561 365.107,-309.208 368.676,-309.902"/>
<polygon fill="black" stroke="black" points="368.144,-313.366 378.643,-311.947 369.551,-306.508 368.144,-313.366"/>
<text text-anchor="middle" x="295.092" y="-311.8" font-family="Times New Roman,serif" font-size="14.00">|&#45; ( ph &#45;&gt; ( ps &#45;&gt; ch ) )</text>
</g>
<!-- n14293 -->
<g id="node16" class="node"><title>n14293</title>
<ellipse fill="none" stroke="lightgray" cx="170.546" cy="-234" rx="27" ry="18"/>
<text text-anchor="middle" x="170.546" y="-230.3" font-family="Times New Roman,serif" font-size="14.00" fill="lightgray">wth</text>
</g>
<!-- n14293&#45;&gt;n14299 -->
<g id="edge20" class="edge"><title>n14293&#45;&gt;n14299</title>
<path fill="none" stroke="lightgray" d="M197.331,-230.456C233.451,-225.324 301.088,-215.1 358.092,-203 361.941,-202.183 365.939,-201.266 369.923,-200.306"/>
<polygon fill="lightgray" stroke="lightgray" points="370.847,-203.683 379.703,-197.866 369.153,-196.891 370.847,-203.683"/>
<text text-anchor="middle" x="295.092" y="-229.8" font-family="Times New Roman,serif" font-size="14.00" fill="lightgray">wff th</text>
</g>
<!-- n14296 -->
<g id="node19" class="node"><title>n14296</title>
<ellipse fill="none" stroke="lightgray" cx="170.546" cy="-162" rx="27" ry="18"/>
<text text-anchor="middle" x="170.546" y="-158.3" font-family="Times New Roman,serif" font-size="14.00" fill="lightgray">wi</text>
</g>
<!-- n14293&#45;&gt;n14296 -->
<g id="edge28" class="edge"><title>n14293&#45;&gt;n14296</title>
</g>
<!-- n14299&#45;&gt;n14300 -->
<g id="edge27" class="edge"><title>n14299&#45;&gt;n14300</title>
<path fill="none" stroke="black" d="M438.443,-197.967C484.439,-212.34 575.744,-246.847 628.386,-307 660.88,-344.129 676.085,-401.022 682.616,-434.867"/>
<polygon fill="black" stroke="black" points="679.222,-435.772 684.442,-444.992 686.111,-434.53 679.222,-435.772"/>
<text text-anchor="middle" x="544.386" y="-310.8" font-family="Times New Roman,serif" font-size="14.00">|&#45; ( ( ph /\ th ) &#45;&gt; ( ta &#45;&gt; et ) )</text>
</g>
<!-- n14294 -->
<g id="node18" class="node"><title>n14294</title>
<ellipse fill="none" stroke="lightgray" cx="27" cy="-190" rx="27" ry="18"/>
<text text-anchor="middle" x="27" y="-186.3" font-family="Times New Roman,serif" font-size="14.00" fill="lightgray">wta</text>
</g>
<!-- n14294&#45;&gt;n14296 -->
<g id="edge21" class="edge"><title>n14294&#45;&gt;n14296</title>
<path fill="none" stroke="lightgray" d="M52.9798,-185.059C75.5803,-180.588 109.099,-173.957 134.4,-168.952"/>
<polygon fill="lightgray" stroke="lightgray" points="135.209,-172.36 144.34,-166.986 133.851,-165.493 135.209,-172.36"/>
<text text-anchor="middle" x="90.5" y="-184.8" font-family="Times New Roman,serif" font-size="14.00" fill="lightgray">wff ta</text>
</g>
<!-- n14295 -->
<g id="node20" class="node"><title>n14295</title>
<ellipse fill="none" stroke="lightgray" cx="27" cy="-118" rx="27" ry="18"/>
<text text-anchor="middle" x="27" y="-114.3" font-family="Times New Roman,serif" font-size="14.00" fill="lightgray">wet</text>
</g>
<!-- n14294&#45;&gt;n14295 -->
<g id="edge24" class="edge"><title>n14294&#45;&gt;n14295</title>
</g>
<!-- n14296&#45;&gt;n14299 -->
<g id="edge23" class="edge"><title>n14296&#45;&gt;n14299</title>
<path fill="none" stroke="lightgray" d="M197.327,-165.05C238.182,-169.883 318.165,-179.345 367.039,-185.126"/>
<polygon fill="lightgray" stroke="lightgray" points="366.925,-188.637 377.267,-186.336 367.748,-181.685 366.925,-188.637"/>
<text text-anchor="middle" x="295.092" y="-187.8" font-family="Times New Roman,serif" font-size="14.00" fill="lightgray">wff ( ta &#45;&gt; et )</text>
</g>
<!-- n14297 -->
<g id="node21" class="node"><title>n14297</title>
<ellipse fill="none" stroke="lightgray" cx="170.546" cy="-90" rx="27" ry="18"/>
<text text-anchor="middle" x="170.546" y="-86.3" font-family="Times New Roman,serif" font-size="14.00" fill="lightgray">wph</text>
</g>
<!-- n14296&#45;&gt;n14297 -->
<g id="edge29" class="edge"><title>n14296&#45;&gt;n14297</title>
</g>
<!-- n14295&#45;&gt;n14296 -->
<g id="edge22" class="edge"><title>n14295&#45;&gt;n14296</title>
<path fill="none" stroke="lightgray" d="M51.6916,-125.365C74.7583,-132.535 110.037,-143.501 135.987,-151.568"/>
<polygon fill="lightgray" stroke="lightgray" points="135.189,-154.985 145.777,-154.611 137.267,-148.301 135.189,-154.985"/>
<text text-anchor="middle" x="90.5" y="-146.8" font-family="Times New Roman,serif" font-size="14.00" fill="lightgray">wff et</text>
</g>
<!-- n14297&#45;&gt;n14299 -->
<g id="edge25" class="edge"><title>n14297&#45;&gt;n14299</title>
<path fill="none" stroke="lightgray" d="M196.481,-95.2557C233.32,-103.649 303.783,-122.135 358.092,-151 366.961,-155.714 375.865,-162.008 383.658,-168.163"/>
<polygon fill="lightgray" stroke="lightgray" points="381.674,-171.063 391.623,-174.706 386.117,-165.654 381.674,-171.063"/>
<text text-anchor="middle" x="295.092" y="-154.8" font-family="Times New Roman,serif" font-size="14.00" fill="lightgray">wff ph</text>
</g>
<!-- n14298 -->
<g id="node22" class="node"><title>n14298</title>
<ellipse fill="orange" stroke="black" cx="170.546" cy="-18" rx="43.5923" ry="18"/>
<text text-anchor="middle" x="170.546" y="-14.3" font-family="Times New Roman,serif" font-size="14.00">im2an9.2</text>
</g>
<!-- n14297&#45;&gt;n14298 -->
<g id="edge30" class="edge"><title>n14297&#45;&gt;n14298</title>
</g>
<!-- n14298&#45;&gt;n14299 -->
<g id="edge26" class="edge"><title>n14298&#45;&gt;n14299</title>
<path fill="none" stroke="black" d="M211.76,-23.8874C252.942,-31.7902 316.631,-49.4461 358.092,-87 380.335,-107.147 393.779,-139.327 401.069,-162.356"/>
<polygon fill="black" stroke="black" points="397.795,-163.626 403.995,-172.217 404.506,-161.635 397.795,-163.626"/>
<text text-anchor="middle" x="295.092" y="-90.8" font-family="Times New Roman,serif" font-size="14.00">|&#45; ( th &#45;&gt; ( ta &#45;&gt; et ) )</text>
</g>
</g>
</svg>
