<?xml version="1.0" encoding="UTF-8" standalone="no"?>
<!DOCTYPE svg PUBLIC "-//W3C//DTD SVG 1.1//EN"
 "http://www.w3.org/Graphics/SVG/1.1/DTD/svg11.dtd">
<!-- Generated by graphviz version 2.38.0 (20140413.2041)
 -->
<!-- Title: proof_iman Pages: 1 -->
<svg width="1159pt" height="692pt"
 viewBox="0.00 0.00 1159.38 692.00" xmlns="http://www.w3.org/2000/svg" xmlns:xlink="http://www.w3.org/1999/xlink">
<g id="graph0" class="graph" transform="scale(1 1) rotate(0) translate(4 688)">
<title>proof_iman</title>
<polygon fill="white" stroke="none" points="-4,4 -4,-688 1155.38,-688 1155.38,4 -4,4"/>
<!-- n7705 -->
<g id="node1" class="node"><title>n7705</title>
<ellipse fill="none" stroke="lightgray" cx="300.447" cy="-666" rx="27" ry="18"/>
<text text-anchor="middle" x="300.447" y="-662.3" font-family="Times New Roman,serif" font-size="14.00" fill="lightgray">wph</text>
</g>
<!-- n7707 -->
<g id="node2" class="node"><title>n7707</title>
<ellipse fill="none" stroke="lightgray" cx="510.391" cy="-563" rx="27" ry="18"/>
<text text-anchor="middle" x="510.391" y="-559.3" font-family="Times New Roman,serif" font-size="14.00" fill="lightgray">wi</text>
</g>
<!-- n7705&#45;&gt;n7707 -->
<g id="edge1" class="edge"><title>n7705&#45;&gt;n7707</title>
<path fill="none" stroke="lightgray" d="M325.673,-659.45C357.78,-650.164 415.533,-631.325 459.894,-605 469.344,-599.392 478.775,-591.964 486.831,-584.915"/>
<polygon fill="lightgray" stroke="lightgray" points="489.32,-587.383 494.379,-578.074 484.619,-582.196 489.32,-587.383"/>
<text text-anchor="middle" x="406.394" y="-652.8" font-family="Times New Roman,serif" font-size="14.00" fill="lightgray">wff ph</text>
</g>
<!-- n7706 -->
<g id="node3" class="node"><title>n7706</title>
<ellipse fill="none" stroke="lightgray" cx="300.447" cy="-594" rx="27" ry="18"/>
<text text-anchor="middle" x="300.447" y="-590.3" font-family="Times New Roman,serif" font-size="14.00" fill="lightgray">wps</text>
</g>
<!-- n7705&#45;&gt;n7706 -->
<g id="edge4" class="edge"><title>n7705&#45;&gt;n7706</title>
</g>
<!-- n7730 -->
<g id="node4" class="node"><title>n7730</title>
<ellipse fill="cyan" stroke="black" cx="829.888" cy="-402" rx="27" ry="18"/>
<text text-anchor="middle" x="829.888" y="-398.3" font-family="Times New Roman,serif" font-size="14.00">bitri</text>
</g>
<!-- n7707&#45;&gt;n7730 -->
<g id="edge3" class="edge"><title>n7707&#45;&gt;n7730</title>
<path fill="none" stroke="lightgray" d="M537.465,-562.449C590.037,-560.031 710.1,-547.737 784.888,-487 803.038,-472.26 814.529,-448.044 821.198,-429.222"/>
<polygon fill="lightgray" stroke="lightgray" points="824.536,-430.275 824.337,-419.682 817.886,-428.087 824.536,-430.275"/>
<text text-anchor="middle" x="672.888" y="-564.8" font-family="Times New Roman,serif" font-size="14.00" fill="lightgray">wff ( ph &#45;&gt; ps )</text>
</g>
<!-- n7712 -->
<g id="node6" class="node"><title>n7712</title>
<ellipse fill="none" stroke="lightgray" cx="510.391" cy="-474" rx="27" ry="18"/>
<text text-anchor="middle" x="510.391" y="-470.3" font-family="Times New Roman,serif" font-size="14.00" fill="lightgray">wi</text>
</g>
<!-- n7707&#45;&gt;n7712 -->
<g id="edge34" class="edge"><title>n7707&#45;&gt;n7712</title>
</g>
<!-- n7706&#45;&gt;n7707 -->
<g id="edge2" class="edge"><title>n7706&#45;&gt;n7707</title>
<path fill="none" stroke="lightgray" d="M326.945,-590.199C363.737,-584.714 431.873,-574.556 473.663,-568.326"/>
<polygon fill="lightgray" stroke="lightgray" points="474.31,-571.769 483.684,-566.832 473.278,-564.845 474.31,-571.769"/>
<text text-anchor="middle" x="406.394" y="-589.8" font-family="Times New Roman,serif" font-size="14.00" fill="lightgray">wff ps</text>
</g>
<!-- QED -->
<g id="node27" class="node"><title>QED</title>
</g>
<!-- n7730&#45;&gt;QED -->
<g id="edge33" class="edge"><title>n7730&#45;&gt;QED</title>
<path fill="none" stroke="black" d="M856.901,-402C908.093,-402 1022.15,-402 1082.3,-402"/>
<polygon fill="black" stroke="black" points="1082.52,-405.5 1092.52,-402 1082.52,-398.5 1082.52,-405.5"/>
<text text-anchor="middle" x="974.888" y="-405.8" font-family="Times New Roman,serif" font-size="14.00">|&#45; ( ( ph &#45;&gt; ps ) &lt;&#45;&gt; &#45;. ( ph / &#45;. ps ) )</text>
</g>
<!-- n7708 -->
<g id="node5" class="node"><title>n7708</title>
<ellipse fill="none" stroke="lightgray" cx="300.447" cy="-540" rx="27" ry="18"/>
<text text-anchor="middle" x="300.447" y="-536.3" font-family="Times New Roman,serif" font-size="14.00" fill="lightgray">wph</text>
</g>
<!-- n7708&#45;&gt;n7712 -->
<g id="edge5" class="edge"><title>n7708&#45;&gt;n7712</title>
<path fill="none" stroke="lightgray" d="M325.466,-533.167C356.62,-524.203 412.58,-507.757 459.894,-492 465.316,-490.194 471.041,-488.197 476.597,-486.21"/>
<polygon fill="lightgray" stroke="lightgray" points="478.107,-489.386 486.316,-482.688 475.722,-482.805 478.107,-489.386"/>
<text text-anchor="middle" x="406.394" y="-528.8" font-family="Times New Roman,serif" font-size="14.00" fill="lightgray">wff ph</text>
</g>
<!-- n7711 -->
<g id="node9" class="node"><title>n7711</title>
<ellipse fill="none" stroke="lightgray" cx="300.447" cy="-468" rx="27" ry="18"/>
<text text-anchor="middle" x="300.447" y="-464.3" font-family="Times New Roman,serif" font-size="14.00" fill="lightgray">wn</text>
</g>
<!-- n7708&#45;&gt;n7711 -->
<g id="edge10" class="edge"><title>n7708&#45;&gt;n7711</title>
</g>
<!-- n7712&#45;&gt;n7730 -->
<g id="edge9" class="edge"><title>n7712&#45;&gt;n7730</title>
<path fill="none" stroke="lightgray" d="M537.105,-470.906C586.112,-464.596 695.93,-448.472 784.888,-421 789.209,-419.666 793.677,-418.042 798.037,-416.311"/>
<polygon fill="lightgray" stroke="lightgray" points="799.439,-419.519 807.307,-412.424 796.731,-413.064 799.439,-419.519"/>
<text text-anchor="middle" x="672.888" y="-471.8" font-family="Times New Roman,serif" font-size="14.00" fill="lightgray">wff ( ph &#45;&gt; &#45;. &#45;. ps )</text>
</g>
<!-- n7717 -->
<g id="node14" class="node"><title>n7717</title>
<ellipse fill="none" stroke="lightgray" cx="510.391" cy="-402" rx="27" ry="18"/>
<text text-anchor="middle" x="510.391" y="-398.3" font-family="Times New Roman,serif" font-size="14.00" fill="lightgray">wn</text>
</g>
<!-- n7712&#45;&gt;n7717 -->
<g id="edge35" class="edge"><title>n7712&#45;&gt;n7717</title>
</g>
<!-- n7709 -->
<g id="node7" class="node"><title>n7709</title>
<ellipse fill="none" stroke="lightgray" cx="27" cy="-468" rx="27" ry="18"/>
<text text-anchor="middle" x="27" y="-464.3" font-family="Times New Roman,serif" font-size="14.00" fill="lightgray">wps</text>
</g>
<!-- n7710 -->
<g id="node8" class="node"><title>n7710</title>
<ellipse fill="none" stroke="lightgray" cx="154" cy="-468" rx="27" ry="18"/>
<text text-anchor="middle" x="154" y="-464.3" font-family="Times New Roman,serif" font-size="14.00" fill="lightgray">wn</text>
</g>
<!-- n7709&#45;&gt;n7710 -->
<g id="edge6" class="edge"><title>n7709&#45;&gt;n7710</title>
<path fill="none" stroke="lightgray" d="M54.2041,-468C72.3711,-468 96.7994,-468 116.82,-468"/>
<polygon fill="lightgray" stroke="lightgray" points="116.83,-471.5 126.83,-468 116.83,-464.5 116.83,-471.5"/>
<text text-anchor="middle" x="90.5" y="-471.8" font-family="Times New Roman,serif" font-size="14.00" fill="lightgray">wff ps</text>
</g>
<!-- n7710&#45;&gt;n7711 -->
<g id="edge7" class="edge"><title>n7710&#45;&gt;n7711</title>
<path fill="none" stroke="lightgray" d="M181.158,-468C204.024,-468 237.462,-468 262.958,-468"/>
<polygon fill="lightgray" stroke="lightgray" points="262.995,-471.5 272.995,-468 262.995,-464.5 262.995,-471.5"/>
<text text-anchor="middle" x="223.5" y="-471.8" font-family="Times New Roman,serif" font-size="14.00" fill="lightgray">wff &#45;. ps</text>
</g>
<!-- n7711&#45;&gt;n7712 -->
<g id="edge8" class="edge"><title>n7711&#45;&gt;n7712</title>
<path fill="none" stroke="lightgray" d="M327.783,-468.76C364.579,-469.822 431.515,-471.753 473.039,-472.951"/>
<polygon fill="lightgray" stroke="lightgray" points="473.172,-476.456 483.269,-473.246 473.374,-469.459 473.172,-476.456"/>
<text text-anchor="middle" x="406.394" y="-476.8" font-family="Times New Roman,serif" font-size="14.00" fill="lightgray">wff &#45;. &#45;. ps</text>
</g>
<!-- n7713 -->
<g id="node10" class="node"><title>n7713</title>
<ellipse fill="none" stroke="lightgray" cx="154" cy="-414" rx="27" ry="18"/>
<text text-anchor="middle" x="154" y="-410.3" font-family="Times New Roman,serif" font-size="14.00" fill="lightgray">wph</text>
</g>
<!-- n7716 -->
<g id="node11" class="node"><title>n7716</title>
<ellipse fill="none" stroke="lightgray" cx="300.447" cy="-414" rx="27" ry="18"/>
<text text-anchor="middle" x="300.447" y="-410.3" font-family="Times New Roman,serif" font-size="14.00" fill="lightgray">wa</text>
</g>
<!-- n7713&#45;&gt;n7716 -->
<g id="edge11" class="edge"><title>n7713&#45;&gt;n7716</title>
<path fill="none" stroke="lightgray" d="M181.158,-414C204.024,-414 237.462,-414 262.958,-414"/>
<polygon fill="lightgray" stroke="lightgray" points="262.995,-417.5 272.995,-414 262.995,-410.5 262.995,-417.5"/>
<text text-anchor="middle" x="223.5" y="-417.8" font-family="Times New Roman,serif" font-size="14.00" fill="lightgray">wff ph</text>
</g>
<!-- n7715 -->
<g id="node13" class="node"><title>n7715</title>
<ellipse fill="none" stroke="lightgray" cx="154" cy="-342" rx="27" ry="18"/>
<text text-anchor="middle" x="154" y="-338.3" font-family="Times New Roman,serif" font-size="14.00" fill="lightgray">wn</text>
</g>
<!-- n7713&#45;&gt;n7715 -->
<g id="edge15" class="edge"><title>n7713&#45;&gt;n7715</title>
</g>
<!-- n7716&#45;&gt;n7717 -->
<g id="edge14" class="edge"><title>n7716&#45;&gt;n7717</title>
<path fill="none" stroke="lightgray" d="M327.363,-412.504C364.198,-410.379 431.835,-406.476 473.482,-404.072"/>
<polygon fill="lightgray" stroke="lightgray" points="473.694,-407.566 483.476,-403.495 473.291,-400.578 473.694,-407.566"/>
<text text-anchor="middle" x="406.394" y="-414.8" font-family="Times New Roman,serif" font-size="14.00" fill="lightgray">wff ( ph / &#45;. ps )</text>
</g>
<!-- n7714 -->
<g id="node12" class="node"><title>n7714</title>
<ellipse fill="none" stroke="lightgray" cx="27" cy="-342" rx="27" ry="18"/>
<text text-anchor="middle" x="27" y="-338.3" font-family="Times New Roman,serif" font-size="14.00" fill="lightgray">wps</text>
</g>
<!-- n7714&#45;&gt;n7715 -->
<g id="edge12" class="edge"><title>n7714&#45;&gt;n7715</title>
<path fill="none" stroke="lightgray" d="M54.2041,-342C72.3711,-342 96.7994,-342 116.82,-342"/>
<polygon fill="lightgray" stroke="lightgray" points="116.83,-345.5 126.83,-342 116.83,-338.5 116.83,-345.5"/>
<text text-anchor="middle" x="90.5" y="-345.8" font-family="Times New Roman,serif" font-size="14.00" fill="lightgray">wff ps</text>
</g>
<!-- n7715&#45;&gt;n7716 -->
<g id="edge13" class="edge"><title>n7715&#45;&gt;n7716</title>
<path fill="none" stroke="lightgray" d="M176.004,-352.469C200.502,-364.68 241.198,-384.965 269.121,-398.884"/>
<polygon fill="lightgray" stroke="lightgray" points="267.907,-402.189 278.418,-403.518 271.029,-395.924 267.907,-402.189"/>
<text text-anchor="middle" x="223.5" y="-390.8" font-family="Times New Roman,serif" font-size="14.00" fill="lightgray">wff &#45;. ps</text>
</g>
<!-- n7717&#45;&gt;n7730 -->
<g id="edge16" class="edge"><title>n7717&#45;&gt;n7730</title>
<path fill="none" stroke="lightgray" d="M537.643,-402C594.219,-402 727.745,-402 792.462,-402"/>
<polygon fill="lightgray" stroke="lightgray" points="792.605,-405.5 802.605,-402 792.605,-398.5 792.605,-405.5"/>
<text text-anchor="middle" x="672.888" y="-405.8" font-family="Times New Roman,serif" font-size="14.00" fill="lightgray">wff &#45;. ( ph / &#45;. ps )</text>
</g>
<!-- n7725 -->
<g id="node16" class="node"><title>n7725</title>
<ellipse fill="cyan" stroke="black" cx="510.391" cy="-288" rx="32.4942" ry="18"/>
<text text-anchor="middle" x="510.391" y="-284.3" font-family="Times New Roman,serif" font-size="14.00">imbi2i</text>
</g>
<!-- n7717&#45;&gt;n7725 -->
<g id="edge36" class="edge"><title>n7717&#45;&gt;n7725</title>
</g>
<!-- n7718 -->
<g id="node15" class="node"><title>n7718</title>
<ellipse fill="none" stroke="lightgray" cx="300.447" cy="-360" rx="27" ry="18"/>
<text text-anchor="middle" x="300.447" y="-356.3" font-family="Times New Roman,serif" font-size="14.00" fill="lightgray">wps</text>
</g>
<!-- n7718&#45;&gt;n7725 -->
<g id="edge17" class="edge"><title>n7718&#45;&gt;n7725</title>
<path fill="none" stroke="lightgray" d="M325.181,-352.419C356.264,-342.409 412.391,-324.053 459.894,-307 464.472,-305.357 469.269,-303.582 474,-301.801"/>
<polygon fill="lightgray" stroke="lightgray" points="475.425,-305.003 483.525,-298.174 472.934,-298.461 475.425,-305.003"/>
<text text-anchor="middle" x="406.394" y="-346.8" font-family="Times New Roman,serif" font-size="14.00" fill="lightgray">wff ps</text>
</g>
<!-- n7721 -->
<g id="node19" class="node"><title>n7721</title>
<ellipse fill="none" stroke="lightgray" cx="300.447" cy="-288" rx="27" ry="18"/>
<text text-anchor="middle" x="300.447" y="-284.3" font-family="Times New Roman,serif" font-size="14.00" fill="lightgray">wn</text>
</g>
<!-- n7718&#45;&gt;n7721 -->
<g id="edge25" class="edge"><title>n7718&#45;&gt;n7721</title>
</g>
<!-- n7725&#45;&gt;n7730 -->
<g id="edge24" class="edge"><title>n7725&#45;&gt;n7730</title>
<path fill="none" stroke="black" d="M538.805,-296.784C588.34,-312.818 695.881,-348.378 784.888,-383 789.102,-384.639 793.51,-386.439 797.839,-388.257"/>
<polygon fill="black" stroke="black" points="796.515,-391.497 807.086,-392.21 799.267,-385.06 796.515,-391.497"/>
<text text-anchor="middle" x="672.888" y="-386.8" font-family="Times New Roman,serif" font-size="14.00">|&#45; ( ( ph &#45;&gt; ps ) &lt;&#45;&gt; ( ph &#45;&gt; &#45;. &#45;. ps ) )</text>
</g>
<!-- n7729 -->
<g id="node24" class="node"><title>n7729</title>
<ellipse fill="cyan" stroke="black" cx="510.391" cy="-153" rx="32.4942" ry="18"/>
<text text-anchor="middle" x="510.391" y="-149.3" font-family="Times New Roman,serif" font-size="14.00">imnan</text>
</g>
<!-- n7725&#45;&gt;n7729 -->
<g id="edge37" class="edge"><title>n7725&#45;&gt;n7729</title>
</g>
<!-- n7719 -->
<g id="node17" class="node"><title>n7719</title>
<ellipse fill="none" stroke="lightgray" cx="27" cy="-288" rx="27" ry="18"/>
<text text-anchor="middle" x="27" y="-284.3" font-family="Times New Roman,serif" font-size="14.00" fill="lightgray">wps</text>
</g>
<!-- n7720 -->
<g id="node18" class="node"><title>n7720</title>
<ellipse fill="none" stroke="lightgray" cx="154" cy="-288" rx="27" ry="18"/>
<text text-anchor="middle" x="154" y="-284.3" font-family="Times New Roman,serif" font-size="14.00" fill="lightgray">wn</text>
</g>
<!-- n7719&#45;&gt;n7720 -->
<g id="edge18" class="edge"><title>n7719&#45;&gt;n7720</title>
<path fill="none" stroke="lightgray" d="M54.2041,-288C72.3711,-288 96.7994,-288 116.82,-288"/>
<polygon fill="lightgray" stroke="lightgray" points="116.83,-291.5 126.83,-288 116.83,-284.5 116.83,-291.5"/>
<text text-anchor="middle" x="90.5" y="-291.8" font-family="Times New Roman,serif" font-size="14.00" fill="lightgray">wff ps</text>
</g>
<!-- n7720&#45;&gt;n7721 -->
<g id="edge19" class="edge"><title>n7720&#45;&gt;n7721</title>
<path fill="none" stroke="lightgray" d="M181.158,-288C204.024,-288 237.462,-288 262.958,-288"/>
<polygon fill="lightgray" stroke="lightgray" points="262.995,-291.5 272.995,-288 262.995,-284.5 262.995,-291.5"/>
<text text-anchor="middle" x="223.5" y="-291.8" font-family="Times New Roman,serif" font-size="14.00" fill="lightgray">wff &#45;. ps</text>
</g>
<!-- n7721&#45;&gt;n7725 -->
<g id="edge20" class="edge"><title>n7721&#45;&gt;n7725</title>
<path fill="none" stroke="lightgray" d="M327.783,-288C363.045,-288 425.987,-288 467.718,-288"/>
<polygon fill="lightgray" stroke="lightgray" points="467.841,-291.5 477.841,-288 467.841,-284.5 467.841,-291.5"/>
<text text-anchor="middle" x="406.394" y="-291.8" font-family="Times New Roman,serif" font-size="14.00" fill="lightgray">wff &#45;. &#45;. ps</text>
</g>
<!-- n7722 -->
<g id="node20" class="node"><title>n7722</title>
<ellipse fill="none" stroke="lightgray" cx="300.447" cy="-216" rx="27" ry="18"/>
<text text-anchor="middle" x="300.447" y="-212.3" font-family="Times New Roman,serif" font-size="14.00" fill="lightgray">wph</text>
</g>
<!-- n7721&#45;&gt;n7722 -->
<g id="edge26" class="edge"><title>n7721&#45;&gt;n7722</title>
</g>
<!-- n7722&#45;&gt;n7725 -->
<g id="edge21" class="edge"><title>n7722&#45;&gt;n7725</title>
<path fill="none" stroke="lightgray" d="M325.181,-223.581C356.264,-233.591 412.391,-251.947 459.894,-269 464.472,-270.643 469.269,-272.418 474,-274.199"/>
<polygon fill="lightgray" stroke="lightgray" points="472.934,-277.539 483.525,-277.826 475.425,-270.997 472.934,-277.539"/>
<text text-anchor="middle" x="406.394" y="-272.8" font-family="Times New Roman,serif" font-size="14.00" fill="lightgray">wff ph</text>
</g>
<!-- n7724 -->
<g id="node22" class="node"><title>n7724</title>
<ellipse fill="cyan" stroke="black" cx="300.447" cy="-144" rx="34.394" ry="18"/>
<text text-anchor="middle" x="300.447" y="-140.3" font-family="Times New Roman,serif" font-size="14.00">notnot</text>
</g>
<!-- n7722&#45;&gt;n7724 -->
<g id="edge27" class="edge"><title>n7722&#45;&gt;n7724</title>
</g>
<!-- n7723 -->
<g id="node21" class="node"><title>n7723</title>
<ellipse fill="none" stroke="lightgray" cx="154" cy="-144" rx="27" ry="18"/>
<text text-anchor="middle" x="154" y="-140.3" font-family="Times New Roman,serif" font-size="14.00" fill="lightgray">wps</text>
</g>
<!-- n7723&#45;&gt;n7724 -->
<g id="edge22" class="edge"><title>n7723&#45;&gt;n7724</title>
<path fill="none" stroke="lightgray" d="M181.158,-144C201.93,-144 231.428,-144 255.769,-144"/>
<polygon fill="lightgray" stroke="lightgray" points="255.845,-147.5 265.845,-144 255.845,-140.5 255.845,-147.5"/>
<text text-anchor="middle" x="223.5" y="-147.8" font-family="Times New Roman,serif" font-size="14.00" fill="lightgray">wff ps</text>
</g>
<!-- n7724&#45;&gt;n7725 -->
<g id="edge23" class="edge"><title>n7724&#45;&gt;n7725</title>
<path fill="none" stroke="black" d="M331.6,-152.045C365.653,-162.287 421.331,-182.643 459.894,-215 475.145,-227.797 487.672,-246.424 496.308,-261.66"/>
<polygon fill="black" stroke="black" points="493.326,-263.504 501.172,-270.625 499.479,-260.166 493.326,-263.504"/>
<text text-anchor="middle" x="406.394" y="-218.8" font-family="Times New Roman,serif" font-size="14.00">|&#45; ( ps &lt;&#45;&gt; &#45;. &#45;. ps )</text>
</g>
<!-- n7726 -->
<g id="node23" class="node"><title>n7726</title>
<ellipse fill="none" stroke="lightgray" cx="300.447" cy="-90" rx="27" ry="18"/>
<text text-anchor="middle" x="300.447" y="-86.3" font-family="Times New Roman,serif" font-size="14.00" fill="lightgray">wph</text>
</g>
<!-- n7726&#45;&gt;n7729 -->
<g id="edge28" class="edge"><title>n7726&#45;&gt;n7729</title>
<path fill="none" stroke="lightgray" d="M327.14,-92.9546C359.094,-97.2023 414.921,-106.521 459.894,-124 466.63,-126.618 473.524,-130.082 479.945,-133.701"/>
<polygon fill="lightgray" stroke="lightgray" points="478.555,-136.946 488.942,-139.036 482.126,-130.925 478.555,-136.946"/>
<text text-anchor="middle" x="406.394" y="-127.8" font-family="Times New Roman,serif" font-size="14.00" fill="lightgray">wff ph</text>
</g>
<!-- n7728 -->
<g id="node26" class="node"><title>n7728</title>
<ellipse fill="none" stroke="lightgray" cx="300.447" cy="-18" rx="27" ry="18"/>
<text text-anchor="middle" x="300.447" y="-14.3" font-family="Times New Roman,serif" font-size="14.00" fill="lightgray">wn</text>
</g>
<!-- n7726&#45;&gt;n7728 -->
<g id="edge32" class="edge"><title>n7726&#45;&gt;n7728</title>
</g>
<!-- n7729&#45;&gt;n7730 -->
<g id="edge31" class="edge"><title>n7729&#45;&gt;n7730</title>
<path fill="none" stroke="black" d="M540.871,-159.64C596.231,-173.575 716.328,-210.968 784.888,-286 807.618,-310.876 818.999,-348.669 824.414,-374.302"/>
<polygon fill="black" stroke="black" points="820.982,-374.99 826.326,-384.138 827.853,-373.654 820.982,-374.99"/>
<text text-anchor="middle" x="672.888" y="-289.8" font-family="Times New Roman,serif" font-size="14.00">|&#45; ( ( ph &#45;&gt; &#45;. &#45;. ps ) &lt;&#45;&gt; &#45;. ( ph / &#45;. ps ) )</text>
</g>
<!-- n7727 -->
<g id="node25" class="node"><title>n7727</title>
<ellipse fill="none" stroke="lightgray" cx="154" cy="-18" rx="27" ry="18"/>
<text text-anchor="middle" x="154" y="-14.3" font-family="Times New Roman,serif" font-size="14.00" fill="lightgray">wps</text>
</g>
<!-- n7727&#45;&gt;n7728 -->
<g id="edge29" class="edge"><title>n7727&#45;&gt;n7728</title>
<path fill="none" stroke="lightgray" d="M181.158,-18C204.024,-18 237.462,-18 262.958,-18"/>
<polygon fill="lightgray" stroke="lightgray" points="262.995,-21.5001 272.995,-18 262.995,-14.5001 262.995,-21.5001"/>
<text text-anchor="middle" x="223.5" y="-21.8" font-family="Times New Roman,serif" font-size="14.00" fill="lightgray">wff ps</text>
</g>
<!-- n7728&#45;&gt;n7729 -->
<g id="edge30" class="edge"><title>n7728&#45;&gt;n7729</title>
<path fill="none" stroke="lightgray" d="M326.609,-22.7198C360.016,-30.017 419.487,-46.6985 459.894,-79 475.69,-91.6278 488.27,-110.678 496.794,-126.288"/>
<polygon fill="lightgray" stroke="lightgray" points="493.851,-128.216 501.57,-135.474 500.062,-124.986 493.851,-128.216"/>
<text text-anchor="middle" x="406.394" y="-82.8" font-family="Times New Roman,serif" font-size="14.00" fill="lightgray">wff &#45;. ps</text>
</g>
</g>
</svg>
