<?xml version="1.0" encoding="UTF-8" standalone="no"?>
<!DOCTYPE svg PUBLIC "-//W3C//DTD SVG 1.1//EN"
 "http://www.w3.org/Graphics/SVG/1.1/DTD/svg11.dtd">
<!-- Generated by graphviz version 2.38.0 (20140413.2041)
 -->
<!-- Title: proof_imdistani Pages: 1 -->
<svg width="856pt" height="439pt"
 viewBox="0.00 0.00 856.28 439.00" xmlns="http://www.w3.org/2000/svg" xmlns:xlink="http://www.w3.org/1999/xlink">
<g id="graph0" class="graph" transform="scale(1 1) rotate(0) translate(4 435)">
<title>proof_imdistani</title>
<polygon fill="white" stroke="none" points="-4,4 -4,-435 852.28,-435 852.28,4 -4,4"/>
<!-- n11756 -->
<g id="node1" class="node"><title>n11756</title>
<ellipse fill="none" stroke="lightgray" cx="293.938" cy="-413" rx="27" ry="18"/>
<text text-anchor="middle" x="293.938" y="-409.3" font-family="Times New Roman,serif" font-size="14.00" fill="lightgray">wph</text>
</g>
<!-- n11766 -->
<g id="node2" class="node"><title>n11766</title>
<ellipse fill="cyan" stroke="black" cx="560.785" cy="-304" rx="27" ry="18"/>
<text text-anchor="middle" x="560.785" y="-300.3" font-family="Times New Roman,serif" font-size="14.00">imp</text>
</g>
<!-- n11756&#45;&gt;n11766 -->
<g id="edge1" class="edge"><title>n11756&#45;&gt;n11766</title>
<path fill="none" stroke="lightgray" d="M320.941,-410.515C364.217,-405.4 452.509,-390.723 515.785,-352 525.723,-345.918 534.791,-336.954 542.078,-328.413"/>
<polygon fill="lightgray" stroke="lightgray" points="544.937,-330.444 548.49,-320.463 539.488,-326.05 544.937,-330.444"/>
<text text-anchor="middle" x="429.785" y="-409.8" font-family="Times New Roman,serif" font-size="14.00" fill="lightgray">wff ph</text>
</g>
<!-- n11757 -->
<g id="node3" class="node"><title>n11757</title>
<ellipse fill="none" stroke="lightgray" cx="293.938" cy="-341" rx="27" ry="18"/>
<text text-anchor="middle" x="293.938" y="-337.3" font-family="Times New Roman,serif" font-size="14.00" fill="lightgray">wps</text>
</g>
<!-- n11756&#45;&gt;n11757 -->
<g id="edge16" class="edge"><title>n11756&#45;&gt;n11757</title>
</g>
<!-- QED -->
<g id="node12" class="node"><title>QED</title>
</g>
<!-- n11766&#45;&gt;QED -->
<g id="edge15" class="edge"><title>n11766&#45;&gt;QED</title>
<path fill="none" stroke="black" d="M588.243,-304C633.703,-304 726.82,-304 779.495,-304"/>
<polygon fill="black" stroke="black" points="779.777,-307.5 789.777,-304 779.777,-300.5 779.777,-307.5"/>
<text text-anchor="middle" x="688.785" y="-307.8" font-family="Times New Roman,serif" font-size="14.00">|&#45; ( ( ph /\ ps ) &#45;&gt; ( ph /\ ch ) )</text>
</g>
<!-- n11757&#45;&gt;n11766 -->
<g id="edge2" class="edge"><title>n11757&#45;&gt;n11766</title>
<path fill="none" stroke="lightgray" d="M320.815,-337.385C368.405,-330.736 469.89,-316.559 524.027,-308.996"/>
<polygon fill="lightgray" stroke="lightgray" points="524.774,-312.425 534.193,-307.575 523.805,-305.493 524.774,-312.425"/>
<text text-anchor="middle" x="429.785" y="-336.8" font-family="Times New Roman,serif" font-size="14.00" fill="lightgray">wff ps</text>
</g>
<!-- n11760 -->
<g id="node5" class="node"><title>n11760</title>
<ellipse fill="none" stroke="lightgray" cx="293.938" cy="-269" rx="27" ry="18"/>
<text text-anchor="middle" x="293.938" y="-265.3" font-family="Times New Roman,serif" font-size="14.00" fill="lightgray">wa</text>
</g>
<!-- n11757&#45;&gt;n11760 -->
<g id="edge17" class="edge"><title>n11757&#45;&gt;n11760</title>
</g>
<!-- n11758 -->
<g id="node4" class="node"><title>n11758</title>
<ellipse fill="none" stroke="lightgray" cx="50.0456" cy="-360" rx="27" ry="18"/>
<text text-anchor="middle" x="50.0456" y="-356.3" font-family="Times New Roman,serif" font-size="14.00" fill="lightgray">wph</text>
</g>
<!-- n11758&#45;&gt;n11760 -->
<g id="edge3" class="edge"><title>n11758&#45;&gt;n11760</title>
<path fill="none" stroke="lightgray" d="M75.9439,-354.776C113.533,-346.368 186.496,-327.994 244.091,-301 251.708,-297.43 259.518,-292.813 266.596,-288.203"/>
<polygon fill="lightgray" stroke="lightgray" points="268.782,-290.949 275.102,-282.445 264.858,-285.153 268.782,-290.949"/>
<text text-anchor="middle" x="181.091" y="-346.8" font-family="Times New Roman,serif" font-size="14.00" fill="lightgray">wff ph</text>
</g>
<!-- n11759 -->
<g id="node6" class="node"><title>n11759</title>
<ellipse fill="none" stroke="lightgray" cx="50.0456" cy="-288" rx="27" ry="18"/>
<text text-anchor="middle" x="50.0456" y="-284.3" font-family="Times New Roman,serif" font-size="14.00" fill="lightgray">wch</text>
</g>
<!-- n11758&#45;&gt;n11759 -->
<g id="edge6" class="edge"><title>n11758&#45;&gt;n11759</title>
</g>
<!-- n11760&#45;&gt;n11766 -->
<g id="edge5" class="edge"><title>n11760&#45;&gt;n11766</title>
<path fill="none" stroke="lightgray" d="M320.877,-271.336C362.245,-275.223 445.651,-283.72 515.785,-295 518.672,-295.464 521.657,-295.986 524.65,-296.538"/>
<polygon fill="lightgray" stroke="lightgray" points="524.239,-300.023 534.723,-298.492 525.573,-293.151 524.239,-300.023"/>
<text text-anchor="middle" x="429.785" y="-298.8" font-family="Times New Roman,serif" font-size="14.00" fill="lightgray">wff ( ph /\ ch )</text>
</g>
<!-- n11765 -->
<g id="node8" class="node"><title>n11765</title>
<ellipse fill="cyan" stroke="black" cx="293.938" cy="-179" rx="31.6951" ry="18"/>
<text text-anchor="middle" x="293.938" y="-175.3" font-family="Times New Roman,serif" font-size="14.00">anc2li</text>
</g>
<!-- n11760&#45;&gt;n11765 -->
<g id="edge18" class="edge"><title>n11760&#45;&gt;n11765</title>
</g>
<!-- n11759&#45;&gt;n11760 -->
<g id="edge4" class="edge"><title>n11759&#45;&gt;n11760</title>
<path fill="none" stroke="lightgray" d="M76.9323,-285.967C120.194,-282.569 207.289,-275.727 256.649,-271.85"/>
<polygon fill="lightgray" stroke="lightgray" points="257.177,-275.32 266.872,-271.047 256.629,-268.341 257.177,-275.32"/>
<text text-anchor="middle" x="181.091" y="-285.8" font-family="Times New Roman,serif" font-size="14.00" fill="lightgray">wff ch</text>
</g>
<!-- n11761 -->
<g id="node7" class="node"><title>n11761</title>
<ellipse fill="none" stroke="lightgray" cx="50.0456" cy="-234" rx="27" ry="18"/>
<text text-anchor="middle" x="50.0456" y="-230.3" font-family="Times New Roman,serif" font-size="14.00" fill="lightgray">wph</text>
</g>
<!-- n11761&#45;&gt;n11765 -->
<g id="edge7" class="edge"><title>n11761&#45;&gt;n11765</title>
<path fill="none" stroke="lightgray" d="M76.5607,-229.828C113.714,-223.531 184.747,-210.656 244.091,-195 248.217,-193.912 252.505,-192.672 256.752,-191.375"/>
<polygon fill="lightgray" stroke="lightgray" points="258.012,-194.647 266.488,-188.29 255.898,-187.974 258.012,-194.647"/>
<text text-anchor="middle" x="181.091" y="-226.8" font-family="Times New Roman,serif" font-size="14.00" fill="lightgray">wff ph</text>
</g>
<!-- n11762 -->
<g id="node9" class="node"><title>n11762</title>
<ellipse fill="none" stroke="lightgray" cx="50.0456" cy="-162" rx="27" ry="18"/>
<text text-anchor="middle" x="50.0456" y="-158.3" font-family="Times New Roman,serif" font-size="14.00" fill="lightgray">wps</text>
</g>
<!-- n11761&#45;&gt;n11762 -->
<g id="edge12" class="edge"><title>n11761&#45;&gt;n11762</title>
</g>
<!-- n11765&#45;&gt;n11766 -->
<g id="edge11" class="edge"><title>n11765&#45;&gt;n11766</title>
<path fill="none" stroke="black" d="M324.629,-183.997C369.19,-192.564 454.646,-213.217 515.785,-254 525.949,-260.779 535.218,-270.48 542.6,-279.535"/>
<polygon fill="black" stroke="black" points="539.93,-281.804 548.82,-287.568 545.464,-277.518 539.93,-281.804"/>
<text text-anchor="middle" x="429.785" y="-257.8" font-family="Times New Roman,serif" font-size="14.00">|&#45; ( ph &#45;&gt; ( ps &#45;&gt; ( ph /\ ch ) ) )</text>
</g>
<!-- n11762&#45;&gt;n11765 -->
<g id="edge8" class="edge"><title>n11762&#45;&gt;n11765</title>
<path fill="none" stroke="lightgray" d="M76.9323,-163.819C118.805,-166.762 201.744,-172.591 251.782,-176.108"/>
<polygon fill="lightgray" stroke="lightgray" points="251.713,-179.611 261.934,-176.821 252.204,-172.628 251.713,-179.611"/>
<text text-anchor="middle" x="181.091" y="-179.8" font-family="Times New Roman,serif" font-size="14.00" fill="lightgray">wff ps</text>
</g>
<!-- n11763 -->
<g id="node10" class="node"><title>n11763</title>
<ellipse fill="none" stroke="lightgray" cx="50.0456" cy="-90" rx="27" ry="18"/>
<text text-anchor="middle" x="50.0456" y="-86.3" font-family="Times New Roman,serif" font-size="14.00" fill="lightgray">wch</text>
</g>
<!-- n11762&#45;&gt;n11763 -->
<g id="edge13" class="edge"><title>n11762&#45;&gt;n11763</title>
</g>
<!-- n11763&#45;&gt;n11765 -->
<g id="edge9" class="edge"><title>n11763&#45;&gt;n11765</title>
<path fill="none" stroke="lightgray" d="M75.8453,-95.4378C113.307,-104.123 186.108,-122.849 244.091,-149 250.952,-152.094 258.022,-155.978 264.579,-159.916"/>
<polygon fill="lightgray" stroke="lightgray" points="262.797,-162.929 273.134,-165.248 266.499,-156.988 262.797,-162.929"/>
<text text-anchor="middle" x="181.091" y="-152.8" font-family="Times New Roman,serif" font-size="14.00" fill="lightgray">wff ch</text>
</g>
<!-- n11764 -->
<g id="node11" class="node"><title>n11764</title>
<ellipse fill="orange" stroke="black" cx="50.0456" cy="-18" rx="50.0912" ry="18"/>
<text text-anchor="middle" x="50.0456" y="-14.3" font-family="Times New Roman,serif" font-size="14.00">imdistani.1</text>
</g>
<!-- n11763&#45;&gt;n11764 -->
<g id="edge14" class="edge"><title>n11763&#45;&gt;n11764</title>
</g>
<!-- n11764&#45;&gt;n11765 -->
<g id="edge10" class="edge"><title>n11764&#45;&gt;n11765</title>
<path fill="none" stroke="black" d="M96.3327,-24.8832C138.74,-33.3555 201.755,-51.3887 244.091,-88 263.583,-104.856 276.585,-131.467 284.24,-151.567"/>
<polygon fill="black" stroke="black" points="280.996,-152.889 287.668,-161.119 287.584,-150.524 280.996,-152.889"/>
<text text-anchor="middle" x="181.091" y="-91.8" font-family="Times New Roman,serif" font-size="14.00">|&#45; ( ph &#45;&gt; ( ps &#45;&gt; ch ) )</text>
</g>
</g>
</svg>
