<?xml version="1.0" encoding="UTF-8" standalone="no"?>
<!DOCTYPE svg PUBLIC "-//W3C//DTD SVG 1.1//EN"
 "http://www.w3.org/Graphics/SVG/1.1/DTD/svg11.dtd">
<!-- Generated by graphviz version 2.38.0 (20140413.2041)
 -->
<!-- Title: proof_imdistanda Pages: 1 -->
<svg width="1115pt" height="439pt"
 viewBox="0.00 0.00 1114.88 439.00" xmlns="http://www.w3.org/2000/svg" xmlns:xlink="http://www.w3.org/1999/xlink">
<g id="graph0" class="graph" transform="scale(1 1) rotate(0) translate(4 435)">
<title>proof_imdistanda</title>
<polygon fill="white" stroke="none" points="-4,4 -4,-435 1110.88,-435 1110.88,4 -4,4"/>
<!-- n11795 -->
<g id="node1" class="node"><title>n11795</title>
<ellipse fill="none" stroke="lightgray" cx="471.09" cy="-413" rx="27" ry="18"/>
<text text-anchor="middle" x="471.09" y="-409.3" font-family="Times New Roman,serif" font-size="14.00" fill="lightgray">wph</text>
</g>
<!-- n11806 -->
<g id="node2" class="node"><title>n11806</title>
<ellipse fill="cyan" stroke="black" cx="753.236" cy="-269" rx="46.2923" ry="18"/>
<text text-anchor="middle" x="753.236" y="-265.3" font-family="Times New Roman,serif" font-size="14.00">imdistand</text>
</g>
<!-- n11795&#45;&gt;n11806 -->
<g id="edge1" class="edge"><title>n11795&#45;&gt;n11806</title>
<path fill="none" stroke="lightgray" d="M497.971,-410.485C540.975,-405.251 628.413,-390.041 689.09,-349 709.434,-335.24 726.281,-312.882 737.442,-295.296"/>
<polygon fill="lightgray" stroke="lightgray" points="740.524,-296.964 742.749,-286.605 734.55,-293.316 740.524,-296.964"/>
<text text-anchor="middle" x="602.59" y="-410.8" font-family="Times New Roman,serif" font-size="14.00" fill="lightgray">wff ph</text>
</g>
<!-- n11796 -->
<g id="node3" class="node"><title>n11796</title>
<ellipse fill="none" stroke="lightgray" cx="471.09" cy="-341" rx="27" ry="18"/>
<text text-anchor="middle" x="471.09" y="-337.3" font-family="Times New Roman,serif" font-size="14.00" fill="lightgray">wps</text>
</g>
<!-- n11795&#45;&gt;n11796 -->
<g id="edge17" class="edge"><title>n11795&#45;&gt;n11796</title>
</g>
<!-- QED -->
<g id="node13" class="node"><title>QED</title>
</g>
<!-- n11806&#45;&gt;QED -->
<g id="edge16" class="edge"><title>n11806&#45;&gt;QED</title>
<path fill="none" stroke="black" d="M799.403,-269C862.996,-269 977.843,-269 1037.81,-269"/>
<polygon fill="black" stroke="black" points="1037.99,-272.5 1047.99,-269 1037.99,-265.5 1037.99,-272.5"/>
<text text-anchor="middle" x="923.882" y="-272.8" font-family="Times New Roman,serif" font-size="14.00">|&#45; ( ph &#45;&gt; ( ( ps /\ ch ) &#45;&gt; ( ps /\ th ) ) )</text>
</g>
<!-- n11796&#45;&gt;n11806 -->
<g id="edge2" class="edge"><title>n11796&#45;&gt;n11806</title>
<path fill="none" stroke="lightgray" d="M496.932,-335.382C537.368,-326.136 619.867,-306.854 689.09,-288 694.822,-286.439 700.824,-284.73 706.753,-282.997"/>
<polygon fill="lightgray" stroke="lightgray" points="708.004,-286.277 716.598,-280.081 706.016,-279.565 708.004,-286.277"/>
<text text-anchor="middle" x="602.59" y="-333.8" font-family="Times New Roman,serif" font-size="14.00" fill="lightgray">wff ps</text>
</g>
<!-- n11797 -->
<g id="node4" class="node"><title>n11797</title>
<ellipse fill="none" stroke="lightgray" cx="471.09" cy="-269" rx="27" ry="18"/>
<text text-anchor="middle" x="471.09" y="-265.3" font-family="Times New Roman,serif" font-size="14.00" fill="lightgray">wch</text>
</g>
<!-- n11796&#45;&gt;n11797 -->
<g id="edge18" class="edge"><title>n11796&#45;&gt;n11797</title>
</g>
<!-- n11797&#45;&gt;n11806 -->
<g id="edge3" class="edge"><title>n11797&#45;&gt;n11806</title>
<path fill="none" stroke="lightgray" d="M498.194,-269C543.328,-269 636.876,-269 696.989,-269"/>
<polygon fill="lightgray" stroke="lightgray" points="697.07,-272.5 707.07,-269 697.07,-265.5 697.07,-272.5"/>
<text text-anchor="middle" x="602.59" y="-272.8" font-family="Times New Roman,serif" font-size="14.00" fill="lightgray">wff ch</text>
</g>
<!-- n11798 -->
<g id="node5" class="node"><title>n11798</title>
<ellipse fill="none" stroke="lightgray" cx="471.09" cy="-197" rx="27" ry="18"/>
<text text-anchor="middle" x="471.09" y="-193.3" font-family="Times New Roman,serif" font-size="14.00" fill="lightgray">wth</text>
</g>
<!-- n11797&#45;&gt;n11798 -->
<g id="edge19" class="edge"><title>n11797&#45;&gt;n11798</title>
</g>
<!-- n11798&#45;&gt;n11806 -->
<g id="edge4" class="edge"><title>n11798&#45;&gt;n11806</title>
<path fill="none" stroke="lightgray" d="M496.932,-202.618C537.368,-211.864 619.867,-231.146 689.09,-250 694.822,-251.561 700.824,-253.27 706.753,-255.003"/>
<polygon fill="lightgray" stroke="lightgray" points="706.016,-258.435 716.598,-257.919 708.004,-251.723 706.016,-258.435"/>
<text text-anchor="middle" x="602.59" y="-253.8" font-family="Times New Roman,serif" font-size="14.00" fill="lightgray">wff th</text>
</g>
<!-- n11805 -->
<g id="node7" class="node"><title>n11805</title>
<ellipse fill="cyan" stroke="black" cx="471.09" cy="-125" rx="27" ry="18"/>
<text text-anchor="middle" x="471.09" y="-121.3" font-family="Times New Roman,serif" font-size="14.00">ex</text>
</g>
<!-- n11798&#45;&gt;n11805 -->
<g id="edge20" class="edge"><title>n11798&#45;&gt;n11805</title>
</g>
<!-- n11799 -->
<g id="node6" class="node"><title>n11799</title>
<ellipse fill="none" stroke="lightgray" cx="183.545" cy="-234" rx="27" ry="18"/>
<text text-anchor="middle" x="183.545" y="-230.3" font-family="Times New Roman,serif" font-size="14.00" fill="lightgray">wph</text>
</g>
<!-- n11799&#45;&gt;n11805 -->
<g id="edge5" class="edge"><title>n11799&#45;&gt;n11805</title>
<path fill="none" stroke="lightgray" d="M210.685,-232.087C257.064,-227.697 355.503,-213.815 426.09,-172 436.001,-166.129 445.063,-157.367 452.354,-148.994"/>
<polygon fill="lightgray" stroke="lightgray" points="455.122,-151.139 458.771,-141.193 449.715,-146.692 455.122,-151.139"/>
<text text-anchor="middle" x="342.09" y="-229.8" font-family="Times New Roman,serif" font-size="14.00" fill="lightgray">wff ph</text>
</g>
<!-- n11800 -->
<g id="node8" class="node"><title>n11800</title>
<ellipse fill="none" stroke="lightgray" cx="183.545" cy="-162" rx="27" ry="18"/>
<text text-anchor="middle" x="183.545" y="-158.3" font-family="Times New Roman,serif" font-size="14.00" fill="lightgray">wps</text>
</g>
<!-- n11799&#45;&gt;n11800 -->
<g id="edge13" class="edge"><title>n11799&#45;&gt;n11800</title>
</g>
<!-- n11805&#45;&gt;n11806 -->
<g id="edge12" class="edge"><title>n11805&#45;&gt;n11806</title>
<path fill="none" stroke="black" d="M497.995,-127.334C541.036,-132.278 628.525,-146.956 689.09,-188 709.578,-201.885 726.413,-224.526 737.533,-242.346"/>
<polygon fill="black" stroke="black" points="734.67,-244.378 742.816,-251.153 740.673,-240.777 734.67,-244.378"/>
<text text-anchor="middle" x="602.59" y="-191.8" font-family="Times New Roman,serif" font-size="14.00">|&#45; ( ph &#45;&gt; ( ps &#45;&gt; ( ch &#45;&gt; th ) ) )</text>
</g>
<!-- n11800&#45;&gt;n11805 -->
<g id="edge6" class="edge"><title>n11800&#45;&gt;n11805</title>
<path fill="none" stroke="lightgray" d="M210.292,-158.763C254.459,-153.196 347.502,-141.401 426.09,-131 428.791,-130.642 431.585,-130.269 434.395,-129.892"/>
<polygon fill="lightgray" stroke="lightgray" points="435.061,-133.334 444.501,-128.524 434.122,-126.397 435.061,-133.334"/>
<text text-anchor="middle" x="342.09" y="-156.8" font-family="Times New Roman,serif" font-size="14.00" fill="lightgray">wff ps</text>
</g>
<!-- n11803 -->
<g id="node10" class="node"><title>n11803</title>
<ellipse fill="none" stroke="lightgray" cx="183.545" cy="-90" rx="27" ry="18"/>
<text text-anchor="middle" x="183.545" y="-86.3" font-family="Times New Roman,serif" font-size="14.00" fill="lightgray">wi</text>
</g>
<!-- n11800&#45;&gt;n11803 -->
<g id="edge14" class="edge"><title>n11800&#45;&gt;n11803</title>
</g>
<!-- n11801 -->
<g id="node9" class="node"><title>n11801</title>
<ellipse fill="none" stroke="lightgray" cx="27" cy="-135" rx="27" ry="18"/>
<text text-anchor="middle" x="27" y="-131.3" font-family="Times New Roman,serif" font-size="14.00" fill="lightgray">wch</text>
</g>
<!-- n11801&#45;&gt;n11803 -->
<g id="edge7" class="edge"><title>n11801&#45;&gt;n11803</title>
<path fill="none" stroke="lightgray" d="M52.1477,-127.969C78.1193,-120.406 119.609,-108.325 148.8,-99.8257"/>
<polygon fill="lightgray" stroke="lightgray" points="149.944,-103.138 158.567,-96.9819 147.987,-96.4172 149.944,-103.138"/>
<text text-anchor="middle" x="90.5" y="-125.8" font-family="Times New Roman,serif" font-size="14.00" fill="lightgray">wff ch</text>
</g>
<!-- n11802 -->
<g id="node11" class="node"><title>n11802</title>
<ellipse fill="none" stroke="lightgray" cx="27" cy="-63" rx="27" ry="18"/>
<text text-anchor="middle" x="27" y="-59.3" font-family="Times New Roman,serif" font-size="14.00" fill="lightgray">wth</text>
</g>
<!-- n11801&#45;&gt;n11802 -->
<g id="edge10" class="edge"><title>n11801&#45;&gt;n11802</title>
</g>
<!-- n11803&#45;&gt;n11805 -->
<g id="edge9" class="edge"><title>n11803&#45;&gt;n11805</title>
<path fill="none" stroke="lightgray" d="M210.388,-91.9745C254.698,-95.5401 347.95,-103.831 426.09,-116 428.979,-116.45 431.966,-116.961 434.96,-117.506"/>
<polygon fill="lightgray" stroke="lightgray" points="434.553,-120.992 445.034,-119.448 435.878,-114.119 434.553,-120.992"/>
<text text-anchor="middle" x="342.09" y="-119.8" font-family="Times New Roman,serif" font-size="14.00" fill="lightgray">wff ( ch &#45;&gt; th )</text>
</g>
<!-- n11804 -->
<g id="node12" class="node"><title>n11804</title>
<ellipse fill="orange" stroke="black" cx="183.545" cy="-18" rx="56.59" ry="18"/>
<text text-anchor="middle" x="183.545" y="-14.3" font-family="Times New Roman,serif" font-size="14.00">imdistanda.1</text>
</g>
<!-- n11803&#45;&gt;n11804 -->
<g id="edge15" class="edge"><title>n11803&#45;&gt;n11804</title>
</g>
<!-- n11802&#45;&gt;n11803 -->
<g id="edge8" class="edge"><title>n11802&#45;&gt;n11803</title>
<path fill="none" stroke="lightgray" d="M53.52,-67.4585C79.0991,-71.9273 118.681,-78.8425 147.259,-83.8353"/>
<polygon fill="lightgray" stroke="lightgray" points="146.791,-87.3065 157.244,-85.5798 147.996,-80.4109 146.791,-87.3065"/>
<text text-anchor="middle" x="90.5" y="-80.8" font-family="Times New Roman,serif" font-size="14.00" fill="lightgray">wff th</text>
</g>
<!-- n11804&#45;&gt;n11805 -->
<g id="edge11" class="edge"><title>n11804&#45;&gt;n11805</title>
<path fill="none" stroke="black" d="M238.73,-22.5687C289.995,-28.8671 367.59,-43.6519 426.09,-78 436.024,-83.8327 445.091,-92.5866 452.378,-100.964"/>
<polygon fill="black" stroke="black" points="449.74,-103.266 458.791,-108.774 455.15,-98.8242 449.74,-103.266"/>
<text text-anchor="middle" x="342.09" y="-81.8" font-family="Times New Roman,serif" font-size="14.00">|&#45; ( ( ph /\ ps ) &#45;&gt; ( ch &#45;&gt; th ) )</text>
</g>
</g>
</svg>
