<?xml version="1.0" encoding="UTF-8" standalone="no"?>
<!DOCTYPE svg PUBLIC "-//W3C//DTD SVG 1.1//EN"
 "http://www.w3.org/Graphics/SVG/1.1/DTD/svg11.dtd">
<!-- Generated by graphviz version 2.38.0 (20140413.2041)
 -->
<!-- Title: proof_imdistanda Pages: 1 -->
<svg width="1103pt" height="439pt"
 viewBox="0.00 0.00 1102.88 439.00" xmlns="http://www.w3.org/2000/svg" xmlns:xlink="http://www.w3.org/1999/xlink">
<g id="graph0" class="graph" transform="scale(1 1) rotate(0) translate(4 435)">
<title>proof_imdistanda</title>
<polygon fill="white" stroke="none" points="-4,4 -4,-435 1098.88,-435 1098.88,4 -4,4"/>
<!-- n11795 -->
<g id="node1" class="node"><title>n11795</title>
<ellipse fill="none" stroke="lightgray" cx="467.09" cy="-413" rx="27" ry="18"/>
<text text-anchor="middle" x="467.09" y="-409.3" font-family="Times New Roman,serif" font-size="14.00" fill="lightgray">wph</text>
</g>
<!-- n11806 -->
<g id="node2" class="node"><title>n11806</title>
<ellipse fill="cyan" stroke="black" cx="749.236" cy="-269" rx="46.2923" ry="18"/>
<text text-anchor="middle" x="749.236" y="-265.3" font-family="Times New Roman,serif" font-size="14.00">imdistand</text>
</g>
<!-- n11795&#45;&gt;n11806 -->
<g id="edge1" class="edge"><title>n11795&#45;&gt;n11806</title>
<path fill="none" stroke="lightgray" d="M493.971,-410.485C536.975,-405.251 624.413,-390.041 685.09,-349 705.434,-335.24 722.281,-312.882 733.442,-295.296"/>
<polygon fill="lightgray" stroke="lightgray" points="736.524,-296.964 738.749,-286.605 730.55,-293.316 736.524,-296.964"/>
<text text-anchor="middle" x="598.59" y="-410.8" font-family="Times New Roman,serif" font-size="14.00" fill="lightgray">wff ph</text>
</g>
<!-- n11796 -->
<g id="node3" class="node"><title>n11796</title>
<ellipse fill="none" stroke="lightgray" cx="467.09" cy="-341" rx="27" ry="18"/>
<text text-anchor="middle" x="467.09" y="-337.3" font-family="Times New Roman,serif" font-size="14.00" fill="lightgray">wps</text>
</g>
<!-- n11795&#45;&gt;n11796 -->
<g id="edge17" class="edge"><title>n11795&#45;&gt;n11796</title>
</g>
<!-- QED -->
<g id="node13" class="node"><title>QED</title>
</g>
<!-- n11806&#45;&gt;QED -->
<g id="edge16" class="edge"><title>n11806&#45;&gt;QED</title>
<path fill="none" stroke="black" d="M795.616,-269C857.569,-269 967.564,-269 1025.86,-269"/>
<polygon fill="black" stroke="black" points="1026.12,-272.5 1036.12,-269 1026.12,-265.5 1026.12,-272.5"/>
<text text-anchor="middle" x="915.882" y="-272.8" font-family="Times New Roman,serif" font-size="14.00">|&#45; ( ph &#45;&gt; ( ( ps / ch ) &#45;&gt; ( ps / th ) ) )</text>
</g>
<!-- n11796&#45;&gt;n11806 -->
<g id="edge2" class="edge"><title>n11796&#45;&gt;n11806</title>
<path fill="none" stroke="lightgray" d="M492.932,-335.382C533.368,-326.136 615.867,-306.854 685.09,-288 690.822,-286.439 696.824,-284.73 702.753,-282.997"/>
<polygon fill="lightgray" stroke="lightgray" points="704.004,-286.277 712.598,-280.081 702.016,-279.565 704.004,-286.277"/>
<text text-anchor="middle" x="598.59" y="-333.8" font-family="Times New Roman,serif" font-size="14.00" fill="lightgray">wff ps</text>
</g>
<!-- n11797 -->
<g id="node4" class="node"><title>n11797</title>
<ellipse fill="none" stroke="lightgray" cx="467.09" cy="-269" rx="27" ry="18"/>
<text text-anchor="middle" x="467.09" y="-265.3" font-family="Times New Roman,serif" font-size="14.00" fill="lightgray">wch</text>
</g>
<!-- n11796&#45;&gt;n11797 -->
<g id="edge18" class="edge"><title>n11796&#45;&gt;n11797</title>
</g>
<!-- n11797&#45;&gt;n11806 -->
<g id="edge3" class="edge"><title>n11797&#45;&gt;n11806</title>
<path fill="none" stroke="lightgray" d="M494.194,-269C539.328,-269 632.876,-269 692.989,-269"/>
<polygon fill="lightgray" stroke="lightgray" points="693.07,-272.5 703.07,-269 693.07,-265.5 693.07,-272.5"/>
<text text-anchor="middle" x="598.59" y="-272.8" font-family="Times New Roman,serif" font-size="14.00" fill="lightgray">wff ch</text>
</g>
<!-- n11798 -->
<g id="node5" class="node"><title>n11798</title>
<ellipse fill="none" stroke="lightgray" cx="467.09" cy="-197" rx="27" ry="18"/>
<text text-anchor="middle" x="467.09" y="-193.3" font-family="Times New Roman,serif" font-size="14.00" fill="lightgray">wth</text>
</g>
<!-- n11797&#45;&gt;n11798 -->
<g id="edge19" class="edge"><title>n11797&#45;&gt;n11798</title>
</g>
<!-- n11798&#45;&gt;n11806 -->
<g id="edge4" class="edge"><title>n11798&#45;&gt;n11806</title>
<path fill="none" stroke="lightgray" d="M492.932,-202.618C533.368,-211.864 615.867,-231.146 685.09,-250 690.822,-251.561 696.824,-253.27 702.753,-255.003"/>
<polygon fill="lightgray" stroke="lightgray" points="702.016,-258.435 712.598,-257.919 704.004,-251.723 702.016,-258.435"/>
<text text-anchor="middle" x="598.59" y="-253.8" font-family="Times New Roman,serif" font-size="14.00" fill="lightgray">wff th</text>
</g>
<!-- n11805 -->
<g id="node7" class="node"><title>n11805</title>
<ellipse fill="cyan" stroke="black" cx="467.09" cy="-125" rx="27" ry="18"/>
<text text-anchor="middle" x="467.09" y="-121.3" font-family="Times New Roman,serif" font-size="14.00">ex</text>
</g>
<!-- n11798&#45;&gt;n11805 -->
<g id="edge20" class="edge"><title>n11798&#45;&gt;n11805</title>
</g>
<!-- n11799 -->
<g id="node6" class="node"><title>n11799</title>
<ellipse fill="none" stroke="lightgray" cx="183.545" cy="-234" rx="27" ry="18"/>
<text text-anchor="middle" x="183.545" y="-230.3" font-family="Times New Roman,serif" font-size="14.00" fill="lightgray">wph</text>
</g>
<!-- n11799&#45;&gt;n11805 -->
<g id="edge5" class="edge"><title>n11799&#45;&gt;n11805</title>
<path fill="none" stroke="lightgray" d="M210.616,-231.948C256.379,-227.358 352.866,-213.197 422.09,-172 431.989,-166.109 441.049,-157.343 448.341,-148.973"/>
<polygon fill="lightgray" stroke="lightgray" points="451.107,-151.12 454.761,-141.175 445.703,-146.671 451.107,-151.12"/>
<text text-anchor="middle" x="340.09" y="-227.8" font-family="Times New Roman,serif" font-size="14.00" fill="lightgray">wff ph</text>
</g>
<!-- n11800 -->
<g id="node8" class="node"><title>n11800</title>
<ellipse fill="none" stroke="lightgray" cx="183.545" cy="-162" rx="27" ry="18"/>
<text text-anchor="middle" x="183.545" y="-158.3" font-family="Times New Roman,serif" font-size="14.00" fill="lightgray">wps</text>
</g>
<!-- n11799&#45;&gt;n11800 -->
<g id="edge13" class="edge"><title>n11799&#45;&gt;n11800</title>
</g>
<!-- n11805&#45;&gt;n11806 -->
<g id="edge12" class="edge"><title>n11805&#45;&gt;n11806</title>
<path fill="none" stroke="black" d="M493.995,-127.334C537.036,-132.278 624.525,-146.956 685.09,-188 705.578,-201.885 722.413,-224.526 733.533,-242.346"/>
<polygon fill="black" stroke="black" points="730.67,-244.378 738.816,-251.153 736.673,-240.777 730.67,-244.378"/>
<text text-anchor="middle" x="598.59" y="-191.8" font-family="Times New Roman,serif" font-size="14.00">|&#45; ( ph &#45;&gt; ( ps &#45;&gt; ( ch &#45;&gt; th ) ) )</text>
</g>
<!-- n11800&#45;&gt;n11805 -->
<g id="edge6" class="edge"><title>n11800&#45;&gt;n11805</title>
<path fill="none" stroke="lightgray" d="M210.212,-158.7C253.783,-153.086 345,-141.286 422.09,-131 424.791,-130.64 427.585,-130.264 430.394,-129.885"/>
<polygon fill="lightgray" stroke="lightgray" points="431.061,-133.327 440.5,-128.515 430.121,-126.39 431.061,-133.327"/>
<text text-anchor="middle" x="340.09" y="-156.8" font-family="Times New Roman,serif" font-size="14.00" fill="lightgray">wff ps</text>
</g>
<!-- n11803 -->
<g id="node10" class="node"><title>n11803</title>
<ellipse fill="none" stroke="lightgray" cx="183.545" cy="-90" rx="27" ry="18"/>
<text text-anchor="middle" x="183.545" y="-86.3" font-family="Times New Roman,serif" font-size="14.00" fill="lightgray">wi</text>
</g>
<!-- n11800&#45;&gt;n11803 -->
<g id="edge14" class="edge"><title>n11800&#45;&gt;n11803</title>
</g>
<!-- n11801 -->
<g id="node9" class="node"><title>n11801</title>
<ellipse fill="none" stroke="lightgray" cx="27" cy="-135" rx="27" ry="18"/>
<text text-anchor="middle" x="27" y="-131.3" font-family="Times New Roman,serif" font-size="14.00" fill="lightgray">wch</text>
</g>
<!-- n11801&#45;&gt;n11803 -->
<g id="edge7" class="edge"><title>n11801&#45;&gt;n11803</title>
<path fill="none" stroke="lightgray" d="M52.1477,-127.969C78.1193,-120.406 119.609,-108.325 148.8,-99.8257"/>
<polygon fill="lightgray" stroke="lightgray" points="149.944,-103.138 158.567,-96.9819 147.987,-96.4172 149.944,-103.138"/>
<text text-anchor="middle" x="90.5" y="-125.8" font-family="Times New Roman,serif" font-size="14.00" fill="lightgray">wff ch</text>
</g>
<!-- n11802 -->
<g id="node11" class="node"><title>n11802</title>
<ellipse fill="none" stroke="lightgray" cx="27" cy="-63" rx="27" ry="18"/>
<text text-anchor="middle" x="27" y="-59.3" font-family="Times New Roman,serif" font-size="14.00" fill="lightgray">wth</text>
</g>
<!-- n11801&#45;&gt;n11802 -->
<g id="edge10" class="edge"><title>n11801&#45;&gt;n11802</title>
</g>
<!-- n11803&#45;&gt;n11805 -->
<g id="edge9" class="edge"><title>n11803&#45;&gt;n11805</title>
<path fill="none" stroke="lightgray" d="M210.661,-92.0607C254.512,-95.699 345.649,-104.025 422.09,-116 424.979,-116.453 427.965,-116.966 430.959,-117.512"/>
<polygon fill="lightgray" stroke="lightgray" points="430.551,-120.998 441.033,-119.456 431.878,-114.124 430.551,-120.998"/>
<text text-anchor="middle" x="340.09" y="-119.8" font-family="Times New Roman,serif" font-size="14.00" fill="lightgray">wff ( ch &#45;&gt; th )</text>
</g>
<!-- n11804 -->
<g id="node12" class="node"><title>n11804</title>
<ellipse fill="orange" stroke="black" cx="183.545" cy="-18" rx="56.59" ry="18"/>
<text text-anchor="middle" x="183.545" y="-14.3" font-family="Times New Roman,serif" font-size="14.00">imdistanda.1</text>
</g>
<!-- n11803&#45;&gt;n11804 -->
<g id="edge15" class="edge"><title>n11803&#45;&gt;n11804</title>
</g>
<!-- n11802&#45;&gt;n11803 -->
<g id="edge8" class="edge"><title>n11802&#45;&gt;n11803</title>
<path fill="none" stroke="lightgray" d="M53.52,-67.4585C79.0991,-71.9273 118.681,-78.8425 147.259,-83.8353"/>
<polygon fill="lightgray" stroke="lightgray" points="146.791,-87.3065 157.244,-85.5798 147.996,-80.4109 146.791,-87.3065"/>
<text text-anchor="middle" x="90.5" y="-80.8" font-family="Times New Roman,serif" font-size="14.00" fill="lightgray">wff th</text>
</g>
<!-- n11804&#45;&gt;n11805 -->
<g id="edge11" class="edge"><title>n11804&#45;&gt;n11805</title>
<path fill="none" stroke="black" d="M238.319,-22.8199C288.743,-29.2886 364.752,-44.1822 422.09,-78 432.012,-83.8522 441.077,-92.61 448.366,-100.985"/>
<polygon fill="black" stroke="black" points="445.728,-103.287 454.781,-108.791 451.136,-98.8427 445.728,-103.287"/>
<text text-anchor="middle" x="340.09" y="-81.8" font-family="Times New Roman,serif" font-size="14.00">|&#45; ( ( ph / ps ) &#45;&gt; ( ch &#45;&gt; th ) )</text>
</g>
</g>
</svg>
