<?xml version="1.0" encoding="UTF-8" standalone="no"?>
<!DOCTYPE svg PUBLIC "-//W3C//DTD SVG 1.1//EN"
 "http://www.w3.org/Graphics/SVG/1.1/DTD/svg11.dtd">
<!-- Generated by graphviz version 2.38.0 (20140413.2041)
 -->
<!-- Title: proof_imorri Pages: 1 -->
<svg width="815pt" height="376pt"
 viewBox="0.00 0.00 815.48 376.00" xmlns="http://www.w3.org/2000/svg" xmlns:xlink="http://www.w3.org/1999/xlink">
<g id="graph0" class="graph" transform="scale(1 1) rotate(0) translate(4 372)">
<title>proof_imorri</title>
<polygon fill="white" stroke="none" points="-4,4 -4,-372 811.482,-372 811.482,4 -4,4"/>
<!-- n7620 -->
<g id="node1" class="node"><title>n7620</title>
<ellipse fill="none" stroke="lightgray" cx="154" cy="-350" rx="27" ry="18"/>
<text text-anchor="middle" x="154" y="-346.3" font-family="Times New Roman,serif" font-size="14.00" fill="lightgray">wph</text>
</g>
<!-- n7622 -->
<g id="node2" class="node"><title>n7622</title>
<ellipse fill="none" stroke="lightgray" cx="304.997" cy="-291" rx="27" ry="18"/>
<text text-anchor="middle" x="304.997" y="-287.3" font-family="Times New Roman,serif" font-size="14.00" fill="lightgray">wi</text>
</g>
<!-- n7620&#45;&gt;n7622 -->
<g id="edge1" class="edge"><title>n7620&#45;&gt;n7622</title>
<path fill="none" stroke="lightgray" d="M177.629,-341.039C202.68,-331.119 243.265,-315.048 271.663,-303.803"/>
<polygon fill="lightgray" stroke="lightgray" points="273.145,-306.981 281.154,-300.045 270.568,-300.473 273.145,-306.981"/>
<text text-anchor="middle" x="223.5" y="-335.8" font-family="Times New Roman,serif" font-size="14.00" fill="lightgray">wff ph</text>
</g>
<!-- n7621 -->
<g id="node3" class="node"><title>n7621</title>
<ellipse fill="none" stroke="lightgray" cx="154" cy="-278" rx="27" ry="18"/>
<text text-anchor="middle" x="154" y="-274.3" font-family="Times New Roman,serif" font-size="14.00" fill="lightgray">wps</text>
</g>
<!-- n7620&#45;&gt;n7621 -->
<g id="edge4" class="edge"><title>n7620&#45;&gt;n7621</title>
</g>
<!-- n7631 -->
<g id="node4" class="node"><title>n7631</title>
<ellipse fill="cyan" stroke="black" cx="604.49" cy="-182" rx="32.4942" ry="18"/>
<text text-anchor="middle" x="604.49" y="-178.3" font-family="Times New Roman,serif" font-size="14.00">mpbir</text>
</g>
<!-- n7622&#45;&gt;n7631 -->
<g id="edge3" class="edge"><title>n7622&#45;&gt;n7631</title>
<path fill="none" stroke="lightgray" d="M331.92,-289.3C378.955,-285.262 480.299,-272.112 553.993,-231 565.264,-224.712 575.741,-215.15 584.126,-206.137"/>
<polygon fill="lightgray" stroke="lightgray" points="586.919,-208.262 590.924,-198.453 581.677,-203.623 586.919,-208.262"/>
<text text-anchor="middle" x="457.993" y="-289.8" font-family="Times New Roman,serif" font-size="14.00" fill="lightgray">wff ( ph &#45;&gt; ps )</text>
</g>
<!-- n7626 -->
<g id="node7" class="node"><title>n7626</title>
<ellipse fill="none" stroke="lightgray" cx="304.997" cy="-219" rx="27" ry="18"/>
<text text-anchor="middle" x="304.997" y="-215.3" font-family="Times New Roman,serif" font-size="14.00" fill="lightgray">wo</text>
</g>
<!-- n7622&#45;&gt;n7626 -->
<g id="edge16" class="edge"><title>n7622&#45;&gt;n7626</title>
</g>
<!-- n7621&#45;&gt;n7622 -->
<g id="edge2" class="edge"><title>n7621&#45;&gt;n7622</title>
<path fill="none" stroke="lightgray" d="M180.953,-280.264C205.022,-282.364 241.065,-285.509 267.928,-287.853"/>
<polygon fill="lightgray" stroke="lightgray" points="267.825,-291.357 278.091,-288.74 268.433,-284.384 267.825,-291.357"/>
<text text-anchor="middle" x="223.5" y="-290.8" font-family="Times New Roman,serif" font-size="14.00" fill="lightgray">wff ps</text>
</g>
<!-- QED -->
<g id="node13" class="node"><title>QED</title>
</g>
<!-- n7631&#45;&gt;QED -->
<g id="edge15" class="edge"><title>n7631&#45;&gt;QED</title>
<path fill="none" stroke="black" d="M636.991,-182C665.577,-182 707.819,-182 738.468,-182"/>
<polygon fill="black" stroke="black" points="738.784,-185.5 748.784,-182 738.784,-178.5 738.784,-185.5"/>
<text text-anchor="middle" x="692.987" y="-185.8" font-family="Times New Roman,serif" font-size="14.00">|&#45; ( ph &#45;&gt; ps )</text>
</g>
<!-- n7623 -->
<g id="node5" class="node"><title>n7623</title>
<ellipse fill="none" stroke="lightgray" cx="27" cy="-222" rx="27" ry="18"/>
<text text-anchor="middle" x="27" y="-218.3" font-family="Times New Roman,serif" font-size="14.00" fill="lightgray">wph</text>
</g>
<!-- n7624 -->
<g id="node6" class="node"><title>n7624</title>
<ellipse fill="none" stroke="lightgray" cx="154" cy="-222" rx="27" ry="18"/>
<text text-anchor="middle" x="154" y="-218.3" font-family="Times New Roman,serif" font-size="14.00" fill="lightgray">wn</text>
</g>
<!-- n7623&#45;&gt;n7624 -->
<g id="edge5" class="edge"><title>n7623&#45;&gt;n7624</title>
<path fill="none" stroke="lightgray" d="M54.2041,-222C72.3711,-222 96.7994,-222 116.82,-222"/>
<polygon fill="lightgray" stroke="lightgray" points="116.83,-225.5 126.83,-222 116.83,-218.5 116.83,-225.5"/>
<text text-anchor="middle" x="90.5" y="-225.8" font-family="Times New Roman,serif" font-size="14.00" fill="lightgray">wff ph</text>
</g>
<!-- n7624&#45;&gt;n7626 -->
<g id="edge6" class="edge"><title>n7624&#45;&gt;n7626</title>
<path fill="none" stroke="lightgray" d="M181.295,-221.471C205.338,-220.986 241.121,-220.266 267.848,-219.728"/>
<polygon fill="lightgray" stroke="lightgray" points="268.037,-223.225 277.965,-219.524 267.896,-216.226 268.037,-223.225"/>
<text text-anchor="middle" x="223.5" y="-225.8" font-family="Times New Roman,serif" font-size="14.00" fill="lightgray">wff &#45;. ph</text>
</g>
<!-- n7625 -->
<g id="node8" class="node"><title>n7625</title>
<ellipse fill="none" stroke="lightgray" cx="154" cy="-150" rx="27" ry="18"/>
<text text-anchor="middle" x="154" y="-146.3" font-family="Times New Roman,serif" font-size="14.00" fill="lightgray">wps</text>
</g>
<!-- n7624&#45;&gt;n7625 -->
<g id="edge9" class="edge"><title>n7624&#45;&gt;n7625</title>
</g>
<!-- n7626&#45;&gt;n7631 -->
<g id="edge8" class="edge"><title>n7626&#45;&gt;n7631</title>
<path fill="none" stroke="lightgray" d="M331.618,-215.813C383.179,-209.401 499.86,-194.889 562.277,-187.126"/>
<polygon fill="lightgray" stroke="lightgray" points="563.05,-190.557 572.541,-185.849 562.186,-183.61 563.05,-190.557"/>
<text text-anchor="middle" x="457.993" y="-215.8" font-family="Times New Roman,serif" font-size="14.00" fill="lightgray">wff ( &#45;. ph \/ ps )</text>
</g>
<!-- n7627 -->
<g id="node9" class="node"><title>n7627</title>
<ellipse fill="orange" stroke="black" cx="304.997" cy="-147" rx="38.9931" ry="18"/>
<text text-anchor="middle" x="304.997" y="-143.3" font-family="Times New Roman,serif" font-size="14.00">imorri.1</text>
</g>
<!-- n7626&#45;&gt;n7627 -->
<g id="edge17" class="edge"><title>n7626&#45;&gt;n7627</title>
</g>
<!-- n7625&#45;&gt;n7626 -->
<g id="edge7" class="edge"><title>n7625&#45;&gt;n7626</title>
<path fill="none" stroke="lightgray" d="M176.665,-160.033C202.045,-171.786 244.279,-191.345 273.092,-204.688"/>
<polygon fill="lightgray" stroke="lightgray" points="271.76,-207.928 282.305,-208.955 274.702,-201.576 271.76,-207.928"/>
<text text-anchor="middle" x="223.5" y="-196.8" font-family="Times New Roman,serif" font-size="14.00" fill="lightgray">wff ps</text>
</g>
<!-- n7627&#45;&gt;n7631 -->
<g id="edge10" class="edge"><title>n7627&#45;&gt;n7631</title>
<path fill="none" stroke="black" d="M343.498,-150.045C392.16,-154.199 479.641,-162.358 553.993,-173 557.192,-173.458 560.5,-173.971 563.819,-174.515"/>
<polygon fill="black" stroke="black" points="563.263,-177.971 573.711,-176.21 564.446,-171.071 563.263,-177.971"/>
<text text-anchor="middle" x="457.993" y="-176.8" font-family="Times New Roman,serif" font-size="14.00">|&#45; ( &#45;. ph \/ ps )</text>
</g>
<!-- n7630 -->
<g id="node11" class="node"><title>n7630</title>
<ellipse fill="cyan" stroke="black" cx="304.997" cy="-75" rx="27.0966" ry="18"/>
<text text-anchor="middle" x="304.997" y="-71.3" font-family="Times New Roman,serif" font-size="14.00">imor</text>
</g>
<!-- n7627&#45;&gt;n7630 -->
<g id="edge18" class="edge"><title>n7627&#45;&gt;n7630</title>
</g>
<!-- n7628 -->
<g id="node10" class="node"><title>n7628</title>
<ellipse fill="none" stroke="lightgray" cx="154" cy="-90" rx="27" ry="18"/>
<text text-anchor="middle" x="154" y="-86.3" font-family="Times New Roman,serif" font-size="14.00" fill="lightgray">wph</text>
</g>
<!-- n7628&#45;&gt;n7630 -->
<g id="edge11" class="edge"><title>n7628&#45;&gt;n7630</title>
<path fill="none" stroke="lightgray" d="M180.953,-87.3872C204.949,-84.9715 240.845,-81.3577 267.682,-78.656"/>
<polygon fill="lightgray" stroke="lightgray" points="268.242,-82.1173 277.841,-77.6332 267.54,-75.1526 268.242,-82.1173"/>
<text text-anchor="middle" x="223.5" y="-89.8" font-family="Times New Roman,serif" font-size="14.00" fill="lightgray">wff ph</text>
</g>
<!-- n7629 -->
<g id="node12" class="node"><title>n7629</title>
<ellipse fill="none" stroke="lightgray" cx="154" cy="-18" rx="27" ry="18"/>
<text text-anchor="middle" x="154" y="-14.3" font-family="Times New Roman,serif" font-size="14.00" fill="lightgray">wps</text>
</g>
<!-- n7628&#45;&gt;n7629 -->
<g id="edge14" class="edge"><title>n7628&#45;&gt;n7629</title>
</g>
<!-- n7630&#45;&gt;n7631 -->
<g id="edge13" class="edge"><title>n7630&#45;&gt;n7631</title>
<path fill="none" stroke="black" d="M332.248,-76.6775C379.374,-80.6449 480.272,-93.5532 553.993,-134 565.032,-140.057 575.356,-149.24 583.689,-157.958"/>
<polygon fill="black" stroke="black" points="581.149,-160.367 590.467,-165.409 586.327,-155.656 581.149,-160.367"/>
<text text-anchor="middle" x="457.993" y="-137.8" font-family="Times New Roman,serif" font-size="14.00">|&#45; ( ( ph &#45;&gt; ps ) &lt;&#45;&gt; ( &#45;. ph \/ ps ) )</text>
</g>
<!-- n7629&#45;&gt;n7630 -->
<g id="edge12" class="edge"><title>n7629&#45;&gt;n7630</title>
<path fill="none" stroke="lightgray" d="M177.954,-26.7813C202.927,-36.335 243.057,-51.6872 271.315,-62.4974"/>
<polygon fill="lightgray" stroke="lightgray" points="270.18,-65.8106 280.771,-66.1148 272.682,-59.2727 270.18,-65.8106"/>
<text text-anchor="middle" x="223.5" y="-57.8" font-family="Times New Roman,serif" font-size="14.00" fill="lightgray">wff ps</text>
</g>
</g>
</svg>
