<?xml version="1.0" encoding="UTF-8" standalone="no"?>
<!DOCTYPE svg PUBLIC "-//W3C//DTD SVG 1.1//EN"
 "http://www.w3.org/Graphics/SVG/1.1/DTD/svg11.dtd">
<!-- Generated by graphviz version 2.38.0 (20140413.2041)
 -->
<!-- Title: proof_imp32 Pages: 1 -->
<svg width="857pt" height="458pt"
 viewBox="0.00 0.00 856.98 458.00" xmlns="http://www.w3.org/2000/svg" xmlns:xlink="http://www.w3.org/1999/xlink">
<g id="graph0" class="graph" transform="scale(1 1) rotate(0) translate(4 454)">
<title>proof_imp32</title>
<polygon fill="white" stroke="none" points="-4,4 -4,-454 852.983,-454 852.983,4 -4,4"/>
<!-- n7820 -->
<g id="node1" class="node"><title>n7820</title>
<ellipse fill="none" stroke="lightgray" cx="312.991" cy="-432" rx="27" ry="18"/>
<text text-anchor="middle" x="312.991" y="-428.3" font-family="Times New Roman,serif" font-size="14.00" fill="lightgray">wph</text>
</g>
<!-- n7831 -->
<g id="node2" class="node"><title>n7831</title>
<ellipse fill="cyan" stroke="black" cx="572.488" cy="-323" rx="27" ry="18"/>
<text text-anchor="middle" x="572.488" y="-319.3" font-family="Times New Roman,serif" font-size="14.00">imp</text>
</g>
<!-- n7820&#45;&gt;n7831 -->
<g id="edge1" class="edge"><title>n7820&#45;&gt;n7831</title>
<path fill="none" stroke="lightgray" d="M339.808,-429.223C381.886,-423.735 466.66,-408.594 527.488,-371 537.399,-364.875 546.461,-355.902 553.752,-347.367"/>
<polygon fill="lightgray" stroke="lightgray" points="556.606,-349.403 560.169,-339.425 551.161,-345.003 556.606,-349.403"/>
<text text-anchor="middle" x="445.488" y="-428.8" font-family="Times New Roman,serif" font-size="14.00" fill="lightgray">wff ph</text>
</g>
<!-- n7823 -->
<g id="node4" class="node"><title>n7823</title>
<ellipse fill="none" stroke="lightgray" cx="312.991" cy="-360" rx="27" ry="18"/>
<text text-anchor="middle" x="312.991" y="-356.3" font-family="Times New Roman,serif" font-size="14.00" fill="lightgray">wa</text>
</g>
<!-- n7820&#45;&gt;n7823 -->
<g id="edge18" class="edge"><title>n7820&#45;&gt;n7823</title>
</g>
<!-- QED -->
<g id="node13" class="node"><title>QED</title>
</g>
<!-- n7831&#45;&gt;QED -->
<g id="edge17" class="edge"><title>n7831&#45;&gt;QED</title>
<path fill="none" stroke="black" d="M599.734,-323C643.11,-323 729.952,-323 780.269,-323"/>
<polygon fill="black" stroke="black" points="780.423,-326.5 790.423,-323 780.423,-319.5 780.423,-326.5"/>
<text text-anchor="middle" x="694.988" y="-326.8" font-family="Times New Roman,serif" font-size="14.00">|&#45; ( ( ph / ( ps / ch ) ) &#45;&gt; th )</text>
</g>
<!-- n7821 -->
<g id="node3" class="node"><title>n7821</title>
<ellipse fill="none" stroke="lightgray" cx="35.7468" cy="-432" rx="27" ry="18"/>
<text text-anchor="middle" x="35.7468" y="-428.3" font-family="Times New Roman,serif" font-size="14.00" fill="lightgray">wps</text>
</g>
<!-- n7821&#45;&gt;n7823 -->
<g id="edge2" class="edge"><title>n7821&#45;&gt;n7823</title>
<path fill="none" stroke="lightgray" d="M62.0995,-427.219C104.185,-419.023 190.927,-401.025 262.494,-379 268.242,-377.231 274.281,-375.127 280.087,-372.974"/>
<polygon fill="lightgray" stroke="lightgray" points="281.457,-376.198 289.547,-369.357 278.957,-369.66 281.457,-376.198"/>
<text text-anchor="middle" x="175.994" y="-424.8" font-family="Times New Roman,serif" font-size="14.00" fill="lightgray">wff ps</text>
</g>
<!-- n7822 -->
<g id="node5" class="node"><title>n7822</title>
<ellipse fill="none" stroke="lightgray" cx="35.7468" cy="-360" rx="27" ry="18"/>
<text text-anchor="middle" x="35.7468" y="-356.3" font-family="Times New Roman,serif" font-size="14.00" fill="lightgray">wch</text>
</g>
<!-- n7821&#45;&gt;n7822 -->
<g id="edge5" class="edge"><title>n7821&#45;&gt;n7822</title>
</g>
<!-- n7823&#45;&gt;n7831 -->
<g id="edge4" class="edge"><title>n7823&#45;&gt;n7831</title>
<path fill="none" stroke="lightgray" d="M339.622,-356.317C385.798,-349.682 483.044,-335.709 535.736,-328.137"/>
<polygon fill="lightgray" stroke="lightgray" points="536.56,-331.555 545.96,-326.668 535.564,-324.626 536.56,-331.555"/>
<text text-anchor="middle" x="445.488" y="-355.8" font-family="Times New Roman,serif" font-size="14.00" fill="lightgray">wff ( ps / ch )</text>
</g>
<!-- n7824 -->
<g id="node6" class="node"><title>n7824</title>
<ellipse fill="none" stroke="lightgray" cx="312.991" cy="-288" rx="27" ry="18"/>
<text text-anchor="middle" x="312.991" y="-284.3" font-family="Times New Roman,serif" font-size="14.00" fill="lightgray">wth</text>
</g>
<!-- n7823&#45;&gt;n7824 -->
<g id="edge19" class="edge"><title>n7823&#45;&gt;n7824</title>
</g>
<!-- n7822&#45;&gt;n7823 -->
<g id="edge3" class="edge"><title>n7822&#45;&gt;n7823</title>
<path fill="none" stroke="lightgray" d="M63.1384,-360C112.563,-360 219.157,-360 275.451,-360"/>
<polygon fill="lightgray" stroke="lightgray" points="275.679,-363.5 285.679,-360 275.679,-356.5 275.679,-363.5"/>
<text text-anchor="middle" x="175.994" y="-363.8" font-family="Times New Roman,serif" font-size="14.00" fill="lightgray">wff ch</text>
</g>
<!-- n7824&#45;&gt;n7831 -->
<g id="edge6" class="edge"><title>n7824&#45;&gt;n7831</title>
<path fill="none" stroke="lightgray" d="M340.049,-290.49C380.365,-294.495 460.23,-303.044 527.488,-314 530.374,-314.47 533.358,-314.996 536.351,-315.55"/>
<polygon fill="lightgray" stroke="lightgray" points="535.938,-319.035 546.423,-317.509 537.275,-312.164 535.938,-319.035"/>
<text text-anchor="middle" x="445.488" y="-317.8" font-family="Times New Roman,serif" font-size="14.00" fill="lightgray">wff th</text>
</g>
<!-- n7830 -->
<g id="node8" class="node"><title>n7830</title>
<ellipse fill="cyan" stroke="black" cx="312.991" cy="-216" rx="32.4942" ry="18"/>
<text text-anchor="middle" x="312.991" y="-212.3" font-family="Times New Roman,serif" font-size="14.00">imp3a</text>
</g>
<!-- n7824&#45;&gt;n7830 -->
<g id="edge20" class="edge"><title>n7824&#45;&gt;n7830</title>
</g>
<!-- n7825 -->
<g id="node7" class="node"><title>n7825</title>
<ellipse fill="none" stroke="lightgray" cx="35.7468" cy="-306" rx="27" ry="18"/>
<text text-anchor="middle" x="35.7468" y="-302.3" font-family="Times New Roman,serif" font-size="14.00" fill="lightgray">wph</text>
</g>
<!-- n7825&#45;&gt;n7830 -->
<g id="edge7" class="edge"><title>n7825&#45;&gt;n7830</title>
<path fill="none" stroke="lightgray" d="M62.4406,-302.687C105.388,-296.489 193.808,-280.881 262.494,-250 270.249,-246.513 278.087,-241.797 285.168,-236.989"/>
<polygon fill="lightgray" stroke="lightgray" points="287.553,-239.586 293.668,-230.934 283.493,-233.885 287.553,-239.586"/>
<text text-anchor="middle" x="175.994" y="-300.8" font-family="Times New Roman,serif" font-size="14.00" fill="lightgray">wff ph</text>
</g>
<!-- n7826 -->
<g id="node9" class="node"><title>n7826</title>
<ellipse fill="none" stroke="lightgray" cx="35.7468" cy="-234" rx="27" ry="18"/>
<text text-anchor="middle" x="35.7468" y="-230.3" font-family="Times New Roman,serif" font-size="14.00" fill="lightgray">wps</text>
</g>
<!-- n7825&#45;&gt;n7826 -->
<g id="edge13" class="edge"><title>n7825&#45;&gt;n7826</title>
</g>
<!-- n7830&#45;&gt;n7831 -->
<g id="edge12" class="edge"><title>n7830&#45;&gt;n7831</title>
<path fill="none" stroke="black" d="M345.162,-218.884C388.801,-224.106 469.281,-238.138 527.488,-274 537.773,-280.337 547.063,-289.789 554.427,-298.706"/>
<polygon fill="black" stroke="black" points="551.71,-300.913 560.623,-306.641 557.227,-296.605 551.71,-300.913"/>
<text text-anchor="middle" x="445.488" y="-277.8" font-family="Times New Roman,serif" font-size="14.00">|&#45; ( ph &#45;&gt; ( ( ps / ch ) &#45;&gt; th ) )</text>
</g>
<!-- n7826&#45;&gt;n7830 -->
<g id="edge8" class="edge"><title>n7826&#45;&gt;n7830</title>
<path fill="none" stroke="lightgray" d="M62.6411,-232.307C110.389,-229.184 212.678,-222.495 270.305,-218.726"/>
<polygon fill="lightgray" stroke="lightgray" points="270.772,-222.203 280.523,-218.058 270.316,-215.218 270.772,-222.203"/>
<text text-anchor="middle" x="175.994" y="-234.8" font-family="Times New Roman,serif" font-size="14.00" fill="lightgray">wff ps</text>
</g>
<!-- n7827 -->
<g id="node10" class="node"><title>n7827</title>
<ellipse fill="none" stroke="lightgray" cx="35.7468" cy="-162" rx="27" ry="18"/>
<text text-anchor="middle" x="35.7468" y="-158.3" font-family="Times New Roman,serif" font-size="14.00" fill="lightgray">wch</text>
</g>
<!-- n7826&#45;&gt;n7827 -->
<g id="edge14" class="edge"><title>n7826&#45;&gt;n7827</title>
</g>
<!-- n7827&#45;&gt;n7830 -->
<g id="edge9" class="edge"><title>n7827&#45;&gt;n7830</title>
<path fill="none" stroke="lightgray" d="M62.3452,-165.374C104.422,-171.153 190.703,-183.989 262.494,-201 266.573,-201.967 270.81,-203.079 275.013,-204.253"/>
<polygon fill="lightgray" stroke="lightgray" points="274.085,-207.628 284.664,-207.062 276.041,-200.907 274.085,-207.628"/>
<text text-anchor="middle" x="175.994" y="-204.8" font-family="Times New Roman,serif" font-size="14.00" fill="lightgray">wff ch</text>
</g>
<!-- n7828 -->
<g id="node11" class="node"><title>n7828</title>
<ellipse fill="none" stroke="lightgray" cx="35.7468" cy="-90" rx="27" ry="18"/>
<text text-anchor="middle" x="35.7468" y="-86.3" font-family="Times New Roman,serif" font-size="14.00" fill="lightgray">wth</text>
</g>
<!-- n7827&#45;&gt;n7828 -->
<g id="edge15" class="edge"><title>n7827&#45;&gt;n7828</title>
</g>
<!-- n7828&#45;&gt;n7830 -->
<g id="edge10" class="edge"><title>n7828&#45;&gt;n7830</title>
<path fill="none" stroke="lightgray" d="M62.6622,-91.611C107.099,-95.478 199.156,-108.413 262.494,-151 277.126,-160.839 289.219,-176.449 297.789,-189.906"/>
<polygon fill="lightgray" stroke="lightgray" points="294.982,-192.029 303.147,-198.781 300.975,-188.411 294.982,-192.029"/>
<text text-anchor="middle" x="175.994" y="-154.8" font-family="Times New Roman,serif" font-size="14.00" fill="lightgray">wff th</text>
</g>
<!-- n7829 -->
<g id="node12" class="node"><title>n7829</title>
<ellipse fill="orange" stroke="black" cx="35.7468" cy="-18" rx="35.9954" ry="18"/>
<text text-anchor="middle" x="35.7468" y="-14.3" font-family="Times New Roman,serif" font-size="14.00">imp3.1</text>
</g>
<!-- n7828&#45;&gt;n7829 -->
<g id="edge16" class="edge"><title>n7828&#45;&gt;n7829</title>
</g>
<!-- n7829&#45;&gt;n7830 -->
<g id="edge11" class="edge"><title>n7829&#45;&gt;n7830</title>
<path fill="none" stroke="black" d="M71.6389,-17.3196C120.481,-18.2734 209.214,-27.2309 262.494,-76 294.272,-105.088 305.653,-155.856 309.726,-187.605"/>
<polygon fill="black" stroke="black" points="306.253,-188.037 310.846,-197.584 313.209,-187.256 306.253,-188.037"/>
<text text-anchor="middle" x="175.994" y="-79.8" font-family="Times New Roman,serif" font-size="14.00">|&#45; ( ph &#45;&gt; ( ps &#45;&gt; ( ch &#45;&gt; th ) ) )</text>
</g>
</g>
</svg>
