<?xml version="1.0" encoding="UTF-8" standalone="no"?>
<!DOCTYPE svg PUBLIC "-//W3C//DTD SVG 1.1//EN"
 "http://www.w3.org/Graphics/SVG/1.1/DTD/svg11.dtd">
<!-- Generated by graphviz version 2.38.0 (20140413.2041)
 -->
<!-- Title: proof_imp4d Pages: 1 -->
<svg width="1009pt" height="570pt"
 viewBox="0.00 0.00 1008.98 570.00" xmlns="http://www.w3.org/2000/svg" xmlns:xlink="http://www.w3.org/1999/xlink">
<g id="graph0" class="graph" transform="scale(1 1) rotate(0) translate(4 566)">
<title>proof_imp4d</title>
<polygon fill="white" stroke="none" points="-4,4 -4,-566 1004.98,-566 1004.98,4 -4,4"/>
<!-- n10217 -->
<g id="node1" class="node"><title>n10217</title>
<ellipse fill="none" stroke="lightgray" cx="359.991" cy="-544" rx="27" ry="18"/>
<text text-anchor="middle" x="359.991" y="-540.3" font-family="Times New Roman,serif" font-size="14.00" fill="lightgray">wph</text>
</g>
<!-- n10230 -->
<g id="node2" class="node"><title>n10230</title>
<ellipse fill="cyan" stroke="black" cx="671.985" cy="-400" rx="32.4942" ry="18"/>
<text text-anchor="middle" x="671.985" y="-396.3" font-family="Times New Roman,serif" font-size="14.00">imp3a</text>
</g>
<!-- n10217&#45;&gt;n10230 -->
<g id="edge1" class="edge"><title>n10217&#45;&gt;n10230</title>
<path fill="none" stroke="lightgray" d="M386.999,-544.203C437.186,-543.324 548.838,-535.047 621.488,-482 640.157,-468.368 653.146,-445.361 661.119,-427.181"/>
<polygon fill="lightgray" stroke="lightgray" points="664.358,-428.507 664.935,-417.928 657.887,-425.838 664.358,-428.507"/>
<text text-anchor="middle" x="515.988" y="-546.8" font-family="Times New Roman,serif" font-size="14.00" fill="lightgray">wff ph</text>
</g>
<!-- n10218 -->
<g id="node3" class="node"><title>n10218</title>
<ellipse fill="none" stroke="lightgray" cx="359.991" cy="-472" rx="27" ry="18"/>
<text text-anchor="middle" x="359.991" y="-468.3" font-family="Times New Roman,serif" font-size="14.00" fill="lightgray">wps</text>
</g>
<!-- n10217&#45;&gt;n10218 -->
<g id="edge21" class="edge"><title>n10217&#45;&gt;n10218</title>
</g>
<!-- QED -->
<g id="node15" class="node"><title>QED</title>
</g>
<!-- n10230&#45;&gt;QED -->
<g id="edge20" class="edge"><title>n10230&#45;&gt;QED</title>
<path fill="none" stroke="black" d="M704.567,-400C759.489,-400 872.411,-400 931.979,-400"/>
<polygon fill="black" stroke="black" points="932.107,-403.5 942.107,-400 932.107,-396.5 932.107,-403.5"/>
<text text-anchor="middle" x="823.482" y="-403.8" font-family="Times New Roman,serif" font-size="14.00">|&#45; ( ph &#45;&gt; ( ( ps / ( ch / th ) ) &#45;&gt; ta ) )</text>
</g>
<!-- n10218&#45;&gt;n10230 -->
<g id="edge2" class="edge"><title>n10218&#45;&gt;n10230</title>
<path fill="none" stroke="lightgray" d="M386.477,-468.255C433.505,-461.029 536.86,-443.667 621.488,-419 626.21,-417.624 631.118,-415.994 635.927,-414.277"/>
<polygon fill="lightgray" stroke="lightgray" points="637.424,-417.454 645.572,-410.682 634.979,-410.895 637.424,-417.454"/>
<text text-anchor="middle" x="515.988" y="-466.8" font-family="Times New Roman,serif" font-size="14.00" fill="lightgray">wff ps</text>
</g>
<!-- n10221 -->
<g id="node5" class="node"><title>n10221</title>
<ellipse fill="none" stroke="lightgray" cx="359.991" cy="-400" rx="27" ry="18"/>
<text text-anchor="middle" x="359.991" y="-396.3" font-family="Times New Roman,serif" font-size="14.00" fill="lightgray">wa</text>
</g>
<!-- n10218&#45;&gt;n10221 -->
<g id="edge22" class="edge"><title>n10218&#45;&gt;n10221</title>
</g>
<!-- n10219 -->
<g id="node4" class="node"><title>n10219</title>
<ellipse fill="none" stroke="lightgray" cx="35.7468" cy="-504" rx="27" ry="18"/>
<text text-anchor="middle" x="35.7468" y="-500.3" font-family="Times New Roman,serif" font-size="14.00" fill="lightgray">wch</text>
</g>
<!-- n10219&#45;&gt;n10221 -->
<g id="edge3" class="edge"><title>n10219&#45;&gt;n10221</title>
<path fill="none" stroke="lightgray" d="M63.0671,-502.815C113.554,-499.599 226.361,-487.799 309.494,-445 320.245,-439.465 330.439,-430.988 338.751,-422.878"/>
<polygon fill="lightgray" stroke="lightgray" points="341.343,-425.232 345.816,-415.628 336.33,-420.346 341.343,-425.232"/>
<text text-anchor="middle" x="199.494" y="-503.8" font-family="Times New Roman,serif" font-size="14.00" fill="lightgray">wff ch</text>
</g>
<!-- n10220 -->
<g id="node6" class="node"><title>n10220</title>
<ellipse fill="none" stroke="lightgray" cx="35.7468" cy="-432" rx="27" ry="18"/>
<text text-anchor="middle" x="35.7468" y="-428.3" font-family="Times New Roman,serif" font-size="14.00" fill="lightgray">wth</text>
</g>
<!-- n10219&#45;&gt;n10220 -->
<g id="edge6" class="edge"><title>n10219&#45;&gt;n10220</title>
</g>
<!-- n10221&#45;&gt;n10230 -->
<g id="edge5" class="edge"><title>n10221&#45;&gt;n10230</title>
<path fill="none" stroke="lightgray" d="M387.154,-400C440.802,-400 563.688,-400 628.762,-400"/>
<polygon fill="lightgray" stroke="lightgray" points="629.071,-403.5 639.071,-400 629.07,-396.5 629.071,-403.5"/>
<text text-anchor="middle" x="515.988" y="-403.8" font-family="Times New Roman,serif" font-size="14.00" fill="lightgray">wff ( ch / th )</text>
</g>
<!-- n10222 -->
<g id="node7" class="node"><title>n10222</title>
<ellipse fill="none" stroke="lightgray" cx="359.991" cy="-328" rx="27" ry="18"/>
<text text-anchor="middle" x="359.991" y="-324.3" font-family="Times New Roman,serif" font-size="14.00" fill="lightgray">wta</text>
</g>
<!-- n10221&#45;&gt;n10222 -->
<g id="edge23" class="edge"><title>n10221&#45;&gt;n10222</title>
</g>
<!-- n10220&#45;&gt;n10221 -->
<g id="edge4" class="edge"><title>n10220&#45;&gt;n10221</title>
<path fill="none" stroke="lightgray" d="M62.5727,-429.435C119.728,-423.76 257.046,-410.124 322.759,-403.598"/>
<polygon fill="lightgray" stroke="lightgray" points="323.437,-407.048 333.042,-402.577 322.745,-400.082 323.437,-407.048"/>
<text text-anchor="middle" x="199.494" y="-429.8" font-family="Times New Roman,serif" font-size="14.00" fill="lightgray">wff th</text>
</g>
<!-- n10222&#45;&gt;n10230 -->
<g id="edge7" class="edge"><title>n10222&#45;&gt;n10230</title>
<path fill="none" stroke="lightgray" d="M386.477,-331.745C433.505,-338.971 536.86,-356.333 621.488,-381 626.21,-382.376 631.118,-384.006 635.927,-385.723"/>
<polygon fill="lightgray" stroke="lightgray" points="634.979,-389.105 645.572,-389.318 637.424,-382.546 634.979,-389.105"/>
<text text-anchor="middle" x="515.988" y="-384.8" font-family="Times New Roman,serif" font-size="14.00" fill="lightgray">wff ta</text>
</g>
<!-- n10229 -->
<g id="node9" class="node"><title>n10229</title>
<ellipse fill="cyan" stroke="black" cx="359.991" cy="-250" rx="32.4942" ry="18"/>
<text text-anchor="middle" x="359.991" y="-246.3" font-family="Times New Roman,serif" font-size="14.00">imp4a</text>
</g>
<!-- n10222&#45;&gt;n10229 -->
<g id="edge24" class="edge"><title>n10222&#45;&gt;n10229</title>
</g>
<!-- n10223 -->
<g id="node8" class="node"><title>n10223</title>
<ellipse fill="none" stroke="lightgray" cx="35.7468" cy="-378" rx="27" ry="18"/>
<text text-anchor="middle" x="35.7468" y="-374.3" font-family="Times New Roman,serif" font-size="14.00" fill="lightgray">wph</text>
</g>
<!-- n10223&#45;&gt;n10229 -->
<g id="edge8" class="edge"><title>n10223&#45;&gt;n10229</title>
<path fill="none" stroke="lightgray" d="M62.8161,-378.694C114.338,-378.829 230.999,-372.878 309.494,-321 318.407,-315.109 332.692,-293.853 343.63,-276.121"/>
<polygon fill="lightgray" stroke="lightgray" points="346.805,-277.634 348.998,-267.269 340.82,-274.004 346.805,-277.634"/>
<text text-anchor="middle" x="199.494" y="-381.8" font-family="Times New Roman,serif" font-size="14.00" fill="lightgray">wff ph</text>
</g>
<!-- n10224 -->
<g id="node10" class="node"><title>n10224</title>
<ellipse fill="none" stroke="lightgray" cx="35.7468" cy="-306" rx="27" ry="18"/>
<text text-anchor="middle" x="35.7468" y="-302.3" font-family="Times New Roman,serif" font-size="14.00" fill="lightgray">wps</text>
</g>
<!-- n10223&#45;&gt;n10224 -->
<g id="edge15" class="edge"><title>n10223&#45;&gt;n10224</title>
</g>
<!-- n10229&#45;&gt;n10230 -->
<g id="edge14" class="edge"><title>n10229&#45;&gt;n10230</title>
<path fill="none" stroke="black" d="M392.747,-250.596C445.372,-253.11 551.759,-264.822 621.488,-317 640.276,-331.059 653.309,-354.53 661.267,-372.933"/>
<polygon fill="black" stroke="black" points="658.06,-374.337 665.07,-382.28 664.543,-371.698 658.06,-374.337"/>
<text text-anchor="middle" x="515.988" y="-320.8" font-family="Times New Roman,serif" font-size="14.00">|&#45; ( ph &#45;&gt; ( ps &#45;&gt; ( ( ch / th ) &#45;&gt; ta ) ) )</text>
</g>
<!-- n10224&#45;&gt;n10229 -->
<g id="edge9" class="edge"><title>n10224&#45;&gt;n10229</title>
<path fill="none" stroke="lightgray" d="M62.6225,-303.94C111.431,-299.694 220.208,-288.512 309.494,-267 313.936,-265.93 318.544,-264.624 323.08,-263.216"/>
<polygon fill="lightgray" stroke="lightgray" points="324.396,-266.468 332.805,-260.024 322.213,-259.817 324.396,-266.468"/>
<text text-anchor="middle" x="199.494" y="-305.8" font-family="Times New Roman,serif" font-size="14.00" fill="lightgray">wff ps</text>
</g>
<!-- n10225 -->
<g id="node11" class="node"><title>n10225</title>
<ellipse fill="none" stroke="lightgray" cx="35.7468" cy="-234" rx="27" ry="18"/>
<text text-anchor="middle" x="35.7468" y="-230.3" font-family="Times New Roman,serif" font-size="14.00" fill="lightgray">wch</text>
</g>
<!-- n10224&#45;&gt;n10225 -->
<g id="edge16" class="edge"><title>n10224&#45;&gt;n10225</title>
</g>
<!-- n10225&#45;&gt;n10229 -->
<g id="edge10" class="edge"><title>n10225&#45;&gt;n10229</title>
<path fill="none" stroke="lightgray" d="M62.8444,-235.296C118.597,-238.064 249.726,-244.575 317.226,-247.926"/>
<polygon fill="lightgray" stroke="lightgray" points="317.331,-251.436 327.492,-248.436 317.678,-244.444 317.331,-251.436"/>
<text text-anchor="middle" x="199.494" y="-251.8" font-family="Times New Roman,serif" font-size="14.00" fill="lightgray">wff ch</text>
</g>
<!-- n10226 -->
<g id="node12" class="node"><title>n10226</title>
<ellipse fill="none" stroke="lightgray" cx="35.7468" cy="-162" rx="27" ry="18"/>
<text text-anchor="middle" x="35.7468" y="-158.3" font-family="Times New Roman,serif" font-size="14.00" fill="lightgray">wth</text>
</g>
<!-- n10225&#45;&gt;n10226 -->
<g id="edge17" class="edge"><title>n10225&#45;&gt;n10226</title>
</g>
<!-- n10226&#45;&gt;n10229 -->
<g id="edge11" class="edge"><title>n10226&#45;&gt;n10229</title>
<path fill="none" stroke="lightgray" d="M62.8678,-164.126C112.545,-168.861 223.364,-182.776 309.494,-218 317.085,-221.105 324.776,-225.402 331.759,-229.842"/>
<polygon fill="lightgray" stroke="lightgray" points="329.906,-232.813 340.164,-235.461 333.796,-226.994 329.906,-232.813"/>
<text text-anchor="middle" x="199.494" y="-221.8" font-family="Times New Roman,serif" font-size="14.00" fill="lightgray">wff th</text>
</g>
<!-- n10227 -->
<g id="node13" class="node"><title>n10227</title>
<ellipse fill="none" stroke="lightgray" cx="35.7468" cy="-90" rx="27" ry="18"/>
<text text-anchor="middle" x="35.7468" y="-86.3" font-family="Times New Roman,serif" font-size="14.00" fill="lightgray">wta</text>
</g>
<!-- n10226&#45;&gt;n10227 -->
<g id="edge18" class="edge"><title>n10226&#45;&gt;n10227</title>
</g>
<!-- n10227&#45;&gt;n10229 -->
<g id="edge12" class="edge"><title>n10227&#45;&gt;n10229</title>
<path fill="none" stroke="lightgray" d="M62.7492,-88.5471C115.176,-86.9999 234.908,-90.6244 309.494,-149 332.697,-167.16 345.743,-199.001 352.545,-222.086"/>
<polygon fill="lightgray" stroke="lightgray" points="349.239,-223.268 355.245,-231.996 355.993,-221.428 349.239,-223.268"/>
<text text-anchor="middle" x="199.494" y="-152.8" font-family="Times New Roman,serif" font-size="14.00" fill="lightgray">wff ta</text>
</g>
<!-- n10228 -->
<g id="node14" class="node"><title>n10228</title>
<ellipse fill="orange" stroke="black" cx="35.7468" cy="-18" rx="35.9954" ry="18"/>
<text text-anchor="middle" x="35.7468" y="-14.3" font-family="Times New Roman,serif" font-size="14.00">imp4.1</text>
</g>
<!-- n10227&#45;&gt;n10228 -->
<g id="edge19" class="edge"><title>n10227&#45;&gt;n10228</title>
</g>
<!-- n10228&#45;&gt;n10229 -->
<g id="edge13" class="edge"><title>n10228&#45;&gt;n10229</title>
<path fill="none" stroke="black" d="M70.6152,-14.0088C127.639,-9.29696 243.079,-8.69441 309.494,-70 352.142,-109.367 359.344,-181.74 359.821,-221.677"/>
<polygon fill="black" stroke="black" points="356.321,-221.787 359.805,-231.793 363.321,-221.799 356.321,-221.787"/>
<text text-anchor="middle" x="199.494" y="-73.8" font-family="Times New Roman,serif" font-size="14.00">|&#45; ( ph &#45;&gt; ( ps &#45;&gt; ( ch &#45;&gt; ( th &#45;&gt; ta ) ) ) )</text>
</g>
</g>
</svg>
