<?xml version="1.0" encoding="UTF-8" standalone="no"?>
<!DOCTYPE svg PUBLIC "-//W3C//DTD SVG 1.1//EN"
 "http://www.w3.org/Graphics/SVG/1.1/DTD/svg11.dtd">
<!-- Generated by graphviz version 2.38.0 (20140413.2041)
 -->
<!-- Title: proof_impbid21d Pages: 1 -->
<svg width="1212pt" height="602pt"
 viewBox="0.00 0.00 1212.48 602.00" xmlns="http://www.w3.org/2000/svg" xmlns:xlink="http://www.w3.org/1999/xlink">
<g id="graph0" class="graph" transform="scale(1 1) rotate(0) translate(4 598)">
<title>proof_impbid21d</title>
<polygon fill="white" stroke="none" points="-4,4 -4,-598 1208.48,-598 1208.48,4 -4,4"/>
<!-- n2402 -->
<g id="node1" class="node"><title>n2402</title>
<ellipse fill="none" stroke="lightgray" cx="611.09" cy="-576" rx="27" ry="18"/>
<text text-anchor="middle" x="611.09" y="-572.3" font-family="Times New Roman,serif" font-size="14.00" fill="lightgray">wph</text>
</g>
<!-- n2421 -->
<g id="node2" class="node"><title>n2421</title>
<ellipse fill="cyan" stroke="black" cx="888.036" cy="-395" rx="40.8928" ry="18"/>
<text text-anchor="middle" x="888.036" y="-391.3" font-family="Times New Roman,serif" font-size="14.00">impbidd</text>
</g>
<!-- n2402&#45;&gt;n2421 -->
<g id="edge1" class="edge"><title>n2402&#45;&gt;n2421</title>
<path fill="none" stroke="lightgray" d="M638.315,-575.516C682.608,-573.362 772.893,-563.043 829.09,-516 857.754,-492.005 873.253,-450.537 880.828,-422.937"/>
<polygon fill="lightgray" stroke="lightgray" points="884.256,-423.66 883.354,-413.103 877.476,-421.918 884.256,-423.66"/>
<text text-anchor="middle" x="742.59" y="-577.8" font-family="Times New Roman,serif" font-size="14.00" fill="lightgray">wff ph</text>
</g>
<!-- n2403 -->
<g id="node3" class="node"><title>n2403</title>
<ellipse fill="none" stroke="lightgray" cx="611.09" cy="-504" rx="27" ry="18"/>
<text text-anchor="middle" x="611.09" y="-500.3" font-family="Times New Roman,serif" font-size="14.00" fill="lightgray">wps</text>
</g>
<!-- n2402&#45;&gt;n2403 -->
<g id="edge29" class="edge"><title>n2402&#45;&gt;n2403</title>
</g>
<!-- QED -->
<g id="node21" class="node"><title>QED</title>
</g>
<!-- n2421&#45;&gt;QED -->
<g id="edge28" class="edge"><title>n2421&#45;&gt;QED</title>
<path fill="none" stroke="black" d="M928.992,-395C983.748,-395 1081.46,-395 1135.54,-395"/>
<polygon fill="black" stroke="black" points="1135.75,-398.5 1145.75,-395 1135.75,-391.5 1135.75,-398.5"/>
<text text-anchor="middle" x="1037.48" y="-398.8" font-family="Times New Roman,serif" font-size="14.00">|&#45; ( ph &#45;&gt; ( ps &#45;&gt; ( ch &lt;&#45;&gt; th ) ) )</text>
</g>
<!-- n2403&#45;&gt;n2421 -->
<g id="edge2" class="edge"><title>n2403&#45;&gt;n2421</title>
<path fill="none" stroke="lightgray" d="M637.81,-500.558C679.838,-494.152 764.974,-477.858 829.09,-444 841.592,-437.398 853.795,-427.721 863.753,-418.707"/>
<polygon fill="lightgray" stroke="lightgray" points="866.328,-421.089 871.22,-411.691 861.535,-415.987 866.328,-421.089"/>
<text text-anchor="middle" x="742.59" y="-500.8" font-family="Times New Roman,serif" font-size="14.00" fill="lightgray">wff ps</text>
</g>
<!-- n2404 -->
<g id="node4" class="node"><title>n2404</title>
<ellipse fill="none" stroke="lightgray" cx="611.09" cy="-432" rx="27" ry="18"/>
<text text-anchor="middle" x="611.09" y="-428.3" font-family="Times New Roman,serif" font-size="14.00" fill="lightgray">wch</text>
</g>
<!-- n2403&#45;&gt;n2404 -->
<g id="edge30" class="edge"><title>n2403&#45;&gt;n2404</title>
</g>
<!-- n2404&#45;&gt;n2421 -->
<g id="edge3" class="edge"><title>n2404&#45;&gt;n2421</title>
<path fill="none" stroke="lightgray" d="M637.956,-428.519C683.734,-422.359 779.698,-409.445 838.238,-401.567"/>
<polygon fill="lightgray" stroke="lightgray" points="838.915,-405.007 848.359,-400.205 837.982,-398.07 838.915,-405.007"/>
<text text-anchor="middle" x="742.59" y="-428.8" font-family="Times New Roman,serif" font-size="14.00" fill="lightgray">wff ch</text>
</g>
<!-- n2405 -->
<g id="node5" class="node"><title>n2405</title>
<ellipse fill="none" stroke="lightgray" cx="611.09" cy="-360" rx="27" ry="18"/>
<text text-anchor="middle" x="611.09" y="-356.3" font-family="Times New Roman,serif" font-size="14.00" fill="lightgray">wth</text>
</g>
<!-- n2404&#45;&gt;n2405 -->
<g id="edge31" class="edge"><title>n2404&#45;&gt;n2405</title>
</g>
<!-- n2405&#45;&gt;n2421 -->
<g id="edge4" class="edge"><title>n2405&#45;&gt;n2421</title>
<path fill="none" stroke="lightgray" d="M637.848,-362.792C678.527,-367.268 760.114,-376.514 829.09,-386 832.368,-386.451 835.747,-386.932 839.15,-387.429"/>
<polygon fill="lightgray" stroke="lightgray" points="838.941,-390.937 849.348,-388.952 839.974,-384.013 838.941,-390.937"/>
<text text-anchor="middle" x="742.59" y="-389.8" font-family="Times New Roman,serif" font-size="14.00" fill="lightgray">wff th</text>
</g>
<!-- n2413 -->
<g id="node11" class="node"><title>n2413</title>
<ellipse fill="cyan" stroke="black" cx="611.09" cy="-288" rx="27" ry="18"/>
<text text-anchor="middle" x="611.09" y="-284.3" font-family="Times New Roman,serif" font-size="14.00">a1i</text>
</g>
<!-- n2405&#45;&gt;n2413 -->
<g id="edge32" class="edge"><title>n2405&#45;&gt;n2413</title>
</g>
<!-- n2406 -->
<g id="node6" class="node"><title>n2406</title>
<ellipse fill="none" stroke="lightgray" cx="154" cy="-476" rx="27" ry="18"/>
<text text-anchor="middle" x="154" y="-472.3" font-family="Times New Roman,serif" font-size="14.00" fill="lightgray">wps</text>
</g>
<!-- n2410 -->
<g id="node7" class="node"><title>n2410</title>
<ellipse fill="none" stroke="lightgray" cx="357.545" cy="-432" rx="27" ry="18"/>
<text text-anchor="middle" x="357.545" y="-428.3" font-family="Times New Roman,serif" font-size="14.00" fill="lightgray">wi</text>
</g>
<!-- n2406&#45;&gt;n2410 -->
<g id="edge5" class="edge"><title>n2406&#45;&gt;n2410</title>
<path fill="none" stroke="lightgray" d="M180.118,-470.516C215.841,-462.718 281.454,-448.393 321.814,-439.582"/>
<polygon fill="lightgray" stroke="lightgray" points="322.72,-442.967 331.743,-437.415 321.227,-436.128 322.72,-442.967"/>
<text text-anchor="middle" x="241" y="-468.8" font-family="Times New Roman,serif" font-size="14.00" fill="lightgray">wff ps</text>
</g>
<!-- n2409 -->
<g id="node9" class="node"><title>n2409</title>
<ellipse fill="none" stroke="lightgray" cx="154" cy="-404" rx="27" ry="18"/>
<text text-anchor="middle" x="154" y="-400.3" font-family="Times New Roman,serif" font-size="14.00" fill="lightgray">wi</text>
</g>
<!-- n2406&#45;&gt;n2409 -->
<g id="edge11" class="edge"><title>n2406&#45;&gt;n2409</title>
</g>
<!-- n2410&#45;&gt;n2413 -->
<g id="edge10" class="edge"><title>n2410&#45;&gt;n2413</title>
<path fill="none" stroke="lightgray" d="M384.274,-429.134C426.448,-423.269 511.085,-406.464 566.09,-362 567.204,-361.1 582.764,-334.737 595.068,-313.733"/>
<polygon fill="lightgray" stroke="lightgray" points="598.231,-315.259 600.259,-304.86 592.189,-311.724 598.231,-315.259"/>
<text text-anchor="middle" x="499.09" y="-422.8" font-family="Times New Roman,serif" font-size="14.00" fill="lightgray">wff ( ps &#45;&gt; ( ch &#45;&gt; th ) )</text>
</g>
<!-- n2411 -->
<g id="node12" class="node"><title>n2411</title>
<ellipse fill="none" stroke="lightgray" cx="357.545" cy="-360" rx="27" ry="18"/>
<text text-anchor="middle" x="357.545" y="-356.3" font-family="Times New Roman,serif" font-size="14.00" fill="lightgray">wph</text>
</g>
<!-- n2410&#45;&gt;n2411 -->
<g id="edge15" class="edge"><title>n2410&#45;&gt;n2411</title>
</g>
<!-- n2407 -->
<g id="node8" class="node"><title>n2407</title>
<ellipse fill="none" stroke="lightgray" cx="27" cy="-449" rx="27" ry="18"/>
<text text-anchor="middle" x="27" y="-445.3" font-family="Times New Roman,serif" font-size="14.00" fill="lightgray">wch</text>
</g>
<!-- n2407&#45;&gt;n2409 -->
<g id="edge6" class="edge"><title>n2407&#45;&gt;n2409</title>
<path fill="none" stroke="lightgray" d="M51.2186,-440.641C70.6886,-433.632 98.7117,-423.544 120.426,-415.727"/>
<polygon fill="lightgray" stroke="lightgray" points="121.682,-418.994 129.906,-412.314 119.311,-412.408 121.682,-418.994"/>
<text text-anchor="middle" x="90.5" y="-436.8" font-family="Times New Roman,serif" font-size="14.00" fill="lightgray">wff ch</text>
</g>
<!-- n2408 -->
<g id="node10" class="node"><title>n2408</title>
<ellipse fill="none" stroke="lightgray" cx="27" cy="-377" rx="27" ry="18"/>
<text text-anchor="middle" x="27" y="-373.3" font-family="Times New Roman,serif" font-size="14.00" fill="lightgray">wth</text>
</g>
<!-- n2407&#45;&gt;n2408 -->
<g id="edge9" class="edge"><title>n2407&#45;&gt;n2408</title>
</g>
<!-- n2409&#45;&gt;n2410 -->
<g id="edge8" class="edge"><title>n2409&#45;&gt;n2410</title>
<path fill="none" stroke="lightgray" d="M180.526,-407.546C216.092,-412.487 280.711,-421.465 320.981,-427.059"/>
<polygon fill="lightgray" stroke="lightgray" points="320.522,-430.529 330.909,-428.438 321.486,-423.596 320.522,-430.529"/>
<text text-anchor="middle" x="241" y="-424.8" font-family="Times New Roman,serif" font-size="14.00" fill="lightgray">wff ( ch &#45;&gt; th )</text>
</g>
<!-- n2408&#45;&gt;n2409 -->
<g id="edge7" class="edge"><title>n2408&#45;&gt;n2409</title>
<path fill="none" stroke="lightgray" d="M52.9952,-382.399C71.6456,-386.427 97.3666,-391.983 118.053,-396.451"/>
<polygon fill="lightgray" stroke="lightgray" points="117.535,-399.92 128.048,-398.61 119.013,-393.078 117.535,-399.92"/>
<text text-anchor="middle" x="90.5" y="-397.8" font-family="Times New Roman,serif" font-size="14.00" fill="lightgray">wff th</text>
</g>
<!-- n2413&#45;&gt;n2421 -->
<g id="edge14" class="edge"><title>n2413&#45;&gt;n2421</title>
<path fill="none" stroke="black" d="M637.849,-290.932C679.934,-296.539 765.147,-311.353 829.09,-345 842.021,-351.804 854.535,-361.989 864.605,-371.395"/>
<polygon fill="black" stroke="black" points="862.179,-373.918 871.795,-378.366 867.052,-368.892 862.179,-373.918"/>
<text text-anchor="middle" x="742.59" y="-348.8" font-family="Times New Roman,serif" font-size="14.00">|&#45; ( ph &#45;&gt; ( ps &#45;&gt; ( ch &#45;&gt; th ) ) )</text>
</g>
<!-- n2420 -->
<g id="node15" class="node"><title>n2420</title>
<ellipse fill="cyan" stroke="black" cx="611.09" cy="-196" rx="27" ry="18"/>
<text text-anchor="middle" x="611.09" y="-192.3" font-family="Times New Roman,serif" font-size="14.00">a1d</text>
</g>
<!-- n2413&#45;&gt;n2420 -->
<g id="edge33" class="edge"><title>n2413&#45;&gt;n2420</title>
</g>
<!-- n2411&#45;&gt;n2413 -->
<g id="edge12" class="edge"><title>n2411&#45;&gt;n2413</title>
<path fill="none" stroke="lightgray" d="M383.515,-354.958C422.873,-346.713 501.505,-329.037 566.09,-307 570.369,-305.54 574.815,-303.843 579.163,-302.077"/>
<polygon fill="lightgray" stroke="lightgray" points="580.575,-305.279 588.423,-298.162 577.85,-298.832 580.575,-305.279"/>
<text text-anchor="middle" x="499.09" y="-346.8" font-family="Times New Roman,serif" font-size="14.00" fill="lightgray">wff ph</text>
</g>
<!-- n2412 -->
<g id="node13" class="node"><title>n2412</title>
<ellipse fill="orange" stroke="black" cx="357.545" cy="-288" rx="56.59" ry="18"/>
<text text-anchor="middle" x="357.545" y="-284.3" font-family="Times New Roman,serif" font-size="14.00">impbid21d.1</text>
</g>
<!-- n2411&#45;&gt;n2412 -->
<g id="edge16" class="edge"><title>n2411&#45;&gt;n2412</title>
</g>
<!-- n2412&#45;&gt;n2413 -->
<g id="edge13" class="edge"><title>n2412&#45;&gt;n2413</title>
<path fill="none" stroke="black" d="M414.371,-288C462.971,-288 532.001,-288 573.764,-288"/>
<polygon fill="black" stroke="black" points="574.018,-291.5 584.018,-288 574.018,-284.5 574.018,-291.5"/>
<text text-anchor="middle" x="499.09" y="-291.8" font-family="Times New Roman,serif" font-size="14.00">|&#45; ( ps &#45;&gt; ( ch &#45;&gt; th ) )</text>
</g>
<!-- n2414 -->
<g id="node14" class="node"><title>n2414</title>
<ellipse fill="none" stroke="lightgray" cx="357.545" cy="-234" rx="27" ry="18"/>
<text text-anchor="middle" x="357.545" y="-230.3" font-family="Times New Roman,serif" font-size="14.00" fill="lightgray">wph</text>
</g>
<!-- n2414&#45;&gt;n2420 -->
<g id="edge17" class="edge"><title>n2414&#45;&gt;n2420</title>
<path fill="none" stroke="lightgray" d="M384.547,-231.248C423.969,-226.905 501.151,-217.736 566.09,-206 569.152,-205.447 572.323,-204.824 575.495,-204.168"/>
<polygon fill="lightgray" stroke="lightgray" points="576.472,-207.537 585.502,-201.996 574.987,-200.697 576.472,-207.537"/>
<text text-anchor="middle" x="499.09" y="-229.8" font-family="Times New Roman,serif" font-size="14.00" fill="lightgray">wff ph</text>
</g>
<!-- n2417 -->
<g id="node17" class="node"><title>n2417</title>
<ellipse fill="none" stroke="lightgray" cx="357.545" cy="-162" rx="27" ry="18"/>
<text text-anchor="middle" x="357.545" y="-158.3" font-family="Times New Roman,serif" font-size="14.00" fill="lightgray">wi</text>
</g>
<!-- n2414&#45;&gt;n2417 -->
<g id="edge25" class="edge"><title>n2414&#45;&gt;n2417</title>
</g>
<!-- n2420&#45;&gt;n2421 -->
<g id="edge24" class="edge"><title>n2420&#45;&gt;n2421</title>
<path fill="none" stroke="black" d="M638.053,-199.061C682.357,-205.542 773.177,-224.453 829.09,-275 856.361,-299.654 872.103,-339.937 880.121,-366.948"/>
<polygon fill="black" stroke="black" points="876.851,-368.248 882.915,-376.935 883.592,-366.362 876.851,-368.248"/>
<text text-anchor="middle" x="742.59" y="-278.8" font-family="Times New Roman,serif" font-size="14.00">|&#45; ( ph &#45;&gt; ( ps &#45;&gt; ( th &#45;&gt; ch ) ) )</text>
</g>
<!-- n2415 -->
<g id="node16" class="node"><title>n2415</title>
<ellipse fill="none" stroke="lightgray" cx="154" cy="-190" rx="27" ry="18"/>
<text text-anchor="middle" x="154" y="-186.3" font-family="Times New Roman,serif" font-size="14.00" fill="lightgray">wth</text>
</g>
<!-- n2415&#45;&gt;n2417 -->
<g id="edge18" class="edge"><title>n2415&#45;&gt;n2417</title>
<path fill="none" stroke="lightgray" d="M180.526,-186.454C216.092,-181.513 280.711,-172.535 320.981,-166.941"/>
<polygon fill="lightgray" stroke="lightgray" points="321.486,-170.404 330.909,-165.562 320.522,-163.471 321.486,-170.404"/>
<text text-anchor="middle" x="241" y="-187.8" font-family="Times New Roman,serif" font-size="14.00" fill="lightgray">wff th</text>
</g>
<!-- n2416 -->
<g id="node18" class="node"><title>n2416</title>
<ellipse fill="none" stroke="lightgray" cx="154" cy="-118" rx="27" ry="18"/>
<text text-anchor="middle" x="154" y="-114.3" font-family="Times New Roman,serif" font-size="14.00" fill="lightgray">wch</text>
</g>
<!-- n2415&#45;&gt;n2416 -->
<g id="edge21" class="edge"><title>n2415&#45;&gt;n2416</title>
</g>
<!-- n2417&#45;&gt;n2420 -->
<g id="edge20" class="edge"><title>n2417&#45;&gt;n2420</title>
<path fill="none" stroke="lightgray" d="M384.049,-165.447C429.154,-171.544 523.081,-184.239 574.522,-191.192"/>
<polygon fill="lightgray" stroke="lightgray" points="574.14,-194.673 584.519,-192.544 575.078,-187.736 574.14,-194.673"/>
<text text-anchor="middle" x="499.09" y="-193.8" font-family="Times New Roman,serif" font-size="14.00" fill="lightgray">wff ( th &#45;&gt; ch )</text>
</g>
<!-- n2418 -->
<g id="node19" class="node"><title>n2418</title>
<ellipse fill="none" stroke="lightgray" cx="357.545" cy="-90" rx="27" ry="18"/>
<text text-anchor="middle" x="357.545" y="-86.3" font-family="Times New Roman,serif" font-size="14.00" fill="lightgray">wps</text>
</g>
<!-- n2417&#45;&gt;n2418 -->
<g id="edge26" class="edge"><title>n2417&#45;&gt;n2418</title>
</g>
<!-- n2416&#45;&gt;n2417 -->
<g id="edge19" class="edge"><title>n2416&#45;&gt;n2417</title>
<path fill="none" stroke="lightgray" d="M180.118,-123.484C215.841,-131.282 281.454,-145.607 321.814,-154.418"/>
<polygon fill="lightgray" stroke="lightgray" points="321.227,-157.872 331.743,-156.585 322.72,-151.033 321.227,-157.872"/>
<text text-anchor="middle" x="241" y="-149.8" font-family="Times New Roman,serif" font-size="14.00" fill="lightgray">wff ch</text>
</g>
<!-- n2418&#45;&gt;n2420 -->
<g id="edge22" class="edge"><title>n2418&#45;&gt;n2420</title>
<path fill="none" stroke="lightgray" d="M384.029,-93.9494C424.772,-101.091 506.088,-118.793 566.09,-154 574.785,-159.102 583.115,-166.24 590.141,-173.186"/>
<polygon fill="lightgray" stroke="lightgray" points="587.758,-175.756 597.211,-180.541 592.805,-170.906 587.758,-175.756"/>
<text text-anchor="middle" x="499.09" y="-157.8" font-family="Times New Roman,serif" font-size="14.00" fill="lightgray">wff ps</text>
</g>
<!-- n2419 -->
<g id="node20" class="node"><title>n2419</title>
<ellipse fill="orange" stroke="black" cx="357.545" cy="-18" rx="56.59" ry="18"/>
<text text-anchor="middle" x="357.545" y="-14.3" font-family="Times New Roman,serif" font-size="14.00">impbid21d.2</text>
</g>
<!-- n2418&#45;&gt;n2419 -->
<g id="edge27" class="edge"><title>n2418&#45;&gt;n2419</title>
</g>
<!-- n2419&#45;&gt;n2420 -->
<g id="edge23" class="edge"><title>n2419&#45;&gt;n2420</title>
<path fill="none" stroke="black" d="M412.207,-22.9584C458.34,-29.8811 523.918,-46.4396 566.09,-86 589.192,-107.671 600.422,-143.076 605.703,-167.848"/>
<polygon fill="black" stroke="black" points="602.282,-168.591 607.62,-177.743 609.154,-167.26 602.282,-168.591"/>
<text text-anchor="middle" x="499.09" y="-89.8" font-family="Times New Roman,serif" font-size="14.00">|&#45; ( ph &#45;&gt; ( th &#45;&gt; ch ) )</text>
</g>
</g>
</svg>
