<?xml version="1.0" encoding="UTF-8" standalone="no"?>
<!DOCTYPE svg PUBLIC "-//W3C//DTD SVG 1.1//EN"
 "http://www.w3.org/Graphics/SVG/1.1/DTD/svg11.dtd">
<!-- Generated by graphviz version 2.38.0 (20140413.2041)
 -->
<!-- Title: proof_impbid2 Pages: 1 -->
<svg width="821pt" height="404pt"
 viewBox="0.00 0.00 820.67 404.00" xmlns="http://www.w3.org/2000/svg" xmlns:xlink="http://www.w3.org/1999/xlink">
<g id="graph0" class="graph" transform="scale(1 1) rotate(0) translate(4 400)">
<title>proof_impbid2</title>
<polygon fill="white" stroke="none" points="-4,4 -4,-400 816.672,-400 816.672,4 -4,4"/>
<!-- n4595 -->
<g id="node1" class="node"><title>n4595</title>
<ellipse fill="none" stroke="lightgray" cx="297.188" cy="-378" rx="27" ry="18"/>
<text text-anchor="middle" x="297.188" y="-374.3" font-family="Times New Roman,serif" font-size="14.00" fill="lightgray">wph</text>
</g>
<!-- n4604 -->
<g id="node2" class="node"><title>n4604</title>
<ellipse fill="cyan" stroke="black" cx="545.831" cy="-269" rx="38.1938" ry="18"/>
<text text-anchor="middle" x="545.831" y="-265.3" font-family="Times New Roman,serif" font-size="14.00">bicomd</text>
</g>
<!-- n4595&#45;&gt;n4604 -->
<g id="edge1" class="edge"><title>n4595&#45;&gt;n4604</title>
<path fill="none" stroke="lightgray" d="M323.301,-373.145C361.117,-365.128 434.143,-346.863 489.484,-316 501.01,-309.572 512.365,-300.542 521.761,-292.112"/>
<polygon fill="lightgray" stroke="lightgray" points="524.21,-294.614 529.154,-285.243 519.446,-289.486 524.21,-294.614"/>
<text text-anchor="middle" x="422.484" y="-368.8" font-family="Times New Roman,serif" font-size="14.00" fill="lightgray">wff ph</text>
</g>
<!-- n4596 -->
<g id="node3" class="node"><title>n4596</title>
<ellipse fill="none" stroke="lightgray" cx="297.188" cy="-306" rx="27" ry="18"/>
<text text-anchor="middle" x="297.188" y="-302.3" font-family="Times New Roman,serif" font-size="14.00" fill="lightgray">wch</text>
</g>
<!-- n4595&#45;&gt;n4596 -->
<g id="edge15" class="edge"><title>n4595&#45;&gt;n4596</title>
</g>
<!-- QED -->
<g id="node11" class="node"><title>QED</title>
</g>
<!-- n4604&#45;&gt;QED -->
<g id="edge14" class="edge"><title>n4604&#45;&gt;QED</title>
<path fill="none" stroke="black" d="M584.422,-269C628.08,-269 699.729,-269 743.817,-269"/>
<polygon fill="black" stroke="black" points="743.86,-272.5 753.86,-269 743.86,-265.5 743.86,-272.5"/>
<text text-anchor="middle" x="669.178" y="-272.8" font-family="Times New Roman,serif" font-size="14.00">|&#45; ( ph &#45;&gt; ( ps &lt;&#45;&gt; ch ) )</text>
</g>
<!-- n4596&#45;&gt;n4604 -->
<g id="edge2" class="edge"><title>n4596&#45;&gt;n4604</title>
<path fill="none" stroke="lightgray" d="M323.654,-302.18C364.963,-295.983 447.155,-283.653 498.88,-275.893"/>
<polygon fill="lightgray" stroke="lightgray" points="499.428,-279.35 508.798,-274.405 498.389,-272.428 499.428,-279.35"/>
<text text-anchor="middle" x="422.484" y="-300.8" font-family="Times New Roman,serif" font-size="14.00" fill="lightgray">wff ch</text>
</g>
<!-- n4597 -->
<g id="node4" class="node"><title>n4597</title>
<ellipse fill="none" stroke="lightgray" cx="297.188" cy="-234" rx="27" ry="18"/>
<text text-anchor="middle" x="297.188" y="-230.3" font-family="Times New Roman,serif" font-size="14.00" fill="lightgray">wps</text>
</g>
<!-- n4596&#45;&gt;n4597 -->
<g id="edge16" class="edge"><title>n4596&#45;&gt;n4597</title>
</g>
<!-- n4597&#45;&gt;n4604 -->
<g id="edge3" class="edge"><title>n4597&#45;&gt;n4604</title>
<path fill="none" stroke="lightgray" d="M323.9,-237.278C360.653,-242.013 430.313,-251.169 489.484,-260 492.71,-260.481 496.039,-260.991 499.389,-261.513"/>
<polygon fill="lightgray" stroke="lightgray" points="498.997,-264.994 509.422,-263.101 500.092,-258.08 498.997,-264.994"/>
<text text-anchor="middle" x="422.484" y="-263.8" font-family="Times New Roman,serif" font-size="14.00" fill="lightgray">wff ps</text>
</g>
<!-- n4603 -->
<g id="node6" class="node"><title>n4603</title>
<ellipse fill="cyan" stroke="black" cx="297.188" cy="-162" rx="40.0939" ry="18"/>
<text text-anchor="middle" x="297.188" y="-158.3" font-family="Times New Roman,serif" font-size="14.00">impbid1</text>
</g>
<!-- n4597&#45;&gt;n4603 -->
<g id="edge17" class="edge"><title>n4597&#45;&gt;n4603</title>
</g>
<!-- n4598 -->
<g id="node5" class="node"><title>n4598</title>
<ellipse fill="none" stroke="lightgray" cx="47.4458" cy="-306" rx="27" ry="18"/>
<text text-anchor="middle" x="47.4458" y="-302.3" font-family="Times New Roman,serif" font-size="14.00" fill="lightgray">wph</text>
</g>
<!-- n4598&#45;&gt;n4603 -->
<g id="edge4" class="edge"><title>n4598&#45;&gt;n4603</title>
<path fill="none" stroke="lightgray" d="M73.7242,-301.6C112.706,-293.762 188.275,-274.277 238.892,-234 250.177,-225.02 248.13,-218.456 256.892,-207 262.12,-200.165 268.086,-193.033 273.764,-186.515"/>
<polygon fill="lightgray" stroke="lightgray" points="276.714,-188.463 280.724,-178.656 271.474,-183.822 276.714,-188.463"/>
<text text-anchor="middle" x="175.892" y="-294.8" font-family="Times New Roman,serif" font-size="14.00" fill="lightgray">wff ph</text>
</g>
<!-- n4599 -->
<g id="node7" class="node"><title>n4599</title>
<ellipse fill="none" stroke="lightgray" cx="47.4458" cy="-234" rx="27" ry="18"/>
<text text-anchor="middle" x="47.4458" y="-230.3" font-family="Times New Roman,serif" font-size="14.00" fill="lightgray">wch</text>
</g>
<!-- n4598&#45;&gt;n4599 -->
<g id="edge10" class="edge"><title>n4598&#45;&gt;n4599</title>
</g>
<!-- n4603&#45;&gt;n4604 -->
<g id="edge9" class="edge"><title>n4603&#45;&gt;n4604</title>
<path fill="none" stroke="black" d="M334.818,-168.919C374.656,-177.46 439.347,-194.35 489.484,-222 501.04,-228.373 512.401,-237.393 521.793,-245.83"/>
<polygon fill="black" stroke="black" points="519.477,-248.456 529.18,-252.709 524.247,-243.333 519.477,-248.456"/>
<text text-anchor="middle" x="422.484" y="-225.8" font-family="Times New Roman,serif" font-size="14.00">|&#45; ( ph &#45;&gt; ( ch &lt;&#45;&gt; ps ) )</text>
</g>
<!-- n4599&#45;&gt;n4603 -->
<g id="edge5" class="edge"><title>n4599&#45;&gt;n4603</title>
<path fill="none" stroke="lightgray" d="M72.9072,-227.602C109.262,-218 179.635,-199.059 238.892,-181 244.155,-179.396 249.669,-177.651 255.109,-175.89"/>
<polygon fill="lightgray" stroke="lightgray" points="256.341,-179.17 264.754,-172.73 254.161,-172.518 256.341,-179.17"/>
<text text-anchor="middle" x="175.892" y="-218.8" font-family="Times New Roman,serif" font-size="14.00" fill="lightgray">wff ch</text>
</g>
<!-- n4600 -->
<g id="node8" class="node"><title>n4600</title>
<ellipse fill="none" stroke="lightgray" cx="47.4458" cy="-162" rx="27" ry="18"/>
<text text-anchor="middle" x="47.4458" y="-158.3" font-family="Times New Roman,serif" font-size="14.00" fill="lightgray">wps</text>
</g>
<!-- n4599&#45;&gt;n4600 -->
<g id="edge11" class="edge"><title>n4599&#45;&gt;n4600</title>
</g>
<!-- n4600&#45;&gt;n4603 -->
<g id="edge6" class="edge"><title>n4600&#45;&gt;n4603</title>
<path fill="none" stroke="lightgray" d="M74.4903,-162C115.169,-162 194.492,-162 246.393,-162"/>
<polygon fill="lightgray" stroke="lightgray" points="246.708,-165.5 256.708,-162 246.708,-158.5 246.708,-165.5"/>
<text text-anchor="middle" x="175.892" y="-165.8" font-family="Times New Roman,serif" font-size="14.00" fill="lightgray">wff ps</text>
</g>
<!-- n4601 -->
<g id="node9" class="node"><title>n4601</title>
<ellipse fill="orange" stroke="black" cx="47.4458" cy="-90" rx="47.3916" ry="18"/>
<text text-anchor="middle" x="47.4458" y="-86.3" font-family="Times New Roman,serif" font-size="14.00">impbid2.2</text>
</g>
<!-- n4600&#45;&gt;n4601 -->
<g id="edge12" class="edge"><title>n4600&#45;&gt;n4601</title>
</g>
<!-- n4601&#45;&gt;n4603 -->
<g id="edge7" class="edge"><title>n4601&#45;&gt;n4603</title>
<path fill="none" stroke="black" d="M86.9064,-100.113C125.486,-110.395 186.529,-127.042 238.892,-143 244.155,-144.604 249.669,-146.349 255.109,-148.11"/>
<polygon fill="black" stroke="black" points="254.161,-151.482 264.754,-151.27 256.341,-144.83 254.161,-151.482"/>
<text text-anchor="middle" x="175.892" y="-146.8" font-family="Times New Roman,serif" font-size="14.00">|&#45; ( ph &#45;&gt; ( ch &#45;&gt; ps ) )</text>
</g>
<!-- n4602 -->
<g id="node10" class="node"><title>n4602</title>
<ellipse fill="orange" stroke="black" cx="47.4458" cy="-18" rx="47.3916" ry="18"/>
<text text-anchor="middle" x="47.4458" y="-14.3" font-family="Times New Roman,serif" font-size="14.00">impbid2.1</text>
</g>
<!-- n4601&#45;&gt;n4602 -->
<g id="edge13" class="edge"><title>n4601&#45;&gt;n4602</title>
</g>
<!-- n4602&#45;&gt;n4603 -->
<g id="edge8" class="edge"><title>n4602&#45;&gt;n4603</title>
<path fill="none" stroke="black" d="M89.4254,-26.7237C130.226,-36.8838 193.194,-56.6784 238.892,-90 255.832,-102.353 270.462,-120.963 280.698,-136.169"/>
<polygon fill="black" stroke="black" points="277.824,-138.169 286.201,-144.655 283.697,-134.36 277.824,-138.169"/>
<text text-anchor="middle" x="175.892" y="-93.8" font-family="Times New Roman,serif" font-size="14.00">|&#45; ( ps &#45;&gt; ch )</text>
</g>
</g>
</svg>
