<?xml version="1.0" encoding="UTF-8" standalone="no"?>
<!DOCTYPE svg PUBLIC "-//W3C//DTD SVG 1.1//EN"
 "http://www.w3.org/Graphics/SVG/1.1/DTD/svg11.dtd">
<!-- Generated by graphviz version 2.38.0 (20140413.2041)
 -->
<!-- Title: proof_ioran Pages: 1 -->
<svg width="987pt" height="620pt"
 viewBox="0.00 0.00 987.48 620.00" xmlns="http://www.w3.org/2000/svg" xmlns:xlink="http://www.w3.org/1999/xlink">
<g id="graph0" class="graph" transform="scale(1 1) rotate(0) translate(4 616)">
<title>proof_ioran</title>
<polygon fill="white" stroke="none" points="-4,4 -4,-616 983.481,-616 983.481,4 -4,4"/>
<!-- n8464 -->
<g id="node1" class="node"><title>n8464</title>
<ellipse fill="none" stroke="lightgray" cx="27" cy="-594" rx="27" ry="18"/>
<text text-anchor="middle" x="27" y="-590.3" font-family="Times New Roman,serif" font-size="14.00" fill="lightgray">wph</text>
</g>
<!-- n8465 -->
<g id="node2" class="node"><title>n8465</title>
<ellipse fill="none" stroke="lightgray" cx="154" cy="-594" rx="27" ry="18"/>
<text text-anchor="middle" x="154" y="-590.3" font-family="Times New Roman,serif" font-size="14.00" fill="lightgray">wn</text>
</g>
<!-- n8464&#45;&gt;n8465 -->
<g id="edge1" class="edge"><title>n8464&#45;&gt;n8465</title>
<path fill="none" stroke="lightgray" d="M54.2041,-594C72.3711,-594 96.7994,-594 116.82,-594"/>
<polygon fill="lightgray" stroke="lightgray" points="116.83,-597.5 126.83,-594 116.83,-590.5 116.83,-597.5"/>
<text text-anchor="middle" x="90.5" y="-597.8" font-family="Times New Roman,serif" font-size="14.00" fill="lightgray">wff ph</text>
</g>
<!-- n8467 -->
<g id="node3" class="node"><title>n8467</title>
<ellipse fill="none" stroke="lightgray" cx="304.347" cy="-485" rx="27" ry="18"/>
<text text-anchor="middle" x="304.347" y="-481.3" font-family="Times New Roman,serif" font-size="14.00" fill="lightgray">wi</text>
</g>
<!-- n8465&#45;&gt;n8467 -->
<g id="edge2" class="edge"><title>n8465&#45;&gt;n8467</title>
<path fill="none" stroke="lightgray" d="M173.836,-581.679C192.845,-569.097 222.897,-548.795 248,-530 258.274,-522.307 269.301,-513.468 278.786,-505.671"/>
<polygon fill="lightgray" stroke="lightgray" points="281.2,-508.217 286.668,-499.143 276.734,-502.826 281.2,-508.217"/>
<text text-anchor="middle" x="223.5" y="-567.8" font-family="Times New Roman,serif" font-size="14.00" fill="lightgray">wff &#45;. ph</text>
</g>
<!-- n8466 -->
<g id="node4" class="node"><title>n8466</title>
<ellipse fill="none" stroke="lightgray" cx="154" cy="-522" rx="27" ry="18"/>
<text text-anchor="middle" x="154" y="-518.3" font-family="Times New Roman,serif" font-size="14.00" fill="lightgray">wps</text>
</g>
<!-- n8465&#45;&gt;n8466 -->
<g id="edge5" class="edge"><title>n8465&#45;&gt;n8466</title>
</g>
<!-- n8482 -->
<g id="node5" class="node"><title>n8482</title>
<ellipse fill="cyan" stroke="black" cx="642.34" cy="-306" rx="39.7935" ry="18"/>
<text text-anchor="middle" x="642.34" y="-302.3" font-family="Times New Roman,serif" font-size="14.00">xchnxbi</text>
</g>
<!-- n8467&#45;&gt;n8482 -->
<g id="edge4" class="edge"><title>n8467&#45;&gt;n8482</title>
<path fill="none" stroke="lightgray" d="M331.312,-483.521C384.318,-479.272 506.554,-463.054 584.693,-402 607.306,-384.332 622.728,-354.921 631.703,-333.3"/>
<polygon fill="lightgray" stroke="lightgray" points="634.964,-334.571 635.376,-323.984 628.452,-332.003 634.964,-334.571"/>
<text text-anchor="middle" x="472.693" y="-484.8" font-family="Times New Roman,serif" font-size="14.00" fill="lightgray">wff ( &#45;. ph &#45;&gt; ps )</text>
</g>
<!-- n8472 -->
<g id="node8" class="node"><title>n8472</title>
<ellipse fill="none" stroke="lightgray" cx="304.347" cy="-396" rx="27" ry="18"/>
<text text-anchor="middle" x="304.347" y="-392.3" font-family="Times New Roman,serif" font-size="14.00" fill="lightgray">wa</text>
</g>
<!-- n8467&#45;&gt;n8472 -->
<g id="edge25" class="edge"><title>n8467&#45;&gt;n8472</title>
</g>
<!-- n8466&#45;&gt;n8467 -->
<g id="edge3" class="edge"><title>n8466&#45;&gt;n8467</title>
<path fill="none" stroke="lightgray" d="M179.496,-515.89C203.869,-509.811 241.485,-500.429 268.869,-493.599"/>
<polygon fill="lightgray" stroke="lightgray" points="269.958,-496.935 278.814,-491.119 268.264,-490.143 269.958,-496.935"/>
<text text-anchor="middle" x="223.5" y="-514.8" font-family="Times New Roman,serif" font-size="14.00" fill="lightgray">wff ps</text>
</g>
<!-- QED -->
<g id="node20" class="node"><title>QED</title>
</g>
<!-- n8482&#45;&gt;QED -->
<g id="edge24" class="edge"><title>n8482&#45;&gt;QED</title>
<path fill="none" stroke="black" d="M682.081,-306C740.803,-306 851.708,-306 910.453,-306"/>
<polygon fill="black" stroke="black" points="910.79,-309.5 920.79,-306 910.79,-302.5 910.79,-309.5"/>
<text text-anchor="middle" x="801.486" y="-309.8" font-family="Times New Roman,serif" font-size="14.00">|&#45; ( &#45;. ( ph / ps ) &lt;&#45;&gt; ( &#45;. ph / &#45;. ps ) )</text>
</g>
<!-- n8468 -->
<g id="node6" class="node"><title>n8468</title>
<ellipse fill="none" stroke="lightgray" cx="27" cy="-468" rx="27" ry="18"/>
<text text-anchor="middle" x="27" y="-464.3" font-family="Times New Roman,serif" font-size="14.00" fill="lightgray">wph</text>
</g>
<!-- n8469 -->
<g id="node7" class="node"><title>n8469</title>
<ellipse fill="none" stroke="lightgray" cx="154" cy="-468" rx="27" ry="18"/>
<text text-anchor="middle" x="154" y="-464.3" font-family="Times New Roman,serif" font-size="14.00" fill="lightgray">wn</text>
</g>
<!-- n8468&#45;&gt;n8469 -->
<g id="edge6" class="edge"><title>n8468&#45;&gt;n8469</title>
<path fill="none" stroke="lightgray" d="M54.2041,-468C72.3711,-468 96.7994,-468 116.82,-468"/>
<polygon fill="lightgray" stroke="lightgray" points="116.83,-471.5 126.83,-468 116.83,-464.5 116.83,-471.5"/>
<text text-anchor="middle" x="90.5" y="-471.8" font-family="Times New Roman,serif" font-size="14.00" fill="lightgray">wff ph</text>
</g>
<!-- n8469&#45;&gt;n8472 -->
<g id="edge7" class="edge"><title>n8469&#45;&gt;n8472</title>
<path fill="none" stroke="lightgray" d="M176.254,-457.684C201.591,-445.387 244.117,-424.747 272.93,-410.763"/>
<polygon fill="lightgray" stroke="lightgray" points="274.663,-413.812 282.132,-406.297 271.607,-407.514 274.663,-413.812"/>
<text text-anchor="middle" x="223.5" y="-448.8" font-family="Times New Roman,serif" font-size="14.00" fill="lightgray">wff &#45;. ph</text>
</g>
<!-- n8471 -->
<g id="node10" class="node"><title>n8471</title>
<ellipse fill="none" stroke="lightgray" cx="154" cy="-396" rx="27" ry="18"/>
<text text-anchor="middle" x="154" y="-392.3" font-family="Times New Roman,serif" font-size="14.00" fill="lightgray">wn</text>
</g>
<!-- n8469&#45;&gt;n8471 -->
<g id="edge11" class="edge"><title>n8469&#45;&gt;n8471</title>
</g>
<!-- n8472&#45;&gt;n8482 -->
<g id="edge10" class="edge"><title>n8472&#45;&gt;n8482</title>
<path fill="none" stroke="lightgray" d="M330.178,-390.347C379.162,-379.051 491.567,-352.411 584.693,-325 589.917,-323.462 595.381,-321.756 600.767,-320.015"/>
<polygon fill="lightgray" stroke="lightgray" points="601.904,-323.326 610.307,-316.874 599.714,-316.677 601.904,-323.326"/>
<text text-anchor="middle" x="472.693" y="-386.8" font-family="Times New Roman,serif" font-size="14.00" fill="lightgray">wff ( &#45;. ph / &#45;. ps )</text>
</g>
<!-- n8475 -->
<g id="node12" class="node"><title>n8475</title>
<ellipse fill="none" stroke="lightgray" cx="304.347" cy="-306" rx="27" ry="18"/>
<text text-anchor="middle" x="304.347" y="-302.3" font-family="Times New Roman,serif" font-size="14.00" fill="lightgray">wo</text>
</g>
<!-- n8472&#45;&gt;n8475 -->
<g id="edge26" class="edge"><title>n8472&#45;&gt;n8475</title>
</g>
<!-- n8470 -->
<g id="node9" class="node"><title>n8470</title>
<ellipse fill="none" stroke="lightgray" cx="27" cy="-396" rx="27" ry="18"/>
<text text-anchor="middle" x="27" y="-392.3" font-family="Times New Roman,serif" font-size="14.00" fill="lightgray">wps</text>
</g>
<!-- n8470&#45;&gt;n8471 -->
<g id="edge8" class="edge"><title>n8470&#45;&gt;n8471</title>
<path fill="none" stroke="lightgray" d="M54.2041,-396C72.3711,-396 96.7994,-396 116.82,-396"/>
<polygon fill="lightgray" stroke="lightgray" points="116.83,-399.5 126.83,-396 116.83,-392.5 116.83,-399.5"/>
<text text-anchor="middle" x="90.5" y="-399.8" font-family="Times New Roman,serif" font-size="14.00" fill="lightgray">wff ps</text>
</g>
<!-- n8471&#45;&gt;n8472 -->
<g id="edge9" class="edge"><title>n8471&#45;&gt;n8472</title>
<path fill="none" stroke="lightgray" d="M181.18,-396C204.972,-396 240.308,-396 266.865,-396"/>
<polygon fill="lightgray" stroke="lightgray" points="266.929,-399.5 276.929,-396 266.929,-392.5 266.929,-399.5"/>
<text text-anchor="middle" x="223.5" y="-399.8" font-family="Times New Roman,serif" font-size="14.00" fill="lightgray">wff &#45;. ps</text>
</g>
<!-- n8473 -->
<g id="node11" class="node"><title>n8473</title>
<ellipse fill="none" stroke="lightgray" cx="154" cy="-342" rx="27" ry="18"/>
<text text-anchor="middle" x="154" y="-338.3" font-family="Times New Roman,serif" font-size="14.00" fill="lightgray">wph</text>
</g>
<!-- n8473&#45;&gt;n8475 -->
<g id="edge12" class="edge"><title>n8473&#45;&gt;n8475</title>
<path fill="none" stroke="lightgray" d="M179.496,-336.055C203.869,-330.141 241.485,-321.012 268.869,-314.367"/>
<polygon fill="lightgray" stroke="lightgray" points="269.921,-317.713 278.814,-311.953 268.27,-310.911 269.921,-317.713"/>
<text text-anchor="middle" x="223.5" y="-334.8" font-family="Times New Roman,serif" font-size="14.00" fill="lightgray">wff ph</text>
</g>
<!-- n8474 -->
<g id="node13" class="node"><title>n8474</title>
<ellipse fill="none" stroke="lightgray" cx="154" cy="-270" rx="27" ry="18"/>
<text text-anchor="middle" x="154" y="-266.3" font-family="Times New Roman,serif" font-size="14.00" fill="lightgray">wps</text>
</g>
<!-- n8473&#45;&gt;n8474 -->
<g id="edge15" class="edge"><title>n8473&#45;&gt;n8474</title>
</g>
<!-- n8475&#45;&gt;n8482 -->
<g id="edge14" class="edge"><title>n8475&#45;&gt;n8482</title>
<path fill="none" stroke="lightgray" d="M331.432,-306C387.496,-306 520.236,-306 592.466,-306"/>
<polygon fill="lightgray" stroke="lightgray" points="592.667,-309.5 602.667,-306 592.667,-302.5 592.667,-309.5"/>
<text text-anchor="middle" x="472.693" y="-309.8" font-family="Times New Roman,serif" font-size="14.00" fill="lightgray">wff ( ph / ps )</text>
</g>
<!-- n8478 -->
<g id="node15" class="node"><title>n8478</title>
<ellipse fill="cyan" stroke="black" cx="304.347" cy="-216" rx="38.1938" ry="18"/>
<text text-anchor="middle" x="304.347" y="-212.3" font-family="Times New Roman,serif" font-size="14.00">pm4.65</text>
</g>
<!-- n8475&#45;&gt;n8478 -->
<g id="edge27" class="edge"><title>n8475&#45;&gt;n8478</title>
</g>
<!-- n8474&#45;&gt;n8475 -->
<g id="edge13" class="edge"><title>n8474&#45;&gt;n8475</title>
<path fill="none" stroke="lightgray" d="M179.496,-275.945C203.869,-281.859 241.485,-290.988 268.869,-297.633"/>
<polygon fill="lightgray" stroke="lightgray" points="268.27,-301.089 278.814,-300.047 269.921,-294.287 268.27,-301.089"/>
<text text-anchor="middle" x="223.5" y="-296.8" font-family="Times New Roman,serif" font-size="14.00" fill="lightgray">wff ps</text>
</g>
<!-- n8476 -->
<g id="node14" class="node"><title>n8476</title>
<ellipse fill="none" stroke="lightgray" cx="154" cy="-216" rx="27" ry="18"/>
<text text-anchor="middle" x="154" y="-212.3" font-family="Times New Roman,serif" font-size="14.00" fill="lightgray">wph</text>
</g>
<!-- n8476&#45;&gt;n8478 -->
<g id="edge16" class="edge"><title>n8476&#45;&gt;n8478</title>
<path fill="none" stroke="lightgray" d="M181.18,-216C201.704,-216 230.82,-216 255.48,-216"/>
<polygon fill="lightgray" stroke="lightgray" points="255.737,-219.5 265.737,-216 255.737,-212.5 255.737,-219.5"/>
<text text-anchor="middle" x="223.5" y="-219.8" font-family="Times New Roman,serif" font-size="14.00" fill="lightgray">wff ph</text>
</g>
<!-- n8477 -->
<g id="node16" class="node"><title>n8477</title>
<ellipse fill="none" stroke="lightgray" cx="154" cy="-144" rx="27" ry="18"/>
<text text-anchor="middle" x="154" y="-140.3" font-family="Times New Roman,serif" font-size="14.00" fill="lightgray">wps</text>
</g>
<!-- n8476&#45;&gt;n8477 -->
<g id="edge19" class="edge"><title>n8476&#45;&gt;n8477</title>
</g>
<!-- n8478&#45;&gt;n8482 -->
<g id="edge18" class="edge"><title>n8478&#45;&gt;n8482</title>
<path fill="none" stroke="black" d="M339.107,-223.72C391.847,-235.972 496.847,-261.143 584.693,-287 589.917,-288.538 595.381,-290.244 600.767,-291.985"/>
<polygon fill="black" stroke="black" points="599.714,-295.323 610.307,-295.126 601.904,-288.674 599.714,-295.323"/>
<text text-anchor="middle" x="472.693" y="-290.8" font-family="Times New Roman,serif" font-size="14.00">|&#45; ( &#45;. ( &#45;. ph &#45;&gt; ps ) &lt;&#45;&gt; ( &#45;. ph / &#45;. ps ) )</text>
</g>
<!-- n8481 -->
<g id="node18" class="node"><title>n8481</title>
<ellipse fill="cyan" stroke="black" cx="304.347" cy="-117" rx="38.1938" ry="18"/>
<text text-anchor="middle" x="304.347" y="-113.3" font-family="Times New Roman,serif" font-size="14.00">pm4.64</text>
</g>
<!-- n8478&#45;&gt;n8481 -->
<g id="edge28" class="edge"><title>n8478&#45;&gt;n8481</title>
</g>
<!-- n8477&#45;&gt;n8478 -->
<g id="edge17" class="edge"><title>n8477&#45;&gt;n8478</title>
<path fill="none" stroke="lightgray" d="M176.254,-154.316C200.151,-165.914 239.34,-184.934 267.892,-198.792"/>
<polygon fill="lightgray" stroke="lightgray" points="266.605,-202.058 277.129,-203.275 269.661,-195.76 266.605,-202.058"/>
<text text-anchor="middle" x="223.5" y="-192.8" font-family="Times New Roman,serif" font-size="14.00" fill="lightgray">wff ps</text>
</g>
<!-- n8479 -->
<g id="node17" class="node"><title>n8479</title>
<ellipse fill="none" stroke="lightgray" cx="154" cy="-90" rx="27" ry="18"/>
<text text-anchor="middle" x="154" y="-86.3" font-family="Times New Roman,serif" font-size="14.00" fill="lightgray">wph</text>
</g>
<!-- n8479&#45;&gt;n8481 -->
<g id="edge20" class="edge"><title>n8479&#45;&gt;n8481</title>
<path fill="none" stroke="lightgray" d="M180.165,-94.5802C201.547,-98.4719 232.764,-104.154 258.422,-108.823"/>
<polygon fill="lightgray" stroke="lightgray" points="257.844,-112.276 268.309,-110.623 259.098,-105.389 257.844,-112.276"/>
<text text-anchor="middle" x="223.5" y="-110.8" font-family="Times New Roman,serif" font-size="14.00" fill="lightgray">wff ph</text>
</g>
<!-- n8480 -->
<g id="node19" class="node"><title>n8480</title>
<ellipse fill="none" stroke="lightgray" cx="154" cy="-18" rx="27" ry="18"/>
<text text-anchor="middle" x="154" y="-14.3" font-family="Times New Roman,serif" font-size="14.00" fill="lightgray">wps</text>
</g>
<!-- n8479&#45;&gt;n8480 -->
<g id="edge23" class="edge"><title>n8479&#45;&gt;n8480</title>
</g>
<!-- n8481&#45;&gt;n8482 -->
<g id="edge22" class="edge"><title>n8481&#45;&gt;n8482</title>
<path fill="none" stroke="black" d="M341.818,-121.095C399.163,-129.185 511.415,-151.881 584.693,-211 606.626,-228.695 622.029,-257.323 631.18,-278.533"/>
<polygon fill="black" stroke="black" points="628.022,-280.058 635.058,-287.98 634.498,-277.4 628.022,-280.058"/>
<text text-anchor="middle" x="472.693" y="-214.8" font-family="Times New Roman,serif" font-size="14.00">|&#45; ( ( &#45;. ph &#45;&gt; ps ) &lt;&#45;&gt; ( ph / ps ) )</text>
</g>
<!-- n8480&#45;&gt;n8481 -->
<g id="edge21" class="edge"><title>n8480&#45;&gt;n8481</title>
<path fill="none" stroke="lightgray" d="M173.885,-30.58C192.678,-43.101 222.339,-62.869 248,-80 256.118,-85.4198 264.904,-91.2903 273.032,-96.7245"/>
<polygon fill="lightgray" stroke="lightgray" points="271.274,-99.7591 281.533,-102.408 275.165,-93.94 271.274,-99.7591"/>
<text text-anchor="middle" x="223.5" y="-83.8" font-family="Times New Roman,serif" font-size="14.00" fill="lightgray">wff ps</text>
</g>
</g>
</svg>
