<?xml version="1.0" encoding="UTF-8" standalone="no"?>
<!DOCTYPE svg PUBLIC "-//W3C//DTD SVG 1.1//EN"
 "http://www.w3.org/Graphics/SVG/1.1/DTD/svg11.dtd">
<!-- Generated by graphviz version 2.38.0 (20140413.2041)
 -->
<!-- Title: proof_jaao Pages: 1 -->
<svg width="979pt" height="660pt"
 viewBox="0.00 0.00 978.78 660.00" xmlns="http://www.w3.org/2000/svg" xmlns:xlink="http://www.w3.org/1999/xlink">
<g id="graph0" class="graph" transform="scale(1 1) rotate(0) translate(4 656)">
<title>proof_jaao</title>
<polygon fill="white" stroke="none" points="-4,4 -4,-656 974.783,-656 974.783,4 -4,4"/>
<!-- n8736 -->
<g id="node1" class="node"><title>n8736</title>
<ellipse fill="none" stroke="lightgray" cx="159.497" cy="-634" rx="27" ry="18"/>
<text text-anchor="middle" x="159.497" y="-630.3" font-family="Times New Roman,serif" font-size="14.00" fill="lightgray">wph</text>
</g>
<!-- n8738 -->
<g id="node2" class="node"><title>n8738</title>
<ellipse fill="none" stroke="lightgray" cx="387.141" cy="-604" rx="27" ry="18"/>
<text text-anchor="middle" x="387.141" y="-600.3" font-family="Times New Roman,serif" font-size="14.00" fill="lightgray">wa</text>
</g>
<!-- n8736&#45;&gt;n8738 -->
<g id="edge1" class="edge"><title>n8736&#45;&gt;n8738</title>
<path fill="none" stroke="lightgray" d="M186.381,-630.559C226.762,-625.19 304.843,-614.809 350.51,-608.737"/>
<polygon fill="lightgray" stroke="lightgray" points="351.107,-612.189 360.559,-607.401 350.185,-605.25 351.107,-612.189"/>
<text text-anchor="middle" x="272.994" y="-629.8" font-family="Times New Roman,serif" font-size="14.00" fill="lightgray">wff ph</text>
</g>
<!-- n8737 -->
<g id="node3" class="node"><title>n8737</title>
<ellipse fill="none" stroke="lightgray" cx="159.497" cy="-562" rx="27" ry="18"/>
<text text-anchor="middle" x="159.497" y="-558.3" font-family="Times New Roman,serif" font-size="14.00" fill="lightgray">wth</text>
</g>
<!-- n8736&#45;&gt;n8737 -->
<g id="edge4" class="edge"><title>n8736&#45;&gt;n8737</title>
</g>
<!-- n8756 -->
<g id="node4" class="node"><title>n8756</title>
<ellipse fill="cyan" stroke="black" cx="647.288" cy="-423" rx="27" ry="18"/>
<text text-anchor="middle" x="647.288" y="-419.3" font-family="Times New Roman,serif" font-size="14.00">jaod</text>
</g>
<!-- n8738&#45;&gt;n8756 -->
<g id="edge3" class="edge"><title>n8738&#45;&gt;n8756</title>
<path fill="none" stroke="lightgray" d="M414.18,-604.147C458.531,-602.981 549.081,-594.246 602.288,-545 628.693,-520.562 639.277,-479.1 643.504,-451.388"/>
<polygon fill="lightgray" stroke="lightgray" points="647.016,-451.526 644.873,-441.15 640.078,-450.598 647.016,-451.526"/>
<text text-anchor="middle" x="520.288" y="-605.8" font-family="Times New Roman,serif" font-size="14.00" fill="lightgray">wff ( ph / th )</text>
</g>
<!-- n8739 -->
<g id="node5" class="node"><title>n8739</title>
<ellipse fill="none" stroke="lightgray" cx="387.141" cy="-532" rx="27" ry="18"/>
<text text-anchor="middle" x="387.141" y="-528.3" font-family="Times New Roman,serif" font-size="14.00" fill="lightgray">wps</text>
</g>
<!-- n8738&#45;&gt;n8739 -->
<g id="edge31" class="edge"><title>n8738&#45;&gt;n8739</title>
</g>
<!-- n8737&#45;&gt;n8738 -->
<g id="edge2" class="edge"><title>n8737&#45;&gt;n8738</title>
<path fill="none" stroke="lightgray" d="M186.172,-565.849C220.45,-571.11 283.002,-581.142 335.994,-592 341.125,-593.051 346.529,-594.249 351.814,-595.47"/>
<polygon fill="lightgray" stroke="lightgray" points="351.19,-598.919 361.727,-597.818 352.803,-592.108 351.19,-598.919"/>
<text text-anchor="middle" x="272.994" y="-595.8" font-family="Times New Roman,serif" font-size="14.00" fill="lightgray">wff th</text>
</g>
<!-- QED -->
<g id="node22" class="node"><title>QED</title>
</g>
<!-- n8756&#45;&gt;QED -->
<g id="edge30" class="edge"><title>n8756&#45;&gt;QED</title>
<path fill="none" stroke="black" d="M674.481,-423C726.158,-423 841.46,-423 901.893,-423"/>
<polygon fill="black" stroke="black" points="902.159,-426.5 912.159,-423 902.159,-419.5 902.159,-426.5"/>
<text text-anchor="middle" x="793.288" y="-426.8" font-family="Times New Roman,serif" font-size="14.00">|&#45; ( ( ph / th ) &#45;&gt; ( ( ps / ta ) &#45;&gt; ch ) )</text>
</g>
<!-- n8739&#45;&gt;n8756 -->
<g id="edge5" class="edge"><title>n8739&#45;&gt;n8756</title>
<path fill="none" stroke="lightgray" d="M414.079,-529.458C456.346,-524.329 541.46,-509.81 602.288,-472 612.548,-465.623 621.834,-456.163 629.202,-447.251"/>
<polygon fill="lightgray" stroke="lightgray" points="631.997,-449.358 635.402,-439.326 626.484,-445.045 631.997,-449.358"/>
<text text-anchor="middle" x="520.288" y="-529.8" font-family="Times New Roman,serif" font-size="14.00" fill="lightgray">wff ps</text>
</g>
<!-- n8740 -->
<g id="node6" class="node"><title>n8740</title>
<ellipse fill="none" stroke="lightgray" cx="387.141" cy="-460" rx="27" ry="18"/>
<text text-anchor="middle" x="387.141" y="-456.3" font-family="Times New Roman,serif" font-size="14.00" fill="lightgray">wch</text>
</g>
<!-- n8739&#45;&gt;n8740 -->
<g id="edge32" class="edge"><title>n8739&#45;&gt;n8740</title>
</g>
<!-- n8740&#45;&gt;n8756 -->
<g id="edge6" class="edge"><title>n8740&#45;&gt;n8756</title>
<path fill="none" stroke="lightgray" d="M413.837,-456.317C460.226,-449.668 558.028,-435.65 610.776,-428.09"/>
<polygon fill="lightgray" stroke="lightgray" points="611.294,-431.552 620.696,-426.668 610.301,-424.622 611.294,-431.552"/>
<text text-anchor="middle" x="520.288" y="-456.8" font-family="Times New Roman,serif" font-size="14.00" fill="lightgray">wff ch</text>
</g>
<!-- n8741 -->
<g id="node7" class="node"><title>n8741</title>
<ellipse fill="none" stroke="lightgray" cx="387.141" cy="-388" rx="27" ry="18"/>
<text text-anchor="middle" x="387.141" y="-384.3" font-family="Times New Roman,serif" font-size="14.00" fill="lightgray">wta</text>
</g>
<!-- n8740&#45;&gt;n8741 -->
<g id="edge33" class="edge"><title>n8740&#45;&gt;n8741</title>
</g>
<!-- n8741&#45;&gt;n8756 -->
<g id="edge7" class="edge"><title>n8741&#45;&gt;n8756</title>
<path fill="none" stroke="lightgray" d="M413.948,-390.452C454.279,-394.437 534.642,-402.994 602.288,-414 605.174,-414.47 608.159,-414.995 611.151,-415.549"/>
<polygon fill="lightgray" stroke="lightgray" points="610.739,-419.034 621.223,-417.508 612.076,-412.163 610.739,-419.034"/>
<text text-anchor="middle" x="520.288" y="-417.8" font-family="Times New Roman,serif" font-size="14.00" fill="lightgray">wff ta</text>
</g>
<!-- n8748 -->
<g id="node9" class="node"><title>n8748</title>
<ellipse fill="cyan" stroke="black" cx="387.141" cy="-316" rx="33.2948" ry="18"/>
<text text-anchor="middle" x="387.141" y="-312.3" font-family="Times New Roman,serif" font-size="14.00">adantr</text>
</g>
<!-- n8741&#45;&gt;n8748 -->
<g id="edge34" class="edge"><title>n8741&#45;&gt;n8748</title>
</g>
<!-- n8742 -->
<g id="node8" class="node"><title>n8742</title>
<ellipse fill="none" stroke="lightgray" cx="159.497" cy="-504" rx="27" ry="18"/>
<text text-anchor="middle" x="159.497" y="-500.3" font-family="Times New Roman,serif" font-size="14.00" fill="lightgray">wph</text>
</g>
<!-- n8742&#45;&gt;n8748 -->
<g id="edge8" class="edge"><title>n8742&#45;&gt;n8748</title>
<path fill="none" stroke="lightgray" d="M186.539,-501.939C225.11,-497.444 297.046,-483.279 335.994,-439 359.492,-412.286 339.372,-393.434 353.994,-361 357.196,-353.899 361.596,-346.78 366.115,-340.367"/>
<polygon fill="lightgray" stroke="lightgray" points="369.084,-342.239 372.247,-332.127 363.469,-338.059 369.084,-342.239"/>
<text text-anchor="middle" x="272.994" y="-502.8" font-family="Times New Roman,serif" font-size="14.00" fill="lightgray">wff ph</text>
</g>
<!-- n8745 -->
<g id="node11" class="node"><title>n8745</title>
<ellipse fill="none" stroke="lightgray" cx="159.497" cy="-432" rx="27" ry="18"/>
<text text-anchor="middle" x="159.497" y="-428.3" font-family="Times New Roman,serif" font-size="14.00" fill="lightgray">wi</text>
</g>
<!-- n8742&#45;&gt;n8745 -->
<g id="edge16" class="edge"><title>n8742&#45;&gt;n8745</title>
</g>
<!-- n8748&#45;&gt;n8756 -->
<g id="edge15" class="edge"><title>n8748&#45;&gt;n8756</title>
<path fill="none" stroke="black" d="M420.098,-319.215C463.977,-324.817 544.056,-339.39 602.288,-375 612.228,-381.078 621.296,-390.042 628.583,-398.583"/>
<polygon fill="black" stroke="black" points="625.993,-400.947 634.994,-406.534 631.442,-396.553 625.993,-400.947"/>
<text text-anchor="middle" x="520.288" y="-378.8" font-family="Times New Roman,serif" font-size="14.00">|&#45; ( ( ph / th ) &#45;&gt; ( ps &#45;&gt; ch ) )</text>
</g>
<!-- n8755 -->
<g id="node16" class="node"><title>n8755</title>
<ellipse fill="cyan" stroke="black" cx="387.141" cy="-197" rx="32.4942" ry="18"/>
<text text-anchor="middle" x="387.141" y="-193.3" font-family="Times New Roman,serif" font-size="14.00">adantl</text>
</g>
<!-- n8748&#45;&gt;n8755 -->
<g id="edge35" class="edge"><title>n8748&#45;&gt;n8755</title>
</g>
<!-- n8743 -->
<g id="node10" class="node"><title>n8743</title>
<ellipse fill="none" stroke="lightgray" cx="27" cy="-476" rx="27" ry="18"/>
<text text-anchor="middle" x="27" y="-472.3" font-family="Times New Roman,serif" font-size="14.00" fill="lightgray">wps</text>
</g>
<!-- n8743&#45;&gt;n8745 -->
<g id="edge9" class="edge"><title>n8743&#45;&gt;n8745</title>
<path fill="none" stroke="lightgray" d="M51.3303,-468.134C71.8936,-461.2 102.09,-451.019 125.193,-443.229"/>
<polygon fill="lightgray" stroke="lightgray" points="126.571,-446.458 134.929,-439.947 124.335,-439.825 126.571,-446.458"/>
<text text-anchor="middle" x="90.5" y="-464.8" font-family="Times New Roman,serif" font-size="14.00" fill="lightgray">wff ps</text>
</g>
<!-- n8744 -->
<g id="node12" class="node"><title>n8744</title>
<ellipse fill="none" stroke="lightgray" cx="27" cy="-404" rx="27" ry="18"/>
<text text-anchor="middle" x="27" y="-400.3" font-family="Times New Roman,serif" font-size="14.00" fill="lightgray">wch</text>
</g>
<!-- n8743&#45;&gt;n8744 -->
<g id="edge12" class="edge"><title>n8743&#45;&gt;n8744</title>
</g>
<!-- n8745&#45;&gt;n8748 -->
<g id="edge11" class="edge"><title>n8745&#45;&gt;n8748</title>
<path fill="none" stroke="lightgray" d="M185.412,-426.934C221.013,-418.871 287.488,-400.7 335.994,-369 347.708,-361.345 358.65,-350.427 367.305,-340.488"/>
<polygon fill="lightgray" stroke="lightgray" points="369.998,-342.725 373.728,-332.808 364.628,-338.234 369.998,-342.725"/>
<text text-anchor="middle" x="272.994" y="-423.8" font-family="Times New Roman,serif" font-size="14.00" fill="lightgray">wff ( ps &#45;&gt; ch )</text>
</g>
<!-- n8746 -->
<g id="node13" class="node"><title>n8746</title>
<ellipse fill="none" stroke="lightgray" cx="159.497" cy="-360" rx="27" ry="18"/>
<text text-anchor="middle" x="159.497" y="-356.3" font-family="Times New Roman,serif" font-size="14.00" fill="lightgray">wth</text>
</g>
<!-- n8745&#45;&gt;n8746 -->
<g id="edge17" class="edge"><title>n8745&#45;&gt;n8746</title>
</g>
<!-- n8744&#45;&gt;n8745 -->
<g id="edge10" class="edge"><title>n8744&#45;&gt;n8745</title>
<path fill="none" stroke="lightgray" d="M52.8527,-409.332C72.7707,-413.606 100.969,-419.656 123.223,-424.431"/>
<polygon fill="lightgray" stroke="lightgray" points="122.781,-427.916 133.292,-426.592 124.249,-421.072 122.781,-427.916"/>
<text text-anchor="middle" x="90.5" y="-425.8" font-family="Times New Roman,serif" font-size="14.00" fill="lightgray">wff ch</text>
</g>
<!-- n8746&#45;&gt;n8748 -->
<g id="edge13" class="edge"><title>n8746&#45;&gt;n8748</title>
<path fill="none" stroke="lightgray" d="M185.507,-355.123C224.231,-347.572 299.073,-332.978 345.597,-323.906"/>
<polygon fill="lightgray" stroke="lightgray" points="346.493,-327.297 355.638,-321.948 345.153,-320.427 346.493,-327.297"/>
<text text-anchor="middle" x="272.994" y="-353.8" font-family="Times New Roman,serif" font-size="14.00" fill="lightgray">wff th</text>
</g>
<!-- n8747 -->
<g id="node14" class="node"><title>n8747</title>
<ellipse fill="orange" stroke="black" cx="159.497" cy="-288" rx="32.4942" ry="18"/>
<text text-anchor="middle" x="159.497" y="-284.3" font-family="Times New Roman,serif" font-size="14.00">jaao.1</text>
</g>
<!-- n8746&#45;&gt;n8747 -->
<g id="edge18" class="edge"><title>n8746&#45;&gt;n8747</title>
</g>
<!-- n8747&#45;&gt;n8748 -->
<g id="edge14" class="edge"><title>n8747&#45;&gt;n8748</title>
<path fill="none" stroke="black" d="M191.617,-291.122C226.74,-294.744 285.558,-301.107 335.994,-308 338.998,-308.411 342.1,-308.855 345.219,-309.317"/>
<polygon fill="black" stroke="black" points="344.729,-312.783 355.143,-310.833 345.786,-305.863 344.729,-312.783"/>
<text text-anchor="middle" x="272.994" y="-311.8" font-family="Times New Roman,serif" font-size="14.00">|&#45; ( ph &#45;&gt; ( ps &#45;&gt; ch ) )</text>
</g>
<!-- n8749 -->
<g id="node15" class="node"><title>n8749</title>
<ellipse fill="none" stroke="lightgray" cx="159.497" cy="-234" rx="27" ry="18"/>
<text text-anchor="middle" x="159.497" y="-230.3" font-family="Times New Roman,serif" font-size="14.00" fill="lightgray">wth</text>
</g>
<!-- n8749&#45;&gt;n8755 -->
<g id="edge19" class="edge"><title>n8749&#45;&gt;n8755</title>
<path fill="none" stroke="lightgray" d="M185.943,-229.828C224.839,-223.449 299.438,-211.217 345.774,-203.619"/>
<polygon fill="lightgray" stroke="lightgray" points="346.473,-207.051 355.775,-201.979 345.34,-200.144 346.473,-207.051"/>
<text text-anchor="middle" x="272.994" y="-229.8" font-family="Times New Roman,serif" font-size="14.00" fill="lightgray">wff th</text>
</g>
<!-- n8752 -->
<g id="node18" class="node"><title>n8752</title>
<ellipse fill="none" stroke="lightgray" cx="159.497" cy="-162" rx="27" ry="18"/>
<text text-anchor="middle" x="159.497" y="-158.3" font-family="Times New Roman,serif" font-size="14.00" fill="lightgray">wi</text>
</g>
<!-- n8749&#45;&gt;n8752 -->
<g id="edge27" class="edge"><title>n8749&#45;&gt;n8752</title>
</g>
<!-- n8755&#45;&gt;n8756 -->
<g id="edge26" class="edge"><title>n8755&#45;&gt;n8756</title>
<path fill="none" stroke="black" d="M417.334,-203.956C462.985,-216.283 551.312,-246.187 602.288,-303 625.603,-328.983 636.879,-368.351 642.108,-394.839"/>
<polygon fill="black" stroke="black" points="638.719,-395.767 643.94,-404.986 645.607,-394.523 638.719,-395.767"/>
<text text-anchor="middle" x="520.288" y="-306.8" font-family="Times New Roman,serif" font-size="14.00">|&#45; ( ( ph / th ) &#45;&gt; ( ta &#45;&gt; ch ) )</text>
</g>
<!-- n8750 -->
<g id="node17" class="node"><title>n8750</title>
<ellipse fill="none" stroke="lightgray" cx="27" cy="-190" rx="27" ry="18"/>
<text text-anchor="middle" x="27" y="-186.3" font-family="Times New Roman,serif" font-size="14.00" fill="lightgray">wta</text>
</g>
<!-- n8750&#45;&gt;n8752 -->
<g id="edge20" class="edge"><title>n8750&#45;&gt;n8752</title>
<path fill="none" stroke="lightgray" d="M52.8527,-184.668C72.7707,-180.394 100.969,-174.344 123.223,-169.569"/>
<polygon fill="lightgray" stroke="lightgray" points="124.249,-172.928 133.292,-167.408 122.781,-166.084 124.249,-172.928"/>
<text text-anchor="middle" x="90.5" y="-184.8" font-family="Times New Roman,serif" font-size="14.00" fill="lightgray">wff ta</text>
</g>
<!-- n8751 -->
<g id="node19" class="node"><title>n8751</title>
<ellipse fill="none" stroke="lightgray" cx="27" cy="-118" rx="27" ry="18"/>
<text text-anchor="middle" x="27" y="-114.3" font-family="Times New Roman,serif" font-size="14.00" fill="lightgray">wch</text>
</g>
<!-- n8750&#45;&gt;n8751 -->
<g id="edge23" class="edge"><title>n8750&#45;&gt;n8751</title>
</g>
<!-- n8752&#45;&gt;n8755 -->
<g id="edge22" class="edge"><title>n8752&#45;&gt;n8755</title>
<path fill="none" stroke="lightgray" d="M186.112,-165.545C220.323,-170.337 282.801,-179.289 335.994,-188 339.268,-188.536 342.658,-189.108 346.061,-189.694"/>
<polygon fill="lightgray" stroke="lightgray" points="345.748,-193.193 356.203,-191.473 346.957,-186.298 345.748,-193.193"/>
<text text-anchor="middle" x="272.994" y="-191.8" font-family="Times New Roman,serif" font-size="14.00" fill="lightgray">wff ( ta &#45;&gt; ch )</text>
</g>
<!-- n8753 -->
<g id="node20" class="node"><title>n8753</title>
<ellipse fill="none" stroke="lightgray" cx="159.497" cy="-90" rx="27" ry="18"/>
<text text-anchor="middle" x="159.497" y="-86.3" font-family="Times New Roman,serif" font-size="14.00" fill="lightgray">wph</text>
</g>
<!-- n8752&#45;&gt;n8753 -->
<g id="edge28" class="edge"><title>n8752&#45;&gt;n8753</title>
</g>
<!-- n8751&#45;&gt;n8752 -->
<g id="edge21" class="edge"><title>n8751&#45;&gt;n8752</title>
<path fill="none" stroke="lightgray" d="M51.3303,-125.866C71.8936,-132.8 102.09,-142.981 125.193,-150.771"/>
<polygon fill="lightgray" stroke="lightgray" points="124.335,-154.175 134.929,-154.053 126.571,-147.542 124.335,-154.175"/>
<text text-anchor="middle" x="90.5" y="-149.8" font-family="Times New Roman,serif" font-size="14.00" fill="lightgray">wff ch</text>
</g>
<!-- n8753&#45;&gt;n8755 -->
<g id="edge24" class="edge"><title>n8753&#45;&gt;n8755</title>
<path fill="none" stroke="lightgray" d="M185.42,-95.2693C220.742,-103.467 286.562,-121.476 335.994,-151 346.245,-157.122 356.217,-165.58 364.534,-173.574"/>
<polygon fill="lightgray" stroke="lightgray" points="362.12,-176.11 371.666,-180.706 367.07,-171.16 362.12,-176.11"/>
<text text-anchor="middle" x="272.994" y="-154.8" font-family="Times New Roman,serif" font-size="14.00" fill="lightgray">wff ph</text>
</g>
<!-- n8754 -->
<g id="node21" class="node"><title>n8754</title>
<ellipse fill="orange" stroke="black" cx="159.497" cy="-18" rx="32.4942" ry="18"/>
<text text-anchor="middle" x="159.497" y="-14.3" font-family="Times New Roman,serif" font-size="14.00">jaao.2</text>
</g>
<!-- n8753&#45;&gt;n8754 -->
<g id="edge29" class="edge"><title>n8753&#45;&gt;n8754</title>
</g>
<!-- n8754&#45;&gt;n8755 -->
<g id="edge25" class="edge"><title>n8754&#45;&gt;n8755</title>
<path fill="none" stroke="black" d="M191.295,-22.1844C229.67,-28.893 295.155,-45.462 335.994,-84 360.278,-106.916 373.566,-143.709 380.255,-169.051"/>
<polygon fill="black" stroke="black" points="376.868,-169.933 382.656,-178.807 383.665,-168.261 376.868,-169.933"/>
<text text-anchor="middle" x="272.994" y="-87.8" font-family="Times New Roman,serif" font-size="14.00">|&#45; ( th &#45;&gt; ( ta &#45;&gt; ch ) )</text>
</g>
</g>
</svg>
