<?xml version="1.0" encoding="UTF-8" standalone="no"?>
<!DOCTYPE svg PUBLIC "-//W3C//DTD SVG 1.1//EN"
 "http://www.w3.org/Graphics/SVG/1.1/DTD/svg11.dtd">
<!-- Generated by graphviz version 2.38.0 (20140413.2041)
 -->
<!-- Title: proof_jad Pages: 1 -->
<svg width="1208pt" height="759pt"
 viewBox="0.00 0.00 1207.68 759.00" xmlns="http://www.w3.org/2000/svg" xmlns:xlink="http://www.w3.org/1999/xlink">
<g id="graph0" class="graph" transform="scale(1 1) rotate(0) translate(4 755)">
<title>proof_jad</title>
<polygon fill="white" stroke="none" points="-4,4 -4,-755 1203.68,-755 1203.68,4 -4,4"/>
<!-- n1835 -->
<g id="node1" class="node"><title>n1835</title>
<ellipse fill="none" stroke="lightgray" cx="390.942" cy="-733" rx="27" ry="18"/>
<text text-anchor="middle" x="390.942" y="-729.3" font-family="Times New Roman,serif" font-size="14.00" fill="lightgray">wps</text>
</g>
<!-- n1837 -->
<g id="node2" class="node"><title>n1837</title>
<ellipse fill="none" stroke="lightgray" cx="624.689" cy="-675" rx="27" ry="18"/>
<text text-anchor="middle" x="624.689" y="-671.3" font-family="Times New Roman,serif" font-size="14.00" fill="lightgray">wi</text>
</g>
<!-- n1835&#45;&gt;n1837 -->
<g id="edge1" class="edge"><title>n1835&#45;&gt;n1837</title>
<path fill="none" stroke="lightgray" d="M417.462,-728.714C453.877,-722.308 522.654,-709.135 579.689,-692 583.747,-690.781 587.963,-689.36 592.107,-687.868"/>
<polygon fill="lightgray" stroke="lightgray" points="593.408,-691.118 601.536,-684.322 590.944,-684.566 593.408,-691.118"/>
<text text-anchor="middle" x="512.189" y="-727.8" font-family="Times New Roman,serif" font-size="14.00" fill="lightgray">wff ps</text>
</g>
<!-- n1836 -->
<g id="node3" class="node"><title>n1836</title>
<ellipse fill="none" stroke="lightgray" cx="390.942" cy="-661" rx="27" ry="18"/>
<text text-anchor="middle" x="390.942" y="-657.3" font-family="Times New Roman,serif" font-size="14.00" fill="lightgray">wch</text>
</g>
<!-- n1835&#45;&gt;n1836 -->
<g id="edge4" class="edge"><title>n1835&#45;&gt;n1836</title>
</g>
<!-- n1857 -->
<g id="node4" class="node"><title>n1857</title>
<ellipse fill="cyan" stroke="black" cx="896.435" cy="-566" rx="35.9954" ry="18"/>
<text text-anchor="middle" x="896.435" y="-562.3" font-family="Times New Roman,serif" font-size="14.00">com12</text>
</g>
<!-- n1837&#45;&gt;n1857 -->
<g id="edge3" class="edge"><title>n1837&#45;&gt;n1857</title>
<path fill="none" stroke="lightgray" d="M651.632,-672.114C693.979,-666.523 779.556,-651.485 842.689,-616 854.547,-609.334 865.773,-599.415 874.795,-590.165"/>
<polygon fill="lightgray" stroke="lightgray" points="877.556,-592.336 881.821,-582.638 872.439,-587.56 877.556,-592.336"/>
<text text-anchor="middle" x="756.189" y="-673.8" font-family="Times New Roman,serif" font-size="14.00" fill="lightgray">wff ( ps &#45;&gt; ch )</text>
</g>
<!-- n1838 -->
<g id="node5" class="node"><title>n1838</title>
<ellipse fill="none" stroke="lightgray" cx="624.689" cy="-603" rx="27" ry="18"/>
<text text-anchor="middle" x="624.689" y="-599.3" font-family="Times New Roman,serif" font-size="14.00" fill="lightgray">wph</text>
</g>
<!-- n1837&#45;&gt;n1838 -->
<g id="edge36" class="edge"><title>n1837&#45;&gt;n1838</title>
</g>
<!-- n1836&#45;&gt;n1837 -->
<g id="edge2" class="edge"><title>n1836&#45;&gt;n1837</title>
<path fill="none" stroke="lightgray" d="M418.076,-662.579C459.565,-665.085 540.604,-669.981 587.603,-672.82"/>
<polygon fill="lightgray" stroke="lightgray" points="587.457,-676.318 597.65,-673.427 587.88,-669.33 587.457,-676.318"/>
<text text-anchor="middle" x="512.189" y="-676.8" font-family="Times New Roman,serif" font-size="14.00" fill="lightgray">wff ch</text>
</g>
<!-- QED -->
<g id="node24" class="node"><title>QED</title>
</g>
<!-- n1857&#45;&gt;QED -->
<g id="edge35" class="edge"><title>n1857&#45;&gt;QED</title>
<path fill="none" stroke="black" d="M932.437,-566C983.445,-566 1077.88,-566 1130.84,-566"/>
<polygon fill="black" stroke="black" points="1131.17,-569.5 1141.17,-566 1131.17,-562.5 1131.17,-569.5"/>
<text text-anchor="middle" x="1036.68" y="-569.8" font-family="Times New Roman,serif" font-size="14.00">|&#45; ( ph &#45;&gt; ( ( ps &#45;&gt; ch ) &#45;&gt; th ) )</text>
</g>
<!-- n1838&#45;&gt;n1857 -->
<g id="edge5" class="edge"><title>n1838&#45;&gt;n1857</title>
<path fill="none" stroke="lightgray" d="M651.553,-599.452C697.733,-593.118 794.838,-579.798 851.599,-572.013"/>
<polygon fill="lightgray" stroke="lightgray" points="852.275,-575.453 861.707,-570.626 851.324,-568.518 852.275,-575.453"/>
<text text-anchor="middle" x="756.189" y="-600.8" font-family="Times New Roman,serif" font-size="14.00" fill="lightgray">wff ph</text>
</g>
<!-- n1839 -->
<g id="node6" class="node"><title>n1839</title>
<ellipse fill="none" stroke="lightgray" cx="624.689" cy="-531" rx="27" ry="18"/>
<text text-anchor="middle" x="624.689" y="-527.3" font-family="Times New Roman,serif" font-size="14.00" fill="lightgray">wth</text>
</g>
<!-- n1838&#45;&gt;n1839 -->
<g id="edge37" class="edge"><title>n1838&#45;&gt;n1839</title>
</g>
<!-- n1839&#45;&gt;n1857 -->
<g id="edge6" class="edge"><title>n1839&#45;&gt;n1857</title>
<path fill="none" stroke="lightgray" d="M651.464,-533.669C692.167,-537.977 773.785,-547 842.689,-557 845.906,-557.467 849.23,-557.975 852.571,-558.503"/>
<polygon fill="lightgray" stroke="lightgray" points="852.122,-561.976 862.555,-560.13 853.248,-555.067 852.122,-561.976"/>
<text text-anchor="middle" x="756.189" y="-560.8" font-family="Times New Roman,serif" font-size="14.00" fill="lightgray">wff th</text>
</g>
<!-- n1856 -->
<g id="node8" class="node"><title>n1856</title>
<ellipse fill="cyan" stroke="black" cx="624.689" cy="-459" rx="27" ry="18"/>
<text text-anchor="middle" x="624.689" y="-455.3" font-family="Times New Roman,serif" font-size="14.00">ja</text>
</g>
<!-- n1839&#45;&gt;n1856 -->
<g id="edge38" class="edge"><title>n1839&#45;&gt;n1856</title>
</g>
<!-- n1840 -->
<g id="node7" class="node"><title>n1840</title>
<ellipse fill="none" stroke="lightgray" cx="390.942" cy="-603" rx="27" ry="18"/>
<text text-anchor="middle" x="390.942" y="-599.3" font-family="Times New Roman,serif" font-size="14.00" fill="lightgray">wps</text>
</g>
<!-- n1840&#45;&gt;n1856 -->
<g id="edge7" class="edge"><title>n1840&#45;&gt;n1856</title>
<path fill="none" stroke="lightgray" d="M417.605,-599.904C456.692,-593.998 531.655,-577.849 579.689,-537 592.415,-526.177 589.509,-518.567 597.689,-504 601.25,-497.657 605.147,-490.846 608.815,-484.491"/>
<polygon fill="lightgray" stroke="lightgray" points="611.974,-486.02 613.96,-475.613 605.917,-482.511 611.974,-486.02"/>
<text text-anchor="middle" x="512.189" y="-598.8" font-family="Times New Roman,serif" font-size="14.00" fill="lightgray">wff ps</text>
</g>
<!-- n1841 -->
<g id="node9" class="node"><title>n1841</title>
<ellipse fill="none" stroke="lightgray" cx="390.942" cy="-531" rx="27" ry="18"/>
<text text-anchor="middle" x="390.942" y="-527.3" font-family="Times New Roman,serif" font-size="14.00" fill="lightgray">wch</text>
</g>
<!-- n1840&#45;&gt;n1841 -->
<g id="edge31" class="edge"><title>n1840&#45;&gt;n1841</title>
</g>
<!-- n1856&#45;&gt;n1857 -->
<g id="edge30" class="edge"><title>n1856&#45;&gt;n1857</title>
<path fill="none" stroke="black" d="M651.591,-461.812C693.88,-467.275 779.376,-482.01 842.689,-517 854.312,-523.424 865.373,-532.956 874.336,-541.91"/>
<polygon fill="black" stroke="black" points="871.892,-544.417 881.338,-549.214 876.945,-539.573 871.892,-544.417"/>
<text text-anchor="middle" x="756.189" y="-520.8" font-family="Times New Roman,serif" font-size="14.00">|&#45; ( ( ps &#45;&gt; ch ) &#45;&gt; ( ph &#45;&gt; th ) )</text>
</g>
<!-- n1841&#45;&gt;n1856 -->
<g id="edge8" class="edge"><title>n1841&#45;&gt;n1856</title>
<path fill="none" stroke="lightgray" d="M416.569,-525.157C452.761,-516.321 522.243,-498.41 579.689,-478 583.949,-476.486 588.384,-474.759 592.727,-472.977"/>
<polygon fill="lightgray" stroke="lightgray" points="594.144,-476.178 601.983,-469.05 591.41,-469.733 594.144,-476.178"/>
<text text-anchor="middle" x="512.189" y="-521.8" font-family="Times New Roman,serif" font-size="14.00" fill="lightgray">wff ch</text>
</g>
<!-- n1844 -->
<g id="node11" class="node"><title>n1844</title>
<ellipse fill="none" stroke="lightgray" cx="390.942" cy="-459" rx="27" ry="18"/>
<text text-anchor="middle" x="390.942" y="-455.3" font-family="Times New Roman,serif" font-size="14.00" fill="lightgray">wi</text>
</g>
<!-- n1841&#45;&gt;n1844 -->
<g id="edge32" class="edge"><title>n1841&#45;&gt;n1844</title>
</g>
<!-- n1842 -->
<g id="node10" class="node"><title>n1842</title>
<ellipse fill="none" stroke="lightgray" cx="155.597" cy="-630" rx="27" ry="18"/>
<text text-anchor="middle" x="155.597" y="-626.3" font-family="Times New Roman,serif" font-size="14.00" fill="lightgray">wph</text>
</g>
<!-- n1842&#45;&gt;n1844 -->
<g id="edge9" class="edge"><title>n1842&#45;&gt;n1844</title>
<path fill="none" stroke="lightgray" d="M182.78,-628.803C222.013,-625.568 295.851,-613.662 337.195,-570 358.1,-547.923 341.645,-531.219 355.195,-504 358.968,-496.42 364.114,-488.868 369.289,-482.175"/>
<polygon fill="lightgray" stroke="lightgray" points="372.164,-484.187 375.759,-474.22 366.734,-479.77 372.164,-484.187"/>
<text text-anchor="middle" x="269.695" y="-630.8" font-family="Times New Roman,serif" font-size="14.00" fill="lightgray">wff ph</text>
</g>
<!-- n1843 -->
<g id="node12" class="node"><title>n1843</title>
<ellipse fill="none" stroke="lightgray" cx="155.597" cy="-558" rx="27" ry="18"/>
<text text-anchor="middle" x="155.597" y="-554.3" font-family="Times New Roman,serif" font-size="14.00" fill="lightgray">wth</text>
</g>
<!-- n1842&#45;&gt;n1843 -->
<g id="edge12" class="edge"><title>n1842&#45;&gt;n1843</title>
</g>
<!-- n1844&#45;&gt;n1856 -->
<g id="edge11" class="edge"><title>n1844&#45;&gt;n1856</title>
<path fill="none" stroke="lightgray" d="M418.076,-459C459.565,-459 540.604,-459 587.603,-459"/>
<polygon fill="lightgray" stroke="lightgray" points="587.65,-462.5 597.65,-459 587.65,-455.5 587.65,-462.5"/>
<text text-anchor="middle" x="512.189" y="-462.8" font-family="Times New Roman,serif" font-size="14.00" fill="lightgray">wff ( ph &#45;&gt; th )</text>
</g>
<!-- n1850 -->
<g id="node14" class="node"><title>n1850</title>
<ellipse fill="cyan" stroke="black" cx="390.942" cy="-387" rx="35.9954" ry="18"/>
<text text-anchor="middle" x="390.942" y="-383.3" font-family="Times New Roman,serif" font-size="14.00">com12</text>
</g>
<!-- n1844&#45;&gt;n1850 -->
<g id="edge33" class="edge"><title>n1844&#45;&gt;n1850</title>
</g>
<!-- n1843&#45;&gt;n1844 -->
<g id="edge10" class="edge"><title>n1843&#45;&gt;n1844</title>
<path fill="none" stroke="lightgray" d="M182.167,-554.076C218.423,-547.739 286.045,-533.031 337.195,-505 348.568,-498.767 359.627,-489.736 368.656,-481.322"/>
<polygon fill="lightgray" stroke="lightgray" points="371.284,-483.649 376.025,-474.174 366.41,-478.624 371.284,-483.649"/>
<text text-anchor="middle" x="269.695" y="-554.8" font-family="Times New Roman,serif" font-size="14.00" fill="lightgray">wff th</text>
</g>
<!-- n1845 -->
<g id="node13" class="node"><title>n1845</title>
<ellipse fill="none" stroke="lightgray" cx="155.597" cy="-504" rx="27" ry="18"/>
<text text-anchor="middle" x="155.597" y="-500.3" font-family="Times New Roman,serif" font-size="14.00" fill="lightgray">wph</text>
</g>
<!-- n1845&#45;&gt;n1850 -->
<g id="edge13" class="edge"><title>n1845&#45;&gt;n1850</title>
<path fill="none" stroke="lightgray" d="M179.202,-494.693C186.498,-491.792 194.65,-488.659 202.195,-486 261.46,-465.116 284.052,-477.531 337.195,-444 350.5,-435.605 362.634,-423.022 371.9,-411.812"/>
<polygon fill="lightgray" stroke="lightgray" points="374.646,-413.982 378.117,-403.972 369.161,-409.633 374.646,-413.982"/>
<text text-anchor="middle" x="269.695" y="-489.8" font-family="Times New Roman,serif" font-size="14.00" fill="lightgray">wff ph</text>
</g>
<!-- n1847 -->
<g id="node16" class="node"><title>n1847</title>
<ellipse fill="none" stroke="lightgray" cx="155.597" cy="-432" rx="27" ry="18"/>
<text text-anchor="middle" x="155.597" y="-428.3" font-family="Times New Roman,serif" font-size="14.00" fill="lightgray">wn</text>
</g>
<!-- n1845&#45;&gt;n1847 -->
<g id="edge19" class="edge"><title>n1845&#45;&gt;n1847</title>
</g>
<!-- n1850&#45;&gt;n1856 -->
<g id="edge18" class="edge"><title>n1850&#45;&gt;n1856</title>
<path fill="none" stroke="black" d="M423.567,-394.563C461.208,-403.878 525.753,-420.837 579.689,-440 583.949,-441.514 588.384,-443.241 592.727,-445.023"/>
<polygon fill="black" stroke="black" points="591.41,-448.267 601.983,-448.95 594.144,-441.822 591.41,-448.267"/>
<text text-anchor="middle" x="512.189" y="-443.8" font-family="Times New Roman,serif" font-size="14.00">|&#45; ( &#45;. ps &#45;&gt; ( ph &#45;&gt; th ) )</text>
</g>
<!-- n1855 -->
<g id="node20" class="node"><title>n1855</title>
<ellipse fill="cyan" stroke="black" cx="390.942" cy="-206" rx="35.9954" ry="18"/>
<text text-anchor="middle" x="390.942" y="-202.3" font-family="Times New Roman,serif" font-size="14.00">com12</text>
</g>
<!-- n1850&#45;&gt;n1855 -->
<g id="edge34" class="edge"><title>n1850&#45;&gt;n1855</title>
</g>
<!-- n1846 -->
<g id="node15" class="node"><title>n1846</title>
<ellipse fill="none" stroke="lightgray" cx="27" cy="-432" rx="27" ry="18"/>
<text text-anchor="middle" x="27" y="-428.3" font-family="Times New Roman,serif" font-size="14.00" fill="lightgray">wps</text>
</g>
<!-- n1846&#45;&gt;n1847 -->
<g id="edge14" class="edge"><title>n1846&#45;&gt;n1847</title>
<path fill="none" stroke="lightgray" d="M54.2311,-432C72.7332,-432 97.7591,-432 118.192,-432"/>
<polygon fill="lightgray" stroke="lightgray" points="118.4,-435.5 128.4,-432 118.4,-428.5 118.4,-435.5"/>
<text text-anchor="middle" x="90.5" y="-435.8" font-family="Times New Roman,serif" font-size="14.00" fill="lightgray">wff ps</text>
</g>
<!-- n1847&#45;&gt;n1850 -->
<g id="edge15" class="edge"><title>n1847&#45;&gt;n1850</title>
<path fill="none" stroke="lightgray" d="M182.122,-428.024C217.198,-422.437 282.211,-411.634 337.195,-400 341.03,-399.189 345.01,-398.298 348.987,-397.375"/>
<polygon fill="lightgray" stroke="lightgray" points="349.865,-400.764 358.782,-395.042 348.243,-393.955 349.865,-400.764"/>
<text text-anchor="middle" x="269.695" y="-428.8" font-family="Times New Roman,serif" font-size="14.00" fill="lightgray">wff &#45;. ps</text>
</g>
<!-- n1848 -->
<g id="node17" class="node"><title>n1848</title>
<ellipse fill="none" stroke="lightgray" cx="155.597" cy="-360" rx="27" ry="18"/>
<text text-anchor="middle" x="155.597" y="-356.3" font-family="Times New Roman,serif" font-size="14.00" fill="lightgray">wth</text>
</g>
<!-- n1847&#45;&gt;n1848 -->
<g id="edge20" class="edge"><title>n1847&#45;&gt;n1848</title>
</g>
<!-- n1848&#45;&gt;n1850 -->
<g id="edge16" class="edge"><title>n1848&#45;&gt;n1850</title>
<path fill="none" stroke="lightgray" d="M182.461,-362.993C221.816,-367.546 297.248,-376.274 345.502,-381.858"/>
<polygon fill="lightgray" stroke="lightgray" points="345.324,-385.361 355.66,-383.033 346.128,-378.407 345.324,-385.361"/>
<text text-anchor="middle" x="269.695" y="-384.8" font-family="Times New Roman,serif" font-size="14.00" fill="lightgray">wff th</text>
</g>
<!-- n1849 -->
<g id="node18" class="node"><title>n1849</title>
<ellipse fill="orange" stroke="black" cx="155.597" cy="-288" rx="28.6953" ry="18"/>
<text text-anchor="middle" x="155.597" y="-284.3" font-family="Times New Roman,serif" font-size="14.00">jad.1</text>
</g>
<!-- n1848&#45;&gt;n1849 -->
<g id="edge21" class="edge"><title>n1848&#45;&gt;n1849</title>
</g>
<!-- n1849&#45;&gt;n1850 -->
<g id="edge17" class="edge"><title>n1849&#45;&gt;n1850</title>
<path fill="none" stroke="black" d="M182.801,-293.652C218.939,-302.083 285.472,-319.922 337.195,-347 346.664,-351.957 356.214,-358.592 364.537,-365.031"/>
<polygon fill="black" stroke="black" points="362.411,-367.812 372.403,-371.335 366.789,-362.35 362.411,-367.812"/>
<text text-anchor="middle" x="269.695" y="-350.8" font-family="Times New Roman,serif" font-size="14.00">|&#45; ( ph &#45;&gt; ( &#45;. ps &#45;&gt; th ) )</text>
</g>
<!-- n1851 -->
<g id="node19" class="node"><title>n1851</title>
<ellipse fill="none" stroke="lightgray" cx="155.597" cy="-234" rx="27" ry="18"/>
<text text-anchor="middle" x="155.597" y="-230.3" font-family="Times New Roman,serif" font-size="14.00" fill="lightgray">wph</text>
</g>
<!-- n1851&#45;&gt;n1855 -->
<g id="edge22" class="edge"><title>n1851&#45;&gt;n1855</title>
<path fill="none" stroke="lightgray" d="M182.461,-230.897C221.927,-226.161 297.672,-217.072 345.908,-211.284"/>
<polygon fill="lightgray" stroke="lightgray" points="346.545,-214.733 356.056,-210.066 345.711,-207.782 346.545,-214.733"/>
<text text-anchor="middle" x="269.695" y="-231.8" font-family="Times New Roman,serif" font-size="14.00" fill="lightgray">wff ph</text>
</g>
<!-- n1852 -->
<g id="node21" class="node"><title>n1852</title>
<ellipse fill="none" stroke="lightgray" cx="155.597" cy="-162" rx="27" ry="18"/>
<text text-anchor="middle" x="155.597" y="-158.3" font-family="Times New Roman,serif" font-size="14.00" fill="lightgray">wch</text>
</g>
<!-- n1851&#45;&gt;n1852 -->
<g id="edge27" class="edge"><title>n1851&#45;&gt;n1852</title>
</g>
<!-- n1855&#45;&gt;n1856 -->
<g id="edge26" class="edge"><title>n1855&#45;&gt;n1856</title>
<path fill="none" stroke="black" d="M411.309,-220.877C447.5,-249.339 526.527,-314.679 579.689,-382 592.095,-397.71 603.248,-417.324 611.222,-432.824"/>
<polygon fill="black" stroke="black" points="608.148,-434.501 615.758,-441.872 614.405,-431.363 608.148,-434.501"/>
<text text-anchor="middle" x="512.189" y="-385.8" font-family="Times New Roman,serif" font-size="14.00">|&#45; ( ch &#45;&gt; ( ph &#45;&gt; th ) )</text>
</g>
<!-- n1852&#45;&gt;n1855 -->
<g id="edge23" class="edge"><title>n1852&#45;&gt;n1855</title>
<path fill="none" stroke="lightgray" d="M182.093,-166.119C217.135,-171.87 282.109,-182.86 337.195,-194 340.814,-194.732 344.565,-195.522 348.323,-196.335"/>
<polygon fill="lightgray" stroke="lightgray" points="347.678,-199.777 358.198,-198.517 349.188,-192.942 347.678,-199.777"/>
<text text-anchor="middle" x="269.695" y="-197.8" font-family="Times New Roman,serif" font-size="14.00" fill="lightgray">wff ch</text>
</g>
<!-- n1853 -->
<g id="node22" class="node"><title>n1853</title>
<ellipse fill="none" stroke="lightgray" cx="155.597" cy="-90" rx="27" ry="18"/>
<text text-anchor="middle" x="155.597" y="-86.3" font-family="Times New Roman,serif" font-size="14.00" fill="lightgray">wth</text>
</g>
<!-- n1852&#45;&gt;n1853 -->
<g id="edge28" class="edge"><title>n1852&#45;&gt;n1853</title>
</g>
<!-- n1853&#45;&gt;n1855 -->
<g id="edge24" class="edge"><title>n1853&#45;&gt;n1855</title>
<path fill="none" stroke="lightgray" d="M181.908,-94.5517C218.44,-101.97 287.056,-119.143 337.195,-151 349.92,-159.085 361.767,-170.87 370.998,-181.459"/>
<polygon fill="lightgray" stroke="lightgray" points="368.413,-183.824 377.517,-189.242 373.779,-179.329 368.413,-183.824"/>
<text text-anchor="middle" x="269.695" y="-154.8" font-family="Times New Roman,serif" font-size="14.00" fill="lightgray">wff th</text>
</g>
<!-- n1854 -->
<g id="node23" class="node"><title>n1854</title>
<ellipse fill="orange" stroke="black" cx="155.597" cy="-18" rx="28.6953" ry="18"/>
<text text-anchor="middle" x="155.597" y="-14.3" font-family="Times New Roman,serif" font-size="14.00">jad.2</text>
</g>
<!-- n1853&#45;&gt;n1854 -->
<g id="edge29" class="edge"><title>n1853&#45;&gt;n1854</title>
</g>
<!-- n1854&#45;&gt;n1855 -->
<g id="edge25" class="edge"><title>n1854&#45;&gt;n1855</title>
<path fill="none" stroke="black" d="M184.02,-20.6315C222.824,-25.7324 293.848,-40.3285 337.195,-81 364.916,-107.01 378.648,-149.902 385.012,-178.055"/>
<polygon fill="black" stroke="black" points="381.631,-178.986 387.104,-188.057 388.483,-177.553 381.631,-178.986"/>
<text text-anchor="middle" x="269.695" y="-84.8" font-family="Times New Roman,serif" font-size="14.00">|&#45; ( ph &#45;&gt; ( ch &#45;&gt; th ) )</text>
</g>
</g>
</svg>
