<?xml version="1.0" encoding="UTF-8" standalone="no"?>
<!DOCTYPE svg PUBLIC "-//W3C//DTD SVG 1.1//EN"
 "http://www.w3.org/Graphics/SVG/1.1/DTD/svg11.dtd">
<!-- Generated by graphviz version 2.38.0 (20140413.2041)
 -->
<!-- Title: proof_jaoi Pages: 1 -->
<svg width="1023pt" height="534pt"
 viewBox="0.00 0.00 1023.17 534.00" xmlns="http://www.w3.org/2000/svg" xmlns:xlink="http://www.w3.org/1999/xlink">
<g id="graph0" class="graph" transform="scale(1 1) rotate(0) translate(4 530)">
<title>proof_jaoi</title>
<polygon fill="white" stroke="none" points="-4,4 -4,-530 1019.17,-530 1019.17,4 -4,4"/>
<!-- n7206 -->
<g id="node1" class="node"><title>n7206</title>
<ellipse fill="none" stroke="lightgray" cx="165.347" cy="-508" rx="27" ry="18"/>
<text text-anchor="middle" x="165.347" y="-504.3" font-family="Times New Roman,serif" font-size="14.00" fill="lightgray">wph</text>
</g>
<!-- n7208 -->
<g id="node2" class="node"><title>n7208</title>
<ellipse fill="none" stroke="lightgray" cx="454.24" cy="-447" rx="27" ry="18"/>
<text text-anchor="middle" x="454.24" y="-443.3" font-family="Times New Roman,serif" font-size="14.00" fill="lightgray">wo</text>
</g>
<!-- n7206&#45;&gt;n7208 -->
<g id="edge1" class="edge"><title>n7206&#45;&gt;n7208</title>
<path fill="none" stroke="lightgray" d="M192.198,-504.944C236.468,-499.359 329.398,-486.101 405.693,-465 410.774,-463.595 416.071,-461.866 421.208,-460.04"/>
<polygon fill="lightgray" stroke="lightgray" points="422.64,-463.242 430.789,-456.471 420.196,-456.682 422.64,-463.242"/>
<text text-anchor="middle" x="313.693" y="-503.8" font-family="Times New Roman,serif" font-size="14.00" fill="lightgray">wff ph</text>
</g>
<!-- n7207 -->
<g id="node3" class="node"><title>n7207</title>
<ellipse fill="none" stroke="lightgray" cx="165.347" cy="-436" rx="27" ry="18"/>
<text text-anchor="middle" x="165.347" y="-432.3" font-family="Times New Roman,serif" font-size="14.00" fill="lightgray">wch</text>
</g>
<!-- n7206&#45;&gt;n7207 -->
<g id="edge4" class="edge"><title>n7206&#45;&gt;n7207</title>
</g>
<!-- n7224 -->
<g id="node4" class="node"><title>n7224</title>
<ellipse fill="cyan" stroke="black" cx="752.234" cy="-303" rx="47.3916" ry="18"/>
<text text-anchor="middle" x="752.234" y="-299.3" font-family="Times New Roman,serif" font-size="14.00">pm2.61d2</text>
</g>
<!-- n7208&#45;&gt;n7224 -->
<g id="edge3" class="edge"><title>n7208&#45;&gt;n7224</title>
<path fill="none" stroke="lightgray" d="M481.364,-445.176C526.658,-440.928 621.195,-427.18 686.788,-384 707.75,-370.2 725.021,-347.351 736.389,-329.433"/>
<polygon fill="lightgray" stroke="lightgray" points="739.565,-330.946 741.784,-320.586 733.589,-327.301 739.565,-330.946"/>
<text text-anchor="middle" x="594.788" y="-446.8" font-family="Times New Roman,serif" font-size="14.00" fill="lightgray">wff ( ph \/ ch )</text>
</g>
<!-- n7209 -->
<g id="node5" class="node"><title>n7209</title>
<ellipse fill="none" stroke="lightgray" cx="454.24" cy="-375" rx="27" ry="18"/>
<text text-anchor="middle" x="454.24" y="-371.3" font-family="Times New Roman,serif" font-size="14.00" fill="lightgray">wph</text>
</g>
<!-- n7208&#45;&gt;n7209 -->
<g id="edge28" class="edge"><title>n7208&#45;&gt;n7209</title>
</g>
<!-- n7207&#45;&gt;n7208 -->
<g id="edge2" class="edge"><title>n7207&#45;&gt;n7208</title>
<path fill="none" stroke="lightgray" d="M192.313,-436.996C243.604,-438.962 358.026,-443.349 416.823,-445.604"/>
<polygon fill="lightgray" stroke="lightgray" points="417,-449.113 427.127,-445.999 417.268,-442.118 417,-449.113"/>
<text text-anchor="middle" x="313.693" y="-449.8" font-family="Times New Roman,serif" font-size="14.00" fill="lightgray">wff ch</text>
</g>
<!-- QED -->
<g id="node20" class="node"><title>QED</title>
</g>
<!-- n7224&#45;&gt;QED -->
<g id="edge27" class="edge"><title>n7224&#45;&gt;QED</title>
<path fill="none" stroke="black" d="M799.841,-303C842.905,-303 906.13,-303 946.406,-303"/>
<polygon fill="black" stroke="black" points="946.623,-306.5 956.623,-303 946.623,-299.5 946.623,-306.5"/>
<text text-anchor="middle" x="878.179" y="-306.8" font-family="Times New Roman,serif" font-size="14.00">|&#45; ( ( ph \/ ch ) &#45;&gt; ps )</text>
</g>
<!-- n7209&#45;&gt;n7224 -->
<g id="edge5" class="edge"><title>n7209&#45;&gt;n7224</title>
<path fill="none" stroke="lightgray" d="M480.377,-369.778C523.02,-360.801 612.182,-341.516 686.788,-322 692.786,-320.431 699.072,-318.694 705.268,-316.927"/>
<polygon fill="lightgray" stroke="lightgray" points="706.243,-320.289 714.875,-314.145 704.296,-313.565 706.243,-320.289"/>
<text text-anchor="middle" x="594.788" y="-368.8" font-family="Times New Roman,serif" font-size="14.00" fill="lightgray">wff ph</text>
</g>
<!-- n7210 -->
<g id="node6" class="node"><title>n7210</title>
<ellipse fill="none" stroke="lightgray" cx="454.24" cy="-303" rx="27" ry="18"/>
<text text-anchor="middle" x="454.24" y="-299.3" font-family="Times New Roman,serif" font-size="14.00" fill="lightgray">wps</text>
</g>
<!-- n7209&#45;&gt;n7210 -->
<g id="edge29" class="edge"><title>n7209&#45;&gt;n7210</title>
</g>
<!-- n7210&#45;&gt;n7224 -->
<g id="edge6" class="edge"><title>n7210&#45;&gt;n7224</title>
<path fill="none" stroke="lightgray" d="M481.248,-303C528.687,-303 630.277,-303 694.422,-303"/>
<polygon fill="lightgray" stroke="lightgray" points="694.77,-306.5 704.77,-303 694.77,-299.5 694.77,-306.5"/>
<text text-anchor="middle" x="594.788" y="-306.8" font-family="Times New Roman,serif" font-size="14.00" fill="lightgray">wff ps</text>
</g>
<!-- n7222 -->
<g id="node10" class="node"><title>n7222</title>
<ellipse fill="cyan" stroke="black" cx="454.24" cy="-231" rx="27" ry="18"/>
<text text-anchor="middle" x="454.24" y="-227.3" font-family="Times New Roman,serif" font-size="14.00">syl6</text>
</g>
<!-- n7210&#45;&gt;n7222 -->
<g id="edge30" class="edge"><title>n7210&#45;&gt;n7222</title>
</g>
<!-- n7211 -->
<g id="node7" class="node"><title>n7211</title>
<ellipse fill="none" stroke="lightgray" cx="27" cy="-437" rx="27" ry="18"/>
<text text-anchor="middle" x="27" y="-433.3" font-family="Times New Roman,serif" font-size="14.00" fill="lightgray">wch</text>
</g>
<!-- n7213 -->
<g id="node8" class="node"><title>n7213</title>
<ellipse fill="none" stroke="lightgray" cx="165.347" cy="-378" rx="27" ry="18"/>
<text text-anchor="middle" x="165.347" y="-374.3" font-family="Times New Roman,serif" font-size="14.00" fill="lightgray">wo</text>
</g>
<!-- n7211&#45;&gt;n7213 -->
<g id="edge7" class="edge"><title>n7211&#45;&gt;n7213</title>
<path fill="none" stroke="lightgray" d="M50.2099,-427.389C72.6922,-417.661 107.658,-402.53 132.966,-391.579"/>
<polygon fill="lightgray" stroke="lightgray" points="134.359,-394.79 142.146,-387.607 131.579,-388.366 134.359,-394.79"/>
<text text-anchor="middle" x="90.5" y="-421.8" font-family="Times New Roman,serif" font-size="14.00" fill="lightgray">wff ch</text>
</g>
<!-- n7212 -->
<g id="node9" class="node"><title>n7212</title>
<ellipse fill="none" stroke="lightgray" cx="27" cy="-365" rx="27" ry="18"/>
<text text-anchor="middle" x="27" y="-361.3" font-family="Times New Roman,serif" font-size="14.00" fill="lightgray">wph</text>
</g>
<!-- n7211&#45;&gt;n7212 -->
<g id="edge10" class="edge"><title>n7211&#45;&gt;n7212</title>
</g>
<!-- n7213&#45;&gt;n7222 -->
<g id="edge9" class="edge"><title>n7213&#45;&gt;n7222</title>
<path fill="none" stroke="lightgray" d="M192.681,-378.262C240.635,-377.356 343.024,-368.861 405.693,-316 420.595,-303.431 414.314,-293.09 423.693,-276 427.403,-269.241 431.79,-262.164 436.033,-255.677"/>
<polygon fill="lightgray" stroke="lightgray" points="438.999,-257.539 441.652,-247.282 433.181,-253.646 438.999,-257.539"/>
<text text-anchor="middle" x="313.693" y="-380.8" font-family="Times New Roman,serif" font-size="14.00" fill="lightgray">wff ( ph \/ ch )</text>
</g>
<!-- n7215 -->
<g id="node12" class="node"><title>n7215</title>
<ellipse fill="none" stroke="lightgray" cx="165.347" cy="-306" rx="27" ry="18"/>
<text text-anchor="middle" x="165.347" y="-302.3" font-family="Times New Roman,serif" font-size="14.00" fill="lightgray">wn</text>
</g>
<!-- n7213&#45;&gt;n7215 -->
<g id="edge21" class="edge"><title>n7213&#45;&gt;n7215</title>
</g>
<!-- n7212&#45;&gt;n7213 -->
<g id="edge8" class="edge"><title>n7212&#45;&gt;n7213</title>
<path fill="none" stroke="lightgray" d="M53.9667,-367.476C75.0057,-369.482 104.887,-372.331 128.254,-374.559"/>
<polygon fill="lightgray" stroke="lightgray" points="128.19,-378.068 138.477,-375.533 128.854,-371.1 128.19,-378.068"/>
<text text-anchor="middle" x="90.5" y="-376.8" font-family="Times New Roman,serif" font-size="14.00" fill="lightgray">wff ph</text>
</g>
<!-- n7222&#45;&gt;n7224 -->
<g id="edge20" class="edge"><title>n7222&#45;&gt;n7224</title>
<path fill="none" stroke="black" d="M480.377,-236.222C523.02,-245.199 612.182,-264.484 686.788,-284 692.786,-285.569 699.072,-287.306 705.268,-289.073"/>
<polygon fill="black" stroke="black" points="704.296,-292.435 714.875,-291.855 706.243,-285.711 704.296,-292.435"/>
<text text-anchor="middle" x="594.788" y="-287.8" font-family="Times New Roman,serif" font-size="14.00">|&#45; ( ( ph \/ ch ) &#45;&gt; ( &#45;. ph &#45;&gt; ps ) )</text>
</g>
<!-- n7223 -->
<g id="node19" class="node"><title>n7223</title>
<ellipse fill="orange" stroke="black" cx="454.24" cy="-159" rx="30.5947" ry="18"/>
<text text-anchor="middle" x="454.24" y="-155.3" font-family="Times New Roman,serif" font-size="14.00">jaoi.1</text>
</g>
<!-- n7222&#45;&gt;n7223 -->
<g id="edge31" class="edge"><title>n7222&#45;&gt;n7223</title>
</g>
<!-- n7214 -->
<g id="node11" class="node"><title>n7214</title>
<ellipse fill="none" stroke="lightgray" cx="27" cy="-306" rx="27" ry="18"/>
<text text-anchor="middle" x="27" y="-302.3" font-family="Times New Roman,serif" font-size="14.00" fill="lightgray">wph</text>
</g>
<!-- n7214&#45;&gt;n7215 -->
<g id="edge11" class="edge"><title>n7214&#45;&gt;n7215</title>
<path fill="none" stroke="lightgray" d="M54.289,-306C75.2263,-306 104.769,-306 127.975,-306"/>
<polygon fill="lightgray" stroke="lightgray" points="128.138,-309.5 138.138,-306 128.138,-302.5 128.138,-309.5"/>
<text text-anchor="middle" x="90.5" y="-309.8" font-family="Times New Roman,serif" font-size="14.00" fill="lightgray">wff ph</text>
</g>
<!-- n7215&#45;&gt;n7222 -->
<g id="edge12" class="edge"><title>n7215&#45;&gt;n7222</title>
<path fill="none" stroke="lightgray" d="M191.991,-302.186C236.339,-295.182 329.886,-278.597 405.693,-253 411.435,-251.061 417.408,-248.642 423.104,-246.123"/>
<polygon fill="lightgray" stroke="lightgray" points="424.727,-249.228 432.337,-241.857 421.792,-242.874 424.727,-249.228"/>
<text text-anchor="middle" x="313.693" y="-300.8" font-family="Times New Roman,serif" font-size="14.00" fill="lightgray">wff &#45;. ph</text>
</g>
<!-- n7216 -->
<g id="node13" class="node"><title>n7216</title>
<ellipse fill="none" stroke="lightgray" cx="165.347" cy="-234" rx="27" ry="18"/>
<text text-anchor="middle" x="165.347" y="-230.3" font-family="Times New Roman,serif" font-size="14.00" fill="lightgray">wch</text>
</g>
<!-- n7215&#45;&gt;n7216 -->
<g id="edge22" class="edge"><title>n7215&#45;&gt;n7216</title>
</g>
<!-- n7216&#45;&gt;n7222 -->
<g id="edge13" class="edge"><title>n7216&#45;&gt;n7222</title>
<path fill="none" stroke="lightgray" d="M192.567,-233.726C244.004,-233.188 358.227,-231.994 416.903,-231.38"/>
<polygon fill="lightgray" stroke="lightgray" points="417.222,-234.877 427.185,-231.272 417.149,-227.877 417.222,-234.877"/>
<text text-anchor="middle" x="313.693" y="-237.8" font-family="Times New Roman,serif" font-size="14.00" fill="lightgray">wff ch</text>
</g>
<!-- n7217 -->
<g id="node14" class="node"><title>n7217</title>
<ellipse fill="none" stroke="lightgray" cx="165.347" cy="-162" rx="27" ry="18"/>
<text text-anchor="middle" x="165.347" y="-158.3" font-family="Times New Roman,serif" font-size="14.00" fill="lightgray">wps</text>
</g>
<!-- n7216&#45;&gt;n7217 -->
<g id="edge23" class="edge"><title>n7216&#45;&gt;n7217</title>
</g>
<!-- n7217&#45;&gt;n7222 -->
<g id="edge14" class="edge"><title>n7217&#45;&gt;n7222</title>
<path fill="none" stroke="lightgray" d="M191.817,-166.115C235.902,-173.528 329.062,-190.472 405.693,-213 410.75,-214.487 416.035,-216.259 421.167,-218.103"/>
<polygon fill="lightgray" stroke="lightgray" points="420.153,-221.461 430.745,-221.682 422.603,-214.903 420.153,-221.461"/>
<text text-anchor="middle" x="313.693" y="-216.8" font-family="Times New Roman,serif" font-size="14.00" fill="lightgray">wff ps</text>
</g>
<!-- n7220 -->
<g id="node16" class="node"><title>n7220</title>
<ellipse fill="cyan" stroke="black" cx="165.347" cy="-90" rx="38.1938" ry="18"/>
<text text-anchor="middle" x="165.347" y="-86.3" font-family="Times New Roman,serif" font-size="14.00">pm2.53</text>
</g>
<!-- n7217&#45;&gt;n7220 -->
<g id="edge24" class="edge"><title>n7217&#45;&gt;n7220</title>
</g>
<!-- n7218 -->
<g id="node15" class="node"><title>n7218</title>
<ellipse fill="none" stroke="lightgray" cx="27" cy="-118" rx="27" ry="18"/>
<text text-anchor="middle" x="27" y="-114.3" font-family="Times New Roman,serif" font-size="14.00" fill="lightgray">wph</text>
</g>
<!-- n7218&#45;&gt;n7220 -->
<g id="edge15" class="edge"><title>n7218&#45;&gt;n7220</title>
<path fill="none" stroke="lightgray" d="M53.0081,-112.864C71.7419,-109.017 97.8635,-103.653 120.097,-99.087"/>
<polygon fill="lightgray" stroke="lightgray" points="120.907,-102.494 129.998,-97.0537 119.499,-95.637 120.907,-102.494"/>
<text text-anchor="middle" x="90.5" y="-112.8" font-family="Times New Roman,serif" font-size="14.00" fill="lightgray">wff ph</text>
</g>
<!-- n7219 -->
<g id="node17" class="node"><title>n7219</title>
<ellipse fill="none" stroke="lightgray" cx="27" cy="-46" rx="27" ry="18"/>
<text text-anchor="middle" x="27" y="-42.3" font-family="Times New Roman,serif" font-size="14.00" fill="lightgray">wch</text>
</g>
<!-- n7218&#45;&gt;n7219 -->
<g id="edge18" class="edge"><title>n7218&#45;&gt;n7219</title>
</g>
<!-- n7220&#45;&gt;n7222 -->
<g id="edge17" class="edge"><title>n7220&#45;&gt;n7222</title>
<path fill="none" stroke="black" d="M203.904,-91.2188C254.666,-94.6738 345.711,-107.463 405.693,-154 418.586,-164.003 415.21,-172.061 423.693,-186 427.702,-192.587 432.195,-199.602 436.445,-206.085"/>
<polygon fill="black" stroke="black" points="433.581,-208.099 442.02,-214.505 439.418,-204.235 433.581,-208.099"/>
<text text-anchor="middle" x="313.693" y="-157.8" font-family="Times New Roman,serif" font-size="14.00">|&#45; ( ( ph \/ ch ) &#45;&gt; ( &#45;. ph &#45;&gt; ch ) )</text>
</g>
<!-- n7221 -->
<g id="node18" class="node"><title>n7221</title>
<ellipse fill="orange" stroke="black" cx="165.347" cy="-18" rx="30.5947" ry="18"/>
<text text-anchor="middle" x="165.347" y="-14.3" font-family="Times New Roman,serif" font-size="14.00">jaoi.2</text>
</g>
<!-- n7220&#45;&gt;n7221 -->
<g id="edge25" class="edge"><title>n7220&#45;&gt;n7221</title>
</g>
<!-- n7219&#45;&gt;n7220 -->
<g id="edge16" class="edge"><title>n7219&#45;&gt;n7220</title>
<path fill="none" stroke="lightgray" d="M51.7498,-53.6642C71.5108,-60.0412 100.092,-69.2646 123.513,-76.8228"/>
<polygon fill="lightgray" stroke="lightgray" points="122.602,-80.2066 133.194,-79.9469 124.752,-73.5448 122.602,-80.2066"/>
<text text-anchor="middle" x="90.5" y="-75.8" font-family="Times New Roman,serif" font-size="14.00" fill="lightgray">wff ch</text>
</g>
<!-- n7221&#45;&gt;n7222 -->
<g id="edge19" class="edge"><title>n7221&#45;&gt;n7222</title>
<path fill="none" stroke="black" d="M195.654,-15.5182C246.465,-12.9797 350.729,-15.8679 405.693,-75 439.719,-111.606 405.579,-139.42 423.693,-186 426.488,-193.186 430.55,-200.414 434.772,-206.911"/>
<polygon fill="black" stroke="black" points="431.963,-209.003 440.525,-215.243 437.724,-205.026 431.963,-209.003"/>
<text text-anchor="middle" x="313.693" y="-78.8" font-family="Times New Roman,serif" font-size="14.00">|&#45; ( ch &#45;&gt; ps )</text>
</g>
<!-- n7223&#45;&gt;n7224 -->
<g id="edge26" class="edge"><title>n7223&#45;&gt;n7224</title>
<path fill="none" stroke="black" d="M484.664,-161.342C531.091,-166.239 622.647,-180.87 686.788,-223 707.479,-236.591 724.679,-258.963 736.09,-276.598"/>
<polygon fill="black" stroke="black" points="733.262,-278.677 741.518,-285.316 739.204,-274.977 733.262,-278.677"/>
<text text-anchor="middle" x="594.788" y="-226.8" font-family="Times New Roman,serif" font-size="14.00">|&#45; ( ph &#45;&gt; ps )</text>
</g>
</g>
</svg>
