<?xml version="1.0" encoding="UTF-8" standalone="no"?>
<!DOCTYPE svg PUBLIC "-//W3C//DTD SVG 1.1//EN"
 "http://www.w3.org/Graphics/SVG/1.1/DTD/svg11.dtd">
<!-- Generated by graphviz version 2.38.0 (20140413.2041)
 -->
<!-- Title: proof_jc Pages: 1 -->
<svg width="1081pt" height="507pt"
 viewBox="0.00 0.00 1080.99 507.00" xmlns="http://www.w3.org/2000/svg" xmlns:xlink="http://www.w3.org/1999/xlink">
<g id="graph0" class="graph" transform="scale(1 1) rotate(0) translate(4 503)">
<title>proof_jc</title>
<polygon fill="white" stroke="none" points="-4,4 -4,-503 1076.99,-503 1076.99,4 -4,4"/>
<!-- n1632 -->
<g id="node1" class="node"><title>n1632</title>
<ellipse fill="none" stroke="lightgray" cx="497.246" cy="-481" rx="27" ry="18"/>
<text text-anchor="middle" x="497.246" y="-477.3" font-family="Times New Roman,serif" font-size="14.00" fill="lightgray">wph</text>
</g>
<!-- n1645 -->
<g id="node2" class="node"><title>n1645</title>
<ellipse fill="cyan" stroke="black" cx="801.493" cy="-265" rx="27" ry="18"/>
<text text-anchor="middle" x="801.493" y="-261.3" font-family="Times New Roman,serif" font-size="14.00">sylc</text>
</g>
<!-- n1632&#45;&gt;n1645 -->
<g id="edge1" class="edge"><title>n1632&#45;&gt;n1645</title>
<path fill="none" stroke="lightgray" d="M524.178,-483.575C575.687,-487.164 691.512,-487.382 756.493,-426 793.049,-391.468 800.262,-329.764 801.116,-293.6"/>
<polygon fill="lightgray" stroke="lightgray" points="804.619,-293.283 801.203,-283.254 797.619,-293.225 804.619,-293.283"/>
<text text-anchor="middle" x="656.993" y="-487.8" font-family="Times New Roman,serif" font-size="14.00" fill="lightgray">wff ph</text>
</g>
<!-- n1633 -->
<g id="node3" class="node"><title>n1633</title>
<ellipse fill="none" stroke="lightgray" cx="497.246" cy="-409" rx="27" ry="18"/>
<text text-anchor="middle" x="497.246" y="-405.3" font-family="Times New Roman,serif" font-size="14.00" fill="lightgray">wps</text>
</g>
<!-- n1632&#45;&gt;n1633 -->
<g id="edge17" class="edge"><title>n1632&#45;&gt;n1633</title>
</g>
<!-- QED -->
<g id="node15" class="node"><title>QED</title>
</g>
<!-- n1645&#45;&gt;QED -->
<g id="edge16" class="edge"><title>n1645&#45;&gt;QED</title>
<path fill="none" stroke="black" d="M828.661,-265C871.035,-265 954.881,-265 1004.13,-265"/>
<polygon fill="black" stroke="black" points="1004.38,-268.5 1014.38,-265 1004.38,-261.5 1004.38,-268.5"/>
<text text-anchor="middle" x="921.493" y="-268.8" font-family="Times New Roman,serif" font-size="14.00">|&#45; ( ph &#45;&gt; &#45;. ( ps &#45;&gt; &#45;. ch ) )</text>
</g>
<!-- n1633&#45;&gt;n1645 -->
<g id="edge2" class="edge"><title>n1633&#45;&gt;n1645</title>
<path fill="none" stroke="lightgray" d="M524.257,-409.311C574.404,-408.597 685.741,-400.484 756.493,-346 773.956,-332.551 785.365,-310.127 792.179,-292.278"/>
<polygon fill="lightgray" stroke="lightgray" points="795.546,-293.255 795.586,-282.66 788.948,-290.918 795.546,-293.255"/>
<text text-anchor="middle" x="656.993" y="-410.8" font-family="Times New Roman,serif" font-size="14.00" fill="lightgray">wff ps</text>
</g>
<!-- n1634 -->
<g id="node4" class="node"><title>n1634</title>
<ellipse fill="none" stroke="lightgray" cx="497.246" cy="-337" rx="27" ry="18"/>
<text text-anchor="middle" x="497.246" y="-333.3" font-family="Times New Roman,serif" font-size="14.00" fill="lightgray">wch</text>
</g>
<!-- n1633&#45;&gt;n1634 -->
<g id="edge18" class="edge"><title>n1633&#45;&gt;n1634</title>
</g>
<!-- n1634&#45;&gt;n1645 -->
<g id="edge3" class="edge"><title>n1634&#45;&gt;n1645</title>
<path fill="none" stroke="lightgray" d="M523.98,-333.509C570.933,-326.748 673.328,-310.185 756.493,-284 760.806,-282.642 765.27,-281.004 769.628,-279.267"/>
<polygon fill="lightgray" stroke="lightgray" points="771.031,-282.474 778.896,-275.374 768.32,-276.02 771.031,-282.474"/>
<text text-anchor="middle" x="656.993" y="-330.8" font-family="Times New Roman,serif" font-size="14.00" fill="lightgray">wff ch</text>
</g>
<!-- n1639 -->
<g id="node9" class="node"><title>n1639</title>
<ellipse fill="none" stroke="lightgray" cx="497.246" cy="-265" rx="27" ry="18"/>
<text text-anchor="middle" x="497.246" y="-261.3" font-family="Times New Roman,serif" font-size="14.00" fill="lightgray">wn</text>
</g>
<!-- n1634&#45;&gt;n1639 -->
<g id="edge19" class="edge"><title>n1634&#45;&gt;n1639</title>
</g>
<!-- n1635 -->
<g id="node5" class="node"><title>n1635</title>
<ellipse fill="none" stroke="lightgray" cx="154" cy="-310" rx="27" ry="18"/>
<text text-anchor="middle" x="154" y="-306.3" font-family="Times New Roman,serif" font-size="14.00" fill="lightgray">wps</text>
</g>
<!-- n1638 -->
<g id="node6" class="node"><title>n1638</title>
<ellipse fill="none" stroke="lightgray" cx="293" cy="-265" rx="27" ry="18"/>
<text text-anchor="middle" x="293" y="-261.3" font-family="Times New Roman,serif" font-size="14.00" fill="lightgray">wi</text>
</g>
<!-- n1635&#45;&gt;n1638 -->
<g id="edge4" class="edge"><title>n1635&#45;&gt;n1638</title>
<path fill="none" stroke="lightgray" d="M178.551,-302.264C200.606,-295.02 233.791,-284.12 258.581,-275.977"/>
<polygon fill="lightgray" stroke="lightgray" points="259.889,-279.231 268.298,-272.785 257.705,-272.581 259.889,-279.231"/>
<text text-anchor="middle" x="223.5" y="-298.8" font-family="Times New Roman,serif" font-size="14.00" fill="lightgray">wff ps</text>
</g>
<!-- n1637 -->
<g id="node8" class="node"><title>n1637</title>
<ellipse fill="none" stroke="lightgray" cx="154" cy="-238" rx="27" ry="18"/>
<text text-anchor="middle" x="154" y="-234.3" font-family="Times New Roman,serif" font-size="14.00" fill="lightgray">wn</text>
</g>
<!-- n1635&#45;&gt;n1637 -->
<g id="edge8" class="edge"><title>n1635&#45;&gt;n1637</title>
</g>
<!-- n1638&#45;&gt;n1639 -->
<g id="edge7" class="edge"><title>n1638&#45;&gt;n1639</title>
<path fill="none" stroke="lightgray" d="M320.026,-265C355.576,-265 419.495,-265 459.798,-265"/>
<polygon fill="lightgray" stroke="lightgray" points="460,-268.5 470,-265 460,-261.5 460,-268.5"/>
<text text-anchor="middle" x="387.5" y="-268.8" font-family="Times New Roman,serif" font-size="14.00" fill="lightgray">wff ( ps &#45;&gt; &#45;. ch )</text>
</g>
<!-- n1636 -->
<g id="node7" class="node"><title>n1636</title>
<ellipse fill="none" stroke="lightgray" cx="27" cy="-238" rx="27" ry="18"/>
<text text-anchor="middle" x="27" y="-234.3" font-family="Times New Roman,serif" font-size="14.00" fill="lightgray">wch</text>
</g>
<!-- n1636&#45;&gt;n1637 -->
<g id="edge5" class="edge"><title>n1636&#45;&gt;n1637</title>
<path fill="none" stroke="lightgray" d="M54.2041,-238C72.3711,-238 96.7994,-238 116.82,-238"/>
<polygon fill="lightgray" stroke="lightgray" points="116.83,-241.5 126.83,-238 116.83,-234.5 116.83,-241.5"/>
<text text-anchor="middle" x="90.5" y="-241.8" font-family="Times New Roman,serif" font-size="14.00" fill="lightgray">wff ch</text>
</g>
<!-- n1637&#45;&gt;n1638 -->
<g id="edge6" class="edge"><title>n1637&#45;&gt;n1638</title>
<path fill="none" stroke="lightgray" d="M180.128,-242.952C201.526,-247.169 232.517,-253.277 256.457,-257.995"/>
<polygon fill="lightgray" stroke="lightgray" points="256.079,-261.488 266.567,-259.988 257.433,-254.62 256.079,-261.488"/>
<text text-anchor="middle" x="223.5" y="-259.8" font-family="Times New Roman,serif" font-size="14.00" fill="lightgray">wff &#45;. ch</text>
</g>
<!-- n1639&#45;&gt;n1645 -->
<g id="edge9" class="edge"><title>n1639&#45;&gt;n1645</title>
<path fill="none" stroke="lightgray" d="M524.277,-265C578.286,-265 702.621,-265 764.357,-265"/>
<polygon fill="lightgray" stroke="lightgray" points="764.417,-268.5 774.417,-265 764.417,-261.5 764.417,-268.5"/>
<text text-anchor="middle" x="656.993" y="-268.8" font-family="Times New Roman,serif" font-size="14.00" fill="lightgray">wff &#45;. ( ps &#45;&gt; &#45;. ch )</text>
</g>
<!-- n1640 -->
<g id="node10" class="node"><title>n1640</title>
<ellipse fill="orange" stroke="black" cx="497.246" cy="-193" rx="27" ry="18"/>
<text text-anchor="middle" x="497.246" y="-189.3" font-family="Times New Roman,serif" font-size="14.00">jc.1</text>
</g>
<!-- n1639&#45;&gt;n1640 -->
<g id="edge20" class="edge"><title>n1639&#45;&gt;n1640</title>
</g>
<!-- n1640&#45;&gt;n1645 -->
<g id="edge10" class="edge"><title>n1640&#45;&gt;n1645</title>
<path fill="none" stroke="black" d="M523.98,-196.491C570.933,-203.252 673.328,-219.815 756.493,-246 760.806,-247.358 765.27,-248.996 769.628,-250.733"/>
<polygon fill="black" stroke="black" points="768.32,-253.98 778.896,-254.626 771.031,-247.526 768.32,-253.98"/>
<text text-anchor="middle" x="656.993" y="-249.8" font-family="Times New Roman,serif" font-size="14.00">|&#45; ( ph &#45;&gt; ps )</text>
</g>
<!-- n1641 -->
<g id="node11" class="node"><title>n1641</title>
<ellipse fill="orange" stroke="black" cx="497.246" cy="-121" rx="27" ry="18"/>
<text text-anchor="middle" x="497.246" y="-117.3" font-family="Times New Roman,serif" font-size="14.00">jc.2</text>
</g>
<!-- n1640&#45;&gt;n1641 -->
<g id="edge21" class="edge"><title>n1640&#45;&gt;n1641</title>
</g>
<!-- n1641&#45;&gt;n1645 -->
<g id="edge11" class="edge"><title>n1641&#45;&gt;n1645</title>
<path fill="none" stroke="black" d="M524.257,-120.689C574.404,-121.403 685.741,-129.516 756.493,-184 773.956,-197.449 785.365,-219.873 792.179,-237.722"/>
<polygon fill="black" stroke="black" points="788.948,-239.082 795.586,-247.34 795.546,-236.745 788.948,-239.082"/>
<text text-anchor="middle" x="656.993" y="-187.8" font-family="Times New Roman,serif" font-size="14.00">|&#45; ( ph &#45;&gt; ch )</text>
</g>
<!-- n1644 -->
<g id="node13" class="node"><title>n1644</title>
<ellipse fill="cyan" stroke="black" cx="497.246" cy="-49" rx="42.4939" ry="18"/>
<text text-anchor="middle" x="497.246" y="-45.3" font-family="Times New Roman,serif" font-size="14.00">pm3.2im</text>
</g>
<!-- n1641&#45;&gt;n1644 -->
<g id="edge22" class="edge"><title>n1641&#45;&gt;n1644</title>
</g>
<!-- n1642 -->
<g id="node12" class="node"><title>n1642</title>
<ellipse fill="none" stroke="lightgray" cx="293" cy="-90" rx="27" ry="18"/>
<text text-anchor="middle" x="293" y="-86.3" font-family="Times New Roman,serif" font-size="14.00" fill="lightgray">wps</text>
</g>
<!-- n1642&#45;&gt;n1644 -->
<g id="edge12" class="edge"><title>n1642&#45;&gt;n1644</title>
<path fill="none" stroke="lightgray" d="M319.206,-84.8902C351.517,-78.34 408.198,-66.8495 448.724,-58.6339"/>
<polygon fill="lightgray" stroke="lightgray" points="449.549,-62.0379 458.654,-56.6208 448.158,-55.1774 449.549,-62.0379"/>
<text text-anchor="middle" x="387.5" y="-84.8" font-family="Times New Roman,serif" font-size="14.00" fill="lightgray">wff ps</text>
</g>
<!-- n1643 -->
<g id="node14" class="node"><title>n1643</title>
<ellipse fill="none" stroke="lightgray" cx="293" cy="-18" rx="27" ry="18"/>
<text text-anchor="middle" x="293" y="-14.3" font-family="Times New Roman,serif" font-size="14.00" fill="lightgray">wch</text>
</g>
<!-- n1642&#45;&gt;n1643 -->
<g id="edge15" class="edge"><title>n1642&#45;&gt;n1643</title>
</g>
<!-- n1644&#45;&gt;n1645 -->
<g id="edge14" class="edge"><title>n1644&#45;&gt;n1645</title>
<path fill="none" stroke="black" d="M539.04,-45.6015C595.496,-43.266 697.177,-47.9693 756.493,-104 793.049,-138.532 800.262,-200.236 801.116,-236.4"/>
<polygon fill="black" stroke="black" points="797.619,-236.775 801.203,-246.746 804.619,-236.717 797.619,-236.775"/>
<text text-anchor="middle" x="656.993" y="-107.8" font-family="Times New Roman,serif" font-size="14.00">|&#45; ( ps &#45;&gt; ( ch &#45;&gt; &#45;. ( ps &#45;&gt; &#45;. ch ) ) )</text>
</g>
<!-- n1643&#45;&gt;n1644 -->
<g id="edge13" class="edge"><title>n1643&#45;&gt;n1644</title>
<path fill="none" stroke="lightgray" d="M319.938,-20.5491C348.669,-23.539 396.313,-28.9903 437,-36 441.203,-36.7241 445.559,-37.5444 449.914,-38.4125"/>
<polygon fill="lightgray" stroke="lightgray" points="449.501,-41.9011 460.003,-40.5016 450.921,-35.0466 449.501,-41.9011"/>
<text text-anchor="middle" x="387.5" y="-39.8" font-family="Times New Roman,serif" font-size="14.00" fill="lightgray">wff ch</text>
</g>
</g>
</svg>
