<?xml version="1.0" encoding="UTF-8" standalone="no"?>
<!DOCTYPE svg PUBLIC "-//W3C//DTD SVG 1.1//EN"
 "http://www.w3.org/Graphics/SVG/1.1/DTD/svg11.dtd">
<!-- Generated by graphviz version 2.38.0 (20140413.2041)
 -->
<!-- Title: proof_mp2 Pages: 1 -->
<svg width="730pt" height="367pt"
 viewBox="0.00 0.00 730.28 367.00" xmlns="http://www.w3.org/2000/svg" xmlns:xlink="http://www.w3.org/1999/xlink">
<g id="graph0" class="graph" transform="scale(1 1) rotate(0) translate(4 363)">
<title>proof_mp2</title>
<polygon fill="white" stroke="none" points="-4,4 -4,-363 726.277,-363 726.277,4 -4,4"/>
<!-- n3 -->
<g id="node1" class="node"><title>n3</title>
<ellipse fill="none" stroke="lightgray" cx="390.391" cy="-341" rx="27" ry="18"/>
<text text-anchor="middle" x="390.391" y="-337.3" font-family="Times New Roman,serif" font-size="14.00" fill="lightgray">wps</text>
</g>
<!-- n13 -->
<g id="node2" class="node"><title>n13</title>
<ellipse fill="lime" stroke="black" cx="568.985" cy="-232" rx="33.5952" ry="18"/>
<text text-anchor="middle" x="568.985" y="-228.3" font-family="Times New Roman,serif" font-size="14.00">ax&#45;mp</text>
</g>
<!-- n3&#45;&gt;n13 -->
<g id="edge1" class="edge"><title>n3&#45;&gt;n13</title>
<path fill="none" stroke="lightgray" d="M413.703,-331.725C439.618,-320.491 483.161,-300.169 517.188,-277 526.782,-270.467 536.515,-262.299 544.858,-254.72"/>
<polygon fill="lightgray" stroke="lightgray" points="547.453,-257.086 552.382,-247.708 542.681,-251.965 547.453,-257.086"/>
<text text-anchor="middle" x="479.688" y="-320.8" font-family="Times New Roman,serif" font-size="14.00" fill="lightgray">wff ps</text>
</g>
<!-- n4 -->
<g id="node3" class="node"><title>n4</title>
<ellipse fill="none" stroke="lightgray" cx="390.391" cy="-269" rx="27" ry="18"/>
<text text-anchor="middle" x="390.391" y="-265.3" font-family="Times New Roman,serif" font-size="14.00" fill="lightgray">wch</text>
</g>
<!-- n3&#45;&gt;n4 -->
<g id="edge16" class="edge"><title>n3&#45;&gt;n4</title>
</g>
<!-- QED -->
<g id="node12" class="node"><title>QED</title>
</g>
<!-- n13&#45;&gt;QED -->
<g id="edge15" class="edge"><title>n13&#45;&gt;QED</title>
<path fill="none" stroke="black" d="M603.012,-232C618.532,-232 637.136,-232 653.314,-232"/>
<polygon fill="black" stroke="black" points="653.538,-235.5 663.538,-232 653.538,-228.5 653.538,-235.5"/>
<text text-anchor="middle" x="633.282" y="-235.8" font-family="Times New Roman,serif" font-size="14.00">|&#45; ch</text>
</g>
<!-- n4&#45;&gt;n13 -->
<g id="edge2" class="edge"><title>n4&#45;&gt;n13</title>
<path fill="none" stroke="lightgray" d="M416.318,-263.777C445.096,-257.748 492.855,-247.741 527.095,-240.567"/>
<polygon fill="lightgray" stroke="lightgray" points="528.182,-243.916 537.251,-238.439 526.746,-237.064 528.182,-243.916"/>
<text text-anchor="middle" x="479.688" y="-261.8" font-family="Times New Roman,serif" font-size="14.00" fill="lightgray">wff ch</text>
</g>
<!-- n5 -->
<g id="node4" class="node"><title>n5</title>
<ellipse fill="orange" stroke="black" cx="390.391" cy="-197" rx="33.5952" ry="18"/>
<text text-anchor="middle" x="390.391" y="-193.3" font-family="Times New Roman,serif" font-size="14.00">mp2.2</text>
</g>
<!-- n4&#45;&gt;n5 -->
<g id="edge17" class="edge"><title>n4&#45;&gt;n5</title>
</g>
<!-- n5&#45;&gt;n13 -->
<g id="edge3" class="edge"><title>n5&#45;&gt;n13</title>
<path fill="none" stroke="black" d="M422.556,-203.177C451.683,-208.95 495.346,-217.603 527.228,-223.922"/>
<polygon fill="black" stroke="black" points="526.642,-227.374 537.132,-225.885 528.003,-220.508 526.642,-227.374"/>
<text text-anchor="middle" x="479.688" y="-225.8" font-family="Times New Roman,serif" font-size="14.00">|&#45; ps</text>
</g>
<!-- n12 -->
<g id="node6" class="node"><title>n12</title>
<ellipse fill="lime" stroke="black" cx="390.391" cy="-125" rx="33.5952" ry="18"/>
<text text-anchor="middle" x="390.391" y="-121.3" font-family="Times New Roman,serif" font-size="14.00">ax&#45;mp</text>
</g>
<!-- n5&#45;&gt;n12 -->
<g id="edge18" class="edge"><title>n5&#45;&gt;n12</title>
</g>
<!-- n6 -->
<g id="node5" class="node"><title>n6</title>
<ellipse fill="none" stroke="lightgray" cx="160.797" cy="-234" rx="27" ry="18"/>
<text text-anchor="middle" x="160.797" y="-230.3" font-family="Times New Roman,serif" font-size="14.00" fill="lightgray">wph</text>
</g>
<!-- n6&#45;&gt;n12 -->
<g id="edge4" class="edge"><title>n6&#45;&gt;n12</title>
<path fill="none" stroke="lightgray" d="M186.966,-228.87C222.625,-220.839 289.022,-203.03 338.594,-173 349.349,-166.484 359.722,-157.377 368.259,-148.845"/>
<polygon fill="lightgray" stroke="lightgray" points="370.842,-151.208 375.252,-141.574 365.797,-146.355 370.842,-151.208"/>
<text text-anchor="middle" x="275.594" y="-225.8" font-family="Times New Roman,serif" font-size="14.00" fill="lightgray">wff ph</text>
</g>
<!-- n9 -->
<g id="node8" class="node"><title>n9</title>
<ellipse fill="none" stroke="lightgray" cx="160.797" cy="-162" rx="27" ry="18"/>
<text text-anchor="middle" x="160.797" y="-158.3" font-family="Times New Roman,serif" font-size="14.00" fill="lightgray">wi</text>
</g>
<!-- n6&#45;&gt;n9 -->
<g id="edge12" class="edge"><title>n6&#45;&gt;n9</title>
</g>
<!-- n12&#45;&gt;n13 -->
<g id="edge11" class="edge"><title>n12&#45;&gt;n13</title>
<path fill="none" stroke="black" d="M417.418,-136.095C443.559,-147.725 484.535,-167.3 517.188,-189 526.282,-195.043 535.584,-202.485 543.701,-209.468"/>
<polygon fill="black" stroke="black" points="541.556,-212.243 551.372,-216.23 546.185,-206.992 541.556,-212.243"/>
<text text-anchor="middle" x="479.688" y="-192.8" font-family="Times New Roman,serif" font-size="14.00">|&#45; ( ps &#45;&gt; ch )</text>
</g>
<!-- n7 -->
<g id="node7" class="node"><title>n7</title>
<ellipse fill="none" stroke="lightgray" cx="27" cy="-207" rx="27" ry="18"/>
<text text-anchor="middle" x="27" y="-203.3" font-family="Times New Roman,serif" font-size="14.00" fill="lightgray">wps</text>
</g>
<!-- n7&#45;&gt;n9 -->
<g id="edge5" class="edge"><title>n7&#45;&gt;n9</title>
<path fill="none" stroke="lightgray" d="M51.2593,-199.058C72.2097,-191.905 103.236,-181.312 126.757,-173.281"/>
<polygon fill="lightgray" stroke="lightgray" points="127.994,-176.557 136.327,-170.013 125.732,-169.932 127.994,-176.557"/>
<text text-anchor="middle" x="90.5" y="-195.8" font-family="Times New Roman,serif" font-size="14.00" fill="lightgray">wff ps</text>
</g>
<!-- n8 -->
<g id="node9" class="node"><title>n8</title>
<ellipse fill="none" stroke="lightgray" cx="27" cy="-135" rx="27" ry="18"/>
<text text-anchor="middle" x="27" y="-131.3" font-family="Times New Roman,serif" font-size="14.00" fill="lightgray">wch</text>
</g>
<!-- n7&#45;&gt;n8 -->
<g id="edge8" class="edge"><title>n7&#45;&gt;n8</title>
</g>
<!-- n9&#45;&gt;n12 -->
<g id="edge7" class="edge"><title>n9&#45;&gt;n12</title>
<path fill="none" stroke="lightgray" d="M187.463,-157.828C226.371,-151.502 300.697,-139.419 347.511,-131.809"/>
<polygon fill="lightgray" stroke="lightgray" points="348.324,-135.222 357.633,-130.163 347.201,-128.313 348.324,-135.222"/>
<text text-anchor="middle" x="275.594" y="-157.8" font-family="Times New Roman,serif" font-size="14.00" fill="lightgray">wff ( ps &#45;&gt; ch )</text>
</g>
<!-- n10 -->
<g id="node10" class="node"><title>n10</title>
<ellipse fill="orange" stroke="black" cx="160.797" cy="-90" rx="33.5952" ry="18"/>
<text text-anchor="middle" x="160.797" y="-86.3" font-family="Times New Roman,serif" font-size="14.00">mp2.1</text>
</g>
<!-- n9&#45;&gt;n10 -->
<g id="edge13" class="edge"><title>n9&#45;&gt;n10</title>
</g>
<!-- n8&#45;&gt;n9 -->
<g id="edge6" class="edge"><title>n8&#45;&gt;n9</title>
<path fill="none" stroke="lightgray" d="M53.1002,-140.142C73.4372,-144.308 102.321,-150.225 124.909,-154.853"/>
<polygon fill="lightgray" stroke="lightgray" points="124.291,-158.299 134.79,-156.877 125.696,-151.441 124.291,-158.299"/>
<text text-anchor="middle" x="90.5" y="-154.8" font-family="Times New Roman,serif" font-size="14.00" fill="lightgray">wff ch</text>
</g>
<!-- n10&#45;&gt;n12 -->
<g id="edge9" class="edge"><title>n10&#45;&gt;n12</title>
<path fill="none" stroke="black" d="M193.779,-94.4156C229.225,-99.3764 288.064,-107.81 338.594,-116 341.777,-116.516 345.069,-117.065 348.377,-117.627"/>
<polygon fill="black" stroke="black" points="347.803,-121.08 358.253,-119.334 348.996,-114.182 347.803,-121.08"/>
<text text-anchor="middle" x="275.594" y="-119.8" font-family="Times New Roman,serif" font-size="14.00">|&#45; ph</text>
</g>
<!-- n11 -->
<g id="node11" class="node"><title>n11</title>
<ellipse fill="orange" stroke="black" cx="160.797" cy="-18" rx="33.5952" ry="18"/>
<text text-anchor="middle" x="160.797" y="-14.3" font-family="Times New Roman,serif" font-size="14.00">mp2.3</text>
</g>
<!-- n10&#45;&gt;n11 -->
<g id="edge14" class="edge"><title>n10&#45;&gt;n11</title>
</g>
<!-- n11&#45;&gt;n12 -->
<g id="edge10" class="edge"><title>n11&#45;&gt;n12</title>
<path fill="none" stroke="black" d="M192.486,-24.5913C229.075,-33.3262 291.222,-50.985 338.594,-79 348.944,-85.1206 359.038,-93.5776 367.466,-101.573"/>
<polygon fill="black" stroke="black" points="365.12,-104.174 374.697,-108.705 370.035,-99.1905 365.12,-104.174"/>
<text text-anchor="middle" x="275.594" y="-82.8" font-family="Times New Roman,serif" font-size="14.00">|&#45; ( ph &#45;&gt; ( ps &#45;&gt; ch ) )</text>
</g>
</g>
</svg>
