<?xml version="1.0" encoding="UTF-8" standalone="no"?>
<!DOCTYPE svg PUBLIC "-//W3C//DTD SVG 1.1//EN"
 "http://www.w3.org/Graphics/SVG/1.1/DTD/svg11.dtd">
<!-- Generated by graphviz version 2.38.0 (20140413.2041)
 -->
<!-- Title: proof_mpanl2 Pages: 1 -->
<svg width="728pt" height="404pt"
 viewBox="0.00 0.00 727.77 404.00" xmlns="http://www.w3.org/2000/svg" xmlns:xlink="http://www.w3.org/1999/xlink">
<g id="graph0" class="graph" transform="scale(1 1) rotate(0) translate(4 400)">
<title>proof_mpanl2</title>
<polygon fill="white" stroke="none" points="-4,4 -4,-400 723.774,-400 723.774,4 -4,4"/>
<!-- n11633 -->
<g id="node1" class="node"><title>n11633</title>
<ellipse fill="none" stroke="lightgray" cx="205.588" cy="-378" rx="27" ry="18"/>
<text text-anchor="middle" x="205.588" y="-374.3" font-family="Times New Roman,serif" font-size="14.00" fill="lightgray">wph</text>
</g>
<!-- n11644 -->
<g id="node2" class="node"><title>n11644</title>
<ellipse fill="cyan" stroke="black" cx="478.032" cy="-197" rx="29.4969" ry="18"/>
<text text-anchor="middle" x="478.032" y="-193.3" font-family="Times New Roman,serif" font-size="14.00">sylan</text>
</g>
<!-- n11633&#45;&gt;n11644 -->
<g id="edge1" class="edge"><title>n11633&#45;&gt;n11644</title>
<path fill="none" stroke="lightgray" d="M232.627,-378.159C278.458,-377.035 374.043,-368.22 430.784,-317 457.12,-293.227 468.581,-252.731 473.485,-225.432"/>
<polygon fill="lightgray" stroke="lightgray" points="476.978,-225.758 475.112,-215.329 470.067,-224.646 476.978,-225.758"/>
<text text-anchor="middle" x="349.284" y="-378.8" font-family="Times New Roman,serif" font-size="14.00" fill="lightgray">wff ph</text>
</g>
<!-- n11636 -->
<g id="node4" class="node"><title>n11636</title>
<ellipse fill="none" stroke="lightgray" cx="205.588" cy="-306" rx="27" ry="18"/>
<text text-anchor="middle" x="205.588" y="-302.3" font-family="Times New Roman,serif" font-size="14.00" fill="lightgray">wa</text>
</g>
<!-- n11633&#45;&gt;n11636 -->
<g id="edge16" class="edge"><title>n11633&#45;&gt;n11636</title>
</g>
<!-- QED -->
<g id="node13" class="node"><title>QED</title>
</g>
<!-- n11644&#45;&gt;QED -->
<g id="edge15" class="edge"><title>n11644&#45;&gt;QED</title>
<path fill="none" stroke="black" d="M507.42,-197C544.559,-197 609.774,-197 651.251,-197"/>
<polygon fill="black" stroke="black" points="651.253,-200.5 661.253,-197 651.253,-193.5 651.253,-200.5"/>
<text text-anchor="middle" x="584.279" y="-200.8" font-family="Times New Roman,serif" font-size="14.00">|&#45; ( ( ph /\ ch ) &#45;&gt; th )</text>
</g>
<!-- n11634 -->
<g id="node3" class="node"><title>n11634</title>
<ellipse fill="none" stroke="lightgray" cx="44.1961" cy="-350" rx="27" ry="18"/>
<text text-anchor="middle" x="44.1961" y="-346.3" font-family="Times New Roman,serif" font-size="14.00" fill="lightgray">wph</text>
</g>
<!-- n11634&#45;&gt;n11636 -->
<g id="edge2" class="edge"><title>n11634&#45;&gt;n11636</title>
<path fill="none" stroke="lightgray" d="M69.4043,-343.317C96.3984,-335.866 140.253,-323.76 170.661,-315.366"/>
<polygon fill="lightgray" stroke="lightgray" points="171.706,-318.708 180.414,-312.673 169.843,-311.961 171.706,-318.708"/>
<text text-anchor="middle" x="124.892" y="-334.8" font-family="Times New Roman,serif" font-size="14.00" fill="lightgray">wff ph</text>
</g>
<!-- n11635 -->
<g id="node5" class="node"><title>n11635</title>
<ellipse fill="none" stroke="lightgray" cx="44.1961" cy="-278" rx="27" ry="18"/>
<text text-anchor="middle" x="44.1961" y="-274.3" font-family="Times New Roman,serif" font-size="14.00" fill="lightgray">wps</text>
</g>
<!-- n11634&#45;&gt;n11635 -->
<g id="edge5" class="edge"><title>n11634&#45;&gt;n11635</title>
</g>
<!-- n11636&#45;&gt;n11644 -->
<g id="edge4" class="edge"><title>n11636&#45;&gt;n11644</title>
<path fill="none" stroke="lightgray" d="M232.526,-303.474C276.172,-298.274 365.886,-283.447 430.784,-245 441.151,-238.859 450.736,-229.772 458.459,-221.152"/>
<polygon fill="lightgray" stroke="lightgray" points="461.185,-223.35 464.998,-213.465 455.853,-218.814 461.185,-223.35"/>
<text text-anchor="middle" x="349.284" y="-301.8" font-family="Times New Roman,serif" font-size="14.00" fill="lightgray">wff ( ph /\ ps )</text>
</g>
<!-- n11637 -->
<g id="node6" class="node"><title>n11637</title>
<ellipse fill="none" stroke="lightgray" cx="205.588" cy="-234" rx="27" ry="18"/>
<text text-anchor="middle" x="205.588" y="-230.3" font-family="Times New Roman,serif" font-size="14.00" fill="lightgray">wch</text>
</g>
<!-- n11636&#45;&gt;n11637 -->
<g id="edge17" class="edge"><title>n11636&#45;&gt;n11637</title>
</g>
<!-- n11635&#45;&gt;n11636 -->
<g id="edge3" class="edge"><title>n11635&#45;&gt;n11636</title>
<path fill="none" stroke="lightgray" d="M70.4522,-282.437C97.0717,-287.113 139.213,-294.516 169.152,-299.775"/>
<polygon fill="lightgray" stroke="lightgray" points="168.732,-303.255 179.187,-301.538 169.943,-296.36 168.732,-303.255"/>
<text text-anchor="middle" x="124.892" y="-297.8" font-family="Times New Roman,serif" font-size="14.00" fill="lightgray">wff ps</text>
</g>
<!-- n11637&#45;&gt;n11644 -->
<g id="edge6" class="edge"><title>n11637&#45;&gt;n11644</title>
<path fill="none" stroke="lightgray" d="M232.519,-230.452C280.461,-223.893 383.148,-209.844 438.983,-202.206"/>
<polygon fill="lightgray" stroke="lightgray" points="439.734,-205.635 449.167,-200.812 438.785,-198.7 439.734,-205.635"/>
<text text-anchor="middle" x="349.284" y="-229.8" font-family="Times New Roman,serif" font-size="14.00" fill="lightgray">wff ch</text>
</g>
<!-- n11638 -->
<g id="node7" class="node"><title>n11638</title>
<ellipse fill="none" stroke="lightgray" cx="205.588" cy="-162" rx="27" ry="18"/>
<text text-anchor="middle" x="205.588" y="-158.3" font-family="Times New Roman,serif" font-size="14.00" fill="lightgray">wth</text>
</g>
<!-- n11637&#45;&gt;n11638 -->
<g id="edge18" class="edge"><title>n11637&#45;&gt;n11638</title>
</g>
<!-- n11638&#45;&gt;n11644 -->
<g id="edge7" class="edge"><title>n11638&#45;&gt;n11644</title>
<path fill="none" stroke="lightgray" d="M232.567,-164.359C274.428,-168.308 359.344,-176.923 430.784,-188 433.838,-188.474 436.998,-189.003 440.166,-189.562"/>
<polygon fill="lightgray" stroke="lightgray" points="439.723,-193.04 450.192,-191.415 440.995,-186.156 439.723,-193.04"/>
<text text-anchor="middle" x="349.284" y="-191.8" font-family="Times New Roman,serif" font-size="14.00" fill="lightgray">wff th</text>
</g>
<!-- n11642 -->
<g id="node9" class="node"><title>n11642</title>
<ellipse fill="cyan" stroke="black" cx="205.588" cy="-90" rx="27" ry="18"/>
<text text-anchor="middle" x="205.588" y="-86.3" font-family="Times New Roman,serif" font-size="14.00">jctr</text>
</g>
<!-- n11638&#45;&gt;n11642 -->
<g id="edge19" class="edge"><title>n11638&#45;&gt;n11642</title>
</g>
<!-- n11639 -->
<g id="node8" class="node"><title>n11639</title>
<ellipse fill="none" stroke="lightgray" cx="44.1961" cy="-162" rx="27" ry="18"/>
<text text-anchor="middle" x="44.1961" y="-158.3" font-family="Times New Roman,serif" font-size="14.00" fill="lightgray">wph</text>
</g>
<!-- n11639&#45;&gt;n11642 -->
<g id="edge8" class="edge"><title>n11639&#45;&gt;n11642</title>
<path fill="none" stroke="lightgray" d="M67.0247,-152.14C94.6092,-139.679 142.261,-118.154 173.605,-103.996"/>
<polygon fill="lightgray" stroke="lightgray" points="175.096,-107.163 182.768,-99.8565 172.214,-100.784 175.096,-107.163"/>
<text text-anchor="middle" x="124.892" y="-136.8" font-family="Times New Roman,serif" font-size="14.00" fill="lightgray">wff ph</text>
</g>
<!-- n11640 -->
<g id="node10" class="node"><title>n11640</title>
<ellipse fill="none" stroke="lightgray" cx="44.1961" cy="-90" rx="27" ry="18"/>
<text text-anchor="middle" x="44.1961" y="-86.3" font-family="Times New Roman,serif" font-size="14.00" fill="lightgray">wps</text>
</g>
<!-- n11639&#45;&gt;n11640 -->
<g id="edge12" class="edge"><title>n11639&#45;&gt;n11640</title>
</g>
<!-- n11642&#45;&gt;n11644 -->
<g id="edge11" class="edge"><title>n11642&#45;&gt;n11644</title>
<path fill="none" stroke="black" d="M232.481,-92.461C276.061,-97.54 365.678,-112.073 430.784,-150 440.979,-155.939 450.461,-164.713 458.151,-173.078"/>
<polygon fill="black" stroke="black" points="455.731,-175.628 464.941,-180.866 461.008,-171.028 455.731,-175.628"/>
<text text-anchor="middle" x="349.284" y="-153.8" font-family="Times New Roman,serif" font-size="14.00">|&#45; ( ph &#45;&gt; ( ph /\ ps ) )</text>
</g>
<!-- n11643 -->
<g id="node12" class="node"><title>n11643</title>
<ellipse fill="orange" stroke="black" cx="205.588" cy="-18" rx="44.393" ry="18"/>
<text text-anchor="middle" x="205.588" y="-14.3" font-family="Times New Roman,serif" font-size="14.00">mpanl2.2</text>
</g>
<!-- n11642&#45;&gt;n11643 -->
<g id="edge20" class="edge"><title>n11642&#45;&gt;n11643</title>
</g>
<!-- n11640&#45;&gt;n11642 -->
<g id="edge9" class="edge"><title>n11640&#45;&gt;n11642</title>
<path fill="none" stroke="lightgray" d="M71.5165,-90C97.8979,-90 138.721,-90 168.196,-90"/>
<polygon fill="lightgray" stroke="lightgray" points="168.494,-93.5001 178.494,-90 168.494,-86.5001 168.494,-93.5001"/>
<text text-anchor="middle" x="124.892" y="-93.8" font-family="Times New Roman,serif" font-size="14.00" fill="lightgray">wff ps</text>
</g>
<!-- n11641 -->
<g id="node11" class="node"><title>n11641</title>
<ellipse fill="orange" stroke="black" cx="44.1961" cy="-18" rx="44.393" ry="18"/>
<text text-anchor="middle" x="44.1961" y="-14.3" font-family="Times New Roman,serif" font-size="14.00">mpanl2.1</text>
</g>
<!-- n11640&#45;&gt;n11641 -->
<g id="edge13" class="edge"><title>n11640&#45;&gt;n11641</title>
</g>
<!-- n11641&#45;&gt;n11642 -->
<g id="edge10" class="edge"><title>n11641&#45;&gt;n11642</title>
<path fill="none" stroke="black" d="M74.4311,-31.2059C102.531,-43.8989 144.848,-63.0142 173.54,-75.9749"/>
<polygon fill="black" stroke="black" points="172.153,-79.1891 182.708,-80.1161 175.035,-72.8098 172.153,-79.1891"/>
<text text-anchor="middle" x="124.892" y="-64.8" font-family="Times New Roman,serif" font-size="14.00">|&#45; ps</text>
</g>
<!-- n11643&#45;&gt;n11644 -->
<g id="edge14" class="edge"><title>n11643&#45;&gt;n11644</title>
<path fill="none" stroke="black" d="M249.973,-18.6221C299.559,-21.6092 380.352,-33.7341 430.784,-79 456.805,-102.355 468.341,-142.181 473.349,-169.032"/>
<polygon fill="black" stroke="black" points="469.91,-169.687 475.017,-178.97 476.814,-168.529 469.91,-169.687"/>
<text text-anchor="middle" x="349.284" y="-82.8" font-family="Times New Roman,serif" font-size="14.00">|&#45; ( ( ( ph /\ ps ) /\ ch ) &#45;&gt; th )</text>
</g>
</g>
</svg>
