<?xml version="1.0" encoding="UTF-8" standalone="no"?>
<!DOCTYPE svg PUBLIC "-//W3C//DTD SVG 1.1//EN"
 "http://www.w3.org/Graphics/SVG/1.1/DTD/svg11.dtd">
<!-- Generated by graphviz version 2.38.0 (20140413.2041)
 -->
<!-- Title: proof_mpbi Pages: 1 -->
<svg width="605pt" height="332pt"
 viewBox="0.00 0.00 605.17 332.00" xmlns="http://www.w3.org/2000/svg" xmlns:xlink="http://www.w3.org/1999/xlink">
<g id="graph0" class="graph" transform="scale(1 1) rotate(0) translate(4 328)">
<title>proof_mpbi</title>
<polygon fill="white" stroke="none" points="-4,4 -4,-328 601.173,-328 601.173,4 -4,4"/>
<!-- n4634 -->
<g id="node1" class="node"><title>n4634</title>
<ellipse fill="none" stroke="lightgray" cx="253.238" cy="-306" rx="27" ry="18"/>
<text text-anchor="middle" x="253.238" y="-302.3" font-family="Times New Roman,serif" font-size="14.00" fill="lightgray">wph</text>
</g>
<!-- n4641 -->
<g id="node2" class="node"><title>n4641</title>
<ellipse fill="lawngreen" stroke="black" cx="443.881" cy="-197" rx="33.5952" ry="18"/>
<text text-anchor="middle" x="443.881" y="-193.3" font-family="Times New Roman,serif" font-size="14.00">ax&#45;mp</text>
</g>
<!-- n4634&#45;&gt;n4641 -->
<g id="edge1" class="edge"><title>n4634&#45;&gt;n4641</title>
<path fill="none" stroke="lightgray" d="M277.081,-296.888C305.168,-285.241 353.818,-263.617 392.084,-239 401.179,-233.15 410.481,-225.895 418.598,-219.071"/>
<polygon fill="lightgray" stroke="lightgray" points="420.98,-221.638 426.268,-212.457 416.409,-216.337 420.98,-221.638"/>
<text text-anchor="middle" x="354.084" y="-281.8" font-family="Times New Roman,serif" font-size="14.00" fill="lightgray">wff ph</text>
</g>
<!-- n4635 -->
<g id="node3" class="node"><title>n4635</title>
<ellipse fill="none" stroke="lightgray" cx="253.238" cy="-234" rx="27" ry="18"/>
<text text-anchor="middle" x="253.238" y="-230.3" font-family="Times New Roman,serif" font-size="14.00" fill="lightgray">wps</text>
</g>
<!-- n4634&#45;&gt;n4635 -->
<g id="edge11" class="edge"><title>n4634&#45;&gt;n4635</title>
</g>
<!-- QED -->
<g id="node9" class="node"><title>QED</title>
</g>
<!-- n4641&#45;&gt;QED -->
<g id="edge10" class="edge"><title>n4641&#45;&gt;QED</title>
<path fill="none" stroke="black" d="M477.908,-197C493.428,-197 512.032,-197 528.21,-197"/>
<polygon fill="black" stroke="black" points="528.434,-200.5 538.434,-197 528.434,-193.5 528.434,-200.5"/>
<text text-anchor="middle" x="508.178" y="-200.8" font-family="Times New Roman,serif" font-size="14.00">|&#45; ps</text>
</g>
<!-- n4635&#45;&gt;n4641 -->
<g id="edge2" class="edge"><title>n4635&#45;&gt;n4641</title>
<path fill="none" stroke="lightgray" d="M279.289,-229.087C310.528,-222.959 364.361,-212.401 401.701,-205.077"/>
<polygon fill="lightgray" stroke="lightgray" points="402.624,-208.463 411.763,-203.103 401.276,-201.594 402.624,-208.463"/>
<text text-anchor="middle" x="354.084" y="-223.8" font-family="Times New Roman,serif" font-size="14.00" fill="lightgray">wff ps</text>
</g>
<!-- n4636 -->
<g id="node4" class="node"><title>n4636</title>
<ellipse fill="orange" stroke="black" cx="253.238" cy="-162" rx="44.6926" ry="18"/>
<text text-anchor="middle" x="253.238" y="-158.3" font-family="Times New Roman,serif" font-size="14.00">mpbi.min</text>
</g>
<!-- n4635&#45;&gt;n4636 -->
<g id="edge12" class="edge"><title>n4635&#45;&gt;n4636</title>
</g>
<!-- n4636&#45;&gt;n4641 -->
<g id="edge3" class="edge"><title>n4636&#45;&gt;n4641</title>
<path fill="none" stroke="black" d="M294.245,-169.423C325.864,-175.289 369.837,-183.448 401.746,-189.368"/>
<polygon fill="black" stroke="black" points="401.181,-192.823 411.651,-191.206 402.458,-185.94 401.181,-192.823"/>
<text text-anchor="middle" x="354.084" y="-189.8" font-family="Times New Roman,serif" font-size="14.00">|&#45; ph</text>
</g>
<!-- n4640 -->
<g id="node6" class="node"><title>n4640</title>
<ellipse fill="cyan" stroke="black" cx="253.238" cy="-90" rx="33.2948" ry="18"/>
<text text-anchor="middle" x="253.238" y="-86.3" font-family="Times New Roman,serif" font-size="14.00">biimpi</text>
</g>
<!-- n4636&#45;&gt;n4640 -->
<g id="edge13" class="edge"><title>n4636&#45;&gt;n4640</title>
</g>
<!-- n4637 -->
<g id="node5" class="node"><title>n4637</title>
<ellipse fill="none" stroke="lightgray" cx="44.1961" cy="-162" rx="27" ry="18"/>
<text text-anchor="middle" x="44.1961" y="-158.3" font-family="Times New Roman,serif" font-size="14.00" fill="lightgray">wph</text>
</g>
<!-- n4637&#45;&gt;n4640 -->
<g id="edge4" class="edge"><title>n4637&#45;&gt;n4640</title>
<path fill="none" stroke="lightgray" d="M68.544,-153.881C104.182,-141.487 172.483,-117.735 215.013,-102.945"/>
<polygon fill="lightgray" stroke="lightgray" points="216.419,-106.162 224.715,-99.5715 214.12,-99.5504 216.419,-106.162"/>
<text text-anchor="middle" x="148.392" y="-142.8" font-family="Times New Roman,serif" font-size="14.00" fill="lightgray">wff ph</text>
</g>
<!-- n4638 -->
<g id="node7" class="node"><title>n4638</title>
<ellipse fill="none" stroke="lightgray" cx="44.1961" cy="-90" rx="27" ry="18"/>
<text text-anchor="middle" x="44.1961" y="-86.3" font-family="Times New Roman,serif" font-size="14.00" fill="lightgray">wps</text>
</g>
<!-- n4637&#45;&gt;n4638 -->
<g id="edge8" class="edge"><title>n4637&#45;&gt;n4638</title>
</g>
<!-- n4640&#45;&gt;n4641 -->
<g id="edge7" class="edge"><title>n4640&#45;&gt;n4641</title>
<path fill="none" stroke="black" d="M280.658,-100.138C309.183,-111.605 355.453,-131.739 392.084,-155 401.213,-160.797 410.524,-168.037 418.639,-174.865"/>
<polygon fill="black" stroke="black" points="416.448,-177.598 426.304,-181.487 421.025,-172.301 416.448,-177.598"/>
<text text-anchor="middle" x="354.084" y="-158.8" font-family="Times New Roman,serif" font-size="14.00">|&#45; ( ph &#45;&gt; ps )</text>
</g>
<!-- n4638&#45;&gt;n4640 -->
<g id="edge5" class="edge"><title>n4638&#45;&gt;n4640</title>
<path fill="none" stroke="lightgray" d="M71.4181,-90C106.226,-90 168.124,-90 209.673,-90"/>
<polygon fill="lightgray" stroke="lightgray" points="209.769,-93.5001 219.769,-90 209.769,-86.5001 209.769,-93.5001"/>
<text text-anchor="middle" x="148.392" y="-93.8" font-family="Times New Roman,serif" font-size="14.00" fill="lightgray">wff ps</text>
</g>
<!-- n4639 -->
<g id="node8" class="node"><title>n4639</title>
<ellipse fill="orange" stroke="black" cx="44.1961" cy="-18" rx="44.393" ry="18"/>
<text text-anchor="middle" x="44.1961" y="-14.3" font-family="Times New Roman,serif" font-size="14.00">mpbi.maj</text>
</g>
<!-- n4638&#45;&gt;n4639 -->
<g id="edge9" class="edge"><title>n4638&#45;&gt;n4639</title>
</g>
<!-- n4639&#45;&gt;n4640 -->
<g id="edge6" class="edge"><title>n4639&#45;&gt;n4640</title>
<path fill="none" stroke="black" d="M78.461,-29.568C115.817,-42.5587 176.282,-63.5858 215.138,-77.0981"/>
<polygon fill="black" stroke="black" points="214.41,-80.5506 225.005,-80.5294 216.709,-73.9389 214.41,-80.5506"/>
<text text-anchor="middle" x="148.392" y="-72.8" font-family="Times New Roman,serif" font-size="14.00">|&#45; ( ph &lt;&#45;&gt; ps )</text>
</g>
</g>
</svg>
