<?xml version="1.0" encoding="UTF-8" standalone="no"?>
<!DOCTYPE svg PUBLIC "-//W3C//DTD SVG 1.1//EN"
 "http://www.w3.org/Graphics/SVG/1.1/DTD/svg11.dtd">
<!-- Generated by graphviz version 2.38.0 (20140413.2041)
 -->
<!-- Title: proof_mpdi Pages: 1 -->
<svg width="895pt" height="404pt"
 viewBox="0.00 0.00 895.08 404.00" xmlns="http://www.w3.org/2000/svg" xmlns:xlink="http://www.w3.org/1999/xlink">
<g id="graph0" class="graph" transform="scale(1 1) rotate(0) translate(4 400)">
<title>proof_mpdi</title>
<polygon fill="white" stroke="none" points="-4,4 -4,-400 891.076,-400 891.076,4 -4,4"/>
<!-- n380 -->
<g id="node1" class="node"><title>n380</title>
<ellipse fill="none" stroke="lightgray" cx="359.19" cy="-378" rx="27" ry="18"/>
<text text-anchor="middle" x="359.19" y="-374.3" font-family="Times New Roman,serif" font-size="14.00" fill="lightgray">wph</text>
</g>
<!-- n391 -->
<g id="node2" class="node"><title>n391</title>
<ellipse fill="cyan" stroke="black" cx="637.084" cy="-197" rx="32.4942" ry="18"/>
<text text-anchor="middle" x="637.084" y="-193.3" font-family="Times New Roman,serif" font-size="14.00">mpdd</text>
</g>
<!-- n380&#45;&gt;n391 -->
<g id="edge1" class="edge"><title>n380&#45;&gt;n391</title>
<path fill="none" stroke="lightgray" d="M386.365,-378.252C432.458,-377.297 528.697,-368.854 586.587,-318 613.834,-294.065 626.351,-252.868 631.911,-225.283"/>
<polygon fill="lightgray" stroke="lightgray" points="635.419,-225.557 633.776,-215.09 628.533,-224.297 635.419,-225.557"/>
<text text-anchor="middle" x="500.087" y="-379.8" font-family="Times New Roman,serif" font-size="14.00" fill="lightgray">wff ph</text>
</g>
<!-- n381 -->
<g id="node3" class="node"><title>n381</title>
<ellipse fill="none" stroke="lightgray" cx="359.19" cy="-306" rx="27" ry="18"/>
<text text-anchor="middle" x="359.19" y="-302.3" font-family="Times New Roman,serif" font-size="14.00" fill="lightgray">wps</text>
</g>
<!-- n380&#45;&gt;n381 -->
<g id="edge16" class="edge"><title>n380&#45;&gt;n381</title>
</g>
<!-- QED -->
<g id="node13" class="node"><title>QED</title>
</g>
<!-- n391&#45;&gt;QED -->
<g id="edge15" class="edge"><title>n391&#45;&gt;QED</title>
<path fill="none" stroke="black" d="M669.892,-197C709.216,-197 776.103,-197 818.299,-197"/>
<polygon fill="black" stroke="black" points="818.463,-200.5 828.463,-197 818.463,-193.5 818.463,-200.5"/>
<text text-anchor="middle" x="749.081" y="-200.8" font-family="Times New Roman,serif" font-size="14.00">|&#45; ( ph &#45;&gt; ( ps &#45;&gt; th ) )</text>
</g>
<!-- n381&#45;&gt;n391 -->
<g id="edge2" class="edge"><title>n381&#45;&gt;n391</title>
<path fill="none" stroke="lightgray" d="M386.282,-303.503C430.208,-298.371 520.589,-283.762 586.587,-246 597.789,-239.59 608.254,-230.008 616.65,-221.012"/>
<polygon fill="lightgray" stroke="lightgray" points="619.432,-223.151 623.462,-213.353 614.201,-218.499 619.432,-223.151"/>
<text text-anchor="middle" x="500.087" y="-302.8" font-family="Times New Roman,serif" font-size="14.00" fill="lightgray">wff ps</text>
</g>
<!-- n382 -->
<g id="node4" class="node"><title>n382</title>
<ellipse fill="none" stroke="lightgray" cx="359.19" cy="-234" rx="27" ry="18"/>
<text text-anchor="middle" x="359.19" y="-230.3" font-family="Times New Roman,serif" font-size="14.00" fill="lightgray">wch</text>
</g>
<!-- n381&#45;&gt;n382 -->
<g id="edge17" class="edge"><title>n381&#45;&gt;n382</title>
</g>
<!-- n382&#45;&gt;n391 -->
<g id="edge3" class="edge"><title>n382&#45;&gt;n391</title>
<path fill="none" stroke="lightgray" d="M386.146,-230.519C434.259,-224.067 537.62,-210.205 595.211,-202.481"/>
<polygon fill="lightgray" stroke="lightgray" points="595.962,-205.912 605.408,-201.114 595.032,-198.974 595.962,-205.912"/>
<text text-anchor="middle" x="500.087" y="-230.8" font-family="Times New Roman,serif" font-size="14.00" fill="lightgray">wff ch</text>
</g>
<!-- n383 -->
<g id="node5" class="node"><title>n383</title>
<ellipse fill="none" stroke="lightgray" cx="359.19" cy="-162" rx="27" ry="18"/>
<text text-anchor="middle" x="359.19" y="-158.3" font-family="Times New Roman,serif" font-size="14.00" fill="lightgray">wth</text>
</g>
<!-- n382&#45;&gt;n383 -->
<g id="edge18" class="edge"><title>n382&#45;&gt;n383</title>
</g>
<!-- n383&#45;&gt;n391 -->
<g id="edge4" class="edge"><title>n383&#45;&gt;n391</title>
<path fill="none" stroke="lightgray" d="M386.066,-164.415C428.195,-168.471 514.185,-177.272 586.587,-188 589.642,-188.453 592.797,-188.952 595.967,-189.476"/>
<polygon fill="lightgray" stroke="lightgray" points="595.586,-192.962 606.035,-191.211 596.774,-186.064 595.586,-192.962"/>
<text text-anchor="middle" x="500.087" y="-191.8" font-family="Times New Roman,serif" font-size="14.00" fill="lightgray">wff th</text>
</g>
<!-- n389 -->
<g id="node9" class="node"><title>n389</title>
<ellipse fill="cyan" stroke="black" cx="359.19" cy="-90" rx="27" ry="18"/>
<text text-anchor="middle" x="359.19" y="-86.3" font-family="Times New Roman,serif" font-size="14.00">a1i</text>
</g>
<!-- n383&#45;&gt;n389 -->
<g id="edge19" class="edge"><title>n383&#45;&gt;n389</title>
</g>
<!-- n384 -->
<g id="node6" class="node"><title>n384</title>
<ellipse fill="none" stroke="lightgray" cx="27" cy="-207" rx="27" ry="18"/>
<text text-anchor="middle" x="27" y="-203.3" font-family="Times New Roman,serif" font-size="14.00" fill="lightgray">wps</text>
</g>
<!-- n386 -->
<g id="node7" class="node"><title>n386</title>
<ellipse fill="none" stroke="lightgray" cx="163.397" cy="-162" rx="27" ry="18"/>
<text text-anchor="middle" x="163.397" y="-158.3" font-family="Times New Roman,serif" font-size="14.00" fill="lightgray">wi</text>
</g>
<!-- n384&#45;&gt;n386 -->
<g id="edge5" class="edge"><title>n384&#45;&gt;n386</title>
<path fill="none" stroke="lightgray" d="M51.4101,-199.162C72.9585,-191.947 105.147,-181.169 129.318,-173.076"/>
<polygon fill="lightgray" stroke="lightgray" points="130.433,-176.394 138.804,-169.9 128.21,-169.756 130.433,-176.394"/>
<text text-anchor="middle" x="90.5" y="-195.8" font-family="Times New Roman,serif" font-size="14.00" fill="lightgray">wff ps</text>
</g>
<!-- n385 -->
<g id="node8" class="node"><title>n385</title>
<ellipse fill="none" stroke="lightgray" cx="27" cy="-135" rx="27" ry="18"/>
<text text-anchor="middle" x="27" y="-131.3" font-family="Times New Roman,serif" font-size="14.00" fill="lightgray">wch</text>
</g>
<!-- n384&#45;&gt;n385 -->
<g id="edge8" class="edge"><title>n384&#45;&gt;n385</title>
</g>
<!-- n386&#45;&gt;n389 -->
<g id="edge7" class="edge"><title>n386&#45;&gt;n389</title>
<path fill="none" stroke="lightgray" d="M187.388,-153.458C221.699,-140.711 286.447,-116.655 325.618,-102.102"/>
<polygon fill="lightgray" stroke="lightgray" points="327.074,-105.295 335.229,-98.531 324.636,-98.7328 327.074,-105.295"/>
<text text-anchor="middle" x="261.294" y="-144.8" font-family="Times New Roman,serif" font-size="14.00" fill="lightgray">wff ( ps &#45;&gt; ch )</text>
</g>
<!-- n387 -->
<g id="node10" class="node"><title>n387</title>
<ellipse fill="none" stroke="lightgray" cx="163.397" cy="-90" rx="27" ry="18"/>
<text text-anchor="middle" x="163.397" y="-86.3" font-family="Times New Roman,serif" font-size="14.00" fill="lightgray">wph</text>
</g>
<!-- n386&#45;&gt;n387 -->
<g id="edge12" class="edge"><title>n386&#45;&gt;n387</title>
</g>
<!-- n385&#45;&gt;n386 -->
<g id="edge6" class="edge"><title>n385&#45;&gt;n386</title>
<path fill="none" stroke="lightgray" d="M52.964,-140.015C73.8598,-144.213 103.918,-150.252 127.247,-154.939"/>
<polygon fill="lightgray" stroke="lightgray" points="126.617,-158.382 137.11,-156.92 127.996,-151.519 126.617,-158.382"/>
<text text-anchor="middle" x="90.5" y="-154.8" font-family="Times New Roman,serif" font-size="14.00" fill="lightgray">wff ch</text>
</g>
<!-- n389&#45;&gt;n391 -->
<g id="edge11" class="edge"><title>n389&#45;&gt;n391</title>
<path fill="none" stroke="black" d="M386.238,-92.4309C430.101,-97.4414 520.39,-111.756 586.587,-149 597.561,-155.174 607.873,-164.378 616.215,-173.08"/>
<polygon fill="black" stroke="black" points="613.675,-175.489 623.005,-180.509 618.842,-170.767 613.675,-175.489"/>
<text text-anchor="middle" x="500.087" y="-152.8" font-family="Times New Roman,serif" font-size="14.00">|&#45; ( ph &#45;&gt; ( ps &#45;&gt; ch ) )</text>
</g>
<!-- n390 -->
<g id="node12" class="node"><title>n390</title>
<ellipse fill="orange" stroke="black" cx="359.19" cy="-18" rx="36.2938" ry="18"/>
<text text-anchor="middle" x="359.19" y="-14.3" font-family="Times New Roman,serif" font-size="14.00">mpdi.2</text>
</g>
<!-- n389&#45;&gt;n390 -->
<g id="edge20" class="edge"><title>n389&#45;&gt;n390</title>
</g>
<!-- n387&#45;&gt;n389 -->
<g id="edge9" class="edge"><title>n387&#45;&gt;n389</title>
<path fill="none" stroke="lightgray" d="M190.533,-90C224.435,-90 283.75,-90 321.976,-90"/>
<polygon fill="lightgray" stroke="lightgray" points="322.16,-93.5001 332.16,-90 322.16,-86.5001 322.16,-93.5001"/>
<text text-anchor="middle" x="261.294" y="-93.8" font-family="Times New Roman,serif" font-size="14.00" fill="lightgray">wff ph</text>
</g>
<!-- n388 -->
<g id="node11" class="node"><title>n388</title>
<ellipse fill="orange" stroke="black" cx="163.397" cy="-18" rx="36.2938" ry="18"/>
<text text-anchor="middle" x="163.397" y="-14.3" font-family="Times New Roman,serif" font-size="14.00">mpdi.1</text>
</g>
<!-- n387&#45;&gt;n388 -->
<g id="edge13" class="edge"><title>n387&#45;&gt;n388</title>
</g>
<!-- n388&#45;&gt;n389 -->
<g id="edge10" class="edge"><title>n388&#45;&gt;n389</title>
<path fill="none" stroke="black" d="M192.992,-28.6238C228.311,-41.7461 288.265,-64.0208 325.411,-77.8215"/>
<polygon fill="black" stroke="black" points="324.651,-81.2727 335.244,-81.4746 327.089,-74.7109 324.651,-81.2727"/>
<text text-anchor="middle" x="261.294" y="-72.8" font-family="Times New Roman,serif" font-size="14.00">|&#45; ( ps &#45;&gt; ch )</text>
</g>
<!-- n390&#45;&gt;n391 -->
<g id="edge14" class="edge"><title>n390&#45;&gt;n391</title>
<path fill="none" stroke="black" d="M395.663,-18.0735C444.407,-20.0403 532.223,-30.5261 586.587,-78 613.369,-101.388 625.974,-141.592 631.682,-168.724"/>
<polygon fill="black" stroke="black" points="628.288,-169.606 633.608,-178.768 635.163,-168.288 628.288,-169.606"/>
<text text-anchor="middle" x="500.087" y="-81.8" font-family="Times New Roman,serif" font-size="14.00">|&#45; ( ph &#45;&gt; ( ps &#45;&gt; ( ch &#45;&gt; th ) ) )</text>
</g>
</g>
</svg>
