<?xml version="1.0" encoding="UTF-8" standalone="no"?>
<!DOCTYPE svg PUBLIC "-//W3C//DTD SVG 1.1//EN"
 "http://www.w3.org/Graphics/SVG/1.1/DTD/svg11.dtd">
<!-- Generated by graphviz version 2.38.0 (20140413.2041)
 -->
<!-- Title: proof_mt2bi Pages: 1 -->
<svg width="916pt" height="620pt"
 viewBox="0.00 0.00 915.78 620.00" xmlns="http://www.w3.org/2000/svg" xmlns:xlink="http://www.w3.org/1999/xlink">
<g id="graph0" class="graph" transform="scale(1 1) rotate(0) translate(4 616)">
<title>proof_mt2bi</title>
<polygon fill="white" stroke="none" points="-4,4 -4,-616 911.782,-616 911.782,4 -4,4"/>
<!-- n6443 -->
<g id="node1" class="node"><title>n6443</title>
<ellipse fill="none" stroke="lightgray" cx="165.347" cy="-594" rx="27" ry="18"/>
<text text-anchor="middle" x="165.347" y="-590.3" font-family="Times New Roman,serif" font-size="14.00" fill="lightgray">wps</text>
</g>
<!-- n6444 -->
<g id="node2" class="node"><title>n6444</title>
<ellipse fill="none" stroke="lightgray" cx="322.49" cy="-516" rx="27" ry="18"/>
<text text-anchor="middle" x="322.49" y="-512.3" font-family="Times New Roman,serif" font-size="14.00" fill="lightgray">wn</text>
</g>
<!-- n6443&#45;&gt;n6444 -->
<g id="edge1" class="edge"><title>n6443&#45;&gt;n6444</title>
<path fill="none" stroke="lightgray" d="M187.27,-583.481C214.104,-569.989 260.824,-546.5 291.454,-531.101"/>
<polygon fill="lightgray" stroke="lightgray" points="293.041,-534.221 300.403,-526.602 289.896,-527.967 293.041,-534.221"/>
<text text-anchor="middle" x="246.193" y="-567.8" font-family="Times New Roman,serif" font-size="14.00" fill="lightgray">wff ps</text>
</g>
<!-- n6461 -->
<g id="node3" class="node"><title>n6461</title>
<ellipse fill="cyan" stroke="black" cx="628.287" cy="-357" rx="27" ry="18"/>
<text text-anchor="middle" x="628.287" y="-353.3" font-family="Times New Roman,serif" font-size="14.00">bitri</text>
</g>
<!-- n6444&#45;&gt;n6461 -->
<g id="edge2" class="edge"><title>n6444&#45;&gt;n6461</title>
<path fill="none" stroke="lightgray" d="M349.574,-516.501C400.37,-516.107 513.67,-508.351 583.287,-451 603.605,-434.262 615.063,-406.015 621.156,-384.846"/>
<polygon fill="lightgray" stroke="lightgray" points="624.559,-385.666 623.731,-375.103 617.792,-383.877 624.559,-385.666"/>
<text text-anchor="middle" x="478.787" y="-518.8" font-family="Times New Roman,serif" font-size="14.00" fill="lightgray">wff &#45;. ps</text>
</g>
<!-- n6448 -->
<g id="node5" class="node"><title>n6448</title>
<ellipse fill="none" stroke="lightgray" cx="322.49" cy="-444" rx="27" ry="18"/>
<text text-anchor="middle" x="322.49" y="-440.3" font-family="Times New Roman,serif" font-size="14.00" fill="lightgray">wi</text>
</g>
<!-- n6444&#45;&gt;n6448 -->
<g id="edge25" class="edge"><title>n6444&#45;&gt;n6448</title>
</g>
<!-- QED -->
<g id="node20" class="node"><title>QED</title>
</g>
<!-- n6461&#45;&gt;QED -->
<g id="edge24" class="edge"><title>n6461&#45;&gt;QED</title>
<path fill="none" stroke="black" d="M655.385,-357C699.199,-357 787.754,-357 838.833,-357"/>
<polygon fill="black" stroke="black" points="839.134,-360.5 849.134,-357 839.134,-353.5 839.134,-360.5"/>
<text text-anchor="middle" x="752.287" y="-360.8" font-family="Times New Roman,serif" font-size="14.00">|&#45; ( &#45;. ps &lt;&#45;&gt; ( ps &#45;&gt; &#45;. ph ) )</text>
</g>
<!-- n6445 -->
<g id="node4" class="node"><title>n6445</title>
<ellipse fill="none" stroke="lightgray" cx="165.347" cy="-540" rx="27" ry="18"/>
<text text-anchor="middle" x="165.347" y="-536.3" font-family="Times New Roman,serif" font-size="14.00" fill="lightgray">wph</text>
</g>
<!-- n6445&#45;&gt;n6448 -->
<g id="edge3" class="edge"><title>n6445&#45;&gt;n6448</title>
<path fill="none" stroke="lightgray" d="M186.081,-528.348C207.152,-515.846 241.462,-495.312 270.693,-477 278.38,-472.185 286.653,-466.868 294.245,-461.935"/>
<polygon fill="lightgray" stroke="lightgray" points="296.307,-464.769 302.769,-456.372 292.481,-458.906 296.307,-464.769"/>
<text text-anchor="middle" x="246.193" y="-509.8" font-family="Times New Roman,serif" font-size="14.00" fill="lightgray">wff ph</text>
</g>
<!-- n6447 -->
<g id="node7" class="node"><title>n6447</title>
<ellipse fill="none" stroke="lightgray" cx="165.347" cy="-468" rx="27" ry="18"/>
<text text-anchor="middle" x="165.347" y="-464.3" font-family="Times New Roman,serif" font-size="14.00" fill="lightgray">wn</text>
</g>
<!-- n6445&#45;&gt;n6447 -->
<g id="edge7" class="edge"><title>n6445&#45;&gt;n6447</title>
</g>
<!-- n6448&#45;&gt;n6461 -->
<g id="edge6" class="edge"><title>n6448&#45;&gt;n6461</title>
<path fill="none" stroke="lightgray" d="M348.58,-438.764C395.375,-428.707 498.874,-405.085 583.287,-376 587.562,-374.527 592.005,-372.823 596.352,-371.053"/>
<polygon fill="lightgray" stroke="lightgray" points="597.766,-374.255 605.611,-367.135 595.038,-367.808 597.766,-374.255"/>
<text text-anchor="middle" x="478.787" y="-435.8" font-family="Times New Roman,serif" font-size="14.00" fill="lightgray">wff ( ph &#45;&gt; &#45;. ps )</text>
</g>
<!-- n6452 -->
<g id="node9" class="node"><title>n6452</title>
<ellipse fill="none" stroke="lightgray" cx="322.49" cy="-357" rx="27" ry="18"/>
<text text-anchor="middle" x="322.49" y="-353.3" font-family="Times New Roman,serif" font-size="14.00" fill="lightgray">wi</text>
</g>
<!-- n6448&#45;&gt;n6452 -->
<g id="edge26" class="edge"><title>n6448&#45;&gt;n6452</title>
</g>
<!-- n6446 -->
<g id="node6" class="node"><title>n6446</title>
<ellipse fill="none" stroke="lightgray" cx="27" cy="-468" rx="27" ry="18"/>
<text text-anchor="middle" x="27" y="-464.3" font-family="Times New Roman,serif" font-size="14.00" fill="lightgray">wps</text>
</g>
<!-- n6446&#45;&gt;n6447 -->
<g id="edge4" class="edge"><title>n6446&#45;&gt;n6447</title>
<path fill="none" stroke="lightgray" d="M54.289,-468C75.2263,-468 104.769,-468 127.975,-468"/>
<polygon fill="lightgray" stroke="lightgray" points="128.138,-471.5 138.138,-468 128.138,-464.5 128.138,-471.5"/>
<text text-anchor="middle" x="90.5" y="-471.8" font-family="Times New Roman,serif" font-size="14.00" fill="lightgray">wff ps</text>
</g>
<!-- n6447&#45;&gt;n6448 -->
<g id="edge5" class="edge"><title>n6447&#45;&gt;n6448</title>
<path fill="none" stroke="lightgray" d="M191.965,-464.037C217.644,-460.065 257.379,-453.918 286.068,-449.48"/>
<polygon fill="lightgray" stroke="lightgray" points="286.744,-452.917 296.091,-447.929 285.674,-445.999 286.744,-452.917"/>
<text text-anchor="middle" x="246.193" y="-461.8" font-family="Times New Roman,serif" font-size="14.00" fill="lightgray">wff &#45;. ps</text>
</g>
<!-- n6449 -->
<g id="node8" class="node"><title>n6449</title>
<ellipse fill="none" stroke="lightgray" cx="165.347" cy="-414" rx="27" ry="18"/>
<text text-anchor="middle" x="165.347" y="-410.3" font-family="Times New Roman,serif" font-size="14.00" fill="lightgray">wps</text>
</g>
<!-- n6449&#45;&gt;n6452 -->
<g id="edge8" class="edge"><title>n6449&#45;&gt;n6452</title>
<path fill="none" stroke="lightgray" d="M189.239,-405.589C215.592,-395.907 259.076,-379.931 288.942,-368.958"/>
<polygon fill="lightgray" stroke="lightgray" points="290.325,-372.179 298.504,-365.445 287.911,-365.608 290.325,-372.179"/>
<text text-anchor="middle" x="246.193" y="-395.8" font-family="Times New Roman,serif" font-size="14.00" fill="lightgray">wff ps</text>
</g>
<!-- n6451 -->
<g id="node11" class="node"><title>n6451</title>
<ellipse fill="none" stroke="lightgray" cx="165.347" cy="-342" rx="27" ry="18"/>
<text text-anchor="middle" x="165.347" y="-338.3" font-family="Times New Roman,serif" font-size="14.00" fill="lightgray">wn</text>
</g>
<!-- n6449&#45;&gt;n6451 -->
<g id="edge12" class="edge"><title>n6449&#45;&gt;n6451</title>
</g>
<!-- n6452&#45;&gt;n6461 -->
<g id="edge11" class="edge"><title>n6452&#45;&gt;n6461</title>
<path fill="none" stroke="lightgray" d="M349.655,-357C403.941,-357 528.914,-357 590.966,-357"/>
<polygon fill="lightgray" stroke="lightgray" points="591.078,-360.5 601.078,-357 591.078,-353.5 591.078,-360.5"/>
<text text-anchor="middle" x="478.787" y="-360.8" font-family="Times New Roman,serif" font-size="14.00" fill="lightgray">wff ( ps &#45;&gt; &#45;. ph )</text>
</g>
<!-- n6457 -->
<g id="node13" class="node"><title>n6457</title>
<ellipse fill="cyan" stroke="black" cx="322.49" cy="-265" rx="27" ry="18"/>
<text text-anchor="middle" x="322.49" y="-261.3" font-family="Times New Roman,serif" font-size="14.00">a1bi</text>
</g>
<!-- n6452&#45;&gt;n6457 -->
<g id="edge27" class="edge"><title>n6452&#45;&gt;n6457</title>
</g>
<!-- n6450 -->
<g id="node10" class="node"><title>n6450</title>
<ellipse fill="none" stroke="lightgray" cx="27" cy="-342" rx="27" ry="18"/>
<text text-anchor="middle" x="27" y="-338.3" font-family="Times New Roman,serif" font-size="14.00" fill="lightgray">wph</text>
</g>
<!-- n6450&#45;&gt;n6451 -->
<g id="edge9" class="edge"><title>n6450&#45;&gt;n6451</title>
<path fill="none" stroke="lightgray" d="M54.289,-342C75.2263,-342 104.769,-342 127.975,-342"/>
<polygon fill="lightgray" stroke="lightgray" points="128.138,-345.5 138.138,-342 128.138,-338.5 128.138,-345.5"/>
<text text-anchor="middle" x="90.5" y="-345.8" font-family="Times New Roman,serif" font-size="14.00" fill="lightgray">wff ph</text>
</g>
<!-- n6451&#45;&gt;n6452 -->
<g id="edge10" class="edge"><title>n6451&#45;&gt;n6452</title>
<path fill="none" stroke="lightgray" d="M192.314,-344.511C217.897,-346.984 257.185,-350.783 285.717,-353.541"/>
<polygon fill="lightgray" stroke="lightgray" points="285.406,-357.027 295.697,-354.506 286.08,-350.06 285.406,-357.027"/>
<text text-anchor="middle" x="246.193" y="-355.8" font-family="Times New Roman,serif" font-size="14.00" fill="lightgray">wff &#45;. ph</text>
</g>
<!-- n6453 -->
<g id="node12" class="node"><title>n6453</title>
<ellipse fill="none" stroke="lightgray" cx="165.347" cy="-288" rx="27" ry="18"/>
<text text-anchor="middle" x="165.347" y="-284.3" font-family="Times New Roman,serif" font-size="14.00" fill="lightgray">wph</text>
</g>
<!-- n6453&#45;&gt;n6457 -->
<g id="edge13" class="edge"><title>n6453&#45;&gt;n6457</title>
<path fill="none" stroke="lightgray" d="M191.965,-284.202C217.567,-280.407 257.141,-274.54 285.811,-270.29"/>
<polygon fill="lightgray" stroke="lightgray" points="286.455,-273.732 295.833,-268.804 285.428,-266.808 286.455,-273.732"/>
<text text-anchor="middle" x="246.193" y="-283.8" font-family="Times New Roman,serif" font-size="14.00" fill="lightgray">wff ph</text>
</g>
<!-- n6455 -->
<g id="node15" class="node"><title>n6455</title>
<ellipse fill="none" stroke="lightgray" cx="165.347" cy="-216" rx="27" ry="18"/>
<text text-anchor="middle" x="165.347" y="-212.3" font-family="Times New Roman,serif" font-size="14.00" fill="lightgray">wn</text>
</g>
<!-- n6453&#45;&gt;n6455 -->
<g id="edge18" class="edge"><title>n6453&#45;&gt;n6455</title>
</g>
<!-- n6457&#45;&gt;n6461 -->
<g id="edge17" class="edge"><title>n6457&#45;&gt;n6461</title>
<path fill="none" stroke="black" d="M348.187,-270.769C394.761,-281.905 498.507,-307.936 583.287,-338 587.549,-339.511 591.984,-341.237 596.327,-343.018"/>
<polygon fill="black" stroke="black" points="595.011,-346.262 605.584,-346.944 597.744,-339.818 595.011,-346.262"/>
<text text-anchor="middle" x="478.787" y="-341.8" font-family="Times New Roman,serif" font-size="14.00">|&#45; ( &#45;. ps &lt;&#45;&gt; ( ph &#45;&gt; &#45;. ps ) )</text>
</g>
<!-- n6460 -->
<g id="node18" class="node"><title>n6460</title>
<ellipse fill="cyan" stroke="black" cx="322.49" cy="-153" rx="33.5952" ry="18"/>
<text text-anchor="middle" x="322.49" y="-149.3" font-family="Times New Roman,serif" font-size="14.00">con2b</text>
</g>
<!-- n6457&#45;&gt;n6460 -->
<g id="edge28" class="edge"><title>n6457&#45;&gt;n6460</title>
</g>
<!-- n6454 -->
<g id="node14" class="node"><title>n6454</title>
<ellipse fill="none" stroke="lightgray" cx="27" cy="-216" rx="27" ry="18"/>
<text text-anchor="middle" x="27" y="-212.3" font-family="Times New Roman,serif" font-size="14.00" fill="lightgray">wps</text>
</g>
<!-- n6454&#45;&gt;n6455 -->
<g id="edge14" class="edge"><title>n6454&#45;&gt;n6455</title>
<path fill="none" stroke="lightgray" d="M54.289,-216C75.2263,-216 104.769,-216 127.975,-216"/>
<polygon fill="lightgray" stroke="lightgray" points="128.138,-219.5 138.138,-216 128.138,-212.5 128.138,-219.5"/>
<text text-anchor="middle" x="90.5" y="-219.8" font-family="Times New Roman,serif" font-size="14.00" fill="lightgray">wff ps</text>
</g>
<!-- n6455&#45;&gt;n6457 -->
<g id="edge15" class="edge"><title>n6455&#45;&gt;n6457</title>
<path fill="none" stroke="lightgray" d="M190.248,-223.549C216.403,-231.81 258.526,-245.114 287.975,-254.415"/>
<polygon fill="lightgray" stroke="lightgray" points="287.227,-257.849 297.816,-257.523 289.335,-251.174 287.227,-257.849"/>
<text text-anchor="middle" x="246.193" y="-251.8" font-family="Times New Roman,serif" font-size="14.00" fill="lightgray">wff &#45;. ps</text>
</g>
<!-- n6456 -->
<g id="node16" class="node"><title>n6456</title>
<ellipse fill="orange" stroke="black" cx="165.347" cy="-144" rx="38.1938" ry="18"/>
<text text-anchor="middle" x="165.347" y="-140.3" font-family="Times New Roman,serif" font-size="14.00">mt2bi.1</text>
</g>
<!-- n6455&#45;&gt;n6456 -->
<g id="edge19" class="edge"><title>n6455&#45;&gt;n6456</title>
</g>
<!-- n6456&#45;&gt;n6457 -->
<g id="edge16" class="edge"><title>n6456&#45;&gt;n6457</title>
<path fill="none" stroke="black" d="M189.093,-158.158C210.761,-171.996 243.948,-194.119 270.693,-216 280.669,-224.161 291.023,-233.889 299.76,-242.517"/>
<polygon fill="black" stroke="black" points="297.432,-245.14 306.972,-249.75 302.389,-240.197 297.432,-245.14"/>
<text text-anchor="middle" x="246.193" y="-219.8" font-family="Times New Roman,serif" font-size="14.00">|&#45; ph</text>
</g>
<!-- n6458 -->
<g id="node17" class="node"><title>n6458</title>
<ellipse fill="none" stroke="lightgray" cx="165.347" cy="-90" rx="27" ry="18"/>
<text text-anchor="middle" x="165.347" y="-86.3" font-family="Times New Roman,serif" font-size="14.00" fill="lightgray">wph</text>
</g>
<!-- n6458&#45;&gt;n6460 -->
<g id="edge20" class="edge"><title>n6458&#45;&gt;n6460</title>
<path fill="none" stroke="lightgray" d="M190.372,-97.1128C211.787,-103.728 243.807,-114.302 270.693,-126 277.031,-128.757 283.654,-131.997 289.945,-135.257"/>
<polygon fill="lightgray" stroke="lightgray" points="288.381,-138.389 298.853,-139.993 291.667,-132.208 288.381,-138.389"/>
<text text-anchor="middle" x="246.193" y="-129.8" font-family="Times New Roman,serif" font-size="14.00" fill="lightgray">wff ph</text>
</g>
<!-- n6459 -->
<g id="node19" class="node"><title>n6459</title>
<ellipse fill="none" stroke="lightgray" cx="165.347" cy="-18" rx="27" ry="18"/>
<text text-anchor="middle" x="165.347" y="-14.3" font-family="Times New Roman,serif" font-size="14.00" fill="lightgray">wps</text>
</g>
<!-- n6458&#45;&gt;n6459 -->
<g id="edge23" class="edge"><title>n6458&#45;&gt;n6459</title>
</g>
<!-- n6460&#45;&gt;n6461 -->
<g id="edge22" class="edge"><title>n6460&#45;&gt;n6461</title>
<path fill="none" stroke="black" d="M355.228,-158.076C408.765,-168.177 517.594,-195.542 583.287,-259 602.999,-278.041 614.579,-307.514 620.868,-329.169"/>
<polygon fill="black" stroke="black" points="617.56,-330.346 623.542,-339.091 624.319,-328.524 617.56,-330.346"/>
<text text-anchor="middle" x="478.787" y="-262.8" font-family="Times New Roman,serif" font-size="14.00">|&#45; ( ( ph &#45;&gt; &#45;. ps ) &lt;&#45;&gt; ( ps &#45;&gt; &#45;. ph ) )</text>
</g>
<!-- n6459&#45;&gt;n6460 -->
<g id="edge21" class="edge"><title>n6459&#45;&gt;n6460</title>
<path fill="none" stroke="lightgray" d="M186.488,-29.2074C208.516,-42.0094 244.207,-64.3907 270.693,-89 283.19,-100.611 295.154,-115.435 304.329,-127.892"/>
<polygon fill="lightgray" stroke="lightgray" points="301.529,-129.993 310.208,-136.069 307.213,-125.907 301.529,-129.993"/>
<text text-anchor="middle" x="246.193" y="-92.8" font-family="Times New Roman,serif" font-size="14.00" fill="lightgray">wff ps</text>
</g>
</g>
</svg>
