<?xml version="1.0" encoding="UTF-8" standalone="no"?>
<!DOCTYPE svg PUBLIC "-//W3C//DTD SVG 1.1//EN"
 "http://www.w3.org/Graphics/SVG/1.1/DTD/svg11.dtd">
<!-- Generated by graphviz version 2.38.0 (20140413.2041)
 -->
<!-- Title: proof_mt3d Pages: 1 -->
<svg width="727pt" height="435pt"
 viewBox="0.00 0.00 726.68 435.00" xmlns="http://www.w3.org/2000/svg" xmlns:xlink="http://www.w3.org/1999/xlink">
<g id="graph0" class="graph" transform="scale(1 1) rotate(0) translate(4 431)">
<title>proof_mt3d</title>
<polygon fill="white" stroke="none" points="-4,4 -4,-431 722.677,-431 722.677,4 -4,4"/>
<!-- n1407 -->
<g id="node1" class="node"><title>n1407</title>
<ellipse fill="none" stroke="lightgray" cx="283.19" cy="-409" rx="27" ry="18"/>
<text text-anchor="middle" x="283.19" y="-405.3" font-family="Times New Roman,serif" font-size="14.00" fill="lightgray">wph</text>
</g>
<!-- n1417 -->
<g id="node2" class="node"><title>n1417</title>
<ellipse fill="cyan" stroke="black" cx="520.885" cy="-265" rx="27.0966" ry="18"/>
<text text-anchor="middle" x="520.885" y="-261.3" font-family="Times New Roman,serif" font-size="14.00">mpd</text>
</g>
<!-- n1407&#45;&gt;n1417 -->
<g id="edge1" class="edge"><title>n1407&#45;&gt;n1417</title>
<path fill="none" stroke="lightgray" d="M309.91,-405.8C349.509,-399.703 426.011,-383.146 475.587,-342 491.312,-328.95 502.626,-308.781 509.882,-292.359"/>
<polygon fill="lightgray" stroke="lightgray" points="513.284,-293.293 513.879,-282.715 506.817,-290.613 513.284,-293.293"/>
<text text-anchor="middle" x="406.587" y="-403.8" font-family="Times New Roman,serif" font-size="14.00" fill="lightgray">wff ph</text>
</g>
<!-- n1409 -->
<g id="node4" class="node"><title>n1409</title>
<ellipse fill="none" stroke="lightgray" cx="283.19" cy="-337" rx="27" ry="18"/>
<text text-anchor="middle" x="283.19" y="-333.3" font-family="Times New Roman,serif" font-size="14.00" fill="lightgray">wn</text>
</g>
<!-- n1407&#45;&gt;n1409 -->
<g id="edge15" class="edge"><title>n1407&#45;&gt;n1409</title>
</g>
<!-- QED -->
<g id="node12" class="node"><title>QED</title>
</g>
<!-- n1417&#45;&gt;QED -->
<g id="edge14" class="edge"><title>n1417&#45;&gt;QED</title>
<path fill="none" stroke="black" d="M548.274,-265C575.633,-265 618.683,-265 649.856,-265"/>
<polygon fill="black" stroke="black" points="649.933,-268.5 659.933,-265 649.933,-261.5 649.933,-268.5"/>
<text text-anchor="middle" x="604.182" y="-268.8" font-family="Times New Roman,serif" font-size="14.00">|&#45; ( ph &#45;&gt; ps )</text>
</g>
<!-- n1408 -->
<g id="node3" class="node"><title>n1408</title>
<ellipse fill="none" stroke="lightgray" cx="36.3968" cy="-337" rx="27" ry="18"/>
<text text-anchor="middle" x="36.3968" y="-333.3" font-family="Times New Roman,serif" font-size="14.00" fill="lightgray">wch</text>
</g>
<!-- n1408&#45;&gt;n1409 -->
<g id="edge2" class="edge"><title>n1408&#45;&gt;n1409</title>
<path fill="none" stroke="lightgray" d="M63.594,-337C107.581,-337 196.348,-337 246.171,-337"/>
<polygon fill="lightgray" stroke="lightgray" points="246.182,-340.5 256.181,-337 246.181,-333.5 246.182,-340.5"/>
<text text-anchor="middle" x="159.794" y="-340.8" font-family="Times New Roman,serif" font-size="14.00" fill="lightgray">wff ch</text>
</g>
<!-- n1409&#45;&gt;n1417 -->
<g id="edge3" class="edge"><title>n1409&#45;&gt;n1417</title>
<path fill="none" stroke="lightgray" d="M308.991,-331.269C345.801,-322.509 416.867,-304.617 475.587,-284 479.878,-282.493 484.343,-280.77 488.715,-278.991"/>
<polygon fill="lightgray" stroke="lightgray" points="490.177,-282.173 498.035,-275.066 487.46,-275.721 490.177,-282.173"/>
<text text-anchor="middle" x="406.587" y="-326.8" font-family="Times New Roman,serif" font-size="14.00" fill="lightgray">wff &#45;. ch</text>
</g>
<!-- n1410 -->
<g id="node5" class="node"><title>n1410</title>
<ellipse fill="none" stroke="lightgray" cx="283.19" cy="-265" rx="27" ry="18"/>
<text text-anchor="middle" x="283.19" y="-261.3" font-family="Times New Roman,serif" font-size="14.00" fill="lightgray">wps</text>
</g>
<!-- n1409&#45;&gt;n1410 -->
<g id="edge16" class="edge"><title>n1409&#45;&gt;n1410</title>
</g>
<!-- n1410&#45;&gt;n1417 -->
<g id="edge4" class="edge"><title>n1410&#45;&gt;n1417</title>
<path fill="none" stroke="lightgray" d="M310.314,-265C352.323,-265 435.025,-265 483.021,-265"/>
<polygon fill="lightgray" stroke="lightgray" points="483.283,-268.5 493.282,-265 483.282,-261.5 483.283,-268.5"/>
<text text-anchor="middle" x="406.587" y="-268.8" font-family="Times New Roman,serif" font-size="14.00" fill="lightgray">wff ps</text>
</g>
<!-- n1411 -->
<g id="node6" class="node"><title>n1411</title>
<ellipse fill="orange" stroke="black" cx="283.19" cy="-193" rx="36.2938" ry="18"/>
<text text-anchor="middle" x="283.19" y="-189.3" font-family="Times New Roman,serif" font-size="14.00">mt3d.1</text>
</g>
<!-- n1410&#45;&gt;n1411 -->
<g id="edge17" class="edge"><title>n1410&#45;&gt;n1411</title>
</g>
<!-- n1411&#45;&gt;n1417 -->
<g id="edge5" class="edge"><title>n1411&#45;&gt;n1417</title>
<path fill="none" stroke="black" d="M316.432,-200.515C354.806,-209.782 420.608,-226.696 475.587,-246 479.878,-247.507 484.343,-249.23 488.715,-251.009"/>
<polygon fill="black" stroke="black" points="487.46,-254.279 498.035,-254.934 490.177,-247.827 487.46,-254.279"/>
<text text-anchor="middle" x="406.587" y="-249.8" font-family="Times New Roman,serif" font-size="14.00">|&#45; ( ph &#45;&gt; &#45;. ch )</text>
</g>
<!-- n1416 -->
<g id="node8" class="node"><title>n1416</title>
<ellipse fill="cyan" stroke="black" cx="283.19" cy="-121" rx="33.5952" ry="18"/>
<text text-anchor="middle" x="283.19" y="-117.3" font-family="Times New Roman,serif" font-size="14.00">con1d</text>
</g>
<!-- n1411&#45;&gt;n1416 -->
<g id="edge18" class="edge"><title>n1411&#45;&gt;n1416</title>
</g>
<!-- n1412 -->
<g id="node7" class="node"><title>n1412</title>
<ellipse fill="none" stroke="lightgray" cx="36.3968" cy="-234" rx="27" ry="18"/>
<text text-anchor="middle" x="36.3968" y="-230.3" font-family="Times New Roman,serif" font-size="14.00" fill="lightgray">wph</text>
</g>
<!-- n1412&#45;&gt;n1416 -->
<g id="edge6" class="edge"><title>n1412&#45;&gt;n1416</title>
<path fill="none" stroke="lightgray" d="M62.7579,-229.555C100.898,-222.068 174.349,-204.477 228.794,-172 240.782,-164.849 252.232,-154.554 261.434,-145.084"/>
<polygon fill="lightgray" stroke="lightgray" points="264.025,-147.436 268.298,-137.741 258.912,-142.656 264.025,-147.436"/>
<text text-anchor="middle" x="159.794" y="-226.8" font-family="Times New Roman,serif" font-size="14.00" fill="lightgray">wff ph</text>
</g>
<!-- n1413 -->
<g id="node9" class="node"><title>n1413</title>
<ellipse fill="none" stroke="lightgray" cx="36.3968" cy="-162" rx="27" ry="18"/>
<text text-anchor="middle" x="36.3968" y="-158.3" font-family="Times New Roman,serif" font-size="14.00" fill="lightgray">wps</text>
</g>
<!-- n1412&#45;&gt;n1413 -->
<g id="edge11" class="edge"><title>n1412&#45;&gt;n1413</title>
</g>
<!-- n1416&#45;&gt;n1417 -->
<g id="edge10" class="edge"><title>n1416&#45;&gt;n1417</title>
<path fill="none" stroke="black" d="M316.396,-125.004C357.44,-131.569 428.678,-148.033 475.587,-187 491.709,-200.393 503.123,-221.262 510.323,-238.045"/>
<polygon fill="black" stroke="black" points="507.095,-239.399 514.079,-247.367 513.588,-236.783 507.095,-239.399"/>
<text text-anchor="middle" x="406.587" y="-190.8" font-family="Times New Roman,serif" font-size="14.00">|&#45; ( ph &#45;&gt; ( &#45;. ch &#45;&gt; ps ) )</text>
</g>
<!-- n1413&#45;&gt;n1416 -->
<g id="edge7" class="edge"><title>n1413&#45;&gt;n1416</title>
<path fill="none" stroke="lightgray" d="M62.672,-157.767C104.728,-150.723 189.481,-136.528 240.495,-127.984"/>
<polygon fill="lightgray" stroke="lightgray" points="241.248,-131.406 250.533,-126.302 240.092,-124.502 241.248,-131.406"/>
<text text-anchor="middle" x="159.794" y="-156.8" font-family="Times New Roman,serif" font-size="14.00" fill="lightgray">wff ps</text>
</g>
<!-- n1414 -->
<g id="node10" class="node"><title>n1414</title>
<ellipse fill="none" stroke="lightgray" cx="36.3968" cy="-90" rx="27" ry="18"/>
<text text-anchor="middle" x="36.3968" y="-86.3" font-family="Times New Roman,serif" font-size="14.00" fill="lightgray">wch</text>
</g>
<!-- n1413&#45;&gt;n1414 -->
<g id="edge12" class="edge"><title>n1413&#45;&gt;n1414</title>
</g>
<!-- n1414&#45;&gt;n1416 -->
<g id="edge8" class="edge"><title>n1414&#45;&gt;n1416</title>
<path fill="none" stroke="lightgray" d="M63.5568,-91.2561C100.559,-93.3054 170.205,-98.1664 228.794,-108 233.309,-108.758 238.007,-109.688 242.662,-110.7"/>
<polygon fill="lightgray" stroke="lightgray" points="242.162,-114.177 252.693,-113.009 243.733,-107.355 242.162,-114.177"/>
<text text-anchor="middle" x="159.794" y="-111.8" font-family="Times New Roman,serif" font-size="14.00" fill="lightgray">wff ch</text>
</g>
<!-- n1415 -->
<g id="node11" class="node"><title>n1415</title>
<ellipse fill="orange" stroke="black" cx="36.3968" cy="-18" rx="36.2938" ry="18"/>
<text text-anchor="middle" x="36.3968" y="-14.3" font-family="Times New Roman,serif" font-size="14.00">mt3d.2</text>
</g>
<!-- n1414&#45;&gt;n1415 -->
<g id="edge13" class="edge"><title>n1414&#45;&gt;n1415</title>
</g>
<!-- n1415&#45;&gt;n1416 -->
<g id="edge9" class="edge"><title>n1415&#45;&gt;n1416</title>
<path fill="none" stroke="black" d="M71.2259,-23.6038C110.833,-31.1497 177.533,-46.9773 228.794,-75 239.921,-81.0829 250.79,-89.7799 259.787,-97.9775"/>
<polygon fill="black" stroke="black" points="257.504,-100.636 267.17,-104.975 262.319,-95.5554 257.504,-100.636"/>
<text text-anchor="middle" x="159.794" y="-78.8" font-family="Times New Roman,serif" font-size="14.00">|&#45; ( ph &#45;&gt; ( &#45;. ps &#45;&gt; ch ) )</text>
</g>
</g>
</svg>
