<?xml version="1.0" encoding="UTF-8" standalone="no"?>
<!DOCTYPE svg PUBLIC "-//W3C//DTD SVG 1.1//EN"
 "http://www.w3.org/Graphics/SVG/1.1/DTD/svg11.dtd">
<!-- Generated by graphviz version 2.38.0 (20140413.2041)
 -->
<!-- Title: proof_mt4d Pages: 1 -->
<svg width="727pt" height="439pt"
 viewBox="0.00 0.00 726.68 439.00" xmlns="http://www.w3.org/2000/svg" xmlns:xlink="http://www.w3.org/1999/xlink">
<g id="graph0" class="graph" transform="scale(1 1) rotate(0) translate(4 435)">
<title>proof_mt4d</title>
<polygon fill="white" stroke="none" points="-4,4 -4,-435 722.677,-435 722.677,4 -4,4"/>
<!-- n1539 -->
<g id="node1" class="node"><title>n1539</title>
<ellipse fill="none" stroke="lightgray" cx="295.19" cy="-413" rx="27" ry="18"/>
<text text-anchor="middle" x="295.19" y="-409.3" font-family="Times New Roman,serif" font-size="14.00" fill="lightgray">wph</text>
</g>
<!-- n1548 -->
<g id="node2" class="node"><title>n1548</title>
<ellipse fill="cyan" stroke="black" cx="520.885" cy="-269" rx="27.0966" ry="18"/>
<text text-anchor="middle" x="520.885" y="-265.3" font-family="Times New Roman,serif" font-size="14.00">mpd</text>
</g>
<!-- n1539&#45;&gt;n1548 -->
<g id="edge1" class="edge"><title>n1539&#45;&gt;n1548</title>
<path fill="none" stroke="lightgray" d="M321.515,-408.943C358.952,-401.822 429.582,-383.962 475.587,-345 491.029,-331.922 502.353,-312.023 509.685,-295.866"/>
<polygon fill="lightgray" stroke="lightgray" points="513.025,-296.956 513.735,-286.385 506.588,-294.206 513.025,-296.956"/>
<text text-anchor="middle" x="412.587" y="-404.8" font-family="Times New Roman,serif" font-size="14.00" fill="lightgray">wff ph</text>
</g>
<!-- n1540 -->
<g id="node3" class="node"><title>n1540</title>
<ellipse fill="none" stroke="lightgray" cx="295.19" cy="-341" rx="27" ry="18"/>
<text text-anchor="middle" x="295.19" y="-337.3" font-family="Times New Roman,serif" font-size="14.00" fill="lightgray">wps</text>
</g>
<!-- n1539&#45;&gt;n1540 -->
<g id="edge14" class="edge"><title>n1539&#45;&gt;n1540</title>
</g>
<!-- QED -->
<g id="node11" class="node"><title>QED</title>
</g>
<!-- n1548&#45;&gt;QED -->
<g id="edge13" class="edge"><title>n1548&#45;&gt;QED</title>
<path fill="none" stroke="black" d="M548.274,-269C575.633,-269 618.683,-269 649.856,-269"/>
<polygon fill="black" stroke="black" points="649.933,-272.5 659.933,-269 649.933,-265.5 649.933,-272.5"/>
<text text-anchor="middle" x="604.182" y="-272.8" font-family="Times New Roman,serif" font-size="14.00">|&#45; ( ph &#45;&gt; ch )</text>
</g>
<!-- n1540&#45;&gt;n1548 -->
<g id="edge2" class="edge"><title>n1540&#45;&gt;n1548</title>
<path fill="none" stroke="lightgray" d="M320.567,-334.778C355.352,-325.678 421.057,-307.672 475.587,-288 479.865,-286.457 484.323,-284.713 488.691,-282.922"/>
<polygon fill="lightgray" stroke="lightgray" points="490.156,-286.103 498.008,-278.989 487.434,-279.654 490.156,-286.103"/>
<text text-anchor="middle" x="412.587" y="-329.8" font-family="Times New Roman,serif" font-size="14.00" fill="lightgray">wff ps</text>
</g>
<!-- n1541 -->
<g id="node4" class="node"><title>n1541</title>
<ellipse fill="none" stroke="lightgray" cx="295.19" cy="-269" rx="27" ry="18"/>
<text text-anchor="middle" x="295.19" y="-265.3" font-family="Times New Roman,serif" font-size="14.00" fill="lightgray">wch</text>
</g>
<!-- n1540&#45;&gt;n1541 -->
<g id="edge15" class="edge"><title>n1540&#45;&gt;n1541</title>
</g>
<!-- n1541&#45;&gt;n1548 -->
<g id="edge3" class="edge"><title>n1541&#45;&gt;n1548</title>
<path fill="none" stroke="lightgray" d="M322.289,-269C361.98,-269 437.676,-269 482.983,-269"/>
<polygon fill="lightgray" stroke="lightgray" points="483.259,-272.5 493.259,-269 483.259,-265.5 483.259,-272.5"/>
<text text-anchor="middle" x="412.587" y="-272.8" font-family="Times New Roman,serif" font-size="14.00" fill="lightgray">wff ch</text>
</g>
<!-- n1542 -->
<g id="node5" class="node"><title>n1542</title>
<ellipse fill="orange" stroke="black" cx="295.19" cy="-197" rx="36.2938" ry="18"/>
<text text-anchor="middle" x="295.19" y="-193.3" font-family="Times New Roman,serif" font-size="14.00">mt4d.1</text>
</g>
<!-- n1541&#45;&gt;n1542 -->
<g id="edge16" class="edge"><title>n1541&#45;&gt;n1542</title>
</g>
<!-- n1542&#45;&gt;n1548 -->
<g id="edge4" class="edge"><title>n1542&#45;&gt;n1548</title>
<path fill="none" stroke="black" d="M327.989,-205.176C364.136,-214.75 424.723,-231.651 475.587,-250 479.865,-251.543 484.323,-253.287 488.691,-255.078"/>
<polygon fill="black" stroke="black" points="487.434,-258.346 498.008,-259.011 490.156,-251.897 487.434,-258.346"/>
<text text-anchor="middle" x="412.587" y="-253.8" font-family="Times New Roman,serif" font-size="14.00">|&#45; ( ph &#45;&gt; ps )</text>
</g>
<!-- n1547 -->
<g id="node7" class="node"><title>n1547</title>
<ellipse fill="cyan" stroke="black" cx="295.19" cy="-125" rx="33.5952" ry="18"/>
<text text-anchor="middle" x="295.19" y="-121.3" font-family="Times New Roman,serif" font-size="14.00">con4d</text>
</g>
<!-- n1542&#45;&gt;n1547 -->
<g id="edge17" class="edge"><title>n1542&#45;&gt;n1547</title>
</g>
<!-- n1543 -->
<g id="node6" class="node"><title>n1543</title>
<ellipse fill="none" stroke="lightgray" cx="36.3968" cy="-234" rx="27" ry="18"/>
<text text-anchor="middle" x="36.3968" y="-230.3" font-family="Times New Roman,serif" font-size="14.00" fill="lightgray">wph</text>
</g>
<!-- n1543&#45;&gt;n1547 -->
<g id="edge5" class="edge"><title>n1543&#45;&gt;n1547</title>
<path fill="none" stroke="lightgray" d="M62.9471,-230.291C102.981,-223.664 181.987,-207.255 240.794,-174 252.601,-167.323 263.934,-157.579 273.098,-148.536"/>
<polygon fill="lightgray" stroke="lightgray" points="275.783,-150.795 280.248,-141.187 270.766,-145.914 275.783,-150.795"/>
<text text-anchor="middle" x="165.794" y="-227.8" font-family="Times New Roman,serif" font-size="14.00" fill="lightgray">wff ph</text>
</g>
<!-- n1544 -->
<g id="node8" class="node"><title>n1544</title>
<ellipse fill="none" stroke="lightgray" cx="36.3968" cy="-162" rx="27" ry="18"/>
<text text-anchor="middle" x="36.3968" y="-158.3" font-family="Times New Roman,serif" font-size="14.00" fill="lightgray">wch</text>
</g>
<!-- n1543&#45;&gt;n1544 -->
<g id="edge10" class="edge"><title>n1543&#45;&gt;n1544</title>
</g>
<!-- n1547&#45;&gt;n1548 -->
<g id="edge9" class="edge"><title>n1547&#45;&gt;n1548</title>
<path fill="none" stroke="black" d="M327.707,-130.03C366.36,-137.593 432.091,-155.134 475.587,-192 491.176,-205.213 502.494,-225.375 509.787,-241.754"/>
<polygon fill="black" stroke="black" points="506.721,-243.494 513.81,-251.368 513.178,-240.792 506.721,-243.494"/>
<text text-anchor="middle" x="412.587" y="-195.8" font-family="Times New Roman,serif" font-size="14.00">|&#45; ( ph &#45;&gt; ( ps &#45;&gt; ch ) )</text>
</g>
<!-- n1544&#45;&gt;n1547 -->
<g id="edge6" class="edge"><title>n1544&#45;&gt;n1547</title>
<path fill="none" stroke="lightgray" d="M62.9579,-158.317C107.201,-151.942 198.456,-138.794 252.151,-131.057"/>
<polygon fill="lightgray" stroke="lightgray" points="252.966,-134.476 262.364,-129.586 251.967,-127.548 252.966,-134.476"/>
<text text-anchor="middle" x="165.794" y="-158.8" font-family="Times New Roman,serif" font-size="14.00" fill="lightgray">wff ch</text>
</g>
<!-- n1545 -->
<g id="node9" class="node"><title>n1545</title>
<ellipse fill="none" stroke="lightgray" cx="36.3968" cy="-90" rx="27" ry="18"/>
<text text-anchor="middle" x="36.3968" y="-86.3" font-family="Times New Roman,serif" font-size="14.00" fill="lightgray">wps</text>
</g>
<!-- n1544&#45;&gt;n1545 -->
<g id="edge11" class="edge"><title>n1544&#45;&gt;n1545</title>
</g>
<!-- n1545&#45;&gt;n1547 -->
<g id="edge7" class="edge"><title>n1545&#45;&gt;n1547</title>
<path fill="none" stroke="lightgray" d="M63.1284,-92.9561C101.77,-97.4706 177.054,-106.558 240.794,-116 244.71,-116.58 248.782,-117.213 252.853,-117.865"/>
<polygon fill="lightgray" stroke="lightgray" points="252.448,-121.345 262.883,-119.509 253.58,-114.438 252.448,-121.345"/>
<text text-anchor="middle" x="165.794" y="-119.8" font-family="Times New Roman,serif" font-size="14.00" fill="lightgray">wff ps</text>
</g>
<!-- n1546 -->
<g id="node10" class="node"><title>n1546</title>
<ellipse fill="orange" stroke="black" cx="36.3968" cy="-18" rx="36.2938" ry="18"/>
<text text-anchor="middle" x="36.3968" y="-14.3" font-family="Times New Roman,serif" font-size="14.00">mt4d.2</text>
</g>
<!-- n1545&#45;&gt;n1546 -->
<g id="edge12" class="edge"><title>n1545&#45;&gt;n1546</title>
</g>
<!-- n1546&#45;&gt;n1547 -->
<g id="edge8" class="edge"><title>n1546&#45;&gt;n1547</title>
<path fill="none" stroke="black" d="M71.1803,-23.3236C113.017,-30.9312 185.514,-47.4905 240.794,-78 252,-84.1848 262.884,-93.0651 271.87,-101.445"/>
<polygon fill="black" stroke="black" points="269.627,-104.145 279.239,-108.599 274.503,-99.1223 269.627,-104.145"/>
<text text-anchor="middle" x="165.794" y="-81.8" font-family="Times New Roman,serif" font-size="14.00">|&#45; ( ph &#45;&gt; ( &#45;. ch &#45;&gt; &#45;. ps ) )</text>
</g>
</g>
</svg>
