<?xml version="1.0" encoding="UTF-8" standalone="no"?>
<!DOCTYPE svg PUBLIC "-//W3C//DTD SVG 1.1//EN"
 "http://www.w3.org/Graphics/SVG/1.1/DTD/svg11.dtd">
<!-- Generated by graphviz version 2.38.0 (20140413.2041)
 -->
<!-- Title: proof_mtand Pages: 1 -->
<svg width="730pt" height="439pt"
 viewBox="0.00 0.00 730.48 439.00" xmlns="http://www.w3.org/2000/svg" xmlns:xlink="http://www.w3.org/1999/xlink">
<g id="graph0" class="graph" transform="scale(1 1) rotate(0) translate(4 435)">
<title>proof_mtand</title>
<polygon fill="white" stroke="none" points="-4,4 -4,-435 726.475,-435 726.475,4 -4,4"/>
<!-- n11369 -->
<g id="node1" class="node"><title>n11369</title>
<ellipse fill="none" stroke="lightgray" cx="277.889" cy="-413" rx="27" ry="18"/>
<text text-anchor="middle" x="277.889" y="-409.3" font-family="Times New Roman,serif" font-size="14.00" fill="lightgray">wph</text>
</g>
<!-- n11378 -->
<g id="node2" class="node"><title>n11378</title>
<ellipse fill="cyan" stroke="black" cx="510.083" cy="-269" rx="29.795" ry="18"/>
<text text-anchor="middle" x="510.083" y="-265.3" font-family="Times New Roman,serif" font-size="14.00">mtod</text>
</g>
<!-- n11369&#45;&gt;n11378 -->
<g id="edge1" class="edge"><title>n11369&#45;&gt;n11378</title>
<path fill="none" stroke="lightgray" d="M304.319,-408.997C342.319,-401.909 414.54,-384.051 462.186,-345 478.074,-331.978 490.079,-312.076 497.964,-295.905"/>
<polygon fill="lightgray" stroke="lightgray" points="501.331,-296.96 502.339,-286.413 494.974,-294.03 501.331,-296.96"/>
<text text-anchor="middle" x="399.186" y="-404.8" font-family="Times New Roman,serif" font-size="14.00" fill="lightgray">wff ph</text>
</g>
<!-- n11370 -->
<g id="node3" class="node"><title>n11370</title>
<ellipse fill="none" stroke="lightgray" cx="277.889" cy="-341" rx="27" ry="18"/>
<text text-anchor="middle" x="277.889" y="-337.3" font-family="Times New Roman,serif" font-size="14.00" fill="lightgray">wps</text>
</g>
<!-- n11369&#45;&gt;n11370 -->
<g id="edge14" class="edge"><title>n11369&#45;&gt;n11370</title>
</g>
<!-- QED -->
<g id="node11" class="node"><title>QED</title>
</g>
<!-- n11378&#45;&gt;QED -->
<g id="edge13" class="edge"><title>n11378&#45;&gt;QED</title>
<path fill="none" stroke="black" d="M540.187,-269C571.003,-269 619.793,-269 653.763,-269"/>
<polygon fill="black" stroke="black" points="653.793,-272.5 663.793,-269 653.793,-265.5 653.793,-272.5"/>
<text text-anchor="middle" x="601.98" y="-272.8" font-family="Times New Roman,serif" font-size="14.00">|&#45; ( ph &#45;&gt; &#45;. ps )</text>
</g>
<!-- n11370&#45;&gt;n11378 -->
<g id="edge2" class="edge"><title>n11370&#45;&gt;n11378</title>
<path fill="none" stroke="lightgray" d="M303.454,-334.763C338.863,-325.579 406.152,-307.394 462.186,-288 466.505,-286.505 471.006,-284.833 475.436,-283.117"/>
<polygon fill="lightgray" stroke="lightgray" points="476.925,-286.292 484.924,-279.344 474.338,-279.787 476.925,-286.292"/>
<text text-anchor="middle" x="399.186" y="-329.8" font-family="Times New Roman,serif" font-size="14.00" fill="lightgray">wff ps</text>
</g>
<!-- n11371 -->
<g id="node4" class="node"><title>n11371</title>
<ellipse fill="none" stroke="lightgray" cx="277.889" cy="-269" rx="27" ry="18"/>
<text text-anchor="middle" x="277.889" y="-265.3" font-family="Times New Roman,serif" font-size="14.00" fill="lightgray">wch</text>
</g>
<!-- n11370&#45;&gt;n11371 -->
<g id="edge15" class="edge"><title>n11370&#45;&gt;n11371</title>
</g>
<!-- n11371&#45;&gt;n11378 -->
<g id="edge3" class="edge"><title>n11371&#45;&gt;n11378</title>
<path fill="none" stroke="lightgray" d="M305.295,-269C345.699,-269 423.099,-269 470.012,-269"/>
<polygon fill="lightgray" stroke="lightgray" points="470.104,-272.5 480.104,-269 470.104,-265.5 470.104,-272.5"/>
<text text-anchor="middle" x="399.186" y="-272.8" font-family="Times New Roman,serif" font-size="14.00" fill="lightgray">wff ch</text>
</g>
<!-- n11372 -->
<g id="node5" class="node"><title>n11372</title>
<ellipse fill="orange" stroke="black" cx="277.889" cy="-197" rx="40.0939" ry="18"/>
<text text-anchor="middle" x="277.889" y="-193.3" font-family="Times New Roman,serif" font-size="14.00">mtand.1</text>
</g>
<!-- n11371&#45;&gt;n11372 -->
<g id="edge16" class="edge"><title>n11371&#45;&gt;n11372</title>
</g>
<!-- n11372&#45;&gt;n11378 -->
<g id="edge4" class="edge"><title>n11372&#45;&gt;n11378</title>
<path fill="none" stroke="black" d="M313.341,-205.82C350.432,-215.58 411.004,-232.286 462.186,-250 466.505,-251.495 471.006,-253.167 475.436,-254.883"/>
<polygon fill="black" stroke="black" points="474.338,-258.213 484.924,-258.656 476.925,-251.708 474.338,-258.213"/>
<text text-anchor="middle" x="399.186" y="-253.8" font-family="Times New Roman,serif" font-size="14.00">|&#45; ( ph &#45;&gt; &#45;. ch )</text>
</g>
<!-- n11377 -->
<g id="node7" class="node"><title>n11377</title>
<ellipse fill="cyan" stroke="black" cx="277.889" cy="-125" rx="27" ry="18"/>
<text text-anchor="middle" x="277.889" y="-121.3" font-family="Times New Roman,serif" font-size="14.00">ex</text>
</g>
<!-- n11372&#45;&gt;n11377 -->
<g id="edge17" class="edge"><title>n11372&#45;&gt;n11377</title>
</g>
<!-- n11373 -->
<g id="node6" class="node"><title>n11373</title>
<ellipse fill="none" stroke="lightgray" cx="40.2964" cy="-234" rx="27" ry="18"/>
<text text-anchor="middle" x="40.2964" y="-230.3" font-family="Times New Roman,serif" font-size="14.00" fill="lightgray">wph</text>
</g>
<!-- n11373&#45;&gt;n11377 -->
<g id="edge5" class="edge"><title>n11373&#45;&gt;n11377</title>
<path fill="none" stroke="lightgray" d="M66.0951,-228.331C101.638,-219.565 168.419,-200.68 219.593,-172 231.991,-165.051 244.358,-155.348 254.413,-146.561"/>
<polygon fill="lightgray" stroke="lightgray" points="256.851,-149.075 261.936,-139.781 252.165,-143.875 256.851,-149.075"/>
<text text-anchor="middle" x="159.093" y="-222.8" font-family="Times New Roman,serif" font-size="14.00" fill="lightgray">wff ph</text>
</g>
<!-- n11374 -->
<g id="node8" class="node"><title>n11374</title>
<ellipse fill="none" stroke="lightgray" cx="40.2964" cy="-162" rx="27" ry="18"/>
<text text-anchor="middle" x="40.2964" y="-158.3" font-family="Times New Roman,serif" font-size="14.00" fill="lightgray">wps</text>
</g>
<!-- n11373&#45;&gt;n11374 -->
<g id="edge10" class="edge"><title>n11373&#45;&gt;n11374</title>
</g>
<!-- n11377&#45;&gt;n11378 -->
<g id="edge9" class="edge"><title>n11377&#45;&gt;n11378</title>
<path fill="none" stroke="black" d="M304.345,-128.81C342.38,-135.619 414.644,-152.994 462.186,-192 478.37,-205.279 490.445,-225.701 498.286,-242.177"/>
<polygon fill="black" stroke="black" points="495.114,-243.658 502.412,-251.338 501.497,-240.783 495.114,-243.658"/>
<text text-anchor="middle" x="399.186" y="-195.8" font-family="Times New Roman,serif" font-size="14.00">|&#45; ( ph &#45;&gt; ( ps &#45;&gt; ch ) )</text>
</g>
<!-- n11374&#45;&gt;n11377 -->
<g id="edge6" class="edge"><title>n11374&#45;&gt;n11377</title>
<path fill="none" stroke="lightgray" d="M66.9575,-157.97C109.178,-151.339 193.381,-138.115 241.323,-130.586"/>
<polygon fill="lightgray" stroke="lightgray" points="241.924,-134.034 251.26,-129.025 240.838,-127.119 241.924,-134.034"/>
<text text-anchor="middle" x="159.093" y="-156.8" font-family="Times New Roman,serif" font-size="14.00" fill="lightgray">wff ps</text>
</g>
<!-- n11375 -->
<g id="node9" class="node"><title>n11375</title>
<ellipse fill="none" stroke="lightgray" cx="40.2964" cy="-90" rx="27" ry="18"/>
<text text-anchor="middle" x="40.2964" y="-86.3" font-family="Times New Roman,serif" font-size="14.00" fill="lightgray">wch</text>
</g>
<!-- n11374&#45;&gt;n11375 -->
<g id="edge11" class="edge"><title>n11374&#45;&gt;n11375</title>
</g>
<!-- n11375&#45;&gt;n11377 -->
<g id="edge7" class="edge"><title>n11375&#45;&gt;n11377</title>
<path fill="none" stroke="lightgray" d="M66.9972,-93.6573C101.661,-98.6107 165.313,-107.779 219.593,-116 226.698,-117.076 234.295,-118.252 241.556,-119.388"/>
<polygon fill="lightgray" stroke="lightgray" points="241.091,-122.857 251.513,-120.953 242.178,-115.942 241.091,-122.857"/>
<text text-anchor="middle" x="159.093" y="-119.8" font-family="Times New Roman,serif" font-size="14.00" fill="lightgray">wff ch</text>
</g>
<!-- n11376 -->
<g id="node10" class="node"><title>n11376</title>
<ellipse fill="orange" stroke="black" cx="40.2964" cy="-18" rx="40.0939" ry="18"/>
<text text-anchor="middle" x="40.2964" y="-14.3" font-family="Times New Roman,serif" font-size="14.00">mtand.2</text>
</g>
<!-- n11375&#45;&gt;n11376 -->
<g id="edge12" class="edge"><title>n11375&#45;&gt;n11376</title>
</g>
<!-- n11376&#45;&gt;n11377 -->
<g id="edge8" class="edge"><title>n11376&#45;&gt;n11377</title>
<path fill="none" stroke="black" d="M76.2329,-26.4584C113.253,-36.2498 172.719,-54.3797 219.593,-80 231.559,-86.5403 243.608,-95.553 253.548,-103.796"/>
<polygon fill="black" stroke="black" points="251.478,-106.631 261.354,-110.467 256.026,-101.309 251.478,-106.631"/>
<text text-anchor="middle" x="159.093" y="-83.8" font-family="Times New Roman,serif" font-size="14.00">|&#45; ( ( ph /\ ps ) &#45;&gt; ch )</text>
</g>
</g>
</svg>
