<?xml version="1.0" encoding="UTF-8" standalone="no"?>
<!DOCTYPE svg PUBLIC "-//W3C//DTD SVG 1.1//EN"
 "http://www.w3.org/Graphics/SVG/1.1/DTD/svg11.dtd">
<!-- Generated by graphviz version 2.38.0 (20140413.2041)
 -->
<!-- Title: proof_mto Pages: 1 -->
<svg width="683pt" height="332pt"
 viewBox="0.00 0.00 683.48 332.00" xmlns="http://www.w3.org/2000/svg" xmlns:xlink="http://www.w3.org/1999/xlink">
<g id="graph0" class="graph" transform="scale(1 1) rotate(0) translate(4 328)">
<title>proof_mto</title>
<polygon fill="white" stroke="none" points="-4,4 -4,-328 679.476,-328 679.476,4 -4,4"/>
<!-- n2018 -->
<g id="node1" class="node"><title>n2018</title>
<ellipse fill="none" stroke="lightgray" cx="307.542" cy="-306" rx="27" ry="18"/>
<text text-anchor="middle" x="307.542" y="-302.3" font-family="Times New Roman,serif" font-size="14.00" fill="lightgray">wph</text>
</g>
<!-- n2026 -->
<g id="node2" class="node"><title>n2026</title>
<ellipse fill="cyan" stroke="black" cx="503.685" cy="-197" rx="40.0939" ry="18"/>
<text text-anchor="middle" x="503.685" y="-193.3" font-family="Times New Roman,serif" font-size="14.00">pm2.65i</text>
</g>
<!-- n2018&#45;&gt;n2026 -->
<g id="edge1" class="edge"><title>n2018&#45;&gt;n2026</title>
<path fill="none" stroke="lightgray" d="M331.694,-297.367C359.636,-286.497 407.575,-266.39 445.389,-243 456.407,-236.185 467.701,-227.537 477.317,-219.583"/>
<polygon fill="lightgray" stroke="lightgray" points="479.583,-222.251 484.958,-213.121 475.062,-216.906 479.583,-222.251"/>
<text text-anchor="middle" x="401.389" y="-289.8" font-family="Times New Roman,serif" font-size="14.00" fill="lightgray">wff ph</text>
</g>
<!-- n2019 -->
<g id="node3" class="node"><title>n2019</title>
<ellipse fill="none" stroke="lightgray" cx="307.542" cy="-234" rx="27" ry="18"/>
<text text-anchor="middle" x="307.542" y="-230.3" font-family="Times New Roman,serif" font-size="14.00" fill="lightgray">wps</text>
</g>
<!-- n2018&#45;&gt;n2019 -->
<g id="edge12" class="edge"><title>n2018&#45;&gt;n2019</title>
</g>
<!-- QED -->
<g id="node10" class="node"><title>QED</title>
</g>
<!-- n2026&#45;&gt;QED -->
<g id="edge11" class="edge"><title>n2026&#45;&gt;QED</title>
<path fill="none" stroke="black" d="M544.208,-197C563.754,-197 587.252,-197 606.665,-197"/>
<polygon fill="black" stroke="black" points="606.69,-200.5 616.69,-197 606.69,-193.5 606.69,-200.5"/>
<text text-anchor="middle" x="580.482" y="-200.8" font-family="Times New Roman,serif" font-size="14.00">|&#45; &#45;. ph</text>
</g>
<!-- n2019&#45;&gt;n2026 -->
<g id="edge2" class="edge"><title>n2019&#45;&gt;n2026</title>
<path fill="none" stroke="lightgray" d="M333.922,-229.163C364.964,-223.247 418.105,-213.119 456.473,-205.807"/>
<polygon fill="lightgray" stroke="lightgray" points="457.21,-209.23 466.378,-203.919 455.9,-202.353 457.21,-209.23"/>
<text text-anchor="middle" x="401.389" y="-227.8" font-family="Times New Roman,serif" font-size="14.00" fill="lightgray">wff ps</text>
</g>
<!-- n2020 -->
<g id="node4" class="node"><title>n2020</title>
<ellipse fill="orange" stroke="black" cx="307.542" cy="-162" rx="31.6951" ry="18"/>
<text text-anchor="middle" x="307.542" y="-158.3" font-family="Times New Roman,serif" font-size="14.00">mto.2</text>
</g>
<!-- n2019&#45;&gt;n2020 -->
<g id="edge13" class="edge"><title>n2019&#45;&gt;n2020</title>
</g>
<!-- n2020&#45;&gt;n2026 -->
<g id="edge3" class="edge"><title>n2020&#45;&gt;n2026</title>
<path fill="none" stroke="black" d="M338.028,-167.316C369.346,-172.962 419.297,-181.967 455.978,-188.58"/>
<polygon fill="black" stroke="black" points="455.483,-192.047 465.945,-190.377 456.725,-185.158 455.483,-192.047"/>
<text text-anchor="middle" x="401.389" y="-189.8" font-family="Times New Roman,serif" font-size="14.00">|&#45; ( ph &#45;&gt; ps )</text>
</g>
<!-- n2025 -->
<g id="node7" class="node"><title>n2025</title>
<ellipse fill="cyan" stroke="black" cx="307.542" cy="-90" rx="27" ry="18"/>
<text text-anchor="middle" x="307.542" y="-86.3" font-family="Times New Roman,serif" font-size="14.00">a1i</text>
</g>
<!-- n2020&#45;&gt;n2025 -->
<g id="edge14" class="edge"><title>n2020&#45;&gt;n2025</title>
</g>
<!-- n2021 -->
<g id="node5" class="node"><title>n2021</title>
<ellipse fill="none" stroke="lightgray" cx="27" cy="-162" rx="27" ry="18"/>
<text text-anchor="middle" x="27" y="-158.3" font-family="Times New Roman,serif" font-size="14.00" fill="lightgray">wps</text>
</g>
<!-- n2022 -->
<g id="node6" class="node"><title>n2022</title>
<ellipse fill="none" stroke="lightgray" cx="158.847" cy="-162" rx="27" ry="18"/>
<text text-anchor="middle" x="158.847" y="-158.3" font-family="Times New Roman,serif" font-size="14.00" fill="lightgray">wn</text>
</g>
<!-- n2021&#45;&gt;n2022 -->
<g id="edge4" class="edge"><title>n2021&#45;&gt;n2022</title>
<path fill="none" stroke="lightgray" d="M54.2765,-162C73.6364,-162 100.205,-162 121.585,-162"/>
<polygon fill="lightgray" stroke="lightgray" points="121.61,-165.5 131.61,-162 121.61,-158.5 121.61,-165.5"/>
<text text-anchor="middle" x="90.5" y="-165.8" font-family="Times New Roman,serif" font-size="14.00" fill="lightgray">wff ps</text>
</g>
<!-- n2022&#45;&gt;n2025 -->
<g id="edge5" class="edge"><title>n2022&#45;&gt;n2025</title>
<path fill="none" stroke="lightgray" d="M181.178,-151.531C206.165,-139.266 247.747,-118.857 276.115,-104.934"/>
<polygon fill="lightgray" stroke="lightgray" points="277.75,-108.03 285.185,-100.482 274.666,-101.746 277.75,-108.03"/>
<text text-anchor="middle" x="233.194" y="-140.8" font-family="Times New Roman,serif" font-size="14.00" fill="lightgray">wff &#45;. ps</text>
</g>
<!-- n2023 -->
<g id="node8" class="node"><title>n2023</title>
<ellipse fill="none" stroke="lightgray" cx="158.847" cy="-90" rx="27" ry="18"/>
<text text-anchor="middle" x="158.847" y="-86.3" font-family="Times New Roman,serif" font-size="14.00" fill="lightgray">wph</text>
</g>
<!-- n2022&#45;&gt;n2023 -->
<g id="edge9" class="edge"><title>n2022&#45;&gt;n2023</title>
</g>
<!-- n2025&#45;&gt;n2026 -->
<g id="edge8" class="edge"><title>n2025&#45;&gt;n2026</title>
<path fill="none" stroke="black" d="M331.609,-98.7721C359.468,-109.778 407.325,-130.019 445.389,-153 455.935,-159.367 466.824,-167.326 476.239,-174.718"/>
<polygon fill="black" stroke="black" points="474.098,-177.487 484.089,-181.013 478.477,-172.026 474.098,-177.487"/>
<text text-anchor="middle" x="401.389" y="-156.8" font-family="Times New Roman,serif" font-size="14.00">|&#45; ( ph &#45;&gt; &#45;. ps )</text>
</g>
<!-- n2023&#45;&gt;n2025 -->
<g id="edge6" class="edge"><title>n2023&#45;&gt;n2025</title>
<path fill="none" stroke="lightgray" d="M186.073,-90C209.396,-90 243.743,-90 269.8,-90"/>
<polygon fill="lightgray" stroke="lightgray" points="270.048,-93.5001 280.048,-90 270.048,-86.5001 270.048,-93.5001"/>
<text text-anchor="middle" x="233.194" y="-93.8" font-family="Times New Roman,serif" font-size="14.00" fill="lightgray">wff ph</text>
</g>
<!-- n2024 -->
<g id="node9" class="node"><title>n2024</title>
<ellipse fill="orange" stroke="black" cx="158.847" cy="-18" rx="31.6951" ry="18"/>
<text text-anchor="middle" x="158.847" y="-14.3" font-family="Times New Roman,serif" font-size="14.00">mto.1</text>
</g>
<!-- n2023&#45;&gt;n2024 -->
<g id="edge10" class="edge"><title>n2023&#45;&gt;n2024</title>
</g>
<!-- n2024&#45;&gt;n2025 -->
<g id="edge7" class="edge"><title>n2024&#45;&gt;n2025</title>
<path fill="none" stroke="black" d="M183.416,-29.568C208.628,-41.9425 248.698,-61.6093 276.238,-75.1264"/>
<polygon fill="black" stroke="black" points="274.892,-78.3649 285.412,-79.6291 277.977,-72.081 274.892,-78.3649"/>
<text text-anchor="middle" x="233.194" y="-68.8" font-family="Times New Roman,serif" font-size="14.00">|&#45; &#45;. ps</text>
</g>
</g>
</svg>
