<?xml version="1.0" encoding="UTF-8" standalone="no"?>
<!DOCTYPE svg PUBLIC "-//W3C//DTD SVG 1.1//EN"
 "http://www.w3.org/Graphics/SVG/1.1/DTD/svg11.dtd">
<!-- Generated by graphviz version 2.38.0 (20140413.2041)
 -->
<!-- Title: proof_mtod Pages: 1 -->
<svg width="847pt" height="439pt"
 viewBox="0.00 0.00 846.87 439.00" xmlns="http://www.w3.org/2000/svg" xmlns:xlink="http://www.w3.org/1999/xlink">
<g id="graph0" class="graph" transform="scale(1 1) rotate(0) translate(4 435)">
<title>proof_mtod</title>
<polygon fill="white" stroke="none" points="-4,4 -4,-435 842.874,-435 842.874,4 -4,4"/>
<!-- n2027 -->
<g id="node1" class="node"><title>n2027</title>
<ellipse fill="none" stroke="lightgray" cx="360.19" cy="-413" rx="27" ry="18"/>
<text text-anchor="middle" x="360.19" y="-409.3" font-family="Times New Roman,serif" font-size="14.00" fill="lightgray">wph</text>
</g>
<!-- n2037 -->
<g id="node2" class="node"><title>n2037</title>
<ellipse fill="cyan" stroke="black" cx="613.483" cy="-269" rx="42.7926" ry="18"/>
<text text-anchor="middle" x="613.483" y="-265.3" font-family="Times New Roman,serif" font-size="14.00">pm2.65d</text>
</g>
<!-- n2027&#45;&gt;n2037 -->
<g id="edge1" class="edge"><title>n2027&#45;&gt;n2037</title>
<path fill="none" stroke="lightgray" d="M386.531,-408.68C425.291,-401.101 500.298,-382.517 552.587,-345 571.014,-331.779 586.663,-311.367 597.339,-295.025"/>
<polygon fill="lightgray" stroke="lightgray" points="600.381,-296.764 602.745,-286.436 594.456,-293.035 600.381,-296.764"/>
<text text-anchor="middle" x="483.587" y="-405.8" font-family="Times New Roman,serif" font-size="14.00" fill="lightgray">wff ph</text>
</g>
<!-- n2028 -->
<g id="node3" class="node"><title>n2028</title>
<ellipse fill="none" stroke="lightgray" cx="360.19" cy="-341" rx="27" ry="18"/>
<text text-anchor="middle" x="360.19" y="-337.3" font-family="Times New Roman,serif" font-size="14.00" fill="lightgray">wps</text>
</g>
<!-- n2027&#45;&gt;n2028 -->
<g id="edge15" class="edge"><title>n2027&#45;&gt;n2028</title>
</g>
<!-- QED -->
<g id="node12" class="node"><title>QED</title>
</g>
<!-- n2037&#45;&gt;QED -->
<g id="edge14" class="edge"><title>n2037&#45;&gt;QED</title>
<path fill="none" stroke="black" d="M656.61,-269C690.422,-269 737.495,-269 770.268,-269"/>
<polygon fill="black" stroke="black" points="770.371,-272.5 780.371,-269 770.371,-265.5 770.371,-272.5"/>
<text text-anchor="middle" x="718.379" y="-272.8" font-family="Times New Roman,serif" font-size="14.00">|&#45; ( ph &#45;&gt; &#45;. ps )</text>
</g>
<!-- n2028&#45;&gt;n2037 -->
<g id="edge2" class="edge"><title>n2028&#45;&gt;n2037</title>
<path fill="none" stroke="lightgray" d="M385.443,-334.593C421.855,-324.904 492.762,-305.765 552.587,-288 557.947,-286.408 563.561,-284.693 569.113,-282.966"/>
<polygon fill="lightgray" stroke="lightgray" points="570.479,-286.206 578.971,-279.871 568.382,-279.527 570.479,-286.206"/>
<text text-anchor="middle" x="483.587" y="-329.8" font-family="Times New Roman,serif" font-size="14.00" fill="lightgray">wff ps</text>
</g>
<!-- n2029 -->
<g id="node4" class="node"><title>n2029</title>
<ellipse fill="none" stroke="lightgray" cx="360.19" cy="-269" rx="27" ry="18"/>
<text text-anchor="middle" x="360.19" y="-265.3" font-family="Times New Roman,serif" font-size="14.00" fill="lightgray">wch</text>
</g>
<!-- n2028&#45;&gt;n2029 -->
<g id="edge16" class="edge"><title>n2028&#45;&gt;n2029</title>
</g>
<!-- n2029&#45;&gt;n2037 -->
<g id="edge3" class="edge"><title>n2029&#45;&gt;n2037</title>
<path fill="none" stroke="lightgray" d="M387.608,-269C428.365,-269 507.368,-269 560.031,-269"/>
<polygon fill="lightgray" stroke="lightgray" points="560.193,-272.5 570.193,-269 560.193,-265.5 560.193,-272.5"/>
<text text-anchor="middle" x="483.587" y="-272.8" font-family="Times New Roman,serif" font-size="14.00" fill="lightgray">wff ch</text>
</g>
<!-- n2030 -->
<g id="node5" class="node"><title>n2030</title>
<ellipse fill="orange" stroke="black" cx="360.19" cy="-197" rx="36.2938" ry="18"/>
<text text-anchor="middle" x="360.19" y="-193.3" font-family="Times New Roman,serif" font-size="14.00">mtod.2</text>
</g>
<!-- n2029&#45;&gt;n2030 -->
<g id="edge17" class="edge"><title>n2029&#45;&gt;n2030</title>
</g>
<!-- n2030&#45;&gt;n2037 -->
<g id="edge4" class="edge"><title>n2030&#45;&gt;n2037</title>
<path fill="none" stroke="black" d="M392.79,-205.366C430.821,-215.523 496.563,-233.363 552.587,-250 557.947,-251.592 563.561,-253.307 569.113,-255.034"/>
<polygon fill="black" stroke="black" points="568.382,-258.473 578.971,-258.129 570.479,-251.794 568.382,-258.473"/>
<text text-anchor="middle" x="483.587" y="-253.8" font-family="Times New Roman,serif" font-size="14.00">|&#45; ( ph &#45;&gt; ( ps &#45;&gt; ch ) )</text>
</g>
<!-- n2036 -->
<g id="node7" class="node"><title>n2036</title>
<ellipse fill="cyan" stroke="black" cx="360.19" cy="-125" rx="27" ry="18"/>
<text text-anchor="middle" x="360.19" y="-121.3" font-family="Times New Roman,serif" font-size="14.00">a1d</text>
</g>
<!-- n2030&#45;&gt;n2036 -->
<g id="edge18" class="edge"><title>n2030&#45;&gt;n2036</title>
</g>
<!-- n2031 -->
<g id="node6" class="node"><title>n2031</title>
<ellipse fill="none" stroke="lightgray" cx="163.397" cy="-234" rx="27" ry="18"/>
<text text-anchor="middle" x="163.397" y="-230.3" font-family="Times New Roman,serif" font-size="14.00" fill="lightgray">wph</text>
</g>
<!-- n2031&#45;&gt;n2036 -->
<g id="edge5" class="edge"><title>n2031&#45;&gt;n2036</title>
<path fill="none" stroke="lightgray" d="M187.721,-226.007C216.64,-215.568 266.87,-195.682 305.794,-171 316.663,-164.107 327.615,-155.113 336.747,-146.907"/>
<polygon fill="lightgray" stroke="lightgray" points="339.284,-149.328 344.255,-139.972 334.535,-144.186 339.284,-149.328"/>
<text text-anchor="middle" x="261.794" y="-216.8" font-family="Times New Roman,serif" font-size="14.00" fill="lightgray">wff ph</text>
</g>
<!-- n2033 -->
<g id="node9" class="node"><title>n2033</title>
<ellipse fill="none" stroke="lightgray" cx="163.397" cy="-162" rx="27" ry="18"/>
<text text-anchor="middle" x="163.397" y="-158.3" font-family="Times New Roman,serif" font-size="14.00" fill="lightgray">wn</text>
</g>
<!-- n2031&#45;&gt;n2033 -->
<g id="edge11" class="edge"><title>n2031&#45;&gt;n2033</title>
</g>
<!-- n2036&#45;&gt;n2037 -->
<g id="edge10" class="edge"><title>n2036&#45;&gt;n2037</title>
<path fill="none" stroke="black" d="M386.56,-129.124C425.359,-136.417 500.415,-154.501 552.587,-192 571.153,-205.344 586.794,-226.028 597.432,-242.599"/>
<polygon fill="black" stroke="black" points="594.581,-244.642 602.815,-251.309 600.535,-240.962 594.581,-244.642"/>
<text text-anchor="middle" x="483.587" y="-195.8" font-family="Times New Roman,serif" font-size="14.00">|&#45; ( ph &#45;&gt; ( ps &#45;&gt; &#45;. ch ) )</text>
</g>
<!-- n2032 -->
<g id="node8" class="node"><title>n2032</title>
<ellipse fill="none" stroke="lightgray" cx="27" cy="-162" rx="27" ry="18"/>
<text text-anchor="middle" x="27" y="-158.3" font-family="Times New Roman,serif" font-size="14.00" fill="lightgray">wch</text>
</g>
<!-- n2032&#45;&gt;n2033 -->
<g id="edge6" class="edge"><title>n2032&#45;&gt;n2033</title>
<path fill="none" stroke="lightgray" d="M54.2321,-162C74.6755,-162 103.299,-162 125.966,-162"/>
<polygon fill="lightgray" stroke="lightgray" points="126.231,-165.5 136.231,-162 126.231,-158.5 126.231,-165.5"/>
<text text-anchor="middle" x="90.5" y="-165.8" font-family="Times New Roman,serif" font-size="14.00" fill="lightgray">wff ch</text>
</g>
<!-- n2033&#45;&gt;n2036 -->
<g id="edge7" class="edge"><title>n2033&#45;&gt;n2036</title>
<path fill="none" stroke="lightgray" d="M189.464,-157.239C223.704,-150.735 285.267,-139.041 324.085,-131.668"/>
<polygon fill="lightgray" stroke="lightgray" points="324.74,-135.106 333.911,-129.802 323.433,-128.229 324.74,-135.106"/>
<text text-anchor="middle" x="261.794" y="-155.8" font-family="Times New Roman,serif" font-size="14.00" fill="lightgray">wff &#45;. ch</text>
</g>
<!-- n2034 -->
<g id="node10" class="node"><title>n2034</title>
<ellipse fill="none" stroke="lightgray" cx="163.397" cy="-90" rx="27" ry="18"/>
<text text-anchor="middle" x="163.397" y="-86.3" font-family="Times New Roman,serif" font-size="14.00" fill="lightgray">wps</text>
</g>
<!-- n2033&#45;&gt;n2034 -->
<g id="edge12" class="edge"><title>n2033&#45;&gt;n2034</title>
</g>
<!-- n2034&#45;&gt;n2036 -->
<g id="edge8" class="edge"><title>n2034&#45;&gt;n2036</title>
<path fill="none" stroke="lightgray" d="M189.863,-94.5756C224.081,-100.724 285.062,-111.681 323.748,-118.632"/>
<polygon fill="lightgray" stroke="lightgray" points="323.566,-122.155 334.027,-120.479 324.803,-115.265 323.566,-122.155"/>
<text text-anchor="middle" x="261.794" y="-118.8" font-family="Times New Roman,serif" font-size="14.00" fill="lightgray">wff ps</text>
</g>
<!-- n2035 -->
<g id="node11" class="node"><title>n2035</title>
<ellipse fill="orange" stroke="black" cx="163.397" cy="-18" rx="36.2938" ry="18"/>
<text text-anchor="middle" x="163.397" y="-14.3" font-family="Times New Roman,serif" font-size="14.00">mtod.1</text>
</g>
<!-- n2034&#45;&gt;n2035 -->
<g id="edge13" class="edge"><title>n2034&#45;&gt;n2035</title>
</g>
<!-- n2035&#45;&gt;n2036 -->
<g id="edge9" class="edge"><title>n2035&#45;&gt;n2036</title>
<path fill="none" stroke="black" d="M193.095,-28.5084C222.444,-39.816 268.843,-59.2692 305.794,-82 316.194,-88.3982 326.835,-96.5742 335.852,-104.076"/>
<polygon fill="black" stroke="black" points="333.744,-106.878 343.623,-110.704 338.287,-101.552 333.744,-106.878"/>
<text text-anchor="middle" x="261.794" y="-85.8" font-family="Times New Roman,serif" font-size="14.00">|&#45; ( ph &#45;&gt; &#45;. ch )</text>
</g>
</g>
</svg>
