<?xml version="1.0" encoding="UTF-8" standalone="no"?>
<!DOCTYPE svg PUBLIC "-//W3C//DTD SVG 1.1//EN"
 "http://www.w3.org/Graphics/SVG/1.1/DTD/svg11.dtd">
<!-- Generated by graphviz version 2.38.0 (20140413.2041)
 -->
<!-- Title: proof_nan Pages: 1 -->
<svg width="1477pt" height="929pt"
 viewBox="0.00 0.00 1477.38 929.00" xmlns="http://www.w3.org/2000/svg" xmlns:xlink="http://www.w3.org/1999/xlink">
<g id="graph0" class="graph" transform="scale(1 1) rotate(0) translate(4 925)">
<title>proof_nan</title>
<polygon fill="white" stroke="none" points="-4,4 -4,-925 1473.38,-925 1473.38,4 -4,4"/>
<!-- n9843 -->
<g id="node1" class="node"><title>n9843</title>
<ellipse fill="none" stroke="lightgray" cx="154" cy="-903" rx="27" ry="18"/>
<text text-anchor="middle" x="154" y="-899.3" font-family="Times New Roman,serif" font-size="14.00" fill="lightgray">wph</text>
</g>
<!-- n9845 -->
<g id="node2" class="node"><title>n9845</title>
<ellipse fill="none" stroke="lightgray" cx="331.497" cy="-845" rx="27" ry="18"/>
<text text-anchor="middle" x="331.497" y="-841.3" font-family="Times New Roman,serif" font-size="14.00" fill="lightgray">wa</text>
</g>
<!-- n9843&#45;&gt;n9845 -->
<g id="edge1" class="edge"><title>n9843&#45;&gt;n9845</title>
<path fill="none" stroke="lightgray" d="M178.668,-895.178C209.239,-885.075 262.626,-867.431 297.257,-855.986"/>
<polygon fill="lightgray" stroke="lightgray" points="298.528,-859.252 306.924,-852.791 296.331,-852.605 298.528,-859.252"/>
<text text-anchor="middle" x="240" y="-891.8" font-family="Times New Roman,serif" font-size="14.00" fill="lightgray">wff ph</text>
</g>
<!-- n9844 -->
<g id="node3" class="node"><title>n9844</title>
<ellipse fill="none" stroke="lightgray" cx="154" cy="-831" rx="27" ry="18"/>
<text text-anchor="middle" x="154" y="-827.3" font-family="Times New Roman,serif" font-size="14.00" fill="lightgray">wps</text>
</g>
<!-- n9843&#45;&gt;n9844 -->
<g id="edge4" class="edge"><title>n9843&#45;&gt;n9844</title>
</g>
<!-- n9848 -->
<g id="node4" class="node"><title>n9848</title>
<ellipse fill="none" stroke="lightgray" cx="639.691" cy="-737" rx="27" ry="18"/>
<text text-anchor="middle" x="639.691" y="-733.3" font-family="Times New Roman,serif" font-size="14.00" fill="lightgray">wi</text>
</g>
<!-- n9845&#45;&gt;n9848 -->
<g id="edge3" class="edge"><title>n9845&#45;&gt;n9848</title>
<path fill="none" stroke="lightgray" d="M358.585,-843.144C405.96,-838.878 508.232,-825.488 583.994,-786 596.662,-779.397 608.719,-769.188 618.273,-759.793"/>
<polygon fill="lightgray" stroke="lightgray" points="620.89,-762.123 625.362,-752.519 615.876,-757.238 620.89,-762.123"/>
<text text-anchor="middle" x="482.994" y="-844.8" font-family="Times New Roman,serif" font-size="14.00" fill="lightgray">wff ( ph /\ ps )</text>
</g>
<!-- n9847 -->
<g id="node6" class="node"><title>n9847</title>
<ellipse fill="none" stroke="lightgray" cx="331.497" cy="-773" rx="27" ry="18"/>
<text text-anchor="middle" x="331.497" y="-769.3" font-family="Times New Roman,serif" font-size="14.00" fill="lightgray">wn</text>
</g>
<!-- n9845&#45;&gt;n9847 -->
<g id="edge8" class="edge"><title>n9845&#45;&gt;n9847</title>
</g>
<!-- n9844&#45;&gt;n9845 -->
<g id="edge2" class="edge"><title>n9844&#45;&gt;n9845</title>
<path fill="none" stroke="lightgray" d="M180.895,-833.066C210.836,-835.454 260.323,-839.402 294.119,-842.098"/>
<polygon fill="lightgray" stroke="lightgray" points="294.249,-845.619 304.496,-842.926 294.806,-838.642 294.249,-845.619"/>
<text text-anchor="middle" x="240" y="-844.8" font-family="Times New Roman,serif" font-size="14.00" fill="lightgray">wff ps</text>
</g>
<!-- n9879 -->
<g id="node7" class="node"><title>n9879</title>
<ellipse fill="cyan" stroke="black" cx="1046.63" cy="-534" rx="29.4969" ry="18"/>
<text text-anchor="middle" x="1046.63" y="-530.3" font-family="Times New Roman,serif" font-size="14.00">bitr2i</text>
</g>
<!-- n9848&#45;&gt;n9879 -->
<g id="edge7" class="edge"><title>n9848&#45;&gt;n9879</title>
<path fill="none" stroke="lightgray" d="M666.884,-738.6C731.59,-741.095 900.873,-738.55 999.388,-653 1025.98,-629.906 1037.38,-589.631 1042.2,-562.403"/>
<polygon fill="lightgray" stroke="lightgray" points="1045.69,-562.744 1043.79,-552.32 1038.77,-561.652 1045.69,-562.744"/>
<text text-anchor="middle" x="847.388" y="-743.8" font-family="Times New Roman,serif" font-size="14.00" fill="lightgray">wff ( ( ph /\ ps ) &#45;&gt; &#45;. ch )</text>
</g>
<!-- n9854 -->
<g id="node9" class="node"><title>n9854</title>
<ellipse fill="none" stroke="lightgray" cx="639.691" cy="-647" rx="27" ry="18"/>
<text text-anchor="middle" x="639.691" y="-643.3" font-family="Times New Roman,serif" font-size="14.00" fill="lightgray">wi</text>
</g>
<!-- n9848&#45;&gt;n9854 -->
<g id="edge52" class="edge"><title>n9848&#45;&gt;n9854</title>
</g>
<!-- n9846 -->
<g id="node5" class="node"><title>n9846</title>
<ellipse fill="none" stroke="lightgray" cx="154" cy="-773" rx="27" ry="18"/>
<text text-anchor="middle" x="154" y="-769.3" font-family="Times New Roman,serif" font-size="14.00" fill="lightgray">wch</text>
</g>
<!-- n9846&#45;&gt;n9847 -->
<g id="edge5" class="edge"><title>n9846&#45;&gt;n9847</title>
<path fill="none" stroke="lightgray" d="M181.274,-773C211.214,-773 260.343,-773 293.993,-773"/>
<polygon fill="lightgray" stroke="lightgray" points="294.331,-776.5 304.331,-773 294.331,-769.5 294.331,-776.5"/>
<text text-anchor="middle" x="240" y="-776.8" font-family="Times New Roman,serif" font-size="14.00" fill="lightgray">wff ch</text>
</g>
<!-- n9847&#45;&gt;n9848 -->
<g id="edge6" class="edge"><title>n9847&#45;&gt;n9848</title>
<path fill="none" stroke="lightgray" d="M358.339,-769.962C412.993,-763.536 540.393,-748.557 602.863,-741.212"/>
<polygon fill="lightgray" stroke="lightgray" points="603.503,-744.661 613.026,-740.017 602.686,-737.709 603.503,-744.661"/>
<text text-anchor="middle" x="482.994" y="-770.8" font-family="Times New Roman,serif" font-size="14.00" fill="lightgray">wff &#45;. ch</text>
</g>
<!-- QED -->
<g id="node38" class="node"><title>QED</title>
</g>
<!-- n9879&#45;&gt;QED -->
<g id="edge51" class="edge"><title>n9879&#45;&gt;QED</title>
<path fill="none" stroke="black" d="M1076.11,-534C1145.18,-534 1321.72,-534 1400.34,-534"/>
<polygon fill="black" stroke="black" points="1400.77,-537.5 1410.77,-534 1400.77,-530.5 1400.77,-537.5"/>
<text text-anchor="middle" x="1243.38" y="-537.8" font-family="Times New Roman,serif" font-size="14.00">|&#45; ( ( ph &#45;&gt; &#45;. ( ps /\ ch ) ) &lt;&#45;&gt; ( ( ph /\ ps ) &#45;&gt; &#45;. ch ) )</text>
</g>
<!-- n9849 -->
<g id="node8" class="node"><title>n9849</title>
<ellipse fill="none" stroke="lightgray" cx="331.497" cy="-719" rx="27" ry="18"/>
<text text-anchor="middle" x="331.497" y="-715.3" font-family="Times New Roman,serif" font-size="14.00" fill="lightgray">wph</text>
</g>
<!-- n9849&#45;&gt;n9854 -->
<g id="edge9" class="edge"><title>n9849&#45;&gt;n9854</title>
<path fill="none" stroke="lightgray" d="M358.099,-714.711C403.86,-706.802 502.522,-688.637 583.994,-666 591.252,-663.983 598.948,-661.519 606.203,-659.042"/>
<polygon fill="lightgray" stroke="lightgray" points="607.463,-662.31 615.741,-655.698 605.146,-655.704 607.463,-662.31"/>
<text text-anchor="middle" x="482.994" y="-714.8" font-family="Times New Roman,serif" font-size="14.00" fill="lightgray">wff ph</text>
</g>
<!-- n9853 -->
<g id="node11" class="node"><title>n9853</title>
<ellipse fill="none" stroke="lightgray" cx="331.497" cy="-647" rx="27" ry="18"/>
<text text-anchor="middle" x="331.497" y="-643.3" font-family="Times New Roman,serif" font-size="14.00" fill="lightgray">wi</text>
</g>
<!-- n9849&#45;&gt;n9853 -->
<g id="edge16" class="edge"><title>n9849&#45;&gt;n9853</title>
</g>
<!-- n9854&#45;&gt;n9879 -->
<g id="edge15" class="edge"><title>n9854&#45;&gt;n9879</title>
<path fill="none" stroke="lightgray" d="M665.815,-641.632C724.786,-628.771 876.379,-594.181 999.388,-553 1003.77,-551.534 1008.32,-549.858 1012.79,-548.121"/>
<polygon fill="lightgray" stroke="lightgray" points="1014.37,-551.26 1022.34,-544.281 1011.75,-544.765 1014.37,-551.26"/>
<text text-anchor="middle" x="847.388" y="-637.8" font-family="Times New Roman,serif" font-size="14.00" fill="lightgray">wff ( ph &#45;&gt; ( ps &#45;&gt; &#45;. ch ) )</text>
</g>
<!-- n9860 -->
<g id="node15" class="node"><title>n9860</title>
<ellipse fill="none" stroke="lightgray" cx="639.691" cy="-534" rx="27" ry="18"/>
<text text-anchor="middle" x="639.691" y="-530.3" font-family="Times New Roman,serif" font-size="14.00" fill="lightgray">wi</text>
</g>
<!-- n9854&#45;&gt;n9860 -->
<g id="edge53" class="edge"><title>n9854&#45;&gt;n9860</title>
</g>
<!-- n9850 -->
<g id="node10" class="node"><title>n9850</title>
<ellipse fill="none" stroke="lightgray" cx="154" cy="-676" rx="27" ry="18"/>
<text text-anchor="middle" x="154" y="-672.3" font-family="Times New Roman,serif" font-size="14.00" fill="lightgray">wps</text>
</g>
<!-- n9850&#45;&gt;n9853 -->
<g id="edge10" class="edge"><title>n9850&#45;&gt;n9853</title>
<path fill="none" stroke="lightgray" d="M180.519,-671.783C210.759,-666.786 261.313,-658.432 295.268,-652.821"/>
<polygon fill="lightgray" stroke="lightgray" points="295.937,-656.258 305.232,-651.175 294.795,-649.352 295.937,-656.258"/>
<text text-anchor="middle" x="240" y="-672.8" font-family="Times New Roman,serif" font-size="14.00" fill="lightgray">wff ps</text>
</g>
<!-- n9852 -->
<g id="node13" class="node"><title>n9852</title>
<ellipse fill="none" stroke="lightgray" cx="154" cy="-604" rx="27" ry="18"/>
<text text-anchor="middle" x="154" y="-600.3" font-family="Times New Roman,serif" font-size="14.00" fill="lightgray">wn</text>
</g>
<!-- n9850&#45;&gt;n9852 -->
<g id="edge14" class="edge"><title>n9850&#45;&gt;n9852</title>
</g>
<!-- n9853&#45;&gt;n9854 -->
<g id="edge13" class="edge"><title>n9853&#45;&gt;n9854</title>
<path fill="none" stroke="lightgray" d="M358.603,-647C413.288,-647 539.966,-647 602.473,-647"/>
<polygon fill="lightgray" stroke="lightgray" points="602.651,-650.5 612.651,-647 602.651,-643.5 602.651,-650.5"/>
<text text-anchor="middle" x="482.994" y="-650.8" font-family="Times New Roman,serif" font-size="14.00" fill="lightgray">wff ( ps &#45;&gt; &#45;. ch )</text>
</g>
<!-- n9851 -->
<g id="node12" class="node"><title>n9851</title>
<ellipse fill="none" stroke="lightgray" cx="27" cy="-604" rx="27" ry="18"/>
<text text-anchor="middle" x="27" y="-600.3" font-family="Times New Roman,serif" font-size="14.00" fill="lightgray">wch</text>
</g>
<!-- n9851&#45;&gt;n9852 -->
<g id="edge11" class="edge"><title>n9851&#45;&gt;n9852</title>
<path fill="none" stroke="lightgray" d="M54.2041,-604C72.3711,-604 96.7994,-604 116.82,-604"/>
<polygon fill="lightgray" stroke="lightgray" points="116.83,-607.5 126.83,-604 116.83,-600.5 116.83,-607.5"/>
<text text-anchor="middle" x="90.5" y="-607.8" font-family="Times New Roman,serif" font-size="14.00" fill="lightgray">wff ch</text>
</g>
<!-- n9852&#45;&gt;n9853 -->
<g id="edge12" class="edge"><title>n9852&#45;&gt;n9853</title>
<path fill="none" stroke="lightgray" d="M179.772,-610.07C210.084,-617.497 261.586,-630.116 295.823,-638.504"/>
<polygon fill="lightgray" stroke="lightgray" points="295.305,-641.981 305.851,-640.961 296.971,-635.182 295.305,-641.981"/>
<text text-anchor="middle" x="240" y="-638.8" font-family="Times New Roman,serif" font-size="14.00" fill="lightgray">wff &#45;. ch</text>
</g>
<!-- n9855 -->
<g id="node14" class="node"><title>n9855</title>
<ellipse fill="none" stroke="lightgray" cx="331.497" cy="-593" rx="27" ry="18"/>
<text text-anchor="middle" x="331.497" y="-589.3" font-family="Times New Roman,serif" font-size="14.00" fill="lightgray">wph</text>
</g>
<!-- n9855&#45;&gt;n9860 -->
<g id="edge17" class="edge"><title>n9855&#45;&gt;n9860</title>
<path fill="none" stroke="lightgray" d="M358.434,-589.852C404.307,-584.022 502.598,-570.351 583.994,-551 591.014,-549.331 598.449,-547.242 605.5,-545.106"/>
<polygon fill="lightgray" stroke="lightgray" points="606.965,-548.315 615.461,-541.985 604.872,-541.635 606.965,-548.315"/>
<text text-anchor="middle" x="482.994" y="-590.8" font-family="Times New Roman,serif" font-size="14.00" fill="lightgray">wff ph</text>
</g>
<!-- n9859 -->
<g id="node19" class="node"><title>n9859</title>
<ellipse fill="none" stroke="lightgray" cx="331.497" cy="-521" rx="27" ry="18"/>
<text text-anchor="middle" x="331.497" y="-517.3" font-family="Times New Roman,serif" font-size="14.00" fill="lightgray">wn</text>
</g>
<!-- n9855&#45;&gt;n9859 -->
<g id="edge24" class="edge"><title>n9855&#45;&gt;n9859</title>
</g>
<!-- n9860&#45;&gt;n9879 -->
<g id="edge23" class="edge"><title>n9860&#45;&gt;n9879</title>
<path fill="none" stroke="lightgray" d="M666.948,-534C736.389,-534 925.13,-534 1006.95,-534"/>
<polygon fill="lightgray" stroke="lightgray" points="1007.3,-537.5 1017.3,-534 1007.3,-530.5 1007.3,-537.5"/>
<text text-anchor="middle" x="847.388" y="-537.8" font-family="Times New Roman,serif" font-size="14.00" fill="lightgray">wff ( ph &#45;&gt; &#45;. ( ps /\ ch ) )</text>
</g>
<!-- n9865 -->
<g id="node21" class="node"><title>n9865</title>
<ellipse fill="cyan" stroke="black" cx="639.691" cy="-454" rx="37.8943" ry="18"/>
<text text-anchor="middle" x="639.691" y="-450.3" font-family="Times New Roman,serif" font-size="14.00">impexp</text>
</g>
<!-- n9860&#45;&gt;n9865 -->
<g id="edge54" class="edge"><title>n9860&#45;&gt;n9865</title>
</g>
<!-- n9856 -->
<g id="node16" class="node"><title>n9856</title>
<ellipse fill="none" stroke="lightgray" cx="27" cy="-546" rx="27" ry="18"/>
<text text-anchor="middle" x="27" y="-542.3" font-family="Times New Roman,serif" font-size="14.00" fill="lightgray">wps</text>
</g>
<!-- n9858 -->
<g id="node17" class="node"><title>n9858</title>
<ellipse fill="none" stroke="lightgray" cx="154" cy="-521" rx="27" ry="18"/>
<text text-anchor="middle" x="154" y="-517.3" font-family="Times New Roman,serif" font-size="14.00" fill="lightgray">wa</text>
</g>
<!-- n9856&#45;&gt;n9858 -->
<g id="edge18" class="edge"><title>n9856&#45;&gt;n9858</title>
<path fill="none" stroke="lightgray" d="M52.9952,-541.001C71.6456,-537.271 97.3666,-532.127 118.053,-527.989"/>
<polygon fill="lightgray" stroke="lightgray" points="118.929,-531.384 128.048,-525.99 117.556,-524.52 118.929,-531.384"/>
<text text-anchor="middle" x="90.5" y="-541.8" font-family="Times New Roman,serif" font-size="14.00" fill="lightgray">wff ps</text>
</g>
<!-- n9857 -->
<g id="node18" class="node"><title>n9857</title>
<ellipse fill="none" stroke="lightgray" cx="27" cy="-474" rx="27" ry="18"/>
<text text-anchor="middle" x="27" y="-470.3" font-family="Times New Roman,serif" font-size="14.00" fill="lightgray">wch</text>
</g>
<!-- n9856&#45;&gt;n9857 -->
<g id="edge21" class="edge"><title>n9856&#45;&gt;n9857</title>
</g>
<!-- n9858&#45;&gt;n9859 -->
<g id="edge20" class="edge"><title>n9858&#45;&gt;n9859</title>
<path fill="none" stroke="lightgray" d="M181.274,-521C211.214,-521 260.343,-521 293.993,-521"/>
<polygon fill="lightgray" stroke="lightgray" points="294.331,-524.5 304.331,-521 294.331,-517.5 294.331,-524.5"/>
<text text-anchor="middle" x="240" y="-524.8" font-family="Times New Roman,serif" font-size="14.00" fill="lightgray">wff ( ps /\ ch )</text>
</g>
<!-- n9857&#45;&gt;n9858 -->
<g id="edge19" class="edge"><title>n9857&#45;&gt;n9858</title>
<path fill="none" stroke="lightgray" d="M50.9269,-482.621C70.4855,-489.975 98.8274,-500.631 120.686,-508.85"/>
<polygon fill="lightgray" stroke="lightgray" points="119.626,-512.191 130.218,-512.434 122.09,-505.639 119.626,-512.191"/>
<text text-anchor="middle" x="90.5" y="-508.8" font-family="Times New Roman,serif" font-size="14.00" fill="lightgray">wff ch</text>
</g>
<!-- n9859&#45;&gt;n9860 -->
<g id="edge22" class="edge"><title>n9859&#45;&gt;n9860</title>
<path fill="none" stroke="lightgray" d="M358.603,-522.108C413.288,-524.43 539.966,-529.808 602.473,-532.462"/>
<polygon fill="lightgray" stroke="lightgray" points="602.512,-535.967 612.651,-532.894 602.809,-528.973 602.512,-535.967"/>
<text text-anchor="middle" x="482.994" y="-535.8" font-family="Times New Roman,serif" font-size="14.00" fill="lightgray">wff &#45;. ( ps /\ ch )</text>
</g>
<!-- n9861 -->
<g id="node20" class="node"><title>n9861</title>
<ellipse fill="none" stroke="lightgray" cx="331.497" cy="-467" rx="27" ry="18"/>
<text text-anchor="middle" x="331.497" y="-463.3" font-family="Times New Roman,serif" font-size="14.00" fill="lightgray">wph</text>
</g>
<!-- n9861&#45;&gt;n9865 -->
<g id="edge25" class="edge"><title>n9861&#45;&gt;n9865</title>
<path fill="none" stroke="lightgray" d="M358.603,-465.892C410.357,-463.694 526.592,-458.759 591.889,-455.987"/>
<polygon fill="lightgray" stroke="lightgray" points="592.071,-459.483 601.914,-455.561 591.774,-452.489 592.071,-459.483"/>
<text text-anchor="middle" x="482.994" y="-468.8" font-family="Times New Roman,serif" font-size="14.00" fill="lightgray">wff ph</text>
</g>
<!-- n9862 -->
<g id="node22" class="node"><title>n9862</title>
<ellipse fill="none" stroke="lightgray" cx="331.497" cy="-395" rx="27" ry="18"/>
<text text-anchor="middle" x="331.497" y="-391.3" font-family="Times New Roman,serif" font-size="14.00" fill="lightgray">wps</text>
</g>
<!-- n9861&#45;&gt;n9862 -->
<g id="edge30" class="edge"><title>n9861&#45;&gt;n9862</title>
</g>
<!-- n9865&#45;&gt;n9879 -->
<g id="edge29" class="edge"><title>n9865&#45;&gt;n9879</title>
<path fill="none" stroke="black" d="M676.917,-457.479C742.313,-464.348 884.014,-481.933 999.388,-515 1003.83,-516.272 1008.42,-517.836 1012.9,-519.515"/>
<polygon fill="black" stroke="black" points="1011.88,-522.874 1022.46,-523.307 1014.46,-516.367 1011.88,-522.874"/>
<text text-anchor="middle" x="847.388" y="-518.8" font-family="Times New Roman,serif" font-size="14.00">|&#45; ( ( ( ph /\ ps ) &#45;&gt; &#45;. ch ) &lt;&#45;&gt; ( ph &#45;&gt; ( ps &#45;&gt; &#45;. ch ) ) )</text>
</g>
<!-- n9878 -->
<g id="node29" class="node"><title>n9878</title>
<ellipse fill="cyan" stroke="black" cx="639.691" cy="-238" rx="32.4942" ry="18"/>
<text text-anchor="middle" x="639.691" y="-234.3" font-family="Times New Roman,serif" font-size="14.00">imbi2i</text>
</g>
<!-- n9865&#45;&gt;n9878 -->
<g id="edge55" class="edge"><title>n9865&#45;&gt;n9878</title>
</g>
<!-- n9862&#45;&gt;n9865 -->
<g id="edge26" class="edge"><title>n9862&#45;&gt;n9865</title>
<path fill="none" stroke="lightgray" d="M358.035,-398.374C403.695,-404.625 502.205,-419.112 583.994,-438 588.631,-439.071 593.455,-440.304 598.234,-441.601"/>
<polygon fill="lightgray" stroke="lightgray" points="597.329,-444.982 607.903,-444.32 599.224,-438.243 597.329,-444.982"/>
<text text-anchor="middle" x="482.994" y="-441.8" font-family="Times New Roman,serif" font-size="14.00" fill="lightgray">wff ps</text>
</g>
<!-- n9864 -->
<g id="node24" class="node"><title>n9864</title>
<ellipse fill="none" stroke="lightgray" cx="331.497" cy="-323" rx="27" ry="18"/>
<text text-anchor="middle" x="331.497" y="-319.3" font-family="Times New Roman,serif" font-size="14.00" fill="lightgray">wn</text>
</g>
<!-- n9862&#45;&gt;n9864 -->
<g id="edge31" class="edge"><title>n9862&#45;&gt;n9864</title>
</g>
<!-- n9863 -->
<g id="node23" class="node"><title>n9863</title>
<ellipse fill="none" stroke="lightgray" cx="154" cy="-356" rx="27" ry="18"/>
<text text-anchor="middle" x="154" y="-352.3" font-family="Times New Roman,serif" font-size="14.00" fill="lightgray">wch</text>
</g>
<!-- n9863&#45;&gt;n9864 -->
<g id="edge27" class="edge"><title>n9863&#45;&gt;n9864</title>
<path fill="none" stroke="lightgray" d="M180.144,-351.272C210.379,-345.587 261.303,-336.011 295.4,-329.6"/>
<polygon fill="lightgray" stroke="lightgray" points="296.218,-333.007 305.399,-327.719 294.925,-326.128 296.218,-333.007"/>
<text text-anchor="middle" x="240" y="-351.8" font-family="Times New Roman,serif" font-size="14.00" fill="lightgray">wff ch</text>
</g>
<!-- n9864&#45;&gt;n9865 -->
<g id="edge28" class="edge"><title>n9864&#45;&gt;n9865</title>
<path fill="none" stroke="lightgray" d="M358.577,-323.786C406.826,-326.37 511.686,-337.373 583.994,-384 600.846,-394.867 614.689,-412.751 624.233,-427.722"/>
<polygon fill="lightgray" stroke="lightgray" points="621.427,-429.846 629.608,-436.578 627.411,-426.214 621.427,-429.846"/>
<text text-anchor="middle" x="482.994" y="-387.8" font-family="Times New Roman,serif" font-size="14.00" fill="lightgray">wff &#45;. ch</text>
</g>
<!-- n9866 -->
<g id="node25" class="node"><title>n9866</title>
<ellipse fill="none" stroke="lightgray" cx="27" cy="-302" rx="27" ry="18"/>
<text text-anchor="middle" x="27" y="-298.3" font-family="Times New Roman,serif" font-size="14.00" fill="lightgray">wch</text>
</g>
<!-- n9867 -->
<g id="node26" class="node"><title>n9867</title>
<ellipse fill="none" stroke="lightgray" cx="154" cy="-302" rx="27" ry="18"/>
<text text-anchor="middle" x="154" y="-298.3" font-family="Times New Roman,serif" font-size="14.00" fill="lightgray">wn</text>
</g>
<!-- n9866&#45;&gt;n9867 -->
<g id="edge32" class="edge"><title>n9866&#45;&gt;n9867</title>
<path fill="none" stroke="lightgray" d="M54.2041,-302C72.3711,-302 96.7994,-302 116.82,-302"/>
<polygon fill="lightgray" stroke="lightgray" points="116.83,-305.5 126.83,-302 116.83,-298.5 116.83,-305.5"/>
<text text-anchor="middle" x="90.5" y="-305.8" font-family="Times New Roman,serif" font-size="14.00" fill="lightgray">wff ch</text>
</g>
<!-- n9869 -->
<g id="node27" class="node"><title>n9869</title>
<ellipse fill="none" stroke="lightgray" cx="331.497" cy="-269" rx="27" ry="18"/>
<text text-anchor="middle" x="331.497" y="-265.3" font-family="Times New Roman,serif" font-size="14.00" fill="lightgray">wi</text>
</g>
<!-- n9867&#45;&gt;n9869 -->
<g id="edge33" class="edge"><title>n9867&#45;&gt;n9869</title>
<path fill="none" stroke="lightgray" d="M180.144,-297.272C210.379,-291.587 261.303,-282.011 295.4,-275.6"/>
<polygon fill="lightgray" stroke="lightgray" points="296.218,-279.007 305.399,-273.719 294.925,-272.128 296.218,-279.007"/>
<text text-anchor="middle" x="240" y="-297.8" font-family="Times New Roman,serif" font-size="14.00" fill="lightgray">wff &#45;. ch</text>
</g>
<!-- n9868 -->
<g id="node28" class="node"><title>n9868</title>
<ellipse fill="none" stroke="lightgray" cx="154" cy="-230" rx="27" ry="18"/>
<text text-anchor="middle" x="154" y="-226.3" font-family="Times New Roman,serif" font-size="14.00" fill="lightgray">wps</text>
</g>
<!-- n9867&#45;&gt;n9868 -->
<g id="edge36" class="edge"><title>n9867&#45;&gt;n9868</title>
</g>
<!-- n9869&#45;&gt;n9878 -->
<g id="edge35" class="edge"><title>n9869&#45;&gt;n9878</title>
<path fill="none" stroke="lightgray" d="M358.339,-266.384C411.467,-261.005 533.336,-248.666 597.481,-242.172"/>
<polygon fill="lightgray" stroke="lightgray" points="598.039,-245.634 607.636,-241.144 597.334,-238.669 598.039,-245.634"/>
<text text-anchor="middle" x="482.994" y="-267.8" font-family="Times New Roman,serif" font-size="14.00" fill="lightgray">wff ( ps &#45;&gt; &#45;. ch )</text>
</g>
<!-- n9873 -->
<g id="node33" class="node"><title>n9873</title>
<ellipse fill="none" stroke="lightgray" cx="331.497" cy="-197" rx="27" ry="18"/>
<text text-anchor="middle" x="331.497" y="-193.3" font-family="Times New Roman,serif" font-size="14.00" fill="lightgray">wn</text>
</g>
<!-- n9869&#45;&gt;n9873 -->
<g id="edge48" class="edge"><title>n9869&#45;&gt;n9873</title>
</g>
<!-- n9868&#45;&gt;n9869 -->
<g id="edge34" class="edge"><title>n9868&#45;&gt;n9869</title>
<path fill="none" stroke="lightgray" d="M179.772,-235.505C209.998,-242.222 261.295,-253.622 295.532,-261.23"/>
<polygon fill="lightgray" stroke="lightgray" points="295.046,-264.707 305.567,-263.46 296.565,-257.874 295.046,-264.707"/>
<text text-anchor="middle" x="240" y="-261.8" font-family="Times New Roman,serif" font-size="14.00" fill="lightgray">wff ps</text>
</g>
<!-- n9878&#45;&gt;n9879 -->
<g id="edge47" class="edge"><title>n9878&#45;&gt;n9879</title>
<path fill="none" stroke="black" d="M668.049,-247.224C733.187,-270.394 899.471,-336.821 999.388,-442 1016.9,-460.432 1029.22,-486.776 1036.72,-506.554"/>
<polygon fill="black" stroke="black" points="1033.53,-508 1040.21,-516.221 1040.11,-505.627 1033.53,-508"/>
<text text-anchor="middle" x="847.388" y="-445.8" font-family="Times New Roman,serif" font-size="14.00">|&#45; ( ( ph &#45;&gt; ( ps &#45;&gt; &#45;. ch ) ) &lt;&#45;&gt; ( ph &#45;&gt; &#45;. ( ps /\ ch ) ) )</text>
</g>
<!-- n9870 -->
<g id="node30" class="node"><title>n9870</title>
<ellipse fill="none" stroke="lightgray" cx="27" cy="-221" rx="27" ry="18"/>
<text text-anchor="middle" x="27" y="-217.3" font-family="Times New Roman,serif" font-size="14.00" fill="lightgray">wch</text>
</g>
<!-- n9872 -->
<g id="node31" class="node"><title>n9872</title>
<ellipse fill="none" stroke="lightgray" cx="154" cy="-176" rx="27" ry="18"/>
<text text-anchor="middle" x="154" y="-172.3" font-family="Times New Roman,serif" font-size="14.00" fill="lightgray">wa</text>
</g>
<!-- n9870&#45;&gt;n9872 -->
<g id="edge37" class="edge"><title>n9870&#45;&gt;n9872</title>
<path fill="none" stroke="lightgray" d="M51.2186,-212.641C70.6886,-205.632 98.7117,-195.544 120.426,-187.727"/>
<polygon fill="lightgray" stroke="lightgray" points="121.682,-190.994 129.906,-184.314 119.311,-184.408 121.682,-190.994"/>
<text text-anchor="middle" x="90.5" y="-209.8" font-family="Times New Roman,serif" font-size="14.00" fill="lightgray">wff ch</text>
</g>
<!-- n9871 -->
<g id="node32" class="node"><title>n9871</title>
<ellipse fill="none" stroke="lightgray" cx="27" cy="-149" rx="27" ry="18"/>
<text text-anchor="middle" x="27" y="-145.3" font-family="Times New Roman,serif" font-size="14.00" fill="lightgray">wps</text>
</g>
<!-- n9870&#45;&gt;n9871 -->
<g id="edge40" class="edge"><title>n9870&#45;&gt;n9871</title>
</g>
<!-- n9872&#45;&gt;n9873 -->
<g id="edge39" class="edge"><title>n9872&#45;&gt;n9873</title>
<path fill="none" stroke="lightgray" d="M180.895,-179.099C211.052,-182.707 261.038,-188.689 294.848,-192.734"/>
<polygon fill="lightgray" stroke="lightgray" points="294.437,-196.21 304.782,-193.923 295.268,-189.259 294.437,-196.21"/>
<text text-anchor="middle" x="240" y="-194.8" font-family="Times New Roman,serif" font-size="14.00" fill="lightgray">wff ( ps /\ ch )</text>
</g>
<!-- n9871&#45;&gt;n9872 -->
<g id="edge38" class="edge"><title>n9871&#45;&gt;n9872</title>
<path fill="none" stroke="lightgray" d="M52.9952,-154.399C71.6456,-158.427 97.3666,-163.983 118.053,-168.451"/>
<polygon fill="lightgray" stroke="lightgray" points="117.535,-171.92 128.048,-170.61 119.013,-165.078 117.535,-171.92"/>
<text text-anchor="middle" x="90.5" y="-170.8" font-family="Times New Roman,serif" font-size="14.00" fill="lightgray">wff ps</text>
</g>
<!-- n9873&#45;&gt;n9878 -->
<g id="edge41" class="edge"><title>n9873&#45;&gt;n9878</title>
<path fill="none" stroke="lightgray" d="M358.714,-198.855C404.612,-202.34 502.405,-210.817 583.994,-225 589.151,-225.896 594.547,-226.988 599.857,-228.153"/>
<polygon fill="lightgray" stroke="lightgray" points="599.344,-231.626 609.874,-230.453 600.91,-224.804 599.344,-231.626"/>
<text text-anchor="middle" x="482.994" y="-228.8" font-family="Times New Roman,serif" font-size="14.00" fill="lightgray">wff &#45;. ( ps /\ ch )</text>
</g>
<!-- n9874 -->
<g id="node34" class="node"><title>n9874</title>
<ellipse fill="none" stroke="lightgray" cx="331.497" cy="-125" rx="27" ry="18"/>
<text text-anchor="middle" x="331.497" y="-121.3" font-family="Times New Roman,serif" font-size="14.00" fill="lightgray">wph</text>
</g>
<!-- n9873&#45;&gt;n9874 -->
<g id="edge49" class="edge"><title>n9873&#45;&gt;n9874</title>
</g>
<!-- n9874&#45;&gt;n9878 -->
<g id="edge42" class="edge"><title>n9874&#45;&gt;n9878</title>
<path fill="none" stroke="lightgray" d="M358.471,-126.084C406.1,-129.071 509.366,-140.254 583.994,-182 597.929,-189.795 610.593,-202.229 620.218,-213.403"/>
<polygon fill="lightgray" stroke="lightgray" points="617.607,-215.737 626.665,-221.233 623.01,-211.288 617.607,-215.737"/>
<text text-anchor="middle" x="482.994" y="-185.8" font-family="Times New Roman,serif" font-size="14.00" fill="lightgray">wff ph</text>
</g>
<!-- n9877 -->
<g id="node36" class="node"><title>n9877</title>
<ellipse fill="cyan" stroke="black" cx="331.497" cy="-53" rx="32.4942" ry="18"/>
<text text-anchor="middle" x="331.497" y="-49.3" font-family="Times New Roman,serif" font-size="14.00">imnan</text>
</g>
<!-- n9874&#45;&gt;n9877 -->
<g id="edge50" class="edge"><title>n9874&#45;&gt;n9877</title>
</g>
<!-- n9875 -->
<g id="node35" class="node"><title>n9875</title>
<ellipse fill="none" stroke="lightgray" cx="154" cy="-90" rx="27" ry="18"/>
<text text-anchor="middle" x="154" y="-86.3" font-family="Times New Roman,serif" font-size="14.00" fill="lightgray">wps</text>
</g>
<!-- n9875&#45;&gt;n9877 -->
<g id="edge43" class="edge"><title>n9875&#45;&gt;n9877</title>
<path fill="none" stroke="lightgray" d="M180.144,-84.6988C209.004,-78.6143 256.717,-68.5551 290.649,-61.4011"/>
<polygon fill="lightgray" stroke="lightgray" points="291.639,-64.7695 300.702,-59.2818 290.195,-57.9201 291.639,-64.7695"/>
<text text-anchor="middle" x="240" y="-84.8" font-family="Times New Roman,serif" font-size="14.00" fill="lightgray">wff ps</text>
</g>
<!-- n9876 -->
<g id="node37" class="node"><title>n9876</title>
<ellipse fill="none" stroke="lightgray" cx="154" cy="-18" rx="27" ry="18"/>
<text text-anchor="middle" x="154" y="-14.3" font-family="Times New Roman,serif" font-size="14.00" fill="lightgray">wch</text>
</g>
<!-- n9875&#45;&gt;n9876 -->
<g id="edge46" class="edge"><title>n9875&#45;&gt;n9876</title>
</g>
<!-- n9877&#45;&gt;n9878 -->
<g id="edge45" class="edge"><title>n9877&#45;&gt;n9878</title>
<path fill="none" stroke="black" d="M364.279,-51.4945C416.252,-50.75 520.032,-56.6787 583.994,-110 614.413,-135.358 628.301,-180.702 634.357,-210.054"/>
<polygon fill="black" stroke="black" points="630.955,-210.9 636.25,-220.077 637.833,-209.601 630.955,-210.9"/>
<text text-anchor="middle" x="482.994" y="-113.8" font-family="Times New Roman,serif" font-size="14.00">|&#45; ( ( ps &#45;&gt; &#45;. ch ) &lt;&#45;&gt; &#45;. ( ps /\ ch ) )</text>
</g>
<!-- n9876&#45;&gt;n9877 -->
<g id="edge44" class="edge"><title>n9876&#45;&gt;n9877</title>
<path fill="none" stroke="lightgray" d="M180.144,-23.0146C209.004,-28.7703 256.717,-38.2857 290.649,-45.053"/>
<polygon fill="lightgray" stroke="lightgray" points="290.21,-48.5343 300.702,-47.0578 291.579,-41.6695 290.21,-48.5343"/>
<text text-anchor="middle" x="240" y="-46.8" font-family="Times New Roman,serif" font-size="14.00" fill="lightgray">wff ch</text>
</g>
</g>
</svg>
