<?xml version="1.0" encoding="UTF-8" standalone="no"?>
<!DOCTYPE svg PUBLIC "-//W3C//DTD SVG 1.1//EN"
 "http://www.w3.org/Graphics/SVG/1.1/DTD/svg11.dtd">
<!-- Generated by graphviz version 2.38.0 (20140413.2041)
 -->
<!-- Title: proof_nbbn Pages: 1 -->
<svg width="1040pt" height="840pt"
 viewBox="0.00 0.00 1039.98 840.00" xmlns="http://www.w3.org/2000/svg" xmlns:xlink="http://www.w3.org/1999/xlink">
<g id="graph0" class="graph" transform="scale(1 1) rotate(0) translate(4 836)">
<title>proof_nbbn</title>
<polygon fill="white" stroke="none" points="-4,4 -4,-836 1035.98,-836 1035.98,4 -4,4"/>
<!-- n6824 -->
<g id="node1" class="node"><title>n6824</title>
<ellipse fill="none" stroke="lightgray" cx="27" cy="-814" rx="27" ry="18"/>
<text text-anchor="middle" x="27" y="-810.3" font-family="Times New Roman,serif" font-size="14.00" fill="lightgray">wph</text>
</g>
<!-- n6826 -->
<g id="node2" class="node"><title>n6826</title>
<ellipse fill="none" stroke="lightgray" cx="154" cy="-774" rx="27" ry="18"/>
<text text-anchor="middle" x="154" y="-770.3" font-family="Times New Roman,serif" font-size="14.00" fill="lightgray">wb</text>
</g>
<!-- n6824&#45;&gt;n6826 -->
<g id="edge1" class="edge"><title>n6824&#45;&gt;n6826</title>
<path fill="none" stroke="lightgray" d="M51.8058,-806.382C71.0071,-800.238 98.2415,-791.523 119.621,-784.681"/>
<polygon fill="lightgray" stroke="lightgray" points="120.825,-787.971 129.283,-781.589 118.692,-781.304 120.825,-787.971"/>
<text text-anchor="middle" x="90.5" y="-803.8" font-family="Times New Roman,serif" font-size="14.00" fill="lightgray">wff ph</text>
</g>
<!-- n6825 -->
<g id="node3" class="node"><title>n6825</title>
<ellipse fill="none" stroke="lightgray" cx="27" cy="-742" rx="27" ry="18"/>
<text text-anchor="middle" x="27" y="-738.3" font-family="Times New Roman,serif" font-size="14.00" fill="lightgray">wps</text>
</g>
<!-- n6824&#45;&gt;n6825 -->
<g id="edge4" class="edge"><title>n6824&#45;&gt;n6825</title>
</g>
<!-- n6827 -->
<g id="node4" class="node"><title>n6827</title>
<ellipse fill="none" stroke="lightgray" cx="348.747" cy="-684" rx="27" ry="18"/>
<text text-anchor="middle" x="348.747" y="-680.3" font-family="Times New Roman,serif" font-size="14.00" fill="lightgray">wn</text>
</g>
<!-- n6826&#45;&gt;n6827 -->
<g id="edge3" class="edge"><title>n6826&#45;&gt;n6827</title>
<path fill="none" stroke="lightgray" d="M177.597,-764.905C205.515,-753.496 254.312,-732.997 295,-713 302.801,-709.166 311.102,-704.762 318.753,-700.563"/>
<polygon fill="lightgray" stroke="lightgray" points="320.649,-703.514 327.687,-695.595 317.247,-697.396 320.649,-703.514"/>
<text text-anchor="middle" x="247" y="-758.8" font-family="Times New Roman,serif" font-size="14.00" fill="lightgray">wff ( ph &lt;&#45;&gt; ps )</text>
</g>
<!-- n6825&#45;&gt;n6826 -->
<g id="edge2" class="edge"><title>n6825&#45;&gt;n6826</title>
<path fill="none" stroke="lightgray" d="M53.3168,-747.019C69.3609,-750.349 90.5012,-755.012 109,-760 112.432,-760.925 115.995,-761.95 119.542,-763.012"/>
<polygon fill="lightgray" stroke="lightgray" points="118.779,-766.44 129.366,-766.053 120.848,-759.753 118.779,-766.44"/>
<text text-anchor="middle" x="90.5" y="-763.8" font-family="Times New Roman,serif" font-size="14.00" fill="lightgray">wff ps</text>
</g>
<!-- n6850 -->
<g id="node5" class="node"><title>n6850</title>
<ellipse fill="cyan" stroke="black" cx="678.991" cy="-418" rx="32.4942" ry="18"/>
<text text-anchor="middle" x="678.991" y="-414.3" font-family="Times New Roman,serif" font-size="14.00">3bitrri</text>
</g>
<!-- n6827&#45;&gt;n6850 -->
<g id="edge5" class="edge"><title>n6827&#45;&gt;n6850</title>
<path fill="none" stroke="lightgray" d="M375.824,-686.173C430.675,-689.207 558.67,-687.966 628.494,-619 652.851,-594.942 668.368,-495.366 674.713,-446.001"/>
<polygon fill="lightgray" stroke="lightgray" points="678.196,-446.352 675.961,-435.995 671.25,-445.485 678.196,-446.352"/>
<text text-anchor="middle" x="515.494" y="-691.8" font-family="Times New Roman,serif" font-size="14.00" fill="lightgray">wff &#45;. ( ph &lt;&#45;&gt; ps )</text>
</g>
<!-- n6831 -->
<g id="node7" class="node"><title>n6831</title>
<ellipse fill="none" stroke="lightgray" cx="348.747" cy="-612" rx="27" ry="18"/>
<text text-anchor="middle" x="348.747" y="-608.3" font-family="Times New Roman,serif" font-size="14.00" fill="lightgray">wb</text>
</g>
<!-- n6827&#45;&gt;n6831 -->
<g id="edge35" class="edge"><title>n6827&#45;&gt;n6831</title>
</g>
<!-- QED -->
<g id="node28" class="node"><title>QED</title>
</g>
<!-- n6850&#45;&gt;QED -->
<g id="edge34" class="edge"><title>n6850&#45;&gt;QED</title>
<path fill="none" stroke="black" d="M711.721,-418C771.041,-418 898.547,-418 962.897,-418"/>
<polygon fill="black" stroke="black" points="963.034,-421.5 973.034,-418 963.034,-414.5 963.034,-421.5"/>
<text text-anchor="middle" x="842.488" y="-421.8" font-family="Times New Roman,serif" font-size="14.00">|&#45; ( ( &#45;. ph &lt;&#45;&gt; ps ) &lt;&#45;&gt; &#45;. ( ph &lt;&#45;&gt; ps ) )</text>
</g>
<!-- n6828 -->
<g id="node6" class="node"><title>n6828</title>
<ellipse fill="none" stroke="lightgray" cx="154" cy="-720" rx="27" ry="18"/>
<text text-anchor="middle" x="154" y="-716.3" font-family="Times New Roman,serif" font-size="14.00" fill="lightgray">wph</text>
</g>
<!-- n6828&#45;&gt;n6831 -->
<g id="edge6" class="edge"><title>n6828&#45;&gt;n6831</title>
<path fill="none" stroke="lightgray" d="M174.292,-707.558C181.832,-702.975 190.658,-697.944 199,-694 240.056,-674.588 256.018,-682.299 295,-659 306.237,-652.284 317.273,-642.998 326.322,-634.452"/>
<polygon fill="lightgray" stroke="lightgray" points="329.018,-636.712 333.718,-627.217 324.123,-631.708 329.018,-636.712"/>
<text text-anchor="middle" x="247" y="-697.8" font-family="Times New Roman,serif" font-size="14.00" fill="lightgray">wff ph</text>
</g>
<!-- n6830 -->
<g id="node9" class="node"><title>n6830</title>
<ellipse fill="none" stroke="lightgray" cx="154" cy="-648" rx="27" ry="18"/>
<text text-anchor="middle" x="154" y="-644.3" font-family="Times New Roman,serif" font-size="14.00" fill="lightgray">wn</text>
</g>
<!-- n6828&#45;&gt;n6830 -->
<g id="edge10" class="edge"><title>n6828&#45;&gt;n6830</title>
</g>
<!-- n6831&#45;&gt;n6850 -->
<g id="edge9" class="edge"><title>n6831&#45;&gt;n6850</title>
<path fill="none" stroke="lightgray" d="M374.766,-606.91C435.694,-594.098 589.619,-559.098 628.494,-525 652.084,-504.308 665.172,-470.024 671.875,-445.849"/>
<polygon fill="lightgray" stroke="lightgray" points="675.343,-446.414 674.445,-435.858 668.564,-444.671 675.343,-446.414"/>
<text text-anchor="middle" x="515.494" y="-603.8" font-family="Times New Roman,serif" font-size="14.00" fill="lightgray">wff ( ph &lt;&#45;&gt; &#45;. ps )</text>
</g>
<!-- n6835 -->
<g id="node11" class="node"><title>n6835</title>
<ellipse fill="none" stroke="lightgray" cx="348.747" cy="-522" rx="27" ry="18"/>
<text text-anchor="middle" x="348.747" y="-518.3" font-family="Times New Roman,serif" font-size="14.00" fill="lightgray">wb</text>
</g>
<!-- n6831&#45;&gt;n6835 -->
<g id="edge36" class="edge"><title>n6831&#45;&gt;n6835</title>
</g>
<!-- n6829 -->
<g id="node8" class="node"><title>n6829</title>
<ellipse fill="none" stroke="lightgray" cx="27" cy="-648" rx="27" ry="18"/>
<text text-anchor="middle" x="27" y="-644.3" font-family="Times New Roman,serif" font-size="14.00" fill="lightgray">wps</text>
</g>
<!-- n6829&#45;&gt;n6830 -->
<g id="edge7" class="edge"><title>n6829&#45;&gt;n6830</title>
<path fill="none" stroke="lightgray" d="M54.2041,-648C72.3711,-648 96.7994,-648 116.82,-648"/>
<polygon fill="lightgray" stroke="lightgray" points="116.83,-651.5 126.83,-648 116.83,-644.5 116.83,-651.5"/>
<text text-anchor="middle" x="90.5" y="-651.8" font-family="Times New Roman,serif" font-size="14.00" fill="lightgray">wff ps</text>
</g>
<!-- n6830&#45;&gt;n6831 -->
<g id="edge8" class="edge"><title>n6830&#45;&gt;n6831</title>
<path fill="none" stroke="lightgray" d="M180.198,-643.294C213.964,-636.987 274.065,-625.762 312.36,-618.609"/>
<polygon fill="lightgray" stroke="lightgray" points="313.355,-621.984 322.542,-616.708 312.07,-615.103 313.355,-621.984"/>
<text text-anchor="middle" x="247" y="-643.8" font-family="Times New Roman,serif" font-size="14.00" fill="lightgray">wff &#45;. ps</text>
</g>
<!-- n6832 -->
<g id="node10" class="node"><title>n6832</title>
<ellipse fill="none" stroke="lightgray" cx="154" cy="-594" rx="27" ry="18"/>
<text text-anchor="middle" x="154" y="-590.3" font-family="Times New Roman,serif" font-size="14.00" fill="lightgray">wps</text>
</g>
<!-- n6832&#45;&gt;n6835 -->
<g id="edge11" class="edge"><title>n6832&#45;&gt;n6835</title>
<path fill="none" stroke="lightgray" d="M177.867,-585.458C211.92,-572.738 276.118,-548.757 315.102,-534.194"/>
<polygon fill="lightgray" stroke="lightgray" points="316.766,-537.309 324.909,-530.531 314.317,-530.752 316.766,-537.309"/>
<text text-anchor="middle" x="247" y="-580.8" font-family="Times New Roman,serif" font-size="14.00" fill="lightgray">wff ps</text>
</g>
<!-- n6834 -->
<g id="node13" class="node"><title>n6834</title>
<ellipse fill="none" stroke="lightgray" cx="154" cy="-522" rx="27" ry="18"/>
<text text-anchor="middle" x="154" y="-518.3" font-family="Times New Roman,serif" font-size="14.00" fill="lightgray">wn</text>
</g>
<!-- n6832&#45;&gt;n6834 -->
<g id="edge15" class="edge"><title>n6832&#45;&gt;n6834</title>
</g>
<!-- n6835&#45;&gt;n6850 -->
<g id="edge14" class="edge"><title>n6835&#45;&gt;n6850</title>
<path fill="none" stroke="lightgray" d="M374.168,-515.181C422.879,-501.442 535.439,-469.003 628.494,-437 633.093,-435.418 637.903,-433.68 642.64,-431.917"/>
<polygon fill="lightgray" stroke="lightgray" points="644.06,-435.122 652.171,-428.306 641.58,-428.576 644.06,-435.122"/>
<text text-anchor="middle" x="515.494" y="-509.8" font-family="Times New Roman,serif" font-size="14.00" fill="lightgray">wff ( ps &lt;&#45;&gt; &#45;. ph )</text>
</g>
<!-- n6839 -->
<g id="node16" class="node"><title>n6839</title>
<ellipse fill="none" stroke="lightgray" cx="348.747" cy="-418" rx="27" ry="18"/>
<text text-anchor="middle" x="348.747" y="-414.3" font-family="Times New Roman,serif" font-size="14.00" fill="lightgray">wb</text>
</g>
<!-- n6835&#45;&gt;n6839 -->
<g id="edge37" class="edge"><title>n6835&#45;&gt;n6839</title>
</g>
<!-- n6833 -->
<g id="node12" class="node"><title>n6833</title>
<ellipse fill="none" stroke="lightgray" cx="27" cy="-522" rx="27" ry="18"/>
<text text-anchor="middle" x="27" y="-518.3" font-family="Times New Roman,serif" font-size="14.00" fill="lightgray">wph</text>
</g>
<!-- n6833&#45;&gt;n6834 -->
<g id="edge12" class="edge"><title>n6833&#45;&gt;n6834</title>
<path fill="none" stroke="lightgray" d="M54.2041,-522C72.3711,-522 96.7994,-522 116.82,-522"/>
<polygon fill="lightgray" stroke="lightgray" points="116.83,-525.5 126.83,-522 116.83,-518.5 116.83,-525.5"/>
<text text-anchor="middle" x="90.5" y="-525.8" font-family="Times New Roman,serif" font-size="14.00" fill="lightgray">wff ph</text>
</g>
<!-- n6834&#45;&gt;n6835 -->
<g id="edge13" class="edge"><title>n6834&#45;&gt;n6835</title>
<path fill="none" stroke="lightgray" d="M181.396,-522C215.135,-522 273.699,-522 311.573,-522"/>
<polygon fill="lightgray" stroke="lightgray" points="311.669,-525.5 321.669,-522 311.669,-518.5 311.669,-525.5"/>
<text text-anchor="middle" x="247" y="-525.8" font-family="Times New Roman,serif" font-size="14.00" fill="lightgray">wff &#45;. ph</text>
</g>
<!-- n6836 -->
<g id="node14" class="node"><title>n6836</title>
<ellipse fill="none" stroke="lightgray" cx="27" cy="-468" rx="27" ry="18"/>
<text text-anchor="middle" x="27" y="-464.3" font-family="Times New Roman,serif" font-size="14.00" fill="lightgray">wph</text>
</g>
<!-- n6837 -->
<g id="node15" class="node"><title>n6837</title>
<ellipse fill="none" stroke="lightgray" cx="154" cy="-468" rx="27" ry="18"/>
<text text-anchor="middle" x="154" y="-464.3" font-family="Times New Roman,serif" font-size="14.00" fill="lightgray">wn</text>
</g>
<!-- n6836&#45;&gt;n6837 -->
<g id="edge16" class="edge"><title>n6836&#45;&gt;n6837</title>
<path fill="none" stroke="lightgray" d="M54.2041,-468C72.3711,-468 96.7994,-468 116.82,-468"/>
<polygon fill="lightgray" stroke="lightgray" points="116.83,-471.5 126.83,-468 116.83,-464.5 116.83,-471.5"/>
<text text-anchor="middle" x="90.5" y="-471.8" font-family="Times New Roman,serif" font-size="14.00" fill="lightgray">wff ph</text>
</g>
<!-- n6837&#45;&gt;n6839 -->
<g id="edge17" class="edge"><title>n6837&#45;&gt;n6839</title>
<path fill="none" stroke="lightgray" d="M179.412,-461.667C213.353,-452.863 274.961,-436.881 313.49,-426.886"/>
<polygon fill="lightgray" stroke="lightgray" points="314.429,-430.259 323.23,-424.36 312.671,-423.483 314.429,-430.259"/>
<text text-anchor="middle" x="247" y="-459.8" font-family="Times New Roman,serif" font-size="14.00" fill="lightgray">wff &#45;. ph</text>
</g>
<!-- n6838 -->
<g id="node17" class="node"><title>n6838</title>
<ellipse fill="none" stroke="lightgray" cx="154" cy="-396" rx="27" ry="18"/>
<text text-anchor="middle" x="154" y="-392.3" font-family="Times New Roman,serif" font-size="14.00" fill="lightgray">wps</text>
</g>
<!-- n6837&#45;&gt;n6838 -->
<g id="edge20" class="edge"><title>n6837&#45;&gt;n6838</title>
</g>
<!-- n6839&#45;&gt;n6850 -->
<g id="edge19" class="edge"><title>n6839&#45;&gt;n6850</title>
<path fill="none" stroke="lightgray" d="M375.778,-418C432.46,-418 567.468,-418 636.216,-418"/>
<polygon fill="lightgray" stroke="lightgray" points="636.261,-421.5 646.261,-418 636.261,-414.5 636.261,-421.5"/>
<text text-anchor="middle" x="515.494" y="-421.8" font-family="Times New Roman,serif" font-size="14.00" fill="lightgray">wff ( &#45;. ph &lt;&#45;&gt; ps )</text>
</g>
<!-- n6842 -->
<g id="node19" class="node"><title>n6842</title>
<ellipse fill="cyan" stroke="black" cx="348.747" cy="-342" rx="27.0966" ry="18"/>
<text text-anchor="middle" x="348.747" y="-338.3" font-family="Times New Roman,serif" font-size="14.00">xor3</text>
</g>
<!-- n6839&#45;&gt;n6842 -->
<g id="edge38" class="edge"><title>n6839&#45;&gt;n6842</title>
</g>
<!-- n6838&#45;&gt;n6839 -->
<g id="edge18" class="edge"><title>n6838&#45;&gt;n6839</title>
<path fill="none" stroke="lightgray" d="M180.995,-398.967C214.714,-402.816 273.708,-409.549 311.728,-413.889"/>
<polygon fill="lightgray" stroke="lightgray" points="311.524,-417.388 321.857,-415.045 312.318,-410.433 311.524,-417.388"/>
<text text-anchor="middle" x="247" y="-415.8" font-family="Times New Roman,serif" font-size="14.00" fill="lightgray">wff ps</text>
</g>
<!-- n6840 -->
<g id="node18" class="node"><title>n6840</title>
<ellipse fill="none" stroke="lightgray" cx="154" cy="-342" rx="27" ry="18"/>
<text text-anchor="middle" x="154" y="-338.3" font-family="Times New Roman,serif" font-size="14.00" fill="lightgray">wph</text>
</g>
<!-- n6840&#45;&gt;n6842 -->
<g id="edge21" class="edge"><title>n6840&#45;&gt;n6842</title>
<path fill="none" stroke="lightgray" d="M181.396,-342C215.041,-342 273.372,-342 311.255,-342"/>
<polygon fill="lightgray" stroke="lightgray" points="311.361,-345.5 321.361,-342 311.361,-338.5 311.361,-345.5"/>
<text text-anchor="middle" x="247" y="-345.8" font-family="Times New Roman,serif" font-size="14.00" fill="lightgray">wff ph</text>
</g>
<!-- n6841 -->
<g id="node20" class="node"><title>n6841</title>
<ellipse fill="none" stroke="lightgray" cx="154" cy="-270" rx="27" ry="18"/>
<text text-anchor="middle" x="154" y="-266.3" font-family="Times New Roman,serif" font-size="14.00" fill="lightgray">wps</text>
</g>
<!-- n6840&#45;&gt;n6841 -->
<g id="edge24" class="edge"><title>n6840&#45;&gt;n6841</title>
</g>
<!-- n6842&#45;&gt;n6850 -->
<g id="edge23" class="edge"><title>n6842&#45;&gt;n6850</title>
<path fill="none" stroke="black" d="M375.456,-345.802C425.021,-353.45 536.983,-372.278 628.494,-399 633.215,-400.379 638.122,-402.01 642.932,-403.728"/>
<polygon fill="black" stroke="black" points="641.983,-407.109 652.576,-407.323 644.428,-400.55 641.983,-407.109"/>
<text text-anchor="middle" x="515.494" y="-402.8" font-family="Times New Roman,serif" font-size="14.00">|&#45; ( &#45;. ( ph &lt;&#45;&gt; ps ) &lt;&#45;&gt; ( ph &lt;&#45;&gt; &#45;. ps ) )</text>
</g>
<!-- n6845 -->
<g id="node22" class="node"><title>n6845</title>
<ellipse fill="cyan" stroke="black" cx="348.747" cy="-216" rx="35.9954" ry="18"/>
<text text-anchor="middle" x="348.747" y="-212.3" font-family="Times New Roman,serif" font-size="14.00">con2bi</text>
</g>
<!-- n6842&#45;&gt;n6845 -->
<g id="edge39" class="edge"><title>n6842&#45;&gt;n6845</title>
</g>
<!-- n6841&#45;&gt;n6842 -->
<g id="edge22" class="edge"><title>n6841&#45;&gt;n6842</title>
<path fill="none" stroke="lightgray" d="M177.867,-278.542C211.829,-291.228 275.773,-315.114 314.787,-329.688"/>
<polygon fill="lightgray" stroke="lightgray" points="314.017,-333.136 324.609,-333.357 316.466,-326.579 314.017,-333.136"/>
<text text-anchor="middle" x="247" y="-324.8" font-family="Times New Roman,serif" font-size="14.00" fill="lightgray">wff ps</text>
</g>
<!-- n6843 -->
<g id="node21" class="node"><title>n6843</title>
<ellipse fill="none" stroke="lightgray" cx="154" cy="-216" rx="27" ry="18"/>
<text text-anchor="middle" x="154" y="-212.3" font-family="Times New Roman,serif" font-size="14.00" fill="lightgray">wph</text>
</g>
<!-- n6843&#45;&gt;n6845 -->
<g id="edge25" class="edge"><title>n6843&#45;&gt;n6845</title>
<path fill="none" stroke="lightgray" d="M181.396,-216C212.591,-216 265.007,-216 302.67,-216"/>
<polygon fill="lightgray" stroke="lightgray" points="302.872,-219.5 312.872,-216 302.872,-212.5 302.872,-219.5"/>
<text text-anchor="middle" x="247" y="-219.8" font-family="Times New Roman,serif" font-size="14.00" fill="lightgray">wff ph</text>
</g>
<!-- n6844 -->
<g id="node23" class="node"><title>n6844</title>
<ellipse fill="none" stroke="lightgray" cx="154" cy="-144" rx="27" ry="18"/>
<text text-anchor="middle" x="154" y="-140.3" font-family="Times New Roman,serif" font-size="14.00" fill="lightgray">wps</text>
</g>
<!-- n6843&#45;&gt;n6844 -->
<g id="edge28" class="edge"><title>n6843&#45;&gt;n6844</title>
</g>
<!-- n6845&#45;&gt;n6850 -->
<g id="edge27" class="edge"><title>n6845&#45;&gt;n6850</title>
<path fill="none" stroke="black" d="M382.639,-222.429C438.856,-234.864 554.502,-266.915 628.494,-332 646.585,-347.914 659.682,-372.109 667.843,-390.786"/>
<polygon fill="black" stroke="black" points="664.7,-392.346 671.765,-400.242 671.166,-389.664 664.7,-392.346"/>
<text text-anchor="middle" x="515.494" y="-335.8" font-family="Times New Roman,serif" font-size="14.00">|&#45; ( ( ph &lt;&#45;&gt; &#45;. ps ) &lt;&#45;&gt; ( ps &lt;&#45;&gt; &#45;. ph ) )</text>
</g>
<!-- n6849 -->
<g id="node25" class="node"><title>n6849</title>
<ellipse fill="cyan" stroke="black" cx="348.747" cy="-126" rx="33.5952" ry="18"/>
<text text-anchor="middle" x="348.747" y="-122.3" font-family="Times New Roman,serif" font-size="14.00">bicom</text>
</g>
<!-- n6845&#45;&gt;n6849 -->
<g id="edge40" class="edge"><title>n6845&#45;&gt;n6849</title>
</g>
<!-- n6844&#45;&gt;n6845 -->
<g id="edge26" class="edge"><title>n6844&#45;&gt;n6845</title>
<path fill="none" stroke="lightgray" d="M177.867,-152.542C210.502,-164.733 270.824,-187.266 310.105,-201.939"/>
<polygon fill="lightgray" stroke="lightgray" points="309.016,-205.268 319.609,-205.489 311.466,-198.711 309.016,-205.268"/>
<text text-anchor="middle" x="247" y="-198.8" font-family="Times New Roman,serif" font-size="14.00" fill="lightgray">wff ps</text>
</g>
<!-- n6846 -->
<g id="node24" class="node"><title>n6846</title>
<ellipse fill="none" stroke="lightgray" cx="154" cy="-90" rx="27" ry="18"/>
<text text-anchor="middle" x="154" y="-86.3" font-family="Times New Roman,serif" font-size="14.00" fill="lightgray">wps</text>
</g>
<!-- n6846&#45;&gt;n6849 -->
<g id="edge29" class="edge"><title>n6846&#45;&gt;n6849</title>
<path fill="none" stroke="lightgray" d="M180.198,-94.7064C212.191,-100.682 267.829,-111.073 306.157,-118.232"/>
<polygon fill="lightgray" stroke="lightgray" points="306.001,-121.763 316.474,-120.159 307.287,-114.882 306.001,-121.763"/>
<text text-anchor="middle" x="247" y="-119.8" font-family="Times New Roman,serif" font-size="14.00" fill="lightgray">wff ps</text>
</g>
<!-- n6848 -->
<g id="node27" class="node"><title>n6848</title>
<ellipse fill="none" stroke="lightgray" cx="154" cy="-18" rx="27" ry="18"/>
<text text-anchor="middle" x="154" y="-14.3" font-family="Times New Roman,serif" font-size="14.00" fill="lightgray">wn</text>
</g>
<!-- n6846&#45;&gt;n6848 -->
<g id="edge33" class="edge"><title>n6846&#45;&gt;n6848</title>
</g>
<!-- n6849&#45;&gt;n6850 -->
<g id="edge32" class="edge"><title>n6849&#45;&gt;n6850</title>
<path fill="none" stroke="black" d="M382.642,-125.937C440.984,-127.697 562.624,-140.119 628.494,-210 652.858,-235.848 668.457,-339.302 674.779,-389.877"/>
<polygon fill="black" stroke="black" points="671.307,-390.315 675.987,-399.82 678.256,-389.471 671.307,-390.315"/>
<text text-anchor="middle" x="515.494" y="-213.8" font-family="Times New Roman,serif" font-size="14.00">|&#45; ( ( ps &lt;&#45;&gt; &#45;. ph ) &lt;&#45;&gt; ( &#45;. ph &lt;&#45;&gt; ps ) )</text>
</g>
<!-- n6847 -->
<g id="node26" class="node"><title>n6847</title>
<ellipse fill="none" stroke="lightgray" cx="27" cy="-18" rx="27" ry="18"/>
<text text-anchor="middle" x="27" y="-14.3" font-family="Times New Roman,serif" font-size="14.00" fill="lightgray">wph</text>
</g>
<!-- n6847&#45;&gt;n6848 -->
<g id="edge30" class="edge"><title>n6847&#45;&gt;n6848</title>
<path fill="none" stroke="lightgray" d="M54.2041,-18C72.3711,-18 96.7994,-18 116.82,-18"/>
<polygon fill="lightgray" stroke="lightgray" points="116.83,-21.5001 126.83,-18 116.83,-14.5001 116.83,-21.5001"/>
<text text-anchor="middle" x="90.5" y="-21.8" font-family="Times New Roman,serif" font-size="14.00" fill="lightgray">wff ph</text>
</g>
<!-- n6848&#45;&gt;n6849 -->
<g id="edge31" class="edge"><title>n6848&#45;&gt;n6849</title>
<path fill="none" stroke="lightgray" d="M178.373,-25.8913C207.073,-36.123 256.658,-55.584 295,-80 305.358,-86.5959 315.758,-95.153 324.553,-103.095"/>
<polygon fill="lightgray" stroke="lightgray" points="322.425,-105.895 332.131,-110.142 327.191,-100.769 322.425,-105.895"/>
<text text-anchor="middle" x="247" y="-83.8" font-family="Times New Roman,serif" font-size="14.00" fill="lightgray">wff &#45;. ph</text>
</g>
</g>
</svg>
