<?xml version="1.0" encoding="UTF-8" standalone="no"?>
<!DOCTYPE svg PUBLIC "-//W3C//DTD SVG 1.1//EN"
 "http://www.w3.org/Graphics/SVG/1.1/DTD/svg11.dtd">
<!-- Generated by graphviz version 2.38.0 (20140413.2041)
 -->
<!-- Title: proof_nbi2 Pages: 1 -->
<svg width="1340pt" height="593pt"
 viewBox="0.00 0.00 1339.68 593.00" xmlns="http://www.w3.org/2000/svg" xmlns:xlink="http://www.w3.org/1999/xlink">
<g id="graph0" class="graph" transform="scale(1 1) rotate(0) translate(4 589)">
<title>proof_nbi2</title>
<polygon fill="white" stroke="none" points="-4,4 -4,-589 1335.68,-589 1335.68,4 -4,4"/>
<!-- n15785 -->
<g id="node1" class="node"><title>n15785</title>
<ellipse fill="none" stroke="lightgray" cx="154" cy="-567" rx="27" ry="18"/>
<text text-anchor="middle" x="154" y="-563.3" font-family="Times New Roman,serif" font-size="14.00" fill="lightgray">wph</text>
</g>
<!-- n15787 -->
<g id="node2" class="node"><title>n15787</title>
<ellipse fill="none" stroke="lightgray" cx="323" cy="-522" rx="27" ry="18"/>
<text text-anchor="middle" x="323" y="-518.3" font-family="Times New Roman,serif" font-size="14.00" fill="lightgray">wb</text>
</g>
<!-- n15785&#45;&gt;n15787 -->
<g id="edge1" class="edge"><title>n15785&#45;&gt;n15787</title>
<path fill="none" stroke="lightgray" d="M179.283,-560.457C207.853,-552.758 255.479,-539.925 287.782,-531.221"/>
<polygon fill="lightgray" stroke="lightgray" points="288.943,-534.533 297.687,-528.551 287.121,-527.774 288.943,-534.533"/>
<text text-anchor="middle" x="238.5" y="-557.8" font-family="Times New Roman,serif" font-size="14.00" fill="lightgray">wff ph</text>
</g>
<!-- n15786 -->
<g id="node3" class="node"><title>n15786</title>
<ellipse fill="none" stroke="lightgray" cx="154" cy="-495" rx="27" ry="18"/>
<text text-anchor="middle" x="154" y="-491.3" font-family="Times New Roman,serif" font-size="14.00" fill="lightgray">wps</text>
</g>
<!-- n15785&#45;&gt;n15786 -->
<g id="edge4" class="edge"><title>n15785&#45;&gt;n15786</title>
</g>
<!-- n15788 -->
<g id="node4" class="node"><title>n15788</title>
<ellipse fill="none" stroke="lightgray" cx="520.347" cy="-448" rx="27" ry="18"/>
<text text-anchor="middle" x="520.347" y="-444.3" font-family="Times New Roman,serif" font-size="14.00" fill="lightgray">wn</text>
</g>
<!-- n15787&#45;&gt;n15788 -->
<g id="edge3" class="edge"><title>n15787&#45;&gt;n15788</title>
<path fill="none" stroke="lightgray" d="M346.791,-513.366C381.399,-500.257 447.352,-475.273 486.938,-460.277"/>
<polygon fill="lightgray" stroke="lightgray" points="488.287,-463.509 496.399,-456.693 485.807,-456.962 488.287,-463.509"/>
<text text-anchor="middle" x="416" y="-508.8" font-family="Times New Roman,serif" font-size="14.00" fill="lightgray">wff ( ph &lt;&#45;&gt; ps )</text>
</g>
<!-- n15786&#45;&gt;n15787 -->
<g id="edge2" class="edge"><title>n15786&#45;&gt;n15787</title>
<path fill="none" stroke="lightgray" d="M180.364,-499.101C208.646,-503.673 254.594,-511.102 286.453,-516.253"/>
<polygon fill="lightgray" stroke="lightgray" points="286.241,-519.764 296.672,-517.905 287.359,-512.854 286.241,-519.764"/>
<text text-anchor="middle" x="238.5" y="-518.8" font-family="Times New Roman,serif" font-size="14.00" fill="lightgray">wff ps</text>
</g>
<!-- n15807 -->
<g id="node5" class="node"><title>n15807</title>
<ellipse fill="cyan" stroke="black" cx="915.941" cy="-292" rx="29.4969" ry="18"/>
<text text-anchor="middle" x="915.941" y="-288.3" font-family="Times New Roman,serif" font-size="14.00">bitr4i</text>
</g>
<!-- n15788&#45;&gt;n15807 -->
<g id="edge5" class="edge"><title>n15788&#45;&gt;n15807</title>
<path fill="none" stroke="lightgray" d="M547.095,-450.972C609.223,-456.712 769.531,-462.83 868.693,-388 890.62,-371.454 902.669,-341.805 908.923,-319.82"/>
<polygon fill="lightgray" stroke="lightgray" points="912.338,-320.594 911.474,-310.034 905.565,-318.828 912.338,-320.594"/>
<text text-anchor="middle" x="722.693" y="-458.8" font-family="Times New Roman,serif" font-size="14.00" fill="lightgray">wff &#45;. ( ph &lt;&#45;&gt; ps )</text>
</g>
<!-- n15792 -->
<g id="node7" class="node"><title>n15792</title>
<ellipse fill="none" stroke="lightgray" cx="520.347" cy="-376" rx="27" ry="18"/>
<text text-anchor="middle" x="520.347" y="-372.3" font-family="Times New Roman,serif" font-size="14.00" fill="lightgray">wb</text>
</g>
<!-- n15788&#45;&gt;n15792 -->
<g id="edge31" class="edge"><title>n15788&#45;&gt;n15792</title>
</g>
<!-- QED -->
<g id="node24" class="node"><title>QED</title>
</g>
<!-- n15807&#45;&gt;QED -->
<g id="edge30" class="edge"><title>n15807&#45;&gt;QED</title>
<path fill="none" stroke="black" d="M945.213,-292C1013.12,-292 1185.52,-292 1262.86,-292"/>
<polygon fill="black" stroke="black" points="1263.12,-295.5 1273.12,-292 1263.12,-288.5 1263.12,-295.5"/>
<text text-anchor="middle" x="1109.19" y="-295.8" font-family="Times New Roman,serif" font-size="14.00">|&#45; ( &#45;. ( ph &lt;&#45;&gt; ps ) &lt;&#45;&gt; ( ( ph / ps ) / &#45;. ( ph / ps ) ) )</text>
</g>
<!-- n15789 -->
<g id="node6" class="node"><title>n15789</title>
<ellipse fill="none" stroke="lightgray" cx="323" cy="-468" rx="27" ry="18"/>
<text text-anchor="middle" x="323" y="-464.3" font-family="Times New Roman,serif" font-size="14.00" fill="lightgray">wph</text>
</g>
<!-- n15789&#45;&gt;n15792 -->
<g id="edge6" class="edge"><title>n15789&#45;&gt;n15792</title>
<path fill="none" stroke="lightgray" d="M346.652,-459.033C383.418,-444.441 453.091,-416.614 464,-411 473.629,-406.045 483.754,-399.932 492.674,-394.209"/>
<polygon fill="lightgray" stroke="lightgray" points="494.68,-397.079 501.129,-388.672 490.845,-391.222 494.68,-397.079"/>
<text text-anchor="middle" x="416" y="-454.8" font-family="Times New Roman,serif" font-size="14.00" fill="lightgray">wff ph</text>
</g>
<!-- n15791 -->
<g id="node9" class="node"><title>n15791</title>
<ellipse fill="none" stroke="lightgray" cx="323" cy="-396" rx="27" ry="18"/>
<text text-anchor="middle" x="323" y="-392.3" font-family="Times New Roman,serif" font-size="14.00" fill="lightgray">wn</text>
</g>
<!-- n15789&#45;&gt;n15791 -->
<g id="edge10" class="edge"><title>n15789&#45;&gt;n15791</title>
</g>
<!-- n15792&#45;&gt;n15807 -->
<g id="edge9" class="edge"><title>n15792&#45;&gt;n15807</title>
<path fill="none" stroke="lightgray" d="M547.046,-373.023C605.21,-365.889 751.026,-345.781 868.693,-311 873.121,-309.691 877.705,-308.106 882.189,-306.416"/>
<polygon fill="lightgray" stroke="lightgray" points="883.749,-309.563 891.748,-302.615 881.162,-303.058 883.749,-309.563"/>
<text text-anchor="middle" x="722.693" y="-372.8" font-family="Times New Roman,serif" font-size="14.00" fill="lightgray">wff ( ph &lt;&#45;&gt; &#45;. ps )</text>
</g>
<!-- n15800 -->
<g id="node13" class="node"><title>n15800</title>
<ellipse fill="none" stroke="lightgray" cx="520.347" cy="-292" rx="27" ry="18"/>
<text text-anchor="middle" x="520.347" y="-288.3" font-family="Times New Roman,serif" font-size="14.00" fill="lightgray">wa</text>
</g>
<!-- n15792&#45;&gt;n15800 -->
<g id="edge32" class="edge"><title>n15792&#45;&gt;n15800</title>
</g>
<!-- n15790 -->
<g id="node8" class="node"><title>n15790</title>
<ellipse fill="none" stroke="lightgray" cx="154" cy="-424" rx="27" ry="18"/>
<text text-anchor="middle" x="154" y="-420.3" font-family="Times New Roman,serif" font-size="14.00" fill="lightgray">wps</text>
</g>
<!-- n15790&#45;&gt;n15791 -->
<g id="edge7" class="edge"><title>n15790&#45;&gt;n15791</title>
<path fill="none" stroke="lightgray" d="M180.364,-419.747C208.646,-415.005 254.594,-407.302 286.453,-401.96"/>
<polygon fill="lightgray" stroke="lightgray" points="287.388,-405.352 296.672,-400.247 286.231,-398.448 287.388,-405.352"/>
<text text-anchor="middle" x="238.5" y="-420.8" font-family="Times New Roman,serif" font-size="14.00" fill="lightgray">wff ps</text>
</g>
<!-- n15791&#45;&gt;n15792 -->
<g id="edge8" class="edge"><title>n15791&#45;&gt;n15792</title>
<path fill="none" stroke="lightgray" d="M349.941,-393.344C384.187,-389.838 444.656,-383.647 483.322,-379.688"/>
<polygon fill="lightgray" stroke="lightgray" points="484.018,-383.135 493.61,-378.635 483.305,-376.172 484.018,-383.135"/>
<text text-anchor="middle" x="416" y="-395.8" font-family="Times New Roman,serif" font-size="14.00" fill="lightgray">wff &#45;. ps</text>
</g>
<!-- n15793 -->
<g id="node10" class="node"><title>n15793</title>
<ellipse fill="none" stroke="lightgray" cx="154" cy="-370" rx="27" ry="18"/>
<text text-anchor="middle" x="154" y="-366.3" font-family="Times New Roman,serif" font-size="14.00" fill="lightgray">wph</text>
</g>
<!-- n15795 -->
<g id="node11" class="node"><title>n15795</title>
<ellipse fill="none" stroke="lightgray" cx="323" cy="-342" rx="27" ry="18"/>
<text text-anchor="middle" x="323" y="-338.3" font-family="Times New Roman,serif" font-size="14.00" fill="lightgray">wo</text>
</g>
<!-- n15793&#45;&gt;n15795 -->
<g id="edge11" class="edge"><title>n15793&#45;&gt;n15795</title>
<path fill="none" stroke="lightgray" d="M180.364,-365.747C208.646,-361.005 254.594,-353.302 286.453,-347.96"/>
<polygon fill="lightgray" stroke="lightgray" points="287.388,-351.352 296.672,-346.247 286.231,-344.448 287.388,-351.352"/>
<text text-anchor="middle" x="238.5" y="-366.8" font-family="Times New Roman,serif" font-size="14.00" fill="lightgray">wff ph</text>
</g>
<!-- n15794 -->
<g id="node12" class="node"><title>n15794</title>
<ellipse fill="none" stroke="lightgray" cx="154" cy="-298" rx="27" ry="18"/>
<text text-anchor="middle" x="154" y="-294.3" font-family="Times New Roman,serif" font-size="14.00" fill="lightgray">wps</text>
</g>
<!-- n15793&#45;&gt;n15794 -->
<g id="edge14" class="edge"><title>n15793&#45;&gt;n15794</title>
</g>
<!-- n15795&#45;&gt;n15800 -->
<g id="edge13" class="edge"><title>n15795&#45;&gt;n15800</title>
<path fill="none" stroke="lightgray" d="M348.346,-335.769C382.803,-326.949 445.951,-310.786 485.115,-300.762"/>
<polygon fill="lightgray" stroke="lightgray" points="486.182,-304.102 495.002,-298.231 484.446,-297.32 486.182,-304.102"/>
<text text-anchor="middle" x="416" y="-333.8" font-family="Times New Roman,serif" font-size="14.00" fill="lightgray">wff ( ph / ps )</text>
</g>
<!-- n15799 -->
<g id="node17" class="node"><title>n15799</title>
<ellipse fill="none" stroke="lightgray" cx="323" cy="-270" rx="27" ry="18"/>
<text text-anchor="middle" x="323" y="-266.3" font-family="Times New Roman,serif" font-size="14.00" fill="lightgray">wn</text>
</g>
<!-- n15795&#45;&gt;n15799 -->
<g id="edge21" class="edge"><title>n15795&#45;&gt;n15799</title>
</g>
<!-- n15794&#45;&gt;n15795 -->
<g id="edge12" class="edge"><title>n15794&#45;&gt;n15795</title>
<path fill="none" stroke="lightgray" d="M179.283,-304.398C207.853,-311.925 255.479,-324.474 287.782,-332.984"/>
<polygon fill="lightgray" stroke="lightgray" points="287.126,-336.431 297.687,-335.594 288.909,-329.662 287.126,-336.431"/>
<text text-anchor="middle" x="238.5" y="-334.8" font-family="Times New Roman,serif" font-size="14.00" fill="lightgray">wff ps</text>
</g>
<!-- n15800&#45;&gt;n15807 -->
<g id="edge20" class="edge"><title>n15800&#45;&gt;n15807</title>
<path fill="none" stroke="lightgray" d="M547.476,-292C615.175,-292 796.535,-292 876.343,-292"/>
<polygon fill="lightgray" stroke="lightgray" points="876.459,-295.5 886.459,-292 876.459,-288.5 876.459,-295.5"/>
<text text-anchor="middle" x="722.693" y="-295.8" font-family="Times New Roman,serif" font-size="14.00" fill="lightgray">wff ( ( ph / ps ) / &#45;. ( ph / ps ) )</text>
</g>
<!-- n15803 -->
<g id="node19" class="node"><title>n15803</title>
<ellipse fill="cyan" stroke="black" cx="520.347" cy="-216" rx="27.0966" ry="18"/>
<text text-anchor="middle" x="520.347" y="-212.3" font-family="Times New Roman,serif" font-size="14.00">xor3</text>
</g>
<!-- n15800&#45;&gt;n15803 -->
<g id="edge33" class="edge"><title>n15800&#45;&gt;n15803</title>
</g>
<!-- n15796 -->
<g id="node14" class="node"><title>n15796</title>
<ellipse fill="none" stroke="lightgray" cx="27" cy="-289" rx="27" ry="18"/>
<text text-anchor="middle" x="27" y="-285.3" font-family="Times New Roman,serif" font-size="14.00" fill="lightgray">wph</text>
</g>
<!-- n15798 -->
<g id="node15" class="node"><title>n15798</title>
<ellipse fill="none" stroke="lightgray" cx="154" cy="-244" rx="27" ry="18"/>
<text text-anchor="middle" x="154" y="-240.3" font-family="Times New Roman,serif" font-size="14.00" fill="lightgray">wa</text>
</g>
<!-- n15796&#45;&gt;n15798 -->
<g id="edge15" class="edge"><title>n15796&#45;&gt;n15798</title>
<path fill="none" stroke="lightgray" d="M51.2186,-280.641C70.6886,-273.632 98.7117,-263.544 120.426,-255.727"/>
<polygon fill="lightgray" stroke="lightgray" points="121.682,-258.994 129.906,-252.314 119.311,-252.408 121.682,-258.994"/>
<text text-anchor="middle" x="90.5" y="-277.8" font-family="Times New Roman,serif" font-size="14.00" fill="lightgray">wff ph</text>
</g>
<!-- n15797 -->
<g id="node16" class="node"><title>n15797</title>
<ellipse fill="none" stroke="lightgray" cx="27" cy="-217" rx="27" ry="18"/>
<text text-anchor="middle" x="27" y="-213.3" font-family="Times New Roman,serif" font-size="14.00" fill="lightgray">wps</text>
</g>
<!-- n15796&#45;&gt;n15797 -->
<g id="edge18" class="edge"><title>n15796&#45;&gt;n15797</title>
</g>
<!-- n15798&#45;&gt;n15799 -->
<g id="edge17" class="edge"><title>n15798&#45;&gt;n15799</title>
<path fill="none" stroke="lightgray" d="M180.364,-247.949C208.564,-252.339 254.328,-259.464 286.176,-264.423"/>
<polygon fill="lightgray" stroke="lightgray" points="285.978,-267.934 296.398,-266.014 287.055,-261.017 285.978,-267.934"/>
<text text-anchor="middle" x="238.5" y="-267.8" font-family="Times New Roman,serif" font-size="14.00" fill="lightgray">wff ( ph / ps )</text>
</g>
<!-- n15797&#45;&gt;n15798 -->
<g id="edge16" class="edge"><title>n15797&#45;&gt;n15798</title>
<path fill="none" stroke="lightgray" d="M52.9952,-222.399C71.6456,-226.427 97.3666,-231.983 118.053,-236.451"/>
<polygon fill="lightgray" stroke="lightgray" points="117.535,-239.92 128.048,-238.61 119.013,-233.078 117.535,-239.92"/>
<text text-anchor="middle" x="90.5" y="-238.8" font-family="Times New Roman,serif" font-size="14.00" fill="lightgray">wff ps</text>
</g>
<!-- n15799&#45;&gt;n15800 -->
<g id="edge19" class="edge"><title>n15799&#45;&gt;n15800</title>
<path fill="none" stroke="lightgray" d="M349.941,-272.921C384.187,-276.778 444.656,-283.588 483.322,-287.943"/>
<polygon fill="lightgray" stroke="lightgray" points="483.281,-291.46 493.61,-289.102 484.064,-284.504 483.281,-291.46"/>
<text text-anchor="middle" x="416" y="-289.8" font-family="Times New Roman,serif" font-size="14.00" fill="lightgray">wff &#45;. ( ph / ps )</text>
</g>
<!-- n15801 -->
<g id="node18" class="node"><title>n15801</title>
<ellipse fill="none" stroke="lightgray" cx="323" cy="-216" rx="27" ry="18"/>
<text text-anchor="middle" x="323" y="-212.3" font-family="Times New Roman,serif" font-size="14.00" fill="lightgray">wph</text>
</g>
<!-- n15801&#45;&gt;n15803 -->
<g id="edge22" class="edge"><title>n15801&#45;&gt;n15803</title>
<path fill="none" stroke="lightgray" d="M350.345,-216C384.425,-216 443.976,-216 482.519,-216"/>
<polygon fill="lightgray" stroke="lightgray" points="482.795,-219.5 492.795,-216 482.795,-212.5 482.795,-219.5"/>
<text text-anchor="middle" x="416" y="-219.8" font-family="Times New Roman,serif" font-size="14.00" fill="lightgray">wff ph</text>
</g>
<!-- n15802 -->
<g id="node20" class="node"><title>n15802</title>
<ellipse fill="none" stroke="lightgray" cx="323" cy="-144" rx="27" ry="18"/>
<text text-anchor="middle" x="323" y="-140.3" font-family="Times New Roman,serif" font-size="14.00" fill="lightgray">wps</text>
</g>
<!-- n15801&#45;&gt;n15802 -->
<g id="edge25" class="edge"><title>n15801&#45;&gt;n15802</title>
</g>
<!-- n15803&#45;&gt;n15807 -->
<g id="edge24" class="edge"><title>n15803&#45;&gt;n15807</title>
<path fill="none" stroke="black" d="M547.496,-218.245C605.975,-223.707 751.401,-239.75 868.693,-273 873.135,-274.259 877.727,-275.815 882.216,-277.491"/>
<polygon fill="black" stroke="black" points="881.192,-280.849 891.778,-281.279 883.771,-274.342 881.192,-280.849"/>
<text text-anchor="middle" x="722.693" y="-276.8" font-family="Times New Roman,serif" font-size="14.00">|&#45; ( &#45;. ( ph &lt;&#45;&gt; ps ) &lt;&#45;&gt; ( ph &lt;&#45;&gt; &#45;. ps ) )</text>
</g>
<!-- n15806 -->
<g id="node22" class="node"><title>n15806</title>
<ellipse fill="cyan" stroke="black" cx="520.347" cy="-127" rx="38.1938" ry="18"/>
<text text-anchor="middle" x="520.347" y="-123.3" font-family="Times New Roman,serif" font-size="14.00">pm5.17</text>
</g>
<!-- n15803&#45;&gt;n15806 -->
<g id="edge34" class="edge"><title>n15803&#45;&gt;n15806</title>
</g>
<!-- n15802&#45;&gt;n15803 -->
<g id="edge23" class="edge"><title>n15802&#45;&gt;n15803</title>
<path fill="none" stroke="lightgray" d="M347.176,-152.542C381.835,-165.317 447.306,-189.448 486.764,-203.991"/>
<polygon fill="lightgray" stroke="lightgray" points="485.607,-207.295 496.201,-207.469 488.028,-200.727 485.607,-207.295"/>
<text text-anchor="middle" x="416" y="-198.8" font-family="Times New Roman,serif" font-size="14.00" fill="lightgray">wff ps</text>
</g>
<!-- n15804 -->
<g id="node21" class="node"><title>n15804</title>
<ellipse fill="none" stroke="lightgray" cx="323" cy="-90" rx="27" ry="18"/>
<text text-anchor="middle" x="323" y="-86.3" font-family="Times New Roman,serif" font-size="14.00" fill="lightgray">wph</text>
</g>
<!-- n15804&#45;&gt;n15806 -->
<g id="edge26" class="edge"><title>n15804&#45;&gt;n15806</title>
<path fill="none" stroke="lightgray" d="M349.138,-94.7614C380.733,-100.746 435.524,-111.123 474.401,-118.487"/>
<polygon fill="lightgray" stroke="lightgray" points="473.937,-121.961 484.414,-120.383 475.24,-115.084 473.937,-121.961"/>
<text text-anchor="middle" x="416" y="-120.8" font-family="Times New Roman,serif" font-size="14.00" fill="lightgray">wff ph</text>
</g>
<!-- n15805 -->
<g id="node23" class="node"><title>n15805</title>
<ellipse fill="none" stroke="lightgray" cx="323" cy="-18" rx="27" ry="18"/>
<text text-anchor="middle" x="323" y="-14.3" font-family="Times New Roman,serif" font-size="14.00" fill="lightgray">wps</text>
</g>
<!-- n15804&#45;&gt;n15805 -->
<g id="edge29" class="edge"><title>n15804&#45;&gt;n15805</title>
</g>
<!-- n15806&#45;&gt;n15807 -->
<g id="edge28" class="edge"><title>n15806&#45;&gt;n15807</title>
<path fill="none" stroke="black" d="M558.779,-125.351C627.418,-124.276 774.959,-131.226 868.693,-203 888.563,-218.215 900.699,-244.396 907.522,-264.436"/>
<polygon fill="black" stroke="black" points="904.188,-265.503 910.537,-273.985 910.863,-263.395 904.188,-265.503"/>
<text text-anchor="middle" x="722.693" y="-206.8" font-family="Times New Roman,serif" font-size="14.00">|&#45; ( ( ( ph / ps ) / &#45;. ( ph / ps ) ) &lt;&#45;&gt; ( ph &lt;&#45;&gt; &#45;. ps ) )</text>
</g>
<!-- n15805&#45;&gt;n15806 -->
<g id="edge27" class="edge"><title>n15805&#45;&gt;n15806</title>
<path fill="none" stroke="lightgray" d="M347.32,-25.9749C375.967,-36.2908 425.498,-55.8367 464,-80 474.901,-86.8413 485.91,-95.7011 495.207,-103.881"/>
<polygon fill="lightgray" stroke="lightgray" points="493.125,-106.717 502.89,-110.827 497.819,-101.525 493.125,-106.717"/>
<text text-anchor="middle" x="416" y="-83.8" font-family="Times New Roman,serif" font-size="14.00" fill="lightgray">wff ps</text>
</g>
</g>
</svg>
