<?xml version="1.0" encoding="UTF-8" standalone="no"?>
<!DOCTYPE svg PUBLIC "-//W3C//DTD SVG 1.1//EN"
 "http://www.w3.org/Graphics/SVG/1.1/DTD/svg11.dtd">
<!-- Generated by graphviz version 2.38.0 (20140413.2041)
 -->
<!-- Title: proof_ninba Pages: 1 -->
<svg width="829pt" height="494pt"
 viewBox="0.00 0.00 829.38 494.00" xmlns="http://www.w3.org/2000/svg" xmlns:xlink="http://www.w3.org/1999/xlink">
<g id="graph0" class="graph" transform="scale(1 1) rotate(0) translate(4 490)">
<title>proof_ninba</title>
<polygon fill="white" stroke="none" points="-4,4 -4,-490 825.376,-490 825.376,4 -4,4"/>
<!-- n18008 -->
<g id="node1" class="node"><title>n18008</title>
<ellipse fill="none" stroke="lightgray" cx="37.0467" cy="-468" rx="27" ry="18"/>
<text text-anchor="middle" x="37.0467" y="-464.3" font-family="Times New Roman,serif" font-size="14.00" fill="lightgray">wps</text>
</g>
<!-- n18009 -->
<g id="node2" class="node"><title>n18009</title>
<ellipse fill="none" stroke="lightgray" cx="177.641" cy="-427" rx="27" ry="18"/>
<text text-anchor="middle" x="177.641" y="-423.3" font-family="Times New Roman,serif" font-size="14.00" fill="lightgray">wn</text>
</g>
<!-- n18008&#45;&gt;n18009 -->
<g id="edge1" class="edge"><title>n18008&#45;&gt;n18009</title>
<path fill="none" stroke="lightgray" d="M62.1879,-460.858C84.5456,-454.244 118.011,-444.344 142.987,-436.956"/>
<polygon fill="lightgray" stroke="lightgray" points="144.18,-440.253 152.776,-434.06 142.194,-433.54 144.18,-440.253"/>
<text text-anchor="middle" x="110.593" y="-454.8" font-family="Times New Roman,serif" font-size="14.00" fill="lightgray">wff ps</text>
</g>
<!-- n18020 -->
<g id="node3" class="node"><title>n18020</title>
<ellipse fill="cyan" stroke="black" cx="485.535" cy="-318" rx="38.1938" ry="18"/>
<text text-anchor="middle" x="485.535" y="-314.3" font-family="Times New Roman,serif" font-size="14.00">bicomd</text>
</g>
<!-- n18009&#45;&gt;n18020 -->
<g id="edge2" class="edge"><title>n18009&#45;&gt;n18020</title>
<path fill="none" stroke="lightgray" d="M204.609,-424.952C251.771,-420.353 353.605,-406.335 429.188,-367 441.405,-360.642 453.104,-351.004 462.574,-341.954"/>
<polygon fill="lightgray" stroke="lightgray" points="465.045,-344.433 469.658,-334.895 460.104,-339.474 465.045,-344.433"/>
<text text-anchor="middle" x="327.688" y="-425.8" font-family="Times New Roman,serif" font-size="14.00" fill="lightgray">wff &#45;. ps</text>
</g>
<!-- n18012 -->
<g id="node5" class="node"><title>n18012</title>
<ellipse fill="none" stroke="lightgray" cx="177.641" cy="-355" rx="27" ry="18"/>
<text text-anchor="middle" x="177.641" y="-351.3" font-family="Times New Roman,serif" font-size="14.00" fill="lightgray">wa</text>
</g>
<!-- n18009&#45;&gt;n18012 -->
<g id="edge18" class="edge"><title>n18009&#45;&gt;n18012</title>
</g>
<!-- QED -->
<g id="node14" class="node"><title>QED</title>
</g>
<!-- n18020&#45;&gt;QED -->
<g id="edge17" class="edge"><title>n18020&#45;&gt;QED</title>
<path fill="none" stroke="black" d="M523.884,-318C582.03,-318 693.62,-318 752.524,-318"/>
<polygon fill="black" stroke="black" points="752.542,-321.5 762.542,-318 752.542,-314.5 752.542,-321.5"/>
<text text-anchor="middle" x="643.381" y="-321.8" font-family="Times New Roman,serif" font-size="14.00">|&#45; ( &#45;. ps &#45;&gt; ( &#45;. ph &lt;&#45;&gt; ( ch /\ ps ) ) )</text>
</g>
<!-- n18010 -->
<g id="node4" class="node"><title>n18010</title>
<ellipse fill="none" stroke="lightgray" cx="37.0467" cy="-414" rx="27" ry="18"/>
<text text-anchor="middle" x="37.0467" y="-410.3" font-family="Times New Roman,serif" font-size="14.00" fill="lightgray">wch</text>
</g>
<!-- n18010&#45;&gt;n18012 -->
<g id="edge3" class="edge"><title>n18010&#45;&gt;n18012</title>
<path fill="none" stroke="lightgray" d="M60.3142,-404.521C83.2476,-394.758 119.192,-379.456 145.057,-368.445"/>
<polygon fill="lightgray" stroke="lightgray" points="146.598,-371.593 154.428,-364.456 143.857,-365.152 146.598,-371.593"/>
<text text-anchor="middle" x="110.593" y="-392.8" font-family="Times New Roman,serif" font-size="14.00" fill="lightgray">wff ch</text>
</g>
<!-- n18011 -->
<g id="node6" class="node"><title>n18011</title>
<ellipse fill="none" stroke="lightgray" cx="37.0467" cy="-342" rx="27" ry="18"/>
<text text-anchor="middle" x="37.0467" y="-338.3" font-family="Times New Roman,serif" font-size="14.00" fill="lightgray">wps</text>
</g>
<!-- n18010&#45;&gt;n18011 -->
<g id="edge6" class="edge"><title>n18010&#45;&gt;n18011</title>
</g>
<!-- n18012&#45;&gt;n18020 -->
<g id="edge5" class="edge"><title>n18012&#45;&gt;n18020</title>
<path fill="none" stroke="lightgray" d="M204.457,-351.877C256.139,-345.626 372.932,-331.499 438.197,-323.605"/>
<polygon fill="lightgray" stroke="lightgray" points="438.704,-327.069 448.211,-322.394 437.863,-320.12 438.704,-327.069"/>
<text text-anchor="middle" x="327.688" y="-351.8" font-family="Times New Roman,serif" font-size="14.00" fill="lightgray">wff ( ch /\ ps )</text>
</g>
<!-- n18014 -->
<g id="node8" class="node"><title>n18014</title>
<ellipse fill="none" stroke="lightgray" cx="177.641" cy="-283" rx="27" ry="18"/>
<text text-anchor="middle" x="177.641" y="-279.3" font-family="Times New Roman,serif" font-size="14.00" fill="lightgray">wn</text>
</g>
<!-- n18012&#45;&gt;n18014 -->
<g id="edge19" class="edge"><title>n18012&#45;&gt;n18014</title>
</g>
<!-- n18011&#45;&gt;n18012 -->
<g id="edge4" class="edge"><title>n18011&#45;&gt;n18012</title>
<path fill="none" stroke="lightgray" d="M64.1152,-344.445C85.6995,-346.47 116.6,-349.368 140.561,-351.616"/>
<polygon fill="lightgray" stroke="lightgray" points="140.406,-355.116 150.689,-352.566 141.06,-348.147 140.406,-355.116"/>
<text text-anchor="middle" x="110.593" y="-353.8" font-family="Times New Roman,serif" font-size="14.00" fill="lightgray">wff ps</text>
</g>
<!-- n18013 -->
<g id="node7" class="node"><title>n18013</title>
<ellipse fill="none" stroke="lightgray" cx="37.0467" cy="-288" rx="27" ry="18"/>
<text text-anchor="middle" x="37.0467" y="-284.3" font-family="Times New Roman,serif" font-size="14.00" fill="lightgray">wph</text>
</g>
<!-- n18013&#45;&gt;n18014 -->
<g id="edge7" class="edge"><title>n18013&#45;&gt;n18014</title>
<path fill="none" stroke="lightgray" d="M64.1152,-287.06C85.5629,-286.286 116.209,-285.18 140.105,-284.318"/>
<polygon fill="lightgray" stroke="lightgray" points="140.351,-287.812 150.218,-283.953 140.098,-280.816 140.351,-287.812"/>
<text text-anchor="middle" x="110.593" y="-289.8" font-family="Times New Roman,serif" font-size="14.00" fill="lightgray">wff ph</text>
</g>
<!-- n18014&#45;&gt;n18020 -->
<g id="edge8" class="edge"><title>n18014&#45;&gt;n18020</title>
<path fill="none" stroke="lightgray" d="M204.669,-285.202C250.256,-289.169 347.475,-298.126 429.188,-309 432.421,-309.43 435.755,-309.902 439.109,-310.397"/>
<polygon fill="lightgray" stroke="lightgray" points="438.734,-313.88 449.149,-311.934 439.794,-306.961 438.734,-313.88"/>
<text text-anchor="middle" x="327.688" y="-312.8" font-family="Times New Roman,serif" font-size="14.00" fill="lightgray">wff &#45;. ph</text>
</g>
<!-- n18019 -->
<g id="node10" class="node"><title>n18019</title>
<ellipse fill="cyan" stroke="black" cx="177.641" cy="-197" rx="30.5947" ry="18"/>
<text text-anchor="middle" x="177.641" y="-193.3" font-family="Times New Roman,serif" font-size="14.00">niabn</text>
</g>
<!-- n18014&#45;&gt;n18019 -->
<g id="edge20" class="edge"><title>n18014&#45;&gt;n18019</title>
</g>
<!-- n18015 -->
<g id="node9" class="node"><title>n18015</title>
<ellipse fill="none" stroke="lightgray" cx="37.0467" cy="-234" rx="27" ry="18"/>
<text text-anchor="middle" x="37.0467" y="-230.3" font-family="Times New Roman,serif" font-size="14.00" fill="lightgray">wph</text>
</g>
<!-- n18015&#45;&gt;n18019 -->
<g id="edge9" class="edge"><title>n18015&#45;&gt;n18019</title>
<path fill="none" stroke="lightgray" d="M62.5055,-227.47C83.9517,-221.745 115.439,-213.339 139.912,-206.805"/>
<polygon fill="lightgray" stroke="lightgray" points="140.824,-210.185 149.583,-204.224 139.019,-203.421 140.824,-210.185"/>
<text text-anchor="middle" x="110.593" y="-222.8" font-family="Times New Roman,serif" font-size="14.00" fill="lightgray">wff ph</text>
</g>
<!-- n18016 -->
<g id="node11" class="node"><title>n18016</title>
<ellipse fill="none" stroke="lightgray" cx="37.0467" cy="-162" rx="27" ry="18"/>
<text text-anchor="middle" x="37.0467" y="-158.3" font-family="Times New Roman,serif" font-size="14.00" fill="lightgray">wps</text>
</g>
<!-- n18015&#45;&gt;n18016 -->
<g id="edge14" class="edge"><title>n18015&#45;&gt;n18016</title>
</g>
<!-- n18019&#45;&gt;n18020 -->
<g id="edge13" class="edge"><title>n18019&#45;&gt;n18020</title>
<path fill="none" stroke="black" d="M207.654,-201.054C256.043,-208.725 355.205,-228.367 429.188,-269 441.14,-275.564 452.704,-285.12 462.145,-294.054"/>
<polygon fill="black" stroke="black" points="459.955,-296.81 469.536,-301.332 464.867,-291.822 459.955,-296.81"/>
<text text-anchor="middle" x="327.688" y="-272.8" font-family="Times New Roman,serif" font-size="14.00">|&#45; ( &#45;. ps &#45;&gt; ( ( ch /\ ps ) &lt;&#45;&gt; &#45;. ph ) )</text>
</g>
<!-- n18016&#45;&gt;n18019 -->
<g id="edge10" class="edge"><title>n18016&#45;&gt;n18019</title>
<path fill="none" stroke="lightgray" d="M62.5055,-168.177C83.7204,-173.534 114.761,-181.373 139.117,-187.524"/>
<polygon fill="lightgray" stroke="lightgray" points="138.546,-190.989 149.098,-190.045 140.26,-184.203 138.546,-190.989"/>
<text text-anchor="middle" x="110.593" y="-188.8" font-family="Times New Roman,serif" font-size="14.00" fill="lightgray">wff ps</text>
</g>
<!-- n18017 -->
<g id="node12" class="node"><title>n18017</title>
<ellipse fill="none" stroke="lightgray" cx="37.0467" cy="-90" rx="27" ry="18"/>
<text text-anchor="middle" x="37.0467" y="-86.3" font-family="Times New Roman,serif" font-size="14.00" fill="lightgray">wch</text>
</g>
<!-- n18016&#45;&gt;n18017 -->
<g id="edge15" class="edge"><title>n18016&#45;&gt;n18017</title>
</g>
<!-- n18017&#45;&gt;n18019 -->
<g id="edge11" class="edge"><title>n18017&#45;&gt;n18019</title>
<path fill="none" stroke="lightgray" d="M56.0229,-103.054C74.5201,-116.572 104.083,-138.42 129.093,-158 136.344,-163.677 144.106,-169.955 151.212,-175.785"/>
<polygon fill="lightgray" stroke="lightgray" points="149.241,-178.697 159.182,-182.361 153.696,-173.297 149.241,-178.697"/>
<text text-anchor="middle" x="110.593" y="-161.8" font-family="Times New Roman,serif" font-size="14.00" fill="lightgray">wff ch</text>
</g>
<!-- n18018 -->
<g id="node13" class="node"><title>n18018</title>
<ellipse fill="orange" stroke="black" cx="37.0467" cy="-18" rx="37.0935" ry="18"/>
<text text-anchor="middle" x="37.0467" y="-14.3" font-family="Times New Roman,serif" font-size="14.00">ninba.1</text>
</g>
<!-- n18017&#45;&gt;n18018 -->
<g id="edge16" class="edge"><title>n18017&#45;&gt;n18018</title>
</g>
<!-- n18018&#45;&gt;n18019 -->
<g id="edge12" class="edge"><title>n18018&#45;&gt;n18019</title>
<path fill="none" stroke="black" d="M55.5007,-33.6875C74.8956,-51.6621 106.458,-82.5742 129.093,-113 142.472,-130.983 154.849,-153.104 163.62,-170.131"/>
<polygon fill="black" stroke="black" points="160.717,-172.147 168.348,-179.497 166.967,-168.993 160.717,-172.147"/>
<text text-anchor="middle" x="110.593" y="-116.8" font-family="Times New Roman,serif" font-size="14.00">|&#45; ph</text>
</g>
</g>
</svg>
