<?xml version="1.0" encoding="UTF-8" standalone="no"?>
<!DOCTYPE svg PUBLIC "-//W3C//DTD SVG 1.1//EN"
 "http://www.w3.org/Graphics/SVG/1.1/DTD/svg11.dtd">
<!-- Generated by graphviz version 2.38.0 (20140413.2041)
 -->
<!-- Title: proof_notnot1 Pages: 1 -->
<svg width="720pt" height="188pt"
 viewBox="0.00 0.00 719.59 188.00" xmlns="http://www.w3.org/2000/svg" xmlns:xlink="http://www.w3.org/1999/xlink">
<g id="graph0" class="graph" transform="scale(1 1) rotate(0) translate(4 184)">
<title>proof_notnot1</title>
<polygon fill="white" stroke="none" points="-4,4 -4,-184 715.589,-184 715.589,4 -4,4"/>
<!-- n1376 -->
<g id="node1" class="node"><title>n1376</title>
<ellipse fill="none" stroke="lightgray" cx="154" cy="-162" rx="27" ry="18"/>
<text text-anchor="middle" x="154" y="-158.3" font-family="Times New Roman,serif" font-size="14.00" fill="lightgray">wph</text>
</g>
<!-- n1377 -->
<g id="node2" class="node"><title>n1377</title>
<ellipse fill="none" stroke="lightgray" cx="293" cy="-162" rx="27" ry="18"/>
<text text-anchor="middle" x="293" y="-158.3" font-family="Times New Roman,serif" font-size="14.00" fill="lightgray">wn</text>
</g>
<!-- n1376&#45;&gt;n1377 -->
<g id="edge1" class="edge"><title>n1376&#45;&gt;n1377</title>
<path fill="none" stroke="lightgray" d="M181.091,-162C202.096,-162 231.873,-162 255.285,-162"/>
<polygon fill="lightgray" stroke="lightgray" points="255.539,-165.5 265.539,-162 255.539,-158.5 255.539,-165.5"/>
<text text-anchor="middle" x="223.5" y="-165.8" font-family="Times New Roman,serif" font-size="14.00" fill="lightgray">wff ph</text>
</g>
<!-- n1382 -->
<g id="node3" class="node"><title>n1382</title>
<ellipse fill="cyan" stroke="black" cx="486.547" cy="-90" rx="30.5947" ry="18"/>
<text text-anchor="middle" x="486.547" y="-86.3" font-family="Times New Roman,serif" font-size="14.00">con2i</text>
</g>
<!-- n1377&#45;&gt;n1382 -->
<g id="edge2" class="edge"><title>n1377&#45;&gt;n1382</title>
<path fill="none" stroke="lightgray" d="M317.018,-153.749C345.507,-143.486 395.47,-125.321 438,-109 442.318,-107.343 446.845,-105.575 451.318,-103.809"/>
<polygon fill="lightgray" stroke="lightgray" points="452.921,-106.938 460.92,-99.9905 450.334,-100.433 452.921,-106.938"/>
<text text-anchor="middle" x="388" y="-148.8" font-family="Times New Roman,serif" font-size="14.00" fill="lightgray">wff &#45;. ph</text>
</g>
<!-- n1378 -->
<g id="node4" class="node"><title>n1378</title>
<ellipse fill="none" stroke="lightgray" cx="293" cy="-90" rx="27" ry="18"/>
<text text-anchor="middle" x="293" y="-86.3" font-family="Times New Roman,serif" font-size="14.00" fill="lightgray">wph</text>
</g>
<!-- n1377&#45;&gt;n1378 -->
<g id="edge8" class="edge"><title>n1377&#45;&gt;n1378</title>
</g>
<!-- QED -->
<g id="node8" class="node"><title>QED</title>
</g>
<!-- n1382&#45;&gt;QED -->
<g id="edge7" class="edge"><title>n1382&#45;&gt;QED</title>
<path fill="none" stroke="black" d="M517.403,-90C551.032,-90 605.792,-90 642.669,-90"/>
<polygon fill="black" stroke="black" points="643.03,-93.5001 653.03,-90 643.03,-86.5001 643.03,-93.5001"/>
<text text-anchor="middle" x="585.095" y="-93.8" font-family="Times New Roman,serif" font-size="14.00">|&#45; ( ph &#45;&gt; &#45;. &#45;. ph )</text>
</g>
<!-- n1378&#45;&gt;n1382 -->
<g id="edge3" class="edge"><title>n1378&#45;&gt;n1382</title>
<path fill="none" stroke="lightgray" d="M320.232,-90C352.637,-90 408.086,-90 445.746,-90"/>
<polygon fill="lightgray" stroke="lightgray" points="445.863,-93.5001 455.863,-90 445.863,-86.5001 445.863,-93.5001"/>
<text text-anchor="middle" x="388" y="-93.8" font-family="Times New Roman,serif" font-size="14.00" fill="lightgray">wff ph</text>
</g>
<!-- n1381 -->
<g id="node7" class="node"><title>n1381</title>
<ellipse fill="cyan" stroke="black" cx="293" cy="-18" rx="27" ry="18"/>
<text text-anchor="middle" x="293" y="-14.3" font-family="Times New Roman,serif" font-size="14.00">id</text>
</g>
<!-- n1378&#45;&gt;n1381 -->
<g id="edge9" class="edge"><title>n1378&#45;&gt;n1381</title>
</g>
<!-- n1379 -->
<g id="node5" class="node"><title>n1379</title>
<ellipse fill="none" stroke="lightgray" cx="27" cy="-18" rx="27" ry="18"/>
<text text-anchor="middle" x="27" y="-14.3" font-family="Times New Roman,serif" font-size="14.00" fill="lightgray">wph</text>
</g>
<!-- n1380 -->
<g id="node6" class="node"><title>n1380</title>
<ellipse fill="none" stroke="lightgray" cx="154" cy="-18" rx="27" ry="18"/>
<text text-anchor="middle" x="154" y="-14.3" font-family="Times New Roman,serif" font-size="14.00" fill="lightgray">wn</text>
</g>
<!-- n1379&#45;&gt;n1380 -->
<g id="edge4" class="edge"><title>n1379&#45;&gt;n1380</title>
<path fill="none" stroke="lightgray" d="M54.2041,-18C72.3711,-18 96.7994,-18 116.82,-18"/>
<polygon fill="lightgray" stroke="lightgray" points="116.83,-21.5001 126.83,-18 116.83,-14.5001 116.83,-21.5001"/>
<text text-anchor="middle" x="90.5" y="-21.8" font-family="Times New Roman,serif" font-size="14.00" fill="lightgray">wff ph</text>
</g>
<!-- n1380&#45;&gt;n1381 -->
<g id="edge5" class="edge"><title>n1380&#45;&gt;n1381</title>
<path fill="none" stroke="lightgray" d="M181.091,-18C202.096,-18 231.873,-18 255.285,-18"/>
<polygon fill="lightgray" stroke="lightgray" points="255.539,-21.5001 265.539,-18 255.539,-14.5001 255.539,-21.5001"/>
<text text-anchor="middle" x="223.5" y="-21.8" font-family="Times New Roman,serif" font-size="14.00" fill="lightgray">wff &#45;. ph</text>
</g>
<!-- n1381&#45;&gt;n1382 -->
<g id="edge6" class="edge"><title>n1381&#45;&gt;n1382</title>
<path fill="none" stroke="black" d="M317.018,-26.251C345.507,-36.5145 395.47,-54.6794 438,-71 442.318,-72.6571 446.845,-74.4255 451.318,-76.1914"/>
<polygon fill="black" stroke="black" points="450.334,-79.5669 460.92,-80.0095 452.921,-73.0622 450.334,-79.5669"/>
<text text-anchor="middle" x="388" y="-74.8" font-family="Times New Roman,serif" font-size="14.00">|&#45; ( &#45;. ph &#45;&gt; &#45;. ph )</text>
</g>
</g>
</svg>
