<?xml version="1.0" encoding="UTF-8" standalone="no"?>
<!DOCTYPE svg PUBLIC "-//W3C//DTD SVG 1.1//EN"
 "http://www.w3.org/Graphics/SVG/1.1/DTD/svg11.dtd">
<!-- Generated by graphviz version 2.38.0 (20140413.2041)
 -->
<!-- Title: proof_notnotrd Pages: 1 -->
<svg width="732pt" height="332pt"
 viewBox="0.00 0.00 731.99 332.00" xmlns="http://www.w3.org/2000/svg" xmlns:xlink="http://www.w3.org/1999/xlink">
<g id="graph0" class="graph" transform="scale(1 1) rotate(0) translate(4 328)">
<title>proof_notnotrd</title>
<polygon fill="white" stroke="none" points="-4,4 -4,-328 727.986,-328 727.986,4 -4,4"/>
<!-- n1283 -->
<g id="node1" class="node"><title>n1283</title>
<ellipse fill="none" stroke="lightgray" cx="314.746" cy="-306" rx="27" ry="18"/>
<text text-anchor="middle" x="314.746" y="-302.3" font-family="Times New Roman,serif" font-size="14.00" fill="lightgray">wph</text>
</g>
<!-- n1291 -->
<g id="node2" class="node"><title>n1291</title>
<ellipse fill="cyan" stroke="black" cx="526.491" cy="-162" rx="27" ry="18"/>
<text text-anchor="middle" x="526.491" y="-158.3" font-family="Times New Roman,serif" font-size="14.00">syl</text>
</g>
<!-- n1283&#45;&gt;n1291 -->
<g id="edge1" class="edge"><title>n1283&#45;&gt;n1291</title>
<path fill="none" stroke="lightgray" d="M340.439,-299.897C375.187,-290.3 439.008,-268.869 481.491,-232 495.275,-220.037 506.221,-202.69 513.748,-188.258"/>
<polygon fill="lightgray" stroke="lightgray" points="516.892,-189.795 518.196,-179.28 510.62,-186.687 516.892,-189.795"/>
<text text-anchor="middle" x="431.491" y="-288.8" font-family="Times New Roman,serif" font-size="14.00" fill="lightgray">wff ph</text>
</g>
<!-- n1286 -->
<g id="node5" class="node"><title>n1286</title>
<ellipse fill="none" stroke="lightgray" cx="314.746" cy="-234" rx="27" ry="18"/>
<text text-anchor="middle" x="314.746" y="-230.3" font-family="Times New Roman,serif" font-size="14.00" fill="lightgray">wn</text>
</g>
<!-- n1283&#45;&gt;n1286 -->
<g id="edge10" class="edge"><title>n1283&#45;&gt;n1286</title>
</g>
<!-- QED -->
<g id="node10" class="node"><title>QED</title>
</g>
<!-- n1291&#45;&gt;QED -->
<g id="edge9" class="edge"><title>n1291&#45;&gt;QED</title>
<path fill="none" stroke="black" d="M553.834,-162C581.144,-162 624.117,-162 655.234,-162"/>
<polygon fill="black" stroke="black" points="655.293,-165.5 665.293,-162 655.293,-158.5 655.293,-165.5"/>
<text text-anchor="middle" x="609.491" y="-165.8" font-family="Times New Roman,serif" font-size="14.00">|&#45; ( ph &#45;&gt; ps )</text>
</g>
<!-- n1284 -->
<g id="node3" class="node"><title>n1284</title>
<ellipse fill="none" stroke="lightgray" cx="27" cy="-234" rx="27" ry="18"/>
<text text-anchor="middle" x="27" y="-230.3" font-family="Times New Roman,serif" font-size="14.00" fill="lightgray">wps</text>
</g>
<!-- n1285 -->
<g id="node4" class="node"><title>n1285</title>
<ellipse fill="none" stroke="lightgray" cx="154" cy="-234" rx="27" ry="18"/>
<text text-anchor="middle" x="154" y="-230.3" font-family="Times New Roman,serif" font-size="14.00" fill="lightgray">wn</text>
</g>
<!-- n1284&#45;&gt;n1285 -->
<g id="edge2" class="edge"><title>n1284&#45;&gt;n1285</title>
<path fill="none" stroke="lightgray" d="M54.2041,-234C72.3711,-234 96.7994,-234 116.82,-234"/>
<polygon fill="lightgray" stroke="lightgray" points="116.83,-237.5 126.83,-234 116.83,-230.5 116.83,-237.5"/>
<text text-anchor="middle" x="90.5" y="-237.8" font-family="Times New Roman,serif" font-size="14.00" fill="lightgray">wff ps</text>
</g>
<!-- n1285&#45;&gt;n1286 -->
<g id="edge3" class="edge"><title>n1285&#45;&gt;n1286</title>
<path fill="none" stroke="lightgray" d="M181.214,-234C207.41,-234 247.903,-234 277.238,-234"/>
<polygon fill="lightgray" stroke="lightgray" points="277.493,-237.5 287.493,-234 277.493,-230.5 277.493,-237.5"/>
<text text-anchor="middle" x="223.5" y="-237.8" font-family="Times New Roman,serif" font-size="14.00" fill="lightgray">wff &#45;. ps</text>
</g>
<!-- n1286&#45;&gt;n1291 -->
<g id="edge4" class="edge"><title>n1286&#45;&gt;n1291</title>
<path fill="none" stroke="lightgray" d="M339.878,-227.093C372.371,-217.61 431.844,-199.606 481.491,-181 485.726,-179.413 490.145,-177.644 494.48,-175.841"/>
<polygon fill="lightgray" stroke="lightgray" points="495.903,-179.039 503.731,-171.899 493.159,-172.599 495.903,-179.039"/>
<text text-anchor="middle" x="431.491" y="-216.8" font-family="Times New Roman,serif" font-size="14.00" fill="lightgray">wff &#45;. &#45;. ps</text>
</g>
<!-- n1287 -->
<g id="node6" class="node"><title>n1287</title>
<ellipse fill="none" stroke="lightgray" cx="314.746" cy="-162" rx="27" ry="18"/>
<text text-anchor="middle" x="314.746" y="-158.3" font-family="Times New Roman,serif" font-size="14.00" fill="lightgray">wps</text>
</g>
<!-- n1286&#45;&gt;n1287 -->
<g id="edge11" class="edge"><title>n1286&#45;&gt;n1287</title>
</g>
<!-- n1287&#45;&gt;n1291 -->
<g id="edge5" class="edge"><title>n1287&#45;&gt;n1291</title>
<path fill="none" stroke="lightgray" d="M341.886,-162C379.04,-162 447.263,-162 489.271,-162"/>
<polygon fill="lightgray" stroke="lightgray" points="489.352,-165.5 499.352,-162 489.352,-158.5 489.352,-165.5"/>
<text text-anchor="middle" x="431.491" y="-165.8" font-family="Times New Roman,serif" font-size="14.00" fill="lightgray">wff ps</text>
</g>
<!-- n1288 -->
<g id="node7" class="node"><title>n1288</title>
<ellipse fill="orange" stroke="black" cx="314.746" cy="-90" rx="48.9926" ry="18"/>
<text text-anchor="middle" x="314.746" y="-86.3" font-family="Times New Roman,serif" font-size="14.00">notnotrd.1</text>
</g>
<!-- n1287&#45;&gt;n1288 -->
<g id="edge12" class="edge"><title>n1287&#45;&gt;n1288</title>
</g>
<!-- n1288&#45;&gt;n1291 -->
<g id="edge6" class="edge"><title>n1288&#45;&gt;n1291</title>
<path fill="none" stroke="black" d="M353.628,-100.958C387.459,-111.016 438.209,-126.779 481.491,-143 485.726,-144.587 490.145,-146.356 494.48,-148.159"/>
<polygon fill="black" stroke="black" points="493.159,-151.401 503.731,-152.101 495.903,-144.961 493.159,-151.401"/>
<text text-anchor="middle" x="431.491" y="-146.8" font-family="Times New Roman,serif" font-size="14.00">|&#45; ( ph &#45;&gt; &#45;. &#45;. ps )</text>
</g>
<!-- n1290 -->
<g id="node9" class="node"><title>n1290</title>
<ellipse fill="cyan" stroke="black" cx="314.746" cy="-18" rx="38.1938" ry="18"/>
<text text-anchor="middle" x="314.746" y="-14.3" font-family="Times New Roman,serif" font-size="14.00">notnot2</text>
</g>
<!-- n1288&#45;&gt;n1290 -->
<g id="edge13" class="edge"><title>n1288&#45;&gt;n1290</title>
</g>
<!-- n1289 -->
<g id="node8" class="node"><title>n1289</title>
<ellipse fill="none" stroke="lightgray" cx="154" cy="-18" rx="27" ry="18"/>
<text text-anchor="middle" x="154" y="-14.3" font-family="Times New Roman,serif" font-size="14.00" fill="lightgray">wps</text>
</g>
<!-- n1289&#45;&gt;n1290 -->
<g id="edge7" class="edge"><title>n1289&#45;&gt;n1290</title>
<path fill="none" stroke="lightgray" d="M181.214,-18C204.171,-18 238.11,-18 265.895,-18"/>
<polygon fill="lightgray" stroke="lightgray" points="266.207,-21.5001 276.207,-18 266.207,-14.5001 266.207,-21.5001"/>
<text text-anchor="middle" x="223.5" y="-21.8" font-family="Times New Roman,serif" font-size="14.00" fill="lightgray">wff ps</text>
</g>
<!-- n1290&#45;&gt;n1291 -->
<g id="edge8" class="edge"><title>n1290&#45;&gt;n1291</title>
<path fill="none" stroke="black" d="M348.8,-26.4847C384.719,-37.0295 442.221,-57.9192 481.491,-92 495.275,-103.963 506.221,-121.31 513.748,-135.742"/>
<polygon fill="black" stroke="black" points="510.62,-137.313 518.196,-144.72 516.892,-134.205 510.62,-137.313"/>
<text text-anchor="middle" x="431.491" y="-95.8" font-family="Times New Roman,serif" font-size="14.00">|&#45; ( &#45;. &#45;. ps &#45;&gt; ps )</text>
</g>
</g>
</svg>
