<?xml version="1.0" encoding="UTF-8" standalone="no"?>
<!DOCTYPE svg PUBLIC "-//W3C//DTD SVG 1.1//EN"
 "http://www.w3.org/Graphics/SVG/1.1/DTD/svg11.dtd">
<!-- Generated by graphviz version 2.38.0 (20140413.2041)
 -->
<!-- Title: proof_or32 Pages: 1 -->
<svg width="1095pt" height="1091pt"
 viewBox="0.00 0.00 1094.88 1091.00" xmlns="http://www.w3.org/2000/svg" xmlns:xlink="http://www.w3.org/1999/xlink">
<g id="graph0" class="graph" transform="scale(1 1) rotate(0) translate(4 1087)">
<title>proof_or32</title>
<polygon fill="white" stroke="none" points="-4,4 -4,-1087 1090.88,-1087 1090.88,4 -4,4"/>
<!-- n9052 -->
<g id="node1" class="node"><title>n9052</title>
<ellipse fill="none" stroke="lightgray" cx="27" cy="-1065" rx="27" ry="18"/>
<text text-anchor="middle" x="27" y="-1061.3" font-family="Times New Roman,serif" font-size="14.00" fill="lightgray">wph</text>
</g>
<!-- n9054 -->
<g id="node2" class="node"><title>n9054</title>
<ellipse fill="none" stroke="lightgray" cx="154" cy="-1025" rx="27" ry="18"/>
<text text-anchor="middle" x="154" y="-1021.3" font-family="Times New Roman,serif" font-size="14.00" fill="lightgray">wo</text>
</g>
<!-- n9052&#45;&gt;n9054 -->
<g id="edge1" class="edge"><title>n9052&#45;&gt;n9054</title>
<path fill="none" stroke="lightgray" d="M51.8058,-1057.38C71.0071,-1051.24 98.2415,-1042.52 119.621,-1035.68"/>
<polygon fill="lightgray" stroke="lightgray" points="120.825,-1038.97 129.283,-1032.59 118.692,-1032.3 120.825,-1038.97"/>
<text text-anchor="middle" x="90.5" y="-1054.8" font-family="Times New Roman,serif" font-size="14.00" fill="lightgray">wff ph</text>
</g>
<!-- n9053 -->
<g id="node3" class="node"><title>n9053</title>
<ellipse fill="none" stroke="lightgray" cx="27" cy="-993" rx="27" ry="18"/>
<text text-anchor="middle" x="27" y="-989.3" font-family="Times New Roman,serif" font-size="14.00" fill="lightgray">wps</text>
</g>
<!-- n9052&#45;&gt;n9053 -->
<g id="edge4" class="edge"><title>n9052&#45;&gt;n9053</title>
</g>
<!-- n9056 -->
<g id="node4" class="node"><title>n9056</title>
<ellipse fill="none" stroke="lightgray" cx="333.447" cy="-917" rx="27" ry="18"/>
<text text-anchor="middle" x="333.447" y="-913.3" font-family="Times New Roman,serif" font-size="14.00" fill="lightgray">wo</text>
</g>
<!-- n9054&#45;&gt;n9056 -->
<g id="edge3" class="edge"><title>n9054&#45;&gt;n9056</title>
<path fill="none" stroke="lightgray" d="M177.859,-1015.98C203.911,-1005.21 247.246,-985.767 281,-963 291.448,-955.952 301.996,-946.93 310.798,-938.746"/>
<polygon fill="lightgray" stroke="lightgray" points="313.217,-941.275 318.037,-931.84 308.385,-936.21 313.217,-941.275"/>
<text text-anchor="middle" x="240" y="-1009.8" font-family="Times New Roman,serif" font-size="14.00" fill="lightgray">wff ( ph \/ ps )</text>
</g>
<!-- n9055 -->
<g id="node5" class="node"><title>n9055</title>
<ellipse fill="none" stroke="lightgray" cx="154" cy="-953" rx="27" ry="18"/>
<text text-anchor="middle" x="154" y="-949.3" font-family="Times New Roman,serif" font-size="14.00" fill="lightgray">wch</text>
</g>
<!-- n9054&#45;&gt;n9055 -->
<g id="edge7" class="edge"><title>n9054&#45;&gt;n9055</title>
</g>
<!-- n9053&#45;&gt;n9054 -->
<g id="edge2" class="edge"><title>n9053&#45;&gt;n9054</title>
<path fill="none" stroke="lightgray" d="M53.3168,-998.019C69.3609,-1001.35 90.5012,-1006.01 109,-1011 112.432,-1011.93 115.995,-1012.95 119.542,-1014.01"/>
<polygon fill="lightgray" stroke="lightgray" points="118.779,-1017.44 129.366,-1017.05 120.848,-1010.75 118.779,-1017.44"/>
<text text-anchor="middle" x="90.5" y="-1014.8" font-family="Times New Roman,serif" font-size="14.00" fill="lightgray">wff ps</text>
</g>
<!-- n9085 -->
<g id="node6" class="node"><title>n9085</title>
<ellipse fill="cyan" stroke="black" cx="698.141" cy="-581" rx="29.4969" ry="18"/>
<text text-anchor="middle" x="698.141" y="-577.3" font-family="Times New Roman,serif" font-size="14.00">3bitri</text>
</g>
<!-- n9056&#45;&gt;n9085 -->
<g id="edge6" class="edge"><title>n9056&#45;&gt;n9085</title>
<path fill="none" stroke="lightgray" d="M360.327,-918.899C420.933,-921.799 572.825,-919.833 650.894,-836 681.275,-803.375 692.333,-668.461 695.779,-609.168"/>
<polygon fill="lightgray" stroke="lightgray" points="699.282,-609.195 696.336,-599.018 692.293,-608.811 699.282,-609.195"/>
<text text-anchor="middle" x="518.394" y="-923.8" font-family="Times New Roman,serif" font-size="14.00" fill="lightgray">wff ( ( ph \/ ps ) \/ ch )</text>
</g>
<!-- n9061 -->
<g id="node8" class="node"><title>n9061</title>
<ellipse fill="none" stroke="lightgray" cx="333.447" cy="-827" rx="27" ry="18"/>
<text text-anchor="middle" x="333.447" y="-823.3" font-family="Times New Roman,serif" font-size="14.00" fill="lightgray">wo</text>
</g>
<!-- n9056&#45;&gt;n9061 -->
<g id="edge49" class="edge"><title>n9056&#45;&gt;n9061</title>
</g>
<!-- n9055&#45;&gt;n9056 -->
<g id="edge5" class="edge"><title>n9055&#45;&gt;n9056</title>
<path fill="none" stroke="lightgray" d="M180.047,-947.918C210.696,-941.701 262.77,-931.136 297.387,-924.113"/>
<polygon fill="lightgray" stroke="lightgray" points="298.422,-927.474 307.527,-922.056 297.031,-920.614 298.422,-927.474"/>
<text text-anchor="middle" x="240" y="-947.8" font-family="Times New Roman,serif" font-size="14.00" fill="lightgray">wff ch</text>
</g>
<!-- QED -->
<g id="node35" class="node"><title>QED</title>
</g>
<!-- n9085&#45;&gt;QED -->
<g id="edge48" class="edge"><title>n9085&#45;&gt;QED</title>
<path fill="none" stroke="black" d="M727.492,-581C791.241,-581 945.957,-581 1018.24,-581"/>
<polygon fill="black" stroke="black" points="1018.28,-584.5 1028.28,-581 1018.28,-577.5 1018.28,-584.5"/>
<text text-anchor="middle" x="877.889" y="-584.8" font-family="Times New Roman,serif" font-size="14.00">|&#45; ( ( ( ph \/ ps ) \/ ch ) &lt;&#45;&gt; ( ( ph \/ ch ) \/ ps ) )</text>
</g>
<!-- n9057 -->
<g id="node7" class="node"><title>n9057</title>
<ellipse fill="none" stroke="lightgray" cx="154" cy="-899" rx="27" ry="18"/>
<text text-anchor="middle" x="154" y="-895.3" font-family="Times New Roman,serif" font-size="14.00" fill="lightgray">wph</text>
</g>
<!-- n9057&#45;&gt;n9061 -->
<g id="edge8" class="edge"><title>n9057&#45;&gt;n9061</title>
<path fill="none" stroke="lightgray" d="M177.474,-889.881C208.588,-877.256 264.957,-854.384 300.455,-839.981"/>
<polygon fill="lightgray" stroke="lightgray" points="301.926,-843.161 309.876,-836.158 299.294,-836.675 301.926,-843.161"/>
<text text-anchor="middle" x="240" y="-883.8" font-family="Times New Roman,serif" font-size="14.00" fill="lightgray">wff ph</text>
</g>
<!-- n9060 -->
<g id="node10" class="node"><title>n9060</title>
<ellipse fill="none" stroke="lightgray" cx="154" cy="-827" rx="27" ry="18"/>
<text text-anchor="middle" x="154" y="-823.3" font-family="Times New Roman,serif" font-size="14.00" fill="lightgray">wo</text>
</g>
<!-- n9057&#45;&gt;n9060 -->
<g id="edge14" class="edge"><title>n9057&#45;&gt;n9060</title>
</g>
<!-- n9061&#45;&gt;n9085 -->
<g id="edge13" class="edge"><title>n9061&#45;&gt;n9085</title>
<path fill="none" stroke="lightgray" d="M360.466,-824.178C420.053,-816.365 567.669,-789.144 650.894,-705 676.826,-678.782 688.42,-636.7 693.461,-608.95"/>
<polygon fill="lightgray" stroke="lightgray" points="696.915,-609.516 695.089,-599.079 690.009,-608.377 696.915,-609.516"/>
<text text-anchor="middle" x="518.394" y="-823.8" font-family="Times New Roman,serif" font-size="14.00" fill="lightgray">wff ( ph \/ ( ps \/ ch ) )</text>
</g>
<!-- n9066 -->
<g id="node13" class="node"><title>n9066</title>
<ellipse fill="none" stroke="lightgray" cx="333.447" cy="-701" rx="27" ry="18"/>
<text text-anchor="middle" x="333.447" y="-697.3" font-family="Times New Roman,serif" font-size="14.00" fill="lightgray">wo</text>
</g>
<!-- n9061&#45;&gt;n9066 -->
<g id="edge50" class="edge"><title>n9061&#45;&gt;n9066</title>
</g>
<!-- n9058 -->
<g id="node9" class="node"><title>n9058</title>
<ellipse fill="none" stroke="lightgray" cx="27" cy="-899" rx="27" ry="18"/>
<text text-anchor="middle" x="27" y="-895.3" font-family="Times New Roman,serif" font-size="14.00" fill="lightgray">wps</text>
</g>
<!-- n9058&#45;&gt;n9060 -->
<g id="edge9" class="edge"><title>n9058&#45;&gt;n9060</title>
<path fill="none" stroke="lightgray" d="M48.0834,-887.432C68.6762,-875.571 100.901,-857.009 124.206,-843.586"/>
<polygon fill="lightgray" stroke="lightgray" points="126.048,-846.563 132.966,-838.539 122.554,-840.498 126.048,-846.563"/>
<text text-anchor="middle" x="90.5" y="-877.8" font-family="Times New Roman,serif" font-size="14.00" fill="lightgray">wff ps</text>
</g>
<!-- n9059 -->
<g id="node11" class="node"><title>n9059</title>
<ellipse fill="none" stroke="lightgray" cx="27" cy="-827" rx="27" ry="18"/>
<text text-anchor="middle" x="27" y="-823.3" font-family="Times New Roman,serif" font-size="14.00" fill="lightgray">wch</text>
</g>
<!-- n9058&#45;&gt;n9059 -->
<g id="edge12" class="edge"><title>n9058&#45;&gt;n9059</title>
</g>
<!-- n9060&#45;&gt;n9061 -->
<g id="edge11" class="edge"><title>n9060&#45;&gt;n9061</title>
<path fill="none" stroke="lightgray" d="M181.183,-827C211.674,-827 262.217,-827 296.402,-827"/>
<polygon fill="lightgray" stroke="lightgray" points="296.446,-830.5 306.446,-827 296.446,-823.5 296.446,-830.5"/>
<text text-anchor="middle" x="240" y="-830.8" font-family="Times New Roman,serif" font-size="14.00" fill="lightgray">wff ( ps \/ ch )</text>
</g>
<!-- n9059&#45;&gt;n9060 -->
<g id="edge10" class="edge"><title>n9059&#45;&gt;n9060</title>
<path fill="none" stroke="lightgray" d="M54.2041,-827C72.3711,-827 96.7994,-827 116.82,-827"/>
<polygon fill="lightgray" stroke="lightgray" points="116.83,-830.5 126.83,-827 116.83,-823.5 116.83,-830.5"/>
<text text-anchor="middle" x="90.5" y="-830.8" font-family="Times New Roman,serif" font-size="14.00" fill="lightgray">wff ch</text>
</g>
<!-- n9062 -->
<g id="node12" class="node"><title>n9062</title>
<ellipse fill="none" stroke="lightgray" cx="154" cy="-773" rx="27" ry="18"/>
<text text-anchor="middle" x="154" y="-769.3" font-family="Times New Roman,serif" font-size="14.00" fill="lightgray">wps</text>
</g>
<!-- n9062&#45;&gt;n9066 -->
<g id="edge15" class="edge"><title>n9062&#45;&gt;n9066</title>
<path fill="none" stroke="lightgray" d="M177.474,-763.881C208.588,-751.256 264.957,-728.384 300.455,-713.981"/>
<polygon fill="lightgray" stroke="lightgray" points="301.926,-717.161 309.876,-710.158 299.294,-710.675 301.926,-717.161"/>
<text text-anchor="middle" x="240" y="-757.8" font-family="Times New Roman,serif" font-size="14.00" fill="lightgray">wff ps</text>
</g>
<!-- n9065 -->
<g id="node15" class="node"><title>n9065</title>
<ellipse fill="none" stroke="lightgray" cx="154" cy="-701" rx="27" ry="18"/>
<text text-anchor="middle" x="154" y="-697.3" font-family="Times New Roman,serif" font-size="14.00" fill="lightgray">wo</text>
</g>
<!-- n9062&#45;&gt;n9065 -->
<g id="edge21" class="edge"><title>n9062&#45;&gt;n9065</title>
</g>
<!-- n9066&#45;&gt;n9085 -->
<g id="edge20" class="edge"><title>n9066&#45;&gt;n9085</title>
<path fill="none" stroke="lightgray" d="M358.488,-694.051C411.659,-678.525 543.066,-639.285 650.894,-600 655.232,-598.42 659.763,-596.676 664.221,-594.905"/>
<polygon fill="lightgray" stroke="lightgray" points="665.806,-598.039 673.758,-591.036 663.175,-591.552 665.806,-598.039"/>
<text text-anchor="middle" x="518.394" y="-689.8" font-family="Times New Roman,serif" font-size="14.00" fill="lightgray">wff ( ps \/ ( ph \/ ch ) )</text>
</g>
<!-- n9071 -->
<g id="node20" class="node"><title>n9071</title>
<ellipse fill="none" stroke="lightgray" cx="333.447" cy="-581" rx="27" ry="18"/>
<text text-anchor="middle" x="333.447" y="-577.3" font-family="Times New Roman,serif" font-size="14.00" fill="lightgray">wo</text>
</g>
<!-- n9066&#45;&gt;n9071 -->
<g id="edge51" class="edge"><title>n9066&#45;&gt;n9071</title>
</g>
<!-- n9063 -->
<g id="node14" class="node"><title>n9063</title>
<ellipse fill="none" stroke="lightgray" cx="27" cy="-773" rx="27" ry="18"/>
<text text-anchor="middle" x="27" y="-769.3" font-family="Times New Roman,serif" font-size="14.00" fill="lightgray">wph</text>
</g>
<!-- n9063&#45;&gt;n9065 -->
<g id="edge16" class="edge"><title>n9063&#45;&gt;n9065</title>
<path fill="none" stroke="lightgray" d="M48.0834,-761.432C68.6762,-749.571 100.901,-731.009 124.206,-717.586"/>
<polygon fill="lightgray" stroke="lightgray" points="126.048,-720.563 132.966,-712.539 122.554,-714.498 126.048,-720.563"/>
<text text-anchor="middle" x="90.5" y="-751.8" font-family="Times New Roman,serif" font-size="14.00" fill="lightgray">wff ph</text>
</g>
<!-- n9064 -->
<g id="node16" class="node"><title>n9064</title>
<ellipse fill="none" stroke="lightgray" cx="27" cy="-701" rx="27" ry="18"/>
<text text-anchor="middle" x="27" y="-697.3" font-family="Times New Roman,serif" font-size="14.00" fill="lightgray">wch</text>
</g>
<!-- n9063&#45;&gt;n9064 -->
<g id="edge19" class="edge"><title>n9063&#45;&gt;n9064</title>
</g>
<!-- n9065&#45;&gt;n9066 -->
<g id="edge18" class="edge"><title>n9065&#45;&gt;n9066</title>
<path fill="none" stroke="lightgray" d="M181.183,-701C211.674,-701 262.217,-701 296.402,-701"/>
<polygon fill="lightgray" stroke="lightgray" points="296.446,-704.5 306.446,-701 296.446,-697.5 296.446,-704.5"/>
<text text-anchor="middle" x="240" y="-704.8" font-family="Times New Roman,serif" font-size="14.00" fill="lightgray">wff ( ph \/ ch )</text>
</g>
<!-- n9064&#45;&gt;n9065 -->
<g id="edge17" class="edge"><title>n9064&#45;&gt;n9065</title>
<path fill="none" stroke="lightgray" d="M54.2041,-701C72.3711,-701 96.7994,-701 116.82,-701"/>
<polygon fill="lightgray" stroke="lightgray" points="116.83,-704.5 126.83,-701 116.83,-697.5 116.83,-704.5"/>
<text text-anchor="middle" x="90.5" y="-704.8" font-family="Times New Roman,serif" font-size="14.00" fill="lightgray">wff ch</text>
</g>
<!-- n9067 -->
<g id="node17" class="node"><title>n9067</title>
<ellipse fill="none" stroke="lightgray" cx="27" cy="-647" rx="27" ry="18"/>
<text text-anchor="middle" x="27" y="-643.3" font-family="Times New Roman,serif" font-size="14.00" fill="lightgray">wch</text>
</g>
<!-- n9069 -->
<g id="node18" class="node"><title>n9069</title>
<ellipse fill="none" stroke="lightgray" cx="154" cy="-647" rx="27" ry="18"/>
<text text-anchor="middle" x="154" y="-643.3" font-family="Times New Roman,serif" font-size="14.00" fill="lightgray">wo</text>
</g>
<!-- n9067&#45;&gt;n9069 -->
<g id="edge22" class="edge"><title>n9067&#45;&gt;n9069</title>
<path fill="none" stroke="lightgray" d="M54.2041,-647C72.3711,-647 96.7994,-647 116.82,-647"/>
<polygon fill="lightgray" stroke="lightgray" points="116.83,-650.5 126.83,-647 116.83,-643.5 116.83,-650.5"/>
<text text-anchor="middle" x="90.5" y="-650.8" font-family="Times New Roman,serif" font-size="14.00" fill="lightgray">wff ch</text>
</g>
<!-- n9068 -->
<g id="node19" class="node"><title>n9068</title>
<ellipse fill="none" stroke="lightgray" cx="27" cy="-575" rx="27" ry="18"/>
<text text-anchor="middle" x="27" y="-571.3" font-family="Times New Roman,serif" font-size="14.00" fill="lightgray">wph</text>
</g>
<!-- n9067&#45;&gt;n9068 -->
<g id="edge25" class="edge"><title>n9067&#45;&gt;n9068</title>
</g>
<!-- n9069&#45;&gt;n9071 -->
<g id="edge24" class="edge"><title>n9069&#45;&gt;n9071</title>
<path fill="none" stroke="lightgray" d="M177.835,-638.507C208.893,-626.955 264.63,-606.224 300.015,-593.063"/>
<polygon fill="lightgray" stroke="lightgray" points="301.266,-596.332 309.419,-589.565 298.826,-589.771 301.266,-596.332"/>
<text text-anchor="middle" x="240" y="-633.8" font-family="Times New Roman,serif" font-size="14.00" fill="lightgray">wff ( ph \/ ch )</text>
</g>
<!-- n9070 -->
<g id="node21" class="node"><title>n9070</title>
<ellipse fill="none" stroke="lightgray" cx="154" cy="-575" rx="27" ry="18"/>
<text text-anchor="middle" x="154" y="-571.3" font-family="Times New Roman,serif" font-size="14.00" fill="lightgray">wps</text>
</g>
<!-- n9069&#45;&gt;n9070 -->
<g id="edge28" class="edge"><title>n9069&#45;&gt;n9070</title>
</g>
<!-- n9068&#45;&gt;n9069 -->
<g id="edge23" class="edge"><title>n9068&#45;&gt;n9069</title>
<path fill="none" stroke="lightgray" d="M48.0834,-586.568C68.6762,-598.429 100.901,-616.991 124.206,-630.414"/>
<polygon fill="lightgray" stroke="lightgray" points="122.554,-633.502 132.966,-635.461 126.048,-627.437 122.554,-633.502"/>
<text text-anchor="middle" x="90.5" y="-625.8" font-family="Times New Roman,serif" font-size="14.00" fill="lightgray">wff ph</text>
</g>
<!-- n9071&#45;&gt;n9085 -->
<g id="edge27" class="edge"><title>n9071&#45;&gt;n9085</title>
<path fill="none" stroke="lightgray" d="M360.531,-581C423.54,-581 584.301,-581 658.518,-581"/>
<polygon fill="lightgray" stroke="lightgray" points="658.818,-584.5 668.818,-581 658.818,-577.5 658.818,-584.5"/>
<text text-anchor="middle" x="518.394" y="-584.8" font-family="Times New Roman,serif" font-size="14.00" fill="lightgray">wff ( ( ph \/ ch ) \/ ps )</text>
</g>
<!-- n9075 -->
<g id="node23" class="node"><title>n9075</title>
<ellipse fill="cyan" stroke="black" cx="333.447" cy="-486" rx="30.5947" ry="18"/>
<text text-anchor="middle" x="333.447" y="-482.3" font-family="Times New Roman,serif" font-size="14.00">orass</text>
</g>
<!-- n9071&#45;&gt;n9075 -->
<g id="edge52" class="edge"><title>n9071&#45;&gt;n9075</title>
</g>
<!-- n9070&#45;&gt;n9071 -->
<g id="edge26" class="edge"><title>n9070&#45;&gt;n9071</title>
<path fill="none" stroke="lightgray" d="M181.183,-575.885C211.674,-576.916 262.217,-578.625 296.402,-579.781"/>
<polygon fill="lightgray" stroke="lightgray" points="296.333,-583.281 306.446,-580.121 296.57,-576.285 296.333,-583.281"/>
<text text-anchor="middle" x="240" y="-583.8" font-family="Times New Roman,serif" font-size="14.00" fill="lightgray">wff ps</text>
</g>
<!-- n9072 -->
<g id="node22" class="node"><title>n9072</title>
<ellipse fill="none" stroke="lightgray" cx="154" cy="-521" rx="27" ry="18"/>
<text text-anchor="middle" x="154" y="-517.3" font-family="Times New Roman,serif" font-size="14.00" fill="lightgray">wph</text>
</g>
<!-- n9072&#45;&gt;n9075 -->
<g id="edge29" class="edge"><title>n9072&#45;&gt;n9075</title>
<path fill="none" stroke="lightgray" d="M180.047,-516.06C209.744,-510.202 259.555,-500.377 294.111,-493.561"/>
<polygon fill="lightgray" stroke="lightgray" points="295.173,-496.92 304.306,-491.551 293.818,-490.052 295.173,-496.92"/>
<text text-anchor="middle" x="240" y="-515.8" font-family="Times New Roman,serif" font-size="14.00" fill="lightgray">wff ph</text>
</g>
<!-- n9073 -->
<g id="node24" class="node"><title>n9073</title>
<ellipse fill="none" stroke="lightgray" cx="154" cy="-449" rx="27" ry="18"/>
<text text-anchor="middle" x="154" y="-445.3" font-family="Times New Roman,serif" font-size="14.00" fill="lightgray">wps</text>
</g>
<!-- n9072&#45;&gt;n9073 -->
<g id="edge33" class="edge"><title>n9072&#45;&gt;n9073</title>
</g>
<!-- n9075&#45;&gt;n9085 -->
<g id="edge32" class="edge"><title>n9075&#45;&gt;n9085</title>
<path fill="none" stroke="black" d="M362.788,-491.28C418.647,-502.019 546.599,-528.274 650.894,-562 655.287,-563.421 659.851,-565.071 664.325,-566.794"/>
<polygon fill="black" stroke="black" points="663.29,-570.15 673.875,-570.623 665.895,-563.653 663.29,-570.15"/>
<text text-anchor="middle" x="518.394" y="-565.8" font-family="Times New Roman,serif" font-size="14.00">|&#45; ( ( ( ph \/ ps ) \/ ch ) &lt;&#45;&gt; ( ph \/ ( ps \/ ch ) ) )</text>
</g>
<!-- n9079 -->
<g id="node27" class="node"><title>n9079</title>
<ellipse fill="cyan" stroke="black" cx="333.447" cy="-290" rx="27.0966" ry="18"/>
<text text-anchor="middle" x="333.447" y="-286.3" font-family="Times New Roman,serif" font-size="14.00">or12</text>
</g>
<!-- n9075&#45;&gt;n9079 -->
<g id="edge53" class="edge"><title>n9075&#45;&gt;n9079</title>
</g>
<!-- n9073&#45;&gt;n9075 -->
<g id="edge30" class="edge"><title>n9073&#45;&gt;n9075</title>
<path fill="none" stroke="lightgray" d="M180.047,-454.223C209.744,-460.415 259.555,-470.801 294.111,-478.006"/>
<polygon fill="lightgray" stroke="lightgray" points="293.802,-481.517 304.306,-480.132 295.231,-474.665 293.802,-481.517"/>
<text text-anchor="middle" x="240" y="-479.8" font-family="Times New Roman,serif" font-size="14.00" fill="lightgray">wff ps</text>
</g>
<!-- n9074 -->
<g id="node25" class="node"><title>n9074</title>
<ellipse fill="none" stroke="lightgray" cx="154" cy="-377" rx="27" ry="18"/>
<text text-anchor="middle" x="154" y="-373.3" font-family="Times New Roman,serif" font-size="14.00" fill="lightgray">wch</text>
</g>
<!-- n9073&#45;&gt;n9074 -->
<g id="edge34" class="edge"><title>n9073&#45;&gt;n9074</title>
</g>
<!-- n9074&#45;&gt;n9075 -->
<g id="edge31" class="edge"><title>n9074&#45;&gt;n9075</title>
<path fill="none" stroke="lightgray" d="M177.381,-386.032C203.368,-396.998 247.01,-416.915 281,-440 291.017,-446.803 301.143,-455.404 309.731,-463.323"/>
<polygon fill="lightgray" stroke="lightgray" points="307.469,-466.001 317.138,-470.332 312.28,-460.916 307.469,-466.001"/>
<text text-anchor="middle" x="240" y="-443.8" font-family="Times New Roman,serif" font-size="14.00" fill="lightgray">wff ch</text>
</g>
<!-- n9076 -->
<g id="node26" class="node"><title>n9076</title>
<ellipse fill="none" stroke="lightgray" cx="154" cy="-323" rx="27" ry="18"/>
<text text-anchor="middle" x="154" y="-319.3" font-family="Times New Roman,serif" font-size="14.00" fill="lightgray">wph</text>
</g>
<!-- n9076&#45;&gt;n9079 -->
<g id="edge35" class="edge"><title>n9076&#45;&gt;n9079</title>
<path fill="none" stroke="lightgray" d="M180.424,-318.272C210.994,-312.587 262.484,-303.011 296.959,-296.6"/>
<polygon fill="lightgray" stroke="lightgray" points="297.879,-299.989 307.07,-294.719 296.599,-293.107 297.879,-299.989"/>
<text text-anchor="middle" x="240" y="-318.8" font-family="Times New Roman,serif" font-size="14.00" fill="lightgray">wff ph</text>
</g>
<!-- n9077 -->
<g id="node28" class="node"><title>n9077</title>
<ellipse fill="none" stroke="lightgray" cx="154" cy="-251" rx="27" ry="18"/>
<text text-anchor="middle" x="154" y="-247.3" font-family="Times New Roman,serif" font-size="14.00" fill="lightgray">wps</text>
</g>
<!-- n9076&#45;&gt;n9077 -->
<g id="edge39" class="edge"><title>n9076&#45;&gt;n9077</title>
</g>
<!-- n9079&#45;&gt;n9085 -->
<g id="edge38" class="edge"><title>n9079&#45;&gt;n9085</title>
<path fill="none" stroke="black" d="M357.993,-298.233C415.426,-319.399 564.33,-380.955 650.894,-478 670.268,-499.72 682.726,-530.895 689.773,-553.25"/>
<polygon fill="black" stroke="black" points="686.509,-554.552 692.72,-563.135 693.217,-552.552 686.509,-554.552"/>
<text text-anchor="middle" x="518.394" y="-481.8" font-family="Times New Roman,serif" font-size="14.00">|&#45; ( ( ph \/ ( ps \/ ch ) ) &lt;&#45;&gt; ( ps \/ ( ph \/ ch ) ) )</text>
</g>
<!-- n9084 -->
<g id="node31" class="node"><title>n9084</title>
<ellipse fill="cyan" stroke="black" cx="333.447" cy="-188" rx="34.394" ry="18"/>
<text text-anchor="middle" x="333.447" y="-184.3" font-family="Times New Roman,serif" font-size="14.00">orcom</text>
</g>
<!-- n9079&#45;&gt;n9084 -->
<g id="edge54" class="edge"><title>n9079&#45;&gt;n9084</title>
</g>
<!-- n9077&#45;&gt;n9079 -->
<g id="edge36" class="edge"><title>n9077&#45;&gt;n9079</title>
<path fill="none" stroke="lightgray" d="M180.047,-256.505C210.609,-263.222 262.476,-274.622 297.093,-282.23"/>
<polygon fill="lightgray" stroke="lightgray" points="296.722,-285.732 307.24,-284.46 298.225,-278.895 296.722,-285.732"/>
<text text-anchor="middle" x="240" y="-282.8" font-family="Times New Roman,serif" font-size="14.00" fill="lightgray">wff ps</text>
</g>
<!-- n9078 -->
<g id="node29" class="node"><title>n9078</title>
<ellipse fill="none" stroke="lightgray" cx="154" cy="-179" rx="27" ry="18"/>
<text text-anchor="middle" x="154" y="-175.3" font-family="Times New Roman,serif" font-size="14.00" fill="lightgray">wch</text>
</g>
<!-- n9077&#45;&gt;n9078 -->
<g id="edge40" class="edge"><title>n9077&#45;&gt;n9078</title>
</g>
<!-- n9078&#45;&gt;n9079 -->
<g id="edge37" class="edge"><title>n9078&#45;&gt;n9079</title>
<path fill="none" stroke="lightgray" d="M177.413,-188.176C203.43,-199.317 247.1,-219.552 281,-243 291.466,-250.239 302.017,-259.464 310.816,-267.821"/>
<polygon fill="lightgray" stroke="lightgray" points="308.446,-270.399 318.052,-274.87 313.331,-265.385 308.446,-270.399"/>
<text text-anchor="middle" x="240" y="-246.8" font-family="Times New Roman,serif" font-size="14.00" fill="lightgray">wff ch</text>
</g>
<!-- n9080 -->
<g id="node30" class="node"><title>n9080</title>
<ellipse fill="none" stroke="lightgray" cx="154" cy="-125" rx="27" ry="18"/>
<text text-anchor="middle" x="154" y="-121.3" font-family="Times New Roman,serif" font-size="14.00" fill="lightgray">wps</text>
</g>
<!-- n9080&#45;&gt;n9084 -->
<g id="edge41" class="edge"><title>n9080&#45;&gt;n9084</title>
<path fill="none" stroke="lightgray" d="M180.229,-129.864C206.107,-135.298 247.239,-145.184 281,-159 288.046,-161.883 295.332,-165.534 302.127,-169.263"/>
<polygon fill="lightgray" stroke="lightgray" points="300.599,-172.421 311.02,-174.334 304.067,-166.34 300.599,-172.421"/>
<text text-anchor="middle" x="240" y="-162.8" font-family="Times New Roman,serif" font-size="14.00" fill="lightgray">wff ps</text>
</g>
<!-- n9083 -->
<g id="node33" class="node"><title>n9083</title>
<ellipse fill="none" stroke="lightgray" cx="154" cy="-53" rx="27" ry="18"/>
<text text-anchor="middle" x="154" y="-49.3" font-family="Times New Roman,serif" font-size="14.00" fill="lightgray">wo</text>
</g>
<!-- n9080&#45;&gt;n9083 -->
<g id="edge47" class="edge"><title>n9080&#45;&gt;n9083</title>
</g>
<!-- n9084&#45;&gt;n9085 -->
<g id="edge46" class="edge"><title>n9084&#45;&gt;n9085</title>
<path fill="none" stroke="black" d="M368.074,-188.195C433.523,-190.537 577.983,-205.68 650.894,-291 684.239,-330.021 693.74,-487.062 696.277,-552.331"/>
<polygon fill="black" stroke="black" points="692.793,-552.829 696.651,-562.697 699.788,-552.577 692.793,-552.829"/>
<text text-anchor="middle" x="518.394" y="-294.8" font-family="Times New Roman,serif" font-size="14.00">|&#45; ( ( ps \/ ( ph \/ ch ) ) &lt;&#45;&gt; ( ( ph \/ ch ) \/ ps ) )</text>
</g>
<!-- n9081 -->
<g id="node32" class="node"><title>n9081</title>
<ellipse fill="none" stroke="lightgray" cx="27" cy="-90" rx="27" ry="18"/>
<text text-anchor="middle" x="27" y="-86.3" font-family="Times New Roman,serif" font-size="14.00" fill="lightgray">wch</text>
</g>
<!-- n9081&#45;&gt;n9083 -->
<g id="edge42" class="edge"><title>n9081&#45;&gt;n9083</title>
<path fill="none" stroke="lightgray" d="M52.1013,-82.866C71.2097,-77.2099 98.1365,-69.2396 119.368,-62.9551"/>
<polygon fill="lightgray" stroke="lightgray" points="120.377,-66.3065 128.973,-60.1121 118.391,-59.5943 120.377,-66.3065"/>
<text text-anchor="middle" x="90.5" y="-80.8" font-family="Times New Roman,serif" font-size="14.00" fill="lightgray">wff ch</text>
</g>
<!-- n9082 -->
<g id="node34" class="node"><title>n9082</title>
<ellipse fill="none" stroke="lightgray" cx="27" cy="-18" rx="27" ry="18"/>
<text text-anchor="middle" x="27" y="-14.3" font-family="Times New Roman,serif" font-size="14.00" fill="lightgray">wph</text>
</g>
<!-- n9081&#45;&gt;n9082 -->
<g id="edge45" class="edge"><title>n9081&#45;&gt;n9082</title>
</g>
<!-- n9083&#45;&gt;n9084 -->
<g id="edge44" class="edge"><title>n9083&#45;&gt;n9084</title>
<path fill="none" stroke="lightgray" d="M178.838,-60.9293C205.789,-70.7433 249.947,-89.4697 281,-116 296.09,-128.892 309.051,-147.108 318.19,-161.991"/>
<polygon fill="lightgray" stroke="lightgray" points="315.267,-163.925 323.371,-170.75 321.292,-160.361 315.267,-163.925"/>
<text text-anchor="middle" x="240" y="-119.8" font-family="Times New Roman,serif" font-size="14.00" fill="lightgray">wff ( ph \/ ch )</text>
</g>
<!-- n9082&#45;&gt;n9083 -->
<g id="edge43" class="edge"><title>n9082&#45;&gt;n9083</title>
<path fill="none" stroke="lightgray" d="M52.1013,-24.7484C71.0013,-30.0404 97.5501,-37.474 118.671,-43.3879"/>
<polygon fill="lightgray" stroke="lightgray" points="117.973,-46.8269 128.546,-46.1529 119.86,-40.0862 117.973,-46.8269"/>
<text text-anchor="middle" x="90.5" y="-44.8" font-family="Times New Roman,serif" font-size="14.00" fill="lightgray">wff ph</text>
</g>
</g>
</svg>
