<?xml version="1.0" encoding="UTF-8" standalone="no"?>
<!DOCTYPE svg PUBLIC "-//W3C//DTD SVG 1.1//EN"
 "http://www.w3.org/Graphics/SVG/1.1/DTD/svg11.dtd">
<!-- Generated by graphviz version 2.38.0 (20140413.2041)
 -->
<!-- Title: proof_orass Pages: 1 -->
<svg width="1201pt" height="1183pt"
 viewBox="0.00 0.00 1200.78 1183.00" xmlns="http://www.w3.org/2000/svg" xmlns:xlink="http://www.w3.org/1999/xlink">
<g id="graph0" class="graph" transform="scale(1 1) rotate(0) translate(4 1179)">
<title>proof_orass</title>
<polygon fill="white" stroke="none" points="-4,4 -4,-1179 1196.78,-1179 1196.78,4 -4,4"/>
<!-- n8981 -->
<g id="node1" class="node"><title>n8981</title>
<ellipse fill="none" stroke="lightgray" cx="27" cy="-1157" rx="27" ry="18"/>
<text text-anchor="middle" x="27" y="-1153.3" font-family="Times New Roman,serif" font-size="14.00" fill="lightgray">wph</text>
</g>
<!-- n8983 -->
<g id="node2" class="node"><title>n8983</title>
<ellipse fill="none" stroke="lightgray" cx="161.447" cy="-1117" rx="27" ry="18"/>
<text text-anchor="middle" x="161.447" y="-1113.3" font-family="Times New Roman,serif" font-size="14.00" fill="lightgray">wo</text>
</g>
<!-- n8981&#45;&gt;n8983 -->
<g id="edge1" class="edge"><title>n8981&#45;&gt;n8983</title>
<path fill="none" stroke="lightgray" d="M51.9851,-1149.76C72.8947,-1143.44 103.446,-1134.21 126.8,-1127.16"/>
<polygon fill="lightgray" stroke="lightgray" points="128.079,-1130.43 136.64,-1124.19 126.055,-1123.73 128.079,-1130.43"/>
<text text-anchor="middle" x="90.5" y="-1146.8" font-family="Times New Roman,serif" font-size="14.00" fill="lightgray">wff ph</text>
</g>
<!-- n8982 -->
<g id="node3" class="node"><title>n8982</title>
<ellipse fill="none" stroke="lightgray" cx="27" cy="-1085" rx="27" ry="18"/>
<text text-anchor="middle" x="27" y="-1081.3" font-family="Times New Roman,serif" font-size="14.00" fill="lightgray">wps</text>
</g>
<!-- n8981&#45;&gt;n8982 -->
<g id="edge4" class="edge"><title>n8981&#45;&gt;n8982</title>
</g>
<!-- n8985 -->
<g id="node4" class="node"><title>n8985</title>
<ellipse fill="none" stroke="lightgray" cx="439.341" cy="-1009" rx="27" ry="18"/>
<text text-anchor="middle" x="439.341" y="-1005.3" font-family="Times New Roman,serif" font-size="14.00" fill="lightgray">wo</text>
</g>
<!-- n8983&#45;&gt;n8985 -->
<g id="edge3" class="edge"><title>n8983&#45;&gt;n8985</title>
<path fill="none" stroke="lightgray" d="M188.235,-1114.45C231.668,-1109.27 321.104,-1094.72 386.894,-1058 398.674,-1051.43 409.78,-1041.52 418.636,-1032.34"/>
<polygon fill="lightgray" stroke="lightgray" points="421.307,-1034.61 425.512,-1024.88 416.161,-1029.86 421.307,-1034.61"/>
<text text-anchor="middle" x="300.394" y="-1114.8" font-family="Times New Roman,serif" font-size="14.00" fill="lightgray">wff ( ph \/ ps )</text>
</g>
<!-- n8984 -->
<g id="node5" class="node"><title>n8984</title>
<ellipse fill="none" stroke="lightgray" cx="161.447" cy="-1045" rx="27" ry="18"/>
<text text-anchor="middle" x="161.447" y="-1041.3" font-family="Times New Roman,serif" font-size="14.00" fill="lightgray">wch</text>
</g>
<!-- n8983&#45;&gt;n8984 -->
<g id="edge7" class="edge"><title>n8983&#45;&gt;n8984</title>
</g>
<!-- n8982&#45;&gt;n8983 -->
<g id="edge2" class="edge"><title>n8982&#45;&gt;n8983</title>
<path fill="none" stroke="lightgray" d="M52.8861,-1090.21C68.9454,-1093.66 90.2599,-1098.37 109,-1103 114.757,-1104.42 120.854,-1106.01 126.761,-1107.59"/>
<polygon fill="lightgray" stroke="lightgray" points="125.861,-1110.97 136.429,-1110.21 127.694,-1104.22 125.861,-1110.97"/>
<text text-anchor="middle" x="90.5" y="-1106.8" font-family="Times New Roman,serif" font-size="14.00" fill="lightgray">wff ps</text>
</g>
<!-- n9021 -->
<g id="node6" class="node"><title>n9021</title>
<ellipse fill="cyan" stroke="black" cx="804.035" cy="-693" rx="29.4969" ry="18"/>
<text text-anchor="middle" x="804.035" y="-689.3" font-family="Times New Roman,serif" font-size="14.00">3bitri</text>
</g>
<!-- n8985&#45;&gt;n9021 -->
<g id="edge6" class="edge"><title>n8985&#45;&gt;n9021</title>
<path fill="none" stroke="lightgray" d="M466.575,-1011.13C527.273,-1014.49 678.197,-1013.6 756.788,-931 785.204,-901.134 797.21,-777.637 801.283,-721.275"/>
<polygon fill="lightgray" stroke="lightgray" points="804.777,-721.474 801.974,-711.257 797.794,-720.993 804.777,-721.474"/>
<text text-anchor="middle" x="624.288" y="-1016.8" font-family="Times New Roman,serif" font-size="14.00" fill="lightgray">wff ( ( ph \/ ps ) \/ ch )</text>
</g>
<!-- n8990 -->
<g id="node8" class="node"><title>n8990</title>
<ellipse fill="none" stroke="lightgray" cx="439.341" cy="-919" rx="27" ry="18"/>
<text text-anchor="middle" x="439.341" y="-915.3" font-family="Times New Roman,serif" font-size="14.00" fill="lightgray">wo</text>
</g>
<!-- n8985&#45;&gt;n8990 -->
<g id="edge60" class="edge"><title>n8985&#45;&gt;n8990</title>
</g>
<!-- n8984&#45;&gt;n8985 -->
<g id="edge5" class="edge"><title>n8984&#45;&gt;n8985</title>
<path fill="none" stroke="lightgray" d="M188.402,-1041.61C237.928,-1035.15 345.993,-1021.05 402.419,-1013.69"/>
<polygon fill="lightgray" stroke="lightgray" points="403.192,-1017.12 412.655,-1012.35 402.287,-1010.17 403.192,-1017.12"/>
<text text-anchor="middle" x="300.394" y="-1042.8" font-family="Times New Roman,serif" font-size="14.00" fill="lightgray">wff ch</text>
</g>
<!-- QED -->
<g id="node42" class="node"><title>QED</title>
</g>
<!-- n9021&#45;&gt;QED -->
<g id="edge59" class="edge"><title>n9021&#45;&gt;QED</title>
<path fill="none" stroke="black" d="M833.386,-693C897.135,-693 1051.85,-693 1124.13,-693"/>
<polygon fill="black" stroke="black" points="1124.18,-696.5 1134.18,-693 1124.18,-689.5 1124.18,-696.5"/>
<text text-anchor="middle" x="983.783" y="-696.8" font-family="Times New Roman,serif" font-size="14.00">|&#45; ( ( ( ph \/ ps ) \/ ch ) &lt;&#45;&gt; ( ph \/ ( ps \/ ch ) ) )</text>
</g>
<!-- n8986 -->
<g id="node7" class="node"><title>n8986</title>
<ellipse fill="none" stroke="lightgray" cx="161.447" cy="-991" rx="27" ry="18"/>
<text text-anchor="middle" x="161.447" y="-987.3" font-family="Times New Roman,serif" font-size="14.00" fill="lightgray">wch</text>
</g>
<!-- n8986&#45;&gt;n8990 -->
<g id="edge8" class="edge"><title>n8986&#45;&gt;n8990</title>
<path fill="none" stroke="lightgray" d="M187.621,-986.101C229.417,-977.735 315.593,-959.497 386.894,-938 393.175,-936.106 399.803,-933.855 406.135,-931.577"/>
<polygon fill="lightgray" stroke="lightgray" points="407.584,-934.772 415.749,-928.021 405.156,-928.207 407.584,-934.772"/>
<text text-anchor="middle" x="300.394" y="-983.8" font-family="Times New Roman,serif" font-size="14.00" fill="lightgray">wff ch</text>
</g>
<!-- n8989 -->
<g id="node10" class="node"><title>n8989</title>
<ellipse fill="none" stroke="lightgray" cx="161.447" cy="-919" rx="27" ry="18"/>
<text text-anchor="middle" x="161.447" y="-915.3" font-family="Times New Roman,serif" font-size="14.00" fill="lightgray">wo</text>
</g>
<!-- n8986&#45;&gt;n8989 -->
<g id="edge14" class="edge"><title>n8986&#45;&gt;n8989</title>
</g>
<!-- n8990&#45;&gt;n9021 -->
<g id="edge13" class="edge"><title>n8990&#45;&gt;n9021</title>
<path fill="none" stroke="lightgray" d="M466.073,-916.262C525.056,-908.688 671.49,-882.326 756.788,-801 779.292,-779.544 791.393,-745.345 797.502,-721.188"/>
<polygon fill="lightgray" stroke="lightgray" points="800.969,-721.731 799.834,-711.197 794.152,-720.139 800.969,-721.731"/>
<text text-anchor="middle" x="624.288" y="-916.8" font-family="Times New Roman,serif" font-size="14.00" fill="lightgray">wff ( ch \/ ( ph \/ ps ) )</text>
</g>
<!-- n8995 -->
<g id="node13" class="node"><title>n8995</title>
<ellipse fill="none" stroke="lightgray" cx="439.341" cy="-793" rx="27" ry="18"/>
<text text-anchor="middle" x="439.341" y="-789.3" font-family="Times New Roman,serif" font-size="14.00" fill="lightgray">wo</text>
</g>
<!-- n8990&#45;&gt;n8995 -->
<g id="edge61" class="edge"><title>n8990&#45;&gt;n8995</title>
</g>
<!-- n8987 -->
<g id="node9" class="node"><title>n8987</title>
<ellipse fill="none" stroke="lightgray" cx="27" cy="-991" rx="27" ry="18"/>
<text text-anchor="middle" x="27" y="-987.3" font-family="Times New Roman,serif" font-size="14.00" fill="lightgray">wps</text>
</g>
<!-- n8987&#45;&gt;n8989 -->
<g id="edge9" class="edge"><title>n8987&#45;&gt;n8989</title>
<path fill="none" stroke="lightgray" d="M48.4046,-979.908C70.41,-967.945 105.654,-948.786 130.735,-935.152"/>
<polygon fill="lightgray" stroke="lightgray" points="132.687,-938.075 139.801,-930.223 129.344,-931.925 132.687,-938.075"/>
<text text-anchor="middle" x="90.5" y="-969.8" font-family="Times New Roman,serif" font-size="14.00" fill="lightgray">wff ps</text>
</g>
<!-- n8988 -->
<g id="node11" class="node"><title>n8988</title>
<ellipse fill="none" stroke="lightgray" cx="27" cy="-919" rx="27" ry="18"/>
<text text-anchor="middle" x="27" y="-915.3" font-family="Times New Roman,serif" font-size="14.00" fill="lightgray">wph</text>
</g>
<!-- n8987&#45;&gt;n8988 -->
<g id="edge12" class="edge"><title>n8987&#45;&gt;n8988</title>
</g>
<!-- n8989&#45;&gt;n8990 -->
<g id="edge11" class="edge"><title>n8989&#45;&gt;n8990</title>
<path fill="none" stroke="lightgray" d="M188.901,-919C238.443,-919 345.288,-919 401.714,-919"/>
<polygon fill="lightgray" stroke="lightgray" points="401.967,-922.5 411.967,-919 401.967,-915.5 401.967,-922.5"/>
<text text-anchor="middle" x="300.394" y="-922.8" font-family="Times New Roman,serif" font-size="14.00" fill="lightgray">wff ( ph \/ ps )</text>
</g>
<!-- n8988&#45;&gt;n8989 -->
<g id="edge10" class="edge"><title>n8988&#45;&gt;n8989</title>
<path fill="none" stroke="lightgray" d="M54.1673,-919C74.2124,-919 102.101,-919 124.28,-919"/>
<polygon fill="lightgray" stroke="lightgray" points="124.334,-922.5 134.334,-919 124.334,-915.5 124.334,-922.5"/>
<text text-anchor="middle" x="90.5" y="-922.8" font-family="Times New Roman,serif" font-size="14.00" fill="lightgray">wff ph</text>
</g>
<!-- n8991 -->
<g id="node12" class="node"><title>n8991</title>
<ellipse fill="none" stroke="lightgray" cx="161.447" cy="-865" rx="27" ry="18"/>
<text text-anchor="middle" x="161.447" y="-861.3" font-family="Times New Roman,serif" font-size="14.00" fill="lightgray">wph</text>
</g>
<!-- n8991&#45;&gt;n8995 -->
<g id="edge15" class="edge"><title>n8991&#45;&gt;n8995</title>
<path fill="none" stroke="lightgray" d="M187.621,-860.101C229.417,-851.735 315.593,-833.497 386.894,-812 393.175,-810.106 399.803,-807.855 406.135,-805.577"/>
<polygon fill="lightgray" stroke="lightgray" points="407.584,-808.772 415.749,-802.021 405.156,-802.207 407.584,-808.772"/>
<text text-anchor="middle" x="300.394" y="-857.8" font-family="Times New Roman,serif" font-size="14.00" fill="lightgray">wff ph</text>
</g>
<!-- n8994 -->
<g id="node15" class="node"><title>n8994</title>
<ellipse fill="none" stroke="lightgray" cx="161.447" cy="-793" rx="27" ry="18"/>
<text text-anchor="middle" x="161.447" y="-789.3" font-family="Times New Roman,serif" font-size="14.00" fill="lightgray">wo</text>
</g>
<!-- n8991&#45;&gt;n8994 -->
<g id="edge21" class="edge"><title>n8991&#45;&gt;n8994</title>
</g>
<!-- n8995&#45;&gt;n9021 -->
<g id="edge20" class="edge"><title>n8995&#45;&gt;n9021</title>
<path fill="none" stroke="lightgray" d="M465.299,-787.853C519.194,-776.469 650.209,-747.343 756.788,-712 761.17,-710.547 765.727,-708.877 770.198,-707.144"/>
<polygon fill="lightgray" stroke="lightgray" points="771.772,-710.284 779.746,-703.307 769.162,-703.789 771.772,-710.284"/>
<text text-anchor="middle" x="624.288" y="-785.8" font-family="Times New Roman,serif" font-size="14.00" fill="lightgray">wff ( ph \/ ( ch \/ ps ) )</text>
</g>
<!-- n9000 -->
<g id="node18" class="node"><title>n9000</title>
<ellipse fill="none" stroke="lightgray" cx="439.341" cy="-693" rx="27" ry="18"/>
<text text-anchor="middle" x="439.341" y="-689.3" font-family="Times New Roman,serif" font-size="14.00" fill="lightgray">wo</text>
</g>
<!-- n8995&#45;&gt;n9000 -->
<g id="edge62" class="edge"><title>n8995&#45;&gt;n9000</title>
</g>
<!-- n8992 -->
<g id="node14" class="node"><title>n8992</title>
<ellipse fill="none" stroke="lightgray" cx="27" cy="-865" rx="27" ry="18"/>
<text text-anchor="middle" x="27" y="-861.3" font-family="Times New Roman,serif" font-size="14.00" fill="lightgray">wch</text>
</g>
<!-- n8992&#45;&gt;n8994 -->
<g id="edge16" class="edge"><title>n8992&#45;&gt;n8994</title>
<path fill="none" stroke="lightgray" d="M48.4046,-853.908C70.41,-841.945 105.654,-822.786 130.735,-809.152"/>
<polygon fill="lightgray" stroke="lightgray" points="132.687,-812.075 139.801,-804.223 129.344,-805.925 132.687,-812.075"/>
<text text-anchor="middle" x="90.5" y="-843.8" font-family="Times New Roman,serif" font-size="14.00" fill="lightgray">wff ch</text>
</g>
<!-- n8993 -->
<g id="node16" class="node"><title>n8993</title>
<ellipse fill="none" stroke="lightgray" cx="27" cy="-793" rx="27" ry="18"/>
<text text-anchor="middle" x="27" y="-789.3" font-family="Times New Roman,serif" font-size="14.00" fill="lightgray">wps</text>
</g>
<!-- n8992&#45;&gt;n8993 -->
<g id="edge19" class="edge"><title>n8992&#45;&gt;n8993</title>
</g>
<!-- n8994&#45;&gt;n8995 -->
<g id="edge18" class="edge"><title>n8994&#45;&gt;n8995</title>
<path fill="none" stroke="lightgray" d="M188.901,-793C238.443,-793 345.288,-793 401.714,-793"/>
<polygon fill="lightgray" stroke="lightgray" points="401.967,-796.5 411.967,-793 401.967,-789.5 401.967,-796.5"/>
<text text-anchor="middle" x="300.394" y="-796.8" font-family="Times New Roman,serif" font-size="14.00" fill="lightgray">wff ( ch \/ ps )</text>
</g>
<!-- n8993&#45;&gt;n8994 -->
<g id="edge17" class="edge"><title>n8993&#45;&gt;n8994</title>
<path fill="none" stroke="lightgray" d="M54.1673,-793C74.2124,-793 102.101,-793 124.28,-793"/>
<polygon fill="lightgray" stroke="lightgray" points="124.334,-796.5 134.334,-793 124.334,-789.5 124.334,-796.5"/>
<text text-anchor="middle" x="90.5" y="-796.8" font-family="Times New Roman,serif" font-size="14.00" fill="lightgray">wff ps</text>
</g>
<!-- n8996 -->
<g id="node17" class="node"><title>n8996</title>
<ellipse fill="none" stroke="lightgray" cx="161.447" cy="-739" rx="27" ry="18"/>
<text text-anchor="middle" x="161.447" y="-735.3" font-family="Times New Roman,serif" font-size="14.00" fill="lightgray">wph</text>
</g>
<!-- n8996&#45;&gt;n9000 -->
<g id="edge22" class="edge"><title>n8996&#45;&gt;n9000</title>
<path fill="none" stroke="lightgray" d="M188.241,-736.678C230.205,-732.623 315.727,-723.204 386.894,-708 392.781,-706.742 398.978,-705.162 404.954,-703.503"/>
<polygon fill="lightgray" stroke="lightgray" points="406.074,-706.822 414.705,-700.679 404.126,-700.099 406.074,-706.822"/>
<text text-anchor="middle" x="300.394" y="-737.8" font-family="Times New Roman,serif" font-size="14.00" fill="lightgray">wff ph</text>
</g>
<!-- n8999 -->
<g id="node20" class="node"><title>n8999</title>
<ellipse fill="none" stroke="lightgray" cx="161.447" cy="-667" rx="27" ry="18"/>
<text text-anchor="middle" x="161.447" y="-663.3" font-family="Times New Roman,serif" font-size="14.00" fill="lightgray">wo</text>
</g>
<!-- n8996&#45;&gt;n8999 -->
<g id="edge28" class="edge"><title>n8996&#45;&gt;n8999</title>
</g>
<!-- n9000&#45;&gt;n9021 -->
<g id="edge27" class="edge"><title>n9000&#45;&gt;n9021</title>
<path fill="none" stroke="lightgray" d="M466.425,-693C529.434,-693 690.195,-693 764.412,-693"/>
<polygon fill="lightgray" stroke="lightgray" points="764.712,-696.5 774.712,-693 764.712,-689.5 764.712,-696.5"/>
<text text-anchor="middle" x="624.288" y="-696.8" font-family="Times New Roman,serif" font-size="14.00" fill="lightgray">wff ( ph \/ ( ps \/ ch ) )</text>
</g>
<!-- n9005 -->
<g id="node25" class="node"><title>n9005</title>
<ellipse fill="cyan" stroke="black" cx="439.341" cy="-613" rx="34.394" ry="18"/>
<text text-anchor="middle" x="439.341" y="-609.3" font-family="Times New Roman,serif" font-size="14.00">orcom</text>
</g>
<!-- n9000&#45;&gt;n9005 -->
<g id="edge63" class="edge"><title>n9000&#45;&gt;n9005</title>
</g>
<!-- n8997 -->
<g id="node19" class="node"><title>n8997</title>
<ellipse fill="none" stroke="lightgray" cx="27" cy="-739" rx="27" ry="18"/>
<text text-anchor="middle" x="27" y="-735.3" font-family="Times New Roman,serif" font-size="14.00" fill="lightgray">wps</text>
</g>
<!-- n8997&#45;&gt;n8999 -->
<g id="edge23" class="edge"><title>n8997&#45;&gt;n8999</title>
<path fill="none" stroke="lightgray" d="M48.4046,-727.908C70.41,-715.945 105.654,-696.786 130.735,-683.152"/>
<polygon fill="lightgray" stroke="lightgray" points="132.687,-686.075 139.801,-678.223 129.344,-679.925 132.687,-686.075"/>
<text text-anchor="middle" x="90.5" y="-717.8" font-family="Times New Roman,serif" font-size="14.00" fill="lightgray">wff ps</text>
</g>
<!-- n8998 -->
<g id="node21" class="node"><title>n8998</title>
<ellipse fill="none" stroke="lightgray" cx="27" cy="-667" rx="27" ry="18"/>
<text text-anchor="middle" x="27" y="-663.3" font-family="Times New Roman,serif" font-size="14.00" fill="lightgray">wch</text>
</g>
<!-- n8997&#45;&gt;n8998 -->
<g id="edge26" class="edge"><title>n8997&#45;&gt;n8998</title>
</g>
<!-- n8999&#45;&gt;n9000 -->
<g id="edge25" class="edge"><title>n8999&#45;&gt;n9000</title>
<path fill="none" stroke="lightgray" d="M188.402,-669.446C237.802,-674.101 345.443,-684.245 401.987,-689.574"/>
<polygon fill="lightgray" stroke="lightgray" points="401.969,-693.088 412.253,-690.542 402.626,-686.119 401.969,-693.088"/>
<text text-anchor="middle" x="300.394" y="-692.8" font-family="Times New Roman,serif" font-size="14.00" fill="lightgray">wff ( ps \/ ch )</text>
</g>
<!-- n8998&#45;&gt;n8999 -->
<g id="edge24" class="edge"><title>n8998&#45;&gt;n8999</title>
<path fill="none" stroke="lightgray" d="M54.1673,-667C74.2124,-667 102.101,-667 124.28,-667"/>
<polygon fill="lightgray" stroke="lightgray" points="124.334,-670.5 134.334,-667 124.334,-663.5 124.334,-670.5"/>
<text text-anchor="middle" x="90.5" y="-670.8" font-family="Times New Roman,serif" font-size="14.00" fill="lightgray">wff ch</text>
</g>
<!-- n9001 -->
<g id="node22" class="node"><title>n9001</title>
<ellipse fill="none" stroke="lightgray" cx="27" cy="-613" rx="27" ry="18"/>
<text text-anchor="middle" x="27" y="-609.3" font-family="Times New Roman,serif" font-size="14.00" fill="lightgray">wps</text>
</g>
<!-- n9003 -->
<g id="node23" class="node"><title>n9003</title>
<ellipse fill="none" stroke="lightgray" cx="161.447" cy="-613" rx="27" ry="18"/>
<text text-anchor="middle" x="161.447" y="-609.3" font-family="Times New Roman,serif" font-size="14.00" fill="lightgray">wo</text>
</g>
<!-- n9001&#45;&gt;n9003 -->
<g id="edge29" class="edge"><title>n9001&#45;&gt;n9003</title>
<path fill="none" stroke="lightgray" d="M54.1673,-613C74.2124,-613 102.101,-613 124.28,-613"/>
<polygon fill="lightgray" stroke="lightgray" points="124.334,-616.5 134.334,-613 124.334,-609.5 124.334,-616.5"/>
<text text-anchor="middle" x="90.5" y="-616.8" font-family="Times New Roman,serif" font-size="14.00" fill="lightgray">wff ps</text>
</g>
<!-- n9002 -->
<g id="node24" class="node"><title>n9002</title>
<ellipse fill="none" stroke="lightgray" cx="27" cy="-541" rx="27" ry="18"/>
<text text-anchor="middle" x="27" y="-537.3" font-family="Times New Roman,serif" font-size="14.00" fill="lightgray">wph</text>
</g>
<!-- n9001&#45;&gt;n9002 -->
<g id="edge32" class="edge"><title>n9001&#45;&gt;n9002</title>
</g>
<!-- n9003&#45;&gt;n9005 -->
<g id="edge31" class="edge"><title>n9003&#45;&gt;n9005</title>
<path fill="none" stroke="lightgray" d="M188.901,-613C236.387,-613 336.521,-613 394.438,-613"/>
<polygon fill="lightgray" stroke="lightgray" points="394.739,-616.5 404.739,-613 394.739,-609.5 394.739,-616.5"/>
<text text-anchor="middle" x="300.394" y="-616.8" font-family="Times New Roman,serif" font-size="14.00" fill="lightgray">wff ( ph \/ ps )</text>
</g>
<!-- n9004 -->
<g id="node26" class="node"><title>n9004</title>
<ellipse fill="none" stroke="lightgray" cx="161.447" cy="-541" rx="27" ry="18"/>
<text text-anchor="middle" x="161.447" y="-537.3" font-family="Times New Roman,serif" font-size="14.00" fill="lightgray">wch</text>
</g>
<!-- n9003&#45;&gt;n9004 -->
<g id="edge35" class="edge"><title>n9003&#45;&gt;n9004</title>
</g>
<!-- n9002&#45;&gt;n9003 -->
<g id="edge30" class="edge"><title>n9002&#45;&gt;n9003</title>
<path fill="none" stroke="lightgray" d="M48.4046,-552.092C70.41,-564.055 105.654,-583.214 130.735,-596.848"/>
<polygon fill="lightgray" stroke="lightgray" points="129.344,-600.075 139.801,-601.777 132.687,-593.925 129.344,-600.075"/>
<text text-anchor="middle" x="90.5" y="-587.8" font-family="Times New Roman,serif" font-size="14.00" fill="lightgray">wff ph</text>
</g>
<!-- n9005&#45;&gt;n9021 -->
<g id="edge34" class="edge"><title>n9005&#45;&gt;n9021</title>
<path fill="none" stroke="black" d="M473.2,-617.132C531.267,-624.917 655.461,-643.75 756.788,-674 761.212,-675.321 765.794,-676.913 770.277,-678.606"/>
<polygon fill="black" stroke="black" points="769.249,-681.964 779.835,-682.411 771.838,-675.461 769.249,-681.964"/>
<text text-anchor="middle" x="624.288" y="-677.8" font-family="Times New Roman,serif" font-size="14.00">|&#45; ( ( ( ph \/ ps ) \/ ch ) &lt;&#45;&gt; ( ch \/ ( ph \/ ps ) ) )</text>
</g>
<!-- n9009 -->
<g id="node28" class="node"><title>n9009</title>
<ellipse fill="cyan" stroke="black" cx="439.341" cy="-452" rx="27.0966" ry="18"/>
<text text-anchor="middle" x="439.341" y="-448.3" font-family="Times New Roman,serif" font-size="14.00">or12</text>
</g>
<!-- n9005&#45;&gt;n9009 -->
<g id="edge64" class="edge"><title>n9005&#45;&gt;n9009</title>
</g>
<!-- n9004&#45;&gt;n9005 -->
<g id="edge33" class="edge"><title>n9004&#45;&gt;n9005</title>
<path fill="none" stroke="lightgray" d="M187.621,-545.899C229.417,-554.265 315.593,-572.503 386.894,-594 391.782,-595.474 396.88,-597.164 401.885,-598.915"/>
<polygon fill="lightgray" stroke="lightgray" points="400.722,-602.216 411.317,-602.317 403.097,-595.631 400.722,-602.216"/>
<text text-anchor="middle" x="300.394" y="-597.8" font-family="Times New Roman,serif" font-size="14.00" fill="lightgray">wff ch</text>
</g>
<!-- n9006 -->
<g id="node27" class="node"><title>n9006</title>
<ellipse fill="none" stroke="lightgray" cx="161.447" cy="-487" rx="27" ry="18"/>
<text text-anchor="middle" x="161.447" y="-483.3" font-family="Times New Roman,serif" font-size="14.00" fill="lightgray">wch</text>
</g>
<!-- n9006&#45;&gt;n9009 -->
<g id="edge36" class="edge"><title>n9006&#45;&gt;n9009</title>
<path fill="none" stroke="lightgray" d="M188.402,-483.707C237.802,-477.44 345.443,-463.785 401.987,-456.612"/>
<polygon fill="lightgray" stroke="lightgray" points="402.773,-460.04 412.253,-455.309 401.892,-453.096 402.773,-460.04"/>
<text text-anchor="middle" x="300.394" y="-484.8" font-family="Times New Roman,serif" font-size="14.00" fill="lightgray">wff ch</text>
</g>
<!-- n9007 -->
<g id="node29" class="node"><title>n9007</title>
<ellipse fill="none" stroke="lightgray" cx="161.447" cy="-415" rx="27" ry="18"/>
<text text-anchor="middle" x="161.447" y="-411.3" font-family="Times New Roman,serif" font-size="14.00" fill="lightgray">wph</text>
</g>
<!-- n9006&#45;&gt;n9007 -->
<g id="edge40" class="edge"><title>n9006&#45;&gt;n9007</title>
</g>
<!-- n9009&#45;&gt;n9021 -->
<g id="edge39" class="edge"><title>n9009&#45;&gt;n9021</title>
<path fill="none" stroke="black" d="M465.346,-457.772C523.426,-472.326 669.161,-515.6 756.788,-601 775.187,-618.932 787.504,-645.726 794.768,-665.779"/>
<polygon fill="black" stroke="black" points="791.474,-666.963 798.022,-675.291 798.097,-664.697 791.474,-666.963"/>
<text text-anchor="middle" x="624.288" y="-604.8" font-family="Times New Roman,serif" font-size="14.00">|&#45; ( ( ch \/ ( ph \/ ps ) ) &lt;&#45;&gt; ( ph \/ ( ch \/ ps ) ) )</text>
</g>
<!-- n9020 -->
<g id="node34" class="node"><title>n9020</title>
<ellipse fill="cyan" stroke="black" cx="439.341" cy="-258" rx="31.6951" ry="18"/>
<text text-anchor="middle" x="439.341" y="-254.3" font-family="Times New Roman,serif" font-size="14.00">orbi2i</text>
</g>
<!-- n9009&#45;&gt;n9020 -->
<g id="edge65" class="edge"><title>n9009&#45;&gt;n9020</title>
</g>
<!-- n9007&#45;&gt;n9009 -->
<g id="edge37" class="edge"><title>n9007&#45;&gt;n9009</title>
<path fill="none" stroke="lightgray" d="M188.508,-416.896C230.489,-420.177 315.599,-427.759 386.894,-440 392.374,-440.941 398.144,-442.109 403.759,-443.344"/>
<polygon fill="lightgray" stroke="lightgray" points="403.073,-446.778 413.602,-445.605 404.639,-439.955 403.073,-446.778"/>
<text text-anchor="middle" x="300.394" y="-443.8" font-family="Times New Roman,serif" font-size="14.00" fill="lightgray">wff ph</text>
</g>
<!-- n9008 -->
<g id="node30" class="node"><title>n9008</title>
<ellipse fill="none" stroke="lightgray" cx="161.447" cy="-343" rx="27" ry="18"/>
<text text-anchor="middle" x="161.447" y="-339.3" font-family="Times New Roman,serif" font-size="14.00" fill="lightgray">wps</text>
</g>
<!-- n9007&#45;&gt;n9008 -->
<g id="edge41" class="edge"><title>n9007&#45;&gt;n9008</title>
</g>
<!-- n9008&#45;&gt;n9009 -->
<g id="edge38" class="edge"><title>n9008&#45;&gt;n9009</title>
<path fill="none" stroke="lightgray" d="M188.314,-345.263C231.864,-350.001 321.468,-363.803 386.894,-401 399.144,-407.965 410.527,-418.603 419.454,-428.364"/>
<polygon fill="lightgray" stroke="lightgray" points="416.84,-430.692 426.057,-435.918 422.111,-426.085 416.84,-430.692"/>
<text text-anchor="middle" x="300.394" y="-404.8" font-family="Times New Roman,serif" font-size="14.00" fill="lightgray">wff ps</text>
</g>
<!-- n9010 -->
<g id="node31" class="node"><title>n9010</title>
<ellipse fill="none" stroke="lightgray" cx="27" cy="-351" rx="27" ry="18"/>
<text text-anchor="middle" x="27" y="-347.3" font-family="Times New Roman,serif" font-size="14.00" fill="lightgray">wps</text>
</g>
<!-- n9012 -->
<g id="node32" class="node"><title>n9012</title>
<ellipse fill="none" stroke="lightgray" cx="161.447" cy="-289" rx="27" ry="18"/>
<text text-anchor="middle" x="161.447" y="-285.3" font-family="Times New Roman,serif" font-size="14.00" fill="lightgray">wo</text>
</g>
<!-- n9010&#45;&gt;n9012 -->
<g id="edge42" class="edge"><title>n9010&#45;&gt;n9012</title>
<path fill="none" stroke="lightgray" d="M49.5747,-340.901C71.3177,-330.722 105.081,-314.918 129.638,-303.422"/>
<polygon fill="lightgray" stroke="lightgray" points="131.309,-306.505 138.882,-299.095 128.341,-300.165 131.309,-306.505"/>
<text text-anchor="middle" x="90.5" y="-333.8" font-family="Times New Roman,serif" font-size="14.00" fill="lightgray">wff ps</text>
</g>
<!-- n9011 -->
<g id="node33" class="node"><title>n9011</title>
<ellipse fill="none" stroke="lightgray" cx="27" cy="-279" rx="27" ry="18"/>
<text text-anchor="middle" x="27" y="-275.3" font-family="Times New Roman,serif" font-size="14.00" fill="lightgray">wch</text>
</g>
<!-- n9010&#45;&gt;n9011 -->
<g id="edge45" class="edge"><title>n9010&#45;&gt;n9011</title>
</g>
<!-- n9012&#45;&gt;n9020 -->
<g id="edge44" class="edge"><title>n9012&#45;&gt;n9020</title>
<path fill="none" stroke="lightgray" d="M188.402,-286.084C236.515,-280.678 339.877,-269.064 397.468,-262.593"/>
<polygon fill="lightgray" stroke="lightgray" points="398.118,-266.042 407.665,-261.447 397.336,-259.085 398.118,-266.042"/>
<text text-anchor="middle" x="300.394" y="-287.8" font-family="Times New Roman,serif" font-size="14.00" fill="lightgray">wff ( ch \/ ps )</text>
</g>
<!-- n9015 -->
<g id="node36" class="node"><title>n9015</title>
<ellipse fill="none" stroke="lightgray" cx="161.447" cy="-217" rx="27" ry="18"/>
<text text-anchor="middle" x="161.447" y="-213.3" font-family="Times New Roman,serif" font-size="14.00" fill="lightgray">wo</text>
</g>
<!-- n9012&#45;&gt;n9015 -->
<g id="edge56" class="edge"><title>n9012&#45;&gt;n9015</title>
</g>
<!-- n9011&#45;&gt;n9012 -->
<g id="edge43" class="edge"><title>n9011&#45;&gt;n9012</title>
<path fill="none" stroke="lightgray" d="M53.8515,-280.952C73.8683,-282.463 101.843,-284.575 124.111,-286.257"/>
<polygon fill="lightgray" stroke="lightgray" points="123.973,-289.756 134.208,-287.019 124.5,-282.776 123.973,-289.756"/>
<text text-anchor="middle" x="90.5" y="-288.8" font-family="Times New Roman,serif" font-size="14.00" fill="lightgray">wff ch</text>
</g>
<!-- n9020&#45;&gt;n9021 -->
<g id="edge55" class="edge"><title>n9020&#45;&gt;n9021</title>
<path fill="none" stroke="black" d="M468.161,-265.96C530.848,-285.44 683.38,-341.771 756.788,-447 781.197,-481.99 795.369,-608.017 800.648,-664.852"/>
<polygon fill="black" stroke="black" points="797.173,-665.291 801.558,-674.935 804.145,-664.661 797.173,-665.291"/>
<text text-anchor="middle" x="624.288" y="-450.8" font-family="Times New Roman,serif" font-size="14.00">|&#45; ( ( ph \/ ( ch \/ ps ) ) &lt;&#45;&gt; ( ph \/ ( ps \/ ch ) ) )</text>
</g>
<!-- n9013 -->
<g id="node35" class="node"><title>n9013</title>
<ellipse fill="none" stroke="lightgray" cx="27" cy="-223" rx="27" ry="18"/>
<text text-anchor="middle" x="27" y="-219.3" font-family="Times New Roman,serif" font-size="14.00" fill="lightgray">wch</text>
</g>
<!-- n9013&#45;&gt;n9015 -->
<g id="edge46" class="edge"><title>n9013&#45;&gt;n9015</title>
<path fill="none" stroke="lightgray" d="M54.1673,-221.815C74.2124,-220.907 102.101,-219.643 124.28,-218.638"/>
<polygon fill="lightgray" stroke="lightgray" points="124.503,-222.132 134.334,-218.183 124.186,-215.139 124.503,-222.132"/>
<text text-anchor="middle" x="90.5" y="-224.8" font-family="Times New Roman,serif" font-size="14.00" fill="lightgray">wff ch</text>
</g>
<!-- n9014 -->
<g id="node37" class="node"><title>n9014</title>
<ellipse fill="none" stroke="lightgray" cx="27" cy="-151" rx="27" ry="18"/>
<text text-anchor="middle" x="27" y="-147.3" font-family="Times New Roman,serif" font-size="14.00" fill="lightgray">wps</text>
</g>
<!-- n9013&#45;&gt;n9014 -->
<g id="edge49" class="edge"><title>n9013&#45;&gt;n9014</title>
</g>
<!-- n9015&#45;&gt;n9020 -->
<g id="edge48" class="edge"><title>n9015&#45;&gt;n9020</title>
<path fill="none" stroke="lightgray" d="M188.529,-219.2C230.539,-222.98 315.691,-231.615 386.894,-245 391.343,-245.836 395.98,-246.831 400.568,-247.891"/>
<polygon fill="lightgray" stroke="lightgray" points="399.901,-251.331 410.444,-250.284 401.549,-244.528 399.901,-251.331"/>
<text text-anchor="middle" x="300.394" y="-248.8" font-family="Times New Roman,serif" font-size="14.00" fill="lightgray">wff ( ps \/ ch )</text>
</g>
<!-- n9016 -->
<g id="node38" class="node"><title>n9016</title>
<ellipse fill="none" stroke="lightgray" cx="161.447" cy="-145" rx="27" ry="18"/>
<text text-anchor="middle" x="161.447" y="-141.3" font-family="Times New Roman,serif" font-size="14.00" fill="lightgray">wph</text>
</g>
<!-- n9015&#45;&gt;n9016 -->
<g id="edge57" class="edge"><title>n9015&#45;&gt;n9016</title>
</g>
<!-- n9014&#45;&gt;n9015 -->
<g id="edge47" class="edge"><title>n9014&#45;&gt;n9015</title>
<path fill="none" stroke="lightgray" d="M48.9866,-161.458C70.8482,-172.352 105.309,-189.524 130.127,-201.891"/>
<polygon fill="lightgray" stroke="lightgray" points="128.609,-205.045 139.12,-206.372 131.731,-198.78 128.609,-205.045"/>
<text text-anchor="middle" x="90.5" y="-193.8" font-family="Times New Roman,serif" font-size="14.00" fill="lightgray">wff ps</text>
</g>
<!-- n9016&#45;&gt;n9020 -->
<g id="edge50" class="edge"><title>n9016&#45;&gt;n9020</title>
<path fill="none" stroke="lightgray" d="M188.47,-146.995C232.248,-151.339 322.181,-164.576 386.894,-203 399.884,-210.713 411.629,-222.668 420.606,-233.465"/>
<polygon fill="lightgray" stroke="lightgray" points="417.949,-235.747 426.906,-241.406 423.433,-231.396 417.949,-235.747"/>
<text text-anchor="middle" x="300.394" y="-206.8" font-family="Times New Roman,serif" font-size="14.00" fill="lightgray">wff ph</text>
</g>
<!-- n9019 -->
<g id="node40" class="node"><title>n9019</title>
<ellipse fill="cyan" stroke="black" cx="161.447" cy="-73" rx="34.394" ry="18"/>
<text text-anchor="middle" x="161.447" y="-69.3" font-family="Times New Roman,serif" font-size="14.00">orcom</text>
</g>
<!-- n9016&#45;&gt;n9019 -->
<g id="edge58" class="edge"><title>n9016&#45;&gt;n9019</title>
</g>
<!-- n9017 -->
<g id="node39" class="node"><title>n9017</title>
<ellipse fill="none" stroke="lightgray" cx="27" cy="-90" rx="27" ry="18"/>
<text text-anchor="middle" x="27" y="-86.3" font-family="Times New Roman,serif" font-size="14.00" fill="lightgray">wch</text>
</g>
<!-- n9017&#45;&gt;n9019 -->
<g id="edge51" class="edge"><title>n9017&#45;&gt;n9019</title>
<path fill="none" stroke="lightgray" d="M53.8515,-86.6819C71.9663,-84.3568 96.5982,-81.1952 117.621,-78.4969"/>
<polygon fill="lightgray" stroke="lightgray" points="118.133,-81.9599 127.606,-77.2152 117.242,-75.0169 118.133,-81.9599"/>
<text text-anchor="middle" x="90.5" y="-88.8" font-family="Times New Roman,serif" font-size="14.00" fill="lightgray">wff ch</text>
</g>
<!-- n9018 -->
<g id="node41" class="node"><title>n9018</title>
<ellipse fill="none" stroke="lightgray" cx="27" cy="-18" rx="27" ry="18"/>
<text text-anchor="middle" x="27" y="-14.3" font-family="Times New Roman,serif" font-size="14.00" fill="lightgray">wps</text>
</g>
<!-- n9017&#45;&gt;n9018 -->
<g id="edge54" class="edge"><title>n9017&#45;&gt;n9018</title>
</g>
<!-- n9019&#45;&gt;n9020 -->
<g id="edge53" class="edge"><title>n9019&#45;&gt;n9020</title>
<path fill="none" stroke="black" d="M196.032,-72.8803C244.054,-74.4892 332.527,-84.3072 386.894,-132 415.717,-157.285 428.671,-201.14 434.292,-229.865"/>
<polygon fill="black" stroke="black" points="430.909,-230.83 436.106,-240.062 437.801,-229.604 430.909,-230.83"/>
<text text-anchor="middle" x="300.394" y="-135.8" font-family="Times New Roman,serif" font-size="14.00">|&#45; ( ( ch \/ ps ) &lt;&#45;&gt; ( ps \/ ch ) )</text>
</g>
<!-- n9018&#45;&gt;n9019 -->
<g id="edge52" class="edge"><title>n9018&#45;&gt;n9019</title>
<path fill="none" stroke="lightgray" d="M50.4678,-27.33C70.7063,-35.7342 100.813,-48.2366 124.413,-58.0365"/>
<polygon fill="lightgray" stroke="lightgray" points="123.176,-61.3127 133.754,-61.9154 125.861,-54.8479 123.176,-61.3127"/>
<text text-anchor="middle" x="90.5" y="-54.8" font-family="Times New Roman,serif" font-size="14.00" fill="lightgray">wff ps</text>
</g>
</g>
</svg>
