<?xml version="1.0" encoding="UTF-8" standalone="no"?>
<!DOCTYPE svg PUBLIC "-//W3C//DTD SVG 1.1//EN"
 "http://www.w3.org/Graphics/SVG/1.1/DTD/svg11.dtd">
<!-- Generated by graphviz version 2.38.0 (20140413.2041)
 -->
<!-- Title: proof_orbi1d Pages: 1 -->
<svg width="931pt" height="1088pt"
 viewBox="0.00 0.00 930.68 1088.00" xmlns="http://www.w3.org/2000/svg" xmlns:xlink="http://www.w3.org/1999/xlink">
<g id="graph0" class="graph" transform="scale(1 1) rotate(0) translate(4 1084)">
<title>proof_orbi1d</title>
<polygon fill="white" stroke="none" points="-4,4 -4,-1084 926.677,-1084 926.677,4 -4,4"/>
<!-- n11949 -->
<g id="node1" class="node"><title>n11949</title>
<ellipse fill="none" stroke="lightgray" cx="262.942" cy="-982" rx="27" ry="18"/>
<text text-anchor="middle" x="262.942" y="-978.3" font-family="Times New Roman,serif" font-size="14.00" fill="lightgray">wph</text>
</g>
<!-- n11974 -->
<g id="node2" class="node"><title>n11974</title>
<ellipse fill="cyan" stroke="black" cx="580.785" cy="-711" rx="36.2938" ry="18"/>
<text text-anchor="middle" x="580.785" y="-707.3" font-family="Times New Roman,serif" font-size="14.00">3bitr4g</text>
</g>
<!-- n11949&#45;&gt;n11974 -->
<g id="edge1" class="edge"><title>n11949&#45;&gt;n11974</title>
<path fill="none" stroke="lightgray" d="M289.602,-985.028C341.737,-989.641 460.661,-992.091 526.389,-929 553.543,-902.935 570.123,-792.06 576.624,-739.222"/>
<polygon fill="lightgray" stroke="lightgray" points="580.113,-739.519 577.824,-729.175 573.162,-738.689 580.113,-739.519"/>
<text text-anchor="middle" x="420.889" y="-990.8" font-family="Times New Roman,serif" font-size="14.00" fill="lightgray">wff ph</text>
</g>
<!-- n11952 -->
<g id="node4" class="node"><title>n11952</title>
<ellipse fill="none" stroke="lightgray" cx="262.942" cy="-910" rx="27" ry="18"/>
<text text-anchor="middle" x="262.942" y="-906.3" font-family="Times New Roman,serif" font-size="14.00" fill="lightgray">wo</text>
</g>
<!-- n11949&#45;&gt;n11952 -->
<g id="edge37" class="edge"><title>n11949&#45;&gt;n11952</title>
</g>
<!-- QED -->
<g id="node27" class="node"><title>QED</title>
</g>
<!-- n11974&#45;&gt;QED -->
<g id="edge36" class="edge"><title>n11974&#45;&gt;QED</title>
<path fill="none" stroke="black" d="M617.42,-711C676.204,-711 793.02,-711 853.745,-711"/>
<polygon fill="black" stroke="black" points="854.052,-714.5 864.051,-711 854.051,-707.5 854.052,-714.5"/>
<text text-anchor="middle" x="740.682" y="-714.8" font-family="Times New Roman,serif" font-size="14.00">|&#45; ( ph &#45;&gt; ( ( ps / th ) &lt;&#45;&gt; ( ch / th ) ) )</text>
</g>
<!-- n11950 -->
<g id="node3" class="node"><title>n11950</title>
<ellipse fill="none" stroke="lightgray" cx="29.2474" cy="-1062" rx="27" ry="18"/>
<text text-anchor="middle" x="29.2474" y="-1058.3" font-family="Times New Roman,serif" font-size="14.00" fill="lightgray">wth</text>
</g>
<!-- n11950&#45;&gt;n11952 -->
<g id="edge2" class="edge"><title>n11950&#45;&gt;n11952</title>
<path fill="none" stroke="lightgray" d="M55.997,-1059.21C94.3236,-1053.78 166.566,-1038.42 210.495,-997 225.271,-983.068 218.368,-972.604 228.495,-955 232.659,-947.762 237.787,-940.322 242.767,-933.628"/>
<polygon fill="lightgray" stroke="lightgray" points="245.601,-935.684 248.911,-925.62 240.047,-931.424 245.601,-935.684"/>
<text text-anchor="middle" x="143.495" y="-1058.8" font-family="Times New Roman,serif" font-size="14.00" fill="lightgray">wff th</text>
</g>
<!-- n11951 -->
<g id="node5" class="node"><title>n11951</title>
<ellipse fill="none" stroke="lightgray" cx="29.2474" cy="-990" rx="27" ry="18"/>
<text text-anchor="middle" x="29.2474" y="-986.3" font-family="Times New Roman,serif" font-size="14.00" fill="lightgray">wps</text>
</g>
<!-- n11950&#45;&gt;n11951 -->
<g id="edge5" class="edge"><title>n11950&#45;&gt;n11951</title>
</g>
<!-- n11952&#45;&gt;n11974 -->
<g id="edge4" class="edge"><title>n11952&#45;&gt;n11974</title>
<path fill="none" stroke="lightgray" d="M290.2,-911.198C341.86,-912.113 457.638,-906.83 526.389,-847 558.226,-819.294 571.234,-770.154 576.441,-739.145"/>
<polygon fill="lightgray" stroke="lightgray" points="579.94,-739.408 577.975,-728.997 573.019,-738.362 579.94,-739.408"/>
<text text-anchor="middle" x="420.889" y="-913.8" font-family="Times New Roman,serif" font-size="14.00" fill="lightgray">wff ( th / ps )</text>
</g>
<!-- n11955 -->
<g id="node7" class="node"><title>n11955</title>
<ellipse fill="none" stroke="lightgray" cx="262.942" cy="-838" rx="27" ry="18"/>
<text text-anchor="middle" x="262.942" y="-834.3" font-family="Times New Roman,serif" font-size="14.00" fill="lightgray">wo</text>
</g>
<!-- n11952&#45;&gt;n11955 -->
<g id="edge38" class="edge"><title>n11952&#45;&gt;n11955</title>
</g>
<!-- n11951&#45;&gt;n11952 -->
<g id="edge3" class="edge"><title>n11951&#45;&gt;n11952</title>
<path fill="none" stroke="lightgray" d="M54.9651,-984.376C90.186,-975.995 156.526,-958.847 210.495,-937 217.823,-934.034 225.486,-930.353 232.592,-926.673"/>
<polygon fill="lightgray" stroke="lightgray" points="234.684,-929.524 241.854,-921.723 231.384,-923.35 234.684,-929.524"/>
<text text-anchor="middle" x="143.495" y="-981.8" font-family="Times New Roman,serif" font-size="14.00" fill="lightgray">wff ps</text>
</g>
<!-- n11953 -->
<g id="node6" class="node"><title>n11953</title>
<ellipse fill="none" stroke="lightgray" cx="29.2474" cy="-936" rx="27" ry="18"/>
<text text-anchor="middle" x="29.2474" y="-932.3" font-family="Times New Roman,serif" font-size="14.00" fill="lightgray">wth</text>
</g>
<!-- n11953&#45;&gt;n11955 -->
<g id="edge6" class="edge"><title>n11953&#45;&gt;n11955</title>
<path fill="none" stroke="lightgray" d="M52.7049,-926.873C60.2239,-923.921 68.6809,-920.712 76.4948,-918 135.333,-897.58 155.046,-905.361 210.495,-877 220.224,-872.024 230.005,-865.181 238.387,-858.615"/>
<polygon fill="lightgray" stroke="lightgray" points="240.699,-861.246 246.249,-852.221 236.282,-855.815 240.699,-861.246"/>
<text text-anchor="middle" x="143.495" y="-921.8" font-family="Times New Roman,serif" font-size="14.00" fill="lightgray">wff th</text>
</g>
<!-- n11954 -->
<g id="node8" class="node"><title>n11954</title>
<ellipse fill="none" stroke="lightgray" cx="29.2474" cy="-864" rx="27" ry="18"/>
<text text-anchor="middle" x="29.2474" y="-860.3" font-family="Times New Roman,serif" font-size="14.00" fill="lightgray">wch</text>
</g>
<!-- n11953&#45;&gt;n11954 -->
<g id="edge9" class="edge"><title>n11953&#45;&gt;n11954</title>
</g>
<!-- n11955&#45;&gt;n11974 -->
<g id="edge8" class="edge"><title>n11955&#45;&gt;n11974</title>
<path fill="none" stroke="lightgray" d="M289.681,-834.312C338.502,-826.489 446.786,-805.123 526.389,-760 538.019,-753.408 549.193,-743.847 558.286,-734.917"/>
<polygon fill="lightgray" stroke="lightgray" points="560.91,-737.24 565.399,-727.644 555.905,-732.346 560.91,-737.24"/>
<text text-anchor="middle" x="420.889" y="-831.8" font-family="Times New Roman,serif" font-size="14.00" fill="lightgray">wff ( th / ch )</text>
</g>
<!-- n11958 -->
<g id="node10" class="node"><title>n11958</title>
<ellipse fill="none" stroke="lightgray" cx="262.942" cy="-748" rx="27" ry="18"/>
<text text-anchor="middle" x="262.942" y="-744.3" font-family="Times New Roman,serif" font-size="14.00" fill="lightgray">wo</text>
</g>
<!-- n11955&#45;&gt;n11958 -->
<g id="edge39" class="edge"><title>n11955&#45;&gt;n11958</title>
</g>
<!-- n11954&#45;&gt;n11955 -->
<g id="edge7" class="edge"><title>n11954&#45;&gt;n11955</title>
<path fill="none" stroke="lightgray" d="M55.928,-861.118C97.333,-856.472 178.954,-847.313 226.078,-842.024"/>
<polygon fill="lightgray" stroke="lightgray" points="226.599,-845.488 236.146,-840.895 225.818,-838.532 226.599,-845.488"/>
<text text-anchor="middle" x="143.495" y="-861.8" font-family="Times New Roman,serif" font-size="14.00" fill="lightgray">wff ch</text>
</g>
<!-- n11956 -->
<g id="node9" class="node"><title>n11956</title>
<ellipse fill="none" stroke="lightgray" cx="29.2474" cy="-810" rx="27" ry="18"/>
<text text-anchor="middle" x="29.2474" y="-806.3" font-family="Times New Roman,serif" font-size="14.00" fill="lightgray">wps</text>
</g>
<!-- n11956&#45;&gt;n11958 -->
<g id="edge10" class="edge"><title>n11956&#45;&gt;n11958</title>
<path fill="none" stroke="lightgray" d="M54.8445,-804.149C89.6444,-795.775 155.179,-779.649 210.495,-764 216.376,-762.336 222.607,-760.479 228.626,-758.636"/>
<polygon fill="lightgray" stroke="lightgray" points="229.943,-761.892 238.455,-755.584 227.867,-755.207 229.943,-761.892"/>
<text text-anchor="middle" x="143.495" y="-801.8" font-family="Times New Roman,serif" font-size="14.00" fill="lightgray">wff ps</text>
</g>
<!-- n11957 -->
<g id="node11" class="node"><title>n11957</title>
<ellipse fill="none" stroke="lightgray" cx="29.2474" cy="-738" rx="27" ry="18"/>
<text text-anchor="middle" x="29.2474" y="-734.3" font-family="Times New Roman,serif" font-size="14.00" fill="lightgray">wth</text>
</g>
<!-- n11956&#45;&gt;n11957 -->
<g id="edge13" class="edge"><title>n11956&#45;&gt;n11957</title>
</g>
<!-- n11958&#45;&gt;n11974 -->
<g id="edge12" class="edge"><title>n11958&#45;&gt;n11974</title>
<path fill="none" stroke="lightgray" d="M289.789,-744.972C343.49,-738.681 467.707,-724.13 534.82,-716.268"/>
<polygon fill="lightgray" stroke="lightgray" points="535.556,-719.705 545.081,-715.065 534.742,-712.753 535.556,-719.705"/>
<text text-anchor="middle" x="420.889" y="-744.8" font-family="Times New Roman,serif" font-size="14.00" fill="lightgray">wff ( ps / th )</text>
</g>
<!-- n11961 -->
<g id="node13" class="node"><title>n11961</title>
<ellipse fill="none" stroke="lightgray" cx="262.942" cy="-676" rx="27" ry="18"/>
<text text-anchor="middle" x="262.942" y="-672.3" font-family="Times New Roman,serif" font-size="14.00" fill="lightgray">wo</text>
</g>
<!-- n11958&#45;&gt;n11961 -->
<g id="edge40" class="edge"><title>n11958&#45;&gt;n11961</title>
</g>
<!-- n11957&#45;&gt;n11958 -->
<g id="edge11" class="edge"><title>n11957&#45;&gt;n11958</title>
<path fill="none" stroke="lightgray" d="M56.3753,-739.128C97.8552,-740.918 178.876,-744.415 225.864,-746.443"/>
<polygon fill="lightgray" stroke="lightgray" points="225.768,-749.942 235.909,-746.876 226.07,-742.948 225.768,-749.942"/>
<text text-anchor="middle" x="143.495" y="-748.8" font-family="Times New Roman,serif" font-size="14.00" fill="lightgray">wff th</text>
</g>
<!-- n11959 -->
<g id="node12" class="node"><title>n11959</title>
<ellipse fill="none" stroke="lightgray" cx="29.2474" cy="-684" rx="27" ry="18"/>
<text text-anchor="middle" x="29.2474" y="-680.3" font-family="Times New Roman,serif" font-size="14.00" fill="lightgray">wch</text>
</g>
<!-- n11959&#45;&gt;n11961 -->
<g id="edge14" class="edge"><title>n11959&#45;&gt;n11961</title>
<path fill="none" stroke="lightgray" d="M56.3753,-683.098C97.8552,-681.666 178.876,-678.868 225.864,-677.246"/>
<polygon fill="lightgray" stroke="lightgray" points="226.036,-680.742 235.909,-676.899 225.794,-673.746 226.036,-680.742"/>
<text text-anchor="middle" x="143.495" y="-685.8" font-family="Times New Roman,serif" font-size="14.00" fill="lightgray">wff ch</text>
</g>
<!-- n11960 -->
<g id="node14" class="node"><title>n11960</title>
<ellipse fill="none" stroke="lightgray" cx="29.2474" cy="-612" rx="27" ry="18"/>
<text text-anchor="middle" x="29.2474" y="-608.3" font-family="Times New Roman,serif" font-size="14.00" fill="lightgray">wth</text>
</g>
<!-- n11959&#45;&gt;n11960 -->
<g id="edge17" class="edge"><title>n11959&#45;&gt;n11960</title>
</g>
<!-- n11961&#45;&gt;n11974 -->
<g id="edge16" class="edge"><title>n11961&#45;&gt;n11974</title>
<path fill="none" stroke="lightgray" d="M290.085,-677.995C337.36,-681.736 440.161,-690.476 526.389,-702 529.603,-702.43 532.922,-702.907 536.257,-703.411"/>
<polygon fill="lightgray" stroke="lightgray" points="535.804,-706.883 546.227,-704.985 536.895,-699.969 535.804,-706.883"/>
<text text-anchor="middle" x="420.889" y="-705.8" font-family="Times New Roman,serif" font-size="14.00" fill="lightgray">wff ( ch / th )</text>
</g>
<!-- n11967 -->
<g id="node16" class="node"><title>n11967</title>
<ellipse fill="cyan" stroke="black" cx="262.942" cy="-450" rx="34.394" ry="18"/>
<text text-anchor="middle" x="262.942" y="-446.3" font-family="Times New Roman,serif" font-size="14.00">orbi2d</text>
</g>
<!-- n11961&#45;&gt;n11967 -->
<g id="edge41" class="edge"><title>n11961&#45;&gt;n11967</title>
</g>
<!-- n11960&#45;&gt;n11961 -->
<g id="edge15" class="edge"><title>n11960&#45;&gt;n11961</title>
<path fill="none" stroke="lightgray" d="M54.9232,-617.581C89.8167,-625.636 155.462,-641.384 210.495,-658 216.677,-659.867 223.22,-662.017 229.491,-664.168"/>
<polygon fill="lightgray" stroke="lightgray" points="228.437,-667.507 239.032,-667.507 230.75,-660.9 228.437,-667.507"/>
<text text-anchor="middle" x="143.495" y="-661.8" font-family="Times New Roman,serif" font-size="14.00" fill="lightgray">wff th</text>
</g>
<!-- n11962 -->
<g id="node15" class="node"><title>n11962</title>
<ellipse fill="none" stroke="lightgray" cx="29.2474" cy="-558" rx="27" ry="18"/>
<text text-anchor="middle" x="29.2474" y="-554.3" font-family="Times New Roman,serif" font-size="14.00" fill="lightgray">wph</text>
</g>
<!-- n11962&#45;&gt;n11967 -->
<g id="edge18" class="edge"><title>n11962&#45;&gt;n11967</title>
<path fill="none" stroke="lightgray" d="M55.5829,-553.164C91.838,-545.473 159.739,-528.152 210.495,-498 221.379,-491.534 231.883,-482.436 240.53,-473.897"/>
<polygon fill="lightgray" stroke="lightgray" points="243.148,-476.225 247.614,-466.618 238.132,-471.343 243.148,-476.225"/>
<text text-anchor="middle" x="143.495" y="-552.8" font-family="Times New Roman,serif" font-size="14.00" fill="lightgray">wff ph</text>
</g>
<!-- n11963 -->
<g id="node17" class="node"><title>n11963</title>
<ellipse fill="none" stroke="lightgray" cx="29.2474" cy="-486" rx="27" ry="18"/>
<text text-anchor="middle" x="29.2474" y="-482.3" font-family="Times New Roman,serif" font-size="14.00" fill="lightgray">wps</text>
</g>
<!-- n11962&#45;&gt;n11963 -->
<g id="edge24" class="edge"><title>n11962&#45;&gt;n11963</title>
</g>
<!-- n11967&#45;&gt;n11974 -->
<g id="edge23" class="edge"><title>n11967&#45;&gt;n11974</title>
<path fill="none" stroke="black" d="M283.117,-464.617C327.019,-498.255 437.867,-584.162 526.389,-661 536.279,-669.585 546.866,-679.367 555.984,-687.989"/>
<polygon fill="black" stroke="black" points="553.593,-690.545 563.249,-694.906 558.42,-685.476 553.593,-690.545"/>
<text text-anchor="middle" x="420.889" y="-664.8" font-family="Times New Roman,serif" font-size="14.00">|&#45; ( ph &#45;&gt; ( ( th / ps ) &lt;&#45;&gt; ( th / ch ) ) )</text>
</g>
<!-- n11970 -->
<g id="node22" class="node"><title>n11970</title>
<ellipse fill="cyan" stroke="black" cx="262.942" cy="-216" rx="34.394" ry="18"/>
<text text-anchor="middle" x="262.942" y="-212.3" font-family="Times New Roman,serif" font-size="14.00">orcom</text>
</g>
<!-- n11967&#45;&gt;n11970 -->
<g id="edge42" class="edge"><title>n11967&#45;&gt;n11970</title>
</g>
<!-- n11963&#45;&gt;n11967 -->
<g id="edge19" class="edge"><title>n11963&#45;&gt;n11967</title>
<path fill="none" stroke="lightgray" d="M55.928,-482.01C95.4441,-475.87 171.591,-464.039 219.421,-456.607"/>
<polygon fill="lightgray" stroke="lightgray" points="220.122,-460.04 229.466,-455.046 219.048,-453.123 220.122,-460.04"/>
<text text-anchor="middle" x="143.495" y="-482.8" font-family="Times New Roman,serif" font-size="14.00" fill="lightgray">wff ps</text>
</g>
<!-- n11964 -->
<g id="node18" class="node"><title>n11964</title>
<ellipse fill="none" stroke="lightgray" cx="29.2474" cy="-414" rx="27" ry="18"/>
<text text-anchor="middle" x="29.2474" y="-410.3" font-family="Times New Roman,serif" font-size="14.00" fill="lightgray">wch</text>
</g>
<!-- n11963&#45;&gt;n11964 -->
<g id="edge25" class="edge"><title>n11963&#45;&gt;n11964</title>
</g>
<!-- n11964&#45;&gt;n11967 -->
<g id="edge20" class="edge"><title>n11964&#45;&gt;n11967</title>
<path fill="none" stroke="lightgray" d="M55.9789,-417.31C91.0087,-421.909 155.629,-430.716 210.495,-440 213.725,-440.546 217.063,-441.137 220.416,-441.748"/>
<polygon fill="lightgray" stroke="lightgray" points="219.952,-445.222 230.425,-443.622 221.24,-438.342 219.952,-445.222"/>
<text text-anchor="middle" x="143.495" y="-443.8" font-family="Times New Roman,serif" font-size="14.00" fill="lightgray">wff ch</text>
</g>
<!-- n11965 -->
<g id="node19" class="node"><title>n11965</title>
<ellipse fill="none" stroke="lightgray" cx="29.2474" cy="-342" rx="27" ry="18"/>
<text text-anchor="middle" x="29.2474" y="-338.3" font-family="Times New Roman,serif" font-size="14.00" fill="lightgray">wth</text>
</g>
<!-- n11964&#45;&gt;n11965 -->
<g id="edge26" class="edge"><title>n11964&#45;&gt;n11965</title>
</g>
<!-- n11965&#45;&gt;n11967 -->
<g id="edge21" class="edge"><title>n11965&#45;&gt;n11967</title>
<path fill="none" stroke="lightgray" d="M55.5829,-346.836C91.838,-354.527 159.739,-371.848 210.495,-402 221.379,-408.466 231.883,-417.564 240.53,-426.103"/>
<polygon fill="lightgray" stroke="lightgray" points="238.132,-428.657 247.614,-433.382 243.148,-423.775 238.132,-428.657"/>
<text text-anchor="middle" x="143.495" y="-405.8" font-family="Times New Roman,serif" font-size="14.00" fill="lightgray">wff th</text>
</g>
<!-- n11966 -->
<g id="node20" class="node"><title>n11966</title>
<ellipse fill="orange" stroke="black" cx="29.2474" cy="-270" rx="29.4969" ry="18"/>
<text text-anchor="middle" x="29.2474" y="-266.3" font-family="Times New Roman,serif" font-size="14.00">bid.1</text>
</g>
<!-- n11965&#45;&gt;n11966 -->
<g id="edge27" class="edge"><title>n11965&#45;&gt;n11966</title>
</g>
<!-- n11966&#45;&gt;n11967 -->
<g id="edge22" class="edge"><title>n11966&#45;&gt;n11967</title>
<path fill="none" stroke="black" d="M58.1857,-272.824C96.955,-278.128 167.176,-292.936 210.495,-333 236.237,-356.809 249.802,-395.805 256.415,-422.167"/>
<polygon fill="black" stroke="black" points="253.012,-422.989 258.693,-431.932 259.829,-421.399 253.012,-422.989"/>
<text text-anchor="middle" x="143.495" y="-336.8" font-family="Times New Roman,serif" font-size="14.00">|&#45; ( ph &#45;&gt; ( ps &lt;&#45;&gt; ch ) )</text>
</g>
<!-- n11968 -->
<g id="node21" class="node"><title>n11968</title>
<ellipse fill="none" stroke="lightgray" cx="29.2474" cy="-216" rx="27" ry="18"/>
<text text-anchor="middle" x="29.2474" y="-212.3" font-family="Times New Roman,serif" font-size="14.00" fill="lightgray">wps</text>
</g>
<!-- n11968&#45;&gt;n11970 -->
<g id="edge28" class="edge"><title>n11968&#45;&gt;n11970</title>
<path fill="none" stroke="lightgray" d="M56.3753,-216C95.7372,-216 170.705,-216 218.41,-216"/>
<polygon fill="lightgray" stroke="lightgray" points="218.446,-219.5 228.446,-216 218.446,-212.5 218.446,-219.5"/>
<text text-anchor="middle" x="143.495" y="-219.8" font-family="Times New Roman,serif" font-size="14.00" fill="lightgray">wff ps</text>
</g>
<!-- n11969 -->
<g id="node23" class="node"><title>n11969</title>
<ellipse fill="none" stroke="lightgray" cx="29.2474" cy="-144" rx="27" ry="18"/>
<text text-anchor="middle" x="29.2474" y="-140.3" font-family="Times New Roman,serif" font-size="14.00" fill="lightgray">wth</text>
</g>
<!-- n11968&#45;&gt;n11969 -->
<g id="edge31" class="edge"><title>n11968&#45;&gt;n11969</title>
</g>
<!-- n11970&#45;&gt;n11974 -->
<g id="edge30" class="edge"><title>n11970&#45;&gt;n11974</title>
<path fill="none" stroke="black" d="M284.929,-229.944C335.274,-264.572 463.384,-359.91 526.389,-473 564.644,-541.666 575.496,-635.881 578.571,-682.494"/>
<polygon fill="black" stroke="black" points="575.093,-682.971 579.171,-692.75 582.081,-682.563 575.093,-682.971"/>
<text text-anchor="middle" x="420.889" y="-476.8" font-family="Times New Roman,serif" font-size="14.00">|&#45; ( ( ps / th ) &lt;&#45;&gt; ( th / ps ) )</text>
</g>
<!-- n11973 -->
<g id="node25" class="node"><title>n11973</title>
<ellipse fill="cyan" stroke="black" cx="262.942" cy="-128" rx="34.394" ry="18"/>
<text text-anchor="middle" x="262.942" y="-124.3" font-family="Times New Roman,serif" font-size="14.00">orcom</text>
</g>
<!-- n11970&#45;&gt;n11973 -->
<g id="edge43" class="edge"><title>n11970&#45;&gt;n11973</title>
</g>
<!-- n11969&#45;&gt;n11970 -->
<g id="edge29" class="edge"><title>n11969&#45;&gt;n11970</title>
<path fill="none" stroke="lightgray" d="M54.6075,-150.597C89.3985,-160.147 155.226,-178.692 210.495,-197 215.342,-198.606 220.415,-200.372 225.408,-202.162"/>
<polygon fill="lightgray" stroke="lightgray" points="224.235,-205.46 234.829,-205.596 226.633,-198.883 224.235,-205.46"/>
<text text-anchor="middle" x="143.495" y="-200.8" font-family="Times New Roman,serif" font-size="14.00" fill="lightgray">wff th</text>
</g>
<!-- n11971 -->
<g id="node24" class="node"><title>n11971</title>
<ellipse fill="none" stroke="lightgray" cx="29.2474" cy="-90" rx="27" ry="18"/>
<text text-anchor="middle" x="29.2474" y="-86.3" font-family="Times New Roman,serif" font-size="14.00" fill="lightgray">wch</text>
</g>
<!-- n11971&#45;&gt;n11973 -->
<g id="edge32" class="edge"><title>n11971&#45;&gt;n11973</title>
<path fill="none" stroke="lightgray" d="M55.928,-94.2119C95.5539,-100.711 172.014,-113.251 219.819,-121.091"/>
<polygon fill="lightgray" stroke="lightgray" points="219.418,-124.572 229.853,-122.737 220.551,-117.665 219.418,-124.572"/>
<text text-anchor="middle" x="143.495" y="-122.8" font-family="Times New Roman,serif" font-size="14.00" fill="lightgray">wff ch</text>
</g>
<!-- n11972 -->
<g id="node26" class="node"><title>n11972</title>
<ellipse fill="none" stroke="lightgray" cx="29.2474" cy="-18" rx="27" ry="18"/>
<text text-anchor="middle" x="29.2474" y="-14.3" font-family="Times New Roman,serif" font-size="14.00" fill="lightgray">wth</text>
</g>
<!-- n11971&#45;&gt;n11972 -->
<g id="edge35" class="edge"><title>n11971&#45;&gt;n11972</title>
</g>
<!-- n11973&#45;&gt;n11974 -->
<g id="edge34" class="edge"><title>n11973&#45;&gt;n11974</title>
<path fill="none" stroke="black" d="M297.378,-130.833C354.565,-137.619 470.39,-160.216 526.389,-234 580.366,-305.12 581.392,-591.4 580.294,-682.801"/>
<polygon fill="black" stroke="black" points="576.792,-682.907 580.153,-692.954 583.791,-683.004 576.792,-682.907"/>
<text text-anchor="middle" x="420.889" y="-237.8" font-family="Times New Roman,serif" font-size="14.00">|&#45; ( ( ch / th ) &lt;&#45;&gt; ( th / ch ) )</text>
</g>
<!-- n11972&#45;&gt;n11973 -->
<g id="edge33" class="edge"><title>n11972&#45;&gt;n11973</title>
<path fill="none" stroke="lightgray" d="M55.2745,-23.1051C91.4465,-31.2345 159.577,-49.4078 210.495,-80 221.347,-86.5202 231.844,-95.6283 240.496,-104.16"/>
<polygon fill="lightgray" stroke="lightgray" points="238.098,-106.715 247.586,-111.43 243.109,-101.827 238.098,-106.715"/>
<text text-anchor="middle" x="143.495" y="-83.8" font-family="Times New Roman,serif" font-size="14.00" fill="lightgray">wff th</text>
</g>
</g>
</svg>
