<?xml version="1.0" encoding="UTF-8" standalone="no"?>
<!DOCTYPE svg PUBLIC "-//W3C//DTD SVG 1.1//EN"
 "http://www.w3.org/Graphics/SVG/1.1/DTD/svg11.dtd">
<!-- Generated by graphviz version 2.38.0 (20140413.2041)
 -->
<!-- Title: proof_orbidi Pages: 1 -->
<svg width="1567pt" height="1745pt"
 viewBox="0.00 0.00 1567.28 1745.00" xmlns="http://www.w3.org/2000/svg" xmlns:xlink="http://www.w3.org/1999/xlink">
<g id="graph0" class="graph" transform="scale(1 1) rotate(0) translate(4 1741)">
<title>proof_orbidi</title>
<polygon fill="white" stroke="none" points="-4,4 -4,-1741 1563.28,-1741 1563.28,4 -4,4"/>
<!-- n16561 -->
<g id="node1" class="node"><title>n16561</title>
<ellipse fill="none" stroke="lightgray" cx="154" cy="-1719" rx="27" ry="18"/>
<text text-anchor="middle" x="154" y="-1715.3" font-family="Times New Roman,serif" font-size="14.00" fill="lightgray">wph</text>
</g>
<!-- n16562 -->
<g id="node2" class="node"><title>n16562</title>
<ellipse fill="none" stroke="lightgray" cx="295.247" cy="-1665" rx="27" ry="18"/>
<text text-anchor="middle" x="295.247" y="-1661.3" font-family="Times New Roman,serif" font-size="14.00" fill="lightgray">wn</text>
</g>
<!-- n16561&#45;&gt;n16562 -->
<g id="edge1" class="edge"><title>n16561&#45;&gt;n16562</title>
<path fill="none" stroke="lightgray" d="M177.682,-1710.2C200.643,-1701.3 236.353,-1687.45 262.199,-1677.43"/>
<polygon fill="lightgray" stroke="lightgray" points="263.517,-1680.67 271.575,-1673.79 260.986,-1674.14 263.517,-1680.67"/>
<text text-anchor="middle" x="223.5" y="-1704.8" font-family="Times New Roman,serif" font-size="14.00" fill="lightgray">wff ph</text>
</g>
<!-- n16566 -->
<g id="node3" class="node"><title>n16566</title>
<ellipse fill="none" stroke="lightgray" cx="586.841" cy="-1503" rx="27" ry="18"/>
<text text-anchor="middle" x="586.841" y="-1499.3" font-family="Times New Roman,serif" font-size="14.00" fill="lightgray">wi</text>
</g>
<!-- n16562&#45;&gt;n16566 -->
<g id="edge2" class="edge"><title>n16562&#45;&gt;n16566</title>
<path fill="none" stroke="lightgray" d="M322.26,-1663.62C368.702,-1659.91 466.962,-1646.37 530.495,-1597 552.57,-1579.85 567.59,-1551.22 576.351,-1530.05"/>
<polygon fill="lightgray" stroke="lightgray" points="579.652,-1531.22 580.046,-1520.64 573.136,-1528.67 579.652,-1531.22"/>
<text text-anchor="middle" x="436.495" y="-1665.8" font-family="Times New Roman,serif" font-size="14.00" fill="lightgray">wff &#45;. ph</text>
</g>
<!-- n16565 -->
<g id="node5" class="node"><title>n16565</title>
<ellipse fill="none" stroke="lightgray" cx="295.247" cy="-1593" rx="27" ry="18"/>
<text text-anchor="middle" x="295.247" y="-1589.3" font-family="Times New Roman,serif" font-size="14.00" fill="lightgray">wb</text>
</g>
<!-- n16562&#45;&gt;n16565 -->
<g id="edge8" class="edge"><title>n16562&#45;&gt;n16565</title>
</g>
<!-- n16619 -->
<g id="node7" class="node"><title>n16619</title>
<ellipse fill="cyan" stroke="black" cx="1104.99" cy="-1107" rx="33.5952" ry="18"/>
<text text-anchor="middle" x="1104.99" y="-1103.3" font-family="Times New Roman,serif" font-size="14.00">3bitr4i</text>
</g>
<!-- n16566&#45;&gt;n16619 -->
<g id="edge7" class="edge"><title>n16566&#45;&gt;n16619</title>
<path fill="none" stroke="lightgray" d="M613.62,-1506.16C692.414,-1514.25 932.044,-1526.87 1053.19,-1400 1089.24,-1362.24 1100.03,-1201.28 1102.98,-1135.34"/>
<polygon fill="lightgray" stroke="lightgray" points="1106.48,-1135.39 1103.4,-1125.25 1099.48,-1135.09 1106.48,-1135.39"/>
<text text-anchor="middle" x="848.188" y="-1514.8" font-family="Times New Roman,serif" font-size="14.00" fill="lightgray">wff ( &#45;. ph &#45;&gt; ( ps &lt;&#45;&gt; ch ) )</text>
</g>
<!-- n16575 -->
<g id="node12" class="node"><title>n16575</title>
<ellipse fill="none" stroke="lightgray" cx="586.841" cy="-1395" rx="27" ry="18"/>
<text text-anchor="middle" x="586.841" y="-1391.3" font-family="Times New Roman,serif" font-size="14.00" fill="lightgray">wb</text>
</g>
<!-- n16566&#45;&gt;n16575 -->
<g id="edge85" class="edge"><title>n16566&#45;&gt;n16575</title>
</g>
<!-- n16563 -->
<g id="node4" class="node"><title>n16563</title>
<ellipse fill="none" stroke="lightgray" cx="154" cy="-1665" rx="27" ry="18"/>
<text text-anchor="middle" x="154" y="-1661.3" font-family="Times New Roman,serif" font-size="14.00" fill="lightgray">wps</text>
</g>
<!-- n16563&#45;&gt;n16565 -->
<g id="edge3" class="edge"><title>n16563&#45;&gt;n16565</title>
<path fill="none" stroke="lightgray" d="M175.847,-1654.22C199.329,-1642.08 237.688,-1622.24 264.356,-1608.46"/>
<polygon fill="lightgray" stroke="lightgray" points="265.983,-1611.55 273.258,-1603.85 262.768,-1605.34 265.983,-1611.55"/>
<text text-anchor="middle" x="223.5" y="-1645.8" font-family="Times New Roman,serif" font-size="14.00" fill="lightgray">wff ps</text>
</g>
<!-- n16564 -->
<g id="node6" class="node"><title>n16564</title>
<ellipse fill="none" stroke="lightgray" cx="154" cy="-1593" rx="27" ry="18"/>
<text text-anchor="middle" x="154" y="-1589.3" font-family="Times New Roman,serif" font-size="14.00" fill="lightgray">wch</text>
</g>
<!-- n16563&#45;&gt;n16564 -->
<g id="edge6" class="edge"><title>n16563&#45;&gt;n16564</title>
</g>
<!-- n16565&#45;&gt;n16566 -->
<g id="edge5" class="edge"><title>n16565&#45;&gt;n16566</title>
<path fill="none" stroke="lightgray" d="M319.946,-1585.63C371.281,-1569.68 492.891,-1531.89 552.177,-1513.46"/>
<polygon fill="lightgray" stroke="lightgray" points="553.305,-1516.78 561.815,-1510.47 551.227,-1510.09 553.305,-1516.78"/>
<text text-anchor="middle" x="436.495" y="-1581.8" font-family="Times New Roman,serif" font-size="14.00" fill="lightgray">wff ( ps &lt;&#45;&gt; ch )</text>
</g>
<!-- n16564&#45;&gt;n16565 -->
<g id="edge4" class="edge"><title>n16564&#45;&gt;n16565</title>
<path fill="none" stroke="lightgray" d="M181.191,-1593C202.877,-1593 233.924,-1593 257.997,-1593"/>
<polygon fill="lightgray" stroke="lightgray" points="258.174,-1596.5 268.173,-1593 258.173,-1589.5 258.174,-1596.5"/>
<text text-anchor="middle" x="223.5" y="-1596.8" font-family="Times New Roman,serif" font-size="14.00" fill="lightgray">wff ch</text>
</g>
<!-- QED -->
<g id="node60" class="node"><title>QED</title>
</g>
<!-- n16619&#45;&gt;QED -->
<g id="edge84" class="edge"><title>n16619&#45;&gt;QED</title>
<path fill="none" stroke="black" d="M1138.83,-1107C1215.92,-1107 1408.14,-1107 1490.54,-1107"/>
<polygon fill="black" stroke="black" points="1490.72,-1110.5 1500.72,-1107 1490.72,-1103.5 1490.72,-1110.5"/>
<text text-anchor="middle" x="1319.78" y="-1110.8" font-family="Times New Roman,serif" font-size="14.00">|&#45; ( ( ph / ( ps &lt;&#45;&gt; ch ) ) &lt;&#45;&gt; ( ( ph / ps ) &lt;&#45;&gt; ( ph / ch ) ) )</text>
</g>
<!-- n16567 -->
<g id="node8" class="node"><title>n16567</title>
<ellipse fill="none" stroke="lightgray" cx="27" cy="-1539" rx="27" ry="18"/>
<text text-anchor="middle" x="27" y="-1535.3" font-family="Times New Roman,serif" font-size="14.00" fill="lightgray">wph</text>
</g>
<!-- n16568 -->
<g id="node9" class="node"><title>n16568</title>
<ellipse fill="none" stroke="lightgray" cx="154" cy="-1539" rx="27" ry="18"/>
<text text-anchor="middle" x="154" y="-1535.3" font-family="Times New Roman,serif" font-size="14.00" fill="lightgray">wn</text>
</g>
<!-- n16567&#45;&gt;n16568 -->
<g id="edge9" class="edge"><title>n16567&#45;&gt;n16568</title>
<path fill="none" stroke="lightgray" d="M54.2041,-1539C72.3711,-1539 96.7994,-1539 116.82,-1539"/>
<polygon fill="lightgray" stroke="lightgray" points="116.83,-1542.5 126.83,-1539 116.83,-1535.5 116.83,-1542.5"/>
<text text-anchor="middle" x="90.5" y="-1542.8" font-family="Times New Roman,serif" font-size="14.00" fill="lightgray">wff ph</text>
</g>
<!-- n16570 -->
<g id="node10" class="node"><title>n16570</title>
<ellipse fill="none" stroke="lightgray" cx="295.247" cy="-1467" rx="27" ry="18"/>
<text text-anchor="middle" x="295.247" y="-1463.3" font-family="Times New Roman,serif" font-size="14.00" fill="lightgray">wi</text>
</g>
<!-- n16568&#45;&gt;n16570 -->
<g id="edge10" class="edge"><title>n16568&#45;&gt;n16570</title>
<path fill="none" stroke="lightgray" d="M175.847,-1528.22C199.329,-1516.08 237.688,-1496.24 264.356,-1482.46"/>
<polygon fill="lightgray" stroke="lightgray" points="265.983,-1485.55 273.258,-1477.85 262.768,-1479.34 265.983,-1485.55"/>
<text text-anchor="middle" x="223.5" y="-1519.8" font-family="Times New Roman,serif" font-size="14.00" fill="lightgray">wff &#45;. ph</text>
</g>
<!-- n16569 -->
<g id="node11" class="node"><title>n16569</title>
<ellipse fill="none" stroke="lightgray" cx="154" cy="-1467" rx="27" ry="18"/>
<text text-anchor="middle" x="154" y="-1463.3" font-family="Times New Roman,serif" font-size="14.00" fill="lightgray">wps</text>
</g>
<!-- n16568&#45;&gt;n16569 -->
<g id="edge13" class="edge"><title>n16568&#45;&gt;n16569</title>
</g>
<!-- n16570&#45;&gt;n16575 -->
<g id="edge12" class="edge"><title>n16570&#45;&gt;n16575</title>
<path fill="none" stroke="lightgray" d="M321.433,-1462.23C364.587,-1453.86 455.287,-1435.35 530.495,-1414 537.97,-1411.88 545.918,-1409.33 553.391,-1406.8"/>
<polygon fill="lightgray" stroke="lightgray" points="554.557,-1410.1 562.859,-1403.51 552.264,-1403.48 554.557,-1410.1"/>
<text text-anchor="middle" x="436.495" y="-1461.8" font-family="Times New Roman,serif" font-size="14.00" fill="lightgray">wff ( &#45;. ph &#45;&gt; ps )</text>
</g>
<!-- n16574 -->
<g id="node15" class="node"><title>n16574</title>
<ellipse fill="none" stroke="lightgray" cx="295.247" cy="-1395" rx="27" ry="18"/>
<text text-anchor="middle" x="295.247" y="-1391.3" font-family="Times New Roman,serif" font-size="14.00" fill="lightgray">wi</text>
</g>
<!-- n16570&#45;&gt;n16574 -->
<g id="edge20" class="edge"><title>n16570&#45;&gt;n16574</title>
</g>
<!-- n16569&#45;&gt;n16570 -->
<g id="edge11" class="edge"><title>n16569&#45;&gt;n16570</title>
<path fill="none" stroke="lightgray" d="M181.191,-1467C202.877,-1467 233.924,-1467 257.997,-1467"/>
<polygon fill="lightgray" stroke="lightgray" points="258.174,-1470.5 268.173,-1467 258.173,-1463.5 258.174,-1470.5"/>
<text text-anchor="middle" x="223.5" y="-1470.8" font-family="Times New Roman,serif" font-size="14.00" fill="lightgray">wff ps</text>
</g>
<!-- n16575&#45;&gt;n16619 -->
<g id="edge19" class="edge"><title>n16575&#45;&gt;n16619</title>
<path fill="none" stroke="lightgray" d="M612.533,-1388.82C698.85,-1366.78 985.531,-1290.03 1053.19,-1226 1079.11,-1201.46 1092.43,-1161.54 1098.79,-1134.78"/>
<polygon fill="lightgray" stroke="lightgray" points="1102.24,-1135.41 1100.98,-1124.89 1095.41,-1133.9 1102.24,-1135.41"/>
<text text-anchor="middle" x="848.188" y="-1384.8" font-family="Times New Roman,serif" font-size="14.00" fill="lightgray">wff ( ( &#45;. ph &#45;&gt; ps ) &lt;&#45;&gt; ( &#45;. ph &#45;&gt; ch ) )</text>
</g>
<!-- n16580 -->
<g id="node18" class="node"><title>n16580</title>
<ellipse fill="none" stroke="lightgray" cx="586.841" cy="-1215" rx="27" ry="18"/>
<text text-anchor="middle" x="586.841" y="-1211.3" font-family="Times New Roman,serif" font-size="14.00" fill="lightgray">wo</text>
</g>
<!-- n16575&#45;&gt;n16580 -->
<g id="edge86" class="edge"><title>n16575&#45;&gt;n16580</title>
</g>
<!-- n16571 -->
<g id="node13" class="node"><title>n16571</title>
<ellipse fill="none" stroke="lightgray" cx="27" cy="-1413" rx="27" ry="18"/>
<text text-anchor="middle" x="27" y="-1409.3" font-family="Times New Roman,serif" font-size="14.00" fill="lightgray">wph</text>
</g>
<!-- n16572 -->
<g id="node14" class="node"><title>n16572</title>
<ellipse fill="none" stroke="lightgray" cx="154" cy="-1413" rx="27" ry="18"/>
<text text-anchor="middle" x="154" y="-1409.3" font-family="Times New Roman,serif" font-size="14.00" fill="lightgray">wn</text>
</g>
<!-- n16571&#45;&gt;n16572 -->
<g id="edge14" class="edge"><title>n16571&#45;&gt;n16572</title>
<path fill="none" stroke="lightgray" d="M54.2041,-1413C72.3711,-1413 96.7994,-1413 116.82,-1413"/>
<polygon fill="lightgray" stroke="lightgray" points="116.83,-1416.5 126.83,-1413 116.83,-1409.5 116.83,-1416.5"/>
<text text-anchor="middle" x="90.5" y="-1416.8" font-family="Times New Roman,serif" font-size="14.00" fill="lightgray">wff ph</text>
</g>
<!-- n16572&#45;&gt;n16574 -->
<g id="edge15" class="edge"><title>n16572&#45;&gt;n16574</title>
<path fill="none" stroke="lightgray" d="M180.865,-1409.66C202.652,-1406.84 234.053,-1402.78 258.287,-1399.65"/>
<polygon fill="lightgray" stroke="lightgray" points="259.052,-1403.08 268.521,-1398.33 258.155,-1396.14 259.052,-1403.08"/>
<text text-anchor="middle" x="223.5" y="-1411.8" font-family="Times New Roman,serif" font-size="14.00" fill="lightgray">wff &#45;. ph</text>
</g>
<!-- n16573 -->
<g id="node16" class="node"><title>n16573</title>
<ellipse fill="none" stroke="lightgray" cx="154" cy="-1341" rx="27" ry="18"/>
<text text-anchor="middle" x="154" y="-1337.3" font-family="Times New Roman,serif" font-size="14.00" fill="lightgray">wch</text>
</g>
<!-- n16572&#45;&gt;n16573 -->
<g id="edge18" class="edge"><title>n16572&#45;&gt;n16573</title>
</g>
<!-- n16574&#45;&gt;n16575 -->
<g id="edge17" class="edge"><title>n16574&#45;&gt;n16575</title>
<path fill="none" stroke="lightgray" d="M322.458,-1395C374.339,-1395 490.211,-1395 549.45,-1395"/>
<polygon fill="lightgray" stroke="lightgray" points="549.482,-1398.5 559.482,-1395 549.482,-1391.5 549.482,-1398.5"/>
<text text-anchor="middle" x="436.495" y="-1398.8" font-family="Times New Roman,serif" font-size="14.00" fill="lightgray">wff ( &#45;. ph &#45;&gt; ch )</text>
</g>
<!-- n16573&#45;&gt;n16574 -->
<g id="edge16" class="edge"><title>n16573&#45;&gt;n16574</title>
<path fill="none" stroke="lightgray" d="M177.682,-1349.8C200.643,-1358.7 236.353,-1372.55 262.199,-1382.57"/>
<polygon fill="lightgray" stroke="lightgray" points="260.986,-1385.86 271.575,-1386.21 263.517,-1379.33 260.986,-1385.86"/>
<text text-anchor="middle" x="223.5" y="-1379.8" font-family="Times New Roman,serif" font-size="14.00" fill="lightgray">wff ch</text>
</g>
<!-- n16576 -->
<g id="node17" class="node"><title>n16576</title>
<ellipse fill="none" stroke="lightgray" cx="295.247" cy="-1287" rx="27" ry="18"/>
<text text-anchor="middle" x="295.247" y="-1283.3" font-family="Times New Roman,serif" font-size="14.00" fill="lightgray">wph</text>
</g>
<!-- n16576&#45;&gt;n16580 -->
<g id="edge21" class="edge"><title>n16576&#45;&gt;n16580</title>
<path fill="none" stroke="lightgray" d="M321.433,-1282.23C364.587,-1273.86 455.287,-1255.35 530.495,-1234 537.97,-1231.88 545.918,-1229.33 553.391,-1226.8"/>
<polygon fill="lightgray" stroke="lightgray" points="554.557,-1230.1 562.859,-1223.51 552.264,-1223.48 554.557,-1230.1"/>
<text text-anchor="middle" x="436.495" y="-1281.8" font-family="Times New Roman,serif" font-size="14.00" fill="lightgray">wff ph</text>
</g>
<!-- n16579 -->
<g id="node20" class="node"><title>n16579</title>
<ellipse fill="none" stroke="lightgray" cx="295.247" cy="-1215" rx="27" ry="18"/>
<text text-anchor="middle" x="295.247" y="-1211.3" font-family="Times New Roman,serif" font-size="14.00" fill="lightgray">wb</text>
</g>
<!-- n16576&#45;&gt;n16579 -->
<g id="edge27" class="edge"><title>n16576&#45;&gt;n16579</title>
</g>
<!-- n16580&#45;&gt;n16619 -->
<g id="edge26" class="edge"><title>n16580&#45;&gt;n16619</title>
<path fill="none" stroke="lightgray" d="M613.412,-1211.66C684.212,-1202.08 888.457,-1172.2 1053.19,-1126 1058.1,-1124.62 1063.22,-1122.97 1068.22,-1121.23"/>
<polygon fill="lightgray" stroke="lightgray" points="1069.43,-1124.52 1077.64,-1117.82 1067.04,-1117.94 1069.43,-1124.52"/>
<text text-anchor="middle" x="848.188" y="-1210.8" font-family="Times New Roman,serif" font-size="14.00" fill="lightgray">wff ( ph / ( ps &lt;&#45;&gt; ch ) )</text>
</g>
<!-- n16587 -->
<g id="node25" class="node"><title>n16587</title>
<ellipse fill="none" stroke="lightgray" cx="586.841" cy="-1107" rx="27" ry="18"/>
<text text-anchor="middle" x="586.841" y="-1103.3" font-family="Times New Roman,serif" font-size="14.00" fill="lightgray">wb</text>
</g>
<!-- n16580&#45;&gt;n16587 -->
<g id="edge87" class="edge"><title>n16580&#45;&gt;n16587</title>
</g>
<!-- n16577 -->
<g id="node19" class="node"><title>n16577</title>
<ellipse fill="none" stroke="lightgray" cx="154" cy="-1287" rx="27" ry="18"/>
<text text-anchor="middle" x="154" y="-1283.3" font-family="Times New Roman,serif" font-size="14.00" fill="lightgray">wch</text>
</g>
<!-- n16577&#45;&gt;n16579 -->
<g id="edge22" class="edge"><title>n16577&#45;&gt;n16579</title>
<path fill="none" stroke="lightgray" d="M175.847,-1276.22C199.329,-1264.08 237.688,-1244.24 264.356,-1230.46"/>
<polygon fill="lightgray" stroke="lightgray" points="265.983,-1233.55 273.258,-1225.85 262.768,-1227.34 265.983,-1233.55"/>
<text text-anchor="middle" x="223.5" y="-1267.8" font-family="Times New Roman,serif" font-size="14.00" fill="lightgray">wff ch</text>
</g>
<!-- n16578 -->
<g id="node21" class="node"><title>n16578</title>
<ellipse fill="none" stroke="lightgray" cx="154" cy="-1215" rx="27" ry="18"/>
<text text-anchor="middle" x="154" y="-1211.3" font-family="Times New Roman,serif" font-size="14.00" fill="lightgray">wps</text>
</g>
<!-- n16577&#45;&gt;n16578 -->
<g id="edge25" class="edge"><title>n16577&#45;&gt;n16578</title>
</g>
<!-- n16579&#45;&gt;n16580 -->
<g id="edge24" class="edge"><title>n16579&#45;&gt;n16580</title>
<path fill="none" stroke="lightgray" d="M322.458,-1215C374.339,-1215 490.211,-1215 549.45,-1215"/>
<polygon fill="lightgray" stroke="lightgray" points="549.482,-1218.5 559.482,-1215 549.482,-1211.5 549.482,-1218.5"/>
<text text-anchor="middle" x="436.495" y="-1218.8" font-family="Times New Roman,serif" font-size="14.00" fill="lightgray">wff ( ps &lt;&#45;&gt; ch )</text>
</g>
<!-- n16578&#45;&gt;n16579 -->
<g id="edge23" class="edge"><title>n16578&#45;&gt;n16579</title>
<path fill="none" stroke="lightgray" d="M181.191,-1215C202.877,-1215 233.924,-1215 257.997,-1215"/>
<polygon fill="lightgray" stroke="lightgray" points="258.174,-1218.5 268.173,-1215 258.173,-1211.5 258.174,-1218.5"/>
<text text-anchor="middle" x="223.5" y="-1218.8" font-family="Times New Roman,serif" font-size="14.00" fill="lightgray">wff ps</text>
</g>
<!-- n16581 -->
<g id="node22" class="node"><title>n16581</title>
<ellipse fill="none" stroke="lightgray" cx="154" cy="-1161" rx="27" ry="18"/>
<text text-anchor="middle" x="154" y="-1157.3" font-family="Times New Roman,serif" font-size="14.00" fill="lightgray">wph</text>
</g>
<!-- n16583 -->
<g id="node23" class="node"><title>n16583</title>
<ellipse fill="none" stroke="lightgray" cx="295.247" cy="-1161" rx="27" ry="18"/>
<text text-anchor="middle" x="295.247" y="-1157.3" font-family="Times New Roman,serif" font-size="14.00" fill="lightgray">wo</text>
</g>
<!-- n16581&#45;&gt;n16583 -->
<g id="edge28" class="edge"><title>n16581&#45;&gt;n16583</title>
<path fill="none" stroke="lightgray" d="M181.191,-1161C202.877,-1161 233.924,-1161 257.997,-1161"/>
<polygon fill="lightgray" stroke="lightgray" points="258.174,-1164.5 268.173,-1161 258.173,-1157.5 258.174,-1164.5"/>
<text text-anchor="middle" x="223.5" y="-1164.8" font-family="Times New Roman,serif" font-size="14.00" fill="lightgray">wff ph</text>
</g>
<!-- n16582 -->
<g id="node24" class="node"><title>n16582</title>
<ellipse fill="none" stroke="lightgray" cx="154" cy="-1089" rx="27" ry="18"/>
<text text-anchor="middle" x="154" y="-1085.3" font-family="Times New Roman,serif" font-size="14.00" fill="lightgray">wps</text>
</g>
<!-- n16581&#45;&gt;n16582 -->
<g id="edge31" class="edge"><title>n16581&#45;&gt;n16582</title>
</g>
<!-- n16583&#45;&gt;n16587 -->
<g id="edge30" class="edge"><title>n16583&#45;&gt;n16587</title>
<path fill="none" stroke="lightgray" d="M322.057,-1157.56C365.382,-1151.6 455.372,-1138.39 530.495,-1122 537.422,-1120.49 544.778,-1118.66 551.789,-1116.8"/>
<polygon fill="lightgray" stroke="lightgray" points="552.993,-1120.1 561.723,-1114.1 551.155,-1113.35 552.993,-1120.1"/>
<text text-anchor="middle" x="436.495" y="-1158.8" font-family="Times New Roman,serif" font-size="14.00" fill="lightgray">wff ( ph / ps )</text>
</g>
<!-- n16586 -->
<g id="node27" class="node"><title>n16586</title>
<ellipse fill="none" stroke="lightgray" cx="295.247" cy="-1089" rx="27" ry="18"/>
<text text-anchor="middle" x="295.247" y="-1085.3" font-family="Times New Roman,serif" font-size="14.00" fill="lightgray">wo</text>
</g>
<!-- n16583&#45;&gt;n16586 -->
<g id="edge37" class="edge"><title>n16583&#45;&gt;n16586</title>
</g>
<!-- n16582&#45;&gt;n16583 -->
<g id="edge29" class="edge"><title>n16582&#45;&gt;n16583</title>
<path fill="none" stroke="lightgray" d="M175.847,-1099.78C199.329,-1111.92 237.688,-1131.76 264.356,-1145.54"/>
<polygon fill="lightgray" stroke="lightgray" points="262.768,-1148.66 273.258,-1150.15 265.983,-1142.45 262.768,-1148.66"/>
<text text-anchor="middle" x="223.5" y="-1139.8" font-family="Times New Roman,serif" font-size="14.00" fill="lightgray">wff ps</text>
</g>
<!-- n16587&#45;&gt;n16619 -->
<g id="edge36" class="edge"><title>n16587&#45;&gt;n16619</title>
<path fill="none" stroke="lightgray" d="M614.147,-1107C697.662,-1107 957.379,-1107 1060.83,-1107"/>
<polygon fill="lightgray" stroke="lightgray" points="1060.92,-1110.5 1070.92,-1107 1060.92,-1103.5 1060.92,-1110.5"/>
<text text-anchor="middle" x="848.188" y="-1110.8" font-family="Times New Roman,serif" font-size="14.00" fill="lightgray">wff ( ( ph / ps ) &lt;&#45;&gt; ( ph / ch ) )</text>
</g>
<!-- n16592 -->
<g id="node31" class="node"><title>n16592</title>
<ellipse fill="cyan" stroke="black" cx="586.841" cy="-1012" rx="38.1938" ry="18"/>
<text text-anchor="middle" x="586.841" y="-1008.3" font-family="Times New Roman,serif" font-size="14.00">pm5.74</text>
</g>
<!-- n16587&#45;&gt;n16592 -->
<g id="edge88" class="edge"><title>n16587&#45;&gt;n16592</title>
</g>
<!-- n16584 -->
<g id="node26" class="node"><title>n16584</title>
<ellipse fill="none" stroke="lightgray" cx="154" cy="-1035" rx="27" ry="18"/>
<text text-anchor="middle" x="154" y="-1031.3" font-family="Times New Roman,serif" font-size="14.00" fill="lightgray">wph</text>
</g>
<!-- n16584&#45;&gt;n16586 -->
<g id="edge32" class="edge"><title>n16584&#45;&gt;n16586</title>
<path fill="none" stroke="lightgray" d="M178.456,-1043.15C197.346,-1049.82 224.526,-1059.64 248,-1069 252.853,-1070.93 257.958,-1073.05 262.934,-1075.17"/>
<polygon fill="lightgray" stroke="lightgray" points="261.674,-1078.44 272.243,-1079.18 264.442,-1072.01 261.674,-1078.44"/>
<text text-anchor="middle" x="223.5" y="-1072.8" font-family="Times New Roman,serif" font-size="14.00" fill="lightgray">wff ph</text>
</g>
<!-- n16585 -->
<g id="node28" class="node"><title>n16585</title>
<ellipse fill="none" stroke="lightgray" cx="154" cy="-963" rx="27" ry="18"/>
<text text-anchor="middle" x="154" y="-959.3" font-family="Times New Roman,serif" font-size="14.00" fill="lightgray">wch</text>
</g>
<!-- n16584&#45;&gt;n16585 -->
<g id="edge35" class="edge"><title>n16584&#45;&gt;n16585</title>
</g>
<!-- n16586&#45;&gt;n16587 -->
<g id="edge34" class="edge"><title>n16586&#45;&gt;n16587</title>
<path fill="none" stroke="lightgray" d="M322.202,-1090.61C374.065,-1093.84 490.597,-1101.08 549.82,-1104.76"/>
<polygon fill="lightgray" stroke="lightgray" points="549.643,-1108.26 559.841,-1105.38 550.078,-1101.27 549.643,-1108.26"/>
<text text-anchor="middle" x="436.495" y="-1107.8" font-family="Times New Roman,serif" font-size="14.00" fill="lightgray">wff ( ph / ch )</text>
</g>
<!-- n16585&#45;&gt;n16586 -->
<g id="edge33" class="edge"><title>n16585&#45;&gt;n16586</title>
<path fill="none" stroke="lightgray" d="M174.934,-974.547C195.081,-986.911 226.26,-1008.02 248,-1032 258.444,-1043.52 256.293,-1049.85 266,-1062 267.445,-1063.81 269.007,-1065.61 270.629,-1067.39"/>
<polygon fill="lightgray" stroke="lightgray" points="268.443,-1070.16 277.946,-1074.84 273.439,-1065.25 268.443,-1070.16"/>
<text text-anchor="middle" x="223.5" y="-1035.8" font-family="Times New Roman,serif" font-size="14.00" fill="lightgray">wff ch</text>
</g>
<!-- n16588 -->
<g id="node29" class="node"><title>n16588</title>
<ellipse fill="none" stroke="lightgray" cx="154" cy="-909" rx="27" ry="18"/>
<text text-anchor="middle" x="154" y="-905.3" font-family="Times New Roman,serif" font-size="14.00" fill="lightgray">wph</text>
</g>
<!-- n16589 -->
<g id="node30" class="node"><title>n16589</title>
<ellipse fill="none" stroke="lightgray" cx="295.247" cy="-1035" rx="27" ry="18"/>
<text text-anchor="middle" x="295.247" y="-1031.3" font-family="Times New Roman,serif" font-size="14.00" fill="lightgray">wn</text>
</g>
<!-- n16588&#45;&gt;n16589 -->
<g id="edge38" class="edge"><title>n16588&#45;&gt;n16589</title>
<path fill="none" stroke="lightgray" d="M175.267,-920.294C195.11,-931.934 225.548,-951.388 248,-973 259.41,-983.983 270.123,-998.005 278.359,-1009.94"/>
<polygon fill="lightgray" stroke="lightgray" points="275.669,-1012.21 284.144,-1018.57 281.483,-1008.31 275.669,-1012.21"/>
<text text-anchor="middle" x="223.5" y="-976.8" font-family="Times New Roman,serif" font-size="14.00" fill="lightgray">wff ph</text>
</g>
<!-- n16589&#45;&gt;n16592 -->
<g id="edge39" class="edge"><title>n16589&#45;&gt;n16592</title>
<path fill="none" stroke="lightgray" d="M322.202,-1032.94C370.891,-1029.07 476.578,-1020.68 538.332,-1015.77"/>
<polygon fill="lightgray" stroke="lightgray" points="538.898,-1019.24 548.589,-1014.96 538.344,-1012.26 538.898,-1019.24"/>
<text text-anchor="middle" x="436.495" y="-1035.8" font-family="Times New Roman,serif" font-size="14.00" fill="lightgray">wff &#45;. ph</text>
</g>
<!-- n16590 -->
<g id="node32" class="node"><title>n16590</title>
<ellipse fill="none" stroke="lightgray" cx="295.247" cy="-963" rx="27" ry="18"/>
<text text-anchor="middle" x="295.247" y="-959.3" font-family="Times New Roman,serif" font-size="14.00" fill="lightgray">wps</text>
</g>
<!-- n16589&#45;&gt;n16590 -->
<g id="edge43" class="edge"><title>n16589&#45;&gt;n16590</title>
</g>
<!-- n16592&#45;&gt;n16619 -->
<g id="edge42" class="edge"><title>n16592&#45;&gt;n16619</title>
<path fill="none" stroke="black" d="M624.556,-1015.52C703.838,-1023.66 896.55,-1046.35 1053.19,-1088 1058.18,-1089.33 1063.36,-1090.96 1068.43,-1092.7"/>
<polygon fill="black" stroke="black" points="1067.34,-1096.03 1077.94,-1096.14 1069.73,-1089.45 1067.34,-1096.03"/>
<text text-anchor="middle" x="848.188" y="-1091.8" font-family="Times New Roman,serif" font-size="14.00">|&#45; ( ( &#45;. ph &#45;&gt; ( ps &lt;&#45;&gt; ch ) ) &lt;&#45;&gt; ( ( &#45;. ph &#45;&gt; ps ) &lt;&#45;&gt; ( &#45;. ph &#45;&gt; ch ) ) )</text>
</g>
<!-- n16597 -->
<g id="node35" class="node"><title>n16597</title>
<ellipse fill="none" stroke="lightgray" cx="586.841" cy="-837" rx="29.4969" ry="18"/>
<text text-anchor="middle" x="586.841" y="-833.3" font-family="Times New Roman,serif" font-size="14.00" fill="lightgray">df&#45;or</text>
</g>
<!-- n16592&#45;&gt;n16597 -->
<g id="edge89" class="edge"><title>n16592&#45;&gt;n16597</title>
</g>
<!-- n16590&#45;&gt;n16592 -->
<g id="edge40" class="edge"><title>n16590&#45;&gt;n16592</title>
<path fill="none" stroke="lightgray" d="M322.043,-966.002C365.346,-971.232 455.306,-982.912 530.495,-998 534.649,-998.834 538.959,-999.779 543.258,-1000.78"/>
<polygon fill="lightgray" stroke="lightgray" points="542.645,-1004.23 553.186,-1003.17 544.284,-997.423 542.645,-1004.23"/>
<text text-anchor="middle" x="436.495" y="-1001.8" font-family="Times New Roman,serif" font-size="14.00" fill="lightgray">wff ps</text>
</g>
<!-- n16591 -->
<g id="node33" class="node"><title>n16591</title>
<ellipse fill="none" stroke="lightgray" cx="295.247" cy="-891" rx="27" ry="18"/>
<text text-anchor="middle" x="295.247" y="-887.3" font-family="Times New Roman,serif" font-size="14.00" fill="lightgray">wch</text>
</g>
<!-- n16590&#45;&gt;n16591 -->
<g id="edge44" class="edge"><title>n16590&#45;&gt;n16591</title>
</g>
<!-- n16591&#45;&gt;n16592 -->
<g id="edge41" class="edge"><title>n16591&#45;&gt;n16592</title>
<path fill="none" stroke="lightgray" d="M322.411,-892.603C367.829,-896.421 462.869,-909.059 530.495,-950 545.538,-959.107 558.802,-973.595 568.571,-986.276"/>
<polygon fill="lightgray" stroke="lightgray" points="566.009,-988.699 574.755,-994.679 571.647,-984.55 566.009,-988.699"/>
<text text-anchor="middle" x="436.495" y="-953.8" font-family="Times New Roman,serif" font-size="14.00" fill="lightgray">wff ch</text>
</g>
<!-- n16593 -->
<g id="node34" class="node"><title>n16593</title>
<ellipse fill="none" stroke="lightgray" cx="295.247" cy="-837" rx="27" ry="18"/>
<text text-anchor="middle" x="295.247" y="-833.3" font-family="Times New Roman,serif" font-size="14.00" fill="lightgray">wph</text>
</g>
<!-- n16593&#45;&gt;n16597 -->
<g id="edge45" class="edge"><title>n16593&#45;&gt;n16597</title>
<path fill="none" stroke="lightgray" d="M322.458,-837C373.682,-837 487.287,-837 547.173,-837"/>
<polygon fill="lightgray" stroke="lightgray" points="547.354,-840.5 557.354,-837 547.354,-833.5 547.354,-840.5"/>
<text text-anchor="middle" x="436.495" y="-840.8" font-family="Times New Roman,serif" font-size="14.00" fill="lightgray">wff ph</text>
</g>
<!-- n16596 -->
<g id="node37" class="node"><title>n16596</title>
<ellipse fill="none" stroke="lightgray" cx="295.247" cy="-765" rx="27" ry="18"/>
<text text-anchor="middle" x="295.247" y="-761.3" font-family="Times New Roman,serif" font-size="14.00" fill="lightgray">wb</text>
</g>
<!-- n16593&#45;&gt;n16596 -->
<g id="edge51" class="edge"><title>n16593&#45;&gt;n16596</title>
</g>
<!-- n16597&#45;&gt;n16619 -->
<g id="edge50" class="edge"><title>n16597&#45;&gt;n16619</title>
<path fill="none" stroke="lightgray" d="M615.966,-839.4C694.712,-847.518 920.297,-880.536 1053.19,-1000 1076.5,-1020.96 1090.06,-1054.9 1097.22,-1078.93"/>
<polygon fill="lightgray" stroke="lightgray" points="1093.93,-1080.17 1099.98,-1088.87 1100.67,-1078.3 1093.93,-1080.17"/>
<text text-anchor="middle" x="848.188" y="-1003.8" font-family="Times New Roman,serif" font-size="14.00" fill="lightgray">|&#45; ( ( ph / ( ps &lt;&#45;&gt; ch ) ) &lt;&#45;&gt; ( &#45;. ph &#45;&gt; ( ps &lt;&#45;&gt; ch ) ) )</text>
</g>
<!-- n16618 -->
<g id="node42" class="node"><title>n16618</title>
<ellipse fill="cyan" stroke="black" cx="586.841" cy="-495" rx="35.194" ry="18"/>
<text text-anchor="middle" x="586.841" y="-491.3" font-family="Times New Roman,serif" font-size="14.00">bibi12i</text>
</g>
<!-- n16597&#45;&gt;n16618 -->
<g id="edge90" class="edge"><title>n16597&#45;&gt;n16618</title>
</g>
<!-- n16594 -->
<g id="node36" class="node"><title>n16594</title>
<ellipse fill="none" stroke="lightgray" cx="154" cy="-846" rx="27" ry="18"/>
<text text-anchor="middle" x="154" y="-842.3" font-family="Times New Roman,serif" font-size="14.00" fill="lightgray">wch</text>
</g>
<!-- n16594&#45;&gt;n16596 -->
<g id="edge46" class="edge"><title>n16594&#45;&gt;n16596</title>
<path fill="none" stroke="lightgray" d="M174.951,-834.395C198.63,-820.621 238.304,-797.542 265.343,-781.814"/>
<polygon fill="lightgray" stroke="lightgray" points="267.45,-784.637 274.334,-776.584 263.93,-778.587 267.45,-784.637"/>
<text text-anchor="middle" x="223.5" y="-823.8" font-family="Times New Roman,serif" font-size="14.00" fill="lightgray">wff ch</text>
</g>
<!-- n16595 -->
<g id="node38" class="node"><title>n16595</title>
<ellipse fill="none" stroke="lightgray" cx="154" cy="-774" rx="27" ry="18"/>
<text text-anchor="middle" x="154" y="-770.3" font-family="Times New Roman,serif" font-size="14.00" fill="lightgray">wps</text>
</g>
<!-- n16594&#45;&gt;n16595 -->
<g id="edge49" class="edge"><title>n16594&#45;&gt;n16595</title>
</g>
<!-- n16596&#45;&gt;n16597 -->
<g id="edge48" class="edge"><title>n16596&#45;&gt;n16597</title>
<path fill="none" stroke="lightgray" d="M321.433,-769.768C364.587,-778.143 455.287,-796.65 530.495,-818 537.389,-819.957 544.687,-822.279 551.642,-824.615"/>
<polygon fill="lightgray" stroke="lightgray" points="550.906,-828.063 561.5,-828.007 553.184,-821.444 550.906,-828.063"/>
<text text-anchor="middle" x="436.495" y="-821.8" font-family="Times New Roman,serif" font-size="14.00" fill="lightgray">wff ( ps &lt;&#45;&gt; ch )</text>
</g>
<!-- n16595&#45;&gt;n16596 -->
<g id="edge47" class="edge"><title>n16595&#45;&gt;n16596</title>
<path fill="none" stroke="lightgray" d="M181.191,-772.307C202.877,-770.906 233.924,-768.899 257.997,-767.343"/>
<polygon fill="lightgray" stroke="lightgray" points="258.42,-770.823 268.173,-766.685 257.969,-763.838 258.42,-770.823"/>
<text text-anchor="middle" x="223.5" y="-775.8" font-family="Times New Roman,serif" font-size="14.00" fill="lightgray">wff ps</text>
</g>
<!-- n16598 -->
<g id="node39" class="node"><title>n16598</title>
<ellipse fill="none" stroke="lightgray" cx="154" cy="-720" rx="27" ry="18"/>
<text text-anchor="middle" x="154" y="-716.3" font-family="Times New Roman,serif" font-size="14.00" fill="lightgray">wps</text>
</g>
<!-- n16600 -->
<g id="node40" class="node"><title>n16600</title>
<ellipse fill="none" stroke="lightgray" cx="295.247" cy="-623" rx="27" ry="18"/>
<text text-anchor="middle" x="295.247" y="-619.3" font-family="Times New Roman,serif" font-size="14.00" fill="lightgray">wo</text>
</g>
<!-- n16598&#45;&gt;n16600 -->
<g id="edge52" class="edge"><title>n16598&#45;&gt;n16600</title>
<path fill="none" stroke="lightgray" d="M174.543,-707.83C193.577,-695.827 223.187,-676.751 248,-659 254.982,-654.005 262.386,-648.392 269.174,-643.111"/>
<polygon fill="lightgray" stroke="lightgray" points="271.668,-645.602 277.367,-636.67 267.342,-640.099 271.668,-645.602"/>
<text text-anchor="middle" x="223.5" y="-695.8" font-family="Times New Roman,serif" font-size="14.00" fill="lightgray">wff ps</text>
</g>
<!-- n16599 -->
<g id="node41" class="node"><title>n16599</title>
<ellipse fill="none" stroke="lightgray" cx="154" cy="-648" rx="27" ry="18"/>
<text text-anchor="middle" x="154" y="-644.3" font-family="Times New Roman,serif" font-size="14.00" fill="lightgray">wph</text>
</g>
<!-- n16598&#45;&gt;n16599 -->
<g id="edge55" class="edge"><title>n16598&#45;&gt;n16599</title>
</g>
<!-- n16600&#45;&gt;n16618 -->
<g id="edge54" class="edge"><title>n16600&#45;&gt;n16618</title>
<path fill="none" stroke="lightgray" d="M321.208,-618.029C365.576,-608.464 460.116,-584.761 530.495,-544 542.294,-537.166 553.833,-527.564 563.295,-518.669"/>
<polygon fill="lightgray" stroke="lightgray" points="565.995,-520.925 570.715,-511.44 561.11,-515.912 565.995,-520.925"/>
<text text-anchor="middle" x="436.495" y="-616.8" font-family="Times New Roman,serif" font-size="14.00" fill="lightgray">wff ( ph / ps )</text>
</g>
<!-- n16604 -->
<g id="node44" class="node"><title>n16604</title>
<ellipse fill="none" stroke="lightgray" cx="295.247" cy="-530" rx="27" ry="18"/>
<text text-anchor="middle" x="295.247" y="-526.3" font-family="Times New Roman,serif" font-size="14.00" fill="lightgray">wi</text>
</g>
<!-- n16600&#45;&gt;n16604 -->
<g id="edge79" class="edge"><title>n16600&#45;&gt;n16604</title>
</g>
<!-- n16599&#45;&gt;n16600 -->
<g id="edge53" class="edge"><title>n16599&#45;&gt;n16600</title>
<path fill="none" stroke="lightgray" d="M180.217,-643.473C202.161,-639.533 234.207,-633.779 258.743,-629.374"/>
<polygon fill="lightgray" stroke="lightgray" points="259.524,-632.79 268.748,-627.578 258.287,-625.9 259.524,-632.79"/>
<text text-anchor="middle" x="223.5" y="-643.8" font-family="Times New Roman,serif" font-size="14.00" fill="lightgray">wff ph</text>
</g>
<!-- n16618&#45;&gt;n16619 -->
<g id="edge78" class="edge"><title>n16618&#45;&gt;n16619</title>
<path fill="none" stroke="black" d="M615.533,-505.656C697.657,-538.811 941.106,-648.622 1053.19,-825 1079.92,-867.071 1095.93,-1016.09 1101.62,-1078.83"/>
<polygon fill="black" stroke="black" points="1098.14,-1079.16 1102.51,-1088.82 1105.11,-1078.55 1098.14,-1079.16"/>
<text text-anchor="middle" x="848.188" y="-828.8" font-family="Times New Roman,serif" font-size="14.00">|&#45; ( ( ( ph / ps ) &lt;&#45;&gt; ( ph / ch ) ) &lt;&#45;&gt; ( ( &#45;. ph &#45;&gt; ps ) &lt;&#45;&gt; ( &#45;. ph &#45;&gt; ch ) ) )</text>
</g>
<!-- n16601 -->
<g id="node43" class="node"><title>n16601</title>
<ellipse fill="none" stroke="lightgray" cx="154" cy="-594" rx="27" ry="18"/>
<text text-anchor="middle" x="154" y="-590.3" font-family="Times New Roman,serif" font-size="14.00" fill="lightgray">wps</text>
</g>
<!-- n16601&#45;&gt;n16604 -->
<g id="edge56" class="edge"><title>n16601&#45;&gt;n16604</title>
<path fill="none" stroke="lightgray" d="M176.757,-584C200.056,-573.292 237.215,-556.213 263.498,-544.133"/>
<polygon fill="lightgray" stroke="lightgray" points="265.018,-547.286 272.643,-539.93 262.095,-540.926 265.018,-547.286"/>
<text text-anchor="middle" x="223.5" y="-577.8" font-family="Times New Roman,serif" font-size="14.00" fill="lightgray">wff ps</text>
</g>
<!-- n16603 -->
<g id="node46" class="node"><title>n16603</title>
<ellipse fill="none" stroke="lightgray" cx="154" cy="-522" rx="27" ry="18"/>
<text text-anchor="middle" x="154" y="-518.3" font-family="Times New Roman,serif" font-size="14.00" fill="lightgray">wn</text>
</g>
<!-- n16601&#45;&gt;n16603 -->
<g id="edge60" class="edge"><title>n16601&#45;&gt;n16603</title>
</g>
<!-- n16604&#45;&gt;n16618 -->
<g id="edge59" class="edge"><title>n16604&#45;&gt;n16618</title>
<path fill="none" stroke="lightgray" d="M321.947,-526.894C371.542,-520.9 480.945,-507.678 542.171,-500.278"/>
<polygon fill="lightgray" stroke="lightgray" points="542.784,-503.729 552.292,-499.055 541.944,-496.78 542.784,-503.729"/>
<text text-anchor="middle" x="436.495" y="-528.8" font-family="Times New Roman,serif" font-size="14.00" fill="lightgray">wff ( &#45;. ph &#45;&gt; ps )</text>
</g>
<!-- n16607 -->
<g id="node48" class="node"><title>n16607</title>
<ellipse fill="none" stroke="lightgray" cx="295.247" cy="-458" rx="27" ry="18"/>
<text text-anchor="middle" x="295.247" y="-454.3" font-family="Times New Roman,serif" font-size="14.00" fill="lightgray">wo</text>
</g>
<!-- n16604&#45;&gt;n16607 -->
<g id="edge80" class="edge"><title>n16604&#45;&gt;n16607</title>
</g>
<!-- n16602 -->
<g id="node45" class="node"><title>n16602</title>
<ellipse fill="none" stroke="lightgray" cx="27" cy="-522" rx="27" ry="18"/>
<text text-anchor="middle" x="27" y="-518.3" font-family="Times New Roman,serif" font-size="14.00" fill="lightgray">wph</text>
</g>
<!-- n16602&#45;&gt;n16603 -->
<g id="edge57" class="edge"><title>n16602&#45;&gt;n16603</title>
<path fill="none" stroke="lightgray" d="M54.2041,-522C72.3711,-522 96.7994,-522 116.82,-522"/>
<polygon fill="lightgray" stroke="lightgray" points="116.83,-525.5 126.83,-522 116.83,-518.5 116.83,-525.5"/>
<text text-anchor="middle" x="90.5" y="-525.8" font-family="Times New Roman,serif" font-size="14.00" fill="lightgray">wff ph</text>
</g>
<!-- n16603&#45;&gt;n16604 -->
<g id="edge58" class="edge"><title>n16603&#45;&gt;n16604</title>
<path fill="none" stroke="lightgray" d="M181.191,-523.505C202.877,-524.751 233.924,-526.534 257.997,-527.917"/>
<polygon fill="lightgray" stroke="lightgray" points="257.989,-531.423 268.173,-528.502 258.391,-524.434 257.989,-531.423"/>
<text text-anchor="middle" x="223.5" y="-531.8" font-family="Times New Roman,serif" font-size="14.00" fill="lightgray">wff &#45;. ph</text>
</g>
<!-- n16605 -->
<g id="node47" class="node"><title>n16605</title>
<ellipse fill="none" stroke="lightgray" cx="154" cy="-468" rx="27" ry="18"/>
<text text-anchor="middle" x="154" y="-464.3" font-family="Times New Roman,serif" font-size="14.00" fill="lightgray">wch</text>
</g>
<!-- n16605&#45;&gt;n16607 -->
<g id="edge61" class="edge"><title>n16605&#45;&gt;n16607</title>
<path fill="none" stroke="lightgray" d="M180.865,-466.143C202.515,-464.588 233.658,-462.351 257.829,-460.615"/>
<polygon fill="lightgray" stroke="lightgray" points="258.325,-464.089 268.048,-459.881 257.823,-457.107 258.325,-464.089"/>
<text text-anchor="middle" x="223.5" y="-468.8" font-family="Times New Roman,serif" font-size="14.00" fill="lightgray">wff ch</text>
</g>
<!-- n16606 -->
<g id="node49" class="node"><title>n16606</title>
<ellipse fill="none" stroke="lightgray" cx="154" cy="-396" rx="27" ry="18"/>
<text text-anchor="middle" x="154" y="-392.3" font-family="Times New Roman,serif" font-size="14.00" fill="lightgray">wph</text>
</g>
<!-- n16605&#45;&gt;n16606 -->
<g id="edge64" class="edge"><title>n16605&#45;&gt;n16606</title>
</g>
<!-- n16607&#45;&gt;n16618 -->
<g id="edge63" class="edge"><title>n16607&#45;&gt;n16618</title>
<path fill="none" stroke="lightgray" d="M322.366,-459.868C365.766,-463.178 455.393,-470.887 530.495,-483 535.04,-483.733 539.775,-484.6 544.477,-485.526"/>
<polygon fill="lightgray" stroke="lightgray" points="544.132,-489.029 554.633,-487.622 545.547,-482.173 544.132,-489.029"/>
<text text-anchor="middle" x="436.495" y="-486.8" font-family="Times New Roman,serif" font-size="14.00" fill="lightgray">wff ( ph / ch )</text>
</g>
<!-- n16611 -->
<g id="node51" class="node"><title>n16611</title>
<ellipse fill="none" stroke="lightgray" cx="295.247" cy="-342" rx="27" ry="18"/>
<text text-anchor="middle" x="295.247" y="-338.3" font-family="Times New Roman,serif" font-size="14.00" fill="lightgray">wi</text>
</g>
<!-- n16607&#45;&gt;n16611 -->
<g id="edge81" class="edge"><title>n16607&#45;&gt;n16611</title>
</g>
<!-- n16606&#45;&gt;n16607 -->
<g id="edge62" class="edge"><title>n16606&#45;&gt;n16607</title>
<path fill="none" stroke="lightgray" d="M176.757,-405.688C199.92,-416.001 236.781,-432.413 263.036,-444.103"/>
<polygon fill="lightgray" stroke="lightgray" points="261.624,-447.306 272.183,-448.176 264.472,-440.911 261.624,-447.306"/>
<text text-anchor="middle" x="223.5" y="-440.8" font-family="Times New Roman,serif" font-size="14.00" fill="lightgray">wff ph</text>
</g>
<!-- n16608 -->
<g id="node50" class="node"><title>n16608</title>
<ellipse fill="none" stroke="lightgray" cx="154" cy="-342" rx="27" ry="18"/>
<text text-anchor="middle" x="154" y="-338.3" font-family="Times New Roman,serif" font-size="14.00" fill="lightgray">wch</text>
</g>
<!-- n16608&#45;&gt;n16611 -->
<g id="edge65" class="edge"><title>n16608&#45;&gt;n16611</title>
<path fill="none" stroke="lightgray" d="M181.191,-342C202.877,-342 233.924,-342 257.997,-342"/>
<polygon fill="lightgray" stroke="lightgray" points="258.174,-345.5 268.173,-342 258.173,-338.5 258.174,-345.5"/>
<text text-anchor="middle" x="223.5" y="-345.8" font-family="Times New Roman,serif" font-size="14.00" fill="lightgray">wff ch</text>
</g>
<!-- n16610 -->
<g id="node53" class="node"><title>n16610</title>
<ellipse fill="none" stroke="lightgray" cx="154" cy="-270" rx="27" ry="18"/>
<text text-anchor="middle" x="154" y="-266.3" font-family="Times New Roman,serif" font-size="14.00" fill="lightgray">wn</text>
</g>
<!-- n16608&#45;&gt;n16610 -->
<g id="edge69" class="edge"><title>n16608&#45;&gt;n16610</title>
</g>
<!-- n16611&#45;&gt;n16618 -->
<g id="edge68" class="edge"><title>n16611&#45;&gt;n16618</title>
<path fill="none" stroke="lightgray" d="M320.205,-349.253C364.185,-363.214 459.77,-396.597 530.495,-443 542.498,-450.876 554.304,-461.46 563.908,-471.023"/>
<polygon fill="lightgray" stroke="lightgray" points="561.615,-473.684 571.101,-478.402 566.628,-468.798 561.615,-473.684"/>
<text text-anchor="middle" x="436.495" y="-446.8" font-family="Times New Roman,serif" font-size="14.00" fill="lightgray">wff ( &#45;. ph &#45;&gt; ch )</text>
</g>
<!-- n16614 -->
<g id="node55" class="node"><title>n16614</title>
<ellipse fill="none" stroke="lightgray" cx="295.247" cy="-216" rx="29.4969" ry="18"/>
<text text-anchor="middle" x="295.247" y="-212.3" font-family="Times New Roman,serif" font-size="14.00" fill="lightgray">df&#45;or</text>
</g>
<!-- n16611&#45;&gt;n16614 -->
<g id="edge82" class="edge"><title>n16611&#45;&gt;n16614</title>
</g>
<!-- n16609 -->
<g id="node52" class="node"><title>n16609</title>
<ellipse fill="none" stroke="lightgray" cx="27" cy="-270" rx="27" ry="18"/>
<text text-anchor="middle" x="27" y="-266.3" font-family="Times New Roman,serif" font-size="14.00" fill="lightgray">wph</text>
</g>
<!-- n16609&#45;&gt;n16610 -->
<g id="edge66" class="edge"><title>n16609&#45;&gt;n16610</title>
<path fill="none" stroke="lightgray" d="M54.2041,-270C72.3711,-270 96.7994,-270 116.82,-270"/>
<polygon fill="lightgray" stroke="lightgray" points="116.83,-273.5 126.83,-270 116.83,-266.5 116.83,-273.5"/>
<text text-anchor="middle" x="90.5" y="-273.8" font-family="Times New Roman,serif" font-size="14.00" fill="lightgray">wff ph</text>
</g>
<!-- n16610&#45;&gt;n16611 -->
<g id="edge67" class="edge"><title>n16610&#45;&gt;n16611</title>
<path fill="none" stroke="lightgray" d="M175.847,-280.779C199.329,-292.921 237.688,-312.755 264.356,-326.544"/>
<polygon fill="lightgray" stroke="lightgray" points="262.768,-329.663 273.258,-331.147 265.983,-323.445 262.768,-329.663"/>
<text text-anchor="middle" x="223.5" y="-320.8" font-family="Times New Roman,serif" font-size="14.00" fill="lightgray">wff &#45;. ph</text>
</g>
<!-- n16612 -->
<g id="node54" class="node"><title>n16612</title>
<ellipse fill="none" stroke="lightgray" cx="154" cy="-216" rx="27" ry="18"/>
<text text-anchor="middle" x="154" y="-212.3" font-family="Times New Roman,serif" font-size="14.00" fill="lightgray">wph</text>
</g>
<!-- n16612&#45;&gt;n16614 -->
<g id="edge70" class="edge"><title>n16612&#45;&gt;n16614</title>
<path fill="none" stroke="lightgray" d="M181.191,-216C202.191,-216 231.968,-216 255.691,-216"/>
<polygon fill="lightgray" stroke="lightgray" points="255.777,-219.5 265.777,-216 255.777,-212.5 255.777,-219.5"/>
<text text-anchor="middle" x="223.5" y="-219.8" font-family="Times New Roman,serif" font-size="14.00" fill="lightgray">wff ph</text>
</g>
<!-- n16613 -->
<g id="node56" class="node"><title>n16613</title>
<ellipse fill="none" stroke="lightgray" cx="154" cy="-144" rx="27" ry="18"/>
<text text-anchor="middle" x="154" y="-140.3" font-family="Times New Roman,serif" font-size="14.00" fill="lightgray">wps</text>
</g>
<!-- n16612&#45;&gt;n16613 -->
<g id="edge73" class="edge"><title>n16612&#45;&gt;n16613</title>
</g>
<!-- n16614&#45;&gt;n16618 -->
<g id="edge72" class="edge"><title>n16614&#45;&gt;n16618</title>
<path fill="none" stroke="lightgray" d="M319.852,-225.762C373.097,-248.185 500.261,-304.116 530.495,-339 562.593,-376.035 576.488,-432.959 582.187,-466.836"/>
<polygon fill="lightgray" stroke="lightgray" points="578.768,-467.627 583.762,-476.971 585.685,-466.552 578.768,-467.627"/>
<text text-anchor="middle" x="436.495" y="-342.8" font-family="Times New Roman,serif" font-size="14.00" fill="lightgray">|&#45; ( ( ph / ps ) &lt;&#45;&gt; ( &#45;. ph &#45;&gt; ps ) )</text>
</g>
<!-- n16617 -->
<g id="node58" class="node"><title>n16617</title>
<ellipse fill="none" stroke="lightgray" cx="295.247" cy="-117" rx="29.4969" ry="18"/>
<text text-anchor="middle" x="295.247" y="-113.3" font-family="Times New Roman,serif" font-size="14.00" fill="lightgray">df&#45;or</text>
</g>
<!-- n16614&#45;&gt;n16617 -->
<g id="edge83" class="edge"><title>n16614&#45;&gt;n16617</title>
</g>
<!-- n16613&#45;&gt;n16614 -->
<g id="edge71" class="edge"><title>n16613&#45;&gt;n16614</title>
<path fill="none" stroke="lightgray" d="M175.847,-154.779C199.058,-166.781 236.803,-186.298 263.427,-200.064"/>
<polygon fill="lightgray" stroke="lightgray" points="261.848,-203.187 272.338,-204.671 265.063,-196.969 261.848,-203.187"/>
<text text-anchor="middle" x="223.5" y="-194.8" font-family="Times New Roman,serif" font-size="14.00" fill="lightgray">wff ps</text>
</g>
<!-- n16615 -->
<g id="node57" class="node"><title>n16615</title>
<ellipse fill="none" stroke="lightgray" cx="154" cy="-90" rx="27" ry="18"/>
<text text-anchor="middle" x="154" y="-86.3" font-family="Times New Roman,serif" font-size="14.00" fill="lightgray">wph</text>
</g>
<!-- n16615&#45;&gt;n16617 -->
<g id="edge74" class="edge"><title>n16615&#45;&gt;n16617</title>
<path fill="none" stroke="lightgray" d="M180.217,-94.8895C201.613,-99.0382 232.611,-105.049 256.889,-109.756"/>
<polygon fill="lightgray" stroke="lightgray" points="256.352,-113.217 266.835,-111.685 257.684,-106.345 256.352,-113.217"/>
<text text-anchor="middle" x="223.5" y="-111.8" font-family="Times New Roman,serif" font-size="14.00" fill="lightgray">wff ph</text>
</g>
<!-- n16616 -->
<g id="node59" class="node"><title>n16616</title>
<ellipse fill="none" stroke="lightgray" cx="154" cy="-18" rx="27" ry="18"/>
<text text-anchor="middle" x="154" y="-14.3" font-family="Times New Roman,serif" font-size="14.00" fill="lightgray">wch</text>
</g>
<!-- n16615&#45;&gt;n16616 -->
<g id="edge77" class="edge"><title>n16615&#45;&gt;n16616</title>
</g>
<!-- n16617&#45;&gt;n16618 -->
<g id="edge76" class="edge"><title>n16617&#45;&gt;n16618</title>
<path fill="none" stroke="lightgray" d="M323.98,-120.573C373.62,-128.515 477.415,-152.423 530.495,-218 561.348,-256.117 577.773,-403.733 583.483,-466.499"/>
<polygon fill="lightgray" stroke="lightgray" points="580.031,-467.192 584.397,-476.845 587.004,-466.576 580.031,-467.192"/>
<text text-anchor="middle" x="436.495" y="-221.8" font-family="Times New Roman,serif" font-size="14.00" fill="lightgray">|&#45; ( ( ph / ch ) &lt;&#45;&gt; ( &#45;. ph &#45;&gt; ch ) )</text>
</g>
<!-- n16616&#45;&gt;n16617 -->
<g id="edge75" class="edge"><title>n16616&#45;&gt;n16617</title>
<path fill="none" stroke="lightgray" d="M174.211,-30.1144C193.251,-42.2819 223.095,-61.7881 248,-80 254.886,-85.0357 262.167,-90.6937 268.863,-96.0417"/>
<polygon fill="lightgray" stroke="lightgray" points="266.979,-99.0193 276.958,-102.58 271.377,-93.5737 266.979,-99.0193"/>
<text text-anchor="middle" x="223.5" y="-83.8" font-family="Times New Roman,serif" font-size="14.00" fill="lightgray">wff ch</text>
</g>
</g>
</svg>
