<?xml version="1.0" encoding="UTF-8" standalone="no"?>
<!DOCTYPE svg PUBLIC "-//W3C//DTD SVG 1.1//EN"
 "http://www.w3.org/Graphics/SVG/1.1/DTD/svg11.dtd">
<!-- Generated by graphviz version 2.38.0 (20140413.2041)
 -->
<!-- Title: proof_orbidi Pages: 1 -->
<svg width="1590pt" height="1745pt"
 viewBox="0.00 0.00 1590.28 1745.00" xmlns="http://www.w3.org/2000/svg" xmlns:xlink="http://www.w3.org/1999/xlink">
<g id="graph0" class="graph" transform="scale(1 1) rotate(0) translate(4 1741)">
<title>proof_orbidi</title>
<polygon fill="white" stroke="none" points="-4,4 -4,-1741 1586.28,-1741 1586.28,4 -4,4"/>
<!-- n16561 -->
<g id="node1" class="node"><title>n16561</title>
<ellipse fill="none" stroke="lightgray" cx="154" cy="-1719" rx="27" ry="18"/>
<text text-anchor="middle" x="154" y="-1715.3" font-family="Times New Roman,serif" font-size="14.00" fill="lightgray">wph</text>
</g>
<!-- n16562 -->
<g id="node2" class="node"><title>n16562</title>
<ellipse fill="none" stroke="lightgray" cx="295.247" cy="-1665" rx="27" ry="18"/>
<text text-anchor="middle" x="295.247" y="-1661.3" font-family="Times New Roman,serif" font-size="14.00" fill="lightgray">wn</text>
</g>
<!-- n16561&#45;&gt;n16562 -->
<g id="edge1" class="edge"><title>n16561&#45;&gt;n16562</title>
<path fill="none" stroke="lightgray" d="M177.682,-1710.2C200.643,-1701.3 236.353,-1687.45 262.199,-1677.43"/>
<polygon fill="lightgray" stroke="lightgray" points="263.517,-1680.67 271.575,-1673.79 260.986,-1674.14 263.517,-1680.67"/>
<text text-anchor="middle" x="223.5" y="-1704.8" font-family="Times New Roman,serif" font-size="14.00" fill="lightgray">wff ph</text>
</g>
<!-- n16566 -->
<g id="node3" class="node"><title>n16566</title>
<ellipse fill="none" stroke="lightgray" cx="590.841" cy="-1503" rx="27" ry="18"/>
<text text-anchor="middle" x="590.841" y="-1499.3" font-family="Times New Roman,serif" font-size="14.00" fill="lightgray">wi</text>
</g>
<!-- n16562&#45;&gt;n16566 -->
<g id="edge2" class="edge"><title>n16562&#45;&gt;n16566</title>
<path fill="none" stroke="lightgray" d="M322.327,-1663.77C369.398,-1660.31 469.678,-1647.13 534.495,-1597 556.609,-1579.9 571.623,-1551.26 580.372,-1530.08"/>
<polygon fill="lightgray" stroke="lightgray" points="583.676,-1531.24 584.06,-1520.65 577.157,-1528.69 583.676,-1531.24"/>
<text text-anchor="middle" x="438.495" y="-1665.8" font-family="Times New Roman,serif" font-size="14.00" fill="lightgray">wff &#45;. ph</text>
</g>
<!-- n16565 -->
<g id="node5" class="node"><title>n16565</title>
<ellipse fill="none" stroke="lightgray" cx="295.247" cy="-1593" rx="27" ry="18"/>
<text text-anchor="middle" x="295.247" y="-1589.3" font-family="Times New Roman,serif" font-size="14.00" fill="lightgray">wb</text>
</g>
<!-- n16562&#45;&gt;n16565 -->
<g id="edge8" class="edge"><title>n16562&#45;&gt;n16565</title>
</g>
<!-- n16619 -->
<g id="node7" class="node"><title>n16619</title>
<ellipse fill="cyan" stroke="black" cx="1116.99" cy="-1107" rx="33.5952" ry="18"/>
<text text-anchor="middle" x="1116.99" y="-1103.3" font-family="Times New Roman,serif" font-size="14.00">3bitr4i</text>
</g>
<!-- n16566&#45;&gt;n16619 -->
<g id="edge7" class="edge"><title>n16566&#45;&gt;n16619</title>
<path fill="none" stroke="lightgray" d="M617.487,-1506.27C697.016,-1514.82 941.537,-1529.03 1065.19,-1400 1101.31,-1362.31 1112.06,-1201.31 1114.98,-1135.35"/>
<polygon fill="lightgray" stroke="lightgray" points="1118.49,-1135.39 1115.4,-1125.25 1111.49,-1135.1 1118.49,-1135.39"/>
<text text-anchor="middle" x="856.188" y="-1515.8" font-family="Times New Roman,serif" font-size="14.00" fill="lightgray">wff ( &#45;. ph &#45;&gt; ( ps &lt;&#45;&gt; ch ) )</text>
</g>
<!-- n16575 -->
<g id="node12" class="node"><title>n16575</title>
<ellipse fill="none" stroke="lightgray" cx="590.841" cy="-1395" rx="27" ry="18"/>
<text text-anchor="middle" x="590.841" y="-1391.3" font-family="Times New Roman,serif" font-size="14.00" fill="lightgray">wb</text>
</g>
<!-- n16566&#45;&gt;n16575 -->
<g id="edge85" class="edge"><title>n16566&#45;&gt;n16575</title>
</g>
<!-- n16563 -->
<g id="node4" class="node"><title>n16563</title>
<ellipse fill="none" stroke="lightgray" cx="154" cy="-1665" rx="27" ry="18"/>
<text text-anchor="middle" x="154" y="-1661.3" font-family="Times New Roman,serif" font-size="14.00" fill="lightgray">wps</text>
</g>
<!-- n16563&#45;&gt;n16565 -->
<g id="edge3" class="edge"><title>n16563&#45;&gt;n16565</title>
<path fill="none" stroke="lightgray" d="M175.847,-1654.22C199.329,-1642.08 237.688,-1622.24 264.356,-1608.46"/>
<polygon fill="lightgray" stroke="lightgray" points="265.983,-1611.55 273.258,-1603.85 262.768,-1605.34 265.983,-1611.55"/>
<text text-anchor="middle" x="223.5" y="-1645.8" font-family="Times New Roman,serif" font-size="14.00" fill="lightgray">wff ps</text>
</g>
<!-- n16564 -->
<g id="node6" class="node"><title>n16564</title>
<ellipse fill="none" stroke="lightgray" cx="154" cy="-1593" rx="27" ry="18"/>
<text text-anchor="middle" x="154" y="-1589.3" font-family="Times New Roman,serif" font-size="14.00" fill="lightgray">wch</text>
</g>
<!-- n16563&#45;&gt;n16564 -->
<g id="edge6" class="edge"><title>n16563&#45;&gt;n16564</title>
</g>
<!-- n16565&#45;&gt;n16566 -->
<g id="edge5" class="edge"><title>n16565&#45;&gt;n16566</title>
<path fill="none" stroke="lightgray" d="M320.273,-1585.63C372.446,-1569.64 496.221,-1531.7 556.16,-1513.32"/>
<polygon fill="lightgray" stroke="lightgray" points="557.36,-1516.62 565.895,-1510.34 555.308,-1509.93 557.36,-1516.62"/>
<text text-anchor="middle" x="438.495" y="-1581.8" font-family="Times New Roman,serif" font-size="14.00" fill="lightgray">wff ( ps &lt;&#45;&gt; ch )</text>
</g>
<!-- n16564&#45;&gt;n16565 -->
<g id="edge4" class="edge"><title>n16564&#45;&gt;n16565</title>
<path fill="none" stroke="lightgray" d="M181.191,-1593C202.877,-1593 233.924,-1593 257.997,-1593"/>
<polygon fill="lightgray" stroke="lightgray" points="258.174,-1596.5 268.173,-1593 258.173,-1589.5 258.174,-1596.5"/>
<text text-anchor="middle" x="223.5" y="-1596.8" font-family="Times New Roman,serif" font-size="14.00" fill="lightgray">wff ch</text>
</g>
<!-- QED -->
<g id="node60" class="node"><title>QED</title>
</g>
<!-- n16619&#45;&gt;QED -->
<g id="edge84" class="edge"><title>n16619&#45;&gt;QED</title>
<path fill="none" stroke="black" d="M1150.97,-1107C1229.89,-1107 1429.31,-1107 1513.54,-1107"/>
<polygon fill="black" stroke="black" points="1513.7,-1110.5 1523.7,-1107 1513.7,-1103.5 1513.7,-1110.5"/>
<text text-anchor="middle" x="1337.28" y="-1110.8" font-family="Times New Roman,serif" font-size="14.00">|&#45; ( ( ph \/ ( ps &lt;&#45;&gt; ch ) ) &lt;&#45;&gt; ( ( ph \/ ps ) &lt;&#45;&gt; ( ph \/ ch ) ) )</text>
</g>
<!-- n16567 -->
<g id="node8" class="node"><title>n16567</title>
<ellipse fill="none" stroke="lightgray" cx="27" cy="-1539" rx="27" ry="18"/>
<text text-anchor="middle" x="27" y="-1535.3" font-family="Times New Roman,serif" font-size="14.00" fill="lightgray">wph</text>
</g>
<!-- n16568 -->
<g id="node9" class="node"><title>n16568</title>
<ellipse fill="none" stroke="lightgray" cx="154" cy="-1539" rx="27" ry="18"/>
<text text-anchor="middle" x="154" y="-1535.3" font-family="Times New Roman,serif" font-size="14.00" fill="lightgray">wn</text>
</g>
<!-- n16567&#45;&gt;n16568 -->
<g id="edge9" class="edge"><title>n16567&#45;&gt;n16568</title>
<path fill="none" stroke="lightgray" d="M54.2041,-1539C72.3711,-1539 96.7994,-1539 116.82,-1539"/>
<polygon fill="lightgray" stroke="lightgray" points="116.83,-1542.5 126.83,-1539 116.83,-1535.5 116.83,-1542.5"/>
<text text-anchor="middle" x="90.5" y="-1542.8" font-family="Times New Roman,serif" font-size="14.00" fill="lightgray">wff ph</text>
</g>
<!-- n16570 -->
<g id="node10" class="node"><title>n16570</title>
<ellipse fill="none" stroke="lightgray" cx="295.247" cy="-1467" rx="27" ry="18"/>
<text text-anchor="middle" x="295.247" y="-1463.3" font-family="Times New Roman,serif" font-size="14.00" fill="lightgray">wi</text>
</g>
<!-- n16568&#45;&gt;n16570 -->
<g id="edge10" class="edge"><title>n16568&#45;&gt;n16570</title>
<path fill="none" stroke="lightgray" d="M175.847,-1528.22C199.329,-1516.08 237.688,-1496.24 264.356,-1482.46"/>
<polygon fill="lightgray" stroke="lightgray" points="265.983,-1485.55 273.258,-1477.85 262.768,-1479.34 265.983,-1485.55"/>
<text text-anchor="middle" x="223.5" y="-1519.8" font-family="Times New Roman,serif" font-size="14.00" fill="lightgray">wff &#45;. ph</text>
</g>
<!-- n16569 -->
<g id="node11" class="node"><title>n16569</title>
<ellipse fill="none" stroke="lightgray" cx="154" cy="-1467" rx="27" ry="18"/>
<text text-anchor="middle" x="154" y="-1463.3" font-family="Times New Roman,serif" font-size="14.00" fill="lightgray">wps</text>
</g>
<!-- n16568&#45;&gt;n16569 -->
<g id="edge13" class="edge"><title>n16568&#45;&gt;n16569</title>
</g>
<!-- n16570&#45;&gt;n16575 -->
<g id="edge12" class="edge"><title>n16570&#45;&gt;n16575</title>
<path fill="none" stroke="lightgray" d="M321.517,-1462.34C365.274,-1454.07 457.821,-1435.62 534.495,-1414 541.973,-1411.89 549.924,-1409.35 557.396,-1406.82"/>
<polygon fill="lightgray" stroke="lightgray" points="558.563,-1410.12 566.864,-1403.53 556.27,-1403.5 558.563,-1410.12"/>
<text text-anchor="middle" x="438.495" y="-1461.8" font-family="Times New Roman,serif" font-size="14.00" fill="lightgray">wff ( &#45;. ph &#45;&gt; ps )</text>
</g>
<!-- n16574 -->
<g id="node15" class="node"><title>n16574</title>
<ellipse fill="none" stroke="lightgray" cx="295.247" cy="-1395" rx="27" ry="18"/>
<text text-anchor="middle" x="295.247" y="-1391.3" font-family="Times New Roman,serif" font-size="14.00" fill="lightgray">wi</text>
</g>
<!-- n16570&#45;&gt;n16574 -->
<g id="edge20" class="edge"><title>n16570&#45;&gt;n16574</title>
</g>
<!-- n16569&#45;&gt;n16570 -->
<g id="edge11" class="edge"><title>n16569&#45;&gt;n16570</title>
<path fill="none" stroke="lightgray" d="M181.191,-1467C202.877,-1467 233.924,-1467 257.997,-1467"/>
<polygon fill="lightgray" stroke="lightgray" points="258.174,-1470.5 268.173,-1467 258.173,-1463.5 258.174,-1470.5"/>
<text text-anchor="middle" x="223.5" y="-1470.8" font-family="Times New Roman,serif" font-size="14.00" fill="lightgray">wff ps</text>
</g>
<!-- n16575&#45;&gt;n16619 -->
<g id="edge19" class="edge"><title>n16575&#45;&gt;n16619</title>
<path fill="none" stroke="lightgray" d="M616.356,-1389.08C703.425,-1367.66 996.251,-1291.96 1065.19,-1227 1091.35,-1202.35 1104.61,-1162.06 1110.9,-1135.05"/>
<polygon fill="lightgray" stroke="lightgray" points="1114.36,-1135.58 1113.05,-1125.06 1107.52,-1134.1 1114.36,-1135.58"/>
<text text-anchor="middle" x="856.188" y="-1384.8" font-family="Times New Roman,serif" font-size="14.00" fill="lightgray">wff ( ( &#45;. ph &#45;&gt; ps ) &lt;&#45;&gt; ( &#45;. ph &#45;&gt; ch ) )</text>
</g>
<!-- n16580 -->
<g id="node18" class="node"><title>n16580</title>
<ellipse fill="none" stroke="lightgray" cx="590.841" cy="-1215" rx="27" ry="18"/>
<text text-anchor="middle" x="590.841" y="-1211.3" font-family="Times New Roman,serif" font-size="14.00" fill="lightgray">wo</text>
</g>
<!-- n16575&#45;&gt;n16580 -->
<g id="edge86" class="edge"><title>n16575&#45;&gt;n16580</title>
</g>
<!-- n16571 -->
<g id="node13" class="node"><title>n16571</title>
<ellipse fill="none" stroke="lightgray" cx="27" cy="-1413" rx="27" ry="18"/>
<text text-anchor="middle" x="27" y="-1409.3" font-family="Times New Roman,serif" font-size="14.00" fill="lightgray">wph</text>
</g>
<!-- n16572 -->
<g id="node14" class="node"><title>n16572</title>
<ellipse fill="none" stroke="lightgray" cx="154" cy="-1413" rx="27" ry="18"/>
<text text-anchor="middle" x="154" y="-1409.3" font-family="Times New Roman,serif" font-size="14.00" fill="lightgray">wn</text>
</g>
<!-- n16571&#45;&gt;n16572 -->
<g id="edge14" class="edge"><title>n16571&#45;&gt;n16572</title>
<path fill="none" stroke="lightgray" d="M54.2041,-1413C72.3711,-1413 96.7994,-1413 116.82,-1413"/>
<polygon fill="lightgray" stroke="lightgray" points="116.83,-1416.5 126.83,-1413 116.83,-1409.5 116.83,-1416.5"/>
<text text-anchor="middle" x="90.5" y="-1416.8" font-family="Times New Roman,serif" font-size="14.00" fill="lightgray">wff ph</text>
</g>
<!-- n16572&#45;&gt;n16574 -->
<g id="edge15" class="edge"><title>n16572&#45;&gt;n16574</title>
<path fill="none" stroke="lightgray" d="M180.865,-1409.66C202.652,-1406.84 234.053,-1402.78 258.287,-1399.65"/>
<polygon fill="lightgray" stroke="lightgray" points="259.052,-1403.08 268.521,-1398.33 258.155,-1396.14 259.052,-1403.08"/>
<text text-anchor="middle" x="223.5" y="-1411.8" font-family="Times New Roman,serif" font-size="14.00" fill="lightgray">wff &#45;. ph</text>
</g>
<!-- n16573 -->
<g id="node16" class="node"><title>n16573</title>
<ellipse fill="none" stroke="lightgray" cx="154" cy="-1341" rx="27" ry="18"/>
<text text-anchor="middle" x="154" y="-1337.3" font-family="Times New Roman,serif" font-size="14.00" fill="lightgray">wch</text>
</g>
<!-- n16572&#45;&gt;n16573 -->
<g id="edge18" class="edge"><title>n16572&#45;&gt;n16573</title>
</g>
<!-- n16574&#45;&gt;n16575 -->
<g id="edge17" class="edge"><title>n16574&#45;&gt;n16575</title>
<path fill="none" stroke="lightgray" d="M322.302,-1395C374.728,-1395 493.078,-1395 553.242,-1395"/>
<polygon fill="lightgray" stroke="lightgray" points="553.423,-1398.5 563.423,-1395 553.423,-1391.5 553.423,-1398.5"/>
<text text-anchor="middle" x="438.495" y="-1398.8" font-family="Times New Roman,serif" font-size="14.00" fill="lightgray">wff ( &#45;. ph &#45;&gt; ch )</text>
</g>
<!-- n16573&#45;&gt;n16574 -->
<g id="edge16" class="edge"><title>n16573&#45;&gt;n16574</title>
<path fill="none" stroke="lightgray" d="M177.682,-1349.8C200.643,-1358.7 236.353,-1372.55 262.199,-1382.57"/>
<polygon fill="lightgray" stroke="lightgray" points="260.986,-1385.86 271.575,-1386.21 263.517,-1379.33 260.986,-1385.86"/>
<text text-anchor="middle" x="223.5" y="-1379.8" font-family="Times New Roman,serif" font-size="14.00" fill="lightgray">wff ch</text>
</g>
<!-- n16576 -->
<g id="node17" class="node"><title>n16576</title>
<ellipse fill="none" stroke="lightgray" cx="295.247" cy="-1287" rx="27" ry="18"/>
<text text-anchor="middle" x="295.247" y="-1283.3" font-family="Times New Roman,serif" font-size="14.00" fill="lightgray">wph</text>
</g>
<!-- n16576&#45;&gt;n16580 -->
<g id="edge21" class="edge"><title>n16576&#45;&gt;n16580</title>
<path fill="none" stroke="lightgray" d="M321.517,-1282.34C365.274,-1274.07 457.821,-1255.62 534.495,-1234 541.973,-1231.89 549.924,-1229.35 557.396,-1226.82"/>
<polygon fill="lightgray" stroke="lightgray" points="558.563,-1230.12 566.864,-1223.53 556.27,-1223.5 558.563,-1230.12"/>
<text text-anchor="middle" x="438.495" y="-1281.8" font-family="Times New Roman,serif" font-size="14.00" fill="lightgray">wff ph</text>
</g>
<!-- n16579 -->
<g id="node20" class="node"><title>n16579</title>
<ellipse fill="none" stroke="lightgray" cx="295.247" cy="-1215" rx="27" ry="18"/>
<text text-anchor="middle" x="295.247" y="-1211.3" font-family="Times New Roman,serif" font-size="14.00" fill="lightgray">wb</text>
</g>
<!-- n16576&#45;&gt;n16579 -->
<g id="edge27" class="edge"><title>n16576&#45;&gt;n16579</title>
</g>
<!-- n16580&#45;&gt;n16619 -->
<g id="edge26" class="edge"><title>n16580&#45;&gt;n16619</title>
<path fill="none" stroke="lightgray" d="M617.595,-1211.75C689.38,-1202.34 897.45,-1172.76 1065.19,-1126 1070.11,-1124.63 1075.22,-1122.99 1080.23,-1121.25"/>
<polygon fill="lightgray" stroke="lightgray" points="1081.43,-1124.53 1089.64,-1117.83 1079.05,-1117.95 1081.43,-1124.53"/>
<text text-anchor="middle" x="856.188" y="-1211.8" font-family="Times New Roman,serif" font-size="14.00" fill="lightgray">wff ( ph \/ ( ps &lt;&#45;&gt; ch ) )</text>
</g>
<!-- n16587 -->
<g id="node25" class="node"><title>n16587</title>
<ellipse fill="none" stroke="lightgray" cx="590.841" cy="-1107" rx="27" ry="18"/>
<text text-anchor="middle" x="590.841" y="-1103.3" font-family="Times New Roman,serif" font-size="14.00" fill="lightgray">wb</text>
</g>
<!-- n16580&#45;&gt;n16587 -->
<g id="edge87" class="edge"><title>n16580&#45;&gt;n16587</title>
</g>
<!-- n16577 -->
<g id="node19" class="node"><title>n16577</title>
<ellipse fill="none" stroke="lightgray" cx="154" cy="-1287" rx="27" ry="18"/>
<text text-anchor="middle" x="154" y="-1283.3" font-family="Times New Roman,serif" font-size="14.00" fill="lightgray">wch</text>
</g>
<!-- n16577&#45;&gt;n16579 -->
<g id="edge22" class="edge"><title>n16577&#45;&gt;n16579</title>
<path fill="none" stroke="lightgray" d="M175.847,-1276.22C199.329,-1264.08 237.688,-1244.24 264.356,-1230.46"/>
<polygon fill="lightgray" stroke="lightgray" points="265.983,-1233.55 273.258,-1225.85 262.768,-1227.34 265.983,-1233.55"/>
<text text-anchor="middle" x="223.5" y="-1267.8" font-family="Times New Roman,serif" font-size="14.00" fill="lightgray">wff ch</text>
</g>
<!-- n16578 -->
<g id="node21" class="node"><title>n16578</title>
<ellipse fill="none" stroke="lightgray" cx="154" cy="-1215" rx="27" ry="18"/>
<text text-anchor="middle" x="154" y="-1211.3" font-family="Times New Roman,serif" font-size="14.00" fill="lightgray">wps</text>
</g>
<!-- n16577&#45;&gt;n16578 -->
<g id="edge25" class="edge"><title>n16577&#45;&gt;n16578</title>
</g>
<!-- n16579&#45;&gt;n16580 -->
<g id="edge24" class="edge"><title>n16579&#45;&gt;n16580</title>
<path fill="none" stroke="lightgray" d="M322.302,-1215C374.728,-1215 493.078,-1215 553.242,-1215"/>
<polygon fill="lightgray" stroke="lightgray" points="553.423,-1218.5 563.423,-1215 553.423,-1211.5 553.423,-1218.5"/>
<text text-anchor="middle" x="438.495" y="-1218.8" font-family="Times New Roman,serif" font-size="14.00" fill="lightgray">wff ( ps &lt;&#45;&gt; ch )</text>
</g>
<!-- n16578&#45;&gt;n16579 -->
<g id="edge23" class="edge"><title>n16578&#45;&gt;n16579</title>
<path fill="none" stroke="lightgray" d="M181.191,-1215C202.877,-1215 233.924,-1215 257.997,-1215"/>
<polygon fill="lightgray" stroke="lightgray" points="258.174,-1218.5 268.173,-1215 258.173,-1211.5 258.174,-1218.5"/>
<text text-anchor="middle" x="223.5" y="-1218.8" font-family="Times New Roman,serif" font-size="14.00" fill="lightgray">wff ps</text>
</g>
<!-- n16581 -->
<g id="node22" class="node"><title>n16581</title>
<ellipse fill="none" stroke="lightgray" cx="154" cy="-1161" rx="27" ry="18"/>
<text text-anchor="middle" x="154" y="-1157.3" font-family="Times New Roman,serif" font-size="14.00" fill="lightgray">wph</text>
</g>
<!-- n16583 -->
<g id="node23" class="node"><title>n16583</title>
<ellipse fill="none" stroke="lightgray" cx="295.247" cy="-1161" rx="27" ry="18"/>
<text text-anchor="middle" x="295.247" y="-1157.3" font-family="Times New Roman,serif" font-size="14.00" fill="lightgray">wo</text>
</g>
<!-- n16581&#45;&gt;n16583 -->
<g id="edge28" class="edge"><title>n16581&#45;&gt;n16583</title>
<path fill="none" stroke="lightgray" d="M181.191,-1161C202.877,-1161 233.924,-1161 257.997,-1161"/>
<polygon fill="lightgray" stroke="lightgray" points="258.174,-1164.5 268.173,-1161 258.173,-1157.5 258.174,-1164.5"/>
<text text-anchor="middle" x="223.5" y="-1164.8" font-family="Times New Roman,serif" font-size="14.00" fill="lightgray">wff ph</text>
</g>
<!-- n16582 -->
<g id="node24" class="node"><title>n16582</title>
<ellipse fill="none" stroke="lightgray" cx="154" cy="-1089" rx="27" ry="18"/>
<text text-anchor="middle" x="154" y="-1085.3" font-family="Times New Roman,serif" font-size="14.00" fill="lightgray">wps</text>
</g>
<!-- n16581&#45;&gt;n16582 -->
<g id="edge31" class="edge"><title>n16581&#45;&gt;n16582</title>
</g>
<!-- n16583&#45;&gt;n16587 -->
<g id="edge30" class="edge"><title>n16583&#45;&gt;n16587</title>
<path fill="none" stroke="lightgray" d="M321.796,-1157.69C365.587,-1151.83 457.692,-1138.65 534.495,-1122 541.424,-1120.5 548.781,-1118.67 555.792,-1116.82"/>
<polygon fill="lightgray" stroke="lightgray" points="556.996,-1120.12 565.726,-1114.11 555.158,-1113.36 556.996,-1120.12"/>
<text text-anchor="middle" x="438.495" y="-1158.8" font-family="Times New Roman,serif" font-size="14.00" fill="lightgray">wff ( ph \/ ps )</text>
</g>
<!-- n16586 -->
<g id="node27" class="node"><title>n16586</title>
<ellipse fill="none" stroke="lightgray" cx="295.247" cy="-1089" rx="27" ry="18"/>
<text text-anchor="middle" x="295.247" y="-1085.3" font-family="Times New Roman,serif" font-size="14.00" fill="lightgray">wo</text>
</g>
<!-- n16583&#45;&gt;n16586 -->
<g id="edge37" class="edge"><title>n16583&#45;&gt;n16586</title>
</g>
<!-- n16582&#45;&gt;n16583 -->
<g id="edge29" class="edge"><title>n16582&#45;&gt;n16583</title>
<path fill="none" stroke="lightgray" d="M175.847,-1099.78C199.329,-1111.92 237.688,-1131.76 264.356,-1145.54"/>
<polygon fill="lightgray" stroke="lightgray" points="262.768,-1148.66 273.258,-1150.15 265.983,-1142.45 262.768,-1148.66"/>
<text text-anchor="middle" x="223.5" y="-1139.8" font-family="Times New Roman,serif" font-size="14.00" fill="lightgray">wff ps</text>
</g>
<!-- n16587&#45;&gt;n16619 -->
<g id="edge36" class="edge"><title>n16587&#45;&gt;n16619</title>
<path fill="none" stroke="lightgray" d="M618.193,-1107C702.788,-1107 968.059,-1107 1072.82,-1107"/>
<polygon fill="lightgray" stroke="lightgray" points="1073.03,-1110.5 1083.03,-1107 1073.03,-1103.5 1073.03,-1110.5"/>
<text text-anchor="middle" x="856.188" y="-1110.8" font-family="Times New Roman,serif" font-size="14.00" fill="lightgray">wff ( ( ph \/ ps ) &lt;&#45;&gt; ( ph \/ ch ) )</text>
</g>
<!-- n16592 -->
<g id="node31" class="node"><title>n16592</title>
<ellipse fill="cyan" stroke="black" cx="590.841" cy="-1012" rx="38.1938" ry="18"/>
<text text-anchor="middle" x="590.841" y="-1008.3" font-family="Times New Roman,serif" font-size="14.00">pm5.74</text>
</g>
<!-- n16587&#45;&gt;n16592 -->
<g id="edge88" class="edge"><title>n16587&#45;&gt;n16592</title>
</g>
<!-- n16584 -->
<g id="node26" class="node"><title>n16584</title>
<ellipse fill="none" stroke="lightgray" cx="154" cy="-1035" rx="27" ry="18"/>
<text text-anchor="middle" x="154" y="-1031.3" font-family="Times New Roman,serif" font-size="14.00" fill="lightgray">wph</text>
</g>
<!-- n16584&#45;&gt;n16586 -->
<g id="edge32" class="edge"><title>n16584&#45;&gt;n16586</title>
<path fill="none" stroke="lightgray" d="M178.456,-1043.15C197.346,-1049.82 224.526,-1059.64 248,-1069 252.853,-1070.93 257.958,-1073.05 262.934,-1075.17"/>
<polygon fill="lightgray" stroke="lightgray" points="261.674,-1078.44 272.243,-1079.18 264.442,-1072.01 261.674,-1078.44"/>
<text text-anchor="middle" x="223.5" y="-1072.8" font-family="Times New Roman,serif" font-size="14.00" fill="lightgray">wff ph</text>
</g>
<!-- n16585 -->
<g id="node28" class="node"><title>n16585</title>
<ellipse fill="none" stroke="lightgray" cx="154" cy="-963" rx="27" ry="18"/>
<text text-anchor="middle" x="154" y="-959.3" font-family="Times New Roman,serif" font-size="14.00" fill="lightgray">wch</text>
</g>
<!-- n16584&#45;&gt;n16585 -->
<g id="edge35" class="edge"><title>n16584&#45;&gt;n16585</title>
</g>
<!-- n16586&#45;&gt;n16587 -->
<g id="edge34" class="edge"><title>n16586&#45;&gt;n16587</title>
<path fill="none" stroke="lightgray" d="M322.302,-1090.6C374.861,-1093.82 493.676,-1101.1 553.697,-1104.78"/>
<polygon fill="lightgray" stroke="lightgray" points="553.65,-1108.29 563.845,-1105.41 554.078,-1101.3 553.65,-1108.29"/>
<text text-anchor="middle" x="438.495" y="-1107.8" font-family="Times New Roman,serif" font-size="14.00" fill="lightgray">wff ( ph \/ ch )</text>
</g>
<!-- n16585&#45;&gt;n16586 -->
<g id="edge33" class="edge"><title>n16585&#45;&gt;n16586</title>
<path fill="none" stroke="lightgray" d="M174.934,-974.547C195.081,-986.911 226.26,-1008.02 248,-1032 258.444,-1043.52 256.293,-1049.85 266,-1062 267.445,-1063.81 269.007,-1065.61 270.629,-1067.39"/>
<polygon fill="lightgray" stroke="lightgray" points="268.443,-1070.16 277.946,-1074.84 273.439,-1065.25 268.443,-1070.16"/>
<text text-anchor="middle" x="223.5" y="-1035.8" font-family="Times New Roman,serif" font-size="14.00" fill="lightgray">wff ch</text>
</g>
<!-- n16588 -->
<g id="node29" class="node"><title>n16588</title>
<ellipse fill="none" stroke="lightgray" cx="154" cy="-909" rx="27" ry="18"/>
<text text-anchor="middle" x="154" y="-905.3" font-family="Times New Roman,serif" font-size="14.00" fill="lightgray">wph</text>
</g>
<!-- n16589 -->
<g id="node30" class="node"><title>n16589</title>
<ellipse fill="none" stroke="lightgray" cx="295.247" cy="-1035" rx="27" ry="18"/>
<text text-anchor="middle" x="295.247" y="-1031.3" font-family="Times New Roman,serif" font-size="14.00" fill="lightgray">wn</text>
</g>
<!-- n16588&#45;&gt;n16589 -->
<g id="edge38" class="edge"><title>n16588&#45;&gt;n16589</title>
<path fill="none" stroke="lightgray" d="M175.267,-920.294C195.11,-931.934 225.548,-951.388 248,-973 259.41,-983.983 270.123,-998.005 278.359,-1009.94"/>
<polygon fill="lightgray" stroke="lightgray" points="275.669,-1012.21 284.144,-1018.57 281.483,-1008.31 275.669,-1012.21"/>
<text text-anchor="middle" x="223.5" y="-976.8" font-family="Times New Roman,serif" font-size="14.00" fill="lightgray">wff ph</text>
</g>
<!-- n16589&#45;&gt;n16592 -->
<g id="edge39" class="edge"><title>n16589&#45;&gt;n16592</title>
<path fill="none" stroke="lightgray" d="M322.302,-1032.96C371.888,-1029.07 480.447,-1020.57 542.97,-1015.67"/>
<polygon fill="lightgray" stroke="lightgray" points="543.27,-1019.16 552.966,-1014.89 542.724,-1012.18 543.27,-1019.16"/>
<text text-anchor="middle" x="438.495" y="-1035.8" font-family="Times New Roman,serif" font-size="14.00" fill="lightgray">wff &#45;. ph</text>
</g>
<!-- n16590 -->
<g id="node32" class="node"><title>n16590</title>
<ellipse fill="none" stroke="lightgray" cx="295.247" cy="-963" rx="27" ry="18"/>
<text text-anchor="middle" x="295.247" y="-959.3" font-family="Times New Roman,serif" font-size="14.00" fill="lightgray">wps</text>
</g>
<!-- n16589&#45;&gt;n16590 -->
<g id="edge43" class="edge"><title>n16589&#45;&gt;n16590</title>
</g>
<!-- n16592&#45;&gt;n16619 -->
<g id="edge42" class="edge"><title>n16592&#45;&gt;n16619</title>
<path fill="none" stroke="black" d="M628.581,-1015.39C708.848,-1023.33 905.467,-1045.76 1065.19,-1088 1070.18,-1089.32 1075.36,-1090.95 1080.43,-1092.69"/>
<polygon fill="black" stroke="black" points="1079.35,-1096.02 1089.94,-1096.13 1081.73,-1089.44 1079.35,-1096.02"/>
<text text-anchor="middle" x="856.188" y="-1091.8" font-family="Times New Roman,serif" font-size="14.00">|&#45; ( ( &#45;. ph &#45;&gt; ( ps &lt;&#45;&gt; ch ) ) &lt;&#45;&gt; ( ( &#45;. ph &#45;&gt; ps ) &lt;&#45;&gt; ( &#45;. ph &#45;&gt; ch ) ) )</text>
</g>
<!-- n16597 -->
<g id="node35" class="node"><title>n16597</title>
<ellipse fill="lawngreen" stroke="black" cx="590.841" cy="-837" rx="29.4969" ry="18"/>
<text text-anchor="middle" x="590.841" y="-833.3" font-family="Times New Roman,serif" font-size="14.00">df&#45;or</text>
</g>
<!-- n16592&#45;&gt;n16597 -->
<g id="edge89" class="edge"><title>n16592&#45;&gt;n16597</title>
</g>
<!-- n16590&#45;&gt;n16592 -->
<g id="edge40" class="edge"><title>n16590&#45;&gt;n16592</title>
<path fill="none" stroke="lightgray" d="M322.132,-965.926C366.04,-971.084 457.826,-982.713 534.495,-998 538.65,-998.829 542.961,-999.771 547.26,-1000.77"/>
<polygon fill="lightgray" stroke="lightgray" points="546.648,-1004.22 557.189,-1003.15 548.285,-997.412 546.648,-1004.22"/>
<text text-anchor="middle" x="438.495" y="-1001.8" font-family="Times New Roman,serif" font-size="14.00" fill="lightgray">wff ps</text>
</g>
<!-- n16591 -->
<g id="node33" class="node"><title>n16591</title>
<ellipse fill="none" stroke="lightgray" cx="295.247" cy="-891" rx="27" ry="18"/>
<text text-anchor="middle" x="295.247" y="-887.3" font-family="Times New Roman,serif" font-size="14.00" fill="lightgray">wch</text>
</g>
<!-- n16590&#45;&gt;n16591 -->
<g id="edge44" class="edge"><title>n16590&#45;&gt;n16591</title>
</g>
<!-- n16591&#45;&gt;n16592 -->
<g id="edge41" class="edge"><title>n16591&#45;&gt;n16592</title>
<path fill="none" stroke="lightgray" d="M322.489,-892.466C368.531,-896.081 465.518,-908.428 534.495,-950 549.556,-959.077 562.821,-973.564 572.586,-986.252"/>
<polygon fill="lightgray" stroke="lightgray" points="570.024,-988.675 578.767,-994.66 575.664,-984.529 570.024,-988.675"/>
<text text-anchor="middle" x="438.495" y="-953.8" font-family="Times New Roman,serif" font-size="14.00" fill="lightgray">wff ch</text>
</g>
<!-- n16593 -->
<g id="node34" class="node"><title>n16593</title>
<ellipse fill="none" stroke="lightgray" cx="295.247" cy="-837" rx="27" ry="18"/>
<text text-anchor="middle" x="295.247" y="-833.3" font-family="Times New Roman,serif" font-size="14.00" fill="lightgray">wph</text>
</g>
<!-- n16593&#45;&gt;n16597 -->
<g id="edge45" class="edge"><title>n16593&#45;&gt;n16597</title>
<path fill="none" stroke="lightgray" d="M322.302,-837C374.066,-837 490.1,-837 550.936,-837"/>
<polygon fill="lightgray" stroke="lightgray" points="551.271,-840.5 561.271,-837 551.271,-833.5 551.271,-840.5"/>
<text text-anchor="middle" x="438.495" y="-840.8" font-family="Times New Roman,serif" font-size="14.00" fill="lightgray">wff ph</text>
</g>
<!-- n16596 -->
<g id="node37" class="node"><title>n16596</title>
<ellipse fill="none" stroke="lightgray" cx="295.247" cy="-765" rx="27" ry="18"/>
<text text-anchor="middle" x="295.247" y="-761.3" font-family="Times New Roman,serif" font-size="14.00" fill="lightgray">wb</text>
</g>
<!-- n16593&#45;&gt;n16596 -->
<g id="edge51" class="edge"><title>n16593&#45;&gt;n16596</title>
</g>
<!-- n16597&#45;&gt;n16619 -->
<g id="edge50" class="edge"><title>n16597&#45;&gt;n16619</title>
<path fill="none" stroke="black" d="M620.174,-839.129C700.043,-846.55 929.969,-877.88 1065.19,-999 1088.96,-1020.29 1102.51,-1055.05 1109.54,-1079.37"/>
<polygon fill="black" stroke="black" points="1106.18,-1080.34 1112.16,-1089.08 1112.93,-1078.51 1106.18,-1080.34"/>
<text text-anchor="middle" x="856.188" y="-1002.8" font-family="Times New Roman,serif" font-size="14.00">|&#45; ( ( ph \/ ( ps &lt;&#45;&gt; ch ) ) &lt;&#45;&gt; ( &#45;. ph &#45;&gt; ( ps &lt;&#45;&gt; ch ) ) )</text>
</g>
<!-- n16618 -->
<g id="node42" class="node"><title>n16618</title>
<ellipse fill="cyan" stroke="black" cx="590.841" cy="-495" rx="35.194" ry="18"/>
<text text-anchor="middle" x="590.841" y="-491.3" font-family="Times New Roman,serif" font-size="14.00">bibi12i</text>
</g>
<!-- n16597&#45;&gt;n16618 -->
<g id="edge90" class="edge"><title>n16597&#45;&gt;n16618</title>
</g>
<!-- n16594 -->
<g id="node36" class="node"><title>n16594</title>
<ellipse fill="none" stroke="lightgray" cx="154" cy="-846" rx="27" ry="18"/>
<text text-anchor="middle" x="154" y="-842.3" font-family="Times New Roman,serif" font-size="14.00" fill="lightgray">wch</text>
</g>
<!-- n16594&#45;&gt;n16596 -->
<g id="edge46" class="edge"><title>n16594&#45;&gt;n16596</title>
<path fill="none" stroke="lightgray" d="M174.951,-834.395C198.63,-820.621 238.304,-797.542 265.343,-781.814"/>
<polygon fill="lightgray" stroke="lightgray" points="267.45,-784.637 274.334,-776.584 263.93,-778.587 267.45,-784.637"/>
<text text-anchor="middle" x="223.5" y="-823.8" font-family="Times New Roman,serif" font-size="14.00" fill="lightgray">wff ch</text>
</g>
<!-- n16595 -->
<g id="node38" class="node"><title>n16595</title>
<ellipse fill="none" stroke="lightgray" cx="154" cy="-774" rx="27" ry="18"/>
<text text-anchor="middle" x="154" y="-770.3" font-family="Times New Roman,serif" font-size="14.00" fill="lightgray">wps</text>
</g>
<!-- n16594&#45;&gt;n16595 -->
<g id="edge49" class="edge"><title>n16594&#45;&gt;n16595</title>
</g>
<!-- n16596&#45;&gt;n16597 -->
<g id="edge48" class="edge"><title>n16596&#45;&gt;n16597</title>
<path fill="none" stroke="lightgray" d="M321.517,-769.656C365.274,-777.933 457.821,-796.384 534.495,-818 541.393,-819.945 548.692,-822.26 555.648,-824.595"/>
<polygon fill="lightgray" stroke="lightgray" points="554.911,-828.043 565.506,-827.988 557.189,-821.424 554.911,-828.043"/>
<text text-anchor="middle" x="438.495" y="-821.8" font-family="Times New Roman,serif" font-size="14.00" fill="lightgray">wff ( ps &lt;&#45;&gt; ch )</text>
</g>
<!-- n16595&#45;&gt;n16596 -->
<g id="edge47" class="edge"><title>n16595&#45;&gt;n16596</title>
<path fill="none" stroke="lightgray" d="M181.191,-772.307C202.877,-770.906 233.924,-768.899 257.997,-767.343"/>
<polygon fill="lightgray" stroke="lightgray" points="258.42,-770.823 268.173,-766.685 257.969,-763.838 258.42,-770.823"/>
<text text-anchor="middle" x="223.5" y="-775.8" font-family="Times New Roman,serif" font-size="14.00" fill="lightgray">wff ps</text>
</g>
<!-- n16598 -->
<g id="node39" class="node"><title>n16598</title>
<ellipse fill="none" stroke="lightgray" cx="154" cy="-720" rx="27" ry="18"/>
<text text-anchor="middle" x="154" y="-716.3" font-family="Times New Roman,serif" font-size="14.00" fill="lightgray">wps</text>
</g>
<!-- n16600 -->
<g id="node40" class="node"><title>n16600</title>
<ellipse fill="none" stroke="lightgray" cx="295.247" cy="-623" rx="27" ry="18"/>
<text text-anchor="middle" x="295.247" y="-619.3" font-family="Times New Roman,serif" font-size="14.00" fill="lightgray">wo</text>
</g>
<!-- n16598&#45;&gt;n16600 -->
<g id="edge52" class="edge"><title>n16598&#45;&gt;n16600</title>
<path fill="none" stroke="lightgray" d="M174.543,-707.83C193.577,-695.827 223.187,-676.751 248,-659 254.982,-654.005 262.386,-648.392 269.174,-643.111"/>
<polygon fill="lightgray" stroke="lightgray" points="271.668,-645.602 277.367,-636.67 267.342,-640.099 271.668,-645.602"/>
<text text-anchor="middle" x="223.5" y="-695.8" font-family="Times New Roman,serif" font-size="14.00" fill="lightgray">wff ps</text>
</g>
<!-- n16599 -->
<g id="node41" class="node"><title>n16599</title>
<ellipse fill="none" stroke="lightgray" cx="154" cy="-648" rx="27" ry="18"/>
<text text-anchor="middle" x="154" y="-644.3" font-family="Times New Roman,serif" font-size="14.00" fill="lightgray">wph</text>
</g>
<!-- n16598&#45;&gt;n16599 -->
<g id="edge55" class="edge"><title>n16598&#45;&gt;n16599</title>
</g>
<!-- n16600&#45;&gt;n16618 -->
<g id="edge54" class="edge"><title>n16600&#45;&gt;n16618</title>
<path fill="none" stroke="lightgray" d="M321.281,-618.193C366.261,-608.819 462.742,-585.313 534.495,-544 546.312,-537.196 557.853,-527.6 567.313,-518.7"/>
<polygon fill="lightgray" stroke="lightgray" points="570.015,-520.954 574.729,-511.465 565.127,-515.943 570.015,-520.954"/>
<text text-anchor="middle" x="438.495" y="-617.8" font-family="Times New Roman,serif" font-size="14.00" fill="lightgray">wff ( ph \/ ps )</text>
</g>
<!-- n16604 -->
<g id="node44" class="node"><title>n16604</title>
<ellipse fill="none" stroke="lightgray" cx="295.247" cy="-530" rx="27" ry="18"/>
<text text-anchor="middle" x="295.247" y="-526.3" font-family="Times New Roman,serif" font-size="14.00" fill="lightgray">wi</text>
</g>
<!-- n16600&#45;&gt;n16604 -->
<g id="edge79" class="edge"><title>n16600&#45;&gt;n16604</title>
</g>
<!-- n16599&#45;&gt;n16600 -->
<g id="edge53" class="edge"><title>n16599&#45;&gt;n16600</title>
<path fill="none" stroke="lightgray" d="M180.217,-643.473C202.161,-639.533 234.207,-633.779 258.743,-629.374"/>
<polygon fill="lightgray" stroke="lightgray" points="259.524,-632.79 268.748,-627.578 258.287,-625.9 259.524,-632.79"/>
<text text-anchor="middle" x="223.5" y="-643.8" font-family="Times New Roman,serif" font-size="14.00" fill="lightgray">wff ph</text>
</g>
<!-- n16618&#45;&gt;n16619 -->
<g id="edge78" class="edge"><title>n16618&#45;&gt;n16619</title>
<path fill="none" stroke="black" d="M619.71,-505.334C702.947,-537.761 951.012,-646.066 1065.19,-824 1092.2,-866.097 1108.05,-1015.72 1113.66,-1078.71"/>
<polygon fill="black" stroke="black" points="1110.18,-1079.08 1114.53,-1088.74 1117.15,-1078.47 1110.18,-1079.08"/>
<text text-anchor="middle" x="856.188" y="-827.8" font-family="Times New Roman,serif" font-size="14.00">|&#45; ( ( ( ph \/ ps ) &lt;&#45;&gt; ( ph \/ ch ) ) &lt;&#45;&gt; ( ( &#45;. ph &#45;&gt; ps ) &lt;&#45;&gt; ( &#45;. ph &#45;&gt; ch ) ) )</text>
</g>
<!-- n16601 -->
<g id="node43" class="node"><title>n16601</title>
<ellipse fill="none" stroke="lightgray" cx="154" cy="-594" rx="27" ry="18"/>
<text text-anchor="middle" x="154" y="-590.3" font-family="Times New Roman,serif" font-size="14.00" fill="lightgray">wps</text>
</g>
<!-- n16601&#45;&gt;n16604 -->
<g id="edge56" class="edge"><title>n16601&#45;&gt;n16604</title>
<path fill="none" stroke="lightgray" d="M176.757,-584C200.056,-573.292 237.215,-556.213 263.498,-544.133"/>
<polygon fill="lightgray" stroke="lightgray" points="265.018,-547.286 272.643,-539.93 262.095,-540.926 265.018,-547.286"/>
<text text-anchor="middle" x="223.5" y="-577.8" font-family="Times New Roman,serif" font-size="14.00" fill="lightgray">wff ps</text>
</g>
<!-- n16603 -->
<g id="node46" class="node"><title>n16603</title>
<ellipse fill="none" stroke="lightgray" cx="154" cy="-522" rx="27" ry="18"/>
<text text-anchor="middle" x="154" y="-518.3" font-family="Times New Roman,serif" font-size="14.00" fill="lightgray">wn</text>
</g>
<!-- n16601&#45;&gt;n16603 -->
<g id="edge60" class="edge"><title>n16601&#45;&gt;n16603</title>
</g>
<!-- n16604&#45;&gt;n16618 -->
<g id="edge59" class="edge"><title>n16604&#45;&gt;n16618</title>
<path fill="none" stroke="lightgray" d="M322.045,-526.925C372.309,-520.933 483.863,-507.634 545.963,-500.231"/>
<polygon fill="lightgray" stroke="lightgray" points="546.707,-503.667 556.223,-499.008 545.879,-496.716 546.707,-503.667"/>
<text text-anchor="middle" x="438.495" y="-528.8" font-family="Times New Roman,serif" font-size="14.00" fill="lightgray">wff ( &#45;. ph &#45;&gt; ps )</text>
</g>
<!-- n16607 -->
<g id="node48" class="node"><title>n16607</title>
<ellipse fill="none" stroke="lightgray" cx="295.247" cy="-458" rx="27" ry="18"/>
<text text-anchor="middle" x="295.247" y="-454.3" font-family="Times New Roman,serif" font-size="14.00" fill="lightgray">wo</text>
</g>
<!-- n16604&#45;&gt;n16607 -->
<g id="edge80" class="edge"><title>n16604&#45;&gt;n16607</title>
</g>
<!-- n16602 -->
<g id="node45" class="node"><title>n16602</title>
<ellipse fill="none" stroke="lightgray" cx="27" cy="-522" rx="27" ry="18"/>
<text text-anchor="middle" x="27" y="-518.3" font-family="Times New Roman,serif" font-size="14.00" fill="lightgray">wph</text>
</g>
<!-- n16602&#45;&gt;n16603 -->
<g id="edge57" class="edge"><title>n16602&#45;&gt;n16603</title>
<path fill="none" stroke="lightgray" d="M54.2041,-522C72.3711,-522 96.7994,-522 116.82,-522"/>
<polygon fill="lightgray" stroke="lightgray" points="116.83,-525.5 126.83,-522 116.83,-518.5 116.83,-525.5"/>
<text text-anchor="middle" x="90.5" y="-525.8" font-family="Times New Roman,serif" font-size="14.00" fill="lightgray">wff ph</text>
</g>
<!-- n16603&#45;&gt;n16604 -->
<g id="edge58" class="edge"><title>n16603&#45;&gt;n16604</title>
<path fill="none" stroke="lightgray" d="M181.191,-523.505C202.877,-524.751 233.924,-526.534 257.997,-527.917"/>
<polygon fill="lightgray" stroke="lightgray" points="257.989,-531.423 268.173,-528.502 258.391,-524.434 257.989,-531.423"/>
<text text-anchor="middle" x="223.5" y="-531.8" font-family="Times New Roman,serif" font-size="14.00" fill="lightgray">wff &#45;. ph</text>
</g>
<!-- n16605 -->
<g id="node47" class="node"><title>n16605</title>
<ellipse fill="none" stroke="lightgray" cx="154" cy="-468" rx="27" ry="18"/>
<text text-anchor="middle" x="154" y="-464.3" font-family="Times New Roman,serif" font-size="14.00" fill="lightgray">wch</text>
</g>
<!-- n16605&#45;&gt;n16607 -->
<g id="edge61" class="edge"><title>n16605&#45;&gt;n16607</title>
<path fill="none" stroke="lightgray" d="M180.865,-466.143C202.515,-464.588 233.658,-462.351 257.829,-460.615"/>
<polygon fill="lightgray" stroke="lightgray" points="258.325,-464.089 268.048,-459.881 257.823,-457.107 258.325,-464.089"/>
<text text-anchor="middle" x="223.5" y="-468.8" font-family="Times New Roman,serif" font-size="14.00" fill="lightgray">wff ch</text>
</g>
<!-- n16606 -->
<g id="node49" class="node"><title>n16606</title>
<ellipse fill="none" stroke="lightgray" cx="154" cy="-396" rx="27" ry="18"/>
<text text-anchor="middle" x="154" y="-392.3" font-family="Times New Roman,serif" font-size="14.00" fill="lightgray">wph</text>
</g>
<!-- n16605&#45;&gt;n16606 -->
<g id="edge64" class="edge"><title>n16605&#45;&gt;n16606</title>
</g>
<!-- n16607&#45;&gt;n16618 -->
<g id="edge63" class="edge"><title>n16607&#45;&gt;n16618</title>
<path fill="none" stroke="lightgray" d="M322.458,-459.811C366.465,-463.062 457.909,-470.717 534.495,-483 539.041,-483.729 543.776,-484.593 548.478,-485.518"/>
<polygon fill="lightgray" stroke="lightgray" points="548.134,-489.021 558.635,-487.612 549.548,-482.165 548.134,-489.021"/>
<text text-anchor="middle" x="438.495" y="-486.8" font-family="Times New Roman,serif" font-size="14.00" fill="lightgray">wff ( ph \/ ch )</text>
</g>
<!-- n16611 -->
<g id="node51" class="node"><title>n16611</title>
<ellipse fill="none" stroke="lightgray" cx="295.247" cy="-342" rx="27" ry="18"/>
<text text-anchor="middle" x="295.247" y="-338.3" font-family="Times New Roman,serif" font-size="14.00" fill="lightgray">wi</text>
</g>
<!-- n16607&#45;&gt;n16611 -->
<g id="edge81" class="edge"><title>n16607&#45;&gt;n16611</title>
</g>
<!-- n16606&#45;&gt;n16607 -->
<g id="edge62" class="edge"><title>n16606&#45;&gt;n16607</title>
<path fill="none" stroke="lightgray" d="M176.757,-405.688C199.92,-416.001 236.781,-432.413 263.036,-444.103"/>
<polygon fill="lightgray" stroke="lightgray" points="261.624,-447.306 272.183,-448.176 264.472,-440.911 261.624,-447.306"/>
<text text-anchor="middle" x="223.5" y="-440.8" font-family="Times New Roman,serif" font-size="14.00" fill="lightgray">wff ph</text>
</g>
<!-- n16608 -->
<g id="node50" class="node"><title>n16608</title>
<ellipse fill="none" stroke="lightgray" cx="154" cy="-342" rx="27" ry="18"/>
<text text-anchor="middle" x="154" y="-338.3" font-family="Times New Roman,serif" font-size="14.00" fill="lightgray">wch</text>
</g>
<!-- n16608&#45;&gt;n16611 -->
<g id="edge65" class="edge"><title>n16608&#45;&gt;n16611</title>
<path fill="none" stroke="lightgray" d="M181.191,-342C202.877,-342 233.924,-342 257.997,-342"/>
<polygon fill="lightgray" stroke="lightgray" points="258.174,-345.5 268.173,-342 258.173,-338.5 258.174,-345.5"/>
<text text-anchor="middle" x="223.5" y="-345.8" font-family="Times New Roman,serif" font-size="14.00" fill="lightgray">wff ch</text>
</g>
<!-- n16610 -->
<g id="node53" class="node"><title>n16610</title>
<ellipse fill="none" stroke="lightgray" cx="154" cy="-270" rx="27" ry="18"/>
<text text-anchor="middle" x="154" y="-266.3" font-family="Times New Roman,serif" font-size="14.00" fill="lightgray">wn</text>
</g>
<!-- n16608&#45;&gt;n16610 -->
<g id="edge69" class="edge"><title>n16608&#45;&gt;n16610</title>
</g>
<!-- n16611&#45;&gt;n16618 -->
<g id="edge68" class="edge"><title>n16611&#45;&gt;n16618</title>
<path fill="none" stroke="lightgray" d="M320.272,-349.058C364.858,-362.812 462.419,-396.025 534.495,-443 546.522,-450.839 558.332,-461.417 567.932,-470.987"/>
<polygon fill="lightgray" stroke="lightgray" points="565.638,-473.647 575.12,-478.373 570.654,-468.765 565.638,-473.647"/>
<text text-anchor="middle" x="438.495" y="-446.8" font-family="Times New Roman,serif" font-size="14.00" fill="lightgray">wff ( &#45;. ph &#45;&gt; ch )</text>
</g>
<!-- n16614 -->
<g id="node55" class="node"><title>n16614</title>
<ellipse fill="lawngreen" stroke="black" cx="295.247" cy="-216" rx="29.4969" ry="18"/>
<text text-anchor="middle" x="295.247" y="-212.3" font-family="Times New Roman,serif" font-size="14.00">df&#45;or</text>
</g>
<!-- n16611&#45;&gt;n16614 -->
<g id="edge82" class="edge"><title>n16611&#45;&gt;n16614</title>
</g>
<!-- n16609 -->
<g id="node52" class="node"><title>n16609</title>
<ellipse fill="none" stroke="lightgray" cx="27" cy="-270" rx="27" ry="18"/>
<text text-anchor="middle" x="27" y="-266.3" font-family="Times New Roman,serif" font-size="14.00" fill="lightgray">wph</text>
</g>
<!-- n16609&#45;&gt;n16610 -->
<g id="edge66" class="edge"><title>n16609&#45;&gt;n16610</title>
<path fill="none" stroke="lightgray" d="M54.2041,-270C72.3711,-270 96.7994,-270 116.82,-270"/>
<polygon fill="lightgray" stroke="lightgray" points="116.83,-273.5 126.83,-270 116.83,-266.5 116.83,-273.5"/>
<text text-anchor="middle" x="90.5" y="-273.8" font-family="Times New Roman,serif" font-size="14.00" fill="lightgray">wff ph</text>
</g>
<!-- n16610&#45;&gt;n16611 -->
<g id="edge67" class="edge"><title>n16610&#45;&gt;n16611</title>
<path fill="none" stroke="lightgray" d="M175.847,-280.779C199.329,-292.921 237.688,-312.755 264.356,-326.544"/>
<polygon fill="lightgray" stroke="lightgray" points="262.768,-329.663 273.258,-331.147 265.983,-323.445 262.768,-329.663"/>
<text text-anchor="middle" x="223.5" y="-320.8" font-family="Times New Roman,serif" font-size="14.00" fill="lightgray">wff &#45;. ph</text>
</g>
<!-- n16612 -->
<g id="node54" class="node"><title>n16612</title>
<ellipse fill="none" stroke="lightgray" cx="154" cy="-216" rx="27" ry="18"/>
<text text-anchor="middle" x="154" y="-212.3" font-family="Times New Roman,serif" font-size="14.00" fill="lightgray">wph</text>
</g>
<!-- n16612&#45;&gt;n16614 -->
<g id="edge70" class="edge"><title>n16612&#45;&gt;n16614</title>
<path fill="none" stroke="lightgray" d="M181.191,-216C202.191,-216 231.968,-216 255.691,-216"/>
<polygon fill="lightgray" stroke="lightgray" points="255.777,-219.5 265.777,-216 255.777,-212.5 255.777,-219.5"/>
<text text-anchor="middle" x="223.5" y="-219.8" font-family="Times New Roman,serif" font-size="14.00" fill="lightgray">wff ph</text>
</g>
<!-- n16613 -->
<g id="node56" class="node"><title>n16613</title>
<ellipse fill="none" stroke="lightgray" cx="154" cy="-144" rx="27" ry="18"/>
<text text-anchor="middle" x="154" y="-140.3" font-family="Times New Roman,serif" font-size="14.00" fill="lightgray">wps</text>
</g>
<!-- n16612&#45;&gt;n16613 -->
<g id="edge73" class="edge"><title>n16612&#45;&gt;n16613</title>
</g>
<!-- n16614&#45;&gt;n16618 -->
<g id="edge72" class="edge"><title>n16614&#45;&gt;n16618</title>
<path fill="none" stroke="black" d="M320.257,-225.605C374.417,-247.68 503.762,-302.834 534.495,-338 566.929,-375.113 580.712,-432.455 586.3,-466.602"/>
<polygon fill="black" stroke="black" points="582.888,-467.452 587.839,-476.819 589.81,-466.409 582.888,-467.452"/>
<text text-anchor="middle" x="438.495" y="-341.8" font-family="Times New Roman,serif" font-size="14.00">|&#45; ( ( ph \/ ps ) &lt;&#45;&gt; ( &#45;. ph &#45;&gt; ps ) )</text>
</g>
<!-- n16617 -->
<g id="node58" class="node"><title>n16617</title>
<ellipse fill="lawngreen" stroke="black" cx="295.247" cy="-117" rx="29.4969" ry="18"/>
<text text-anchor="middle" x="295.247" y="-113.3" font-family="Times New Roman,serif" font-size="14.00">df&#45;or</text>
</g>
<!-- n16614&#45;&gt;n16617 -->
<g id="edge83" class="edge"><title>n16614&#45;&gt;n16617</title>
</g>
<!-- n16613&#45;&gt;n16614 -->
<g id="edge71" class="edge"><title>n16613&#45;&gt;n16614</title>
<path fill="none" stroke="lightgray" d="M175.847,-154.779C199.058,-166.781 236.803,-186.298 263.427,-200.064"/>
<polygon fill="lightgray" stroke="lightgray" points="261.848,-203.187 272.338,-204.671 265.063,-196.969 261.848,-203.187"/>
<text text-anchor="middle" x="223.5" y="-194.8" font-family="Times New Roman,serif" font-size="14.00" fill="lightgray">wff ps</text>
</g>
<!-- n16615 -->
<g id="node57" class="node"><title>n16615</title>
<ellipse fill="none" stroke="lightgray" cx="154" cy="-90" rx="27" ry="18"/>
<text text-anchor="middle" x="154" y="-86.3" font-family="Times New Roman,serif" font-size="14.00" fill="lightgray">wph</text>
</g>
<!-- n16615&#45;&gt;n16617 -->
<g id="edge74" class="edge"><title>n16615&#45;&gt;n16617</title>
<path fill="none" stroke="lightgray" d="M180.217,-94.8895C201.613,-99.0382 232.611,-105.049 256.889,-109.756"/>
<polygon fill="lightgray" stroke="lightgray" points="256.352,-113.217 266.835,-111.685 257.684,-106.345 256.352,-113.217"/>
<text text-anchor="middle" x="223.5" y="-111.8" font-family="Times New Roman,serif" font-size="14.00" fill="lightgray">wff ph</text>
</g>
<!-- n16616 -->
<g id="node59" class="node"><title>n16616</title>
<ellipse fill="none" stroke="lightgray" cx="154" cy="-18" rx="27" ry="18"/>
<text text-anchor="middle" x="154" y="-14.3" font-family="Times New Roman,serif" font-size="14.00" fill="lightgray">wch</text>
</g>
<!-- n16615&#45;&gt;n16616 -->
<g id="edge77" class="edge"><title>n16615&#45;&gt;n16616</title>
</g>
<!-- n16617&#45;&gt;n16618 -->
<g id="edge76" class="edge"><title>n16617&#45;&gt;n16618</title>
<path fill="none" stroke="black" d="M324.045,-120.36C374.355,-127.992 480.305,-151.468 534.495,-218 565.464,-256.022 581.824,-403.691 587.5,-466.486"/>
<polygon fill="black" stroke="black" points="584.048,-467.18 588.408,-476.836 591.021,-466.569 584.048,-467.18"/>
<text text-anchor="middle" x="438.495" y="-221.8" font-family="Times New Roman,serif" font-size="14.00">|&#45; ( ( ph \/ ch ) &lt;&#45;&gt; ( &#45;. ph &#45;&gt; ch ) )</text>
</g>
<!-- n16616&#45;&gt;n16617 -->
<g id="edge75" class="edge"><title>n16616&#45;&gt;n16617</title>
<path fill="none" stroke="lightgray" d="M174.211,-30.1144C193.251,-42.2819 223.095,-61.7881 248,-80 254.886,-85.0357 262.167,-90.6937 268.863,-96.0417"/>
<polygon fill="lightgray" stroke="lightgray" points="266.979,-99.0193 276.958,-102.58 271.377,-93.5737 266.979,-99.0193"/>
<text text-anchor="middle" x="223.5" y="-83.8" font-family="Times New Roman,serif" font-size="14.00" fill="lightgray">wff ch</text>
</g>
</g>
</svg>
