<?xml version="1.0" encoding="UTF-8" standalone="no"?>
<!DOCTYPE svg PUBLIC "-//W3C//DTD SVG 1.1//EN"
 "http://www.w3.org/Graphics/SVG/1.1/DTD/svg11.dtd">
<!-- Generated by graphviz version 2.38.0 (20140413.2041)
 -->
<!-- Title: proof_ord Pages: 1 -->
<svg width="849pt" height="389pt"
 viewBox="0.00 0.00 849.48 389.00" xmlns="http://www.w3.org/2000/svg" xmlns:xlink="http://www.w3.org/1999/xlink">
<g id="graph0" class="graph" transform="scale(1 1) rotate(0) translate(4 385)">
<title>proof_ord</title>
<polygon fill="white" stroke="none" points="-4,4 -4,-385 845.484,-385 845.484,4 -4,4"/>
<!-- n7180 -->
<g id="node1" class="node"><title>n7180</title>
<ellipse fill="none" stroke="lightgray" cx="296.547" cy="-363" rx="27" ry="18"/>
<text text-anchor="middle" x="296.547" y="-359.3" font-family="Times New Roman,serif" font-size="14.00" fill="lightgray">wph</text>
</g>
<!-- n7192 -->
<g id="node2" class="node"><title>n7192</title>
<ellipse fill="cyan" stroke="black" cx="581.042" cy="-219" rx="27.8951" ry="18"/>
<text text-anchor="middle" x="581.042" y="-215.3" font-family="Times New Roman,serif" font-size="14.00">sylib</text>
</g>
<!-- n7180&#45;&gt;n7192 -->
<g id="edge1" class="edge"><title>n7180&#45;&gt;n7192</title>
<path fill="none" stroke="lightgray" d="M323.668,-362.707C370.79,-360.884 471.067,-350.933 535.095,-301 552.809,-287.185 564.506,-264.347 571.514,-246.276"/>
<polygon fill="lightgray" stroke="lightgray" points="574.826,-247.41 574.934,-236.815 568.243,-245.03 574.826,-247.41"/>
<text text-anchor="middle" x="440.095" y="-364.8" font-family="Times New Roman,serif" font-size="14.00" fill="lightgray">wff ph</text>
</g>
<!-- n7183 -->
<g id="node4" class="node"><title>n7183</title>
<ellipse fill="none" stroke="lightgray" cx="296.547" cy="-291" rx="27" ry="18"/>
<text text-anchor="middle" x="296.547" y="-287.3" font-family="Times New Roman,serif" font-size="14.00" fill="lightgray">wo</text>
</g>
<!-- n7180&#45;&gt;n7183 -->
<g id="edge17" class="edge"><title>n7180&#45;&gt;n7183</title>
</g>
<!-- QED -->
<g id="node14" class="node"><title>QED</title>
</g>
<!-- n7192&#45;&gt;QED -->
<g id="edge16" class="edge"><title>n7192&#45;&gt;QED</title>
<path fill="none" stroke="black" d="M609.234,-219C649.717,-219 726.028,-219 772.387,-219"/>
<polygon fill="black" stroke="black" points="772.644,-222.5 782.644,-219 772.644,-215.5 772.644,-222.5"/>
<text text-anchor="middle" x="695.99" y="-222.8" font-family="Times New Roman,serif" font-size="14.00">|&#45; ( ph &#45;&gt; ( &#45;. ps &#45;&gt; ch ) )</text>
</g>
<!-- n7181 -->
<g id="node3" class="node"><title>n7181</title>
<ellipse fill="none" stroke="lightgray" cx="154" cy="-350" rx="27" ry="18"/>
<text text-anchor="middle" x="154" y="-346.3" font-family="Times New Roman,serif" font-size="14.00" fill="lightgray">wps</text>
</g>
<!-- n7181&#45;&gt;n7183 -->
<g id="edge2" class="edge"><title>n7181&#45;&gt;n7183</title>
<path fill="none" stroke="lightgray" d="M177.27,-340.651C200.606,-330.855 237.47,-315.38 263.839,-304.311"/>
<polygon fill="lightgray" stroke="lightgray" points="265.516,-307.403 273.381,-300.305 262.806,-300.949 265.516,-307.403"/>
<text text-anchor="middle" x="223.5" y="-333.8" font-family="Times New Roman,serif" font-size="14.00" fill="lightgray">wff ps</text>
</g>
<!-- n7182 -->
<g id="node5" class="node"><title>n7182</title>
<ellipse fill="none" stroke="lightgray" cx="154" cy="-278" rx="27" ry="18"/>
<text text-anchor="middle" x="154" y="-274.3" font-family="Times New Roman,serif" font-size="14.00" fill="lightgray">wch</text>
</g>
<!-- n7181&#45;&gt;n7182 -->
<g id="edge5" class="edge"><title>n7181&#45;&gt;n7182</title>
</g>
<!-- n7183&#45;&gt;n7192 -->
<g id="edge4" class="edge"><title>n7183&#45;&gt;n7192</title>
<path fill="none" stroke="lightgray" d="M322.91,-286.893C366.79,-279.446 459.435,-262.213 535.095,-238 539.479,-236.597 544.028,-234.933 548.474,-233.183"/>
<polygon fill="lightgray" stroke="lightgray" points="550.026,-236.328 557.936,-229.28 547.357,-229.857 550.026,-236.328"/>
<text text-anchor="middle" x="440.095" y="-285.8" font-family="Times New Roman,serif" font-size="14.00" fill="lightgray">wff ( ps \/ ch )</text>
</g>
<!-- n7187 -->
<g id="node8" class="node"><title>n7187</title>
<ellipse fill="none" stroke="lightgray" cx="296.547" cy="-219" rx="27" ry="18"/>
<text text-anchor="middle" x="296.547" y="-215.3" font-family="Times New Roman,serif" font-size="14.00" fill="lightgray">wi</text>
</g>
<!-- n7183&#45;&gt;n7187 -->
<g id="edge18" class="edge"><title>n7183&#45;&gt;n7187</title>
</g>
<!-- n7182&#45;&gt;n7183 -->
<g id="edge3" class="edge"><title>n7182&#45;&gt;n7183</title>
<path fill="none" stroke="lightgray" d="M180.779,-280.384C202.829,-282.424 234.809,-285.382 259.413,-287.658"/>
<polygon fill="lightgray" stroke="lightgray" points="259.176,-291.151 269.456,-288.587 259.821,-284.18 259.176,-291.151"/>
<text text-anchor="middle" x="223.5" y="-289.8" font-family="Times New Roman,serif" font-size="14.00" fill="lightgray">wff ch</text>
</g>
<!-- n7184 -->
<g id="node6" class="node"><title>n7184</title>
<ellipse fill="none" stroke="lightgray" cx="27" cy="-223" rx="27" ry="18"/>
<text text-anchor="middle" x="27" y="-219.3" font-family="Times New Roman,serif" font-size="14.00" fill="lightgray">wps</text>
</g>
<!-- n7185 -->
<g id="node7" class="node"><title>n7185</title>
<ellipse fill="none" stroke="lightgray" cx="154" cy="-223" rx="27" ry="18"/>
<text text-anchor="middle" x="154" y="-219.3" font-family="Times New Roman,serif" font-size="14.00" fill="lightgray">wn</text>
</g>
<!-- n7184&#45;&gt;n7185 -->
<g id="edge6" class="edge"><title>n7184&#45;&gt;n7185</title>
<path fill="none" stroke="lightgray" d="M54.2041,-223C72.3711,-223 96.7994,-223 116.82,-223"/>
<polygon fill="lightgray" stroke="lightgray" points="116.83,-226.5 126.83,-223 116.83,-219.5 116.83,-226.5"/>
<text text-anchor="middle" x="90.5" y="-226.8" font-family="Times New Roman,serif" font-size="14.00" fill="lightgray">wff ps</text>
</g>
<!-- n7185&#45;&gt;n7187 -->
<g id="edge7" class="edge"><title>n7185&#45;&gt;n7187</title>
<path fill="none" stroke="lightgray" d="M181.106,-222.257C202.958,-221.635 234.392,-220.74 258.789,-220.046"/>
<polygon fill="lightgray" stroke="lightgray" points="259.207,-223.536 269.104,-219.753 259.008,-216.539 259.207,-223.536"/>
<text text-anchor="middle" x="223.5" y="-225.8" font-family="Times New Roman,serif" font-size="14.00" fill="lightgray">wff &#45;. ps</text>
</g>
<!-- n7186 -->
<g id="node9" class="node"><title>n7186</title>
<ellipse fill="none" stroke="lightgray" cx="154" cy="-151" rx="27" ry="18"/>
<text text-anchor="middle" x="154" y="-147.3" font-family="Times New Roman,serif" font-size="14.00" fill="lightgray">wch</text>
</g>
<!-- n7185&#45;&gt;n7186 -->
<g id="edge10" class="edge"><title>n7185&#45;&gt;n7186</title>
</g>
<!-- n7187&#45;&gt;n7192 -->
<g id="edge9" class="edge"><title>n7187&#45;&gt;n7192</title>
<path fill="none" stroke="lightgray" d="M323.617,-219C373.895,-219 484.415,-219 542.572,-219"/>
<polygon fill="lightgray" stroke="lightgray" points="542.795,-222.5 552.795,-219 542.795,-215.5 542.795,-222.5"/>
<text text-anchor="middle" x="440.095" y="-222.8" font-family="Times New Roman,serif" font-size="14.00" fill="lightgray">wff ( &#45;. ps &#45;&gt; ch )</text>
</g>
<!-- n7188 -->
<g id="node10" class="node"><title>n7188</title>
<ellipse fill="orange" stroke="black" cx="296.547" cy="-147" rx="30.5947" ry="18"/>
<text text-anchor="middle" x="296.547" y="-143.3" font-family="Times New Roman,serif" font-size="14.00">ord.1</text>
</g>
<!-- n7187&#45;&gt;n7188 -->
<g id="edge19" class="edge"><title>n7187&#45;&gt;n7188</title>
</g>
<!-- n7186&#45;&gt;n7187 -->
<g id="edge8" class="edge"><title>n7186&#45;&gt;n7187</title>
<path fill="none" stroke="lightgray" d="M176.346,-161.328C199.873,-172.711 237.926,-191.121 264.696,-204.073"/>
<polygon fill="lightgray" stroke="lightgray" points="263.474,-207.37 274,-208.575 266.523,-201.069 263.474,-207.37"/>
<text text-anchor="middle" x="223.5" y="-199.8" font-family="Times New Roman,serif" font-size="14.00" fill="lightgray">wff ch</text>
</g>
<!-- n7188&#45;&gt;n7192 -->
<g id="edge11" class="edge"><title>n7188&#45;&gt;n7192</title>
<path fill="none" stroke="black" d="M326.144,-151.658C371.215,-159.383 461.246,-176.367 535.095,-200 539.479,-201.403 544.028,-203.067 548.474,-204.817"/>
<polygon fill="black" stroke="black" points="547.357,-208.143 557.936,-208.72 550.026,-201.672 547.357,-208.143"/>
<text text-anchor="middle" x="440.095" y="-203.8" font-family="Times New Roman,serif" font-size="14.00">|&#45; ( ph &#45;&gt; ( ps \/ ch ) )</text>
</g>
<!-- n7191 -->
<g id="node12" class="node"><title>n7191</title>
<ellipse fill="lawngreen" stroke="black" cx="296.547" cy="-75" rx="29.4969" ry="18"/>
<text text-anchor="middle" x="296.547" y="-71.3" font-family="Times New Roman,serif" font-size="14.00">df&#45;or</text>
</g>
<!-- n7188&#45;&gt;n7191 -->
<g id="edge20" class="edge"><title>n7188&#45;&gt;n7191</title>
</g>
<!-- n7189 -->
<g id="node11" class="node"><title>n7189</title>
<ellipse fill="none" stroke="lightgray" cx="154" cy="-90" rx="27" ry="18"/>
<text text-anchor="middle" x="154" y="-86.3" font-family="Times New Roman,serif" font-size="14.00" fill="lightgray">wps</text>
</g>
<!-- n7189&#45;&gt;n7191 -->
<g id="edge12" class="edge"><title>n7189&#45;&gt;n7191</title>
<path fill="none" stroke="lightgray" d="M180.779,-87.2488C202.274,-84.9546 233.206,-81.6534 257.543,-79.056"/>
<polygon fill="lightgray" stroke="lightgray" points="257.95,-82.5325 267.522,-77.991 257.207,-75.5721 257.95,-82.5325"/>
<text text-anchor="middle" x="223.5" y="-89.8" font-family="Times New Roman,serif" font-size="14.00" fill="lightgray">wff ps</text>
</g>
<!-- n7190 -->
<g id="node13" class="node"><title>n7190</title>
<ellipse fill="none" stroke="lightgray" cx="154" cy="-18" rx="27" ry="18"/>
<text text-anchor="middle" x="154" y="-14.3" font-family="Times New Roman,serif" font-size="14.00" fill="lightgray">wch</text>
</g>
<!-- n7189&#45;&gt;n7190 -->
<g id="edge15" class="edge"><title>n7189&#45;&gt;n7190</title>
</g>
<!-- n7191&#45;&gt;n7192 -->
<g id="edge14" class="edge"><title>n7191&#45;&gt;n7192</title>
<path fill="none" stroke="black" d="M325.933,-75.3853C373.939,-77.4397 472.076,-87.8537 535.095,-137 552.809,-150.815 564.506,-173.653 571.514,-191.724"/>
<polygon fill="black" stroke="black" points="568.243,-192.97 574.934,-201.185 574.826,-190.59 568.243,-192.97"/>
<text text-anchor="middle" x="440.095" y="-140.8" font-family="Times New Roman,serif" font-size="14.00">|&#45; ( ( ps \/ ch ) &lt;&#45;&gt; ( &#45;. ps &#45;&gt; ch ) )</text>
</g>
<!-- n7190&#45;&gt;n7191 -->
<g id="edge13" class="edge"><title>n7190&#45;&gt;n7191</title>
<path fill="none" stroke="lightgray" d="M177.581,-27.158C200.425,-36.4225 235.999,-50.8499 262.112,-61.4402"/>
<polygon fill="lightgray" stroke="lightgray" points="261.028,-64.7775 271.611,-65.2924 263.659,-58.2906 261.028,-64.7775"/>
<text text-anchor="middle" x="223.5" y="-58.8" font-family="Times New Roman,serif" font-size="14.00" fill="lightgray">wff ch</text>
</g>
</g>
</svg>
