<?xml version="1.0" encoding="UTF-8" standalone="no"?>
<!DOCTYPE svg PUBLIC "-//W3C//DTD SVG 1.1//EN"
 "http://www.w3.org/Graphics/SVG/1.1/DTD/svg11.dtd">
<!-- Generated by graphviz version 2.38.0 (20140413.2041)
 -->
<!-- Title: proof_ordir Pages: 1 -->
<svg width="1351pt" height="1628pt"
 viewBox="0.00 0.00 1350.78 1628.00" xmlns="http://www.w3.org/2000/svg" xmlns:xlink="http://www.w3.org/1999/xlink">
<g id="graph0" class="graph" transform="scale(1 1) rotate(0) translate(4 1624)">
<title>proof_ordir</title>
<polygon fill="white" stroke="none" points="-4,4 -4,-1624 1346.78,-1624 1346.78,4 -4,4"/>
<!-- n14877 -->
<g id="node1" class="node"><title>n14877</title>
<ellipse fill="none" stroke="lightgray" cx="161.447" cy="-1556" rx="27" ry="18"/>
<text text-anchor="middle" x="161.447" y="-1552.3" font-family="Times New Roman,serif" font-size="14.00" fill="lightgray">wch</text>
</g>
<!-- n14881 -->
<g id="node2" class="node"><title>n14881</title>
<ellipse fill="none" stroke="lightgray" cx="443.291" cy="-1429" rx="27" ry="18"/>
<text text-anchor="middle" x="443.291" y="-1425.3" font-family="Times New Roman,serif" font-size="14.00" fill="lightgray">wo</text>
</g>
<!-- n14877&#45;&gt;n14881 -->
<g id="edge1" class="edge"><title>n14877&#45;&gt;n14881</title>
<path fill="none" stroke="lightgray" d="M188.604,-1553.8C233.021,-1549.01 324.619,-1534.51 388.894,-1493 404.25,-1483.08 417.454,-1467.37 426.889,-1453.99"/>
<polygon fill="lightgray" stroke="lightgray" points="429.842,-1455.87 432.531,-1445.63 424.038,-1451.96 429.842,-1455.87"/>
<text text-anchor="middle" x="301.394" y="-1553.8" font-family="Times New Roman,serif" font-size="14.00" fill="lightgray">wff ch</text>
</g>
<!-- n14880 -->
<g id="node4" class="node"><title>n14880</title>
<ellipse fill="none" stroke="lightgray" cx="161.447" cy="-1484" rx="27" ry="18"/>
<text text-anchor="middle" x="161.447" y="-1480.3" font-family="Times New Roman,serif" font-size="14.00" fill="lightgray">wa</text>
</g>
<!-- n14877&#45;&gt;n14880 -->
<g id="edge7" class="edge"><title>n14877&#45;&gt;n14880</title>
</g>
<!-- n14929 -->
<g id="node6" class="node"><title>n14929</title>
<ellipse fill="cyan" stroke="black" cx="904.484" cy="-1057" rx="33.5952" ry="18"/>
<text text-anchor="middle" x="904.484" y="-1053.3" font-family="Times New Roman,serif" font-size="14.00">3bitr4i</text>
</g>
<!-- n14881&#45;&gt;n14929 -->
<g id="edge6" class="edge"><title>n14881&#45;&gt;n14929</title>
<path fill="none" stroke="lightgray" d="M470.177,-1431.65C542.429,-1437.48 747.836,-1443.1 852.687,-1333 886.355,-1297.65 898.44,-1148.5 902.101,-1085.39"/>
<polygon fill="lightgray" stroke="lightgray" points="905.6,-1085.52 902.655,-1075.34 898.61,-1085.14 905.6,-1085.52"/>
<text text-anchor="middle" x="675.187" y="-1438.8" font-family="Times New Roman,serif" font-size="14.00" fill="lightgray">wff ( ch \/ ( ph /\ ps ) )</text>
</g>
<!-- n14888 -->
<g id="node10" class="node"><title>n14888</title>
<ellipse fill="none" stroke="lightgray" cx="443.291" cy="-1332" rx="27" ry="18"/>
<text text-anchor="middle" x="443.291" y="-1328.3" font-family="Times New Roman,serif" font-size="14.00" fill="lightgray">wa</text>
</g>
<!-- n14881&#45;&gt;n14888 -->
<g id="edge79" class="edge"><title>n14881&#45;&gt;n14888</title>
</g>
<!-- n14878 -->
<g id="node3" class="node"><title>n14878</title>
<ellipse fill="none" stroke="lightgray" cx="27" cy="-1602" rx="27" ry="18"/>
<text text-anchor="middle" x="27" y="-1598.3" font-family="Times New Roman,serif" font-size="14.00" fill="lightgray">wph</text>
</g>
<!-- n14878&#45;&gt;n14880 -->
<g id="edge2" class="edge"><title>n14878&#45;&gt;n14880</title>
<path fill="none" stroke="lightgray" d="M44.6756,-1588.26C61.2163,-1574.52 87.1775,-1552.66 109,-1533 118.64,-1524.32 129.043,-1514.5 137.956,-1505.94"/>
<polygon fill="lightgray" stroke="lightgray" points="140.583,-1508.27 145.348,-1498.8 135.722,-1503.23 140.583,-1508.27"/>
<text text-anchor="middle" x="90.5" y="-1566.8" font-family="Times New Roman,serif" font-size="14.00" fill="lightgray">wff ph</text>
</g>
<!-- n14879 -->
<g id="node5" class="node"><title>n14879</title>
<ellipse fill="none" stroke="lightgray" cx="27" cy="-1530" rx="27" ry="18"/>
<text text-anchor="middle" x="27" y="-1526.3" font-family="Times New Roman,serif" font-size="14.00" fill="lightgray">wps</text>
</g>
<!-- n14878&#45;&gt;n14879 -->
<g id="edge5" class="edge"><title>n14878&#45;&gt;n14879</title>
</g>
<!-- n14880&#45;&gt;n14881 -->
<g id="edge4" class="edge"><title>n14880&#45;&gt;n14881</title>
<path fill="none" stroke="lightgray" d="M187.775,-1479.02C237.932,-1469.16 349.982,-1447.14 407.203,-1435.9"/>
<polygon fill="lightgray" stroke="lightgray" points="408.084,-1439.29 417.222,-1433.93 406.734,-1432.42 408.084,-1439.29"/>
<text text-anchor="middle" x="301.394" y="-1477.8" font-family="Times New Roman,serif" font-size="14.00" fill="lightgray">wff ( ph /\ ps )</text>
</g>
<!-- n14879&#45;&gt;n14880 -->
<g id="edge3" class="edge"><title>n14879&#45;&gt;n14880</title>
<path fill="none" stroke="lightgray" d="M51.374,-1521.88C72.4277,-1514.57 103.607,-1503.74 127.244,-1495.53"/>
<polygon fill="lightgray" stroke="lightgray" points="128.563,-1498.78 136.861,-1492.19 126.266,-1492.17 128.563,-1498.78"/>
<text text-anchor="middle" x="90.5" y="-1517.8" font-family="Times New Roman,serif" font-size="14.00" fill="lightgray">wff ps</text>
</g>
<!-- QED -->
<g id="node54" class="node"><title>QED</title>
</g>
<!-- n14929&#45;&gt;QED -->
<g id="edge78" class="edge"><title>n14929&#45;&gt;QED</title>
<path fill="none" stroke="black" d="M938.45,-1057C1013.08,-1057 1194.62,-1057 1274.14,-1057"/>
<polygon fill="black" stroke="black" points="1274.22,-1060.5 1284.22,-1057 1274.22,-1053.5 1274.22,-1060.5"/>
<text text-anchor="middle" x="1111.28" y="-1060.8" font-family="Times New Roman,serif" font-size="14.00">|&#45; ( ( ( ph /\ ps ) \/ ch ) &lt;&#45;&gt; ( ( ph \/ ch ) /\ ( ps \/ ch ) ) )</text>
</g>
<!-- n14882 -->
<g id="node7" class="node"><title>n14882</title>
<ellipse fill="none" stroke="lightgray" cx="27" cy="-1476" rx="27" ry="18"/>
<text text-anchor="middle" x="27" y="-1472.3" font-family="Times New Roman,serif" font-size="14.00" fill="lightgray">wch</text>
</g>
<!-- n14884 -->
<g id="node8" class="node"><title>n14884</title>
<ellipse fill="none" stroke="lightgray" cx="161.447" cy="-1404" rx="27" ry="18"/>
<text text-anchor="middle" x="161.447" y="-1400.3" font-family="Times New Roman,serif" font-size="14.00" fill="lightgray">wo</text>
</g>
<!-- n14882&#45;&gt;n14884 -->
<g id="edge8" class="edge"><title>n14882&#45;&gt;n14884</title>
<path fill="none" stroke="lightgray" d="M48.4046,-1464.91C70.41,-1452.95 105.654,-1433.79 130.735,-1420.15"/>
<polygon fill="lightgray" stroke="lightgray" points="132.687,-1423.07 139.801,-1415.22 129.344,-1416.92 132.687,-1423.07"/>
<text text-anchor="middle" x="90.5" y="-1454.8" font-family="Times New Roman,serif" font-size="14.00" fill="lightgray">wff ch</text>
</g>
<!-- n14883 -->
<g id="node9" class="node"><title>n14883</title>
<ellipse fill="none" stroke="lightgray" cx="27" cy="-1404" rx="27" ry="18"/>
<text text-anchor="middle" x="27" y="-1400.3" font-family="Times New Roman,serif" font-size="14.00" fill="lightgray">wph</text>
</g>
<!-- n14882&#45;&gt;n14883 -->
<g id="edge11" class="edge"><title>n14882&#45;&gt;n14883</title>
</g>
<!-- n14884&#45;&gt;n14888 -->
<g id="edge10" class="edge"><title>n14884&#45;&gt;n14888</title>
<path fill="none" stroke="lightgray" d="M187.481,-1399.1C229.484,-1390.66 316.649,-1372.24 388.894,-1351 395.744,-1348.99 403.001,-1346.59 409.883,-1344.18"/>
<polygon fill="lightgray" stroke="lightgray" points="411.373,-1347.37 419.609,-1340.7 409.014,-1340.78 411.373,-1347.37"/>
<text text-anchor="middle" x="301.394" y="-1396.8" font-family="Times New Roman,serif" font-size="14.00" fill="lightgray">wff ( ch \/ ph )</text>
</g>
<!-- n14887 -->
<g id="node12" class="node"><title>n14887</title>
<ellipse fill="none" stroke="lightgray" cx="161.447" cy="-1332" rx="27" ry="18"/>
<text text-anchor="middle" x="161.447" y="-1328.3" font-family="Times New Roman,serif" font-size="14.00" fill="lightgray">wo</text>
</g>
<!-- n14884&#45;&gt;n14887 -->
<g id="edge17" class="edge"><title>n14884&#45;&gt;n14887</title>
</g>
<!-- n14883&#45;&gt;n14884 -->
<g id="edge9" class="edge"><title>n14883&#45;&gt;n14884</title>
<path fill="none" stroke="lightgray" d="M54.1673,-1404C74.2124,-1404 102.101,-1404 124.28,-1404"/>
<polygon fill="lightgray" stroke="lightgray" points="124.334,-1407.5 134.334,-1404 124.334,-1400.5 124.334,-1407.5"/>
<text text-anchor="middle" x="90.5" y="-1407.8" font-family="Times New Roman,serif" font-size="14.00" fill="lightgray">wff ph</text>
</g>
<!-- n14888&#45;&gt;n14929 -->
<g id="edge16" class="edge"><title>n14888&#45;&gt;n14929</title>
<path fill="none" stroke="lightgray" d="M468.032,-1324.73C546.05,-1300.48 792.957,-1220.65 852.687,-1164 875.432,-1142.43 889.101,-1108.61 896.438,-1084.77"/>
<polygon fill="lightgray" stroke="lightgray" points="899.872,-1085.5 899.288,-1074.92 893.147,-1083.55 899.872,-1085.5"/>
<text text-anchor="middle" x="675.187" y="-1317.8" font-family="Times New Roman,serif" font-size="14.00" fill="lightgray">wff ( ( ch \/ ph ) /\ ( ch \/ ps ) )</text>
</g>
<!-- n14893 -->
<g id="node17" class="node"><title>n14893</title>
<ellipse fill="none" stroke="lightgray" cx="443.291" cy="-1152" rx="27" ry="18"/>
<text text-anchor="middle" x="443.291" y="-1148.3" font-family="Times New Roman,serif" font-size="14.00" fill="lightgray">wo</text>
</g>
<!-- n14888&#45;&gt;n14893 -->
<g id="edge80" class="edge"><title>n14888&#45;&gt;n14893</title>
</g>
<!-- n14885 -->
<g id="node11" class="node"><title>n14885</title>
<ellipse fill="none" stroke="lightgray" cx="27" cy="-1350" rx="27" ry="18"/>
<text text-anchor="middle" x="27" y="-1346.3" font-family="Times New Roman,serif" font-size="14.00" fill="lightgray">wch</text>
</g>
<!-- n14885&#45;&gt;n14887 -->
<g id="edge12" class="edge"><title>n14885&#45;&gt;n14887</title>
<path fill="none" stroke="lightgray" d="M53.5371,-1346.53C73.6541,-1343.8 101.95,-1339.95 124.378,-1336.9"/>
<polygon fill="lightgray" stroke="lightgray" points="125.099,-1340.34 134.536,-1335.52 124.156,-1333.4 125.099,-1340.34"/>
<text text-anchor="middle" x="90.5" y="-1347.8" font-family="Times New Roman,serif" font-size="14.00" fill="lightgray">wff ch</text>
</g>
<!-- n14886 -->
<g id="node13" class="node"><title>n14886</title>
<ellipse fill="none" stroke="lightgray" cx="27" cy="-1278" rx="27" ry="18"/>
<text text-anchor="middle" x="27" y="-1274.3" font-family="Times New Roman,serif" font-size="14.00" fill="lightgray">wps</text>
</g>
<!-- n14885&#45;&gt;n14886 -->
<g id="edge15" class="edge"><title>n14885&#45;&gt;n14886</title>
</g>
<!-- n14887&#45;&gt;n14888 -->
<g id="edge14" class="edge"><title>n14887&#45;&gt;n14888</title>
<path fill="none" stroke="lightgray" d="M188.523,-1332C238.723,-1332 348.88,-1332 406.131,-1332"/>
<polygon fill="lightgray" stroke="lightgray" points="406.179,-1335.5 416.179,-1332 406.179,-1328.5 406.179,-1335.5"/>
<text text-anchor="middle" x="301.394" y="-1335.8" font-family="Times New Roman,serif" font-size="14.00" fill="lightgray">wff ( ch \/ ps )</text>
</g>
<!-- n14886&#45;&gt;n14887 -->
<g id="edge13" class="edge"><title>n14886&#45;&gt;n14887</title>
<path fill="none" stroke="lightgray" d="M50.4678,-1287.16C71.8739,-1295.89 104.32,-1309.12 128.429,-1318.95"/>
<polygon fill="lightgray" stroke="lightgray" points="127.288,-1322.26 137.869,-1322.79 129.93,-1315.78 127.288,-1322.26"/>
<text text-anchor="middle" x="90.5" y="-1313.8" font-family="Times New Roman,serif" font-size="14.00" fill="lightgray">wff ps</text>
</g>
<!-- n14889 -->
<g id="node14" class="node"><title>n14889</title>
<ellipse fill="none" stroke="lightgray" cx="27" cy="-1224" rx="27" ry="18"/>
<text text-anchor="middle" x="27" y="-1220.3" font-family="Times New Roman,serif" font-size="14.00" fill="lightgray">wps</text>
</g>
<!-- n14891 -->
<g id="node15" class="node"><title>n14891</title>
<ellipse fill="none" stroke="lightgray" cx="161.447" cy="-1224" rx="27" ry="18"/>
<text text-anchor="middle" x="161.447" y="-1220.3" font-family="Times New Roman,serif" font-size="14.00" fill="lightgray">wa</text>
</g>
<!-- n14889&#45;&gt;n14891 -->
<g id="edge18" class="edge"><title>n14889&#45;&gt;n14891</title>
<path fill="none" stroke="lightgray" d="M54.1673,-1224C74.2124,-1224 102.101,-1224 124.28,-1224"/>
<polygon fill="lightgray" stroke="lightgray" points="124.334,-1227.5 134.334,-1224 124.334,-1220.5 124.334,-1227.5"/>
<text text-anchor="middle" x="90.5" y="-1227.8" font-family="Times New Roman,serif" font-size="14.00" fill="lightgray">wff ps</text>
</g>
<!-- n14890 -->
<g id="node16" class="node"><title>n14890</title>
<ellipse fill="none" stroke="lightgray" cx="27" cy="-1152" rx="27" ry="18"/>
<text text-anchor="middle" x="27" y="-1148.3" font-family="Times New Roman,serif" font-size="14.00" fill="lightgray">wph</text>
</g>
<!-- n14889&#45;&gt;n14890 -->
<g id="edge21" class="edge"><title>n14889&#45;&gt;n14890</title>
</g>
<!-- n14891&#45;&gt;n14893 -->
<g id="edge20" class="edge"><title>n14891&#45;&gt;n14893</title>
<path fill="none" stroke="lightgray" d="M187.481,-1219.1C229.484,-1210.66 316.649,-1192.24 388.894,-1171 395.744,-1168.99 403.001,-1166.59 409.883,-1164.18"/>
<polygon fill="lightgray" stroke="lightgray" points="411.373,-1167.37 419.609,-1160.7 409.014,-1160.78 411.373,-1167.37"/>
<text text-anchor="middle" x="301.394" y="-1216.8" font-family="Times New Roman,serif" font-size="14.00" fill="lightgray">wff ( ph /\ ps )</text>
</g>
<!-- n14892 -->
<g id="node18" class="node"><title>n14892</title>
<ellipse fill="none" stroke="lightgray" cx="161.447" cy="-1152" rx="27" ry="18"/>
<text text-anchor="middle" x="161.447" y="-1148.3" font-family="Times New Roman,serif" font-size="14.00" fill="lightgray">wch</text>
</g>
<!-- n14891&#45;&gt;n14892 -->
<g id="edge24" class="edge"><title>n14891&#45;&gt;n14892</title>
</g>
<!-- n14890&#45;&gt;n14891 -->
<g id="edge19" class="edge"><title>n14890&#45;&gt;n14891</title>
<path fill="none" stroke="lightgray" d="M48.4046,-1163.09C70.41,-1175.05 105.654,-1194.21 130.735,-1207.85"/>
<polygon fill="lightgray" stroke="lightgray" points="129.344,-1211.08 139.801,-1212.78 132.687,-1204.93 129.344,-1211.08"/>
<text text-anchor="middle" x="90.5" y="-1198.8" font-family="Times New Roman,serif" font-size="14.00" fill="lightgray">wff ph</text>
</g>
<!-- n14893&#45;&gt;n14929 -->
<g id="edge23" class="edge"><title>n14893&#45;&gt;n14929</title>
<path fill="none" stroke="lightgray" d="M469.972,-1148.8C534.904,-1140.38 710.584,-1115.47 852.687,-1076 857.608,-1074.63 862.723,-1072.99 867.73,-1071.26"/>
<polygon fill="lightgray" stroke="lightgray" points="868.936,-1074.54 877.145,-1067.84 866.551,-1067.96 868.936,-1074.54"/>
<text text-anchor="middle" x="675.187" y="-1148.8" font-family="Times New Roman,serif" font-size="14.00" fill="lightgray">wff ( ( ph /\ ps ) \/ ch )</text>
</g>
<!-- n14900 -->
<g id="node22" class="node"><title>n14900</title>
<ellipse fill="none" stroke="lightgray" cx="443.291" cy="-1057" rx="27" ry="18"/>
<text text-anchor="middle" x="443.291" y="-1053.3" font-family="Times New Roman,serif" font-size="14.00" fill="lightgray">wa</text>
</g>
<!-- n14893&#45;&gt;n14900 -->
<g id="edge81" class="edge"><title>n14893&#45;&gt;n14900</title>
</g>
<!-- n14892&#45;&gt;n14893 -->
<g id="edge22" class="edge"><title>n14892&#45;&gt;n14893</title>
<path fill="none" stroke="lightgray" d="M188.523,-1152C238.723,-1152 348.88,-1152 406.131,-1152"/>
<polygon fill="lightgray" stroke="lightgray" points="406.179,-1155.5 416.179,-1152 406.179,-1148.5 406.179,-1155.5"/>
<text text-anchor="middle" x="301.394" y="-1155.8" font-family="Times New Roman,serif" font-size="14.00" fill="lightgray">wff ch</text>
</g>
<!-- n14894 -->
<g id="node19" class="node"><title>n14894</title>
<ellipse fill="none" stroke="lightgray" cx="27" cy="-1098" rx="27" ry="18"/>
<text text-anchor="middle" x="27" y="-1094.3" font-family="Times New Roman,serif" font-size="14.00" fill="lightgray">wph</text>
</g>
<!-- n14896 -->
<g id="node20" class="node"><title>n14896</title>
<ellipse fill="none" stroke="lightgray" cx="161.447" cy="-1098" rx="27" ry="18"/>
<text text-anchor="middle" x="161.447" y="-1094.3" font-family="Times New Roman,serif" font-size="14.00" fill="lightgray">wo</text>
</g>
<!-- n14894&#45;&gt;n14896 -->
<g id="edge25" class="edge"><title>n14894&#45;&gt;n14896</title>
<path fill="none" stroke="lightgray" d="M54.1673,-1098C74.2124,-1098 102.101,-1098 124.28,-1098"/>
<polygon fill="lightgray" stroke="lightgray" points="124.334,-1101.5 134.334,-1098 124.334,-1094.5 124.334,-1101.5"/>
<text text-anchor="middle" x="90.5" y="-1101.8" font-family="Times New Roman,serif" font-size="14.00" fill="lightgray">wff ph</text>
</g>
<!-- n14895 -->
<g id="node21" class="node"><title>n14895</title>
<ellipse fill="none" stroke="lightgray" cx="27" cy="-1026" rx="27" ry="18"/>
<text text-anchor="middle" x="27" y="-1022.3" font-family="Times New Roman,serif" font-size="14.00" fill="lightgray">wch</text>
</g>
<!-- n14894&#45;&gt;n14895 -->
<g id="edge28" class="edge"><title>n14894&#45;&gt;n14895</title>
</g>
<!-- n14896&#45;&gt;n14900 -->
<g id="edge27" class="edge"><title>n14896&#45;&gt;n14900</title>
<path fill="none" stroke="lightgray" d="M188.272,-1094.22C238.46,-1086.86 349.244,-1070.63 406.489,-1062.25"/>
<polygon fill="lightgray" stroke="lightgray" points="407.141,-1065.69 416.528,-1060.77 406.126,-1058.76 407.141,-1065.69"/>
<text text-anchor="middle" x="301.394" y="-1094.8" font-family="Times New Roman,serif" font-size="14.00" fill="lightgray">wff ( ph \/ ch )</text>
</g>
<!-- n14899 -->
<g id="node24" class="node"><title>n14899</title>
<ellipse fill="none" stroke="lightgray" cx="161.447" cy="-1026" rx="27" ry="18"/>
<text text-anchor="middle" x="161.447" y="-1022.3" font-family="Times New Roman,serif" font-size="14.00" fill="lightgray">wo</text>
</g>
<!-- n14896&#45;&gt;n14899 -->
<g id="edge34" class="edge"><title>n14896&#45;&gt;n14899</title>
</g>
<!-- n14895&#45;&gt;n14896 -->
<g id="edge26" class="edge"><title>n14895&#45;&gt;n14896</title>
<path fill="none" stroke="lightgray" d="M48.4046,-1037.09C70.41,-1049.05 105.654,-1068.21 130.735,-1081.85"/>
<polygon fill="lightgray" stroke="lightgray" points="129.344,-1085.08 139.801,-1086.78 132.687,-1078.93 129.344,-1085.08"/>
<text text-anchor="middle" x="90.5" y="-1072.8" font-family="Times New Roman,serif" font-size="14.00" fill="lightgray">wff ch</text>
</g>
<!-- n14900&#45;&gt;n14929 -->
<g id="edge33" class="edge"><title>n14900&#45;&gt;n14929</title>
<path fill="none" stroke="lightgray" d="M470.295,-1057C545.926,-1057 766.385,-1057 860.302,-1057"/>
<polygon fill="lightgray" stroke="lightgray" points="860.581,-1060.5 870.581,-1057 860.581,-1053.5 860.581,-1060.5"/>
<text text-anchor="middle" x="675.187" y="-1060.8" font-family="Times New Roman,serif" font-size="14.00" fill="lightgray">wff ( ( ph \/ ch ) /\ ( ps \/ ch ) )</text>
</g>
<!-- n14904 -->
<g id="node27" class="node"><title>n14904</title>
<ellipse fill="cyan" stroke="black" cx="443.291" cy="-940" rx="27" ry="18"/>
<text text-anchor="middle" x="443.291" y="-936.3" font-family="Times New Roman,serif" font-size="14.00">ordi</text>
</g>
<!-- n14900&#45;&gt;n14904 -->
<g id="edge82" class="edge"><title>n14900&#45;&gt;n14904</title>
</g>
<!-- n14897 -->
<g id="node23" class="node"><title>n14897</title>
<ellipse fill="none" stroke="lightgray" cx="27" cy="-972" rx="27" ry="18"/>
<text text-anchor="middle" x="27" y="-968.3" font-family="Times New Roman,serif" font-size="14.00" fill="lightgray">wps</text>
</g>
<!-- n14897&#45;&gt;n14899 -->
<g id="edge29" class="edge"><title>n14897&#45;&gt;n14899</title>
<path fill="none" stroke="lightgray" d="M50.4678,-981.16C71.8739,-989.888 104.32,-1003.12 128.429,-1012.95"/>
<polygon fill="lightgray" stroke="lightgray" points="127.288,-1016.26 137.869,-1016.79 129.93,-1009.78 127.288,-1016.26"/>
<text text-anchor="middle" x="90.5" y="-1007.8" font-family="Times New Roman,serif" font-size="14.00" fill="lightgray">wff ps</text>
</g>
<!-- n14898 -->
<g id="node25" class="node"><title>n14898</title>
<ellipse fill="none" stroke="lightgray" cx="27" cy="-900" rx="27" ry="18"/>
<text text-anchor="middle" x="27" y="-896.3" font-family="Times New Roman,serif" font-size="14.00" fill="lightgray">wch</text>
</g>
<!-- n14897&#45;&gt;n14898 -->
<g id="edge32" class="edge"><title>n14897&#45;&gt;n14898</title>
</g>
<!-- n14899&#45;&gt;n14900 -->
<g id="edge31" class="edge"><title>n14899&#45;&gt;n14900</title>
<path fill="none" stroke="lightgray" d="M188.76,-1026.73C231.143,-1028.21 317.05,-1032.47 388.894,-1044 395.2,-1045.01 401.859,-1046.38 408.255,-1047.86"/>
<polygon fill="lightgray" stroke="lightgray" points="407.458,-1051.27 418.001,-1050.22 409.108,-1044.46 407.458,-1051.27"/>
<text text-anchor="middle" x="301.394" y="-1047.8" font-family="Times New Roman,serif" font-size="14.00" fill="lightgray">wff ( ps \/ ch )</text>
</g>
<!-- n14898&#45;&gt;n14899 -->
<g id="edge30" class="edge"><title>n14898&#45;&gt;n14899</title>
<path fill="none" stroke="lightgray" d="M45.1895,-913.503C62.3559,-927.427 88.9954,-950.257 109,-973 118.282,-983.553 117.434,-988.703 127,-999 129.286,-1001.46 131.801,-1003.89 134.395,-1006.22"/>
<polygon fill="lightgray" stroke="lightgray" points="132.364,-1009.09 142.261,-1012.87 136.883,-1003.74 132.364,-1009.09"/>
<text text-anchor="middle" x="90.5" y="-977.8" font-family="Times New Roman,serif" font-size="14.00" fill="lightgray">wff ch</text>
</g>
<!-- n14901 -->
<g id="node26" class="node"><title>n14901</title>
<ellipse fill="none" stroke="lightgray" cx="161.447" cy="-972" rx="27" ry="18"/>
<text text-anchor="middle" x="161.447" y="-968.3" font-family="Times New Roman,serif" font-size="14.00" fill="lightgray">wch</text>
</g>
<!-- n14901&#45;&gt;n14904 -->
<g id="edge35" class="edge"><title>n14901&#45;&gt;n14904</title>
<path fill="none" stroke="lightgray" d="M188.272,-969.047C238.46,-963.308 349.244,-950.64 406.489,-944.094"/>
<polygon fill="lightgray" stroke="lightgray" points="406.99,-947.56 416.528,-942.946 406.195,-940.605 406.99,-947.56"/>
<text text-anchor="middle" x="301.394" y="-969.8" font-family="Times New Roman,serif" font-size="14.00" fill="lightgray">wff ch</text>
</g>
<!-- n14902 -->
<g id="node28" class="node"><title>n14902</title>
<ellipse fill="none" stroke="lightgray" cx="161.447" cy="-900" rx="27" ry="18"/>
<text text-anchor="middle" x="161.447" y="-896.3" font-family="Times New Roman,serif" font-size="14.00" fill="lightgray">wph</text>
</g>
<!-- n14901&#45;&gt;n14902 -->
<g id="edge39" class="edge"><title>n14901&#45;&gt;n14902</title>
</g>
<!-- n14904&#45;&gt;n14929 -->
<g id="edge38" class="edge"><title>n14904&#45;&gt;n14929</title>
<path fill="none" stroke="black" d="M469.439,-944.915C533.849,-957.744 709.744,-994.296 852.687,-1038 857.571,-1039.49 862.665,-1041.21 867.661,-1042.98"/>
<polygon fill="black" stroke="black" points="866.474,-1046.27 877.068,-1046.42 868.879,-1039.7 866.474,-1046.27"/>
<text text-anchor="middle" x="675.187" y="-1041.8" font-family="Times New Roman,serif" font-size="14.00">|&#45; ( ( ch \/ ( ph /\ ps ) ) &lt;&#45;&gt; ( ( ch \/ ph ) /\ ( ch \/ ps ) ) )</text>
</g>
<!-- n14909 -->
<g id="node33" class="node"><title>n14909</title>
<ellipse fill="cyan" stroke="black" cx="443.291" cy="-774" rx="34.394" ry="18"/>
<text text-anchor="middle" x="443.291" y="-770.3" font-family="Times New Roman,serif" font-size="14.00">orcom</text>
</g>
<!-- n14904&#45;&gt;n14909 -->
<g id="edge83" class="edge"><title>n14904&#45;&gt;n14909</title>
</g>
<!-- n14902&#45;&gt;n14904 -->
<g id="edge36" class="edge"><title>n14902&#45;&gt;n14904</title>
<path fill="none" stroke="lightgray" d="M188.379,-902.372C230.586,-906.418 316.692,-915.454 388.894,-928 394.951,-929.052 401.357,-930.339 407.549,-931.675"/>
<polygon fill="lightgray" stroke="lightgray" points="407.146,-935.171 417.668,-933.937 408.672,-928.34 407.146,-935.171"/>
<text text-anchor="middle" x="301.394" y="-931.8" font-family="Times New Roman,serif" font-size="14.00" fill="lightgray">wff ph</text>
</g>
<!-- n14903 -->
<g id="node29" class="node"><title>n14903</title>
<ellipse fill="none" stroke="lightgray" cx="161.447" cy="-828" rx="27" ry="18"/>
<text text-anchor="middle" x="161.447" y="-824.3" font-family="Times New Roman,serif" font-size="14.00" fill="lightgray">wps</text>
</g>
<!-- n14902&#45;&gt;n14903 -->
<g id="edge40" class="edge"><title>n14902&#45;&gt;n14903</title>
</g>
<!-- n14903&#45;&gt;n14904 -->
<g id="edge37" class="edge"><title>n14903&#45;&gt;n14904</title>
<path fill="none" stroke="lightgray" d="M188.548,-830.346C232.49,-835.231 322.9,-849.365 388.894,-887 401.914,-894.425 413.99,-905.842 423.353,-916.181"/>
<polygon fill="lightgray" stroke="lightgray" points="420.758,-918.531 429.954,-923.793 426.046,-913.945 420.758,-918.531"/>
<text text-anchor="middle" x="301.394" y="-890.8" font-family="Times New Roman,serif" font-size="14.00" fill="lightgray">wff ps</text>
</g>
<!-- n14905 -->
<g id="node30" class="node"><title>n14905</title>
<ellipse fill="none" stroke="lightgray" cx="27" cy="-846" rx="27" ry="18"/>
<text text-anchor="middle" x="27" y="-842.3" font-family="Times New Roman,serif" font-size="14.00" fill="lightgray">wps</text>
</g>
<!-- n14907 -->
<g id="node31" class="node"><title>n14907</title>
<ellipse fill="none" stroke="lightgray" cx="161.447" cy="-774" rx="27" ry="18"/>
<text text-anchor="middle" x="161.447" y="-770.3" font-family="Times New Roman,serif" font-size="14.00" fill="lightgray">wa</text>
</g>
<!-- n14905&#45;&gt;n14907 -->
<g id="edge41" class="edge"><title>n14905&#45;&gt;n14907</title>
<path fill="none" stroke="lightgray" d="M48.4046,-834.908C70.41,-822.945 105.654,-803.786 130.735,-790.152"/>
<polygon fill="lightgray" stroke="lightgray" points="132.687,-793.075 139.801,-785.223 129.344,-786.925 132.687,-793.075"/>
<text text-anchor="middle" x="90.5" y="-824.8" font-family="Times New Roman,serif" font-size="14.00" fill="lightgray">wff ps</text>
</g>
<!-- n14906 -->
<g id="node32" class="node"><title>n14906</title>
<ellipse fill="none" stroke="lightgray" cx="27" cy="-774" rx="27" ry="18"/>
<text text-anchor="middle" x="27" y="-770.3" font-family="Times New Roman,serif" font-size="14.00" fill="lightgray">wph</text>
</g>
<!-- n14905&#45;&gt;n14906 -->
<g id="edge44" class="edge"><title>n14905&#45;&gt;n14906</title>
</g>
<!-- n14907&#45;&gt;n14909 -->
<g id="edge43" class="edge"><title>n14907&#45;&gt;n14909</title>
<path fill="none" stroke="lightgray" d="M188.523,-774C236.523,-774 339.34,-774 398.309,-774"/>
<polygon fill="lightgray" stroke="lightgray" points="398.435,-777.5 408.435,-774 398.435,-770.5 398.435,-777.5"/>
<text text-anchor="middle" x="301.394" y="-777.8" font-family="Times New Roman,serif" font-size="14.00" fill="lightgray">wff ( ph /\ ps )</text>
</g>
<!-- n14908 -->
<g id="node34" class="node"><title>n14908</title>
<ellipse fill="none" stroke="lightgray" cx="161.447" cy="-702" rx="27" ry="18"/>
<text text-anchor="middle" x="161.447" y="-698.3" font-family="Times New Roman,serif" font-size="14.00" fill="lightgray">wch</text>
</g>
<!-- n14907&#45;&gt;n14908 -->
<g id="edge47" class="edge"><title>n14907&#45;&gt;n14908</title>
</g>
<!-- n14906&#45;&gt;n14907 -->
<g id="edge42" class="edge"><title>n14906&#45;&gt;n14907</title>
<path fill="none" stroke="lightgray" d="M54.1673,-774C74.2124,-774 102.101,-774 124.28,-774"/>
<polygon fill="lightgray" stroke="lightgray" points="124.334,-777.5 134.334,-774 124.334,-770.5 124.334,-777.5"/>
<text text-anchor="middle" x="90.5" y="-777.8" font-family="Times New Roman,serif" font-size="14.00" fill="lightgray">wff ph</text>
</g>
<!-- n14909&#45;&gt;n14929 -->
<g id="edge46" class="edge"><title>n14909&#45;&gt;n14929</title>
<path fill="none" stroke="black" d="M477.087,-777.83C553.161,-788.382 743.459,-824.597 852.687,-932 879.495,-958.359 892.655,-1000.8 898.743,-1028.8"/>
<polygon fill="black" stroke="black" points="895.343,-1029.64 900.744,-1038.75 902.205,-1028.26 895.343,-1029.64"/>
<text text-anchor="middle" x="675.187" y="-935.8" font-family="Times New Roman,serif" font-size="14.00">|&#45; ( ( ( ph /\ ps ) \/ ch ) &lt;&#45;&gt; ( ch \/ ( ph /\ ps ) ) )</text>
</g>
<!-- n14928 -->
<g id="node38" class="node"><title>n14928</title>
<ellipse fill="cyan" stroke="black" cx="443.291" cy="-489" rx="36.2938" ry="18"/>
<text text-anchor="middle" x="443.291" y="-485.3" font-family="Times New Roman,serif" font-size="14.00">anbi12i</text>
</g>
<!-- n14909&#45;&gt;n14928 -->
<g id="edge84" class="edge"><title>n14909&#45;&gt;n14928</title>
</g>
<!-- n14908&#45;&gt;n14909 -->
<g id="edge45" class="edge"><title>n14908&#45;&gt;n14909</title>
<path fill="none" stroke="lightgray" d="M187.481,-706.903C229.484,-715.341 316.649,-733.765 388.894,-755 394.263,-756.578 399.882,-758.393 405.375,-760.261"/>
<polygon fill="lightgray" stroke="lightgray" points="404.45,-763.646 415.045,-763.643 406.76,-757.038 404.45,-763.646"/>
<text text-anchor="middle" x="301.394" y="-758.8" font-family="Times New Roman,serif" font-size="14.00" fill="lightgray">wff ch</text>
</g>
<!-- n14910 -->
<g id="node35" class="node"><title>n14910</title>
<ellipse fill="none" stroke="lightgray" cx="27" cy="-720" rx="27" ry="18"/>
<text text-anchor="middle" x="27" y="-716.3" font-family="Times New Roman,serif" font-size="14.00" fill="lightgray">wch</text>
</g>
<!-- n14912 -->
<g id="node36" class="node"><title>n14912</title>
<ellipse fill="none" stroke="lightgray" cx="161.447" cy="-617" rx="27" ry="18"/>
<text text-anchor="middle" x="161.447" y="-613.3" font-family="Times New Roman,serif" font-size="14.00" fill="lightgray">wo</text>
</g>
<!-- n14910&#45;&gt;n14912 -->
<g id="edge48" class="edge"><title>n14910&#45;&gt;n14912</title>
<path fill="none" stroke="lightgray" d="M45.3151,-706.535C68.2196,-688.722 108.76,-657.195 135.111,-636.703"/>
<polygon fill="lightgray" stroke="lightgray" points="137.382,-639.371 143.128,-630.469 133.085,-633.845 137.382,-639.371"/>
<text text-anchor="middle" x="90.5" y="-687.8" font-family="Times New Roman,serif" font-size="14.00" fill="lightgray">wff ch</text>
</g>
<!-- n14911 -->
<g id="node37" class="node"><title>n14911</title>
<ellipse fill="none" stroke="lightgray" cx="27" cy="-648" rx="27" ry="18"/>
<text text-anchor="middle" x="27" y="-644.3" font-family="Times New Roman,serif" font-size="14.00" fill="lightgray">wph</text>
</g>
<!-- n14910&#45;&gt;n14911 -->
<g id="edge51" class="edge"><title>n14910&#45;&gt;n14911</title>
</g>
<!-- n14912&#45;&gt;n14928 -->
<g id="edge50" class="edge"><title>n14912&#45;&gt;n14928</title>
<path fill="none" stroke="lightgray" d="M187.805,-612.359C231.417,-603.564 322.348,-581.615 388.894,-541 401.095,-533.553 412.709,-522.85 421.971,-513.088"/>
<polygon fill="lightgray" stroke="lightgray" points="424.703,-515.286 428.861,-505.541 419.534,-510.567 424.703,-515.286"/>
<text text-anchor="middle" x="301.394" y="-610.8" font-family="Times New Roman,serif" font-size="14.00" fill="lightgray">wff ( ph \/ ch )</text>
</g>
<!-- n14915 -->
<g id="node40" class="node"><title>n14915</title>
<ellipse fill="none" stroke="lightgray" cx="161.447" cy="-529" rx="27" ry="18"/>
<text text-anchor="middle" x="161.447" y="-525.3" font-family="Times New Roman,serif" font-size="14.00" fill="lightgray">wo</text>
</g>
<!-- n14912&#45;&gt;n14915 -->
<g id="edge73" class="edge"><title>n14912&#45;&gt;n14915</title>
</g>
<!-- n14911&#45;&gt;n14912 -->
<g id="edge49" class="edge"><title>n14911&#45;&gt;n14912</title>
<path fill="none" stroke="lightgray" d="M52.6019,-642.242C73.1021,-637.444 102.551,-630.551 125.498,-625.18"/>
<polygon fill="lightgray" stroke="lightgray" points="126.588,-628.52 135.527,-622.833 124.993,-621.704 126.588,-628.52"/>
<text text-anchor="middle" x="90.5" y="-641.8" font-family="Times New Roman,serif" font-size="14.00" fill="lightgray">wff ph</text>
</g>
<!-- n14928&#45;&gt;n14929 -->
<g id="edge72" class="edge"><title>n14928&#45;&gt;n14929</title>
<path fill="none" stroke="black" d="M473.43,-499.181C549.849,-527.515 756.732,-615.085 852.687,-763 881.068,-806.749 896.229,-963.555 901.408,-1028.51"/>
<polygon fill="black" stroke="black" points="897.945,-1029.12 902.208,-1038.82 904.924,-1028.58 897.945,-1029.12"/>
<text text-anchor="middle" x="675.187" y="-766.8" font-family="Times New Roman,serif" font-size="14.00">|&#45; ( ( ( ph \/ ch ) /\ ( ps \/ ch ) ) &lt;&#45;&gt; ( ( ch \/ ph ) /\ ( ch \/ ps ) ) )</text>
</g>
<!-- n14913 -->
<g id="node39" class="node"><title>n14913</title>
<ellipse fill="none" stroke="lightgray" cx="27" cy="-594" rx="27" ry="18"/>
<text text-anchor="middle" x="27" y="-590.3" font-family="Times New Roman,serif" font-size="14.00" fill="lightgray">wph</text>
</g>
<!-- n14913&#45;&gt;n14915 -->
<g id="edge52" class="edge"><title>n14913&#45;&gt;n14915</title>
<path fill="none" stroke="lightgray" d="M49.2799,-583.557C71.0995,-572.848 105.244,-556.091 129.937,-543.973"/>
<polygon fill="lightgray" stroke="lightgray" points="131.785,-546.965 139.22,-539.417 128.701,-540.681 131.785,-546.965"/>
<text text-anchor="middle" x="90.5" y="-575.8" font-family="Times New Roman,serif" font-size="14.00" fill="lightgray">wff ph</text>
</g>
<!-- n14914 -->
<g id="node41" class="node"><title>n14914</title>
<ellipse fill="none" stroke="lightgray" cx="27" cy="-522" rx="27" ry="18"/>
<text text-anchor="middle" x="27" y="-518.3" font-family="Times New Roman,serif" font-size="14.00" fill="lightgray">wch</text>
</g>
<!-- n14913&#45;&gt;n14914 -->
<g id="edge55" class="edge"><title>n14913&#45;&gt;n14914</title>
</g>
<!-- n14915&#45;&gt;n14928 -->
<g id="edge54" class="edge"><title>n14915&#45;&gt;n14928</title>
<path fill="none" stroke="lightgray" d="M188.272,-525.309C236.011,-518.485 338.578,-503.824 397.74,-495.368"/>
<polygon fill="lightgray" stroke="lightgray" points="398.502,-498.795 407.906,-493.915 397.512,-491.865 398.502,-498.795"/>
<text text-anchor="middle" x="301.394" y="-525.8" font-family="Times New Roman,serif" font-size="14.00" fill="lightgray">wff ( ch \/ ph )</text>
</g>
<!-- n14918 -->
<g id="node43" class="node"><title>n14918</title>
<ellipse fill="none" stroke="lightgray" cx="161.447" cy="-457" rx="27" ry="18"/>
<text text-anchor="middle" x="161.447" y="-453.3" font-family="Times New Roman,serif" font-size="14.00" fill="lightgray">wo</text>
</g>
<!-- n14915&#45;&gt;n14918 -->
<g id="edge74" class="edge"><title>n14915&#45;&gt;n14918</title>
</g>
<!-- n14914&#45;&gt;n14915 -->
<g id="edge53" class="edge"><title>n14914&#45;&gt;n14915</title>
<path fill="none" stroke="lightgray" d="M54.1673,-523.383C74.2124,-524.442 102.101,-525.916 124.28,-527.089"/>
<polygon fill="lightgray" stroke="lightgray" points="124.163,-530.587 134.334,-527.62 124.533,-523.597 124.163,-530.587"/>
<text text-anchor="middle" x="90.5" y="-530.8" font-family="Times New Roman,serif" font-size="14.00" fill="lightgray">wff ch</text>
</g>
<!-- n14916 -->
<g id="node42" class="node"><title>n14916</title>
<ellipse fill="none" stroke="lightgray" cx="27" cy="-468" rx="27" ry="18"/>
<text text-anchor="middle" x="27" y="-464.3" font-family="Times New Roman,serif" font-size="14.00" fill="lightgray">wch</text>
</g>
<!-- n14916&#45;&gt;n14918 -->
<g id="edge56" class="edge"><title>n14916&#45;&gt;n14918</title>
<path fill="none" stroke="lightgray" d="M53.8515,-465.853C73.8683,-464.191 101.843,-461.867 124.111,-460.018"/>
<polygon fill="lightgray" stroke="lightgray" points="124.532,-463.495 134.208,-459.179 123.953,-456.519 124.532,-463.495"/>
<text text-anchor="middle" x="90.5" y="-468.8" font-family="Times New Roman,serif" font-size="14.00" fill="lightgray">wff ch</text>
</g>
<!-- n14917 -->
<g id="node44" class="node"><title>n14917</title>
<ellipse fill="none" stroke="lightgray" cx="27" cy="-396" rx="27" ry="18"/>
<text text-anchor="middle" x="27" y="-392.3" font-family="Times New Roman,serif" font-size="14.00" fill="lightgray">wps</text>
</g>
<!-- n14916&#45;&gt;n14917 -->
<g id="edge59" class="edge"><title>n14916&#45;&gt;n14917</title>
</g>
<!-- n14918&#45;&gt;n14928 -->
<g id="edge58" class="edge"><title>n14918&#45;&gt;n14928</title>
<path fill="none" stroke="lightgray" d="M188.44,-457.573C230.735,-458.838 316.96,-462.81 388.894,-475 393.093,-475.712 397.443,-476.598 401.765,-477.577"/>
<polygon fill="lightgray" stroke="lightgray" points="401.172,-481.035 411.716,-479.991 402.823,-474.232 401.172,-481.035"/>
<text text-anchor="middle" x="301.394" y="-478.8" font-family="Times New Roman,serif" font-size="14.00" fill="lightgray">wff ( ps \/ ch )</text>
</g>
<!-- n14921 -->
<g id="node46" class="node"><title>n14921</title>
<ellipse fill="none" stroke="lightgray" cx="161.447" cy="-342" rx="27" ry="18"/>
<text text-anchor="middle" x="161.447" y="-338.3" font-family="Times New Roman,serif" font-size="14.00" fill="lightgray">wo</text>
</g>
<!-- n14918&#45;&gt;n14921 -->
<g id="edge75" class="edge"><title>n14918&#45;&gt;n14921</title>
</g>
<!-- n14917&#45;&gt;n14918 -->
<g id="edge57" class="edge"><title>n14917&#45;&gt;n14918</title>
<path fill="none" stroke="lightgray" d="M49.5747,-405.936C71.3177,-415.95 105.081,-431.5 129.638,-442.811"/>
<polygon fill="lightgray" stroke="lightgray" points="128.334,-446.064 138.882,-447.068 131.263,-439.705 128.334,-446.064"/>
<text text-anchor="middle" x="90.5" y="-435.8" font-family="Times New Roman,serif" font-size="14.00" fill="lightgray">wff ps</text>
</g>
<!-- n14919 -->
<g id="node45" class="node"><title>n14919</title>
<ellipse fill="none" stroke="lightgray" cx="27" cy="-342" rx="27" ry="18"/>
<text text-anchor="middle" x="27" y="-338.3" font-family="Times New Roman,serif" font-size="14.00" fill="lightgray">wps</text>
</g>
<!-- n14919&#45;&gt;n14921 -->
<g id="edge60" class="edge"><title>n14919&#45;&gt;n14921</title>
<path fill="none" stroke="lightgray" d="M54.1673,-342C74.2124,-342 102.101,-342 124.28,-342"/>
<polygon fill="lightgray" stroke="lightgray" points="124.334,-345.5 134.334,-342 124.334,-338.5 124.334,-345.5"/>
<text text-anchor="middle" x="90.5" y="-345.8" font-family="Times New Roman,serif" font-size="14.00" fill="lightgray">wff ps</text>
</g>
<!-- n14920 -->
<g id="node47" class="node"><title>n14920</title>
<ellipse fill="none" stroke="lightgray" cx="27" cy="-270" rx="27" ry="18"/>
<text text-anchor="middle" x="27" y="-266.3" font-family="Times New Roman,serif" font-size="14.00" fill="lightgray">wch</text>
</g>
<!-- n14919&#45;&gt;n14920 -->
<g id="edge63" class="edge"><title>n14919&#45;&gt;n14920</title>
</g>
<!-- n14921&#45;&gt;n14928 -->
<g id="edge62" class="edge"><title>n14921&#45;&gt;n14928</title>
<path fill="none" stroke="lightgray" d="M186.224,-349.35C228.949,-363.178 320.612,-395.705 388.894,-440 399.944,-447.168 410.886,-456.668 419.961,-465.394"/>
<polygon fill="lightgray" stroke="lightgray" points="417.538,-467.921 427.105,-472.473 422.465,-462.948 417.538,-467.921"/>
<text text-anchor="middle" x="301.394" y="-443.8" font-family="Times New Roman,serif" font-size="14.00" fill="lightgray">wff ( ch \/ ps )</text>
</g>
<!-- n14924 -->
<g id="node49" class="node"><title>n14924</title>
<ellipse fill="cyan" stroke="black" cx="161.447" cy="-216" rx="34.394" ry="18"/>
<text text-anchor="middle" x="161.447" y="-212.3" font-family="Times New Roman,serif" font-size="14.00">orcom</text>
</g>
<!-- n14921&#45;&gt;n14924 -->
<g id="edge76" class="edge"><title>n14921&#45;&gt;n14924</title>
</g>
<!-- n14920&#45;&gt;n14921 -->
<g id="edge61" class="edge"><title>n14920&#45;&gt;n14921</title>
<path fill="none" stroke="lightgray" d="M48.4046,-281.092C70.41,-293.055 105.654,-312.214 130.735,-325.848"/>
<polygon fill="lightgray" stroke="lightgray" points="129.344,-329.075 139.801,-330.777 132.687,-322.925 129.344,-329.075"/>
<text text-anchor="middle" x="90.5" y="-316.8" font-family="Times New Roman,serif" font-size="14.00" fill="lightgray">wff ch</text>
</g>
<!-- n14922 -->
<g id="node48" class="node"><title>n14922</title>
<ellipse fill="none" stroke="lightgray" cx="27" cy="-216" rx="27" ry="18"/>
<text text-anchor="middle" x="27" y="-212.3" font-family="Times New Roman,serif" font-size="14.00" fill="lightgray">wph</text>
</g>
<!-- n14922&#45;&gt;n14924 -->
<g id="edge64" class="edge"><title>n14922&#45;&gt;n14924</title>
<path fill="none" stroke="lightgray" d="M54.1673,-216C71.9673,-216 95.9518,-216 116.631,-216"/>
<polygon fill="lightgray" stroke="lightgray" points="116.784,-219.5 126.784,-216 116.784,-212.5 116.784,-219.5"/>
<text text-anchor="middle" x="90.5" y="-219.8" font-family="Times New Roman,serif" font-size="14.00" fill="lightgray">wff ph</text>
</g>
<!-- n14923 -->
<g id="node50" class="node"><title>n14923</title>
<ellipse fill="none" stroke="lightgray" cx="27" cy="-144" rx="27" ry="18"/>
<text text-anchor="middle" x="27" y="-140.3" font-family="Times New Roman,serif" font-size="14.00" fill="lightgray">wch</text>
</g>
<!-- n14922&#45;&gt;n14923 -->
<g id="edge67" class="edge"><title>n14922&#45;&gt;n14923</title>
</g>
<!-- n14924&#45;&gt;n14928 -->
<g id="edge66" class="edge"><title>n14924&#45;&gt;n14928</title>
<path fill="none" stroke="black" d="M191.821,-224.674C239.707,-240.264 334.682,-277.459 388.894,-341 418.68,-375.912 432.368,-428.744 438.259,-460.938"/>
<polygon fill="black" stroke="black" points="434.845,-461.737 439.97,-471.01 441.746,-460.565 434.845,-461.737"/>
<text text-anchor="middle" x="301.394" y="-344.8" font-family="Times New Roman,serif" font-size="14.00">|&#45; ( ( ph \/ ch ) &lt;&#45;&gt; ( ch \/ ph ) )</text>
</g>
<!-- n14927 -->
<g id="node52" class="node"><title>n14927</title>
<ellipse fill="cyan" stroke="black" cx="161.447" cy="-117" rx="34.394" ry="18"/>
<text text-anchor="middle" x="161.447" y="-113.3" font-family="Times New Roman,serif" font-size="14.00">orcom</text>
</g>
<!-- n14924&#45;&gt;n14927 -->
<g id="edge77" class="edge"><title>n14924&#45;&gt;n14927</title>
</g>
<!-- n14923&#45;&gt;n14924 -->
<g id="edge65" class="edge"><title>n14923&#45;&gt;n14924</title>
<path fill="none" stroke="lightgray" d="M48.4046,-155.092C69.5092,-166.565 102.791,-184.657 127.605,-198.147"/>
<polygon fill="lightgray" stroke="lightgray" points="126.201,-201.367 136.658,-203.068 129.544,-195.217 126.201,-201.367"/>
<text text-anchor="middle" x="90.5" y="-190.8" font-family="Times New Roman,serif" font-size="14.00" fill="lightgray">wff ch</text>
</g>
<!-- n14925 -->
<g id="node51" class="node"><title>n14925</title>
<ellipse fill="none" stroke="lightgray" cx="27" cy="-90" rx="27" ry="18"/>
<text text-anchor="middle" x="27" y="-86.3" font-family="Times New Roman,serif" font-size="14.00" fill="lightgray">wps</text>
</g>
<!-- n14925&#45;&gt;n14927 -->
<g id="edge68" class="edge"><title>n14925&#45;&gt;n14927</title>
<path fill="none" stroke="lightgray" d="M52.9123,-95.0785C71.5429,-98.8765 97.4367,-104.155 119.146,-108.581"/>
<polygon fill="lightgray" stroke="lightgray" points="118.603,-112.042 129.101,-110.61 120.001,-105.183 118.603,-112.042"/>
<text text-anchor="middle" x="90.5" y="-109.8" font-family="Times New Roman,serif" font-size="14.00" fill="lightgray">wff ps</text>
</g>
<!-- n14926 -->
<g id="node53" class="node"><title>n14926</title>
<ellipse fill="none" stroke="lightgray" cx="27" cy="-18" rx="27" ry="18"/>
<text text-anchor="middle" x="27" y="-14.3" font-family="Times New Roman,serif" font-size="14.00" fill="lightgray">wch</text>
</g>
<!-- n14925&#45;&gt;n14926 -->
<g id="edge71" class="edge"><title>n14925&#45;&gt;n14926</title>
</g>
<!-- n14927&#45;&gt;n14928 -->
<g id="edge70" class="edge"><title>n14927&#45;&gt;n14928</title>
<path fill="none" stroke="black" d="M195.196,-121.305C245.149,-129.695 339.745,-153.09 388.894,-214 419.434,-251.848 434.845,-398.394 440.127,-460.706"/>
<polygon fill="black" stroke="black" points="436.663,-461.297 440.97,-470.977 443.64,-460.724 436.663,-461.297"/>
<text text-anchor="middle" x="301.394" y="-217.8" font-family="Times New Roman,serif" font-size="14.00">|&#45; ( ( ps \/ ch ) &lt;&#45;&gt; ( ch \/ ps ) )</text>
</g>
<!-- n14926&#45;&gt;n14927 -->
<g id="edge69" class="edge"><title>n14926&#45;&gt;n14927</title>
<path fill="none" stroke="lightgray" d="M45.5879,-31.1464C67.8114,-47.7578 106.321,-76.5424 132.569,-96.162"/>
<polygon fill="lightgray" stroke="lightgray" points="130.519,-98.9992 140.624,-102.183 134.71,-93.3924 130.519,-98.9992"/>
<text text-anchor="middle" x="90.5" y="-80.8" font-family="Times New Roman,serif" font-size="14.00" fill="lightgray">wff ch</text>
</g>
</g>
</svg>
