<?xml version="1.0" encoding="UTF-8" standalone="no"?>
<!DOCTYPE svg PUBLIC "-//W3C//DTD SVG 1.1//EN"
 "http://www.w3.org/Graphics/SVG/1.1/DTD/svg11.dtd">
<!-- Generated by graphviz version 2.38.0 (20140413.2041)
 -->
<!-- Title: proof_ordi Pages: 1 -->
<svg width="1532pt" height="1745pt"
 viewBox="0.00 0.00 1532.38 1745.00" xmlns="http://www.w3.org/2000/svg" xmlns:xlink="http://www.w3.org/1999/xlink">
<g id="graph0" class="graph" transform="scale(1 1) rotate(0) translate(4 1741)">
<title>proof_ordi</title>
<polygon fill="white" stroke="none" points="-4,4 -4,-1741 1528.38,-1741 1528.38,4 -4,4"/>
<!-- n14818 -->
<g id="node1" class="node"><title>n14818</title>
<ellipse fill="none" stroke="lightgray" cx="154" cy="-1719" rx="27" ry="18"/>
<text text-anchor="middle" x="154" y="-1715.3" font-family="Times New Roman,serif" font-size="14.00" fill="lightgray">wph</text>
</g>
<!-- n14819 -->
<g id="node2" class="node"><title>n14819</title>
<ellipse fill="none" stroke="lightgray" cx="295.247" cy="-1665" rx="27" ry="18"/>
<text text-anchor="middle" x="295.247" y="-1661.3" font-family="Times New Roman,serif" font-size="14.00" fill="lightgray">wn</text>
</g>
<!-- n14818&#45;&gt;n14819 -->
<g id="edge1" class="edge"><title>n14818&#45;&gt;n14819</title>
<path fill="none" stroke="lightgray" d="M177.682,-1710.2C200.643,-1701.3 236.353,-1687.45 262.199,-1677.43"/>
<polygon fill="lightgray" stroke="lightgray" points="263.517,-1680.67 271.575,-1673.79 260.986,-1674.14 263.517,-1680.67"/>
<text text-anchor="middle" x="223.5" y="-1704.8" font-family="Times New Roman,serif" font-size="14.00" fill="lightgray">wff ph</text>
</g>
<!-- n14823 -->
<g id="node3" class="node"><title>n14823</title>
<ellipse fill="none" stroke="lightgray" cx="588.892" cy="-1503" rx="27" ry="18"/>
<text text-anchor="middle" x="588.892" y="-1499.3" font-family="Times New Roman,serif" font-size="14.00" fill="lightgray">wi</text>
</g>
<!-- n14819&#45;&gt;n14823 -->
<g id="edge2" class="edge"><title>n14819&#45;&gt;n14823</title>
<path fill="none" stroke="lightgray" d="M322.404,-1663.87C369.599,-1660.57 470.07,-1647.63 534.495,-1597 556.278,-1579.88 570.695,-1551.25 578.997,-1530.07"/>
<polygon fill="lightgray" stroke="lightgray" points="582.296,-1531.24 582.486,-1520.65 575.732,-1528.81 582.296,-1531.24"/>
<text text-anchor="middle" x="438.495" y="-1665.8" font-family="Times New Roman,serif" font-size="14.00" fill="lightgray">wff &#45;. ph</text>
</g>
<!-- n14822 -->
<g id="node5" class="node"><title>n14822</title>
<ellipse fill="none" stroke="lightgray" cx="295.247" cy="-1593" rx="27" ry="18"/>
<text text-anchor="middle" x="295.247" y="-1589.3" font-family="Times New Roman,serif" font-size="14.00" fill="lightgray">wa</text>
</g>
<!-- n14819&#45;&gt;n14822 -->
<g id="edge8" class="edge"><title>n14819&#45;&gt;n14822</title>
</g>
<!-- n14876 -->
<g id="node7" class="node"><title>n14876</title>
<ellipse fill="cyan" stroke="black" cx="1086.09" cy="-1107" rx="33.5952" ry="18"/>
<text text-anchor="middle" x="1086.09" y="-1103.3" font-family="Times New Roman,serif" font-size="14.00">3bitr4i</text>
</g>
<!-- n14823&#45;&gt;n14876 -->
<g id="edge7" class="edge"><title>n14823&#45;&gt;n14876</title>
<path fill="none" stroke="lightgray" d="M615.617,-1505.83C692.033,-1512.66 919.486,-1521.43 1034.29,-1400 1070.15,-1362.06 1081.05,-1201.2 1084.05,-1135.32"/>
<polygon fill="lightgray" stroke="lightgray" points="1087.55,-1135.37 1084.48,-1125.23 1080.56,-1135.08 1087.55,-1135.37"/>
<text text-anchor="middle" x="838.788" y="-1513.8" font-family="Times New Roman,serif" font-size="14.00" fill="lightgray">wff ( &#45;. ph &#45;&gt; ( ps /\ ch ) )</text>
</g>
<!-- n14832 -->
<g id="node12" class="node"><title>n14832</title>
<ellipse fill="none" stroke="lightgray" cx="588.892" cy="-1395" rx="27" ry="18"/>
<text text-anchor="middle" x="588.892" y="-1391.3" font-family="Times New Roman,serif" font-size="14.00" fill="lightgray">wa</text>
</g>
<!-- n14823&#45;&gt;n14832 -->
<g id="edge85" class="edge"><title>n14823&#45;&gt;n14832</title>
</g>
<!-- n14820 -->
<g id="node4" class="node"><title>n14820</title>
<ellipse fill="none" stroke="lightgray" cx="154" cy="-1665" rx="27" ry="18"/>
<text text-anchor="middle" x="154" y="-1661.3" font-family="Times New Roman,serif" font-size="14.00" fill="lightgray">wps</text>
</g>
<!-- n14820&#45;&gt;n14822 -->
<g id="edge3" class="edge"><title>n14820&#45;&gt;n14822</title>
<path fill="none" stroke="lightgray" d="M175.847,-1654.22C199.329,-1642.08 237.688,-1622.24 264.356,-1608.46"/>
<polygon fill="lightgray" stroke="lightgray" points="265.983,-1611.55 273.258,-1603.85 262.768,-1605.34 265.983,-1611.55"/>
<text text-anchor="middle" x="223.5" y="-1645.8" font-family="Times New Roman,serif" font-size="14.00" fill="lightgray">wff ps</text>
</g>
<!-- n14821 -->
<g id="node6" class="node"><title>n14821</title>
<ellipse fill="none" stroke="lightgray" cx="154" cy="-1593" rx="27" ry="18"/>
<text text-anchor="middle" x="154" y="-1589.3" font-family="Times New Roman,serif" font-size="14.00" fill="lightgray">wch</text>
</g>
<!-- n14820&#45;&gt;n14821 -->
<g id="edge6" class="edge"><title>n14820&#45;&gt;n14821</title>
</g>
<!-- n14822&#45;&gt;n14823 -->
<g id="edge5" class="edge"><title>n14822&#45;&gt;n14823</title>
<path fill="none" stroke="lightgray" d="M320.114,-1585.63C371.94,-1569.64 494.893,-1531.7 554.434,-1513.32"/>
<polygon fill="lightgray" stroke="lightgray" points="555.581,-1516.63 564.104,-1510.34 553.517,-1509.95 555.581,-1516.63"/>
<text text-anchor="middle" x="438.495" y="-1581.8" font-family="Times New Roman,serif" font-size="14.00" fill="lightgray">wff ( ps /\ ch )</text>
</g>
<!-- n14821&#45;&gt;n14822 -->
<g id="edge4" class="edge"><title>n14821&#45;&gt;n14822</title>
<path fill="none" stroke="lightgray" d="M181.191,-1593C202.877,-1593 233.924,-1593 257.997,-1593"/>
<polygon fill="lightgray" stroke="lightgray" points="258.174,-1596.5 268.173,-1593 258.173,-1589.5 258.174,-1596.5"/>
<text text-anchor="middle" x="223.5" y="-1596.8" font-family="Times New Roman,serif" font-size="14.00" fill="lightgray">wff ch</text>
</g>
<!-- QED -->
<g id="node60" class="node"><title>QED</title>
</g>
<!-- n14876&#45;&gt;QED -->
<g id="edge84" class="edge"><title>n14876&#45;&gt;QED</title>
<path fill="none" stroke="black" d="M1120.05,-1107C1194.68,-1107 1376.22,-1107 1455.74,-1107"/>
<polygon fill="black" stroke="black" points="1455.82,-1110.5 1465.82,-1107 1455.82,-1103.5 1455.82,-1110.5"/>
<text text-anchor="middle" x="1292.88" y="-1110.8" font-family="Times New Roman,serif" font-size="14.00">|&#45; ( ( ph \/ ( ps /\ ch ) ) &lt;&#45;&gt; ( ( ph \/ ps ) /\ ( ph \/ ch ) ) )</text>
</g>
<!-- n14824 -->
<g id="node8" class="node"><title>n14824</title>
<ellipse fill="none" stroke="lightgray" cx="27" cy="-1539" rx="27" ry="18"/>
<text text-anchor="middle" x="27" y="-1535.3" font-family="Times New Roman,serif" font-size="14.00" fill="lightgray">wph</text>
</g>
<!-- n14825 -->
<g id="node9" class="node"><title>n14825</title>
<ellipse fill="none" stroke="lightgray" cx="154" cy="-1539" rx="27" ry="18"/>
<text text-anchor="middle" x="154" y="-1535.3" font-family="Times New Roman,serif" font-size="14.00" fill="lightgray">wn</text>
</g>
<!-- n14824&#45;&gt;n14825 -->
<g id="edge9" class="edge"><title>n14824&#45;&gt;n14825</title>
<path fill="none" stroke="lightgray" d="M54.2041,-1539C72.3711,-1539 96.7994,-1539 116.82,-1539"/>
<polygon fill="lightgray" stroke="lightgray" points="116.83,-1542.5 126.83,-1539 116.83,-1535.5 116.83,-1542.5"/>
<text text-anchor="middle" x="90.5" y="-1542.8" font-family="Times New Roman,serif" font-size="14.00" fill="lightgray">wff ph</text>
</g>
<!-- n14827 -->
<g id="node10" class="node"><title>n14827</title>
<ellipse fill="none" stroke="lightgray" cx="295.247" cy="-1467" rx="27" ry="18"/>
<text text-anchor="middle" x="295.247" y="-1463.3" font-family="Times New Roman,serif" font-size="14.00" fill="lightgray">wi</text>
</g>
<!-- n14825&#45;&gt;n14827 -->
<g id="edge10" class="edge"><title>n14825&#45;&gt;n14827</title>
<path fill="none" stroke="lightgray" d="M175.847,-1528.22C199.329,-1516.08 237.688,-1496.24 264.356,-1482.46"/>
<polygon fill="lightgray" stroke="lightgray" points="265.983,-1485.55 273.258,-1477.85 262.768,-1479.34 265.983,-1485.55"/>
<text text-anchor="middle" x="223.5" y="-1519.8" font-family="Times New Roman,serif" font-size="14.00" fill="lightgray">wff &#45;. ph</text>
</g>
<!-- n14826 -->
<g id="node11" class="node"><title>n14826</title>
<ellipse fill="none" stroke="lightgray" cx="154" cy="-1467" rx="27" ry="18"/>
<text text-anchor="middle" x="154" y="-1463.3" font-family="Times New Roman,serif" font-size="14.00" fill="lightgray">wps</text>
</g>
<!-- n14825&#45;&gt;n14826 -->
<g id="edge13" class="edge"><title>n14825&#45;&gt;n14826</title>
</g>
<!-- n14827&#45;&gt;n14832 -->
<g id="edge12" class="edge"><title>n14827&#45;&gt;n14832</title>
<path fill="none" stroke="lightgray" d="M321.543,-1462.43C365.338,-1454.29 457.943,-1436.04 534.495,-1414 541.356,-1412.02 548.618,-1409.64 555.501,-1407.24"/>
<polygon fill="lightgray" stroke="lightgray" points="556.992,-1410.43 565.226,-1403.76 554.631,-1403.84 556.992,-1410.43"/>
<text text-anchor="middle" x="438.495" y="-1461.8" font-family="Times New Roman,serif" font-size="14.00" fill="lightgray">wff ( &#45;. ph &#45;&gt; ps )</text>
</g>
<!-- n14831 -->
<g id="node15" class="node"><title>n14831</title>
<ellipse fill="none" stroke="lightgray" cx="295.247" cy="-1395" rx="27" ry="18"/>
<text text-anchor="middle" x="295.247" y="-1391.3" font-family="Times New Roman,serif" font-size="14.00" fill="lightgray">wi</text>
</g>
<!-- n14827&#45;&gt;n14831 -->
<g id="edge20" class="edge"><title>n14827&#45;&gt;n14831</title>
</g>
<!-- n14826&#45;&gt;n14827 -->
<g id="edge11" class="edge"><title>n14826&#45;&gt;n14827</title>
<path fill="none" stroke="lightgray" d="M181.191,-1467C202.877,-1467 233.924,-1467 257.997,-1467"/>
<polygon fill="lightgray" stroke="lightgray" points="258.174,-1470.5 268.173,-1467 258.173,-1463.5 258.174,-1470.5"/>
<text text-anchor="middle" x="223.5" y="-1470.8" font-family="Times New Roman,serif" font-size="14.00" fill="lightgray">wff ps</text>
</g>
<!-- n14832&#45;&gt;n14876 -->
<g id="edge19" class="edge"><title>n14832&#45;&gt;n14876</title>
<path fill="none" stroke="lightgray" d="M614.341,-1388.43C697.827,-1365.61 970.003,-1287.76 1034.29,-1226 1059.89,-1201.41 1073.24,-1161.83 1079.71,-1135.14"/>
<polygon fill="lightgray" stroke="lightgray" points="1083.15,-1135.79 1081.93,-1125.26 1076.32,-1134.25 1083.15,-1135.79"/>
<text text-anchor="middle" x="838.788" y="-1384.8" font-family="Times New Roman,serif" font-size="14.00" fill="lightgray">wff ( ( &#45;. ph &#45;&gt; ps ) /\ ( &#45;. ph &#45;&gt; ch ) )</text>
</g>
<!-- n14837 -->
<g id="node18" class="node"><title>n14837</title>
<ellipse fill="none" stroke="lightgray" cx="588.892" cy="-1215" rx="27" ry="18"/>
<text text-anchor="middle" x="588.892" y="-1211.3" font-family="Times New Roman,serif" font-size="14.00" fill="lightgray">wo</text>
</g>
<!-- n14832&#45;&gt;n14837 -->
<g id="edge86" class="edge"><title>n14832&#45;&gt;n14837</title>
</g>
<!-- n14828 -->
<g id="node13" class="node"><title>n14828</title>
<ellipse fill="none" stroke="lightgray" cx="27" cy="-1413" rx="27" ry="18"/>
<text text-anchor="middle" x="27" y="-1409.3" font-family="Times New Roman,serif" font-size="14.00" fill="lightgray">wph</text>
</g>
<!-- n14829 -->
<g id="node14" class="node"><title>n14829</title>
<ellipse fill="none" stroke="lightgray" cx="154" cy="-1413" rx="27" ry="18"/>
<text text-anchor="middle" x="154" y="-1409.3" font-family="Times New Roman,serif" font-size="14.00" fill="lightgray">wn</text>
</g>
<!-- n14828&#45;&gt;n14829 -->
<g id="edge14" class="edge"><title>n14828&#45;&gt;n14829</title>
<path fill="none" stroke="lightgray" d="M54.2041,-1413C72.3711,-1413 96.7994,-1413 116.82,-1413"/>
<polygon fill="lightgray" stroke="lightgray" points="116.83,-1416.5 126.83,-1413 116.83,-1409.5 116.83,-1416.5"/>
<text text-anchor="middle" x="90.5" y="-1416.8" font-family="Times New Roman,serif" font-size="14.00" fill="lightgray">wff ph</text>
</g>
<!-- n14829&#45;&gt;n14831 -->
<g id="edge15" class="edge"><title>n14829&#45;&gt;n14831</title>
<path fill="none" stroke="lightgray" d="M180.865,-1409.66C202.652,-1406.84 234.053,-1402.78 258.287,-1399.65"/>
<polygon fill="lightgray" stroke="lightgray" points="259.052,-1403.08 268.521,-1398.33 258.155,-1396.14 259.052,-1403.08"/>
<text text-anchor="middle" x="223.5" y="-1411.8" font-family="Times New Roman,serif" font-size="14.00" fill="lightgray">wff &#45;. ph</text>
</g>
<!-- n14830 -->
<g id="node16" class="node"><title>n14830</title>
<ellipse fill="none" stroke="lightgray" cx="154" cy="-1341" rx="27" ry="18"/>
<text text-anchor="middle" x="154" y="-1337.3" font-family="Times New Roman,serif" font-size="14.00" fill="lightgray">wch</text>
</g>
<!-- n14829&#45;&gt;n14830 -->
<g id="edge18" class="edge"><title>n14829&#45;&gt;n14830</title>
</g>
<!-- n14831&#45;&gt;n14832 -->
<g id="edge17" class="edge"><title>n14831&#45;&gt;n14832</title>
<path fill="none" stroke="lightgray" d="M322.386,-1395C374.616,-1395 491.973,-1395 551.615,-1395"/>
<polygon fill="lightgray" stroke="lightgray" points="551.707,-1398.5 561.707,-1395 551.707,-1391.5 551.707,-1398.5"/>
<text text-anchor="middle" x="438.495" y="-1398.8" font-family="Times New Roman,serif" font-size="14.00" fill="lightgray">wff ( &#45;. ph &#45;&gt; ch )</text>
</g>
<!-- n14830&#45;&gt;n14831 -->
<g id="edge16" class="edge"><title>n14830&#45;&gt;n14831</title>
<path fill="none" stroke="lightgray" d="M177.682,-1349.8C200.643,-1358.7 236.353,-1372.55 262.199,-1382.57"/>
<polygon fill="lightgray" stroke="lightgray" points="260.986,-1385.86 271.575,-1386.21 263.517,-1379.33 260.986,-1385.86"/>
<text text-anchor="middle" x="223.5" y="-1379.8" font-family="Times New Roman,serif" font-size="14.00" fill="lightgray">wff ch</text>
</g>
<!-- n14833 -->
<g id="node17" class="node"><title>n14833</title>
<ellipse fill="none" stroke="lightgray" cx="295.247" cy="-1287" rx="27" ry="18"/>
<text text-anchor="middle" x="295.247" y="-1283.3" font-family="Times New Roman,serif" font-size="14.00" fill="lightgray">wph</text>
</g>
<!-- n14833&#45;&gt;n14837 -->
<g id="edge21" class="edge"><title>n14833&#45;&gt;n14837</title>
<path fill="none" stroke="lightgray" d="M321.543,-1282.43C365.338,-1274.29 457.943,-1256.04 534.495,-1234 541.356,-1232.02 548.618,-1229.64 555.501,-1227.24"/>
<polygon fill="lightgray" stroke="lightgray" points="556.992,-1230.43 565.226,-1223.76 554.631,-1223.84 556.992,-1230.43"/>
<text text-anchor="middle" x="438.495" y="-1281.8" font-family="Times New Roman,serif" font-size="14.00" fill="lightgray">wff ph</text>
</g>
<!-- n14836 -->
<g id="node20" class="node"><title>n14836</title>
<ellipse fill="none" stroke="lightgray" cx="295.247" cy="-1215" rx="27" ry="18"/>
<text text-anchor="middle" x="295.247" y="-1211.3" font-family="Times New Roman,serif" font-size="14.00" fill="lightgray">wa</text>
</g>
<!-- n14833&#45;&gt;n14836 -->
<g id="edge27" class="edge"><title>n14833&#45;&gt;n14836</title>
</g>
<!-- n14837&#45;&gt;n14876 -->
<g id="edge26" class="edge"><title>n14837&#45;&gt;n14876</title>
<path fill="none" stroke="lightgray" d="M615.785,-1211.3C684.707,-1201.14 878.034,-1170.56 1034.29,-1126 1039.2,-1124.6 1044.31,-1122.94 1049.31,-1121.19"/>
<polygon fill="lightgray" stroke="lightgray" points="1050.52,-1124.48 1058.73,-1117.77 1048.13,-1117.9 1050.52,-1124.48"/>
<text text-anchor="middle" x="838.788" y="-1210.8" font-family="Times New Roman,serif" font-size="14.00" fill="lightgray">wff ( ph \/ ( ps /\ ch ) )</text>
</g>
<!-- n14844 -->
<g id="node25" class="node"><title>n14844</title>
<ellipse fill="none" stroke="lightgray" cx="588.892" cy="-1107" rx="27" ry="18"/>
<text text-anchor="middle" x="588.892" y="-1103.3" font-family="Times New Roman,serif" font-size="14.00" fill="lightgray">wa</text>
</g>
<!-- n14837&#45;&gt;n14844 -->
<g id="edge87" class="edge"><title>n14837&#45;&gt;n14844</title>
</g>
<!-- n14834 -->
<g id="node19" class="node"><title>n14834</title>
<ellipse fill="none" stroke="lightgray" cx="154" cy="-1287" rx="27" ry="18"/>
<text text-anchor="middle" x="154" y="-1283.3" font-family="Times New Roman,serif" font-size="14.00" fill="lightgray">wch</text>
</g>
<!-- n14834&#45;&gt;n14836 -->
<g id="edge22" class="edge"><title>n14834&#45;&gt;n14836</title>
<path fill="none" stroke="lightgray" d="M175.847,-1276.22C199.329,-1264.08 237.688,-1244.24 264.356,-1230.46"/>
<polygon fill="lightgray" stroke="lightgray" points="265.983,-1233.55 273.258,-1225.85 262.768,-1227.34 265.983,-1233.55"/>
<text text-anchor="middle" x="223.5" y="-1267.8" font-family="Times New Roman,serif" font-size="14.00" fill="lightgray">wff ch</text>
</g>
<!-- n14835 -->
<g id="node21" class="node"><title>n14835</title>
<ellipse fill="none" stroke="lightgray" cx="154" cy="-1215" rx="27" ry="18"/>
<text text-anchor="middle" x="154" y="-1211.3" font-family="Times New Roman,serif" font-size="14.00" fill="lightgray">wps</text>
</g>
<!-- n14834&#45;&gt;n14835 -->
<g id="edge25" class="edge"><title>n14834&#45;&gt;n14835</title>
</g>
<!-- n14836&#45;&gt;n14837 -->
<g id="edge24" class="edge"><title>n14836&#45;&gt;n14837</title>
<path fill="none" stroke="lightgray" d="M322.386,-1215C374.616,-1215 491.973,-1215 551.615,-1215"/>
<polygon fill="lightgray" stroke="lightgray" points="551.707,-1218.5 561.707,-1215 551.707,-1211.5 551.707,-1218.5"/>
<text text-anchor="middle" x="438.495" y="-1218.8" font-family="Times New Roman,serif" font-size="14.00" fill="lightgray">wff ( ps /\ ch )</text>
</g>
<!-- n14835&#45;&gt;n14836 -->
<g id="edge23" class="edge"><title>n14835&#45;&gt;n14836</title>
<path fill="none" stroke="lightgray" d="M181.191,-1215C202.877,-1215 233.924,-1215 257.997,-1215"/>
<polygon fill="lightgray" stroke="lightgray" points="258.174,-1218.5 268.173,-1215 258.173,-1211.5 258.174,-1218.5"/>
<text text-anchor="middle" x="223.5" y="-1218.8" font-family="Times New Roman,serif" font-size="14.00" fill="lightgray">wff ps</text>
</g>
<!-- n14838 -->
<g id="node22" class="node"><title>n14838</title>
<ellipse fill="none" stroke="lightgray" cx="154" cy="-1161" rx="27" ry="18"/>
<text text-anchor="middle" x="154" y="-1157.3" font-family="Times New Roman,serif" font-size="14.00" fill="lightgray">wph</text>
</g>
<!-- n14840 -->
<g id="node23" class="node"><title>n14840</title>
<ellipse fill="none" stroke="lightgray" cx="295.247" cy="-1161" rx="27" ry="18"/>
<text text-anchor="middle" x="295.247" y="-1157.3" font-family="Times New Roman,serif" font-size="14.00" fill="lightgray">wo</text>
</g>
<!-- n14838&#45;&gt;n14840 -->
<g id="edge28" class="edge"><title>n14838&#45;&gt;n14840</title>
<path fill="none" stroke="lightgray" d="M181.191,-1161C202.877,-1161 233.924,-1161 257.997,-1161"/>
<polygon fill="lightgray" stroke="lightgray" points="258.174,-1164.5 268.173,-1161 258.173,-1157.5 258.174,-1164.5"/>
<text text-anchor="middle" x="223.5" y="-1164.8" font-family="Times New Roman,serif" font-size="14.00" fill="lightgray">wff ph</text>
</g>
<!-- n14839 -->
<g id="node24" class="node"><title>n14839</title>
<ellipse fill="none" stroke="lightgray" cx="154" cy="-1089" rx="27" ry="18"/>
<text text-anchor="middle" x="154" y="-1085.3" font-family="Times New Roman,serif" font-size="14.00" fill="lightgray">wps</text>
</g>
<!-- n14838&#45;&gt;n14839 -->
<g id="edge31" class="edge"><title>n14838&#45;&gt;n14839</title>
</g>
<!-- n14840&#45;&gt;n14844 -->
<g id="edge30" class="edge"><title>n14840&#45;&gt;n14844</title>
<path fill="none" stroke="lightgray" d="M321.813,-1157.77C365.629,-1152.02 457.769,-1139 534.495,-1122 540.911,-1120.58 547.701,-1118.85 554.21,-1117.08"/>
<polygon fill="lightgray" stroke="lightgray" points="555.432,-1120.37 564.113,-1114.29 553.539,-1113.63 555.432,-1120.37"/>
<text text-anchor="middle" x="438.495" y="-1158.8" font-family="Times New Roman,serif" font-size="14.00" fill="lightgray">wff ( ph \/ ps )</text>
</g>
<!-- n14843 -->
<g id="node27" class="node"><title>n14843</title>
<ellipse fill="none" stroke="lightgray" cx="295.247" cy="-1089" rx="27" ry="18"/>
<text text-anchor="middle" x="295.247" y="-1085.3" font-family="Times New Roman,serif" font-size="14.00" fill="lightgray">wo</text>
</g>
<!-- n14840&#45;&gt;n14843 -->
<g id="edge37" class="edge"><title>n14840&#45;&gt;n14843</title>
</g>
<!-- n14839&#45;&gt;n14840 -->
<g id="edge29" class="edge"><title>n14839&#45;&gt;n14840</title>
<path fill="none" stroke="lightgray" d="M175.847,-1099.78C199.329,-1111.92 237.688,-1131.76 264.356,-1145.54"/>
<polygon fill="lightgray" stroke="lightgray" points="262.768,-1148.66 273.258,-1150.15 265.983,-1142.45 262.768,-1148.66"/>
<text text-anchor="middle" x="223.5" y="-1139.8" font-family="Times New Roman,serif" font-size="14.00" fill="lightgray">wff ps</text>
</g>
<!-- n14844&#45;&gt;n14876 -->
<g id="edge36" class="edge"><title>n14844&#45;&gt;n14876</title>
<path fill="none" stroke="lightgray" d="M616.166,-1107C696.985,-1107 942.441,-1107 1042.22,-1107"/>
<polygon fill="lightgray" stroke="lightgray" points="1042.25,-1110.5 1052.25,-1107 1042.25,-1103.5 1042.25,-1110.5"/>
<text text-anchor="middle" x="838.788" y="-1110.8" font-family="Times New Roman,serif" font-size="14.00" fill="lightgray">wff ( ( ph \/ ps ) /\ ( ph \/ ch ) )</text>
</g>
<!-- n14849 -->
<g id="node31" class="node"><title>n14849</title>
<ellipse fill="cyan" stroke="black" cx="588.892" cy="-1012" rx="27" ry="18"/>
<text text-anchor="middle" x="588.892" y="-1008.3" font-family="Times New Roman,serif" font-size="14.00">jcab</text>
</g>
<!-- n14844&#45;&gt;n14849 -->
<g id="edge88" class="edge"><title>n14844&#45;&gt;n14849</title>
</g>
<!-- n14841 -->
<g id="node26" class="node"><title>n14841</title>
<ellipse fill="none" stroke="lightgray" cx="154" cy="-1035" rx="27" ry="18"/>
<text text-anchor="middle" x="154" y="-1031.3" font-family="Times New Roman,serif" font-size="14.00" fill="lightgray">wph</text>
</g>
<!-- n14841&#45;&gt;n14843 -->
<g id="edge32" class="edge"><title>n14841&#45;&gt;n14843</title>
<path fill="none" stroke="lightgray" d="M178.456,-1043.15C197.346,-1049.82 224.526,-1059.64 248,-1069 252.853,-1070.93 257.958,-1073.05 262.934,-1075.17"/>
<polygon fill="lightgray" stroke="lightgray" points="261.674,-1078.44 272.243,-1079.18 264.442,-1072.01 261.674,-1078.44"/>
<text text-anchor="middle" x="223.5" y="-1072.8" font-family="Times New Roman,serif" font-size="14.00" fill="lightgray">wff ph</text>
</g>
<!-- n14842 -->
<g id="node28" class="node"><title>n14842</title>
<ellipse fill="none" stroke="lightgray" cx="154" cy="-963" rx="27" ry="18"/>
<text text-anchor="middle" x="154" y="-959.3" font-family="Times New Roman,serif" font-size="14.00" fill="lightgray">wch</text>
</g>
<!-- n14841&#45;&gt;n14842 -->
<g id="edge35" class="edge"><title>n14841&#45;&gt;n14842</title>
</g>
<!-- n14843&#45;&gt;n14844 -->
<g id="edge34" class="edge"><title>n14843&#45;&gt;n14844</title>
<path fill="none" stroke="lightgray" d="M322.386,-1090.61C374.616,-1093.84 491.973,-1101.08 551.615,-1104.76"/>
<polygon fill="lightgray" stroke="lightgray" points="551.511,-1108.26 561.707,-1105.38 551.942,-1101.27 551.511,-1108.26"/>
<text text-anchor="middle" x="438.495" y="-1107.8" font-family="Times New Roman,serif" font-size="14.00" fill="lightgray">wff ( ph \/ ch )</text>
</g>
<!-- n14842&#45;&gt;n14843 -->
<g id="edge33" class="edge"><title>n14842&#45;&gt;n14843</title>
<path fill="none" stroke="lightgray" d="M174.934,-974.547C195.081,-986.911 226.26,-1008.02 248,-1032 258.444,-1043.52 256.293,-1049.85 266,-1062 267.445,-1063.81 269.007,-1065.61 270.629,-1067.39"/>
<polygon fill="lightgray" stroke="lightgray" points="268.443,-1070.16 277.946,-1074.84 273.439,-1065.25 268.443,-1070.16"/>
<text text-anchor="middle" x="223.5" y="-1035.8" font-family="Times New Roman,serif" font-size="14.00" fill="lightgray">wff ch</text>
</g>
<!-- n14845 -->
<g id="node29" class="node"><title>n14845</title>
<ellipse fill="none" stroke="lightgray" cx="154" cy="-909" rx="27" ry="18"/>
<text text-anchor="middle" x="154" y="-905.3" font-family="Times New Roman,serif" font-size="14.00" fill="lightgray">wph</text>
</g>
<!-- n14846 -->
<g id="node30" class="node"><title>n14846</title>
<ellipse fill="none" stroke="lightgray" cx="295.247" cy="-1035" rx="27" ry="18"/>
<text text-anchor="middle" x="295.247" y="-1031.3" font-family="Times New Roman,serif" font-size="14.00" fill="lightgray">wn</text>
</g>
<!-- n14845&#45;&gt;n14846 -->
<g id="edge38" class="edge"><title>n14845&#45;&gt;n14846</title>
<path fill="none" stroke="lightgray" d="M175.267,-920.294C195.11,-931.934 225.548,-951.388 248,-973 259.41,-983.983 270.123,-998.005 278.359,-1009.94"/>
<polygon fill="lightgray" stroke="lightgray" points="275.669,-1012.21 284.144,-1018.57 281.483,-1008.31 275.669,-1012.21"/>
<text text-anchor="middle" x="223.5" y="-976.8" font-family="Times New Roman,serif" font-size="14.00" fill="lightgray">wff ph</text>
</g>
<!-- n14846&#45;&gt;n14849 -->
<g id="edge39" class="edge"><title>n14846&#45;&gt;n14849</title>
<path fill="none" stroke="lightgray" d="M322.129,-1032.96C374.207,-1028.85 491.771,-1019.58 551.536,-1014.87"/>
<polygon fill="lightgray" stroke="lightgray" points="551.955,-1018.35 561.649,-1014.07 551.405,-1011.37 551.955,-1018.35"/>
<text text-anchor="middle" x="438.495" y="-1035.8" font-family="Times New Roman,serif" font-size="14.00" fill="lightgray">wff &#45;. ph</text>
</g>
<!-- n14847 -->
<g id="node32" class="node"><title>n14847</title>
<ellipse fill="none" stroke="lightgray" cx="295.247" cy="-963" rx="27" ry="18"/>
<text text-anchor="middle" x="295.247" y="-959.3" font-family="Times New Roman,serif" font-size="14.00" fill="lightgray">wps</text>
</g>
<!-- n14846&#45;&gt;n14847 -->
<g id="edge43" class="edge"><title>n14846&#45;&gt;n14847</title>
</g>
<!-- n14849&#45;&gt;n14876 -->
<g id="edge42" class="edge"><title>n14849&#45;&gt;n14876</title>
<path fill="none" stroke="black" d="M615.809,-1014.7C684.787,-1022.26 878.241,-1045.88 1034.29,-1088 1039.27,-1089.35 1044.45,-1090.99 1049.52,-1092.74"/>
<polygon fill="black" stroke="black" points="1048.43,-1096.07 1059.03,-1096.18 1050.82,-1089.48 1048.43,-1096.07"/>
<text text-anchor="middle" x="838.788" y="-1091.8" font-family="Times New Roman,serif" font-size="14.00">|&#45; ( ( &#45;. ph &#45;&gt; ( ps /\ ch ) ) &lt;&#45;&gt; ( ( &#45;. ph &#45;&gt; ps ) /\ ( &#45;. ph &#45;&gt; ch ) ) )</text>
</g>
<!-- n14854 -->
<g id="node35" class="node"><title>n14854</title>
<ellipse fill="lawngreen" stroke="black" cx="588.892" cy="-837" rx="29.4969" ry="18"/>
<text text-anchor="middle" x="588.892" y="-833.3" font-family="Times New Roman,serif" font-size="14.00">df&#45;or</text>
</g>
<!-- n14849&#45;&gt;n14854 -->
<g id="edge89" class="edge"><title>n14849&#45;&gt;n14854</title>
</g>
<!-- n14847&#45;&gt;n14849 -->
<g id="edge40" class="edge"><title>n14847&#45;&gt;n14849</title>
<path fill="none" stroke="lightgray" d="M322.147,-965.853C366.077,-970.905 457.893,-982.381 534.495,-998 540.842,-999.294 547.56,-1000.88 554.011,-1002.52"/>
<polygon fill="lightgray" stroke="lightgray" points="553.275,-1005.94 563.835,-1005.09 555.048,-999.169 553.275,-1005.94"/>
<text text-anchor="middle" x="438.495" y="-1001.8" font-family="Times New Roman,serif" font-size="14.00" fill="lightgray">wff ps</text>
</g>
<!-- n14848 -->
<g id="node33" class="node"><title>n14848</title>
<ellipse fill="none" stroke="lightgray" cx="295.247" cy="-891" rx="27" ry="18"/>
<text text-anchor="middle" x="295.247" y="-887.3" font-family="Times New Roman,serif" font-size="14.00" fill="lightgray">wch</text>
</g>
<!-- n14847&#45;&gt;n14848 -->
<g id="edge44" class="edge"><title>n14847&#45;&gt;n14848</title>
</g>
<!-- n14848&#45;&gt;n14849 -->
<g id="edge41" class="edge"><title>n14848&#45;&gt;n14849</title>
<path fill="none" stroke="lightgray" d="M322.2,-892.313C368.211,-895.697 465.708,-907.705 534.495,-950 549.538,-959.25 562.562,-974.136 571.982,-987.003"/>
<polygon fill="lightgray" stroke="lightgray" points="569.314,-989.297 577.907,-995.495 575.055,-985.291 569.314,-989.297"/>
<text text-anchor="middle" x="438.495" y="-953.8" font-family="Times New Roman,serif" font-size="14.00" fill="lightgray">wff ch</text>
</g>
<!-- n14850 -->
<g id="node34" class="node"><title>n14850</title>
<ellipse fill="none" stroke="lightgray" cx="295.247" cy="-837" rx="27" ry="18"/>
<text text-anchor="middle" x="295.247" y="-833.3" font-family="Times New Roman,serif" font-size="14.00" fill="lightgray">wph</text>
</g>
<!-- n14850&#45;&gt;n14854 -->
<g id="edge45" class="edge"><title>n14850&#45;&gt;n14854</title>
<path fill="none" stroke="lightgray" d="M322.386,-837C373.956,-837 489.02,-837 549.329,-837"/>
<polygon fill="lightgray" stroke="lightgray" points="549.574,-840.5 559.574,-837 549.574,-833.5 549.574,-840.5"/>
<text text-anchor="middle" x="438.495" y="-840.8" font-family="Times New Roman,serif" font-size="14.00" fill="lightgray">wff ph</text>
</g>
<!-- n14853 -->
<g id="node37" class="node"><title>n14853</title>
<ellipse fill="none" stroke="lightgray" cx="295.247" cy="-765" rx="27" ry="18"/>
<text text-anchor="middle" x="295.247" y="-761.3" font-family="Times New Roman,serif" font-size="14.00" fill="lightgray">wa</text>
</g>
<!-- n14850&#45;&gt;n14853 -->
<g id="edge51" class="edge"><title>n14850&#45;&gt;n14853</title>
</g>
<!-- n14854&#45;&gt;n14876 -->
<g id="edge50" class="edge"><title>n14854&#45;&gt;n14876</title>
<path fill="none" stroke="black" d="M617.859,-839.926C694.078,-849.28 908.162,-884.938 1034.29,-1000 1057.45,-1021.13 1071.04,-1055.03 1078.24,-1079.01"/>
<polygon fill="black" stroke="black" points="1074.95,-1080.25 1081.03,-1088.93 1081.69,-1078.35 1074.95,-1080.25"/>
<text text-anchor="middle" x="838.788" y="-1003.8" font-family="Times New Roman,serif" font-size="14.00">|&#45; ( ( ph \/ ( ps /\ ch ) ) &lt;&#45;&gt; ( &#45;. ph &#45;&gt; ( ps /\ ch ) ) )</text>
</g>
<!-- n14875 -->
<g id="node42" class="node"><title>n14875</title>
<ellipse fill="cyan" stroke="black" cx="588.892" cy="-495" rx="36.2938" ry="18"/>
<text text-anchor="middle" x="588.892" y="-491.3" font-family="Times New Roman,serif" font-size="14.00">anbi12i</text>
</g>
<!-- n14854&#45;&gt;n14875 -->
<g id="edge90" class="edge"><title>n14854&#45;&gt;n14875</title>
</g>
<!-- n14851 -->
<g id="node36" class="node"><title>n14851</title>
<ellipse fill="none" stroke="lightgray" cx="154" cy="-846" rx="27" ry="18"/>
<text text-anchor="middle" x="154" y="-842.3" font-family="Times New Roman,serif" font-size="14.00" fill="lightgray">wch</text>
</g>
<!-- n14851&#45;&gt;n14853 -->
<g id="edge46" class="edge"><title>n14851&#45;&gt;n14853</title>
<path fill="none" stroke="lightgray" d="M174.951,-834.395C198.63,-820.621 238.304,-797.542 265.343,-781.814"/>
<polygon fill="lightgray" stroke="lightgray" points="267.45,-784.637 274.334,-776.584 263.93,-778.587 267.45,-784.637"/>
<text text-anchor="middle" x="223.5" y="-823.8" font-family="Times New Roman,serif" font-size="14.00" fill="lightgray">wff ch</text>
</g>
<!-- n14852 -->
<g id="node38" class="node"><title>n14852</title>
<ellipse fill="none" stroke="lightgray" cx="154" cy="-774" rx="27" ry="18"/>
<text text-anchor="middle" x="154" y="-770.3" font-family="Times New Roman,serif" font-size="14.00" fill="lightgray">wps</text>
</g>
<!-- n14851&#45;&gt;n14852 -->
<g id="edge49" class="edge"><title>n14851&#45;&gt;n14852</title>
</g>
<!-- n14853&#45;&gt;n14854 -->
<g id="edge48" class="edge"><title>n14853&#45;&gt;n14854</title>
<path fill="none" stroke="lightgray" d="M321.543,-769.566C365.338,-777.706 457.943,-795.956 534.495,-818 540.824,-819.823 547.494,-821.991 553.894,-824.2"/>
<polygon fill="lightgray" stroke="lightgray" points="553.046,-827.613 563.641,-827.66 555.388,-821.016 553.046,-827.613"/>
<text text-anchor="middle" x="438.495" y="-821.8" font-family="Times New Roman,serif" font-size="14.00" fill="lightgray">wff ( ps /\ ch )</text>
</g>
<!-- n14852&#45;&gt;n14853 -->
<g id="edge47" class="edge"><title>n14852&#45;&gt;n14853</title>
<path fill="none" stroke="lightgray" d="M181.191,-772.307C202.877,-770.906 233.924,-768.899 257.997,-767.343"/>
<polygon fill="lightgray" stroke="lightgray" points="258.42,-770.823 268.173,-766.685 257.969,-763.838 258.42,-770.823"/>
<text text-anchor="middle" x="223.5" y="-775.8" font-family="Times New Roman,serif" font-size="14.00" fill="lightgray">wff ps</text>
</g>
<!-- n14855 -->
<g id="node39" class="node"><title>n14855</title>
<ellipse fill="none" stroke="lightgray" cx="154" cy="-720" rx="27" ry="18"/>
<text text-anchor="middle" x="154" y="-716.3" font-family="Times New Roman,serif" font-size="14.00" fill="lightgray">wps</text>
</g>
<!-- n14857 -->
<g id="node40" class="node"><title>n14857</title>
<ellipse fill="none" stroke="lightgray" cx="295.247" cy="-623" rx="27" ry="18"/>
<text text-anchor="middle" x="295.247" y="-619.3" font-family="Times New Roman,serif" font-size="14.00" fill="lightgray">wo</text>
</g>
<!-- n14855&#45;&gt;n14857 -->
<g id="edge52" class="edge"><title>n14855&#45;&gt;n14857</title>
<path fill="none" stroke="lightgray" d="M174.543,-707.83C193.577,-695.827 223.187,-676.751 248,-659 254.982,-654.005 262.386,-648.392 269.174,-643.111"/>
<polygon fill="lightgray" stroke="lightgray" points="271.668,-645.602 277.367,-636.67 267.342,-640.099 271.668,-645.602"/>
<text text-anchor="middle" x="223.5" y="-695.8" font-family="Times New Roman,serif" font-size="14.00" fill="lightgray">wff ps</text>
</g>
<!-- n14856 -->
<g id="node41" class="node"><title>n14856</title>
<ellipse fill="none" stroke="lightgray" cx="154" cy="-648" rx="27" ry="18"/>
<text text-anchor="middle" x="154" y="-644.3" font-family="Times New Roman,serif" font-size="14.00" fill="lightgray">wph</text>
</g>
<!-- n14855&#45;&gt;n14856 -->
<g id="edge55" class="edge"><title>n14855&#45;&gt;n14856</title>
</g>
<!-- n14857&#45;&gt;n14875 -->
<g id="edge54" class="edge"><title>n14857&#45;&gt;n14875</title>
<path fill="none" stroke="lightgray" d="M321.356,-618.32C366.452,-609.148 463.113,-585.951 534.495,-544 546.02,-537.226 557.176,-527.635 566.285,-518.731"/>
<polygon fill="lightgray" stroke="lightgray" points="568.893,-521.071 573.417,-511.491 563.906,-516.159 568.893,-521.071"/>
<text text-anchor="middle" x="438.495" y="-617.8" font-family="Times New Roman,serif" font-size="14.00" fill="lightgray">wff ( ph \/ ps )</text>
</g>
<!-- n14861 -->
<g id="node44" class="node"><title>n14861</title>
<ellipse fill="none" stroke="lightgray" cx="295.247" cy="-530" rx="27" ry="18"/>
<text text-anchor="middle" x="295.247" y="-526.3" font-family="Times New Roman,serif" font-size="14.00" fill="lightgray">wi</text>
</g>
<!-- n14857&#45;&gt;n14861 -->
<g id="edge79" class="edge"><title>n14857&#45;&gt;n14861</title>
</g>
<!-- n14856&#45;&gt;n14857 -->
<g id="edge53" class="edge"><title>n14856&#45;&gt;n14857</title>
<path fill="none" stroke="lightgray" d="M180.217,-643.473C202.161,-639.533 234.207,-633.779 258.743,-629.374"/>
<polygon fill="lightgray" stroke="lightgray" points="259.524,-632.79 268.748,-627.578 258.287,-625.9 259.524,-632.79"/>
<text text-anchor="middle" x="223.5" y="-643.8" font-family="Times New Roman,serif" font-size="14.00" fill="lightgray">wff ph</text>
</g>
<!-- n14875&#45;&gt;n14876 -->
<g id="edge78" class="edge"><title>n14875&#45;&gt;n14876</title>
<path fill="none" stroke="black" d="M617.19,-506.462C696.458,-541.283 927.754,-654.067 1034.29,-826 1060.4,-868.14 1076.72,-1015.93 1082.6,-1078.59"/>
<polygon fill="black" stroke="black" points="1079.15,-1079.27 1083.55,-1088.91 1086.12,-1078.63 1079.15,-1079.27"/>
<text text-anchor="middle" x="838.788" y="-829.8" font-family="Times New Roman,serif" font-size="14.00">|&#45; ( ( ( ph \/ ps ) /\ ( ph \/ ch ) ) &lt;&#45;&gt; ( ( &#45;. ph &#45;&gt; ps ) /\ ( &#45;. ph &#45;&gt; ch ) ) )</text>
</g>
<!-- n14858 -->
<g id="node43" class="node"><title>n14858</title>
<ellipse fill="none" stroke="lightgray" cx="154" cy="-594" rx="27" ry="18"/>
<text text-anchor="middle" x="154" y="-590.3" font-family="Times New Roman,serif" font-size="14.00" fill="lightgray">wps</text>
</g>
<!-- n14858&#45;&gt;n14861 -->
<g id="edge56" class="edge"><title>n14858&#45;&gt;n14861</title>
<path fill="none" stroke="lightgray" d="M176.757,-584C200.056,-573.292 237.215,-556.213 263.498,-544.133"/>
<polygon fill="lightgray" stroke="lightgray" points="265.018,-547.286 272.643,-539.93 262.095,-540.926 265.018,-547.286"/>
<text text-anchor="middle" x="223.5" y="-577.8" font-family="Times New Roman,serif" font-size="14.00" fill="lightgray">wff ps</text>
</g>
<!-- n14860 -->
<g id="node46" class="node"><title>n14860</title>
<ellipse fill="none" stroke="lightgray" cx="154" cy="-522" rx="27" ry="18"/>
<text text-anchor="middle" x="154" y="-518.3" font-family="Times New Roman,serif" font-size="14.00" fill="lightgray">wn</text>
</g>
<!-- n14858&#45;&gt;n14860 -->
<g id="edge60" class="edge"><title>n14858&#45;&gt;n14860</title>
</g>
<!-- n14861&#45;&gt;n14875 -->
<g id="edge59" class="edge"><title>n14861&#45;&gt;n14875</title>
<path fill="none" stroke="lightgray" d="M321.873,-526.925C371.409,-520.98 480.871,-507.843 542.835,-500.407"/>
<polygon fill="lightgray" stroke="lightgray" points="543.579,-503.843 553.091,-499.176 542.745,-496.893 543.579,-503.843"/>
<text text-anchor="middle" x="438.495" y="-528.8" font-family="Times New Roman,serif" font-size="14.00" fill="lightgray">wff ( &#45;. ph &#45;&gt; ps )</text>
</g>
<!-- n14864 -->
<g id="node48" class="node"><title>n14864</title>
<ellipse fill="none" stroke="lightgray" cx="295.247" cy="-458" rx="27" ry="18"/>
<text text-anchor="middle" x="295.247" y="-454.3" font-family="Times New Roman,serif" font-size="14.00" fill="lightgray">wo</text>
</g>
<!-- n14861&#45;&gt;n14864 -->
<g id="edge80" class="edge"><title>n14861&#45;&gt;n14864</title>
</g>
<!-- n14859 -->
<g id="node45" class="node"><title>n14859</title>
<ellipse fill="none" stroke="lightgray" cx="27" cy="-522" rx="27" ry="18"/>
<text text-anchor="middle" x="27" y="-518.3" font-family="Times New Roman,serif" font-size="14.00" fill="lightgray">wph</text>
</g>
<!-- n14859&#45;&gt;n14860 -->
<g id="edge57" class="edge"><title>n14859&#45;&gt;n14860</title>
<path fill="none" stroke="lightgray" d="M54.2041,-522C72.3711,-522 96.7994,-522 116.82,-522"/>
<polygon fill="lightgray" stroke="lightgray" points="116.83,-525.5 126.83,-522 116.83,-518.5 116.83,-525.5"/>
<text text-anchor="middle" x="90.5" y="-525.8" font-family="Times New Roman,serif" font-size="14.00" fill="lightgray">wff ph</text>
</g>
<!-- n14860&#45;&gt;n14861 -->
<g id="edge58" class="edge"><title>n14860&#45;&gt;n14861</title>
<path fill="none" stroke="lightgray" d="M181.191,-523.505C202.877,-524.751 233.924,-526.534 257.997,-527.917"/>
<polygon fill="lightgray" stroke="lightgray" points="257.989,-531.423 268.173,-528.502 258.391,-524.434 257.989,-531.423"/>
<text text-anchor="middle" x="223.5" y="-531.8" font-family="Times New Roman,serif" font-size="14.00" fill="lightgray">wff &#45;. ph</text>
</g>
<!-- n14862 -->
<g id="node47" class="node"><title>n14862</title>
<ellipse fill="none" stroke="lightgray" cx="154" cy="-468" rx="27" ry="18"/>
<text text-anchor="middle" x="154" y="-464.3" font-family="Times New Roman,serif" font-size="14.00" fill="lightgray">wch</text>
</g>
<!-- n14862&#45;&gt;n14864 -->
<g id="edge61" class="edge"><title>n14862&#45;&gt;n14864</title>
<path fill="none" stroke="lightgray" d="M180.865,-466.143C202.515,-464.588 233.658,-462.351 257.829,-460.615"/>
<polygon fill="lightgray" stroke="lightgray" points="258.325,-464.089 268.048,-459.881 257.823,-457.107 258.325,-464.089"/>
<text text-anchor="middle" x="223.5" y="-468.8" font-family="Times New Roman,serif" font-size="14.00" fill="lightgray">wff ch</text>
</g>
<!-- n14863 -->
<g id="node49" class="node"><title>n14863</title>
<ellipse fill="none" stroke="lightgray" cx="154" cy="-396" rx="27" ry="18"/>
<text text-anchor="middle" x="154" y="-392.3" font-family="Times New Roman,serif" font-size="14.00" fill="lightgray">wph</text>
</g>
<!-- n14862&#45;&gt;n14863 -->
<g id="edge64" class="edge"><title>n14862&#45;&gt;n14863</title>
</g>
<!-- n14864&#45;&gt;n14875 -->
<g id="edge63" class="edge"><title>n14864&#45;&gt;n14875</title>
<path fill="none" stroke="lightgray" d="M322.469,-459.747C366.49,-462.905 457.956,-470.428 534.495,-483 538.181,-483.605 541.994,-484.308 545.808,-485.063"/>
<polygon fill="lightgray" stroke="lightgray" points="545.316,-488.536 555.821,-487.156 546.748,-481.684 545.316,-488.536"/>
<text text-anchor="middle" x="438.495" y="-486.8" font-family="Times New Roman,serif" font-size="14.00" fill="lightgray">wff ( ph \/ ch )</text>
</g>
<!-- n14868 -->
<g id="node51" class="node"><title>n14868</title>
<ellipse fill="none" stroke="lightgray" cx="295.247" cy="-342" rx="27" ry="18"/>
<text text-anchor="middle" x="295.247" y="-338.3" font-family="Times New Roman,serif" font-size="14.00" fill="lightgray">wi</text>
</g>
<!-- n14864&#45;&gt;n14868 -->
<g id="edge81" class="edge"><title>n14864&#45;&gt;n14868</title>
</g>
<!-- n14863&#45;&gt;n14864 -->
<g id="edge62" class="edge"><title>n14863&#45;&gt;n14864</title>
<path fill="none" stroke="lightgray" d="M176.757,-405.688C199.92,-416.001 236.781,-432.413 263.036,-444.103"/>
<polygon fill="lightgray" stroke="lightgray" points="261.624,-447.306 272.183,-448.176 264.472,-440.911 261.624,-447.306"/>
<text text-anchor="middle" x="223.5" y="-440.8" font-family="Times New Roman,serif" font-size="14.00" fill="lightgray">wff ph</text>
</g>
<!-- n14865 -->
<g id="node50" class="node"><title>n14865</title>
<ellipse fill="none" stroke="lightgray" cx="154" cy="-342" rx="27" ry="18"/>
<text text-anchor="middle" x="154" y="-338.3" font-family="Times New Roman,serif" font-size="14.00" fill="lightgray">wch</text>
</g>
<!-- n14865&#45;&gt;n14868 -->
<g id="edge65" class="edge"><title>n14865&#45;&gt;n14868</title>
<path fill="none" stroke="lightgray" d="M181.191,-342C202.877,-342 233.924,-342 257.997,-342"/>
<polygon fill="lightgray" stroke="lightgray" points="258.174,-345.5 268.173,-342 258.173,-338.5 258.174,-345.5"/>
<text text-anchor="middle" x="223.5" y="-345.8" font-family="Times New Roman,serif" font-size="14.00" fill="lightgray">wff ch</text>
</g>
<!-- n14867 -->
<g id="node53" class="node"><title>n14867</title>
<ellipse fill="none" stroke="lightgray" cx="154" cy="-270" rx="27" ry="18"/>
<text text-anchor="middle" x="154" y="-266.3" font-family="Times New Roman,serif" font-size="14.00" fill="lightgray">wn</text>
</g>
<!-- n14865&#45;&gt;n14867 -->
<g id="edge69" class="edge"><title>n14865&#45;&gt;n14867</title>
</g>
<!-- n14868&#45;&gt;n14875 -->
<g id="edge68" class="edge"><title>n14868&#45;&gt;n14875</title>
<path fill="none" stroke="lightgray" d="M320.353,-348.935C365.072,-362.488 462.842,-395.381 534.495,-443 546.23,-450.799 557.643,-461.371 566.884,-470.947"/>
<polygon fill="lightgray" stroke="lightgray" points="564.409,-473.425 573.795,-478.34 569.523,-468.645 564.409,-473.425"/>
<text text-anchor="middle" x="438.495" y="-446.8" font-family="Times New Roman,serif" font-size="14.00" fill="lightgray">wff ( &#45;. ph &#45;&gt; ch )</text>
</g>
<!-- n14871 -->
<g id="node55" class="node"><title>n14871</title>
<ellipse fill="lawngreen" stroke="black" cx="295.247" cy="-216" rx="29.4969" ry="18"/>
<text text-anchor="middle" x="295.247" y="-212.3" font-family="Times New Roman,serif" font-size="14.00">df&#45;or</text>
</g>
<!-- n14868&#45;&gt;n14871 -->
<g id="edge82" class="edge"><title>n14868&#45;&gt;n14871</title>
</g>
<!-- n14866 -->
<g id="node52" class="node"><title>n14866</title>
<ellipse fill="none" stroke="lightgray" cx="27" cy="-270" rx="27" ry="18"/>
<text text-anchor="middle" x="27" y="-266.3" font-family="Times New Roman,serif" font-size="14.00" fill="lightgray">wph</text>
</g>
<!-- n14866&#45;&gt;n14867 -->
<g id="edge66" class="edge"><title>n14866&#45;&gt;n14867</title>
<path fill="none" stroke="lightgray" d="M54.2041,-270C72.3711,-270 96.7994,-270 116.82,-270"/>
<polygon fill="lightgray" stroke="lightgray" points="116.83,-273.5 126.83,-270 116.83,-266.5 116.83,-273.5"/>
<text text-anchor="middle" x="90.5" y="-273.8" font-family="Times New Roman,serif" font-size="14.00" fill="lightgray">wff ph</text>
</g>
<!-- n14867&#45;&gt;n14868 -->
<g id="edge67" class="edge"><title>n14867&#45;&gt;n14868</title>
<path fill="none" stroke="lightgray" d="M175.847,-280.779C199.329,-292.921 237.688,-312.755 264.356,-326.544"/>
<polygon fill="lightgray" stroke="lightgray" points="262.768,-329.663 273.258,-331.147 265.983,-323.445 262.768,-329.663"/>
<text text-anchor="middle" x="223.5" y="-320.8" font-family="Times New Roman,serif" font-size="14.00" fill="lightgray">wff &#45;. ph</text>
</g>
<!-- n14869 -->
<g id="node54" class="node"><title>n14869</title>
<ellipse fill="none" stroke="lightgray" cx="154" cy="-216" rx="27" ry="18"/>
<text text-anchor="middle" x="154" y="-212.3" font-family="Times New Roman,serif" font-size="14.00" fill="lightgray">wph</text>
</g>
<!-- n14869&#45;&gt;n14871 -->
<g id="edge70" class="edge"><title>n14869&#45;&gt;n14871</title>
<path fill="none" stroke="lightgray" d="M181.191,-216C202.191,-216 231.968,-216 255.691,-216"/>
<polygon fill="lightgray" stroke="lightgray" points="255.777,-219.5 265.777,-216 255.777,-212.5 255.777,-219.5"/>
<text text-anchor="middle" x="223.5" y="-219.8" font-family="Times New Roman,serif" font-size="14.00" fill="lightgray">wff ph</text>
</g>
<!-- n14870 -->
<g id="node56" class="node"><title>n14870</title>
<ellipse fill="none" stroke="lightgray" cx="154" cy="-144" rx="27" ry="18"/>
<text text-anchor="middle" x="154" y="-140.3" font-family="Times New Roman,serif" font-size="14.00" fill="lightgray">wps</text>
</g>
<!-- n14869&#45;&gt;n14870 -->
<g id="edge73" class="edge"><title>n14869&#45;&gt;n14870</title>
</g>
<!-- n14871&#45;&gt;n14875 -->
<g id="edge72" class="edge"><title>n14871&#45;&gt;n14875</title>
<path fill="none" stroke="black" d="M320.284,-225.581C374.501,-247.607 503.958,-302.665 534.495,-338 566.6,-375.149 579.627,-432.479 584.746,-466.614"/>
<polygon fill="black" stroke="black" points="581.32,-467.394 586.145,-476.827 588.256,-466.445 581.32,-467.394"/>
<text text-anchor="middle" x="438.495" y="-341.8" font-family="Times New Roman,serif" font-size="14.00">|&#45; ( ( ph \/ ps ) &lt;&#45;&gt; ( &#45;. ph &#45;&gt; ps ) )</text>
</g>
<!-- n14874 -->
<g id="node58" class="node"><title>n14874</title>
<ellipse fill="lawngreen" stroke="black" cx="295.247" cy="-117" rx="29.4969" ry="18"/>
<text text-anchor="middle" x="295.247" y="-113.3" font-family="Times New Roman,serif" font-size="14.00">df&#45;or</text>
</g>
<!-- n14871&#45;&gt;n14874 -->
<g id="edge83" class="edge"><title>n14871&#45;&gt;n14874</title>
</g>
<!-- n14870&#45;&gt;n14871 -->
<g id="edge71" class="edge"><title>n14870&#45;&gt;n14871</title>
<path fill="none" stroke="lightgray" d="M175.847,-154.779C199.058,-166.781 236.803,-186.298 263.427,-200.064"/>
<polygon fill="lightgray" stroke="lightgray" points="261.848,-203.187 272.338,-204.671 265.063,-196.969 261.848,-203.187"/>
<text text-anchor="middle" x="223.5" y="-194.8" font-family="Times New Roman,serif" font-size="14.00" fill="lightgray">wff ps</text>
</g>
<!-- n14872 -->
<g id="node57" class="node"><title>n14872</title>
<ellipse fill="none" stroke="lightgray" cx="154" cy="-90" rx="27" ry="18"/>
<text text-anchor="middle" x="154" y="-86.3" font-family="Times New Roman,serif" font-size="14.00" fill="lightgray">wph</text>
</g>
<!-- n14872&#45;&gt;n14874 -->
<g id="edge74" class="edge"><title>n14872&#45;&gt;n14874</title>
<path fill="none" stroke="lightgray" d="M180.217,-94.8895C201.613,-99.0382 232.611,-105.049 256.889,-109.756"/>
<polygon fill="lightgray" stroke="lightgray" points="256.352,-113.217 266.835,-111.685 257.684,-106.345 256.352,-113.217"/>
<text text-anchor="middle" x="223.5" y="-111.8" font-family="Times New Roman,serif" font-size="14.00" fill="lightgray">wff ph</text>
</g>
<!-- n14873 -->
<g id="node59" class="node"><title>n14873</title>
<ellipse fill="none" stroke="lightgray" cx="154" cy="-18" rx="27" ry="18"/>
<text text-anchor="middle" x="154" y="-14.3" font-family="Times New Roman,serif" font-size="14.00" fill="lightgray">wch</text>
</g>
<!-- n14872&#45;&gt;n14873 -->
<g id="edge77" class="edge"><title>n14872&#45;&gt;n14873</title>
</g>
<!-- n14874&#45;&gt;n14875 -->
<g id="edge76" class="edge"><title>n14874&#45;&gt;n14875</title>
<path fill="none" stroke="black" d="M324.089,-120.324C374.469,-127.899 480.53,-151.285 534.495,-218 565.294,-256.077 580.56,-403.715 585.765,-466.493"/>
<polygon fill="black" stroke="black" points="582.307,-467.153 586.595,-476.841 589.284,-466.593 582.307,-467.153"/>
<text text-anchor="middle" x="438.495" y="-221.8" font-family="Times New Roman,serif" font-size="14.00">|&#45; ( ( ph \/ ch ) &lt;&#45;&gt; ( &#45;. ph &#45;&gt; ch ) )</text>
</g>
<!-- n14873&#45;&gt;n14874 -->
<g id="edge75" class="edge"><title>n14873&#45;&gt;n14874</title>
<path fill="none" stroke="lightgray" d="M174.211,-30.1144C193.251,-42.2819 223.095,-61.7881 248,-80 254.886,-85.0357 262.167,-90.6937 268.863,-96.0417"/>
<polygon fill="lightgray" stroke="lightgray" points="266.979,-99.0193 276.958,-102.58 271.377,-93.5737 266.979,-99.0193"/>
<text text-anchor="middle" x="223.5" y="-83.8" font-family="Times New Roman,serif" font-size="14.00" fill="lightgray">wff ch</text>
</g>
</g>
</svg>
