<?xml version="1.0" encoding="UTF-8" standalone="no"?>
<!DOCTYPE svg PUBLIC "-//W3C//DTD SVG 1.1//EN"
 "http://www.w3.org/Graphics/SVG/1.1/DTD/svg11.dtd">
<!-- Generated by graphviz version 2.38.0 (20140413.2041)
 -->
<!-- Title: proof_orel1 Pages: 1 -->
<svg width="774pt" height="353pt"
 viewBox="0.00 0.00 773.68 353.00" xmlns="http://www.w3.org/2000/svg" xmlns:xlink="http://www.w3.org/1999/xlink">
<g id="graph0" class="graph" transform="scale(1 1) rotate(0) translate(4 349)">
<title>proof_orel1</title>
<polygon fill="white" stroke="none" points="-4,4 -4,-349 769.682,-349 769.682,4 -4,4"/>
<!-- n7261 -->
<g id="node1" class="node"><title>n7261</title>
<ellipse fill="none" stroke="lightgray" cx="27" cy="-327" rx="27" ry="18"/>
<text text-anchor="middle" x="27" y="-323.3" font-family="Times New Roman,serif" font-size="14.00" fill="lightgray">wph</text>
</g>
<!-- n7263 -->
<g id="node2" class="node"><title>n7263</title>
<ellipse fill="none" stroke="lightgray" cx="165.347" cy="-269" rx="27" ry="18"/>
<text text-anchor="middle" x="165.347" y="-265.3" font-family="Times New Roman,serif" font-size="14.00" fill="lightgray">wo</text>
</g>
<!-- n7261&#45;&gt;n7263 -->
<g id="edge1" class="edge"><title>n7261&#45;&gt;n7263</title>
<path fill="none" stroke="lightgray" d="M50.2099,-317.552C72.5932,-308.031 107.35,-293.246 132.631,-282.491"/>
<polygon fill="lightgray" stroke="lightgray" points="134.314,-285.579 142.146,-278.444 131.574,-279.138 134.314,-285.579"/>
<text text-anchor="middle" x="90.5" y="-311.8" font-family="Times New Roman,serif" font-size="14.00" fill="lightgray">wff ph</text>
</g>
<!-- n7262 -->
<g id="node3" class="node"><title>n7262</title>
<ellipse fill="none" stroke="lightgray" cx="27" cy="-255" rx="27" ry="18"/>
<text text-anchor="middle" x="27" y="-251.3" font-family="Times New Roman,serif" font-size="14.00" fill="lightgray">wps</text>
</g>
<!-- n7261&#45;&gt;n7262 -->
<g id="edge4" class="edge"><title>n7261&#45;&gt;n7262</title>
</g>
<!-- n7270 -->
<g id="node4" class="node"><title>n7270</title>
<ellipse fill="cyan" stroke="black" cx="455.44" cy="-160" rx="35.9954" ry="18"/>
<text text-anchor="middle" x="455.44" y="-156.3" font-family="Times New Roman,serif" font-size="14.00">com12</text>
</g>
<!-- n7263&#45;&gt;n7270 -->
<g id="edge3" class="edge"><title>n7263&#45;&gt;n7270</title>
<path fill="none" stroke="lightgray" d="M192.249,-266.62C237.292,-261.593 331.907,-247.044 401.693,-209 413.353,-202.644 424.421,-193.123 433.379,-184.159"/>
<polygon fill="lightgray" stroke="lightgray" points="435.993,-186.49 440.374,-176.843 430.934,-181.652 435.993,-186.49"/>
<text text-anchor="middle" x="311.693" y="-266.8" font-family="Times New Roman,serif" font-size="14.00" fill="lightgray">wff ( ph / ps )</text>
</g>
<!-- n7265 -->
<g id="node6" class="node"><title>n7265</title>
<ellipse fill="none" stroke="lightgray" cx="165.347" cy="-197" rx="27" ry="18"/>
<text text-anchor="middle" x="165.347" y="-193.3" font-family="Times New Roman,serif" font-size="14.00" fill="lightgray">wn</text>
</g>
<!-- n7263&#45;&gt;n7265 -->
<g id="edge13" class="edge"><title>n7263&#45;&gt;n7265</title>
</g>
<!-- n7262&#45;&gt;n7263 -->
<g id="edge2" class="edge"><title>n7262&#45;&gt;n7263</title>
<path fill="none" stroke="lightgray" d="M53.9667,-257.666C75.0057,-259.827 104.887,-262.895 128.254,-265.294"/>
<polygon fill="lightgray" stroke="lightgray" points="128.171,-268.804 138.477,-266.344 128.886,-261.84 128.171,-268.804"/>
<text text-anchor="middle" x="90.5" y="-267.8" font-family="Times New Roman,serif" font-size="14.00" fill="lightgray">wff ps</text>
</g>
<!-- QED -->
<g id="node11" class="node"><title>QED</title>
</g>
<!-- n7270&#45;&gt;QED -->
<g id="edge12" class="edge"><title>n7270&#45;&gt;QED</title>
<path fill="none" stroke="black" d="M491.211,-160C543.523,-160 642.14,-160 696.692,-160"/>
<polygon fill="black" stroke="black" points="696.988,-163.5 706.987,-160 696.987,-156.5 696.988,-163.5"/>
<text text-anchor="middle" x="599.187" y="-163.8" font-family="Times New Roman,serif" font-size="14.00">|&#45; ( &#45;. ph &#45;&gt; ( ( ph / ps ) &#45;&gt; ps ) )</text>
</g>
<!-- n7264 -->
<g id="node5" class="node"><title>n7264</title>
<ellipse fill="none" stroke="lightgray" cx="27" cy="-197" rx="27" ry="18"/>
<text text-anchor="middle" x="27" y="-193.3" font-family="Times New Roman,serif" font-size="14.00" fill="lightgray">wph</text>
</g>
<!-- n7264&#45;&gt;n7265 -->
<g id="edge5" class="edge"><title>n7264&#45;&gt;n7265</title>
<path fill="none" stroke="lightgray" d="M54.289,-197C75.2263,-197 104.769,-197 127.975,-197"/>
<polygon fill="lightgray" stroke="lightgray" points="128.138,-200.5 138.138,-197 128.138,-193.5 128.138,-200.5"/>
<text text-anchor="middle" x="90.5" y="-200.8" font-family="Times New Roman,serif" font-size="14.00" fill="lightgray">wff ph</text>
</g>
<!-- n7265&#45;&gt;n7270 -->
<g id="edge6" class="edge"><title>n7265&#45;&gt;n7270</title>
<path fill="none" stroke="lightgray" d="M191.913,-193.716C241.12,-187.397 349.513,-173.476 410.512,-165.642"/>
<polygon fill="lightgray" stroke="lightgray" points="411.13,-169.091 420.603,-164.346 410.238,-162.148 411.13,-169.091"/>
<text text-anchor="middle" x="311.693" y="-193.8" font-family="Times New Roman,serif" font-size="14.00" fill="lightgray">wff &#45;. ph</text>
</g>
<!-- n7266 -->
<g id="node7" class="node"><title>n7266</title>
<ellipse fill="none" stroke="lightgray" cx="165.347" cy="-125" rx="27" ry="18"/>
<text text-anchor="middle" x="165.347" y="-121.3" font-family="Times New Roman,serif" font-size="14.00" fill="lightgray">wps</text>
</g>
<!-- n7265&#45;&gt;n7266 -->
<g id="edge14" class="edge"><title>n7265&#45;&gt;n7266</title>
</g>
<!-- n7266&#45;&gt;n7270 -->
<g id="edge7" class="edge"><title>n7266&#45;&gt;n7270</title>
<path fill="none" stroke="lightgray" d="M192.179,-127.351C235.564,-131.412 325.773,-140.339 401.693,-151 404.913,-151.452 408.238,-151.949 411.58,-152.47"/>
<polygon fill="lightgray" stroke="lightgray" points="411.136,-155.943 421.566,-154.083 412.252,-149.033 411.136,-155.943"/>
<text text-anchor="middle" x="311.693" y="-154.8" font-family="Times New Roman,serif" font-size="14.00" fill="lightgray">wff ps</text>
</g>
<!-- n7269 -->
<g id="node9" class="node"><title>n7269</title>
<ellipse fill="cyan" stroke="black" cx="165.347" cy="-53" rx="38.1938" ry="18"/>
<text text-anchor="middle" x="165.347" y="-49.3" font-family="Times New Roman,serif" font-size="14.00">pm2.53</text>
</g>
<!-- n7266&#45;&gt;n7269 -->
<g id="edge15" class="edge"><title>n7266&#45;&gt;n7269</title>
</g>
<!-- n7267 -->
<g id="node8" class="node"><title>n7267</title>
<ellipse fill="none" stroke="lightgray" cx="27" cy="-90" rx="27" ry="18"/>
<text text-anchor="middle" x="27" y="-86.3" font-family="Times New Roman,serif" font-size="14.00" fill="lightgray">wph</text>
</g>
<!-- n7267&#45;&gt;n7269 -->
<g id="edge8" class="edge"><title>n7267&#45;&gt;n7269</title>
<path fill="none" stroke="lightgray" d="M52.376,-83.3851C71.6593,-78.1523 99.0498,-70.7194 121.913,-64.5151"/>
<polygon fill="lightgray" stroke="lightgray" points="122.99,-67.8494 131.725,-61.8525 121.157,-61.0937 122.99,-67.8494"/>
<text text-anchor="middle" x="90.5" y="-82.8" font-family="Times New Roman,serif" font-size="14.00" fill="lightgray">wff ph</text>
</g>
<!-- n7268 -->
<g id="node10" class="node"><title>n7268</title>
<ellipse fill="none" stroke="lightgray" cx="27" cy="-18" rx="27" ry="18"/>
<text text-anchor="middle" x="27" y="-14.3" font-family="Times New Roman,serif" font-size="14.00" fill="lightgray">wps</text>
</g>
<!-- n7267&#45;&gt;n7268 -->
<g id="edge11" class="edge"><title>n7267&#45;&gt;n7268</title>
</g>
<!-- n7269&#45;&gt;n7270 -->
<g id="edge10" class="edge"><title>n7269&#45;&gt;n7270</title>
<path fill="none" stroke="black" d="M203.019,-56.5747C251.092,-62.4789 336.906,-77.2787 401.693,-112 413.288,-118.214 424.345,-127.538 433.312,-136.321"/>
<polygon fill="black" stroke="black" points="430.827,-138.785 440.319,-143.49 435.833,-133.892 430.827,-138.785"/>
<text text-anchor="middle" x="311.693" y="-115.8" font-family="Times New Roman,serif" font-size="14.00">|&#45; ( ( ph / ps ) &#45;&gt; ( &#45;. ph &#45;&gt; ps ) )</text>
</g>
<!-- n7268&#45;&gt;n7269 -->
<g id="edge9" class="edge"><title>n7268&#45;&gt;n7269</title>
<path fill="none" stroke="lightgray" d="M52.376,-24.2573C71.5925,-29.1901 98.8603,-36.1897 121.676,-42.0464"/>
<polygon fill="lightgray" stroke="lightgray" points="120.915,-45.4646 131.471,-44.5609 122.656,-38.6844 120.915,-45.4646"/>
<text text-anchor="middle" x="90.5" y="-42.8" font-family="Times New Roman,serif" font-size="14.00" fill="lightgray">wff ps</text>
</g>
</g>
</svg>
