<?xml version="1.0" encoding="UTF-8" standalone="no"?>
<!DOCTYPE svg PUBLIC "-//W3C//DTD SVG 1.1//EN"
 "http://www.w3.org/Graphics/SVG/1.1/DTD/svg11.dtd">
<!-- Generated by graphviz version 2.38.0 (20140413.2041)
 -->
<!-- Title: proof_orordi Pages: 1 -->
<svg width="1285pt" height="1155pt"
 viewBox="0.00 0.00 1284.68 1155.00" xmlns="http://www.w3.org/2000/svg" xmlns:xlink="http://www.w3.org/1999/xlink">
<g id="graph0" class="graph" transform="scale(1 1) rotate(0) translate(4 1151)">
<title>proof_orordi</title>
<polygon fill="white" stroke="none" points="-4,4 -4,-1151 1280.68,-1151 1280.68,4 -4,4"/>
<!-- n9183 -->
<g id="node1" class="node"><title>n9183</title>
<ellipse fill="none" stroke="lightgray" cx="159.497" cy="-1083" rx="27" ry="18"/>
<text text-anchor="middle" x="159.497" y="-1079.3" font-family="Times New Roman,serif" font-size="14.00" fill="lightgray">wph</text>
</g>
<!-- n9187 -->
<g id="node2" class="node"><title>n9187</title>
<ellipse fill="none" stroke="lightgray" cx="389.841" cy="-956" rx="27" ry="18"/>
<text text-anchor="middle" x="389.841" y="-952.3" font-family="Times New Roman,serif" font-size="14.00" fill="lightgray">wo</text>
</g>
<!-- n9183&#45;&gt;n9187 -->
<g id="edge1" class="edge"><title>n9183&#45;&gt;n9187</title>
<path fill="none" stroke="lightgray" d="M185.739,-1078.24C222.455,-1070.36 291.491,-1051.92 339.994,-1017 353.285,-1007.43 364.901,-993.326 373.468,-981.088"/>
<polygon fill="lightgray" stroke="lightgray" points="376.496,-982.856 379.147,-972.598 370.678,-978.964 376.496,-982.856"/>
<text text-anchor="middle" x="274.994" y="-1075.8" font-family="Times New Roman,serif" font-size="14.00" fill="lightgray">wff ph</text>
</g>
<!-- n9186 -->
<g id="node4" class="node"><title>n9186</title>
<ellipse fill="none" stroke="lightgray" cx="159.497" cy="-1011" rx="27" ry="18"/>
<text text-anchor="middle" x="159.497" y="-1007.3" font-family="Times New Roman,serif" font-size="14.00" fill="lightgray">wo</text>
</g>
<!-- n9183&#45;&gt;n9186 -->
<g id="edge7" class="edge"><title>n9183&#45;&gt;n9186</title>
</g>
<!-- n9217 -->
<g id="node6" class="node"><title>n9217</title>
<ellipse fill="cyan" stroke="black" cx="842.936" cy="-649" rx="29.4969" ry="18"/>
<text text-anchor="middle" x="842.936" y="-645.3" font-family="Times New Roman,serif" font-size="14.00">bitr3i</text>
</g>
<!-- n9187&#45;&gt;n9217 -->
<g id="edge6" class="edge"><title>n9187&#45;&gt;n9217</title>
<path fill="none" stroke="lightgray" d="M416.843,-957.8C488.47,-961.229 690.305,-960.317 795.689,-852 819.7,-827.32 833.587,-726.94 839.12,-677.205"/>
<polygon fill="lightgray" stroke="lightgray" points="842.614,-677.442 840.203,-667.125 835.654,-676.693 842.614,-677.442"/>
<text text-anchor="middle" x="617.689" y="-962.8" font-family="Times New Roman,serif" font-size="14.00" fill="lightgray">wff ( ph \/ ( ps \/ ch ) )</text>
</g>
<!-- n9194 -->
<g id="node10" class="node"><title>n9194</title>
<ellipse fill="none" stroke="lightgray" cx="389.841" cy="-859" rx="27" ry="18"/>
<text text-anchor="middle" x="389.841" y="-855.3" font-family="Times New Roman,serif" font-size="14.00" fill="lightgray">wo</text>
</g>
<!-- n9187&#45;&gt;n9194 -->
<g id="edge52" class="edge"><title>n9187&#45;&gt;n9194</title>
</g>
<!-- n9184 -->
<g id="node3" class="node"><title>n9184</title>
<ellipse fill="none" stroke="lightgray" cx="27" cy="-1129" rx="27" ry="18"/>
<text text-anchor="middle" x="27" y="-1125.3" font-family="Times New Roman,serif" font-size="14.00" fill="lightgray">wps</text>
</g>
<!-- n9184&#45;&gt;n9186 -->
<g id="edge2" class="edge"><title>n9184&#45;&gt;n9186</title>
<path fill="none" stroke="lightgray" d="M44.7578,-1115.35C61.3609,-1101.67 87.3683,-1079.87 109,-1060 118.367,-1051.4 128.393,-1041.59 136.955,-1033.02"/>
<polygon fill="lightgray" stroke="lightgray" points="139.49,-1035.44 144.049,-1025.87 134.521,-1030.51 139.49,-1035.44"/>
<text text-anchor="middle" x="90.5" y="-1093.8" font-family="Times New Roman,serif" font-size="14.00" fill="lightgray">wff ps</text>
</g>
<!-- n9185 -->
<g id="node5" class="node"><title>n9185</title>
<ellipse fill="none" stroke="lightgray" cx="27" cy="-1057" rx="27" ry="18"/>
<text text-anchor="middle" x="27" y="-1053.3" font-family="Times New Roman,serif" font-size="14.00" fill="lightgray">wch</text>
</g>
<!-- n9184&#45;&gt;n9185 -->
<g id="edge5" class="edge"><title>n9184&#45;&gt;n9185</title>
</g>
<!-- n9186&#45;&gt;n9187 -->
<g id="edge4" class="edge"><title>n9186&#45;&gt;n9187</title>
<path fill="none" stroke="lightgray" d="M185.369,-1005.01C226.204,-995.173 307.561,-975.578 354.077,-964.374"/>
<polygon fill="lightgray" stroke="lightgray" points="355.098,-967.728 364.001,-961.983 353.459,-960.922 355.098,-967.728"/>
<text text-anchor="middle" x="274.994" y="-1001.8" font-family="Times New Roman,serif" font-size="14.00" fill="lightgray">wff ( ps \/ ch )</text>
</g>
<!-- n9185&#45;&gt;n9186 -->
<g id="edge3" class="edge"><title>n9185&#45;&gt;n9186</title>
<path fill="none" stroke="lightgray" d="M51.3303,-1048.78C72.1141,-1041.45 102.738,-1030.65 125.933,-1022.48"/>
<polygon fill="lightgray" stroke="lightgray" points="127.101,-1025.78 135.369,-1019.15 124.774,-1019.18 127.101,-1025.78"/>
<text text-anchor="middle" x="90.5" y="-1044.8" font-family="Times New Roman,serif" font-size="14.00" fill="lightgray">wff ch</text>
</g>
<!-- QED -->
<g id="node36" class="node"><title>QED</title>
</g>
<!-- n9217&#45;&gt;QED -->
<g id="edge51" class="edge"><title>n9217&#45;&gt;QED</title>
<path fill="none" stroke="black" d="M872.239,-649C942.965,-649 1127.49,-649 1207.97,-649"/>
<polygon fill="black" stroke="black" points="1208.16,-652.5 1218.16,-649 1208.16,-645.5 1208.16,-652.5"/>
<text text-anchor="middle" x="1045.18" y="-652.8" font-family="Times New Roman,serif" font-size="14.00">|&#45; ( ( ph \/ ( ps \/ ch ) ) &lt;&#45;&gt; ( ( ph \/ ps ) \/ ( ph \/ ch ) ) )</text>
</g>
<!-- n9188 -->
<g id="node7" class="node"><title>n9188</title>
<ellipse fill="none" stroke="lightgray" cx="27" cy="-1003" rx="27" ry="18"/>
<text text-anchor="middle" x="27" y="-999.3" font-family="Times New Roman,serif" font-size="14.00" fill="lightgray">wph</text>
</g>
<!-- n9190 -->
<g id="node8" class="node"><title>n9190</title>
<ellipse fill="none" stroke="lightgray" cx="159.497" cy="-931" rx="27" ry="18"/>
<text text-anchor="middle" x="159.497" y="-927.3" font-family="Times New Roman,serif" font-size="14.00" fill="lightgray">wo</text>
</g>
<!-- n9188&#45;&gt;n9190 -->
<g id="edge8" class="edge"><title>n9188&#45;&gt;n9190</title>
<path fill="none" stroke="lightgray" d="M48.3902,-991.75C70.129,-979.756 104.744,-960.658 129.355,-947.079"/>
<polygon fill="lightgray" stroke="lightgray" points="131.185,-950.066 138.25,-942.171 127.804,-943.937 131.185,-950.066"/>
<text text-anchor="middle" x="90.5" y="-981.8" font-family="Times New Roman,serif" font-size="14.00" fill="lightgray">wff ph</text>
</g>
<!-- n9189 -->
<g id="node9" class="node"><title>n9189</title>
<ellipse fill="none" stroke="lightgray" cx="27" cy="-931" rx="27" ry="18"/>
<text text-anchor="middle" x="27" y="-927.3" font-family="Times New Roman,serif" font-size="14.00" fill="lightgray">wph</text>
</g>
<!-- n9188&#45;&gt;n9189 -->
<g id="edge11" class="edge"><title>n9188&#45;&gt;n9189</title>
</g>
<!-- n9190&#45;&gt;n9194 -->
<g id="edge10" class="edge"><title>n9190&#45;&gt;n9194</title>
<path fill="none" stroke="lightgray" d="M184.797,-924.522C219.493,-915.115 285.106,-896.741 339.994,-878 345.376,-876.162 351.042,-874.089 356.532,-872.006"/>
<polygon fill="lightgray" stroke="lightgray" points="358.063,-875.166 366.125,-868.292 355.535,-868.638 358.063,-875.166"/>
<text text-anchor="middle" x="274.994" y="-920.8" font-family="Times New Roman,serif" font-size="14.00" fill="lightgray">wff ( ph \/ ph )</text>
</g>
<!-- n9193 -->
<g id="node12" class="node"><title>n9193</title>
<ellipse fill="none" stroke="lightgray" cx="159.497" cy="-859" rx="27" ry="18"/>
<text text-anchor="middle" x="159.497" y="-855.3" font-family="Times New Roman,serif" font-size="14.00" fill="lightgray">wo</text>
</g>
<!-- n9190&#45;&gt;n9193 -->
<g id="edge17" class="edge"><title>n9190&#45;&gt;n9193</title>
</g>
<!-- n9189&#45;&gt;n9190 -->
<g id="edge9" class="edge"><title>n9189&#45;&gt;n9190</title>
<path fill="none" stroke="lightgray" d="M54.0944,-931C73.6539,-931 100.663,-931 122.309,-931"/>
<polygon fill="lightgray" stroke="lightgray" points="122.448,-934.5 132.448,-931 122.448,-927.5 122.448,-934.5"/>
<text text-anchor="middle" x="90.5" y="-934.8" font-family="Times New Roman,serif" font-size="14.00" fill="lightgray">wff ph</text>
</g>
<!-- n9194&#45;&gt;n9217 -->
<g id="edge16" class="edge"><title>n9194&#45;&gt;n9217</title>
<path fill="none" stroke="lightgray" d="M412.599,-848.871C485.795,-814.796 723.379,-704.192 809.979,-663.877"/>
<polygon fill="lightgray" stroke="lightgray" points="811.477,-667.041 819.065,-659.647 808.522,-660.695 811.477,-667.041"/>
<text text-anchor="middle" x="617.689" y="-836.8" font-family="Times New Roman,serif" font-size="14.00" fill="lightgray">wff ( ( ph \/ ph ) \/ ( ps \/ ch ) )</text>
</g>
<!-- n9201 -->
<g id="node17" class="node"><title>n9201</title>
<ellipse fill="none" stroke="lightgray" cx="389.841" cy="-649" rx="27" ry="18"/>
<text text-anchor="middle" x="389.841" y="-645.3" font-family="Times New Roman,serif" font-size="14.00" fill="lightgray">wo</text>
</g>
<!-- n9194&#45;&gt;n9201 -->
<g id="edge53" class="edge"><title>n9194&#45;&gt;n9201</title>
</g>
<!-- n9191 -->
<g id="node11" class="node"><title>n9191</title>
<ellipse fill="none" stroke="lightgray" cx="27" cy="-877" rx="27" ry="18"/>
<text text-anchor="middle" x="27" y="-873.3" font-family="Times New Roman,serif" font-size="14.00" fill="lightgray">wch</text>
</g>
<!-- n9191&#45;&gt;n9193 -->
<g id="edge12" class="edge"><title>n9191&#45;&gt;n9193</title>
<path fill="none" stroke="lightgray" d="M53.782,-873.444C73.4428,-870.732 100.761,-866.964 122.565,-863.956"/>
<polygon fill="lightgray" stroke="lightgray" points="123.341,-867.382 132.769,-862.549 122.384,-860.448 123.341,-867.382"/>
<text text-anchor="middle" x="90.5" y="-874.8" font-family="Times New Roman,serif" font-size="14.00" fill="lightgray">wff ch</text>
</g>
<!-- n9192 -->
<g id="node13" class="node"><title>n9192</title>
<ellipse fill="none" stroke="lightgray" cx="27" cy="-805" rx="27" ry="18"/>
<text text-anchor="middle" x="27" y="-801.3" font-family="Times New Roman,serif" font-size="14.00" fill="lightgray">wps</text>
</g>
<!-- n9191&#45;&gt;n9192 -->
<g id="edge15" class="edge"><title>n9191&#45;&gt;n9192</title>
</g>
<!-- n9193&#45;&gt;n9194 -->
<g id="edge14" class="edge"><title>n9193&#45;&gt;n9194</title>
<path fill="none" stroke="lightgray" d="M186.691,-859C227.446,-859 306.151,-859 352.415,-859"/>
<polygon fill="lightgray" stroke="lightgray" points="352.602,-862.5 362.602,-859 352.602,-855.5 352.602,-862.5"/>
<text text-anchor="middle" x="274.994" y="-862.8" font-family="Times New Roman,serif" font-size="14.00" fill="lightgray">wff ( ps \/ ch )</text>
</g>
<!-- n9192&#45;&gt;n9193 -->
<g id="edge13" class="edge"><title>n9192&#45;&gt;n9193</title>
<path fill="none" stroke="lightgray" d="M50.4333,-814.283C71.4412,-822.976 103.051,-836.056 126.664,-845.827"/>
<polygon fill="lightgray" stroke="lightgray" points="125.341,-849.068 135.92,-849.657 128.018,-842.6 125.341,-849.068"/>
<text text-anchor="middle" x="90.5" y="-842.8" font-family="Times New Roman,serif" font-size="14.00" fill="lightgray">wff ps</text>
</g>
<!-- n9195 -->
<g id="node14" class="node"><title>n9195</title>
<ellipse fill="none" stroke="lightgray" cx="27" cy="-751" rx="27" ry="18"/>
<text text-anchor="middle" x="27" y="-747.3" font-family="Times New Roman,serif" font-size="14.00" fill="lightgray">wph</text>
</g>
<!-- n9197 -->
<g id="node15" class="node"><title>n9197</title>
<ellipse fill="none" stroke="lightgray" cx="159.497" cy="-690" rx="27" ry="18"/>
<text text-anchor="middle" x="159.497" y="-686.3" font-family="Times New Roman,serif" font-size="14.00" fill="lightgray">wo</text>
</g>
<!-- n9195&#45;&gt;n9197 -->
<g id="edge18" class="edge"><title>n9195&#45;&gt;n9197</title>
<path fill="none" stroke="lightgray" d="M49.5489,-740.927C70.8945,-730.949 103.788,-715.573 127.849,-704.326"/>
<polygon fill="lightgray" stroke="lightgray" points="129.339,-707.493 136.916,-700.088 126.375,-701.152 129.339,-707.493"/>
<text text-anchor="middle" x="90.5" y="-733.8" font-family="Times New Roman,serif" font-size="14.00" fill="lightgray">wff ph</text>
</g>
<!-- n9196 -->
<g id="node16" class="node"><title>n9196</title>
<ellipse fill="none" stroke="lightgray" cx="27" cy="-679" rx="27" ry="18"/>
<text text-anchor="middle" x="27" y="-675.3" font-family="Times New Roman,serif" font-size="14.00" fill="lightgray">wps</text>
</g>
<!-- n9195&#45;&gt;n9196 -->
<g id="edge21" class="edge"><title>n9195&#45;&gt;n9196</title>
</g>
<!-- n9197&#45;&gt;n9201 -->
<g id="edge20" class="edge"><title>n9197&#45;&gt;n9201</title>
<path fill="none" stroke="lightgray" d="M185.806,-685.456C226.613,-678.129 307.053,-663.685 353.496,-655.346"/>
<polygon fill="lightgray" stroke="lightgray" points="354.195,-658.777 363.419,-653.565 352.958,-651.887 354.195,-658.777"/>
<text text-anchor="middle" x="274.994" y="-684.8" font-family="Times New Roman,serif" font-size="14.00" fill="lightgray">wff ( ph \/ ps )</text>
</g>
<!-- n9200 -->
<g id="node19" class="node"><title>n9200</title>
<ellipse fill="none" stroke="lightgray" cx="159.497" cy="-618" rx="27" ry="18"/>
<text text-anchor="middle" x="159.497" y="-614.3" font-family="Times New Roman,serif" font-size="14.00" fill="lightgray">wo</text>
</g>
<!-- n9197&#45;&gt;n9200 -->
<g id="edge27" class="edge"><title>n9197&#45;&gt;n9200</title>
</g>
<!-- n9196&#45;&gt;n9197 -->
<g id="edge19" class="edge"><title>n9196&#45;&gt;n9197</title>
<path fill="none" stroke="lightgray" d="M54.0944,-681.2C73.6539,-682.848 100.663,-685.125 122.309,-686.95"/>
<polygon fill="lightgray" stroke="lightgray" points="122.189,-690.452 132.448,-687.804 122.777,-683.477 122.189,-690.452"/>
<text text-anchor="middle" x="90.5" y="-689.8" font-family="Times New Roman,serif" font-size="14.00" fill="lightgray">wff ps</text>
</g>
<!-- n9201&#45;&gt;n9217 -->
<g id="edge26" class="edge"><title>n9201&#45;&gt;n9217</title>
<path fill="none" stroke="lightgray" d="M417.044,-649C493.025,-649 713.72,-649 803.385,-649"/>
<polygon fill="lightgray" stroke="lightgray" points="803.652,-652.5 813.652,-649 803.652,-645.5 803.652,-652.5"/>
<text text-anchor="middle" x="617.689" y="-652.8" font-family="Times New Roman,serif" font-size="14.00" fill="lightgray">wff ( ( ph \/ ps ) \/ ( ph \/ ch ) )</text>
</g>
<!-- n9211 -->
<g id="node24" class="node"><title>n9211</title>
<ellipse fill="cyan" stroke="black" cx="389.841" cy="-432" rx="31.6951" ry="18"/>
<text text-anchor="middle" x="389.841" y="-428.3" font-family="Times New Roman,serif" font-size="14.00">orbi1i</text>
</g>
<!-- n9201&#45;&gt;n9211 -->
<g id="edge54" class="edge"><title>n9201&#45;&gt;n9211</title>
</g>
<!-- n9198 -->
<g id="node18" class="node"><title>n9198</title>
<ellipse fill="none" stroke="lightgray" cx="27" cy="-625" rx="27" ry="18"/>
<text text-anchor="middle" x="27" y="-621.3" font-family="Times New Roman,serif" font-size="14.00" fill="lightgray">wph</text>
</g>
<!-- n9198&#45;&gt;n9200 -->
<g id="edge22" class="edge"><title>n9198&#45;&gt;n9200</title>
<path fill="none" stroke="lightgray" d="M54.0944,-623.6C73.6539,-622.551 100.663,-621.102 122.309,-619.941"/>
<polygon fill="lightgray" stroke="lightgray" points="122.65,-623.428 132.448,-619.397 122.275,-616.438 122.65,-623.428"/>
<text text-anchor="middle" x="90.5" y="-626.8" font-family="Times New Roman,serif" font-size="14.00" fill="lightgray">wff ph</text>
</g>
<!-- n9199 -->
<g id="node20" class="node"><title>n9199</title>
<ellipse fill="none" stroke="lightgray" cx="27" cy="-553" rx="27" ry="18"/>
<text text-anchor="middle" x="27" y="-549.3" font-family="Times New Roman,serif" font-size="14.00" fill="lightgray">wch</text>
</g>
<!-- n9198&#45;&gt;n9199 -->
<g id="edge25" class="edge"><title>n9198&#45;&gt;n9199</title>
</g>
<!-- n9200&#45;&gt;n9201 -->
<g id="edge24" class="edge"><title>n9200&#45;&gt;n9201</title>
<path fill="none" stroke="lightgray" d="M186.54,-619.301C221.626,-621.351 285.918,-626.158 339.994,-636 344.813,-636.877 349.852,-637.989 354.787,-639.193"/>
<polygon fill="lightgray" stroke="lightgray" points="354.108,-642.632 364.665,-641.746 355.859,-635.855 354.108,-642.632"/>
<text text-anchor="middle" x="274.994" y="-639.8" font-family="Times New Roman,serif" font-size="14.00" fill="lightgray">wff ( ph \/ ch )</text>
</g>
<!-- n9199&#45;&gt;n9200 -->
<g id="edge23" class="edge"><title>n9199&#45;&gt;n9200</title>
<path fill="none" stroke="lightgray" d="M49.2571,-563.588C70.68,-574.259 103.946,-590.828 128.142,-602.88"/>
<polygon fill="lightgray" stroke="lightgray" points="126.738,-606.091 137.249,-607.416 129.859,-599.825 126.738,-606.091"/>
<text text-anchor="middle" x="90.5" y="-597.8" font-family="Times New Roman,serif" font-size="14.00" fill="lightgray">wff ch</text>
</g>
<!-- n9202 -->
<g id="node21" class="node"><title>n9202</title>
<ellipse fill="none" stroke="lightgray" cx="27" cy="-499" rx="27" ry="18"/>
<text text-anchor="middle" x="27" y="-495.3" font-family="Times New Roman,serif" font-size="14.00" fill="lightgray">wph</text>
</g>
<!-- n9204 -->
<g id="node22" class="node"><title>n9204</title>
<ellipse fill="none" stroke="lightgray" cx="159.497" cy="-504" rx="27" ry="18"/>
<text text-anchor="middle" x="159.497" y="-500.3" font-family="Times New Roman,serif" font-size="14.00" fill="lightgray">wo</text>
</g>
<!-- n9202&#45;&gt;n9204 -->
<g id="edge28" class="edge"><title>n9202&#45;&gt;n9204</title>
<path fill="none" stroke="lightgray" d="M54.0944,-500C73.6539,-500.749 100.663,-501.784 122.309,-502.613"/>
<polygon fill="lightgray" stroke="lightgray" points="122.321,-506.116 132.448,-503.002 122.589,-499.122 122.321,-506.116"/>
<text text-anchor="middle" x="90.5" y="-506.8" font-family="Times New Roman,serif" font-size="14.00" fill="lightgray">wff ph</text>
</g>
<!-- n9203 -->
<g id="node23" class="node"><title>n9203</title>
<ellipse fill="none" stroke="lightgray" cx="27" cy="-427" rx="27" ry="18"/>
<text text-anchor="middle" x="27" y="-423.3" font-family="Times New Roman,serif" font-size="14.00" fill="lightgray">wph</text>
</g>
<!-- n9202&#45;&gt;n9203 -->
<g id="edge31" class="edge"><title>n9202&#45;&gt;n9203</title>
</g>
<!-- n9204&#45;&gt;n9211 -->
<g id="edge30" class="edge"><title>n9204&#45;&gt;n9211</title>
<path fill="none" stroke="lightgray" d="M184.797,-497.522C219.493,-488.115 285.106,-469.741 339.994,-451 344.596,-449.429 349.405,-447.686 354.134,-445.911"/>
<polygon fill="lightgray" stroke="lightgray" points="355.552,-449.115 363.637,-442.268 353.047,-442.579 355.552,-449.115"/>
<text text-anchor="middle" x="274.994" y="-493.8" font-family="Times New Roman,serif" font-size="14.00" fill="lightgray">wff ( ph \/ ph )</text>
</g>
<!-- n9205 -->
<g id="node25" class="node"><title>n9205</title>
<ellipse fill="none" stroke="lightgray" cx="159.497" cy="-432" rx="27" ry="18"/>
<text text-anchor="middle" x="159.497" y="-428.3" font-family="Times New Roman,serif" font-size="14.00" fill="lightgray">wph</text>
</g>
<!-- n9204&#45;&gt;n9205 -->
<g id="edge40" class="edge"><title>n9204&#45;&gt;n9205</title>
</g>
<!-- n9203&#45;&gt;n9204 -->
<g id="edge29" class="edge"><title>n9203&#45;&gt;n9204</title>
<path fill="none" stroke="lightgray" d="M47.8197,-438.695C69.6646,-451.584 104.996,-472.432 129.852,-487.098"/>
<polygon fill="lightgray" stroke="lightgray" points="128.1,-490.128 138.491,-492.195 131.657,-484.099 128.1,-490.128"/>
<text text-anchor="middle" x="90.5" y="-478.8" font-family="Times New Roman,serif" font-size="14.00" fill="lightgray">wff ph</text>
</g>
<!-- n9211&#45;&gt;n9217 -->
<g id="edge39" class="edge"><title>n9211&#45;&gt;n9217</title>
<path fill="none" stroke="black" d="M414.776,-443.514C490.454,-479.919 724.605,-592.558 810.191,-633.729"/>
<polygon fill="black" stroke="black" points="808.878,-636.981 819.407,-638.162 811.912,-630.673 808.878,-636.981"/>
<text text-anchor="middle" x="617.689" y="-630.8" font-family="Times New Roman,serif" font-size="14.00">|&#45; ( ( ( ph \/ ph ) \/ ( ps \/ ch ) ) &lt;&#45;&gt; ( ph \/ ( ps \/ ch ) ) )</text>
</g>
<!-- n9216 -->
<g id="node32" class="node"><title>n9216</title>
<ellipse fill="cyan" stroke="black" cx="389.841" cy="-203" rx="27" ry="18"/>
<text text-anchor="middle" x="389.841" y="-199.3" font-family="Times New Roman,serif" font-size="14.00">or4</text>
</g>
<!-- n9211&#45;&gt;n9216 -->
<g id="edge55" class="edge"><title>n9211&#45;&gt;n9216</title>
</g>
<!-- n9205&#45;&gt;n9211 -->
<g id="edge32" class="edge"><title>n9205&#45;&gt;n9211</title>
<path fill="none" stroke="lightgray" d="M186.691,-432C226.116,-432 301.054,-432 347.784,-432"/>
<polygon fill="lightgray" stroke="lightgray" points="347.875,-435.5 357.875,-432 347.875,-428.5 347.875,-435.5"/>
<text text-anchor="middle" x="274.994" y="-435.8" font-family="Times New Roman,serif" font-size="14.00" fill="lightgray">wff ph</text>
</g>
<!-- n9208 -->
<g id="node27" class="node"><title>n9208</title>
<ellipse fill="none" stroke="lightgray" cx="159.497" cy="-360" rx="27" ry="18"/>
<text text-anchor="middle" x="159.497" y="-356.3" font-family="Times New Roman,serif" font-size="14.00" fill="lightgray">wo</text>
</g>
<!-- n9205&#45;&gt;n9208 -->
<g id="edge41" class="edge"><title>n9205&#45;&gt;n9208</title>
</g>
<!-- n9206 -->
<g id="node26" class="node"><title>n9206</title>
<ellipse fill="none" stroke="lightgray" cx="27" cy="-373" rx="27" ry="18"/>
<text text-anchor="middle" x="27" y="-369.3" font-family="Times New Roman,serif" font-size="14.00" fill="lightgray">wch</text>
</g>
<!-- n9206&#45;&gt;n9208 -->
<g id="edge33" class="edge"><title>n9206&#45;&gt;n9208</title>
<path fill="none" stroke="lightgray" d="M53.782,-370.432C73.4428,-368.473 100.761,-365.752 122.565,-363.579"/>
<polygon fill="lightgray" stroke="lightgray" points="123.165,-367.037 132.769,-362.563 122.471,-360.072 123.165,-367.037"/>
<text text-anchor="middle" x="90.5" y="-372.8" font-family="Times New Roman,serif" font-size="14.00" fill="lightgray">wff ch</text>
</g>
<!-- n9207 -->
<g id="node28" class="node"><title>n9207</title>
<ellipse fill="none" stroke="lightgray" cx="27" cy="-301" rx="27" ry="18"/>
<text text-anchor="middle" x="27" y="-297.3" font-family="Times New Roman,serif" font-size="14.00" fill="lightgray">wps</text>
</g>
<!-- n9206&#45;&gt;n9207 -->
<g id="edge36" class="edge"><title>n9206&#45;&gt;n9207</title>
</g>
<!-- n9208&#45;&gt;n9211 -->
<g id="edge35" class="edge"><title>n9208&#45;&gt;n9211</title>
<path fill="none" stroke="lightgray" d="M184.797,-366.478C219.493,-375.885 285.106,-394.259 339.994,-413 344.596,-414.571 349.405,-416.314 354.134,-418.089"/>
<polygon fill="lightgray" stroke="lightgray" points="353.047,-421.421 363.637,-421.732 355.552,-414.885 353.047,-421.421"/>
<text text-anchor="middle" x="274.994" y="-416.8" font-family="Times New Roman,serif" font-size="14.00" fill="lightgray">wff ( ps \/ ch )</text>
</g>
<!-- n9210 -->
<g id="node30" class="node"><title>n9210</title>
<ellipse fill="cyan" stroke="black" cx="159.497" cy="-288" rx="32.4942" ry="18"/>
<text text-anchor="middle" x="159.497" y="-284.3" font-family="Times New Roman,serif" font-size="14.00">oridm</text>
</g>
<!-- n9208&#45;&gt;n9210 -->
<g id="edge42" class="edge"><title>n9208&#45;&gt;n9210</title>
</g>
<!-- n9207&#45;&gt;n9208 -->
<g id="edge34" class="edge"><title>n9207&#45;&gt;n9208</title>
<path fill="none" stroke="lightgray" d="M49.8423,-310.875C71.0143,-320.447 103.345,-335.065 127.239,-345.868"/>
<polygon fill="lightgray" stroke="lightgray" points="126.03,-349.162 136.584,-350.093 128.913,-342.784 126.03,-349.162"/>
<text text-anchor="middle" x="90.5" y="-341.8" font-family="Times New Roman,serif" font-size="14.00" fill="lightgray">wff ps</text>
</g>
<!-- n9209 -->
<g id="node29" class="node"><title>n9209</title>
<ellipse fill="none" stroke="lightgray" cx="27" cy="-247" rx="27" ry="18"/>
<text text-anchor="middle" x="27" y="-243.3" font-family="Times New Roman,serif" font-size="14.00" fill="lightgray">wph</text>
</g>
<!-- n9209&#45;&gt;n9210 -->
<g id="edge37" class="edge"><title>n9209&#45;&gt;n9210</title>
<path fill="none" stroke="lightgray" d="M51.632,-254.425C71.0822,-260.536 98.9999,-269.307 121.423,-276.352"/>
<polygon fill="lightgray" stroke="lightgray" points="120.382,-279.694 130.972,-279.352 122.48,-273.015 120.382,-279.694"/>
<text text-anchor="middle" x="90.5" y="-276.8" font-family="Times New Roman,serif" font-size="14.00" fill="lightgray">wff ph</text>
</g>
<!-- n9210&#45;&gt;n9211 -->
<g id="edge38" class="edge"><title>n9210&#45;&gt;n9211</title>
<path fill="none" stroke="black" d="M190.74,-293.365C228.973,-301.415 295.197,-319.712 339.994,-356 356.193,-369.122 368.739,-389.105 377.058,-405.288"/>
<polygon fill="black" stroke="black" points="373.926,-406.85 381.463,-414.296 380.214,-403.775 373.926,-406.85"/>
<text text-anchor="middle" x="274.994" y="-359.8" font-family="Times New Roman,serif" font-size="14.00">|&#45; ( ( ph \/ ph ) &lt;&#45;&gt; ph )</text>
</g>
<!-- n9212 -->
<g id="node31" class="node"><title>n9212</title>
<ellipse fill="none" stroke="lightgray" cx="159.497" cy="-234" rx="27" ry="18"/>
<text text-anchor="middle" x="159.497" y="-230.3" font-family="Times New Roman,serif" font-size="14.00" fill="lightgray">wph</text>
</g>
<!-- n9212&#45;&gt;n9216 -->
<g id="edge43" class="edge"><title>n9212&#45;&gt;n9216</title>
<path fill="none" stroke="lightgray" d="M186.247,-230.504C227.042,-224.966 306.642,-214.159 352.993,-207.867"/>
<polygon fill="lightgray" stroke="lightgray" points="353.747,-211.297 363.185,-206.483 352.805,-204.36 353.747,-211.297"/>
<text text-anchor="middle" x="274.994" y="-230.8" font-family="Times New Roman,serif" font-size="14.00" fill="lightgray">wff ph</text>
</g>
<!-- n9213 -->
<g id="node33" class="node"><title>n9213</title>
<ellipse fill="none" stroke="lightgray" cx="159.497" cy="-162" rx="27" ry="18"/>
<text text-anchor="middle" x="159.497" y="-158.3" font-family="Times New Roman,serif" font-size="14.00" fill="lightgray">wph</text>
</g>
<!-- n9212&#45;&gt;n9213 -->
<g id="edge48" class="edge"><title>n9212&#45;&gt;n9213</title>
</g>
<!-- n9216&#45;&gt;n9217 -->
<g id="edge47" class="edge"><title>n9216&#45;&gt;n9217</title>
<path fill="none" stroke="black" d="M415.097,-209.666C486.086,-230.498 694.759,-301.419 795.689,-440 835.623,-494.832 842.122,-577.725 842.562,-620.788"/>
<polygon fill="black" stroke="black" points="839.063,-620.835 842.561,-630.836 846.063,-620.837 839.063,-620.835"/>
<text text-anchor="middle" x="617.689" y="-443.8" font-family="Times New Roman,serif" font-size="14.00">|&#45; ( ( ( ph \/ ph ) \/ ( ps \/ ch ) ) &lt;&#45;&gt; ( ( ph \/ ps ) \/ ( ph \/ ch ) ) )</text>
</g>
<!-- n9213&#45;&gt;n9216 -->
<g id="edge44" class="edge"><title>n9213&#45;&gt;n9216</title>
<path fill="none" stroke="lightgray" d="M186.178,-165.484C221.126,-170.376 285.55,-179.933 339.994,-191 344.77,-191.971 349.786,-193.089 354.709,-194.243"/>
<polygon fill="lightgray" stroke="lightgray" points="354.037,-197.682 364.579,-196.63 355.682,-190.878 354.037,-197.682"/>
<text text-anchor="middle" x="274.994" y="-194.8" font-family="Times New Roman,serif" font-size="14.00" fill="lightgray">wff ph</text>
</g>
<!-- n9214 -->
<g id="node34" class="node"><title>n9214</title>
<ellipse fill="none" stroke="lightgray" cx="159.497" cy="-90" rx="27" ry="18"/>
<text text-anchor="middle" x="159.497" y="-86.3" font-family="Times New Roman,serif" font-size="14.00" fill="lightgray">wps</text>
</g>
<!-- n9213&#45;&gt;n9214 -->
<g id="edge49" class="edge"><title>n9213&#45;&gt;n9214</title>
</g>
<!-- n9214&#45;&gt;n9216 -->
<g id="edge45" class="edge"><title>n9214&#45;&gt;n9216</title>
<path fill="none" stroke="lightgray" d="M185.697,-94.5171C222.06,-101.893 290.323,-119.014 339.994,-151 351.547,-158.44 362.26,-169.196 370.692,-178.998"/>
<polygon fill="lightgray" stroke="lightgray" points="368.149,-181.417 377.206,-186.914 373.554,-176.968 368.149,-181.417"/>
<text text-anchor="middle" x="274.994" y="-154.8" font-family="Times New Roman,serif" font-size="14.00" fill="lightgray">wff ps</text>
</g>
<!-- n9215 -->
<g id="node35" class="node"><title>n9215</title>
<ellipse fill="none" stroke="lightgray" cx="159.497" cy="-18" rx="27" ry="18"/>
<text text-anchor="middle" x="159.497" y="-14.3" font-family="Times New Roman,serif" font-size="14.00" fill="lightgray">wch</text>
</g>
<!-- n9214&#45;&gt;n9215 -->
<g id="edge50" class="edge"><title>n9214&#45;&gt;n9215</title>
</g>
<!-- n9215&#45;&gt;n9216 -->
<g id="edge46" class="edge"><title>n9215&#45;&gt;n9216</title>
<path fill="none" stroke="lightgray" d="M186.246,-20.5423C224.551,-25.6307 296.669,-40.423 339.994,-82 365.968,-106.925 378.517,-147.529 384.301,-174.743"/>
<polygon fill="lightgray" stroke="lightgray" points="380.913,-175.658 386.261,-184.804 387.784,-174.319 380.913,-175.658"/>
<text text-anchor="middle" x="274.994" y="-85.8" font-family="Times New Roman,serif" font-size="14.00" fill="lightgray">wff ch</text>
</g>
</g>
</svg>
