<?xml version="1.0" encoding="UTF-8" standalone="no"?>
<!DOCTYPE svg PUBLIC "-//W3C//DTD SVG 1.1//EN"
 "http://www.w3.org/Graphics/SVG/1.1/DTD/svg11.dtd">
<!-- Generated by graphviz version 2.38.0 (20140413.2041)
 -->
<!-- Title: proof_orri Pages: 1 -->
<svg width="793pt" height="376pt"
 viewBox="0.00 0.00 792.58 376.00" xmlns="http://www.w3.org/2000/svg" xmlns:xlink="http://www.w3.org/1999/xlink">
<g id="graph0" class="graph" transform="scale(1 1) rotate(0) translate(4 372)">
<title>proof_orri</title>
<polygon fill="white" stroke="none" points="-4,4 -4,-372 788.584,-372 788.584,4 -4,4"/>
<!-- n7168 -->
<g id="node1" class="node"><title>n7168</title>
<ellipse fill="none" stroke="lightgray" cx="154" cy="-350" rx="27" ry="18"/>
<text text-anchor="middle" x="154" y="-346.3" font-family="Times New Roman,serif" font-size="14.00" fill="lightgray">wph</text>
</g>
<!-- n7170 -->
<g id="node2" class="node"><title>n7170</title>
<ellipse fill="none" stroke="lightgray" cx="296.547" cy="-291" rx="27" ry="18"/>
<text text-anchor="middle" x="296.547" y="-287.3" font-family="Times New Roman,serif" font-size="14.00" fill="lightgray">wo</text>
</g>
<!-- n7168&#45;&gt;n7170 -->
<g id="edge1" class="edge"><title>n7168&#45;&gt;n7170</title>
<path fill="none" stroke="lightgray" d="M177.27,-340.651C200.606,-330.855 237.47,-315.38 263.839,-304.311"/>
<polygon fill="lightgray" stroke="lightgray" points="265.516,-307.403 273.381,-300.305 262.806,-300.949 265.516,-307.403"/>
<text text-anchor="middle" x="223.5" y="-333.8" font-family="Times New Roman,serif" font-size="14.00" fill="lightgray">wff ph</text>
</g>
<!-- n7169 -->
<g id="node3" class="node"><title>n7169</title>
<ellipse fill="none" stroke="lightgray" cx="154" cy="-278" rx="27" ry="18"/>
<text text-anchor="middle" x="154" y="-274.3" font-family="Times New Roman,serif" font-size="14.00" fill="lightgray">wps</text>
</g>
<!-- n7168&#45;&gt;n7169 -->
<g id="edge4" class="edge"><title>n7168&#45;&gt;n7169</title>
</g>
<!-- n7179 -->
<g id="node4" class="node"><title>n7179</title>
<ellipse fill="cyan" stroke="black" cx="587.592" cy="-182" rx="32.4942" ry="18"/>
<text text-anchor="middle" x="587.592" y="-178.3" font-family="Times New Roman,serif" font-size="14.00">mpbir</text>
</g>
<!-- n7170&#45;&gt;n7179 -->
<g id="edge3" class="edge"><title>n7170&#45;&gt;n7179</title>
<path fill="none" stroke="lightgray" d="M323.714,-289.199C369.671,-285.064 466.683,-271.939 537.095,-232 548.434,-225.568 558.923,-215.807 567.298,-206.613"/>
<polygon fill="lightgray" stroke="lightgray" points="570.184,-208.627 574.083,-198.775 564.891,-204.045 570.184,-208.627"/>
<text text-anchor="middle" x="441.095" y="-290.8" font-family="Times New Roman,serif" font-size="14.00" fill="lightgray">wff ( ph \/ ps )</text>
</g>
<!-- n7174 -->
<g id="node7" class="node"><title>n7174</title>
<ellipse fill="none" stroke="lightgray" cx="296.547" cy="-219" rx="27" ry="18"/>
<text text-anchor="middle" x="296.547" y="-215.3" font-family="Times New Roman,serif" font-size="14.00" fill="lightgray">wi</text>
</g>
<!-- n7170&#45;&gt;n7174 -->
<g id="edge16" class="edge"><title>n7170&#45;&gt;n7174</title>
</g>
<!-- n7169&#45;&gt;n7170 -->
<g id="edge2" class="edge"><title>n7169&#45;&gt;n7170</title>
<path fill="none" stroke="lightgray" d="M180.779,-280.384C202.829,-282.424 234.809,-285.382 259.413,-287.658"/>
<polygon fill="lightgray" stroke="lightgray" points="259.176,-291.151 269.456,-288.587 259.821,-284.18 259.176,-291.151"/>
<text text-anchor="middle" x="223.5" y="-290.8" font-family="Times New Roman,serif" font-size="14.00" fill="lightgray">wff ps</text>
</g>
<!-- QED -->
<g id="node13" class="node"><title>QED</title>
</g>
<!-- n7179&#45;&gt;QED -->
<g id="edge15" class="edge"><title>n7179&#45;&gt;QED</title>
<path fill="none" stroke="black" d="M620.157,-182C647.344,-182 686.676,-182 715.732,-182"/>
<polygon fill="black" stroke="black" points="715.93,-185.5 725.93,-182 715.93,-178.5 715.93,-185.5"/>
<text text-anchor="middle" x="673.089" y="-185.8" font-family="Times New Roman,serif" font-size="14.00">|&#45; ( ph \/ ps )</text>
</g>
<!-- n7171 -->
<g id="node5" class="node"><title>n7171</title>
<ellipse fill="none" stroke="lightgray" cx="27" cy="-222" rx="27" ry="18"/>
<text text-anchor="middle" x="27" y="-218.3" font-family="Times New Roman,serif" font-size="14.00" fill="lightgray">wph</text>
</g>
<!-- n7172 -->
<g id="node6" class="node"><title>n7172</title>
<ellipse fill="none" stroke="lightgray" cx="154" cy="-222" rx="27" ry="18"/>
<text text-anchor="middle" x="154" y="-218.3" font-family="Times New Roman,serif" font-size="14.00" fill="lightgray">wn</text>
</g>
<!-- n7171&#45;&gt;n7172 -->
<g id="edge5" class="edge"><title>n7171&#45;&gt;n7172</title>
<path fill="none" stroke="lightgray" d="M54.2041,-222C72.3711,-222 96.7994,-222 116.82,-222"/>
<polygon fill="lightgray" stroke="lightgray" points="116.83,-225.5 126.83,-222 116.83,-218.5 116.83,-225.5"/>
<text text-anchor="middle" x="90.5" y="-225.8" font-family="Times New Roman,serif" font-size="14.00" fill="lightgray">wff ph</text>
</g>
<!-- n7172&#45;&gt;n7174 -->
<g id="edge6" class="edge"><title>n7172&#45;&gt;n7174</title>
<path fill="none" stroke="lightgray" d="M181.106,-221.443C202.958,-220.976 234.392,-220.305 258.789,-219.785"/>
<polygon fill="lightgray" stroke="lightgray" points="259.181,-223.277 269.104,-219.564 259.031,-216.279 259.181,-223.277"/>
<text text-anchor="middle" x="223.5" y="-225.8" font-family="Times New Roman,serif" font-size="14.00" fill="lightgray">wff &#45;. ph</text>
</g>
<!-- n7173 -->
<g id="node8" class="node"><title>n7173</title>
<ellipse fill="none" stroke="lightgray" cx="154" cy="-150" rx="27" ry="18"/>
<text text-anchor="middle" x="154" y="-146.3" font-family="Times New Roman,serif" font-size="14.00" fill="lightgray">wps</text>
</g>
<!-- n7172&#45;&gt;n7173 -->
<g id="edge9" class="edge"><title>n7172&#45;&gt;n7173</title>
</g>
<!-- n7174&#45;&gt;n7179 -->
<g id="edge8" class="edge"><title>n7174&#45;&gt;n7179</title>
<path fill="none" stroke="lightgray" d="M323.198,-215.716C373.482,-209.28 485.367,-194.958 545.869,-187.213"/>
<polygon fill="lightgray" stroke="lightgray" points="546.358,-190.679 555.832,-185.937 545.469,-183.736 546.358,-190.679"/>
<text text-anchor="middle" x="441.095" y="-216.8" font-family="Times New Roman,serif" font-size="14.00" fill="lightgray">wff ( &#45;. ph &#45;&gt; ps )</text>
</g>
<!-- n7175 -->
<g id="node9" class="node"><title>n7175</title>
<ellipse fill="orange" stroke="black" cx="296.547" cy="-147" rx="30.5947" ry="18"/>
<text text-anchor="middle" x="296.547" y="-143.3" font-family="Times New Roman,serif" font-size="14.00">orri.1</text>
</g>
<!-- n7174&#45;&gt;n7175 -->
<g id="edge17" class="edge"><title>n7174&#45;&gt;n7175</title>
</g>
<!-- n7173&#45;&gt;n7174 -->
<g id="edge7" class="edge"><title>n7173&#45;&gt;n7174</title>
<path fill="none" stroke="lightgray" d="M176.346,-160.48C199.873,-172.03 237.926,-190.712 264.696,-203.854"/>
<polygon fill="lightgray" stroke="lightgray" points="263.481,-207.157 274,-208.422 266.566,-200.873 263.481,-207.157"/>
<text text-anchor="middle" x="223.5" y="-198.8" font-family="Times New Roman,serif" font-size="14.00" fill="lightgray">wff ps</text>
</g>
<!-- n7175&#45;&gt;n7179 -->
<g id="edge10" class="edge"><title>n7175&#45;&gt;n7179</title>
<path fill="none" stroke="black" d="M327.136,-149.523C372.46,-153.543 461.748,-162.075 537.095,-173 540.293,-173.464 543.6,-173.981 546.919,-174.528"/>
<polygon fill="black" stroke="black" points="546.362,-177.983 556.81,-176.228 547.547,-171.084 546.362,-177.983"/>
<text text-anchor="middle" x="441.095" y="-176.8" font-family="Times New Roman,serif" font-size="14.00">|&#45; ( &#45;. ph &#45;&gt; ps )</text>
</g>
<!-- n7178 -->
<g id="node11" class="node"><title>n7178</title>
<ellipse fill="lawngreen" stroke="black" cx="296.547" cy="-75" rx="29.4969" ry="18"/>
<text text-anchor="middle" x="296.547" y="-71.3" font-family="Times New Roman,serif" font-size="14.00">df&#45;or</text>
</g>
<!-- n7175&#45;&gt;n7178 -->
<g id="edge18" class="edge"><title>n7175&#45;&gt;n7178</title>
</g>
<!-- n7176 -->
<g id="node10" class="node"><title>n7176</title>
<ellipse fill="none" stroke="lightgray" cx="154" cy="-90" rx="27" ry="18"/>
<text text-anchor="middle" x="154" y="-86.3" font-family="Times New Roman,serif" font-size="14.00" fill="lightgray">wph</text>
</g>
<!-- n7176&#45;&gt;n7178 -->
<g id="edge11" class="edge"><title>n7176&#45;&gt;n7178</title>
<path fill="none" stroke="lightgray" d="M180.779,-87.2488C202.274,-84.9546 233.206,-81.6534 257.543,-79.056"/>
<polygon fill="lightgray" stroke="lightgray" points="257.95,-82.5325 267.522,-77.991 257.207,-75.5721 257.95,-82.5325"/>
<text text-anchor="middle" x="223.5" y="-89.8" font-family="Times New Roman,serif" font-size="14.00" fill="lightgray">wff ph</text>
</g>
<!-- n7177 -->
<g id="node12" class="node"><title>n7177</title>
<ellipse fill="none" stroke="lightgray" cx="154" cy="-18" rx="27" ry="18"/>
<text text-anchor="middle" x="154" y="-14.3" font-family="Times New Roman,serif" font-size="14.00" fill="lightgray">wps</text>
</g>
<!-- n7176&#45;&gt;n7177 -->
<g id="edge14" class="edge"><title>n7176&#45;&gt;n7177</title>
</g>
<!-- n7178&#45;&gt;n7179 -->
<g id="edge13" class="edge"><title>n7178&#45;&gt;n7179</title>
<path fill="none" stroke="black" d="M325.894,-76.9394C372.631,-81.174 467.593,-94.2194 537.095,-133 548.365,-139.289 558.842,-148.851 567.227,-157.864"/>
<polygon fill="black" stroke="black" points="564.778,-160.378 574.025,-165.548 570.02,-155.739 564.778,-160.378"/>
<text text-anchor="middle" x="441.095" y="-136.8" font-family="Times New Roman,serif" font-size="14.00">|&#45; ( ( ph \/ ps ) &lt;&#45;&gt; ( &#45;. ph &#45;&gt; ps ) )</text>
</g>
<!-- n7177&#45;&gt;n7178 -->
<g id="edge12" class="edge"><title>n7177&#45;&gt;n7178</title>
<path fill="none" stroke="lightgray" d="M177.581,-27.158C200.425,-36.4225 235.999,-50.8499 262.112,-61.4402"/>
<polygon fill="lightgray" stroke="lightgray" points="261.028,-64.7775 271.611,-65.2924 263.659,-58.2906 261.028,-64.7775"/>
<text text-anchor="middle" x="223.5" y="-58.8" font-family="Times New Roman,serif" font-size="14.00" fill="lightgray">wff ps</text>
</g>
</g>
</svg>
