<?xml version="1.0" encoding="UTF-8" standalone="no"?>
<!DOCTYPE svg PUBLIC "-//W3C//DTD SVG 1.1//EN"
 "http://www.w3.org/Graphics/SVG/1.1/DTD/svg11.dtd">
<!-- Generated by graphviz version 2.38.0 (20140413.2041)
 -->
<!-- Title: proof_pclem6 Pages: 1 -->
<svg width="1771pt" height="601pt"
 viewBox="0.00 0.00 1770.98 601.00" xmlns="http://www.w3.org/2000/svg" xmlns:xlink="http://www.w3.org/1999/xlink">
<g id="graph0" class="graph" transform="scale(1 1) rotate(0) translate(4 597)">
<title>proof_pclem6</title>
<polygon fill="white" stroke="none" points="-4,4 -4,-597 1766.98,-597 1766.98,4 -4,4"/>
<!-- n16506 -->
<g id="node1" class="node"><title>n16506</title>
<ellipse fill="none" stroke="lightgray" cx="1143.44" cy="-539" rx="27" ry="18"/>
<text text-anchor="middle" x="1143.44" y="-535.3" font-family="Times New Roman,serif" font-size="14.00" fill="lightgray">wps</text>
</g>
<!-- n16539 -->
<g id="node2" class="node"><title>n16539</title>
<ellipse fill="cyan" stroke="black" cx="1437.94" cy="-467" rx="30.5947" ry="18"/>
<text text-anchor="middle" x="1437.94" y="-463.3" font-family="Times New Roman,serif" font-size="14.00">con2i</text>
</g>
<!-- n16506&#45;&gt;n16539 -->
<g id="edge1" class="edge"><title>n16506&#45;&gt;n16539</title>
<path fill="none" stroke="lightgray" d="M1169.83,-534.949C1214.71,-527.47 1310.75,-510.036 1389.39,-486 1394.03,-484.581 1398.86,-482.902 1403.58,-481.139"/>
<polygon fill="lightgray" stroke="lightgray" points="1404.98,-484.35 1413.03,-477.459 1402.44,-477.828 1404.98,-484.35"/>
<text text-anchor="middle" x="1289.39" y="-534.8" font-family="Times New Roman,serif" font-size="14.00" fill="lightgray">wff ps</text>
</g>
<!-- n16512 -->
<g id="node4" class="node"><title>n16512</title>
<ellipse fill="none" stroke="lightgray" cx="1143.44" cy="-467" rx="27" ry="18"/>
<text text-anchor="middle" x="1143.44" y="-463.3" font-family="Times New Roman,serif" font-size="14.00" fill="lightgray">wb</text>
</g>
<!-- n16506&#45;&gt;n16512 -->
<g id="edge48" class="edge"><title>n16506&#45;&gt;n16512</title>
</g>
<!-- QED -->
<g id="node35" class="node"><title>QED</title>
</g>
<!-- n16539&#45;&gt;QED -->
<g id="edge47" class="edge"><title>n16539&#45;&gt;QED</title>
<path fill="none" stroke="black" d="M1468.72,-467C1522.26,-467 1634.68,-467 1694.07,-467"/>
<polygon fill="black" stroke="black" points="1694.17,-470.5 1704.17,-467 1694.17,-463.5 1694.17,-470.5"/>
<text text-anchor="middle" x="1586.48" y="-470.8" font-family="Times New Roman,serif" font-size="14.00">|&#45; ( ( ph &lt;&#45;&gt; ( ps / &#45;. ph ) ) &#45;&gt; &#45;. ps )</text>
</g>
<!-- n16507 -->
<g id="node3" class="node"><title>n16507</title>
<ellipse fill="none" stroke="lightgray" cx="716.247" cy="-575" rx="27" ry="18"/>
<text text-anchor="middle" x="716.247" y="-571.3" font-family="Times New Roman,serif" font-size="14.00" fill="lightgray">wph</text>
</g>
<!-- n16507&#45;&gt;n16512 -->
<g id="edge2" class="edge"><title>n16507&#45;&gt;n16512</title>
<path fill="none" stroke="lightgray" d="M743.576,-576.827C808.167,-580.126 977.909,-581.55 1097.49,-517 1108.62,-510.996 1118.37,-501.126 1125.93,-491.734"/>
<polygon fill="lightgray" stroke="lightgray" points="1128.75,-493.804 1131.98,-483.713 1123.16,-489.589 1128.75,-493.804"/>
<text text-anchor="middle" x="930.495" y="-581.8" font-family="Times New Roman,serif" font-size="14.00" fill="lightgray">wff ph</text>
</g>
<!-- n16511 -->
<g id="node6" class="node"><title>n16511</title>
<ellipse fill="none" stroke="lightgray" cx="716.247" cy="-503" rx="27" ry="18"/>
<text text-anchor="middle" x="716.247" y="-499.3" font-family="Times New Roman,serif" font-size="14.00" fill="lightgray">wa</text>
</g>
<!-- n16507&#45;&gt;n16511 -->
<g id="edge9" class="edge"><title>n16507&#45;&gt;n16511</title>
</g>
<!-- n16512&#45;&gt;n16539 -->
<g id="edge8" class="edge"><title>n16512&#45;&gt;n16539</title>
<path fill="none" stroke="lightgray" d="M1170.66,-467C1221.98,-467 1336.01,-467 1396.86,-467"/>
<polygon fill="lightgray" stroke="lightgray" points="1397.22,-470.5 1407.22,-467 1397.22,-463.5 1397.22,-470.5"/>
<text text-anchor="middle" x="1289.39" y="-470.8" font-family="Times New Roman,serif" font-size="14.00" fill="lightgray">wff ( ph &lt;&#45;&gt; ( ps / &#45;. ph ) )</text>
</g>
<!-- n16538 -->
<g id="node10" class="node"><title>n16538</title>
<ellipse fill="cyan" stroke="black" cx="1143.44" cy="-377" rx="27.8951" ry="18"/>
<text text-anchor="middle" x="1143.44" y="-373.3" font-family="Times New Roman,serif" font-size="14.00">sylib</text>
</g>
<!-- n16512&#45;&gt;n16538 -->
<g id="edge49" class="edge"><title>n16512&#45;&gt;n16538</title>
</g>
<!-- n16508 -->
<g id="node5" class="node"><title>n16508</title>
<ellipse fill="none" stroke="lightgray" cx="474" cy="-575" rx="27" ry="18"/>
<text text-anchor="middle" x="474" y="-571.3" font-family="Times New Roman,serif" font-size="14.00" fill="lightgray">wps</text>
</g>
<!-- n16508&#45;&gt;n16511 -->
<g id="edge3" class="edge"><title>n16508&#45;&gt;n16511</title>
<path fill="none" stroke="lightgray" d="M499.793,-569.264C536.969,-560.432 609.178,-542.373 669,-522 673.907,-520.329 679.041,-518.403 684.03,-516.433"/>
<polygon fill="lightgray" stroke="lightgray" points="685.401,-519.654 693.345,-512.645 682.763,-513.17 685.401,-519.654"/>
<text text-anchor="middle" x="594" y="-566.8" font-family="Times New Roman,serif" font-size="14.00" fill="lightgray">wff ps</text>
</g>
<!-- n16510 -->
<g id="node8" class="node"><title>n16510</title>
<ellipse fill="none" stroke="lightgray" cx="474" cy="-503" rx="27" ry="18"/>
<text text-anchor="middle" x="474" y="-499.3" font-family="Times New Roman,serif" font-size="14.00" fill="lightgray">wn</text>
</g>
<!-- n16508&#45;&gt;n16510 -->
<g id="edge7" class="edge"><title>n16508&#45;&gt;n16510</title>
</g>
<!-- n16511&#45;&gt;n16512 -->
<g id="edge6" class="edge"><title>n16511&#45;&gt;n16512</title>
<path fill="none" stroke="lightgray" d="M743.205,-500.802C816.087,-494.632 1022.73,-477.136 1106.5,-470.043"/>
<polygon fill="lightgray" stroke="lightgray" points="1106.89,-473.523 1116.55,-469.192 1106.3,-466.548 1106.89,-473.523"/>
<text text-anchor="middle" x="930.495" y="-501.8" font-family="Times New Roman,serif" font-size="14.00" fill="lightgray">wff ( ps / &#45;. ph )</text>
</g>
<!-- n16509 -->
<g id="node7" class="node"><title>n16509</title>
<ellipse fill="none" stroke="lightgray" cx="293" cy="-539" rx="27" ry="18"/>
<text text-anchor="middle" x="293" y="-535.3" font-family="Times New Roman,serif" font-size="14.00" fill="lightgray">wph</text>
</g>
<!-- n16509&#45;&gt;n16510 -->
<g id="edge4" class="edge"><title>n16509&#45;&gt;n16510</title>
<path fill="none" stroke="lightgray" d="M319.267,-533.918C350.183,-527.701 402.714,-517.136 437.633,-510.113"/>
<polygon fill="lightgray" stroke="lightgray" points="438.748,-513.459 447.862,-508.056 437.368,-506.596 438.748,-513.459"/>
<text text-anchor="middle" x="383.5" y="-532.8" font-family="Times New Roman,serif" font-size="14.00" fill="lightgray">wff ph</text>
</g>
<!-- n16510&#45;&gt;n16511 -->
<g id="edge5" class="edge"><title>n16510&#45;&gt;n16511</title>
<path fill="none" stroke="lightgray" d="M501.168,-503C544.223,-503 630.089,-503 678.979,-503"/>
<polygon fill="lightgray" stroke="lightgray" points="679.112,-506.5 689.112,-503 679.112,-499.5 679.112,-506.5"/>
<text text-anchor="middle" x="594" y="-506.8" font-family="Times New Roman,serif" font-size="14.00" fill="lightgray">wff &#45;. ph</text>
</g>
<!-- n16513 -->
<g id="node9" class="node"><title>n16513</title>
<ellipse fill="none" stroke="lightgray" cx="716.247" cy="-449" rx="27" ry="18"/>
<text text-anchor="middle" x="716.247" y="-445.3" font-family="Times New Roman,serif" font-size="14.00" fill="lightgray">wps</text>
</g>
<!-- n16513&#45;&gt;n16538 -->
<g id="edge10" class="edge"><title>n16513&#45;&gt;n16538</title>
<path fill="none" stroke="lightgray" d="M743.542,-447.7C805.99,-444.106 967.705,-431.81 1097.49,-396 1101.93,-394.775 1106.51,-393.215 1110.97,-391.515"/>
<polygon fill="lightgray" stroke="lightgray" points="1112.51,-394.669 1120.45,-387.652 1109.87,-388.187 1112.51,-394.669"/>
<text text-anchor="middle" x="930.495" y="-449.8" font-family="Times New Roman,serif" font-size="14.00" fill="lightgray">wff ps</text>
</g>
<!-- n16520 -->
<g id="node13" class="node"><title>n16520</title>
<ellipse fill="none" stroke="lightgray" cx="716.247" cy="-377" rx="27" ry="18"/>
<text text-anchor="middle" x="716.247" y="-373.3" font-family="Times New Roman,serif" font-size="14.00" fill="lightgray">wb</text>
</g>
<!-- n16513&#45;&gt;n16520 -->
<g id="edge43" class="edge"><title>n16513&#45;&gt;n16520</title>
</g>
<!-- n16538&#45;&gt;n16539 -->
<g id="edge42" class="edge"><title>n16538&#45;&gt;n16539</title>
<path fill="none" stroke="black" d="M1169.73,-383.453C1214.46,-395.06 1310.25,-420.793 1389.39,-448 1393.76,-449.504 1398.32,-451.181 1402.81,-452.899"/>
<polygon fill="black" stroke="black" points="1401.84,-456.279 1412.43,-456.675 1404.4,-449.763 1401.84,-456.279"/>
<text text-anchor="middle" x="1289.39" y="-451.8" font-family="Times New Roman,serif" font-size="14.00">|&#45; ( ps &#45;&gt; &#45;. ( ph &lt;&#45;&gt; ( ps / &#45;. ph ) ) )</text>
</g>
<!-- n16514 -->
<g id="node11" class="node"><title>n16514</title>
<ellipse fill="none" stroke="lightgray" cx="293" cy="-485" rx="27" ry="18"/>
<text text-anchor="middle" x="293" y="-481.3" font-family="Times New Roman,serif" font-size="14.00" fill="lightgray">wph</text>
</g>
<!-- n16515 -->
<g id="node12" class="node"><title>n16515</title>
<ellipse fill="none" stroke="lightgray" cx="474" cy="-449" rx="27" ry="18"/>
<text text-anchor="middle" x="474" y="-445.3" font-family="Times New Roman,serif" font-size="14.00" fill="lightgray">wn</text>
</g>
<!-- n16514&#45;&gt;n16515 -->
<g id="edge11" class="edge"><title>n16514&#45;&gt;n16515</title>
<path fill="none" stroke="lightgray" d="M319.267,-479.918C350.183,-473.701 402.714,-463.136 437.633,-456.113"/>
<polygon fill="lightgray" stroke="lightgray" points="438.748,-459.459 447.862,-454.056 437.368,-452.596 438.748,-459.459"/>
<text text-anchor="middle" x="383.5" y="-478.8" font-family="Times New Roman,serif" font-size="14.00" fill="lightgray">wff ph</text>
</g>
<!-- n16515&#45;&gt;n16520 -->
<g id="edge12" class="edge"><title>n16515&#45;&gt;n16520</title>
<path fill="none" stroke="lightgray" d="M499.793,-443.264C536.969,-434.432 609.178,-416.373 669,-396 673.907,-394.329 679.041,-392.403 684.03,-390.433"/>
<polygon fill="lightgray" stroke="lightgray" points="685.401,-393.654 693.345,-386.645 682.763,-387.17 685.401,-393.654"/>
<text text-anchor="middle" x="594" y="-440.8" font-family="Times New Roman,serif" font-size="14.00" fill="lightgray">wff &#45;. ph</text>
</g>
<!-- n16519 -->
<g id="node16" class="node"><title>n16519</title>
<ellipse fill="none" stroke="lightgray" cx="474" cy="-377" rx="27" ry="18"/>
<text text-anchor="middle" x="474" y="-373.3" font-family="Times New Roman,serif" font-size="14.00" fill="lightgray">wa</text>
</g>
<!-- n16515&#45;&gt;n16519 -->
<g id="edge19" class="edge"><title>n16515&#45;&gt;n16519</title>
</g>
<!-- n16520&#45;&gt;n16538 -->
<g id="edge18" class="edge"><title>n16520&#45;&gt;n16538</title>
<path fill="none" stroke="lightgray" d="M743.524,-377C816.276,-377 1020.53,-377 1105.08,-377"/>
<polygon fill="lightgray" stroke="lightgray" points="1105.25,-380.5 1115.25,-377 1105.25,-373.5 1105.25,-380.5"/>
<text text-anchor="middle" x="930.495" y="-380.8" font-family="Times New Roman,serif" font-size="14.00" fill="lightgray">wff ( &#45;. ph &lt;&#45;&gt; ( ps / &#45;. ph ) )</text>
</g>
<!-- n16527 -->
<g id="node24" class="node"><title>n16527</title>
<ellipse fill="none" stroke="lightgray" cx="716.247" cy="-305" rx="27" ry="18"/>
<text text-anchor="middle" x="716.247" y="-301.3" font-family="Times New Roman,serif" font-size="14.00" fill="lightgray">wn</text>
</g>
<!-- n16520&#45;&gt;n16527 -->
<g id="edge44" class="edge"><title>n16520&#45;&gt;n16527</title>
</g>
<!-- n16516 -->
<g id="node14" class="node"><title>n16516</title>
<ellipse fill="none" stroke="lightgray" cx="154" cy="-431" rx="27" ry="18"/>
<text text-anchor="middle" x="154" y="-427.3" font-family="Times New Roman,serif" font-size="14.00" fill="lightgray">wph</text>
</g>
<!-- n16517 -->
<g id="node15" class="node"><title>n16517</title>
<ellipse fill="none" stroke="lightgray" cx="293" cy="-431" rx="27" ry="18"/>
<text text-anchor="middle" x="293" y="-427.3" font-family="Times New Roman,serif" font-size="14.00" fill="lightgray">wn</text>
</g>
<!-- n16516&#45;&gt;n16517 -->
<g id="edge13" class="edge"><title>n16516&#45;&gt;n16517</title>
<path fill="none" stroke="lightgray" d="M181.091,-431C202.096,-431 231.873,-431 255.285,-431"/>
<polygon fill="lightgray" stroke="lightgray" points="255.539,-434.5 265.539,-431 255.539,-427.5 255.539,-434.5"/>
<text text-anchor="middle" x="223.5" y="-434.8" font-family="Times New Roman,serif" font-size="14.00" fill="lightgray">wff ph</text>
</g>
<!-- n16517&#45;&gt;n16519 -->
<g id="edge14" class="edge"><title>n16517&#45;&gt;n16519</title>
<path fill="none" stroke="lightgray" d="M317.942,-424.063C344.963,-416.197 390.211,-402.916 429,-391 432.398,-389.956 435.939,-388.854 439.471,-387.745"/>
<polygon fill="lightgray" stroke="lightgray" points="440.799,-390.996 449.279,-384.643 438.689,-384.321 440.799,-390.996"/>
<text text-anchor="middle" x="383.5" y="-420.8" font-family="Times New Roman,serif" font-size="14.00" fill="lightgray">wff &#45;. ph</text>
</g>
<!-- n16518 -->
<g id="node17" class="node"><title>n16518</title>
<ellipse fill="none" stroke="lightgray" cx="293" cy="-359" rx="27" ry="18"/>
<text text-anchor="middle" x="293" y="-355.3" font-family="Times New Roman,serif" font-size="14.00" fill="lightgray">wps</text>
</g>
<!-- n16517&#45;&gt;n16518 -->
<g id="edge17" class="edge"><title>n16517&#45;&gt;n16518</title>
</g>
<!-- n16519&#45;&gt;n16520 -->
<g id="edge16" class="edge"><title>n16519&#45;&gt;n16520</title>
<path fill="none" stroke="lightgray" d="M501.168,-377C544.223,-377 630.089,-377 678.979,-377"/>
<polygon fill="lightgray" stroke="lightgray" points="679.112,-380.5 689.112,-377 679.112,-373.5 679.112,-380.5"/>
<text text-anchor="middle" x="594" y="-380.8" font-family="Times New Roman,serif" font-size="14.00" fill="lightgray">wff ( ps / &#45;. ph )</text>
</g>
<!-- n16518&#45;&gt;n16519 -->
<g id="edge15" class="edge"><title>n16518&#45;&gt;n16519</title>
<path fill="none" stroke="lightgray" d="M320.028,-361.617C350.872,-364.719 402.435,-369.904 437.068,-373.387"/>
<polygon fill="lightgray" stroke="lightgray" points="436.931,-376.89 447.231,-374.409 437.631,-369.926 436.931,-376.89"/>
<text text-anchor="middle" x="383.5" y="-375.8" font-family="Times New Roman,serif" font-size="14.00" fill="lightgray">wff ps</text>
</g>
<!-- n16521 -->
<g id="node18" class="node"><title>n16521</title>
<ellipse fill="none" stroke="lightgray" cx="27" cy="-342" rx="27" ry="18"/>
<text text-anchor="middle" x="27" y="-338.3" font-family="Times New Roman,serif" font-size="14.00" fill="lightgray">wph</text>
</g>
<!-- n16522 -->
<g id="node19" class="node"><title>n16522</title>
<ellipse fill="none" stroke="lightgray" cx="154" cy="-342" rx="27" ry="18"/>
<text text-anchor="middle" x="154" y="-338.3" font-family="Times New Roman,serif" font-size="14.00" fill="lightgray">wn</text>
</g>
<!-- n16521&#45;&gt;n16522 -->
<g id="edge20" class="edge"><title>n16521&#45;&gt;n16522</title>
<path fill="none" stroke="lightgray" d="M54.2041,-342C72.3711,-342 96.7994,-342 116.82,-342"/>
<polygon fill="lightgray" stroke="lightgray" points="116.83,-345.5 126.83,-342 116.83,-338.5 116.83,-345.5"/>
<text text-anchor="middle" x="90.5" y="-345.8" font-family="Times New Roman,serif" font-size="14.00" fill="lightgray">wff ph</text>
</g>
<!-- n16524 -->
<g id="node20" class="node"><title>n16524</title>
<ellipse fill="none" stroke="lightgray" cx="293" cy="-305" rx="27" ry="18"/>
<text text-anchor="middle" x="293" y="-301.3" font-family="Times New Roman,serif" font-size="14.00" fill="lightgray">wa</text>
</g>
<!-- n16522&#45;&gt;n16524 -->
<g id="edge21" class="edge"><title>n16522&#45;&gt;n16524</title>
<path fill="none" stroke="lightgray" d="M179.177,-335.47C200.955,-329.589 233.206,-320.879 257.656,-314.275"/>
<polygon fill="lightgray" stroke="lightgray" points="258.862,-317.575 267.603,-311.589 257.037,-310.817 258.862,-317.575"/>
<text text-anchor="middle" x="223.5" y="-333.8" font-family="Times New Roman,serif" font-size="14.00" fill="lightgray">wff &#45;. ph</text>
</g>
<!-- n16523 -->
<g id="node21" class="node"><title>n16523</title>
<ellipse fill="none" stroke="lightgray" cx="154" cy="-270" rx="27" ry="18"/>
<text text-anchor="middle" x="154" y="-266.3" font-family="Times New Roman,serif" font-size="14.00" fill="lightgray">wps</text>
</g>
<!-- n16522&#45;&gt;n16523 -->
<g id="edge24" class="edge"><title>n16522&#45;&gt;n16523</title>
</g>
<!-- n16526 -->
<g id="node22" class="node"><title>n16526</title>
<ellipse fill="none" stroke="lightgray" cx="474" cy="-305" rx="27" ry="18"/>
<text text-anchor="middle" x="474" y="-301.3" font-family="Times New Roman,serif" font-size="14.00" fill="lightgray">wb</text>
</g>
<!-- n16524&#45;&gt;n16526 -->
<g id="edge23" class="edge"><title>n16524&#45;&gt;n16526</title>
<path fill="none" stroke="lightgray" d="M320.028,-305C350.784,-305 402.142,-305 436.772,-305"/>
<polygon fill="lightgray" stroke="lightgray" points="436.94,-308.5 446.94,-305 436.94,-301.5 436.94,-308.5"/>
<text text-anchor="middle" x="383.5" y="-308.8" font-family="Times New Roman,serif" font-size="14.00" fill="lightgray">wff ( ps / &#45;. ph )</text>
</g>
<!-- n16525 -->
<g id="node23" class="node"><title>n16525</title>
<ellipse fill="none" stroke="lightgray" cx="293" cy="-233" rx="27" ry="18"/>
<text text-anchor="middle" x="293" y="-229.3" font-family="Times New Roman,serif" font-size="14.00" fill="lightgray">wph</text>
</g>
<!-- n16524&#45;&gt;n16525 -->
<g id="edge27" class="edge"><title>n16524&#45;&gt;n16525</title>
</g>
<!-- n16523&#45;&gt;n16524 -->
<g id="edge22" class="edge"><title>n16523&#45;&gt;n16524</title>
<path fill="none" stroke="lightgray" d="M179.493,-276.257C201.178,-281.797 233.066,-289.944 257.362,-296.151"/>
<polygon fill="lightgray" stroke="lightgray" points="256.702,-299.595 267.257,-298.679 258.435,-292.812 256.702,-299.595"/>
<text text-anchor="middle" x="223.5" y="-297.8" font-family="Times New Roman,serif" font-size="14.00" fill="lightgray">wff ps</text>
</g>
<!-- n16526&#45;&gt;n16527 -->
<g id="edge26" class="edge"><title>n16526&#45;&gt;n16527</title>
<path fill="none" stroke="lightgray" d="M501.168,-305C544.223,-305 630.089,-305 678.979,-305"/>
<polygon fill="lightgray" stroke="lightgray" points="679.112,-308.5 689.112,-305 679.112,-301.5 679.112,-308.5"/>
<text text-anchor="middle" x="594" y="-308.8" font-family="Times New Roman,serif" font-size="14.00" fill="lightgray">wff ( ph &lt;&#45;&gt; ( ps / &#45;. ph ) )</text>
</g>
<!-- n16525&#45;&gt;n16526 -->
<g id="edge25" class="edge"><title>n16525&#45;&gt;n16526</title>
<path fill="none" stroke="lightgray" d="M317.025,-241.769C343.972,-252.095 389.89,-269.884 429,-286 433.181,-287.723 437.569,-289.57 441.889,-291.412"/>
<polygon fill="lightgray" stroke="lightgray" points="440.559,-294.65 451.128,-295.384 443.323,-288.219 440.559,-294.65"/>
<text text-anchor="middle" x="383.5" y="-289.8" font-family="Times New Roman,serif" font-size="14.00" fill="lightgray">wff ph</text>
</g>
<!-- n16527&#45;&gt;n16538 -->
<g id="edge28" class="edge"><title>n16527&#45;&gt;n16538</title>
<path fill="none" stroke="lightgray" d="M743.542,-306.3C805.99,-309.894 967.705,-322.19 1097.49,-358 1101.93,-359.225 1106.51,-360.785 1110.97,-362.485"/>
<polygon fill="lightgray" stroke="lightgray" points="1109.87,-365.813 1120.45,-366.348 1112.51,-359.331 1109.87,-365.813"/>
<text text-anchor="middle" x="930.495" y="-361.8" font-family="Times New Roman,serif" font-size="14.00" fill="lightgray">wff &#45;. ( ph &lt;&#45;&gt; ( ps / &#45;. ph ) )</text>
</g>
<!-- n16531 -->
<g id="node26" class="node"><title>n16531</title>
<ellipse fill="cyan" stroke="black" cx="716.247" cy="-233" rx="27" ry="18"/>
<text text-anchor="middle" x="716.247" y="-229.3" font-family="Times New Roman,serif" font-size="14.00">ibar</text>
</g>
<!-- n16527&#45;&gt;n16531 -->
<g id="edge45" class="edge"><title>n16527&#45;&gt;n16531</title>
</g>
<!-- n16528 -->
<g id="node25" class="node"><title>n16528</title>
<ellipse fill="none" stroke="lightgray" cx="474" cy="-251" rx="27" ry="18"/>
<text text-anchor="middle" x="474" y="-247.3" font-family="Times New Roman,serif" font-size="14.00" fill="lightgray">wps</text>
</g>
<!-- n16528&#45;&gt;n16531 -->
<g id="edge29" class="edge"><title>n16528&#45;&gt;n16531</title>
<path fill="none" stroke="lightgray" d="M501.168,-249.039C544.223,-245.814 630.089,-239.38 678.979,-235.717"/>
<polygon fill="lightgray" stroke="lightgray" points="679.401,-239.196 689.112,-234.958 678.878,-232.215 679.401,-239.196"/>
<text text-anchor="middle" x="594" y="-251.8" font-family="Times New Roman,serif" font-size="14.00" fill="lightgray">wff ps</text>
</g>
<!-- n16530 -->
<g id="node28" class="node"><title>n16530</title>
<ellipse fill="none" stroke="lightgray" cx="474" cy="-179" rx="27" ry="18"/>
<text text-anchor="middle" x="474" y="-175.3" font-family="Times New Roman,serif" font-size="14.00" fill="lightgray">wn</text>
</g>
<!-- n16528&#45;&gt;n16530 -->
<g id="edge33" class="edge"><title>n16528&#45;&gt;n16530</title>
</g>
<!-- n16531&#45;&gt;n16538 -->
<g id="edge32" class="edge"><title>n16531&#45;&gt;n16538</title>
<path fill="none" stroke="black" d="M742.794,-229.345C808.515,-221.375 986.083,-209.059 1097.49,-289 1117.55,-303.393 1129.26,-329.414 1135.67,-349.441"/>
<polygon fill="black" stroke="black" points="1132.39,-350.664 1138.56,-359.274 1139.1,-348.693 1132.39,-350.664"/>
<text text-anchor="middle" x="930.495" y="-292.8" font-family="Times New Roman,serif" font-size="14.00">|&#45; ( ps &#45;&gt; ( &#45;. ph &lt;&#45;&gt; ( ps / &#45;. ph ) ) )</text>
</g>
<!-- n16537 -->
<g id="node30" class="node"><title>n16537</title>
<ellipse fill="cyan" stroke="black" cx="716.247" cy="-149" rx="29.4969" ry="18"/>
<text text-anchor="middle" x="716.247" y="-145.3" font-family="Times New Roman,serif" font-size="14.00">nbbn</text>
</g>
<!-- n16531&#45;&gt;n16537 -->
<g id="edge46" class="edge"><title>n16531&#45;&gt;n16537</title>
</g>
<!-- n16529 -->
<g id="node27" class="node"><title>n16529</title>
<ellipse fill="none" stroke="lightgray" cx="293" cy="-179" rx="27" ry="18"/>
<text text-anchor="middle" x="293" y="-175.3" font-family="Times New Roman,serif" font-size="14.00" fill="lightgray">wph</text>
</g>
<!-- n16529&#45;&gt;n16530 -->
<g id="edge30" class="edge"><title>n16529&#45;&gt;n16530</title>
<path fill="none" stroke="lightgray" d="M320.028,-179C350.784,-179 402.142,-179 436.772,-179"/>
<polygon fill="lightgray" stroke="lightgray" points="436.94,-182.5 446.94,-179 436.94,-175.5 436.94,-182.5"/>
<text text-anchor="middle" x="383.5" y="-182.8" font-family="Times New Roman,serif" font-size="14.00" fill="lightgray">wff ph</text>
</g>
<!-- n16530&#45;&gt;n16531 -->
<g id="edge31" class="edge"><title>n16530&#45;&gt;n16531</title>
<path fill="none" stroke="lightgray" d="M500.325,-183.131C537.57,-189.422 609.178,-202.341 669,-218 673.343,-219.137 677.878,-220.449 682.337,-221.814"/>
<polygon fill="lightgray" stroke="lightgray" points="681.285,-225.152 691.875,-224.84 683.402,-218.48 681.285,-225.152"/>
<text text-anchor="middle" x="594" y="-221.8" font-family="Times New Roman,serif" font-size="14.00" fill="lightgray">wff &#45;. ph</text>
</g>
<!-- n16532 -->
<g id="node29" class="node"><title>n16532</title>
<ellipse fill="none" stroke="lightgray" cx="474" cy="-125" rx="27" ry="18"/>
<text text-anchor="middle" x="474" y="-121.3" font-family="Times New Roman,serif" font-size="14.00" fill="lightgray">wph</text>
</g>
<!-- n16532&#45;&gt;n16537 -->
<g id="edge34" class="edge"><title>n16532&#45;&gt;n16537</title>
<path fill="none" stroke="lightgray" d="M501.168,-127.614C543.656,-131.859 627.837,-140.268 677.03,-145.182"/>
<polygon fill="lightgray" stroke="lightgray" points="676.965,-148.693 687.263,-146.204 677.66,-141.728 676.965,-148.693"/>
<text text-anchor="middle" x="594" y="-148.8" font-family="Times New Roman,serif" font-size="14.00" fill="lightgray">wff ph</text>
</g>
<!-- n16536 -->
<g id="node33" class="node"><title>n16536</title>
<ellipse fill="none" stroke="lightgray" cx="474" cy="-53" rx="27" ry="18"/>
<text text-anchor="middle" x="474" y="-49.3" font-family="Times New Roman,serif" font-size="14.00" fill="lightgray">wa</text>
</g>
<!-- n16532&#45;&gt;n16536 -->
<g id="edge41" class="edge"><title>n16532&#45;&gt;n16536</title>
</g>
<!-- n16537&#45;&gt;n16538 -->
<g id="edge40" class="edge"><title>n16537&#45;&gt;n16538</title>
<path fill="none" stroke="black" d="M744.379,-143.912C813.073,-132.715 995.626,-113.706 1097.49,-205 1118.73,-224.029 1132.73,-305.187 1138.87,-348.879"/>
<polygon fill="black" stroke="black" points="1135.41,-349.43 1140.23,-358.866 1142.35,-348.486 1135.41,-349.43"/>
<text text-anchor="middle" x="930.495" y="-208.8" font-family="Times New Roman,serif" font-size="14.00">|&#45; ( ( &#45;. ph &lt;&#45;&gt; ( ps / &#45;. ph ) ) &lt;&#45;&gt; &#45;. ( ph &lt;&#45;&gt; ( ps / &#45;. ph ) ) )</text>
</g>
<!-- n16533 -->
<g id="node31" class="node"><title>n16533</title>
<ellipse fill="none" stroke="lightgray" cx="154" cy="-90" rx="27" ry="18"/>
<text text-anchor="middle" x="154" y="-86.3" font-family="Times New Roman,serif" font-size="14.00" fill="lightgray">wph</text>
</g>
<!-- n16534 -->
<g id="node32" class="node"><title>n16534</title>
<ellipse fill="none" stroke="lightgray" cx="293" cy="-90" rx="27" ry="18"/>
<text text-anchor="middle" x="293" y="-86.3" font-family="Times New Roman,serif" font-size="14.00" fill="lightgray">wn</text>
</g>
<!-- n16533&#45;&gt;n16534 -->
<g id="edge35" class="edge"><title>n16533&#45;&gt;n16534</title>
<path fill="none" stroke="lightgray" d="M181.091,-90C202.096,-90 231.873,-90 255.285,-90"/>
<polygon fill="lightgray" stroke="lightgray" points="255.539,-93.5001 265.539,-90 255.539,-86.5001 255.539,-93.5001"/>
<text text-anchor="middle" x="223.5" y="-93.8" font-family="Times New Roman,serif" font-size="14.00" fill="lightgray">wff ph</text>
</g>
<!-- n16534&#45;&gt;n16536 -->
<g id="edge36" class="edge"><title>n16534&#45;&gt;n16536</title>
<path fill="none" stroke="lightgray" d="M318.889,-84.8553C349.928,-78.4395 403.165,-67.4351 438.223,-60.1886"/>
<polygon fill="lightgray" stroke="lightgray" points="438.95,-63.6124 448.034,-58.1605 437.533,-56.7573 438.95,-63.6124"/>
<text text-anchor="middle" x="383.5" y="-84.8" font-family="Times New Roman,serif" font-size="14.00" fill="lightgray">wff &#45;. ph</text>
</g>
<!-- n16535 -->
<g id="node34" class="node"><title>n16535</title>
<ellipse fill="none" stroke="lightgray" cx="293" cy="-18" rx="27" ry="18"/>
<text text-anchor="middle" x="293" y="-14.3" font-family="Times New Roman,serif" font-size="14.00" fill="lightgray">wps</text>
</g>
<!-- n16534&#45;&gt;n16535 -->
<g id="edge39" class="edge"><title>n16534&#45;&gt;n16535</title>
</g>
<!-- n16536&#45;&gt;n16537 -->
<g id="edge38" class="edge"><title>n16536&#45;&gt;n16537</title>
<path fill="none" stroke="lightgray" d="M500.417,-57.26C538.703,-64.3962 612.679,-81.0195 669,-111 677.176,-115.352 685.264,-121.279 692.335,-127.158"/>
<polygon fill="lightgray" stroke="lightgray" points="690.275,-130.006 700.113,-133.939 694.875,-124.729 690.275,-130.006"/>
<text text-anchor="middle" x="594" y="-114.8" font-family="Times New Roman,serif" font-size="14.00" fill="lightgray">wff ( ps / &#45;. ph )</text>
</g>
<!-- n16535&#45;&gt;n16536 -->
<g id="edge37" class="edge"><title>n16535&#45;&gt;n16536</title>
<path fill="none" stroke="lightgray" d="M319.975,-19.636C347.415,-21.7865 391.777,-26.4708 429,-36 433.106,-37.051 437.349,-38.3718 441.507,-39.8104"/>
<polygon fill="lightgray" stroke="lightgray" points="440.357,-43.1164 450.95,-43.3091 442.789,-36.5526 440.357,-43.1164"/>
<text text-anchor="middle" x="383.5" y="-39.8" font-family="Times New Roman,serif" font-size="14.00" fill="lightgray">wff ps</text>
</g>
</g>
</svg>
