<?xml version="1.0" encoding="UTF-8" standalone="no"?>
<!DOCTYPE svg PUBLIC "-//W3C//DTD SVG 1.1//EN"
 "http://www.w3.org/Graphics/SVG/1.1/DTD/svg11.dtd">
<!-- Generated by graphviz version 2.38.0 (20140413.2041)
 -->
<!-- Title: proof_pm2_61i Pages: 1 -->
<svg width="630pt" height="521pt"
 viewBox="0.00 0.00 629.68 521.00" xmlns="http://www.w3.org/2000/svg" xmlns:xlink="http://www.w3.org/1999/xlink">
<g id="graph0" class="graph" transform="scale(1 1) rotate(0) translate(4 517)">
<title>proof_pm2_61i</title>
<polygon fill="white" stroke="none" points="-4,4 -4,-517 625.681,-517 625.681,4 -4,4"/>
<!-- n1868 -->
<g id="node1" class="node"><title>n1868</title>
<ellipse fill="none" stroke="lightgray" cx="46.7958" cy="-495" rx="27" ry="18"/>
<text text-anchor="middle" x="46.7958" y="-491.3" font-family="Times New Roman,serif" font-size="14.00" fill="lightgray">wph</text>
</g>
<!-- n1870 -->
<g id="node2" class="node"><title>n1870</title>
<ellipse fill="none" stroke="lightgray" cx="244.592" cy="-428" rx="27" ry="18"/>
<text text-anchor="middle" x="244.592" y="-424.3" font-family="Times New Roman,serif" font-size="14.00" fill="lightgray">wi</text>
</g>
<!-- n1868&#45;&gt;n1870 -->
<g id="edge1" class="edge"><title>n1868&#45;&gt;n1870</title>
<path fill="none" stroke="lightgray" d="M71.6498,-487.915C101.709,-478.846 154.853,-462.345 199.592,-446 203.603,-444.534 207.791,-442.926 211.92,-441.292"/>
<polygon fill="lightgray" stroke="lightgray" points="213.375,-444.479 221.336,-437.489 210.753,-437.988 213.375,-444.479"/>
<text text-anchor="middle" x="155.592" y="-477.8" font-family="Times New Roman,serif" font-size="14.00" fill="lightgray">wff ph</text>
</g>
<!-- n1869 -->
<g id="node3" class="node"><title>n1869</title>
<ellipse fill="none" stroke="lightgray" cx="46.7958" cy="-423" rx="27" ry="18"/>
<text text-anchor="middle" x="46.7958" y="-419.3" font-family="Times New Roman,serif" font-size="14.00" fill="lightgray">wph</text>
</g>
<!-- n1868&#45;&gt;n1869 -->
<g id="edge4" class="edge"><title>n1868&#45;&gt;n1869</title>
</g>
<!-- n1880 -->
<g id="node4" class="node"><title>n1880</title>
<ellipse fill="lime" stroke="black" cx="468.389" cy="-319" rx="33.5952" ry="18"/>
<text text-anchor="middle" x="468.389" y="-315.3" font-family="Times New Roman,serif" font-size="14.00">ax&#45;mp</text>
</g>
<!-- n1870&#45;&gt;n1880 -->
<g id="edge3" class="edge"><title>n1870&#45;&gt;n1880</title>
<path fill="none" stroke="lightgray" d="M270.558,-422.801C305.23,-414.817 369.053,-397.305 416.592,-368 427.563,-361.237 438.095,-351.758 446.695,-342.939"/>
<polygon fill="lightgray" stroke="lightgray" points="449.436,-345.132 453.719,-335.442 444.328,-340.346 449.436,-345.132"/>
<text text-anchor="middle" x="353.092" y="-422.8" font-family="Times New Roman,serif" font-size="14.00" fill="lightgray">wff ( ph &#45;&gt; ph )</text>
</g>
<!-- n1871 -->
<g id="node5" class="node"><title>n1871</title>
<ellipse fill="none" stroke="lightgray" cx="244.592" cy="-356" rx="27" ry="18"/>
<text text-anchor="middle" x="244.592" y="-352.3" font-family="Times New Roman,serif" font-size="14.00" fill="lightgray">wps</text>
</g>
<!-- n1870&#45;&gt;n1871 -->
<g id="edge19" class="edge"><title>n1870&#45;&gt;n1871</title>
</g>
<!-- n1869&#45;&gt;n1870 -->
<g id="edge2" class="edge"><title>n1869&#45;&gt;n1870</title>
<path fill="none" stroke="lightgray" d="M73.796,-423.664C108.026,-424.538 168.393,-426.08 207.162,-427.07"/>
<polygon fill="lightgray" stroke="lightgray" points="207.398,-430.577 217.484,-427.333 207.577,-423.579 207.398,-430.577"/>
<text text-anchor="middle" x="155.592" y="-430.8" font-family="Times New Roman,serif" font-size="14.00" fill="lightgray">wff ph</text>
</g>
<!-- QED -->
<g id="node14" class="node"><title>QED</title>
</g>
<!-- n1880&#45;&gt;QED -->
<g id="edge18" class="edge"><title>n1880&#45;&gt;QED</title>
<path fill="none" stroke="black" d="M502.416,-319C517.935,-319 536.539,-319 552.718,-319"/>
<polygon fill="black" stroke="black" points="552.942,-322.5 562.942,-319 552.942,-315.5 552.942,-322.5"/>
<text text-anchor="middle" x="532.686" y="-322.8" font-family="Times New Roman,serif" font-size="14.00">|&#45; ps</text>
</g>
<!-- n1871&#45;&gt;n1880 -->
<g id="edge5" class="edge"><title>n1871&#45;&gt;n1880</title>
<path fill="none" stroke="lightgray" d="M271.035,-351.756C308.827,-345.451 380.213,-333.543 425.707,-325.953"/>
<polygon fill="lightgray" stroke="lightgray" points="426.551,-329.361 435.839,-324.263 425.399,-322.456 426.551,-329.361"/>
<text text-anchor="middle" x="353.092" y="-352.8" font-family="Times New Roman,serif" font-size="14.00" fill="lightgray">wff ps</text>
</g>
<!-- n1873 -->
<g id="node7" class="node"><title>n1873</title>
<ellipse fill="cyan" stroke="black" cx="244.592" cy="-284" rx="27" ry="18"/>
<text text-anchor="middle" x="244.592" y="-280.3" font-family="Times New Roman,serif" font-size="14.00">id</text>
</g>
<!-- n1871&#45;&gt;n1873 -->
<g id="edge20" class="edge"><title>n1871&#45;&gt;n1873</title>
</g>
<!-- n1872 -->
<g id="node6" class="node"><title>n1872</title>
<ellipse fill="none" stroke="lightgray" cx="46.7958" cy="-360" rx="27" ry="18"/>
<text text-anchor="middle" x="46.7958" y="-356.3" font-family="Times New Roman,serif" font-size="14.00" fill="lightgray">wph</text>
</g>
<!-- n1872&#45;&gt;n1873 -->
<g id="edge6" class="edge"><title>n1872&#45;&gt;n1873</title>
<path fill="none" stroke="lightgray" d="M72.9511,-355.495C103.882,-349.337 157.455,-336.639 199.592,-316 206.203,-312.762 212.867,-308.529 218.938,-304.208"/>
<polygon fill="lightgray" stroke="lightgray" points="221.43,-306.715 227.335,-297.919 217.233,-301.112 221.43,-306.715"/>
<text text-anchor="middle" x="155.592" y="-349.8" font-family="Times New Roman,serif" font-size="14.00" fill="lightgray">wff ph</text>
</g>
<!-- n1873&#45;&gt;n1880 -->
<g id="edge7" class="edge"><title>n1873&#45;&gt;n1880</title>
<path fill="none" stroke="black" d="M271.117,-287.682C304.566,-292.553 365.035,-301.515 416.592,-310 419.773,-310.524 423.064,-311.078 426.372,-311.644"/>
<polygon fill="black" stroke="black" points="425.796,-315.096 436.247,-313.358 426.993,-308.199 425.796,-315.096"/>
<text text-anchor="middle" x="353.092" y="-313.8" font-family="Times New Roman,serif" font-size="14.00">|&#45; ( ph &#45;&gt; ph )</text>
</g>
<!-- n1879 -->
<g id="node9" class="node"><title>n1879</title>
<ellipse fill="cyan" stroke="black" cx="244.592" cy="-212" rx="27" ry="18"/>
<text text-anchor="middle" x="244.592" y="-208.3" font-family="Times New Roman,serif" font-size="14.00">ja</text>
</g>
<!-- n1873&#45;&gt;n1879 -->
<g id="edge21" class="edge"><title>n1873&#45;&gt;n1879</title>
</g>
<!-- n1874 -->
<g id="node8" class="node"><title>n1874</title>
<ellipse fill="none" stroke="lightgray" cx="46.7958" cy="-306" rx="27" ry="18"/>
<text text-anchor="middle" x="46.7958" y="-302.3" font-family="Times New Roman,serif" font-size="14.00" fill="lightgray">wph</text>
</g>
<!-- n1874&#45;&gt;n1879 -->
<g id="edge8" class="edge"><title>n1874&#45;&gt;n1879</title>
<path fill="none" stroke="lightgray" d="M71.6142,-298.896C102.323,-289.227 156.856,-270.308 199.592,-246 206.399,-242.128 213.311,-237.296 219.577,-232.5"/>
<polygon fill="lightgray" stroke="lightgray" points="222.003,-235.043 227.651,-226.078 217.646,-229.564 222.003,-235.043"/>
<text text-anchor="middle" x="155.592" y="-288.8" font-family="Times New Roman,serif" font-size="14.00" fill="lightgray">wff ph</text>
</g>
<!-- n1875 -->
<g id="node10" class="node"><title>n1875</title>
<ellipse fill="none" stroke="lightgray" cx="46.7958" cy="-234" rx="27" ry="18"/>
<text text-anchor="middle" x="46.7958" y="-230.3" font-family="Times New Roman,serif" font-size="14.00" fill="lightgray">wph</text>
</g>
<!-- n1874&#45;&gt;n1875 -->
<g id="edge14" class="edge"><title>n1874&#45;&gt;n1875</title>
</g>
<!-- n1879&#45;&gt;n1880 -->
<g id="edge13" class="edge"><title>n1879&#45;&gt;n1880</title>
<path fill="none" stroke="black" d="M270.472,-217.339C305.044,-225.487 368.751,-243.191 416.592,-272 427.151,-278.359 437.406,-287.169 445.903,-295.445"/>
<polygon fill="black" stroke="black" points="443.656,-298.151 453.172,-302.81 448.638,-293.234 443.656,-298.151"/>
<text text-anchor="middle" x="353.092" y="-275.8" font-family="Times New Roman,serif" font-size="14.00">|&#45; ( ( ph &#45;&gt; ph ) &#45;&gt; ps )</text>
</g>
<!-- n1875&#45;&gt;n1879 -->
<g id="edge9" class="edge"><title>n1875&#45;&gt;n1879</title>
<path fill="none" stroke="lightgray" d="M73.796,-231.079C108.122,-227.222 168.729,-220.412 207.484,-216.057"/>
<polygon fill="lightgray" stroke="lightgray" points="208.249,-219.493 217.796,-214.898 207.468,-212.537 208.249,-219.493"/>
<text text-anchor="middle" x="155.592" y="-230.8" font-family="Times New Roman,serif" font-size="14.00" fill="lightgray">wff ph</text>
</g>
<!-- n1876 -->
<g id="node11" class="node"><title>n1876</title>
<ellipse fill="none" stroke="lightgray" cx="46.7958" cy="-162" rx="27" ry="18"/>
<text text-anchor="middle" x="46.7958" y="-158.3" font-family="Times New Roman,serif" font-size="14.00" fill="lightgray">wps</text>
</g>
<!-- n1875&#45;&gt;n1876 -->
<g id="edge15" class="edge"><title>n1875&#45;&gt;n1876</title>
</g>
<!-- n1876&#45;&gt;n1879 -->
<g id="edge10" class="edge"><title>n1876&#45;&gt;n1879</title>
<path fill="none" stroke="lightgray" d="M72.604,-167.66C102.738,-174.624 155.067,-187.004 199.592,-199 202.822,-199.87 206.177,-200.805 209.528,-201.759"/>
<polygon fill="lightgray" stroke="lightgray" points="208.865,-205.211 219.444,-204.638 210.816,-198.489 208.865,-205.211"/>
<text text-anchor="middle" x="155.592" y="-202.8" font-family="Times New Roman,serif" font-size="14.00" fill="lightgray">wff ps</text>
</g>
<!-- n1877 -->
<g id="node12" class="node"><title>n1877</title>
<ellipse fill="orange" stroke="black" cx="46.7958" cy="-90" rx="46.5926" ry="18"/>
<text text-anchor="middle" x="46.7958" y="-86.3" font-family="Times New Roman,serif" font-size="14.00">pm2.61i.2</text>
</g>
<!-- n1876&#45;&gt;n1877 -->
<g id="edge16" class="edge"><title>n1876&#45;&gt;n1877</title>
</g>
<!-- n1877&#45;&gt;n1879 -->
<g id="edge11" class="edge"><title>n1877&#45;&gt;n1879</title>
<path fill="none" stroke="black" d="M83.6985,-101.136C116.118,-112.34 164.048,-131.852 199.592,-159 209.883,-166.86 219.34,-177.553 226.828,-187.276"/>
<polygon fill="black" stroke="black" points="224.121,-189.503 232.872,-195.476 229.755,-185.349 224.121,-189.503"/>
<text text-anchor="middle" x="155.592" y="-162.8" font-family="Times New Roman,serif" font-size="14.00">|&#45; ( &#45;. ph &#45;&gt; ps )</text>
</g>
<!-- n1878 -->
<g id="node13" class="node"><title>n1878</title>
<ellipse fill="orange" stroke="black" cx="46.7958" cy="-18" rx="46.5926" ry="18"/>
<text text-anchor="middle" x="46.7958" y="-14.3" font-family="Times New Roman,serif" font-size="14.00">pm2.61i.1</text>
</g>
<!-- n1877&#45;&gt;n1878 -->
<g id="edge17" class="edge"><title>n1877&#45;&gt;n1878</title>
</g>
<!-- n1878&#45;&gt;n1879 -->
<g id="edge12" class="edge"><title>n1878&#45;&gt;n1879</title>
<path fill="none" stroke="black" d="M85.4526,-28.1776C119.542,-39.1877 168.97,-59.9033 199.592,-94 222.447,-119.449 233.8,-157.862 239.174,-183.889"/>
<polygon fill="black" stroke="black" points="235.766,-184.704 241.069,-193.876 242.643,-183.399 235.766,-184.704"/>
<text text-anchor="middle" x="155.592" y="-97.8" font-family="Times New Roman,serif" font-size="14.00">|&#45; ( ph &#45;&gt; ps )</text>
</g>
</g>
</svg>
