<?xml version="1.0" encoding="UTF-8" standalone="no"?>
<!DOCTYPE svg PUBLIC "-//W3C//DTD SVG 1.1//EN"
 "http://www.w3.org/Graphics/SVG/1.1/DTD/svg11.dtd">
<!-- Generated by graphviz version 2.38.0 (20140413.2041)
 -->
<!-- Title: proof_pm2_67_2 Pages: 1 -->
<svg width="731pt" height="291pt"
 viewBox="0.00 0.00 731.39 291.00" xmlns="http://www.w3.org/2000/svg" xmlns:xlink="http://www.w3.org/1999/xlink">
<g id="graph0" class="graph" transform="scale(1 1) rotate(0) translate(4 287)">
<title>proof_pm2_67_2</title>
<polygon fill="white" stroke="none" points="-4,4 -4,-287 727.389,-287 727.389,4 -4,4"/>
<!-- n7454 -->
<g id="node1" class="node"><title>n7454</title>
<ellipse fill="none" stroke="lightgray" cx="154" cy="-265" rx="27" ry="18"/>
<text text-anchor="middle" x="154" y="-261.3" font-family="Times New Roman,serif" font-size="14.00" fill="lightgray">wph</text>
</g>
<!-- n7462 -->
<g id="node2" class="node"><title>n7462</title>
<ellipse fill="cyan" stroke="black" cx="372.447" cy="-156" rx="34.394" ry="18"/>
<text text-anchor="middle" x="372.447" y="-152.3" font-family="Times New Roman,serif" font-size="14.00">imim1i</text>
</g>
<!-- n7454&#45;&gt;n7462 -->
<g id="edge1" class="edge"><title>n7454&#45;&gt;n7462</title>
<path fill="none" stroke="lightgray" d="M179.579,-259.189C213.068,-250.565 274.114,-232.287 320,-204 330.777,-197.356 341.26,-188.225 349.921,-179.709"/>
<polygon fill="lightgray" stroke="lightgray" points="352.524,-182.053 357.025,-172.461 347.525,-177.153 352.524,-182.053"/>
<text text-anchor="middle" x="259.5" y="-256.8" font-family="Times New Roman,serif" font-size="14.00" fill="lightgray">wff ph</text>
</g>
<!-- n7457 -->
<g id="node4" class="node"><title>n7457</title>
<ellipse fill="none" stroke="lightgray" cx="154" cy="-193" rx="27" ry="18"/>
<text text-anchor="middle" x="154" y="-189.3" font-family="Times New Roman,serif" font-size="14.00" fill="lightgray">wo</text>
</g>
<!-- n7454&#45;&gt;n7457 -->
<g id="edge12" class="edge"><title>n7454&#45;&gt;n7457</title>
</g>
<!-- QED -->
<g id="node10" class="node"><title>QED</title>
</g>
<!-- n7462&#45;&gt;QED -->
<g id="edge11" class="edge"><title>n7462&#45;&gt;QED</title>
<path fill="none" stroke="black" d="M407.056,-156C466.765,-156 590.994,-156 654.277,-156"/>
<polygon fill="black" stroke="black" points="654.623,-159.5 664.623,-156 654.623,-152.5 654.623,-159.5"/>
<text text-anchor="middle" x="535.894" y="-159.8" font-family="Times New Roman,serif" font-size="14.00">|&#45; ( ( ( ph \/ ch ) &#45;&gt; ps ) &#45;&gt; ( ph &#45;&gt; ps ) )</text>
</g>
<!-- n7455 -->
<g id="node3" class="node"><title>n7455</title>
<ellipse fill="none" stroke="lightgray" cx="27" cy="-225" rx="27" ry="18"/>
<text text-anchor="middle" x="27" y="-221.3" font-family="Times New Roman,serif" font-size="14.00" fill="lightgray">wph</text>
</g>
<!-- n7455&#45;&gt;n7457 -->
<g id="edge2" class="edge"><title>n7455&#45;&gt;n7457</title>
<path fill="none" stroke="lightgray" d="M52.398,-218.754C71.326,-213.909 97.7933,-207.133 118.83,-201.748"/>
<polygon fill="lightgray" stroke="lightgray" points="119.844,-205.101 128.664,-199.23 118.108,-198.32 119.844,-205.101"/>
<text text-anchor="middle" x="90.5" y="-216.8" font-family="Times New Roman,serif" font-size="14.00" fill="lightgray">wff ph</text>
</g>
<!-- n7456 -->
<g id="node5" class="node"><title>n7456</title>
<ellipse fill="none" stroke="lightgray" cx="27" cy="-153" rx="27" ry="18"/>
<text text-anchor="middle" x="27" y="-149.3" font-family="Times New Roman,serif" font-size="14.00" fill="lightgray">wch</text>
</g>
<!-- n7455&#45;&gt;n7456 -->
<g id="edge5" class="edge"><title>n7455&#45;&gt;n7456</title>
</g>
<!-- n7457&#45;&gt;n7462 -->
<g id="edge4" class="edge"><title>n7457&#45;&gt;n7462</title>
<path fill="none" stroke="lightgray" d="M180.253,-188.683C216.877,-182.423 285.183,-170.746 329.458,-163.178"/>
<polygon fill="lightgray" stroke="lightgray" points="330.073,-166.623 339.34,-161.488 328.893,-159.724 330.073,-166.623"/>
<text text-anchor="middle" x="259.5" y="-188.8" font-family="Times New Roman,serif" font-size="14.00" fill="lightgray">wff ( ph \/ ch )</text>
</g>
<!-- n7458 -->
<g id="node6" class="node"><title>n7458</title>
<ellipse fill="none" stroke="lightgray" cx="154" cy="-121" rx="27" ry="18"/>
<text text-anchor="middle" x="154" y="-117.3" font-family="Times New Roman,serif" font-size="14.00" fill="lightgray">wps</text>
</g>
<!-- n7457&#45;&gt;n7458 -->
<g id="edge13" class="edge"><title>n7457&#45;&gt;n7458</title>
</g>
<!-- n7456&#45;&gt;n7457 -->
<g id="edge3" class="edge"><title>n7456&#45;&gt;n7457</title>
<path fill="none" stroke="lightgray" d="M51.8058,-160.618C71.0071,-166.762 98.2415,-175.477 119.621,-182.319"/>
<polygon fill="lightgray" stroke="lightgray" points="118.692,-185.696 129.283,-185.411 120.825,-179.029 118.692,-185.696"/>
<text text-anchor="middle" x="90.5" y="-181.8" font-family="Times New Roman,serif" font-size="14.00" fill="lightgray">wff ch</text>
</g>
<!-- n7458&#45;&gt;n7462 -->
<g id="edge6" class="edge"><title>n7458&#45;&gt;n7462</title>
<path fill="none" stroke="lightgray" d="M180.461,-124.876C212.892,-129.843 270.653,-138.796 320,-147 323.175,-147.528 326.459,-148.082 329.761,-148.646"/>
<polygon fill="lightgray" stroke="lightgray" points="329.177,-152.097 339.626,-150.347 330.366,-145.199 329.177,-152.097"/>
<text text-anchor="middle" x="259.5" y="-150.8" font-family="Times New Roman,serif" font-size="14.00" fill="lightgray">wff ps</text>
</g>
<!-- n7461 -->
<g id="node8" class="node"><title>n7461</title>
<ellipse fill="cyan" stroke="black" cx="154" cy="-49" rx="27" ry="18"/>
<text text-anchor="middle" x="154" y="-45.3" font-family="Times New Roman,serif" font-size="14.00">orc</text>
</g>
<!-- n7458&#45;&gt;n7461 -->
<g id="edge14" class="edge"><title>n7458&#45;&gt;n7461</title>
</g>
<!-- n7459 -->
<g id="node7" class="node"><title>n7459</title>
<ellipse fill="none" stroke="lightgray" cx="27" cy="-90" rx="27" ry="18"/>
<text text-anchor="middle" x="27" y="-86.3" font-family="Times New Roman,serif" font-size="14.00" fill="lightgray">wph</text>
</g>
<!-- n7459&#45;&gt;n7461 -->
<g id="edge7" class="edge"><title>n7459&#45;&gt;n7461</title>
<path fill="none" stroke="lightgray" d="M51.5115,-82.2882C70.6821,-76.0003 98.0008,-67.0397 119.466,-59.999"/>
<polygon fill="lightgray" stroke="lightgray" points="120.758,-63.259 129.169,-56.8166 118.576,-56.6076 120.758,-63.259"/>
<text text-anchor="middle" x="90.5" y="-79.8" font-family="Times New Roman,serif" font-size="14.00" fill="lightgray">wff ph</text>
</g>
<!-- n7460 -->
<g id="node9" class="node"><title>n7460</title>
<ellipse fill="none" stroke="lightgray" cx="27" cy="-18" rx="27" ry="18"/>
<text text-anchor="middle" x="27" y="-14.3" font-family="Times New Roman,serif" font-size="14.00" fill="lightgray">wch</text>
</g>
<!-- n7459&#45;&gt;n7460 -->
<g id="edge10" class="edge"><title>n7459&#45;&gt;n7460</title>
</g>
<!-- n7461&#45;&gt;n7462 -->
<g id="edge9" class="edge"><title>n7461&#45;&gt;n7462</title>
<path fill="none" stroke="black" d="M179.493,-54.9519C212.884,-63.7381 273.817,-82.2009 320,-110 330.374,-116.245 340.575,-124.728 349.123,-132.709"/>
<polygon fill="black" stroke="black" points="346.847,-135.377 356.466,-139.819 351.717,-130.348 346.847,-135.377"/>
<text text-anchor="middle" x="259.5" y="-113.8" font-family="Times New Roman,serif" font-size="14.00">|&#45; ( ph &#45;&gt; ( ph \/ ch ) )</text>
</g>
<!-- n7460&#45;&gt;n7461 -->
<g id="edge8" class="edge"><title>n7460&#45;&gt;n7461</title>
<path fill="none" stroke="lightgray" d="M52.9209,-23.0759C68.9941,-26.4633 90.311,-31.1686 109,-36 112.239,-36.8373 115.599,-37.7498 118.954,-38.6903"/>
<polygon fill="lightgray" stroke="lightgray" points="118.298,-42.1433 128.876,-41.5483 120.235,-35.4169 118.298,-42.1433"/>
<text text-anchor="middle" x="90.5" y="-39.8" font-family="Times New Roman,serif" font-size="14.00" fill="lightgray">wff ch</text>
</g>
</g>
</svg>
