<?xml version="1.0" encoding="UTF-8" standalone="no"?>
<!DOCTYPE svg PUBLIC "-//W3C//DTD SVG 1.1//EN"
 "http://www.w3.org/Graphics/SVG/1.1/DTD/svg11.dtd">
<!-- Generated by graphviz version 2.38.0 (20140413.2041)
 -->
<!-- Title: proof_pm2_63 Pages: 1 -->
<svg width="981pt" height="524pt"
 viewBox="0.00 0.00 981.19 524.00" xmlns="http://www.w3.org/2000/svg" xmlns:xlink="http://www.w3.org/1999/xlink">
<g id="graph0" class="graph" transform="scale(1 1) rotate(0) translate(4 520)">
<title>proof_pm2_63</title>
<polygon fill="white" stroke="none" points="-4,4 -4,-520 977.188,-520 977.188,4 -4,4"/>
<!-- n13397 -->
<g id="node1" class="node"><title>n13397</title>
<ellipse fill="none" stroke="lightgray" cx="154" cy="-498" rx="27" ry="18"/>
<text text-anchor="middle" x="154" y="-494.3" font-family="Times New Roman,serif" font-size="14.00" fill="lightgray">wph</text>
</g>
<!-- n13399 -->
<g id="node2" class="node"><title>n13399</title>
<ellipse fill="none" stroke="lightgray" cx="337.347" cy="-440" rx="27" ry="18"/>
<text text-anchor="middle" x="337.347" y="-436.3" font-family="Times New Roman,serif" font-size="14.00" fill="lightgray">wo</text>
</g>
<!-- n13397&#45;&gt;n13399 -->
<g id="edge1" class="edge"><title>n13397&#45;&gt;n13399</title>
<path fill="none" stroke="lightgray" d="M178.708,-490.418C210.476,-480.257 267.023,-462.172 303.052,-450.648"/>
<polygon fill="lightgray" stroke="lightgray" points="304.174,-453.964 312.633,-447.584 302.042,-447.297 304.174,-453.964"/>
<text text-anchor="middle" x="240" y="-485.8" font-family="Times New Roman,serif" font-size="14.00" fill="lightgray">wff ph</text>
</g>
<!-- n13398 -->
<g id="node3" class="node"><title>n13398</title>
<ellipse fill="none" stroke="lightgray" cx="154" cy="-426" rx="27" ry="18"/>
<text text-anchor="middle" x="154" y="-422.3" font-family="Times New Roman,serif" font-size="14.00" fill="lightgray">wps</text>
</g>
<!-- n13397&#45;&gt;n13398 -->
<g id="edge4" class="edge"><title>n13397&#45;&gt;n13398</title>
</g>
<!-- n13412 -->
<g id="node4" class="node"><title>n13412</title>
<ellipse fill="cyan" stroke="black" cx="622.693" cy="-259" rx="27" ry="18"/>
<text text-anchor="middle" x="622.693" y="-255.3" font-family="Times New Roman,serif" font-size="14.00">jaod</text>
</g>
<!-- n13399&#45;&gt;n13412 -->
<g id="edge3" class="edge"><title>n13399&#45;&gt;n13412</title>
<path fill="none" stroke="lightgray" d="M364.304,-441.369C412.553,-442.464 516.678,-437.802 577.693,-383 605.119,-358.367 615.452,-315.513 619.344,-287.2"/>
<polygon fill="lightgray" stroke="lightgray" points="622.836,-287.473 620.542,-277.13 615.885,-286.646 622.836,-287.473"/>
<text text-anchor="middle" x="485.693" y="-445.8" font-family="Times New Roman,serif" font-size="14.00" fill="lightgray">wff ( ph \/ ps )</text>
</g>
<!-- n13401 -->
<g id="node6" class="node"><title>n13401</title>
<ellipse fill="none" stroke="lightgray" cx="337.347" cy="-368" rx="27" ry="18"/>
<text text-anchor="middle" x="337.347" y="-364.3" font-family="Times New Roman,serif" font-size="14.00" fill="lightgray">wn</text>
</g>
<!-- n13399&#45;&gt;n13401 -->
<g id="edge21" class="edge"><title>n13399&#45;&gt;n13401</title>
</g>
<!-- n13398&#45;&gt;n13399 -->
<g id="edge2" class="edge"><title>n13398&#45;&gt;n13399</title>
<path fill="none" stroke="lightgray" d="M180.983,-428.006C212.225,-430.418 264.846,-434.48 300.079,-437.2"/>
<polygon fill="lightgray" stroke="lightgray" points="300.172,-440.718 310.412,-437.998 300.711,-433.738 300.172,-440.718"/>
<text text-anchor="middle" x="240" y="-439.8" font-family="Times New Roman,serif" font-size="14.00" fill="lightgray">wff ps</text>
</g>
<!-- QED -->
<g id="node17" class="node"><title>QED</title>
</g>
<!-- n13412&#45;&gt;QED -->
<g id="edge20" class="edge"><title>n13412&#45;&gt;QED</title>
<path fill="none" stroke="black" d="M649.819,-259C705.962,-259 838.357,-259 904.267,-259"/>
<polygon fill="black" stroke="black" points="904.631,-262.5 914.631,-259 904.631,-255.5 904.631,-262.5"/>
<text text-anchor="middle" x="782.193" y="-262.8" font-family="Times New Roman,serif" font-size="14.00">|&#45; ( ( ph \/ ps ) &#45;&gt; ( ( &#45;. ph \/ ps ) &#45;&gt; ps ) )</text>
</g>
<!-- n13400 -->
<g id="node5" class="node"><title>n13400</title>
<ellipse fill="none" stroke="lightgray" cx="154" cy="-368" rx="27" ry="18"/>
<text text-anchor="middle" x="154" y="-364.3" font-family="Times New Roman,serif" font-size="14.00" fill="lightgray">wph</text>
</g>
<!-- n13400&#45;&gt;n13401 -->
<g id="edge5" class="edge"><title>n13400&#45;&gt;n13401</title>
<path fill="none" stroke="lightgray" d="M181.369,-368C212.617,-368 264.857,-368 299.944,-368"/>
<polygon fill="lightgray" stroke="lightgray" points="300.24,-371.5 310.24,-368 300.24,-364.5 300.24,-371.5"/>
<text text-anchor="middle" x="240" y="-371.8" font-family="Times New Roman,serif" font-size="14.00" fill="lightgray">wff ph</text>
</g>
<!-- n13401&#45;&gt;n13412 -->
<g id="edge6" class="edge"><title>n13401&#45;&gt;n13412</title>
<path fill="none" stroke="lightgray" d="M364.333,-366.44C410.421,-362.646 508.163,-349.902 577.693,-308 588.04,-301.765 597.341,-292.33 604.697,-283.398"/>
<polygon fill="lightgray" stroke="lightgray" points="607.506,-285.487 610.88,-275.444 601.979,-281.191 607.506,-285.487"/>
<text text-anchor="middle" x="485.693" y="-367.8" font-family="Times New Roman,serif" font-size="14.00" fill="lightgray">wff &#45;. ph</text>
</g>
<!-- n13402 -->
<g id="node7" class="node"><title>n13402</title>
<ellipse fill="none" stroke="lightgray" cx="337.347" cy="-296" rx="27" ry="18"/>
<text text-anchor="middle" x="337.347" y="-292.3" font-family="Times New Roman,serif" font-size="14.00" fill="lightgray">wps</text>
</g>
<!-- n13401&#45;&gt;n13402 -->
<g id="edge22" class="edge"><title>n13401&#45;&gt;n13402</title>
</g>
<!-- n13402&#45;&gt;n13412 -->
<g id="edge7" class="edge"><title>n13402&#45;&gt;n13412</title>
<path fill="none" stroke="lightgray" d="M364.209,-292.708C408.112,-287.107 500.023,-275.325 577.693,-265 580.394,-264.641 583.188,-264.267 585.998,-263.888"/>
<polygon fill="lightgray" stroke="lightgray" points="586.664,-267.33 596.104,-262.519 585.725,-260.393 586.664,-267.33"/>
<text text-anchor="middle" x="485.693" y="-292.8" font-family="Times New Roman,serif" font-size="14.00" fill="lightgray">wff ps</text>
</g>
<!-- n13403 -->
<g id="node8" class="node"><title>n13403</title>
<ellipse fill="none" stroke="lightgray" cx="337.347" cy="-224" rx="27" ry="18"/>
<text text-anchor="middle" x="337.347" y="-220.3" font-family="Times New Roman,serif" font-size="14.00" fill="lightgray">wps</text>
</g>
<!-- n13402&#45;&gt;n13403 -->
<g id="edge23" class="edge"><title>n13402&#45;&gt;n13403</title>
</g>
<!-- n13403&#45;&gt;n13412 -->
<g id="edge8" class="edge"><title>n13403&#45;&gt;n13412</title>
<path fill="none" stroke="lightgray" d="M364.306,-226.019C408.353,-229.623 500.468,-237.935 577.693,-250 580.582,-250.451 583.569,-250.964 586.562,-251.509"/>
<polygon fill="lightgray" stroke="lightgray" points="586.155,-254.995 596.637,-253.453 587.481,-248.122 586.155,-254.995"/>
<text text-anchor="middle" x="485.693" y="-253.8" font-family="Times New Roman,serif" font-size="14.00" fill="lightgray">wff ps</text>
</g>
<!-- n13406 -->
<g id="node10" class="node"><title>n13406</title>
<ellipse fill="cyan" stroke="black" cx="337.347" cy="-152" rx="38.1938" ry="18"/>
<text text-anchor="middle" x="337.347" y="-148.3" font-family="Times New Roman,serif" font-size="14.00">pm2.53</text>
</g>
<!-- n13403&#45;&gt;n13406 -->
<g id="edge24" class="edge"><title>n13403&#45;&gt;n13406</title>
</g>
<!-- n13404 -->
<g id="node9" class="node"><title>n13404</title>
<ellipse fill="none" stroke="lightgray" cx="154" cy="-221" rx="27" ry="18"/>
<text text-anchor="middle" x="154" y="-217.3" font-family="Times New Roman,serif" font-size="14.00" fill="lightgray">wph</text>
</g>
<!-- n13404&#45;&gt;n13406 -->
<g id="edge9" class="edge"><title>n13404&#45;&gt;n13406</title>
<path fill="none" stroke="lightgray" d="M177.968,-212.261C207.936,-200.858 260.83,-180.733 297.187,-166.9"/>
<polygon fill="lightgray" stroke="lightgray" points="298.869,-170.005 306.971,-163.177 296.38,-163.462 298.869,-170.005"/>
<text text-anchor="middle" x="240" y="-206.8" font-family="Times New Roman,serif" font-size="14.00" fill="lightgray">wff ph</text>
</g>
<!-- n13405 -->
<g id="node11" class="node"><title>n13405</title>
<ellipse fill="none" stroke="lightgray" cx="154" cy="-149" rx="27" ry="18"/>
<text text-anchor="middle" x="154" y="-145.3" font-family="Times New Roman,serif" font-size="14.00" fill="lightgray">wps</text>
</g>
<!-- n13404&#45;&gt;n13405 -->
<g id="edge12" class="edge"><title>n13404&#45;&gt;n13405</title>
</g>
<!-- n13406&#45;&gt;n13412 -->
<g id="edge11" class="edge"><title>n13406&#45;&gt;n13412</title>
<path fill="none" stroke="black" d="M375.776,-154.222C425.197,-158.617 513.457,-171.632 577.693,-210 588.064,-216.194 597.369,-225.622 604.722,-234.559"/>
<polygon fill="black" stroke="black" points="602.005,-236.767 610.9,-242.522 607.535,-232.476 602.005,-236.767"/>
<text text-anchor="middle" x="485.693" y="-213.8" font-family="Times New Roman,serif" font-size="14.00">|&#45; ( ( ph \/ ps ) &#45;&gt; ( &#45;. ph &#45;&gt; ps ) )</text>
</g>
<!-- n13411 -->
<g id="node15" class="node"><title>n13411</title>
<ellipse fill="cyan" stroke="black" cx="337.347" cy="-80" rx="27" ry="18"/>
<text text-anchor="middle" x="337.347" y="-76.3" font-family="Times New Roman,serif" font-size="14.00">idd</text>
</g>
<!-- n13406&#45;&gt;n13411 -->
<g id="edge25" class="edge"><title>n13406&#45;&gt;n13411</title>
</g>
<!-- n13405&#45;&gt;n13406 -->
<g id="edge10" class="edge"><title>n13405&#45;&gt;n13406</title>
<path fill="none" stroke="lightgray" d="M181.369,-149.436C209.412,-149.9 254.362,-150.644 288.647,-151.211"/>
<polygon fill="lightgray" stroke="lightgray" points="288.858,-154.715 298.915,-151.381 288.974,-147.716 288.858,-154.715"/>
<text text-anchor="middle" x="240" y="-155.8" font-family="Times New Roman,serif" font-size="14.00" fill="lightgray">wff ps</text>
</g>
<!-- n13407 -->
<g id="node12" class="node"><title>n13407</title>
<ellipse fill="none" stroke="lightgray" cx="27" cy="-135" rx="27" ry="18"/>
<text text-anchor="middle" x="27" y="-131.3" font-family="Times New Roman,serif" font-size="14.00" fill="lightgray">wps</text>
</g>
<!-- n13409 -->
<g id="node13" class="node"><title>n13409</title>
<ellipse fill="none" stroke="lightgray" cx="154" cy="-90" rx="27" ry="18"/>
<text text-anchor="middle" x="154" y="-86.3" font-family="Times New Roman,serif" font-size="14.00" fill="lightgray">wo</text>
</g>
<!-- n13407&#45;&gt;n13409 -->
<g id="edge13" class="edge"><title>n13407&#45;&gt;n13409</title>
<path fill="none" stroke="lightgray" d="M51.2186,-126.641C70.6886,-119.632 98.7117,-109.544 120.426,-101.727"/>
<polygon fill="lightgray" stroke="lightgray" points="121.682,-104.994 129.906,-98.3139 119.311,-98.4081 121.682,-104.994"/>
<text text-anchor="middle" x="90.5" y="-123.8" font-family="Times New Roman,serif" font-size="14.00" fill="lightgray">wff ps</text>
</g>
<!-- n13408 -->
<g id="node14" class="node"><title>n13408</title>
<ellipse fill="none" stroke="lightgray" cx="27" cy="-63" rx="27" ry="18"/>
<text text-anchor="middle" x="27" y="-59.3" font-family="Times New Roman,serif" font-size="14.00" fill="lightgray">wph</text>
</g>
<!-- n13407&#45;&gt;n13408 -->
<g id="edge16" class="edge"><title>n13407&#45;&gt;n13408</title>
</g>
<!-- n13409&#45;&gt;n13411 -->
<g id="edge15" class="edge"><title>n13409&#45;&gt;n13411</title>
<path fill="none" stroke="lightgray" d="M180.983,-88.5672C212.225,-86.8445 264.846,-83.9427 300.079,-81.9999"/>
<polygon fill="lightgray" stroke="lightgray" points="300.62,-85.4755 310.412,-81.4301 300.235,-78.4861 300.62,-85.4755"/>
<text text-anchor="middle" x="240" y="-91.8" font-family="Times New Roman,serif" font-size="14.00" fill="lightgray">wff ( ph \/ ps )</text>
</g>
<!-- n13410 -->
<g id="node16" class="node"><title>n13410</title>
<ellipse fill="none" stroke="lightgray" cx="154" cy="-18" rx="27" ry="18"/>
<text text-anchor="middle" x="154" y="-14.3" font-family="Times New Roman,serif" font-size="14.00" fill="lightgray">wps</text>
</g>
<!-- n13409&#45;&gt;n13410 -->
<g id="edge19" class="edge"><title>n13409&#45;&gt;n13410</title>
</g>
<!-- n13408&#45;&gt;n13409 -->
<g id="edge14" class="edge"><title>n13408&#45;&gt;n13409</title>
<path fill="none" stroke="lightgray" d="M52.9952,-68.399C71.6456,-72.4275 97.3666,-77.9832 118.053,-82.4514"/>
<polygon fill="lightgray" stroke="lightgray" points="117.535,-85.9201 128.048,-84.6104 119.013,-79.0779 117.535,-85.9201"/>
<text text-anchor="middle" x="90.5" y="-84.8" font-family="Times New Roman,serif" font-size="14.00" fill="lightgray">wff ph</text>
</g>
<!-- n13411&#45;&gt;n13412 -->
<g id="edge18" class="edge"><title>n13411&#45;&gt;n13412</title>
<path fill="none" stroke="black" d="M364.651,-78.7932C413.013,-78.0342 516.674,-83.4054 577.693,-138 604.311,-161.816 614.843,-203.042 618.999,-230.666"/>
<polygon fill="black" stroke="black" points="615.568,-231.416 620.34,-240.875 622.508,-230.504 615.568,-231.416"/>
<text text-anchor="middle" x="485.693" y="-141.8" font-family="Times New Roman,serif" font-size="14.00">|&#45; ( ( ph \/ ps ) &#45;&gt; ( ps &#45;&gt; ps ) )</text>
</g>
<!-- n13410&#45;&gt;n13411 -->
<g id="edge17" class="edge"><title>n13410&#45;&gt;n13411</title>
<path fill="none" stroke="lightgray" d="M178.337,-25.9785C210.165,-36.8602 267.353,-56.4121 303.501,-68.7704"/>
<polygon fill="lightgray" stroke="lightgray" points="302.505,-72.1288 313.1,-72.0521 304.77,-65.5052 302.505,-72.1288"/>
<text text-anchor="middle" x="240" y="-63.8" font-family="Times New Roman,serif" font-size="14.00" fill="lightgray">wff ps</text>
</g>
</g>
</svg>
