<?xml version="1.0" encoding="UTF-8" standalone="no"?>
<!DOCTYPE svg PUBLIC "-//W3C//DTD SVG 1.1//EN"
 "http://www.w3.org/Graphics/SVG/1.1/DTD/svg11.dtd">
<!-- Generated by graphviz version 2.38.0 (20140413.2041)
 -->
<!-- Title: proof_pm2_3 Pages: 1 -->
<svg width="822pt" height="376pt"
 viewBox="0.00 0.00 821.68 376.00" xmlns="http://www.w3.org/2000/svg" xmlns:xlink="http://www.w3.org/1999/xlink">
<g id="graph0" class="graph" transform="scale(1 1) rotate(0) translate(4 372)">
<title>proof_pm2_3</title>
<polygon fill="white" stroke="none" points="-4,4 -4,-372 817.683,-372 817.683,4 -4,4"/>
<!-- n9683 -->
<g id="node1" class="node"><title>n9683</title>
<ellipse fill="none" stroke="lightgray" cx="27" cy="-350" rx="27" ry="18"/>
<text text-anchor="middle" x="27" y="-346.3" font-family="Times New Roman,serif" font-size="14.00" fill="lightgray">wps</text>
</g>
<!-- n9685 -->
<g id="node2" class="node"><title>n9685</title>
<ellipse fill="none" stroke="lightgray" cx="160.797" cy="-291" rx="27" ry="18"/>
<text text-anchor="middle" x="160.797" y="-287.3" font-family="Times New Roman,serif" font-size="14.00" fill="lightgray">wo</text>
</g>
<!-- n9683&#45;&gt;n9685 -->
<g id="edge1" class="edge"><title>n9683&#45;&gt;n9685</title>
<path fill="none" stroke="lightgray" d="M49.7636,-340.257C71.3218,-330.607 104.543,-315.735 128.843,-304.857"/>
<polygon fill="lightgray" stroke="lightgray" points="130.304,-308.038 138.001,-300.757 127.444,-301.649 130.304,-308.038"/>
<text text-anchor="middle" x="90.5" y="-332.8" font-family="Times New Roman,serif" font-size="14.00" fill="lightgray">wff ps</text>
</g>
<!-- n9684 -->
<g id="node3" class="node"><title>n9684</title>
<ellipse fill="none" stroke="lightgray" cx="27" cy="-278" rx="27" ry="18"/>
<text text-anchor="middle" x="27" y="-274.3" font-family="Times New Roman,serif" font-size="14.00" fill="lightgray">wch</text>
</g>
<!-- n9683&#45;&gt;n9684 -->
<g id="edge4" class="edge"><title>n9683&#45;&gt;n9684</title>
</g>
<!-- n9693 -->
<g id="node4" class="node"><title>n9693</title>
<ellipse fill="cyan" stroke="black" cx="429.391" cy="-182" rx="33.5952" ry="18"/>
<text text-anchor="middle" x="429.391" y="-178.3" font-family="Times New Roman,serif" font-size="14.00">orim2i</text>
</g>
<!-- n9685&#45;&gt;n9693 -->
<g id="edge3" class="edge"><title>n9685&#45;&gt;n9693</title>
<path fill="none" stroke="lightgray" d="M187.633,-288C229.796,-282.22 314.97,-266.797 377.594,-231 388.784,-224.604 399.354,-215.191 407.925,-206.321"/>
<polygon fill="lightgray" stroke="lightgray" points="410.697,-208.477 414.907,-198.755 405.553,-203.73 410.697,-208.477"/>
<text text-anchor="middle" x="295.094" y="-288.8" font-family="Times New Roman,serif" font-size="14.00" fill="lightgray">wff ( ps \/ ch )</text>
</g>
<!-- n9688 -->
<g id="node6" class="node"><title>n9688</title>
<ellipse fill="none" stroke="lightgray" cx="160.797" cy="-219" rx="27" ry="18"/>
<text text-anchor="middle" x="160.797" y="-215.3" font-family="Times New Roman,serif" font-size="14.00" fill="lightgray">wo</text>
</g>
<!-- n9685&#45;&gt;n9688 -->
<g id="edge15" class="edge"><title>n9685&#45;&gt;n9688</title>
</g>
<!-- n9684&#45;&gt;n9685 -->
<g id="edge2" class="edge"><title>n9684&#45;&gt;n9685</title>
<path fill="none" stroke="lightgray" d="M54.0388,-280.568C73.9857,-282.536 101.737,-285.273 123.807,-287.45"/>
<polygon fill="lightgray" stroke="lightgray" points="123.517,-290.938 133.812,-288.437 124.204,-283.972 123.517,-290.938"/>
<text text-anchor="middle" x="90.5" y="-290.8" font-family="Times New Roman,serif" font-size="14.00" fill="lightgray">wff ch</text>
</g>
<!-- QED -->
<g id="node12" class="node"><title>QED</title>
</g>
<!-- n9693&#45;&gt;QED -->
<g id="edge14" class="edge"><title>n9693&#45;&gt;QED</title>
<path fill="none" stroke="black" d="M463.288,-182C528.741,-182 674.989,-182 744.849,-182"/>
<polygon fill="black" stroke="black" points="744.982,-185.5 754.982,-182 744.982,-178.5 744.982,-185.5"/>
<text text-anchor="middle" x="609.188" y="-185.8" font-family="Times New Roman,serif" font-size="14.00">|&#45; ( ( ph \/ ( ps \/ ch ) ) &#45;&gt; ( ph \/ ( ch \/ ps ) ) )</text>
</g>
<!-- n9686 -->
<g id="node5" class="node"><title>n9686</title>
<ellipse fill="none" stroke="lightgray" cx="27" cy="-222" rx="27" ry="18"/>
<text text-anchor="middle" x="27" y="-218.3" font-family="Times New Roman,serif" font-size="14.00" fill="lightgray">wch</text>
</g>
<!-- n9686&#45;&gt;n9688 -->
<g id="edge5" class="edge"><title>n9686&#45;&gt;n9688</title>
<path fill="none" stroke="lightgray" d="M54.0388,-221.407C73.7665,-220.958 101.128,-220.335 123.078,-219.836"/>
<polygon fill="lightgray" stroke="lightgray" points="123.443,-223.328 133.361,-219.602 123.284,-216.33 123.443,-223.328"/>
<text text-anchor="middle" x="90.5" y="-224.8" font-family="Times New Roman,serif" font-size="14.00" fill="lightgray">wff ch</text>
</g>
<!-- n9687 -->
<g id="node7" class="node"><title>n9687</title>
<ellipse fill="none" stroke="lightgray" cx="27" cy="-150" rx="27" ry="18"/>
<text text-anchor="middle" x="27" y="-146.3" font-family="Times New Roman,serif" font-size="14.00" fill="lightgray">wps</text>
</g>
<!-- n9686&#45;&gt;n9687 -->
<g id="edge8" class="edge"><title>n9686&#45;&gt;n9687</title>
</g>
<!-- n9688&#45;&gt;n9693 -->
<g id="edge7" class="edge"><title>n9688&#45;&gt;n9693</title>
<path fill="none" stroke="lightgray" d="M187.359,-215.452C233.367,-209.067 330.521,-195.583 386.416,-187.826"/>
<polygon fill="lightgray" stroke="lightgray" points="386.928,-191.288 396.352,-186.447 385.965,-184.355 386.928,-191.288"/>
<text text-anchor="middle" x="295.094" y="-215.8" font-family="Times New Roman,serif" font-size="14.00" fill="lightgray">wff ( ch \/ ps )</text>
</g>
<!-- n9689 -->
<g id="node8" class="node"><title>n9689</title>
<ellipse fill="none" stroke="lightgray" cx="160.797" cy="-147" rx="27" ry="18"/>
<text text-anchor="middle" x="160.797" y="-143.3" font-family="Times New Roman,serif" font-size="14.00" fill="lightgray">wph</text>
</g>
<!-- n9688&#45;&gt;n9689 -->
<g id="edge16" class="edge"><title>n9688&#45;&gt;n9689</title>
</g>
<!-- n9687&#45;&gt;n9688 -->
<g id="edge6" class="edge"><title>n9687&#45;&gt;n9688</title>
<path fill="none" stroke="lightgray" d="M48.8836,-160.933C70.7667,-172.39 105.335,-190.488 130.063,-203.433"/>
<polygon fill="lightgray" stroke="lightgray" points="128.528,-206.58 139.011,-208.118 131.775,-200.379 128.528,-206.58"/>
<text text-anchor="middle" x="90.5" y="-196.8" font-family="Times New Roman,serif" font-size="14.00" fill="lightgray">wff ps</text>
</g>
<!-- n9689&#45;&gt;n9693 -->
<g id="edge9" class="edge"><title>n9689&#45;&gt;n9693</title>
<path fill="none" stroke="lightgray" d="M187.769,-149.659C228.366,-153.921 309.289,-162.842 377.594,-173 380.783,-173.474 384.08,-173.993 387.391,-174.535"/>
<polygon fill="lightgray" stroke="lightgray" points="386.83,-177.989 397.273,-176.205 387.997,-171.087 386.83,-177.989"/>
<text text-anchor="middle" x="295.094" y="-176.8" font-family="Times New Roman,serif" font-size="14.00" fill="lightgray">wff ph</text>
</g>
<!-- n9692 -->
<g id="node10" class="node"><title>n9692</title>
<ellipse fill="cyan" stroke="black" cx="160.797" cy="-75" rx="33.5952" ry="18"/>
<text text-anchor="middle" x="160.797" y="-71.3" font-family="Times New Roman,serif" font-size="14.00">pm1.4</text>
</g>
<!-- n9689&#45;&gt;n9692 -->
<g id="edge17" class="edge"><title>n9689&#45;&gt;n9692</title>
</g>
<!-- n9690 -->
<g id="node9" class="node"><title>n9690</title>
<ellipse fill="none" stroke="lightgray" cx="27" cy="-90" rx="27" ry="18"/>
<text text-anchor="middle" x="27" y="-86.3" font-family="Times New Roman,serif" font-size="14.00" fill="lightgray">wps</text>
</g>
<!-- n9690&#45;&gt;n9692 -->
<g id="edge10" class="edge"><title>n9690&#45;&gt;n9692</title>
<path fill="none" stroke="lightgray" d="M53.7247,-87.0722C71.8793,-85.006 96.6121,-82.1912 117.628,-79.7993"/>
<polygon fill="lightgray" stroke="lightgray" points="118.062,-83.2726 127.602,-78.6642 117.27,-76.3175 118.062,-83.2726"/>
<text text-anchor="middle" x="90.5" y="-88.8" font-family="Times New Roman,serif" font-size="14.00" fill="lightgray">wff ps</text>
</g>
<!-- n9691 -->
<g id="node11" class="node"><title>n9691</title>
<ellipse fill="none" stroke="lightgray" cx="27" cy="-18" rx="27" ry="18"/>
<text text-anchor="middle" x="27" y="-14.3" font-family="Times New Roman,serif" font-size="14.00" fill="lightgray">wch</text>
</g>
<!-- n9690&#45;&gt;n9691 -->
<g id="edge13" class="edge"><title>n9690&#45;&gt;n9691</title>
</g>
<!-- n9692&#45;&gt;n9693 -->
<g id="edge12" class="edge"><title>n9692&#45;&gt;n9693</title>
<path fill="none" stroke="black" d="M194.015,-78.8192C237.898,-85.0954 317.832,-100.415 377.594,-134 388.72,-140.253 399.279,-149.471 407.859,-158.162"/>
<polygon fill="black" stroke="black" points="405.445,-160.704 414.853,-165.576 410.537,-155.9 405.445,-160.704"/>
<text text-anchor="middle" x="295.094" y="-137.8" font-family="Times New Roman,serif" font-size="14.00">|&#45; ( ( ps \/ ch ) &#45;&gt; ( ch \/ ps ) )</text>
</g>
<!-- n9691&#45;&gt;n9692 -->
<g id="edge11" class="edge"><title>n9691&#45;&gt;n9692</title>
<path fill="none" stroke="lightgray" d="M50.0599,-27.5405C70.4122,-36.3426 100.975,-49.5603 124.682,-59.8132"/>
<polygon fill="lightgray" stroke="lightgray" points="123.478,-63.1057 134.045,-63.8629 126.256,-56.6809 123.478,-63.1057"/>
<text text-anchor="middle" x="90.5" y="-57.8" font-family="Times New Roman,serif" font-size="14.00" fill="lightgray">wff ch</text>
</g>
</g>
</svg>
