<?xml version="1.0" encoding="UTF-8" standalone="no"?>
<!DOCTYPE svg PUBLIC "-//W3C//DTD SVG 1.1//EN"
 "http://www.w3.org/Graphics/SVG/1.1/DTD/svg11.dtd">
<!-- Generated by graphviz version 2.38.0 (20140413.2041)
 -->
<!-- Title: proof_pm2_42 Pages: 1 -->
<svg width="986pt" height="511pt"
 viewBox="0.00 0.00 986.19 511.00" xmlns="http://www.w3.org/2000/svg" xmlns:xlink="http://www.w3.org/1999/xlink">
<g id="graph0" class="graph" transform="scale(1 1) rotate(0) translate(4 507)">
<title>proof_pm2_42</title>
<polygon fill="white" stroke="none" points="-4,4 -4,-507 982.188,-507 982.188,4 -4,4"/>
<!-- n9709 -->
<g id="node1" class="node"><title>n9709</title>
<ellipse fill="none" stroke="lightgray" cx="154" cy="-485" rx="27" ry="18"/>
<text text-anchor="middle" x="154" y="-481.3" font-family="Times New Roman,serif" font-size="14.00" fill="lightgray">wph</text>
</g>
<!-- n9710 -->
<g id="node2" class="node"><title>n9710</title>
<ellipse fill="none" stroke="lightgray" cx="343.347" cy="-408" rx="27" ry="18"/>
<text text-anchor="middle" x="343.347" y="-404.3" font-family="Times New Roman,serif" font-size="14.00" fill="lightgray">wn</text>
</g>
<!-- n9709&#45;&gt;n9710 -->
<g id="edge1" class="edge"><title>n9709&#45;&gt;n9710</title>
<path fill="none" stroke="lightgray" d="M177.598,-475.712C210.743,-462.09 272.687,-436.63 310.452,-421.109"/>
<polygon fill="lightgray" stroke="lightgray" points="312.041,-424.24 319.96,-417.201 309.38,-417.765 312.041,-424.24"/>
<text text-anchor="middle" x="243" y="-469.8" font-family="Times New Roman,serif" font-size="14.00" fill="lightgray">wff ph</text>
</g>
<!-- n9724 -->
<g id="node3" class="node"><title>n9724</title>
<ellipse fill="cyan" stroke="black" cx="621.693" cy="-262" rx="27" ry="18"/>
<text text-anchor="middle" x="621.693" y="-258.3" font-family="Times New Roman,serif" font-size="14.00">jaoi</text>
</g>
<!-- n9710&#45;&gt;n9724 -->
<g id="edge2" class="edge"><title>n9710&#45;&gt;n9724</title>
<path fill="none" stroke="lightgray" d="M370.691,-407.3C417.183,-404.763 514.721,-393.456 576.693,-344 594.167,-330.055 605.606,-307.228 612.429,-289.194"/>
<polygon fill="lightgray" stroke="lightgray" points="615.732,-290.351 615.754,-279.756 609.13,-288.025 615.732,-290.351"/>
<text text-anchor="middle" x="488.193" y="-407.8" font-family="Times New Roman,serif" font-size="14.00" fill="lightgray">wff &#45;. ph</text>
</g>
<!-- n9713 -->
<g id="node5" class="node"><title>n9713</title>
<ellipse fill="none" stroke="lightgray" cx="343.347" cy="-336" rx="27" ry="18"/>
<text text-anchor="middle" x="343.347" y="-332.3" font-family="Times New Roman,serif" font-size="14.00" fill="lightgray">wi</text>
</g>
<!-- n9710&#45;&gt;n9713 -->
<g id="edge21" class="edge"><title>n9710&#45;&gt;n9713</title>
</g>
<!-- QED -->
<g id="node17" class="node"><title>QED</title>
</g>
<!-- n9724&#45;&gt;QED -->
<g id="edge20" class="edge"><title>n9724&#45;&gt;QED</title>
<path fill="none" stroke="black" d="M648.76,-262C705.852,-262 842.188,-262 909.291,-262"/>
<polygon fill="black" stroke="black" points="909.443,-265.5 919.443,-262 909.443,-258.5 909.443,-265.5"/>
<text text-anchor="middle" x="784.193" y="-265.8" font-family="Times New Roman,serif" font-size="14.00">|&#45; ( ( &#45;. ph \/ ( ph &#45;&gt; ps ) ) &#45;&gt; ( ph &#45;&gt; ps ) )</text>
</g>
<!-- n9711 -->
<g id="node4" class="node"><title>n9711</title>
<ellipse fill="none" stroke="lightgray" cx="154" cy="-431" rx="27" ry="18"/>
<text text-anchor="middle" x="154" y="-427.3" font-family="Times New Roman,serif" font-size="14.00" fill="lightgray">wph</text>
</g>
<!-- n9711&#45;&gt;n9713 -->
<g id="edge3" class="edge"><title>n9711&#45;&gt;n9713</title>
<path fill="none" stroke="lightgray" d="M176.915,-420.99C183.96,-417.784 191.804,-414.23 199,-411 238.029,-393.482 249.394,-392.394 287,-372 296.598,-366.795 306.715,-360.48 315.637,-354.601"/>
<polygon fill="lightgray" stroke="lightgray" points="317.743,-357.402 324.097,-348.924 313.843,-351.59 317.743,-357.402"/>
<text text-anchor="middle" x="243" y="-414.8" font-family="Times New Roman,serif" font-size="14.00" fill="lightgray">wff ph</text>
</g>
<!-- n9712 -->
<g id="node6" class="node"><title>n9712</title>
<ellipse fill="none" stroke="lightgray" cx="154" cy="-359" rx="27" ry="18"/>
<text text-anchor="middle" x="154" y="-355.3" font-family="Times New Roman,serif" font-size="14.00" fill="lightgray">wps</text>
</g>
<!-- n9711&#45;&gt;n9712 -->
<g id="edge6" class="edge"><title>n9711&#45;&gt;n9712</title>
</g>
<!-- n9713&#45;&gt;n9724 -->
<g id="edge5" class="edge"><title>n9713&#45;&gt;n9724</title>
<path fill="none" stroke="lightgray" d="M369.849,-331.482C413.052,-323.493 503.113,-305.387 576.693,-281 580.985,-279.577 585.438,-277.903 589.79,-276.147"/>
<polygon fill="lightgray" stroke="lightgray" points="591.199,-279.351 599.053,-272.24 588.479,-272.901 591.199,-279.351"/>
<text text-anchor="middle" x="488.193" y="-328.8" font-family="Times New Roman,serif" font-size="14.00" fill="lightgray">wff ( ph &#45;&gt; ps )</text>
</g>
<!-- n9716 -->
<g id="node8" class="node"><title>n9716</title>
<ellipse fill="none" stroke="lightgray" cx="343.347" cy="-262" rx="27" ry="18"/>
<text text-anchor="middle" x="343.347" y="-258.3" font-family="Times New Roman,serif" font-size="14.00" fill="lightgray">wi</text>
</g>
<!-- n9713&#45;&gt;n9716 -->
<g id="edge22" class="edge"><title>n9713&#45;&gt;n9716</title>
</g>
<!-- n9712&#45;&gt;n9713 -->
<g id="edge4" class="edge"><title>n9712&#45;&gt;n9713</title>
<path fill="none" stroke="lightgray" d="M180.657,-355.85C213.219,-351.853 269.571,-344.934 306.404,-340.413"/>
<polygon fill="lightgray" stroke="lightgray" points="307.201,-343.841 316.7,-339.149 306.348,-336.893 307.201,-343.841"/>
<text text-anchor="middle" x="243" y="-356.8" font-family="Times New Roman,serif" font-size="14.00" fill="lightgray">wff ps</text>
</g>
<!-- n9714 -->
<g id="node7" class="node"><title>n9714</title>
<ellipse fill="none" stroke="lightgray" cx="154" cy="-305" rx="27" ry="18"/>
<text text-anchor="middle" x="154" y="-301.3" font-family="Times New Roman,serif" font-size="14.00" fill="lightgray">wps</text>
</g>
<!-- n9714&#45;&gt;n9716 -->
<g id="edge7" class="edge"><title>n9714&#45;&gt;n9716</title>
<path fill="none" stroke="lightgray" d="M179.878,-299.29C212.722,-291.751 270.715,-278.441 307.797,-269.93"/>
<polygon fill="lightgray" stroke="lightgray" points="308.7,-273.314 317.664,-267.665 307.134,-266.491 308.7,-273.314"/>
<text text-anchor="middle" x="243" y="-297.8" font-family="Times New Roman,serif" font-size="14.00" fill="lightgray">wff ps</text>
</g>
<!-- n9715 -->
<g id="node9" class="node"><title>n9715</title>
<ellipse fill="none" stroke="lightgray" cx="154" cy="-233" rx="27" ry="18"/>
<text text-anchor="middle" x="154" y="-229.3" font-family="Times New Roman,serif" font-size="14.00" fill="lightgray">wph</text>
</g>
<!-- n9714&#45;&gt;n9715 -->
<g id="edge10" class="edge"><title>n9714&#45;&gt;n9715</title>
</g>
<!-- n9716&#45;&gt;n9724 -->
<g id="edge9" class="edge"><title>n9716&#45;&gt;n9724</title>
<path fill="none" stroke="lightgray" d="M370.844,-262C420.594,-262 528.036,-262 584.439,-262"/>
<polygon fill="lightgray" stroke="lightgray" points="584.68,-265.5 594.68,-262 584.68,-258.5 584.68,-265.5"/>
<text text-anchor="middle" x="488.193" y="-265.8" font-family="Times New Roman,serif" font-size="14.00" fill="lightgray">wff ( ph &#45;&gt; ps )</text>
</g>
<!-- n9719 -->
<g id="node11" class="node"><title>n9719</title>
<ellipse fill="cyan" stroke="black" cx="343.347" cy="-187" rx="38.1938" ry="18"/>
<text text-anchor="middle" x="343.347" y="-183.3" font-family="Times New Roman,serif" font-size="14.00">pm2.21</text>
</g>
<!-- n9716&#45;&gt;n9719 -->
<g id="edge23" class="edge"><title>n9716&#45;&gt;n9719</title>
</g>
<!-- n9715&#45;&gt;n9716 -->
<g id="edge8" class="edge"><title>n9715&#45;&gt;n9716</title>
<path fill="none" stroke="lightgray" d="M180.657,-236.972C213.219,-242.012 269.571,-250.735 306.404,-256.436"/>
<polygon fill="lightgray" stroke="lightgray" points="306.282,-259.959 316.7,-258.03 307.353,-253.041 306.282,-259.959"/>
<text text-anchor="middle" x="243" y="-257.8" font-family="Times New Roman,serif" font-size="14.00" fill="lightgray">wff ph</text>
</g>
<!-- n9717 -->
<g id="node10" class="node"><title>n9717</title>
<ellipse fill="none" stroke="lightgray" cx="154" cy="-179" rx="27" ry="18"/>
<text text-anchor="middle" x="154" y="-175.3" font-family="Times New Roman,serif" font-size="14.00" fill="lightgray">wph</text>
</g>
<!-- n9717&#45;&gt;n9719 -->
<g id="edge11" class="edge"><title>n9717&#45;&gt;n9719</title>
<path fill="none" stroke="lightgray" d="M181.05,-180.112C210.333,-181.363 258.494,-183.419 294.581,-184.96"/>
<polygon fill="lightgray" stroke="lightgray" points="294.744,-188.47 304.884,-185.4 295.043,-181.477 294.744,-188.47"/>
<text text-anchor="middle" x="243" y="-188.8" font-family="Times New Roman,serif" font-size="14.00" fill="lightgray">wff ph</text>
</g>
<!-- n9718 -->
<g id="node12" class="node"><title>n9718</title>
<ellipse fill="none" stroke="lightgray" cx="154" cy="-107" rx="27" ry="18"/>
<text text-anchor="middle" x="154" y="-103.3" font-family="Times New Roman,serif" font-size="14.00" fill="lightgray">wps</text>
</g>
<!-- n9717&#45;&gt;n9718 -->
<g id="edge14" class="edge"><title>n9717&#45;&gt;n9718</title>
</g>
<!-- n9719&#45;&gt;n9724 -->
<g id="edge13" class="edge"><title>n9719&#45;&gt;n9724</title>
<path fill="none" stroke="black" d="M379.511,-193.522C425.481,-202.489 508.208,-220.147 576.693,-243 580.982,-244.431 585.433,-246.111 589.784,-247.869"/>
<polygon fill="black" stroke="black" points="588.473,-251.115 599.047,-251.778 591.194,-244.666 588.473,-251.115"/>
<text text-anchor="middle" x="488.193" y="-246.8" font-family="Times New Roman,serif" font-size="14.00">|&#45; ( &#45;. ph &#45;&gt; ( ph &#45;&gt; ps ) )</text>
</g>
<!-- n9723 -->
<g id="node16" class="node"><title>n9723</title>
<ellipse fill="cyan" stroke="black" cx="343.347" cy="-115" rx="27" ry="18"/>
<text text-anchor="middle" x="343.347" y="-111.3" font-family="Times New Roman,serif" font-size="14.00">id</text>
</g>
<!-- n9719&#45;&gt;n9723 -->
<g id="edge24" class="edge"><title>n9719&#45;&gt;n9723</title>
</g>
<!-- n9718&#45;&gt;n9719 -->
<g id="edge12" class="edge"><title>n9718&#45;&gt;n9719</title>
<path fill="none" stroke="lightgray" d="M177.507,-116.142C203.849,-126.896 248.741,-145.393 287,-162 293.238,-164.708 299.846,-167.638 306.242,-170.507"/>
<polygon fill="lightgray" stroke="lightgray" points="304.838,-173.713 315.393,-174.633 307.715,-167.332 304.838,-173.713"/>
<text text-anchor="middle" x="243" y="-165.8" font-family="Times New Roman,serif" font-size="14.00" fill="lightgray">wff ps</text>
</g>
<!-- n9720 -->
<g id="node13" class="node"><title>n9720</title>
<ellipse fill="none" stroke="lightgray" cx="27" cy="-90" rx="27" ry="18"/>
<text text-anchor="middle" x="27" y="-86.3" font-family="Times New Roman,serif" font-size="14.00" fill="lightgray">wps</text>
</g>
<!-- n9722 -->
<g id="node14" class="node"><title>n9722</title>
<ellipse fill="none" stroke="lightgray" cx="154" cy="-53" rx="27" ry="18"/>
<text text-anchor="middle" x="154" y="-49.3" font-family="Times New Roman,serif" font-size="14.00" fill="lightgray">wi</text>
</g>
<!-- n9720&#45;&gt;n9722 -->
<g id="edge15" class="edge"><title>n9720&#45;&gt;n9722</title>
<path fill="none" stroke="lightgray" d="M52.1013,-82.866C71.2097,-77.2099 98.1365,-69.2396 119.368,-62.9551"/>
<polygon fill="lightgray" stroke="lightgray" points="120.377,-66.3065 128.973,-60.1121 118.391,-59.5943 120.377,-66.3065"/>
<text text-anchor="middle" x="90.5" y="-80.8" font-family="Times New Roman,serif" font-size="14.00" fill="lightgray">wff ps</text>
</g>
<!-- n9721 -->
<g id="node15" class="node"><title>n9721</title>
<ellipse fill="none" stroke="lightgray" cx="27" cy="-18" rx="27" ry="18"/>
<text text-anchor="middle" x="27" y="-14.3" font-family="Times New Roman,serif" font-size="14.00" fill="lightgray">wph</text>
</g>
<!-- n9720&#45;&gt;n9721 -->
<g id="edge18" class="edge"><title>n9720&#45;&gt;n9721</title>
</g>
<!-- n9722&#45;&gt;n9723 -->
<g id="edge17" class="edge"><title>n9722&#45;&gt;n9723</title>
<path fill="none" stroke="lightgray" d="M178.728,-60.8523C211.668,-71.7534 271.417,-91.5269 308.878,-103.924"/>
<polygon fill="lightgray" stroke="lightgray" points="308.218,-107.392 318.812,-107.211 310.418,-100.747 308.218,-107.392"/>
<text text-anchor="middle" x="243" y="-100.8" font-family="Times New Roman,serif" font-size="14.00" fill="lightgray">wff ( ph &#45;&gt; ps )</text>
</g>
<!-- n9721&#45;&gt;n9722 -->
<g id="edge16" class="edge"><title>n9721&#45;&gt;n9722</title>
<path fill="none" stroke="lightgray" d="M52.1013,-24.7484C71.0013,-30.0404 97.5501,-37.474 118.671,-43.3879"/>
<polygon fill="lightgray" stroke="lightgray" points="117.973,-46.8269 128.546,-46.1529 119.86,-40.0862 117.973,-46.8269"/>
<text text-anchor="middle" x="90.5" y="-44.8" font-family="Times New Roman,serif" font-size="14.00" fill="lightgray">wff ph</text>
</g>
<!-- n9723&#45;&gt;n9724 -->
<g id="edge19" class="edge"><title>n9723&#45;&gt;n9724</title>
<path fill="none" stroke="black" d="M370.33,-115.81C416.684,-118.535 514.588,-130.234 576.693,-180 594.139,-193.98 605.58,-216.805 612.411,-234.828"/>
<polygon fill="black" stroke="black" points="609.112,-235.996 615.741,-244.26 615.713,-233.666 609.112,-235.996"/>
<text text-anchor="middle" x="488.193" y="-183.8" font-family="Times New Roman,serif" font-size="14.00">|&#45; ( ( ph &#45;&gt; ps ) &#45;&gt; ( ph &#45;&gt; ps ) )</text>
</g>
</g>
</svg>
