<?xml version="1.0" encoding="UTF-8" standalone="no"?>
<!DOCTYPE svg PUBLIC "-//W3C//DTD SVG 1.1//EN"
 "http://www.w3.org/Graphics/SVG/1.1/DTD/svg11.dtd">
<!-- Generated by graphviz version 2.38.0 (20140413.2041)
 -->
<!-- Title: proof_pm2_04 Pages: 1 -->
<svg width="1350pt" height="420pt"
 viewBox="0.00 0.00 1349.99 420.00" xmlns="http://www.w3.org/2000/svg" xmlns:xlink="http://www.w3.org/1999/xlink">
<g id="graph0" class="graph" transform="scale(1 1) rotate(0) translate(4 416)">
<title>proof_pm2_04</title>
<polygon fill="white" stroke="none" points="-4,4 -4,-416 1345.99,-416 1345.99,4 -4,4"/>
<!-- n841 -->
<g id="node1" class="node"><title>n841</title>
<ellipse fill="none" stroke="lightgray" cx="331" cy="-394" rx="27" ry="18"/>
<text text-anchor="middle" x="331" y="-390.3" font-family="Times New Roman,serif" font-size="14.00" fill="lightgray">wph</text>
</g>
<!-- n845 -->
<g id="node2" class="node"><title>n845</title>
<ellipse fill="none" stroke="lightgray" cx="559" cy="-350" rx="27" ry="18"/>
<text text-anchor="middle" x="559" y="-346.3" font-family="Times New Roman,serif" font-size="14.00" fill="lightgray">wi</text>
</g>
<!-- n841&#45;&gt;n845 -->
<g id="edge1" class="edge"><title>n841&#45;&gt;n845</title>
<path fill="none" stroke="lightgray" d="M357.049,-389.123C397.437,-381.26 477.052,-365.76 523.018,-356.811"/>
<polygon fill="lightgray" stroke="lightgray" points="523.692,-360.245 532.838,-354.899 522.354,-353.374 523.692,-360.245"/>
<text text-anchor="middle" x="445" y="-388.8" font-family="Times New Roman,serif" font-size="14.00" fill="lightgray">wff ph</text>
</g>
<!-- n844 -->
<g id="node4" class="node"><title>n844</title>
<ellipse fill="none" stroke="lightgray" cx="331" cy="-322" rx="27" ry="18"/>
<text text-anchor="middle" x="331" y="-318.3" font-family="Times New Roman,serif" font-size="14.00" fill="lightgray">wi</text>
</g>
<!-- n841&#45;&gt;n844 -->
<g id="edge7" class="edge"><title>n841&#45;&gt;n844</title>
</g>
<!-- n855 -->
<g id="node6" class="node"><title>n855</title>
<ellipse fill="cyan" stroke="black" cx="934.747" cy="-206" rx="35.9954" ry="18"/>
<text text-anchor="middle" x="934.747" y="-202.3" font-family="Times New Roman,serif" font-size="14.00">com23</text>
</g>
<!-- n845&#45;&gt;n855 -->
<g id="edge6" class="edge"><title>n845&#45;&gt;n855</title>
<path fill="none" stroke="lightgray" d="M585.939,-352.065C644.171,-355.367 787.5,-355.924 881,-292 901.656,-277.877 915.685,-252.734 924.05,-233.269"/>
<polygon fill="lightgray" stroke="lightgray" points="927.306,-234.553 927.809,-223.97 920.816,-231.929 927.306,-234.553"/>
<text text-anchor="middle" x="742.5" y="-357.8" font-family="Times New Roman,serif" font-size="14.00" fill="lightgray">wff ( ph &#45;&gt; ( ps &#45;&gt; ch ) )</text>
</g>
<!-- n846 -->
<g id="node7" class="node"><title>n846</title>
<ellipse fill="none" stroke="lightgray" cx="559" cy="-278" rx="27" ry="18"/>
<text text-anchor="middle" x="559" y="-274.3" font-family="Times New Roman,serif" font-size="14.00" fill="lightgray">wph</text>
</g>
<!-- n845&#45;&gt;n846 -->
<g id="edge20" class="edge"><title>n845&#45;&gt;n846</title>
</g>
<!-- n842 -->
<g id="node3" class="node"><title>n842</title>
<ellipse fill="none" stroke="lightgray" cx="154" cy="-375" rx="27" ry="18"/>
<text text-anchor="middle" x="154" y="-371.3" font-family="Times New Roman,serif" font-size="14.00" fill="lightgray">wps</text>
</g>
<!-- n842&#45;&gt;n844 -->
<g id="edge2" class="edge"><title>n842&#45;&gt;n844</title>
<path fill="none" stroke="lightgray" d="M179.185,-367.947C205.505,-360.237 248.807,-347.452 286,-336 289.397,-334.954 292.938,-333.85 296.47,-332.74"/>
<polygon fill="lightgray" stroke="lightgray" points="297.798,-335.991 306.277,-329.638 295.687,-329.317 297.798,-335.991"/>
<text text-anchor="middle" x="242.5" y="-365.8" font-family="Times New Roman,serif" font-size="14.00" fill="lightgray">wff ps</text>
</g>
<!-- n843 -->
<g id="node5" class="node"><title>n843</title>
<ellipse fill="none" stroke="lightgray" cx="154" cy="-303" rx="27" ry="18"/>
<text text-anchor="middle" x="154" y="-299.3" font-family="Times New Roman,serif" font-size="14.00" fill="lightgray">wch</text>
</g>
<!-- n842&#45;&gt;n843 -->
<g id="edge5" class="edge"><title>n842&#45;&gt;n843</title>
</g>
<!-- n844&#45;&gt;n845 -->
<g id="edge4" class="edge"><title>n844&#45;&gt;n845</title>
<path fill="none" stroke="lightgray" d="M358.052,-323.55C393.502,-325.892 458.841,-331.04 514,-340 517.071,-340.499 520.249,-341.084 523.425,-341.716"/>
<polygon fill="lightgray" stroke="lightgray" points="522.929,-345.188 533.439,-343.848 524.387,-338.342 522.929,-345.188"/>
<text text-anchor="middle" x="445" y="-343.8" font-family="Times New Roman,serif" font-size="14.00" fill="lightgray">wff ( ps &#45;&gt; ch )</text>
</g>
<!-- n843&#45;&gt;n844 -->
<g id="edge3" class="edge"><title>n843&#45;&gt;n844</title>
<path fill="none" stroke="lightgray" d="M180.822,-305.804C210.677,-309.045 260.025,-314.403 293.725,-318.062"/>
<polygon fill="lightgray" stroke="lightgray" points="293.753,-321.585 304.072,-319.185 294.508,-314.626 293.753,-321.585"/>
<text text-anchor="middle" x="242.5" y="-320.8" font-family="Times New Roman,serif" font-size="14.00" fill="lightgray">wff ch</text>
</g>
<!-- QED -->
<g id="node16" class="node"><title>QED</title>
</g>
<!-- n855&#45;&gt;QED -->
<g id="edge19" class="edge"><title>n855&#45;&gt;QED</title>
<path fill="none" stroke="black" d="M970.782,-206C1041.33,-206 1200,-206 1273.29,-206"/>
<polygon fill="black" stroke="black" points="1273.47,-209.5 1283.47,-206 1273.47,-202.5 1273.47,-209.5"/>
<text text-anchor="middle" x="1126.99" y="-209.8" font-family="Times New Roman,serif" font-size="14.00">|&#45; ( ( ph &#45;&gt; ( ps &#45;&gt; ch ) ) &#45;&gt; ( ps &#45;&gt; ( ph &#45;&gt; ch ) ) )</text>
</g>
<!-- n846&#45;&gt;n855 -->
<g id="edge8" class="edge"><title>n846&#45;&gt;n855</title>
<path fill="none" stroke="lightgray" d="M585.714,-275.365C640.605,-269.39 773.043,-253.106 881,-225 886.051,-223.685 891.301,-222.087 896.444,-220.383"/>
<polygon fill="lightgray" stroke="lightgray" points="897.825,-223.608 906.123,-217.02 895.528,-216.996 897.825,-223.608"/>
<text text-anchor="middle" x="742.5" y="-276.8" font-family="Times New Roman,serif" font-size="14.00" fill="lightgray">wff ph</text>
</g>
<!-- n847 -->
<g id="node8" class="node"><title>n847</title>
<ellipse fill="none" stroke="lightgray" cx="559" cy="-206" rx="27" ry="18"/>
<text text-anchor="middle" x="559" y="-202.3" font-family="Times New Roman,serif" font-size="14.00" fill="lightgray">wps</text>
</g>
<!-- n846&#45;&gt;n847 -->
<g id="edge21" class="edge"><title>n846&#45;&gt;n847</title>
</g>
<!-- n847&#45;&gt;n855 -->
<g id="edge9" class="edge"><title>n847&#45;&gt;n855</title>
<path fill="none" stroke="lightgray" d="M586.281,-206C649.332,-206 809.782,-206 888.626,-206"/>
<polygon fill="lightgray" stroke="lightgray" points="888.736,-209.5 898.736,-206 888.736,-202.5 888.736,-209.5"/>
<text text-anchor="middle" x="742.5" y="-209.8" font-family="Times New Roman,serif" font-size="14.00" fill="lightgray">wff ps</text>
</g>
<!-- n848 -->
<g id="node9" class="node"><title>n848</title>
<ellipse fill="none" stroke="lightgray" cx="559" cy="-134" rx="27" ry="18"/>
<text text-anchor="middle" x="559" y="-130.3" font-family="Times New Roman,serif" font-size="14.00" fill="lightgray">wch</text>
</g>
<!-- n847&#45;&gt;n848 -->
<g id="edge22" class="edge"><title>n847&#45;&gt;n848</title>
</g>
<!-- n848&#45;&gt;n855 -->
<g id="edge10" class="edge"><title>n848&#45;&gt;n855</title>
<path fill="none" stroke="lightgray" d="M585.714,-136.635C640.605,-142.61 773.043,-158.894 881,-187 886.051,-188.315 891.301,-189.913 896.444,-191.617"/>
<polygon fill="lightgray" stroke="lightgray" points="895.528,-195.004 906.123,-194.98 897.825,-188.392 895.528,-195.004"/>
<text text-anchor="middle" x="742.5" y="-190.8" font-family="Times New Roman,serif" font-size="14.00" fill="lightgray">wff ch</text>
</g>
<!-- n854 -->
<g id="node15" class="node"><title>n854</title>
<ellipse fill="cyan" stroke="black" cx="559" cy="-62" rx="27" ry="18"/>
<text text-anchor="middle" x="559" y="-58.3" font-family="Times New Roman,serif" font-size="14.00">id</text>
</g>
<!-- n848&#45;&gt;n854 -->
<g id="edge23" class="edge"><title>n848&#45;&gt;n854</title>
</g>
<!-- n849 -->
<g id="node10" class="node"><title>n849</title>
<ellipse fill="none" stroke="lightgray" cx="27" cy="-135" rx="27" ry="18"/>
<text text-anchor="middle" x="27" y="-131.3" font-family="Times New Roman,serif" font-size="14.00" fill="lightgray">wch</text>
</g>
<!-- n851 -->
<g id="node11" class="node"><title>n851</title>
<ellipse fill="none" stroke="lightgray" cx="154" cy="-90" rx="27" ry="18"/>
<text text-anchor="middle" x="154" y="-86.3" font-family="Times New Roman,serif" font-size="14.00" fill="lightgray">wi</text>
</g>
<!-- n849&#45;&gt;n851 -->
<g id="edge11" class="edge"><title>n849&#45;&gt;n851</title>
<path fill="none" stroke="lightgray" d="M51.2186,-126.641C70.6886,-119.632 98.7117,-109.544 120.426,-101.727"/>
<polygon fill="lightgray" stroke="lightgray" points="121.682,-104.994 129.906,-98.3139 119.311,-98.4081 121.682,-104.994"/>
<text text-anchor="middle" x="90.5" y="-123.8" font-family="Times New Roman,serif" font-size="14.00" fill="lightgray">wff ch</text>
</g>
<!-- n850 -->
<g id="node12" class="node"><title>n850</title>
<ellipse fill="none" stroke="lightgray" cx="27" cy="-63" rx="27" ry="18"/>
<text text-anchor="middle" x="27" y="-59.3" font-family="Times New Roman,serif" font-size="14.00" fill="lightgray">wps</text>
</g>
<!-- n849&#45;&gt;n850 -->
<g id="edge14" class="edge"><title>n849&#45;&gt;n850</title>
</g>
<!-- n853 -->
<g id="node13" class="node"><title>n853</title>
<ellipse fill="none" stroke="lightgray" cx="331" cy="-62" rx="27" ry="18"/>
<text text-anchor="middle" x="331" y="-58.3" font-family="Times New Roman,serif" font-size="14.00" fill="lightgray">wi</text>
</g>
<!-- n851&#45;&gt;n853 -->
<g id="edge13" class="edge"><title>n851&#45;&gt;n853</title>
<path fill="none" stroke="lightgray" d="M180.447,-85.9286C210.515,-81.1176 260.725,-73.084 294.581,-67.667"/>
<polygon fill="lightgray" stroke="lightgray" points="295.201,-71.1124 304.523,-66.0764 294.095,-64.2003 295.201,-71.1124"/>
<text text-anchor="middle" x="242.5" y="-86.8" font-family="Times New Roman,serif" font-size="14.00" fill="lightgray">wff ( ps &#45;&gt; ch )</text>
</g>
<!-- n852 -->
<g id="node14" class="node"><title>n852</title>
<ellipse fill="none" stroke="lightgray" cx="154" cy="-18" rx="27" ry="18"/>
<text text-anchor="middle" x="154" y="-14.3" font-family="Times New Roman,serif" font-size="14.00" fill="lightgray">wph</text>
</g>
<!-- n851&#45;&gt;n852 -->
<g id="edge17" class="edge"><title>n851&#45;&gt;n852</title>
</g>
<!-- n850&#45;&gt;n851 -->
<g id="edge12" class="edge"><title>n850&#45;&gt;n851</title>
<path fill="none" stroke="lightgray" d="M52.9952,-68.399C71.6456,-72.4275 97.3666,-77.9832 118.053,-82.4514"/>
<polygon fill="lightgray" stroke="lightgray" points="117.535,-85.9201 128.048,-84.6104 119.013,-79.0779 117.535,-85.9201"/>
<text text-anchor="middle" x="90.5" y="-84.8" font-family="Times New Roman,serif" font-size="14.00" fill="lightgray">wff ps</text>
</g>
<!-- n853&#45;&gt;n854 -->
<g id="edge16" class="edge"><title>n853&#45;&gt;n854</title>
<path fill="none" stroke="lightgray" d="M358.367,-62C398.768,-62 476.093,-62 521.742,-62"/>
<polygon fill="lightgray" stroke="lightgray" points="521.801,-65.5001 531.801,-62 521.801,-58.5001 521.801,-65.5001"/>
<text text-anchor="middle" x="445" y="-65.8" font-family="Times New Roman,serif" font-size="14.00" fill="lightgray">wff ( ph &#45;&gt; ( ps &#45;&gt; ch ) )</text>
</g>
<!-- n852&#45;&gt;n853 -->
<g id="edge15" class="edge"><title>n852&#45;&gt;n853</title>
<path fill="none" stroke="lightgray" d="M179.702,-24.2108C209.928,-31.8104 261.284,-44.7229 295.424,-53.3065"/>
<polygon fill="lightgray" stroke="lightgray" points="294.872,-56.7767 305.424,-55.8208 296.579,-49.988 294.872,-56.7767"/>
<text text-anchor="middle" x="242.5" y="-54.8" font-family="Times New Roman,serif" font-size="14.00" fill="lightgray">wff ph</text>
</g>
<!-- n854&#45;&gt;n855 -->
<g id="edge18" class="edge"><title>n854&#45;&gt;n855</title>
<path fill="none" stroke="black" d="M585.921,-60.0677C644.118,-57.0522 787.378,-57.1439 881,-121 901.404,-134.917 915.416,-159.602 923.841,-178.797"/>
<polygon fill="black" stroke="black" points="920.691,-180.34 927.742,-188.249 927.162,-177.67 920.691,-180.34"/>
<text text-anchor="middle" x="742.5" y="-124.8" font-family="Times New Roman,serif" font-size="14.00">|&#45; ( ( ph &#45;&gt; ( ps &#45;&gt; ch ) ) &#45;&gt; ( ph &#45;&gt; ( ps &#45;&gt; ch ) ) )</text>
</g>
</g>
</svg>
