<?xml version="1.0" encoding="UTF-8" standalone="no"?>
<!DOCTYPE svg PUBLIC "-//W3C//DTD SVG 1.1//EN"
 "http://www.w3.org/Graphics/SVG/1.1/DTD/svg11.dtd">
<!-- Generated by graphviz version 2.38.0 (20140413.2041)
 -->
<!-- Title: proof_pm2_26 Pages: 1 -->
<svg width="940pt" height="289pt"
 viewBox="0.00 0.00 939.68 289.00" xmlns="http://www.w3.org/2000/svg" xmlns:xlink="http://www.w3.org/1999/xlink">
<g id="graph0" class="graph" transform="scale(1 1) rotate(0) translate(4 285)">
<title>proof_pm2_26</title>
<polygon fill="white" stroke="none" points="-4,4 -4,-285 935.683,-285 935.683,4 -4,4"/>
<!-- n15518 -->
<g id="node1" class="node"><title>n15518</title>
<ellipse fill="none" stroke="lightgray" cx="343.347" cy="-227" rx="27" ry="18"/>
<text text-anchor="middle" x="343.347" y="-223.3" font-family="Times New Roman,serif" font-size="14.00" fill="lightgray">wph</text>
</g>
<!-- n15527 -->
<g id="node2" class="node"><title>n15527</title>
<ellipse fill="cyan" stroke="black" cx="623.941" cy="-155" rx="29.4969" ry="18"/>
<text text-anchor="middle" x="623.941" y="-151.3" font-family="Times New Roman,serif" font-size="14.00">imori</text>
</g>
<!-- n15518&#45;&gt;n15527 -->
<g id="edge1" class="edge"><title>n15518&#45;&gt;n15527</title>
<path fill="none" stroke="lightgray" d="M369.812,-222.621C412.96,-214.885 502.942,-197.384 576.693,-174 581.094,-172.605 585.663,-170.969 590.139,-169.253"/>
<polygon fill="lightgray" stroke="lightgray" points="591.707,-172.395 599.691,-165.43 589.107,-165.896 591.707,-172.395"/>
<text text-anchor="middle" x="488.193" y="-220.8" font-family="Times New Roman,serif" font-size="14.00" fill="lightgray">wff ph</text>
</g>
<!-- n15523 -->
<g id="node6" class="node"><title>n15523</title>
<ellipse fill="none" stroke="lightgray" cx="343.347" cy="-155" rx="27" ry="18"/>
<text text-anchor="middle" x="343.347" y="-151.3" font-family="Times New Roman,serif" font-size="14.00" fill="lightgray">wi</text>
</g>
<!-- n15518&#45;&gt;n15523 -->
<g id="edge14" class="edge"><title>n15518&#45;&gt;n15523</title>
</g>
<!-- QED -->
<g id="node11" class="node"><title>QED</title>
</g>
<!-- n15527&#45;&gt;QED -->
<g id="edge13" class="edge"><title>n15527&#45;&gt;QED</title>
<path fill="none" stroke="black" d="M653.231,-155C703.012,-155 806.323,-155 862.691,-155"/>
<polygon fill="black" stroke="black" points="862.978,-158.5 872.978,-155 862.978,-151.5 862.978,-158.5"/>
<text text-anchor="middle" x="763.188" y="-158.8" font-family="Times New Roman,serif" font-size="14.00">|&#45; ( &#45;. ph \/ ( ( ph &#45;&gt; ps ) &#45;&gt; ps ) )</text>
</g>
<!-- n15519 -->
<g id="node3" class="node"><title>n15519</title>
<ellipse fill="none" stroke="lightgray" cx="27" cy="-263" rx="27" ry="18"/>
<text text-anchor="middle" x="27" y="-259.3" font-family="Times New Roman,serif" font-size="14.00" fill="lightgray">wph</text>
</g>
<!-- n15521 -->
<g id="node4" class="node"><title>n15521</title>
<ellipse fill="none" stroke="lightgray" cx="154" cy="-218" rx="27" ry="18"/>
<text text-anchor="middle" x="154" y="-214.3" font-family="Times New Roman,serif" font-size="14.00" fill="lightgray">wi</text>
</g>
<!-- n15519&#45;&gt;n15521 -->
<g id="edge2" class="edge"><title>n15519&#45;&gt;n15521</title>
<path fill="none" stroke="lightgray" d="M51.2186,-254.641C70.6886,-247.632 98.7117,-237.544 120.426,-229.727"/>
<polygon fill="lightgray" stroke="lightgray" points="121.682,-232.994 129.906,-226.314 119.311,-226.408 121.682,-232.994"/>
<text text-anchor="middle" x="90.5" y="-251.8" font-family="Times New Roman,serif" font-size="14.00" fill="lightgray">wff ph</text>
</g>
<!-- n15520 -->
<g id="node5" class="node"><title>n15520</title>
<ellipse fill="none" stroke="lightgray" cx="27" cy="-191" rx="27" ry="18"/>
<text text-anchor="middle" x="27" y="-187.3" font-family="Times New Roman,serif" font-size="14.00" fill="lightgray">wps</text>
</g>
<!-- n15519&#45;&gt;n15520 -->
<g id="edge5" class="edge"><title>n15519&#45;&gt;n15520</title>
</g>
<!-- n15521&#45;&gt;n15523 -->
<g id="edge4" class="edge"><title>n15521&#45;&gt;n15523</title>
<path fill="none" stroke="lightgray" d="M178.349,-210.148C211.394,-199.036 271.957,-178.67 309.516,-166.04"/>
<polygon fill="lightgray" stroke="lightgray" points="310.636,-169.356 318.999,-162.851 308.405,-162.721 310.636,-169.356"/>
<text text-anchor="middle" x="243" y="-206.8" font-family="Times New Roman,serif" font-size="14.00" fill="lightgray">wff ( ph &#45;&gt; ps )</text>
</g>
<!-- n15522 -->
<g id="node7" class="node"><title>n15522</title>
<ellipse fill="none" stroke="lightgray" cx="154" cy="-146" rx="27" ry="18"/>
<text text-anchor="middle" x="154" y="-142.3" font-family="Times New Roman,serif" font-size="14.00" fill="lightgray">wps</text>
</g>
<!-- n15521&#45;&gt;n15522 -->
<g id="edge8" class="edge"><title>n15521&#45;&gt;n15522</title>
</g>
<!-- n15520&#45;&gt;n15521 -->
<g id="edge3" class="edge"><title>n15520&#45;&gt;n15521</title>
<path fill="none" stroke="lightgray" d="M52.9952,-196.399C71.6456,-200.427 97.3666,-205.983 118.053,-210.451"/>
<polygon fill="lightgray" stroke="lightgray" points="117.535,-213.92 128.048,-212.61 119.013,-207.078 117.535,-213.92"/>
<text text-anchor="middle" x="90.5" y="-212.8" font-family="Times New Roman,serif" font-size="14.00" fill="lightgray">wff ps</text>
</g>
<!-- n15523&#45;&gt;n15527 -->
<g id="edge7" class="edge"><title>n15523&#45;&gt;n15527</title>
<path fill="none" stroke="lightgray" d="M370.556,-155C419.905,-155 526.814,-155 584.38,-155"/>
<polygon fill="lightgray" stroke="lightgray" points="584.53,-158.5 594.53,-155 584.53,-151.5 584.53,-158.5"/>
<text text-anchor="middle" x="488.193" y="-158.8" font-family="Times New Roman,serif" font-size="14.00" fill="lightgray">wff ( ( ph &#45;&gt; ps ) &#45;&gt; ps )</text>
</g>
<!-- n15526 -->
<g id="node9" class="node"><title>n15526</title>
<ellipse fill="cyan" stroke="black" cx="343.347" cy="-83" rx="38.1938" ry="18"/>
<text text-anchor="middle" x="343.347" y="-79.3" font-family="Times New Roman,serif" font-size="14.00">pm2.27</text>
</g>
<!-- n15523&#45;&gt;n15526 -->
<g id="edge15" class="edge"><title>n15523&#45;&gt;n15526</title>
</g>
<!-- n15522&#45;&gt;n15523 -->
<g id="edge6" class="edge"><title>n15522&#45;&gt;n15523</title>
<path fill="none" stroke="lightgray" d="M181.05,-147.251C213.536,-148.812 269.255,-151.489 305.948,-153.251"/>
<polygon fill="lightgray" stroke="lightgray" points="306.06,-156.761 316.217,-153.745 306.396,-149.769 306.06,-156.761"/>
<text text-anchor="middle" x="243" y="-156.8" font-family="Times New Roman,serif" font-size="14.00" fill="lightgray">wff ps</text>
</g>
<!-- n15524 -->
<g id="node8" class="node"><title>n15524</title>
<ellipse fill="none" stroke="lightgray" cx="154" cy="-90" rx="27" ry="18"/>
<text text-anchor="middle" x="154" y="-86.3" font-family="Times New Roman,serif" font-size="14.00" fill="lightgray">wph</text>
</g>
<!-- n15524&#45;&gt;n15526 -->
<g id="edge9" class="edge"><title>n15524&#45;&gt;n15526</title>
<path fill="none" stroke="lightgray" d="M181.05,-89.0267C210.333,-87.9326 258.494,-86.1331 294.581,-84.7847"/>
<polygon fill="lightgray" stroke="lightgray" points="295.022,-88.2708 304.884,-84.3997 294.761,-81.2756 295.022,-88.2708"/>
<text text-anchor="middle" x="243" y="-92.8" font-family="Times New Roman,serif" font-size="14.00" fill="lightgray">wff ph</text>
</g>
<!-- n15525 -->
<g id="node10" class="node"><title>n15525</title>
<ellipse fill="none" stroke="lightgray" cx="154" cy="-18" rx="27" ry="18"/>
<text text-anchor="middle" x="154" y="-14.3" font-family="Times New Roman,serif" font-size="14.00" fill="lightgray">wps</text>
</g>
<!-- n15524&#45;&gt;n15525 -->
<g id="edge12" class="edge"><title>n15524&#45;&gt;n15525</title>
</g>
<!-- n15526&#45;&gt;n15527 -->
<g id="edge11" class="edge"><title>n15526&#45;&gt;n15527</title>
<path fill="none" stroke="black" d="M379.469,-89.1326C425.393,-97.5763 508.069,-114.242 576.693,-136 581.094,-137.395 585.663,-139.031 590.139,-140.747"/>
<polygon fill="black" stroke="black" points="589.107,-144.104 599.691,-144.57 591.707,-137.605 589.107,-144.104"/>
<text text-anchor="middle" x="488.193" y="-139.8" font-family="Times New Roman,serif" font-size="14.00">|&#45; ( ph &#45;&gt; ( ( ph &#45;&gt; ps ) &#45;&gt; ps ) )</text>
</g>
<!-- n15525&#45;&gt;n15526 -->
<g id="edge10" class="edge"><title>n15525&#45;&gt;n15526</title>
<path fill="none" stroke="lightgray" d="M178.349,-26.1009C209.323,-36.8475 264.474,-55.982 302.196,-69.0698"/>
<polygon fill="lightgray" stroke="lightgray" points="301.267,-72.452 311.862,-72.4233 303.562,-65.8388 301.267,-72.452"/>
<text text-anchor="middle" x="243" y="-67.8" font-family="Times New Roman,serif" font-size="14.00" fill="lightgray">wff ps</text>
</g>
</g>
</svg>
