<?xml version="1.0" encoding="UTF-8" standalone="no"?>
<!DOCTYPE svg PUBLIC "-//W3C//DTD SVG 1.1//EN"
 "http://www.w3.org/Graphics/SVG/1.1/DTD/svg11.dtd">
<!-- Generated by graphviz version 2.38.0 (20140413.2041)
 -->
<!-- Title: proof_pm2_27 Pages: 1 -->
<svg width="923pt" height="327pt"
 viewBox="0.00 0.00 922.99 327.00" xmlns="http://www.w3.org/2000/svg" xmlns:xlink="http://www.w3.org/1999/xlink">
<g id="graph0" class="graph" transform="scale(1 1) rotate(0) translate(4 323)">
<title>proof_pm2_27</title>
<polygon fill="white" stroke="none" points="-4,4 -4,-323 918.988,-323 918.988,4 -4,4"/>
<!-- n344 -->
<g id="node1" class="node"><title>n344</title>
<ellipse fill="none" stroke="lightgray" cx="154" cy="-301" rx="27" ry="18"/>
<text text-anchor="middle" x="154" y="-297.3" font-family="Times New Roman,serif" font-size="14.00" fill="lightgray">wph</text>
</g>
<!-- n346 -->
<g id="node2" class="node"><title>n346</title>
<ellipse fill="none" stroke="lightgray" cx="332" cy="-261" rx="27" ry="18"/>
<text text-anchor="middle" x="332" y="-257.3" font-family="Times New Roman,serif" font-size="14.00" fill="lightgray">wi</text>
</g>
<!-- n344&#45;&gt;n346 -->
<g id="edge1" class="edge"><title>n344&#45;&gt;n346</title>
<path fill="none" stroke="lightgray" d="M179.843,-295.354C210.242,-288.445 261.891,-276.706 296.226,-268.903"/>
<polygon fill="lightgray" stroke="lightgray" points="297.308,-272.247 306.283,-266.617 295.756,-265.421 297.308,-272.247"/>
<text text-anchor="middle" x="243" y="-294.8" font-family="Times New Roman,serif" font-size="14.00" fill="lightgray">wff ph</text>
</g>
<!-- n345 -->
<g id="node3" class="node"><title>n345</title>
<ellipse fill="none" stroke="lightgray" cx="154" cy="-229" rx="27" ry="18"/>
<text text-anchor="middle" x="154" y="-225.3" font-family="Times New Roman,serif" font-size="14.00" fill="lightgray">wps</text>
</g>
<!-- n344&#45;&gt;n345 -->
<g id="edge4" class="edge"><title>n344&#45;&gt;n345</title>
</g>
<!-- n353 -->
<g id="node4" class="node"><title>n353</title>
<ellipse fill="cyan" stroke="black" cx="607.747" cy="-152" rx="35.9954" ry="18"/>
<text text-anchor="middle" x="607.747" y="-148.3" font-family="Times New Roman,serif" font-size="14.00">com12</text>
</g>
<!-- n346&#45;&gt;n353 -->
<g id="edge3" class="edge"><title>n346&#45;&gt;n353</title>
<path fill="none" stroke="lightgray" d="M358.728,-258.307C401.607,-252.937 489.354,-238.141 554,-202 565.874,-195.362 577.102,-185.447 586.122,-176.192"/>
<polygon fill="lightgray" stroke="lightgray" points="588.885,-178.361 593.145,-168.66 583.766,-173.587 588.885,-178.361"/>
<text text-anchor="middle" x="465.5" y="-259.8" font-family="Times New Roman,serif" font-size="14.00" fill="lightgray">wff ( ph &#45;&gt; ps )</text>
</g>
<!-- n347 -->
<g id="node5" class="node"><title>n347</title>
<ellipse fill="none" stroke="lightgray" cx="332" cy="-189" rx="27" ry="18"/>
<text text-anchor="middle" x="332" y="-185.3" font-family="Times New Roman,serif" font-size="14.00" fill="lightgray">wph</text>
</g>
<!-- n346&#45;&gt;n347 -->
<g id="edge13" class="edge"><title>n346&#45;&gt;n347</title>
</g>
<!-- n345&#45;&gt;n346 -->
<g id="edge2" class="edge"><title>n345&#45;&gt;n346</title>
<path fill="none" stroke="lightgray" d="M181.035,-231.213C207.831,-233.801 250.675,-238.809 287,-247 290.656,-247.824 294.444,-248.815 298.194,-249.882"/>
<polygon fill="lightgray" stroke="lightgray" points="297.329,-253.278 307.914,-252.83 299.36,-246.579 297.329,-253.278"/>
<text text-anchor="middle" x="243" y="-250.8" font-family="Times New Roman,serif" font-size="14.00" fill="lightgray">wff ps</text>
</g>
<!-- QED -->
<g id="node11" class="node"><title>QED</title>
</g>
<!-- n353&#45;&gt;QED -->
<g id="edge12" class="edge"><title>n353&#45;&gt;QED</title>
<path fill="none" stroke="black" d="M643.702,-152C695.512,-152 792.345,-152 846.166,-152"/>
<polygon fill="black" stroke="black" points="846.331,-155.5 856.331,-152 846.331,-148.5 846.331,-155.5"/>
<text text-anchor="middle" x="749.994" y="-155.8" font-family="Times New Roman,serif" font-size="14.00">|&#45; ( ph &#45;&gt; ( ( ph &#45;&gt; ps ) &#45;&gt; ps ) )</text>
</g>
<!-- n347&#45;&gt;n353 -->
<g id="edge5" class="edge"><title>n347&#45;&gt;n353</title>
<path fill="none" stroke="lightgray" d="M358.753,-185.519C405.587,-179.189 505.178,-165.728 562.892,-157.927"/>
<polygon fill="lightgray" stroke="lightgray" points="563.373,-161.394 572.814,-156.586 562.435,-154.457 563.373,-161.394"/>
<text text-anchor="middle" x="465.5" y="-186.8" font-family="Times New Roman,serif" font-size="14.00" fill="lightgray">wff ph</text>
</g>
<!-- n348 -->
<g id="node6" class="node"><title>n348</title>
<ellipse fill="none" stroke="lightgray" cx="332" cy="-117" rx="27" ry="18"/>
<text text-anchor="middle" x="332" y="-113.3" font-family="Times New Roman,serif" font-size="14.00" fill="lightgray">wps</text>
</g>
<!-- n347&#45;&gt;n348 -->
<g id="edge14" class="edge"><title>n347&#45;&gt;n348</title>
</g>
<!-- n348&#45;&gt;n353 -->
<g id="edge6" class="edge"><title>n348&#45;&gt;n353</title>
<path fill="none" stroke="lightgray" d="M358.915,-119.608C400.255,-123.868 483.642,-132.866 554,-143 557.218,-143.464 560.542,-143.969 563.883,-144.495"/>
<polygon fill="lightgray" stroke="lightgray" points="563.436,-147.968 573.868,-146.119 564.559,-141.059 563.436,-147.968"/>
<text text-anchor="middle" x="465.5" y="-146.8" font-family="Times New Roman,serif" font-size="14.00" fill="lightgray">wff ps</text>
</g>
<!-- n352 -->
<g id="node10" class="node"><title>n352</title>
<ellipse fill="cyan" stroke="black" cx="332" cy="-45" rx="27" ry="18"/>
<text text-anchor="middle" x="332" y="-41.3" font-family="Times New Roman,serif" font-size="14.00">id</text>
</g>
<!-- n348&#45;&gt;n352 -->
<g id="edge15" class="edge"><title>n348&#45;&gt;n352</title>
</g>
<!-- n349 -->
<g id="node7" class="node"><title>n349</title>
<ellipse fill="none" stroke="lightgray" cx="27" cy="-90" rx="27" ry="18"/>
<text text-anchor="middle" x="27" y="-86.3" font-family="Times New Roman,serif" font-size="14.00" fill="lightgray">wps</text>
</g>
<!-- n351 -->
<g id="node8" class="node"><title>n351</title>
<ellipse fill="none" stroke="lightgray" cx="154" cy="-45" rx="27" ry="18"/>
<text text-anchor="middle" x="154" y="-41.3" font-family="Times New Roman,serif" font-size="14.00" fill="lightgray">wi</text>
</g>
<!-- n349&#45;&gt;n351 -->
<g id="edge7" class="edge"><title>n349&#45;&gt;n351</title>
<path fill="none" stroke="lightgray" d="M51.2186,-81.6413C70.6886,-74.6321 98.7117,-64.5438 120.426,-56.7266"/>
<polygon fill="lightgray" stroke="lightgray" points="121.682,-59.9943 129.906,-53.3139 119.311,-53.4081 121.682,-59.9943"/>
<text text-anchor="middle" x="90.5" y="-78.8" font-family="Times New Roman,serif" font-size="14.00" fill="lightgray">wff ps</text>
</g>
<!-- n350 -->
<g id="node9" class="node"><title>n350</title>
<ellipse fill="none" stroke="lightgray" cx="27" cy="-18" rx="27" ry="18"/>
<text text-anchor="middle" x="27" y="-14.3" font-family="Times New Roman,serif" font-size="14.00" fill="lightgray">wph</text>
</g>
<!-- n349&#45;&gt;n350 -->
<g id="edge10" class="edge"><title>n349&#45;&gt;n350</title>
</g>
<!-- n351&#45;&gt;n352 -->
<g id="edge9" class="edge"><title>n351&#45;&gt;n352</title>
<path fill="none" stroke="lightgray" d="M181.349,-45C211.375,-45 260.645,-45 294.391,-45"/>
<polygon fill="lightgray" stroke="lightgray" points="294.759,-48.5001 304.759,-45 294.759,-41.5001 294.759,-48.5001"/>
<text text-anchor="middle" x="243" y="-48.8" font-family="Times New Roman,serif" font-size="14.00" fill="lightgray">wff ( ph &#45;&gt; ps )</text>
</g>
<!-- n350&#45;&gt;n351 -->
<g id="edge8" class="edge"><title>n350&#45;&gt;n351</title>
<path fill="none" stroke="lightgray" d="M52.9952,-23.399C71.6456,-27.4275 97.3666,-32.9832 118.053,-37.4514"/>
<polygon fill="lightgray" stroke="lightgray" points="117.535,-40.9201 128.048,-39.6104 119.013,-34.0779 117.535,-40.9201"/>
<text text-anchor="middle" x="90.5" y="-39.8" font-family="Times New Roman,serif" font-size="14.00" fill="lightgray">wff ph</text>
</g>
<!-- n352&#45;&gt;n353 -->
<g id="edge11" class="edge"><title>n352&#45;&gt;n353</title>
<path fill="none" stroke="black" d="M359.032,-47.6658C401.977,-52.945 489.344,-67.4577 554,-103 565.638,-109.397 576.701,-118.925 585.663,-127.883"/>
<polygon fill="black" stroke="black" points="583.218,-130.39 592.662,-135.192 588.273,-125.549 583.218,-130.39"/>
<text text-anchor="middle" x="465.5" y="-106.8" font-family="Times New Roman,serif" font-size="14.00">|&#45; ( ( ph &#45;&gt; ps ) &#45;&gt; ( ph &#45;&gt; ps ) )</text>
</g>
</g>
</svg>
