<?xml version="1.0" encoding="UTF-8" standalone="no"?>
<!DOCTYPE svg PUBLIC "-//W3C//DTD SVG 1.1//EN"
 "http://www.w3.org/Graphics/SVG/1.1/DTD/svg11.dtd">
<!-- Generated by graphviz version 2.38.0 (20140413.2041)
 -->
<!-- Title: proof_pm2_86d Pages: 1 -->
<svg width="1096pt" height="511pt"
 viewBox="0.00 0.00 1096.08 511.00" xmlns="http://www.w3.org/2000/svg" xmlns:xlink="http://www.w3.org/1999/xlink">
<g id="graph0" class="graph" transform="scale(1 1) rotate(0) translate(4 507)">
<title>proof_pm2_86d</title>
<polygon fill="white" stroke="none" points="-4,4 -4,-507 1092.08,-507 1092.08,4 -4,4"/>
<!-- n1111 -->
<g id="node1" class="node"><title>n1111</title>
<ellipse fill="none" stroke="lightgray" cx="513.091" cy="-485" rx="27" ry="18"/>
<text text-anchor="middle" x="513.091" y="-481.3" font-family="Times New Roman,serif" font-size="14.00" fill="lightgray">wph</text>
</g>
<!-- n1128 -->
<g id="node2" class="node"><title>n1128</title>
<ellipse fill="cyan" stroke="black" cx="784.838" cy="-341" rx="35.9954" ry="18"/>
<text text-anchor="middle" x="784.838" y="-337.3" font-family="Times New Roman,serif" font-size="14.00">com23</text>
</g>
<!-- n1111&#45;&gt;n1128 -->
<g id="edge1" class="edge"><title>n1111&#45;&gt;n1128</title>
<path fill="none" stroke="lightgray" d="M540.044,-483.26C583.539,-479.171 672.166,-465.696 731.091,-422 749.63,-408.253 763.473,-385.898 772.315,-368.153"/>
<polygon fill="lightgray" stroke="lightgray" points="775.602,-369.389 776.711,-358.852 769.274,-366.397 775.602,-369.389"/>
<text text-anchor="middle" x="644.591" y="-484.8" font-family="Times New Roman,serif" font-size="14.00" fill="lightgray">wff ph</text>
</g>
<!-- n1112 -->
<g id="node3" class="node"><title>n1112</title>
<ellipse fill="none" stroke="lightgray" cx="513.091" cy="-413" rx="27" ry="18"/>
<text text-anchor="middle" x="513.091" y="-409.3" font-family="Times New Roman,serif" font-size="14.00" fill="lightgray">wch</text>
</g>
<!-- n1111&#45;&gt;n1112 -->
<g id="edge27" class="edge"><title>n1111&#45;&gt;n1112</title>
</g>
<!-- QED -->
<g id="node19" class="node"><title>QED</title>
</g>
<!-- n1128&#45;&gt;QED -->
<g id="edge26" class="edge"><title>n1128&#45;&gt;QED</title>
<path fill="none" stroke="black" d="M820.84,-341C871.848,-341 966.28,-341 1019.24,-341"/>
<polygon fill="black" stroke="black" points="1019.57,-344.5 1029.57,-341 1019.57,-337.5 1019.57,-344.5"/>
<text text-anchor="middle" x="925.085" y="-344.8" font-family="Times New Roman,serif" font-size="14.00">|&#45; ( ph &#45;&gt; ( ps &#45;&gt; ( ch &#45;&gt; th ) ) )</text>
</g>
<!-- n1112&#45;&gt;n1128 -->
<g id="edge2" class="edge"><title>n1112&#45;&gt;n1128</title>
<path fill="none" stroke="lightgray" d="M539.055,-407.807C579.663,-399.159 662.397,-380.697 731.091,-360 736.032,-358.511 741.189,-356.824 746.26,-355.085"/>
<polygon fill="lightgray" stroke="lightgray" points="747.558,-358.339 755.827,-351.714 745.232,-351.736 747.558,-358.339"/>
<text text-anchor="middle" x="644.591" y="-406.8" font-family="Times New Roman,serif" font-size="14.00" fill="lightgray">wff ch</text>
</g>
<!-- n1113 -->
<g id="node4" class="node"><title>n1113</title>
<ellipse fill="none" stroke="lightgray" cx="513.091" cy="-341" rx="27" ry="18"/>
<text text-anchor="middle" x="513.091" y="-337.3" font-family="Times New Roman,serif" font-size="14.00" fill="lightgray">wps</text>
</g>
<!-- n1112&#45;&gt;n1113 -->
<g id="edge28" class="edge"><title>n1112&#45;&gt;n1113</title>
</g>
<!-- n1113&#45;&gt;n1128 -->
<g id="edge3" class="edge"><title>n1113&#45;&gt;n1128</title>
<path fill="none" stroke="lightgray" d="M540.447,-341C586.498,-341 682.1,-341 738.816,-341"/>
<polygon fill="lightgray" stroke="lightgray" points="738.933,-344.5 748.933,-341 738.933,-337.5 738.933,-344.5"/>
<text text-anchor="middle" x="644.591" y="-344.8" font-family="Times New Roman,serif" font-size="14.00" fill="lightgray">wff ps</text>
</g>
<!-- n1114 -->
<g id="node5" class="node"><title>n1114</title>
<ellipse fill="none" stroke="lightgray" cx="513.091" cy="-269" rx="27" ry="18"/>
<text text-anchor="middle" x="513.091" y="-265.3" font-family="Times New Roman,serif" font-size="14.00" fill="lightgray">wth</text>
</g>
<!-- n1113&#45;&gt;n1114 -->
<g id="edge29" class="edge"><title>n1113&#45;&gt;n1114</title>
</g>
<!-- n1114&#45;&gt;n1128 -->
<g id="edge4" class="edge"><title>n1114&#45;&gt;n1128</title>
<path fill="none" stroke="lightgray" d="M539.055,-274.193C579.663,-282.841 662.397,-301.303 731.091,-322 736.032,-323.489 741.189,-325.176 746.26,-326.915"/>
<polygon fill="lightgray" stroke="lightgray" points="745.232,-330.264 755.827,-330.286 747.558,-323.661 745.232,-330.264"/>
<text text-anchor="middle" x="644.591" y="-325.8" font-family="Times New Roman,serif" font-size="14.00" fill="lightgray">wff th</text>
</g>
<!-- n1127 -->
<g id="node7" class="node"><title>n1127</title>
<ellipse fill="cyan" stroke="black" cx="513.091" cy="-197" rx="27" ry="18"/>
<text text-anchor="middle" x="513.091" y="-193.3" font-family="Times New Roman,serif" font-size="14.00">syl5</text>
</g>
<!-- n1114&#45;&gt;n1127 -->
<g id="edge30" class="edge"><title>n1114&#45;&gt;n1127</title>
</g>
<!-- n1115 -->
<g id="node6" class="node"><title>n1115</title>
<ellipse fill="none" stroke="lightgray" cx="177.046" cy="-378" rx="27" ry="18"/>
<text text-anchor="middle" x="177.046" y="-374.3" font-family="Times New Roman,serif" font-size="14.00" fill="lightgray">wch</text>
</g>
<!-- n1115&#45;&gt;n1127 -->
<g id="edge5" class="edge"><title>n1115&#45;&gt;n1127</title>
<path fill="none" stroke="lightgray" d="M203.888,-381.591C260.213,-387.844 394.853,-393.983 468.091,-323 494.572,-297.334 472.711,-276.365 486.091,-242 488.687,-235.334 492.168,-228.481 495.738,-222.196"/>
<polygon fill="lightgray" stroke="lightgray" points="498.819,-223.863 500.938,-213.482 492.808,-220.276 498.819,-223.863"/>
<text text-anchor="middle" x="356.591" y="-388.8" font-family="Times New Roman,serif" font-size="14.00" fill="lightgray">wff ch</text>
</g>
<!-- n1118 -->
<g id="node9" class="node"><title>n1118</title>
<ellipse fill="none" stroke="lightgray" cx="177.046" cy="-306" rx="27" ry="18"/>
<text text-anchor="middle" x="177.046" y="-302.3" font-family="Times New Roman,serif" font-size="14.00" fill="lightgray">wi</text>
</g>
<!-- n1115&#45;&gt;n1118 -->
<g id="edge21" class="edge"><title>n1115&#45;&gt;n1118</title>
</g>
<!-- n1127&#45;&gt;n1128 -->
<g id="edge20" class="edge"><title>n1127&#45;&gt;n1128</title>
<path fill="none" stroke="black" d="M540.044,-198.74C583.539,-202.829 672.166,-216.304 731.091,-260 749.63,-273.747 763.473,-296.102 772.315,-313.847"/>
<polygon fill="black" stroke="black" points="769.274,-315.603 776.711,-323.148 775.602,-312.611 769.274,-315.603"/>
<text text-anchor="middle" x="644.591" y="-263.8" font-family="Times New Roman,serif" font-size="14.00">|&#45; ( ph &#45;&gt; ( ch &#45;&gt; ( ps &#45;&gt; th ) ) )</text>
</g>
<!-- n1116 -->
<g id="node8" class="node"><title>n1116</title>
<ellipse fill="none" stroke="lightgray" cx="27" cy="-363" rx="27" ry="18"/>
<text text-anchor="middle" x="27" y="-359.3" font-family="Times New Roman,serif" font-size="14.00" fill="lightgray">wps</text>
</g>
<!-- n1116&#45;&gt;n1118 -->
<g id="edge6" class="edge"><title>n1116&#45;&gt;n1118</title>
<path fill="none" stroke="lightgray" d="M50.8077,-354.219C75.6214,-344.665 115.495,-329.313 143.573,-318.503"/>
<polygon fill="lightgray" stroke="lightgray" points="144.893,-321.745 152.968,-314.885 142.378,-315.212 144.893,-321.745"/>
<text text-anchor="middle" x="90.5" y="-347.8" font-family="Times New Roman,serif" font-size="14.00" fill="lightgray">wff ps</text>
</g>
<!-- n1117 -->
<g id="node10" class="node"><title>n1117</title>
<ellipse fill="none" stroke="lightgray" cx="27" cy="-291" rx="27" ry="18"/>
<text text-anchor="middle" x="27" y="-287.3" font-family="Times New Roman,serif" font-size="14.00" fill="lightgray">wch</text>
</g>
<!-- n1116&#45;&gt;n1117 -->
<g id="edge9" class="edge"><title>n1116&#45;&gt;n1117</title>
</g>
<!-- n1118&#45;&gt;n1127 -->
<g id="edge8" class="edge"><title>n1118&#45;&gt;n1127</title>
<path fill="none" stroke="lightgray" d="M204.382,-305.923C257.74,-304.665 380.928,-296.086 468.091,-246 478.565,-239.981 487.888,-230.584 495.226,-221.623"/>
<polygon fill="lightgray" stroke="lightgray" points="498.057,-223.683 501.384,-213.624 492.51,-219.413 498.057,-223.683"/>
<text text-anchor="middle" x="356.591" y="-307.8" font-family="Times New Roman,serif" font-size="14.00" fill="lightgray">wff ( ps &#45;&gt; ch )</text>
</g>
<!-- n1119 -->
<g id="node11" class="node"><title>n1119</title>
<ellipse fill="none" stroke="lightgray" cx="177.046" cy="-234" rx="27" ry="18"/>
<text text-anchor="middle" x="177.046" y="-230.3" font-family="Times New Roman,serif" font-size="14.00" fill="lightgray">wph</text>
</g>
<!-- n1118&#45;&gt;n1119 -->
<g id="edge22" class="edge"><title>n1118&#45;&gt;n1119</title>
</g>
<!-- n1117&#45;&gt;n1118 -->
<g id="edge7" class="edge"><title>n1117&#45;&gt;n1118</title>
<path fill="none" stroke="lightgray" d="M53.7876,-293.613C77.7029,-296.036 113.516,-299.664 140.208,-302.369"/>
<polygon fill="lightgray" stroke="lightgray" points="140.004,-305.866 150.306,-303.392 140.709,-298.902 140.004,-305.866"/>
<text text-anchor="middle" x="90.5" y="-302.8" font-family="Times New Roman,serif" font-size="14.00" fill="lightgray">wff ch</text>
</g>
<!-- n1119&#45;&gt;n1127 -->
<g id="edge10" class="edge"><title>n1119&#45;&gt;n1127</title>
<path fill="none" stroke="lightgray" d="M204.074,-231.474C254.883,-226.487 370.815,-214.828 468.091,-203 470.796,-202.671 473.593,-202.319 476.404,-201.955"/>
<polygon fill="lightgray" stroke="lightgray" points="477.061,-205.399 486.514,-200.616 476.141,-198.46 477.061,-205.399"/>
<text text-anchor="middle" x="356.591" y="-230.8" font-family="Times New Roman,serif" font-size="14.00" fill="lightgray">wff ph</text>
</g>
<!-- n1122 -->
<g id="node13" class="node"><title>n1122</title>
<ellipse fill="none" stroke="lightgray" cx="177.046" cy="-162" rx="27" ry="18"/>
<text text-anchor="middle" x="177.046" y="-158.3" font-family="Times New Roman,serif" font-size="14.00" fill="lightgray">wi</text>
</g>
<!-- n1119&#45;&gt;n1122 -->
<g id="edge23" class="edge"><title>n1119&#45;&gt;n1122</title>
</g>
<!-- n1120 -->
<g id="node12" class="node"><title>n1120</title>
<ellipse fill="none" stroke="lightgray" cx="27" cy="-230" rx="27" ry="18"/>
<text text-anchor="middle" x="27" y="-226.3" font-family="Times New Roman,serif" font-size="14.00" fill="lightgray">wps</text>
</g>
<!-- n1120&#45;&gt;n1122 -->
<g id="edge11" class="edge"><title>n1120&#45;&gt;n1122</title>
<path fill="none" stroke="lightgray" d="M49.8446,-219.966C74.9923,-208.416 116.487,-189.356 144.987,-176.266"/>
<polygon fill="lightgray" stroke="lightgray" points="146.485,-179.429 154.111,-172.075 143.563,-173.068 146.485,-179.429"/>
<text text-anchor="middle" x="90.5" y="-212.8" font-family="Times New Roman,serif" font-size="14.00" fill="lightgray">wff ps</text>
</g>
<!-- n1121 -->
<g id="node14" class="node"><title>n1121</title>
<ellipse fill="none" stroke="lightgray" cx="27" cy="-158" rx="27" ry="18"/>
<text text-anchor="middle" x="27" y="-154.3" font-family="Times New Roman,serif" font-size="14.00" fill="lightgray">wth</text>
</g>
<!-- n1120&#45;&gt;n1121 -->
<g id="edge14" class="edge"><title>n1120&#45;&gt;n1121</title>
</g>
<!-- n1122&#45;&gt;n1127 -->
<g id="edge13" class="edge"><title>n1122&#45;&gt;n1127</title>
<path fill="none" stroke="lightgray" d="M204.16,-163.355C255.119,-166.216 371.298,-173.808 468.091,-188 470.984,-188.424 473.974,-188.917 476.969,-189.45"/>
<polygon fill="lightgray" stroke="lightgray" points="476.569,-192.936 487.047,-191.371 477.88,-186.06 476.569,-192.936"/>
<text text-anchor="middle" x="356.591" y="-191.8" font-family="Times New Roman,serif" font-size="14.00" fill="lightgray">wff ( ps &#45;&gt; th )</text>
</g>
<!-- n1125 -->
<g id="node16" class="node"><title>n1125</title>
<ellipse fill="lime" stroke="black" cx="177.046" cy="-90" rx="27" ry="18"/>
<text text-anchor="middle" x="177.046" y="-86.3" font-family="Times New Roman,serif" font-size="14.00">ax&#45;1</text>
</g>
<!-- n1122&#45;&gt;n1125 -->
<g id="edge24" class="edge"><title>n1122&#45;&gt;n1125</title>
</g>
<!-- n1121&#45;&gt;n1122 -->
<g id="edge12" class="edge"><title>n1121&#45;&gt;n1122</title>
<path fill="none" stroke="lightgray" d="M54.1268,-158.706C77.8701,-159.347 113.135,-160.3 139.638,-161.016"/>
<polygon fill="lightgray" stroke="lightgray" points="139.591,-164.516 149.682,-161.288 139.78,-157.519 139.591,-164.516"/>
<text text-anchor="middle" x="90.5" y="-164.8" font-family="Times New Roman,serif" font-size="14.00" fill="lightgray">wff th</text>
</g>
<!-- n1123 -->
<g id="node15" class="node"><title>n1123</title>
<ellipse fill="none" stroke="lightgray" cx="27" cy="-103" rx="27" ry="18"/>
<text text-anchor="middle" x="27" y="-99.3" font-family="Times New Roman,serif" font-size="14.00" fill="lightgray">wch</text>
</g>
<!-- n1123&#45;&gt;n1125 -->
<g id="edge15" class="edge"><title>n1123&#45;&gt;n1125</title>
<path fill="none" stroke="lightgray" d="M53.7876,-100.736C77.6298,-98.642 113.297,-95.51 139.962,-93.1685"/>
<polygon fill="lightgray" stroke="lightgray" points="140.401,-96.6435 150.057,-92.2821 139.789,-89.6703 140.401,-96.6435"/>
<text text-anchor="middle" x="90.5" y="-102.8" font-family="Times New Roman,serif" font-size="14.00" fill="lightgray">wff ch</text>
</g>
<!-- n1124 -->
<g id="node17" class="node"><title>n1124</title>
<ellipse fill="none" stroke="lightgray" cx="27" cy="-31" rx="27" ry="18"/>
<text text-anchor="middle" x="27" y="-27.3" font-family="Times New Roman,serif" font-size="14.00" fill="lightgray">wps</text>
</g>
<!-- n1123&#45;&gt;n1124 -->
<g id="edge18" class="edge"><title>n1123&#45;&gt;n1124</title>
</g>
<!-- n1125&#45;&gt;n1127 -->
<g id="edge17" class="edge"><title>n1125&#45;&gt;n1127</title>
<path fill="none" stroke="black" d="M204.374,-89.8546C257.717,-90.6696 380.88,-98.2702 468.091,-148 478.585,-153.984 487.912,-163.375 495.247,-172.341"/>
<polygon fill="black" stroke="black" points="492.531,-174.551 501.4,-180.347 498.081,-170.285 492.531,-174.551"/>
<text text-anchor="middle" x="356.591" y="-151.8" font-family="Times New Roman,serif" font-size="14.00">|&#45; ( ch &#45;&gt; ( ps &#45;&gt; ch ) )</text>
</g>
<!-- n1126 -->
<g id="node18" class="node"><title>n1126</title>
<ellipse fill="orange" stroke="black" cx="177.046" cy="-18" rx="50.0912" ry="18"/>
<text text-anchor="middle" x="177.046" y="-14.3" font-family="Times New Roman,serif" font-size="14.00">pm2.86d.1</text>
</g>
<!-- n1125&#45;&gt;n1126 -->
<g id="edge25" class="edge"><title>n1125&#45;&gt;n1126</title>
</g>
<!-- n1124&#45;&gt;n1125 -->
<g id="edge16" class="edge"><title>n1124&#45;&gt;n1125</title>
<path fill="none" stroke="lightgray" d="M50.4849,-39.9608C75.3761,-49.8806 115.702,-65.9515 143.919,-77.1966"/>
<polygon fill="lightgray" stroke="lightgray" points="142.764,-80.504 153.349,-80.9548 145.355,-74.0014 142.764,-80.504"/>
<text text-anchor="middle" x="90.5" y="-66.8" font-family="Times New Roman,serif" font-size="14.00" fill="lightgray">wff ps</text>
</g>
<!-- n1126&#45;&gt;n1127 -->
<g id="edge19" class="edge"><title>n1126&#45;&gt;n1127</title>
<path fill="none" stroke="black" d="M225.789,-13.5307C288.826,-10.3376 399.796,-14.4638 468.091,-73 496.081,-96.9906 506.267,-140.012 509.973,-168.536"/>
<polygon fill="black" stroke="black" points="506.518,-169.136 511.1,-178.689 513.475,-168.364 506.518,-169.136"/>
<text text-anchor="middle" x="356.591" y="-76.8" font-family="Times New Roman,serif" font-size="14.00">|&#45; ( ph &#45;&gt; ( ( ps &#45;&gt; ch ) &#45;&gt; ( ps &#45;&gt; th ) ) )</text>
</g>
</g>
</svg>
