<?xml version="1.0" encoding="UTF-8" standalone="no"?>
<!DOCTYPE svg PUBLIC "-//W3C//DTD SVG 1.1//EN"
 "http://www.w3.org/Graphics/SVG/1.1/DTD/svg11.dtd">
<!-- Generated by graphviz version 2.38.0 (20140413.2041)
 -->
<!-- Title: proof_pm2_54 Pages: 1 -->
<svg width="912pt" height="368pt"
 viewBox="0.00 0.00 911.78 368.00" xmlns="http://www.w3.org/2000/svg" xmlns:xlink="http://www.w3.org/1999/xlink">
<g id="graph0" class="graph" transform="scale(1 1) rotate(0) translate(4 364)">
<title>proof_pm2_54</title>
<polygon fill="white" stroke="none" points="-4,4 -4,-364 907.783,-364 907.783,4 -4,4"/>
<!-- n7145 -->
<g id="node1" class="node"><title>n7145</title>
<ellipse fill="none" stroke="lightgray" cx="154" cy="-342" rx="27" ry="18"/>
<text text-anchor="middle" x="154" y="-338.3" font-family="Times New Roman,serif" font-size="14.00" fill="lightgray">wph</text>
</g>
<!-- n7147 -->
<g id="node2" class="node"><title>n7147</title>
<ellipse fill="none" stroke="lightgray" cx="295.247" cy="-262" rx="27" ry="18"/>
<text text-anchor="middle" x="295.247" y="-258.3" font-family="Times New Roman,serif" font-size="14.00" fill="lightgray">wo</text>
</g>
<!-- n7145&#45;&gt;n7147 -->
<g id="edge1" class="edge"><title>n7145&#45;&gt;n7147</title>
<path fill="none" stroke="lightgray" d="M174.951,-330.538C198.63,-316.934 238.304,-294.141 265.343,-278.606"/>
<polygon fill="lightgray" stroke="lightgray" points="267.406,-281.457 274.334,-273.441 263.919,-275.388 267.406,-281.457"/>
<text text-anchor="middle" x="223.5" y="-319.8" font-family="Times New Roman,serif" font-size="14.00" fill="lightgray">wff ph</text>
</g>
<!-- n7146 -->
<g id="node3" class="node"><title>n7146</title>
<ellipse fill="none" stroke="lightgray" cx="154" cy="-270" rx="27" ry="18"/>
<text text-anchor="middle" x="154" y="-266.3" font-family="Times New Roman,serif" font-size="14.00" fill="lightgray">wps</text>
</g>
<!-- n7145&#45;&gt;n7146 -->
<g id="edge4" class="edge"><title>n7145&#45;&gt;n7146</title>
</g>
<!-- n7155 -->
<g id="node4" class="node"><title>n7155</title>
<ellipse fill="cyan" stroke="black" cx="588.892" cy="-179" rx="36.2938" ry="18"/>
<text text-anchor="middle" x="588.892" y="-175.3" font-family="Times New Roman,serif" font-size="14.00">biimpri</text>
</g>
<!-- n7147&#45;&gt;n7155 -->
<g id="edge3" class="edge"><title>n7147&#45;&gt;n7155</title>
<path fill="none" stroke="lightgray" d="M320.783,-256.093C364.185,-245.492 457.215,-222.087 534.495,-198 539.418,-196.466 544.563,-194.763 549.633,-193.026"/>
<polygon fill="lightgray" stroke="lightgray" points="550.927,-196.281 559.212,-189.677 548.617,-189.673 550.927,-196.281"/>
<text text-anchor="middle" x="438.495" y="-254.8" font-family="Times New Roman,serif" font-size="14.00" fill="lightgray">wff ( ph \/ ps )</text>
</g>
<!-- n7151 -->
<g id="node7" class="node"><title>n7151</title>
<ellipse fill="none" stroke="lightgray" cx="295.247" cy="-179" rx="27" ry="18"/>
<text text-anchor="middle" x="295.247" y="-175.3" font-family="Times New Roman,serif" font-size="14.00" fill="lightgray">wi</text>
</g>
<!-- n7147&#45;&gt;n7151 -->
<g id="edge15" class="edge"><title>n7147&#45;&gt;n7151</title>
</g>
<!-- n7146&#45;&gt;n7147 -->
<g id="edge2" class="edge"><title>n7146&#45;&gt;n7147</title>
<path fill="none" stroke="lightgray" d="M181.191,-268.495C202.877,-267.249 233.924,-265.466 257.997,-264.083"/>
<polygon fill="lightgray" stroke="lightgray" points="258.391,-267.566 268.173,-263.498 257.989,-260.577 258.391,-267.566"/>
<text text-anchor="middle" x="223.5" y="-271.8" font-family="Times New Roman,serif" font-size="14.00" fill="lightgray">wff ps</text>
</g>
<!-- QED -->
<g id="node12" class="node"><title>QED</title>
</g>
<!-- n7155&#45;&gt;QED -->
<g id="edge14" class="edge"><title>n7155&#45;&gt;QED</title>
<path fill="none" stroke="black" d="M625.528,-179C679.065,-179 779.837,-179 835.015,-179"/>
<polygon fill="black" stroke="black" points="835.091,-182.5 845.091,-179 835.091,-175.5 835.091,-182.5"/>
<text text-anchor="middle" x="735.288" y="-182.8" font-family="Times New Roman,serif" font-size="14.00">|&#45; ( ( &#45;. ph &#45;&gt; ps ) &#45;&gt; ( ph \/ ps ) )</text>
</g>
<!-- n7148 -->
<g id="node5" class="node"><title>n7148</title>
<ellipse fill="none" stroke="lightgray" cx="27" cy="-216" rx="27" ry="18"/>
<text text-anchor="middle" x="27" y="-212.3" font-family="Times New Roman,serif" font-size="14.00" fill="lightgray">wph</text>
</g>
<!-- n7149 -->
<g id="node6" class="node"><title>n7149</title>
<ellipse fill="none" stroke="lightgray" cx="154" cy="-216" rx="27" ry="18"/>
<text text-anchor="middle" x="154" y="-212.3" font-family="Times New Roman,serif" font-size="14.00" fill="lightgray">wn</text>
</g>
<!-- n7148&#45;&gt;n7149 -->
<g id="edge5" class="edge"><title>n7148&#45;&gt;n7149</title>
<path fill="none" stroke="lightgray" d="M54.2041,-216C72.3711,-216 96.7994,-216 116.82,-216"/>
<polygon fill="lightgray" stroke="lightgray" points="116.83,-219.5 126.83,-216 116.83,-212.5 116.83,-219.5"/>
<text text-anchor="middle" x="90.5" y="-219.8" font-family="Times New Roman,serif" font-size="14.00" fill="lightgray">wff ph</text>
</g>
<!-- n7149&#45;&gt;n7151 -->
<g id="edge6" class="edge"><title>n7149&#45;&gt;n7151</title>
<path fill="none" stroke="lightgray" d="M179.255,-209.555C201.581,-203.623 234.931,-194.761 259.975,-188.107"/>
<polygon fill="lightgray" stroke="lightgray" points="261.037,-191.446 269.803,-185.495 259.24,-184.681 261.037,-191.446"/>
<text text-anchor="middle" x="223.5" y="-208.8" font-family="Times New Roman,serif" font-size="14.00" fill="lightgray">wff &#45;. ph</text>
</g>
<!-- n7150 -->
<g id="node8" class="node"><title>n7150</title>
<ellipse fill="none" stroke="lightgray" cx="154" cy="-144" rx="27" ry="18"/>
<text text-anchor="middle" x="154" y="-140.3" font-family="Times New Roman,serif" font-size="14.00" fill="lightgray">wps</text>
</g>
<!-- n7149&#45;&gt;n7150 -->
<g id="edge9" class="edge"><title>n7149&#45;&gt;n7150</title>
</g>
<!-- n7151&#45;&gt;n7155 -->
<g id="edge8" class="edge"><title>n7151&#45;&gt;n7155</title>
<path fill="none" stroke="lightgray" d="M322.386,-179C371.948,-179 480.156,-179 542.042,-179"/>
<polygon fill="lightgray" stroke="lightgray" points="542.297,-182.5 552.297,-179 542.297,-175.5 542.297,-182.5"/>
<text text-anchor="middle" x="438.495" y="-182.8" font-family="Times New Roman,serif" font-size="14.00" fill="lightgray">wff ( &#45;. ph &#45;&gt; ps )</text>
</g>
<!-- n7154 -->
<g id="node10" class="node"><title>n7154</title>
<ellipse fill="none" stroke="lightgray" cx="295.247" cy="-94" rx="29.4969" ry="18"/>
<text text-anchor="middle" x="295.247" y="-90.3" font-family="Times New Roman,serif" font-size="14.00" fill="lightgray">df&#45;or</text>
</g>
<!-- n7151&#45;&gt;n7154 -->
<g id="edge16" class="edge"><title>n7151&#45;&gt;n7154</title>
</g>
<!-- n7150&#45;&gt;n7151 -->
<g id="edge7" class="edge"><title>n7150&#45;&gt;n7151</title>
<path fill="none" stroke="lightgray" d="M179.986,-149.132C198.777,-153.116 225.114,-158.96 248,-165 252.106,-166.084 256.397,-167.286 260.639,-168.518"/>
<polygon fill="lightgray" stroke="lightgray" points="259.754,-171.907 270.337,-171.404 261.751,-165.197 259.754,-171.907"/>
<text text-anchor="middle" x="223.5" y="-168.8" font-family="Times New Roman,serif" font-size="14.00" fill="lightgray">wff ps</text>
</g>
<!-- n7152 -->
<g id="node9" class="node"><title>n7152</title>
<ellipse fill="none" stroke="lightgray" cx="154" cy="-90" rx="27" ry="18"/>
<text text-anchor="middle" x="154" y="-86.3" font-family="Times New Roman,serif" font-size="14.00" fill="lightgray">wph</text>
</g>
<!-- n7152&#45;&gt;n7154 -->
<g id="edge10" class="edge"><title>n7152&#45;&gt;n7154</title>
<path fill="none" stroke="lightgray" d="M181.191,-90.7524C202.191,-91.3556 231.968,-92.211 255.691,-92.8924"/>
<polygon fill="lightgray" stroke="lightgray" points="255.681,-96.3935 265.777,-93.1822 255.882,-89.3964 255.681,-96.3935"/>
<text text-anchor="middle" x="223.5" y="-96.8" font-family="Times New Roman,serif" font-size="14.00" fill="lightgray">wff ph</text>
</g>
<!-- n7153 -->
<g id="node11" class="node"><title>n7153</title>
<ellipse fill="none" stroke="lightgray" cx="154" cy="-18" rx="27" ry="18"/>
<text text-anchor="middle" x="154" y="-14.3" font-family="Times New Roman,serif" font-size="14.00" fill="lightgray">wps</text>
</g>
<!-- n7152&#45;&gt;n7153 -->
<g id="edge13" class="edge"><title>n7152&#45;&gt;n7153</title>
</g>
<!-- n7154&#45;&gt;n7155 -->
<g id="edge12" class="edge"><title>n7154&#45;&gt;n7155</title>
<path fill="none" stroke="lightgray" d="M322.516,-100.619C366.606,-111.876 458.168,-135.882 534.495,-160 539.412,-161.554 544.553,-163.267 549.621,-165.011"/>
<polygon fill="lightgray" stroke="lightgray" points="548.604,-168.363 559.199,-168.365 550.918,-161.756 548.604,-168.363"/>
<text text-anchor="middle" x="438.495" y="-163.8" font-family="Times New Roman,serif" font-size="14.00" fill="lightgray">|&#45; ( ( ph \/ ps ) &lt;&#45;&gt; ( &#45;. ph &#45;&gt; ps ) )</text>
</g>
<!-- n7153&#45;&gt;n7154 -->
<g id="edge11" class="edge"><title>n7153&#45;&gt;n7154</title>
<path fill="none" stroke="lightgray" d="M175.546,-29.2141C198.826,-41.9199 237,-62.7547 263.755,-77.3578"/>
<polygon fill="lightgray" stroke="lightgray" points="262.245,-80.521 272.7,-82.2396 265.599,-74.3765 262.245,-80.521"/>
<text text-anchor="middle" x="223.5" y="-71.8" font-family="Times New Roman,serif" font-size="14.00" fill="lightgray">wff ps</text>
</g>
</g>
</svg>
