<?xml version="1.0" encoding="UTF-8" standalone="no"?>
<!DOCTYPE svg PUBLIC "-//W3C//DTD SVG 1.1//EN"
 "http://www.w3.org/Graphics/SVG/1.1/DTD/svg11.dtd">
<!-- Generated by graphviz version 2.38.0 (20140413.2041)
 -->
<!-- Title: proof_pm2_41 Pages: 1 -->
<svg width="922pt" height="457pt"
 viewBox="0.00 0.00 922.49 457.00" xmlns="http://www.w3.org/2000/svg" xmlns:xlink="http://www.w3.org/1999/xlink">
<g id="graph0" class="graph" transform="scale(1 1) rotate(0) translate(4 453)">
<title>proof_pm2_41</title>
<polygon fill="white" stroke="none" points="-4,4 -4,-453 918.495,-453 918.495,4 -4,4"/>
<!-- n9694 -->
<g id="node1" class="node"><title>n9694</title>
<ellipse fill="none" stroke="lightgray" cx="326" cy="-395" rx="27" ry="18"/>
<text text-anchor="middle" x="326" y="-391.3" font-family="Times New Roman,serif" font-size="14.00" fill="lightgray">wps</text>
</g>
<!-- n9708 -->
<g id="node2" class="node"><title>n9708</title>
<ellipse fill="cyan" stroke="black" cx="582" cy="-251" rx="27" ry="18"/>
<text text-anchor="middle" x="582" y="-247.3" font-family="Times New Roman,serif" font-size="14.00">jaoi</text>
</g>
<!-- n9694&#45;&gt;n9708 -->
<g id="edge1" class="edge"><title>n9694&#45;&gt;n9708</title>
<path fill="none" stroke="lightgray" d="M353.192,-393.459C396.093,-389.673 482.053,-376.645 537,-332 553.924,-318.249 565.297,-296.189 572.234,-278.561"/>
<polygon fill="lightgray" stroke="lightgray" points="575.66,-279.384 575.814,-268.79 569.087,-276.975 575.66,-279.384"/>
<text text-anchor="middle" x="454" y="-394.8" font-family="Times New Roman,serif" font-size="14.00" fill="lightgray">wff ps</text>
</g>
<!-- n9697 -->
<g id="node4" class="node"><title>n9697</title>
<ellipse fill="none" stroke="lightgray" cx="326" cy="-323" rx="27" ry="18"/>
<text text-anchor="middle" x="326" y="-319.3" font-family="Times New Roman,serif" font-size="14.00" fill="lightgray">wo</text>
</g>
<!-- n9694&#45;&gt;n9697 -->
<g id="edge20" class="edge"><title>n9694&#45;&gt;n9697</title>
</g>
<!-- QED -->
<g id="node16" class="node"><title>QED</title>
</g>
<!-- n9708&#45;&gt;QED -->
<g id="edge19" class="edge"><title>n9708&#45;&gt;QED</title>
<path fill="none" stroke="black" d="M609.207,-251C662.387,-251 783.2,-251 845.498,-251"/>
<polygon fill="black" stroke="black" points="845.698,-254.5 855.698,-251 845.698,-247.5 845.698,-254.5"/>
<text text-anchor="middle" x="732.5" y="-254.8" font-family="Times New Roman,serif" font-size="14.00">|&#45; ( ( ps \/ ( ph \/ ps ) ) &#45;&gt; ( ph \/ ps ) )</text>
</g>
<!-- n9695 -->
<g id="node3" class="node"><title>n9695</title>
<ellipse fill="none" stroke="lightgray" cx="154" cy="-431" rx="27" ry="18"/>
<text text-anchor="middle" x="154" y="-427.3" font-family="Times New Roman,serif" font-size="14.00" fill="lightgray">wph</text>
</g>
<!-- n9695&#45;&gt;n9697 -->
<g id="edge2" class="edge"><title>n9695&#45;&gt;n9697</title>
<path fill="none" stroke="lightgray" d="M178.133,-422.178C204.436,-411.544 248.001,-392.067 281,-368 289.428,-361.853 297.689,-354.033 304.736,-346.642"/>
<polygon fill="lightgray" stroke="lightgray" points="307.669,-348.622 311.856,-338.89 302.514,-343.887 307.669,-348.622"/>
<text text-anchor="middle" x="240" y="-416.8" font-family="Times New Roman,serif" font-size="14.00" fill="lightgray">wff ph</text>
</g>
<!-- n9696 -->
<g id="node5" class="node"><title>n9696</title>
<ellipse fill="none" stroke="lightgray" cx="154" cy="-359" rx="27" ry="18"/>
<text text-anchor="middle" x="154" y="-355.3" font-family="Times New Roman,serif" font-size="14.00" fill="lightgray">wps</text>
</g>
<!-- n9695&#45;&gt;n9696 -->
<g id="edge5" class="edge"><title>n9695&#45;&gt;n9696</title>
</g>
<!-- n9697&#45;&gt;n9708 -->
<g id="edge4" class="edge"><title>n9697&#45;&gt;n9708</title>
<path fill="none" stroke="lightgray" d="M352.269,-317.995C392.097,-309.8 471.667,-292.19 537,-270 541.282,-268.546 545.728,-266.853 550.077,-265.088"/>
<polygon fill="lightgray" stroke="lightgray" points="551.489,-268.291 559.338,-261.174 548.764,-261.843 551.489,-268.291"/>
<text text-anchor="middle" x="454" y="-316.8" font-family="Times New Roman,serif" font-size="14.00" fill="lightgray">wff ( ph \/ ps )</text>
</g>
<!-- n9700 -->
<g id="node7" class="node"><title>n9700</title>
<ellipse fill="none" stroke="lightgray" cx="326" cy="-251" rx="27" ry="18"/>
<text text-anchor="middle" x="326" y="-247.3" font-family="Times New Roman,serif" font-size="14.00" fill="lightgray">wo</text>
</g>
<!-- n9697&#45;&gt;n9700 -->
<g id="edge21" class="edge"><title>n9697&#45;&gt;n9700</title>
</g>
<!-- n9696&#45;&gt;n9697 -->
<g id="edge3" class="edge"><title>n9696&#45;&gt;n9697</title>
<path fill="none" stroke="lightgray" d="M180.084,-353.688C209.17,-347.529 257.3,-337.336 290.043,-330.403"/>
<polygon fill="lightgray" stroke="lightgray" points="291.032,-333.771 300.09,-328.275 289.582,-326.923 291.032,-333.771"/>
<text text-anchor="middle" x="240" y="-352.8" font-family="Times New Roman,serif" font-size="14.00" fill="lightgray">wff ps</text>
</g>
<!-- n9698 -->
<g id="node6" class="node"><title>n9698</title>
<ellipse fill="none" stroke="lightgray" cx="154" cy="-305" rx="27" ry="18"/>
<text text-anchor="middle" x="154" y="-301.3" font-family="Times New Roman,serif" font-size="14.00" fill="lightgray">wps</text>
</g>
<!-- n9698&#45;&gt;n9700 -->
<g id="edge6" class="edge"><title>n9698&#45;&gt;n9700</title>
<path fill="none" stroke="lightgray" d="M179.219,-297.726C204.636,-290.041 245.722,-277.471 281,-266 284.588,-264.833 288.333,-263.593 292.058,-262.344"/>
<polygon fill="lightgray" stroke="lightgray" points="293.399,-265.585 301.749,-259.064 291.155,-258.954 293.399,-265.585"/>
<text text-anchor="middle" x="240" y="-294.8" font-family="Times New Roman,serif" font-size="14.00" fill="lightgray">wff ps</text>
</g>
<!-- n9699 -->
<g id="node8" class="node"><title>n9699</title>
<ellipse fill="none" stroke="lightgray" cx="154" cy="-233" rx="27" ry="18"/>
<text text-anchor="middle" x="154" y="-229.3" font-family="Times New Roman,serif" font-size="14.00" fill="lightgray">wph</text>
</g>
<!-- n9698&#45;&gt;n9699 -->
<g id="edge9" class="edge"><title>n9698&#45;&gt;n9699</title>
</g>
<!-- n9700&#45;&gt;n9708 -->
<g id="edge8" class="edge"><title>n9700&#45;&gt;n9708</title>
<path fill="none" stroke="lightgray" d="M353.226,-251C398.88,-251 493.024,-251 544.84,-251"/>
<polygon fill="lightgray" stroke="lightgray" points="544.917,-254.5 554.917,-251 544.917,-247.5 544.917,-254.5"/>
<text text-anchor="middle" x="454" y="-254.8" font-family="Times New Roman,serif" font-size="14.00" fill="lightgray">wff ( ph \/ ps )</text>
</g>
<!-- n9703 -->
<g id="node10" class="node"><title>n9703</title>
<ellipse fill="cyan" stroke="black" cx="326" cy="-179" rx="27" ry="18"/>
<text text-anchor="middle" x="326" y="-175.3" font-family="Times New Roman,serif" font-size="14.00">olc</text>
</g>
<!-- n9700&#45;&gt;n9703 -->
<g id="edge22" class="edge"><title>n9700&#45;&gt;n9703</title>
</g>
<!-- n9699&#45;&gt;n9700 -->
<g id="edge7" class="edge"><title>n9699&#45;&gt;n9700</title>
<path fill="none" stroke="lightgray" d="M180.819,-235.734C209.735,-238.795 256.791,-243.778 289.237,-247.213"/>
<polygon fill="lightgray" stroke="lightgray" points="288.904,-250.698 299.217,-248.27 289.641,-243.736 288.904,-250.698"/>
<text text-anchor="middle" x="240" y="-250.8" font-family="Times New Roman,serif" font-size="14.00" fill="lightgray">wff ph</text>
</g>
<!-- n9701 -->
<g id="node9" class="node"><title>n9701</title>
<ellipse fill="none" stroke="lightgray" cx="154" cy="-179" rx="27" ry="18"/>
<text text-anchor="middle" x="154" y="-175.3" font-family="Times New Roman,serif" font-size="14.00" fill="lightgray">wps</text>
</g>
<!-- n9701&#45;&gt;n9703 -->
<g id="edge10" class="edge"><title>n9701&#45;&gt;n9703</title>
<path fill="none" stroke="lightgray" d="M181.19,-179C209.892,-179 256.14,-179 288.416,-179"/>
<polygon fill="lightgray" stroke="lightgray" points="288.78,-182.5 298.78,-179 288.78,-175.5 288.78,-182.5"/>
<text text-anchor="middle" x="240" y="-182.8" font-family="Times New Roman,serif" font-size="14.00" fill="lightgray">wff ps</text>
</g>
<!-- n9702 -->
<g id="node11" class="node"><title>n9702</title>
<ellipse fill="none" stroke="lightgray" cx="154" cy="-107" rx="27" ry="18"/>
<text text-anchor="middle" x="154" y="-103.3" font-family="Times New Roman,serif" font-size="14.00" fill="lightgray">wph</text>
</g>
<!-- n9701&#45;&gt;n9702 -->
<g id="edge13" class="edge"><title>n9701&#45;&gt;n9702</title>
</g>
<!-- n9703&#45;&gt;n9708 -->
<g id="edge12" class="edge"><title>n9703&#45;&gt;n9708</title>
<path fill="none" stroke="black" d="M352.269,-184.005C392.097,-192.2 471.667,-209.81 537,-232 541.282,-233.454 545.728,-235.147 550.077,-236.912"/>
<polygon fill="black" stroke="black" points="548.764,-240.157 559.338,-240.826 551.489,-233.709 548.764,-240.157"/>
<text text-anchor="middle" x="454" y="-235.8" font-family="Times New Roman,serif" font-size="14.00">|&#45; ( ps &#45;&gt; ( ph \/ ps ) )</text>
</g>
<!-- n9707 -->
<g id="node15" class="node"><title>n9707</title>
<ellipse fill="cyan" stroke="black" cx="326" cy="-107" rx="27" ry="18"/>
<text text-anchor="middle" x="326" y="-103.3" font-family="Times New Roman,serif" font-size="14.00">id</text>
</g>
<!-- n9703&#45;&gt;n9707 -->
<g id="edge23" class="edge"><title>n9703&#45;&gt;n9707</title>
</g>
<!-- n9702&#45;&gt;n9703 -->
<g id="edge11" class="edge"><title>n9702&#45;&gt;n9703</title>
<path fill="none" stroke="lightgray" d="M177.332,-116.319C202.54,-126.855 244.76,-144.554 281,-160 284.961,-161.688 289.119,-163.47 293.232,-165.24"/>
<polygon fill="lightgray" stroke="lightgray" points="292.065,-168.548 302.634,-169.293 294.837,-162.12 292.065,-168.548"/>
<text text-anchor="middle" x="240" y="-163.8" font-family="Times New Roman,serif" font-size="14.00" fill="lightgray">wff ph</text>
</g>
<!-- n9704 -->
<g id="node12" class="node"><title>n9704</title>
<ellipse fill="none" stroke="lightgray" cx="27" cy="-90" rx="27" ry="18"/>
<text text-anchor="middle" x="27" y="-86.3" font-family="Times New Roman,serif" font-size="14.00" fill="lightgray">wps</text>
</g>
<!-- n9706 -->
<g id="node13" class="node"><title>n9706</title>
<ellipse fill="none" stroke="lightgray" cx="154" cy="-53" rx="27" ry="18"/>
<text text-anchor="middle" x="154" y="-49.3" font-family="Times New Roman,serif" font-size="14.00" fill="lightgray">wo</text>
</g>
<!-- n9704&#45;&gt;n9706 -->
<g id="edge14" class="edge"><title>n9704&#45;&gt;n9706</title>
<path fill="none" stroke="lightgray" d="M52.1013,-82.866C71.2097,-77.2099 98.1365,-69.2396 119.368,-62.9551"/>
<polygon fill="lightgray" stroke="lightgray" points="120.377,-66.3065 128.973,-60.1121 118.391,-59.5943 120.377,-66.3065"/>
<text text-anchor="middle" x="90.5" y="-80.8" font-family="Times New Roman,serif" font-size="14.00" fill="lightgray">wff ps</text>
</g>
<!-- n9705 -->
<g id="node14" class="node"><title>n9705</title>
<ellipse fill="none" stroke="lightgray" cx="27" cy="-18" rx="27" ry="18"/>
<text text-anchor="middle" x="27" y="-14.3" font-family="Times New Roman,serif" font-size="14.00" fill="lightgray">wph</text>
</g>
<!-- n9704&#45;&gt;n9705 -->
<g id="edge17" class="edge"><title>n9704&#45;&gt;n9705</title>
</g>
<!-- n9706&#45;&gt;n9707 -->
<g id="edge16" class="edge"><title>n9706&#45;&gt;n9707</title>
<path fill="none" stroke="lightgray" d="M179.219,-60.2736C204.636,-67.9587 245.722,-80.5295 281,-92 284.588,-93.1666 288.333,-94.4074 292.058,-95.6564"/>
<polygon fill="lightgray" stroke="lightgray" points="291.155,-99.0458 301.749,-98.9361 293.399,-92.4152 291.155,-99.0458"/>
<text text-anchor="middle" x="240" y="-95.8" font-family="Times New Roman,serif" font-size="14.00" fill="lightgray">wff ( ph \/ ps )</text>
</g>
<!-- n9705&#45;&gt;n9706 -->
<g id="edge15" class="edge"><title>n9705&#45;&gt;n9706</title>
<path fill="none" stroke="lightgray" d="M52.1013,-24.7484C71.0013,-30.0404 97.5501,-37.474 118.671,-43.3879"/>
<polygon fill="lightgray" stroke="lightgray" points="117.973,-46.8269 128.546,-46.1529 119.86,-40.0862 117.973,-46.8269"/>
<text text-anchor="middle" x="90.5" y="-44.8" font-family="Times New Roman,serif" font-size="14.00" fill="lightgray">wff ph</text>
</g>
<!-- n9707&#45;&gt;n9708 -->
<g id="edge18" class="edge"><title>n9707&#45;&gt;n9708</title>
<path fill="none" stroke="black" d="M353.192,-108.541C396.093,-112.327 482.053,-125.355 537,-170 553.924,-183.751 565.297,-205.811 572.234,-223.439"/>
<polygon fill="black" stroke="black" points="569.087,-225.025 575.814,-233.21 575.66,-222.616 569.087,-225.025"/>
<text text-anchor="middle" x="454" y="-173.8" font-family="Times New Roman,serif" font-size="14.00">|&#45; ( ( ph \/ ps ) &#45;&gt; ( ph \/ ps ) )</text>
</g>
</g>
</svg>
