<?xml version="1.0" encoding="UTF-8" standalone="no"?>
<!DOCTYPE svg PUBLIC "-//W3C//DTD SVG 1.1//EN"
 "http://www.w3.org/Graphics/SVG/1.1/DTD/svg11.dtd">
<!-- Generated by graphviz version 2.38.0 (20140413.2041)
 -->
<!-- Title: proof_pm2_74 Pages: 1 -->
<svg width="1377pt" height="721pt"
 viewBox="0.00 0.00 1377.48 721.00" xmlns="http://www.w3.org/2000/svg" xmlns:xlink="http://www.w3.org/1999/xlink">
<g id="graph0" class="graph" transform="scale(1 1) rotate(0) translate(4 717)">
<title>proof_pm2_74</title>
<polygon fill="white" stroke="none" points="-4,4 -4,-717 1373.48,-717 1373.48,4 -4,4"/>
<!-- n14460 -->
<g id="node1" class="node"><title>n14460</title>
<ellipse fill="none" stroke="lightgray" cx="327.597" cy="-695" rx="27" ry="18"/>
<text text-anchor="middle" x="327.597" y="-691.3" font-family="Times New Roman,serif" font-size="14.00" fill="lightgray">wps</text>
</g>
<!-- n14462 -->
<g id="node2" class="node"><title>n14462</title>
<ellipse fill="none" stroke="lightgray" cx="603.195" cy="-623" rx="27" ry="18"/>
<text text-anchor="middle" x="603.195" y="-619.3" font-family="Times New Roman,serif" font-size="14.00" fill="lightgray">wi</text>
</g>
<!-- n14460&#45;&gt;n14462 -->
<g id="edge1" class="edge"><title>n14460&#45;&gt;n14462</title>
<path fill="none" stroke="lightgray" d="M354.148,-690.665C396.981,-683.052 485.707,-665.801 558.195,-642 562.491,-640.589 566.946,-638.922 571.299,-637.169"/>
<polygon fill="lightgray" stroke="lightgray" points="572.707,-640.374 580.563,-633.265 569.988,-633.923 572.707,-640.374"/>
<text text-anchor="middle" x="466.195" y="-689.8" font-family="Times New Roman,serif" font-size="14.00" fill="lightgray">wff ps</text>
</g>
<!-- n14461 -->
<g id="node3" class="node"><title>n14461</title>
<ellipse fill="none" stroke="lightgray" cx="327.597" cy="-623" rx="27" ry="18"/>
<text text-anchor="middle" x="327.597" y="-619.3" font-family="Times New Roman,serif" font-size="14.00" fill="lightgray">wph</text>
</g>
<!-- n14460&#45;&gt;n14461 -->
<g id="edge4" class="edge"><title>n14460&#45;&gt;n14461</title>
</g>
<!-- n14484 -->
<g id="node4" class="node"><title>n14484</title>
<ellipse fill="cyan" stroke="black" cx="925.592" cy="-479" rx="36.2938" ry="18"/>
<text text-anchor="middle" x="925.592" y="-475.3" font-family="Times New Roman,serif" font-size="14.00">orim1d</text>
</g>
<!-- n14462&#45;&gt;n14484 -->
<g id="edge3" class="edge"><title>n14462&#45;&gt;n14484</title>
<path fill="none" stroke="lightgray" d="M630.343,-623.627C681.393,-623.572 795.903,-617.037 871.195,-564 891.335,-549.813 905.514,-525.377 914.174,-506.335"/>
<polygon fill="lightgray" stroke="lightgray" points="917.473,-507.523 918.202,-496.953 911.041,-504.761 917.473,-507.523"/>
<text text-anchor="middle" x="759.695" y="-627.8" font-family="Times New Roman,serif" font-size="14.00" fill="lightgray">wff ( ps &#45;&gt; ph )</text>
</g>
<!-- n14465 -->
<g id="node6" class="node"><title>n14465</title>
<ellipse fill="none" stroke="lightgray" cx="603.195" cy="-551" rx="27" ry="18"/>
<text text-anchor="middle" x="603.195" y="-547.3" font-family="Times New Roman,serif" font-size="14.00" fill="lightgray">wo</text>
</g>
<!-- n14462&#45;&gt;n14465 -->
<g id="edge37" class="edge"><title>n14462&#45;&gt;n14465</title>
</g>
<!-- n14461&#45;&gt;n14462 -->
<g id="edge2" class="edge"><title>n14461&#45;&gt;n14462</title>
<path fill="none" stroke="lightgray" d="M354.831,-623C403.96,-623 509.917,-623 565.873,-623"/>
<polygon fill="lightgray" stroke="lightgray" points="566.041,-626.5 576.041,-623 566.041,-619.5 566.041,-626.5"/>
<text text-anchor="middle" x="466.195" y="-626.8" font-family="Times New Roman,serif" font-size="14.00" fill="lightgray">wff ph</text>
</g>
<!-- QED -->
<g id="node26" class="node"><title>QED</title>
</g>
<!-- n14484&#45;&gt;QED -->
<g id="edge36" class="edge"><title>n14484&#45;&gt;QED</title>
<path fill="none" stroke="black" d="M962.131,-479C1039.21,-479 1221.22,-479 1300.83,-479"/>
<polygon fill="black" stroke="black" points="1300.92,-482.5 1310.92,-479 1300.92,-475.5 1300.92,-482.5"/>
<text text-anchor="middle" x="1136.49" y="-482.8" font-family="Times New Roman,serif" font-size="14.00">|&#45; ( ( ps &#45;&gt; ph ) &#45;&gt; ( ( ( ph \/ ps ) \/ ch ) &#45;&gt; ( ph \/ ch ) ) )</text>
</g>
<!-- n14463 -->
<g id="node5" class="node"><title>n14463</title>
<ellipse fill="none" stroke="lightgray" cx="327.597" cy="-569" rx="27" ry="18"/>
<text text-anchor="middle" x="327.597" y="-565.3" font-family="Times New Roman,serif" font-size="14.00" fill="lightgray">wph</text>
</g>
<!-- n14463&#45;&gt;n14465 -->
<g id="edge5" class="edge"><title>n14463&#45;&gt;n14465</title>
<path fill="none" stroke="lightgray" d="M354.831,-567.274C403.96,-564.042 509.917,-557.071 565.873,-553.39"/>
<polygon fill="lightgray" stroke="lightgray" points="566.292,-556.87 576.041,-552.721 565.832,-549.885 566.292,-556.87"/>
<text text-anchor="middle" x="466.195" y="-569.8" font-family="Times New Roman,serif" font-size="14.00" fill="lightgray">wff ph</text>
</g>
<!-- n14464 -->
<g id="node7" class="node"><title>n14464</title>
<ellipse fill="none" stroke="lightgray" cx="327.597" cy="-497" rx="27" ry="18"/>
<text text-anchor="middle" x="327.597" y="-493.3" font-family="Times New Roman,serif" font-size="14.00" fill="lightgray">wps</text>
</g>
<!-- n14463&#45;&gt;n14464 -->
<g id="edge8" class="edge"><title>n14463&#45;&gt;n14464</title>
</g>
<!-- n14465&#45;&gt;n14484 -->
<g id="edge7" class="edge"><title>n14465&#45;&gt;n14484</title>
<path fill="none" stroke="lightgray" d="M629.886,-547.181C677.824,-539.773 783.947,-522.044 871.195,-498 876.224,-496.614 881.46,-494.987 886.602,-493.279"/>
<polygon fill="lightgray" stroke="lightgray" points="887.983,-496.505 896.294,-489.935 885.699,-489.888 887.983,-496.505"/>
<text text-anchor="middle" x="759.695" y="-548.8" font-family="Times New Roman,serif" font-size="14.00" fill="lightgray">wff ( ph \/ ps )</text>
</g>
<!-- n14466 -->
<g id="node8" class="node"><title>n14466</title>
<ellipse fill="none" stroke="lightgray" cx="603.195" cy="-479" rx="27" ry="18"/>
<text text-anchor="middle" x="603.195" y="-475.3" font-family="Times New Roman,serif" font-size="14.00" fill="lightgray">wph</text>
</g>
<!-- n14465&#45;&gt;n14466 -->
<g id="edge38" class="edge"><title>n14465&#45;&gt;n14466</title>
</g>
<!-- n14464&#45;&gt;n14465 -->
<g id="edge6" class="edge"><title>n14464&#45;&gt;n14465</title>
<path fill="none" stroke="lightgray" d="M354.359,-500.006C397.128,-505.301 485.3,-517.511 558.195,-536 561.852,-536.928 565.641,-538.017 569.391,-539.177"/>
<polygon fill="lightgray" stroke="lightgray" points="568.52,-542.575 579.112,-542.355 570.695,-535.921 568.52,-542.575"/>
<text text-anchor="middle" x="466.195" y="-539.8" font-family="Times New Roman,serif" font-size="14.00" fill="lightgray">wff ps</text>
</g>
<!-- n14466&#45;&gt;n14484 -->
<g id="edge9" class="edge"><title>n14466&#45;&gt;n14484</title>
<path fill="none" stroke="lightgray" d="M630.414,-479C684.931,-479 811.087,-479 879.131,-479"/>
<polygon fill="lightgray" stroke="lightgray" points="879.134,-482.5 889.134,-479 879.134,-475.5 879.134,-482.5"/>
<text text-anchor="middle" x="759.695" y="-482.8" font-family="Times New Roman,serif" font-size="14.00" fill="lightgray">wff ph</text>
</g>
<!-- n14467 -->
<g id="node9" class="node"><title>n14467</title>
<ellipse fill="none" stroke="lightgray" cx="603.195" cy="-407" rx="27" ry="18"/>
<text text-anchor="middle" x="603.195" y="-403.3" font-family="Times New Roman,serif" font-size="14.00" fill="lightgray">wch</text>
</g>
<!-- n14466&#45;&gt;n14467 -->
<g id="edge39" class="edge"><title>n14466&#45;&gt;n14467</title>
</g>
<!-- n14467&#45;&gt;n14484 -->
<g id="edge10" class="edge"><title>n14467&#45;&gt;n14484</title>
<path fill="none" stroke="lightgray" d="M629.886,-410.819C677.824,-418.227 783.947,-435.956 871.195,-460 876.224,-461.386 881.46,-463.013 886.602,-464.721"/>
<polygon fill="lightgray" stroke="lightgray" points="885.699,-468.112 896.294,-468.065 887.983,-461.495 885.699,-468.112"/>
<text text-anchor="middle" x="759.695" y="-463.8" font-family="Times New Roman,serif" font-size="14.00" fill="lightgray">wff ch</text>
</g>
<!-- n14483 -->
<g id="node11" class="node"><title>n14483</title>
<ellipse fill="cyan" stroke="black" cx="603.195" cy="-335" rx="27" ry="18"/>
<text text-anchor="middle" x="603.195" y="-331.3" font-family="Times New Roman,serif" font-size="14.00">ja</text>
</g>
<!-- n14467&#45;&gt;n14483 -->
<g id="edge40" class="edge"><title>n14467&#45;&gt;n14483</title>
</g>
<!-- n14468 -->
<g id="node10" class="node"><title>n14468</title>
<ellipse fill="none" stroke="lightgray" cx="327.597" cy="-443" rx="27" ry="18"/>
<text text-anchor="middle" x="327.597" y="-439.3" font-family="Times New Roman,serif" font-size="14.00" fill="lightgray">wps</text>
</g>
<!-- n14468&#45;&gt;n14483 -->
<g id="edge11" class="edge"><title>n14468&#45;&gt;n14483</title>
<path fill="none" stroke="lightgray" d="M354.588,-441.218C399.229,-437.14 492.044,-424.133 558.195,-384 568.523,-377.734 577.821,-368.294 585.179,-359.367"/>
<polygon fill="lightgray" stroke="lightgray" points="587.986,-361.46 591.366,-351.418 582.462,-357.16 587.986,-361.46"/>
<text text-anchor="middle" x="466.195" y="-442.8" font-family="Times New Roman,serif" font-size="14.00" fill="lightgray">wff ps</text>
</g>
<!-- n14469 -->
<g id="node12" class="node"><title>n14469</title>
<ellipse fill="none" stroke="lightgray" cx="327.597" cy="-371" rx="27" ry="18"/>
<text text-anchor="middle" x="327.597" y="-367.3" font-family="Times New Roman,serif" font-size="14.00" fill="lightgray">wph</text>
</g>
<!-- n14468&#45;&gt;n14469 -->
<g id="edge32" class="edge"><title>n14468&#45;&gt;n14469</title>
</g>
<!-- n14483&#45;&gt;n14484 -->
<g id="edge31" class="edge"><title>n14483&#45;&gt;n14484</title>
<path fill="none" stroke="black" d="M630.324,-334.525C681.341,-334.865 795.796,-341.987 871.195,-395 891.178,-409.05 905.373,-433.196 914.08,-452.004"/>
<polygon fill="black" stroke="black" points="910.919,-453.512 918.134,-461.271 917.332,-450.707 910.919,-453.512"/>
<text text-anchor="middle" x="759.695" y="-398.8" font-family="Times New Roman,serif" font-size="14.00">|&#45; ( ( ps &#45;&gt; ph ) &#45;&gt; ( ( ph \/ ps ) &#45;&gt; ph ) )</text>
</g>
<!-- n14469&#45;&gt;n14483 -->
<g id="edge12" class="edge"><title>n14469&#45;&gt;n14483</title>
<path fill="none" stroke="lightgray" d="M354.337,-367.613C403.325,-361.167 510.071,-347.122 566.144,-339.744"/>
<polygon fill="lightgray" stroke="lightgray" points="566.867,-343.179 576.325,-338.404 565.953,-336.239 566.867,-343.179"/>
<text text-anchor="middle" x="466.195" y="-368.8" font-family="Times New Roman,serif" font-size="14.00" fill="lightgray">wff ph</text>
</g>
<!-- n14474 -->
<g id="node16" class="node"><title>n14474</title>
<ellipse fill="none" stroke="lightgray" cx="327.597" cy="-299" rx="27" ry="18"/>
<text text-anchor="middle" x="327.597" y="-295.3" font-family="Times New Roman,serif" font-size="14.00" fill="lightgray">wi</text>
</g>
<!-- n14469&#45;&gt;n14474 -->
<g id="edge33" class="edge"><title>n14469&#45;&gt;n14474</title>
</g>
<!-- n14470 -->
<g id="node13" class="node"><title>n14470</title>
<ellipse fill="none" stroke="lightgray" cx="27" cy="-430" rx="27" ry="18"/>
<text text-anchor="middle" x="27" y="-426.3" font-family="Times New Roman,serif" font-size="14.00" fill="lightgray">wps</text>
</g>
<!-- n14472 -->
<g id="node14" class="node"><title>n14472</title>
<ellipse fill="none" stroke="lightgray" cx="154" cy="-386" rx="27" ry="18"/>
<text text-anchor="middle" x="154" y="-382.3" font-family="Times New Roman,serif" font-size="14.00" fill="lightgray">wo</text>
</g>
<!-- n14470&#45;&gt;n14472 -->
<g id="edge13" class="edge"><title>n14470&#45;&gt;n14472</title>
<path fill="none" stroke="lightgray" d="M51.2186,-421.827C70.6886,-414.974 98.7117,-405.109 120.426,-397.466"/>
<polygon fill="lightgray" stroke="lightgray" points="121.635,-400.751 129.906,-394.129 119.311,-394.148 121.635,-400.751"/>
<text text-anchor="middle" x="90.5" y="-418.8" font-family="Times New Roman,serif" font-size="14.00" fill="lightgray">wff ps</text>
</g>
<!-- n14471 -->
<g id="node15" class="node"><title>n14471</title>
<ellipse fill="none" stroke="lightgray" cx="27" cy="-358" rx="27" ry="18"/>
<text text-anchor="middle" x="27" y="-354.3" font-family="Times New Roman,serif" font-size="14.00" fill="lightgray">wph</text>
</g>
<!-- n14470&#45;&gt;n14471 -->
<g id="edge16" class="edge"><title>n14470&#45;&gt;n14471</title>
</g>
<!-- n14472&#45;&gt;n14474 -->
<g id="edge15" class="edge"><title>n14472&#45;&gt;n14474</title>
<path fill="none" stroke="lightgray" d="M177.825,-376.947C203.473,-366.485 246.088,-348.226 281,-329 287.246,-325.56 293.76,-321.551 299.845,-317.603"/>
<polygon fill="lightgray" stroke="lightgray" points="301.979,-320.388 308.371,-311.938 298.105,-314.557 301.979,-320.388"/>
<text text-anchor="middle" x="240" y="-371.8" font-family="Times New Roman,serif" font-size="14.00" fill="lightgray">wff ( ph \/ ps )</text>
</g>
<!-- n14473 -->
<g id="node17" class="node"><title>n14473</title>
<ellipse fill="none" stroke="lightgray" cx="154" cy="-314" rx="27" ry="18"/>
<text text-anchor="middle" x="154" y="-310.3" font-family="Times New Roman,serif" font-size="14.00" fill="lightgray">wph</text>
</g>
<!-- n14472&#45;&gt;n14473 -->
<g id="edge19" class="edge"><title>n14472&#45;&gt;n14473</title>
</g>
<!-- n14471&#45;&gt;n14472 -->
<g id="edge14" class="edge"><title>n14471&#45;&gt;n14472</title>
<path fill="none" stroke="lightgray" d="M52.8224,-363.484C68.8563,-367.034 90.1664,-371.767 109,-376 112.036,-376.682 115.189,-377.394 118.349,-378.108"/>
<polygon fill="lightgray" stroke="lightgray" points="117.811,-381.575 128.337,-380.373 119.359,-374.748 117.811,-381.575"/>
<text text-anchor="middle" x="90.5" y="-379.8" font-family="Times New Roman,serif" font-size="14.00" fill="lightgray">wff ph</text>
</g>
<!-- n14474&#45;&gt;n14483 -->
<g id="edge18" class="edge"><title>n14474&#45;&gt;n14483</title>
<path fill="none" stroke="lightgray" d="M354.619,-300.343C397.396,-302.858 485.122,-309.31 558.195,-323 561.464,-323.612 564.844,-324.347 568.212,-325.147"/>
<polygon fill="lightgray" stroke="lightgray" points="567.596,-328.602 578.151,-327.687 569.329,-321.82 567.596,-328.602"/>
<text text-anchor="middle" x="466.195" y="-326.8" font-family="Times New Roman,serif" font-size="14.00" fill="lightgray">wff ( ( ph \/ ps ) &#45;&gt; ph )</text>
</g>
<!-- n14477 -->
<g id="node19" class="node"><title>n14477</title>
<ellipse fill="cyan" stroke="black" cx="327.597" cy="-227" rx="28.6953" ry="18"/>
<text text-anchor="middle" x="327.597" y="-223.3" font-family="Times New Roman,serif" font-size="14.00">orel2</text>
</g>
<!-- n14474&#45;&gt;n14477 -->
<g id="edge34" class="edge"><title>n14474&#45;&gt;n14477</title>
</g>
<!-- n14473&#45;&gt;n14474 -->
<g id="edge17" class="edge"><title>n14473&#45;&gt;n14474</title>
<path fill="none" stroke="lightgray" d="M181.062,-311.722C210.249,-309.17 257.747,-305.018 290.498,-302.156"/>
<polygon fill="lightgray" stroke="lightgray" points="290.915,-305.633 300.572,-301.275 290.305,-298.659 290.915,-305.633"/>
<text text-anchor="middle" x="240" y="-313.8" font-family="Times New Roman,serif" font-size="14.00" fill="lightgray">wff ph</text>
</g>
<!-- n14475 -->
<g id="node18" class="node"><title>n14475</title>
<ellipse fill="none" stroke="lightgray" cx="154" cy="-260" rx="27" ry="18"/>
<text text-anchor="middle" x="154" y="-256.3" font-family="Times New Roman,serif" font-size="14.00" fill="lightgray">wps</text>
</g>
<!-- n14475&#45;&gt;n14477 -->
<g id="edge20" class="edge"><title>n14475&#45;&gt;n14477</title>
<path fill="none" stroke="lightgray" d="M180.32,-255.131C209.258,-249.566 256.873,-240.409 289.882,-234.061"/>
<polygon fill="lightgray" stroke="lightgray" points="290.885,-237.432 300.044,-232.106 289.563,-230.558 290.885,-237.432"/>
<text text-anchor="middle" x="240" y="-255.8" font-family="Times New Roman,serif" font-size="14.00" fill="lightgray">wff ps</text>
</g>
<!-- n14476 -->
<g id="node20" class="node"><title>n14476</title>
<ellipse fill="none" stroke="lightgray" cx="154" cy="-188" rx="27" ry="18"/>
<text text-anchor="middle" x="154" y="-184.3" font-family="Times New Roman,serif" font-size="14.00" fill="lightgray">wph</text>
</g>
<!-- n14475&#45;&gt;n14476 -->
<g id="edge23" class="edge"><title>n14475&#45;&gt;n14476</title>
</g>
<!-- n14477&#45;&gt;n14483 -->
<g id="edge22" class="edge"><title>n14477&#45;&gt;n14483</title>
<path fill="none" stroke="black" d="M356.151,-228.267C401.497,-231.486 493.291,-242.859 558.195,-283 569.241,-289.832 578.908,-300.373 586.346,-310.182"/>
<polygon fill="black" stroke="black" points="583.627,-312.399 592.286,-318.503 589.324,-308.331 583.627,-312.399"/>
<text text-anchor="middle" x="466.195" y="-286.8" font-family="Times New Roman,serif" font-size="14.00">|&#45; ( &#45;. ps &#45;&gt; ( ( ph \/ ps ) &#45;&gt; ph ) )</text>
</g>
<!-- n14482 -->
<g id="node22" class="node"><title>n14482</title>
<ellipse fill="lawngreen" stroke="black" cx="327.597" cy="-145" rx="27" ry="18"/>
<text text-anchor="middle" x="327.597" y="-141.3" font-family="Times New Roman,serif" font-size="14.00">ax&#45;1</text>
</g>
<!-- n14477&#45;&gt;n14482 -->
<g id="edge35" class="edge"><title>n14477&#45;&gt;n14482</title>
</g>
<!-- n14476&#45;&gt;n14477 -->
<g id="edge21" class="edge"><title>n14476&#45;&gt;n14477</title>
<path fill="none" stroke="lightgray" d="M179.952,-193.671C209.098,-200.295 257.547,-211.306 290.723,-218.847"/>
<polygon fill="lightgray" stroke="lightgray" points="289.963,-222.263 300.49,-221.066 291.515,-215.437 289.963,-222.263"/>
<text text-anchor="middle" x="240" y="-220.8" font-family="Times New Roman,serif" font-size="14.00" fill="lightgray">wff ph</text>
</g>
<!-- n14478 -->
<g id="node21" class="node"><title>n14478</title>
<ellipse fill="none" stroke="lightgray" cx="154" cy="-134" rx="27" ry="18"/>
<text text-anchor="middle" x="154" y="-130.3" font-family="Times New Roman,serif" font-size="14.00" fill="lightgray">wph</text>
</g>
<!-- n14478&#45;&gt;n14482 -->
<g id="edge24" class="edge"><title>n14478&#45;&gt;n14482</title>
<path fill="none" stroke="lightgray" d="M181.062,-135.671C210.249,-137.542 257.747,-140.586 290.498,-142.686"/>
<polygon fill="lightgray" stroke="lightgray" points="290.368,-146.185 300.572,-143.332 290.816,-139.199 290.368,-146.185"/>
<text text-anchor="middle" x="240" y="-146.8" font-family="Times New Roman,serif" font-size="14.00" fill="lightgray">wff ph</text>
</g>
<!-- n14481 -->
<g id="node24" class="node"><title>n14481</title>
<ellipse fill="none" stroke="lightgray" cx="154" cy="-62" rx="27" ry="18"/>
<text text-anchor="middle" x="154" y="-58.3" font-family="Times New Roman,serif" font-size="14.00" fill="lightgray">wo</text>
</g>
<!-- n14478&#45;&gt;n14481 -->
<g id="edge30" class="edge"><title>n14478&#45;&gt;n14481</title>
</g>
<!-- n14482&#45;&gt;n14483 -->
<g id="edge29" class="edge"><title>n14482&#45;&gt;n14483</title>
<path fill="none" stroke="black" d="M354.695,-145.119C401.608,-146.75 500.647,-156.863 558.195,-211 585.046,-236.259 595.529,-278.95 599.61,-307.056"/>
<polygon fill="black" stroke="black" points="596.147,-307.569 600.881,-317.047 603.091,-306.686 596.147,-307.569"/>
<text text-anchor="middle" x="466.195" y="-214.8" font-family="Times New Roman,serif" font-size="14.00">|&#45; ( ph &#45;&gt; ( ( ph \/ ps ) &#45;&gt; ph ) )</text>
</g>
<!-- n14479 -->
<g id="node23" class="node"><title>n14479</title>
<ellipse fill="none" stroke="lightgray" cx="27" cy="-90" rx="27" ry="18"/>
<text text-anchor="middle" x="27" y="-86.3" font-family="Times New Roman,serif" font-size="14.00" fill="lightgray">wps</text>
</g>
<!-- n14479&#45;&gt;n14481 -->
<g id="edge25" class="edge"><title>n14479&#45;&gt;n14481</title>
<path fill="none" stroke="lightgray" d="M52.696,-84.4681C71.3212,-80.2961 97.1209,-74.5169 117.89,-69.8646"/>
<polygon fill="lightgray" stroke="lightgray" points="118.934,-73.2175 127.927,-67.6162 117.404,-66.3868 118.934,-73.2175"/>
<text text-anchor="middle" x="90.5" y="-84.8" font-family="Times New Roman,serif" font-size="14.00" fill="lightgray">wff ps</text>
</g>
<!-- n14480 -->
<g id="node25" class="node"><title>n14480</title>
<ellipse fill="none" stroke="lightgray" cx="27" cy="-18" rx="27" ry="18"/>
<text text-anchor="middle" x="27" y="-14.3" font-family="Times New Roman,serif" font-size="14.00" fill="lightgray">wph</text>
</g>
<!-- n14479&#45;&gt;n14480 -->
<g id="edge28" class="edge"><title>n14479&#45;&gt;n14480</title>
</g>
<!-- n14481&#45;&gt;n14482 -->
<g id="edge27" class="edge"><title>n14481&#45;&gt;n14482</title>
<path fill="none" stroke="lightgray" d="M177.676,-71.1404C203.192,-81.6401 245.688,-99.7763 281,-118 286.794,-120.99 292.875,-124.394 298.64,-127.754"/>
<polygon fill="lightgray" stroke="lightgray" points="296.967,-130.831 307.352,-132.931 300.543,-124.813 296.967,-130.831"/>
<text text-anchor="middle" x="240" y="-121.8" font-family="Times New Roman,serif" font-size="14.00" fill="lightgray">wff ( ph \/ ps )</text>
</g>
<!-- n14480&#45;&gt;n14481 -->
<g id="edge26" class="edge"><title>n14480&#45;&gt;n14481</title>
<path fill="none" stroke="lightgray" d="M51.2186,-26.1729C70.6886,-33.0264 98.7117,-42.8905 120.426,-50.534"/>
<polygon fill="lightgray" stroke="lightgray" points="119.311,-53.8519 129.906,-53.8708 121.635,-47.249 119.311,-53.8519"/>
<text text-anchor="middle" x="90.5" y="-50.8" font-family="Times New Roman,serif" font-size="14.00" fill="lightgray">wff ph</text>
</g>
</g>
</svg>
