<?xml version="1.0" encoding="UTF-8" standalone="no"?>
<!DOCTYPE svg PUBLIC "-//W3C//DTD SVG 1.1//EN"
 "http://www.w3.org/Graphics/SVG/1.1/DTD/svg11.dtd">
<!-- Generated by graphviz version 2.38.0 (20140413.2041)
 -->
<!-- Title: proof_pm3_1 Pages: 1 -->
<svg width="1116pt" height="305pt"
 viewBox="0.00 0.00 1115.79 305.00" xmlns="http://www.w3.org/2000/svg" xmlns:xlink="http://www.w3.org/1999/xlink">
<g id="graph0" class="graph" transform="scale(1 1) rotate(0) translate(4 301)">
<title>proof_pm3_1</title>
<polygon fill="white" stroke="none" points="-4,4 -4,-301 1111.79,-301 1111.79,4 -4,4"/>
<!-- n8604 -->
<g id="node1" class="node"><title>n8604</title>
<ellipse fill="none" stroke="lightgray" cx="293" cy="-279" rx="27" ry="18"/>
<text text-anchor="middle" x="293" y="-275.3" font-family="Times New Roman,serif" font-size="14.00" fill="lightgray">wph</text>
</g>
<!-- n8606 -->
<g id="node2" class="node"><title>n8606</title>
<ellipse fill="none" stroke="lightgray" cx="486" cy="-221" rx="27" ry="18"/>
<text text-anchor="middle" x="486" y="-217.3" font-family="Times New Roman,serif" font-size="14.00" fill="lightgray">wa</text>
</g>
<!-- n8604&#45;&gt;n8606 -->
<g id="edge1" class="edge"><title>n8604&#45;&gt;n8606</title>
<path fill="none" stroke="lightgray" d="M318.29,-272.248C347.519,-264.042 398.031,-249.602 441,-236 444.597,-234.861 448.348,-233.638 452.076,-232.4"/>
<polygon fill="lightgray" stroke="lightgray" points="453.413,-235.643 461.771,-229.132 451.177,-229.009 453.413,-235.643"/>
<text text-anchor="middle" x="389.5" y="-269.8" font-family="Times New Roman,serif" font-size="14.00" fill="lightgray">wff ph</text>
</g>
<!-- n8605 -->
<g id="node3" class="node"><title>n8605</title>
<ellipse fill="none" stroke="lightgray" cx="293" cy="-207" rx="27" ry="18"/>
<text text-anchor="middle" x="293" y="-203.3" font-family="Times New Roman,serif" font-size="14.00" fill="lightgray">wps</text>
</g>
<!-- n8604&#45;&gt;n8605 -->
<g id="edge4" class="edge"><title>n8604&#45;&gt;n8605</title>
</g>
<!-- n8616 -->
<g id="node4" class="node"><title>n8616</title>
<ellipse fill="cyan" stroke="black" cx="785.147" cy="-149" rx="33.2948" ry="18"/>
<text text-anchor="middle" x="785.147" y="-145.3" font-family="Times New Roman,serif" font-size="14.00">biimpi</text>
</g>
<!-- n8606&#45;&gt;n8616 -->
<g id="edge3" class="edge"><title>n8606&#45;&gt;n8616</title>
<path fill="none" stroke="lightgray" d="M512.562,-216.827C557.754,-209.161 654.493,-191.446 734,-168 738.897,-166.556 743.998,-164.858 748.99,-163.082"/>
<polygon fill="lightgray" stroke="lightgray" points="750.206,-166.364 758.374,-159.617 747.781,-159.798 750.206,-166.364"/>
<text text-anchor="middle" x="632.5" y="-217.8" font-family="Times New Roman,serif" font-size="14.00" fill="lightgray">wff ( ph / ps )</text>
</g>
<!-- n8612 -->
<g id="node10" class="node"><title>n8612</title>
<ellipse fill="none" stroke="lightgray" cx="486" cy="-149" rx="27" ry="18"/>
<text text-anchor="middle" x="486" y="-145.3" font-family="Times New Roman,serif" font-size="14.00" fill="lightgray">wn</text>
</g>
<!-- n8606&#45;&gt;n8612 -->
<g id="edge17" class="edge"><title>n8606&#45;&gt;n8612</title>
</g>
<!-- n8605&#45;&gt;n8606 -->
<g id="edge2" class="edge"><title>n8605&#45;&gt;n8606</title>
<path fill="none" stroke="lightgray" d="M320.157,-208.917C353.497,-211.361 411.299,-215.598 448.839,-218.349"/>
<polygon fill="lightgray" stroke="lightgray" points="448.624,-221.843 458.853,-219.083 449.136,-214.862 448.624,-221.843"/>
<text text-anchor="middle" x="389.5" y="-221.8" font-family="Times New Roman,serif" font-size="14.00" fill="lightgray">wff ps</text>
</g>
<!-- QED -->
<g id="node14" class="node"><title>QED</title>
</g>
<!-- n8616&#45;&gt;QED -->
<g id="edge16" class="edge"><title>n8616&#45;&gt;QED</title>
<path fill="none" stroke="black" d="M818.445,-149C872.43,-149 980.776,-149 1038.78,-149"/>
<polygon fill="black" stroke="black" points="1039.01,-152.5 1049.01,-149 1039.01,-145.5 1039.01,-152.5"/>
<text text-anchor="middle" x="933.794" y="-152.8" font-family="Times New Roman,serif" font-size="14.00">|&#45; ( ( ph / ps ) &#45;&gt; &#45;. ( &#45;. ph / &#45;. ps ) )</text>
</g>
<!-- n8607 -->
<g id="node5" class="node"><title>n8607</title>
<ellipse fill="none" stroke="lightgray" cx="27" cy="-194" rx="27" ry="18"/>
<text text-anchor="middle" x="27" y="-190.3" font-family="Times New Roman,serif" font-size="14.00" fill="lightgray">wph</text>
</g>
<!-- n8608 -->
<g id="node6" class="node"><title>n8608</title>
<ellipse fill="none" stroke="lightgray" cx="154" cy="-194" rx="27" ry="18"/>
<text text-anchor="middle" x="154" y="-190.3" font-family="Times New Roman,serif" font-size="14.00" fill="lightgray">wn</text>
</g>
<!-- n8607&#45;&gt;n8608 -->
<g id="edge5" class="edge"><title>n8607&#45;&gt;n8608</title>
<path fill="none" stroke="lightgray" d="M54.2041,-194C72.3711,-194 96.7994,-194 116.82,-194"/>
<polygon fill="lightgray" stroke="lightgray" points="116.83,-197.5 126.83,-194 116.83,-190.5 116.83,-197.5"/>
<text text-anchor="middle" x="90.5" y="-197.8" font-family="Times New Roman,serif" font-size="14.00" fill="lightgray">wff ph</text>
</g>
<!-- n8611 -->
<g id="node7" class="node"><title>n8611</title>
<ellipse fill="none" stroke="lightgray" cx="293" cy="-149" rx="27" ry="18"/>
<text text-anchor="middle" x="293" y="-145.3" font-family="Times New Roman,serif" font-size="14.00" fill="lightgray">wo</text>
</g>
<!-- n8608&#45;&gt;n8611 -->
<g id="edge6" class="edge"><title>n8608&#45;&gt;n8611</title>
<path fill="none" stroke="lightgray" d="M178.551,-186.264C200.606,-179.02 233.791,-168.12 258.581,-159.977"/>
<polygon fill="lightgray" stroke="lightgray" points="259.889,-163.231 268.298,-156.785 257.705,-156.581 259.889,-163.231"/>
<text text-anchor="middle" x="223.5" y="-183.8" font-family="Times New Roman,serif" font-size="14.00" fill="lightgray">wff &#45;. ph</text>
</g>
<!-- n8610 -->
<g id="node9" class="node"><title>n8610</title>
<ellipse fill="none" stroke="lightgray" cx="154" cy="-122" rx="27" ry="18"/>
<text text-anchor="middle" x="154" y="-118.3" font-family="Times New Roman,serif" font-size="14.00" fill="lightgray">wn</text>
</g>
<!-- n8608&#45;&gt;n8610 -->
<g id="edge10" class="edge"><title>n8608&#45;&gt;n8610</title>
</g>
<!-- n8611&#45;&gt;n8612 -->
<g id="edge9" class="edge"><title>n8611&#45;&gt;n8612</title>
<path fill="none" stroke="lightgray" d="M320.157,-149C353.497,-149 411.299,-149 448.839,-149"/>
<polygon fill="lightgray" stroke="lightgray" points="448.853,-152.5 458.853,-149 448.853,-145.5 448.853,-152.5"/>
<text text-anchor="middle" x="389.5" y="-152.8" font-family="Times New Roman,serif" font-size="14.00" fill="lightgray">wff ( &#45;. ph / &#45;. ps )</text>
</g>
<!-- n8609 -->
<g id="node8" class="node"><title>n8609</title>
<ellipse fill="none" stroke="lightgray" cx="27" cy="-122" rx="27" ry="18"/>
<text text-anchor="middle" x="27" y="-118.3" font-family="Times New Roman,serif" font-size="14.00" fill="lightgray">wps</text>
</g>
<!-- n8609&#45;&gt;n8610 -->
<g id="edge7" class="edge"><title>n8609&#45;&gt;n8610</title>
<path fill="none" stroke="lightgray" d="M54.2041,-122C72.3711,-122 96.7994,-122 116.82,-122"/>
<polygon fill="lightgray" stroke="lightgray" points="116.83,-125.5 126.83,-122 116.83,-118.5 116.83,-125.5"/>
<text text-anchor="middle" x="90.5" y="-125.8" font-family="Times New Roman,serif" font-size="14.00" fill="lightgray">wff ps</text>
</g>
<!-- n8610&#45;&gt;n8611 -->
<g id="edge8" class="edge"><title>n8610&#45;&gt;n8611</title>
<path fill="none" stroke="lightgray" d="M180.128,-126.952C201.526,-131.169 232.517,-137.277 256.457,-141.995"/>
<polygon fill="lightgray" stroke="lightgray" points="256.079,-145.488 266.567,-143.988 257.433,-138.62 256.079,-145.488"/>
<text text-anchor="middle" x="223.5" y="-144.8" font-family="Times New Roman,serif" font-size="14.00" fill="lightgray">wff &#45;. ps</text>
</g>
<!-- n8612&#45;&gt;n8616 -->
<g id="edge11" class="edge"><title>n8612&#45;&gt;n8616</title>
<path fill="none" stroke="lightgray" d="M513.109,-149C564.517,-149 679.27,-149 741.706,-149"/>
<polygon fill="lightgray" stroke="lightgray" points="741.994,-152.5 751.994,-149 741.994,-145.5 741.994,-152.5"/>
<text text-anchor="middle" x="632.5" y="-152.8" font-family="Times New Roman,serif" font-size="14.00" fill="lightgray">wff &#45;. ( &#45;. ph / &#45;. ps )</text>
</g>
<!-- n8615 -->
<g id="node12" class="node"><title>n8615</title>
<ellipse fill="cyan" stroke="black" cx="486" cy="-77" rx="27" ry="18"/>
<text text-anchor="middle" x="486" y="-73.3" font-family="Times New Roman,serif" font-size="14.00">anor</text>
</g>
<!-- n8612&#45;&gt;n8615 -->
<g id="edge18" class="edge"><title>n8612&#45;&gt;n8615</title>
</g>
<!-- n8613 -->
<g id="node11" class="node"><title>n8613</title>
<ellipse fill="none" stroke="lightgray" cx="293" cy="-90" rx="27" ry="18"/>
<text text-anchor="middle" x="293" y="-86.3" font-family="Times New Roman,serif" font-size="14.00" fill="lightgray">wph</text>
</g>
<!-- n8613&#45;&gt;n8615 -->
<g id="edge12" class="edge"><title>n8613&#45;&gt;n8615</title>
<path fill="none" stroke="lightgray" d="M320.157,-88.2197C353.497,-85.9505 411.299,-82.0163 448.839,-79.4612"/>
<polygon fill="lightgray" stroke="lightgray" points="449.114,-82.9507 458.853,-78.7796 448.638,-75.9669 449.114,-82.9507"/>
<text text-anchor="middle" x="389.5" y="-90.8" font-family="Times New Roman,serif" font-size="14.00" fill="lightgray">wff ph</text>
</g>
<!-- n8614 -->
<g id="node13" class="node"><title>n8614</title>
<ellipse fill="none" stroke="lightgray" cx="293" cy="-18" rx="27" ry="18"/>
<text text-anchor="middle" x="293" y="-14.3" font-family="Times New Roman,serif" font-size="14.00" fill="lightgray">wps</text>
</g>
<!-- n8613&#45;&gt;n8614 -->
<g id="edge15" class="edge"><title>n8613&#45;&gt;n8614</title>
</g>
<!-- n8615&#45;&gt;n8616 -->
<g id="edge14" class="edge"><title>n8615&#45;&gt;n8616</title>
<path fill="none" stroke="black" d="M512.562,-81.1727C557.754,-88.8391 654.493,-106.554 734,-130 738.897,-131.444 743.998,-133.142 748.99,-134.918"/>
<polygon fill="black" stroke="black" points="747.781,-138.202 758.374,-138.383 750.206,-131.636 747.781,-138.202"/>
<text text-anchor="middle" x="632.5" y="-133.8" font-family="Times New Roman,serif" font-size="14.00">|&#45; ( ( ph / ps ) &lt;&#45;&gt; &#45;. ( &#45;. ph / &#45;. ps ) )</text>
</g>
<!-- n8614&#45;&gt;n8615 -->
<g id="edge13" class="edge"><title>n8614&#45;&gt;n8615</title>
<path fill="none" stroke="lightgray" d="M318.019,-24.8876C347.196,-33.3237 397.867,-48.198 441,-62 444.594,-63.1499 448.342,-64.38 452.069,-65.6228"/>
<polygon fill="lightgray" stroke="lightgray" points="451.168,-69.0128 461.763,-68.8953 453.407,-62.3805 451.168,-69.0128"/>
<text text-anchor="middle" x="389.5" y="-65.8" font-family="Times New Roman,serif" font-size="14.00" fill="lightgray">wff ps</text>
</g>
</g>
</svg>
