<?xml version="1.0" encoding="UTF-8" standalone="no"?>
<!DOCTYPE svg PUBLIC "-//W3C//DTD SVG 1.1//EN"
 "http://www.w3.org/Graphics/SVG/1.1/DTD/svg11.dtd">
<!-- Generated by graphviz version 2.38.0 (20140413.2041)
 -->
<!-- Title: proof_pm3_3 Pages: 1 -->
<svg width="1299pt" height="470pt"
 viewBox="0.00 0.00 1299.49 470.00" xmlns="http://www.w3.org/2000/svg" xmlns:xlink="http://www.w3.org/1999/xlink">
<g id="graph0" class="graph" transform="scale(1 1) rotate(0) translate(4 466)">
<title>proof_pm3_3</title>
<polygon fill="white" stroke="none" points="-4,4 -4,-466 1295.49,-466 1295.49,4 -4,4"/>
<!-- n7936 -->
<g id="node1" class="node"><title>n7936</title>
<ellipse fill="none" stroke="lightgray" cx="154" cy="-444" rx="27" ry="18"/>
<text text-anchor="middle" x="154" y="-440.3" font-family="Times New Roman,serif" font-size="14.00" fill="lightgray">wph</text>
</g>
<!-- n7938 -->
<g id="node2" class="node"><title>n7938</title>
<ellipse fill="none" stroke="lightgray" cx="323" cy="-404" rx="27" ry="18"/>
<text text-anchor="middle" x="323" y="-400.3" font-family="Times New Roman,serif" font-size="14.00" fill="lightgray">wa</text>
</g>
<!-- n7936&#45;&gt;n7938 -->
<g id="edge1" class="edge"><title>n7936&#45;&gt;n7938</title>
<path fill="none" stroke="lightgray" d="M179.641,-438.098C208.132,-431.274 255.224,-419.994 287.383,-412.291"/>
<polygon fill="lightgray" stroke="lightgray" points="288.348,-415.659 297.257,-409.926 286.717,-408.852 288.348,-415.659"/>
<text text-anchor="middle" x="238.5" y="-437.8" font-family="Times New Roman,serif" font-size="14.00" fill="lightgray">wff ph</text>
</g>
<!-- n7937 -->
<g id="node3" class="node"><title>n7937</title>
<ellipse fill="none" stroke="lightgray" cx="154" cy="-372" rx="27" ry="18"/>
<text text-anchor="middle" x="154" y="-368.3" font-family="Times New Roman,serif" font-size="14.00" fill="lightgray">wps</text>
</g>
<!-- n7936&#45;&gt;n7937 -->
<g id="edge4" class="edge"><title>n7936&#45;&gt;n7937</title>
</g>
<!-- n7940 -->
<g id="node4" class="node"><title>n7940</title>
<ellipse fill="none" stroke="lightgray" cx="542" cy="-368" rx="27" ry="18"/>
<text text-anchor="middle" x="542" y="-364.3" font-family="Times New Roman,serif" font-size="14.00" fill="lightgray">wi</text>
</g>
<!-- n7938&#45;&gt;n7940 -->
<g id="edge3" class="edge"><title>n7938&#45;&gt;n7940</title>
<path fill="none" stroke="lightgray" d="M349.317,-399.8C387.924,-393.395 461.647,-381.165 505.556,-373.88"/>
<polygon fill="lightgray" stroke="lightgray" points="506.216,-377.319 515.508,-372.229 505.07,-370.413 506.216,-377.319"/>
<text text-anchor="middle" x="432.5" y="-400.8" font-family="Times New Roman,serif" font-size="14.00" fill="lightgray">wff ( ph / ps )</text>
</g>
<!-- n7939 -->
<g id="node5" class="node"><title>n7939</title>
<ellipse fill="none" stroke="lightgray" cx="323" cy="-332" rx="27" ry="18"/>
<text text-anchor="middle" x="323" y="-328.3" font-family="Times New Roman,serif" font-size="14.00" fill="lightgray">wch</text>
</g>
<!-- n7938&#45;&gt;n7939 -->
<g id="edge7" class="edge"><title>n7938&#45;&gt;n7939</title>
</g>
<!-- n7937&#45;&gt;n7938 -->
<g id="edge2" class="edge"><title>n7937&#45;&gt;n7938</title>
<path fill="none" stroke="lightgray" d="M181.144,-374.577C206.202,-377.34 244.984,-382.385 278,-390 281.652,-390.842 285.437,-391.844 289.185,-392.918"/>
<polygon fill="lightgray" stroke="lightgray" points="288.318,-396.313 298.904,-395.874 290.355,-389.616 288.318,-396.313"/>
<text text-anchor="middle" x="238.5" y="-393.8" font-family="Times New Roman,serif" font-size="14.00" fill="lightgray">wff ps</text>
</g>
<!-- n7950 -->
<g id="node6" class="node"><title>n7950</title>
<ellipse fill="cyan" stroke="black" cx="896.497" cy="-224" rx="32.4942" ry="18"/>
<text text-anchor="middle" x="896.497" y="-220.3" font-family="Times New Roman,serif" font-size="14.00">exp3a</text>
</g>
<!-- n7940&#45;&gt;n7950 -->
<g id="edge6" class="edge"><title>n7940&#45;&gt;n7950</title>
<path fill="none" stroke="lightgray" d="M568.885,-369.87C624.925,-372.576 759.401,-371.672 846,-310 865.955,-295.789 879.014,-270.827 886.681,-251.445"/>
<polygon fill="lightgray" stroke="lightgray" points="890.023,-252.498 890.206,-241.905 883.457,-250.071 890.023,-252.498"/>
<text text-anchor="middle" x="716.5" y="-374.8" font-family="Times New Roman,serif" font-size="14.00" fill="lightgray">wff ( ( ph / ps ) &#45;&gt; ch )</text>
</g>
<!-- n7941 -->
<g id="node7" class="node"><title>n7941</title>
<ellipse fill="none" stroke="lightgray" cx="542" cy="-296" rx="27" ry="18"/>
<text text-anchor="middle" x="542" y="-292.3" font-family="Times New Roman,serif" font-size="14.00" fill="lightgray">wph</text>
</g>
<!-- n7940&#45;&gt;n7941 -->
<g id="edge20" class="edge"><title>n7940&#45;&gt;n7941</title>
</g>
<!-- n7939&#45;&gt;n7940 -->
<g id="edge5" class="edge"><title>n7939&#45;&gt;n7940</title>
<path fill="none" stroke="lightgray" d="M349.931,-334.915C383.887,-338.921 445.19,-346.808 497,-357 500.069,-357.604 503.244,-358.285 506.42,-359.005"/>
<polygon fill="lightgray" stroke="lightgray" points="505.892,-362.477 516.431,-361.39 507.515,-355.668 505.892,-362.477"/>
<text text-anchor="middle" x="432.5" y="-360.8" font-family="Times New Roman,serif" font-size="14.00" fill="lightgray">wff ch</text>
</g>
<!-- QED -->
<g id="node16" class="node"><title>QED</title>
</g>
<!-- n7950&#45;&gt;QED -->
<g id="edge19" class="edge"><title>n7950&#45;&gt;QED</title>
<path fill="none" stroke="black" d="M929.141,-224C995.862,-224 1150.75,-224 1222.93,-224"/>
<polygon fill="black" stroke="black" points="1222.96,-227.5 1232.96,-224 1222.96,-220.5 1222.96,-227.5"/>
<text text-anchor="middle" x="1080.99" y="-227.8" font-family="Times New Roman,serif" font-size="14.00">|&#45; ( ( ( ph / ps ) &#45;&gt; ch ) &#45;&gt; ( ph &#45;&gt; ( ps &#45;&gt; ch ) ) )</text>
</g>
<!-- n7941&#45;&gt;n7950 -->
<g id="edge8" class="edge"><title>n7941&#45;&gt;n7950</title>
<path fill="none" stroke="lightgray" d="M568.91,-293.182C621.731,-287.064 745.375,-270.831 846,-243 850.793,-241.674 855.768,-240.062 860.635,-238.343"/>
<polygon fill="lightgray" stroke="lightgray" points="862.223,-241.486 870.378,-234.722 859.785,-234.924 862.223,-241.486"/>
<text text-anchor="middle" x="716.5" y="-294.8" font-family="Times New Roman,serif" font-size="14.00" fill="lightgray">wff ph</text>
</g>
<!-- n7942 -->
<g id="node8" class="node"><title>n7942</title>
<ellipse fill="none" stroke="lightgray" cx="542" cy="-224" rx="27" ry="18"/>
<text text-anchor="middle" x="542" y="-220.3" font-family="Times New Roman,serif" font-size="14.00" fill="lightgray">wps</text>
</g>
<!-- n7941&#45;&gt;n7942 -->
<g id="edge21" class="edge"><title>n7941&#45;&gt;n7942</title>
</g>
<!-- n7942&#45;&gt;n7950 -->
<g id="edge9" class="edge"><title>n7942&#45;&gt;n7950</title>
<path fill="none" stroke="lightgray" d="M569.207,-224C629.809,-224 780.062,-224 853.602,-224"/>
<polygon fill="lightgray" stroke="lightgray" points="853.876,-227.5 863.876,-224 853.876,-220.5 853.876,-227.5"/>
<text text-anchor="middle" x="716.5" y="-227.8" font-family="Times New Roman,serif" font-size="14.00" fill="lightgray">wff ps</text>
</g>
<!-- n7943 -->
<g id="node9" class="node"><title>n7943</title>
<ellipse fill="none" stroke="lightgray" cx="542" cy="-152" rx="27" ry="18"/>
<text text-anchor="middle" x="542" y="-148.3" font-family="Times New Roman,serif" font-size="14.00" fill="lightgray">wch</text>
</g>
<!-- n7942&#45;&gt;n7943 -->
<g id="edge22" class="edge"><title>n7942&#45;&gt;n7943</title>
</g>
<!-- n7943&#45;&gt;n7950 -->
<g id="edge10" class="edge"><title>n7943&#45;&gt;n7950</title>
<path fill="none" stroke="lightgray" d="M568.91,-154.818C621.731,-160.936 745.375,-177.169 846,-205 850.793,-206.326 855.768,-207.938 860.635,-209.657"/>
<polygon fill="lightgray" stroke="lightgray" points="859.785,-213.076 870.378,-213.278 862.223,-206.514 859.785,-213.076"/>
<text text-anchor="middle" x="716.5" y="-208.8" font-family="Times New Roman,serif" font-size="14.00" fill="lightgray">wff ch</text>
</g>
<!-- n7949 -->
<g id="node15" class="node"><title>n7949</title>
<ellipse fill="cyan" stroke="black" cx="542" cy="-80" rx="27" ry="18"/>
<text text-anchor="middle" x="542" y="-76.3" font-family="Times New Roman,serif" font-size="14.00">id</text>
</g>
<!-- n7943&#45;&gt;n7949 -->
<g id="edge23" class="edge"><title>n7943&#45;&gt;n7949</title>
</g>
<!-- n7944 -->
<g id="node10" class="node"><title>n7944</title>
<ellipse fill="none" stroke="lightgray" cx="154" cy="-117" rx="27" ry="18"/>
<text text-anchor="middle" x="154" y="-113.3" font-family="Times New Roman,serif" font-size="14.00" fill="lightgray">wch</text>
</g>
<!-- n7948 -->
<g id="node11" class="node"><title>n7948</title>
<ellipse fill="none" stroke="lightgray" cx="323" cy="-80" rx="27" ry="18"/>
<text text-anchor="middle" x="323" y="-76.3" font-family="Times New Roman,serif" font-size="14.00" fill="lightgray">wi</text>
</g>
<!-- n7944&#45;&gt;n7948 -->
<g id="edge11" class="edge"><title>n7944&#45;&gt;n7948</title>
<path fill="none" stroke="lightgray" d="M180.002,-111.461C208.492,-105.148 255.242,-94.7906 287.263,-87.6961"/>
<polygon fill="lightgray" stroke="lightgray" points="288.094,-91.097 297.101,-85.5166 286.58,-84.2627 288.094,-91.097"/>
<text text-anchor="middle" x="238.5" y="-111.8" font-family="Times New Roman,serif" font-size="14.00" fill="lightgray">wff ch</text>
</g>
<!-- n7947 -->
<g id="node13" class="node"><title>n7947</title>
<ellipse fill="none" stroke="lightgray" cx="154" cy="-45" rx="27" ry="18"/>
<text text-anchor="middle" x="154" y="-41.3" font-family="Times New Roman,serif" font-size="14.00" fill="lightgray">wa</text>
</g>
<!-- n7944&#45;&gt;n7947 -->
<g id="edge17" class="edge"><title>n7944&#45;&gt;n7947</title>
</g>
<!-- n7948&#45;&gt;n7949 -->
<g id="edge16" class="edge"><title>n7948&#45;&gt;n7949</title>
<path fill="none" stroke="lightgray" d="M350.175,-80C388.707,-80 460.841,-80 504.538,-80"/>
<polygon fill="lightgray" stroke="lightgray" points="504.732,-83.5001 514.732,-80 504.732,-76.5001 504.732,-83.5001"/>
<text text-anchor="middle" x="432.5" y="-83.8" font-family="Times New Roman,serif" font-size="14.00" fill="lightgray">wff ( ( ph / ps ) &#45;&gt; ch )</text>
</g>
<!-- n7945 -->
<g id="node12" class="node"><title>n7945</title>
<ellipse fill="none" stroke="lightgray" cx="27" cy="-90" rx="27" ry="18"/>
<text text-anchor="middle" x="27" y="-86.3" font-family="Times New Roman,serif" font-size="14.00" fill="lightgray">wps</text>
</g>
<!-- n7945&#45;&gt;n7947 -->
<g id="edge12" class="edge"><title>n7945&#45;&gt;n7947</title>
<path fill="none" stroke="lightgray" d="M51.2186,-81.6413C70.6886,-74.6321 98.7117,-64.5438 120.426,-56.7266"/>
<polygon fill="lightgray" stroke="lightgray" points="121.682,-59.9943 129.906,-53.3139 119.311,-53.4081 121.682,-59.9943"/>
<text text-anchor="middle" x="90.5" y="-78.8" font-family="Times New Roman,serif" font-size="14.00" fill="lightgray">wff ps</text>
</g>
<!-- n7946 -->
<g id="node14" class="node"><title>n7946</title>
<ellipse fill="none" stroke="lightgray" cx="27" cy="-18" rx="27" ry="18"/>
<text text-anchor="middle" x="27" y="-14.3" font-family="Times New Roman,serif" font-size="14.00" fill="lightgray">wph</text>
</g>
<!-- n7945&#45;&gt;n7946 -->
<g id="edge15" class="edge"><title>n7945&#45;&gt;n7946</title>
</g>
<!-- n7947&#45;&gt;n7948 -->
<g id="edge14" class="edge"><title>n7947&#45;&gt;n7948</title>
<path fill="none" stroke="lightgray" d="M180.002,-50.2399C208.492,-56.2109 255.242,-66.0089 287.263,-72.7199"/>
<polygon fill="lightgray" stroke="lightgray" points="286.595,-76.1558 297.101,-74.7816 288.031,-69.3047 286.595,-76.1558"/>
<text text-anchor="middle" x="238.5" y="-74.8" font-family="Times New Roman,serif" font-size="14.00" fill="lightgray">wff ( ph / ps )</text>
</g>
<!-- n7946&#45;&gt;n7947 -->
<g id="edge13" class="edge"><title>n7946&#45;&gt;n7947</title>
<path fill="none" stroke="lightgray" d="M52.9952,-23.399C71.6456,-27.4275 97.3666,-32.9832 118.053,-37.4514"/>
<polygon fill="lightgray" stroke="lightgray" points="117.535,-40.9201 128.048,-39.6104 119.013,-34.0779 117.535,-40.9201"/>
<text text-anchor="middle" x="90.5" y="-39.8" font-family="Times New Roman,serif" font-size="14.00" fill="lightgray">wff ph</text>
</g>
<!-- n7949&#45;&gt;n7950 -->
<g id="edge18" class="edge"><title>n7949&#45;&gt;n7950</title>
<path fill="none" stroke="black" d="M569.293,-78.2469C625.552,-75.8508 759.508,-77.5268 846,-139 865.795,-153.069 878.871,-177.737 886.586,-196.887"/>
<polygon fill="black" stroke="black" points="883.336,-198.19 890.138,-206.313 889.886,-195.721 883.336,-198.19"/>
<text text-anchor="middle" x="716.5" y="-142.8" font-family="Times New Roman,serif" font-size="14.00">|&#45; ( ( ( ph / ps ) &#45;&gt; ch ) &#45;&gt; ( ( ph / ps ) &#45;&gt; ch ) )</text>
</g>
</g>
</svg>
