<?xml version="1.0" encoding="UTF-8" standalone="no"?>
<!DOCTYPE svg PUBLIC "-//W3C//DTD SVG 1.1//EN"
 "http://www.w3.org/Graphics/SVG/1.1/DTD/svg11.dtd">
<!-- Generated by graphviz version 2.38.0 (20140413.2041)
 -->
<!-- Title: proof_pm3_41 Pages: 1 -->
<svg width="738pt" height="335pt"
 viewBox="0.00 0.00 738.48 335.00" xmlns="http://www.w3.org/2000/svg" xmlns:xlink="http://www.w3.org/1999/xlink">
<g id="graph0" class="graph" transform="scale(1 1) rotate(0) translate(4 331)">
<title>proof_pm3_41</title>
<polygon fill="white" stroke="none" points="-4,4 -4,-331 734.483,-331 734.483,4 -4,4"/>
<!-- n9510 -->
<g id="node1" class="node"><title>n9510</title>
<ellipse fill="none" stroke="lightgray" cx="27" cy="-309" rx="27" ry="18"/>
<text text-anchor="middle" x="27" y="-305.3" font-family="Times New Roman,serif" font-size="14.00" fill="lightgray">wph</text>
</g>
<!-- n9512 -->
<g id="node2" class="node"><title>n9512</title>
<ellipse fill="none" stroke="lightgray" cx="157.547" cy="-269" rx="27" ry="18"/>
<text text-anchor="middle" x="157.547" y="-265.3" font-family="Times New Roman,serif" font-size="14.00" fill="lightgray">wa</text>
</g>
<!-- n9510&#45;&gt;n9512 -->
<g id="edge1" class="edge"><title>n9510&#45;&gt;n9512</title>
<path fill="none" stroke="lightgray" d="M51.8775,-301.57C71.9001,-295.34 100.718,-286.372 123.049,-279.424"/>
<polygon fill="lightgray" stroke="lightgray" points="124.289,-282.703 132.798,-276.39 122.209,-276.019 124.289,-282.703"/>
<text text-anchor="middle" x="90.5" y="-297.8" font-family="Times New Roman,serif" font-size="14.00" fill="lightgray">wff ph</text>
</g>
<!-- n9511 -->
<g id="node3" class="node"><title>n9511</title>
<ellipse fill="none" stroke="lightgray" cx="27" cy="-237" rx="27" ry="18"/>
<text text-anchor="middle" x="27" y="-233.3" font-family="Times New Roman,serif" font-size="14.00" fill="lightgray">wps</text>
</g>
<!-- n9510&#45;&gt;n9511 -->
<g id="edge4" class="edge"><title>n9510&#45;&gt;n9511</title>
</g>
<!-- n9518 -->
<g id="node4" class="node"><title>n9518</title>
<ellipse fill="cyan" stroke="black" cx="379.542" cy="-160" rx="34.394" ry="18"/>
<text text-anchor="middle" x="379.542" y="-156.3" font-family="Times New Roman,serif" font-size="14.00">imim1i</text>
</g>
<!-- n9512&#45;&gt;n9518 -->
<g id="edge3" class="edge"><title>n9512&#45;&gt;n9518</title>
<path fill="none" stroke="lightgray" d="M183.37,-263.37C217.522,-254.9 280.108,-236.743 327.095,-208 337.894,-201.393 348.382,-192.269 357.04,-183.748"/>
<polygon fill="lightgray" stroke="lightgray" points="359.646,-186.089 364.139,-176.494 354.643,-181.193 359.646,-186.089"/>
<text text-anchor="middle" x="266.595" y="-260.8" font-family="Times New Roman,serif" font-size="14.00" fill="lightgray">wff ( ph /\ ps )</text>
</g>
<!-- n9513 -->
<g id="node5" class="node"><title>n9513</title>
<ellipse fill="none" stroke="lightgray" cx="157.547" cy="-197" rx="27" ry="18"/>
<text text-anchor="middle" x="157.547" y="-193.3" font-family="Times New Roman,serif" font-size="14.00" fill="lightgray">wph</text>
</g>
<!-- n9512&#45;&gt;n9513 -->
<g id="edge12" class="edge"><title>n9512&#45;&gt;n9513</title>
</g>
<!-- n9511&#45;&gt;n9512 -->
<g id="edge2" class="edge"><title>n9511&#45;&gt;n9512</title>
<path fill="none" stroke="lightgray" d="M52.9194,-242.082C68.9919,-245.472 90.3087,-250.177 109,-255 113.432,-256.143 118.074,-257.416 122.649,-258.715"/>
<polygon fill="lightgray" stroke="lightgray" points="121.867,-262.132 132.447,-261.56 123.819,-255.41 121.867,-262.132"/>
<text text-anchor="middle" x="90.5" y="-258.8" font-family="Times New Roman,serif" font-size="14.00" fill="lightgray">wff ps</text>
</g>
<!-- QED -->
<g id="node10" class="node"><title>QED</title>
</g>
<!-- n9518&#45;&gt;QED -->
<g id="edge11" class="edge"><title>n9518&#45;&gt;QED</title>
<path fill="none" stroke="black" d="M414.15,-160C473.859,-160 598.089,-160 661.371,-160"/>
<polygon fill="black" stroke="black" points="661.718,-163.5 671.718,-160 661.718,-156.5 661.718,-163.5"/>
<text text-anchor="middle" x="542.988" y="-163.8" font-family="Times New Roman,serif" font-size="14.00">|&#45; ( ( ph &#45;&gt; ch ) &#45;&gt; ( ( ph /\ ps ) &#45;&gt; ch ) )</text>
</g>
<!-- n9513&#45;&gt;n9518 -->
<g id="edge5" class="edge"><title>n9513&#45;&gt;n9518</title>
<path fill="none" stroke="lightgray" d="M184.214,-192.683C221.648,-186.387 291.649,-174.614 336.624,-167.05"/>
<polygon fill="lightgray" stroke="lightgray" points="337.371,-170.474 346.652,-165.363 336.21,-163.571 337.371,-170.474"/>
<text text-anchor="middle" x="266.595" y="-192.8" font-family="Times New Roman,serif" font-size="14.00" fill="lightgray">wff ph</text>
</g>
<!-- n9514 -->
<g id="node6" class="node"><title>n9514</title>
<ellipse fill="none" stroke="lightgray" cx="157.547" cy="-125" rx="27" ry="18"/>
<text text-anchor="middle" x="157.547" y="-121.3" font-family="Times New Roman,serif" font-size="14.00" fill="lightgray">wch</text>
</g>
<!-- n9513&#45;&gt;n9514 -->
<g id="edge13" class="edge"><title>n9513&#45;&gt;n9514</title>
</g>
<!-- n9514&#45;&gt;n9518 -->
<g id="edge6" class="edge"><title>n9514&#45;&gt;n9518</title>
<path fill="none" stroke="lightgray" d="M183.986,-128.761C217.007,-133.681 276.407,-142.658 327.095,-151 330.271,-151.523 333.555,-152.074 336.857,-152.635"/>
<polygon fill="lightgray" stroke="lightgray" points="336.275,-156.086 346.724,-154.331 337.461,-149.187 336.275,-156.086"/>
<text text-anchor="middle" x="266.595" y="-154.8" font-family="Times New Roman,serif" font-size="14.00" fill="lightgray">wff ch</text>
</g>
<!-- n9517 -->
<g id="node8" class="node"><title>n9517</title>
<ellipse fill="cyan" stroke="black" cx="157.547" cy="-53" rx="30.5947" ry="18"/>
<text text-anchor="middle" x="157.547" y="-49.3" font-family="Times New Roman,serif" font-size="14.00">simpl</text>
</g>
<!-- n9514&#45;&gt;n9517 -->
<g id="edge14" class="edge"><title>n9514&#45;&gt;n9517</title>
</g>
<!-- n9515 -->
<g id="node7" class="node"><title>n9515</title>
<ellipse fill="none" stroke="lightgray" cx="27" cy="-90" rx="27" ry="18"/>
<text text-anchor="middle" x="27" y="-86.3" font-family="Times New Roman,serif" font-size="14.00" fill="lightgray">wph</text>
</g>
<!-- n9515&#45;&gt;n9517 -->
<g id="edge7" class="edge"><title>n9515&#45;&gt;n9517</title>
<path fill="none" stroke="lightgray" d="M52.1788,-83.0406C71.2655,-77.5468 98.2064,-69.7924 119.935,-63.5381"/>
<polygon fill="lightgray" stroke="lightgray" points="121.173,-66.824 129.815,-60.6945 119.237,-60.0972 121.173,-66.824"/>
<text text-anchor="middle" x="90.5" y="-80.8" font-family="Times New Roman,serif" font-size="14.00" fill="lightgray">wff ph</text>
</g>
<!-- n9516 -->
<g id="node9" class="node"><title>n9516</title>
<ellipse fill="none" stroke="lightgray" cx="27" cy="-18" rx="27" ry="18"/>
<text text-anchor="middle" x="27" y="-14.3" font-family="Times New Roman,serif" font-size="14.00" fill="lightgray">wps</text>
</g>
<!-- n9515&#45;&gt;n9516 -->
<g id="edge10" class="edge"><title>n9515&#45;&gt;n9516</title>
</g>
<!-- n9517&#45;&gt;n9518 -->
<g id="edge9" class="edge"><title>n9517&#45;&gt;n9518</title>
<path fill="none" stroke="black" d="M186.236,-59.5279C220.853,-68.4523 281.142,-86.5542 327.095,-114 337.49,-120.209 347.696,-128.685 356.241,-136.67"/>
<polygon fill="black" stroke="black" points="353.965,-139.337 363.58,-143.786 358.838,-134.312 353.965,-139.337"/>
<text text-anchor="middle" x="266.595" y="-117.8" font-family="Times New Roman,serif" font-size="14.00">|&#45; ( ( ph /\ ps ) &#45;&gt; ph )</text>
</g>
<!-- n9516&#45;&gt;n9517 -->
<g id="edge8" class="edge"><title>n9516&#45;&gt;n9517</title>
<path fill="none" stroke="lightgray" d="M52.1788,-24.5832C71.1399,-29.7458 97.8522,-37.0189 119.506,-42.9145"/>
<polygon fill="lightgray" stroke="lightgray" points="118.794,-46.348 129.362,-45.5981 120.633,-39.5939 118.794,-46.348"/>
<text text-anchor="middle" x="90.5" y="-43.8" font-family="Times New Roman,serif" font-size="14.00" fill="lightgray">wff ps</text>
</g>
</g>
</svg>
