<?xml version="1.0" encoding="UTF-8" standalone="no"?>
<!DOCTYPE svg PUBLIC "-//W3C//DTD SVG 1.1//EN"
 "http://www.w3.org/Graphics/SVG/1.1/DTD/svg11.dtd">
<!-- Generated by graphviz version 2.38.0 (20140413.2041)
 -->
<!-- Title: proof_pm3_11 Pages: 1 -->
<svg width="1140pt" height="305pt"
 viewBox="0.00 0.00 1140.29 305.00" xmlns="http://www.w3.org/2000/svg" xmlns:xlink="http://www.w3.org/1999/xlink">
<g id="graph0" class="graph" transform="scale(1 1) rotate(0) translate(4 301)">
<title>proof_pm3_11</title>
<polygon fill="white" stroke="none" points="-4,4 -4,-301 1136.29,-301 1136.29,4 -4,4"/>
<!-- n8617 -->
<g id="node1" class="node"><title>n8617</title>
<ellipse fill="none" stroke="lightgray" cx="293" cy="-279" rx="27" ry="18"/>
<text text-anchor="middle" x="293" y="-275.3" font-family="Times New Roman,serif" font-size="14.00" fill="lightgray">wph</text>
</g>
<!-- n8619 -->
<g id="node2" class="node"><title>n8619</title>
<ellipse fill="none" stroke="lightgray" cx="489" cy="-221" rx="27" ry="18"/>
<text text-anchor="middle" x="489" y="-217.3" font-family="Times New Roman,serif" font-size="14.00" fill="lightgray">wa</text>
</g>
<!-- n8617&#45;&gt;n8619 -->
<g id="edge1" class="edge"><title>n8617&#45;&gt;n8619</title>
<path fill="none" stroke="lightgray" d="M318.271,-272.439C348.024,-264.305 399.927,-249.82 444,-236 447.6,-234.871 451.353,-233.654 455.082,-232.419"/>
<polygon fill="lightgray" stroke="lightgray" points="456.418,-235.663 464.779,-229.156 454.185,-229.028 456.418,-235.663"/>
<text text-anchor="middle" x="391" y="-269.8" font-family="Times New Roman,serif" font-size="14.00" fill="lightgray">wff ph</text>
</g>
<!-- n8618 -->
<g id="node3" class="node"><title>n8618</title>
<ellipse fill="none" stroke="lightgray" cx="293" cy="-207" rx="27" ry="18"/>
<text text-anchor="middle" x="293" y="-203.3" font-family="Times New Roman,serif" font-size="14.00" fill="lightgray">wps</text>
</g>
<!-- n8617&#45;&gt;n8618 -->
<g id="edge4" class="edge"><title>n8617&#45;&gt;n8618</title>
</g>
<!-- n8629 -->
<g id="node4" class="node"><title>n8629</title>
<ellipse fill="cyan" stroke="black" cx="799.397" cy="-149" rx="36.2938" ry="18"/>
<text text-anchor="middle" x="799.397" y="-145.3" font-family="Times New Roman,serif" font-size="14.00">biimpri</text>
</g>
<!-- n8619&#45;&gt;n8629 -->
<g id="edge3" class="edge"><title>n8619&#45;&gt;n8629</title>
<path fill="none" stroke="lightgray" d="M515.613,-216.873C561.882,-209.155 662.279,-191.196 745,-168 750.023,-166.592 755.255,-164.952 760.395,-163.236"/>
<polygon fill="lightgray" stroke="lightgray" points="761.778,-166.462 770.086,-159.886 759.491,-159.846 761.778,-166.462"/>
<text text-anchor="middle" x="639.5" y="-217.8" font-family="Times New Roman,serif" font-size="14.00" fill="lightgray">wff ( ph /\ ps )</text>
</g>
<!-- n8625 -->
<g id="node10" class="node"><title>n8625</title>
<ellipse fill="none" stroke="lightgray" cx="489" cy="-149" rx="27" ry="18"/>
<text text-anchor="middle" x="489" y="-145.3" font-family="Times New Roman,serif" font-size="14.00" fill="lightgray">wn</text>
</g>
<!-- n8619&#45;&gt;n8625 -->
<g id="edge17" class="edge"><title>n8619&#45;&gt;n8625</title>
</g>
<!-- n8618&#45;&gt;n8619 -->
<g id="edge2" class="edge"><title>n8618&#45;&gt;n8619</title>
<path fill="none" stroke="lightgray" d="M320.164,-208.888C354.103,-211.337 413.48,-215.622 451.747,-218.384"/>
<polygon fill="lightgray" stroke="lightgray" points="451.716,-221.891 461.942,-219.12 452.22,-214.909 451.716,-221.891"/>
<text text-anchor="middle" x="391" y="-221.8" font-family="Times New Roman,serif" font-size="14.00" fill="lightgray">wff ps</text>
</g>
<!-- QED -->
<g id="node14" class="node"><title>QED</title>
</g>
<!-- n8629&#45;&gt;QED -->
<g id="edge16" class="edge"><title>n8629&#45;&gt;QED</title>
<path fill="none" stroke="black" d="M835.886,-149C892.889,-149 1004.41,-149 1063.37,-149"/>
<polygon fill="black" stroke="black" points="1063.4,-152.5 1073.4,-149 1063.4,-145.5 1063.4,-152.5"/>
<text text-anchor="middle" x="954.794" y="-152.8" font-family="Times New Roman,serif" font-size="14.00">|&#45; ( &#45;. ( &#45;. ph \/ &#45;. ps ) &#45;&gt; ( ph /\ ps ) )</text>
</g>
<!-- n8620 -->
<g id="node5" class="node"><title>n8620</title>
<ellipse fill="none" stroke="lightgray" cx="27" cy="-194" rx="27" ry="18"/>
<text text-anchor="middle" x="27" y="-190.3" font-family="Times New Roman,serif" font-size="14.00" fill="lightgray">wph</text>
</g>
<!-- n8621 -->
<g id="node6" class="node"><title>n8621</title>
<ellipse fill="none" stroke="lightgray" cx="154" cy="-194" rx="27" ry="18"/>
<text text-anchor="middle" x="154" y="-190.3" font-family="Times New Roman,serif" font-size="14.00" fill="lightgray">wn</text>
</g>
<!-- n8620&#45;&gt;n8621 -->
<g id="edge5" class="edge"><title>n8620&#45;&gt;n8621</title>
<path fill="none" stroke="lightgray" d="M54.2041,-194C72.3711,-194 96.7994,-194 116.82,-194"/>
<polygon fill="lightgray" stroke="lightgray" points="116.83,-197.5 126.83,-194 116.83,-190.5 116.83,-197.5"/>
<text text-anchor="middle" x="90.5" y="-197.8" font-family="Times New Roman,serif" font-size="14.00" fill="lightgray">wff ph</text>
</g>
<!-- n8624 -->
<g id="node7" class="node"><title>n8624</title>
<ellipse fill="none" stroke="lightgray" cx="293" cy="-149" rx="27" ry="18"/>
<text text-anchor="middle" x="293" y="-145.3" font-family="Times New Roman,serif" font-size="14.00" fill="lightgray">wo</text>
</g>
<!-- n8621&#45;&gt;n8624 -->
<g id="edge6" class="edge"><title>n8621&#45;&gt;n8624</title>
<path fill="none" stroke="lightgray" d="M178.551,-186.264C200.606,-179.02 233.791,-168.12 258.581,-159.977"/>
<polygon fill="lightgray" stroke="lightgray" points="259.889,-163.231 268.298,-156.785 257.705,-156.581 259.889,-163.231"/>
<text text-anchor="middle" x="223.5" y="-183.8" font-family="Times New Roman,serif" font-size="14.00" fill="lightgray">wff &#45;. ph</text>
</g>
<!-- n8623 -->
<g id="node9" class="node"><title>n8623</title>
<ellipse fill="none" stroke="lightgray" cx="154" cy="-122" rx="27" ry="18"/>
<text text-anchor="middle" x="154" y="-118.3" font-family="Times New Roman,serif" font-size="14.00" fill="lightgray">wn</text>
</g>
<!-- n8621&#45;&gt;n8623 -->
<g id="edge10" class="edge"><title>n8621&#45;&gt;n8623</title>
</g>
<!-- n8624&#45;&gt;n8625 -->
<g id="edge9" class="edge"><title>n8624&#45;&gt;n8625</title>
<path fill="none" stroke="lightgray" d="M320.164,-149C354.103,-149 413.48,-149 451.747,-149"/>
<polygon fill="lightgray" stroke="lightgray" points="451.942,-152.5 461.942,-149 451.942,-145.5 451.942,-152.5"/>
<text text-anchor="middle" x="391" y="-152.8" font-family="Times New Roman,serif" font-size="14.00" fill="lightgray">wff ( &#45;. ph \/ &#45;. ps )</text>
</g>
<!-- n8622 -->
<g id="node8" class="node"><title>n8622</title>
<ellipse fill="none" stroke="lightgray" cx="27" cy="-122" rx="27" ry="18"/>
<text text-anchor="middle" x="27" y="-118.3" font-family="Times New Roman,serif" font-size="14.00" fill="lightgray">wps</text>
</g>
<!-- n8622&#45;&gt;n8623 -->
<g id="edge7" class="edge"><title>n8622&#45;&gt;n8623</title>
<path fill="none" stroke="lightgray" d="M54.2041,-122C72.3711,-122 96.7994,-122 116.82,-122"/>
<polygon fill="lightgray" stroke="lightgray" points="116.83,-125.5 126.83,-122 116.83,-118.5 116.83,-125.5"/>
<text text-anchor="middle" x="90.5" y="-125.8" font-family="Times New Roman,serif" font-size="14.00" fill="lightgray">wff ps</text>
</g>
<!-- n8623&#45;&gt;n8624 -->
<g id="edge8" class="edge"><title>n8623&#45;&gt;n8624</title>
<path fill="none" stroke="lightgray" d="M180.128,-126.952C201.526,-131.169 232.517,-137.277 256.457,-141.995"/>
<polygon fill="lightgray" stroke="lightgray" points="256.079,-145.488 266.567,-143.988 257.433,-138.62 256.079,-145.488"/>
<text text-anchor="middle" x="223.5" y="-144.8" font-family="Times New Roman,serif" font-size="14.00" fill="lightgray">wff &#45;. ps</text>
</g>
<!-- n8625&#45;&gt;n8629 -->
<g id="edge11" class="edge"><title>n8625&#45;&gt;n8629</title>
<path fill="none" stroke="lightgray" d="M516.028,-149C568.408,-149 687.129,-149 752.72,-149"/>
<polygon fill="lightgray" stroke="lightgray" points="752.773,-152.5 762.773,-149 752.773,-145.5 752.773,-152.5"/>
<text text-anchor="middle" x="639.5" y="-152.8" font-family="Times New Roman,serif" font-size="14.00" fill="lightgray">wff &#45;. ( &#45;. ph \/ &#45;. ps )</text>
</g>
<!-- n8628 -->
<g id="node12" class="node"><title>n8628</title>
<ellipse fill="cyan" stroke="black" cx="489" cy="-77" rx="27" ry="18"/>
<text text-anchor="middle" x="489" y="-73.3" font-family="Times New Roman,serif" font-size="14.00">anor</text>
</g>
<!-- n8625&#45;&gt;n8628 -->
<g id="edge18" class="edge"><title>n8625&#45;&gt;n8628</title>
</g>
<!-- n8626 -->
<g id="node11" class="node"><title>n8626</title>
<ellipse fill="none" stroke="lightgray" cx="293" cy="-90" rx="27" ry="18"/>
<text text-anchor="middle" x="293" y="-86.3" font-family="Times New Roman,serif" font-size="14.00" fill="lightgray">wph</text>
</g>
<!-- n8626&#45;&gt;n8628 -->
<g id="edge12" class="edge"><title>n8626&#45;&gt;n8628</title>
<path fill="none" stroke="lightgray" d="M320.164,-88.2468C354.103,-85.9725 413.48,-81.9936 451.747,-79.4293"/>
<polygon fill="lightgray" stroke="lightgray" points="452.198,-82.907 461.942,-78.7462 451.73,-75.9227 452.198,-82.907"/>
<text text-anchor="middle" x="391" y="-90.8" font-family="Times New Roman,serif" font-size="14.00" fill="lightgray">wff ph</text>
</g>
<!-- n8627 -->
<g id="node13" class="node"><title>n8627</title>
<ellipse fill="none" stroke="lightgray" cx="293" cy="-18" rx="27" ry="18"/>
<text text-anchor="middle" x="293" y="-14.3" font-family="Times New Roman,serif" font-size="14.00" fill="lightgray">wps</text>
</g>
<!-- n8626&#45;&gt;n8627 -->
<g id="edge15" class="edge"><title>n8626&#45;&gt;n8627</title>
</g>
<!-- n8628&#45;&gt;n8629 -->
<g id="edge14" class="edge"><title>n8628&#45;&gt;n8629</title>
<path fill="none" stroke="black" d="M515.613,-81.1265C561.882,-88.8449 662.279,-106.804 745,-130 750.023,-131.408 755.255,-133.048 760.395,-134.764"/>
<polygon fill="black" stroke="black" points="759.491,-138.154 770.086,-138.114 761.778,-131.538 759.491,-138.154"/>
<text text-anchor="middle" x="639.5" y="-133.8" font-family="Times New Roman,serif" font-size="14.00">|&#45; ( ( ph /\ ps ) &lt;&#45;&gt; &#45;. ( &#45;. ph \/ &#45;. ps ) )</text>
</g>
<!-- n8627&#45;&gt;n8628 -->
<g id="edge13" class="edge"><title>n8627&#45;&gt;n8628</title>
<path fill="none" stroke="lightgray" d="M318.259,-24.7671C348,-33.1439 399.891,-48.0192 444,-62 447.597,-63.14 451.347,-64.3639 455.075,-65.6029"/>
<polygon fill="lightgray" stroke="lightgray" points="454.176,-68.9933 464.77,-68.8713 456.412,-62.3601 454.176,-68.9933"/>
<text text-anchor="middle" x="391" y="-65.8" font-family="Times New Roman,serif" font-size="14.00" fill="lightgray">wff ps</text>
</g>
</g>
</svg>
