<?xml version="1.0" encoding="UTF-8" standalone="no"?>
<!DOCTYPE svg PUBLIC "-//W3C//DTD SVG 1.1//EN"
 "http://www.w3.org/Graphics/SVG/1.1/DTD/svg11.dtd">
<!-- Generated by graphviz version 2.38.0 (20140413.2041)
 -->
<!-- Title: proof_pm3_34 Pages: 1 -->
<svg width="929pt" height="566pt"
 viewBox="0.00 0.00 929.49 566.00" xmlns="http://www.w3.org/2000/svg" xmlns:xlink="http://www.w3.org/1999/xlink">
<g id="graph0" class="graph" transform="scale(1 1) rotate(0) translate(4 562)">
<title>proof_pm3_34</title>
<polygon fill="white" stroke="none" points="-4,4 -4,-562 925.489,-562 925.489,4 -4,4"/>
<!-- n10126 -->
<g id="node1" class="node"><title>n10126</title>
<ellipse fill="none" stroke="lightgray" cx="27" cy="-540" rx="27" ry="18"/>
<text text-anchor="middle" x="27" y="-536.3" font-family="Times New Roman,serif" font-size="14.00" fill="lightgray">wps</text>
</g>
<!-- n10128 -->
<g id="node2" class="node"><title>n10128</title>
<ellipse fill="none" stroke="lightgray" cx="159.497" cy="-437" rx="27" ry="18"/>
<text text-anchor="middle" x="159.497" y="-433.3" font-family="Times New Roman,serif" font-size="14.00" fill="lightgray">wi</text>
</g>
<!-- n10126&#45;&gt;n10128 -->
<g id="edge1" class="edge"><title>n10126&#45;&gt;n10128</title>
<path fill="none" stroke="lightgray" d="M45.4539,-526.575C61.9079,-513.883 87.2224,-494.266 109,-477 117.096,-470.581 125.882,-463.514 133.774,-457.129"/>
<polygon fill="lightgray" stroke="lightgray" points="136.044,-459.794 141.608,-450.778 131.636,-454.357 136.044,-459.794"/>
<text text-anchor="middle" x="90.5" y="-507.8" font-family="Times New Roman,serif" font-size="14.00" fill="lightgray">wff ps</text>
</g>
<!-- n10127 -->
<g id="node3" class="node"><title>n10127</title>
<ellipse fill="none" stroke="lightgray" cx="27" cy="-468" rx="27" ry="18"/>
<text text-anchor="middle" x="27" y="-464.3" font-family="Times New Roman,serif" font-size="14.00" fill="lightgray">wch</text>
</g>
<!-- n10126&#45;&gt;n10127 -->
<g id="edge4" class="edge"><title>n10126&#45;&gt;n10127</title>
</g>
<!-- n10139 -->
<g id="node4" class="node"><title>n10139</title>
<ellipse fill="cyan" stroke="black" cx="531.994" cy="-311" rx="27" ry="18"/>
<text text-anchor="middle" x="531.994" y="-307.3" font-family="Times New Roman,serif" font-size="14.00">imp</text>
</g>
<!-- n10128&#45;&gt;n10139 -->
<g id="edge3" class="edge"><title>n10128&#45;&gt;n10139</title>
<path fill="none" stroke="lightgray" d="M186.705,-436.572C244.963,-434.505 387.883,-423.182 486.994,-363 498.096,-356.259 507.771,-345.731 515.199,-335.906"/>
<polygon fill="lightgray" stroke="lightgray" points="518.187,-337.744 521.128,-327.566 512.481,-333.688 518.187,-337.744"/>
<text text-anchor="middle" x="348.494" y="-439.8" font-family="Times New Roman,serif" font-size="14.00" fill="lightgray">wff ( ps &#45;&gt; ch )</text>
</g>
<!-- n10131 -->
<g id="node6" class="node"><title>n10131</title>
<ellipse fill="none" stroke="lightgray" cx="159.497" cy="-348" rx="27" ry="18"/>
<text text-anchor="middle" x="159.497" y="-344.3" font-family="Times New Roman,serif" font-size="14.00" fill="lightgray">wi</text>
</g>
<!-- n10128&#45;&gt;n10131 -->
<g id="edge20" class="edge"><title>n10128&#45;&gt;n10131</title>
</g>
<!-- n10127&#45;&gt;n10128 -->
<g id="edge2" class="edge"><title>n10127&#45;&gt;n10128</title>
<path fill="none" stroke="lightgray" d="M52.5455,-462.169C72.6497,-457.393 101.337,-450.578 123.793,-445.244"/>
<polygon fill="lightgray" stroke="lightgray" points="124.698,-448.627 133.618,-442.91 123.08,-441.816 124.698,-448.627"/>
<text text-anchor="middle" x="90.5" y="-461.8" font-family="Times New Roman,serif" font-size="14.00" fill="lightgray">wff ch</text>
</g>
<!-- QED -->
<g id="node15" class="node"><title>QED</title>
</g>
<!-- n10139&#45;&gt;QED -->
<g id="edge19" class="edge"><title>n10139&#45;&gt;QED</title>
<path fill="none" stroke="black" d="M559.047,-311C621.354,-311 779.238,-311 852.633,-311"/>
<polygon fill="black" stroke="black" points="852.828,-314.5 862.828,-311 852.828,-307.5 852.828,-314.5"/>
<text text-anchor="middle" x="710.994" y="-314.8" font-family="Times New Roman,serif" font-size="14.00">|&#45; ( ( ( ps &#45;&gt; ch ) / ( ph &#45;&gt; ps ) ) &#45;&gt; ( ph &#45;&gt; ch ) )</text>
</g>
<!-- n10129 -->
<g id="node5" class="node"><title>n10129</title>
<ellipse fill="none" stroke="lightgray" cx="27" cy="-414" rx="27" ry="18"/>
<text text-anchor="middle" x="27" y="-410.3" font-family="Times New Roman,serif" font-size="14.00" fill="lightgray">wph</text>
</g>
<!-- n10129&#45;&gt;n10131 -->
<g id="edge5" class="edge"><title>n10129&#45;&gt;n10131</title>
<path fill="none" stroke="lightgray" d="M48.9666,-403.396C70.465,-392.523 104.107,-375.508 128.436,-363.203"/>
<polygon fill="lightgray" stroke="lightgray" points="130.239,-366.214 137.583,-358.578 127.079,-359.968 130.239,-366.214"/>
<text text-anchor="middle" x="90.5" y="-394.8" font-family="Times New Roman,serif" font-size="14.00" fill="lightgray">wff ph</text>
</g>
<!-- n10130 -->
<g id="node7" class="node"><title>n10130</title>
<ellipse fill="none" stroke="lightgray" cx="27" cy="-342" rx="27" ry="18"/>
<text text-anchor="middle" x="27" y="-338.3" font-family="Times New Roman,serif" font-size="14.00" fill="lightgray">wps</text>
</g>
<!-- n10129&#45;&gt;n10130 -->
<g id="edge8" class="edge"><title>n10129&#45;&gt;n10130</title>
</g>
<!-- n10131&#45;&gt;n10139 -->
<g id="edge7" class="edge"><title>n10131&#45;&gt;n10139</title>
<path fill="none" stroke="lightgray" d="M186.353,-345.907C241.612,-341.353 375.285,-329.914 486.994,-317 489.701,-316.687 492.499,-316.346 495.312,-315.991"/>
<polygon fill="lightgray" stroke="lightgray" points="495.963,-319.436 505.423,-314.667 495.054,-312.495 495.963,-319.436"/>
<text text-anchor="middle" x="348.494" y="-347.8" font-family="Times New Roman,serif" font-size="14.00" fill="lightgray">wff ( ph &#45;&gt; ps )</text>
</g>
<!-- n10134 -->
<g id="node9" class="node"><title>n10134</title>
<ellipse fill="none" stroke="lightgray" cx="159.497" cy="-276" rx="27" ry="18"/>
<text text-anchor="middle" x="159.497" y="-272.3" font-family="Times New Roman,serif" font-size="14.00" fill="lightgray">wi</text>
</g>
<!-- n10131&#45;&gt;n10134 -->
<g id="edge21" class="edge"><title>n10131&#45;&gt;n10134</title>
</g>
<!-- n10130&#45;&gt;n10131 -->
<g id="edge6" class="edge"><title>n10130&#45;&gt;n10131</title>
<path fill="none" stroke="lightgray" d="M54.0944,-343.2C73.6539,-344.099 100.663,-345.341 122.309,-346.336"/>
<polygon fill="lightgray" stroke="lightgray" points="122.298,-349.839 132.448,-346.802 122.619,-342.847 122.298,-349.839"/>
<text text-anchor="middle" x="90.5" y="-349.8" font-family="Times New Roman,serif" font-size="14.00" fill="lightgray">wff ps</text>
</g>
<!-- n10132 -->
<g id="node8" class="node"><title>n10132</title>
<ellipse fill="none" stroke="lightgray" cx="27" cy="-288" rx="27" ry="18"/>
<text text-anchor="middle" x="27" y="-284.3" font-family="Times New Roman,serif" font-size="14.00" fill="lightgray">wph</text>
</g>
<!-- n10132&#45;&gt;n10134 -->
<g id="edge9" class="edge"><title>n10132&#45;&gt;n10134</title>
<path fill="none" stroke="lightgray" d="M53.782,-285.629C73.3151,-283.833 100.407,-281.342 122.14,-279.343"/>
<polygon fill="lightgray" stroke="lightgray" points="122.685,-282.808 132.322,-278.407 122.043,-275.837 122.685,-282.808"/>
<text text-anchor="middle" x="90.5" y="-287.8" font-family="Times New Roman,serif" font-size="14.00" fill="lightgray">wff ph</text>
</g>
<!-- n10133 -->
<g id="node10" class="node"><title>n10133</title>
<ellipse fill="none" stroke="lightgray" cx="27" cy="-216" rx="27" ry="18"/>
<text text-anchor="middle" x="27" y="-212.3" font-family="Times New Roman,serif" font-size="14.00" fill="lightgray">wch</text>
</g>
<!-- n10132&#45;&gt;n10133 -->
<g id="edge12" class="edge"><title>n10132&#45;&gt;n10133</title>
</g>
<!-- n10134&#45;&gt;n10139 -->
<g id="edge11" class="edge"><title>n10134&#45;&gt;n10139</title>
<path fill="none" stroke="lightgray" d="M186.856,-277.005C242.525,-279.367 376.08,-286.3 486.994,-302 489.889,-302.41 492.88,-302.893 495.877,-303.418"/>
<polygon fill="lightgray" stroke="lightgray" points="495.48,-306.905 505.957,-305.327 496.783,-300.028 495.48,-306.905"/>
<text text-anchor="middle" x="348.494" y="-305.8" font-family="Times New Roman,serif" font-size="14.00" fill="lightgray">wff ( ph &#45;&gt; ch )</text>
</g>
<!-- n10138 -->
<g id="node12" class="node"><title>n10138</title>
<ellipse fill="cyan" stroke="black" cx="159.497" cy="-162" rx="32.4942" ry="18"/>
<text text-anchor="middle" x="159.497" y="-158.3" font-family="Times New Roman,serif" font-size="14.00">imim2</text>
</g>
<!-- n10134&#45;&gt;n10138 -->
<g id="edge22" class="edge"><title>n10134&#45;&gt;n10138</title>
</g>
<!-- n10133&#45;&gt;n10134 -->
<g id="edge10" class="edge"><title>n10133&#45;&gt;n10134</title>
<path fill="none" stroke="lightgray" d="M49.5489,-225.908C70.8,-235.679 103.497,-250.712 127.529,-261.761"/>
<polygon fill="lightgray" stroke="lightgray" points="126.368,-265.08 136.916,-266.078 129.293,-258.72 126.368,-265.08"/>
<text text-anchor="middle" x="90.5" y="-257.8" font-family="Times New Roman,serif" font-size="14.00" fill="lightgray">wff ch</text>
</g>
<!-- n10135 -->
<g id="node11" class="node"><title>n10135</title>
<ellipse fill="none" stroke="lightgray" cx="27" cy="-162" rx="27" ry="18"/>
<text text-anchor="middle" x="27" y="-158.3" font-family="Times New Roman,serif" font-size="14.00" fill="lightgray">wps</text>
</g>
<!-- n10135&#45;&gt;n10138 -->
<g id="edge13" class="edge"><title>n10135&#45;&gt;n10138</title>
<path fill="none" stroke="lightgray" d="M54.0944,-162C72.0379,-162 96.2504,-162 116.841,-162"/>
<polygon fill="lightgray" stroke="lightgray" points="116.919,-165.5 126.919,-162 116.919,-158.5 116.919,-165.5"/>
<text text-anchor="middle" x="90.5" y="-165.8" font-family="Times New Roman,serif" font-size="14.00" fill="lightgray">wff ps</text>
</g>
<!-- n10136 -->
<g id="node13" class="node"><title>n10136</title>
<ellipse fill="none" stroke="lightgray" cx="27" cy="-90" rx="27" ry="18"/>
<text text-anchor="middle" x="27" y="-86.3" font-family="Times New Roman,serif" font-size="14.00" fill="lightgray">wch</text>
</g>
<!-- n10135&#45;&gt;n10136 -->
<g id="edge17" class="edge"><title>n10135&#45;&gt;n10136</title>
</g>
<!-- n10138&#45;&gt;n10139 -->
<g id="edge16" class="edge"><title>n10138&#45;&gt;n10139</title>
<path fill="none" stroke="black" d="M191.722,-165.469C252.832,-173.464 390.661,-197.534 486.994,-260 497.619,-266.889 507.127,-277.075 514.563,-286.536"/>
<polygon fill="black" stroke="black" points="511.76,-288.632 520.54,-294.562 517.375,-284.451 511.76,-288.632"/>
<text text-anchor="middle" x="348.494" y="-263.8" font-family="Times New Roman,serif" font-size="14.00">|&#45; ( ( ps &#45;&gt; ch ) &#45;&gt; ( ( ph &#45;&gt; ps ) &#45;&gt; ( ph &#45;&gt; ch ) ) )</text>
</g>
<!-- n10136&#45;&gt;n10138 -->
<g id="edge14" class="edge"><title>n10136&#45;&gt;n10138</title>
<path fill="none" stroke="lightgray" d="M48.3902,-101.25C69.3662,-112.823 102.33,-131.011 126.728,-144.472"/>
<polygon fill="lightgray" stroke="lightgray" points="125.17,-147.61 135.617,-149.376 128.552,-141.481 125.17,-147.61"/>
<text text-anchor="middle" x="90.5" y="-138.8" font-family="Times New Roman,serif" font-size="14.00" fill="lightgray">wff ch</text>
</g>
<!-- n10137 -->
<g id="node14" class="node"><title>n10137</title>
<ellipse fill="none" stroke="lightgray" cx="27" cy="-18" rx="27" ry="18"/>
<text text-anchor="middle" x="27" y="-14.3" font-family="Times New Roman,serif" font-size="14.00" fill="lightgray">wph</text>
</g>
<!-- n10136&#45;&gt;n10137 -->
<g id="edge18" class="edge"><title>n10136&#45;&gt;n10137</title>
</g>
<!-- n10137&#45;&gt;n10138 -->
<g id="edge15" class="edge"><title>n10137&#45;&gt;n10138</title>
<path fill="none" stroke="lightgray" d="M43.9023,-32.2086C60.746,-47.5498 87.7827,-73.0204 109,-97 120.226,-109.688 131.751,-124.685 140.853,-137.075"/>
<polygon fill="lightgray" stroke="lightgray" points="138.026,-139.139 146.733,-145.176 143.691,-135.027 138.026,-139.139"/>
<text text-anchor="middle" x="90.5" y="-100.8" font-family="Times New Roman,serif" font-size="14.00" fill="lightgray">wff ph</text>
</g>
</g>
</svg>
