<?xml version="1.0" encoding="UTF-8" standalone="no"?>
<!DOCTYPE svg PUBLIC "-//W3C//DTD SVG 1.1//EN"
 "http://www.w3.org/Graphics/SVG/1.1/DTD/svg11.dtd">
<!-- Generated by graphviz version 2.38.0 (20140413.2041)
 -->
<!-- Title: proof_pm3_2i Pages: 1 -->
<svg width="646pt" height="435pt"
 viewBox="0.00 0.00 645.99 435.00" xmlns="http://www.w3.org/2000/svg" xmlns:xlink="http://www.w3.org/1999/xlink">
<g id="graph0" class="graph" transform="scale(1 1) rotate(0) translate(4 431)">
<title>proof_pm3_2i</title>
<polygon fill="white" stroke="none" points="-4,4 -4,-431 641.987,-431 641.987,4 -4,4"/>
<!-- n8060 -->
<g id="node1" class="node"><title>n8060</title>
<ellipse fill="none" stroke="lightgray" cx="169.246" cy="-409" rx="27" ry="18"/>
<text text-anchor="middle" x="169.246" y="-405.3" font-family="Times New Roman,serif" font-size="14.00" fill="lightgray">wph</text>
</g>
<!-- n8070 -->
<g id="node2" class="node"><title>n8070</title>
<ellipse fill="cyan" stroke="black" cx="446.493" cy="-228" rx="27" ry="18"/>
<text text-anchor="middle" x="446.493" y="-224.3" font-family="Times New Roman,serif" font-size="14.00">mp2</text>
</g>
<!-- n8060&#45;&gt;n8070 -->
<g id="edge1" class="edge"><title>n8060&#45;&gt;n8070</title>
<path fill="none" stroke="lightgray" d="M196.434,-409.666C243.527,-409.426 343.035,-402.157 401.493,-349 427.918,-324.971 438.497,-283.797 442.717,-256.243"/>
<polygon fill="lightgray" stroke="lightgray" points="446.222,-256.439 444.083,-246.063 439.284,-255.508 446.222,-256.439"/>
<text text-anchor="middle" x="315.493" y="-411.8" font-family="Times New Roman,serif" font-size="14.00" fill="lightgray">wff ph</text>
</g>
<!-- n8061 -->
<g id="node3" class="node"><title>n8061</title>
<ellipse fill="none" stroke="lightgray" cx="169.246" cy="-337" rx="27" ry="18"/>
<text text-anchor="middle" x="169.246" y="-333.3" font-family="Times New Roman,serif" font-size="14.00" fill="lightgray">wps</text>
</g>
<!-- n8060&#45;&gt;n8061 -->
<g id="edge14" class="edge"><title>n8060&#45;&gt;n8061</title>
</g>
<!-- QED -->
<g id="node12" class="node"><title>QED</title>
</g>
<!-- n8070&#45;&gt;QED -->
<g id="edge13" class="edge"><title>n8070&#45;&gt;QED</title>
<path fill="none" stroke="black" d="M473.596,-228C499.504,-228 539.516,-228 569.105,-228"/>
<polygon fill="black" stroke="black" points="569.489,-231.5 579.489,-228 569.488,-224.5 569.489,-231.5"/>
<text text-anchor="middle" x="526.493" y="-231.8" font-family="Times New Roman,serif" font-size="14.00">|&#45; ( ph /\ ps )</text>
</g>
<!-- n8061&#45;&gt;n8070 -->
<g id="edge2" class="edge"><title>n8061&#45;&gt;n8070</title>
<path fill="none" stroke="lightgray" d="M196.341,-334.707C241.177,-329.786 334.476,-315.186 401.493,-275 411.372,-269.076 420.428,-260.304 427.723,-251.938"/>
<polygon fill="lightgray" stroke="lightgray" points="430.485,-254.089 434.146,-244.147 425.084,-249.636 430.485,-254.089"/>
<text text-anchor="middle" x="315.493" y="-333.8" font-family="Times New Roman,serif" font-size="14.00" fill="lightgray">wff ps</text>
</g>
<!-- n8064 -->
<g id="node5" class="node"><title>n8064</title>
<ellipse fill="none" stroke="lightgray" cx="169.246" cy="-265" rx="27" ry="18"/>
<text text-anchor="middle" x="169.246" y="-261.3" font-family="Times New Roman,serif" font-size="14.00" fill="lightgray">wa</text>
</g>
<!-- n8061&#45;&gt;n8064 -->
<g id="edge15" class="edge"><title>n8061&#45;&gt;n8064</title>
</g>
<!-- n8062 -->
<g id="node4" class="node"><title>n8062</title>
<ellipse fill="none" stroke="lightgray" cx="27" cy="-309" rx="27" ry="18"/>
<text text-anchor="middle" x="27" y="-305.3" font-family="Times New Roman,serif" font-size="14.00" fill="lightgray">wph</text>
</g>
<!-- n8062&#45;&gt;n8064 -->
<g id="edge3" class="edge"><title>n8062&#45;&gt;n8064</title>
<path fill="none" stroke="lightgray" d="M51.7909,-301.536C74.5582,-294.393 109.12,-283.55 134.683,-275.53"/>
<polygon fill="lightgray" stroke="lightgray" points="135.845,-278.834 144.339,-272.501 133.749,-272.155 135.845,-278.834"/>
<text text-anchor="middle" x="90.5" y="-297.8" font-family="Times New Roman,serif" font-size="14.00" fill="lightgray">wff ph</text>
</g>
<!-- n8063 -->
<g id="node6" class="node"><title>n8063</title>
<ellipse fill="none" stroke="lightgray" cx="27" cy="-237" rx="27" ry="18"/>
<text text-anchor="middle" x="27" y="-233.3" font-family="Times New Roman,serif" font-size="14.00" fill="lightgray">wps</text>
</g>
<!-- n8062&#45;&gt;n8063 -->
<g id="edge6" class="edge"><title>n8062&#45;&gt;n8063</title>
</g>
<!-- n8064&#45;&gt;n8070 -->
<g id="edge5" class="edge"><title>n8064&#45;&gt;n8070</title>
<path fill="none" stroke="lightgray" d="M195.913,-261.578C238.588,-255.885 326.831,-244.095 401.493,-234 404.193,-233.635 406.986,-233.256 409.795,-232.875"/>
<polygon fill="lightgray" stroke="lightgray" points="410.464,-236.316 419.901,-231.5 409.52,-229.38 410.464,-236.316"/>
<text text-anchor="middle" x="315.493" y="-259.8" font-family="Times New Roman,serif" font-size="14.00" fill="lightgray">wff ( ph /\ ps )</text>
</g>
<!-- n8065 -->
<g id="node7" class="node"><title>n8065</title>
<ellipse fill="orange" stroke="black" cx="169.246" cy="-193" rx="42.4939" ry="18"/>
<text text-anchor="middle" x="169.246" y="-189.3" font-family="Times New Roman,serif" font-size="14.00">pm3.2i.1</text>
</g>
<!-- n8064&#45;&gt;n8065 -->
<g id="edge16" class="edge"><title>n8064&#45;&gt;n8065</title>
</g>
<!-- n8063&#45;&gt;n8064 -->
<g id="edge4" class="edge"><title>n8063&#45;&gt;n8064</title>
<path fill="none" stroke="lightgray" d="M53.0732,-242.006C75.2719,-246.438 107.916,-252.955 132.787,-257.921"/>
<polygon fill="lightgray" stroke="lightgray" points="132.426,-261.417 142.917,-259.943 133.796,-254.553 132.426,-261.417"/>
<text text-anchor="middle" x="90.5" y="-255.8" font-family="Times New Roman,serif" font-size="14.00" fill="lightgray">wff ps</text>
</g>
<!-- n8065&#45;&gt;n8070 -->
<g id="edge7" class="edge"><title>n8065&#45;&gt;n8070</title>
<path fill="none" stroke="black" d="M210.914,-196.458C257.217,-200.654 335.053,-208.492 401.493,-219 404.38,-219.457 407.367,-219.973 410.36,-220.521"/>
<polygon fill="black" stroke="black" points="409.951,-224.007 420.434,-222.469 411.28,-217.134 409.951,-224.007"/>
<text text-anchor="middle" x="315.493" y="-222.8" font-family="Times New Roman,serif" font-size="14.00">|&#45; ph</text>
</g>
<!-- n8066 -->
<g id="node8" class="node"><title>n8066</title>
<ellipse fill="orange" stroke="black" cx="169.246" cy="-121" rx="42.4939" ry="18"/>
<text text-anchor="middle" x="169.246" y="-117.3" font-family="Times New Roman,serif" font-size="14.00">pm3.2i.2</text>
</g>
<!-- n8065&#45;&gt;n8066 -->
<g id="edge17" class="edge"><title>n8065&#45;&gt;n8066</title>
</g>
<!-- n8066&#45;&gt;n8070 -->
<g id="edge8" class="edge"><title>n8066&#45;&gt;n8070</title>
<path fill="none" stroke="black" d="M210.969,-124.303C259.394,-129.762 341.232,-143.933 401.493,-180 411.49,-185.983 420.569,-194.929 427.849,-203.482"/>
<polygon fill="black" stroke="black" points="425.258,-205.846 434.248,-211.452 430.716,-201.463 425.258,-205.846"/>
<text text-anchor="middle" x="315.493" y="-183.8" font-family="Times New Roman,serif" font-size="14.00">|&#45; ps</text>
</g>
<!-- n8069 -->
<g id="node10" class="node"><title>n8069</title>
<ellipse fill="cyan" stroke="black" cx="169.246" cy="-49" rx="33.5952" ry="18"/>
<text text-anchor="middle" x="169.246" y="-45.3" font-family="Times New Roman,serif" font-size="14.00">pm3.2</text>
</g>
<!-- n8066&#45;&gt;n8069 -->
<g id="edge18" class="edge"><title>n8066&#45;&gt;n8069</title>
</g>
<!-- n8067 -->
<g id="node9" class="node"><title>n8067</title>
<ellipse fill="none" stroke="lightgray" cx="27" cy="-90" rx="27" ry="18"/>
<text text-anchor="middle" x="27" y="-86.3" font-family="Times New Roman,serif" font-size="14.00" fill="lightgray">wph</text>
</g>
<!-- n8067&#45;&gt;n8069 -->
<g id="edge9" class="edge"><title>n8067&#45;&gt;n8069</title>
<path fill="none" stroke="lightgray" d="M52.1092,-82.9518C73.3788,-76.7338 104.76,-67.5596 129.542,-60.3148"/>
<polygon fill="lightgray" stroke="lightgray" points="130.75,-63.6084 139.366,-57.443 128.785,-56.8897 130.75,-63.6084"/>
<text text-anchor="middle" x="90.5" y="-80.8" font-family="Times New Roman,serif" font-size="14.00" fill="lightgray">wff ph</text>
</g>
<!-- n8068 -->
<g id="node11" class="node"><title>n8068</title>
<ellipse fill="none" stroke="lightgray" cx="27" cy="-18" rx="27" ry="18"/>
<text text-anchor="middle" x="27" y="-14.3" font-family="Times New Roman,serif" font-size="14.00" fill="lightgray">wps</text>
</g>
<!-- n8067&#45;&gt;n8068 -->
<g id="edge12" class="edge"><title>n8067&#45;&gt;n8068</title>
</g>
<!-- n8069&#45;&gt;n8070 -->
<g id="edge11" class="edge"><title>n8069&#45;&gt;n8070</title>
<path fill="none" stroke="black" d="M203.421,-48.2754C252.773,-49.0056 345.685,-57.5946 401.493,-108 427.805,-131.766 438.413,-172.615 442.669,-199.962"/>
<polygon fill="black" stroke="black" points="439.228,-200.634 444.05,-210.068 446.164,-199.686 439.228,-200.634"/>
<text text-anchor="middle" x="315.493" y="-111.8" font-family="Times New Roman,serif" font-size="14.00">|&#45; ( ph &#45;&gt; ( ps &#45;&gt; ( ph /\ ps ) ) )</text>
</g>
<!-- n8068&#45;&gt;n8069 -->
<g id="edge10" class="edge"><title>n8068&#45;&gt;n8069</title>
<path fill="none" stroke="lightgray" d="M52.7504,-23.4708C73.5301,-28.064 103.625,-34.7162 127.885,-40.0786"/>
<polygon fill="lightgray" stroke="lightgray" points="127.361,-43.5472 137.881,-42.2881 128.872,-36.7122 127.361,-43.5472"/>
<text text-anchor="middle" x="90.5" y="-39.8" font-family="Times New Roman,serif" font-size="14.00" fill="lightgray">wff ps</text>
</g>
</g>
</svg>
