<?xml version="1.0" encoding="UTF-8" standalone="no"?>
<!DOCTYPE svg PUBLIC "-//W3C//DTD SVG 1.1//EN"
 "http://www.w3.org/Graphics/SVG/1.1/DTD/svg11.dtd">
<!-- Generated by graphviz version 2.38.0 (20140413.2041)
 -->
<!-- Title: proof_pm3_43i Pages: 1 -->
<svg width="887pt" height="363pt"
 viewBox="0.00 0.00 886.98 363.00" xmlns="http://www.w3.org/2000/svg" xmlns:xlink="http://www.w3.org/1999/xlink">
<g id="graph0" class="graph" transform="scale(1 1) rotate(0) translate(4 359)">
<title>proof_pm3_43i</title>
<polygon fill="white" stroke="none" points="-4,4 -4,-359 882.983,-359 882.983,4 -4,4"/>
<!-- n8071 -->
<g id="node1" class="node"><title>n8071</title>
<ellipse fill="none" stroke="lightgray" cx="160.797" cy="-337" rx="27" ry="18"/>
<text text-anchor="middle" x="160.797" y="-333.3" font-family="Times New Roman,serif" font-size="14.00" fill="lightgray">wps</text>
</g>
<!-- n8080 -->
<g id="node2" class="node"><title>n8080</title>
<ellipse fill="cyan" stroke="black" cx="431.041" cy="-193" rx="34.394" ry="18"/>
<text text-anchor="middle" x="431.041" y="-189.3" font-family="Times New Roman,serif" font-size="14.00">imim3i</text>
</g>
<!-- n8071&#45;&gt;n8080 -->
<g id="edge1" class="edge"><title>n8071&#45;&gt;n8080</title>
<path fill="none" stroke="lightgray" d="M187.734,-334.974C231.201,-330.415 319.763,-316.024 378.594,-272 396.506,-258.596 409.957,-236.984 418.605,-219.75"/>
<polygon fill="lightgray" stroke="lightgray" points="421.772,-221.24 422.912,-210.706 415.452,-218.229 421.772,-221.24"/>
<text text-anchor="middle" x="295.594" y="-334.8" font-family="Times New Roman,serif" font-size="14.00" fill="lightgray">wff ps</text>
</g>
<!-- n8072 -->
<g id="node3" class="node"><title>n8072</title>
<ellipse fill="none" stroke="lightgray" cx="160.797" cy="-265" rx="27" ry="18"/>
<text text-anchor="middle" x="160.797" y="-261.3" font-family="Times New Roman,serif" font-size="14.00" fill="lightgray">wch</text>
</g>
<!-- n8071&#45;&gt;n8072 -->
<g id="edge13" class="edge"><title>n8071&#45;&gt;n8072</title>
</g>
<!-- QED -->
<g id="node11" class="node"><title>QED</title>
</g>
<!-- n8080&#45;&gt;QED -->
<g id="edge12" class="edge"><title>n8080&#45;&gt;QED</title>
<path fill="none" stroke="black" d="M465.788,-193C542.369,-193 728.931,-193 810.029,-193"/>
<polygon fill="black" stroke="black" points="810.295,-196.5 820.295,-193 810.295,-189.5 810.295,-196.5"/>
<text text-anchor="middle" x="642.988" y="-196.8" font-family="Times New Roman,serif" font-size="14.00">|&#45; ( ( ph &#45;&gt; ps ) &#45;&gt; ( ( ph &#45;&gt; ch ) &#45;&gt; ( ph &#45;&gt; ( ps / ch ) ) ) )</text>
</g>
<!-- n8072&#45;&gt;n8080 -->
<g id="edge2" class="edge"><title>n8072&#45;&gt;n8080</title>
<path fill="none" stroke="lightgray" d="M186.757,-259.868C227.353,-251.306 310.046,-232.962 378.594,-212 383.477,-210.507 388.571,-208.806 393.575,-207.049"/>
<polygon fill="lightgray" stroke="lightgray" points="394.788,-210.332 403.004,-203.642 392.41,-203.748 394.788,-210.332"/>
<text text-anchor="middle" x="295.594" y="-256.8" font-family="Times New Roman,serif" font-size="14.00" fill="lightgray">wff ch</text>
</g>
<!-- n8075 -->
<g id="node5" class="node"><title>n8075</title>
<ellipse fill="none" stroke="lightgray" cx="160.797" cy="-193" rx="27" ry="18"/>
<text text-anchor="middle" x="160.797" y="-189.3" font-family="Times New Roman,serif" font-size="14.00" fill="lightgray">wa</text>
</g>
<!-- n8072&#45;&gt;n8075 -->
<g id="edge14" class="edge"><title>n8072&#45;&gt;n8075</title>
</g>
<!-- n8073 -->
<g id="node4" class="node"><title>n8073</title>
<ellipse fill="none" stroke="lightgray" cx="27" cy="-225" rx="27" ry="18"/>
<text text-anchor="middle" x="27" y="-221.3" font-family="Times New Roman,serif" font-size="14.00" fill="lightgray">wps</text>
</g>
<!-- n8073&#45;&gt;n8075 -->
<g id="edge3" class="edge"><title>n8073&#45;&gt;n8075</title>
<path fill="none" stroke="lightgray" d="M52.79,-218.981C73.2237,-214.02 102.437,-206.927 125.179,-201.405"/>
<polygon fill="lightgray" stroke="lightgray" points="126.226,-204.753 135.118,-198.992 124.575,-197.95 126.226,-204.753"/>
<text text-anchor="middle" x="90.5" y="-216.8" font-family="Times New Roman,serif" font-size="14.00" fill="lightgray">wff ps</text>
</g>
<!-- n8074 -->
<g id="node6" class="node"><title>n8074</title>
<ellipse fill="none" stroke="lightgray" cx="27" cy="-153" rx="27" ry="18"/>
<text text-anchor="middle" x="27" y="-149.3" font-family="Times New Roman,serif" font-size="14.00" fill="lightgray">wch</text>
</g>
<!-- n8073&#45;&gt;n8074 -->
<g id="edge6" class="edge"><title>n8073&#45;&gt;n8074</title>
</g>
<!-- n8075&#45;&gt;n8080 -->
<g id="edge5" class="edge"><title>n8075&#45;&gt;n8080</title>
<path fill="none" stroke="lightgray" d="M188.006,-193C234.049,-193 329.902,-193 386.183,-193"/>
<polygon fill="lightgray" stroke="lightgray" points="386.211,-196.5 396.211,-193 386.211,-189.5 386.211,-196.5"/>
<text text-anchor="middle" x="295.594" y="-196.8" font-family="Times New Roman,serif" font-size="14.00" fill="lightgray">wff ( ps / ch )</text>
</g>
<!-- n8076 -->
<g id="node7" class="node"><title>n8076</title>
<ellipse fill="none" stroke="lightgray" cx="160.797" cy="-121" rx="27" ry="18"/>
<text text-anchor="middle" x="160.797" y="-117.3" font-family="Times New Roman,serif" font-size="14.00" fill="lightgray">wph</text>
</g>
<!-- n8075&#45;&gt;n8076 -->
<g id="edge15" class="edge"><title>n8075&#45;&gt;n8076</title>
</g>
<!-- n8074&#45;&gt;n8075 -->
<g id="edge4" class="edge"><title>n8074&#45;&gt;n8075</title>
<path fill="none" stroke="lightgray" d="M51.8674,-160.244C72.5452,-166.519 102.699,-175.671 125.881,-182.707"/>
<polygon fill="lightgray" stroke="lightgray" points="125.076,-186.12 135.662,-185.675 127.109,-179.422 125.076,-186.12"/>
<text text-anchor="middle" x="90.5" y="-180.8" font-family="Times New Roman,serif" font-size="14.00" fill="lightgray">wff ch</text>
</g>
<!-- n8076&#45;&gt;n8080 -->
<g id="edge7" class="edge"><title>n8076&#45;&gt;n8080</title>
<path fill="none" stroke="lightgray" d="M186.757,-126.132C227.353,-134.694 310.046,-153.038 378.594,-174 383.477,-175.493 388.571,-177.194 393.575,-178.951"/>
<polygon fill="lightgray" stroke="lightgray" points="392.41,-182.252 403.004,-182.358 394.788,-175.668 392.41,-182.252"/>
<text text-anchor="middle" x="295.594" y="-177.8" font-family="Times New Roman,serif" font-size="14.00" fill="lightgray">wff ph</text>
</g>
<!-- n8079 -->
<g id="node9" class="node"><title>n8079</title>
<ellipse fill="cyan" stroke="black" cx="160.797" cy="-49" rx="33.5952" ry="18"/>
<text text-anchor="middle" x="160.797" y="-45.3" font-family="Times New Roman,serif" font-size="14.00">pm3.2</text>
</g>
<!-- n8076&#45;&gt;n8079 -->
<g id="edge16" class="edge"><title>n8076&#45;&gt;n8079</title>
</g>
<!-- n8077 -->
<g id="node8" class="node"><title>n8077</title>
<ellipse fill="none" stroke="lightgray" cx="27" cy="-90" rx="27" ry="18"/>
<text text-anchor="middle" x="27" y="-86.3" font-family="Times New Roman,serif" font-size="14.00" fill="lightgray">wps</text>
</g>
<!-- n8077&#45;&gt;n8079 -->
<g id="edge8" class="edge"><title>n8077&#45;&gt;n8079</title>
<path fill="none" stroke="lightgray" d="M51.8674,-82.5752C71.2528,-76.5447 98.9666,-67.9234 121.457,-60.927"/>
<polygon fill="lightgray" stroke="lightgray" points="122.545,-64.254 131.054,-57.9414 120.466,-57.5699 122.545,-64.254"/>
<text text-anchor="middle" x="90.5" y="-79.8" font-family="Times New Roman,serif" font-size="14.00" fill="lightgray">wff ps</text>
</g>
<!-- n8078 -->
<g id="node10" class="node"><title>n8078</title>
<ellipse fill="none" stroke="lightgray" cx="27" cy="-18" rx="27" ry="18"/>
<text text-anchor="middle" x="27" y="-14.3" font-family="Times New Roman,serif" font-size="14.00" fill="lightgray">wch</text>
</g>
<!-- n8077&#45;&gt;n8078 -->
<g id="edge11" class="edge"><title>n8077&#45;&gt;n8078</title>
</g>
<!-- n8079&#45;&gt;n8080 -->
<g id="edge10" class="edge"><title>n8079&#45;&gt;n8080</title>
<path fill="none" stroke="black" d="M194.315,-51.7548C239.657,-57.039 322.595,-72.0946 378.594,-114 396.506,-127.404 409.957,-149.016 418.605,-166.25"/>
<polygon fill="black" stroke="black" points="415.452,-167.771 422.912,-175.294 421.772,-164.76 415.452,-167.771"/>
<text text-anchor="middle" x="295.594" y="-117.8" font-family="Times New Roman,serif" font-size="14.00">|&#45; ( ps &#45;&gt; ( ch &#45;&gt; ( ps / ch ) ) )</text>
</g>
<!-- n8078&#45;&gt;n8079 -->
<g id="edge9" class="edge"><title>n8078&#45;&gt;n8079</title>
<path fill="none" stroke="lightgray" d="M52.8626,-23.3103C68.9125,-26.7913 90.2254,-31.5127 109,-36 112.622,-36.8656 116.383,-37.7865 120.147,-38.723"/>
<polygon fill="lightgray" stroke="lightgray" points="119.469,-42.1616 130.021,-41.2107 121.179,-35.3737 119.469,-42.1616"/>
<text text-anchor="middle" x="90.5" y="-39.8" font-family="Times New Roman,serif" font-size="14.00" fill="lightgray">wff ch</text>
</g>
</g>
</svg>
