<?xml version="1.0" encoding="UTF-8" standalone="no"?>
<!DOCTYPE svg PUBLIC "-//W3C//DTD SVG 1.1//EN"
 "http://www.w3.org/Graphics/SVG/1.1/DTD/svg11.dtd">
<!-- Generated by graphviz version 2.38.0 (20140413.2041)
 -->
<!-- Title: proof_pm4_71rd Pages: 1 -->
<svg width="1015pt" height="389pt"
 viewBox="0.00 0.00 1014.68 389.00" xmlns="http://www.w3.org/2000/svg" xmlns:xlink="http://www.w3.org/1999/xlink">
<g id="graph0" class="graph" transform="scale(1 1) rotate(0) translate(4 385)">
<title>proof_pm4_71rd</title>
<polygon fill="white" stroke="none" points="-4,4 -4,-385 1010.68,-385 1010.68,4 -4,4"/>
<!-- n10911 -->
<g id="node1" class="node"><title>n10911</title>
<ellipse fill="none" stroke="lightgray" cx="351.645" cy="-363" rx="27" ry="18"/>
<text text-anchor="middle" x="351.645" y="-359.3" font-family="Times New Roman,serif" font-size="14.00" fill="lightgray">wph</text>
</g>
<!-- n10924 -->
<g id="node2" class="node"><title>n10924</title>
<ellipse fill="cyan" stroke="black" cx="705.238" cy="-219" rx="27.8951" ry="18"/>
<text text-anchor="middle" x="705.238" y="-215.3" font-family="Times New Roman,serif" font-size="14.00">sylib</text>
</g>
<!-- n10911&#45;&gt;n10924 -->
<g id="edge1" class="edge"><title>n10911&#45;&gt;n10924</title>
<path fill="none" stroke="lightgray" d="M378.553,-364.809C435.283,-367.409 572.356,-366.11 659.291,-302 677.652,-288.46 689.335,-265.1 696.174,-246.605"/>
<polygon fill="lightgray" stroke="lightgray" points="699.561,-247.518 699.487,-236.924 692.938,-245.252 699.561,-247.518"/>
<text text-anchor="middle" x="540.791" y="-368.8" font-family="Times New Roman,serif" font-size="14.00" fill="lightgray">wff ph</text>
</g>
<!-- n10914 -->
<g id="node4" class="node"><title>n10914</title>
<ellipse fill="none" stroke="lightgray" cx="351.645" cy="-291" rx="27" ry="18"/>
<text text-anchor="middle" x="351.645" y="-287.3" font-family="Times New Roman,serif" font-size="14.00" fill="lightgray">wi</text>
</g>
<!-- n10911&#45;&gt;n10914 -->
<g id="edge19" class="edge"><title>n10911&#45;&gt;n10914</title>
</g>
<!-- QED -->
<g id="node15" class="node"><title>QED</title>
</g>
<!-- n10924&#45;&gt;QED -->
<g id="edge18" class="edge"><title>n10924&#45;&gt;QED</title>
<path fill="none" stroke="black" d="M733.383,-219C781.66,-219 882.567,-219 937.973,-219"/>
<polygon fill="black" stroke="black" points="938.092,-222.5 948.092,-219 938.092,-215.5 938.092,-222.5"/>
<text text-anchor="middle" x="840.686" y="-222.8" font-family="Times New Roman,serif" font-size="14.00">|&#45; ( ph &#45;&gt; ( ps &lt;&#45;&gt; ( ch /\ ps ) ) )</text>
</g>
<!-- n10912 -->
<g id="node3" class="node"><title>n10912</title>
<ellipse fill="none" stroke="lightgray" cx="154" cy="-350" rx="27" ry="18"/>
<text text-anchor="middle" x="154" y="-346.3" font-family="Times New Roman,serif" font-size="14.00" fill="lightgray">wps</text>
</g>
<!-- n10912&#45;&gt;n10914 -->
<g id="edge2" class="edge"><title>n10912&#45;&gt;n10914</title>
<path fill="none" stroke="lightgray" d="M178.99,-342.765C213.627,-332.32 277.788,-312.971 317.1,-301.116"/>
<polygon fill="lightgray" stroke="lightgray" points="318.202,-304.44 326.765,-298.201 316.181,-297.738 318.202,-304.44"/>
<text text-anchor="middle" x="240" y="-338.8" font-family="Times New Roman,serif" font-size="14.00" fill="lightgray">wff ps</text>
</g>
<!-- n10913 -->
<g id="node5" class="node"><title>n10913</title>
<ellipse fill="none" stroke="lightgray" cx="154" cy="-278" rx="27" ry="18"/>
<text text-anchor="middle" x="154" y="-274.3" font-family="Times New Roman,serif" font-size="14.00" fill="lightgray">wch</text>
</g>
<!-- n10912&#45;&gt;n10913 -->
<g id="edge5" class="edge"><title>n10912&#45;&gt;n10913</title>
</g>
<!-- n10914&#45;&gt;n10924 -->
<g id="edge4" class="edge"><title>n10914&#45;&gt;n10924</title>
<path fill="none" stroke="lightgray" d="M378.539,-288.546C431.914,-283.049 557.687,-267.827 659.291,-238 663.708,-236.703 668.276,-235.101 672.73,-233.381"/>
<polygon fill="lightgray" stroke="lightgray" points="674.274,-236.531 682.2,-229.501 671.62,-230.054 674.274,-236.531"/>
<text text-anchor="middle" x="540.791" y="-286.8" font-family="Times New Roman,serif" font-size="14.00" fill="lightgray">wff ( ps &#45;&gt; ch )</text>
</g>
<!-- n10919 -->
<g id="node7" class="node"><title>n10919</title>
<ellipse fill="none" stroke="lightgray" cx="351.645" cy="-219" rx="27" ry="18"/>
<text text-anchor="middle" x="351.645" y="-215.3" font-family="Times New Roman,serif" font-size="14.00" fill="lightgray">wb</text>
</g>
<!-- n10914&#45;&gt;n10919 -->
<g id="edge20" class="edge"><title>n10914&#45;&gt;n10919</title>
</g>
<!-- n10913&#45;&gt;n10914 -->
<g id="edge3" class="edge"><title>n10913&#45;&gt;n10914</title>
<path fill="none" stroke="lightgray" d="M180.98,-279.726C215.184,-281.999 275.505,-286.007 314.243,-288.581"/>
<polygon fill="lightgray" stroke="lightgray" points="314.348,-292.096 324.558,-289.267 314.812,-285.111 314.348,-292.096"/>
<text text-anchor="middle" x="240" y="-289.8" font-family="Times New Roman,serif" font-size="14.00" fill="lightgray">wff ch</text>
</g>
<!-- n10915 -->
<g id="node6" class="node"><title>n10915</title>
<ellipse fill="none" stroke="lightgray" cx="154" cy="-223" rx="27" ry="18"/>
<text text-anchor="middle" x="154" y="-219.3" font-family="Times New Roman,serif" font-size="14.00" fill="lightgray">wps</text>
</g>
<!-- n10915&#45;&gt;n10919 -->
<g id="edge6" class="edge"><title>n10915&#45;&gt;n10919</title>
<path fill="none" stroke="lightgray" d="M181.386,-222.461C215.612,-221.761 275.493,-220.536 314.085,-219.747"/>
<polygon fill="lightgray" stroke="lightgray" points="314.44,-223.241 324.366,-219.537 314.297,-216.243 314.44,-223.241"/>
<text text-anchor="middle" x="240" y="-225.8" font-family="Times New Roman,serif" font-size="14.00" fill="lightgray">wff ps</text>
</g>
<!-- n10918 -->
<g id="node9" class="node"><title>n10918</title>
<ellipse fill="none" stroke="lightgray" cx="154" cy="-151" rx="27" ry="18"/>
<text text-anchor="middle" x="154" y="-147.3" font-family="Times New Roman,serif" font-size="14.00" fill="lightgray">wa</text>
</g>
<!-- n10915&#45;&gt;n10918 -->
<g id="edge12" class="edge"><title>n10915&#45;&gt;n10918</title>
</g>
<!-- n10919&#45;&gt;n10924 -->
<g id="edge11" class="edge"><title>n10919&#45;&gt;n10924</title>
<path fill="none" stroke="lightgray" d="M378.785,-219C440.394,-219 594.898,-219 666.598,-219"/>
<polygon fill="lightgray" stroke="lightgray" points="666.962,-222.5 676.962,-219 666.962,-215.5 666.962,-222.5"/>
<text text-anchor="middle" x="540.791" y="-222.8" font-family="Times New Roman,serif" font-size="14.00" fill="lightgray">wff ( ps &lt;&#45;&gt; ( ch /\ ps ) )</text>
</g>
<!-- n10920 -->
<g id="node11" class="node"><title>n10920</title>
<ellipse fill="orange" stroke="black" cx="351.645" cy="-147" rx="52.7911" ry="18"/>
<text text-anchor="middle" x="351.645" y="-143.3" font-family="Times New Roman,serif" font-size="14.00">pm4.71rd.1</text>
</g>
<!-- n10919&#45;&gt;n10920 -->
<g id="edge21" class="edge"><title>n10919&#45;&gt;n10920</title>
</g>
<!-- n10916 -->
<g id="node8" class="node"><title>n10916</title>
<ellipse fill="none" stroke="lightgray" cx="27" cy="-196" rx="27" ry="18"/>
<text text-anchor="middle" x="27" y="-192.3" font-family="Times New Roman,serif" font-size="14.00" fill="lightgray">wch</text>
</g>
<!-- n10916&#45;&gt;n10918 -->
<g id="edge7" class="edge"><title>n10916&#45;&gt;n10918</title>
<path fill="none" stroke="lightgray" d="M51.2186,-187.641C70.6886,-180.632 98.7117,-170.544 120.426,-162.727"/>
<polygon fill="lightgray" stroke="lightgray" points="121.682,-165.994 129.906,-159.314 119.311,-159.408 121.682,-165.994"/>
<text text-anchor="middle" x="90.5" y="-184.8" font-family="Times New Roman,serif" font-size="14.00" fill="lightgray">wff ch</text>
</g>
<!-- n10917 -->
<g id="node10" class="node"><title>n10917</title>
<ellipse fill="none" stroke="lightgray" cx="27" cy="-124" rx="27" ry="18"/>
<text text-anchor="middle" x="27" y="-120.3" font-family="Times New Roman,serif" font-size="14.00" fill="lightgray">wps</text>
</g>
<!-- n10916&#45;&gt;n10917 -->
<g id="edge10" class="edge"><title>n10916&#45;&gt;n10917</title>
</g>
<!-- n10918&#45;&gt;n10919 -->
<g id="edge9" class="edge"><title>n10918&#45;&gt;n10919</title>
<path fill="none" stroke="lightgray" d="M178.211,-159.068C212.923,-171.132 278.495,-193.923 318.013,-207.658"/>
<polygon fill="lightgray" stroke="lightgray" points="316.869,-210.966 327.464,-210.943 319.168,-204.354 316.869,-210.966"/>
<text text-anchor="middle" x="240" y="-197.8" font-family="Times New Roman,serif" font-size="14.00" fill="lightgray">wff ( ch /\ ps )</text>
</g>
<!-- n10917&#45;&gt;n10918 -->
<g id="edge8" class="edge"><title>n10917&#45;&gt;n10918</title>
<path fill="none" stroke="lightgray" d="M52.9952,-129.399C71.6456,-133.427 97.3666,-138.983 118.053,-143.451"/>
<polygon fill="lightgray" stroke="lightgray" points="117.535,-146.92 128.048,-145.61 119.013,-140.078 117.535,-146.92"/>
<text text-anchor="middle" x="90.5" y="-145.8" font-family="Times New Roman,serif" font-size="14.00" fill="lightgray">wff ps</text>
</g>
<!-- n10920&#45;&gt;n10924 -->
<g id="edge13" class="edge"><title>n10920&#45;&gt;n10924</title>
<path fill="none" stroke="black" d="M402.296,-152.042C463.606,-159.072 570.646,-173.977 659.291,-200 663.708,-201.297 668.276,-202.899 672.73,-204.619"/>
<polygon fill="black" stroke="black" points="671.62,-207.946 682.2,-208.499 674.274,-201.469 671.62,-207.946"/>
<text text-anchor="middle" x="540.791" y="-203.8" font-family="Times New Roman,serif" font-size="14.00">|&#45; ( ph &#45;&gt; ( ps &#45;&gt; ch ) )</text>
</g>
<!-- n10923 -->
<g id="node13" class="node"><title>n10923</title>
<ellipse fill="cyan" stroke="black" cx="351.645" cy="-75" rx="40.8928" ry="18"/>
<text text-anchor="middle" x="351.645" y="-71.3" font-family="Times New Roman,serif" font-size="14.00">pm4.71r</text>
</g>
<!-- n10920&#45;&gt;n10923 -->
<g id="edge22" class="edge"><title>n10920&#45;&gt;n10923</title>
</g>
<!-- n10921 -->
<g id="node12" class="node"><title>n10921</title>
<ellipse fill="none" stroke="lightgray" cx="154" cy="-90" rx="27" ry="18"/>
<text text-anchor="middle" x="154" y="-86.3" font-family="Times New Roman,serif" font-size="14.00" fill="lightgray">wps</text>
</g>
<!-- n10921&#45;&gt;n10923 -->
<g id="edge14" class="edge"><title>n10921&#45;&gt;n10923</title>
<path fill="none" stroke="lightgray" d="M180.98,-88.0081C211.384,-85.6771 262.423,-81.764 300.597,-78.8372"/>
<polygon fill="lightgray" stroke="lightgray" points="301.292,-82.2943 310.995,-78.04 300.756,-75.3148 301.292,-82.2943"/>
<text text-anchor="middle" x="240" y="-90.8" font-family="Times New Roman,serif" font-size="14.00" fill="lightgray">wff ps</text>
</g>
<!-- n10922 -->
<g id="node14" class="node"><title>n10922</title>
<ellipse fill="none" stroke="lightgray" cx="154" cy="-18" rx="27" ry="18"/>
<text text-anchor="middle" x="154" y="-14.3" font-family="Times New Roman,serif" font-size="14.00" fill="lightgray">wch</text>
</g>
<!-- n10921&#45;&gt;n10922 -->
<g id="edge17" class="edge"><title>n10921&#45;&gt;n10922</title>
</g>
<!-- n10923&#45;&gt;n10924 -->
<g id="edge16" class="edge"><title>n10923&#45;&gt;n10924</title>
<path fill="none" stroke="black" d="M392.438,-72.7009C455.327,-71.1286 578.799,-76.6419 659.291,-136 677.652,-149.54 689.335,-172.9 696.174,-191.395"/>
<polygon fill="black" stroke="black" points="692.938,-192.748 699.487,-201.076 699.561,-190.482 692.938,-192.748"/>
<text text-anchor="middle" x="540.791" y="-139.8" font-family="Times New Roman,serif" font-size="14.00">|&#45; ( ( ps &#45;&gt; ch ) &lt;&#45;&gt; ( ps &lt;&#45;&gt; ( ch /\ ps ) ) )</text>
</g>
<!-- n10922&#45;&gt;n10923 -->
<g id="edge15" class="edge"><title>n10922&#45;&gt;n10923</title>
<path fill="none" stroke="lightgray" d="M178.99,-24.9893C210.878,-34.2797 267.791,-50.861 307.3,-62.3715"/>
<polygon fill="lightgray" stroke="lightgray" points="306.363,-65.7442 316.943,-65.1811 308.321,-59.0236 306.363,-65.7442"/>
<text text-anchor="middle" x="240" y="-57.8" font-family="Times New Roman,serif" font-size="14.00" fill="lightgray">wff ch</text>
</g>
</g>
</svg>
