<?xml version="1.0" encoding="UTF-8" standalone="no"?>
<!DOCTYPE svg PUBLIC "-//W3C//DTD SVG 1.1//EN"
 "http://www.w3.org/Graphics/SVG/1.1/DTD/svg11.dtd">
<!-- Generated by graphviz version 2.38.0 (20140413.2041)
 -->
<!-- Title: proof_pm4_66 Pages: 1 -->
<svg width="657pt" height="116pt"
 viewBox="0.00 0.00 657.19 116.00" xmlns="http://www.w3.org/2000/svg" xmlns:xlink="http://www.w3.org/1999/xlink">
<g id="graph0" class="graph" transform="scale(1 1) rotate(0) translate(4 112)">
<title>proof_pm4_66</title>
<polygon fill="white" stroke="none" points="-4,4 -4,-112 653.188,-112 653.188,4 -4,4"/>
<!-- n7665 -->
<g id="node1" class="node"><title>n7665</title>
<ellipse fill="none" stroke="lightgray" cx="154" cy="-90" rx="27" ry="18"/>
<text text-anchor="middle" x="154" y="-86.3" font-family="Times New Roman,serif" font-size="14.00" fill="lightgray">wph</text>
</g>
<!-- n7668 -->
<g id="node2" class="node"><title>n7668</title>
<ellipse fill="cyan" stroke="black" cx="304.347" cy="-58" rx="38.1938" ry="18"/>
<text text-anchor="middle" x="304.347" y="-54.3" font-family="Times New Roman,serif" font-size="14.00">pm4.64</text>
</g>
<!-- n7665&#45;&gt;n7668 -->
<g id="edge1" class="edge"><title>n7665&#45;&gt;n7668</title>
<path fill="none" stroke="lightgray" d="M179.83,-84.6439C201.456,-79.9789 233.325,-73.1045 259.274,-67.507"/>
<polygon fill="lightgray" stroke="lightgray" points="260.22,-70.8835 269.257,-65.3535 258.744,-64.0409 260.22,-70.8835"/>
<text text-anchor="middle" x="223.5" y="-82.8" font-family="Times New Roman,serif" font-size="14.00" fill="lightgray">wff ph</text>
</g>
<!-- n7667 -->
<g id="node4" class="node"><title>n7667</title>
<ellipse fill="none" stroke="lightgray" cx="154" cy="-18" rx="27" ry="18"/>
<text text-anchor="middle" x="154" y="-14.3" font-family="Times New Roman,serif" font-size="14.00" fill="lightgray">wn</text>
</g>
<!-- n7665&#45;&gt;n7667 -->
<g id="edge5" class="edge"><title>n7665&#45;&gt;n7667</title>
</g>
<!-- QED -->
<g id="node5" class="node"><title>QED</title>
</g>
<!-- n7668&#45;&gt;QED -->
<g id="edge4" class="edge"><title>n7668&#45;&gt;QED</title>
<path fill="none" stroke="black" d="M342.862,-58C402.828,-58 519.678,-58 580.329,-58"/>
<polygon fill="black" stroke="black" points="580.622,-61.5001 590.622,-58 580.622,-54.5001 580.622,-61.5001"/>
<text text-anchor="middle" x="466.693" y="-61.8" font-family="Times New Roman,serif" font-size="14.00">|&#45; ( ( &#45;. ph &#45;&gt; &#45;. ps ) &lt;&#45;&gt; ( ph / &#45;. ps ) )</text>
</g>
<!-- n7666 -->
<g id="node3" class="node"><title>n7666</title>
<ellipse fill="none" stroke="lightgray" cx="27" cy="-18" rx="27" ry="18"/>
<text text-anchor="middle" x="27" y="-14.3" font-family="Times New Roman,serif" font-size="14.00" fill="lightgray">wps</text>
</g>
<!-- n7666&#45;&gt;n7667 -->
<g id="edge2" class="edge"><title>n7666&#45;&gt;n7667</title>
<path fill="none" stroke="lightgray" d="M54.2041,-18C72.3711,-18 96.7994,-18 116.82,-18"/>
<polygon fill="lightgray" stroke="lightgray" points="116.83,-21.5001 126.83,-18 116.83,-14.5001 116.83,-21.5001"/>
<text text-anchor="middle" x="90.5" y="-21.8" font-family="Times New Roman,serif" font-size="14.00" fill="lightgray">wff ps</text>
</g>
<!-- n7667&#45;&gt;n7668 -->
<g id="edge3" class="edge"><title>n7667&#45;&gt;n7668</title>
<path fill="none" stroke="lightgray" d="M179.496,-24.6052C201.607,-30.567 234.617,-39.4678 260.998,-46.5813"/>
<polygon fill="lightgray" stroke="lightgray" points="260.182,-49.9861 270.748,-49.2102 262.004,-43.2274 260.182,-49.9861"/>
<text text-anchor="middle" x="223.5" y="-46.8" font-family="Times New Roman,serif" font-size="14.00" fill="lightgray">wff &#45;. ps</text>
</g>
</g>
</svg>
