<?xml version="1.0" encoding="UTF-8" standalone="no"?>
<!DOCTYPE svg PUBLIC "-//W3C//DTD SVG 1.1//EN"
 "http://www.w3.org/Graphics/SVG/1.1/DTD/svg11.dtd">
<!-- Generated by graphviz version 2.38.0 (20140413.2041)
 -->
<!-- Title: proof_pm4_61 Pages: 1 -->
<svg width="980pt" height="320pt"
 viewBox="0.00 0.00 979.98 320.00" xmlns="http://www.w3.org/2000/svg" xmlns:xlink="http://www.w3.org/1999/xlink">
<g id="graph0" class="graph" transform="scale(1 1) rotate(0) translate(4 316)">
<title>proof_pm4_61</title>
<polygon fill="white" stroke="none" points="-4,4 -4,-316 975.983,-316 975.983,4 -4,4"/>
<!-- n7742 -->
<g id="node1" class="node"><title>n7742</title>
<ellipse fill="none" stroke="lightgray" cx="154" cy="-294" rx="27" ry="18"/>
<text text-anchor="middle" x="154" y="-290.3" font-family="Times New Roman,serif" font-size="14.00" fill="lightgray">wph</text>
</g>
<!-- n7745 -->
<g id="node2" class="node"><title>n7745</title>
<ellipse fill="none" stroke="lightgray" cx="337.497" cy="-225" rx="27" ry="18"/>
<text text-anchor="middle" x="337.497" y="-221.3" font-family="Times New Roman,serif" font-size="14.00" fill="lightgray">wa</text>
</g>
<!-- n7742&#45;&gt;n7745 -->
<g id="edge1" class="edge"><title>n7742&#45;&gt;n7745</title>
<path fill="none" stroke="lightgray" d="M177.987,-285.261C209.898,-273.129 267.783,-251.123 304.073,-237.327"/>
<polygon fill="lightgray" stroke="lightgray" points="305.593,-240.493 313.697,-233.668 303.106,-233.95 305.593,-240.493"/>
<text text-anchor="middle" x="243" y="-278.8" font-family="Times New Roman,serif" font-size="14.00" fill="lightgray">wff ph</text>
</g>
<!-- n7744 -->
<g id="node4" class="node"><title>n7744</title>
<ellipse fill="none" stroke="lightgray" cx="154" cy="-222" rx="27" ry="18"/>
<text text-anchor="middle" x="154" y="-218.3" font-family="Times New Roman,serif" font-size="14.00" fill="lightgray">wn</text>
</g>
<!-- n7742&#45;&gt;n7744 -->
<g id="edge5" class="edge"><title>n7742&#45;&gt;n7744</title>
</g>
<!-- n7753 -->
<g id="node5" class="node"><title>n7753</title>
<ellipse fill="cyan" stroke="black" cx="641.741" cy="-153" rx="35.9954" ry="18"/>
<text text-anchor="middle" x="641.741" y="-149.3" font-family="Times New Roman,serif" font-size="14.00">bicomi</text>
</g>
<!-- n7745&#45;&gt;n7753 -->
<g id="edge4" class="edge"><title>n7745&#45;&gt;n7753</title>
<path fill="none" stroke="lightgray" d="M363.92,-220.783C409.355,-212.986 507.291,-194.991 587.994,-172 593.014,-170.57 598.245,-168.905 603.379,-167.167"/>
<polygon fill="lightgray" stroke="lightgray" points="604.772,-170.388 613.051,-163.776 602.456,-163.782 604.772,-170.388"/>
<text text-anchor="middle" x="487.994" y="-220.8" font-family="Times New Roman,serif" font-size="14.00" fill="lightgray">wff ( ph / &#45;. ps )</text>
</g>
<!-- n7749 -->
<g id="node9" class="node"><title>n7749</title>
<ellipse fill="none" stroke="lightgray" cx="337.497" cy="-153" rx="27" ry="18"/>
<text text-anchor="middle" x="337.497" y="-149.3" font-family="Times New Roman,serif" font-size="14.00" fill="lightgray">wn</text>
</g>
<!-- n7745&#45;&gt;n7749 -->
<g id="edge16" class="edge"><title>n7745&#45;&gt;n7749</title>
</g>
<!-- n7743 -->
<g id="node3" class="node"><title>n7743</title>
<ellipse fill="none" stroke="lightgray" cx="27" cy="-222" rx="27" ry="18"/>
<text text-anchor="middle" x="27" y="-218.3" font-family="Times New Roman,serif" font-size="14.00" fill="lightgray">wps</text>
</g>
<!-- n7743&#45;&gt;n7744 -->
<g id="edge2" class="edge"><title>n7743&#45;&gt;n7744</title>
<path fill="none" stroke="lightgray" d="M54.2041,-222C72.3711,-222 96.7994,-222 116.82,-222"/>
<polygon fill="lightgray" stroke="lightgray" points="116.83,-225.5 126.83,-222 116.83,-218.5 116.83,-225.5"/>
<text text-anchor="middle" x="90.5" y="-225.8" font-family="Times New Roman,serif" font-size="14.00" fill="lightgray">wff ps</text>
</g>
<!-- n7744&#45;&gt;n7745 -->
<g id="edge3" class="edge"><title>n7744&#45;&gt;n7745</title>
<path fill="none" stroke="lightgray" d="M181.004,-222.43C212.183,-222.945 264.639,-223.812 299.899,-224.395"/>
<polygon fill="lightgray" stroke="lightgray" points="300.19,-227.9 310.247,-224.566 300.306,-220.901 300.19,-227.9"/>
<text text-anchor="middle" x="243" y="-227.8" font-family="Times New Roman,serif" font-size="14.00" fill="lightgray">wff &#45;. ps</text>
</g>
<!-- QED -->
<g id="node13" class="node"><title>QED</title>
</g>
<!-- n7753&#45;&gt;QED -->
<g id="edge15" class="edge"><title>n7753&#45;&gt;QED</title>
<path fill="none" stroke="black" d="M677.625,-153C733.892,-153 844.296,-153 902.956,-153"/>
<polygon fill="black" stroke="black" points="903.282,-156.5 913.282,-153 903.282,-149.5 903.282,-156.5"/>
<text text-anchor="middle" x="795.488" y="-156.8" font-family="Times New Roman,serif" font-size="14.00">|&#45; ( &#45;. ( ph &#45;&gt; ps ) &lt;&#45;&gt; ( ph / &#45;. ps ) )</text>
</g>
<!-- n7746 -->
<g id="node6" class="node"><title>n7746</title>
<ellipse fill="none" stroke="lightgray" cx="27" cy="-163" rx="27" ry="18"/>
<text text-anchor="middle" x="27" y="-159.3" font-family="Times New Roman,serif" font-size="14.00" fill="lightgray">wph</text>
</g>
<!-- n7748 -->
<g id="node7" class="node"><title>n7748</title>
<ellipse fill="none" stroke="lightgray" cx="154" cy="-153" rx="27" ry="18"/>
<text text-anchor="middle" x="154" y="-149.3" font-family="Times New Roman,serif" font-size="14.00" fill="lightgray">wi</text>
</g>
<!-- n7746&#45;&gt;n7748 -->
<g id="edge6" class="edge"><title>n7746&#45;&gt;n7748</title>
<path fill="none" stroke="lightgray" d="M53.9001,-160.928C72.1687,-159.467 96.8789,-157.49 117.054,-155.876"/>
<polygon fill="lightgray" stroke="lightgray" points="117.444,-159.356 127.133,-155.069 116.886,-152.378 117.444,-159.356"/>
<text text-anchor="middle" x="90.5" y="-163.8" font-family="Times New Roman,serif" font-size="14.00" fill="lightgray">wff ph</text>
</g>
<!-- n7747 -->
<g id="node8" class="node"><title>n7747</title>
<ellipse fill="none" stroke="lightgray" cx="27" cy="-91" rx="27" ry="18"/>
<text text-anchor="middle" x="27" y="-87.3" font-family="Times New Roman,serif" font-size="14.00" fill="lightgray">wps</text>
</g>
<!-- n7746&#45;&gt;n7747 -->
<g id="edge9" class="edge"><title>n7746&#45;&gt;n7747</title>
</g>
<!-- n7748&#45;&gt;n7749 -->
<g id="edge8" class="edge"><title>n7748&#45;&gt;n7749</title>
<path fill="none" stroke="lightgray" d="M181.004,-153C212.183,-153 264.639,-153 299.899,-153"/>
<polygon fill="lightgray" stroke="lightgray" points="300.247,-156.5 310.247,-153 300.247,-149.5 300.247,-156.5"/>
<text text-anchor="middle" x="243" y="-156.8" font-family="Times New Roman,serif" font-size="14.00" fill="lightgray">wff ( ph &#45;&gt; ps )</text>
</g>
<!-- n7747&#45;&gt;n7748 -->
<g id="edge7" class="edge"><title>n7747&#45;&gt;n7748</title>
<path fill="none" stroke="lightgray" d="M49.2045,-101.517C69.3173,-111.493 99.757,-126.591 122.479,-137.861"/>
<polygon fill="lightgray" stroke="lightgray" points="121.178,-141.123 131.691,-142.431 124.288,-134.852 121.178,-141.123"/>
<text text-anchor="middle" x="90.5" y="-135.8" font-family="Times New Roman,serif" font-size="14.00" fill="lightgray">wff ps</text>
</g>
<!-- n7749&#45;&gt;n7753 -->
<g id="edge10" class="edge"><title>n7749&#45;&gt;n7753</title>
<path fill="none" stroke="lightgray" d="M364.528,-153C416.071,-153 531.665,-153 595.772,-153"/>
<polygon fill="lightgray" stroke="lightgray" points="595.98,-156.5 605.98,-153 595.98,-149.5 595.98,-156.5"/>
<text text-anchor="middle" x="487.994" y="-156.8" font-family="Times New Roman,serif" font-size="14.00" fill="lightgray">wff &#45;. ( ph &#45;&gt; ps )</text>
</g>
<!-- n7752 -->
<g id="node11" class="node"><title>n7752</title>
<ellipse fill="cyan" stroke="black" cx="337.497" cy="-81" rx="32.4942" ry="18"/>
<text text-anchor="middle" x="337.497" y="-77.3" font-family="Times New Roman,serif" font-size="14.00">annim</text>
</g>
<!-- n7749&#45;&gt;n7752 -->
<g id="edge17" class="edge"><title>n7749&#45;&gt;n7752</title>
</g>
<!-- n7750 -->
<g id="node10" class="node"><title>n7750</title>
<ellipse fill="none" stroke="lightgray" cx="154" cy="-90" rx="27" ry="18"/>
<text text-anchor="middle" x="154" y="-86.3" font-family="Times New Roman,serif" font-size="14.00" fill="lightgray">wph</text>
</g>
<!-- n7750&#45;&gt;n7752 -->
<g id="edge11" class="edge"><title>n7750&#45;&gt;n7752</title>
<path fill="none" stroke="lightgray" d="M181.004,-88.7105C210.673,-87.2393 259.607,-84.8128 294.659,-83.0747"/>
<polygon fill="lightgray" stroke="lightgray" points="295.24,-86.5502 305.054,-82.5592 294.893,-79.5588 295.24,-86.5502"/>
<text text-anchor="middle" x="243" y="-91.8" font-family="Times New Roman,serif" font-size="14.00" fill="lightgray">wff ph</text>
</g>
<!-- n7751 -->
<g id="node12" class="node"><title>n7751</title>
<ellipse fill="none" stroke="lightgray" cx="154" cy="-18" rx="27" ry="18"/>
<text text-anchor="middle" x="154" y="-14.3" font-family="Times New Roman,serif" font-size="14.00" fill="lightgray">wps</text>
</g>
<!-- n7750&#45;&gt;n7751 -->
<g id="edge14" class="edge"><title>n7750&#45;&gt;n7751</title>
</g>
<!-- n7752&#45;&gt;n7753 -->
<g id="edge13" class="edge"><title>n7752&#45;&gt;n7753</title>
<path fill="none" stroke="black" d="M368.778,-86.055C416.053,-94.2547 510.059,-111.798 587.994,-134 593.014,-135.43 598.245,-137.095 603.379,-138.833"/>
<polygon fill="black" stroke="black" points="602.456,-142.218 613.051,-142.224 604.772,-135.612 602.456,-142.218"/>
<text text-anchor="middle" x="487.994" y="-137.8" font-family="Times New Roman,serif" font-size="14.00">|&#45; ( ( ph / &#45;. ps ) &lt;&#45;&gt; &#45;. ( ph &#45;&gt; ps ) )</text>
</g>
<!-- n7751&#45;&gt;n7752 -->
<g id="edge12" class="edge"><title>n7751&#45;&gt;n7752</title>
<path fill="none" stroke="lightgray" d="M178.356,-26.1072C209.073,-36.7695 263.391,-55.6238 299.669,-68.2166"/>
<polygon fill="lightgray" stroke="lightgray" points="298.794,-71.6176 309.389,-71.5903 301.089,-65.0046 298.794,-71.6176"/>
<text text-anchor="middle" x="243" y="-68.8" font-family="Times New Roman,serif" font-size="14.00" fill="lightgray">wff ps</text>
</g>
</g>
</svg>
