<?xml version="1.0" encoding="UTF-8" standalone="no"?>
<!DOCTYPE svg PUBLIC "-//W3C//DTD SVG 1.1//EN"
 "http://www.w3.org/Graphics/SVG/1.1/DTD/svg11.dtd">
<!-- Generated by graphviz version 2.38.0 (20140413.2041)
 -->
<!-- Title: proof_pm4_53 Pages: 1 -->
<svg width="1297pt" height="548pt"
 viewBox="0.00 0.00 1297.07 548.00" xmlns="http://www.w3.org/2000/svg" xmlns:xlink="http://www.w3.org/1999/xlink">
<g id="graph0" class="graph" transform="scale(1 1) rotate(0) translate(4 544)">
<title>proof_pm4_53</title>
<polygon fill="white" stroke="none" points="-4,4 -4,-544 1293.07,-544 1293.07,4 -4,4"/>
<!-- n8501 -->
<g id="node1" class="node"><title>n8501</title>
<ellipse fill="none" stroke="lightgray" cx="154" cy="-522" rx="27" ry="18"/>
<text text-anchor="middle" x="154" y="-518.3" font-family="Times New Roman,serif" font-size="14.00" fill="lightgray">wph</text>
</g>
<!-- n8502 -->
<g id="node2" class="node"><title>n8502</title>
<ellipse fill="none" stroke="lightgray" cx="304.347" cy="-522" rx="27" ry="18"/>
<text text-anchor="middle" x="304.347" y="-518.3" font-family="Times New Roman,serif" font-size="14.00" fill="lightgray">wn</text>
</g>
<!-- n8501&#45;&gt;n8502 -->
<g id="edge1" class="edge"><title>n8501&#45;&gt;n8502</title>
<path fill="none" stroke="lightgray" d="M181.18,-522C204.972,-522 240.308,-522 266.865,-522"/>
<polygon fill="lightgray" stroke="lightgray" points="266.929,-525.5 276.929,-522 266.929,-518.5 266.929,-525.5"/>
<text text-anchor="middle" x="223.5" y="-525.8" font-family="Times New Roman,serif" font-size="14.00" fill="lightgray">wff ph</text>
</g>
<!-- n8504 -->
<g id="node3" class="node"><title>n8504</title>
<ellipse fill="none" stroke="lightgray" cx="627.39" cy="-450" rx="27" ry="18"/>
<text text-anchor="middle" x="627.39" y="-446.3" font-family="Times New Roman,serif" font-size="14.00" fill="lightgray">wo</text>
</g>
<!-- n8502&#45;&gt;n8504 -->
<g id="edge2" class="edge"><title>n8502&#45;&gt;n8504</title>
<path fill="none" stroke="lightgray" d="M330.958,-518.112C378.749,-510.59 484.567,-492.68 571.693,-469 578.963,-467.024 586.663,-464.577 593.919,-462.104"/>
<polygon fill="lightgray" stroke="lightgray" points="595.179,-465.371 603.456,-458.757 592.861,-458.766 595.179,-465.371"/>
<text text-anchor="middle" x="466.193" y="-516.8" font-family="Times New Roman,serif" font-size="14.00" fill="lightgray">wff &#45;. ph</text>
</g>
<!-- n8503 -->
<g id="node4" class="node"><title>n8503</title>
<ellipse fill="none" stroke="lightgray" cx="304.347" cy="-450" rx="27" ry="18"/>
<text text-anchor="middle" x="304.347" y="-446.3" font-family="Times New Roman,serif" font-size="14.00" fill="lightgray">wps</text>
</g>
<!-- n8502&#45;&gt;n8503 -->
<g id="edge5" class="edge"><title>n8502&#45;&gt;n8503</title>
</g>
<!-- n8522 -->
<g id="node5" class="node"><title>n8522</title>
<ellipse fill="cyan" stroke="black" cx="947.833" cy="-378" rx="35.9954" ry="18"/>
<text text-anchor="middle" x="947.833" y="-374.3" font-family="Times New Roman,serif" font-size="14.00">bicomi</text>
</g>
<!-- n8504&#45;&gt;n8522 -->
<g id="edge4" class="edge"><title>n8504&#45;&gt;n8522</title>
<path fill="none" stroke="lightgray" d="M653.964,-446.199C701.68,-438.822 807.306,-421.14 894.087,-397 899.115,-395.601 904.351,-393.955 909.488,-392.226"/>
<polygon fill="lightgray" stroke="lightgray" points="910.878,-395.448 919.161,-388.842 908.567,-388.84 910.878,-395.448"/>
<text text-anchor="middle" x="788.587" y="-445.8" font-family="Times New Roman,serif" font-size="14.00" fill="lightgray">wff ( &#45;. ph \/ ps )</text>
</g>
<!-- n8509 -->
<g id="node10" class="node"><title>n8509</title>
<ellipse fill="none" stroke="lightgray" cx="627.39" cy="-378" rx="27" ry="18"/>
<text text-anchor="middle" x="627.39" y="-374.3" font-family="Times New Roman,serif" font-size="14.00" fill="lightgray">wn</text>
</g>
<!-- n8504&#45;&gt;n8509 -->
<g id="edge30" class="edge"><title>n8504&#45;&gt;n8509</title>
</g>
<!-- n8503&#45;&gt;n8504 -->
<g id="edge3" class="edge"><title>n8503&#45;&gt;n8504</title>
<path fill="none" stroke="lightgray" d="M331.347,-450C388.333,-450 524.362,-450 589.885,-450"/>
<polygon fill="lightgray" stroke="lightgray" points="590.147,-453.5 600.147,-450 590.147,-446.5 590.147,-453.5"/>
<text text-anchor="middle" x="466.193" y="-453.8" font-family="Times New Roman,serif" font-size="14.00" fill="lightgray">wff ps</text>
</g>
<!-- QED -->
<g id="node23" class="node"><title>QED</title>
</g>
<!-- n8522&#45;&gt;QED -->
<g id="edge29" class="edge"><title>n8522&#45;&gt;QED</title>
<path fill="none" stroke="black" d="M983.791,-378C1042.2,-378 1159.19,-378 1220.05,-378"/>
<polygon fill="black" stroke="black" points="1220.38,-381.5 1230.38,-378 1220.38,-374.5 1220.38,-381.5"/>
<text text-anchor="middle" x="1107.08" y="-381.8" font-family="Times New Roman,serif" font-size="14.00">|&#45; ( &#45;. ( ph /\ &#45;. ps ) &lt;&#45;&gt; ( &#45;. ph \/ ps ) )</text>
</g>
<!-- n8505 -->
<g id="node6" class="node"><title>n8505</title>
<ellipse fill="none" stroke="lightgray" cx="154" cy="-468" rx="27" ry="18"/>
<text text-anchor="middle" x="154" y="-464.3" font-family="Times New Roman,serif" font-size="14.00" fill="lightgray">wph</text>
</g>
<!-- n8508 -->
<g id="node7" class="node"><title>n8508</title>
<ellipse fill="none" stroke="lightgray" cx="304.347" cy="-396" rx="27" ry="18"/>
<text text-anchor="middle" x="304.347" y="-392.3" font-family="Times New Roman,serif" font-size="14.00" fill="lightgray">wa</text>
</g>
<!-- n8505&#45;&gt;n8508 -->
<g id="edge6" class="edge"><title>n8505&#45;&gt;n8508</title>
<path fill="none" stroke="lightgray" d="M176.254,-457.684C201.591,-445.387 244.117,-424.747 272.93,-410.763"/>
<polygon fill="lightgray" stroke="lightgray" points="274.663,-413.812 282.132,-406.297 271.607,-407.514 274.663,-413.812"/>
<text text-anchor="middle" x="223.5" y="-448.8" font-family="Times New Roman,serif" font-size="14.00" fill="lightgray">wff ph</text>
</g>
<!-- n8507 -->
<g id="node9" class="node"><title>n8507</title>
<ellipse fill="none" stroke="lightgray" cx="154" cy="-396" rx="27" ry="18"/>
<text text-anchor="middle" x="154" y="-392.3" font-family="Times New Roman,serif" font-size="14.00" fill="lightgray">wn</text>
</g>
<!-- n8505&#45;&gt;n8507 -->
<g id="edge10" class="edge"><title>n8505&#45;&gt;n8507</title>
</g>
<!-- n8508&#45;&gt;n8509 -->
<g id="edge9" class="edge"><title>n8508&#45;&gt;n8509</title>
<path fill="none" stroke="lightgray" d="M331.347,-394.542C388.333,-391.347 524.362,-383.72 589.885,-380.047"/>
<polygon fill="lightgray" stroke="lightgray" points="590.358,-383.526 600.147,-379.471 589.967,-376.537 590.358,-383.526"/>
<text text-anchor="middle" x="466.193" y="-396.8" font-family="Times New Roman,serif" font-size="14.00" fill="lightgray">wff ( ph /\ &#45;. ps )</text>
</g>
<!-- n8506 -->
<g id="node8" class="node"><title>n8506</title>
<ellipse fill="none" stroke="lightgray" cx="27" cy="-396" rx="27" ry="18"/>
<text text-anchor="middle" x="27" y="-392.3" font-family="Times New Roman,serif" font-size="14.00" fill="lightgray">wps</text>
</g>
<!-- n8506&#45;&gt;n8507 -->
<g id="edge7" class="edge"><title>n8506&#45;&gt;n8507</title>
<path fill="none" stroke="lightgray" d="M54.2041,-396C72.3711,-396 96.7994,-396 116.82,-396"/>
<polygon fill="lightgray" stroke="lightgray" points="116.83,-399.5 126.83,-396 116.83,-392.5 116.83,-399.5"/>
<text text-anchor="middle" x="90.5" y="-399.8" font-family="Times New Roman,serif" font-size="14.00" fill="lightgray">wff ps</text>
</g>
<!-- n8507&#45;&gt;n8508 -->
<g id="edge8" class="edge"><title>n8507&#45;&gt;n8508</title>
<path fill="none" stroke="lightgray" d="M181.18,-396C204.972,-396 240.308,-396 266.865,-396"/>
<polygon fill="lightgray" stroke="lightgray" points="266.929,-399.5 276.929,-396 266.929,-392.5 266.929,-399.5"/>
<text text-anchor="middle" x="223.5" y="-399.8" font-family="Times New Roman,serif" font-size="14.00" fill="lightgray">wff &#45;. ps</text>
</g>
<!-- n8509&#45;&gt;n8522 -->
<g id="edge11" class="edge"><title>n8509&#45;&gt;n8522</title>
<path fill="none" stroke="lightgray" d="M654.449,-378C708.593,-378 833.832,-378 901.498,-378"/>
<polygon fill="lightgray" stroke="lightgray" points="901.843,-381.5 911.843,-378 901.843,-374.5 901.843,-381.5"/>
<text text-anchor="middle" x="788.587" y="-381.8" font-family="Times New Roman,serif" font-size="14.00" fill="lightgray">wff &#45;. ( ph /\ &#45;. ps )</text>
</g>
<!-- n8521 -->
<g id="node15" class="node"><title>n8521</title>
<ellipse fill="cyan" stroke="black" cx="627.39" cy="-282" rx="37.8943" ry="18"/>
<text text-anchor="middle" x="627.39" y="-278.3" font-family="Times New Roman,serif" font-size="14.00">con2bii</text>
</g>
<!-- n8509&#45;&gt;n8521 -->
<g id="edge31" class="edge"><title>n8509&#45;&gt;n8521</title>
</g>
<!-- n8510 -->
<g id="node11" class="node"><title>n8510</title>
<ellipse fill="none" stroke="lightgray" cx="27" cy="-342" rx="27" ry="18"/>
<text text-anchor="middle" x="27" y="-338.3" font-family="Times New Roman,serif" font-size="14.00" fill="lightgray">wps</text>
</g>
<!-- n8511 -->
<g id="node12" class="node"><title>n8511</title>
<ellipse fill="none" stroke="lightgray" cx="154" cy="-342" rx="27" ry="18"/>
<text text-anchor="middle" x="154" y="-338.3" font-family="Times New Roman,serif" font-size="14.00" fill="lightgray">wn</text>
</g>
<!-- n8510&#45;&gt;n8511 -->
<g id="edge12" class="edge"><title>n8510&#45;&gt;n8511</title>
<path fill="none" stroke="lightgray" d="M54.2041,-342C72.3711,-342 96.7994,-342 116.82,-342"/>
<polygon fill="lightgray" stroke="lightgray" points="116.83,-345.5 126.83,-342 116.83,-338.5 116.83,-345.5"/>
<text text-anchor="middle" x="90.5" y="-345.8" font-family="Times New Roman,serif" font-size="14.00" fill="lightgray">wff ps</text>
</g>
<!-- n8513 -->
<g id="node13" class="node"><title>n8513</title>
<ellipse fill="none" stroke="lightgray" cx="304.347" cy="-282" rx="27" ry="18"/>
<text text-anchor="middle" x="304.347" y="-278.3" font-family="Times New Roman,serif" font-size="14.00" fill="lightgray">wa</text>
</g>
<!-- n8511&#45;&gt;n8513 -->
<g id="edge13" class="edge"><title>n8511&#45;&gt;n8513</title>
<path fill="none" stroke="lightgray" d="M177.531,-332.887C202.472,-322.799 242.88,-306.456 271.154,-295.02"/>
<polygon fill="lightgray" stroke="lightgray" points="272.646,-298.193 280.604,-291.198 270.021,-291.703 272.646,-298.193"/>
<text text-anchor="middle" x="223.5" y="-326.8" font-family="Times New Roman,serif" font-size="14.00" fill="lightgray">wff &#45;. ps</text>
</g>
<!-- n8512 -->
<g id="node14" class="node"><title>n8512</title>
<ellipse fill="none" stroke="lightgray" cx="154" cy="-270" rx="27" ry="18"/>
<text text-anchor="middle" x="154" y="-266.3" font-family="Times New Roman,serif" font-size="14.00" fill="lightgray">wph</text>
</g>
<!-- n8511&#45;&gt;n8512 -->
<g id="edge16" class="edge"><title>n8511&#45;&gt;n8512</title>
</g>
<!-- n8513&#45;&gt;n8521 -->
<g id="edge15" class="edge"><title>n8513&#45;&gt;n8521</title>
<path fill="none" stroke="lightgray" d="M331.347,-282C385.444,-282 510.774,-282 579.397,-282"/>
<polygon fill="lightgray" stroke="lightgray" points="579.499,-285.5 589.499,-282 579.499,-278.5 579.499,-285.5"/>
<text text-anchor="middle" x="466.193" y="-285.8" font-family="Times New Roman,serif" font-size="14.00" fill="lightgray">wff ( ph /\ &#45;. ps )</text>
</g>
<!-- n8517 -->
<g id="node17" class="node"><title>n8517</title>
<ellipse fill="none" stroke="lightgray" cx="304.347" cy="-210" rx="27" ry="18"/>
<text text-anchor="middle" x="304.347" y="-206.3" font-family="Times New Roman,serif" font-size="14.00" fill="lightgray">wo</text>
</g>
<!-- n8513&#45;&gt;n8517 -->
<g id="edge27" class="edge"><title>n8513&#45;&gt;n8517</title>
</g>
<!-- n8512&#45;&gt;n8513 -->
<g id="edge14" class="edge"><title>n8512&#45;&gt;n8513</title>
<path fill="none" stroke="lightgray" d="M180.84,-272.09C204.731,-274.023 240.47,-276.914 267.19,-279.075"/>
<polygon fill="lightgray" stroke="lightgray" points="267.055,-282.576 277.305,-279.893 267.62,-275.598 267.055,-282.576"/>
<text text-anchor="middle" x="223.5" y="-281.8" font-family="Times New Roman,serif" font-size="14.00" fill="lightgray">wff ph</text>
</g>
<!-- n8521&#45;&gt;n8522 -->
<g id="edge26" class="edge"><title>n8521&#45;&gt;n8522</title>
<path fill="none" stroke="black" d="M660.903,-290.704C711.187,-304.327 810.722,-331.936 894.087,-359 898.995,-360.593 904.132,-362.342 909.193,-364.112"/>
<polygon fill="black" stroke="black" points="908.157,-367.459 918.752,-367.51 910.502,-360.863 908.157,-367.459"/>
<text text-anchor="middle" x="788.587" y="-362.8" font-family="Times New Roman,serif" font-size="14.00">|&#45; ( ( &#45;. ph \/ ps ) &lt;&#45;&gt; &#45;. ( ph /\ &#45;. ps ) )</text>
</g>
<!-- n8514 -->
<g id="node16" class="node"><title>n8514</title>
<ellipse fill="none" stroke="lightgray" cx="154" cy="-216" rx="27" ry="18"/>
<text text-anchor="middle" x="154" y="-212.3" font-family="Times New Roman,serif" font-size="14.00" fill="lightgray">wps</text>
</g>
<!-- n8514&#45;&gt;n8517 -->
<g id="edge17" class="edge"><title>n8514&#45;&gt;n8517</title>
<path fill="none" stroke="lightgray" d="M181.18,-214.941C204.972,-213.979 240.308,-212.55 266.865,-211.476"/>
<polygon fill="lightgray" stroke="lightgray" points="267.079,-214.97 276.929,-211.068 266.796,-207.976 267.079,-214.97"/>
<text text-anchor="middle" x="223.5" y="-218.8" font-family="Times New Roman,serif" font-size="14.00" fill="lightgray">wff ps</text>
</g>
<!-- n8516 -->
<g id="node19" class="node"><title>n8516</title>
<ellipse fill="none" stroke="lightgray" cx="154" cy="-144" rx="27" ry="18"/>
<text text-anchor="middle" x="154" y="-140.3" font-family="Times New Roman,serif" font-size="14.00" fill="lightgray">wn</text>
</g>
<!-- n8514&#45;&gt;n8516 -->
<g id="edge21" class="edge"><title>n8514&#45;&gt;n8516</title>
</g>
<!-- n8517&#45;&gt;n8521 -->
<g id="edge20" class="edge"><title>n8517&#45;&gt;n8521</title>
<path fill="none" stroke="lightgray" d="M330.958,-213.888C378.749,-221.41 484.567,-239.32 571.693,-263 576.968,-264.434 582.47,-266.115 587.864,-267.875"/>
<polygon fill="lightgray" stroke="lightgray" points="586.791,-271.207 597.385,-271.091 589.03,-264.575 586.791,-271.207"/>
<text text-anchor="middle" x="466.193" y="-266.8" font-family="Times New Roman,serif" font-size="14.00" fill="lightgray">wff ( &#45;. ph \/ ps )</text>
</g>
<!-- n8520 -->
<g id="node21" class="node"><title>n8520</title>
<ellipse fill="cyan" stroke="black" cx="304.347" cy="-106" rx="38.1938" ry="18"/>
<text text-anchor="middle" x="304.347" y="-102.3" font-family="Times New Roman,serif" font-size="14.00">pm4.52</text>
</g>
<!-- n8517&#45;&gt;n8520 -->
<g id="edge28" class="edge"><title>n8517&#45;&gt;n8520</title>
</g>
<!-- n8515 -->
<g id="node18" class="node"><title>n8515</title>
<ellipse fill="none" stroke="lightgray" cx="27" cy="-144" rx="27" ry="18"/>
<text text-anchor="middle" x="27" y="-140.3" font-family="Times New Roman,serif" font-size="14.00" fill="lightgray">wph</text>
</g>
<!-- n8515&#45;&gt;n8516 -->
<g id="edge18" class="edge"><title>n8515&#45;&gt;n8516</title>
<path fill="none" stroke="lightgray" d="M54.2041,-144C72.3711,-144 96.7994,-144 116.82,-144"/>
<polygon fill="lightgray" stroke="lightgray" points="116.83,-147.5 126.83,-144 116.83,-140.5 116.83,-147.5"/>
<text text-anchor="middle" x="90.5" y="-147.8" font-family="Times New Roman,serif" font-size="14.00" fill="lightgray">wff ph</text>
</g>
<!-- n8516&#45;&gt;n8517 -->
<g id="edge19" class="edge"><title>n8516&#45;&gt;n8517</title>
<path fill="none" stroke="lightgray" d="M176.889,-153.739C202.088,-164.95 243.667,-183.448 272.225,-196.154"/>
<polygon fill="lightgray" stroke="lightgray" points="270.808,-199.354 281.368,-200.222 273.654,-192.959 270.808,-199.354"/>
<text text-anchor="middle" x="223.5" y="-188.8" font-family="Times New Roman,serif" font-size="14.00" fill="lightgray">wff &#45;. ph</text>
</g>
<!-- n8518 -->
<g id="node20" class="node"><title>n8518</title>
<ellipse fill="none" stroke="lightgray" cx="154" cy="-90" rx="27" ry="18"/>
<text text-anchor="middle" x="154" y="-86.3" font-family="Times New Roman,serif" font-size="14.00" fill="lightgray">wph</text>
</g>
<!-- n8518&#45;&gt;n8520 -->
<g id="edge22" class="edge"><title>n8518&#45;&gt;n8520</title>
<path fill="none" stroke="lightgray" d="M180.84,-92.787C201.707,-95.0376 231.612,-98.2631 256.652,-100.964"/>
<polygon fill="lightgray" stroke="lightgray" points="256.371,-104.454 266.689,-102.046 257.122,-97.494 256.371,-104.454"/>
<text text-anchor="middle" x="223.5" y="-103.8" font-family="Times New Roman,serif" font-size="14.00" fill="lightgray">wff ph</text>
</g>
<!-- n8519 -->
<g id="node22" class="node"><title>n8519</title>
<ellipse fill="none" stroke="lightgray" cx="154" cy="-18" rx="27" ry="18"/>
<text text-anchor="middle" x="154" y="-14.3" font-family="Times New Roman,serif" font-size="14.00" fill="lightgray">wps</text>
</g>
<!-- n8518&#45;&gt;n8519 -->
<g id="edge25" class="edge"><title>n8518&#45;&gt;n8519</title>
</g>
<!-- n8520&#45;&gt;n8521 -->
<g id="edge24" class="edge"><title>n8520&#45;&gt;n8521</title>
<path fill="none" stroke="black" d="M341.098,-111.416C395.681,-121.187 500.898,-146.085 571.693,-201 590.133,-215.303 604.546,-237.616 613.937,-255.205"/>
<polygon fill="black" stroke="black" points="610.97,-257.091 618.632,-264.409 617.206,-253.911 610.97,-257.091"/>
<text text-anchor="middle" x="466.193" y="-204.8" font-family="Times New Roman,serif" font-size="14.00">|&#45; ( ( ph /\ &#45;. ps ) &lt;&#45;&gt; &#45;. ( &#45;. ph \/ ps ) )</text>
</g>
<!-- n8519&#45;&gt;n8520 -->
<g id="edge23" class="edge"><title>n8519&#45;&gt;n8520</title>
<path fill="none" stroke="lightgray" d="M174.699,-29.6857C199.341,-44.3035 241.86,-69.5261 271.234,-86.9507"/>
<polygon fill="lightgray" stroke="lightgray" points="269.507,-89.9959 279.894,-92.0876 273.079,-83.9754 269.507,-89.9959"/>
<text text-anchor="middle" x="223.5" y="-76.8" font-family="Times New Roman,serif" font-size="14.00" fill="lightgray">wff ps</text>
</g>
</g>
</svg>
