<?xml version="1.0" encoding="UTF-8" standalone="no"?>
<!DOCTYPE svg PUBLIC "-//W3C//DTD SVG 1.1//EN"
 "http://www.w3.org/Graphics/SVG/1.1/DTD/svg11.dtd">
<!-- Generated by graphviz version 2.38.0 (20140413.2041)
 -->
<!-- Title: proof_pm4_56 Pages: 1 -->
<svg width="988pt" height="368pt"
 viewBox="0.00 0.00 988.18 368.00" xmlns="http://www.w3.org/2000/svg" xmlns:xlink="http://www.w3.org/1999/xlink">
<g id="graph0" class="graph" transform="scale(1 1) rotate(0) translate(4 364)">
<title>proof_pm4_56</title>
<polygon fill="white" stroke="none" points="-4,4 -4,-364 984.183,-364 984.183,4 -4,4"/>
<!-- n8566 -->
<g id="node1" class="node"><title>n8566</title>
<ellipse fill="none" stroke="lightgray" cx="27" cy="-342" rx="27" ry="18"/>
<text text-anchor="middle" x="27" y="-338.3" font-family="Times New Roman,serif" font-size="14.00" fill="lightgray">wph</text>
</g>
<!-- n8568 -->
<g id="node2" class="node"><title>n8568</title>
<ellipse fill="none" stroke="lightgray" cx="154" cy="-270" rx="27" ry="18"/>
<text text-anchor="middle" x="154" y="-266.3" font-family="Times New Roman,serif" font-size="14.00" fill="lightgray">wo</text>
</g>
<!-- n8566&#45;&gt;n8568 -->
<g id="edge1" class="edge"><title>n8566&#45;&gt;n8568</title>
<path fill="none" stroke="lightgray" d="M48.0834,-330.432C68.6762,-318.571 100.901,-300.009 124.206,-286.586"/>
<polygon fill="lightgray" stroke="lightgray" points="126.048,-289.563 132.966,-281.539 122.554,-283.498 126.048,-289.563"/>
<text text-anchor="middle" x="90.5" y="-319.8" font-family="Times New Roman,serif" font-size="14.00" fill="lightgray">wff ph</text>
</g>
<!-- n8567 -->
<g id="node3" class="node"><title>n8567</title>
<ellipse fill="none" stroke="lightgray" cx="27" cy="-270" rx="27" ry="18"/>
<text text-anchor="middle" x="27" y="-266.3" font-family="Times New Roman,serif" font-size="14.00" fill="lightgray">wps</text>
</g>
<!-- n8566&#45;&gt;n8567 -->
<g id="edge4" class="edge"><title>n8566&#45;&gt;n8567</title>
</g>
<!-- n8569 -->
<g id="node4" class="node"><title>n8569</title>
<ellipse fill="none" stroke="lightgray" cx="327.597" cy="-234" rx="27" ry="18"/>
<text text-anchor="middle" x="327.597" y="-230.3" font-family="Times New Roman,serif" font-size="14.00" fill="lightgray">wn</text>
</g>
<!-- n8568&#45;&gt;n8569 -->
<g id="edge3" class="edge"><title>n8568&#45;&gt;n8569</title>
<path fill="none" stroke="lightgray" d="M179.952,-264.765C209.308,-258.606 258.245,-248.34 291.437,-241.376"/>
<polygon fill="lightgray" stroke="lightgray" points="292.547,-244.72 301.616,-239.241 291.11,-237.869 292.547,-244.72"/>
<text text-anchor="middle" x="240" y="-264.8" font-family="Times New Roman,serif" font-size="14.00" fill="lightgray">wff ( ph \/ ps )</text>
</g>
<!-- n8567&#45;&gt;n8568 -->
<g id="edge2" class="edge"><title>n8567&#45;&gt;n8568</title>
<path fill="none" stroke="lightgray" d="M54.2041,-270C72.3711,-270 96.7994,-270 116.82,-270"/>
<polygon fill="lightgray" stroke="lightgray" points="116.83,-273.5 126.83,-270 116.83,-266.5 116.83,-273.5"/>
<text text-anchor="middle" x="90.5" y="-273.8" font-family="Times New Roman,serif" font-size="14.00" fill="lightgray">wff ps</text>
</g>
<!-- n8578 -->
<g id="node5" class="node"><title>n8578</title>
<ellipse fill="cyan" stroke="black" cx="638.942" cy="-162" rx="35.9954" ry="18"/>
<text text-anchor="middle" x="638.942" y="-158.3" font-family="Times New Roman,serif" font-size="14.00">bicomi</text>
</g>
<!-- n8569&#45;&gt;n8578 -->
<g id="edge5" class="edge"><title>n8569&#45;&gt;n8578</title>
<path fill="none" stroke="lightgray" d="M354.015,-229.983C400.425,-222.378 501.789,-204.507 585.195,-181 590.219,-179.584 595.452,-177.928 600.587,-176.194"/>
<polygon fill="lightgray" stroke="lightgray" points="601.979,-179.415 610.26,-172.806 599.665,-172.808 601.979,-179.415"/>
<text text-anchor="middle" x="479.695" y="-230.8" font-family="Times New Roman,serif" font-size="14.00" fill="lightgray">wff &#45;. ( ph \/ ps )</text>
</g>
<!-- n8574 -->
<g id="node8" class="node"><title>n8574</title>
<ellipse fill="none" stroke="lightgray" cx="327.597" cy="-162" rx="27" ry="18"/>
<text text-anchor="middle" x="327.597" y="-158.3" font-family="Times New Roman,serif" font-size="14.00" fill="lightgray">wa</text>
</g>
<!-- n8569&#45;&gt;n8574 -->
<g id="edge17" class="edge"><title>n8569&#45;&gt;n8574</title>
</g>
<!-- QED -->
<g id="node14" class="node"><title>QED</title>
</g>
<!-- n8578&#45;&gt;QED -->
<g id="edge16" class="edge"><title>n8578&#45;&gt;QED</title>
<path fill="none" stroke="black" d="M674.899,-162C733.305,-162 850.302,-162 911.157,-162"/>
<polygon fill="black" stroke="black" points="911.487,-165.5 921.487,-162 911.487,-158.5 911.487,-165.5"/>
<text text-anchor="middle" x="798.189" y="-165.8" font-family="Times New Roman,serif" font-size="14.00">|&#45; ( ( &#45;. ph /\ &#45;. ps ) &lt;&#45;&gt; &#45;. ( ph \/ ps ) )</text>
</g>
<!-- n8570 -->
<g id="node6" class="node"><title>n8570</title>
<ellipse fill="none" stroke="lightgray" cx="27" cy="-216" rx="27" ry="18"/>
<text text-anchor="middle" x="27" y="-212.3" font-family="Times New Roman,serif" font-size="14.00" fill="lightgray">wph</text>
</g>
<!-- n8571 -->
<g id="node7" class="node"><title>n8571</title>
<ellipse fill="none" stroke="lightgray" cx="154" cy="-216" rx="27" ry="18"/>
<text text-anchor="middle" x="154" y="-212.3" font-family="Times New Roman,serif" font-size="14.00" fill="lightgray">wn</text>
</g>
<!-- n8570&#45;&gt;n8571 -->
<g id="edge6" class="edge"><title>n8570&#45;&gt;n8571</title>
<path fill="none" stroke="lightgray" d="M54.2041,-216C72.3711,-216 96.7994,-216 116.82,-216"/>
<polygon fill="lightgray" stroke="lightgray" points="116.83,-219.5 126.83,-216 116.83,-212.5 116.83,-219.5"/>
<text text-anchor="middle" x="90.5" y="-219.8" font-family="Times New Roman,serif" font-size="14.00" fill="lightgray">wff ph</text>
</g>
<!-- n8571&#45;&gt;n8574 -->
<g id="edge7" class="edge"><title>n8571&#45;&gt;n8574</title>
<path fill="none" stroke="lightgray" d="M179.195,-208.65C204.591,-200.902 245.661,-188.281 281,-177 285.019,-175.717 289.232,-174.355 293.404,-172.995"/>
<polygon fill="lightgray" stroke="lightgray" points="294.544,-176.305 302.957,-169.865 292.365,-169.653 294.544,-176.305"/>
<text text-anchor="middle" x="240" y="-206.8" font-family="Times New Roman,serif" font-size="14.00" fill="lightgray">wff &#45;. ph</text>
</g>
<!-- n8573 -->
<g id="node10" class="node"><title>n8573</title>
<ellipse fill="none" stroke="lightgray" cx="154" cy="-144" rx="27" ry="18"/>
<text text-anchor="middle" x="154" y="-140.3" font-family="Times New Roman,serif" font-size="14.00" fill="lightgray">wn</text>
</g>
<!-- n8571&#45;&gt;n8573 -->
<g id="edge11" class="edge"><title>n8571&#45;&gt;n8573</title>
</g>
<!-- n8574&#45;&gt;n8578 -->
<g id="edge10" class="edge"><title>n8574&#45;&gt;n8578</title>
<path fill="none" stroke="lightgray" d="M354.705,-162C407.384,-162 526.96,-162 592.643,-162"/>
<polygon fill="lightgray" stroke="lightgray" points="592.704,-165.5 602.704,-162 592.704,-158.5 592.704,-165.5"/>
<text text-anchor="middle" x="479.695" y="-165.8" font-family="Times New Roman,serif" font-size="14.00" fill="lightgray">wff ( &#45;. ph /\ &#45;. ps )</text>
</g>
<!-- n8577 -->
<g id="node12" class="node"><title>n8577</title>
<ellipse fill="cyan" stroke="black" cx="327.597" cy="-90" rx="28.6953" ry="18"/>
<text text-anchor="middle" x="327.597" y="-86.3" font-family="Times New Roman,serif" font-size="14.00">ioran</text>
</g>
<!-- n8574&#45;&gt;n8577 -->
<g id="edge18" class="edge"><title>n8574&#45;&gt;n8577</title>
</g>
<!-- n8572 -->
<g id="node9" class="node"><title>n8572</title>
<ellipse fill="none" stroke="lightgray" cx="27" cy="-144" rx="27" ry="18"/>
<text text-anchor="middle" x="27" y="-140.3" font-family="Times New Roman,serif" font-size="14.00" fill="lightgray">wps</text>
</g>
<!-- n8572&#45;&gt;n8573 -->
<g id="edge8" class="edge"><title>n8572&#45;&gt;n8573</title>
<path fill="none" stroke="lightgray" d="M54.2041,-144C72.3711,-144 96.7994,-144 116.82,-144"/>
<polygon fill="lightgray" stroke="lightgray" points="116.83,-147.5 126.83,-144 116.83,-140.5 116.83,-147.5"/>
<text text-anchor="middle" x="90.5" y="-147.8" font-family="Times New Roman,serif" font-size="14.00" fill="lightgray">wff ps</text>
</g>
<!-- n8573&#45;&gt;n8574 -->
<g id="edge9" class="edge"><title>n8573&#45;&gt;n8574</title>
<path fill="none" stroke="lightgray" d="M181.062,-146.734C210.334,-149.804 258.023,-154.807 290.783,-158.243"/>
<polygon fill="lightgray" stroke="lightgray" points="290.542,-161.737 300.852,-159.299 291.272,-154.775 290.542,-161.737"/>
<text text-anchor="middle" x="240" y="-161.8" font-family="Times New Roman,serif" font-size="14.00" fill="lightgray">wff &#45;. ps</text>
</g>
<!-- n8575 -->
<g id="node11" class="node"><title>n8575</title>
<ellipse fill="none" stroke="lightgray" cx="154" cy="-90" rx="27" ry="18"/>
<text text-anchor="middle" x="154" y="-86.3" font-family="Times New Roman,serif" font-size="14.00" fill="lightgray">wph</text>
</g>
<!-- n8575&#45;&gt;n8577 -->
<g id="edge12" class="edge"><title>n8575&#45;&gt;n8577</title>
<path fill="none" stroke="lightgray" d="M181.062,-90C209.742,-90 256.101,-90 288.776,-90"/>
<polygon fill="lightgray" stroke="lightgray" points="288.865,-93.5001 298.865,-90 288.865,-86.5001 288.865,-93.5001"/>
<text text-anchor="middle" x="240" y="-93.8" font-family="Times New Roman,serif" font-size="14.00" fill="lightgray">wff ph</text>
</g>
<!-- n8576 -->
<g id="node13" class="node"><title>n8576</title>
<ellipse fill="none" stroke="lightgray" cx="154" cy="-18" rx="27" ry="18"/>
<text text-anchor="middle" x="154" y="-14.3" font-family="Times New Roman,serif" font-size="14.00" fill="lightgray">wps</text>
</g>
<!-- n8575&#45;&gt;n8576 -->
<g id="edge15" class="edge"><title>n8575&#45;&gt;n8576</title>
</g>
<!-- n8577&#45;&gt;n8578 -->
<g id="edge14" class="edge"><title>n8577&#45;&gt;n8578</title>
<path fill="none" stroke="black" d="M355.495,-94.2596C402.551,-101.998 502.664,-119.74 585.195,-143 590.219,-144.416 595.452,-146.072 600.587,-147.806"/>
<polygon fill="black" stroke="black" points="599.665,-151.192 610.26,-151.194 601.979,-144.585 599.665,-151.192"/>
<text text-anchor="middle" x="479.695" y="-146.8" font-family="Times New Roman,serif" font-size="14.00">|&#45; ( &#45;. ( ph \/ ps ) &lt;&#45;&gt; ( &#45;. ph /\ &#45;. ps ) )</text>
</g>
<!-- n8576&#45;&gt;n8577 -->
<g id="edge13" class="edge"><title>n8576&#45;&gt;n8577</title>
<path fill="none" stroke="lightgray" d="M177.433,-27.4127C207.117,-39.8677 259.664,-61.9156 293.803,-76.2399"/>
<polygon fill="lightgray" stroke="lightgray" points="292.76,-79.5977 303.335,-80.2394 295.468,-73.1429 292.76,-79.5977"/>
<text text-anchor="middle" x="240" y="-74.8" font-family="Times New Roman,serif" font-size="14.00" fill="lightgray">wff ps</text>
</g>
</g>
</svg>
