<?xml version="1.0" encoding="UTF-8" standalone="no"?>
<!DOCTYPE svg PUBLIC "-//W3C//DTD SVG 1.1//EN"
 "http://www.w3.org/Graphics/SVG/1.1/DTD/svg11.dtd">
<!-- Generated by graphviz version 2.38.0 (20140413.2041)
 -->
<!-- Title: proof_pm4_14 Pages: 1 -->
<svg width="1485pt" height="1230pt"
 viewBox="0.00 0.00 1485.18 1230.00" xmlns="http://www.w3.org/2000/svg" xmlns:xlink="http://www.w3.org/1999/xlink">
<g id="graph0" class="graph" transform="scale(1 1) rotate(0) translate(4 1226)">
<title>proof_pm4_14</title>
<polygon fill="white" stroke="none" points="-4,4 -4,-1226 1481.18,-1226 1481.18,4 -4,4"/>
<!-- n9778 -->
<g id="node1" class="node"><title>n9778</title>
<ellipse fill="none" stroke="lightgray" cx="304.347" cy="-1204" rx="27" ry="18"/>
<text text-anchor="middle" x="304.347" y="-1200.3" font-family="Times New Roman,serif" font-size="14.00" fill="lightgray">wph</text>
</g>
<!-- n9782 -->
<g id="node2" class="node"><title>n9782</title>
<ellipse fill="none" stroke="lightgray" cx="624.39" cy="-1096" rx="27" ry="18"/>
<text text-anchor="middle" x="624.39" y="-1092.3" font-family="Times New Roman,serif" font-size="14.00" fill="lightgray">wi</text>
</g>
<!-- n9778&#45;&gt;n9782 -->
<g id="edge1" class="edge"><title>n9778&#45;&gt;n9782</title>
<path fill="none" stroke="lightgray" d="M331.498,-1202.5C380.571,-1198.78 488.713,-1186.18 568.693,-1145 581.394,-1138.46 593.455,-1128.26 603.003,-1118.85"/>
<polygon fill="lightgray" stroke="lightgray" points="605.626,-1121.18 610.086,-1111.57 600.606,-1116.3 605.626,-1121.18"/>
<text text-anchor="middle" x="464.693" y="-1203.8" font-family="Times New Roman,serif" font-size="14.00" fill="lightgray">wff ph</text>
</g>
<!-- n9781 -->
<g id="node4" class="node"><title>n9781</title>
<ellipse fill="none" stroke="lightgray" cx="304.347" cy="-1132" rx="27" ry="18"/>
<text text-anchor="middle" x="304.347" y="-1128.3" font-family="Times New Roman,serif" font-size="14.00" fill="lightgray">wi</text>
</g>
<!-- n9778&#45;&gt;n9781 -->
<g id="edge7" class="edge"><title>n9778&#45;&gt;n9781</title>
</g>
<!-- n9825 -->
<g id="node6" class="node"><title>n9825</title>
<ellipse fill="cyan" stroke="black" cx="1056.88" cy="-726" rx="33.5952" ry="18"/>
<text text-anchor="middle" x="1056.88" y="-722.3" font-family="Times New Roman,serif" font-size="14.00">3bitr4i</text>
</g>
<!-- n9782&#45;&gt;n9825 -->
<g id="edge6" class="edge"><title>n9782&#45;&gt;n9825</title>
<path fill="none" stroke="lightgray" d="M651.216,-1098.08C719.978,-1102.07 908.815,-1102.67 1005.09,-1000 1038.18,-964.709 1050.57,-817.335 1054.4,-754.539"/>
<polygon fill="lightgray" stroke="lightgray" points="1057.92,-754.371 1055.01,-744.185 1050.93,-753.965 1057.92,-754.371"/>
<text text-anchor="middle" x="842.587" y="-1103.8" font-family="Times New Roman,serif" font-size="14.00" fill="lightgray">wff ( ph &#45;&gt; ( ps &#45;&gt; ch ) )</text>
</g>
<!-- n9789 -->
<g id="node8" class="node"><title>n9789</title>
<ellipse fill="none" stroke="lightgray" cx="624.39" cy="-1006" rx="27" ry="18"/>
<text text-anchor="middle" x="624.39" y="-1002.3" font-family="Times New Roman,serif" font-size="14.00" fill="lightgray">wi</text>
</g>
<!-- n9782&#45;&gt;n9789 -->
<g id="edge67" class="edge"><title>n9782&#45;&gt;n9789</title>
</g>
<!-- n9779 -->
<g id="node3" class="node"><title>n9779</title>
<ellipse fill="none" stroke="lightgray" cx="154" cy="-1204" rx="27" ry="18"/>
<text text-anchor="middle" x="154" y="-1200.3" font-family="Times New Roman,serif" font-size="14.00" fill="lightgray">wps</text>
</g>
<!-- n9779&#45;&gt;n9781 -->
<g id="edge2" class="edge"><title>n9779&#45;&gt;n9781</title>
<path fill="none" stroke="lightgray" d="M176.254,-1193.68C201.591,-1181.39 244.117,-1160.75 272.93,-1146.76"/>
<polygon fill="lightgray" stroke="lightgray" points="274.663,-1149.81 282.132,-1142.3 271.607,-1143.51 274.663,-1149.81"/>
<text text-anchor="middle" x="223.5" y="-1184.8" font-family="Times New Roman,serif" font-size="14.00" fill="lightgray">wff ps</text>
</g>
<!-- n9780 -->
<g id="node5" class="node"><title>n9780</title>
<ellipse fill="none" stroke="lightgray" cx="154" cy="-1132" rx="27" ry="18"/>
<text text-anchor="middle" x="154" y="-1128.3" font-family="Times New Roman,serif" font-size="14.00" fill="lightgray">wch</text>
</g>
<!-- n9779&#45;&gt;n9780 -->
<g id="edge5" class="edge"><title>n9779&#45;&gt;n9780</title>
</g>
<!-- n9781&#45;&gt;n9782 -->
<g id="edge4" class="edge"><title>n9781&#45;&gt;n9782</title>
<path fill="none" stroke="lightgray" d="M331.104,-1129.08C387.557,-1122.69 522.315,-1107.44 587.226,-1100.09"/>
<polygon fill="lightgray" stroke="lightgray" points="587.849,-1103.55 597.392,-1098.94 587.062,-1096.59 587.849,-1103.55"/>
<text text-anchor="middle" x="464.693" y="-1129.8" font-family="Times New Roman,serif" font-size="14.00" fill="lightgray">wff ( ps &#45;&gt; ch )</text>
</g>
<!-- n9780&#45;&gt;n9781 -->
<g id="edge3" class="edge"><title>n9780&#45;&gt;n9781</title>
<path fill="none" stroke="lightgray" d="M181.18,-1132C204.972,-1132 240.308,-1132 266.865,-1132"/>
<polygon fill="lightgray" stroke="lightgray" points="266.929,-1135.5 276.929,-1132 266.929,-1128.5 266.929,-1135.5"/>
<text text-anchor="middle" x="223.5" y="-1135.8" font-family="Times New Roman,serif" font-size="14.00" fill="lightgray">wff ch</text>
</g>
<!-- QED -->
<g id="node49" class="node"><title>QED</title>
</g>
<!-- n9825&#45;&gt;QED -->
<g id="edge66" class="edge"><title>n9825&#45;&gt;QED</title>
<path fill="none" stroke="black" d="M1090.72,-726C1162.28,-726 1331.99,-726 1408.43,-726"/>
<polygon fill="black" stroke="black" points="1408.58,-729.5 1418.58,-726 1408.58,-722.5 1408.58,-729.5"/>
<text text-anchor="middle" x="1254.68" y="-729.8" font-family="Times New Roman,serif" font-size="14.00">|&#45; ( ( ( ph / ps ) &#45;&gt; ch ) &lt;&#45;&gt; ( ( ph / &#45;. ch ) &#45;&gt; &#45;. ps ) )</text>
</g>
<!-- n9783 -->
<g id="node7" class="node"><title>n9783</title>
<ellipse fill="none" stroke="lightgray" cx="304.347" cy="-1078" rx="27" ry="18"/>
<text text-anchor="middle" x="304.347" y="-1074.3" font-family="Times New Roman,serif" font-size="14.00" fill="lightgray">wph</text>
</g>
<!-- n9783&#45;&gt;n9789 -->
<g id="edge8" class="edge"><title>n9783&#45;&gt;n9789</title>
<path fill="none" stroke="lightgray" d="M331.038,-1074.02C378.462,-1066.41 482.761,-1048.46 568.693,-1025 575.96,-1023.02 583.66,-1020.57 590.916,-1018.09"/>
<polygon fill="lightgray" stroke="lightgray" points="592.176,-1021.36 600.453,-1014.75 589.858,-1014.75 592.176,-1021.36"/>
<text text-anchor="middle" x="464.693" y="-1072.8" font-family="Times New Roman,serif" font-size="14.00" fill="lightgray">wff ph</text>
</g>
<!-- n9788 -->
<g id="node11" class="node"><title>n9788</title>
<ellipse fill="none" stroke="lightgray" cx="304.347" cy="-1006" rx="27" ry="18"/>
<text text-anchor="middle" x="304.347" y="-1002.3" font-family="Times New Roman,serif" font-size="14.00" fill="lightgray">wi</text>
</g>
<!-- n9783&#45;&gt;n9788 -->
<g id="edge16" class="edge"><title>n9783&#45;&gt;n9788</title>
</g>
<!-- n9789&#45;&gt;n9825 -->
<g id="edge15" class="edge"><title>n9789&#45;&gt;n9825</title>
<path fill="none" stroke="lightgray" d="M647.72,-996.816C724.885,-964.937 977.097,-859.512 1005.09,-832 1027.14,-810.317 1040.89,-777.152 1048.43,-753.702"/>
<polygon fill="lightgray" stroke="lightgray" points="1051.82,-754.584 1051.38,-743.998 1045.13,-752.549 1051.82,-754.584"/>
<text text-anchor="middle" x="842.587" y="-985.8" font-family="Times New Roman,serif" font-size="14.00" fill="lightgray">wff ( ph &#45;&gt; ( &#45;. ch &#45;&gt; &#45;. ps ) )</text>
</g>
<!-- n9794 -->
<g id="node17" class="node"><title>n9794</title>
<ellipse fill="none" stroke="lightgray" cx="624.39" cy="-821" rx="27" ry="18"/>
<text text-anchor="middle" x="624.39" y="-817.3" font-family="Times New Roman,serif" font-size="14.00" fill="lightgray">wi</text>
</g>
<!-- n9789&#45;&gt;n9794 -->
<g id="edge68" class="edge"><title>n9789&#45;&gt;n9794</title>
</g>
<!-- n9784 -->
<g id="node9" class="node"><title>n9784</title>
<ellipse fill="none" stroke="lightgray" cx="27" cy="-1078" rx="27" ry="18"/>
<text text-anchor="middle" x="27" y="-1074.3" font-family="Times New Roman,serif" font-size="14.00" fill="lightgray">wch</text>
</g>
<!-- n9785 -->
<g id="node10" class="node"><title>n9785</title>
<ellipse fill="none" stroke="lightgray" cx="154" cy="-1078" rx="27" ry="18"/>
<text text-anchor="middle" x="154" y="-1074.3" font-family="Times New Roman,serif" font-size="14.00" fill="lightgray">wn</text>
</g>
<!-- n9784&#45;&gt;n9785 -->
<g id="edge9" class="edge"><title>n9784&#45;&gt;n9785</title>
<path fill="none" stroke="lightgray" d="M54.2041,-1078C72.3711,-1078 96.7994,-1078 116.82,-1078"/>
<polygon fill="lightgray" stroke="lightgray" points="116.83,-1081.5 126.83,-1078 116.83,-1074.5 116.83,-1081.5"/>
<text text-anchor="middle" x="90.5" y="-1081.8" font-family="Times New Roman,serif" font-size="14.00" fill="lightgray">wff ch</text>
</g>
<!-- n9785&#45;&gt;n9788 -->
<g id="edge10" class="edge"><title>n9785&#45;&gt;n9788</title>
<path fill="none" stroke="lightgray" d="M176.254,-1067.68C201.591,-1055.39 244.117,-1034.75 272.93,-1020.76"/>
<polygon fill="lightgray" stroke="lightgray" points="274.663,-1023.81 282.132,-1016.3 271.607,-1017.51 274.663,-1023.81"/>
<text text-anchor="middle" x="223.5" y="-1058.8" font-family="Times New Roman,serif" font-size="14.00" fill="lightgray">wff &#45;. ch</text>
</g>
<!-- n9787 -->
<g id="node13" class="node"><title>n9787</title>
<ellipse fill="none" stroke="lightgray" cx="154" cy="-1006" rx="27" ry="18"/>
<text text-anchor="middle" x="154" y="-1002.3" font-family="Times New Roman,serif" font-size="14.00" fill="lightgray">wn</text>
</g>
<!-- n9785&#45;&gt;n9787 -->
<g id="edge14" class="edge"><title>n9785&#45;&gt;n9787</title>
</g>
<!-- n9788&#45;&gt;n9789 -->
<g id="edge13" class="edge"><title>n9788&#45;&gt;n9789</title>
<path fill="none" stroke="lightgray" d="M331.373,-1006C387.867,-1006 521.86,-1006 586.821,-1006"/>
<polygon fill="lightgray" stroke="lightgray" points="587.003,-1009.5 597.003,-1006 587.003,-1002.5 587.003,-1009.5"/>
<text text-anchor="middle" x="464.693" y="-1009.8" font-family="Times New Roman,serif" font-size="14.00" fill="lightgray">wff ( &#45;. ch &#45;&gt; &#45;. ps )</text>
</g>
<!-- n9786 -->
<g id="node12" class="node"><title>n9786</title>
<ellipse fill="none" stroke="lightgray" cx="27" cy="-1006" rx="27" ry="18"/>
<text text-anchor="middle" x="27" y="-1002.3" font-family="Times New Roman,serif" font-size="14.00" fill="lightgray">wps</text>
</g>
<!-- n9786&#45;&gt;n9787 -->
<g id="edge11" class="edge"><title>n9786&#45;&gt;n9787</title>
<path fill="none" stroke="lightgray" d="M54.2041,-1006C72.3711,-1006 96.7994,-1006 116.82,-1006"/>
<polygon fill="lightgray" stroke="lightgray" points="116.83,-1009.5 126.83,-1006 116.83,-1002.5 116.83,-1009.5"/>
<text text-anchor="middle" x="90.5" y="-1009.8" font-family="Times New Roman,serif" font-size="14.00" fill="lightgray">wff ps</text>
</g>
<!-- n9787&#45;&gt;n9788 -->
<g id="edge12" class="edge"><title>n9787&#45;&gt;n9788</title>
<path fill="none" stroke="lightgray" d="M181.18,-1006C204.972,-1006 240.308,-1006 266.865,-1006"/>
<polygon fill="lightgray" stroke="lightgray" points="266.929,-1009.5 276.929,-1006 266.929,-1002.5 266.929,-1009.5"/>
<text text-anchor="middle" x="223.5" y="-1009.8" font-family="Times New Roman,serif" font-size="14.00" fill="lightgray">wff &#45;. ps</text>
</g>
<!-- n9790 -->
<g id="node14" class="node"><title>n9790</title>
<ellipse fill="none" stroke="lightgray" cx="154" cy="-952" rx="27" ry="18"/>
<text text-anchor="middle" x="154" y="-948.3" font-family="Times New Roman,serif" font-size="14.00" fill="lightgray">wph</text>
</g>
<!-- n9792 -->
<g id="node15" class="node"><title>n9792</title>
<ellipse fill="none" stroke="lightgray" cx="304.347" cy="-893" rx="27" ry="18"/>
<text text-anchor="middle" x="304.347" y="-889.3" font-family="Times New Roman,serif" font-size="14.00" fill="lightgray">wa</text>
</g>
<!-- n9790&#45;&gt;n9792 -->
<g id="edge17" class="edge"><title>n9790&#45;&gt;n9792</title>
<path fill="none" stroke="lightgray" d="M177.531,-943.039C202.472,-933.119 242.88,-917.048 271.154,-905.803"/>
<polygon fill="lightgray" stroke="lightgray" points="272.605,-908.993 280.604,-902.045 270.018,-902.489 272.605,-908.993"/>
<text text-anchor="middle" x="223.5" y="-936.8" font-family="Times New Roman,serif" font-size="14.00" fill="lightgray">wff ph</text>
</g>
<!-- n9791 -->
<g id="node16" class="node"><title>n9791</title>
<ellipse fill="none" stroke="lightgray" cx="154" cy="-880" rx="27" ry="18"/>
<text text-anchor="middle" x="154" y="-876.3" font-family="Times New Roman,serif" font-size="14.00" fill="lightgray">wps</text>
</g>
<!-- n9790&#45;&gt;n9791 -->
<g id="edge20" class="edge"><title>n9790&#45;&gt;n9791</title>
</g>
<!-- n9792&#45;&gt;n9794 -->
<g id="edge19" class="edge"><title>n9792&#45;&gt;n9794</title>
<path fill="none" stroke="lightgray" d="M331.038,-889.021C378.462,-881.414 482.761,-863.456 568.693,-840 575.96,-838.016 583.66,-835.566 590.916,-833.092"/>
<polygon fill="lightgray" stroke="lightgray" points="592.176,-836.359 600.453,-829.746 589.858,-829.754 592.176,-836.359"/>
<text text-anchor="middle" x="464.693" y="-887.8" font-family="Times New Roman,serif" font-size="14.00" fill="lightgray">wff ( ph / ps )</text>
</g>
<!-- n9793 -->
<g id="node18" class="node"><title>n9793</title>
<ellipse fill="none" stroke="lightgray" cx="304.347" cy="-821" rx="27" ry="18"/>
<text text-anchor="middle" x="304.347" y="-817.3" font-family="Times New Roman,serif" font-size="14.00" fill="lightgray">wch</text>
</g>
<!-- n9792&#45;&gt;n9793 -->
<g id="edge23" class="edge"><title>n9792&#45;&gt;n9793</title>
</g>
<!-- n9791&#45;&gt;n9792 -->
<g id="edge18" class="edge"><title>n9791&#45;&gt;n9792</title>
<path fill="none" stroke="lightgray" d="M180.84,-882.264C204.804,-884.364 240.69,-887.509 267.436,-889.853"/>
<polygon fill="lightgray" stroke="lightgray" points="267.287,-893.353 277.554,-890.74 267.898,-886.38 267.287,-893.353"/>
<text text-anchor="middle" x="223.5" y="-892.8" font-family="Times New Roman,serif" font-size="14.00" fill="lightgray">wff ps</text>
</g>
<!-- n9794&#45;&gt;n9825 -->
<g id="edge22" class="edge"><title>n9794&#45;&gt;n9825</title>
<path fill="none" stroke="lightgray" d="M651.054,-817.32C712.789,-808.155 874.169,-782.326 1005.09,-745 1010,-743.6 1015.11,-741.94 1020.11,-740.194"/>
<polygon fill="lightgray" stroke="lightgray" points="1021.32,-743.478 1029.52,-736.774 1018.93,-736.899 1021.32,-743.478"/>
<text text-anchor="middle" x="842.587" y="-816.8" font-family="Times New Roman,serif" font-size="14.00" fill="lightgray">wff ( ( ph / ps ) &#45;&gt; ch )</text>
</g>
<!-- n9801 -->
<g id="node23" class="node"><title>n9801</title>
<ellipse fill="none" stroke="lightgray" cx="624.39" cy="-726" rx="27" ry="18"/>
<text text-anchor="middle" x="624.39" y="-722.3" font-family="Times New Roman,serif" font-size="14.00" fill="lightgray">wi</text>
</g>
<!-- n9794&#45;&gt;n9801 -->
<g id="edge69" class="edge"><title>n9794&#45;&gt;n9801</title>
</g>
<!-- n9793&#45;&gt;n9794 -->
<g id="edge21" class="edge"><title>n9793&#45;&gt;n9794</title>
<path fill="none" stroke="lightgray" d="M331.373,-821C387.867,-821 521.86,-821 586.821,-821"/>
<polygon fill="lightgray" stroke="lightgray" points="587.003,-824.5 597.003,-821 587.003,-817.5 587.003,-824.5"/>
<text text-anchor="middle" x="464.693" y="-824.8" font-family="Times New Roman,serif" font-size="14.00" fill="lightgray">wff ch</text>
</g>
<!-- n9795 -->
<g id="node19" class="node"><title>n9795</title>
<ellipse fill="none" stroke="lightgray" cx="154" cy="-826" rx="27" ry="18"/>
<text text-anchor="middle" x="154" y="-822.3" font-family="Times New Roman,serif" font-size="14.00" fill="lightgray">wph</text>
</g>
<!-- n9798 -->
<g id="node20" class="node"><title>n9798</title>
<ellipse fill="none" stroke="lightgray" cx="304.347" cy="-767" rx="27" ry="18"/>
<text text-anchor="middle" x="304.347" y="-763.3" font-family="Times New Roman,serif" font-size="14.00" fill="lightgray">wa</text>
</g>
<!-- n9795&#45;&gt;n9798 -->
<g id="edge24" class="edge"><title>n9795&#45;&gt;n9798</title>
<path fill="none" stroke="lightgray" d="M177.531,-817.039C202.472,-807.119 242.88,-791.048 271.154,-779.803"/>
<polygon fill="lightgray" stroke="lightgray" points="272.605,-782.993 280.604,-776.045 270.018,-776.489 272.605,-782.993"/>
<text text-anchor="middle" x="223.5" y="-810.8" font-family="Times New Roman,serif" font-size="14.00" fill="lightgray">wff ph</text>
</g>
<!-- n9797 -->
<g id="node22" class="node"><title>n9797</title>
<ellipse fill="none" stroke="lightgray" cx="154" cy="-754" rx="27" ry="18"/>
<text text-anchor="middle" x="154" y="-750.3" font-family="Times New Roman,serif" font-size="14.00" fill="lightgray">wn</text>
</g>
<!-- n9795&#45;&gt;n9797 -->
<g id="edge28" class="edge"><title>n9795&#45;&gt;n9797</title>
</g>
<!-- n9798&#45;&gt;n9801 -->
<g id="edge27" class="edge"><title>n9798&#45;&gt;n9801</title>
<path fill="none" stroke="lightgray" d="M331.104,-763.68C387.697,-756.384 522.985,-738.944 587.708,-730.6"/>
<polygon fill="lightgray" stroke="lightgray" points="588.365,-734.044 597.836,-729.294 587.47,-727.102 588.365,-734.044"/>
<text text-anchor="middle" x="464.693" y="-763.8" font-family="Times New Roman,serif" font-size="14.00" fill="lightgray">wff ( ph / &#45;. ch )</text>
</g>
<!-- n9800 -->
<g id="node25" class="node"><title>n9800</title>
<ellipse fill="none" stroke="lightgray" cx="304.347" cy="-695" rx="27" ry="18"/>
<text text-anchor="middle" x="304.347" y="-691.3" font-family="Times New Roman,serif" font-size="14.00" fill="lightgray">wn</text>
</g>
<!-- n9798&#45;&gt;n9800 -->
<g id="edge32" class="edge"><title>n9798&#45;&gt;n9800</title>
</g>
<!-- n9796 -->
<g id="node21" class="node"><title>n9796</title>
<ellipse fill="none" stroke="lightgray" cx="27" cy="-754" rx="27" ry="18"/>
<text text-anchor="middle" x="27" y="-750.3" font-family="Times New Roman,serif" font-size="14.00" fill="lightgray">wch</text>
</g>
<!-- n9796&#45;&gt;n9797 -->
<g id="edge25" class="edge"><title>n9796&#45;&gt;n9797</title>
<path fill="none" stroke="lightgray" d="M54.2041,-754C72.3711,-754 96.7994,-754 116.82,-754"/>
<polygon fill="lightgray" stroke="lightgray" points="116.83,-757.5 126.83,-754 116.83,-750.5 116.83,-757.5"/>
<text text-anchor="middle" x="90.5" y="-757.8" font-family="Times New Roman,serif" font-size="14.00" fill="lightgray">wff ch</text>
</g>
<!-- n9797&#45;&gt;n9798 -->
<g id="edge26" class="edge"><title>n9797&#45;&gt;n9798</title>
<path fill="none" stroke="lightgray" d="M180.84,-756.264C204.804,-758.364 240.69,-761.509 267.436,-763.853"/>
<polygon fill="lightgray" stroke="lightgray" points="267.287,-767.353 277.554,-764.74 267.898,-760.38 267.287,-767.353"/>
<text text-anchor="middle" x="223.5" y="-766.8" font-family="Times New Roman,serif" font-size="14.00" fill="lightgray">wff &#45;. ch</text>
</g>
<!-- n9801&#45;&gt;n9825 -->
<g id="edge31" class="edge"><title>n9801&#45;&gt;n9825</title>
<path fill="none" stroke="lightgray" d="M651.671,-726C723.594,-726 924.174,-726 1012.82,-726"/>
<polygon fill="lightgray" stroke="lightgray" points="1013.06,-729.5 1023.06,-726 1013.06,-722.5 1013.06,-729.5"/>
<text text-anchor="middle" x="842.587" y="-729.8" font-family="Times New Roman,serif" font-size="14.00" fill="lightgray">wff ( ( ph / &#45;. ch ) &#45;&gt; &#45;. ps )</text>
</g>
<!-- n9814 -->
<g id="node29" class="node"><title>n9814</title>
<ellipse fill="cyan" stroke="black" cx="624.39" cy="-558" rx="32.4942" ry="18"/>
<text text-anchor="middle" x="624.39" y="-554.3" font-family="Times New Roman,serif" font-size="14.00">imbi2i</text>
</g>
<!-- n9801&#45;&gt;n9814 -->
<g id="edge70" class="edge"><title>n9801&#45;&gt;n9814</title>
</g>
<!-- n9799 -->
<g id="node24" class="node"><title>n9799</title>
<ellipse fill="none" stroke="lightgray" cx="154" cy="-700" rx="27" ry="18"/>
<text text-anchor="middle" x="154" y="-696.3" font-family="Times New Roman,serif" font-size="14.00" fill="lightgray">wps</text>
</g>
<!-- n9799&#45;&gt;n9800 -->
<g id="edge29" class="edge"><title>n9799&#45;&gt;n9800</title>
<path fill="none" stroke="lightgray" d="M181.18,-699.118C204.972,-698.316 240.308,-697.125 266.865,-696.23"/>
<polygon fill="lightgray" stroke="lightgray" points="267.053,-699.725 276.929,-695.89 266.817,-692.729 267.053,-699.725"/>
<text text-anchor="middle" x="223.5" y="-702.8" font-family="Times New Roman,serif" font-size="14.00" fill="lightgray">wff ps</text>
</g>
<!-- n9800&#45;&gt;n9801 -->
<g id="edge30" class="edge"><title>n9800&#45;&gt;n9801</title>
<path fill="none" stroke="lightgray" d="M331.668,-695.364C379.245,-696.34 482.611,-699.92 568.693,-713 575.279,-714.001 582.241,-715.392 588.91,-716.894"/>
<polygon fill="lightgray" stroke="lightgray" points="588.515,-720.398 599.054,-719.306 590.135,-713.588 588.515,-720.398"/>
<text text-anchor="middle" x="464.693" y="-716.8" font-family="Times New Roman,serif" font-size="14.00" fill="lightgray">wff &#45;. ps</text>
</g>
<!-- n9802 -->
<g id="node26" class="node"><title>n9802</title>
<ellipse fill="none" stroke="lightgray" cx="154" cy="-646" rx="27" ry="18"/>
<text text-anchor="middle" x="154" y="-642.3" font-family="Times New Roman,serif" font-size="14.00" fill="lightgray">wch</text>
</g>
<!-- n9804 -->
<g id="node27" class="node"><title>n9804</title>
<ellipse fill="none" stroke="lightgray" cx="304.347" cy="-630" rx="27" ry="18"/>
<text text-anchor="middle" x="304.347" y="-626.3" font-family="Times New Roman,serif" font-size="14.00" fill="lightgray">wi</text>
</g>
<!-- n9802&#45;&gt;n9804 -->
<g id="edge33" class="edge"><title>n9802&#45;&gt;n9804</title>
<path fill="none" stroke="lightgray" d="M180.84,-643.213C204.804,-640.628 240.69,-636.758 267.436,-633.873"/>
<polygon fill="lightgray" stroke="lightgray" points="267.987,-637.334 277.554,-632.782 267.237,-630.374 267.987,-637.334"/>
<text text-anchor="middle" x="223.5" y="-644.8" font-family="Times New Roman,serif" font-size="14.00" fill="lightgray">wff ch</text>
</g>
<!-- n9803 -->
<g id="node28" class="node"><title>n9803</title>
<ellipse fill="none" stroke="lightgray" cx="154" cy="-574" rx="27" ry="18"/>
<text text-anchor="middle" x="154" y="-570.3" font-family="Times New Roman,serif" font-size="14.00" fill="lightgray">wps</text>
</g>
<!-- n9802&#45;&gt;n9803 -->
<g id="edge36" class="edge"><title>n9802&#45;&gt;n9803</title>
</g>
<!-- n9804&#45;&gt;n9814 -->
<g id="edge35" class="edge"><title>n9804&#45;&gt;n9814</title>
<path fill="none" stroke="lightgray" d="M331.038,-626.021C378.462,-618.414 482.761,-600.456 568.693,-577 574.866,-575.315 581.352,-573.293 587.612,-571.206"/>
<polygon fill="lightgray" stroke="lightgray" points="588.869,-574.475 597.187,-567.912 586.592,-567.856 588.869,-574.475"/>
<text text-anchor="middle" x="464.693" y="-624.8" font-family="Times New Roman,serif" font-size="14.00" fill="lightgray">wff ( ps &#45;&gt; ch )</text>
</g>
<!-- n9809 -->
<g id="node32" class="node"><title>n9809</title>
<ellipse fill="none" stroke="lightgray" cx="304.347" cy="-558" rx="27" ry="18"/>
<text text-anchor="middle" x="304.347" y="-554.3" font-family="Times New Roman,serif" font-size="14.00" fill="lightgray">wi</text>
</g>
<!-- n9804&#45;&gt;n9809 -->
<g id="edge49" class="edge"><title>n9804&#45;&gt;n9809</title>
</g>
<!-- n9803&#45;&gt;n9804 -->
<g id="edge34" class="edge"><title>n9803&#45;&gt;n9804</title>
<path fill="none" stroke="lightgray" d="M177.854,-582.627C202.718,-592.013 242.673,-607.096 270.808,-617.717"/>
<polygon fill="lightgray" stroke="lightgray" points="269.63,-621.013 280.222,-621.271 272.103,-614.464 269.63,-621.013"/>
<text text-anchor="middle" x="223.5" y="-612.8" font-family="Times New Roman,serif" font-size="14.00" fill="lightgray">wff ps</text>
</g>
<!-- n9814&#45;&gt;n9825 -->
<g id="edge48" class="edge"><title>n9814&#45;&gt;n9825</title>
<path fill="none" stroke="black" d="M651.35,-568.131C724.878,-596.825 934.706,-678.711 1019.59,-711.835"/>
<polygon fill="black" stroke="black" points="1018.48,-715.159 1029.07,-715.534 1021.02,-708.638 1018.48,-715.159"/>
<text text-anchor="middle" x="842.587" y="-709.8" font-family="Times New Roman,serif" font-size="14.00">|&#45; ( ( ph &#45;&gt; ( ps &#45;&gt; ch ) ) &lt;&#45;&gt; ( ph &#45;&gt; ( &#45;. ch &#45;&gt; &#45;. ps ) ) )</text>
</g>
<!-- n9818 -->
<g id="node40" class="node"><title>n9818</title>
<ellipse fill="cyan" stroke="black" cx="624.39" cy="-332" rx="37.8943" ry="18"/>
<text text-anchor="middle" x="624.39" y="-328.3" font-family="Times New Roman,serif" font-size="14.00">impexp</text>
</g>
<!-- n9814&#45;&gt;n9818 -->
<g id="edge71" class="edge"><title>n9814&#45;&gt;n9818</title>
</g>
<!-- n9805 -->
<g id="node30" class="node"><title>n9805</title>
<ellipse fill="none" stroke="lightgray" cx="27" cy="-520" rx="27" ry="18"/>
<text text-anchor="middle" x="27" y="-516.3" font-family="Times New Roman,serif" font-size="14.00" fill="lightgray">wps</text>
</g>
<!-- n9806 -->
<g id="node31" class="node"><title>n9806</title>
<ellipse fill="none" stroke="lightgray" cx="154" cy="-520" rx="27" ry="18"/>
<text text-anchor="middle" x="154" y="-516.3" font-family="Times New Roman,serif" font-size="14.00" fill="lightgray">wn</text>
</g>
<!-- n9805&#45;&gt;n9806 -->
<g id="edge37" class="edge"><title>n9805&#45;&gt;n9806</title>
<path fill="none" stroke="lightgray" d="M54.2041,-520C72.3711,-520 96.7994,-520 116.82,-520"/>
<polygon fill="lightgray" stroke="lightgray" points="116.83,-523.5 126.83,-520 116.83,-516.5 116.83,-523.5"/>
<text text-anchor="middle" x="90.5" y="-523.8" font-family="Times New Roman,serif" font-size="14.00" fill="lightgray">wff ps</text>
</g>
<!-- n9806&#45;&gt;n9809 -->
<g id="edge38" class="edge"><title>n9806&#45;&gt;n9809</title>
<path fill="none" stroke="lightgray" d="M179.496,-526.275C203.869,-532.518 241.485,-542.154 268.869,-549.168"/>
<polygon fill="lightgray" stroke="lightgray" points="268.258,-552.625 278.814,-551.716 269.995,-545.844 268.258,-552.625"/>
<text text-anchor="middle" x="223.5" y="-547.8" font-family="Times New Roman,serif" font-size="14.00" fill="lightgray">wff &#45;. ps</text>
</g>
<!-- n9808 -->
<g id="node34" class="node"><title>n9808</title>
<ellipse fill="none" stroke="lightgray" cx="154" cy="-448" rx="27" ry="18"/>
<text text-anchor="middle" x="154" y="-444.3" font-family="Times New Roman,serif" font-size="14.00" fill="lightgray">wn</text>
</g>
<!-- n9806&#45;&gt;n9808 -->
<g id="edge42" class="edge"><title>n9806&#45;&gt;n9808</title>
</g>
<!-- n9809&#45;&gt;n9814 -->
<g id="edge41" class="edge"><title>n9809&#45;&gt;n9814</title>
<path fill="none" stroke="lightgray" d="M331.373,-558C386.435,-558 515.114,-558 581.749,-558"/>
<polygon fill="lightgray" stroke="lightgray" points="581.89,-561.5 591.89,-558 581.89,-554.5 581.89,-561.5"/>
<text text-anchor="middle" x="464.693" y="-561.8" font-family="Times New Roman,serif" font-size="14.00" fill="lightgray">wff ( &#45;. ch &#45;&gt; &#45;. ps )</text>
</g>
<!-- n9810 -->
<g id="node35" class="node"><title>n9810</title>
<ellipse fill="none" stroke="lightgray" cx="304.347" cy="-486" rx="27" ry="18"/>
<text text-anchor="middle" x="304.347" y="-482.3" font-family="Times New Roman,serif" font-size="14.00" fill="lightgray">wph</text>
</g>
<!-- n9809&#45;&gt;n9810 -->
<g id="edge50" class="edge"><title>n9809&#45;&gt;n9810</title>
</g>
<!-- n9807 -->
<g id="node33" class="node"><title>n9807</title>
<ellipse fill="none" stroke="lightgray" cx="27" cy="-448" rx="27" ry="18"/>
<text text-anchor="middle" x="27" y="-444.3" font-family="Times New Roman,serif" font-size="14.00" fill="lightgray">wch</text>
</g>
<!-- n9807&#45;&gt;n9808 -->
<g id="edge39" class="edge"><title>n9807&#45;&gt;n9808</title>
<path fill="none" stroke="lightgray" d="M54.2041,-448C72.3711,-448 96.7994,-448 116.82,-448"/>
<polygon fill="lightgray" stroke="lightgray" points="116.83,-451.5 126.83,-448 116.83,-444.5 116.83,-451.5"/>
<text text-anchor="middle" x="90.5" y="-451.8" font-family="Times New Roman,serif" font-size="14.00" fill="lightgray">wff ch</text>
</g>
<!-- n9808&#45;&gt;n9809 -->
<g id="edge40" class="edge"><title>n9808&#45;&gt;n9809</title>
<path fill="none" stroke="lightgray" d="M173.388,-460.61C192.303,-473.683 222.517,-494.851 248,-514 258.171,-521.643 269.177,-530.309 278.676,-537.917"/>
<polygon fill="lightgray" stroke="lightgray" points="276.593,-540.733 286.577,-544.278 280.983,-535.281 276.593,-540.733"/>
<text text-anchor="middle" x="223.5" y="-517.8" font-family="Times New Roman,serif" font-size="14.00" fill="lightgray">wff &#45;. ch</text>
</g>
<!-- n9810&#45;&gt;n9814 -->
<g id="edge43" class="edge"><title>n9810&#45;&gt;n9814</title>
<path fill="none" stroke="lightgray" d="M331.038,-489.979C378.462,-497.586 482.761,-515.544 568.693,-539 574.866,-540.685 581.352,-542.707 587.612,-544.794"/>
<polygon fill="lightgray" stroke="lightgray" points="586.592,-548.144 597.187,-548.088 588.869,-541.525 586.592,-548.144"/>
<text text-anchor="middle" x="464.693" y="-542.8" font-family="Times New Roman,serif" font-size="14.00" fill="lightgray">wff ph</text>
</g>
<!-- n9813 -->
<g id="node37" class="node"><title>n9813</title>
<ellipse fill="cyan" stroke="black" cx="304.347" cy="-414" rx="38.1938" ry="18"/>
<text text-anchor="middle" x="304.347" y="-410.3" font-family="Times New Roman,serif" font-size="14.00">con34b</text>
</g>
<!-- n9810&#45;&gt;n9813 -->
<g id="edge51" class="edge"><title>n9810&#45;&gt;n9813</title>
</g>
<!-- n9811 -->
<g id="node36" class="node"><title>n9811</title>
<ellipse fill="none" stroke="lightgray" cx="154" cy="-394" rx="27" ry="18"/>
<text text-anchor="middle" x="154" y="-390.3" font-family="Times New Roman,serif" font-size="14.00" fill="lightgray">wps</text>
</g>
<!-- n9811&#45;&gt;n9813 -->
<g id="edge44" class="edge"><title>n9811&#45;&gt;n9813</title>
<path fill="none" stroke="lightgray" d="M180.84,-397.484C201.852,-400.317 232.031,-404.385 257.177,-407.775"/>
<polygon fill="lightgray" stroke="lightgray" points="256.869,-411.265 267.247,-409.133 257.804,-404.328 256.869,-411.265"/>
<text text-anchor="middle" x="223.5" y="-410.8" font-family="Times New Roman,serif" font-size="14.00" fill="lightgray">wff ps</text>
</g>
<!-- n9812 -->
<g id="node38" class="node"><title>n9812</title>
<ellipse fill="none" stroke="lightgray" cx="154" cy="-322" rx="27" ry="18"/>
<text text-anchor="middle" x="154" y="-318.3" font-family="Times New Roman,serif" font-size="14.00" fill="lightgray">wch</text>
</g>
<!-- n9811&#45;&gt;n9812 -->
<g id="edge47" class="edge"><title>n9811&#45;&gt;n9812</title>
</g>
<!-- n9813&#45;&gt;n9814 -->
<g id="edge46" class="edge"><title>n9813&#45;&gt;n9814</title>
<path fill="none" stroke="black" d="M342.804,-414.62C397.199,-417.243 499.135,-428.814 568.693,-477 587.994,-490.371 602.411,-512.953 611.584,-530.882"/>
<polygon fill="black" stroke="black" points="608.626,-532.804 616.138,-540.275 614.925,-529.75 608.626,-532.804"/>
<text text-anchor="middle" x="464.693" y="-480.8" font-family="Times New Roman,serif" font-size="14.00">|&#45; ( ( ps &#45;&gt; ch ) &lt;&#45;&gt; ( &#45;. ch &#45;&gt; &#45;. ps ) )</text>
</g>
<!-- n9812&#45;&gt;n9813 -->
<g id="edge45" class="edge"><title>n9812&#45;&gt;n9813</title>
<path fill="none" stroke="lightgray" d="M174.394,-334.027C199.162,-349.388 242.344,-376.168 271.858,-394.472"/>
<polygon fill="lightgray" stroke="lightgray" points="270.2,-397.562 280.543,-399.858 273.889,-391.613 270.2,-397.562"/>
<text text-anchor="middle" x="223.5" y="-382.8" font-family="Times New Roman,serif" font-size="14.00" fill="lightgray">wff ch</text>
</g>
<!-- n9815 -->
<g id="node39" class="node"><title>n9815</title>
<ellipse fill="none" stroke="lightgray" cx="304.347" cy="-360" rx="27" ry="18"/>
<text text-anchor="middle" x="304.347" y="-356.3" font-family="Times New Roman,serif" font-size="14.00" fill="lightgray">wph</text>
</g>
<!-- n9815&#45;&gt;n9818 -->
<g id="edge52" class="edge"><title>n9815&#45;&gt;n9818</title>
<path fill="none" stroke="lightgray" d="M331.373,-357.709C385.207,-352.969 509.415,-342.034 577.202,-336.066"/>
<polygon fill="lightgray" stroke="lightgray" points="577.524,-339.552 587.178,-335.188 576.91,-332.579 577.524,-339.552"/>
<text text-anchor="middle" x="464.693" y="-358.8" font-family="Times New Roman,serif" font-size="14.00" fill="lightgray">wff ph</text>
</g>
<!-- n9816 -->
<g id="node41" class="node"><title>n9816</title>
<ellipse fill="none" stroke="lightgray" cx="304.347" cy="-288" rx="27" ry="18"/>
<text text-anchor="middle" x="304.347" y="-284.3" font-family="Times New Roman,serif" font-size="14.00" fill="lightgray">wps</text>
</g>
<!-- n9815&#45;&gt;n9816 -->
<g id="edge56" class="edge"><title>n9815&#45;&gt;n9816</title>
</g>
<!-- n9818&#45;&gt;n9825 -->
<g id="edge55" class="edge"><title>n9818&#45;&gt;n9825</title>
<path fill="none" stroke="black" d="M655.857,-342.103C727.709,-367.489 908.913,-440.868 1005.09,-564 1036.19,-603.826 1048.42,-662.967 1053.1,-697.69"/>
<polygon fill="black" stroke="black" points="1049.68,-698.55 1054.37,-708.05 1056.63,-697.698 1049.68,-698.55"/>
<text text-anchor="middle" x="842.587" y="-567.8" font-family="Times New Roman,serif" font-size="14.00">|&#45; ( ( ( ph / ps ) &#45;&gt; ch ) &lt;&#45;&gt; ( ph &#45;&gt; ( ps &#45;&gt; ch ) ) )</text>
</g>
<!-- n9824 -->
<g id="node44" class="node"><title>n9824</title>
<ellipse fill="cyan" stroke="black" cx="624.39" cy="-162" rx="37.8943" ry="18"/>
<text text-anchor="middle" x="624.39" y="-158.3" font-family="Times New Roman,serif" font-size="14.00">impexp</text>
</g>
<!-- n9818&#45;&gt;n9824 -->
<g id="edge72" class="edge"><title>n9818&#45;&gt;n9824</title>
</g>
<!-- n9816&#45;&gt;n9818 -->
<g id="edge53" class="edge"><title>n9816&#45;&gt;n9818</title>
<path fill="none" stroke="lightgray" d="M331.285,-290.047C378.677,-294.009 482.339,-303.709 568.693,-319 572.635,-319.698 576.718,-320.506 580.796,-321.371"/>
<polygon fill="lightgray" stroke="lightgray" points="580.315,-324.85 590.836,-323.608 581.837,-318.017 580.315,-324.85"/>
<text text-anchor="middle" x="464.693" y="-322.8" font-family="Times New Roman,serif" font-size="14.00" fill="lightgray">wff ps</text>
</g>
<!-- n9817 -->
<g id="node42" class="node"><title>n9817</title>
<ellipse fill="none" stroke="lightgray" cx="304.347" cy="-216" rx="27" ry="18"/>
<text text-anchor="middle" x="304.347" y="-212.3" font-family="Times New Roman,serif" font-size="14.00" fill="lightgray">wch</text>
</g>
<!-- n9816&#45;&gt;n9817 -->
<g id="edge57" class="edge"><title>n9816&#45;&gt;n9817</title>
</g>
<!-- n9817&#45;&gt;n9818 -->
<g id="edge54" class="edge"><title>n9817&#45;&gt;n9818</title>
<path fill="none" stroke="lightgray" d="M331.447,-216.732C380.895,-219.156 490.295,-229.555 568.693,-274 582.936,-282.074 595.694,-295.07 605.299,-306.716"/>
<polygon fill="lightgray" stroke="lightgray" points="602.778,-309.172 611.712,-314.867 608.28,-304.843 602.778,-309.172"/>
<text text-anchor="middle" x="464.693" y="-277.8" font-family="Times New Roman,serif" font-size="14.00" fill="lightgray">wff ch</text>
</g>
<!-- n9819 -->
<g id="node43" class="node"><title>n9819</title>
<ellipse fill="none" stroke="lightgray" cx="304.347" cy="-162" rx="27" ry="18"/>
<text text-anchor="middle" x="304.347" y="-158.3" font-family="Times New Roman,serif" font-size="14.00" fill="lightgray">wph</text>
</g>
<!-- n9819&#45;&gt;n9824 -->
<g id="edge58" class="edge"><title>n9819&#45;&gt;n9824</title>
<path fill="none" stroke="lightgray" d="M331.373,-162C384.956,-162 508.256,-162 576.249,-162"/>
<polygon fill="lightgray" stroke="lightgray" points="576.667,-165.5 586.667,-162 576.667,-158.5 576.667,-165.5"/>
<text text-anchor="middle" x="464.693" y="-165.8" font-family="Times New Roman,serif" font-size="14.00" fill="lightgray">wff ph</text>
</g>
<!-- n9821 -->
<g id="node46" class="node"><title>n9821</title>
<ellipse fill="none" stroke="lightgray" cx="304.347" cy="-90" rx="27" ry="18"/>
<text text-anchor="middle" x="304.347" y="-86.3" font-family="Times New Roman,serif" font-size="14.00" fill="lightgray">wn</text>
</g>
<!-- n9819&#45;&gt;n9821 -->
<g id="edge64" class="edge"><title>n9819&#45;&gt;n9821</title>
</g>
<!-- n9824&#45;&gt;n9825 -->
<g id="edge63" class="edge"><title>n9824&#45;&gt;n9825</title>
<path fill="none" stroke="black" d="M661.026,-166.613C737.955,-178.62 919.519,-218.391 1005.09,-334 1047.78,-391.686 1054.62,-616.79 1055.69,-697.229"/>
<polygon fill="black" stroke="black" points="1052.2,-697.626 1055.81,-707.586 1059.2,-697.548 1052.2,-697.626"/>
<text text-anchor="middle" x="842.587" y="-337.8" font-family="Times New Roman,serif" font-size="14.00">|&#45; ( ( ( ph / &#45;. ch ) &#45;&gt; &#45;. ps ) &lt;&#45;&gt; ( ph &#45;&gt; ( &#45;. ch &#45;&gt; &#45;. ps ) ) )</text>
</g>
<!-- n9820 -->
<g id="node45" class="node"><title>n9820</title>
<ellipse fill="none" stroke="lightgray" cx="154" cy="-90" rx="27" ry="18"/>
<text text-anchor="middle" x="154" y="-86.3" font-family="Times New Roman,serif" font-size="14.00" fill="lightgray">wch</text>
</g>
<!-- n9820&#45;&gt;n9821 -->
<g id="edge59" class="edge"><title>n9820&#45;&gt;n9821</title>
<path fill="none" stroke="lightgray" d="M181.18,-90C204.972,-90 240.308,-90 266.865,-90"/>
<polygon fill="lightgray" stroke="lightgray" points="266.929,-93.5001 276.929,-90 266.929,-86.5001 266.929,-93.5001"/>
<text text-anchor="middle" x="223.5" y="-93.8" font-family="Times New Roman,serif" font-size="14.00" fill="lightgray">wff ch</text>
</g>
<!-- n9821&#45;&gt;n9824 -->
<g id="edge60" class="edge"><title>n9821&#45;&gt;n9824</title>
<path fill="none" stroke="lightgray" d="M331.038,-93.9789C378.462,-101.586 482.761,-119.544 568.693,-143 573.966,-144.439 579.467,-146.124 584.861,-147.886"/>
<polygon fill="lightgray" stroke="lightgray" points="583.787,-151.218 594.382,-151.103 586.028,-144.586 583.787,-151.218"/>
<text text-anchor="middle" x="464.693" y="-146.8" font-family="Times New Roman,serif" font-size="14.00" fill="lightgray">wff &#45;. ch</text>
</g>
<!-- n9823 -->
<g id="node48" class="node"><title>n9823</title>
<ellipse fill="none" stroke="lightgray" cx="304.347" cy="-18" rx="27" ry="18"/>
<text text-anchor="middle" x="304.347" y="-14.3" font-family="Times New Roman,serif" font-size="14.00" fill="lightgray">wn</text>
</g>
<!-- n9821&#45;&gt;n9823 -->
<g id="edge65" class="edge"><title>n9821&#45;&gt;n9823</title>
</g>
<!-- n9822 -->
<g id="node47" class="node"><title>n9822</title>
<ellipse fill="none" stroke="lightgray" cx="154" cy="-18" rx="27" ry="18"/>
<text text-anchor="middle" x="154" y="-14.3" font-family="Times New Roman,serif" font-size="14.00" fill="lightgray">wps</text>
</g>
<!-- n9822&#45;&gt;n9823 -->
<g id="edge61" class="edge"><title>n9822&#45;&gt;n9823</title>
<path fill="none" stroke="lightgray" d="M181.18,-18C204.972,-18 240.308,-18 266.865,-18"/>
<polygon fill="lightgray" stroke="lightgray" points="266.929,-21.5001 276.929,-18 266.929,-14.5001 266.929,-21.5001"/>
<text text-anchor="middle" x="223.5" y="-21.8" font-family="Times New Roman,serif" font-size="14.00" fill="lightgray">wff ps</text>
</g>
<!-- n9823&#45;&gt;n9824 -->
<g id="edge62" class="edge"><title>n9823&#45;&gt;n9824</title>
<path fill="none" stroke="lightgray" d="M331.401,-18.1692C381.726,-19.7137 493.918,-29.2002 568.693,-81 587.994,-94.3708 602.411,-116.953 611.584,-134.882"/>
<polygon fill="lightgray" stroke="lightgray" points="608.626,-136.804 616.138,-144.275 614.925,-133.75 608.626,-136.804"/>
<text text-anchor="middle" x="464.693" y="-84.8" font-family="Times New Roman,serif" font-size="14.00" fill="lightgray">wff &#45;. ps</text>
</g>
</g>
</svg>
