<?xml version="1.0" encoding="UTF-8" standalone="no"?>
<!DOCTYPE svg PUBLIC "-//W3C//DTD SVG 1.1//EN"
 "http://www.w3.org/Graphics/SVG/1.1/DTD/svg11.dtd">
<!-- Generated by graphviz version 2.38.0 (20140413.2041)
 -->
<!-- Title: proof_pm4_25 Pages: 1 -->
<svg width="656pt" height="228pt"
 viewBox="0.00 0.00 655.98 228.00" xmlns="http://www.w3.org/2000/svg" xmlns:xlink="http://www.w3.org/1999/xlink">
<g id="graph0" class="graph" transform="scale(1 1) rotate(0) translate(4 224)">
<title>proof_pm4_25</title>
<polygon fill="white" stroke="none" points="-4,4 -4,-224 651.983,-224 651.983,4 -4,4"/>
<!-- n8828 -->
<g id="node1" class="node"><title>n8828</title>
<ellipse fill="none" stroke="lightgray" cx="27" cy="-202" rx="27" ry="18"/>
<text text-anchor="middle" x="27" y="-198.3" font-family="Times New Roman,serif" font-size="14.00" fill="lightgray">wph</text>
</g>
<!-- n8830 -->
<g id="node2" class="node"><title>n8830</title>
<ellipse fill="none" stroke="lightgray" cx="159.497" cy="-162" rx="27" ry="18"/>
<text text-anchor="middle" x="159.497" y="-158.3" font-family="Times New Roman,serif" font-size="14.00" fill="lightgray">wo</text>
</g>
<!-- n8828&#45;&gt;n8830 -->
<g id="edge1" class="edge"><title>n8828&#45;&gt;n8830</title>
<path fill="none" stroke="lightgray" d="M51.9352,-194.663C72.4459,-188.376 102.209,-179.253 125.07,-172.246"/>
<polygon fill="lightgray" stroke="lightgray" points="126.178,-175.567 134.714,-169.29 124.127,-168.874 126.178,-175.567"/>
<text text-anchor="middle" x="90.5" y="-190.8" font-family="Times New Roman,serif" font-size="14.00" fill="lightgray">wff ph</text>
</g>
<!-- n8829 -->
<g id="node3" class="node"><title>n8829</title>
<ellipse fill="none" stroke="lightgray" cx="27" cy="-130" rx="27" ry="18"/>
<text text-anchor="middle" x="27" y="-126.3" font-family="Times New Roman,serif" font-size="14.00" fill="lightgray">wph</text>
</g>
<!-- n8828&#45;&gt;n8829 -->
<g id="edge4" class="edge"><title>n8828&#45;&gt;n8829</title>
</g>
<!-- n8834 -->
<g id="node4" class="node"><title>n8834</title>
<ellipse fill="cyan" stroke="black" cx="390.741" cy="-90" rx="35.9954" ry="18"/>
<text text-anchor="middle" x="390.741" y="-86.3" font-family="Times New Roman,serif" font-size="14.00">bicomi</text>
</g>
<!-- n8830&#45;&gt;n8834 -->
<g id="edge3" class="edge"><title>n8830&#45;&gt;n8834</title>
<path fill="none" stroke="lightgray" d="M184.606,-155.208C218.71,-145.498 282.914,-126.846 336.994,-109 341.838,-107.402 346.909,-105.661 351.912,-103.904"/>
<polygon fill="lightgray" stroke="lightgray" points="353.122,-107.189 361.369,-100.538 350.774,-100.594 353.122,-107.189"/>
<text text-anchor="middle" x="273.494" y="-151.8" font-family="Times New Roman,serif" font-size="14.00" fill="lightgray">wff ( ph / ph )</text>
</g>
<!-- n8831 -->
<g id="node5" class="node"><title>n8831</title>
<ellipse fill="none" stroke="lightgray" cx="159.497" cy="-90" rx="27" ry="18"/>
<text text-anchor="middle" x="159.497" y="-86.3" font-family="Times New Roman,serif" font-size="14.00" fill="lightgray">wph</text>
</g>
<!-- n8830&#45;&gt;n8831 -->
<g id="edge9" class="edge"><title>n8830&#45;&gt;n8831</title>
</g>
<!-- n8829&#45;&gt;n8830 -->
<g id="edge2" class="edge"><title>n8829&#45;&gt;n8830</title>
<path fill="none" stroke="lightgray" d="M52.902,-135.15C68.9676,-138.567 90.2832,-143.277 109,-148 114.066,-149.278 119.401,-150.703 124.618,-152.141"/>
<polygon fill="lightgray" stroke="lightgray" points="123.829,-155.555 134.403,-154.888 125.72,-148.815 123.829,-155.555"/>
<text text-anchor="middle" x="90.5" y="-151.8" font-family="Times New Roman,serif" font-size="14.00" fill="lightgray">wff ph</text>
</g>
<!-- QED -->
<g id="node8" class="node"><title>QED</title>
</g>
<!-- n8834&#45;&gt;QED -->
<g id="edge8" class="edge"><title>n8834&#45;&gt;QED</title>
<path fill="none" stroke="black" d="M426.557,-90C467.85,-90 536.463,-90 579.285,-90"/>
<polygon fill="black" stroke="black" points="579.321,-93.5001 589.321,-90 579.321,-86.5001 579.321,-93.5001"/>
<text text-anchor="middle" x="507.988" y="-93.8" font-family="Times New Roman,serif" font-size="14.00">|&#45; ( ph &lt;&#45;&gt; ( ph / ph ) )</text>
</g>
<!-- n8831&#45;&gt;n8834 -->
<g id="edge5" class="edge"><title>n8831&#45;&gt;n8834</title>
<path fill="none" stroke="lightgray" d="M186.794,-90C225.281,-90 297.479,-90 344.571,-90"/>
<polygon fill="lightgray" stroke="lightgray" points="344.799,-93.5001 354.799,-90 344.799,-86.5001 344.799,-93.5001"/>
<text text-anchor="middle" x="273.494" y="-93.8" font-family="Times New Roman,serif" font-size="14.00" fill="lightgray">wff ph</text>
</g>
<!-- n8833 -->
<g id="node7" class="node"><title>n8833</title>
<ellipse fill="cyan" stroke="black" cx="159.497" cy="-18" rx="32.4942" ry="18"/>
<text text-anchor="middle" x="159.497" y="-14.3" font-family="Times New Roman,serif" font-size="14.00">oridm</text>
</g>
<!-- n8831&#45;&gt;n8833 -->
<g id="edge10" class="edge"><title>n8831&#45;&gt;n8833</title>
</g>
<!-- n8832 -->
<g id="node6" class="node"><title>n8832</title>
<ellipse fill="none" stroke="lightgray" cx="27" cy="-18" rx="27" ry="18"/>
<text text-anchor="middle" x="27" y="-14.3" font-family="Times New Roman,serif" font-size="14.00" fill="lightgray">wph</text>
</g>
<!-- n8832&#45;&gt;n8833 -->
<g id="edge6" class="edge"><title>n8832&#45;&gt;n8833</title>
<path fill="none" stroke="lightgray" d="M54.0944,-18C72.0379,-18 96.2504,-18 116.841,-18"/>
<polygon fill="lightgray" stroke="lightgray" points="116.919,-21.5001 126.919,-18 116.919,-14.5001 116.919,-21.5001"/>
<text text-anchor="middle" x="90.5" y="-21.8" font-family="Times New Roman,serif" font-size="14.00" fill="lightgray">wff ph</text>
</g>
<!-- n8833&#45;&gt;n8834 -->
<g id="edge7" class="edge"><title>n8833&#45;&gt;n8834</title>
<path fill="none" stroke="black" d="M188.767,-25.9788C223.744,-35.9678 285.041,-53.8562 336.994,-71 341.838,-72.5984 346.909,-74.3387 351.912,-76.0957"/>
<polygon fill="black" stroke="black" points="350.774,-79.4058 361.369,-79.4622 353.122,-72.8112 350.774,-79.4058"/>
<text text-anchor="middle" x="273.494" y="-74.8" font-family="Times New Roman,serif" font-size="14.00">|&#45; ( ( ph / ph ) &lt;&#45;&gt; ph )</text>
</g>
</g>
</svg>
