<?xml version="1.0" encoding="UTF-8" standalone="no"?>
<!DOCTYPE svg PUBLIC "-//W3C//DTD SVG 1.1//EN"
 "http://www.w3.org/Graphics/SVG/1.1/DTD/svg11.dtd">
<!-- Generated by graphviz version 2.38.0 (20140413.2041)
 -->
<!-- Title: proof_pm4_63 Pages: 1 -->
<svg width="1134pt" height="305pt"
 viewBox="0.00 0.00 1133.78 305.00" xmlns="http://www.w3.org/2000/svg" xmlns:xlink="http://www.w3.org/1999/xlink">
<g id="graph0" class="graph" transform="scale(1 1) rotate(0) translate(4 301)">
<title>proof_pm4_63</title>
<polygon fill="white" stroke="none" points="-4,4 -4,-301 1129.78,-301 1129.78,4 -4,4"/>
<!-- n7669 -->
<g id="node1" class="node"><title>n7669</title>
<ellipse fill="none" stroke="lightgray" cx="293" cy="-279" rx="27" ry="18"/>
<text text-anchor="middle" x="293" y="-275.3" font-family="Times New Roman,serif" font-size="14.00" fill="lightgray">wph</text>
</g>
<!-- n7671 -->
<g id="node2" class="node"><title>n7671</title>
<ellipse fill="none" stroke="lightgray" cx="485.897" cy="-221" rx="27" ry="18"/>
<text text-anchor="middle" x="485.897" y="-217.3" font-family="Times New Roman,serif" font-size="14.00" fill="lightgray">wa</text>
</g>
<!-- n7669&#45;&gt;n7671 -->
<g id="edge1" class="edge"><title>n7669&#45;&gt;n7671</title>
<path fill="none" stroke="lightgray" d="M317.994,-271.99C346.612,-263.593 395.874,-249.025 438,-236 442.344,-234.657 446.907,-233.224 451.411,-231.798"/>
<polygon fill="lightgray" stroke="lightgray" points="452.602,-235.091 461.068,-228.72 450.477,-228.422 452.602,-235.091"/>
<text text-anchor="middle" x="388" y="-268.8" font-family="Times New Roman,serif" font-size="14.00" fill="lightgray">wff ph</text>
</g>
<!-- n7670 -->
<g id="node3" class="node"><title>n7670</title>
<ellipse fill="none" stroke="lightgray" cx="293" cy="-207" rx="27" ry="18"/>
<text text-anchor="middle" x="293" y="-203.3" font-family="Times New Roman,serif" font-size="14.00" fill="lightgray">wps</text>
</g>
<!-- n7669&#45;&gt;n7670 -->
<g id="edge4" class="edge"><title>n7669&#45;&gt;n7670</title>
</g>
<!-- n7680 -->
<g id="node4" class="node"><title>n7680</title>
<ellipse fill="cyan" stroke="black" cx="791.542" cy="-149" rx="35.9954" ry="18"/>
<text text-anchor="middle" x="791.542" y="-145.3" font-family="Times New Roman,serif" font-size="14.00">bicomi</text>
</g>
<!-- n7671&#45;&gt;n7680 -->
<g id="edge3" class="edge"><title>n7671&#45;&gt;n7680</title>
<path fill="none" stroke="lightgray" d="M512.464,-216.799C558.156,-209.026 656.645,-191.068 737.795,-168 742.815,-166.573 748.047,-164.91 753.181,-163.172"/>
<polygon fill="lightgray" stroke="lightgray" points="754.574,-166.393 762.853,-159.782 752.258,-159.787 754.574,-166.393"/>
<text text-anchor="middle" x="635.795" y="-216.8" font-family="Times New Roman,serif" font-size="14.00" fill="lightgray">wff ( ph /\ ps )</text>
</g>
<!-- n7676 -->
<g id="node9" class="node"><title>n7676</title>
<ellipse fill="none" stroke="lightgray" cx="485.897" cy="-149" rx="27" ry="18"/>
<text text-anchor="middle" x="485.897" y="-145.3" font-family="Times New Roman,serif" font-size="14.00" fill="lightgray">wn</text>
</g>
<!-- n7671&#45;&gt;n7676 -->
<g id="edge16" class="edge"><title>n7671&#45;&gt;n7676</title>
</g>
<!-- n7670&#45;&gt;n7671 -->
<g id="edge2" class="edge"><title>n7670&#45;&gt;n7671</title>
<path fill="none" stroke="lightgray" d="M320.143,-208.917C353.465,-211.361 411.236,-215.598 448.756,-218.349"/>
<polygon fill="lightgray" stroke="lightgray" points="448.535,-221.843 458.764,-219.083 449.047,-214.861 448.535,-221.843"/>
<text text-anchor="middle" x="388" y="-221.8" font-family="Times New Roman,serif" font-size="14.00" fill="lightgray">wff ps</text>
</g>
<!-- QED -->
<g id="node13" class="node"><title>QED</title>
</g>
<!-- n7680&#45;&gt;QED -->
<g id="edge15" class="edge"><title>n7680&#45;&gt;QED</title>
<path fill="none" stroke="black" d="M827.299,-149C884.341,-149 997.41,-149 1056.89,-149"/>
<polygon fill="black" stroke="black" points="1057,-152.5 1067,-149 1057,-145.5 1057,-152.5"/>
<text text-anchor="middle" x="947.288" y="-152.8" font-family="Times New Roman,serif" font-size="14.00">|&#45; ( &#45;. ( ph &#45;&gt; &#45;. ps ) &lt;&#45;&gt; ( ph /\ ps ) )</text>
</g>
<!-- n7672 -->
<g id="node5" class="node"><title>n7672</title>
<ellipse fill="none" stroke="lightgray" cx="154" cy="-194" rx="27" ry="18"/>
<text text-anchor="middle" x="154" y="-190.3" font-family="Times New Roman,serif" font-size="14.00" fill="lightgray">wph</text>
</g>
<!-- n7675 -->
<g id="node6" class="node"><title>n7675</title>
<ellipse fill="none" stroke="lightgray" cx="293" cy="-149" rx="27" ry="18"/>
<text text-anchor="middle" x="293" y="-145.3" font-family="Times New Roman,serif" font-size="14.00" fill="lightgray">wi</text>
</g>
<!-- n7672&#45;&gt;n7675 -->
<g id="edge5" class="edge"><title>n7672&#45;&gt;n7675</title>
<path fill="none" stroke="lightgray" d="M178.551,-186.264C200.606,-179.02 233.791,-168.12 258.581,-159.977"/>
<polygon fill="lightgray" stroke="lightgray" points="259.889,-163.231 268.298,-156.785 257.705,-156.581 259.889,-163.231"/>
<text text-anchor="middle" x="223.5" y="-183.8" font-family="Times New Roman,serif" font-size="14.00" fill="lightgray">wff ph</text>
</g>
<!-- n7674 -->
<g id="node8" class="node"><title>n7674</title>
<ellipse fill="none" stroke="lightgray" cx="154" cy="-122" rx="27" ry="18"/>
<text text-anchor="middle" x="154" y="-118.3" font-family="Times New Roman,serif" font-size="14.00" fill="lightgray">wn</text>
</g>
<!-- n7672&#45;&gt;n7674 -->
<g id="edge9" class="edge"><title>n7672&#45;&gt;n7674</title>
</g>
<!-- n7675&#45;&gt;n7676 -->
<g id="edge8" class="edge"><title>n7675&#45;&gt;n7676</title>
<path fill="none" stroke="lightgray" d="M320.143,-149C353.465,-149 411.236,-149 448.756,-149"/>
<polygon fill="lightgray" stroke="lightgray" points="448.764,-152.5 458.764,-149 448.764,-145.5 448.764,-152.5"/>
<text text-anchor="middle" x="388" y="-152.8" font-family="Times New Roman,serif" font-size="14.00" fill="lightgray">wff ( ph &#45;&gt; &#45;. ps )</text>
</g>
<!-- n7673 -->
<g id="node7" class="node"><title>n7673</title>
<ellipse fill="none" stroke="lightgray" cx="27" cy="-122" rx="27" ry="18"/>
<text text-anchor="middle" x="27" y="-118.3" font-family="Times New Roman,serif" font-size="14.00" fill="lightgray">wps</text>
</g>
<!-- n7673&#45;&gt;n7674 -->
<g id="edge6" class="edge"><title>n7673&#45;&gt;n7674</title>
<path fill="none" stroke="lightgray" d="M54.2041,-122C72.3711,-122 96.7994,-122 116.82,-122"/>
<polygon fill="lightgray" stroke="lightgray" points="116.83,-125.5 126.83,-122 116.83,-118.5 116.83,-125.5"/>
<text text-anchor="middle" x="90.5" y="-125.8" font-family="Times New Roman,serif" font-size="14.00" fill="lightgray">wff ps</text>
</g>
<!-- n7674&#45;&gt;n7675 -->
<g id="edge7" class="edge"><title>n7674&#45;&gt;n7675</title>
<path fill="none" stroke="lightgray" d="M180.128,-126.952C201.526,-131.169 232.517,-137.277 256.457,-141.995"/>
<polygon fill="lightgray" stroke="lightgray" points="256.079,-145.488 266.567,-143.988 257.433,-138.62 256.079,-145.488"/>
<text text-anchor="middle" x="223.5" y="-144.8" font-family="Times New Roman,serif" font-size="14.00" fill="lightgray">wff &#45;. ps</text>
</g>
<!-- n7676&#45;&gt;n7680 -->
<g id="edge10" class="edge"><title>n7676&#45;&gt;n7680</title>
<path fill="none" stroke="lightgray" d="M513.049,-149C564.83,-149 680.96,-149 745.364,-149"/>
<polygon fill="lightgray" stroke="lightgray" points="745.619,-152.5 755.619,-149 745.619,-145.5 745.619,-152.5"/>
<text text-anchor="middle" x="635.795" y="-152.8" font-family="Times New Roman,serif" font-size="14.00" fill="lightgray">wff &#45;. ( ph &#45;&gt; &#45;. ps )</text>
</g>
<!-- n7679 -->
<g id="node11" class="node"><title>n7679</title>
<ellipse fill="lawngreen" stroke="black" cx="485.897" cy="-77" rx="29.795" ry="18"/>
<text text-anchor="middle" x="485.897" y="-73.3" font-family="Times New Roman,serif" font-size="14.00">df&#45;an</text>
</g>
<!-- n7676&#45;&gt;n7679 -->
<g id="edge17" class="edge"><title>n7676&#45;&gt;n7679</title>
</g>
<!-- n7677 -->
<g id="node10" class="node"><title>n7677</title>
<ellipse fill="none" stroke="lightgray" cx="293" cy="-90" rx="27" ry="18"/>
<text text-anchor="middle" x="293" y="-86.3" font-family="Times New Roman,serif" font-size="14.00" fill="lightgray">wph</text>
</g>
<!-- n7677&#45;&gt;n7679 -->
<g id="edge11" class="edge"><title>n7677&#45;&gt;n7679</title>
<path fill="none" stroke="lightgray" d="M320.143,-88.2197C352.625,-86.0077 408.339,-82.2136 445.88,-79.657"/>
<polygon fill="lightgray" stroke="lightgray" points="446.214,-83.1425 455.953,-78.9711 445.738,-76.1587 446.214,-83.1425"/>
<text text-anchor="middle" x="388" y="-90.8" font-family="Times New Roman,serif" font-size="14.00" fill="lightgray">wff ph</text>
</g>
<!-- n7678 -->
<g id="node12" class="node"><title>n7678</title>
<ellipse fill="none" stroke="lightgray" cx="293" cy="-18" rx="27" ry="18"/>
<text text-anchor="middle" x="293" y="-14.3" font-family="Times New Roman,serif" font-size="14.00" fill="lightgray">wps</text>
</g>
<!-- n7677&#45;&gt;n7678 -->
<g id="edge14" class="edge"><title>n7677&#45;&gt;n7678</title>
</g>
<!-- n7679&#45;&gt;n7680 -->
<g id="edge13" class="edge"><title>n7679&#45;&gt;n7680</title>
<path fill="none" stroke="black" d="M515.05,-81.6423C561.789,-89.6392 658.144,-107.358 737.795,-130 742.815,-131.427 748.047,-133.09 753.181,-134.828"/>
<polygon fill="black" stroke="black" points="752.258,-138.213 762.853,-138.218 754.574,-131.607 752.258,-138.213"/>
<text text-anchor="middle" x="635.795" y="-133.8" font-family="Times New Roman,serif" font-size="14.00">|&#45; ( ( ph /\ ps ) &lt;&#45;&gt; &#45;. ( ph &#45;&gt; &#45;. ps ) )</text>
</g>
<!-- n7678&#45;&gt;n7679 -->
<g id="edge12" class="edge"><title>n7678&#45;&gt;n7679</title>
<path fill="none" stroke="lightgray" d="M317.98,-25.223C346.585,-33.8632 395.835,-48.8155 438,-62 441.748,-63.1719 445.661,-64.4062 449.559,-65.6429"/>
<polygon fill="lightgray" stroke="lightgray" points="448.525,-68.9866 459.115,-68.6872 450.649,-62.3169 448.525,-68.9866"/>
<text text-anchor="middle" x="388" y="-65.8" font-family="Times New Roman,serif" font-size="14.00" fill="lightgray">wff ps</text>
</g>
</g>
</svg>
