<?xml version="1.0" encoding="UTF-8" standalone="no"?>
<!DOCTYPE svg PUBLIC "-//W3C//DTD SVG 1.1//EN"
 "http://www.w3.org/Graphics/SVG/1.1/DTD/svg11.dtd">
<!-- Generated by graphviz version 2.38.0 (20140413.2041)
 -->
<!-- Title: proof_pm4_43 Pages: 1 -->
<svg width="1260pt" height="719pt"
 viewBox="0.00 0.00 1260.28 719.00" xmlns="http://www.w3.org/2000/svg" xmlns:xlink="http://www.w3.org/1999/xlink">
<g id="graph0" class="graph" transform="scale(1 1) rotate(0) translate(4 715)">
<title>proof_pm4_43</title>
<polygon fill="white" stroke="none" points="-4,4 -4,-715 1256.28,-715 1256.28,4 -4,4"/>
<!-- n16407 -->
<g id="node1" class="node"><title>n16407</title>
<ellipse fill="none" stroke="lightgray" cx="500.24" cy="-567" rx="27" ry="18"/>
<text text-anchor="middle" x="500.24" y="-563.3" font-family="Times New Roman,serif" font-size="14.00" fill="lightgray">wph</text>
</g>
<!-- n16435 -->
<g id="node2" class="node"><title>n16435</title>
<ellipse fill="cyan" stroke="black" cx="909.788" cy="-423" rx="27" ry="18"/>
<text text-anchor="middle" x="909.788" y="-419.3" font-family="Times New Roman,serif" font-size="14.00">bitri</text>
</g>
<!-- n16407&#45;&gt;n16435 -->
<g id="edge1" class="edge"><title>n16407&#45;&gt;n16435</title>
<path fill="none" stroke="lightgray" d="M527.102,-570.392C591.12,-577.348 759.405,-586.682 864.788,-510 884.368,-495.753 895.805,-470.259 902.085,-450.539"/>
<polygon fill="lightgray" stroke="lightgray" points="905.473,-451.422 904.915,-440.842 898.754,-449.461 905.473,-451.422"/>
<text text-anchor="middle" x="706.788" y="-577.8" font-family="Times New Roman,serif" font-size="14.00" fill="lightgray">wff ph</text>
</g>
<!-- n16413 -->
<g id="node4" class="node"><title>n16413</title>
<ellipse fill="none" stroke="lightgray" cx="500.24" cy="-495" rx="27" ry="18"/>
<text text-anchor="middle" x="500.24" y="-491.3" font-family="Times New Roman,serif" font-size="14.00" fill="lightgray">wo</text>
</g>
<!-- n16407&#45;&gt;n16413 -->
<g id="edge40" class="edge"><title>n16407&#45;&gt;n16413</title>
</g>
<!-- QED -->
<g id="node30" class="node"><title>QED</title>
</g>
<!-- n16435&#45;&gt;QED -->
<g id="edge39" class="edge"><title>n16435&#45;&gt;QED</title>
<path fill="none" stroke="black" d="M936.789,-423C991.595,-423 1119.21,-423 1183.52,-423"/>
<polygon fill="black" stroke="black" points="1183.65,-426.5 1193.65,-423 1183.65,-419.5 1183.65,-426.5"/>
<text text-anchor="middle" x="1065.29" y="-426.8" font-family="Times New Roman,serif" font-size="14.00">|&#45; ( ph &lt;&#45;&gt; ( ( ph / ps ) / ( ph / &#45;. ps ) ) )</text>
</g>
<!-- n16408 -->
<g id="node3" class="node"><title>n16408</title>
<ellipse fill="none" stroke="lightgray" cx="304.347" cy="-648" rx="27" ry="18"/>
<text text-anchor="middle" x="304.347" y="-644.3" font-family="Times New Roman,serif" font-size="14.00" fill="lightgray">wph</text>
</g>
<!-- n16408&#45;&gt;n16413 -->
<g id="edge2" class="edge"><title>n16408&#45;&gt;n16413</title>
<path fill="none" stroke="lightgray" d="M328.872,-640.293C360.045,-629.122 415.33,-605.877 451.693,-571 463.191,-559.972 461.318,-553.553 469.693,-540 473.747,-533.441 478.256,-526.436 482.507,-519.953"/>
<polygon fill="lightgray" stroke="lightgray" points="485.481,-521.801 488.076,-511.529 479.641,-517.941 485.481,-521.801"/>
<text text-anchor="middle" x="406.193" y="-630.8" font-family="Times New Roman,serif" font-size="14.00" fill="lightgray">wff ph</text>
</g>
<!-- n16412 -->
<g id="node6" class="node"><title>n16412</title>
<ellipse fill="none" stroke="lightgray" cx="304.347" cy="-576" rx="27" ry="18"/>
<text text-anchor="middle" x="304.347" y="-572.3" font-family="Times New Roman,serif" font-size="14.00" fill="lightgray">wa</text>
</g>
<!-- n16408&#45;&gt;n16412 -->
<g id="edge9" class="edge"><title>n16408&#45;&gt;n16412</title>
</g>
<!-- n16413&#45;&gt;n16435 -->
<g id="edge8" class="edge"><title>n16413&#45;&gt;n16435</title>
<path fill="none" stroke="lightgray" d="M527.292,-493.553C587.672,-489.695 741.443,-476.961 864.788,-442 869.231,-440.741 873.815,-439.134 878.271,-437.391"/>
<polygon fill="lightgray" stroke="lightgray" points="879.844,-440.527 887.716,-433.436 877.14,-434.07 879.844,-440.527"/>
<text text-anchor="middle" x="706.788" y="-494.8" font-family="Times New Roman,serif" font-size="14.00" fill="lightgray">wff ( ph / ( ps / &#45;. ps ) )</text>
</g>
<!-- n16421 -->
<g id="node12" class="node"><title>n16421</title>
<ellipse fill="none" stroke="lightgray" cx="500.24" cy="-423" rx="27" ry="18"/>
<text text-anchor="middle" x="500.24" y="-419.3" font-family="Times New Roman,serif" font-size="14.00" fill="lightgray">wa</text>
</g>
<!-- n16413&#45;&gt;n16421 -->
<g id="edge41" class="edge"><title>n16413&#45;&gt;n16421</title>
</g>
<!-- n16409 -->
<g id="node5" class="node"><title>n16409</title>
<ellipse fill="none" stroke="lightgray" cx="154" cy="-693" rx="27" ry="18"/>
<text text-anchor="middle" x="154" y="-689.3" font-family="Times New Roman,serif" font-size="14.00" fill="lightgray">wps</text>
</g>
<!-- n16409&#45;&gt;n16412 -->
<g id="edge3" class="edge"><title>n16409&#45;&gt;n16412</title>
<path fill="none" stroke="lightgray" d="M173.555,-680.202C192.602,-666.887 222.92,-645.199 248,-625 258.776,-616.322 270.292,-606.262 280.013,-597.524"/>
<polygon fill="lightgray" stroke="lightgray" points="282.643,-599.864 287.701,-590.554 277.942,-594.678 282.643,-599.864"/>
<text text-anchor="middle" x="223.5" y="-664.8" font-family="Times New Roman,serif" font-size="14.00" fill="lightgray">wff ps</text>
</g>
<!-- n16411 -->
<g id="node8" class="node"><title>n16411</title>
<ellipse fill="none" stroke="lightgray" cx="154" cy="-621" rx="27" ry="18"/>
<text text-anchor="middle" x="154" y="-617.3" font-family="Times New Roman,serif" font-size="14.00" fill="lightgray">wn</text>
</g>
<!-- n16409&#45;&gt;n16411 -->
<g id="edge7" class="edge"><title>n16409&#45;&gt;n16411</title>
</g>
<!-- n16412&#45;&gt;n16413 -->
<g id="edge6" class="edge"><title>n16412&#45;&gt;n16413</title>
<path fill="none" stroke="lightgray" d="M327.589,-566.708C361.976,-552.343 428.182,-524.685 467.562,-508.234"/>
<polygon fill="lightgray" stroke="lightgray" points="469.082,-511.392 476.96,-504.308 466.384,-504.933 469.082,-511.392"/>
<text text-anchor="middle" x="406.193" y="-555.8" font-family="Times New Roman,serif" font-size="14.00" fill="lightgray">wff ( ps / &#45;. ps )</text>
</g>
<!-- n16410 -->
<g id="node7" class="node"><title>n16410</title>
<ellipse fill="none" stroke="lightgray" cx="27" cy="-621" rx="27" ry="18"/>
<text text-anchor="middle" x="27" y="-617.3" font-family="Times New Roman,serif" font-size="14.00" fill="lightgray">wps</text>
</g>
<!-- n16410&#45;&gt;n16411 -->
<g id="edge4" class="edge"><title>n16410&#45;&gt;n16411</title>
<path fill="none" stroke="lightgray" d="M54.2041,-621C72.3711,-621 96.7994,-621 116.82,-621"/>
<polygon fill="lightgray" stroke="lightgray" points="116.83,-624.5 126.83,-621 116.83,-617.5 116.83,-624.5"/>
<text text-anchor="middle" x="90.5" y="-624.8" font-family="Times New Roman,serif" font-size="14.00" fill="lightgray">wff ps</text>
</g>
<!-- n16411&#45;&gt;n16412 -->
<g id="edge5" class="edge"><title>n16411&#45;&gt;n16412</title>
<path fill="none" stroke="lightgray" d="M178.834,-613.77C203.49,-606.291 242.195,-594.55 269.906,-586.144"/>
<polygon fill="lightgray" stroke="lightgray" points="271.018,-589.464 279.571,-583.212 268.986,-582.766 271.018,-589.464"/>
<text text-anchor="middle" x="223.5" y="-609.8" font-family="Times New Roman,serif" font-size="14.00" fill="lightgray">wff &#45;. ps</text>
</g>
<!-- n16414 -->
<g id="node9" class="node"><title>n16414</title>
<ellipse fill="none" stroke="lightgray" cx="154" cy="-567" rx="27" ry="18"/>
<text text-anchor="middle" x="154" y="-563.3" font-family="Times New Roman,serif" font-size="14.00" fill="lightgray">wph</text>
</g>
<!-- n16416 -->
<g id="node10" class="node"><title>n16416</title>
<ellipse fill="none" stroke="lightgray" cx="304.347" cy="-495" rx="27" ry="18"/>
<text text-anchor="middle" x="304.347" y="-491.3" font-family="Times New Roman,serif" font-size="14.00" fill="lightgray">wo</text>
</g>
<!-- n16414&#45;&gt;n16416 -->
<g id="edge10" class="edge"><title>n16414&#45;&gt;n16416</title>
<path fill="none" stroke="lightgray" d="M176.254,-556.684C201.591,-544.387 244.117,-523.747 272.93,-509.763"/>
<polygon fill="lightgray" stroke="lightgray" points="274.663,-512.812 282.132,-505.297 271.607,-506.514 274.663,-512.812"/>
<text text-anchor="middle" x="223.5" y="-546.8" font-family="Times New Roman,serif" font-size="14.00" fill="lightgray">wff ph</text>
</g>
<!-- n16415 -->
<g id="node11" class="node"><title>n16415</title>
<ellipse fill="none" stroke="lightgray" cx="154" cy="-495" rx="27" ry="18"/>
<text text-anchor="middle" x="154" y="-491.3" font-family="Times New Roman,serif" font-size="14.00" fill="lightgray">wps</text>
</g>
<!-- n16414&#45;&gt;n16415 -->
<g id="edge13" class="edge"><title>n16414&#45;&gt;n16415</title>
</g>
<!-- n16416&#45;&gt;n16421 -->
<g id="edge12" class="edge"><title>n16416&#45;&gt;n16421</title>
<path fill="none" stroke="lightgray" d="M328.499,-486.879C357.422,-476.673 408.383,-458.491 451.693,-442 456.654,-440.111 461.888,-438.069 466.998,-436.049"/>
<polygon fill="lightgray" stroke="lightgray" points="468.572,-439.19 476.566,-432.236 465.98,-432.687 468.572,-439.19"/>
<text text-anchor="middle" x="406.193" y="-478.8" font-family="Times New Roman,serif" font-size="14.00" fill="lightgray">wff ( ph / ps )</text>
</g>
<!-- n16420 -->
<g id="node14" class="node"><title>n16420</title>
<ellipse fill="none" stroke="lightgray" cx="304.347" cy="-423" rx="27" ry="18"/>
<text text-anchor="middle" x="304.347" y="-419.3" font-family="Times New Roman,serif" font-size="14.00" fill="lightgray">wo</text>
</g>
<!-- n16416&#45;&gt;n16420 -->
<g id="edge20" class="edge"><title>n16416&#45;&gt;n16420</title>
</g>
<!-- n16415&#45;&gt;n16416 -->
<g id="edge11" class="edge"><title>n16415&#45;&gt;n16416</title>
<path fill="none" stroke="lightgray" d="M181.18,-495C204.972,-495 240.308,-495 266.865,-495"/>
<polygon fill="lightgray" stroke="lightgray" points="266.929,-498.5 276.929,-495 266.929,-491.5 266.929,-498.5"/>
<text text-anchor="middle" x="223.5" y="-498.8" font-family="Times New Roman,serif" font-size="14.00" fill="lightgray">wff ps</text>
</g>
<!-- n16421&#45;&gt;n16435 -->
<g id="edge19" class="edge"><title>n16421&#45;&gt;n16435</title>
<path fill="none" stroke="lightgray" d="M527.354,-423C597.719,-423 791.408,-423 872.419,-423"/>
<polygon fill="lightgray" stroke="lightgray" points="872.628,-426.5 882.628,-423 872.628,-419.5 872.628,-426.5"/>
<text text-anchor="middle" x="706.788" y="-426.8" font-family="Times New Roman,serif" font-size="14.00" fill="lightgray">wff ( ( ph / ps ) / ( ph / &#45;. ps ) )</text>
</g>
<!-- n16429 -->
<g id="node21" class="node"><title>n16429</title>
<ellipse fill="cyan" stroke="black" cx="500.24" cy="-326" rx="30.5947" ry="18"/>
<text text-anchor="middle" x="500.24" y="-322.3" font-family="Times New Roman,serif" font-size="14.00">biorfi</text>
</g>
<!-- n16421&#45;&gt;n16429 -->
<g id="edge42" class="edge"><title>n16421&#45;&gt;n16429</title>
</g>
<!-- n16417 -->
<g id="node13" class="node"><title>n16417</title>
<ellipse fill="none" stroke="lightgray" cx="154" cy="-441" rx="27" ry="18"/>
<text text-anchor="middle" x="154" y="-437.3" font-family="Times New Roman,serif" font-size="14.00" fill="lightgray">wph</text>
</g>
<!-- n16417&#45;&gt;n16420 -->
<g id="edge14" class="edge"><title>n16417&#45;&gt;n16420</title>
<path fill="none" stroke="lightgray" d="M180.84,-437.865C204.804,-434.957 240.69,-430.603 267.436,-427.357"/>
<polygon fill="lightgray" stroke="lightgray" points="268.049,-430.809 277.554,-426.13 267.205,-423.86 268.049,-430.809"/>
<text text-anchor="middle" x="223.5" y="-438.8" font-family="Times New Roman,serif" font-size="14.00" fill="lightgray">wff ph</text>
</g>
<!-- n16419 -->
<g id="node16" class="node"><title>n16419</title>
<ellipse fill="none" stroke="lightgray" cx="154" cy="-369" rx="27" ry="18"/>
<text text-anchor="middle" x="154" y="-365.3" font-family="Times New Roman,serif" font-size="14.00" fill="lightgray">wn</text>
</g>
<!-- n16417&#45;&gt;n16419 -->
<g id="edge18" class="edge"><title>n16417&#45;&gt;n16419</title>
</g>
<!-- n16420&#45;&gt;n16421 -->
<g id="edge17" class="edge"><title>n16420&#45;&gt;n16421</title>
<path fill="none" stroke="lightgray" d="M331.496,-423C365.416,-423 424.761,-423 463.007,-423"/>
<polygon fill="lightgray" stroke="lightgray" points="463.197,-426.5 473.196,-423 463.196,-419.5 463.197,-426.5"/>
<text text-anchor="middle" x="406.193" y="-426.8" font-family="Times New Roman,serif" font-size="14.00" fill="lightgray">wff ( ph / &#45;. ps )</text>
</g>
<!-- n16418 -->
<g id="node15" class="node"><title>n16418</title>
<ellipse fill="none" stroke="lightgray" cx="27" cy="-369" rx="27" ry="18"/>
<text text-anchor="middle" x="27" y="-365.3" font-family="Times New Roman,serif" font-size="14.00" fill="lightgray">wps</text>
</g>
<!-- n16418&#45;&gt;n16419 -->
<g id="edge15" class="edge"><title>n16418&#45;&gt;n16419</title>
<path fill="none" stroke="lightgray" d="M54.2041,-369C72.3711,-369 96.7994,-369 116.82,-369"/>
<polygon fill="lightgray" stroke="lightgray" points="116.83,-372.5 126.83,-369 116.83,-365.5 116.83,-372.5"/>
<text text-anchor="middle" x="90.5" y="-372.8" font-family="Times New Roman,serif" font-size="14.00" fill="lightgray">wff ps</text>
</g>
<!-- n16419&#45;&gt;n16420 -->
<g id="edge16" class="edge"><title>n16419&#45;&gt;n16420</title>
<path fill="none" stroke="lightgray" d="M178.179,-377.438C203,-386.473 242.588,-400.883 270.588,-411.075"/>
<polygon fill="lightgray" stroke="lightgray" points="269.736,-414.49 280.33,-414.622 272.131,-407.912 269.736,-414.49"/>
<text text-anchor="middle" x="223.5" y="-405.8" font-family="Times New Roman,serif" font-size="14.00" fill="lightgray">wff &#45;. ps</text>
</g>
<!-- n16422 -->
<g id="node17" class="node"><title>n16422</title>
<ellipse fill="none" stroke="lightgray" cx="27" cy="-315" rx="27" ry="18"/>
<text text-anchor="middle" x="27" y="-311.3" font-family="Times New Roman,serif" font-size="14.00" fill="lightgray">wps</text>
</g>
<!-- n16423 -->
<g id="node18" class="node"><title>n16423</title>
<ellipse fill="none" stroke="lightgray" cx="154" cy="-315" rx="27" ry="18"/>
<text text-anchor="middle" x="154" y="-311.3" font-family="Times New Roman,serif" font-size="14.00" fill="lightgray">wn</text>
</g>
<!-- n16422&#45;&gt;n16423 -->
<g id="edge21" class="edge"><title>n16422&#45;&gt;n16423</title>
<path fill="none" stroke="lightgray" d="M54.2041,-315C72.3711,-315 96.7994,-315 116.82,-315"/>
<polygon fill="lightgray" stroke="lightgray" points="116.83,-318.5 126.83,-315 116.83,-311.5 116.83,-318.5"/>
<text text-anchor="middle" x="90.5" y="-318.8" font-family="Times New Roman,serif" font-size="14.00" fill="lightgray">wff ps</text>
</g>
<!-- n16425 -->
<g id="node19" class="node"><title>n16425</title>
<ellipse fill="none" stroke="lightgray" cx="304.347" cy="-360" rx="27" ry="18"/>
<text text-anchor="middle" x="304.347" y="-356.3" font-family="Times New Roman,serif" font-size="14.00" fill="lightgray">wa</text>
</g>
<!-- n16423&#45;&gt;n16425 -->
<g id="edge22" class="edge"><title>n16423&#45;&gt;n16425</title>
<path fill="none" stroke="lightgray" d="M178.834,-322.23C203.49,-329.709 242.195,-341.45 269.906,-349.856"/>
<polygon fill="lightgray" stroke="lightgray" points="268.986,-353.234 279.571,-352.788 271.018,-346.536 268.986,-353.234"/>
<text text-anchor="middle" x="223.5" y="-346.8" font-family="Times New Roman,serif" font-size="14.00" fill="lightgray">wff &#45;. ps</text>
</g>
<!-- n16424 -->
<g id="node20" class="node"><title>n16424</title>
<ellipse fill="none" stroke="lightgray" cx="154" cy="-243" rx="27" ry="18"/>
<text text-anchor="middle" x="154" y="-239.3" font-family="Times New Roman,serif" font-size="14.00" fill="lightgray">wps</text>
</g>
<!-- n16423&#45;&gt;n16424 -->
<g id="edge25" class="edge"><title>n16423&#45;&gt;n16424</title>
</g>
<!-- n16425&#45;&gt;n16429 -->
<g id="edge24" class="edge"><title>n16425&#45;&gt;n16429</title>
<path fill="none" stroke="lightgray" d="M330.695,-355.555C363.723,-349.764 421.8,-339.579 460.401,-332.811"/>
<polygon fill="lightgray" stroke="lightgray" points="461.49,-336.173 470.735,-330.999 460.281,-329.278 461.49,-336.173"/>
<text text-anchor="middle" x="406.193" y="-353.8" font-family="Times New Roman,serif" font-size="14.00" fill="lightgray">wff ( ps / &#45;. ps )</text>
</g>
<!-- n16426 -->
<g id="node22" class="node"><title>n16426</title>
<ellipse fill="none" stroke="lightgray" cx="304.347" cy="-288" rx="27" ry="18"/>
<text text-anchor="middle" x="304.347" y="-284.3" font-family="Times New Roman,serif" font-size="14.00" fill="lightgray">wph</text>
</g>
<!-- n16425&#45;&gt;n16426 -->
<g id="edge30" class="edge"><title>n16425&#45;&gt;n16426</title>
</g>
<!-- n16424&#45;&gt;n16425 -->
<g id="edge23" class="edge"><title>n16424&#45;&gt;n16425</title>
<path fill="none" stroke="lightgray" d="M173.555,-255.798C192.602,-269.113 222.92,-290.801 248,-311 258.776,-319.678 270.292,-329.738 280.013,-338.476"/>
<polygon fill="lightgray" stroke="lightgray" points="277.942,-341.322 287.701,-345.446 282.643,-336.136 277.942,-341.322"/>
<text text-anchor="middle" x="223.5" y="-314.8" font-family="Times New Roman,serif" font-size="14.00" fill="lightgray">wff ps</text>
</g>
<!-- n16429&#45;&gt;n16435 -->
<g id="edge29" class="edge"><title>n16429&#45;&gt;n16435</title>
<path fill="none" stroke="black" d="M530.021,-330.202C592.148,-339.7 743.047,-365.072 864.788,-404 869.095,-405.377 873.556,-407.026 877.912,-408.769"/>
<polygon fill="black" stroke="black" points="876.603,-412.015 887.178,-412.666 879.317,-405.563 876.603,-412.015"/>
<text text-anchor="middle" x="706.788" y="-407.8" font-family="Times New Roman,serif" font-size="14.00">|&#45; ( ph &lt;&#45;&gt; ( ph / ( ps / &#45;. ps ) ) )</text>
</g>
<!-- n16434 -->
<g id="node26" class="node"><title>n16434</title>
<ellipse fill="cyan" stroke="black" cx="500.24" cy="-162" rx="27" ry="18"/>
<text text-anchor="middle" x="500.24" y="-158.3" font-family="Times New Roman,serif" font-size="14.00">ordi</text>
</g>
<!-- n16429&#45;&gt;n16434 -->
<g id="edge43" class="edge"><title>n16429&#45;&gt;n16434</title>
</g>
<!-- n16426&#45;&gt;n16429 -->
<g id="edge26" class="edge"><title>n16426&#45;&gt;n16429</title>
<path fill="none" stroke="lightgray" d="M330.695,-292.968C363.958,-299.487 422.629,-310.985 461.223,-318.549"/>
<polygon fill="lightgray" stroke="lightgray" points="460.57,-321.988 471.056,-320.476 461.916,-315.118 460.57,-321.988"/>
<text text-anchor="middle" x="406.193" y="-319.8" font-family="Times New Roman,serif" font-size="14.00" fill="lightgray">wff ph</text>
</g>
<!-- n16428 -->
<g id="node24" class="node"><title>n16428</title>
<ellipse fill="cyan" stroke="black" cx="304.347" cy="-216" rx="38.1938" ry="18"/>
<text text-anchor="middle" x="304.347" y="-212.3" font-family="Times New Roman,serif" font-size="14.00">pm3.24</text>
</g>
<!-- n16426&#45;&gt;n16428 -->
<g id="edge31" class="edge"><title>n16426&#45;&gt;n16428</title>
</g>
<!-- n16427 -->
<g id="node23" class="node"><title>n16427</title>
<ellipse fill="none" stroke="lightgray" cx="154" cy="-189" rx="27" ry="18"/>
<text text-anchor="middle" x="154" y="-185.3" font-family="Times New Roman,serif" font-size="14.00" fill="lightgray">wps</text>
</g>
<!-- n16427&#45;&gt;n16428 -->
<g id="edge27" class="edge"><title>n16427&#45;&gt;n16428</title>
<path fill="none" stroke="lightgray" d="M180.165,-193.58C201.547,-197.472 232.764,-203.154 258.422,-207.823"/>
<polygon fill="lightgray" stroke="lightgray" points="257.844,-211.276 268.309,-209.623 259.098,-204.389 257.844,-211.276"/>
<text text-anchor="middle" x="223.5" y="-209.8" font-family="Times New Roman,serif" font-size="14.00" fill="lightgray">wff ps</text>
</g>
<!-- n16428&#45;&gt;n16429 -->
<g id="edge28" class="edge"><title>n16428&#45;&gt;n16429</title>
<path fill="none" stroke="black" d="M336.037,-226.158C366.767,-237.106 414.681,-256.329 451.693,-281 460.914,-287.146 470.008,-295.138 477.734,-302.678"/>
<polygon fill="black" stroke="black" points="475.438,-305.334 484.959,-309.983 480.415,-300.412 475.438,-305.334"/>
<text text-anchor="middle" x="406.193" y="-284.8" font-family="Times New Roman,serif" font-size="14.00">|&#45; &#45;. ( ps / &#45;. ps )</text>
</g>
<!-- n16430 -->
<g id="node25" class="node"><title>n16430</title>
<ellipse fill="none" stroke="lightgray" cx="304.347" cy="-162" rx="27" ry="18"/>
<text text-anchor="middle" x="304.347" y="-158.3" font-family="Times New Roman,serif" font-size="14.00" fill="lightgray">wph</text>
</g>
<!-- n16430&#45;&gt;n16434 -->
<g id="edge32" class="edge"><title>n16430&#45;&gt;n16434</title>
<path fill="none" stroke="lightgray" d="M331.496,-162C365.416,-162 424.761,-162 463.007,-162"/>
<polygon fill="lightgray" stroke="lightgray" points="463.197,-165.5 473.196,-162 463.196,-158.5 463.197,-165.5"/>
<text text-anchor="middle" x="406.193" y="-165.8" font-family="Times New Roman,serif" font-size="14.00" fill="lightgray">wff ph</text>
</g>
<!-- n16431 -->
<g id="node27" class="node"><title>n16431</title>
<ellipse fill="none" stroke="lightgray" cx="304.347" cy="-90" rx="27" ry="18"/>
<text text-anchor="middle" x="304.347" y="-86.3" font-family="Times New Roman,serif" font-size="14.00" fill="lightgray">wps</text>
</g>
<!-- n16430&#45;&gt;n16431 -->
<g id="edge37" class="edge"><title>n16430&#45;&gt;n16431</title>
</g>
<!-- n16434&#45;&gt;n16435 -->
<g id="edge36" class="edge"><title>n16434&#45;&gt;n16435</title>
<path fill="none" stroke="black" d="M527.026,-165.911C592.34,-177.112 766.096,-215.169 864.788,-315 886.486,-336.949 897.945,-371.053 903.665,-395.054"/>
<polygon fill="black" stroke="black" points="900.279,-395.956 905.842,-404.973 907.117,-394.455 900.279,-395.956"/>
<text text-anchor="middle" x="706.788" y="-318.8" font-family="Times New Roman,serif" font-size="14.00">|&#45; ( ( ph / ( ps / &#45;. ps ) ) &lt;&#45;&gt; ( ( ph / ps ) / ( ph / &#45;. ps ) ) )</text>
</g>
<!-- n16431&#45;&gt;n16434 -->
<g id="edge33" class="edge"><title>n16431&#45;&gt;n16434</title>
<path fill="none" stroke="lightgray" d="M328.499,-98.1212C357.422,-108.327 408.383,-126.509 451.693,-143 456.654,-144.889 461.888,-146.931 466.998,-148.951"/>
<polygon fill="lightgray" stroke="lightgray" points="465.98,-152.313 476.566,-152.764 468.572,-145.81 465.98,-152.313"/>
<text text-anchor="middle" x="406.193" y="-146.8" font-family="Times New Roman,serif" font-size="14.00" fill="lightgray">wff ps</text>
</g>
<!-- n16433 -->
<g id="node29" class="node"><title>n16433</title>
<ellipse fill="none" stroke="lightgray" cx="304.347" cy="-18" rx="27" ry="18"/>
<text text-anchor="middle" x="304.347" y="-14.3" font-family="Times New Roman,serif" font-size="14.00" fill="lightgray">wn</text>
</g>
<!-- n16431&#45;&gt;n16433 -->
<g id="edge38" class="edge"><title>n16431&#45;&gt;n16433</title>
</g>
<!-- n16432 -->
<g id="node28" class="node"><title>n16432</title>
<ellipse fill="none" stroke="lightgray" cx="154" cy="-18" rx="27" ry="18"/>
<text text-anchor="middle" x="154" y="-14.3" font-family="Times New Roman,serif" font-size="14.00" fill="lightgray">wps</text>
</g>
<!-- n16432&#45;&gt;n16433 -->
<g id="edge34" class="edge"><title>n16432&#45;&gt;n16433</title>
<path fill="none" stroke="lightgray" d="M181.18,-18C204.972,-18 240.308,-18 266.865,-18"/>
<polygon fill="lightgray" stroke="lightgray" points="266.929,-21.5001 276.929,-18 266.929,-14.5001 266.929,-21.5001"/>
<text text-anchor="middle" x="223.5" y="-21.8" font-family="Times New Roman,serif" font-size="14.00" fill="lightgray">wff ps</text>
</g>
<!-- n16433&#45;&gt;n16434 -->
<g id="edge35" class="edge"><title>n16433&#45;&gt;n16434</title>
<path fill="none" stroke="lightgray" d="M329.091,-25.5326C360.014,-36.24 414.5,-58.2669 451.693,-91 465.944,-103.542 477.829,-121.287 486.152,-135.898"/>
<polygon fill="lightgray" stroke="lightgray" points="483.234,-137.859 491.096,-144.962 489.379,-134.507 483.234,-137.859"/>
<text text-anchor="middle" x="406.193" y="-94.8" font-family="Times New Roman,serif" font-size="14.00" fill="lightgray">wff &#45;. ps</text>
</g>
</g>
</svg>
