<?xml version="1.0" encoding="UTF-8" standalone="no"?>
<!DOCTYPE svg PUBLIC "-//W3C//DTD SVG 1.1//EN"
 "http://www.w3.org/Graphics/SVG/1.1/DTD/svg11.dtd">
<!-- Generated by graphviz version 2.38.0 (20140413.2041)
 -->
<!-- Title: proof_pm4_72 Pages: 1 -->
<svg width="1448pt" height="1229pt"
 viewBox="0.00 0.00 1447.87 1229.00" xmlns="http://www.w3.org/2000/svg" xmlns:xlink="http://www.w3.org/1999/xlink">
<g id="graph0" class="graph" transform="scale(1 1) rotate(0) translate(4 1225)">
<title>proof_pm4_72</title>
<polygon fill="white" stroke="none" points="-4,4 -4,-1225 1443.87,-1225 1443.87,4 -4,4"/>
<!-- n15331 -->
<g id="node1" class="node"><title>n15331</title>
<ellipse fill="none" stroke="lightgray" cx="341.246" cy="-1203" rx="27" ry="18"/>
<text text-anchor="middle" x="341.246" y="-1199.3" font-family="Times New Roman,serif" font-size="14.00" fill="lightgray">wph</text>
</g>
<!-- n15333 -->
<g id="node2" class="node"><title>n15333</title>
<ellipse fill="none" stroke="lightgray" cx="734.789" cy="-1094" rx="27" ry="18"/>
<text text-anchor="middle" x="734.789" y="-1090.3" font-family="Times New Roman,serif" font-size="14.00" fill="lightgray">wi</text>
</g>
<!-- n15331&#45;&gt;n15333 -->
<g id="edge1" class="edge"><title>n15331&#45;&gt;n15333</title>
<path fill="none" stroke="lightgray" d="M368.406,-1203.06C426.691,-1202.22 570.44,-1194.72 676.493,-1144 690.159,-1137.46 703.086,-1126.74 713.19,-1116.9"/>
<polygon fill="lightgray" stroke="lightgray" points="715.822,-1119.21 720.333,-1109.63 710.828,-1114.31 715.822,-1119.21"/>
<text text-anchor="middle" x="538.993" y="-1205.8" font-family="Times New Roman,serif" font-size="14.00" fill="lightgray">wff ph</text>
</g>
<!-- n15332 -->
<g id="node3" class="node"><title>n15332</title>
<ellipse fill="none" stroke="lightgray" cx="341.246" cy="-1131" rx="27" ry="18"/>
<text text-anchor="middle" x="341.246" y="-1127.3" font-family="Times New Roman,serif" font-size="14.00" fill="lightgray">wps</text>
</g>
<!-- n15331&#45;&gt;n15332 -->
<g id="edge4" class="edge"><title>n15331&#45;&gt;n15332</title>
</g>
<!-- n15372 -->
<g id="node4" class="node"><title>n15372</title>
<ellipse fill="cyan" stroke="black" cx="1074.23" cy="-918" rx="33.2948" ry="18"/>
<text text-anchor="middle" x="1074.23" y="-914.3" font-family="Times New Roman,serif" font-size="14.00">impbii</text>
</g>
<!-- n15333&#45;&gt;n15372 -->
<g id="edge3" class="edge"><title>n15333&#45;&gt;n15372</title>
<path fill="none" stroke="lightgray" d="M761.792,-1092.64C816.094,-1088.53 943.116,-1072.23 1023.09,-1008 1043.13,-991.903 1056.47,-965.514 1064.32,-945.463"/>
<polygon fill="lightgray" stroke="lightgray" points="1067.66,-946.516 1067.83,-935.923 1061.09,-944.097 1067.66,-946.516"/>
<text text-anchor="middle" x="908.085" y="-1093.8" font-family="Times New Roman,serif" font-size="14.00" fill="lightgray">wff ( ph &#45;&gt; ps )</text>
</g>
<!-- n15338 -->
<g id="node6" class="node"><title>n15338</title>
<ellipse fill="none" stroke="lightgray" cx="734.789" cy="-1005" rx="27" ry="18"/>
<text text-anchor="middle" x="734.789" y="-1001.3" font-family="Times New Roman,serif" font-size="14.00" fill="lightgray">wb</text>
</g>
<!-- n15333&#45;&gt;n15338 -->
<g id="edge65" class="edge"><title>n15333&#45;&gt;n15338</title>
</g>
<!-- n15332&#45;&gt;n15333 -->
<g id="edge2" class="edge"><title>n15332&#45;&gt;n15333</title>
<path fill="none" stroke="lightgray" d="M368.24,-1128.54C436.182,-1122.12 619.206,-1104.83 697.478,-1097.43"/>
<polygon fill="lightgray" stroke="lightgray" points="698.178,-1100.88 707.805,-1096.46 697.52,-1093.91 698.178,-1100.88"/>
<text text-anchor="middle" x="538.993" y="-1128.8" font-family="Times New Roman,serif" font-size="14.00" fill="lightgray">wff ps</text>
</g>
<!-- QED -->
<g id="node43" class="node"><title>QED</title>
</g>
<!-- n15372&#45;&gt;QED -->
<g id="edge64" class="edge"><title>n15372&#45;&gt;QED</title>
<path fill="none" stroke="black" d="M1107.6,-918C1169.52,-918 1304.5,-918 1371.01,-918"/>
<polygon fill="black" stroke="black" points="1371.08,-921.5 1381.08,-918 1371.08,-914.5 1371.08,-921.5"/>
<text text-anchor="middle" x="1244.38" y="-921.8" font-family="Times New Roman,serif" font-size="14.00">|&#45; ( ( ph &#45;&gt; ps ) &lt;&#45;&gt; ( ps &lt;&#45;&gt; ( ph \/ ps ) ) )</text>
</g>
<!-- n15334 -->
<g id="node5" class="node"><title>n15334</title>
<ellipse fill="none" stroke="lightgray" cx="341.246" cy="-1077" rx="27" ry="18"/>
<text text-anchor="middle" x="341.246" y="-1073.3" font-family="Times New Roman,serif" font-size="14.00" fill="lightgray">wps</text>
</g>
<!-- n15334&#45;&gt;n15338 -->
<g id="edge5" class="edge"><title>n15334&#45;&gt;n15338</title>
<path fill="none" stroke="lightgray" d="M368.108,-1074.35C424.628,-1068.25 563.174,-1051.58 676.493,-1024 684.583,-1022.03 693.171,-1019.45 701.167,-1016.84"/>
<polygon fill="lightgray" stroke="lightgray" points="702.55,-1020.06 710.899,-1013.54 700.305,-1013.43 702.55,-1020.06"/>
<text text-anchor="middle" x="538.993" y="-1074.8" font-family="Times New Roman,serif" font-size="14.00" fill="lightgray">wff ps</text>
</g>
<!-- n15337 -->
<g id="node8" class="node"><title>n15337</title>
<ellipse fill="none" stroke="lightgray" cx="341.246" cy="-1005" rx="27" ry="18"/>
<text text-anchor="middle" x="341.246" y="-1001.3" font-family="Times New Roman,serif" font-size="14.00" fill="lightgray">wo</text>
</g>
<!-- n15334&#45;&gt;n15337 -->
<g id="edge11" class="edge"><title>n15334&#45;&gt;n15337</title>
</g>
<!-- n15338&#45;&gt;n15372 -->
<g id="edge10" class="edge"><title>n15338&#45;&gt;n15372</title>
<path fill="none" stroke="lightgray" d="M760.329,-998.673C818.295,-983.728 964.084,-946.141 1034.28,-928.044"/>
<polygon fill="lightgray" stroke="lightgray" points="1035.25,-931.406 1044.06,-925.52 1033.51,-924.628 1035.25,-931.406"/>
<text text-anchor="middle" x="908.085" y="-992.8" font-family="Times New Roman,serif" font-size="14.00" fill="lightgray">wff ( ps &lt;&#45;&gt; ( ph \/ ps ) )</text>
</g>
<!-- n15352 -->
<g id="node13" class="node"><title>n15352</title>
<ellipse fill="cyan" stroke="black" cx="734.789" cy="-843" rx="40.0939" ry="18"/>
<text text-anchor="middle" x="734.789" y="-839.3" font-family="Times New Roman,serif" font-size="14.00">impbid2</text>
</g>
<!-- n15338&#45;&gt;n15352 -->
<g id="edge66" class="edge"><title>n15338&#45;&gt;n15352</title>
</g>
<!-- n15335 -->
<g id="node7" class="node"><title>n15335</title>
<ellipse fill="none" stroke="lightgray" cx="154" cy="-1142" rx="27" ry="18"/>
<text text-anchor="middle" x="154" y="-1138.3" font-family="Times New Roman,serif" font-size="14.00" fill="lightgray">wph</text>
</g>
<!-- n15335&#45;&gt;n15337 -->
<g id="edge6" class="edge"><title>n15335&#45;&gt;n15337</title>
<path fill="none" stroke="lightgray" d="M177.738,-1133.28C204.455,-1122.27 249.172,-1101.42 281,-1074 291.102,-1065.3 290.485,-1060.26 299,-1050 305.129,-1042.61 312.084,-1034.82 318.512,-1027.84"/>
<polygon fill="lightgray" stroke="lightgray" points="321.484,-1029.78 325.737,-1020.08 316.361,-1025.01 321.484,-1029.78"/>
<text text-anchor="middle" x="240" y="-1127.8" font-family="Times New Roman,serif" font-size="14.00" fill="lightgray">wff ph</text>
</g>
<!-- n15336 -->
<g id="node9" class="node"><title>n15336</title>
<ellipse fill="none" stroke="lightgray" cx="154" cy="-1070" rx="27" ry="18"/>
<text text-anchor="middle" x="154" y="-1066.3" font-family="Times New Roman,serif" font-size="14.00" fill="lightgray">wps</text>
</g>
<!-- n15335&#45;&gt;n15336 -->
<g id="edge9" class="edge"><title>n15335&#45;&gt;n15336</title>
</g>
<!-- n15337&#45;&gt;n15338 -->
<g id="edge8" class="edge"><title>n15337&#45;&gt;n15338</title>
<path fill="none" stroke="lightgray" d="M368.544,-1005C436.669,-1005 619.006,-1005 697.275,-1005"/>
<polygon fill="lightgray" stroke="lightgray" points="697.605,-1008.5 707.605,-1005 697.605,-1001.5 697.605,-1008.5"/>
<text text-anchor="middle" x="538.993" y="-1008.8" font-family="Times New Roman,serif" font-size="14.00" fill="lightgray">wff ( ph \/ ps )</text>
</g>
<!-- n15336&#45;&gt;n15337 -->
<g id="edge7" class="edge"><title>n15336&#45;&gt;n15337</title>
<path fill="none" stroke="lightgray" d="M178.462,-1061.77C211.032,-1050.34 270.112,-1029.61 307.153,-1016.61"/>
<polygon fill="lightgray" stroke="lightgray" points="308.698,-1019.78 316.975,-1013.17 306.38,-1013.17 308.698,-1019.78"/>
<text text-anchor="middle" x="240" y="-1058.8" font-family="Times New Roman,serif" font-size="14.00" fill="lightgray">wff ps</text>
</g>
<!-- n15339 -->
<g id="node10" class="node"><title>n15339</title>
<ellipse fill="none" stroke="lightgray" cx="154" cy="-1016" rx="27" ry="18"/>
<text text-anchor="middle" x="154" y="-1012.3" font-family="Times New Roman,serif" font-size="14.00" fill="lightgray">wps</text>
</g>
<!-- n15341 -->
<g id="node11" class="node"><title>n15341</title>
<ellipse fill="none" stroke="lightgray" cx="341.246" cy="-951" rx="27" ry="18"/>
<text text-anchor="middle" x="341.246" y="-947.3" font-family="Times New Roman,serif" font-size="14.00" fill="lightgray">wi</text>
</g>
<!-- n15339&#45;&gt;n15341 -->
<g id="edge12" class="edge"><title>n15339&#45;&gt;n15341</title>
<path fill="none" stroke="lightgray" d="M178.462,-1007.77C211.032,-996.339 270.112,-975.609 307.153,-962.612"/>
<polygon fill="lightgray" stroke="lightgray" points="308.698,-965.779 316.975,-959.165 306.38,-959.174 308.698,-965.779"/>
<text text-anchor="middle" x="240" y="-1004.8" font-family="Times New Roman,serif" font-size="14.00" fill="lightgray">wff ps</text>
</g>
<!-- n15340 -->
<g id="node12" class="node"><title>n15340</title>
<ellipse fill="none" stroke="lightgray" cx="154" cy="-944" rx="27" ry="18"/>
<text text-anchor="middle" x="154" y="-940.3" font-family="Times New Roman,serif" font-size="14.00" fill="lightgray">wph</text>
</g>
<!-- n15339&#45;&gt;n15340 -->
<g id="edge15" class="edge"><title>n15339&#45;&gt;n15340</title>
</g>
<!-- n15341&#45;&gt;n15352 -->
<g id="edge14" class="edge"><title>n15341&#45;&gt;n15352</title>
<path fill="none" stroke="lightgray" d="M368.369,-950.981C426.58,-949.985 570.188,-942.19 676.493,-892 689.381,-885.915 701.671,-876.141 711.541,-866.918"/>
<polygon fill="lightgray" stroke="lightgray" points="714.199,-869.213 718.902,-859.719 709.305,-864.208 714.199,-869.213"/>
<text text-anchor="middle" x="538.993" y="-953.8" font-family="Times New Roman,serif" font-size="14.00" fill="lightgray">wff ( ph &#45;&gt; ps )</text>
</g>
<!-- n15342 -->
<g id="node14" class="node"><title>n15342</title>
<ellipse fill="none" stroke="lightgray" cx="341.246" cy="-879" rx="27" ry="18"/>
<text text-anchor="middle" x="341.246" y="-875.3" font-family="Times New Roman,serif" font-size="14.00" fill="lightgray">wps</text>
</g>
<!-- n15341&#45;&gt;n15342 -->
<g id="edge30" class="edge"><title>n15341&#45;&gt;n15342</title>
</g>
<!-- n15340&#45;&gt;n15341 -->
<g id="edge13" class="edge"><title>n15340&#45;&gt;n15341</title>
<path fill="none" stroke="lightgray" d="M181.148,-944.988C213.282,-946.202 267.976,-948.269 304.112,-949.635"/>
<polygon fill="lightgray" stroke="lightgray" points="304.106,-953.137 314.231,-950.017 304.37,-946.142 304.106,-953.137"/>
<text text-anchor="middle" x="240" y="-952.8" font-family="Times New Roman,serif" font-size="14.00" fill="lightgray">wff ph</text>
</g>
<!-- n15352&#45;&gt;n15372 -->
<g id="edge29" class="edge"><title>n15352&#45;&gt;n15372</title>
<path fill="none" stroke="black" d="M771.264,-850.885C834.548,-864.95 966.499,-894.277 1033.03,-909.066"/>
<polygon fill="black" stroke="black" points="1032.61,-912.557 1043.13,-911.31 1034.13,-905.723 1032.61,-912.557"/>
<text text-anchor="middle" x="908.085" y="-909.8" font-family="Times New Roman,serif" font-size="14.00">|&#45; ( ( ph &#45;&gt; ps ) &#45;&gt; ( ps &lt;&#45;&gt; ( ph \/ ps ) ) )</text>
</g>
<!-- n15371 -->
<g id="node25" class="node"><title>n15371</title>
<ellipse fill="cyan" stroke="black" cx="734.789" cy="-410" rx="27" ry="18"/>
<text text-anchor="middle" x="734.789" y="-406.3" font-family="Times New Roman,serif" font-size="14.00">syl5</text>
</g>
<!-- n15352&#45;&gt;n15371 -->
<g id="edge67" class="edge"><title>n15352&#45;&gt;n15371</title>
</g>
<!-- n15342&#45;&gt;n15352 -->
<g id="edge16" class="edge"><title>n15342&#45;&gt;n15352</title>
<path fill="none" stroke="lightgray" d="M368.24,-876.61C432.84,-870.67 601.48,-855.165 685.195,-847.468"/>
<polygon fill="lightgray" stroke="lightgray" points="685.575,-850.948 695.213,-846.547 684.934,-843.977 685.575,-850.948"/>
<text text-anchor="middle" x="538.993" y="-876.8" font-family="Times New Roman,serif" font-size="14.00" fill="lightgray">wff ps</text>
</g>
<!-- n15345 -->
<g id="node16" class="node"><title>n15345</title>
<ellipse fill="none" stroke="lightgray" cx="341.246" cy="-807" rx="27" ry="18"/>
<text text-anchor="middle" x="341.246" y="-803.3" font-family="Times New Roman,serif" font-size="14.00" fill="lightgray">wo</text>
</g>
<!-- n15342&#45;&gt;n15345 -->
<g id="edge31" class="edge"><title>n15342&#45;&gt;n15345</title>
</g>
<!-- n15343 -->
<g id="node15" class="node"><title>n15343</title>
<ellipse fill="none" stroke="lightgray" cx="154" cy="-890" rx="27" ry="18"/>
<text text-anchor="middle" x="154" y="-886.3" font-family="Times New Roman,serif" font-size="14.00" fill="lightgray">wps</text>
</g>
<!-- n15343&#45;&gt;n15345 -->
<g id="edge17" class="edge"><title>n15343&#45;&gt;n15345</title>
<path fill="none" stroke="lightgray" d="M177.395,-880.464C202.658,-869.652 244.929,-851.392 281,-835 290.378,-830.738 300.534,-825.988 309.745,-821.629"/>
<polygon fill="lightgray" stroke="lightgray" points="311.399,-824.718 318.928,-817.264 308.394,-818.396 311.399,-824.718"/>
<text text-anchor="middle" x="240" y="-874.8" font-family="Times New Roman,serif" font-size="14.00" fill="lightgray">wff ps</text>
</g>
<!-- n15344 -->
<g id="node17" class="node"><title>n15344</title>
<ellipse fill="none" stroke="lightgray" cx="154" cy="-818" rx="27" ry="18"/>
<text text-anchor="middle" x="154" y="-814.3" font-family="Times New Roman,serif" font-size="14.00" fill="lightgray">wph</text>
</g>
<!-- n15343&#45;&gt;n15344 -->
<g id="edge20" class="edge"><title>n15343&#45;&gt;n15344</title>
</g>
<!-- n15345&#45;&gt;n15352 -->
<g id="edge19" class="edge"><title>n15345&#45;&gt;n15352</title>
<path fill="none" stroke="lightgray" d="M368.376,-807.679C424.852,-809.408 562.412,-815.032 676.493,-831 680.456,-831.555 684.555,-832.223 688.655,-832.956"/>
<polygon fill="lightgray" stroke="lightgray" points="688.292,-836.45 698.771,-834.886 689.604,-829.574 688.292,-836.45"/>
<text text-anchor="middle" x="538.993" y="-834.8" font-family="Times New Roman,serif" font-size="14.00" fill="lightgray">wff ( ph \/ ps )</text>
</g>
<!-- n15348 -->
<g id="node19" class="node"><title>n15348</title>
<ellipse fill="cyan" stroke="black" cx="341.246" cy="-735" rx="27" ry="18"/>
<text text-anchor="middle" x="341.246" y="-731.3" font-family="Times New Roman,serif" font-size="14.00">olc</text>
</g>
<!-- n15345&#45;&gt;n15348 -->
<g id="edge32" class="edge"><title>n15345&#45;&gt;n15348</title>
</g>
<!-- n15344&#45;&gt;n15345 -->
<g id="edge18" class="edge"><title>n15344&#45;&gt;n15345</title>
<path fill="none" stroke="lightgray" d="M181.148,-816.447C213.282,-814.539 267.976,-811.291 304.112,-809.146"/>
<polygon fill="lightgray" stroke="lightgray" points="304.456,-812.632 314.231,-808.545 304.041,-805.644 304.456,-812.632"/>
<text text-anchor="middle" x="240" y="-819.8" font-family="Times New Roman,serif" font-size="14.00" fill="lightgray">wff ph</text>
</g>
<!-- n15346 -->
<g id="node18" class="node"><title>n15346</title>
<ellipse fill="none" stroke="lightgray" cx="154" cy="-764" rx="27" ry="18"/>
<text text-anchor="middle" x="154" y="-760.3" font-family="Times New Roman,serif" font-size="14.00" fill="lightgray">wps</text>
</g>
<!-- n15346&#45;&gt;n15348 -->
<g id="edge21" class="edge"><title>n15346&#45;&gt;n15348</title>
<path fill="none" stroke="lightgray" d="M180.369,-760.028C212.566,-754.988 268.287,-746.265 304.707,-740.564"/>
<polygon fill="lightgray" stroke="lightgray" points="305.548,-743.975 314.887,-738.97 304.466,-737.059 305.548,-743.975"/>
<text text-anchor="middle" x="240" y="-760.8" font-family="Times New Roman,serif" font-size="14.00" fill="lightgray">wff ps</text>
</g>
<!-- n15347 -->
<g id="node20" class="node"><title>n15347</title>
<ellipse fill="none" stroke="lightgray" cx="154" cy="-692" rx="27" ry="18"/>
<text text-anchor="middle" x="154" y="-688.3" font-family="Times New Roman,serif" font-size="14.00" fill="lightgray">wph</text>
</g>
<!-- n15346&#45;&gt;n15347 -->
<g id="edge24" class="edge"><title>n15346&#45;&gt;n15347</title>
</g>
<!-- n15348&#45;&gt;n15352 -->
<g id="edge23" class="edge"><title>n15348&#45;&gt;n15352</title>
<path fill="none" stroke="black" d="M368.501,-734.324C426.98,-733.85 571.093,-738.464 676.493,-790 690.5,-796.849 703.492,-808.249 713.55,-818.725"/>
<polygon fill="black" stroke="black" points="710.989,-821.111 720.329,-826.112 716.146,-816.378 710.989,-821.111"/>
<text text-anchor="middle" x="538.993" y="-793.8" font-family="Times New Roman,serif" font-size="14.00">|&#45; ( ps &#45;&gt; ( ph \/ ps ) )</text>
</g>
<!-- n15351 -->
<g id="node22" class="node"><title>n15351</title>
<ellipse fill="cyan" stroke="black" cx="341.246" cy="-656" rx="42.4939" ry="18"/>
<text text-anchor="middle" x="341.246" y="-652.3" font-family="Times New Roman,serif" font-size="14.00">pm2.621</text>
</g>
<!-- n15348&#45;&gt;n15351 -->
<g id="edge33" class="edge"><title>n15348&#45;&gt;n15351</title>
</g>
<!-- n15347&#45;&gt;n15348 -->
<g id="edge22" class="edge"><title>n15347&#45;&gt;n15348</title>
<path fill="none" stroke="lightgray" d="M179.983,-697.799C212.252,-705.29 268.605,-718.37 305.159,-726.856"/>
<polygon fill="lightgray" stroke="lightgray" points="304.831,-730.372 315.364,-729.224 306.414,-723.554 304.831,-730.372"/>
<text text-anchor="middle" x="240" y="-725.8" font-family="Times New Roman,serif" font-size="14.00" fill="lightgray">wff ph</text>
</g>
<!-- n15349 -->
<g id="node21" class="node"><title>n15349</title>
<ellipse fill="none" stroke="lightgray" cx="154" cy="-638" rx="27" ry="18"/>
<text text-anchor="middle" x="154" y="-634.3" font-family="Times New Roman,serif" font-size="14.00" fill="lightgray">wph</text>
</g>
<!-- n15349&#45;&gt;n15351 -->
<g id="edge25" class="edge"><title>n15349&#45;&gt;n15351</title>
<path fill="none" stroke="lightgray" d="M180.758,-640.503C208.808,-643.228 254.376,-647.656 289.637,-651.082"/>
<polygon fill="lightgray" stroke="lightgray" points="289.459,-654.581 299.751,-652.065 290.136,-647.614 289.459,-654.581"/>
<text text-anchor="middle" x="240" y="-654.8" font-family="Times New Roman,serif" font-size="14.00" fill="lightgray">wff ph</text>
</g>
<!-- n15350 -->
<g id="node23" class="node"><title>n15350</title>
<ellipse fill="none" stroke="lightgray" cx="154" cy="-566" rx="27" ry="18"/>
<text text-anchor="middle" x="154" y="-562.3" font-family="Times New Roman,serif" font-size="14.00" fill="lightgray">wps</text>
</g>
<!-- n15349&#45;&gt;n15350 -->
<g id="edge28" class="edge"><title>n15349&#45;&gt;n15350</title>
</g>
<!-- n15351&#45;&gt;n15352 -->
<g id="edge27" class="edge"><title>n15351&#45;&gt;n15352</title>
<path fill="none" stroke="black" d="M382.509,-651.988C450.538,-647.435 589.32,-648.023 676.493,-716 707.751,-740.375 722.469,-785.585 729.013,-814.967"/>
<polygon fill="black" stroke="black" points="725.635,-815.914 731.07,-825.008 732.492,-814.509 725.635,-815.914"/>
<text text-anchor="middle" x="538.993" y="-719.8" font-family="Times New Roman,serif" font-size="14.00">|&#45; ( ( ph &#45;&gt; ps ) &#45;&gt; ( ( ph \/ ps ) &#45;&gt; ps ) )</text>
</g>
<!-- n15350&#45;&gt;n15351 -->
<g id="edge26" class="edge"><title>n15350&#45;&gt;n15351</title>
<path fill="none" stroke="lightgray" d="M177.053,-575.639C202.366,-586.821 245.024,-606.027 281,-624 289.13,-628.062 297.786,-632.608 305.899,-636.969"/>
<polygon fill="lightgray" stroke="lightgray" points="304.311,-640.089 314.771,-641.779 307.648,-633.936 304.311,-640.089"/>
<text text-anchor="middle" x="240" y="-627.8" font-family="Times New Roman,serif" font-size="14.00" fill="lightgray">wff ps</text>
</g>
<!-- n15353 -->
<g id="node24" class="node"><title>n15353</title>
<ellipse fill="none" stroke="lightgray" cx="341.246" cy="-517" rx="27" ry="18"/>
<text text-anchor="middle" x="341.246" y="-513.3" font-family="Times New Roman,serif" font-size="14.00" fill="lightgray">wph</text>
</g>
<!-- n15353&#45;&gt;n15371 -->
<g id="edge34" class="edge"><title>n15353&#45;&gt;n15371</title>
<path fill="none" stroke="lightgray" d="M368.366,-517.08C426.572,-516.299 570.169,-509.011 676.493,-459 690.084,-452.607 703.002,-442.1 713.121,-432.452"/>
<polygon fill="lightgray" stroke="lightgray" points="715.663,-434.861 720.278,-425.324 710.723,-429.901 715.663,-434.861"/>
<text text-anchor="middle" x="538.993" y="-519.8" font-family="Times New Roman,serif" font-size="14.00" fill="lightgray">wff ph</text>
</g>
<!-- n15356 -->
<g id="node27" class="node"><title>n15356</title>
<ellipse fill="none" stroke="lightgray" cx="341.246" cy="-445" rx="27" ry="18"/>
<text text-anchor="middle" x="341.246" y="-441.3" font-family="Times New Roman,serif" font-size="14.00" fill="lightgray">wo</text>
</g>
<!-- n15353&#45;&gt;n15356 -->
<g id="edge59" class="edge"><title>n15353&#45;&gt;n15356</title>
</g>
<!-- n15371&#45;&gt;n15372 -->
<g id="edge58" class="edge"><title>n15371&#45;&gt;n15372</title>
<path fill="none" stroke="black" d="M746.893,-426.269C785.506,-482.907 917.328,-676.818 1023.09,-839 1034.66,-856.745 1047.45,-876.911 1057.22,-892.427"/>
<polygon fill="black" stroke="black" points="1054.31,-894.367 1062.59,-900.972 1060.23,-890.642 1054.31,-894.367"/>
<text text-anchor="middle" x="908.085" y="-842.8" font-family="Times New Roman,serif" font-size="14.00">|&#45; ( ( ps &lt;&#45;&gt; ( ph \/ ps ) ) &#45;&gt; ( ph &#45;&gt; ps ) )</text>
</g>
<!-- n15354 -->
<g id="node26" class="node"><title>n15354</title>
<ellipse fill="none" stroke="lightgray" cx="154" cy="-512" rx="27" ry="18"/>
<text text-anchor="middle" x="154" y="-508.3" font-family="Times New Roman,serif" font-size="14.00" fill="lightgray">wps</text>
</g>
<!-- n15354&#45;&gt;n15356 -->
<g id="edge35" class="edge"><title>n15354&#45;&gt;n15356</title>
<path fill="none" stroke="lightgray" d="M178.087,-503.65C210.623,-491.882 270.136,-470.357 307.309,-456.913"/>
<polygon fill="lightgray" stroke="lightgray" points="308.947,-460.042 317.16,-453.35 306.566,-453.46 308.947,-460.042"/>
<text text-anchor="middle" x="240" y="-499.8" font-family="Times New Roman,serif" font-size="14.00" fill="lightgray">wff ps</text>
</g>
<!-- n15355 -->
<g id="node28" class="node"><title>n15355</title>
<ellipse fill="none" stroke="lightgray" cx="154" cy="-440" rx="27" ry="18"/>
<text text-anchor="middle" x="154" y="-436.3" font-family="Times New Roman,serif" font-size="14.00" fill="lightgray">wph</text>
</g>
<!-- n15354&#45;&gt;n15355 -->
<g id="edge38" class="edge"><title>n15354&#45;&gt;n15355</title>
</g>
<!-- n15356&#45;&gt;n15371 -->
<g id="edge37" class="edge"><title>n15356&#45;&gt;n15371</title>
<path fill="none" stroke="lightgray" d="M368.24,-442.676C436.182,-436.603 619.206,-420.243 697.478,-413.246"/>
<polygon fill="lightgray" stroke="lightgray" points="698.156,-416.699 707.805,-412.323 697.533,-409.727 698.156,-416.699"/>
<text text-anchor="middle" x="538.993" y="-443.8" font-family="Times New Roman,serif" font-size="14.00" fill="lightgray">wff ( ph \/ ps )</text>
</g>
<!-- n15361 -->
<g id="node32" class="node"><title>n15361</title>
<ellipse fill="none" stroke="lightgray" cx="341.246" cy="-373" rx="27" ry="18"/>
<text text-anchor="middle" x="341.246" y="-369.3" font-family="Times New Roman,serif" font-size="14.00" fill="lightgray">wb</text>
</g>
<!-- n15356&#45;&gt;n15361 -->
<g id="edge60" class="edge"><title>n15356&#45;&gt;n15361</title>
</g>
<!-- n15355&#45;&gt;n15356 -->
<g id="edge36" class="edge"><title>n15355&#45;&gt;n15356</title>
<path fill="none" stroke="lightgray" d="M181.148,-440.706C213.282,-441.573 267.976,-443.049 304.112,-444.025"/>
<polygon fill="lightgray" stroke="lightgray" points="304.14,-447.527 314.231,-444.298 304.329,-440.529 304.14,-447.527"/>
<text text-anchor="middle" x="240" y="-447.8" font-family="Times New Roman,serif" font-size="14.00" fill="lightgray">wff ph</text>
</g>
<!-- n15357 -->
<g id="node29" class="node"><title>n15357</title>
<ellipse fill="none" stroke="lightgray" cx="27" cy="-430" rx="27" ry="18"/>
<text text-anchor="middle" x="27" y="-426.3" font-family="Times New Roman,serif" font-size="14.00" fill="lightgray">wps</text>
</g>
<!-- n15359 -->
<g id="node30" class="node"><title>n15359</title>
<ellipse fill="none" stroke="lightgray" cx="154" cy="-386" rx="27" ry="18"/>
<text text-anchor="middle" x="154" y="-382.3" font-family="Times New Roman,serif" font-size="14.00" fill="lightgray">wo</text>
</g>
<!-- n15357&#45;&gt;n15359 -->
<g id="edge39" class="edge"><title>n15357&#45;&gt;n15359</title>
<path fill="none" stroke="lightgray" d="M51.2186,-421.827C70.6886,-414.974 98.7117,-405.109 120.426,-397.466"/>
<polygon fill="lightgray" stroke="lightgray" points="121.635,-400.751 129.906,-394.129 119.311,-394.148 121.635,-400.751"/>
<text text-anchor="middle" x="90.5" y="-418.8" font-family="Times New Roman,serif" font-size="14.00" fill="lightgray">wff ps</text>
</g>
<!-- n15358 -->
<g id="node31" class="node"><title>n15358</title>
<ellipse fill="none" stroke="lightgray" cx="27" cy="-358" rx="27" ry="18"/>
<text text-anchor="middle" x="27" y="-354.3" font-family="Times New Roman,serif" font-size="14.00" fill="lightgray">wph</text>
</g>
<!-- n15357&#45;&gt;n15358 -->
<g id="edge42" class="edge"><title>n15357&#45;&gt;n15358</title>
</g>
<!-- n15359&#45;&gt;n15361 -->
<g id="edge41" class="edge"><title>n15359&#45;&gt;n15361</title>
<path fill="none" stroke="lightgray" d="M181.148,-384.165C213.282,-381.91 267.976,-378.072 304.112,-375.536"/>
<polygon fill="lightgray" stroke="lightgray" points="304.5,-379.017 314.231,-374.826 304.01,-372.034 304.5,-379.017"/>
<text text-anchor="middle" x="240" y="-386.8" font-family="Times New Roman,serif" font-size="14.00" fill="lightgray">wff ( ph \/ ps )</text>
</g>
<!-- n15360 -->
<g id="node33" class="node"><title>n15360</title>
<ellipse fill="none" stroke="lightgray" cx="154" cy="-314" rx="27" ry="18"/>
<text text-anchor="middle" x="154" y="-310.3" font-family="Times New Roman,serif" font-size="14.00" fill="lightgray">wps</text>
</g>
<!-- n15359&#45;&gt;n15360 -->
<g id="edge45" class="edge"><title>n15359&#45;&gt;n15360</title>
</g>
<!-- n15358&#45;&gt;n15359 -->
<g id="edge40" class="edge"><title>n15358&#45;&gt;n15359</title>
<path fill="none" stroke="lightgray" d="M52.8224,-363.484C68.8563,-367.034 90.1664,-371.767 109,-376 112.036,-376.682 115.189,-377.394 118.349,-378.108"/>
<polygon fill="lightgray" stroke="lightgray" points="117.811,-381.575 128.337,-380.373 119.359,-374.748 117.811,-381.575"/>
<text text-anchor="middle" x="90.5" y="-379.8" font-family="Times New Roman,serif" font-size="14.00" fill="lightgray">wff ph</text>
</g>
<!-- n15361&#45;&gt;n15371 -->
<g id="edge44" class="edge"><title>n15361&#45;&gt;n15371</title>
<path fill="none" stroke="lightgray" d="M368.397,-373.532C424.914,-374.977 562.549,-380.082 676.493,-397 683.984,-398.112 691.95,-399.673 699.484,-401.328"/>
<polygon fill="lightgray" stroke="lightgray" points="698.877,-404.78 709.407,-403.611 700.446,-397.958 698.877,-404.78"/>
<text text-anchor="middle" x="538.993" y="-400.8" font-family="Times New Roman,serif" font-size="14.00" fill="lightgray">wff ( ps &lt;&#45;&gt; ( ph \/ ps ) )</text>
</g>
<!-- n15362 -->
<g id="node34" class="node"><title>n15362</title>
<ellipse fill="none" stroke="lightgray" cx="341.246" cy="-301" rx="27" ry="18"/>
<text text-anchor="middle" x="341.246" y="-297.3" font-family="Times New Roman,serif" font-size="14.00" fill="lightgray">wps</text>
</g>
<!-- n15361&#45;&gt;n15362 -->
<g id="edge61" class="edge"><title>n15361&#45;&gt;n15362</title>
</g>
<!-- n15360&#45;&gt;n15361 -->
<g id="edge43" class="edge"><title>n15360&#45;&gt;n15361</title>
<path fill="none" stroke="lightgray" d="M178.838,-321.592C211.351,-331.948 269.769,-350.553 306.694,-362.314"/>
<polygon fill="lightgray" stroke="lightgray" points="305.909,-365.737 316.499,-365.437 308.033,-359.067 305.909,-365.737"/>
<text text-anchor="middle" x="240" y="-357.8" font-family="Times New Roman,serif" font-size="14.00" fill="lightgray">wff ps</text>
</g>
<!-- n15362&#45;&gt;n15371 -->
<g id="edge46" class="edge"><title>n15362&#45;&gt;n15371</title>
<path fill="none" stroke="lightgray" d="M368.536,-300.252C427.086,-299.633 571.334,-303.973 676.493,-356 691.083,-363.219 704.499,-375.408 714.674,-386.38"/>
<polygon fill="lightgray" stroke="lightgray" points="712.232,-388.901 721.482,-394.067 717.472,-384.26 712.232,-388.901"/>
<text text-anchor="middle" x="538.993" y="-359.8" font-family="Times New Roman,serif" font-size="14.00" fill="lightgray">wff ps</text>
</g>
<!-- n15365 -->
<g id="node36" class="node"><title>n15365</title>
<ellipse fill="cyan" stroke="black" cx="341.246" cy="-229" rx="27" ry="18"/>
<text text-anchor="middle" x="341.246" y="-225.3" font-family="Times New Roman,serif" font-size="14.00">orc</text>
</g>
<!-- n15362&#45;&gt;n15365 -->
<g id="edge62" class="edge"><title>n15362&#45;&gt;n15365</title>
</g>
<!-- n15363 -->
<g id="node35" class="node"><title>n15363</title>
<ellipse fill="none" stroke="lightgray" cx="154" cy="-260" rx="27" ry="18"/>
<text text-anchor="middle" x="154" y="-256.3" font-family="Times New Roman,serif" font-size="14.00" fill="lightgray">wph</text>
</g>
<!-- n15363&#45;&gt;n15365 -->
<g id="edge47" class="edge"><title>n15363&#45;&gt;n15365</title>
<path fill="none" stroke="lightgray" d="M180.369,-255.755C212.566,-250.367 268.287,-241.042 304.707,-234.947"/>
<polygon fill="lightgray" stroke="lightgray" points="305.602,-238.346 314.887,-233.244 304.446,-231.442 305.602,-238.346"/>
<text text-anchor="middle" x="240" y="-256.8" font-family="Times New Roman,serif" font-size="14.00" fill="lightgray">wff ph</text>
</g>
<!-- n15364 -->
<g id="node37" class="node"><title>n15364</title>
<ellipse fill="none" stroke="lightgray" cx="154" cy="-188" rx="27" ry="18"/>
<text text-anchor="middle" x="154" y="-184.3" font-family="Times New Roman,serif" font-size="14.00" fill="lightgray">wps</text>
</g>
<!-- n15363&#45;&gt;n15364 -->
<g id="edge50" class="edge"><title>n15363&#45;&gt;n15364</title>
</g>
<!-- n15365&#45;&gt;n15371 -->
<g id="edge49" class="edge"><title>n15365&#45;&gt;n15371</title>
<path fill="none" stroke="black" d="M368.011,-225.447C428.634,-218.557 582.269,-209.836 676.493,-282 708.168,-306.26 722.769,-351.912 729.176,-381.627"/>
<polygon fill="black" stroke="black" points="725.81,-382.652 731.182,-391.784 732.678,-381.296 725.81,-382.652"/>
<text text-anchor="middle" x="538.993" y="-285.8" font-family="Times New Roman,serif" font-size="14.00">|&#45; ( ph &#45;&gt; ( ph \/ ps ) )</text>
</g>
<!-- n15370 -->
<g id="node39" class="node"><title>n15370</title>
<ellipse fill="cyan" stroke="black" cx="341.246" cy="-154" rx="27" ry="18"/>
<text text-anchor="middle" x="341.246" y="-150.3" font-family="Times New Roman,serif" font-size="14.00">bi2</text>
</g>
<!-- n15365&#45;&gt;n15370 -->
<g id="edge63" class="edge"><title>n15365&#45;&gt;n15370</title>
</g>
<!-- n15364&#45;&gt;n15365 -->
<g id="edge48" class="edge"><title>n15364&#45;&gt;n15365</title>
<path fill="none" stroke="lightgray" d="M179.983,-193.529C212.252,-200.671 268.605,-213.144 305.159,-221.234"/>
<polygon fill="lightgray" stroke="lightgray" points="304.844,-224.749 315.364,-223.493 306.356,-217.914 304.844,-224.749"/>
<text text-anchor="middle" x="240" y="-219.8" font-family="Times New Roman,serif" font-size="14.00" fill="lightgray">wff ps</text>
</g>
<!-- n15366 -->
<g id="node38" class="node"><title>n15366</title>
<ellipse fill="none" stroke="lightgray" cx="154" cy="-134" rx="27" ry="18"/>
<text text-anchor="middle" x="154" y="-130.3" font-family="Times New Roman,serif" font-size="14.00" fill="lightgray">wps</text>
</g>
<!-- n15366&#45;&gt;n15370 -->
<g id="edge51" class="edge"><title>n15366&#45;&gt;n15370</title>
<path fill="none" stroke="lightgray" d="M180.758,-136.781C212.879,-140.249 267.975,-146.197 304.255,-150.114"/>
<polygon fill="lightgray" stroke="lightgray" points="304.091,-153.617 314.409,-151.211 304.843,-146.657 304.091,-153.617"/>
<text text-anchor="middle" x="240" y="-151.8" font-family="Times New Roman,serif" font-size="14.00" fill="lightgray">wff ps</text>
</g>
<!-- n15369 -->
<g id="node41" class="node"><title>n15369</title>
<ellipse fill="none" stroke="lightgray" cx="154" cy="-62" rx="27" ry="18"/>
<text text-anchor="middle" x="154" y="-58.3" font-family="Times New Roman,serif" font-size="14.00" fill="lightgray">wo</text>
</g>
<!-- n15366&#45;&gt;n15369 -->
<g id="edge57" class="edge"><title>n15366&#45;&gt;n15369</title>
</g>
<!-- n15370&#45;&gt;n15371 -->
<g id="edge56" class="edge"><title>n15370&#45;&gt;n15371</title>
<path fill="none" stroke="black" d="M367.359,-149.277C428.57,-139.319 586.984,-123.128 676.493,-202 703.45,-225.754 722.182,-330.726 729.877,-381.84"/>
<polygon fill="black" stroke="black" points="726.436,-382.496 731.351,-391.882 733.362,-381.479 726.436,-382.496"/>
<text text-anchor="middle" x="538.993" y="-205.8" font-family="Times New Roman,serif" font-size="14.00">|&#45; ( ( ps &lt;&#45;&gt; ( ph \/ ps ) ) &#45;&gt; ( ( ph \/ ps ) &#45;&gt; ps ) )</text>
</g>
<!-- n15367 -->
<g id="node40" class="node"><title>n15367</title>
<ellipse fill="none" stroke="lightgray" cx="27" cy="-90" rx="27" ry="18"/>
<text text-anchor="middle" x="27" y="-86.3" font-family="Times New Roman,serif" font-size="14.00" fill="lightgray">wps</text>
</g>
<!-- n15367&#45;&gt;n15369 -->
<g id="edge52" class="edge"><title>n15367&#45;&gt;n15369</title>
<path fill="none" stroke="lightgray" d="M52.696,-84.4681C71.3212,-80.2961 97.1209,-74.5169 117.89,-69.8646"/>
<polygon fill="lightgray" stroke="lightgray" points="118.934,-73.2175 127.927,-67.6162 117.404,-66.3868 118.934,-73.2175"/>
<text text-anchor="middle" x="90.5" y="-84.8" font-family="Times New Roman,serif" font-size="14.00" fill="lightgray">wff ps</text>
</g>
<!-- n15368 -->
<g id="node42" class="node"><title>n15368</title>
<ellipse fill="none" stroke="lightgray" cx="27" cy="-18" rx="27" ry="18"/>
<text text-anchor="middle" x="27" y="-14.3" font-family="Times New Roman,serif" font-size="14.00" fill="lightgray">wph</text>
</g>
<!-- n15367&#45;&gt;n15368 -->
<g id="edge55" class="edge"><title>n15367&#45;&gt;n15368</title>
</g>
<!-- n15369&#45;&gt;n15370 -->
<g id="edge54" class="edge"><title>n15369&#45;&gt;n15370</title>
<path fill="none" stroke="lightgray" d="M177.138,-71.4718C202.529,-82.4999 245.258,-101.565 281,-120 291.224,-125.273 302.206,-131.432 311.904,-137.047"/>
<polygon fill="lightgray" stroke="lightgray" points="310.343,-140.189 320.741,-142.219 313.878,-134.148 310.343,-140.189"/>
<text text-anchor="middle" x="240" y="-123.8" font-family="Times New Roman,serif" font-size="14.00" fill="lightgray">wff ( ph \/ ps )</text>
</g>
<!-- n15368&#45;&gt;n15369 -->
<g id="edge53" class="edge"><title>n15368&#45;&gt;n15369</title>
<path fill="none" stroke="lightgray" d="M51.2186,-26.1729C70.6886,-33.0264 98.7117,-42.8905 120.426,-50.534"/>
<polygon fill="lightgray" stroke="lightgray" points="119.311,-53.8519 129.906,-53.8708 121.635,-47.249 119.311,-53.8519"/>
<text text-anchor="middle" x="90.5" y="-50.8" font-family="Times New Roman,serif" font-size="14.00" fill="lightgray">wff ph</text>
</g>
</g>
</svg>
