<?xml version="1.0" encoding="UTF-8" standalone="no"?>
<!DOCTYPE svg PUBLIC "-//W3C//DTD SVG 1.1//EN"
 "http://www.w3.org/Graphics/SVG/1.1/DTD/svg11.dtd">
<!-- Generated by graphviz version 2.38.0 (20140413.2041)
 -->
<!-- Title: proof_pm5_21 Pages: 1 -->
<svg width="826pt" height="350pt"
 viewBox="0.00 0.00 826.09 350.00" xmlns="http://www.w3.org/2000/svg" xmlns:xlink="http://www.w3.org/1999/xlink">
<g id="graph0" class="graph" transform="scale(1 1) rotate(0) translate(4 346)">
<title>proof_pm5_21</title>
<polygon fill="white" stroke="none" points="-4,4 -4,-346 822.087,-346 822.087,4 -4,4"/>
<!-- n14744 -->
<g id="node1" class="node"><title>n14744</title>
<ellipse fill="none" stroke="lightgray" cx="27" cy="-324" rx="27" ry="18"/>
<text text-anchor="middle" x="27" y="-320.3" font-family="Times New Roman,serif" font-size="14.00" fill="lightgray">wph</text>
</g>
<!-- n14745 -->
<g id="node2" class="node"><title>n14745</title>
<ellipse fill="none" stroke="lightgray" cx="173.796" cy="-318" rx="27" ry="18"/>
<text text-anchor="middle" x="173.796" y="-314.3" font-family="Times New Roman,serif" font-size="14.00" fill="lightgray">wn</text>
</g>
<!-- n14744&#45;&gt;n14745 -->
<g id="edge1" class="edge"><title>n14744&#45;&gt;n14745</title>
<path fill="none" stroke="lightgray" d="M54.2214,-322.913C77.2856,-321.958 111.081,-320.557 136.697,-319.496"/>
<polygon fill="lightgray" stroke="lightgray" points="136.923,-322.99 146.769,-319.078 136.633,-315.996 136.923,-322.99"/>
<text text-anchor="middle" x="90.5" y="-325.8" font-family="Times New Roman,serif" font-size="14.00" fill="lightgray">wff ph</text>
</g>
<!-- n14754 -->
<g id="node3" class="node"><title>n14754</title>
<ellipse fill="cyan" stroke="black" cx="492.592" cy="-209" rx="27" ry="18"/>
<text text-anchor="middle" x="492.592" y="-205.3" font-family="Times New Roman,serif" font-size="14.00">imp</text>
</g>
<!-- n14745&#45;&gt;n14754 -->
<g id="edge2" class="edge"><title>n14745&#45;&gt;n14754</title>
<path fill="none" stroke="lightgray" d="M201.101,-317.275C252.047,-314.809 366.306,-304.02 447.592,-257 457.825,-251.08 467.04,-241.987 474.362,-233.301"/>
<polygon fill="lightgray" stroke="lightgray" points="477.303,-235.225 480.772,-225.214 471.817,-230.877 477.303,-235.225"/>
<text text-anchor="middle" x="343.092" y="-317.8" font-family="Times New Roman,serif" font-size="14.00" fill="lightgray">wff &#45;. ph</text>
</g>
<!-- n14747 -->
<g id="node5" class="node"><title>n14747</title>
<ellipse fill="none" stroke="lightgray" cx="173.796" cy="-246" rx="27" ry="18"/>
<text text-anchor="middle" x="173.796" y="-242.3" font-family="Times New Roman,serif" font-size="14.00" fill="lightgray">wn</text>
</g>
<!-- n14745&#45;&gt;n14747 -->
<g id="edge14" class="edge"><title>n14745&#45;&gt;n14747</title>
</g>
<!-- QED -->
<g id="node12" class="node"><title>QED</title>
</g>
<!-- n14754&#45;&gt;QED -->
<g id="edge13" class="edge"><title>n14754&#45;&gt;QED</title>
<path fill="none" stroke="black" d="M519.704,-209C571.584,-209 687.876,-209 748.847,-209"/>
<polygon fill="black" stroke="black" points="749.205,-212.5 759.205,-209 749.205,-205.5 749.205,-212.5"/>
<text text-anchor="middle" x="639.592" y="-212.8" font-family="Times New Roman,serif" font-size="14.00">|&#45; ( ( &#45;. ph /\ &#45;. ps ) &#45;&gt; ( ph &lt;&#45;&gt; ps ) )</text>
</g>
<!-- n14746 -->
<g id="node4" class="node"><title>n14746</title>
<ellipse fill="none" stroke="lightgray" cx="27" cy="-270" rx="27" ry="18"/>
<text text-anchor="middle" x="27" y="-266.3" font-family="Times New Roman,serif" font-size="14.00" fill="lightgray">wps</text>
</g>
<!-- n14746&#45;&gt;n14747 -->
<g id="edge3" class="edge"><title>n14746&#45;&gt;n14747</title>
<path fill="none" stroke="lightgray" d="M53.5533,-265.765C76.8154,-261.909 111.385,-256.179 137.321,-251.88"/>
<polygon fill="lightgray" stroke="lightgray" points="138.205,-255.281 147.498,-250.193 137.06,-248.376 138.205,-255.281"/>
<text text-anchor="middle" x="90.5" y="-265.8" font-family="Times New Roman,serif" font-size="14.00" fill="lightgray">wff ps</text>
</g>
<!-- n14747&#45;&gt;n14754 -->
<g id="edge4" class="edge"><title>n14747&#45;&gt;n14754</title>
<path fill="none" stroke="lightgray" d="M200.772,-243.244C249.301,-238.051 357.018,-226.32 447.592,-215 450.296,-214.662 453.091,-214.303 455.902,-213.935"/>
<polygon fill="lightgray" stroke="lightgray" points="456.562,-217.378 466.011,-212.587 455.636,-210.44 456.562,-217.378"/>
<text text-anchor="middle" x="343.092" y="-241.8" font-family="Times New Roman,serif" font-size="14.00" fill="lightgray">wff &#45;. ps</text>
</g>
<!-- n14750 -->
<g id="node7" class="node"><title>n14750</title>
<ellipse fill="none" stroke="lightgray" cx="173.796" cy="-174" rx="27" ry="18"/>
<text text-anchor="middle" x="173.796" y="-170.3" font-family="Times New Roman,serif" font-size="14.00" fill="lightgray">wb</text>
</g>
<!-- n14747&#45;&gt;n14750 -->
<g id="edge15" class="edge"><title>n14747&#45;&gt;n14750</title>
</g>
<!-- n14748 -->
<g id="node6" class="node"><title>n14748</title>
<ellipse fill="none" stroke="lightgray" cx="27" cy="-216" rx="27" ry="18"/>
<text text-anchor="middle" x="27" y="-212.3" font-family="Times New Roman,serif" font-size="14.00" fill="lightgray">wph</text>
</g>
<!-- n14748&#45;&gt;n14750 -->
<g id="edge5" class="edge"><title>n14748&#45;&gt;n14750</title>
<path fill="none" stroke="lightgray" d="M52.2356,-208.97C75.9362,-202.095 112.24,-191.565 138.818,-183.856"/>
<polygon fill="lightgray" stroke="lightgray" points="139.852,-187.2 148.481,-181.053 137.902,-180.477 139.852,-187.2"/>
<text text-anchor="middle" x="90.5" y="-206.8" font-family="Times New Roman,serif" font-size="14.00" fill="lightgray">wff ph</text>
</g>
<!-- n14749 -->
<g id="node8" class="node"><title>n14749</title>
<ellipse fill="none" stroke="lightgray" cx="27" cy="-144" rx="27" ry="18"/>
<text text-anchor="middle" x="27" y="-140.3" font-family="Times New Roman,serif" font-size="14.00" fill="lightgray">wps</text>
</g>
<!-- n14748&#45;&gt;n14749 -->
<g id="edge8" class="edge"><title>n14748&#45;&gt;n14749</title>
</g>
<!-- n14750&#45;&gt;n14754 -->
<g id="edge7" class="edge"><title>n14750&#45;&gt;n14754</title>
<path fill="none" stroke="lightgray" d="M200.861,-175.555C249.538,-178.664 357.487,-186.53 447.592,-200 450.483,-200.432 453.472,-200.931 456.467,-201.468"/>
<polygon fill="lightgray" stroke="lightgray" points="456.065,-204.954 466.544,-203.395 457.38,-198.079 456.065,-204.954"/>
<text text-anchor="middle" x="343.092" y="-203.8" font-family="Times New Roman,serif" font-size="14.00" fill="lightgray">wff ( ph &lt;&#45;&gt; ps )</text>
</g>
<!-- n14753 -->
<g id="node10" class="node"><title>n14753</title>
<ellipse fill="cyan" stroke="black" cx="173.796" cy="-100" rx="46.5926" ry="18"/>
<text text-anchor="middle" x="173.796" y="-96.3" font-family="Times New Roman,serif" font-size="14.00">pm5.21im</text>
</g>
<!-- n14750&#45;&gt;n14753 -->
<g id="edge16" class="edge"><title>n14750&#45;&gt;n14753</title>
</g>
<!-- n14749&#45;&gt;n14750 -->
<g id="edge6" class="edge"><title>n14749&#45;&gt;n14750</title>
<path fill="none" stroke="lightgray" d="M52.8913,-149.157C76.3047,-154.008 111.586,-161.318 137.823,-166.754"/>
<polygon fill="lightgray" stroke="lightgray" points="137.243,-170.208 147.745,-168.81 138.663,-163.354 137.243,-170.208"/>
<text text-anchor="middle" x="90.5" y="-164.8" font-family="Times New Roman,serif" font-size="14.00" fill="lightgray">wff ps</text>
</g>
<!-- n14751 -->
<g id="node9" class="node"><title>n14751</title>
<ellipse fill="none" stroke="lightgray" cx="27" cy="-90" rx="27" ry="18"/>
<text text-anchor="middle" x="27" y="-86.3" font-family="Times New Roman,serif" font-size="14.00" fill="lightgray">wph</text>
</g>
<!-- n14751&#45;&gt;n14753 -->
<g id="edge9" class="edge"><title>n14751&#45;&gt;n14753</title>
<path fill="none" stroke="lightgray" d="M53.8866,-91.7878C71.5126,-93.0051 95.5171,-94.6629 117.344,-96.1704"/>
<polygon fill="lightgray" stroke="lightgray" points="117.299,-99.6755 127.517,-96.8729 117.782,-92.6921 117.299,-99.6755"/>
<text text-anchor="middle" x="90.5" y="-99.8" font-family="Times New Roman,serif" font-size="14.00" fill="lightgray">wff ph</text>
</g>
<!-- n14752 -->
<g id="node11" class="node"><title>n14752</title>
<ellipse fill="none" stroke="lightgray" cx="27" cy="-18" rx="27" ry="18"/>
<text text-anchor="middle" x="27" y="-14.3" font-family="Times New Roman,serif" font-size="14.00" fill="lightgray">wps</text>
</g>
<!-- n14751&#45;&gt;n14752 -->
<g id="edge12" class="edge"><title>n14751&#45;&gt;n14752</title>
</g>
<!-- n14753&#45;&gt;n14754 -->
<g id="edge11" class="edge"><title>n14753&#45;&gt;n14754</title>
<path fill="none" stroke="black" d="M220.856,-101.606C277.732,-105.422 375.745,-118.115 447.592,-160 458.028,-166.084 467.344,-175.493 474.688,-184.445"/>
<polygon fill="black" stroke="black" points="471.971,-186.654 480.853,-192.43 477.512,-182.376 471.971,-186.654"/>
<text text-anchor="middle" x="343.092" y="-163.8" font-family="Times New Roman,serif" font-size="14.00">|&#45; ( &#45;. ph &#45;&gt; ( &#45;. ps &#45;&gt; ( ph &lt;&#45;&gt; ps ) ) )</text>
</g>
<!-- n14752&#45;&gt;n14753 -->
<g id="edge10" class="edge"><title>n14752&#45;&gt;n14753</title>
<path fill="none" stroke="lightgray" d="M48.1332,-29.4017C71.3424,-42.5454 109.896,-64.3788 137.993,-80.2909"/>
<polygon fill="lightgray" stroke="lightgray" points="136.29,-83.3482 146.716,-85.2305 139.739,-77.2571 136.29,-83.3482"/>
<text text-anchor="middle" x="90.5" y="-67.8" font-family="Times New Roman,serif" font-size="14.00" fill="lightgray">wff ps</text>
</g>
</g>
</svg>
