<?xml version="1.0" encoding="UTF-8" standalone="no"?>
<!DOCTYPE svg PUBLIC "-//W3C//DTD SVG 1.1//EN"
 "http://www.w3.org/Graphics/SVG/1.1/DTD/svg11.dtd">
<!-- Generated by graphviz version 2.38.0 (20140413.2041)
 -->
<!-- Title: proof_pm5_74da Pages: 1 -->
<svg width="1134pt" height="439pt"
 viewBox="0.00 0.00 1134.18 439.00" xmlns="http://www.w3.org/2000/svg" xmlns:xlink="http://www.w3.org/1999/xlink">
<g id="graph0" class="graph" transform="scale(1 1) rotate(0) translate(4 435)">
<title>proof_pm5_74da</title>
<polygon fill="white" stroke="none" points="-4,4 -4,-435 1130.18,-435 1130.18,4 -4,4"/>
<!-- n11706 -->
<g id="node1" class="node"><title>n11706</title>
<ellipse fill="none" stroke="lightgray" cx="469.89" cy="-413" rx="27" ry="18"/>
<text text-anchor="middle" x="469.89" y="-409.3" font-family="Times New Roman,serif" font-size="14.00" fill="lightgray">wph</text>
</g>
<!-- n11717 -->
<g id="node2" class="node"><title>n11717</title>
<ellipse fill="cyan" stroke="black" cx="756.787" cy="-269" rx="42.7926" ry="18"/>
<text text-anchor="middle" x="756.787" y="-265.3" font-family="Times New Roman,serif" font-size="14.00">pm5.74d</text>
</g>
<!-- n11706&#45;&gt;n11717 -->
<g id="edge1" class="edge"><title>n11706&#45;&gt;n11717</title>
<path fill="none" stroke="lightgray" d="M496.792,-411.188C541.19,-406.971 633.102,-393.283 695.89,-350 716.001,-336.137 731.995,-313.293 742.379,-295.393"/>
<polygon fill="lightgray" stroke="lightgray" points="745.491,-296.998 747.29,-286.557 739.372,-293.598 745.491,-296.998"/>
<text text-anchor="middle" x="605.39" y="-412.8" font-family="Times New Roman,serif" font-size="14.00" fill="lightgray">wff ph</text>
</g>
<!-- n11707 -->
<g id="node3" class="node"><title>n11707</title>
<ellipse fill="none" stroke="lightgray" cx="469.89" cy="-341" rx="27" ry="18"/>
<text text-anchor="middle" x="469.89" y="-337.3" font-family="Times New Roman,serif" font-size="14.00" fill="lightgray">wps</text>
</g>
<!-- n11706&#45;&gt;n11707 -->
<g id="edge17" class="edge"><title>n11706&#45;&gt;n11707</title>
</g>
<!-- QED -->
<g id="node13" class="node"><title>QED</title>
</g>
<!-- n11717&#45;&gt;QED -->
<g id="edge16" class="edge"><title>n11717&#45;&gt;QED</title>
<path fill="none" stroke="black" d="M799.929,-269C866.173,-269 993.68,-269 1057.53,-269"/>
<polygon fill="black" stroke="black" points="1057.58,-272.5 1067.58,-269 1057.58,-265.5 1057.58,-272.5"/>
<text text-anchor="middle" x="933.683" y="-272.8" font-family="Times New Roman,serif" font-size="14.00">|&#45; ( ph &#45;&gt; ( ( ps &#45;&gt; ch ) &lt;&#45;&gt; ( ps &#45;&gt; th ) ) )</text>
</g>
<!-- n11707&#45;&gt;n11717 -->
<g id="edge2" class="edge"><title>n11707&#45;&gt;n11717</title>
<path fill="none" stroke="lightgray" d="M496.019,-335.733C537.764,-326.837 623.935,-307.857 695.89,-288 701.482,-286.457 707.335,-284.735 713.099,-282.976"/>
<polygon fill="lightgray" stroke="lightgray" points="714.145,-286.316 722.655,-280.003 712.066,-279.632 714.145,-286.316"/>
<text text-anchor="middle" x="605.39" y="-334.8" font-family="Times New Roman,serif" font-size="14.00" fill="lightgray">wff ps</text>
</g>
<!-- n11708 -->
<g id="node4" class="node"><title>n11708</title>
<ellipse fill="none" stroke="lightgray" cx="469.89" cy="-269" rx="27" ry="18"/>
<text text-anchor="middle" x="469.89" y="-265.3" font-family="Times New Roman,serif" font-size="14.00" fill="lightgray">wch</text>
</g>
<!-- n11707&#45;&gt;n11708 -->
<g id="edge18" class="edge"><title>n11707&#45;&gt;n11708</title>
</g>
<!-- n11708&#45;&gt;n11717 -->
<g id="edge3" class="edge"><title>n11708&#45;&gt;n11717</title>
<path fill="none" stroke="lightgray" d="M496.928,-269C543.61,-269 642.365,-269 703.5,-269"/>
<polygon fill="lightgray" stroke="lightgray" points="703.715,-272.5 713.715,-269 703.715,-265.5 703.715,-272.5"/>
<text text-anchor="middle" x="605.39" y="-272.8" font-family="Times New Roman,serif" font-size="14.00" fill="lightgray">wff ch</text>
</g>
<!-- n11709 -->
<g id="node5" class="node"><title>n11709</title>
<ellipse fill="none" stroke="lightgray" cx="469.89" cy="-197" rx="27" ry="18"/>
<text text-anchor="middle" x="469.89" y="-193.3" font-family="Times New Roman,serif" font-size="14.00" fill="lightgray">wth</text>
</g>
<!-- n11708&#45;&gt;n11709 -->
<g id="edge19" class="edge"><title>n11708&#45;&gt;n11709</title>
</g>
<!-- n11709&#45;&gt;n11717 -->
<g id="edge4" class="edge"><title>n11709&#45;&gt;n11717</title>
<path fill="none" stroke="lightgray" d="M496.019,-202.267C537.764,-211.163 623.935,-230.143 695.89,-250 701.482,-251.543 707.335,-253.265 713.099,-255.024"/>
<polygon fill="lightgray" stroke="lightgray" points="712.066,-258.368 722.655,-257.997 714.145,-251.684 712.066,-258.368"/>
<text text-anchor="middle" x="605.39" y="-253.8" font-family="Times New Roman,serif" font-size="14.00" fill="lightgray">wff th</text>
</g>
<!-- n11716 -->
<g id="node7" class="node"><title>n11716</title>
<ellipse fill="cyan" stroke="black" cx="469.89" cy="-125" rx="27" ry="18"/>
<text text-anchor="middle" x="469.89" y="-121.3" font-family="Times New Roman,serif" font-size="14.00">ex</text>
</g>
<!-- n11709&#45;&gt;n11716 -->
<g id="edge20" class="edge"><title>n11709&#45;&gt;n11716</title>
</g>
<!-- n11710 -->
<g id="node6" class="node"><title>n11710</title>
<ellipse fill="none" stroke="lightgray" cx="180.945" cy="-234" rx="27" ry="18"/>
<text text-anchor="middle" x="180.945" y="-230.3" font-family="Times New Roman,serif" font-size="14.00" fill="lightgray">wph</text>
</g>
<!-- n11710&#45;&gt;n11716 -->
<g id="edge5" class="edge"><title>n11710&#45;&gt;n11716</title>
<path fill="none" stroke="lightgray" d="M207.868,-232.158C254.36,-227.862 353.703,-214.104 424.89,-172 434.806,-166.136 443.869,-157.375 451.159,-149.002"/>
<polygon fill="lightgray" stroke="lightgray" points="453.927,-151.146 457.575,-141.199 448.52,-146.7 453.927,-151.146"/>
<text text-anchor="middle" x="338.89" y="-229.8" font-family="Times New Roman,serif" font-size="14.00" fill="lightgray">wff ph</text>
</g>
<!-- n11711 -->
<g id="node8" class="node"><title>n11711</title>
<ellipse fill="none" stroke="lightgray" cx="180.945" cy="-162" rx="27" ry="18"/>
<text text-anchor="middle" x="180.945" y="-158.3" font-family="Times New Roman,serif" font-size="14.00" fill="lightgray">wps</text>
</g>
<!-- n11710&#45;&gt;n11711 -->
<g id="edge13" class="edge"><title>n11710&#45;&gt;n11711</title>
</g>
<!-- n11716&#45;&gt;n11717 -->
<g id="edge12" class="edge"><title>n11716&#45;&gt;n11717</title>
<path fill="none" stroke="black" d="M496.815,-126.637C541.248,-130.566 633.211,-143.712 695.89,-187 716.149,-200.991 732.13,-224.121 742.471,-242.254"/>
<polygon fill="black" stroke="black" points="739.494,-244.106 747.357,-251.207 745.638,-240.752 739.494,-244.106"/>
<text text-anchor="middle" x="605.39" y="-190.8" font-family="Times New Roman,serif" font-size="14.00">|&#45; ( ph &#45;&gt; ( ps &#45;&gt; ( ch &lt;&#45;&gt; th ) ) )</text>
</g>
<!-- n11711&#45;&gt;n11716 -->
<g id="edge6" class="edge"><title>n11711&#45;&gt;n11716</title>
<path fill="none" stroke="lightgray" d="M207.842,-158.77C252.266,-153.212 345.851,-141.432 424.89,-131 427.592,-130.643 430.386,-130.271 433.196,-129.894"/>
<polygon fill="lightgray" stroke="lightgray" points="433.862,-133.336 443.302,-128.527 432.923,-126.399 433.862,-133.336"/>
<text text-anchor="middle" x="338.89" y="-156.8" font-family="Times New Roman,serif" font-size="14.00" fill="lightgray">wff ps</text>
</g>
<!-- n11714 -->
<g id="node10" class="node"><title>n11714</title>
<ellipse fill="none" stroke="lightgray" cx="180.945" cy="-90" rx="27" ry="18"/>
<text text-anchor="middle" x="180.945" y="-86.3" font-family="Times New Roman,serif" font-size="14.00" fill="lightgray">wb</text>
</g>
<!-- n11711&#45;&gt;n11714 -->
<g id="edge14" class="edge"><title>n11711&#45;&gt;n11714</title>
</g>
<!-- n11712 -->
<g id="node9" class="node"><title>n11712</title>
<ellipse fill="none" stroke="lightgray" cx="27" cy="-135" rx="27" ry="18"/>
<text text-anchor="middle" x="27" y="-131.3" font-family="Times New Roman,serif" font-size="14.00" fill="lightgray">wch</text>
</g>
<!-- n11712&#45;&gt;n11714 -->
<g id="edge7" class="edge"><title>n11712&#45;&gt;n11714</title>
<path fill="none" stroke="lightgray" d="M52.0762,-127.87C77.4157,-120.365 117.509,-108.491 146.042,-100.041"/>
<polygon fill="lightgray" stroke="lightgray" points="147.387,-103.293 155.982,-97.097 145.399,-96.5808 147.387,-103.293"/>
<text text-anchor="middle" x="90.5" y="-125.8" font-family="Times New Roman,serif" font-size="14.00" fill="lightgray">wff ch</text>
</g>
<!-- n11713 -->
<g id="node11" class="node"><title>n11713</title>
<ellipse fill="none" stroke="lightgray" cx="27" cy="-63" rx="27" ry="18"/>
<text text-anchor="middle" x="27" y="-59.3" font-family="Times New Roman,serif" font-size="14.00" fill="lightgray">wth</text>
</g>
<!-- n11712&#45;&gt;n11713 -->
<g id="edge10" class="edge"><title>n11712&#45;&gt;n11713</title>
</g>
<!-- n11714&#45;&gt;n11716 -->
<g id="edge9" class="edge"><title>n11714&#45;&gt;n11716</title>
<path fill="none" stroke="lightgray" d="M207.939,-91.9647C252.506,-95.5156 346.299,-103.785 424.89,-116 427.78,-116.449 430.767,-116.96 433.761,-117.504"/>
<polygon fill="lightgray" stroke="lightgray" points="433.354,-120.99 443.835,-119.446 434.678,-114.117 433.354,-120.99"/>
<text text-anchor="middle" x="338.89" y="-119.8" font-family="Times New Roman,serif" font-size="14.00" fill="lightgray">wff ( ch &lt;&#45;&gt; th )</text>
</g>
<!-- n11715 -->
<g id="node12" class="node"><title>n11715</title>
<ellipse fill="orange" stroke="black" cx="180.945" cy="-18" rx="53.8905" ry="18"/>
<text text-anchor="middle" x="180.945" y="-14.3" font-family="Times New Roman,serif" font-size="14.00">pm5.74da.1</text>
</g>
<!-- n11714&#45;&gt;n11715 -->
<g id="edge15" class="edge"><title>n11714&#45;&gt;n11715</title>
</g>
<!-- n11713&#45;&gt;n11714 -->
<g id="edge8" class="edge"><title>n11713&#45;&gt;n11714</title>
<path fill="none" stroke="lightgray" d="M53.4322,-67.5192C78.378,-71.952 116.629,-78.7489 144.541,-83.7088"/>
<polygon fill="lightgray" stroke="lightgray" points="144.225,-87.2075 154.683,-85.5111 145.45,-80.3154 144.225,-87.2075"/>
<text text-anchor="middle" x="90.5" y="-81.8" font-family="Times New Roman,serif" font-size="14.00" fill="lightgray">wff th</text>
</g>
<!-- n11715&#45;&gt;n11716 -->
<g id="edge11" class="edge"><title>n11715&#45;&gt;n11716</title>
<path fill="none" stroke="black" d="M233.516,-22.1533C285.014,-28.1961 364.923,-42.8448 424.89,-78 434.828,-83.826 443.896,-92.5786 451.183,-100.957"/>
<polygon fill="black" stroke="black" points="448.545,-103.259 457.595,-108.768 453.955,-98.8178 448.545,-103.259"/>
<text text-anchor="middle" x="338.89" y="-81.8" font-family="Times New Roman,serif" font-size="14.00">|&#45; ( ( ph / ps ) &#45;&gt; ( ch &lt;&#45;&gt; th ) )</text>
</g>
</g>
</svg>
