<?xml version="1.0" encoding="UTF-8" standalone="no"?>
<!DOCTYPE svg PUBLIC "-//W3C//DTD SVG 1.1//EN"
 "http://www.w3.org/Graphics/SVG/1.1/DTD/svg11.dtd">
<!-- Generated by graphviz version 2.38.0 (20140413.2041)
 -->
<!-- Title: proof_pm5_44 Pages: 1 -->
<svg width="1193pt" height="566pt"
 viewBox="0.00 0.00 1192.99 566.00" xmlns="http://www.w3.org/2000/svg" xmlns:xlink="http://www.w3.org/1999/xlink">
<g id="graph0" class="graph" transform="scale(1 1) rotate(0) translate(4 562)">
<title>proof_pm5_44</title>
<polygon fill="white" stroke="none" points="-4,4 -4,-562 1188.99,-562 1188.99,4 -4,4"/>
<!-- n16175 -->
<g id="node1" class="node"><title>n16175</title>
<ellipse fill="none" stroke="lightgray" cx="154" cy="-540" rx="27" ry="18"/>
<text text-anchor="middle" x="154" y="-536.3" font-family="Times New Roman,serif" font-size="14.00" fill="lightgray">wph</text>
</g>
<!-- n16179 -->
<g id="node2" class="node"><title>n16179</title>
<ellipse fill="none" stroke="lightgray" cx="322" cy="-442" rx="27" ry="18"/>
<text text-anchor="middle" x="322" y="-438.3" font-family="Times New Roman,serif" font-size="14.00" fill="lightgray">wi</text>
</g>
<!-- n16175&#45;&gt;n16179 -->
<g id="edge1" class="edge"><title>n16175&#45;&gt;n16179</title>
<path fill="none" stroke="lightgray" d="M177.519,-530.986C202.73,-520.435 244.328,-501.627 277,-480 284.22,-475.221 291.542,-469.378 298.086,-463.721"/>
<polygon fill="lightgray" stroke="lightgray" points="300.767,-466.02 305.894,-456.748 296.104,-460.798 300.767,-466.02"/>
<text text-anchor="middle" x="238" y="-524.8" font-family="Times New Roman,serif" font-size="14.00" fill="lightgray">wff ph</text>
</g>
<!-- n16178 -->
<g id="node4" class="node"><title>n16178</title>
<ellipse fill="none" stroke="lightgray" cx="154" cy="-468" rx="27" ry="18"/>
<text text-anchor="middle" x="154" y="-464.3" font-family="Times New Roman,serif" font-size="14.00" fill="lightgray">wa</text>
</g>
<!-- n16175&#45;&gt;n16178 -->
<g id="edge7" class="edge"><title>n16175&#45;&gt;n16178</title>
</g>
<!-- n16190 -->
<g id="node6" class="node"><title>n16190</title>
<ellipse fill="cyan" stroke="black" cx="733.247" cy="-315" rx="29.4969" ry="18"/>
<text text-anchor="middle" x="733.247" y="-311.3" font-family="Times New Roman,serif" font-size="14.00">baibr</text>
</g>
<!-- n16179&#45;&gt;n16190 -->
<g id="edge6" class="edge"><title>n16179&#45;&gt;n16190</title>
<path fill="none" stroke="lightgray" d="M349.15,-442.083C411.705,-441.171 573.16,-432.181 686,-367 697.606,-360.296 707.838,-349.637 715.707,-339.71"/>
<polygon fill="lightgray" stroke="lightgray" points="718.552,-341.75 721.74,-331.646 712.947,-337.557 718.552,-341.75"/>
<text text-anchor="middle" x="526.5" y="-444.8" font-family="Times New Roman,serif" font-size="14.00" fill="lightgray">wff ( ph &#45;&gt; ( ps / ch ) )</text>
</g>
<!-- n16182 -->
<g id="node8" class="node"><title>n16182</title>
<ellipse fill="none" stroke="lightgray" cx="322" cy="-352" rx="27" ry="18"/>
<text text-anchor="middle" x="322" y="-348.3" font-family="Times New Roman,serif" font-size="14.00" fill="lightgray">wi</text>
</g>
<!-- n16179&#45;&gt;n16182 -->
<g id="edge23" class="edge"><title>n16179&#45;&gt;n16182</title>
</g>
<!-- n16176 -->
<g id="node3" class="node"><title>n16176</title>
<ellipse fill="none" stroke="lightgray" cx="27" cy="-504" rx="27" ry="18"/>
<text text-anchor="middle" x="27" y="-500.3" font-family="Times New Roman,serif" font-size="14.00" fill="lightgray">wps</text>
</g>
<!-- n16176&#45;&gt;n16178 -->
<g id="edge2" class="edge"><title>n16176&#45;&gt;n16178</title>
<path fill="none" stroke="lightgray" d="M52.1013,-497.059C71.1232,-491.581 97.893,-483.871 119.079,-477.769"/>
<polygon fill="lightgray" stroke="lightgray" points="120.332,-481.051 128.973,-474.92 118.395,-474.324 120.332,-481.051"/>
<text text-anchor="middle" x="90.5" y="-494.8" font-family="Times New Roman,serif" font-size="14.00" fill="lightgray">wff ps</text>
</g>
<!-- n16177 -->
<g id="node5" class="node"><title>n16177</title>
<ellipse fill="none" stroke="lightgray" cx="27" cy="-432" rx="27" ry="18"/>
<text text-anchor="middle" x="27" y="-428.3" font-family="Times New Roman,serif" font-size="14.00" fill="lightgray">wch</text>
</g>
<!-- n16176&#45;&gt;n16177 -->
<g id="edge5" class="edge"><title>n16176&#45;&gt;n16177</title>
</g>
<!-- n16178&#45;&gt;n16179 -->
<g id="edge4" class="edge"><title>n16178&#45;&gt;n16179</title>
<path fill="none" stroke="lightgray" d="M180.574,-463.994C208.6,-459.605 253.76,-452.531 285.277,-447.595"/>
<polygon fill="lightgray" stroke="lightgray" points="286.059,-451.015 295.397,-446.01 284.976,-444.1 286.059,-451.015"/>
<text text-anchor="middle" x="238" y="-464.8" font-family="Times New Roman,serif" font-size="14.00" fill="lightgray">wff ( ps / ch )</text>
</g>
<!-- n16177&#45;&gt;n16178 -->
<g id="edge3" class="edge"><title>n16177&#45;&gt;n16178</title>
<path fill="none" stroke="lightgray" d="M52.1013,-438.941C71.1232,-444.419 97.893,-452.129 119.079,-458.231"/>
<polygon fill="lightgray" stroke="lightgray" points="118.395,-461.676 128.973,-461.08 120.332,-454.949 118.395,-461.676"/>
<text text-anchor="middle" x="90.5" y="-458.8" font-family="Times New Roman,serif" font-size="14.00" fill="lightgray">wff ch</text>
</g>
<!-- QED -->
<g id="node17" class="node"><title>QED</title>
</g>
<!-- n16190&#45;&gt;QED -->
<g id="edge22" class="edge"><title>n16190&#45;&gt;QED</title>
<path fill="none" stroke="black" d="M762.819,-315C836.473,-315 1032.86,-315 1116.33,-315"/>
<polygon fill="black" stroke="black" points="1116.41,-318.5 1126.41,-315 1116.41,-311.5 1116.41,-318.5"/>
<text text-anchor="middle" x="944.495" y="-318.8" font-family="Times New Roman,serif" font-size="14.00">|&#45; ( ( ph &#45;&gt; ps ) &#45;&gt; ( ( ph &#45;&gt; ch ) &lt;&#45;&gt; ( ph &#45;&gt; ( ps / ch ) ) ) )</text>
</g>
<!-- n16180 -->
<g id="node7" class="node"><title>n16180</title>
<ellipse fill="none" stroke="lightgray" cx="154" cy="-414" rx="27" ry="18"/>
<text text-anchor="middle" x="154" y="-410.3" font-family="Times New Roman,serif" font-size="14.00" fill="lightgray">wph</text>
</g>
<!-- n16180&#45;&gt;n16182 -->
<g id="edge8" class="edge"><title>n16180&#45;&gt;n16182</title>
<path fill="none" stroke="lightgray" d="M178.082,-405.379C206.823,-394.644 256.09,-376.243 288.603,-364.1"/>
<polygon fill="lightgray" stroke="lightgray" points="289.971,-367.325 298.114,-360.548 287.522,-360.768 289.971,-367.325"/>
<text text-anchor="middle" x="238" y="-400.8" font-family="Times New Roman,serif" font-size="14.00" fill="lightgray">wff ph</text>
</g>
<!-- n16181 -->
<g id="node9" class="node"><title>n16181</title>
<ellipse fill="none" stroke="lightgray" cx="154" cy="-342" rx="27" ry="18"/>
<text text-anchor="middle" x="154" y="-338.3" font-family="Times New Roman,serif" font-size="14.00" fill="lightgray">wps</text>
</g>
<!-- n16180&#45;&gt;n16181 -->
<g id="edge11" class="edge"><title>n16180&#45;&gt;n16181</title>
</g>
<!-- n16182&#45;&gt;n16190 -->
<g id="edge10" class="edge"><title>n16182&#45;&gt;n16190</title>
<path fill="none" stroke="lightgray" d="M349.007,-350.172C408.661,-345.894 559.91,-334.557 686,-321 688.699,-320.71 691.485,-320.393 694.288,-320.061"/>
<polygon fill="lightgray" stroke="lightgray" points="694.895,-323.512 704.391,-318.815 694.038,-316.565 694.895,-323.512"/>
<text text-anchor="middle" x="526.5" y="-351.8" font-family="Times New Roman,serif" font-size="14.00" fill="lightgray">wff ( ph &#45;&gt; ps )</text>
</g>
<!-- n16185 -->
<g id="node11" class="node"><title>n16185</title>
<ellipse fill="none" stroke="lightgray" cx="322" cy="-280" rx="27" ry="18"/>
<text text-anchor="middle" x="322" y="-276.3" font-family="Times New Roman,serif" font-size="14.00" fill="lightgray">wi</text>
</g>
<!-- n16182&#45;&gt;n16185 -->
<g id="edge24" class="edge"><title>n16182&#45;&gt;n16185</title>
</g>
<!-- n16181&#45;&gt;n16182 -->
<g id="edge9" class="edge"><title>n16181&#45;&gt;n16182</title>
<path fill="none" stroke="lightgray" d="M180.938,-343.563C208.874,-345.245 253.527,-347.935 284.889,-349.825"/>
<polygon fill="lightgray" stroke="lightgray" points="284.779,-353.324 294.971,-350.432 285.2,-346.337 284.779,-353.324"/>
<text text-anchor="middle" x="238" y="-352.8" font-family="Times New Roman,serif" font-size="14.00" fill="lightgray">wff ps</text>
</g>
<!-- n16183 -->
<g id="node10" class="node"><title>n16183</title>
<ellipse fill="none" stroke="lightgray" cx="154" cy="-288" rx="27" ry="18"/>
<text text-anchor="middle" x="154" y="-284.3" font-family="Times New Roman,serif" font-size="14.00" fill="lightgray">wph</text>
</g>
<!-- n16183&#45;&gt;n16185 -->
<g id="edge12" class="edge"><title>n16183&#45;&gt;n16185</title>
<path fill="none" stroke="lightgray" d="M180.938,-286.75C208.874,-285.404 253.527,-283.252 284.889,-281.74"/>
<polygon fill="lightgray" stroke="lightgray" points="285.151,-285.232 294.971,-281.254 284.814,-278.24 285.151,-285.232"/>
<text text-anchor="middle" x="238" y="-289.8" font-family="Times New Roman,serif" font-size="14.00" fill="lightgray">wff ph</text>
</g>
<!-- n16184 -->
<g id="node12" class="node"><title>n16184</title>
<ellipse fill="none" stroke="lightgray" cx="154" cy="-216" rx="27" ry="18"/>
<text text-anchor="middle" x="154" y="-212.3" font-family="Times New Roman,serif" font-size="14.00" fill="lightgray">wch</text>
</g>
<!-- n16183&#45;&gt;n16184 -->
<g id="edge15" class="edge"><title>n16183&#45;&gt;n16184</title>
</g>
<!-- n16185&#45;&gt;n16190 -->
<g id="edge14" class="edge"><title>n16185&#45;&gt;n16190</title>
<path fill="none" stroke="lightgray" d="M349.079,-280.788C408.882,-282.83 560.419,-289.345 686,-306 689.064,-306.406 692.23,-306.889 695.403,-307.416"/>
<polygon fill="lightgray" stroke="lightgray" points="694.977,-310.895 705.437,-309.214 696.211,-304.005 694.977,-310.895"/>
<text text-anchor="middle" x="526.5" y="-309.8" font-family="Times New Roman,serif" font-size="14.00" fill="lightgray">wff ( ph &#45;&gt; ch )</text>
</g>
<!-- n16189 -->
<g id="node14" class="node"><title>n16189</title>
<ellipse fill="cyan" stroke="black" cx="322" cy="-162" rx="27" ry="18"/>
<text text-anchor="middle" x="322" y="-158.3" font-family="Times New Roman,serif" font-size="14.00">jcab</text>
</g>
<!-- n16185&#45;&gt;n16189 -->
<g id="edge25" class="edge"><title>n16185&#45;&gt;n16189</title>
</g>
<!-- n16184&#45;&gt;n16185 -->
<g id="edge13" class="edge"><title>n16184&#45;&gt;n16185</title>
<path fill="none" stroke="lightgray" d="M177.734,-224.765C206.462,-235.841 256.089,-254.974 288.732,-267.559"/>
<polygon fill="lightgray" stroke="lightgray" points="287.686,-270.907 298.275,-271.239 290.204,-264.376 287.686,-270.907"/>
<text text-anchor="middle" x="238" y="-266.8" font-family="Times New Roman,serif" font-size="14.00" fill="lightgray">wff ch</text>
</g>
<!-- n16186 -->
<g id="node13" class="node"><title>n16186</title>
<ellipse fill="none" stroke="lightgray" cx="154" cy="-162" rx="27" ry="18"/>
<text text-anchor="middle" x="154" y="-158.3" font-family="Times New Roman,serif" font-size="14.00" fill="lightgray">wph</text>
</g>
<!-- n16186&#45;&gt;n16189 -->
<g id="edge16" class="edge"><title>n16186&#45;&gt;n16189</title>
<path fill="none" stroke="lightgray" d="M181.303,-162C209.229,-162 253.559,-162 284.778,-162"/>
<polygon fill="lightgray" stroke="lightgray" points="284.82,-165.5 294.82,-162 284.82,-158.5 284.82,-165.5"/>
<text text-anchor="middle" x="238" y="-165.8" font-family="Times New Roman,serif" font-size="14.00" fill="lightgray">wff ph</text>
</g>
<!-- n16187 -->
<g id="node15" class="node"><title>n16187</title>
<ellipse fill="none" stroke="lightgray" cx="154" cy="-90" rx="27" ry="18"/>
<text text-anchor="middle" x="154" y="-86.3" font-family="Times New Roman,serif" font-size="14.00" fill="lightgray">wps</text>
</g>
<!-- n16186&#45;&gt;n16187 -->
<g id="edge20" class="edge"><title>n16186&#45;&gt;n16187</title>
</g>
<!-- n16189&#45;&gt;n16190 -->
<g id="edge19" class="edge"><title>n16189&#45;&gt;n16190</title>
<path fill="none" stroke="black" d="M349.208,-164.205C411.89,-170.505 573.602,-192.903 686,-263 697.1,-269.923 707.084,-280.292 714.911,-289.954"/>
<polygon fill="black" stroke="black" points="712.342,-292.356 721.206,-298.159 717.895,-288.095 712.342,-292.356"/>
<text text-anchor="middle" x="526.5" y="-266.8" font-family="Times New Roman,serif" font-size="14.00">|&#45; ( ( ph &#45;&gt; ( ps / ch ) ) &lt;&#45;&gt; ( ( ph &#45;&gt; ps ) / ( ph &#45;&gt; ch ) ) )</text>
</g>
<!-- n16187&#45;&gt;n16189 -->
<g id="edge17" class="edge"><title>n16187&#45;&gt;n16189</title>
<path fill="none" stroke="lightgray" d="M177.044,-99.561C205.817,-112.041 256.372,-133.969 289.267,-148.236"/>
<polygon fill="lightgray" stroke="lightgray" points="288.298,-151.631 298.865,-152.399 291.084,-145.209 288.298,-151.631"/>
<text text-anchor="middle" x="238" y="-146.8" font-family="Times New Roman,serif" font-size="14.00" fill="lightgray">wff ps</text>
</g>
<!-- n16188 -->
<g id="node16" class="node"><title>n16188</title>
<ellipse fill="none" stroke="lightgray" cx="154" cy="-18" rx="27" ry="18"/>
<text text-anchor="middle" x="154" y="-14.3" font-family="Times New Roman,serif" font-size="14.00" fill="lightgray">wch</text>
</g>
<!-- n16187&#45;&gt;n16188 -->
<g id="edge21" class="edge"><title>n16187&#45;&gt;n16188</title>
</g>
<!-- n16188&#45;&gt;n16189 -->
<g id="edge18" class="edge"><title>n16188&#45;&gt;n16189</title>
<path fill="none" stroke="lightgray" d="M177.395,-27.4227C203.628,-39.2948 247.275,-61.7346 277,-91 290.139,-103.936 301.081,-121.537 308.766,-135.977"/>
<polygon fill="lightgray" stroke="lightgray" points="305.673,-137.615 313.337,-144.93 311.907,-134.432 305.673,-137.615"/>
<text text-anchor="middle" x="238" y="-94.8" font-family="Times New Roman,serif" font-size="14.00" fill="lightgray">wff ch</text>
</g>
</g>
</svg>
