<?xml version="1.0" encoding="UTF-8" standalone="no"?>
<!DOCTYPE svg PUBLIC "-//W3C//DTD SVG 1.1//EN"
 "http://www.w3.org/Graphics/SVG/1.1/DTD/svg11.dtd">
<!-- Generated by graphviz version 2.38.0 (20140413.2041)
 -->
<!-- Title: proof_pm5_53 Pages: 1 -->
<svg width="1920pt" height="1347pt"
 viewBox="0.00 0.00 1920.49 1347.00" xmlns="http://www.w3.org/2000/svg" xmlns:xlink="http://www.w3.org/1999/xlink">
<g id="graph0" class="graph" transform="scale(1 1) rotate(0) translate(4 1343)">
<title>proof_pm5_53</title>
<polygon fill="white" stroke="none" points="-4,4 -4,-1343 1916.49,-1343 1916.49,4 -4,4"/>
<!-- n13540 -->
<g id="node1" class="node"><title>n13540</title>
<ellipse fill="none" stroke="lightgray" cx="27" cy="-1321" rx="27" ry="18"/>
<text text-anchor="middle" x="27" y="-1317.3" font-family="Times New Roman,serif" font-size="14.00" fill="lightgray">wph</text>
</g>
<!-- n13542 -->
<g id="node2" class="node"><title>n13542</title>
<ellipse fill="none" stroke="lightgray" cx="154" cy="-1296" rx="27" ry="18"/>
<text text-anchor="middle" x="154" y="-1292.3" font-family="Times New Roman,serif" font-size="14.00" fill="lightgray">wo</text>
</g>
<!-- n13540&#45;&gt;n13542 -->
<g id="edge1" class="edge"><title>n13540&#45;&gt;n13542</title>
<path fill="none" stroke="lightgray" d="M52.9952,-1316C71.6456,-1312.27 97.3666,-1307.13 118.053,-1302.99"/>
<polygon fill="lightgray" stroke="lightgray" points="118.929,-1306.38 128.048,-1300.99 117.556,-1299.52 118.929,-1306.38"/>
<text text-anchor="middle" x="90.5" y="-1315.8" font-family="Times New Roman,serif" font-size="14.00" fill="lightgray">wff ph</text>
</g>
<!-- n13541 -->
<g id="node3" class="node"><title>n13541</title>
<ellipse fill="none" stroke="lightgray" cx="27" cy="-1249" rx="27" ry="18"/>
<text text-anchor="middle" x="27" y="-1245.3" font-family="Times New Roman,serif" font-size="14.00" fill="lightgray">wps</text>
</g>
<!-- n13540&#45;&gt;n13541 -->
<g id="edge4" class="edge"><title>n13540&#45;&gt;n13541</title>
</g>
<!-- n13544 -->
<g id="node4" class="node"><title>n13544</title>
<ellipse fill="none" stroke="lightgray" cx="329" cy="-1224" rx="27" ry="18"/>
<text text-anchor="middle" x="329" y="-1220.3" font-family="Times New Roman,serif" font-size="14.00" fill="lightgray">wo</text>
</g>
<!-- n13542&#45;&gt;n13544 -->
<g id="edge3" class="edge"><title>n13542&#45;&gt;n13544</title>
<path fill="none" stroke="lightgray" d="M177.422,-1286.93C203.194,-1276.47 246.737,-1258.7 284,-1243 288.167,-1241.24 292.548,-1239.38 296.863,-1237.53"/>
<polygon fill="lightgray" stroke="lightgray" points="298.3,-1240.72 306.1,-1233.55 295.531,-1234.29 298.3,-1240.72"/>
<text text-anchor="middle" x="241.5" y="-1281.8" font-family="Times New Roman,serif" font-size="14.00" fill="lightgray">wff ( ph \/ ps )</text>
</g>
<!-- n13543 -->
<g id="node5" class="node"><title>n13543</title>
<ellipse fill="none" stroke="lightgray" cx="154" cy="-1224" rx="27" ry="18"/>
<text text-anchor="middle" x="154" y="-1220.3" font-family="Times New Roman,serif" font-size="14.00" fill="lightgray">wch</text>
</g>
<!-- n13542&#45;&gt;n13543 -->
<g id="edge7" class="edge"><title>n13542&#45;&gt;n13543</title>
</g>
<!-- n13541&#45;&gt;n13542 -->
<g id="edge2" class="edge"><title>n13541&#45;&gt;n13542</title>
<path fill="none" stroke="lightgray" d="M50.9269,-1257.62C70.4855,-1264.97 98.8274,-1275.63 120.686,-1283.85"/>
<polygon fill="lightgray" stroke="lightgray" points="119.626,-1287.19 130.218,-1287.43 122.09,-1280.64 119.626,-1287.19"/>
<text text-anchor="middle" x="90.5" y="-1283.8" font-family="Times New Roman,serif" font-size="14.00" fill="lightgray">wff ps</text>
</g>
<!-- n13546 -->
<g id="node6" class="node"><title>n13546</title>
<ellipse fill="none" stroke="lightgray" cx="740.497" cy="-1116" rx="27" ry="18"/>
<text text-anchor="middle" x="740.497" y="-1112.3" font-family="Times New Roman,serif" font-size="14.00" fill="lightgray">wi</text>
</g>
<!-- n13544&#45;&gt;n13546 -->
<g id="edge6" class="edge"><title>n13544&#45;&gt;n13546</title>
<path fill="none" stroke="lightgray" d="M356.152,-1225.32C417.993,-1227.33 576.545,-1225.88 690,-1167 702.15,-1160.7 713.064,-1150.28 721.533,-1140.5"/>
<polygon fill="lightgray" stroke="lightgray" points="724.424,-1142.49 728.044,-1132.53 719.005,-1138.06 724.424,-1142.49"/>
<text text-anchor="middle" x="532" y="-1229.8" font-family="Times New Roman,serif" font-size="14.00" fill="lightgray">wff ( ( ph \/ ps ) \/ ch )</text>
</g>
<!-- n13545 -->
<g id="node7" class="node"><title>n13545</title>
<ellipse fill="none" stroke="lightgray" cx="329" cy="-1152" rx="27" ry="18"/>
<text text-anchor="middle" x="329" y="-1148.3" font-family="Times New Roman,serif" font-size="14.00" fill="lightgray">wth</text>
</g>
<!-- n13544&#45;&gt;n13545 -->
<g id="edge10" class="edge"><title>n13544&#45;&gt;n13545</title>
</g>
<!-- n13543&#45;&gt;n13544 -->
<g id="edge5" class="edge"><title>n13543&#45;&gt;n13544</title>
<path fill="none" stroke="lightgray" d="M181.275,-1224C210.701,-1224 258.587,-1224 291.606,-1224"/>
<polygon fill="lightgray" stroke="lightgray" points="291.762,-1227.5 301.762,-1224 291.762,-1220.5 291.762,-1227.5"/>
<text text-anchor="middle" x="241.5" y="-1227.8" font-family="Times New Roman,serif" font-size="14.00" fill="lightgray">wff ch</text>
</g>
<!-- n13593 -->
<g id="node8" class="node"><title>n13593</title>
<ellipse fill="cyan" stroke="black" cx="1336.99" cy="-818" rx="27" ry="18"/>
<text text-anchor="middle" x="1336.99" y="-814.3" font-family="Times New Roman,serif" font-size="14.00">bitri</text>
</g>
<!-- n13546&#45;&gt;n13593 -->
<g id="edge9" class="edge"><title>n13546&#45;&gt;n13593</title>
<path fill="none" stroke="lightgray" d="M766.836,-1120.67C853.476,-1135.03 1140.88,-1169.37 1291.99,-1025 1317.42,-1000.7 1329.43,-896.974 1333.86,-846.21"/>
<polygon fill="lightgray" stroke="lightgray" points="1337.38,-846.199 1334.72,-835.943 1330.4,-845.617 1337.38,-846.199"/>
<text text-anchor="middle" x="1041.49" y="-1138.8" font-family="Times New Roman,serif" font-size="14.00" fill="lightgray">wff ( ( ( ph \/ ps ) \/ ch ) &#45;&gt; th )</text>
</g>
<!-- n13555 -->
<g id="node14" class="node"><title>n13555</title>
<ellipse fill="none" stroke="lightgray" cx="740.497" cy="-1026" rx="27" ry="18"/>
<text text-anchor="middle" x="740.497" y="-1022.3" font-family="Times New Roman,serif" font-size="14.00" fill="lightgray">wa</text>
</g>
<!-- n13546&#45;&gt;n13555 -->
<g id="edge81" class="edge"><title>n13546&#45;&gt;n13555</title>
</g>
<!-- n13545&#45;&gt;n13546 -->
<g id="edge8" class="edge"><title>n13545&#45;&gt;n13546</title>
<path fill="none" stroke="lightgray" d="M355.927,-1149.72C426.511,-1143.52 622.243,-1126.31 703.459,-1119.17"/>
<polygon fill="lightgray" stroke="lightgray" points="704.029,-1122.63 713.684,-1118.27 703.416,-1115.66 704.029,-1122.63"/>
<text text-anchor="middle" x="532" y="-1151.8" font-family="Times New Roman,serif" font-size="14.00" fill="lightgray">wff th</text>
</g>
<!-- QED -->
<g id="node55" class="node"><title>QED</title>
</g>
<!-- n13593&#45;&gt;QED -->
<g id="edge80" class="edge"><title>n13593&#45;&gt;QED</title>
<path fill="none" stroke="black" d="M1364.24,-818C1452.62,-818 1739.61,-818 1843.91,-818"/>
<polygon fill="black" stroke="black" points="1843.99,-821.5 1853.99,-818 1843.99,-814.5 1843.99,-821.5"/>
<text text-anchor="middle" x="1608.99" y="-821.8" font-family="Times New Roman,serif" font-size="14.00">|&#45; ( ( ( ( ph \/ ps ) \/ ch ) &#45;&gt; th ) &lt;&#45;&gt; ( ( ( ph &#45;&gt; th ) /\ ( ps &#45;&gt; th ) ) /\ ( ch &#45;&gt; th ) ) )</text>
</g>
<!-- n13547 -->
<g id="node9" class="node"><title>n13547</title>
<ellipse fill="none" stroke="lightgray" cx="27" cy="-1183" rx="27" ry="18"/>
<text text-anchor="middle" x="27" y="-1179.3" font-family="Times New Roman,serif" font-size="14.00" fill="lightgray">wps</text>
</g>
<!-- n13549 -->
<g id="node10" class="node"><title>n13549</title>
<ellipse fill="none" stroke="lightgray" cx="154" cy="-1170" rx="27" ry="18"/>
<text text-anchor="middle" x="154" y="-1166.3" font-family="Times New Roman,serif" font-size="14.00" fill="lightgray">wo</text>
</g>
<!-- n13547&#45;&gt;n13549 -->
<g id="edge11" class="edge"><title>n13547&#45;&gt;n13549</title>
<path fill="none" stroke="lightgray" d="M53.9001,-1180.31C72.1687,-1178.41 96.8789,-1175.84 117.054,-1173.74"/>
<polygon fill="lightgray" stroke="lightgray" points="117.549,-1177.21 127.133,-1172.69 116.825,-1170.24 117.549,-1177.21"/>
<text text-anchor="middle" x="90.5" y="-1182.8" font-family="Times New Roman,serif" font-size="14.00" fill="lightgray">wff ps</text>
</g>
<!-- n13548 -->
<g id="node11" class="node"><title>n13548</title>
<ellipse fill="none" stroke="lightgray" cx="27" cy="-1111" rx="27" ry="18"/>
<text text-anchor="middle" x="27" y="-1107.3" font-family="Times New Roman,serif" font-size="14.00" fill="lightgray">wph</text>
</g>
<!-- n13547&#45;&gt;n13548 -->
<g id="edge14" class="edge"><title>n13547&#45;&gt;n13548</title>
</g>
<!-- n13551 -->
<g id="node12" class="node"><title>n13551</title>
<ellipse fill="none" stroke="lightgray" cx="329" cy="-1098" rx="27" ry="18"/>
<text text-anchor="middle" x="329" y="-1094.3" font-family="Times New Roman,serif" font-size="14.00" fill="lightgray">wi</text>
</g>
<!-- n13549&#45;&gt;n13551 -->
<g id="edge13" class="edge"><title>n13549&#45;&gt;n13551</title>
<path fill="none" stroke="lightgray" d="M177.422,-1160.93C203.194,-1150.47 246.737,-1132.7 284,-1117 288.167,-1115.24 292.548,-1113.38 296.863,-1111.53"/>
<polygon fill="lightgray" stroke="lightgray" points="298.3,-1114.72 306.1,-1107.55 295.531,-1108.29 298.3,-1114.72"/>
<text text-anchor="middle" x="241.5" y="-1155.8" font-family="Times New Roman,serif" font-size="14.00" fill="lightgray">wff ( ph \/ ps )</text>
</g>
<!-- n13550 -->
<g id="node13" class="node"><title>n13550</title>
<ellipse fill="none" stroke="lightgray" cx="154" cy="-1098" rx="27" ry="18"/>
<text text-anchor="middle" x="154" y="-1094.3" font-family="Times New Roman,serif" font-size="14.00" fill="lightgray">wth</text>
</g>
<!-- n13549&#45;&gt;n13550 -->
<g id="edge17" class="edge"><title>n13549&#45;&gt;n13550</title>
</g>
<!-- n13548&#45;&gt;n13549 -->
<g id="edge12" class="edge"><title>n13548&#45;&gt;n13549</title>
<path fill="none" stroke="lightgray" d="M49.4883,-1121.14C69.5218,-1130.6 99.6206,-1144.8 122.206,-1155.47"/>
<polygon fill="lightgray" stroke="lightgray" points="120.837,-1158.69 131.374,-1159.79 123.825,-1152.36 120.837,-1158.69"/>
<text text-anchor="middle" x="90.5" y="-1153.8" font-family="Times New Roman,serif" font-size="14.00" fill="lightgray">wff ph</text>
</g>
<!-- n13551&#45;&gt;n13555 -->
<g id="edge16" class="edge"><title>n13551&#45;&gt;n13555</title>
<path fill="none" stroke="lightgray" d="M356.148,-1096.14C416.048,-1091.44 567.476,-1077.11 690,-1045 695.818,-1043.48 701.891,-1041.49 707.709,-1039.38"/>
<polygon fill="lightgray" stroke="lightgray" points="709.076,-1042.61 717.171,-1035.77 706.581,-1036.07 709.076,-1042.61"/>
<text text-anchor="middle" x="532" y="-1098.8" font-family="Times New Roman,serif" font-size="14.00" fill="lightgray">wff ( ( ph \/ ps ) &#45;&gt; th )</text>
</g>
<!-- n13554 -->
<g id="node16" class="node"><title>n13554</title>
<ellipse fill="none" stroke="lightgray" cx="329" cy="-1026" rx="27" ry="18"/>
<text text-anchor="middle" x="329" y="-1022.3" font-family="Times New Roman,serif" font-size="14.00" fill="lightgray">wi</text>
</g>
<!-- n13551&#45;&gt;n13554 -->
<g id="edge23" class="edge"><title>n13551&#45;&gt;n13554</title>
</g>
<!-- n13550&#45;&gt;n13551 -->
<g id="edge15" class="edge"><title>n13550&#45;&gt;n13551</title>
<path fill="none" stroke="lightgray" d="M181.275,-1098C210.701,-1098 258.587,-1098 291.606,-1098"/>
<polygon fill="lightgray" stroke="lightgray" points="291.762,-1101.5 301.762,-1098 291.762,-1094.5 291.762,-1101.5"/>
<text text-anchor="middle" x="241.5" y="-1101.8" font-family="Times New Roman,serif" font-size="14.00" fill="lightgray">wff th</text>
</g>
<!-- n13555&#45;&gt;n13593 -->
<g id="edge22" class="edge"><title>n13555&#45;&gt;n13593</title>
<path fill="none" stroke="lightgray" d="M764.944,-1018.22C856.283,-987.862 1188.33,-877.109 1291.99,-837 1296.21,-835.368 1300.62,-833.573 1304.95,-831.758"/>
<polygon fill="lightgray" stroke="lightgray" points="1306.38,-834.954 1314.2,-827.806 1303.63,-828.517 1306.38,-834.954"/>
<text text-anchor="middle" x="1041.49" y="-1011.8" font-family="Times New Roman,serif" font-size="14.00" fill="lightgray">wff ( ( ( ph \/ ps ) &#45;&gt; th ) /\ ( ch &#45;&gt; th ) )</text>
</g>
<!-- n13566 -->
<g id="node25" class="node"><title>n13566</title>
<ellipse fill="none" stroke="lightgray" cx="740.497" cy="-818" rx="27" ry="18"/>
<text text-anchor="middle" x="740.497" y="-814.3" font-family="Times New Roman,serif" font-size="14.00" fill="lightgray">wa</text>
</g>
<!-- n13555&#45;&gt;n13566 -->
<g id="edge82" class="edge"><title>n13555&#45;&gt;n13566</title>
</g>
<!-- n13552 -->
<g id="node15" class="node"><title>n13552</title>
<ellipse fill="none" stroke="lightgray" cx="154" cy="-1044" rx="27" ry="18"/>
<text text-anchor="middle" x="154" y="-1040.3" font-family="Times New Roman,serif" font-size="14.00" fill="lightgray">wch</text>
</g>
<!-- n13552&#45;&gt;n13554 -->
<g id="edge18" class="edge"><title>n13552&#45;&gt;n13554</title>
<path fill="none" stroke="lightgray" d="M180.9,-1041.31C210.414,-1038.23 258.844,-1033.2 292.015,-1029.74"/>
<polygon fill="lightgray" stroke="lightgray" points="292.622,-1033.2 302.206,-1028.68 291.897,-1026.24 292.622,-1033.2"/>
<text text-anchor="middle" x="241.5" y="-1043.8" font-family="Times New Roman,serif" font-size="14.00" fill="lightgray">wff ch</text>
</g>
<!-- n13553 -->
<g id="node17" class="node"><title>n13553</title>
<ellipse fill="none" stroke="lightgray" cx="154" cy="-972" rx="27" ry="18"/>
<text text-anchor="middle" x="154" y="-968.3" font-family="Times New Roman,serif" font-size="14.00" fill="lightgray">wth</text>
</g>
<!-- n13552&#45;&gt;n13553 -->
<g id="edge21" class="edge"><title>n13552&#45;&gt;n13553</title>
</g>
<!-- n13554&#45;&gt;n13555 -->
<g id="edge20" class="edge"><title>n13554&#45;&gt;n13555</title>
<path fill="none" stroke="lightgray" d="M356.239,-1026C427.024,-1026 622.021,-1026 703.246,-1026"/>
<polygon fill="lightgray" stroke="lightgray" points="703.477,-1029.5 713.477,-1026 703.477,-1022.5 703.477,-1029.5"/>
<text text-anchor="middle" x="532" y="-1029.8" font-family="Times New Roman,serif" font-size="14.00" fill="lightgray">wff ( ch &#45;&gt; th )</text>
</g>
<!-- n13553&#45;&gt;n13554 -->
<g id="edge19" class="edge"><title>n13553&#45;&gt;n13554</title>
<path fill="none" stroke="lightgray" d="M178.792,-979.32C204.69,-987.301 247.313,-1000.48 284,-1012 287.391,-1013.07 290.928,-1014.18 294.458,-1015.3"/>
<polygon fill="lightgray" stroke="lightgray" points="293.671,-1018.72 304.262,-1018.41 295.789,-1012.05 293.671,-1018.72"/>
<text text-anchor="middle" x="241.5" y="-1015.8" font-family="Times New Roman,serif" font-size="14.00" fill="lightgray">wff th</text>
</g>
<!-- n13556 -->
<g id="node18" class="node"><title>n13556</title>
<ellipse fill="none" stroke="lightgray" cx="27" cy="-987" rx="27" ry="18"/>
<text text-anchor="middle" x="27" y="-983.3" font-family="Times New Roman,serif" font-size="14.00" fill="lightgray">wph</text>
</g>
<!-- n13558 -->
<g id="node19" class="node"><title>n13558</title>
<ellipse fill="none" stroke="lightgray" cx="154" cy="-918" rx="27" ry="18"/>
<text text-anchor="middle" x="154" y="-914.3" font-family="Times New Roman,serif" font-size="14.00" fill="lightgray">wi</text>
</g>
<!-- n13556&#45;&gt;n13558 -->
<g id="edge24" class="edge"><title>n13556&#45;&gt;n13558</title>
<path fill="none" stroke="lightgray" d="M48.3616,-975.76C68.7914,-964.483 100.465,-946.999 123.615,-934.22"/>
<polygon fill="lightgray" stroke="lightgray" points="125.584,-937.132 132.647,-929.235 122.201,-931.003 125.584,-937.132"/>
<text text-anchor="middle" x="90.5" y="-966.8" font-family="Times New Roman,serif" font-size="14.00" fill="lightgray">wff ph</text>
</g>
<!-- n13557 -->
<g id="node20" class="node"><title>n13557</title>
<ellipse fill="none" stroke="lightgray" cx="27" cy="-915" rx="27" ry="18"/>
<text text-anchor="middle" x="27" y="-911.3" font-family="Times New Roman,serif" font-size="14.00" fill="lightgray">wth</text>
</g>
<!-- n13556&#45;&gt;n13557 -->
<g id="edge27" class="edge"><title>n13556&#45;&gt;n13557</title>
</g>
<!-- n13562 -->
<g id="node21" class="node"><title>n13562</title>
<ellipse fill="none" stroke="lightgray" cx="329" cy="-859" rx="27" ry="18"/>
<text text-anchor="middle" x="329" y="-855.3" font-family="Times New Roman,serif" font-size="14.00" fill="lightgray">wa</text>
</g>
<!-- n13558&#45;&gt;n13562 -->
<g id="edge26" class="edge"><title>n13558&#45;&gt;n13562</title>
<path fill="none" stroke="lightgray" d="M178.841,-910.267C204.781,-901.803 247.44,-887.738 284,-875 287.588,-873.75 291.334,-872.423 295.059,-871.088"/>
<polygon fill="lightgray" stroke="lightgray" points="296.534,-874.277 304.75,-867.587 294.156,-867.693 296.534,-874.277"/>
<text text-anchor="middle" x="241.5" y="-906.8" font-family="Times New Roman,serif" font-size="14.00" fill="lightgray">wff ( ph &#45;&gt; th )</text>
</g>
<!-- n13561 -->
<g id="node23" class="node"><title>n13561</title>
<ellipse fill="none" stroke="lightgray" cx="154" cy="-846" rx="27" ry="18"/>
<text text-anchor="middle" x="154" y="-842.3" font-family="Times New Roman,serif" font-size="14.00" fill="lightgray">wi</text>
</g>
<!-- n13558&#45;&gt;n13561 -->
<g id="edge33" class="edge"><title>n13558&#45;&gt;n13561</title>
</g>
<!-- n13557&#45;&gt;n13558 -->
<g id="edge25" class="edge"><title>n13557&#45;&gt;n13558</title>
<path fill="none" stroke="lightgray" d="M54.2041,-915.629C72.3711,-916.065 96.7994,-916.651 116.82,-917.132"/>
<polygon fill="lightgray" stroke="lightgray" points="116.749,-920.631 126.83,-917.372 116.917,-913.633 116.749,-920.631"/>
<text text-anchor="middle" x="90.5" y="-920.8" font-family="Times New Roman,serif" font-size="14.00" fill="lightgray">wff th</text>
</g>
<!-- n13562&#45;&gt;n13566 -->
<g id="edge32" class="edge"><title>n13562&#45;&gt;n13566</title>
<path fill="none" stroke="lightgray" d="M355.927,-856.404C426.511,-849.337 622.243,-829.74 703.459,-821.608"/>
<polygon fill="lightgray" stroke="lightgray" points="704.082,-825.063 713.684,-820.584 703.385,-818.098 704.082,-825.063"/>
<text text-anchor="middle" x="532" y="-857.8" font-family="Times New Roman,serif" font-size="14.00" fill="lightgray">wff ( ( ph &#45;&gt; th ) /\ ( ps &#45;&gt; th ) )</text>
</g>
<!-- n13565 -->
<g id="node27" class="node"><title>n13565</title>
<ellipse fill="none" stroke="lightgray" cx="329" cy="-787" rx="27" ry="18"/>
<text text-anchor="middle" x="329" y="-783.3" font-family="Times New Roman,serif" font-size="14.00" fill="lightgray">wi</text>
</g>
<!-- n13562&#45;&gt;n13565 -->
<g id="edge39" class="edge"><title>n13562&#45;&gt;n13565</title>
</g>
<!-- n13559 -->
<g id="node22" class="node"><title>n13559</title>
<ellipse fill="none" stroke="lightgray" cx="27" cy="-857" rx="27" ry="18"/>
<text text-anchor="middle" x="27" y="-853.3" font-family="Times New Roman,serif" font-size="14.00" fill="lightgray">wps</text>
</g>
<!-- n13559&#45;&gt;n13561 -->
<g id="edge28" class="edge"><title>n13559&#45;&gt;n13561</title>
<path fill="none" stroke="lightgray" d="M53.9001,-854.721C72.1687,-853.113 96.8789,-850.939 117.054,-849.163"/>
<polygon fill="lightgray" stroke="lightgray" points="117.478,-852.64 127.133,-848.276 116.865,-845.666 117.478,-852.64"/>
<text text-anchor="middle" x="90.5" y="-857.8" font-family="Times New Roman,serif" font-size="14.00" fill="lightgray">wff ps</text>
</g>
<!-- n13560 -->
<g id="node24" class="node"><title>n13560</title>
<ellipse fill="none" stroke="lightgray" cx="27" cy="-785" rx="27" ry="18"/>
<text text-anchor="middle" x="27" y="-781.3" font-family="Times New Roman,serif" font-size="14.00" fill="lightgray">wth</text>
</g>
<!-- n13559&#45;&gt;n13560 -->
<g id="edge31" class="edge"><title>n13559&#45;&gt;n13560</title>
</g>
<!-- n13561&#45;&gt;n13562 -->
<g id="edge30" class="edge"><title>n13561&#45;&gt;n13562</title>
<path fill="none" stroke="lightgray" d="M180.9,-847.946C210.329,-850.158 258.565,-853.782 291.728,-856.274"/>
<polygon fill="lightgray" stroke="lightgray" points="291.689,-859.781 301.923,-857.04 292.214,-852.801 291.689,-859.781"/>
<text text-anchor="middle" x="241.5" y="-859.8" font-family="Times New Roman,serif" font-size="14.00" fill="lightgray">wff ( ps &#45;&gt; th )</text>
</g>
<!-- n13560&#45;&gt;n13561 -->
<g id="edge29" class="edge"><title>n13560&#45;&gt;n13561</title>
<path fill="none" stroke="lightgray" d="M49.2045,-795.348C69.3173,-805.163 99.757,-820.017 122.479,-831.106"/>
<polygon fill="lightgray" stroke="lightgray" points="121.169,-834.361 131.691,-835.601 124.239,-828.07 121.169,-834.361"/>
<text text-anchor="middle" x="90.5" y="-828.8" font-family="Times New Roman,serif" font-size="14.00" fill="lightgray">wff th</text>
</g>
<!-- n13566&#45;&gt;n13593 -->
<g id="edge38" class="edge"><title>n13566&#45;&gt;n13593</title>
<path fill="none" stroke="lightgray" d="M767.809,-818C863.061,-818 1190.04,-818 1299.76,-818"/>
<polygon fill="lightgray" stroke="lightgray" points="1299.99,-821.5 1309.99,-818 1299.99,-814.5 1299.99,-821.5"/>
<text text-anchor="middle" x="1041.49" y="-821.8" font-family="Times New Roman,serif" font-size="14.00" fill="lightgray">wff ( ( ( ph &#45;&gt; th ) /\ ( ps &#45;&gt; th ) ) /\ ( ch &#45;&gt; th ) )</text>
</g>
<!-- n13572 -->
<g id="node32" class="node"><title>n13572</title>
<ellipse fill="cyan" stroke="black" cx="740.497" cy="-613" rx="27" ry="18"/>
<text text-anchor="middle" x="740.497" y="-609.3" font-family="Times New Roman,serif" font-size="14.00">jaob</text>
</g>
<!-- n13566&#45;&gt;n13572 -->
<g id="edge83" class="edge"><title>n13566&#45;&gt;n13572</title>
</g>
<!-- n13563 -->
<g id="node26" class="node"><title>n13563</title>
<ellipse fill="none" stroke="lightgray" cx="154" cy="-792" rx="27" ry="18"/>
<text text-anchor="middle" x="154" y="-788.3" font-family="Times New Roman,serif" font-size="14.00" fill="lightgray">wth</text>
</g>
<!-- n13563&#45;&gt;n13565 -->
<g id="edge34" class="edge"><title>n13563&#45;&gt;n13565</title>
<path fill="none" stroke="lightgray" d="M181.275,-791.241C210.701,-790.39 258.587,-789.006 291.606,-788.052"/>
<polygon fill="lightgray" stroke="lightgray" points="291.867,-791.546 301.762,-787.758 291.665,-784.549 291.867,-791.546"/>
<text text-anchor="middle" x="241.5" y="-794.8" font-family="Times New Roman,serif" font-size="14.00" fill="lightgray">wff th</text>
</g>
<!-- n13564 -->
<g id="node28" class="node"><title>n13564</title>
<ellipse fill="none" stroke="lightgray" cx="154" cy="-720" rx="27" ry="18"/>
<text text-anchor="middle" x="154" y="-716.3" font-family="Times New Roman,serif" font-size="14.00" fill="lightgray">wch</text>
</g>
<!-- n13563&#45;&gt;n13564 -->
<g id="edge37" class="edge"><title>n13563&#45;&gt;n13564</title>
</g>
<!-- n13565&#45;&gt;n13566 -->
<g id="edge36" class="edge"><title>n13565&#45;&gt;n13566</title>
<path fill="none" stroke="lightgray" d="M356.387,-786.462C416.161,-785.647 566.314,-785.876 690,-805 695.137,-805.794 700.51,-806.904 705.744,-808.144"/>
<polygon fill="lightgray" stroke="lightgray" points="704.984,-811.562 715.539,-810.641 706.713,-804.779 704.984,-811.562"/>
<text text-anchor="middle" x="532" y="-808.8" font-family="Times New Roman,serif" font-size="14.00" fill="lightgray">wff ( ch &#45;&gt; th )</text>
</g>
<!-- n13564&#45;&gt;n13565 -->
<g id="edge35" class="edge"><title>n13564&#45;&gt;n13565</title>
<path fill="none" stroke="lightgray" d="M177.617,-728.759C207.793,-740.446 261.406,-761.209 295.796,-774.528"/>
<polygon fill="lightgray" stroke="lightgray" points="294.789,-777.891 305.378,-778.239 297.317,-771.363 294.789,-777.891"/>
<text text-anchor="middle" x="241.5" y="-773.8" font-family="Times New Roman,serif" font-size="14.00" fill="lightgray">wff ch</text>
</g>
<!-- n13567 -->
<g id="node29" class="node"><title>n13567</title>
<ellipse fill="none" stroke="lightgray" cx="154" cy="-666" rx="27" ry="18"/>
<text text-anchor="middle" x="154" y="-662.3" font-family="Times New Roman,serif" font-size="14.00" fill="lightgray">wps</text>
</g>
<!-- n13569 -->
<g id="node30" class="node"><title>n13569</title>
<ellipse fill="none" stroke="lightgray" cx="329" cy="-666" rx="27" ry="18"/>
<text text-anchor="middle" x="329" y="-662.3" font-family="Times New Roman,serif" font-size="14.00" fill="lightgray">wo</text>
</g>
<!-- n13567&#45;&gt;n13569 -->
<g id="edge40" class="edge"><title>n13567&#45;&gt;n13569</title>
<path fill="none" stroke="lightgray" d="M181.275,-666C210.701,-666 258.587,-666 291.606,-666"/>
<polygon fill="lightgray" stroke="lightgray" points="291.762,-669.5 301.762,-666 291.762,-662.5 291.762,-669.5"/>
<text text-anchor="middle" x="241.5" y="-669.8" font-family="Times New Roman,serif" font-size="14.00" fill="lightgray">wff ps</text>
</g>
<!-- n13568 -->
<g id="node31" class="node"><title>n13568</title>
<ellipse fill="none" stroke="lightgray" cx="154" cy="-594" rx="27" ry="18"/>
<text text-anchor="middle" x="154" y="-590.3" font-family="Times New Roman,serif" font-size="14.00" fill="lightgray">wph</text>
</g>
<!-- n13567&#45;&gt;n13568 -->
<g id="edge43" class="edge"><title>n13567&#45;&gt;n13568</title>
</g>
<!-- n13569&#45;&gt;n13572 -->
<g id="edge42" class="edge"><title>n13569&#45;&gt;n13572</title>
<path fill="none" stroke="lightgray" d="M355.977,-664.683C415.523,-661.34 566.265,-651.025 690,-627 695.128,-626.004 700.498,-624.732 705.73,-623.363"/>
<polygon fill="lightgray" stroke="lightgray" points="706.818,-626.694 715.524,-620.655 704.953,-619.947 706.818,-626.694"/>
<text text-anchor="middle" x="532" y="-667.8" font-family="Times New Roman,serif" font-size="14.00" fill="lightgray">wff ( ph \/ ps )</text>
</g>
<!-- n13570 -->
<g id="node33" class="node"><title>n13570</title>
<ellipse fill="none" stroke="lightgray" cx="329" cy="-594" rx="27" ry="18"/>
<text text-anchor="middle" x="329" y="-590.3" font-family="Times New Roman,serif" font-size="14.00" fill="lightgray">wth</text>
</g>
<!-- n13569&#45;&gt;n13570 -->
<g id="edge47" class="edge"><title>n13569&#45;&gt;n13570</title>
</g>
<!-- n13568&#45;&gt;n13569 -->
<g id="edge41" class="edge"><title>n13568&#45;&gt;n13569</title>
<path fill="none" stroke="lightgray" d="M177.422,-603.071C203.194,-613.53 246.737,-631.301 284,-647 288.167,-648.756 292.548,-650.622 296.863,-652.473"/>
<polygon fill="lightgray" stroke="lightgray" points="295.531,-655.71 306.1,-656.452 298.3,-649.281 295.531,-655.71"/>
<text text-anchor="middle" x="241.5" y="-650.8" font-family="Times New Roman,serif" font-size="14.00" fill="lightgray">wff ph</text>
</g>
<!-- n13572&#45;&gt;n13593 -->
<g id="edge46" class="edge"><title>n13572&#45;&gt;n13593</title>
<path fill="none" stroke="black" d="M765.352,-620.292C842.35,-643.989 1090.94,-721.772 1291.99,-799 1296.22,-800.621 1300.63,-802.411 1304.96,-804.223"/>
<polygon fill="black" stroke="black" points="1303.64,-807.464 1314.21,-808.173 1306.38,-801.027 1303.64,-807.464"/>
<text text-anchor="middle" x="1041.49" y="-802.8" font-family="Times New Roman,serif" font-size="14.00">|&#45; ( ( ( ( ph \/ ps ) \/ ch ) &#45;&gt; th ) &lt;&#45;&gt; ( ( ( ph \/ ps ) &#45;&gt; th ) /\ ( ch &#45;&gt; th ) ) )</text>
</g>
<!-- n13592 -->
<g id="node40" class="node"><title>n13592</title>
<ellipse fill="cyan" stroke="black" cx="740.497" cy="-433" rx="32.4942" ry="18"/>
<text text-anchor="middle" x="740.497" y="-429.3" font-family="Times New Roman,serif" font-size="14.00">anbi1i</text>
</g>
<!-- n13572&#45;&gt;n13592 -->
<g id="edge84" class="edge"><title>n13572&#45;&gt;n13592</title>
</g>
<!-- n13570&#45;&gt;n13572 -->
<g id="edge44" class="edge"><title>n13570&#45;&gt;n13572</title>
<path fill="none" stroke="lightgray" d="M356.239,-595.217C427.024,-598.502 622.021,-607.549 703.246,-611.318"/>
<polygon fill="lightgray" stroke="lightgray" points="703.325,-614.825 713.477,-611.793 703.65,-607.833 703.325,-614.825"/>
<text text-anchor="middle" x="532" y="-614.8" font-family="Times New Roman,serif" font-size="14.00" fill="lightgray">wff th</text>
</g>
<!-- n13571 -->
<g id="node34" class="node"><title>n13571</title>
<ellipse fill="none" stroke="lightgray" cx="329" cy="-522" rx="27" ry="18"/>
<text text-anchor="middle" x="329" y="-518.3" font-family="Times New Roman,serif" font-size="14.00" fill="lightgray">wch</text>
</g>
<!-- n13570&#45;&gt;n13571 -->
<g id="edge48" class="edge"><title>n13570&#45;&gt;n13571</title>
</g>
<!-- n13571&#45;&gt;n13572 -->
<g id="edge45" class="edge"><title>n13571&#45;&gt;n13572</title>
<path fill="none" stroke="lightgray" d="M356.394,-522.034C417.439,-522.966 572.166,-530.265 690,-578 698.694,-581.522 707.333,-586.834 714.903,-592.262"/>
<polygon fill="lightgray" stroke="lightgray" points="713.155,-595.33 723.236,-598.588 717.388,-589.754 713.155,-595.33"/>
<text text-anchor="middle" x="532" y="-581.8" font-family="Times New Roman,serif" font-size="14.00" fill="lightgray">wff ch</text>
</g>
<!-- n13573 -->
<g id="node35" class="node"><title>n13573</title>
<ellipse fill="none" stroke="lightgray" cx="154" cy="-540" rx="27" ry="18"/>
<text text-anchor="middle" x="154" y="-536.3" font-family="Times New Roman,serif" font-size="14.00" fill="lightgray">wth</text>
</g>
<!-- n13577 -->
<g id="node36" class="node"><title>n13577</title>
<ellipse fill="none" stroke="lightgray" cx="329" cy="-468" rx="27" ry="18"/>
<text text-anchor="middle" x="329" y="-464.3" font-family="Times New Roman,serif" font-size="14.00" fill="lightgray">wi</text>
</g>
<!-- n13573&#45;&gt;n13577 -->
<g id="edge49" class="edge"><title>n13573&#45;&gt;n13577</title>
<path fill="none" stroke="lightgray" d="M177.422,-530.929C203.194,-520.47 246.737,-502.699 284,-487 288.167,-485.244 292.548,-483.378 296.863,-481.527"/>
<polygon fill="lightgray" stroke="lightgray" points="298.3,-484.719 306.1,-477.548 295.531,-478.29 298.3,-484.719"/>
<text text-anchor="middle" x="241.5" y="-525.8" font-family="Times New Roman,serif" font-size="14.00" fill="lightgray">wff th</text>
</g>
<!-- n13576 -->
<g id="node38" class="node"><title>n13576</title>
<ellipse fill="none" stroke="lightgray" cx="154" cy="-468" rx="27" ry="18"/>
<text text-anchor="middle" x="154" y="-464.3" font-family="Times New Roman,serif" font-size="14.00" fill="lightgray">wo</text>
</g>
<!-- n13573&#45;&gt;n13576 -->
<g id="edge55" class="edge"><title>n13573&#45;&gt;n13576</title>
</g>
<!-- n13577&#45;&gt;n13592 -->
<g id="edge54" class="edge"><title>n13577&#45;&gt;n13592</title>
<path fill="none" stroke="lightgray" d="M355.927,-465.784C424.969,-459.883 613.751,-443.748 697.975,-436.549"/>
<polygon fill="lightgray" stroke="lightgray" points="698.525,-440.015 708.19,-435.676 697.928,-433.04 698.525,-440.015"/>
<text text-anchor="middle" x="532" y="-467.8" font-family="Times New Roman,serif" font-size="14.00" fill="lightgray">wff ( ( ph \/ ps ) &#45;&gt; th )</text>
</g>
<!-- n13584 -->
<g id="node44" class="node"><title>n13584</title>
<ellipse fill="none" stroke="lightgray" cx="329" cy="-396" rx="27" ry="18"/>
<text text-anchor="middle" x="329" y="-392.3" font-family="Times New Roman,serif" font-size="14.00" fill="lightgray">wa</text>
</g>
<!-- n13577&#45;&gt;n13584 -->
<g id="edge77" class="edge"><title>n13577&#45;&gt;n13584</title>
</g>
<!-- n13574 -->
<g id="node37" class="node"><title>n13574</title>
<ellipse fill="none" stroke="lightgray" cx="27" cy="-572" rx="27" ry="18"/>
<text text-anchor="middle" x="27" y="-568.3" font-family="Times New Roman,serif" font-size="14.00" fill="lightgray">wph</text>
</g>
<!-- n13574&#45;&gt;n13576 -->
<g id="edge50" class="edge"><title>n13574&#45;&gt;n13576</title>
<path fill="none" stroke="lightgray" d="M45.6609,-558.609C62.2611,-545.891 87.6746,-526.081 109,-508 115.905,-502.146 123.242,-495.609 129.905,-489.544"/>
<polygon fill="lightgray" stroke="lightgray" points="132.35,-492.051 137.351,-482.71 127.616,-486.893 132.35,-492.051"/>
<text text-anchor="middle" x="90.5" y="-540.8" font-family="Times New Roman,serif" font-size="14.00" fill="lightgray">wff ph</text>
</g>
<!-- n13575 -->
<g id="node39" class="node"><title>n13575</title>
<ellipse fill="none" stroke="lightgray" cx="27" cy="-500" rx="27" ry="18"/>
<text text-anchor="middle" x="27" y="-496.3" font-family="Times New Roman,serif" font-size="14.00" fill="lightgray">wps</text>
</g>
<!-- n13574&#45;&gt;n13575 -->
<g id="edge53" class="edge"><title>n13574&#45;&gt;n13575</title>
</g>
<!-- n13576&#45;&gt;n13577 -->
<g id="edge52" class="edge"><title>n13576&#45;&gt;n13577</title>
<path fill="none" stroke="lightgray" d="M181.275,-468C210.701,-468 258.587,-468 291.606,-468"/>
<polygon fill="lightgray" stroke="lightgray" points="291.762,-471.5 301.762,-468 291.762,-464.5 291.762,-471.5"/>
<text text-anchor="middle" x="241.5" y="-471.8" font-family="Times New Roman,serif" font-size="14.00" fill="lightgray">wff ( ph \/ ps )</text>
</g>
<!-- n13575&#45;&gt;n13576 -->
<g id="edge51" class="edge"><title>n13575&#45;&gt;n13576</title>
<path fill="none" stroke="lightgray" d="M52.398,-493.754C71.326,-488.909 97.7933,-482.133 118.83,-476.748"/>
<polygon fill="lightgray" stroke="lightgray" points="119.844,-480.101 128.664,-474.23 118.108,-473.32 119.844,-480.101"/>
<text text-anchor="middle" x="90.5" y="-492.8" font-family="Times New Roman,serif" font-size="14.00" fill="lightgray">wff ps</text>
</g>
<!-- n13592&#45;&gt;n13593 -->
<g id="edge76" class="edge"><title>n13592&#45;&gt;n13593</title>
<path fill="none" stroke="black" d="M773.052,-433.039C867.449,-434.971 1149.88,-454.284 1291.99,-612 1315.37,-637.943 1328.36,-739.832 1333.45,-789.91"/>
<polygon fill="black" stroke="black" points="1329.98,-790.435 1334.44,-800.046 1336.95,-789.752 1329.98,-790.435"/>
<text text-anchor="middle" x="1041.49" y="-615.8" font-family="Times New Roman,serif" font-size="14.00">|&#45; ( ( ( ( ph \/ ps ) &#45;&gt; th ) /\ ( ch &#45;&gt; th ) ) &lt;&#45;&gt; ( ( ( ph &#45;&gt; th ) /\ ( ps &#45;&gt; th ) ) /\ ( ch &#45;&gt; th ) ) )</text>
</g>
<!-- n13578 -->
<g id="node41" class="node"><title>n13578</title>
<ellipse fill="none" stroke="lightgray" cx="27" cy="-446" rx="27" ry="18"/>
<text text-anchor="middle" x="27" y="-442.3" font-family="Times New Roman,serif" font-size="14.00" fill="lightgray">wth</text>
</g>
<!-- n13580 -->
<g id="node42" class="node"><title>n13580</title>
<ellipse fill="none" stroke="lightgray" cx="154" cy="-414" rx="27" ry="18"/>
<text text-anchor="middle" x="154" y="-410.3" font-family="Times New Roman,serif" font-size="14.00" fill="lightgray">wi</text>
</g>
<!-- n13578&#45;&gt;n13580 -->
<g id="edge56" class="edge"><title>n13578&#45;&gt;n13580</title>
<path fill="none" stroke="lightgray" d="M52.398,-439.754C71.326,-434.909 97.7933,-428.133 118.83,-422.748"/>
<polygon fill="lightgray" stroke="lightgray" points="119.844,-426.101 128.664,-420.23 118.108,-419.32 119.844,-426.101"/>
<text text-anchor="middle" x="90.5" y="-438.8" font-family="Times New Roman,serif" font-size="14.00" fill="lightgray">wff th</text>
</g>
<!-- n13579 -->
<g id="node43" class="node"><title>n13579</title>
<ellipse fill="none" stroke="lightgray" cx="27" cy="-374" rx="27" ry="18"/>
<text text-anchor="middle" x="27" y="-370.3" font-family="Times New Roman,serif" font-size="14.00" fill="lightgray">wps</text>
</g>
<!-- n13578&#45;&gt;n13579 -->
<g id="edge59" class="edge"><title>n13578&#45;&gt;n13579</title>
</g>
<!-- n13580&#45;&gt;n13584 -->
<g id="edge58" class="edge"><title>n13580&#45;&gt;n13584</title>
<path fill="none" stroke="lightgray" d="M180.9,-411.305C210.414,-408.234 258.844,-403.195 292.015,-399.744"/>
<polygon fill="lightgray" stroke="lightgray" points="292.622,-403.2 302.206,-398.684 291.897,-396.238 292.622,-403.2"/>
<text text-anchor="middle" x="241.5" y="-413.8" font-family="Times New Roman,serif" font-size="14.00" fill="lightgray">wff ( ps &#45;&gt; th )</text>
</g>
<!-- n13583 -->
<g id="node46" class="node"><title>n13583</title>
<ellipse fill="none" stroke="lightgray" cx="154" cy="-342" rx="27" ry="18"/>
<text text-anchor="middle" x="154" y="-338.3" font-family="Times New Roman,serif" font-size="14.00" fill="lightgray">wi</text>
</g>
<!-- n13580&#45;&gt;n13583 -->
<g id="edge65" class="edge"><title>n13580&#45;&gt;n13583</title>
</g>
<!-- n13579&#45;&gt;n13580 -->
<g id="edge57" class="edge"><title>n13579&#45;&gt;n13580</title>
<path fill="none" stroke="lightgray" d="M51.8058,-381.618C71.0071,-387.762 98.2415,-396.477 119.621,-403.319"/>
<polygon fill="lightgray" stroke="lightgray" points="118.692,-406.696 129.283,-406.411 120.825,-400.029 118.692,-406.696"/>
<text text-anchor="middle" x="90.5" y="-403.8" font-family="Times New Roman,serif" font-size="14.00" fill="lightgray">wff ps</text>
</g>
<!-- n13584&#45;&gt;n13592 -->
<g id="edge64" class="edge"><title>n13584&#45;&gt;n13592</title>
<path fill="none" stroke="lightgray" d="M356.421,-395.783C416.262,-395.706 566.545,-397.843 690,-419 693.947,-419.676 698.03,-420.545 702.081,-421.519"/>
<polygon fill="lightgray" stroke="lightgray" points="701.425,-424.965 711.985,-424.103 703.193,-418.192 701.425,-424.965"/>
<text text-anchor="middle" x="532" y="-422.8" font-family="Times New Roman,serif" font-size="14.00" fill="lightgray">wff ( ( ph &#45;&gt; th ) /\ ( ps &#45;&gt; th ) )</text>
</g>
<!-- n13587 -->
<g id="node49" class="node"><title>n13587</title>
<ellipse fill="none" stroke="lightgray" cx="329" cy="-288" rx="27" ry="18"/>
<text text-anchor="middle" x="329" y="-284.3" font-family="Times New Roman,serif" font-size="14.00" fill="lightgray">wi</text>
</g>
<!-- n13584&#45;&gt;n13587 -->
<g id="edge78" class="edge"><title>n13584&#45;&gt;n13587</title>
</g>
<!-- n13581 -->
<g id="node45" class="node"><title>n13581</title>
<ellipse fill="none" stroke="lightgray" cx="27" cy="-320" rx="27" ry="18"/>
<text text-anchor="middle" x="27" y="-316.3" font-family="Times New Roman,serif" font-size="14.00" fill="lightgray">wth</text>
</g>
<!-- n13581&#45;&gt;n13583 -->
<g id="edge60" class="edge"><title>n13581&#45;&gt;n13583</title>
<path fill="none" stroke="lightgray" d="M53.2956,-324.452C71.8481,-327.717 97.2772,-332.193 117.811,-335.807"/>
<polygon fill="lightgray" stroke="lightgray" points="117.287,-339.268 127.742,-337.555 118.5,-332.374 117.287,-339.268"/>
<text text-anchor="middle" x="90.5" y="-338.8" font-family="Times New Roman,serif" font-size="14.00" fill="lightgray">wff th</text>
</g>
<!-- n13582 -->
<g id="node47" class="node"><title>n13582</title>
<ellipse fill="none" stroke="lightgray" cx="27" cy="-248" rx="27" ry="18"/>
<text text-anchor="middle" x="27" y="-244.3" font-family="Times New Roman,serif" font-size="14.00" fill="lightgray">wph</text>
</g>
<!-- n13581&#45;&gt;n13582 -->
<g id="edge63" class="edge"><title>n13581&#45;&gt;n13582</title>
</g>
<!-- n13583&#45;&gt;n13584 -->
<g id="edge62" class="edge"><title>n13583&#45;&gt;n13584</title>
<path fill="none" stroke="lightgray" d="M178.792,-349.32C204.69,-357.301 247.313,-370.476 284,-382 287.391,-383.065 290.928,-384.182 294.458,-385.299"/>
<polygon fill="lightgray" stroke="lightgray" points="293.671,-388.722 304.262,-388.412 295.789,-382.05 293.671,-388.722"/>
<text text-anchor="middle" x="241.5" y="-385.8" font-family="Times New Roman,serif" font-size="14.00" fill="lightgray">wff ( ph &#45;&gt; th )</text>
</g>
<!-- n13582&#45;&gt;n13583 -->
<g id="edge61" class="edge"><title>n13582&#45;&gt;n13583</title>
<path fill="none" stroke="lightgray" d="M45.6443,-261.269C66.955,-277.294 102.971,-304.378 127.351,-322.712"/>
<polygon fill="lightgray" stroke="lightgray" points="125.349,-325.586 135.445,-328.799 129.557,-319.991 125.349,-325.586"/>
<text text-anchor="middle" x="90.5" y="-312.8" font-family="Times New Roman,serif" font-size="14.00" fill="lightgray">wff ph</text>
</g>
<!-- n13585 -->
<g id="node48" class="node"><title>n13585</title>
<ellipse fill="none" stroke="lightgray" cx="154" cy="-288" rx="27" ry="18"/>
<text text-anchor="middle" x="154" y="-284.3" font-family="Times New Roman,serif" font-size="14.00" fill="lightgray">wth</text>
</g>
<!-- n13585&#45;&gt;n13587 -->
<g id="edge66" class="edge"><title>n13585&#45;&gt;n13587</title>
<path fill="none" stroke="lightgray" d="M181.275,-288C210.701,-288 258.587,-288 291.606,-288"/>
<polygon fill="lightgray" stroke="lightgray" points="291.762,-291.5 301.762,-288 291.762,-284.5 291.762,-291.5"/>
<text text-anchor="middle" x="241.5" y="-291.8" font-family="Times New Roman,serif" font-size="14.00" fill="lightgray">wff th</text>
</g>
<!-- n13586 -->
<g id="node50" class="node"><title>n13586</title>
<ellipse fill="none" stroke="lightgray" cx="154" cy="-216" rx="27" ry="18"/>
<text text-anchor="middle" x="154" y="-212.3" font-family="Times New Roman,serif" font-size="14.00" fill="lightgray">wch</text>
</g>
<!-- n13585&#45;&gt;n13586 -->
<g id="edge69" class="edge"><title>n13585&#45;&gt;n13586</title>
</g>
<!-- n13587&#45;&gt;n13592 -->
<g id="edge68" class="edge"><title>n13587&#45;&gt;n13592</title>
<path fill="none" stroke="lightgray" d="M355.987,-289.186C418.139,-293.078 578.492,-309.45 690,-377 702.823,-384.768 714.155,-396.932 722.728,-407.942"/>
<polygon fill="lightgray" stroke="lightgray" points="719.963,-410.089 728.726,-416.044 725.589,-405.924 719.963,-410.089"/>
<text text-anchor="middle" x="532" y="-380.8" font-family="Times New Roman,serif" font-size="14.00" fill="lightgray">wff ( ch &#45;&gt; th )</text>
</g>
<!-- n13591 -->
<g id="node52" class="node"><title>n13591</title>
<ellipse fill="cyan" stroke="black" cx="329" cy="-162" rx="27" ry="18"/>
<text text-anchor="middle" x="329" y="-158.3" font-family="Times New Roman,serif" font-size="14.00">jaob</text>
</g>
<!-- n13587&#45;&gt;n13591 -->
<g id="edge79" class="edge"><title>n13587&#45;&gt;n13591</title>
</g>
<!-- n13586&#45;&gt;n13587 -->
<g id="edge67" class="edge"><title>n13586&#45;&gt;n13587</title>
<path fill="none" stroke="lightgray" d="M177.422,-225.071C203.194,-235.53 246.737,-253.301 284,-269 288.167,-270.756 292.548,-272.622 296.863,-274.473"/>
<polygon fill="lightgray" stroke="lightgray" points="295.531,-277.71 306.1,-278.452 298.3,-271.281 295.531,-277.71"/>
<text text-anchor="middle" x="241.5" y="-272.8" font-family="Times New Roman,serif" font-size="14.00" fill="lightgray">wff ch</text>
</g>
<!-- n13588 -->
<g id="node51" class="node"><title>n13588</title>
<ellipse fill="none" stroke="lightgray" cx="154" cy="-162" rx="27" ry="18"/>
<text text-anchor="middle" x="154" y="-158.3" font-family="Times New Roman,serif" font-size="14.00" fill="lightgray">wph</text>
</g>
<!-- n13588&#45;&gt;n13591 -->
<g id="edge70" class="edge"><title>n13588&#45;&gt;n13591</title>
<path fill="none" stroke="lightgray" d="M181.275,-162C210.701,-162 258.587,-162 291.606,-162"/>
<polygon fill="lightgray" stroke="lightgray" points="291.762,-165.5 301.762,-162 291.762,-158.5 291.762,-165.5"/>
<text text-anchor="middle" x="241.5" y="-165.8" font-family="Times New Roman,serif" font-size="14.00" fill="lightgray">wff ph</text>
</g>
<!-- n13589 -->
<g id="node53" class="node"><title>n13589</title>
<ellipse fill="none" stroke="lightgray" cx="154" cy="-90" rx="27" ry="18"/>
<text text-anchor="middle" x="154" y="-86.3" font-family="Times New Roman,serif" font-size="14.00" fill="lightgray">wth</text>
</g>
<!-- n13588&#45;&gt;n13589 -->
<g id="edge74" class="edge"><title>n13588&#45;&gt;n13589</title>
</g>
<!-- n13591&#45;&gt;n13592 -->
<g id="edge73" class="edge"><title>n13591&#45;&gt;n13592</title>
<path fill="none" stroke="black" d="M356.363,-162.1C422.22,-163.817 595.417,-177.579 690,-272 725.822,-307.761 735.831,-368.768 738.557,-404.532"/>
<polygon fill="black" stroke="black" points="735.079,-404.999 739.189,-414.764 742.066,-404.567 735.079,-404.999"/>
<text text-anchor="middle" x="532" y="-275.8" font-family="Times New Roman,serif" font-size="14.00">|&#45; ( ( ( ph \/ ps ) &#45;&gt; th ) &lt;&#45;&gt; ( ( ph &#45;&gt; th ) /\ ( ps &#45;&gt; th ) ) )</text>
</g>
<!-- n13589&#45;&gt;n13591 -->
<g id="edge71" class="edge"><title>n13589&#45;&gt;n13591</title>
<path fill="none" stroke="lightgray" d="M177.422,-99.0712C203.194,-109.53 246.737,-127.301 284,-143 288.167,-144.756 292.548,-146.622 296.863,-148.473"/>
<polygon fill="lightgray" stroke="lightgray" points="295.531,-151.71 306.1,-152.452 298.3,-145.281 295.531,-151.71"/>
<text text-anchor="middle" x="241.5" y="-146.8" font-family="Times New Roman,serif" font-size="14.00" fill="lightgray">wff th</text>
</g>
<!-- n13590 -->
<g id="node54" class="node"><title>n13590</title>
<ellipse fill="none" stroke="lightgray" cx="154" cy="-18" rx="27" ry="18"/>
<text text-anchor="middle" x="154" y="-14.3" font-family="Times New Roman,serif" font-size="14.00" fill="lightgray">wps</text>
</g>
<!-- n13589&#45;&gt;n13590 -->
<g id="edge75" class="edge"><title>n13589&#45;&gt;n13590</title>
</g>
<!-- n13590&#45;&gt;n13591 -->
<g id="edge72" class="edge"><title>n13590&#45;&gt;n13591</title>
<path fill="none" stroke="lightgray" d="M178.251,-26.687C205.994,-37.9478 252.566,-59.7835 284,-90 297.515,-102.992 308.513,-120.986 316.133,-135.735"/>
<polygon fill="lightgray" stroke="lightgray" points="313.08,-137.457 320.645,-144.874 319.356,-134.358 313.08,-137.457"/>
<text text-anchor="middle" x="241.5" y="-93.8" font-family="Times New Roman,serif" font-size="14.00" fill="lightgray">wff ps</text>
</g>
</g>
</svg>
