<?xml version="1.0" encoding="UTF-8" standalone="no"?>
<!DOCTYPE svg PUBLIC "-//W3C//DTD SVG 1.1//EN"
 "http://www.w3.org/Graphics/SVG/1.1/DTD/svg11.dtd">
<!-- Generated by graphviz version 2.38.0 (20140413.2041)
 -->
<!-- Title: proof_pm5_44 Pages: 1 -->
<svg width="1207pt" height="566pt"
 viewBox="0.00 0.00 1206.99 566.00" xmlns="http://www.w3.org/2000/svg" xmlns:xlink="http://www.w3.org/1999/xlink">
<g id="graph0" class="graph" transform="scale(1 1) rotate(0) translate(4 562)">
<title>proof_pm5_44</title>
<polygon fill="white" stroke="none" points="-4,4 -4,-562 1202.99,-562 1202.99,4 -4,4"/>
<!-- n16175 -->
<g id="node1" class="node"><title>n16175</title>
<ellipse fill="none" stroke="lightgray" cx="154" cy="-540" rx="27" ry="18"/>
<text text-anchor="middle" x="154" y="-536.3" font-family="Times New Roman,serif" font-size="14.00" fill="lightgray">wph</text>
</g>
<!-- n16179 -->
<g id="node2" class="node"><title>n16179</title>
<ellipse fill="none" stroke="lightgray" cx="326" cy="-442" rx="27" ry="18"/>
<text text-anchor="middle" x="326" y="-438.3" font-family="Times New Roman,serif" font-size="14.00" fill="lightgray">wi</text>
</g>
<!-- n16175&#45;&gt;n16179 -->
<g id="edge1" class="edge"><title>n16175&#45;&gt;n16179</title>
<path fill="none" stroke="lightgray" d="M177.813,-531.307C203.823,-520.913 247.12,-502.119 281,-480 288.25,-475.267 295.582,-469.439 302.126,-463.781"/>
<polygon fill="lightgray" stroke="lightgray" points="304.809,-466.077 309.929,-456.802 300.143,-460.86 304.809,-466.077"/>
<text text-anchor="middle" x="240" y="-524.8" font-family="Times New Roman,serif" font-size="14.00" fill="lightgray">wff ph</text>
</g>
<!-- n16178 -->
<g id="node4" class="node"><title>n16178</title>
<ellipse fill="none" stroke="lightgray" cx="154" cy="-468" rx="27" ry="18"/>
<text text-anchor="middle" x="154" y="-464.3" font-family="Times New Roman,serif" font-size="14.00" fill="lightgray">wa</text>
</g>
<!-- n16175&#45;&gt;n16178 -->
<g id="edge7" class="edge"><title>n16175&#45;&gt;n16178</title>
</g>
<!-- n16190 -->
<g id="node6" class="node"><title>n16190</title>
<ellipse fill="cyan" stroke="black" cx="744.247" cy="-315" rx="29.4969" ry="18"/>
<text text-anchor="middle" x="744.247" y="-311.3" font-family="Times New Roman,serif" font-size="14.00">baibr</text>
</g>
<!-- n16179&#45;&gt;n16190 -->
<g id="edge6" class="edge"><title>n16179&#45;&gt;n16190</title>
<path fill="none" stroke="lightgray" d="M353.18,-442.217C416.588,-441.626 581.664,-433.334 697,-367 708.619,-360.318 718.852,-349.662 726.719,-339.731"/>
<polygon fill="lightgray" stroke="lightgray" points="729.566,-341.768 732.75,-331.663 723.959,-337.577 729.566,-341.768"/>
<text text-anchor="middle" x="534" y="-444.8" font-family="Times New Roman,serif" font-size="14.00" fill="lightgray">wff ( ph &#45;&gt; ( ps /\ ch ) )</text>
</g>
<!-- n16182 -->
<g id="node8" class="node"><title>n16182</title>
<ellipse fill="none" stroke="lightgray" cx="326" cy="-352" rx="27" ry="18"/>
<text text-anchor="middle" x="326" y="-348.3" font-family="Times New Roman,serif" font-size="14.00" fill="lightgray">wi</text>
</g>
<!-- n16179&#45;&gt;n16182 -->
<g id="edge23" class="edge"><title>n16179&#45;&gt;n16182</title>
</g>
<!-- n16176 -->
<g id="node3" class="node"><title>n16176</title>
<ellipse fill="none" stroke="lightgray" cx="27" cy="-504" rx="27" ry="18"/>
<text text-anchor="middle" x="27" y="-500.3" font-family="Times New Roman,serif" font-size="14.00" fill="lightgray">wps</text>
</g>
<!-- n16176&#45;&gt;n16178 -->
<g id="edge2" class="edge"><title>n16176&#45;&gt;n16178</title>
<path fill="none" stroke="lightgray" d="M52.1013,-497.059C71.1232,-491.581 97.893,-483.871 119.079,-477.769"/>
<polygon fill="lightgray" stroke="lightgray" points="120.332,-481.051 128.973,-474.92 118.395,-474.324 120.332,-481.051"/>
<text text-anchor="middle" x="90.5" y="-494.8" font-family="Times New Roman,serif" font-size="14.00" fill="lightgray">wff ps</text>
</g>
<!-- n16177 -->
<g id="node5" class="node"><title>n16177</title>
<ellipse fill="none" stroke="lightgray" cx="27" cy="-432" rx="27" ry="18"/>
<text text-anchor="middle" x="27" y="-428.3" font-family="Times New Roman,serif" font-size="14.00" fill="lightgray">wch</text>
</g>
<!-- n16176&#45;&gt;n16177 -->
<g id="edge5" class="edge"><title>n16176&#45;&gt;n16177</title>
</g>
<!-- n16178&#45;&gt;n16179 -->
<g id="edge4" class="edge"><title>n16178&#45;&gt;n16179</title>
<path fill="none" stroke="lightgray" d="M180.451,-464.108C209.369,-459.685 256.769,-452.435 289.357,-447.451"/>
<polygon fill="lightgray" stroke="lightgray" points="290.019,-450.891 299.375,-445.919 288.961,-443.971 290.019,-450.891"/>
<text text-anchor="middle" x="240" y="-464.8" font-family="Times New Roman,serif" font-size="14.00" fill="lightgray">wff ( ps /\ ch )</text>
</g>
<!-- n16177&#45;&gt;n16178 -->
<g id="edge3" class="edge"><title>n16177&#45;&gt;n16178</title>
<path fill="none" stroke="lightgray" d="M52.1013,-438.941C71.1232,-444.419 97.893,-452.129 119.079,-458.231"/>
<polygon fill="lightgray" stroke="lightgray" points="118.395,-461.676 128.973,-461.08 120.332,-454.949 118.395,-461.676"/>
<text text-anchor="middle" x="90.5" y="-458.8" font-family="Times New Roman,serif" font-size="14.00" fill="lightgray">wff ch</text>
</g>
<!-- QED -->
<g id="node17" class="node"><title>QED</title>
</g>
<!-- n16190&#45;&gt;QED -->
<g id="edge22" class="edge"><title>n16190&#45;&gt;QED</title>
<path fill="none" stroke="black" d="M773.692,-315C847.677,-315 1046.21,-315 1130.28,-315"/>
<polygon fill="black" stroke="black" points="1130.42,-318.5 1140.42,-315 1130.42,-311.5 1130.42,-318.5"/>
<text text-anchor="middle" x="956.995" y="-318.8" font-family="Times New Roman,serif" font-size="14.00">|&#45; ( ( ph &#45;&gt; ps ) &#45;&gt; ( ( ph &#45;&gt; ch ) &lt;&#45;&gt; ( ph &#45;&gt; ( ps /\ ch ) ) ) )</text>
</g>
<!-- n16180 -->
<g id="node7" class="node"><title>n16180</title>
<ellipse fill="none" stroke="lightgray" cx="154" cy="-414" rx="27" ry="18"/>
<text text-anchor="middle" x="154" y="-410.3" font-family="Times New Roman,serif" font-size="14.00" fill="lightgray">wph</text>
</g>
<!-- n16180&#45;&gt;n16182 -->
<g id="edge8" class="edge"><title>n16180&#45;&gt;n16182</title>
<path fill="none" stroke="lightgray" d="M177.927,-405.638C207.331,-394.915 258.525,-376.244 292.087,-364.003"/>
<polygon fill="lightgray" stroke="lightgray" points="293.698,-367.142 301.893,-360.427 291.299,-360.565 293.698,-367.142"/>
<text text-anchor="middle" x="240" y="-400.8" font-family="Times New Roman,serif" font-size="14.00" fill="lightgray">wff ph</text>
</g>
<!-- n16181 -->
<g id="node9" class="node"><title>n16181</title>
<ellipse fill="none" stroke="lightgray" cx="154" cy="-342" rx="27" ry="18"/>
<text text-anchor="middle" x="154" y="-338.3" font-family="Times New Roman,serif" font-size="14.00" fill="lightgray">wps</text>
</g>
<!-- n16180&#45;&gt;n16181 -->
<g id="edge11" class="edge"><title>n16180&#45;&gt;n16181</title>
</g>
<!-- n16182&#45;&gt;n16190 -->
<g id="edge10" class="edge"><title>n16182&#45;&gt;n16190</title>
<path fill="none" stroke="lightgray" d="M353.057,-350.226C413.547,-346.018 568.164,-334.747 697,-321 699.699,-320.712 702.485,-320.396 705.288,-320.066"/>
<polygon fill="lightgray" stroke="lightgray" points="705.895,-323.517 715.392,-318.822 705.039,-316.57 705.895,-323.517"/>
<text text-anchor="middle" x="534" y="-351.8" font-family="Times New Roman,serif" font-size="14.00" fill="lightgray">wff ( ph &#45;&gt; ps )</text>
</g>
<!-- n16185 -->
<g id="node11" class="node"><title>n16185</title>
<ellipse fill="none" stroke="lightgray" cx="326" cy="-280" rx="27" ry="18"/>
<text text-anchor="middle" x="326" y="-276.3" font-family="Times New Roman,serif" font-size="14.00" fill="lightgray">wi</text>
</g>
<!-- n16182&#45;&gt;n16185 -->
<g id="edge24" class="edge"><title>n16182&#45;&gt;n16185</title>
</g>
<!-- n16181&#45;&gt;n16182 -->
<g id="edge9" class="edge"><title>n16181&#45;&gt;n16182</title>
<path fill="none" stroke="lightgray" d="M181.19,-343.541C209.975,-345.234 256.41,-347.965 288.698,-349.865"/>
<polygon fill="lightgray" stroke="lightgray" points="288.871,-353.381 299.059,-350.474 289.282,-346.393 288.871,-353.381"/>
<text text-anchor="middle" x="240" y="-352.8" font-family="Times New Roman,serif" font-size="14.00" fill="lightgray">wff ps</text>
</g>
<!-- n16183 -->
<g id="node10" class="node"><title>n16183</title>
<ellipse fill="none" stroke="lightgray" cx="154" cy="-288" rx="27" ry="18"/>
<text text-anchor="middle" x="154" y="-284.3" font-family="Times New Roman,serif" font-size="14.00" fill="lightgray">wph</text>
</g>
<!-- n16183&#45;&gt;n16185 -->
<g id="edge12" class="edge"><title>n16183&#45;&gt;n16185</title>
<path fill="none" stroke="lightgray" d="M181.19,-286.768C209.975,-285.413 256.41,-283.228 288.698,-281.708"/>
<polygon fill="lightgray" stroke="lightgray" points="289.235,-285.187 299.059,-281.221 288.906,-278.195 289.235,-285.187"/>
<text text-anchor="middle" x="240" y="-289.8" font-family="Times New Roman,serif" font-size="14.00" fill="lightgray">wff ph</text>
</g>
<!-- n16184 -->
<g id="node12" class="node"><title>n16184</title>
<ellipse fill="none" stroke="lightgray" cx="154" cy="-216" rx="27" ry="18"/>
<text text-anchor="middle" x="154" y="-212.3" font-family="Times New Roman,serif" font-size="14.00" fill="lightgray">wch</text>
</g>
<!-- n16183&#45;&gt;n16184 -->
<g id="edge15" class="edge"><title>n16183&#45;&gt;n16184</title>
</g>
<!-- n16185&#45;&gt;n16190 -->
<g id="edge14" class="edge"><title>n16185&#45;&gt;n16190</title>
<path fill="none" stroke="lightgray" d="M353.128,-280.74C413.768,-282.697 568.679,-289.07 697,-306 700.064,-306.404 703.231,-306.885 706.403,-307.411"/>
<polygon fill="lightgray" stroke="lightgray" points="705.978,-310.891 716.438,-309.208 707.211,-304 705.978,-310.891"/>
<text text-anchor="middle" x="534" y="-309.8" font-family="Times New Roman,serif" font-size="14.00" fill="lightgray">wff ( ph &#45;&gt; ch )</text>
</g>
<!-- n16189 -->
<g id="node14" class="node"><title>n16189</title>
<ellipse fill="cyan" stroke="black" cx="326" cy="-162" rx="27" ry="18"/>
<text text-anchor="middle" x="326" y="-158.3" font-family="Times New Roman,serif" font-size="14.00">jcab</text>
</g>
<!-- n16185&#45;&gt;n16189 -->
<g id="edge25" class="edge"><title>n16185&#45;&gt;n16189</title>
</g>
<!-- n16184&#45;&gt;n16185 -->
<g id="edge13" class="edge"><title>n16184&#45;&gt;n16185</title>
<path fill="none" stroke="lightgray" d="M177.927,-224.631C207.54,-235.78 259.255,-255.249 292.801,-267.878"/>
<polygon fill="lightgray" stroke="lightgray" points="291.573,-271.156 302.165,-271.403 294.04,-264.605 291.573,-271.156"/>
<text text-anchor="middle" x="240" y="-266.8" font-family="Times New Roman,serif" font-size="14.00" fill="lightgray">wff ch</text>
</g>
<!-- n16186 -->
<g id="node13" class="node"><title>n16186</title>
<ellipse fill="none" stroke="lightgray" cx="154" cy="-162" rx="27" ry="18"/>
<text text-anchor="middle" x="154" y="-158.3" font-family="Times New Roman,serif" font-size="14.00" fill="lightgray">wph</text>
</g>
<!-- n16186&#45;&gt;n16189 -->
<g id="edge16" class="edge"><title>n16186&#45;&gt;n16189</title>
<path fill="none" stroke="lightgray" d="M181.19,-162C209.892,-162 256.14,-162 288.416,-162"/>
<polygon fill="lightgray" stroke="lightgray" points="288.78,-165.5 298.78,-162 288.78,-158.5 288.78,-165.5"/>
<text text-anchor="middle" x="240" y="-165.8" font-family="Times New Roman,serif" font-size="14.00" fill="lightgray">wff ph</text>
</g>
<!-- n16187 -->
<g id="node15" class="node"><title>n16187</title>
<ellipse fill="none" stroke="lightgray" cx="154" cy="-90" rx="27" ry="18"/>
<text text-anchor="middle" x="154" y="-86.3" font-family="Times New Roman,serif" font-size="14.00" fill="lightgray">wps</text>
</g>
<!-- n16186&#45;&gt;n16187 -->
<g id="edge20" class="edge"><title>n16186&#45;&gt;n16187</title>
</g>
<!-- n16189&#45;&gt;n16190 -->
<g id="edge19" class="edge"><title>n16189&#45;&gt;n16190</title>
<path fill="none" stroke="black" d="M353.24,-164.033C416.782,-169.99 582.132,-191.752 697,-263 708.117,-269.896 718.104,-280.261 725.927,-289.927"/>
<polygon fill="black" stroke="black" points="723.359,-292.329 732.22,-298.137 728.914,-288.071 723.359,-292.329"/>
<text text-anchor="middle" x="534" y="-266.8" font-family="Times New Roman,serif" font-size="14.00">|&#45; ( ( ph &#45;&gt; ( ps /\ ch ) ) &lt;&#45;&gt; ( ( ph &#45;&gt; ps ) /\ ( ph &#45;&gt; ch ) ) )</text>
</g>
<!-- n16187&#45;&gt;n16189 -->
<g id="edge17" class="edge"><title>n16187&#45;&gt;n16189</title>
<path fill="none" stroke="lightgray" d="M177.332,-99.3187C202.54,-109.855 244.76,-127.554 281,-143 284.961,-144.688 289.119,-146.47 293.232,-148.24"/>
<polygon fill="lightgray" stroke="lightgray" points="292.065,-151.548 302.634,-152.293 294.837,-145.12 292.065,-151.548"/>
<text text-anchor="middle" x="240" y="-146.8" font-family="Times New Roman,serif" font-size="14.00" fill="lightgray">wff ps</text>
</g>
<!-- n16188 -->
<g id="node16" class="node"><title>n16188</title>
<ellipse fill="none" stroke="lightgray" cx="154" cy="-18" rx="27" ry="18"/>
<text text-anchor="middle" x="154" y="-14.3" font-family="Times New Roman,serif" font-size="14.00" fill="lightgray">wch</text>
</g>
<!-- n16187&#45;&gt;n16188 -->
<g id="edge21" class="edge"><title>n16187&#45;&gt;n16188</title>
</g>
<!-- n16188&#45;&gt;n16189 -->
<g id="edge18" class="edge"><title>n16188&#45;&gt;n16189</title>
<path fill="none" stroke="lightgray" d="M177.702,-26.8153C204.791,-38.2025 250.272,-60.1626 281,-90 294.363,-102.976 305.306,-120.823 312.937,-135.503"/>
<polygon fill="lightgray" stroke="lightgray" points="309.878,-137.213 317.465,-144.608 316.146,-134.096 309.878,-137.213"/>
<text text-anchor="middle" x="240" y="-93.8" font-family="Times New Roman,serif" font-size="14.00" fill="lightgray">wff ch</text>
</g>
</g>
</svg>
