<?xml version="1.0" encoding="UTF-8" standalone="no"?>
<!DOCTYPE svg PUBLIC "-//W3C//DTD SVG 1.1//EN"
 "http://www.w3.org/Graphics/SVG/1.1/DTD/svg11.dtd">
<!-- Generated by graphviz version 2.38.0 (20140413.2041)
 -->
<!-- Title: proof_pm5_32d Pages: 1 -->
<svg width="1158pt" height="483pt"
 viewBox="0.00 0.00 1158.48 483.00" xmlns="http://www.w3.org/2000/svg" xmlns:xlink="http://www.w3.org/1999/xlink">
<g id="graph0" class="graph" transform="scale(1 1) rotate(0) translate(4 479)">
<title>proof_pm5_32d</title>
<polygon fill="white" stroke="none" points="-4,4 -4,-479 1154.48,-479 1154.48,4 -4,4"/>
<!-- n11075 -->
<g id="node1" class="node"><title>n11075</title>
<ellipse fill="none" stroke="lightgray" cx="359.046" cy="-432" rx="27" ry="18"/>
<text text-anchor="middle" x="359.046" y="-428.3" font-family="Times New Roman,serif" font-size="14.00" fill="lightgray">wph</text>
</g>
<!-- n11093 -->
<g id="node2" class="node"><title>n11093</title>
<ellipse fill="cyan" stroke="black" cx="807.039" cy="-288" rx="27.8951" ry="18"/>
<text text-anchor="middle" x="807.039" y="-284.3" font-family="Times New Roman,serif" font-size="14.00">sylib</text>
</g>
<!-- n11075&#45;&gt;n11093 -->
<g id="edge1" class="edge"><title>n11075&#45;&gt;n11093</title>
<path fill="none" stroke="lightgray" d="M385.469,-435.906C453.495,-444.922 642.539,-460.395 761.091,-376 781.204,-361.682 792.908,-335.652 799.301,-315.602"/>
<polygon fill="lightgray" stroke="lightgray" points="802.733,-316.337 802.177,-305.757 796.014,-314.374 802.733,-316.337"/>
<text text-anchor="middle" x="594.091" y="-446.8" font-family="Times New Roman,serif" font-size="14.00" fill="lightgray">wff ph</text>
</g>
<!-- n11080 -->
<g id="node4" class="node"><title>n11080</title>
<ellipse fill="none" stroke="lightgray" cx="359.046" cy="-360" rx="27" ry="18"/>
<text text-anchor="middle" x="359.046" y="-356.3" font-family="Times New Roman,serif" font-size="14.00" fill="lightgray">wi</text>
</g>
<!-- n11075&#45;&gt;n11080 -->
<g id="edge27" class="edge"><title>n11075&#45;&gt;n11080</title>
</g>
<!-- QED -->
<g id="node20" class="node"><title>QED</title>
</g>
<!-- n11093&#45;&gt;QED -->
<g id="edge26" class="edge"><title>n11093&#45;&gt;QED</title>
<path fill="none" stroke="black" d="M835.198,-288C890.706,-288 1017.31,-288 1081.45,-288"/>
<polygon fill="black" stroke="black" points="1081.56,-291.5 1091.56,-288 1081.56,-284.5 1081.56,-291.5"/>
<text text-anchor="middle" x="963.486" y="-291.8" font-family="Times New Roman,serif" font-size="14.00">|&#45; ( ph &#45;&gt; ( ( ps /\ ch ) &lt;&#45;&gt; ( ps /\ th ) ) )</text>
</g>
<!-- n11076 -->
<g id="node3" class="node"><title>n11076</title>
<ellipse fill="none" stroke="lightgray" cx="154" cy="-446" rx="27" ry="18"/>
<text text-anchor="middle" x="154" y="-442.3" font-family="Times New Roman,serif" font-size="14.00" fill="lightgray">wps</text>
</g>
<!-- n11076&#45;&gt;n11080 -->
<g id="edge2" class="edge"><title>n11076&#45;&gt;n11080</title>
<path fill="none" stroke="lightgray" d="M177.707,-436.894C204.78,-425.98 251.349,-407.03 291,-390 302.781,-384.94 315.65,-379.227 326.936,-374.154"/>
<polygon fill="lightgray" stroke="lightgray" points="328.703,-377.197 336.378,-369.894 325.824,-370.816 328.703,-377.197"/>
<text text-anchor="middle" x="245" y="-430.8" font-family="Times New Roman,serif" font-size="14.00" fill="lightgray">wff ps</text>
</g>
<!-- n11079 -->
<g id="node6" class="node"><title>n11079</title>
<ellipse fill="none" stroke="lightgray" cx="154" cy="-374" rx="27" ry="18"/>
<text text-anchor="middle" x="154" y="-370.3" font-family="Times New Roman,serif" font-size="14.00" fill="lightgray">wb</text>
</g>
<!-- n11076&#45;&gt;n11079 -->
<g id="edge8" class="edge"><title>n11076&#45;&gt;n11079</title>
</g>
<!-- n11080&#45;&gt;n11093 -->
<g id="edge7" class="edge"><title>n11080&#45;&gt;n11093</title>
<path fill="none" stroke="lightgray" d="M386.328,-358.962C451.107,-355.881 623.184,-344.524 761.091,-307 765.534,-305.791 770.115,-304.239 774.577,-302.545"/>
<polygon fill="lightgray" stroke="lightgray" points="776.112,-305.699 784.053,-298.684 773.471,-299.216 776.112,-305.699"/>
<text text-anchor="middle" x="594.091" y="-360.8" font-family="Times New Roman,serif" font-size="14.00" fill="lightgray">wff ( ps &#45;&gt; ( ch &lt;&#45;&gt; th ) )</text>
</g>
<!-- n11087 -->
<g id="node11" class="node"><title>n11087</title>
<ellipse fill="none" stroke="lightgray" cx="359.046" cy="-288" rx="27" ry="18"/>
<text text-anchor="middle" x="359.046" y="-284.3" font-family="Times New Roman,serif" font-size="14.00" fill="lightgray">wb</text>
</g>
<!-- n11080&#45;&gt;n11087 -->
<g id="edge28" class="edge"><title>n11080&#45;&gt;n11087</title>
</g>
<!-- n11077 -->
<g id="node5" class="node"><title>n11077</title>
<ellipse fill="none" stroke="lightgray" cx="27" cy="-457" rx="27" ry="18"/>
<text text-anchor="middle" x="27" y="-453.3" font-family="Times New Roman,serif" font-size="14.00" fill="lightgray">wch</text>
</g>
<!-- n11077&#45;&gt;n11079 -->
<g id="edge3" class="edge"><title>n11077&#45;&gt;n11079</title>
<path fill="none" stroke="lightgray" d="M46.7138,-444.574C67.6093,-430.699 101.627,-408.112 125.538,-392.235"/>
<polygon fill="lightgray" stroke="lightgray" points="127.764,-394.958 134.158,-386.511 123.891,-389.127 127.764,-394.958"/>
<text text-anchor="middle" x="90.5" y="-430.8" font-family="Times New Roman,serif" font-size="14.00" fill="lightgray">wff ch</text>
</g>
<!-- n11078 -->
<g id="node7" class="node"><title>n11078</title>
<ellipse fill="none" stroke="lightgray" cx="27" cy="-385" rx="27" ry="18"/>
<text text-anchor="middle" x="27" y="-381.3" font-family="Times New Roman,serif" font-size="14.00" fill="lightgray">wth</text>
</g>
<!-- n11077&#45;&gt;n11078 -->
<g id="edge6" class="edge"><title>n11077&#45;&gt;n11078</title>
</g>
<!-- n11079&#45;&gt;n11080 -->
<g id="edge5" class="edge"><title>n11079&#45;&gt;n11080</title>
<path fill="none" stroke="lightgray" d="M181.129,-372.198C216.918,-369.731 281.345,-365.289 321.787,-362.5"/>
<polygon fill="lightgray" stroke="lightgray" points="322.281,-365.974 332.017,-361.795 321.8,-358.991 322.281,-365.974"/>
<text text-anchor="middle" x="245" y="-374.8" font-family="Times New Roman,serif" font-size="14.00" fill="lightgray">wff ( ch &lt;&#45;&gt; th )</text>
</g>
<!-- n11078&#45;&gt;n11079 -->
<g id="edge4" class="edge"><title>n11078&#45;&gt;n11079</title>
<path fill="none" stroke="lightgray" d="M53.9001,-382.721C72.1687,-381.113 96.8789,-378.939 117.054,-377.163"/>
<polygon fill="lightgray" stroke="lightgray" points="117.478,-380.64 127.133,-376.276 116.865,-373.666 117.478,-380.64"/>
<text text-anchor="middle" x="90.5" y="-385.8" font-family="Times New Roman,serif" font-size="14.00" fill="lightgray">wff th</text>
</g>
<!-- n11081 -->
<g id="node8" class="node"><title>n11081</title>
<ellipse fill="none" stroke="lightgray" cx="27" cy="-331" rx="27" ry="18"/>
<text text-anchor="middle" x="27" y="-327.3" font-family="Times New Roman,serif" font-size="14.00" fill="lightgray">wps</text>
</g>
<!-- n11083 -->
<g id="node9" class="node"><title>n11083</title>
<ellipse fill="none" stroke="lightgray" cx="154" cy="-288" rx="27" ry="18"/>
<text text-anchor="middle" x="154" y="-284.3" font-family="Times New Roman,serif" font-size="14.00" fill="lightgray">wa</text>
</g>
<!-- n11081&#45;&gt;n11083 -->
<g id="edge9" class="edge"><title>n11081&#45;&gt;n11083</title>
<path fill="none" stroke="lightgray" d="M51.2186,-323.013C70.5662,-316.357 98.3595,-306.796 120.016,-299.347"/>
<polygon fill="lightgray" stroke="lightgray" points="121.164,-302.653 129.482,-296.09 118.887,-296.034 121.164,-302.653"/>
<text text-anchor="middle" x="90.5" y="-319.8" font-family="Times New Roman,serif" font-size="14.00" fill="lightgray">wff ps</text>
</g>
<!-- n11082 -->
<g id="node10" class="node"><title>n11082</title>
<ellipse fill="none" stroke="lightgray" cx="27" cy="-259" rx="27" ry="18"/>
<text text-anchor="middle" x="27" y="-255.3" font-family="Times New Roman,serif" font-size="14.00" fill="lightgray">wch</text>
</g>
<!-- n11081&#45;&gt;n11082 -->
<g id="edge12" class="edge"><title>n11081&#45;&gt;n11082</title>
</g>
<!-- n11083&#45;&gt;n11087 -->
<g id="edge11" class="edge"><title>n11083&#45;&gt;n11087</title>
<path fill="none" stroke="lightgray" d="M181.129,-288C216.918,-288 281.345,-288 321.787,-288"/>
<polygon fill="lightgray" stroke="lightgray" points="322.017,-291.5 332.017,-288 322.017,-284.5 322.017,-291.5"/>
<text text-anchor="middle" x="245" y="-291.8" font-family="Times New Roman,serif" font-size="14.00" fill="lightgray">wff ( ps /\ ch )</text>
</g>
<!-- n11086 -->
<g id="node13" class="node"><title>n11086</title>
<ellipse fill="none" stroke="lightgray" cx="154" cy="-216" rx="27" ry="18"/>
<text text-anchor="middle" x="154" y="-212.3" font-family="Times New Roman,serif" font-size="14.00" fill="lightgray">wa</text>
</g>
<!-- n11083&#45;&gt;n11086 -->
<g id="edge18" class="edge"><title>n11083&#45;&gt;n11086</title>
</g>
<!-- n11082&#45;&gt;n11083 -->
<g id="edge10" class="edge"><title>n11082&#45;&gt;n11083</title>
<path fill="none" stroke="lightgray" d="M52.696,-264.729C71.5285,-269.099 97.6962,-275.17 118.582,-280.015"/>
<polygon fill="lightgray" stroke="lightgray" points="117.823,-283.432 128.355,-282.282 119.405,-276.613 117.823,-283.432"/>
<text text-anchor="middle" x="90.5" y="-281.8" font-family="Times New Roman,serif" font-size="14.00" fill="lightgray">wff ch</text>
</g>
<!-- n11087&#45;&gt;n11093 -->
<g id="edge17" class="edge"><title>n11087&#45;&gt;n11093</title>
<path fill="none" stroke="lightgray" d="M386.279,-288C461.998,-288 681.09,-288 768.947,-288"/>
<polygon fill="lightgray" stroke="lightgray" points="768.992,-291.5 778.992,-288 768.992,-284.5 768.992,-291.5"/>
<text text-anchor="middle" x="594.091" y="-291.8" font-family="Times New Roman,serif" font-size="14.00" fill="lightgray">wff ( ( ps /\ ch ) &lt;&#45;&gt; ( ps /\ th ) )</text>
</g>
<!-- n11088 -->
<g id="node15" class="node"><title>n11088</title>
<ellipse fill="orange" stroke="black" cx="359.046" cy="-216" rx="50.0912" ry="18"/>
<text text-anchor="middle" x="359.046" y="-212.3" font-family="Times New Roman,serif" font-size="14.00">pm5.32d.1</text>
</g>
<!-- n11087&#45;&gt;n11088 -->
<g id="edge29" class="edge"><title>n11087&#45;&gt;n11088</title>
</g>
<!-- n11084 -->
<g id="node12" class="node"><title>n11084</title>
<ellipse fill="none" stroke="lightgray" cx="27" cy="-205" rx="27" ry="18"/>
<text text-anchor="middle" x="27" y="-201.3" font-family="Times New Roman,serif" font-size="14.00" fill="lightgray">wps</text>
</g>
<!-- n11084&#45;&gt;n11086 -->
<g id="edge13" class="edge"><title>n11084&#45;&gt;n11086</title>
<path fill="none" stroke="lightgray" d="M53.9001,-207.279C72.1687,-208.887 96.8789,-211.061 117.054,-212.837"/>
<polygon fill="lightgray" stroke="lightgray" points="116.865,-216.334 127.133,-213.724 117.478,-209.36 116.865,-216.334"/>
<text text-anchor="middle" x="90.5" y="-216.8" font-family="Times New Roman,serif" font-size="14.00" fill="lightgray">wff ps</text>
</g>
<!-- n11085 -->
<g id="node14" class="node"><title>n11085</title>
<ellipse fill="none" stroke="lightgray" cx="27" cy="-133" rx="27" ry="18"/>
<text text-anchor="middle" x="27" y="-129.3" font-family="Times New Roman,serif" font-size="14.00" fill="lightgray">wth</text>
</g>
<!-- n11084&#45;&gt;n11085 -->
<g id="edge16" class="edge"><title>n11084&#45;&gt;n11085</title>
</g>
<!-- n11086&#45;&gt;n11087 -->
<g id="edge15" class="edge"><title>n11086&#45;&gt;n11087</title>
<path fill="none" stroke="lightgray" d="M178.292,-224.259C214.379,-237.056 283.928,-261.718 325.134,-276.329"/>
<polygon fill="lightgray" stroke="lightgray" points="324.119,-279.683 334.713,-279.726 326.458,-273.086 324.119,-279.683"/>
<text text-anchor="middle" x="245" y="-266.8" font-family="Times New Roman,serif" font-size="14.00" fill="lightgray">wff ( ps /\ th )</text>
</g>
<!-- n11085&#45;&gt;n11086 -->
<g id="edge14" class="edge"><title>n11085&#45;&gt;n11086</title>
<path fill="none" stroke="lightgray" d="M46.7138,-145.426C67.6093,-159.301 101.627,-181.888 125.538,-197.765"/>
<polygon fill="lightgray" stroke="lightgray" points="123.891,-200.873 134.158,-203.489 127.764,-195.042 123.891,-200.873"/>
<text text-anchor="middle" x="90.5" y="-190.8" font-family="Times New Roman,serif" font-size="14.00" fill="lightgray">wff th</text>
</g>
<!-- n11088&#45;&gt;n11093 -->
<g id="edge19" class="edge"><title>n11088&#45;&gt;n11093</title>
<path fill="none" stroke="black" d="M408.714,-218.221C485.015,-222.638 636.907,-235.21 761.091,-269 765.534,-270.209 770.115,-271.761 774.577,-273.455"/>
<polygon fill="black" stroke="black" points="773.471,-276.784 784.053,-277.316 776.112,-270.301 773.471,-276.784"/>
<text text-anchor="middle" x="594.091" y="-272.8" font-family="Times New Roman,serif" font-size="14.00">|&#45; ( ph &#45;&gt; ( ps &#45;&gt; ( ch &lt;&#45;&gt; th ) ) )</text>
</g>
<!-- n11092 -->
<g id="node17" class="node"><title>n11092</title>
<ellipse fill="cyan" stroke="black" cx="359.046" cy="-144" rx="38.1938" ry="18"/>
<text text-anchor="middle" x="359.046" y="-140.3" font-family="Times New Roman,serif" font-size="14.00">pm5.32</text>
</g>
<!-- n11088&#45;&gt;n11092 -->
<g id="edge30" class="edge"><title>n11088&#45;&gt;n11092</title>
</g>
<!-- n11089 -->
<g id="node16" class="node"><title>n11089</title>
<ellipse fill="none" stroke="lightgray" cx="154" cy="-162" rx="27" ry="18"/>
<text text-anchor="middle" x="154" y="-158.3" font-family="Times New Roman,serif" font-size="14.00" fill="lightgray">wps</text>
</g>
<!-- n11089&#45;&gt;n11092 -->
<g id="edge20" class="edge"><title>n11089&#45;&gt;n11092</title>
<path fill="none" stroke="lightgray" d="M181.129,-159.684C213.841,-156.784 270.479,-151.763 310.858,-148.183"/>
<polygon fill="lightgray" stroke="lightgray" points="311.355,-151.653 321.007,-147.283 310.737,-144.68 311.355,-151.653"/>
<text text-anchor="middle" x="245" y="-161.8" font-family="Times New Roman,serif" font-size="14.00" fill="lightgray">wff ps</text>
</g>
<!-- n11090 -->
<g id="node18" class="node"><title>n11090</title>
<ellipse fill="none" stroke="lightgray" cx="154" cy="-90" rx="27" ry="18"/>
<text text-anchor="middle" x="154" y="-86.3" font-family="Times New Roman,serif" font-size="14.00" fill="lightgray">wch</text>
</g>
<!-- n11089&#45;&gt;n11090 -->
<g id="edge24" class="edge"><title>n11089&#45;&gt;n11090</title>
</g>
<!-- n11092&#45;&gt;n11093 -->
<g id="edge23" class="edge"><title>n11092&#45;&gt;n11093</title>
<path fill="none" stroke="black" d="M395.847,-138.937C471.088,-130.293 647.995,-120.677 761.091,-201 780.921,-215.083 792.624,-240.596 799.091,-260.366"/>
<polygon fill="black" stroke="black" points="795.783,-261.519 802.011,-270.09 802.487,-259.505 795.783,-261.519"/>
<text text-anchor="middle" x="594.091" y="-204.8" font-family="Times New Roman,serif" font-size="14.00">|&#45; ( ( ps &#45;&gt; ( ch &lt;&#45;&gt; th ) ) &lt;&#45;&gt; ( ( ps /\ ch ) &lt;&#45;&gt; ( ps /\ th ) ) )</text>
</g>
<!-- n11090&#45;&gt;n11092 -->
<g id="edge21" class="edge"><title>n11090&#45;&gt;n11092</title>
<path fill="none" stroke="lightgray" d="M179.492,-96.5137C213.207,-105.48 274.418,-121.759 315.652,-132.725"/>
<polygon fill="lightgray" stroke="lightgray" points="314.854,-136.135 325.417,-135.323 316.653,-129.37 314.854,-136.135"/>
<text text-anchor="middle" x="245" y="-128.8" font-family="Times New Roman,serif" font-size="14.00" fill="lightgray">wff ch</text>
</g>
<!-- n11091 -->
<g id="node19" class="node"><title>n11091</title>
<ellipse fill="none" stroke="lightgray" cx="154" cy="-18" rx="27" ry="18"/>
<text text-anchor="middle" x="154" y="-14.3" font-family="Times New Roman,serif" font-size="14.00" fill="lightgray">wth</text>
</g>
<!-- n11090&#45;&gt;n11091 -->
<g id="edge25" class="edge"><title>n11090&#45;&gt;n11091</title>
</g>
<!-- n11091&#45;&gt;n11092 -->
<g id="edge22" class="edge"><title>n11091&#45;&gt;n11092</title>
<path fill="none" stroke="lightgray" d="M177.652,-26.9759C205.479,-38.4844 253.593,-59.9701 291,-85 306.433,-95.3269 322.1,-108.904 334.405,-120.431"/>
<polygon fill="lightgray" stroke="lightgray" points="332.319,-123.279 341.968,-127.655 337.154,-118.217 332.319,-123.279"/>
<text text-anchor="middle" x="245" y="-88.8" font-family="Times New Roman,serif" font-size="14.00" fill="lightgray">wff th</text>
</g>
</g>
</svg>
