<?xml version="1.0" encoding="UTF-8" standalone="no"?>
<!DOCTYPE svg PUBLIC "-//W3C//DTD SVG 1.1//EN"
 "http://www.w3.org/Graphics/SVG/1.1/DTD/svg11.dtd">
<!-- Generated by graphviz version 2.38.0 (20140413.2041)
 -->
<!-- Title: proof_pm5_31 Pages: 1 -->
<svg width="1201pt" height="615pt"
 viewBox="0.00 0.00 1200.58 615.00" xmlns="http://www.w3.org/2000/svg" xmlns:xlink="http://www.w3.org/1999/xlink">
<g id="graph0" class="graph" transform="scale(1 1) rotate(0) translate(4 611)">
<title>proof_pm5_31</title>
<polygon fill="white" stroke="none" points="-4,4 -4,-611 1196.58,-611 1196.58,4 -4,4"/>
<!-- n10149 -->
<g id="node1" class="node"><title>n10149</title>
<ellipse fill="none" stroke="lightgray" cx="443.39" cy="-561" rx="27" ry="18"/>
<text text-anchor="middle" x="443.39" y="-557.3" font-family="Times New Roman,serif" font-size="14.00" fill="lightgray">wch</text>
</g>
<!-- n10168 -->
<g id="node2" class="node"><title>n10168</title>
<ellipse fill="cyan" stroke="black" cx="812.087" cy="-452" rx="27" ry="18"/>
<text text-anchor="middle" x="812.087" y="-448.3" font-family="Times New Roman,serif" font-size="14.00">imp</text>
</g>
<!-- n10149&#45;&gt;n10168 -->
<g id="edge1" class="edge"><title>n10149&#45;&gt;n10168</title>
<path fill="none" stroke="lightgray" d="M470.59,-561.83C528.169,-562.509 668.451,-557.821 767.087,-502 777.873,-495.896 787.341,-486.137 794.703,-476.855"/>
<polygon fill="lightgray" stroke="lightgray" points="797.694,-478.698 800.849,-468.583 792.076,-474.523 797.694,-478.698"/>
<text text-anchor="middle" x="633.087" y="-564.8" font-family="Times New Roman,serif" font-size="14.00" fill="lightgray">wff ch</text>
</g>
<!-- n10152 -->
<g id="node4" class="node"><title>n10152</title>
<ellipse fill="none" stroke="lightgray" cx="443.39" cy="-489" rx="27" ry="18"/>
<text text-anchor="middle" x="443.39" y="-485.3" font-family="Times New Roman,serif" font-size="14.00" fill="lightgray">wi</text>
</g>
<!-- n10149&#45;&gt;n10152 -->
<g id="edge30" class="edge"><title>n10149&#45;&gt;n10152</title>
</g>
<!-- QED -->
<g id="node21" class="node"><title>QED</title>
</g>
<!-- n10168&#45;&gt;QED -->
<g id="edge29" class="edge"><title>n10168&#45;&gt;QED</title>
<path fill="none" stroke="black" d="M839.337,-452C900.296,-452 1051.7,-452 1123.44,-452"/>
<polygon fill="black" stroke="black" points="1123.84,-455.5 1133.84,-452 1123.84,-448.5 1123.84,-455.5"/>
<text text-anchor="middle" x="986.587" y="-455.8" font-family="Times New Roman,serif" font-size="14.00">|&#45; ( ( ch / ( ph &#45;&gt; ps ) ) &#45;&gt; ( ph &#45;&gt; ( ps / ch ) ) )</text>
</g>
<!-- n10150 -->
<g id="node3" class="node"><title>n10150</title>
<ellipse fill="none" stroke="lightgray" cx="165.347" cy="-589" rx="27" ry="18"/>
<text text-anchor="middle" x="165.347" y="-585.3" font-family="Times New Roman,serif" font-size="14.00" fill="lightgray">wph</text>
</g>
<!-- n10150&#45;&gt;n10152 -->
<g id="edge2" class="edge"><title>n10150&#45;&gt;n10152</title>
<path fill="none" stroke="lightgray" d="M191.974,-585.191C234.344,-578.219 320.948,-561.083 387.693,-529 398.409,-523.849 409.188,-516.531 418.311,-509.56"/>
<polygon fill="lightgray" stroke="lightgray" points="420.512,-512.282 426.174,-503.328 416.163,-506.796 420.512,-512.282"/>
<text text-anchor="middle" x="304.693" y="-582.8" font-family="Times New Roman,serif" font-size="14.00" fill="lightgray">wff ph</text>
</g>
<!-- n10151 -->
<g id="node5" class="node"><title>n10151</title>
<ellipse fill="none" stroke="lightgray" cx="165.347" cy="-517" rx="27" ry="18"/>
<text text-anchor="middle" x="165.347" y="-513.3" font-family="Times New Roman,serif" font-size="14.00" fill="lightgray">wps</text>
</g>
<!-- n10150&#45;&gt;n10151 -->
<g id="edge5" class="edge"><title>n10150&#45;&gt;n10151</title>
</g>
<!-- n10152&#45;&gt;n10168 -->
<g id="edge4" class="edge"><title>n10152&#45;&gt;n10168</title>
<path fill="none" stroke="lightgray" d="M470.361,-486.858C525.228,-482.255 656.952,-470.794 767.087,-458 769.793,-457.686 772.591,-457.344 775.404,-456.988"/>
<polygon fill="lightgray" stroke="lightgray" points="776.055,-460.432 785.515,-455.662 775.145,-453.492 776.055,-460.432"/>
<text text-anchor="middle" x="633.087" y="-486.8" font-family="Times New Roman,serif" font-size="14.00" fill="lightgray">wff ( ph &#45;&gt; ps )</text>
</g>
<!-- n10157 -->
<g id="node7" class="node"><title>n10157</title>
<ellipse fill="none" stroke="lightgray" cx="443.39" cy="-417" rx="27" ry="18"/>
<text text-anchor="middle" x="443.39" y="-413.3" font-family="Times New Roman,serif" font-size="14.00" fill="lightgray">wi</text>
</g>
<!-- n10152&#45;&gt;n10157 -->
<g id="edge31" class="edge"><title>n10152&#45;&gt;n10157</title>
</g>
<!-- n10151&#45;&gt;n10152 -->
<g id="edge3" class="edge"><title>n10151&#45;&gt;n10152</title>
<path fill="none" stroke="lightgray" d="M192.316,-514.366C241.742,-509.352 349.442,-498.428 406.016,-492.69"/>
<polygon fill="lightgray" stroke="lightgray" points="406.693,-496.139 416.288,-491.648 405.986,-489.175 406.693,-496.139"/>
<text text-anchor="middle" x="304.693" y="-513.8" font-family="Times New Roman,serif" font-size="14.00" fill="lightgray">wff ps</text>
</g>
<!-- n10153 -->
<g id="node6" class="node"><title>n10153</title>
<ellipse fill="none" stroke="lightgray" cx="165.347" cy="-463" rx="27" ry="18"/>
<text text-anchor="middle" x="165.347" y="-459.3" font-family="Times New Roman,serif" font-size="14.00" fill="lightgray">wph</text>
</g>
<!-- n10153&#45;&gt;n10157 -->
<g id="edge6" class="edge"><title>n10153&#45;&gt;n10157</title>
<path fill="none" stroke="lightgray" d="M192.03,-459.895C233.407,-454.729 317.309,-443.585 387.693,-430 394.234,-428.738 401.175,-427.224 407.838,-425.684"/>
<polygon fill="lightgray" stroke="lightgray" points="409.062,-428.99 417.981,-423.272 407.443,-422.18 409.062,-428.99"/>
<text text-anchor="middle" x="304.693" y="-458.8" font-family="Times New Roman,serif" font-size="14.00" fill="lightgray">wff ph</text>
</g>
<!-- n10156 -->
<g id="node9" class="node"><title>n10156</title>
<ellipse fill="none" stroke="lightgray" cx="165.347" cy="-391" rx="27" ry="18"/>
<text text-anchor="middle" x="165.347" y="-387.3" font-family="Times New Roman,serif" font-size="14.00" fill="lightgray">wa</text>
</g>
<!-- n10153&#45;&gt;n10156 -->
<g id="edge12" class="edge"><title>n10153&#45;&gt;n10156</title>
</g>
<!-- n10157&#45;&gt;n10168 -->
<g id="edge11" class="edge"><title>n10157&#45;&gt;n10168</title>
<path fill="none" stroke="lightgray" d="M470.442,-418.026C525.463,-420.427 657.462,-427.431 767.087,-443 769.981,-443.411 772.972,-443.895 775.969,-444.421"/>
<polygon fill="lightgray" stroke="lightgray" points="775.572,-447.908 786.048,-446.331 776.875,-441.031 775.572,-447.908"/>
<text text-anchor="middle" x="633.087" y="-446.8" font-family="Times New Roman,serif" font-size="14.00" fill="lightgray">wff ( ph &#45;&gt; ( ps / ch ) )</text>
</g>
<!-- n10167 -->
<g id="node12" class="node"><title>n10167</title>
<ellipse fill="cyan" stroke="black" cx="443.39" cy="-265" rx="37.8943" ry="18"/>
<text text-anchor="middle" x="443.39" y="-261.3" font-family="Times New Roman,serif" font-size="14.00">imim2d</text>
</g>
<!-- n10157&#45;&gt;n10167 -->
<g id="edge32" class="edge"><title>n10157&#45;&gt;n10167</title>
</g>
<!-- n10154 -->
<g id="node8" class="node"><title>n10154</title>
<ellipse fill="none" stroke="lightgray" cx="27" cy="-391" rx="27" ry="18"/>
<text text-anchor="middle" x="27" y="-387.3" font-family="Times New Roman,serif" font-size="14.00" fill="lightgray">wps</text>
</g>
<!-- n10154&#45;&gt;n10156 -->
<g id="edge7" class="edge"><title>n10154&#45;&gt;n10156</title>
<path fill="none" stroke="lightgray" d="M54.289,-391C75.2263,-391 104.769,-391 127.975,-391"/>
<polygon fill="lightgray" stroke="lightgray" points="128.138,-394.5 138.138,-391 128.138,-387.5 128.138,-394.5"/>
<text text-anchor="middle" x="90.5" y="-394.8" font-family="Times New Roman,serif" font-size="14.00" fill="lightgray">wff ps</text>
</g>
<!-- n10155 -->
<g id="node10" class="node"><title>n10155</title>
<ellipse fill="none" stroke="lightgray" cx="27" cy="-319" rx="27" ry="18"/>
<text text-anchor="middle" x="27" y="-315.3" font-family="Times New Roman,serif" font-size="14.00" fill="lightgray">wch</text>
</g>
<!-- n10154&#45;&gt;n10155 -->
<g id="edge10" class="edge"><title>n10154&#45;&gt;n10155</title>
</g>
<!-- n10156&#45;&gt;n10157 -->
<g id="edge9" class="edge"><title>n10156&#45;&gt;n10157</title>
<path fill="none" stroke="lightgray" d="M192.316,-393.446C241.742,-398.101 349.442,-408.245 406.016,-413.574"/>
<polygon fill="lightgray" stroke="lightgray" points="406.004,-417.088 416.288,-414.542 406.661,-410.119 406.004,-417.088"/>
<text text-anchor="middle" x="304.693" y="-414.8" font-family="Times New Roman,serif" font-size="14.00" fill="lightgray">wff ( ps / ch )</text>
</g>
<!-- n10155&#45;&gt;n10156 -->
<g id="edge8" class="edge"><title>n10155&#45;&gt;n10156</title>
<path fill="none" stroke="lightgray" d="M48.7081,-329.935C71.5322,-341.988 108.447,-361.482 134.417,-375.195"/>
<polygon fill="lightgray" stroke="lightgray" points="132.966,-378.387 143.444,-379.962 136.235,-372.197 132.966,-378.387"/>
<text text-anchor="middle" x="90.5" y="-364.8" font-family="Times New Roman,serif" font-size="14.00" fill="lightgray">wff ch</text>
</g>
<!-- n10158 -->
<g id="node11" class="node"><title>n10158</title>
<ellipse fill="none" stroke="lightgray" cx="165.347" cy="-337" rx="27" ry="18"/>
<text text-anchor="middle" x="165.347" y="-333.3" font-family="Times New Roman,serif" font-size="14.00" fill="lightgray">wch</text>
</g>
<!-- n10158&#45;&gt;n10167 -->
<g id="edge13" class="edge"><title>n10158&#45;&gt;n10167</title>
<path fill="none" stroke="lightgray" d="M191.456,-331.839C232.726,-323.166 317.344,-304.586 387.693,-284 392.749,-282.52 398.028,-280.85 403.225,-279.13"/>
<polygon fill="lightgray" stroke="lightgray" points="404.698,-282.326 413.041,-275.796 402.446,-275.698 404.698,-282.326"/>
<text text-anchor="middle" x="304.693" y="-328.8" font-family="Times New Roman,serif" font-size="14.00" fill="lightgray">wff ch</text>
</g>
<!-- n10159 -->
<g id="node13" class="node"><title>n10159</title>
<ellipse fill="none" stroke="lightgray" cx="165.347" cy="-265" rx="27" ry="18"/>
<text text-anchor="middle" x="165.347" y="-261.3" font-family="Times New Roman,serif" font-size="14.00" fill="lightgray">wps</text>
</g>
<!-- n10158&#45;&gt;n10159 -->
<g id="edge25" class="edge"><title>n10158&#45;&gt;n10159</title>
</g>
<!-- n10167&#45;&gt;n10168 -->
<g id="edge24" class="edge"><title>n10167&#45;&gt;n10168</title>
<path fill="none" stroke="black" d="M477.177,-273.172C538.544,-289.604 673.035,-331.082 767.087,-400 777.416,-407.569 786.879,-418.038 794.36,-427.6"/>
<polygon fill="black" stroke="black" points="791.606,-429.761 800.397,-435.673 797.212,-425.569 791.606,-429.761"/>
<text text-anchor="middle" x="633.087" y="-403.8" font-family="Times New Roman,serif" font-size="14.00">|&#45; ( ch &#45;&gt; ( ( ph &#45;&gt; ps ) &#45;&gt; ( ph &#45;&gt; ( ps / ch ) ) ) )</text>
</g>
<!-- n10159&#45;&gt;n10167 -->
<g id="edge14" class="edge"><title>n10159&#45;&gt;n10167</title>
<path fill="none" stroke="lightgray" d="M192.815,-265C239.534,-265 337.187,-265 395.529,-265"/>
<polygon fill="lightgray" stroke="lightgray" points="395.593,-268.5 405.593,-265 395.593,-261.5 395.593,-268.5"/>
<text text-anchor="middle" x="304.693" y="-268.8" font-family="Times New Roman,serif" font-size="14.00" fill="lightgray">wff ps</text>
</g>
<!-- n10162 -->
<g id="node15" class="node"><title>n10162</title>
<ellipse fill="none" stroke="lightgray" cx="165.347" cy="-193" rx="27" ry="18"/>
<text text-anchor="middle" x="165.347" y="-189.3" font-family="Times New Roman,serif" font-size="14.00" fill="lightgray">wa</text>
</g>
<!-- n10159&#45;&gt;n10162 -->
<g id="edge26" class="edge"><title>n10159&#45;&gt;n10162</title>
</g>
<!-- n10160 -->
<g id="node14" class="node"><title>n10160</title>
<ellipse fill="none" stroke="lightgray" cx="27" cy="-252" rx="27" ry="18"/>
<text text-anchor="middle" x="27" y="-248.3" font-family="Times New Roman,serif" font-size="14.00" fill="lightgray">wch</text>
</g>
<!-- n10160&#45;&gt;n10162 -->
<g id="edge15" class="edge"><title>n10160&#45;&gt;n10162</title>
<path fill="none" stroke="lightgray" d="M50.2099,-242.389C72.6922,-232.661 107.658,-217.53 132.966,-206.579"/>
<polygon fill="lightgray" stroke="lightgray" points="134.359,-209.79 142.146,-202.607 131.579,-203.366 134.359,-209.79"/>
<text text-anchor="middle" x="90.5" y="-236.8" font-family="Times New Roman,serif" font-size="14.00" fill="lightgray">wff ch</text>
</g>
<!-- n10161 -->
<g id="node16" class="node"><title>n10161</title>
<ellipse fill="none" stroke="lightgray" cx="27" cy="-180" rx="27" ry="18"/>
<text text-anchor="middle" x="27" y="-176.3" font-family="Times New Roman,serif" font-size="14.00" fill="lightgray">wps</text>
</g>
<!-- n10160&#45;&gt;n10161 -->
<g id="edge18" class="edge"><title>n10160&#45;&gt;n10161</title>
</g>
<!-- n10162&#45;&gt;n10167 -->
<g id="edge17" class="edge"><title>n10162&#45;&gt;n10167</title>
<path fill="none" stroke="lightgray" d="M191.456,-198.161C232.726,-206.834 317.344,-225.414 387.693,-246 392.749,-247.48 398.028,-249.15 403.225,-250.87"/>
<polygon fill="lightgray" stroke="lightgray" points="402.446,-254.302 413.041,-254.204 404.698,-247.674 402.446,-254.302"/>
<text text-anchor="middle" x="304.693" y="-249.8" font-family="Times New Roman,serif" font-size="14.00" fill="lightgray">wff ( ps / ch )</text>
</g>
<!-- n10163 -->
<g id="node17" class="node"><title>n10163</title>
<ellipse fill="none" stroke="lightgray" cx="165.347" cy="-121" rx="27" ry="18"/>
<text text-anchor="middle" x="165.347" y="-117.3" font-family="Times New Roman,serif" font-size="14.00" fill="lightgray">wph</text>
</g>
<!-- n10162&#45;&gt;n10163 -->
<g id="edge27" class="edge"><title>n10162&#45;&gt;n10163</title>
</g>
<!-- n10161&#45;&gt;n10162 -->
<g id="edge16" class="edge"><title>n10161&#45;&gt;n10162</title>
<path fill="none" stroke="lightgray" d="M53.9667,-182.476C75.0057,-184.482 104.887,-187.331 128.254,-189.559"/>
<polygon fill="lightgray" stroke="lightgray" points="128.19,-193.068 138.477,-190.533 128.854,-186.1 128.19,-193.068"/>
<text text-anchor="middle" x="90.5" y="-191.8" font-family="Times New Roman,serif" font-size="14.00" fill="lightgray">wff ps</text>
</g>
<!-- n10163&#45;&gt;n10167 -->
<g id="edge19" class="edge"><title>n10163&#45;&gt;n10167</title>
<path fill="none" stroke="lightgray" d="M192.308,-123.205C236.311,-128.068 326.697,-143.038 387.693,-187 406.033,-200.218 420.382,-221.558 429.773,-238.578"/>
<polygon fill="lightgray" stroke="lightgray" points="426.719,-240.291 434.474,-247.51 432.914,-237.031 426.719,-240.291"/>
<text text-anchor="middle" x="304.693" y="-190.8" font-family="Times New Roman,serif" font-size="14.00" fill="lightgray">wff ph</text>
</g>
<!-- n10166 -->
<g id="node19" class="node"><title>n10166</title>
<ellipse fill="cyan" stroke="black" cx="165.347" cy="-49" rx="38.1938" ry="18"/>
<text text-anchor="middle" x="165.347" y="-45.3" font-family="Times New Roman,serif" font-size="14.00">pm3.21</text>
</g>
<!-- n10163&#45;&gt;n10166 -->
<g id="edge28" class="edge"><title>n10163&#45;&gt;n10166</title>
</g>
<!-- n10164 -->
<g id="node18" class="node"><title>n10164</title>
<ellipse fill="none" stroke="lightgray" cx="27" cy="-90" rx="27" ry="18"/>
<text text-anchor="middle" x="27" y="-86.3" font-family="Times New Roman,serif" font-size="14.00" fill="lightgray">wch</text>
</g>
<!-- n10164&#45;&gt;n10166 -->
<g id="edge20" class="edge"><title>n10164&#45;&gt;n10166</title>
<path fill="none" stroke="lightgray" d="M52.0622,-82.7644C71.662,-76.8706 99.7867,-68.4134 122.985,-61.4377"/>
<polygon fill="lightgray" stroke="lightgray" points="124.017,-64.7821 132.586,-58.5506 122.001,-58.0786 124.017,-64.7821"/>
<text text-anchor="middle" x="90.5" y="-80.8" font-family="Times New Roman,serif" font-size="14.00" fill="lightgray">wff ch</text>
</g>
<!-- n10165 -->
<g id="node20" class="node"><title>n10165</title>
<ellipse fill="none" stroke="lightgray" cx="27" cy="-18" rx="27" ry="18"/>
<text text-anchor="middle" x="27" y="-14.3" font-family="Times New Roman,serif" font-size="14.00" fill="lightgray">wps</text>
</g>
<!-- n10164&#45;&gt;n10165 -->
<g id="edge23" class="edge"><title>n10164&#45;&gt;n10165</title>
</g>
<!-- n10166&#45;&gt;n10167 -->
<g id="edge22" class="edge"><title>n10166&#45;&gt;n10167</title>
<path fill="none" stroke="black" d="M203.895,-48.9851C252.454,-50.9959 336.817,-61.6855 387.693,-109 423.976,-142.742 436.197,-201.921 440.309,-236.883"/>
<polygon fill="black" stroke="black" points="436.835,-237.313 441.343,-246.901 443.798,-236.595 436.835,-237.313"/>
<text text-anchor="middle" x="304.693" y="-112.8" font-family="Times New Roman,serif" font-size="14.00">|&#45; ( ch &#45;&gt; ( ps &#45;&gt; ( ps / ch ) ) )</text>
</g>
<!-- n10165&#45;&gt;n10166 -->
<g id="edge21" class="edge"><title>n10165&#45;&gt;n10166</title>
<path fill="none" stroke="lightgray" d="M52.8329,-23.4374C68.871,-26.969 90.1818,-31.6992 109,-36 112.841,-36.8779 116.831,-37.7982 120.828,-38.7262"/>
<polygon fill="lightgray" stroke="lightgray" points="120.169,-42.1664 130.703,-41.0294 121.759,-35.3493 120.169,-42.1664"/>
<text text-anchor="middle" x="90.5" y="-39.8" font-family="Times New Roman,serif" font-size="14.00" fill="lightgray">wff ps</text>
</g>
</g>
</svg>
