<?xml version="1.0" encoding="UTF-8" standalone="no"?>
<!DOCTYPE svg PUBLIC "-//W3C//DTD SVG 1.1//EN"
 "http://www.w3.org/Graphics/SVG/1.1/DTD/svg11.dtd">
<!-- Generated by graphviz version 2.38.0 (20140413.2041)
 -->
<!-- Title: proof_prlem2 Pages: 1 -->
<svg width="1338pt" height="779pt"
 viewBox="0.00 0.00 1338.07 779.00" xmlns="http://www.w3.org/2000/svg" xmlns:xlink="http://www.w3.org/1999/xlink">
<g id="graph0" class="graph" transform="scale(1 1) rotate(0) translate(4 775)">
<title>proof_prlem2</title>
<polygon fill="white" stroke="none" points="-4,4 -4,-775 1334.07,-775 1334.07,4 -4,4"/>
<!-- n18063 -->
<g id="node1" class="node"><title>n18063</title>
<ellipse fill="none" stroke="lightgray" cx="27" cy="-753" rx="27" ry="18"/>
<text text-anchor="middle" x="27" y="-749.3" font-family="Times New Roman,serif" font-size="14.00" fill="lightgray">wph</text>
</g>
<!-- n18065 -->
<g id="node2" class="node"><title>n18065</title>
<ellipse fill="none" stroke="lightgray" cx="157.547" cy="-692" rx="27" ry="18"/>
<text text-anchor="middle" x="157.547" y="-688.3" font-family="Times New Roman,serif" font-size="14.00" fill="lightgray">wa</text>
</g>
<!-- n18063&#45;&gt;n18065 -->
<g id="edge1" class="edge"><title>n18063&#45;&gt;n18065</title>
<path fill="none" stroke="lightgray" d="M49.5159,-742.79C70.3716,-732.893 102.22,-717.78 125.756,-706.611"/>
<polygon fill="lightgray" stroke="lightgray" points="127.427,-709.693 134.961,-702.243 124.426,-703.368 127.427,-709.693"/>
<text text-anchor="middle" x="90.5" y="-734.8" font-family="Times New Roman,serif" font-size="14.00" fill="lightgray">wff ph</text>
</g>
<!-- n18064 -->
<g id="node3" class="node"><title>n18064</title>
<ellipse fill="none" stroke="lightgray" cx="27" cy="-681" rx="27" ry="18"/>
<text text-anchor="middle" x="27" y="-677.3" font-family="Times New Roman,serif" font-size="14.00" fill="lightgray">wps</text>
</g>
<!-- n18063&#45;&gt;n18064 -->
<g id="edge4" class="edge"><title>n18063&#45;&gt;n18064</title>
</g>
<!-- n18069 -->
<g id="node4" class="node"><title>n18069</title>
<ellipse fill="none" stroke="lightgray" cx="383.441" cy="-601" rx="27" ry="18"/>
<text text-anchor="middle" x="383.441" y="-597.3" font-family="Times New Roman,serif" font-size="14.00" fill="lightgray">wo</text>
</g>
<!-- n18065&#45;&gt;n18069 -->
<g id="edge3" class="edge"><title>n18065&#45;&gt;n18069</title>
<path fill="none" stroke="lightgray" d="M182.934,-685.62C216.318,-676.472 277.732,-658.148 327.095,-635 336.643,-630.523 346.6,-624.779 355.395,-619.292"/>
<polygon fill="lightgray" stroke="lightgray" points="357.541,-622.074 364.072,-613.731 353.764,-616.18 357.541,-622.074"/>
<text text-anchor="middle" x="266.595" y="-682.8" font-family="Times New Roman,serif" font-size="14.00" fill="lightgray">wff ( ph /\ ps )</text>
</g>
<!-- n18068 -->
<g id="node6" class="node"><title>n18068</title>
<ellipse fill="none" stroke="lightgray" cx="157.547" cy="-620" rx="27" ry="18"/>
<text text-anchor="middle" x="157.547" y="-616.3" font-family="Times New Roman,serif" font-size="14.00" fill="lightgray">wa</text>
</g>
<!-- n18065&#45;&gt;n18068 -->
<g id="edge10" class="edge"><title>n18065&#45;&gt;n18068</title>
</g>
<!-- n18064&#45;&gt;n18065 -->
<g id="edge2" class="edge"><title>n18064&#45;&gt;n18065</title>
<path fill="none" stroke="lightgray" d="M54.0135,-683.226C73.0924,-684.859 99.2432,-687.096 120.359,-688.903"/>
<polygon fill="lightgray" stroke="lightgray" points="120.31,-692.412 130.573,-689.777 120.907,-685.437 120.31,-692.412"/>
<text text-anchor="middle" x="90.5" y="-691.8" font-family="Times New Roman,serif" font-size="14.00" fill="lightgray">wff ps</text>
</g>
<!-- n18088 -->
<g id="node8" class="node"><title>n18088</title>
<ellipse fill="cyan" stroke="black" cx="753.684" cy="-511" rx="42.7926" ry="18"/>
<text text-anchor="middle" x="753.684" y="-507.3" font-family="Times New Roman,serif" font-size="14.00">pm4.71ri</text>
</g>
<!-- n18069&#45;&gt;n18088 -->
<g id="edge9" class="edge"><title>n18069&#45;&gt;n18088</title>
<path fill="none" stroke="lightgray" d="M409.392,-595.97C462.074,-585.193 588.397,-558.526 692.788,-530 698.383,-528.471 704.238,-526.757 710.004,-525.002"/>
<polygon fill="lightgray" stroke="lightgray" points="711.049,-528.343 719.56,-522.033 708.972,-521.658 711.049,-528.343"/>
<text text-anchor="middle" x="566.288" y="-593.8" font-family="Times New Roman,serif" font-size="14.00" fill="lightgray">wff ( ( ph /\ ps ) \/ ( ch /\ th ) )</text>
</g>
<!-- n18072 -->
<g id="node10" class="node"><title>n18072</title>
<ellipse fill="none" stroke="lightgray" cx="383.441" cy="-511" rx="27" ry="18"/>
<text text-anchor="middle" x="383.441" y="-507.3" font-family="Times New Roman,serif" font-size="14.00" fill="lightgray">wo</text>
</g>
<!-- n18069&#45;&gt;n18072 -->
<g id="edge40" class="edge"><title>n18069&#45;&gt;n18072</title>
</g>
<!-- n18066 -->
<g id="node5" class="node"><title>n18066</title>
<ellipse fill="none" stroke="lightgray" cx="27" cy="-625" rx="27" ry="18"/>
<text text-anchor="middle" x="27" y="-621.3" font-family="Times New Roman,serif" font-size="14.00" fill="lightgray">wch</text>
</g>
<!-- n18066&#45;&gt;n18068 -->
<g id="edge5" class="edge"><title>n18066&#45;&gt;n18068</title>
<path fill="none" stroke="lightgray" d="M54.0135,-623.988C73.0924,-623.246 99.2432,-622.229 120.359,-621.408"/>
<polygon fill="lightgray" stroke="lightgray" points="120.716,-624.896 130.573,-621.01 120.444,-617.902 120.716,-624.896"/>
<text text-anchor="middle" x="90.5" y="-627.8" font-family="Times New Roman,serif" font-size="14.00" fill="lightgray">wff ch</text>
</g>
<!-- n18067 -->
<g id="node7" class="node"><title>n18067</title>
<ellipse fill="none" stroke="lightgray" cx="27" cy="-553" rx="27" ry="18"/>
<text text-anchor="middle" x="27" y="-549.3" font-family="Times New Roman,serif" font-size="14.00" fill="lightgray">wth</text>
</g>
<!-- n18066&#45;&gt;n18067 -->
<g id="edge8" class="edge"><title>n18066&#45;&gt;n18067</title>
</g>
<!-- n18068&#45;&gt;n18069 -->
<g id="edge7" class="edge"><title>n18068&#45;&gt;n18069</title>
<path fill="none" stroke="lightgray" d="M184.669,-617.783C224.693,-614.387 301.297,-607.886 346.521,-604.048"/>
<polygon fill="lightgray" stroke="lightgray" points="346.818,-607.536 356.486,-603.203 346.226,-600.561 346.818,-607.536"/>
<text text-anchor="middle" x="266.595" y="-619.8" font-family="Times New Roman,serif" font-size="14.00" fill="lightgray">wff ( ch /\ th )</text>
</g>
<!-- n18067&#45;&gt;n18068 -->
<g id="edge6" class="edge"><title>n18067&#45;&gt;n18068</title>
<path fill="none" stroke="lightgray" d="M48.6533,-563.765C69.7052,-574.737 102.578,-591.871 126.509,-604.344"/>
<polygon fill="lightgray" stroke="lightgray" points="125.033,-607.521 135.518,-609.039 128.268,-601.314 125.033,-607.521"/>
<text text-anchor="middle" x="90.5" y="-598.8" font-family="Times New Roman,serif" font-size="14.00" fill="lightgray">wff th</text>
</g>
<!-- QED -->
<g id="node27" class="node"><title>QED</title>
</g>
<!-- n18088&#45;&gt;QED -->
<g id="edge39" class="edge"><title>n18088&#45;&gt;QED</title>
<path fill="none" stroke="black" d="M797.007,-511C899.951,-511 1162.22,-511 1261.22,-511"/>
<polygon fill="black" stroke="black" points="1261.37,-514.5 1271.37,-511 1261.37,-507.5 1261.37,-514.5"/>
<text text-anchor="middle" x="1034.08" y="-514.8" font-family="Times New Roman,serif" font-size="14.00">|&#45; ( ( ( ph /\ ps ) \/ ( ch /\ th ) ) &lt;&#45;&gt; ( ( ph \/ ch ) /\ ( ( ph /\ ps ) \/ ( ch /\ th ) ) ) )</text>
</g>
<!-- n18070 -->
<g id="node9" class="node"><title>n18070</title>
<ellipse fill="none" stroke="lightgray" cx="157.547" cy="-566" rx="27" ry="18"/>
<text text-anchor="middle" x="157.547" y="-562.3" font-family="Times New Roman,serif" font-size="14.00" fill="lightgray">wph</text>
</g>
<!-- n18070&#45;&gt;n18072 -->
<g id="edge11" class="edge"><title>n18070&#45;&gt;n18072</title>
<path fill="none" stroke="lightgray" d="M183.453,-560.349C216.396,-552.815 276.231,-538.925 327.095,-526 333.966,-524.254 341.298,-522.318 348.302,-520.434"/>
<polygon fill="lightgray" stroke="lightgray" points="349.504,-523.735 358.238,-517.738 347.67,-516.979 349.504,-523.735"/>
<text text-anchor="middle" x="266.595" y="-558.8" font-family="Times New Roman,serif" font-size="14.00" fill="lightgray">wff ph</text>
</g>
<!-- n18071 -->
<g id="node11" class="node"><title>n18071</title>
<ellipse fill="none" stroke="lightgray" cx="157.547" cy="-494" rx="27" ry="18"/>
<text text-anchor="middle" x="157.547" y="-490.3" font-family="Times New Roman,serif" font-size="14.00" fill="lightgray">wch</text>
</g>
<!-- n18070&#45;&gt;n18071 -->
<g id="edge14" class="edge"><title>n18070&#45;&gt;n18071</title>
</g>
<!-- n18072&#45;&gt;n18088 -->
<g id="edge13" class="edge"><title>n18072&#45;&gt;n18088</title>
<path fill="none" stroke="lightgray" d="M410.629,-511C470.936,-511 620.55,-511 700.444,-511"/>
<polygon fill="lightgray" stroke="lightgray" points="700.769,-514.5 710.769,-511 700.769,-507.5 700.769,-514.5"/>
<text text-anchor="middle" x="566.288" y="-514.8" font-family="Times New Roman,serif" font-size="14.00" fill="lightgray">wff ( ph \/ ch )</text>
</g>
<!-- n18087 -->
<g id="node15" class="node"><title>n18087</title>
<ellipse fill="cyan" stroke="black" cx="383.441" cy="-341" rx="38.1938" ry="18"/>
<text text-anchor="middle" x="383.441" y="-337.3" font-family="Times New Roman,serif" font-size="14.00">orim12i</text>
</g>
<!-- n18072&#45;&gt;n18087 -->
<g id="edge41" class="edge"><title>n18072&#45;&gt;n18087</title>
</g>
<!-- n18071&#45;&gt;n18072 -->
<g id="edge12" class="edge"><title>n18071&#45;&gt;n18072</title>
<path fill="none" stroke="lightgray" d="M184.669,-495.983C224.609,-499.016 300.975,-504.814 346.235,-508.251"/>
<polygon fill="lightgray" stroke="lightgray" points="346.25,-511.762 356.486,-509.029 346.78,-504.782 346.25,-511.762"/>
<text text-anchor="middle" x="266.595" y="-510.8" font-family="Times New Roman,serif" font-size="14.00" fill="lightgray">wff ch</text>
</g>
<!-- n18073 -->
<g id="node12" class="node"><title>n18073</title>
<ellipse fill="none" stroke="lightgray" cx="27" cy="-497" rx="27" ry="18"/>
<text text-anchor="middle" x="27" y="-493.3" font-family="Times New Roman,serif" font-size="14.00" fill="lightgray">wps</text>
</g>
<!-- n18075 -->
<g id="node13" class="node"><title>n18075</title>
<ellipse fill="none" stroke="lightgray" cx="157.547" cy="-440" rx="27" ry="18"/>
<text text-anchor="middle" x="157.547" y="-436.3" font-family="Times New Roman,serif" font-size="14.00" fill="lightgray">wa</text>
</g>
<!-- n18073&#45;&gt;n18075 -->
<g id="edge15" class="edge"><title>n18073&#45;&gt;n18075</title>
<path fill="none" stroke="lightgray" d="M49.8063,-487.331C70.5821,-478.118 102.073,-464.155 125.472,-453.779"/>
<polygon fill="lightgray" stroke="lightgray" points="126.911,-456.97 134.634,-449.717 124.074,-450.571 126.911,-456.97"/>
<text text-anchor="middle" x="90.5" y="-480.8" font-family="Times New Roman,serif" font-size="14.00" fill="lightgray">wff ps</text>
</g>
<!-- n18074 -->
<g id="node14" class="node"><title>n18074</title>
<ellipse fill="none" stroke="lightgray" cx="27" cy="-425" rx="27" ry="18"/>
<text text-anchor="middle" x="27" y="-421.3" font-family="Times New Roman,serif" font-size="14.00" fill="lightgray">wph</text>
</g>
<!-- n18073&#45;&gt;n18074 -->
<g id="edge18" class="edge"><title>n18073&#45;&gt;n18074</title>
</g>
<!-- n18075&#45;&gt;n18087 -->
<g id="edge17" class="edge"><title>n18075&#45;&gt;n18087</title>
<path fill="none" stroke="lightgray" d="M183.232,-434.054C216.957,-425.371 278.762,-407.44 327.095,-382 337.038,-376.766 347.139,-369.851 355.942,-363.193"/>
<polygon fill="lightgray" stroke="lightgray" points="358.208,-365.864 363.937,-356.952 353.9,-360.346 358.208,-365.864"/>
<text text-anchor="middle" x="266.595" y="-431.8" font-family="Times New Roman,serif" font-size="14.00" fill="lightgray">wff ( ph /\ ps )</text>
</g>
<!-- n18076 -->
<g id="node16" class="node"><title>n18076</title>
<ellipse fill="none" stroke="lightgray" cx="157.547" cy="-368" rx="27" ry="18"/>
<text text-anchor="middle" x="157.547" y="-364.3" font-family="Times New Roman,serif" font-size="14.00" fill="lightgray">wph</text>
</g>
<!-- n18075&#45;&gt;n18076 -->
<g id="edge34" class="edge"><title>n18075&#45;&gt;n18076</title>
</g>
<!-- n18074&#45;&gt;n18075 -->
<g id="edge16" class="edge"><title>n18074&#45;&gt;n18075</title>
<path fill="none" stroke="lightgray" d="M53.7045,-427.999C72.9718,-430.248 99.5768,-433.352 120.899,-435.84"/>
<polygon fill="lightgray" stroke="lightgray" points="120.549,-439.323 130.887,-437.006 121.36,-432.37 120.549,-439.323"/>
<text text-anchor="middle" x="90.5" y="-438.8" font-family="Times New Roman,serif" font-size="14.00" fill="lightgray">wff ph</text>
</g>
<!-- n18087&#45;&gt;n18088 -->
<g id="edge33" class="edge"><title>n18087&#45;&gt;n18088</title>
<path fill="none" stroke="black" d="M411.519,-353.501C476.215,-383.368 639.928,-458.946 714.557,-493.399"/>
<polygon fill="black" stroke="black" points="713.507,-496.769 724.053,-497.783 716.441,-490.413 713.507,-496.769"/>
<text text-anchor="middle" x="566.288" y="-486.8" font-family="Times New Roman,serif" font-size="14.00">|&#45; ( ( ( ph /\ ps ) \/ ( ch /\ th ) ) &#45;&gt; ( ph \/ ch ) )</text>
</g>
<!-- n18076&#45;&gt;n18087 -->
<g id="edge19" class="edge"><title>n18076&#45;&gt;n18087</title>
<path fill="none" stroke="lightgray" d="M184.231,-364.903C221.179,-360.447 289.938,-352.155 335.952,-346.606"/>
<polygon fill="lightgray" stroke="lightgray" points="336.469,-350.069 345.978,-345.397 335.631,-343.12 336.469,-350.069"/>
<text text-anchor="middle" x="266.595" y="-366.8" font-family="Times New Roman,serif" font-size="14.00" fill="lightgray">wff ph</text>
</g>
<!-- n18079 -->
<g id="node18" class="node"><title>n18079</title>
<ellipse fill="none" stroke="lightgray" cx="157.547" cy="-296" rx="27" ry="18"/>
<text text-anchor="middle" x="157.547" y="-292.3" font-family="Times New Roman,serif" font-size="14.00" fill="lightgray">wa</text>
</g>
<!-- n18076&#45;&gt;n18079 -->
<g id="edge35" class="edge"><title>n18076&#45;&gt;n18079</title>
</g>
<!-- n18077 -->
<g id="node17" class="node"><title>n18077</title>
<ellipse fill="none" stroke="lightgray" cx="27" cy="-354" rx="27" ry="18"/>
<text text-anchor="middle" x="27" y="-350.3" font-family="Times New Roman,serif" font-size="14.00" fill="lightgray">wth</text>
</g>
<!-- n18077&#45;&gt;n18079 -->
<g id="edge20" class="edge"><title>n18077&#45;&gt;n18079</title>
<path fill="none" stroke="lightgray" d="M49.8063,-344.161C70.5821,-334.787 102.073,-320.579 125.472,-310.021"/>
<polygon fill="lightgray" stroke="lightgray" points="126.958,-313.19 134.634,-305.887 124.079,-306.81 126.958,-313.19"/>
<text text-anchor="middle" x="90.5" y="-337.8" font-family="Times New Roman,serif" font-size="14.00" fill="lightgray">wff th</text>
</g>
<!-- n18078 -->
<g id="node19" class="node"><title>n18078</title>
<ellipse fill="none" stroke="lightgray" cx="27" cy="-282" rx="27" ry="18"/>
<text text-anchor="middle" x="27" y="-278.3" font-family="Times New Roman,serif" font-size="14.00" fill="lightgray">wch</text>
</g>
<!-- n18077&#45;&gt;n18078 -->
<g id="edge23" class="edge"><title>n18077&#45;&gt;n18078</title>
</g>
<!-- n18079&#45;&gt;n18087 -->
<g id="edge22" class="edge"><title>n18079&#45;&gt;n18087</title>
<path fill="none" stroke="lightgray" d="M183.796,-301.075C221.115,-308.575 291.555,-322.733 337.738,-332.015"/>
<polygon fill="lightgray" stroke="lightgray" points="337.282,-335.493 347.775,-334.033 338.661,-328.631 337.282,-335.493"/>
<text text-anchor="middle" x="266.595" y="-332.8" font-family="Times New Roman,serif" font-size="14.00" fill="lightgray">wff ( ch /\ th )</text>
</g>
<!-- n18080 -->
<g id="node20" class="node"><title>n18080</title>
<ellipse fill="none" stroke="lightgray" cx="157.547" cy="-224" rx="27" ry="18"/>
<text text-anchor="middle" x="157.547" y="-220.3" font-family="Times New Roman,serif" font-size="14.00" fill="lightgray">wch</text>
</g>
<!-- n18079&#45;&gt;n18080 -->
<g id="edge36" class="edge"><title>n18079&#45;&gt;n18080</title>
</g>
<!-- n18078&#45;&gt;n18079 -->
<g id="edge21" class="edge"><title>n18078&#45;&gt;n18079</title>
<path fill="none" stroke="lightgray" d="M53.7045,-284.799C72.8459,-286.884 99.2294,-289.758 120.481,-292.072"/>
<polygon fill="lightgray" stroke="lightgray" points="120.127,-295.554 130.447,-293.157 120.884,-288.595 120.127,-295.554"/>
<text text-anchor="middle" x="90.5" y="-294.8" font-family="Times New Roman,serif" font-size="14.00" fill="lightgray">wff ch</text>
</g>
<!-- n18080&#45;&gt;n18087 -->
<g id="edge24" class="edge"><title>n18080&#45;&gt;n18087</title>
<path fill="none" stroke="lightgray" d="M183.165,-229.759C217.352,-238.494 280.274,-257.293 327.095,-287 339.741,-295.024 351.876,-306.31 361.544,-316.49"/>
<polygon fill="lightgray" stroke="lightgray" points="359.083,-318.986 368.423,-323.988 364.241,-314.253 359.083,-318.986"/>
<text text-anchor="middle" x="266.595" y="-290.8" font-family="Times New Roman,serif" font-size="14.00" fill="lightgray">wff ch</text>
</g>
<!-- n18083 -->
<g id="node22" class="node"><title>n18083</title>
<ellipse fill="cyan" stroke="black" cx="157.547" cy="-152" rx="30.5947" ry="18"/>
<text text-anchor="middle" x="157.547" y="-148.3" font-family="Times New Roman,serif" font-size="14.00">simpl</text>
</g>
<!-- n18080&#45;&gt;n18083 -->
<g id="edge37" class="edge"><title>n18080&#45;&gt;n18083</title>
</g>
<!-- n18081 -->
<g id="node21" class="node"><title>n18081</title>
<ellipse fill="none" stroke="lightgray" cx="27" cy="-221" rx="27" ry="18"/>
<text text-anchor="middle" x="27" y="-217.3" font-family="Times New Roman,serif" font-size="14.00" fill="lightgray">wph</text>
</g>
<!-- n18081&#45;&gt;n18083 -->
<g id="edge25" class="edge"><title>n18081&#45;&gt;n18083</title>
<path fill="none" stroke="lightgray" d="M48.6533,-209.914C69.3293,-198.816 101.408,-181.597 125.219,-168.816"/>
<polygon fill="lightgray" stroke="lightgray" points="127.062,-171.799 134.218,-163.986 123.752,-165.631 127.062,-171.799"/>
<text text-anchor="middle" x="90.5" y="-200.8" font-family="Times New Roman,serif" font-size="14.00" fill="lightgray">wff ph</text>
</g>
<!-- n18082 -->
<g id="node23" class="node"><title>n18082</title>
<ellipse fill="none" stroke="lightgray" cx="27" cy="-149" rx="27" ry="18"/>
<text text-anchor="middle" x="27" y="-145.3" font-family="Times New Roman,serif" font-size="14.00" fill="lightgray">wps</text>
</g>
<!-- n18081&#45;&gt;n18082 -->
<g id="edge28" class="edge"><title>n18081&#45;&gt;n18082</title>
</g>
<!-- n18083&#45;&gt;n18087 -->
<g id="edge27" class="edge"><title>n18083&#45;&gt;n18087</title>
<path fill="none" stroke="black" d="M187.143,-156.581C223.828,-163.825 287.442,-181.189 327.095,-219 353.96,-244.618 368.84,-285.716 376.237,-313.032"/>
<polygon fill="black" stroke="black" points="372.856,-313.938 378.715,-322.766 379.639,-312.211 372.856,-313.938"/>
<text text-anchor="middle" x="266.595" y="-222.8" font-family="Times New Roman,serif" font-size="14.00">|&#45; ( ( ph /\ ps ) &#45;&gt; ph )</text>
</g>
<!-- n18086 -->
<g id="node25" class="node"><title>n18086</title>
<ellipse fill="cyan" stroke="black" cx="157.547" cy="-80" rx="30.5947" ry="18"/>
<text text-anchor="middle" x="157.547" y="-76.3" font-family="Times New Roman,serif" font-size="14.00">simpl</text>
</g>
<!-- n18083&#45;&gt;n18086 -->
<g id="edge38" class="edge"><title>n18083&#45;&gt;n18086</title>
</g>
<!-- n18082&#45;&gt;n18083 -->
<g id="edge26" class="edge"><title>n18082&#45;&gt;n18083</title>
<path fill="none" stroke="lightgray" d="M54.0135,-149.607C72.0058,-150.027 96.2871,-150.594 116.704,-151.07"/>
<polygon fill="lightgray" stroke="lightgray" points="116.896,-154.575 126.975,-151.31 117.06,-147.577 116.896,-154.575"/>
<text text-anchor="middle" x="90.5" y="-154.8" font-family="Times New Roman,serif" font-size="14.00" fill="lightgray">wff ps</text>
</g>
<!-- n18084 -->
<g id="node24" class="node"><title>n18084</title>
<ellipse fill="none" stroke="lightgray" cx="27" cy="-90" rx="27" ry="18"/>
<text text-anchor="middle" x="27" y="-86.3" font-family="Times New Roman,serif" font-size="14.00" fill="lightgray">wch</text>
</g>
<!-- n18084&#45;&gt;n18086 -->
<g id="edge29" class="edge"><title>n18084&#45;&gt;n18086</title>
<path fill="none" stroke="lightgray" d="M54.0135,-87.9764C72.0883,-86.5703 96.51,-84.6704 116.985,-83.0776"/>
<polygon fill="lightgray" stroke="lightgray" points="117.277,-86.5656 126.975,-82.3005 116.734,-79.5867 117.277,-86.5656"/>
<text text-anchor="middle" x="90.5" y="-90.8" font-family="Times New Roman,serif" font-size="14.00" fill="lightgray">wff ch</text>
</g>
<!-- n18085 -->
<g id="node26" class="node"><title>n18085</title>
<ellipse fill="none" stroke="lightgray" cx="27" cy="-18" rx="27" ry="18"/>
<text text-anchor="middle" x="27" y="-14.3" font-family="Times New Roman,serif" font-size="14.00" fill="lightgray">wth</text>
</g>
<!-- n18084&#45;&gt;n18085 -->
<g id="edge32" class="edge"><title>n18084&#45;&gt;n18085</title>
</g>
<!-- n18086&#45;&gt;n18087 -->
<g id="edge31" class="edge"><title>n18086&#45;&gt;n18087</title>
<path fill="none" stroke="black" d="M187.708,-82.8818C225.306,-88.1631 290.224,-102.849 327.095,-143 370.956,-190.764 380.437,-270.46 382.246,-312.706"/>
<polygon fill="black" stroke="black" points="378.752,-312.955 382.561,-322.841 385.748,-312.737 378.752,-312.955"/>
<text text-anchor="middle" x="266.595" y="-146.8" font-family="Times New Roman,serif" font-size="14.00">|&#45; ( ( ch /\ th ) &#45;&gt; ch )</text>
</g>
<!-- n18085&#45;&gt;n18086 -->
<g id="edge30" class="edge"><title>n18085&#45;&gt;n18086</title>
<path fill="none" stroke="lightgray" d="M49.227,-28.238C69.5338,-38.0323 100.45,-52.9438 123.893,-64.2505"/>
<polygon fill="lightgray" stroke="lightgray" points="122.582,-67.504 133.11,-68.6958 125.623,-61.1991 122.582,-67.504"/>
<text text-anchor="middle" x="90.5" y="-60.8" font-family="Times New Roman,serif" font-size="14.00" fill="lightgray">wff th</text>
</g>
</g>
</svg>
