<?xml version="1.0" encoding="UTF-8" standalone="no"?>
<!DOCTYPE svg PUBLIC "-//W3C//DTD SVG 1.1//EN"
 "http://www.w3.org/Graphics/SVG/1.1/DTD/svg11.dtd">
<!-- Generated by graphviz version 2.38.0 (20140413.2041)
 -->
<!-- Title: proof_rbaib Pages: 1 -->
<svg width="905pt" height="461pt"
 viewBox="0.00 0.00 904.69 461.00" xmlns="http://www.w3.org/2000/svg" xmlns:xlink="http://www.w3.org/1999/xlink">
<g id="graph0" class="graph" transform="scale(1 1) rotate(0) translate(4 457)">
<title>proof_rbaib</title>
<polygon fill="white" stroke="none" points="-4,4 -4,-457 900.689,-457 900.689,4 -4,4"/>
<!-- n16107 -->
<g id="node1" class="node"><title>n16107</title>
<ellipse fill="none" stroke="lightgray" cx="426.194" cy="-435" rx="27" ry="18"/>
<text text-anchor="middle" x="426.194" y="-431.3" font-family="Times New Roman,serif" font-size="14.00" fill="lightgray">wph</text>
</g>
<!-- n16122 -->
<g id="node2" class="node"><title>n16122</title>
<ellipse fill="cyan" stroke="black" cx="641.194" cy="-326" rx="27" ry="18"/>
<text text-anchor="middle" x="641.194" y="-322.3" font-family="Times New Roman,serif" font-size="14.00">baib</text>
</g>
<!-- n16107&#45;&gt;n16122 -->
<g id="edge1" class="edge"><title>n16107&#45;&gt;n16122</title>
<path fill="none" stroke="lightgray" d="M452.122,-429.969C486.687,-422.15 550.113,-404.695 596.194,-374 605.89,-367.541 614.911,-358.503 622.228,-350.009"/>
<polygon fill="lightgray" stroke="lightgray" points="625.052,-352.086 628.688,-342.135 619.64,-347.646 625.052,-352.086"/>
<text text-anchor="middle" x="533.694" y="-427.8" font-family="Times New Roman,serif" font-size="14.00" fill="lightgray">wff ph</text>
</g>
<!-- n16108 -->
<g id="node3" class="node"><title>n16108</title>
<ellipse fill="none" stroke="lightgray" cx="426.194" cy="-363" rx="27" ry="18"/>
<text text-anchor="middle" x="426.194" y="-359.3" font-family="Times New Roman,serif" font-size="14.00" fill="lightgray">wch</text>
</g>
<!-- n16107&#45;&gt;n16108 -->
<g id="edge24" class="edge"><title>n16107&#45;&gt;n16108</title>
</g>
<!-- QED -->
<g id="node17" class="node"><title>QED</title>
</g>
<!-- n16122&#45;&gt;QED -->
<g id="edge23" class="edge"><title>n16122&#45;&gt;QED</title>
<path fill="none" stroke="black" d="M668.357,-326C707.694,-326 782.31,-326 827.889,-326"/>
<polygon fill="black" stroke="black" points="827.981,-329.5 837.981,-326 827.981,-322.5 827.981,-329.5"/>
<text text-anchor="middle" x="753.194" y="-329.8" font-family="Times New Roman,serif" font-size="14.00">|&#45; ( ch &#45;&gt; ( ph &lt;&#45;&gt; ps ) )</text>
</g>
<!-- n16108&#45;&gt;n16122 -->
<g id="edge2" class="edge"><title>n16108&#45;&gt;n16122</title>
<path fill="none" stroke="lightgray" d="M452.464,-358.61C490.335,-352.032 561.945,-339.592 604.94,-332.124"/>
<polygon fill="lightgray" stroke="lightgray" points="605.703,-335.544 614.956,-330.384 604.505,-328.647 605.703,-335.544"/>
<text text-anchor="middle" x="533.694" y="-358.8" font-family="Times New Roman,serif" font-size="14.00" fill="lightgray">wff ch</text>
</g>
<!-- n16109 -->
<g id="node4" class="node"><title>n16109</title>
<ellipse fill="none" stroke="lightgray" cx="426.194" cy="-291" rx="27" ry="18"/>
<text text-anchor="middle" x="426.194" y="-287.3" font-family="Times New Roman,serif" font-size="14.00" fill="lightgray">wps</text>
</g>
<!-- n16108&#45;&gt;n16109 -->
<g id="edge25" class="edge"><title>n16108&#45;&gt;n16109</title>
</g>
<!-- n16109&#45;&gt;n16122 -->
<g id="edge3" class="edge"><title>n16109&#45;&gt;n16122</title>
<path fill="none" stroke="lightgray" d="M452.74,-294.532C485.892,-299.206 545.496,-307.921 596.194,-317 599.072,-317.515 602.051,-318.073 605.04,-318.649"/>
<polygon fill="lightgray" stroke="lightgray" points="604.615,-322.133 615.105,-320.647 605.978,-315.267 604.615,-322.133"/>
<text text-anchor="middle" x="533.694" y="-320.8" font-family="Times New Roman,serif" font-size="14.00" fill="lightgray">wff ps</text>
</g>
<!-- n16121 -->
<g id="node6" class="node"><title>n16121</title>
<ellipse fill="cyan" stroke="black" cx="426.194" cy="-219" rx="27" ry="18"/>
<text text-anchor="middle" x="426.194" y="-215.3" font-family="Times New Roman,serif" font-size="14.00">bitri</text>
</g>
<!-- n16109&#45;&gt;n16121 -->
<g id="edge26" class="edge"><title>n16109&#45;&gt;n16121</title>
</g>
<!-- n16110 -->
<g id="node5" class="node"><title>n16110</title>
<ellipse fill="none" stroke="lightgray" cx="162.097" cy="-363" rx="27" ry="18"/>
<text text-anchor="middle" x="162.097" y="-359.3" font-family="Times New Roman,serif" font-size="14.00" fill="lightgray">wph</text>
</g>
<!-- n16110&#45;&gt;n16121 -->
<g id="edge4" class="edge"><title>n16110&#45;&gt;n16121</title>
<path fill="none" stroke="lightgray" d="M189.335,-361.829C233.675,-358.555 324.159,-346.131 381.194,-299 394.678,-287.857 390.816,-279.355 399.194,-264 402.678,-257.614 406.546,-250.787 410.212,-244.43"/>
<polygon fill="lightgray" stroke="lightgray" points="413.368,-245.964 415.367,-235.559 407.316,-242.446 413.368,-245.964"/>
<text text-anchor="middle" x="298.194" y="-362.8" font-family="Times New Roman,serif" font-size="14.00" fill="lightgray">wff ph</text>
</g>
<!-- n16113 -->
<g id="node8" class="node"><title>n16113</title>
<ellipse fill="none" stroke="lightgray" cx="162.097" cy="-291" rx="27" ry="18"/>
<text text-anchor="middle" x="162.097" y="-287.3" font-family="Times New Roman,serif" font-size="14.00" fill="lightgray">wa</text>
</g>
<!-- n16110&#45;&gt;n16113 -->
<g id="edge19" class="edge"><title>n16110&#45;&gt;n16113</title>
</g>
<!-- n16121&#45;&gt;n16122 -->
<g id="edge18" class="edge"><title>n16121&#45;&gt;n16122</title>
<path fill="none" stroke="black" d="M452.418,-223.745C487.052,-231.123 550.255,-247.747 596.194,-278 605.924,-284.408 614.951,-293.436 622.264,-301.936"/>
<polygon fill="black" stroke="black" points="619.675,-304.299 628.718,-309.821 625.093,-299.866 619.675,-304.299"/>
<text text-anchor="middle" x="533.694" y="-281.8" font-family="Times New Roman,serif" font-size="14.00">|&#45; ( ph &lt;&#45;&gt; ( ch / ps ) )</text>
</g>
<!-- n16111 -->
<g id="node7" class="node"><title>n16111</title>
<ellipse fill="none" stroke="lightgray" cx="27" cy="-350" rx="27" ry="18"/>
<text text-anchor="middle" x="27" y="-346.3" font-family="Times New Roman,serif" font-size="14.00" fill="lightgray">wps</text>
</g>
<!-- n16111&#45;&gt;n16113 -->
<g id="edge5" class="edge"><title>n16111&#45;&gt;n16113</title>
<path fill="none" stroke="lightgray" d="M49.9782,-340.257C71.749,-330.607 105.298,-315.735 129.838,-304.857"/>
<polygon fill="lightgray" stroke="lightgray" points="131.362,-308.009 139.086,-300.757 128.526,-301.61 131.362,-308.009"/>
<text text-anchor="middle" x="90.5" y="-332.8" font-family="Times New Roman,serif" font-size="14.00" fill="lightgray">wff ps</text>
</g>
<!-- n16112 -->
<g id="node9" class="node"><title>n16112</title>
<ellipse fill="none" stroke="lightgray" cx="27" cy="-278" rx="27" ry="18"/>
<text text-anchor="middle" x="27" y="-274.3" font-family="Times New Roman,serif" font-size="14.00" fill="lightgray">wch</text>
</g>
<!-- n16111&#45;&gt;n16112 -->
<g id="edge8" class="edge"><title>n16111&#45;&gt;n16112</title>
</g>
<!-- n16113&#45;&gt;n16121 -->
<g id="edge7" class="edge"><title>n16113&#45;&gt;n16121</title>
<path fill="none" stroke="lightgray" d="M188.345,-286.311C229.379,-278.371 312.835,-260.882 381.194,-238 385.482,-236.565 389.932,-234.883 394.282,-233.123"/>
<polygon fill="lightgray" stroke="lightgray" points="395.693,-236.327 403.545,-229.214 392.971,-229.878 395.693,-236.327"/>
<text text-anchor="middle" x="298.194" y="-283.8" font-family="Times New Roman,serif" font-size="14.00" fill="lightgray">wff ( ps / ch )</text>
</g>
<!-- n16116 -->
<g id="node11" class="node"><title>n16116</title>
<ellipse fill="none" stroke="lightgray" cx="162.097" cy="-219" rx="27" ry="18"/>
<text text-anchor="middle" x="162.097" y="-215.3" font-family="Times New Roman,serif" font-size="14.00" fill="lightgray">wa</text>
</g>
<!-- n16113&#45;&gt;n16116 -->
<g id="edge20" class="edge"><title>n16113&#45;&gt;n16116</title>
</g>
<!-- n16112&#45;&gt;n16113 -->
<g id="edge6" class="edge"><title>n16112&#45;&gt;n16113</title>
<path fill="none" stroke="lightgray" d="M53.9784,-280.537C74.2241,-282.515 102.571,-285.284 125.018,-287.476"/>
<polygon fill="lightgray" stroke="lightgray" points="124.891,-290.98 135.184,-288.469 125.572,-284.013 124.891,-290.98"/>
<text text-anchor="middle" x="90.5" y="-288.8" font-family="Times New Roman,serif" font-size="14.00" fill="lightgray">wff ch</text>
</g>
<!-- n16114 -->
<g id="node10" class="node"><title>n16114</title>
<ellipse fill="none" stroke="lightgray" cx="27" cy="-223" rx="27" ry="18"/>
<text text-anchor="middle" x="27" y="-219.3" font-family="Times New Roman,serif" font-size="14.00" fill="lightgray">wch</text>
</g>
<!-- n16114&#45;&gt;n16116 -->
<g id="edge9" class="edge"><title>n16114&#45;&gt;n16116</title>
<path fill="none" stroke="lightgray" d="M53.9784,-222.219C74.0934,-221.615 102.205,-220.77 124.583,-220.097"/>
<polygon fill="lightgray" stroke="lightgray" points="124.839,-223.591 134.729,-219.792 124.628,-216.595 124.839,-223.591"/>
<text text-anchor="middle" x="90.5" y="-224.8" font-family="Times New Roman,serif" font-size="14.00" fill="lightgray">wff ch</text>
</g>
<!-- n16115 -->
<g id="node12" class="node"><title>n16115</title>
<ellipse fill="none" stroke="lightgray" cx="27" cy="-151" rx="27" ry="18"/>
<text text-anchor="middle" x="27" y="-147.3" font-family="Times New Roman,serif" font-size="14.00" fill="lightgray">wps</text>
</g>
<!-- n16114&#45;&gt;n16115 -->
<g id="edge12" class="edge"><title>n16114&#45;&gt;n16115</title>
</g>
<!-- n16116&#45;&gt;n16121 -->
<g id="edge11" class="edge"><title>n16116&#45;&gt;n16121</title>
<path fill="none" stroke="lightgray" d="M189.186,-219C236.163,-219 335.072,-219 388.723,-219"/>
<polygon fill="lightgray" stroke="lightgray" points="388.821,-222.5 398.821,-219 388.821,-215.5 388.821,-222.5"/>
<text text-anchor="middle" x="298.194" y="-222.8" font-family="Times New Roman,serif" font-size="14.00" fill="lightgray">wff ( ch / ps )</text>
</g>
<!-- n16117 -->
<g id="node13" class="node"><title>n16117</title>
<ellipse fill="orange" stroke="black" cx="162.097" cy="-147" rx="33.2948" ry="18"/>
<text text-anchor="middle" x="162.097" y="-143.3" font-family="Times New Roman,serif" font-size="14.00">baib.1</text>
</g>
<!-- n16116&#45;&gt;n16117 -->
<g id="edge21" class="edge"><title>n16116&#45;&gt;n16117</title>
</g>
<!-- n16115&#45;&gt;n16116 -->
<g id="edge10" class="edge"><title>n16115&#45;&gt;n16116</title>
<path fill="none" stroke="lightgray" d="M48.7964,-161.625C70.8386,-172.887 105.86,-190.779 130.933,-203.589"/>
<polygon fill="lightgray" stroke="lightgray" points="129.51,-206.792 140.007,-208.225 132.695,-200.559 129.51,-206.792"/>
<text text-anchor="middle" x="90.5" y="-195.8" font-family="Times New Roman,serif" font-size="14.00" fill="lightgray">wff ps</text>
</g>
<!-- n16117&#45;&gt;n16121 -->
<g id="edge13" class="edge"><title>n16117&#45;&gt;n16121</title>
<path fill="none" stroke="black" d="M193.541,-152.701C236.121,-161.056 315.606,-178.046 381.194,-200 385.482,-201.435 389.932,-203.117 394.282,-204.877"/>
<polygon fill="black" stroke="black" points="392.971,-208.122 403.545,-208.786 395.693,-201.673 392.971,-208.122"/>
<text text-anchor="middle" x="298.194" y="-203.8" font-family="Times New Roman,serif" font-size="14.00">|&#45; ( ph &lt;&#45;&gt; ( ps / ch ) )</text>
</g>
<!-- n16120 -->
<g id="node15" class="node"><title>n16120</title>
<ellipse fill="cyan" stroke="black" cx="162.097" cy="-75" rx="35.194" ry="18"/>
<text text-anchor="middle" x="162.097" y="-71.3" font-family="Times New Roman,serif" font-size="14.00">ancom</text>
</g>
<!-- n16117&#45;&gt;n16120 -->
<g id="edge22" class="edge"><title>n16117&#45;&gt;n16120</title>
</g>
<!-- n16118 -->
<g id="node14" class="node"><title>n16118</title>
<ellipse fill="none" stroke="lightgray" cx="27" cy="-90" rx="27" ry="18"/>
<text text-anchor="middle" x="27" y="-86.3" font-family="Times New Roman,serif" font-size="14.00" fill="lightgray">wps</text>
</g>
<!-- n16118&#45;&gt;n16120 -->
<g id="edge14" class="edge"><title>n16118&#45;&gt;n16120</title>
<path fill="none" stroke="lightgray" d="M53.6624,-87.1078C71.7094,-85.074 96.3059,-82.3019 117.411,-79.9234"/>
<polygon fill="lightgray" stroke="lightgray" points="117.901,-83.3904 127.446,-78.7924 117.117,-76.4344 117.901,-83.3904"/>
<text text-anchor="middle" x="90.5" y="-88.8" font-family="Times New Roman,serif" font-size="14.00" fill="lightgray">wff ps</text>
</g>
<!-- n16119 -->
<g id="node16" class="node"><title>n16119</title>
<ellipse fill="none" stroke="lightgray" cx="27" cy="-18" rx="27" ry="18"/>
<text text-anchor="middle" x="27" y="-14.3" font-family="Times New Roman,serif" font-size="14.00" fill="lightgray">wch</text>
</g>
<!-- n16118&#45;&gt;n16119 -->
<g id="edge17" class="edge"><title>n16118&#45;&gt;n16119</title>
</g>
<!-- n16120&#45;&gt;n16121 -->
<g id="edge16" class="edge"><title>n16120&#45;&gt;n16121</title>
<path fill="none" stroke="black" d="M197.029,-77.0269C243.325,-81.4104 326.739,-95.2615 381.194,-139 398.033,-152.525 409.412,-174.316 416.372,-191.743"/>
<polygon fill="black" stroke="black" points="413.199,-193.252 419.968,-201.403 419.76,-190.81 413.199,-193.252"/>
<text text-anchor="middle" x="298.194" y="-142.8" font-family="Times New Roman,serif" font-size="14.00">|&#45; ( ( ps / ch ) &lt;&#45;&gt; ( ch / ps ) )</text>
</g>
<!-- n16119&#45;&gt;n16120 -->
<g id="edge15" class="edge"><title>n16119&#45;&gt;n16120</title>
<path fill="none" stroke="lightgray" d="M50.2774,-27.5405C70.7005,-36.2869 101.304,-49.3932 125.18,-59.6181"/>
<polygon fill="lightgray" stroke="lightgray" points="124.051,-62.942 134.621,-63.6614 126.806,-56.5072 124.051,-62.942"/>
<text text-anchor="middle" x="90.5" y="-55.8" font-family="Times New Roman,serif" font-size="14.00" fill="lightgray">wff ch</text>
</g>
</g>
</svg>
