<?xml version="1.0" encoding="UTF-8" standalone="no"?>
<!DOCTYPE svg PUBLIC "-//W3C//DTD SVG 1.1//EN"
 "http://www.w3.org/Graphics/SVG/1.1/DTD/svg11.dtd">
<!-- Generated by graphviz version 2.38.0 (20140413.2041)
 -->
<!-- Title: proof_rbaibr Pages: 1 -->
<svg width="909pt" height="461pt"
 viewBox="0.00 0.00 909.18 461.00" xmlns="http://www.w3.org/2000/svg" xmlns:xlink="http://www.w3.org/1999/xlink">
<g id="graph0" class="graph" transform="scale(1 1) rotate(0) translate(4 457)">
<title>proof_rbaibr</title>
<polygon fill="white" stroke="none" points="-4,4 -4,-457 905.183,-457 905.183,4 -4,4"/>
<!-- n16123 -->
<g id="node1" class="node"><title>n16123</title>
<ellipse fill="none" stroke="lightgray" cx="426.194" cy="-435" rx="27" ry="18"/>
<text text-anchor="middle" x="426.194" y="-431.3" font-family="Times New Roman,serif" font-size="14.00" fill="lightgray">wph</text>
</g>
<!-- n16138 -->
<g id="node2" class="node"><title>n16138</title>
<ellipse fill="cyan" stroke="black" cx="643.441" cy="-326" rx="29.4969" ry="18"/>
<text text-anchor="middle" x="643.441" y="-322.3" font-family="Times New Roman,serif" font-size="14.00">baibr</text>
</g>
<!-- n16123&#45;&gt;n16138 -->
<g id="edge1" class="edge"><title>n16123&#45;&gt;n16138</title>
<path fill="none" stroke="lightgray" d="M452.307,-429.739C486.812,-421.698 549.866,-404.035 596.194,-374 606.304,-367.445 615.841,-358.282 623.598,-349.716"/>
<polygon fill="lightgray" stroke="lightgray" points="626.285,-351.96 630.187,-342.109 620.994,-347.376 626.285,-351.96"/>
<text text-anchor="middle" x="533.694" y="-427.8" font-family="Times New Roman,serif" font-size="14.00" fill="lightgray">wff ph</text>
</g>
<!-- n16124 -->
<g id="node3" class="node"><title>n16124</title>
<ellipse fill="none" stroke="lightgray" cx="426.194" cy="-363" rx="27" ry="18"/>
<text text-anchor="middle" x="426.194" y="-359.3" font-family="Times New Roman,serif" font-size="14.00" fill="lightgray">wch</text>
</g>
<!-- n16123&#45;&gt;n16124 -->
<g id="edge24" class="edge"><title>n16123&#45;&gt;n16124</title>
</g>
<!-- QED -->
<g id="node17" class="node"><title>QED</title>
</g>
<!-- n16138&#45;&gt;QED -->
<g id="edge23" class="edge"><title>n16138&#45;&gt;QED</title>
<path fill="none" stroke="black" d="M673.127,-326C713.461,-326 787.043,-326 832.202,-326"/>
<polygon fill="black" stroke="black" points="832.483,-329.5 842.483,-326 832.483,-322.5 832.483,-329.5"/>
<text text-anchor="middle" x="757.689" y="-329.8" font-family="Times New Roman,serif" font-size="14.00">|&#45; ( ch &#45;&gt; ( ps &lt;&#45;&gt; ph ) )</text>
</g>
<!-- n16124&#45;&gt;n16138 -->
<g id="edge2" class="edge"><title>n16124&#45;&gt;n16138</title>
<path fill="none" stroke="lightgray" d="M452.731,-358.61C490.464,-352.124 561.341,-339.941 604.967,-332.442"/>
<polygon fill="lightgray" stroke="lightgray" points="605.641,-335.877 614.903,-330.734 604.455,-328.978 605.641,-335.877"/>
<text text-anchor="middle" x="533.694" y="-358.8" font-family="Times New Roman,serif" font-size="14.00" fill="lightgray">wff ch</text>
</g>
<!-- n16125 -->
<g id="node4" class="node"><title>n16125</title>
<ellipse fill="none" stroke="lightgray" cx="426.194" cy="-291" rx="27" ry="18"/>
<text text-anchor="middle" x="426.194" y="-287.3" font-family="Times New Roman,serif" font-size="14.00" fill="lightgray">wps</text>
</g>
<!-- n16124&#45;&gt;n16125 -->
<g id="edge25" class="edge"><title>n16124&#45;&gt;n16125</title>
</g>
<!-- n16125&#45;&gt;n16138 -->
<g id="edge3" class="edge"><title>n16125&#45;&gt;n16138</title>
<path fill="none" stroke="lightgray" d="M452.727,-294.607C485.864,-299.362 545.453,-308.163 596.194,-317 599.065,-317.5 602.032,-318.035 605.014,-318.586"/>
<polygon fill="lightgray" stroke="lightgray" points="604.609,-322.071 615.085,-320.491 605.91,-315.193 604.609,-322.071"/>
<text text-anchor="middle" x="533.694" y="-320.8" font-family="Times New Roman,serif" font-size="14.00" fill="lightgray">wff ps</text>
</g>
<!-- n16137 -->
<g id="node6" class="node"><title>n16137</title>
<ellipse fill="cyan" stroke="black" cx="426.194" cy="-219" rx="27" ry="18"/>
<text text-anchor="middle" x="426.194" y="-215.3" font-family="Times New Roman,serif" font-size="14.00">bitri</text>
</g>
<!-- n16125&#45;&gt;n16137 -->
<g id="edge26" class="edge"><title>n16125&#45;&gt;n16137</title>
</g>
<!-- n16126 -->
<g id="node5" class="node"><title>n16126</title>
<ellipse fill="none" stroke="lightgray" cx="162.097" cy="-363" rx="27" ry="18"/>
<text text-anchor="middle" x="162.097" y="-359.3" font-family="Times New Roman,serif" font-size="14.00" fill="lightgray">wph</text>
</g>
<!-- n16126&#45;&gt;n16137 -->
<g id="edge4" class="edge"><title>n16126&#45;&gt;n16137</title>
<path fill="none" stroke="lightgray" d="M189.335,-361.829C233.675,-358.555 324.159,-346.131 381.194,-299 394.678,-287.857 390.816,-279.355 399.194,-264 402.678,-257.614 406.546,-250.787 410.212,-244.43"/>
<polygon fill="lightgray" stroke="lightgray" points="413.368,-245.964 415.367,-235.559 407.316,-242.446 413.368,-245.964"/>
<text text-anchor="middle" x="298.194" y="-362.8" font-family="Times New Roman,serif" font-size="14.00" fill="lightgray">wff ph</text>
</g>
<!-- n16129 -->
<g id="node8" class="node"><title>n16129</title>
<ellipse fill="none" stroke="lightgray" cx="162.097" cy="-291" rx="27" ry="18"/>
<text text-anchor="middle" x="162.097" y="-287.3" font-family="Times New Roman,serif" font-size="14.00" fill="lightgray">wa</text>
</g>
<!-- n16126&#45;&gt;n16129 -->
<g id="edge19" class="edge"><title>n16126&#45;&gt;n16129</title>
</g>
<!-- n16137&#45;&gt;n16138 -->
<g id="edge18" class="edge"><title>n16137&#45;&gt;n16138</title>
<path fill="none" stroke="black" d="M452.312,-223.909C486.822,-231.477 549.882,-248.32 596.194,-278 606.338,-284.502 615.882,-293.655 623.634,-302.228"/>
<polygon fill="black" stroke="black" points="621.03,-304.567 630.217,-309.845 626.326,-299.99 621.03,-304.567"/>
<text text-anchor="middle" x="533.694" y="-281.8" font-family="Times New Roman,serif" font-size="14.00">|&#45; ( ph &lt;&#45;&gt; ( ch / ps ) )</text>
</g>
<!-- n16127 -->
<g id="node7" class="node"><title>n16127</title>
<ellipse fill="none" stroke="lightgray" cx="27" cy="-350" rx="27" ry="18"/>
<text text-anchor="middle" x="27" y="-346.3" font-family="Times New Roman,serif" font-size="14.00" fill="lightgray">wps</text>
</g>
<!-- n16127&#45;&gt;n16129 -->
<g id="edge5" class="edge"><title>n16127&#45;&gt;n16129</title>
<path fill="none" stroke="lightgray" d="M49.9782,-340.257C71.749,-330.607 105.298,-315.735 129.838,-304.857"/>
<polygon fill="lightgray" stroke="lightgray" points="131.362,-308.009 139.086,-300.757 128.526,-301.61 131.362,-308.009"/>
<text text-anchor="middle" x="90.5" y="-332.8" font-family="Times New Roman,serif" font-size="14.00" fill="lightgray">wff ps</text>
</g>
<!-- n16128 -->
<g id="node9" class="node"><title>n16128</title>
<ellipse fill="none" stroke="lightgray" cx="27" cy="-278" rx="27" ry="18"/>
<text text-anchor="middle" x="27" y="-274.3" font-family="Times New Roman,serif" font-size="14.00" fill="lightgray">wch</text>
</g>
<!-- n16127&#45;&gt;n16128 -->
<g id="edge8" class="edge"><title>n16127&#45;&gt;n16128</title>
</g>
<!-- n16129&#45;&gt;n16137 -->
<g id="edge7" class="edge"><title>n16129&#45;&gt;n16137</title>
<path fill="none" stroke="lightgray" d="M188.345,-286.311C229.379,-278.371 312.835,-260.882 381.194,-238 385.482,-236.565 389.932,-234.883 394.282,-233.123"/>
<polygon fill="lightgray" stroke="lightgray" points="395.693,-236.327 403.545,-229.214 392.971,-229.878 395.693,-236.327"/>
<text text-anchor="middle" x="298.194" y="-283.8" font-family="Times New Roman,serif" font-size="14.00" fill="lightgray">wff ( ps / ch )</text>
</g>
<!-- n16132 -->
<g id="node11" class="node"><title>n16132</title>
<ellipse fill="none" stroke="lightgray" cx="162.097" cy="-219" rx="27" ry="18"/>
<text text-anchor="middle" x="162.097" y="-215.3" font-family="Times New Roman,serif" font-size="14.00" fill="lightgray">wa</text>
</g>
<!-- n16129&#45;&gt;n16132 -->
<g id="edge20" class="edge"><title>n16129&#45;&gt;n16132</title>
</g>
<!-- n16128&#45;&gt;n16129 -->
<g id="edge6" class="edge"><title>n16128&#45;&gt;n16129</title>
<path fill="none" stroke="lightgray" d="M53.9784,-280.537C74.2241,-282.515 102.571,-285.284 125.018,-287.476"/>
<polygon fill="lightgray" stroke="lightgray" points="124.891,-290.98 135.184,-288.469 125.572,-284.013 124.891,-290.98"/>
<text text-anchor="middle" x="90.5" y="-288.8" font-family="Times New Roman,serif" font-size="14.00" fill="lightgray">wff ch</text>
</g>
<!-- n16130 -->
<g id="node10" class="node"><title>n16130</title>
<ellipse fill="none" stroke="lightgray" cx="27" cy="-223" rx="27" ry="18"/>
<text text-anchor="middle" x="27" y="-219.3" font-family="Times New Roman,serif" font-size="14.00" fill="lightgray">wch</text>
</g>
<!-- n16130&#45;&gt;n16132 -->
<g id="edge9" class="edge"><title>n16130&#45;&gt;n16132</title>
<path fill="none" stroke="lightgray" d="M53.9784,-222.219C74.0934,-221.615 102.205,-220.77 124.583,-220.097"/>
<polygon fill="lightgray" stroke="lightgray" points="124.839,-223.591 134.729,-219.792 124.628,-216.595 124.839,-223.591"/>
<text text-anchor="middle" x="90.5" y="-224.8" font-family="Times New Roman,serif" font-size="14.00" fill="lightgray">wff ch</text>
</g>
<!-- n16131 -->
<g id="node12" class="node"><title>n16131</title>
<ellipse fill="none" stroke="lightgray" cx="27" cy="-151" rx="27" ry="18"/>
<text text-anchor="middle" x="27" y="-147.3" font-family="Times New Roman,serif" font-size="14.00" fill="lightgray">wps</text>
</g>
<!-- n16130&#45;&gt;n16131 -->
<g id="edge12" class="edge"><title>n16130&#45;&gt;n16131</title>
</g>
<!-- n16132&#45;&gt;n16137 -->
<g id="edge11" class="edge"><title>n16132&#45;&gt;n16137</title>
<path fill="none" stroke="lightgray" d="M189.186,-219C236.163,-219 335.072,-219 388.723,-219"/>
<polygon fill="lightgray" stroke="lightgray" points="388.821,-222.5 398.821,-219 388.821,-215.5 388.821,-222.5"/>
<text text-anchor="middle" x="298.194" y="-222.8" font-family="Times New Roman,serif" font-size="14.00" fill="lightgray">wff ( ch / ps )</text>
</g>
<!-- n16133 -->
<g id="node13" class="node"><title>n16133</title>
<ellipse fill="orange" stroke="black" cx="162.097" cy="-147" rx="33.2948" ry="18"/>
<text text-anchor="middle" x="162.097" y="-143.3" font-family="Times New Roman,serif" font-size="14.00">baib.1</text>
</g>
<!-- n16132&#45;&gt;n16133 -->
<g id="edge21" class="edge"><title>n16132&#45;&gt;n16133</title>
</g>
<!-- n16131&#45;&gt;n16132 -->
<g id="edge10" class="edge"><title>n16131&#45;&gt;n16132</title>
<path fill="none" stroke="lightgray" d="M48.7964,-161.625C70.8386,-172.887 105.86,-190.779 130.933,-203.589"/>
<polygon fill="lightgray" stroke="lightgray" points="129.51,-206.792 140.007,-208.225 132.695,-200.559 129.51,-206.792"/>
<text text-anchor="middle" x="90.5" y="-195.8" font-family="Times New Roman,serif" font-size="14.00" fill="lightgray">wff ps</text>
</g>
<!-- n16133&#45;&gt;n16137 -->
<g id="edge13" class="edge"><title>n16133&#45;&gt;n16137</title>
<path fill="none" stroke="black" d="M193.541,-152.701C236.121,-161.056 315.606,-178.046 381.194,-200 385.482,-201.435 389.932,-203.117 394.282,-204.877"/>
<polygon fill="black" stroke="black" points="392.971,-208.122 403.545,-208.786 395.693,-201.673 392.971,-208.122"/>
<text text-anchor="middle" x="298.194" y="-203.8" font-family="Times New Roman,serif" font-size="14.00">|&#45; ( ph &lt;&#45;&gt; ( ps / ch ) )</text>
</g>
<!-- n16136 -->
<g id="node15" class="node"><title>n16136</title>
<ellipse fill="cyan" stroke="black" cx="162.097" cy="-75" rx="35.194" ry="18"/>
<text text-anchor="middle" x="162.097" y="-71.3" font-family="Times New Roman,serif" font-size="14.00">ancom</text>
</g>
<!-- n16133&#45;&gt;n16136 -->
<g id="edge22" class="edge"><title>n16133&#45;&gt;n16136</title>
</g>
<!-- n16134 -->
<g id="node14" class="node"><title>n16134</title>
<ellipse fill="none" stroke="lightgray" cx="27" cy="-90" rx="27" ry="18"/>
<text text-anchor="middle" x="27" y="-86.3" font-family="Times New Roman,serif" font-size="14.00" fill="lightgray">wps</text>
</g>
<!-- n16134&#45;&gt;n16136 -->
<g id="edge14" class="edge"><title>n16134&#45;&gt;n16136</title>
<path fill="none" stroke="lightgray" d="M53.6624,-87.1078C71.7094,-85.074 96.3059,-82.3019 117.411,-79.9234"/>
<polygon fill="lightgray" stroke="lightgray" points="117.901,-83.3904 127.446,-78.7924 117.117,-76.4344 117.901,-83.3904"/>
<text text-anchor="middle" x="90.5" y="-88.8" font-family="Times New Roman,serif" font-size="14.00" fill="lightgray">wff ps</text>
</g>
<!-- n16135 -->
<g id="node16" class="node"><title>n16135</title>
<ellipse fill="none" stroke="lightgray" cx="27" cy="-18" rx="27" ry="18"/>
<text text-anchor="middle" x="27" y="-14.3" font-family="Times New Roman,serif" font-size="14.00" fill="lightgray">wch</text>
</g>
<!-- n16134&#45;&gt;n16135 -->
<g id="edge17" class="edge"><title>n16134&#45;&gt;n16135</title>
</g>
<!-- n16136&#45;&gt;n16137 -->
<g id="edge16" class="edge"><title>n16136&#45;&gt;n16137</title>
<path fill="none" stroke="black" d="M197.029,-77.0269C243.325,-81.4104 326.739,-95.2615 381.194,-139 398.033,-152.525 409.412,-174.316 416.372,-191.743"/>
<polygon fill="black" stroke="black" points="413.199,-193.252 419.968,-201.403 419.76,-190.81 413.199,-193.252"/>
<text text-anchor="middle" x="298.194" y="-142.8" font-family="Times New Roman,serif" font-size="14.00">|&#45; ( ( ps / ch ) &lt;&#45;&gt; ( ch / ps ) )</text>
</g>
<!-- n16135&#45;&gt;n16136 -->
<g id="edge15" class="edge"><title>n16135&#45;&gt;n16136</title>
<path fill="none" stroke="lightgray" d="M50.2774,-27.5405C70.7005,-36.2869 101.304,-49.3932 125.18,-59.6181"/>
<polygon fill="lightgray" stroke="lightgray" points="124.051,-62.942 134.621,-63.6614 126.806,-56.5072 124.051,-62.942"/>
<text text-anchor="middle" x="90.5" y="-55.8" font-family="Times New Roman,serif" font-size="14.00" fill="lightgray">wff ch</text>
</g>
</g>
</svg>
