<?xml version="1.0" encoding="UTF-8" standalone="no"?>
<!DOCTYPE svg PUBLIC "-//W3C//DTD SVG 1.1//EN"
 "http://www.w3.org/Graphics/SVG/1.1/DTD/svg11.dtd">
<!-- Generated by graphviz version 2.38.0 (20140413.2041)
 -->
<!-- Title: proof_simplbi2 Pages: 1 -->
<svg width="916pt" height="332pt"
 viewBox="0.00 0.00 916.08 332.00" xmlns="http://www.w3.org/2000/svg" xmlns:xlink="http://www.w3.org/1999/xlink">
<g id="graph0" class="graph" transform="scale(1 1) rotate(0) translate(4 328)">
<title>proof_simplbi2</title>
<polygon fill="white" stroke="none" points="-4,4 -4,-328 912.078,-328 912.078,4 -4,4"/>
<!-- n10705 -->
<g id="node1" class="node"><title>n10705</title>
<ellipse fill="none" stroke="lightgray" cx="440.187" cy="-306" rx="27" ry="18"/>
<text text-anchor="middle" x="440.187" y="-302.3" font-family="Times New Roman,serif" font-size="14.00" fill="lightgray">wps</text>
</g>
<!-- n10714 -->
<g id="node2" class="node"><title>n10714</title>
<ellipse fill="cyan" stroke="black" cx="660.584" cy="-197" rx="27" ry="18"/>
<text text-anchor="middle" x="660.584" y="-193.3" font-family="Times New Roman,serif" font-size="14.00">ex</text>
</g>
<!-- n10705&#45;&gt;n10714 -->
<g id="edge1" class="edge"><title>n10705&#45;&gt;n10714</title>
<path fill="none" stroke="lightgray" d="M466.219,-300.795C501.639,-292.613 567.428,-274.353 615.584,-243 624.891,-236.94 633.672,-228.549 640.905,-220.59"/>
<polygon fill="lightgray" stroke="lightgray" points="643.683,-222.729 647.585,-212.879 638.392,-218.146 643.683,-222.729"/>
<text text-anchor="middle" x="555.084" y="-295.8" font-family="Times New Roman,serif" font-size="14.00" fill="lightgray">wff ps</text>
</g>
<!-- n10706 -->
<g id="node3" class="node"><title>n10706</title>
<ellipse fill="none" stroke="lightgray" cx="440.187" cy="-234" rx="27" ry="18"/>
<text text-anchor="middle" x="440.187" y="-230.3" font-family="Times New Roman,serif" font-size="14.00" fill="lightgray">wch</text>
</g>
<!-- n10705&#45;&gt;n10706 -->
<g id="edge14" class="edge"><title>n10705&#45;&gt;n10706</title>
</g>
<!-- QED -->
<g id="node11" class="node"><title>QED</title>
</g>
<!-- n10714&#45;&gt;QED -->
<g id="edge13" class="edge"><title>n10714&#45;&gt;QED</title>
<path fill="none" stroke="black" d="M687.668,-197C725.339,-197 795.242,-197 838.994,-197"/>
<polygon fill="black" stroke="black" points="839.25,-200.5 849.25,-197 839.25,-193.5 839.25,-200.5"/>
<text text-anchor="middle" x="768.584" y="-200.8" font-family="Times New Roman,serif" font-size="14.00">|&#45; ( ps &#45;&gt; ( ch &#45;&gt; ph ) )</text>
</g>
<!-- n10706&#45;&gt;n10714 -->
<g id="edge2" class="edge"><title>n10706&#45;&gt;n10714</title>
<path fill="none" stroke="lightgray" d="M466.667,-229.683C505.627,-223.083 580.118,-210.463 624.266,-202.983"/>
<polygon fill="lightgray" stroke="lightgray" points="624.991,-206.411 634.266,-201.289 623.821,-199.509 624.991,-206.411"/>
<text text-anchor="middle" x="555.084" y="-227.8" font-family="Times New Roman,serif" font-size="14.00" fill="lightgray">wff ch</text>
</g>
<!-- n10707 -->
<g id="node4" class="node"><title>n10707</title>
<ellipse fill="none" stroke="lightgray" cx="440.187" cy="-162" rx="27" ry="18"/>
<text text-anchor="middle" x="440.187" y="-158.3" font-family="Times New Roman,serif" font-size="14.00" fill="lightgray">wph</text>
</g>
<!-- n10706&#45;&gt;n10707 -->
<g id="edge15" class="edge"><title>n10706&#45;&gt;n10707</title>
</g>
<!-- n10707&#45;&gt;n10714 -->
<g id="edge3" class="edge"><title>n10707&#45;&gt;n10714</title>
<path fill="none" stroke="lightgray" d="M466.965,-165.402C501.06,-170.002 562.981,-178.706 615.584,-188 618.463,-188.509 621.443,-189.062 624.432,-189.635"/>
<polygon fill="lightgray" stroke="lightgray" points="624.009,-193.119 634.499,-191.626 625.368,-186.252 624.009,-193.119"/>
<text text-anchor="middle" x="555.084" y="-191.8" font-family="Times New Roman,serif" font-size="14.00" fill="lightgray">wff ph</text>
</g>
<!-- n10713 -->
<g id="node6" class="node"><title>n10713</title>
<ellipse fill="cyan" stroke="black" cx="440.187" cy="-90" rx="36.2938" ry="18"/>
<text text-anchor="middle" x="440.187" y="-86.3" font-family="Times New Roman,serif" font-size="14.00">biimpri</text>
</g>
<!-- n10707&#45;&gt;n10713 -->
<g id="edge16" class="edge"><title>n10707&#45;&gt;n10713</title>
</g>
<!-- n10708 -->
<g id="node5" class="node"><title>n10708</title>
<ellipse fill="none" stroke="lightgray" cx="182.895" cy="-162" rx="27" ry="18"/>
<text text-anchor="middle" x="182.895" y="-158.3" font-family="Times New Roman,serif" font-size="14.00" fill="lightgray">wph</text>
</g>
<!-- n10708&#45;&gt;n10713 -->
<g id="edge4" class="edge"><title>n10708&#45;&gt;n10713</title>
<path fill="none" stroke="lightgray" d="M208.638,-156.224C246.896,-147.132 322.594,-128.5 385.79,-109 390.717,-107.48 395.865,-105.786 400.936,-104.052"/>
<polygon fill="lightgray" stroke="lightgray" points="402.229,-107.308 410.517,-100.707 399.922,-100.7 402.229,-107.308"/>
<text text-anchor="middle" x="321.29" y="-147.8" font-family="Times New Roman,serif" font-size="14.00" fill="lightgray">wff ph</text>
</g>
<!-- n10711 -->
<g id="node8" class="node"><title>n10711</title>
<ellipse fill="none" stroke="lightgray" cx="182.895" cy="-90" rx="27" ry="18"/>
<text text-anchor="middle" x="182.895" y="-86.3" font-family="Times New Roman,serif" font-size="14.00" fill="lightgray">wa</text>
</g>
<!-- n10708&#45;&gt;n10711 -->
<g id="edge11" class="edge"><title>n10708&#45;&gt;n10711</title>
</g>
<!-- n10713&#45;&gt;n10714 -->
<g id="edge10" class="edge"><title>n10713&#45;&gt;n10714</title>
<path fill="none" stroke="black" d="M474.488,-96.3913C511.251,-104.552 571.109,-121.188 615.584,-150 625.011,-156.108 633.818,-164.663 641.038,-172.804"/>
<polygon fill="black" stroke="black" points="638.573,-175.309 647.694,-180.7 643.925,-170.798 638.573,-175.309"/>
<text text-anchor="middle" x="555.084" y="-153.8" font-family="Times New Roman,serif" font-size="14.00">|&#45; ( ( ps /\ ch ) &#45;&gt; ph )</text>
</g>
<!-- n10709 -->
<g id="node7" class="node"><title>n10709</title>
<ellipse fill="none" stroke="lightgray" cx="27" cy="-135" rx="27" ry="18"/>
<text text-anchor="middle" x="27" y="-131.3" font-family="Times New Roman,serif" font-size="14.00" fill="lightgray">wps</text>
</g>
<!-- n10709&#45;&gt;n10711 -->
<g id="edge5" class="edge"><title>n10709&#45;&gt;n10711</title>
<path fill="none" stroke="lightgray" d="M52.0461,-127.969C77.8329,-120.429 118.983,-108.396 148.037,-99.9003"/>
<polygon fill="lightgray" stroke="lightgray" points="149.149,-103.222 157.764,-97.056 147.184,-96.5033 149.149,-103.222"/>
<text text-anchor="middle" x="90.5" y="-125.8" font-family="Times New Roman,serif" font-size="14.00" fill="lightgray">wff ps</text>
</g>
<!-- n10710 -->
<g id="node9" class="node"><title>n10710</title>
<ellipse fill="none" stroke="lightgray" cx="27" cy="-63" rx="27" ry="18"/>
<text text-anchor="middle" x="27" y="-59.3" font-family="Times New Roman,serif" font-size="14.00" fill="lightgray">wch</text>
</g>
<!-- n10709&#45;&gt;n10710 -->
<g id="edge8" class="edge"><title>n10709&#45;&gt;n10710</title>
</g>
<!-- n10711&#45;&gt;n10713 -->
<g id="edge7" class="edge"><title>n10711&#45;&gt;n10713</title>
<path fill="none" stroke="lightgray" d="M210.254,-90C253.489,-90 339.992,-90 393.407,-90"/>
<polygon fill="lightgray" stroke="lightgray" points="393.627,-93.5001 403.627,-90 393.627,-86.5001 393.627,-93.5001"/>
<text text-anchor="middle" x="321.29" y="-93.8" font-family="Times New Roman,serif" font-size="14.00" fill="lightgray">wff ( ps /\ ch )</text>
</g>
<!-- n10712 -->
<g id="node10" class="node"><title>n10712</title>
<ellipse fill="orange" stroke="black" cx="182.895" cy="-18" rx="55.7903" ry="18"/>
<text text-anchor="middle" x="182.895" y="-14.3" font-family="Times New Roman,serif" font-size="14.00">pm3.26bi2.1</text>
</g>
<!-- n10711&#45;&gt;n10712 -->
<g id="edge12" class="edge"><title>n10711&#45;&gt;n10712</title>
</g>
<!-- n10710&#45;&gt;n10711 -->
<g id="edge6" class="edge"><title>n10710&#45;&gt;n10711</title>
<path fill="none" stroke="lightgray" d="M53.4126,-67.4585C78.8842,-71.9273 118.299,-78.8425 146.758,-83.8353"/>
<polygon fill="lightgray" stroke="lightgray" points="146.246,-87.299 156.7,-85.5798 147.456,-80.4043 146.246,-87.299"/>
<text text-anchor="middle" x="90.5" y="-80.8" font-family="Times New Roman,serif" font-size="14.00" fill="lightgray">wff ch</text>
</g>
<!-- n10712&#45;&gt;n10713 -->
<g id="edge9" class="edge"><title>n10712&#45;&gt;n10713</title>
<path fill="none" stroke="black" d="M228.312,-28.5061C269.425,-38.5028 332.117,-54.4388 385.79,-71 390.717,-72.5204 395.865,-74.2145 400.936,-75.9475"/>
<polygon fill="black" stroke="black" points="399.922,-79.3004 410.517,-79.2927 402.229,-72.6917 399.922,-79.3004"/>
<text text-anchor="middle" x="321.29" y="-74.8" font-family="Times New Roman,serif" font-size="14.00">|&#45; ( ph &lt;&#45;&gt; ( ps /\ ch ) )</text>
</g>
</g>
</svg>
