<?xml version="1.0" encoding="UTF-8" standalone="no"?>
<!DOCTYPE svg PUBLIC "-//W3C//DTD SVG 1.1//EN"
 "http://www.w3.org/Graphics/SVG/1.1/DTD/svg11.dtd">
<!-- Generated by graphviz version 2.38.0 (20140413.2041)
 -->
<!-- Title: proof_simprl1 Pages: 1 -->
<svg width="991pt" height="467pt"
 viewBox="0.00 0.00 991.38 467.00" xmlns="http://www.w3.org/2000/svg" xmlns:xlink="http://www.w3.org/1999/xlink">
<g id="graph0" class="graph" transform="scale(1 1) rotate(0) translate(4 463)">
<title>proof_simprl1</title>
<polygon fill="white" stroke="none" points="-4,4 -4,-463 987.383,-463 987.383,4 -4,4"/>
<!-- n19786 -->
<g id="node1" class="node"><title>n19786</title>
<ellipse fill="none" stroke="lightgray" cx="27" cy="-441" rx="27" ry="18"/>
<text text-anchor="middle" x="27" y="-437.3" font-family="Times New Roman,serif" font-size="14.00" fill="lightgray">wph</text>
</g>
<!-- n19789 -->
<g id="node2" class="node"><title>n19789</title>
<ellipse fill="none" stroke="lightgray" cx="154" cy="-369" rx="27" ry="18"/>
<text text-anchor="middle" x="154" y="-365.3" font-family="Times New Roman,serif" font-size="14.00" fill="lightgray">w3a</text>
</g>
<!-- n19786&#45;&gt;n19789 -->
<g id="edge1" class="edge"><title>n19786&#45;&gt;n19789</title>
<path fill="none" stroke="lightgray" d="M48.0834,-429.432C68.6762,-417.571 100.901,-399.009 124.206,-385.586"/>
<polygon fill="lightgray" stroke="lightgray" points="126.048,-388.563 132.966,-380.539 122.554,-382.498 126.048,-388.563"/>
<text text-anchor="middle" x="90.5" y="-418.8" font-family="Times New Roman,serif" font-size="14.00" fill="lightgray">wff ph</text>
</g>
<!-- n19787 -->
<g id="node3" class="node"><title>n19787</title>
<ellipse fill="none" stroke="lightgray" cx="27" cy="-369" rx="27" ry="18"/>
<text text-anchor="middle" x="27" y="-365.3" font-family="Times New Roman,serif" font-size="14.00" fill="lightgray">wps</text>
</g>
<!-- n19786&#45;&gt;n19787 -->
<g id="edge5" class="edge"><title>n19786&#45;&gt;n19787</title>
</g>
<!-- n19791 -->
<g id="node5" class="node"><title>n19791</title>
<ellipse fill="none" stroke="lightgray" cx="354.447" cy="-339" rx="27" ry="18"/>
<text text-anchor="middle" x="354.447" y="-335.3" font-family="Times New Roman,serif" font-size="14.00" fill="lightgray">wa</text>
</g>
<!-- n19789&#45;&gt;n19791 -->
<g id="edge4" class="edge"><title>n19789&#45;&gt;n19791</title>
<path fill="none" stroke="lightgray" d="M180.537,-365.139C215.516,-359.852 278.483,-350.333 318.01,-344.357"/>
<polygon fill="lightgray" stroke="lightgray" points="318.643,-347.801 328.008,-342.846 317.597,-340.88 318.643,-347.801"/>
<text text-anchor="middle" x="250.5" y="-364.8" font-family="Times New Roman,serif" font-size="14.00" fill="lightgray">wff ( ph / ps / ch )</text>
</g>
<!-- n19790 -->
<g id="node6" class="node"><title>n19790</title>
<ellipse fill="none" stroke="lightgray" cx="154" cy="-297" rx="27" ry="18"/>
<text text-anchor="middle" x="154" y="-293.3" font-family="Times New Roman,serif" font-size="14.00" fill="lightgray">wth</text>
</g>
<!-- n19789&#45;&gt;n19790 -->
<g id="edge9" class="edge"><title>n19789&#45;&gt;n19790</title>
</g>
<!-- n19787&#45;&gt;n19789 -->
<g id="edge2" class="edge"><title>n19787&#45;&gt;n19789</title>
<path fill="none" stroke="lightgray" d="M54.2041,-369C72.3711,-369 96.7994,-369 116.82,-369"/>
<polygon fill="lightgray" stroke="lightgray" points="116.83,-372.5 126.83,-369 116.83,-365.5 116.83,-372.5"/>
<text text-anchor="middle" x="90.5" y="-372.8" font-family="Times New Roman,serif" font-size="14.00" fill="lightgray">wff ps</text>
</g>
<!-- n19788 -->
<g id="node4" class="node"><title>n19788</title>
<ellipse fill="none" stroke="lightgray" cx="27" cy="-297" rx="27" ry="18"/>
<text text-anchor="middle" x="27" y="-293.3" font-family="Times New Roman,serif" font-size="14.00" fill="lightgray">wch</text>
</g>
<!-- n19787&#45;&gt;n19788 -->
<g id="edge6" class="edge"><title>n19787&#45;&gt;n19788</title>
</g>
<!-- n19788&#45;&gt;n19789 -->
<g id="edge3" class="edge"><title>n19788&#45;&gt;n19789</title>
<path fill="none" stroke="lightgray" d="M48.0834,-308.568C68.6762,-320.429 100.901,-338.991 124.206,-352.414"/>
<polygon fill="lightgray" stroke="lightgray" points="122.554,-355.502 132.966,-357.461 126.048,-349.437 122.554,-355.502"/>
<text text-anchor="middle" x="90.5" y="-346.8" font-family="Times New Roman,serif" font-size="14.00" fill="lightgray">wff ch</text>
</g>
<!-- n19799 -->
<g id="node7" class="node"><title>n19799</title>
<ellipse fill="cyan" stroke="black" cx="638.391" cy="-230" rx="32.4942" ry="18"/>
<text text-anchor="middle" x="638.391" y="-226.3" font-family="Times New Roman,serif" font-size="14.00">adantl</text>
</g>
<!-- n19791&#45;&gt;n19799 -->
<g id="edge8" class="edge"><title>n19791&#45;&gt;n19799</title>
<path fill="none" stroke="lightgray" d="M381.473,-336.528C426.235,-331.361 519.567,-316.52 587.894,-278 598.862,-271.817 609.174,-262.611 617.516,-253.91"/>
<polygon fill="lightgray" stroke="lightgray" points="620.142,-256.225 624.308,-246.483 614.976,-251.501 620.142,-256.225"/>
<text text-anchor="middle" x="497.394" y="-335.8" font-family="Times New Roman,serif" font-size="14.00" fill="lightgray">wff ( ( ph / ps / ch ) / th )</text>
</g>
<!-- n19792 -->
<g id="node8" class="node"><title>n19792</title>
<ellipse fill="none" stroke="lightgray" cx="354.447" cy="-267" rx="27" ry="18"/>
<text text-anchor="middle" x="354.447" y="-263.3" font-family="Times New Roman,serif" font-size="14.00" fill="lightgray">wph</text>
</g>
<!-- n19791&#45;&gt;n19792 -->
<g id="edge21" class="edge"><title>n19791&#45;&gt;n19792</title>
</g>
<!-- n19790&#45;&gt;n19791 -->
<g id="edge7" class="edge"><title>n19790&#45;&gt;n19791</title>
<path fill="none" stroke="lightgray" d="M179.974,-302.244C209.225,-308.392 259.138,-318.898 302,-328 307.416,-329.15 313.153,-330.373 318.754,-331.568"/>
<polygon fill="lightgray" stroke="lightgray" points="318.08,-335.003 328.591,-333.671 319.543,-328.158 318.08,-335.003"/>
<text text-anchor="middle" x="250.5" y="-331.8" font-family="Times New Roman,serif" font-size="14.00" fill="lightgray">wff th</text>
</g>
<!-- QED -->
<g id="node15" class="node"><title>QED</title>
</g>
<!-- n19799&#45;&gt;QED -->
<g id="edge20" class="edge"><title>n19799&#45;&gt;QED</title>
<path fill="none" stroke="black" d="M670.911,-230C728.787,-230 851.807,-230 914.567,-230"/>
<polygon fill="black" stroke="black" points="914.829,-233.5 924.829,-230 914.829,-226.5 914.829,-233.5"/>
<text text-anchor="middle" x="797.888" y="-233.8" font-family="Times New Roman,serif" font-size="14.00">|&#45; ( ( ta / ( ( ph / ps / ch ) / th ) ) &#45;&gt; ph )</text>
</g>
<!-- n19792&#45;&gt;n19799 -->
<g id="edge10" class="edge"><title>n19792&#45;&gt;n19799</title>
<path fill="none" stroke="lightgray" d="M381.466,-263.585C430.592,-257.139 537.346,-243.129 596.27,-235.396"/>
<polygon fill="lightgray" stroke="lightgray" points="596.884,-238.846 606.344,-234.074 595.974,-231.905 596.884,-238.846"/>
<text text-anchor="middle" x="497.394" y="-262.8" font-family="Times New Roman,serif" font-size="14.00" fill="lightgray">wff ph</text>
</g>
<!-- n19793 -->
<g id="node9" class="node"><title>n19793</title>
<ellipse fill="none" stroke="lightgray" cx="354.447" cy="-195" rx="27" ry="18"/>
<text text-anchor="middle" x="354.447" y="-191.3" font-family="Times New Roman,serif" font-size="14.00" fill="lightgray">wta</text>
</g>
<!-- n19792&#45;&gt;n19793 -->
<g id="edge22" class="edge"><title>n19792&#45;&gt;n19793</title>
</g>
<!-- n19793&#45;&gt;n19799 -->
<g id="edge11" class="edge"><title>n19793&#45;&gt;n19799</title>
<path fill="none" stroke="lightgray" d="M381.319,-197.31C424.319,-201.281 513.164,-210.04 587.894,-221 590.95,-221.448 594.105,-221.944 597.275,-222.466"/>
<polygon fill="lightgray" stroke="lightgray" points="596.895,-225.952 607.344,-224.196 598.081,-219.053 596.895,-225.952"/>
<text text-anchor="middle" x="497.394" y="-224.8" font-family="Times New Roman,serif" font-size="14.00" fill="lightgray">wff ta</text>
</g>
<!-- n19798 -->
<g id="node11" class="node"><title>n19798</title>
<ellipse fill="cyan" stroke="black" cx="354.447" cy="-123" rx="34.394" ry="18"/>
<text text-anchor="middle" x="354.447" y="-119.3" font-family="Times New Roman,serif" font-size="14.00">simpl1</text>
</g>
<!-- n19793&#45;&gt;n19798 -->
<g id="edge23" class="edge"><title>n19793&#45;&gt;n19798</title>
</g>
<!-- n19794 -->
<g id="node10" class="node"><title>n19794</title>
<ellipse fill="none" stroke="lightgray" cx="154" cy="-234" rx="27" ry="18"/>
<text text-anchor="middle" x="154" y="-230.3" font-family="Times New Roman,serif" font-size="14.00" fill="lightgray">wph</text>
</g>
<!-- n19794&#45;&gt;n19798 -->
<g id="edge12" class="edge"><title>n19794&#45;&gt;n19798</title>
<path fill="none" stroke="lightgray" d="M178.96,-226.873C209.186,-217.234 262.037,-198.187 302,-172 312.693,-164.993 323.16,-155.629 331.831,-146.964"/>
<polygon fill="lightgray" stroke="lightgray" points="334.512,-149.227 338.95,-139.606 329.481,-144.359 334.512,-149.227"/>
<text text-anchor="middle" x="250.5" y="-224.8" font-family="Times New Roman,serif" font-size="14.00" fill="lightgray">wff ph</text>
</g>
<!-- n19795 -->
<g id="node12" class="node"><title>n19795</title>
<ellipse fill="none" stroke="lightgray" cx="154" cy="-162" rx="27" ry="18"/>
<text text-anchor="middle" x="154" y="-158.3" font-family="Times New Roman,serif" font-size="14.00" fill="lightgray">wps</text>
</g>
<!-- n19794&#45;&gt;n19795 -->
<g id="edge17" class="edge"><title>n19794&#45;&gt;n19795</title>
</g>
<!-- n19798&#45;&gt;n19799 -->
<g id="edge16" class="edge"><title>n19798&#45;&gt;n19799</title>
<path fill="none" stroke="black" d="M388.668,-125.72C435.705,-130.762 523.187,-144.598 587.894,-181 599.142,-187.328 609.615,-196.897 618.004,-205.905"/>
<polygon fill="black" stroke="black" points="615.555,-208.418 624.807,-213.58 620.793,-203.775 615.555,-208.418"/>
<text text-anchor="middle" x="497.394" y="-184.8" font-family="Times New Roman,serif" font-size="14.00">|&#45; ( ( ( ph / ps / ch ) / th ) &#45;&gt; ph )</text>
</g>
<!-- n19795&#45;&gt;n19798 -->
<g id="edge13" class="edge"><title>n19795&#45;&gt;n19798</title>
<path fill="none" stroke="lightgray" d="M180.133,-157.061C213.33,-150.537 272.232,-138.961 312.05,-131.136"/>
<polygon fill="lightgray" stroke="lightgray" points="312.848,-134.546 321.985,-129.183 311.498,-127.677 312.848,-134.546"/>
<text text-anchor="middle" x="250.5" y="-156.8" font-family="Times New Roman,serif" font-size="14.00" fill="lightgray">wff ps</text>
</g>
<!-- n19796 -->
<g id="node13" class="node"><title>n19796</title>
<ellipse fill="none" stroke="lightgray" cx="154" cy="-90" rx="27" ry="18"/>
<text text-anchor="middle" x="154" y="-86.3" font-family="Times New Roman,serif" font-size="14.00" fill="lightgray">wch</text>
</g>
<!-- n19795&#45;&gt;n19796 -->
<g id="edge18" class="edge"><title>n19795&#45;&gt;n19796</title>
</g>
<!-- n19796&#45;&gt;n19798 -->
<g id="edge14" class="edge"><title>n19796&#45;&gt;n19798</title>
<path fill="none" stroke="lightgray" d="M180.537,-94.2466C213.664,-99.7554 271.895,-109.439 311.543,-116.032"/>
<polygon fill="lightgray" stroke="lightgray" points="311.007,-119.491 321.446,-117.679 312.156,-112.585 311.007,-119.491"/>
<text text-anchor="middle" x="250.5" y="-118.8" font-family="Times New Roman,serif" font-size="14.00" fill="lightgray">wff ch</text>
</g>
<!-- n19797 -->
<g id="node14" class="node"><title>n19797</title>
<ellipse fill="none" stroke="lightgray" cx="154" cy="-18" rx="27" ry="18"/>
<text text-anchor="middle" x="154" y="-14.3" font-family="Times New Roman,serif" font-size="14.00" fill="lightgray">wth</text>
</g>
<!-- n19796&#45;&gt;n19797 -->
<g id="edge19" class="edge"><title>n19796&#45;&gt;n19797</title>
</g>
<!-- n19797&#45;&gt;n19798 -->
<g id="edge15" class="edge"><title>n19797&#45;&gt;n19798</title>
<path fill="none" stroke="lightgray" d="M178.75,-25.2785C208.755,-35.0399 261.377,-54.0692 302,-79 311.716,-84.963 321.456,-92.7243 329.806,-100.065"/>
<polygon fill="lightgray" stroke="lightgray" points="327.582,-102.773 337.34,-106.902 332.286,-97.5895 327.582,-102.773"/>
<text text-anchor="middle" x="250.5" y="-82.8" font-family="Times New Roman,serif" font-size="14.00" fill="lightgray">wff th</text>
</g>
</g>
</svg>
