<?xml version="1.0" encoding="UTF-8" standalone="no"?>
<!DOCTYPE svg PUBLIC "-//W3C//DTD SVG 1.1//EN"
 "http://www.w3.org/Graphics/SVG/1.1/DTD/svg11.dtd">
<!-- Generated by graphviz version 2.38.0 (20140413.2041)
 -->
<!-- Title: proof_simp3 Pages: 1 -->
<svg width="755pt" height="404pt"
 viewBox="0.00 0.00 755.38 404.00" xmlns="http://www.w3.org/2000/svg" xmlns:xlink="http://www.w3.org/1999/xlink">
<g id="graph0" class="graph" transform="scale(1 1) rotate(0) translate(4 400)">
<title>proof_simp3</title>
<polygon fill="white" stroke="none" points="-4,4 -4,-400 751.382,-400 751.382,4 -4,4"/>
<!-- n19280 -->
<g id="node1" class="node"><title>n19280</title>
<ellipse fill="none" stroke="lightgray" cx="27" cy="-378" rx="27" ry="18"/>
<text text-anchor="middle" x="27" y="-374.3" font-family="Times New Roman,serif" font-size="14.00" fill="lightgray">wph</text>
</g>
<!-- n19283 -->
<g id="node2" class="node"><title>n19283</title>
<ellipse fill="none" stroke="lightgray" cx="164.047" cy="-306" rx="27" ry="18"/>
<text text-anchor="middle" x="164.047" y="-302.3" font-family="Times New Roman,serif" font-size="14.00" fill="lightgray">w3a</text>
</g>
<!-- n19280&#45;&gt;n19283 -->
<g id="edge1" class="edge"><title>n19280&#45;&gt;n19283</title>
<path fill="none" stroke="lightgray" d="M48.5107,-367.065C71.1172,-355.012 107.681,-335.518 133.403,-321.805"/>
<polygon fill="lightgray" stroke="lightgray" points="135.165,-324.831 142.343,-317.038 131.872,-318.654 135.165,-324.831"/>
<text text-anchor="middle" x="90.5" y="-355.8" font-family="Times New Roman,serif" font-size="14.00" fill="lightgray">wff ph</text>
</g>
<!-- n19281 -->
<g id="node3" class="node"><title>n19281</title>
<ellipse fill="none" stroke="lightgray" cx="27" cy="-306" rx="27" ry="18"/>
<text text-anchor="middle" x="27" y="-302.3" font-family="Times New Roman,serif" font-size="14.00" fill="lightgray">wps</text>
</g>
<!-- n19280&#45;&gt;n19281 -->
<g id="edge5" class="edge"><title>n19280&#45;&gt;n19281</title>
</g>
<!-- n19290 -->
<g id="node5" class="node"><title>n19290</title>
<ellipse fill="cyan" stroke="black" cx="467.49" cy="-197" rx="36.2938" ry="18"/>
<text text-anchor="middle" x="467.49" y="-193.3" font-family="Times New Roman,serif" font-size="14.00">simprd</text>
</g>
<!-- n19283&#45;&gt;n19290 -->
<g id="edge4" class="edge"><title>n19283&#45;&gt;n19290</title>
<path fill="none" stroke="lightgray" d="M191.195,-303.991C238.159,-299.475 338.814,-285.611 413.093,-246 424.889,-239.71 436.092,-230.2 445.161,-221.227"/>
<polygon fill="lightgray" stroke="lightgray" points="447.811,-223.521 452.244,-213.899 442.778,-218.657 447.811,-223.521"/>
<text text-anchor="middle" x="316.093" y="-304.8" font-family="Times New Roman,serif" font-size="14.00" fill="lightgray">wff ( ph /\ ps /\ ch )</text>
</g>
<!-- n19284 -->
<g id="node6" class="node"><title>n19284</title>
<ellipse fill="none" stroke="lightgray" cx="164.047" cy="-234" rx="27" ry="18"/>
<text text-anchor="middle" x="164.047" y="-230.3" font-family="Times New Roman,serif" font-size="14.00" fill="lightgray">wps</text>
</g>
<!-- n19283&#45;&gt;n19284 -->
<g id="edge16" class="edge"><title>n19283&#45;&gt;n19284</title>
</g>
<!-- n19281&#45;&gt;n19283 -->
<g id="edge2" class="edge"><title>n19281&#45;&gt;n19283</title>
<path fill="none" stroke="lightgray" d="M54.0384,-306C74.6431,-306 103.662,-306 126.58,-306"/>
<polygon fill="lightgray" stroke="lightgray" points="126.628,-309.5 136.627,-306 126.627,-302.5 126.628,-309.5"/>
<text text-anchor="middle" x="90.5" y="-309.8" font-family="Times New Roman,serif" font-size="14.00" fill="lightgray">wff ps</text>
</g>
<!-- n19282 -->
<g id="node4" class="node"><title>n19282</title>
<ellipse fill="none" stroke="lightgray" cx="27" cy="-234" rx="27" ry="18"/>
<text text-anchor="middle" x="27" y="-230.3" font-family="Times New Roman,serif" font-size="14.00" fill="lightgray">wch</text>
</g>
<!-- n19281&#45;&gt;n19282 -->
<g id="edge6" class="edge"><title>n19281&#45;&gt;n19282</title>
</g>
<!-- n19282&#45;&gt;n19283 -->
<g id="edge3" class="edge"><title>n19282&#45;&gt;n19283</title>
<path fill="none" stroke="lightgray" d="M48.5107,-244.935C71.1172,-256.988 107.681,-276.482 133.403,-290.195"/>
<polygon fill="lightgray" stroke="lightgray" points="131.872,-293.346 142.343,-294.962 135.165,-287.169 131.872,-293.346"/>
<text text-anchor="middle" x="90.5" y="-280.8" font-family="Times New Roman,serif" font-size="14.00" fill="lightgray">wff ch</text>
</g>
<!-- QED -->
<g id="node12" class="node"><title>QED</title>
</g>
<!-- n19290&#45;&gt;QED -->
<g id="edge15" class="edge"><title>n19290&#45;&gt;QED</title>
<path fill="none" stroke="black" d="M504.115,-197C550.306,-197 630.582,-197 678.294,-197"/>
<polygon fill="black" stroke="black" points="678.532,-200.5 688.532,-197 678.532,-193.5 678.532,-200.5"/>
<text text-anchor="middle" x="596.387" y="-200.8" font-family="Times New Roman,serif" font-size="14.00">|&#45; ( ( ph /\ ps /\ ch ) &#45;&gt; ch )</text>
</g>
<!-- n19284&#45;&gt;n19290 -->
<g id="edge7" class="edge"><title>n19284&#45;&gt;n19290</title>
<path fill="none" stroke="lightgray" d="M190.748,-230.845C241.998,-224.555 357.479,-210.38 421.544,-202.517"/>
<polygon fill="lightgray" stroke="lightgray" points="422.246,-205.957 431.745,-201.265 421.393,-199.009 422.246,-205.957"/>
<text text-anchor="middle" x="316.093" y="-230.8" font-family="Times New Roman,serif" font-size="14.00" fill="lightgray">wff ps</text>
</g>
<!-- n19285 -->
<g id="node7" class="node"><title>n19285</title>
<ellipse fill="none" stroke="lightgray" cx="164.047" cy="-162" rx="27" ry="18"/>
<text text-anchor="middle" x="164.047" y="-158.3" font-family="Times New Roman,serif" font-size="14.00" fill="lightgray">wch</text>
</g>
<!-- n19284&#45;&gt;n19285 -->
<g id="edge17" class="edge"><title>n19284&#45;&gt;n19285</title>
</g>
<!-- n19285&#45;&gt;n19290 -->
<g id="edge8" class="edge"><title>n19285&#45;&gt;n19290</title>
<path fill="none" stroke="lightgray" d="M191.181,-164.198C236.472,-168.127 332.439,-176.987 413.093,-188 416.307,-188.439 419.624,-188.923 422.959,-189.432"/>
<polygon fill="lightgray" stroke="lightgray" points="422.503,-192.903 432.928,-191.014 423.6,-185.99 422.503,-192.903"/>
<text text-anchor="middle" x="316.093" y="-191.8" font-family="Times New Roman,serif" font-size="14.00" fill="lightgray">wff ch</text>
</g>
<!-- n19289 -->
<g id="node9" class="node"><title>n19289</title>
<ellipse fill="cyan" stroke="black" cx="164.047" cy="-90" rx="37.0935" ry="18"/>
<text text-anchor="middle" x="164.047" y="-86.3" font-family="Times New Roman,serif" font-size="14.00">3simpc</text>
</g>
<!-- n19285&#45;&gt;n19289 -->
<g id="edge18" class="edge"><title>n19285&#45;&gt;n19289</title>
</g>
<!-- n19286 -->
<g id="node8" class="node"><title>n19286</title>
<ellipse fill="none" stroke="lightgray" cx="27" cy="-162" rx="27" ry="18"/>
<text text-anchor="middle" x="27" y="-158.3" font-family="Times New Roman,serif" font-size="14.00" fill="lightgray">wph</text>
</g>
<!-- n19286&#45;&gt;n19289 -->
<g id="edge9" class="edge"><title>n19286&#45;&gt;n19289</title>
<path fill="none" stroke="lightgray" d="M48.5107,-151.065C69.9343,-139.643 103.892,-121.538 129.28,-108.003"/>
<polygon fill="lightgray" stroke="lightgray" points="131.028,-111.037 138.206,-103.244 127.735,-104.86 131.028,-111.037"/>
<text text-anchor="middle" x="90.5" y="-140.8" font-family="Times New Roman,serif" font-size="14.00" fill="lightgray">wff ph</text>
</g>
<!-- n19287 -->
<g id="node10" class="node"><title>n19287</title>
<ellipse fill="none" stroke="lightgray" cx="27" cy="-90" rx="27" ry="18"/>
<text text-anchor="middle" x="27" y="-86.3" font-family="Times New Roman,serif" font-size="14.00" fill="lightgray">wps</text>
</g>
<!-- n19286&#45;&gt;n19287 -->
<g id="edge13" class="edge"><title>n19286&#45;&gt;n19287</title>
</g>
<!-- n19289&#45;&gt;n19290 -->
<g id="edge12" class="edge"><title>n19289&#45;&gt;n19290</title>
<path fill="none" stroke="black" d="M200.712,-92.6297C250.759,-97.5487 343.491,-111.224 413.093,-148 425.087,-154.337 436.449,-164.027 445.584,-173.122"/>
<polygon fill="black" stroke="black" points="443.25,-175.744 452.699,-180.536 448.3,-170.897 443.25,-175.744"/>
<text text-anchor="middle" x="316.093" y="-151.8" font-family="Times New Roman,serif" font-size="14.00">|&#45; ( ( ph /\ ps /\ ch ) &#45;&gt; ( ps /\ ch ) )</text>
</g>
<!-- n19287&#45;&gt;n19289 -->
<g id="edge10" class="edge"><title>n19287&#45;&gt;n19289</title>
<path fill="none" stroke="lightgray" d="M54.0384,-90C71.8227,-90 95.8757,-90 116.863,-90"/>
<polygon fill="lightgray" stroke="lightgray" points="116.879,-93.5001 126.879,-90 116.879,-86.5001 116.879,-93.5001"/>
<text text-anchor="middle" x="90.5" y="-93.8" font-family="Times New Roman,serif" font-size="14.00" fill="lightgray">wff ps</text>
</g>
<!-- n19288 -->
<g id="node11" class="node"><title>n19288</title>
<ellipse fill="none" stroke="lightgray" cx="27" cy="-18" rx="27" ry="18"/>
<text text-anchor="middle" x="27" y="-14.3" font-family="Times New Roman,serif" font-size="14.00" fill="lightgray">wch</text>
</g>
<!-- n19287&#45;&gt;n19288 -->
<g id="edge14" class="edge"><title>n19287&#45;&gt;n19288</title>
</g>
<!-- n19288&#45;&gt;n19289 -->
<g id="edge11" class="edge"><title>n19288&#45;&gt;n19289</title>
<path fill="none" stroke="lightgray" d="M48.5107,-28.9353C69.9343,-40.3572 103.892,-58.4619 129.28,-71.9971"/>
<polygon fill="lightgray" stroke="lightgray" points="127.735,-75.1399 138.206,-76.7561 131.028,-68.9629 127.735,-75.1399"/>
<text text-anchor="middle" x="90.5" y="-64.8" font-family="Times New Roman,serif" font-size="14.00" fill="lightgray">wff ch</text>
</g>
</g>
</svg>
