<?xml version="1.0" encoding="UTF-8" standalone="no"?>
<!DOCTYPE svg PUBLIC "-//W3C//DTD SVG 1.1//EN"
 "http://www.w3.org/Graphics/SVG/1.1/DTD/svg11.dtd">
<!-- Generated by graphviz version 2.38.0 (20140413.2041)
 -->
<!-- Title: proof_simpr1r Pages: 1 -->
<svg width="997pt" height="499pt"
 viewBox="0.00 0.00 996.98 499.00" xmlns="http://www.w3.org/2000/svg" xmlns:xlink="http://www.w3.org/1999/xlink">
<g id="graph0" class="graph" transform="scale(1 1) rotate(0) translate(4 495)">
<title>proof_simpr1r</title>
<polygon fill="white" stroke="none" points="-4,4 -4,-495 992.983,-495 992.983,4 -4,4"/>
<!-- n19968 -->
<g id="node1" class="node"><title>n19968</title>
<ellipse fill="none" stroke="lightgray" cx="27" cy="-473" rx="27" ry="18"/>
<text text-anchor="middle" x="27" y="-469.3" font-family="Times New Roman,serif" font-size="14.00" fill="lightgray">wph</text>
</g>
<!-- n19970 -->
<g id="node2" class="node"><title>n19970</title>
<ellipse fill="none" stroke="lightgray" cx="154" cy="-441" rx="27" ry="18"/>
<text text-anchor="middle" x="154" y="-437.3" font-family="Times New Roman,serif" font-size="14.00" fill="lightgray">wa</text>
</g>
<!-- n19968&#45;&gt;n19970 -->
<g id="edge1" class="edge"><title>n19968&#45;&gt;n19970</title>
<path fill="none" stroke="lightgray" d="M52.398,-466.754C71.326,-461.909 97.7933,-455.133 118.83,-449.748"/>
<polygon fill="lightgray" stroke="lightgray" points="119.844,-453.101 128.664,-447.23 118.108,-446.32 119.844,-453.101"/>
<text text-anchor="middle" x="90.5" y="-464.8" font-family="Times New Roman,serif" font-size="14.00" fill="lightgray">wff ph</text>
</g>
<!-- n19969 -->
<g id="node3" class="node"><title>n19969</title>
<ellipse fill="none" stroke="lightgray" cx="27" cy="-401" rx="27" ry="18"/>
<text text-anchor="middle" x="27" y="-397.3" font-family="Times New Roman,serif" font-size="14.00" fill="lightgray">wps</text>
</g>
<!-- n19968&#45;&gt;n19969 -->
<g id="edge4" class="edge"><title>n19968&#45;&gt;n19969</title>
</g>
<!-- n19973 -->
<g id="node4" class="node"><title>n19973</title>
<ellipse fill="none" stroke="lightgray" cx="334.747" cy="-369" rx="27" ry="18"/>
<text text-anchor="middle" x="334.747" y="-365.3" font-family="Times New Roman,serif" font-size="14.00" fill="lightgray">w3a</text>
</g>
<!-- n19970&#45;&gt;n19973 -->
<g id="edge3" class="edge"><title>n19970&#45;&gt;n19973</title>
<path fill="none" stroke="lightgray" d="M177.638,-431.881C209.066,-419.222 266.074,-396.259 301.814,-381.863"/>
<polygon fill="lightgray" stroke="lightgray" points="303.324,-385.028 311.292,-378.045 300.709,-378.535 303.324,-385.028"/>
<text text-anchor="middle" x="240" y="-424.8" font-family="Times New Roman,serif" font-size="14.00" fill="lightgray">wff ( ph /\ ps )</text>
</g>
<!-- n19971 -->
<g id="node5" class="node"><title>n19971</title>
<ellipse fill="none" stroke="lightgray" cx="154" cy="-369" rx="27" ry="18"/>
<text text-anchor="middle" x="154" y="-365.3" font-family="Times New Roman,serif" font-size="14.00" fill="lightgray">wch</text>
</g>
<!-- n19970&#45;&gt;n19971 -->
<g id="edge8" class="edge"><title>n19970&#45;&gt;n19971</title>
</g>
<!-- n19969&#45;&gt;n19970 -->
<g id="edge2" class="edge"><title>n19969&#45;&gt;n19970</title>
<path fill="none" stroke="lightgray" d="M51.8058,-408.618C71.0071,-414.762 98.2415,-423.477 119.621,-430.319"/>
<polygon fill="lightgray" stroke="lightgray" points="118.692,-433.696 129.283,-433.411 120.825,-427.029 118.692,-433.696"/>
<text text-anchor="middle" x="90.5" y="-429.8" font-family="Times New Roman,serif" font-size="14.00" fill="lightgray">wff ps</text>
</g>
<!-- n19981 -->
<g id="node7" class="node"><title>n19981</title>
<ellipse fill="cyan" stroke="black" cx="629.991" cy="-260" rx="32.4942" ry="18"/>
<text text-anchor="middle" x="629.991" y="-256.3" font-family="Times New Roman,serif" font-size="14.00">adantl</text>
</g>
<!-- n19973&#45;&gt;n19981 -->
<g id="edge7" class="edge"><title>n19973&#45;&gt;n19981</title>
<path fill="none" stroke="lightgray" d="M361.921,-366.925C408.402,-362.302 507.254,-348.184 579.494,-308 590.497,-301.879 600.815,-292.685 609.152,-283.975"/>
<polygon fill="lightgray" stroke="lightgray" points="611.785,-286.283 615.937,-276.536 606.613,-281.566 611.785,-286.283"/>
<text text-anchor="middle" x="483.994" y="-366.8" font-family="Times New Roman,serif" font-size="14.00" fill="lightgray">wff ( ( ph /\ ps ) /\ ch /\ th )</text>
</g>
<!-- n19974 -->
<g id="node8" class="node"><title>n19974</title>
<ellipse fill="none" stroke="lightgray" cx="334.747" cy="-297" rx="27" ry="18"/>
<text text-anchor="middle" x="334.747" y="-293.3" font-family="Times New Roman,serif" font-size="14.00" fill="lightgray">wps</text>
</g>
<!-- n19973&#45;&gt;n19974 -->
<g id="edge21" class="edge"><title>n19973&#45;&gt;n19974</title>
</g>
<!-- n19971&#45;&gt;n19973 -->
<g id="edge5" class="edge"><title>n19971&#45;&gt;n19973</title>
<path fill="none" stroke="lightgray" d="M181.375,-369C212.089,-369 263.002,-369 297.438,-369"/>
<polygon fill="lightgray" stroke="lightgray" points="297.555,-372.5 307.555,-369 297.555,-365.5 297.555,-372.5"/>
<text text-anchor="middle" x="240" y="-372.8" font-family="Times New Roman,serif" font-size="14.00" fill="lightgray">wff ch</text>
</g>
<!-- n19972 -->
<g id="node6" class="node"><title>n19972</title>
<ellipse fill="none" stroke="lightgray" cx="154" cy="-297" rx="27" ry="18"/>
<text text-anchor="middle" x="154" y="-293.3" font-family="Times New Roman,serif" font-size="14.00" fill="lightgray">wth</text>
</g>
<!-- n19971&#45;&gt;n19972 -->
<g id="edge9" class="edge"><title>n19971&#45;&gt;n19972</title>
</g>
<!-- n19972&#45;&gt;n19973 -->
<g id="edge6" class="edge"><title>n19972&#45;&gt;n19973</title>
<path fill="none" stroke="lightgray" d="M177.638,-306.119C209.066,-318.778 266.074,-341.741 301.814,-356.137"/>
<polygon fill="lightgray" stroke="lightgray" points="300.709,-359.465 311.292,-359.955 303.324,-352.972 300.709,-359.465"/>
<text text-anchor="middle" x="240" y="-350.8" font-family="Times New Roman,serif" font-size="14.00" fill="lightgray">wff th</text>
</g>
<!-- QED -->
<g id="node15" class="node"><title>QED</title>
</g>
<!-- n19981&#45;&gt;QED -->
<g id="edge20" class="edge"><title>n19981&#45;&gt;QED</title>
<path fill="none" stroke="black" d="M662.714,-260C723.128,-260 854.495,-260 919.992,-260"/>
<polygon fill="black" stroke="black" points="920.294,-263.5 930.294,-260 920.294,-256.5 920.294,-263.5"/>
<text text-anchor="middle" x="796.488" y="-263.8" font-family="Times New Roman,serif" font-size="14.00">|&#45; ( ( ta /\ ( ( ph /\ ps ) /\ ch /\ th ) ) &#45;&gt; ps )</text>
</g>
<!-- n19974&#45;&gt;n19981 -->
<g id="edge10" class="edge"><title>n19974&#45;&gt;n19981</title>
<path fill="none" stroke="lightgray" d="M361.513,-293.749C412.51,-287.314 526.673,-272.91 588.065,-265.164"/>
<polygon fill="lightgray" stroke="lightgray" points="588.685,-268.613 598.168,-263.889 587.809,-261.668 588.685,-268.613"/>
<text text-anchor="middle" x="483.994" y="-292.8" font-family="Times New Roman,serif" font-size="14.00" fill="lightgray">wff ps</text>
</g>
<!-- n19975 -->
<g id="node9" class="node"><title>n19975</title>
<ellipse fill="none" stroke="lightgray" cx="334.747" cy="-225" rx="27" ry="18"/>
<text text-anchor="middle" x="334.747" y="-221.3" font-family="Times New Roman,serif" font-size="14.00" fill="lightgray">wta</text>
</g>
<!-- n19974&#45;&gt;n19975 -->
<g id="edge22" class="edge"><title>n19974&#45;&gt;n19975</title>
</g>
<!-- n19975&#45;&gt;n19981 -->
<g id="edge11" class="edge"><title>n19975&#45;&gt;n19981</title>
<path fill="none" stroke="lightgray" d="M361.798,-227.145C406.471,-230.964 500.514,-239.623 579.494,-251 582.692,-251.461 586,-251.976 589.319,-252.521"/>
<polygon fill="lightgray" stroke="lightgray" points="588.762,-255.977 599.21,-254.219 589.946,-249.078 588.762,-255.977"/>
<text text-anchor="middle" x="483.994" y="-254.8" font-family="Times New Roman,serif" font-size="14.00" fill="lightgray">wff ta</text>
</g>
<!-- n19980 -->
<g id="node11" class="node"><title>n19980</title>
<ellipse fill="cyan" stroke="black" cx="334.747" cy="-153" rx="35.9954" ry="18"/>
<text text-anchor="middle" x="334.747" y="-149.3" font-family="Times New Roman,serif" font-size="14.00">simp1r</text>
</g>
<!-- n19975&#45;&gt;n19980 -->
<g id="edge23" class="edge"><title>n19975&#45;&gt;n19980</title>
</g>
<!-- n19976 -->
<g id="node10" class="node"><title>n19976</title>
<ellipse fill="none" stroke="lightgray" cx="154" cy="-234" rx="27" ry="18"/>
<text text-anchor="middle" x="154" y="-230.3" font-family="Times New Roman,serif" font-size="14.00" fill="lightgray">wph</text>
</g>
<!-- n19976&#45;&gt;n19980 -->
<g id="edge12" class="edge"><title>n19976&#45;&gt;n19980</title>
<path fill="none" stroke="lightgray" d="M177.445,-224.574C202.754,-213.86 245.065,-195.689 281,-179 287.016,-176.206 293.376,-173.156 299.517,-170.159"/>
<polygon fill="lightgray" stroke="lightgray" points="301.48,-173.094 308.908,-165.539 298.39,-166.813 301.48,-173.094"/>
<text text-anchor="middle" x="240" y="-218.8" font-family="Times New Roman,serif" font-size="14.00" fill="lightgray">wff ph</text>
</g>
<!-- n19977 -->
<g id="node12" class="node"><title>n19977</title>
<ellipse fill="none" stroke="lightgray" cx="154" cy="-162" rx="27" ry="18"/>
<text text-anchor="middle" x="154" y="-158.3" font-family="Times New Roman,serif" font-size="14.00" fill="lightgray">wps</text>
</g>
<!-- n19976&#45;&gt;n19977 -->
<g id="edge17" class="edge"><title>n19976&#45;&gt;n19977</title>
</g>
<!-- n19980&#45;&gt;n19981 -->
<g id="edge16" class="edge"><title>n19980&#45;&gt;n19981</title>
<path fill="none" stroke="black" d="M370.575,-155.363C419.891,-159.976 511.615,-173.3 579.494,-211 590.776,-217.266 601.255,-226.825 609.639,-235.842"/>
<polygon fill="black" stroke="black" points="607.189,-238.355 616.435,-243.529 612.434,-233.719 607.189,-238.355"/>
<text text-anchor="middle" x="483.994" y="-214.8" font-family="Times New Roman,serif" font-size="14.00">|&#45; ( ( ( ph /\ ps ) /\ ch /\ th ) &#45;&gt; ps )</text>
</g>
<!-- n19977&#45;&gt;n19980 -->
<g id="edge13" class="edge"><title>n19977&#45;&gt;n19980</title>
<path fill="none" stroke="lightgray" d="M180.991,-160.691C209.246,-159.269 254.915,-156.969 288.969,-155.255"/>
<polygon fill="lightgray" stroke="lightgray" points="289.321,-158.741 299.132,-154.743 288.969,-151.75 289.321,-158.741"/>
<text text-anchor="middle" x="240" y="-163.8" font-family="Times New Roman,serif" font-size="14.00" fill="lightgray">wff ps</text>
</g>
<!-- n19978 -->
<g id="node13" class="node"><title>n19978</title>
<ellipse fill="none" stroke="lightgray" cx="154" cy="-90" rx="27" ry="18"/>
<text text-anchor="middle" x="154" y="-86.3" font-family="Times New Roman,serif" font-size="14.00" fill="lightgray">wch</text>
</g>
<!-- n19977&#45;&gt;n19978 -->
<g id="edge18" class="edge"><title>n19977&#45;&gt;n19978</title>
</g>
<!-- n19978&#45;&gt;n19980 -->
<g id="edge14" class="edge"><title>n19978&#45;&gt;n19980</title>
<path fill="none" stroke="lightgray" d="M178.368,-98.2361C208.124,-108.724 259.934,-126.985 295.488,-139.515"/>
<polygon fill="lightgray" stroke="lightgray" points="294.458,-142.863 305.053,-142.887 296.785,-136.262 294.458,-142.863"/>
<text text-anchor="middle" x="240" y="-138.8" font-family="Times New Roman,serif" font-size="14.00" fill="lightgray">wff ch</text>
</g>
<!-- n19979 -->
<g id="node14" class="node"><title>n19979</title>
<ellipse fill="none" stroke="lightgray" cx="154" cy="-18" rx="27" ry="18"/>
<text text-anchor="middle" x="154" y="-14.3" font-family="Times New Roman,serif" font-size="14.00" fill="lightgray">wth</text>
</g>
<!-- n19978&#45;&gt;n19979 -->
<g id="edge19" class="edge"><title>n19978&#45;&gt;n19979</title>
</g>
<!-- n19979&#45;&gt;n19980 -->
<g id="edge15" class="edge"><title>n19979&#45;&gt;n19980</title>
<path fill="none" stroke="lightgray" d="M177.541,-27.3404C204.068,-39.0178 248.602,-60.8173 281,-88 294.569,-99.3845 307.173,-114.661 316.655,-127.544"/>
<polygon fill="lightgray" stroke="lightgray" points="314.036,-129.899 322.695,-136.003 319.733,-125.831 314.036,-129.899"/>
<text text-anchor="middle" x="240" y="-91.8" font-family="Times New Roman,serif" font-size="14.00" fill="lightgray">wff th</text>
</g>
</g>
</svg>
