<?xml version="1.0" encoding="UTF-8" standalone="no"?>
<!DOCTYPE svg PUBLIC "-//W3C//DTD SVG 1.1//EN"
 "http://www.w3.org/Graphics/SVG/1.1/DTD/svg11.dtd">
<!-- Generated by graphviz version 2.38.0 (20140413.2041)
 -->
<!-- Title: proof_simp2 Pages: 1 -->
<svg width="737pt" height="404pt"
 viewBox="0.00 0.00 737.08 404.00" xmlns="http://www.w3.org/2000/svg" xmlns:xlink="http://www.w3.org/1999/xlink">
<g id="graph0" class="graph" transform="scale(1 1) rotate(0) translate(4 400)">
<title>proof_simp2</title>
<polygon fill="white" stroke="none" points="-4,4 -4,-400 733.082,-400 733.082,4 -4,4"/>
<!-- n19269 -->
<g id="node1" class="node"><title>n19269</title>
<ellipse fill="none" stroke="lightgray" cx="27" cy="-378" rx="27" ry="18"/>
<text text-anchor="middle" x="27" y="-374.3" font-family="Times New Roman,serif" font-size="14.00" fill="lightgray">wph</text>
</g>
<!-- n19272 -->
<g id="node2" class="node"><title>n19272</title>
<ellipse fill="none" stroke="lightgray" cx="163.397" cy="-306" rx="27" ry="18"/>
<text text-anchor="middle" x="163.397" y="-302.3" font-family="Times New Roman,serif" font-size="14.00" fill="lightgray">w3a</text>
</g>
<!-- n19269&#45;&gt;n19272 -->
<g id="edge1" class="edge"><title>n19269&#45;&gt;n19272</title>
<path fill="none" stroke="lightgray" d="M48.705,-366.908C71.2638,-354.822 107.534,-335.391 133.029,-321.733"/>
<polygon fill="lightgray" stroke="lightgray" points="134.727,-324.794 141.889,-316.987 131.421,-318.624 134.727,-324.794"/>
<text text-anchor="middle" x="90.5" y="-355.8" font-family="Times New Roman,serif" font-size="14.00" fill="lightgray">wff ph</text>
</g>
<!-- n19270 -->
<g id="node3" class="node"><title>n19270</title>
<ellipse fill="none" stroke="lightgray" cx="27" cy="-306" rx="27" ry="18"/>
<text text-anchor="middle" x="27" y="-302.3" font-family="Times New Roman,serif" font-size="14.00" fill="lightgray">wps</text>
</g>
<!-- n19269&#45;&gt;n19270 -->
<g id="edge5" class="edge"><title>n19269&#45;&gt;n19270</title>
</g>
<!-- n19279 -->
<g id="node5" class="node"><title>n19279</title>
<ellipse fill="cyan" stroke="black" cx="456.19" cy="-197" rx="36.2938" ry="18"/>
<text text-anchor="middle" x="456.19" y="-193.3" font-family="Times New Roman,serif" font-size="14.00">simprd</text>
</g>
<!-- n19272&#45;&gt;n19279 -->
<g id="edge4" class="edge"><title>n19272&#45;&gt;n19279</title>
<path fill="none" stroke="lightgray" d="M190.5,-303.625C235.897,-298.605 331.28,-284.067 401.794,-246 413.557,-239.649 424.754,-230.13 433.828,-221.165"/>
<polygon fill="lightgray" stroke="lightgray" points="436.473,-223.465 440.917,-213.848 431.445,-218.595 436.473,-223.465"/>
<text text-anchor="middle" x="309.794" y="-303.8" font-family="Times New Roman,serif" font-size="14.00" fill="lightgray">wff ( ph / ps / ch )</text>
</g>
<!-- n19273 -->
<g id="node6" class="node"><title>n19273</title>
<ellipse fill="none" stroke="lightgray" cx="163.397" cy="-234" rx="27" ry="18"/>
<text text-anchor="middle" x="163.397" y="-230.3" font-family="Times New Roman,serif" font-size="14.00" fill="lightgray">wph</text>
</g>
<!-- n19272&#45;&gt;n19273 -->
<g id="edge16" class="edge"><title>n19272&#45;&gt;n19273</title>
</g>
<!-- n19270&#45;&gt;n19272 -->
<g id="edge2" class="edge"><title>n19270&#45;&gt;n19272</title>
<path fill="none" stroke="lightgray" d="M54.2321,-306C74.6755,-306 103.299,-306 125.966,-306"/>
<polygon fill="lightgray" stroke="lightgray" points="126.231,-309.5 136.231,-306 126.231,-302.5 126.231,-309.5"/>
<text text-anchor="middle" x="90.5" y="-309.8" font-family="Times New Roman,serif" font-size="14.00" fill="lightgray">wff ps</text>
</g>
<!-- n19271 -->
<g id="node4" class="node"><title>n19271</title>
<ellipse fill="none" stroke="lightgray" cx="27" cy="-234" rx="27" ry="18"/>
<text text-anchor="middle" x="27" y="-230.3" font-family="Times New Roman,serif" font-size="14.00" fill="lightgray">wch</text>
</g>
<!-- n19270&#45;&gt;n19271 -->
<g id="edge6" class="edge"><title>n19270&#45;&gt;n19271</title>
</g>
<!-- n19271&#45;&gt;n19272 -->
<g id="edge3" class="edge"><title>n19271&#45;&gt;n19272</title>
<path fill="none" stroke="lightgray" d="M48.705,-245.092C71.2638,-257.178 107.534,-276.609 133.029,-290.267"/>
<polygon fill="lightgray" stroke="lightgray" points="131.421,-293.376 141.889,-295.013 134.727,-287.206 131.421,-293.376"/>
<text text-anchor="middle" x="90.5" y="-280.8" font-family="Times New Roman,serif" font-size="14.00" fill="lightgray">wff ch</text>
</g>
<!-- QED -->
<g id="node12" class="node"><title>QED</title>
</g>
<!-- n19279&#45;&gt;QED -->
<g id="edge15" class="edge"><title>n19279&#45;&gt;QED</title>
<path fill="none" stroke="black" d="M492.846,-197C537.667,-197 614.303,-197 660.397,-197"/>
<polygon fill="black" stroke="black" points="660.583,-200.5 670.583,-197 660.583,-193.5 660.583,-200.5"/>
<text text-anchor="middle" x="581.587" y="-200.8" font-family="Times New Roman,serif" font-size="14.00">|&#45; ( ( ph / ps / ch ) &#45;&gt; ps )</text>
</g>
<!-- n19273&#45;&gt;n19279 -->
<g id="edge7" class="edge"><title>n19273&#45;&gt;n19279</title>
<path fill="none" stroke="lightgray" d="M190.203,-230.716C239.74,-224.413 348.702,-210.549 410.361,-202.704"/>
<polygon fill="lightgray" stroke="lightgray" points="411.089,-206.14 420.567,-201.405 410.205,-199.196 411.089,-206.14"/>
<text text-anchor="middle" x="309.794" y="-230.8" font-family="Times New Roman,serif" font-size="14.00" fill="lightgray">wff ph</text>
</g>
<!-- n19274 -->
<g id="node7" class="node"><title>n19274</title>
<ellipse fill="none" stroke="lightgray" cx="163.397" cy="-162" rx="27" ry="18"/>
<text text-anchor="middle" x="163.397" y="-158.3" font-family="Times New Roman,serif" font-size="14.00" fill="lightgray">wps</text>
</g>
<!-- n19273&#45;&gt;n19274 -->
<g id="edge17" class="edge"><title>n19273&#45;&gt;n19274</title>
</g>
<!-- n19274&#45;&gt;n19279 -->
<g id="edge8" class="edge"><title>n19274&#45;&gt;n19279</title>
<path fill="none" stroke="lightgray" d="M190.453,-164.356C234.213,-168.424 325.204,-177.36 401.794,-188 405.006,-188.446 408.322,-188.936 411.656,-189.449"/>
<polygon fill="lightgray" stroke="lightgray" points="411.198,-192.92 421.625,-191.038 412.3,-186.007 411.198,-192.92"/>
<text text-anchor="middle" x="309.794" y="-191.8" font-family="Times New Roman,serif" font-size="14.00" fill="lightgray">wff ps</text>
</g>
<!-- n19278 -->
<g id="node9" class="node"><title>n19278</title>
<ellipse fill="cyan" stroke="black" cx="163.397" cy="-90" rx="36.2938" ry="18"/>
<text text-anchor="middle" x="163.397" y="-86.3" font-family="Times New Roman,serif" font-size="14.00">3simpa</text>
</g>
<!-- n19274&#45;&gt;n19278 -->
<g id="edge18" class="edge"><title>n19274&#45;&gt;n19278</title>
</g>
<!-- n19275 -->
<g id="node8" class="node"><title>n19275</title>
<ellipse fill="none" stroke="lightgray" cx="27" cy="-162" rx="27" ry="18"/>
<text text-anchor="middle" x="27" y="-158.3" font-family="Times New Roman,serif" font-size="14.00" fill="lightgray">wph</text>
</g>
<!-- n19275&#45;&gt;n19278 -->
<g id="edge9" class="edge"><title>n19275&#45;&gt;n19278</title>
<path fill="none" stroke="lightgray" d="M48.705,-150.908C70.0834,-139.455 103.776,-121.405 128.942,-107.923"/>
<polygon fill="lightgray" stroke="lightgray" points="130.627,-110.991 137.789,-103.183 127.322,-104.82 130.627,-110.991"/>
<text text-anchor="middle" x="90.5" y="-140.8" font-family="Times New Roman,serif" font-size="14.00" fill="lightgray">wff ph</text>
</g>
<!-- n19276 -->
<g id="node10" class="node"><title>n19276</title>
<ellipse fill="none" stroke="lightgray" cx="27" cy="-90" rx="27" ry="18"/>
<text text-anchor="middle" x="27" y="-86.3" font-family="Times New Roman,serif" font-size="14.00" fill="lightgray">wps</text>
</g>
<!-- n19275&#45;&gt;n19276 -->
<g id="edge13" class="edge"><title>n19275&#45;&gt;n19276</title>
</g>
<!-- n19278&#45;&gt;n19279 -->
<g id="edge12" class="edge"><title>n19278&#45;&gt;n19279</title>
<path fill="none" stroke="black" d="M199.296,-93.3209C247.328,-99.0471 335.395,-113.762 401.794,-149 413.492,-155.209 424.678,-164.532 433.762,-173.315"/>
<polygon fill="black" stroke="black" points="431.339,-175.843 440.863,-180.486 436.313,-170.917 431.339,-175.843"/>
<text text-anchor="middle" x="309.794" y="-152.8" font-family="Times New Roman,serif" font-size="14.00">|&#45; ( ( ph / ps / ch ) &#45;&gt; ( ph / ps ) )</text>
</g>
<!-- n19276&#45;&gt;n19278 -->
<g id="edge10" class="edge"><title>n19276&#45;&gt;n19278</title>
<path fill="none" stroke="lightgray" d="M54.2321,-90C71.9419,-90 95.7902,-90 116.587,-90"/>
<polygon fill="lightgray" stroke="lightgray" points="116.823,-93.5001 126.822,-90 116.822,-86.5001 116.823,-93.5001"/>
<text text-anchor="middle" x="90.5" y="-93.8" font-family="Times New Roman,serif" font-size="14.00" fill="lightgray">wff ps</text>
</g>
<!-- n19277 -->
<g id="node11" class="node"><title>n19277</title>
<ellipse fill="none" stroke="lightgray" cx="27" cy="-18" rx="27" ry="18"/>
<text text-anchor="middle" x="27" y="-14.3" font-family="Times New Roman,serif" font-size="14.00" fill="lightgray">wch</text>
</g>
<!-- n19276&#45;&gt;n19277 -->
<g id="edge14" class="edge"><title>n19276&#45;&gt;n19277</title>
</g>
<!-- n19277&#45;&gt;n19278 -->
<g id="edge11" class="edge"><title>n19277&#45;&gt;n19278</title>
<path fill="none" stroke="lightgray" d="M48.705,-29.0922C70.0834,-40.5452 103.776,-58.5953 128.942,-72.0773"/>
<polygon fill="lightgray" stroke="lightgray" points="127.322,-75.1798 137.789,-76.817 130.627,-69.0095 127.322,-75.1798"/>
<text text-anchor="middle" x="90.5" y="-64.8" font-family="Times New Roman,serif" font-size="14.00" fill="lightgray">wff ch</text>
</g>
</g>
</svg>
