<?xml version="1.0" encoding="UTF-8" standalone="no"?>
<!DOCTYPE svg PUBLIC "-//W3C//DTD SVG 1.1//EN"
 "http://www.w3.org/Graphics/SVG/1.1/DTD/svg11.dtd">
<!-- Generated by graphviz version 2.38.0 (20140413.2041)
 -->
<!-- Title: proof_simplr1 Pages: 1 -->
<svg width="1029pt" height="395pt"
 viewBox="0.00 0.00 1029.28 395.00" xmlns="http://www.w3.org/2000/svg" xmlns:xlink="http://www.w3.org/1999/xlink">
<g id="graph0" class="graph" transform="scale(1 1) rotate(0) translate(4 391)">
<title>proof_simplr1</title>
<polygon fill="white" stroke="none" points="-4,4 -4,-391 1025.28,-391 1025.28,4 -4,4"/>
<!-- n19744 -->
<g id="node1" class="node"><title>n19744</title>
<ellipse fill="none" stroke="lightgray" cx="154" cy="-369" rx="27" ry="18"/>
<text text-anchor="middle" x="154" y="-365.3" font-family="Times New Roman,serif" font-size="14.00" fill="lightgray">wth</text>
</g>
<!-- n19749 -->
<g id="node2" class="node"><title>n19749</title>
<ellipse fill="none" stroke="lightgray" cx="363.747" cy="-339" rx="27" ry="18"/>
<text text-anchor="middle" x="363.747" y="-335.3" font-family="Times New Roman,serif" font-size="14.00" fill="lightgray">wa</text>
</g>
<!-- n19744&#45;&gt;n19749 -->
<g id="edge1" class="edge"><title>n19744&#45;&gt;n19749</title>
<path fill="none" stroke="lightgray" d="M180.474,-365.321C217.231,-360.013 285.302,-350.184 327.052,-344.155"/>
<polygon fill="lightgray" stroke="lightgray" points="327.668,-347.602 337.065,-342.709 326.667,-340.674 327.668,-347.602"/>
<text text-anchor="middle" x="254.5" y="-365.8" font-family="Times New Roman,serif" font-size="14.00" fill="lightgray">wff th</text>
</g>
<!-- n19748 -->
<g id="node4" class="node"><title>n19748</title>
<ellipse fill="none" stroke="lightgray" cx="154" cy="-297" rx="27" ry="18"/>
<text text-anchor="middle" x="154" y="-293.3" font-family="Times New Roman,serif" font-size="14.00" fill="lightgray">w3a</text>
</g>
<!-- n19744&#45;&gt;n19748 -->
<g id="edge9" class="edge"><title>n19744&#45;&gt;n19748</title>
</g>
<!-- n19757 -->
<g id="node7" class="node"><title>n19757</title>
<ellipse fill="cyan" stroke="black" cx="660.641" cy="-230" rx="33.2948" ry="18"/>
<text text-anchor="middle" x="660.641" y="-226.3" font-family="Times New Roman,serif" font-size="14.00">adantr</text>
</g>
<!-- n19749&#45;&gt;n19757 -->
<g id="edge8" class="edge"><title>n19749&#45;&gt;n19757</title>
<path fill="none" stroke="lightgray" d="M390.633,-336.938C437.108,-332.316 536.633,-318.173 609.494,-278 620.595,-271.879 631.04,-262.684 639.493,-253.975"/>
<polygon fill="lightgray" stroke="lightgray" points="642.154,-256.253 646.376,-246.536 637.016,-251.5 642.154,-256.253"/>
<text text-anchor="middle" x="513.494" y="-336.8" font-family="Times New Roman,serif" font-size="14.00" fill="lightgray">wff ( th /\ ( ph /\ ps /\ ch ) )</text>
</g>
<!-- n19750 -->
<g id="node8" class="node"><title>n19750</title>
<ellipse fill="none" stroke="lightgray" cx="363.747" cy="-267" rx="27" ry="18"/>
<text text-anchor="middle" x="363.747" y="-263.3" font-family="Times New Roman,serif" font-size="14.00" fill="lightgray">wph</text>
</g>
<!-- n19749&#45;&gt;n19750 -->
<g id="edge21" class="edge"><title>n19749&#45;&gt;n19750</title>
</g>
<!-- n19745 -->
<g id="node3" class="node"><title>n19745</title>
<ellipse fill="none" stroke="lightgray" cx="27" cy="-369" rx="27" ry="18"/>
<text text-anchor="middle" x="27" y="-365.3" font-family="Times New Roman,serif" font-size="14.00" fill="lightgray">wph</text>
</g>
<!-- n19745&#45;&gt;n19748 -->
<g id="edge2" class="edge"><title>n19745&#45;&gt;n19748</title>
<path fill="none" stroke="lightgray" d="M48.0834,-357.432C68.6762,-345.571 100.901,-327.009 124.206,-313.586"/>
<polygon fill="lightgray" stroke="lightgray" points="126.048,-316.563 132.966,-308.539 122.554,-310.498 126.048,-316.563"/>
<text text-anchor="middle" x="90.5" y="-346.8" font-family="Times New Roman,serif" font-size="14.00" fill="lightgray">wff ph</text>
</g>
<!-- n19746 -->
<g id="node5" class="node"><title>n19746</title>
<ellipse fill="none" stroke="lightgray" cx="27" cy="-297" rx="27" ry="18"/>
<text text-anchor="middle" x="27" y="-293.3" font-family="Times New Roman,serif" font-size="14.00" fill="lightgray">wps</text>
</g>
<!-- n19745&#45;&gt;n19746 -->
<g id="edge6" class="edge"><title>n19745&#45;&gt;n19746</title>
</g>
<!-- n19748&#45;&gt;n19749 -->
<g id="edge5" class="edge"><title>n19748&#45;&gt;n19749</title>
<path fill="none" stroke="lightgray" d="M179.979,-301.93C210.624,-307.994 264.157,-318.636 310,-328 315.813,-329.187 321.983,-330.462 327.976,-331.707"/>
<polygon fill="lightgray" stroke="lightgray" points="327.298,-335.14 337.802,-333.754 328.726,-328.288 327.298,-335.14"/>
<text text-anchor="middle" x="254.5" y="-331.8" font-family="Times New Roman,serif" font-size="14.00" fill="lightgray">wff ( ph /\ ps /\ ch )</text>
</g>
<!-- n19746&#45;&gt;n19748 -->
<g id="edge3" class="edge"><title>n19746&#45;&gt;n19748</title>
<path fill="none" stroke="lightgray" d="M54.2041,-297C72.3711,-297 96.7994,-297 116.82,-297"/>
<polygon fill="lightgray" stroke="lightgray" points="116.83,-300.5 126.83,-297 116.83,-293.5 116.83,-300.5"/>
<text text-anchor="middle" x="90.5" y="-300.8" font-family="Times New Roman,serif" font-size="14.00" fill="lightgray">wff ps</text>
</g>
<!-- n19747 -->
<g id="node6" class="node"><title>n19747</title>
<ellipse fill="none" stroke="lightgray" cx="27" cy="-225" rx="27" ry="18"/>
<text text-anchor="middle" x="27" y="-221.3" font-family="Times New Roman,serif" font-size="14.00" fill="lightgray">wch</text>
</g>
<!-- n19746&#45;&gt;n19747 -->
<g id="edge7" class="edge"><title>n19746&#45;&gt;n19747</title>
</g>
<!-- n19747&#45;&gt;n19748 -->
<g id="edge4" class="edge"><title>n19747&#45;&gt;n19748</title>
<path fill="none" stroke="lightgray" d="M48.0834,-236.568C68.6762,-248.429 100.901,-266.991 124.206,-280.414"/>
<polygon fill="lightgray" stroke="lightgray" points="122.554,-283.502 132.966,-285.461 126.048,-277.437 122.554,-283.502"/>
<text text-anchor="middle" x="90.5" y="-274.8" font-family="Times New Roman,serif" font-size="14.00" fill="lightgray">wff ch</text>
</g>
<!-- QED -->
<g id="node15" class="node"><title>QED</title>
</g>
<!-- n19757&#45;&gt;QED -->
<g id="edge20" class="edge"><title>n19757&#45;&gt;QED</title>
<path fill="none" stroke="black" d="M693.824,-230C754.703,-230 886.493,-230 952.183,-230"/>
<polygon fill="black" stroke="black" points="952.515,-233.5 962.515,-230 952.515,-226.5 952.515,-233.5"/>
<text text-anchor="middle" x="828.288" y="-233.8" font-family="Times New Roman,serif" font-size="14.00">|&#45; ( ( ( th /\ ( ph /\ ps /\ ch ) ) /\ ta ) &#45;&gt; ph )</text>
</g>
<!-- n19750&#45;&gt;n19757 -->
<g id="edge10" class="edge"><title>n19750&#45;&gt;n19757</title>
<path fill="none" stroke="lightgray" d="M390.401,-263.781C441.4,-257.382 555.937,-243.012 617.914,-235.235"/>
<polygon fill="lightgray" stroke="lightgray" points="618.634,-238.673 628.12,-233.955 617.762,-231.727 618.634,-238.673"/>
<text text-anchor="middle" x="513.494" y="-262.8" font-family="Times New Roman,serif" font-size="14.00" fill="lightgray">wff ph</text>
</g>
<!-- n19751 -->
<g id="node9" class="node"><title>n19751</title>
<ellipse fill="none" stroke="lightgray" cx="363.747" cy="-195" rx="27" ry="18"/>
<text text-anchor="middle" x="363.747" y="-191.3" font-family="Times New Roman,serif" font-size="14.00" fill="lightgray">wta</text>
</g>
<!-- n19750&#45;&gt;n19751 -->
<g id="edge22" class="edge"><title>n19750&#45;&gt;n19751</title>
</g>
<!-- n19751&#45;&gt;n19757 -->
<g id="edge11" class="edge"><title>n19751&#45;&gt;n19757</title>
<path fill="none" stroke="lightgray" d="M390.903,-197.158C435.755,-200.997 530.178,-209.684 609.494,-221 612.69,-221.456 615.994,-221.965 619.31,-222.502"/>
<polygon fill="lightgray" stroke="lightgray" points="618.757,-225.958 629.2,-224.176 619.925,-219.056 618.757,-225.958"/>
<text text-anchor="middle" x="513.494" y="-224.8" font-family="Times New Roman,serif" font-size="14.00" fill="lightgray">wff ta</text>
</g>
<!-- n19756 -->
<g id="node11" class="node"><title>n19756</title>
<ellipse fill="cyan" stroke="black" cx="363.747" cy="-123" rx="35.9954" ry="18"/>
<text text-anchor="middle" x="363.747" y="-119.3" font-family="Times New Roman,serif" font-size="14.00">simpr1</text>
</g>
<!-- n19751&#45;&gt;n19756 -->
<g id="edge23" class="edge"><title>n19751&#45;&gt;n19756</title>
</g>
<!-- n19752 -->
<g id="node10" class="node"><title>n19752</title>
<ellipse fill="none" stroke="lightgray" cx="154" cy="-234" rx="27" ry="18"/>
<text text-anchor="middle" x="154" y="-230.3" font-family="Times New Roman,serif" font-size="14.00" fill="lightgray">wth</text>
</g>
<!-- n19752&#45;&gt;n19756 -->
<g id="edge12" class="edge"><title>n19752&#45;&gt;n19756</title>
<path fill="none" stroke="lightgray" d="M179.455,-227.55C211.199,-218.489 267.55,-200.018 310,-173 321.31,-165.802 332.318,-155.966 341.326,-146.921"/>
<polygon fill="lightgray" stroke="lightgray" points="343.973,-149.218 348.386,-139.586 338.929,-144.364 343.973,-149.218"/>
<text text-anchor="middle" x="254.5" y="-224.8" font-family="Times New Roman,serif" font-size="14.00" fill="lightgray">wff th</text>
</g>
<!-- n19753 -->
<g id="node12" class="node"><title>n19753</title>
<ellipse fill="none" stroke="lightgray" cx="154" cy="-162" rx="27" ry="18"/>
<text text-anchor="middle" x="154" y="-158.3" font-family="Times New Roman,serif" font-size="14.00" fill="lightgray">wph</text>
</g>
<!-- n19752&#45;&gt;n19753 -->
<g id="edge17" class="edge"><title>n19752&#45;&gt;n19753</title>
</g>
<!-- n19756&#45;&gt;n19757 -->
<g id="edge16" class="edge"><title>n19756&#45;&gt;n19757</title>
<path fill="none" stroke="black" d="M399.269,-125.354C448.644,-129.966 541.02,-143.302 609.494,-181 620.875,-187.266 631.483,-196.825 639.984,-205.841"/>
<polygon fill="black" stroke="black" points="637.596,-208.421 646.879,-213.529 642.808,-203.747 637.596,-208.421"/>
<text text-anchor="middle" x="513.494" y="-184.8" font-family="Times New Roman,serif" font-size="14.00">|&#45; ( ( th /\ ( ph /\ ps /\ ch ) ) &#45;&gt; ph )</text>
</g>
<!-- n19753&#45;&gt;n19756 -->
<g id="edge13" class="edge"><title>n19753&#45;&gt;n19756</title>
<path fill="none" stroke="lightgray" d="M180.474,-157.218C215.207,-150.697 277.9,-138.928 319.925,-131.039"/>
<polygon fill="lightgray" stroke="lightgray" points="320.689,-134.457 329.872,-129.172 319.398,-127.577 320.689,-134.457"/>
<text text-anchor="middle" x="254.5" y="-157.8" font-family="Times New Roman,serif" font-size="14.00" fill="lightgray">wff ph</text>
</g>
<!-- n19754 -->
<g id="node13" class="node"><title>n19754</title>
<ellipse fill="none" stroke="lightgray" cx="154" cy="-90" rx="27" ry="18"/>
<text text-anchor="middle" x="154" y="-86.3" font-family="Times New Roman,serif" font-size="14.00" fill="lightgray">wps</text>
</g>
<!-- n19753&#45;&gt;n19754 -->
<g id="edge18" class="edge"><title>n19753&#45;&gt;n19754</title>
</g>
<!-- n19754&#45;&gt;n19756 -->
<g id="edge14" class="edge"><title>n19754&#45;&gt;n19756</title>
<path fill="none" stroke="lightgray" d="M180.474,-94.0464C215.107,-99.5478 277.539,-109.465 319.561,-116.14"/>
<polygon fill="lightgray" stroke="lightgray" points="319.087,-119.609 329.513,-117.721 320.186,-112.695 319.087,-119.609"/>
<text text-anchor="middle" x="254.5" y="-118.8" font-family="Times New Roman,serif" font-size="14.00" fill="lightgray">wff ps</text>
</g>
<!-- n19755 -->
<g id="node14" class="node"><title>n19755</title>
<ellipse fill="none" stroke="lightgray" cx="154" cy="-18" rx="27" ry="18"/>
<text text-anchor="middle" x="154" y="-14.3" font-family="Times New Roman,serif" font-size="14.00" fill="lightgray">wch</text>
</g>
<!-- n19754&#45;&gt;n19755 -->
<g id="edge19" class="edge"><title>n19754&#45;&gt;n19755</title>
</g>
<!-- n19755&#45;&gt;n19756 -->
<g id="edge15" class="edge"><title>n19755&#45;&gt;n19756</title>
<path fill="none" stroke="lightgray" d="M179.198,-24.8689C210.664,-34.3824 266.715,-53.342 310,-79 319.951,-84.8984 329.933,-92.644 338.495,-99.9901"/>
<polygon fill="lightgray" stroke="lightgray" points="336.416,-102.824 346.221,-106.838 341.059,-97.5855 336.416,-102.824"/>
<text text-anchor="middle" x="254.5" y="-82.8" font-family="Times New Roman,serif" font-size="14.00" fill="lightgray">wff ch</text>
</g>
</g>
</svg>
