<?xml version="1.0" encoding="UTF-8" standalone="no"?>
<!DOCTYPE svg PUBLIC "-//W3C//DTD SVG 1.1//EN"
 "http://www.w3.org/Graphics/SVG/1.1/DTD/svg11.dtd">
<!-- Generated by graphviz version 2.38.0 (20140413.2041)
 -->
<!-- Title: proof_simprd Pages: 1 -->
<svg width="721pt" height="367pt"
 viewBox="0.00 0.00 721.07 367.00" xmlns="http://www.w3.org/2000/svg" xmlns:xlink="http://www.w3.org/1999/xlink">
<g id="graph0" class="graph" transform="scale(1 1) rotate(0) translate(4 363)">
<title>proof_simprd</title>
<polygon fill="white" stroke="none" points="-4,4 -4,-363 717.074,-363 717.074,4 -4,4"/>
<!-- n8133 -->
<g id="node1" class="node"><title>n8133</title>
<ellipse fill="none" stroke="lightgray" cx="279.089" cy="-341" rx="27" ry="18"/>
<text text-anchor="middle" x="279.089" y="-337.3" font-family="Times New Roman,serif" font-size="14.00" fill="lightgray">wph</text>
</g>
<!-- n8141 -->
<g id="node2" class="node"><title>n8141</title>
<ellipse fill="cyan" stroke="black" cx="507.482" cy="-232" rx="35.194" ry="18"/>
<text text-anchor="middle" x="507.482" y="-228.3" font-family="Times New Roman,serif" font-size="14.00">simpld</text>
</g>
<!-- n8133&#45;&gt;n8141 -->
<g id="edge1" class="edge"><title>n8133&#45;&gt;n8141</title>
<path fill="none" stroke="lightgray" d="M304.755,-335.226C339.732,-326.361 404.979,-307.286 454.385,-278 464.875,-271.782 475.201,-263.305 483.859,-255.321"/>
<polygon fill="lightgray" stroke="lightgray" points="486.49,-257.647 491.298,-248.206 481.652,-252.589 486.49,-257.647"/>
<text text-anchor="middle" x="395.885" y="-328.8" font-family="Times New Roman,serif" font-size="14.00" fill="lightgray">wff ph</text>
</g>
<!-- n8134 -->
<g id="node3" class="node"><title>n8134</title>
<ellipse fill="none" stroke="lightgray" cx="279.089" cy="-269" rx="27" ry="18"/>
<text text-anchor="middle" x="279.089" y="-265.3" font-family="Times New Roman,serif" font-size="14.00" fill="lightgray">wch</text>
</g>
<!-- n8133&#45;&gt;n8134 -->
<g id="edge13" class="edge"><title>n8133&#45;&gt;n8134</title>
</g>
<!-- QED -->
<g id="node10" class="node"><title>QED</title>
</g>
<!-- n8141&#45;&gt;QED -->
<g id="edge12" class="edge"><title>n8141&#45;&gt;QED</title>
<path fill="none" stroke="black" d="M542.927,-232C572.132,-232 613.986,-232 644.298,-232"/>
<polygon fill="black" stroke="black" points="644.498,-235.5 654.498,-232 644.498,-228.5 644.498,-235.5"/>
<text text-anchor="middle" x="598.579" y="-235.8" font-family="Times New Roman,serif" font-size="14.00">|&#45; ( ph &#45;&gt; ch )</text>
</g>
<!-- n8134&#45;&gt;n8141 -->
<g id="edge2" class="edge"><title>n8134&#45;&gt;n8141</title>
<path fill="none" stroke="lightgray" d="M305.619,-264.828C344,-258.555 417.026,-246.62 463.653,-239"/>
<polygon fill="lightgray" stroke="lightgray" points="464.448,-242.416 473.752,-237.349 463.319,-235.508 464.448,-242.416"/>
<text text-anchor="middle" x="395.885" y="-262.8" font-family="Times New Roman,serif" font-size="14.00" fill="lightgray">wff ch</text>
</g>
<!-- n8135 -->
<g id="node4" class="node"><title>n8135</title>
<ellipse fill="none" stroke="lightgray" cx="279.089" cy="-197" rx="27" ry="18"/>
<text text-anchor="middle" x="279.089" y="-193.3" font-family="Times New Roman,serif" font-size="14.00" fill="lightgray">wps</text>
</g>
<!-- n8134&#45;&gt;n8135 -->
<g id="edge14" class="edge"><title>n8134&#45;&gt;n8135</title>
</g>
<!-- n8135&#45;&gt;n8141 -->
<g id="edge3" class="edge"><title>n8135&#45;&gt;n8141</title>
<path fill="none" stroke="lightgray" d="M305.81,-200.648C339.84,-205.518 401.676,-214.517 454.385,-223 457.458,-223.495 460.63,-224.016 463.823,-224.548"/>
<polygon fill="lightgray" stroke="lightgray" points="463.543,-228.051 473.986,-226.268 464.71,-221.149 463.543,-228.051"/>
<text text-anchor="middle" x="395.885" y="-226.8" font-family="Times New Roman,serif" font-size="14.00" fill="lightgray">wff ps</text>
</g>
<!-- n8140 -->
<g id="node6" class="node"><title>n8140</title>
<ellipse fill="cyan" stroke="black" cx="279.089" cy="-125" rx="40.0939" ry="18"/>
<text text-anchor="middle" x="279.089" y="-121.3" font-family="Times New Roman,serif" font-size="14.00">ancomd</text>
</g>
<!-- n8135&#45;&gt;n8140 -->
<g id="edge15" class="edge"><title>n8135&#45;&gt;n8140</title>
</g>
<!-- n8136 -->
<g id="node5" class="node"><title>n8136</title>
<ellipse fill="none" stroke="lightgray" cx="42.8962" cy="-234" rx="27" ry="18"/>
<text text-anchor="middle" x="42.8962" y="-230.3" font-family="Times New Roman,serif" font-size="14.00" fill="lightgray">wph</text>
</g>
<!-- n8136&#45;&gt;n8140 -->
<g id="edge4" class="edge"><title>n8136&#45;&gt;n8140</title>
<path fill="none" stroke="lightgray" d="M68.794,-228.219C104.129,-219.376 170.154,-200.462 220.792,-172 232.359,-165.499 243.904,-156.609 253.568,-148.309"/>
<polygon fill="lightgray" stroke="lightgray" points="256.042,-150.794 261.203,-141.542 251.398,-145.556 256.042,-150.794"/>
<text text-anchor="middle" x="162.292" y="-221.8" font-family="Times New Roman,serif" font-size="14.00" fill="lightgray">wff ph</text>
</g>
<!-- n8137 -->
<g id="node7" class="node"><title>n8137</title>
<ellipse fill="none" stroke="lightgray" cx="42.8962" cy="-162" rx="27" ry="18"/>
<text text-anchor="middle" x="42.8962" y="-158.3" font-family="Times New Roman,serif" font-size="14.00" fill="lightgray">wps</text>
</g>
<!-- n8136&#45;&gt;n8137 -->
<g id="edge9" class="edge"><title>n8136&#45;&gt;n8137</title>
</g>
<!-- n8140&#45;&gt;n8141 -->
<g id="edge8" class="edge"><title>n8140&#45;&gt;n8141</title>
<path fill="none" stroke="black" d="M315.205,-133.014C351.68,-142.291 409.574,-159.745 454.385,-186 464.906,-192.164 475.24,-200.631 483.894,-208.621"/>
<polygon fill="black" stroke="black" points="481.685,-211.352 491.327,-215.745 486.529,-206.298 481.685,-211.352"/>
<text text-anchor="middle" x="395.885" y="-189.8" font-family="Times New Roman,serif" font-size="14.00">|&#45; ( ph &#45;&gt; ( ch / ps ) )</text>
</g>
<!-- n8137&#45;&gt;n8140 -->
<g id="edge5" class="edge"><title>n8137&#45;&gt;n8140</title>
<path fill="none" stroke="lightgray" d="M69.4047,-157.97C108.031,-151.867 182.007,-140.18 230.699,-132.487"/>
<polygon fill="lightgray" stroke="lightgray" points="231.353,-135.927 240.684,-130.91 230.26,-129.013 231.353,-135.927"/>
<text text-anchor="middle" x="162.292" y="-156.8" font-family="Times New Roman,serif" font-size="14.00" fill="lightgray">wff ps</text>
</g>
<!-- n8138 -->
<g id="node8" class="node"><title>n8138</title>
<ellipse fill="none" stroke="lightgray" cx="42.8962" cy="-90" rx="27" ry="18"/>
<text text-anchor="middle" x="42.8962" y="-86.3" font-family="Times New Roman,serif" font-size="14.00" fill="lightgray">wch</text>
</g>
<!-- n8137&#45;&gt;n8138 -->
<g id="edge10" class="edge"><title>n8137&#45;&gt;n8138</title>
</g>
<!-- n8138&#45;&gt;n8140 -->
<g id="edge6" class="edge"><title>n8138&#45;&gt;n8140</title>
<path fill="none" stroke="lightgray" d="M69.3938,-93.667C103.784,-98.6313 166.934,-107.812 220.792,-116 224.028,-116.492 227.365,-117.004 230.726,-117.523"/>
<polygon fill="lightgray" stroke="lightgray" points="230.385,-121.012 240.804,-119.089 231.46,-114.095 230.385,-121.012"/>
<text text-anchor="middle" x="162.292" y="-119.8" font-family="Times New Roman,serif" font-size="14.00" fill="lightgray">wff ch</text>
</g>
<!-- n8139 -->
<g id="node9" class="node"><title>n8139</title>
<ellipse fill="orange" stroke="black" cx="42.8962" cy="-18" rx="42.7926" ry="18"/>
<text text-anchor="middle" x="42.8962" y="-14.3" font-family="Times New Roman,serif" font-size="14.00">simprd.1</text>
</g>
<!-- n8138&#45;&gt;n8139 -->
<g id="edge11" class="edge"><title>n8138&#45;&gt;n8139</title>
</g>
<!-- n8139&#45;&gt;n8140 -->
<g id="edge7" class="edge"><title>n8139&#45;&gt;n8140</title>
<path fill="none" stroke="black" d="M79.8525,-27.2207C116.612,-37.4569 174.693,-55.9051 220.792,-81 231.698,-86.9366 242.737,-94.8618 252.176,-102.35"/>
<polygon fill="black" stroke="black" points="250.058,-105.139 260.016,-108.757 254.487,-99.7184 250.058,-105.139"/>
<text text-anchor="middle" x="162.292" y="-84.8" font-family="Times New Roman,serif" font-size="14.00">|&#45; ( ph &#45;&gt; ( ps / ch ) )</text>
</g>
</g>
</svg>
