<?xml version="1.0" encoding="UTF-8" standalone="no"?>
<!DOCTYPE svg PUBLIC "-//W3C//DTD SVG 1.1//EN"
 "http://www.w3.org/Graphics/SVG/1.1/DTD/svg11.dtd">
<!-- Generated by graphviz version 2.38.0 (20140413.2041)
 -->
<!-- Title: proof_simplrr Pages: 1 -->
<svg width="719pt" height="407pt"
 viewBox="0.00 0.00 719.18 407.00" xmlns="http://www.w3.org/2000/svg" xmlns:xlink="http://www.w3.org/1999/xlink">
<g id="graph0" class="graph" transform="scale(1 1) rotate(0) translate(4 403)">
<title>proof_simplrr</title>
<polygon fill="white" stroke="none" points="-4,4 -4,-403 715.182,-403 715.182,4 -4,4"/>
<!-- n12823 -->
<g id="node1" class="node"><title>n12823</title>
<ellipse fill="none" stroke="lightgray" cx="27" cy="-381" rx="27" ry="18"/>
<text text-anchor="middle" x="27" y="-377.3" font-family="Times New Roman,serif" font-size="14.00" fill="lightgray">wps</text>
</g>
<!-- n12825 -->
<g id="node2" class="node"><title>n12825</title>
<ellipse fill="none" stroke="lightgray" cx="158.197" cy="-341" rx="27" ry="18"/>
<text text-anchor="middle" x="158.197" y="-337.3" font-family="Times New Roman,serif" font-size="14.00" fill="lightgray">wa</text>
</g>
<!-- n12823&#45;&gt;n12825 -->
<g id="edge1" class="edge"><title>n12823&#45;&gt;n12825</title>
<path fill="none" stroke="lightgray" d="M51.6968,-373.663C71.7857,-367.444 100.84,-358.448 123.374,-351.472"/>
<polygon fill="lightgray" stroke="lightgray" points="124.696,-354.727 133.213,-348.426 122.625,-348.04 124.696,-354.727"/>
<text text-anchor="middle" x="90.5" y="-370.8" font-family="Times New Roman,serif" font-size="14.00" fill="lightgray">wff ps</text>
</g>
<!-- n12824 -->
<g id="node3" class="node"><title>n12824</title>
<ellipse fill="none" stroke="lightgray" cx="27" cy="-309" rx="27" ry="18"/>
<text text-anchor="middle" x="27" y="-305.3" font-family="Times New Roman,serif" font-size="14.00" fill="lightgray">wch</text>
</g>
<!-- n12823&#45;&gt;n12824 -->
<g id="edge4" class="edge"><title>n12823&#45;&gt;n12824</title>
</g>
<!-- n12832 -->
<g id="node4" class="node"><title>n12832</title>
<ellipse fill="cyan" stroke="black" cx="381.041" cy="-197" rx="39.7935" ry="18"/>
<text text-anchor="middle" x="381.041" y="-193.3" font-family="Times New Roman,serif" font-size="14.00">ad2antlr</text>
</g>
<!-- n12825&#45;&gt;n12832 -->
<g id="edge3" class="edge"><title>n12825&#45;&gt;n12832</title>
<path fill="none" stroke="lightgray" d="M183.824,-335.018C217.884,-325.832 280.065,-305.689 323.394,-272 340.409,-258.771 354.945,-239.229 365.031,-223.409"/>
<polygon fill="lightgray" stroke="lightgray" points="368.19,-224.954 370.441,-214.601 362.225,-221.29 368.19,-224.954"/>
<text text-anchor="middle" x="265.394" y="-331.8" font-family="Times New Roman,serif" font-size="14.00" fill="lightgray">wff ( ps / ch )</text>
</g>
<!-- n12826 -->
<g id="node5" class="node"><title>n12826</title>
<ellipse fill="none" stroke="lightgray" cx="158.197" cy="-269" rx="27" ry="18"/>
<text text-anchor="middle" x="158.197" y="-265.3" font-family="Times New Roman,serif" font-size="14.00" fill="lightgray">wch</text>
</g>
<!-- n12825&#45;&gt;n12826 -->
<g id="edge13" class="edge"><title>n12825&#45;&gt;n12826</title>
</g>
<!-- n12824&#45;&gt;n12825 -->
<g id="edge2" class="edge"><title>n12824&#45;&gt;n12825</title>
<path fill="none" stroke="lightgray" d="M52.9134,-314.105C68.9836,-317.504 90.2999,-322.212 109,-327 113.711,-328.206 118.659,-329.552 123.516,-330.919"/>
<polygon fill="lightgray" stroke="lightgray" points="122.677,-334.32 133.255,-333.717 124.61,-327.592 122.677,-334.32"/>
<text text-anchor="middle" x="90.5" y="-330.8" font-family="Times New Roman,serif" font-size="14.00" fill="lightgray">wff ch</text>
</g>
<!-- QED -->
<g id="node11" class="node"><title>QED</title>
</g>
<!-- n12832&#45;&gt;QED -->
<g id="edge12" class="edge"><title>n12832&#45;&gt;QED</title>
<path fill="none" stroke="black" d="M420.81,-197C478.208,-197 585.162,-197 642.416,-197"/>
<polygon fill="black" stroke="black" points="642.505,-200.5 652.505,-197 642.505,-193.5 642.505,-200.5"/>
<text text-anchor="middle" x="536.687" y="-200.8" font-family="Times New Roman,serif" font-size="14.00">|&#45; ( ( ( ph / ( ps / ch ) ) / th ) &#45;&gt; ch )</text>
</g>
<!-- n12826&#45;&gt;n12832 -->
<g id="edge5" class="edge"><title>n12826&#45;&gt;n12832</title>
<path fill="none" stroke="lightgray" d="M182.881,-261.449C214.821,-251.244 273.458,-232.433 323.394,-216 328.378,-214.36 333.603,-212.626 338.781,-210.9"/>
<polygon fill="lightgray" stroke="lightgray" points="340.227,-214.107 348.601,-207.616 338.007,-207.468 340.227,-214.107"/>
<text text-anchor="middle" x="265.394" y="-256.8" font-family="Times New Roman,serif" font-size="14.00" fill="lightgray">wff ch</text>
</g>
<!-- n12827 -->
<g id="node6" class="node"><title>n12827</title>
<ellipse fill="none" stroke="lightgray" cx="158.197" cy="-197" rx="27" ry="18"/>
<text text-anchor="middle" x="158.197" y="-193.3" font-family="Times New Roman,serif" font-size="14.00" fill="lightgray">wph</text>
</g>
<!-- n12826&#45;&gt;n12827 -->
<g id="edge14" class="edge"><title>n12826&#45;&gt;n12827</title>
</g>
<!-- n12827&#45;&gt;n12832 -->
<g id="edge6" class="edge"><title>n12827&#45;&gt;n12832</title>
<path fill="none" stroke="lightgray" d="M185.398,-197C221.226,-197 286.178,-197 331.141,-197"/>
<polygon fill="lightgray" stroke="lightgray" points="331.261,-200.5 341.261,-197 331.261,-193.5 331.261,-200.5"/>
<text text-anchor="middle" x="265.394" y="-200.8" font-family="Times New Roman,serif" font-size="14.00" fill="lightgray">wff ph</text>
</g>
<!-- n12828 -->
<g id="node7" class="node"><title>n12828</title>
<ellipse fill="none" stroke="lightgray" cx="158.197" cy="-125" rx="27" ry="18"/>
<text text-anchor="middle" x="158.197" y="-121.3" font-family="Times New Roman,serif" font-size="14.00" fill="lightgray">wth</text>
</g>
<!-- n12827&#45;&gt;n12828 -->
<g id="edge15" class="edge"><title>n12827&#45;&gt;n12828</title>
</g>
<!-- n12828&#45;&gt;n12832 -->
<g id="edge7" class="edge"><title>n12828&#45;&gt;n12832</title>
<path fill="none" stroke="lightgray" d="M182.881,-132.551C214.821,-142.756 273.458,-161.567 323.394,-178 328.378,-179.64 333.603,-181.374 338.781,-183.1"/>
<polygon fill="lightgray" stroke="lightgray" points="338.007,-186.532 348.601,-186.384 340.227,-179.893 338.007,-186.532"/>
<text text-anchor="middle" x="265.394" y="-181.8" font-family="Times New Roman,serif" font-size="14.00" fill="lightgray">wff th</text>
</g>
<!-- n12831 -->
<g id="node9" class="node"><title>n12831</title>
<ellipse fill="cyan" stroke="black" cx="158.197" cy="-53" rx="31.3957" ry="18"/>
<text text-anchor="middle" x="158.197" y="-49.3" font-family="Times New Roman,serif" font-size="14.00">simpr</text>
</g>
<!-- n12828&#45;&gt;n12831 -->
<g id="edge16" class="edge"><title>n12828&#45;&gt;n12831</title>
</g>
<!-- n12829 -->
<g id="node8" class="node"><title>n12829</title>
<ellipse fill="none" stroke="lightgray" cx="27" cy="-90" rx="27" ry="18"/>
<text text-anchor="middle" x="27" y="-86.3" font-family="Times New Roman,serif" font-size="14.00" fill="lightgray">wps</text>
</g>
<!-- n12829&#45;&gt;n12831 -->
<g id="edge8" class="edge"><title>n12829&#45;&gt;n12831</title>
<path fill="none" stroke="lightgray" d="M51.9982,-83.1273C71.1095,-77.6541 98.1938,-69.8976 120.094,-63.6257"/>
<polygon fill="lightgray" stroke="lightgray" points="121.095,-66.9799 129.745,-60.862 119.168,-60.2505 121.095,-66.9799"/>
<text text-anchor="middle" x="90.5" y="-80.8" font-family="Times New Roman,serif" font-size="14.00" fill="lightgray">wff ps</text>
</g>
<!-- n12830 -->
<g id="node10" class="node"><title>n12830</title>
<ellipse fill="none" stroke="lightgray" cx="27" cy="-18" rx="27" ry="18"/>
<text text-anchor="middle" x="27" y="-14.3" font-family="Times New Roman,serif" font-size="14.00" fill="lightgray">wch</text>
</g>
<!-- n12829&#45;&gt;n12830 -->
<g id="edge11" class="edge"><title>n12829&#45;&gt;n12830</title>
</g>
<!-- n12831&#45;&gt;n12832 -->
<g id="edge10" class="edge"><title>n12831&#45;&gt;n12832</title>
<path fill="none" stroke="black" d="M187.033,-60.1055C221.645,-69.9488 281.294,-90.3111 323.394,-123 340.273,-136.106 354.814,-155.386 364.936,-170.98"/>
<polygon fill="black" stroke="black" points="362.097,-173.042 370.37,-179.662 368.031,-169.329 362.097,-173.042"/>
<text text-anchor="middle" x="265.394" y="-126.8" font-family="Times New Roman,serif" font-size="14.00">|&#45; ( ( ps / ch ) &#45;&gt; ch )</text>
</g>
<!-- n12830&#45;&gt;n12831 -->
<g id="edge9" class="edge"><title>n12830&#45;&gt;n12831</title>
<path fill="none" stroke="lightgray" d="M52.301,-24.5832C71.2318,-29.7117 97.8502,-36.9227 119.535,-42.7972"/>
<polygon fill="lightgray" stroke="lightgray" points="118.849,-46.2375 129.417,-45.4742 120.68,-39.4811 118.849,-46.2375"/>
<text text-anchor="middle" x="90.5" y="-43.8" font-family="Times New Roman,serif" font-size="14.00" fill="lightgray">wff ch</text>
</g>
</g>
</svg>
