<?xml version="1.0" encoding="UTF-8" standalone="no"?>
<!DOCTYPE svg PUBLIC "-//W3C//DTD SVG 1.1//EN"
 "http://www.w3.org/Graphics/SVG/1.1/DTD/svg11.dtd">
<!-- Generated by graphviz version 2.38.0 (20140413.2041)
 -->
<!-- Title: proof_simpld Pages: 1 -->
<svg width="597pt" height="363pt"
 viewBox="0.00 0.00 596.99 363.00" xmlns="http://www.w3.org/2000/svg" xmlns:xlink="http://www.w3.org/1999/xlink">
<g id="graph0" class="graph" transform="scale(1 1) rotate(0) translate(4 359)">
<title>proof_simpld</title>
<polygon fill="white" stroke="none" points="-4,4 -4,-359 592.987,-359 592.987,4 -4,4"/>
<!-- n8097 -->
<g id="node1" class="node"><title>n8097</title>
<ellipse fill="none" stroke="lightgray" cx="169.246" cy="-337" rx="27" ry="18"/>
<text text-anchor="middle" x="169.246" y="-333.3" font-family="Times New Roman,serif" font-size="14.00" fill="lightgray">wph</text>
</g>
<!-- n8106 -->
<g id="node2" class="node"><title>n8106</title>
<ellipse fill="cyan" stroke="black" cx="391.493" cy="-193" rx="27" ry="18"/>
<text text-anchor="middle" x="391.493" y="-189.3" font-family="Times New Roman,serif" font-size="14.00">syl</text>
</g>
<!-- n8097&#45;&gt;n8106 -->
<g id="edge1" class="edge"><title>n8097&#45;&gt;n8106</title>
<path fill="none" stroke="lightgray" d="M195.423,-332.585C232.268,-325.019 301.385,-306.513 346.493,-268 361.61,-255.093 372.816,-235.622 380.135,-219.754"/>
<polygon fill="lightgray" stroke="lightgray" points="383.412,-220.997 384.191,-210.43 376.993,-218.205 383.412,-220.997"/>
<text text-anchor="middle" x="287.993" y="-327.8" font-family="Times New Roman,serif" font-size="14.00" fill="lightgray">wff ph</text>
</g>
<!-- n8100 -->
<g id="node4" class="node"><title>n8100</title>
<ellipse fill="none" stroke="lightgray" cx="169.246" cy="-265" rx="27" ry="18"/>
<text text-anchor="middle" x="169.246" y="-261.3" font-family="Times New Roman,serif" font-size="14.00" fill="lightgray">wa</text>
</g>
<!-- n8097&#45;&gt;n8100 -->
<g id="edge13" class="edge"><title>n8097&#45;&gt;n8100</title>
</g>
<!-- QED -->
<g id="node11" class="node"><title>QED</title>
</g>
<!-- n8106&#45;&gt;QED -->
<g id="edge12" class="edge"><title>n8106&#45;&gt;QED</title>
<path fill="none" stroke="black" d="M418.835,-193C446.145,-193 489.118,-193 520.235,-193"/>
<polygon fill="black" stroke="black" points="520.294,-196.5 530.294,-193 520.294,-189.5 520.294,-196.5"/>
<text text-anchor="middle" x="474.493" y="-196.8" font-family="Times New Roman,serif" font-size="14.00">|&#45; ( ph &#45;&gt; ps )</text>
</g>
<!-- n8098 -->
<g id="node3" class="node"><title>n8098</title>
<ellipse fill="none" stroke="lightgray" cx="27" cy="-309" rx="27" ry="18"/>
<text text-anchor="middle" x="27" y="-305.3" font-family="Times New Roman,serif" font-size="14.00" fill="lightgray">wps</text>
</g>
<!-- n8098&#45;&gt;n8100 -->
<g id="edge2" class="edge"><title>n8098&#45;&gt;n8100</title>
<path fill="none" stroke="lightgray" d="M51.7909,-301.536C74.5582,-294.393 109.12,-283.55 134.683,-275.53"/>
<polygon fill="lightgray" stroke="lightgray" points="135.845,-278.834 144.339,-272.501 133.749,-272.155 135.845,-278.834"/>
<text text-anchor="middle" x="90.5" y="-297.8" font-family="Times New Roman,serif" font-size="14.00" fill="lightgray">wff ps</text>
</g>
<!-- n8099 -->
<g id="node5" class="node"><title>n8099</title>
<ellipse fill="none" stroke="lightgray" cx="27" cy="-237" rx="27" ry="18"/>
<text text-anchor="middle" x="27" y="-233.3" font-family="Times New Roman,serif" font-size="14.00" fill="lightgray">wch</text>
</g>
<!-- n8098&#45;&gt;n8099 -->
<g id="edge5" class="edge"><title>n8098&#45;&gt;n8099</title>
</g>
<!-- n8100&#45;&gt;n8106 -->
<g id="edge4" class="edge"><title>n8100&#45;&gt;n8106</title>
<path fill="none" stroke="lightgray" d="M194.77,-258.59C229.088,-249.402 293.214,-231.441 346.493,-212 350.74,-210.45 355.167,-208.702 359.506,-206.91"/>
<polygon fill="lightgray" stroke="lightgray" points="360.927,-210.109 368.76,-202.975 358.188,-203.667 360.927,-210.109"/>
<text text-anchor="middle" x="287.993" y="-252.8" font-family="Times New Roman,serif" font-size="14.00" fill="lightgray">wff ( ps / ch )</text>
</g>
<!-- n8101 -->
<g id="node6" class="node"><title>n8101</title>
<ellipse fill="none" stroke="lightgray" cx="169.246" cy="-193" rx="27" ry="18"/>
<text text-anchor="middle" x="169.246" y="-189.3" font-family="Times New Roman,serif" font-size="14.00" fill="lightgray">wps</text>
</g>
<!-- n8100&#45;&gt;n8101 -->
<g id="edge14" class="edge"><title>n8100&#45;&gt;n8101</title>
</g>
<!-- n8099&#45;&gt;n8100 -->
<g id="edge3" class="edge"><title>n8099&#45;&gt;n8100</title>
<path fill="none" stroke="lightgray" d="M53.0732,-242.006C75.2719,-246.438 107.916,-252.955 132.787,-257.921"/>
<polygon fill="lightgray" stroke="lightgray" points="132.426,-261.417 142.917,-259.943 133.796,-254.553 132.426,-261.417"/>
<text text-anchor="middle" x="90.5" y="-255.8" font-family="Times New Roman,serif" font-size="14.00" fill="lightgray">wff ch</text>
</g>
<!-- n8101&#45;&gt;n8106 -->
<g id="edge6" class="edge"><title>n8101&#45;&gt;n8106</title>
<path fill="none" stroke="lightgray" d="M196.376,-193C235.619,-193 309.895,-193 354.321,-193"/>
<polygon fill="lightgray" stroke="lightgray" points="354.397,-196.5 364.396,-193 354.396,-189.5 354.397,-196.5"/>
<text text-anchor="middle" x="287.993" y="-196.8" font-family="Times New Roman,serif" font-size="14.00" fill="lightgray">wff ps</text>
</g>
<!-- n8102 -->
<g id="node7" class="node"><title>n8102</title>
<ellipse fill="orange" stroke="black" cx="169.246" cy="-121" rx="42.4939" ry="18"/>
<text text-anchor="middle" x="169.246" y="-117.3" font-family="Times New Roman,serif" font-size="14.00">simpld.1</text>
</g>
<!-- n8101&#45;&gt;n8102 -->
<g id="edge15" class="edge"><title>n8101&#45;&gt;n8102</title>
</g>
<!-- n8102&#45;&gt;n8106 -->
<g id="edge7" class="edge"><title>n8102&#45;&gt;n8106</title>
<path fill="none" stroke="black" d="M205.751,-130.377C241.627,-140.154 298.467,-156.476 346.493,-174 350.74,-175.55 355.167,-177.298 359.506,-179.09"/>
<polygon fill="black" stroke="black" points="358.188,-182.333 368.76,-183.025 360.927,-175.891 358.188,-182.333"/>
<text text-anchor="middle" x="287.993" y="-177.8" font-family="Times New Roman,serif" font-size="14.00">|&#45; ( ph &#45;&gt; ( ps / ch ) )</text>
</g>
<!-- n8105 -->
<g id="node9" class="node"><title>n8105</title>
<ellipse fill="cyan" stroke="black" cx="169.246" cy="-49" rx="30.5947" ry="18"/>
<text text-anchor="middle" x="169.246" y="-45.3" font-family="Times New Roman,serif" font-size="14.00">simpl</text>
</g>
<!-- n8102&#45;&gt;n8105 -->
<g id="edge16" class="edge"><title>n8102&#45;&gt;n8105</title>
</g>
<!-- n8103 -->
<g id="node8" class="node"><title>n8103</title>
<ellipse fill="none" stroke="lightgray" cx="27" cy="-90" rx="27" ry="18"/>
<text text-anchor="middle" x="27" y="-86.3" font-family="Times New Roman,serif" font-size="14.00" fill="lightgray">wps</text>
</g>
<!-- n8103&#45;&gt;n8105 -->
<g id="edge8" class="edge"><title>n8103&#45;&gt;n8105</title>
<path fill="none" stroke="lightgray" d="M52.1092,-82.9518C73.9983,-76.5527 106.597,-67.0227 131.69,-59.6868"/>
<polygon fill="lightgray" stroke="lightgray" points="132.971,-62.959 141.587,-56.7936 131.007,-56.2402 132.971,-62.959"/>
<text text-anchor="middle" x="90.5" y="-80.8" font-family="Times New Roman,serif" font-size="14.00" fill="lightgray">wff ps</text>
</g>
<!-- n8104 -->
<g id="node10" class="node"><title>n8104</title>
<ellipse fill="none" stroke="lightgray" cx="27" cy="-18" rx="27" ry="18"/>
<text text-anchor="middle" x="27" y="-14.3" font-family="Times New Roman,serif" font-size="14.00" fill="lightgray">wch</text>
</g>
<!-- n8103&#45;&gt;n8104 -->
<g id="edge11" class="edge"><title>n8103&#45;&gt;n8104</title>
</g>
<!-- n8105&#45;&gt;n8106 -->
<g id="edge10" class="edge"><title>n8105&#45;&gt;n8106</title>
<path fill="none" stroke="black" d="M198.558,-54.0694C236.079,-62.0219 302.635,-80.5543 346.493,-118 361.61,-130.907 372.816,-150.378 380.135,-166.246"/>
<polygon fill="black" stroke="black" points="376.993,-167.795 384.191,-175.57 383.412,-165.003 376.993,-167.795"/>
<text text-anchor="middle" x="287.993" y="-121.8" font-family="Times New Roman,serif" font-size="14.00">|&#45; ( ( ps / ch ) &#45;&gt; ps )</text>
</g>
<!-- n8104&#45;&gt;n8105 -->
<g id="edge9" class="edge"><title>n8104&#45;&gt;n8105</title>
<path fill="none" stroke="lightgray" d="M52.7504,-23.4708C74.314,-28.2372 105.909,-35.2211 130.605,-40.6798"/>
<polygon fill="lightgray" stroke="lightgray" points="129.856,-44.0986 140.376,-42.8395 131.367,-37.2636 129.856,-44.0986"/>
<text text-anchor="middle" x="90.5" y="-39.8" font-family="Times New Roman,serif" font-size="14.00" fill="lightgray">wff ch</text>
</g>
</g>
</svg>
