<?xml version="1.0" encoding="UTF-8" standalone="no"?>
<!DOCTYPE svg PUBLIC "-//W3C//DTD SVG 1.1//EN"
 "http://www.w3.org/Graphics/SVG/1.1/DTD/svg11.dtd">
<!-- Generated by graphviz version 2.38.0 (20140413.2041)
 -->
<!-- Title: proof_simpl1l Pages: 1 -->
<svg width="969pt" height="499pt"
 viewBox="0.00 0.00 968.68 499.00" xmlns="http://www.w3.org/2000/svg" xmlns:xlink="http://www.w3.org/1999/xlink">
<g id="graph0" class="graph" transform="scale(1 1) rotate(0) translate(4 495)">
<title>proof_simpl1l</title>
<polygon fill="white" stroke="none" points="-4,4 -4,-495 964.683,-495 964.683,4 -4,4"/>
<!-- n19870 -->
<g id="node1" class="node"><title>n19870</title>
<ellipse fill="none" stroke="lightgray" cx="27" cy="-473" rx="27" ry="18"/>
<text text-anchor="middle" x="27" y="-469.3" font-family="Times New Roman,serif" font-size="14.00" fill="lightgray">wph</text>
</g>
<!-- n19872 -->
<g id="node2" class="node"><title>n19872</title>
<ellipse fill="none" stroke="lightgray" cx="154" cy="-441" rx="27" ry="18"/>
<text text-anchor="middle" x="154" y="-437.3" font-family="Times New Roman,serif" font-size="14.00" fill="lightgray">wa</text>
</g>
<!-- n19870&#45;&gt;n19872 -->
<g id="edge1" class="edge"><title>n19870&#45;&gt;n19872</title>
<path fill="none" stroke="lightgray" d="M52.398,-466.754C71.326,-461.909 97.7933,-455.133 118.83,-449.748"/>
<polygon fill="lightgray" stroke="lightgray" points="119.844,-453.101 128.664,-447.23 118.108,-446.32 119.844,-453.101"/>
<text text-anchor="middle" x="90.5" y="-464.8" font-family="Times New Roman,serif" font-size="14.00" fill="lightgray">wff ph</text>
</g>
<!-- n19871 -->
<g id="node3" class="node"><title>n19871</title>
<ellipse fill="none" stroke="lightgray" cx="27" cy="-401" rx="27" ry="18"/>
<text text-anchor="middle" x="27" y="-397.3" font-family="Times New Roman,serif" font-size="14.00" fill="lightgray">wps</text>
</g>
<!-- n19870&#45;&gt;n19871 -->
<g id="edge4" class="edge"><title>n19870&#45;&gt;n19871</title>
</g>
<!-- n19875 -->
<g id="node4" class="node"><title>n19875</title>
<ellipse fill="none" stroke="lightgray" cx="330.447" cy="-369" rx="27" ry="18"/>
<text text-anchor="middle" x="330.447" y="-365.3" font-family="Times New Roman,serif" font-size="14.00" fill="lightgray">w3a</text>
</g>
<!-- n19872&#45;&gt;n19875 -->
<g id="edge3" class="edge"><title>n19872&#45;&gt;n19875</title>
<path fill="none" stroke="lightgray" d="M177.449,-431.735C207.935,-419.152 262.609,-396.586 297.404,-382.225"/>
<polygon fill="lightgray" stroke="lightgray" points="299.176,-385.28 307.084,-378.23 296.505,-378.81 299.176,-385.28"/>
<text text-anchor="middle" x="238.5" y="-424.8" font-family="Times New Roman,serif" font-size="14.00" fill="lightgray">wff ( ph / ps )</text>
</g>
<!-- n19873 -->
<g id="node5" class="node"><title>n19873</title>
<ellipse fill="none" stroke="lightgray" cx="154" cy="-369" rx="27" ry="18"/>
<text text-anchor="middle" x="154" y="-365.3" font-family="Times New Roman,serif" font-size="14.00" fill="lightgray">wch</text>
</g>
<!-- n19872&#45;&gt;n19873 -->
<g id="edge8" class="edge"><title>n19872&#45;&gt;n19873</title>
</g>
<!-- n19871&#45;&gt;n19872 -->
<g id="edge2" class="edge"><title>n19871&#45;&gt;n19872</title>
<path fill="none" stroke="lightgray" d="M51.8058,-408.618C71.0071,-414.762 98.2415,-423.477 119.621,-430.319"/>
<polygon fill="lightgray" stroke="lightgray" points="118.692,-433.696 129.283,-433.411 120.825,-427.029 118.692,-433.696"/>
<text text-anchor="middle" x="90.5" y="-429.8" font-family="Times New Roman,serif" font-size="14.00" fill="lightgray">wff ps</text>
</g>
<!-- n19883 -->
<g id="node7" class="node"><title>n19883</title>
<ellipse fill="cyan" stroke="black" cx="615.041" cy="-260" rx="33.2948" ry="18"/>
<text text-anchor="middle" x="615.041" y="-256.3" font-family="Times New Roman,serif" font-size="14.00">adantr</text>
</g>
<!-- n19875&#45;&gt;n19883 -->
<g id="edge7" class="edge"><title>n19875&#45;&gt;n19883</title>
<path fill="none" stroke="lightgray" d="M357.447,-366.481C402.168,-361.243 495.442,-346.297 563.894,-308 574.957,-301.811 585.395,-292.604 593.854,-283.904"/>
<polygon fill="lightgray" stroke="lightgray" points="596.508,-286.189 600.744,-276.478 591.376,-281.428 596.508,-286.189"/>
<text text-anchor="middle" x="473.394" y="-365.8" font-family="Times New Roman,serif" font-size="14.00" fill="lightgray">wff ( ( ph / ps ) / ch / th )</text>
</g>
<!-- n19876 -->
<g id="node8" class="node"><title>n19876</title>
<ellipse fill="none" stroke="lightgray" cx="330.447" cy="-297" rx="27" ry="18"/>
<text text-anchor="middle" x="330.447" y="-293.3" font-family="Times New Roman,serif" font-size="14.00" fill="lightgray">wph</text>
</g>
<!-- n19875&#45;&gt;n19876 -->
<g id="edge21" class="edge"><title>n19875&#45;&gt;n19876</title>
</g>
<!-- n19873&#45;&gt;n19875 -->
<g id="edge5" class="edge"><title>n19873&#45;&gt;n19875</title>
<path fill="none" stroke="lightgray" d="M181.116,-369C210.877,-369 259.712,-369 293.161,-369"/>
<polygon fill="lightgray" stroke="lightgray" points="293.437,-372.5 303.437,-369 293.437,-365.5 293.437,-372.5"/>
<text text-anchor="middle" x="238.5" y="-372.8" font-family="Times New Roman,serif" font-size="14.00" fill="lightgray">wff ch</text>
</g>
<!-- n19874 -->
<g id="node6" class="node"><title>n19874</title>
<ellipse fill="none" stroke="lightgray" cx="154" cy="-297" rx="27" ry="18"/>
<text text-anchor="middle" x="154" y="-293.3" font-family="Times New Roman,serif" font-size="14.00" fill="lightgray">wth</text>
</g>
<!-- n19873&#45;&gt;n19874 -->
<g id="edge9" class="edge"><title>n19873&#45;&gt;n19874</title>
</g>
<!-- n19874&#45;&gt;n19875 -->
<g id="edge6" class="edge"><title>n19874&#45;&gt;n19875</title>
<path fill="none" stroke="lightgray" d="M177.449,-306.265C207.935,-318.848 262.609,-341.414 297.404,-355.775"/>
<polygon fill="lightgray" stroke="lightgray" points="296.505,-359.19 307.084,-359.77 299.176,-352.72 296.505,-359.19"/>
<text text-anchor="middle" x="238.5" y="-350.8" font-family="Times New Roman,serif" font-size="14.00" fill="lightgray">wff th</text>
</g>
<!-- QED -->
<g id="node15" class="node"><title>QED</title>
</g>
<!-- n19883&#45;&gt;QED -->
<g id="edge20" class="edge"><title>n19883&#45;&gt;QED</title>
<path fill="none" stroke="black" d="M648.209,-260C706.351,-260 828.708,-260 891.48,-260"/>
<polygon fill="black" stroke="black" points="891.752,-263.5 901.752,-260 891.752,-256.5 891.752,-263.5"/>
<text text-anchor="middle" x="775.188" y="-263.8" font-family="Times New Roman,serif" font-size="14.00">|&#45; ( ( ( ( ph / ps ) / ch / th ) / ta ) &#45;&gt; ph )</text>
</g>
<!-- n19876&#45;&gt;n19883 -->
<g id="edge10" class="edge"><title>n19876&#45;&gt;n19883</title>
<path fill="none" stroke="lightgray" d="M357.024,-293.651C405.856,-287.258 512.785,-273.257 572.179,-265.481"/>
<polygon fill="lightgray" stroke="lightgray" points="572.88,-268.919 582.341,-264.15 571.971,-261.978 572.88,-268.919"/>
<text text-anchor="middle" x="473.394" y="-292.8" font-family="Times New Roman,serif" font-size="14.00" fill="lightgray">wff ph</text>
</g>
<!-- n19877 -->
<g id="node9" class="node"><title>n19877</title>
<ellipse fill="none" stroke="lightgray" cx="330.447" cy="-225" rx="27" ry="18"/>
<text text-anchor="middle" x="330.447" y="-221.3" font-family="Times New Roman,serif" font-size="14.00" fill="lightgray">wta</text>
</g>
<!-- n19876&#45;&gt;n19877 -->
<g id="edge22" class="edge"><title>n19876&#45;&gt;n19877</title>
</g>
<!-- n19877&#45;&gt;n19883 -->
<g id="edge11" class="edge"><title>n19877&#45;&gt;n19883</title>
<path fill="none" stroke="lightgray" d="M357.316,-227.329C400.312,-231.328 489.152,-240.125 563.894,-251 567.089,-251.465 570.392,-251.98 573.708,-252.522"/>
<polygon fill="lightgray" stroke="lightgray" points="573.152,-255.978 583.597,-254.203 574.325,-249.077 573.152,-255.978"/>
<text text-anchor="middle" x="473.394" y="-254.8" font-family="Times New Roman,serif" font-size="14.00" fill="lightgray">wff ta</text>
</g>
<!-- n19882 -->
<g id="node11" class="node"><title>n19882</title>
<ellipse fill="cyan" stroke="black" cx="330.447" cy="-153" rx="34.394" ry="18"/>
<text text-anchor="middle" x="330.447" y="-149.3" font-family="Times New Roman,serif" font-size="14.00">simp1l</text>
</g>
<!-- n19877&#45;&gt;n19882 -->
<g id="edge23" class="edge"><title>n19877&#45;&gt;n19882</title>
</g>
<!-- n19878 -->
<g id="node10" class="node"><title>n19878</title>
<ellipse fill="none" stroke="lightgray" cx="154" cy="-234" rx="27" ry="18"/>
<text text-anchor="middle" x="154" y="-230.3" font-family="Times New Roman,serif" font-size="14.00" fill="lightgray">wph</text>
</g>
<!-- n19878&#45;&gt;n19882 -->
<g id="edge12" class="edge"><title>n19878&#45;&gt;n19882</title>
<path fill="none" stroke="lightgray" d="M177.366,-224.379C202.127,-213.64 243.149,-195.587 278,-179 283.93,-176.178 290.201,-173.094 296.247,-170.068"/>
<polygon fill="lightgray" stroke="lightgray" points="298.133,-173.037 305.484,-165.407 294.98,-166.787 298.133,-173.037"/>
<text text-anchor="middle" x="238.5" y="-218.8" font-family="Times New Roman,serif" font-size="14.00" fill="lightgray">wff ph</text>
</g>
<!-- n19879 -->
<g id="node12" class="node"><title>n19879</title>
<ellipse fill="none" stroke="lightgray" cx="154" cy="-162" rx="27" ry="18"/>
<text text-anchor="middle" x="154" y="-158.3" font-family="Times New Roman,serif" font-size="14.00" fill="lightgray">wps</text>
</g>
<!-- n19878&#45;&gt;n19879 -->
<g id="edge17" class="edge"><title>n19878&#45;&gt;n19879</title>
</g>
<!-- n19882&#45;&gt;n19883 -->
<g id="edge16" class="edge"><title>n19882&#45;&gt;n19883</title>
<path fill="none" stroke="black" d="M364.635,-155.778C411.634,-160.889 499.069,-174.81 563.894,-211 575.238,-217.333 585.84,-226.903 594.346,-235.91"/>
<polygon fill="black" stroke="black" points="591.959,-238.489 601.248,-243.584 597.164,-233.809 591.959,-238.489"/>
<text text-anchor="middle" x="473.394" y="-214.8" font-family="Times New Roman,serif" font-size="14.00">|&#45; ( ( ( ph / ps ) / ch / th ) &#45;&gt; ph )</text>
</g>
<!-- n19879&#45;&gt;n19882 -->
<g id="edge13" class="edge"><title>n19879&#45;&gt;n19882</title>
<path fill="none" stroke="lightgray" d="M181.116,-160.653C208.733,-159.228 252.775,-156.956 285.705,-155.257"/>
<polygon fill="lightgray" stroke="lightgray" points="286.165,-158.738 295.971,-154.727 285.804,-151.747 286.165,-158.738"/>
<text text-anchor="middle" x="238.5" y="-163.8" font-family="Times New Roman,serif" font-size="14.00" fill="lightgray">wff ps</text>
</g>
<!-- n19880 -->
<g id="node13" class="node"><title>n19880</title>
<ellipse fill="none" stroke="lightgray" cx="154" cy="-90" rx="27" ry="18"/>
<text text-anchor="middle" x="154" y="-86.3" font-family="Times New Roman,serif" font-size="14.00" fill="lightgray">wch</text>
</g>
<!-- n19879&#45;&gt;n19880 -->
<g id="edge18" class="edge"><title>n19879&#45;&gt;n19880</title>
</g>
<!-- n19880&#45;&gt;n19882 -->
<g id="edge14" class="edge"><title>n19880&#45;&gt;n19882</title>
<path fill="none" stroke="lightgray" d="M178.165,-98.3659C207.183,-108.846 257.283,-126.939 291.829,-139.415"/>
<polygon fill="lightgray" stroke="lightgray" points="290.976,-142.828 301.57,-142.933 293.354,-136.244 290.976,-142.828"/>
<text text-anchor="middle" x="238.5" y="-138.8" font-family="Times New Roman,serif" font-size="14.00" fill="lightgray">wff ch</text>
</g>
<!-- n19881 -->
<g id="node14" class="node"><title>n19881</title>
<ellipse fill="none" stroke="lightgray" cx="154" cy="-18" rx="27" ry="18"/>
<text text-anchor="middle" x="154" y="-14.3" font-family="Times New Roman,serif" font-size="14.00" fill="lightgray">wth</text>
</g>
<!-- n19880&#45;&gt;n19881 -->
<g id="edge19" class="edge"><title>n19880&#45;&gt;n19881</title>
</g>
<!-- n19881&#45;&gt;n19882 -->
<g id="edge15" class="edge"><title>n19881&#45;&gt;n19882</title>
<path fill="none" stroke="lightgray" d="M177.045,-27.388C202.98,-39.1112 246.492,-60.9547 278,-88 291.309,-99.4242 303.606,-114.703 312.839,-127.577"/>
<polygon fill="lightgray" stroke="lightgray" points="310.133,-129.816 318.715,-136.028 315.88,-125.82 310.133,-129.816"/>
<text text-anchor="middle" x="238.5" y="-91.8" font-family="Times New Roman,serif" font-size="14.00" fill="lightgray">wff th</text>
</g>
</g>
</svg>
