<?xml version="1.0" encoding="UTF-8" standalone="no"?>
<!DOCTYPE svg PUBLIC "-//W3C//DTD SVG 1.1//EN"
 "http://www.w3.org/Graphics/SVG/1.1/DTD/svg11.dtd">
<!-- Generated by graphviz version 2.38.0 (20140413.2041)
 -->
<!-- Title: proof_simprrr Pages: 1 -->
<svg width="724pt" height="407pt"
 viewBox="0.00 0.00 723.58 407.00" xmlns="http://www.w3.org/2000/svg" xmlns:xlink="http://www.w3.org/1999/xlink">
<g id="graph0" class="graph" transform="scale(1 1) rotate(0) translate(4 403)">
<title>proof_simprrr</title>
<polygon fill="white" stroke="none" points="-4,4 -4,-403 719.582,-403 719.582,4 -4,4"/>
<!-- n12863 -->
<g id="node1" class="node"><title>n12863</title>
<ellipse fill="none" stroke="lightgray" cx="27" cy="-381" rx="27" ry="18"/>
<text text-anchor="middle" x="27" y="-377.3" font-family="Times New Roman,serif" font-size="14.00" fill="lightgray">wch</text>
</g>
<!-- n12865 -->
<g id="node2" class="node"><title>n12865</title>
<ellipse fill="none" stroke="lightgray" cx="158.197" cy="-341" rx="27" ry="18"/>
<text text-anchor="middle" x="158.197" y="-337.3" font-family="Times New Roman,serif" font-size="14.00" fill="lightgray">wa</text>
</g>
<!-- n12863&#45;&gt;n12865 -->
<g id="edge1" class="edge"><title>n12863&#45;&gt;n12865</title>
<path fill="none" stroke="lightgray" d="M51.6968,-373.663C71.7857,-367.444 100.84,-358.448 123.374,-351.472"/>
<polygon fill="lightgray" stroke="lightgray" points="124.696,-354.727 133.213,-348.426 122.625,-348.04 124.696,-354.727"/>
<text text-anchor="middle" x="90.5" y="-370.8" font-family="Times New Roman,serif" font-size="14.00" fill="lightgray">wff ch</text>
</g>
<!-- n12864 -->
<g id="node3" class="node"><title>n12864</title>
<ellipse fill="none" stroke="lightgray" cx="27" cy="-309" rx="27" ry="18"/>
<text text-anchor="middle" x="27" y="-305.3" font-family="Times New Roman,serif" font-size="14.00" fill="lightgray">wth</text>
</g>
<!-- n12863&#45;&gt;n12864 -->
<g id="edge4" class="edge"><title>n12863&#45;&gt;n12864</title>
</g>
<!-- n12872 -->
<g id="node4" class="node"><title>n12872</title>
<ellipse fill="cyan" stroke="black" cx="377.741" cy="-197" rx="38.1938" ry="18"/>
<text text-anchor="middle" x="377.741" y="-193.3" font-family="Times New Roman,serif" font-size="14.00">ad2antll</text>
</g>
<!-- n12865&#45;&gt;n12872 -->
<g id="edge3" class="edge"><title>n12865&#45;&gt;n12872</title>
<path fill="none" stroke="lightgray" d="M183.86,-334.936C217.626,-325.708 278.893,-305.577 321.394,-272 338.166,-258.75 352.364,-239.209 362.179,-223.394"/>
<polygon fill="lightgray" stroke="lightgray" points="365.315,-224.969 367.439,-214.59 359.306,-221.38 365.315,-224.969"/>
<text text-anchor="middle" x="264.394" y="-331.8" font-family="Times New Roman,serif" font-size="14.00" fill="lightgray">wff ( ch /\ th )</text>
</g>
<!-- n12866 -->
<g id="node5" class="node"><title>n12866</title>
<ellipse fill="none" stroke="lightgray" cx="158.197" cy="-269" rx="27" ry="18"/>
<text text-anchor="middle" x="158.197" y="-265.3" font-family="Times New Roman,serif" font-size="14.00" fill="lightgray">wth</text>
</g>
<!-- n12865&#45;&gt;n12866 -->
<g id="edge13" class="edge"><title>n12865&#45;&gt;n12866</title>
</g>
<!-- n12864&#45;&gt;n12865 -->
<g id="edge2" class="edge"><title>n12864&#45;&gt;n12865</title>
<path fill="none" stroke="lightgray" d="M52.9134,-314.105C68.9836,-317.504 90.2999,-322.212 109,-327 113.711,-328.206 118.659,-329.552 123.516,-330.919"/>
<polygon fill="lightgray" stroke="lightgray" points="122.677,-334.32 133.255,-333.717 124.61,-327.592 122.677,-334.32"/>
<text text-anchor="middle" x="90.5" y="-330.8" font-family="Times New Roman,serif" font-size="14.00" fill="lightgray">wff th</text>
</g>
<!-- QED -->
<g id="node11" class="node"><title>QED</title>
</g>
<!-- n12872&#45;&gt;QED -->
<g id="edge12" class="edge"><title>n12872&#45;&gt;QED</title>
<path fill="none" stroke="black" d="M416.336,-197C475.014,-197 587.765,-197 646.935,-197"/>
<polygon fill="black" stroke="black" points="646.99,-200.5 656.99,-197 646.99,-193.5 646.99,-200.5"/>
<text text-anchor="middle" x="536.588" y="-200.8" font-family="Times New Roman,serif" font-size="14.00">|&#45; ( ( ph /\ ( ps /\ ( ch /\ th ) ) ) &#45;&gt; th )</text>
</g>
<!-- n12866&#45;&gt;n12872 -->
<g id="edge5" class="edge"><title>n12866&#45;&gt;n12872</title>
<path fill="none" stroke="lightgray" d="M182.872,-261.386C214.492,-251.188 272.237,-232.468 321.394,-216 326.325,-214.348 331.497,-212.597 336.616,-210.853"/>
<polygon fill="lightgray" stroke="lightgray" points="337.99,-214.082 346.319,-207.534 335.724,-207.459 337.99,-214.082"/>
<text text-anchor="middle" x="264.394" y="-256.8" font-family="Times New Roman,serif" font-size="14.00" fill="lightgray">wff th</text>
</g>
<!-- n12867 -->
<g id="node6" class="node"><title>n12867</title>
<ellipse fill="none" stroke="lightgray" cx="158.197" cy="-197" rx="27" ry="18"/>
<text text-anchor="middle" x="158.197" y="-193.3" font-family="Times New Roman,serif" font-size="14.00" fill="lightgray">wph</text>
</g>
<!-- n12866&#45;&gt;n12867 -->
<g id="edge14" class="edge"><title>n12866&#45;&gt;n12867</title>
</g>
<!-- n12867&#45;&gt;n12872 -->
<g id="edge6" class="edge"><title>n12867&#45;&gt;n12872</title>
<path fill="none" stroke="lightgray" d="M185.438,-197C220.904,-197 284.77,-197 328.893,-197"/>
<polygon fill="lightgray" stroke="lightgray" points="329.099,-200.5 339.099,-197 329.099,-193.5 329.099,-200.5"/>
<text text-anchor="middle" x="264.394" y="-200.8" font-family="Times New Roman,serif" font-size="14.00" fill="lightgray">wff ph</text>
</g>
<!-- n12868 -->
<g id="node7" class="node"><title>n12868</title>
<ellipse fill="none" stroke="lightgray" cx="158.197" cy="-125" rx="27" ry="18"/>
<text text-anchor="middle" x="158.197" y="-121.3" font-family="Times New Roman,serif" font-size="14.00" fill="lightgray">wps</text>
</g>
<!-- n12867&#45;&gt;n12868 -->
<g id="edge15" class="edge"><title>n12867&#45;&gt;n12868</title>
</g>
<!-- n12868&#45;&gt;n12872 -->
<g id="edge7" class="edge"><title>n12868&#45;&gt;n12872</title>
<path fill="none" stroke="lightgray" d="M182.872,-132.614C214.492,-142.812 272.237,-161.532 321.394,-178 326.325,-179.652 331.497,-181.403 336.616,-183.147"/>
<polygon fill="lightgray" stroke="lightgray" points="335.724,-186.541 346.319,-186.466 337.99,-179.918 335.724,-186.541"/>
<text text-anchor="middle" x="264.394" y="-181.8" font-family="Times New Roman,serif" font-size="14.00" fill="lightgray">wff ps</text>
</g>
<!-- n12871 -->
<g id="node9" class="node"><title>n12871</title>
<ellipse fill="cyan" stroke="black" cx="158.197" cy="-53" rx="31.3957" ry="18"/>
<text text-anchor="middle" x="158.197" y="-49.3" font-family="Times New Roman,serif" font-size="14.00">simpr</text>
</g>
<!-- n12868&#45;&gt;n12871 -->
<g id="edge16" class="edge"><title>n12868&#45;&gt;n12871</title>
</g>
<!-- n12869 -->
<g id="node8" class="node"><title>n12869</title>
<ellipse fill="none" stroke="lightgray" cx="27" cy="-90" rx="27" ry="18"/>
<text text-anchor="middle" x="27" y="-86.3" font-family="Times New Roman,serif" font-size="14.00" fill="lightgray">wch</text>
</g>
<!-- n12869&#45;&gt;n12871 -->
<g id="edge8" class="edge"><title>n12869&#45;&gt;n12871</title>
<path fill="none" stroke="lightgray" d="M51.9982,-83.1273C71.1095,-77.6541 98.1938,-69.8976 120.094,-63.6257"/>
<polygon fill="lightgray" stroke="lightgray" points="121.095,-66.9799 129.745,-60.862 119.168,-60.2505 121.095,-66.9799"/>
<text text-anchor="middle" x="90.5" y="-80.8" font-family="Times New Roman,serif" font-size="14.00" fill="lightgray">wff ch</text>
</g>
<!-- n12870 -->
<g id="node10" class="node"><title>n12870</title>
<ellipse fill="none" stroke="lightgray" cx="27" cy="-18" rx="27" ry="18"/>
<text text-anchor="middle" x="27" y="-14.3" font-family="Times New Roman,serif" font-size="14.00" fill="lightgray">wth</text>
</g>
<!-- n12869&#45;&gt;n12870 -->
<g id="edge11" class="edge"><title>n12869&#45;&gt;n12870</title>
</g>
<!-- n12871&#45;&gt;n12872 -->
<g id="edge10" class="edge"><title>n12871&#45;&gt;n12872</title>
<path fill="none" stroke="black" d="M187.05,-60.1957C221.342,-70.0755 280.102,-90.4185 321.394,-123 337.924,-136.042 352.052,-155.161 361.896,-170.698"/>
<polygon fill="black" stroke="black" points="358.985,-172.647 367.183,-179.359 364.96,-169 358.985,-172.647"/>
<text text-anchor="middle" x="264.394" y="-126.8" font-family="Times New Roman,serif" font-size="14.00">|&#45; ( ( ch /\ th ) &#45;&gt; th )</text>
</g>
<!-- n12870&#45;&gt;n12871 -->
<g id="edge9" class="edge"><title>n12870&#45;&gt;n12871</title>
<path fill="none" stroke="lightgray" d="M52.301,-24.5832C71.2318,-29.7117 97.8502,-36.9227 119.535,-42.7972"/>
<polygon fill="lightgray" stroke="lightgray" points="118.849,-46.2375 129.417,-45.4742 120.68,-39.4811 118.849,-46.2375"/>
<text text-anchor="middle" x="90.5" y="-43.8" font-family="Times New Roman,serif" font-size="14.00" fill="lightgray">wff th</text>
</g>
</g>
</svg>
