<?xml version="1.0" encoding="UTF-8" standalone="no"?>
<!DOCTYPE svg PUBLIC "-//W3C//DTD SVG 1.1//EN"
 "http://www.w3.org/Graphics/SVG/1.1/DTD/svg11.dtd">
<!-- Generated by graphviz version 2.38.0 (20140413.2041)
 -->
<!-- Title: proof_simp_11l Pages: 1 -->
<svg width="4569pt" height="1200pt"
 viewBox="0.00 0.00 4568.67 1199.53" xmlns="http://www.w3.org/2000/svg" xmlns:xlink="http://www.w3.org/1999/xlink">
<g id="graph0" class="graph" transform="scale(1 1) rotate(0) translate(4 1195.53)">
<title>proof_simp_11l</title>
<polygon fill="white" stroke="none" points="-4,4 -4,-1195.53 4564.67,-1195.53 4564.67,4 -4,4"/>
<!-- n13209 -->
<g id="node1" class="node"><title>n13209</title>
<ellipse fill="none" stroke="lightgray" cx="27" cy="-1173.53" rx="27" ry="18"/>
<text text-anchor="middle" x="27" y="-1169.83" font-family="Times New Roman,serif" font-size="14.00" fill="lightgray">wph</text>
</g>
<!-- n13211 -->
<g id="node2" class="node"><title>n13211</title>
<ellipse fill="none" stroke="lightgray" cx="154" cy="-1141.53" rx="27" ry="18"/>
<text text-anchor="middle" x="154" y="-1137.83" font-family="Times New Roman,serif" font-size="14.00" fill="lightgray">wa</text>
</g>
<!-- n13209&#45;&gt;n13211 -->
<g id="edge1" class="edge"><title>n13209&#45;&gt;n13211</title>
<path fill="none" stroke="lightgray" d="M52.398,-1167.29C71.326,-1162.44 97.7933,-1155.66 118.83,-1150.28"/>
<polygon fill="lightgray" stroke="lightgray" points="119.844,-1153.63 128.664,-1147.76 118.108,-1146.85 119.844,-1153.63"/>
<text text-anchor="middle" x="90.5" y="-1165.33" font-family="Times New Roman,serif" font-size="14.00" fill="lightgray">wff ph</text>
</g>
<!-- n13210 -->
<g id="node3" class="node"><title>n13210</title>
<ellipse fill="none" stroke="lightgray" cx="27" cy="-1101.53" rx="27" ry="18"/>
<text text-anchor="middle" x="27" y="-1097.83" font-family="Times New Roman,serif" font-size="14.00" fill="lightgray">wps</text>
</g>
<!-- n13209&#45;&gt;n13210 -->
<g id="edge4" class="edge"><title>n13209&#45;&gt;n13210</title>
</g>
<!-- n13213 -->
<g id="node4" class="node"><title>n13213</title>
<ellipse fill="none" stroke="lightgray" cx="326" cy="-1109.53" rx="27" ry="18"/>
<text text-anchor="middle" x="326" y="-1105.83" font-family="Times New Roman,serif" font-size="14.00" fill="lightgray">wa</text>
</g>
<!-- n13211&#45;&gt;n13213 -->
<g id="edge3" class="edge"><title>n13211&#45;&gt;n13213</title>
<path fill="none" stroke="lightgray" d="M180.084,-1136.81C209.087,-1131.35 257.024,-1122.33 289.761,-1116.16"/>
<polygon fill="lightgray" stroke="lightgray" points="290.633,-1119.56 299.813,-1114.27 289.338,-1112.68 290.633,-1119.56"/>
<text text-anchor="middle" x="240" y="-1136.33" font-family="Times New Roman,serif" font-size="14.00" fill="lightgray">wff ( ph /\ ps )</text>
</g>
<!-- n13212 -->
<g id="node5" class="node"><title>n13212</title>
<ellipse fill="none" stroke="lightgray" cx="154" cy="-1069.53" rx="27" ry="18"/>
<text text-anchor="middle" x="154" y="-1065.83" font-family="Times New Roman,serif" font-size="14.00" fill="lightgray">wch</text>
</g>
<!-- n13211&#45;&gt;n13212 -->
<g id="edge7" class="edge"><title>n13211&#45;&gt;n13212</title>
</g>
<!-- n13210&#45;&gt;n13211 -->
<g id="edge2" class="edge"><title>n13210&#45;&gt;n13211</title>
<path fill="none" stroke="lightgray" d="M51.8058,-1109.15C71.0071,-1115.29 98.2415,-1124.01 119.621,-1130.85"/>
<polygon fill="lightgray" stroke="lightgray" points="118.692,-1134.23 129.283,-1133.94 120.825,-1127.56 118.692,-1134.23"/>
<text text-anchor="middle" x="90.5" y="-1130.33" font-family="Times New Roman,serif" font-size="14.00" fill="lightgray">wff ps</text>
</g>
<!-- n13215 -->
<g id="node6" class="node"><title>n13215</title>
<ellipse fill="none" stroke="lightgray" cx="543" cy="-1077.53" rx="27" ry="18"/>
<text text-anchor="middle" x="543" y="-1073.83" font-family="Times New Roman,serif" font-size="14.00" fill="lightgray">wa</text>
</g>
<!-- n13213&#45;&gt;n13215 -->
<g id="edge6" class="edge"><title>n13213&#45;&gt;n13215</title>
<path fill="none" stroke="lightgray" d="M352.508,-1105.74C390.734,-1100.05 463.017,-1089.29 506.415,-1082.83"/>
<polygon fill="lightgray" stroke="lightgray" points="507.15,-1086.26 516.526,-1081.32 506.119,-1079.33 507.15,-1086.26"/>
<text text-anchor="middle" x="434.5" y="-1106.33" font-family="Times New Roman,serif" font-size="14.00" fill="lightgray">wff ( ( ph /\ ps ) /\ ch )</text>
</g>
<!-- n13214 -->
<g id="node7" class="node"><title>n13214</title>
<ellipse fill="none" stroke="lightgray" cx="326" cy="-1037.53" rx="27" ry="18"/>
<text text-anchor="middle" x="326" y="-1033.83" font-family="Times New Roman,serif" font-size="14.00" fill="lightgray">wth</text>
</g>
<!-- n13213&#45;&gt;n13214 -->
<g id="edge10" class="edge"><title>n13213&#45;&gt;n13214</title>
</g>
<!-- n13212&#45;&gt;n13213 -->
<g id="edge5" class="edge"><title>n13212&#45;&gt;n13213</title>
<path fill="none" stroke="lightgray" d="M180.134,-1075.17C205.589,-1080.92 246.077,-1090.15 281,-1098.53 284.041,-1099.26 287.198,-1100.03 290.361,-1100.81"/>
<polygon fill="lightgray" stroke="lightgray" points="289.804,-1104.27 300.352,-1103.28 291.488,-1097.48 289.804,-1104.27"/>
<text text-anchor="middle" x="240" y="-1102.33" font-family="Times New Roman,serif" font-size="14.00" fill="lightgray">wff ch</text>
</g>
<!-- n13217 -->
<g id="node8" class="node"><title>n13217</title>
<ellipse fill="none" stroke="lightgray" cx="802" cy="-1045.53" rx="27" ry="18"/>
<text text-anchor="middle" x="802" y="-1041.83" font-family="Times New Roman,serif" font-size="14.00" fill="lightgray">wa</text>
</g>
<!-- n13215&#45;&gt;n13217 -->
<g id="edge9" class="edge"><title>n13215&#45;&gt;n13217</title>
<path fill="none" stroke="lightgray" d="M569.582,-1074.35C615.55,-1068.62 712.226,-1056.59 764.909,-1050.03"/>
<polygon fill="lightgray" stroke="lightgray" points="765.649,-1053.46 775.14,-1048.75 764.784,-1046.51 765.649,-1053.46"/>
<text text-anchor="middle" x="672.5" y="-1074.33" font-family="Times New Roman,serif" font-size="14.00" fill="lightgray">wff ( ( ( ph /\ ps ) /\ ch ) /\ th )</text>
</g>
<!-- n13216 -->
<g id="node9" class="node"><title>n13216</title>
<ellipse fill="none" stroke="lightgray" cx="543" cy="-1005.53" rx="27" ry="18"/>
<text text-anchor="middle" x="543" y="-1001.83" font-family="Times New Roman,serif" font-size="14.00" fill="lightgray">wta</text>
</g>
<!-- n13215&#45;&gt;n13216 -->
<g id="edge13" class="edge"><title>n13215&#45;&gt;n13216</title>
</g>
<!-- n13214&#45;&gt;n13215 -->
<g id="edge8" class="edge"><title>n13214&#45;&gt;n13215</title>
<path fill="none" stroke="lightgray" d="M352.692,-1040.52C386.322,-1044.68 446.987,-1053.02 498,-1064.53 501.445,-1065.31 505.018,-1066.21 508.569,-1067.16"/>
<polygon fill="lightgray" stroke="lightgray" points="507.825,-1070.59 518.401,-1069.94 509.731,-1063.85 507.825,-1070.59"/>
<text text-anchor="middle" x="434.5" y="-1068.33" font-family="Times New Roman,serif" font-size="14.00" fill="lightgray">wff th</text>
</g>
<!-- n13219 -->
<g id="node10" class="node"><title>n13219</title>
<ellipse fill="none" stroke="lightgray" cx="1103" cy="-1013.53" rx="27" ry="18"/>
<text text-anchor="middle" x="1103" y="-1009.83" font-family="Times New Roman,serif" font-size="14.00" fill="lightgray">wa</text>
</g>
<!-- n13217&#45;&gt;n13219 -->
<g id="edge12" class="edge"><title>n13217&#45;&gt;n13219</title>
<path fill="none" stroke="lightgray" d="M828.751,-1042.78C882.18,-1037.06 1005.18,-1023.89 1066.25,-1017.36"/>
<polygon fill="lightgray" stroke="lightgray" points="1066.63,-1020.84 1076.2,-1016.29 1065.89,-1013.88 1066.63,-1020.84"/>
<text text-anchor="middle" x="952.5" y="-1043.33" font-family="Times New Roman,serif" font-size="14.00" fill="lightgray">wff ( ( ( ( ph /\ ps ) /\ ch ) /\ th ) /\ ta )</text>
</g>
<!-- n13218 -->
<g id="node11" class="node"><title>n13218</title>
<ellipse fill="none" stroke="lightgray" cx="802" cy="-973.532" rx="27" ry="18"/>
<text text-anchor="middle" x="802" y="-969.832" font-family="Times New Roman,serif" font-size="14.00" fill="lightgray">wet</text>
</g>
<!-- n13217&#45;&gt;n13218 -->
<g id="edge16" class="edge"><title>n13217&#45;&gt;n13218</title>
</g>
<!-- n13216&#45;&gt;n13217 -->
<g id="edge11" class="edge"><title>n13216&#45;&gt;n13217</title>
<path fill="none" stroke="lightgray" d="M570.127,-1007.48C610.52,-1010.79 690.421,-1018.57 757,-1032.53 760.457,-1033.26 764.036,-1034.12 767.592,-1035.05"/>
<polygon fill="lightgray" stroke="lightgray" points="766.857,-1038.48 777.43,-1037.81 768.744,-1031.74 766.857,-1038.48"/>
<text text-anchor="middle" x="672.5" y="-1036.33" font-family="Times New Roman,serif" font-size="14.00" fill="lightgray">wff ta</text>
</g>
<!-- n13221 -->
<g id="node12" class="node"><title>n13221</title>
<ellipse fill="none" stroke="lightgray" cx="1445" cy="-981.532" rx="27" ry="18"/>
<text text-anchor="middle" x="1445" y="-977.832" font-family="Times New Roman,serif" font-size="14.00" fill="lightgray">wa</text>
</g>
<!-- n13219&#45;&gt;n13221 -->
<g id="edge15" class="edge"><title>n13219&#45;&gt;n13221</title>
<path fill="none" stroke="lightgray" d="M1129.83,-1011.1C1189.85,-1005.45 1338.82,-991.43 1407.84,-984.935"/>
<polygon fill="lightgray" stroke="lightgray" points="1408.58,-988.381 1418.2,-983.959 1407.92,-981.412 1408.58,-988.381"/>
<text text-anchor="middle" x="1274" y="-1012.33" font-family="Times New Roman,serif" font-size="14.00" fill="lightgray">wff ( ( ( ( ( ph /\ ps ) /\ ch ) /\ th ) /\ ta ) /\ et )</text>
</g>
<!-- n13220 -->
<g id="node13" class="node"><title>n13220</title>
<ellipse fill="none" stroke="lightgray" cx="1103" cy="-941.532" rx="27" ry="18"/>
<text text-anchor="middle" x="1103" y="-937.832" font-family="Times New Roman,serif" font-size="14.00" fill="lightgray">wze</text>
</g>
<!-- n13219&#45;&gt;n13220 -->
<g id="edge19" class="edge"><title>n13219&#45;&gt;n13220</title>
</g>
<!-- n13218&#45;&gt;n13219 -->
<g id="edge14" class="edge"><title>n13218&#45;&gt;n13219</title>
<path fill="none" stroke="lightgray" d="M829.003,-974.106C875.47,-975.569 975.612,-980.701 1058,-998.532 1061.88,-999.372 1065.9,-1000.44 1069.85,-1001.63"/>
<polygon fill="lightgray" stroke="lightgray" points="1068.85,-1004.98 1079.45,-1004.73 1071.01,-998.321 1068.85,-1004.98"/>
<text text-anchor="middle" x="952.5" y="-1002.33" font-family="Times New Roman,serif" font-size="14.00" fill="lightgray">wff et</text>
</g>
<!-- n13223 -->
<g id="node14" class="node"><title>n13223</title>
<ellipse fill="none" stroke="lightgray" cx="1830" cy="-949.532" rx="27" ry="18"/>
<text text-anchor="middle" x="1830" y="-945.832" font-family="Times New Roman,serif" font-size="14.00" fill="lightgray">wa</text>
</g>
<!-- n13221&#45;&gt;n13223 -->
<g id="edge18" class="edge"><title>n13221&#45;&gt;n13223</title>
<path fill="none" stroke="lightgray" d="M1472.02,-979.357C1538.84,-973.775 1716.53,-958.929 1793.08,-952.532"/>
<polygon fill="lightgray" stroke="lightgray" points="1793.52,-956.008 1803.19,-951.688 1792.94,-949.033 1793.52,-956.008"/>
<text text-anchor="middle" x="1637.5" y="-981.332" font-family="Times New Roman,serif" font-size="14.00" fill="lightgray">wff ( ( ( ( ( ( ph /\ ps ) /\ ch ) /\ th ) /\ ta ) /\ et ) /\ ze )</text>
</g>
<!-- n13222 -->
<g id="node15" class="node"><title>n13222</title>
<ellipse fill="none" stroke="lightgray" cx="1445" cy="-909.532" rx="27" ry="18"/>
<text text-anchor="middle" x="1445" y="-905.832" font-family="Times New Roman,serif" font-size="14.00" fill="lightgray">wsi</text>
</g>
<!-- n13221&#45;&gt;n13222 -->
<g id="edge22" class="edge"><title>n13221&#45;&gt;n13222</title>
</g>
<!-- n13220&#45;&gt;n13221 -->
<g id="edge17" class="edge"><title>n13220&#45;&gt;n13221</title>
<path fill="none" stroke="lightgray" d="M1130.04,-941.608C1181.96,-942.223 1301.82,-945.974 1400,-966.532 1403.89,-967.346 1407.91,-968.401 1411.86,-969.575"/>
<polygon fill="lightgray" stroke="lightgray" points="1410.87,-972.931 1421.46,-972.668 1413.01,-966.269 1410.87,-972.931"/>
<text text-anchor="middle" x="1274" y="-970.332" font-family="Times New Roman,serif" font-size="14.00" fill="lightgray">wff ze</text>
</g>
<!-- n13225 -->
<g id="node16" class="node"><title>n13225</title>
<ellipse fill="none" stroke="lightgray" cx="2257.6" cy="-917.532" rx="27" ry="18"/>
<text text-anchor="middle" x="2257.6" y="-913.832" font-family="Times New Roman,serif" font-size="14.00" fill="lightgray">wa</text>
</g>
<!-- n13223&#45;&gt;n13225 -->
<g id="edge21" class="edge"><title>n13223&#45;&gt;n13225</title>
<path fill="none" stroke="lightgray" d="M1856.98,-947.578C1929.93,-942.093 2136.77,-926.541 2220.62,-920.237"/>
<polygon fill="lightgray" stroke="lightgray" points="2220.98,-923.72 2230.69,-919.48 2220.45,-916.74 2220.98,-923.72"/>
<text text-anchor="middle" x="2043" y="-949.332" font-family="Times New Roman,serif" font-size="14.00" fill="lightgray">wff ( ( ( ( ( ( ( ph /\ ps ) /\ ch ) /\ th ) /\ ta ) /\ et ) /\ ze ) /\ si )</text>
</g>
<!-- n13224 -->
<g id="node17" class="node"><title>n13224</title>
<ellipse fill="none" stroke="lightgray" cx="1830" cy="-877.532" rx="27" ry="18"/>
<text text-anchor="middle" x="1830" y="-873.832" font-family="Times New Roman,serif" font-size="14.00" fill="lightgray">wrh</text>
</g>
<!-- n13223&#45;&gt;n13224 -->
<g id="edge25" class="edge"><title>n13223&#45;&gt;n13224</title>
</g>
<!-- n13222&#45;&gt;n13223 -->
<g id="edge20" class="edge"><title>n13222&#45;&gt;n13223</title>
<path fill="none" stroke="lightgray" d="M1472.29,-908.93C1529.72,-908.149 1670.45,-909.149 1785,-933.532 1788.91,-934.364 1792.95,-935.468 1796.91,-936.709"/>
<polygon fill="lightgray" stroke="lightgray" points="1795.92,-940.069 1806.52,-939.995 1798.19,-933.446 1795.92,-940.069"/>
<text text-anchor="middle" x="1637.5" y="-937.332" font-family="Times New Roman,serif" font-size="14.00" fill="lightgray">wff si</text>
</g>
<!-- n13227 -->
<g id="node18" class="node"><title>n13227</title>
<ellipse fill="none" stroke="lightgray" cx="2729.79" cy="-885.532" rx="27" ry="18"/>
<text text-anchor="middle" x="2729.79" y="-881.832" font-family="Times New Roman,serif" font-size="14.00" fill="lightgray">wa</text>
</g>
<!-- n13225&#45;&gt;n13227 -->
<g id="edge24" class="edge"><title>n13225&#45;&gt;n13227</title>
<path fill="none" stroke="lightgray" d="M2284.55,-915.766C2363.53,-910.39 2601.17,-894.217 2692.49,-888.002"/>
<polygon fill="lightgray" stroke="lightgray" points="2692.89,-891.483 2702.63,-887.312 2692.42,-884.499 2692.89,-891.483"/>
<text text-anchor="middle" x="2493.69" y="-917.332" font-family="Times New Roman,serif" font-size="14.00" fill="lightgray">wff ( ( ( ( ( ( ( ( ph /\ ps ) /\ ch ) /\ th ) /\ ta ) /\ et ) /\ ze ) /\ si ) /\ rh )</text>
</g>
<!-- n13226 -->
<g id="node19" class="node"><title>n13226</title>
<ellipse fill="none" stroke="lightgray" cx="2257.6" cy="-845.532" rx="28.6953" ry="18"/>
<text text-anchor="middle" x="2257.6" y="-841.832" font-family="Times New Roman,serif" font-size="14.00" fill="lightgray">wmu</text>
</g>
<!-- n13225&#45;&gt;n13226 -->
<g id="edge28" class="edge"><title>n13225&#45;&gt;n13226</title>
</g>
<!-- n13224&#45;&gt;n13225 -->
<g id="edge23" class="edge"><title>n13224&#45;&gt;n13225</title>
<path fill="none" stroke="lightgray" d="M1857.12,-876.739C1919.2,-875.382 2080.14,-874.968 2211,-901.532 2215.47,-902.439 2220.09,-903.681 2224.61,-905.077"/>
<polygon fill="lightgray" stroke="lightgray" points="2223.62,-908.436 2234.21,-908.304 2225.85,-901.801 2223.62,-908.436"/>
<text text-anchor="middle" x="2043" y="-905.332" font-family="Times New Roman,serif" font-size="14.00" fill="lightgray">wff rh</text>
</g>
<!-- n13229 -->
<g id="node20" class="node"><title>n13229</title>
<ellipse fill="none" stroke="lightgray" cx="3263.64" cy="-711.532" rx="27" ry="18"/>
<text text-anchor="middle" x="3263.64" y="-707.832" font-family="Times New Roman,serif" font-size="14.00" fill="lightgray">wa</text>
</g>
<!-- n13227&#45;&gt;n13229 -->
<g id="edge27" class="edge"><title>n13227&#45;&gt;n13229</title>
<path fill="none" stroke="lightgray" d="M2756.56,-888.644C2832.42,-896.428 3058.68,-909.608 3203.39,-811.532 3228.85,-794.273 3245,-762.11 3253.9,-738.912"/>
<polygon fill="lightgray" stroke="lightgray" points="3257.27,-739.874 3257.38,-729.28 3250.69,-737.496 3257.27,-739.874"/>
<text text-anchor="middle" x="2989.89" y="-897.332" font-family="Times New Roman,serif" font-size="14.00" fill="lightgray">wff ( ( ( ( ( ( ( ( ( ph /\ ps ) /\ ch ) /\ th ) /\ ta ) /\ et ) /\ ze ) /\ si ) /\ rh ) /\ mu )</text>
</g>
<!-- n13228 -->
<g id="node21" class="node"><title>n13228</title>
<ellipse fill="none" stroke="lightgray" cx="2729.79" cy="-813.532" rx="27" ry="18"/>
<text text-anchor="middle" x="2729.79" y="-809.832" font-family="Times New Roman,serif" font-size="14.00" fill="lightgray">wla</text>
</g>
<!-- n13227&#45;&gt;n13228 -->
<g id="edge31" class="edge"><title>n13227&#45;&gt;n13228</title>
</g>
<!-- n13226&#45;&gt;n13227 -->
<g id="edge26" class="edge"><title>n13226&#45;&gt;n13227</title>
<path fill="none" stroke="lightgray" d="M2286.25,-844.436C2354.46,-842.306 2535.85,-840.128 2683.19,-869.532 2687.67,-870.424 2692.29,-871.658 2696.81,-873.049"/>
<polygon fill="lightgray" stroke="lightgray" points="2695.82,-876.409 2706.41,-876.273 2698.05,-869.773 2695.82,-876.409"/>
<text text-anchor="middle" x="2493.69" y="-873.332" font-family="Times New Roman,serif" font-size="14.00" fill="lightgray">wff mu</text>
</g>
<!-- n13244 -->
<g id="node22" class="node"><title>n13244</title>
<ellipse fill="cyan" stroke="black" cx="3882.03" cy="-594.532" rx="33.2948" ry="18"/>
<text text-anchor="middle" x="3882.03" y="-590.832" font-family="Times New Roman,serif" font-size="14.00">adantr</text>
</g>
<!-- n13229&#45;&gt;n13244 -->
<g id="edge30" class="edge"><title>n13229&#45;&gt;n13244</title>
<path fill="none" stroke="lightgray" d="M3290.35,-714.592C3373.66,-723.313 3641.66,-741.942 3830.88,-647.532 3843.76,-641.106 3855.09,-629.943 3863.7,-619.514"/>
<polygon fill="lightgray" stroke="lightgray" points="3866.63,-621.454 3870.01,-611.412 3861.1,-617.155 3866.63,-621.454"/>
<text text-anchor="middle" x="3577.38" y="-725.332" font-family="Times New Roman,serif" font-size="14.00" fill="lightgray">wff ( ( ( ( ( ( ( ( ( ( ph /\ ps ) /\ ch ) /\ th ) /\ ta ) /\ et ) /\ ze ) /\ si ) /\ rh ) /\ mu ) /\ la )</text>
</g>
<!-- n13230 -->
<g id="node23" class="node"><title>n13230</title>
<ellipse fill="none" stroke="lightgray" cx="3263.64" cy="-631.532" rx="27" ry="18"/>
<text text-anchor="middle" x="3263.64" y="-627.832" font-family="Times New Roman,serif" font-size="14.00" fill="lightgray">wph</text>
</g>
<!-- n13229&#45;&gt;n13230 -->
<g id="edge57" class="edge"><title>n13229&#45;&gt;n13230</title>
</g>
<!-- n13228&#45;&gt;n13229 -->
<g id="edge29" class="edge"><title>n13228&#45;&gt;n13229</title>
<path fill="none" stroke="lightgray" d="M2753.25,-804.223C2760.54,-801.456 2768.73,-798.611 2776.39,-796.532 2941.82,-751.643 3145.58,-725.01 3226.78,-715.508"/>
<polygon fill="lightgray" stroke="lightgray" points="3227.43,-718.956 3236.96,-714.332 3226.63,-712.003 3227.43,-718.956"/>
<text text-anchor="middle" x="2989.89" y="-800.332" font-family="Times New Roman,serif" font-size="14.00" fill="lightgray">wff la</text>
</g>
<!-- QED -->
<g id="node37" class="node"><title>QED</title>
</g>
<!-- n13244&#45;&gt;QED -->
<g id="edge56" class="edge"><title>n13244&#45;&gt;QED</title>
<path fill="none" stroke="black" d="M3915.58,-594.532C4024.24,-594.532 4374.23,-594.532 4491.62,-594.532"/>
<polygon fill="black" stroke="black" points="4491.92,-598.032 4501.92,-594.532 4491.92,-591.032 4491.92,-598.032"/>
<text text-anchor="middle" x="4208.68" y="-598.332" font-family="Times New Roman,serif" font-size="14.00">|&#45; ( ( ( ( ( ( ( ( ( ( ( ( ph /\ ps ) /\ ch ) /\ th ) /\ ta ) /\ et ) /\ ze ) /\ si ) /\ rh ) /\ mu ) /\ la ) /\ ka ) &#45;&gt; ph )</text>
</g>
<!-- n13230&#45;&gt;n13244 -->
<g id="edge32" class="edge"><title>n13230&#45;&gt;n13244</title>
<path fill="none" stroke="lightgray" d="M3290.64,-630.704C3371.08,-628.017 3622.95,-618.644 3830.88,-600.532 3833.71,-600.285 3836.62,-600.006 3839.55,-599.705"/>
<polygon fill="lightgray" stroke="lightgray" points="3839.94,-603.184 3849.5,-598.618 3839.17,-596.225 3839.94,-603.184"/>
<text text-anchor="middle" x="3577.38" y="-632.332" font-family="Times New Roman,serif" font-size="14.00" fill="lightgray">wff ph</text>
</g>
<!-- n13231 -->
<g id="node24" class="node"><title>n13231</title>
<ellipse fill="none" stroke="lightgray" cx="3263.64" cy="-559.532" rx="27" ry="18"/>
<text text-anchor="middle" x="3263.64" y="-555.832" font-family="Times New Roman,serif" font-size="14.00" fill="lightgray">wka</text>
</g>
<!-- n13230&#45;&gt;n13231 -->
<g id="edge58" class="edge"><title>n13230&#45;&gt;n13231</title>
</g>
<!-- n13231&#45;&gt;n13244 -->
<g id="edge33" class="edge"><title>n13231&#45;&gt;n13244</title>
<path fill="none" stroke="lightgray" d="M3290.69,-559.51C3371.29,-559.705 3623.55,-562.269 3830.88,-585.532 3834.09,-585.892 3837.4,-586.332 3840.73,-586.822"/>
<polygon fill="lightgray" stroke="lightgray" points="3840.2,-590.282 3850.63,-588.413 3841.31,-583.371 3840.2,-590.282"/>
<text text-anchor="middle" x="3577.38" y="-589.332" font-family="Times New Roman,serif" font-size="14.00" fill="lightgray">wff ka</text>
</g>
<!-- n13243 -->
<g id="node26" class="node"><title>n13243</title>
<ellipse fill="cyan" stroke="black" cx="3263.64" cy="-471.532" rx="42.4939" ry="18"/>
<text text-anchor="middle" x="3263.64" y="-467.832" font-family="Times New Roman,serif" font-size="14.00">simp&#45;10l</text>
</g>
<!-- n13231&#45;&gt;n13243 -->
<g id="edge59" class="edge"><title>n13231&#45;&gt;n13243</title>
</g>
<!-- n13232 -->
<g id="node25" class="node"><title>n13232</title>
<ellipse fill="none" stroke="lightgray" cx="2729.79" cy="-759.532" rx="27" ry="18"/>
<text text-anchor="middle" x="2729.79" y="-755.832" font-family="Times New Roman,serif" font-size="14.00" fill="lightgray">wph</text>
</g>
<!-- n13232&#45;&gt;n13243 -->
<g id="edge34" class="edge"><title>n13232&#45;&gt;n13243</title>
<path fill="none" stroke="lightgray" d="M2741.18,-743.016C2751.55,-727.107 2767.22,-704.711 2776.39,-699.532 2859.49,-652.597 3134.56,-719.641 3203.39,-653.532 3242.6,-615.87 3201.67,-583.2 3221.39,-532.532 3226.32,-519.873 3234.26,-507.215 3241.86,-496.736"/>
<polygon fill="lightgray" stroke="lightgray" points="3244.86,-498.582 3248.1,-488.495 3239.27,-494.357 3244.86,-498.582"/>
<text text-anchor="middle" x="2989.89" y="-703.332" font-family="Times New Roman,serif" font-size="14.00" fill="lightgray">wff ph</text>
</g>
<!-- n13233 -->
<g id="node27" class="node"><title>n13233</title>
<ellipse fill="none" stroke="lightgray" cx="2729.79" cy="-687.532" rx="27" ry="18"/>
<text text-anchor="middle" x="2729.79" y="-683.832" font-family="Times New Roman,serif" font-size="14.00" fill="lightgray">wps</text>
</g>
<!-- n13232&#45;&gt;n13233 -->
<g id="edge46" class="edge"><title>n13232&#45;&gt;n13233</title>
</g>
<!-- n13243&#45;&gt;n13244 -->
<g id="edge45" class="edge"><title>n13243&#45;&gt;n13244</title>
<path fill="none" stroke="black" d="M3305.09,-467.37C3401.92,-459.261 3652.25,-449.383 3830.88,-540.532 3843.92,-547.185 3855.32,-558.677 3863.94,-569.354"/>
<polygon fill="black" stroke="black" points="3861.4,-571.794 3870.24,-577.634 3866.97,-567.556 3861.4,-571.794"/>
<text text-anchor="middle" x="3577.38" y="-544.332" font-family="Times New Roman,serif" font-size="14.00">|&#45; ( ( ( ( ( ( ( ( ( ( ( ph /\ ps ) /\ ch ) /\ th ) /\ ta ) /\ et ) /\ ze ) /\ si ) /\ rh ) /\ mu ) /\ la ) &#45;&gt; ph )</text>
</g>
<!-- n13233&#45;&gt;n13243 -->
<g id="edge35" class="edge"><title>n13233&#45;&gt;n13243</title>
<path fill="none" stroke="lightgray" d="M2741.33,-670.745C2749.42,-659.48 2761.68,-645.477 2776.39,-638.532 2862.36,-597.947 3131,-674.147 3203.39,-612.532 3231.14,-588.91 3206.93,-565.985 3221.39,-532.532 3226.82,-519.971 3234.92,-507.251 3242.5,-496.7"/>
<polygon fill="lightgray" stroke="lightgray" points="3245.52,-498.509 3248.69,-488.398 3239.91,-494.327 3245.52,-498.509"/>
<text text-anchor="middle" x="2989.89" y="-642.332" font-family="Times New Roman,serif" font-size="14.00" fill="lightgray">wff ps</text>
</g>
<!-- n13234 -->
<g id="node28" class="node"><title>n13234</title>
<ellipse fill="none" stroke="lightgray" cx="2729.79" cy="-615.532" rx="27" ry="18"/>
<text text-anchor="middle" x="2729.79" y="-611.832" font-family="Times New Roman,serif" font-size="14.00" fill="lightgray">wch</text>
</g>
<!-- n13233&#45;&gt;n13234 -->
<g id="edge47" class="edge"><title>n13233&#45;&gt;n13234</title>
</g>
<!-- n13234&#45;&gt;n13243 -->
<g id="edge36" class="edge"><title>n13234&#45;&gt;n13243</title>
<path fill="none" stroke="lightgray" d="M2752.65,-605.432C2760.04,-602.415 2768.44,-599.413 2776.39,-597.532 2869.09,-575.594 3121.48,-608.165 3203.39,-559.532 3215.79,-552.169 3213.35,-544.505 3221.39,-532.532 3229.13,-521.006 3237.72,-508.282 3245.06,-497.45"/>
<polygon fill="lightgray" stroke="lightgray" points="3248.16,-499.107 3250.87,-488.865 3242.37,-495.181 3248.16,-499.107"/>
<text text-anchor="middle" x="2989.89" y="-601.332" font-family="Times New Roman,serif" font-size="14.00" fill="lightgray">wff ch</text>
</g>
<!-- n13235 -->
<g id="node29" class="node"><title>n13235</title>
<ellipse fill="none" stroke="lightgray" cx="2729.79" cy="-543.532" rx="27" ry="18"/>
<text text-anchor="middle" x="2729.79" y="-539.832" font-family="Times New Roman,serif" font-size="14.00" fill="lightgray">wth</text>
</g>
<!-- n13234&#45;&gt;n13235 -->
<g id="edge48" class="edge"><title>n13234&#45;&gt;n13235</title>
</g>
<!-- n13235&#45;&gt;n13243 -->
<g id="edge37" class="edge"><title>n13235&#45;&gt;n13243</title>
<path fill="none" stroke="lightgray" d="M2756.95,-542.422C2828.93,-538.978 3035.67,-526.456 3203.39,-490.532 3209.21,-489.285 3215.27,-487.695 3221.19,-485.967"/>
<polygon fill="lightgray" stroke="lightgray" points="3222.44,-489.246 3230.97,-482.966 3220.39,-482.554 3222.44,-489.246"/>
<text text-anchor="middle" x="2989.89" y="-544.332" font-family="Times New Roman,serif" font-size="14.00" fill="lightgray">wff th</text>
</g>
<!-- n13236 -->
<g id="node30" class="node"><title>n13236</title>
<ellipse fill="none" stroke="lightgray" cx="2729.79" cy="-471.532" rx="27" ry="18"/>
<text text-anchor="middle" x="2729.79" y="-467.832" font-family="Times New Roman,serif" font-size="14.00" fill="lightgray">wta</text>
</g>
<!-- n13235&#45;&gt;n13236 -->
<g id="edge49" class="edge"><title>n13235&#45;&gt;n13236</title>
</g>
<!-- n13236&#45;&gt;n13243 -->
<g id="edge38" class="edge"><title>n13236&#45;&gt;n13243</title>
<path fill="none" stroke="lightgray" d="M2756.8,-471.532C2839.84,-471.532 3099.63,-471.532 3211.05,-471.532"/>
<polygon fill="lightgray" stroke="lightgray" points="3211.36,-475.032 3221.36,-471.532 3211.36,-468.032 3211.36,-475.032"/>
<text text-anchor="middle" x="2989.89" y="-475.332" font-family="Times New Roman,serif" font-size="14.00" fill="lightgray">wff ta</text>
</g>
<!-- n13237 -->
<g id="node31" class="node"><title>n13237</title>
<ellipse fill="none" stroke="lightgray" cx="2729.79" cy="-399.532" rx="27" ry="18"/>
<text text-anchor="middle" x="2729.79" y="-395.832" font-family="Times New Roman,serif" font-size="14.00" fill="lightgray">wet</text>
</g>
<!-- n13236&#45;&gt;n13237 -->
<g id="edge50" class="edge"><title>n13236&#45;&gt;n13237</title>
</g>
<!-- n13237&#45;&gt;n13243 -->
<g id="edge39" class="edge"><title>n13237&#45;&gt;n13243</title>
<path fill="none" stroke="lightgray" d="M2756.34,-402.991C2762.88,-403.848 2769.89,-404.746 2776.39,-405.532 2965.94,-428.431 3016.66,-412.735 3203.39,-452.532 3209.21,-453.772 3215.27,-455.359 3221.2,-457.085"/>
<polygon fill="lightgray" stroke="lightgray" points="3220.39,-460.498 3230.98,-460.085 3222.44,-453.806 3220.39,-460.498"/>
<text text-anchor="middle" x="2989.89" y="-456.332" font-family="Times New Roman,serif" font-size="14.00" fill="lightgray">wff et</text>
</g>
<!-- n13238 -->
<g id="node32" class="node"><title>n13238</title>
<ellipse fill="none" stroke="lightgray" cx="2729.79" cy="-327.532" rx="27" ry="18"/>
<text text-anchor="middle" x="2729.79" y="-323.832" font-family="Times New Roman,serif" font-size="14.00" fill="lightgray">wze</text>
</g>
<!-- n13237&#45;&gt;n13238 -->
<g id="edge51" class="edge"><title>n13237&#45;&gt;n13238</title>
</g>
<!-- n13238&#45;&gt;n13243 -->
<g id="edge40" class="edge"><title>n13238&#45;&gt;n13243</title>
<path fill="none" stroke="lightgray" d="M2748.51,-340.615C2756.6,-345.886 2766.56,-351.44 2776.39,-354.532 2867.16,-383.08 3120.74,-339.38 3203.39,-386.532 3225.95,-399.4 3241.91,-424.789 3251.53,-444.483"/>
<polygon fill="lightgray" stroke="lightgray" points="3248.38,-446.004 3255.75,-453.613 3254.73,-443.067 3248.38,-446.004"/>
<text text-anchor="middle" x="2989.89" y="-390.332" font-family="Times New Roman,serif" font-size="14.00" fill="lightgray">wff ze</text>
</g>
<!-- n13239 -->
<g id="node33" class="node"><title>n13239</title>
<ellipse fill="none" stroke="lightgray" cx="2729.79" cy="-255.532" rx="27" ry="18"/>
<text text-anchor="middle" x="2729.79" y="-251.832" font-family="Times New Roman,serif" font-size="14.00" fill="lightgray">wsi</text>
</g>
<!-- n13238&#45;&gt;n13239 -->
<g id="edge52" class="edge"><title>n13238&#45;&gt;n13239</title>
</g>
<!-- n13239&#45;&gt;n13243 -->
<g id="edge41" class="edge"><title>n13239&#45;&gt;n13243</title>
<path fill="none" stroke="lightgray" d="M2745.42,-270.624C2753.74,-278.235 2764.8,-286.829 2776.39,-291.532 2864.78,-327.401 3126.39,-279.231 3203.39,-335.532 3238.32,-361.069 3252.92,-411.663 3258.83,-443.426"/>
<polygon fill="lightgray" stroke="lightgray" points="3255.4,-444.136 3260.52,-453.412 3262.3,-442.969 3255.4,-444.136"/>
<text text-anchor="middle" x="2989.89" y="-339.332" font-family="Times New Roman,serif" font-size="14.00" fill="lightgray">wff si</text>
</g>
<!-- n13240 -->
<g id="node34" class="node"><title>n13240</title>
<ellipse fill="none" stroke="lightgray" cx="2729.79" cy="-183.532" rx="27" ry="18"/>
<text text-anchor="middle" x="2729.79" y="-179.832" font-family="Times New Roman,serif" font-size="14.00" fill="lightgray">wrh</text>
</g>
<!-- n13239&#45;&gt;n13240 -->
<g id="edge53" class="edge"><title>n13239&#45;&gt;n13240</title>
</g>
<!-- n13240&#45;&gt;n13243 -->
<g id="edge42" class="edge"><title>n13240&#45;&gt;n13243</title>
<path fill="none" stroke="lightgray" d="M2752.23,-193.668C2759.73,-196.894 2768.31,-200.22 2776.39,-202.532 2961.28,-255.428 3059.06,-145.441 3203.39,-272.532 3253.02,-316.234 3261.94,-399.494 3263.02,-443.174"/>
<polygon fill="lightgray" stroke="lightgray" points="3259.52,-443.422 3263.14,-453.379 3266.52,-443.337 3259.52,-443.422"/>
<text text-anchor="middle" x="2989.89" y="-276.332" font-family="Times New Roman,serif" font-size="14.00" fill="lightgray">wff rh</text>
</g>
<!-- n13241 -->
<g id="node35" class="node"><title>n13241</title>
<ellipse fill="none" stroke="lightgray" cx="2729.79" cy="-111.532" rx="28.6953" ry="18"/>
<text text-anchor="middle" x="2729.79" y="-107.832" font-family="Times New Roman,serif" font-size="14.00" fill="lightgray">wmu</text>
</g>
<!-- n13240&#45;&gt;n13241 -->
<g id="edge54" class="edge"><title>n13240&#45;&gt;n13241</title>
</g>
<!-- n13241&#45;&gt;n13243 -->
<g id="edge43" class="edge"><title>n13241&#45;&gt;n13243</title>
<path fill="none" stroke="lightgray" d="M2757.41,-106.295C2837.13,-92.2954 3076.25,-62.8026 3203.39,-183.532 3240.82,-219.076 3256.09,-378.203 3260.85,-443.467"/>
<polygon fill="lightgray" stroke="lightgray" points="3257.36,-443.726 3261.55,-453.457 3264.34,-443.237 3257.36,-443.726"/>
<text text-anchor="middle" x="2989.89" y="-187.332" font-family="Times New Roman,serif" font-size="14.00" fill="lightgray">wff mu</text>
</g>
<!-- n13242 -->
<g id="node36" class="node"><title>n13242</title>
<ellipse fill="none" stroke="lightgray" cx="2729.79" cy="-39.5315" rx="27" ry="18"/>
<text text-anchor="middle" x="2729.79" y="-35.8315" font-family="Times New Roman,serif" font-size="14.00" fill="lightgray">wla</text>
</g>
<!-- n13241&#45;&gt;n13242 -->
<g id="edge55" class="edge"><title>n13241&#45;&gt;n13242</title>
</g>
<!-- n13242&#45;&gt;n13243 -->
<g id="edge44" class="edge"><title>n13242&#45;&gt;n13243</title>
<path fill="none" stroke="lightgray" d="M2754.63,-32.2997C2831.37,-10.6366 3074.51,45.12 3203.39,-74.5315 3257.15,-124.446 3262.56,-360.796 3262.78,-443.151"/>
<polygon fill="lightgray" stroke="lightgray" points="3259.28,-443.282 3262.78,-453.281 3266.28,-443.28 3259.28,-443.282"/>
<text text-anchor="middle" x="2989.89" y="-78.3315" font-family="Times New Roman,serif" font-size="14.00" fill="lightgray">wff la</text>
</g>
</g>
</svg>
