<?xml version="1.0" encoding="UTF-8" standalone="no"?>
<!DOCTYPE svg PUBLIC "-//W3C//DTD SVG 1.1//EN"
 "http://www.w3.org/Graphics/SVG/1.1/DTD/svg11.dtd">
<!-- Generated by graphviz version 2.38.0 (20140413.2041)
 -->
<!-- Title: proof_simp_5l Pages: 1 -->
<svg width="1596pt" height="563pt"
 viewBox="0.00 0.00 1596.18 563.00" xmlns="http://www.w3.org/2000/svg" xmlns:xlink="http://www.w3.org/1999/xlink">
<g id="graph0" class="graph" transform="scale(1 1) rotate(0) translate(4 559)">
<title>proof_simp_5l</title>
<polygon fill="white" stroke="none" points="-4,4 -4,-559 1592.18,-559 1592.18,4 -4,4"/>
<!-- n12903 -->
<g id="node1" class="node"><title>n12903</title>
<ellipse fill="none" stroke="lightgray" cx="27" cy="-537" rx="27" ry="18"/>
<text text-anchor="middle" x="27" y="-533.3" font-family="Times New Roman,serif" font-size="14.00" fill="lightgray">wph</text>
</g>
<!-- n12905 -->
<g id="node2" class="node"><title>n12905</title>
<ellipse fill="none" stroke="lightgray" cx="154" cy="-505" rx="27" ry="18"/>
<text text-anchor="middle" x="154" y="-501.3" font-family="Times New Roman,serif" font-size="14.00" fill="lightgray">wa</text>
</g>
<!-- n12903&#45;&gt;n12905 -->
<g id="edge1" class="edge"><title>n12903&#45;&gt;n12905</title>
<path fill="none" stroke="lightgray" d="M52.398,-530.754C71.326,-525.909 97.7933,-519.133 118.83,-513.748"/>
<polygon fill="lightgray" stroke="lightgray" points="119.844,-517.101 128.664,-511.23 118.108,-510.32 119.844,-517.101"/>
<text text-anchor="middle" x="90.5" y="-528.8" font-family="Times New Roman,serif" font-size="14.00" fill="lightgray">wff ph</text>
</g>
<!-- n12904 -->
<g id="node3" class="node"><title>n12904</title>
<ellipse fill="none" stroke="lightgray" cx="27" cy="-465" rx="27" ry="18"/>
<text text-anchor="middle" x="27" y="-461.3" font-family="Times New Roman,serif" font-size="14.00" fill="lightgray">wps</text>
</g>
<!-- n12903&#45;&gt;n12904 -->
<g id="edge4" class="edge"><title>n12903&#45;&gt;n12904</title>
</g>
<!-- n12907 -->
<g id="node4" class="node"><title>n12907</title>
<ellipse fill="none" stroke="lightgray" cx="326" cy="-473" rx="27" ry="18"/>
<text text-anchor="middle" x="326" y="-469.3" font-family="Times New Roman,serif" font-size="14.00" fill="lightgray">wa</text>
</g>
<!-- n12905&#45;&gt;n12907 -->
<g id="edge3" class="edge"><title>n12905&#45;&gt;n12907</title>
<path fill="none" stroke="lightgray" d="M180.084,-500.278C209.087,-494.819 257.024,-485.795 289.761,-479.633"/>
<polygon fill="lightgray" stroke="lightgray" points="290.633,-483.031 299.813,-477.741 289.338,-476.151 290.633,-483.031"/>
<text text-anchor="middle" x="240" y="-499.8" font-family="Times New Roman,serif" font-size="14.00" fill="lightgray">wff ( ph /\ ps )</text>
</g>
<!-- n12906 -->
<g id="node5" class="node"><title>n12906</title>
<ellipse fill="none" stroke="lightgray" cx="154" cy="-433" rx="27" ry="18"/>
<text text-anchor="middle" x="154" y="-429.3" font-family="Times New Roman,serif" font-size="14.00" fill="lightgray">wch</text>
</g>
<!-- n12905&#45;&gt;n12906 -->
<g id="edge7" class="edge"><title>n12905&#45;&gt;n12906</title>
</g>
<!-- n12904&#45;&gt;n12905 -->
<g id="edge2" class="edge"><title>n12904&#45;&gt;n12905</title>
<path fill="none" stroke="lightgray" d="M51.8058,-472.618C71.0071,-478.762 98.2415,-487.477 119.621,-494.319"/>
<polygon fill="lightgray" stroke="lightgray" points="118.692,-497.696 129.283,-497.411 120.825,-491.029 118.692,-497.696"/>
<text text-anchor="middle" x="90.5" y="-493.8" font-family="Times New Roman,serif" font-size="14.00" fill="lightgray">wff ps</text>
</g>
<!-- n12909 -->
<g id="node6" class="node"><title>n12909</title>
<ellipse fill="none" stroke="lightgray" cx="543" cy="-441" rx="27" ry="18"/>
<text text-anchor="middle" x="543" y="-437.3" font-family="Times New Roman,serif" font-size="14.00" fill="lightgray">wa</text>
</g>
<!-- n12907&#45;&gt;n12909 -->
<g id="edge6" class="edge"><title>n12907&#45;&gt;n12909</title>
<path fill="none" stroke="lightgray" d="M352.508,-469.204C390.734,-463.514 463.017,-452.756 506.415,-446.296"/>
<polygon fill="lightgray" stroke="lightgray" points="507.15,-449.726 516.526,-444.792 506.119,-442.802 507.15,-449.726"/>
<text text-anchor="middle" x="434.5" y="-469.8" font-family="Times New Roman,serif" font-size="14.00" fill="lightgray">wff ( ( ph /\ ps ) /\ ch )</text>
</g>
<!-- n12908 -->
<g id="node7" class="node"><title>n12908</title>
<ellipse fill="none" stroke="lightgray" cx="326" cy="-401" rx="27" ry="18"/>
<text text-anchor="middle" x="326" y="-397.3" font-family="Times New Roman,serif" font-size="14.00" fill="lightgray">wth</text>
</g>
<!-- n12907&#45;&gt;n12908 -->
<g id="edge10" class="edge"><title>n12907&#45;&gt;n12908</title>
</g>
<!-- n12906&#45;&gt;n12907 -->
<g id="edge5" class="edge"><title>n12906&#45;&gt;n12907</title>
<path fill="none" stroke="lightgray" d="M180.134,-438.639C205.589,-444.384 246.077,-453.617 281,-462 284.041,-462.73 287.198,-463.498 290.361,-464.275"/>
<polygon fill="lightgray" stroke="lightgray" points="289.804,-467.743 300.352,-466.752 291.488,-460.949 289.804,-467.743"/>
<text text-anchor="middle" x="240" y="-465.8" font-family="Times New Roman,serif" font-size="14.00" fill="lightgray">wff ch</text>
</g>
<!-- n12911 -->
<g id="node8" class="node"><title>n12911</title>
<ellipse fill="none" stroke="lightgray" cx="812.697" cy="-378" rx="27" ry="18"/>
<text text-anchor="middle" x="812.697" y="-374.3" font-family="Times New Roman,serif" font-size="14.00" fill="lightgray">wa</text>
</g>
<!-- n12909&#45;&gt;n12911 -->
<g id="edge9" class="edge"><title>n12909&#45;&gt;n12911</title>
<path fill="none" stroke="lightgray" d="M569.092,-436.33C609.094,-428.717 689.676,-412.695 757,-395 763.914,-393.183 771.258,-391.046 778.246,-388.911"/>
<polygon fill="lightgray" stroke="lightgray" points="779.634,-392.145 788.137,-385.824 777.548,-385.463 779.634,-392.145"/>
<text text-anchor="middle" x="672.5" y="-434.8" font-family="Times New Roman,serif" font-size="14.00" fill="lightgray">wff ( ( ( ph /\ ps ) /\ ch ) /\ th )</text>
</g>
<!-- n12910 -->
<g id="node9" class="node"><title>n12910</title>
<ellipse fill="none" stroke="lightgray" cx="543" cy="-369" rx="27" ry="18"/>
<text text-anchor="middle" x="543" y="-365.3" font-family="Times New Roman,serif" font-size="14.00" fill="lightgray">wta</text>
</g>
<!-- n12909&#45;&gt;n12910 -->
<g id="edge13" class="edge"><title>n12909&#45;&gt;n12910</title>
</g>
<!-- n12908&#45;&gt;n12909 -->
<g id="edge8" class="edge"><title>n12908&#45;&gt;n12909</title>
<path fill="none" stroke="lightgray" d="M352.692,-403.993C386.322,-408.152 446.987,-416.488 498,-428 501.445,-428.778 505.018,-429.676 508.569,-430.629"/>
<polygon fill="lightgray" stroke="lightgray" points="507.825,-434.056 518.401,-433.41 509.731,-427.321 507.825,-434.056"/>
<text text-anchor="middle" x="434.5" y="-431.8" font-family="Times New Roman,serif" font-size="14.00" fill="lightgray">wff th</text>
</g>
<!-- n12920 -->
<g id="node10" class="node"><title>n12920</title>
<ellipse fill="cyan" stroke="black" cx="1169.54" cy="-269" rx="33.2948" ry="18"/>
<text text-anchor="middle" x="1169.54" y="-265.3" font-family="Times New Roman,serif" font-size="14.00">adantr</text>
</g>
<!-- n12911&#45;&gt;n12920 -->
<g id="edge12" class="edge"><title>n12911&#45;&gt;n12920</title>
<path fill="none" stroke="lightgray" d="M839.846,-377.967C894.734,-376.861 1024.62,-368.73 1118.39,-319 1130.27,-312.7 1141.16,-302.656 1149.72,-293.218"/>
<polygon fill="lightgray" stroke="lightgray" points="1152.47,-295.388 1156.35,-285.528 1147.17,-290.82 1152.47,-295.388"/>
<text text-anchor="middle" x="993.393" y="-379.8" font-family="Times New Roman,serif" font-size="14.00" fill="lightgray">wff ( ( ( ( ph /\ ps ) /\ ch ) /\ th ) /\ ta )</text>
</g>
<!-- n12912 -->
<g id="node11" class="node"><title>n12912</title>
<ellipse fill="none" stroke="lightgray" cx="812.697" cy="-306" rx="27" ry="18"/>
<text text-anchor="middle" x="812.697" y="-302.3" font-family="Times New Roman,serif" font-size="14.00" fill="lightgray">wph</text>
</g>
<!-- n12911&#45;&gt;n12912 -->
<g id="edge27" class="edge"><title>n12911&#45;&gt;n12912</title>
</g>
<!-- n12910&#45;&gt;n12911 -->
<g id="edge11" class="edge"><title>n12910&#45;&gt;n12911</title>
<path fill="none" stroke="lightgray" d="M570.155,-369.879C618.134,-371.492 720.309,-374.928 775.132,-376.771"/>
<polygon fill="lightgray" stroke="lightgray" points="775.323,-380.279 785.435,-377.117 775.558,-373.283 775.323,-380.279"/>
<text text-anchor="middle" x="672.5" y="-379.8" font-family="Times New Roman,serif" font-size="14.00" fill="lightgray">wff ta</text>
</g>
<!-- QED -->
<g id="node19" class="node"><title>QED</title>
</g>
<!-- n12920&#45;&gt;QED -->
<g id="edge26" class="edge"><title>n12920&#45;&gt;QED</title>
<path fill="none" stroke="black" d="M1202.9,-269C1273.94,-269 1443.24,-269 1519.52,-269"/>
<polygon fill="black" stroke="black" points="1519.64,-272.5 1529.64,-269 1519.64,-265.5 1519.64,-272.5"/>
<text text-anchor="middle" x="1366.19" y="-272.8" font-family="Times New Roman,serif" font-size="14.00">|&#45; ( ( ( ( ( ( ph /\ ps ) /\ ch ) /\ th ) /\ ta ) /\ et ) &#45;&gt; ph )</text>
</g>
<!-- n12912&#45;&gt;n12920 -->
<g id="edge14" class="edge"><title>n12912&#45;&gt;n12920</title>
<path fill="none" stroke="lightgray" d="M839.798,-303.501C892.491,-298.423 1015.34,-286.407 1118.39,-275 1121.21,-274.688 1124.12,-274.359 1127.05,-274.022"/>
<polygon fill="lightgray" stroke="lightgray" points="1127.46,-277.498 1136.98,-272.862 1126.65,-270.546 1127.46,-277.498"/>
<text text-anchor="middle" x="993.393" y="-303.8" font-family="Times New Roman,serif" font-size="14.00" fill="lightgray">wff ph</text>
</g>
<!-- n12913 -->
<g id="node12" class="node"><title>n12913</title>
<ellipse fill="none" stroke="lightgray" cx="812.697" cy="-234" rx="27" ry="18"/>
<text text-anchor="middle" x="812.697" y="-230.3" font-family="Times New Roman,serif" font-size="14.00" fill="lightgray">wet</text>
</g>
<!-- n12912&#45;&gt;n12913 -->
<g id="edge28" class="edge"><title>n12912&#45;&gt;n12913</title>
</g>
<!-- n12913&#45;&gt;n12920 -->
<g id="edge15" class="edge"><title>n12913&#45;&gt;n12920</title>
<path fill="none" stroke="lightgray" d="M839.87,-235.416C892.691,-238.452 1015.76,-246.44 1118.39,-260 1121.59,-260.423 1124.9,-260.908 1128.22,-261.429"/>
<polygon fill="lightgray" stroke="lightgray" points="1127.68,-264.887 1138.11,-263.075 1128.82,-257.982 1127.68,-264.887"/>
<text text-anchor="middle" x="993.393" y="-263.8" font-family="Times New Roman,serif" font-size="14.00" fill="lightgray">wff et</text>
</g>
<!-- n12919 -->
<g id="node14" class="node"><title>n12919</title>
<ellipse fill="cyan" stroke="black" cx="812.697" cy="-162" rx="37.8943" ry="18"/>
<text text-anchor="middle" x="812.697" y="-158.3" font-family="Times New Roman,serif" font-size="14.00">simp&#45;4l</text>
</g>
<!-- n12913&#45;&gt;n12919 -->
<g id="edge29" class="edge"><title>n12913&#45;&gt;n12919</title>
</g>
<!-- n12914 -->
<g id="node13" class="node"><title>n12914</title>
<ellipse fill="none" stroke="lightgray" cx="543" cy="-306" rx="27" ry="18"/>
<text text-anchor="middle" x="543" y="-302.3" font-family="Times New Roman,serif" font-size="14.00" fill="lightgray">wph</text>
</g>
<!-- n12914&#45;&gt;n12919 -->
<g id="edge16" class="edge"><title>n12914&#45;&gt;n12919</title>
<path fill="none" stroke="lightgray" d="M570.033,-304.83C613.549,-301.58 701.723,-289.31 757,-243 770.712,-231.512 765.288,-222.023 775,-207 779.541,-199.976 784.993,-192.778 790.288,-186.257"/>
<polygon fill="lightgray" stroke="lightgray" points="793.108,-188.341 796.832,-178.423 787.735,-183.854 793.108,-188.341"/>
<text text-anchor="middle" x="672.5" y="-306.8" font-family="Times New Roman,serif" font-size="14.00" fill="lightgray">wff ph</text>
</g>
<!-- n12915 -->
<g id="node15" class="node"><title>n12915</title>
<ellipse fill="none" stroke="lightgray" cx="543" cy="-234" rx="27" ry="18"/>
<text text-anchor="middle" x="543" y="-230.3" font-family="Times New Roman,serif" font-size="14.00" fill="lightgray">wps</text>
</g>
<!-- n12914&#45;&gt;n12915 -->
<g id="edge22" class="edge"><title>n12914&#45;&gt;n12915</title>
</g>
<!-- n12919&#45;&gt;n12920 -->
<g id="edge21" class="edge"><title>n12919&#45;&gt;n12920</title>
<path fill="none" stroke="black" d="M850.677,-162.022C910.4,-163.514 1030.29,-172.634 1118.39,-219 1130.29,-225.262 1141.18,-235.3 1149.74,-244.745"/>
<polygon fill="black" stroke="black" points="1147.19,-247.143 1156.36,-252.443 1152.5,-242.579 1147.19,-247.143"/>
<text text-anchor="middle" x="993.393" y="-222.8" font-family="Times New Roman,serif" font-size="14.00">|&#45; ( ( ( ( ( ph /\ ps ) /\ ch ) /\ th ) /\ ta ) &#45;&gt; ph )</text>
</g>
<!-- n12915&#45;&gt;n12919 -->
<g id="edge17" class="edge"><title>n12915&#45;&gt;n12919</title>
<path fill="none" stroke="lightgray" d="M568.795,-228.597C608.722,-219.725 689.611,-201.044 757,-181 762.05,-179.498 767.324,-177.815 772.519,-176.088"/>
<polygon fill="lightgray" stroke="lightgray" points="773.994,-179.283 782.333,-172.747 771.739,-172.656 773.994,-179.283"/>
<text text-anchor="middle" x="672.5" y="-227.8" font-family="Times New Roman,serif" font-size="14.00" fill="lightgray">wff ps</text>
</g>
<!-- n12916 -->
<g id="node16" class="node"><title>n12916</title>
<ellipse fill="none" stroke="lightgray" cx="543" cy="-162" rx="27" ry="18"/>
<text text-anchor="middle" x="543" y="-158.3" font-family="Times New Roman,serif" font-size="14.00" fill="lightgray">wch</text>
</g>
<!-- n12915&#45;&gt;n12916 -->
<g id="edge23" class="edge"><title>n12915&#45;&gt;n12916</title>
</g>
<!-- n12916&#45;&gt;n12919 -->
<g id="edge18" class="edge"><title>n12916&#45;&gt;n12919</title>
<path fill="none" stroke="lightgray" d="M570.155,-162C615.238,-162 708.17,-162 764.708,-162"/>
<polygon fill="lightgray" stroke="lightgray" points="764.821,-165.5 774.821,-162 764.821,-158.5 764.821,-165.5"/>
<text text-anchor="middle" x="672.5" y="-165.8" font-family="Times New Roman,serif" font-size="14.00" fill="lightgray">wff ch</text>
</g>
<!-- n12917 -->
<g id="node17" class="node"><title>n12917</title>
<ellipse fill="none" stroke="lightgray" cx="543" cy="-90" rx="27" ry="18"/>
<text text-anchor="middle" x="543" y="-86.3" font-family="Times New Roman,serif" font-size="14.00" fill="lightgray">wth</text>
</g>
<!-- n12916&#45;&gt;n12917 -->
<g id="edge24" class="edge"><title>n12916&#45;&gt;n12917</title>
</g>
<!-- n12917&#45;&gt;n12919 -->
<g id="edge19" class="edge"><title>n12917&#45;&gt;n12919</title>
<path fill="none" stroke="lightgray" d="M568.795,-95.403C608.722,-104.275 689.611,-122.956 757,-143 762.05,-144.502 767.324,-146.185 772.519,-147.912"/>
<polygon fill="lightgray" stroke="lightgray" points="771.739,-151.344 782.333,-151.253 773.994,-144.717 771.739,-151.344"/>
<text text-anchor="middle" x="672.5" y="-146.8" font-family="Times New Roman,serif" font-size="14.00" fill="lightgray">wff th</text>
</g>
<!-- n12918 -->
<g id="node18" class="node"><title>n12918</title>
<ellipse fill="none" stroke="lightgray" cx="543" cy="-18" rx="27" ry="18"/>
<text text-anchor="middle" x="543" y="-14.3" font-family="Times New Roman,serif" font-size="14.00" fill="lightgray">wta</text>
</g>
<!-- n12917&#45;&gt;n12918 -->
<g id="edge25" class="edge"><title>n12917&#45;&gt;n12918</title>
</g>
<!-- n12918&#45;&gt;n12919 -->
<g id="edge20" class="edge"><title>n12918&#45;&gt;n12919</title>
<path fill="none" stroke="lightgray" d="M570.065,-20.2285C612.857,-25.0284 699.031,-39.6019 757,-82 775.677,-95.6602 790.073,-117.732 799.397,-135.236"/>
<polygon fill="lightgray" stroke="lightgray" points="796.404,-137.073 804.05,-144.407 802.647,-133.906 796.404,-137.073"/>
<text text-anchor="middle" x="672.5" y="-85.8" font-family="Times New Roman,serif" font-size="14.00" fill="lightgray">wff ta</text>
</g>
</g>
</svg>
