<?xml version="1.0" encoding="UTF-8" standalone="no"?>
<!DOCTYPE svg PUBLIC "-//W3C//DTD SVG 1.1//EN"
 "http://www.w3.org/Graphics/SVG/1.1/DTD/svg11.dtd">
<!-- Generated by graphviz version 2.38.0 (20140413.2041)
 -->
<!-- Title: proof_simpli Pages: 1 -->
<svg width="557pt" height="335pt"
 viewBox="0.00 0.00 557.08 335.00" xmlns="http://www.w3.org/2000/svg" xmlns:xlink="http://www.w3.org/1999/xlink">
<g id="graph0" class="graph" transform="scale(1 1) rotate(0) translate(4 331)">
<title>proof_simpli</title>
<polygon fill="white" stroke="none" points="-4,4 -4,-331 553.082,-331 553.082,4 -4,4"/>
<!-- n8088 -->
<g id="node1" class="node"><title>n8088</title>
<ellipse fill="none" stroke="lightgray" cx="27" cy="-309" rx="27" ry="18"/>
<text text-anchor="middle" x="27" y="-305.3" font-family="Times New Roman,serif" font-size="14.00" fill="lightgray">wph</text>
</g>
<!-- n8090 -->
<g id="node2" class="node"><title>n8090</title>
<ellipse fill="none" stroke="lightgray" cx="165.997" cy="-269" rx="27" ry="18"/>
<text text-anchor="middle" x="165.997" y="-265.3" font-family="Times New Roman,serif" font-size="14.00" fill="lightgray">wa</text>
</g>
<!-- n8088&#45;&gt;n8090 -->
<g id="edge1" class="edge"><title>n8088&#45;&gt;n8090</title>
<path fill="none" stroke="lightgray" d="M52.1769,-301.941C74.186,-295.515 106.894,-285.965 131.433,-278.8"/>
<polygon fill="lightgray" stroke="lightgray" points="132.443,-282.151 141.061,-275.989 130.481,-275.432 132.443,-282.151"/>
<text text-anchor="middle" x="90.5" y="-299.8" font-family="Times New Roman,serif" font-size="14.00" fill="lightgray">wff ph</text>
</g>
<!-- n8089 -->
<g id="node3" class="node"><title>n8089</title>
<ellipse fill="none" stroke="lightgray" cx="27" cy="-237" rx="27" ry="18"/>
<text text-anchor="middle" x="27" y="-233.3" font-family="Times New Roman,serif" font-size="14.00" fill="lightgray">wps</text>
</g>
<!-- n8088&#45;&gt;n8089 -->
<g id="edge4" class="edge"><title>n8088&#45;&gt;n8089</title>
</g>
<!-- n8096 -->
<g id="node4" class="node"><title>n8096</title>
<ellipse fill="lawngreen" stroke="black" cx="395.79" cy="-160" rx="33.5952" ry="18"/>
<text text-anchor="middle" x="395.79" y="-156.3" font-family="Times New Roman,serif" font-size="14.00">ax&#45;mp</text>
</g>
<!-- n8090&#45;&gt;n8096 -->
<g id="edge3" class="edge"><title>n8090&#45;&gt;n8096</title>
<path fill="none" stroke="lightgray" d="M191.849,-263.703C227.419,-255.391 294.058,-237.052 343.993,-207 354.554,-200.644 364.809,-191.834 373.306,-183.558"/>
<polygon fill="lightgray" stroke="lightgray" points="376.042,-185.769 380.575,-176.193 371.059,-180.852 376.042,-185.769"/>
<text text-anchor="middle" x="283.493" y="-259.8" font-family="Times New Roman,serif" font-size="14.00" fill="lightgray">wff ( ph /\ ps )</text>
</g>
<!-- n8091 -->
<g id="node5" class="node"><title>n8091</title>
<ellipse fill="none" stroke="lightgray" cx="165.997" cy="-197" rx="27" ry="18"/>
<text text-anchor="middle" x="165.997" y="-193.3" font-family="Times New Roman,serif" font-size="14.00" fill="lightgray">wph</text>
</g>
<!-- n8090&#45;&gt;n8091 -->
<g id="edge12" class="edge"><title>n8090&#45;&gt;n8091</title>
</g>
<!-- n8089&#45;&gt;n8090 -->
<g id="edge2" class="edge"><title>n8089&#45;&gt;n8090</title>
<path fill="none" stroke="lightgray" d="M52.8542,-242.346C68.9007,-245.841 90.213,-250.565 109,-255 115.946,-256.64 123.361,-258.451 130.446,-260.211"/>
<polygon fill="lightgray" stroke="lightgray" points="129.948,-263.694 140.499,-262.727 131.648,-256.903 129.948,-263.694"/>
<text text-anchor="middle" x="90.5" y="-258.8" font-family="Times New Roman,serif" font-size="14.00" fill="lightgray">wff ps</text>
</g>
<!-- QED -->
<g id="node10" class="node"><title>QED</title>
</g>
<!-- n8096&#45;&gt;QED -->
<g id="edge11" class="edge"><title>n8096&#45;&gt;QED</title>
<path fill="none" stroke="black" d="M429.817,-160C445.337,-160 463.941,-160 480.119,-160"/>
<polygon fill="black" stroke="black" points="480.343,-163.5 490.343,-160 480.343,-156.5 480.343,-163.5"/>
<text text-anchor="middle" x="460.087" y="-163.8" font-family="Times New Roman,serif" font-size="14.00">|&#45; ph</text>
</g>
<!-- n8091&#45;&gt;n8096 -->
<g id="edge5" class="edge"><title>n8091&#45;&gt;n8096</title>
<path fill="none" stroke="lightgray" d="M192.685,-192.828C231.627,-186.502 306.018,-174.419 352.873,-166.809"/>
<polygon fill="lightgray" stroke="lightgray" points="353.695,-170.221 363.004,-165.163 352.572,-163.312 353.695,-170.221"/>
<text text-anchor="middle" x="283.493" y="-191.8" font-family="Times New Roman,serif" font-size="14.00" fill="lightgray">wff ph</text>
</g>
<!-- n8092 -->
<g id="node6" class="node"><title>n8092</title>
<ellipse fill="orange" stroke="black" cx="165.997" cy="-125" rx="38.9931" ry="18"/>
<text text-anchor="middle" x="165.997" y="-121.3" font-family="Times New Roman,serif" font-size="14.00">simpli.1</text>
</g>
<!-- n8091&#45;&gt;n8092 -->
<g id="edge13" class="edge"><title>n8091&#45;&gt;n8092</title>
</g>
<!-- n8092&#45;&gt;n8096 -->
<g id="edge6" class="edge"><title>n8092&#45;&gt;n8096</title>
<path fill="none" stroke="black" d="M203.656,-130.063C239.484,-135.088 295.552,-143.153 343.993,-151 347.176,-151.516 350.468,-152.064 353.776,-152.626"/>
<polygon fill="black" stroke="black" points="353.203,-156.079 363.653,-154.333 354.395,-149.181 353.203,-156.079"/>
<text text-anchor="middle" x="283.493" y="-154.8" font-family="Times New Roman,serif" font-size="14.00">|&#45; ( ph /\ ps )</text>
</g>
<!-- n8095 -->
<g id="node8" class="node"><title>n8095</title>
<ellipse fill="cyan" stroke="black" cx="165.997" cy="-53" rx="30.5947" ry="18"/>
<text text-anchor="middle" x="165.997" y="-49.3" font-family="Times New Roman,serif" font-size="14.00">simpl</text>
</g>
<!-- n8092&#45;&gt;n8095 -->
<g id="edge14" class="edge"><title>n8092&#45;&gt;n8095</title>
</g>
<!-- n8093 -->
<g id="node7" class="node"><title>n8093</title>
<ellipse fill="none" stroke="lightgray" cx="27" cy="-90" rx="27" ry="18"/>
<text text-anchor="middle" x="27" y="-86.3" font-family="Times New Roman,serif" font-size="14.00" fill="lightgray">wph</text>
</g>
<!-- n8093&#45;&gt;n8095 -->
<g id="edge7" class="edge"><title>n8093&#45;&gt;n8095</title>
<path fill="none" stroke="lightgray" d="M52.1769,-83.4703C73.1472,-77.8066 103.83,-69.5199 127.906,-63.0175"/>
<polygon fill="lightgray" stroke="lightgray" points="129.03,-66.3392 137.772,-60.3529 127.205,-59.5814 129.03,-66.3392"/>
<text text-anchor="middle" x="90.5" y="-82.8" font-family="Times New Roman,serif" font-size="14.00" fill="lightgray">wff ph</text>
</g>
<!-- n8094 -->
<g id="node9" class="node"><title>n8094</title>
<ellipse fill="none" stroke="lightgray" cx="27" cy="-18" rx="27" ry="18"/>
<text text-anchor="middle" x="27" y="-14.3" font-family="Times New Roman,serif" font-size="14.00" fill="lightgray">wps</text>
</g>
<!-- n8093&#45;&gt;n8094 -->
<g id="edge10" class="edge"><title>n8093&#45;&gt;n8094</title>
</g>
<!-- n8095&#45;&gt;n8096 -->
<g id="edge9" class="edge"><title>n8095&#45;&gt;n8096</title>
<path fill="none" stroke="black" d="M194.805,-59.1788C230.928,-67.9804 295.139,-86.3137 343.993,-115 354.002,-120.877 363.83,-128.895 372.134,-136.536"/>
<polygon fill="black" stroke="black" points="369.94,-139.28 379.585,-143.663 374.779,-134.222 369.94,-139.28"/>
<text text-anchor="middle" x="283.493" y="-118.8" font-family="Times New Roman,serif" font-size="14.00">|&#45; ( ( ph /\ ps ) &#45;&gt; ph )</text>
</g>
<!-- n8094&#45;&gt;n8095 -->
<g id="edge8" class="edge"><title>n8094&#45;&gt;n8095</title>
<path fill="none" stroke="lightgray" d="M52.4922,-24.2573C73.3685,-29.5908 103.702,-37.3403 127.612,-43.449"/>
<polygon fill="lightgray" stroke="lightgray" points="126.865,-46.8704 137.42,-45.9547 128.598,-40.0883 126.865,-46.8704"/>
<text text-anchor="middle" x="90.5" y="-42.8" font-family="Times New Roman,serif" font-size="14.00" fill="lightgray">wff ps</text>
</g>
</g>
</svg>
