<?xml version="1.0" encoding="UTF-8" standalone="no"?>
<!DOCTYPE svg PUBLIC "-//W3C//DTD SVG 1.1//EN"
 "http://www.w3.org/Graphics/SVG/1.1/DTD/svg11.dtd">
<!-- Generated by graphviz version 2.38.0 (20140413.2041)
 -->
<!-- Title: proof_simp32 Pages: 1 -->
<svg width="770pt" height="476pt"
 viewBox="0.00 0.00 769.58 476.00" xmlns="http://www.w3.org/2000/svg" xmlns:xlink="http://www.w3.org/1999/xlink">
<g id="graph0" class="graph" transform="scale(1 1) rotate(0) translate(4 472)">
<title>proof_simp32</title>
<polygon fill="white" stroke="none" points="-4,4 -4,-472 765.581,-472 765.581,4 -4,4"/>
<!-- n19678 -->
<g id="node1" class="node"><title>n19678</title>
<ellipse fill="none" stroke="lightgray" cx="27" cy="-450" rx="27" ry="18"/>
<text text-anchor="middle" x="27" y="-446.3" font-family="Times New Roman,serif" font-size="14.00" fill="lightgray">wch</text>
</g>
<!-- n19681 -->
<g id="node2" class="node"><title>n19681</title>
<ellipse fill="none" stroke="lightgray" cx="159.497" cy="-378" rx="27" ry="18"/>
<text text-anchor="middle" x="159.497" y="-374.3" font-family="Times New Roman,serif" font-size="14.00" fill="lightgray">w3a</text>
</g>
<!-- n19678&#45;&gt;n19681 -->
<g id="edge1" class="edge"><title>n19678&#45;&gt;n19681</title>
<path fill="none" stroke="lightgray" d="M48.3902,-438.75C70.129,-426.756 104.744,-407.658 129.355,-394.079"/>
<polygon fill="lightgray" stroke="lightgray" points="131.185,-397.066 138.25,-389.171 127.804,-390.937 131.185,-397.066"/>
<text text-anchor="middle" x="90.5" y="-427.8" font-family="Times New Roman,serif" font-size="14.00" fill="lightgray">wff ch</text>
</g>
<!-- n19679 -->
<g id="node3" class="node"><title>n19679</title>
<ellipse fill="none" stroke="lightgray" cx="27" cy="-378" rx="27" ry="18"/>
<text text-anchor="middle" x="27" y="-374.3" font-family="Times New Roman,serif" font-size="14.00" fill="lightgray">wth</text>
</g>
<!-- n19678&#45;&gt;n19679 -->
<g id="edge5" class="edge"><title>n19678&#45;&gt;n19679</title>
</g>
<!-- n19689 -->
<g id="node5" class="node"><title>n19689</title>
<ellipse fill="cyan" stroke="black" cx="410.54" cy="-234" rx="43.5923" ry="18"/>
<text text-anchor="middle" x="410.54" y="-230.3" font-family="Times New Roman,serif" font-size="14.00">3ad2ant3</text>
</g>
<!-- n19681&#45;&gt;n19689 -->
<g id="edge4" class="edge"><title>n19681&#45;&gt;n19689</title>
<path fill="none" stroke="lightgray" d="M185.802,-373.883C224.109,-366.668 297.772,-348.859 348.994,-312 367.896,-298.398 383.786,-277.269 394.539,-260.43"/>
<polygon fill="lightgray" stroke="lightgray" points="397.716,-261.945 399.97,-251.592 391.752,-258.279 397.716,-261.945"/>
<text text-anchor="middle" x="279.494" y="-372.8" font-family="Times New Roman,serif" font-size="14.00" fill="lightgray">wff ( ch /\ th /\ ta )</text>
</g>
<!-- n19682 -->
<g id="node6" class="node"><title>n19682</title>
<ellipse fill="none" stroke="lightgray" cx="159.497" cy="-306" rx="27" ry="18"/>
<text text-anchor="middle" x="159.497" y="-302.3" font-family="Times New Roman,serif" font-size="14.00" fill="lightgray">wph</text>
</g>
<!-- n19681&#45;&gt;n19682 -->
<g id="edge17" class="edge"><title>n19681&#45;&gt;n19682</title>
</g>
<!-- n19679&#45;&gt;n19681 -->
<g id="edge2" class="edge"><title>n19679&#45;&gt;n19681</title>
<path fill="none" stroke="lightgray" d="M54.0944,-378C73.6539,-378 100.663,-378 122.309,-378"/>
<polygon fill="lightgray" stroke="lightgray" points="122.448,-381.5 132.448,-378 122.448,-374.5 122.448,-381.5"/>
<text text-anchor="middle" x="90.5" y="-381.8" font-family="Times New Roman,serif" font-size="14.00" fill="lightgray">wff th</text>
</g>
<!-- n19680 -->
<g id="node4" class="node"><title>n19680</title>
<ellipse fill="none" stroke="lightgray" cx="27" cy="-306" rx="27" ry="18"/>
<text text-anchor="middle" x="27" y="-302.3" font-family="Times New Roman,serif" font-size="14.00" fill="lightgray">wta</text>
</g>
<!-- n19679&#45;&gt;n19680 -->
<g id="edge6" class="edge"><title>n19679&#45;&gt;n19680</title>
</g>
<!-- n19680&#45;&gt;n19681 -->
<g id="edge3" class="edge"><title>n19680&#45;&gt;n19681</title>
<path fill="none" stroke="lightgray" d="M48.3902,-317.25C70.129,-329.244 104.744,-348.342 129.355,-361.921"/>
<polygon fill="lightgray" stroke="lightgray" points="127.804,-365.063 138.25,-366.829 131.185,-358.934 127.804,-365.063"/>
<text text-anchor="middle" x="90.5" y="-354.8" font-family="Times New Roman,serif" font-size="14.00" fill="lightgray">wff ta</text>
</g>
<!-- QED -->
<g id="node13" class="node"><title>QED</title>
</g>
<!-- n19689&#45;&gt;QED -->
<g id="edge16" class="edge"><title>n19689&#45;&gt;QED</title>
<path fill="none" stroke="black" d="M454.337,-234C516.954,-234 632.608,-234 692.745,-234"/>
<polygon fill="black" stroke="black" points="692.953,-237.5 702.953,-234 692.953,-230.5 692.953,-237.5"/>
<text text-anchor="middle" x="578.587" y="-237.8" font-family="Times New Roman,serif" font-size="14.00">|&#45; ( ( ph /\ ps /\ ( ch /\ th /\ ta ) ) &#45;&gt; th )</text>
</g>
<!-- n19682&#45;&gt;n19689 -->
<g id="edge7" class="edge"><title>n19682&#45;&gt;n19689</title>
<path fill="none" stroke="lightgray" d="M184.666,-299.454C220.595,-289.666 290.181,-270.492 348.994,-253 354.406,-251.39 360.078,-249.664 365.688,-247.932"/>
<polygon fill="lightgray" stroke="lightgray" points="367.143,-251.144 375.651,-244.831 365.063,-244.461 367.143,-251.144"/>
<text text-anchor="middle" x="279.494" y="-296.8" font-family="Times New Roman,serif" font-size="14.00" fill="lightgray">wff ph</text>
</g>
<!-- n19683 -->
<g id="node7" class="node"><title>n19683</title>
<ellipse fill="none" stroke="lightgray" cx="159.497" cy="-234" rx="27" ry="18"/>
<text text-anchor="middle" x="159.497" y="-230.3" font-family="Times New Roman,serif" font-size="14.00" fill="lightgray">wth</text>
</g>
<!-- n19682&#45;&gt;n19683 -->
<g id="edge18" class="edge"><title>n19682&#45;&gt;n19683</title>
</g>
<!-- n19683&#45;&gt;n19689 -->
<g id="edge8" class="edge"><title>n19683&#45;&gt;n19689</title>
<path fill="none" stroke="lightgray" d="M186.678,-234C226.837,-234 304.46,-234 356.647,-234"/>
<polygon fill="lightgray" stroke="lightgray" points="356.727,-237.5 366.727,-234 356.727,-230.5 356.727,-237.5"/>
<text text-anchor="middle" x="279.494" y="-237.8" font-family="Times New Roman,serif" font-size="14.00" fill="lightgray">wff th</text>
</g>
<!-- n19684 -->
<g id="node8" class="node"><title>n19684</title>
<ellipse fill="none" stroke="lightgray" cx="159.497" cy="-162" rx="27" ry="18"/>
<text text-anchor="middle" x="159.497" y="-158.3" font-family="Times New Roman,serif" font-size="14.00" fill="lightgray">wps</text>
</g>
<!-- n19683&#45;&gt;n19684 -->
<g id="edge19" class="edge"><title>n19683&#45;&gt;n19684</title>
</g>
<!-- n19684&#45;&gt;n19689 -->
<g id="edge9" class="edge"><title>n19684&#45;&gt;n19689</title>
<path fill="none" stroke="lightgray" d="M184.666,-168.546C220.595,-178.334 290.181,-197.508 348.994,-215 354.406,-216.61 360.078,-218.336 365.688,-220.068"/>
<polygon fill="lightgray" stroke="lightgray" points="365.063,-223.539 375.651,-223.169 367.143,-216.856 365.063,-223.539"/>
<text text-anchor="middle" x="279.494" y="-218.8" font-family="Times New Roman,serif" font-size="14.00" fill="lightgray">wff ps</text>
</g>
<!-- n19688 -->
<g id="node10" class="node"><title>n19688</title>
<ellipse fill="cyan" stroke="black" cx="159.497" cy="-90" rx="32.4942" ry="18"/>
<text text-anchor="middle" x="159.497" y="-86.3" font-family="Times New Roman,serif" font-size="14.00">simp2</text>
</g>
<!-- n19684&#45;&gt;n19688 -->
<g id="edge20" class="edge"><title>n19684&#45;&gt;n19688</title>
</g>
<!-- n19685 -->
<g id="node9" class="node"><title>n19685</title>
<ellipse fill="none" stroke="lightgray" cx="27" cy="-162" rx="27" ry="18"/>
<text text-anchor="middle" x="27" y="-158.3" font-family="Times New Roman,serif" font-size="14.00" fill="lightgray">wch</text>
</g>
<!-- n19685&#45;&gt;n19688 -->
<g id="edge10" class="edge"><title>n19685&#45;&gt;n19688</title>
<path fill="none" stroke="lightgray" d="M48.3902,-150.75C69.3662,-139.177 102.33,-120.989 126.728,-107.528"/>
<polygon fill="lightgray" stroke="lightgray" points="128.552,-110.519 135.617,-102.624 125.17,-104.39 128.552,-110.519"/>
<text text-anchor="middle" x="90.5" y="-140.8" font-family="Times New Roman,serif" font-size="14.00" fill="lightgray">wff ch</text>
</g>
<!-- n19686 -->
<g id="node11" class="node"><title>n19686</title>
<ellipse fill="none" stroke="lightgray" cx="27" cy="-90" rx="27" ry="18"/>
<text text-anchor="middle" x="27" y="-86.3" font-family="Times New Roman,serif" font-size="14.00" fill="lightgray">wth</text>
</g>
<!-- n19685&#45;&gt;n19686 -->
<g id="edge14" class="edge"><title>n19685&#45;&gt;n19686</title>
</g>
<!-- n19688&#45;&gt;n19689 -->
<g id="edge13" class="edge"><title>n19688&#45;&gt;n19689</title>
<path fill="none" stroke="black" d="M190.681,-95.2963C230.073,-103.354 299.774,-121.639 348.994,-157 367.639,-170.395 383.457,-191.076 394.244,-207.633"/>
<polygon fill="black" stroke="black" points="391.425,-209.725 399.706,-216.334 397.354,-206.004 391.425,-209.725"/>
<text text-anchor="middle" x="279.494" y="-160.8" font-family="Times New Roman,serif" font-size="14.00">|&#45; ( ( ch /\ th /\ ta ) &#45;&gt; th )</text>
</g>
<!-- n19686&#45;&gt;n19688 -->
<g id="edge11" class="edge"><title>n19686&#45;&gt;n19688</title>
<path fill="none" stroke="lightgray" d="M54.0944,-90C72.0379,-90 96.2504,-90 116.841,-90"/>
<polygon fill="lightgray" stroke="lightgray" points="116.919,-93.5001 126.919,-90 116.919,-86.5001 116.919,-93.5001"/>
<text text-anchor="middle" x="90.5" y="-93.8" font-family="Times New Roman,serif" font-size="14.00" fill="lightgray">wff th</text>
</g>
<!-- n19687 -->
<g id="node12" class="node"><title>n19687</title>
<ellipse fill="none" stroke="lightgray" cx="27" cy="-18" rx="27" ry="18"/>
<text text-anchor="middle" x="27" y="-14.3" font-family="Times New Roman,serif" font-size="14.00" fill="lightgray">wta</text>
</g>
<!-- n19686&#45;&gt;n19687 -->
<g id="edge15" class="edge"><title>n19686&#45;&gt;n19687</title>
</g>
<!-- n19687&#45;&gt;n19688 -->
<g id="edge12" class="edge"><title>n19687&#45;&gt;n19688</title>
<path fill="none" stroke="lightgray" d="M48.3902,-29.25C69.3662,-40.8232 102.33,-59.0108 126.728,-72.4721"/>
<polygon fill="lightgray" stroke="lightgray" points="125.17,-75.6098 135.617,-77.3762 128.552,-69.4807 125.17,-75.6098"/>
<text text-anchor="middle" x="90.5" y="-66.8" font-family="Times New Roman,serif" font-size="14.00" fill="lightgray">wff ta</text>
</g>
</g>
</svg>
