<?xml version="1.0" encoding="UTF-8" standalone="no"?>
<!DOCTYPE svg PUBLIC "-//W3C//DTD SVG 1.1//EN"
 "http://www.w3.org/Graphics/SVG/1.1/DTD/svg11.dtd">
<!-- Generated by graphviz version 2.38.0 (20140413.2041)
 -->
<!-- Title: proof_simprbda Pages: 1 -->
<svg width="1019pt" height="390pt"
 viewBox="0.00 0.00 1018.87 390.00" xmlns="http://www.w3.org/2000/svg" xmlns:xlink="http://www.w3.org/1999/xlink">
<g id="graph0" class="graph" transform="scale(1 1) rotate(0) translate(4 386)">
<title>proof_simprbda</title>
<polygon fill="white" stroke="none" points="-4,4 -4,-386 1014.87,-386 1014.87,4 -4,4"/>
<!-- n10679 -->
<g id="node1" class="node"><title>n10679</title>
<ellipse fill="none" stroke="lightgray" cx="185.495" cy="-364" rx="27" ry="18"/>
<text text-anchor="middle" x="185.495" y="-360.3" font-family="Times New Roman,serif" font-size="14.00" fill="lightgray">wph</text>
</g>
<!-- n10681 -->
<g id="node2" class="node"><title>n10681</title>
<ellipse fill="none" stroke="lightgray" cx="491.087" cy="-336" rx="27" ry="18"/>
<text text-anchor="middle" x="491.087" y="-332.3" font-family="Times New Roman,serif" font-size="14.00" fill="lightgray">wa</text>
</g>
<!-- n10679&#45;&gt;n10681 -->
<g id="edge1" class="edge"><title>n10679&#45;&gt;n10681</title>
<path fill="none" stroke="lightgray" d="M212.379,-361.613C266.599,-356.612 392.201,-345.028 454.177,-339.312"/>
<polygon fill="lightgray" stroke="lightgray" points="454.632,-342.785 464.268,-338.381 453.989,-335.814 454.632,-342.785"/>
<text text-anchor="middle" x="349.99" y="-359.8" font-family="Times New Roman,serif" font-size="14.00" fill="lightgray">wff ph</text>
</g>
<!-- n10680 -->
<g id="node3" class="node"><title>n10680</title>
<ellipse fill="none" stroke="lightgray" cx="185.495" cy="-292" rx="27" ry="18"/>
<text text-anchor="middle" x="185.495" y="-288.3" font-family="Times New Roman,serif" font-size="14.00" fill="lightgray">wps</text>
</g>
<!-- n10679&#45;&gt;n10680 -->
<g id="edge4" class="edge"><title>n10679&#45;&gt;n10680</title>
</g>
<!-- n10691 -->
<g id="node4" class="node"><title>n10691</title>
<ellipse fill="cyan" stroke="black" cx="760.28" cy="-227" rx="35.194" ry="18"/>
<text text-anchor="middle" x="760.28" y="-223.3" font-family="Times New Roman,serif" font-size="14.00">simpld</text>
</g>
<!-- n10681&#45;&gt;n10691 -->
<g id="edge3" class="edge"><title>n10681&#45;&gt;n10691</title>
<path fill="none" stroke="lightgray" d="M517.788,-332.891C559.741,-326.958 644.539,-311.321 707.183,-276 718.675,-269.521 729.602,-259.979 738.453,-251.033"/>
<polygon fill="lightgray" stroke="lightgray" points="741.028,-253.405 745.367,-243.739 735.947,-248.589 741.028,-253.405"/>
<text text-anchor="middle" x="625.683" y="-332.8" font-family="Times New Roman,serif" font-size="14.00" fill="lightgray">wff ( ph /\ ps )</text>
</g>
<!-- n10682 -->
<g id="node5" class="node"><title>n10682</title>
<ellipse fill="none" stroke="lightgray" cx="491.087" cy="-264" rx="27" ry="18"/>
<text text-anchor="middle" x="491.087" y="-260.3" font-family="Times New Roman,serif" font-size="14.00" fill="lightgray">wch</text>
</g>
<!-- n10681&#45;&gt;n10682 -->
<g id="edge19" class="edge"><title>n10681&#45;&gt;n10682</title>
</g>
<!-- n10680&#45;&gt;n10681 -->
<g id="edge2" class="edge"><title>n10680&#45;&gt;n10681</title>
<path fill="none" stroke="lightgray" d="M212.389,-293.853C258.197,-297.406 356.388,-306.253 437.99,-322 443.94,-323.148 450.21,-324.61 456.259,-326.154"/>
<polygon fill="lightgray" stroke="lightgray" points="455.569,-329.593 466.133,-328.789 457.373,-322.829 455.569,-329.593"/>
<text text-anchor="middle" x="349.99" y="-325.8" font-family="Times New Roman,serif" font-size="14.00" fill="lightgray">wff ps</text>
</g>
<!-- QED -->
<g id="node14" class="node"><title>QED</title>
</g>
<!-- n10691&#45;&gt;QED -->
<g id="edge18" class="edge"><title>n10691&#45;&gt;QED</title>
<path fill="none" stroke="black" d="M795.553,-227C835.234,-227 900.439,-227 941.915,-227"/>
<polygon fill="black" stroke="black" points="942.174,-230.5 952.174,-227 942.174,-223.5 942.174,-230.5"/>
<text text-anchor="middle" x="873.877" y="-230.8" font-family="Times New Roman,serif" font-size="14.00">|&#45; ( ( ph /\ ps ) &#45;&gt; ch )</text>
</g>
<!-- n10682&#45;&gt;n10691 -->
<g id="edge5" class="edge"><title>n10682&#45;&gt;n10691</title>
<path fill="none" stroke="lightgray" d="M517.706,-260.452C563.572,-254.101 660.153,-240.727 716.311,-232.95"/>
<polygon fill="lightgray" stroke="lightgray" points="716.88,-236.405 726.306,-231.566 715.92,-229.471 716.88,-236.405"/>
<text text-anchor="middle" x="625.683" y="-260.8" font-family="Times New Roman,serif" font-size="14.00" fill="lightgray">wff ch</text>
</g>
<!-- n10683 -->
<g id="node6" class="node"><title>n10683</title>
<ellipse fill="none" stroke="lightgray" cx="491.087" cy="-192" rx="27" ry="18"/>
<text text-anchor="middle" x="491.087" y="-188.3" font-family="Times New Roman,serif" font-size="14.00" fill="lightgray">wth</text>
</g>
<!-- n10682&#45;&gt;n10683 -->
<g id="edge20" class="edge"><title>n10682&#45;&gt;n10683</title>
</g>
<!-- n10683&#45;&gt;n10691 -->
<g id="edge6" class="edge"><title>n10683&#45;&gt;n10691</title>
<path fill="none" stroke="lightgray" d="M517.969,-194.699C558.427,-199.015 639.077,-208.008 707.183,-218 710.263,-218.452 713.44,-218.942 716.636,-219.452"/>
<polygon fill="lightgray" stroke="lightgray" points="716.37,-222.955 726.806,-221.128 717.508,-216.048 716.37,-222.955"/>
<text text-anchor="middle" x="625.683" y="-221.8" font-family="Times New Roman,serif" font-size="14.00" fill="lightgray">wff th</text>
</g>
<!-- n10690 -->
<g id="node8" class="node"><title>n10690</title>
<ellipse fill="cyan" stroke="black" cx="491.087" cy="-120" rx="35.194" ry="18"/>
<text text-anchor="middle" x="491.087" y="-116.3" font-family="Times New Roman,serif" font-size="14.00">biimpa</text>
</g>
<!-- n10683&#45;&gt;n10690 -->
<g id="edge21" class="edge"><title>n10683&#45;&gt;n10690</title>
</g>
<!-- n10684 -->
<g id="node7" class="node"><title>n10684</title>
<ellipse fill="none" stroke="lightgray" cx="185.495" cy="-234" rx="27" ry="18"/>
<text text-anchor="middle" x="185.495" y="-230.3" font-family="Times New Roman,serif" font-size="14.00" fill="lightgray">wph</text>
</g>
<!-- n10684&#45;&gt;n10690 -->
<g id="edge7" class="edge"><title>n10684&#45;&gt;n10690</title>
<path fill="none" stroke="lightgray" d="M212.502,-232.581C260.184,-228.986 363.534,-216.508 437.99,-174 450.881,-166.64 462.618,-155.133 471.674,-144.629"/>
<polygon fill="lightgray" stroke="lightgray" points="474.401,-146.823 478.052,-136.877 468.996,-142.376 474.401,-146.823"/>
<text text-anchor="middle" x="349.99" y="-231.8" font-family="Times New Roman,serif" font-size="14.00" fill="lightgray">wff ph</text>
</g>
<!-- n10685 -->
<g id="node9" class="node"><title>n10685</title>
<ellipse fill="none" stroke="lightgray" cx="185.495" cy="-162" rx="27" ry="18"/>
<text text-anchor="middle" x="185.495" y="-158.3" font-family="Times New Roman,serif" font-size="14.00" fill="lightgray">wps</text>
</g>
<!-- n10684&#45;&gt;n10685 -->
<g id="edge15" class="edge"><title>n10684&#45;&gt;n10685</title>
</g>
<!-- n10690&#45;&gt;n10691 -->
<g id="edge14" class="edge"><title>n10690&#45;&gt;n10691</title>
<path fill="none" stroke="black" d="M525.261,-124.116C569.162,-130.641 647.914,-146.15 707.183,-179 718.498,-185.271 729.31,-194.493 738.122,-203.181"/>
<polygon fill="black" stroke="black" points="735.838,-205.853 745.314,-210.592 740.861,-200.978 735.838,-205.853"/>
<text text-anchor="middle" x="625.683" y="-182.8" font-family="Times New Roman,serif" font-size="14.00">|&#45; ( ( ph /\ ps ) &#45;&gt; ( ch /\ th ) )</text>
</g>
<!-- n10685&#45;&gt;n10690 -->
<g id="edge8" class="edge"><title>n10685&#45;&gt;n10690</title>
<path fill="none" stroke="lightgray" d="M212.305,-159.554C257.982,-155.061 355.978,-144.687 437.99,-131 441.469,-130.419 445.068,-129.767 448.674,-129.078"/>
<polygon fill="lightgray" stroke="lightgray" points="449.641,-132.455 458.763,-127.067 448.272,-125.59 449.641,-132.455"/>
<text text-anchor="middle" x="349.99" y="-158.8" font-family="Times New Roman,serif" font-size="14.00" fill="lightgray">wff ps</text>
</g>
<!-- n10688 -->
<g id="node11" class="node"><title>n10688</title>
<ellipse fill="none" stroke="lightgray" cx="185.495" cy="-90" rx="27" ry="18"/>
<text text-anchor="middle" x="185.495" y="-86.3" font-family="Times New Roman,serif" font-size="14.00" fill="lightgray">wa</text>
</g>
<!-- n10685&#45;&gt;n10688 -->
<g id="edge16" class="edge"><title>n10685&#45;&gt;n10688</title>
</g>
<!-- n10686 -->
<g id="node10" class="node"><title>n10686</title>
<ellipse fill="none" stroke="lightgray" cx="27" cy="-135" rx="27" ry="18"/>
<text text-anchor="middle" x="27" y="-131.3" font-family="Times New Roman,serif" font-size="14.00" fill="lightgray">wch</text>
</g>
<!-- n10686&#45;&gt;n10688 -->
<g id="edge9" class="edge"><title>n10686&#45;&gt;n10688</title>
<path fill="none" stroke="lightgray" d="M52.1094,-128.067C78.416,-120.503 120.735,-108.334 150.429,-99.7957"/>
<polygon fill="lightgray" stroke="lightgray" points="151.715,-103.068 160.358,-96.9405 149.78,-96.3404 151.715,-103.068"/>
<text text-anchor="middle" x="90.5" y="-125.8" font-family="Times New Roman,serif" font-size="14.00" fill="lightgray">wff ch</text>
</g>
<!-- n10687 -->
<g id="node12" class="node"><title>n10687</title>
<ellipse fill="none" stroke="lightgray" cx="27" cy="-63" rx="27" ry="18"/>
<text text-anchor="middle" x="27" y="-59.3" font-family="Times New Roman,serif" font-size="14.00" fill="lightgray">wth</text>
</g>
<!-- n10686&#45;&gt;n10687 -->
<g id="edge12" class="edge"><title>n10686&#45;&gt;n10687</title>
</g>
<!-- n10688&#45;&gt;n10690 -->
<g id="edge11" class="edge"><title>n10688&#45;&gt;n10690</title>
<path fill="none" stroke="lightgray" d="M212.379,-92.5578C264.402,-97.6986 382.139,-109.333 446.338,-115.677"/>
<polygon fill="lightgray" stroke="lightgray" points="446.246,-119.185 456.542,-116.685 446.934,-112.219 446.246,-119.185"/>
<text text-anchor="middle" x="349.99" y="-118.8" font-family="Times New Roman,serif" font-size="14.00" fill="lightgray">wff ( ch /\ th )</text>
</g>
<!-- n10689 -->
<g id="node13" class="node"><title>n10689</title>
<ellipse fill="orange" stroke="black" cx="185.495" cy="-18" rx="58.4896" ry="18"/>
<text text-anchor="middle" x="185.495" y="-14.3" font-family="Times New Roman,serif" font-size="14.00">pm3.26bda.1</text>
</g>
<!-- n10688&#45;&gt;n10689 -->
<g id="edge17" class="edge"><title>n10688&#45;&gt;n10689</title>
</g>
<!-- n10687&#45;&gt;n10688 -->
<g id="edge10" class="edge"><title>n10687&#45;&gt;n10688</title>
<path fill="none" stroke="lightgray" d="M53.4919,-67.3981C79.4873,-71.8831 120.023,-78.8768 149.119,-83.8967"/>
<polygon fill="lightgray" stroke="lightgray" points="148.824,-87.3973 159.273,-85.6485 150.014,-80.4992 148.824,-87.3973"/>
<text text-anchor="middle" x="90.5" y="-80.8" font-family="Times New Roman,serif" font-size="14.00" fill="lightgray">wff th</text>
</g>
<!-- n10689&#45;&gt;n10690 -->
<g id="edge13" class="edge"><title>n10689&#45;&gt;n10690</title>
<path fill="none" stroke="black" d="M240.195,-24.6872C292.654,-32.7033 373.755,-49.1094 437.99,-80 447.701,-84.6702 457.342,-91.343 465.64,-97.9037"/>
<polygon fill="black" stroke="black" points="463.505,-100.68 473.445,-104.349 467.963,-95.2823 463.505,-100.68"/>
<text text-anchor="middle" x="349.99" y="-83.8" font-family="Times New Roman,serif" font-size="14.00">|&#45; ( ph &#45;&gt; ( ps &lt;&#45;&gt; ( ch /\ th ) ) )</text>
</g>
</g>
</svg>
