<?xml version="1.0" encoding="UTF-8" standalone="no"?>
<!DOCTYPE svg PUBLIC "-//W3C//DTD SVG 1.1//EN"
 "http://www.w3.org/Graphics/SVG/1.1/DTD/svg11.dtd">
<!-- Generated by graphviz version 2.38.0 (20140413.2041)
 -->
<!-- Title: proof_syl2and Pages: 1 -->
<svg width="916pt" height="692pt"
 viewBox="0.00 0.00 916.37 692.00" xmlns="http://www.w3.org/2000/svg" xmlns:xlink="http://www.w3.org/1999/xlink">
<g id="graph0" class="graph" transform="scale(1 1) rotate(0) translate(4 688)">
<title>proof_syl2and</title>
<polygon fill="white" stroke="none" points="-4,4 -4,-688 912.373,-688 912.373,4 -4,4"/>
<!-- n8371 -->
<g id="node1" class="node"><title>n8371</title>
<ellipse fill="none" stroke="lightgray" cx="335.488" cy="-666" rx="27" ry="18"/>
<text text-anchor="middle" x="335.488" y="-662.3" font-family="Times New Roman,serif" font-size="14.00" fill="lightgray">wph</text>
</g>
<!-- n8385 -->
<g id="node2" class="node"><title>n8385</title>
<ellipse fill="cyan" stroke="black" cx="615.431" cy="-450" rx="34.394" ry="18"/>
<text text-anchor="middle" x="615.431" y="-446.3" font-family="Times New Roman,serif" font-size="14.00">syland</text>
</g>
<!-- n8371&#45;&gt;n8385 -->
<g id="edge1" class="edge"><title>n8371&#45;&gt;n8385</title>
<path fill="none" stroke="lightgray" d="M362.671,-666.519C409.212,-665.991 506.725,-658.119 562.984,-605 598.329,-571.628 609.407,-513.436 612.868,-478.636"/>
<polygon fill="lightgray" stroke="lightgray" points="616.394,-478.479 613.746,-468.22 609.419,-477.891 616.394,-478.479"/>
<text text-anchor="middle" x="480.984" y="-667.8" font-family="Times New Roman,serif" font-size="14.00" fill="lightgray">wff ph</text>
</g>
<!-- n8372 -->
<g id="node3" class="node"><title>n8372</title>
<ellipse fill="none" stroke="lightgray" cx="335.488" cy="-594" rx="27" ry="18"/>
<text text-anchor="middle" x="335.488" y="-590.3" font-family="Times New Roman,serif" font-size="14.00" fill="lightgray">wps</text>
</g>
<!-- n8371&#45;&gt;n8372 -->
<g id="edge22" class="edge"><title>n8371&#45;&gt;n8372</title>
</g>
<!-- QED -->
<g id="node16" class="node"><title>QED</title>
</g>
<!-- n8385&#45;&gt;QED -->
<g id="edge21" class="edge"><title>n8385&#45;&gt;QED</title>
<path fill="none" stroke="black" d="M650.107,-450C698.796,-450 788.608,-450 839.782,-450"/>
<polygon fill="black" stroke="black" points="839.782,-453.5 849.782,-450 839.782,-446.5 839.782,-453.5"/>
<text text-anchor="middle" x="749.878" y="-453.8" font-family="Times New Roman,serif" font-size="14.00">|&#45; ( ph &#45;&gt; ( ( ps /\ th ) &#45;&gt; et ) )</text>
</g>
<!-- n8372&#45;&gt;n8385 -->
<g id="edge2" class="edge"><title>n8372&#45;&gt;n8385</title>
<path fill="none" stroke="lightgray" d="M362.442,-592.041C407.358,-587.495 500.74,-572.832 562.984,-527 580.408,-514.17 593.731,-493.549 602.449,-476.874"/>
<polygon fill="lightgray" stroke="lightgray" points="605.74,-478.115 607.046,-467.601 599.468,-475.005 605.74,-478.115"/>
<text text-anchor="middle" x="480.984" y="-589.8" font-family="Times New Roman,serif" font-size="14.00" fill="lightgray">wff ps</text>
</g>
<!-- n8373 -->
<g id="node4" class="node"><title>n8373</title>
<ellipse fill="none" stroke="lightgray" cx="335.488" cy="-522" rx="27" ry="18"/>
<text text-anchor="middle" x="335.488" y="-518.3" font-family="Times New Roman,serif" font-size="14.00" fill="lightgray">wch</text>
</g>
<!-- n8372&#45;&gt;n8373 -->
<g id="edge23" class="edge"><title>n8372&#45;&gt;n8373</title>
</g>
<!-- n8373&#45;&gt;n8385 -->
<g id="edge3" class="edge"><title>n8373&#45;&gt;n8385</title>
<path fill="none" stroke="lightgray" d="M361.555,-517.193C403.609,-508.894 490.851,-490.668 562.984,-469 567.874,-467.531 572.973,-465.844 577.978,-464.094"/>
<polygon fill="lightgray" stroke="lightgray" points="579.19,-467.378 587.41,-460.694 576.815,-460.793 579.19,-467.378"/>
<text text-anchor="middle" x="480.984" y="-511.8" font-family="Times New Roman,serif" font-size="14.00" fill="lightgray">wff ch</text>
</g>
<!-- n8374 -->
<g id="node5" class="node"><title>n8374</title>
<ellipse fill="none" stroke="lightgray" cx="335.488" cy="-450" rx="27" ry="18"/>
<text text-anchor="middle" x="335.488" y="-446.3" font-family="Times New Roman,serif" font-size="14.00" fill="lightgray">wth</text>
</g>
<!-- n8373&#45;&gt;n8374 -->
<g id="edge24" class="edge"><title>n8373&#45;&gt;n8374</title>
</g>
<!-- n8374&#45;&gt;n8385 -->
<g id="edge4" class="edge"><title>n8374&#45;&gt;n8385</title>
<path fill="none" stroke="lightgray" d="M362.636,-450C410.442,-450 512.391,-450 570.843,-450"/>
<polygon fill="lightgray" stroke="lightgray" points="570.88,-453.5 580.88,-450 570.88,-446.5 570.88,-453.5"/>
<text text-anchor="middle" x="480.984" y="-453.8" font-family="Times New Roman,serif" font-size="14.00" fill="lightgray">wff th</text>
</g>
<!-- n8375 -->
<g id="node6" class="node"><title>n8375</title>
<ellipse fill="none" stroke="lightgray" cx="335.488" cy="-378" rx="27" ry="18"/>
<text text-anchor="middle" x="335.488" y="-374.3" font-family="Times New Roman,serif" font-size="14.00" fill="lightgray">wet</text>
</g>
<!-- n8374&#45;&gt;n8375 -->
<g id="edge25" class="edge"><title>n8374&#45;&gt;n8375</title>
</g>
<!-- n8375&#45;&gt;n8385 -->
<g id="edge5" class="edge"><title>n8375&#45;&gt;n8385</title>
<path fill="none" stroke="lightgray" d="M361.555,-382.807C403.609,-391.106 490.851,-409.332 562.984,-431 567.874,-432.469 572.973,-434.156 577.978,-435.906"/>
<polygon fill="lightgray" stroke="lightgray" points="576.815,-439.207 587.41,-439.306 579.19,-432.622 576.815,-439.207"/>
<text text-anchor="middle" x="480.984" y="-434.8" font-family="Times New Roman,serif" font-size="14.00" fill="lightgray">wff et</text>
</g>
<!-- n8376 -->
<g id="node7" class="node"><title>n8376</title>
<ellipse fill="orange" stroke="black" cx="335.488" cy="-306" rx="45.4919" ry="18"/>
<text text-anchor="middle" x="335.488" y="-302.3" font-family="Times New Roman,serif" font-size="14.00">syl2and.1</text>
</g>
<!-- n8375&#45;&gt;n8376 -->
<g id="edge26" class="edge"><title>n8375&#45;&gt;n8376</title>
</g>
<!-- n8376&#45;&gt;n8385 -->
<g id="edge6" class="edge"><title>n8376&#45;&gt;n8385</title>
<path fill="none" stroke="black" d="M380.06,-309.715C428.804,-315.773 508.108,-331.514 562.984,-372 580.662,-385.042 594.033,-406.113 602.707,-423.068"/>
<polygon fill="black" stroke="black" points="599.759,-425.011 607.269,-432.484 606.059,-421.959 599.759,-425.011"/>
<text text-anchor="middle" x="480.984" y="-375.8" font-family="Times New Roman,serif" font-size="14.00">|&#45; ( ph &#45;&gt; ( ps &#45;&gt; ch ) )</text>
</g>
<!-- n8384 -->
<g id="node9" class="node"><title>n8384</title>
<ellipse fill="cyan" stroke="black" cx="335.488" cy="-234" rx="38.1938" ry="18"/>
<text text-anchor="middle" x="335.488" y="-230.3" font-family="Times New Roman,serif" font-size="14.00">sylan2d</text>
</g>
<!-- n8376&#45;&gt;n8384 -->
<g id="edge27" class="edge"><title>n8376&#45;&gt;n8384</title>
</g>
<!-- n8377 -->
<g id="node8" class="node"><title>n8377</title>
<ellipse fill="none" stroke="lightgray" cx="45.496" cy="-450" rx="27" ry="18"/>
<text text-anchor="middle" x="45.496" y="-446.3" font-family="Times New Roman,serif" font-size="14.00" fill="lightgray">wph</text>
</g>
<!-- n8377&#45;&gt;n8384 -->
<g id="edge7" class="edge"><title>n8377&#45;&gt;n8384</title>
<path fill="none" stroke="lightgray" d="M72.6822,-451.454C120.097,-452.528 220.062,-447.36 271.992,-390 305.534,-352.95 267.346,-323.553 289.992,-279 294.143,-270.834 300.309,-263.214 306.739,-256.65"/>
<polygon fill="lightgray" stroke="lightgray" points="309.465,-258.888 314.302,-249.461 304.642,-253.814 309.465,-258.888"/>
<text text-anchor="middle" x="190.492" y="-453.8" font-family="Times New Roman,serif" font-size="14.00" fill="lightgray">wff ph</text>
</g>
<!-- n8378 -->
<g id="node10" class="node"><title>n8378</title>
<ellipse fill="none" stroke="lightgray" cx="45.496" cy="-378" rx="27" ry="18"/>
<text text-anchor="middle" x="45.496" y="-374.3" font-family="Times New Roman,serif" font-size="14.00" fill="lightgray">wth</text>
</g>
<!-- n8377&#45;&gt;n8378 -->
<g id="edge15" class="edge"><title>n8377&#45;&gt;n8378</title>
</g>
<!-- n8384&#45;&gt;n8385 -->
<g id="edge14" class="edge"><title>n8384&#45;&gt;n8385</title>
<path fill="none" stroke="black" d="M374.177,-233.344C423.858,-234.554 511.023,-244.157 562.984,-293 599.064,-326.916 609.878,-386.489 613.095,-421.689"/>
<polygon fill="black" stroke="black" points="609.614,-422.073 613.869,-431.776 616.594,-421.537 609.614,-422.073"/>
<text text-anchor="middle" x="480.984" y="-296.8" font-family="Times New Roman,serif" font-size="14.00">|&#45; ( ph &#45;&gt; ( ( ch /\ th ) &#45;&gt; et ) )</text>
</g>
<!-- n8378&#45;&gt;n8384 -->
<g id="edge8" class="edge"><title>n8378&#45;&gt;n8384</title>
<path fill="none" stroke="lightgray" d="M72.6475,-376.278C117.843,-372.071 211.52,-357.792 271.992,-310 284.492,-300.121 280.313,-291.655 289.992,-279 295.653,-271.598 302.447,-264.162 309.001,-257.526"/>
<polygon fill="lightgray" stroke="lightgray" points="311.824,-259.659 316.504,-250.154 306.918,-254.666 311.824,-259.659"/>
<text text-anchor="middle" x="190.492" y="-374.8" font-family="Times New Roman,serif" font-size="14.00" fill="lightgray">wff th</text>
</g>
<!-- n8379 -->
<g id="node11" class="node"><title>n8379</title>
<ellipse fill="none" stroke="lightgray" cx="45.496" cy="-306" rx="27" ry="18"/>
<text text-anchor="middle" x="45.496" y="-302.3" font-family="Times New Roman,serif" font-size="14.00" fill="lightgray">wta</text>
</g>
<!-- n8378&#45;&gt;n8379 -->
<g id="edge16" class="edge"><title>n8378&#45;&gt;n8379</title>
</g>
<!-- n8379&#45;&gt;n8384 -->
<g id="edge9" class="edge"><title>n8379&#45;&gt;n8384</title>
<path fill="none" stroke="lightgray" d="M71.3181,-300.713C112.99,-291.716 199.569,-272.498 271.992,-253 278.834,-251.158 286.06,-249.083 293.073,-246.999"/>
<polygon fill="lightgray" stroke="lightgray" points="294.566,-250.204 303.129,-243.965 292.544,-243.503 294.566,-250.204"/>
<text text-anchor="middle" x="190.492" y="-294.8" font-family="Times New Roman,serif" font-size="14.00" fill="lightgray">wff ta</text>
</g>
<!-- n8380 -->
<g id="node12" class="node"><title>n8380</title>
<ellipse fill="none" stroke="lightgray" cx="45.496" cy="-234" rx="27" ry="18"/>
<text text-anchor="middle" x="45.496" y="-230.3" font-family="Times New Roman,serif" font-size="14.00" fill="lightgray">wch</text>
</g>
<!-- n8379&#45;&gt;n8380 -->
<g id="edge17" class="edge"><title>n8379&#45;&gt;n8380</title>
</g>
<!-- n8380&#45;&gt;n8384 -->
<g id="edge10" class="edge"><title>n8380&#45;&gt;n8384</title>
<path fill="none" stroke="lightgray" d="M72.5613,-234C120.99,-234 225.486,-234 286.846,-234"/>
<polygon fill="lightgray" stroke="lightgray" points="287.043,-237.5 297.043,-234 287.043,-230.5 287.043,-237.5"/>
<text text-anchor="middle" x="190.492" y="-237.8" font-family="Times New Roman,serif" font-size="14.00" fill="lightgray">wff ch</text>
</g>
<!-- n8381 -->
<g id="node13" class="node"><title>n8381</title>
<ellipse fill="none" stroke="lightgray" cx="45.496" cy="-162" rx="27" ry="18"/>
<text text-anchor="middle" x="45.496" y="-158.3" font-family="Times New Roman,serif" font-size="14.00" fill="lightgray">wet</text>
</g>
<!-- n8380&#45;&gt;n8381 -->
<g id="edge18" class="edge"><title>n8380&#45;&gt;n8381</title>
</g>
<!-- n8381&#45;&gt;n8384 -->
<g id="edge11" class="edge"><title>n8381&#45;&gt;n8384</title>
<path fill="none" stroke="lightgray" d="M71.3181,-167.287C112.99,-176.284 199.569,-195.502 271.992,-215 278.834,-216.842 286.06,-218.917 293.073,-221.001"/>
<polygon fill="lightgray" stroke="lightgray" points="292.544,-224.497 303.129,-224.035 294.566,-217.796 292.544,-224.497"/>
<text text-anchor="middle" x="190.492" y="-218.8" font-family="Times New Roman,serif" font-size="14.00" fill="lightgray">wff et</text>
</g>
<!-- n8382 -->
<g id="node14" class="node"><title>n8382</title>
<ellipse fill="orange" stroke="black" cx="45.496" cy="-90" rx="45.4919" ry="18"/>
<text text-anchor="middle" x="45.496" y="-86.3" font-family="Times New Roman,serif" font-size="14.00">syl2and.2</text>
</g>
<!-- n8381&#45;&gt;n8382 -->
<g id="edge19" class="edge"><title>n8381&#45;&gt;n8382</title>
</g>
<!-- n8382&#45;&gt;n8384 -->
<g id="edge12" class="edge"><title>n8382&#45;&gt;n8384</title>
<path fill="none" stroke="black" d="M89.1341,-95.2805C136.989,-102.84 215.335,-120.25 271.992,-158 291.304,-170.867 307.718,-191.479 318.872,-207.992"/>
<polygon fill="black" stroke="black" points="316.128,-210.193 324.512,-216.67 321.997,-206.378 316.128,-210.193"/>
<text text-anchor="middle" x="190.492" y="-161.8" font-family="Times New Roman,serif" font-size="14.00">|&#45; ( ph &#45;&gt; ( th &#45;&gt; ta ) )</text>
</g>
<!-- n8383 -->
<g id="node15" class="node"><title>n8383</title>
<ellipse fill="orange" stroke="black" cx="45.496" cy="-18" rx="45.4919" ry="18"/>
<text text-anchor="middle" x="45.496" y="-14.3" font-family="Times New Roman,serif" font-size="14.00">syl2and.3</text>
</g>
<!-- n8382&#45;&gt;n8383 -->
<g id="edge20" class="edge"><title>n8382&#45;&gt;n8383</title>
</g>
<!-- n8383&#45;&gt;n8384 -->
<g id="edge13" class="edge"><title>n8383&#45;&gt;n8384</title>
<path fill="none" stroke="black" d="M90.9304,-19.1768C140.788,-22.7947 221.305,-35.847 271.992,-81 308.724,-113.722 324.286,-171.237 330.56,-205.661"/>
<polygon fill="black" stroke="black" points="327.182,-206.681 332.285,-215.966 334.085,-205.525 327.182,-206.681"/>
<text text-anchor="middle" x="190.492" y="-84.8" font-family="Times New Roman,serif" font-size="14.00">|&#45; ( ph &#45;&gt; ( ( ch /\ ta ) &#45;&gt; et ) )</text>
</g>
</g>
</svg>
