<?xml version="1.0" encoding="UTF-8" standalone="no"?>
<!DOCTYPE svg PUBLIC "-//W3C//DTD SVG 1.1//EN"
 "http://www.w3.org/Graphics/SVG/1.1/DTD/svg11.dtd">
<!-- Generated by graphviz version 2.38.0 (20140413.2041)
 -->
<!-- Title: proof_syl2anr Pages: 1 -->
<svg width="746pt" height="548pt"
 viewBox="0.00 0.00 745.67 548.00" xmlns="http://www.w3.org/2000/svg" xmlns:xlink="http://www.w3.org/1999/xlink">
<g id="graph0" class="graph" transform="scale(1 1) rotate(0) translate(4 544)">
<title>proof_syl2anr</title>
<polygon fill="white" stroke="none" points="-4,4 -4,-544 741.675,-544 741.675,4 -4,4"/>
<!-- n8295 -->
<g id="node1" class="node"><title>n8295</title>
<ellipse fill="none" stroke="lightgray" cx="267.39" cy="-485" rx="27" ry="18"/>
<text text-anchor="middle" x="267.39" y="-481.3" font-family="Times New Roman,serif" font-size="14.00" fill="lightgray">wph</text>
</g>
<!-- n8307 -->
<g id="node2" class="node"><title>n8307</title>
<ellipse fill="cyan" stroke="black" cx="490.183" cy="-376" rx="38.9931" ry="18"/>
<text text-anchor="middle" x="490.183" y="-372.3" font-family="Times New Roman,serif" font-size="14.00">ancoms</text>
</g>
<!-- n8295&#45;&gt;n8307 -->
<g id="edge1" class="edge"><title>n8295&#45;&gt;n8307</title>
<path fill="none" stroke="lightgray" d="M292.722,-478.654C325.923,-469.385 386.61,-450.231 433.187,-423 444.486,-416.394 455.769,-407.483 465.215,-399.197"/>
<polygon fill="lightgray" stroke="lightgray" points="467.608,-401.751 472.677,-392.447 462.913,-396.559 467.608,-401.751"/>
<text text-anchor="middle" x="376.187" y="-473.8" font-family="Times New Roman,serif" font-size="14.00" fill="lightgray">wff ph</text>
</g>
<!-- n8296 -->
<g id="node3" class="node"><title>n8296</title>
<ellipse fill="none" stroke="lightgray" cx="267.39" cy="-413" rx="27" ry="18"/>
<text text-anchor="middle" x="267.39" y="-409.3" font-family="Times New Roman,serif" font-size="14.00" fill="lightgray">wta</text>
</g>
<!-- n8295&#45;&gt;n8296 -->
<g id="edge21" class="edge"><title>n8295&#45;&gt;n8296</title>
</g>
<!-- QED -->
<g id="node14" class="node"><title>QED</title>
</g>
<!-- n8307&#45;&gt;QED -->
<g id="edge20" class="edge"><title>n8307&#45;&gt;QED</title>
<path fill="none" stroke="black" d="M529.346,-376C568.635,-376 629.525,-376 668.935,-376"/>
<polygon fill="black" stroke="black" points="668.955,-379.5 678.955,-376 668.955,-372.5 668.955,-379.5"/>
<text text-anchor="middle" x="604.18" y="-379.8" font-family="Times New Roman,serif" font-size="14.00">|&#45; ( ( ta /\ ph ) &#45;&gt; th )</text>
</g>
<!-- n8296&#45;&gt;n8307 -->
<g id="edge2" class="edge"><title>n8296&#45;&gt;n8307</title>
<path fill="none" stroke="lightgray" d="M293.718,-408.756C330.154,-402.65 397.961,-391.287 443.338,-383.683"/>
<polygon fill="lightgray" stroke="lightgray" points="443.941,-387.13 453.225,-382.026 442.784,-380.227 443.941,-387.13"/>
<text text-anchor="middle" x="376.187" y="-407.8" font-family="Times New Roman,serif" font-size="14.00" fill="lightgray">wff ta</text>
</g>
<!-- n8297 -->
<g id="node4" class="node"><title>n8297</title>
<ellipse fill="none" stroke="lightgray" cx="267.39" cy="-341" rx="27" ry="18"/>
<text text-anchor="middle" x="267.39" y="-337.3" font-family="Times New Roman,serif" font-size="14.00" fill="lightgray">wth</text>
</g>
<!-- n8296&#45;&gt;n8297 -->
<g id="edge22" class="edge"><title>n8296&#45;&gt;n8297</title>
</g>
<!-- n8297&#45;&gt;n8307 -->
<g id="edge3" class="edge"><title>n8297&#45;&gt;n8307</title>
<path fill="none" stroke="lightgray" d="M293.802,-344.986C326.174,-350.069 383.845,-359.142 433.187,-367 436.396,-367.511 439.708,-368.04 443.043,-368.573"/>
<polygon fill="lightgray" stroke="lightgray" points="442.611,-372.049 453.039,-370.175 443.719,-365.137 442.611,-372.049"/>
<text text-anchor="middle" x="376.187" y="-370.8" font-family="Times New Roman,serif" font-size="14.00" fill="lightgray">wff th</text>
</g>
<!-- n8306 -->
<g id="node6" class="node"><title>n8306</title>
<ellipse fill="cyan" stroke="black" cx="267.39" cy="-269" rx="33.5952" ry="18"/>
<text text-anchor="middle" x="267.39" y="-265.3" font-family="Times New Roman,serif" font-size="14.00">syl2an</text>
</g>
<!-- n8297&#45;&gt;n8306 -->
<g id="edge23" class="edge"><title>n8297&#45;&gt;n8306</title>
</g>
<!-- n8298 -->
<g id="node5" class="node"><title>n8298</title>
<ellipse fill="none" stroke="lightgray" cx="40.2964" cy="-522" rx="27" ry="18"/>
<text text-anchor="middle" x="40.2964" y="-518.3" font-family="Times New Roman,serif" font-size="14.00" fill="lightgray">wph</text>
</g>
<!-- n8298&#45;&gt;n8306 -->
<g id="edge4" class="edge"><title>n8298&#45;&gt;n8306</title>
<path fill="none" stroke="lightgray" d="M67.4094,-520.723C106.376,-517.3 179.057,-504.765 215.593,-459 256.109,-408.25 209.707,-374.387 233.593,-314 236.429,-306.831 240.68,-299.761 245.191,-293.425"/>
<polygon fill="lightgray" stroke="lightgray" points="248.108,-295.371 251.393,-285.299 242.543,-291.125 248.108,-295.371"/>
<text text-anchor="middle" x="157.093" y="-519.8" font-family="Times New Roman,serif" font-size="14.00" fill="lightgray">wff ph</text>
</g>
<!-- n8299 -->
<g id="node7" class="node"><title>n8299</title>
<ellipse fill="none" stroke="lightgray" cx="40.2964" cy="-450" rx="27" ry="18"/>
<text text-anchor="middle" x="40.2964" y="-446.3" font-family="Times New Roman,serif" font-size="14.00" fill="lightgray">wps</text>
</g>
<!-- n8298&#45;&gt;n8299 -->
<g id="edge13" class="edge"><title>n8298&#45;&gt;n8299</title>
</g>
<!-- n8306&#45;&gt;n8307 -->
<g id="edge12" class="edge"><title>n8306&#45;&gt;n8307</title>
<path fill="none" stroke="black" d="M297.968,-276.709C331.995,-286.296 388.869,-304.56 433.187,-330 444.327,-336.395 455.487,-345.005 464.88,-353.047"/>
<polygon fill="black" stroke="black" points="462.823,-355.899 472.635,-359.897 467.458,-350.653 462.823,-355.899"/>
<text text-anchor="middle" x="376.187" y="-333.8" font-family="Times New Roman,serif" font-size="14.00">|&#45; ( ( ph /\ ta ) &#45;&gt; th )</text>
</g>
<!-- n8299&#45;&gt;n8306 -->
<g id="edge5" class="edge"><title>n8299&#45;&gt;n8306</title>
<path fill="none" stroke="lightgray" d="M67.0011,-447.072C105.102,-441.345 176.283,-425.089 215.593,-381 236.112,-357.986 220.289,-341.816 233.593,-314 236.977,-306.925 241.51,-299.815 246.123,-293.403"/>
<polygon fill="lightgray" stroke="lightgray" points="249.118,-295.245 252.364,-285.16 243.537,-291.02 249.118,-295.245"/>
<text text-anchor="middle" x="157.093" y="-443.8" font-family="Times New Roman,serif" font-size="14.00" fill="lightgray">wff ps</text>
</g>
<!-- n8300 -->
<g id="node8" class="node"><title>n8300</title>
<ellipse fill="none" stroke="lightgray" cx="40.2964" cy="-378" rx="27" ry="18"/>
<text text-anchor="middle" x="40.2964" y="-374.3" font-family="Times New Roman,serif" font-size="14.00" fill="lightgray">wch</text>
</g>
<!-- n8299&#45;&gt;n8300 -->
<g id="edge14" class="edge"><title>n8299&#45;&gt;n8300</title>
</g>
<!-- n8300&#45;&gt;n8306 -->
<g id="edge6" class="edge"><title>n8300&#45;&gt;n8306</title>
<path fill="none" stroke="lightgray" d="M66.061,-372.554C101.156,-364.113 166.545,-345.68 215.593,-316 226.139,-309.618 236.39,-300.803 244.89,-292.53"/>
<polygon fill="lightgray" stroke="lightgray" points="247.623,-294.744 252.161,-285.17 242.643,-289.824 247.623,-294.744"/>
<text text-anchor="middle" x="157.093" y="-365.8" font-family="Times New Roman,serif" font-size="14.00" fill="lightgray">wff ch</text>
</g>
<!-- n8301 -->
<g id="node9" class="node"><title>n8301</title>
<ellipse fill="none" stroke="lightgray" cx="40.2964" cy="-306" rx="27" ry="18"/>
<text text-anchor="middle" x="40.2964" y="-302.3" font-family="Times New Roman,serif" font-size="14.00" fill="lightgray">wth</text>
</g>
<!-- n8300&#45;&gt;n8301 -->
<g id="edge15" class="edge"><title>n8300&#45;&gt;n8301</title>
</g>
<!-- n8301&#45;&gt;n8306 -->
<g id="edge7" class="edge"><title>n8301&#45;&gt;n8306</title>
<path fill="none" stroke="lightgray" d="M66.6799,-301.828C105.161,-295.502 178.67,-283.419 224.97,-275.809"/>
<polygon fill="lightgray" stroke="lightgray" points="225.681,-279.239 234.981,-274.163 224.545,-272.331 225.681,-279.239"/>
<text text-anchor="middle" x="157.093" y="-300.8" font-family="Times New Roman,serif" font-size="14.00" fill="lightgray">wff th</text>
</g>
<!-- n8302 -->
<g id="node10" class="node"><title>n8302</title>
<ellipse fill="none" stroke="lightgray" cx="40.2964" cy="-234" rx="27" ry="18"/>
<text text-anchor="middle" x="40.2964" y="-230.3" font-family="Times New Roman,serif" font-size="14.00" fill="lightgray">wta</text>
</g>
<!-- n8301&#45;&gt;n8302 -->
<g id="edge16" class="edge"><title>n8301&#45;&gt;n8302</title>
</g>
<!-- n8302&#45;&gt;n8306 -->
<g id="edge8" class="edge"><title>n8302&#45;&gt;n8306</title>
<path fill="none" stroke="lightgray" d="M67.0236,-237.614C101.059,-242.446 162.902,-251.404 215.593,-260 218.775,-260.519 222.067,-261.07 225.374,-261.634"/>
<polygon fill="lightgray" stroke="lightgray" points="224.8,-265.087 235.251,-263.344 225.994,-258.189 224.8,-265.087"/>
<text text-anchor="middle" x="157.093" y="-263.8" font-family="Times New Roman,serif" font-size="14.00" fill="lightgray">wff ta</text>
</g>
<!-- n8303 -->
<g id="node11" class="node"><title>n8303</title>
<ellipse fill="orange" stroke="black" cx="40.2964" cy="-162" rx="40.0939" ry="18"/>
<text text-anchor="middle" x="40.2964" y="-158.3" font-family="Times New Roman,serif" font-size="14.00">syl2an.1</text>
</g>
<!-- n8302&#45;&gt;n8303 -->
<g id="edge17" class="edge"><title>n8302&#45;&gt;n8303</title>
</g>
<!-- n8303&#45;&gt;n8306 -->
<g id="edge9" class="edge"><title>n8303&#45;&gt;n8306</title>
<path fill="none" stroke="black" d="M76.4162,-170.239C112.893,-179.745 170.79,-197.547 215.593,-224 225.588,-229.901 235.412,-237.925 243.718,-245.563"/>
<polygon fill="black" stroke="black" points="241.524,-248.308 251.172,-252.687 246.36,-243.247 241.524,-248.308"/>
<text text-anchor="middle" x="157.093" y="-227.8" font-family="Times New Roman,serif" font-size="14.00">|&#45; ( ph &#45;&gt; ps )</text>
</g>
<!-- n8304 -->
<g id="node12" class="node"><title>n8304</title>
<ellipse fill="orange" stroke="black" cx="40.2964" cy="-90" rx="40.0939" ry="18"/>
<text text-anchor="middle" x="40.2964" y="-86.3" font-family="Times New Roman,serif" font-size="14.00">syl2an.2</text>
</g>
<!-- n8303&#45;&gt;n8304 -->
<g id="edge18" class="edge"><title>n8303&#45;&gt;n8304</title>
</g>
<!-- n8304&#45;&gt;n8306 -->
<g id="edge10" class="edge"><title>n8304&#45;&gt;n8306</title>
<path fill="none" stroke="black" d="M78.3324,-96.2702C116.93,-104.542 177.053,-122.548 215.593,-159 239.128,-181.26 252.729,-216.545 259.832,-241.129"/>
<polygon fill="black" stroke="black" points="256.497,-242.202 262.488,-250.94 263.253,-240.373 256.497,-242.202"/>
<text text-anchor="middle" x="157.093" y="-162.8" font-family="Times New Roman,serif" font-size="14.00">|&#45; ( ta &#45;&gt; ch )</text>
</g>
<!-- n8305 -->
<g id="node13" class="node"><title>n8305</title>
<ellipse fill="orange" stroke="black" cx="40.2964" cy="-18" rx="40.0939" ry="18"/>
<text text-anchor="middle" x="40.2964" y="-14.3" font-family="Times New Roman,serif" font-size="14.00">syl2an.3</text>
</g>
<!-- n8304&#45;&gt;n8305 -->
<g id="edge19" class="edge"><title>n8304&#45;&gt;n8305</title>
</g>
<!-- n8305&#45;&gt;n8306 -->
<g id="edge11" class="edge"><title>n8305&#45;&gt;n8306</title>
<path fill="none" stroke="black" d="M79.5342,-22.1142C119.135,-28.4095 180.089,-44.1337 215.593,-83 256.024,-127.259 264.746,-200.616 266.338,-240.702"/>
<polygon fill="black" stroke="black" points="262.843,-240.94 266.615,-250.841 269.841,-240.749 262.843,-240.94"/>
<text text-anchor="middle" x="157.093" y="-86.8" font-family="Times New Roman,serif" font-size="14.00">|&#45; ( ( ps /\ ch ) &#45;&gt; th )</text>
</g>
</g>
</svg>
