<?xml version="1.0" encoding="UTF-8" standalone="no"?>
<!DOCTYPE svg PUBLIC "-//W3C//DTD SVG 1.1//EN"
 "http://www.w3.org/Graphics/SVG/1.1/DTD/svg11.dtd">
<!-- Generated by graphviz version 2.38.0 (20140413.2041)
 -->
<!-- Title: proof_syl6bir Pages: 1 -->
<svg width="780pt" height="431pt"
 viewBox="0.00 0.00 780.48 431.00" xmlns="http://www.w3.org/2000/svg" xmlns:xlink="http://www.w3.org/1999/xlink">
<g id="graph0" class="graph" transform="scale(1 1) rotate(0) translate(4 427)">
<title>proof_syl6bir</title>
<polygon fill="white" stroke="none" points="-4,4 -4,-427 776.48,-427 776.48,4 -4,4"/>
<!-- n4839 -->
<g id="node1" class="node"><title>n4839</title>
<ellipse fill="none" stroke="lightgray" cx="296.739" cy="-405" rx="27" ry="18"/>
<text text-anchor="middle" x="296.739" y="-401.3" font-family="Times New Roman,serif" font-size="14.00" fill="lightgray">wph</text>
</g>
<!-- n4849 -->
<g id="node2" class="node"><title>n4849</title>
<ellipse fill="cyan" stroke="black" cx="527.985" cy="-224" rx="27" ry="18"/>
<text text-anchor="middle" x="527.985" y="-220.3" font-family="Times New Roman,serif" font-size="14.00">syl6</text>
</g>
<!-- n4839&#45;&gt;n4849 -->
<g id="edge1" class="edge"><title>n4839&#45;&gt;n4849</title>
<path fill="none" stroke="lightgray" d="M323.76,-402.571C363.25,-397.546 438.42,-382.545 482.985,-339 506.905,-315.628 518.022,-277.874 523.05,-252.044"/>
<polygon fill="lightgray" stroke="lightgray" points="526.511,-252.572 524.8,-242.116 519.617,-251.357 526.511,-252.572"/>
<text text-anchor="middle" x="419.985" y="-399.8" font-family="Times New Roman,serif" font-size="14.00" fill="lightgray">wff ph</text>
</g>
<!-- n4840 -->
<g id="node3" class="node"><title>n4840</title>
<ellipse fill="none" stroke="lightgray" cx="296.739" cy="-333" rx="27" ry="18"/>
<text text-anchor="middle" x="296.739" y="-329.3" font-family="Times New Roman,serif" font-size="14.00" fill="lightgray">wps</text>
</g>
<!-- n4839&#45;&gt;n4840 -->
<g id="edge15" class="edge"><title>n4839&#45;&gt;n4840</title>
</g>
<!-- QED -->
<g id="node12" class="node"><title>QED</title>
</g>
<!-- n4849&#45;&gt;QED -->
<g id="edge14" class="edge"><title>n4849&#45;&gt;QED</title>
<path fill="none" stroke="black" d="M555.133,-224C592.327,-224 660.756,-224 703.748,-224"/>
<polygon fill="black" stroke="black" points="703.832,-227.5 713.832,-224 703.832,-220.5 703.832,-227.5"/>
<text text-anchor="middle" x="634.485" y="-227.8" font-family="Times New Roman,serif" font-size="14.00">|&#45; ( ph &#45;&gt; ( ps &#45;&gt; th ) )</text>
</g>
<!-- n4840&#45;&gt;n4849 -->
<g id="edge2" class="edge"><title>n4840&#45;&gt;n4849</title>
<path fill="none" stroke="lightgray" d="M323.13,-328.631C360.507,-321.327 431.47,-304.068 482.985,-271 492.438,-264.932 501.25,-256.385 508.468,-248.24"/>
<polygon fill="lightgray" stroke="lightgray" points="511.358,-250.241 515.119,-240.336 506.002,-245.734 511.358,-250.241"/>
<text text-anchor="middle" x="419.985" y="-323.8" font-family="Times New Roman,serif" font-size="14.00" fill="lightgray">wff ps</text>
</g>
<!-- n4841 -->
<g id="node4" class="node"><title>n4841</title>
<ellipse fill="none" stroke="lightgray" cx="296.739" cy="-261" rx="27" ry="18"/>
<text text-anchor="middle" x="296.739" y="-257.3" font-family="Times New Roman,serif" font-size="14.00" fill="lightgray">wch</text>
</g>
<!-- n4840&#45;&gt;n4841 -->
<g id="edge16" class="edge"><title>n4840&#45;&gt;n4841</title>
</g>
<!-- n4841&#45;&gt;n4849 -->
<g id="edge3" class="edge"><title>n4841&#45;&gt;n4849</title>
<path fill="none" stroke="lightgray" d="M323.148,-256.899C364.115,-250.287 444.874,-237.253 491.5,-229.727"/>
<polygon fill="lightgray" stroke="lightgray" points="492.147,-233.168 501.462,-228.119 491.032,-226.258 492.147,-233.168"/>
<text text-anchor="middle" x="419.985" y="-255.8" font-family="Times New Roman,serif" font-size="14.00" fill="lightgray">wff ch</text>
</g>
<!-- n4842 -->
<g id="node5" class="node"><title>n4842</title>
<ellipse fill="none" stroke="lightgray" cx="296.739" cy="-189" rx="27" ry="18"/>
<text text-anchor="middle" x="296.739" y="-185.3" font-family="Times New Roman,serif" font-size="14.00" fill="lightgray">wth</text>
</g>
<!-- n4841&#45;&gt;n4842 -->
<g id="edge17" class="edge"><title>n4841&#45;&gt;n4842</title>
</g>
<!-- n4842&#45;&gt;n4849 -->
<g id="edge4" class="edge"><title>n4842&#45;&gt;n4849</title>
<path fill="none" stroke="lightgray" d="M323.59,-192.112C359.467,-196.548 426.337,-205.241 482.985,-215 485.866,-215.496 488.848,-216.041 491.838,-216.608"/>
<polygon fill="lightgray" stroke="lightgray" points="491.419,-220.092 501.906,-218.589 492.77,-213.224 491.419,-220.092"/>
<text text-anchor="middle" x="419.985" y="-218.8" font-family="Times New Roman,serif" font-size="14.00" fill="lightgray">wff th</text>
</g>
<!-- n4847 -->
<g id="node7" class="node"><title>n4847</title>
<ellipse fill="cyan" stroke="black" cx="296.739" cy="-117" rx="38.9931" ry="18"/>
<text text-anchor="middle" x="296.739" y="-113.3" font-family="Times New Roman,serif" font-size="14.00">biimprd</text>
</g>
<!-- n4842&#45;&gt;n4847 -->
<g id="edge18" class="edge"><title>n4842&#45;&gt;n4847</title>
</g>
<!-- n4843 -->
<g id="node6" class="node"><title>n4843</title>
<ellipse fill="none" stroke="lightgray" cx="42.2463" cy="-234" rx="27" ry="18"/>
<text text-anchor="middle" x="42.2463" y="-230.3" font-family="Times New Roman,serif" font-size="14.00" fill="lightgray">wph</text>
</g>
<!-- n4843&#45;&gt;n4847 -->
<g id="edge5" class="edge"><title>n4843&#45;&gt;n4847</title>
<path fill="none" stroke="lightgray" d="M68.478,-229.571C106.821,-222.058 181.143,-204.382 236.493,-172 250.432,-163.845 263.81,-151.909 274.316,-141.238"/>
<polygon fill="lightgray" stroke="lightgray" points="277.069,-143.422 281.424,-133.764 271.997,-138.598 277.069,-143.422"/>
<text text-anchor="middle" x="169.493" y="-225.8" font-family="Times New Roman,serif" font-size="14.00" fill="lightgray">wff ph</text>
</g>
<!-- n4844 -->
<g id="node8" class="node"><title>n4844</title>
<ellipse fill="none" stroke="lightgray" cx="42.2463" cy="-162" rx="27" ry="18"/>
<text text-anchor="middle" x="42.2463" y="-158.3" font-family="Times New Roman,serif" font-size="14.00" fill="lightgray">wch</text>
</g>
<!-- n4843&#45;&gt;n4844 -->
<g id="edge10" class="edge"><title>n4843&#45;&gt;n4844</title>
</g>
<!-- n4847&#45;&gt;n4849 -->
<g id="edge9" class="edge"><title>n4847&#45;&gt;n4849</title>
<path fill="none" stroke="black" d="M333.409,-123.343C372.438,-131.465 435.735,-148.188 482.985,-178 492.378,-183.927 501.177,-192.289 508.401,-200.262"/>
<polygon fill="black" stroke="black" points="505.887,-202.706 515.064,-208 511.191,-198.138 505.887,-202.706"/>
<text text-anchor="middle" x="419.985" y="-181.8" font-family="Times New Roman,serif" font-size="14.00">|&#45; ( ph &#45;&gt; ( ps &#45;&gt; ch ) )</text>
</g>
<!-- n4848 -->
<g id="node11" class="node"><title>n4848</title>
<ellipse fill="orange" stroke="black" cx="296.739" cy="-45" rx="42.4939" ry="18"/>
<text text-anchor="middle" x="296.739" y="-41.3" font-family="Times New Roman,serif" font-size="14.00">syl6bir.2</text>
</g>
<!-- n4847&#45;&gt;n4848 -->
<g id="edge19" class="edge"><title>n4847&#45;&gt;n4848</title>
</g>
<!-- n4844&#45;&gt;n4847 -->
<g id="edge6" class="edge"><title>n4844&#45;&gt;n4847</title>
<path fill="none" stroke="lightgray" d="M68.9542,-158.177C106.054,-152.563 176.717,-141.499 236.493,-130 241.282,-129.079 246.277,-128.065 251.247,-127.023"/>
<polygon fill="lightgray" stroke="lightgray" points="252.293,-130.379 261.34,-124.864 250.829,-123.534 252.293,-130.379"/>
<text text-anchor="middle" x="169.493" y="-156.8" font-family="Times New Roman,serif" font-size="14.00" fill="lightgray">wff ch</text>
</g>
<!-- n4845 -->
<g id="node9" class="node"><title>n4845</title>
<ellipse fill="none" stroke="lightgray" cx="42.2463" cy="-90" rx="27" ry="18"/>
<text text-anchor="middle" x="42.2463" y="-86.3" font-family="Times New Roman,serif" font-size="14.00" fill="lightgray">wps</text>
</g>
<!-- n4844&#45;&gt;n4845 -->
<g id="edge11" class="edge"><title>n4844&#45;&gt;n4845</title>
</g>
<!-- n4845&#45;&gt;n4847 -->
<g id="edge7" class="edge"><title>n4845&#45;&gt;n4847</title>
<path fill="none" stroke="lightgray" d="M69.3164,-92.7878C111.487,-97.2972 195.276,-106.257 248.254,-111.922"/>
<polygon fill="lightgray" stroke="lightgray" points="248.101,-115.426 258.417,-113.009 248.846,-108.465 248.101,-115.426"/>
<text text-anchor="middle" x="169.493" y="-114.8" font-family="Times New Roman,serif" font-size="14.00" fill="lightgray">wff ps</text>
</g>
<!-- n4846 -->
<g id="node10" class="node"><title>n4846</title>
<ellipse fill="orange" stroke="black" cx="42.2463" cy="-18" rx="42.4939" ry="18"/>
<text text-anchor="middle" x="42.2463" y="-14.3" font-family="Times New Roman,serif" font-size="14.00">syl6bir.1</text>
</g>
<!-- n4845&#45;&gt;n4846 -->
<g id="edge12" class="edge"><title>n4845&#45;&gt;n4846</title>
</g>
<!-- n4846&#45;&gt;n4847 -->
<g id="edge8" class="edge"><title>n4846&#45;&gt;n4847</title>
<path fill="none" stroke="black" d="M80.0007,-26.1372C119.748,-35.678 184.407,-53.3768 236.493,-78 247.062,-82.9966 257.94,-89.6509 267.444,-96.0462"/>
<polygon fill="black" stroke="black" points="265.525,-98.9743 275.738,-101.792 269.511,-93.22 265.525,-98.9743"/>
<text text-anchor="middle" x="169.493" y="-81.8" font-family="Times New Roman,serif" font-size="14.00">|&#45; ( ph &#45;&gt; ( ch &lt;&#45;&gt; ps ) )</text>
</g>
<!-- n4848&#45;&gt;n4849 -->
<g id="edge13" class="edge"><title>n4848&#45;&gt;n4849</title>
<path fill="none" stroke="black" d="M337.896,-49.5117C379.275,-56.1701 443.189,-72.3444 482.985,-111 506.373,-133.718 517.567,-170.306 522.76,-195.668"/>
<polygon fill="black" stroke="black" points="519.37,-196.583 524.637,-205.776 526.253,-195.305 519.37,-196.583"/>
<text text-anchor="middle" x="419.985" y="-114.8" font-family="Times New Roman,serif" font-size="14.00">|&#45; ( ch &#45;&gt; th )</text>
</g>
</g>
</svg>
