<?xml version="1.0" encoding="UTF-8" standalone="no"?>
<!DOCTYPE svg PUBLIC "-//W3C//DTD SVG 1.1//EN"
 "http://www.w3.org/Graphics/SVG/1.1/DTD/svg11.dtd">
<!-- Generated by graphviz version 2.38.0 (20140413.2041)
 -->
<!-- Title: proof_syl6bb Pages: 1 -->
<svg width="883pt" height="476pt"
 viewBox="0.00 0.00 883.37 476.00" xmlns="http://www.w3.org/2000/svg" xmlns:xlink="http://www.w3.org/1999/xlink">
<g id="graph0" class="graph" transform="scale(1 1) rotate(0) translate(4 472)">
<title>proof_syl6bb</title>
<polygon fill="white" stroke="none" points="-4,4 -4,-472 879.375,-472 879.375,4 -4,4"/>
<!-- n5302 -->
<g id="node1" class="node"><title>n5302</title>
<ellipse fill="none" stroke="lightgray" cx="381.739" cy="-450" rx="27" ry="18"/>
<text text-anchor="middle" x="381.739" y="-446.3" font-family="Times New Roman,serif" font-size="14.00" fill="lightgray">wph</text>
</g>
<!-- n5313 -->
<g id="node2" class="node"><title>n5313</title>
<ellipse fill="cyan" stroke="black" cx="621.933" cy="-269" rx="27.8951" ry="18"/>
<text text-anchor="middle" x="621.933" y="-265.3" font-family="Times New Roman,serif" font-size="14.00">bitrd</text>
</g>
<!-- n5302&#45;&gt;n5313 -->
<g id="edge1" class="edge"><title>n5302&#45;&gt;n5313</title>
<path fill="none" stroke="lightgray" d="M408.817,-447.98C449.65,-443.472 528.867,-429.113 575.985,-384 600.208,-360.808 611.611,-323.014 616.817,-297.126"/>
<polygon fill="lightgray" stroke="lightgray" points="620.281,-297.639 618.633,-287.173 613.395,-296.382 620.281,-297.639"/>
<text text-anchor="middle" x="508.985" y="-445.8" font-family="Times New Roman,serif" font-size="14.00" fill="lightgray">wff ph</text>
</g>
<!-- n5303 -->
<g id="node3" class="node"><title>n5303</title>
<ellipse fill="none" stroke="lightgray" cx="381.739" cy="-378" rx="27" ry="18"/>
<text text-anchor="middle" x="381.739" y="-374.3" font-family="Times New Roman,serif" font-size="14.00" fill="lightgray">wps</text>
</g>
<!-- n5302&#45;&gt;n5303 -->
<g id="edge16" class="edge"><title>n5302&#45;&gt;n5303</title>
</g>
<!-- QED -->
<g id="node13" class="node"><title>QED</title>
</g>
<!-- n5313&#45;&gt;QED -->
<g id="edge15" class="edge"><title>n5313&#45;&gt;QED</title>
<path fill="none" stroke="black" d="M650.178,-269C689.336,-269 761.722,-269 806.42,-269"/>
<polygon fill="black" stroke="black" points="806.605,-272.5 816.605,-269 806.605,-265.5 806.605,-272.5"/>
<text text-anchor="middle" x="733.38" y="-272.8" font-family="Times New Roman,serif" font-size="14.00">|&#45; ( ph &#45;&gt; ( ps &lt;&#45;&gt; th ) )</text>
</g>
<!-- n5303&#45;&gt;n5313 -->
<g id="edge2" class="edge"><title>n5303&#45;&gt;n5313</title>
<path fill="none" stroke="lightgray" d="M408.171,-373.749C446.777,-366.441 521.437,-348.9 575.985,-315 585.516,-309.077 594.491,-300.715 601.877,-292.742"/>
<polygon fill="lightgray" stroke="lightgray" points="604.711,-294.82 608.696,-285.003 599.459,-290.192 604.711,-294.82"/>
<text text-anchor="middle" x="508.985" y="-368.8" font-family="Times New Roman,serif" font-size="14.00" fill="lightgray">wff ps</text>
</g>
<!-- n5304 -->
<g id="node4" class="node"><title>n5304</title>
<ellipse fill="none" stroke="lightgray" cx="381.739" cy="-306" rx="27" ry="18"/>
<text text-anchor="middle" x="381.739" y="-302.3" font-family="Times New Roman,serif" font-size="14.00" fill="lightgray">wch</text>
</g>
<!-- n5303&#45;&gt;n5304 -->
<g id="edge17" class="edge"><title>n5303&#45;&gt;n5304</title>
</g>
<!-- n5304&#45;&gt;n5313 -->
<g id="edge3" class="edge"><title>n5304&#45;&gt;n5313</title>
<path fill="none" stroke="lightgray" d="M408.23,-302.04C450.606,-295.458 535.694,-282.241 584.429,-274.67"/>
<polygon fill="lightgray" stroke="lightgray" points="585.194,-278.093 594.539,-273.1 584.12,-271.176 585.194,-278.093"/>
<text text-anchor="middle" x="508.985" y="-299.8" font-family="Times New Roman,serif" font-size="14.00" fill="lightgray">wff ch</text>
</g>
<!-- n5305 -->
<g id="node5" class="node"><title>n5305</title>
<ellipse fill="none" stroke="lightgray" cx="381.739" cy="-234" rx="27" ry="18"/>
<text text-anchor="middle" x="381.739" y="-230.3" font-family="Times New Roman,serif" font-size="14.00" fill="lightgray">wth</text>
</g>
<!-- n5304&#45;&gt;n5305 -->
<g id="edge18" class="edge"><title>n5304&#45;&gt;n5305</title>
</g>
<!-- n5305&#45;&gt;n5313 -->
<g id="edge4" class="edge"><title>n5305&#45;&gt;n5313</title>
<path fill="none" stroke="lightgray" d="M408.45,-236.929C445.553,-241.277 516.22,-250.006 575.985,-260 578.855,-260.48 581.822,-261.006 584.8,-261.556"/>
<polygon fill="lightgray" stroke="lightgray" points="584.36,-265.035 594.84,-263.482 585.679,-258.161 584.36,-265.035"/>
<text text-anchor="middle" x="508.985" y="-263.8" font-family="Times New Roman,serif" font-size="14.00" fill="lightgray">wff th</text>
</g>
<!-- n5306 -->
<g id="node6" class="node"><title>n5306</title>
<ellipse fill="orange" stroke="black" cx="381.739" cy="-162" rx="42.4939" ry="18"/>
<text text-anchor="middle" x="381.739" y="-158.3" font-family="Times New Roman,serif" font-size="14.00">syl6bb.1</text>
</g>
<!-- n5305&#45;&gt;n5306 -->
<g id="edge19" class="edge"><title>n5305&#45;&gt;n5306</title>
</g>
<!-- n5306&#45;&gt;n5313 -->
<g id="edge5" class="edge"><title>n5306&#45;&gt;n5313</title>
<path fill="none" stroke="black" d="M421.82,-168.139C462.667,-175.873 527.449,-191.949 575.985,-222 585.733,-228.035 594.82,-236.678 602.236,-244.91"/>
<polygon fill="black" stroke="black" points="599.639,-247.258 608.802,-252.577 604.956,-242.705 599.639,-247.258"/>
<text text-anchor="middle" x="508.985" y="-225.8" font-family="Times New Roman,serif" font-size="14.00">|&#45; ( ph &#45;&gt; ( ps &lt;&#45;&gt; ch ) )</text>
</g>
<!-- n5312 -->
<g id="node10" class="node"><title>n5312</title>
<ellipse fill="cyan" stroke="black" cx="381.739" cy="-90" rx="27" ry="18"/>
<text text-anchor="middle" x="381.739" y="-86.3" font-family="Times New Roman,serif" font-size="14.00">a1i</text>
</g>
<!-- n5306&#45;&gt;n5312 -->
<g id="edge20" class="edge"><title>n5306&#45;&gt;n5312</title>
</g>
<!-- n5307 -->
<g id="node7" class="node"><title>n5307</title>
<ellipse fill="none" stroke="lightgray" cx="27" cy="-207" rx="27" ry="18"/>
<text text-anchor="middle" x="27" y="-203.3" font-family="Times New Roman,serif" font-size="14.00" fill="lightgray">wch</text>
</g>
<!-- n5309 -->
<g id="node8" class="node"><title>n5309</title>
<ellipse fill="none" stroke="lightgray" cx="169.246" cy="-162" rx="27" ry="18"/>
<text text-anchor="middle" x="169.246" y="-158.3" font-family="Times New Roman,serif" font-size="14.00" fill="lightgray">wb</text>
</g>
<!-- n5307&#45;&gt;n5309 -->
<g id="edge6" class="edge"><title>n5307&#45;&gt;n5309</title>
<path fill="none" stroke="lightgray" d="M51.7909,-199.366C74.5582,-192.061 109.12,-180.971 134.683,-172.769"/>
<polygon fill="lightgray" stroke="lightgray" points="135.886,-176.059 144.339,-169.671 133.747,-169.394 135.886,-176.059"/>
<text text-anchor="middle" x="90.5" y="-196.8" font-family="Times New Roman,serif" font-size="14.00" fill="lightgray">wff ch</text>
</g>
<!-- n5308 -->
<g id="node9" class="node"><title>n5308</title>
<ellipse fill="none" stroke="lightgray" cx="27" cy="-135" rx="27" ry="18"/>
<text text-anchor="middle" x="27" y="-131.3" font-family="Times New Roman,serif" font-size="14.00" fill="lightgray">wth</text>
</g>
<!-- n5307&#45;&gt;n5308 -->
<g id="edge9" class="edge"><title>n5307&#45;&gt;n5308</title>
</g>
<!-- n5309&#45;&gt;n5312 -->
<g id="edge8" class="edge"><title>n5309&#45;&gt;n5312</title>
<path fill="none" stroke="lightgray" d="M193.577,-154.02C231.035,-141.207 304.722,-116.002 347.616,-101.33"/>
<polygon fill="lightgray" stroke="lightgray" points="348.975,-104.564 357.304,-98.0161 346.709,-97.941 348.975,-104.564"/>
<text text-anchor="middle" x="275.493" y="-144.8" font-family="Times New Roman,serif" font-size="14.00" fill="lightgray">wff ( ch &lt;&#45;&gt; th )</text>
</g>
<!-- n5310 -->
<g id="node11" class="node"><title>n5310</title>
<ellipse fill="none" stroke="lightgray" cx="169.246" cy="-90" rx="27" ry="18"/>
<text text-anchor="middle" x="169.246" y="-86.3" font-family="Times New Roman,serif" font-size="14.00" fill="lightgray">wph</text>
</g>
<!-- n5309&#45;&gt;n5310 -->
<g id="edge13" class="edge"><title>n5309&#45;&gt;n5310</title>
</g>
<!-- n5308&#45;&gt;n5309 -->
<g id="edge7" class="edge"><title>n5308&#45;&gt;n5309</title>
<path fill="none" stroke="lightgray" d="M53.0732,-139.827C75.2719,-144.101 107.916,-150.385 132.787,-155.173"/>
<polygon fill="lightgray" stroke="lightgray" points="132.436,-158.67 142.917,-157.124 133.759,-151.796 132.436,-158.67"/>
<text text-anchor="middle" x="90.5" y="-154.8" font-family="Times New Roman,serif" font-size="14.00" fill="lightgray">wff th</text>
</g>
<!-- n5312&#45;&gt;n5313 -->
<g id="edge12" class="edge"><title>n5312&#45;&gt;n5313</title>
<path fill="none" stroke="black" d="M408.794,-91.8866C449.595,-96.1858 528.77,-110.138 575.985,-155 600.113,-177.926 611.537,-215.406 616.774,-241.089"/>
<polygon fill="black" stroke="black" points="613.34,-241.769 618.603,-250.964 620.223,-240.494 613.34,-241.769"/>
<text text-anchor="middle" x="508.985" y="-158.8" font-family="Times New Roman,serif" font-size="14.00">|&#45; ( ph &#45;&gt; ( ch &lt;&#45;&gt; th ) )</text>
</g>
<!-- n5310&#45;&gt;n5312 -->
<g id="edge10" class="edge"><title>n5310&#45;&gt;n5312</title>
<path fill="none" stroke="lightgray" d="M196.48,-90C233.766,-90 302.232,-90 344.39,-90"/>
<polygon fill="lightgray" stroke="lightgray" points="344.506,-93.5001 354.506,-90 344.506,-86.5001 344.506,-93.5001"/>
<text text-anchor="middle" x="275.493" y="-93.8" font-family="Times New Roman,serif" font-size="14.00" fill="lightgray">wff ph</text>
</g>
<!-- n5311 -->
<g id="node12" class="node"><title>n5311</title>
<ellipse fill="orange" stroke="black" cx="169.246" cy="-18" rx="42.4939" ry="18"/>
<text text-anchor="middle" x="169.246" y="-14.3" font-family="Times New Roman,serif" font-size="14.00">syl6bb.2</text>
</g>
<!-- n5310&#45;&gt;n5311 -->
<g id="edge14" class="edge"><title>n5310&#45;&gt;n5311</title>
</g>
<!-- n5311&#45;&gt;n5312 -->
<g id="edge11" class="edge"><title>n5311&#45;&gt;n5312</title>
<path fill="none" stroke="black" d="M202.674,-29.0922C242.116,-42.5835 308.32,-65.2289 347.932,-78.7784"/>
<polygon fill="black" stroke="black" points="346.803,-82.0912 357.398,-82.0161 349.069,-75.468 346.803,-82.0912"/>
<text text-anchor="middle" x="275.493" y="-72.8" font-family="Times New Roman,serif" font-size="14.00">|&#45; ( ch &lt;&#45;&gt; th )</text>
</g>
</g>
</svg>
