<?xml version="1.0" encoding="UTF-8" standalone="no"?>
<!DOCTYPE svg PUBLIC "-//W3C//DTD SVG 1.1//EN"
 "http://www.w3.org/Graphics/SVG/1.1/DTD/svg11.dtd">
<!-- Generated by graphviz version 2.38.0 (20140413.2041)
 -->
<!-- Title: proof_sylanl2 Pages: 1 -->
<svg width="787pt" height="525pt"
 viewBox="0.00 0.00 786.97 525.00" xmlns="http://www.w3.org/2000/svg" xmlns:xlink="http://www.w3.org/1999/xlink">
<g id="graph0" class="graph" transform="scale(1 1) rotate(0) translate(4 521)">
<title>proof_sylanl2</title>
<polygon fill="white" stroke="none" points="-4,4 -4,-521 782.975,-521 782.975,4 -4,4"/>
<!-- n11255 -->
<g id="node1" class="node"><title>n11255</title>
<ellipse fill="none" stroke="lightgray" cx="42.2463" cy="-499" rx="27" ry="18"/>
<text text-anchor="middle" x="42.2463" y="-495.3" font-family="Times New Roman,serif" font-size="14.00" fill="lightgray">wps</text>
</g>
<!-- n11257 -->
<g id="node2" class="node"><title>n11257</title>
<ellipse fill="none" stroke="lightgray" cx="238.739" cy="-428" rx="27" ry="18"/>
<text text-anchor="middle" x="238.739" y="-424.3" font-family="Times New Roman,serif" font-size="14.00" fill="lightgray">wa</text>
</g>
<!-- n11255&#45;&gt;n11257 -->
<g id="edge1" class="edge"><title>n11255&#45;&gt;n11257</title>
<path fill="none" stroke="lightgray" d="M66.3209,-490.577C100.828,-477.98 166.013,-454.184 205.299,-439.842"/>
<polygon fill="lightgray" stroke="lightgray" points="206.501,-443.13 214.694,-436.412 204.1,-436.554 206.501,-443.13"/>
<text text-anchor="middle" x="140.493" y="-479.8" font-family="Times New Roman,serif" font-size="14.00" fill="lightgray">wff ps</text>
</g>
<!-- n11256 -->
<g id="node3" class="node"><title>n11256</title>
<ellipse fill="none" stroke="lightgray" cx="42.2463" cy="-427" rx="27" ry="18"/>
<text text-anchor="middle" x="42.2463" y="-423.3" font-family="Times New Roman,serif" font-size="14.00" fill="lightgray">wph</text>
</g>
<!-- n11255&#45;&gt;n11256 -->
<g id="edge4" class="edge"><title>n11255&#45;&gt;n11256</title>
</g>
<!-- n11269 -->
<g id="node4" class="node"><title>n11269</title>
<ellipse fill="cyan" stroke="black" cx="504.232" cy="-247" rx="29.4969" ry="18"/>
<text text-anchor="middle" x="504.232" y="-243.3" font-family="Times New Roman,serif" font-size="14.00">sylan</text>
</g>
<!-- n11257&#45;&gt;n11269 -->
<g id="edge3" class="edge"><title>n11257&#45;&gt;n11269</title>
<path fill="none" stroke="lightgray" d="M266.051,-427.867C310.886,-426.232 402.515,-416.57 456.985,-367 483.225,-343.12 494.708,-302.65 499.645,-275.386"/>
<polygon fill="lightgray" stroke="lightgray" points="503.135,-275.729 501.283,-265.297 496.225,-274.606 503.135,-275.729"/>
<text text-anchor="middle" x="377.985" y="-429.8" font-family="Times New Roman,serif" font-size="14.00" fill="lightgray">wff ( ps / ph )</text>
</g>
<!-- n11260 -->
<g id="node6" class="node"><title>n11260</title>
<ellipse fill="none" stroke="lightgray" cx="238.739" cy="-356" rx="27" ry="18"/>
<text text-anchor="middle" x="238.739" y="-352.3" font-family="Times New Roman,serif" font-size="14.00" fill="lightgray">wa</text>
</g>
<!-- n11257&#45;&gt;n11260 -->
<g id="edge21" class="edge"><title>n11257&#45;&gt;n11260</title>
</g>
<!-- n11256&#45;&gt;n11257 -->
<g id="edge2" class="edge"><title>n11256&#45;&gt;n11257</title>
<path fill="none" stroke="lightgray" d="M69.4764,-427.135C103.501,-427.31 163.03,-427.616 201.394,-427.813"/>
<polygon fill="lightgray" stroke="lightgray" points="201.596,-431.314 211.614,-427.866 201.633,-424.314 201.596,-431.314"/>
<text text-anchor="middle" x="140.493" y="-431.8" font-family="Times New Roman,serif" font-size="14.00" fill="lightgray">wff ph</text>
</g>
<!-- QED -->
<g id="node16" class="node"><title>QED</title>
</g>
<!-- n11269&#45;&gt;QED -->
<g id="edge20" class="edge"><title>n11269&#45;&gt;QED</title>
<path fill="none" stroke="black" d="M533.641,-247C577.236,-247 660.734,-247 709.887,-247"/>
<polygon fill="black" stroke="black" points="710.123,-250.5 720.123,-247 710.123,-243.5 710.123,-250.5"/>
<text text-anchor="middle" x="626.98" y="-250.8" font-family="Times New Roman,serif" font-size="14.00">|&#45; ( ( ( ps / ph ) / th ) &#45;&gt; ta )</text>
</g>
<!-- n11258 -->
<g id="node5" class="node"><title>n11258</title>
<ellipse fill="none" stroke="lightgray" cx="42.2463" cy="-369" rx="27" ry="18"/>
<text text-anchor="middle" x="42.2463" y="-365.3" font-family="Times New Roman,serif" font-size="14.00" fill="lightgray">wps</text>
</g>
<!-- n11258&#45;&gt;n11260 -->
<g id="edge5" class="edge"><title>n11258&#45;&gt;n11260</title>
<path fill="none" stroke="lightgray" d="M69.4764,-367.247C103.501,-364.973 163.03,-360.994 201.394,-358.429"/>
<polygon fill="lightgray" stroke="lightgray" points="201.87,-361.905 211.614,-357.746 201.403,-354.921 201.87,-361.905"/>
<text text-anchor="middle" x="140.493" y="-368.8" font-family="Times New Roman,serif" font-size="14.00" fill="lightgray">wff ps</text>
</g>
<!-- n11259 -->
<g id="node7" class="node"><title>n11259</title>
<ellipse fill="none" stroke="lightgray" cx="42.2463" cy="-297" rx="27" ry="18"/>
<text text-anchor="middle" x="42.2463" y="-293.3" font-family="Times New Roman,serif" font-size="14.00" fill="lightgray">wch</text>
</g>
<!-- n11258&#45;&gt;n11259 -->
<g id="edge8" class="edge"><title>n11258&#45;&gt;n11259</title>
</g>
<!-- n11260&#45;&gt;n11269 -->
<g id="edge7" class="edge"><title>n11260&#45;&gt;n11269</title>
<path fill="none" stroke="lightgray" d="M265.557,-353.199C308.101,-347.65 394.445,-332.392 456.985,-295 467.327,-288.817 476.907,-279.723 484.634,-271.108"/>
<polygon fill="lightgray" stroke="lightgray" points="487.355,-273.311 491.178,-263.429 482.028,-268.77 487.355,-273.311"/>
<text text-anchor="middle" x="377.985" y="-351.8" font-family="Times New Roman,serif" font-size="14.00" fill="lightgray">wff ( ps / ch )</text>
</g>
<!-- n11261 -->
<g id="node8" class="node"><title>n11261</title>
<ellipse fill="none" stroke="lightgray" cx="238.739" cy="-284" rx="27" ry="18"/>
<text text-anchor="middle" x="238.739" y="-280.3" font-family="Times New Roman,serif" font-size="14.00" fill="lightgray">wth</text>
</g>
<!-- n11260&#45;&gt;n11261 -->
<g id="edge22" class="edge"><title>n11260&#45;&gt;n11261</title>
</g>
<!-- n11259&#45;&gt;n11260 -->
<g id="edge6" class="edge"><title>n11259&#45;&gt;n11260</title>
<path fill="none" stroke="lightgray" d="M67.0948,-304.235C101.434,-314.651 164.965,-333.924 204.073,-345.787"/>
<polygon fill="lightgray" stroke="lightgray" points="203.11,-349.153 213.695,-348.706 205.142,-342.454 203.11,-349.153"/>
<text text-anchor="middle" x="140.493" y="-340.8" font-family="Times New Roman,serif" font-size="14.00" fill="lightgray">wff ch</text>
</g>
<!-- n11261&#45;&gt;n11269 -->
<g id="edge9" class="edge"><title>n11261&#45;&gt;n11269</title>
<path fill="none" stroke="lightgray" d="M265.483,-280.385C312.199,-273.825 411.114,-259.935 465.478,-252.302"/>
<polygon fill="lightgray" stroke="lightgray" points="465.992,-255.764 475.408,-250.907 465.018,-248.832 465.992,-255.764"/>
<text text-anchor="middle" x="377.985" y="-279.8" font-family="Times New Roman,serif" font-size="14.00" fill="lightgray">wff th</text>
</g>
<!-- n11262 -->
<g id="node9" class="node"><title>n11262</title>
<ellipse fill="none" stroke="lightgray" cx="238.739" cy="-212" rx="27" ry="18"/>
<text text-anchor="middle" x="238.739" y="-208.3" font-family="Times New Roman,serif" font-size="14.00" fill="lightgray">wta</text>
</g>
<!-- n11261&#45;&gt;n11262 -->
<g id="edge23" class="edge"><title>n11261&#45;&gt;n11262</title>
</g>
<!-- n11262&#45;&gt;n11269 -->
<g id="edge10" class="edge"><title>n11262&#45;&gt;n11269</title>
<path fill="none" stroke="lightgray" d="M265.573,-214.475C306.361,-218.521 388.124,-227.194 456.985,-238 460.038,-238.479 463.197,-239.013 466.365,-239.575"/>
<polygon fill="lightgray" stroke="lightgray" points="465.92,-243.052 476.391,-241.432 467.195,-236.169 465.92,-243.052"/>
<text text-anchor="middle" x="377.985" y="-241.8" font-family="Times New Roman,serif" font-size="14.00" fill="lightgray">wff ta</text>
</g>
<!-- n11267 -->
<g id="node11" class="node"><title>n11267</title>
<ellipse fill="cyan" stroke="black" cx="238.739" cy="-140" rx="34.394" ry="18"/>
<text text-anchor="middle" x="238.739" y="-136.3" font-family="Times New Roman,serif" font-size="14.00">anim2i</text>
</g>
<!-- n11262&#45;&gt;n11267 -->
<g id="edge24" class="edge"><title>n11262&#45;&gt;n11267</title>
</g>
<!-- n11263 -->
<g id="node10" class="node"><title>n11263</title>
<ellipse fill="none" stroke="lightgray" cx="42.2463" cy="-234" rx="27" ry="18"/>
<text text-anchor="middle" x="42.2463" y="-230.3" font-family="Times New Roman,serif" font-size="14.00" fill="lightgray">wph</text>
</g>
<!-- n11263&#45;&gt;n11267 -->
<g id="edge11" class="edge"><title>n11263&#45;&gt;n11267</title>
<path fill="none" stroke="lightgray" d="M65.5944,-224.922C92.6838,-213.727 139.545,-193.748 178.493,-174 187.853,-169.254 197.823,-163.726 206.861,-158.524"/>
<polygon fill="lightgray" stroke="lightgray" points="208.654,-161.53 215.532,-153.471 205.129,-155.482 208.654,-161.53"/>
<text text-anchor="middle" x="140.493" y="-211.8" font-family="Times New Roman,serif" font-size="14.00" fill="lightgray">wff ph</text>
</g>
<!-- n11264 -->
<g id="node12" class="node"><title>n11264</title>
<ellipse fill="none" stroke="lightgray" cx="42.2463" cy="-162" rx="27" ry="18"/>
<text text-anchor="middle" x="42.2463" y="-158.3" font-family="Times New Roman,serif" font-size="14.00" fill="lightgray">wch</text>
</g>
<!-- n11263&#45;&gt;n11264 -->
<g id="edge16" class="edge"><title>n11263&#45;&gt;n11264</title>
</g>
<!-- n11267&#45;&gt;n11269 -->
<g id="edge15" class="edge"><title>n11267&#45;&gt;n11269</title>
<path fill="none" stroke="black" d="M272.733,-143.691C317.198,-149.827 397.618,-165.099 456.985,-200 467.156,-205.979 476.633,-214.762 484.326,-223.121"/>
<polygon fill="black" stroke="black" points="481.907,-225.671 491.121,-230.901 487.179,-221.067 481.907,-225.671"/>
<text text-anchor="middle" x="377.985" y="-203.8" font-family="Times New Roman,serif" font-size="14.00">|&#45; ( ( ps / ph ) &#45;&gt; ( ps / ch ) )</text>
</g>
<!-- n11268 -->
<g id="node15" class="node"><title>n11268</title>
<ellipse fill="orange" stroke="black" cx="238.739" cy="-68" rx="42.4939" ry="18"/>
<text text-anchor="middle" x="238.739" y="-64.3" font-family="Times New Roman,serif" font-size="14.00">sylanl2.2</text>
</g>
<!-- n11267&#45;&gt;n11268 -->
<g id="edge25" class="edge"><title>n11267&#45;&gt;n11268</title>
</g>
<!-- n11264&#45;&gt;n11267 -->
<g id="edge12" class="edge"><title>n11264&#45;&gt;n11267</title>
<path fill="none" stroke="lightgray" d="M69.0734,-159.079C101.092,-155.457 156.133,-149.231 194.602,-144.879"/>
<polygon fill="lightgray" stroke="lightgray" points="195.437,-148.307 204.98,-143.705 194.65,-141.352 195.437,-148.307"/>
<text text-anchor="middle" x="140.493" y="-158.8" font-family="Times New Roman,serif" font-size="14.00" fill="lightgray">wff ch</text>
</g>
<!-- n11265 -->
<g id="node13" class="node"><title>n11265</title>
<ellipse fill="none" stroke="lightgray" cx="42.2463" cy="-90" rx="27" ry="18"/>
<text text-anchor="middle" x="42.2463" y="-86.3" font-family="Times New Roman,serif" font-size="14.00" fill="lightgray">wps</text>
</g>
<!-- n11264&#45;&gt;n11265 -->
<g id="edge17" class="edge"><title>n11264&#45;&gt;n11265</title>
</g>
<!-- n11265&#45;&gt;n11267 -->
<g id="edge13" class="edge"><title>n11265&#45;&gt;n11267</title>
<path fill="none" stroke="lightgray" d="M67.8789,-96.3325C100.532,-104.727 158.564,-119.646 197.593,-129.679"/>
<polygon fill="lightgray" stroke="lightgray" points="197.013,-133.144 207.569,-132.244 198.756,-126.364 197.013,-133.144"/>
<text text-anchor="middle" x="140.493" y="-127.8" font-family="Times New Roman,serif" font-size="14.00" fill="lightgray">wff ps</text>
</g>
<!-- n11266 -->
<g id="node14" class="node"><title>n11266</title>
<ellipse fill="orange" stroke="black" cx="42.2463" cy="-18" rx="42.4939" ry="18"/>
<text text-anchor="middle" x="42.2463" y="-14.3" font-family="Times New Roman,serif" font-size="14.00">sylanl2.1</text>
</g>
<!-- n11265&#45;&gt;n11266 -->
<g id="edge18" class="edge"><title>n11265&#45;&gt;n11266</title>
</g>
<!-- n11266&#45;&gt;n11267 -->
<g id="edge14" class="edge"><title>n11266&#45;&gt;n11267</title>
<path fill="none" stroke="black" d="M72.6312,-30.6875C100.834,-43.4375 144.101,-64.5227 178.493,-88 190.922,-96.4852 203.606,-107.276 214.032,-116.826"/>
<polygon fill="black" stroke="black" points="211.827,-119.556 221.522,-123.828 216.607,-114.442 211.827,-119.556"/>
<text text-anchor="middle" x="140.493" y="-91.8" font-family="Times New Roman,serif" font-size="14.00">|&#45; ( ph &#45;&gt; ch )</text>
</g>
<!-- n11268&#45;&gt;n11269 -->
<g id="edge19" class="edge"><title>n11268&#45;&gt;n11269</title>
<path fill="none" stroke="black" d="M280.938,-69.1935C328.921,-72.7282 407.865,-85.4915 456.985,-130 482.449,-153.073 494.081,-191.974 499.266,-218.536"/>
<polygon fill="black" stroke="black" points="495.881,-219.496 501.061,-228.738 502.775,-218.283 495.881,-219.496"/>
<text text-anchor="middle" x="377.985" y="-133.8" font-family="Times New Roman,serif" font-size="14.00">|&#45; ( ( ( ps / ch ) / th ) &#45;&gt; ta )</text>
</g>
</g>
</svg>
