<?xml version="1.0" encoding="UTF-8" standalone="no"?>
<!DOCTYPE svg PUBLIC "-//W3C//DTD SVG 1.1//EN"
 "http://www.w3.org/Graphics/SVG/1.1/DTD/svg11.dtd">
<!-- Generated by graphviz version 2.38.0 (20140413.2041)
 -->
<!-- Title: proof_sylancom Pages: 1 -->
<svg width="677pt" height="516pt"
 viewBox="0.00 0.00 677.18 516.00" xmlns="http://www.w3.org/2000/svg" xmlns:xlink="http://www.w3.org/1999/xlink">
<g id="graph0" class="graph" transform="scale(1 1) rotate(0) translate(4 512)">
<title>proof_sylancom</title>
<polygon fill="white" stroke="none" points="-4,4 -4,-512 673.179,-512 673.179,4 -4,4"/>
<!-- n11476 -->
<g id="node1" class="node"><title>n11476</title>
<ellipse fill="none" stroke="lightgray" cx="27" cy="-490" rx="27" ry="18"/>
<text text-anchor="middle" x="27" y="-486.3" font-family="Times New Roman,serif" font-size="14.00" fill="lightgray">wph</text>
</g>
<!-- n11478 -->
<g id="node2" class="node"><title>n11478</title>
<ellipse fill="none" stroke="lightgray" cx="178.995" cy="-450" rx="27" ry="18"/>
<text text-anchor="middle" x="178.995" y="-446.3" font-family="Times New Roman,serif" font-size="14.00" fill="lightgray">wa</text>
</g>
<!-- n11476&#45;&gt;n11478 -->
<g id="edge1" class="edge"><title>n11476&#45;&gt;n11478</title>
<path fill="none" stroke="lightgray" d="M52.4332,-483.484C77.275,-476.86 115.971,-466.54 143.841,-459.108"/>
<polygon fill="lightgray" stroke="lightgray" points="144.812,-462.472 153.573,-456.513 143.008,-455.708 144.812,-462.472"/>
<text text-anchor="middle" x="90.5" y="-482.8" font-family="Times New Roman,serif" font-size="14.00" fill="lightgray">wff ph</text>
</g>
<!-- n11477 -->
<g id="node3" class="node"><title>n11477</title>
<ellipse fill="none" stroke="lightgray" cx="27" cy="-418" rx="27" ry="18"/>
<text text-anchor="middle" x="27" y="-414.3" font-family="Times New Roman,serif" font-size="14.00" fill="lightgray">wps</text>
</g>
<!-- n11476&#45;&gt;n11477 -->
<g id="edge4" class="edge"><title>n11476&#45;&gt;n11477</title>
</g>
<!-- n11487 -->
<g id="node4" class="node"><title>n11487</title>
<ellipse fill="cyan" stroke="black" cx="422.337" cy="-234" rx="38.1938" ry="18"/>
<text text-anchor="middle" x="422.337" y="-230.3" font-family="Times New Roman,serif" font-size="14.00">syl2anc</text>
</g>
<!-- n11478&#45;&gt;n11487 -->
<g id="edge3" class="edge"><title>n11478&#45;&gt;n11487</title>
<path fill="none" stroke="lightgray" d="M205.838,-447.048C245.454,-441.202 321.292,-424.592 365.991,-380 398.233,-347.835 411.993,-295.006 417.643,-262.489"/>
<polygon fill="lightgray" stroke="lightgray" points="421.15,-262.725 419.264,-252.299 414.237,-261.626 421.15,-262.725"/>
<text text-anchor="middle" x="307.491" y="-442.8" font-family="Times New Roman,serif" font-size="14.00" fill="lightgray">wff ( ph / ps )</text>
</g>
<!-- n11479 -->
<g id="node5" class="node"><title>n11479</title>
<ellipse fill="none" stroke="lightgray" cx="178.995" cy="-378" rx="27" ry="18"/>
<text text-anchor="middle" x="178.995" y="-374.3" font-family="Times New Roman,serif" font-size="14.00" fill="lightgray">wch</text>
</g>
<!-- n11478&#45;&gt;n11479 -->
<g id="edge15" class="edge"><title>n11478&#45;&gt;n11479</title>
</g>
<!-- n11477&#45;&gt;n11478 -->
<g id="edge2" class="edge"><title>n11477&#45;&gt;n11478</title>
<path fill="none" stroke="lightgray" d="M53.1059,-423.356C77.6576,-428.594 115.265,-436.617 142.797,-442.491"/>
<polygon fill="lightgray" stroke="lightgray" points="142.297,-445.963 152.808,-444.626 143.758,-439.117 142.297,-445.963"/>
<text text-anchor="middle" x="90.5" y="-438.8" font-family="Times New Roman,serif" font-size="14.00" fill="lightgray">wff ps</text>
</g>
<!-- QED -->
<g id="node13" class="node"><title>QED</title>
</g>
<!-- n11487&#45;&gt;QED -->
<g id="edge14" class="edge"><title>n11487&#45;&gt;QED</title>
<path fill="none" stroke="black" d="M460.891,-234C499.984,-234 560.909,-234 600.372,-234"/>
<polygon fill="black" stroke="black" points="600.407,-237.5 610.406,-234 600.406,-230.5 600.407,-237.5"/>
<text text-anchor="middle" x="535.684" y="-237.8" font-family="Times New Roman,serif" font-size="14.00">|&#45; ( ( ph / ps ) &#45;&gt; th )</text>
</g>
<!-- n11479&#45;&gt;n11487 -->
<g id="edge5" class="edge"><title>n11479&#45;&gt;n11487</title>
<path fill="none" stroke="lightgray" d="M204.986,-372.894C242.812,-364.218 315.533,-343.755 365.991,-306 382.403,-293.719 396.421,-275.341 406.243,-260.227"/>
<polygon fill="lightgray" stroke="lightgray" points="409.475,-261.658 411.8,-251.321 403.536,-257.952 409.475,-261.658"/>
<text text-anchor="middle" x="307.491" y="-364.8" font-family="Times New Roman,serif" font-size="14.00" fill="lightgray">wff ch</text>
</g>
<!-- n11480 -->
<g id="node6" class="node"><title>n11480</title>
<ellipse fill="none" stroke="lightgray" cx="178.995" cy="-306" rx="27" ry="18"/>
<text text-anchor="middle" x="178.995" y="-302.3" font-family="Times New Roman,serif" font-size="14.00" fill="lightgray">wps</text>
</g>
<!-- n11479&#45;&gt;n11480 -->
<g id="edge16" class="edge"><title>n11479&#45;&gt;n11480</title>
</g>
<!-- n11480&#45;&gt;n11487 -->
<g id="edge6" class="edge"><title>n11480&#45;&gt;n11487</title>
<path fill="none" stroke="lightgray" d="M204.491,-299.465C240.18,-289.844 308.487,-271.049 365.991,-253 371.011,-251.424 376.266,-249.708 381.455,-247.973"/>
<polygon fill="lightgray" stroke="lightgray" points="382.925,-251.171 391.272,-244.645 380.678,-244.541 382.925,-251.171"/>
<text text-anchor="middle" x="307.491" y="-290.8" font-family="Times New Roman,serif" font-size="14.00" fill="lightgray">wff ps</text>
</g>
<!-- n11481 -->
<g id="node7" class="node"><title>n11481</title>
<ellipse fill="none" stroke="lightgray" cx="178.995" cy="-234" rx="27" ry="18"/>
<text text-anchor="middle" x="178.995" y="-230.3" font-family="Times New Roman,serif" font-size="14.00" fill="lightgray">wth</text>
</g>
<!-- n11480&#45;&gt;n11481 -->
<g id="edge17" class="edge"><title>n11480&#45;&gt;n11481</title>
</g>
<!-- n11481&#45;&gt;n11487 -->
<g id="edge7" class="edge"><title>n11481&#45;&gt;n11487</title>
<path fill="none" stroke="lightgray" d="M206.283,-234C246.316,-234 323.198,-234 373.361,-234"/>
<polygon fill="lightgray" stroke="lightgray" points="373.637,-237.5 383.637,-234 373.637,-230.5 373.637,-237.5"/>
<text text-anchor="middle" x="307.491" y="-237.8" font-family="Times New Roman,serif" font-size="14.00" fill="lightgray">wff th</text>
</g>
<!-- n11482 -->
<g id="node8" class="node"><title>n11482</title>
<ellipse fill="orange" stroke="black" cx="178.995" cy="-162" rx="51.9908" ry="18"/>
<text text-anchor="middle" x="178.995" y="-158.3" font-family="Times New Roman,serif" font-size="14.00">sylancom.1</text>
</g>
<!-- n11481&#45;&gt;n11482 -->
<g id="edge18" class="edge"><title>n11481&#45;&gt;n11482</title>
</g>
<!-- n11482&#45;&gt;n11487 -->
<g id="edge8" class="edge"><title>n11482&#45;&gt;n11487</title>
<path fill="none" stroke="black" d="M220.817,-172.962C258.626,-183.273 316.336,-199.414 365.991,-215 371.011,-216.576 376.266,-218.292 381.455,-220.027"/>
<polygon fill="black" stroke="black" points="380.678,-223.459 391.272,-223.355 382.925,-216.829 380.678,-223.459"/>
<text text-anchor="middle" x="307.491" y="-218.8" font-family="Times New Roman,serif" font-size="14.00">|&#45; ( ( ph / ps ) &#45;&gt; ch )</text>
</g>
<!-- n11485 -->
<g id="node10" class="node"><title>n11485</title>
<ellipse fill="cyan" stroke="black" cx="178.995" cy="-90" rx="31.3957" ry="18"/>
<text text-anchor="middle" x="178.995" y="-86.3" font-family="Times New Roman,serif" font-size="14.00">simpr</text>
</g>
<!-- n11482&#45;&gt;n11485 -->
<g id="edge19" class="edge"><title>n11482&#45;&gt;n11485</title>
</g>
<!-- n11483 -->
<g id="node9" class="node"><title>n11483</title>
<ellipse fill="none" stroke="lightgray" cx="27" cy="-127" rx="27" ry="18"/>
<text text-anchor="middle" x="27" y="-123.3" font-family="Times New Roman,serif" font-size="14.00" fill="lightgray">wph</text>
</g>
<!-- n11483&#45;&gt;n11485 -->
<g id="edge9" class="edge"><title>n11483&#45;&gt;n11485</title>
<path fill="none" stroke="lightgray" d="M52.7687,-120.89C76.5267,-115.03 112.731,-106.099 140.111,-99.3451"/>
<polygon fill="lightgray" stroke="lightgray" points="141.258,-102.667 150.128,-96.8741 139.581,-95.8709 141.258,-102.667"/>
<text text-anchor="middle" x="90.5" y="-120.8" font-family="Times New Roman,serif" font-size="14.00" fill="lightgray">wff ph</text>
</g>
<!-- n11484 -->
<g id="node11" class="node"><title>n11484</title>
<ellipse fill="none" stroke="lightgray" cx="27" cy="-55" rx="27" ry="18"/>
<text text-anchor="middle" x="27" y="-51.3" font-family="Times New Roman,serif" font-size="14.00" fill="lightgray">wps</text>
</g>
<!-- n11483&#45;&gt;n11484 -->
<g id="edge12" class="edge"><title>n11483&#45;&gt;n11484</title>
</g>
<!-- n11485&#45;&gt;n11487 -->
<g id="edge11" class="edge"><title>n11485&#45;&gt;n11487</title>
<path fill="none" stroke="black" d="M208.472,-96.1501C247.108,-105.549 316.931,-126.371 365.991,-163 382.17,-175.08 396.114,-193.048 405.959,-207.886"/>
<polygon fill="black" stroke="black" points="403.214,-210.091 411.543,-216.64 409.116,-206.327 403.214,-210.091"/>
<text text-anchor="middle" x="307.491" y="-166.8" font-family="Times New Roman,serif" font-size="14.00">|&#45; ( ( ph / ps ) &#45;&gt; ps )</text>
</g>
<!-- n11486 -->
<g id="node12" class="node"><title>n11486</title>
<ellipse fill="orange" stroke="black" cx="178.995" cy="-18" rx="51.9908" ry="18"/>
<text text-anchor="middle" x="178.995" y="-14.3" font-family="Times New Roman,serif" font-size="14.00">sylancom.2</text>
</g>
<!-- n11485&#45;&gt;n11486 -->
<g id="edge20" class="edge"><title>n11485&#45;&gt;n11486</title>
</g>
<!-- n11484&#45;&gt;n11485 -->
<g id="edge10" class="edge"><title>n11484&#45;&gt;n11485</title>
<path fill="none" stroke="lightgray" d="M52.7687,-60.7795C76.453,-66.306 112.506,-74.7187 139.856,-81.1005"/>
<polygon fill="lightgray" stroke="lightgray" points="139.334,-84.5727 149.868,-83.4367 140.925,-77.7558 139.334,-84.5727"/>
<text text-anchor="middle" x="90.5" y="-77.8" font-family="Times New Roman,serif" font-size="14.00" fill="lightgray">wff ps</text>
</g>
<!-- n11486&#45;&gt;n11487 -->
<g id="edge13" class="edge"><title>n11486&#45;&gt;n11487</title>
<path fill="none" stroke="black" d="M227.112,-25.203C268.673,-33.8621 328.33,-52.2492 365.991,-90 397.771,-121.856 411.676,-173.921 417.48,-205.948"/>
<polygon fill="black" stroke="black" points="414.056,-206.694 419.152,-215.983 420.961,-205.544 414.056,-206.694"/>
<text text-anchor="middle" x="307.491" y="-93.8" font-family="Times New Roman,serif" font-size="14.00">|&#45; ( ( ch / ps ) &#45;&gt; th )</text>
</g>
</g>
</svg>
