<?xml version="1.0" encoding="UTF-8" standalone="no"?>
<!DOCTYPE svg PUBLIC "-//W3C//DTD SVG 1.1//EN"
 "http://www.w3.org/Graphics/SVG/1.1/DTD/svg11.dtd">
<!-- Generated by graphviz version 2.38.0 (20140413.2041)
 -->
<!-- Title: proof_sylan2i Pages: 1 -->
<svg width="962pt" height="476pt"
 viewBox="0.00 0.00 962.17 476.00" xmlns="http://www.w3.org/2000/svg" xmlns:xlink="http://www.w3.org/1999/xlink">
<g id="graph0" class="graph" transform="scale(1 1) rotate(0) translate(4 472)">
<title>proof_sylan2i</title>
<polygon fill="white" stroke="none" points="-4,4 -4,-472 958.173,-472 958.173,4 -4,4"/>
<!-- n11313 -->
<g id="node1" class="node"><title>n11313</title>
<ellipse fill="none" stroke="lightgray" cx="374.739" cy="-450" rx="27" ry="18"/>
<text text-anchor="middle" x="374.739" y="-446.3" font-family="Times New Roman,serif" font-size="14.00" fill="lightgray">wps</text>
</g>
<!-- n11325 -->
<g id="node2" class="node"><title>n11325</title>
<ellipse fill="cyan" stroke="black" cx="654.332" cy="-234" rx="38.1938" ry="18"/>
<text text-anchor="middle" x="654.332" y="-230.3" font-family="Times New Roman,serif" font-size="14.00">sylan2d</text>
</g>
<!-- n11313&#45;&gt;n11325 -->
<g id="edge1" class="edge"><title>n11313&#45;&gt;n11325</title>
<path fill="none" stroke="lightgray" d="M402.047,-450.22C447.827,-449.168 542.543,-440.428 597.985,-389 634.151,-355.452 646.709,-296.661 651.052,-261.93"/>
<polygon fill="lightgray" stroke="lightgray" points="654.532,-262.303 652.154,-251.978 647.575,-261.533 654.532,-262.303"/>
<text text-anchor="middle" x="516.485" y="-451.8" font-family="Times New Roman,serif" font-size="14.00" fill="lightgray">wff ps</text>
</g>
<!-- n11314 -->
<g id="node3" class="node"><title>n11314</title>
<ellipse fill="none" stroke="lightgray" cx="374.739" cy="-378" rx="27" ry="18"/>
<text text-anchor="middle" x="374.739" y="-374.3" font-family="Times New Roman,serif" font-size="14.00" fill="lightgray">wph</text>
</g>
<!-- n11313&#45;&gt;n11314 -->
<g id="edge17" class="edge"><title>n11313&#45;&gt;n11314</title>
</g>
<!-- QED -->
<g id="node14" class="node"><title>QED</title>
</g>
<!-- n11325&#45;&gt;QED -->
<g id="edge16" class="edge"><title>n11325&#45;&gt;QED</title>
<path fill="none" stroke="black" d="M692.678,-234C743.519,-234 834.051,-234 885.464,-234"/>
<polygon fill="black" stroke="black" points="885.507,-237.5 895.507,-234 885.507,-230.5 885.507,-237.5"/>
<text text-anchor="middle" x="794.178" y="-237.8" font-family="Times New Roman,serif" font-size="14.00">|&#45; ( ps &#45;&gt; ( ( ch /\ ph ) &#45;&gt; ta ) )</text>
</g>
<!-- n11314&#45;&gt;n11325 -->
<g id="edge2" class="edge"><title>n11314&#45;&gt;n11325</title>
<path fill="none" stroke="lightgray" d="M401.778,-375.787C445.92,-370.91 536.614,-355.922 597.985,-312 616.441,-298.791 630.967,-277.451 640.498,-260.428"/>
<polygon fill="lightgray" stroke="lightgray" points="643.646,-261.964 645.273,-251.494 637.473,-258.664 643.646,-261.964"/>
<text text-anchor="middle" x="516.485" y="-373.8" font-family="Times New Roman,serif" font-size="14.00" fill="lightgray">wff ph</text>
</g>
<!-- n11315 -->
<g id="node4" class="node"><title>n11315</title>
<ellipse fill="none" stroke="lightgray" cx="374.739" cy="-306" rx="27" ry="18"/>
<text text-anchor="middle" x="374.739" y="-302.3" font-family="Times New Roman,serif" font-size="14.00" fill="lightgray">wth</text>
</g>
<!-- n11314&#45;&gt;n11315 -->
<g id="edge18" class="edge"><title>n11314&#45;&gt;n11315</title>
</g>
<!-- n11315&#45;&gt;n11325 -->
<g id="edge3" class="edge"><title>n11315&#45;&gt;n11325</title>
<path fill="none" stroke="lightgray" d="M400.943,-300.82C442.371,-292.121 527.318,-273.504 597.985,-253 603.229,-251.478 608.711,-249.758 614.1,-247.99"/>
<polygon fill="lightgray" stroke="lightgray" points="615.264,-251.291 623.627,-244.787 613.033,-244.656 615.264,-251.291"/>
<text text-anchor="middle" x="516.485" y="-296.8" font-family="Times New Roman,serif" font-size="14.00" fill="lightgray">wff th</text>
</g>
<!-- n11316 -->
<g id="node5" class="node"><title>n11316</title>
<ellipse fill="none" stroke="lightgray" cx="374.739" cy="-234" rx="27" ry="18"/>
<text text-anchor="middle" x="374.739" y="-230.3" font-family="Times New Roman,serif" font-size="14.00" fill="lightgray">wch</text>
</g>
<!-- n11315&#45;&gt;n11316 -->
<g id="edge19" class="edge"><title>n11315&#45;&gt;n11316</title>
</g>
<!-- n11316&#45;&gt;n11325 -->
<g id="edge4" class="edge"><title>n11316&#45;&gt;n11325</title>
<path fill="none" stroke="lightgray" d="M401.854,-234C448.454,-234 546.565,-234 605.521,-234"/>
<polygon fill="lightgray" stroke="lightgray" points="605.698,-237.5 615.698,-234 605.698,-230.5 605.698,-237.5"/>
<text text-anchor="middle" x="516.485" y="-237.8" font-family="Times New Roman,serif" font-size="14.00" fill="lightgray">wff ch</text>
</g>
<!-- n11317 -->
<g id="node6" class="node"><title>n11317</title>
<ellipse fill="none" stroke="lightgray" cx="374.739" cy="-162" rx="27" ry="18"/>
<text text-anchor="middle" x="374.739" y="-158.3" font-family="Times New Roman,serif" font-size="14.00" fill="lightgray">wta</text>
</g>
<!-- n11316&#45;&gt;n11317 -->
<g id="edge20" class="edge"><title>n11316&#45;&gt;n11317</title>
</g>
<!-- n11317&#45;&gt;n11325 -->
<g id="edge5" class="edge"><title>n11317&#45;&gt;n11325</title>
<path fill="none" stroke="lightgray" d="M400.943,-167.18C442.371,-175.879 527.318,-194.496 597.985,-215 603.229,-216.522 608.711,-218.242 614.1,-220.01"/>
<polygon fill="lightgray" stroke="lightgray" points="613.033,-223.344 623.627,-223.213 615.264,-216.709 613.033,-223.344"/>
<text text-anchor="middle" x="516.485" y="-218.8" font-family="Times New Roman,serif" font-size="14.00" fill="lightgray">wff ta</text>
</g>
<!-- n11323 -->
<g id="node10" class="node"><title>n11323</title>
<ellipse fill="cyan" stroke="black" cx="374.739" cy="-90" rx="27" ry="18"/>
<text text-anchor="middle" x="374.739" y="-86.3" font-family="Times New Roman,serif" font-size="14.00">a1i</text>
</g>
<!-- n11317&#45;&gt;n11323 -->
<g id="edge21" class="edge"><title>n11317&#45;&gt;n11323</title>
</g>
<!-- n11318 -->
<g id="node7" class="node"><title>n11318</title>
<ellipse fill="none" stroke="lightgray" cx="27" cy="-207" rx="27" ry="18"/>
<text text-anchor="middle" x="27" y="-203.3" font-family="Times New Roman,serif" font-size="14.00" fill="lightgray">wph</text>
</g>
<!-- n11320 -->
<g id="node8" class="node"><title>n11320</title>
<ellipse fill="none" stroke="lightgray" cx="169.246" cy="-162" rx="27" ry="18"/>
<text text-anchor="middle" x="169.246" y="-158.3" font-family="Times New Roman,serif" font-size="14.00" fill="lightgray">wi</text>
</g>
<!-- n11318&#45;&gt;n11320 -->
<g id="edge6" class="edge"><title>n11318&#45;&gt;n11320</title>
<path fill="none" stroke="lightgray" d="M51.7909,-199.366C74.5582,-192.061 109.12,-180.971 134.683,-172.769"/>
<polygon fill="lightgray" stroke="lightgray" points="135.886,-176.059 144.339,-169.671 133.747,-169.394 135.886,-176.059"/>
<text text-anchor="middle" x="90.5" y="-196.8" font-family="Times New Roman,serif" font-size="14.00" fill="lightgray">wff ph</text>
</g>
<!-- n11319 -->
<g id="node9" class="node"><title>n11319</title>
<ellipse fill="none" stroke="lightgray" cx="27" cy="-135" rx="27" ry="18"/>
<text text-anchor="middle" x="27" y="-131.3" font-family="Times New Roman,serif" font-size="14.00" fill="lightgray">wth</text>
</g>
<!-- n11318&#45;&gt;n11319 -->
<g id="edge9" class="edge"><title>n11318&#45;&gt;n11319</title>
</g>
<!-- n11320&#45;&gt;n11323 -->
<g id="edge8" class="edge"><title>n11320&#45;&gt;n11323</title>
<path fill="none" stroke="lightgray" d="M193.589,-153.741C229.852,-140.91 299.83,-116.151 341.084,-101.554"/>
<polygon fill="lightgray" stroke="lightgray" points="342.408,-104.798 350.668,-98.163 340.073,-98.1991 342.408,-104.798"/>
<text text-anchor="middle" x="271.993" y="-144.8" font-family="Times New Roman,serif" font-size="14.00" fill="lightgray">wff ( ph &#45;&gt; th )</text>
</g>
<!-- n11321 -->
<g id="node11" class="node"><title>n11321</title>
<ellipse fill="none" stroke="lightgray" cx="169.246" cy="-90" rx="27" ry="18"/>
<text text-anchor="middle" x="169.246" y="-86.3" font-family="Times New Roman,serif" font-size="14.00" fill="lightgray">wps</text>
</g>
<!-- n11320&#45;&gt;n11321 -->
<g id="edge13" class="edge"><title>n11320&#45;&gt;n11321</title>
</g>
<!-- n11319&#45;&gt;n11320 -->
<g id="edge7" class="edge"><title>n11319&#45;&gt;n11320</title>
<path fill="none" stroke="lightgray" d="M53.0732,-139.827C75.2719,-144.101 107.916,-150.385 132.787,-155.173"/>
<polygon fill="lightgray" stroke="lightgray" points="132.436,-158.67 142.917,-157.124 133.759,-151.796 132.436,-158.67"/>
<text text-anchor="middle" x="90.5" y="-154.8" font-family="Times New Roman,serif" font-size="14.00" fill="lightgray">wff th</text>
</g>
<!-- n11323&#45;&gt;n11325 -->
<g id="edge12" class="edge"><title>n11323&#45;&gt;n11325</title>
<path fill="none" stroke="black" d="M401.778,-92.2134C445.92,-97.0898 536.614,-112.078 597.985,-156 616.441,-169.209 630.967,-190.549 640.498,-207.572"/>
<polygon fill="black" stroke="black" points="637.473,-209.336 645.273,-216.506 643.646,-206.036 637.473,-209.336"/>
<text text-anchor="middle" x="516.485" y="-159.8" font-family="Times New Roman,serif" font-size="14.00">|&#45; ( ps &#45;&gt; ( ph &#45;&gt; th ) )</text>
</g>
<!-- n11324 -->
<g id="node13" class="node"><title>n11324</title>
<ellipse fill="orange" stroke="black" cx="374.739" cy="-18" rx="42.4939" ry="18"/>
<text text-anchor="middle" x="374.739" y="-14.3" font-family="Times New Roman,serif" font-size="14.00">sylan2i.2</text>
</g>
<!-- n11323&#45;&gt;n11324 -->
<g id="edge22" class="edge"><title>n11323&#45;&gt;n11324</title>
</g>
<!-- n11321&#45;&gt;n11323 -->
<g id="edge10" class="edge"><title>n11321&#45;&gt;n11323</title>
<path fill="none" stroke="lightgray" d="M196.433,-90C232.301,-90 296.869,-90 337.4,-90"/>
<polygon fill="lightgray" stroke="lightgray" points="337.653,-93.5001 347.653,-90 337.653,-86.5001 337.653,-93.5001"/>
<text text-anchor="middle" x="271.993" y="-93.8" font-family="Times New Roman,serif" font-size="14.00" fill="lightgray">wff ps</text>
</g>
<!-- n11322 -->
<g id="node12" class="node"><title>n11322</title>
<ellipse fill="orange" stroke="black" cx="169.246" cy="-18" rx="42.4939" ry="18"/>
<text text-anchor="middle" x="169.246" y="-14.3" font-family="Times New Roman,serif" font-size="14.00">sylan2i.1</text>
</g>
<!-- n11321&#45;&gt;n11322 -->
<g id="edge14" class="edge"><title>n11321&#45;&gt;n11322</title>
</g>
<!-- n11322&#45;&gt;n11323 -->
<g id="edge11" class="edge"><title>n11322&#45;&gt;n11323</title>
<path fill="none" stroke="black" d="M202.49,-29.4086C240.349,-42.8037 302.798,-64.8997 340.908,-78.3839"/>
<polygon fill="black" stroke="black" points="339.912,-81.7441 350.507,-81.7801 342.247,-75.1449 339.912,-81.7441"/>
<text text-anchor="middle" x="271.993" y="-72.8" font-family="Times New Roman,serif" font-size="14.00">|&#45; ( ph &#45;&gt; th )</text>
</g>
<!-- n11324&#45;&gt;n11325 -->
<g id="edge15" class="edge"><title>n11324&#45;&gt;n11325</title>
<path fill="none" stroke="black" d="M417.248,-18.3659C466.474,-21.0209 548.117,-32.7423 597.985,-79 634.151,-112.548 646.709,-171.339 651.052,-206.07"/>
<polygon fill="black" stroke="black" points="647.575,-206.467 652.154,-216.022 654.532,-205.697 647.575,-206.467"/>
<text text-anchor="middle" x="516.485" y="-82.8" font-family="Times New Roman,serif" font-size="14.00">|&#45; ( ps &#45;&gt; ( ( ch /\ th ) &#45;&gt; ta ) )</text>
</g>
</g>
</svg>
