<?xml version="1.0" encoding="UTF-8" standalone="no"?>
<!DOCTYPE svg PUBLIC "-//W3C//DTD SVG 1.1//EN"
 "http://www.w3.org/Graphics/SVG/1.1/DTD/svg11.dtd">
<!-- Generated by graphviz version 2.38.0 (20140413.2041)
 -->
<!-- Title: proof_sylan9bb Pages: 1 -->
<svg width="1006pt" height="660pt"
 viewBox="0.00 0.00 1005.78 660.00" xmlns="http://www.w3.org/2000/svg" xmlns:xlink="http://www.w3.org/1999/xlink">
<g id="graph0" class="graph" transform="scale(1 1) rotate(0) translate(4 656)">
<title>proof_sylan9bb</title>
<polygon fill="white" stroke="none" points="-4,4 -4,-656 1001.78,-656 1001.78,4 -4,4"/>
<!-- n11885 -->
<g id="node1" class="node"><title>n11885</title>
<ellipse fill="none" stroke="lightgray" cx="177.046" cy="-634" rx="27" ry="18"/>
<text text-anchor="middle" x="177.046" y="-630.3" font-family="Times New Roman,serif" font-size="14.00" fill="lightgray">wph</text>
</g>
<!-- n11887 -->
<g id="node2" class="node"><title>n11887</title>
<ellipse fill="none" stroke="lightgray" cx="430.238" cy="-604" rx="27" ry="18"/>
<text text-anchor="middle" x="430.238" y="-600.3" font-family="Times New Roman,serif" font-size="14.00" fill="lightgray">wa</text>
</g>
<!-- n11885&#45;&gt;n11887 -->
<g id="edge1" class="edge"><title>n11885&#45;&gt;n11887</title>
<path fill="none" stroke="lightgray" d="M203.981,-630.902C249.131,-625.51 342.234,-614.391 393.478,-608.271"/>
<polygon fill="lightgray" stroke="lightgray" points="393.929,-611.742 403.443,-607.081 393.099,-604.791 393.929,-611.742"/>
<text text-anchor="middle" x="312.091" y="-628.8" font-family="Times New Roman,serif" font-size="14.00" fill="lightgray">wff ph</text>
</g>
<!-- n11886 -->
<g id="node3" class="node"><title>n11886</title>
<ellipse fill="none" stroke="lightgray" cx="177.046" cy="-562" rx="27" ry="18"/>
<text text-anchor="middle" x="177.046" y="-558.3" font-family="Times New Roman,serif" font-size="14.00" fill="lightgray">wth</text>
</g>
<!-- n11885&#45;&gt;n11886 -->
<g id="edge4" class="edge"><title>n11885&#45;&gt;n11886</title>
</g>
<!-- n11905 -->
<g id="node4" class="node"><title>n11905</title>
<ellipse fill="cyan" stroke="black" cx="703.333" cy="-423" rx="27.8951" ry="18"/>
<text text-anchor="middle" x="703.333" y="-419.3" font-family="Times New Roman,serif" font-size="14.00">bitrd</text>
</g>
<!-- n11887&#45;&gt;n11905 -->
<g id="edge3" class="edge"><title>n11887&#45;&gt;n11905</title>
<path fill="none" stroke="lightgray" d="M457.563,-604.728C503.886,-604.563 600.445,-597.55 657.385,-546 684.436,-521.51 695.235,-479.382 699.528,-451.358"/>
<polygon fill="lightgray" stroke="lightgray" points="703.006,-451.752 700.875,-441.374 696.069,-450.816 703.006,-451.752"/>
<text text-anchor="middle" x="569.385" y="-606.8" font-family="Times New Roman,serif" font-size="14.00" fill="lightgray">wff ( ph /\ th )</text>
</g>
<!-- n11888 -->
<g id="node5" class="node"><title>n11888</title>
<ellipse fill="none" stroke="lightgray" cx="430.238" cy="-532" rx="27" ry="18"/>
<text text-anchor="middle" x="430.238" y="-528.3" font-family="Times New Roman,serif" font-size="14.00" fill="lightgray">wps</text>
</g>
<!-- n11887&#45;&gt;n11888 -->
<g id="edge31" class="edge"><title>n11887&#45;&gt;n11888</title>
</g>
<!-- n11886&#45;&gt;n11887 -->
<g id="edge2" class="edge"><title>n11886&#45;&gt;n11887</title>
<path fill="none" stroke="lightgray" d="M203.908,-564.805C242.336,-569.181 316.687,-578.45 379.091,-591 384.303,-592.048 389.782,-593.305 395.126,-594.619"/>
<polygon fill="lightgray" stroke="lightgray" points="394.577,-598.091 405.132,-597.175 396.309,-591.309 394.577,-598.091"/>
<text text-anchor="middle" x="312.091" y="-594.8" font-family="Times New Roman,serif" font-size="14.00" fill="lightgray">wff th</text>
</g>
<!-- QED -->
<g id="node22" class="node"><title>QED</title>
</g>
<!-- n11905&#45;&gt;QED -->
<g id="edge30" class="edge"><title>n11905&#45;&gt;QED</title>
<path fill="none" stroke="black" d="M731.508,-423C778.421,-423 874.746,-423 928.709,-423"/>
<polygon fill="black" stroke="black" points="928.909,-426.5 938.909,-423 928.909,-419.5 928.909,-426.5"/>
<text text-anchor="middle" x="835.28" y="-426.8" font-family="Times New Roman,serif" font-size="14.00">|&#45; ( ( ph /\ th ) &#45;&gt; ( ps &lt;&#45;&gt; ta ) )</text>
</g>
<!-- n11888&#45;&gt;n11905 -->
<g id="edge5" class="edge"><title>n11888&#45;&gt;n11905</title>
<path fill="none" stroke="lightgray" d="M457.15,-529.877C501.194,-525.279 592.214,-511.414 657.385,-472 667.822,-465.688 677.3,-456.24 684.833,-447.319"/>
<polygon fill="lightgray" stroke="lightgray" points="687.668,-449.377 691.176,-439.38 682.199,-445.008 687.668,-449.377"/>
<text text-anchor="middle" x="569.385" y="-530.8" font-family="Times New Roman,serif" font-size="14.00" fill="lightgray">wff ps</text>
</g>
<!-- n11889 -->
<g id="node6" class="node"><title>n11889</title>
<ellipse fill="none" stroke="lightgray" cx="430.238" cy="-460" rx="27" ry="18"/>
<text text-anchor="middle" x="430.238" y="-456.3" font-family="Times New Roman,serif" font-size="14.00" fill="lightgray">wch</text>
</g>
<!-- n11888&#45;&gt;n11889 -->
<g id="edge32" class="edge"><title>n11888&#45;&gt;n11889</title>
</g>
<!-- n11889&#45;&gt;n11905 -->
<g id="edge6" class="edge"><title>n11889&#45;&gt;n11905</title>
<path fill="none" stroke="lightgray" d="M456.742,-456.519C505.034,-449.928 609.973,-435.606 665.757,-427.992"/>
<polygon fill="lightgray" stroke="lightgray" points="666.467,-431.428 675.902,-426.607 665.52,-424.492 666.467,-431.428"/>
<text text-anchor="middle" x="569.385" y="-456.8" font-family="Times New Roman,serif" font-size="14.00" fill="lightgray">wff ch</text>
</g>
<!-- n11890 -->
<g id="node7" class="node"><title>n11890</title>
<ellipse fill="none" stroke="lightgray" cx="430.238" cy="-388" rx="27" ry="18"/>
<text text-anchor="middle" x="430.238" y="-384.3" font-family="Times New Roman,serif" font-size="14.00" fill="lightgray">wta</text>
</g>
<!-- n11889&#45;&gt;n11890 -->
<g id="edge33" class="edge"><title>n11889&#45;&gt;n11890</title>
</g>
<!-- n11890&#45;&gt;n11905 -->
<g id="edge7" class="edge"><title>n11890&#45;&gt;n11905</title>
<path fill="none" stroke="lightgray" d="M457.108,-390.268C499.222,-394.119 585.161,-402.638 657.385,-414 660.26,-414.452 663.23,-414.959 666.21,-415.495"/>
<polygon fill="lightgray" stroke="lightgray" points="665.778,-418.975 676.254,-417.397 667.08,-412.098 665.778,-418.975"/>
<text text-anchor="middle" x="569.385" y="-417.8" font-family="Times New Roman,serif" font-size="14.00" fill="lightgray">wff ta</text>
</g>
<!-- n11897 -->
<g id="node9" class="node"><title>n11897</title>
<ellipse fill="cyan" stroke="black" cx="430.238" cy="-316" rx="33.2948" ry="18"/>
<text text-anchor="middle" x="430.238" y="-312.3" font-family="Times New Roman,serif" font-size="14.00">adantr</text>
</g>
<!-- n11890&#45;&gt;n11897 -->
<g id="edge34" class="edge"><title>n11890&#45;&gt;n11897</title>
</g>
<!-- n11891 -->
<g id="node8" class="node"><title>n11891</title>
<ellipse fill="none" stroke="lightgray" cx="177.046" cy="-504" rx="27" ry="18"/>
<text text-anchor="middle" x="177.046" y="-500.3" font-family="Times New Roman,serif" font-size="14.00" fill="lightgray">wph</text>
</g>
<!-- n11891&#45;&gt;n11897 -->
<g id="edge8" class="edge"><title>n11891&#45;&gt;n11897</title>
<path fill="none" stroke="lightgray" d="M204.22,-503.218C247.261,-500.459 332.811,-488.52 379.091,-438 402.831,-412.085 382.601,-393.019 397.091,-361 400.303,-353.904 404.707,-346.786 409.226,-340.373"/>
<polygon fill="lightgray" stroke="lightgray" points="412.195,-342.245 415.357,-332.133 406.579,-338.066 412.195,-342.245"/>
<text text-anchor="middle" x="312.091" y="-501.8" font-family="Times New Roman,serif" font-size="14.00" fill="lightgray">wff ph</text>
</g>
<!-- n11894 -->
<g id="node11" class="node"><title>n11894</title>
<ellipse fill="none" stroke="lightgray" cx="177.046" cy="-432" rx="27" ry="18"/>
<text text-anchor="middle" x="177.046" y="-428.3" font-family="Times New Roman,serif" font-size="14.00" fill="lightgray">wb</text>
</g>
<!-- n11891&#45;&gt;n11894 -->
<g id="edge16" class="edge"><title>n11891&#45;&gt;n11894</title>
</g>
<!-- n11897&#45;&gt;n11905 -->
<g id="edge15" class="edge"><title>n11897&#45;&gt;n11905</title>
<path fill="none" stroke="black" d="M463.417,-318.465C509.381,-323.212 595.148,-336.711 657.385,-374 667.848,-380.269 677.331,-389.709 684.86,-398.636"/>
<polygon fill="black" stroke="black" points="682.226,-400.947 691.198,-406.584 687.699,-396.583 682.226,-400.947"/>
<text text-anchor="middle" x="569.385" y="-377.8" font-family="Times New Roman,serif" font-size="14.00">|&#45; ( ( ph /\ th ) &#45;&gt; ( ps &lt;&#45;&gt; ch ) )</text>
</g>
<!-- n11904 -->
<g id="node16" class="node"><title>n11904</title>
<ellipse fill="cyan" stroke="black" cx="430.238" cy="-197" rx="32.4942" ry="18"/>
<text text-anchor="middle" x="430.238" y="-193.3" font-family="Times New Roman,serif" font-size="14.00">adantl</text>
</g>
<!-- n11897&#45;&gt;n11904 -->
<g id="edge35" class="edge"><title>n11897&#45;&gt;n11904</title>
</g>
<!-- n11892 -->
<g id="node10" class="node"><title>n11892</title>
<ellipse fill="none" stroke="lightgray" cx="27" cy="-476" rx="27" ry="18"/>
<text text-anchor="middle" x="27" y="-472.3" font-family="Times New Roman,serif" font-size="14.00" fill="lightgray">wps</text>
</g>
<!-- n11892&#45;&gt;n11894 -->
<g id="edge9" class="edge"><title>n11892&#45;&gt;n11894</title>
<path fill="none" stroke="lightgray" d="M52.1156,-468.833C76.6345,-461.546 114.828,-450.194 142.335,-442.019"/>
<polygon fill="lightgray" stroke="lightgray" points="143.352,-445.368 151.94,-439.164 141.358,-438.658 143.352,-445.368"/>
<text text-anchor="middle" x="90.5" y="-465.8" font-family="Times New Roman,serif" font-size="14.00" fill="lightgray">wff ps</text>
</g>
<!-- n11893 -->
<g id="node12" class="node"><title>n11893</title>
<ellipse fill="none" stroke="lightgray" cx="27" cy="-404" rx="27" ry="18"/>
<text text-anchor="middle" x="27" y="-400.3" font-family="Times New Roman,serif" font-size="14.00" fill="lightgray">wch</text>
</g>
<!-- n11892&#45;&gt;n11893 -->
<g id="edge12" class="edge"><title>n11892&#45;&gt;n11893</title>
</g>
<!-- n11894&#45;&gt;n11897 -->
<g id="edge11" class="edge"><title>n11894&#45;&gt;n11897</title>
<path fill="none" stroke="lightgray" d="M203.549,-428.042C243.455,-420.972 321.995,-403.468 379.091,-368 390.743,-360.762 401.593,-350.216 410.198,-340.511"/>
<polygon fill="lightgray" stroke="lightgray" points="413.069,-342.538 416.867,-332.647 407.73,-338.01 413.069,-342.538"/>
<text text-anchor="middle" x="312.091" y="-422.8" font-family="Times New Roman,serif" font-size="14.00" fill="lightgray">wff ( ps &lt;&#45;&gt; ch )</text>
</g>
<!-- n11895 -->
<g id="node13" class="node"><title>n11895</title>
<ellipse fill="none" stroke="lightgray" cx="177.046" cy="-360" rx="27" ry="18"/>
<text text-anchor="middle" x="177.046" y="-356.3" font-family="Times New Roman,serif" font-size="14.00" fill="lightgray">wth</text>
</g>
<!-- n11894&#45;&gt;n11895 -->
<g id="edge17" class="edge"><title>n11894&#45;&gt;n11895</title>
</g>
<!-- n11893&#45;&gt;n11894 -->
<g id="edge10" class="edge"><title>n11893&#45;&gt;n11894</title>
<path fill="none" stroke="lightgray" d="M53.1139,-408.75C77.2537,-413.315 113.954,-420.257 140.974,-425.367"/>
<polygon fill="lightgray" stroke="lightgray" points="140.332,-428.807 150.808,-427.227 141.633,-421.929 140.332,-428.807"/>
<text text-anchor="middle" x="90.5" y="-422.8" font-family="Times New Roman,serif" font-size="14.00" fill="lightgray">wff ch</text>
</g>
<!-- n11895&#45;&gt;n11897 -->
<g id="edge13" class="edge"><title>n11895&#45;&gt;n11897</title>
<path fill="none" stroke="lightgray" d="M203.514,-355.539C247.012,-347.919 335.982,-332.335 388.295,-323.172"/>
<polygon fill="lightgray" stroke="lightgray" points="388.998,-326.602 398.244,-321.429 387.79,-319.707 388.998,-326.602"/>
<text text-anchor="middle" x="312.091" y="-352.8" font-family="Times New Roman,serif" font-size="14.00" fill="lightgray">wff th</text>
</g>
<!-- n11896 -->
<g id="node14" class="node"><title>n11896</title>
<ellipse fill="orange" stroke="black" cx="177.046" cy="-288" rx="50.0912" ry="18"/>
<text text-anchor="middle" x="177.046" y="-284.3" font-family="Times New Roman,serif" font-size="14.00">sylan9bb.1</text>
</g>
<!-- n11895&#45;&gt;n11896 -->
<g id="edge18" class="edge"><title>n11895&#45;&gt;n11896</title>
</g>
<!-- n11896&#45;&gt;n11897 -->
<g id="edge14" class="edge"><title>n11896&#45;&gt;n11897</title>
<path fill="none" stroke="black" d="M226.07,-291.975C266.857,-295.542 326.912,-301.249 379.091,-308 382.098,-308.389 385.202,-308.818 388.323,-309.269"/>
<polygon fill="black" stroke="black" points="387.839,-312.736 398.249,-310.763 388.881,-305.814 387.839,-312.736"/>
<text text-anchor="middle" x="312.091" y="-311.8" font-family="Times New Roman,serif" font-size="14.00">|&#45; ( ph &#45;&gt; ( ps &lt;&#45;&gt; ch ) )</text>
</g>
<!-- n11898 -->
<g id="node15" class="node"><title>n11898</title>
<ellipse fill="none" stroke="lightgray" cx="177.046" cy="-234" rx="27" ry="18"/>
<text text-anchor="middle" x="177.046" y="-230.3" font-family="Times New Roman,serif" font-size="14.00" fill="lightgray">wth</text>
</g>
<!-- n11898&#45;&gt;n11904 -->
<g id="edge19" class="edge"><title>n11898&#45;&gt;n11904</title>
<path fill="none" stroke="lightgray" d="M203.514,-230.249C247.129,-223.824 336.46,-210.666 388.716,-202.969"/>
<polygon fill="lightgray" stroke="lightgray" points="389.265,-206.426 398.648,-201.506 388.245,-199.501 389.265,-206.426"/>
<text text-anchor="middle" x="312.091" y="-228.8" font-family="Times New Roman,serif" font-size="14.00" fill="lightgray">wff th</text>
</g>
<!-- n11901 -->
<g id="node18" class="node"><title>n11901</title>
<ellipse fill="none" stroke="lightgray" cx="177.046" cy="-162" rx="27" ry="18"/>
<text text-anchor="middle" x="177.046" y="-158.3" font-family="Times New Roman,serif" font-size="14.00" fill="lightgray">wb</text>
</g>
<!-- n11898&#45;&gt;n11901 -->
<g id="edge27" class="edge"><title>n11898&#45;&gt;n11901</title>
</g>
<!-- n11904&#45;&gt;n11905 -->
<g id="edge26" class="edge"><title>n11904&#45;&gt;n11905</title>
<path fill="none" stroke="black" d="M460.832,-203.242C508.595,-214.791 602.828,-243.898 657.385,-303 681.125,-328.717 692.662,-368.146 698.028,-394.721"/>
<polygon fill="black" stroke="black" points="694.651,-395.706 699.911,-404.903 701.534,-394.434 694.651,-395.706"/>
<text text-anchor="middle" x="569.385" y="-306.8" font-family="Times New Roman,serif" font-size="14.00">|&#45; ( ( ph /\ th ) &#45;&gt; ( ch &lt;&#45;&gt; ta ) )</text>
</g>
<!-- n11899 -->
<g id="node17" class="node"><title>n11899</title>
<ellipse fill="none" stroke="lightgray" cx="27" cy="-190" rx="27" ry="18"/>
<text text-anchor="middle" x="27" y="-186.3" font-family="Times New Roman,serif" font-size="14.00" fill="lightgray">wch</text>
</g>
<!-- n11899&#45;&gt;n11901 -->
<g id="edge20" class="edge"><title>n11899&#45;&gt;n11901</title>
<path fill="none" stroke="lightgray" d="M53.1139,-185.25C77.2537,-180.685 113.954,-173.743 140.974,-168.633"/>
<polygon fill="lightgray" stroke="lightgray" points="141.633,-172.071 150.808,-166.773 140.332,-165.193 141.633,-172.071"/>
<text text-anchor="middle" x="90.5" y="-184.8" font-family="Times New Roman,serif" font-size="14.00" fill="lightgray">wff ch</text>
</g>
<!-- n11900 -->
<g id="node19" class="node"><title>n11900</title>
<ellipse fill="none" stroke="lightgray" cx="27" cy="-118" rx="27" ry="18"/>
<text text-anchor="middle" x="27" y="-114.3" font-family="Times New Roman,serif" font-size="14.00" fill="lightgray">wta</text>
</g>
<!-- n11899&#45;&gt;n11900 -->
<g id="edge23" class="edge"><title>n11899&#45;&gt;n11900</title>
</g>
<!-- n11901&#45;&gt;n11904 -->
<g id="edge22" class="edge"><title>n11901&#45;&gt;n11904</title>
<path fill="none" stroke="lightgray" d="M203.809,-164.923C242.112,-169.36 316.308,-178.312 379.091,-188 382.369,-188.506 385.763,-189.057 389.168,-189.628"/>
<polygon fill="lightgray" stroke="lightgray" points="388.864,-193.127 399.314,-191.382 390.056,-186.23 388.864,-193.127"/>
<text text-anchor="middle" x="312.091" y="-191.8" font-family="Times New Roman,serif" font-size="14.00" fill="lightgray">wff ( ch &lt;&#45;&gt; ta )</text>
</g>
<!-- n11902 -->
<g id="node20" class="node"><title>n11902</title>
<ellipse fill="none" stroke="lightgray" cx="177.046" cy="-90" rx="27" ry="18"/>
<text text-anchor="middle" x="177.046" y="-86.3" font-family="Times New Roman,serif" font-size="14.00" fill="lightgray">wph</text>
</g>
<!-- n11901&#45;&gt;n11902 -->
<g id="edge28" class="edge"><title>n11901&#45;&gt;n11902</title>
</g>
<!-- n11900&#45;&gt;n11901 -->
<g id="edge21" class="edge"><title>n11900&#45;&gt;n11901</title>
<path fill="none" stroke="lightgray" d="M52.1156,-125.167C76.6345,-132.454 114.828,-143.806 142.335,-151.981"/>
<polygon fill="lightgray" stroke="lightgray" points="141.358,-155.342 151.94,-154.836 143.352,-148.632 141.358,-155.342"/>
<text text-anchor="middle" x="90.5" y="-145.8" font-family="Times New Roman,serif" font-size="14.00" fill="lightgray">wff ta</text>
</g>
<!-- n11902&#45;&gt;n11904 -->
<g id="edge24" class="edge"><title>n11902&#45;&gt;n11904</title>
<path fill="none" stroke="lightgray" d="M203.622,-93.983C243.291,-100.965 321.113,-117.924 379.091,-151 389.619,-157.006 399.763,-165.586 408.139,-173.712"/>
<polygon fill="lightgray" stroke="lightgray" points="405.779,-176.304 415.295,-180.961 410.76,-171.386 405.779,-176.304"/>
<text text-anchor="middle" x="312.091" y="-154.8" font-family="Times New Roman,serif" font-size="14.00" fill="lightgray">wff ph</text>
</g>
<!-- n11903 -->
<g id="node21" class="node"><title>n11903</title>
<ellipse fill="orange" stroke="black" cx="177.046" cy="-18" rx="50.0912" ry="18"/>
<text text-anchor="middle" x="177.046" y="-14.3" font-family="Times New Roman,serif" font-size="14.00">sylan9bb.2</text>
</g>
<!-- n11902&#45;&gt;n11903 -->
<g id="edge29" class="edge"><title>n11902&#45;&gt;n11903</title>
</g>
<!-- n11903&#45;&gt;n11904 -->
<g id="edge25" class="edge"><title>n11903&#45;&gt;n11904</title>
<path fill="none" stroke="black" d="M225.354,-22.8516C269.936,-29.7125 336.134,-46.11 379.091,-85 403.661,-107.244 416.887,-143.812 423.484,-169.082"/>
<polygon fill="black" stroke="black" points="420.087,-169.923 425.845,-178.816 426.889,-168.272 420.087,-169.923"/>
<text text-anchor="middle" x="312.091" y="-88.8" font-family="Times New Roman,serif" font-size="14.00">|&#45; ( th &#45;&gt; ( ch &lt;&#45;&gt; ta ) )</text>
</g>
</g>
</svg>
