<?xml version="1.0" encoding="UTF-8" standalone="no"?>
<!DOCTYPE svg PUBLIC "-//W3C//DTD SVG 1.1//EN"
 "http://www.w3.org/Graphics/SVG/1.1/DTD/svg11.dtd">
<!-- Generated by graphviz version 2.38.0 (20140413.2041)
 -->
<!-- Title: proof_sylcom Pages: 1 -->
<svg width="822pt" height="512pt"
 viewBox="0.00 0.00 822.28 512.00" xmlns="http://www.w3.org/2000/svg" xmlns:xlink="http://www.w3.org/1999/xlink">
<g id="graph0" class="graph" transform="scale(1 1) rotate(0) translate(4 508)">
<title>proof_sylcom</title>
<polygon fill="white" stroke="none" points="-4,4 -4,-508 818.279,-508 818.279,4 -4,4"/>
<!-- n229 -->
<g id="node1" class="node"><title>n229</title>
<ellipse fill="none" stroke="lightgray" cx="290.588" cy="-463" rx="27" ry="18"/>
<text text-anchor="middle" x="290.588" y="-459.3" font-family="Times New Roman,serif" font-size="14.00" fill="lightgray">wph</text>
</g>
<!-- n242 -->
<g id="node2" class="node"><title>n242</title>
<ellipse fill="cyan" stroke="black" cx="569.784" cy="-319" rx="27" ry="18"/>
<text text-anchor="middle" x="569.784" y="-315.3" font-family="Times New Roman,serif" font-size="14.00">syl</text>
</g>
<!-- n229&#45;&gt;n242 -->
<g id="edge1" class="edge"><title>n229&#45;&gt;n242</title>
<path fill="none" stroke="lightgray" d="M317.588,-462.12C363.985,-459.284 462.055,-447.415 524.784,-398 541.485,-384.844 552.829,-363.5 559.811,-346.312"/>
<polygon fill="lightgray" stroke="lightgray" points="563.157,-347.358 563.425,-336.766 556.611,-344.879 563.157,-347.358"/>
<text text-anchor="middle" x="438.784" y="-461.8" font-family="Times New Roman,serif" font-size="14.00" fill="lightgray">wff ph</text>
</g>
<!-- n232 -->
<g id="node4" class="node"><title>n232</title>
<ellipse fill="none" stroke="lightgray" cx="290.588" cy="-391" rx="27" ry="18"/>
<text text-anchor="middle" x="290.588" y="-387.3" font-family="Times New Roman,serif" font-size="14.00" fill="lightgray">wi</text>
</g>
<!-- n229&#45;&gt;n232 -->
<g id="edge20" class="edge"><title>n229&#45;&gt;n232</title>
</g>
<!-- QED -->
<g id="node15" class="node"><title>QED</title>
</g>
<!-- n242&#45;&gt;QED -->
<g id="edge19" class="edge"><title>n242&#45;&gt;QED</title>
<path fill="none" stroke="black" d="M596.933,-319C634.127,-319 702.556,-319 745.548,-319"/>
<polygon fill="black" stroke="black" points="745.631,-322.5 755.631,-319 745.631,-315.5 745.631,-322.5"/>
<text text-anchor="middle" x="676.284" y="-322.8" font-family="Times New Roman,serif" font-size="14.00">|&#45; ( ph &#45;&gt; ( ps &#45;&gt; th ) )</text>
</g>
<!-- n230 -->
<g id="node3" class="node"><title>n230</title>
<ellipse fill="none" stroke="lightgray" cx="44.1961" cy="-486" rx="27" ry="18"/>
<text text-anchor="middle" x="44.1961" y="-482.3" font-family="Times New Roman,serif" font-size="14.00" fill="lightgray">wps</text>
</g>
<!-- n230&#45;&gt;n232 -->
<g id="edge2" class="edge"><title>n230&#45;&gt;n232</title>
<path fill="none" stroke="lightgray" d="M69.7885,-479.662C105.513,-470.073 173.491,-450.387 228.392,-426 239.611,-421.017 251.432,-414.566 261.662,-408.562"/>
<polygon fill="lightgray" stroke="lightgray" points="263.774,-411.377 270.546,-403.229 260.171,-405.375 263.774,-411.377"/>
<text text-anchor="middle" x="167.392" y="-472.8" font-family="Times New Roman,serif" font-size="14.00" fill="lightgray">wff ps</text>
</g>
<!-- n231 -->
<g id="node5" class="node"><title>n231</title>
<ellipse fill="none" stroke="lightgray" cx="44.1961" cy="-414" rx="27" ry="18"/>
<text text-anchor="middle" x="44.1961" y="-410.3" font-family="Times New Roman,serif" font-size="14.00" fill="lightgray">wch</text>
</g>
<!-- n230&#45;&gt;n231 -->
<g id="edge5" class="edge"><title>n230&#45;&gt;n231</title>
</g>
<!-- n232&#45;&gt;n242 -->
<g id="edge4" class="edge"><title>n232&#45;&gt;n242</title>
<path fill="none" stroke="lightgray" d="M317.194,-386.776C360.569,-379.269 450.979,-362.095 524.784,-338 529.083,-336.597 533.539,-334.933 537.892,-333.183"/>
<polygon fill="lightgray" stroke="lightgray" points="539.3,-336.388 547.157,-329.28 536.583,-329.937 539.3,-336.388"/>
<text text-anchor="middle" x="438.784" y="-382.8" font-family="Times New Roman,serif" font-size="14.00" fill="lightgray">wff ( ps &#45;&gt; ch )</text>
</g>
<!-- n235 -->
<g id="node7" class="node"><title>n235</title>
<ellipse fill="none" stroke="lightgray" cx="290.588" cy="-319" rx="27" ry="18"/>
<text text-anchor="middle" x="290.588" y="-315.3" font-family="Times New Roman,serif" font-size="14.00" fill="lightgray">wi</text>
</g>
<!-- n232&#45;&gt;n235 -->
<g id="edge21" class="edge"><title>n232&#45;&gt;n235</title>
</g>
<!-- n231&#45;&gt;n232 -->
<g id="edge3" class="edge"><title>n231&#45;&gt;n232</title>
<path fill="none" stroke="lightgray" d="M71.3503,-411.539C115.265,-407.406 203.887,-399.065 253.628,-394.384"/>
<polygon fill="lightgray" stroke="lightgray" points="253.994,-397.865 263.622,-393.444 253.338,-390.896 253.994,-397.865"/>
<text text-anchor="middle" x="167.392" y="-410.8" font-family="Times New Roman,serif" font-size="14.00" fill="lightgray">wff ch</text>
</g>
<!-- n233 -->
<g id="node6" class="node"><title>n233</title>
<ellipse fill="none" stroke="lightgray" cx="44.1961" cy="-360" rx="27" ry="18"/>
<text text-anchor="middle" x="44.1961" y="-356.3" font-family="Times New Roman,serif" font-size="14.00" fill="lightgray">wps</text>
</g>
<!-- n233&#45;&gt;n235 -->
<g id="edge6" class="edge"><title>n233&#45;&gt;n235</title>
<path fill="none" stroke="lightgray" d="M70.8884,-355.69C114.823,-348.319 204.455,-333.282 254.25,-324.928"/>
<polygon fill="lightgray" stroke="lightgray" points="254.957,-328.359 264.24,-323.252 253.799,-321.455 254.957,-328.359"/>
<text text-anchor="middle" x="167.392" y="-352.8" font-family="Times New Roman,serif" font-size="14.00" fill="lightgray">wff ps</text>
</g>
<!-- n234 -->
<g id="node8" class="node"><title>n234</title>
<ellipse fill="none" stroke="lightgray" cx="44.1961" cy="-288" rx="27" ry="18"/>
<text text-anchor="middle" x="44.1961" y="-284.3" font-family="Times New Roman,serif" font-size="14.00" fill="lightgray">wth</text>
</g>
<!-- n233&#45;&gt;n234 -->
<g id="edge9" class="edge"><title>n233&#45;&gt;n234</title>
</g>
<!-- n235&#45;&gt;n242 -->
<g id="edge8" class="edge"><title>n235&#45;&gt;n242</title>
<path fill="none" stroke="lightgray" d="M317.666,-319C367.299,-319 475.448,-319 532.259,-319"/>
<polygon fill="lightgray" stroke="lightgray" points="532.574,-322.5 542.574,-319 532.574,-315.5 532.574,-322.5"/>
<text text-anchor="middle" x="438.784" y="-322.8" font-family="Times New Roman,serif" font-size="14.00" fill="lightgray">wff ( ps &#45;&gt; th )</text>
</g>
<!-- n236 -->
<g id="node9" class="node"><title>n236</title>
<ellipse fill="orange" stroke="black" cx="290.588" cy="-247" rx="44.393" ry="18"/>
<text text-anchor="middle" x="290.588" y="-243.3" font-family="Times New Roman,serif" font-size="14.00">sylcom.1</text>
</g>
<!-- n235&#45;&gt;n236 -->
<g id="edge22" class="edge"><title>n235&#45;&gt;n236</title>
</g>
<!-- n234&#45;&gt;n235 -->
<g id="edge7" class="edge"><title>n234&#45;&gt;n235</title>
<path fill="none" stroke="lightgray" d="M70.8884,-291.259C114.709,-296.817 203.988,-308.142 253.86,-314.468"/>
<polygon fill="lightgray" stroke="lightgray" points="253.512,-317.952 263.873,-315.738 254.393,-311.008 253.512,-317.952"/>
<text text-anchor="middle" x="167.392" y="-313.8" font-family="Times New Roman,serif" font-size="14.00" fill="lightgray">wff th</text>
</g>
<!-- n236&#45;&gt;n242 -->
<g id="edge10" class="edge"><title>n236&#45;&gt;n242</title>
<path fill="none" stroke="black" d="M331.805,-253.809C378.77,-262.293 458.478,-278.353 524.784,-300 529.083,-301.403 533.539,-303.067 537.892,-304.817"/>
<polygon fill="black" stroke="black" points="536.583,-308.063 547.157,-308.72 539.3,-301.612 536.583,-308.063"/>
<text text-anchor="middle" x="438.784" y="-303.8" font-family="Times New Roman,serif" font-size="14.00">|&#45; ( ph &#45;&gt; ( ps &#45;&gt; ch ) )</text>
</g>
<!-- n241 -->
<g id="node11" class="node"><title>n241</title>
<ellipse fill="cyan" stroke="black" cx="290.588" cy="-173" rx="27" ry="18"/>
<text text-anchor="middle" x="290.588" y="-169.3" font-family="Times New Roman,serif" font-size="14.00">a2i</text>
</g>
<!-- n236&#45;&gt;n241 -->
<g id="edge23" class="edge"><title>n236&#45;&gt;n241</title>
</g>
<!-- n237 -->
<g id="node10" class="node"><title>n237</title>
<ellipse fill="none" stroke="lightgray" cx="44.1961" cy="-234" rx="27" ry="18"/>
<text text-anchor="middle" x="44.1961" y="-230.3" font-family="Times New Roman,serif" font-size="14.00" fill="lightgray">wps</text>
</g>
<!-- n237&#45;&gt;n241 -->
<g id="edge11" class="edge"><title>n237&#45;&gt;n241</title>
<path fill="none" stroke="lightgray" d="M69.8587,-228.367C105.103,-220.252 171.87,-204.634 228.392,-190 237.311,-187.691 246.927,-185.078 255.835,-182.606"/>
<polygon fill="lightgray" stroke="lightgray" points="256.829,-185.962 265.517,-179.898 254.944,-179.221 256.829,-185.962"/>
<text text-anchor="middle" x="167.392" y="-223.8" font-family="Times New Roman,serif" font-size="14.00" fill="lightgray">wff ps</text>
</g>
<!-- n238 -->
<g id="node12" class="node"><title>n238</title>
<ellipse fill="none" stroke="lightgray" cx="44.1961" cy="-162" rx="27" ry="18"/>
<text text-anchor="middle" x="44.1961" y="-158.3" font-family="Times New Roman,serif" font-size="14.00" fill="lightgray">wch</text>
</g>
<!-- n237&#45;&gt;n238 -->
<g id="edge16" class="edge"><title>n237&#45;&gt;n238</title>
</g>
<!-- n241&#45;&gt;n242 -->
<g id="edge15" class="edge"><title>n241&#45;&gt;n242</title>
<path fill="none" stroke="black" d="M317.599,-174.138C364.014,-177.428 462.111,-190.225 524.784,-240 541.433,-253.222 552.78,-274.562 559.776,-291.732"/>
<polygon fill="black" stroke="black" points="556.575,-293.162 563.399,-301.266 563.118,-290.675 556.575,-293.162"/>
<text text-anchor="middle" x="438.784" y="-243.8" font-family="Times New Roman,serif" font-size="14.00">|&#45; ( ( ps &#45;&gt; ch ) &#45;&gt; ( ps &#45;&gt; th ) )</text>
</g>
<!-- n238&#45;&gt;n241 -->
<g id="edge12" class="edge"><title>n238&#45;&gt;n241</title>
<path fill="none" stroke="lightgray" d="M71.3503,-163.177C115.265,-165.154 203.887,-169.143 253.628,-171.381"/>
<polygon fill="lightgray" stroke="lightgray" points="253.475,-174.878 263.622,-171.831 253.79,-167.885 253.475,-174.878"/>
<text text-anchor="middle" x="167.392" y="-174.8" font-family="Times New Roman,serif" font-size="14.00" fill="lightgray">wff ch</text>
</g>
<!-- n239 -->
<g id="node13" class="node"><title>n239</title>
<ellipse fill="none" stroke="lightgray" cx="44.1961" cy="-90" rx="27" ry="18"/>
<text text-anchor="middle" x="44.1961" y="-86.3" font-family="Times New Roman,serif" font-size="14.00" fill="lightgray">wth</text>
</g>
<!-- n238&#45;&gt;n239 -->
<g id="edge17" class="edge"><title>n238&#45;&gt;n239</title>
</g>
<!-- n239&#45;&gt;n241 -->
<g id="edge13" class="edge"><title>n239&#45;&gt;n241</title>
<path fill="none" stroke="lightgray" d="M69.5069,-96.4382C104.885,-106.03 172.44,-125.189 228.392,-146 238.433,-149.734 249.183,-154.284 258.829,-158.575"/>
<polygon fill="lightgray" stroke="lightgray" points="257.485,-161.809 268.038,-162.741 260.37,-155.431 257.485,-161.809"/>
<text text-anchor="middle" x="167.392" y="-149.8" font-family="Times New Roman,serif" font-size="14.00" fill="lightgray">wff th</text>
</g>
<!-- n240 -->
<g id="node14" class="node"><title>n240</title>
<ellipse fill="orange" stroke="black" cx="44.1961" cy="-18" rx="44.393" ry="18"/>
<text text-anchor="middle" x="44.1961" y="-14.3" font-family="Times New Roman,serif" font-size="14.00">sylcom.2</text>
</g>
<!-- n239&#45;&gt;n240 -->
<g id="edge18" class="edge"><title>n239&#45;&gt;n240</title>
</g>
<!-- n240&#45;&gt;n241 -->
<g id="edge14" class="edge"><title>n240&#45;&gt;n241</title>
<path fill="none" stroke="black" d="M84.2088,-25.9533C123.691,-35.5014 184.95,-54.5691 228.392,-88 248.98,-103.843 265.647,-128.475 276.359,-147.152"/>
<polygon fill="black" stroke="black" points="273.368,-148.977 281.268,-156.038 279.495,-145.592 273.368,-148.977"/>
<text text-anchor="middle" x="167.392" y="-91.8" font-family="Times New Roman,serif" font-size="14.00">|&#45; ( ps &#45;&gt; ( ch &#45;&gt; th ) )</text>
</g>
</g>
</svg>
