<?xml version="1.0" encoding="UTF-8" standalone="no"?>
<!DOCTYPE svg PUBLIC "-//W3C//DTD SVG 1.1//EN"
 "http://www.w3.org/Graphics/SVG/1.1/DTD/svg11.dtd">
<!-- Generated by graphviz version 2.38.0 (20140413.2041)
 -->
<!-- Title: proof_syli Pages: 1 -->
<svg width="752pt" height="511pt"
 viewBox="0.00 0.00 751.88 511.00" xmlns="http://www.w3.org/2000/svg" xmlns:xlink="http://www.w3.org/1999/xlink">
<g id="graph0" class="graph" transform="scale(1 1) rotate(0) translate(4 507)">
<title>proof_syli</title>
<polygon fill="white" stroke="none" points="-4,4 -4,-507 747.877,-507 747.877,4 -4,4"/>
<!-- n319 -->
<g id="node1" class="node"><title>n319</title>
<ellipse fill="none" stroke="lightgray" cx="254.542" cy="-485" rx="27" ry="18"/>
<text text-anchor="middle" x="254.542" y="-481.3" font-family="Times New Roman,serif" font-size="14.00" fill="lightgray">wps</text>
</g>
<!-- n329 -->
<g id="node2" class="node"><title>n329</title>
<ellipse fill="cyan" stroke="black" cx="489.335" cy="-304" rx="37.0935" ry="18"/>
<text text-anchor="middle" x="489.335" y="-300.3" font-family="Times New Roman,serif" font-size="14.00">sylcom</text>
</g>
<!-- n319&#45;&gt;n329 -->
<g id="edge1" class="edge"><title>n319&#45;&gt;n329</title>
<path fill="none" stroke="lightgray" d="M281.22,-481.75C319.087,-475.716 390.177,-459.487 434.288,-419 459.714,-395.663 474.248,-357.901 481.707,-332.06"/>
<polygon fill="lightgray" stroke="lightgray" points="485.161,-332.695 484.397,-322.127 478.405,-330.865 485.161,-332.695"/>
<text text-anchor="middle" x="371.288" y="-479.8" font-family="Times New Roman,serif" font-size="14.00" fill="lightgray">wff ps</text>
</g>
<!-- n320 -->
<g id="node3" class="node"><title>n320</title>
<ellipse fill="none" stroke="lightgray" cx="254.542" cy="-413" rx="27" ry="18"/>
<text text-anchor="middle" x="254.542" y="-409.3" font-family="Times New Roman,serif" font-size="14.00" fill="lightgray">wph</text>
</g>
<!-- n319&#45;&gt;n320 -->
<g id="edge15" class="edge"><title>n319&#45;&gt;n320</title>
</g>
<!-- QED -->
<g id="node12" class="node"><title>QED</title>
</g>
<!-- n329&#45;&gt;QED -->
<g id="edge14" class="edge"><title>n329&#45;&gt;QED</title>
<path fill="none" stroke="black" d="M526.708,-304C567.493,-304 633.364,-304 675.035,-304"/>
<polygon fill="black" stroke="black" points="675.078,-307.5 685.078,-304 675.078,-300.5 675.078,-307.5"/>
<text text-anchor="middle" x="605.882" y="-307.8" font-family="Times New Roman,serif" font-size="14.00">|&#45; ( ps &#45;&gt; ( ph &#45;&gt; th ) )</text>
</g>
<!-- n320&#45;&gt;n329 -->
<g id="edge2" class="edge"><title>n320&#45;&gt;n329</title>
<path fill="none" stroke="lightgray" d="M280.517,-407.543C316.289,-399.034 383.407,-380.46 434.288,-351 445.275,-344.639 456.094,-335.876 465.133,-327.64"/>
<polygon fill="lightgray" stroke="lightgray" points="467.709,-330.021 472.576,-320.61 462.903,-324.931 467.709,-330.021"/>
<text text-anchor="middle" x="371.288" y="-403.8" font-family="Times New Roman,serif" font-size="14.00" fill="lightgray">wff ph</text>
</g>
<!-- n321 -->
<g id="node4" class="node"><title>n321</title>
<ellipse fill="none" stroke="lightgray" cx="254.542" cy="-341" rx="27" ry="18"/>
<text text-anchor="middle" x="254.542" y="-337.3" font-family="Times New Roman,serif" font-size="14.00" fill="lightgray">wch</text>
</g>
<!-- n320&#45;&gt;n321 -->
<g id="edge16" class="edge"><title>n320&#45;&gt;n321</title>
</g>
<!-- n321&#45;&gt;n329 -->
<g id="edge3" class="edge"><title>n321&#45;&gt;n329</title>
<path fill="none" stroke="lightgray" d="M280.898,-336.97C319.982,-330.758 395.475,-318.759 443.806,-311.077"/>
<polygon fill="lightgray" stroke="lightgray" points="444.655,-314.486 453.982,-309.46 443.556,-307.573 444.655,-314.486"/>
<text text-anchor="middle" x="371.288" y="-335.8" font-family="Times New Roman,serif" font-size="14.00" fill="lightgray">wff ch</text>
</g>
<!-- n322 -->
<g id="node5" class="node"><title>n322</title>
<ellipse fill="none" stroke="lightgray" cx="254.542" cy="-269" rx="27" ry="18"/>
<text text-anchor="middle" x="254.542" y="-265.3" font-family="Times New Roman,serif" font-size="14.00" fill="lightgray">wth</text>
</g>
<!-- n321&#45;&gt;n322 -->
<g id="edge17" class="edge"><title>n321&#45;&gt;n322</title>
</g>
<!-- n322&#45;&gt;n329 -->
<g id="edge4" class="edge"><title>n322&#45;&gt;n329</title>
<path fill="none" stroke="lightgray" d="M281.023,-272.538C315.72,-277.395 379.756,-286.494 434.288,-295 437.484,-295.498 440.784,-296.023 444.104,-296.559"/>
<polygon fill="lightgray" stroke="lightgray" points="443.61,-300.024 454.043,-298.18 444.737,-293.115 443.61,-300.024"/>
<text text-anchor="middle" x="371.288" y="-298.8" font-family="Times New Roman,serif" font-size="14.00" fill="lightgray">wff th</text>
</g>
<!-- n323 -->
<g id="node6" class="node"><title>n323</title>
<ellipse fill="orange" stroke="black" cx="254.542" cy="-197" rx="29.795" ry="18"/>
<text text-anchor="middle" x="254.542" y="-193.3" font-family="Times New Roman,serif" font-size="14.00">syli.1</text>
</g>
<!-- n322&#45;&gt;n323 -->
<g id="edge18" class="edge"><title>n322&#45;&gt;n323</title>
</g>
<!-- n323&#45;&gt;n329 -->
<g id="edge5" class="edge"><title>n323&#45;&gt;n329</title>
<path fill="none" stroke="black" d="M282.97,-202.673C319.298,-210.956 384.57,-228.546 434.288,-257 445.474,-263.401 456.46,-272.323 465.576,-280.675"/>
<polygon fill="black" stroke="black" points="463.404,-283.439 473.064,-287.79 468.226,-278.364 463.404,-283.439"/>
<text text-anchor="middle" x="371.288" y="-260.8" font-family="Times New Roman,serif" font-size="14.00">|&#45; ( ps &#45;&gt; ( ph &#45;&gt; ch ) )</text>
</g>
<!-- n328 -->
<g id="node8" class="node"><title>n328</title>
<ellipse fill="cyan" stroke="black" cx="254.542" cy="-125" rx="35.9954" ry="18"/>
<text text-anchor="middle" x="254.542" y="-121.3" font-family="Times New Roman,serif" font-size="14.00">com12</text>
</g>
<!-- n323&#45;&gt;n328 -->
<g id="edge19" class="edge"><title>n323&#45;&gt;n328</title>
</g>
<!-- n324 -->
<g id="node7" class="node"><title>n324</title>
<ellipse fill="none" stroke="lightgray" cx="29.8973" cy="-234" rx="27" ry="18"/>
<text text-anchor="middle" x="29.8973" y="-230.3" font-family="Times New Roman,serif" font-size="14.00" fill="lightgray">wch</text>
</g>
<!-- n324&#45;&gt;n328 -->
<g id="edge6" class="edge"><title>n324&#45;&gt;n328</title>
<path fill="none" stroke="lightgray" d="M55.9153,-228.572C90.3377,-220.37 153.42,-202.658 200.795,-174 212.158,-167.126 223.174,-157.518 232.175,-148.628"/>
<polygon fill="lightgray" stroke="lightgray" points="234.744,-151.007 239.225,-141.406 229.735,-146.117 234.744,-151.007"/>
<text text-anchor="middle" x="139.295" y="-226.8" font-family="Times New Roman,serif" font-size="14.00" fill="lightgray">wff ch</text>
</g>
<!-- n325 -->
<g id="node9" class="node"><title>n325</title>
<ellipse fill="none" stroke="lightgray" cx="29.8973" cy="-162" rx="27" ry="18"/>
<text text-anchor="middle" x="29.8973" y="-158.3" font-family="Times New Roman,serif" font-size="14.00" fill="lightgray">wph</text>
</g>
<!-- n324&#45;&gt;n325 -->
<g id="edge11" class="edge"><title>n324&#45;&gt;n325</title>
</g>
<!-- n328&#45;&gt;n329 -->
<g id="edge10" class="edge"><title>n328&#45;&gt;n329</title>
<path fill="none" stroke="black" d="M289.127,-129.637C328.308,-136.638 392.973,-153.337 434.288,-191 459.289,-213.791 473.863,-250.611 481.451,-275.993"/>
<polygon fill="black" stroke="black" points="478.122,-277.087 484.198,-285.767 484.861,-275.193 478.122,-277.087"/>
<text text-anchor="middle" x="371.288" y="-194.8" font-family="Times New Roman,serif" font-size="14.00">|&#45; ( ph &#45;&gt; ( ch &#45;&gt; th ) )</text>
</g>
<!-- n325&#45;&gt;n328 -->
<g id="edge7" class="edge"><title>n325&#45;&gt;n328</title>
<path fill="none" stroke="lightgray" d="M56.4375,-157.756C94.0288,-151.509 164.733,-139.759 210.449,-132.161"/>
<polygon fill="lightgray" stroke="lightgray" points="211.076,-135.605 220.367,-130.513 209.929,-128.7 211.076,-135.605"/>
<text text-anchor="middle" x="139.295" y="-158.8" font-family="Times New Roman,serif" font-size="14.00" fill="lightgray">wff ph</text>
</g>
<!-- n326 -->
<g id="node10" class="node"><title>n326</title>
<ellipse fill="none" stroke="lightgray" cx="29.8973" cy="-90" rx="27" ry="18"/>
<text text-anchor="middle" x="29.8973" y="-86.3" font-family="Times New Roman,serif" font-size="14.00" fill="lightgray">wth</text>
</g>
<!-- n325&#45;&gt;n326 -->
<g id="edge12" class="edge"><title>n325&#45;&gt;n326</title>
</g>
<!-- n326&#45;&gt;n328 -->
<g id="edge8" class="edge"><title>n326&#45;&gt;n328</title>
<path fill="none" stroke="lightgray" d="M56.5358,-93.7837C89.8169,-98.7273 149.688,-107.73 200.795,-116 204.004,-116.519 207.322,-117.065 210.659,-117.62"/>
<polygon fill="lightgray" stroke="lightgray" points="210.194,-121.091 220.635,-119.296 211.353,-114.187 210.194,-121.091"/>
<text text-anchor="middle" x="139.295" y="-119.8" font-family="Times New Roman,serif" font-size="14.00" fill="lightgray">wff th</text>
</g>
<!-- n327 -->
<g id="node11" class="node"><title>n327</title>
<ellipse fill="orange" stroke="black" cx="29.8973" cy="-18" rx="29.795" ry="18"/>
<text text-anchor="middle" x="29.8973" y="-14.3" font-family="Times New Roman,serif" font-size="14.00">syli.2</text>
</g>
<!-- n326&#45;&gt;n327 -->
<g id="edge13" class="edge"><title>n326&#45;&gt;n327</title>
</g>
<!-- n327&#45;&gt;n328 -->
<g id="edge9" class="edge"><title>n327&#45;&gt;n328</title>
<path fill="none" stroke="black" d="M58.1506,-24.4213C92.8892,-33.341 154.041,-51.5471 200.795,-79 211.492,-85.2812 222.046,-93.8685 230.87,-101.924"/>
<polygon fill="black" stroke="black" points="228.467,-104.469 238.139,-108.794 233.275,-99.3813 228.467,-104.469"/>
<text text-anchor="middle" x="139.295" y="-82.8" font-family="Times New Roman,serif" font-size="14.00">|&#45; ( ch &#45;&gt; ( ph &#45;&gt; th ) )</text>
</g>
</g>
</svg>
