<?xml version="1.0" encoding="UTF-8" standalone="no"?>
<!DOCTYPE svg PUBLIC "-//W3C//DTD SVG 1.1//EN"
 "http://www.w3.org/Graphics/SVG/1.1/DTD/svg11.dtd">
<!-- Generated by graphviz version 2.38.0 (20140413.2041)
 -->
<!-- Title: proof_sylsyld Pages: 1 -->
<svg width="887pt" height="548pt"
 viewBox="0.00 0.00 887.08 548.00" xmlns="http://www.w3.org/2000/svg" xmlns:xlink="http://www.w3.org/1999/xlink">
<g id="graph0" class="graph" transform="scale(1 1) rotate(0) translate(4 544)">
<title>proof_sylsyld</title>
<polygon fill="white" stroke="none" points="-4,4 -4,-544 883.08,-544 883.08,4 -4,4"/>
<!-- n529 -->
<g id="node1" class="node"><title>n529</title>
<ellipse fill="none" stroke="lightgray" cx="406.689" cy="-522" rx="27" ry="18"/>
<text text-anchor="middle" x="406.689" y="-518.3" font-family="Times New Roman,serif" font-size="14.00" fill="lightgray">wph</text>
</g>
<!-- n542 -->
<g id="node2" class="node"><title>n542</title>
<ellipse fill="cyan" stroke="black" cx="635.585" cy="-341" rx="27" ry="18"/>
<text text-anchor="middle" x="635.585" y="-337.3" font-family="Times New Roman,serif" font-size="14.00">syld</text>
</g>
<!-- n529&#45;&gt;n542 -->
<g id="edge1" class="edge"><title>n529&#45;&gt;n542</title>
<path fill="none" stroke="lightgray" d="M433.707,-519.429C472.789,-514.233 546.729,-499.026 590.585,-456 614.457,-432.579 625.584,-394.836 630.628,-369.022"/>
<polygon fill="lightgray" stroke="lightgray" points="634.088,-369.558 632.384,-359.101 627.195,-368.338 634.088,-369.558"/>
<text text-anchor="middle" x="529.085" y="-515.8" font-family="Times New Roman,serif" font-size="14.00" fill="lightgray">wff ph</text>
</g>
<!-- n530 -->
<g id="node3" class="node"><title>n530</title>
<ellipse fill="none" stroke="lightgray" cx="406.689" cy="-450" rx="27" ry="18"/>
<text text-anchor="middle" x="406.689" y="-446.3" font-family="Times New Roman,serif" font-size="14.00" fill="lightgray">wch</text>
</g>
<!-- n529&#45;&gt;n530 -->
<g id="edge20" class="edge"><title>n529&#45;&gt;n530</title>
</g>
<!-- QED -->
<g id="node15" class="node"><title>QED</title>
</g>
<!-- n542&#45;&gt;QED -->
<g id="edge19" class="edge"><title>n542&#45;&gt;QED</title>
<path fill="none" stroke="black" d="M662.61,-341C699.63,-341 767.738,-341 810.529,-341"/>
<polygon fill="black" stroke="black" points="810.565,-344.5 820.565,-341 810.565,-337.5 810.565,-344.5"/>
<text text-anchor="middle" x="741.585" y="-344.8" font-family="Times New Roman,serif" font-size="14.00">|&#45; ( ph &#45;&gt; ( ch &#45;&gt; ta ) )</text>
</g>
<!-- n530&#45;&gt;n542 -->
<g id="edge2" class="edge"><title>n530&#45;&gt;n542</title>
<path fill="none" stroke="lightgray" d="M433.017,-445.26C469.939,-437.505 539.681,-419.605 590.585,-387 599.937,-381.01 608.728,-372.633 615.956,-364.667"/>
<polygon fill="lightgray" stroke="lightgray" points="618.74,-366.798 622.627,-356.942 613.442,-362.224 618.74,-366.798"/>
<text text-anchor="middle" x="529.085" y="-440.8" font-family="Times New Roman,serif" font-size="14.00" fill="lightgray">wff ch</text>
</g>
<!-- n531 -->
<g id="node4" class="node"><title>n531</title>
<ellipse fill="none" stroke="lightgray" cx="406.689" cy="-378" rx="27" ry="18"/>
<text text-anchor="middle" x="406.689" y="-374.3" font-family="Times New Roman,serif" font-size="14.00" fill="lightgray">wth</text>
</g>
<!-- n530&#45;&gt;n531 -->
<g id="edge21" class="edge"><title>n530&#45;&gt;n531</title>
</g>
<!-- n531&#45;&gt;n542 -->
<g id="edge3" class="edge"><title>n531&#45;&gt;n542</title>
<path fill="none" stroke="lightgray" d="M433.275,-373.828C473.811,-367.217 552.906,-354.319 598.964,-346.809"/>
<polygon fill="lightgray" stroke="lightgray" points="599.785,-350.221 609.091,-345.157 598.658,-343.312 599.785,-350.221"/>
<text text-anchor="middle" x="529.085" y="-371.8" font-family="Times New Roman,serif" font-size="14.00" fill="lightgray">wff th</text>
</g>
<!-- n532 -->
<g id="node5" class="node"><title>n532</title>
<ellipse fill="none" stroke="lightgray" cx="406.689" cy="-306" rx="27" ry="18"/>
<text text-anchor="middle" x="406.689" y="-302.3" font-family="Times New Roman,serif" font-size="14.00" fill="lightgray">wta</text>
</g>
<!-- n531&#45;&gt;n532 -->
<g id="edge22" class="edge"><title>n531&#45;&gt;n532</title>
</g>
<!-- n532&#45;&gt;n542 -->
<g id="edge4" class="edge"><title>n532&#45;&gt;n542</title>
<path fill="none" stroke="lightgray" d="M433.511,-309.17C469.003,-313.641 534.808,-322.34 590.585,-332 593.466,-332.499 596.447,-333.045 599.437,-333.613"/>
<polygon fill="lightgray" stroke="lightgray" points="599.017,-337.098 609.505,-335.597 600.37,-330.23 599.017,-337.098"/>
<text text-anchor="middle" x="529.085" y="-335.8" font-family="Times New Roman,serif" font-size="14.00" fill="lightgray">wff ta</text>
</g>
<!-- n533 -->
<g id="node6" class="node"><title>n533</title>
<ellipse fill="orange" stroke="black" cx="406.689" cy="-234" rx="42.7926" ry="18"/>
<text text-anchor="middle" x="406.689" y="-230.3" font-family="Times New Roman,serif" font-size="14.00">sylsyld.2</text>
</g>
<!-- n532&#45;&gt;n533 -->
<g id="edge23" class="edge"><title>n532&#45;&gt;n533</title>
</g>
<!-- n533&#45;&gt;n542 -->
<g id="edge5" class="edge"><title>n533&#45;&gt;n542</title>
<path fill="none" stroke="black" d="M446.539,-240.856C485.329,-249.001 545.503,-265.252 590.585,-294 600.056,-300.04 608.872,-308.581 616.088,-316.729"/>
<polygon fill="black" stroke="black" points="613.622,-319.234 622.735,-324.638 618.98,-314.731 613.622,-319.234"/>
<text text-anchor="middle" x="529.085" y="-297.8" font-family="Times New Roman,serif" font-size="14.00">|&#45; ( ph &#45;&gt; ( ch &#45;&gt; th ) )</text>
</g>
<!-- n541 -->
<g id="node8" class="node"><title>n541</title>
<ellipse fill="cyan" stroke="black" cx="406.689" cy="-162" rx="27" ry="18"/>
<text text-anchor="middle" x="406.689" y="-158.3" font-family="Times New Roman,serif" font-size="14.00">syl</text>
</g>
<!-- n533&#45;&gt;n541 -->
<g id="edge24" class="edge"><title>n533&#45;&gt;n541</title>
</g>
<!-- n534 -->
<g id="node7" class="node"><title>n534</title>
<ellipse fill="none" stroke="lightgray" cx="166.896" cy="-306" rx="27" ry="18"/>
<text text-anchor="middle" x="166.896" y="-302.3" font-family="Times New Roman,serif" font-size="14.00" fill="lightgray">wph</text>
</g>
<!-- n534&#45;&gt;n541 -->
<g id="edge6" class="edge"><title>n534&#45;&gt;n541</title>
<path fill="none" stroke="lightgray" d="M193.106,-301.081C230.04,-292.822 299.485,-273.188 345.792,-235 357.206,-225.588 354.716,-218.683 363.792,-207 369.852,-199.2 377.005,-191.16 383.669,-184.072"/>
<polygon fill="lightgray" stroke="lightgray" points="386.237,-186.451 390.633,-176.811 381.185,-181.605 386.237,-186.451"/>
<text text-anchor="middle" x="286.792" y="-295.8" font-family="Times New Roman,serif" font-size="14.00" fill="lightgray">wff ph</text>
</g>
<!-- n535 -->
<g id="node9" class="node"><title>n535</title>
<ellipse fill="none" stroke="lightgray" cx="166.896" cy="-234" rx="27" ry="18"/>
<text text-anchor="middle" x="166.896" y="-230.3" font-family="Times New Roman,serif" font-size="14.00" fill="lightgray">wps</text>
</g>
<!-- n534&#45;&gt;n535 -->
<g id="edge15" class="edge"><title>n534&#45;&gt;n535</title>
</g>
<!-- n541&#45;&gt;n542 -->
<g id="edge14" class="edge"><title>n541&#45;&gt;n542</title>
<path fill="none" stroke="black" d="M433.693,-164.256C472.756,-168.987 546.672,-183.335 590.585,-226 614.571,-249.305 625.673,-287.074 630.68,-312.925"/>
<polygon fill="black" stroke="black" points="627.248,-313.616 632.42,-322.862 634.143,-312.409 627.248,-313.616"/>
<text text-anchor="middle" x="529.085" y="-229.8" font-family="Times New Roman,serif" font-size="14.00">|&#45; ( ph &#45;&gt; ( th &#45;&gt; ta ) )</text>
</g>
<!-- n535&#45;&gt;n541 -->
<g id="edge7" class="edge"><title>n535&#45;&gt;n541</title>
<path fill="none" stroke="lightgray" d="M191.819,-227.018C226.013,-217.006 290.81,-197.91 345.792,-181 354.411,-178.349 363.709,-175.43 372.348,-172.691"/>
<polygon fill="lightgray" stroke="lightgray" points="373.639,-175.953 382.107,-169.586 371.516,-169.283 373.639,-175.953"/>
<text text-anchor="middle" x="286.792" y="-219.8" font-family="Times New Roman,serif" font-size="14.00" fill="lightgray">wff ps</text>
</g>
<!-- n538 -->
<g id="node11" class="node"><title>n538</title>
<ellipse fill="none" stroke="lightgray" cx="166.896" cy="-162" rx="27" ry="18"/>
<text text-anchor="middle" x="166.896" y="-158.3" font-family="Times New Roman,serif" font-size="14.00" fill="lightgray">wi</text>
</g>
<!-- n535&#45;&gt;n538 -->
<g id="edge16" class="edge"><title>n535&#45;&gt;n538</title>
</g>
<!-- n536 -->
<g id="node10" class="node"><title>n536</title>
<ellipse fill="none" stroke="lightgray" cx="27" cy="-207" rx="27" ry="18"/>
<text text-anchor="middle" x="27" y="-203.3" font-family="Times New Roman,serif" font-size="14.00" fill="lightgray">wth</text>
</g>
<!-- n536&#45;&gt;n538 -->
<g id="edge8" class="edge"><title>n536&#45;&gt;n538</title>
<path fill="none" stroke="lightgray" d="M51.7052,-199.264C73.9043,-192.02 107.306,-181.12 132.258,-172.977"/>
<polygon fill="lightgray" stroke="lightgray" points="133.618,-176.215 142.039,-169.785 131.446,-169.56 133.618,-176.215"/>
<text text-anchor="middle" x="89" y="-196.8" font-family="Times New Roman,serif" font-size="14.00" fill="lightgray">wff th</text>
</g>
<!-- n537 -->
<g id="node12" class="node"><title>n537</title>
<ellipse fill="none" stroke="lightgray" cx="27" cy="-135" rx="27" ry="18"/>
<text text-anchor="middle" x="27" y="-131.3" font-family="Times New Roman,serif" font-size="14.00" fill="lightgray">wta</text>
</g>
<!-- n536&#45;&gt;n537 -->
<g id="edge11" class="edge"><title>n536&#45;&gt;n537</title>
</g>
<!-- n538&#45;&gt;n541 -->
<g id="edge10" class="edge"><title>n538&#45;&gt;n541</title>
<path fill="none" stroke="lightgray" d="M194.253,-162C236.949,-162 321.313,-162 369.568,-162"/>
<polygon fill="lightgray" stroke="lightgray" points="369.576,-165.5 379.576,-162 369.576,-158.5 369.576,-165.5"/>
<text text-anchor="middle" x="286.792" y="-165.8" font-family="Times New Roman,serif" font-size="14.00" fill="lightgray">wff ( th &#45;&gt; ta )</text>
</g>
<!-- n539 -->
<g id="node13" class="node"><title>n539</title>
<ellipse fill="orange" stroke="black" cx="166.896" cy="-90" rx="42.7926" ry="18"/>
<text text-anchor="middle" x="166.896" y="-86.3" font-family="Times New Roman,serif" font-size="14.00">sylsyld.1</text>
</g>
<!-- n538&#45;&gt;n539 -->
<g id="edge17" class="edge"><title>n538&#45;&gt;n539</title>
</g>
<!-- n537&#45;&gt;n538 -->
<g id="edge9" class="edge"><title>n537&#45;&gt;n538</title>
<path fill="none" stroke="lightgray" d="M53.2923,-139.952C75.0631,-144.215 106.699,-150.409 130.899,-155.147"/>
<polygon fill="lightgray" stroke="lightgray" points="130.278,-158.592 140.764,-157.079 131.623,-151.723 130.278,-158.592"/>
<text text-anchor="middle" x="89" y="-154.8" font-family="Times New Roman,serif" font-size="14.00" fill="lightgray">wff ta</text>
</g>
<!-- n539&#45;&gt;n541 -->
<g id="edge12" class="edge"><title>n539&#45;&gt;n541</title>
<path fill="none" stroke="black" d="M202.72,-100.178C238.624,-110.718 296.2,-127.748 345.792,-143 354.411,-145.651 363.709,-148.57 372.348,-151.309"/>
<polygon fill="black" stroke="black" points="371.516,-154.717 382.107,-154.414 373.639,-148.047 371.516,-154.717"/>
<text text-anchor="middle" x="286.792" y="-146.8" font-family="Times New Roman,serif" font-size="14.00">|&#45; ( ph &#45;&gt; ps )</text>
</g>
<!-- n540 -->
<g id="node14" class="node"><title>n540</title>
<ellipse fill="orange" stroke="black" cx="166.896" cy="-18" rx="42.7926" ry="18"/>
<text text-anchor="middle" x="166.896" y="-14.3" font-family="Times New Roman,serif" font-size="14.00">sylsyld.3</text>
</g>
<!-- n539&#45;&gt;n540 -->
<g id="edge18" class="edge"><title>n539&#45;&gt;n540</title>
</g>
<!-- n540&#45;&gt;n541 -->
<g id="edge13" class="edge"><title>n540&#45;&gt;n541</title>
<path fill="none" stroke="black" d="M204.255,-27.0196C242.173,-37.6652 302.068,-58.0697 345.792,-90 363.246,-102.745 378.721,-121.665 389.568,-136.911"/>
<polygon fill="black" stroke="black" points="386.849,-139.134 395.4,-145.389 392.616,-135.167 386.849,-139.134"/>
<text text-anchor="middle" x="286.792" y="-93.8" font-family="Times New Roman,serif" font-size="14.00">|&#45; ( ps &#45;&gt; ( th &#45;&gt; ta ) )</text>
</g>
</g>
</svg>
