<?xml version="1.0" encoding="UTF-8" standalone="no"?>
<!DOCTYPE svg PUBLIC "-//W3C//DTD SVG 1.1//EN"
 "http://www.w3.org/Graphics/SVG/1.1/DTD/svg11.dtd">
<!-- Generated by graphviz version 2.38.0 (20140413.2041)
 -->
<!-- Title: proof_xor3 Pages: 1 -->
<svg width="1342pt" height="557pt"
 viewBox="0.00 0.00 1342.07 557.00" xmlns="http://www.w3.org/2000/svg" xmlns:xlink="http://www.w3.org/1999/xlink">
<g id="graph0" class="graph" transform="scale(1 1) rotate(0) translate(4 553)">
<title>proof_xor3</title>
<polygon fill="white" stroke="none" points="-4,4 -4,-553 1338.07,-553 1338.07,4 -4,4"/>
<!-- n6804 -->
<g id="node1" class="node"><title>n6804</title>
<ellipse fill="none" stroke="lightgray" cx="304.347" cy="-531" rx="27" ry="18"/>
<text text-anchor="middle" x="304.347" y="-527.3" font-family="Times New Roman,serif" font-size="14.00" fill="lightgray">wph</text>
</g>
<!-- n6807 -->
<g id="node2" class="node"><title>n6807</title>
<ellipse fill="none" stroke="lightgray" cx="642.39" cy="-459" rx="27" ry="18"/>
<text text-anchor="middle" x="642.39" y="-455.3" font-family="Times New Roman,serif" font-size="14.00" fill="lightgray">wb</text>
</g>
<!-- n6804&#45;&gt;n6807 -->
<g id="edge1" class="edge"><title>n6804&#45;&gt;n6807</title>
<path fill="none" stroke="lightgray" d="M330.848,-527.491C380.573,-520.365 493.755,-502.75 586.693,-478 594.039,-476.044 601.819,-473.585 609.134,-471.092"/>
<polygon fill="lightgray" stroke="lightgray" points="610.465,-474.334 618.737,-467.714 608.142,-467.73 610.465,-474.334"/>
<text text-anchor="middle" x="473.693" y="-525.8" font-family="Times New Roman,serif" font-size="14.00" fill="lightgray">wff ph</text>
</g>
<!-- n6806 -->
<g id="node4" class="node"><title>n6806</title>
<ellipse fill="none" stroke="lightgray" cx="304.347" cy="-459" rx="27" ry="18"/>
<text text-anchor="middle" x="304.347" y="-455.3" font-family="Times New Roman,serif" font-size="14.00" fill="lightgray">wn</text>
</g>
<!-- n6804&#45;&gt;n6806 -->
<g id="edge5" class="edge"><title>n6804&#45;&gt;n6806</title>
</g>
<!-- n6823 -->
<g id="node5" class="node"><title>n6823</title>
<ellipse fill="cyan" stroke="black" cx="977.833" cy="-387" rx="35.9954" ry="18"/>
<text text-anchor="middle" x="977.833" y="-383.3" font-family="Times New Roman,serif" font-size="14.00">bicomi</text>
</g>
<!-- n6807&#45;&gt;n6823 -->
<g id="edge4" class="edge"><title>n6807&#45;&gt;n6823</title>
<path fill="none" stroke="lightgray" d="M669.244,-455.525C719.095,-448.516 831.743,-431.178 924.087,-406 929.122,-404.627 934.363,-402.996 939.501,-401.274"/>
<polygon fill="lightgray" stroke="lightgray" points="940.888,-404.497 949.177,-397.897 938.582,-397.888 940.888,-404.497"/>
<text text-anchor="middle" x="811.087" y="-454.8" font-family="Times New Roman,serif" font-size="14.00" fill="lightgray">wff ( ph &lt;&#45;&gt; &#45;. ps )</text>
</g>
<!-- n6811 -->
<g id="node9" class="node"><title>n6811</title>
<ellipse fill="none" stroke="lightgray" cx="642.39" cy="-387" rx="27" ry="18"/>
<text text-anchor="middle" x="642.39" y="-383.3" font-family="Times New Roman,serif" font-size="14.00" fill="lightgray">wn</text>
</g>
<!-- n6807&#45;&gt;n6811 -->
<g id="edge28" class="edge"><title>n6807&#45;&gt;n6811</title>
</g>
<!-- n6805 -->
<g id="node3" class="node"><title>n6805</title>
<ellipse fill="none" stroke="lightgray" cx="154" cy="-522" rx="27" ry="18"/>
<text text-anchor="middle" x="154" y="-518.3" font-family="Times New Roman,serif" font-size="14.00" fill="lightgray">wps</text>
</g>
<!-- n6805&#45;&gt;n6806 -->
<g id="edge2" class="edge"><title>n6805&#45;&gt;n6806</title>
<path fill="none" stroke="lightgray" d="M177.209,-512.568C202.226,-501.944 243.091,-484.589 271.502,-472.524"/>
<polygon fill="lightgray" stroke="lightgray" points="273.15,-475.627 280.986,-468.496 270.413,-469.184 273.15,-475.627"/>
<text text-anchor="middle" x="223.5" y="-505.8" font-family="Times New Roman,serif" font-size="14.00" fill="lightgray">wff ps</text>
</g>
<!-- n6806&#45;&gt;n6807 -->
<g id="edge3" class="edge"><title>n6806&#45;&gt;n6807</title>
<path fill="none" stroke="lightgray" d="M331.436,-459C390.865,-459 536.437,-459 604.801,-459"/>
<polygon fill="lightgray" stroke="lightgray" points="605.086,-462.5 615.086,-459 605.086,-455.5 605.086,-462.5"/>
<text text-anchor="middle" x="473.693" y="-462.8" font-family="Times New Roman,serif" font-size="14.00" fill="lightgray">wff &#45;. ps</text>
</g>
<!-- QED -->
<g id="node21" class="node"><title>QED</title>
</g>
<!-- n6823&#45;&gt;QED -->
<g id="edge27" class="edge"><title>n6823&#45;&gt;QED</title>
<path fill="none" stroke="black" d="M1013.61,-387C1074.88,-387 1201.6,-387 1265.38,-387"/>
<polygon fill="black" stroke="black" points="1265.42,-390.5 1275.42,-387 1265.42,-383.5 1265.42,-390.5"/>
<text text-anchor="middle" x="1144.58" y="-390.8" font-family="Times New Roman,serif" font-size="14.00">|&#45; ( &#45;. ( ph &lt;&#45;&gt; ps ) &lt;&#45;&gt; ( ph &lt;&#45;&gt; &#45;. ps ) )</text>
</g>
<!-- n6808 -->
<g id="node6" class="node"><title>n6808</title>
<ellipse fill="none" stroke="lightgray" cx="154" cy="-468" rx="27" ry="18"/>
<text text-anchor="middle" x="154" y="-464.3" font-family="Times New Roman,serif" font-size="14.00" fill="lightgray">wph</text>
</g>
<!-- n6810 -->
<g id="node7" class="node"><title>n6810</title>
<ellipse fill="none" stroke="lightgray" cx="304.347" cy="-396" rx="27" ry="18"/>
<text text-anchor="middle" x="304.347" y="-392.3" font-family="Times New Roman,serif" font-size="14.00" fill="lightgray">wb</text>
</g>
<!-- n6808&#45;&gt;n6810 -->
<g id="edge6" class="edge"><title>n6808&#45;&gt;n6810</title>
<path fill="none" stroke="lightgray" d="M176.254,-457.684C201.591,-445.387 244.117,-424.747 272.93,-410.763"/>
<polygon fill="lightgray" stroke="lightgray" points="274.663,-413.812 282.132,-406.297 271.607,-407.514 274.663,-413.812"/>
<text text-anchor="middle" x="223.5" y="-448.8" font-family="Times New Roman,serif" font-size="14.00" fill="lightgray">wff ph</text>
</g>
<!-- n6809 -->
<g id="node8" class="node"><title>n6809</title>
<ellipse fill="none" stroke="lightgray" cx="154" cy="-396" rx="27" ry="18"/>
<text text-anchor="middle" x="154" y="-392.3" font-family="Times New Roman,serif" font-size="14.00" fill="lightgray">wps</text>
</g>
<!-- n6808&#45;&gt;n6809 -->
<g id="edge9" class="edge"><title>n6808&#45;&gt;n6809</title>
</g>
<!-- n6810&#45;&gt;n6811 -->
<g id="edge8" class="edge"><title>n6810&#45;&gt;n6811</title>
<path fill="none" stroke="lightgray" d="M331.436,-395.301C390.865,-393.71 536.437,-389.811 604.801,-387.98"/>
<polygon fill="lightgray" stroke="lightgray" points="605.183,-391.471 615.086,-387.704 604.996,-384.474 605.183,-391.471"/>
<text text-anchor="middle" x="473.693" y="-398.8" font-family="Times New Roman,serif" font-size="14.00" fill="lightgray">wff ( ph &lt;&#45;&gt; ps )</text>
</g>
<!-- n6809&#45;&gt;n6810 -->
<g id="edge7" class="edge"><title>n6809&#45;&gt;n6810</title>
<path fill="none" stroke="lightgray" d="M181.18,-396C204.972,-396 240.308,-396 266.865,-396"/>
<polygon fill="lightgray" stroke="lightgray" points="266.929,-399.5 276.929,-396 266.929,-392.5 266.929,-399.5"/>
<text text-anchor="middle" x="223.5" y="-399.8" font-family="Times New Roman,serif" font-size="14.00" fill="lightgray">wff ps</text>
</g>
<!-- n6811&#45;&gt;n6823 -->
<g id="edge10" class="edge"><title>n6811&#45;&gt;n6823</title>
<path fill="none" stroke="lightgray" d="M669.555,-387C726.215,-387 860.844,-387 931.602,-387"/>
<polygon fill="lightgray" stroke="lightgray" points="931.975,-390.5 941.975,-387 931.975,-383.5 931.975,-390.5"/>
<text text-anchor="middle" x="811.087" y="-390.8" font-family="Times New Roman,serif" font-size="14.00" fill="lightgray">wff &#45;. ( ph &lt;&#45;&gt; ps )</text>
</g>
<!-- n6822 -->
<g id="node13" class="node"><title>n6822</title>
<ellipse fill="cyan" stroke="black" cx="642.39" cy="-275" rx="37.8943" ry="18"/>
<text text-anchor="middle" x="642.39" y="-271.3" font-family="Times New Roman,serif" font-size="14.00">con2bii</text>
</g>
<!-- n6811&#45;&gt;n6822 -->
<g id="edge29" class="edge"><title>n6811&#45;&gt;n6822</title>
</g>
<!-- n6812 -->
<g id="node10" class="node"><title>n6812</title>
<ellipse fill="none" stroke="lightgray" cx="154" cy="-342" rx="27" ry="18"/>
<text text-anchor="middle" x="154" y="-338.3" font-family="Times New Roman,serif" font-size="14.00" fill="lightgray">wps</text>
</g>
<!-- n6814 -->
<g id="node11" class="node"><title>n6814</title>
<ellipse fill="none" stroke="lightgray" cx="304.347" cy="-275" rx="27" ry="18"/>
<text text-anchor="middle" x="304.347" y="-271.3" font-family="Times New Roman,serif" font-size="14.00" fill="lightgray">wb</text>
</g>
<!-- n6812&#45;&gt;n6814 -->
<g id="edge11" class="edge"><title>n6812&#45;&gt;n6814</title>
<path fill="none" stroke="lightgray" d="M176.889,-332.114C202.088,-320.733 243.667,-301.954 272.225,-289.056"/>
<polygon fill="lightgray" stroke="lightgray" points="273.695,-292.233 281.368,-284.927 270.813,-285.853 273.695,-292.233"/>
<text text-anchor="middle" x="223.5" y="-324.8" font-family="Times New Roman,serif" font-size="14.00" fill="lightgray">wff ps</text>
</g>
<!-- n6813 -->
<g id="node12" class="node"><title>n6813</title>
<ellipse fill="none" stroke="lightgray" cx="154" cy="-270" rx="27" ry="18"/>
<text text-anchor="middle" x="154" y="-266.3" font-family="Times New Roman,serif" font-size="14.00" fill="lightgray">wph</text>
</g>
<!-- n6812&#45;&gt;n6813 -->
<g id="edge14" class="edge"><title>n6812&#45;&gt;n6813</title>
</g>
<!-- n6814&#45;&gt;n6822 -->
<g id="edge13" class="edge"><title>n6814&#45;&gt;n6822</title>
<path fill="none" stroke="lightgray" d="M331.436,-275C388.023,-275 522.711,-275 594.482,-275"/>
<polygon fill="lightgray" stroke="lightgray" points="594.598,-278.5 604.597,-275 594.597,-271.5 594.598,-278.5"/>
<text text-anchor="middle" x="473.693" y="-278.8" font-family="Times New Roman,serif" font-size="14.00" fill="lightgray">wff ( ph &lt;&#45;&gt; ps )</text>
</g>
<!-- n6818 -->
<g id="node16" class="node"><title>n6818</title>
<ellipse fill="none" stroke="lightgray" cx="304.347" cy="-203" rx="27" ry="18"/>
<text text-anchor="middle" x="304.347" y="-199.3" font-family="Times New Roman,serif" font-size="14.00" fill="lightgray">wb</text>
</g>
<!-- n6814&#45;&gt;n6818 -->
<g id="edge25" class="edge"><title>n6814&#45;&gt;n6818</title>
</g>
<!-- n6813&#45;&gt;n6814 -->
<g id="edge12" class="edge"><title>n6813&#45;&gt;n6814</title>
<path fill="none" stroke="lightgray" d="M181.18,-270.882C204.972,-271.684 240.308,-272.875 266.865,-273.77"/>
<polygon fill="lightgray" stroke="lightgray" points="266.817,-277.271 276.929,-274.11 267.053,-270.275 266.817,-277.271"/>
<text text-anchor="middle" x="223.5" y="-277.8" font-family="Times New Roman,serif" font-size="14.00" fill="lightgray">wff ph</text>
</g>
<!-- n6822&#45;&gt;n6823 -->
<g id="edge24" class="edge"><title>n6822&#45;&gt;n6823</title>
<path fill="none" stroke="black" d="M674.214,-284.925C725.978,-301.656 833.597,-336.718 924.087,-368 928.907,-369.667 933.965,-371.447 938.96,-373.225"/>
<polygon fill="black" stroke="black" points="937.817,-376.533 948.411,-376.61 940.177,-369.943 937.817,-376.533"/>
<text text-anchor="middle" x="811.087" y="-371.8" font-family="Times New Roman,serif" font-size="14.00">|&#45; ( ( ph &lt;&#45;&gt; &#45;. ps ) &lt;&#45;&gt; &#45;. ( ph &lt;&#45;&gt; ps ) )</text>
</g>
<!-- n6815 -->
<g id="node14" class="node"><title>n6815</title>
<ellipse fill="none" stroke="lightgray" cx="27" cy="-216" rx="27" ry="18"/>
<text text-anchor="middle" x="27" y="-212.3" font-family="Times New Roman,serif" font-size="14.00" fill="lightgray">wps</text>
</g>
<!-- n6816 -->
<g id="node15" class="node"><title>n6816</title>
<ellipse fill="none" stroke="lightgray" cx="154" cy="-216" rx="27" ry="18"/>
<text text-anchor="middle" x="154" y="-212.3" font-family="Times New Roman,serif" font-size="14.00" fill="lightgray">wn</text>
</g>
<!-- n6815&#45;&gt;n6816 -->
<g id="edge15" class="edge"><title>n6815&#45;&gt;n6816</title>
<path fill="none" stroke="lightgray" d="M54.2041,-216C72.3711,-216 96.7994,-216 116.82,-216"/>
<polygon fill="lightgray" stroke="lightgray" points="116.83,-219.5 126.83,-216 116.83,-212.5 116.83,-219.5"/>
<text text-anchor="middle" x="90.5" y="-219.8" font-family="Times New Roman,serif" font-size="14.00" fill="lightgray">wff ps</text>
</g>
<!-- n6816&#45;&gt;n6818 -->
<g id="edge16" class="edge"><title>n6816&#45;&gt;n6818</title>
<path fill="none" stroke="lightgray" d="M180.84,-213.736C204.804,-211.636 240.69,-208.491 267.436,-206.147"/>
<polygon fill="lightgray" stroke="lightgray" points="267.898,-209.62 277.554,-205.26 267.287,-202.647 267.898,-209.62"/>
<text text-anchor="middle" x="223.5" y="-215.8" font-family="Times New Roman,serif" font-size="14.00" fill="lightgray">wff &#45;. ps</text>
</g>
<!-- n6817 -->
<g id="node17" class="node"><title>n6817</title>
<ellipse fill="none" stroke="lightgray" cx="154" cy="-144" rx="27" ry="18"/>
<text text-anchor="middle" x="154" y="-140.3" font-family="Times New Roman,serif" font-size="14.00" fill="lightgray">wph</text>
</g>
<!-- n6816&#45;&gt;n6817 -->
<g id="edge19" class="edge"><title>n6816&#45;&gt;n6817</title>
</g>
<!-- n6818&#45;&gt;n6822 -->
<g id="edge18" class="edge"><title>n6818&#45;&gt;n6822</title>
<path fill="none" stroke="lightgray" d="M330.848,-206.509C380.573,-213.635 493.755,-231.25 586.693,-256 591.975,-257.407 597.481,-259.073 602.877,-260.825"/>
<polygon fill="lightgray" stroke="lightgray" points="601.806,-264.157 612.4,-264.034 604.041,-257.524 601.806,-264.157"/>
<text text-anchor="middle" x="473.693" y="-259.8" font-family="Times New Roman,serif" font-size="14.00" fill="lightgray">wff ( ph &lt;&#45;&gt; &#45;. ps )</text>
</g>
<!-- n6821 -->
<g id="node19" class="node"><title>n6821</title>
<ellipse fill="cyan" stroke="black" cx="304.347" cy="-120" rx="38.1938" ry="18"/>
<text text-anchor="middle" x="304.347" y="-116.3" font-family="Times New Roman,serif" font-size="14.00">pm5.18</text>
</g>
<!-- n6818&#45;&gt;n6821 -->
<g id="edge26" class="edge"><title>n6818&#45;&gt;n6821</title>
</g>
<!-- n6817&#45;&gt;n6818 -->
<g id="edge17" class="edge"><title>n6817&#45;&gt;n6818</title>
<path fill="none" stroke="lightgray" d="M177.531,-152.961C202.472,-162.881 242.88,-178.952 271.154,-190.197"/>
<polygon fill="lightgray" stroke="lightgray" points="270.018,-193.511 280.604,-193.955 272.605,-187.007 270.018,-193.511"/>
<text text-anchor="middle" x="223.5" y="-184.8" font-family="Times New Roman,serif" font-size="14.00" fill="lightgray">wff ph</text>
</g>
<!-- n6819 -->
<g id="node18" class="node"><title>n6819</title>
<ellipse fill="none" stroke="lightgray" cx="154" cy="-90" rx="27" ry="18"/>
<text text-anchor="middle" x="154" y="-86.3" font-family="Times New Roman,serif" font-size="14.00" fill="lightgray">wph</text>
</g>
<!-- n6819&#45;&gt;n6821 -->
<g id="edge20" class="edge"><title>n6819&#45;&gt;n6821</title>
<path fill="none" stroke="lightgray" d="M180.165,-95.0891C201.693,-99.4427 233.191,-105.812 258.946,-111.021"/>
<polygon fill="lightgray" stroke="lightgray" points="258.367,-114.475 268.863,-113.026 259.755,-107.614 258.367,-114.475"/>
<text text-anchor="middle" x="223.5" y="-112.8" font-family="Times New Roman,serif" font-size="14.00" fill="lightgray">wff ph</text>
</g>
<!-- n6820 -->
<g id="node20" class="node"><title>n6820</title>
<ellipse fill="none" stroke="lightgray" cx="154" cy="-18" rx="27" ry="18"/>
<text text-anchor="middle" x="154" y="-14.3" font-family="Times New Roman,serif" font-size="14.00" fill="lightgray">wps</text>
</g>
<!-- n6819&#45;&gt;n6820 -->
<g id="edge23" class="edge"><title>n6819&#45;&gt;n6820</title>
</g>
<!-- n6821&#45;&gt;n6822 -->
<g id="edge22" class="edge"><title>n6821&#45;&gt;n6822</title>
<path fill="none" stroke="black" d="M343.046,-121.398C400.615,-125.252 511.644,-139.625 586.693,-193 605.99,-206.724 620.407,-229.57 629.581,-247.666"/>
<polygon fill="black" stroke="black" points="626.649,-249.646 634.136,-257.143 632.958,-246.614 626.649,-249.646"/>
<text text-anchor="middle" x="473.693" y="-196.8" font-family="Times New Roman,serif" font-size="14.00">|&#45; ( ( ph &lt;&#45;&gt; ps ) &lt;&#45;&gt; &#45;. ( ph &lt;&#45;&gt; &#45;. ps ) )</text>
</g>
<!-- n6820&#45;&gt;n6821 -->
<g id="edge21" class="edge"><title>n6820&#45;&gt;n6821</title>
<path fill="none" stroke="lightgray" d="M173.596,-30.4507C192.419,-43.0876 222.329,-63.2627 248,-81 256.469,-86.852 265.622,-93.2643 273.998,-99.1688"/>
<polygon fill="lightgray" stroke="lightgray" points="272.198,-102.182 282.385,-105.093 276.237,-96.4649 272.198,-102.182"/>
<text text-anchor="middle" x="223.5" y="-84.8" font-family="Times New Roman,serif" font-size="14.00" fill="lightgray">wff ps</text>
</g>
</g>
</svg>
