<?xml version="1.0" encoding="UTF-8" standalone="no"?>
<!DOCTYPE svg PUBLIC "-//W3C//DTD SVG 1.1//EN"
 "http://www.w3.org/Graphics/SVG/1.1/DTD/svg11.dtd">
<!-- Generated by graphviz version 2.38.0 (20140413.2041)
 -->
<!-- Title: proof_3ad2ant2 Pages: 1 -->
<svg width="751pt" height="439pt"
 viewBox="0.00 0.00 751.07 439.00" xmlns="http://www.w3.org/2000/svg" xmlns:xlink="http://www.w3.org/1999/xlink">
<g id="graph0" class="graph" transform="scale(1 1) rotate(0) translate(4 435)">
<title>proof_3ad2ant2</title>
<polygon fill="white" stroke="none" points="-4,4 -4,-435 747.074,-435 747.074,4 -4,4"/>
<!-- n19514 -->
<g id="node1" class="node"><title>n19514</title>
</g>
<!-- n19523 -->
<g id="node2" class="node"><title>n19523</title>
<ellipse fill="cyan" stroke="black" cx="463.582" cy="-269" rx="38.9931" ry="18"/>
<text text-anchor="middle" x="463.582" y="-265.3" font-family="Times New Roman,serif" font-size="14.00">3adant1</text>
</g>
<!-- n19514&#45;&gt;n19523 -->
<g id="edge1" class="edge"><title>n19514&#45;&gt;n19523</title>
<path fill="none" stroke="lightgray" d="M263.068,-407.138C297.812,-397.952 361.953,-377.55 406.586,-343 423.412,-329.975 437.782,-310.692 447.75,-295.076"/>
<polygon fill="lightgray" stroke="lightgray" points="450.841,-296.732 453.097,-286.38 444.878,-293.066 450.841,-296.732"/>
<text text-anchor="middle" x="347.586" y="-402.8" font-family="Times New Roman,serif" font-size="14.00" fill="lightgray">wff ph</text>
</g>
<!-- n19515 -->
<g id="node3" class="node"><title>n19515</title>
</g>
<!-- n19514&#45;&gt;n19515 -->
<g id="edge14" class="edge"><title>n19514&#45;&gt;n19515</title>
</g>
<!-- QED -->
<g id="node11" class="node"><title>QED</title>
</g>
<!-- n19523&#45;&gt;QED -->
<g id="edge13" class="edge"><title>n19523&#45;&gt;QED</title>
<path fill="none" stroke="black" d="M502.827,-269C549.484,-269 627.895,-269 674.561,-269"/>
<polygon fill="black" stroke="black" points="674.577,-272.5 684.577,-269 674.577,-265.5 674.577,-272.5"/>
<text text-anchor="middle" x="593.579" y="-272.8" font-family="Times New Roman,serif" font-size="14.00">|&#45; ( ( ps /\ ph /\ th ) &#45;&gt; ch )</text>
</g>
<!-- n19515&#45;&gt;n19523 -->
<g id="edge2" class="edge"><title>n19515&#45;&gt;n19523</title>
<path fill="none" stroke="lightgray" d="M262.16,-333.701C294.768,-323.628 355.242,-304.8 406.586,-288 411.58,-286.366 416.816,-284.625 421.997,-282.887"/>
<polygon fill="lightgray" stroke="lightgray" points="423.459,-286.087 431.815,-279.574 421.221,-279.455 423.459,-286.087"/>
<text text-anchor="middle" x="347.586" y="-327.8" font-family="Times New Roman,serif" font-size="14.00" fill="lightgray">wff th</text>
</g>
<!-- n19516 -->
<g id="node4" class="node"><title>n19516</title>
</g>
<!-- n19515&#45;&gt;n19516 -->
<g id="edge15" class="edge"><title>n19515&#45;&gt;n19516</title>
</g>
<!-- n19516&#45;&gt;n19523 -->
<g id="edge3" class="edge"><title>n19516&#45;&gt;n19523</title>
<path fill="none" stroke="lightgray" d="M264.59,-269C301.2,-269 368.382,-269 414.24,-269"/>
<polygon fill="lightgray" stroke="lightgray" points="414.257,-272.5 424.257,-269 414.257,-265.5 414.257,-272.5"/>
<text text-anchor="middle" x="347.586" y="-272.8" font-family="Times New Roman,serif" font-size="14.00" fill="lightgray">wff ch</text>
</g>
<!-- n19517 -->
<g id="node5" class="node"><title>n19517</title>
</g>
<!-- n19516&#45;&gt;n19517 -->
<g id="edge16" class="edge"><title>n19516&#45;&gt;n19517</title>
</g>
<!-- n19517&#45;&gt;n19523 -->
<g id="edge4" class="edge"><title>n19517&#45;&gt;n19523</title>
<path fill="none" stroke="lightgray" d="M262.16,-204.299C294.768,-214.372 355.242,-233.2 406.586,-250 411.58,-251.634 416.816,-253.375 421.997,-255.113"/>
<polygon fill="lightgray" stroke="lightgray" points="421.221,-258.545 431.815,-258.426 423.459,-251.913 421.221,-258.545"/>
<text text-anchor="middle" x="347.586" y="-253.8" font-family="Times New Roman,serif" font-size="14.00" fill="lightgray">wff ps</text>
</g>
<!-- n19522 -->
<g id="node7" class="node"><title>n19522</title>
<ellipse fill="cyan" stroke="black" cx="237.439" cy="-125" rx="33.2948" ry="18"/>
<text text-anchor="middle" x="237.439" y="-121.3" font-family="Times New Roman,serif" font-size="14.00">adantr</text>
</g>
<!-- n19517&#45;&gt;n19522 -->
<g id="edge17" class="edge"><title>n19517&#45;&gt;n19522</title>
</g>
<!-- n19518 -->
<g id="node6" class="node"><title>n19518</title>
</g>
<!-- n19518&#45;&gt;n19522 -->
<g id="edge5" class="edge"><title>n19518&#45;&gt;n19522</title>
<path fill="none" stroke="lightgray" d="M70.0479,-225.336C98.4549,-214.105 147.833,-192.97 186.292,-168 195.526,-162.005 204.886,-154.459 212.98,-147.369"/>
<polygon fill="lightgray" stroke="lightgray" points="215.512,-149.798 220.6,-140.505 210.827,-144.597 215.512,-149.798"/>
<text text-anchor="middle" x="148.292" y="-210.8" font-family="Times New Roman,serif" font-size="14.00" fill="lightgray">wff ph</text>
</g>
<!-- n19519 -->
<g id="node8" class="node"><title>n19519</title>
</g>
<!-- n19518&#45;&gt;n19519 -->
<g id="edge10" class="edge"><title>n19518&#45;&gt;n19519</title>
</g>
<!-- n19522&#45;&gt;n19523 -->
<g id="edge9" class="edge"><title>n19522&#45;&gt;n19523</title>
<path fill="none" stroke="black" d="M268.264,-132.002C303.952,-141.491 364.19,-161.135 406.586,-194 423.548,-207.149 437.913,-226.694 447.846,-242.535"/>
<polygon fill="black" stroke="black" points="445.006,-244.603 453.168,-251.358 451,-240.987 445.006,-244.603"/>
<text text-anchor="middle" x="347.586" y="-197.8" font-family="Times New Roman,serif" font-size="14.00">|&#45; ( ( ph /\ th ) &#45;&gt; ch )</text>
</g>
<!-- n19519&#45;&gt;n19522 -->
<g id="edge6" class="edge"><title>n19519&#45;&gt;n19522</title>
<path fill="none" stroke="lightgray" d="M72.2825,-157.087C103.813,-150.924 158.283,-140.277 195.774,-132.948"/>
<polygon fill="lightgray" stroke="lightgray" points="196.723,-136.329 205.865,-130.976 195.38,-129.459 196.723,-136.329"/>
<text text-anchor="middle" x="148.292" y="-152.8" font-family="Times New Roman,serif" font-size="14.00" fill="lightgray">wff ch</text>
</g>
<!-- n19520 -->
<g id="node9" class="node"><title>n19520</title>
</g>
<!-- n19519&#45;&gt;n19520 -->
<g id="edge11" class="edge"><title>n19519&#45;&gt;n19520</title>
</g>
<!-- n19520&#45;&gt;n19522 -->
<g id="edge7" class="edge"><title>n19520&#45;&gt;n19522</title>
<path fill="none" stroke="lightgray" d="M72.2825,-94.6477C103.813,-100.478 158.283,-110.549 195.774,-117.481"/>
<polygon fill="lightgray" stroke="lightgray" points="195.396,-120.97 205.865,-119.347 196.669,-114.087 195.396,-120.97"/>
<text text-anchor="middle" x="148.292" y="-119.8" font-family="Times New Roman,serif" font-size="14.00" fill="lightgray">wff th</text>
</g>
<!-- n19521 -->
<g id="node10" class="node"><title>n19521</title>
<ellipse fill="orange" stroke="black" cx="46.1459" cy="-18" rx="46.2923" ry="18"/>
<text text-anchor="middle" x="46.1459" y="-14.3" font-family="Times New Roman,serif" font-size="14.00">3ad2ant.1</text>
</g>
<!-- n19520&#45;&gt;n19521 -->
<g id="edge12" class="edge"><title>n19520&#45;&gt;n19521</title>
</g>
<!-- n19521&#45;&gt;n19522 -->
<g id="edge8" class="edge"><title>n19521&#45;&gt;n19522</title>
<path fill="none" stroke="black" d="M79.241,-30.5985C108.211,-42.5723 151.497,-61.9843 186.292,-84 194.946,-89.4755 203.788,-96.2433 211.59,-102.691"/>
<polygon fill="black" stroke="black" points="209.702,-105.68 219.589,-109.486 214.234,-100.345 209.702,-105.68"/>
<text text-anchor="middle" x="148.292" y="-87.8" font-family="Times New Roman,serif" font-size="14.00">|&#45; ( ph &#45;&gt; ch )</text>
</g>
</g>
</svg>
