<?xml version="1.0" encoding="UTF-8" standalone="no"?>
<!DOCTYPE svg PUBLIC "-//W3C//DTD SVG 1.1//EN"
 "http://www.w3.org/Graphics/SVG/1.1/DTD/svg11.dtd">
<!-- Generated by graphviz version 2.38.0 (20140413.2041)
 -->
<!-- Title: proof_3adant1 Pages: 1 -->
<svg width="741pt" height="332pt"
 viewBox="0.00 0.00 740.69 332.00" xmlns="http://www.w3.org/2000/svg" xmlns:xlink="http://www.w3.org/1999/xlink">
<g id="graph0" class="graph" transform="scale(1 1) rotate(0) translate(4 328)">
<title>proof_3adant1</title>
<polygon fill="white" stroke="none" points="-4,4 -4,-328 736.687,-328 736.687,4 -4,4"/>
<!-- n19465 -->
<g id="node1" class="node"><title>n19465</title>
</g>
<!-- n19475 -->
<g id="node2" class="node"><title>n19475</title>
<ellipse fill="cyan" stroke="black" cx="465.193" cy="-162" rx="27" ry="18"/>
<text text-anchor="middle" x="465.193" y="-158.3" font-family="Times New Roman,serif" font-size="14.00">syl</text>
</g>
<!-- n19465&#45;&gt;n19475 -->
<g id="edge1" class="edge"><title>n19465&#45;&gt;n19475</title>
<path fill="none" stroke="lightgray" d="M195.608,-306.064C244.647,-304.88 351.958,-295.928 420.193,-243 437.528,-229.553 448.915,-207.279 455.753,-189.488"/>
<polygon fill="lightgray" stroke="lightgray" points="459.205,-190.227 459.264,-179.632 452.611,-187.878 459.205,-190.227"/>
<text text-anchor="middle" x="324.193" y="-307.8" font-family="Times New Roman,serif" font-size="14.00" fill="lightgray">wff ( th /\ ph /\ ps )</text>
</g>
<!-- n19468 -->
<g id="node3" class="node"><title>n19468</title>
</g>
<!-- n19465&#45;&gt;n19468 -->
<g id="edge12" class="edge"><title>n19465&#45;&gt;n19468</title>
</g>
<!-- QED -->
<g id="node10" class="node"><title>QED</title>
</g>
<!-- n19475&#45;&gt;QED -->
<g id="edge11" class="edge"><title>n19475&#45;&gt;QED</title>
<path fill="none" stroke="black" d="M492.378,-162C534.014,-162 615.531,-162 663.862,-162"/>
<polygon fill="black" stroke="black" points="663.936,-165.5 673.936,-162 663.936,-158.5 663.936,-165.5"/>
<text text-anchor="middle" x="583.193" y="-165.8" font-family="Times New Roman,serif" font-size="14.00">|&#45; ( ( th /\ ph /\ ps ) &#45;&gt; ch )</text>
</g>
<!-- n19468&#45;&gt;n19475 -->
<g id="edge2" class="edge"><title>n19468&#45;&gt;n19475</title>
<path fill="none" stroke="lightgray" d="M195.285,-230.301C241.16,-223.314 339.891,-206.548 420.193,-181 424.502,-179.629 428.964,-177.984 433.32,-176.243"/>
<polygon fill="lightgray" stroke="lightgray" points="434.725,-179.449 442.587,-172.347 432.012,-172.996 434.725,-179.449"/>
<text text-anchor="middle" x="324.193" y="-227.8" font-family="Times New Roman,serif" font-size="14.00" fill="lightgray">wff ( ph /\ ps )</text>
</g>
<!-- n19469 -->
<g id="node4" class="node"><title>n19469</title>
</g>
<!-- n19468&#45;&gt;n19469 -->
<g id="edge13" class="edge"><title>n19468&#45;&gt;n19469</title>
</g>
<!-- n19469&#45;&gt;n19475 -->
<g id="edge3" class="edge"><title>n19469&#45;&gt;n19475</title>
<path fill="none" stroke="lightgray" d="M195.74,-162C248.478,-162 367.699,-162 427.925,-162"/>
<polygon fill="lightgray" stroke="lightgray" points="428.108,-165.5 438.108,-162 428.108,-158.5 428.108,-165.5"/>
<text text-anchor="middle" x="324.193" y="-165.8" font-family="Times New Roman,serif" font-size="14.00" fill="lightgray">wff ch</text>
</g>
<!-- n19473 -->
<g id="node6" class="node"><title>n19473</title>
<ellipse fill="cyan" stroke="black" cx="168.596" cy="-90" rx="37.0935" ry="18"/>
<text text-anchor="middle" x="168.596" y="-86.3" font-family="Times New Roman,serif" font-size="14.00">3simpc</text>
</g>
<!-- n19469&#45;&gt;n19473 -->
<g id="edge14" class="edge"><title>n19469&#45;&gt;n19473</title>
</g>
<!-- n19470 -->
<g id="node5" class="node"><title>n19470</title>
</g>
<!-- n19470&#45;&gt;n19473 -->
<g id="edge4" class="edge"><title>n19470&#45;&gt;n19473</title>
<path fill="none" stroke="lightgray" d="M48.899,-151.221C71.2154,-139.711 106.934,-121.288 133.366,-107.655"/>
<polygon fill="lightgray" stroke="lightgray" points="135.008,-110.746 142.291,-103.052 131.799,-104.525 135.008,-110.746"/>
<text text-anchor="middle" x="90.5" y="-142.8" font-family="Times New Roman,serif" font-size="14.00" fill="lightgray">wff th</text>
</g>
<!-- n19471 -->
<g id="node7" class="node"><title>n19471</title>
</g>
<!-- n19470&#45;&gt;n19471 -->
<g id="edge8" class="edge"><title>n19470&#45;&gt;n19471</title>
</g>
<!-- n19473&#45;&gt;n19475 -->
<g id="edge7" class="edge"><title>n19473&#45;&gt;n19475</title>
<path fill="none" stroke="black" d="M204.205,-95.0789C253.075,-102.753 344.764,-119.002 420.193,-143 424.502,-144.371 428.964,-146.016 433.32,-147.757"/>
<polygon fill="black" stroke="black" points="432.012,-151.004 442.587,-151.653 434.725,-144.551 432.012,-151.004"/>
<text text-anchor="middle" x="324.193" y="-146.8" font-family="Times New Roman,serif" font-size="14.00">|&#45; ( ( th /\ ph /\ ps ) &#45;&gt; ( ph /\ ps ) )</text>
</g>
<!-- n19474 -->
<g id="node9" class="node"><title>n19474</title>
<ellipse fill="orange" stroke="black" cx="168.596" cy="-18" rx="41.6928" ry="18"/>
<text text-anchor="middle" x="168.596" y="-14.3" font-family="Times New Roman,serif" font-size="14.00">3adant.1</text>
</g>
<!-- n19473&#45;&gt;n19474 -->
<g id="edge15" class="edge"><title>n19473&#45;&gt;n19474</title>
</g>
<!-- n19471&#45;&gt;n19473 -->
<g id="edge5" class="edge"><title>n19471&#45;&gt;n19473</title>
<path fill="none" stroke="lightgray" d="M54.257,-90C73.0752,-90 98.9238,-90 121.184,-90"/>
<polygon fill="lightgray" stroke="lightgray" points="121.448,-93.5001 131.448,-90 121.448,-86.5001 121.448,-93.5001"/>
<text text-anchor="middle" x="90.5" y="-93.8" font-family="Times New Roman,serif" font-size="14.00" fill="lightgray">wff ph</text>
</g>
<!-- n19472 -->
<g id="node8" class="node"><title>n19472</title>
</g>
<!-- n19471&#45;&gt;n19472 -->
<g id="edge9" class="edge"><title>n19471&#45;&gt;n19472</title>
</g>
<!-- n19472&#45;&gt;n19473 -->
<g id="edge6" class="edge"><title>n19472&#45;&gt;n19473</title>
<path fill="none" stroke="lightgray" d="M48.899,-28.7791C71.2154,-40.2894 106.934,-58.7122 133.366,-72.3451"/>
<polygon fill="lightgray" stroke="lightgray" points="131.799,-75.4749 142.291,-76.9483 135.008,-69.2537 131.799,-75.4749"/>
<text text-anchor="middle" x="90.5" y="-62.8" font-family="Times New Roman,serif" font-size="14.00" fill="lightgray">wff ps</text>
</g>
<!-- n19474&#45;&gt;n19475 -->
<g id="edge10" class="edge"><title>n19474&#45;&gt;n19475</title>
<path fill="none" stroke="black" d="M210.354,-18.4788C263.835,-21.1113 358.162,-32.8834 420.193,-81 437.528,-94.447 448.915,-116.721 455.753,-134.512"/>
<polygon fill="black" stroke="black" points="452.611,-136.122 459.264,-144.368 459.205,-133.773 452.611,-136.122"/>
<text text-anchor="middle" x="324.193" y="-84.8" font-family="Times New Roman,serif" font-size="14.00">|&#45; ( ( ph /\ ps ) &#45;&gt; ch )</text>
</g>
</g>
</svg>
