<?xml version="1.0" encoding="UTF-8" standalone="no"?>
<!DOCTYPE svg PUBLIC "-//W3C//DTD SVG 1.1//EN"
 "http://www.w3.org/Graphics/SVG/1.1/DTD/svg11.dtd">
<!-- Generated by graphviz version 2.38.0 (20140413.2041)
 -->
<!-- Title: proof_3anan32 Pages: 1 -->
<svg width="901pt" height="405pt"
 viewBox="0.00 0.00 901.39 405.00" xmlns="http://www.w3.org/2000/svg" xmlns:xlink="http://www.w3.org/1999/xlink">
<g id="graph0" class="graph" transform="scale(1 1) rotate(0) translate(4 401)">
<title>proof_3anan32</title>
<polygon fill="white" stroke="none" points="-4,4 -4,-401 897.389,-401 897.389,4 -4,4"/>
<!-- n18938 -->
<g id="node1" class="node"><title>n18938</title>
</g>
<!-- n18957 -->
<g id="node2" class="node"><title>n18957</title>
<ellipse fill="cyan" stroke="black" cx="523.894" cy="-234" rx="27" ry="18"/>
<text text-anchor="middle" x="523.894" y="-230.3" font-family="Times New Roman,serif" font-size="14.00">bitri</text>
</g>
<!-- n18938&#45;&gt;n18957 -->
<g id="edge1" class="edge"><title>n18938&#45;&gt;n18957</title>
<path fill="none" stroke="lightgray" d="M188.383,-380.459C246.538,-384.57 389.266,-386.674 478.894,-320 497.942,-305.83 509.379,-281.035 515.796,-261.698"/>
<polygon fill="lightgray" stroke="lightgray" points="519.217,-262.48 518.786,-251.894 512.521,-260.439 519.217,-262.48"/>
<text text-anchor="middle" x="346.394" y="-385.8" font-family="Times New Roman,serif" font-size="14.00" fill="lightgray">wff ( ph /\ ps /\ ch )</text>
</g>
<!-- n18943 -->
<g id="node3" class="node"><title>n18943</title>
</g>
<!-- n18938&#45;&gt;n18943 -->
<g id="edge12" class="edge"><title>n18938&#45;&gt;n18943</title>
</g>
<!-- QED -->
<g id="node10" class="node"><title>QED</title>
</g>
<!-- n18957&#45;&gt;QED -->
<g id="edge11" class="edge"><title>n18957&#45;&gt;QED</title>
<path fill="none" stroke="black" d="M551.154,-234C610.506,-234 755.215,-234 824.685,-234"/>
<polygon fill="black" stroke="black" points="824.768,-237.5 834.768,-234 824.768,-230.5 824.768,-237.5"/>
<text text-anchor="middle" x="692.894" y="-237.8" font-family="Times New Roman,serif" font-size="14.00">|&#45; ( ( ph /\ ps /\ ch ) &lt;&#45;&gt; ( ( ph /\ ch ) /\ ps ) )</text>
</g>
<!-- n18943&#45;&gt;n18957 -->
<g id="edge2" class="edge"><title>n18943&#45;&gt;n18957</title>
<path fill="none" stroke="lightgray" d="M188.352,-303.799C242.985,-298.694 373.639,-284.042 478.894,-253 483.231,-251.721 487.709,-250.129 492.074,-248.414"/>
<polygon fill="lightgray" stroke="lightgray" points="493.47,-251.624 501.347,-244.538 490.771,-245.165 493.47,-251.624"/>
<text text-anchor="middle" x="346.394" y="-304.8" font-family="Times New Roman,serif" font-size="14.00" fill="lightgray">wff ( ( ph /\ ps ) /\ ch )</text>
</g>
<!-- n18948 -->
<g id="node4" class="node"><title>n18948</title>
</g>
<!-- n18943&#45;&gt;n18948 -->
<g id="edge13" class="edge"><title>n18943&#45;&gt;n18948</title>
</g>
<!-- n18948&#45;&gt;n18957 -->
<g id="edge3" class="edge"><title>n18948&#45;&gt;n18957</title>
<path fill="none" stroke="lightgray" d="M188.66,-234C252.122,-234 414.13,-234 486.738,-234"/>
<polygon fill="lightgray" stroke="lightgray" points="486.779,-237.5 496.779,-234 486.779,-230.5 486.779,-237.5"/>
<text text-anchor="middle" x="346.394" y="-237.8" font-family="Times New Roman,serif" font-size="14.00" fill="lightgray">wff ( ( ph /\ ch ) /\ ps )</text>
</g>
<!-- n18952 -->
<g id="node5" class="node"><title>n18952</title>
</g>
<!-- n18948&#45;&gt;n18952 -->
<g id="edge14" class="edge"><title>n18948&#45;&gt;n18952</title>
</g>
<!-- n18952&#45;&gt;n18957 -->
<g id="edge4" class="edge"><title>n18952&#45;&gt;n18957</title>
<path fill="none" stroke="lightgray" d="M195.84,-164.916C254.212,-170.601 378.181,-185.298 478.894,-215 483.231,-216.279 487.709,-217.871 492.074,-219.586"/>
<polygon fill="lightgray" stroke="lightgray" points="490.771,-222.835 501.347,-223.462 493.47,-216.376 490.771,-222.835"/>
<text text-anchor="middle" x="346.394" y="-218.8" font-family="Times New Roman,serif" font-size="14.00" fill="lightgray">|&#45; ( ( ph /\ ps /\ ch ) &lt;&#45;&gt; ( ( ph /\ ps ) /\ ch ) )</text>
</g>
<!-- n18956 -->
<g id="node7" class="node"><title>n18956</title>
<ellipse fill="cyan" stroke="black" cx="161.447" cy="-90" rx="27.8951" ry="18"/>
<text text-anchor="middle" x="161.447" y="-86.3" font-family="Times New Roman,serif" font-size="14.00">an32</text>
</g>
<!-- n18952&#45;&gt;n18956 -->
<g id="edge15" class="edge"><title>n18952&#45;&gt;n18956</title>
</g>
<!-- n18953 -->
<g id="node6" class="node"><title>n18953</title>
</g>
<!-- n18953&#45;&gt;n18956 -->
<g id="edge5" class="edge"><title>n18953&#45;&gt;n18956</title>
<path fill="none" stroke="lightgray" d="M48.4046,-150.908C70.2813,-139.015 105.243,-120.01 130.294,-106.392"/>
<polygon fill="lightgray" stroke="lightgray" points="132.248,-109.313 139.362,-101.462 128.905,-103.163 132.248,-109.313"/>
<text text-anchor="middle" x="90.5" y="-140.8" font-family="Times New Roman,serif" font-size="14.00" fill="lightgray">wff ph</text>
</g>
<!-- n18954 -->
<g id="node8" class="node"><title>n18954</title>
</g>
<!-- n18953&#45;&gt;n18954 -->
<g id="edge9" class="edge"><title>n18953&#45;&gt;n18954</title>
</g>
<!-- n18956&#45;&gt;n18957 -->
<g id="edge8" class="edge"><title>n18956&#45;&gt;n18957</title>
<path fill="none" stroke="black" d="M189.262,-87.4791C247.964,-83.4105 389.714,-81.6595 478.894,-148 497.942,-162.17 509.379,-186.965 515.796,-206.302"/>
<polygon fill="black" stroke="black" points="512.521,-207.561 518.786,-216.106 519.217,-205.52 512.521,-207.561"/>
<text text-anchor="middle" x="346.394" y="-151.8" font-family="Times New Roman,serif" font-size="14.00">|&#45; ( ( ( ph /\ ps ) /\ ch ) &lt;&#45;&gt; ( ( ph /\ ch ) /\ ps ) )</text>
</g>
<!-- n18954&#45;&gt;n18956 -->
<g id="edge6" class="edge"><title>n18954&#45;&gt;n18956</title>
<path fill="none" stroke="lightgray" d="M54.1673,-90C73.9521,-90 101.378,-90 123.413,-90"/>
<polygon fill="lightgray" stroke="lightgray" points="123.425,-93.5001 133.425,-90 123.425,-86.5001 123.425,-93.5001"/>
<text text-anchor="middle" x="90.5" y="-93.8" font-family="Times New Roman,serif" font-size="14.00" fill="lightgray">wff ps</text>
</g>
<!-- n18955 -->
<g id="node9" class="node"><title>n18955</title>
</g>
<!-- n18954&#45;&gt;n18955 -->
<g id="edge10" class="edge"><title>n18954&#45;&gt;n18955</title>
</g>
<!-- n18955&#45;&gt;n18956 -->
<g id="edge7" class="edge"><title>n18955&#45;&gt;n18956</title>
<path fill="none" stroke="lightgray" d="M48.4046,-29.0922C70.2813,-40.9847 105.243,-59.9902 130.294,-73.6084"/>
<polygon fill="lightgray" stroke="lightgray" points="128.905,-76.8368 139.362,-78.5379 132.248,-70.6868 128.905,-76.8368"/>
<text text-anchor="middle" x="90.5" y="-64.8" font-family="Times New Roman,serif" font-size="14.00" fill="lightgray">wff ch</text>
</g>
</g>
</svg>
