<?xml version="1.0" encoding="UTF-8" standalone="no"?>
<!DOCTYPE svg PUBLIC "-//W3C//DTD SVG 1.1//EN"
 "http://www.w3.org/Graphics/SVG/1.1/DTD/svg11.dtd">
<!-- Generated by graphviz version 2.38.0 (20140413.2041)
 -->
<!-- Title: proof_3ancoma Pages: 1 -->
<svg width="1180pt" height="734pt"
 viewBox="0.00 0.00 1180.18 734.00" xmlns="http://www.w3.org/2000/svg" xmlns:xlink="http://www.w3.org/1999/xlink">
<g id="graph0" class="graph" transform="scale(1 1) rotate(0) translate(4 730)">
<title>proof_3ancoma</title>
<polygon fill="white" stroke="none" points="-4,4 -4,-730 1176.18,-730 1176.18,4 -4,4"/>
<!-- n18790 -->
<g id="node1" class="node"><title>n18790</title>
</g>
<!-- n18823 -->
<g id="node2" class="node"><title>n18823</title>
<ellipse fill="cyan" stroke="black" cx="811.885" cy="-486" rx="33.5952" ry="18"/>
<text text-anchor="middle" x="811.885" y="-482.3" font-family="Times New Roman,serif" font-size="14.00">3bitr4i</text>
</g>
<!-- n18790&#45;&gt;n18823 -->
<g id="edge1" class="edge"><title>n18790&#45;&gt;n18823</title>
<path fill="none" stroke="lightgray" d="M469.059,-705.953C528.019,-713.592 675.498,-723.691 760.088,-650 799.567,-615.608 808.784,-551.197 810.681,-514.156"/>
<polygon fill="lightgray" stroke="lightgray" points="814.183,-514.164 811.051,-504.043 807.187,-513.908 814.183,-514.164"/>
<text text-anchor="middle" x="627.588" y="-714.8" font-family="Times New Roman,serif" font-size="14.00" fill="lightgray">wff ( ( ph /\ ps ) /\ ch )</text>
</g>
<!-- n18795 -->
<g id="node3" class="node"><title>n18795</title>
</g>
<!-- n18790&#45;&gt;n18795 -->
<g id="edge29" class="edge"><title>n18790&#45;&gt;n18795</title>
</g>
<!-- QED -->
<g id="node21" class="node"><title>QED</title>
</g>
<!-- n18823&#45;&gt;QED -->
<g id="edge28" class="edge"><title>n18823&#45;&gt;QED</title>
<path fill="none" stroke="black" d="M845.941,-486C907.229,-486 1038.17,-486 1103.38,-486"/>
<polygon fill="black" stroke="black" points="1103.63,-489.5 1113.63,-486 1103.63,-482.5 1103.63,-489.5"/>
<text text-anchor="middle" x="979.682" y="-489.8" font-family="Times New Roman,serif" font-size="14.00">|&#45; ( ( ph /\ ps /\ ch ) &lt;&#45;&gt; ( ps /\ ph /\ ch ) )</text>
</g>
<!-- n18795&#45;&gt;n18823 -->
<g id="edge2" class="edge"><title>n18795&#45;&gt;n18823</title>
<path fill="none" stroke="lightgray" d="M469.709,-631.957C527.521,-634.952 668.591,-634.708 760.088,-571 780.151,-557.03 793.599,-532.351 801.59,-513.171"/>
<polygon fill="lightgray" stroke="lightgray" points="804.9,-514.317 805.278,-503.729 798.38,-511.77 804.9,-514.317"/>
<text text-anchor="middle" x="627.588" y="-635.8" font-family="Times New Roman,serif" font-size="14.00" fill="lightgray">wff ( ( ps /\ ph ) /\ ch )</text>
</g>
<!-- n18799 -->
<g id="node4" class="node"><title>n18799</title>
</g>
<!-- n18795&#45;&gt;n18799 -->
<g id="edge30" class="edge"><title>n18795&#45;&gt;n18799</title>
</g>
<!-- n18799&#45;&gt;n18823 -->
<g id="edge3" class="edge"><title>n18799&#45;&gt;n18823</title>
<path fill="none" stroke="lightgray" d="M469.428,-555.38C523.838,-549.484 654.094,-533.416 760.088,-505 765.075,-503.663 770.257,-502.027 775.322,-500.281"/>
<polygon fill="lightgray" stroke="lightgray" points="776.621,-503.533 784.833,-496.838 774.239,-496.951 776.621,-503.533"/>
<text text-anchor="middle" x="627.588" y="-555.8" font-family="Times New Roman,serif" font-size="14.00" fill="lightgray">wff ( ph /\ ps /\ ch )</text>
</g>
<!-- n18803 -->
<g id="node5" class="node"><title>n18803</title>
</g>
<!-- n18799&#45;&gt;n18803 -->
<g id="edge31" class="edge"><title>n18799&#45;&gt;n18803</title>
</g>
<!-- n18803&#45;&gt;n18823 -->
<g id="edge4" class="edge"><title>n18803&#45;&gt;n18823</title>
<path fill="none" stroke="lightgray" d="M469.758,-486C532.204,-486 690.667,-486 767.625,-486"/>
<polygon fill="lightgray" stroke="lightgray" points="767.925,-489.5 777.925,-486 767.925,-482.5 767.925,-489.5"/>
<text text-anchor="middle" x="627.588" y="-489.8" font-family="Times New Roman,serif" font-size="14.00" fill="lightgray">wff ( ps /\ ph /\ ch )</text>
</g>
<!-- n18814 -->
<g id="node7" class="node"><title>n18814</title>
<ellipse fill="cyan" stroke="black" cx="442.641" cy="-414" rx="32.4942" ry="18"/>
<text text-anchor="middle" x="442.641" y="-410.3" font-family="Times New Roman,serif" font-size="14.00">anbi1i</text>
</g>
<!-- n18803&#45;&gt;n18814 -->
<g id="edge32" class="edge"><title>n18803&#45;&gt;n18814</title>
</g>
<!-- n18806 -->
<g id="node6" class="node"><title>n18806</title>
</g>
<!-- n18806&#45;&gt;n18814 -->
<g id="edge5" class="edge"><title>n18806&#45;&gt;n18814</title>
<path fill="none" stroke="lightgray" d="M189.077,-631.908C236.645,-633.843 337.662,-630.446 390.194,-573 424.809,-535.146 388.319,-506.287 408.194,-459 411.254,-451.72 415.733,-444.535 420.425,-438.116"/>
<polygon fill="lightgray" stroke="lightgray" points="423.444,-439.936 426.841,-429.9 417.928,-435.627 423.444,-439.936"/>
<text text-anchor="middle" x="302.694" y="-635.8" font-family="Times New Roman,serif" font-size="14.00" fill="lightgray">wff ( ph /\ ps )</text>
</g>
<!-- n18809 -->
<g id="node8" class="node"><title>n18809</title>
</g>
<!-- n18806&#45;&gt;n18809 -->
<g id="edge13" class="edge"><title>n18806&#45;&gt;n18809</title>
</g>
<!-- n18814&#45;&gt;n18823 -->
<g id="edge12" class="edge"><title>n18814&#45;&gt;n18823</title>
<path fill="none" stroke="black" d="M475.058,-417.237C532.407,-423.59 657.591,-439.521 760.088,-467 765.075,-468.337 770.257,-469.973 775.322,-471.719"/>
<polygon fill="black" stroke="black" points="774.239,-475.049 784.833,-475.162 776.621,-468.467 774.239,-475.049"/>
<text text-anchor="middle" x="627.588" y="-470.8" font-family="Times New Roman,serif" font-size="14.00">|&#45; ( ( ( ph /\ ps ) /\ ch ) &lt;&#45;&gt; ( ( ps /\ ph ) /\ ch ) )</text>
</g>
<!-- n18818 -->
<g id="node14" class="node"><title>n18818</title>
<ellipse fill="lawngreen" stroke="black" cx="442.641" cy="-319" rx="34.394" ry="18"/>
<text text-anchor="middle" x="442.641" y="-315.3" font-family="Times New Roman,serif" font-size="14.00">df&#45;3an</text>
</g>
<!-- n18814&#45;&gt;n18818 -->
<g id="edge33" class="edge"><title>n18814&#45;&gt;n18818</title>
</g>
<!-- n18809&#45;&gt;n18814 -->
<g id="edge6" class="edge"><title>n18809&#45;&gt;n18814</title>
<path fill="none" stroke="lightgray" d="M189.25,-557.005C234.9,-553.981 329.99,-541.817 390.194,-493 403.474,-482.231 399.068,-473.459 408.194,-459 412.48,-452.209 417.478,-445.121 422.282,-438.634"/>
<polygon fill="lightgray" stroke="lightgray" points="425.388,-440.33 428.63,-430.243 419.806,-436.106 425.388,-440.33"/>
<text text-anchor="middle" x="302.694" y="-557.8" font-family="Times New Roman,serif" font-size="14.00" fill="lightgray">wff ( ps /\ ph )</text>
</g>
<!-- n18810 -->
<g id="node9" class="node"><title>n18810</title>
</g>
<!-- n18809&#45;&gt;n18810 -->
<g id="edge14" class="edge"><title>n18809&#45;&gt;n18810</title>
</g>
<!-- n18810&#45;&gt;n18814 -->
<g id="edge7" class="edge"><title>n18810&#45;&gt;n18814</title>
<path fill="none" stroke="lightgray" d="M188.232,-481.201C230.398,-472.912 317.873,-454.702 390.194,-433 395.438,-431.426 400.921,-429.601 406.272,-427.717"/>
<polygon fill="lightgray" stroke="lightgray" points="407.475,-431.004 415.681,-424.302 405.087,-424.424 407.475,-431.004"/>
<text text-anchor="middle" x="302.694" y="-477.8" font-family="Times New Roman,serif" font-size="14.00" fill="lightgray">wff ch</text>
</g>
<!-- n18813 -->
<g id="node11" class="node"><title>n18813</title>
<ellipse fill="cyan" stroke="black" cx="162.097" cy="-414" rx="35.194" ry="18"/>
<text text-anchor="middle" x="162.097" y="-410.3" font-family="Times New Roman,serif" font-size="14.00">ancom</text>
</g>
<!-- n18810&#45;&gt;n18813 -->
<g id="edge15" class="edge"><title>n18810&#45;&gt;n18813</title>
</g>
<!-- n18811 -->
<g id="node10" class="node"><title>n18811</title>
</g>
<!-- n18811&#45;&gt;n18813 -->
<g id="edge8" class="edge"><title>n18811&#45;&gt;n18813</title>
<path fill="none" stroke="lightgray" d="M51.4887,-451.058C71.2091,-444.391 99.7702,-434.735 122.793,-426.95"/>
<polygon fill="lightgray" stroke="lightgray" points="123.927,-430.262 132.28,-423.743 121.685,-423.63 123.927,-430.262"/>
<text text-anchor="middle" x="90.5" y="-447.8" font-family="Times New Roman,serif" font-size="14.00" fill="lightgray">wff ph</text>
</g>
<!-- n18812 -->
<g id="node12" class="node"><title>n18812</title>
</g>
<!-- n18811&#45;&gt;n18812 -->
<g id="edge11" class="edge"><title>n18811&#45;&gt;n18812</title>
</g>
<!-- n18813&#45;&gt;n18814 -->
<g id="edge10" class="edge"><title>n18813&#45;&gt;n18814</title>
<path fill="none" stroke="black" d="M197.252,-414C248.294,-414 344.371,-414 399.636,-414"/>
<polygon fill="black" stroke="black" points="399.79,-417.5 409.79,-414 399.79,-410.5 399.79,-417.5"/>
<text text-anchor="middle" x="302.694" y="-417.8" font-family="Times New Roman,serif" font-size="14.00">|&#45; ( ( ph /\ ps ) &lt;&#45;&gt; ( ps /\ ph ) )</text>
</g>
<!-- n18812&#45;&gt;n18813 -->
<g id="edge9" class="edge"><title>n18812&#45;&gt;n18813</title>
<path fill="none" stroke="lightgray" d="M53.0345,-392.078C71.6266,-395.85 97.4164,-401.082 119.139,-405.488"/>
<polygon fill="lightgray" stroke="lightgray" points="118.612,-408.953 129.108,-407.511 120.004,-402.093 118.612,-408.953"/>
<text text-anchor="middle" x="90.5" y="-406.8" font-family="Times New Roman,serif" font-size="14.00" fill="lightgray">wff ps</text>
</g>
<!-- n18815 -->
<g id="node13" class="node"><title>n18815</title>
</g>
<!-- n18815&#45;&gt;n18818 -->
<g id="edge16" class="edge"><title>n18815&#45;&gt;n18818</title>
<path fill="none" stroke="lightgray" d="M189.082,-357.246C231.382,-352.611 317.694,-342.519 390.194,-330 393.628,-329.407 397.181,-328.746 400.742,-328.052"/>
<polygon fill="lightgray" stroke="lightgray" points="401.6,-331.449 410.704,-326.03 400.208,-324.589 401.6,-331.449"/>
<text text-anchor="middle" x="302.694" y="-357.8" font-family="Times New Roman,serif" font-size="14.00" fill="lightgray">wff ph</text>
</g>
<!-- n18816 -->
<g id="node15" class="node"><title>n18816</title>
</g>
<!-- n18815&#45;&gt;n18816 -->
<g id="edge20" class="edge"><title>n18815&#45;&gt;n18816</title>
</g>
<!-- n18818&#45;&gt;n18823 -->
<g id="edge19" class="edge"><title>n18818&#45;&gt;n18823</title>
<path fill="none" stroke="black" d="M477.216,-319.585C539.178,-322.284 673.099,-335.848 760.088,-401 779.538,-415.568 792.997,-439.965 801.15,-458.894"/>
<polygon fill="black" stroke="black" points="797.929,-460.264 804.933,-468.213 804.415,-457.631 797.929,-460.264"/>
<text text-anchor="middle" x="627.588" y="-404.8" font-family="Times New Roman,serif" font-size="14.00">|&#45; ( ( ph /\ ps /\ ch ) &lt;&#45;&gt; ( ( ph /\ ps ) /\ ch ) )</text>
</g>
<!-- n18822 -->
<g id="node18" class="node"><title>n18822</title>
<ellipse fill="lawngreen" stroke="black" cx="442.641" cy="-162" rx="34.394" ry="18"/>
<text text-anchor="middle" x="442.641" y="-158.3" font-family="Times New Roman,serif" font-size="14.00">df&#45;3an</text>
</g>
<!-- n18818&#45;&gt;n18822 -->
<g id="edge34" class="edge"><title>n18818&#45;&gt;n18822</title>
</g>
<!-- n18816&#45;&gt;n18818 -->
<g id="edge17" class="edge"><title>n18816&#45;&gt;n18818</title>
<path fill="none" stroke="lightgray" d="M188.802,-290.861C236.701,-296.192 340.051,-307.694 398.706,-314.222"/>
<polygon fill="lightgray" stroke="lightgray" points="398.44,-317.714 408.766,-315.341 399.215,-310.757 398.44,-317.714"/>
<text text-anchor="middle" x="302.694" y="-317.8" font-family="Times New Roman,serif" font-size="14.00" fill="lightgray">wff ps</text>
</g>
<!-- n18817 -->
<g id="node16" class="node"><title>n18817</title>
</g>
<!-- n18816&#45;&gt;n18817 -->
<g id="edge21" class="edge"><title>n18816&#45;&gt;n18817</title>
</g>
<!-- n18817&#45;&gt;n18818 -->
<g id="edge18" class="edge"><title>n18817&#45;&gt;n18818</title>
<path fill="none" stroke="lightgray" d="M188.978,-218.869C232.612,-224.525 322.657,-239.766 390.194,-275 400.459,-280.355 410.443,-288.105 418.841,-295.613"/>
<polygon fill="lightgray" stroke="lightgray" points="416.671,-298.376 426.365,-302.651 421.453,-293.264 416.671,-298.376"/>
<text text-anchor="middle" x="302.694" y="-278.8" font-family="Times New Roman,serif" font-size="14.00" fill="lightgray">wff ch</text>
</g>
<!-- n18819 -->
<g id="node17" class="node"><title>n18819</title>
</g>
<!-- n18819&#45;&gt;n18822 -->
<g id="edge22" class="edge"><title>n18819&#45;&gt;n18822</title>
<path fill="none" stroke="lightgray" d="M189.302,-162C237.211,-162 339.381,-162 397.958,-162"/>
<polygon fill="lightgray" stroke="lightgray" points="398.017,-165.5 408.017,-162 398.017,-158.5 398.017,-165.5"/>
<text text-anchor="middle" x="302.694" y="-165.8" font-family="Times New Roman,serif" font-size="14.00" fill="lightgray">wff ps</text>
</g>
<!-- n18820 -->
<g id="node19" class="node"><title>n18820</title>
</g>
<!-- n18819&#45;&gt;n18820 -->
<g id="edge26" class="edge"><title>n18819&#45;&gt;n18820</title>
</g>
<!-- n18822&#45;&gt;n18823 -->
<g id="edge25" class="edge"><title>n18822&#45;&gt;n18823</title>
<path fill="none" stroke="black" d="M475.946,-166.95C540.013,-178.498 683.566,-213.299 760.088,-302 798.672,-346.725 808.152,-418.369 810.351,-457.764"/>
<polygon fill="black" stroke="black" points="806.864,-458.134 810.797,-467.972 813.857,-457.829 806.864,-458.134"/>
<text text-anchor="middle" x="627.588" y="-305.8" font-family="Times New Roman,serif" font-size="14.00">|&#45; ( ( ps /\ ph /\ ch ) &lt;&#45;&gt; ( ( ps /\ ph ) /\ ch ) )</text>
</g>
<!-- n18820&#45;&gt;n18822 -->
<g id="edge23" class="edge"><title>n18820&#45;&gt;n18822</title>
<path fill="none" stroke="lightgray" d="M188.232,-94.7994C230.398,-103.088 317.873,-121.298 390.194,-143 395.084,-144.467 400.183,-146.154 405.189,-147.903"/>
<polygon fill="lightgray" stroke="lightgray" points="404.026,-151.204 414.621,-151.303 406.4,-144.619 404.026,-151.204"/>
<text text-anchor="middle" x="302.694" y="-146.8" font-family="Times New Roman,serif" font-size="14.00" fill="lightgray">wff ph</text>
</g>
<!-- n18821 -->
<g id="node20" class="node"><title>n18821</title>
</g>
<!-- n18820&#45;&gt;n18821 -->
<g id="edge27" class="edge"><title>n18820&#45;&gt;n18821</title>
</g>
<!-- n18821&#45;&gt;n18822 -->
<g id="edge24" class="edge"><title>n18821&#45;&gt;n18822</title>
<path fill="none" stroke="lightgray" d="M189.167,-19.595C234.276,-23.539 328.012,-37.073 390.194,-83 408.189,-96.2915 421.635,-117.911 430.259,-135.177"/>
<polygon fill="lightgray" stroke="lightgray" points="427.108,-136.701 434.552,-144.24 433.434,-133.704 427.108,-136.701"/>
<text text-anchor="middle" x="302.694" y="-86.8" font-family="Times New Roman,serif" font-size="14.00" fill="lightgray">wff ch</text>
</g>
</g>
</svg>
