<?xml version="1.0" encoding="UTF-8" standalone="no"?>
<!DOCTYPE svg PUBLIC "-//W3C//DTD SVG 1.1//EN"
 "http://www.w3.org/Graphics/SVG/1.1/DTD/svg11.dtd">
<!-- Generated by graphviz version 2.38.0 (20140413.2041)
 -->
<!-- Title: proof_3ancoma Pages: 1 -->
<svg width="1180pt" height="482pt"
 viewBox="0.00 0.00 1180.18 482.00" xmlns="http://www.w3.org/2000/svg" xmlns:xlink="http://www.w3.org/1999/xlink">
<g id="graph0" class="graph" transform="scale(1 1) rotate(0) translate(4 478)">
<title>proof_3ancoma</title>
<polygon fill="white" stroke="none" points="-4,4 -4,-478 1176.18,-478 1176.18,4 -4,4"/>
<!-- n18790 -->
<g id="node1" class="node"><title>n18790</title>
</g>
<!-- n18823 -->
<g id="node2" class="node"><title>n18823</title>
<ellipse fill="cyan" stroke="black" cx="811.885" cy="-234" rx="33.5952" ry="18"/>
<text text-anchor="middle" x="811.885" y="-230.3" font-family="Times New Roman,serif" font-size="14.00">3bitr4i</text>
</g>
<!-- n18790&#45;&gt;n18823 -->
<g id="edge1" class="edge"><title>n18790&#45;&gt;n18823</title>
<path fill="none" stroke="lightgray" d="M469.059,-453.953C528.019,-461.592 675.498,-471.691 760.088,-398 799.567,-363.608 808.784,-299.197 810.681,-262.156"/>
<polygon fill="lightgray" stroke="lightgray" points="814.183,-262.164 811.051,-252.043 807.187,-261.908 814.183,-262.164"/>
<text text-anchor="middle" x="627.588" y="-462.8" font-family="Times New Roman,serif" font-size="14.00" fill="lightgray">wff ( ( ph /\ ps ) /\ ch )</text>
</g>
<!-- n18795 -->
<g id="node3" class="node"><title>n18795</title>
</g>
<!-- n18790&#45;&gt;n18795 -->
<g id="edge19" class="edge"><title>n18790&#45;&gt;n18795</title>
</g>
<!-- QED -->
<g id="node15" class="node"><title>QED</title>
</g>
<!-- n18823&#45;&gt;QED -->
<g id="edge18" class="edge"><title>n18823&#45;&gt;QED</title>
<path fill="none" stroke="black" d="M845.941,-234C907.229,-234 1038.17,-234 1103.38,-234"/>
<polygon fill="black" stroke="black" points="1103.63,-237.5 1113.63,-234 1103.63,-230.5 1103.63,-237.5"/>
<text text-anchor="middle" x="979.682" y="-237.8" font-family="Times New Roman,serif" font-size="14.00">|&#45; ( ( ph /\ ps /\ ch ) &lt;&#45;&gt; ( ps /\ ph /\ ch ) )</text>
</g>
<!-- n18795&#45;&gt;n18823 -->
<g id="edge2" class="edge"><title>n18795&#45;&gt;n18823</title>
<path fill="none" stroke="lightgray" d="M469.709,-379.957C527.521,-382.952 668.591,-382.708 760.088,-319 780.151,-305.03 793.599,-280.351 801.59,-261.171"/>
<polygon fill="lightgray" stroke="lightgray" points="804.9,-262.317 805.278,-251.729 798.38,-259.77 804.9,-262.317"/>
<text text-anchor="middle" x="627.588" y="-383.8" font-family="Times New Roman,serif" font-size="14.00" fill="lightgray">wff ( ( ps /\ ph ) /\ ch )</text>
</g>
<!-- n18799 -->
<g id="node4" class="node"><title>n18799</title>
</g>
<!-- n18795&#45;&gt;n18799 -->
<g id="edge20" class="edge"><title>n18795&#45;&gt;n18799</title>
</g>
<!-- n18799&#45;&gt;n18823 -->
<g id="edge3" class="edge"><title>n18799&#45;&gt;n18823</title>
<path fill="none" stroke="lightgray" d="M469.428,-303.38C523.838,-297.484 654.094,-281.416 760.088,-253 765.075,-251.663 770.257,-250.027 775.322,-248.281"/>
<polygon fill="lightgray" stroke="lightgray" points="776.621,-251.533 784.833,-244.838 774.239,-244.951 776.621,-251.533"/>
<text text-anchor="middle" x="627.588" y="-303.8" font-family="Times New Roman,serif" font-size="14.00" fill="lightgray">wff ( ph /\ ps /\ ch )</text>
</g>
<!-- n18803 -->
<g id="node5" class="node"><title>n18803</title>
</g>
<!-- n18799&#45;&gt;n18803 -->
<g id="edge21" class="edge"><title>n18799&#45;&gt;n18803</title>
</g>
<!-- n18803&#45;&gt;n18823 -->
<g id="edge4" class="edge"><title>n18803&#45;&gt;n18823</title>
<path fill="none" stroke="lightgray" d="M469.758,-234C532.204,-234 690.667,-234 767.625,-234"/>
<polygon fill="lightgray" stroke="lightgray" points="767.925,-237.5 777.925,-234 767.925,-230.5 767.925,-237.5"/>
<text text-anchor="middle" x="627.588" y="-237.8" font-family="Times New Roman,serif" font-size="14.00" fill="lightgray">wff ( ps /\ ph /\ ch )</text>
</g>
<!-- n18814 -->
<g id="node7" class="node"><title>n18814</title>
<ellipse fill="cyan" stroke="black" cx="442.641" cy="-162" rx="32.4942" ry="18"/>
<text text-anchor="middle" x="442.641" y="-158.3" font-family="Times New Roman,serif" font-size="14.00">anbi1i</text>
</g>
<!-- n18803&#45;&gt;n18814 -->
<g id="edge22" class="edge"><title>n18803&#45;&gt;n18814</title>
</g>
<!-- n18806 -->
<g id="node6" class="node"><title>n18806</title>
</g>
<!-- n18806&#45;&gt;n18814 -->
<g id="edge5" class="edge"><title>n18806&#45;&gt;n18814</title>
<path fill="none" stroke="lightgray" d="M189.219,-277.356C233.6,-273.52 325.223,-261.001 390.194,-221 403.976,-212.514 416.069,-199.155 425.062,-187.293"/>
<polygon fill="lightgray" stroke="lightgray" points="428.026,-189.168 431.042,-179.012 422.35,-185.07 428.026,-189.168"/>
<text text-anchor="middle" x="302.694" y="-278.8" font-family="Times New Roman,serif" font-size="14.00" fill="lightgray">wff ( ph /\ ps )</text>
</g>
<!-- n18809 -->
<g id="node8" class="node"><title>n18809</title>
</g>
<!-- n18806&#45;&gt;n18809 -->
<g id="edge13" class="edge"><title>n18806&#45;&gt;n18809</title>
</g>
<!-- n18814&#45;&gt;n18823 -->
<g id="edge12" class="edge"><title>n18814&#45;&gt;n18823</title>
<path fill="none" stroke="black" d="M475.058,-165.237C532.407,-171.59 657.591,-187.521 760.088,-215 765.075,-216.337 770.257,-217.973 775.322,-219.719"/>
<polygon fill="black" stroke="black" points="774.239,-223.049 784.833,-223.162 776.621,-216.467 774.239,-223.049"/>
<text text-anchor="middle" x="627.588" y="-218.8" font-family="Times New Roman,serif" font-size="14.00">|&#45; ( ( ( ph /\ ps ) /\ ch ) &lt;&#45;&gt; ( ( ps /\ ph ) /\ ch ) )</text>
</g>
<!-- n18818 -->
<g id="node13" class="node"><title>n18818</title>
</g>
<!-- n18814&#45;&gt;n18818 -->
<g id="edge23" class="edge"><title>n18814&#45;&gt;n18818</title>
</g>
<!-- n18809&#45;&gt;n18814 -->
<g id="edge6" class="edge"><title>n18809&#45;&gt;n18814</title>
<path fill="none" stroke="lightgray" d="M189.166,-204.555C231.582,-200.329 318.056,-190.674 390.194,-176 394.651,-175.093 399.293,-174.019 403.884,-172.874"/>
<polygon fill="lightgray" stroke="lightgray" points="404.972,-176.208 413.763,-170.295 403.203,-169.435 404.972,-176.208"/>
<text text-anchor="middle" x="302.694" y="-205.8" font-family="Times New Roman,serif" font-size="14.00" fill="lightgray">wff ( ps /\ ph )</text>
</g>
<!-- n18810 -->
<g id="node9" class="node"><title>n18810</title>
</g>
<!-- n18809&#45;&gt;n18810 -->
<g id="edge14" class="edge"><title>n18809&#45;&gt;n18810</title>
</g>
<!-- n18810&#45;&gt;n18814 -->
<g id="edge7" class="edge"><title>n18810&#45;&gt;n18814</title>
<path fill="none" stroke="lightgray" d="M189.051,-137.516C237.466,-142.209 341.907,-152.333 400.188,-157.982"/>
<polygon fill="lightgray" stroke="lightgray" points="399.873,-161.468 410.164,-158.949 400.549,-154.5 399.873,-161.468"/>
<text text-anchor="middle" x="302.694" y="-160.8" font-family="Times New Roman,serif" font-size="14.00" fill="lightgray">wff ch</text>
</g>
<!-- n18813 -->
<g id="node11" class="node"><title>n18813</title>
<ellipse fill="cyan" stroke="black" cx="162.097" cy="-63" rx="35.194" ry="18"/>
<text text-anchor="middle" x="162.097" y="-59.3" font-family="Times New Roman,serif" font-size="14.00">ancom</text>
</g>
<!-- n18810&#45;&gt;n18813 -->
<g id="edge15" class="edge"><title>n18810&#45;&gt;n18813</title>
</g>
<!-- n18811 -->
<g id="node10" class="node"><title>n18811</title>
</g>
<!-- n18811&#45;&gt;n18813 -->
<g id="edge8" class="edge"><title>n18811&#45;&gt;n18813</title>
<path fill="none" stroke="lightgray" d="M51.4887,-100.058C71.2091,-93.391 99.7702,-83.7345 122.793,-75.9504"/>
<polygon fill="lightgray" stroke="lightgray" points="123.927,-79.2617 132.28,-72.7431 121.685,-72.6304 123.927,-79.2617"/>
<text text-anchor="middle" x="90.5" y="-96.8" font-family="Times New Roman,serif" font-size="14.00" fill="lightgray">wff ph</text>
</g>
<!-- n18812 -->
<g id="node12" class="node"><title>n18812</title>
</g>
<!-- n18811&#45;&gt;n18812 -->
<g id="edge11" class="edge"><title>n18811&#45;&gt;n18812</title>
</g>
<!-- n18813&#45;&gt;n18814 -->
<g id="edge10" class="edge"><title>n18813&#45;&gt;n18814</title>
<path fill="none" stroke="black" d="M196.536,-67.3472C242.182,-74.229 325.691,-90.2405 390.194,-122 399.786,-126.723 409.306,-133.409 417.502,-139.966"/>
<polygon fill="black" stroke="black" points="415.289,-142.679 425.208,-146.403 419.777,-137.306 415.289,-142.679"/>
<text text-anchor="middle" x="302.694" y="-125.8" font-family="Times New Roman,serif" font-size="14.00">|&#45; ( ( ph /\ ps ) &lt;&#45;&gt; ( ps /\ ph ) )</text>
</g>
<!-- n18812&#45;&gt;n18813 -->
<g id="edge9" class="edge"><title>n18812&#45;&gt;n18813</title>
<path fill="none" stroke="lightgray" d="M53.0345,-41.0785C71.6266,-44.8501 97.4164,-50.0818 119.139,-54.4884"/>
<polygon fill="lightgray" stroke="lightgray" points="118.612,-57.9528 129.108,-56.5108 120.004,-51.0925 118.612,-57.9528"/>
<text text-anchor="middle" x="90.5" y="-55.8" font-family="Times New Roman,serif" font-size="14.00" fill="lightgray">wff ps</text>
</g>
<!-- n18818&#45;&gt;n18823 -->
<g id="edge16" class="edge"><title>n18818&#45;&gt;n18823</title>
<path fill="none" stroke="lightgray" d="M477.057,-87.7026C538.755,-85.1695 672.26,-87.8466 760.088,-149 780.151,-162.97 793.599,-187.649 801.59,-206.829"/>
<polygon fill="lightgray" stroke="lightgray" points="798.38,-208.23 805.278,-216.271 804.9,-205.683 798.38,-208.23"/>
<text text-anchor="middle" x="627.588" y="-152.8" font-family="Times New Roman,serif" font-size="14.00" fill="lightgray">|&#45; ( ( ph /\ ps /\ ch ) &lt;&#45;&gt; ( ( ph /\ ps ) /\ ch ) )</text>
</g>
<!-- n18822 -->
<g id="node14" class="node"><title>n18822</title>
</g>
<!-- n18818&#45;&gt;n18822 -->
<g id="edge24" class="edge"><title>n18818&#45;&gt;n18822</title>
</g>
<!-- n18822&#45;&gt;n18823 -->
<g id="edge17" class="edge"><title>n18822&#45;&gt;n18823</title>
<path fill="none" stroke="lightgray" d="M476.001,-13.0569C538.907,-5.39043 678.639,1.85688 760.088,-69 799.81,-103.557 808.936,-168.377 810.753,-205.658"/>
<polygon fill="lightgray" stroke="lightgray" points="807.261,-205.963 811.099,-215.838 814.257,-205.725 807.261,-205.963"/>
<text text-anchor="middle" x="627.588" y="-72.8" font-family="Times New Roman,serif" font-size="14.00" fill="lightgray">|&#45; ( ( ps /\ ph /\ ch ) &lt;&#45;&gt; ( ( ps /\ ph ) /\ ch ) )</text>
</g>
</g>
</svg>
