<?xml version="1.0" encoding="UTF-8" standalone="no"?>
<!DOCTYPE svg PUBLIC "-//W3C//DTD SVG 1.1//EN"
 "http://www.w3.org/Graphics/SVG/1.1/DTD/svg11.dtd">
<!-- Generated by graphviz version 2.38.0 (20140413.2041)
 -->
<!-- Title: proof_3anor Pages: 1 -->
<svg width="2144pt" height="733pt"
 viewBox="0.00 0.00 2144.17 733.00" xmlns="http://www.w3.org/2000/svg" xmlns:xlink="http://www.w3.org/1999/xlink">
<g id="graph0" class="graph" transform="scale(1 1) rotate(0) translate(4 729)">
<title>proof_3anor</title>
<polygon fill="white" stroke="none" points="-4,4 -4,-729 2140.17,-729 2140.17,4 -4,4"/>
<!-- n18983 -->
<g id="node1" class="node"><title>n18983</title>
</g>
<!-- n19070 -->
<g id="node2" class="node"><title>n19070</title>
<ellipse fill="cyan" stroke="black" cx="1734.67" cy="-560" rx="27" ry="18"/>
<text text-anchor="middle" x="1734.67" y="-556.3" font-family="Times New Roman,serif" font-size="14.00">bitri</text>
</g>
<!-- n18983&#45;&gt;n19070 -->
<g id="edge1" class="edge"><title>n18983&#45;&gt;n19070</title>
<path fill="none" stroke="lightgray" d="M1360.16,-707.134C1423.04,-713.374 1586.91,-720.907 1689.67,-646 1708.86,-632.016 1720.28,-607.201 1726.66,-587.809"/>
<polygon fill="lightgray" stroke="lightgray" points="1730.09,-588.558 1729.63,-577.974 1723.39,-586.538 1730.09,-588.558"/>
<text text-anchor="middle" x="1541.67" y="-713.8" font-family="Times New Roman,serif" font-size="14.00" fill="lightgray">wff ( ph /\ ps /\ ch )</text>
</g>
<!-- n18988 -->
<g id="node3" class="node"><title>n18988</title>
</g>
<!-- n18983&#45;&gt;n18988 -->
<g id="edge38" class="edge"><title>n18983&#45;&gt;n18988</title>
</g>
<!-- QED -->
<g id="node25" class="node"><title>QED</title>
</g>
<!-- n19070&#45;&gt;QED -->
<g id="edge37" class="edge"><title>n19070&#45;&gt;QED</title>
<path fill="none" stroke="black" d="M1761.71,-560C1825.93,-560 1992.15,-560 2067.63,-560"/>
<polygon fill="black" stroke="black" points="2067.65,-563.5 2077.65,-560 2067.65,-556.5 2067.65,-563.5"/>
<text text-anchor="middle" x="1919.67" y="-563.8" font-family="Times New Roman,serif" font-size="14.00">|&#45; ( ( ph /\ ps /\ ch ) &lt;&#45;&gt; &#45;. ( &#45;. ph \/ &#45;. ps \/ &#45;. ch ) )</text>
</g>
<!-- n18988&#45;&gt;n19070 -->
<g id="edge2" class="edge"><title>n18988&#45;&gt;n19070</title>
<path fill="none" stroke="lightgray" d="M1360.77,-630.412C1420.38,-626.315 1569.74,-613.21 1689.67,-579 1694.12,-577.733 1698.7,-576.123 1703.15,-574.377"/>
<polygon fill="lightgray" stroke="lightgray" points="1704.73,-577.513 1712.6,-570.421 1702.02,-571.057 1704.73,-577.513"/>
<text text-anchor="middle" x="1541.67" y="-630.8" font-family="Times New Roman,serif" font-size="14.00" fill="lightgray">wff ( ( ph /\ ps ) /\ ch )</text>
</g>
<!-- n18996 -->
<g id="node4" class="node"><title>n18996</title>
</g>
<!-- n18988&#45;&gt;n18996 -->
<g id="edge39" class="edge"><title>n18988&#45;&gt;n18996</title>
</g>
<!-- n18996&#45;&gt;n19070 -->
<g id="edge3" class="edge"><title>n18996&#45;&gt;n19070</title>
<path fill="none" stroke="lightgray" d="M1360.62,-560C1429.94,-560 1618.26,-560 1697.63,-560"/>
<polygon fill="lightgray" stroke="lightgray" points="1697.64,-563.5 1707.64,-560 1697.64,-556.5 1697.64,-563.5"/>
<text text-anchor="middle" x="1541.67" y="-563.8" font-family="Times New Roman,serif" font-size="14.00" fill="lightgray">wff &#45;. ( &#45;. ph \/ &#45;. ps \/ &#45;. ch )</text>
</g>
<!-- n19000 -->
<g id="node5" class="node"><title>n19000</title>
</g>
<!-- n18996&#45;&gt;n19000 -->
<g id="edge40" class="edge"><title>n18996&#45;&gt;n19000</title>
</g>
<!-- n19000&#45;&gt;n19070 -->
<g id="edge4" class="edge"><title>n19000&#45;&gt;n19070</title>
<path fill="none" stroke="lightgray" d="M1367.85,-490.087C1431.54,-494.697 1574.24,-508.073 1689.67,-541 1694.12,-542.267 1698.7,-543.877 1703.15,-545.623"/>
<polygon fill="lightgray" stroke="lightgray" points="1702.02,-548.943 1712.6,-549.579 1704.73,-542.487 1702.02,-548.943"/>
<text text-anchor="middle" x="1541.67" y="-544.8" font-family="Times New Roman,serif" font-size="14.00" fill="lightgray">|&#45; ( ( ph /\ ps /\ ch ) &lt;&#45;&gt; ( ( ph /\ ps ) /\ ch ) )</text>
</g>
<!-- n19069 -->
<g id="node7" class="node"><title>n19069</title>
<ellipse fill="cyan" stroke="black" cx="1333.43" cy="-416" rx="42.4939" ry="18"/>
<text text-anchor="middle" x="1333.43" y="-412.3" font-family="Times New Roman,serif" font-size="14.00">xchbinxr</text>
</g>
<!-- n19000&#45;&gt;n19069 -->
<g id="edge41" class="edge"><title>n19000&#45;&gt;n19069</title>
</g>
<!-- n19005 -->
<g id="node6" class="node"><title>n19005</title>
</g>
<!-- n19005&#45;&gt;n19069 -->
<g id="edge5" class="edge"><title>n19005&#45;&gt;n19069</title>
<path fill="none" stroke="lightgray" d="M922.135,-563.788C987.937,-572.048 1165.35,-584.816 1273.18,-502 1288.97,-489.878 1280.31,-477.67 1291.18,-461 1296.01,-453.598 1302.07,-446.245 1308.04,-439.693"/>
<polygon fill="lightgray" stroke="lightgray" points="1310.6,-442.081 1314.94,-432.415 1305.52,-437.266 1310.6,-442.081"/>
<text text-anchor="middle" x="1113.18" y="-572.8" font-family="Times New Roman,serif" font-size="14.00" fill="lightgray">wff ( ( ph /\ ps ) /\ ch )</text>
</g>
<!-- n19013 -->
<g id="node8" class="node"><title>n19013</title>
</g>
<!-- n19005&#45;&gt;n19013 -->
<g id="edge33" class="edge"><title>n19005&#45;&gt;n19013</title>
</g>
<!-- n19069&#45;&gt;n19070 -->
<g id="edge32" class="edge"><title>n19069&#45;&gt;n19070</title>
<path fill="none" stroke="black" d="M1374.52,-411.587C1445.3,-405.98 1593.98,-404.246 1689.67,-474 1708.86,-487.984 1720.28,-512.799 1726.66,-532.191"/>
<polygon fill="black" stroke="black" points="1723.39,-533.462 1729.63,-542.026 1730.09,-531.442 1723.39,-533.462"/>
<text text-anchor="middle" x="1541.67" y="-477.8" font-family="Times New Roman,serif" font-size="14.00">|&#45; ( ( ( ph /\ ps ) /\ ch ) &lt;&#45;&gt; &#45;. ( &#45;. ph \/ &#45;. ps \/ &#45;. ch ) )</text>
</g>
<!-- n19013&#45;&gt;n19069 -->
<g id="edge6" class="edge"><title>n19013&#45;&gt;n19069</title>
<path fill="none" stroke="lightgray" d="M922.386,-485.894C983.82,-480.557 1143.16,-464.768 1273.18,-435 1278.92,-433.687 1284.89,-432.073 1290.75,-430.346"/>
<polygon fill="lightgray" stroke="lightgray" points="1291.89,-433.654 1300.42,-427.364 1289.83,-426.965 1291.89,-433.654"/>
<text text-anchor="middle" x="1113.18" y="-486.8" font-family="Times New Roman,serif" font-size="14.00" fill="lightgray">wff ( ( &#45;. ph \/ &#45;. ps ) \/ &#45;. ch )</text>
</g>
<!-- n19020 -->
<g id="node9" class="node"><title>n19020</title>
</g>
<!-- n19013&#45;&gt;n19020 -->
<g id="edge34" class="edge"><title>n19013&#45;&gt;n19020</title>
</g>
<!-- n19020&#45;&gt;n19069 -->
<g id="edge7" class="edge"><title>n19020&#45;&gt;n19069</title>
<path fill="none" stroke="lightgray" d="M922.821,-416C993.343,-416 1187.69,-416 1281.05,-416"/>
<polygon fill="lightgray" stroke="lightgray" points="1281.11,-419.5 1291.11,-416 1281.11,-412.5 1281.11,-419.5"/>
<text text-anchor="middle" x="1113.18" y="-419.8" font-family="Times New Roman,serif" font-size="14.00" fill="lightgray">wff ( &#45;. ph \/ &#45;. ps \/ &#45;. ch )</text>
</g>
<!-- n19061 -->
<g id="node11" class="node"><title>n19061</title>
<ellipse fill="cyan" stroke="black" cx="895.536" cy="-344" rx="39.7935" ry="18"/>
<text text-anchor="middle" x="895.536" y="-340.3" font-family="Times New Roman,serif" font-size="14.00">xchbinx</text>
</g>
<!-- n19020&#45;&gt;n19061 -->
<g id="edge35" class="edge"><title>n19020&#45;&gt;n19061</title>
</g>
<!-- n19025 -->
<g id="node10" class="node"><title>n19025</title>
</g>
<!-- n19025&#45;&gt;n19061 -->
<g id="edge8" class="edge"><title>n19025&#45;&gt;n19061</title>
<path fill="none" stroke="lightgray" d="M489.49,-491.86C554.892,-500.307 731.189,-513.572 837.889,-431 853.95,-418.571 845.149,-406.236 855.889,-389 860.331,-381.871 865.866,-374.717 871.346,-368.277"/>
<polygon fill="lightgray" stroke="lightgray" points="874.169,-370.368 878.171,-360.558 868.925,-365.731 874.169,-370.368"/>
<text text-anchor="middle" x="675.389" y="-502.8" font-family="Times New Roman,serif" font-size="14.00" fill="lightgray">wff ( ( ph /\ ps ) /\ ch )</text>
</g>
<!-- n19032 -->
<g id="node12" class="node"><title>n19032</title>
</g>
<!-- n19025&#45;&gt;n19032 -->
<g id="edge27" class="edge"><title>n19025&#45;&gt;n19032</title>
</g>
<!-- n19061&#45;&gt;n19069 -->
<g id="edge26" class="edge"><title>n19061&#45;&gt;n19069</title>
<path fill="none" stroke="black" d="M934.614,-347.193C1003.04,-353.409 1151.04,-369.037 1273.18,-397 1278.92,-398.313 1284.89,-399.927 1290.75,-401.654"/>
<polygon fill="black" stroke="black" points="1289.83,-405.035 1300.42,-404.636 1291.89,-398.346 1289.83,-405.035"/>
<text text-anchor="middle" x="1113.18" y="-400.8" font-family="Times New Roman,serif" font-size="14.00">|&#45; ( ( ( ph /\ ps ) /\ ch ) &lt;&#45;&gt; &#45;. ( ( &#45;. ph \/ &#45;. ps ) \/ &#45;. ch ) )</text>
</g>
<!-- n19068 -->
<g id="node24" class="node"><title>n19068</title>
</g>
<!-- n19061&#45;&gt;n19068 -->
<g id="edge36" class="edge"><title>n19061&#45;&gt;n19068</title>
</g>
<!-- n19032&#45;&gt;n19061 -->
<g id="edge9" class="edge"><title>n19032&#45;&gt;n19061</title>
<path fill="none" stroke="lightgray" d="M490.181,-413.95C551.544,-408.779 709.346,-393.4 837.889,-363 843.315,-361.717 848.96,-360.135 854.492,-358.436"/>
<polygon fill="lightgray" stroke="lightgray" points="855.811,-361.688 864.257,-355.292 853.666,-355.025 855.811,-361.688"/>
<text text-anchor="middle" x="675.389" y="-415.8" font-family="Times New Roman,serif" font-size="14.00" fill="lightgray">wff ( &#45;. ( ph /\ ps ) \/ &#45;. ch )</text>
</g>
<!-- n19040 -->
<g id="node13" class="node"><title>n19040</title>
</g>
<!-- n19032&#45;&gt;n19040 -->
<g id="edge28" class="edge"><title>n19032&#45;&gt;n19040</title>
</g>
<!-- n19040&#45;&gt;n19061 -->
<g id="edge10" class="edge"><title>n19040&#45;&gt;n19061</title>
<path fill="none" stroke="lightgray" d="M490.323,-344C560.722,-344 754.385,-344 845.69,-344"/>
<polygon fill="lightgray" stroke="lightgray" points="845.778,-347.5 855.778,-344 845.778,-340.5 845.778,-347.5"/>
<text text-anchor="middle" x="675.389" y="-347.8" font-family="Times New Roman,serif" font-size="14.00" fill="lightgray">wff ( ( &#45;. ph \/ &#45;. ps ) \/ &#45;. ch )</text>
</g>
<!-- n19045 -->
<g id="node15" class="node"><title>n19045</title>
<ellipse fill="cyan" stroke="black" cx="463.042" cy="-272" rx="27" ry="18"/>
<text text-anchor="middle" x="463.042" y="-268.3" font-family="Times New Roman,serif" font-size="14.00">anor</text>
</g>
<!-- n19040&#45;&gt;n19045 -->
<g id="edge29" class="edge"><title>n19040&#45;&gt;n19045</title>
</g>
<!-- n19043 -->
<g id="node14" class="node"><title>n19043</title>
</g>
<!-- n19043&#45;&gt;n19045 -->
<g id="edge11" class="edge"><title>n19043&#45;&gt;n19045</title>
<path fill="none" stroke="lightgray" d="M182.921,-386.03C231.679,-383.164 337.922,-371.829 413.195,-327 425.835,-319.472 436.991,-307.581 445.439,-296.779"/>
<polygon fill="lightgray" stroke="lightgray" points="448.467,-298.571 451.61,-288.453 442.843,-294.403 448.467,-298.571"/>
<text text-anchor="middle" x="307.695" y="-388.8" font-family="Times New Roman,serif" font-size="14.00" fill="lightgray">wff ( ph /\ ps )</text>
</g>
<!-- n19044 -->
<g id="node16" class="node"><title>n19044</title>
</g>
<!-- n19043&#45;&gt;n19044 -->
<g id="edge14" class="edge"><title>n19043&#45;&gt;n19044</title>
</g>
<!-- n19045&#45;&gt;n19061 -->
<g id="edge13" class="edge"><title>n19045&#45;&gt;n19061</title>
<path fill="none" stroke="black" d="M490.181,-274.05C551.544,-279.221 709.346,-294.6 837.889,-325 843.315,-326.283 848.96,-327.865 854.492,-329.564"/>
<polygon fill="black" stroke="black" points="853.666,-332.975 864.257,-332.708 855.811,-326.312 853.666,-332.975"/>
<text text-anchor="middle" x="675.389" y="-328.8" font-family="Times New Roman,serif" font-size="14.00">|&#45; ( ( ( ph /\ ps ) /\ ch ) &lt;&#45;&gt; &#45;. ( &#45;. ( ph /\ ps ) \/ &#45;. ch ) )</text>
</g>
<!-- n19060 -->
<g id="node18" class="node"><title>n19060</title>
<ellipse fill="cyan" stroke="black" cx="463.042" cy="-198" rx="31.6951" ry="18"/>
<text text-anchor="middle" x="463.042" y="-194.3" font-family="Times New Roman,serif" font-size="14.00">orbi1i</text>
</g>
<!-- n19045&#45;&gt;n19060 -->
<g id="edge30" class="edge"><title>n19045&#45;&gt;n19060</title>
</g>
<!-- n19044&#45;&gt;n19045 -->
<g id="edge12" class="edge"><title>n19044&#45;&gt;n19045</title>
<path fill="none" stroke="lightgray" d="M182.114,-311.408C236.465,-303.756 363.779,-285.833 426.224,-277.042"/>
<polygon fill="lightgray" stroke="lightgray" points="426.969,-280.472 436.383,-275.612 425.993,-273.541 426.969,-280.472"/>
<text text-anchor="middle" x="307.695" y="-311.8" font-family="Times New Roman,serif" font-size="14.00" fill="lightgray">wff ch</text>
</g>
<!-- n19049 -->
<g id="node17" class="node"><title>n19049</title>
</g>
<!-- n19049&#45;&gt;n19060 -->
<g id="edge15" class="edge"><title>n19049&#45;&gt;n19060</title>
<path fill="none" stroke="lightgray" d="M182.425,-258.029C229.068,-252.322 330.224,-238.368 413.195,-216 417.806,-214.757 422.595,-213.26 427.292,-211.667"/>
<polygon fill="lightgray" stroke="lightgray" points="428.469,-214.963 436.717,-208.313 426.122,-208.368 428.469,-214.963"/>
<text text-anchor="middle" x="307.695" y="-259.8" font-family="Times New Roman,serif" font-size="14.00" fill="lightgray">wff &#45;. ( ph /\ ps )</text>
</g>
<!-- n19054 -->
<g id="node19" class="node"><title>n19054</title>
</g>
<!-- n19049&#45;&gt;n19054 -->
<g id="edge23" class="edge"><title>n19049&#45;&gt;n19054</title>
</g>
<!-- n19060&#45;&gt;n19061 -->
<g id="edge22" class="edge"><title>n19060&#45;&gt;n19061</title>
<path fill="none" stroke="black" d="M494.177,-193.899C562.933,-186.265 733.488,-177.288 837.889,-258 853.634,-270.172 845.291,-282.156 855.889,-299 860.363,-306.109 865.908,-313.256 871.389,-319.695"/>
<polygon fill="black" stroke="black" points="868.967,-322.24 878.211,-327.417 874.213,-317.605 868.967,-322.24"/>
<text text-anchor="middle" x="675.389" y="-261.8" font-family="Times New Roman,serif" font-size="14.00">|&#45; ( ( &#45;. ( ph /\ ps ) \/ &#45;. ch ) &lt;&#45;&gt; ( ( &#45;. ph \/ &#45;. ps ) \/ &#45;. ch ) )</text>
</g>
<!-- n19054&#45;&gt;n19060 -->
<g id="edge16" class="edge"><title>n19054&#45;&gt;n19060</title>
<path fill="none" stroke="lightgray" d="M182.64,-189.767C235.8,-191.334 357.163,-194.91 421.022,-196.791"/>
<polygon fill="lightgray" stroke="lightgray" points="421.032,-200.293 431.131,-197.089 421.239,-193.296 421.032,-200.293"/>
<text text-anchor="middle" x="307.695" y="-200.8" font-family="Times New Roman,serif" font-size="14.00" fill="lightgray">wff ( &#45;. ph \/ &#45;. ps )</text>
</g>
<!-- n19056 -->
<g id="node20" class="node"><title>n19056</title>
</g>
<!-- n19054&#45;&gt;n19056 -->
<g id="edge24" class="edge"><title>n19054&#45;&gt;n19056</title>
</g>
<!-- n19056&#45;&gt;n19060 -->
<g id="edge17" class="edge"><title>n19056&#45;&gt;n19060</title>
<path fill="none" stroke="lightgray" d="M182.384,-120.112C229.387,-126.309 331.669,-142.228 413.195,-172 419.354,-174.249 425.701,-177.147 431.697,-180.188"/>
<polygon fill="lightgray" stroke="lightgray" points="430.284,-183.4 440.756,-185.011 433.574,-177.222 430.284,-183.4"/>
<text text-anchor="middle" x="307.695" y="-175.8" font-family="Times New Roman,serif" font-size="14.00" fill="lightgray">wff &#45;. ch</text>
</g>
<!-- n19059 -->
<g id="node22" class="node"><title>n19059</title>
<ellipse fill="cyan" stroke="black" cx="155.597" cy="-45" rx="28.6953" ry="18"/>
<text text-anchor="middle" x="155.597" y="-41.3" font-family="Times New Roman,serif" font-size="14.00">ianor</text>
</g>
<!-- n19056&#45;&gt;n19059 -->
<g id="edge25" class="edge"><title>n19056&#45;&gt;n19059</title>
</g>
<!-- n19057 -->
<g id="node21" class="node"><title>n19057</title>
</g>
<!-- n19057&#45;&gt;n19059 -->
<g id="edge18" class="edge"><title>n19057&#45;&gt;n19059</title>
<path fill="none" stroke="lightgray" d="M51.2199,-81.7463C70.657,-74.8372 98.6593,-64.8836 120.619,-57.078"/>
<polygon fill="lightgray" stroke="lightgray" points="121.98,-60.3087 130.23,-53.6615 119.636,-53.713 121.98,-60.3087"/>
<text text-anchor="middle" x="90.5" y="-78.8" font-family="Times New Roman,serif" font-size="14.00" fill="lightgray">wff ph</text>
</g>
<!-- n19058 -->
<g id="node23" class="node"><title>n19058</title>
</g>
<!-- n19057&#45;&gt;n19058 -->
<g id="edge21" class="edge"><title>n19057&#45;&gt;n19058</title>
</g>
<!-- n19059&#45;&gt;n19060 -->
<g id="edge20" class="edge"><title>n19059&#45;&gt;n19060</title>
<path fill="none" stroke="black" d="M184.457,-44.2992C235.261,-44.4493 344.08,-51.5328 413.195,-105 434.269,-121.303 447.198,-149.286 454.416,-170.309"/>
<polygon fill="black" stroke="black" points="451.131,-171.529 457.51,-179.988 457.799,-169.397 451.131,-171.529"/>
<text text-anchor="middle" x="307.695" y="-108.8" font-family="Times New Roman,serif" font-size="14.00">|&#45; ( &#45;. ( ph /\ ps ) &lt;&#45;&gt; ( &#45;. ph \/ &#45;. ps ) )</text>
</g>
<!-- n19058&#45;&gt;n19059 -->
<g id="edge19" class="edge"><title>n19058&#45;&gt;n19059</title>
<path fill="none" stroke="lightgray" d="M53.0116,-23.3343C71.7132,-27.3229 97.5572,-32.8348 118.497,-37.3008"/>
<polygon fill="lightgray" stroke="lightgray" points="117.82,-40.735 128.33,-39.3979 119.28,-33.889 117.82,-40.735"/>
<text text-anchor="middle" x="90.5" y="-38.8" font-family="Times New Roman,serif" font-size="14.00" fill="lightgray">wff ps</text>
</g>
<!-- n19068&#45;&gt;n19069 -->
<g id="edge31" class="edge"><title>n19068&#45;&gt;n19069</title>
<path fill="none" stroke="lightgray" d="M928.925,-268.997C997.933,-264.22 1162.2,-261.616 1273.18,-331 1294.97,-344.623 1310.89,-369.513 1320.71,-388.851"/>
<polygon fill="lightgray" stroke="lightgray" points="1317.67,-390.605 1325.16,-398.097 1323.98,-387.568 1317.67,-390.605"/>
<text text-anchor="middle" x="1113.18" y="-334.8" font-family="Times New Roman,serif" font-size="14.00" fill="lightgray">|&#45; ( ( &#45;. ph \/ &#45;. ps \/ &#45;. ch ) &lt;&#45;&gt; ( ( &#45;. ph \/ &#45;. ps ) \/ &#45;. ch ) )</text>
</g>
</g>
</svg>
