<?xml version="1.0" encoding="UTF-8" standalone="no"?>
<!DOCTYPE svg PUBLIC "-//W3C//DTD SVG 1.1//EN"
 "http://www.w3.org/Graphics/SVG/1.1/DTD/svg11.dtd">
<!-- Generated by graphviz version 2.38.0 (20140413.2041)
 -->
<!-- Title: proof_3bitrd Pages: 1 -->
<svg width="781pt" height="503pt"
 viewBox="0.00 0.00 781.38 503.00" xmlns="http://www.w3.org/2000/svg" xmlns:xlink="http://www.w3.org/1999/xlink">
<g id="graph0" class="graph" transform="scale(1 1) rotate(0) translate(4 499)">
<title>proof_3bitrd</title>
<polygon fill="white" stroke="none" points="-4,4 -4,-499 777.376,-499 777.376,4 -4,4"/>
<!-- n5507 -->
<g id="node1" class="node"><title>n5507</title>
</g>
<!-- n5519 -->
<g id="node2" class="node"><title>n5519</title>
<ellipse fill="cyan" stroke="black" cx="520.934" cy="-296" rx="27.8951" ry="18"/>
<text text-anchor="middle" x="520.934" y="-292.3" font-family="Times New Roman,serif" font-size="14.00">bitrd</text>
</g>
<!-- n5507&#45;&gt;n5519 -->
<g id="edge1" class="edge"><title>n5507&#45;&gt;n5519</title>
<path fill="none" stroke="lightgray" d="M313.912,-475.154C353.661,-470.977 429.801,-457.457 474.986,-414 499.844,-390.093 511.124,-351.005 516.127,-324.424"/>
<polygon fill="lightgray" stroke="lightgray" points="519.636,-324.666 517.857,-314.222 512.735,-323.496 519.636,-324.666"/>
<text text-anchor="middle" x="409.486" y="-473.8" font-family="Times New Roman,serif" font-size="14.00" fill="lightgray">wff ph</text>
</g>
<!-- n5508 -->
<g id="node3" class="node"><title>n5508</title>
</g>
<!-- n5507&#45;&gt;n5508 -->
<g id="edge19" class="edge"><title>n5507&#45;&gt;n5508</title>
</g>
<!-- QED -->
<g id="node14" class="node"><title>QED</title>
</g>
<!-- n5519&#45;&gt;QED -->
<g id="edge18" class="edge"><title>n5519&#45;&gt;QED</title>
<path fill="none" stroke="black" d="M549.057,-296C588.039,-296 660.099,-296 704.596,-296"/>
<polygon fill="black" stroke="black" points="704.735,-299.5 714.735,-296 704.735,-292.5 704.735,-299.5"/>
<text text-anchor="middle" x="631.881" y="-299.8" font-family="Times New Roman,serif" font-size="14.00">|&#45; ( ph &#45;&gt; ( ps &lt;&#45;&gt; ta ) )</text>
</g>
<!-- n5508&#45;&gt;n5519 -->
<g id="edge2" class="edge"><title>n5508&#45;&gt;n5519</title>
<path fill="none" stroke="lightgray" d="M313.309,-400.906C350.955,-393.938 422.842,-377.186 474.986,-344 484.913,-337.683 494.131,-328.672 501.604,-320.161"/>
<polygon fill="lightgray" stroke="lightgray" points="504.479,-322.178 508.198,-312.258 499.104,-317.693 504.479,-322.178"/>
<text text-anchor="middle" x="409.486" y="-398.8" font-family="Times New Roman,serif" font-size="14.00" fill="lightgray">wff ps</text>
</g>
<!-- n5509 -->
<g id="node4" class="node"><title>n5509</title>
</g>
<!-- n5508&#45;&gt;n5509 -->
<g id="edge20" class="edge"><title>n5508&#45;&gt;n5509</title>
</g>
<!-- n5509&#45;&gt;n5519 -->
<g id="edge3" class="edge"><title>n5509&#45;&gt;n5519</title>
<path fill="none" stroke="lightgray" d="M313.698,-328.899C354.928,-322.322 435.993,-309.39 483.28,-301.847"/>
<polygon fill="lightgray" stroke="lightgray" points="484.074,-305.265 493.397,-300.233 482.971,-298.352 484.074,-305.265"/>
<text text-anchor="middle" x="409.486" y="-328.8" font-family="Times New Roman,serif" font-size="14.00" fill="lightgray">wff th</text>
</g>
<!-- n5510 -->
<g id="node5" class="node"><title>n5510</title>
</g>
<!-- n5509&#45;&gt;n5510 -->
<g id="edge21" class="edge"><title>n5509&#45;&gt;n5510</title>
</g>
<!-- n5510&#45;&gt;n5519 -->
<g id="edge4" class="edge"><title>n5510&#45;&gt;n5519</title>
<path fill="none" stroke="lightgray" d="M313.775,-264.093C349.91,-268.538 417.625,-277.278 474.986,-287 477.855,-287.486 480.821,-288.017 483.798,-288.57"/>
<polygon fill="lightgray" stroke="lightgray" points="483.357,-292.049 493.838,-290.502 484.68,-285.175 483.357,-292.049"/>
<text text-anchor="middle" x="409.486" y="-290.8" font-family="Times New Roman,serif" font-size="14.00" fill="lightgray">wff ta</text>
</g>
<!-- n5517 -->
<g id="node7" class="node"><title>n5517</title>
<ellipse fill="cyan" stroke="black" cx="286.99" cy="-189" rx="27.8951" ry="18"/>
<text text-anchor="middle" x="286.99" y="-185.3" font-family="Times New Roman,serif" font-size="14.00">bitrd</text>
</g>
<!-- n5510&#45;&gt;n5517 -->
<g id="edge22" class="edge"><title>n5510&#45;&gt;n5517</title>
</g>
<!-- n5511 -->
<g id="node6" class="node"><title>n5511</title>
</g>
<!-- n5511&#45;&gt;n5517 -->
<g id="edge5" class="edge"><title>n5511&#45;&gt;n5517</title>
<path fill="none" stroke="lightgray" d="M66.1184,-376.974C107.288,-373.887 186.996,-361.699 229.993,-314 254.394,-286.93 231.772,-266.636 247.993,-234 251.984,-225.971 257.699,-218.163 263.488,-211.366"/>
<polygon fill="lightgray" stroke="lightgray" points="266.123,-213.67 270.22,-203.899 260.924,-208.982 266.123,-213.67"/>
<text text-anchor="middle" x="162.993" y="-377.8" font-family="Times New Roman,serif" font-size="14.00" fill="lightgray">wff ph</text>
</g>
<!-- n5512 -->
<g id="node8" class="node"><title>n5512</title>
</g>
<!-- n5511&#45;&gt;n5512 -->
<g id="edge12" class="edge"><title>n5511&#45;&gt;n5512</title>
</g>
<!-- n5517&#45;&gt;n5519 -->
<g id="edge11" class="edge"><title>n5517&#45;&gt;n5519</title>
<path fill="none" stroke="black" d="M314.159,-193.417C351.938,-200.67 422.928,-217.641 474.986,-250 484.516,-255.924 493.491,-264.286 500.878,-272.259"/>
<polygon fill="black" stroke="black" points="498.459,-274.809 507.697,-279.998 503.711,-270.181 498.459,-274.809"/>
<text text-anchor="middle" x="409.486" y="-253.8" font-family="Times New Roman,serif" font-size="14.00">|&#45; ( ph &#45;&gt; ( ps &lt;&#45;&gt; th ) )</text>
</g>
<!-- n5518 -->
<g id="node13" class="node"><title>n5518</title>
<ellipse fill="orange" stroke="black" cx="286.99" cy="-117" rx="38.9931" ry="18"/>
<text text-anchor="middle" x="286.99" y="-113.3" font-family="Times New Roman,serif" font-size="14.00">3bitrd.3</text>
</g>
<!-- n5517&#45;&gt;n5518 -->
<g id="edge23" class="edge"><title>n5517&#45;&gt;n5518</title>
</g>
<!-- n5512&#45;&gt;n5517 -->
<g id="edge6" class="edge"><title>n5512&#45;&gt;n5517</title>
<path fill="none" stroke="lightgray" d="M65.2291,-301.611C103.164,-294.196 176.171,-276.697 229.993,-244 243.675,-235.688 256.593,-223.421 266.566,-212.581"/>
<polygon fill="lightgray" stroke="lightgray" points="269.259,-214.819 273.276,-205.016 264.022,-210.174 269.259,-214.819"/>
<text text-anchor="middle" x="162.993" y="-298.8" font-family="Times New Roman,serif" font-size="14.00" fill="lightgray">wff ps</text>
</g>
<!-- n5513 -->
<g id="node9" class="node"><title>n5513</title>
</g>
<!-- n5512&#45;&gt;n5513 -->
<g id="edge13" class="edge"><title>n5512&#45;&gt;n5513</title>
</g>
<!-- n5513&#45;&gt;n5517 -->
<g id="edge7" class="edge"><title>n5513&#45;&gt;n5517</title>
<path fill="none" stroke="lightgray" d="M65.5947,-230.198C102.172,-224.651 171.445,-213.715 229.993,-202 236.765,-200.645 243.968,-199.072 250.874,-197.499"/>
<polygon fill="lightgray" stroke="lightgray" points="251.745,-200.89 260.694,-195.219 250.162,-194.072 251.745,-200.89"/>
<text text-anchor="middle" x="162.993" y="-228.8" font-family="Times New Roman,serif" font-size="14.00" fill="lightgray">wff ch</text>
</g>
<!-- n5514 -->
<g id="node10" class="node"><title>n5514</title>
</g>
<!-- n5513&#45;&gt;n5514 -->
<g id="edge14" class="edge"><title>n5513&#45;&gt;n5514</title>
</g>
<!-- n5514&#45;&gt;n5517 -->
<g id="edge8" class="edge"><title>n5514&#45;&gt;n5517</title>
<path fill="none" stroke="lightgray" d="M65.8572,-164.838C109.734,-169.654 198.892,-179.44 249.238,-184.966"/>
<polygon fill="lightgray" stroke="lightgray" points="249.039,-188.465 259.362,-186.077 249.803,-181.507 249.039,-188.465"/>
<text text-anchor="middle" x="162.993" y="-186.8" font-family="Times New Roman,serif" font-size="14.00" fill="lightgray">wff th</text>
</g>
<!-- n5515 -->
<g id="node11" class="node"><title>n5515</title>
<ellipse fill="orange" stroke="black" cx="38.9965" cy="-90" rx="38.9931" ry="18"/>
<text text-anchor="middle" x="38.9965" y="-86.3" font-family="Times New Roman,serif" font-size="14.00">3bitrd.1</text>
</g>
<!-- n5514&#45;&gt;n5515 -->
<g id="edge15" class="edge"><title>n5514&#45;&gt;n5515</title>
</g>
<!-- n5515&#45;&gt;n5517 -->
<g id="edge9" class="edge"><title>n5515&#45;&gt;n5517</title>
<path fill="none" stroke="black" d="M74.4764,-97.552C113.487,-106.845 178.312,-124.58 229.993,-150 240.574,-155.204 251.392,-162.257 260.663,-168.934"/>
<polygon fill="black" stroke="black" points="258.576,-171.744 268.691,-174.897 262.75,-166.125 258.576,-171.744"/>
<text text-anchor="middle" x="162.993" y="-153.8" font-family="Times New Roman,serif" font-size="14.00">|&#45; ( ph &#45;&gt; ( ps &lt;&#45;&gt; ch ) )</text>
</g>
<!-- n5516 -->
<g id="node12" class="node"><title>n5516</title>
<ellipse fill="orange" stroke="black" cx="38.9965" cy="-18" rx="38.9931" ry="18"/>
<text text-anchor="middle" x="38.9965" y="-14.3" font-family="Times New Roman,serif" font-size="14.00">3bitrd.2</text>
</g>
<!-- n5515&#45;&gt;n5516 -->
<g id="edge16" class="edge"><title>n5515&#45;&gt;n5516</title>
</g>
<!-- n5516&#45;&gt;n5517 -->
<g id="edge10" class="edge"><title>n5516&#45;&gt;n5517</title>
<path fill="none" stroke="black" d="M77.5042,-21.2664C120.222,-26.9738 189.344,-42.5684 229.993,-85 248.958,-104.797 234.882,-119.923 247.993,-144 252.281,-151.874 258.09,-159.634 263.874,-166.433"/>
<polygon fill="black" stroke="black" points="261.29,-168.795 270.56,-173.924 266.512,-164.133 261.29,-168.795"/>
<text text-anchor="middle" x="162.993" y="-88.8" font-family="Times New Roman,serif" font-size="14.00">|&#45; ( ph &#45;&gt; ( ch &lt;&#45;&gt; th ) )</text>
</g>
<!-- n5518&#45;&gt;n5519 -->
<g id="edge17" class="edge"><title>n5518&#45;&gt;n5519</title>
<path fill="none" stroke="black" d="M325.437,-120.749C367.017,-126.797 433.7,-142.374 474.986,-182 498.999,-205.047 510.448,-242.5 515.722,-268.144"/>
<polygon fill="black" stroke="black" points="512.287,-268.817 517.567,-278.003 519.168,-267.529 512.287,-268.817"/>
<text text-anchor="middle" x="409.486" y="-185.8" font-family="Times New Roman,serif" font-size="14.00">|&#45; ( ph &#45;&gt; ( th &lt;&#45;&gt; ta ) )</text>
</g>
</g>
</svg>
