<?xml version="1.0" encoding="UTF-8" standalone="no"?>
<!DOCTYPE svg PUBLIC "-//W3C//DTD SVG 1.1//EN"
 "http://www.w3.org/Graphics/SVG/1.1/DTD/svg11.dtd">
<!-- Generated by graphviz version 2.38.0 (20140413.2041)
 -->
<!-- Title: proof_3imtr3g Pages: 1 -->
<svg width="787pt" height="503pt"
 viewBox="0.00 0.00 786.87 503.00" xmlns="http://www.w3.org/2000/svg" xmlns:xlink="http://www.w3.org/1999/xlink">
<g id="graph0" class="graph" transform="scale(1 1) rotate(0) translate(4 499)">
<title>proof_3imtr3g</title>
<polygon fill="white" stroke="none" points="-4,4 -4,-499 782.873,-499 782.873,4 -4,4"/>
<!-- n5393 -->
<g id="node1" class="node"><title>n5393</title>
</g>
<!-- n5405 -->
<g id="node2" class="node"><title>n5405</title>
<ellipse fill="cyan" stroke="black" cx="532.881" cy="-296" rx="32.4942" ry="18"/>
<text text-anchor="middle" x="532.881" y="-292.3" font-family="Times New Roman,serif" font-size="14.00">syl6ib</text>
</g>
<!-- n5393&#45;&gt;n5405 -->
<g id="edge1" class="edge"><title>n5393&#45;&gt;n5405</title>
<path fill="none" stroke="lightgray" d="M323.275,-474.154C362.378,-468.55 436.993,-452.665 482.384,-410 506.98,-386.881 519.999,-349.444 526.406,-323.823"/>
<polygon fill="lightgray" stroke="lightgray" points="529.84,-324.507 528.69,-313.974 523.021,-322.925 529.84,-324.507"/>
<text text-anchor="middle" x="420.884" y="-470.8" font-family="Times New Roman,serif" font-size="14.00" fill="lightgray">wff ph</text>
</g>
<!-- n5394 -->
<g id="node3" class="node"><title>n5394</title>
</g>
<!-- n5393&#45;&gt;n5394 -->
<g id="edge19" class="edge"><title>n5393&#45;&gt;n5394</title>
</g>
<!-- QED -->
<g id="node14" class="node"><title>QED</title>
</g>
<!-- n5405&#45;&gt;QED -->
<g id="edge18" class="edge"><title>n5405&#45;&gt;QED</title>
<path fill="none" stroke="black" d="M565.567,-296C603.991,-296 668.723,-296 710.021,-296"/>
<polygon fill="black" stroke="black" points="710.241,-299.5 720.241,-296 710.241,-292.5 710.241,-299.5"/>
<text text-anchor="middle" x="642.878" y="-299.8" font-family="Times New Roman,serif" font-size="14.00">|&#45; ( ph &#45;&gt; ( th &#45;&gt; ta ) )</text>
</g>
<!-- n5394&#45;&gt;n5405 -->
<g id="edge2" class="edge"><title>n5394&#45;&gt;n5405</title>
<path fill="none" stroke="lightgray" d="M322.627,-400.221C359.61,-392.399 430.031,-374.494 482.384,-343 492.802,-336.733 502.819,-327.941 511.084,-319.653"/>
<polygon fill="lightgray" stroke="lightgray" points="513.761,-321.918 518.142,-312.272 508.702,-317.08 513.761,-321.918"/>
<text text-anchor="middle" x="420.884" y="-394.8" font-family="Times New Roman,serif" font-size="14.00" fill="lightgray">wff th</text>
</g>
<!-- n5395 -->
<g id="node4" class="node"><title>n5395</title>
</g>
<!-- n5394&#45;&gt;n5395 -->
<g id="edge20" class="edge"><title>n5394&#45;&gt;n5395</title>
</g>
<!-- n5395&#45;&gt;n5405 -->
<g id="edge3" class="edge"><title>n5395&#45;&gt;n5405</title>
<path fill="none" stroke="lightgray" d="M323.063,-328.97C363.512,-322.583 442.701,-310.08 491.09,-302.44"/>
<polygon fill="lightgray" stroke="lightgray" points="491.885,-305.858 501.217,-300.842 490.793,-298.944 491.885,-305.858"/>
<text text-anchor="middle" x="420.884" y="-327.8" font-family="Times New Roman,serif" font-size="14.00" fill="lightgray">wff ch</text>
</g>
<!-- n5396 -->
<g id="node5" class="node"><title>n5396</title>
</g>
<!-- n5395&#45;&gt;n5396 -->
<g id="edge21" class="edge"><title>n5395&#45;&gt;n5396</title>
</g>
<!-- n5396&#45;&gt;n5405 -->
<g id="edge4" class="edge"><title>n5396&#45;&gt;n5405</title>
<path fill="none" stroke="lightgray" d="M323.304,-264.292C359.069,-268.938 425.754,-277.873 482.384,-287 485.433,-287.491 488.584,-288.019 491.751,-288.563"/>
<polygon fill="lightgray" stroke="lightgray" points="491.358,-292.047 501.813,-290.333 492.571,-285.153 491.358,-292.047"/>
<text text-anchor="middle" x="420.884" y="-290.8" font-family="Times New Roman,serif" font-size="14.00" fill="lightgray">wff ta</text>
</g>
<!-- n5403 -->
<g id="node7" class="node"><title>n5403</title>
<ellipse fill="cyan" stroke="black" cx="296.538" cy="-189" rx="35.194" ry="18"/>
<text text-anchor="middle" x="296.538" y="-185.3" font-family="Times New Roman,serif" font-size="14.00">syl5bir</text>
</g>
<!-- n5396&#45;&gt;n5403 -->
<g id="edge22" class="edge"><title>n5396&#45;&gt;n5403</title>
</g>
<!-- n5397 -->
<g id="node6" class="node"><title>n5397</title>
</g>
<!-- n5397&#45;&gt;n5403 -->
<g id="edge5" class="edge"><title>n5397&#45;&gt;n5403</title>
<path fill="none" stroke="lightgray" d="M71.9879,-376.194C112.765,-371.926 191.229,-357.639 233.692,-310 256.789,-284.087 234.975,-264.421 251.692,-234 256.147,-225.892 262.463,-218.218 268.918,-211.579"/>
<polygon fill="lightgray" stroke="lightgray" points="271.695,-213.763 276.455,-204.298 266.831,-208.728 271.695,-213.763"/>
<text text-anchor="middle" x="170.692" y="-374.8" font-family="Times New Roman,serif" font-size="14.00" fill="lightgray">wff th</text>
</g>
<!-- n5398 -->
<g id="node8" class="node"><title>n5398</title>
</g>
<!-- n5397&#45;&gt;n5398 -->
<g id="edge12" class="edge"><title>n5397&#45;&gt;n5398</title>
</g>
<!-- n5403&#45;&gt;n5405 -->
<g id="edge11" class="edge"><title>n5403&#45;&gt;n5405</title>
<path fill="none" stroke="black" d="M329.64,-195.505C367.912,-204.195 432.903,-221.96 482.384,-251 492.403,-256.88 502.15,-265.036 510.307,-272.791"/>
<polygon fill="black" stroke="black" points="508.031,-275.463 517.598,-280.016 512.959,-270.491 508.031,-275.463"/>
<text text-anchor="middle" x="420.884" y="-254.8" font-family="Times New Roman,serif" font-size="14.00">|&#45; ( ph &#45;&gt; ( th &#45;&gt; ch ) )</text>
</g>
<!-- n5404 -->
<g id="node13" class="node"><title>n5404</title>
<ellipse fill="orange" stroke="black" cx="296.538" cy="-117" rx="44.6926" ry="18"/>
<text text-anchor="middle" x="296.538" y="-113.3" font-family="Times New Roman,serif" font-size="14.00">3imtr3g.3</text>
</g>
<!-- n5403&#45;&gt;n5404 -->
<g id="edge23" class="edge"><title>n5403&#45;&gt;n5404</title>
</g>
<!-- n5398&#45;&gt;n5403 -->
<g id="edge6" class="edge"><title>n5398&#45;&gt;n5403</title>
<path fill="none" stroke="lightgray" d="M70.861,-300.921C108.143,-292.641 179.683,-273.972 233.692,-243 248.159,-234.704 262.321,-222.711 273.434,-212.134"/>
<polygon fill="lightgray" stroke="lightgray" points="275.918,-214.601 280.607,-205.101 271.017,-209.603 275.918,-214.601"/>
<text text-anchor="middle" x="170.692" y="-294.8" font-family="Times New Roman,serif" font-size="14.00" fill="lightgray">wff ps</text>
</g>
<!-- n5399 -->
<g id="node9" class="node"><title>n5399</title>
</g>
<!-- n5398&#45;&gt;n5399 -->
<g id="edge13" class="edge"><title>n5398&#45;&gt;n5399</title>
</g>
<!-- n5399&#45;&gt;n5403 -->
<g id="edge7" class="edge"><title>n5399&#45;&gt;n5403</title>
<path fill="none" stroke="lightgray" d="M71.09,-229.712C107.176,-223.548 175.572,-211.743 233.692,-201 240.044,-199.826 246.757,-198.555 253.327,-197.294"/>
<polygon fill="lightgray" stroke="lightgray" points="254.305,-200.67 263.459,-195.336 252.977,-193.797 254.305,-200.67"/>
<text text-anchor="middle" x="170.692" y="-227.8" font-family="Times New Roman,serif" font-size="14.00" fill="lightgray">wff ph</text>
</g>
<!-- n5400 -->
<g id="node10" class="node"><title>n5400</title>
</g>
<!-- n5399&#45;&gt;n5400 -->
<g id="edge14" class="edge"><title>n5399&#45;&gt;n5400</title>
</g>
<!-- n5400&#45;&gt;n5403 -->
<g id="edge8" class="edge"><title>n5400&#45;&gt;n5403</title>
<path fill="none" stroke="lightgray" d="M71.627,-164.788C114.264,-169.398 199.924,-178.661 252.055,-184.298"/>
<polygon fill="lightgray" stroke="lightgray" points="251.693,-187.779 262.011,-185.375 252.446,-180.82 251.693,-187.779"/>
<text text-anchor="middle" x="170.692" y="-185.8" font-family="Times New Roman,serif" font-size="14.00" fill="lightgray">wff ch</text>
</g>
<!-- n5401 -->
<g id="node11" class="node"><title>n5401</title>
<ellipse fill="orange" stroke="black" cx="44.846" cy="-90" rx="44.6926" ry="18"/>
<text text-anchor="middle" x="44.846" y="-86.3" font-family="Times New Roman,serif" font-size="14.00">3imtr3g.2</text>
</g>
<!-- n5400&#45;&gt;n5401 -->
<g id="edge15" class="edge"><title>n5400&#45;&gt;n5401</title>
</g>
<!-- n5401&#45;&gt;n5403 -->
<g id="edge9" class="edge"><title>n5401&#45;&gt;n5403</title>
<path fill="none" stroke="black" d="M83.545,-99.4076C122.195,-109.701 183.57,-127.863 233.692,-151 244.842,-156.147 256.466,-162.882 266.586,-169.251"/>
<polygon fill="black" stroke="black" points="264.742,-172.226 275.043,-174.703 268.535,-166.343 264.742,-172.226"/>
<text text-anchor="middle" x="170.692" y="-154.8" font-family="Times New Roman,serif" font-size="14.00">|&#45; ( ps &lt;&#45;&gt; th )</text>
</g>
<!-- n5402 -->
<g id="node12" class="node"><title>n5402</title>
<ellipse fill="orange" stroke="black" cx="44.846" cy="-18" rx="44.6926" ry="18"/>
<text text-anchor="middle" x="44.846" y="-14.3" font-family="Times New Roman,serif" font-size="14.00">3imtr3g.1</text>
</g>
<!-- n5401&#45;&gt;n5402 -->
<g id="edge16" class="edge"><title>n5401&#45;&gt;n5402</title>
</g>
<!-- n5402&#45;&gt;n5403 -->
<g id="edge10" class="edge"><title>n5402&#45;&gt;n5403</title>
<path fill="none" stroke="black" d="M88.2616,-23.0262C130.668,-30.2428 194.987,-47.4839 233.692,-88 251.751,-106.903 238.213,-121.6 251.692,-144 256.543,-152.061 263.102,-159.798 269.668,-166.515"/>
<polygon fill="black" stroke="black" points="267.66,-169.443 277.277,-173.889 272.531,-164.416 267.66,-169.443"/>
<text text-anchor="middle" x="170.692" y="-91.8" font-family="Times New Roman,serif" font-size="14.00">|&#45; ( ph &#45;&gt; ( ps &#45;&gt; ch ) )</text>
</g>
<!-- n5404&#45;&gt;n5405 -->
<g id="edge17" class="edge"><title>n5404&#45;&gt;n5405</title>
<path fill="none" stroke="black" d="M339.167,-122.75C380.209,-130.41 442.425,-147.63 482.384,-185 506.252,-207.321 519.356,-243.261 525.985,-268.171"/>
<polygon fill="black" stroke="black" points="522.643,-269.234 528.442,-278.1 529.438,-267.552 522.643,-269.234"/>
<text text-anchor="middle" x="420.884" y="-188.8" font-family="Times New Roman,serif" font-size="14.00">|&#45; ( ch &lt;&#45;&gt; ta )</text>
</g>
</g>
</svg>
