<?xml version="1.0" encoding="UTF-8" standalone="no"?>
<!DOCTYPE svg PUBLIC "-//W3C//DTD SVG 1.1//EN"
 "http://www.w3.org/Graphics/SVG/1.1/DTD/svg11.dtd">
<!-- Generated by graphviz version 2.38.0 (20140413.2041)
 -->
<!-- Title: proof_3oran Pages: 1 -->
<svg width="1355pt" height="332pt"
 viewBox="0.00 0.00 1354.68 332.00" xmlns="http://www.w3.org/2000/svg" xmlns:xlink="http://www.w3.org/1999/xlink">
<g id="graph0" class="graph" transform="scale(1 1) rotate(0) translate(4 328)">
<title>proof_3oran</title>
<polygon fill="white" stroke="none" points="-4,4 -4,-328 1350.68,-328 1350.68,4 -4,4"/>
<!-- n19183 -->
<g id="node1" class="node"><title>n19183</title>
</g>
<!-- n19204 -->
<g id="node2" class="node"><title>n19204</title>
<ellipse fill="cyan" stroke="black" cx="936.434" cy="-234" rx="35.9954" ry="18"/>
<text text-anchor="middle" x="936.434" y="-230.3" font-family="Times New Roman,serif" font-size="14.00">bicomi</text>
</g>
<!-- n19183&#45;&gt;n19204 -->
<g id="edge1" class="edge"><title>n19183&#45;&gt;n19204</title>
<path fill="none" stroke="lightgray" d="M573.943,-303.576C630.647,-297.915 769.579,-282.05 882.687,-253 887.743,-251.702 892.995,-250.113 898.139,-248.414"/>
<polygon fill="lightgray" stroke="lightgray" points="899.519,-251.64 907.819,-245.055 897.225,-245.027 899.519,-251.64"/>
<text text-anchor="middle" x="742.687" y="-303.8" font-family="Times New Roman,serif" font-size="14.00" fill="lightgray">wff &#45;. ( &#45;. ph /\ &#45;. ps /\ &#45;. ch )</text>
</g>
<!-- n19187 -->
<g id="node3" class="node"><title>n19187</title>
</g>
<!-- n19183&#45;&gt;n19187 -->
<g id="edge15" class="edge"><title>n19183&#45;&gt;n19187</title>
</g>
<!-- QED -->
<g id="node11" class="node"><title>QED</title>
</g>
<!-- n19204&#45;&gt;QED -->
<g id="edge14" class="edge"><title>n19204&#45;&gt;QED</title>
<path fill="none" stroke="black" d="M972.41,-234C1043.41,-234 1203.95,-234 1277.86,-234"/>
<polygon fill="black" stroke="black" points="1278.12,-237.5 1288.12,-234 1278.12,-230.5 1278.12,-237.5"/>
<text text-anchor="middle" x="1130.18" y="-237.8" font-family="Times New Roman,serif" font-size="14.00">|&#45; ( ( ph \/ ps \/ ch ) &lt;&#45;&gt; &#45;. ( &#45;. ph /\ &#45;. ps /\ &#45;. ch ) )</text>
</g>
<!-- n19187&#45;&gt;n19204 -->
<g id="edge2" class="edge"><title>n19187&#45;&gt;n19204</title>
<path fill="none" stroke="lightgray" d="M574.014,-234C638.883,-234 808.409,-234 890.115,-234"/>
<polygon fill="lightgray" stroke="lightgray" points="890.572,-237.5 900.572,-234 890.572,-230.5 890.572,-237.5"/>
<text text-anchor="middle" x="742.687" y="-237.8" font-family="Times New Roman,serif" font-size="14.00" fill="lightgray">wff ( ph \/ ps \/ ch )</text>
</g>
<!-- n19203 -->
<g id="node5" class="node"><title>n19203</title>
<ellipse fill="cyan" stroke="black" cx="546.991" cy="-162" rx="37.8943" ry="18"/>
<text text-anchor="middle" x="546.991" y="-158.3" font-family="Times New Roman,serif" font-size="14.00">con1bii</text>
</g>
<!-- n19187&#45;&gt;n19203 -->
<g id="edge16" class="edge"><title>n19187&#45;&gt;n19203</title>
</g>
<!-- n19191 -->
<g id="node4" class="node"><title>n19191</title>
</g>
<!-- n19191&#45;&gt;n19203 -->
<g id="edge3" class="edge"><title>n19191&#45;&gt;n19203</title>
<path fill="none" stroke="lightgray" d="M187.144,-231.395C243.293,-225.426 379.835,-209.075 491.294,-181 496.595,-179.665 502.111,-178.04 507.513,-176.308"/>
<polygon fill="lightgray" stroke="lightgray" points="508.67,-179.612 517.04,-173.115 506.446,-172.974 508.67,-179.612"/>
<text text-anchor="middle" x="351.294" y="-231.8" font-family="Times New Roman,serif" font-size="14.00" fill="lightgray">wff ( ph \/ ps \/ ch )</text>
</g>
<!-- n19198 -->
<g id="node6" class="node"><title>n19198</title>
</g>
<!-- n19191&#45;&gt;n19198 -->
<g id="edge12" class="edge"><title>n19191&#45;&gt;n19198</title>
</g>
<!-- n19203&#45;&gt;n19204 -->
<g id="edge11" class="edge"><title>n19203&#45;&gt;n19204</title>
<path fill="none" stroke="black" d="M584.109,-165.459C645.966,-171.884 775.847,-187.56 882.687,-215 887.743,-216.298 892.995,-217.887 898.139,-219.586"/>
<polygon fill="black" stroke="black" points="897.225,-222.973 907.819,-222.945 899.519,-216.36 897.225,-222.973"/>
<text text-anchor="middle" x="742.687" y="-218.8" font-family="Times New Roman,serif" font-size="14.00">|&#45; ( &#45;. ( &#45;. ph /\ &#45;. ps /\ &#45;. ch ) &lt;&#45;&gt; ( ph \/ ps \/ ch ) )</text>
</g>
<!-- n19198&#45;&gt;n19203 -->
<g id="edge4" class="edge"><title>n19198&#45;&gt;n19203</title>
<path fill="none" stroke="lightgray" d="M187.296,-162C251.461,-162 417.396,-162 499.113,-162"/>
<polygon fill="lightgray" stroke="lightgray" points="499.121,-165.5 509.121,-162 499.121,-158.5 499.121,-165.5"/>
<text text-anchor="middle" x="351.294" y="-165.8" font-family="Times New Roman,serif" font-size="14.00" fill="lightgray">wff ( &#45;. ph /\ &#45;. ps /\ &#45;. ch )</text>
</g>
<!-- n19202 -->
<g id="node8" class="node"><title>n19202</title>
<ellipse fill="cyan" stroke="black" cx="160.147" cy="-90" rx="33.2948" ry="18"/>
<text text-anchor="middle" x="160.147" y="-86.3" font-family="Times New Roman,serif" font-size="14.00">3ioran</text>
</g>
<!-- n19198&#45;&gt;n19202 -->
<g id="edge13" class="edge"><title>n19198&#45;&gt;n19202</title>
</g>
<!-- n19199 -->
<g id="node7" class="node"><title>n19199</title>
</g>
<!-- n19199&#45;&gt;n19202 -->
<g id="edge5" class="edge"><title>n19199&#45;&gt;n19202</title>
<path fill="none" stroke="lightgray" d="M48.4917,-150.75C69.5722,-139.177 102.701,-120.989 127.22,-107.528"/>
<polygon fill="lightgray" stroke="lightgray" points="129.071,-110.504 136.153,-102.624 125.703,-104.368 129.071,-110.504"/>
<text text-anchor="middle" x="90.5" y="-139.8" font-family="Times New Roman,serif" font-size="14.00" fill="lightgray">wff ph</text>
</g>
<!-- n19200 -->
<g id="node9" class="node"><title>n19200</title>
</g>
<!-- n19199&#45;&gt;n19200 -->
<g id="edge9" class="edge"><title>n19199&#45;&gt;n19200</title>
</g>
<!-- n19202&#45;&gt;n19203 -->
<g id="edge8" class="edge"><title>n19202&#45;&gt;n19203</title>
<path fill="none" stroke="black" d="M192.93,-93.2269C252.231,-99.6597 383.494,-115.846 491.294,-143 496.595,-144.335 502.111,-145.96 507.513,-147.692"/>
<polygon fill="black" stroke="black" points="506.446,-151.026 517.04,-150.885 508.67,-144.388 506.446,-151.026"/>
<text text-anchor="middle" x="351.294" y="-146.8" font-family="Times New Roman,serif" font-size="14.00">|&#45; ( &#45;. ( ph \/ ps \/ ch ) &lt;&#45;&gt; ( &#45;. ph /\ &#45;. ps /\ &#45;. ch ) )</text>
</g>
<!-- n19200&#45;&gt;n19202 -->
<g id="edge6" class="edge"><title>n19200&#45;&gt;n19202</title>
<path fill="none" stroke="lightgray" d="M54.2244,-90C72.1293,-90 96.2455,-90 116.842,-90"/>
<polygon fill="lightgray" stroke="lightgray" points="116.934,-93.5001 126.934,-90 116.934,-86.5001 116.934,-93.5001"/>
<text text-anchor="middle" x="90.5" y="-93.8" font-family="Times New Roman,serif" font-size="14.00" fill="lightgray">wff ps</text>
</g>
<!-- n19201 -->
<g id="node10" class="node"><title>n19201</title>
</g>
<!-- n19200&#45;&gt;n19201 -->
<g id="edge10" class="edge"><title>n19200&#45;&gt;n19201</title>
</g>
<!-- n19201&#45;&gt;n19202 -->
<g id="edge7" class="edge"><title>n19201&#45;&gt;n19202</title>
<path fill="none" stroke="lightgray" d="M48.4917,-29.25C69.5722,-40.8232 102.701,-59.0108 127.22,-72.4721"/>
<polygon fill="lightgray" stroke="lightgray" points="125.703,-75.6317 136.153,-77.3762 129.071,-69.4956 125.703,-75.6317"/>
<text text-anchor="middle" x="90.5" y="-66.8" font-family="Times New Roman,serif" font-size="14.00" fill="lightgray">wff ch</text>
</g>
</g>
</svg>
