<?xml version="1.0" encoding="UTF-8" standalone="no"?>
<!DOCTYPE svg PUBLIC "-//W3C//DTD SVG 1.1//EN"
 "http://www.w3.org/Graphics/SVG/1.1/DTD/svg11.dtd">
<!-- Generated by graphviz version 2.38.0 (20140413.2041)
 -->
<!-- Title: proof_3orass Pages: 1 -->
<svg width="900pt" height="469pt"
 viewBox="0.00 0.00 900.09 469.00" xmlns="http://www.w3.org/2000/svg" xmlns:xlink="http://www.w3.org/1999/xlink">
<g id="graph0" class="graph" transform="scale(1 1) rotate(0) translate(4 465)">
<title>proof_3orass</title>
<polygon fill="white" stroke="none" points="-4,4 -4,-465 896.089,-465 896.089,4 -4,4"/>
<!-- n18679 -->
<g id="node1" class="node"><title>n18679</title>
</g>
<!-- n18698 -->
<g id="node2" class="node"><title>n18698</title>
<ellipse fill="cyan" stroke="black" cx="522.594" cy="-298" rx="27" ry="18"/>
<text text-anchor="middle" x="522.594" y="-294.3" font-family="Times New Roman,serif" font-size="14.00">bitri</text>
</g>
<!-- n18679&#45;&gt;n18698 -->
<g id="edge1" class="edge"><title>n18679&#45;&gt;n18698</title>
<path fill="none" stroke="lightgray" d="M187.681,-444.443C245.718,-448.519 388.156,-450.558 477.594,-384 496.64,-369.826 508.076,-345.032 514.495,-325.696"/>
<polygon fill="lightgray" stroke="lightgray" points="517.915,-326.479 517.485,-315.893 511.22,-324.437 517.915,-326.479"/>
<text text-anchor="middle" x="345.094" y="-449.8" font-family="Times New Roman,serif" font-size="14.00" fill="lightgray">wff ( ph \/ ps \/ ch )</text>
</g>
<!-- n18684 -->
<g id="node3" class="node"><title>n18684</title>
</g>
<!-- n18679&#45;&gt;n18684 -->
<g id="edge17" class="edge"><title>n18679&#45;&gt;n18684</title>
</g>
<!-- QED -->
<g id="node13" class="node"><title>QED</title>
</g>
<!-- n18698&#45;&gt;QED -->
<g id="edge16" class="edge"><title>n18698&#45;&gt;QED</title>
<path fill="none" stroke="black" d="M549.854,-298C609.206,-298 753.915,-298 823.386,-298"/>
<polygon fill="black" stroke="black" points="823.468,-301.5 833.468,-298 823.468,-294.5 823.468,-301.5"/>
<text text-anchor="middle" x="691.594" y="-301.8" font-family="Times New Roman,serif" font-size="14.00">|&#45; ( ( ph \/ ps \/ ch ) &lt;&#45;&gt; ( ph \/ ( ps \/ ch ) ) )</text>
</g>
<!-- n18684&#45;&gt;n18698 -->
<g id="edge2" class="edge"><title>n18684&#45;&gt;n18698</title>
<path fill="none" stroke="lightgray" d="M187.649,-367.792C242.169,-362.673 372.555,-347.997 477.594,-317 481.931,-315.72 486.409,-314.128 490.774,-312.413"/>
<polygon fill="lightgray" stroke="lightgray" points="492.17,-315.622 500.047,-308.537 489.47,-309.164 492.17,-315.622"/>
<text text-anchor="middle" x="345.094" y="-368.8" font-family="Times New Roman,serif" font-size="14.00" fill="lightgray">wff ( ( ph \/ ps ) \/ ch )</text>
</g>
<!-- n18689 -->
<g id="node4" class="node"><title>n18689</title>
</g>
<!-- n18684&#45;&gt;n18689 -->
<g id="edge18" class="edge"><title>n18684&#45;&gt;n18689</title>
</g>
<!-- n18689&#45;&gt;n18698 -->
<g id="edge3" class="edge"><title>n18689&#45;&gt;n18698</title>
<path fill="none" stroke="lightgray" d="M187.963,-298C251.31,-298 413.026,-298 485.503,-298"/>
<polygon fill="lightgray" stroke="lightgray" points="485.527,-301.5 495.527,-298 485.527,-294.5 485.527,-301.5"/>
<text text-anchor="middle" x="345.094" y="-301.8" font-family="Times New Roman,serif" font-size="14.00" fill="lightgray">wff ( ph \/ ( ps \/ ch ) )</text>
</g>
<!-- n18693 -->
<g id="node6" class="node"><title>n18693</title>
<ellipse fill="lawngreen" stroke="black" cx="160.797" cy="-226" rx="33.5952" ry="18"/>
<text text-anchor="middle" x="160.797" y="-222.3" font-family="Times New Roman,serif" font-size="14.00">df&#45;3or</text>
</g>
<!-- n18689&#45;&gt;n18693 -->
<g id="edge19" class="edge"><title>n18689&#45;&gt;n18693</title>
</g>
<!-- n18690 -->
<g id="node5" class="node"><title>n18690</title>
</g>
<!-- n18690&#45;&gt;n18693 -->
<g id="edge4" class="edge"><title>n18690&#45;&gt;n18693</title>
<path fill="none" stroke="lightgray" d="M44.3354,-345.856C61.0646,-331.147 87.5795,-307.209 109,-285 119.618,-273.991 130.774,-261.187 139.918,-250.326"/>
<polygon fill="lightgray" stroke="lightgray" points="142.76,-252.383 146.476,-242.461 137.383,-247.9 142.76,-252.383"/>
<text text-anchor="middle" x="90.5" y="-323.8" font-family="Times New Roman,serif" font-size="14.00" fill="lightgray">wff ph</text>
</g>
<!-- n18691 -->
<g id="node7" class="node"><title>n18691</title>
</g>
<!-- n18690&#45;&gt;n18691 -->
<g id="edge8" class="edge"><title>n18690&#45;&gt;n18691</title>
</g>
<!-- n18693&#45;&gt;n18698 -->
<g id="edge7" class="edge"><title>n18693&#45;&gt;n18698</title>
<path fill="none" stroke="black" d="M194.2,-228.835C252.06,-234.468 376.554,-249.183 477.594,-279 481.931,-280.28 486.409,-281.872 490.774,-283.587"/>
<polygon fill="black" stroke="black" points="489.47,-286.836 500.047,-287.463 492.17,-280.378 489.47,-286.836"/>
<text text-anchor="middle" x="345.094" y="-282.8" font-family="Times New Roman,serif" font-size="14.00">|&#45; ( ( ph \/ ps \/ ch ) &lt;&#45;&gt; ( ( ph \/ ps ) \/ ch ) )</text>
</g>
<!-- n18697 -->
<g id="node10" class="node"><title>n18697</title>
<ellipse fill="cyan" stroke="black" cx="160.797" cy="-154" rx="30.5947" ry="18"/>
<text text-anchor="middle" x="160.797" y="-150.3" font-family="Times New Roman,serif" font-size="14.00">orass</text>
</g>
<!-- n18693&#45;&gt;n18697 -->
<g id="edge20" class="edge"><title>n18693&#45;&gt;n18697</title>
</g>
<!-- n18691&#45;&gt;n18693 -->
<g id="edge5" class="edge"><title>n18691&#45;&gt;n18693</title>
<path fill="none" stroke="lightgray" d="M49.4688,-277.901C70.0749,-268.207 101.53,-253.41 125.588,-242.092"/>
<polygon fill="lightgray" stroke="lightgray" points="127.177,-245.213 134.736,-237.789 124.197,-238.879 127.177,-245.213"/>
<text text-anchor="middle" x="90.5" y="-269.8" font-family="Times New Roman,serif" font-size="14.00" fill="lightgray">wff ps</text>
</g>
<!-- n18692 -->
<g id="node8" class="node"><title>n18692</title>
</g>
<!-- n18691&#45;&gt;n18692 -->
<g id="edge9" class="edge"><title>n18691&#45;&gt;n18692</title>
</g>
<!-- n18692&#45;&gt;n18693 -->
<g id="edge6" class="edge"><title>n18692&#45;&gt;n18693</title>
<path fill="none" stroke="lightgray" d="M54.0388,-217.976C72.0082,-219.339 96.3114,-221.183 117.089,-222.76"/>
<polygon fill="lightgray" stroke="lightgray" points="117.035,-226.265 127.271,-223.532 117.564,-219.285 117.035,-226.265"/>
<text text-anchor="middle" x="90.5" y="-224.8" font-family="Times New Roman,serif" font-size="14.00" fill="lightgray">wff ch</text>
</g>
<!-- n18694 -->
<g id="node9" class="node"><title>n18694</title>
</g>
<!-- n18694&#45;&gt;n18697 -->
<g id="edge10" class="edge"><title>n18694&#45;&gt;n18697</title>
<path fill="none" stroke="lightgray" d="M54.0388,-160.419C72.8639,-159.277 98.6403,-157.712 120.032,-156.414"/>
<polygon fill="lightgray" stroke="lightgray" points="120.362,-159.9 130.132,-155.801 119.938,-152.913 120.362,-159.9"/>
<text text-anchor="middle" x="90.5" y="-163.8" font-family="Times New Roman,serif" font-size="14.00" fill="lightgray">wff ph</text>
</g>
<!-- n18695 -->
<g id="node11" class="node"><title>n18695</title>
</g>
<!-- n18694&#45;&gt;n18695 -->
<g id="edge14" class="edge"><title>n18694&#45;&gt;n18695</title>
</g>
<!-- n18697&#45;&gt;n18698 -->
<g id="edge13" class="edge"><title>n18697&#45;&gt;n18698</title>
<path fill="none" stroke="black" d="M191.28,-151.171C251.442,-146.997 390.046,-145.74 477.594,-211 497.008,-225.472 508.465,-250.939 514.795,-270.593"/>
<polygon fill="black" stroke="black" points="511.459,-271.655 517.653,-280.251 518.172,-269.669 511.459,-271.655"/>
<text text-anchor="middle" x="345.094" y="-214.8" font-family="Times New Roman,serif" font-size="14.00">|&#45; ( ( ( ph \/ ps ) \/ ch ) &lt;&#45;&gt; ( ph \/ ( ps \/ ch ) ) )</text>
</g>
<!-- n18695&#45;&gt;n18697 -->
<g id="edge11" class="edge"><title>n18695&#45;&gt;n18697</title>
<path fill="none" stroke="lightgray" d="M49.1755,-100.283C70.2456,-110.514 102.865,-126.354 127.232,-138.186"/>
<polygon fill="lightgray" stroke="lightgray" points="125.928,-141.444 136.453,-142.664 128.986,-135.147 125.928,-141.444"/>
<text text-anchor="middle" x="90.5" y="-131.8" font-family="Times New Roman,serif" font-size="14.00" fill="lightgray">wff ps</text>
</g>
<!-- n18696 -->
<g id="node12" class="node"><title>n18696</title>
</g>
<!-- n18695&#45;&gt;n18696 -->
<g id="edge15" class="edge"><title>n18695&#45;&gt;n18696</title>
</g>
<!-- n18696&#45;&gt;n18697 -->
<g id="edge12" class="edge"><title>n18696&#45;&gt;n18697</title>
<path fill="none" stroke="lightgray" d="M44.039,-32.0557C60.7608,-46.9352 87.4815,-71.3543 109,-94 119.788,-105.353 131.111,-118.584 140.322,-129.728"/>
<polygon fill="lightgray" stroke="lightgray" points="137.868,-132.255 146.91,-137.777 143.285,-127.821 137.868,-132.255"/>
<text text-anchor="middle" x="90.5" y="-97.8" font-family="Times New Roman,serif" font-size="14.00" fill="lightgray">wff ch</text>
</g>
</g>
</svg>
