<?xml version="1.0" encoding="UTF-8" standalone="no"?>
<!DOCTYPE svg PUBLIC "-//W3C//DTD SVG 1.1//EN"
 "http://www.w3.org/Graphics/SVG/1.1/DTD/svg11.dtd">
<!-- Generated by graphviz version 2.38.0 (20140413.2041)
 -->
<!-- Title: proof_4exmid Pages: 1 -->
<svg width="1824pt" height="562pt"
 viewBox="0.00 0.00 1823.58 562.00" xmlns="http://www.w3.org/2000/svg" xmlns:xlink="http://www.w3.org/1999/xlink">
<g id="graph0" class="graph" transform="scale(1 1) rotate(0) translate(4 558)">
<title>proof_4exmid</title>
<polygon fill="white" stroke="none" points="-4,4 -4,-558 1819.58,-558 1819.58,4 -4,4"/>
<!-- n16975 -->
<g id="node1" class="node"><title>n16975</title>
</g>
<!-- n17031 -->
<g id="node2" class="node"><title>n17031</title>
<ellipse fill="cyan" stroke="black" cx="1300.84" cy="-406" rx="29.4969" ry="18"/>
<text text-anchor="middle" x="1300.84" y="-402.3" font-family="Times New Roman,serif" font-size="14.00">mpbi</text>
</g>
<!-- n16975&#45;&gt;n17031 -->
<g id="edge1" class="edge"><title>n16975&#45;&gt;n17031</title>
<path fill="none" stroke="lightgray" d="M600.429,-519.462C693.521,-534.636 1024.13,-577.061 1253.59,-460 1266.17,-453.582 1276.74,-442.115 1284.59,-431.393"/>
<polygon fill="lightgray" stroke="lightgray" points="1287.53,-433.296 1290.28,-423.065 1281.75,-429.344 1287.53,-433.296"/>
<text text-anchor="middle" x="941.088" y="-542.8" font-family="Times New Roman,serif" font-size="14.00" fill="lightgray">wff ( ( ph &lt;&#45;&gt; ps ) \/ &#45;. ( ph &lt;&#45;&gt; ps ) )</text>
</g>
<!-- n16994 -->
<g id="node3" class="node"><title>n16994</title>
</g>
<!-- n16975&#45;&gt;n16994 -->
<g id="edge24" class="edge"><title>n16975&#45;&gt;n16994</title>
</g>
<!-- QED -->
<g id="node17" class="node"><title>QED</title>
</g>
<!-- n17031&#45;&gt;QED -->
<g id="edge23" class="edge"><title>n17031&#45;&gt;QED</title>
<path fill="none" stroke="black" d="M1330.28,-406C1412.82,-406 1652.54,-406 1746.7,-406"/>
<polygon fill="black" stroke="black" points="1746.93,-409.5 1756.93,-406 1746.93,-402.5 1746.93,-409.5"/>
<text text-anchor="middle" x="1543.58" y="-409.8" font-family="Times New Roman,serif" font-size="14.00">|&#45; ( ( ( ph /\ ps ) \/ ( &#45;. ph /\ &#45;. ps ) ) \/ ( ( ph /\ &#45;. ps ) \/ ( ps /\ &#45;. ph ) ) )</text>
</g>
<!-- n16994&#45;&gt;n17031 -->
<g id="edge2" class="edge"><title>n16994&#45;&gt;n17031</title>
<path fill="none" stroke="lightgray" d="M601.436,-442.588C692.063,-440.996 1000.19,-434.188 1253.59,-412 1256.29,-411.763 1259.08,-411.485 1261.89,-411.182"/>
<polygon fill="lightgray" stroke="lightgray" points="1262.47,-414.637 1272,-409.993 1261.66,-407.685 1262.47,-414.637"/>
<text text-anchor="middle" x="941.088" y="-444.8" font-family="Times New Roman,serif" font-size="14.00" fill="lightgray">wff ( ( ( ph /\ ps ) \/ ( &#45;. ph /\ &#45;. ps ) ) \/ ( ( ph /\ &#45;. ps ) \/ ( ps /\ &#45;. ph ) ) )</text>
</g>
<!-- n16998 -->
<g id="node5" class="node"><title>n16998</title>
<ellipse fill="cyan" stroke="black" cx="574.191" cy="-371" rx="32.4942" ry="18"/>
<text text-anchor="middle" x="574.191" y="-367.3" font-family="Times New Roman,serif" font-size="14.00">exmid</text>
</g>
<!-- n16994&#45;&gt;n16998 -->
<g id="edge25" class="edge"><title>n16994&#45;&gt;n16998</title>
</g>
<!-- n16997 -->
<g id="node4" class="node"><title>n16997</title>
</g>
<!-- n16997&#45;&gt;n16998 -->
<g id="edge3" class="edge"><title>n16997&#45;&gt;n16998</title>
<path fill="none" stroke="lightgray" d="M184.107,-498.739C246.775,-501.673 408.355,-501.911 519.795,-437 522.155,-435.625 539.698,-413.698 554.042,-395.489"/>
<polygon fill="lightgray" stroke="lightgray" points="556.915,-397.498 560.341,-387.472 551.41,-393.173 556.915,-397.498"/>
<text text-anchor="middle" x="362.295" y="-502.8" font-family="Times New Roman,serif" font-size="14.00" fill="lightgray">wff ( ph &lt;&#45;&gt; ps )</text>
</g>
<!-- n16998&#45;&gt;n17031 -->
<g id="edge4" class="edge"><title>n16998&#45;&gt;n17031</title>
<path fill="none" stroke="black" d="M606.769,-370.489C703.74,-369.289 1005.67,-368.299 1253.59,-397 1256.66,-397.355 1259.83,-397.802 1263,-398.305"/>
<polygon fill="black" stroke="black" points="1262.59,-401.786 1273.04,-400.062 1263.8,-394.89 1262.59,-401.786"/>
<text text-anchor="middle" x="941.088" y="-400.8" font-family="Times New Roman,serif" font-size="14.00">|&#45; ( ( ph &lt;&#45;&gt; ps ) \/ &#45;. ( ph &lt;&#45;&gt; ps ) )</text>
</g>
<!-- n17030 -->
<g id="node7" class="node"><title>n17030</title>
<ellipse fill="cyan" stroke="black" cx="574.191" cy="-299" rx="36.2938" ry="18"/>
<text text-anchor="middle" x="574.191" y="-295.3" font-family="Times New Roman,serif" font-size="14.00">orbi12i</text>
</g>
<!-- n16998&#45;&gt;n17030 -->
<g id="edge26" class="edge"><title>n16998&#45;&gt;n17030</title>
</g>
<!-- n17001 -->
<g id="node6" class="node"><title>n17001</title>
</g>
<!-- n17001&#45;&gt;n17030 -->
<g id="edge5" class="edge"><title>n17001&#45;&gt;n17030</title>
<path fill="none" stroke="lightgray" d="M176.725,-430.264C184.99,-425.294 195.023,-420.063 204.795,-417 271.934,-395.957 462.907,-426.405 519.795,-385 535.885,-373.289 527.561,-361.068 537.795,-344 542.035,-336.927 547.245,-329.712 552.351,-323.19"/>
<polygon fill="lightgray" stroke="lightgray" points="555.115,-325.338 558.681,-315.362 549.672,-320.937 555.115,-325.338"/>
<text text-anchor="middle" x="362.295" y="-420.8" font-family="Times New Roman,serif" font-size="14.00" fill="lightgray">wff ( ph &lt;&#45;&gt; ps )</text>
</g>
<!-- n17010 -->
<g id="node8" class="node"><title>n17010</title>
</g>
<!-- n17001&#45;&gt;n17010 -->
<g id="edge18" class="edge"><title>n17001&#45;&gt;n17010</title>
</g>
<!-- n17030&#45;&gt;n17031 -->
<g id="edge17" class="edge"><title>n17030&#45;&gt;n17031</title>
<path fill="none" stroke="black" d="M608.679,-292.949C711.761,-276.042 1030.78,-236.681 1253.59,-351 1266.38,-357.561 1277.02,-369.355 1284.86,-380.344"/>
<polygon fill="black" stroke="black" points="1282.08,-382.483 1290.53,-388.868 1287.91,-378.604 1282.08,-382.483"/>
<text text-anchor="middle" x="941.088" y="-354.8" font-family="Times New Roman,serif" font-size="14.00">|&#45; ( ( ( ph &lt;&#45;&gt; ps ) \/ &#45;. ( ph &lt;&#45;&gt; ps ) ) &lt;&#45;&gt; ( ( ( ph /\ ps ) \/ ( &#45;. ph /\ &#45;. ps ) ) \/ ( ( ph /\ &#45;. ps ) \/ ( ps /\ &#45;. ph ) ) ) )</text>
</g>
<!-- n17010&#45;&gt;n17030 -->
<g id="edge6" class="edge"><title>n17010&#45;&gt;n17030</title>
<path fill="none" stroke="lightgray" d="M184.129,-368.938C244.231,-363.828 396.238,-348.713 519.795,-318 524.915,-316.727 530.234,-315.154 535.442,-313.462"/>
<polygon fill="lightgray" stroke="lightgray" points="536.914,-316.658 545.242,-310.109 534.648,-310.035 536.914,-316.658"/>
<text text-anchor="middle" x="362.295" y="-369.8" font-family="Times New Roman,serif" font-size="14.00" fill="lightgray">wff ( ( ph /\ ps ) \/ ( &#45;. ph /\ &#45;. ps ) )</text>
</g>
<!-- n17014 -->
<g id="node9" class="node"><title>n17014</title>
</g>
<!-- n17010&#45;&gt;n17014 -->
<g id="edge19" class="edge"><title>n17010&#45;&gt;n17014</title>
</g>
<!-- n17014&#45;&gt;n17030 -->
<g id="edge7" class="edge"><title>n17014&#45;&gt;n17030</title>
<path fill="none" stroke="lightgray" d="M184.191,-299C253.239,-299 440.378,-299 527.467,-299"/>
<polygon fill="lightgray" stroke="lightgray" points="527.577,-302.5 537.577,-299 527.577,-295.5 527.577,-302.5"/>
<text text-anchor="middle" x="362.295" y="-302.8" font-family="Times New Roman,serif" font-size="14.00" fill="lightgray">wff &#45;. ( ph &lt;&#45;&gt; ps )</text>
</g>
<!-- n17023 -->
<g id="node10" class="node"><title>n17023</title>
</g>
<!-- n17014&#45;&gt;n17023 -->
<g id="edge20" class="edge"><title>n17014&#45;&gt;n17023</title>
</g>
<!-- n17023&#45;&gt;n17030 -->
<g id="edge8" class="edge"><title>n17023&#45;&gt;n17030</title>
<path fill="none" stroke="lightgray" d="M184.129,-229.062C244.231,-234.172 396.238,-249.287 519.795,-280 524.915,-281.273 530.234,-282.846 535.442,-284.538"/>
<polygon fill="lightgray" stroke="lightgray" points="534.648,-287.965 545.242,-287.891 536.914,-281.342 534.648,-287.965"/>
<text text-anchor="middle" x="362.295" y="-283.8" font-family="Times New Roman,serif" font-size="14.00" fill="lightgray">wff ( ( ph /\ &#45;. ps ) \/ ( ps /\ &#45;. ph ) )</text>
</g>
<!-- n17026 -->
<g id="node12" class="node"><title>n17026</title>
<ellipse fill="cyan" stroke="black" cx="156.897" cy="-155" rx="29.795" ry="18"/>
<text text-anchor="middle" x="156.897" y="-151.3" font-family="Times New Roman,serif" font-size="14.00">dfbi3</text>
</g>
<!-- n17023&#45;&gt;n17026 -->
<g id="edge21" class="edge"><title>n17023&#45;&gt;n17026</title>
</g>
<!-- n17024 -->
<g id="node11" class="node"><title>n17024</title>
</g>
<!-- n17024&#45;&gt;n17026 -->
<g id="edge9" class="edge"><title>n17024&#45;&gt;n17026</title>
<path fill="none" stroke="lightgray" d="M49.1196,-207.597C69.4485,-197.583 100.464,-182.305 123.839,-170.791"/>
<polygon fill="lightgray" stroke="lightgray" points="125.594,-173.829 133.018,-166.27 122.501,-167.549 125.594,-173.829"/>
<text text-anchor="middle" x="90.5" y="-199.8" font-family="Times New Roman,serif" font-size="14.00" fill="lightgray">wff ph</text>
</g>
<!-- n17025 -->
<g id="node13" class="node"><title>n17025</title>
</g>
<!-- n17024&#45;&gt;n17025 -->
<g id="edge12" class="edge"><title>n17024&#45;&gt;n17025</title>
</g>
<!-- n17026&#45;&gt;n17030 -->
<g id="edge11" class="edge"><title>n17026&#45;&gt;n17030</title>
<path fill="none" stroke="black" d="M186.573,-152.032C251.747,-146.782 413.573,-142.334 519.795,-213 540.824,-226.99 555.071,-252.377 563.522,-271.955"/>
<polygon fill="black" stroke="black" points="560.311,-273.348 567.315,-281.297 566.797,-270.715 560.311,-273.348"/>
<text text-anchor="middle" x="362.295" y="-216.8" font-family="Times New Roman,serif" font-size="14.00">|&#45; ( ( ph &lt;&#45;&gt; ps ) &lt;&#45;&gt; ( ( ph /\ ps ) \/ ( &#45;. ph /\ &#45;. ps ) ) )</text>
</g>
<!-- n17029 -->
<g id="node15" class="node"><title>n17029</title>
<ellipse fill="cyan" stroke="black" cx="156.897" cy="-83" rx="27" ry="18"/>
<text text-anchor="middle" x="156.897" y="-79.3" font-family="Times New Roman,serif" font-size="14.00">xor</text>
</g>
<!-- n17026&#45;&gt;n17029 -->
<g id="edge22" class="edge"><title>n17026&#45;&gt;n17029</title>
</g>
<!-- n17025&#45;&gt;n17026 -->
<g id="edge10" class="edge"><title>n17025&#45;&gt;n17026</title>
<path fill="none" stroke="lightgray" d="M53.8819,-147.821C71.9076,-149.09 96.2777,-150.805 116.679,-152.24"/>
<polygon fill="lightgray" stroke="lightgray" points="116.709,-155.751 126.93,-152.962 117.201,-148.768 116.709,-155.751"/>
<text text-anchor="middle" x="90.5" y="-155.8" font-family="Times New Roman,serif" font-size="14.00" fill="lightgray">wff ps</text>
</g>
<!-- n17027 -->
<g id="node14" class="node"><title>n17027</title>
</g>
<!-- n17027&#45;&gt;n17029 -->
<g id="edge13" class="edge"><title>n17027&#45;&gt;n17029</title>
<path fill="none" stroke="lightgray" d="M54.1906,-88.5666C73.0714,-87.5332 98.794,-86.1253 119.646,-84.9841"/>
<polygon fill="lightgray" stroke="lightgray" points="119.948,-88.4729 129.742,-84.4315 119.565,-81.4833 119.948,-88.4729"/>
<text text-anchor="middle" x="90.5" y="-91.8" font-family="Times New Roman,serif" font-size="14.00" fill="lightgray">wff ph</text>
</g>
<!-- n17028 -->
<g id="node16" class="node"><title>n17028</title>
</g>
<!-- n17027&#45;&gt;n17028 -->
<g id="edge16" class="edge"><title>n17027&#45;&gt;n17028</title>
</g>
<!-- n17029&#45;&gt;n17030 -->
<g id="edge15" class="edge"><title>n17029&#45;&gt;n17030</title>
<path fill="none" stroke="black" d="M182.935,-78.1009C247.208,-67.0659 419.965,-47.347 519.795,-131 561.214,-165.707 570.899,-232.459 572.922,-270.54"/>
<polygon fill="black" stroke="black" points="569.439,-271.063 573.32,-280.921 576.434,-270.794 569.439,-271.063"/>
<text text-anchor="middle" x="362.295" y="-134.8" font-family="Times New Roman,serif" font-size="14.00">|&#45; ( &#45;. ( ph &lt;&#45;&gt; ps ) &lt;&#45;&gt; ( ( ph /\ &#45;. ps ) \/ ( ps /\ &#45;. ph ) ) )</text>
</g>
<!-- n17028&#45;&gt;n17029 -->
<g id="edge14" class="edge"><title>n17028&#45;&gt;n17029</title>
<path fill="none" stroke="lightgray" d="M49.1196,-28.7334C69.9474,-39.3185 101.993,-55.6047 125.546,-67.5749"/>
<polygon fill="lightgray" stroke="lightgray" points="124.246,-70.8401 134.746,-72.2506 127.417,-64.5997 124.246,-70.8401"/>
<text text-anchor="middle" x="90.5" y="-62.8" font-family="Times New Roman,serif" font-size="14.00" fill="lightgray">wff ps</text>
</g>
</g>
</svg>
