<?xml version="1.0" encoding="UTF-8" standalone="no"?>
<!DOCTYPE svg PUBLIC "-//W3C//DTD SVG 1.1//EN"
 "http://www.w3.org/Graphics/SVG/1.1/DTD/svg11.dtd">
<!-- Generated by graphviz version 2.38.0 (20140413.2041)
 -->
<!-- Title: proof_a1d Pages: 1 -->
<svg width="632pt" height="367pt"
 viewBox="0.00 0.00 631.59 367.00" xmlns="http://www.w3.org/2000/svg" xmlns:xlink="http://www.w3.org/1999/xlink">
<g id="graph0" class="graph" transform="scale(1 1) rotate(0) translate(4 363)">
<title>proof_a1d</title>
<polygon fill="white" stroke="none" points="-4,4 -4,-363 627.589,-363 627.589,4 -4,4"/>
<!-- n183 -->
<g id="node1" class="node"><title>n183</title>
</g>
<!-- n192 -->
<g id="node2" class="node"><title>n192</title>
<ellipse fill="cyan" stroke="black" cx="376.095" cy="-197" rx="27" ry="18"/>
<text text-anchor="middle" x="376.095" y="-193.3" font-family="Times New Roman,serif" font-size="14.00">syl</text>
</g>
<!-- n183&#45;&gt;n192 -->
<g id="edge1" class="edge"><title>n183&#45;&gt;n192</title>
<path fill="none" stroke="lightgray" d="M183.854,-336.711C220.142,-329.438 287.388,-311.644 331.095,-274 346.552,-260.687 357.796,-240.527 365.047,-224.175"/>
<polygon fill="lightgray" stroke="lightgray" points="368.429,-225.158 369.047,-214.581 361.968,-222.464 368.429,-225.158"/>
<text text-anchor="middle" x="268.595" y="-333.8" font-family="Times New Roman,serif" font-size="14.00" fill="lightgray">wff ph</text>
</g>
<!-- n184 -->
<g id="node3" class="node"><title>n184</title>
</g>
<!-- n183&#45;&gt;n184 -->
<g id="edge10" class="edge"><title>n183&#45;&gt;n184</title>
</g>
<!-- QED -->
<g id="node9" class="node"><title>QED</title>
</g>
<!-- n192&#45;&gt;QED -->
<g id="edge9" class="edge"><title>n192&#45;&gt;QED</title>
<path fill="none" stroke="black" d="M403.179,-197C440.85,-197 510.753,-197 554.505,-197"/>
<polygon fill="black" stroke="black" points="554.761,-200.5 564.761,-197 554.761,-193.5 554.761,-200.5"/>
<text text-anchor="middle" x="484.095" y="-200.8" font-family="Times New Roman,serif" font-size="14.00">|&#45; ( ph &#45;&gt; ( ch &#45;&gt; ps ) )</text>
</g>
<!-- n184&#45;&gt;n192 -->
<g id="edge2" class="edge"><title>n184&#45;&gt;n192</title>
<path fill="none" stroke="lightgray" d="M182.831,-262.449C216.485,-253.166 279.044,-235.167 331.095,-216 335.338,-214.438 339.762,-212.682 344.1,-210.886"/>
<polygon fill="lightgray" stroke="lightgray" points="345.521,-214.085 353.353,-206.949 342.781,-207.644 345.521,-214.085"/>
<text text-anchor="middle" x="268.595" y="-258.8" font-family="Times New Roman,serif" font-size="14.00" fill="lightgray">wff ps</text>
</g>
<!-- n187 -->
<g id="node4" class="node"><title>n187</title>
</g>
<!-- n184&#45;&gt;n187 -->
<g id="edge11" class="edge"><title>n184&#45;&gt;n187</title>
</g>
<!-- n187&#45;&gt;n192 -->
<g id="edge3" class="edge"><title>n187&#45;&gt;n192</title>
<path fill="none" stroke="lightgray" d="M184.668,-197C223.119,-197 295.103,-197 338.709,-197"/>
<polygon fill="lightgray" stroke="lightgray" points="338.881,-200.5 348.881,-197 338.881,-193.5 338.881,-200.5"/>
<text text-anchor="middle" x="268.595" y="-200.8" font-family="Times New Roman,serif" font-size="14.00" fill="lightgray">wff ( ch &#45;&gt; ps )</text>
</g>
<!-- n188 -->
<g id="node5" class="node"><title>n188</title>
<ellipse fill="orange" stroke="black" cx="157.547" cy="-125" rx="30.5947" ry="18"/>
<text text-anchor="middle" x="157.547" y="-121.3" font-family="Times New Roman,serif" font-size="14.00">a1d.1</text>
</g>
<!-- n187&#45;&gt;n188 -->
<g id="edge12" class="edge"><title>n187&#45;&gt;n188</title>
</g>
<!-- n188&#45;&gt;n192 -->
<g id="edge4" class="edge"><title>n188&#45;&gt;n192</title>
<path fill="none" stroke="black" d="M185.751,-132.358C220.011,-141.852 280.514,-159.375 331.095,-178 335.338,-179.562 339.762,-181.318 344.1,-183.114"/>
<polygon fill="black" stroke="black" points="342.781,-186.356 353.353,-187.051 345.521,-179.915 342.781,-186.356"/>
<text text-anchor="middle" x="268.595" y="-181.8" font-family="Times New Roman,serif" font-size="14.00">|&#45; ( ph &#45;&gt; ps )</text>
</g>
<!-- n191 -->
<g id="node7" class="node"><title>n191</title>
<ellipse fill="lawngreen" stroke="black" cx="157.547" cy="-53" rx="27" ry="18"/>
<text text-anchor="middle" x="157.547" y="-49.3" font-family="Times New Roman,serif" font-size="14.00">ax&#45;1</text>
</g>
<!-- n188&#45;&gt;n191 -->
<g id="edge13" class="edge"><title>n188&#45;&gt;n191</title>
</g>
<!-- n189 -->
<g id="node6" class="node"><title>n189</title>
</g>
<!-- n189&#45;&gt;n191 -->
<g id="edge5" class="edge"><title>n189&#45;&gt;n191</title>
<path fill="none" stroke="lightgray" d="M52.1788,-83.0406C72.1087,-77.3041 100.602,-69.1028 122.783,-62.7184"/>
<polygon fill="lightgray" stroke="lightgray" points="123.835,-66.0577 132.477,-59.9282 121.899,-59.3309 123.835,-66.0577"/>
<text text-anchor="middle" x="90.5" y="-80.8" font-family="Times New Roman,serif" font-size="14.00" fill="lightgray">wff ps</text>
</g>
<!-- n190 -->
<g id="node8" class="node"><title>n190</title>
</g>
<!-- n189&#45;&gt;n190 -->
<g id="edge8" class="edge"><title>n189&#45;&gt;n190</title>
</g>
<!-- n191&#45;&gt;n192 -->
<g id="edge7" class="edge"><title>n191&#45;&gt;n192</title>
<path fill="none" stroke="black" d="M183.854,-57.2886C220.142,-64.5619 287.388,-82.3561 331.095,-120 346.552,-133.313 357.796,-153.473 365.047,-169.825"/>
<polygon fill="black" stroke="black" points="361.968,-171.536 369.047,-179.419 368.429,-168.842 361.968,-171.536"/>
<text text-anchor="middle" x="268.595" y="-123.8" font-family="Times New Roman,serif" font-size="14.00">|&#45; ( ps &#45;&gt; ( ch &#45;&gt; ps ) )</text>
</g>
<!-- n190&#45;&gt;n191 -->
<g id="edge6" class="edge"><title>n190&#45;&gt;n191</title>
<path fill="none" stroke="lightgray" d="M52.1788,-24.5832C71.9825,-29.9753 100.242,-37.6695 122.361,-43.6921"/>
<polygon fill="lightgray" stroke="lightgray" points="121.472,-47.0772 132.04,-46.3273 123.311,-40.3231 121.472,-47.0772"/>
<text text-anchor="middle" x="90.5" y="-43.8" font-family="Times New Roman,serif" font-size="14.00" fill="lightgray">wff ch</text>
</g>
</g>
</svg>
