<?xml version="1.0" encoding="UTF-8" standalone="no"?>
<!DOCTYPE svg PUBLIC "-//W3C//DTD SVG 1.1//EN"
 "http://www.w3.org/Graphics/SVG/1.1/DTD/svg11.dtd">
<!-- Generated by graphviz version 2.38.0 (20140413.2041)
 -->
<!-- Title: proof_ad10antr Pages: 1 -->
<svg width="1441pt" height="836pt"
 viewBox="0.00 0.00 1441.37 836.00" xmlns="http://www.w3.org/2000/svg" xmlns:xlink="http://www.w3.org/1999/xlink">
<g id="graph0" class="graph" transform="scale(1 1) rotate(0) translate(4 832)">
<title>proof_ad10antr</title>
<polygon fill="white" stroke="none" points="-4,4 -4,-832 1437.37,-832 1437.37,4 -4,4"/>
<!-- n12661 -->
<g id="node1" class="node"><title>n12661</title>
</g>
<!-- n12677 -->
<g id="node2" class="node"><title>n12677</title>
<ellipse fill="cyan" stroke="black" cx="800.733" cy="-520" rx="33.2948" ry="18"/>
<text text-anchor="middle" x="800.733" y="-516.3" font-family="Times New Roman,serif" font-size="14.00">adantr</text>
</g>
<!-- n12661&#45;&gt;n12677 -->
<g id="edge1" class="edge"><title>n12661&#45;&gt;n12677</title>
<path fill="none" stroke="lightgray" d="M259.475,-632.157C337.706,-640.617 578.764,-657.763 749.586,-573 762.479,-566.602 773.806,-555.443 782.417,-545.009"/>
<polygon fill="lightgray" stroke="lightgray" points="785.345,-546.945 788.719,-536.901 779.819,-542.649 785.345,-546.945"/>
<text text-anchor="middle" x="519.086" y="-642.8" font-family="Times New Roman,serif" font-size="14.00" fill="lightgray">wff ( ( ( ( ( ( ( ( ( ph /\ ch ) /\ th ) /\ ta ) /\ et ) /\ ze ) /\ si ) /\ rh ) /\ mu ) /\ la )</text>
</g>
<!-- n12662 -->
<g id="node3" class="node"><title>n12662</title>
</g>
<!-- n12661&#45;&gt;n12662 -->
<g id="edge29" class="edge"><title>n12661&#45;&gt;n12662</title>
</g>
<!-- QED -->
<g id="node18" class="node"><title>QED</title>
</g>
<!-- n12677&#45;&gt;QED -->
<g id="edge28" class="edge"><title>n12677&#45;&gt;QED</title>
<path fill="none" stroke="black" d="M834.067,-520C936.525,-520 1253.75,-520 1364.5,-520"/>
<polygon fill="black" stroke="black" points="1364.56,-523.5 1374.56,-520 1364.56,-516.5 1364.56,-523.5"/>
<text text-anchor="middle" x="1104.38" y="-523.8" font-family="Times New Roman,serif" font-size="14.00">|&#45; ( ( ( ( ( ( ( ( ( ( ( ph /\ ch ) /\ th ) /\ ta ) /\ et ) /\ ze ) /\ si ) /\ rh ) /\ mu ) /\ la ) /\ ka ) &#45;&gt; ps )</text>
</g>
<!-- n12662&#45;&gt;n12677 -->
<g id="edge2" class="edge"><title>n12662&#45;&gt;n12677</title>
<path fill="none" stroke="lightgray" d="M259.956,-555.978C335.689,-552.891 562.21,-542.827 749.586,-526 752.411,-525.746 755.322,-525.461 758.253,-525.156"/>
<polygon fill="lightgray" stroke="lightgray" points="758.64,-528.635 768.197,-524.061 757.874,-521.677 758.64,-528.635"/>
<text text-anchor="middle" x="519.086" y="-557.8" font-family="Times New Roman,serif" font-size="14.00" fill="lightgray">wff ps</text>
</g>
<!-- n12663 -->
<g id="node4" class="node"><title>n12663</title>
</g>
<!-- n12662&#45;&gt;n12663 -->
<g id="edge30" class="edge"><title>n12662&#45;&gt;n12663</title>
</g>
<!-- n12663&#45;&gt;n12677 -->
<g id="edge3" class="edge"><title>n12663&#45;&gt;n12677</title>
<path fill="none" stroke="lightgray" d="M260.012,-485.145C335.894,-485.819 562.777,-489.615 749.586,-511 752.793,-511.367 756.106,-511.813 759.428,-512.307"/>
<polygon fill="lightgray" stroke="lightgray" points="758.898,-515.766 769.328,-513.904 760.013,-508.856 758.898,-515.766"/>
<text text-anchor="middle" x="519.086" y="-514.8" font-family="Times New Roman,serif" font-size="14.00" fill="lightgray">wff ka</text>
</g>
<!-- n12676 -->
<g id="node6" class="node"><title>n12676</title>
<ellipse fill="cyan" stroke="black" cx="232.889" cy="-413" rx="37.8943" ry="18"/>
<text text-anchor="middle" x="232.889" y="-409.3" font-family="Times New Roman,serif" font-size="14.00">ad9antr</text>
</g>
<!-- n12663&#45;&gt;n12676 -->
<g id="edge31" class="edge"><title>n12663&#45;&gt;n12676</title>
</g>
<!-- n12664 -->
<g id="node5" class="node"><title>n12664</title>
</g>
<!-- n12664&#45;&gt;n12676 -->
<g id="edge4" class="edge"><title>n12664&#45;&gt;n12676</title>
<path fill="none" stroke="lightgray" d="M67.4967,-804.505C99.0246,-796.102 152.236,-776.774 177.193,-738 210.938,-685.571 172.404,-516.037 195.193,-458 198.198,-450.347 203.013,-443.002 208.18,-436.547"/>
<polygon fill="lightgray" stroke="lightgray" points="210.909,-438.742 214.803,-428.889 205.614,-434.163 210.909,-438.742"/>
<text text-anchor="middle" x="139.193" y="-795.8" font-family="Times New Roman,serif" font-size="14.00" fill="lightgray">wff ph</text>
</g>
<!-- n12665 -->
<g id="node7" class="node"><title>n12665</title>
</g>
<!-- n12664&#45;&gt;n12665 -->
<g id="edge17" class="edge"><title>n12664&#45;&gt;n12665</title>
</g>
<!-- n12676&#45;&gt;n12677 -->
<g id="edge16" class="edge"><title>n12676&#45;&gt;n12677</title>
<path fill="none" stroke="black" d="M269.377,-408.464C356.484,-398.998 585.665,-384.296 749.586,-466 762.817,-472.595 774.32,-484.237 782.96,-495.027"/>
<polygon fill="black" stroke="black" points="780.171,-497.143 788.99,-503.015 785.758,-492.925 780.171,-497.143"/>
<text text-anchor="middle" x="519.086" y="-469.8" font-family="Times New Roman,serif" font-size="14.00">|&#45; ( ( ( ( ( ( ( ( ( ( ph /\ ch ) /\ th ) /\ ta ) /\ et ) /\ ze ) /\ si ) /\ rh ) /\ mu ) /\ la ) &#45;&gt; ps )</text>
</g>
<!-- n12665&#45;&gt;n12676 -->
<g id="edge5" class="edge"><title>n12665&#45;&gt;n12676</title>
<path fill="none" stroke="lightgray" d="M67.3799,-732.051C98.7816,-723.088 151.857,-702.871 177.193,-664 202.285,-625.503 177.908,-500.577 195.193,-458 198.285,-450.382 203.132,-443.05 208.302,-436.595"/>
<polygon fill="lightgray" stroke="lightgray" points="211.031,-438.791 214.915,-428.933 205.731,-434.217 211.031,-438.791"/>
<text text-anchor="middle" x="139.193" y="-722.8" font-family="Times New Roman,serif" font-size="14.00" fill="lightgray">wff ps</text>
</g>
<!-- n12666 -->
<g id="node8" class="node"><title>n12666</title>
</g>
<!-- n12665&#45;&gt;n12666 -->
<g id="edge18" class="edge"><title>n12665&#45;&gt;n12666</title>
</g>
<!-- n12666&#45;&gt;n12676 -->
<g id="edge6" class="edge"><title>n12666&#45;&gt;n12676</title>
<path fill="none" stroke="lightgray" d="M66.8429,-659.395C97.9175,-649.567 150.906,-627.934 177.193,-589 210.078,-540.293 171.749,-511.891 195.193,-458 198.473,-450.46 203.388,-443.157 208.563,-436.705"/>
<polygon fill="lightgray" stroke="lightgray" points="211.291,-438.9 215.154,-429.034 205.982,-434.338 211.291,-438.9"/>
<text text-anchor="middle" x="139.193" y="-648.8" font-family="Times New Roman,serif" font-size="14.00" fill="lightgray">wff ch</text>
</g>
<!-- n12667 -->
<g id="node9" class="node"><title>n12667</title>
</g>
<!-- n12666&#45;&gt;n12667 -->
<g id="edge19" class="edge"><title>n12666&#45;&gt;n12667</title>
</g>
<!-- n12667&#45;&gt;n12676 -->
<g id="edge7" class="edge"><title>n12667&#45;&gt;n12676</title>
<path fill="none" stroke="lightgray" d="M66.1592,-586.427C96.2411,-575.57 147.891,-552.739 177.193,-516 194.022,-494.899 182.43,-481.783 195.193,-458 199.08,-450.755 204.216,-443.559 209.409,-437.116"/>
<polygon fill="lightgray" stroke="lightgray" points="212.142,-439.305 215.929,-429.41 206.798,-434.783 212.142,-439.305"/>
<text text-anchor="middle" x="139.193" y="-573.8" font-family="Times New Roman,serif" font-size="14.00" fill="lightgray">wff th</text>
</g>
<!-- n12668 -->
<g id="node10" class="node"><title>n12668</title>
</g>
<!-- n12667&#45;&gt;n12668 -->
<g id="edge20" class="edge"><title>n12667&#45;&gt;n12668</title>
</g>
<!-- n12668&#45;&gt;n12676 -->
<g id="edge8" class="edge"><title>n12668&#45;&gt;n12676</title>
<path fill="none" stroke="lightgray" d="M65.3912,-513.173C92.896,-502.075 140.069,-481.594 177.193,-458 187.363,-451.536 197.762,-443.427 206.725,-435.879"/>
<polygon fill="lightgray" stroke="lightgray" points="209.218,-438.35 214.504,-429.168 204.646,-433.05 209.218,-438.35"/>
<text text-anchor="middle" x="139.193" y="-500.8" font-family="Times New Roman,serif" font-size="14.00" fill="lightgray">wff ta</text>
</g>
<!-- n12669 -->
<g id="node11" class="node"><title>n12669</title>
</g>
<!-- n12668&#45;&gt;n12669 -->
<g id="edge21" class="edge"><title>n12668&#45;&gt;n12669</title>
</g>
<!-- n12669&#45;&gt;n12676 -->
<g id="edge9" class="edge"><title>n12669&#45;&gt;n12676</title>
<path fill="none" stroke="lightgray" d="M67.733,-445.087C98.2525,-439.121 150.263,-428.955 187.567,-421.664"/>
<polygon fill="lightgray" stroke="lightgray" points="188.525,-425.042 197.668,-419.689 187.182,-418.172 188.525,-425.042"/>
<text text-anchor="middle" x="139.193" y="-442.8" font-family="Times New Roman,serif" font-size="14.00" fill="lightgray">wff et</text>
</g>
<!-- n12670 -->
<g id="node12" class="node"><title>n12670</title>
</g>
<!-- n12669&#45;&gt;n12670 -->
<g id="edge22" class="edge"><title>n12669&#45;&gt;n12670</title>
</g>
<!-- n12670&#45;&gt;n12676 -->
<g id="edge10" class="edge"><title>n12670&#45;&gt;n12676</title>
<path fill="none" stroke="lightgray" d="M67.733,-382.648C98.1606,-388.274 149.95,-397.85 187.229,-404.742"/>
<polygon fill="lightgray" stroke="lightgray" points="186.859,-408.233 197.329,-406.61 188.132,-401.35 186.859,-408.233"/>
<text text-anchor="middle" x="139.193" y="-406.8" font-family="Times New Roman,serif" font-size="14.00" fill="lightgray">wff ze</text>
</g>
<!-- n12671 -->
<g id="node13" class="node"><title>n12671</title>
</g>
<!-- n12670&#45;&gt;n12671 -->
<g id="edge23" class="edge"><title>n12670&#45;&gt;n12671</title>
</g>
<!-- n12671&#45;&gt;n12676 -->
<g id="edge11" class="edge"><title>n12671&#45;&gt;n12676</title>
<path fill="none" stroke="lightgray" d="M65.2456,-315.241C92.607,-326.784 139.639,-347.853 177.193,-371 186.77,-376.903 196.686,-384.132 205.402,-390.917"/>
<polygon fill="lightgray" stroke="lightgray" points="203.334,-393.745 213.34,-397.229 207.691,-388.266 203.334,-393.745"/>
<text text-anchor="middle" x="139.193" y="-374.8" font-family="Times New Roman,serif" font-size="14.00" fill="lightgray">wff si</text>
</g>
<!-- n12672 -->
<g id="node14" class="node"><title>n12672</title>
</g>
<!-- n12671&#45;&gt;n12672 -->
<g id="edge24" class="edge"><title>n12671&#45;&gt;n12672</title>
</g>
<!-- n12672&#45;&gt;n12676 -->
<g id="edge12" class="edge"><title>n12672&#45;&gt;n12676</title>
<path fill="none" stroke="lightgray" d="M65.3233,-242.813C94.2709,-254.967 144.458,-279.26 177.193,-313 197.626,-334.061 212.74,-364.276 221.841,-385.974"/>
<polygon fill="lightgray" stroke="lightgray" points="218.608,-387.317 225.596,-395.28 225.099,-384.697 218.608,-387.317"/>
<text text-anchor="middle" x="139.193" y="-316.8" font-family="Times New Roman,serif" font-size="14.00" fill="lightgray">wff rh</text>
</g>
<!-- n12673 -->
<g id="node15" class="node"><title>n12673</title>
</g>
<!-- n12672&#45;&gt;n12673 -->
<g id="edge25" class="edge"><title>n12672&#45;&gt;n12673</title>
</g>
<!-- n12673&#45;&gt;n12676 -->
<g id="edge13" class="edge"><title>n12673&#45;&gt;n12676</title>
<path fill="none" stroke="lightgray" d="M67.1663,-170.173C97.3468,-181.441 148.108,-204.586 177.193,-241 211.366,-283.785 224.371,-348.305 229.185,-384.95"/>
<polygon fill="lightgray" stroke="lightgray" points="225.717,-385.427 230.383,-394.939 232.667,-384.593 225.717,-385.427"/>
<text text-anchor="middle" x="139.193" y="-244.8" font-family="Times New Roman,serif" font-size="14.00" fill="lightgray">wff mu</text>
</g>
<!-- n12674 -->
<g id="node16" class="node"><title>n12674</title>
</g>
<!-- n12673&#45;&gt;n12674 -->
<g id="edge26" class="edge"><title>n12673&#45;&gt;n12674</title>
</g>
<!-- n12674&#45;&gt;n12676 -->
<g id="edge14" class="edge"><title>n12674&#45;&gt;n12676</title>
<path fill="none" stroke="lightgray" d="M66.6261,-97.2162C97.2127,-107.687 149.408,-130.101 177.193,-168 225.704,-234.17 232.445,-335.516 232.617,-384.516"/>
<polygon fill="lightgray" stroke="lightgray" points="229.116,-384.677 232.558,-394.697 236.116,-384.718 229.116,-384.677"/>
<text text-anchor="middle" x="139.193" y="-171.8" font-family="Times New Roman,serif" font-size="14.00" fill="lightgray">wff la</text>
</g>
<!-- n12675 -->
<g id="node17" class="node"><title>n12675</title>
<ellipse fill="orange" stroke="black" cx="41.5963" cy="-18" rx="41.6928" ry="18"/>
<text text-anchor="middle" x="41.5963" y="-14.3" font-family="Times New Roman,serif" font-size="14.00">ad2ant.1</text>
</g>
<!-- n12674&#45;&gt;n12675 -->
<g id="edge27" class="edge"><title>n12674&#45;&gt;n12675</title>
</g>
<!-- n12675&#45;&gt;n12676 -->
<g id="edge15" class="edge"><title>n12675&#45;&gt;n12676</title>
<path fill="none" stroke="black" d="M76.8296,-27.6955C108.092,-38.4068 153.009,-58.8272 177.193,-93 210.415,-139.945 225.429,-315.408 230.152,-384.646"/>
<polygon fill="black" stroke="black" points="226.672,-385.063 230.823,-394.811 233.657,-384.602 226.672,-385.063"/>
<text text-anchor="middle" x="139.193" y="-96.8" font-family="Times New Roman,serif" font-size="14.00">|&#45; ( ph &#45;&gt; ps )</text>
</g>
</g>
</svg>
