<?xml version="1.0" encoding="UTF-8" standalone="no"?>
<!DOCTYPE svg PUBLIC "-//W3C//DTD SVG 1.1//EN"
 "http://www.w3.org/Graphics/SVG/1.1/DTD/svg11.dtd">
<!-- Generated by graphviz version 2.38.0 (20140413.2041)
 -->
<!-- Title: proof_ad2ant2rl Pages: 1 -->
<svg width="894pt" height="476pt"
 viewBox="0.00 0.00 894.17 476.00" xmlns="http://www.w3.org/2000/svg" xmlns:xlink="http://www.w3.org/1999/xlink">
<g id="graph0" class="graph" transform="scale(1 1) rotate(0) translate(4 472)">
<title>proof_ad2ant2rl</title>
<polygon fill="white" stroke="none" points="-4,4 -4,-472 890.174,-472 890.174,4 -4,4"/>
<!-- n12752 -->
<g id="node1" class="node"><title>n12752</title>
</g>
<!-- n12764 -->
<g id="node2" class="node"><title>n12764</title>
<ellipse fill="cyan" stroke="black" cx="552.582" cy="-306" rx="35.194" ry="18"/>
<text text-anchor="middle" x="552.582" y="-302.3" font-family="Times New Roman,serif" font-size="14.00">adantlr</text>
</g>
<!-- n12752&#45;&gt;n12764 -->
<g id="edge1" class="edge"><title>n12752&#45;&gt;n12764</title>
<path fill="none" stroke="lightgray" d="M311.324,-447.812C354.336,-443.029 441.433,-428.339 499.486,-385 517.481,-371.566 531.111,-349.956 539.908,-332.731"/>
<polygon fill="lightgray" stroke="lightgray" points="543.078,-334.217 544.295,-323.692 536.78,-331.16 543.078,-334.217"/>
<text text-anchor="middle" x="418.486" y="-447.8" font-family="Times New Roman,serif" font-size="14.00" fill="lightgray">wff ph</text>
</g>
<!-- n12755 -->
<g id="node3" class="node"><title>n12755</title>
</g>
<!-- n12752&#45;&gt;n12755 -->
<g id="edge16" class="edge"><title>n12752&#45;&gt;n12755</title>
</g>
<!-- QED -->
<g id="node12" class="node"><title>QED</title>
</g>
<!-- n12764&#45;&gt;QED -->
<g id="edge15" class="edge"><title>n12764&#45;&gt;QED</title>
<path fill="none" stroke="black" d="M587.971,-306C644.768,-306 757.799,-306 817.277,-306"/>
<polygon fill="black" stroke="black" points="817.388,-309.5 827.388,-306 817.388,-302.5 817.388,-309.5"/>
<text text-anchor="middle" x="707.679" y="-309.8" font-family="Times New Roman,serif" font-size="14.00">|&#45; ( ( ( ph /\ th ) /\ ( ta /\ ps ) ) &#45;&gt; ch )</text>
</g>
<!-- n12755&#45;&gt;n12764 -->
<g id="edge2" class="edge"><title>n12755&#45;&gt;n12764</title>
<path fill="none" stroke="lightgray" d="M310.35,-372.732C350.536,-364.048 431.914,-345.621 499.486,-325 504.423,-323.493 509.579,-321.784 514.643,-320.023"/>
<polygon fill="lightgray" stroke="lightgray" points="515.95,-323.273 524.19,-316.613 513.596,-316.681 515.95,-323.273"/>
<text text-anchor="middle" x="418.486" y="-369.8" font-family="Times New Roman,serif" font-size="14.00" fill="lightgray">wff ( ta /\ ps )</text>
</g>
<!-- n12756 -->
<g id="node4" class="node"><title>n12756</title>
</g>
<!-- n12755&#45;&gt;n12756 -->
<g id="edge17" class="edge"><title>n12755&#45;&gt;n12756</title>
</g>
<!-- n12756&#45;&gt;n12764 -->
<g id="edge3" class="edge"><title>n12756&#45;&gt;n12764</title>
<path fill="none" stroke="lightgray" d="M311.397,-306C356.748,-306 450.793,-306 506.805,-306"/>
<polygon fill="lightgray" stroke="lightgray" points="507.137,-309.5 517.137,-306 507.137,-302.5 507.137,-309.5"/>
<text text-anchor="middle" x="418.486" y="-309.8" font-family="Times New Roman,serif" font-size="14.00" fill="lightgray">wff ch</text>
</g>
<!-- n12757 -->
<g id="node5" class="node"><title>n12757</title>
</g>
<!-- n12756&#45;&gt;n12757 -->
<g id="edge18" class="edge"><title>n12756&#45;&gt;n12757</title>
</g>
<!-- n12757&#45;&gt;n12764 -->
<g id="edge4" class="edge"><title>n12757&#45;&gt;n12764</title>
<path fill="none" stroke="lightgray" d="M310.35,-239.268C350.536,-247.952 431.914,-266.379 499.486,-287 504.423,-288.507 509.579,-290.216 514.643,-291.977"/>
<polygon fill="lightgray" stroke="lightgray" points="513.596,-295.319 524.19,-295.387 515.95,-288.727 513.596,-295.319"/>
<text text-anchor="middle" x="418.486" y="-290.8" font-family="Times New Roman,serif" font-size="14.00" fill="lightgray">wff th</text>
</g>
<!-- n12763 -->
<g id="node7" class="node"><title>n12763</title>
<ellipse fill="cyan" stroke="black" cx="284.389" cy="-162" rx="35.194" ry="18"/>
<text text-anchor="middle" x="284.389" y="-158.3" font-family="Times New Roman,serif" font-size="14.00">adantrl</text>
</g>
<!-- n12757&#45;&gt;n12763 -->
<g id="edge19" class="edge"><title>n12757&#45;&gt;n12763</title>
</g>
<!-- n12758 -->
<g id="node6" class="node"><title>n12758</title>
</g>
<!-- n12758&#45;&gt;n12763 -->
<g id="edge5" class="edge"><title>n12758&#45;&gt;n12763</title>
<path fill="none" stroke="lightgray" d="M72.2924,-301.507C110.27,-293.659 182.949,-274.392 231.292,-235 242.76,-225.655 240.818,-219.127 249.292,-207 253.846,-200.482 258.938,-193.576 263.77,-187.182"/>
<polygon fill="lightgray" stroke="lightgray" points="266.833,-188.938 270.122,-178.866 261.27,-184.689 266.833,-188.938"/>
<text text-anchor="middle" x="170.792" y="-294.8" font-family="Times New Roman,serif" font-size="14.00" fill="lightgray">wff ph</text>
</g>
<!-- n12759 -->
<g id="node8" class="node"><title>n12759</title>
</g>
<!-- n12758&#45;&gt;n12759 -->
<g id="edge11" class="edge"><title>n12758&#45;&gt;n12759</title>
</g>
<!-- n12763&#45;&gt;n12764 -->
<g id="edge10" class="edge"><title>n12763&#45;&gt;n12764</title>
<path fill="none" stroke="black" d="M319.41,-164.911C364.572,-170.281 444.957,-185.23 499.486,-226 517.742,-239.65 531.418,-261.723 540.167,-279.229"/>
<polygon fill="black" stroke="black" points="537.07,-280.867 544.518,-288.402 543.395,-277.867 537.07,-280.867"/>
<text text-anchor="middle" x="418.486" y="-229.8" font-family="Times New Roman,serif" font-size="14.00">|&#45; ( ( ph /\ ( ta /\ ps ) ) &#45;&gt; ch )</text>
</g>
<!-- n12759&#45;&gt;n12763 -->
<g id="edge6" class="edge"><title>n12759&#45;&gt;n12763</title>
<path fill="none" stroke="lightgray" d="M71.4394,-227.586C106.825,-218.113 174.514,-199.5 231.292,-181 236.145,-179.419 241.222,-177.678 246.222,-175.911"/>
<polygon fill="lightgray" stroke="lightgray" points="247.439,-179.193 255.665,-172.516 245.07,-172.606 247.439,-179.193"/>
<text text-anchor="middle" x="170.792" y="-219.8" font-family="Times New Roman,serif" font-size="14.00" fill="lightgray">wff ps</text>
</g>
<!-- n12760 -->
<g id="node9" class="node"><title>n12760</title>
</g>
<!-- n12759&#45;&gt;n12760 -->
<g id="edge12" class="edge"><title>n12759&#45;&gt;n12760</title>
</g>
<!-- n12760&#45;&gt;n12763 -->
<g id="edge7" class="edge"><title>n12760&#45;&gt;n12763</title>
<path fill="none" stroke="lightgray" d="M73.3307,-162C113.287,-162 189.972,-162 238.808,-162"/>
<polygon fill="lightgray" stroke="lightgray" points="239.082,-165.5 249.082,-162 239.082,-158.5 239.082,-165.5"/>
<text text-anchor="middle" x="170.792" y="-165.8" font-family="Times New Roman,serif" font-size="14.00" fill="lightgray">wff ch</text>
</g>
<!-- n12761 -->
<g id="node10" class="node"><title>n12761</title>
</g>
<!-- n12760&#45;&gt;n12761 -->
<g id="edge13" class="edge"><title>n12760&#45;&gt;n12761</title>
</g>
<!-- n12761&#45;&gt;n12763 -->
<g id="edge8" class="edge"><title>n12761&#45;&gt;n12763</title>
<path fill="none" stroke="lightgray" d="M71.4394,-96.4139C106.825,-105.887 174.514,-124.5 231.292,-143 236.145,-144.581 241.222,-146.322 246.222,-148.089"/>
<polygon fill="lightgray" stroke="lightgray" points="245.07,-151.394 255.665,-151.484 247.439,-144.807 245.07,-151.394"/>
<text text-anchor="middle" x="170.792" y="-146.8" font-family="Times New Roman,serif" font-size="14.00" fill="lightgray">wff ta</text>
</g>
<!-- n12762 -->
<g id="node11" class="node"><title>n12762</title>
<ellipse fill="orange" stroke="black" cx="46.1459" cy="-18" rx="46.2923" ry="18"/>
<text text-anchor="middle" x="46.1459" y="-14.3" font-family="Times New Roman,serif" font-size="14.00">ad2ant2.1</text>
</g>
<!-- n12761&#45;&gt;n12762 -->
<g id="edge14" class="edge"><title>n12761&#45;&gt;n12762</title>
</g>
<!-- n12762&#45;&gt;n12763 -->
<g id="edge9" class="edge"><title>n12762&#45;&gt;n12763</title>
<path fill="none" stroke="black" d="M87.1325,-26.2941C126.865,-36.0732 187.965,-55.4101 231.292,-89 247.29,-101.403 260.476,-120.037 269.58,-135.374"/>
<polygon fill="black" stroke="black" points="266.729,-137.442 274.709,-144.412 272.817,-133.987 266.729,-137.442"/>
<text text-anchor="middle" x="170.792" y="-92.8" font-family="Times New Roman,serif" font-size="14.00">|&#45; ( ( ph /\ ps ) &#45;&gt; ch )</text>
</g>
</g>
</svg>
