<?xml version="1.0" encoding="UTF-8" standalone="no"?>
<!DOCTYPE svg PUBLIC "-//W3C//DTD SVG 1.1//EN"
 "http://www.w3.org/Graphics/SVG/1.1/DTD/svg11.dtd">
<!-- Generated by graphviz version 2.38.0 (20140413.2041)
 -->
<!-- Title: proof_ad2antrl Pages: 1 -->
<svg width="746pt" height="367pt"
 viewBox="0.00 0.00 745.98 367.00" xmlns="http://www.w3.org/2000/svg" xmlns:xlink="http://www.w3.org/1999/xlink">
<g id="graph0" class="graph" transform="scale(1 1) rotate(0) translate(4 363)">
<title>proof_ad2antrl</title>
<polygon fill="white" stroke="none" points="-4,4 -4,-363 741.976,-363 741.976,4 -4,4"/>
<!-- n12303 -->
<g id="node1" class="node"><title>n12303</title>
</g>
<!-- n12311 -->
<g id="node2" class="node"><title>n12311</title>
<ellipse fill="cyan" stroke="black" cx="447.984" cy="-232" rx="32.4942" ry="18"/>
<text text-anchor="middle" x="447.984" y="-228.3" font-family="Times New Roman,serif" font-size="14.00">adantl</text>
</g>
<!-- n12303&#45;&gt;n12311 -->
<g id="edge1" class="edge"><title>n12303&#45;&gt;n12311</title>
<path fill="none" stroke="lightgray" d="M254.135,-335.24C288.243,-326.589 350.723,-308.084 397.487,-279 407.81,-272.579 417.809,-263.756 426.085,-255.488"/>
<polygon fill="lightgray" stroke="lightgray" points="428.749,-257.767 433.161,-248.135 423.705,-252.913 428.749,-257.767"/>
<text text-anchor="middle" x="338.487" y="-331.8" font-family="Times New Roman,serif" font-size="14.00" fill="lightgray">wff ( ph /\ th )</text>
</g>
<!-- n12304 -->
<g id="node3" class="node"><title>n12304</title>
</g>
<!-- n12303&#45;&gt;n12304 -->
<g id="edge13" class="edge"><title>n12303&#45;&gt;n12304</title>
</g>
<!-- QED -->
<g id="node10" class="node"><title>QED</title>
</g>
<!-- n12311&#45;&gt;QED -->
<g id="edge12" class="edge"><title>n12311&#45;&gt;QED</title>
<path fill="none" stroke="black" d="M480.711,-232C528.307,-232 618.057,-232 669.298,-232"/>
<polygon fill="black" stroke="black" points="669.314,-235.5 679.314,-232 669.313,-228.5 669.314,-235.5"/>
<text text-anchor="middle" x="579.981" y="-235.8" font-family="Times New Roman,serif" font-size="14.00">|&#45; ( ( ch /\ ( ph /\ th ) ) &#45;&gt; ps )</text>
</g>
<!-- n12304&#45;&gt;n12311 -->
<g id="edge2" class="edge"><title>n12304&#45;&gt;n12311</title>
<path fill="none" stroke="lightgray" d="M254.732,-264.683C292.079,-258.334 362.189,-246.415 406.634,-238.86"/>
<polygon fill="lightgray" stroke="lightgray" points="407.253,-242.305 416.525,-237.178 406.08,-235.404 407.253,-242.305"/>
<text text-anchor="middle" x="338.487" y="-263.8" font-family="Times New Roman,serif" font-size="14.00" fill="lightgray">wff ps</text>
</g>
<!-- n12305 -->
<g id="node4" class="node"><title>n12305</title>
</g>
<!-- n12304&#45;&gt;n12305 -->
<g id="edge14" class="edge"><title>n12304&#45;&gt;n12305</title>
</g>
<!-- n12305&#45;&gt;n12311 -->
<g id="edge3" class="edge"><title>n12305&#45;&gt;n12311</title>
<path fill="none" stroke="lightgray" d="M255.012,-200.754C288.019,-205.63 347.092,-214.524 397.487,-223 400.532,-223.512 403.681,-224.055 406.846,-224.609"/>
<polygon fill="lightgray" stroke="lightgray" points="406.446,-228.093 416.905,-226.399 407.673,-221.201 406.446,-228.093"/>
<text text-anchor="middle" x="338.487" y="-226.8" font-family="Times New Roman,serif" font-size="14.00" fill="lightgray">wff ch</text>
</g>
<!-- n12310 -->
<g id="node6" class="node"><title>n12310</title>
<ellipse fill="cyan" stroke="black" cx="228.34" cy="-125" rx="33.2948" ry="18"/>
<text text-anchor="middle" x="228.34" y="-121.3" font-family="Times New Roman,serif" font-size="14.00">adantr</text>
</g>
<!-- n12305&#45;&gt;n12310 -->
<g id="edge15" class="edge"><title>n12305&#45;&gt;n12310</title>
</g>
<!-- n12306 -->
<g id="node5" class="node"><title>n12306</title>
</g>
<!-- n12306&#45;&gt;n12310 -->
<g id="edge4" class="edge"><title>n12306&#45;&gt;n12310</title>
<path fill="none" stroke="lightgray" d="M65.5655,-225.441C93.2419,-214.606 140.584,-194.385 177.193,-170 186.784,-163.612 196.419,-155.476 204.645,-147.884"/>
<polygon fill="lightgray" stroke="lightgray" points="207.213,-150.272 212.052,-140.846 202.391,-145.197 207.213,-150.272"/>
<text text-anchor="middle" x="139.193" y="-212.8" font-family="Times New Roman,serif" font-size="14.00" fill="lightgray">wff ph</text>
</g>
<!-- n12307 -->
<g id="node7" class="node"><title>n12307</title>
</g>
<!-- n12306&#45;&gt;n12307 -->
<g id="edge9" class="edge"><title>n12306&#45;&gt;n12307</title>
</g>
<!-- n12310&#45;&gt;n12311 -->
<g id="edge8" class="edge"><title>n12310&#45;&gt;n12311</title>
<path fill="none" stroke="black" d="M259.249,-131.652C294.225,-140.311 352.993,-157.651 397.487,-185 407.844,-191.366 417.849,-200.178 426.121,-208.454"/>
<polygon fill="black" stroke="black" points="423.741,-211.027 433.191,-215.817 428.79,-206.179 423.741,-211.027"/>
<text text-anchor="middle" x="338.487" y="-188.8" font-family="Times New Roman,serif" font-size="14.00">|&#45; ( ( ph /\ th ) &#45;&gt; ps )</text>
</g>
<!-- n12307&#45;&gt;n12310 -->
<g id="edge5" class="edge"><title>n12307&#45;&gt;n12310</title>
<path fill="none" stroke="lightgray" d="M67.8967,-156.933C98.4773,-150.808 150.337,-140.422 186.582,-133.163"/>
<polygon fill="lightgray" stroke="lightgray" points="187.705,-136.507 196.823,-131.112 186.331,-129.644 187.705,-136.507"/>
<text text-anchor="middle" x="139.193" y="-154.8" font-family="Times New Roman,serif" font-size="14.00" fill="lightgray">wff ps</text>
</g>
<!-- n12308 -->
<g id="node8" class="node"><title>n12308</title>
</g>
<!-- n12307&#45;&gt;n12308 -->
<g id="edge10" class="edge"><title>n12307&#45;&gt;n12308</title>
</g>
<!-- n12308&#45;&gt;n12310 -->
<g id="edge6" class="edge"><title>n12308&#45;&gt;n12310</title>
<path fill="none" stroke="lightgray" d="M67.8967,-94.7932C98.4773,-100.587 150.337,-110.412 186.582,-117.278"/>
<polygon fill="lightgray" stroke="lightgray" points="186.347,-120.796 196.823,-119.219 187.65,-113.918 186.347,-120.796"/>
<text text-anchor="middle" x="139.193" y="-119.8" font-family="Times New Roman,serif" font-size="14.00" fill="lightgray">wff th</text>
</g>
<!-- n12309 -->
<g id="node9" class="node"><title>n12309</title>
<ellipse fill="orange" stroke="black" cx="41.5963" cy="-18" rx="41.6928" ry="18"/>
<text text-anchor="middle" x="41.5963" y="-14.3" font-family="Times New Roman,serif" font-size="14.00">ad2ant.1</text>
</g>
<!-- n12308&#45;&gt;n12309 -->
<g id="edge11" class="edge"><title>n12308&#45;&gt;n12309</title>
</g>
<!-- n12309&#45;&gt;n12310 -->
<g id="edge7" class="edge"><title>n12309&#45;&gt;n12310</title>
<path fill="none" stroke="black" d="M72.8691,-30.064C100.919,-41.826 143.298,-61.1044 177.193,-83 186.207,-88.8232 195.399,-96.0704 203.41,-102.897"/>
<polygon fill="black" stroke="black" points="201.145,-105.566 210.977,-109.514 205.754,-100.297 201.145,-105.566"/>
<text text-anchor="middle" x="139.193" y="-86.8" font-family="Times New Roman,serif" font-size="14.00">|&#45; ( ph &#45;&gt; ps )</text>
</g>
</g>
</svg>
