<?xml version="1.0" encoding="UTF-8" standalone="no"?>
<!DOCTYPE svg PUBLIC "-//W3C//DTD SVG 1.1//EN"
 "http://www.w3.org/Graphics/SVG/1.1/DTD/svg11.dtd">
<!-- Generated by graphviz version 2.38.0 (20140413.2041)
 -->
<!-- Title: proof_ad5antr Pages: 1 -->
<svg width="1009pt" height="476pt"
 viewBox="0.00 0.00 1009.37 476.00" xmlns="http://www.w3.org/2000/svg" xmlns:xlink="http://www.w3.org/1999/xlink">
<g id="graph0" class="graph" transform="scale(1 1) rotate(0) translate(4 472)">
<title>proof_ad5antr</title>
<polygon fill="white" stroke="none" points="-4,4 -4,-472 1005.37,-472 1005.37,4 -4,4"/>
<!-- n12391 -->
<g id="node1" class="node"><title>n12391</title>
</g>
<!-- n12402 -->
<g id="node2" class="node"><title>n12402</title>
<ellipse fill="cyan" stroke="black" cx="584.733" cy="-341" rx="33.2948" ry="18"/>
<text text-anchor="middle" x="584.733" y="-337.3" font-family="Times New Roman,serif" font-size="14.00">adantr</text>
</g>
<!-- n12391&#45;&gt;n12402 -->
<g id="edge1" class="edge"><title>n12391&#45;&gt;n12402</title>
<path fill="none" stroke="lightgray" d="M260.026,-449.855C314.254,-448.521 441.603,-439.963 533.586,-391 545.456,-384.682 556.337,-374.635 564.907,-365.2"/>
<polygon fill="lightgray" stroke="lightgray" points="567.655,-367.372 571.534,-357.513 562.353,-362.802 567.655,-367.372"/>
<text text-anchor="middle" x="411.086" y="-451.8" font-family="Times New Roman,serif" font-size="14.00" fill="lightgray">wff ( ( ( ( ph /\ ch ) /\ th ) /\ ta ) /\ et )</text>
</g>
<!-- n12392 -->
<g id="node3" class="node"><title>n12392</title>
</g>
<!-- n12391&#45;&gt;n12392 -->
<g id="edge19" class="edge"><title>n12391&#45;&gt;n12392</title>
</g>
<!-- QED -->
<g id="node13" class="node"><title>QED</title>
</g>
<!-- n12402&#45;&gt;QED -->
<g id="edge18" class="edge"><title>n12402&#45;&gt;QED</title>
<path fill="none" stroke="black" d="M617.929,-341C688.51,-341 856.612,-341 932.628,-341"/>
<polygon fill="black" stroke="black" points="932.723,-344.5 942.723,-341 932.723,-337.5 932.723,-344.5"/>
<text text-anchor="middle" x="780.38" y="-344.8" font-family="Times New Roman,serif" font-size="14.00">|&#45; ( ( ( ( ( ( ph /\ ch ) /\ th ) /\ ta ) /\ et ) /\ ze ) &#45;&gt; ps )</text>
</g>
<!-- n12392&#45;&gt;n12402 -->
<g id="edge2" class="edge"><title>n12392&#45;&gt;n12402</title>
<path fill="none" stroke="lightgray" d="M259.961,-375.445C312.006,-370.313 432.473,-358.278 533.586,-347 536.404,-346.686 539.311,-346.355 542.239,-346.017"/>
<polygon fill="lightgray" stroke="lightgray" points="542.651,-349.493 552.176,-344.854 541.837,-342.54 542.651,-349.493"/>
<text text-anchor="middle" x="411.086" y="-375.8" font-family="Times New Roman,serif" font-size="14.00" fill="lightgray">wff ps</text>
</g>
<!-- n12393 -->
<g id="node4" class="node"><title>n12393</title>
</g>
<!-- n12392&#45;&gt;n12393 -->
<g id="edge20" class="edge"><title>n12392&#45;&gt;n12393</title>
</g>
<!-- n12393&#45;&gt;n12402 -->
<g id="edge3" class="edge"><title>n12393&#45;&gt;n12402</title>
<path fill="none" stroke="lightgray" d="M260.034,-307.465C312.207,-310.565 432.891,-318.624 533.586,-332 536.786,-332.425 540.093,-332.912 543.412,-333.434"/>
<polygon fill="lightgray" stroke="lightgray" points="542.867,-336.892 553.306,-335.082 544.016,-329.987 542.867,-336.892"/>
<text text-anchor="middle" x="411.086" y="-335.8" font-family="Times New Roman,serif" font-size="14.00" fill="lightgray">wff ze</text>
</g>
<!-- n12401 -->
<g id="node6" class="node"><title>n12401</title>
<ellipse fill="cyan" stroke="black" cx="232.889" cy="-234" rx="37.8943" ry="18"/>
<text text-anchor="middle" x="232.889" y="-230.3" font-family="Times New Roman,serif" font-size="14.00">ad4antr</text>
</g>
<!-- n12393&#45;&gt;n12401 -->
<g id="edge21" class="edge"><title>n12393&#45;&gt;n12401</title>
</g>
<!-- n12394 -->
<g id="node5" class="node"><title>n12394</title>
</g>
<!-- n12394&#45;&gt;n12401 -->
<g id="edge4" class="edge"><title>n12394&#45;&gt;n12401</title>
<path fill="none" stroke="lightgray" d="M66.2364,-442.342C96.8974,-431.128 149.699,-407.205 177.193,-368 200.364,-334.959 177.936,-315.481 195.193,-279 198.708,-271.567 203.709,-264.303 208.891,-257.854"/>
<polygon fill="lightgray" stroke="lightgray" points="211.621,-260.047 215.455,-250.17 206.298,-255.501 211.621,-260.047"/>
<text text-anchor="middle" x="139.193" y="-430.8" font-family="Times New Roman,serif" font-size="14.00" fill="lightgray">wff ph</text>
</g>
<!-- n12395 -->
<g id="node7" class="node"><title>n12395</title>
</g>
<!-- n12394&#45;&gt;n12395 -->
<g id="edge12" class="edge"><title>n12394&#45;&gt;n12395</title>
</g>
<!-- n12401&#45;&gt;n12402 -->
<g id="edge11" class="edge"><title>n12401&#45;&gt;n12402</title>
<path fill="none" stroke="black" d="M270.793,-233.924C329.769,-235.274 447.386,-244.102 533.586,-290 545.574,-296.383 556.472,-306.621 565.023,-316.256"/>
<polygon fill="black" stroke="black" points="562.512,-318.707 571.627,-324.108 567.87,-314.202 562.512,-318.707"/>
<text text-anchor="middle" x="411.086" y="-293.8" font-family="Times New Roman,serif" font-size="14.00">|&#45; ( ( ( ( ( ph /\ ch ) /\ th ) /\ ta ) /\ et ) &#45;&gt; ps )</text>
</g>
<!-- n12395&#45;&gt;n12401 -->
<g id="edge5" class="edge"><title>n12395&#45;&gt;n12401</title>
<path fill="none" stroke="lightgray" d="M64.6615,-368.46C92.6834,-355.687 141.658,-331.106 177.193,-301 177.462,-300.772 196.319,-277.656 211.815,-258.642"/>
<polygon fill="lightgray" stroke="lightgray" points="214.583,-260.786 218.186,-250.823 209.156,-256.364 214.583,-260.786"/>
<text text-anchor="middle" x="139.193" y="-352.8" font-family="Times New Roman,serif" font-size="14.00" fill="lightgray">wff ps</text>
</g>
<!-- n12396 -->
<g id="node8" class="node"><title>n12396</title>
</g>
<!-- n12395&#45;&gt;n12396 -->
<g id="edge13" class="edge"><title>n12395&#45;&gt;n12396</title>
</g>
<!-- n12396&#45;&gt;n12401 -->
<g id="edge6" class="edge"><title>n12396&#45;&gt;n12401</title>
<path fill="none" stroke="lightgray" d="M65.4295,-297.315C97.0226,-285.298 154.513,-263.431 192.959,-248.808"/>
<polygon fill="lightgray" stroke="lightgray" points="194.675,-251.9 202.777,-245.073 192.186,-245.357 194.675,-251.9"/>
<text text-anchor="middle" x="139.193" y="-285.8" font-family="Times New Roman,serif" font-size="14.00" fill="lightgray">wff ch</text>
</g>
<!-- n12397 -->
<g id="node9" class="node"><title>n12397</title>
</g>
<!-- n12396&#45;&gt;n12397 -->
<g id="edge14" class="edge"><title>n12396&#45;&gt;n12397</title>
</g>
<!-- n12397&#45;&gt;n12401 -->
<g id="edge7" class="edge"><title>n12397&#45;&gt;n12401</title>
<path fill="none" stroke="lightgray" d="M68.9167,-234C98.7813,-234 148.08,-234 184.649,-234"/>
<polygon fill="lightgray" stroke="lightgray" points="185.076,-237.5 195.076,-234 185.076,-230.5 185.076,-237.5"/>
<text text-anchor="middle" x="139.193" y="-237.8" font-family="Times New Roman,serif" font-size="14.00" fill="lightgray">wff th</text>
</g>
<!-- n12398 -->
<g id="node10" class="node"><title>n12398</title>
</g>
<!-- n12397&#45;&gt;n12398 -->
<g id="edge15" class="edge"><title>n12397&#45;&gt;n12398</title>
</g>
<!-- n12398&#45;&gt;n12401 -->
<g id="edge8" class="edge"><title>n12398&#45;&gt;n12401</title>
<path fill="none" stroke="lightgray" d="M65.4295,-170.685C97.0226,-182.702 154.513,-204.569 192.959,-219.192"/>
<polygon fill="lightgray" stroke="lightgray" points="192.186,-222.643 202.777,-222.927 194.675,-216.1 192.186,-222.643"/>
<text text-anchor="middle" x="139.193" y="-216.8" font-family="Times New Roman,serif" font-size="14.00" fill="lightgray">wff ta</text>
</g>
<!-- n12399 -->
<g id="node11" class="node"><title>n12399</title>
</g>
<!-- n12398&#45;&gt;n12399 -->
<g id="edge16" class="edge"><title>n12398&#45;&gt;n12399</title>
</g>
<!-- n12399&#45;&gt;n12401 -->
<g id="edge9" class="edge"><title>n12399&#45;&gt;n12401</title>
<path fill="none" stroke="lightgray" d="M64.6615,-99.5396C92.6834,-112.313 141.658,-136.894 177.193,-167 191.384,-179.023 204.647,-195.097 214.559,-208.487"/>
<polygon fill="lightgray" stroke="lightgray" points="211.881,-210.758 220.564,-216.829 217.562,-206.669 211.881,-210.758"/>
<text text-anchor="middle" x="139.193" y="-170.8" font-family="Times New Roman,serif" font-size="14.00" fill="lightgray">wff et</text>
</g>
<!-- n12400 -->
<g id="node12" class="node"><title>n12400</title>
<ellipse fill="orange" stroke="black" cx="41.5963" cy="-18" rx="41.6928" ry="18"/>
<text text-anchor="middle" x="41.5963" y="-14.3" font-family="Times New Roman,serif" font-size="14.00">ad2ant.1</text>
</g>
<!-- n12399&#45;&gt;n12400 -->
<g id="edge17" class="edge"><title>n12399&#45;&gt;n12400</title>
</g>
<!-- n12400&#45;&gt;n12401 -->
<g id="edge10" class="edge"><title>n12400&#45;&gt;n12401</title>
<path fill="none" stroke="black" d="M73.2063,-29.8856C103.323,-42.9736 148.802,-66.6732 177.193,-100 203.75,-131.175 218.662,-176.969 225.992,-206.131"/>
<polygon fill="black" stroke="black" points="222.636,-207.147 228.357,-216.065 229.446,-205.526 222.636,-207.147"/>
<text text-anchor="middle" x="139.193" y="-103.8" font-family="Times New Roman,serif" font-size="14.00">|&#45; ( ph &#45;&gt; ps )</text>
</g>
</g>
</svg>
