<?xml version="1.0" encoding="UTF-8" standalone="no"?>
<!DOCTYPE svg PUBLIC "-//W3C//DTD SVG 1.1//EN"
 "http://www.w3.org/Graphics/SVG/1.1/DTD/svg11.dtd">
<!-- Generated by graphviz version 2.38.0 (20140413.2041)
 -->
<!-- Title: proof_ad6antr Pages: 1 -->
<svg width="1093pt" height="548pt"
 viewBox="0.00 0.00 1093.37 548.00" xmlns="http://www.w3.org/2000/svg" xmlns:xlink="http://www.w3.org/1999/xlink">
<g id="graph0" class="graph" transform="scale(1 1) rotate(0) translate(4 544)">
<title>proof_ad6antr</title>
<polygon fill="white" stroke="none" points="-4,4 -4,-544 1089.37,-544 1089.37,4 -4,4"/>
<!-- n12433 -->
<g id="node1" class="node"><title>n12433</title>
</g>
<!-- n12445 -->
<g id="node2" class="node"><title>n12445</title>
<ellipse fill="cyan" stroke="black" cx="628.733" cy="-376" rx="33.2948" ry="18"/>
<text text-anchor="middle" x="628.733" y="-372.3" font-family="Times New Roman,serif" font-size="14.00">adantr</text>
</g>
<!-- n12433&#45;&gt;n12445 -->
<g id="edge1" class="edge"><title>n12433&#45;&gt;n12445</title>
<path fill="none" stroke="lightgray" d="M260.177,-485.911C320.11,-486.894 469.996,-483.081 577.586,-427 589.63,-420.722 600.536,-410.499 609.078,-400.848"/>
<polygon fill="lightgray" stroke="lightgray" points="611.934,-402.889 615.671,-392.975 606.567,-398.395 611.934,-402.889"/>
<text text-anchor="middle" x="433.086" y="-488.8" font-family="Times New Roman,serif" font-size="14.00" fill="lightgray">wff ( ( ( ( ( ph /\ ch ) /\ th ) /\ ta ) /\ et ) /\ ze )</text>
</g>
<!-- n12434 -->
<g id="node3" class="node"><title>n12434</title>
</g>
<!-- n12433&#45;&gt;n12434 -->
<g id="edge21" class="edge"><title>n12433&#45;&gt;n12434</title>
</g>
<!-- QED -->
<g id="node14" class="node"><title>QED</title>
</g>
<!-- n12445&#45;&gt;QED -->
<g id="edge20" class="edge"><title>n12445&#45;&gt;QED</title>
<path fill="none" stroke="black" d="M662.056,-376C739.22,-376 933.918,-376 1016.81,-376"/>
<polygon fill="black" stroke="black" points="1016.81,-379.5 1026.81,-376 1016.81,-372.5 1016.81,-379.5"/>
<text text-anchor="middle" x="844.38" y="-379.8" font-family="Times New Roman,serif" font-size="14.00">|&#45; ( ( ( ( ( ( ( ph /\ ch ) /\ th ) /\ ta ) /\ et ) /\ ze ) /\ si ) &#45;&gt; ps )</text>
</g>
<!-- n12434&#45;&gt;n12445 -->
<g id="edge2" class="edge"><title>n12434&#45;&gt;n12445</title>
<path fill="none" stroke="lightgray" d="M259.784,-410.924C317.1,-406.271 459.012,-394.438 577.586,-382 580.406,-381.704 583.315,-381.387 586.244,-381.059"/>
<polygon fill="lightgray" stroke="lightgray" points="586.648,-384.536 596.183,-379.917 585.849,-377.582 586.648,-384.536"/>
<text text-anchor="middle" x="433.086" y="-411.8" font-family="Times New Roman,serif" font-size="14.00" fill="lightgray">wff ps</text>
</g>
<!-- n12435 -->
<g id="node4" class="node"><title>n12435</title>
</g>
<!-- n12434&#45;&gt;n12435 -->
<g id="edge22" class="edge"><title>n12434&#45;&gt;n12435</title>
</g>
<!-- n12435&#45;&gt;n12445 -->
<g id="edge3" class="edge"><title>n12435&#45;&gt;n12445</title>
<path fill="none" stroke="lightgray" d="M259.85,-342.058C317.298,-344.597 459.456,-351.971 577.586,-367 580.789,-367.407 584.097,-367.882 587.417,-368.395"/>
<polygon fill="lightgray" stroke="lightgray" points="586.877,-371.853 597.313,-370.027 588.016,-364.947 586.877,-371.853"/>
<text text-anchor="middle" x="433.086" y="-370.8" font-family="Times New Roman,serif" font-size="14.00" fill="lightgray">wff si</text>
</g>
<!-- n12444 -->
<g id="node6" class="node"><title>n12444</title>
<ellipse fill="cyan" stroke="black" cx="232.889" cy="-269" rx="37.8943" ry="18"/>
<text text-anchor="middle" x="232.889" y="-265.3" font-family="Times New Roman,serif" font-size="14.00">ad5antr</text>
</g>
<!-- n12435&#45;&gt;n12444 -->
<g id="edge23" class="edge"><title>n12435&#45;&gt;n12444</title>
</g>
<!-- n12436 -->
<g id="node5" class="node"><title>n12436</title>
</g>
<!-- n12436&#45;&gt;n12444 -->
<g id="edge4" class="edge"><title>n12436&#45;&gt;n12444</title>
<path fill="none" stroke="lightgray" d="M66.8429,-515.395C97.9175,-505.567 150.906,-483.934 177.193,-445 210.078,-396.293 171.749,-367.891 195.193,-314 198.473,-306.46 203.388,-299.157 208.563,-292.705"/>
<polygon fill="lightgray" stroke="lightgray" points="211.291,-294.9 215.154,-285.034 205.982,-290.338 211.291,-294.9"/>
<text text-anchor="middle" x="139.193" y="-504.8" font-family="Times New Roman,serif" font-size="14.00" fill="lightgray">wff ph</text>
</g>
<!-- n12437 -->
<g id="node7" class="node"><title>n12437</title>
</g>
<!-- n12436&#45;&gt;n12437 -->
<g id="edge13" class="edge"><title>n12436&#45;&gt;n12437</title>
</g>
<!-- n12444&#45;&gt;n12445 -->
<g id="edge12" class="edge"><title>n12444&#45;&gt;n12445</title>
<path fill="none" stroke="black" d="M270.607,-267.483C336.151,-266.32 475.939,-270.938 577.586,-324 590.043,-330.503 601.203,-341.275 609.813,-351.333"/>
<polygon fill="black" stroke="black" points="607.134,-353.586 616.149,-359.152 612.572,-349.179 607.134,-353.586"/>
<text text-anchor="middle" x="433.086" y="-327.8" font-family="Times New Roman,serif" font-size="14.00">|&#45; ( ( ( ( ( ( ph /\ ch ) /\ th ) /\ ta ) /\ et ) /\ ze ) &#45;&gt; ps )</text>
</g>
<!-- n12437&#45;&gt;n12444 -->
<g id="edge5" class="edge"><title>n12437&#45;&gt;n12444</title>
<path fill="none" stroke="lightgray" d="M66.1592,-442.427C96.2411,-431.57 147.891,-408.739 177.193,-372 194.022,-350.899 182.43,-337.783 195.193,-314 199.08,-306.755 204.216,-299.559 209.409,-293.116"/>
<polygon fill="lightgray" stroke="lightgray" points="212.142,-295.305 215.929,-285.41 206.798,-290.783 212.142,-295.305"/>
<text text-anchor="middle" x="139.193" y="-429.8" font-family="Times New Roman,serif" font-size="14.00" fill="lightgray">wff ps</text>
</g>
<!-- n12438 -->
<g id="node8" class="node"><title>n12438</title>
</g>
<!-- n12437&#45;&gt;n12438 -->
<g id="edge14" class="edge"><title>n12437&#45;&gt;n12438</title>
</g>
<!-- n12438&#45;&gt;n12444 -->
<g id="edge6" class="edge"><title>n12438&#45;&gt;n12444</title>
<path fill="none" stroke="lightgray" d="M65.3912,-369.173C92.896,-358.075 140.069,-337.594 177.193,-314 187.363,-307.536 197.762,-299.427 206.725,-291.879"/>
<polygon fill="lightgray" stroke="lightgray" points="209.218,-294.35 214.504,-285.168 204.646,-289.05 209.218,-294.35"/>
<text text-anchor="middle" x="139.193" y="-356.8" font-family="Times New Roman,serif" font-size="14.00" fill="lightgray">wff ch</text>
</g>
<!-- n12439 -->
<g id="node9" class="node"><title>n12439</title>
</g>
<!-- n12438&#45;&gt;n12439 -->
<g id="edge15" class="edge"><title>n12438&#45;&gt;n12439</title>
</g>
<!-- n12439&#45;&gt;n12444 -->
<g id="edge7" class="edge"><title>n12439&#45;&gt;n12444</title>
<path fill="none" stroke="lightgray" d="M67.733,-301.087C98.2525,-295.121 150.263,-284.955 187.567,-277.664"/>
<polygon fill="lightgray" stroke="lightgray" points="188.525,-281.042 197.668,-275.689 187.182,-274.172 188.525,-281.042"/>
<text text-anchor="middle" x="139.193" y="-298.8" font-family="Times New Roman,serif" font-size="14.00" fill="lightgray">wff th</text>
</g>
<!-- n12440 -->
<g id="node10" class="node"><title>n12440</title>
</g>
<!-- n12439&#45;&gt;n12440 -->
<g id="edge16" class="edge"><title>n12439&#45;&gt;n12440</title>
</g>
<!-- n12440&#45;&gt;n12444 -->
<g id="edge8" class="edge"><title>n12440&#45;&gt;n12444</title>
<path fill="none" stroke="lightgray" d="M67.733,-238.648C98.1606,-244.274 149.95,-253.85 187.229,-260.742"/>
<polygon fill="lightgray" stroke="lightgray" points="186.859,-264.233 197.329,-262.61 188.132,-257.35 186.859,-264.233"/>
<text text-anchor="middle" x="139.193" y="-262.8" font-family="Times New Roman,serif" font-size="14.00" fill="lightgray">wff ta</text>
</g>
<!-- n12441 -->
<g id="node11" class="node"><title>n12441</title>
</g>
<!-- n12440&#45;&gt;n12441 -->
<g id="edge17" class="edge"><title>n12440&#45;&gt;n12441</title>
</g>
<!-- n12441&#45;&gt;n12444 -->
<g id="edge9" class="edge"><title>n12441&#45;&gt;n12444</title>
<path fill="none" stroke="lightgray" d="M65.2456,-171.241C92.607,-182.784 139.639,-203.853 177.193,-227 186.77,-232.903 196.686,-240.132 205.402,-246.917"/>
<polygon fill="lightgray" stroke="lightgray" points="203.334,-249.745 213.34,-253.229 207.691,-244.266 203.334,-249.745"/>
<text text-anchor="middle" x="139.193" y="-230.8" font-family="Times New Roman,serif" font-size="14.00" fill="lightgray">wff et</text>
</g>
<!-- n12442 -->
<g id="node12" class="node"><title>n12442</title>
</g>
<!-- n12441&#45;&gt;n12442 -->
<g id="edge18" class="edge"><title>n12441&#45;&gt;n12442</title>
</g>
<!-- n12442&#45;&gt;n12444 -->
<g id="edge10" class="edge"><title>n12442&#45;&gt;n12444</title>
<path fill="none" stroke="lightgray" d="M65.3233,-98.8133C94.2709,-110.967 144.458,-135.26 177.193,-169 197.626,-190.061 212.74,-220.276 221.841,-241.974"/>
<polygon fill="lightgray" stroke="lightgray" points="218.608,-243.317 225.596,-251.28 225.099,-240.697 218.608,-243.317"/>
<text text-anchor="middle" x="139.193" y="-172.8" font-family="Times New Roman,serif" font-size="14.00" fill="lightgray">wff ze</text>
</g>
<!-- n12443 -->
<g id="node13" class="node"><title>n12443</title>
<ellipse fill="orange" stroke="black" cx="41.5963" cy="-18" rx="41.6928" ry="18"/>
<text text-anchor="middle" x="41.5963" y="-14.3" font-family="Times New Roman,serif" font-size="14.00">ad2ant.1</text>
</g>
<!-- n12442&#45;&gt;n12443 -->
<g id="edge19" class="edge"><title>n12442&#45;&gt;n12443</title>
</g>
<!-- n12443&#45;&gt;n12444 -->
<g id="edge11" class="edge"><title>n12443&#45;&gt;n12444</title>
<path fill="none" stroke="black" d="M74.6327,-29.0468C105.182,-41.1564 150.391,-63.4441 177.193,-97 211.366,-139.785 224.371,-204.305 229.185,-240.95"/>
<polygon fill="black" stroke="black" points="225.717,-241.427 230.383,-250.939 232.667,-240.593 225.717,-241.427"/>
<text text-anchor="middle" x="139.193" y="-100.8" font-family="Times New Roman,serif" font-size="14.00">|&#45; ( ph &#45;&gt; ps )</text>
</g>
</g>
</svg>
