<?xml version="1.0" encoding="UTF-8" standalone="no"?>
<!DOCTYPE svg PUBLIC "-//W3C//DTD SVG 1.1//EN"
 "http://www.w3.org/Graphics/SVG/1.1/DTD/svg11.dtd">
<!-- Generated by graphviz version 2.38.0 (20140413.2041)
 -->
<!-- Title: proof_adantlrr Pages: 1 -->
<svg width="791pt" height="476pt"
 viewBox="0.00 0.00 791.08 476.00" xmlns="http://www.w3.org/2000/svg" xmlns:xlink="http://www.w3.org/1999/xlink">
<g id="graph0" class="graph" transform="scale(1 1) rotate(0) translate(4 472)">
<title>proof_adantlrr</title>
<polygon fill="white" stroke="none" points="-4,4 -4,-472 787.081,-472 787.081,4 -4,4"/>
<!-- n12223 -->
<g id="node1" class="node"><title>n12223</title>
</g>
<!-- n12232 -->
<g id="node2" class="node"><title>n12232</title>
<ellipse fill="cyan" stroke="black" cx="448.839" cy="-234" rx="35.9954" ry="18"/>
<text text-anchor="middle" x="448.839" y="-230.3" font-family="Times New Roman,serif" font-size="14.00">sylanl2</text>
</g>
<!-- n12223&#45;&gt;n12232 -->
<g id="edge1" class="edge"><title>n12223&#45;&gt;n12232</title>
<path fill="none" stroke="lightgray" d="M197.719,-450.361C243.746,-449.554 339.552,-441.219 395.092,-389 430.751,-355.473 442.304,-296.925 446.046,-262.182"/>
<polygon fill="lightgray" stroke="lightgray" points="449.532,-262.5 446.975,-252.218 442.562,-261.85 449.532,-262.5"/>
<text text-anchor="middle" x="313.592" y="-451.8" font-family="Times New Roman,serif" font-size="14.00" fill="lightgray">wff ( ps /\ ta )</text>
</g>
<!-- n12224 -->
<g id="node3" class="node"><title>n12224</title>
</g>
<!-- n12223&#45;&gt;n12224 -->
<g id="edge12" class="edge"><title>n12223&#45;&gt;n12224</title>
</g>
<!-- QED -->
<g id="node11" class="node"><title>QED</title>
</g>
<!-- n12232&#45;&gt;QED -->
<g id="edge11" class="edge"><title>n12232&#45;&gt;QED</title>
<path fill="none" stroke="black" d="M484.596,-234C541.639,-234 654.708,-234 714.188,-234"/>
<polygon fill="black" stroke="black" points="714.299,-237.5 724.299,-234 714.299,-230.5 714.299,-237.5"/>
<text text-anchor="middle" x="604.586" y="-237.8" font-family="Times New Roman,serif" font-size="14.00">|&#45; ( ( ( ph /\ ( ps /\ ta ) ) /\ ch ) &#45;&gt; th )</text>
</g>
<!-- n12224&#45;&gt;n12232 -->
<g id="edge2" class="edge"><title>n12224&#45;&gt;n12232</title>
<path fill="none" stroke="lightgray" d="M197.464,-375.837C241.852,-370.996 333.576,-355.918 395.092,-311 412.705,-298.14 426.377,-277.519 435.384,-260.853"/>
<polygon fill="lightgray" stroke="lightgray" points="438.689,-262.08 440.143,-251.585 432.462,-258.882 438.689,-262.08"/>
<text text-anchor="middle" x="313.592" y="-373.8" font-family="Times New Roman,serif" font-size="14.00" fill="lightgray">wff ph</text>
</g>
<!-- n12225 -->
<g id="node4" class="node"><title>n12225</title>
</g>
<!-- n12224&#45;&gt;n12225 -->
<g id="edge13" class="edge"><title>n12224&#45;&gt;n12225</title>
</g>
<!-- n12225&#45;&gt;n12232 -->
<g id="edge3" class="edge"><title>n12225&#45;&gt;n12232</title>
<path fill="none" stroke="lightgray" d="M196.599,-301.026C238.198,-292.551 323.987,-274.162 395.092,-253 400.038,-251.528 405.198,-249.851 410.27,-248.117"/>
<polygon fill="lightgray" stroke="lightgray" points="411.567,-251.371 419.839,-244.75 409.244,-244.767 411.567,-251.371"/>
<text text-anchor="middle" x="313.592" y="-295.8" font-family="Times New Roman,serif" font-size="14.00" fill="lightgray">wff ps</text>
</g>
<!-- n12226 -->
<g id="node5" class="node"><title>n12226</title>
</g>
<!-- n12225&#45;&gt;n12226 -->
<g id="edge14" class="edge"><title>n12225&#45;&gt;n12226</title>
</g>
<!-- n12226&#45;&gt;n12232 -->
<g id="edge4" class="edge"><title>n12226&#45;&gt;n12232</title>
<path fill="none" stroke="lightgray" d="M198.038,-234C245.31,-234 344.678,-234 402.831,-234"/>
<polygon fill="lightgray" stroke="lightgray" points="402.84,-237.5 412.84,-234 402.84,-230.5 402.84,-237.5"/>
<text text-anchor="middle" x="313.592" y="-237.8" font-family="Times New Roman,serif" font-size="14.00" fill="lightgray">wff ch</text>
</g>
<!-- n12227 -->
<g id="node6" class="node"><title>n12227</title>
</g>
<!-- n12226&#45;&gt;n12227 -->
<g id="edge15" class="edge"><title>n12226&#45;&gt;n12227</title>
</g>
<!-- n12227&#45;&gt;n12232 -->
<g id="edge5" class="edge"><title>n12227&#45;&gt;n12232</title>
<path fill="none" stroke="lightgray" d="M196.599,-166.974C238.198,-175.449 323.987,-193.838 395.092,-215 400.038,-216.472 405.198,-218.149 410.27,-219.883"/>
<polygon fill="lightgray" stroke="lightgray" points="409.244,-223.233 419.839,-223.25 411.567,-216.629 409.244,-223.233"/>
<text text-anchor="middle" x="313.592" y="-218.8" font-family="Times New Roman,serif" font-size="14.00" fill="lightgray">wff th</text>
</g>
<!-- n12230 -->
<g id="node8" class="node"><title>n12230</title>
<ellipse fill="cyan" stroke="black" cx="170.546" cy="-90" rx="30.5947" ry="18"/>
<text text-anchor="middle" x="170.546" y="-86.3" font-family="Times New Roman,serif" font-size="14.00">simpl</text>
</g>
<!-- n12227&#45;&gt;n12230 -->
<g id="edge16" class="edge"><title>n12227&#45;&gt;n12230</title>
</g>
<!-- n12228 -->
<g id="node7" class="node"><title>n12228</title>
</g>
<!-- n12228&#45;&gt;n12230 -->
<g id="edge6" class="edge"><title>n12228&#45;&gt;n12230</title>
<path fill="none" stroke="lightgray" d="M51.6916,-127.468C74.0635,-120.356 107.923,-109.591 133.617,-101.423"/>
<polygon fill="lightgray" stroke="lightgray" points="134.902,-104.687 143.372,-98.3213 132.781,-98.0156 134.902,-104.687"/>
<text text-anchor="middle" x="90.5" y="-124.8" font-family="Times New Roman,serif" font-size="14.00" fill="lightgray">wff ps</text>
</g>
<!-- n12229 -->
<g id="node9" class="node"><title>n12229</title>
</g>
<!-- n12228&#45;&gt;n12229 -->
<g id="edge9" class="edge"><title>n12228&#45;&gt;n12229</title>
</g>
<!-- n12230&#45;&gt;n12232 -->
<g id="edge8" class="edge"><title>n12230&#45;&gt;n12232</title>
<path fill="none" stroke="black" d="M201.104,-92.5712C246.71,-97.8271 335.212,-113.277 395.092,-157 412.705,-169.86 426.377,-190.481 435.384,-207.147"/>
<polygon fill="black" stroke="black" points="432.462,-209.118 440.143,-216.415 438.689,-205.92 432.462,-209.118"/>
<text text-anchor="middle" x="313.592" y="-160.8" font-family="Times New Roman,serif" font-size="14.00">|&#45; ( ( ps /\ ta ) &#45;&gt; ps )</text>
</g>
<!-- n12231 -->
<g id="node10" class="node"><title>n12231</title>
<ellipse fill="orange" stroke="black" cx="170.546" cy="-18" rx="43.5923" ry="18"/>
<text text-anchor="middle" x="170.546" y="-14.3" font-family="Times New Roman,serif" font-size="14.00">adantl2.1</text>
</g>
<!-- n12230&#45;&gt;n12231 -->
<g id="edge17" class="edge"><title>n12230&#45;&gt;n12231</title>
</g>
<!-- n12229&#45;&gt;n12230 -->
<g id="edge7" class="edge"><title>n12229&#45;&gt;n12230</title>
<path fill="none" stroke="lightgray" d="M53.3056,-67.8271C74.8751,-71.9415 106.216,-77.9197 130.92,-82.6321"/>
<polygon fill="lightgray" stroke="lightgray" points="130.575,-86.1293 141.054,-84.5651 131.887,-79.2533 130.575,-86.1293"/>
<text text-anchor="middle" x="90.5" y="-82.8" font-family="Times New Roman,serif" font-size="14.00" fill="lightgray">wff ta</text>
</g>
<!-- n12231&#45;&gt;n12232 -->
<g id="edge10" class="edge"><title>n12231&#45;&gt;n12232</title>
<path fill="none" stroke="black" d="M214.29,-18.2111C264.003,-20.7625 345.56,-32.4296 395.092,-79 430.751,-112.527 442.304,-171.075 446.046,-205.818"/>
<polygon fill="black" stroke="black" points="442.562,-206.15 446.975,-215.782 449.532,-205.5 442.562,-206.15"/>
<text text-anchor="middle" x="313.592" y="-82.8" font-family="Times New Roman,serif" font-size="14.00">|&#45; ( ( ( ph /\ ps ) /\ ch ) &#45;&gt; th )</text>
</g>
</g>
</svg>
