<?xml version="1.0" encoding="UTF-8" standalone="no"?>
<!DOCTYPE svg PUBLIC "-//W3C//DTD SVG 1.1//EN"
 "http://www.w3.org/Graphics/SVG/1.1/DTD/svg11.dtd">
<!-- Generated by graphviz version 2.38.0 (20140413.2041)
 -->
<!-- Title: proof_adantrrl Pages: 1 -->
<svg width="794pt" height="476pt"
 viewBox="0.00 0.00 793.68 476.00" xmlns="http://www.w3.org/2000/svg" xmlns:xlink="http://www.w3.org/1999/xlink">
<g id="graph0" class="graph" transform="scale(1 1) rotate(0) translate(4 472)">
<title>proof_adantrrl</title>
<polygon fill="white" stroke="none" points="-4,4 -4,-472 789.681,-472 789.681,4 -4,4"/>
<!-- n12259 -->
<g id="node1" class="node"><title>n12259</title>
</g>
<!-- n12268 -->
<g id="node2" class="node"><title>n12268</title>
<ellipse fill="cyan" stroke="black" cx="450.789" cy="-234" rx="36.2938" ry="18"/>
<text text-anchor="middle" x="450.789" y="-230.3" font-family="Times New Roman,serif" font-size="14.00">sylanr2</text>
</g>
<!-- n12259&#45;&gt;n12268 -->
<g id="edge1" class="edge"><title>n12259&#45;&gt;n12268</title>
<path fill="none" stroke="lightgray" d="M198.424,-450.364C244.55,-449.563 340.584,-441.236 396.392,-389 432.172,-355.511 443.977,-296.95 447.872,-262.194"/>
<polygon fill="lightgray" stroke="lightgray" points="451.357,-262.519 448.844,-252.226 444.39,-261.839 451.357,-262.519"/>
<text text-anchor="middle" x="314.892" y="-451.8" font-family="Times New Roman,serif" font-size="14.00" fill="lightgray">wff ( ta /\ ch )</text>
</g>
<!-- n12260 -->
<g id="node3" class="node"><title>n12260</title>
</g>
<!-- n12259&#45;&gt;n12260 -->
<g id="edge12" class="edge"><title>n12259&#45;&gt;n12260</title>
</g>
<!-- QED -->
<g id="node11" class="node"><title>QED</title>
</g>
<!-- n12268&#45;&gt;QED -->
<g id="edge11" class="edge"><title>n12268&#45;&gt;QED</title>
<path fill="none" stroke="black" d="M487.215,-234C544.624,-234 657.524,-234 716.88,-234"/>
<polygon fill="black" stroke="black" points="716.968,-237.5 726.968,-234 716.968,-230.5 716.968,-237.5"/>
<text text-anchor="middle" x="607.186" y="-237.8" font-family="Times New Roman,serif" font-size="14.00">|&#45; ( ( ph /\ ( ps /\ ( ta /\ ch ) ) ) &#45;&gt; th )</text>
</g>
<!-- n12260&#45;&gt;n12268 -->
<g id="edge2" class="edge"><title>n12260&#45;&gt;n12268</title>
<path fill="none" stroke="lightgray" d="M198.161,-375.82C242.636,-370.953 334.566,-355.836 396.392,-311 414.116,-298.147 427.963,-277.526 437.11,-260.858"/>
<polygon fill="lightgray" stroke="lightgray" points="440.423,-262.074 441.946,-251.589 434.217,-258.835 440.423,-262.074"/>
<text text-anchor="middle" x="314.892" y="-373.8" font-family="Times New Roman,serif" font-size="14.00" fill="lightgray">wff ph</text>
</g>
<!-- n12261 -->
<g id="node4" class="node"><title>n12261</title>
</g>
<!-- n12260&#45;&gt;n12261 -->
<g id="edge13" class="edge"><title>n12260&#45;&gt;n12261</title>
</g>
<!-- n12261&#45;&gt;n12268 -->
<g id="edge3" class="edge"><title>n12261&#45;&gt;n12268</title>
<path fill="none" stroke="lightgray" d="M197.313,-301.002C239.021,-292.495 325.043,-274.058 396.392,-253 401.395,-251.523 406.616,-249.843 411.75,-248.108"/>
<polygon fill="lightgray" stroke="lightgray" points="413.14,-251.33 421.436,-244.74 410.841,-244.718 413.14,-251.33"/>
<text text-anchor="middle" x="314.892" y="-295.8" font-family="Times New Roman,serif" font-size="14.00" fill="lightgray">wff ps</text>
</g>
<!-- n12262 -->
<g id="node5" class="node"><title>n12262</title>
</g>
<!-- n12261&#45;&gt;n12262 -->
<g id="edge14" class="edge"><title>n12261&#45;&gt;n12262</title>
</g>
<!-- n12262&#45;&gt;n12268 -->
<g id="edge4" class="edge"><title>n12262&#45;&gt;n12268</title>
<path fill="none" stroke="lightgray" d="M198.311,-234C245.42,-234 345.173,-234 403.898,-234"/>
<polygon fill="lightgray" stroke="lightgray" points="404.011,-237.5 414.011,-234 404.011,-230.5 404.011,-237.5"/>
<text text-anchor="middle" x="314.892" y="-237.8" font-family="Times New Roman,serif" font-size="14.00" fill="lightgray">wff ch</text>
</g>
<!-- n12263 -->
<g id="node6" class="node"><title>n12263</title>
</g>
<!-- n12262&#45;&gt;n12263 -->
<g id="edge15" class="edge"><title>n12262&#45;&gt;n12263</title>
</g>
<!-- n12263&#45;&gt;n12268 -->
<g id="edge5" class="edge"><title>n12263&#45;&gt;n12268</title>
<path fill="none" stroke="lightgray" d="M197.313,-166.998C239.021,-175.505 325.043,-193.942 396.392,-215 401.395,-216.477 406.616,-218.157 411.75,-219.892"/>
<polygon fill="lightgray" stroke="lightgray" points="410.841,-223.282 421.436,-223.26 413.14,-216.67 410.841,-223.282"/>
<text text-anchor="middle" x="314.892" y="-218.8" font-family="Times New Roman,serif" font-size="14.00" fill="lightgray">wff th</text>
</g>
<!-- n12266 -->
<g id="node8" class="node"><title>n12266</title>
<ellipse fill="cyan" stroke="black" cx="171.196" cy="-90" rx="31.3957" ry="18"/>
<text text-anchor="middle" x="171.196" y="-86.3" font-family="Times New Roman,serif" font-size="14.00">simpr</text>
</g>
<!-- n12263&#45;&gt;n12266 -->
<g id="edge16" class="edge"><title>n12263&#45;&gt;n12266</title>
</g>
<!-- n12264 -->
<g id="node7" class="node"><title>n12264</title>
</g>
<!-- n12264&#45;&gt;n12266 -->
<g id="edge6" class="edge"><title>n12264&#45;&gt;n12266</title>
<path fill="none" stroke="lightgray" d="M51.8004,-127.468C74.1354,-120.4 107.867,-109.725 133.62,-101.575"/>
<polygon fill="lightgray" stroke="lightgray" points="134.93,-104.831 143.408,-98.4774 132.818,-98.1577 134.93,-104.831"/>
<text text-anchor="middle" x="90.5" y="-124.8" font-family="Times New Roman,serif" font-size="14.00" fill="lightgray">wff ta</text>
</g>
<!-- n12265 -->
<g id="node9" class="node"><title>n12265</title>
</g>
<!-- n12264&#45;&gt;n12265 -->
<g id="edge9" class="edge"><title>n12264&#45;&gt;n12265</title>
</g>
<!-- n12266&#45;&gt;n12268 -->
<g id="edge8" class="edge"><title>n12266&#45;&gt;n12268</title>
<path fill="none" stroke="black" d="M202.185,-92.634C247.989,-97.9572 336.374,-113.476 396.392,-157 414.116,-169.853 427.963,-190.474 437.11,-207.142"/>
<polygon fill="black" stroke="black" points="434.217,-209.165 441.946,-216.411 440.423,-205.926 434.217,-209.165"/>
<text text-anchor="middle" x="314.892" y="-160.8" font-family="Times New Roman,serif" font-size="14.00">|&#45; ( ( ta /\ ch ) &#45;&gt; ch )</text>
</g>
<!-- n12267 -->
<g id="node10" class="node"><title>n12267</title>
<ellipse fill="orange" stroke="black" cx="171.196" cy="-18" rx="44.393" ry="18"/>
<text text-anchor="middle" x="171.196" y="-14.3" font-family="Times New Roman,serif" font-size="14.00">adantr2.1</text>
</g>
<!-- n12266&#45;&gt;n12267 -->
<g id="edge17" class="edge"><title>n12266&#45;&gt;n12267</title>
</g>
<!-- n12265&#45;&gt;n12266 -->
<g id="edge7" class="edge"><title>n12265&#45;&gt;n12266</title>
<path fill="none" stroke="lightgray" d="M53.0945,-67.7649C74.8177,-71.8897 106.582,-77.9211 131.549,-82.6618"/>
<polygon fill="lightgray" stroke="lightgray" points="130.961,-86.1125 141.438,-84.5394 132.266,-79.2353 130.961,-86.1125"/>
<text text-anchor="middle" x="90.5" y="-82.8" font-family="Times New Roman,serif" font-size="14.00" fill="lightgray">wff ch</text>
</g>
<!-- n12267&#45;&gt;n12268 -->
<g id="edge10" class="edge"><title>n12267&#45;&gt;n12268</title>
<path fill="none" stroke="black" d="M215.475,-18.229C265.341,-20.822 346.768,-32.553 396.392,-79 432.172,-112.489 443.977,-171.05 447.872,-205.806"/>
<polygon fill="black" stroke="black" points="444.39,-206.161 448.844,-215.774 451.357,-205.481 444.39,-206.161"/>
<text text-anchor="middle" x="314.892" y="-82.8" font-family="Times New Roman,serif" font-size="14.00">|&#45; ( ( ph /\ ( ps /\ ch ) ) &#45;&gt; th )</text>
</g>
</g>
</svg>
