<?xml version="1.0" encoding="UTF-8" standalone="no"?>
<!DOCTYPE svg PUBLIC "-//W3C//DTD SVG 1.1//EN"
 "http://www.w3.org/Graphics/SVG/1.1/DTD/svg11.dtd">
<!-- Generated by graphviz version 2.38.0 (20140413.2041)
 -->
<!-- Title: proof_an4 Pages: 1 -->
<svg width="1445pt" height="740pt"
 viewBox="0.00 0.00 1444.98 740.00" xmlns="http://www.w3.org/2000/svg" xmlns:xlink="http://www.w3.org/1999/xlink">
<g id="graph0" class="graph" transform="scale(1 1) rotate(0) translate(4 736)">
<title>proof_an4</title>
<polygon fill="white" stroke="none" points="-4,4 -4,-736 1440.98,-736 1440.98,4 -4,4"/>
<!-- n14001 -->
<g id="node1" class="node"><title>n14001</title>
</g>
<!-- n14051 -->
<g id="node2" class="node"><title>n14051</title>
<ellipse fill="cyan" stroke="black" cx="959.686" cy="-486" rx="33.5952" ry="18"/>
<text text-anchor="middle" x="959.686" y="-482.3" font-family="Times New Roman,serif" font-size="14.00">3bitr4i</text>
</g>
<!-- n14001&#45;&gt;n14051 -->
<g id="edge1" class="edge"><title>n14001&#45;&gt;n14051</title>
<path fill="none" stroke="lightgray" d="M534.46,-706.723C603.193,-718.137 796.886,-739.781 907.889,-646 946.626,-613.273 956.172,-551.118 958.313,-514.658"/>
<polygon fill="lightgray" stroke="lightgray" points="961.829,-514.371 958.764,-504.229 954.835,-514.068 961.829,-514.371"/>
<text text-anchor="middle" x="733.389" y="-720.8" font-family="Times New Roman,serif" font-size="14.00" fill="lightgray">wff ( ph /\ ( ps /\ ( ch /\ th ) ) )</text>
</g>
<!-- n14008 -->
<g id="node3" class="node"><title>n14008</title>
</g>
<!-- n14001&#45;&gt;n14008 -->
<g id="edge31" class="edge"><title>n14001&#45;&gt;n14008</title>
</g>
<!-- QED -->
<g id="node22" class="node"><title>QED</title>
</g>
<!-- n14051&#45;&gt;QED -->
<g id="edge30" class="edge"><title>n14051&#45;&gt;QED</title>
<path fill="none" stroke="black" d="M993.485,-486C1074.12,-486 1281.73,-486 1368.12,-486"/>
<polygon fill="black" stroke="black" points="1368.28,-489.5 1378.28,-486 1368.28,-482.5 1368.28,-489.5"/>
<text text-anchor="middle" x="1185.98" y="-489.8" font-family="Times New Roman,serif" font-size="14.00">|&#45; ( ( ( ph /\ ps ) /\ ( ch /\ th ) ) &lt;&#45;&gt; ( ( ph /\ ch ) /\ ( ps /\ th ) ) )</text>
</g>
<!-- n14008&#45;&gt;n14051 -->
<g id="edge2" class="edge"><title>n14008&#45;&gt;n14051</title>
<path fill="none" stroke="lightgray" d="M535.492,-629.182C614.024,-626.276 846.496,-614.302 907.889,-573 928.746,-558.969 942.194,-533.272 949.979,-513.43"/>
<polygon fill="lightgray" stroke="lightgray" points="953.295,-514.553 953.448,-503.959 946.722,-512.145 953.295,-514.553"/>
<text text-anchor="middle" x="733.389" y="-630.8" font-family="Times New Roman,serif" font-size="14.00" fill="lightgray">wff ( ph /\ ( ch /\ ( ps /\ th ) ) )</text>
</g>
<!-- n14015 -->
<g id="node4" class="node"><title>n14015</title>
</g>
<!-- n14008&#45;&gt;n14015 -->
<g id="edge32" class="edge"><title>n14008&#45;&gt;n14015</title>
</g>
<!-- n14015&#45;&gt;n14051 -->
<g id="edge3" class="edge"><title>n14015&#45;&gt;n14051</title>
<path fill="none" stroke="lightgray" d="M535.413,-556.575C599.566,-552.625 770.105,-539.46 907.889,-505 912.899,-503.747 918.093,-502.159 923.164,-500.437"/>
<polygon fill="lightgray" stroke="lightgray" points="924.455,-503.692 932.68,-497.013 922.085,-497.105 924.455,-503.692"/>
<text text-anchor="middle" x="733.389" y="-557.8" font-family="Times New Roman,serif" font-size="14.00" fill="lightgray">wff ( ( ph /\ ps ) /\ ( ch /\ th ) )</text>
</g>
<!-- n14022 -->
<g id="node5" class="node"><title>n14022</title>
</g>
<!-- n14015&#45;&gt;n14022 -->
<g id="edge33" class="edge"><title>n14015&#45;&gt;n14022</title>
</g>
<!-- n14022&#45;&gt;n14051 -->
<g id="edge4" class="edge"><title>n14022&#45;&gt;n14051</title>
<path fill="none" stroke="lightgray" d="M535.49,-486C609.879,-486 823.536,-486 915.614,-486"/>
<polygon fill="lightgray" stroke="lightgray" points="915.703,-489.5 925.703,-486 915.703,-482.5 915.703,-489.5"/>
<text text-anchor="middle" x="733.389" y="-489.8" font-family="Times New Roman,serif" font-size="14.00" fill="lightgray">wff ( ( ph /\ ch ) /\ ( ps /\ th ) )</text>
</g>
<!-- n14038 -->
<g id="node7" class="node"><title>n14038</title>
<ellipse fill="cyan" stroke="black" cx="508.392" cy="-414" rx="32.4942" ry="18"/>
<text text-anchor="middle" x="508.392" y="-410.3" font-family="Times New Roman,serif" font-size="14.00">anbi2i</text>
</g>
<!-- n14022&#45;&gt;n14038 -->
<g id="edge34" class="edge"><title>n14022&#45;&gt;n14038</title>
</g>
<!-- n14027 -->
<g id="node6" class="node"><title>n14027</title>
</g>
<!-- n14027&#45;&gt;n14038 -->
<g id="edge5" class="edge"><title>n14027&#45;&gt;n14038</title>
<path fill="none" stroke="lightgray" d="M181.409,-634.406C239.601,-642.872 383.068,-654.371 457.895,-578 495.33,-539.792 456.034,-508.667 475.895,-459 478.767,-451.817 482.982,-444.667 487.4,-438.251"/>
<polygon fill="lightgray" stroke="lightgray" points="490.345,-440.155 493.444,-430.023 484.704,-436.011 490.345,-440.155"/>
<text text-anchor="middle" x="329.395" y="-643.8" font-family="Times New Roman,serif" font-size="14.00" fill="lightgray">wff ( ps /\ ( ch /\ th ) )</text>
</g>
<!-- n14032 -->
<g id="node8" class="node"><title>n14032</title>
</g>
<!-- n14027&#45;&gt;n14032 -->
<g id="edge15" class="edge"><title>n14027&#45;&gt;n14032</title>
</g>
<!-- n14038&#45;&gt;n14051 -->
<g id="edge14" class="edge"><title>n14038&#45;&gt;n14051</title>
<path fill="none" stroke="black" d="M540.845,-415.766C608.76,-420.102 773.829,-433.471 907.889,-467 912.899,-468.253 918.093,-469.841 923.164,-471.563"/>
<polygon fill="black" stroke="black" points="922.085,-474.895 932.68,-474.987 924.455,-468.308 922.085,-474.895"/>
<text text-anchor="middle" x="733.389" y="-470.8" font-family="Times New Roman,serif" font-size="14.00">|&#45; ( ( ph /\ ( ps /\ ( ch /\ th ) ) ) &lt;&#45;&gt; ( ph /\ ( ch /\ ( ps /\ th ) ) ) )</text>
</g>
<!-- n14044 -->
<g id="node15" class="node"><title>n14044</title>
<ellipse fill="cyan" stroke="black" cx="508.392" cy="-319" rx="30.5947" ry="18"/>
<text text-anchor="middle" x="508.392" y="-315.3" font-family="Times New Roman,serif" font-size="14.00">anass</text>
</g>
<!-- n14038&#45;&gt;n14044 -->
<g id="edge35" class="edge"><title>n14038&#45;&gt;n14044</title>
</g>
<!-- n14032&#45;&gt;n14038 -->
<g id="edge6" class="edge"><title>n14032&#45;&gt;n14038</title>
<path fill="none" stroke="lightgray" d="M181.84,-560.508C238.463,-564.55 374.86,-566.251 457.895,-500 473.451,-487.588 466.142,-476.347 475.895,-459 479.686,-452.257 484.238,-445.268 488.687,-438.867"/>
<polygon fill="lightgray" stroke="lightgray" points="491.642,-440.751 494.609,-430.581 485.947,-436.681 491.642,-440.751"/>
<text text-anchor="middle" x="329.395" y="-565.8" font-family="Times New Roman,serif" font-size="14.00" fill="lightgray">wff ( ch /\ ( ps /\ th ) )</text>
</g>
<!-- n14033 -->
<g id="node9" class="node"><title>n14033</title>
</g>
<!-- n14032&#45;&gt;n14033 -->
<g id="edge16" class="edge"><title>n14032&#45;&gt;n14033</title>
</g>
<!-- n14033&#45;&gt;n14038 -->
<g id="edge7" class="edge"><title>n14033&#45;&gt;n14038</title>
<path fill="none" stroke="lightgray" d="M181.767,-483.171C234.404,-477.034 357.618,-460.767 457.895,-433 462.688,-431.673 467.663,-430.059 472.529,-428.34"/>
<polygon fill="lightgray" stroke="lightgray" points="474.118,-431.483 482.272,-424.719 471.679,-424.922 474.118,-431.483"/>
<text text-anchor="middle" x="329.395" y="-484.8" font-family="Times New Roman,serif" font-size="14.00" fill="lightgray">wff ph</text>
</g>
<!-- n14037 -->
<g id="node11" class="node"><title>n14037</title>
<ellipse fill="cyan" stroke="black" cx="154.948" cy="-414" rx="27.8951" ry="18"/>
<text text-anchor="middle" x="154.948" y="-410.3" font-family="Times New Roman,serif" font-size="14.00">an12</text>
</g>
<!-- n14033&#45;&gt;n14037 -->
<g id="edge17" class="edge"><title>n14033&#45;&gt;n14037</title>
</g>
<!-- n14034 -->
<g id="node10" class="node"><title>n14034</title>
</g>
<!-- n14034&#45;&gt;n14037 -->
<g id="edge8" class="edge"><title>n14034&#45;&gt;n14037</title>
<path fill="none" stroke="lightgray" d="M47.9568,-474.591C68.5315,-462.829 100.841,-444.359 124.383,-430.901"/>
<polygon fill="lightgray" stroke="lightgray" points="126.302,-433.835 133.247,-425.834 122.828,-427.758 126.302,-433.835"/>
<text text-anchor="middle" x="90.5" y="-464.8" font-family="Times New Roman,serif" font-size="14.00" fill="lightgray">wff ps</text>
</g>
<!-- n14035 -->
<g id="node12" class="node"><title>n14035</title>
</g>
<!-- n14034&#45;&gt;n14035 -->
<g id="edge12" class="edge"><title>n14034&#45;&gt;n14035</title>
</g>
<!-- n14037&#45;&gt;n14038 -->
<g id="edge11" class="edge"><title>n14037&#45;&gt;n14038</title>
<path fill="none" stroke="black" d="M182.941,-414C243.914,-414 392.641,-414 465.617,-414"/>
<polygon fill="black" stroke="black" points="465.815,-417.5 475.815,-414 465.815,-410.5 465.815,-417.5"/>
<text text-anchor="middle" x="329.395" y="-417.8" font-family="Times New Roman,serif" font-size="14.00">|&#45; ( ( ps /\ ( ch /\ th ) ) &lt;&#45;&gt; ( ch /\ ( ps /\ th ) ) )</text>
</g>
<!-- n14035&#45;&gt;n14037 -->
<g id="edge9" class="edge"><title>n14035&#45;&gt;n14037</title>
<path fill="none" stroke="lightgray" d="M54.0964,-414C72.1354,-414 96.4077,-414 116.504,-414"/>
<polygon fill="lightgray" stroke="lightgray" points="116.578,-417.5 126.578,-414 116.578,-410.5 116.578,-417.5"/>
<text text-anchor="middle" x="90.5" y="-417.8" font-family="Times New Roman,serif" font-size="14.00" fill="lightgray">wff ch</text>
</g>
<!-- n14036 -->
<g id="node13" class="node"><title>n14036</title>
</g>
<!-- n14035&#45;&gt;n14036 -->
<g id="edge13" class="edge"><title>n14035&#45;&gt;n14036</title>
</g>
<!-- n14036&#45;&gt;n14037 -->
<g id="edge10" class="edge"><title>n14036&#45;&gt;n14037</title>
<path fill="none" stroke="lightgray" d="M47.9568,-353.409C68.5315,-365.171 100.841,-383.641 124.383,-397.099"/>
<polygon fill="lightgray" stroke="lightgray" points="122.828,-400.242 133.247,-402.166 126.302,-394.165 122.828,-400.242"/>
<text text-anchor="middle" x="90.5" y="-392.8" font-family="Times New Roman,serif" font-size="14.00" fill="lightgray">wff th</text>
</g>
<!-- n14039 -->
<g id="node14" class="node"><title>n14039</title>
</g>
<!-- n14039&#45;&gt;n14044 -->
<g id="edge18" class="edge"><title>n14039&#45;&gt;n14044</title>
<path fill="none" stroke="lightgray" d="M181.932,-358.47C234.362,-355.151 356.463,-346.25 457.895,-330 461.84,-329.368 465.943,-328.614 470.022,-327.802"/>
<polygon fill="lightgray" stroke="lightgray" points="470.95,-331.183 480.014,-325.697 469.508,-324.333 470.95,-331.183"/>
<text text-anchor="middle" x="329.395" y="-361.8" font-family="Times New Roman,serif" font-size="14.00" fill="lightgray">wff ph</text>
</g>
<!-- n14040 -->
<g id="node16" class="node"><title>n14040</title>
</g>
<!-- n14039&#45;&gt;n14040 -->
<g id="edge22" class="edge"><title>n14039&#45;&gt;n14040</title>
</g>
<!-- n14044&#45;&gt;n14051 -->
<g id="edge21" class="edge"><title>n14044&#45;&gt;n14051</title>
<path fill="none" stroke="black" d="M538.833,-317.151C609.498,-314.227 791.467,-315.847 907.889,-399 928.344,-413.61 941.842,-439.236 949.748,-458.904"/>
<polygon fill="black" stroke="black" points="946.48,-460.158 953.282,-468.281 953.03,-457.689 946.48,-460.158"/>
<text text-anchor="middle" x="733.389" y="-402.8" font-family="Times New Roman,serif" font-size="14.00">|&#45; ( ( ( ph /\ ps ) /\ ( ch /\ th ) ) &lt;&#45;&gt; ( ph /\ ( ps /\ ( ch /\ th ) ) ) )</text>
</g>
<!-- n14050 -->
<g id="node19" class="node"><title>n14050</title>
<ellipse fill="cyan" stroke="black" cx="508.392" cy="-162" rx="30.5947" ry="18"/>
<text text-anchor="middle" x="508.392" y="-158.3" font-family="Times New Roman,serif" font-size="14.00">anass</text>
</g>
<!-- n14044&#45;&gt;n14050 -->
<g id="edge36" class="edge"><title>n14044&#45;&gt;n14050</title>
</g>
<!-- n14040&#45;&gt;n14044 -->
<g id="edge19" class="edge"><title>n14040&#45;&gt;n14044</title>
<path fill="none" stroke="lightgray" d="M181.79,-290.28C242.679,-295.65 395.464,-309.127 467.992,-315.525"/>
<polygon fill="lightgray" stroke="lightgray" points="467.821,-319.023 478.09,-316.415 468.436,-312.05 467.821,-319.023"/>
<text text-anchor="middle" x="329.395" y="-318.8" font-family="Times New Roman,serif" font-size="14.00" fill="lightgray">wff ps</text>
</g>
<!-- n14043 -->
<g id="node17" class="node"><title>n14043</title>
</g>
<!-- n14040&#45;&gt;n14043 -->
<g id="edge23" class="edge"><title>n14040&#45;&gt;n14043</title>
</g>
<!-- n14043&#45;&gt;n14044 -->
<g id="edge20" class="edge"><title>n14043&#45;&gt;n14044</title>
<path fill="none" stroke="lightgray" d="M182.096,-216.339C236.388,-218.015 364.085,-227.076 457.895,-274 468.551,-279.33 478.616,-287.616 486.852,-295.631"/>
<polygon fill="lightgray" stroke="lightgray" points="484.378,-298.108 493.866,-302.824 489.39,-293.221 484.378,-298.108"/>
<text text-anchor="middle" x="329.395" y="-277.8" font-family="Times New Roman,serif" font-size="14.00" fill="lightgray">wff ( ch /\ th )</text>
</g>
<!-- n14045 -->
<g id="node18" class="node"><title>n14045</title>
</g>
<!-- n14045&#45;&gt;n14050 -->
<g id="edge24" class="edge"><title>n14045&#45;&gt;n14050</title>
<path fill="none" stroke="lightgray" d="M182.076,-162C243.028,-162 394.94,-162 467.537,-162"/>
<polygon fill="lightgray" stroke="lightgray" points="467.652,-165.5 477.652,-162 467.652,-158.5 467.652,-165.5"/>
<text text-anchor="middle" x="329.395" y="-165.8" font-family="Times New Roman,serif" font-size="14.00" fill="lightgray">wff ph</text>
</g>
<!-- n14046 -->
<g id="node20" class="node"><title>n14046</title>
</g>
<!-- n14045&#45;&gt;n14046 -->
<g id="edge28" class="edge"><title>n14045&#45;&gt;n14046</title>
</g>
<!-- n14050&#45;&gt;n14051 -->
<g id="edge27" class="edge"><title>n14050&#45;&gt;n14051</title>
<path fill="none" stroke="black" d="M539.145,-163.069C612.944,-167.378 805.797,-189.047 907.889,-298 949.483,-342.388 957.702,-417.246 958.914,-457.819"/>
<polygon fill="black" stroke="black" points="955.415,-457.891 959.09,-467.828 962.414,-457.768 955.415,-457.891"/>
<text text-anchor="middle" x="733.389" y="-301.8" font-family="Times New Roman,serif" font-size="14.00">|&#45; ( ( ( ph /\ ch ) /\ ( ps /\ th ) ) &lt;&#45;&gt; ( ph /\ ( ch /\ ( ps /\ th ) ) ) )</text>
</g>
<!-- n14046&#45;&gt;n14050 -->
<g id="edge25" class="edge"><title>n14046&#45;&gt;n14050</title>
<path fill="none" stroke="lightgray" d="M181.767,-92.8287C234.404,-98.9663 357.618,-115.233 457.895,-143 463.03,-144.422 468.374,-146.172 473.57,-148.03"/>
<polygon fill="lightgray" stroke="lightgray" points="472.692,-151.439 483.284,-151.676 475.152,-144.886 472.692,-151.439"/>
<text text-anchor="middle" x="329.395" y="-146.8" font-family="Times New Roman,serif" font-size="14.00" fill="lightgray">wff ch</text>
</g>
<!-- n14049 -->
<g id="node21" class="node"><title>n14049</title>
</g>
<!-- n14046&#45;&gt;n14049 -->
<g id="edge29" class="edge"><title>n14046&#45;&gt;n14049</title>
</g>
<!-- n14049&#45;&gt;n14050 -->
<g id="edge26" class="edge"><title>n14049&#45;&gt;n14050</title>
<path fill="none" stroke="lightgray" d="M182.15,-16.2742C238.217,-13.9313 371.712,-15.7043 457.895,-77 477.685,-91.0752 490.762,-115.743 498.478,-134.891"/>
<polygon fill="lightgray" stroke="lightgray" points="495.228,-136.194 502.031,-144.316 501.778,-133.724 495.228,-136.194"/>
<text text-anchor="middle" x="329.395" y="-80.8" font-family="Times New Roman,serif" font-size="14.00" fill="lightgray">wff ( ps /\ th )</text>
</g>
</g>
</svg>
