<?xml version="1.0" encoding="UTF-8" standalone="no"?>
<!DOCTYPE svg PUBLIC "-//W3C//DTD SVG 1.1//EN"
 "http://www.w3.org/Graphics/SVG/1.1/DTD/svg11.dtd">
<!-- Generated by graphviz version 2.38.0 (20140413.2041)
 -->
<!-- Title: proof_anabs7 Pages: 1 -->
<svg width="1082pt" height="295pt"
 viewBox="0.00 0.00 1082.18 295.00" xmlns="http://www.w3.org/2000/svg" xmlns:xlink="http://www.w3.org/1999/xlink">
<g id="graph0" class="graph" transform="scale(1 1) rotate(0) translate(4 291)">
<title>proof_anabs7</title>
<polygon fill="white" stroke="none" points="-4,4 -4,-291 1078.18,-291 1078.18,4 -4,4"/>
<!-- n13872 -->
<g id="node1" class="node"><title>n13872</title>
</g>
<!-- n13886 -->
<g id="node2" class="node"><title>n13886</title>
<ellipse fill="cyan" stroke="black" cx="723.934" cy="-197" rx="35.9954" ry="18"/>
<text text-anchor="middle" x="723.934" y="-193.3" font-family="Times New Roman,serif" font-size="14.00">bicomi</text>
</g>
<!-- n13872&#45;&gt;n13886 -->
<g id="edge1" class="edge"><title>n13872&#45;&gt;n13886</title>
<path fill="none" stroke="lightgray" d="M416.071,-265.517C465.779,-258.494 578.104,-241.132 670.187,-216 675.222,-214.626 680.463,-212.993 685.601,-211.272"/>
<polygon fill="lightgray" stroke="lightgray" points="686.988,-214.495 695.276,-207.894 684.681,-207.886 686.988,-214.495"/>
<text text-anchor="middle" x="560.187" y="-262.8" font-family="Times New Roman,serif" font-size="14.00" fill="lightgray">wff ( ph /\ ps )</text>
</g>
<!-- n13877 -->
<g id="node3" class="node"><title>n13877</title>
</g>
<!-- n13872&#45;&gt;n13877 -->
<g id="edge13" class="edge"><title>n13872&#45;&gt;n13877</title>
</g>
<!-- QED -->
<g id="node10" class="node"><title>QED</title>
</g>
<!-- n13886&#45;&gt;QED -->
<g id="edge12" class="edge"><title>n13886&#45;&gt;QED</title>
<path fill="none" stroke="black" d="M759.984,-197C820.112,-197 942.478,-197 1005.1,-197"/>
<polygon fill="black" stroke="black" points="1005.35,-200.5 1015.35,-197 1005.35,-193.5 1005.35,-200.5"/>
<text text-anchor="middle" x="887.681" y="-200.8" font-family="Times New Roman,serif" font-size="14.00">|&#45; ( ( ps /\ ( ph /\ ps ) ) &lt;&#45;&gt; ( ph /\ ps ) )</text>
</g>
<!-- n13877&#45;&gt;n13886 -->
<g id="edge2" class="edge"><title>n13877&#45;&gt;n13886</title>
<path fill="none" stroke="lightgray" d="M416.393,-197C472.917,-197 607.223,-197 677.811,-197"/>
<polygon fill="lightgray" stroke="lightgray" points="678.159,-200.5 688.159,-197 678.159,-193.5 678.159,-200.5"/>
<text text-anchor="middle" x="560.187" y="-200.8" font-family="Times New Roman,serif" font-size="14.00" fill="lightgray">wff ( ps /\ ( ph /\ ps ) )</text>
</g>
<!-- n13885 -->
<g id="node5" class="node"><title>n13885</title>
<ellipse fill="cyan" stroke="black" cx="389.291" cy="-125" rx="42.7926" ry="18"/>
<text text-anchor="middle" x="389.291" y="-121.3" font-family="Times New Roman,serif" font-size="14.00">pm4.71ri</text>
</g>
<!-- n13877&#45;&gt;n13885 -->
<g id="edge14" class="edge"><title>n13877&#45;&gt;n13885</title>
</g>
<!-- n13880 -->
<g id="node4" class="node"><title>n13880</title>
</g>
<!-- n13880&#45;&gt;n13885 -->
<g id="edge3" class="edge"><title>n13880&#45;&gt;n13885</title>
<path fill="none" stroke="lightgray" d="M183.023,-189.566C215.784,-179.338 276.578,-160.334 328.394,-144 333.727,-142.319 339.325,-140.55 344.868,-138.795"/>
<polygon fill="lightgray" stroke="lightgray" points="346.243,-142.031 354.718,-135.673 344.128,-135.358 346.243,-142.031"/>
<text text-anchor="middle" x="267.894" y="-184.8" font-family="Times New Roman,serif" font-size="14.00" fill="lightgray">wff ( ph /\ ps )</text>
</g>
<!-- n13881 -->
<g id="node6" class="node"><title>n13881</title>
</g>
<!-- n13880&#45;&gt;n13881 -->
<g id="edge10" class="edge"><title>n13880&#45;&gt;n13881</title>
</g>
<!-- n13885&#45;&gt;n13886 -->
<g id="edge9" class="edge"><title>n13885&#45;&gt;n13886</title>
<path fill="none" stroke="black" d="M430.141,-130.51C484.837,-138.532 585.976,-155.016 670.187,-178 675.222,-179.374 680.463,-181.007 685.601,-182.728"/>
<polygon fill="black" stroke="black" points="684.681,-186.114 695.276,-186.106 686.988,-179.505 684.681,-186.114"/>
<text text-anchor="middle" x="560.187" y="-181.8" font-family="Times New Roman,serif" font-size="14.00">|&#45; ( ( ph /\ ps ) &lt;&#45;&gt; ( ps /\ ( ph /\ ps ) ) )</text>
</g>
<!-- n13881&#45;&gt;n13885 -->
<g id="edge4" class="edge"><title>n13881&#45;&gt;n13885</title>
<path fill="none" stroke="lightgray" d="M185.477,-125C221.972,-125 288.798,-125 335.741,-125"/>
<polygon fill="lightgray" stroke="lightgray" points="336.03,-128.5 346.029,-125 336.029,-121.5 336.03,-128.5"/>
<text text-anchor="middle" x="267.894" y="-128.8" font-family="Times New Roman,serif" font-size="14.00" fill="lightgray">wff ps</text>
</g>
<!-- n13884 -->
<g id="node8" class="node"><title>n13884</title>
<ellipse fill="cyan" stroke="black" cx="158.197" cy="-53" rx="31.3957" ry="18"/>
<text text-anchor="middle" x="158.197" y="-49.3" font-family="Times New Roman,serif" font-size="14.00">simpr</text>
</g>
<!-- n13881&#45;&gt;n13884 -->
<g id="edge11" class="edge"><title>n13881&#45;&gt;n13884</title>
</g>
<!-- n13882 -->
<g id="node7" class="node"><title>n13882</title>
</g>
<!-- n13882&#45;&gt;n13884 -->
<g id="edge5" class="edge"><title>n13882&#45;&gt;n13884</title>
<path fill="none" stroke="lightgray" d="M51.9982,-83.1273C71.1095,-77.6541 98.1938,-69.8976 120.094,-63.6257"/>
<polygon fill="lightgray" stroke="lightgray" points="121.095,-66.9799 129.745,-60.862 119.168,-60.2505 121.095,-66.9799"/>
<text text-anchor="middle" x="90.5" y="-80.8" font-family="Times New Roman,serif" font-size="14.00" fill="lightgray">wff ph</text>
</g>
<!-- n13883 -->
<g id="node9" class="node"><title>n13883</title>
</g>
<!-- n13882&#45;&gt;n13883 -->
<g id="edge8" class="edge"><title>n13882&#45;&gt;n13883</title>
</g>
<!-- n13884&#45;&gt;n13885 -->
<g id="edge7" class="edge"><title>n13884&#45;&gt;n13885</title>
<path fill="none" stroke="black" d="M185.874,-61.3236C219.222,-71.7363 278.046,-90.1286 328.394,-106 333.727,-107.681 339.325,-109.45 344.868,-111.205"/>
<polygon fill="black" stroke="black" points="344.128,-114.642 354.718,-114.327 346.243,-107.969 344.128,-114.642"/>
<text text-anchor="middle" x="267.894" y="-109.8" font-family="Times New Roman,serif" font-size="14.00">|&#45; ( ( ph /\ ps ) &#45;&gt; ps )</text>
</g>
<!-- n13883&#45;&gt;n13884 -->
<g id="edge6" class="edge"><title>n13883&#45;&gt;n13884</title>
<path fill="none" stroke="lightgray" d="M52.301,-24.5832C71.2318,-29.7117 97.8502,-36.9227 119.535,-42.7972"/>
<polygon fill="lightgray" stroke="lightgray" points="118.849,-46.2375 129.417,-45.4742 120.68,-39.4811 118.849,-46.2375"/>
<text text-anchor="middle" x="90.5" y="-43.8" font-family="Times New Roman,serif" font-size="14.00" fill="lightgray">wff ps</text>
</g>
</g>
</svg>
