<?xml version="1.0" encoding="UTF-8" standalone="no"?>
<!DOCTYPE svg PUBLIC "-//W3C//DTD SVG 1.1//EN"
 "http://www.w3.org/Graphics/SVG/1.1/DTD/svg11.dtd">
<!-- Generated by graphviz version 2.38.0 (20140413.2041)
 -->
<!-- Title: proof_anabs1 Pages: 1 -->
<svg width="1076pt" height="295pt"
 viewBox="0.00 0.00 1075.68 295.00" xmlns="http://www.w3.org/2000/svg" xmlns:xlink="http://www.w3.org/1999/xlink">
<g id="graph0" class="graph" transform="scale(1 1) rotate(0) translate(4 291)">
<title>proof_anabs1</title>
<polygon fill="white" stroke="none" points="-4,4 -4,-291 1071.68,-291 1071.68,4 -4,4"/>
<!-- n13840 -->
<g id="node1" class="node"><title>n13840</title>
</g>
<!-- n13854 -->
<g id="node2" class="node"><title>n13854</title>
<ellipse fill="cyan" stroke="black" cx="717.434" cy="-197" rx="35.9954" ry="18"/>
<text text-anchor="middle" x="717.434" y="-193.3" font-family="Times New Roman,serif" font-size="14.00">bicomi</text>
</g>
<!-- n13840&#45;&gt;n13854 -->
<g id="edge1" class="edge"><title>n13840&#45;&gt;n13854</title>
<path fill="none" stroke="lightgray" d="M411.93,-265.49C461.174,-258.421 572.451,-240.985 663.687,-216 668.722,-214.621 673.961,-212.987 679.099,-211.264"/>
<polygon fill="lightgray" stroke="lightgray" points="680.487,-214.486 688.774,-207.885 678.179,-207.878 680.487,-214.486"/>
<text text-anchor="middle" x="553.687" y="-262.8" font-family="Times New Roman,serif" font-size="14.00" fill="lightgray">wff ( ph /\ ps )</text>
</g>
<!-- n13845 -->
<g id="node3" class="node"><title>n13845</title>
</g>
<!-- n13840&#45;&gt;n13845 -->
<g id="edge13" class="edge"><title>n13840&#45;&gt;n13845</title>
</g>
<!-- QED -->
<g id="node10" class="node"><title>QED</title>
</g>
<!-- n13854&#45;&gt;QED -->
<g id="edge12" class="edge"><title>n13854&#45;&gt;QED</title>
<path fill="none" stroke="black" d="M753.485,-197C813.612,-197 935.978,-197 998.605,-197"/>
<polygon fill="black" stroke="black" points="998.851,-200.5 1008.85,-197 998.851,-193.5 998.851,-200.5"/>
<text text-anchor="middle" x="881.181" y="-200.8" font-family="Times New Roman,serif" font-size="14.00">|&#45; ( ( ( ph /\ ps ) /\ ph ) &lt;&#45;&gt; ( ph /\ ps ) )</text>
</g>
<!-- n13845&#45;&gt;n13854 -->
<g id="edge2" class="edge"><title>n13845&#45;&gt;n13854</title>
<path fill="none" stroke="lightgray" d="M412.565,-197C468.688,-197 601.179,-197 671.219,-197"/>
<polygon fill="lightgray" stroke="lightgray" points="671.493,-200.5 681.493,-197 671.493,-193.5 671.493,-200.5"/>
<text text-anchor="middle" x="553.687" y="-200.8" font-family="Times New Roman,serif" font-size="14.00" fill="lightgray">wff ( ( ph /\ ps ) /\ ph )</text>
</g>
<!-- n13853 -->
<g id="node5" class="node"><title>n13853</title>
<ellipse fill="cyan" stroke="black" cx="385.391" cy="-125" rx="40.0939" ry="18"/>
<text text-anchor="middle" x="385.391" y="-121.3" font-family="Times New Roman,serif" font-size="14.00">pm4.71i</text>
</g>
<!-- n13845&#45;&gt;n13853 -->
<g id="edge14" class="edge"><title>n13845&#45;&gt;n13853</title>
</g>
<!-- n13848 -->
<g id="node4" class="node"><title>n13848</title>
</g>
<!-- n13848&#45;&gt;n13853 -->
<g id="edge3" class="edge"><title>n13848&#45;&gt;n13853</title>
<path fill="none" stroke="lightgray" d="M182.31,-189.655C214.978,-179.529 275.575,-160.641 327.095,-144 332.268,-142.329 337.697,-140.555 343.067,-138.788"/>
<polygon fill="lightgray" stroke="lightgray" points="344.2,-142.1 352.598,-135.64 342.005,-135.453 344.2,-142.1"/>
<text text-anchor="middle" x="266.595" y="-184.8" font-family="Times New Roman,serif" font-size="14.00" fill="lightgray">wff ( ph /\ ps )</text>
</g>
<!-- n13849 -->
<g id="node6" class="node"><title>n13849</title>
</g>
<!-- n13848&#45;&gt;n13849 -->
<g id="edge10" class="edge"><title>n13848&#45;&gt;n13849</title>
</g>
<!-- n13853&#45;&gt;n13854 -->
<g id="edge9" class="edge"><title>n13853&#45;&gt;n13854</title>
<path fill="none" stroke="black" d="M424.045,-130.278C477.781,-138.241 579.306,-154.892 663.687,-178 668.722,-179.379 673.961,-181.013 679.099,-182.736"/>
<polygon fill="black" stroke="black" points="678.179,-186.122 688.774,-186.115 680.487,-179.514 678.179,-186.122"/>
<text text-anchor="middle" x="553.687" y="-181.8" font-family="Times New Roman,serif" font-size="14.00">|&#45; ( ( ph /\ ps ) &lt;&#45;&gt; ( ( ph /\ ps ) /\ ph ) )</text>
</g>
<!-- n13849&#45;&gt;n13853 -->
<g id="edge4" class="edge"><title>n13849&#45;&gt;n13853</title>
<path fill="none" stroke="lightgray" d="M184.896,-125C221.568,-125 288.683,-125 334.867,-125"/>
<polygon fill="lightgray" stroke="lightgray" points="334.964,-128.5 344.964,-125 334.964,-121.5 334.964,-128.5"/>
<text text-anchor="middle" x="266.595" y="-128.8" font-family="Times New Roman,serif" font-size="14.00" fill="lightgray">wff ph</text>
</g>
<!-- n13852 -->
<g id="node8" class="node"><title>n13852</title>
<ellipse fill="cyan" stroke="black" cx="157.547" cy="-53" rx="30.5947" ry="18"/>
<text text-anchor="middle" x="157.547" y="-49.3" font-family="Times New Roman,serif" font-size="14.00">simpl</text>
</g>
<!-- n13849&#45;&gt;n13852 -->
<g id="edge11" class="edge"><title>n13849&#45;&gt;n13852</title>
</g>
<!-- n13850 -->
<g id="node7" class="node"><title>n13850</title>
</g>
<!-- n13850&#45;&gt;n13852 -->
<g id="edge5" class="edge"><title>n13850&#45;&gt;n13852</title>
<path fill="none" stroke="lightgray" d="M52.1788,-83.0406C71.2655,-77.5468 98.2064,-69.7924 119.935,-63.5381"/>
<polygon fill="lightgray" stroke="lightgray" points="121.173,-66.824 129.815,-60.6945 119.237,-60.0972 121.173,-66.824"/>
<text text-anchor="middle" x="90.5" y="-80.8" font-family="Times New Roman,serif" font-size="14.00" fill="lightgray">wff ph</text>
</g>
<!-- n13851 -->
<g id="node9" class="node"><title>n13851</title>
</g>
<!-- n13850&#45;&gt;n13851 -->
<g id="edge8" class="edge"><title>n13850&#45;&gt;n13851</title>
</g>
<!-- n13852&#45;&gt;n13853 -->
<g id="edge7" class="edge"><title>n13852&#45;&gt;n13853</title>
<path fill="none" stroke="black" d="M184.863,-61.1361C218.062,-71.4326 276.889,-89.7831 327.095,-106 332.268,-107.671 337.697,-109.445 343.067,-111.212"/>
<polygon fill="black" stroke="black" points="342.005,-114.547 352.598,-114.36 344.2,-107.9 342.005,-114.547"/>
<text text-anchor="middle" x="266.595" y="-109.8" font-family="Times New Roman,serif" font-size="14.00">|&#45; ( ( ph /\ ps ) &#45;&gt; ph )</text>
</g>
<!-- n13851&#45;&gt;n13852 -->
<g id="edge6" class="edge"><title>n13851&#45;&gt;n13852</title>
<path fill="none" stroke="lightgray" d="M52.1788,-24.5832C71.1399,-29.7458 97.8522,-37.0189 119.506,-42.9145"/>
<polygon fill="lightgray" stroke="lightgray" points="118.794,-46.348 129.362,-45.5981 120.633,-39.5939 118.794,-46.348"/>
<text text-anchor="middle" x="90.5" y="-43.8" font-family="Times New Roman,serif" font-size="14.00" fill="lightgray">wff ps</text>
</g>
</g>
</svg>
