<?xml version="1.0" encoding="UTF-8" standalone="no"?>
<!DOCTYPE svg PUBLIC "-//W3C//DTD SVG 1.1//EN"
 "http://www.w3.org/Graphics/SVG/1.1/DTD/svg11.dtd">
<!-- Generated by graphviz version 2.38.0 (20140413.2041)
 -->
<!-- Title: proof_anabsi5 Pages: 1 -->
<svg width="858pt" height="367pt"
 viewBox="0.00 0.00 857.78 367.00" xmlns="http://www.w3.org/2000/svg" xmlns:xlink="http://www.w3.org/1999/xlink">
<g id="graph0" class="graph" transform="scale(1 1) rotate(0) translate(4 363)">
<title>proof_anabsi5</title>
<polygon fill="white" stroke="none" points="-4,4 -4,-363 853.78,-363 853.78,4 -4,4"/>
<!-- n13926 -->
<g id="node1" class="node"><title>n13926</title>
</g>
<!-- n13936 -->
<g id="node2" class="node"><title>n13936</title>
<ellipse fill="cyan" stroke="black" cx="593.988" cy="-232" rx="40.0939" ry="18"/>
<text text-anchor="middle" x="593.988" y="-228.3" font-family="Times New Roman,serif" font-size="14.00">anabss5</text>
</g>
<!-- n13926&#45;&gt;n13936 -->
<g id="edge1" class="edge"><title>n13926&#45;&gt;n13936</title>
<path fill="none" stroke="lightgray" d="M351.263,-337.32C392.189,-330.656 474.062,-314.103 535.692,-281 548.066,-274.354 560.134,-264.669 569.978,-255.662"/>
<polygon fill="lightgray" stroke="lightgray" points="572.517,-258.077 577.36,-248.654 567.698,-253.001 572.517,-258.077"/>
<text text-anchor="middle" x="452.692" y="-336.8" font-family="Times New Roman,serif" font-size="14.00" fill="lightgray">wff ph</text>
</g>
<!-- n13927 -->
<g id="node3" class="node"><title>n13927</title>
</g>
<!-- n13926&#45;&gt;n13927 -->
<g id="edge13" class="edge"><title>n13926&#45;&gt;n13927</title>
</g>
<!-- QED -->
<g id="node10" class="node"><title>QED</title>
</g>
<!-- n13936&#45;&gt;QED -->
<g id="edge12" class="edge"><title>n13936&#45;&gt;QED</title>
<path fill="none" stroke="black" d="M634.358,-232C675.665,-232 740.168,-232 781.114,-232"/>
<polygon fill="black" stroke="black" points="781.241,-235.5 791.241,-232 781.241,-228.5 781.241,-235.5"/>
<text text-anchor="middle" x="712.785" y="-235.8" font-family="Times New Roman,serif" font-size="14.00">|&#45; ( ( ph /\ ps ) &#45;&gt; ch )</text>
</g>
<!-- n13927&#45;&gt;n13936 -->
<g id="edge2" class="edge"><title>n13927&#45;&gt;n13936</title>
<path fill="none" stroke="lightgray" d="M351.322,-265.452C395.852,-259.288 488.168,-246.51 544.93,-238.652"/>
<polygon fill="lightgray" stroke="lightgray" points="545.669,-242.084 555.095,-237.245 544.709,-235.15 545.669,-242.084"/>
<text text-anchor="middle" x="452.692" y="-265.8" font-family="Times New Roman,serif" font-size="14.00" fill="lightgray">wff ps</text>
</g>
<!-- n13928 -->
<g id="node4" class="node"><title>n13928</title>
</g>
<!-- n13927&#45;&gt;n13928 -->
<g id="edge14" class="edge"><title>n13927&#45;&gt;n13928</title>
</g>
<!-- n13928&#45;&gt;n13936 -->
<g id="edge3" class="edge"><title>n13928&#45;&gt;n13936</title>
<path fill="none" stroke="lightgray" d="M351.591,-199.931C391.273,-204.484 469.481,-213.704 535.692,-223 538.933,-223.455 542.274,-223.94 545.638,-224.439"/>
<polygon fill="lightgray" stroke="lightgray" points="545.31,-227.929 555.722,-225.966 546.358,-221.008 545.31,-227.929"/>
<text text-anchor="middle" x="452.692" y="-226.8" font-family="Times New Roman,serif" font-size="14.00" fill="lightgray">wff ch</text>
</g>
<!-- n13935 -->
<g id="node6" class="node"><title>n13935</title>
<ellipse fill="cyan" stroke="black" cx="324.692" cy="-125" rx="27" ry="18"/>
<text text-anchor="middle" x="324.692" y="-121.3" font-family="Times New Roman,serif" font-size="14.00">imp</text>
</g>
<!-- n13928&#45;&gt;n13935 -->
<g id="edge15" class="edge"><title>n13928&#45;&gt;n13935</title>
</g>
<!-- n13929 -->
<g id="node5" class="node"><title>n13929</title>
</g>
<!-- n13929&#45;&gt;n13935 -->
<g id="edge4" class="edge"><title>n13929&#45;&gt;n13935</title>
<path fill="none" stroke="lightgray" d="M71.9144,-232.023C117.176,-227.588 211.939,-213.798 279.692,-173 289.673,-166.99 298.749,-158.039 306.031,-149.49"/>
<polygon fill="lightgray" stroke="lightgray" points="308.896,-151.512 312.434,-141.525 303.44,-147.126 308.896,-151.512"/>
<text text-anchor="middle" x="193.692" y="-229.8" font-family="Times New Roman,serif" font-size="14.00" fill="lightgray">wff ph</text>
</g>
<!-- n13932 -->
<g id="node7" class="node"><title>n13932</title>
</g>
<!-- n13929&#45;&gt;n13932 -->
<g id="edge9" class="edge"><title>n13929&#45;&gt;n13932</title>
</g>
<!-- n13935&#45;&gt;n13936 -->
<g id="edge8" class="edge"><title>n13935&#45;&gt;n13936</title>
<path fill="none" stroke="black" d="M351.265,-128.382C392.193,-134.581 474.07,-150.251 535.692,-183 548.095,-189.592 560.168,-199.267 570.008,-208.283"/>
<polygon fill="black" stroke="black" points="567.727,-210.944 577.384,-215.301 572.551,-205.872 567.727,-210.944"/>
<text text-anchor="middle" x="452.692" y="-186.8" font-family="Times New Roman,serif" font-size="14.00">|&#45; ( ( ph /\ ( ph /\ ps ) ) &#45;&gt; ch )</text>
</g>
<!-- n13932&#45;&gt;n13935 -->
<g id="edge5" class="edge"><title>n13932&#45;&gt;n13935</title>
<path fill="none" stroke="lightgray" d="M71.4563,-158.637C114.481,-152.979 203.995,-141.179 279.692,-131 282.393,-130.637 285.186,-130.26 287.996,-129.879"/>
<polygon fill="lightgray" stroke="lightgray" points="288.663,-133.321 298.101,-128.506 287.721,-126.384 288.663,-133.321"/>
<text text-anchor="middle" x="193.692" y="-157.8" font-family="Times New Roman,serif" font-size="14.00" fill="lightgray">wff ( ph /\ ps )</text>
</g>
<!-- n13933 -->
<g id="node8" class="node"><title>n13933</title>
</g>
<!-- n13932&#45;&gt;n13933 -->
<g id="edge10" class="edge"><title>n13932&#45;&gt;n13933</title>
</g>
<!-- n13933&#45;&gt;n13935 -->
<g id="edge6" class="edge"><title>n13933&#45;&gt;n13935</title>
<path fill="none" stroke="lightgray" d="M71.9024,-92.1168C115.202,-95.8091 204.639,-104.177 279.692,-116 282.58,-116.455 285.567,-116.97 288.56,-117.517"/>
<polygon fill="lightgray" stroke="lightgray" points="288.152,-121.003 298.634,-119.464 289.48,-114.13 288.152,-121.003"/>
<text text-anchor="middle" x="193.692" y="-119.8" font-family="Times New Roman,serif" font-size="14.00" fill="lightgray">wff ch</text>
</g>
<!-- n13934 -->
<g id="node9" class="node"><title>n13934</title>
<ellipse fill="orange" stroke="black" cx="44.846" cy="-18" rx="44.6926" ry="18"/>
<text text-anchor="middle" x="44.846" y="-14.3" font-family="Times New Roman,serif" font-size="14.00">anabsi5.1</text>
</g>
<!-- n13933&#45;&gt;n13934 -->
<g id="edge11" class="edge"><title>n13933&#45;&gt;n13934</title>
</g>
<!-- n13934&#45;&gt;n13935 -->
<g id="edge7" class="edge"><title>n13934&#45;&gt;n13935</title>
<path fill="none" stroke="black" d="M89.2128,-21.443C138.428,-26.9793 219.646,-41.1699 279.692,-77 289.697,-82.9701 298.778,-91.913 306.057,-100.467"/>
<polygon fill="black" stroke="black" points="303.466,-102.831 312.455,-108.44 308.926,-98.4503 303.466,-102.831"/>
<text text-anchor="middle" x="193.692" y="-80.8" font-family="Times New Roman,serif" font-size="14.00">|&#45; ( ph &#45;&gt; ( ( ph /\ ps ) &#45;&gt; ch ) )</text>
</g>
</g>
</svg>
