<?xml version="1.0" encoding="UTF-8" standalone="no"?>
<!DOCTYPE svg PUBLIC "-//W3C//DTD SVG 1.1//EN"
 "http://www.w3.org/Graphics/SVG/1.1/DTD/svg11.dtd">
<!-- Generated by graphviz version 2.38.0 (20140413.2041)
 -->
<!-- Title: proof_ancld Pages: 1 -->
<svg width="691pt" height="404pt"
 viewBox="0.00 0.00 690.59 404.00" xmlns="http://www.w3.org/2000/svg" xmlns:xlink="http://www.w3.org/1999/xlink">
<g id="graph0" class="graph" transform="scale(1 1) rotate(0) translate(4 400)">
<title>proof_ancld</title>
<polygon fill="white" stroke="none" points="-4,4 -4,-400 686.588,-400 686.588,4 -4,4"/>
<!-- n9439 -->
<g id="node1" class="node"><title>n9439</title>
</g>
<!-- n9447 -->
<g id="node2" class="node"><title>n9447</title>
<ellipse fill="cyan" stroke="black" cx="390.093" cy="-197" rx="27" ry="18"/>
<text text-anchor="middle" x="390.093" y="-193.3" font-family="Times New Roman,serif" font-size="14.00">jcad</text>
</g>
<!-- n9439&#45;&gt;n9447 -->
<g id="edge1" class="edge"><title>n9439&#45;&gt;n9447</title>
<path fill="none" stroke="lightgray" d="M190.993,-375.438C229.568,-370.296 302.101,-355.306 345.093,-313 369.111,-289.365 380.206,-251.296 385.203,-225.261"/>
<polygon fill="lightgray" stroke="lightgray" points="388.678,-225.706 386.939,-215.255 381.781,-224.509 388.678,-225.706"/>
<text text-anchor="middle" x="282.093" y="-373.8" font-family="Times New Roman,serif" font-size="14.00" fill="lightgray">wff ph</text>
</g>
<!-- n9440 -->
<g id="node3" class="node"><title>n9440</title>
</g>
<!-- n9439&#45;&gt;n9440 -->
<g id="edge11" class="edge"><title>n9439&#45;&gt;n9440</title>
</g>
<!-- QED -->
<g id="node10" class="node"><title>QED</title>
</g>
<!-- n9447&#45;&gt;QED -->
<g id="edge10" class="edge"><title>n9447&#45;&gt;QED</title>
<path fill="none" stroke="black" d="M417.098,-197C463.318,-197 559.972,-197 613.893,-197"/>
<polygon fill="black" stroke="black" points="614.08,-200.5 624.08,-197 614.08,-193.5 614.08,-200.5"/>
<text text-anchor="middle" x="520.593" y="-200.8" font-family="Times New Roman,serif" font-size="14.00">|&#45; ( ph &#45;&gt; ( ps &#45;&gt; ( ps /\ ch ) ) )</text>
</g>
<!-- n9440&#45;&gt;n9447 -->
<g id="edge2" class="edge"><title>n9440&#45;&gt;n9447</title>
<path fill="none" stroke="lightgray" d="M190.377,-301.582C226.916,-294.327 295.468,-277.354 345.093,-245 354.853,-238.637 363.886,-229.618 371.196,-221.112"/>
<polygon fill="lightgray" stroke="lightgray" points="374.028,-223.177 377.643,-213.218 368.606,-218.749 374.028,-223.177"/>
<text text-anchor="middle" x="282.093" y="-297.8" font-family="Times New Roman,serif" font-size="14.00" fill="lightgray">wff ps</text>
</g>
<!-- n9441 -->
<g id="node4" class="node"><title>n9441</title>
</g>
<!-- n9440&#45;&gt;n9441 -->
<g id="edge12" class="edge"><title>n9440&#45;&gt;n9441</title>
</g>
<!-- n9441&#45;&gt;n9447 -->
<g id="edge3" class="edge"><title>n9441&#45;&gt;n9447</title>
<path fill="none" stroke="lightgray" d="M190.312,-229.828C230.233,-223.235 308.027,-210.388 353.557,-202.869"/>
<polygon fill="lightgray" stroke="lightgray" points="354.28,-206.297 363.577,-201.214 353.14,-199.39 354.28,-206.297"/>
<text text-anchor="middle" x="282.093" y="-229.8" font-family="Times New Roman,serif" font-size="14.00" fill="lightgray">wff ps</text>
</g>
<!-- n9442 -->
<g id="node5" class="node"><title>n9442</title>
</g>
<!-- n9441&#45;&gt;n9442 -->
<g id="edge13" class="edge"><title>n9441&#45;&gt;n9442</title>
</g>
<!-- n9442&#45;&gt;n9447 -->
<g id="edge4" class="edge"><title>n9442&#45;&gt;n9447</title>
<path fill="none" stroke="lightgray" d="M190.763,-165.234C225.769,-169.745 290.334,-178.454 345.093,-188 347.974,-188.502 350.955,-189.05 353.944,-189.62"/>
<polygon fill="lightgray" stroke="lightgray" points="353.524,-193.105 364.012,-191.606 354.878,-186.237 353.524,-193.105"/>
<text text-anchor="middle" x="282.093" y="-191.8" font-family="Times New Roman,serif" font-size="14.00" fill="lightgray">wff ch</text>
</g>
<!-- n9445 -->
<g id="node7" class="node"><title>n9445</title>
<ellipse fill="cyan" stroke="black" cx="164.047" cy="-90" rx="27" ry="18"/>
<text text-anchor="middle" x="164.047" y="-86.3" font-family="Times New Roman,serif" font-size="14.00">idd</text>
</g>
<!-- n9442&#45;&gt;n9445 -->
<g id="edge14" class="edge"><title>n9442&#45;&gt;n9445</title>
</g>
<!-- n9443 -->
<g id="node6" class="node"><title>n9443</title>
</g>
<!-- n9443&#45;&gt;n9445 -->
<g id="edge5" class="edge"><title>n9443&#45;&gt;n9445</title>
<path fill="none" stroke="lightgray" d="M51.5233,-127.162C73.1759,-119.947 105.52,-109.169 129.808,-101.076"/>
<polygon fill="lightgray" stroke="lightgray" points="130.959,-104.381 139.34,-97.8996 128.746,-97.7404 130.959,-104.381"/>
<text text-anchor="middle" x="90.5" y="-123.8" font-family="Times New Roman,serif" font-size="14.00" fill="lightgray">wff ph</text>
</g>
<!-- n9444 -->
<g id="node8" class="node"><title>n9444</title>
</g>
<!-- n9443&#45;&gt;n9444 -->
<g id="edge8" class="edge"><title>n9443&#45;&gt;n9444</title>
</g>
<!-- n9445&#45;&gt;n9447 -->
<g id="edge7" class="edge"><title>n9445&#45;&gt;n9447</title>
<path fill="none" stroke="black" d="M190.286,-94.5601C226.712,-101.989 295.127,-119.174 345.093,-151 354.461,-156.967 363.255,-165.338 370.482,-173.306"/>
<polygon fill="black" stroke="black" points="367.967,-175.75 377.149,-181.036 373.268,-171.178 367.967,-175.75"/>
<text text-anchor="middle" x="282.093" y="-154.8" font-family="Times New Roman,serif" font-size="14.00">|&#45; ( ph &#45;&gt; ( ps &#45;&gt; ps ) )</text>
</g>
<!-- n9446 -->
<g id="node9" class="node"><title>n9446</title>
<ellipse fill="orange" stroke="black" cx="164.047" cy="-18" rx="37.0935" ry="18"/>
<text text-anchor="middle" x="164.047" y="-14.3" font-family="Times New Roman,serif" font-size="14.00">ancld.1</text>
</g>
<!-- n9445&#45;&gt;n9446 -->
<g id="edge15" class="edge"><title>n9445&#45;&gt;n9446</title>
</g>
<!-- n9444&#45;&gt;n9445 -->
<g id="edge6" class="edge"><title>n9444&#45;&gt;n9445</title>
<path fill="none" stroke="lightgray" d="M53.0848,-68.0152C74.2144,-72.2397 104.668,-78.3283 128.171,-83.0273"/>
<polygon fill="lightgray" stroke="lightgray" points="127.604,-86.4831 138.096,-85.0116 128.977,-79.619 127.604,-86.4831"/>
<text text-anchor="middle" x="90.5" y="-82.8" font-family="Times New Roman,serif" font-size="14.00" fill="lightgray">wff ps</text>
</g>
<!-- n9446&#45;&gt;n9447 -->
<g id="edge9" class="edge"><title>n9446&#45;&gt;n9447</title>
<path fill="none" stroke="black" d="M200.456,-21.9768C240.504,-28.2583 305.304,-44.0722 345.093,-83 368.712,-106.107 379.878,-143.294 385.001,-168.876"/>
<polygon fill="black" stroke="black" points="381.619,-169.839 386.846,-179.054 388.507,-168.591 381.619,-169.839"/>
<text text-anchor="middle" x="282.093" y="-86.8" font-family="Times New Roman,serif" font-size="14.00">|&#45; ( ph &#45;&gt; ( ps &#45;&gt; ch ) )</text>
</g>
</g>
</svg>
