<?xml version="1.0" encoding="UTF-8" standalone="no"?>
<!DOCTYPE svg PUBLIC "-//W3C//DTD SVG 1.1//EN"
 "http://www.w3.org/Graphics/SVG/1.1/DTD/svg11.dtd">
<!-- Generated by graphviz version 2.38.0 (20140413.2041)
 -->
<!-- Title: proof_ancom1s Pages: 1 -->
<svg width="730pt" height="404pt"
 viewBox="0.00 0.00 729.68 404.00" xmlns="http://www.w3.org/2000/svg" xmlns:xlink="http://www.w3.org/1999/xlink">
<g id="graph0" class="graph" transform="scale(1 1) rotate(0) translate(4 400)">
<title>proof_ancom1s</title>
<polygon fill="white" stroke="none" points="-4,4 -4,-400 725.683,-400 725.683,4 -4,4"/>
<!-- n13800 -->
<g id="node1" class="node"><title>n13800</title>
</g>
<!-- n13810 -->
<g id="node2" class="node"><title>n13810</title>
<ellipse fill="cyan" stroke="black" cx="434.941" cy="-197" rx="29.4969" ry="18"/>
<text text-anchor="middle" x="434.941" y="-193.3" font-family="Times New Roman,serif" font-size="14.00">sylan</text>
</g>
<!-- n13800&#45;&gt;n13810 -->
<g id="edge1" class="edge"><title>n13800&#45;&gt;n13810</title>
<path fill="none" stroke="lightgray" d="M192.426,-378.194C237.832,-377.123 331.881,-368.474 387.693,-318 414.346,-293.897 425.744,-252.742 430.548,-225.212"/>
<polygon fill="lightgray" stroke="lightgray" points="434.051,-225.461 432.132,-215.041 427.134,-224.383 434.051,-225.461"/>
<text text-anchor="middle" x="304.693" y="-379.8" font-family="Times New Roman,serif" font-size="14.00" fill="lightgray">wff ( ps /\ ph )</text>
</g>
<!-- n13803 -->
<g id="node3" class="node"><title>n13803</title>
</g>
<!-- n13800&#45;&gt;n13803 -->
<g id="edge11" class="edge"><title>n13800&#45;&gt;n13803</title>
</g>
<!-- QED -->
<g id="node10" class="node"><title>QED</title>
</g>
<!-- n13810&#45;&gt;QED -->
<g id="edge10" class="edge"><title>n13810&#45;&gt;QED</title>
<path fill="none" stroke="black" d="M464.259,-197C510.205,-197 601.059,-197 652.866,-197"/>
<polygon fill="black" stroke="black" points="652.99,-200.5 662.99,-197 652.99,-193.5 652.99,-200.5"/>
<text text-anchor="middle" x="563.688" y="-200.8" font-family="Times New Roman,serif" font-size="14.00">|&#45; ( ( ( ps /\ ph ) /\ ch ) &#45;&gt; th )</text>
</g>
<!-- n13803&#45;&gt;n13810 -->
<g id="edge2" class="edge"><title>n13803&#45;&gt;n13810</title>
<path fill="none" stroke="lightgray" d="M192.344,-303.569C235.625,-298.556 323.985,-284.145 387.693,-246 398.297,-239.651 408.026,-230.196 415.795,-221.281"/>
<polygon fill="lightgray" stroke="lightgray" points="418.677,-223.287 422.349,-213.349 413.281,-218.829 418.677,-223.287"/>
<text text-anchor="middle" x="304.693" y="-302.8" font-family="Times New Roman,serif" font-size="14.00" fill="lightgray">wff ( ph /\ ps )</text>
</g>
<!-- n13804 -->
<g id="node4" class="node"><title>n13804</title>
</g>
<!-- n13803&#45;&gt;n13804 -->
<g id="edge12" class="edge"><title>n13803&#45;&gt;n13804</title>
</g>
<!-- n13804&#45;&gt;n13810 -->
<g id="edge3" class="edge"><title>n13804&#45;&gt;n13810</title>
<path fill="none" stroke="lightgray" d="M192.005,-230.452C239.319,-223.91 340.52,-209.917 395.862,-202.265"/>
<polygon fill="lightgray" stroke="lightgray" points="396.538,-205.705 405.964,-200.868 395.579,-198.771 396.538,-205.705"/>
<text text-anchor="middle" x="304.693" y="-230.8" font-family="Times New Roman,serif" font-size="14.00" fill="lightgray">wff ch</text>
</g>
<!-- n13805 -->
<g id="node5" class="node"><title>n13805</title>
</g>
<!-- n13804&#45;&gt;n13805 -->
<g id="edge13" class="edge"><title>n13804&#45;&gt;n13805</title>
</g>
<!-- n13805&#45;&gt;n13810 -->
<g id="edge4" class="edge"><title>n13805&#45;&gt;n13810</title>
<path fill="none" stroke="lightgray" d="M192.331,-164.412C233.776,-168.403 317.348,-177.04 387.693,-188 390.747,-188.476 393.906,-189.007 397.074,-189.567"/>
<polygon fill="lightgray" stroke="lightgray" points="396.63,-193.045 407.1,-191.422 397.904,-186.161 396.63,-193.045"/>
<text text-anchor="middle" x="304.693" y="-191.8" font-family="Times New Roman,serif" font-size="14.00" fill="lightgray">wff th</text>
</g>
<!-- n13808 -->
<g id="node7" class="node"><title>n13808</title>
<ellipse fill="cyan" stroke="black" cx="165.347" cy="-90" rx="38.1938" ry="18"/>
<text text-anchor="middle" x="165.347" y="-86.3" font-family="Times New Roman,serif" font-size="14.00">pm3.22</text>
</g>
<!-- n13805&#45;&gt;n13808 -->
<g id="edge14" class="edge"><title>n13805&#45;&gt;n13808</title>
</g>
<!-- n13806 -->
<g id="node6" class="node"><title>n13806</title>
</g>
<!-- n13806&#45;&gt;n13808 -->
<g id="edge5" class="edge"><title>n13806&#45;&gt;n13808</title>
<path fill="none" stroke="lightgray" d="M51.4388,-127.264C71.2922,-120.712 100.208,-111.168 123.806,-103.38"/>
<polygon fill="lightgray" stroke="lightgray" points="125.153,-106.621 133.552,-100.163 122.959,-99.9739 125.153,-106.621"/>
<text text-anchor="middle" x="90.5" y="-124.8" font-family="Times New Roman,serif" font-size="14.00" fill="lightgray">wff ps</text>
</g>
<!-- n13807 -->
<g id="node8" class="node"><title>n13807</title>
</g>
<!-- n13806&#45;&gt;n13807 -->
<g id="edge8" class="edge"><title>n13806&#45;&gt;n13807</title>
</g>
<!-- n13808&#45;&gt;n13810 -->
<g id="edge7" class="edge"><title>n13808&#45;&gt;n13810</title>
<path fill="none" stroke="black" d="M203.164,-93.676C249.093,-99.5861 328.751,-114.287 387.693,-149 398.076,-155.115 407.663,-164.196 415.385,-172.819"/>
<polygon fill="black" stroke="black" points="412.779,-175.157 421.921,-180.512 418.113,-170.625 412.779,-175.157"/>
<text text-anchor="middle" x="304.693" y="-152.8" font-family="Times New Roman,serif" font-size="14.00">|&#45; ( ( ps /\ ph ) &#45;&gt; ( ph /\ ps ) )</text>
</g>
<!-- n13809 -->
<g id="node9" class="node"><title>n13809</title>
<ellipse fill="orange" stroke="black" cx="165.347" cy="-18" rx="38.1938" ry="18"/>
<text text-anchor="middle" x="165.347" y="-14.3" font-family="Times New Roman,serif" font-size="14.00">an32s.1</text>
</g>
<!-- n13808&#45;&gt;n13809 -->
<g id="edge15" class="edge"><title>n13808&#45;&gt;n13809</title>
</g>
<!-- n13807&#45;&gt;n13808 -->
<g id="edge6" class="edge"><title>n13807&#45;&gt;n13808</title>
<path fill="none" stroke="lightgray" d="M53.0081,-67.9522C71.6753,-71.6488 97.6777,-76.7979 119.86,-81.1905"/>
<polygon fill="lightgray" stroke="lightgray" points="119.253,-84.6382 129.742,-83.1475 120.613,-77.7716 119.253,-84.6382"/>
<text text-anchor="middle" x="90.5" y="-82.8" font-family="Times New Roman,serif" font-size="14.00" fill="lightgray">wff ph</text>
</g>
<!-- n13809&#45;&gt;n13810 -->
<g id="edge9" class="edge"><title>n13809&#45;&gt;n13810</title>
<path fill="none" stroke="black" d="M204.073,-18.2657C252.436,-20.6051 336.181,-31.6759 387.693,-78 413.883,-101.552 425.378,-141.716 430.331,-168.795"/>
<polygon fill="black" stroke="black" points="426.903,-169.516 431.977,-178.817 433.81,-168.382 426.903,-169.516"/>
<text text-anchor="middle" x="304.693" y="-81.8" font-family="Times New Roman,serif" font-size="14.00">|&#45; ( ( ( ph /\ ps ) /\ ch ) &#45;&gt; th )</text>
</g>
</g>
</svg>
