<?xml version="1.0" encoding="UTF-8" standalone="no"?>
<!DOCTYPE svg PUBLIC "-//W3C//DTD SVG 1.1//EN"
 "http://www.w3.org/Graphics/SVG/1.1/DTD/svg11.dtd">
<!-- Generated by graphviz version 2.38.0 (20140413.2041)
 -->
<!-- Title: proof_ancrb Pages: 1 -->
<svg width="811pt" height="295pt"
 viewBox="0.00 0.00 811.09 295.00" xmlns="http://www.w3.org/2000/svg" xmlns:xlink="http://www.w3.org/1999/xlink">
<g id="graph0" class="graph" transform="scale(1 1) rotate(0) translate(4 291)">
<title>proof_ancrb</title>
<polygon fill="white" stroke="none" points="-4,4 -4,-291 807.088,-291 807.088,4 -4,4"/>
<!-- n9416 -->
<g id="node1" class="node"><title>n9416</title>
</g>
<!-- n9424 -->
<g id="node2" class="node"><title>n9424</title>
<ellipse fill="cyan" stroke="black" cx="437.296" cy="-160" rx="40.0939" ry="18"/>
<text text-anchor="middle" x="437.296" y="-156.3" font-family="Times New Roman,serif" font-size="14.00">pm5.74i</text>
</g>
<!-- n9416&#45;&gt;n9424 -->
<g id="edge1" class="edge"><title>n9416&#45;&gt;n9424</title>
<path fill="none" stroke="lightgray" d="M180.874,-265.869C224.041,-259.837 312.561,-243.979 379,-209 391.429,-202.457 403.505,-192.789 413.342,-183.766"/>
<polygon fill="lightgray" stroke="lightgray" points="415.889,-186.173 420.713,-176.74 411.06,-181.105 415.889,-186.173"/>
<text text-anchor="middle" x="289" y="-265.8" font-family="Times New Roman,serif" font-size="14.00" fill="lightgray">wff ph</text>
</g>
<!-- n9417 -->
<g id="node3" class="node"><title>n9417</title>
</g>
<!-- n9416&#45;&gt;n9417 -->
<g id="edge9" class="edge"><title>n9416&#45;&gt;n9417</title>
</g>
<!-- QED -->
<g id="node8" class="node"><title>QED</title>
</g>
<!-- n9424&#45;&gt;QED -->
<g id="edge8" class="edge"><title>n9424&#45;&gt;QED</title>
<path fill="none" stroke="black" d="M477.657,-160C542.284,-160 670.101,-160 734.233,-160"/>
<polygon fill="black" stroke="black" points="734.33,-163.5 744.33,-160 734.33,-156.5 734.33,-163.5"/>
<text text-anchor="middle" x="611.093" y="-163.8" font-family="Times New Roman,serif" font-size="14.00">|&#45; ( ( ph &#45;&gt; ps ) &lt;&#45;&gt; ( ph &#45;&gt; ( ps /\ ph ) ) )</text>
</g>
<!-- n9417&#45;&gt;n9424 -->
<g id="edge2" class="edge"><title>n9417&#45;&gt;n9424</title>
<path fill="none" stroke="lightgray" d="M180.959,-193.585C228.146,-187.379 328.62,-174.163 388.502,-166.287"/>
<polygon fill="lightgray" stroke="lightgray" points="389.011,-169.75 398.469,-164.976 388.098,-162.81 389.011,-169.75"/>
<text text-anchor="middle" x="289" y="-193.8" font-family="Times New Roman,serif" font-size="14.00" fill="lightgray">wff ps</text>
</g>
<!-- n9420 -->
<g id="node4" class="node"><title>n9420</title>
</g>
<!-- n9417&#45;&gt;n9420 -->
<g id="edge10" class="edge"><title>n9417&#45;&gt;n9420</title>
</g>
<!-- n9420&#45;&gt;n9424 -->
<g id="edge3" class="edge"><title>n9420&#45;&gt;n9424</title>
<path fill="none" stroke="lightgray" d="M180.912,-127.665C222.674,-132.038 307.432,-141.23 379,-151 382.242,-151.443 385.585,-151.918 388.95,-152.411"/>
<polygon fill="lightgray" stroke="lightgray" points="388.626,-155.901 399.035,-153.924 389.666,-148.979 388.626,-155.901"/>
<text text-anchor="middle" x="289" y="-154.8" font-family="Times New Roman,serif" font-size="14.00" fill="lightgray">wff ( ps /\ ph )</text>
</g>
<!-- n9423 -->
<g id="node6" class="node"><title>n9423</title>
<ellipse fill="cyan" stroke="black" cx="154" cy="-53" rx="27" ry="18"/>
<text text-anchor="middle" x="154" y="-49.3" font-family="Times New Roman,serif" font-size="14.00">iba</text>
</g>
<!-- n9420&#45;&gt;n9423 -->
<g id="edge11" class="edge"><title>n9420&#45;&gt;n9423</title>
</g>
<!-- n9421 -->
<g id="node5" class="node"><title>n9421</title>
</g>
<!-- n9421&#45;&gt;n9423 -->
<g id="edge4" class="edge"><title>n9421&#45;&gt;n9423</title>
<path fill="none" stroke="lightgray" d="M52.1013,-82.866C71.2097,-77.2099 98.1365,-69.2396 119.368,-62.9551"/>
<polygon fill="lightgray" stroke="lightgray" points="120.377,-66.3065 128.973,-60.1121 118.391,-59.5943 120.377,-66.3065"/>
<text text-anchor="middle" x="90.5" y="-80.8" font-family="Times New Roman,serif" font-size="14.00" fill="lightgray">wff ph</text>
</g>
<!-- n9422 -->
<g id="node7" class="node"><title>n9422</title>
</g>
<!-- n9421&#45;&gt;n9422 -->
<g id="edge7" class="edge"><title>n9421&#45;&gt;n9422</title>
</g>
<!-- n9423&#45;&gt;n9424 -->
<g id="edge6" class="edge"><title>n9423&#45;&gt;n9424</title>
<path fill="none" stroke="black" d="M180.874,-55.8473C224.041,-61.4169 312.562,-76.3748 379,-111 391.456,-117.492 403.537,-127.151 413.369,-136.182"/>
<polygon fill="black" stroke="black" points="411.087,-138.842 420.736,-143.217 415.921,-133.779 411.087,-138.842"/>
<text text-anchor="middle" x="289" y="-114.8" font-family="Times New Roman,serif" font-size="14.00">|&#45; ( ph &#45;&gt; ( ps &lt;&#45;&gt; ( ps /\ ph ) ) )</text>
</g>
<!-- n9422&#45;&gt;n9423 -->
<g id="edge5" class="edge"><title>n9422&#45;&gt;n9423</title>
<path fill="none" stroke="lightgray" d="M52.1013,-24.7484C71.0013,-30.0404 97.5501,-37.474 118.671,-43.3879"/>
<polygon fill="lightgray" stroke="lightgray" points="117.973,-46.8269 128.546,-46.1529 119.86,-40.0862 117.973,-46.8269"/>
<text text-anchor="middle" x="90.5" y="-44.8" font-family="Times New Roman,serif" font-size="14.00" fill="lightgray">wff ps</text>
</g>
</g>
</svg>
