<?xml version="1.0" encoding="UTF-8" standalone="no"?>
<!DOCTYPE svg PUBLIC "-//W3C//DTD SVG 1.1//EN"
 "http://www.w3.org/Graphics/SVG/1.1/DTD/svg11.dtd">
<!-- Generated by graphviz version 2.38.0 (20140413.2041)
 -->
<!-- Title: proof_andir Pages: 1 -->
<svg width="1352pt" height="950pt"
 viewBox="0.00 0.00 1352.08 950.00" xmlns="http://www.w3.org/2000/svg" xmlns:xlink="http://www.w3.org/1999/xlink">
<g id="graph0" class="graph" transform="scale(1 1) rotate(0) translate(4 946)">
<title>proof_andir</title>
<polygon fill="white" stroke="none" points="-4,4 -4,-946 1348.08,-946 1348.08,4 -4,4"/>
<!-- n15019 -->
<g id="node1" class="node"><title>n15019</title>
</g>
<!-- n15067 -->
<g id="node2" class="node"><title>n15067</title>
<ellipse fill="cyan" stroke="black" cx="905.784" cy="-695" rx="33.5952" ry="18"/>
<text text-anchor="middle" x="905.784" y="-691.3" font-family="Times New Roman,serif" font-size="14.00">3bitr4i</text>
</g>
<!-- n15019&#45;&gt;n15067 -->
<g id="edge1" class="edge"><title>n15019&#45;&gt;n15067</title>
<path fill="none" stroke="lightgray" d="M470.765,-915.941C540.729,-928.123 739.853,-952.04 853.987,-856 893.279,-822.937 902.582,-759.719 904.54,-723.108"/>
<polygon fill="lightgray" stroke="lightgray" points="908.038,-723.226 904.927,-713.098 901.043,-722.955 908.038,-723.226"/>
<text text-anchor="middle" x="676.487" y="-930.8" font-family="Times New Roman,serif" font-size="14.00" fill="lightgray">wff ( ch /\ ( ph \/ ps ) )</text>
</g>
<!-- n15026 -->
<g id="node3" class="node"><title>n15026</title>
</g>
<!-- n15019&#45;&gt;n15026 -->
<g id="edge34" class="edge"><title>n15019&#45;&gt;n15026</title>
</g>
<!-- QED -->
<g id="node24" class="node"><title>QED</title>
</g>
<!-- n15067&#45;&gt;QED -->
<g id="edge33" class="edge"><title>n15067&#45;&gt;QED</title>
<path fill="none" stroke="black" d="M939.75,-695C1014.38,-695 1195.92,-695 1275.44,-695"/>
<polygon fill="black" stroke="black" points="1275.52,-698.5 1285.52,-695 1275.52,-691.5 1275.52,-698.5"/>
<text text-anchor="middle" x="1112.58" y="-698.8" font-family="Times New Roman,serif" font-size="14.00">|&#45; ( ( ( ph \/ ps ) /\ ch ) &lt;&#45;&gt; ( ( ph /\ ch ) \/ ( ps /\ ch ) ) )</text>
</g>
<!-- n15026&#45;&gt;n15067 -->
<g id="edge2" class="edge"><title>n15026&#45;&gt;n15067</title>
<path fill="none" stroke="lightgray" d="M471.767,-838.281C551.681,-835.641 790.878,-824.3 853.987,-782 874.868,-768.005 888.313,-742.303 896.091,-722.451"/>
<polygon fill="lightgray" stroke="lightgray" points="899.409,-723.567 899.556,-712.974 892.835,-721.163 899.409,-723.567"/>
<text text-anchor="middle" x="676.487" y="-840.8" font-family="Times New Roman,serif" font-size="14.00" fill="lightgray">wff ( ( ch /\ ph ) \/ ( ch /\ ps ) )</text>
</g>
<!-- n15031 -->
<g id="node4" class="node"><title>n15031</title>
</g>
<!-- n15026&#45;&gt;n15031 -->
<g id="edge35" class="edge"><title>n15026&#45;&gt;n15031</title>
</g>
<!-- n15031&#45;&gt;n15067 -->
<g id="edge3" class="edge"><title>n15031&#45;&gt;n15067</title>
<path fill="none" stroke="lightgray" d="M471.775,-765.681C537.146,-761.941 712.436,-749.164 853.987,-714 858.999,-712.755 864.195,-711.171 869.265,-709.452"/>
<polygon fill="lightgray" stroke="lightgray" points="870.556,-712.707 878.782,-706.029 868.187,-706.12 870.556,-712.707"/>
<text text-anchor="middle" x="676.487" y="-766.8" font-family="Times New Roman,serif" font-size="14.00" fill="lightgray">wff ( ( ph \/ ps ) /\ ch )</text>
</g>
<!-- n15038 -->
<g id="node5" class="node"><title>n15038</title>
</g>
<!-- n15031&#45;&gt;n15038 -->
<g id="edge36" class="edge"><title>n15031&#45;&gt;n15038</title>
</g>
<!-- n15038&#45;&gt;n15067 -->
<g id="edge4" class="edge"><title>n15038&#45;&gt;n15067</title>
<path fill="none" stroke="lightgray" d="M471.594,-695C547.226,-695 767.685,-695 861.602,-695"/>
<polygon fill="lightgray" stroke="lightgray" points="861.881,-698.5 871.881,-695 861.881,-691.5 861.881,-698.5"/>
<text text-anchor="middle" x="676.487" y="-698.8" font-family="Times New Roman,serif" font-size="14.00" fill="lightgray">wff ( ( ph /\ ch ) \/ ( ps /\ ch ) )</text>
</g>
<!-- n15042 -->
<g id="node7" class="node"><title>n15042</title>
<ellipse fill="cyan" stroke="black" cx="444.591" cy="-623" rx="27" ry="18"/>
<text text-anchor="middle" x="444.591" y="-619.3" font-family="Times New Roman,serif" font-size="14.00">andi</text>
</g>
<!-- n15038&#45;&gt;n15042 -->
<g id="edge37" class="edge"><title>n15038&#45;&gt;n15042</title>
</g>
<!-- n15039 -->
<g id="node6" class="node"><title>n15039</title>
</g>
<!-- n15039&#45;&gt;n15042 -->
<g id="edge5" class="edge"><title>n15039&#45;&gt;n15042</title>
<path fill="none" stroke="lightgray" d="M189.25,-766.005C234.9,-762.981 329.99,-750.817 390.194,-702 403.474,-691.231 398.871,-682.333 408.194,-668 412.843,-660.853 418.351,-653.442 423.62,-646.748"/>
<polygon fill="lightgray" stroke="lightgray" points="426.535,-648.708 430.084,-638.725 421.084,-644.317 426.535,-648.708"/>
<text text-anchor="middle" x="302.694" y="-766.8" font-family="Times New Roman,serif" font-size="14.00" fill="lightgray">wff ch</text>
</g>
<!-- n15040 -->
<g id="node8" class="node"><title>n15040</title>
</g>
<!-- n15039&#45;&gt;n15040 -->
<g id="edge9" class="edge"><title>n15039&#45;&gt;n15040</title>
</g>
<!-- n15042&#45;&gt;n15067 -->
<g id="edge8" class="edge"><title>n15042&#45;&gt;n15067</title>
<path fill="none" stroke="black" d="M471.775,-624.319C537.146,-628.059 712.436,-640.836 853.987,-676 858.999,-677.245 864.195,-678.829 869.265,-680.548"/>
<polygon fill="black" stroke="black" points="868.187,-683.88 878.782,-683.971 870.556,-677.293 868.187,-683.88"/>
<text text-anchor="middle" x="676.487" y="-679.8" font-family="Times New Roman,serif" font-size="14.00">|&#45; ( ( ch /\ ( ph \/ ps ) ) &lt;&#45;&gt; ( ( ch /\ ph ) \/ ( ch /\ ps ) ) )</text>
</g>
<!-- n15047 -->
<g id="node11" class="node"><title>n15047</title>
<ellipse fill="cyan" stroke="black" cx="444.591" cy="-551" rx="35.194" ry="18"/>
<text text-anchor="middle" x="444.591" y="-547.3" font-family="Times New Roman,serif" font-size="14.00">ancom</text>
</g>
<!-- n15042&#45;&gt;n15047 -->
<g id="edge38" class="edge"><title>n15042&#45;&gt;n15047</title>
</g>
<!-- n15040&#45;&gt;n15042 -->
<g id="edge6" class="edge"><title>n15040&#45;&gt;n15042</title>
<path fill="none" stroke="lightgray" d="M188.203,-690.105C230.328,-681.678 317.745,-663.27 390.194,-642 397.045,-639.989 404.302,-637.591 411.184,-635.188"/>
<polygon fill="lightgray" stroke="lightgray" points="412.674,-638.372 420.909,-631.707 410.315,-631.782 412.674,-638.372"/>
<text text-anchor="middle" x="302.694" y="-686.8" font-family="Times New Roman,serif" font-size="14.00" fill="lightgray">wff ph</text>
</g>
<!-- n15041 -->
<g id="node9" class="node"><title>n15041</title>
</g>
<!-- n15040&#45;&gt;n15041 -->
<g id="edge10" class="edge"><title>n15040&#45;&gt;n15041</title>
</g>
<!-- n15041&#45;&gt;n15042 -->
<g id="edge7" class="edge"><title>n15041&#45;&gt;n15042</title>
<path fill="none" stroke="lightgray" d="M189.233,-623C239.55,-623 349.963,-623 407.347,-623"/>
<polygon fill="lightgray" stroke="lightgray" points="407.418,-626.5 417.418,-623 407.418,-619.5 407.418,-626.5"/>
<text text-anchor="middle" x="302.694" y="-626.8" font-family="Times New Roman,serif" font-size="14.00" fill="lightgray">wff ps</text>
</g>
<!-- n15045 -->
<g id="node10" class="node"><title>n15045</title>
</g>
<!-- n15045&#45;&gt;n15047 -->
<g id="edge11" class="edge"><title>n15045&#45;&gt;n15047</title>
<path fill="none" stroke="lightgray" d="M188.982,-567.339C236.96,-564.26 340.187,-557.636 399.411,-553.835"/>
<polygon fill="lightgray" stroke="lightgray" points="399.827,-557.316 409.582,-553.182 399.378,-550.33 399.827,-557.316"/>
<text text-anchor="middle" x="302.694" y="-568.8" font-family="Times New Roman,serif" font-size="14.00" fill="lightgray">wff ( ph \/ ps )</text>
</g>
<!-- n15046 -->
<g id="node12" class="node"><title>n15046</title>
</g>
<!-- n15045&#45;&gt;n15046 -->
<g id="edge14" class="edge"><title>n15045&#45;&gt;n15046</title>
</g>
<!-- n15047&#45;&gt;n15067 -->
<g id="edge13" class="edge"><title>n15047&#45;&gt;n15067</title>
<path fill="none" stroke="black" d="M478.615,-546.405C552.75,-537.889 735.195,-527.156 853.987,-607 875.154,-621.227 888.614,-647.451 896.321,-667.584"/>
<polygon fill="black" stroke="black" points="893.088,-668.937 899.745,-677.18 899.681,-666.585 893.088,-668.937"/>
<text text-anchor="middle" x="676.487" y="-610.8" font-family="Times New Roman,serif" font-size="14.00">|&#45; ( ( ( ph \/ ps ) /\ ch ) &lt;&#45;&gt; ( ch /\ ( ph \/ ps ) ) )</text>
</g>
<!-- n15066 -->
<g id="node14" class="node"><title>n15066</title>
<ellipse fill="cyan" stroke="black" cx="444.591" cy="-344" rx="36.2938" ry="18"/>
<text text-anchor="middle" x="444.591" y="-340.3" font-family="Times New Roman,serif" font-size="14.00">orbi12i</text>
</g>
<!-- n15047&#45;&gt;n15066 -->
<g id="edge39" class="edge"><title>n15047&#45;&gt;n15066</title>
</g>
<!-- n15046&#45;&gt;n15047 -->
<g id="edge12" class="edge"><title>n15046&#45;&gt;n15047</title>
<path fill="none" stroke="lightgray" d="M188.847,-500.237C231.174,-505.798 317.968,-518.206 390.194,-535 394.895,-536.093 399.791,-537.368 404.628,-538.711"/>
<polygon fill="lightgray" stroke="lightgray" points="403.812,-542.119 414.391,-541.531 405.754,-535.394 403.812,-542.119"/>
<text text-anchor="middle" x="302.694" y="-538.8" font-family="Times New Roman,serif" font-size="14.00" fill="lightgray">wff ch</text>
</g>
<!-- n15050 -->
<g id="node13" class="node"><title>n15050</title>
</g>
<!-- n15050&#45;&gt;n15066 -->
<g id="edge15" class="edge"><title>n15050&#45;&gt;n15066</title>
<path fill="none" stroke="lightgray" d="M188.782,-439.881C232.126,-433.88 321.756,-418.265 390.194,-385 400.231,-380.121 410.209,-373.178 418.776,-366.389"/>
<polygon fill="lightgray" stroke="lightgray" points="421.031,-369.066 426.513,-360 416.574,-363.669 421.031,-369.066"/>
<text text-anchor="middle" x="302.694" y="-438.8" font-family="Times New Roman,serif" font-size="14.00" fill="lightgray">wff ( ph /\ ch )</text>
</g>
<!-- n15053 -->
<g id="node15" class="node"><title>n15053</title>
</g>
<!-- n15050&#45;&gt;n15053 -->
<g id="edge28" class="edge"><title>n15050&#45;&gt;n15053</title>
</g>
<!-- n15066&#45;&gt;n15067 -->
<g id="edge27" class="edge"><title>n15066&#45;&gt;n15067</title>
<path fill="none" stroke="black" d="M479.813,-348.871C558.068,-361.839 751.228,-404.529 853.987,-521 890.559,-562.452 900.859,-628.942 903.721,-666.593"/>
<polygon fill="black" stroke="black" points="900.246,-667.089 904.37,-676.848 907.232,-666.647 900.246,-667.089"/>
<text text-anchor="middle" x="676.487" y="-524.8" font-family="Times New Roman,serif" font-size="14.00">|&#45; ( ( ( ph /\ ch ) \/ ( ps /\ ch ) ) &lt;&#45;&gt; ( ( ch /\ ph ) \/ ( ch /\ ps ) ) )</text>
</g>
<!-- n15053&#45;&gt;n15066 -->
<g id="edge16" class="edge"><title>n15053&#45;&gt;n15066</title>
<path fill="none" stroke="lightgray" d="M188.982,-368.508C236.704,-363.915 339.087,-354.059 398.46,-348.344"/>
<polygon fill="lightgray" stroke="lightgray" points="399.05,-351.804 408.668,-347.362 398.379,-344.836 399.05,-351.804"/>
<text text-anchor="middle" x="302.694" y="-369.8" font-family="Times New Roman,serif" font-size="14.00" fill="lightgray">wff ( ch /\ ph )</text>
</g>
<!-- n15056 -->
<g id="node16" class="node"><title>n15056</title>
</g>
<!-- n15053&#45;&gt;n15056 -->
<g id="edge29" class="edge"><title>n15053&#45;&gt;n15056</title>
</g>
<!-- n15056&#45;&gt;n15066 -->
<g id="edge17" class="edge"><title>n15056&#45;&gt;n15066</title>
<path fill="none" stroke="lightgray" d="M188.776,-301.78C231.002,-306.539 317.656,-317.095 390.194,-331 394.088,-331.747 398.126,-332.593 402.157,-333.488"/>
<polygon fill="lightgray" stroke="lightgray" points="401.549,-336.94 412.08,-335.782 403.125,-330.12 401.549,-336.94"/>
<text text-anchor="middle" x="302.694" y="-334.8" font-family="Times New Roman,serif" font-size="14.00" fill="lightgray">wff ( ps /\ ch )</text>
</g>
<!-- n15059 -->
<g id="node17" class="node"><title>n15059</title>
</g>
<!-- n15056&#45;&gt;n15059 -->
<g id="edge30" class="edge"><title>n15056&#45;&gt;n15059</title>
</g>
<!-- n15059&#45;&gt;n15066 -->
<g id="edge18" class="edge"><title>n15059&#45;&gt;n15066</title>
<path fill="none" stroke="lightgray" d="M189.072,-229.171C233.235,-233.84 324.54,-247.809 390.194,-287 403.873,-295.165 416.242,-307.841 425.623,-319.167"/>
<polygon fill="lightgray" stroke="lightgray" points="422.949,-321.428 431.902,-327.093 428.436,-317.081 422.949,-321.428"/>
<text text-anchor="middle" x="302.694" y="-290.8" font-family="Times New Roman,serif" font-size="14.00" fill="lightgray">wff ( ch /\ ps )</text>
</g>
<!-- n15062 -->
<g id="node19" class="node"><title>n15062</title>
<ellipse fill="cyan" stroke="black" cx="162.097" cy="-155" rx="35.194" ry="18"/>
<text text-anchor="middle" x="162.097" y="-151.3" font-family="Times New Roman,serif" font-size="14.00">ancom</text>
</g>
<!-- n15059&#45;&gt;n15062 -->
<g id="edge31" class="edge"><title>n15059&#45;&gt;n15062</title>
</g>
<!-- n15060 -->
<g id="node18" class="node"><title>n15060</title>
</g>
<!-- n15060&#45;&gt;n15062 -->
<g id="edge19" class="edge"><title>n15060&#45;&gt;n15062</title>
<path fill="none" stroke="lightgray" d="M49.3843,-207.878C70.1433,-198.052 102.004,-182.971 126.395,-171.426"/>
<polygon fill="lightgray" stroke="lightgray" points="128.129,-174.477 135.671,-167.035 125.135,-168.15 128.129,-174.477"/>
<text text-anchor="middle" x="90.5" y="-199.8" font-family="Times New Roman,serif" font-size="14.00" fill="lightgray">wff ph</text>
</g>
<!-- n15061 -->
<g id="node20" class="node"><title>n15061</title>
</g>
<!-- n15060&#45;&gt;n15061 -->
<g id="edge22" class="edge"><title>n15060&#45;&gt;n15061</title>
</g>
<!-- n15062&#45;&gt;n15066 -->
<g id="edge21" class="edge"><title>n15062&#45;&gt;n15066</title>
<path fill="none" stroke="black" d="M197.464,-154.788C246.119,-156.31 335.261,-166.051 390.194,-214 420.317,-240.293 433.755,-286.195 439.525,-315.826"/>
<polygon fill="black" stroke="black" points="436.127,-316.706 441.321,-325.94 443.019,-315.483 436.127,-316.706"/>
<text text-anchor="middle" x="302.694" y="-217.8" font-family="Times New Roman,serif" font-size="14.00">|&#45; ( ( ph /\ ch ) &lt;&#45;&gt; ( ch /\ ph ) )</text>
</g>
<!-- n15065 -->
<g id="node22" class="node"><title>n15065</title>
<ellipse fill="cyan" stroke="black" cx="162.097" cy="-83" rx="35.194" ry="18"/>
<text text-anchor="middle" x="162.097" y="-79.3" font-family="Times New Roman,serif" font-size="14.00">ancom</text>
</g>
<!-- n15062&#45;&gt;n15065 -->
<g id="edge32" class="edge"><title>n15062&#45;&gt;n15065</title>
</g>
<!-- n15061&#45;&gt;n15062 -->
<g id="edge20" class="edge"><title>n15061&#45;&gt;n15062</title>
<path fill="none" stroke="lightgray" d="M53.9784,-147.757C71.8404,-148.964 96.0081,-150.599 116.867,-152.009"/>
<polygon fill="lightgray" stroke="lightgray" points="116.897,-155.519 127.11,-152.702 117.369,-148.535 116.897,-155.519"/>
<text text-anchor="middle" x="90.5" y="-155.8" font-family="Times New Roman,serif" font-size="14.00" fill="lightgray">wff ch</text>
</g>
<!-- n15063 -->
<g id="node21" class="node"><title>n15063</title>
</g>
<!-- n15063&#45;&gt;n15065 -->
<g id="edge23" class="edge"><title>n15063&#45;&gt;n15065</title>
<path fill="none" stroke="lightgray" d="M53.9784,-88.6337C71.8404,-87.6943 96.0081,-86.4232 116.867,-85.3262"/>
<polygon fill="lightgray" stroke="lightgray" points="117.308,-88.808 127.11,-84.7875 116.94,-81.8176 117.308,-88.808"/>
<text text-anchor="middle" x="90.5" y="-91.8" font-family="Times New Roman,serif" font-size="14.00" fill="lightgray">wff ps</text>
</g>
<!-- n15064 -->
<g id="node23" class="node"><title>n15064</title>
</g>
<!-- n15063&#45;&gt;n15064 -->
<g id="edge26" class="edge"><title>n15063&#45;&gt;n15064</title>
</g>
<!-- n15065&#45;&gt;n15066 -->
<g id="edge25" class="edge"><title>n15065&#45;&gt;n15066</title>
<path fill="none" stroke="black" d="M197.079,-80.9523C246.498,-79.9367 337.98,-85.7696 390.194,-137 415.545,-161.874 432.835,-265.251 439.948,-315.85"/>
<polygon fill="black" stroke="black" points="436.486,-316.367 441.31,-325.799 443.421,-315.417 436.486,-316.367"/>
<text text-anchor="middle" x="302.694" y="-140.8" font-family="Times New Roman,serif" font-size="14.00">|&#45; ( ( ps /\ ch ) &lt;&#45;&gt; ( ch /\ ps ) )</text>
</g>
<!-- n15064&#45;&gt;n15065 -->
<g id="edge24" class="edge"><title>n15064&#45;&gt;n15065</title>
<path fill="none" stroke="lightgray" d="M49.3843,-28.4434C70.2731,-38.6447 102.403,-54.3357 126.852,-66.2759"/>
<polygon fill="lightgray" stroke="lightgray" points="125.616,-69.5676 136.138,-70.811 128.688,-63.2776 125.616,-69.5676"/>
<text text-anchor="middle" x="90.5" y="-60.8" font-family="Times New Roman,serif" font-size="14.00" fill="lightgray">wff ch</text>
</g>
</g>
</svg>
