<?xml version="1.0" encoding="UTF-8" standalone="no"?>
<!DOCTYPE svg PUBLIC "-//W3C//DTD SVG 1.1//EN"
 "http://www.w3.org/Graphics/SVG/1.1/DTD/svg11.dtd">
<!-- Generated by graphviz version 2.38.0 (20140413.2041)
 -->
<!-- Title: proof_baib Pages: 1 -->
<svg width="726pt" height="404pt"
 viewBox="0.00 0.00 725.68 404.00" xmlns="http://www.w3.org/2000/svg" xmlns:xlink="http://www.w3.org/1999/xlink">
<g id="graph0" class="graph" transform="scale(1 1) rotate(0) translate(4 400)">
<title>proof_baib</title>
<polygon fill="white" stroke="none" points="-4,4 -4,-400 721.682,-400 721.682,4 -4,4"/>
<!-- n16087 -->
<g id="node1" class="node"><title>n16087</title>
</g>
<!-- n16097 -->
<g id="node2" class="node"><title>n16097</title>
<ellipse fill="cyan" stroke="black" cx="448.24" cy="-197" rx="40.8928" ry="18"/>
<text text-anchor="middle" x="448.24" y="-193.3" font-family="Times New Roman,serif" font-size="14.00">syl6rbbr</text>
</g>
<!-- n16087&#45;&gt;n16097 -->
<g id="edge1" class="edge"><title>n16087&#45;&gt;n16097</title>
<path fill="none" stroke="lightgray" d="M187.214,-377.815C233.178,-376.153 329.426,-366.522 389.294,-317 417.905,-293.333 433.417,-252.176 441.01,-224.761"/>
<polygon fill="lightgray" stroke="lightgray" points="444.421,-225.55 443.542,-214.992 437.645,-223.793 444.421,-225.55"/>
<text text-anchor="middle" x="300.294" y="-379.8" font-family="Times New Roman,serif" font-size="14.00" fill="lightgray">wff ps</text>
</g>
<!-- n16088 -->
<g id="node3" class="node"><title>n16088</title>
</g>
<!-- n16087&#45;&gt;n16088 -->
<g id="edge11" class="edge"><title>n16087&#45;&gt;n16088</title>
</g>
<!-- QED -->
<g id="node10" class="node"><title>QED</title>
</g>
<!-- n16097&#45;&gt;QED -->
<g id="edge10" class="edge"><title>n16097&#45;&gt;QED</title>
<path fill="none" stroke="black" d="M489.377,-197C533.84,-197 605.024,-197 648.852,-197"/>
<polygon fill="black" stroke="black" points="649.105,-200.5 659.105,-197 649.105,-193.5 649.105,-200.5"/>
<text text-anchor="middle" x="574.187" y="-200.8" font-family="Times New Roman,serif" font-size="14.00">|&#45; ( ps &#45;&gt; ( ph &lt;&#45;&gt; ch ) )</text>
</g>
<!-- n16088&#45;&gt;n16097 -->
<g id="edge2" class="edge"><title>n16088&#45;&gt;n16097</title>
<path fill="none" stroke="lightgray" d="M186.776,-303.022C230.446,-297.147 321.164,-281.43 389.294,-246 401.838,-239.477 414.047,-229.812 423.999,-220.786"/>
<polygon fill="lightgray" stroke="lightgray" points="426.581,-223.162 431.459,-213.757 421.78,-218.067 426.581,-223.162"/>
<text text-anchor="middle" x="300.294" y="-301.8" font-family="Times New Roman,serif" font-size="14.00" fill="lightgray">wff ch</text>
</g>
<!-- n16091 -->
<g id="node4" class="node"><title>n16091</title>
</g>
<!-- n16088&#45;&gt;n16091 -->
<g id="edge12" class="edge"><title>n16088&#45;&gt;n16091</title>
</g>
<!-- n16091&#45;&gt;n16097 -->
<g id="edge3" class="edge"><title>n16091&#45;&gt;n16097</title>
<path fill="none" stroke="lightgray" d="M186.788,-230.684C234.37,-224.53 337.053,-211.25 398.317,-203.327"/>
<polygon fill="lightgray" stroke="lightgray" points="399.047,-206.762 408.515,-202.008 398.149,-199.82 399.047,-206.762"/>
<text text-anchor="middle" x="300.294" y="-230.8" font-family="Times New Roman,serif" font-size="14.00" fill="lightgray">wff ( ps /\ ch )</text>
</g>
<!-- n16092 -->
<g id="node5" class="node"><title>n16092</title>
</g>
<!-- n16091&#45;&gt;n16092 -->
<g id="edge13" class="edge"><title>n16091&#45;&gt;n16092</title>
</g>
<!-- n16092&#45;&gt;n16097 -->
<g id="edge4" class="edge"><title>n16092&#45;&gt;n16097</title>
<path fill="none" stroke="lightgray" d="M187.193,-164.62C229.605,-168.966 316.202,-178.163 389.294,-188 392.573,-188.441 395.954,-188.916 399.357,-189.407"/>
<polygon fill="lightgray" stroke="lightgray" points="399.151,-192.915 409.556,-190.92 400.178,-185.991 399.151,-192.915"/>
<text text-anchor="middle" x="300.294" y="-191.8" font-family="Times New Roman,serif" font-size="14.00" fill="lightgray">wff ph</text>
</g>
<!-- n16095 -->
<g id="node7" class="node"><title>n16095</title>
<ellipse fill="cyan" stroke="black" cx="160.147" cy="-90" rx="27" ry="18"/>
<text text-anchor="middle" x="160.147" y="-86.3" font-family="Times New Roman,serif" font-size="14.00">ibar</text>
</g>
<!-- n16092&#45;&gt;n16095 -->
<g id="edge14" class="edge"><title>n16092&#45;&gt;n16095</title>
</g>
<!-- n16093 -->
<g id="node6" class="node"><title>n16093</title>
</g>
<!-- n16093&#45;&gt;n16095 -->
<g id="edge5" class="edge"><title>n16093&#45;&gt;n16095</title>
<path fill="none" stroke="lightgray" d="M51.4465,-126.955C72.3339,-119.788 103.111,-109.228 126.421,-101.229"/>
<polygon fill="lightgray" stroke="lightgray" points="127.581,-104.532 135.904,-97.9754 125.309,-97.9105 127.581,-104.532"/>
<text text-anchor="middle" x="90.5" y="-123.8" font-family="Times New Roman,serif" font-size="14.00" fill="lightgray">wff ps</text>
</g>
<!-- n16094 -->
<g id="node8" class="node"><title>n16094</title>
</g>
<!-- n16093&#45;&gt;n16094 -->
<g id="edge8" class="edge"><title>n16093&#45;&gt;n16094</title>
</g>
<!-- n16095&#45;&gt;n16097 -->
<g id="edge7" class="edge"><title>n16095&#45;&gt;n16097</title>
<path fill="none" stroke="black" d="M187.088,-92.9607C230.835,-98.7518 321.169,-114.186 389.294,-149 401.777,-155.379 413.977,-164.845 423.938,-173.688"/>
<polygon fill="black" stroke="black" points="421.684,-176.371 431.408,-180.576 426.429,-171.224 421.684,-176.371"/>
<text text-anchor="middle" x="300.294" y="-152.8" font-family="Times New Roman,serif" font-size="14.00">|&#45; ( ps &#45;&gt; ( ch &lt;&#45;&gt; ( ps /\ ch ) ) )</text>
</g>
<!-- n16096 -->
<g id="node9" class="node"><title>n16096</title>
<ellipse fill="orange" stroke="black" cx="160.147" cy="-18" rx="33.2948" ry="18"/>
<text text-anchor="middle" x="160.147" y="-14.3" font-family="Times New Roman,serif" font-size="14.00">baib.1</text>
</g>
<!-- n16095&#45;&gt;n16096 -->
<g id="edge15" class="edge"><title>n16095&#45;&gt;n16096</title>
</g>
<!-- n16094&#45;&gt;n16095 -->
<g id="edge6" class="edge"><title>n16094&#45;&gt;n16095</title>
<path fill="none" stroke="lightgray" d="M52.9765,-68.142C73.2132,-72.3083 101.955,-78.2254 124.431,-82.8527"/>
<polygon fill="lightgray" stroke="lightgray" points="123.763,-86.2887 134.264,-84.8771 125.175,-79.4324 123.763,-86.2887"/>
<text text-anchor="middle" x="90.5" y="-83.8" font-family="Times New Roman,serif" font-size="14.00" fill="lightgray">wff ch</text>
</g>
<!-- n16096&#45;&gt;n16097 -->
<g id="edge9" class="edge"><title>n16096&#45;&gt;n16097</title>
<path fill="none" stroke="black" d="M193.655,-18.5085C241.648,-20.9024 331.955,-31.889 389.294,-79 417.316,-102.023 432.877,-141.93 440.65,-168.889"/>
<polygon fill="black" stroke="black" points="437.359,-170.129 443.344,-178.871 444.117,-168.304 437.359,-170.129"/>
<text text-anchor="middle" x="300.294" y="-82.8" font-family="Times New Roman,serif" font-size="14.00">|&#45; ( ph &lt;&#45;&gt; ( ps /\ ch ) )</text>
</g>
</g>
</svg>
