<?xml version="1.0" encoding="UTF-8" standalone="no"?>
<!DOCTYPE svg PUBLIC "-//W3C//DTD SVG 1.1//EN"
 "http://www.w3.org/Graphics/SVG/1.1/DTD/svg11.dtd">
<!-- Generated by graphviz version 2.38.0 (20140413.2041)
 -->
<!-- Title: proof_biadan2 Pages: 1 -->
<svg width="844pt" height="530pt"
 viewBox="0.00 0.00 843.58 530.00" xmlns="http://www.w3.org/2000/svg" xmlns:xlink="http://www.w3.org/1999/xlink">
<g id="graph0" class="graph" transform="scale(1 1) rotate(0) translate(4 526)">
<title>proof_biadan2</title>
<polygon fill="white" stroke="none" points="-4,4 -4,-526 839.579,-526 839.579,4 -4,4"/>
<!-- n11132 -->
<g id="node1" class="node"><title>n11132</title>
</g>
<!-- n11148 -->
<g id="node2" class="node"><title>n11148</title>
<ellipse fill="cyan" stroke="black" cx="585.084" cy="-360" rx="27" ry="18"/>
<text text-anchor="middle" x="585.084" y="-356.3" font-family="Times New Roman,serif" font-size="14.00">bitri</text>
</g>
<!-- n11132&#45;&gt;n11148 -->
<g id="edge1" class="edge"><title>n11132&#45;&gt;n11148</title>
<path fill="none" stroke="lightgray" d="M332.264,-503.143C378.8,-500.343 477.161,-488.528 540.084,-439 556.79,-425.851 568.134,-404.506 575.114,-387.317"/>
<polygon fill="lightgray" stroke="lightgray" points="578.461,-388.361 578.727,-377.769 571.914,-385.883 578.461,-388.361"/>
<text text-anchor="middle" x="453.084" y="-502.8" font-family="Times New Roman,serif" font-size="14.00" fill="lightgray">wff ph</text>
</g>
<!-- n11135 -->
<g id="node3" class="node"><title>n11135</title>
</g>
<!-- n11132&#45;&gt;n11135 -->
<g id="edge19" class="edge"><title>n11132&#45;&gt;n11135</title>
</g>
<!-- QED -->
<g id="node14" class="node"><title>QED</title>
</g>
<!-- n11148&#45;&gt;QED -->
<g id="edge18" class="edge"><title>n11148&#45;&gt;QED</title>
<path fill="none" stroke="black" d="M612.096,-360C650.425,-360 722.33,-360 766.796,-360"/>
<polygon fill="black" stroke="black" points="766.93,-363.5 776.93,-360 766.93,-356.5 766.93,-363.5"/>
<text text-anchor="middle" x="694.584" y="-363.8" font-family="Times New Roman,serif" font-size="14.00">|&#45; ( ph &lt;&#45;&gt; ( ps /\ ch ) )</text>
</g>
<!-- n11135&#45;&gt;n11148 -->
<g id="edge2" class="edge"><title>n11135&#45;&gt;n11148</title>
<path fill="none" stroke="lightgray" d="M331.523,-427.846C374.892,-420.384 465.863,-403.204 540.084,-379 544.383,-377.598 548.84,-375.935 553.193,-374.185"/>
<polygon fill="lightgray" stroke="lightgray" points="554.601,-377.39 562.458,-370.283 551.884,-370.939 554.601,-377.39"/>
<text text-anchor="middle" x="453.084" y="-423.8" font-family="Times New Roman,serif" font-size="14.00" fill="lightgray">wff ( ps /\ ph )</text>
</g>
<!-- n11138 -->
<g id="node4" class="node"><title>n11138</title>
</g>
<!-- n11135&#45;&gt;n11138 -->
<g id="edge20" class="edge"><title>n11135&#45;&gt;n11138</title>
</g>
<!-- n11138&#45;&gt;n11148 -->
<g id="edge3" class="edge"><title>n11138&#45;&gt;n11148</title>
<path fill="none" stroke="lightgray" d="M332.332,-360C382.09,-360 490.512,-360 547.466,-360"/>
<polygon fill="lightgray" stroke="lightgray" points="547.807,-363.5 557.807,-360 547.807,-356.5 547.807,-363.5"/>
<text text-anchor="middle" x="453.084" y="-363.8" font-family="Times New Roman,serif" font-size="14.00" fill="lightgray">wff ( ps /\ ch )</text>
</g>
<!-- n11142 -->
<g id="node6" class="node"><title>n11142</title>
<ellipse fill="cyan" stroke="black" cx="305.188" cy="-288" rx="42.7926" ry="18"/>
<text text-anchor="middle" x="305.188" y="-284.3" font-family="Times New Roman,serif" font-size="14.00">pm4.71ri</text>
</g>
<!-- n11138&#45;&gt;n11142 -->
<g id="edge21" class="edge"><title>n11138&#45;&gt;n11142</title>
</g>
<!-- n11139 -->
<g id="node5" class="node"><title>n11139</title>
</g>
<!-- n11139&#45;&gt;n11142 -->
<g id="edge4" class="edge"><title>n11139&#45;&gt;n11142</title>
<path fill="none" stroke="lightgray" d="M72.8087,-428.454C113.174,-421.748 192.253,-403.93 244.292,-362 256.104,-352.482 253.08,-345.053 262.292,-333 267.789,-325.807 274.243,-318.441 280.415,-311.806"/>
<polygon fill="lightgray" stroke="lightgray" points="283.098,-314.064 287.458,-304.407 278.028,-309.237 283.098,-314.064"/>
<text text-anchor="middle" x="177.292" y="-423.8" font-family="Times New Roman,serif" font-size="14.00" fill="lightgray">wff ph</text>
</g>
<!-- n11140 -->
<g id="node7" class="node"><title>n11140</title>
</g>
<!-- n11139&#45;&gt;n11140 -->
<g id="edge8" class="edge"><title>n11139&#45;&gt;n11140</title>
</g>
<!-- n11142&#45;&gt;n11148 -->
<g id="edge7" class="edge"><title>n11142&#45;&gt;n11148</title>
<path fill="none" stroke="black" d="M345.273,-294.57C392.204,-302.979 472.988,-319.119 540.084,-341 544.383,-342.402 548.84,-344.065 553.193,-345.815"/>
<polygon fill="black" stroke="black" points="551.884,-349.061 562.458,-349.717 554.601,-342.61 551.884,-349.061"/>
<text text-anchor="middle" x="453.084" y="-344.8" font-family="Times New Roman,serif" font-size="14.00">|&#45; ( ph &lt;&#45;&gt; ( ps /\ ph ) )</text>
</g>
<!-- n11147 -->
<g id="node10" class="node"><title>n11147</title>
<ellipse fill="cyan" stroke="black" cx="305.188" cy="-195" rx="40.0939" ry="18"/>
<text text-anchor="middle" x="305.188" y="-191.3" font-family="Times New Roman,serif" font-size="14.00">pm5.32i</text>
</g>
<!-- n11142&#45;&gt;n11147 -->
<g id="edge22" class="edge"><title>n11142&#45;&gt;n11147</title>
</g>
<!-- n11140&#45;&gt;n11142 -->
<g id="edge5" class="edge"><title>n11140&#45;&gt;n11142</title>
<path fill="none" stroke="lightgray" d="M71.5237,-353.819C108.86,-344.269 182.388,-325.13 244.292,-307 249.657,-305.429 255.275,-303.725 260.829,-302.005"/>
<polygon fill="lightgray" stroke="lightgray" points="262.193,-305.245 270.689,-298.916 260.1,-298.566 262.193,-305.245"/>
<text text-anchor="middle" x="177.292" y="-346.8" font-family="Times New Roman,serif" font-size="14.00" fill="lightgray">wff ps</text>
</g>
<!-- n11141 -->
<g id="node8" class="node"><title>n11141</title>
<ellipse fill="orange" stroke="black" cx="46.1459" cy="-288" rx="46.2923" ry="18"/>
<text text-anchor="middle" x="46.1459" y="-284.3" font-family="Times New Roman,serif" font-size="14.00">biadan2.1</text>
</g>
<!-- n11140&#45;&gt;n11141 -->
<g id="edge9" class="edge"><title>n11140&#45;&gt;n11141</title>
</g>
<!-- n11141&#45;&gt;n11142 -->
<g id="edge6" class="edge"><title>n11141&#45;&gt;n11142</title>
<path fill="none" stroke="black" d="M92.5082,-288C137.127,-288 205.18,-288 252.015,-288"/>
<polygon fill="black" stroke="black" points="252.258,-291.5 262.258,-288 252.258,-284.5 252.258,-291.5"/>
<text text-anchor="middle" x="177.292" y="-291.8" font-family="Times New Roman,serif" font-size="14.00">|&#45; ( ph &#45;&gt; ps )</text>
</g>
<!-- n11143 -->
<g id="node9" class="node"><title>n11143</title>
</g>
<!-- n11143&#45;&gt;n11147 -->
<g id="edge10" class="edge"><title>n11143&#45;&gt;n11147</title>
<path fill="none" stroke="lightgray" d="M72.7163,-230.705C110.359,-225.779 182.874,-215.997 244.292,-206 248.696,-205.283 253.276,-204.504 257.853,-203.702"/>
<polygon fill="lightgray" stroke="lightgray" points="258.574,-207.129 267.803,-201.926 257.344,-200.238 258.574,-207.129"/>
<text text-anchor="middle" x="177.292" y="-229.8" font-family="Times New Roman,serif" font-size="14.00" fill="lightgray">wff ps</text>
</g>
<!-- n11144 -->
<g id="node11" class="node"><title>n11144</title>
</g>
<!-- n11143&#45;&gt;n11144 -->
<g id="edge15" class="edge"><title>n11143&#45;&gt;n11144</title>
</g>
<!-- n11147&#45;&gt;n11148 -->
<g id="edge14" class="edge"><title>n11147&#45;&gt;n11148</title>
<path fill="none" stroke="black" d="M343.943,-200.297C393.941,-209.031 482.495,-230.675 540.084,-280 556.387,-293.964 567.755,-315.541 574.846,-332.769"/>
<polygon fill="black" stroke="black" points="571.666,-334.25 578.532,-342.319 578.197,-331.73 571.666,-334.25"/>
<text text-anchor="middle" x="453.084" y="-283.8" font-family="Times New Roman,serif" font-size="14.00">|&#45; ( ( ps /\ ph ) &lt;&#45;&gt; ( ps /\ ch ) )</text>
</g>
<!-- n11144&#45;&gt;n11147 -->
<g id="edge11" class="edge"><title>n11144&#45;&gt;n11147</title>
<path fill="none" stroke="lightgray" d="M72.7318,-165.285C115.44,-170.768 201.912,-181.869 256.224,-188.842"/>
<polygon fill="lightgray" stroke="lightgray" points="255.939,-192.334 266.304,-190.136 256.831,-185.391 255.939,-192.334"/>
<text text-anchor="middle" x="177.292" y="-191.8" font-family="Times New Roman,serif" font-size="14.00" fill="lightgray">wff ph</text>
</g>
<!-- n11145 -->
<g id="node12" class="node"><title>n11145</title>
</g>
<!-- n11144&#45;&gt;n11145 -->
<g id="edge16" class="edge"><title>n11144&#45;&gt;n11145</title>
</g>
<!-- n11145&#45;&gt;n11147 -->
<g id="edge12" class="edge"><title>n11145&#45;&gt;n11147</title>
<path fill="none" stroke="lightgray" d="M72.0843,-95.1556C110.47,-103.675 185.725,-122.715 244.292,-152 255.831,-157.77 267.567,-165.661 277.557,-173.109"/>
<polygon fill="lightgray" stroke="lightgray" points="275.433,-175.89 285.496,-179.205 279.696,-170.338 275.433,-175.89"/>
<text text-anchor="middle" x="177.292" y="-155.8" font-family="Times New Roman,serif" font-size="14.00" fill="lightgray">wff ch</text>
</g>
<!-- n11146 -->
<g id="node13" class="node"><title>n11146</title>
<ellipse fill="orange" stroke="black" cx="46.1459" cy="-18" rx="46.2923" ry="18"/>
<text text-anchor="middle" x="46.1459" y="-14.3" font-family="Times New Roman,serif" font-size="14.00">biadan2.2</text>
</g>
<!-- n11145&#45;&gt;n11146 -->
<g id="edge17" class="edge"><title>n11145&#45;&gt;n11146</title>
</g>
<!-- n11146&#45;&gt;n11147 -->
<g id="edge13" class="edge"><title>n11146&#45;&gt;n11147</title>
<path fill="none" stroke="black" d="M90.0042,-23.9053C133.19,-31.7761 199.659,-49.3643 244.292,-87 269.534,-108.285 286.082,-143.044 295.261,-167.364"/>
<polygon fill="black" stroke="black" points="292.075,-168.848 298.748,-177.078 298.663,-166.483 292.075,-168.848"/>
<text text-anchor="middle" x="177.292" y="-90.8" font-family="Times New Roman,serif" font-size="14.00">|&#45; ( ps &#45;&gt; ( ph &lt;&#45;&gt; ch ) )</text>
</g>
</g>
</svg>
