<?xml version="1.0" encoding="UTF-8" standalone="no"?>
<!DOCTYPE svg PUBLIC "-//W3C//DTD SVG 1.1//EN"
 "http://www.w3.org/Graphics/SVG/1.1/DTD/svg11.dtd">
<!-- Generated by graphviz version 2.38.0 (20140413.2041)
 -->
<!-- Title: proof_biantr Pages: 1 -->
<svg width="1365pt" height="404pt"
 viewBox="0.00 0.00 1364.58 404.00" xmlns="http://www.w3.org/2000/svg" xmlns:xlink="http://www.w3.org/1999/xlink">
<g id="graph0" class="graph" transform="scale(1 1) rotate(0) translate(4 400)">
<title>proof_biantr</title>
<polygon fill="white" stroke="none" points="-4,4 -4,-400 1360.58,-400 1360.58,4 -4,4"/>
<!-- n16542 -->
<g id="node1" class="node"><title>n16542</title>
</g>
<!-- n16560 -->
<g id="node2" class="node"><title>n16560</title>
<ellipse fill="cyan" stroke="black" cx="922.84" cy="-269" rx="42.4939" ry="18"/>
<text text-anchor="middle" x="922.84" y="-265.3" font-family="Times New Roman,serif" font-size="14.00">biimparc</text>
</g>
<!-- n16542&#45;&gt;n16560 -->
<g id="edge1" class="edge"><title>n16542&#45;&gt;n16560</title>
<path fill="none" stroke="lightgray" d="M528.129,-378.559C589.706,-378.874 746.666,-373.879 862.594,-320 876.325,-313.619 889.339,-303.113 899.655,-293.291"/>
<polygon fill="lightgray" stroke="lightgray" points="902.368,-295.528 906.984,-285.992 897.429,-290.568 902.368,-295.528"/>
<text text-anchor="middle" x="707.594" y="-381.8" font-family="Times New Roman,serif" font-size="14.00" fill="lightgray">wff ( ch &lt;&#45;&gt; ps )</text>
</g>
<!-- n16545 -->
<g id="node3" class="node"><title>n16545</title>
</g>
<!-- n16542&#45;&gt;n16545 -->
<g id="edge16" class="edge"><title>n16542&#45;&gt;n16545</title>
</g>
<!-- QED -->
<g id="node12" class="node"><title>QED</title>
</g>
<!-- n16560&#45;&gt;QED -->
<g id="edge15" class="edge"><title>n16560&#45;&gt;QED</title>
<path fill="none" stroke="black" d="M965.398,-269C1043.66,-269 1211.87,-269 1287.77,-269"/>
<polygon fill="black" stroke="black" points="1287.85,-272.5 1297.85,-269 1287.85,-265.5 1287.85,-272.5"/>
<text text-anchor="middle" x="1131.59" y="-272.8" font-family="Times New Roman,serif" font-size="14.00">|&#45; ( ( ( ph &lt;&#45;&gt; ps ) /\ ( ch &lt;&#45;&gt; ps ) ) &#45;&gt; ( ph &lt;&#45;&gt; ch ) )</text>
</g>
<!-- n16545&#45;&gt;n16560 -->
<g id="edge2" class="edge"><title>n16545&#45;&gt;n16560</title>
<path fill="none" stroke="lightgray" d="M527.621,-303.917C586.861,-299.109 737.09,-286.746 862.594,-275 865.489,-274.729 868.463,-274.445 871.464,-274.155"/>
<polygon fill="lightgray" stroke="lightgray" points="872.083,-277.611 881.693,-273.149 871.398,-270.644 872.083,-277.611"/>
<text text-anchor="middle" x="707.594" y="-304.8" font-family="Times New Roman,serif" font-size="14.00" fill="lightgray">wff ( ph &lt;&#45;&gt; ch )</text>
</g>
<!-- n16548 -->
<g id="node4" class="node"><title>n16548</title>
</g>
<!-- n16545&#45;&gt;n16548 -->
<g id="edge17" class="edge"><title>n16545&#45;&gt;n16548</title>
</g>
<!-- n16548&#45;&gt;n16560 -->
<g id="edge3" class="edge"><title>n16548&#45;&gt;n16560</title>
<path fill="none" stroke="lightgray" d="M528.119,-235.185C587.771,-238.025 737.77,-246.044 862.594,-260 866.006,-260.381 869.523,-260.814 873.061,-261.279"/>
<polygon fill="lightgray" stroke="lightgray" points="872.633,-264.753 883.018,-262.655 873.591,-257.818 872.633,-264.753"/>
<text text-anchor="middle" x="707.594" y="-263.8" font-family="Times New Roman,serif" font-size="14.00" fill="lightgray">wff ( ph &lt;&#45;&gt; ps )</text>
</g>
<!-- n16559 -->
<g id="node6" class="node"><title>n16559</title>
<ellipse fill="cyan" stroke="black" cx="500.797" cy="-162" rx="33.5952" ry="18"/>
<text text-anchor="middle" x="500.797" y="-158.3" font-family="Times New Roman,serif" font-size="14.00">bibi2d</text>
</g>
<!-- n16548&#45;&gt;n16559 -->
<g id="edge18" class="edge"><title>n16548&#45;&gt;n16559</title>
</g>
<!-- n16551 -->
<g id="node5" class="node"><title>n16551</title>
</g>
<!-- n16551&#45;&gt;n16559 -->
<g id="edge4" class="edge"><title>n16551&#45;&gt;n16559</title>
<path fill="none" stroke="lightgray" d="M239.194,-305.958C286.4,-304.538 386.63,-295.211 449,-244 463.133,-232.395 457.578,-222.673 467,-207 471.041,-200.279 475.814,-193.298 480.45,-186.898"/>
<polygon fill="lightgray" stroke="lightgray" points="483.453,-188.724 486.605,-178.608 477.833,-184.551 483.453,-188.724"/>
<text text-anchor="middle" x="353" y="-308.8" font-family="Times New Roman,serif" font-size="14.00" fill="lightgray">wff ( ch &lt;&#45;&gt; ps )</text>
</g>
<!-- n16552 -->
<g id="node7" class="node"><title>n16552</title>
</g>
<!-- n16551&#45;&gt;n16552 -->
<g id="edge11" class="edge"><title>n16551&#45;&gt;n16552</title>
</g>
<!-- n16559&#45;&gt;n16560 -->
<g id="edge10" class="edge"><title>n16559&#45;&gt;n16560</title>
<path fill="none" stroke="black" d="M534.664,-160.993C600.262,-160.243 750.731,-164.908 862.594,-217 876.77,-223.602 890.095,-234.67 900.504,-244.902"/>
<polygon fill="black" stroke="black" points="898.055,-247.404 907.538,-252.129 903.072,-242.522 898.055,-247.404"/>
<text text-anchor="middle" x="707.594" y="-220.8" font-family="Times New Roman,serif" font-size="14.00">|&#45; ( ( ch &lt;&#45;&gt; ps ) &#45;&gt; ( ( ph &lt;&#45;&gt; ch ) &lt;&#45;&gt; ( ph &lt;&#45;&gt; ps ) ) )</text>
</g>
<!-- n16552&#45;&gt;n16559 -->
<g id="edge5" class="edge"><title>n16552&#45;&gt;n16559</title>
<path fill="none" stroke="lightgray" d="M238.44,-229.473C282.016,-221.457 373.538,-203.471 449,-181 453.894,-179.543 458.994,-177.85 463.994,-176.087"/>
<polygon fill="lightgray" stroke="lightgray" points="465.209,-179.37 473.403,-172.654 462.809,-172.794 465.209,-179.37"/>
<text text-anchor="middle" x="353" y="-228.8" font-family="Times New Roman,serif" font-size="14.00" fill="lightgray">wff ch</text>
</g>
<!-- n16553 -->
<g id="node8" class="node"><title>n16553</title>
</g>
<!-- n16552&#45;&gt;n16553 -->
<g id="edge12" class="edge"><title>n16552&#45;&gt;n16553</title>
</g>
<!-- n16553&#45;&gt;n16559 -->
<g id="edge6" class="edge"><title>n16553&#45;&gt;n16559</title>
<path fill="none" stroke="lightgray" d="M239.212,-162C288.651,-162 396.113,-162 456.454,-162"/>
<polygon fill="lightgray" stroke="lightgray" points="456.79,-165.5 466.79,-162 456.79,-158.5 456.79,-165.5"/>
<text text-anchor="middle" x="353" y="-165.8" font-family="Times New Roman,serif" font-size="14.00" fill="lightgray">wff ps</text>
</g>
<!-- n16554 -->
<g id="node9" class="node"><title>n16554</title>
</g>
<!-- n16553&#45;&gt;n16554 -->
<g id="edge13" class="edge"><title>n16553&#45;&gt;n16554</title>
</g>
<!-- n16554&#45;&gt;n16559 -->
<g id="edge7" class="edge"><title>n16554&#45;&gt;n16559</title>
<path fill="none" stroke="lightgray" d="M238.44,-94.5267C282.016,-102.543 373.538,-120.529 449,-143 453.894,-144.457 458.994,-146.15 463.994,-147.913"/>
<polygon fill="lightgray" stroke="lightgray" points="462.809,-151.206 473.403,-151.346 465.209,-144.63 462.809,-151.206"/>
<text text-anchor="middle" x="353" y="-146.8" font-family="Times New Roman,serif" font-size="14.00" fill="lightgray">wff ph</text>
</g>
<!-- n16558 -->
<g id="node11" class="node"><title>n16558</title>
<ellipse fill="cyan" stroke="black" cx="212" cy="-18" rx="27" ry="18"/>
<text text-anchor="middle" x="212" y="-14.3" font-family="Times New Roman,serif" font-size="14.00">id</text>
</g>
<!-- n16554&#45;&gt;n16558 -->
<g id="edge14" class="edge"><title>n16554&#45;&gt;n16558</title>
</g>
<!-- n16557 -->
<g id="node10" class="node"><title>n16557</title>
</g>
<!-- n16557&#45;&gt;n16558 -->
<g id="edge8" class="edge"><title>n16557&#45;&gt;n16558</title>
<path fill="none" stroke="lightgray" d="M54.2194,-18C85.7463,-18 138.848,-18 174.402,-18"/>
<polygon fill="lightgray" stroke="lightgray" points="174.829,-21.5001 184.829,-18 174.829,-14.5001 174.829,-21.5001"/>
<text text-anchor="middle" x="119.5" y="-21.8" font-family="Times New Roman,serif" font-size="14.00" fill="lightgray">wff ( ch &lt;&#45;&gt; ps )</text>
</g>
<!-- n16558&#45;&gt;n16559 -->
<g id="edge9" class="edge"><title>n16558&#45;&gt;n16559</title>
<path fill="none" stroke="black" d="M239.064,-18.6978C285.627,-21.1782 384.274,-32.1559 449,-80 467.635,-93.7743 480.965,-116.616 489.282,-134.698"/>
<polygon fill="black" stroke="black" points="486.198,-136.384 493.388,-144.166 492.62,-133.599 486.198,-136.384"/>
<text text-anchor="middle" x="353" y="-83.8" font-family="Times New Roman,serif" font-size="14.00">|&#45; ( ( ch &lt;&#45;&gt; ps ) &#45;&gt; ( ch &lt;&#45;&gt; ps ) )</text>
</g>
</g>
</svg>
