<?xml version="1.0" encoding="UTF-8" standalone="no"?>
<!DOCTYPE svg PUBLIC "-//W3C//DTD SVG 1.1//EN"
 "http://www.w3.org/Graphics/SVG/1.1/DTD/svg11.dtd">
<!-- Generated by graphviz version 2.38.0 (20140413.2041)
 -->
<!-- Title: proof_biantru Pages: 1 -->
<svg width="727pt" height="295pt"
 viewBox="0.00 0.00 726.58 295.00" xmlns="http://www.w3.org/2000/svg" xmlns:xlink="http://www.w3.org/1999/xlink">
<g id="graph0" class="graph" transform="scale(1 1) rotate(0) translate(4 291)">
<title>proof_biantru</title>
<polygon fill="white" stroke="none" points="-4,4 -4,-291 722.581,-291 722.581,4 -4,4"/>
<!-- n8690 -->
<g id="node1" class="node"><title>n8690</title>
</g>
<!-- n8700 -->
<g id="node2" class="node"><title>n8700</title>
<ellipse fill="lawngreen" stroke="black" cx="461.29" cy="-160" rx="33.5952" ry="18"/>
<text text-anchor="middle" x="461.29" y="-156.3" font-family="Times New Roman,serif" font-size="14.00">ax&#45;mp</text>
</g>
<!-- n8690&#45;&gt;n8700 -->
<g id="edge1" class="edge"><title>n8690&#45;&gt;n8700</title>
<path fill="none" stroke="lightgray" d="M196.248,-266.683C241.943,-261.704 338.527,-247.08 409.493,-208 420.672,-201.843 431.241,-192.642 439.813,-183.938"/>
<polygon fill="lightgray" stroke="lightgray" points="442.5,-186.19 446.797,-176.506 437.399,-181.396 442.5,-186.19"/>
<text text-anchor="middle" x="319.493" y="-265.8" font-family="Times New Roman,serif" font-size="14.00" fill="lightgray">wff ph</text>
</g>
<!-- n8695 -->
<g id="node3" class="node"><title>n8695</title>
</g>
<!-- n8690&#45;&gt;n8695 -->
<g id="edge9" class="edge"><title>n8690&#45;&gt;n8695</title>
</g>
<!-- QED -->
<g id="node8" class="node"><title>QED</title>
</g>
<!-- n8700&#45;&gt;QED -->
<g id="edge8" class="edge"><title>n8700&#45;&gt;QED</title>
<path fill="none" stroke="black" d="M495.158,-160C536.221,-160 606.365,-160 649.88,-160"/>
<polygon fill="black" stroke="black" points="650.069,-163.5 660.069,-160 650.069,-156.5 650.069,-163.5"/>
<text text-anchor="middle" x="577.587" y="-163.8" font-family="Times New Roman,serif" font-size="14.00">|&#45; ( ps &lt;&#45;&gt; ( ps /\ ph ) )</text>
</g>
<!-- n8695&#45;&gt;n8700 -->
<g id="edge2" class="edge"><title>n8695&#45;&gt;n8700</title>
<path fill="none" stroke="lightgray" d="M195.986,-193.716C246.05,-187.33 356.969,-173.18 417.998,-165.395"/>
<polygon fill="lightgray" stroke="lightgray" points="418.591,-168.848 428.067,-164.11 417.705,-161.904 418.591,-168.848"/>
<text text-anchor="middle" x="319.493" y="-192.8" font-family="Times New Roman,serif" font-size="14.00" fill="lightgray">wff ( ps &lt;&#45;&gt; ( ps /\ ph ) )</text>
</g>
<!-- n8696 -->
<g id="node4" class="node"><title>n8696</title>
<ellipse fill="orange" stroke="black" cx="169.246" cy="-125" rx="42.4939" ry="18"/>
<text text-anchor="middle" x="169.246" y="-121.3" font-family="Times New Roman,serif" font-size="14.00">biantru.1</text>
</g>
<!-- n8695&#45;&gt;n8696 -->
<g id="edge10" class="edge"><title>n8695&#45;&gt;n8696</title>
</g>
<!-- n8696&#45;&gt;n8700 -->
<g id="edge3" class="edge"><title>n8696&#45;&gt;n8700</title>
<path fill="none" stroke="black" d="M210.989,-128.588C258.686,-132.983 340.006,-141.08 409.493,-151 412.684,-151.456 415.983,-151.961 419.295,-152.493"/>
<polygon fill="black" stroke="black" points="418.74,-155.949 429.18,-154.148 419.895,-149.045 418.74,-155.949"/>
<text text-anchor="middle" x="319.493" y="-154.8" font-family="Times New Roman,serif" font-size="14.00">|&#45; ph</text>
</g>
<!-- n8699 -->
<g id="node6" class="node"><title>n8699</title>
<ellipse fill="cyan" stroke="black" cx="169.246" cy="-53" rx="27" ry="18"/>
<text text-anchor="middle" x="169.246" y="-49.3" font-family="Times New Roman,serif" font-size="14.00">iba</text>
</g>
<!-- n8696&#45;&gt;n8699 -->
<g id="edge11" class="edge"><title>n8696&#45;&gt;n8699</title>
</g>
<!-- n8697 -->
<g id="node5" class="node"><title>n8697</title>
</g>
<!-- n8697&#45;&gt;n8699 -->
<g id="edge4" class="edge"><title>n8697&#45;&gt;n8699</title>
<path fill="none" stroke="lightgray" d="M52.429,-83.5551C74.9152,-77.6227 108.505,-68.7611 133.728,-62.1066"/>
<polygon fill="lightgray" stroke="lightgray" points="134.85,-65.4304 143.627,-59.4952 133.065,-58.662 134.85,-65.4304"/>
<text text-anchor="middle" x="90.5" y="-82.8" font-family="Times New Roman,serif" font-size="14.00" fill="lightgray">wff ph</text>
</g>
<!-- n8698 -->
<g id="node7" class="node"><title>n8698</title>
</g>
<!-- n8697&#45;&gt;n8698 -->
<g id="edge7" class="edge"><title>n8697&#45;&gt;n8698</title>
</g>
<!-- n8699&#45;&gt;n8700 -->
<g id="edge6" class="edge"><title>n8699&#45;&gt;n8700</title>
<path fill="none" stroke="black" d="M196.246,-55.0512C241.936,-59.5719 338.514,-73.2761 409.493,-112 420.696,-118.113 431.269,-127.306 439.838,-136.016"/>
<polygon fill="black" stroke="black" points="437.423,-138.558 446.818,-143.457 442.529,-133.769 437.423,-138.558"/>
<text text-anchor="middle" x="319.493" y="-115.8" font-family="Times New Roman,serif" font-size="14.00">|&#45; ( ph &#45;&gt; ( ps &lt;&#45;&gt; ( ps /\ ph ) ) )</text>
</g>
<!-- n8698&#45;&gt;n8699 -->
<g id="edge5" class="edge"><title>n8698&#45;&gt;n8699</title>
<path fill="none" stroke="lightgray" d="M52.429,-24.0965C74.9152,-29.7082 108.505,-38.0908 133.728,-44.3856"/>
<polygon fill="lightgray" stroke="lightgray" points="133.077,-47.8303 143.627,-46.8559 134.772,-41.0386 133.077,-47.8303"/>
<text text-anchor="middle" x="90.5" y="-41.8" font-family="Times New Roman,serif" font-size="14.00" fill="lightgray">wff ps</text>
</g>
</g>
</svg>
