<?xml version="1.0" encoding="UTF-8" standalone="no"?>
<!DOCTYPE svg PUBLIC "-//W3C//DTD SVG 1.1//EN"
 "http://www.w3.org/Graphics/SVG/1.1/DTD/svg11.dtd">
<!-- Generated by graphviz version 2.38.0 (20140413.2041)
 -->
<!-- Title: proof_biantrur Pages: 1 -->
<svg width="733pt" height="295pt"
 viewBox="0.00 0.00 733.08 295.00" xmlns="http://www.w3.org/2000/svg" xmlns:xlink="http://www.w3.org/1999/xlink">
<g id="graph0" class="graph" transform="scale(1 1) rotate(0) translate(4 291)">
<title>proof_biantrur</title>
<polygon fill="white" stroke="none" points="-4,4 -4,-291 729.081,-291 729.081,4 -4,4"/>
<!-- n8701 -->
<g id="node1" class="node"><title>n8701</title>
</g>
<!-- n8711 -->
<g id="node2" class="node"><title>n8711</title>
<ellipse fill="lawngreen" stroke="black" cx="467.789" cy="-160" rx="33.5952" ry="18"/>
<text text-anchor="middle" x="467.789" y="-156.3" font-family="Times New Roman,serif" font-size="14.00">ax&#45;mp</text>
</g>
<!-- n8701&#45;&gt;n8711 -->
<g id="edge1" class="edge"><title>n8701&#45;&gt;n8711</title>
<path fill="none" stroke="lightgray" d="M199.484,-266.8C245.646,-261.981 343.867,-247.567 415.992,-208 427.181,-201.861 437.752,-192.664 446.323,-183.957"/>
<polygon fill="lightgray" stroke="lightgray" points="449.011,-186.207 453.305,-176.521 443.908,-181.415 449.011,-186.207"/>
<text text-anchor="middle" x="325.992" y="-264.8" font-family="Times New Roman,serif" font-size="14.00" fill="lightgray">wff ph</text>
</g>
<!-- n8706 -->
<g id="node3" class="node"><title>n8706</title>
</g>
<!-- n8701&#45;&gt;n8706 -->
<g id="edge9" class="edge"><title>n8701&#45;&gt;n8706</title>
</g>
<!-- QED -->
<g id="node8" class="node"><title>QED</title>
</g>
<!-- n8711&#45;&gt;QED -->
<g id="edge8" class="edge"><title>n8711&#45;&gt;QED</title>
<path fill="none" stroke="black" d="M501.658,-160C542.72,-160 612.865,-160 656.379,-160"/>
<polygon fill="black" stroke="black" points="656.568,-163.5 666.568,-160 656.568,-156.5 656.568,-163.5"/>
<text text-anchor="middle" x="584.086" y="-163.8" font-family="Times New Roman,serif" font-size="14.00">|&#45; ( ps &lt;&#45;&gt; ( ph /\ ps ) )</text>
</g>
<!-- n8706&#45;&gt;n8711 -->
<g id="edge2" class="edge"><title>n8706&#45;&gt;n8711</title>
<path fill="none" stroke="lightgray" d="M199.267,-193.749C249.876,-187.364 362.683,-173.133 424.416,-165.346"/>
<polygon fill="lightgray" stroke="lightgray" points="425.112,-168.786 434.595,-164.061 424.235,-161.841 425.112,-168.786"/>
<text text-anchor="middle" x="325.992" y="-192.8" font-family="Times New Roman,serif" font-size="14.00" fill="lightgray">wff ( ps &lt;&#45;&gt; ( ph /\ ps ) )</text>
</g>
<!-- n8707 -->
<g id="node4" class="node"><title>n8707</title>
<ellipse fill="orange" stroke="black" cx="172.496" cy="-125" rx="45.4919" ry="18"/>
<text text-anchor="middle" x="172.496" y="-121.3" font-family="Times New Roman,serif" font-size="14.00">biantrur.1</text>
</g>
<!-- n8706&#45;&gt;n8707 -->
<g id="edge10" class="edge"><title>n8706&#45;&gt;n8707</title>
</g>
<!-- n8707&#45;&gt;n8711 -->
<g id="edge3" class="edge"><title>n8707&#45;&gt;n8711</title>
<path fill="none" stroke="black" d="M217.416,-128.796C266.079,-133.215 346.823,-141.176 415.992,-151 419.184,-151.453 422.483,-151.957 425.796,-152.488"/>
<polygon fill="black" stroke="black" points="425.241,-155.944 435.681,-154.141 426.395,-149.04 425.241,-155.944"/>
<text text-anchor="middle" x="325.992" y="-154.8" font-family="Times New Roman,serif" font-size="14.00">|&#45; ph</text>
</g>
<!-- n8710 -->
<g id="node6" class="node"><title>n8710</title>
<ellipse fill="cyan" stroke="black" cx="172.496" cy="-53" rx="27" ry="18"/>
<text text-anchor="middle" x="172.496" y="-49.3" font-family="Times New Roman,serif" font-size="14.00">ibar</text>
</g>
<!-- n8707&#45;&gt;n8710 -->
<g id="edge11" class="edge"><title>n8707&#45;&gt;n8710</title>
</g>
<!-- n8708 -->
<g id="node5" class="node"><title>n8708</title>
</g>
<!-- n8708&#45;&gt;n8710 -->
<g id="edge4" class="edge"><title>n8708&#45;&gt;n8710</title>
<path fill="none" stroke="lightgray" d="M52.3421,-83.7235C75.637,-77.7169 111,-68.5988 137.155,-61.8547"/>
<polygon fill="lightgray" stroke="lightgray" points="138.225,-65.1934 147.034,-59.3073 136.477,-58.4151 138.225,-65.1934"/>
<text text-anchor="middle" x="90.5" y="-82.8" font-family="Times New Roman,serif" font-size="14.00" fill="lightgray">wff ph</text>
</g>
<!-- n8709 -->
<g id="node7" class="node"><title>n8709</title>
</g>
<!-- n8708&#45;&gt;n8709 -->
<g id="edge7" class="edge"><title>n8708&#45;&gt;n8709</title>
</g>
<!-- n8710&#45;&gt;n8711 -->
<g id="edge6" class="edge"><title>n8710&#45;&gt;n8711</title>
<path fill="none" stroke="black" d="M199.481,-54.9375C245.639,-59.2996 343.853,-72.7887 415.992,-112 427.205,-118.095 437.78,-127.285 446.347,-135.998"/>
<polygon fill="black" stroke="black" points="443.933,-138.54 453.325,-143.442 449.04,-133.752 443.933,-138.54"/>
<text text-anchor="middle" x="325.992" y="-115.8" font-family="Times New Roman,serif" font-size="14.00">|&#45; ( ph &#45;&gt; ( ps &lt;&#45;&gt; ( ph /\ ps ) ) )</text>
</g>
<!-- n8709&#45;&gt;n8710 -->
<g id="edge5" class="edge"><title>n8709&#45;&gt;n8710</title>
<path fill="none" stroke="lightgray" d="M52.6678,-24.0167C75.8711,-29.6762 110.836,-38.2045 136.838,-44.5465"/>
<polygon fill="lightgray" stroke="lightgray" points="136.125,-47.9753 146.67,-46.9447 137.784,-41.1747 136.125,-47.9753"/>
<text text-anchor="middle" x="90.5" y="-41.8" font-family="Times New Roman,serif" font-size="14.00" fill="lightgray">wff ps</text>
</g>
</g>
</svg>
