<?xml version="1.0" encoding="UTF-8" standalone="no"?>
<!DOCTYPE svg PUBLIC "-//W3C//DTD SVG 1.1//EN"
 "http://www.w3.org/Graphics/SVG/1.1/DTD/svg11.dtd">
<!-- Generated by graphviz version 2.38.0 (20140413.2041)
 -->
<!-- Title: proof_biass Pages: 1 -->
<svg width="2331pt" height="1150pt"
 viewBox="0.00 0.00 2331.26 1150.00" xmlns="http://www.w3.org/2000/svg" xmlns:xlink="http://www.w3.org/1999/xlink">
<g id="graph0" class="graph" transform="scale(1 1) rotate(0) translate(4 1146)">
<title>proof_biass</title>
<polygon fill="white" stroke="none" points="-4,4 -4,-1146 2327.26,-1146 2327.26,4 -4,4"/>
<!-- n6851 -->
<g id="node1" class="node"><title>n6851</title>
</g>
<!-- n6946 -->
<g id="node2" class="node"><title>n6946</title>
<ellipse fill="cyan" stroke="black" cx="1869.47" cy="-889" rx="40.0939" ry="18"/>
<text text-anchor="middle" x="1869.47" y="-885.3" font-family="Times New Roman,serif" font-size="14.00">pm2.61i</text>
</g>
<!-- n6851&#45;&gt;n6946 -->
<g id="edge1" class="edge"><title>n6851&#45;&gt;n6946</title>
<path fill="none" stroke="lightgray" d="M1405.71,-999.78C1475.2,-1003.46 1669.44,-1006.72 1811.17,-941 1824.96,-934.606 1837.76,-923.705 1847.74,-913.53"/>
<polygon fill="lightgray" stroke="lightgray" points="1850.53,-915.674 1854.8,-905.978 1845.41,-910.895 1850.53,-915.674"/>
<text text-anchor="middle" x="1620.17" y="-1004.8" font-family="Times New Roman,serif" font-size="14.00" fill="lightgray">wff ph</text>
</g>
<!-- n6862 -->
<g id="node3" class="node"><title>n6862</title>
</g>
<!-- n6851&#45;&gt;n6862 -->
<g id="edge72" class="edge"><title>n6851&#45;&gt;n6862</title>
</g>
<!-- QED -->
<g id="node44" class="node"><title>QED</title>
</g>
<!-- n6946&#45;&gt;QED -->
<g id="edge71" class="edge"><title>n6946&#45;&gt;QED</title>
<path fill="none" stroke="black" d="M1909.84,-889C1990.63,-889 2174.23,-889 2254.38,-889"/>
<polygon fill="black" stroke="black" points="2254.53,-892.5 2264.53,-889 2254.53,-885.5 2254.53,-892.5"/>
<text text-anchor="middle" x="2087.27" y="-892.8" font-family="Times New Roman,serif" font-size="14.00">|&#45; ( ( ( ph &lt;&#45;&gt; ps ) &lt;&#45;&gt; ch ) &lt;&#45;&gt; ( ph &lt;&#45;&gt; ( ps &lt;&#45;&gt; ch ) ) )</text>
</g>
<!-- n6862&#45;&gt;n6946 -->
<g id="edge2" class="edge"><title>n6862&#45;&gt;n6946</title>
<path fill="none" stroke="lightgray" d="M1405.97,-924.411C1473.37,-920.272 1657.8,-908.536 1811.17,-895 1814.07,-894.744 1817.05,-894.47 1820.05,-894.183"/>
<polygon fill="lightgray" stroke="lightgray" points="1820.66,-897.64 1830.27,-893.175 1819.98,-890.673 1820.66,-897.64"/>
<text text-anchor="middle" x="1620.17" y="-925.8" font-family="Times New Roman,serif" font-size="14.00" fill="lightgray">wff ( ( ( ph &lt;&#45;&gt; ps ) &lt;&#45;&gt; ch ) &lt;&#45;&gt; ( ph &lt;&#45;&gt; ( ps &lt;&#45;&gt; ch ) ) )</text>
</g>
<!-- n6892 -->
<g id="node5" class="node"><title>n6892</title>
<ellipse fill="cyan" stroke="black" cx="1378.68" cy="-854" rx="32.4942" ry="18"/>
<text text-anchor="middle" x="1378.68" y="-850.3" font-family="Times New Roman,serif" font-size="14.00">bitr3d</text>
</g>
<!-- n6862&#45;&gt;n6892 -->
<g id="edge73" class="edge"><title>n6862&#45;&gt;n6892</title>
</g>
<!-- n6863 -->
<g id="node4" class="node"><title>n6863</title>
</g>
<!-- n6863&#45;&gt;n6892 -->
<g id="edge3" class="edge"><title>n6863&#45;&gt;n6892</title>
<path fill="none" stroke="lightgray" d="M959.632,-1112.69C1029.04,-1127.05 1227.31,-1156.74 1328.18,-1054 1352.47,-1029.26 1333.86,-931.414 1346.18,-899 1348.93,-891.768 1353.1,-884.601 1357.51,-878.184"/>
<polygon fill="lightgray" stroke="lightgray" points="1360.46,-880.088 1363.57,-869.961 1354.82,-875.935 1360.46,-880.088"/>
<text text-anchor="middle" x="1161.18" y="-1130.8" font-family="Times New Roman,serif" font-size="14.00" fill="lightgray">wff ph</text>
</g>
<!-- n6866 -->
<g id="node6" class="node"><title>n6866</title>
</g>
<!-- n6863&#45;&gt;n6866 -->
<g id="edge25" class="edge"><title>n6863&#45;&gt;n6866</title>
</g>
<!-- n6892&#45;&gt;n6946 -->
<g id="edge24" class="edge"><title>n6892&#45;&gt;n6946</title>
<path fill="none" stroke="black" d="M1411.17,-854.866C1482.52,-857.053 1661.95,-863.822 1811.17,-880 1814.58,-880.369 1818.09,-880.8 1821.63,-881.268"/>
<polygon fill="black" stroke="black" points="1821.16,-884.737 1831.55,-882.67 1822.14,-877.806 1821.16,-884.737"/>
<text text-anchor="middle" x="1620.17" y="-883.8" font-family="Times New Roman,serif" font-size="14.00">|&#45; ( ph &#45;&gt; ( ( ( ph &lt;&#45;&gt; ps ) &lt;&#45;&gt; ch ) &lt;&#45;&gt; ( ph &lt;&#45;&gt; ( ps &lt;&#45;&gt; ch ) ) ) )</text>
</g>
<!-- n6945 -->
<g id="node21" class="node"><title>n6945</title>
<ellipse fill="cyan" stroke="black" cx="1378.68" cy="-590" rx="32.4942" ry="18"/>
<text text-anchor="middle" x="1378.68" y="-586.3" font-family="Times New Roman,serif" font-size="14.00">bitr3d</text>
</g>
<!-- n6892&#45;&gt;n6945 -->
<g id="edge74" class="edge"><title>n6892&#45;&gt;n6945</title>
</g>
<!-- n6866&#45;&gt;n6892 -->
<g id="edge4" class="edge"><title>n6866&#45;&gt;n6892</title>
<path fill="none" stroke="lightgray" d="M961.039,-1035.39C1040.06,-1035.99 1274.56,-1033.5 1328.18,-984 1356.55,-957.804 1330.8,-934.42 1346.18,-899 1349.26,-891.904 1353.55,-884.786 1357.98,-878.373"/>
<polygon fill="lightgray" stroke="lightgray" points="1360.92,-880.274 1363.99,-870.134 1355.27,-876.146 1360.92,-880.274"/>
<text text-anchor="middle" x="1161.18" y="-1038.8" font-family="Times New Roman,serif" font-size="14.00" fill="lightgray">wff ( ps &lt;&#45;&gt; ch )</text>
</g>
<!-- n6871 -->
<g id="node7" class="node"><title>n6871</title>
</g>
<!-- n6866&#45;&gt;n6871 -->
<g id="edge26" class="edge"><title>n6866&#45;&gt;n6871</title>
</g>
<!-- n6871&#45;&gt;n6892 -->
<g id="edge5" class="edge"><title>n6871&#45;&gt;n6892</title>
<path fill="none" stroke="lightgray" d="M961.025,-964.714C1026.7,-967.898 1202.57,-969.341 1328.18,-905 1340.19,-898.847 1350.97,-888.643 1359.39,-878.971"/>
<polygon fill="lightgray" stroke="lightgray" points="1362.23,-881.024 1365.87,-871.074 1356.82,-876.582 1362.23,-881.024"/>
<text text-anchor="middle" x="1161.18" y="-968.8" font-family="Times New Roman,serif" font-size="14.00" fill="lightgray">wff ( ( ph &lt;&#45;&gt; ps ) &lt;&#45;&gt; ch )</text>
</g>
<!-- n6876 -->
<g id="node8" class="node"><title>n6876</title>
</g>
<!-- n6871&#45;&gt;n6876 -->
<g id="edge27" class="edge"><title>n6871&#45;&gt;n6876</title>
</g>
<!-- n6876&#45;&gt;n6892 -->
<g id="edge6" class="edge"><title>n6876&#45;&gt;n6892</title>
<path fill="none" stroke="lightgray" d="M961.199,-889.312C1024.45,-885.163 1190.19,-873.796 1328.18,-860 1331.01,-859.717 1333.92,-859.409 1336.86,-859.085"/>
<polygon fill="lightgray" stroke="lightgray" points="1337.27,-862.561 1346.81,-857.945 1336.47,-855.606 1337.27,-862.561"/>
<text text-anchor="middle" x="1161.18" y="-889.8" font-family="Times New Roman,serif" font-size="14.00" fill="lightgray">wff ( ph &lt;&#45;&gt; ( ps &lt;&#45;&gt; ch ) )</text>
</g>
<!-- n6886 -->
<g id="node10" class="node"><title>n6886</title>
<ellipse fill="cyan" stroke="black" cx="933.934" cy="-819" rx="33.5952" ry="18"/>
<text text-anchor="middle" x="933.934" y="-815.3" font-family="Times New Roman,serif" font-size="14.00">bibi1d</text>
</g>
<!-- n6876&#45;&gt;n6886 -->
<g id="edge28" class="edge"><title>n6876&#45;&gt;n6886</title>
</g>
<!-- n6877 -->
<g id="node9" class="node"><title>n6877</title>
</g>
<!-- n6877&#45;&gt;n6886 -->
<g id="edge7" class="edge"><title>n6877&#45;&gt;n6886</title>
<path fill="none" stroke="lightgray" d="M505.192,-1094.82C574.734,-1109.54 773.338,-1140.18 873.687,-1037 900.636,-1009.29 875.828,-899.249 891.687,-864 895.375,-855.803 901.147,-848.098 907.216,-841.459"/>
<polygon fill="lightgray" stroke="lightgray" points="909.851,-843.772 914.372,-834.19 904.863,-838.861 909.851,-843.772"/>
<text text-anchor="middle" x="706.687" y="-1113.8" font-family="Times New Roman,serif" font-size="14.00" fill="lightgray">wff ph</text>
</g>
<!-- n6878 -->
<g id="node11" class="node"><title>n6878</title>
</g>
<!-- n6877&#45;&gt;n6878 -->
<g id="edge16" class="edge"><title>n6877&#45;&gt;n6878</title>
</g>
<!-- n6886&#45;&gt;n6892 -->
<g id="edge15" class="edge"><title>n6886&#45;&gt;n6892</title>
<path fill="none" stroke="black" d="M967.939,-819.913C1035.69,-822.067 1195.26,-828.575 1328.18,-845 1331.39,-845.396 1334.7,-845.866 1338.02,-846.38"/>
<polygon fill="black" stroke="black" points="1337.48,-849.838 1347.92,-848.023 1338.63,-842.932 1337.48,-849.838"/>
<text text-anchor="middle" x="1161.18" y="-848.8" font-family="Times New Roman,serif" font-size="14.00">|&#45; ( ph &#45;&gt; ( ( ps &lt;&#45;&gt; ch ) &lt;&#45;&gt; ( ( ph &lt;&#45;&gt; ps ) &lt;&#45;&gt; ch ) ) )</text>
</g>
<!-- n6891 -->
<g id="node18" class="node"><title>n6891</title>
<ellipse fill="cyan" stroke="black" cx="933.934" cy="-747" rx="42.4939" ry="18"/>
<text text-anchor="middle" x="933.934" y="-743.3" font-family="Times New Roman,serif" font-size="14.00">pm5.501</text>
</g>
<!-- n6886&#45;&gt;n6891 -->
<g id="edge29" class="edge"><title>n6886&#45;&gt;n6891</title>
</g>
<!-- n6878&#45;&gt;n6886 -->
<g id="edge8" class="edge"><title>n6878&#45;&gt;n6886</title>
<path fill="none" stroke="lightgray" d="M506.62,-1017.77C585.856,-1019.51 820.898,-1020.25 873.687,-970 908.299,-937.053 870.685,-906.923 891.687,-864 895.638,-855.926 901.498,-848.263 907.569,-841.625"/>
<polygon fill="lightgray" stroke="lightgray" points="910.203,-843.937 914.69,-834.339 905.197,-839.044 910.203,-843.937"/>
<text text-anchor="middle" x="706.687" y="-1021.8" font-family="Times New Roman,serif" font-size="14.00" fill="lightgray">wff ps</text>
</g>
<!-- n6881 -->
<g id="node12" class="node"><title>n6881</title>
</g>
<!-- n6878&#45;&gt;n6881 -->
<g id="edge17" class="edge"><title>n6878&#45;&gt;n6881</title>
</g>
<!-- n6881&#45;&gt;n6886 -->
<g id="edge9" class="edge"><title>n6881&#45;&gt;n6886</title>
<path fill="none" stroke="lightgray" d="M506.157,-947.886C572.45,-954.028 752.439,-962.36 873.687,-889 885.402,-881.912 883.047,-874.621 891.687,-864 897.552,-856.791 904.238,-849.241 910.495,-842.43"/>
<polygon fill="lightgray" stroke="lightgray" points="913.313,-844.54 917.568,-834.837 908.191,-839.768 913.313,-844.54"/>
<text text-anchor="middle" x="706.687" y="-954.8" font-family="Times New Roman,serif" font-size="14.00" fill="lightgray">wff ( ph &lt;&#45;&gt; ps )</text>
</g>
<!-- n6882 -->
<g id="node13" class="node"><title>n6882</title>
</g>
<!-- n6881&#45;&gt;n6882 -->
<g id="edge18" class="edge"><title>n6881&#45;&gt;n6882</title>
</g>
<!-- n6882&#45;&gt;n6886 -->
<g id="edge10" class="edge"><title>n6882&#45;&gt;n6886</title>
<path fill="none" stroke="lightgray" d="M506.413,-871.994C569.693,-869.219 736.701,-859.934 873.687,-835 880.448,-833.769 887.563,-832.143 894.425,-830.399"/>
<polygon fill="lightgray" stroke="lightgray" points="895.462,-833.745 904.226,-827.791 893.662,-826.98 895.462,-833.745"/>
<text text-anchor="middle" x="706.687" y="-873.8" font-family="Times New Roman,serif" font-size="14.00" fill="lightgray">wff ch</text>
</g>
<!-- n6885 -->
<g id="node15" class="node"><title>n6885</title>
<ellipse fill="cyan" stroke="black" cx="479.441" cy="-801" rx="42.4939" ry="18"/>
<text text-anchor="middle" x="479.441" y="-797.3" font-family="Times New Roman,serif" font-size="14.00">pm5.501</text>
</g>
<!-- n6882&#45;&gt;n6885 -->
<g id="edge19" class="edge"><title>n6882&#45;&gt;n6885</title>
</g>
<!-- n6883 -->
<g id="node14" class="node"><title>n6883</title>
</g>
<!-- n6883&#45;&gt;n6885 -->
<g id="edge11" class="edge"><title>n6883&#45;&gt;n6885</title>
<path fill="none" stroke="lightgray" d="M182.121,-841.511C235.365,-834.232 359.093,-817.316 428.658,-807.806"/>
<polygon fill="lightgray" stroke="lightgray" points="429.492,-811.225 438.926,-806.402 428.544,-804.289 429.492,-811.225"/>
<text text-anchor="middle" x="310.695" y="-841.8" font-family="Times New Roman,serif" font-size="14.00" fill="lightgray">wff ph</text>
</g>
<!-- n6884 -->
<g id="node16" class="node"><title>n6884</title>
</g>
<!-- n6883&#45;&gt;n6884 -->
<g id="edge14" class="edge"><title>n6883&#45;&gt;n6884</title>
</g>
<!-- n6885&#45;&gt;n6886 -->
<g id="edge13" class="edge"><title>n6885&#45;&gt;n6886</title>
<path fill="none" stroke="black" d="M521.796,-802.645C607.333,-806.048 802.949,-813.829 889.902,-817.288"/>
<polygon fill="black" stroke="black" points="889.822,-820.788 899.953,-817.688 890.1,-813.793 889.822,-820.788"/>
<text text-anchor="middle" x="706.687" y="-819.8" font-family="Times New Roman,serif" font-size="14.00">|&#45; ( ph &#45;&gt; ( ps &lt;&#45;&gt; ( ph &lt;&#45;&gt; ps ) ) )</text>
</g>
<!-- n6884&#45;&gt;n6885 -->
<g id="edge12" class="edge"><title>n6884&#45;&gt;n6885</title>
<path fill="none" stroke="lightgray" d="M182.767,-773.937C230.087,-775.822 332.973,-780.794 419.195,-791 422.827,-791.43 426.576,-791.93 430.341,-792.472"/>
<polygon fill="lightgray" stroke="lightgray" points="429.863,-795.94 440.276,-793.989 430.919,-789.02 429.863,-795.94"/>
<text text-anchor="middle" x="310.695" y="-794.8" font-family="Times New Roman,serif" font-size="14.00" fill="lightgray">wff ps</text>
</g>
<!-- n6887 -->
<g id="node17" class="node"><title>n6887</title>
</g>
<!-- n6887&#45;&gt;n6891 -->
<g id="edge20" class="edge"><title>n6887&#45;&gt;n6891</title>
<path fill="none" stroke="lightgray" d="M506.725,-747C579.52,-747 784.739,-747 881.383,-747"/>
<polygon fill="lightgray" stroke="lightgray" points="881.503,-750.5 891.503,-747 881.503,-743.5 881.503,-750.5"/>
<text text-anchor="middle" x="706.687" y="-750.8" font-family="Times New Roman,serif" font-size="14.00" fill="lightgray">wff ph</text>
</g>
<!-- n6890 -->
<g id="node19" class="node"><title>n6890</title>
</g>
<!-- n6887&#45;&gt;n6890 -->
<g id="edge23" class="edge"><title>n6887&#45;&gt;n6890</title>
</g>
<!-- n6891&#45;&gt;n6892 -->
<g id="edge22" class="edge"><title>n6891&#45;&gt;n6892</title>
<path fill="none" stroke="black" d="M975.756,-744.188C1050.22,-740.837 1211.21,-741.919 1328.18,-802 1340.6,-808.381 1351.63,-819.137 1360.11,-829.217"/>
<polygon fill="black" stroke="black" points="1357.38,-831.406 1366.34,-837.059 1362.86,-827.052 1357.38,-831.406"/>
<text text-anchor="middle" x="1161.18" y="-805.8" font-family="Times New Roman,serif" font-size="14.00">|&#45; ( ph &#45;&gt; ( ( ps &lt;&#45;&gt; ch ) &lt;&#45;&gt; ( ph &lt;&#45;&gt; ( ps &lt;&#45;&gt; ch ) ) ) )</text>
</g>
<!-- n6890&#45;&gt;n6891 -->
<g id="edge21" class="edge"><title>n6890&#45;&gt;n6891</title>
<path fill="none" stroke="lightgray" d="M506.488,-676.912C569.933,-681.916 737.279,-697.188 873.687,-728 879.425,-729.296 885.402,-730.9 891.257,-732.623"/>
<polygon fill="lightgray" stroke="lightgray" points="890.346,-736.004 900.933,-735.601 892.405,-729.314 890.346,-736.004"/>
<text text-anchor="middle" x="706.687" y="-731.8" font-family="Times New Roman,serif" font-size="14.00" fill="lightgray">wff ( ps &lt;&#45;&gt; ch )</text>
</g>
<!-- n6894 -->
<g id="node20" class="node"><title>n6894</title>
</g>
<!-- n6894&#45;&gt;n6945 -->
<g id="edge30" class="edge"><title>n6894&#45;&gt;n6945</title>
<path fill="none" stroke="lightgray" d="M961.305,-694.42C1026.89,-696.876 1201.24,-696.752 1328.18,-636 1339.2,-630.727 1349.44,-622.133 1357.72,-613.793"/>
<polygon fill="lightgray" stroke="lightgray" points="1360.45,-615.997 1364.73,-606.306 1355.34,-611.211 1360.45,-615.997"/>
<text text-anchor="middle" x="1161.18" y="-698.8" font-family="Times New Roman,serif" font-size="14.00" fill="lightgray">wff &#45;. ph</text>
</g>
<!-- n6898 -->
<g id="node22" class="node"><title>n6898</title>
</g>
<!-- n6894&#45;&gt;n6898 -->
<g id="edge66" class="edge"><title>n6894&#45;&gt;n6898</title>
</g>
<!-- n6945&#45;&gt;n6946 -->
<g id="edge65" class="edge"><title>n6945&#45;&gt;n6946</title>
<path fill="none" stroke="black" d="M1404.24,-601.522C1472.06,-633.85 1666.49,-729.996 1811.17,-836 1823.02,-844.679 1835.11,-855.508 1845.1,-865.112"/>
<polygon fill="black" stroke="black" points="1842.71,-867.666 1852.3,-872.161 1847.61,-862.664 1842.71,-867.666"/>
<text text-anchor="middle" x="1620.17" y="-839.8" font-family="Times New Roman,serif" font-size="14.00">|&#45; ( &#45;. ph &#45;&gt; ( ( ( ph &lt;&#45;&gt; ps ) &lt;&#45;&gt; ch ) &lt;&#45;&gt; ( ph &lt;&#45;&gt; ( ps &lt;&#45;&gt; ch ) ) ) )</text>
</g>
<!-- n6898&#45;&gt;n6945 -->
<g id="edge31" class="edge"><title>n6898&#45;&gt;n6945</title>
<path fill="none" stroke="lightgray" d="M960.976,-619.177C1034.79,-614.008 1245.87,-599.229 1336.03,-592.916"/>
<polygon fill="lightgray" stroke="lightgray" points="1336.43,-596.397 1346.16,-592.207 1335.94,-589.414 1336.43,-596.397"/>
<text text-anchor="middle" x="1161.18" y="-620.8" font-family="Times New Roman,serif" font-size="14.00" fill="lightgray">wff &#45;. ( ps &lt;&#45;&gt; ch )</text>
</g>
<!-- n6903 -->
<g id="node23" class="node"><title>n6903</title>
</g>
<!-- n6898&#45;&gt;n6903 -->
<g id="edge67" class="edge"><title>n6898&#45;&gt;n6903</title>
</g>
<!-- n6903&#45;&gt;n6945 -->
<g id="edge32" class="edge"><title>n6903&#45;&gt;n6945</title>
<path fill="none" stroke="lightgray" d="M960.95,-548.682C1024.33,-548.347 1191.53,-550.115 1328.18,-575 1332.35,-575.76 1336.67,-576.751 1340.94,-577.861"/>
<polygon fill="lightgray" stroke="lightgray" points="1340.14,-581.272 1350.72,-580.615 1342.04,-574.534 1340.14,-581.272"/>
<text text-anchor="middle" x="1161.18" y="-578.8" font-family="Times New Roman,serif" font-size="14.00" fill="lightgray">wff ( ( ph &lt;&#45;&gt; ps ) &lt;&#45;&gt; ch )</text>
</g>
<!-- n6908 -->
<g id="node24" class="node"><title>n6908</title>
</g>
<!-- n6903&#45;&gt;n6908 -->
<g id="edge68" class="edge"><title>n6903&#45;&gt;n6908</title>
</g>
<!-- n6908&#45;&gt;n6945 -->
<g id="edge33" class="edge"><title>n6908&#45;&gt;n6945</title>
<path fill="none" stroke="lightgray" d="M960.841,-474.301C1026.83,-468.668 1204.76,-461.367 1328.18,-530 1342.43,-537.921 1354.24,-551.711 1362.75,-564.075"/>
<polygon fill="lightgray" stroke="lightgray" points="1359.98,-566.231 1368.35,-572.721 1365.85,-562.425 1359.98,-566.231"/>
<text text-anchor="middle" x="1161.18" y="-533.8" font-family="Times New Roman,serif" font-size="14.00" fill="lightgray">wff ( ph &lt;&#45;&gt; ( ps &lt;&#45;&gt; ch ) )</text>
</g>
<!-- n6939 -->
<g id="node26" class="node"><title>n6939</title>
<ellipse fill="cyan" stroke="black" cx="933.934" cy="-405" rx="38.1938" ry="18"/>
<text text-anchor="middle" x="933.934" y="-401.3" font-family="Times New Roman,serif" font-size="14.00">syl5bbr</text>
</g>
<!-- n6908&#45;&gt;n6939 -->
<g id="edge69" class="edge"><title>n6908&#45;&gt;n6939</title>
</g>
<!-- n6912 -->
<g id="node25" class="node"><title>n6912</title>
</g>
<!-- n6912&#45;&gt;n6939 -->
<g id="edge34" class="edge"><title>n6912&#45;&gt;n6939</title>
<path fill="none" stroke="lightgray" d="M505.457,-626.44C574.837,-639.916 771.295,-666.87 873.687,-566 910.854,-529.386 869.092,-497.026 891.687,-450 895.514,-442.036 901.223,-434.486 907.183,-427.926"/>
<polygon fill="lightgray" stroke="lightgray" points="909.734,-430.323 914.196,-420.713 904.715,-425.443 909.734,-430.323"/>
<text text-anchor="middle" x="706.687" y="-644.8" font-family="Times New Roman,serif" font-size="14.00" fill="lightgray">wff &#45;. ( ps &lt;&#45;&gt; ch )</text>
</g>
<!-- n6916 -->
<g id="node27" class="node"><title>n6916</title>
</g>
<!-- n6912&#45;&gt;n6916 -->
<g id="edge56" class="edge"><title>n6912&#45;&gt;n6916</title>
</g>
<!-- n6939&#45;&gt;n6945 -->
<g id="edge55" class="edge"><title>n6939&#45;&gt;n6945</title>
<path fill="none" stroke="black" d="M969.664,-398.13C1044.24,-385.493 1221.56,-367.065 1328.18,-452 1361.63,-478.645 1372.49,-529.754 1376.01,-561.74"/>
<polygon fill="black" stroke="black" points="1372.53,-562.158 1376.94,-571.792 1379.5,-561.511 1372.53,-562.158"/>
<text text-anchor="middle" x="1161.18" y="-455.8" font-family="Times New Roman,serif" font-size="14.00">|&#45; ( &#45;. ph &#45;&gt; ( &#45;. ( ps &lt;&#45;&gt; ch ) &lt;&#45;&gt; ( ( ph &lt;&#45;&gt; ps ) &lt;&#45;&gt; ch ) ) )</text>
</g>
<!-- n6944 -->
<g id="node42" class="node"><title>n6944</title>
<ellipse fill="cyan" stroke="black" cx="933.934" cy="-250" rx="28.6953" ry="18"/>
<text text-anchor="middle" x="933.934" y="-246.3" font-family="Times New Roman,serif" font-size="14.00">nbn2</text>
</g>
<!-- n6939&#45;&gt;n6944 -->
<g id="edge70" class="edge"><title>n6939&#45;&gt;n6944</title>
</g>
<!-- n6916&#45;&gt;n6939 -->
<g id="edge35" class="edge"><title>n6916&#45;&gt;n6939</title>
<path fill="none" stroke="lightgray" d="M506.698,-548.365C585.103,-545.979 815.669,-535.268 873.687,-491 889.509,-478.928 880.818,-466.67 891.687,-450 896.597,-442.471 902.78,-434.991 908.855,-428.355"/>
<polygon fill="lightgray" stroke="lightgray" points="911.496,-430.657 915.853,-420.999 906.424,-425.832 911.496,-430.657"/>
<text text-anchor="middle" x="706.687" y="-550.8" font-family="Times New Roman,serif" font-size="14.00" fill="lightgray">wff ( &#45;. ps &lt;&#45;&gt; ch )</text>
</g>
<!-- n6918 -->
<g id="node28" class="node"><title>n6918</title>
</g>
<!-- n6916&#45;&gt;n6918 -->
<g id="edge57" class="edge"><title>n6916&#45;&gt;n6918</title>
</g>
<!-- n6918&#45;&gt;n6939 -->
<g id="edge36" class="edge"><title>n6918&#45;&gt;n6939</title>
<path fill="none" stroke="lightgray" d="M506.488,-475.088C569.933,-470.084 737.279,-454.812 873.687,-424 880.049,-422.563 886.705,-420.747 893.163,-418.811"/>
<polygon fill="lightgray" stroke="lightgray" points="894.58,-422.035 903.077,-415.706 892.488,-415.355 894.58,-422.035"/>
<text text-anchor="middle" x="706.687" y="-475.8" font-family="Times New Roman,serif" font-size="14.00" fill="lightgray">wff &#45;. ph</text>
</g>
<!-- n6923 -->
<g id="node29" class="node"><title>n6923</title>
</g>
<!-- n6918&#45;&gt;n6923 -->
<g id="edge58" class="edge"><title>n6918&#45;&gt;n6923</title>
</g>
<!-- n6923&#45;&gt;n6939 -->
<g id="edge37" class="edge"><title>n6923&#45;&gt;n6939</title>
<path fill="none" stroke="lightgray" d="M506.725,-405C580.537,-405 790.5,-405 885.37,-405"/>
<polygon fill="lightgray" stroke="lightgray" points="885.54,-408.5 895.54,-405 885.54,-401.5 885.54,-408.5"/>
<text text-anchor="middle" x="706.687" y="-408.8" font-family="Times New Roman,serif" font-size="14.00" fill="lightgray">wff ( ( ph &lt;&#45;&gt; ps ) &lt;&#45;&gt; ch )</text>
</g>
<!-- n6926 -->
<g id="node31" class="node"><title>n6926</title>
<ellipse fill="cyan" stroke="black" cx="479.441" cy="-333" rx="29.4969" ry="18"/>
<text text-anchor="middle" x="479.441" y="-329.3" font-family="Times New Roman,serif" font-size="14.00">nbbn</text>
</g>
<!-- n6923&#45;&gt;n6926 -->
<g id="edge59" class="edge"><title>n6923&#45;&gt;n6926</title>
</g>
<!-- n6924 -->
<g id="node30" class="node"><title>n6924</title>
</g>
<!-- n6924&#45;&gt;n6926 -->
<g id="edge38" class="edge"><title>n6924&#45;&gt;n6926</title>
<path fill="none" stroke="lightgray" d="M182.83,-458.348C232.487,-456.017 342.14,-445.546 419.195,-399 429.717,-392.644 429.041,-387.199 437.195,-378 443.46,-370.932 450.362,-363.331 456.698,-356.425"/>
<polygon fill="lightgray" stroke="lightgray" points="459.604,-358.437 463.804,-348.711 454.455,-353.695 459.604,-358.437"/>
<text text-anchor="middle" x="310.695" y="-461.8" font-family="Times New Roman,serif" font-size="14.00" fill="lightgray">wff ps</text>
</g>
<!-- n6925 -->
<g id="node32" class="node"><title>n6925</title>
</g>
<!-- n6924&#45;&gt;n6925 -->
<g id="edge41" class="edge"><title>n6924&#45;&gt;n6925</title>
</g>
<!-- n6926&#45;&gt;n6939 -->
<g id="edge40" class="edge"><title>n6926&#45;&gt;n6939</title>
<path fill="none" stroke="black" d="M508.879,-335.102C574.05,-340.294 738.959,-355.568 873.687,-386 880.049,-387.437 886.705,-389.253 893.163,-391.189"/>
<polygon fill="black" stroke="black" points="892.488,-394.645 903.077,-394.294 894.58,-387.965 892.488,-394.645"/>
<text text-anchor="middle" x="706.687" y="-389.8" font-family="Times New Roman,serif" font-size="14.00">|&#45; ( ( &#45;. ps &lt;&#45;&gt; ch ) &lt;&#45;&gt; &#45;. ( ps &lt;&#45;&gt; ch ) )</text>
</g>
<!-- n6938 -->
<g id="node34" class="node"><title>n6938</title>
<ellipse fill="cyan" stroke="black" cx="479.441" cy="-261" rx="33.5952" ry="18"/>
<text text-anchor="middle" x="479.441" y="-257.3" font-family="Times New Roman,serif" font-size="14.00">bibi1d</text>
</g>
<!-- n6926&#45;&gt;n6938 -->
<g id="edge60" class="edge"><title>n6926&#45;&gt;n6938</title>
</g>
<!-- n6925&#45;&gt;n6926 -->
<g id="edge39" class="edge"><title>n6925&#45;&gt;n6926</title>
<path fill="none" stroke="lightgray" d="M181.852,-382.763C238.257,-373.299 374.718,-350.403 441.027,-339.277"/>
<polygon fill="lightgray" stroke="lightgray" points="441.761,-342.703 451.044,-337.597 440.603,-335.8 441.761,-342.703"/>
<text text-anchor="middle" x="310.695" y="-383.8" font-family="Times New Roman,serif" font-size="14.00" fill="lightgray">wff ch</text>
</g>
<!-- n6928 -->
<g id="node33" class="node"><title>n6928</title>
</g>
<!-- n6928&#45;&gt;n6938 -->
<g id="edge42" class="edge"><title>n6928&#45;&gt;n6938</title>
<path fill="none" stroke="lightgray" d="M181.911,-328.264C238.552,-317.605 374.074,-291.749 419.195,-280 426.31,-278.147 433.829,-275.937 441.035,-273.69"/>
<polygon fill="lightgray" stroke="lightgray" points="442.14,-277.011 450.6,-270.633 440.009,-270.343 442.14,-277.011"/>
<text text-anchor="middle" x="310.695" y="-328.8" font-family="Times New Roman,serif" font-size="14.00" fill="lightgray">wff &#45;. ph</text>
</g>
<!-- n6930 -->
<g id="node35" class="node"><title>n6930</title>
</g>
<!-- n6928&#45;&gt;n6930 -->
<g id="edge51" class="edge"><title>n6928&#45;&gt;n6930</title>
</g>
<!-- n6938&#45;&gt;n6939 -->
<g id="edge50" class="edge"><title>n6938&#45;&gt;n6939</title>
<path fill="none" stroke="black" d="M513.276,-262.615C596.509,-267.223 813.419,-282.591 873.687,-320 895.522,-333.552 911.437,-358.45 921.24,-377.81"/>
<polygon fill="black" stroke="black" points="918.201,-379.567 925.685,-387.067 924.512,-376.537 918.201,-379.567"/>
<text text-anchor="middle" x="706.687" y="-323.8" font-family="Times New Roman,serif" font-size="14.00">|&#45; ( &#45;. ph &#45;&gt; ( ( &#45;. ps &lt;&#45;&gt; ch ) &lt;&#45;&gt; ( ( ph &lt;&#45;&gt; ps ) &lt;&#45;&gt; ch ) ) )</text>
</g>
<!-- n6930&#45;&gt;n6938 -->
<g id="edge43" class="edge"><title>n6930&#45;&gt;n6938</title>
<path fill="none" stroke="lightgray" d="M182.663,-261C237.92,-261 367.312,-261 435.17,-261"/>
<polygon fill="lightgray" stroke="lightgray" points="435.511,-264.5 445.511,-261 435.511,-257.5 435.511,-264.5"/>
<text text-anchor="middle" x="310.695" y="-264.8" font-family="Times New Roman,serif" font-size="14.00" fill="lightgray">wff &#45;. ps</text>
</g>
<!-- n6933 -->
<g id="node36" class="node"><title>n6933</title>
</g>
<!-- n6930&#45;&gt;n6933 -->
<g id="edge52" class="edge"><title>n6930&#45;&gt;n6933</title>
</g>
<!-- n6933&#45;&gt;n6938 -->
<g id="edge44" class="edge"><title>n6933&#45;&gt;n6938</title>
<path fill="none" stroke="lightgray" d="M182.162,-193.186C229.364,-201.13 333.229,-219.614 419.195,-242 426.31,-243.853 433.829,-246.063 441.035,-248.31"/>
<polygon fill="lightgray" stroke="lightgray" points="440.009,-251.657 450.6,-251.367 442.14,-244.989 440.009,-251.657"/>
<text text-anchor="middle" x="310.695" y="-245.8" font-family="Times New Roman,serif" font-size="14.00" fill="lightgray">wff ( ph &lt;&#45;&gt; ps )</text>
</g>
<!-- n6934 -->
<g id="node37" class="node"><title>n6934</title>
</g>
<!-- n6933&#45;&gt;n6934 -->
<g id="edge53" class="edge"><title>n6933&#45;&gt;n6934</title>
</g>
<!-- n6934&#45;&gt;n6938 -->
<g id="edge45" class="edge"><title>n6934&#45;&gt;n6938</title>
<path fill="none" stroke="lightgray" d="M182.765,-115.355C234.779,-113.572 351.936,-117.193 419.195,-179 438.133,-196.403 421.553,-213.583 437.195,-234 439.643,-237.195 442.584,-240.128 445.753,-242.786"/>
<polygon fill="lightgray" stroke="lightgray" points="443.826,-245.713 453.954,-248.824 447.976,-240.076 443.826,-245.713"/>
<text text-anchor="middle" x="310.695" y="-182.8" font-family="Times New Roman,serif" font-size="14.00" fill="lightgray">wff ch</text>
</g>
<!-- n6937 -->
<g id="node39" class="node"><title>n6937</title>
<ellipse fill="cyan" stroke="black" cx="155.597" cy="-45" rx="28.6953" ry="18"/>
<text text-anchor="middle" x="155.597" y="-41.3" font-family="Times New Roman,serif" font-size="14.00">nbn2</text>
</g>
<!-- n6934&#45;&gt;n6937 -->
<g id="edge54" class="edge"><title>n6934&#45;&gt;n6937</title>
</g>
<!-- n6935 -->
<g id="node38" class="node"><title>n6935</title>
</g>
<!-- n6935&#45;&gt;n6937 -->
<g id="edge46" class="edge"><title>n6935&#45;&gt;n6937</title>
<path fill="none" stroke="lightgray" d="M51.2199,-81.7463C70.657,-74.8372 98.6593,-64.8836 120.619,-57.078"/>
<polygon fill="lightgray" stroke="lightgray" points="121.98,-60.3087 130.23,-53.6615 119.636,-53.713 121.98,-60.3087"/>
<text text-anchor="middle" x="90.5" y="-78.8" font-family="Times New Roman,serif" font-size="14.00" fill="lightgray">wff ph</text>
</g>
<!-- n6936 -->
<g id="node40" class="node"><title>n6936</title>
</g>
<!-- n6935&#45;&gt;n6936 -->
<g id="edge49" class="edge"><title>n6935&#45;&gt;n6936</title>
</g>
<!-- n6937&#45;&gt;n6938 -->
<g id="edge48" class="edge"><title>n6937&#45;&gt;n6938</title>
<path fill="none" stroke="black" d="M183.665,-41.1867C237.299,-35.3154 357.224,-30.8735 419.195,-97 461.189,-141.81 404.526,-181.998 437.195,-234 439.336,-237.408 442.083,-240.476 445.14,-243.212"/>
<polygon fill="black" stroke="black" points="443.13,-246.081 453.212,-249.339 447.363,-240.505 443.13,-246.081"/>
<text text-anchor="middle" x="310.695" y="-100.8" font-family="Times New Roman,serif" font-size="14.00">|&#45; ( &#45;. ph &#45;&gt; ( &#45;. ps &lt;&#45;&gt; ( ph &lt;&#45;&gt; ps ) ) )</text>
</g>
<!-- n6936&#45;&gt;n6937 -->
<g id="edge47" class="edge"><title>n6936&#45;&gt;n6937</title>
<path fill="none" stroke="lightgray" d="M53.0116,-23.3343C71.7132,-27.3229 97.5572,-32.8348 118.497,-37.3008"/>
<polygon fill="lightgray" stroke="lightgray" points="117.82,-40.735 128.33,-39.3979 119.28,-33.889 117.82,-40.735"/>
<text text-anchor="middle" x="90.5" y="-38.8" font-family="Times New Roman,serif" font-size="14.00" fill="lightgray">wff ps</text>
</g>
<!-- n6940 -->
<g id="node41" class="node"><title>n6940</title>
</g>
<!-- n6940&#45;&gt;n6944 -->
<g id="edge61" class="edge"><title>n6940&#45;&gt;n6944</title>
<path fill="none" stroke="lightgray" d="M506.394,-209.466C582.624,-216.71 806.092,-237.946 895.413,-246.434"/>
<polygon fill="lightgray" stroke="lightgray" points="895.088,-249.919 905.374,-247.381 895.75,-242.951 895.088,-249.919"/>
<text text-anchor="middle" x="706.687" y="-247.8" font-family="Times New Roman,serif" font-size="14.00" fill="lightgray">wff ph</text>
</g>
<!-- n6943 -->
<g id="node43" class="node"><title>n6943</title>
</g>
<!-- n6940&#45;&gt;n6943 -->
<g id="edge64" class="edge"><title>n6940&#45;&gt;n6943</title>
</g>
<!-- n6944&#45;&gt;n6945 -->
<g id="edge63" class="edge"><title>n6944&#45;&gt;n6945</title>
<path fill="none" stroke="black" d="M962.632,-249.526C1034.48,-249.894 1228.17,-261.351 1328.18,-369 1354.03,-396.825 1369.05,-508.512 1374.87,-561.643"/>
<polygon fill="black" stroke="black" points="1371.4,-562.168 1375.94,-571.743 1378.37,-561.43 1371.4,-562.168"/>
<text text-anchor="middle" x="1161.18" y="-372.8" font-family="Times New Roman,serif" font-size="14.00">|&#45; ( &#45;. ph &#45;&gt; ( &#45;. ( ps &lt;&#45;&gt; ch ) &lt;&#45;&gt; ( ph &lt;&#45;&gt; ( ps &lt;&#45;&gt; ch ) ) ) )</text>
</g>
<!-- n6943&#45;&gt;n6944 -->
<g id="edge62" class="edge"><title>n6943&#45;&gt;n6944</title>
<path fill="none" stroke="lightgray" d="M506.821,-133.838C572.431,-132.013 746.816,-133.741 873.687,-195 888.988,-202.388 903.067,-215.088 913.658,-226.424"/>
<polygon fill="lightgray" stroke="lightgray" points="911.131,-228.849 920.405,-233.972 916.35,-224.184 911.131,-228.849"/>
<text text-anchor="middle" x="706.687" y="-198.8" font-family="Times New Roman,serif" font-size="14.00" fill="lightgray">wff ( ps &lt;&#45;&gt; ch )</text>
</g>
</g>
</svg>
