<?xml version="1.0" encoding="UTF-8" standalone="no"?>
<!DOCTYPE svg PUBLIC "-//W3C//DTD SVG 1.1//EN"
 "http://www.w3.org/Graphics/SVG/1.1/DTD/svg11.dtd">
<!-- Generated by graphviz version 2.38.0 (20140413.2041)
 -->
<!-- Title: proof_bibi12d Pages: 1 -->
<svg width="1015pt" height="749pt"
 viewBox="0.00 0.00 1014.58 749.00" xmlns="http://www.w3.org/2000/svg" xmlns:xlink="http://www.w3.org/1999/xlink">
<g id="graph0" class="graph" transform="scale(1 1) rotate(0) translate(4 745)">
<title>proof_bibi12d</title>
<polygon fill="white" stroke="none" points="-4,4 -4,-745 1010.58,-745 1010.58,4 -4,4"/>
<!-- n6200 -->
<g id="node1" class="node"><title>n6200</title>
</g>
<!-- n6222 -->
<g id="node2" class="node"><title>n6222</title>
<ellipse fill="cyan" stroke="black" cx="640.133" cy="-539" rx="27.8951" ry="18"/>
<text text-anchor="middle" x="640.133" y="-535.3" font-family="Times New Roman,serif" font-size="14.00">bitrd</text>
</g>
<!-- n6200&#45;&gt;n6222 -->
<g id="edge1" class="edge"><title>n6200&#45;&gt;n6222</title>
<path fill="none" stroke="lightgray" d="M324.091,-723.18C380.232,-728.63 515.108,-733.367 594.186,-666 623.203,-641.279 633.491,-596.559 637.136,-567.324"/>
<polygon fill="lightgray" stroke="lightgray" points="640.623,-567.634 638.201,-557.32 633.662,-566.894 640.623,-567.634"/>
<text text-anchor="middle" x="471.686" y="-729.8" font-family="Times New Roman,serif" font-size="14.00" fill="lightgray">wff ph</text>
</g>
<!-- n6203 -->
<g id="node3" class="node"><title>n6203</title>
</g>
<!-- n6200&#45;&gt;n6203 -->
<g id="edge26" class="edge"><title>n6200&#45;&gt;n6203</title>
</g>
<!-- QED -->
<g id="node18" class="node"><title>QED</title>
</g>
<!-- n6222&#45;&gt;QED -->
<g id="edge25" class="edge"><title>n6222&#45;&gt;QED</title>
<path fill="none" stroke="black" d="M668.28,-539C727.604,-539 868.977,-539 937.615,-539"/>
<polygon fill="black" stroke="black" points="937.983,-542.5 947.983,-539 937.983,-535.5 937.983,-542.5"/>
<text text-anchor="middle" x="808.081" y="-542.8" font-family="Times New Roman,serif" font-size="14.00">|&#45; ( ph &#45;&gt; ( ( ps &lt;&#45;&gt; th ) &lt;&#45;&gt; ( ch &lt;&#45;&gt; ta ) ) )</text>
</g>
<!-- n6203&#45;&gt;n6222 -->
<g id="edge2" class="edge"><title>n6203&#45;&gt;n6222</title>
<path fill="none" stroke="lightgray" d="M324.408,-648.173C378.346,-647.433 504.773,-639.924 594.186,-589 605.168,-582.745 614.902,-572.836 622.478,-563.483"/>
<polygon fill="lightgray" stroke="lightgray" points="625.275,-565.587 628.557,-555.513 619.709,-561.341 625.275,-565.587"/>
<text text-anchor="middle" x="471.686" y="-650.8" font-family="Times New Roman,serif" font-size="14.00" fill="lightgray">wff ( ps &lt;&#45;&gt; th )</text>
</g>
<!-- n6206 -->
<g id="node4" class="node"><title>n6206</title>
</g>
<!-- n6203&#45;&gt;n6206 -->
<g id="edge27" class="edge"><title>n6203&#45;&gt;n6206</title>
</g>
<!-- n6206&#45;&gt;n6222 -->
<g id="edge3" class="edge"><title>n6206&#45;&gt;n6222</title>
<path fill="none" stroke="lightgray" d="M324.532,-573.511C376.135,-568.542 494.717,-556.849 594.186,-545 596.878,-544.679 599.659,-544.336 602.457,-543.983"/>
<polygon fill="lightgray" stroke="lightgray" points="603.062,-547.434 612.53,-542.678 602.163,-540.492 603.062,-547.434"/>
<text text-anchor="middle" x="471.686" y="-573.8" font-family="Times New Roman,serif" font-size="14.00" fill="lightgray">wff ( ch &lt;&#45;&gt; th )</text>
</g>
<!-- n6209 -->
<g id="node5" class="node"><title>n6209</title>
</g>
<!-- n6206&#45;&gt;n6209 -->
<g id="edge28" class="edge"><title>n6206&#45;&gt;n6209</title>
</g>
<!-- n6209&#45;&gt;n6222 -->
<g id="edge4" class="edge"><title>n6209&#45;&gt;n6222</title>
<path fill="none" stroke="lightgray" d="M324.615,-505.335C376.365,-508.182 495.191,-515.782 594.186,-530 597.238,-530.438 600.396,-530.95 603.559,-531.503"/>
<polygon fill="lightgray" stroke="lightgray" points="603.074,-534.973 613.547,-533.371 604.36,-528.093 603.074,-534.973"/>
<text text-anchor="middle" x="471.686" y="-533.8" font-family="Times New Roman,serif" font-size="14.00" fill="lightgray">wff ( ch &lt;&#45;&gt; ta )</text>
</g>
<!-- n6215 -->
<g id="node7" class="node"><title>n6215</title>
<ellipse fill="cyan" stroke="black" cx="297.389" cy="-432" rx="33.5952" ry="18"/>
<text text-anchor="middle" x="297.389" y="-428.3" font-family="Times New Roman,serif" font-size="14.00">bibi1d</text>
</g>
<!-- n6209&#45;&gt;n6215 -->
<g id="edge29" class="edge"><title>n6209&#45;&gt;n6215</title>
</g>
<!-- n6210 -->
<g id="node6" class="node"><title>n6210</title>
</g>
<!-- n6210&#45;&gt;n6215 -->
<g id="edge5" class="edge"><title>n6210&#45;&gt;n6215</title>
<path fill="none" stroke="lightgray" d="M73.8907,-647.526C116.735,-645.238 201.612,-634.09 245.592,-583 276.767,-546.785 245.027,-521.032 263.592,-477 266.587,-469.896 270.899,-462.851 275.416,-456.518"/>
<polygon fill="lightgray" stroke="lightgray" points="278.334,-458.463 281.6,-448.384 272.762,-454.226 278.334,-458.463"/>
<text text-anchor="middle" x="178.592" y="-646.8" font-family="Times New Roman,serif" font-size="14.00" fill="lightgray">wff ph</text>
</g>
<!-- n6211 -->
<g id="node8" class="node"><title>n6211</title>
</g>
<!-- n6210&#45;&gt;n6211 -->
<g id="edge11" class="edge"><title>n6210&#45;&gt;n6211</title>
</g>
<!-- n6215&#45;&gt;n6222 -->
<g id="edge10" class="edge"><title>n6215&#45;&gt;n6222</title>
<path fill="none" stroke="black" d="M331.383,-431.457C388.666,-431.924 508.577,-439.239 594.186,-488 605.29,-494.325 615.042,-504.423 622.599,-513.972"/>
<polygon fill="black" stroke="black" points="619.878,-516.177 628.654,-522.113 625.495,-512 619.878,-516.177"/>
<text text-anchor="middle" x="471.686" y="-491.8" font-family="Times New Roman,serif" font-size="14.00">|&#45; ( ph &#45;&gt; ( ( ps &lt;&#45;&gt; th ) &lt;&#45;&gt; ( ch &lt;&#45;&gt; th ) ) )</text>
</g>
<!-- n6221 -->
<g id="node13" class="node"><title>n6221</title>
<ellipse fill="cyan" stroke="black" cx="297.389" cy="-234" rx="33.5952" ry="18"/>
<text text-anchor="middle" x="297.389" y="-230.3" font-family="Times New Roman,serif" font-size="14.00">bibi2d</text>
</g>
<!-- n6215&#45;&gt;n6221 -->
<g id="edge30" class="edge"><title>n6215&#45;&gt;n6221</title>
</g>
<!-- n6211&#45;&gt;n6215 -->
<g id="edge6" class="edge"><title>n6211&#45;&gt;n6215</title>
<path fill="none" stroke="lightgray" d="M73.5426,-572.476C114.041,-565.802 193.379,-548.026 245.592,-506 257.409,-496.488 255.118,-489.583 263.592,-477 267.972,-470.495 272.87,-463.594 277.517,-457.201"/>
<polygon fill="lightgray" stroke="lightgray" points="280.528,-459.014 283.627,-448.883 274.886,-454.87 280.528,-459.014"/>
<text text-anchor="middle" x="178.592" y="-567.8" font-family="Times New Roman,serif" font-size="14.00" fill="lightgray">wff ps</text>
</g>
<!-- n6212 -->
<g id="node9" class="node"><title>n6212</title>
</g>
<!-- n6211&#45;&gt;n6212 -->
<g id="edge12" class="edge"><title>n6211&#45;&gt;n6212</title>
</g>
<!-- n6212&#45;&gt;n6215 -->
<g id="edge7" class="edge"><title>n6212&#45;&gt;n6215</title>
<path fill="none" stroke="lightgray" d="M72.3761,-498.22C109.995,-489.194 183.97,-470.73 245.592,-451 250.277,-449.5 255.166,-447.821 259.98,-446.098"/>
<polygon fill="lightgray" stroke="lightgray" points="261.485,-449.274 269.668,-442.544 259.074,-442.702 261.485,-449.274"/>
<text text-anchor="middle" x="178.592" y="-490.8" font-family="Times New Roman,serif" font-size="14.00" fill="lightgray">wff ch</text>
</g>
<!-- n6213 -->
<g id="node10" class="node"><title>n6213</title>
</g>
<!-- n6212&#45;&gt;n6213 -->
<g id="edge13" class="edge"><title>n6212&#45;&gt;n6213</title>
</g>
<!-- n6213&#45;&gt;n6215 -->
<g id="edge8" class="edge"><title>n6213&#45;&gt;n6215</title>
<path fill="none" stroke="lightgray" d="M73.9298,-432C116.614,-432 201.702,-432 253.386,-432"/>
<polygon fill="lightgray" stroke="lightgray" points="253.568,-435.5 263.568,-432 253.568,-428.5 253.568,-435.5"/>
<text text-anchor="middle" x="178.592" y="-435.8" font-family="Times New Roman,serif" font-size="14.00" fill="lightgray">wff th</text>
</g>
<!-- n6214 -->
<g id="node11" class="node"><title>n6214</title>
<ellipse fill="orange" stroke="black" cx="46.7958" cy="-360" rx="46.5926" ry="18"/>
<text text-anchor="middle" x="46.7958" y="-356.3" font-family="Times New Roman,serif" font-size="14.00">imbi12d.1</text>
</g>
<!-- n6213&#45;&gt;n6214 -->
<g id="edge14" class="edge"><title>n6213&#45;&gt;n6214</title>
</g>
<!-- n6214&#45;&gt;n6215 -->
<g id="edge9" class="edge"><title>n6214&#45;&gt;n6215</title>
<path fill="none" stroke="black" d="M87.1497,-369.36C127.3,-379.186 191.25,-395.601 245.592,-413 250.277,-414.5 255.166,-416.179 259.98,-417.902"/>
<polygon fill="black" stroke="black" points="259.074,-421.298 269.668,-421.456 261.485,-414.726 259.074,-421.298"/>
<text text-anchor="middle" x="178.592" y="-416.8" font-family="Times New Roman,serif" font-size="14.00">|&#45; ( ph &#45;&gt; ( ps &lt;&#45;&gt; ch ) )</text>
</g>
<!-- n6216 -->
<g id="node12" class="node"><title>n6216</title>
</g>
<!-- n6216&#45;&gt;n6221 -->
<g id="edge15" class="edge"><title>n6216&#45;&gt;n6221</title>
<path fill="none" stroke="lightgray" d="M72.3761,-300.22C109.995,-291.194 183.97,-272.73 245.592,-253 250.277,-251.5 255.166,-249.821 259.98,-248.098"/>
<polygon fill="lightgray" stroke="lightgray" points="261.485,-251.274 269.668,-244.544 259.074,-244.702 261.485,-251.274"/>
<text text-anchor="middle" x="178.592" y="-293.8" font-family="Times New Roman,serif" font-size="14.00" fill="lightgray">wff ph</text>
</g>
<!-- n6217 -->
<g id="node14" class="node"><title>n6217</title>
</g>
<!-- n6216&#45;&gt;n6217 -->
<g id="edge21" class="edge"><title>n6216&#45;&gt;n6217</title>
</g>
<!-- n6221&#45;&gt;n6222 -->
<g id="edge20" class="edge"><title>n6221&#45;&gt;n6222</title>
<path fill="none" stroke="black" d="M326.383,-243.431C384.605,-264.433 519.52,-320.535 594.186,-412 617.819,-440.951 629.461,-483.24 634.874,-510.937"/>
<polygon fill="black" stroke="black" points="631.493,-511.91 636.713,-521.13 638.382,-510.667 631.493,-511.91"/>
<text text-anchor="middle" x="471.686" y="-415.8" font-family="Times New Roman,serif" font-size="14.00">|&#45; ( ph &#45;&gt; ( ( ch &lt;&#45;&gt; th ) &lt;&#45;&gt; ( ch &lt;&#45;&gt; ta ) ) )</text>
</g>
<!-- n6217&#45;&gt;n6221 -->
<g id="edge16" class="edge"><title>n6217&#45;&gt;n6221</title>
<path fill="none" stroke="lightgray" d="M73.9298,-234C116.614,-234 201.702,-234 253.386,-234"/>
<polygon fill="lightgray" stroke="lightgray" points="253.568,-237.5 263.568,-234 253.568,-230.5 253.568,-237.5"/>
<text text-anchor="middle" x="178.592" y="-237.8" font-family="Times New Roman,serif" font-size="14.00" fill="lightgray">wff th</text>
</g>
<!-- n6218 -->
<g id="node15" class="node"><title>n6218</title>
</g>
<!-- n6217&#45;&gt;n6218 -->
<g id="edge22" class="edge"><title>n6217&#45;&gt;n6218</title>
</g>
<!-- n6218&#45;&gt;n6221 -->
<g id="edge17" class="edge"><title>n6218&#45;&gt;n6221</title>
<path fill="none" stroke="lightgray" d="M72.3761,-167.78C109.995,-176.806 183.97,-195.27 245.592,-215 250.277,-216.5 255.166,-218.179 259.98,-219.902"/>
<polygon fill="lightgray" stroke="lightgray" points="259.074,-223.298 269.668,-223.456 261.485,-216.726 259.074,-223.298"/>
<text text-anchor="middle" x="178.592" y="-218.8" font-family="Times New Roman,serif" font-size="14.00" fill="lightgray">wff ta</text>
</g>
<!-- n6219 -->
<g id="node16" class="node"><title>n6219</title>
</g>
<!-- n6218&#45;&gt;n6219 -->
<g id="edge23" class="edge"><title>n6218&#45;&gt;n6219</title>
</g>
<!-- n6219&#45;&gt;n6221 -->
<g id="edge18" class="edge"><title>n6219&#45;&gt;n6221</title>
<path fill="none" stroke="lightgray" d="M73.3161,-93.8118C113.504,-100.881 192.425,-119.188 245.592,-160 261.765,-172.415 274.676,-191.47 283.434,-207.135"/>
<polygon fill="lightgray" stroke="lightgray" points="280.555,-209.176 288.342,-216.361 286.735,-205.888 280.555,-209.176"/>
<text text-anchor="middle" x="178.592" y="-163.8" font-family="Times New Roman,serif" font-size="14.00" fill="lightgray">wff ch</text>
</g>
<!-- n6220 -->
<g id="node17" class="node"><title>n6220</title>
<ellipse fill="orange" stroke="black" cx="46.7958" cy="-18" rx="46.5926" ry="18"/>
<text text-anchor="middle" x="46.7958" y="-14.3" font-family="Times New Roman,serif" font-size="14.00">imbi12d.2</text>
</g>
<!-- n6219&#45;&gt;n6220 -->
<g id="edge24" class="edge"><title>n6219&#45;&gt;n6220</title>
</g>
<!-- n6220&#45;&gt;n6221 -->
<g id="edge19" class="edge"><title>n6220&#45;&gt;n6221</title>
<path fill="none" stroke="black" d="M93.0626,-21.6429C137.542,-27.57 204.544,-43.135 245.592,-84 278.646,-116.907 290.199,-172.069 294.231,-205.541"/>
<polygon fill="black" stroke="black" points="290.762,-206.015 295.294,-215.591 297.723,-205.279 290.762,-206.015"/>
<text text-anchor="middle" x="178.592" y="-87.8" font-family="Times New Roman,serif" font-size="14.00">|&#45; ( ph &#45;&gt; ( th &lt;&#45;&gt; ta ) )</text>
</g>
</g>
</svg>
