<?xml version="1.0" encoding="UTF-8" standalone="no"?>
<!DOCTYPE svg PUBLIC "-//W3C//DTD SVG 1.1//EN"
 "http://www.w3.org/Graphics/SVG/1.1/DTD/svg11.dtd">
<!-- Generated by graphviz version 2.38.0 (20140413.2041)
 -->
<!-- Title: proof_bibi1i Pages: 1 -->
<svg width="849pt" height="637pt"
 viewBox="0.00 0.00 848.68 637.00" xmlns="http://www.w3.org/2000/svg" xmlns:xlink="http://www.w3.org/1999/xlink">
<g id="graph0" class="graph" transform="scale(1 1) rotate(0) translate(4 633)">
<title>proof_bibi1i</title>
<polygon fill="white" stroke="none" points="-4,4 -4,-633 844.678,-633 844.678,4 -4,4"/>
<!-- n6013 -->
<g id="node1" class="node"><title>n6013</title>
</g>
<!-- n6034 -->
<g id="node2" class="node"><title>n6034</title>
<ellipse fill="cyan" stroke="black" cx="515.936" cy="-395" rx="29.4969" ry="18"/>
<text text-anchor="middle" x="515.936" y="-391.3" font-family="Times New Roman,serif" font-size="14.00">3bitri</text>
</g>
<!-- n6013&#45;&gt;n6034 -->
<g id="edge1" class="edge"><title>n6013&#45;&gt;n6034</title>
<path fill="none" stroke="lightgray" d="M242,-613.493C292.701,-616.806 405.079,-616.447 468.689,-557 505.871,-522.251 513.874,-459.899 515.186,-423.52"/>
<polygon fill="lightgray" stroke="lightgray" points="518.693,-423.194 515.403,-413.123 511.695,-423.048 518.693,-423.194"/>
<text text-anchor="middle" x="367.689" y="-617.8" font-family="Times New Roman,serif" font-size="14.00" fill="lightgray">wff ( ph &lt;&#45;&gt; ch )</text>
</g>
<!-- n6016 -->
<g id="node3" class="node"><title>n6016</title>
</g>
<!-- n6013&#45;&gt;n6016 -->
<g id="edge22" class="edge"><title>n6013&#45;&gt;n6016</title>
</g>
<!-- QED -->
<g id="node17" class="node"><title>QED</title>
</g>
<!-- n6034&#45;&gt;QED -->
<g id="edge21" class="edge"><title>n6034&#45;&gt;QED</title>
<path fill="none" stroke="black" d="M545.344,-395C598.271,-395 712.012,-395 771.839,-395"/>
<polygon fill="black" stroke="black" points="772.007,-398.5 782.007,-395 772.007,-391.5 772.007,-398.5"/>
<text text-anchor="middle" x="663.683" y="-398.8" font-family="Times New Roman,serif" font-size="14.00">|&#45; ( ( ph &lt;&#45;&gt; ch ) &lt;&#45;&gt; ( ps &lt;&#45;&gt; ch ) )</text>
</g>
<!-- n6016&#45;&gt;n6034 -->
<g id="edge2" class="edge"><title>n6016&#45;&gt;n6034</title>
<path fill="none" stroke="lightgray" d="M242.044,-539.151C291.365,-538.135 399.38,-529.568 468.689,-477 486.708,-463.333 498.76,-440.483 506.03,-422.37"/>
<polygon fill="lightgray" stroke="lightgray" points="509.354,-423.476 509.585,-412.883 502.799,-421.019 509.354,-423.476"/>
<text text-anchor="middle" x="367.689" y="-541.8" font-family="Times New Roman,serif" font-size="14.00" fill="lightgray">wff ( ch &lt;&#45;&gt; ph )</text>
</g>
<!-- n6019 -->
<g id="node4" class="node"><title>n6019</title>
</g>
<!-- n6016&#45;&gt;n6019 -->
<g id="edge23" class="edge"><title>n6016&#45;&gt;n6019</title>
</g>
<!-- n6019&#45;&gt;n6034 -->
<g id="edge3" class="edge"><title>n6019&#45;&gt;n6034</title>
<path fill="none" stroke="lightgray" d="M241.397,-463.24C287.445,-456.103 387.249,-439.035 468.689,-414 473.102,-412.643 477.677,-411.03 482.157,-409.326"/>
<polygon fill="lightgray" stroke="lightgray" points="483.722,-412.47 491.712,-405.513 481.127,-405.969 483.722,-412.47"/>
<text text-anchor="middle" x="367.689" y="-461.8" font-family="Times New Roman,serif" font-size="14.00" fill="lightgray">wff ( ch &lt;&#45;&gt; ps )</text>
</g>
<!-- n6022 -->
<g id="node5" class="node"><title>n6022</title>
</g>
<!-- n6019&#45;&gt;n6022 -->
<g id="edge24" class="edge"><title>n6019&#45;&gt;n6022</title>
</g>
<!-- n6022&#45;&gt;n6034 -->
<g id="edge4" class="edge"><title>n6022&#45;&gt;n6034</title>
<path fill="none" stroke="lightgray" d="M241.907,-395C294.698,-395 414.628,-395 476.47,-395"/>
<polygon fill="lightgray" stroke="lightgray" points="476.595,-398.5 486.595,-395 476.595,-391.5 476.595,-398.5"/>
<text text-anchor="middle" x="367.689" y="-398.8" font-family="Times New Roman,serif" font-size="14.00" fill="lightgray">wff ( ps &lt;&#45;&gt; ch )</text>
</g>
<!-- n6025 -->
<g id="node7" class="node"><title>n6025</title>
<ellipse fill="cyan" stroke="black" cx="214.892" cy="-323" rx="33.5952" ry="18"/>
<text text-anchor="middle" x="214.892" y="-319.3" font-family="Times New Roman,serif" font-size="14.00">bicom</text>
</g>
<!-- n6022&#45;&gt;n6025 -->
<g id="edge25" class="edge"><title>n6022&#45;&gt;n6025</title>
</g>
<!-- n6023 -->
<g id="node6" class="node"><title>n6023</title>
</g>
<!-- n6023&#45;&gt;n6025 -->
<g id="edge5" class="edge"><title>n6023&#45;&gt;n6025</title>
<path fill="none" stroke="lightgray" d="M55.5174,-479.055C84.7377,-469.43 133.83,-449.348 163.095,-416 178.123,-398.875 170.286,-388.057 181.095,-368 184.815,-361.096 189.471,-354.049 194.096,-347.642"/>
<polygon fill="lightgray" stroke="lightgray" points="197.095,-349.478 200.293,-339.377 191.494,-345.279 197.095,-349.478"/>
<text text-anchor="middle" x="121.095" y="-472.8" font-family="Times New Roman,serif" font-size="14.00" fill="lightgray">wff ph</text>
</g>
<!-- n6024 -->
<g id="node8" class="node"><title>n6024</title>
</g>
<!-- n6023&#45;&gt;n6024 -->
<g id="edge8" class="edge"><title>n6023&#45;&gt;n6024</title>
</g>
<!-- n6025&#45;&gt;n6034 -->
<g id="edge7" class="edge"><title>n6025&#45;&gt;n6034</title>
<path fill="none" stroke="black" d="M247.893,-327.777C296.338,-335.44 390.892,-352.085 468.689,-376 473.102,-377.357 477.677,-378.97 482.157,-380.674"/>
<polygon fill="black" stroke="black" points="481.127,-384.031 491.712,-384.487 483.722,-377.53 481.127,-384.031"/>
<text text-anchor="middle" x="367.689" y="-379.8" font-family="Times New Roman,serif" font-size="14.00">|&#45; ( ( ph &lt;&#45;&gt; ch ) &lt;&#45;&gt; ( ch &lt;&#45;&gt; ph ) )</text>
</g>
<!-- n6030 -->
<g id="node10" class="node"><title>n6030</title>
<ellipse fill="cyan" stroke="black" cx="214.892" cy="-251" rx="30.5947" ry="18"/>
<text text-anchor="middle" x="214.892" y="-247.3" font-family="Times New Roman,serif" font-size="14.00">bibi2i</text>
</g>
<!-- n6025&#45;&gt;n6030 -->
<g id="edge26" class="edge"><title>n6025&#45;&gt;n6030</title>
</g>
<!-- n6024&#45;&gt;n6025 -->
<g id="edge6" class="edge"><title>n6024&#45;&gt;n6025</title>
<path fill="none" stroke="lightgray" d="M55.1976,-406.549C82.1991,-397.577 127.261,-381.168 163.095,-361 171.553,-356.24 180.207,-350.254 187.92,-344.45"/>
<polygon fill="lightgray" stroke="lightgray" points="190.107,-347.183 195.867,-338.291 185.819,-341.651 190.107,-347.183"/>
<text text-anchor="middle" x="121.095" y="-400.8" font-family="Times New Roman,serif" font-size="14.00" fill="lightgray">wff ch</text>
</g>
<!-- n6026 -->
<g id="node9" class="node"><title>n6026</title>
</g>
<!-- n6026&#45;&gt;n6030 -->
<g id="edge9" class="edge"><title>n6026&#45;&gt;n6030</title>
<path fill="none" stroke="lightgray" d="M54.5441,-351.653C81.7241,-341.24 127.723,-321.863 163.095,-298 173.313,-291.106 183.499,-282.189 192.038,-273.978"/>
<polygon fill="lightgray" stroke="lightgray" points="194.73,-276.238 199.371,-266.714 189.804,-271.265 194.73,-276.238"/>
<text text-anchor="middle" x="121.095" y="-344.8" font-family="Times New Roman,serif" font-size="14.00" fill="lightgray">wff ph</text>
</g>
<!-- n6027 -->
<g id="node11" class="node"><title>n6027</title>
</g>
<!-- n6026&#45;&gt;n6027 -->
<g id="edge14" class="edge"><title>n6026&#45;&gt;n6027</title>
</g>
<!-- n6030&#45;&gt;n6034 -->
<g id="edge13" class="edge"><title>n6030&#45;&gt;n6034</title>
<path fill="none" stroke="black" d="M245.619,-250.758C296.446,-251.828 401.098,-260.659 468.689,-312 486.976,-325.891 499.051,-349.22 506.261,-367.614"/>
<polygon fill="black" stroke="black" points="503.057,-369.042 509.775,-377.234 509.632,-366.64 503.057,-369.042"/>
<text text-anchor="middle" x="367.689" y="-315.8" font-family="Times New Roman,serif" font-size="14.00">|&#45; ( ( ch &lt;&#45;&gt; ph ) &lt;&#45;&gt; ( ch &lt;&#45;&gt; ps ) )</text>
</g>
<!-- n6033 -->
<g id="node15" class="node"><title>n6033</title>
<ellipse fill="cyan" stroke="black" cx="214.892" cy="-131" rx="33.5952" ry="18"/>
<text text-anchor="middle" x="214.892" y="-127.3" font-family="Times New Roman,serif" font-size="14.00">bicom</text>
</g>
<!-- n6030&#45;&gt;n6033 -->
<g id="edge27" class="edge"><title>n6030&#45;&gt;n6033</title>
</g>
<!-- n6027&#45;&gt;n6030 -->
<g id="edge10" class="edge"><title>n6027&#45;&gt;n6030</title>
<path fill="none" stroke="lightgray" d="M56.5192,-282.933C87.2353,-276.7 139.702,-266.054 175.542,-258.782"/>
<polygon fill="lightgray" stroke="lightgray" points="176.529,-262.153 185.633,-256.734 175.137,-255.293 176.529,-262.153"/>
<text text-anchor="middle" x="121.095" y="-282.8" font-family="Times New Roman,serif" font-size="14.00" fill="lightgray">wff ps</text>
</g>
<!-- n6028 -->
<g id="node12" class="node"><title>n6028</title>
</g>
<!-- n6027&#45;&gt;n6028 -->
<g id="edge15" class="edge"><title>n6027&#45;&gt;n6028</title>
</g>
<!-- n6028&#45;&gt;n6030 -->
<g id="edge11" class="edge"><title>n6028&#45;&gt;n6030</title>
<path fill="none" stroke="lightgray" d="M56.9015,-220.867C87.6292,-226.765 139.715,-236.762 175.403,-243.612"/>
<polygon fill="lightgray" stroke="lightgray" points="174.976,-247.094 185.457,-245.542 176.296,-240.22 174.976,-247.094"/>
<text text-anchor="middle" x="121.095" y="-244.8" font-family="Times New Roman,serif" font-size="14.00" fill="lightgray">wff ch</text>
</g>
<!-- n6029 -->
<g id="node13" class="node"><title>n6029</title>
<ellipse fill="orange" stroke="black" cx="30.5473" cy="-144" rx="30.5947" ry="18"/>
<text text-anchor="middle" x="30.5473" y="-140.3" font-family="Times New Roman,serif" font-size="14.00">bibi.a</text>
</g>
<!-- n6028&#45;&gt;n6029 -->
<g id="edge16" class="edge"><title>n6028&#45;&gt;n6029</title>
</g>
<!-- n6029&#45;&gt;n6030 -->
<g id="edge12" class="edge"><title>n6029&#45;&gt;n6030</title>
<path fill="none" stroke="black" d="M56.8475,-153.74C84.1442,-164.781 128.363,-184.234 163.095,-207 172.708,-213.301 182.444,-221.269 190.786,-228.687"/>
<polygon fill="black" stroke="black" points="188.564,-231.397 198.307,-235.559 193.285,-226.229 188.564,-231.397"/>
<text text-anchor="middle" x="121.095" y="-210.8" font-family="Times New Roman,serif" font-size="14.00">|&#45; ( ph &lt;&#45;&gt; ps )</text>
</g>
<!-- n6031 -->
<g id="node14" class="node"><title>n6031</title>
</g>
<!-- n6031&#45;&gt;n6033 -->
<g id="edge17" class="edge"><title>n6031&#45;&gt;n6033</title>
<path fill="none" stroke="lightgray" d="M56.5192,-95.6149C86.6139,-102.382 137.588,-113.843 173.347,-121.884"/>
<polygon fill="lightgray" stroke="lightgray" points="172.933,-125.378 183.457,-124.157 174.468,-118.548 172.933,-125.378"/>
<text text-anchor="middle" x="121.095" y="-122.8" font-family="Times New Roman,serif" font-size="14.00" fill="lightgray">wff ch</text>
</g>
<!-- n6032 -->
<g id="node16" class="node"><title>n6032</title>
</g>
<!-- n6031&#45;&gt;n6032 -->
<g id="edge20" class="edge"><title>n6031&#45;&gt;n6032</title>
</g>
<!-- n6033&#45;&gt;n6034 -->
<g id="edge19" class="edge"><title>n6033&#45;&gt;n6034</title>
<path fill="none" stroke="black" d="M248.186,-134.897C301.89,-143.11 409.494,-167.211 468.689,-233 502.552,-270.636 511.765,-331.439 514.181,-366.875"/>
<polygon fill="black" stroke="black" points="510.694,-367.209 514.732,-377.004 517.684,-366.828 510.694,-367.209"/>
<text text-anchor="middle" x="367.689" y="-236.8" font-family="Times New Roman,serif" font-size="14.00">|&#45; ( ( ch &lt;&#45;&gt; ps ) &lt;&#45;&gt; ( ps &lt;&#45;&gt; ch ) )</text>
</g>
<!-- n6032&#45;&gt;n6033 -->
<g id="edge18" class="edge"><title>n6032&#45;&gt;n6033</title>
<path fill="none" stroke="lightgray" d="M54.6109,-26.6302C81.8552,-37.3935 127.916,-57.408 163.095,-82 173.503,-89.2761 183.809,-98.6919 192.39,-107.322"/>
<polygon fill="lightgray" stroke="lightgray" points="189.983,-109.868 199.446,-114.631 195.019,-105.006 189.983,-109.868"/>
<text text-anchor="middle" x="121.095" y="-85.8" font-family="Times New Roman,serif" font-size="14.00" fill="lightgray">wff ps</text>
</g>
</g>
</svg>
