<?xml version="1.0" encoding="UTF-8" standalone="no"?>
<!DOCTYPE svg PUBLIC "-//W3C//DTD SVG 1.1//EN"
 "http://www.w3.org/Graphics/SVG/1.1/DTD/svg11.dtd">
<!-- Generated by graphviz version 2.38.0 (20140413.2041)
 -->
<!-- Title: proof_biimpcd Pages: 1 -->
<svg width="717pt" height="404pt"
 viewBox="0.00 0.00 716.58 404.00" xmlns="http://www.w3.org/2000/svg" xmlns:xlink="http://www.w3.org/1999/xlink">
<g id="graph0" class="graph" transform="scale(1 1) rotate(0) translate(4 400)">
<title>proof_biimpcd</title>
<polygon fill="white" stroke="none" points="-4,4 -4,-400 712.578,-400 712.578,4 -4,4"/>
<!-- n4792 -->
<g id="node1" class="node"><title>n4792</title>
</g>
<!-- n4799 -->
<g id="node2" class="node"><title>n4799</title>
<ellipse fill="cyan" stroke="black" cx="439.987" cy="-197" rx="48.1917" ry="18"/>
<text text-anchor="middle" x="439.987" y="-193.3" font-family="Times New Roman,serif" font-size="14.00">syl5ibcom</text>
</g>
<!-- n4792&#45;&gt;n4799 -->
<g id="edge1" class="edge"><title>n4792&#45;&gt;n4799</title>
<path fill="none" stroke="lightgray" d="M201.087,-374.878C241.811,-368.753 321.966,-351.81 373.892,-309 401.007,-286.645 419.273,-249.853 429.391,-224.576"/>
<polygon fill="lightgray" stroke="lightgray" points="432.682,-225.77 432.991,-215.18 426.145,-223.266 432.682,-225.77"/>
<text text-anchor="middle" x="306.892" y="-369.8" font-family="Times New Roman,serif" font-size="14.00" fill="lightgray">wff ps</text>
</g>
<!-- n4793 -->
<g id="node3" class="node"><title>n4793</title>
</g>
<!-- n4792&#45;&gt;n4793 -->
<g id="edge9" class="edge"><title>n4792&#45;&gt;n4793</title>
</g>
<!-- QED -->
<g id="node9" class="node"><title>QED</title>
</g>
<!-- n4799&#45;&gt;QED -->
<g id="edge8" class="edge"><title>n4799&#45;&gt;QED</title>
<path fill="none" stroke="black" d="M488.162,-197C532.56,-197 598.243,-197 639.639,-197"/>
<polygon fill="black" stroke="black" points="639.867,-200.5 649.867,-197 639.867,-193.5 639.867,-200.5"/>
<text text-anchor="middle" x="569.083" y="-200.8" font-family="Times New Roman,serif" font-size="14.00">|&#45; ( ps &#45;&gt; ( ph &#45;&gt; ch ) )</text>
</g>
<!-- n4793&#45;&gt;n4799 -->
<g id="edge2" class="edge"><title>n4793&#45;&gt;n4799</title>
<path fill="none" stroke="lightgray" d="M200.56,-300.894C239.214,-292.44 314.986,-273.485 373.892,-244 387.102,-237.387 400.532,-228.194 411.735,-219.691"/>
<polygon fill="lightgray" stroke="lightgray" points="414.096,-222.288 419.827,-213.377 409.79,-216.769 414.096,-222.288"/>
<text text-anchor="middle" x="306.892" y="-293.8" font-family="Times New Roman,serif" font-size="14.00" fill="lightgray">wff ps</text>
</g>
<!-- n4794 -->
<g id="node4" class="node"><title>n4794</title>
</g>
<!-- n4793&#45;&gt;n4794 -->
<g id="edge10" class="edge"><title>n4793&#45;&gt;n4794</title>
</g>
<!-- n4794&#45;&gt;n4799 -->
<g id="edge3" class="edge"><title>n4794&#45;&gt;n4799</title>
<path fill="none" stroke="lightgray" d="M201.195,-230.385C243.505,-224.445 328.624,-212.494 384.703,-204.621"/>
<polygon fill="lightgray" stroke="lightgray" points="385.403,-208.057 394.82,-203.201 384.43,-201.125 385.403,-208.057"/>
<text text-anchor="middle" x="306.892" y="-228.8" font-family="Times New Roman,serif" font-size="14.00" fill="lightgray">wff ph</text>
</g>
<!-- n4795 -->
<g id="node5" class="node"><title>n4795</title>
</g>
<!-- n4794&#45;&gt;n4795 -->
<g id="edge11" class="edge"><title>n4794&#45;&gt;n4795</title>
</g>
<!-- n4795&#45;&gt;n4799 -->
<g id="edge4" class="edge"><title>n4795&#45;&gt;n4799</title>
<path fill="none" stroke="lightgray" d="M201.142,-165.307C238.979,-170.191 311.907,-179.655 373.892,-188 377.331,-188.463 380.873,-188.943 384.443,-189.43"/>
<polygon fill="lightgray" stroke="lightgray" points="384.14,-192.921 394.522,-190.809 385.089,-185.986 384.14,-192.921"/>
<text text-anchor="middle" x="306.892" y="-191.8" font-family="Times New Roman,serif" font-size="14.00" fill="lightgray">wff ch</text>
</g>
<!-- n4797 -->
<g id="node7" class="node"><title>n4797</title>
<ellipse fill="cyan" stroke="black" cx="174.446" cy="-90" rx="27" ry="18"/>
<text text-anchor="middle" x="174.446" y="-86.3" font-family="Times New Roman,serif" font-size="14.00">id</text>
</g>
<!-- n4795&#45;&gt;n4797 -->
<g id="edge12" class="edge"><title>n4795&#45;&gt;n4797</title>
</g>
<!-- n4796 -->
<g id="node6" class="node"><title>n4796</title>
</g>
<!-- n4796&#45;&gt;n4797 -->
<g id="edge5" class="edge"><title>n4796&#45;&gt;n4797</title>
<path fill="none" stroke="lightgray" d="M54.0028,-90C77.1273,-90 111.181,-90 137.017,-90"/>
<polygon fill="lightgray" stroke="lightgray" points="137.178,-93.5001 147.178,-90 137.178,-86.5001 137.178,-93.5001"/>
<text text-anchor="middle" x="90.5" y="-93.8" font-family="Times New Roman,serif" font-size="14.00" fill="lightgray">wff ps</text>
</g>
<!-- n4797&#45;&gt;n4799 -->
<g id="edge6" class="edge"><title>n4797&#45;&gt;n4799</title>
<path fill="none" stroke="black" d="M200.486,-95.2558C239.042,-103.907 314.687,-123.12 373.892,-152 386.558,-158.179 399.525,-166.631 410.519,-174.543"/>
<polygon fill="black" stroke="black" points="408.747,-177.586 418.868,-180.718 412.91,-171.958 408.747,-177.586"/>
<text text-anchor="middle" x="306.892" y="-155.8" font-family="Times New Roman,serif" font-size="14.00">|&#45; ( ps &#45;&gt; ps )</text>
</g>
<!-- n4798 -->
<g id="node8" class="node"><title>n4798</title>
<ellipse fill="orange" stroke="black" cx="174.446" cy="-18" rx="47.3916" ry="18"/>
<text text-anchor="middle" x="174.446" y="-14.3" font-family="Times New Roman,serif" font-size="14.00">biimpcd.1</text>
</g>
<!-- n4797&#45;&gt;n4798 -->
<g id="edge13" class="edge"><title>n4797&#45;&gt;n4798</title>
</g>
<!-- n4798&#45;&gt;n4799 -->
<g id="edge7" class="edge"><title>n4798&#45;&gt;n4799</title>
<path fill="none" stroke="black" d="M219.177,-24.2448C262.492,-32.3362 328.716,-50.0525 373.892,-87 400.614,-108.855 418.897,-144.769 429.13,-169.584"/>
<polygon fill="black" stroke="black" points="425.976,-171.126 432.902,-179.143 432.487,-168.557 425.976,-171.126"/>
<text text-anchor="middle" x="306.892" y="-90.8" font-family="Times New Roman,serif" font-size="14.00">|&#45; ( ph &#45;&gt; ( ps &lt;&#45;&gt; ch ) )</text>
</g>
</g>
</svg>
