<?xml version="1.0" encoding="UTF-8" standalone="no"?>
<!DOCTYPE svg PUBLIC "-//W3C//DTD SVG 1.1//EN"
 "http://www.w3.org/Graphics/SVG/1.1/DTD/svg11.dtd">
<!-- Generated by graphviz version 2.38.0 (20140413.2041)
 -->
<!-- Title: proof_biimpac Pages: 1 -->
<svg width="775pt" height="367pt"
 viewBox="0.00 0.00 774.58 367.00" xmlns="http://www.w3.org/2000/svg" xmlns:xlink="http://www.w3.org/1999/xlink">
<g id="graph0" class="graph" transform="scale(1 1) rotate(0) translate(4 363)">
<title>proof_biimpac</title>
<polygon fill="white" stroke="none" points="-4,4 -4,-363 770.58,-363 770.58,4 -4,4"/>
<!-- n8404 -->
<g id="node1" class="node"><title>n8404</title>
</g>
<!-- n8412 -->
<g id="node2" class="node"><title>n8412</title>
<ellipse fill="cyan" stroke="black" cx="524.085" cy="-232" rx="27" ry="18"/>
<text text-anchor="middle" x="524.085" y="-228.3" font-family="Times New Roman,serif" font-size="14.00">imp</text>
</g>
<!-- n8404&#45;&gt;n8412 -->
<g id="edge1" class="edge"><title>n8404&#45;&gt;n8412</title>
<path fill="none" stroke="lightgray" d="M321.173,-336.272C358.176,-328.533 428.071,-310.651 479.085,-278 488.44,-272.013 497.231,-263.637 504.459,-255.671"/>
<polygon fill="lightgray" stroke="lightgray" points="507.244,-257.801 511.129,-247.945 501.945,-253.227 507.244,-257.801"/>
<text text-anchor="middle" x="416.085" y="-331.8" font-family="Times New Roman,serif" font-size="14.00" fill="lightgray">wff ps</text>
</g>
<!-- n8405 -->
<g id="node3" class="node"><title>n8405</title>
</g>
<!-- n8404&#45;&gt;n8405 -->
<g id="edge13" class="edge"><title>n8404&#45;&gt;n8405</title>
</g>
<!-- QED -->
<g id="node10" class="node"><title>QED</title>
</g>
<!-- n8412&#45;&gt;QED -->
<g id="edge12" class="edge"><title>n8412&#45;&gt;QED</title>
<path fill="none" stroke="black" d="M551.413,-232C588.221,-232 655.306,-232 697.758,-232"/>
<polygon fill="black" stroke="black" points="697.986,-235.5 707.986,-232 697.986,-228.5 697.986,-235.5"/>
<text text-anchor="middle" x="629.585" y="-235.8" font-family="Times New Roman,serif" font-size="14.00">|&#45; ( ( ps /\ ph ) &#45;&gt; ch )</text>
</g>
<!-- n8405&#45;&gt;n8412 -->
<g id="edge2" class="edge"><title>n8405&#45;&gt;n8412</title>
<path fill="none" stroke="lightgray" d="M321.421,-264.828C362.028,-258.217 441.263,-245.319 487.402,-237.809"/>
<polygon fill="lightgray" stroke="lightgray" points="488.239,-241.218 497.547,-236.157 487.115,-234.309 488.239,-241.218"/>
<text text-anchor="middle" x="416.085" y="-262.8" font-family="Times New Roman,serif" font-size="14.00" fill="lightgray">wff ph</text>
</g>
<!-- n8406 -->
<g id="node4" class="node"><title>n8406</title>
</g>
<!-- n8405&#45;&gt;n8406 -->
<g id="edge14" class="edge"><title>n8405&#45;&gt;n8406</title>
</g>
<!-- n8406&#45;&gt;n8412 -->
<g id="edge3" class="edge"><title>n8406&#45;&gt;n8412</title>
<path fill="none" stroke="lightgray" d="M321.669,-200.167C357.238,-204.634 423.187,-213.328 479.085,-223 481.966,-223.499 484.948,-224.044 487.938,-224.612"/>
<polygon fill="lightgray" stroke="lightgray" points="487.518,-228.097 498.006,-226.595 488.871,-221.229 487.518,-228.097"/>
<text text-anchor="middle" x="416.085" y="-226.8" font-family="Times New Roman,serif" font-size="14.00" fill="lightgray">wff ch</text>
</g>
<!-- n8411 -->
<g id="node6" class="node"><title>n8411</title>
<ellipse fill="cyan" stroke="black" cx="294.789" cy="-125" rx="40.0939" ry="18"/>
<text text-anchor="middle" x="294.789" y="-121.3" font-family="Times New Roman,serif" font-size="14.00">biimpcd</text>
</g>
<!-- n8406&#45;&gt;n8411 -->
<g id="edge15" class="edge"><title>n8406&#45;&gt;n8411</title>
</g>
<!-- n8407 -->
<g id="node5" class="node"><title>n8407</title>
</g>
<!-- n8407&#45;&gt;n8411 -->
<g id="edge4" class="edge"><title>n8407&#45;&gt;n8411</title>
<path fill="none" stroke="lightgray" d="M68.5934,-229.309C106.768,-221.531 180.503,-203.7 236.493,-173 248.404,-166.469 260.155,-157.252 269.885,-148.639"/>
<polygon fill="lightgray" stroke="lightgray" points="272.537,-150.956 277.542,-141.618 267.806,-145.797 272.537,-150.956"/>
<text text-anchor="middle" x="169.493" y="-223.8" font-family="Times New Roman,serif" font-size="14.00" fill="lightgray">wff ph</text>
</g>
<!-- n8408 -->
<g id="node7" class="node"><title>n8408</title>
</g>
<!-- n8407&#45;&gt;n8408 -->
<g id="edge9" class="edge"><title>n8407&#45;&gt;n8408</title>
</g>
<!-- n8411&#45;&gt;n8412 -->
<g id="edge8" class="edge"><title>n8411&#45;&gt;n8412</title>
<path fill="none" stroke="black" d="M332.561,-131.389C371.333,-139.365 433.058,-155.67 479.085,-185 488.559,-191.037 497.375,-199.577 504.59,-207.725"/>
<polygon fill="black" stroke="black" points="502.124,-210.231 511.237,-215.635 507.483,-205.728 502.124,-210.231"/>
<text text-anchor="middle" x="416.085" y="-188.8" font-family="Times New Roman,serif" font-size="14.00">|&#45; ( ps &#45;&gt; ( ph &#45;&gt; ch ) )</text>
</g>
<!-- n8408&#45;&gt;n8411 -->
<g id="edge5" class="edge"><title>n8408&#45;&gt;n8411</title>
<path fill="none" stroke="lightgray" d="M69.1151,-158.18C110.842,-152.017 193.637,-139.79 246.228,-132.024"/>
<polygon fill="lightgray" stroke="lightgray" points="246.941,-135.457 256.322,-130.533 245.918,-128.532 246.941,-135.457"/>
<text text-anchor="middle" x="169.493" y="-157.8" font-family="Times New Roman,serif" font-size="14.00" fill="lightgray">wff ps</text>
</g>
<!-- n8409 -->
<g id="node8" class="node"><title>n8409</title>
</g>
<!-- n8408&#45;&gt;n8409 -->
<g id="edge10" class="edge"><title>n8408&#45;&gt;n8409</title>
</g>
<!-- n8409&#45;&gt;n8411 -->
<g id="edge6" class="edge"><title>n8409&#45;&gt;n8411</title>
<path fill="none" stroke="lightgray" d="M68.9039,-93.269C105.943,-98.0296 176.531,-107.258 236.493,-116 239.731,-116.472 243.07,-116.969 246.433,-117.478"/>
<polygon fill="lightgray" stroke="lightgray" points="246.099,-120.967 256.514,-119.023 247.159,-114.048 246.099,-120.967"/>
<text text-anchor="middle" x="169.493" y="-119.8" font-family="Times New Roman,serif" font-size="14.00" fill="lightgray">wff ch</text>
</g>
<!-- n8410 -->
<g id="node9" class="node"><title>n8410</title>
<ellipse fill="orange" stroke="black" cx="42.2463" cy="-18" rx="42.4939" ry="18"/>
<text text-anchor="middle" x="42.2463" y="-14.3" font-family="Times New Roman,serif" font-size="14.00">biimpa.1</text>
</g>
<!-- n8409&#45;&gt;n8410 -->
<g id="edge11" class="edge"><title>n8409&#45;&gt;n8410</title>
</g>
<!-- n8410&#45;&gt;n8411 -->
<g id="edge7" class="edge"><title>n8410&#45;&gt;n8411</title>
<path fill="none" stroke="black" d="M80.8364,-25.5116C121.012,-34.5139 185.769,-51.8722 236.493,-79 248.093,-85.2041 259.645,-93.8743 269.305,-102.017"/>
<polygon fill="black" stroke="black" points="267.096,-104.735 276.934,-108.667 271.696,-99.458 267.096,-104.735"/>
<text text-anchor="middle" x="169.493" y="-82.8" font-family="Times New Roman,serif" font-size="14.00">|&#45; ( ph &#45;&gt; ( ps &lt;&#45;&gt; ch ) )</text>
</g>
</g>
</svg>
