<?xml version="1.0" encoding="UTF-8" standalone="no"?>
<!DOCTYPE svg PUBLIC "-//W3C//DTD SVG 1.1//EN"
 "http://www.w3.org/Graphics/SVG/1.1/DTD/svg11.dtd">
<!-- Generated by graphviz version 2.38.0 (20140413.2041)
 -->
<!-- Title: proof_bitrd Pages: 1 -->
<svg width="1132pt" height="637pt"
 viewBox="0.00 0.00 1131.77 637.00" xmlns="http://www.w3.org/2000/svg" xmlns:xlink="http://www.w3.org/1999/xlink">
<g id="graph0" class="graph" transform="scale(1 1) rotate(0) translate(4 633)">
<title>proof_bitrd</title>
<polygon fill="white" stroke="none" points="-4,4 -4,-633 1127.77,-633 1127.77,4 -4,4"/>
<!-- n5202 -->
<g id="node1" class="node"><title>n5202</title>
</g>
<!-- n5225 -->
<g id="node2" class="node"><title>n5225</title>
<ellipse fill="cyan" stroke="black" cx="855.383" cy="-502" rx="42.7926" ry="18"/>
<text text-anchor="middle" x="855.383" y="-498.3" font-family="Times New Roman,serif" font-size="14.00">pm5.74ri</text>
</g>
<!-- n5202&#45;&gt;n5225 -->
<g id="edge1" class="edge"><title>n5202&#45;&gt;n5225</title>
<path fill="none" stroke="lightgray" d="M594.16,-607.804C637.46,-601.642 726.894,-585.555 794.487,-551 807.451,-544.372 820.173,-534.575 830.535,-525.479"/>
<polygon fill="lightgray" stroke="lightgray" points="832.919,-528.041 837.963,-518.724 828.21,-522.862 832.919,-528.041"/>
<text text-anchor="middle" x="703.487" y="-607.8" font-family="Times New Roman,serif" font-size="14.00" fill="lightgray">wff ph</text>
</g>
<!-- n5203 -->
<g id="node3" class="node"><title>n5203</title>
</g>
<!-- n5202&#45;&gt;n5203 -->
<g id="edge29" class="edge"><title>n5202&#45;&gt;n5203</title>
</g>
<!-- QED -->
<g id="node19" class="node"><title>QED</title>
</g>
<!-- n5225&#45;&gt;QED -->
<g id="edge28" class="edge"><title>n5225&#45;&gt;QED</title>
<path fill="none" stroke="black" d="M898.506,-502C942.894,-502 1012.2,-502 1055.13,-502"/>
<polygon fill="black" stroke="black" points="1055.18,-505.5 1065.18,-502 1055.18,-498.5 1055.18,-505.5"/>
<text text-anchor="middle" x="981.779" y="-505.8" font-family="Times New Roman,serif" font-size="14.00">|&#45; ( ph &#45;&gt; ( ps &lt;&#45;&gt; th ) )</text>
</g>
<!-- n5203&#45;&gt;n5225 -->
<g id="edge2" class="edge"><title>n5203&#45;&gt;n5225</title>
<path fill="none" stroke="lightgray" d="M594.11,-535.684C641.27,-529.581 742.597,-516.467 803.984,-508.523"/>
<polygon fill="lightgray" stroke="lightgray" points="804.75,-511.953 814.219,-507.198 803.852,-505.01 804.75,-511.953"/>
<text text-anchor="middle" x="703.487" y="-535.8" font-family="Times New Roman,serif" font-size="14.00" fill="lightgray">wff ps</text>
</g>
<!-- n5204 -->
<g id="node4" class="node"><title>n5204</title>
</g>
<!-- n5203&#45;&gt;n5204 -->
<g id="edge30" class="edge"><title>n5203&#45;&gt;n5204</title>
</g>
<!-- n5204&#45;&gt;n5225 -->
<g id="edge3" class="edge"><title>n5204&#45;&gt;n5225</title>
<path fill="none" stroke="lightgray" d="M594.281,-469.674C636.285,-474.094 722.055,-483.395 794.487,-493 797.873,-493.449 801.364,-493.929 804.879,-494.425"/>
<polygon fill="lightgray" stroke="lightgray" points="804.385,-497.89 814.782,-495.852 805.383,-490.961 804.385,-497.89"/>
<text text-anchor="middle" x="703.487" y="-496.8" font-family="Times New Roman,serif" font-size="14.00" fill="lightgray">wff th</text>
</g>
<!-- n5224 -->
<g id="node6" class="node"><title>n5224</title>
<ellipse fill="cyan" stroke="black" cx="567.487" cy="-395" rx="27" ry="18"/>
<text text-anchor="middle" x="567.487" y="-391.3" font-family="Times New Roman,serif" font-size="14.00">bitri</text>
</g>
<!-- n5204&#45;&gt;n5224 -->
<g id="edge31" class="edge"><title>n5204&#45;&gt;n5224</title>
</g>
<!-- n5207 -->
<g id="node5" class="node"><title>n5207</title>
</g>
<!-- n5207&#45;&gt;n5224 -->
<g id="edge4" class="edge"><title>n5207&#45;&gt;n5224</title>
<path fill="none" stroke="lightgray" d="M306.265,-538.994C354.311,-537.651 457.807,-528.386 522.487,-476 536.388,-464.741 532.008,-455.752 540.487,-440 543.935,-433.594 547.79,-426.76 551.453,-420.402"/>
<polygon fill="lightgray" stroke="lightgray" points="554.609,-421.938 556.615,-411.534 548.559,-418.417 554.609,-421.938"/>
<text text-anchor="middle" x="429.987" y="-539.8" font-family="Times New Roman,serif" font-size="14.00" fill="lightgray">wff ( ph &#45;&gt; ps )</text>
</g>
<!-- n5210 -->
<g id="node7" class="node"><title>n5210</title>
</g>
<!-- n5207&#45;&gt;n5210 -->
<g id="edge24" class="edge"><title>n5207&#45;&gt;n5210</title>
</g>
<!-- n5224&#45;&gt;n5225 -->
<g id="edge23" class="edge"><title>n5224&#45;&gt;n5225</title>
<path fill="none" stroke="black" d="M594.198,-397.702C637.554,-403.064 727.068,-417.641 794.487,-452 807.759,-458.764 820.681,-468.943 831.104,-478.355"/>
<polygon fill="black" stroke="black" points="828.862,-481.051 838.553,-485.334 833.648,-475.942 828.862,-481.051"/>
<text text-anchor="middle" x="703.487" y="-455.8" font-family="Times New Roman,serif" font-size="14.00">|&#45; ( ( ph &#45;&gt; ps ) &lt;&#45;&gt; ( ph &#45;&gt; th ) )</text>
</g>
<!-- n5210&#45;&gt;n5224 -->
<g id="edge5" class="edge"><title>n5210&#45;&gt;n5224</title>
<path fill="none" stroke="lightgray" d="M305.728,-463.077C350.375,-455.854 445.225,-438.876 522.487,-414 526.791,-412.614 531.25,-410.961 535.605,-409.215"/>
<polygon fill="lightgray" stroke="lightgray" points="537.012,-412.421 544.871,-405.316 534.297,-405.969 537.012,-412.421"/>
<text text-anchor="middle" x="429.987" y="-460.8" font-family="Times New Roman,serif" font-size="14.00" fill="lightgray">wff ( ph &#45;&gt; ch )</text>
</g>
<!-- n5213 -->
<g id="node8" class="node"><title>n5213</title>
</g>
<!-- n5210&#45;&gt;n5213 -->
<g id="edge25" class="edge"><title>n5210&#45;&gt;n5213</title>
</g>
<!-- n5213&#45;&gt;n5224 -->
<g id="edge6" class="edge"><title>n5213&#45;&gt;n5224</title>
<path fill="none" stroke="lightgray" d="M306.356,-395C357.686,-395 471.671,-395 530.225,-395"/>
<polygon fill="lightgray" stroke="lightgray" points="530.485,-398.5 540.485,-395 530.485,-391.5 530.485,-398.5"/>
<text text-anchor="middle" x="429.987" y="-398.8" font-family="Times New Roman,serif" font-size="14.00" fill="lightgray">wff ( ph &#45;&gt; th )</text>
</g>
<!-- n5218 -->
<g id="node10" class="node"><title>n5218</title>
<ellipse fill="cyan" stroke="black" cx="279.19" cy="-323" rx="40.0939" ry="18"/>
<text text-anchor="middle" x="279.19" y="-319.3" font-family="Times New Roman,serif" font-size="14.00">pm5.74i</text>
</g>
<!-- n5213&#45;&gt;n5218 -->
<g id="edge26" class="edge"><title>n5213&#45;&gt;n5218</title>
</g>
<!-- n5214 -->
<g id="node9" class="node"><title>n5214</title>
</g>
<!-- n5214&#45;&gt;n5218 -->
<g id="edge7" class="edge"><title>n5214&#45;&gt;n5218</title>
<path fill="none" stroke="lightgray" d="M61.4755,-502.427C101.677,-498.559 178.636,-485.189 220.894,-439 242.868,-414.982 223.773,-396.829 238.894,-368 242.823,-360.508 248.238,-353.223 253.792,-346.772"/>
<polygon fill="lightgray" stroke="lightgray" points="256.643,-348.84 260.801,-339.095 251.474,-344.12 256.643,-348.84"/>
<text text-anchor="middle" x="153.894" y="-502.8" font-family="Times New Roman,serif" font-size="14.00" fill="lightgray">wff ph</text>
</g>
<!-- n5215 -->
<g id="node11" class="node"><title>n5215</title>
</g>
<!-- n5214&#45;&gt;n5215 -->
<g id="edge12" class="edge"><title>n5214&#45;&gt;n5215</title>
</g>
<!-- n5218&#45;&gt;n5224 -->
<g id="edge11" class="edge"><title>n5218&#45;&gt;n5224</title>
<path fill="none" stroke="black" d="M317.722,-328.901C365.855,-336.992 451.578,-353.169 522.487,-376 526.791,-377.386 531.25,-379.039 535.605,-380.785"/>
<polygon fill="black" stroke="black" points="534.297,-384.031 544.871,-384.684 537.012,-377.579 534.297,-384.031"/>
<text text-anchor="middle" x="429.987" y="-379.8" font-family="Times New Roman,serif" font-size="14.00">|&#45; ( ( ph &#45;&gt; ps ) &lt;&#45;&gt; ( ph &#45;&gt; ch ) )</text>
</g>
<!-- n5223 -->
<g id="node15" class="node"><title>n5223</title>
<ellipse fill="cyan" stroke="black" cx="279.19" cy="-202" rx="40.0939" ry="18"/>
<text text-anchor="middle" x="279.19" y="-198.3" font-family="Times New Roman,serif" font-size="14.00">pm5.74i</text>
</g>
<!-- n5218&#45;&gt;n5223 -->
<g id="edge27" class="edge"><title>n5218&#45;&gt;n5223</title>
</g>
<!-- n5215&#45;&gt;n5218 -->
<g id="edge8" class="edge"><title>n5215&#45;&gt;n5218</title>
<path fill="none" stroke="lightgray" d="M60.372,-426.971C97.1663,-418.864 167.43,-400.735 220.894,-371 232.766,-364.397 244.51,-355.168 254.245,-346.564"/>
<polygon fill="lightgray" stroke="lightgray" points="256.891,-348.887 261.909,-339.555 252.167,-343.721 256.891,-348.887"/>
<text text-anchor="middle" x="153.894" y="-423.8" font-family="Times New Roman,serif" font-size="14.00" fill="lightgray">wff ps</text>
</g>
<!-- n5216 -->
<g id="node12" class="node"><title>n5216</title>
</g>
<!-- n5215&#45;&gt;n5216 -->
<g id="edge13" class="edge"><title>n5215&#45;&gt;n5216</title>
</g>
<!-- n5216&#45;&gt;n5218 -->
<g id="edge9" class="edge"><title>n5216&#45;&gt;n5218</title>
<path fill="none" stroke="lightgray" d="M60.9659,-356.11C101.166,-349.983 179.882,-337.985 230.702,-330.238"/>
<polygon fill="lightgray" stroke="lightgray" points="231.428,-333.668 240.786,-328.701 230.373,-326.748 231.428,-333.668"/>
<text text-anchor="middle" x="153.894" y="-355.8" font-family="Times New Roman,serif" font-size="14.00" fill="lightgray">wff ch</text>
</g>
<!-- n5217 -->
<g id="node13" class="node"><title>n5217</title>
<ellipse fill="orange" stroke="black" cx="34.4469" cy="-288" rx="34.394" ry="18"/>
<text text-anchor="middle" x="34.4469" y="-284.3" font-family="Times New Roman,serif" font-size="14.00">bitrd.1</text>
</g>
<!-- n5216&#45;&gt;n5217 -->
<g id="edge14" class="edge"><title>n5216&#45;&gt;n5217</title>
</g>
<!-- n5217&#45;&gt;n5218 -->
<g id="edge10" class="edge"><title>n5217&#45;&gt;n5218</title>
<path fill="none" stroke="black" d="M67.965,-292.394C105.011,-297.437 167.352,-306.042 220.894,-314 224.131,-314.481 227.469,-314.985 230.831,-315.498"/>
<polygon fill="black" stroke="black" points="230.494,-318.988 240.911,-317.053 231.561,-312.069 230.494,-318.988"/>
<text text-anchor="middle" x="153.894" y="-317.8" font-family="Times New Roman,serif" font-size="14.00">|&#45; ( ph &#45;&gt; ( ps &lt;&#45;&gt; ch ) )</text>
</g>
<!-- n5219 -->
<g id="node14" class="node"><title>n5219</title>
</g>
<!-- n5219&#45;&gt;n5223 -->
<g id="edge15" class="edge"><title>n5219&#45;&gt;n5223</title>
<path fill="none" stroke="lightgray" d="M61.4247,-230.575C101.588,-225.281 179.398,-215.023 230.044,-208.347"/>
<polygon fill="lightgray" stroke="lightgray" points="230.646,-211.798 240.103,-207.021 229.732,-204.858 230.646,-211.798"/>
<text text-anchor="middle" x="153.894" y="-231.8" font-family="Times New Roman,serif" font-size="14.00" fill="lightgray">wff ph</text>
</g>
<!-- n5220 -->
<g id="node16" class="node"><title>n5220</title>
</g>
<!-- n5219&#45;&gt;n5220 -->
<g id="edge20" class="edge"><title>n5219&#45;&gt;n5220</title>
</g>
<!-- n5223&#45;&gt;n5224 -->
<g id="edge19" class="edge"><title>n5223&#45;&gt;n5224</title>
<path fill="none" stroke="black" d="M315.097,-210.352C366.121,-224.097 461.604,-255.831 522.487,-313 538.535,-328.069 549.965,-350.327 557.146,-367.853"/>
<polygon fill="black" stroke="black" points="554.018,-369.467 560.886,-377.534 560.547,-366.945 554.018,-369.467"/>
<text text-anchor="middle" x="429.987" y="-316.8" font-family="Times New Roman,serif" font-size="14.00">|&#45; ( ( ph &#45;&gt; ch ) &lt;&#45;&gt; ( ph &#45;&gt; th ) )</text>
</g>
<!-- n5220&#45;&gt;n5223 -->
<g id="edge16" class="edge"><title>n5220&#45;&gt;n5223</title>
<path fill="none" stroke="lightgray" d="M60.9904,-165.709C96.7933,-170.973 163.91,-181.077 220.894,-191 224.552,-191.637 228.337,-192.317 232.138,-193.015"/>
<polygon fill="lightgray" stroke="lightgray" points="231.687,-196.491 242.159,-194.886 232.971,-189.61 231.687,-196.491"/>
<text text-anchor="middle" x="153.894" y="-194.8" font-family="Times New Roman,serif" font-size="14.00" fill="lightgray">wff ch</text>
</g>
<!-- n5221 -->
<g id="node17" class="node"><title>n5221</title>
</g>
<!-- n5220&#45;&gt;n5221 -->
<g id="edge21" class="edge"><title>n5220&#45;&gt;n5221</title>
</g>
<!-- n5221&#45;&gt;n5223 -->
<g id="edge17" class="edge"><title>n5221&#45;&gt;n5223</title>
<path fill="none" stroke="lightgray" d="M60.4899,-94.8205C97.4328,-102.665 167.882,-120.467 220.894,-151 233.584,-158.309 245.945,-168.75 255.917,-178.282"/>
<polygon fill="lightgray" stroke="lightgray" points="253.471,-180.786 263.043,-185.328 258.393,-175.809 253.471,-180.786"/>
<text text-anchor="middle" x="153.894" y="-154.8" font-family="Times New Roman,serif" font-size="14.00" fill="lightgray">wff th</text>
</g>
<!-- n5222 -->
<g id="node18" class="node"><title>n5222</title>
<ellipse fill="orange" stroke="black" cx="34.4469" cy="-18" rx="34.394" ry="18"/>
<text text-anchor="middle" x="34.4469" y="-14.3" font-family="Times New Roman,serif" font-size="14.00">bitrd.2</text>
</g>
<!-- n5221&#45;&gt;n5222 -->
<g id="edge22" class="edge"><title>n5221&#45;&gt;n5222</title>
</g>
<!-- n5222&#45;&gt;n5223 -->
<g id="edge18" class="edge"><title>n5222&#45;&gt;n5223</title>
<path fill="none" stroke="black" d="M68.4811,-21.6004C108.902,-27.5961 177.322,-43.0985 220.894,-82 248.381,-106.54 263.865,-147.127 271.629,-174.211"/>
<polygon fill="black" stroke="black" points="268.251,-175.126 274.235,-183.869 275.009,-173.302 268.251,-175.126"/>
<text text-anchor="middle" x="153.894" y="-85.8" font-family="Times New Roman,serif" font-size="14.00">|&#45; ( ph &#45;&gt; ( ch &lt;&#45;&gt; th ) )</text>
</g>
</g>
</svg>
