<?xml version="1.0" encoding="UTF-8" standalone="no"?>
<!DOCTYPE svg PUBLIC "-//W3C//DTD SVG 1.1//EN"
 "http://www.w3.org/Graphics/SVG/1.1/DTD/svg11.dtd">
<!-- Generated by graphviz version 2.38.0 (20140413.2041)
 -->
<!-- Title: proof_com14 Pages: 1 -->
<svg width="1046pt" height="511pt"
 viewBox="0.00 0.00 1046.38 511.00" xmlns="http://www.w3.org/2000/svg" xmlns:xlink="http://www.w3.org/1999/xlink">
<g id="graph0" class="graph" transform="scale(1 1) rotate(0) translate(4 507)">
<title>proof_com14</title>
<polygon fill="white" stroke="none" points="-4,4 -4,-507 1042.38,-507 1042.38,4 -4,4"/>
<!-- n928 -->
<g id="node1" class="node"><title>n928</title>
</g>
<!-- n941 -->
<g id="node2" class="node"><title>n941</title>
<ellipse fill="cyan" stroke="black" cx="689.434" cy="-341" rx="34.394" ry="18"/>
<text text-anchor="middle" x="689.434" y="-337.3" font-family="Times New Roman,serif" font-size="14.00">com3r</text>
</g>
<!-- n928&#45;&gt;n941 -->
<g id="edge1" class="edge"><title>n928&#45;&gt;n941</title>
<path fill="none" stroke="lightgray" d="M392.935,-485.525C444.451,-485.283 560.82,-478.261 636.987,-424 656.299,-410.242 669.866,-386.743 678.2,-368.253"/>
<polygon fill="lightgray" stroke="lightgray" points="681.504,-369.427 682.19,-358.854 675.061,-366.692 681.504,-369.427"/>
<text text-anchor="middle" x="526.987" y="-487.8" font-family="Times New Roman,serif" font-size="14.00" fill="lightgray">wff ps</text>
</g>
<!-- n929 -->
<g id="node3" class="node"><title>n929</title>
</g>
<!-- n928&#45;&gt;n929 -->
<g id="edge18" class="edge"><title>n928&#45;&gt;n929</title>
</g>
<!-- QED -->
<g id="node13" class="node"><title>QED</title>
</g>
<!-- n941&#45;&gt;QED -->
<g id="edge17" class="edge"><title>n941&#45;&gt;QED</title>
<path fill="none" stroke="black" d="M724.132,-341C783.61,-341 906.839,-341 969.594,-341"/>
<polygon fill="black" stroke="black" points="969.854,-344.5 979.854,-341 969.854,-337.5 969.854,-344.5"/>
<text text-anchor="middle" x="851.881" y="-344.8" font-family="Times New Roman,serif" font-size="14.00">|&#45; ( th &#45;&gt; ( ps &#45;&gt; ( ch &#45;&gt; ( ph &#45;&gt; ta ) ) ) )</text>
</g>
<!-- n929&#45;&gt;n941 -->
<g id="edge2" class="edge"><title>n929&#45;&gt;n941</title>
<path fill="none" stroke="lightgray" d="M392.485,-409.37C440.855,-402.217 548.639,-384.808 636.987,-360 641.959,-358.604 647.133,-356.947 652.201,-355.202"/>
<polygon fill="lightgray" stroke="lightgray" points="653.502,-358.453 661.734,-351.783 651.139,-351.864 653.502,-358.453"/>
<text text-anchor="middle" x="526.987" y="-408.8" font-family="Times New Roman,serif" font-size="14.00" fill="lightgray">wff ch</text>
</g>
<!-- n930 -->
<g id="node4" class="node"><title>n930</title>
</g>
<!-- n929&#45;&gt;n930 -->
<g id="edge19" class="edge"><title>n929&#45;&gt;n930</title>
</g>
<!-- n930&#45;&gt;n941 -->
<g id="edge3" class="edge"><title>n930&#45;&gt;n941</title>
<path fill="none" stroke="lightgray" d="M392.885,-341C447.886,-341 576.395,-341 644.409,-341"/>
<polygon fill="lightgray" stroke="lightgray" points="644.785,-344.5 654.785,-341 644.785,-337.5 644.785,-344.5"/>
<text text-anchor="middle" x="526.987" y="-344.8" font-family="Times New Roman,serif" font-size="14.00" fill="lightgray">wff th</text>
</g>
<!-- n933 -->
<g id="node5" class="node"><title>n933</title>
</g>
<!-- n930&#45;&gt;n933 -->
<g id="edge20" class="edge"><title>n930&#45;&gt;n933</title>
</g>
<!-- n933&#45;&gt;n941 -->
<g id="edge4" class="edge"><title>n933&#45;&gt;n941</title>
<path fill="none" stroke="lightgray" d="M392.485,-272.63C440.855,-279.783 548.639,-297.192 636.987,-322 641.959,-323.396 647.133,-325.053 652.201,-326.798"/>
<polygon fill="lightgray" stroke="lightgray" points="651.139,-330.136 661.734,-330.217 653.502,-323.547 651.139,-330.136"/>
<text text-anchor="middle" x="526.987" y="-325.8" font-family="Times New Roman,serif" font-size="14.00" fill="lightgray">wff ( ph &#45;&gt; ta )</text>
</g>
<!-- n940 -->
<g id="node7" class="node"><title>n940</title>
<ellipse fill="cyan" stroke="black" cx="365.84" cy="-197" rx="33.2948" ry="18"/>
<text text-anchor="middle" x="365.84" y="-193.3" font-family="Times New Roman,serif" font-size="14.00">com4l</text>
</g>
<!-- n933&#45;&gt;n940 -->
<g id="edge21" class="edge"><title>n933&#45;&gt;n940</title>
</g>
<!-- n934 -->
<g id="node6" class="node"><title>n934</title>
</g>
<!-- n934&#45;&gt;n940 -->
<g id="edge5" class="edge"><title>n934&#45;&gt;n940</title>
<path fill="none" stroke="lightgray" d="M65.1247,-381.004C119.344,-385.772 245.844,-388.493 314.693,-321 340.409,-295.791 317.938,-274.849 332.693,-242 335.885,-234.895 340.282,-227.774 344.8,-221.361"/>
<polygon fill="lightgray" stroke="lightgray" points="347.769,-223.233 350.934,-213.122 342.154,-219.053 347.769,-223.233"/>
<text text-anchor="middle" x="204.693" y="-386.8" font-family="Times New Roman,serif" font-size="14.00" fill="lightgray">wff ph</text>
</g>
<!-- n935 -->
<g id="node8" class="node"><title>n935</title>
</g>
<!-- n934&#45;&gt;n935 -->
<g id="edge12" class="edge"><title>n934&#45;&gt;n935</title>
</g>
<!-- n940&#45;&gt;n941 -->
<g id="edge11" class="edge"><title>n940&#45;&gt;n941</title>
<path fill="none" stroke="black" d="M399.2,-196.352C453.422,-196.849 563.863,-204.806 636.987,-257 656.663,-271.044 670.296,-295.191 678.561,-314.001"/>
<polygon fill="black" stroke="black" points="675.338,-315.367 682.397,-323.269 681.806,-312.69 675.338,-315.367"/>
<text text-anchor="middle" x="526.987" y="-260.8" font-family="Times New Roman,serif" font-size="14.00">|&#45; ( ps &#45;&gt; ( ch &#45;&gt; ( th &#45;&gt; ( ph &#45;&gt; ta ) ) ) )</text>
</g>
<!-- n935&#45;&gt;n940 -->
<g id="edge6" class="edge"><title>n935&#45;&gt;n940</title>
<path fill="none" stroke="lightgray" d="M65.7038,-305.24C116.79,-302.752 231.562,-292.146 314.693,-247 326.341,-240.674 337.072,-230.809 345.593,-221.507"/>
<polygon fill="lightgray" stroke="lightgray" points="348.275,-223.756 352.202,-213.915 342.996,-219.159 348.275,-223.756"/>
<text text-anchor="middle" x="204.693" y="-305.8" font-family="Times New Roman,serif" font-size="14.00" fill="lightgray">wff ps</text>
</g>
<!-- n936 -->
<g id="node9" class="node"><title>n936</title>
</g>
<!-- n935&#45;&gt;n936 -->
<g id="edge13" class="edge"><title>n935&#45;&gt;n936</title>
</g>
<!-- n936&#45;&gt;n940 -->
<g id="edge7" class="edge"><title>n936&#45;&gt;n940</title>
<path fill="none" stroke="lightgray" d="M65.1672,-231.154C113.938,-225.764 222.948,-213.653 314.693,-203 317.51,-202.673 320.416,-202.333 323.343,-201.988"/>
<polygon fill="lightgray" stroke="lightgray" points="323.76,-205.463 333.278,-200.81 322.936,-198.512 323.76,-205.463"/>
<text text-anchor="middle" x="204.693" y="-231.8" font-family="Times New Roman,serif" font-size="14.00" fill="lightgray">wff ch</text>
</g>
<!-- n937 -->
<g id="node10" class="node"><title>n937</title>
</g>
<!-- n936&#45;&gt;n937 -->
<g id="edge14" class="edge"><title>n936&#45;&gt;n937</title>
</g>
<!-- n937&#45;&gt;n940 -->
<g id="edge8" class="edge"><title>n937&#45;&gt;n940</title>
<path fill="none" stroke="lightgray" d="M65.2431,-163.721C114.14,-167.132 223.352,-175.513 314.693,-188 317.892,-188.437 321.198,-188.933 324.516,-189.461"/>
<polygon fill="lightgray" stroke="lightgray" points="323.967,-192.918 334.408,-191.119 325.124,-186.014 323.967,-192.918"/>
<text text-anchor="middle" x="204.693" y="-191.8" font-family="Times New Roman,serif" font-size="14.00" fill="lightgray">wff th</text>
</g>
<!-- n938 -->
<g id="node11" class="node"><title>n938</title>
</g>
<!-- n937&#45;&gt;n938 -->
<g id="edge15" class="edge"><title>n937&#45;&gt;n938</title>
</g>
<!-- n938&#45;&gt;n940 -->
<g id="edge9" class="edge"><title>n938&#45;&gt;n940</title>
<path fill="none" stroke="lightgray" d="M65.6976,-90.5242C116.773,-92.564 231.527,-102.209 314.693,-147 326.363,-153.285 337.098,-163.144 345.615,-172.453"/>
<polygon fill="lightgray" stroke="lightgray" points="343.018,-174.8 352.22,-180.051 348.301,-170.208 343.018,-174.8"/>
<text text-anchor="middle" x="204.693" y="-150.8" font-family="Times New Roman,serif" font-size="14.00" fill="lightgray">wff ta</text>
</g>
<!-- n939 -->
<g id="node12" class="node"><title>n939</title>
<ellipse fill="orange" stroke="black" cx="38.3466" cy="-18" rx="38.1938" ry="18"/>
<text text-anchor="middle" x="38.3466" y="-14.3" font-family="Times New Roman,serif" font-size="14.00">com4.1</text>
</g>
<!-- n938&#45;&gt;n939 -->
<g id="edge16" class="edge"><title>n938&#45;&gt;n939</title>
</g>
<!-- n939&#45;&gt;n940 -->
<g id="edge10" class="edge"><title>n939&#45;&gt;n940</title>
<path fill="none" stroke="black" d="M76.5081,-15.1846C134.187,-12.8695 245.778,-16.8718 314.693,-74 343.345,-97.7512 355.801,-140.438 361.095,-168.747"/>
<polygon fill="black" stroke="black" points="357.68,-169.544 362.792,-178.823 364.582,-168.381 357.68,-169.544"/>
<text text-anchor="middle" x="204.693" y="-77.8" font-family="Times New Roman,serif" font-size="14.00">|&#45; ( ph &#45;&gt; ( ps &#45;&gt; ( ch &#45;&gt; ( th &#45;&gt; ta ) ) ) )</text>
</g>
</g>
</svg>
