<?xml version="1.0" encoding="UTF-8" standalone="no"?>
<!DOCTYPE svg PUBLIC "-//W3C//DTD SVG 1.1//EN"
 "http://www.w3.org/Graphics/SVG/1.1/DTD/svg11.dtd">
<!-- Generated by graphviz version 2.38.0 (20140413.2041)
 -->
<!-- Title: proof_com3r Pages: 1 -->
<svg width="913pt" height="404pt"
 viewBox="0.00 0.00 913.18 404.00" xmlns="http://www.w3.org/2000/svg" xmlns:xlink="http://www.w3.org/1999/xlink">
<g id="graph0" class="graph" transform="scale(1 1) rotate(0) translate(4 400)">
<title>proof_com3r</title>
<polygon fill="white" stroke="none" points="-4,4 -4,-400 909.175,-400 909.175,4 -4,4"/>
<!-- n807 -->
<g id="node1" class="node"><title>n807</title>
</g>
<!-- n818 -->
<g id="node2" class="node"><title>n818</title>
<ellipse fill="cyan" stroke="black" cx="601.934" cy="-269" rx="35.9954" ry="18"/>
<text text-anchor="middle" x="601.934" y="-265.3" font-family="Times New Roman,serif" font-size="14.00">com12</text>
</g>
<!-- n807&#45;&gt;n818 -->
<g id="edge1" class="edge"><title>n807&#45;&gt;n818</title>
<path fill="none" stroke="lightgray" d="M348.288,-375.043C391.839,-369.209 481.603,-353.471 548.187,-317 559.725,-310.68 570.771,-301.338 579.747,-292.571"/>
<polygon fill="lightgray" stroke="lightgray" points="582.258,-295.009 586.765,-285.421 577.262,-290.106 582.258,-295.009"/>
<text text-anchor="middle" x="461.687" y="-373.8" font-family="Times New Roman,serif" font-size="14.00" fill="lightgray">wff ph</text>
</g>
<!-- n808 -->
<g id="node3" class="node"><title>n808</title>
</g>
<!-- n807&#45;&gt;n808 -->
<g id="edge15" class="edge"><title>n807&#45;&gt;n808</title>
</g>
<!-- QED -->
<g id="node11" class="node"><title>QED</title>
</g>
<!-- n818&#45;&gt;QED -->
<g id="edge14" class="edge"><title>n818&#45;&gt;QED</title>
<path fill="none" stroke="black" d="M637.935,-269C688.943,-269 783.376,-269 836.337,-269"/>
<polygon fill="black" stroke="black" points="836.665,-272.5 846.665,-269 836.665,-265.5 836.665,-272.5"/>
<text text-anchor="middle" x="742.181" y="-272.8" font-family="Times New Roman,serif" font-size="14.00">|&#45; ( ch &#45;&gt; ( ph &#45;&gt; ( ps &#45;&gt; th ) ) )</text>
</g>
<!-- n808&#45;&gt;n818 -->
<g id="edge2" class="edge"><title>n808&#45;&gt;n818</title>
<path fill="none" stroke="lightgray" d="M348.141,-302.585C395.776,-296.257 498.267,-282.64 557.07,-274.828"/>
<polygon fill="lightgray" stroke="lightgray" points="557.716,-278.273 567.167,-273.486 556.794,-271.334 557.716,-278.273"/>
<text text-anchor="middle" x="461.687" y="-301.8" font-family="Times New Roman,serif" font-size="14.00" fill="lightgray">wff ch</text>
</g>
<!-- n811 -->
<g id="node4" class="node"><title>n811</title>
</g>
<!-- n808&#45;&gt;n811 -->
<g id="edge16" class="edge"><title>n808&#45;&gt;n811</title>
</g>
<!-- n811&#45;&gt;n818 -->
<g id="edge3" class="edge"><title>n811&#45;&gt;n818</title>
<path fill="none" stroke="lightgray" d="M348.229,-236.51C390.217,-240.699 475.935,-249.683 548.187,-260 551.406,-260.46 554.73,-260.962 558.072,-261.486"/>
<polygon fill="lightgray" stroke="lightgray" points="557.625,-264.96 568.056,-263.107 558.746,-258.05 557.625,-264.96"/>
<text text-anchor="middle" x="461.687" y="-263.8" font-family="Times New Roman,serif" font-size="14.00" fill="lightgray">wff ( ps &#45;&gt; th )</text>
</g>
<!-- n817 -->
<g id="node6" class="node"><title>n817</title>
<ellipse fill="cyan" stroke="black" cx="321.44" cy="-162" rx="35.9954" ry="18"/>
<text text-anchor="middle" x="321.44" y="-158.3" font-family="Times New Roman,serif" font-size="14.00">com23</text>
</g>
<!-- n811&#45;&gt;n817 -->
<g id="edge17" class="edge"><title>n811&#45;&gt;n817</title>
</g>
<!-- n812 -->
<g id="node5" class="node"><title>n812</title>
</g>
<!-- n812&#45;&gt;n817 -->
<g id="edge4" class="edge"><title>n812&#45;&gt;n817</title>
<path fill="none" stroke="lightgray" d="M65.641,-305.047C111.539,-302.089 207.148,-290.022 267.693,-241 280.982,-230.241 276.435,-221.374 285.693,-207 290.029,-200.268 295.106,-193.284 300.02,-186.883"/>
<polygon fill="lightgray" stroke="lightgray" points="303.106,-188.62 306.533,-178.595 297.602,-184.295 303.106,-188.62"/>
<text text-anchor="middle" x="181.193" y="-305.8" font-family="Times New Roman,serif" font-size="14.00" fill="lightgray">wff ph</text>
</g>
<!-- n813 -->
<g id="node7" class="node"><title>n813</title>
</g>
<!-- n812&#45;&gt;n813 -->
<g id="edge10" class="edge"><title>n812&#45;&gt;n813</title>
</g>
<!-- n817&#45;&gt;n818 -->
<g id="edge9" class="edge"><title>n817&#45;&gt;n818</title>
<path fill="none" stroke="black" d="M356.881,-165.498C402.897,-171.328 485.866,-185.951 548.187,-220 559.841,-226.367 570.907,-235.89 579.866,-244.852"/>
<polygon fill="black" stroke="black" points="577.421,-247.359 586.863,-252.166 582.48,-242.521 577.421,-247.359"/>
<text text-anchor="middle" x="461.687" y="-223.8" font-family="Times New Roman,serif" font-size="14.00">|&#45; ( ph &#45;&gt; ( ch &#45;&gt; ( ps &#45;&gt; th ) ) )</text>
</g>
<!-- n813&#45;&gt;n817 -->
<g id="edge5" class="edge"><title>n813&#45;&gt;n817</title>
<path fill="none" stroke="lightgray" d="M64.602,-229.151C106.975,-220.791 194.895,-202.479 267.693,-181 272.643,-179.54 277.804,-177.869 282.878,-176.139"/>
<polygon fill="lightgray" stroke="lightgray" points="284.173,-179.393 292.447,-172.775 281.852,-172.789 284.173,-179.393"/>
<text text-anchor="middle" x="181.193" y="-225.8" font-family="Times New Roman,serif" font-size="14.00" fill="lightgray">wff ps</text>
</g>
<!-- n814 -->
<g id="node8" class="node"><title>n814</title>
</g>
<!-- n813&#45;&gt;n814 -->
<g id="edge11" class="edge"><title>n813&#45;&gt;n814</title>
</g>
<!-- n814&#45;&gt;n817 -->
<g id="edge6" class="edge"><title>n814&#45;&gt;n817</title>
<path fill="none" stroke="lightgray" d="M65.5388,-162C113.496,-162 215.93,-162 275.311,-162"/>
<polygon fill="lightgray" stroke="lightgray" points="275.52,-165.5 285.52,-162 275.52,-158.5 275.52,-165.5"/>
<text text-anchor="middle" x="181.193" y="-165.8" font-family="Times New Roman,serif" font-size="14.00" fill="lightgray">wff ch</text>
</g>
<!-- n815 -->
<g id="node9" class="node"><title>n815</title>
</g>
<!-- n814&#45;&gt;n815 -->
<g id="edge12" class="edge"><title>n814&#45;&gt;n815</title>
</g>
<!-- n815&#45;&gt;n817 -->
<g id="edge7" class="edge"><title>n815&#45;&gt;n817</title>
<path fill="none" stroke="lightgray" d="M64.602,-94.8487C106.975,-103.209 194.895,-121.521 267.693,-143 272.643,-144.46 277.804,-146.131 282.878,-147.861"/>
<polygon fill="lightgray" stroke="lightgray" points="281.852,-151.211 292.447,-151.225 284.173,-144.607 281.852,-151.211"/>
<text text-anchor="middle" x="181.193" y="-146.8" font-family="Times New Roman,serif" font-size="14.00" fill="lightgray">wff th</text>
</g>
<!-- n816 -->
<g id="node10" class="node"><title>n816</title>
<ellipse fill="orange" stroke="black" cx="38.3466" cy="-18" rx="38.1938" ry="18"/>
<text text-anchor="middle" x="38.3466" y="-14.3" font-family="Times New Roman,serif" font-size="14.00">com3.1</text>
</g>
<!-- n815&#45;&gt;n816 -->
<g id="edge13" class="edge"><title>n815&#45;&gt;n816</title>
</g>
<!-- n816&#45;&gt;n817 -->
<g id="edge8" class="edge"><title>n816&#45;&gt;n817</title>
<path fill="none" stroke="black" d="M76.3662,-20.6899C124.583,-25.8288 209.563,-40.6423 267.693,-83 285.911,-96.275 299.712,-117.896 308.619,-135.166"/>
<polygon fill="black" stroke="black" points="305.518,-136.792 313.061,-144.232 311.804,-133.712 305.518,-136.792"/>
<text text-anchor="middle" x="181.193" y="-86.8" font-family="Times New Roman,serif" font-size="14.00">|&#45; ( ph &#45;&gt; ( ps &#45;&gt; ( ch &#45;&gt; th ) ) )</text>
</g>
</g>
</svg>
