<?xml version="1.0" encoding="UTF-8" standalone="no"?>
<!DOCTYPE svg PUBLIC "-//W3C//DTD SVG 1.1//EN"
 "http://www.w3.org/Graphics/SVG/1.1/DTD/svg11.dtd">
<!-- Generated by graphviz version 2.38.0 (20140413.2041)
 -->
<!-- Title: proof_con1 Pages: 1 -->
<svg width="852pt" height="260pt"
 viewBox="0.00 0.00 852.09 260.00" xmlns="http://www.w3.org/2000/svg" xmlns:xlink="http://www.w3.org/1999/xlink">
<g id="graph0" class="graph" transform="scale(1 1) rotate(0) translate(4 256)">
<title>proof_con1</title>
<polygon fill="white" stroke="none" points="-4,4 -4,-256 848.089,-256 848.089,4 -4,4"/>
<!-- n1443 -->
<g id="node1" class="node"><title>n1443</title>
</g>
<!-- n1451 -->
<g id="node2" class="node"><title>n1451</title>
<ellipse fill="cyan" stroke="black" cx="514.797" cy="-125" rx="33.5952" ry="18"/>
<text text-anchor="middle" x="514.797" y="-121.3" font-family="Times New Roman,serif" font-size="14.00">con1d</text>
</g>
<!-- n1443&#45;&gt;n1451 -->
<g id="edge1" class="edge"><title>n1443&#45;&gt;n1451</title>
<path fill="none" stroke="lightgray" d="M243.927,-232.101C290.472,-227.761 390.133,-214.166 463,-174 474.569,-167.623 485.403,-157.926 494.069,-148.837"/>
<polygon fill="lightgray" stroke="lightgray" points="496.667,-151.184 500.808,-141.432 491.489,-146.473 496.667,-151.184"/>
<text text-anchor="middle" x="362.5" y="-232.8" font-family="Times New Roman,serif" font-size="14.00" fill="lightgray">wff ( &#45;. ph &#45;&gt; ps )</text>
</g>
<!-- n1444 -->
<g id="node3" class="node"><title>n1444</title>
</g>
<!-- n1443&#45;&gt;n1444 -->
<g id="edge7" class="edge"><title>n1443&#45;&gt;n1444</title>
</g>
<!-- QED -->
<g id="node7" class="node"><title>QED</title>
</g>
<!-- n1451&#45;&gt;QED -->
<g id="edge6" class="edge"><title>n1451&#45;&gt;QED</title>
<path fill="none" stroke="black" d="M548.832,-125C604.45,-125 716.478,-125 775.483,-125"/>
<polygon fill="black" stroke="black" points="775.515,-128.5 785.514,-125 775.514,-121.5 775.515,-128.5"/>
<text text-anchor="middle" x="667.094" y="-128.8" font-family="Times New Roman,serif" font-size="14.00">|&#45; ( ( &#45;. ph &#45;&gt; ps ) &#45;&gt; ( &#45;. ps &#45;&gt; ph ) )</text>
</g>
<!-- n1444&#45;&gt;n1451 -->
<g id="edge2" class="edge"><title>n1444&#45;&gt;n1451</title>
<path fill="none" stroke="lightgray" d="M243.733,-158.781C294.755,-152.399 409.18,-138.086 471.457,-130.296"/>
<polygon fill="lightgray" stroke="lightgray" points="472.231,-133.727 481.72,-129.012 471.362,-126.781 472.231,-133.727"/>
<text text-anchor="middle" x="362.5" y="-158.8" font-family="Times New Roman,serif" font-size="14.00" fill="lightgray">wff ph</text>
</g>
<!-- n1445 -->
<g id="node4" class="node"><title>n1445</title>
</g>
<!-- n1444&#45;&gt;n1445 -->
<g id="edge8" class="edge"><title>n1444&#45;&gt;n1445</title>
</g>
<!-- n1445&#45;&gt;n1451 -->
<g id="edge3" class="edge"><title>n1445&#45;&gt;n1451</title>
<path fill="none" stroke="lightgray" d="M243.822,-92.1445C288.571,-95.9938 383.379,-104.736 463,-116 466.192,-116.452 469.492,-116.954 472.804,-117.485"/>
<polygon fill="lightgray" stroke="lightgray" points="472.25,-120.94 482.69,-119.135 473.403,-114.036 472.25,-120.94"/>
<text text-anchor="middle" x="362.5" y="-119.8" font-family="Times New Roman,serif" font-size="14.00" fill="lightgray">wff ps</text>
</g>
<!-- n1450 -->
<g id="node6" class="node"><title>n1450</title>
<ellipse fill="cyan" stroke="black" cx="217" cy="-18" rx="27" ry="18"/>
<text text-anchor="middle" x="217" y="-14.3" font-family="Times New Roman,serif" font-size="14.00">id</text>
</g>
<!-- n1445&#45;&gt;n1450 -->
<g id="edge9" class="edge"><title>n1445&#45;&gt;n1450</title>
</g>
<!-- n1449 -->
<g id="node5" class="node"><title>n1449</title>
</g>
<!-- n1449&#45;&gt;n1450 -->
<g id="edge4" class="edge"><title>n1449&#45;&gt;n1450</title>
<path fill="none" stroke="lightgray" d="M54.1406,-18C86.7397,-18 142.654,-18 179.474,-18"/>
<polygon fill="lightgray" stroke="lightgray" points="179.779,-21.5001 189.779,-18 179.779,-14.5001 179.779,-21.5001"/>
<text text-anchor="middle" x="122" y="-21.8" font-family="Times New Roman,serif" font-size="14.00" fill="lightgray">wff ( &#45;. ph &#45;&gt; ps )</text>
</g>
<!-- n1450&#45;&gt;n1451 -->
<g id="edge5" class="edge"><title>n1450&#45;&gt;n1451</title>
<path fill="none" stroke="black" d="M243.961,-19.4361C290.56,-22.9764 390.304,-34.9989 463,-75 474.688,-81.4316 485.541,-91.314 494.189,-100.6"/>
<polygon fill="black" stroke="black" points="491.651,-103.013 500.905,-108.171 496.887,-98.3674 491.651,-103.013"/>
<text text-anchor="middle" x="362.5" y="-78.8" font-family="Times New Roman,serif" font-size="14.00">|&#45; ( ( &#45;. ph &#45;&gt; ps ) &#45;&gt; ( &#45;. ph &#45;&gt; ps ) )</text>
</g>
</g>
</svg>
