<?xml version="1.0" encoding="UTF-8" standalone="no"?>
<!DOCTYPE svg PUBLIC "-//W3C//DTD SVG 1.1//EN"
 "http://www.w3.org/Graphics/SVG/1.1/DTD/svg11.dtd">
<!-- Generated by graphviz version 2.38.0 (20140413.2041)
 -->
<!-- Title: proof_con2bi Pages: 1 -->
<svg width="1089pt" height="641pt"
 viewBox="0.00 0.00 1088.58 641.00" xmlns="http://www.w3.org/2000/svg" xmlns:xlink="http://www.w3.org/1999/xlink">
<g id="graph0" class="graph" transform="scale(1 1) rotate(0) translate(4 637)">
<title>proof_con2bi</title>
<polygon fill="white" stroke="none" points="-4,4 -4,-637 1084.58,-637 1084.58,4 -4,4"/>
<!-- n6295 -->
<g id="node1" class="node"><title>n6295</title>
</g>
<!-- n6327 -->
<g id="node2" class="node"><title>n6327</title>
<ellipse fill="cyan" stroke="black" cx="726.285" cy="-395" rx="33.5952" ry="18"/>
<text text-anchor="middle" x="726.285" y="-391.3" font-family="Times New Roman,serif" font-size="14.00">3bitr2i</text>
</g>
<!-- n6295&#45;&gt;n6327 -->
<g id="edge1" class="edge"><title>n6295&#45;&gt;n6327</title>
<path fill="none" stroke="lightgray" d="M399.143,-614.666C456.058,-621.343 594.858,-628.954 674.488,-559 713.823,-524.444 723.094,-460.094 725.039,-423.108"/>
<polygon fill="lightgray" stroke="lightgray" points="728.54,-423.136 725.422,-413.01 721.545,-422.87 728.54,-423.136"/>
<text text-anchor="middle" x="549.488" y="-621.8" font-family="Times New Roman,serif" font-size="14.00" fill="lightgray">wff ( ph &lt;&#45;&gt; &#45;. ps )</text>
</g>
<!-- n6301 -->
<g id="node3" class="node"><title>n6301</title>
</g>
<!-- n6295&#45;&gt;n6301 -->
<g id="edge23" class="edge"><title>n6295&#45;&gt;n6301</title>
</g>
<!-- QED -->
<g id="node18" class="node"><title>QED</title>
</g>
<!-- n6327&#45;&gt;QED -->
<g id="edge22" class="edge"><title>n6327&#45;&gt;QED</title>
<path fill="none" stroke="black" d="M760.338,-395C820.507,-395 947.609,-395 1011.68,-395"/>
<polygon fill="black" stroke="black" points="1011.77,-398.5 1021.77,-395 1011.77,-391.5 1011.77,-398.5"/>
<text text-anchor="middle" x="891.082" y="-398.8" font-family="Times New Roman,serif" font-size="14.00">|&#45; ( ( ph &lt;&#45;&gt; &#45;. ps ) &lt;&#45;&gt; ( ps &lt;&#45;&gt; &#45;. ph ) )</text>
</g>
<!-- n6301&#45;&gt;n6327 -->
<g id="edge2" class="edge"><title>n6301&#45;&gt;n6327</title>
<path fill="none" stroke="lightgray" d="M399.724,-540.483C455.442,-542.336 588.182,-539.565 674.488,-479 694.208,-465.162 707.638,-440.994 715.712,-422.123"/>
<polygon fill="lightgray" stroke="lightgray" points="718.969,-423.405 719.451,-412.821 712.474,-420.794 718.969,-423.405"/>
<text text-anchor="middle" x="549.488" y="-543.8" font-family="Times New Roman,serif" font-size="14.00" fill="lightgray">wff ( &#45;. ph &lt;&#45;&gt; &#45;. &#45;. ps )</text>
</g>
<!-- n6305 -->
<g id="node4" class="node"><title>n6305</title>
</g>
<!-- n6301&#45;&gt;n6305 -->
<g id="edge24" class="edge"><title>n6301&#45;&gt;n6305</title>
</g>
<!-- n6305&#45;&gt;n6327 -->
<g id="edge3" class="edge"><title>n6305&#45;&gt;n6327</title>
<path fill="none" stroke="lightgray" d="M399.392,-464.088C451.792,-457.798 574.472,-441.268 674.488,-414 679.47,-412.642 684.649,-410.993 689.711,-409.242"/>
<polygon fill="lightgray" stroke="lightgray" points="691.013,-412.493 699.221,-405.795 688.627,-405.912 691.013,-412.493"/>
<text text-anchor="middle" x="549.488" y="-463.8" font-family="Times New Roman,serif" font-size="14.00" fill="lightgray">wff ( &#45;. ph &lt;&#45;&gt; ps )</text>
</g>
<!-- n6309 -->
<g id="node5" class="node"><title>n6309</title>
</g>
<!-- n6305&#45;&gt;n6309 -->
<g id="edge25" class="edge"><title>n6305&#45;&gt;n6309</title>
</g>
<!-- n6309&#45;&gt;n6327 -->
<g id="edge4" class="edge"><title>n6309&#45;&gt;n6327</title>
<path fill="none" stroke="lightgray" d="M399.83,-395C459.898,-395 608.268,-395 682.108,-395"/>
<polygon fill="lightgray" stroke="lightgray" points="682.442,-398.5 692.442,-395 682.442,-391.5 682.442,-398.5"/>
<text text-anchor="middle" x="549.488" y="-398.8" font-family="Times New Roman,serif" font-size="14.00" fill="lightgray">wff ( ps &lt;&#45;&gt; &#45;. ph )</text>
</g>
<!-- n6313 -->
<g id="node7" class="node"><title>n6313</title>
<ellipse fill="cyan" stroke="black" cx="372.691" cy="-323" rx="29.4969" ry="18"/>
<text text-anchor="middle" x="372.691" y="-319.3" font-family="Times New Roman,serif" font-size="14.00">notbi</text>
</g>
<!-- n6309&#45;&gt;n6313 -->
<g id="edge26" class="edge"><title>n6309&#45;&gt;n6313</title>
</g>
<!-- n6310 -->
<g id="node6" class="node"><title>n6310</title>
</g>
<!-- n6310&#45;&gt;n6313 -->
<g id="edge5" class="edge"><title>n6310&#45;&gt;n6313</title>
<path fill="none" stroke="lightgray" d="M187.757,-481.854C222.441,-474.887 284.564,-457.607 320.894,-419 337.367,-401.495 327.697,-389.27 338.894,-368 342.609,-360.943 347.336,-353.76 352.036,-347.267"/>
<polygon fill="lightgray" stroke="lightgray" points="355.107,-349.007 358.332,-338.915 349.518,-344.793 355.107,-349.007"/>
<text text-anchor="middle" x="267.394" y="-478.8" font-family="Times New Roman,serif" font-size="14.00" fill="lightgray">wff ph</text>
</g>
<!-- n6312 -->
<g id="node8" class="node"><title>n6312</title>
</g>
<!-- n6310&#45;&gt;n6312 -->
<g id="edge8" class="edge"><title>n6310&#45;&gt;n6312</title>
</g>
<!-- n6313&#45;&gt;n6327 -->
<g id="edge7" class="edge"><title>n6313&#45;&gt;n6327</title>
<path fill="none" stroke="black" d="M401.853,-326.209C455.551,-332.712 576.007,-349.151 674.488,-376 679.47,-377.358 684.649,-379.007 689.711,-380.758"/>
<polygon fill="black" stroke="black" points="688.627,-384.088 699.221,-384.205 691.013,-377.507 688.627,-384.088"/>
<text text-anchor="middle" x="549.488" y="-379.8" font-family="Times New Roman,serif" font-size="14.00">|&#45; ( ( ph &lt;&#45;&gt; &#45;. ps ) &lt;&#45;&gt; ( &#45;. ph &lt;&#45;&gt; &#45;. &#45;. ps ) )</text>
</g>
<!-- n6322 -->
<g id="node10" class="node"><title>n6322</title>
<ellipse fill="cyan" stroke="black" cx="372.691" cy="-251" rx="30.5947" ry="18"/>
<text text-anchor="middle" x="372.691" y="-247.3" font-family="Times New Roman,serif" font-size="14.00">bibi2i</text>
</g>
<!-- n6313&#45;&gt;n6322 -->
<g id="edge27" class="edge"><title>n6313&#45;&gt;n6322</title>
</g>
<!-- n6312&#45;&gt;n6313 -->
<g id="edge6" class="edge"><title>n6312&#45;&gt;n6313</title>
<path fill="none" stroke="lightgray" d="M187.318,-408.311C219.382,-400.396 276.314,-384.352 320.894,-361 330.017,-356.221 339.254,-349.863 347.303,-343.717"/>
<polygon fill="lightgray" stroke="lightgray" points="349.536,-346.413 355.207,-337.464 345.193,-340.923 349.536,-346.413"/>
<text text-anchor="middle" x="267.394" y="-403.8" font-family="Times New Roman,serif" font-size="14.00" fill="lightgray">wff &#45;. ps</text>
</g>
<!-- n6314 -->
<g id="node9" class="node"><title>n6314</title>
</g>
<!-- n6314&#45;&gt;n6322 -->
<g id="edge9" class="edge"><title>n6314&#45;&gt;n6322</title>
<path fill="none" stroke="lightgray" d="M185.593,-351.487C226.624,-336.316 308.942,-305.49 320.894,-298 331.339,-291.455 341.57,-282.607 350.082,-274.354"/>
<polygon fill="lightgray" stroke="lightgray" points="352.802,-276.582 357.372,-267.024 347.838,-271.646 352.802,-276.582"/>
<text text-anchor="middle" x="267.394" y="-342.8" font-family="Times New Roman,serif" font-size="14.00" fill="lightgray">wff ps</text>
</g>
<!-- n6317 -->
<g id="node11" class="node"><title>n6317</title>
</g>
<!-- n6314&#45;&gt;n6317 -->
<g id="edge15" class="edge"><title>n6314&#45;&gt;n6317</title>
</g>
<!-- n6322&#45;&gt;n6327 -->
<g id="edge14" class="edge"><title>n6322&#45;&gt;n6327</title>
<path fill="none" stroke="black" d="M403.215,-249.255C460.842,-247.351 590.039,-250.611 674.488,-310 694.486,-324.064 707.941,-348.733 715.952,-367.884"/>
<polygon fill="black" stroke="black" points="712.74,-369.28 719.65,-377.311 719.256,-366.724 712.74,-369.28"/>
<text text-anchor="middle" x="549.488" y="-313.8" font-family="Times New Roman,serif" font-size="14.00">|&#45; ( ( &#45;. ph &lt;&#45;&gt; ps ) &lt;&#45;&gt; ( &#45;. ph &lt;&#45;&gt; &#45;. &#45;. ps ) )</text>
</g>
<!-- n6326 -->
<g id="node16" class="node"><title>n6326</title>
<ellipse fill="cyan" stroke="black" cx="372.691" cy="-131" rx="33.5952" ry="18"/>
<text text-anchor="middle" x="372.691" y="-127.3" font-family="Times New Roman,serif" font-size="14.00">bicom</text>
</g>
<!-- n6322&#45;&gt;n6326 -->
<g id="edge28" class="edge"><title>n6322&#45;&gt;n6326</title>
</g>
<!-- n6317&#45;&gt;n6322 -->
<g id="edge10" class="edge"><title>n6317&#45;&gt;n6322</title>
<path fill="none" stroke="lightgray" d="M187.687,-283.537C223.837,-277.145 290.661,-265.328 333.057,-257.832"/>
<polygon fill="lightgray" stroke="lightgray" points="333.777,-261.259 343.015,-256.071 332.558,-254.366 333.777,-261.259"/>
<text text-anchor="middle" x="267.394" y="-282.8" font-family="Times New Roman,serif" font-size="14.00" fill="lightgray">wff &#45;. &#45;. ps</text>
</g>
<!-- n6319 -->
<g id="node12" class="node"><title>n6319</title>
</g>
<!-- n6317&#45;&gt;n6319 -->
<g id="edge16" class="edge"><title>n6317&#45;&gt;n6319</title>
</g>
<!-- n6319&#45;&gt;n6322 -->
<g id="edge11" class="edge"><title>n6319&#45;&gt;n6322</title>
<path fill="none" stroke="lightgray" d="M187.985,-220.088C219.315,-225.127 274.042,-234.006 320.894,-242 324.853,-242.676 328.984,-243.391 333.105,-244.111"/>
<polygon fill="lightgray" stroke="lightgray" points="332.769,-247.605 343.224,-245.891 333.981,-240.711 332.769,-247.605"/>
<text text-anchor="middle" x="267.394" y="-245.8" font-family="Times New Roman,serif" font-size="14.00" fill="lightgray">wff &#45;. ph</text>
</g>
<!-- n6321 -->
<g id="node14" class="node"><title>n6321</title>
<ellipse fill="cyan" stroke="black" cx="161.447" cy="-144" rx="34.394" ry="18"/>
<text text-anchor="middle" x="161.447" y="-140.3" font-family="Times New Roman,serif" font-size="14.00">notnot</text>
</g>
<!-- n6319&#45;&gt;n6321 -->
<g id="edge17" class="edge"><title>n6319&#45;&gt;n6321</title>
</g>
<!-- n6320 -->
<g id="node13" class="node"><title>n6320</title>
</g>
<!-- n6320&#45;&gt;n6321 -->
<g id="edge12" class="edge"><title>n6320&#45;&gt;n6321</title>
<path fill="none" stroke="lightgray" d="M54.1673,-144C71.9673,-144 95.9518,-144 116.631,-144"/>
<polygon fill="lightgray" stroke="lightgray" points="116.784,-147.5 126.784,-144 116.784,-140.5 116.784,-147.5"/>
<text text-anchor="middle" x="90.5" y="-147.8" font-family="Times New Roman,serif" font-size="14.00" fill="lightgray">wff ps</text>
</g>
<!-- n6321&#45;&gt;n6322 -->
<g id="edge13" class="edge"><title>n6321&#45;&gt;n6322</title>
<path fill="none" stroke="black" d="M192.216,-152.203C225.186,-162.051 279.19,-180.49 320.894,-206 331.051,-212.213 341.105,-220.534 349.555,-228.33"/>
<polygon fill="black" stroke="black" points="347.171,-230.892 356.82,-235.266 352.004,-225.829 347.171,-230.892"/>
<text text-anchor="middle" x="267.394" y="-209.8" font-family="Times New Roman,serif" font-size="14.00">|&#45; ( ps &lt;&#45;&gt; &#45;. &#45;. ps )</text>
</g>
<!-- n6324 -->
<g id="node15" class="node"><title>n6324</title>
</g>
<!-- n6324&#45;&gt;n6326 -->
<g id="edge18" class="edge"><title>n6324&#45;&gt;n6326</title>
<path fill="none" stroke="lightgray" d="M187.687,-94.9456C223.134,-101.891 288.074,-114.616 330.556,-122.94"/>
<polygon fill="lightgray" stroke="lightgray" points="330.091,-126.415 340.578,-124.904 331.437,-119.546 330.091,-126.415"/>
<text text-anchor="middle" x="267.394" y="-125.8" font-family="Times New Roman,serif" font-size="14.00" fill="lightgray">wff &#45;. ph</text>
</g>
<!-- n6325 -->
<g id="node17" class="node"><title>n6325</title>
</g>
<!-- n6324&#45;&gt;n6325 -->
<g id="edge21" class="edge"><title>n6324&#45;&gt;n6325</title>
</g>
<!-- n6326&#45;&gt;n6327 -->
<g id="edge20" class="edge"><title>n6326&#45;&gt;n6327</title>
<path fill="none" stroke="black" d="M406.831,-132.339C468.332,-136.634 600.572,-154.643 674.488,-230 711.007,-267.232 721.35,-330.077 724.229,-366.518"/>
<polygon fill="black" stroke="black" points="720.764,-367.169 724.904,-376.922 727.749,-366.716 720.764,-367.169"/>
<text text-anchor="middle" x="549.488" y="-233.8" font-family="Times New Roman,serif" font-size="14.00">|&#45; ( ( &#45;. ph &lt;&#45;&gt; ps ) &lt;&#45;&gt; ( ps &lt;&#45;&gt; &#45;. ph ) )</text>
</g>
<!-- n6325&#45;&gt;n6326 -->
<g id="edge19" class="edge"><title>n6325&#45;&gt;n6326</title>
<path fill="none" stroke="lightgray" d="M186.64,-24.5973C218.96,-34.0963 277.218,-53.6567 320.894,-82 331.706,-89.0163 342.209,-98.5394 350.831,-107.325"/>
<polygon fill="lightgray" stroke="lightgray" points="348.468,-109.919 357.885,-114.774 353.55,-105.106 348.468,-109.919"/>
<text text-anchor="middle" x="267.394" y="-85.8" font-family="Times New Roman,serif" font-size="14.00" fill="lightgray">wff ps</text>
</g>
</g>
</svg>
