<?xml version="1.0" encoding="UTF-8" standalone="no"?>
<!DOCTYPE svg PUBLIC "-//W3C//DTD SVG 1.1//EN"
 "http://www.w3.org/Graphics/SVG/1.1/DTD/svg11.dtd">
<!-- Generated by graphviz version 2.38.0 (20140413.2041)
 -->
<!-- Title: proof_con3th Pages: 1 -->
<svg width="4247pt" height="1472pt"
 viewBox="0.00 0.00 4247.38 1472.22" xmlns="http://www.w3.org/2000/svg" xmlns:xlink="http://www.w3.org/1999/xlink">
<g id="graph0" class="graph" transform="scale(1 1) rotate(0) translate(4 1468.22)">
<title>proof_con3th</title>
<polygon fill="white" stroke="none" points="-4,4 -4,-1468.22 4243.38,-1468.22 4243.38,4 -4,4"/>
<!-- n17643 -->
<g id="node1" class="node"><title>n17643</title>
</g>
<!-- n17871 -->
<g id="node2" class="node"><title>n17871</title>
<ellipse fill="cyan" stroke="black" cx="3916.88" cy="-1159.22" rx="27" ry="18"/>
<text text-anchor="middle" x="3916.88" y="-1155.52" font-family="Times New Roman,serif" font-size="14.00">dedt</text>
</g>
<!-- n17643&#45;&gt;n17871 -->
<g id="edge1" class="edge"><title>n17643&#45;&gt;n17871</title>
<path fill="none" stroke="lightgray" d="M3001.97,-1382.68C3114.71,-1416.35 3600.34,-1543.25 3871.88,-1322.22 3892.69,-1305.29 3906.24,-1229.22 3912.27,-1187.25"/>
<polygon fill="lightgray" stroke="lightgray" points="3915.77,-1187.52 3913.67,-1177.13 3908.83,-1186.56 3915.77,-1187.52"/>
<text text-anchor="middle" x="3451.38" y="-1453.02" font-family="Times New Roman,serif" font-size="14.00" fill="lightgray">wff ps</text>
</g>
<!-- n17644 -->
<g id="node3" class="node"><title>n17644</title>
</g>
<!-- n17643&#45;&gt;n17644 -->
<g id="edge67" class="edge"><title>n17643&#45;&gt;n17644</title>
</g>
<!-- QED -->
<g id="node43" class="node"><title>QED</title>
</g>
<!-- n17871&#45;&gt;QED -->
<g id="edge66" class="edge"><title>n17871&#45;&gt;QED</title>
<path fill="none" stroke="black" d="M3943.98,-1159.22C3995.48,-1159.22 4110.39,-1159.22 4170.62,-1159.22"/>
<polygon fill="black" stroke="black" points="4170.85,-1162.73 4180.85,-1159.22 4170.85,-1155.73 4170.85,-1162.73"/>
<text text-anchor="middle" x="4062.38" y="-1163.02" font-family="Times New Roman,serif" font-size="14.00">|&#45; ( ( ph &#45;&gt; ps ) &#45;&gt; ( &#45;. ps &#45;&gt; &#45;. ph ) )</text>
</g>
<!-- n17644&#45;&gt;n17871 -->
<g id="edge2" class="edge"><title>n17644&#45;&gt;n17871</title>
<path fill="none" stroke="lightgray" d="M3004.32,-1303.41C3144.07,-1304.19 3798.49,-1305.15 3871.88,-1255.22 3894.52,-1239.82 3905.72,-1209.72 3911.12,-1187.31"/>
<polygon fill="lightgray" stroke="lightgray" points="3914.59,-1187.84 3913.27,-1177.33 3907.74,-1186.37 3914.59,-1187.84"/>
<text text-anchor="middle" x="3451.38" y="-1307.02" font-family="Times New Roman,serif" font-size="14.00" fill="lightgray">wff ph</text>
</g>
<!-- n17647 -->
<g id="node4" class="node"><title>n17647</title>
</g>
<!-- n17644&#45;&gt;n17647 -->
<g id="edge68" class="edge"><title>n17644&#45;&gt;n17647</title>
</g>
<!-- n17647&#45;&gt;n17871 -->
<g id="edge3" class="edge"><title>n17647&#45;&gt;n17871</title>
<path fill="none" stroke="lightgray" d="M3004.21,-1232.94C3112.51,-1239.37 3536.93,-1257.87 3871.88,-1178.22 3876.37,-1177.16 3880.99,-1175.66 3885.46,-1173.97"/>
<polygon fill="lightgray" stroke="lightgray" points="3887.01,-1177.11 3894.91,-1170.05 3884.33,-1170.64 3887.01,-1177.11"/>
<text text-anchor="middle" x="3451.38" y="-1243.02" font-family="Times New Roman,serif" font-size="14.00" fill="lightgray">wff ( ph &#45;&gt; ps )</text>
</g>
<!-- n17652 -->
<g id="node5" class="node"><title>n17652</title>
</g>
<!-- n17647&#45;&gt;n17652 -->
<g id="edge69" class="edge"><title>n17647&#45;&gt;n17652</title>
</g>
<!-- n17652&#45;&gt;n17871 -->
<g id="edge4" class="edge"><title>n17652&#45;&gt;n17871</title>
<path fill="none" stroke="lightgray" d="M3004.19,-1159.22C3135.63,-1159.22 3725.57,-1159.22 3879.21,-1159.22"/>
<polygon fill="lightgray" stroke="lightgray" points="3879.5,-1162.73 3889.5,-1159.22 3879.5,-1155.73 3879.5,-1162.73"/>
<text text-anchor="middle" x="3451.38" y="-1163.02" font-family="Times New Roman,serif" font-size="14.00" fill="lightgray">wff ( &#45;. ps &#45;&gt; &#45;. ph )</text>
</g>
<!-- n17668 -->
<g id="node6" class="node"><title>n17668</title>
</g>
<!-- n17652&#45;&gt;n17668 -->
<g id="edge70" class="edge"><title>n17652&#45;&gt;n17668</title>
</g>
<!-- n17668&#45;&gt;n17871 -->
<g id="edge5" class="edge"><title>n17668&#45;&gt;n17871</title>
<path fill="none" stroke="lightgray" d="M3004.21,-1085.51C3112.51,-1079.08 3536.93,-1060.58 3871.88,-1140.22 3876.37,-1141.29 3880.99,-1142.79 3885.46,-1144.48"/>
<polygon fill="lightgray" stroke="lightgray" points="3884.33,-1147.81 3894.91,-1148.4 3887.01,-1141.34 3884.33,-1147.81"/>
<text text-anchor="middle" x="3451.38" y="-1144.02" font-family="Times New Roman,serif" font-size="14.00" fill="lightgray">wff ( &#45;. ( ( ps /\ ( ph &#45;&gt; ps ) ) \/ ( ph /\ &#45;. ( ph &#45;&gt; ps ) ) ) &#45;&gt; &#45;. ph )</text>
</g>
<!-- n17743 -->
<g id="node8" class="node"><title>n17743</title>
<ellipse fill="cyan" stroke="black" cx="2977.13" cy="-1015.22" rx="35.9954" ry="18"/>
<text text-anchor="middle" x="2977.13" y="-1011.52" font-family="Times New Roman,serif" font-size="14.00">imbi1d</text>
</g>
<!-- n17668&#45;&gt;n17743 -->
<g id="edge71" class="edge"><title>n17668&#45;&gt;n17743</title>
</g>
<!-- n17682 -->
<g id="node7" class="node"><title>n17682</title>
</g>
<!-- n17682&#45;&gt;n17743 -->
<g id="edge6" class="edge"><title>n17682&#45;&gt;n17743</title>
<path fill="none" stroke="lightgray" d="M2180.61,-1238.7C2284.45,-1269.91 2704.32,-1378.96 2923.39,-1177.22 2962.09,-1141.58 2920.65,-1108.58 2941.39,-1060.22 2944.49,-1052.99 2949.03,-1045.9 2953.81,-1039.56"/>
<polygon fill="lightgray" stroke="lightgray" points="2956.81,-1041.42 2960.37,-1031.44 2951.37,-1037.02 2956.81,-1041.42"/>
<text text-anchor="middle" x="2565.89" y="-1299.02" font-family="Times New Roman,serif" font-size="14.00" fill="lightgray">wff ( ps &lt;&#45;&gt; ( ( ps /\ ( ph &#45;&gt; ps ) ) \/ ( ph /\ &#45;. ( ph &#45;&gt; ps ) ) ) )</text>
</g>
<!-- n17684 -->
<g id="node9" class="node"><title>n17684</title>
</g>
<!-- n17682&#45;&gt;n17684 -->
<g id="edge20" class="edge"><title>n17682&#45;&gt;n17684</title>
</g>
<!-- n17743&#45;&gt;n17871 -->
<g id="edge19" class="edge"><title>n17743&#45;&gt;n17871</title>
<path fill="none" stroke="black" d="M3008.65,-1006.33C3130.56,-972.724 3589.69,-865.032 3871.88,-1059.22 3895.59,-1075.54 3906.65,-1107.66 3911.73,-1131.1"/>
<polygon fill="black" stroke="black" points="3908.34,-1132.02 3913.67,-1141.18 3915.22,-1130.7 3908.34,-1132.02"/>
<text text-anchor="middle" x="3451.38" y="-1063.02" font-family="Times New Roman,serif" font-size="14.00">|&#45; ( ( ps &lt;&#45;&gt; ( ( ps /\ ( ph &#45;&gt; ps ) ) \/ ( ph /\ &#45;. ( ph &#45;&gt; ps ) ) ) ) &#45;&gt; ( ( &#45;. ps &#45;&gt; &#45;. ph ) &lt;&#45;&gt; ( &#45;. ( ( ps /\ ( ph &#45;&gt; ps ) ) \/ ( ph /\ &#45;. ( ph &#45;&gt; ps ) ) ) &#45;&gt; &#45;. ph ) ) )</text>
</g>
<!-- n17870 -->
<g id="node19" class="node"><title>n17870</title>
<ellipse fill="cyan" stroke="black" cx="2977.13" cy="-860.225" rx="30.5947" ry="18"/>
<text text-anchor="middle" x="2977.13" y="-856.525" font-family="Times New Roman,serif" font-size="14.00">con3i</text>
</g>
<!-- n17743&#45;&gt;n17870 -->
<g id="edge72" class="edge"><title>n17743&#45;&gt;n17870</title>
</g>
<!-- n17684&#45;&gt;n17743 -->
<g id="edge7" class="edge"><title>n17684&#45;&gt;n17743</title>
<path fill="none" stroke="lightgray" d="M2183.13,-1159.1C2310.63,-1158.26 2862.72,-1152.06 2923.39,-1107.22 2941.38,-1093.93 2930.44,-1079.73 2941.39,-1060.22 2945.4,-1053.08 2950.46,-1045.85 2955.47,-1039.32"/>
<polygon fill="lightgray" stroke="lightgray" points="2958.2,-1041.5 2961.7,-1031.5 2952.73,-1037.14 2958.2,-1041.5"/>
<text text-anchor="middle" x="2565.89" y="-1162.02" font-family="Times New Roman,serif" font-size="14.00" fill="lightgray">wff &#45;. ps</text>
</g>
<!-- n17697 -->
<g id="node10" class="node"><title>n17697</title>
</g>
<!-- n17684&#45;&gt;n17697 -->
<g id="edge21" class="edge"><title>n17684&#45;&gt;n17697</title>
</g>
<!-- n17697&#45;&gt;n17743 -->
<g id="edge8" class="edge"><title>n17697&#45;&gt;n17743</title>
<path fill="none" stroke="lightgray" d="M2183.1,-1088.01C2281.49,-1090.42 2638.19,-1094.23 2923.39,-1034.22 2928.75,-1033.1 2934.3,-1031.55 2939.69,-1029.82"/>
<polygon fill="lightgray" stroke="lightgray" points="2940.86,-1033.12 2949.17,-1026.56 2938.58,-1026.5 2940.86,-1033.12"/>
<text text-anchor="middle" x="2565.89" y="-1092.02" font-family="Times New Roman,serif" font-size="14.00" fill="lightgray">wff &#45;. ( ( ps /\ ( ph &#45;&gt; ps ) ) \/ ( ph /\ &#45;. ( ph &#45;&gt; ps ) ) )</text>
</g>
<!-- n17699 -->
<g id="node11" class="node"><title>n17699</title>
</g>
<!-- n17697&#45;&gt;n17699 -->
<g id="edge22" class="edge"><title>n17697&#45;&gt;n17699</title>
</g>
<!-- n17699&#45;&gt;n17743 -->
<g id="edge9" class="edge"><title>n17699&#45;&gt;n17743</title>
<path fill="none" stroke="lightgray" d="M2183.27,-1015.22C2301.08,-1015.22 2780.62,-1015.22 2930.88,-1015.22"/>
<polygon fill="lightgray" stroke="lightgray" points="2931.12,-1018.73 2941.12,-1015.22 2931.12,-1011.73 2931.12,-1018.73"/>
<text text-anchor="middle" x="2565.89" y="-1019.02" font-family="Times New Roman,serif" font-size="14.00" fill="lightgray">wff &#45;. ph</text>
</g>
<!-- n17742 -->
<g id="node13" class="node"><title>n17742</title>
<ellipse fill="cyan" stroke="black" cx="2155.94" cy="-943.225" rx="34.394" ry="18"/>
<text text-anchor="middle" x="2155.94" y="-939.525" font-family="Times New Roman,serif" font-size="14.00">notbid</text>
</g>
<!-- n17699&#45;&gt;n17742 -->
<g id="edge23" class="edge"><title>n17699&#45;&gt;n17742</title>
</g>
<!-- n17713 -->
<g id="node12" class="node"><title>n17713</title>
</g>
<!-- n17713&#45;&gt;n17742 -->
<g id="edge10" class="edge"><title>n17713&#45;&gt;n17742</title>
<path fill="none" stroke="lightgray" d="M1279.35,-1131.89C1388.86,-1165.86 1852.71,-1291.77 2103.49,-1075.22 2133.38,-1049.42 2105.34,-1024.25 2121.49,-988.225 2124.67,-981.142 2129.11,-974.105 2133.73,-967.772"/>
<polygon fill="lightgray" stroke="lightgray" points="2136.67,-969.688 2140.02,-959.636 2131.13,-965.406 2136.67,-969.688"/>
<text text-anchor="middle" x="1705.99" y="-1202.02" font-family="Times New Roman,serif" font-size="14.00" fill="lightgray">wff ( ps &lt;&#45;&gt; ( ( ps /\ ( ph &#45;&gt; ps ) ) \/ ( ph /\ &#45;. ( ph &#45;&gt; ps ) ) ) )</text>
</g>
<!-- n17714 -->
<g id="node14" class="node"><title>n17714</title>
</g>
<!-- n17713&#45;&gt;n17714 -->
<g id="edge16" class="edge"><title>n17713&#45;&gt;n17714</title>
</g>
<!-- n17742&#45;&gt;n17743 -->
<g id="edge15" class="edge"><title>n17742&#45;&gt;n17743</title>
<path fill="none" stroke="black" d="M2190.64,-942.266C2298.59,-939.887 2645.05,-937.657 2923.39,-996.225 2928.75,-997.352 2934.3,-998.902 2939.69,-1000.63"/>
<polygon fill="black" stroke="black" points="2938.58,-1003.95 2949.17,-1003.89 2940.86,-997.332 2938.58,-1003.95"/>
<text text-anchor="middle" x="2565.89" y="-1000.02" font-family="Times New Roman,serif" font-size="14.00">|&#45; ( ( ps &lt;&#45;&gt; ( ( ps /\ ( ph &#45;&gt; ps ) ) \/ ( ph /\ &#45;. ( ph &#45;&gt; ps ) ) ) ) &#45;&gt; ( &#45;. ps &lt;&#45;&gt; &#45;. ( ( ps /\ ( ph &#45;&gt; ps ) ) \/ ( ph /\ &#45;. ( ph &#45;&gt; ps ) ) ) ) )</text>
</g>
<!-- n17714&#45;&gt;n17742 -->
<g id="edge11" class="edge"><title>n17714&#45;&gt;n17742</title>
<path fill="none" stroke="lightgray" d="M1281.74,-1053.11C1407.48,-1056.99 1952.8,-1069.39 2103.49,-998.225 2117.34,-991.685 2129.29,-979.614 2138.18,-968.443"/>
<polygon fill="lightgray" stroke="lightgray" points="2141.17,-970.287 2144.35,-960.183 2135.56,-966.094 2141.17,-970.287"/>
<text text-anchor="middle" x="1705.99" y="-1060.02" font-family="Times New Roman,serif" font-size="14.00" fill="lightgray">wff ps</text>
</g>
<!-- n17726 -->
<g id="node15" class="node"><title>n17726</title>
</g>
<!-- n17714&#45;&gt;n17726 -->
<g id="edge17" class="edge"><title>n17714&#45;&gt;n17726</title>
</g>
<!-- n17726&#45;&gt;n17742 -->
<g id="edge12" class="edge"><title>n17726&#45;&gt;n17742</title>
<path fill="none" stroke="lightgray" d="M1281.8,-980.027C1385.65,-979.079 1780.06,-973.959 2103.49,-949.225 2106.35,-949.006 2109.3,-948.749 2112.26,-948.466"/>
<polygon fill="lightgray" stroke="lightgray" points="2112.73,-951.936 2122.32,-947.425 2112.01,-944.973 2112.73,-951.936"/>
<text text-anchor="middle" x="1705.99" y="-983.025" font-family="Times New Roman,serif" font-size="14.00" fill="lightgray">wff ( ( ps /\ ( ph &#45;&gt; ps ) ) \/ ( ph /\ &#45;. ( ph &#45;&gt; ps ) ) )</text>
</g>
<!-- n17741 -->
<g id="node17" class="node"><title>n17741</title>
<ellipse fill="cyan" stroke="black" cx="1254.75" cy="-908.225" rx="27" ry="18"/>
<text text-anchor="middle" x="1254.75" y="-904.525" font-family="Times New Roman,serif" font-size="14.00">id</text>
</g>
<!-- n17726&#45;&gt;n17741 -->
<g id="edge18" class="edge"><title>n17726&#45;&gt;n17741</title>
</g>
<!-- n17740 -->
<g id="node16" class="node"><title>n17740</title>
</g>
<!-- n17740&#45;&gt;n17741 -->
<g id="edge13" class="edge"><title>n17740&#45;&gt;n17741</title>
<path fill="none" stroke="lightgray" d="M490.276,-908.225C607.279,-908.225 1081.07,-908.225 1217.08,-908.225"/>
<polygon fill="lightgray" stroke="lightgray" points="1217.37,-911.725 1227.37,-908.225 1217.37,-904.725 1217.37,-911.725"/>
<text text-anchor="middle" x="854.5" y="-912.025" font-family="Times New Roman,serif" font-size="14.00" fill="lightgray">wff ( ps &lt;&#45;&gt; ( ( ps /\ ( ph &#45;&gt; ps ) ) \/ ( ph /\ &#45;. ( ph &#45;&gt; ps ) ) ) )</text>
</g>
<!-- n17741&#45;&gt;n17742 -->
<g id="edge14" class="edge"><title>n17741&#45;&gt;n17742</title>
<path fill="none" stroke="black" d="M1281.85,-907.674C1385.88,-905.763 1780.86,-901.227 2103.49,-934.225 2106.74,-934.557 2110.09,-934.974 2113.45,-935.445"/>
<polygon fill="black" stroke="black" points="2113.06,-938.925 2123.48,-936.99 2114.13,-932.007 2113.06,-938.925"/>
<text text-anchor="middle" x="1705.99" y="-938.025" font-family="Times New Roman,serif" font-size="14.00">|&#45; ( ( ps &lt;&#45;&gt; ( ( ps /\ ( ph &#45;&gt; ps ) ) \/ ( ph /\ &#45;. ( ph &#45;&gt; ps ) ) ) ) &#45;&gt; ( ps &lt;&#45;&gt; ( ( ps /\ ( ph &#45;&gt; ps ) ) \/ ( ph /\ &#45;. ( ph &#45;&gt; ps ) ) ) ) )</text>
</g>
<!-- n17744 -->
<g id="node18" class="node"><title>n17744</title>
</g>
<!-- n17744&#45;&gt;n17870 -->
<g id="edge24" class="edge"><title>n17744&#45;&gt;n17870</title>
<path fill="none" stroke="lightgray" d="M2183.27,-860.225C2302.56,-860.225 2792.77,-860.225 2936.41,-860.225"/>
<polygon fill="lightgray" stroke="lightgray" points="2936.53,-863.725 2946.53,-860.225 2936.53,-856.725 2936.53,-863.725"/>
<text text-anchor="middle" x="2565.89" y="-864.025" font-family="Times New Roman,serif" font-size="14.00" fill="lightgray">wff ph</text>
</g>
<!-- n17756 -->
<g id="node20" class="node"><title>n17756</title>
</g>
<!-- n17744&#45;&gt;n17756 -->
<g id="edge64" class="edge"><title>n17744&#45;&gt;n17756</title>
</g>
<!-- n17870&#45;&gt;n17871 -->
<g id="edge63" class="edge"><title>n17870&#45;&gt;n17871</title>
<path fill="none" stroke="black" d="M3004.75,-852.064C3123.71,-817.384 3612.22,-694.347 3871.88,-926.225 3901.89,-953.024 3911.73,-1074.74 3914.7,-1130.8"/>
<polygon fill="black" stroke="black" points="3911.22,-1131.27 3915.21,-1141.09 3918.21,-1130.93 3911.22,-1131.27"/>
<text text-anchor="middle" x="3451.38" y="-930.025" font-family="Times New Roman,serif" font-size="14.00">|&#45; ( &#45;. ( ( ps /\ ( ph &#45;&gt; ps ) ) \/ ( ph /\ &#45;. ( ph &#45;&gt; ps ) ) ) &#45;&gt; &#45;. ph )</text>
</g>
<!-- n17756&#45;&gt;n17870 -->
<g id="edge25" class="edge"><title>n17756&#45;&gt;n17870</title>
<path fill="none" stroke="lightgray" d="M2183.1,-787.441C2281.49,-785.034 2638.19,-781.215 2923.39,-841.225 2929.64,-842.54 2936.15,-844.43 2942.38,-846.513"/>
<polygon fill="lightgray" stroke="lightgray" points="2941.26,-849.83 2951.86,-849.89 2943.61,-843.236 2941.26,-849.83"/>
<text text-anchor="middle" x="2565.89" y="-845.025" font-family="Times New Roman,serif" font-size="14.00" fill="lightgray">wff ( ( ps /\ ( ph &#45;&gt; ps ) ) \/ ( ph /\ &#45;. ( ph &#45;&gt; ps ) ) )</text>
</g>
<!-- n17869 -->
<g id="node22" class="node"><title>n17869</title>
<ellipse fill="cyan" stroke="black" cx="2155.94" cy="-674.225" rx="29.795" ry="18"/>
<text text-anchor="middle" x="2155.94" y="-670.525" font-family="Times New Roman,serif" font-size="14.00">elimh</text>
</g>
<!-- n17756&#45;&gt;n17869 -->
<g id="edge65" class="edge"><title>n17756&#45;&gt;n17869</title>
</g>
<!-- n17757 -->
<g id="node21" class="node"><title>n17757</title>
</g>
<!-- n17757&#45;&gt;n17869 -->
<g id="edge26" class="edge"><title>n17757&#45;&gt;n17869</title>
<path fill="none" stroke="lightgray" d="M1281.96,-856.318C1409.93,-866.005 1968.38,-902.005 2103.49,-804.225 2105.71,-802.621 2130.35,-738.735 2144.71,-701.133"/>
<polygon fill="lightgray" stroke="lightgray" points="2147.99,-702.336 2148.29,-691.745 2141.45,-699.841 2147.99,-702.336"/>
<text text-anchor="middle" x="1705.99" y="-874.025" font-family="Times New Roman,serif" font-size="14.00" fill="lightgray">wff ps</text>
</g>
<!-- n17758 -->
<g id="node23" class="node"><title>n17758</title>
</g>
<!-- n17757&#45;&gt;n17758 -->
<g id="edge56" class="edge"><title>n17757&#45;&gt;n17758</title>
</g>
<!-- n17869&#45;&gt;n17870 -->
<g id="edge55" class="edge"><title>n17869&#45;&gt;n17870</title>
<path fill="none" stroke="black" d="M2185.04,-669.29C2291.87,-652.111 2679.11,-604.442 2923.39,-767.225 2946.32,-782.509 2960.4,-811.35 2968.17,-832.88"/>
<polygon fill="black" stroke="black" points="2964.9,-834.115 2971.41,-842.476 2971.53,-831.882 2964.9,-834.115"/>
<text text-anchor="middle" x="2565.89" y="-771.025" font-family="Times New Roman,serif" font-size="14.00">|&#45; ( ph &#45;&gt; ( ( ps /\ ( ph &#45;&gt; ps ) ) \/ ( ph /\ &#45;. ( ph &#45;&gt; ps ) ) ) )</text>
</g>
<!-- n17758&#45;&gt;n17869 -->
<g id="edge27" class="edge"><title>n17758&#45;&gt;n17869</title>
<path fill="none" stroke="lightgray" d="M1281.72,-783.077C1407.4,-786.827 1952.48,-798.695 2103.49,-728.225 2117.24,-721.811 2129.18,-709.96 2138.08,-698.991"/>
<polygon fill="lightgray" stroke="lightgray" points="2140.99,-700.95 2144.28,-690.88 2135.43,-696.699 2140.99,-700.95"/>
<text text-anchor="middle" x="1705.99" y="-789.025" font-family="Times New Roman,serif" font-size="14.00" fill="lightgray">wff ph</text>
</g>
<!-- n17761 -->
<g id="node24" class="node"><title>n17761</title>
</g>
<!-- n17758&#45;&gt;n17761 -->
<g id="edge57" class="edge"><title>n17758&#45;&gt;n17761</title>
</g>
<!-- n17761&#45;&gt;n17869 -->
<g id="edge28" class="edge"><title>n17761&#45;&gt;n17869</title>
<path fill="none" stroke="lightgray" d="M1281.79,-709.845C1385.59,-708.211 1779.84,-700.85 2103.49,-679.225 2107.67,-678.946 2112.04,-678.602 2116.39,-678.227"/>
<polygon fill="lightgray" stroke="lightgray" points="2116.75,-681.708 2126.39,-677.309 2116.11,-674.737 2116.75,-681.708"/>
<text text-anchor="middle" x="1705.99" y="-713.025" font-family="Times New Roman,serif" font-size="14.00" fill="lightgray">wff ( ph &#45;&gt; ps )</text>
</g>
<!-- n17764 -->
<g id="node25" class="node"><title>n17764</title>
</g>
<!-- n17761&#45;&gt;n17764 -->
<g id="edge58" class="edge"><title>n17761&#45;&gt;n17764</title>
</g>
<!-- n17764&#45;&gt;n17869 -->
<g id="edge29" class="edge"><title>n17764&#45;&gt;n17869</title>
<path fill="none" stroke="lightgray" d="M1281.96,-636.636C1386.38,-630.781 1782.67,-613.108 2103.49,-660.225 2108.68,-660.987 2114.1,-662.098 2119.38,-663.366"/>
<polygon fill="lightgray" stroke="lightgray" points="2118.73,-666.813 2129.29,-665.947 2120.49,-660.039 2118.73,-666.813"/>
<text text-anchor="middle" x="1705.99" y="-664.025" font-family="Times New Roman,serif" font-size="14.00" fill="lightgray">wff ( ph &#45;&gt; ph )</text>
</g>
<!-- n17778 -->
<g id="node26" class="node"><title>n17778</title>
</g>
<!-- n17764&#45;&gt;n17778 -->
<g id="edge59" class="edge"><title>n17764&#45;&gt;n17778</title>
</g>
<!-- n17778&#45;&gt;n17869 -->
<g id="edge30" class="edge"><title>n17778&#45;&gt;n17869</title>
<path fill="none" stroke="lightgray" d="M1281.85,-564.715C1408.1,-557.829 1955.48,-532.923 2103.49,-609.225 2119.86,-617.664 2132.72,-633.908 2141.49,-648.045"/>
<polygon fill="lightgray" stroke="lightgray" points="2138.6,-650.044 2146.66,-656.928 2144.66,-646.524 2138.6,-650.044"/>
<text text-anchor="middle" x="1705.99" y="-613.025" font-family="Times New Roman,serif" font-size="14.00" fill="lightgray">wff ( ph &#45;&gt; ( ( ps /\ ( ph &#45;&gt; ps ) ) \/ ( ph /\ &#45;. ( ph &#45;&gt; ps ) ) ) )</text>
</g>
<!-- n17822 -->
<g id="node28" class="node"><title>n17822</title>
<ellipse fill="cyan" stroke="black" cx="1254.75" cy="-494.225" rx="35.9954" ry="18"/>
<text text-anchor="middle" x="1254.75" y="-490.525" font-family="Times New Roman,serif" font-size="14.00">imbi2d</text>
</g>
<!-- n17778&#45;&gt;n17822 -->
<g id="edge60" class="edge"><title>n17778&#45;&gt;n17822</title>
</g>
<!-- n17792 -->
<g id="node27" class="node"><title>n17792</title>
</g>
<!-- n17792&#45;&gt;n17822 -->
<g id="edge31" class="edge"><title>n17792&#45;&gt;n17822</title>
<path fill="none" stroke="lightgray" d="M487.638,-758.747C589.476,-789.532 994.896,-895.187 1201,-697.225 1226.49,-672.746 1205.71,-571.97 1219,-539.225 1221.96,-531.931 1226.45,-524.814 1231.22,-518.472"/>
<polygon fill="lightgray" stroke="lightgray" points="1234.22,-520.333 1237.8,-510.361 1228.78,-515.925 1234.22,-520.333"/>
<text text-anchor="middle" x="854.5" y="-818.025" font-family="Times New Roman,serif" font-size="14.00" fill="lightgray">wff ( ps &lt;&#45;&gt; ( ( ps /\ ( ph &#45;&gt; ps ) ) \/ ( ph /\ &#45;. ( ph &#45;&gt; ps ) ) ) )</text>
</g>
<!-- n17793 -->
<g id="node29" class="node"><title>n17793</title>
</g>
<!-- n17792&#45;&gt;n17793 -->
<g id="edge38" class="edge"><title>n17792&#45;&gt;n17793</title>
</g>
<!-- n17822&#45;&gt;n17869 -->
<g id="edge37" class="edge"><title>n17822&#45;&gt;n17869</title>
<path fill="none" stroke="black" d="M1290.13,-491.098C1432.13,-478.894 1971.64,-439.74 2103.49,-536.225 2138.35,-561.729 2149.6,-613.653 2153.23,-646.031"/>
<polygon fill="black" stroke="black" points="2149.77,-646.569 2154.19,-656.196 2156.73,-645.911 2149.77,-646.569"/>
<text text-anchor="middle" x="1705.99" y="-540.025" font-family="Times New Roman,serif" font-size="14.00">|&#45; ( ( ps &lt;&#45;&gt; ( ( ps /\ ( ph &#45;&gt; ps ) ) \/ ( ph /\ &#45;. ( ph &#45;&gt; ps ) ) ) ) &#45;&gt; ( ( ph &#45;&gt; ps ) &lt;&#45;&gt; ( ph &#45;&gt; ( ( ps /\ ( ph &#45;&gt; ps ) ) \/ ( ph /\ &#45;. ( ph &#45;&gt; ps ) ) ) ) ) )</text>
</g>
<!-- n17866 -->
<g id="node35" class="node"><title>n17866</title>
<ellipse fill="cyan" stroke="black" cx="1254.75" cy="-337.225" rx="35.9954" ry="18"/>
<text text-anchor="middle" x="1254.75" y="-333.525" font-family="Times New Roman,serif" font-size="14.00">imbi2d</text>
</g>
<!-- n17822&#45;&gt;n17866 -->
<g id="edge61" class="edge"><title>n17822&#45;&gt;n17866</title>
</g>
<!-- n17793&#45;&gt;n17822 -->
<g id="edge32" class="edge"><title>n17793&#45;&gt;n17822</title>
<path fill="none" stroke="lightgray" d="M490.159,-679.217C615.018,-678.939 1146.56,-674.945 1201,-627.225 1231.02,-600.91 1202.37,-575.518 1219,-539.225 1222.28,-532.069 1226.89,-525.004 1231.68,-518.668"/>
<polygon fill="lightgray" stroke="lightgray" points="1234.68,-520.526 1238.22,-510.541 1229.22,-516.138 1234.68,-520.526"/>
<text text-anchor="middle" x="854.5" y="-682.025" font-family="Times New Roman,serif" font-size="14.00" fill="lightgray">wff ps</text>
</g>
<!-- n17805 -->
<g id="node30" class="node"><title>n17805</title>
</g>
<!-- n17793&#45;&gt;n17805 -->
<g id="edge39" class="edge"><title>n17793&#45;&gt;n17805</title>
</g>
<!-- n17805&#45;&gt;n17822 -->
<g id="edge33" class="edge"><title>n17805&#45;&gt;n17822</title>
<path fill="none" stroke="lightgray" d="M490.376,-607.762C606.465,-609.745 1071.88,-613.596 1201,-551.225 1215.46,-544.241 1227.88,-531.419 1237.03,-519.702"/>
<polygon fill="lightgray" stroke="lightgray" points="1239.99,-521.593 1243.1,-511.465 1234.35,-517.441 1239.99,-521.593"/>
<text text-anchor="middle" x="854.5" y="-612.025" font-family="Times New Roman,serif" font-size="14.00" fill="lightgray">wff ( ( ps /\ ( ph &#45;&gt; ps ) ) \/ ( ph /\ &#45;. ( ph &#45;&gt; ps ) ) )</text>
</g>
<!-- n17806 -->
<g id="node31" class="node"><title>n17806</title>
</g>
<!-- n17805&#45;&gt;n17806 -->
<g id="edge40" class="edge"><title>n17805&#45;&gt;n17806</title>
</g>
<!-- n17806&#45;&gt;n17822 -->
<g id="edge34" class="edge"><title>n17806&#45;&gt;n17822</title>
<path fill="none" stroke="lightgray" d="M490.276,-533.861C604.903,-527.91 1061.97,-504.181 1208.38,-496.58"/>
<polygon fill="lightgray" stroke="lightgray" points="1208.97,-500.054 1218.78,-496.04 1208.61,-493.064 1208.97,-500.054"/>
<text text-anchor="middle" x="854.5" y="-536.025" font-family="Times New Roman,serif" font-size="14.00" fill="lightgray">wff ph</text>
</g>
<!-- n17821 -->
<g id="node33" class="node"><title>n17821</title>
<ellipse fill="cyan" stroke="black" cx="463" cy="-463.225" rx="27" ry="18"/>
<text text-anchor="middle" x="463" y="-459.525" font-family="Times New Roman,serif" font-size="14.00">id</text>
</g>
<!-- n17806&#45;&gt;n17821 -->
<g id="edge41" class="edge"><title>n17806&#45;&gt;n17821</title>
</g>
<!-- n17820 -->
<g id="node32" class="node"><title>n17820</title>
</g>
<!-- n17820&#45;&gt;n17821 -->
<g id="edge35" class="edge"><title>n17820&#45;&gt;n17821</title>
<path fill="none" stroke="lightgray" d="M54.1713,-463.225C128.337,-463.225 340.052,-463.225 425.539,-463.225"/>
<polygon fill="lightgray" stroke="lightgray" points="425.795,-466.725 435.795,-463.225 425.795,-459.725 425.795,-466.725"/>
<text text-anchor="middle" x="245" y="-467.025" font-family="Times New Roman,serif" font-size="14.00" fill="lightgray">wff ( ps &lt;&#45;&gt; ( ( ps /\ ( ph &#45;&gt; ps ) ) \/ ( ph /\ &#45;. ( ph &#45;&gt; ps ) ) ) )</text>
</g>
<!-- n17821&#45;&gt;n17822 -->
<g id="edge36" class="edge"><title>n17821&#45;&gt;n17822</title>
<path fill="none" stroke="black" d="M489.942,-461.835C585.236,-457.155 924.765,-444.259 1201,-481.225 1204.99,-481.759 1209.11,-482.475 1213.21,-483.299"/>
<polygon fill="black" stroke="black" points="1212.76,-486.784 1223.28,-485.525 1214.27,-479.949 1212.76,-486.784"/>
<text text-anchor="middle" x="854.5" y="-485.025" font-family="Times New Roman,serif" font-size="14.00">|&#45; ( ( ps &lt;&#45;&gt; ( ( ps /\ ( ph &#45;&gt; ps ) ) \/ ( ph /\ &#45;. ( ph &#45;&gt; ps ) ) ) ) &#45;&gt; ( ps &lt;&#45;&gt; ( ( ps /\ ( ph &#45;&gt; ps ) ) \/ ( ph /\ &#45;. ( ph &#45;&gt; ps ) ) ) ) )</text>
</g>
<!-- n17836 -->
<g id="node34" class="node"><title>n17836</title>
</g>
<!-- n17836&#45;&gt;n17866 -->
<g id="edge42" class="edge"><title>n17836&#45;&gt;n17866</title>
<path fill="none" stroke="lightgray" d="M490.141,-409.906C586.123,-411.87 927.731,-414.118 1201,-356.225 1206.36,-355.09 1211.91,-353.537 1217.3,-351.804"/>
<polygon fill="lightgray" stroke="lightgray" points="1218.47,-355.105 1226.78,-348.541 1216.19,-348.486 1218.47,-355.105"/>
<text text-anchor="middle" x="854.5" y="-415.025" font-family="Times New Roman,serif" font-size="14.00" fill="lightgray">wff ( ph &lt;&#45;&gt; ( ( ps /\ ( ph &#45;&gt; ps ) ) \/ ( ph /\ &#45;. ( ph &#45;&gt; ps ) ) ) )</text>
</g>
<!-- n17837 -->
<g id="node36" class="node"><title>n17837</title>
</g>
<!-- n17836&#45;&gt;n17837 -->
<g id="edge49" class="edge"><title>n17836&#45;&gt;n17837</title>
</g>
<!-- n17866&#45;&gt;n17869 -->
<g id="edge48" class="edge"><title>n17866&#45;&gt;n17869</title>
<path fill="none" stroke="black" d="M1287.83,-330.284C1411.52,-305.566 1862.47,-234.541 2103.49,-454.225 2131.56,-479.81 2146.61,-592.583 2152.27,-645.991"/>
<polygon fill="black" stroke="black" points="2148.81,-646.544 2153.31,-656.136 2155.77,-645.832 2148.81,-646.544"/>
<text text-anchor="middle" x="1705.99" y="-458.025" font-family="Times New Roman,serif" font-size="14.00">|&#45; ( ( ph &lt;&#45;&gt; ( ( ps /\ ( ph &#45;&gt; ps ) ) \/ ( ph /\ &#45;. ( ph &#45;&gt; ps ) ) ) ) &#45;&gt; ( ( ph &#45;&gt; ph ) &lt;&#45;&gt; ( ph &#45;&gt; ( ( ps /\ ( ph &#45;&gt; ps ) ) \/ ( ph /\ &#45;. ( ph &#45;&gt; ps ) ) ) ) ) )</text>
</g>
<!-- n17868 -->
<g id="node42" class="node"><title>n17868</title>
<ellipse fill="cyan" stroke="black" cx="1254.75" cy="-265.225" rx="27" ry="18"/>
<text text-anchor="middle" x="1254.75" y="-261.525" font-family="Times New Roman,serif" font-size="14.00">id</text>
</g>
<!-- n17866&#45;&gt;n17868 -->
<g id="edge62" class="edge"><title>n17866&#45;&gt;n17868</title>
</g>
<!-- n17837&#45;&gt;n17866 -->
<g id="edge43" class="edge"><title>n17837&#45;&gt;n17866</title>
<path fill="none" stroke="lightgray" d="M490.276,-337.225C604.903,-337.225 1061.97,-337.225 1208.38,-337.225"/>
<polygon fill="lightgray" stroke="lightgray" points="1208.78,-340.725 1218.78,-337.225 1208.78,-333.725 1208.78,-340.725"/>
<text text-anchor="middle" x="854.5" y="-341.025" font-family="Times New Roman,serif" font-size="14.00" fill="lightgray">wff ph</text>
</g>
<!-- n17849 -->
<g id="node37" class="node"><title>n17849</title>
</g>
<!-- n17837&#45;&gt;n17849 -->
<g id="edge50" class="edge"><title>n17837&#45;&gt;n17849</title>
</g>
<!-- n17849&#45;&gt;n17866 -->
<g id="edge44" class="edge"><title>n17849&#45;&gt;n17866</title>
<path fill="none" stroke="lightgray" d="M490.141,-264.544C586.123,-262.58 927.731,-260.332 1201,-318.225 1206.36,-319.36 1211.91,-320.913 1217.3,-322.646"/>
<polygon fill="lightgray" stroke="lightgray" points="1216.19,-325.964 1226.78,-325.909 1218.47,-319.345 1216.19,-325.964"/>
<text text-anchor="middle" x="854.5" y="-322.025" font-family="Times New Roman,serif" font-size="14.00" fill="lightgray">wff ( ( ps /\ ( ph &#45;&gt; ps ) ) \/ ( ph /\ &#45;. ( ph &#45;&gt; ps ) ) )</text>
</g>
<!-- n17850 -->
<g id="node38" class="node"><title>n17850</title>
</g>
<!-- n17849&#45;&gt;n17850 -->
<g id="edge51" class="edge"><title>n17849&#45;&gt;n17850</title>
</g>
<!-- n17850&#45;&gt;n17866 -->
<g id="edge45" class="edge"><title>n17850&#45;&gt;n17866</title>
<path fill="none" stroke="lightgray" d="M490.257,-191.45C607.878,-184.029 1085.58,-159.691 1201,-245.225 1218.97,-258.543 1208.05,-272.721 1219,-292.225 1223.01,-299.366 1228.07,-306.604 1233.08,-313.128"/>
<polygon fill="lightgray" stroke="lightgray" points="1230.34,-315.31 1239.31,-320.947 1235.82,-310.946 1230.34,-315.31"/>
<text text-anchor="middle" x="854.5" y="-249.025" font-family="Times New Roman,serif" font-size="14.00" fill="lightgray">wff ph</text>
</g>
<!-- n17865 -->
<g id="node40" class="node"><title>n17865</title>
<ellipse fill="cyan" stroke="black" cx="463" cy="-121.225" rx="27" ry="18"/>
<text text-anchor="middle" x="463" y="-117.525" font-family="Times New Roman,serif" font-size="14.00">id</text>
</g>
<!-- n17850&#45;&gt;n17865 -->
<g id="edge52" class="edge"><title>n17850&#45;&gt;n17865</title>
</g>
<!-- n17864 -->
<g id="node39" class="node"><title>n17864</title>
</g>
<!-- n17864&#45;&gt;n17865 -->
<g id="edge46" class="edge"><title>n17864&#45;&gt;n17865</title>
<path fill="none" stroke="lightgray" d="M54.1713,-121.225C128.337,-121.225 340.052,-121.225 425.539,-121.225"/>
<polygon fill="lightgray" stroke="lightgray" points="425.795,-124.725 435.795,-121.225 425.795,-117.725 425.795,-124.725"/>
<text text-anchor="middle" x="245" y="-125.025" font-family="Times New Roman,serif" font-size="14.00" fill="lightgray">wff ( ph &lt;&#45;&gt; ( ( ps /\ ( ph &#45;&gt; ps ) ) \/ ( ph /\ &#45;. ( ph &#45;&gt; ps ) ) ) )</text>
</g>
<!-- n17865&#45;&gt;n17866 -->
<g id="edge47" class="edge"><title>n17865&#45;&gt;n17866</title>
<path fill="none" stroke="black" d="M490.212,-120.831C615.313,-119.201 1147.81,-115.2 1201,-164.225 1222.12,-183.693 1207.85,-265.753 1219,-292.225 1222.06,-299.479 1226.58,-306.581 1231.36,-312.921"/>
<polygon fill="black" stroke="black" points="1228.91,-315.464 1237.92,-321.038 1234.36,-311.061 1228.91,-315.464"/>
<text text-anchor="middle" x="854.5" y="-168.025" font-family="Times New Roman,serif" font-size="14.00">|&#45; ( ( ph &lt;&#45;&gt; ( ( ps /\ ( ph &#45;&gt; ps ) ) \/ ( ph /\ &#45;. ( ph &#45;&gt; ps ) ) ) ) &#45;&gt; ( ph &lt;&#45;&gt; ( ( ps /\ ( ph &#45;&gt; ps ) ) \/ ( ph /\ &#45;. ( ph &#45;&gt; ps ) ) ) ) )</text>
</g>
<!-- n17867 -->
<g id="node41" class="node"><title>n17867</title>
</g>
<!-- n17867&#45;&gt;n17868 -->
<g id="edge53" class="edge"><title>n17867&#45;&gt;n17868</title>
<path fill="none" stroke="lightgray" d="M487.604,-59.5242C586.816,-28.7468 975.309,75.6419 1201,-97.2249 1244.15,-130.273 1252.8,-198.445 1254.07,-237.016"/>
<polygon fill="lightgray" stroke="lightgray" points="1250.57,-237.121 1254.25,-247.056 1257.57,-236.994 1250.57,-237.121"/>
<text text-anchor="middle" x="854.5" y="-101.025" font-family="Times New Roman,serif" font-size="14.00" fill="lightgray">wff ph</text>
</g>
<!-- n17868&#45;&gt;n17869 -->
<g id="edge54" class="edge"><title>n17868&#45;&gt;n17869</title>
<path fill="none" stroke="black" d="M1278.44,-256.428C1386.76,-216.078 1856.08,-59.922 2103.49,-281.225 2130.73,-305.586 2148.19,-560.092 2153.34,-646.047"/>
<polygon fill="black" stroke="black" points="2149.85,-646.343 2153.94,-656.12 2156.84,-645.931 2149.85,-646.343"/>
<text text-anchor="middle" x="1705.99" y="-285.025" font-family="Times New Roman,serif" font-size="14.00">|&#45; ( ph &#45;&gt; ph )</text>
</g>
</g>
</svg>
