<?xml version="1.0" encoding="UTF-8" standalone="no"?>
<!DOCTYPE svg PUBLIC "-//W3C//DTD SVG 1.1//EN"
 "http://www.w3.org/Graphics/SVG/1.1/DTD/svg11.dtd">
<!-- Generated by graphviz version 2.38.0 (20140413.2041)
 -->
<!-- Title: proof_con3 Pages: 1 -->
<svg width="816pt" height="260pt"
 viewBox="0.00 0.00 816.09 260.00" xmlns="http://www.w3.org/2000/svg" xmlns:xlink="http://www.w3.org/1999/xlink">
<g id="graph0" class="graph" transform="scale(1 1) rotate(0) translate(4 256)">
<title>proof_con3</title>
<polygon fill="white" stroke="none" points="-4,4 -4,-256 812.089,-256 812.089,4 -4,4"/>
<!-- n1503 -->
<g id="node1" class="node"><title>n1503</title>
</g>
<!-- n1510 -->
<g id="node2" class="node"><title>n1510</title>
<ellipse fill="cyan" stroke="black" cx="478.797" cy="-125" rx="33.5952" ry="18"/>
<text text-anchor="middle" x="478.797" y="-121.3" font-family="Times New Roman,serif" font-size="14.00">con3d</text>
</g>
<!-- n1503&#45;&gt;n1510 -->
<g id="edge1" class="edge"><title>n1503&#45;&gt;n1510</title>
<path fill="none" stroke="lightgray" d="M231.763,-231.227C274.695,-225.717 362.516,-210.6 427,-174 438.209,-167.638 448.783,-158.231 457.351,-149.356"/>
<polygon fill="lightgray" stroke="lightgray" points="460.127,-151.509 464.33,-141.784 454.979,-146.765 460.127,-151.509"/>
<text text-anchor="middle" x="338.5" y="-231.8" font-family="Times New Roman,serif" font-size="14.00" fill="lightgray">wff ( ph &#45;&gt; ps )</text>
</g>
<!-- n1504 -->
<g id="node3" class="node"><title>n1504</title>
</g>
<!-- n1503&#45;&gt;n1504 -->
<g id="edge7" class="edge"><title>n1503&#45;&gt;n1504</title>
</g>
<!-- QED -->
<g id="node7" class="node"><title>QED</title>
</g>
<!-- n1510&#45;&gt;QED -->
<g id="edge6" class="edge"><title>n1510&#45;&gt;QED</title>
<path fill="none" stroke="black" d="M512.832,-125C568.45,-125 680.478,-125 739.483,-125"/>
<polygon fill="black" stroke="black" points="739.515,-128.5 749.514,-125 739.514,-121.5 739.515,-128.5"/>
<text text-anchor="middle" x="631.094" y="-128.8" font-family="Times New Roman,serif" font-size="14.00">|&#45; ( ( ph &#45;&gt; ps ) &#45;&gt; ( &#45;. ps &#45;&gt; &#45;. ph ) )</text>
</g>
<!-- n1504&#45;&gt;n1510 -->
<g id="edge2" class="edge"><title>n1504&#45;&gt;n1510</title>
<path fill="none" stroke="lightgray" d="M231.57,-158.519C278.471,-152.134 378.663,-138.495 435.729,-130.727"/>
<polygon fill="lightgray" stroke="lightgray" points="436.423,-134.165 445.86,-129.348 435.479,-127.229 436.423,-134.165"/>
<text text-anchor="middle" x="338.5" y="-158.8" font-family="Times New Roman,serif" font-size="14.00" fill="lightgray">wff ph</text>
</g>
<!-- n1505 -->
<g id="node4" class="node"><title>n1505</title>
</g>
<!-- n1504&#45;&gt;n1505 -->
<g id="edge8" class="edge"><title>n1504&#45;&gt;n1505</title>
</g>
<!-- n1505&#45;&gt;n1510 -->
<g id="edge3" class="edge"><title>n1505&#45;&gt;n1510</title>
<path fill="none" stroke="lightgray" d="M231.922,-92.5551C273.273,-96.7421 356.675,-105.642 427,-116 430.19,-116.47 433.487,-116.985 436.798,-117.525"/>
<polygon fill="lightgray" stroke="lightgray" points="436.239,-120.98 446.681,-119.192 437.403,-114.077 436.239,-120.98"/>
<text text-anchor="middle" x="338.5" y="-119.8" font-family="Times New Roman,serif" font-size="14.00" fill="lightgray">wff ps</text>
</g>
<!-- n1509 -->
<g id="node6" class="node"><title>n1509</title>
<ellipse fill="cyan" stroke="black" cx="205" cy="-18" rx="27" ry="18"/>
<text text-anchor="middle" x="205" y="-14.3" font-family="Times New Roman,serif" font-size="14.00">id</text>
</g>
<!-- n1505&#45;&gt;n1509 -->
<g id="edge9" class="edge"><title>n1505&#45;&gt;n1509</title>
</g>
<!-- n1508 -->
<g id="node5" class="node"><title>n1508</title>
</g>
<!-- n1508&#45;&gt;n1509 -->
<g id="edge4" class="edge"><title>n1508&#45;&gt;n1509</title>
<path fill="none" stroke="lightgray" d="M54.349,-18C84.3749,-18 133.645,-18 167.391,-18"/>
<polygon fill="lightgray" stroke="lightgray" points="167.759,-21.5001 177.759,-18 167.759,-14.5001 167.759,-21.5001"/>
<text text-anchor="middle" x="116" y="-21.8" font-family="Times New Roman,serif" font-size="14.00" fill="lightgray">wff ( ph &#45;&gt; ps )</text>
</g>
<!-- n1509&#45;&gt;n1510 -->
<g id="edge5" class="edge"><title>n1509&#45;&gt;n1510</title>
<path fill="none" stroke="black" d="M231.761,-20.489C274.69,-25.537 362.508,-39.7542 427,-76 438.236,-82.3148 448.814,-91.7129 457.379,-100.594"/>
<polygon fill="black" stroke="black" points="455.007,-103.185 464.353,-108.176 460.159,-98.4464 455.007,-103.185"/>
<text text-anchor="middle" x="338.5" y="-79.8" font-family="Times New Roman,serif" font-size="14.00">|&#45; ( ( ph &#45;&gt; ps ) &#45;&gt; ( ph &#45;&gt; ps ) )</text>
</g>
</g>
</svg>
