<?xml version="1.0" encoding="UTF-8" standalone="no"?>
<!DOCTYPE svg PUBLIC "-//W3C//DTD SVG 1.1//EN"
 "http://www.w3.org/Graphics/SVG/1.1/DTD/svg11.dtd">
<!-- Generated by graphviz version 2.38.0 (20140413.2041)
 -->
<!-- Title: proof_dedlem0a Pages: 1 -->
<svg width="1505pt" height="714pt"
 viewBox="0.00 0.00 1504.58 714.00" xmlns="http://www.w3.org/2000/svg" xmlns:xlink="http://www.w3.org/1999/xlink">
<g id="graph0" class="graph" transform="scale(1 1) rotate(0) translate(4 710)">
<title>proof_dedlem0a</title>
<polygon fill="white" stroke="none" points="-4,4 -4,-710 1500.58,-710 1500.58,4 -4,4"/>
<!-- n17321 -->
<g id="node1" class="node"><title>n17321</title>
</g>
<!-- n17362 -->
<g id="node2" class="node"><title>n17362</title>
<ellipse fill="cyan" stroke="black" cx="1093.14" cy="-496" rx="27.8951" ry="18"/>
<text text-anchor="middle" x="1093.14" y="-492.3" font-family="Times New Roman,serif" font-size="14.00">bitrd</text>
</g>
<!-- n17321&#45;&gt;n17362 -->
<g id="edge1" class="edge"><title>n17321&#45;&gt;n17362</title>
<path fill="none" stroke="lightgray" d="M701.279,-681.742C766.534,-692.55 943.693,-711.924 1047.19,-627 1077.82,-601.87 1087.64,-554.823 1090.75,-524.48"/>
<polygon fill="lightgray" stroke="lightgray" points="1094.28,-524.387 1091.62,-514.129 1087.3,-523.801 1094.28,-524.387"/>
<text text-anchor="middle" x="883.695" y="-694.8" font-family="Times New Roman,serif" font-size="14.00" fill="lightgray">wff ph</text>
</g>
<!-- n17322 -->
<g id="node3" class="node"><title>n17322</title>
</g>
<!-- n17321&#45;&gt;n17322 -->
<g id="edge26" class="edge"><title>n17321&#45;&gt;n17322</title>
</g>
<!-- QED -->
<g id="node19" class="node"><title>QED</title>
</g>
<!-- n17362&#45;&gt;QED -->
<g id="edge25" class="edge"><title>n17362&#45;&gt;QED</title>
<path fill="none" stroke="black" d="M1121.21,-496C1186.39,-496 1352.27,-496 1427.81,-496"/>
<polygon fill="black" stroke="black" points="1427.85,-499.5 1437.85,-496 1427.85,-492.5 1427.85,-499.5"/>
<text text-anchor="middle" x="1279.59" y="-499.8" font-family="Times New Roman,serif" font-size="14.00">|&#45; ( ph &#45;&gt; ( ps &lt;&#45;&gt; ( ( ch &#45;&gt; ph ) &#45;&gt; ( ps /\ ph ) ) ) )</text>
</g>
<!-- n17322&#45;&gt;n17362 -->
<g id="edge2" class="edge"><title>n17322&#45;&gt;n17362</title>
<path fill="none" stroke="lightgray" d="M702.431,-606.915C765.979,-610.353 931.436,-612.028 1047.19,-548 1058.86,-541.548 1068.9,-530.824 1076.52,-520.785"/>
<polygon fill="lightgray" stroke="lightgray" points="1079.38,-522.8 1082.33,-512.623 1073.68,-518.741 1079.38,-522.8"/>
<text text-anchor="middle" x="883.695" y="-611.8" font-family="Times New Roman,serif" font-size="14.00" fill="lightgray">wff ps</text>
</g>
<!-- n17325 -->
<g id="node4" class="node"><title>n17325</title>
</g>
<!-- n17322&#45;&gt;n17325 -->
<g id="edge27" class="edge"><title>n17322&#45;&gt;n17325</title>
</g>
<!-- n17325&#45;&gt;n17362 -->
<g id="edge3" class="edge"><title>n17325&#45;&gt;n17362</title>
<path fill="none" stroke="lightgray" d="M702.326,-531.262C762.987,-527.13 918.038,-516.008 1047.19,-502 1049.89,-501.708 1052.67,-501.385 1055.47,-501.047"/>
<polygon fill="lightgray" stroke="lightgray" points="1056.07,-504.499 1065.55,-499.771 1055.19,-497.555 1056.07,-504.499"/>
<text text-anchor="middle" x="883.695" y="-532.8" font-family="Times New Roman,serif" font-size="14.00" fill="lightgray">wff ( ps /\ ph )</text>
</g>
<!-- n17332 -->
<g id="node5" class="node"><title>n17332</title>
</g>
<!-- n17325&#45;&gt;n17332 -->
<g id="edge28" class="edge"><title>n17325&#45;&gt;n17332</title>
</g>
<!-- n17332&#45;&gt;n17362 -->
<g id="edge4" class="edge"><title>n17332&#45;&gt;n17362</title>
<path fill="none" stroke="lightgray" d="M702.4,-461.687C763.217,-463.533 918.574,-469.688 1047.19,-487 1050.25,-487.411 1053.41,-487.904 1056.58,-488.445"/>
<polygon fill="lightgray" stroke="lightgray" points="1056.1,-491.916 1066.57,-490.292 1057.37,-485.032 1056.1,-491.916"/>
<text text-anchor="middle" x="883.695" y="-490.8" font-family="Times New Roman,serif" font-size="14.00" fill="lightgray">wff ( ( ch &#45;&gt; ph ) &#45;&gt; ( ps /\ ph ) )</text>
</g>
<!-- n17335 -->
<g id="node7" class="node"><title>n17335</title>
<ellipse fill="cyan" stroke="black" cx="675.195" cy="-389" rx="27" ry="18"/>
<text text-anchor="middle" x="675.195" y="-385.3" font-family="Times New Roman,serif" font-size="14.00">iba</text>
</g>
<!-- n17332&#45;&gt;n17335 -->
<g id="edge29" class="edge"><title>n17332&#45;&gt;n17335</title>
</g>
<!-- n17333 -->
<g id="node6" class="node"><title>n17333</title>
</g>
<!-- n17333&#45;&gt;n17335 -->
<g id="edge5" class="edge"><title>n17333&#45;&gt;n17335</title>
<path fill="none" stroke="lightgray" d="M233.559,-499.579C302.776,-505.232 495.616,-512.912 630.195,-440 641.487,-433.882 651.189,-423.627 658.586,-413.91"/>
<polygon fill="lightgray" stroke="lightgray" points="661.533,-415.805 664.476,-405.627 655.828,-411.749 661.533,-415.805"/>
<text text-anchor="middle" x="441.695" y="-505.8" font-family="Times New Roman,serif" font-size="14.00" fill="lightgray">wff ph</text>
</g>
<!-- n17334 -->
<g id="node8" class="node"><title>n17334</title>
</g>
<!-- n17333&#45;&gt;n17334 -->
<g id="edge8" class="edge"><title>n17333&#45;&gt;n17334</title>
</g>
<!-- n17335&#45;&gt;n17362 -->
<g id="edge7" class="edge"><title>n17335&#45;&gt;n17362</title>
<path fill="none" stroke="black" d="M702.455,-386.751C766.056,-382.529 931.621,-378.961 1047.19,-443 1059.07,-449.578 1069.18,-460.61 1076.8,-470.911"/>
<polygon fill="black" stroke="black" points="1074.02,-473.046 1082.59,-479.278 1079.78,-469.063 1074.02,-473.046"/>
<text text-anchor="middle" x="883.695" y="-446.8" font-family="Times New Roman,serif" font-size="14.00">|&#45; ( ph &#45;&gt; ( ps &lt;&#45;&gt; ( ps /\ ph ) ) )</text>
</g>
<!-- n17361 -->
<g id="node10" class="node"><title>n17361</title>
<ellipse fill="cyan" stroke="black" cx="675.195" cy="-299" rx="27" ry="18"/>
<text text-anchor="middle" x="675.195" y="-295.3" font-family="Times New Roman,serif" font-size="14.00">syl</text>
</g>
<!-- n17335&#45;&gt;n17361 -->
<g id="edge30" class="edge"><title>n17335&#45;&gt;n17361</title>
</g>
<!-- n17334&#45;&gt;n17335 -->
<g id="edge6" class="edge"><title>n17334&#45;&gt;n17335</title>
<path fill="none" stroke="lightgray" d="M233.684,-422.987C312.42,-416.913 547.808,-398.751 638.25,-391.773"/>
<polygon fill="lightgray" stroke="lightgray" points="638.592,-395.257 648.293,-390.998 638.053,-388.278 638.592,-395.257"/>
<text text-anchor="middle" x="441.695" y="-424.8" font-family="Times New Roman,serif" font-size="14.00" fill="lightgray">wff ps</text>
</g>
<!-- n17336 -->
<g id="node9" class="node"><title>n17336</title>
</g>
<!-- n17336&#45;&gt;n17361 -->
<g id="edge9" class="edge"><title>n17336&#45;&gt;n17361</title>
<path fill="none" stroke="lightgray" d="M233.819,-370.275C300.935,-367.874 483.952,-357.876 630.195,-318 634.65,-316.785 639.242,-315.204 643.701,-313.473"/>
<polygon fill="lightgray" stroke="lightgray" points="645.27,-316.61 653.148,-309.526 642.571,-310.151 645.27,-316.61"/>
<text text-anchor="middle" x="441.695" y="-372.8" font-family="Times New Roman,serif" font-size="14.00" fill="lightgray">wff ph</text>
</g>
<!-- n17339 -->
<g id="node11" class="node"><title>n17339</title>
</g>
<!-- n17336&#45;&gt;n17339 -->
<g id="edge21" class="edge"><title>n17336&#45;&gt;n17339</title>
</g>
<!-- n17361&#45;&gt;n17362 -->
<g id="edge20" class="edge"><title>n17361&#45;&gt;n17362</title>
<path fill="none" stroke="black" d="M701.889,-295.483C767.841,-287.971 945.08,-277.555 1047.19,-365 1077.12,-390.629 1087.15,-437.127 1090.5,-467.273"/>
<polygon fill="black" stroke="black" points="1087.04,-467.936 1091.45,-477.571 1094.01,-467.291 1087.04,-467.936"/>
<text text-anchor="middle" x="883.695" y="-368.8" font-family="Times New Roman,serif" font-size="14.00">|&#45; ( ph &#45;&gt; ( ( ps /\ ph ) &lt;&#45;&gt; ( ( ch &#45;&gt; ph ) &#45;&gt; ( ps /\ ph ) ) ) )</text>
</g>
<!-- n17339&#45;&gt;n17361 -->
<g id="edge10" class="edge"><title>n17339&#45;&gt;n17361</title>
<path fill="none" stroke="lightgray" d="M233.684,-299C312.327,-299 547.256,-299 637.931,-299"/>
<polygon fill="lightgray" stroke="lightgray" points="638.005,-302.5 648.005,-299 638.005,-295.5 638.005,-302.5"/>
<text text-anchor="middle" x="441.695" y="-302.8" font-family="Times New Roman,serif" font-size="14.00" fill="lightgray">wff ( ch &#45;&gt; ph )</text>
</g>
<!-- n17350 -->
<g id="node12" class="node"><title>n17350</title>
</g>
<!-- n17339&#45;&gt;n17350 -->
<g id="edge22" class="edge"><title>n17339&#45;&gt;n17350</title>
</g>
<!-- n17350&#45;&gt;n17361 -->
<g id="edge11" class="edge"><title>n17350&#45;&gt;n17361</title>
<path fill="none" stroke="lightgray" d="M233.819,-227.725C300.935,-230.126 483.952,-240.124 630.195,-280 634.65,-281.215 639.242,-282.796 643.701,-284.527"/>
<polygon fill="lightgray" stroke="lightgray" points="642.571,-287.849 653.148,-288.474 645.27,-281.39 642.571,-287.849"/>
<text text-anchor="middle" x="441.695" y="-283.8" font-family="Times New Roman,serif" font-size="14.00" fill="lightgray">wff ( ( ps /\ ph ) &lt;&#45;&gt; ( ( ch &#45;&gt; ph ) &#45;&gt; ( ps /\ ph ) ) )</text>
</g>
<!-- n17353 -->
<g id="node14" class="node"><title>n17353</title>
<ellipse fill="lawngreen" stroke="black" cx="206.597" cy="-155" rx="27" ry="18"/>
<text text-anchor="middle" x="206.597" y="-151.3" font-family="Times New Roman,serif" font-size="14.00">ax&#45;1</text>
</g>
<!-- n17350&#45;&gt;n17353 -->
<g id="edge23" class="edge"><title>n17350&#45;&gt;n17353</title>
</g>
<!-- n17351 -->
<g id="node13" class="node"><title>n17351</title>
</g>
<!-- n17351&#45;&gt;n17353 -->
<g id="edge12" class="edge"><title>n17351&#45;&gt;n17353</title>
<path fill="none" stroke="lightgray" d="M51.4212,-210.008C77.8517,-200.951 122.103,-185.666 160,-172 164.227,-170.476 168.666,-168.851 173.046,-167.233"/>
<polygon fill="lightgray" stroke="lightgray" points="174.281,-170.508 182.436,-163.745 171.843,-163.946 174.281,-170.508"/>
<text text-anchor="middle" x="116" y="-206.8" font-family="Times New Roman,serif" font-size="14.00" fill="lightgray">wff ph</text>
</g>
<!-- n17352 -->
<g id="node15" class="node"><title>n17352</title>
</g>
<!-- n17351&#45;&gt;n17352 -->
<g id="edge15" class="edge"><title>n17351&#45;&gt;n17352</title>
</g>
<!-- n17353&#45;&gt;n17361 -->
<g id="edge14" class="edge"><title>n17353&#45;&gt;n17361</title>
<path fill="none" stroke="black" d="M232.883,-150.714C303.299,-140.23 504.693,-120.301 630.195,-210 650.469,-224.49 661.877,-250.999 667.967,-271.33"/>
<polygon fill="black" stroke="black" points="664.602,-272.295 670.615,-281.018 671.354,-270.449 664.602,-272.295"/>
<text text-anchor="middle" x="441.695" y="-213.8" font-family="Times New Roman,serif" font-size="14.00">|&#45; ( ph &#45;&gt; ( ch &#45;&gt; ph ) )</text>
</g>
<!-- n17360 -->
<g id="node17" class="node"><title>n17360</title>
<ellipse fill="cyan" stroke="black" cx="206.597" cy="-83" rx="28.6953" ry="18"/>
<text text-anchor="middle" x="206.597" y="-79.3" font-family="Times New Roman,serif" font-size="14.00">biimt</text>
</g>
<!-- n17353&#45;&gt;n17360 -->
<g id="edge24" class="edge"><title>n17353&#45;&gt;n17360</title>
</g>
<!-- n17352&#45;&gt;n17353 -->
<g id="edge13" class="edge"><title>n17352&#45;&gt;n17353</title>
<path fill="none" stroke="lightgray" d="M54.2051,-147.328C84.7224,-148.874 135.307,-151.438 169.522,-153.172"/>
<polygon fill="lightgray" stroke="lightgray" points="169.41,-156.671 179.574,-153.681 169.764,-149.68 169.41,-156.671"/>
<text text-anchor="middle" x="116" y="-156.8" font-family="Times New Roman,serif" font-size="14.00" fill="lightgray">wff ch</text>
</g>
<!-- n17356 -->
<g id="node16" class="node"><title>n17356</title>
</g>
<!-- n17356&#45;&gt;n17360 -->
<g id="edge16" class="edge"><title>n17356&#45;&gt;n17360</title>
<path fill="none" stroke="lightgray" d="M54.2051,-88.9671C84.1977,-87.785 133.574,-85.8388 167.743,-84.492"/>
<polygon fill="lightgray" stroke="lightgray" points="167.966,-87.9861 177.82,-84.0948 167.69,-80.9915 167.966,-87.9861"/>
<text text-anchor="middle" x="116" y="-92.8" font-family="Times New Roman,serif" font-size="14.00" fill="lightgray">wff ( ch &#45;&gt; ph )</text>
</g>
<!-- n17359 -->
<g id="node18" class="node"><title>n17359</title>
</g>
<!-- n17356&#45;&gt;n17359 -->
<g id="edge19" class="edge"><title>n17356&#45;&gt;n17359</title>
</g>
<!-- n17360&#45;&gt;n17361 -->
<g id="edge18" class="edge"><title>n17360&#45;&gt;n17361</title>
<path fill="none" stroke="black" d="M233.29,-76.3964C305.64,-59.4703 513.399,-22.5911 630.195,-123 652.369,-142.063 665.525,-226.071 671.079,-270.778"/>
<polygon fill="black" stroke="black" points="667.636,-271.463 672.299,-280.977 674.586,-270.632 667.636,-271.463"/>
<text text-anchor="middle" x="441.695" y="-126.8" font-family="Times New Roman,serif" font-size="14.00">|&#45; ( ( ch &#45;&gt; ph ) &#45;&gt; ( ( ps /\ ph ) &lt;&#45;&gt; ( ( ch &#45;&gt; ph ) &#45;&gt; ( ps /\ ph ) ) ) )</text>
</g>
<!-- n17359&#45;&gt;n17360 -->
<g id="edge17" class="edge"><title>n17359&#45;&gt;n17360</title>
<path fill="none" stroke="lightgray" d="M51.3883,-26.4402C77.7893,-35.9827 122.015,-52.0128 160,-66 163.815,-67.4049 167.808,-68.8824 171.776,-70.3555"/>
<polygon fill="lightgray" stroke="lightgray" points="170.881,-73.757 181.474,-73.9645 173.322,-67.1965 170.881,-73.757"/>
<text text-anchor="middle" x="116" y="-69.8" font-family="Times New Roman,serif" font-size="14.00" fill="lightgray">wff ( ps /\ ph )</text>
</g>
</g>
</svg>
