<?xml version="1.0" encoding="UTF-8" standalone="no"?>
<!DOCTYPE svg PUBLIC "-//W3C//DTD SVG 1.1//EN"
 "http://www.w3.org/Graphics/SVG/1.1/DTD/svg11.dtd">
<!-- Generated by graphviz version 2.38.0 (20140413.2041)
 -->
<!-- Title: proof_dfbi2 Pages: 1 -->
<svg width="1130pt" height="409pt"
 viewBox="0.00 0.00 1129.78 409.00" xmlns="http://www.w3.org/2000/svg" xmlns:xlink="http://www.w3.org/1999/xlink">
<g id="graph0" class="graph" transform="scale(1 1) rotate(0) translate(4 405)">
<title>proof_dfbi2</title>
<polygon fill="white" stroke="none" points="-4,4 -4,-405 1125.78,-405 1125.78,4 -4,4"/>
<!-- n10717 -->
<g id="node1" class="node"><title>n10717</title>
</g>
<!-- n10744 -->
<g id="node2" class="node"><title>n10744</title>
<ellipse fill="cyan" stroke="black" cx="709.042" cy="-227" rx="29.4969" ry="18"/>
<text text-anchor="middle" x="709.042" y="-223.3" font-family="Times New Roman,serif" font-size="14.00">bitr4i</text>
</g>
<!-- n10717&#45;&gt;n10744 -->
<g id="edge1" class="edge"><title>n10717&#45;&gt;n10744</title>
<path fill="none" stroke="lightgray" d="M234.271,-375.49C307.91,-387.068 525.101,-410.768 661.795,-316 682.484,-301.657 694.555,-275.129 701.143,-254.753"/>
<polygon fill="lightgray" stroke="lightgray" points="704.536,-255.624 704.028,-245.041 697.825,-253.63 704.536,-255.624"/>
<text text-anchor="middle" x="458.795" y="-389.8" font-family="Times New Roman,serif" font-size="14.00" fill="lightgray">wff ( ph &lt;&#45;&gt; ps )</text>
</g>
<!-- n10726 -->
<g id="node3" class="node"><title>n10726</title>
</g>
<!-- n10717&#45;&gt;n10726 -->
<g id="edge13" class="edge"><title>n10717&#45;&gt;n10726</title>
</g>
<!-- QED -->
<g id="node11" class="node"><title>QED</title>
</g>
<!-- n10744&#45;&gt;QED -->
<g id="edge12" class="edge"><title>n10744&#45;&gt;QED</title>
<path fill="none" stroke="black" d="M738.405,-227C805.941,-227 976.353,-227 1053.06,-227"/>
<polygon fill="black" stroke="black" points="1053.25,-230.5 1063.25,-227 1053.25,-223.5 1053.25,-230.5"/>
<text text-anchor="middle" x="900.79" y="-230.8" font-family="Times New Roman,serif" font-size="14.00">|&#45; ( ( ph &lt;&#45;&gt; ps ) &lt;&#45;&gt; ( ( ph &#45;&gt; ps ) /\ ( ps &#45;&gt; ph ) ) )</text>
</g>
<!-- n10726&#45;&gt;n10744 -->
<g id="edge2" class="edge"><title>n10726&#45;&gt;n10744</title>
<path fill="none" stroke="lightgray" d="M234.886,-298.429C304.947,-296.364 503.147,-287.043 661.795,-246 666.485,-244.787 671.328,-243.199 676.035,-241.459"/>
<polygon fill="lightgray" stroke="lightgray" points="677.406,-244.68 685.412,-237.741 674.826,-238.173 677.406,-244.68"/>
<text text-anchor="middle" x="458.795" y="-300.8" font-family="Times New Roman,serif" font-size="14.00" fill="lightgray">wff &#45;. ( ( ph &#45;&gt; ps ) &#45;&gt; &#45;. ( ps &#45;&gt; ph ) )</text>
</g>
<!-- n10733 -->
<g id="node4" class="node"><title>n10733</title>
</g>
<!-- n10726&#45;&gt;n10733 -->
<g id="edge14" class="edge"><title>n10726&#45;&gt;n10733</title>
</g>
<!-- n10733&#45;&gt;n10744 -->
<g id="edge3" class="edge"><title>n10733&#45;&gt;n10744</title>
<path fill="none" stroke="lightgray" d="M235.031,-227C317.395,-227 571.871,-227 669.429,-227"/>
<polygon fill="lightgray" stroke="lightgray" points="669.722,-230.5 679.722,-227 669.722,-223.5 669.722,-230.5"/>
<text text-anchor="middle" x="458.795" y="-230.8" font-family="Times New Roman,serif" font-size="14.00" fill="lightgray">wff ( ( ph &#45;&gt; ps ) /\ ( ps &#45;&gt; ph ) )</text>
</g>
<!-- n10736 -->
<g id="node6" class="node"><title>n10736</title>
<ellipse fill="cyan" stroke="black" cx="207.897" cy="-155" rx="29.795" ry="18"/>
<text text-anchor="middle" x="207.897" y="-151.3" font-family="Times New Roman,serif" font-size="14.00">dfbi1</text>
</g>
<!-- n10733&#45;&gt;n10736 -->
<g id="edge15" class="edge"><title>n10733&#45;&gt;n10736</title>
</g>
<!-- n10734 -->
<g id="node5" class="node"><title>n10734</title>
</g>
<!-- n10734&#45;&gt;n10736 -->
<g id="edge4" class="edge"><title>n10734&#45;&gt;n10736</title>
<path fill="none" stroke="lightgray" d="M51.3982,-209.944C77.8082,-200.829 122.042,-185.493 160,-172 163.947,-170.597 168.078,-169.117 172.181,-167.639"/>
<polygon fill="lightgray" stroke="lightgray" points="173.391,-170.924 181.606,-164.233 171.011,-164.34 173.391,-170.924"/>
<text text-anchor="middle" x="116" y="-205.8" font-family="Times New Roman,serif" font-size="14.00" fill="lightgray">wff ph</text>
</g>
<!-- n10735 -->
<g id="node7" class="node"><title>n10735</title>
</g>
<!-- n10734&#45;&gt;n10735 -->
<g id="edge7" class="edge"><title>n10734&#45;&gt;n10735</title>
</g>
<!-- n10736&#45;&gt;n10744 -->
<g id="edge6" class="edge"><title>n10736&#45;&gt;n10744</title>
<path fill="none" stroke="black" d="M238.013,-155.665C310.684,-157.913 505.446,-167.552 661.795,-208 666.485,-209.213 671.328,-210.801 676.035,-212.541"/>
<polygon fill="black" stroke="black" points="674.826,-215.827 685.412,-216.259 677.406,-209.32 674.826,-215.827"/>
<text text-anchor="middle" x="458.795" y="-211.8" font-family="Times New Roman,serif" font-size="14.00">|&#45; ( ( ph &lt;&#45;&gt; ps ) &lt;&#45;&gt; &#45;. ( ( ph &#45;&gt; ps ) &#45;&gt; &#45;. ( ps &#45;&gt; ph ) ) )</text>
</g>
<!-- n10743 -->
<g id="node9" class="node"><title>n10743</title>
<ellipse fill="lawngreen" stroke="black" cx="207.897" cy="-83" rx="29.795" ry="18"/>
<text text-anchor="middle" x="207.897" y="-79.3" font-family="Times New Roman,serif" font-size="14.00">df&#45;an</text>
</g>
<!-- n10736&#45;&gt;n10743 -->
<g id="edge16" class="edge"><title>n10736&#45;&gt;n10743</title>
</g>
<!-- n10735&#45;&gt;n10736 -->
<g id="edge5" class="edge"><title>n10735&#45;&gt;n10736</title>
<path fill="none" stroke="lightgray" d="M54.0132,-147.309C83.8729,-148.811 133.163,-151.291 167.683,-153.027"/>
<polygon fill="lightgray" stroke="lightgray" points="167.721,-156.533 177.884,-153.54 168.073,-149.542 167.721,-156.533"/>
<text text-anchor="middle" x="116" y="-156.8" font-family="Times New Roman,serif" font-size="14.00" fill="lightgray">wff ps</text>
</g>
<!-- n10739 -->
<g id="node8" class="node"><title>n10739</title>
</g>
<!-- n10739&#45;&gt;n10743 -->
<g id="edge8" class="edge"><title>n10739&#45;&gt;n10743</title>
<path fill="none" stroke="lightgray" d="M54.0132,-88.9821C83.8729,-87.8138 133.163,-85.8851 167.683,-84.5344"/>
<polygon fill="lightgray" stroke="lightgray" points="168.029,-88.0237 177.884,-84.1353 167.755,-81.029 168.029,-88.0237"/>
<text text-anchor="middle" x="116" y="-92.8" font-family="Times New Roman,serif" font-size="14.00" fill="lightgray">wff ( ph &#45;&gt; ps )</text>
</g>
<!-- n10742 -->
<g id="node10" class="node"><title>n10742</title>
</g>
<!-- n10739&#45;&gt;n10742 -->
<g id="edge11" class="edge"><title>n10739&#45;&gt;n10742</title>
</g>
<!-- n10743&#45;&gt;n10744 -->
<g id="edge10" class="edge"><title>n10743&#45;&gt;n10744</title>
<path fill="none" stroke="black" d="M236.687,-78.1336C312.555,-66.4382 526.565,-44.247 661.795,-138 682.484,-152.343 694.555,-178.871 701.143,-199.247"/>
<polygon fill="black" stroke="black" points="697.825,-200.37 704.028,-208.959 704.536,-198.376 697.825,-200.37"/>
<text text-anchor="middle" x="458.795" y="-141.8" font-family="Times New Roman,serif" font-size="14.00">|&#45; ( ( ( ph &#45;&gt; ps ) /\ ( ps &#45;&gt; ph ) ) &lt;&#45;&gt; &#45;. ( ( ph &#45;&gt; ps ) &#45;&gt; &#45;. ( ps &#45;&gt; ph ) ) )</text>
</g>
<!-- n10742&#45;&gt;n10743 -->
<g id="edge9" class="edge"><title>n10742&#45;&gt;n10743</title>
<path fill="none" stroke="lightgray" d="M51.0215,-26.3645C81.8162,-37.5534 136.675,-57.4857 172.415,-70.4713"/>
<polygon fill="lightgray" stroke="lightgray" points="171.359,-73.8112 181.953,-73.9367 173.749,-67.232 171.359,-73.8112"/>
<text text-anchor="middle" x="116" y="-69.8" font-family="Times New Roman,serif" font-size="14.00" fill="lightgray">wff ( ps &#45;&gt; ph )</text>
</g>
</g>
</svg>
