<?xml version="1.0" encoding="UTF-8" standalone="no"?>
<!DOCTYPE svg PUBLIC "-//W3C//DTD SVG 1.1//EN"
 "http://www.w3.org/Graphics/SVG/1.1/DTD/svg11.dtd">
<!-- Generated by graphviz version 2.38.0 (20140413.2041)
 -->
<!-- Title: proof_dn1 Pages: 1 -->
<svg width="3127pt" height="1088pt"
 viewBox="0.00 0.00 3126.76 1088.00" xmlns="http://www.w3.org/2000/svg" xmlns:xlink="http://www.w3.org/1999/xlink">
<g id="graph0" class="graph" transform="scale(1 1) rotate(0) translate(4 1084)">
<title>proof_dn1</title>
<polygon fill="white" stroke="none" points="-4,4 -4,-1084 3122.76,-1084 3122.76,4 -4,4"/>
<!-- n18264 -->
<g id="node1" class="node"><title>n18264</title>
</g>
<!-- n18477 -->
<g id="node2" class="node"><title>n18477</title>
<ellipse fill="cyan" stroke="black" cx="2555.77" cy="-788" rx="32.4942" ry="18"/>
<text text-anchor="middle" x="2555.77" y="-784.3" font-family="Times New Roman,serif" font-size="14.00">3bitrri</text>
</g>
<!-- n18264&#45;&gt;n18477 -->
<g id="edge1" class="edge"><title>n18264&#45;&gt;n18477</title>
<path fill="none" stroke="lightgray" d="M1727.8,-1011.12C1833.35,-1040.84 2261.44,-1144.58 2505.28,-951 2546.07,-918.615 2554.16,-853.644 2555.24,-816.25"/>
<polygon fill="lightgray" stroke="lightgray" points="2558.74,-816.087 2555.38,-806.04 2551.74,-815.992 2558.74,-816.087"/>
<text text-anchor="middle" x="2129.28" y="-1068.8" font-family="Times New Roman,serif" font-size="14.00" fill="lightgray">wff ch</text>
</g>
<!-- n18274 -->
<g id="node3" class="node"><title>n18274</title>
</g>
<!-- n18264&#45;&gt;n18274 -->
<g id="edge85" class="edge"><title>n18264&#45;&gt;n18274</title>
</g>
<!-- QED -->
<g id="node54" class="node"><title>QED</title>
</g>
<!-- n18477&#45;&gt;QED -->
<g id="edge84" class="edge"><title>n18477&#45;&gt;QED</title>
<path fill="none" stroke="black" d="M2588.44,-788C2680.76,-788 2949.39,-788 3049.93,-788"/>
<polygon fill="black" stroke="black" points="3049.96,-791.5 3059.96,-788 3049.96,-784.5 3049.96,-791.5"/>
<text text-anchor="middle" x="2824.27" y="-791.8" font-family="Times New Roman,serif" font-size="14.00">|&#45; ( &#45;. ( &#45;. ( &#45;. ( ph \/ ps ) \/ ch ) \/ &#45;. ( ph \/ &#45;. ( &#45;. ch \/ &#45;. ( ch \/ th ) ) ) ) &lt;&#45;&gt; ch )</text>
</g>
<!-- n18274&#45;&gt;n18477 -->
<g id="edge2" class="edge"><title>n18274&#45;&gt;n18477</title>
<path fill="none" stroke="lightgray" d="M1730.18,-931.912C1861.32,-931.275 2438.99,-926.029 2505.28,-883 2528.57,-867.877 2541.53,-838.067 2548.29,-815.853"/>
<polygon fill="lightgray" stroke="lightgray" points="2551.73,-816.532 2551.05,-805.959 2544.99,-814.651 2551.73,-816.532"/>
<text text-anchor="middle" x="2129.28" y="-935.8" font-family="Times New Roman,serif" font-size="14.00" fill="lightgray">wff ( ( &#45;. ( ph \/ ps ) \/ ch ) /\ ( ph \/ ch ) )</text>
</g>
<!-- n18291 -->
<g id="node4" class="node"><title>n18291</title>
</g>
<!-- n18274&#45;&gt;n18291 -->
<g id="edge86" class="edge"><title>n18274&#45;&gt;n18291</title>
</g>
<!-- n18291&#45;&gt;n18477 -->
<g id="edge3" class="edge"><title>n18291&#45;&gt;n18477</title>
<path fill="none" stroke="lightgray" d="M1729.78,-861.081C1830.78,-864.695 2206.31,-872.686 2505.28,-807 2510.32,-805.893 2515.52,-804.359 2520.58,-802.639"/>
<polygon fill="lightgray" stroke="lightgray" points="2521.86,-805.897 2530.04,-799.165 2519.45,-799.326 2521.86,-805.897"/>
<text text-anchor="middle" x="2129.28" y="-867.8" font-family="Times New Roman,serif" font-size="14.00" fill="lightgray">wff ( ( &#45;. ( ph \/ ps ) \/ ch ) /\ ( ph \/ &#45;. ( &#45;. ch \/ &#45;. ( ch \/ th ) ) ) )</text>
</g>
<!-- n18311 -->
<g id="node5" class="node"><title>n18311</title>
</g>
<!-- n18291&#45;&gt;n18311 -->
<g id="edge87" class="edge"><title>n18291&#45;&gt;n18311</title>
</g>
<!-- n18311&#45;&gt;n18477 -->
<g id="edge4" class="edge"><title>n18311&#45;&gt;n18477</title>
<path fill="none" stroke="lightgray" d="M1730.18,-788C1852.23,-788 2362.24,-788 2512.77,-788"/>
<polygon fill="lightgray" stroke="lightgray" points="2512.98,-791.5 2522.98,-788 2512.98,-784.5 2512.98,-791.5"/>
<text text-anchor="middle" x="2129.28" y="-791.8" font-family="Times New Roman,serif" font-size="14.00" fill="lightgray">wff &#45;. ( &#45;. ( &#45;. ( ph \/ ps ) \/ ch ) \/ &#45;. ( ph \/ &#45;. ( &#45;. ch \/ &#45;. ( ch \/ th ) ) ) )</text>
</g>
<!-- n18405 -->
<g id="node7" class="node"><title>n18405</title>
<ellipse fill="cyan" stroke="black" cx="1702.78" cy="-716" rx="27" ry="18"/>
<text text-anchor="middle" x="1702.78" y="-712.3" font-family="Times New Roman,serif" font-size="14.00">bitri</text>
</g>
<!-- n18311&#45;&gt;n18405 -->
<g id="edge88" class="edge"><title>n18311&#45;&gt;n18405</title>
</g>
<!-- n18312 -->
<g id="node6" class="node"><title>n18312</title>
</g>
<!-- n18312&#45;&gt;n18405 -->
<g id="edge5" class="edge"><title>n18312&#45;&gt;n18405</title>
<path fill="none" stroke="lightgray" d="M1202.62,-975.728C1280.43,-995.751 1526.56,-1046.17 1652.28,-922 1677.9,-896.703 1657.57,-794.68 1670.28,-761 1673.06,-753.64 1677.32,-746.35 1681.82,-739.85"/>
<polygon fill="lightgray" stroke="lightgray" points="1684.83,-741.659 1687.98,-731.542 1679.21,-737.489 1684.83,-741.659"/>
<text text-anchor="middle" x="1439.78" y="-1005.8" font-family="Times New Roman,serif" font-size="14.00" fill="lightgray">wff ch</text>
</g>
<!-- n18320 -->
<g id="node8" class="node"><title>n18320</title>
</g>
<!-- n18312&#45;&gt;n18320 -->
<g id="edge46" class="edge"><title>n18312&#45;&gt;n18320</title>
</g>
<!-- n18405&#45;&gt;n18477 -->
<g id="edge45" class="edge"><title>n18405&#45;&gt;n18477</title>
<path fill="none" stroke="black" d="M1729.78,-714.919C1830.78,-711.305 2206.31,-703.314 2505.28,-769 2510.32,-770.107 2515.52,-771.641 2520.58,-773.361"/>
<polygon fill="black" stroke="black" points="2519.45,-776.674 2530.04,-776.835 2521.86,-770.103 2519.45,-776.674"/>
<text text-anchor="middle" x="2129.28" y="-772.8" font-family="Times New Roman,serif" font-size="14.00">|&#45; ( ch &lt;&#45;&gt; ( ( &#45;. ( ph \/ ps ) \/ ch ) /\ ( ph \/ ch ) ) )</text>
</g>
<!-- n18459 -->
<g id="node34" class="node"><title>n18459</title>
<ellipse fill="cyan" stroke="black" cx="1702.78" cy="-555" rx="32.4942" ry="18"/>
<text text-anchor="middle" x="1702.78" y="-551.3" font-family="Times New Roman,serif" font-size="14.00">anbi2i</text>
</g>
<!-- n18405&#45;&gt;n18459 -->
<g id="edge89" class="edge"><title>n18405&#45;&gt;n18459</title>
</g>
<!-- n18320&#45;&gt;n18405 -->
<g id="edge6" class="edge"><title>n18320&#45;&gt;n18405</title>
<path fill="none" stroke="lightgray" d="M1204.37,-898.48C1293.58,-903.002 1586.02,-912.911 1652.28,-853 1683.19,-825.058 1653.98,-799.344 1670.28,-761 1673.36,-753.76 1677.72,-746.513 1682.23,-740.015"/>
<polygon fill="lightgray" stroke="lightgray" points="1685.24,-741.821 1688.35,-731.69 1679.6,-737.675 1685.24,-741.821"/>
<text text-anchor="middle" x="1439.78" y="-906.8" font-family="Times New Roman,serif" font-size="14.00" fill="lightgray">wff ( ch \/ ( &#45;. ( ph \/ ps ) /\ ph ) )</text>
</g>
<!-- n18330 -->
<g id="node9" class="node"><title>n18330</title>
</g>
<!-- n18320&#45;&gt;n18330 -->
<g id="edge47" class="edge"><title>n18320&#45;&gt;n18330</title>
</g>
<!-- n18330&#45;&gt;n18405 -->
<g id="edge7" class="edge"><title>n18330&#45;&gt;n18405</title>
<path fill="none" stroke="lightgray" d="M1204.1,-828C1278.29,-835.472 1497.58,-849.014 1652.28,-770 1665.55,-763.224 1677.04,-751.342 1685.6,-740.447"/>
<polygon fill="lightgray" stroke="lightgray" points="1688.41,-742.526 1691.55,-732.408 1682.79,-738.359 1688.41,-742.526"/>
<text text-anchor="middle" x="1439.78" y="-837.8" font-family="Times New Roman,serif" font-size="14.00" fill="lightgray">wff ( ( &#45;. ( ph \/ ps ) \/ ch ) /\ ( ph \/ ch ) )</text>
</g>
<!-- n18362 -->
<g id="node11" class="node"><title>n18362</title>
<ellipse fill="cyan" stroke="black" cx="1177.43" cy="-753" rx="30.5947" ry="18"/>
<text text-anchor="middle" x="1177.43" y="-749.3" font-family="Times New Roman,serif" font-size="14.00">biorfi</text>
</g>
<!-- n18330&#45;&gt;n18362 -->
<g id="edge48" class="edge"><title>n18330&#45;&gt;n18362</title>
</g>
<!-- n18336 -->
<g id="node10" class="node"><title>n18336</title>
</g>
<!-- n18336&#45;&gt;n18362 -->
<g id="edge8" class="edge"><title>n18336&#45;&gt;n18362</title>
<path fill="none" stroke="lightgray" d="M674.784,-1002.66C752.016,-1026.05 999.264,-1087.74 1127.59,-965 1154.56,-939.2 1132.64,-833.01 1145.59,-798 1148.25,-790.793 1152.33,-783.634 1156.65,-777.218"/>
<polygon fill="lightgray" stroke="lightgray" points="1159.57,-779.149 1162.59,-768.992 1153.89,-775.051 1159.57,-779.149"/>
<text text-anchor="middle" x="915.087" y="-1041.8" font-family="Times New Roman,serif" font-size="14.00" fill="lightgray">wff ( &#45;. ( ph \/ ps ) /\ ph )</text>
</g>
<!-- n18337 -->
<g id="node12" class="node"><title>n18337</title>
</g>
<!-- n18336&#45;&gt;n18337 -->
<g id="edge25" class="edge"><title>n18336&#45;&gt;n18337</title>
</g>
<!-- n18362&#45;&gt;n18405 -->
<g id="edge24" class="edge"><title>n18362&#45;&gt;n18405</title>
<path fill="none" stroke="black" d="M1208.14,-751.628C1282.86,-748.054 1484.62,-737.634 1652.28,-722 1656.77,-721.582 1661.47,-721.086 1666.12,-720.561"/>
<polygon fill="black" stroke="black" points="1666.6,-724.03 1676.12,-719.384 1665.78,-717.078 1666.6,-724.03"/>
<text text-anchor="middle" x="1439.78" y="-754.8" font-family="Times New Roman,serif" font-size="14.00">|&#45; ( ch &lt;&#45;&gt; ( ch \/ ( &#45;. ( ph \/ ps ) /\ ph ) ) )</text>
</g>
<!-- n18404 -->
<g id="node23" class="node"><title>n18404</title>
<ellipse fill="cyan" stroke="black" cx="1177.43" cy="-681" rx="27" ry="18"/>
<text text-anchor="middle" x="1177.43" y="-677.3" font-family="Times New Roman,serif" font-size="14.00">bitri</text>
</g>
<!-- n18362&#45;&gt;n18404 -->
<g id="edge49" class="edge"><title>n18362&#45;&gt;n18404</title>
</g>
<!-- n18337&#45;&gt;n18362 -->
<g id="edge9" class="edge"><title>n18337&#45;&gt;n18362</title>
<path fill="none" stroke="lightgray" d="M676.139,-928.514C753.806,-944.064 993.718,-979.969 1127.59,-864 1150.57,-844.092 1132.81,-825.591 1145.59,-798 1148.82,-791.027 1153.1,-783.954 1157.44,-777.546"/>
<polygon fill="lightgray" stroke="lightgray" points="1160.36,-779.469 1163.3,-769.289 1154.66,-775.415 1160.36,-779.469"/>
<text text-anchor="middle" x="915.087" y="-949.8" font-family="Times New Roman,serif" font-size="14.00" fill="lightgray">wff ch</text>
</g>
<!-- n18361 -->
<g id="node14" class="node"><title>n18361</title>
<ellipse fill="cyan" stroke="black" cx="650.14" cy="-851" rx="29.4969" ry="18"/>
<text text-anchor="middle" x="650.14" y="-847.3" font-family="Times New Roman,serif" font-size="14.00">mpbi</text>
</g>
<!-- n18337&#45;&gt;n18361 -->
<g id="edge26" class="edge"><title>n18337&#45;&gt;n18361</title>
</g>
<!-- n18344 -->
<g id="node13" class="node"><title>n18344</title>
</g>
<!-- n18344&#45;&gt;n18361 -->
<g id="edge10" class="edge"><title>n18344&#45;&gt;n18361</title>
<path fill="none" stroke="lightgray" d="M249.093,-973.683C312.998,-979.076 482.046,-985.496 597.693,-918 600.055,-916.622 617.129,-894.105 630.97,-875.55"/>
<polygon fill="lightgray" stroke="lightgray" points="633.877,-877.506 637.037,-867.394 628.261,-873.328 633.877,-877.506"/>
<text text-anchor="middle" x="438.193" y="-979.8" font-family="Times New Roman,serif" font-size="14.00" fill="lightgray">wff ( &#45;. ( ph \/ ps ) &#45;&gt; &#45;. ph )</text>
</g>
<!-- n18351 -->
<g id="node15" class="node"><title>n18351</title>
</g>
<!-- n18344&#45;&gt;n18351 -->
<g id="edge21" class="edge"><title>n18344&#45;&gt;n18351</title>
</g>
<!-- n18361&#45;&gt;n18362 -->
<g id="edge20" class="edge"><title>n18361&#45;&gt;n18362</title>
<path fill="none" stroke="black" d="M679.093,-847.642C753.029,-838.447 959.582,-810.735 1127.59,-769 1132.04,-767.893 1136.68,-766.585 1141.25,-765.201"/>
<polygon fill="black" stroke="black" points="1142.56,-768.457 1151.03,-762.099 1140.44,-761.784 1142.56,-768.457"/>
<text text-anchor="middle" x="915.087" y="-848.8" font-family="Times New Roman,serif" font-size="14.00">|&#45; &#45;. ( &#45;. ( ph \/ ps ) /\ ph )</text>
</g>
<!-- n18351&#45;&gt;n18361 -->
<g id="edge11" class="edge"><title>n18351&#45;&gt;n18361</title>
<path fill="none" stroke="lightgray" d="M249.514,-898.948C310.946,-898.37 468.931,-894.22 597.693,-868 603.48,-866.822 609.523,-865.199 615.348,-863.42"/>
<polygon fill="lightgray" stroke="lightgray" points="616.431,-866.749 624.862,-860.332 614.27,-860.091 616.431,-866.749"/>
<text text-anchor="middle" x="438.193" y="-902.8" font-family="Times New Roman,serif" font-size="14.00" fill="lightgray">wff &#45;. ( &#45;. ( ph \/ ps ) /\ ph )</text>
</g>
<!-- n18354 -->
<g id="node17" class="node"><title>n18354</title>
<ellipse fill="cyan" stroke="black" cx="222.347" cy="-827" rx="38.1938" ry="18"/>
<text text-anchor="middle" x="222.347" y="-823.3" font-family="Times New Roman,serif" font-size="14.00">pm2.45</text>
</g>
<!-- n18351&#45;&gt;n18354 -->
<g id="edge22" class="edge"><title>n18351&#45;&gt;n18354</title>
</g>
<!-- n18352 -->
<g id="node16" class="node"><title>n18352</title>
</g>
<!-- n18352&#45;&gt;n18354 -->
<g id="edge12" class="edge"><title>n18352&#45;&gt;n18354</title>
<path fill="none" stroke="lightgray" d="M51.3221,-885.039C83.5439,-874.04 142.14,-854.038 181.408,-840.633"/>
<polygon fill="lightgray" stroke="lightgray" points="182.614,-843.92 190.947,-837.377 180.352,-837.295 182.614,-843.92"/>
<text text-anchor="middle" x="119" y="-881.8" font-family="Times New Roman,serif" font-size="14.00" fill="lightgray">wff ph</text>
</g>
<!-- n18353 -->
<g id="node18" class="node"><title>n18353</title>
</g>
<!-- n18352&#45;&gt;n18353 -->
<g id="edge15" class="edge"><title>n18352&#45;&gt;n18353</title>
</g>
<!-- n18354&#45;&gt;n18361 -->
<g id="edge14" class="edge"><title>n18354&#45;&gt;n18361</title>
<path fill="none" stroke="black" d="M260.76,-829.109C341.067,-833.635 529.25,-844.242 610.576,-848.826"/>
<polygon fill="black" stroke="black" points="610.684,-852.338 620.865,-849.406 611.078,-845.349 610.684,-852.338"/>
<text text-anchor="middle" x="438.193" y="-852.8" font-family="Times New Roman,serif" font-size="14.00">|&#45; ( &#45;. ( ph \/ ps ) &#45;&gt; &#45;. ph )</text>
</g>
<!-- n18360 -->
<g id="node20" class="node"><title>n18360</title>
<ellipse fill="cyan" stroke="black" cx="222.347" cy="-755" rx="32.4942" ry="18"/>
<text text-anchor="middle" x="222.347" y="-751.3" font-family="Times New Roman,serif" font-size="14.00">imnan</text>
</g>
<!-- n18354&#45;&gt;n18360 -->
<g id="edge23" class="edge"><title>n18354&#45;&gt;n18360</title>
</g>
<!-- n18353&#45;&gt;n18354 -->
<g id="edge13" class="edge"><title>n18353&#45;&gt;n18354</title>
<path fill="none" stroke="lightgray" d="M54.0756,-821.809C84.6024,-822.757 135.78,-824.345 173.504,-825.515"/>
<polygon fill="lightgray" stroke="lightgray" points="173.655,-829.022 183.759,-825.834 173.873,-822.025 173.655,-829.022"/>
<text text-anchor="middle" x="119" y="-829.8" font-family="Times New Roman,serif" font-size="14.00" fill="lightgray">wff ps</text>
</g>
<!-- n18358 -->
<g id="node19" class="node"><title>n18358</title>
</g>
<!-- n18358&#45;&gt;n18360 -->
<g id="edge16" class="edge"><title>n18358&#45;&gt;n18360</title>
<path fill="none" stroke="lightgray" d="M54.0756,-764.516C86.2984,-762.683 141.53,-759.541 179.661,-757.372"/>
<polygon fill="lightgray" stroke="lightgray" points="180.144,-760.85 189.929,-756.787 179.747,-753.861 180.144,-760.85"/>
<text text-anchor="middle" x="119" y="-767.8" font-family="Times New Roman,serif" font-size="14.00" fill="lightgray">wff &#45;. ( ph \/ ps )</text>
</g>
<!-- n18359 -->
<g id="node21" class="node"><title>n18359</title>
</g>
<!-- n18358&#45;&gt;n18359 -->
<g id="edge19" class="edge"><title>n18358&#45;&gt;n18359</title>
</g>
<!-- n18360&#45;&gt;n18361 -->
<g id="edge18" class="edge"><title>n18360&#45;&gt;n18361</title>
<path fill="none" stroke="black" d="M255.076,-754.655C321.427,-755.023 478.554,-761.647 597.693,-812 600.767,-813.299 612.115,-821.83 623.374,-830.583"/>
<polygon fill="black" stroke="black" points="621.405,-833.486 631.436,-836.895 625.72,-827.975 621.405,-833.486"/>
<text text-anchor="middle" x="438.193" y="-815.8" font-family="Times New Roman,serif" font-size="14.00">|&#45; ( ( &#45;. ( ph \/ ps ) &#45;&gt; &#45;. ph ) &lt;&#45;&gt; &#45;. ( &#45;. ( ph \/ ps ) /\ ph ) )</text>
</g>
<!-- n18359&#45;&gt;n18360 -->
<g id="edge17" class="edge"><title>n18359&#45;&gt;n18360</title>
<path fill="none" stroke="lightgray" d="M51.7081,-701.48C84.7318,-711.899 144.914,-730.886 184,-743.217"/>
<polygon fill="lightgray" stroke="lightgray" points="183.106,-746.605 193.696,-746.276 185.213,-739.93 183.106,-746.605"/>
<text text-anchor="middle" x="119" y="-740.8" font-family="Times New Roman,serif" font-size="14.00" fill="lightgray">wff ph</text>
</g>
<!-- n18370 -->
<g id="node22" class="node"><title>n18370</title>
</g>
<!-- n18370&#45;&gt;n18404 -->
<g id="edge27" class="edge"><title>n18370&#45;&gt;n18404</title>
<path fill="none" stroke="lightgray" d="M663.632,-780.819C673.039,-769.977 686.961,-756.533 702.587,-750 789.84,-713.522 1040.81,-765.603 1127.59,-728 1139.28,-722.933 1149.82,-713.744 1158.09,-704.826"/>
<polygon fill="lightgray" stroke="lightgray" points="1160.83,-707.013 1164.75,-697.17 1155.54,-702.42 1160.83,-707.013"/>
<text text-anchor="middle" x="915.087" y="-753.8" font-family="Times New Roman,serif" font-size="14.00" fill="lightgray">wff ( ch \/ ( &#45;. ( ph \/ ps ) /\ ph ) )</text>
</g>
<!-- n18378 -->
<g id="node24" class="node"><title>n18378</title>
</g>
<!-- n18370&#45;&gt;n18378 -->
<g id="edge41" class="edge"><title>n18370&#45;&gt;n18378</title>
</g>
<!-- n18404&#45;&gt;n18405 -->
<g id="edge40" class="edge"><title>n18404&#45;&gt;n18405</title>
<path fill="none" stroke="black" d="M1204.47,-681.287C1276.14,-682.324 1482.3,-686.962 1652.28,-707 1656.89,-707.544 1661.73,-708.25 1666.49,-709.028"/>
<polygon fill="black" stroke="black" points="1666.24,-712.537 1676.69,-710.81 1667.44,-705.641 1666.24,-712.537"/>
<text text-anchor="middle" x="1439.78" y="-710.8" font-family="Times New Roman,serif" font-size="14.00">|&#45; ( ( ch \/ ( &#45;. ( ph \/ ps ) /\ ph ) ) &lt;&#45;&gt; ( ( &#45;. ( ph \/ ps ) \/ ch ) /\ ( ph \/ ch ) ) )</text>
</g>
<!-- n18378&#45;&gt;n18404 -->
<g id="edge28" class="edge"><title>n18378&#45;&gt;n18404</title>
<path fill="none" stroke="lightgray" d="M675.583,-718.447C684.075,-716.398 693.698,-714.328 702.587,-713 864.392,-688.828 1060.03,-682.903 1139.86,-681.46"/>
<polygon fill="lightgray" stroke="lightgray" points="1140.4,-684.951 1150.34,-681.285 1140.28,-677.952 1140.4,-684.951"/>
<text text-anchor="middle" x="915.087" y="-716.8" font-family="Times New Roman,serif" font-size="14.00" fill="lightgray">wff ( ( &#45;. ( ph \/ ps ) /\ ph ) \/ ch )</text>
</g>
<!-- n18388 -->
<g id="node25" class="node"><title>n18388</title>
</g>
<!-- n18378&#45;&gt;n18388 -->
<g id="edge42" class="edge"><title>n18378&#45;&gt;n18388</title>
</g>
<!-- n18388&#45;&gt;n18404 -->
<g id="edge29" class="edge"><title>n18388&#45;&gt;n18404</title>
<path fill="none" stroke="lightgray" d="M677.015,-650.57C749.148,-644.432 958.296,-630.965 1127.59,-663 1133.25,-664.071 1139.12,-665.725 1144.74,-667.605"/>
<polygon fill="lightgray" stroke="lightgray" points="1143.91,-671.027 1154.5,-671.156 1146.3,-664.448 1143.91,-671.027"/>
<text text-anchor="middle" x="915.087" y="-666.8" font-family="Times New Roman,serif" font-size="14.00" fill="lightgray">wff ( ( &#45;. ( ph \/ ps ) \/ ch ) /\ ( ph \/ ch ) )</text>
</g>
<!-- n18396 -->
<g id="node27" class="node"><title>n18396</title>
<ellipse fill="cyan" stroke="black" cx="650.14" cy="-581" rx="34.394" ry="18"/>
<text text-anchor="middle" x="650.14" y="-577.3" font-family="Times New Roman,serif" font-size="14.00">orcom</text>
</g>
<!-- n18388&#45;&gt;n18396 -->
<g id="edge43" class="edge"><title>n18388&#45;&gt;n18396</title>
</g>
<!-- n18389 -->
<g id="node26" class="node"><title>n18389</title>
</g>
<!-- n18389&#45;&gt;n18396 -->
<g id="edge30" class="edge"><title>n18389&#45;&gt;n18396</title>
<path fill="none" stroke="lightgray" d="M249.702,-697.574C313.562,-700.225 479.977,-700.096 597.693,-637 611.231,-629.744 623.09,-617.517 631.999,-606.336"/>
<polygon fill="lightgray" stroke="lightgray" points="634.991,-608.181 638.217,-598.089 629.402,-603.967 634.991,-608.181"/>
<text text-anchor="middle" x="438.193" y="-702.8" font-family="Times New Roman,serif" font-size="14.00" fill="lightgray">wff ch</text>
</g>
<!-- n18395 -->
<g id="node28" class="node"><title>n18395</title>
</g>
<!-- n18389&#45;&gt;n18395 -->
<g id="edge33" class="edge"><title>n18389&#45;&gt;n18395</title>
</g>
<!-- n18396&#45;&gt;n18404 -->
<g id="edge32" class="edge"><title>n18396&#45;&gt;n18404</title>
<path fill="none" stroke="black" d="M682.567,-574.773C763.529,-560.513 983.001,-533.313 1127.59,-624 1140.76,-632.262 1135.62,-642.068 1145.59,-654 1147.47,-656.253 1149.55,-658.481 1151.71,-660.633"/>
<polygon fill="black" stroke="black" points="1149.49,-663.354 1159.2,-667.587 1154.25,-658.221 1149.49,-663.354"/>
<text text-anchor="middle" x="915.087" y="-627.8" font-family="Times New Roman,serif" font-size="14.00">|&#45; ( ( ch \/ ( &#45;. ( ph \/ ps ) /\ ph ) ) &lt;&#45;&gt; ( ( &#45;. ( ph \/ ps ) /\ ph ) \/ ch ) )</text>
</g>
<!-- n18403 -->
<g id="node30" class="node"><title>n18403</title>
<ellipse fill="cyan" stroke="black" cx="650.14" cy="-509" rx="28.6953" ry="18"/>
<text text-anchor="middle" x="650.14" y="-505.3" font-family="Times New Roman,serif" font-size="14.00">ordir</text>
</g>
<!-- n18396&#45;&gt;n18403 -->
<g id="edge44" class="edge"><title>n18396&#45;&gt;n18403</title>
</g>
<!-- n18395&#45;&gt;n18396 -->
<g id="edge31" class="edge"><title>n18395&#45;&gt;n18396</title>
<path fill="none" stroke="lightgray" d="M249.341,-621.375C320.305,-614.208 517.902,-594.253 605.903,-585.366"/>
<polygon fill="lightgray" stroke="lightgray" points="606.479,-588.826 616.076,-584.339 605.775,-581.862 606.479,-588.826"/>
<text text-anchor="middle" x="438.193" y="-621.8" font-family="Times New Roman,serif" font-size="14.00" fill="lightgray">wff ( &#45;. ( ph \/ ps ) /\ ph )</text>
</g>
<!-- n18400 -->
<g id="node29" class="node"><title>n18400</title>
</g>
<!-- n18400&#45;&gt;n18403 -->
<g id="edge34" class="edge"><title>n18400&#45;&gt;n18403</title>
<path fill="none" stroke="lightgray" d="M249.552,-568.99C311.065,-566.188 469.212,-556.469 597.693,-527 603.661,-525.631 609.898,-523.805 615.888,-521.839"/>
<polygon fill="lightgray" stroke="lightgray" points="617.342,-525.039 625.643,-518.456 615.048,-518.426 617.342,-525.039"/>
<text text-anchor="middle" x="438.193" y="-571.8" font-family="Times New Roman,serif" font-size="14.00" fill="lightgray">wff &#45;. ( ph \/ ps )</text>
</g>
<!-- n18401 -->
<g id="node31" class="node"><title>n18401</title>
</g>
<!-- n18400&#45;&gt;n18401 -->
<g id="edge38" class="edge"><title>n18400&#45;&gt;n18401</title>
</g>
<!-- n18403&#45;&gt;n18404 -->
<g id="edge37" class="edge"><title>n18403&#45;&gt;n18404</title>
<path fill="none" stroke="black" d="M678.505,-506.601C769.772,-499.224 1061.69,-480.841 1127.59,-541 1165.14,-575.289 1120.99,-609.49 1145.59,-654 1147.01,-656.57 1148.77,-659.012 1150.73,-661.302"/>
<polygon fill="black" stroke="black" points="1148.37,-663.892 1157.93,-668.46 1153.31,-658.928 1148.37,-663.892"/>
<text text-anchor="middle" x="915.087" y="-544.8" font-family="Times New Roman,serif" font-size="14.00">|&#45; ( ( ( &#45;. ( ph \/ ps ) /\ ph ) \/ ch ) &lt;&#45;&gt; ( ( &#45;. ( ph \/ ps ) \/ ch ) /\ ( ph \/ ch ) ) )</text>
</g>
<!-- n18401&#45;&gt;n18403 -->
<g id="edge35" class="edge"><title>n18401&#45;&gt;n18403</title>
<path fill="none" stroke="lightgray" d="M249.341,-498.672C321.793,-500.543 526.243,-505.825 611.292,-508.022"/>
<polygon fill="lightgray" stroke="lightgray" points="611.205,-511.521 621.293,-508.281 611.386,-504.523 611.205,-511.521"/>
<text text-anchor="middle" x="438.193" y="-511.8" font-family="Times New Roman,serif" font-size="14.00" fill="lightgray">wff ph</text>
</g>
<!-- n18402 -->
<g id="node32" class="node"><title>n18402</title>
</g>
<!-- n18401&#45;&gt;n18402 -->
<g id="edge39" class="edge"><title>n18401&#45;&gt;n18402</title>
</g>
<!-- n18402&#45;&gt;n18403 -->
<g id="edge36" class="edge"><title>n18402&#45;&gt;n18403</title>
<path fill="none" stroke="lightgray" d="M249.488,-426.701C311.518,-429.033 471.829,-438.989 597.693,-481 605.425,-483.581 613.359,-487.29 620.61,-491.169"/>
<polygon fill="lightgray" stroke="lightgray" points="618.933,-494.241 629.363,-496.1 622.368,-488.142 618.933,-494.241"/>
<text text-anchor="middle" x="438.193" y="-484.8" font-family="Times New Roman,serif" font-size="14.00" fill="lightgray">wff ch</text>
</g>
<!-- n18408 -->
<g id="node33" class="node"><title>n18408</title>
</g>
<!-- n18408&#45;&gt;n18459 -->
<g id="edge50" class="edge"><title>n18408&#45;&gt;n18459</title>
<path fill="none" stroke="lightgray" d="M1204.52,-626.407C1276.74,-624.27 1485,-614.752 1652.28,-574 1657.11,-572.823 1662.11,-571.296 1666.99,-569.62"/>
<polygon fill="lightgray" stroke="lightgray" points="1668.56,-572.77 1676.74,-566.034 1666.15,-566.2 1668.56,-572.77"/>
<text text-anchor="middle" x="1439.78" y="-629.8" font-family="Times New Roman,serif" font-size="14.00" fill="lightgray">wff ( ph \/ ch )</text>
</g>
<!-- n18418 -->
<g id="node35" class="node"><title>n18418</title>
</g>
<!-- n18408&#45;&gt;n18418 -->
<g id="edge77" class="edge"><title>n18408&#45;&gt;n18418</title>
</g>
<!-- n18459&#45;&gt;n18477 -->
<g id="edge76" class="edge"><title>n18459&#45;&gt;n18477</title>
<path fill="none" stroke="black" d="M1734.3,-559.522C1877.04,-580.768 2473.12,-670.608 2505.28,-694 2527.29,-710.017 2540.38,-738.818 2547.51,-760.334"/>
<polygon fill="black" stroke="black" points="2544.17,-761.401 2550.46,-769.929 2550.87,-759.342 2544.17,-761.401"/>
<text text-anchor="middle" x="2129.28" y="-697.8" font-family="Times New Roman,serif" font-size="14.00">|&#45; ( ( ( &#45;. ( ph \/ ps ) \/ ch ) /\ ( ph \/ ch ) ) &lt;&#45;&gt; ( ( &#45;. ( ph \/ ps ) \/ ch ) /\ ( ph \/ &#45;. ( &#45;. ch \/ &#45;. ( ch \/ th ) ) ) ) )</text>
</g>
<!-- n18476 -->
<g id="node52" class="node"><title>n18476</title>
<ellipse fill="cyan" stroke="black" cx="1702.78" cy="-428" rx="27" ry="18"/>
<text text-anchor="middle" x="1702.78" y="-424.3" font-family="Times New Roman,serif" font-size="14.00">anor</text>
</g>
<!-- n18459&#45;&gt;n18476 -->
<g id="edge90" class="edge"><title>n18459&#45;&gt;n18476</title>
</g>
<!-- n18418&#45;&gt;n18459 -->
<g id="edge51" class="edge"><title>n18418&#45;&gt;n18459</title>
<path fill="none" stroke="lightgray" d="M1204.75,-555C1289.61,-555 1556.6,-555 1660.15,-555"/>
<polygon fill="lightgray" stroke="lightgray" points="1660.23,-558.5 1670.23,-555 1660.23,-551.5 1660.23,-558.5"/>
<text text-anchor="middle" x="1439.78" y="-558.8" font-family="Times New Roman,serif" font-size="14.00" fill="lightgray">wff ( ph \/ &#45;. ( &#45;. ch \/ &#45;. ( ch \/ th ) ) )</text>
</g>
<!-- n18424 -->
<g id="node36" class="node"><title>n18424</title>
</g>
<!-- n18418&#45;&gt;n18424 -->
<g id="edge78" class="edge"><title>n18418&#45;&gt;n18424</title>
</g>
<!-- n18424&#45;&gt;n18459 -->
<g id="edge52" class="edge"><title>n18424&#45;&gt;n18459</title>
<path fill="none" stroke="lightgray" d="M1204.52,-483.593C1276.74,-485.73 1485,-495.248 1652.28,-536 1657.11,-537.177 1662.11,-538.704 1666.99,-540.38"/>
<polygon fill="lightgray" stroke="lightgray" points="1666.15,-543.8 1676.74,-543.966 1668.56,-537.23 1666.15,-543.8"/>
<text text-anchor="middle" x="1439.78" y="-539.8" font-family="Times New Roman,serif" font-size="14.00" fill="lightgray">wff ( &#45;. ( ph \/ ps ) \/ ch )</text>
</g>
<!-- n18458 -->
<g id="node38" class="node"><title>n18458</title>
<ellipse fill="cyan" stroke="black" cx="1177.43" cy="-411" rx="31.6951" ry="18"/>
<text text-anchor="middle" x="1177.43" y="-407.3" font-family="Times New Roman,serif" font-size="14.00">orbi2i</text>
</g>
<!-- n18424&#45;&gt;n18458 -->
<g id="edge79" class="edge"><title>n18424&#45;&gt;n18458</title>
</g>
<!-- n18425 -->
<g id="node37" class="node"><title>n18425</title>
</g>
<!-- n18425&#45;&gt;n18458 -->
<g id="edge53" class="edge"><title>n18425&#45;&gt;n18458</title>
<path fill="none" stroke="lightgray" d="M677.238,-453.051C749.094,-447.645 955.895,-431.813 1127.59,-416 1130.28,-415.752 1133.05,-415.489 1135.85,-415.218"/>
<polygon fill="lightgray" stroke="lightgray" points="1136.35,-418.685 1145.96,-414.216 1135.66,-411.72 1136.35,-418.685"/>
<text text-anchor="middle" x="915.087" y="-454.8" font-family="Times New Roman,serif" font-size="14.00" fill="lightgray">wff ch</text>
</g>
<!-- n18433 -->
<g id="node39" class="node"><title>n18433</title>
</g>
<!-- n18425&#45;&gt;n18433 -->
<g id="edge73" class="edge"><title>n18425&#45;&gt;n18433</title>
</g>
<!-- n18458&#45;&gt;n18459 -->
<g id="edge72" class="edge"><title>n18458&#45;&gt;n18459</title>
<path fill="none" stroke="black" d="M1209.48,-410.993C1302.89,-411.521 1579.39,-417.26 1652.28,-466 1673.53,-480.208 1686.56,-506.754 1693.89,-527.17"/>
<polygon fill="black" stroke="black" points="1690.65,-528.518 1697.12,-536.904 1697.29,-526.311 1690.65,-528.518"/>
<text text-anchor="middle" x="1439.78" y="-469.8" font-family="Times New Roman,serif" font-size="14.00">|&#45; ( ( ph \/ ch ) &lt;&#45;&gt; ( ph \/ &#45;. ( &#45;. ch \/ &#45;. ( ch \/ th ) ) ) )</text>
</g>
<!-- n18433&#45;&gt;n18458 -->
<g id="edge54" class="edge"><title>n18433&#45;&gt;n18458</title>
<path fill="none" stroke="lightgray" d="M677.34,-382.486C749.455,-381.396 956.854,-380.44 1127.59,-401 1130.85,-401.393 1134.23,-401.89 1137.6,-402.451"/>
<polygon fill="lightgray" stroke="lightgray" points="1137.17,-405.93 1147.63,-404.287 1138.43,-399.044 1137.17,-405.93"/>
<text text-anchor="middle" x="915.087" y="-404.8" font-family="Times New Roman,serif" font-size="14.00" fill="lightgray">wff &#45;. ( &#45;. ch \/ &#45;. ( ch \/ th ) )</text>
</g>
<!-- n18434 -->
<g id="node40" class="node"><title>n18434</title>
</g>
<!-- n18433&#45;&gt;n18434 -->
<g id="edge74" class="edge"><title>n18433&#45;&gt;n18434</title>
</g>
<!-- n18434&#45;&gt;n18458 -->
<g id="edge55" class="edge"><title>n18434&#45;&gt;n18458</title>
<path fill="none" stroke="lightgray" d="M676.968,-307.757C751.632,-299.608 972.296,-284.259 1127.59,-364 1138.23,-369.463 1137.07,-375.603 1145.59,-384 1147.4,-385.793 1149.32,-387.614 1151.27,-389.419"/>
<polygon fill="lightgray" stroke="lightgray" points="1149.04,-392.124 1158.81,-396.216 1153.72,-386.922 1149.04,-392.124"/>
<text text-anchor="middle" x="915.087" y="-367.8" font-family="Times New Roman,serif" font-size="14.00" fill="lightgray">wff ph</text>
</g>
<!-- n18457 -->
<g id="node42" class="node"><title>n18457</title>
<ellipse fill="cyan" stroke="black" cx="650.14" cy="-239" rx="27" ry="18"/>
<text text-anchor="middle" x="650.14" y="-235.3" font-family="Times New Roman,serif" font-size="14.00">bitri</text>
</g>
<!-- n18434&#45;&gt;n18457 -->
<g id="edge75" class="edge"><title>n18434&#45;&gt;n18457</title>
</g>
<!-- n18435 -->
<g id="node41" class="node"><title>n18435</title>
</g>
<!-- n18435&#45;&gt;n18457 -->
<g id="edge56" class="edge"><title>n18435&#45;&gt;n18457</title>
<path fill="none" stroke="lightgray" d="M248.844,-375.489C313.625,-382.947 487.215,-393.996 597.693,-317 611.4,-307.448 606.688,-298.072 615.693,-284 620.194,-276.967 625.434,-269.594 630.412,-262.9"/>
<polygon fill="lightgray" stroke="lightgray" points="633.255,-264.944 636.503,-254.859 627.675,-260.717 633.255,-264.944"/>
<text text-anchor="middle" x="438.193" y="-384.8" font-family="Times New Roman,serif" font-size="14.00" fill="lightgray">wff ch</text>
</g>
<!-- n18440 -->
<g id="node43" class="node"><title>n18440</title>
</g>
<!-- n18435&#45;&gt;n18440 -->
<g id="edge68" class="edge"><title>n18435&#45;&gt;n18440</title>
</g>
<!-- n18457&#45;&gt;n18458 -->
<g id="edge67" class="edge"><title>n18457&#45;&gt;n18458</title>
<path fill="none" stroke="black" d="M675.378,-232.243C752.849,-212.26 997.011,-162.036 1127.59,-282 1161.49,-313.144 1122.98,-343.897 1145.59,-384 1146.72,-386.015 1148.07,-387.954 1149.55,-389.803"/>
<polygon fill="black" stroke="black" points="1147.27,-392.481 1156.71,-397.295 1152.33,-387.646 1147.27,-392.481"/>
<text text-anchor="middle" x="915.087" y="-285.8" font-family="Times New Roman,serif" font-size="14.00">|&#45; ( ch &lt;&#45;&gt; &#45;. ( &#45;. ch \/ &#45;. ( ch \/ th ) ) )</text>
</g>
<!-- n18440&#45;&gt;n18457 -->
<g id="edge57" class="edge"><title>n18440&#45;&gt;n18457</title>
<path fill="none" stroke="lightgray" d="M249.552,-298.99C311.065,-296.188 469.212,-286.469 597.693,-257 604.049,-255.542 610.71,-253.565 617.052,-251.454"/>
<polygon fill="lightgray" stroke="lightgray" points="618.388,-254.694 626.666,-248.081 616.071,-248.089 618.388,-254.694"/>
<text text-anchor="middle" x="438.193" y="-301.8" font-family="Times New Roman,serif" font-size="14.00" fill="lightgray">wff ( ch /\ ( ch \/ th ) )</text>
</g>
<!-- n18448 -->
<g id="node44" class="node"><title>n18448</title>
</g>
<!-- n18440&#45;&gt;n18448 -->
<g id="edge69" class="edge"><title>n18440&#45;&gt;n18448</title>
</g>
<!-- n18448&#45;&gt;n18457 -->
<g id="edge58" class="edge"><title>n18448&#45;&gt;n18457</title>
<path fill="none" stroke="lightgray" d="M249.341,-228.672C322.238,-230.555 528.764,-235.89 612.848,-238.062"/>
<polygon fill="lightgray" stroke="lightgray" points="612.858,-241.564 622.945,-238.323 613.039,-234.566 612.858,-241.564"/>
<text text-anchor="middle" x="438.193" y="-241.8" font-family="Times New Roman,serif" font-size="14.00" fill="lightgray">wff &#45;. ( &#45;. ch \/ &#45;. ( ch \/ th ) )</text>
</g>
<!-- n18451 -->
<g id="node46" class="node"><title>n18451</title>
<ellipse fill="cyan" stroke="black" cx="222.347" cy="-156" rx="38.1938" ry="18"/>
<text text-anchor="middle" x="222.347" y="-152.3" font-family="Times New Roman,serif" font-size="14.00">pm4.45</text>
</g>
<!-- n18448&#45;&gt;n18451 -->
<g id="edge70" class="edge"><title>n18448&#45;&gt;n18451</title>
</g>
<!-- n18449 -->
<g id="node45" class="node"><title>n18449</title>
</g>
<!-- n18449&#45;&gt;n18451 -->
<g id="edge59" class="edge"><title>n18449&#45;&gt;n18451</title>
<path fill="none" stroke="lightgray" d="M51.7081,-209.52C83.7114,-199.423 141.221,-181.279 180.318,-168.944"/>
<polygon fill="lightgray" stroke="lightgray" points="181.597,-172.211 190.081,-165.864 179.491,-165.535 181.597,-172.211"/>
<text text-anchor="middle" x="119" y="-206.8" font-family="Times New Roman,serif" font-size="14.00" fill="lightgray">wff ch</text>
</g>
<!-- n18450 -->
<g id="node47" class="node"><title>n18450</title>
</g>
<!-- n18449&#45;&gt;n18450 -->
<g id="edge62" class="edge"><title>n18449&#45;&gt;n18450</title>
</g>
<!-- n18451&#45;&gt;n18457 -->
<g id="edge61" class="edge"><title>n18451&#45;&gt;n18457</title>
<path fill="none" stroke="black" d="M260.744,-157.166C329.268,-160.241 478.838,-171.329 597.693,-211 605.696,-213.671 613.916,-217.552 621.371,-221.578"/>
<polygon fill="black" stroke="black" points="619.908,-224.773 630.331,-226.675 623.369,-218.688 619.908,-224.773"/>
<text text-anchor="middle" x="438.193" y="-214.8" font-family="Times New Roman,serif" font-size="14.00">|&#45; ( ch &lt;&#45;&gt; ( ch /\ ( ch \/ th ) ) )</text>
</g>
<!-- n18456 -->
<g id="node49" class="node"><title>n18456</title>
<ellipse fill="cyan" stroke="black" cx="222.347" cy="-84" rx="27" ry="18"/>
<text text-anchor="middle" x="222.347" y="-80.3" font-family="Times New Roman,serif" font-size="14.00">anor</text>
</g>
<!-- n18451&#45;&gt;n18456 -->
<g id="edge71" class="edge"><title>n18451&#45;&gt;n18456</title>
</g>
<!-- n18450&#45;&gt;n18451 -->
<g id="edge60" class="edge"><title>n18450&#45;&gt;n18451</title>
<path fill="none" stroke="lightgray" d="M54.0756,-146.484C84.6967,-148.226 136.096,-151.15 173.853,-153.298"/>
<polygon fill="lightgray" stroke="lightgray" points="173.929,-156.808 184.112,-153.882 174.327,-149.819 173.929,-156.808"/>
<text text-anchor="middle" x="119" y="-156.8" font-family="Times New Roman,serif" font-size="14.00" fill="lightgray">wff th</text>
</g>
<!-- n18452 -->
<g id="node48" class="node"><title>n18452</title>
</g>
<!-- n18452&#45;&gt;n18456 -->
<g id="edge63" class="edge"><title>n18452&#45;&gt;n18456</title>
<path fill="none" stroke="lightgray" d="M54.0756,-89.1908C87.8059,-88.1441 146.748,-86.315 184.896,-85.1311"/>
<polygon fill="lightgray" stroke="lightgray" points="185.18,-88.6241 195.067,-84.8155 184.963,-81.6275 185.18,-88.6241"/>
<text text-anchor="middle" x="119" y="-92.8" font-family="Times New Roman,serif" font-size="14.00" fill="lightgray">wff ch</text>
</g>
<!-- n18455 -->
<g id="node50" class="node"><title>n18455</title>
</g>
<!-- n18452&#45;&gt;n18455 -->
<g id="edge66" class="edge"><title>n18452&#45;&gt;n18455</title>
</g>
<!-- n18456&#45;&gt;n18457 -->
<g id="edge65" class="edge"><title>n18456&#45;&gt;n18457</title>
<path fill="none" stroke="black" d="M248.944,-80.4623C313.959,-72.9022 488.054,-61.7249 597.693,-140 621.48,-156.982 635.1,-188.339 642.273,-211.225"/>
<polygon fill="black" stroke="black" points="638.98,-212.435 645.129,-221.063 645.702,-210.483 638.98,-212.435"/>
<text text-anchor="middle" x="438.193" y="-143.8" font-family="Times New Roman,serif" font-size="14.00">|&#45; ( ( ch /\ ( ch \/ th ) ) &lt;&#45;&gt; &#45;. ( &#45;. ch \/ &#45;. ( ch \/ th ) ) )</text>
</g>
<!-- n18455&#45;&gt;n18456 -->
<g id="edge64" class="edge"><title>n18455&#45;&gt;n18456</title>
<path fill="none" stroke="lightgray" d="M51.3221,-25.9611C85.4358,-37.606 149.111,-59.3421 188.115,-72.6563"/>
<polygon fill="lightgray" stroke="lightgray" points="187.347,-76.0924 197.942,-76.0106 189.609,-69.4677 187.347,-76.0924"/>
<text text-anchor="middle" x="119" y="-68.8" font-family="Times New Roman,serif" font-size="14.00" fill="lightgray">wff ( ch \/ th )</text>
</g>
<!-- n18465 -->
<g id="node51" class="node"><title>n18465</title>
</g>
<!-- n18465&#45;&gt;n18476 -->
<g id="edge80" class="edge"><title>n18465&#45;&gt;n18476</title>
<path fill="none" stroke="lightgray" d="M1204.15,-353.93C1277.14,-346.233 1490.76,-330.798 1652.28,-391 1661.73,-394.522 1670.92,-400.446 1678.75,-406.534"/>
<polygon fill="lightgray" stroke="lightgray" points="1676.75,-409.416 1686.68,-413.097 1681.21,-404.024 1676.75,-409.416"/>
<text text-anchor="middle" x="1439.78" y="-394.8" font-family="Times New Roman,serif" font-size="14.00" fill="lightgray">wff ( &#45;. ( ph \/ ps ) \/ ch )</text>
</g>
<!-- n18475 -->
<g id="node53" class="node"><title>n18475</title>
</g>
<!-- n18465&#45;&gt;n18475 -->
<g id="edge83" class="edge"><title>n18465&#45;&gt;n18475</title>
</g>
<!-- n18476&#45;&gt;n18477 -->
<g id="edge82" class="edge"><title>n18476&#45;&gt;n18477</title>
<path fill="none" stroke="black" d="M1728.57,-422.624C1837.36,-400.617 2277.15,-328.396 2505.28,-544 2536.19,-573.217 2548.83,-701.73 2553.02,-759.591"/>
<polygon fill="black" stroke="black" points="2549.54,-760.116 2553.72,-769.852 2556.53,-759.635 2549.54,-760.116"/>
<text text-anchor="middle" x="2129.28" y="-547.8" font-family="Times New Roman,serif" font-size="14.00">|&#45; ( ( ( &#45;. ( ph \/ ps ) \/ ch ) /\ ( ph \/ &#45;. ( &#45;. ch \/ &#45;. ( ch \/ th ) ) ) ) &lt;&#45;&gt; &#45;. ( &#45;. ( &#45;. ( ph \/ ps ) \/ ch ) \/ &#45;. ( ph \/ &#45;. ( &#45;. ch \/ &#45;. ( ch \/ th ) ) ) ) )</text>
</g>
<!-- n18475&#45;&gt;n18476 -->
<g id="edge81" class="edge"><title>n18475&#45;&gt;n18476</title>
<path fill="none" stroke="lightgray" d="M1203.35,-279.493C1278.75,-264.313 1508.17,-229.233 1652.28,-328 1676.64,-344.694 1689.54,-376.966 1695.99,-400.343"/>
<polygon fill="lightgray" stroke="lightgray" points="1692.6,-401.22 1698.45,-410.057 1699.39,-399.504 1692.6,-401.22"/>
<text text-anchor="middle" x="1439.78" y="-331.8" font-family="Times New Roman,serif" font-size="14.00" fill="lightgray">wff ( ph \/ &#45;. ( &#45;. ch \/ &#45;. ( ch \/ th ) ) )</text>
</g>
</g>
</svg>
