<?xml version="1.0" encoding="UTF-8" standalone="no"?>
<!DOCTYPE svg PUBLIC "-//W3C//DTD SVG 1.1//EN"
 "http://www.w3.org/Graphics/SVG/1.1/DTD/svg11.dtd">
<!-- Generated by graphviz version 2.38.0 (20140413.2041)
 -->
<!-- Title: proof_elimh Pages: 1 -->
<svg width="1218pt" height="682pt"
 viewBox="0.00 0.00 1217.77 682.00" xmlns="http://www.w3.org/2000/svg" xmlns:xlink="http://www.w3.org/1999/xlink">
<g id="graph0" class="graph" transform="scale(1 1) rotate(0) translate(4 678)">
<title>proof_elimh</title>
<polygon fill="white" stroke="none" points="-4,4 -4,-678 1213.77,-678 1213.77,4 -4,4"/>
<!-- n17558 -->
<g id="node1" class="node"><title>n17558</title>
</g>
<!-- n17610 -->
<g id="node2" class="node"><title>n17610</title>
<ellipse fill="cyan" stroke="black" cx="1053.98" cy="-539" rx="40.0939" ry="18"/>
<text text-anchor="middle" x="1053.98" y="-535.3" font-family="Times New Roman,serif" font-size="14.00">pm2.61i</text>
</g>
<!-- n17558&#45;&gt;n17610 -->
<g id="edge1" class="edge"><title>n17558&#45;&gt;n17610</title>
<path fill="none" stroke="lightgray" d="M887.123,-639.002C913.945,-627.924 959.548,-607.758 995.681,-585 1006.64,-578.095 1017.93,-569.429 1027.55,-561.486"/>
<polygon fill="lightgray" stroke="lightgray" points="1029.81,-564.159 1035.2,-555.038 1025.3,-558.807 1029.81,-564.159"/>
<text text-anchor="middle" x="954.181" y="-631.8" font-family="Times New Roman,serif" font-size="14.00" fill="lightgray">wff ch</text>
</g>
<!-- n17559 -->
<g id="node3" class="node"><title>n17559</title>
</g>
<!-- n17558&#45;&gt;n17559 -->
<g id="edge48" class="edge"><title>n17558&#45;&gt;n17559</title>
</g>
<!-- QED -->
<g id="node30" class="node"><title>QED</title>
</g>
<!-- n17610&#45;&gt;QED -->
<g id="edge47" class="edge"><title>n17610&#45;&gt;QED</title>
<path fill="none" stroke="black" d="M1094.38,-539C1109.18,-539 1125.97,-539 1140.71,-539"/>
<polygon fill="black" stroke="black" points="1141.03,-542.5 1151.03,-539 1141.03,-535.5 1141.03,-542.5"/>
<text text-anchor="middle" x="1122.77" y="-542.8" font-family="Times New Roman,serif" font-size="14.00">|&#45; ta</text>
</g>
<!-- n17559&#45;&gt;n17610 -->
<g id="edge2" class="edge"><title>n17559&#45;&gt;n17610</title>
<path fill="none" stroke="lightgray" d="M889.514,-571.087C919.355,-565.229 969.83,-555.321 1006.81,-548.062"/>
<polygon fill="lightgray" stroke="lightgray" points="1007.72,-551.451 1016.86,-546.09 1006.37,-544.582 1007.72,-551.451"/>
<text text-anchor="middle" x="954.181" y="-569.8" font-family="Times New Roman,serif" font-size="14.00" fill="lightgray">wff ta</text>
</g>
<!-- n17582 -->
<g id="node5" class="node"><title>n17582</title>
<ellipse fill="cyan" stroke="black" cx="863.483" cy="-504" rx="27" ry="18"/>
<text text-anchor="middle" x="863.483" y="-500.3" font-family="Times New Roman,serif" font-size="14.00">ibi</text>
</g>
<!-- n17559&#45;&gt;n17582 -->
<g id="edge49" class="edge"><title>n17559&#45;&gt;n17582</title>
</g>
<!-- n17560 -->
<g id="node4" class="node"><title>n17560</title>
</g>
<!-- n17560&#45;&gt;n17582 -->
<g id="edge3" class="edge"><title>n17560&#45;&gt;n17582</title>
<path fill="none" stroke="lightgray" d="M647.791,-644.896C687.66,-638.926 764.646,-622.537 814.286,-581 826.801,-570.528 823.733,-562.897 832.286,-549 836.354,-542.39 840.937,-535.366 845.279,-528.883"/>
<polygon fill="lightgray" stroke="lightgray" points="848.27,-530.708 850.981,-520.466 842.475,-526.782 848.27,-530.708"/>
<text text-anchor="middle" x="744.786" y="-642.8" font-family="Times New Roman,serif" font-size="14.00" fill="lightgray">wff ch</text>
</g>
<!-- n17561 -->
<g id="node6" class="node"><title>n17561</title>
</g>
<!-- n17560&#45;&gt;n17561 -->
<g id="edge21" class="edge"><title>n17560&#45;&gt;n17561</title>
</g>
<!-- n17582&#45;&gt;n17610 -->
<g id="edge20" class="edge"><title>n17582&#45;&gt;n17610</title>
<path fill="none" stroke="black" d="M889.904,-508.72C919.665,-514.246 969.558,-523.511 1006.34,-530.339"/>
<polygon fill="black" stroke="black" points="1005.86,-533.811 1016.33,-532.196 1007.14,-526.929 1005.86,-533.811"/>
<text text-anchor="middle" x="954.181" y="-530.8" font-family="Times New Roman,serif" font-size="14.00">|&#45; ( ch &#45;&gt; ta )</text>
</g>
<!-- n17609 -->
<g id="node17" class="node"><title>n17609</title>
<ellipse fill="cyan" stroke="black" cx="863.483" cy="-378" rx="31.3957" ry="18"/>
<text text-anchor="middle" x="863.483" y="-374.3" font-family="Times New Roman,serif" font-size="14.00">mpbii</text>
</g>
<!-- n17582&#45;&gt;n17609 -->
<g id="edge50" class="edge"><title>n17582&#45;&gt;n17609</title>
</g>
<!-- n17561&#45;&gt;n17582 -->
<g id="edge4" class="edge"><title>n17561&#45;&gt;n17582</title>
<path fill="none" stroke="lightgray" d="M646.437,-570.131C683.254,-561.128 754.802,-542.855 814.286,-523 819.618,-521.22 825.22,-519.177 830.641,-517.105"/>
<polygon fill="lightgray" stroke="lightgray" points="832.074,-520.303 840.108,-513.395 829.52,-513.785 832.074,-520.303"/>
<text text-anchor="middle" x="744.786" y="-565.8" font-family="Times New Roman,serif" font-size="14.00" fill="lightgray">wff ta</text>
</g>
<!-- n17581 -->
<g id="node8" class="node"><title>n17581</title>
<ellipse fill="cyan" stroke="black" cx="620.889" cy="-504" rx="27" ry="18"/>
<text text-anchor="middle" x="620.889" y="-500.3" font-family="Times New Roman,serif" font-size="14.00">syl</text>
</g>
<!-- n17561&#45;&gt;n17581 -->
<g id="edge22" class="edge"><title>n17561&#45;&gt;n17581</title>
</g>
<!-- n17562 -->
<g id="node7" class="node"><title>n17562</title>
</g>
<!-- n17562&#45;&gt;n17581 -->
<g id="edge5" class="edge"><title>n17562&#45;&gt;n17581</title>
<path fill="none" stroke="lightgray" d="M195.659,-652.027C263.599,-661.317 452.028,-677.238 566.493,-590 582.321,-577.937 574.259,-566.068 584.493,-549 588.877,-541.687 594.298,-534.223 599.567,-527.529"/>
<polygon fill="lightgray" stroke="lightgray" points="602.477,-529.498 606.073,-519.532 597.047,-525.081 602.477,-529.498"/>
<text text-anchor="middle" x="397.993" y="-662.8" font-family="Times New Roman,serif" font-size="14.00" fill="lightgray">wff ch</text>
</g>
<!-- n17572 -->
<g id="node9" class="node"><title>n17572</title>
</g>
<!-- n17562&#45;&gt;n17572 -->
<g id="edge16" class="edge"><title>n17562&#45;&gt;n17572</title>
</g>
<!-- n17581&#45;&gt;n17582 -->
<g id="edge15" class="edge"><title>n17581&#45;&gt;n17582</title>
<path fill="none" stroke="black" d="M648.095,-504C691.212,-504 777.202,-504 826.162,-504"/>
<polygon fill="black" stroke="black" points="826.31,-507.5 836.31,-504 826.31,-500.5 826.31,-507.5"/>
<text text-anchor="middle" x="744.786" y="-507.8" font-family="Times New Roman,serif" font-size="14.00">|&#45; ( ch &#45;&gt; ( ch &lt;&#45;&gt; ta ) )</text>
</g>
<!-- n17572&#45;&gt;n17581 -->
<g id="edge6" class="edge"><title>n17572&#45;&gt;n17581</title>
<path fill="none" stroke="lightgray" d="M196.557,-574.386C260.631,-570.047 429.552,-556.136 566.493,-523 573.432,-521.321 580.728,-519.067 587.62,-516.699"/>
<polygon fill="lightgray" stroke="lightgray" points="589.116,-519.881 597.341,-513.202 586.746,-513.294 589.116,-519.881"/>
<text text-anchor="middle" x="397.993" y="-574.8" font-family="Times New Roman,serif" font-size="14.00" fill="lightgray">wff ( ph &lt;&#45;&gt; ( ( ph /\ ch ) \/ ( ps /\ &#45;. ch ) ) )</text>
</g>
<!-- n17575 -->
<g id="node10" class="node"><title>n17575</title>
</g>
<!-- n17572&#45;&gt;n17575 -->
<g id="edge17" class="edge"><title>n17572&#45;&gt;n17575</title>
</g>
<!-- n17575&#45;&gt;n17581 -->
<g id="edge7" class="edge"><title>n17575&#45;&gt;n17581</title>
<path fill="none" stroke="lightgray" d="M196.364,-504C272.731,-504 495.758,-504 583.667,-504"/>
<polygon fill="lightgray" stroke="lightgray" points="583.699,-507.5 593.699,-504 583.699,-500.5 583.699,-507.5"/>
<text text-anchor="middle" x="397.993" y="-507.8" font-family="Times New Roman,serif" font-size="14.00" fill="lightgray">wff ( ch &lt;&#45;&gt; ta )</text>
</g>
<!-- n17579 -->
<g id="node12" class="node"><title>n17579</title>
<ellipse fill="cyan" stroke="black" cx="169.246" cy="-432" rx="40.8928" ry="18"/>
<text text-anchor="middle" x="169.246" y="-428.3" font-family="Times New Roman,serif" font-size="14.00">dedlema</text>
</g>
<!-- n17575&#45;&gt;n17579 -->
<g id="edge18" class="edge"><title>n17575&#45;&gt;n17579</title>
</g>
<!-- n17576 -->
<g id="node11" class="node"><title>n17576</title>
</g>
<!-- n17576&#45;&gt;n17579 -->
<g id="edge8" class="edge"><title>n17576&#45;&gt;n17579</title>
<path fill="none" stroke="lightgray" d="M48.9963,-493.221C71.1432,-481.851 106.429,-463.736 132.881,-450.156"/>
<polygon fill="lightgray" stroke="lightgray" points="134.536,-453.241 141.834,-445.56 131.339,-447.013 134.536,-453.241"/>
<text text-anchor="middle" x="90.5" y="-483.8" font-family="Times New Roman,serif" font-size="14.00" fill="lightgray">wff ch</text>
</g>
<!-- n17577 -->
<g id="node13" class="node"><title>n17577</title>
</g>
<!-- n17576&#45;&gt;n17577 -->
<g id="edge12" class="edge"><title>n17576&#45;&gt;n17577</title>
</g>
<!-- n17579&#45;&gt;n17581 -->
<g id="edge11" class="edge"><title>n17579&#45;&gt;n17581</title>
<path fill="none" stroke="black" d="M209.837,-434.547C281.724,-439.776 438.153,-453.945 566.493,-485 573.432,-486.679 580.728,-488.933 587.62,-491.301"/>
<polygon fill="black" stroke="black" points="586.746,-494.706 597.341,-494.798 589.116,-488.119 586.746,-494.706"/>
<text text-anchor="middle" x="397.993" y="-488.8" font-family="Times New Roman,serif" font-size="14.00">|&#45; ( ch &#45;&gt; ( ph &lt;&#45;&gt; ( ( ph /\ ch ) \/ ( ps /\ &#45;. ch ) ) ) )</text>
</g>
<!-- n17580 -->
<g id="node15" class="node"><title>n17580</title>
<ellipse fill="orange" stroke="black" cx="169.246" cy="-360" rx="36.2938" ry="18"/>
<text text-anchor="middle" x="169.246" y="-356.3" font-family="Times New Roman,serif" font-size="14.00">elimh.1</text>
</g>
<!-- n17579&#45;&gt;n17580 -->
<g id="edge19" class="edge"><title>n17579&#45;&gt;n17580</title>
</g>
<!-- n17577&#45;&gt;n17579 -->
<g id="edge9" class="edge"><title>n17577&#45;&gt;n17579</title>
<path fill="none" stroke="lightgray" d="M54.0506,-432C72.0358,-432 96.5258,-432 118.215,-432"/>
<polygon fill="lightgray" stroke="lightgray" points="118.272,-435.5 128.272,-432 118.272,-428.5 118.272,-435.5"/>
<text text-anchor="middle" x="90.5" y="-435.8" font-family="Times New Roman,serif" font-size="14.00" fill="lightgray">wff ph</text>
</g>
<!-- n17578 -->
<g id="node14" class="node"><title>n17578</title>
</g>
<!-- n17577&#45;&gt;n17578 -->
<g id="edge13" class="edge"><title>n17577&#45;&gt;n17578</title>
</g>
<!-- n17578&#45;&gt;n17579 -->
<g id="edge10" class="edge"><title>n17578&#45;&gt;n17579</title>
<path fill="none" stroke="lightgray" d="M48.9963,-370.779C71.1432,-382.149 106.429,-400.264 132.881,-413.844"/>
<polygon fill="lightgray" stroke="lightgray" points="131.339,-416.987 141.834,-418.44 134.536,-410.759 131.339,-416.987"/>
<text text-anchor="middle" x="90.5" y="-403.8" font-family="Times New Roman,serif" font-size="14.00" fill="lightgray">wff ps</text>
</g>
<!-- n17580&#45;&gt;n17581 -->
<g id="edge14" class="edge"><title>n17580&#45;&gt;n17581</title>
<path fill="none" stroke="black" d="M203.716,-353.966C278.568,-342.519 461.179,-326.278 566.493,-417 587.586,-435.171 568.651,-454.106 584.493,-477 586.642,-480.106 589.261,-483.011 592.092,-485.677"/>
<polygon fill="black" stroke="black" points="589.971,-488.465 599.903,-492.154 594.439,-483.077 589.971,-488.465"/>
<text text-anchor="middle" x="397.993" y="-420.8" font-family="Times New Roman,serif" font-size="14.00">|&#45; ( ( ph &lt;&#45;&gt; ( ( ph /\ ch ) \/ ( ps /\ &#45;. ch ) ) ) &#45;&gt; ( ch &lt;&#45;&gt; ta ) )</text>
</g>
<!-- n17584 -->
<g id="node16" class="node"><title>n17584</title>
</g>
<!-- n17584&#45;&gt;n17609 -->
<g id="edge23" class="edge"><title>n17584&#45;&gt;n17609</title>
<path fill="none" stroke="lightgray" d="M646.437,-444.131C683.254,-435.128 754.802,-416.855 814.286,-397 818.845,-395.478 823.601,-393.764 828.273,-392.004"/>
<polygon fill="lightgray" stroke="lightgray" points="829.591,-395.246 837.654,-388.373 827.065,-388.718 829.591,-395.246"/>
<text text-anchor="middle" x="744.786" y="-439.8" font-family="Times New Roman,serif" font-size="14.00" fill="lightgray">wff &#45;. ch</text>
</g>
<!-- n17585 -->
<g id="node18" class="node"><title>n17585</title>
</g>
<!-- n17584&#45;&gt;n17585 -->
<g id="edge43" class="edge"><title>n17584&#45;&gt;n17585</title>
</g>
<!-- n17609&#45;&gt;n17610 -->
<g id="edge42" class="edge"><title>n17609&#45;&gt;n17610</title>
<path fill="none" stroke="black" d="M881.878,-392.858C915.062,-421.202 987.577,-483.139 1026.7,-516.557"/>
<polygon fill="black" stroke="black" points="1024.64,-519.399 1034.52,-523.233 1029.19,-514.077 1024.64,-519.399"/>
<text text-anchor="middle" x="954.181" y="-489.8" font-family="Times New Roman,serif" font-size="14.00">|&#45; ( &#45;. ch &#45;&gt; ta )</text>
</g>
<!-- n17585&#45;&gt;n17609 -->
<g id="edge24" class="edge"><title>n17585&#45;&gt;n17609</title>
<path fill="none" stroke="lightgray" d="M648.095,-378C690.051,-378 772.605,-378 822.131,-378"/>
<polygon fill="lightgray" stroke="lightgray" points="822.171,-381.5 832.171,-378 822.171,-374.5 822.171,-381.5"/>
<text text-anchor="middle" x="744.786" y="-381.8" font-family="Times New Roman,serif" font-size="14.00" fill="lightgray">wff th</text>
</g>
<!-- n17586 -->
<g id="node19" class="node"><title>n17586</title>
</g>
<!-- n17585&#45;&gt;n17586 -->
<g id="edge44" class="edge"><title>n17585&#45;&gt;n17586</title>
</g>
<!-- n17586&#45;&gt;n17609 -->
<g id="edge25" class="edge"><title>n17586&#45;&gt;n17609</title>
<path fill="none" stroke="lightgray" d="M646.437,-311.869C683.254,-320.872 754.802,-339.145 814.286,-359 818.845,-360.522 823.601,-362.236 828.273,-363.996"/>
<polygon fill="lightgray" stroke="lightgray" points="827.065,-367.282 837.654,-367.627 829.591,-360.754 827.065,-367.282"/>
<text text-anchor="middle" x="744.786" y="-362.8" font-family="Times New Roman,serif" font-size="14.00" fill="lightgray">wff ta</text>
</g>
<!-- n17587 -->
<g id="node20" class="node"><title>n17587</title>
<ellipse fill="orange" stroke="black" cx="620.889" cy="-234" rx="36.2938" ry="18"/>
<text text-anchor="middle" x="620.889" y="-230.3" font-family="Times New Roman,serif" font-size="14.00">elimh.3</text>
</g>
<!-- n17586&#45;&gt;n17587 -->
<g id="edge45" class="edge"><title>n17586&#45;&gt;n17587</title>
</g>
<!-- n17587&#45;&gt;n17609 -->
<g id="edge26" class="edge"><title>n17587&#45;&gt;n17609</title>
<path fill="none" stroke="black" d="M656.161,-238.845C697.452,-246.161 767.142,-263.395 814.286,-301 830.776,-314.154 843.192,-334.581 851.289,-351.091"/>
<polygon fill="black" stroke="black" points="848.168,-352.681 855.555,-360.275 854.516,-349.731 848.168,-352.681"/>
<text text-anchor="middle" x="744.786" y="-304.8" font-family="Times New Roman,serif" font-size="14.00">|&#45; th</text>
</g>
<!-- n17608 -->
<g id="node22" class="node"><title>n17608</title>
<ellipse fill="cyan" stroke="black" cx="620.889" cy="-162" rx="27" ry="18"/>
<text text-anchor="middle" x="620.889" y="-158.3" font-family="Times New Roman,serif" font-size="14.00">syl</text>
</g>
<!-- n17587&#45;&gt;n17608 -->
<g id="edge46" class="edge"><title>n17587&#45;&gt;n17608</title>
</g>
<!-- n17589 -->
<g id="node21" class="node"><title>n17589</title>
</g>
<!-- n17589&#45;&gt;n17608 -->
<g id="edge27" class="edge"><title>n17589&#45;&gt;n17608</title>
<path fill="none" stroke="lightgray" d="M195.694,-310.159C263.72,-319.79 452.346,-336.568 566.493,-249 582.606,-236.639 574.126,-224.464 584.493,-207 588.845,-199.668 594.255,-192.197 599.525,-185.503"/>
<polygon fill="lightgray" stroke="lightgray" points="602.434,-187.474 606.035,-177.51 597.006,-183.053 602.434,-187.474"/>
<text text-anchor="middle" x="397.993" y="-322.8" font-family="Times New Roman,serif" font-size="14.00" fill="lightgray">wff &#45;. ch</text>
</g>
<!-- n17599 -->
<g id="node23" class="node"><title>n17599</title>
</g>
<!-- n17589&#45;&gt;n17599 -->
<g id="edge38" class="edge"><title>n17589&#45;&gt;n17599</title>
</g>
<!-- n17608&#45;&gt;n17609 -->
<g id="edge37" class="edge"><title>n17608&#45;&gt;n17609</title>
<path fill="none" stroke="black" d="M647.86,-163.207C688.884,-166.519 768.692,-178.889 814.286,-225 847.769,-258.862 858.025,-315.749 861.145,-349.795"/>
<polygon fill="black" stroke="black" points="857.672,-350.285 861.928,-359.988 864.652,-349.749 857.672,-350.285"/>
<text text-anchor="middle" x="744.786" y="-228.8" font-family="Times New Roman,serif" font-size="14.00">|&#45; ( &#45;. ch &#45;&gt; ( th &lt;&#45;&gt; ta ) )</text>
</g>
<!-- n17599&#45;&gt;n17608 -->
<g id="edge28" class="edge"><title>n17599&#45;&gt;n17608</title>
<path fill="none" stroke="lightgray" d="M196.557,-232.386C260.631,-228.047 429.552,-214.136 566.493,-181 573.432,-179.321 580.728,-177.067 587.62,-174.699"/>
<polygon fill="lightgray" stroke="lightgray" points="589.116,-177.881 597.341,-171.202 586.746,-171.294 589.116,-177.881"/>
<text text-anchor="middle" x="397.993" y="-233.8" font-family="Times New Roman,serif" font-size="14.00" fill="lightgray">wff ( ps &lt;&#45;&gt; ( ( ph /\ ch ) \/ ( ps /\ &#45;. ch ) ) )</text>
</g>
<!-- n17602 -->
<g id="node24" class="node"><title>n17602</title>
</g>
<!-- n17599&#45;&gt;n17602 -->
<g id="edge39" class="edge"><title>n17599&#45;&gt;n17602</title>
</g>
<!-- n17602&#45;&gt;n17608 -->
<g id="edge29" class="edge"><title>n17602&#45;&gt;n17608</title>
<path fill="none" stroke="lightgray" d="M196.364,-162C272.731,-162 495.758,-162 583.667,-162"/>
<polygon fill="lightgray" stroke="lightgray" points="583.699,-165.5 593.699,-162 583.699,-158.5 583.699,-165.5"/>
<text text-anchor="middle" x="397.993" y="-165.8" font-family="Times New Roman,serif" font-size="14.00" fill="lightgray">wff ( th &lt;&#45;&gt; ta )</text>
</g>
<!-- n17606 -->
<g id="node26" class="node"><title>n17606</title>
<ellipse fill="cyan" stroke="black" cx="169.246" cy="-90" rx="42.4939" ry="18"/>
<text text-anchor="middle" x="169.246" y="-86.3" font-family="Times New Roman,serif" font-size="14.00">dedlemb</text>
</g>
<!-- n17602&#45;&gt;n17606 -->
<g id="edge40" class="edge"><title>n17602&#45;&gt;n17606</title>
</g>
<!-- n17603 -->
<g id="node25" class="node"><title>n17603</title>
</g>
<!-- n17603&#45;&gt;n17606 -->
<g id="edge30" class="edge"><title>n17603&#45;&gt;n17606</title>
<path fill="none" stroke="lightgray" d="M48.9963,-151.221C71.0065,-139.921 105.994,-121.959 132.39,-108.408"/>
<polygon fill="lightgray" stroke="lightgray" points="134.036,-111.497 141.334,-103.816 130.839,-105.27 134.036,-111.497"/>
<text text-anchor="middle" x="90.5" y="-142.8" font-family="Times New Roman,serif" font-size="14.00" fill="lightgray">wff ch</text>
</g>
<!-- n17604 -->
<g id="node27" class="node"><title>n17604</title>
</g>
<!-- n17603&#45;&gt;n17604 -->
<g id="edge34" class="edge"><title>n17603&#45;&gt;n17604</title>
</g>
<!-- n17606&#45;&gt;n17608 -->
<g id="edge33" class="edge"><title>n17606&#45;&gt;n17608</title>
<path fill="none" stroke="black" d="M211.265,-92.6512C283.778,-97.9633 438.996,-112.149 566.493,-143 573.432,-144.679 580.728,-146.933 587.62,-149.301"/>
<polygon fill="black" stroke="black" points="586.746,-152.706 597.341,-152.798 589.116,-146.119 586.746,-152.706"/>
<text text-anchor="middle" x="397.993" y="-146.8" font-family="Times New Roman,serif" font-size="14.00">|&#45; ( &#45;. ch &#45;&gt; ( ps &lt;&#45;&gt; ( ( ph /\ ch ) \/ ( ps /\ &#45;. ch ) ) ) )</text>
</g>
<!-- n17607 -->
<g id="node29" class="node"><title>n17607</title>
<ellipse fill="orange" stroke="black" cx="169.246" cy="-18" rx="36.2938" ry="18"/>
<text text-anchor="middle" x="169.246" y="-14.3" font-family="Times New Roman,serif" font-size="14.00">elimh.2</text>
</g>
<!-- n17606&#45;&gt;n17607 -->
<g id="edge41" class="edge"><title>n17606&#45;&gt;n17607</title>
</g>
<!-- n17604&#45;&gt;n17606 -->
<g id="edge31" class="edge"><title>n17604&#45;&gt;n17606</title>
<path fill="none" stroke="lightgray" d="M54.0506,-90C71.6141,-90 95.3808,-90 116.685,-90"/>
<polygon fill="lightgray" stroke="lightgray" points="116.907,-93.5001 126.907,-90 116.907,-86.5001 116.907,-93.5001"/>
<text text-anchor="middle" x="90.5" y="-93.8" font-family="Times New Roman,serif" font-size="14.00" fill="lightgray">wff ph</text>
</g>
<!-- n17605 -->
<g id="node28" class="node"><title>n17605</title>
</g>
<!-- n17604&#45;&gt;n17605 -->
<g id="edge35" class="edge"><title>n17604&#45;&gt;n17605</title>
</g>
<!-- n17605&#45;&gt;n17606 -->
<g id="edge32" class="edge"><title>n17605&#45;&gt;n17606</title>
<path fill="none" stroke="lightgray" d="M48.9963,-28.7791C71.0065,-40.0788 105.994,-58.0405 132.39,-71.5922"/>
<polygon fill="lightgray" stroke="lightgray" points="130.839,-74.7301 141.334,-76.1836 134.036,-68.5027 130.839,-74.7301"/>
<text text-anchor="middle" x="90.5" y="-62.8" font-family="Times New Roman,serif" font-size="14.00" fill="lightgray">wff ps</text>
</g>
<!-- n17607&#45;&gt;n17608 -->
<g id="edge36" class="edge"><title>n17607&#45;&gt;n17608</title>
<path fill="none" stroke="black" d="M204.874,-13.9088C278.166,-7.07395 451.654,-0.720372 566.493,-76 587.616,-89.8471 601.851,-115.251 610.275,-134.872"/>
<polygon fill="black" stroke="black" points="607.066,-136.273 614.052,-144.238 613.558,-133.655 607.066,-136.273"/>
<text text-anchor="middle" x="397.993" y="-79.8" font-family="Times New Roman,serif" font-size="14.00">|&#45; ( ( ps &lt;&#45;&gt; ( ( ph /\ ch ) \/ ( ps /\ &#45;. ch ) ) ) &#45;&gt; ( th &lt;&#45;&gt; ta ) )</text>
</g>
</g>
</svg>
