<?xml version="1.0" encoding="UTF-8" standalone="no"?>
<!DOCTYPE svg PUBLIC "-//W3C//DTD SVG 1.1//EN"
 "http://www.w3.org/Graphics/SVG/1.1/DTD/svg11.dtd">
<!-- Generated by graphviz version 2.38.0 (20140413.2041)
 -->
<!-- Title: proof_exp4c Pages: 1 -->
<svg width="1027pt" height="476pt"
 viewBox="0.00 0.00 1026.78 476.00" xmlns="http://www.w3.org/2000/svg" xmlns:xlink="http://www.w3.org/1999/xlink">
<g id="graph0" class="graph" transform="scale(1 1) rotate(0) translate(4 472)">
<title>proof_exp4c</title>
<polygon fill="white" stroke="none" points="-4,4 -4,-472 1022.78,-472 1022.78,4 -4,4"/>
<!-- n10469 -->
<g id="node1" class="node"><title>n10469</title>
</g>
<!-- n10483 -->
<g id="node2" class="node"><title>n10483</title>
<ellipse fill="cyan" stroke="black" cx="671.784" cy="-306" rx="32.4942" ry="18"/>
<text text-anchor="middle" x="671.784" y="-302.3" font-family="Times New Roman,serif" font-size="14.00">exp3a</text>
</g>
<!-- n10469&#45;&gt;n10483 -->
<g id="edge1" class="edge"><title>n10469&#45;&gt;n10483</title>
<path fill="none" stroke="lightgray" d="M384.094,-450.29C434.851,-449.56 547.777,-441.531 621.287,-388 640.088,-374.309 653.12,-351.102 661.074,-332.863"/>
<polygon fill="lightgray" stroke="lightgray" points="664.319,-334.175 664.875,-323.595 657.843,-331.519 664.319,-334.175"/>
<text text-anchor="middle" x="514.287" y="-452.8" font-family="Times New Roman,serif" font-size="14.00" fill="lightgray">wff ph</text>
</g>
<!-- n10470 -->
<g id="node3" class="node"><title>n10470</title>
</g>
<!-- n10469&#45;&gt;n10470 -->
<g id="edge16" class="edge"><title>n10469&#45;&gt;n10470</title>
</g>
<!-- QED -->
<g id="node12" class="node"><title>QED</title>
</g>
<!-- n10483&#45;&gt;QED -->
<g id="edge15" class="edge"><title>n10483&#45;&gt;QED</title>
<path fill="none" stroke="black" d="M704.505,-306C762.75,-306 886.555,-306 949.714,-306"/>
<polygon fill="black" stroke="black" points="950.042,-309.5 960.042,-306 950.042,-302.5 950.042,-309.5"/>
<text text-anchor="middle" x="832.281" y="-309.8" font-family="Times New Roman,serif" font-size="14.00">|&#45; ( ph &#45;&gt; ( ps &#45;&gt; ( ch &#45;&gt; ( th &#45;&gt; ta ) ) ) )</text>
</g>
<!-- n10470&#45;&gt;n10483 -->
<g id="edge2" class="edge"><title>n10470&#45;&gt;n10483</title>
<path fill="none" stroke="lightgray" d="M383.572,-374.29C431.145,-367.119 535.695,-349.845 621.287,-325 626.011,-323.629 630.919,-322.002 635.729,-320.287"/>
<polygon fill="lightgray" stroke="lightgray" points="637.225,-323.464 645.374,-316.693 634.781,-316.905 637.225,-323.464"/>
<text text-anchor="middle" x="514.287" y="-372.8" font-family="Times New Roman,serif" font-size="14.00" fill="lightgray">wff ps</text>
</g>
<!-- n10471 -->
<g id="node4" class="node"><title>n10471</title>
</g>
<!-- n10470&#45;&gt;n10471 -->
<g id="edge17" class="edge"><title>n10470&#45;&gt;n10471</title>
</g>
<!-- n10471&#45;&gt;n10483 -->
<g id="edge3" class="edge"><title>n10471&#45;&gt;n10483</title>
<path fill="none" stroke="lightgray" d="M383.937,-306C438.077,-306 562.865,-306 628.568,-306"/>
<polygon fill="lightgray" stroke="lightgray" points="628.97,-309.5 638.97,-306 628.97,-302.5 628.97,-309.5"/>
<text text-anchor="middle" x="514.287" y="-309.8" font-family="Times New Roman,serif" font-size="14.00" fill="lightgray">wff ch</text>
</g>
<!-- n10474 -->
<g id="node5" class="node"><title>n10474</title>
</g>
<!-- n10471&#45;&gt;n10474 -->
<g id="edge18" class="edge"><title>n10471&#45;&gt;n10474</title>
</g>
<!-- n10474&#45;&gt;n10483 -->
<g id="edge4" class="edge"><title>n10474&#45;&gt;n10483</title>
<path fill="none" stroke="lightgray" d="M383.572,-237.71C431.145,-244.881 535.695,-262.155 621.287,-287 626.011,-288.371 630.919,-289.998 635.729,-291.713"/>
<polygon fill="lightgray" stroke="lightgray" points="634.781,-295.095 645.374,-295.307 637.225,-288.536 634.781,-295.095"/>
<text text-anchor="middle" x="514.287" y="-290.8" font-family="Times New Roman,serif" font-size="14.00" fill="lightgray">wff ( th &#45;&gt; ta )</text>
</g>
<!-- n10482 -->
<g id="node7" class="node"><title>n10482</title>
<ellipse fill="cyan" stroke="black" cx="356.79" cy="-162" rx="32.4942" ry="18"/>
<text text-anchor="middle" x="356.79" y="-158.3" font-family="Times New Roman,serif" font-size="14.00">exp3a</text>
</g>
<!-- n10474&#45;&gt;n10482 -->
<g id="edge19" class="edge"><title>n10474&#45;&gt;n10482</title>
</g>
<!-- n10475 -->
<g id="node6" class="node"><title>n10475</title>
</g>
<!-- n10475&#45;&gt;n10482 -->
<g id="edge5" class="edge"><title>n10475&#45;&gt;n10482</title>
<path fill="none" stroke="lightgray" d="M66.7628,-306.751C118.231,-306.873 234.033,-300.249 306.293,-243 320.314,-231.891 315.139,-222.369 324.293,-207 328.252,-200.353 332.864,-193.4 337.319,-187.003"/>
<polygon fill="lightgray" stroke="lightgray" points="340.277,-188.882 343.219,-178.703 334.572,-184.825 340.277,-188.882"/>
<text text-anchor="middle" x="201.793" y="-308.8" font-family="Times New Roman,serif" font-size="14.00" fill="lightgray">wff ph</text>
</g>
<!-- n10478 -->
<g id="node8" class="node"><title>n10478</title>
</g>
<!-- n10475&#45;&gt;n10478 -->
<g id="edge11" class="edge"><title>n10475&#45;&gt;n10478</title>
</g>
<!-- n10482&#45;&gt;n10483 -->
<g id="edge10" class="edge"><title>n10482&#45;&gt;n10483</title>
<path fill="none" stroke="black" d="M389.438,-161.627C442.45,-162.554 550.351,-171.249 621.287,-223 640.244,-236.83 653.261,-260.323 661.171,-278.792"/>
<polygon fill="black" stroke="black" points="657.967,-280.206 664.945,-288.178 664.462,-277.594 657.967,-280.206"/>
<text text-anchor="middle" x="514.287" y="-226.8" font-family="Times New Roman,serif" font-size="14.00">|&#45; ( ph &#45;&gt; ( ( ps /\ ch ) &#45;&gt; ( th &#45;&gt; ta ) ) )</text>
</g>
<!-- n10478&#45;&gt;n10482 -->
<g id="edge6" class="edge"><title>n10478&#45;&gt;n10482</title>
<path fill="none" stroke="lightgray" d="M66.2642,-230.37C114.052,-223.274 219.784,-206.037 306.293,-181 311.018,-179.633 315.927,-178.008 320.737,-176.294"/>
<polygon fill="lightgray" stroke="lightgray" points="322.233,-179.471 330.382,-172.701 319.789,-172.912 322.233,-179.471"/>
<text text-anchor="middle" x="201.793" y="-227.8" font-family="Times New Roman,serif" font-size="14.00" fill="lightgray">wff ( ps /\ ch )</text>
</g>
<!-- n10479 -->
<g id="node9" class="node"><title>n10479</title>
</g>
<!-- n10478&#45;&gt;n10479 -->
<g id="edge12" class="edge"><title>n10478&#45;&gt;n10479</title>
</g>
<!-- n10479&#45;&gt;n10482 -->
<g id="edge7" class="edge"><title>n10479&#45;&gt;n10482</title>
<path fill="none" stroke="lightgray" d="M66.7041,-162C121.297,-162 248.074,-162 314.111,-162"/>
<polygon fill="lightgray" stroke="lightgray" points="314.168,-165.5 324.168,-162 314.168,-158.5 314.168,-165.5"/>
<text text-anchor="middle" x="201.793" y="-165.8" font-family="Times New Roman,serif" font-size="14.00" fill="lightgray">wff th</text>
</g>
<!-- n10480 -->
<g id="node10" class="node"><title>n10480</title>
</g>
<!-- n10479&#45;&gt;n10480 -->
<g id="edge13" class="edge"><title>n10479&#45;&gt;n10480</title>
</g>
<!-- n10480&#45;&gt;n10482 -->
<g id="edge8" class="edge"><title>n10480&#45;&gt;n10482</title>
<path fill="none" stroke="lightgray" d="M66.2642,-93.6299C114.052,-100.726 219.784,-117.963 306.293,-143 311.018,-144.367 315.927,-145.992 320.737,-147.706"/>
<polygon fill="lightgray" stroke="lightgray" points="319.789,-151.088 330.382,-151.299 322.233,-144.529 319.789,-151.088"/>
<text text-anchor="middle" x="201.793" y="-146.8" font-family="Times New Roman,serif" font-size="14.00" fill="lightgray">wff ta</text>
</g>
<!-- n10481 -->
<g id="node11" class="node"><title>n10481</title>
<ellipse fill="orange" stroke="black" cx="39.6465" cy="-18" rx="39.7935" ry="18"/>
<text text-anchor="middle" x="39.6465" y="-14.3" font-family="Times New Roman,serif" font-size="14.00">exp4c.1</text>
</g>
<!-- n10480&#45;&gt;n10481 -->
<g id="edge14" class="edge"><title>n10480&#45;&gt;n10481</title>
</g>
<!-- n10481&#45;&gt;n10482 -->
<g id="edge9" class="edge"><title>n10481&#45;&gt;n10482</title>
<path fill="none" stroke="black" d="M79.6483,-18.1491C135.103,-20.2304 237.616,-31.1823 306.293,-81 324.752,-94.3902 337.718,-116.971 345.735,-134.894"/>
<polygon fill="black" stroke="black" points="342.581,-136.423 349.684,-144.284 349.034,-133.709 342.581,-136.423"/>
<text text-anchor="middle" x="201.793" y="-84.8" font-family="Times New Roman,serif" font-size="14.00">|&#45; ( ph &#45;&gt; ( ( ( ps /\ ch ) /\ th ) &#45;&gt; ta ) )</text>
</g>
</g>
</svg>
