<?xml version="1.0" encoding="UTF-8" standalone="no"?>
<!DOCTYPE svg PUBLIC "-//W3C//DTD SVG 1.1//EN"
 "http://www.w3.org/Graphics/SVG/1.1/DTD/svg11.dtd">
<!-- Generated by graphviz version 2.38.0 (20140413.2041)
 -->
<!-- Title: proof_exp4d Pages: 1 -->
<svg width="1028pt" height="548pt"
 viewBox="0.00 0.00 1028.08 548.00" xmlns="http://www.w3.org/2000/svg" xmlns:xlink="http://www.w3.org/1999/xlink">
<g id="graph0" class="graph" transform="scale(1 1) rotate(0) translate(4 544)">
<title>proof_exp4d</title>
<polygon fill="white" stroke="none" points="-4,4 -4,-544 1024.08,-544 1024.08,4 -4,4"/>
<!-- n10484 -->
<g id="node1" class="node"><title>n10484</title>
</g>
<!-- n10497 -->
<g id="node2" class="node"><title>n10497</title>
<ellipse fill="cyan" stroke="black" cx="673.084" cy="-341" rx="32.4942" ry="18"/>
<text text-anchor="middle" x="673.084" y="-337.3" font-family="Times New Roman,serif" font-size="14.00">exp4a</text>
</g>
<!-- n10484&#45;&gt;n10497 -->
<g id="edge1" class="edge"><title>n10484&#45;&gt;n10497</title>
<path fill="none" stroke="lightgray" d="M384.973,-523.872C436.492,-526.16 552.9,-523.938 622.587,-465 651.149,-440.843 663.371,-397.865 668.503,-369.396"/>
<polygon fill="lightgray" stroke="lightgray" points="672,-369.695 670.142,-359.264 665.09,-368.577 672,-369.695"/>
<text text-anchor="middle" x="515.587" y="-527.8" font-family="Times New Roman,serif" font-size="14.00" fill="lightgray">wff ph</text>
</g>
<!-- n10485 -->
<g id="node3" class="node"><title>n10485</title>
</g>
<!-- n10484&#45;&gt;n10485 -->
<g id="edge17" class="edge"><title>n10484&#45;&gt;n10485</title>
</g>
<!-- QED -->
<g id="node13" class="node"><title>QED</title>
</g>
<!-- n10497&#45;&gt;QED -->
<g id="edge16" class="edge"><title>n10497&#45;&gt;QED</title>
<path fill="none" stroke="black" d="M705.805,-341C764.05,-341 887.854,-341 951.014,-341"/>
<polygon fill="black" stroke="black" points="951.342,-344.5 961.342,-341 951.342,-337.5 951.342,-344.5"/>
<text text-anchor="middle" x="833.581" y="-344.8" font-family="Times New Roman,serif" font-size="14.00">|&#45; ( ph &#45;&gt; ( ps &#45;&gt; ( ch &#45;&gt; ( th &#45;&gt; ta ) ) ) )</text>
</g>
<!-- n10485&#45;&gt;n10497 -->
<g id="edge2" class="edge"><title>n10485&#45;&gt;n10497</title>
<path fill="none" stroke="lightgray" d="M385.071,-448.78C434.323,-445.49 543.42,-433.467 622.587,-390 633.9,-383.788 644.384,-374.239 652.763,-365.214"/>
<polygon fill="lightgray" stroke="lightgray" points="655.563,-367.331 659.553,-357.516 650.313,-362.7 655.563,-367.331"/>
<text text-anchor="middle" x="515.587" y="-449.8" font-family="Times New Roman,serif" font-size="14.00" fill="lightgray">wff ps</text>
</g>
<!-- n10486 -->
<g id="node4" class="node"><title>n10486</title>
</g>
<!-- n10485&#45;&gt;n10486 -->
<g id="edge18" class="edge"><title>n10485&#45;&gt;n10486</title>
</g>
<!-- n10486&#45;&gt;n10497 -->
<g id="edge3" class="edge"><title>n10486&#45;&gt;n10497</title>
<path fill="none" stroke="lightgray" d="M384.901,-374.994C432.092,-369.491 535.459,-357.406 622.587,-347 625.407,-346.663 628.318,-346.314 631.249,-345.961"/>
<polygon fill="lightgray" stroke="lightgray" points="631.685,-349.434 641.194,-344.762 630.847,-342.485 631.685,-349.434"/>
<text text-anchor="middle" x="515.587" y="-374.8" font-family="Times New Roman,serif" font-size="14.00" fill="lightgray">wff ch</text>
</g>
<!-- n10487 -->
<g id="node5" class="node"><title>n10487</title>
</g>
<!-- n10486&#45;&gt;n10487 -->
<g id="edge19" class="edge"><title>n10486&#45;&gt;n10487</title>
</g>
<!-- n10487&#45;&gt;n10497 -->
<g id="edge4" class="edge"><title>n10487&#45;&gt;n10497</title>
<path fill="none" stroke="lightgray" d="M384.98,-307.851C432.299,-311.389 535.864,-319.858 622.587,-332 625.787,-332.448 629.097,-332.955 632.417,-333.493"/>
<polygon fill="lightgray" stroke="lightgray" points="631.863,-336.95 642.309,-335.18 633.04,-330.049 631.863,-336.95"/>
<text text-anchor="middle" x="515.587" y="-335.8" font-family="Times New Roman,serif" font-size="14.00" fill="lightgray">wff th</text>
</g>
<!-- n10488 -->
<g id="node6" class="node"><title>n10488</title>
</g>
<!-- n10487&#45;&gt;n10488 -->
<g id="edge20" class="edge"><title>n10487&#45;&gt;n10488</title>
</g>
<!-- n10488&#45;&gt;n10497 -->
<g id="edge5" class="edge"><title>n10488&#45;&gt;n10497</title>
<path fill="none" stroke="lightgray" d="M385.103,-234.783C434.409,-237.273 543.594,-247.667 622.587,-291 634.133,-297.334 644.733,-307.201 653.135,-316.501"/>
<polygon fill="lightgray" stroke="lightgray" points="650.481,-318.782 659.65,-324.091 655.792,-314.223 650.481,-318.782"/>
<text text-anchor="middle" x="515.587" y="-294.8" font-family="Times New Roman,serif" font-size="14.00" fill="lightgray">wff ta</text>
</g>
<!-- n10496 -->
<g id="node8" class="node"><title>n10496</title>
<ellipse fill="cyan" stroke="black" cx="358.09" cy="-162" rx="32.4942" ry="18"/>
<text text-anchor="middle" x="358.09" y="-158.3" font-family="Times New Roman,serif" font-size="14.00">exp3a</text>
</g>
<!-- n10488&#45;&gt;n10496 -->
<g id="edge21" class="edge"><title>n10488&#45;&gt;n10496</title>
</g>
<!-- n10489 -->
<g id="node7" class="node"><title>n10489</title>
</g>
<!-- n10489&#45;&gt;n10496 -->
<g id="edge6" class="edge"><title>n10489&#45;&gt;n10496</title>
<path fill="none" stroke="lightgray" d="M67.4755,-306.771C119.068,-306.927 235.149,-300.362 307.593,-243 321.617,-231.895 316.439,-222.369 325.593,-207 329.551,-200.353 334.164,-193.4 338.619,-187.003"/>
<polygon fill="lightgray" stroke="lightgray" points="341.577,-188.882 344.519,-178.703 335.872,-184.825 341.577,-188.882"/>
<text text-anchor="middle" x="203.093" y="-308.8" font-family="Times New Roman,serif" font-size="14.00" fill="lightgray">wff ph</text>
</g>
<!-- n10490 -->
<g id="node9" class="node"><title>n10490</title>
</g>
<!-- n10489&#45;&gt;n10490 -->
<g id="edge12" class="edge"><title>n10489&#45;&gt;n10490</title>
</g>
<!-- n10496&#45;&gt;n10497 -->
<g id="edge11" class="edge"><title>n10496&#45;&gt;n10497</title>
<path fill="none" stroke="black" d="M390.315,-159.641C444.147,-157.311 555.121,-160.36 622.587,-217 651.237,-241.053 663.435,-284.058 668.539,-312.562"/>
<polygon fill="black" stroke="black" points="665.126,-313.387 670.167,-322.706 672.038,-312.278 665.126,-313.387"/>
<text text-anchor="middle" x="515.587" y="-220.8" font-family="Times New Roman,serif" font-size="14.00">|&#45; ( ph &#45;&gt; ( ps &#45;&gt; ( ( ch /\ th ) &#45;&gt; ta ) ) )</text>
</g>
<!-- n10490&#45;&gt;n10496 -->
<g id="edge7" class="edge"><title>n10490&#45;&gt;n10496</title>
<path fill="none" stroke="lightgray" d="M66.9772,-230.377C114.883,-223.293 220.875,-206.076 307.593,-181 312.318,-179.634 317.227,-178.01 322.038,-176.296"/>
<polygon fill="lightgray" stroke="lightgray" points="323.533,-179.474 331.683,-172.703 321.09,-172.914 323.533,-179.474"/>
<text text-anchor="middle" x="203.093" y="-227.8" font-family="Times New Roman,serif" font-size="14.00" fill="lightgray">wff ps</text>
</g>
<!-- n10493 -->
<g id="node10" class="node"><title>n10493</title>
</g>
<!-- n10490&#45;&gt;n10493 -->
<g id="edge13" class="edge"><title>n10490&#45;&gt;n10493</title>
</g>
<!-- n10493&#45;&gt;n10496 -->
<g id="edge8" class="edge"><title>n10493&#45;&gt;n10496</title>
<path fill="none" stroke="lightgray" d="M67.4078,-162C122.113,-162 249.151,-162 315.325,-162"/>
<polygon fill="lightgray" stroke="lightgray" points="315.402,-165.5 325.402,-162 315.402,-158.5 315.402,-165.5"/>
<text text-anchor="middle" x="203.093" y="-165.8" font-family="Times New Roman,serif" font-size="14.00" fill="lightgray">wff ( ch /\ th )</text>
</g>
<!-- n10494 -->
<g id="node11" class="node"><title>n10494</title>
</g>
<!-- n10493&#45;&gt;n10494 -->
<g id="edge14" class="edge"><title>n10493&#45;&gt;n10494</title>
</g>
<!-- n10494&#45;&gt;n10496 -->
<g id="edge9" class="edge"><title>n10494&#45;&gt;n10496</title>
<path fill="none" stroke="lightgray" d="M66.9772,-93.6225C114.883,-100.707 220.875,-117.924 307.593,-143 312.318,-144.366 317.227,-145.99 322.038,-147.704"/>
<polygon fill="lightgray" stroke="lightgray" points="321.09,-151.086 331.683,-151.297 323.533,-144.526 321.09,-151.086"/>
<text text-anchor="middle" x="203.093" y="-146.8" font-family="Times New Roman,serif" font-size="14.00" fill="lightgray">wff ta</text>
</g>
<!-- n10495 -->
<g id="node12" class="node"><title>n10495</title>
<ellipse fill="orange" stroke="black" cx="40.2964" cy="-18" rx="40.0939" ry="18"/>
<text text-anchor="middle" x="40.2964" y="-14.3" font-family="Times New Roman,serif" font-size="14.00">exp4d.1</text>
</g>
<!-- n10494&#45;&gt;n10495 -->
<g id="edge15" class="edge"><title>n10494&#45;&gt;n10495</title>
</g>
<!-- n10495&#45;&gt;n10496 -->
<g id="edge10" class="edge"><title>n10495&#45;&gt;n10496</title>
<path fill="none" stroke="black" d="M80.8593,-18.1403C136.555,-20.2336 238.935,-31.2251 307.593,-81 326.056,-94.3852 339.021,-116.966 347.037,-134.891"/>
<polygon fill="black" stroke="black" points="343.883,-136.42 350.985,-144.282 350.336,-133.707 343.883,-136.42"/>
<text text-anchor="middle" x="203.093" y="-84.8" font-family="Times New Roman,serif" font-size="14.00">|&#45; ( ph &#45;&gt; ( ( ps /\ ( ch /\ th ) ) &#45;&gt; ta ) )</text>
</g>
</g>
</svg>
