<?xml version="1.0" encoding="UTF-8" standalone="no"?>
<!DOCTYPE svg PUBLIC "-//W3C//DTD SVG 1.1//EN"
 "http://www.w3.org/Graphics/SVG/1.1/DTD/svg11.dtd">
<!-- Generated by graphviz version 2.38.0 (20140413.2041)
 -->
<!-- Title: proof_ibibr Pages: 1 -->
<svg width="1176pt" height="504pt"
 viewBox="0.00 0.00 1175.77 504.00" xmlns="http://www.w3.org/2000/svg" xmlns:xlink="http://www.w3.org/1999/xlink">
<g id="graph0" class="graph" transform="scale(1 1) rotate(0) translate(4 500)">
<title>proof_ibibr</title>
<polygon fill="white" stroke="none" points="-4,4 -4,-500 1171.77,-500 1171.77,4 -4,4"/>
<!-- n6510 -->
<g id="node1" class="node"><title>n6510</title>
</g>
<!-- n6530 -->
<g id="node2" class="node"><title>n6530</title>
<ellipse fill="cyan" stroke="black" cx="788.983" cy="-369" rx="40.0939" ry="18"/>
<text text-anchor="middle" x="788.983" y="-365.3" font-family="Times New Roman,serif" font-size="14.00">pm5.74i</text>
</g>
<!-- n6510&#45;&gt;n6530 -->
<g id="edge1" class="edge"><title>n6510&#45;&gt;n6530</title>
<path fill="none" stroke="lightgray" d="M511.621,-475.418C557.909,-470 656.625,-454.679 730.686,-417 743.098,-410.685 755.172,-401.23 765.011,-392.377"/>
<polygon fill="lightgray" stroke="lightgray" points="767.474,-394.866 772.385,-385.478 762.692,-389.754 767.474,-394.866"/>
<text text-anchor="middle" x="634.186" y="-474.8" font-family="Times New Roman,serif" font-size="14.00" fill="lightgray">wff ph</text>
</g>
<!-- n6511 -->
<g id="node3" class="node"><title>n6511</title>
</g>
<!-- n6510&#45;&gt;n6511 -->
<g id="edge23" class="edge"><title>n6510&#45;&gt;n6511</title>
</g>
<!-- QED -->
<g id="node16" class="node"><title>QED</title>
</g>
<!-- n6530&#45;&gt;QED -->
<g id="edge22" class="edge"><title>n6530&#45;&gt;QED</title>
<path fill="none" stroke="black" d="M829.512,-369C896.725,-369 1032.45,-369 1098.98,-369"/>
<polygon fill="black" stroke="black" points="1099.05,-372.5 1109.05,-369 1099.05,-365.5 1099.05,-372.5"/>
<text text-anchor="middle" x="969.279" y="-372.8" font-family="Times New Roman,serif" font-size="14.00">|&#45; ( ( ph &#45;&gt; ps ) &lt;&#45;&gt; ( ph &#45;&gt; ( ps &lt;&#45;&gt; ph ) ) )</text>
</g>
<!-- n6511&#45;&gt;n6530 -->
<g id="edge2" class="edge"><title>n6511&#45;&gt;n6530</title>
<path fill="none" stroke="lightgray" d="M511.371,-402.845C562.008,-396.65 675.149,-382.806 739.953,-374.877"/>
<polygon fill="lightgray" stroke="lightgray" points="740.42,-378.346 749.921,-373.657 739.57,-371.398 740.42,-378.346"/>
<text text-anchor="middle" x="634.186" y="-401.8" font-family="Times New Roman,serif" font-size="14.00" fill="lightgray">wff ps</text>
</g>
<!-- n6514 -->
<g id="node4" class="node"><title>n6514</title>
</g>
<!-- n6511&#45;&gt;n6514 -->
<g id="edge24" class="edge"><title>n6511&#45;&gt;n6514</title>
</g>
<!-- n6514&#45;&gt;n6530 -->
<g id="edge3" class="edge"><title>n6514&#45;&gt;n6530</title>
<path fill="none" stroke="lightgray" d="M511.399,-336.309C556.132,-340.406 650.927,-349.512 730.686,-360 734.084,-360.447 737.59,-360.934 741.117,-361.442"/>
<polygon fill="lightgray" stroke="lightgray" points="740.63,-364.908 751.036,-362.918 741.66,-357.985 740.63,-364.908"/>
<text text-anchor="middle" x="634.186" y="-363.8" font-family="Times New Roman,serif" font-size="14.00" fill="lightgray">wff ( ps &lt;&#45;&gt; ph )</text>
</g>
<!-- n6529 -->
<g id="node6" class="node"><title>n6529</title>
<ellipse fill="cyan" stroke="black" cx="484.589" cy="-262" rx="35.194" ry="18"/>
<text text-anchor="middle" x="484.589" y="-258.3" font-family="Times New Roman,serif" font-size="14.00">syl6bb</text>
</g>
<!-- n6514&#45;&gt;n6529 -->
<g id="edge25" class="edge"><title>n6514&#45;&gt;n6529</title>
</g>
<!-- n6515 -->
<g id="node5" class="node"><title>n6515</title>
</g>
<!-- n6515&#45;&gt;n6529 -->
<g id="edge4" class="edge"><title>n6515&#45;&gt;n6529</title>
<path fill="none" stroke="lightgray" d="M196.312,-445.401C248.64,-448.675 366.973,-448.035 431.493,-384 456.437,-359.243 434.554,-338.812 449.493,-307 452.815,-299.924 457.377,-292.89 462.083,-286.558"/>
<polygon fill="lightgray" stroke="lightgray" points="465.053,-288.444 468.487,-278.421 459.552,-284.114 465.053,-288.444"/>
<text text-anchor="middle" x="330.493" y="-449.8" font-family="Times New Roman,serif" font-size="14.00" fill="lightgray">wff ph</text>
</g>
<!-- n6516 -->
<g id="node7" class="node"><title>n6516</title>
</g>
<!-- n6515&#45;&gt;n6516 -->
<g id="edge17" class="edge"><title>n6515&#45;&gt;n6516</title>
</g>
<!-- n6529&#45;&gt;n6530 -->
<g id="edge16" class="edge"><title>n6529&#45;&gt;n6530</title>
<path fill="none" stroke="black" d="M519.421,-264.921C568.362,-270.243 660.705,-284.458 730.686,-320 743.21,-326.36 755.302,-335.999 765.124,-345.049"/>
<polygon fill="black" stroke="black" points="762.84,-347.709 772.479,-352.107 767.687,-342.658 762.84,-347.709"/>
<text text-anchor="middle" x="634.186" y="-323.8" font-family="Times New Roman,serif" font-size="14.00">|&#45; ( ph &#45;&gt; ( ps &lt;&#45;&gt; ( ps &lt;&#45;&gt; ph ) ) )</text>
</g>
<!-- n6516&#45;&gt;n6529 -->
<g id="edge5" class="edge"><title>n6516&#45;&gt;n6529</title>
<path fill="none" stroke="lightgray" d="M196.248,-369.314C245.026,-365.234 352.462,-351.844 431.493,-310 442.925,-303.947 453.758,-294.764 462.554,-286.046"/>
<polygon fill="lightgray" stroke="lightgray" points="465.313,-288.227 469.724,-278.594 460.268,-283.374 465.313,-288.227"/>
<text text-anchor="middle" x="330.493" y="-368.8" font-family="Times New Roman,serif" font-size="14.00" fill="lightgray">wff ps</text>
</g>
<!-- n6519 -->
<g id="node8" class="node"><title>n6519</title>
</g>
<!-- n6516&#45;&gt;n6519 -->
<g id="edge18" class="edge"><title>n6516&#45;&gt;n6519</title>
</g>
<!-- n6519&#45;&gt;n6529 -->
<g id="edge6" class="edge"><title>n6519&#45;&gt;n6529</title>
<path fill="none" stroke="lightgray" d="M195.888,-295.972C249.442,-289.648 373.683,-274.978 440.015,-267.145"/>
<polygon fill="lightgray" stroke="lightgray" points="440.624,-270.598 450.144,-265.949 439.803,-263.646 440.624,-270.598"/>
<text text-anchor="middle" x="330.493" y="-294.8" font-family="Times New Roman,serif" font-size="14.00" fill="lightgray">wff ( ph &lt;&#45;&gt; ps )</text>
</g>
<!-- n6522 -->
<g id="node9" class="node"><title>n6522</title>
</g>
<!-- n6519&#45;&gt;n6522 -->
<g id="edge19" class="edge"><title>n6519&#45;&gt;n6522</title>
</g>
<!-- n6522&#45;&gt;n6529 -->
<g id="edge7" class="edge"><title>n6522&#45;&gt;n6529</title>
<path fill="none" stroke="lightgray" d="M196.275,-228.967C243.341,-232.662 345.681,-241.333 431.493,-253 434.721,-253.439 438.056,-253.929 441.406,-254.448"/>
<polygon fill="lightgray" stroke="lightgray" points="440.977,-257.924 451.408,-256.068 442.097,-251.014 440.977,-257.924"/>
<text text-anchor="middle" x="330.493" y="-256.8" font-family="Times New Roman,serif" font-size="14.00" fill="lightgray">wff ( ps &lt;&#45;&gt; ph )</text>
</g>
<!-- n6525 -->
<g id="node11" class="node"><title>n6525</title>
<ellipse fill="cyan" stroke="black" cx="169.246" cy="-155" rx="42.4939" ry="18"/>
<text text-anchor="middle" x="169.246" y="-151.3" font-family="Times New Roman,serif" font-size="14.00">pm5.501</text>
</g>
<!-- n6522&#45;&gt;n6525 -->
<g id="edge20" class="edge"><title>n6522&#45;&gt;n6525</title>
</g>
<!-- n6523 -->
<g id="node10" class="node"><title>n6523</title>
</g>
<!-- n6523&#45;&gt;n6525 -->
<g id="edge8" class="edge"><title>n6523&#45;&gt;n6525</title>
<path fill="none" stroke="lightgray" d="M49.9135,-208.156C71.2953,-198.551 104.268,-183.74 129.982,-172.189"/>
<polygon fill="lightgray" stroke="lightgray" points="131.754,-175.229 139.442,-167.939 128.886,-168.844 131.754,-175.229"/>
<text text-anchor="middle" x="90.5" y="-201.8" font-family="Times New Roman,serif" font-size="14.00" fill="lightgray">wff ph</text>
</g>
<!-- n6524 -->
<g id="node12" class="node"><title>n6524</title>
</g>
<!-- n6523&#45;&gt;n6524 -->
<g id="edge11" class="edge"><title>n6523&#45;&gt;n6524</title>
</g>
<!-- n6525&#45;&gt;n6529 -->
<g id="edge10" class="edge"><title>n6525&#45;&gt;n6529</title>
<path fill="none" stroke="black" d="M211.493,-157.404C265.027,-161.987 360.037,-175.196 431.493,-213 443.325,-219.26 454.431,-228.938 463.324,-238.045"/>
<polygon fill="black" stroke="black" points="460.865,-240.54 470.241,-245.473 465.988,-235.769 460.865,-240.54"/>
<text text-anchor="middle" x="330.493" y="-216.8" font-family="Times New Roman,serif" font-size="14.00">|&#45; ( ph &#45;&gt; ( ps &lt;&#45;&gt; ( ph &lt;&#45;&gt; ps ) ) )</text>
</g>
<!-- n6528 -->
<g id="node14" class="node"><title>n6528</title>
<ellipse fill="cyan" stroke="black" cx="169.246" cy="-83" rx="33.5952" ry="18"/>
<text text-anchor="middle" x="169.246" y="-79.3" font-family="Times New Roman,serif" font-size="14.00">bicom</text>
</g>
<!-- n6525&#45;&gt;n6528 -->
<g id="edge21" class="edge"><title>n6525&#45;&gt;n6528</title>
</g>
<!-- n6524&#45;&gt;n6525 -->
<g id="edge9" class="edge"><title>n6524&#45;&gt;n6525</title>
<path fill="none" stroke="lightgray" d="M54.0506,-147.672C71.6821,-148.803 95.5652,-150.336 116.932,-151.707"/>
<polygon fill="lightgray" stroke="lightgray" points="116.977,-155.217 127.181,-152.365 117.426,-148.231 116.977,-155.217"/>
<text text-anchor="middle" x="90.5" y="-155.8" font-family="Times New Roman,serif" font-size="14.00" fill="lightgray">wff ps</text>
</g>
<!-- n6526 -->
<g id="node13" class="node"><title>n6526</title>
</g>
<!-- n6526&#45;&gt;n6528 -->
<g id="edge12" class="edge"><title>n6526&#45;&gt;n6528</title>
<path fill="none" stroke="lightgray" d="M54.0506,-88.6998C74.0617,-87.701 102.126,-86.3002 125.424,-85.1373"/>
<polygon fill="lightgray" stroke="lightgray" points="125.6,-88.633 135.413,-84.6388 125.251,-81.6417 125.6,-88.633"/>
<text text-anchor="middle" x="90.5" y="-91.8" font-family="Times New Roman,serif" font-size="14.00" fill="lightgray">wff ph</text>
</g>
<!-- n6527 -->
<g id="node15" class="node"><title>n6527</title>
</g>
<!-- n6526&#45;&gt;n6527 -->
<g id="edge15" class="edge"><title>n6526&#45;&gt;n6527</title>
</g>
<!-- n6528&#45;&gt;n6529 -->
<g id="edge14" class="edge"><title>n6528&#45;&gt;n6529</title>
<path fill="none" stroke="black" d="M203.23,-81.2798C257.175,-80.2515 364.92,-85.9038 431.493,-141 459.771,-164.404 473.069,-206.021 479.055,-233.816"/>
<polygon fill="black" stroke="black" points="475.64,-234.59 481.007,-243.725 482.508,-233.237 475.64,-234.59"/>
<text text-anchor="middle" x="330.493" y="-144.8" font-family="Times New Roman,serif" font-size="14.00">|&#45; ( ( ph &lt;&#45;&gt; ps ) &lt;&#45;&gt; ( ps &lt;&#45;&gt; ph ) )</text>
</g>
<!-- n6527&#45;&gt;n6528 -->
<g id="edge13" class="edge"><title>n6527&#45;&gt;n6528</title>
<path fill="none" stroke="lightgray" d="M49.6061,-28.0138C72.0519,-38.4168 107.506,-54.8487 133.818,-67.0433"/>
<polygon fill="lightgray" stroke="lightgray" points="132.512,-70.2958 143.057,-71.3254 135.456,-63.9448 132.512,-70.2958"/>
<text text-anchor="middle" x="90.5" y="-58.8" font-family="Times New Roman,serif" font-size="14.00" fill="lightgray">wff ps</text>
</g>
</g>
</svg>
