<?xml version="1.0" encoding="UTF-8" standalone="no"?>
<!DOCTYPE svg PUBLIC "-//W3C//DTD SVG 1.1//EN"
 "http://www.w3.org/Graphics/SVG/1.1/DTD/svg11.dtd">
<!-- Generated by graphviz version 2.38.0 (20140413.2041)
 -->
<!-- Title: proof_imbi1d Pages: 1 -->
<svg width="1222pt" height="777pt"
 viewBox="0.00 0.00 1222.37 777.00" xmlns="http://www.w3.org/2000/svg" xmlns:xlink="http://www.w3.org/1999/xlink">
<g id="graph0" class="graph" transform="scale(1 1) rotate(0) translate(4 773)">
<title>proof_imbi1d</title>
<polygon fill="white" stroke="none" points="-4,4 -4,-773 1218.37,-773 1218.37,4 -4,4"/>
<!-- n6067 -->
<g id="node1" class="node"><title>n6067</title>
</g>
<!-- n6094 -->
<g id="node2" class="node"><title>n6094</title>
<ellipse fill="cyan" stroke="black" cx="854.476" cy="-607" rx="36.2938" ry="18"/>
<text text-anchor="middle" x="854.476" y="-603.3" font-family="Times New Roman,serif" font-size="14.00">impbid</text>
</g>
<!-- n6067&#45;&gt;n6094 -->
<g id="edge1" class="edge"><title>n6067&#45;&gt;n6094</title>
<path fill="none" stroke="lightgray" d="M551.41,-751.39C603.4,-750.918 721.817,-743.442 800.08,-689 819.585,-675.431 833.715,-652.213 842.522,-633.939"/>
<polygon fill="lightgray" stroke="lightgray" points="845.793,-635.201 846.755,-624.65 839.423,-632.298 845.793,-635.201"/>
<text text-anchor="middle" x="690.08" y="-753.8" font-family="Times New Roman,serif" font-size="14.00" fill="lightgray">wff ph</text>
</g>
<!-- n6070 -->
<g id="node3" class="node"><title>n6070</title>
</g>
<!-- n6067&#45;&gt;n6070 -->
<g id="edge39" class="edge"><title>n6067&#45;&gt;n6070</title>
</g>
<!-- QED -->
<g id="node25" class="node"><title>QED</title>
</g>
<!-- n6094&#45;&gt;QED -->
<g id="edge38" class="edge"><title>n6094&#45;&gt;QED</title>
<path fill="none" stroke="black" d="M890.959,-607C953.063,-607 1080.96,-607 1145.33,-607"/>
<polygon fill="black" stroke="black" points="1145.46,-610.5 1155.46,-607 1145.46,-603.5 1145.46,-610.5"/>
<text text-anchor="middle" x="1023.37" y="-610.8" font-family="Times New Roman,serif" font-size="14.00">|&#45; ( ph &#45;&gt; ( ( ps &#45;&gt; th ) &lt;&#45;&gt; ( ch &#45;&gt; th ) ) )</text>
</g>
<!-- n6070&#45;&gt;n6094 -->
<g id="edge2" class="edge"><title>n6070&#45;&gt;n6094</title>
<path fill="none" stroke="lightgray" d="M551.052,-675.375C600.008,-668.171 709.876,-650.598 800.08,-626 805.112,-624.628 810.351,-623.009 815.494,-621.304"/>
<polygon fill="lightgray" stroke="lightgray" points="816.873,-624.531 825.187,-617.964 814.592,-617.913 816.873,-624.531"/>
<text text-anchor="middle" x="690.08" y="-673.8" font-family="Times New Roman,serif" font-size="14.00" fill="lightgray">wff ( ps &#45;&gt; th )</text>
</g>
<!-- n6073 -->
<g id="node4" class="node"><title>n6073</title>
</g>
<!-- n6070&#45;&gt;n6073 -->
<g id="edge40" class="edge"><title>n6070&#45;&gt;n6073</title>
</g>
<!-- n6073&#45;&gt;n6094 -->
<g id="edge3" class="edge"><title>n6073&#45;&gt;n6094</title>
<path fill="none" stroke="lightgray" d="M551.402,-607C606.977,-607 737.882,-607 807.716,-607"/>
<polygon fill="lightgray" stroke="lightgray" points="807.969,-610.5 817.969,-607 807.969,-603.5 807.969,-610.5"/>
<text text-anchor="middle" x="690.08" y="-610.8" font-family="Times New Roman,serif" font-size="14.00" fill="lightgray">wff ( ch &#45;&gt; th )</text>
</g>
<!-- n6083 -->
<g id="node6" class="node"><title>n6083</title>
<ellipse fill="cyan" stroke="black" cx="524.383" cy="-535" rx="37.8943" ry="18"/>
<text text-anchor="middle" x="524.383" y="-531.3" font-family="Times New Roman,serif" font-size="14.00">imim1d</text>
</g>
<!-- n6073&#45;&gt;n6083 -->
<g id="edge41" class="edge"><title>n6073&#45;&gt;n6083</title>
</g>
<!-- n6074 -->
<g id="node5" class="node"><title>n6074</title>
</g>
<!-- n6074&#45;&gt;n6083 -->
<g id="edge4" class="edge"><title>n6074&#45;&gt;n6083</title>
<path fill="none" stroke="lightgray" d="M312.692,-749.662C352.766,-746.113 429.119,-733.169 468.686,-686 499.397,-649.39 466.933,-623.512 486.686,-580 490.085,-572.513 495.043,-565.229 500.222,-558.779"/>
<polygon fill="lightgray" stroke="lightgray" points="502.951,-560.973 506.799,-551.101 497.635,-556.419 502.951,-560.973"/>
<text text-anchor="middle" x="405.686" y="-748.8" font-family="Times New Roman,serif" font-size="14.00" fill="lightgray">wff ph</text>
</g>
<!-- n6075 -->
<g id="node7" class="node"><title>n6075</title>
</g>
<!-- n6074&#45;&gt;n6075 -->
<g id="edge17" class="edge"><title>n6074&#45;&gt;n6075</title>
</g>
<!-- n6083&#45;&gt;n6094 -->
<g id="edge16" class="edge"><title>n6083&#45;&gt;n6094</title>
<path fill="none" stroke="black" d="M560.898,-540.092C613.629,-548.047 715.499,-564.935 800.08,-588 805.112,-589.372 810.351,-590.991 815.494,-592.696"/>
<polygon fill="black" stroke="black" points="814.592,-596.087 825.187,-596.036 816.873,-589.469 814.592,-596.087"/>
<text text-anchor="middle" x="690.08" y="-591.8" font-family="Times New Roman,serif" font-size="14.00">|&#45; ( ph &#45;&gt; ( ( ps &#45;&gt; th ) &#45;&gt; ( ch &#45;&gt; th ) ) )</text>
</g>
<!-- n6093 -->
<g id="node16" class="node"><title>n6093</title>
<ellipse fill="cyan" stroke="black" cx="524.383" cy="-337" rx="37.8943" ry="18"/>
<text text-anchor="middle" x="524.383" y="-333.3" font-family="Times New Roman,serif" font-size="14.00">imim1d</text>
</g>
<!-- n6083&#45;&gt;n6093 -->
<g id="edge42" class="edge"><title>n6083&#45;&gt;n6093</title>
</g>
<!-- n6075&#45;&gt;n6083 -->
<g id="edge5" class="edge"><title>n6075&#45;&gt;n6083</title>
<path fill="none" stroke="lightgray" d="M312.004,-674.866C349.819,-667.581 421.635,-649.341 468.686,-610 480.615,-600.026 477.75,-592.725 486.686,-580 491.493,-573.155 497.039,-566.021 502.34,-559.503"/>
<polygon fill="lightgray" stroke="lightgray" points="505.165,-561.579 508.849,-551.645 499.774,-557.113 505.165,-561.579"/>
<text text-anchor="middle" x="405.686" y="-670.8" font-family="Times New Roman,serif" font-size="14.00" fill="lightgray">wff ch</text>
</g>
<!-- n6076 -->
<g id="node8" class="node"><title>n6076</title>
</g>
<!-- n6075&#45;&gt;n6076 -->
<g id="edge18" class="edge"><title>n6075&#45;&gt;n6076</title>
</g>
<!-- n6076&#45;&gt;n6083 -->
<g id="edge6" class="edge"><title>n6076&#45;&gt;n6083</title>
<path fill="none" stroke="lightgray" d="M310.949,-600.36C345.947,-590.684 412.566,-571.906 468.686,-554 473.647,-552.417 478.839,-550.697 483.966,-548.96"/>
<polygon fill="lightgray" stroke="lightgray" points="485.346,-552.187 493.668,-545.63 483.074,-545.566 485.346,-552.187"/>
<text text-anchor="middle" x="405.686" y="-594.8" font-family="Times New Roman,serif" font-size="14.00" fill="lightgray">wff ps</text>
</g>
<!-- n6077 -->
<g id="node9" class="node"><title>n6077</title>
</g>
<!-- n6076&#45;&gt;n6077 -->
<g id="edge19" class="edge"><title>n6076&#45;&gt;n6077</title>
</g>
<!-- n6077&#45;&gt;n6083 -->
<g id="edge7" class="edge"><title>n6077&#45;&gt;n6083</title>
<path fill="none" stroke="lightgray" d="M312.924,-535C352.366,-535 427.531,-535 476.535,-535"/>
<polygon fill="lightgray" stroke="lightgray" points="476.572,-538.5 486.572,-535 476.572,-531.5 476.572,-538.5"/>
<text text-anchor="middle" x="405.686" y="-538.8" font-family="Times New Roman,serif" font-size="14.00" fill="lightgray">wff th</text>
</g>
<!-- n6082 -->
<g id="node11" class="node"><title>n6082</title>
<ellipse fill="cyan" stroke="black" cx="285.69" cy="-463" rx="38.9931" ry="18"/>
<text text-anchor="middle" x="285.69" y="-459.3" font-family="Times New Roman,serif" font-size="14.00">biimprd</text>
</g>
<!-- n6077&#45;&gt;n6082 -->
<g id="edge20" class="edge"><title>n6077&#45;&gt;n6082</title>
</g>
<!-- n6078 -->
<g id="node10" class="node"><title>n6078</title>
</g>
<!-- n6078&#45;&gt;n6082 -->
<g id="edge8" class="edge"><title>n6078&#45;&gt;n6082</title>
<path fill="none" stroke="lightgray" d="M64.373,-574.082C102.023,-565.928 174.584,-547.228 228.693,-515 241.105,-507.608 253.089,-497.096 262.764,-487.456"/>
<polygon fill="lightgray" stroke="lightgray" points="265.552,-489.608 269.992,-479.988 260.522,-484.739 265.552,-489.608"/>
<text text-anchor="middle" x="161.693" y="-569.8" font-family="Times New Roman,serif" font-size="14.00" fill="lightgray">wff ph</text>
</g>
<!-- n6079 -->
<g id="node12" class="node"><title>n6079</title>
</g>
<!-- n6078&#45;&gt;n6079 -->
<g id="edge13" class="edge"><title>n6078&#45;&gt;n6079</title>
</g>
<!-- n6082&#45;&gt;n6083 -->
<g id="edge12" class="edge"><title>n6082&#45;&gt;n6083</title>
<path fill="none" stroke="black" d="M319.721,-472.073C356.304,-482.248 416.956,-499.495 468.686,-516 473.647,-517.583 478.839,-519.303 483.966,-521.04"/>
<polygon fill="black" stroke="black" points="483.074,-524.434 493.668,-524.37 485.346,-517.813 483.074,-524.434"/>
<text text-anchor="middle" x="405.686" y="-519.8" font-family="Times New Roman,serif" font-size="14.00">|&#45; ( ph &#45;&gt; ( ch &#45;&gt; ps ) )</text>
</g>
<!-- n6079&#45;&gt;n6082 -->
<g id="edge9" class="edge"><title>n6079&#45;&gt;n6082</title>
<path fill="none" stroke="lightgray" d="M64.6785,-502.457C105.77,-495.088 187.528,-480.425 238.981,-471.197"/>
<polygon fill="lightgray" stroke="lightgray" points="239.621,-474.639 248.846,-469.428 238.386,-467.748 239.621,-474.639"/>
<text text-anchor="middle" x="161.693" y="-499.8" font-family="Times New Roman,serif" font-size="14.00" fill="lightgray">wff ps</text>
</g>
<!-- n6080 -->
<g id="node13" class="node"><title>n6080</title>
</g>
<!-- n6079&#45;&gt;n6080 -->
<g id="edge14" class="edge"><title>n6079&#45;&gt;n6080</title>
</g>
<!-- n6080&#45;&gt;n6082 -->
<g id="edge10" class="edge"><title>n6080&#45;&gt;n6082</title>
<path fill="none" stroke="lightgray" d="M65.4582,-436.802C102.05,-439.482 170.62,-445.068 228.693,-453 232.174,-453.475 235.769,-454.012 239.38,-454.583"/>
<polygon fill="lightgray" stroke="lightgray" points="239.074,-458.08 249.512,-456.264 240.219,-451.175 239.074,-458.08"/>
<text text-anchor="middle" x="161.693" y="-456.8" font-family="Times New Roman,serif" font-size="14.00" fill="lightgray">wff ch</text>
</g>
<!-- n6081 -->
<g id="node14" class="node"><title>n6081</title>
<ellipse fill="orange" stroke="black" cx="38.3466" cy="-363" rx="38.1938" ry="18"/>
<text text-anchor="middle" x="38.3466" y="-359.3" font-family="Times New Roman,serif" font-size="14.00">imbid.1</text>
</g>
<!-- n6080&#45;&gt;n6081 -->
<g id="edge15" class="edge"><title>n6080&#45;&gt;n6081</title>
</g>
<!-- n6081&#45;&gt;n6082 -->
<g id="edge11" class="edge"><title>n6081&#45;&gt;n6082</title>
<path fill="none" stroke="black" d="M74.653,-368.875C114.099,-376.489 178.944,-392.204 228.693,-420 238.037,-425.221 238.318,-429.335 246.693,-436 249.289,-438.066 252.028,-440.163 254.798,-442.228"/>
<polygon fill="black" stroke="black" points="252.943,-445.206 263.087,-448.263 257.063,-439.547 252.943,-445.206"/>
<text text-anchor="middle" x="161.693" y="-423.8" font-family="Times New Roman,serif" font-size="14.00">|&#45; ( ph &#45;&gt; ( ps &lt;&#45;&gt; ch ) )</text>
</g>
<!-- n6084 -->
<g id="node15" class="node"><title>n6084</title>
</g>
<!-- n6084&#45;&gt;n6093 -->
<g id="edge21" class="edge"><title>n6084&#45;&gt;n6093</title>
<path fill="none" stroke="lightgray" d="M310.949,-402.36C345.947,-392.684 412.566,-373.906 468.686,-356 473.647,-354.417 478.839,-352.697 483.966,-350.96"/>
<polygon fill="lightgray" stroke="lightgray" points="485.346,-354.187 493.668,-347.63 483.074,-347.566 485.346,-354.187"/>
<text text-anchor="middle" x="405.686" y="-396.8" font-family="Times New Roman,serif" font-size="14.00" fill="lightgray">wff ph</text>
</g>
<!-- n6085 -->
<g id="node17" class="node"><title>n6085</title>
</g>
<!-- n6084&#45;&gt;n6085 -->
<g id="edge34" class="edge"><title>n6084&#45;&gt;n6085</title>
</g>
<!-- n6093&#45;&gt;n6094 -->
<g id="edge33" class="edge"><title>n6093&#45;&gt;n6094</title>
<path fill="none" stroke="black" d="M550.97,-349.86C602.676,-376.76 721.371,-443.216 800.08,-524 816.322,-540.671 830.363,-563.02 839.964,-580.328"/>
<polygon fill="black" stroke="black" points="837.003,-582.212 844.827,-589.356 843.166,-578.892 837.003,-582.212"/>
<text text-anchor="middle" x="690.08" y="-527.8" font-family="Times New Roman,serif" font-size="14.00">|&#45; ( ph &#45;&gt; ( ( ch &#45;&gt; th ) &#45;&gt; ( ps &#45;&gt; th ) ) )</text>
</g>
<!-- n6085&#45;&gt;n6093 -->
<g id="edge22" class="edge"><title>n6085&#45;&gt;n6093</title>
<path fill="none" stroke="lightgray" d="M312.924,-337C352.366,-337 427.531,-337 476.535,-337"/>
<polygon fill="lightgray" stroke="lightgray" points="476.572,-340.5 486.572,-337 476.572,-333.5 476.572,-340.5"/>
<text text-anchor="middle" x="405.686" y="-340.8" font-family="Times New Roman,serif" font-size="14.00" fill="lightgray">wff ps</text>
</g>
<!-- n6086 -->
<g id="node18" class="node"><title>n6086</title>
</g>
<!-- n6085&#45;&gt;n6086 -->
<g id="edge35" class="edge"><title>n6085&#45;&gt;n6086</title>
</g>
<!-- n6086&#45;&gt;n6093 -->
<g id="edge23" class="edge"><title>n6086&#45;&gt;n6093</title>
<path fill="none" stroke="lightgray" d="M310.949,-271.64C345.947,-281.316 412.566,-300.094 468.686,-318 473.647,-319.583 478.839,-321.303 483.966,-323.04"/>
<polygon fill="lightgray" stroke="lightgray" points="483.074,-326.434 493.668,-326.37 485.346,-319.813 483.074,-326.434"/>
<text text-anchor="middle" x="405.686" y="-321.8" font-family="Times New Roman,serif" font-size="14.00" fill="lightgray">wff ch</text>
</g>
<!-- n6087 -->
<g id="node19" class="node"><title>n6087</title>
</g>
<!-- n6086&#45;&gt;n6087 -->
<g id="edge36" class="edge"><title>n6086&#45;&gt;n6087</title>
</g>
<!-- n6087&#45;&gt;n6093 -->
<g id="edge24" class="edge"><title>n6087&#45;&gt;n6093</title>
<path fill="none" stroke="lightgray" d="M311.877,-197.747C349.211,-205.775 420.053,-224.911 468.686,-262 485.718,-274.989 499.809,-294.708 509.421,-310.667"/>
<polygon fill="lightgray" stroke="lightgray" points="506.519,-312.64 514.551,-319.549 512.581,-309.139 506.519,-312.64"/>
<text text-anchor="middle" x="405.686" y="-265.8" font-family="Times New Roman,serif" font-size="14.00" fill="lightgray">wff th</text>
</g>
<!-- n6092 -->
<g id="node21" class="node"><title>n6092</title>
<ellipse fill="cyan" stroke="black" cx="285.69" cy="-121" rx="36.2938" ry="18"/>
<text text-anchor="middle" x="285.69" y="-117.3" font-family="Times New Roman,serif" font-size="14.00">biimpd</text>
</g>
<!-- n6087&#45;&gt;n6092 -->
<g id="edge37" class="edge"><title>n6087&#45;&gt;n6092</title>
</g>
<!-- n6088 -->
<g id="node20" class="node"><title>n6088</title>
</g>
<!-- n6088&#45;&gt;n6092 -->
<g id="edge25" class="edge"><title>n6088&#45;&gt;n6092</title>
<path fill="none" stroke="lightgray" d="M64.6503,-229.27C102.344,-221.462 174.598,-203.52 228.693,-172 241.065,-164.791 253.043,-154.488 262.724,-145.027"/>
<polygon fill="lightgray" stroke="lightgray" points="265.427,-147.271 269.959,-137.695 260.444,-142.354 265.427,-147.271"/>
<text text-anchor="middle" x="161.693" y="-225.8" font-family="Times New Roman,serif" font-size="14.00" fill="lightgray">wff ph</text>
</g>
<!-- n6089 -->
<g id="node22" class="node"><title>n6089</title>
</g>
<!-- n6088&#45;&gt;n6089 -->
<g id="edge30" class="edge"><title>n6088&#45;&gt;n6089</title>
</g>
<!-- n6092&#45;&gt;n6093 -->
<g id="edge29" class="edge"><title>n6092&#45;&gt;n6093</title>
<path fill="none" stroke="black" d="M321.533,-124.783C362.048,-130.962 428.486,-146.871 468.686,-187 501.966,-220.221 515.158,-275.281 520.271,-308.649"/>
<polygon fill="black" stroke="black" points="516.819,-309.242 521.662,-318.665 523.753,-308.278 516.819,-309.242"/>
<text text-anchor="middle" x="405.686" y="-190.8" font-family="Times New Roman,serif" font-size="14.00">|&#45; ( ph &#45;&gt; ( ps &#45;&gt; ch ) )</text>
</g>
<!-- n6089&#45;&gt;n6092 -->
<g id="edge26" class="edge"><title>n6089&#45;&gt;n6092</title>
<path fill="none" stroke="lightgray" d="M64.6785,-157.767C106.257,-150.818 189.472,-136.912 240.798,-128.335"/>
<polygon fill="lightgray" stroke="lightgray" points="241.642,-131.743 250.928,-126.642 240.488,-124.838 241.642,-131.743"/>
<text text-anchor="middle" x="161.693" y="-156.8" font-family="Times New Roman,serif" font-size="14.00" fill="lightgray">wff ps</text>
</g>
<!-- n6090 -->
<g id="node23" class="node"><title>n6090</title>
</g>
<!-- n6089&#45;&gt;n6090 -->
<g id="edge31" class="edge"><title>n6089&#45;&gt;n6090</title>
</g>
<!-- n6090&#45;&gt;n6092 -->
<g id="edge27" class="edge"><title>n6090&#45;&gt;n6092</title>
<path fill="none" stroke="lightgray" d="M65.5211,-91.3818C102.187,-93.5684 170.843,-98.5783 228.693,-108 233.431,-108.772 238.364,-109.712 243.253,-110.731"/>
<polygon fill="lightgray" stroke="lightgray" points="242.631,-114.177 253.149,-112.903 244.132,-107.34 242.631,-114.177"/>
<text text-anchor="middle" x="161.693" y="-111.8" font-family="Times New Roman,serif" font-size="14.00" fill="lightgray">wff ch</text>
</g>
<!-- n6091 -->
<g id="node24" class="node"><title>n6091</title>
<ellipse fill="orange" stroke="black" cx="38.3466" cy="-18" rx="38.1938" ry="18"/>
<text text-anchor="middle" x="38.3466" y="-14.3" font-family="Times New Roman,serif" font-size="14.00">imbid.1</text>
</g>
<!-- n6090&#45;&gt;n6091 -->
<g id="edge32" class="edge"><title>n6090&#45;&gt;n6091</title>
</g>
<!-- n6091&#45;&gt;n6092 -->
<g id="edge28" class="edge"><title>n6091&#45;&gt;n6092</title>
<path fill="none" stroke="black" d="M74.4558,-24.236C113.725,-32.1735 178.413,-48.1775 228.693,-75 240.314,-81.1992 251.795,-90.0208 261.307,-98.2833"/>
<polygon fill="black" stroke="black" points="259.019,-100.933 268.793,-105.022 263.702,-95.7308 259.019,-100.933"/>
<text text-anchor="middle" x="161.693" y="-78.8" font-family="Times New Roman,serif" font-size="14.00">|&#45; ( ph &#45;&gt; ( ps &lt;&#45;&gt; ch ) )</text>
</g>
</g>
</svg>
