<?xml version="1.0" encoding="UTF-8" standalone="no"?>
<!DOCTYPE svg PUBLIC "-//W3C//DTD SVG 1.1//EN"
 "http://www.w3.org/Graphics/SVG/1.1/DTD/svg11.dtd">
<!-- Generated by graphviz version 2.38.0 (20140413.2041)
 -->
<!-- Title: proof_imbi2d Pages: 1 -->
<svg width="935pt" height="439pt"
 viewBox="0.00 0.00 934.98 439.00" xmlns="http://www.w3.org/2000/svg" xmlns:xlink="http://www.w3.org/1999/xlink">
<g id="graph0" class="graph" transform="scale(1 1) rotate(0) translate(4 435)">
<title>proof_imbi2d</title>
<polygon fill="white" stroke="none" points="-4,4 -4,-435 930.98,-435 930.98,4 -4,4"/>
<!-- n6055 -->
<g id="node1" class="node"><title>n6055</title>
</g>
<!-- n6066 -->
<g id="node2" class="node"><title>n6066</title>
<ellipse fill="cyan" stroke="black" cx="560.589" cy="-269" rx="42.7926" ry="18"/>
<text text-anchor="middle" x="560.589" y="-265.3" font-family="Times New Roman,serif" font-size="14.00">pm5.74d</text>
</g>
<!-- n6055&#45;&gt;n6066 -->
<g id="edge1" class="edge"><title>n6055&#45;&gt;n6066</title>
<path fill="none" stroke="lightgray" d="M300.595,-411.188C344.993,-406.971 436.904,-393.283 499.693,-350 519.803,-336.137 535.797,-313.293 546.181,-295.393"/>
<polygon fill="lightgray" stroke="lightgray" points="549.294,-296.998 551.092,-286.557 543.175,-293.598 549.294,-296.998"/>
<text text-anchor="middle" x="409.193" y="-412.8" font-family="Times New Roman,serif" font-size="14.00" fill="lightgray">wff ph</text>
</g>
<!-- n6056 -->
<g id="node3" class="node"><title>n6056</title>
</g>
<!-- n6055&#45;&gt;n6056 -->
<g id="edge14" class="edge"><title>n6055&#45;&gt;n6056</title>
</g>
<!-- QED -->
<g id="node11" class="node"><title>QED</title>
</g>
<!-- n6066&#45;&gt;QED -->
<g id="edge13" class="edge"><title>n6066&#45;&gt;QED</title>
<path fill="none" stroke="black" d="M603.696,-269C669.176,-269 794.459,-269 857.887,-269"/>
<polygon fill="black" stroke="black" points="858.25,-272.5 868.25,-269 858.25,-265.5 858.25,-272.5"/>
<text text-anchor="middle" x="735.986" y="-272.8" font-family="Times New Roman,serif" font-size="14.00">|&#45; ( ph &#45;&gt; ( ( th &#45;&gt; ps ) &lt;&#45;&gt; ( th &#45;&gt; ch ) ) )</text>
</g>
<!-- n6056&#45;&gt;n6066 -->
<g id="edge2" class="edge"><title>n6056&#45;&gt;n6066</title>
<path fill="none" stroke="lightgray" d="M299.822,-335.733C341.567,-326.837 427.738,-307.857 499.693,-288 505.285,-286.457 511.138,-284.735 516.902,-282.976"/>
<polygon fill="lightgray" stroke="lightgray" points="517.948,-286.316 526.457,-280.003 515.869,-279.632 517.948,-286.316"/>
<text text-anchor="middle" x="409.193" y="-334.8" font-family="Times New Roman,serif" font-size="14.00" fill="lightgray">wff th</text>
</g>
<!-- n6057 -->
<g id="node4" class="node"><title>n6057</title>
</g>
<!-- n6056&#45;&gt;n6057 -->
<g id="edge15" class="edge"><title>n6056&#45;&gt;n6057</title>
</g>
<!-- n6057&#45;&gt;n6066 -->
<g id="edge3" class="edge"><title>n6057&#45;&gt;n6066</title>
<path fill="none" stroke="lightgray" d="M300.731,-269C347.413,-269 446.168,-269 507.303,-269"/>
<polygon fill="lightgray" stroke="lightgray" points="507.518,-272.5 517.518,-269 507.518,-265.5 507.518,-272.5"/>
<text text-anchor="middle" x="409.193" y="-272.8" font-family="Times New Roman,serif" font-size="14.00" fill="lightgray">wff ps</text>
</g>
<!-- n6058 -->
<g id="node5" class="node"><title>n6058</title>
</g>
<!-- n6057&#45;&gt;n6058 -->
<g id="edge16" class="edge"><title>n6057&#45;&gt;n6058</title>
</g>
<!-- n6058&#45;&gt;n6066 -->
<g id="edge4" class="edge"><title>n6058&#45;&gt;n6066</title>
<path fill="none" stroke="lightgray" d="M299.822,-202.267C341.567,-211.163 427.738,-230.143 499.693,-250 505.285,-251.543 511.138,-253.265 516.902,-255.024"/>
<polygon fill="lightgray" stroke="lightgray" points="515.869,-258.368 526.457,-257.997 517.948,-251.684 515.869,-258.368"/>
<text text-anchor="middle" x="409.193" y="-253.8" font-family="Times New Roman,serif" font-size="14.00" fill="lightgray">wff ch</text>
</g>
<!-- n6065 -->
<g id="node7" class="node"><title>n6065</title>
<ellipse fill="cyan" stroke="black" cx="273.693" cy="-125" rx="27" ry="18"/>
<text text-anchor="middle" x="273.693" y="-121.3" font-family="Times New Roman,serif" font-size="14.00">a1d</text>
</g>
<!-- n6058&#45;&gt;n6065 -->
<g id="edge17" class="edge"><title>n6058&#45;&gt;n6065</title>
</g>
<!-- n6059 -->
<g id="node6" class="node"><title>n6059</title>
</g>
<!-- n6059&#45;&gt;n6065 -->
<g id="edge5" class="edge"><title>n6059&#45;&gt;n6065</title>
<path fill="none" stroke="lightgray" d="M64.7146,-230.106C102.806,-223.358 175.928,-206.84 228.693,-173 238.501,-166.71 247.543,-157.705 254.846,-149.191"/>
<polygon fill="lightgray" stroke="lightgray" points="257.685,-151.247 261.284,-141.282 252.256,-146.828 257.685,-151.247"/>
<text text-anchor="middle" x="161.693" y="-226.8" font-family="Times New Roman,serif" font-size="14.00" fill="lightgray">wff ph</text>
</g>
<!-- n6062 -->
<g id="node8" class="node"><title>n6062</title>
</g>
<!-- n6059&#45;&gt;n6062 -->
<g id="edge10" class="edge"><title>n6059&#45;&gt;n6062</title>
</g>
<!-- n6065&#45;&gt;n6066 -->
<g id="edge9" class="edge"><title>n6065&#45;&gt;n6066</title>
<path fill="none" stroke="black" d="M300.618,-126.637C345.051,-130.566 437.014,-143.712 499.693,-187 519.952,-200.991 535.933,-224.121 546.274,-242.254"/>
<polygon fill="black" stroke="black" points="543.297,-244.106 551.16,-251.207 549.441,-240.752 543.297,-244.106"/>
<text text-anchor="middle" x="409.193" y="-190.8" font-family="Times New Roman,serif" font-size="14.00">|&#45; ( ph &#45;&gt; ( th &#45;&gt; ( ps &lt;&#45;&gt; ch ) ) )</text>
</g>
<!-- n6062&#45;&gt;n6065 -->
<g id="edge6" class="edge"><title>n6062&#45;&gt;n6065</title>
<path fill="none" stroke="lightgray" d="M64.763,-157.97C106.493,-151.353 189.632,-138.17 237.167,-130.633"/>
<polygon fill="lightgray" stroke="lightgray" points="237.98,-134.048 247.308,-129.025 236.883,-127.134 237.98,-134.048"/>
<text text-anchor="middle" x="161.693" y="-157.8" font-family="Times New Roman,serif" font-size="14.00" fill="lightgray">wff ( ps &lt;&#45;&gt; ch )</text>
</g>
<!-- n6063 -->
<g id="node9" class="node"><title>n6063</title>
</g>
<!-- n6062&#45;&gt;n6063 -->
<g id="edge11" class="edge"><title>n6062&#45;&gt;n6063</title>
</g>
<!-- n6063&#45;&gt;n6065 -->
<g id="edge7" class="edge"><title>n6063&#45;&gt;n6065</title>
<path fill="none" stroke="lightgray" d="M65.1543,-93.0018C101.674,-97.3725 170.473,-106.059 228.693,-116 231.575,-116.492 234.557,-117.033 237.548,-117.598"/>
<polygon fill="lightgray" stroke="lightgray" points="237.13,-121.083 247.617,-119.576 238.479,-114.214 237.13,-121.083"/>
<text text-anchor="middle" x="161.693" y="-119.8" font-family="Times New Roman,serif" font-size="14.00" fill="lightgray">wff th</text>
</g>
<!-- n6064 -->
<g id="node10" class="node"><title>n6064</title>
<ellipse fill="orange" stroke="black" cx="38.3466" cy="-18" rx="38.1938" ry="18"/>
<text text-anchor="middle" x="38.3466" y="-14.3" font-family="Times New Roman,serif" font-size="14.00">imbid.1</text>
</g>
<!-- n6063&#45;&gt;n6064 -->
<g id="edge12" class="edge"><title>n6063&#45;&gt;n6064</title>
</g>
<!-- n6064&#45;&gt;n6065 -->
<g id="edge8" class="edge"><title>n6064&#45;&gt;n6065</title>
<path fill="none" stroke="black" d="M74.7254,-23.9605C114.525,-31.8512 179.962,-48.4727 228.693,-79 238.105,-84.8962 246.909,-93.2524 254.131,-101.228"/>
<polygon fill="black" stroke="black" points="251.616,-103.672 260.789,-108.972 256.923,-99.1081 251.616,-103.672"/>
<text text-anchor="middle" x="161.693" y="-82.8" font-family="Times New Roman,serif" font-size="14.00">|&#45; ( ph &#45;&gt; ( ps &lt;&#45;&gt; ch ) )</text>
</g>
</g>
</svg>
