<?xml version="1.0" encoding="UTF-8" standalone="no"?>
<!DOCTYPE svg PUBLIC "-//W3C//DTD SVG 1.1//EN"
 "http://www.w3.org/Graphics/SVG/1.1/DTD/svg11.dtd">
<!-- Generated by graphviz version 2.38.0 (20140413.2041)
 -->
<!-- Title: proof_imbi2i Pages: 1 -->
<svg width="777pt" height="332pt"
 viewBox="0.00 0.00 777.09 332.00" xmlns="http://www.w3.org/2000/svg" xmlns:xlink="http://www.w3.org/1999/xlink">
<g id="graph0" class="graph" transform="scale(1 1) rotate(0) translate(4 328)">
<title>proof_imbi2i</title>
<polygon fill="white" stroke="none" points="-4,4 -4,-328 773.088,-328 773.088,4 -4,4"/>
<!-- n5970 -->
<g id="node1" class="node"><title>n5970</title>
</g>
<!-- n5979 -->
<g id="node2" class="node"><title>n5979</title>
<ellipse fill="cyan" stroke="black" cx="450.296" cy="-197" rx="40.0939" ry="18"/>
<text text-anchor="middle" x="450.296" y="-193.3" font-family="Times New Roman,serif" font-size="14.00">pm5.74i</text>
</g>
<!-- n5970&#45;&gt;n5979 -->
<g id="edge1" class="edge"><title>n5970&#45;&gt;n5979</title>
<path fill="none" stroke="lightgray" d="M238.802,-300.563C274.34,-292.11 341.074,-273.737 392,-245 403.831,-238.324 415.568,-229.081 425.308,-220.487"/>
<polygon fill="lightgray" stroke="lightgray" points="427.949,-222.816 432.979,-213.491 423.232,-217.644 427.949,-222.816"/>
<text text-anchor="middle" x="325" y="-298.8" font-family="Times New Roman,serif" font-size="14.00" fill="lightgray">wff ch</text>
</g>
<!-- n5971 -->
<g id="node3" class="node"><title>n5971</title>
</g>
<!-- n5970&#45;&gt;n5971 -->
<g id="edge11" class="edge"><title>n5970&#45;&gt;n5971</title>
</g>
<!-- QED -->
<g id="node9" class="node"><title>QED</title>
</g>
<!-- n5979&#45;&gt;QED -->
<g id="edge10" class="edge"><title>n5979&#45;&gt;QED</title>
<path fill="none" stroke="black" d="M490.675,-197C545.759,-197 645.199,-197 699.994,-197"/>
<polygon fill="black" stroke="black" points="700.332,-200.5 710.332,-197 700.332,-193.5 700.332,-200.5"/>
<text text-anchor="middle" x="600.593" y="-200.8" font-family="Times New Roman,serif" font-size="14.00">|&#45; ( ( ch &#45;&gt; ph ) &lt;&#45;&gt; ( ch &#45;&gt; ps ) )</text>
</g>
<!-- n5971&#45;&gt;n5979 -->
<g id="edge2" class="edge"><title>n5971&#45;&gt;n5979</title>
<path fill="none" stroke="lightgray" d="M239.629,-229.97C278.548,-223.85 353.188,-212.113 402.103,-204.421"/>
<polygon fill="lightgray" stroke="lightgray" points="402.794,-207.856 412.129,-202.845 401.706,-200.941 402.794,-207.856"/>
<text text-anchor="middle" x="325" y="-229.8" font-family="Times New Roman,serif" font-size="14.00" fill="lightgray">wff ph</text>
</g>
<!-- n5972 -->
<g id="node4" class="node"><title>n5972</title>
</g>
<!-- n5971&#45;&gt;n5972 -->
<g id="edge12" class="edge"><title>n5971&#45;&gt;n5972</title>
</g>
<!-- n5972&#45;&gt;n5979 -->
<g id="edge3" class="edge"><title>n5972&#45;&gt;n5979</title>
<path fill="none" stroke="lightgray" d="M239.658,-165.659C274.264,-170.615 337.809,-179.786 392,-188 395.236,-188.49 398.573,-189.001 401.934,-189.52"/>
<polygon fill="lightgray" stroke="lightgray" points="401.594,-193.009 412.012,-191.084 402.667,-186.091 401.594,-193.009"/>
<text text-anchor="middle" x="325" y="-191.8" font-family="Times New Roman,serif" font-size="14.00" fill="lightgray">wff ps</text>
</g>
<!-- n5978 -->
<g id="node6" class="node"><title>n5978</title>
<ellipse fill="cyan" stroke="black" cx="213" cy="-90" rx="27" ry="18"/>
<text text-anchor="middle" x="213" y="-86.3" font-family="Times New Roman,serif" font-size="14.00">a1i</text>
</g>
<!-- n5972&#45;&gt;n5978 -->
<g id="edge13" class="edge"><title>n5972&#45;&gt;n5978</title>
</g>
<!-- n5975 -->
<g id="node5" class="node"><title>n5975</title>
</g>
<!-- n5975&#45;&gt;n5978 -->
<g id="edge4" class="edge"><title>n5975&#45;&gt;n5978</title>
<path fill="none" stroke="lightgray" d="M51.4121,-153.509C79.317,-143.303 127.29,-125.485 168,-109 172.191,-107.303 176.586,-105.47 180.908,-103.636"/>
<polygon fill="lightgray" stroke="lightgray" points="182.341,-106.83 190.15,-99.6693 179.58,-100.397 182.341,-106.83"/>
<text text-anchor="middle" x="120" y="-148.8" font-family="Times New Roman,serif" font-size="14.00" fill="lightgray">wff ( ph &lt;&#45;&gt; ps )</text>
</g>
<!-- n5976 -->
<g id="node7" class="node"><title>n5976</title>
</g>
<!-- n5975&#45;&gt;n5976 -->
<g id="edge8" class="edge"><title>n5975&#45;&gt;n5976</title>
</g>
<!-- n5978&#45;&gt;n5979 -->
<g id="edge7" class="edge"><title>n5978&#45;&gt;n5979</title>
<path fill="none" stroke="black" d="M239.108,-95.1659C274.73,-103.179 341.246,-120.697 392,-149 403.865,-155.616 415.607,-164.848 425.343,-173.45"/>
<polygon fill="black" stroke="black" points="423.266,-176.293 433.008,-180.457 427.989,-171.126 423.266,-176.293"/>
<text text-anchor="middle" x="325" y="-152.8" font-family="Times New Roman,serif" font-size="14.00">|&#45; ( ch &#45;&gt; ( ph &lt;&#45;&gt; ps ) )</text>
</g>
<!-- n5976&#45;&gt;n5978 -->
<g id="edge5" class="edge"><title>n5976&#45;&gt;n5978</title>
<path fill="none" stroke="lightgray" d="M54.3627,-90C86.2889,-90 140.22,-90 175.967,-90"/>
<polygon fill="lightgray" stroke="lightgray" points="175.983,-93.5001 185.983,-90 175.983,-86.5001 175.983,-93.5001"/>
<text text-anchor="middle" x="120" y="-93.8" font-family="Times New Roman,serif" font-size="14.00" fill="lightgray">wff ch</text>
</g>
<!-- n5977 -->
<g id="node8" class="node"><title>n5977</title>
<ellipse fill="orange" stroke="black" cx="27" cy="-18" rx="27" ry="18"/>
<text text-anchor="middle" x="27" y="-14.3" font-family="Times New Roman,serif" font-size="14.00">bi.a</text>
</g>
<!-- n5976&#45;&gt;n5977 -->
<g id="edge9" class="edge"><title>n5976&#45;&gt;n5977</title>
</g>
<!-- n5977&#45;&gt;n5978 -->
<g id="edge6" class="edge"><title>n5977&#45;&gt;n5978</title>
<path fill="none" stroke="black" d="M51.4121,-26.4911C79.317,-36.6973 127.29,-54.5145 168,-71 172.191,-72.6972 176.586,-74.53 180.908,-76.3644"/>
<polygon fill="black" stroke="black" points="179.58,-79.603 190.15,-80.3307 182.341,-73.1704 179.58,-79.603"/>
<text text-anchor="middle" x="120" y="-74.8" font-family="Times New Roman,serif" font-size="14.00">|&#45; ( ph &lt;&#45;&gt; ps )</text>
</g>
</g>
</svg>
