<?xml version="1.0" encoding="UTF-8" standalone="no"?>
<!DOCTYPE svg PUBLIC "-//W3C//DTD SVG 1.1//EN"
 "http://www.w3.org/Graphics/SVG/1.1/DTD/svg11.dtd">
<!-- Generated by graphviz version 2.38.0 (20140413.2041)
 -->
<!-- Title: proof_imdi Pages: 1 -->
<svg width="1073pt" height="396pt"
 viewBox="0.00 0.00 1073.48 396.00" xmlns="http://www.w3.org/2000/svg" xmlns:xlink="http://www.w3.org/1999/xlink">
<g id="graph0" class="graph" transform="scale(1 1) rotate(0) translate(4 392)">
<title>proof_imdi</title>
<polygon fill="white" stroke="none" points="-4,4 -4,-392 1069.48,-392 1069.48,4 -4,4"/>
<!-- n7001 -->
<g id="node1" class="node"><title>n7001</title>
</g>
<!-- n7017 -->
<g id="node2" class="node"><title>n7017</title>
<ellipse fill="cyan" stroke="black" cx="600.84" cy="-261" rx="33.2948" ry="18"/>
<text text-anchor="middle" x="600.84" y="-257.3" font-family="Times New Roman,serif" font-size="14.00">impbii</text>
</g>
<!-- n7001&#45;&gt;n7017 -->
<g id="edge1" class="edge"><title>n7001&#45;&gt;n7017</title>
<path fill="none" stroke="lightgray" d="M192.267,-371.679C256.69,-374.726 427.664,-375.845 549.693,-313 562.186,-306.566 573.35,-295.803 581.955,-285.732"/>
<polygon fill="lightgray" stroke="lightgray" points="584.72,-287.878 588.283,-277.901 579.276,-283.479 584.72,-287.878"/>
<text text-anchor="middle" x="385.693" y="-375.8" font-family="Times New Roman,serif" font-size="14.00" fill="lightgray">wff ( ph &#45;&gt; ( ps &#45;&gt; ch ) )</text>
</g>
<!-- n7008 -->
<g id="node3" class="node"><title>n7008</title>
</g>
<!-- n7001&#45;&gt;n7008 -->
<g id="edge16" class="edge"><title>n7001&#45;&gt;n7008</title>
</g>
<!-- QED -->
<g id="node12" class="node"><title>QED</title>
</g>
<!-- n7017&#45;&gt;QED -->
<g id="edge15" class="edge"><title>n7017&#45;&gt;QED</title>
<path fill="none" stroke="black" d="M634.061,-261C712.322,-261 912.183,-261 996.635,-261"/>
<polygon fill="black" stroke="black" points="996.819,-264.5 1006.82,-261 996.819,-257.5 996.819,-264.5"/>
<text text-anchor="middle" x="820.487" y="-264.8" font-family="Times New Roman,serif" font-size="14.00">|&#45; ( ( ph &#45;&gt; ( ps &#45;&gt; ch ) ) &lt;&#45;&gt; ( ( ph &#45;&gt; ps ) &#45;&gt; ( ph &#45;&gt; ch ) ) )</text>
</g>
<!-- n7008&#45;&gt;n7017 -->
<g id="edge2" class="edge"><title>n7008&#45;&gt;n7017</title>
<path fill="none" stroke="lightgray" d="M192.407,-296.239C254.397,-291.975 415.489,-280.45 549.693,-267 552.515,-266.717 555.424,-266.41 558.354,-266.089"/>
<polygon fill="lightgray" stroke="lightgray" points="558.753,-269.567 568.295,-264.962 557.964,-262.611 558.753,-269.567"/>
<text text-anchor="middle" x="385.693" y="-297.8" font-family="Times New Roman,serif" font-size="14.00" fill="lightgray">wff ( ( ph &#45;&gt; ps ) &#45;&gt; ( ph &#45;&gt; ch ) )</text>
</g>
<!-- n7012 -->
<g id="node5" class="node"><title>n7012</title>
<ellipse fill="lawngreen" stroke="black" cx="165.347" cy="-226" rx="27" ry="18"/>
<text text-anchor="middle" x="165.347" y="-222.3" font-family="Times New Roman,serif" font-size="14.00">ax&#45;2</text>
</g>
<!-- n7008&#45;&gt;n7012 -->
<g id="edge17" class="edge"><title>n7008&#45;&gt;n7012</title>
</g>
<!-- n7009 -->
<g id="node4" class="node"><title>n7009</title>
</g>
<!-- n7009&#45;&gt;n7012 -->
<g id="edge3" class="edge"><title>n7009&#45;&gt;n7012</title>
<path fill="none" stroke="lightgray" d="M44.2049,-345.929C60.8301,-331.324 87.2635,-307.632 109,-286 120.882,-274.175 133.6,-260.467 143.845,-249.142"/>
<polygon fill="lightgray" stroke="lightgray" points="146.741,-251.155 150.82,-241.377 141.534,-246.477 146.741,-251.155"/>
<text text-anchor="middle" x="90.5" y="-322.8" font-family="Times New Roman,serif" font-size="14.00" fill="lightgray">wff ph</text>
</g>
<!-- n7010 -->
<g id="node6" class="node"><title>n7010</title>
</g>
<!-- n7009&#45;&gt;n7010 -->
<g id="edge7" class="edge"><title>n7009&#45;&gt;n7010</title>
</g>
<!-- n7012&#45;&gt;n7017 -->
<g id="edge6" class="edge"><title>n7012&#45;&gt;n7017</title>
<path fill="none" stroke="black" d="M192.47,-226.782C254.595,-228.857 415.959,-235.515 549.693,-252 552.897,-252.395 556.207,-252.86 559.528,-253.368"/>
<polygon fill="black" stroke="black" points="558.991,-256.826 569.425,-254.989 560.122,-249.918 558.991,-256.826"/>
<text text-anchor="middle" x="385.693" y="-255.8" font-family="Times New Roman,serif" font-size="14.00">|&#45; ( ( ph &#45;&gt; ( ps &#45;&gt; ch ) ) &#45;&gt; ( ( ph &#45;&gt; ps ) &#45;&gt; ( ph &#45;&gt; ch ) ) )</text>
</g>
<!-- n7016 -->
<g id="node9" class="node"><title>n7016</title>
<ellipse fill="cyan" stroke="black" cx="165.347" cy="-154" rx="38.1938" ry="18"/>
<text text-anchor="middle" x="165.347" y="-150.3" font-family="Times New Roman,serif" font-size="14.00">pm2.86</text>
</g>
<!-- n7012&#45;&gt;n7016 -->
<g id="edge18" class="edge"><title>n7012&#45;&gt;n7016</title>
</g>
<!-- n7010&#45;&gt;n7012 -->
<g id="edge4" class="edge"><title>n7010&#45;&gt;n7012</title>
<path fill="none" stroke="lightgray" d="M49.9064,-278.039C72.4679,-267.779 107.83,-251.699 133.275,-240.129"/>
<polygon fill="lightgray" stroke="lightgray" points="134.84,-243.262 142.495,-235.937 131.943,-236.89 134.84,-243.262"/>
<text text-anchor="middle" x="90.5" y="-270.8" font-family="Times New Roman,serif" font-size="14.00" fill="lightgray">wff ps</text>
</g>
<!-- n7011 -->
<g id="node7" class="node"><title>n7011</title>
</g>
<!-- n7010&#45;&gt;n7011 -->
<g id="edge8" class="edge"><title>n7010&#45;&gt;n7011</title>
</g>
<!-- n7011&#45;&gt;n7012 -->
<g id="edge5" class="edge"><title>n7011&#45;&gt;n7012</title>
<path fill="none" stroke="lightgray" d="M53.9667,-217.904C75.0057,-219.448 104.887,-221.639 128.254,-223.353"/>
<polygon fill="lightgray" stroke="lightgray" points="128.247,-226.862 138.477,-224.103 128.759,-219.88 128.247,-226.862"/>
<text text-anchor="middle" x="90.5" y="-224.8" font-family="Times New Roman,serif" font-size="14.00" fill="lightgray">wff ch</text>
</g>
<!-- n7013 -->
<g id="node8" class="node"><title>n7013</title>
</g>
<!-- n7013&#45;&gt;n7016 -->
<g id="edge9" class="edge"><title>n7013&#45;&gt;n7016</title>
<path fill="none" stroke="lightgray" d="M53.9667,-160.476C71.7618,-159.432 95.8823,-158.017 117.037,-156.776"/>
<polygon fill="lightgray" stroke="lightgray" points="117.365,-160.263 127.143,-156.183 116.955,-153.275 117.365,-160.263"/>
<text text-anchor="middle" x="90.5" y="-163.8" font-family="Times New Roman,serif" font-size="14.00" fill="lightgray">wff ph</text>
</g>
<!-- n7014 -->
<g id="node10" class="node"><title>n7014</title>
</g>
<!-- n7013&#45;&gt;n7014 -->
<g id="edge13" class="edge"><title>n7013&#45;&gt;n7014</title>
</g>
<!-- n7016&#45;&gt;n7017 -->
<g id="edge12" class="edge"><title>n7016&#45;&gt;n7017</title>
<path fill="none" stroke="black" d="M203.349,-151.405C274.663,-148.023 434.277,-148.426 549.693,-208 562.394,-214.556 573.641,-225.629 582.248,-235.964"/>
<polygon fill="black" stroke="black" points="579.63,-238.296 588.563,-243.993 585.132,-233.969 579.63,-238.296"/>
<text text-anchor="middle" x="385.693" y="-211.8" font-family="Times New Roman,serif" font-size="14.00">|&#45; ( ( ( ph &#45;&gt; ps ) &#45;&gt; ( ph &#45;&gt; ch ) ) &#45;&gt; ( ph &#45;&gt; ( ps &#45;&gt; ch ) ) )</text>
</g>
<!-- n7014&#45;&gt;n7016 -->
<g id="edge10" class="edge"><title>n7014&#45;&gt;n7016</title>
<path fill="none" stroke="lightgray" d="M49.6045,-100.141C70.7781,-110.08 103.432,-125.407 128.499,-137.173"/>
<polygon fill="lightgray" stroke="lightgray" points="127.155,-140.409 137.695,-141.49 130.129,-134.072 127.155,-140.409"/>
<text text-anchor="middle" x="90.5" y="-131.8" font-family="Times New Roman,serif" font-size="14.00" fill="lightgray">wff ps</text>
</g>
<!-- n7015 -->
<g id="node11" class="node"><title>n7015</title>
</g>
<!-- n7014&#45;&gt;n7015 -->
<g id="edge14" class="edge"><title>n7014&#45;&gt;n7015</title>
</g>
<!-- n7015&#45;&gt;n7016 -->
<g id="edge11" class="edge"><title>n7015&#45;&gt;n7016</title>
<path fill="none" stroke="lightgray" d="M44.2781,-31.9985C60.9616,-46.5451 87.4407,-70.1912 109,-92 120.868,-104.006 133.449,-117.988 143.612,-129.632"/>
<polygon fill="lightgray" stroke="lightgray" points="141.031,-131.998 150.223,-137.267 146.323,-127.416 141.031,-131.998"/>
<text text-anchor="middle" x="90.5" y="-95.8" font-family="Times New Roman,serif" font-size="14.00" fill="lightgray">wff ch</text>
</g>
</g>
</svg>
