<?xml version="1.0" encoding="UTF-8" standalone="no"?>
<!DOCTYPE svg PUBLIC "-//W3C//DTD SVG 1.1//EN"
 "http://www.w3.org/Graphics/SVG/1.1/DTD/svg11.dtd">
<!-- Generated by graphviz version 2.38.0 (20140413.2041)
 -->
<!-- Title: proof_imim1i Pages: 1 -->
<svg width="679pt" height="404pt"
 viewBox="0.00 0.00 678.68 404.00" xmlns="http://www.w3.org/2000/svg" xmlns:xlink="http://www.w3.org/1999/xlink">
<g id="graph0" class="graph" transform="scale(1 1) rotate(0) translate(4 400)">
<title>proof_imim1i</title>
<polygon fill="white" stroke="none" points="-4,4 -4,-400 674.681,-400 674.681,4 -4,4"/>
<!-- n556 -->
<g id="node1" class="node"><title>n556</title>
</g>
<!-- n563 -->
<g id="node2" class="node"><title>n563</title>
<ellipse fill="cyan" stroke="black" cx="361.189" cy="-197" rx="38.9931" ry="18"/>
<text text-anchor="middle" x="361.189" y="-193.3" font-family="Times New Roman,serif" font-size="14.00">imim12i</text>
</g>
<!-- n556&#45;&gt;n563 -->
<g id="edge1" class="edge"><title>n556&#45;&gt;n563</title>
<path fill="none" stroke="lightgray" d="M192.315,-369.179C221.254,-357.017 271.432,-332.715 304.193,-299 325.191,-277.39 340.73,-246.336 350.042,-224.178"/>
<polygon fill="lightgray" stroke="lightgray" points="353.375,-225.273 353.88,-214.69 346.886,-222.648 353.375,-225.273"/>
<text text-anchor="middle" x="266.193" y="-355.8" font-family="Times New Roman,serif" font-size="14.00" fill="lightgray">wff ph</text>
</g>
<!-- n557 -->
<g id="node3" class="node"><title>n557</title>
</g>
<!-- n556&#45;&gt;n557 -->
<g id="edge9" class="edge"><title>n556&#45;&gt;n557</title>
</g>
<!-- QED -->
<g id="node9" class="node"><title>QED</title>
</g>
<!-- n563&#45;&gt;QED -->
<g id="edge8" class="edge"><title>n563&#45;&gt;QED</title>
<path fill="none" stroke="black" d="M400.294,-197C453.317,-197 548.814,-197 602.007,-197"/>
<polygon fill="black" stroke="black" points="602.057,-200.5 612.057,-197 602.057,-193.5 602.057,-200.5"/>
<text text-anchor="middle" x="506.186" y="-200.8" font-family="Times New Roman,serif" font-size="14.00">|&#45; ( ( ps &#45;&gt; ch ) &#45;&gt; ( ph &#45;&gt; ch ) )</text>
</g>
<!-- n557&#45;&gt;n563 -->
<g id="edge2" class="edge"><title>n557&#45;&gt;n563</title>
<path fill="none" stroke="lightgray" d="M192.29,-296.83C219.694,-285.356 266.769,-264.356 304.193,-241 314.391,-234.635 324.921,-226.758 334.059,-219.435"/>
<polygon fill="lightgray" stroke="lightgray" points="336.49,-221.968 342.01,-212.925 332.055,-216.552 336.49,-221.968"/>
<text text-anchor="middle" x="266.193" y="-283.8" font-family="Times New Roman,serif" font-size="14.00" fill="lightgray">wff ps</text>
</g>
<!-- n558 -->
<g id="node4" class="node"><title>n558</title>
</g>
<!-- n557&#45;&gt;n558 -->
<g id="edge10" class="edge"><title>n557&#45;&gt;n558</title>
</g>
<!-- n558&#45;&gt;n563 -->
<g id="edge3" class="edge"><title>n558&#45;&gt;n563</title>
<path fill="none" stroke="lightgray" d="M194.906,-229.087C225.45,-223.157 277.372,-213.077 314.882,-205.796"/>
<polygon fill="lightgray" stroke="lightgray" points="315.9,-209.163 325.049,-203.822 314.566,-202.292 315.9,-209.163"/>
<text text-anchor="middle" x="266.193" y="-225.8" font-family="Times New Roman,serif" font-size="14.00" fill="lightgray">wff ch</text>
</g>
<!-- n559 -->
<g id="node5" class="node"><title>n559</title>
</g>
<!-- n558&#45;&gt;n559 -->
<g id="edge11" class="edge"><title>n558&#45;&gt;n559</title>
</g>
<!-- n559&#45;&gt;n563 -->
<g id="edge4" class="edge"><title>n559&#45;&gt;n563</title>
<path fill="none" stroke="lightgray" d="M194.906,-166.648C225.357,-172.24 277.058,-181.734 314.54,-188.617"/>
<polygon fill="lightgray" stroke="lightgray" points="314.238,-192.12 324.706,-190.484 315.502,-185.235 314.238,-192.12"/>
<text text-anchor="middle" x="266.193" y="-190.8" font-family="Times New Roman,serif" font-size="14.00" fill="lightgray">wff ch</text>
</g>
<!-- n560 -->
<g id="node6" class="node"><title>n560</title>
<ellipse fill="orange" stroke="black" cx="168.596" cy="-90" rx="41.6928" ry="18"/>
<text text-anchor="middle" x="168.596" y="-86.3" font-family="Times New Roman,serif" font-size="14.00">imim1i.1</text>
</g>
<!-- n559&#45;&gt;n560 -->
<g id="edge12" class="edge"><title>n559&#45;&gt;n560</title>
</g>
<!-- n560&#45;&gt;n563 -->
<g id="edge5" class="edge"><title>n560&#45;&gt;n563</title>
<path fill="none" stroke="black" d="M199.067,-102.257C226.924,-114.296 269.501,-133.887 304.193,-155 314.026,-160.985 324.249,-168.291 333.227,-175.121"/>
<polygon fill="black" stroke="black" points="331.355,-178.098 341.4,-181.466 335.647,-172.569 331.355,-178.098"/>
<text text-anchor="middle" x="266.193" y="-158.8" font-family="Times New Roman,serif" font-size="14.00">|&#45; ( ph &#45;&gt; ps )</text>
</g>
<!-- n562 -->
<g id="node8" class="node"><title>n562</title>
<ellipse fill="cyan" stroke="black" cx="168.596" cy="-18" rx="27" ry="18"/>
<text text-anchor="middle" x="168.596" y="-14.3" font-family="Times New Roman,serif" font-size="14.00">id</text>
</g>
<!-- n560&#45;&gt;n562 -->
<g id="edge13" class="edge"><title>n560&#45;&gt;n562</title>
</g>
<!-- n561 -->
<g id="node7" class="node"><title>n561</title>
</g>
<!-- n561&#45;&gt;n562 -->
<g id="edge6" class="edge"><title>n561&#45;&gt;n562</title>
<path fill="none" stroke="lightgray" d="M54.257,-18C75.9974,-18 107.121,-18 131.255,-18"/>
<polygon fill="lightgray" stroke="lightgray" points="131.457,-21.5001 141.457,-18 131.457,-14.5001 131.457,-21.5001"/>
<text text-anchor="middle" x="90.5" y="-21.8" font-family="Times New Roman,serif" font-size="14.00" fill="lightgray">wff ch</text>
</g>
<!-- n562&#45;&gt;n563 -->
<g id="edge7" class="edge"><title>n562&#45;&gt;n563</title>
<path fill="none" stroke="black" d="M192.521,-26.9701C221.452,-39.2126 271.385,-63.52 304.193,-97 324.844,-118.075 340.359,-148.288 349.76,-169.981"/>
<polygon fill="black" stroke="black" points="346.562,-171.406 353.645,-179.285 353.021,-168.709 346.562,-171.406"/>
<text text-anchor="middle" x="266.193" y="-100.8" font-family="Times New Roman,serif" font-size="14.00">|&#45; ( ch &#45;&gt; ch )</text>
</g>
</g>
</svg>
