<?xml version="1.0" encoding="UTF-8" standalone="no"?>
<!DOCTYPE svg PUBLIC "-//W3C//DTD SVG 1.1//EN"
 "http://www.w3.org/Graphics/SVG/1.1/DTD/svg11.dtd">
<!-- Generated by graphviz version 2.38.0 (20140413.2041)
 -->
<!-- Title: proof_imnani Pages: 1 -->
<svg width="704pt" height="295pt"
 viewBox="0.00 0.00 704.38 295.00" xmlns="http://www.w3.org/2000/svg" xmlns:xlink="http://www.w3.org/1999/xlink">
<g id="graph0" class="graph" transform="scale(1 1) rotate(0) translate(4 291)">
<title>proof_imnani</title>
<polygon fill="white" stroke="none" points="-4,4 -4,-291 700.382,-291 700.382,4 -4,4"/>
<!-- n7695 -->
<g id="node1" class="node"><title>n7695</title>
</g>
<!-- n7704 -->
<g id="node2" class="node"><title>n7704</title>
<ellipse fill="cyan" stroke="black" cx="481.39" cy="-160" rx="32.4942" ry="18"/>
<text text-anchor="middle" x="481.39" y="-156.3" font-family="Times New Roman,serif" font-size="14.00">mpbir</text>
</g>
<!-- n7695&#45;&gt;n7704 -->
<g id="edge1" class="edge"><title>n7695&#45;&gt;n7704</title>
<path fill="none" stroke="lightgray" d="M195.158,-267.718C244.302,-264.331 352.401,-252.162 430.893,-209 442.202,-202.781 452.685,-193.23 461.065,-184.207"/>
<polygon fill="lightgray" stroke="lightgray" points="463.864,-186.324 467.855,-176.51 458.615,-181.693 463.864,-186.324"/>
<text text-anchor="middle" x="328.893" y="-267.8" font-family="Times New Roman,serif" font-size="14.00" fill="lightgray">wff ( ph &#45;&gt; &#45;. ps )</text>
</g>
<!-- n7699 -->
<g id="node3" class="node"><title>n7699</title>
</g>
<!-- n7695&#45;&gt;n7699 -->
<g id="edge9" class="edge"><title>n7695&#45;&gt;n7699</title>
</g>
<!-- QED -->
<g id="node8" class="node"><title>QED</title>
</g>
<!-- n7704&#45;&gt;QED -->
<g id="edge8" class="edge"><title>n7704&#45;&gt;QED</title>
<path fill="none" stroke="black" d="M513.977,-160C545.364,-160 593.559,-160 627.274,-160"/>
<polygon fill="black" stroke="black" points="627.672,-163.5 637.672,-160 627.672,-156.5 627.672,-163.5"/>
<text text-anchor="middle" x="575.887" y="-163.8" font-family="Times New Roman,serif" font-size="14.00">|&#45; ( ph &#45;&gt; &#45;. ps )</text>
</g>
<!-- n7699&#45;&gt;n7704 -->
<g id="edge2" class="edge"><title>n7699&#45;&gt;n7704</title>
<path fill="none" stroke="lightgray" d="M194.604,-193.988C241.517,-188.475 344.274,-176.375 430.893,-166 433.713,-165.662 436.623,-165.312 439.554,-164.959"/>
<polygon fill="lightgray" stroke="lightgray" points="439.991,-168.432 449.499,-163.758 439.152,-161.483 439.991,-168.432"/>
<text text-anchor="middle" x="328.893" y="-193.8" font-family="Times New Roman,serif" font-size="14.00" fill="lightgray">wff &#45;. ( ph /\ ps )</text>
</g>
<!-- n7700 -->
<g id="node4" class="node"><title>n7700</title>
<ellipse fill="orange" stroke="black" cx="167.946" cy="-125" rx="40.8928" ry="18"/>
<text text-anchor="middle" x="167.946" y="-121.3" font-family="Times New Roman,serif" font-size="14.00">imnani.1</text>
</g>
<!-- n7699&#45;&gt;n7700 -->
<g id="edge10" class="edge"><title>n7699&#45;&gt;n7700</title>
</g>
<!-- n7700&#45;&gt;n7704 -->
<g id="edge3" class="edge"><title>n7700&#45;&gt;n7704</title>
<path fill="none" stroke="black" d="M208.561,-127.928C259.965,-131.957 352.372,-139.983 430.893,-151 434.093,-151.449 437.402,-151.956 440.722,-152.495"/>
<polygon fill="black" stroke="black" points="440.168,-155.952 450.614,-154.183 441.345,-149.051 440.168,-155.952"/>
<text text-anchor="middle" x="328.893" y="-154.8" font-family="Times New Roman,serif" font-size="14.00">|&#45; &#45;. ( ph /\ ps )</text>
</g>
<!-- n7703 -->
<g id="node6" class="node"><title>n7703</title>
<ellipse fill="cyan" stroke="black" cx="167.946" cy="-53" rx="32.4942" ry="18"/>
<text text-anchor="middle" x="167.946" y="-49.3" font-family="Times New Roman,serif" font-size="14.00">imnan</text>
</g>
<!-- n7700&#45;&gt;n7703 -->
<g id="edge11" class="edge"><title>n7700&#45;&gt;n7703</title>
</g>
<!-- n7701 -->
<g id="node5" class="node"><title>n7701</title>
</g>
<!-- n7701&#45;&gt;n7703 -->
<g id="edge4" class="edge"><title>n7701&#45;&gt;n7703</title>
<path fill="none" stroke="lightgray" d="M52.521,-83.4703C73.5171,-77.8793 104.113,-69.7319 128.385,-63.2685"/>
<polygon fill="lightgray" stroke="lightgray" points="129.591,-66.5693 138.354,-60.6139 127.79,-59.805 129.591,-66.5693"/>
<text text-anchor="middle" x="90.5" y="-82.8" font-family="Times New Roman,serif" font-size="14.00" fill="lightgray">wff ph</text>
</g>
<!-- n7702 -->
<g id="node7" class="node"><title>n7702</title>
</g>
<!-- n7701&#45;&gt;n7702 -->
<g id="edge7" class="edge"><title>n7701&#45;&gt;n7702</title>
</g>
<!-- n7703&#45;&gt;n7704 -->
<g id="edge6" class="edge"><title>n7703&#45;&gt;n7704</title>
<path fill="none" stroke="black" d="M200.758,-54.3915C252.13,-57.8319 355.236,-69.754 430.893,-111 442.224,-117.178 452.711,-126.722 461.088,-135.751"/>
<polygon fill="black" stroke="black" points="458.638,-138.265 467.874,-143.456 463.891,-133.639 458.638,-138.265"/>
<text text-anchor="middle" x="328.893" y="-114.8" font-family="Times New Roman,serif" font-size="14.00">|&#45; ( ( ph &#45;&gt; &#45;. ps ) &lt;&#45;&gt; &#45;. ( ph /\ ps ) )</text>
</g>
<!-- n7702&#45;&gt;n7703 -->
<g id="edge5" class="edge"><title>n7702&#45;&gt;n7703</title>
<path fill="none" stroke="lightgray" d="M52.521,-24.1767C73.3808,-29.4312 103.716,-37.0725 127.912,-43.1673"/>
<polygon fill="lightgray" stroke="lightgray" points="127.308,-46.6244 137.86,-45.6732 129.018,-39.8365 127.308,-46.6244"/>
<text text-anchor="middle" x="90.5" y="-41.8" font-family="Times New Roman,serif" font-size="14.00" fill="lightgray">wff ps</text>
</g>
</g>
</svg>
