<?xml version="1.0" encoding="UTF-8" standalone="no"?>
<!DOCTYPE svg PUBLIC "-//W3C//DTD SVG 1.1//EN"
 "http://www.w3.org/Graphics/SVG/1.1/DTD/svg11.dtd">
<!-- Generated by graphviz version 2.38.0 (20140413.2041)
 -->
<!-- Title: proof_imp31 Pages: 1 -->
<svg width="858pt" height="367pt"
 viewBox="0.00 0.00 857.99 367.00" xmlns="http://www.w3.org/2000/svg" xmlns:xlink="http://www.w3.org/1999/xlink">
<g id="graph0" class="graph" transform="scale(1 1) rotate(0) translate(4 363)">
<title>proof_imp31</title>
<polygon fill="white" stroke="none" points="-4,4 -4,-363 853.988,-363 853.988,4 -4,4"/>
<!-- n7809 -->
<g id="node1" class="node"><title>n7809</title>
</g>
<!-- n7819 -->
<g id="node2" class="node"><title>n7819</title>
<ellipse fill="cyan" stroke="black" cx="565.494" cy="-232" rx="27" ry="18"/>
<text text-anchor="middle" x="565.494" y="-228.3" font-family="Times New Roman,serif" font-size="14.00">imp</text>
</g>
<!-- n7809&#45;&gt;n7819 -->
<g id="edge1" class="edge"><title>n7809&#45;&gt;n7819</title>
<path fill="none" stroke="lightgray" d="M334.469,-338.135C376.368,-332.549 460.257,-317.306 520.494,-280 530.399,-273.865 539.46,-264.891 546.751,-256.357"/>
<polygon fill="lightgray" stroke="lightgray" points="549.605,-258.394 553.169,-248.417 544.161,-253.994 549.605,-258.394"/>
<text text-anchor="middle" x="436.494" y="-338.8" font-family="Times New Roman,serif" font-size="14.00" fill="lightgray">wff ( ph /\ ps )</text>
</g>
<!-- n7810 -->
<g id="node3" class="node"><title>n7810</title>
</g>
<!-- n7809&#45;&gt;n7810 -->
<g id="edge13" class="edge"><title>n7809&#45;&gt;n7810</title>
</g>
<!-- QED -->
<g id="node10" class="node"><title>QED</title>
</g>
<!-- n7819&#45;&gt;QED -->
<g id="edge12" class="edge"><title>n7819&#45;&gt;QED</title>
<path fill="none" stroke="black" d="M592.642,-232C637.451,-232 729.112,-232 781.242,-232"/>
<polygon fill="black" stroke="black" points="781.426,-235.5 791.426,-232 781.426,-228.5 781.426,-235.5"/>
<text text-anchor="middle" x="691.994" y="-235.8" font-family="Times New Roman,serif" font-size="14.00">|&#45; ( ( ( ph /\ ps ) /\ ch ) &#45;&gt; th )</text>
</g>
<!-- n7810&#45;&gt;n7819 -->
<g id="edge2" class="edge"><title>n7810&#45;&gt;n7819</title>
<path fill="none" stroke="lightgray" d="M333.976,-265.317C379.765,-258.699 476.066,-244.781 528.543,-237.196"/>
<polygon fill="lightgray" stroke="lightgray" points="529.338,-240.618 538.735,-235.723 528.337,-233.69 529.338,-240.618"/>
<text text-anchor="middle" x="436.494" y="-264.8" font-family="Times New Roman,serif" font-size="14.00" fill="lightgray">wff ch</text>
</g>
<!-- n7811 -->
<g id="node4" class="node"><title>n7811</title>
</g>
<!-- n7810&#45;&gt;n7811 -->
<g id="edge14" class="edge"><title>n7810&#45;&gt;n7811</title>
</g>
<!-- n7811&#45;&gt;n7819 -->
<g id="edge3" class="edge"><title>n7811&#45;&gt;n7819</title>
<path fill="none" stroke="lightgray" d="M334.369,-199.501C374.401,-203.523 453.705,-212.092 520.494,-223 523.379,-223.471 526.364,-223.998 529.356,-224.553"/>
<polygon fill="lightgray" stroke="lightgray" points="528.943,-228.038 539.428,-226.513 530.281,-221.167 528.943,-228.038"/>
<text text-anchor="middle" x="436.494" y="-226.8" font-family="Times New Roman,serif" font-size="14.00" fill="lightgray">wff th</text>
</g>
<!-- n7818 -->
<g id="node6" class="node"><title>n7818</title>
<ellipse fill="cyan" stroke="black" cx="307.494" cy="-125" rx="27" ry="18"/>
<text text-anchor="middle" x="307.494" y="-121.3" font-family="Times New Roman,serif" font-size="14.00">imp</text>
</g>
<!-- n7811&#45;&gt;n7818 -->
<g id="edge15" class="edge"><title>n7811&#45;&gt;n7818</title>
</g>
<!-- n7812 -->
<g id="node5" class="node"><title>n7812</title>
</g>
<!-- n7812&#45;&gt;n7818 -->
<g id="edge4" class="edge"><title>n7812&#45;&gt;n7818</title>
<path fill="none" stroke="lightgray" d="M62.6578,-231.94C106.691,-227.436 197.649,-213.707 262.494,-174 272.796,-167.692 282.089,-158.244 289.451,-149.323"/>
<polygon fill="lightgray" stroke="lightgray" points="292.253,-151.421 295.643,-141.383 286.733,-147.116 292.253,-151.421"/>
<text text-anchor="middle" x="175.994" y="-231.8" font-family="Times New Roman,serif" font-size="14.00" fill="lightgray">wff ph</text>
</g>
<!-- n7813 -->
<g id="node7" class="node"><title>n7813</title>
</g>
<!-- n7812&#45;&gt;n7813 -->
<g id="edge9" class="edge"><title>n7812&#45;&gt;n7813</title>
</g>
<!-- n7818&#45;&gt;n7819 -->
<g id="edge8" class="edge"><title>n7818&#45;&gt;n7819</title>
<path fill="none" stroke="black" d="M334.549,-127.135C376.559,-131.594 460.602,-144.792 520.494,-182 530.871,-188.447 540.178,-198.089 547.529,-207.191"/>
<polygon fill="black" stroke="black" points="544.859,-209.462 553.706,-215.291 550.425,-205.217 544.859,-209.462"/>
<text text-anchor="middle" x="436.494" y="-185.8" font-family="Times New Roman,serif" font-size="14.00">|&#45; ( ( ph /\ ps ) &#45;&gt; ( ch &#45;&gt; th ) )</text>
</g>
<!-- n7813&#45;&gt;n7818 -->
<g id="edge5" class="edge"><title>n7813&#45;&gt;n7818</title>
<path fill="none" stroke="lightgray" d="M62.6113,-158.452C111.049,-151.808 215.514,-137.479 270.683,-129.912"/>
<polygon fill="lightgray" stroke="lightgray" points="271.276,-133.364 280.708,-128.537 270.325,-126.428 271.276,-133.364"/>
<text text-anchor="middle" x="175.994" y="-158.8" font-family="Times New Roman,serif" font-size="14.00" fill="lightgray">wff ps</text>
</g>
<!-- n7816 -->
<g id="node8" class="node"><title>n7816</title>
</g>
<!-- n7813&#45;&gt;n7816 -->
<g id="edge10" class="edge"><title>n7813&#45;&gt;n7816</title>
</g>
<!-- n7816&#45;&gt;n7818 -->
<g id="edge6" class="edge"><title>n7816&#45;&gt;n7818</title>
<path fill="none" stroke="lightgray" d="M62.5766,-92.2369C104.623,-96.0435 190.42,-104.501 262.494,-116 265.381,-116.461 268.367,-116.98 271.36,-117.53"/>
<polygon fill="lightgray" stroke="lightgray" points="270.95,-121.015 281.433,-119.481 272.281,-114.143 270.95,-121.015"/>
<text text-anchor="middle" x="175.994" y="-119.8" font-family="Times New Roman,serif" font-size="14.00" fill="lightgray">wff ( ch &#45;&gt; th )</text>
</g>
<!-- n7817 -->
<g id="node9" class="node"><title>n7817</title>
<ellipse fill="orange" stroke="black" cx="35.7468" cy="-18" rx="35.9954" ry="18"/>
<text text-anchor="middle" x="35.7468" y="-14.3" font-family="Times New Roman,serif" font-size="14.00">imp3.1</text>
</g>
<!-- n7816&#45;&gt;n7817 -->
<g id="edge11" class="edge"><title>n7816&#45;&gt;n7817</title>
</g>
<!-- n7817&#45;&gt;n7818 -->
<g id="edge7" class="edge"><title>n7817&#45;&gt;n7818</title>
<path fill="none" stroke="black" d="M71.2141,-20.905C117.625,-26.118 201.426,-40.2076 262.494,-77 272.473,-83.0126 281.549,-91.9637 288.831,-100.513"/>
<polygon fill="black" stroke="black" points="286.241,-102.877 295.234,-108.477 291.696,-98.4905 286.241,-102.877"/>
<text text-anchor="middle" x="175.994" y="-80.8" font-family="Times New Roman,serif" font-size="14.00">|&#45; ( ph &#45;&gt; ( ps &#45;&gt; ( ch &#45;&gt; th ) ) )</text>
</g>
</g>
</svg>
