<?xml version="1.0" encoding="UTF-8" standalone="no"?>
<!DOCTYPE svg PUBLIC "-//W3C//DTD SVG 1.1//EN"
 "http://www.w3.org/Graphics/SVG/1.1/DTD/svg11.dtd">
<!-- Generated by graphviz version 2.38.0 (20140413.2041)
 -->
<!-- Title: proof_imp4a Pages: 1 -->
<svg width="890pt" height="480pt"
 viewBox="0.00 0.00 890.08 480.00" xmlns="http://www.w3.org/2000/svg" xmlns:xlink="http://www.w3.org/1999/xlink">
<g id="graph0" class="graph" transform="scale(1 1) rotate(0) translate(4 476)">
<title>proof_imp4a</title>
<polygon fill="white" stroke="none" points="-4,4 -4,-476 886.082,-476 886.082,4 -4,4"/>
<!-- n10169 -->
<g id="node1" class="node"><title>n10169</title>
</g>
<!-- n10186 -->
<g id="node2" class="node"><title>n10186</title>
<ellipse fill="cyan" stroke="black" cx="538.49" cy="-269" rx="35.194" ry="18"/>
<text text-anchor="middle" x="538.49" y="-265.3" font-family="Times New Roman,serif" font-size="14.00">syl6ibr</text>
</g>
<!-- n10169&#45;&gt;n10186 -->
<g id="edge1" class="edge"><title>n10169&#45;&gt;n10186</title>
<path fill="none" stroke="lightgray" d="M191.388,-453.377C250.338,-459.647 397.023,-466.651 485.393,-396 515.897,-371.613 528.696,-326.406 533.957,-297.028"/>
<polygon fill="lightgray" stroke="lightgray" points="537.439,-297.418 535.573,-286.989 530.528,-296.306 537.439,-297.418"/>
<text text-anchor="middle" x="352.893" y="-460.8" font-family="Times New Roman,serif" font-size="14.00" fill="lightgray">wff ph</text>
</g>
<!-- n10170 -->
<g id="node3" class="node"><title>n10170</title>
</g>
<!-- n10169&#45;&gt;n10170 -->
<g id="edge13" class="edge"><title>n10169&#45;&gt;n10170</title>
</g>
<!-- QED -->
<g id="node11" class="node"><title>QED</title>
</g>
<!-- n10186&#45;&gt;QED -->
<g id="edge12" class="edge"><title>n10186&#45;&gt;QED</title>
<path fill="none" stroke="black" d="M573.81,-269C632.534,-269 751.89,-269 813.351,-269"/>
<polygon fill="black" stroke="black" points="813.414,-272.5 823.414,-269 813.414,-265.5 813.414,-272.5"/>
<text text-anchor="middle" x="698.587" y="-272.8" font-family="Times New Roman,serif" font-size="14.00">|&#45; ( ph &#45;&gt; ( ps &#45;&gt; ( ( ch /\ th ) &#45;&gt; ta ) ) )</text>
</g>
<!-- n10170&#45;&gt;n10186 -->
<g id="edge2" class="edge"><title>n10170&#45;&gt;n10186</title>
<path fill="none" stroke="lightgray" d="M191.748,-378.142C248.396,-377.43 385.695,-370.106 485.393,-319 497.595,-312.745 508.88,-302.708 517.805,-293.263"/>
<polygon fill="lightgray" stroke="lightgray" points="520.64,-295.343 524.714,-285.563 515.43,-290.668 520.64,-295.343"/>
<text text-anchor="middle" x="352.893" y="-380.8" font-family="Times New Roman,serif" font-size="14.00" fill="lightgray">wff ps</text>
</g>
<!-- n10175 -->
<g id="node4" class="node"><title>n10175</title>
</g>
<!-- n10170&#45;&gt;n10175 -->
<g id="edge14" class="edge"><title>n10170&#45;&gt;n10175</title>
</g>
<!-- n10175&#45;&gt;n10186 -->
<g id="edge3" class="edge"><title>n10175&#45;&gt;n10186</title>
<path fill="none" stroke="lightgray" d="M191.82,-303.627C246.385,-298.637 376.43,-286.557 485.393,-275 488.237,-274.698 491.167,-274.381 494.119,-274.055"/>
<polygon fill="lightgray" stroke="lightgray" points="494.602,-277.523 504.15,-272.93 493.822,-270.566 494.602,-277.523"/>
<text text-anchor="middle" x="352.893" y="-303.8" font-family="Times New Roman,serif" font-size="14.00" fill="lightgray">wff ( ch &#45;&gt; ( th &#45;&gt; ta ) )</text>
</g>
<!-- n10180 -->
<g id="node5" class="node"><title>n10180</title>
</g>
<!-- n10175&#45;&gt;n10180 -->
<g id="edge15" class="edge"><title>n10175&#45;&gt;n10180</title>
</g>
<!-- n10180&#45;&gt;n10186 -->
<g id="edge4" class="edge"><title>n10180&#45;&gt;n10186</title>
<path fill="none" stroke="lightgray" d="M191.886,-235.33C246.575,-238.284 376.839,-246.237 485.393,-260 488.626,-260.41 491.964,-260.879 495.315,-261.383"/>
<polygon fill="lightgray" stroke="lightgray" points="494.895,-264.86 505.321,-262.977 495.996,-257.948 494.895,-264.86"/>
<text text-anchor="middle" x="352.893" y="-263.8" font-family="Times New Roman,serif" font-size="14.00" fill="lightgray">wff ( ( ch /\ th ) &#45;&gt; ta )</text>
</g>
<!-- n10181 -->
<g id="node6" class="node"><title>n10181</title>
<ellipse fill="orange" stroke="black" cx="164.697" cy="-162" rx="35.9954" ry="18"/>
<text text-anchor="middle" x="164.697" y="-158.3" font-family="Times New Roman,serif" font-size="14.00">imp4.1</text>
</g>
<!-- n10180&#45;&gt;n10181 -->
<g id="edge16" class="edge"><title>n10180&#45;&gt;n10181</title>
</g>
<!-- n10181&#45;&gt;n10186 -->
<g id="edge5" class="edge"><title>n10181&#45;&gt;n10186</title>
<path fill="none" stroke="black" d="M200.458,-161.509C261.543,-162.028 390.641,-169.381 485.393,-218 497.833,-224.383 509.238,-234.754 518.184,-244.482"/>
<polygon fill="black" stroke="black" points="515.589,-246.832 524.805,-252.058 520.86,-242.225 515.589,-246.832"/>
<text text-anchor="middle" x="352.893" y="-221.8" font-family="Times New Roman,serif" font-size="14.00">|&#45; ( ph &#45;&gt; ( ps &#45;&gt; ( ch &#45;&gt; ( th &#45;&gt; ta ) ) ) )</text>
</g>
<!-- n10185 -->
<g id="node8" class="node"><title>n10185</title>
<ellipse fill="cyan" stroke="black" cx="164.697" cy="-90" rx="37.8943" ry="18"/>
<text text-anchor="middle" x="164.697" y="-86.3" font-family="Times New Roman,serif" font-size="14.00">impexp</text>
</g>
<!-- n10181&#45;&gt;n10185 -->
<g id="edge17" class="edge"><title>n10181&#45;&gt;n10185</title>
</g>
<!-- n10182 -->
<g id="node7" class="node"><title>n10182</title>
</g>
<!-- n10182&#45;&gt;n10185 -->
<g id="edge6" class="edge"><title>n10182&#45;&gt;n10185</title>
<path fill="none" stroke="lightgray" d="M48.6094,-151.065C70.1361,-139.643 104.258,-121.538 129.767,-108.003"/>
<polygon fill="lightgray" stroke="lightgray" points="131.543,-111.023 138.736,-103.244 128.262,-104.839 131.543,-111.023"/>
<text text-anchor="middle" x="90.5" y="-140.8" font-family="Times New Roman,serif" font-size="14.00" fill="lightgray">wff ch</text>
</g>
<!-- n10183 -->
<g id="node9" class="node"><title>n10183</title>
</g>
<!-- n10182&#45;&gt;n10183 -->
<g id="edge10" class="edge"><title>n10182&#45;&gt;n10183</title>
</g>
<!-- n10185&#45;&gt;n10186 -->
<g id="edge9" class="edge"><title>n10185&#45;&gt;n10186</title>
<path fill="none" stroke="black" d="M201.294,-85.5376C265.426,-79.5292 401.487,-76.3183 485.393,-143 515.597,-167.003 528.458,-211.515 533.817,-240.692"/>
<polygon fill="black" stroke="black" points="530.385,-241.387 535.47,-250.681 537.291,-240.244 530.385,-241.387"/>
<text text-anchor="middle" x="352.893" y="-146.8" font-family="Times New Roman,serif" font-size="14.00">|&#45; ( ( ( ch /\ th ) &#45;&gt; ta ) &lt;&#45;&gt; ( ch &#45;&gt; ( th &#45;&gt; ta ) ) )</text>
</g>
<!-- n10183&#45;&gt;n10185 -->
<g id="edge7" class="edge"><title>n10183&#45;&gt;n10185</title>
<path fill="none" stroke="lightgray" d="M54.1637,-90C71.9013,-90 95.8447,-90 116.822,-90"/>
<polygon fill="lightgray" stroke="lightgray" points="116.841,-93.5001 126.841,-90 116.841,-86.5001 116.841,-93.5001"/>
<text text-anchor="middle" x="90.5" y="-93.8" font-family="Times New Roman,serif" font-size="14.00" fill="lightgray">wff th</text>
</g>
<!-- n10184 -->
<g id="node10" class="node"><title>n10184</title>
</g>
<!-- n10183&#45;&gt;n10184 -->
<g id="edge11" class="edge"><title>n10183&#45;&gt;n10184</title>
</g>
<!-- n10184&#45;&gt;n10185 -->
<g id="edge8" class="edge"><title>n10184&#45;&gt;n10185</title>
<path fill="none" stroke="lightgray" d="M48.6094,-28.9353C70.1361,-40.3572 104.258,-58.4619 129.767,-71.9971"/>
<polygon fill="lightgray" stroke="lightgray" points="128.262,-75.1607 138.736,-76.7561 131.543,-68.9773 128.262,-75.1607"/>
<text text-anchor="middle" x="90.5" y="-64.8" font-family="Times New Roman,serif" font-size="14.00" fill="lightgray">wff ta</text>
</g>
</g>
</svg>
