<?xml version="1.0" encoding="UTF-8" standalone="no"?>
<!DOCTYPE svg PUBLIC "-//W3C//DTD SVG 1.1//EN"
 "http://www.w3.org/Graphics/SVG/1.1/DTD/svg11.dtd">
<!-- Generated by graphviz version 2.38.0 (20140413.2041)
 -->
<!-- Title: proof_imp5g Pages: 1 -->
<svg width="1143pt" height="514pt"
 viewBox="0.00 0.00 1143.28 514.00" xmlns="http://www.w3.org/2000/svg" xmlns:xlink="http://www.w3.org/1999/xlink">
<g id="graph0" class="graph" transform="scale(1 1) rotate(0) translate(4 510)">
<title>proof_imp5g</title>
<polygon fill="white" stroke="none" points="-4,4 -4,-510 1139.28,-510 1139.28,4 -4,4"/>
<!-- n10348 -->
<g id="node1" class="node"><title>n10348</title>
</g>
<!-- n10364 -->
<g id="node2" class="node"><title>n10364</title>
<ellipse fill="cyan" stroke="black" cx="757.641" cy="-304" rx="33.2948" ry="18"/>
<text text-anchor="middle" x="757.641" y="-300.3" font-family="Times New Roman,serif" font-size="14.00">imp4c</text>
</g>
<!-- n10348&#45;&gt;n10364 -->
<g id="edge1" class="edge"><title>n10348&#45;&gt;n10364</title>
<path fill="none" stroke="lightgray" d="M427.365,-488.188C484.593,-493.754 623.412,-498.872 706.494,-431 736.414,-406.557 748.563,-361.76 753.441,-332.434"/>
<polygon fill="lightgray" stroke="lightgray" points="756.925,-332.801 754.929,-322.396 750,-331.775 756.925,-332.801"/>
<text text-anchor="middle" x="575.994" y="-494.8" font-family="Times New Roman,serif" font-size="14.00" fill="lightgray">wff ( ph /\ ps )</text>
</g>
<!-- n10349 -->
<g id="node3" class="node"><title>n10349</title>
</g>
<!-- n10348&#45;&gt;n10349 -->
<g id="edge15" class="edge"><title>n10348&#45;&gt;n10349</title>
</g>
<!-- QED -->
<g id="node12" class="node"><title>QED</title>
</g>
<!-- n10364&#45;&gt;QED -->
<g id="edge14" class="edge"><title>n10364&#45;&gt;QED</title>
<path fill="none" stroke="black" d="M790.918,-304C854.847,-304 997.332,-304 1066.24,-304"/>
<polygon fill="black" stroke="black" points="1066.64,-307.5 1076.64,-304 1066.64,-300.5 1066.64,-307.5"/>
<text text-anchor="middle" x="933.788" y="-307.8" font-family="Times New Roman,serif" font-size="14.00">|&#45; ( ( ph /\ ps ) &#45;&gt; ( ( ( ch /\ th ) /\ ta ) &#45;&gt; et ) )</text>
</g>
<!-- n10349&#45;&gt;n10364 -->
<g id="edge2" class="edge"><title>n10349&#45;&gt;n10364</title>
<path fill="none" stroke="lightgray" d="M427.705,-413.154C482.715,-412.418 612.848,-405.055 706.494,-355 718.472,-348.598 729.368,-338.357 737.921,-328.726"/>
<polygon fill="lightgray" stroke="lightgray" points="740.765,-330.782 744.527,-320.877 735.41,-326.274 740.765,-330.782"/>
<text text-anchor="middle" x="575.994" y="-415.8" font-family="Times New Roman,serif" font-size="14.00" fill="lightgray">wff ch</text>
</g>
<!-- n10350 -->
<g id="node4" class="node"><title>n10350</title>
</g>
<!-- n10349&#45;&gt;n10350 -->
<g id="edge16" class="edge"><title>n10349&#45;&gt;n10350</title>
</g>
<!-- n10350&#45;&gt;n10364 -->
<g id="edge3" class="edge"><title>n10350&#45;&gt;n10364</title>
<path fill="none" stroke="lightgray" d="M427.621,-338.502C480.367,-333.426 603.336,-321.413 706.494,-310 709.312,-309.688 712.219,-309.359 715.147,-309.023"/>
<polygon fill="lightgray" stroke="lightgray" points="715.558,-312.499 725.085,-307.862 714.746,-305.546 715.558,-312.499"/>
<text text-anchor="middle" x="575.994" y="-339.8" font-family="Times New Roman,serif" font-size="14.00" fill="lightgray">wff th</text>
</g>
<!-- n10351 -->
<g id="node5" class="node"><title>n10351</title>
</g>
<!-- n10350&#45;&gt;n10351 -->
<g id="edge17" class="edge"><title>n10350&#45;&gt;n10351</title>
</g>
<!-- n10351&#45;&gt;n10364 -->
<g id="edge4" class="edge"><title>n10351&#45;&gt;n10364</title>
<path fill="none" stroke="lightgray" d="M427.693,-270.414C480.567,-273.448 603.756,-281.431 706.494,-295 709.694,-295.423 713.002,-295.908 716.32,-296.429"/>
<polygon fill="lightgray" stroke="lightgray" points="715.776,-299.886 726.214,-298.074 716.924,-292.981 715.776,-299.886"/>
<text text-anchor="middle" x="575.994" y="-298.8" font-family="Times New Roman,serif" font-size="14.00" fill="lightgray">wff ta</text>
</g>
<!-- n10352 -->
<g id="node6" class="node"><title>n10352</title>
</g>
<!-- n10351&#45;&gt;n10352 -->
<g id="edge18" class="edge"><title>n10351&#45;&gt;n10352</title>
</g>
<!-- n10352&#45;&gt;n10364 -->
<g id="edge5" class="edge"><title>n10352&#45;&gt;n10364</title>
<path fill="none" stroke="lightgray" d="M427.732,-196.454C482.793,-196.394 613.018,-202.024 706.494,-252 718.886,-258.626 730.037,-269.413 738.66,-279.45"/>
<polygon fill="lightgray" stroke="lightgray" points="735.979,-281.7 745.008,-287.244 741.407,-277.28 735.979,-281.7"/>
<text text-anchor="middle" x="575.994" y="-255.8" font-family="Times New Roman,serif" font-size="14.00" fill="lightgray">wff et</text>
</g>
<!-- n10363 -->
<g id="node8" class="node"><title>n10363</title>
<ellipse fill="cyan" stroke="black" cx="400.494" cy="-125" rx="27" ry="18"/>
<text text-anchor="middle" x="400.494" y="-121.3" font-family="Times New Roman,serif" font-size="14.00">imp</text>
</g>
<!-- n10352&#45;&gt;n10363 -->
<g id="edge19" class="edge"><title>n10352&#45;&gt;n10363</title>
</g>
<!-- n10353 -->
<g id="node7" class="node"><title>n10353</title>
</g>
<!-- n10353&#45;&gt;n10363 -->
<g id="edge6" class="edge"><title>n10353&#45;&gt;n10363</title>
<path fill="none" stroke="lightgray" d="M62.7003,-235.088C119.723,-236.315 258.564,-232.852 355.494,-177 366.747,-170.515 376.443,-160.024 383.847,-150.157"/>
<polygon fill="lightgray" stroke="lightgray" points="386.859,-151.958 389.745,-141.764 381.132,-147.934 386.859,-151.958"/>
<text text-anchor="middle" x="222.494" y="-238.8" font-family="Times New Roman,serif" font-size="14.00" fill="lightgray">wff ph</text>
</g>
<!-- n10354 -->
<g id="node9" class="node"><title>n10354</title>
</g>
<!-- n10353&#45;&gt;n10354 -->
<g id="edge11" class="edge"><title>n10353&#45;&gt;n10354</title>
</g>
<!-- n10363&#45;&gt;n10364 -->
<g id="edge10" class="edge"><title>n10363&#45;&gt;n10364</title>
<path fill="none" stroke="black" d="M427.342,-121.728C484.526,-115.978 623.259,-110.41 706.494,-178 736.282,-202.189 748.467,-246.65 753.388,-275.765"/>
<polygon fill="black" stroke="black" points="749.939,-276.366 754.892,-285.732 756.861,-275.322 749.939,-276.366"/>
<text text-anchor="middle" x="575.994" y="-181.8" font-family="Times New Roman,serif" font-size="14.00">|&#45; ( ( ph /\ ps ) &#45;&gt; ( ch &#45;&gt; ( th &#45;&gt; ( ta &#45;&gt; et ) ) ) )</text>
</g>
<!-- n10354&#45;&gt;n10363 -->
<g id="edge7" class="edge"><title>n10354&#45;&gt;n10363</title>
<path fill="none" stroke="lightgray" d="M62.813,-159.808C117.253,-155.154 246.979,-143.671 355.494,-131 358.2,-130.684 360.998,-130.341 363.81,-129.984"/>
<polygon fill="lightgray" stroke="lightgray" points="364.462,-133.429 373.922,-128.657 363.551,-126.488 364.462,-133.429"/>
<text text-anchor="middle" x="222.494" y="-161.8" font-family="Times New Roman,serif" font-size="14.00" fill="lightgray">wff ps</text>
</g>
<!-- n10361 -->
<g id="node10" class="node"><title>n10361</title>
</g>
<!-- n10354&#45;&gt;n10361 -->
<g id="edge12" class="edge"><title>n10354&#45;&gt;n10361</title>
</g>
<!-- n10361&#45;&gt;n10363 -->
<g id="edge8" class="edge"><title>n10361&#45;&gt;n10363</title>
<path fill="none" stroke="lightgray" d="M62.895,-91.0659C117.488,-93.5254 247.485,-100.606 355.494,-116 358.388,-116.413 361.379,-116.897 364.376,-117.424"/>
<polygon fill="lightgray" stroke="lightgray" points="363.978,-120.911 374.455,-119.335 365.282,-114.034 363.978,-120.911"/>
<text text-anchor="middle" x="222.494" y="-119.8" font-family="Times New Roman,serif" font-size="14.00" fill="lightgray">wff ( ch &#45;&gt; ( th &#45;&gt; ( ta &#45;&gt; et ) ) )</text>
</g>
<!-- n10362 -->
<g id="node11" class="node"><title>n10362</title>
<ellipse fill="orange" stroke="black" cx="35.7468" cy="-18" rx="35.9954" ry="18"/>
<text text-anchor="middle" x="35.7468" y="-14.3" font-family="Times New Roman,serif" font-size="14.00">imp5.1</text>
</g>
<!-- n10361&#45;&gt;n10362 -->
<g id="edge13" class="edge"><title>n10361&#45;&gt;n10362</title>
</g>
<!-- n10362&#45;&gt;n10363 -->
<g id="edge9" class="edge"><title>n10362&#45;&gt;n10363</title>
<path fill="none" stroke="black" d="M71.8425,-16.7248C133.422,-16.0303 263.152,-21.5652 355.494,-74 366.505,-80.2524 376.073,-90.3399 383.449,-99.8995"/>
<polygon fill="black" stroke="black" points="380.651,-102.003 389.348,-108.055 386.323,-97.901 380.651,-102.003"/>
<text text-anchor="middle" x="222.494" y="-77.8" font-family="Times New Roman,serif" font-size="14.00">|&#45; ( ph &#45;&gt; ( ps &#45;&gt; ( ch &#45;&gt; ( th &#45;&gt; ( ta &#45;&gt; et ) ) ) ) )</text>
</g>
</g>
</svg>
