<?xml version="1.0" encoding="UTF-8" standalone="no"?>
<!DOCTYPE svg PUBLIC "-//W3C//DTD SVG 1.1//EN"
 "http://www.w3.org/Graphics/SVG/1.1/DTD/svg11.dtd">
<!-- Generated by graphviz version 2.38.0 (20140413.2041)
 -->
<!-- Title: proof_impac Pages: 1 -->
<svg width="833pt" height="367pt"
 viewBox="0.00 0.00 833.18 367.00" xmlns="http://www.w3.org/2000/svg" xmlns:xlink="http://www.w3.org/1999/xlink">
<g id="graph0" class="graph" transform="scale(1 1) rotate(0) translate(4 363)">
<title>proof_impac</title>
<polygon fill="white" stroke="none" points="-4,4 -4,-363 829.182,-363 829.182,4 -4,4"/>
<!-- n10656 -->
<g id="node1" class="node"><title>n10656</title>
</g>
<!-- n10666 -->
<g id="node2" class="node"><title>n10666</title>
<ellipse fill="cyan" stroke="black" cx="537.687" cy="-232" rx="27" ry="18"/>
<text text-anchor="middle" x="537.687" y="-228.3" font-family="Times New Roman,serif" font-size="14.00">imp</text>
</g>
<!-- n10656&#45;&gt;n10666 -->
<g id="edge1" class="edge"><title>n10656&#45;&gt;n10666</title>
<path fill="none" stroke="lightgray" d="M299.299,-338.469C342.253,-333.287 429.887,-318.515 492.687,-280 502.619,-273.909 511.686,-264.942 518.974,-256.403"/>
<polygon fill="lightgray" stroke="lightgray" points="521.831,-258.435 525.386,-248.455 516.383,-254.04 521.831,-258.435"/>
<text text-anchor="middle" x="407.187" y="-337.8" font-family="Times New Roman,serif" font-size="14.00" fill="lightgray">wff ph</text>
</g>
<!-- n10657 -->
<g id="node3" class="node"><title>n10657</title>
</g>
<!-- n10656&#45;&gt;n10657 -->
<g id="edge13" class="edge"><title>n10656&#45;&gt;n10657</title>
</g>
<!-- QED -->
<g id="node10" class="node"><title>QED</title>
</g>
<!-- n10666&#45;&gt;QED -->
<g id="edge12" class="edge"><title>n10666&#45;&gt;QED</title>
<path fill="none" stroke="black" d="M565.145,-232C610.605,-232 703.722,-232 756.397,-232"/>
<polygon fill="black" stroke="black" points="756.679,-235.5 766.679,-232 756.679,-228.5 756.679,-235.5"/>
<text text-anchor="middle" x="665.687" y="-235.8" font-family="Times New Roman,serif" font-size="14.00">|&#45; ( ( ph /\ ps ) &#45;&gt; ( ch /\ ps ) )</text>
</g>
<!-- n10657&#45;&gt;n10666 -->
<g id="edge2" class="edge"><title>n10657&#45;&gt;n10666</title>
<path fill="none" stroke="lightgray" d="M299.206,-265.385C346.378,-258.753 446.835,-244.631 500.737,-237.054"/>
<polygon fill="lightgray" stroke="lightgray" points="501.452,-240.488 510.867,-235.63 500.477,-233.556 501.452,-240.488"/>
<text text-anchor="middle" x="407.187" y="-264.8" font-family="Times New Roman,serif" font-size="14.00" fill="lightgray">wff ps</text>
</g>
<!-- n10660 -->
<g id="node4" class="node"><title>n10660</title>
</g>
<!-- n10657&#45;&gt;n10660 -->
<g id="edge14" class="edge"><title>n10657&#45;&gt;n10660</title>
</g>
<!-- n10660&#45;&gt;n10666 -->
<g id="edge3" class="edge"><title>n10660&#45;&gt;n10666</title>
<path fill="none" stroke="lightgray" d="M299.57,-199.381C340.743,-203.299 423.264,-211.803 492.687,-223 495.574,-223.466 498.559,-223.988 501.552,-224.54"/>
<polygon fill="lightgray" stroke="lightgray" points="501.141,-228.026 511.624,-226.496 502.475,-221.154 501.141,-228.026"/>
<text text-anchor="middle" x="407.187" y="-226.8" font-family="Times New Roman,serif" font-size="14.00" fill="lightgray">wff ( ch /\ ps )</text>
</g>
<!-- n10665 -->
<g id="node6" class="node"><title>n10665</title>
<ellipse fill="cyan" stroke="black" cx="272.49" cy="-125" rx="31.3957" ry="18"/>
<text text-anchor="middle" x="272.49" y="-121.3" font-family="Times New Roman,serif" font-size="14.00">ancrd</text>
</g>
<!-- n10660&#45;&gt;n10665 -->
<g id="edge15" class="edge"><title>n10660&#45;&gt;n10665</title>
</g>
<!-- n10661 -->
<g id="node5" class="node"><title>n10661</title>
</g>
<!-- n10661&#45;&gt;n10665 -->
<g id="edge4" class="edge"><title>n10661&#45;&gt;n10665</title>
<path fill="none" stroke="lightgray" d="M65.7946,-229.182C102.485,-221.359 171.907,-203.507 223.293,-172 233.515,-165.732 243.285,-156.94 251.323,-148.653"/>
<polygon fill="lightgray" stroke="lightgray" points="253.939,-150.979 258.181,-141.271 248.811,-146.215 253.939,-150.979"/>
<text text-anchor="middle" x="160.293" y="-223.8" font-family="Times New Roman,serif" font-size="14.00" fill="lightgray">wff ph</text>
</g>
<!-- n10662 -->
<g id="node7" class="node"><title>n10662</title>
</g>
<!-- n10661&#45;&gt;n10662 -->
<g id="edge9" class="edge"><title>n10661&#45;&gt;n10662</title>
</g>
<!-- n10665&#45;&gt;n10666 -->
<g id="edge8" class="edge"><title>n10665&#45;&gt;n10666</title>
<path fill="none" stroke="black" d="M303.67,-127.241C348.066,-131.719 432.246,-144.796 492.687,-182 503.091,-188.404 512.402,-198.039 519.75,-207.147"/>
<polygon fill="black" stroke="black" points="517.08,-209.418 525.922,-215.255 522.65,-205.178 517.08,-209.418"/>
<text text-anchor="middle" x="407.187" y="-185.8" font-family="Times New Roman,serif" font-size="14.00">|&#45; ( ph &#45;&gt; ( ps &#45;&gt; ( ch /\ ps ) ) )</text>
</g>
<!-- n10662&#45;&gt;n10665 -->
<g id="edge5" class="edge"><title>n10662&#45;&gt;n10665</title>
<path fill="none" stroke="lightgray" d="M66.2328,-157.899C106.479,-151.448 184.861,-138.885 232.26,-131.288"/>
<polygon fill="lightgray" stroke="lightgray" points="232.846,-134.739 242.166,-129.7 231.738,-127.827 232.846,-134.739"/>
<text text-anchor="middle" x="160.293" y="-156.8" font-family="Times New Roman,serif" font-size="14.00" fill="lightgray">wff ps</text>
</g>
<!-- n10663 -->
<g id="node8" class="node"><title>n10663</title>
</g>
<!-- n10662&#45;&gt;n10663 -->
<g id="edge10" class="edge"><title>n10662&#45;&gt;n10663</title>
</g>
<!-- n10663&#45;&gt;n10665 -->
<g id="edge6" class="edge"><title>n10663&#45;&gt;n10665</title>
<path fill="none" stroke="lightgray" d="M66.4105,-93.3107C101.827,-97.943 167.511,-106.826 223.293,-116 226.344,-116.502 229.5,-117.042 232.67,-117.601"/>
<polygon fill="lightgray" stroke="lightgray" points="232.264,-121.084 242.727,-119.419 233.509,-114.196 232.264,-121.084"/>
<text text-anchor="middle" x="160.293" y="-119.8" font-family="Times New Roman,serif" font-size="14.00" fill="lightgray">wff ch</text>
</g>
<!-- n10664 -->
<g id="node9" class="node"><title>n10664</title>
<ellipse fill="orange" stroke="black" cx="39.6465" cy="-18" rx="39.7935" ry="18"/>
<text text-anchor="middle" x="39.6465" y="-14.3" font-family="Times New Roman,serif" font-size="14.00">impac.1</text>
</g>
<!-- n10663&#45;&gt;n10664 -->
<g id="edge11" class="edge"><title>n10663&#45;&gt;n10664</title>
</g>
<!-- n10664&#45;&gt;n10665 -->
<g id="edge7" class="edge"><title>n10664&#45;&gt;n10665</title>
<path fill="none" stroke="black" d="M76.2625,-25.0102C114.58,-33.6306 176.329,-50.7078 223.293,-79 233.102,-84.9091 242.532,-93.1273 250.41,-100.985"/>
<polygon fill="black" stroke="black" points="248.281,-103.823 257.726,-108.623 253.337,-98.9807 248.281,-103.823"/>
<text text-anchor="middle" x="160.293" y="-82.8" font-family="Times New Roman,serif" font-size="14.00">|&#45; ( ph &#45;&gt; ( ps &#45;&gt; ch ) )</text>
</g>
</g>
</svg>
