<?xml version="1.0" encoding="UTF-8" standalone="no"?>
<!DOCTYPE svg PUBLIC "-//W3C//DTD SVG 1.1//EN"
 "http://www.w3.org/Graphics/SVG/1.1/DTD/svg11.dtd">
<!-- Generated by graphviz version 2.38.0 (20140413.2041)
 -->
<!-- Title: proof_impbid21d Pages: 1 -->
<svg width="911pt" height="602pt"
 viewBox="0.00 0.00 911.48 602.00" xmlns="http://www.w3.org/2000/svg" xmlns:xlink="http://www.w3.org/1999/xlink">
<g id="graph0" class="graph" transform="scale(1 1) rotate(0) translate(4 598)">
<title>proof_impbid21d</title>
<polygon fill="white" stroke="none" points="-4,4 -4,-598 907.478,-598 907.478,4 -4,4"/>
<!-- n2402 -->
<g id="node1" class="node"><title>n2402</title>
</g>
<!-- n2421 -->
<g id="node2" class="node"><title>n2421</title>
<ellipse fill="cyan" stroke="black" cx="587.036" cy="-395" rx="40.8928" ry="18"/>
<text text-anchor="middle" x="587.036" y="-391.3" font-family="Times New Roman,serif" font-size="14.00">impbidd</text>
</g>
<!-- n2402&#45;&gt;n2421 -->
<g id="edge1" class="edge"><title>n2402&#45;&gt;n2421</title>
<path fill="none" stroke="lightgray" d="M337.315,-575.516C381.608,-573.362 471.893,-563.043 528.09,-516 556.754,-492.005 572.253,-450.537 579.828,-422.937"/>
<polygon fill="lightgray" stroke="lightgray" points="583.256,-423.66 582.354,-413.103 576.476,-421.918 583.256,-423.66"/>
<text text-anchor="middle" x="441.59" y="-577.8" font-family="Times New Roman,serif" font-size="14.00" fill="lightgray">wff ph</text>
</g>
<!-- n2403 -->
<g id="node3" class="node"><title>n2403</title>
</g>
<!-- n2402&#45;&gt;n2403 -->
<g id="edge20" class="edge"><title>n2402&#45;&gt;n2403</title>
</g>
<!-- QED -->
<g id="node15" class="node"><title>QED</title>
</g>
<!-- n2421&#45;&gt;QED -->
<g id="edge19" class="edge"><title>n2421&#45;&gt;QED</title>
<path fill="none" stroke="black" d="M627.992,-395C682.748,-395 780.46,-395 834.544,-395"/>
<polygon fill="black" stroke="black" points="834.753,-398.5 844.753,-395 834.753,-391.5 834.753,-398.5"/>
<text text-anchor="middle" x="736.483" y="-398.8" font-family="Times New Roman,serif" font-size="14.00">|&#45; ( ph &#45;&gt; ( ps &#45;&gt; ( ch &lt;&#45;&gt; th ) ) )</text>
</g>
<!-- n2403&#45;&gt;n2421 -->
<g id="edge2" class="edge"><title>n2403&#45;&gt;n2421</title>
<path fill="none" stroke="lightgray" d="M336.81,-500.558C378.838,-494.152 463.974,-477.858 528.09,-444 540.592,-437.398 552.795,-427.721 562.753,-418.707"/>
<polygon fill="lightgray" stroke="lightgray" points="565.328,-421.089 570.22,-411.691 560.535,-415.987 565.328,-421.089"/>
<text text-anchor="middle" x="441.59" y="-500.8" font-family="Times New Roman,serif" font-size="14.00" fill="lightgray">wff ps</text>
</g>
<!-- n2404 -->
<g id="node4" class="node"><title>n2404</title>
</g>
<!-- n2403&#45;&gt;n2404 -->
<g id="edge21" class="edge"><title>n2403&#45;&gt;n2404</title>
</g>
<!-- n2404&#45;&gt;n2421 -->
<g id="edge3" class="edge"><title>n2404&#45;&gt;n2421</title>
<path fill="none" stroke="lightgray" d="M336.956,-428.519C382.734,-422.359 478.698,-409.445 537.238,-401.567"/>
<polygon fill="lightgray" stroke="lightgray" points="537.915,-405.007 547.359,-400.205 536.982,-398.07 537.915,-405.007"/>
<text text-anchor="middle" x="441.59" y="-428.8" font-family="Times New Roman,serif" font-size="14.00" fill="lightgray">wff ch</text>
</g>
<!-- n2405 -->
<g id="node5" class="node"><title>n2405</title>
</g>
<!-- n2404&#45;&gt;n2405 -->
<g id="edge22" class="edge"><title>n2404&#45;&gt;n2405</title>
</g>
<!-- n2405&#45;&gt;n2421 -->
<g id="edge4" class="edge"><title>n2405&#45;&gt;n2421</title>
<path fill="none" stroke="lightgray" d="M336.848,-362.792C377.527,-367.268 459.114,-376.514 528.09,-386 531.368,-386.451 534.747,-386.932 538.15,-387.429"/>
<polygon fill="lightgray" stroke="lightgray" points="537.941,-390.937 548.348,-388.952 538.974,-384.013 537.941,-390.937"/>
<text text-anchor="middle" x="441.59" y="-389.8" font-family="Times New Roman,serif" font-size="14.00" fill="lightgray">wff th</text>
</g>
<!-- n2413 -->
<g id="node7" class="node"><title>n2413</title>
<ellipse fill="cyan" stroke="black" cx="310.09" cy="-288" rx="27" ry="18"/>
<text text-anchor="middle" x="310.09" y="-284.3" font-family="Times New Roman,serif" font-size="14.00">a1i</text>
</g>
<!-- n2405&#45;&gt;n2413 -->
<g id="edge23" class="edge"><title>n2405&#45;&gt;n2413</title>
</g>
<!-- n2410 -->
<g id="node6" class="node"><title>n2410</title>
</g>
<!-- n2410&#45;&gt;n2413 -->
<g id="edge5" class="edge"><title>n2410&#45;&gt;n2413</title>
<path fill="none" stroke="lightgray" d="M83.2742,-429.134C125.448,-423.269 210.085,-406.464 265.09,-362 266.204,-361.1 281.764,-334.737 294.068,-313.733"/>
<polygon fill="lightgray" stroke="lightgray" points="297.231,-315.259 299.259,-304.86 291.189,-311.724 297.231,-315.259"/>
<text text-anchor="middle" x="198.09" y="-422.8" font-family="Times New Roman,serif" font-size="14.00" fill="lightgray">wff ( ps &#45;&gt; ( ch &#45;&gt; th ) )</text>
</g>
<!-- n2411 -->
<g id="node8" class="node"><title>n2411</title>
</g>
<!-- n2410&#45;&gt;n2411 -->
<g id="edge9" class="edge"><title>n2410&#45;&gt;n2411</title>
</g>
<!-- n2413&#45;&gt;n2421 -->
<g id="edge8" class="edge"><title>n2413&#45;&gt;n2421</title>
<path fill="none" stroke="black" d="M336.849,-290.932C378.934,-296.539 464.147,-311.353 528.09,-345 541.021,-351.804 553.535,-361.989 563.605,-371.395"/>
<polygon fill="black" stroke="black" points="561.179,-373.918 570.795,-378.366 566.052,-368.892 561.179,-373.918"/>
<text text-anchor="middle" x="441.59" y="-348.8" font-family="Times New Roman,serif" font-size="14.00">|&#45; ( ph &#45;&gt; ( ps &#45;&gt; ( ch &#45;&gt; th ) ) )</text>
</g>
<!-- n2420 -->
<g id="node11" class="node"><title>n2420</title>
<ellipse fill="cyan" stroke="black" cx="310.09" cy="-196" rx="27" ry="18"/>
<text text-anchor="middle" x="310.09" y="-192.3" font-family="Times New Roman,serif" font-size="14.00">a1d</text>
</g>
<!-- n2413&#45;&gt;n2420 -->
<g id="edge24" class="edge"><title>n2413&#45;&gt;n2420</title>
</g>
<!-- n2411&#45;&gt;n2413 -->
<g id="edge6" class="edge"><title>n2411&#45;&gt;n2413</title>
<path fill="none" stroke="lightgray" d="M82.5146,-354.958C121.873,-346.713 200.505,-329.037 265.09,-307 269.369,-305.54 273.815,-303.843 278.163,-302.077"/>
<polygon fill="lightgray" stroke="lightgray" points="279.575,-305.279 287.423,-298.162 276.85,-298.832 279.575,-305.279"/>
<text text-anchor="middle" x="198.09" y="-346.8" font-family="Times New Roman,serif" font-size="14.00" fill="lightgray">wff ph</text>
</g>
<!-- n2412 -->
<g id="node9" class="node"><title>n2412</title>
<ellipse fill="orange" stroke="black" cx="56.545" cy="-288" rx="56.59" ry="18"/>
<text text-anchor="middle" x="56.545" y="-284.3" font-family="Times New Roman,serif" font-size="14.00">impbid21d.1</text>
</g>
<!-- n2411&#45;&gt;n2412 -->
<g id="edge10" class="edge"><title>n2411&#45;&gt;n2412</title>
</g>
<!-- n2412&#45;&gt;n2413 -->
<g id="edge7" class="edge"><title>n2412&#45;&gt;n2413</title>
<path fill="none" stroke="black" d="M113.371,-288C161.971,-288 231.001,-288 272.764,-288"/>
<polygon fill="black" stroke="black" points="273.018,-291.5 283.018,-288 273.018,-284.5 273.018,-291.5"/>
<text text-anchor="middle" x="198.09" y="-291.8" font-family="Times New Roman,serif" font-size="14.00">|&#45; ( ps &#45;&gt; ( ch &#45;&gt; th ) )</text>
</g>
<!-- n2414 -->
<g id="node10" class="node"><title>n2414</title>
</g>
<!-- n2414&#45;&gt;n2420 -->
<g id="edge11" class="edge"><title>n2414&#45;&gt;n2420</title>
<path fill="none" stroke="lightgray" d="M83.5466,-231.248C122.969,-226.905 200.151,-217.736 265.09,-206 268.152,-205.447 271.323,-204.824 274.495,-204.168"/>
<polygon fill="lightgray" stroke="lightgray" points="275.472,-207.537 284.502,-201.996 273.987,-200.697 275.472,-207.537"/>
<text text-anchor="middle" x="198.09" y="-229.8" font-family="Times New Roman,serif" font-size="14.00" fill="lightgray">wff ph</text>
</g>
<!-- n2417 -->
<g id="node12" class="node"><title>n2417</title>
</g>
<!-- n2414&#45;&gt;n2417 -->
<g id="edge16" class="edge"><title>n2414&#45;&gt;n2417</title>
</g>
<!-- n2420&#45;&gt;n2421 -->
<g id="edge15" class="edge"><title>n2420&#45;&gt;n2421</title>
<path fill="none" stroke="black" d="M337.066,-198.908C381.389,-205.133 472.238,-223.551 528.09,-274 555.677,-298.919 571.39,-339.8 579.311,-367.053"/>
<polygon fill="black" stroke="black" points="575.955,-368.05 581.973,-376.769 582.706,-366.2 575.955,-368.05"/>
<text text-anchor="middle" x="441.59" y="-277.8" font-family="Times New Roman,serif" font-size="14.00">|&#45; ( ph &#45;&gt; ( ps &#45;&gt; ( th &#45;&gt; ch ) ) )</text>
</g>
<!-- n2417&#45;&gt;n2420 -->
<g id="edge12" class="edge"><title>n2417&#45;&gt;n2420</title>
<path fill="none" stroke="lightgray" d="M83.0488,-165.447C128.154,-171.544 222.081,-184.239 273.522,-191.192"/>
<polygon fill="lightgray" stroke="lightgray" points="273.14,-194.673 283.519,-192.544 274.078,-187.736 273.14,-194.673"/>
<text text-anchor="middle" x="198.09" y="-193.8" font-family="Times New Roman,serif" font-size="14.00" fill="lightgray">wff ( th &#45;&gt; ch )</text>
</g>
<!-- n2418 -->
<g id="node13" class="node"><title>n2418</title>
</g>
<!-- n2417&#45;&gt;n2418 -->
<g id="edge17" class="edge"><title>n2417&#45;&gt;n2418</title>
</g>
<!-- n2418&#45;&gt;n2420 -->
<g id="edge13" class="edge"><title>n2418&#45;&gt;n2420</title>
<path fill="none" stroke="lightgray" d="M83.0295,-93.9494C123.772,-101.091 205.088,-118.793 265.09,-154 273.785,-159.102 282.115,-166.24 289.141,-173.186"/>
<polygon fill="lightgray" stroke="lightgray" points="286.758,-175.756 296.211,-180.541 291.805,-170.906 286.758,-175.756"/>
<text text-anchor="middle" x="198.09" y="-157.8" font-family="Times New Roman,serif" font-size="14.00" fill="lightgray">wff ps</text>
</g>
<!-- n2419 -->
<g id="node14" class="node"><title>n2419</title>
<ellipse fill="orange" stroke="black" cx="56.545" cy="-18" rx="56.59" ry="18"/>
<text text-anchor="middle" x="56.545" y="-14.3" font-family="Times New Roman,serif" font-size="14.00">impbid21d.2</text>
</g>
<!-- n2418&#45;&gt;n2419 -->
<g id="edge18" class="edge"><title>n2418&#45;&gt;n2419</title>
</g>
<!-- n2419&#45;&gt;n2420 -->
<g id="edge14" class="edge"><title>n2419&#45;&gt;n2420</title>
<path fill="none" stroke="black" d="M111.207,-22.9584C157.34,-29.8811 222.918,-46.4396 265.09,-86 288.192,-107.671 299.422,-143.076 304.703,-167.848"/>
<polygon fill="black" stroke="black" points="301.282,-168.591 306.62,-177.743 308.154,-167.26 301.282,-168.591"/>
<text text-anchor="middle" x="198.09" y="-89.8" font-family="Times New Roman,serif" font-size="14.00">|&#45; ( ph &#45;&gt; ( th &#45;&gt; ch ) )</text>
</g>
</g>
</svg>
