<?xml version="1.0" encoding="UTF-8" standalone="no"?>
<!DOCTYPE svg PUBLIC "-//W3C//DTD SVG 1.1//EN"
 "http://www.w3.org/Graphics/SVG/1.1/DTD/svg11.dtd">
<!-- Generated by graphviz version 2.38.0 (20140413.2041)
 -->
<!-- Title: proof_impr Pages: 1 -->
<svg width="868pt" height="439pt"
 viewBox="0.00 0.00 867.68 439.00" xmlns="http://www.w3.org/2000/svg" xmlns:xlink="http://www.w3.org/1999/xlink">
<g id="graph0" class="graph" transform="scale(1 1) rotate(0) translate(4 435)">
<title>proof_impr</title>
<polygon fill="white" stroke="none" points="-4,4 -4,-435 863.683,-435 863.683,4 -4,4"/>
<!-- n10633 -->
<g id="node1" class="node"><title>n10633</title>
</g>
<!-- n10644 -->
<g id="node2" class="node"><title>n10644</title>
<ellipse fill="cyan" stroke="black" cx="569.041" cy="-269" rx="33.2948" ry="18"/>
<text text-anchor="middle" x="569.041" y="-265.3" font-family="Times New Roman,serif" font-size="14.00">imp32</text>
</g>
<!-- n10633&#45;&gt;n10644 -->
<g id="edge1" class="edge"><title>n10633&#45;&gt;n10644</title>
<path fill="none" stroke="lightgray" d="M326.957,-411.406C370.613,-407.532 459.472,-394.367 517.894,-350 536.009,-336.243 549.133,-313.889 557.401,-296.146"/>
<polygon fill="lightgray" stroke="lightgray" points="560.669,-297.41 561.496,-286.847 554.263,-294.589 560.669,-297.41"/>
<text text-anchor="middle" x="431.394" y="-412.8" font-family="Times New Roman,serif" font-size="14.00" fill="lightgray">wff ph</text>
</g>
<!-- n10634 -->
<g id="node3" class="node"><title>n10634</title>
</g>
<!-- n10633&#45;&gt;n10634 -->
<g id="edge14" class="edge"><title>n10633&#45;&gt;n10634</title>
</g>
<!-- QED -->
<g id="node11" class="node"><title>QED</title>
</g>
<!-- n10644&#45;&gt;QED -->
<g id="edge13" class="edge"><title>n10644&#45;&gt;QED</title>
<path fill="none" stroke="black" d="M602.369,-269C650.17,-269 739.554,-269 790.761,-269"/>
<polygon fill="black" stroke="black" points="791.08,-272.5 801.08,-269 791.08,-265.5 791.08,-272.5"/>
<text text-anchor="middle" x="701.688" y="-272.8" font-family="Times New Roman,serif" font-size="14.00">|&#45; ( ( ph /\ ( ps /\ ch ) ) &#45;&gt; th )</text>
</g>
<!-- n10634&#45;&gt;n10644 -->
<g id="edge2" class="edge"><title>n10634&#45;&gt;n10644</title>
<path fill="none" stroke="lightgray" d="M325.898,-335.937C366.561,-327.472 449.372,-309.261 517.894,-288 522.593,-286.542 527.488,-284.876 532.299,-283.151"/>
<polygon fill="lightgray" stroke="lightgray" points="533.803,-286.327 541.966,-279.573 531.373,-279.762 533.803,-286.327"/>
<text text-anchor="middle" x="431.394" y="-334.8" font-family="Times New Roman,serif" font-size="14.00" fill="lightgray">wff ps</text>
</g>
<!-- n10635 -->
<g id="node4" class="node"><title>n10635</title>
</g>
<!-- n10634&#45;&gt;n10635 -->
<g id="edge15" class="edge"><title>n10634&#45;&gt;n10635</title>
</g>
<!-- n10635&#45;&gt;n10644 -->
<g id="edge3" class="edge"><title>n10635&#45;&gt;n10644</title>
<path fill="none" stroke="lightgray" d="M326.995,-269C373.125,-269 469.458,-269 525.367,-269"/>
<polygon fill="lightgray" stroke="lightgray" points="525.648,-272.5 535.648,-269 525.648,-265.5 525.648,-272.5"/>
<text text-anchor="middle" x="431.394" y="-272.8" font-family="Times New Roman,serif" font-size="14.00" fill="lightgray">wff ch</text>
</g>
<!-- n10636 -->
<g id="node5" class="node"><title>n10636</title>
</g>
<!-- n10635&#45;&gt;n10636 -->
<g id="edge16" class="edge"><title>n10635&#45;&gt;n10636</title>
</g>
<!-- n10636&#45;&gt;n10644 -->
<g id="edge4" class="edge"><title>n10636&#45;&gt;n10644</title>
<path fill="none" stroke="lightgray" d="M325.898,-202.063C366.561,-210.528 449.372,-228.739 517.894,-250 522.593,-251.458 527.488,-253.124 532.299,-254.849"/>
<polygon fill="lightgray" stroke="lightgray" points="531.373,-258.238 541.966,-258.427 533.803,-251.673 531.373,-258.238"/>
<text text-anchor="middle" x="431.394" y="-253.8" font-family="Times New Roman,serif" font-size="14.00" fill="lightgray">wff th</text>
</g>
<!-- n10643 -->
<g id="node7" class="node"><title>n10643</title>
<ellipse fill="cyan" stroke="black" cx="299.894" cy="-125" rx="27" ry="18"/>
<text text-anchor="middle" x="299.894" y="-121.3" font-family="Times New Roman,serif" font-size="14.00">ex</text>
</g>
<!-- n10636&#45;&gt;n10643 -->
<g id="edge17" class="edge"><title>n10636&#45;&gt;n10643</title>
</g>
<!-- n10637 -->
<g id="node6" class="node"><title>n10637</title>
</g>
<!-- n10637&#45;&gt;n10643 -->
<g id="edge5" class="edge"><title>n10637&#45;&gt;n10643</title>
<path fill="none" stroke="lightgray" d="M61.3273,-231.689C104.391,-226.852 192.211,-212.69 254.894,-174 265.173,-167.655 274.463,-158.201 281.828,-149.285"/>
<polygon fill="lightgray" stroke="lightgray" points="284.627,-151.388 288.025,-141.353 279.11,-147.078 284.627,-151.388"/>
<text text-anchor="middle" x="170.894" y="-231.8" font-family="Times New Roman,serif" font-size="14.00" fill="lightgray">wff ph</text>
</g>
<!-- n10638 -->
<g id="node8" class="node"><title>n10638</title>
</g>
<!-- n10637&#45;&gt;n10638 -->
<g id="edge10" class="edge"><title>n10637&#45;&gt;n10638</title>
</g>
<!-- n10643&#45;&gt;n10644 -->
<g id="edge9" class="edge"><title>n10643&#45;&gt;n10644</title>
<path fill="none" stroke="black" d="M326.978,-126.419C370.666,-130.011 459.571,-142.652 517.894,-187 536.275,-200.976 549.436,-223.801 557.651,-241.826"/>
<polygon fill="black" stroke="black" points="554.541,-243.455 561.707,-251.259 560.972,-240.689 554.541,-243.455"/>
<text text-anchor="middle" x="431.394" y="-190.8" font-family="Times New Roman,serif" font-size="14.00">|&#45; ( ph &#45;&gt; ( ps &#45;&gt; ( ch &#45;&gt; th ) ) )</text>
</g>
<!-- n10638&#45;&gt;n10643 -->
<g id="edge6" class="edge"><title>n10638&#45;&gt;n10643</title>
<path fill="none" stroke="lightgray" d="M61.187,-158.385C108.404,-151.753 208.957,-137.631 262.91,-130.054"/>
<polygon fill="lightgray" stroke="lightgray" points="263.633,-133.487 273.049,-128.63 262.66,-126.555 263.633,-133.487"/>
<text text-anchor="middle" x="170.894" y="-158.8" font-family="Times New Roman,serif" font-size="14.00" fill="lightgray">wff ps</text>
</g>
<!-- n10641 -->
<g id="node9" class="node"><title>n10641</title>
</g>
<!-- n10638&#45;&gt;n10641 -->
<g id="edge11" class="edge"><title>n10638&#45;&gt;n10641</title>
</g>
<!-- n10641&#45;&gt;n10643 -->
<g id="edge7" class="edge"><title>n10641&#45;&gt;n10643</title>
<path fill="none" stroke="lightgray" d="M61.2204,-92.3468C102.326,-96.2482 185.202,-104.764 254.894,-116 257.781,-116.465 260.766,-116.988 263.758,-117.54"/>
<polygon fill="lightgray" stroke="lightgray" points="263.347,-121.025 273.831,-119.495 264.681,-114.154 263.347,-121.025"/>
<text text-anchor="middle" x="170.894" y="-119.8" font-family="Times New Roman,serif" font-size="14.00" fill="lightgray">wff ( ch &#45;&gt; th )</text>
</g>
<!-- n10642 -->
<g id="node10" class="node"><title>n10642</title>
<ellipse fill="orange" stroke="black" cx="34.4469" cy="-18" rx="34.394" ry="18"/>
<text text-anchor="middle" x="34.4469" y="-14.3" font-family="Times New Roman,serif" font-size="14.00">impr.1</text>
</g>
<!-- n10641&#45;&gt;n10642 -->
<g id="edge12" class="edge"><title>n10641&#45;&gt;n10642</title>
</g>
<!-- n10642&#45;&gt;n10643 -->
<g id="edge8" class="edge"><title>n10642&#45;&gt;n10643</title>
<path fill="none" stroke="black" d="M68.5732,-21.079C113.615,-26.5065 195.377,-40.8572 254.894,-77 264.852,-83.0475 273.924,-92.0054 281.209,-100.55"/>
<polygon fill="black" stroke="black" points="278.618,-102.914 287.616,-108.507 284.07,-98.5235 278.618,-102.914"/>
<text text-anchor="middle" x="170.894" y="-80.8" font-family="Times New Roman,serif" font-size="14.00">|&#45; ( ( ph /\ ps ) &#45;&gt; ( ch &#45;&gt; th ) )</text>
</g>
</g>
</svg>
