<?xml version="1.0" encoding="UTF-8" standalone="no"?>
<!DOCTYPE svg PUBLIC "-//W3C//DTD SVG 1.1//EN"
 "http://www.w3.org/Graphics/SVG/1.1/DTD/svg11.dtd">
<!-- Generated by graphviz version 2.38.0 (20140413.2041)
 -->
<!-- Title: proof_intnand Pages: 1 -->
<svg width="661pt" height="367pt"
 viewBox="0.00 0.00 660.89 367.00" xmlns="http://www.w3.org/2000/svg" xmlns:xlink="http://www.w3.org/1999/xlink">
<g id="graph0" class="graph" transform="scale(1 1) rotate(0) translate(4 363)">
<title>proof_intnand</title>
<polygon fill="white" stroke="none" points="-4,4 -4,-363 656.887,-363 656.887,4 -4,4"/>
<!-- n16254 -->
<g id="node1" class="node"><title>n16254</title>
</g>
<!-- n16263 -->
<g id="node2" class="node"><title>n16263</title>
<ellipse fill="cyan" stroke="black" cx="398.392" cy="-197" rx="27" ry="18"/>
<text text-anchor="middle" x="398.392" y="-193.3" font-family="Times New Roman,serif" font-size="14.00">nsyl</text>
</g>
<!-- n16254&#45;&gt;n16263 -->
<g id="edge1" class="edge"><title>n16254&#45;&gt;n16263</title>
<path fill="none" stroke="lightgray" d="M197.394,-336.509C235.035,-328.707 306.526,-309.548 353.392,-270 367.957,-257.709 379.004,-239.309 386.385,-224.058"/>
<polygon fill="lightgray" stroke="lightgray" points="389.74,-225.136 390.707,-214.586 383.372,-222.231 389.74,-225.136"/>
<text text-anchor="middle" x="293.392" y="-330.8" font-family="Times New Roman,serif" font-size="14.00" fill="lightgray">wff ph</text>
</g>
<!-- n16255 -->
<g id="node3" class="node"><title>n16255</title>
</g>
<!-- n16254&#45;&gt;n16255 -->
<g id="edge10" class="edge"><title>n16254&#45;&gt;n16255</title>
</g>
<!-- QED -->
<g id="node9" class="node"><title>QED</title>
</g>
<!-- n16263&#45;&gt;QED -->
<g id="edge9" class="edge"><title>n16263&#45;&gt;QED</title>
<path fill="none" stroke="black" d="M425.438,-197C464.6,-197 538.884,-197 584.259,-197"/>
<polygon fill="black" stroke="black" points="584.306,-200.5 594.306,-197 584.306,-193.5 584.306,-200.5"/>
<text text-anchor="middle" x="509.892" y="-200.8" font-family="Times New Roman,serif" font-size="14.00">|&#45; ( ph &#45;&gt; &#45;. ( ch /\ ps ) )</text>
</g>
<!-- n16255&#45;&gt;n16263 -->
<g id="edge2" class="edge"><title>n16255&#45;&gt;n16263</title>
<path fill="none" stroke="lightgray" d="M196.829,-262.826C231.976,-253.784 298.357,-235.846 353.392,-216 357.646,-214.466 362.076,-212.727 366.417,-210.94"/>
<polygon fill="lightgray" stroke="lightgray" points="367.836,-214.139 375.672,-207.009 365.099,-207.697 367.836,-214.139"/>
<text text-anchor="middle" x="293.392" y="-254.8" font-family="Times New Roman,serif" font-size="14.00" fill="lightgray">wff ps</text>
</g>
<!-- n16258 -->
<g id="node4" class="node"><title>n16258</title>
</g>
<!-- n16255&#45;&gt;n16258 -->
<g id="edge11" class="edge"><title>n16255&#45;&gt;n16258</title>
</g>
<!-- n16258&#45;&gt;n16263 -->
<g id="edge3" class="edge"><title>n16258&#45;&gt;n16263</title>
<path fill="none" stroke="lightgray" d="M198.47,-197C238.727,-197 315.776,-197 361.263,-197"/>
<polygon fill="lightgray" stroke="lightgray" points="361.286,-200.5 371.286,-197 361.286,-193.5 361.286,-200.5"/>
<text text-anchor="middle" x="293.392" y="-200.8" font-family="Times New Roman,serif" font-size="14.00" fill="lightgray">wff ( ch /\ ps )</text>
</g>
<!-- n16259 -->
<g id="node5" class="node"><title>n16259</title>
<ellipse fill="orange" stroke="black" cx="171.196" cy="-125" rx="44.393" ry="18"/>
<text text-anchor="middle" x="171.196" y="-121.3" font-family="Times New Roman,serif" font-size="14.00">intnand.1</text>
</g>
<!-- n16258&#45;&gt;n16259 -->
<g id="edge12" class="edge"><title>n16258&#45;&gt;n16259</title>
</g>
<!-- n16259&#45;&gt;n16263 -->
<g id="edge4" class="edge"><title>n16259&#45;&gt;n16263</title>
<path fill="none" stroke="black" d="M209.062,-134.356C245.979,-144.056 304.215,-160.266 353.392,-178 357.646,-179.534 362.076,-181.273 366.417,-183.06"/>
<polygon fill="black" stroke="black" points="365.099,-186.303 375.672,-186.991 367.836,-179.861 365.099,-186.303"/>
<text text-anchor="middle" x="293.392" y="-181.8" font-family="Times New Roman,serif" font-size="14.00">|&#45; ( ph &#45;&gt; &#45;. ps )</text>
</g>
<!-- n16262 -->
<g id="node7" class="node"><title>n16262</title>
<ellipse fill="cyan" stroke="black" cx="171.196" cy="-53" rx="31.3957" ry="18"/>
<text text-anchor="middle" x="171.196" y="-49.3" font-family="Times New Roman,serif" font-size="14.00">simpr</text>
</g>
<!-- n16259&#45;&gt;n16262 -->
<g id="edge13" class="edge"><title>n16259&#45;&gt;n16262</title>
</g>
<!-- n16260 -->
<g id="node6" class="node"><title>n16260</title>
</g>
<!-- n16260&#45;&gt;n16262 -->
<g id="edge5" class="edge"><title>n16260&#45;&gt;n16262</title>
<path fill="none" stroke="lightgray" d="M52.4444,-83.6395C74.3586,-77.9373 106.86,-69.4803 132.168,-62.895"/>
<polygon fill="lightgray" stroke="lightgray" points="133.377,-66.1972 142.173,-60.2917 131.614,-59.4228 133.377,-66.1972"/>
<text text-anchor="middle" x="90.5" y="-82.8" font-family="Times New Roman,serif" font-size="14.00" fill="lightgray">wff ch</text>
</g>
<!-- n16261 -->
<g id="node8" class="node"><title>n16261</title>
</g>
<!-- n16260&#45;&gt;n16261 -->
<g id="edge8" class="edge"><title>n16260&#45;&gt;n16261</title>
</g>
<!-- n16262&#45;&gt;n16263 -->
<g id="edge7" class="edge"><title>n16262&#45;&gt;n16263</title>
<path fill="none" stroke="black" d="M201.236,-58.3027C239.735,-66.5823 308.075,-85.7598 353.392,-124 367.957,-136.291 379.004,-154.691 386.385,-169.942"/>
<polygon fill="black" stroke="black" points="383.372,-171.769 390.707,-179.414 389.74,-168.864 383.372,-171.769"/>
<text text-anchor="middle" x="293.392" y="-127.8" font-family="Times New Roman,serif" font-size="14.00">|&#45; ( ( ch /\ ps ) &#45;&gt; ps )</text>
</g>
<!-- n16261&#45;&gt;n16262 -->
<g id="edge6" class="edge"><title>n16261&#45;&gt;n16262</title>
<path fill="none" stroke="lightgray" d="M52.7687,-24.0965C74.7283,-29.5017 107.132,-37.4775 132.34,-43.6823"/>
<polygon fill="lightgray" stroke="lightgray" points="131.757,-47.1431 142.304,-46.1347 133.431,-40.346 131.757,-47.1431"/>
<text text-anchor="middle" x="90.5" y="-41.8" font-family="Times New Roman,serif" font-size="14.00" fill="lightgray">wff ps</text>
</g>
</g>
</svg>
