<?xml version="1.0" encoding="UTF-8" standalone="no"?>
<!DOCTYPE svg PUBLIC "-//W3C//DTD SVG 1.1//EN"
 "http://www.w3.org/Graphics/SVG/1.1/DTD/svg11.dtd">
<!-- Generated by graphviz version 2.38.0 (20140413.2041)
 -->
<!-- Title: proof_jca Pages: 1 -->
<svg width="678pt" height="511pt"
 viewBox="0.00 0.00 678.09 511.00" xmlns="http://www.w3.org/2000/svg" xmlns:xlink="http://www.w3.org/1999/xlink">
<g id="graph0" class="graph" transform="scale(1 1) rotate(0) translate(4 507)">
<title>proof_jca</title>
<polygon fill="white" stroke="none" points="-4,4 -4,-507 674.089,-507 674.089,4 -4,4"/>
<!-- n9253 -->
<g id="node1" class="node"><title>n9253</title>
</g>
<!-- n9264 -->
<g id="node2" class="node"><title>n9264</title>
<ellipse fill="cyan" stroke="black" cx="427.594" cy="-269" rx="27" ry="18"/>
<text text-anchor="middle" x="427.594" y="-265.3" font-family="Times New Roman,serif" font-size="14.00">sylc</text>
</g>
<!-- n9253&#45;&gt;n9264 -->
<g id="edge1" class="edge"><title>n9253&#45;&gt;n9264</title>
<path fill="none" stroke="lightgray" d="M187.924,-485.963C233.816,-486.168 329.097,-479.715 382.594,-427 417.701,-392.406 425.449,-332.36 426.785,-297.095"/>
<polygon fill="lightgray" stroke="lightgray" points="430.286,-297.08 427.017,-287.003 423.288,-296.92 430.286,-297.08"/>
<text text-anchor="middle" x="297.594" y="-488.8" font-family="Times New Roman,serif" font-size="14.00" fill="lightgray">wff ph</text>
</g>
<!-- n9254 -->
<g id="node3" class="node"><title>n9254</title>
</g>
<!-- n9253&#45;&gt;n9254 -->
<g id="edge12" class="edge"><title>n9253&#45;&gt;n9254</title>
</g>
<!-- QED -->
<g id="node11" class="node"><title>QED</title>
</g>
<!-- n9264&#45;&gt;QED -->
<g id="edge11" class="edge"><title>n9264&#45;&gt;QED</title>
<path fill="none" stroke="black" d="M454.922,-269C491.73,-269 558.815,-269 601.266,-269"/>
<polygon fill="black" stroke="black" points="601.495,-272.5 611.495,-269 601.495,-265.5 601.495,-272.5"/>
<text text-anchor="middle" x="533.094" y="-272.8" font-family="Times New Roman,serif" font-size="14.00">|&#45; ( ph &#45;&gt; ( ps /\ ch ) )</text>
</g>
<!-- n9254&#45;&gt;n9264 -->
<g id="edge2" class="edge"><title>n9254&#45;&gt;n9264</title>
<path fill="none" stroke="lightgray" d="M187.858,-411.777C232.398,-408.426 324.018,-395.89 382.594,-349 399.455,-335.503 410.833,-313.71 417.787,-296.276"/>
<polygon fill="lightgray" stroke="lightgray" points="421.176,-297.203 421.378,-286.61 414.614,-294.765 421.176,-297.203"/>
<text text-anchor="middle" x="297.594" y="-411.8" font-family="Times New Roman,serif" font-size="14.00" fill="lightgray">wff ps</text>
</g>
<!-- n9255 -->
<g id="node4" class="node"><title>n9255</title>
</g>
<!-- n9254&#45;&gt;n9255 -->
<g id="edge13" class="edge"><title>n9254&#45;&gt;n9255</title>
</g>
<!-- n9255&#45;&gt;n9264 -->
<g id="edge3" class="edge"><title>n9255&#45;&gt;n9264</title>
<path fill="none" stroke="lightgray" d="M187.025,-336.414C228.451,-328.559 313.216,-311.115 382.594,-288 386.884,-286.571 391.335,-284.892 395.686,-283.134"/>
<polygon fill="lightgray" stroke="lightgray" points="397.096,-286.338 404.949,-279.226 394.375,-279.889 397.096,-286.338"/>
<text text-anchor="middle" x="297.594" y="-333.8" font-family="Times New Roman,serif" font-size="14.00" fill="lightgray">wff ch</text>
</g>
<!-- n9258 -->
<g id="node5" class="node"><title>n9258</title>
</g>
<!-- n9255&#45;&gt;n9258 -->
<g id="edge14" class="edge"><title>n9255&#45;&gt;n9258</title>
</g>
<!-- n9258&#45;&gt;n9264 -->
<g id="edge4" class="edge"><title>n9258&#45;&gt;n9264</title>
<path fill="none" stroke="lightgray" d="M188.155,-269C235.739,-269 336.06,-269 390.167,-269"/>
<polygon fill="lightgray" stroke="lightgray" points="390.343,-272.5 400.343,-269 390.343,-265.5 390.343,-272.5"/>
<text text-anchor="middle" x="297.594" y="-272.8" font-family="Times New Roman,serif" font-size="14.00" fill="lightgray">wff ( ps /\ ch )</text>
</g>
<!-- n9259 -->
<g id="node6" class="node"><title>n9259</title>
<ellipse fill="orange" stroke="black" cx="160.797" cy="-197" rx="27.8951" ry="18"/>
<text text-anchor="middle" x="160.797" y="-193.3" font-family="Times New Roman,serif" font-size="14.00">jca.1</text>
</g>
<!-- n9258&#45;&gt;n9259 -->
<g id="edge15" class="edge"><title>n9258&#45;&gt;n9259</title>
</g>
<!-- n9259&#45;&gt;n9264 -->
<g id="edge5" class="edge"><title>n9259&#45;&gt;n9264</title>
<path fill="none" stroke="black" d="M188.038,-201.778C229.82,-209.723 313.777,-227.072 382.594,-250 386.884,-251.429 391.335,-253.108 395.686,-254.866"/>
<polygon fill="black" stroke="black" points="394.375,-258.111 404.949,-258.774 397.096,-251.662 394.375,-258.111"/>
<text text-anchor="middle" x="297.594" y="-253.8" font-family="Times New Roman,serif" font-size="14.00">|&#45; ( ph &#45;&gt; ps )</text>
</g>
<!-- n9260 -->
<g id="node7" class="node"><title>n9260</title>
<ellipse fill="orange" stroke="black" cx="160.797" cy="-125" rx="27.8951" ry="18"/>
<text text-anchor="middle" x="160.797" y="-121.3" font-family="Times New Roman,serif" font-size="14.00">jca.2</text>
</g>
<!-- n9259&#45;&gt;n9260 -->
<g id="edge16" class="edge"><title>n9259&#45;&gt;n9260</title>
</g>
<!-- n9260&#45;&gt;n9264 -->
<g id="edge6" class="edge"><title>n9260&#45;&gt;n9264</title>
<path fill="none" stroke="black" d="M188.933,-126.305C233.858,-129.776 324.485,-142.484 382.594,-189 399.455,-202.497 410.833,-224.29 417.787,-241.724"/>
<polygon fill="black" stroke="black" points="414.614,-243.235 421.378,-251.39 421.176,-240.797 414.614,-243.235"/>
<text text-anchor="middle" x="297.594" y="-192.8" font-family="Times New Roman,serif" font-size="14.00">|&#45; ( ph &#45;&gt; ch )</text>
</g>
<!-- n9263 -->
<g id="node9" class="node"><title>n9263</title>
<ellipse fill="cyan" stroke="black" cx="160.797" cy="-53" rx="33.5952" ry="18"/>
<text text-anchor="middle" x="160.797" y="-49.3" font-family="Times New Roman,serif" font-size="14.00">pm3.2</text>
</g>
<!-- n9260&#45;&gt;n9263 -->
<g id="edge17" class="edge"><title>n9260&#45;&gt;n9263</title>
</g>
<!-- n9261 -->
<g id="node8" class="node"><title>n9261</title>
</g>
<!-- n9261&#45;&gt;n9263 -->
<g id="edge7" class="edge"><title>n9261&#45;&gt;n9263</title>
<path fill="none" stroke="lightgray" d="M52.1736,-83.2136C71.249,-77.8585 98.2484,-70.2788 120.432,-64.0512"/>
<polygon fill="lightgray" stroke="lightgray" points="121.558,-67.3704 130.24,-61.2978 119.666,-60.631 121.558,-67.3704"/>
<text text-anchor="middle" x="90.5" y="-80.8" font-family="Times New Roman,serif" font-size="14.00" fill="lightgray">wff ps</text>
</g>
<!-- n9262 -->
<g id="node10" class="node"><title>n9262</title>
</g>
<!-- n9261&#45;&gt;n9262 -->
<g id="edge10" class="edge"><title>n9261&#45;&gt;n9262</title>
</g>
<!-- n9263&#45;&gt;n9264 -->
<g id="edge9" class="edge"><title>n9263&#45;&gt;n9264</title>
<path fill="none" stroke="black" d="M194.787,-52.0567C242.772,-52.5493 331.638,-60.7886 382.594,-111 417.701,-145.594 425.449,-205.64 426.785,-240.905"/>
<polygon fill="black" stroke="black" points="423.288,-241.08 427.017,-250.997 430.286,-240.92 423.288,-241.08"/>
<text text-anchor="middle" x="297.594" y="-114.8" font-family="Times New Roman,serif" font-size="14.00">|&#45; ( ps &#45;&gt; ( ch &#45;&gt; ( ps /\ ch ) ) )</text>
</g>
<!-- n9262&#45;&gt;n9263 -->
<g id="edge8" class="edge"><title>n9262&#45;&gt;n9263</title>
<path fill="none" stroke="lightgray" d="M52.4811,-24.5012C71.4605,-29.5414 98.1482,-36.6285 120.161,-42.4743"/>
<polygon fill="lightgray" stroke="lightgray" points="119.338,-45.8771 129.902,-45.061 121.135,-39.1116 119.338,-45.8771"/>
<text text-anchor="middle" x="90.5" y="-42.8" font-family="Times New Roman,serif" font-size="14.00" fill="lightgray">wff ch</text>
</g>
</g>
</svg>
