<?xml version="1.0" encoding="UTF-8" standalone="no"?>
<!DOCTYPE svg PUBLIC "-//W3C//DTD SVG 1.1//EN"
 "http://www.w3.org/Graphics/SVG/1.1/DTD/svg11.dtd">
<!-- Generated by graphviz version 2.38.0 (20140413.2041)
 -->
<!-- Title: proof_jcad Pages: 1 -->
<svg width="725pt" height="583pt"
 viewBox="0.00 0.00 724.88 583.00" xmlns="http://www.w3.org/2000/svg" xmlns:xlink="http://www.w3.org/1999/xlink">
<g id="graph0" class="graph" transform="scale(1 1) rotate(0) translate(4 579)">
<title>proof_jcad</title>
<polygon fill="white" stroke="none" points="-4,4 -4,-579 720.884,-579 720.884,4 -4,4"/>
<!-- n9265 -->
<g id="node1" class="node"><title>n9265</title>
</g>
<!-- n9277 -->
<g id="node2" class="node"><title>n9277</title>
<ellipse fill="cyan" stroke="black" cx="424.491" cy="-304" rx="29.795" ry="18"/>
<text text-anchor="middle" x="424.491" y="-300.3" font-family="Times New Roman,serif" font-size="14.00">syl6c</text>
</g>
<!-- n9265&#45;&gt;n9277 -->
<g id="edge1" class="edge"><title>n9265&#45;&gt;n9277</title>
<path fill="none" stroke="lightgray" d="M187.759,-558.337C232.834,-559.149 325.617,-553.908 376.594,-502 400.066,-478.099 414.499,-380.939 420.404,-332.186"/>
<polygon fill="lightgray" stroke="lightgray" points="423.909,-332.347 421.598,-322.007 416.957,-331.532 423.909,-332.347"/>
<text text-anchor="middle" x="294.594" y="-561.8" font-family="Times New Roman,serif" font-size="14.00" fill="lightgray">wff ph</text>
</g>
<!-- n9266 -->
<g id="node3" class="node"><title>n9266</title>
</g>
<!-- n9265&#45;&gt;n9266 -->
<g id="edge13" class="edge"><title>n9265&#45;&gt;n9266</title>
</g>
<!-- QED -->
<g id="node12" class="node"><title>QED</title>
</g>
<!-- n9277&#45;&gt;QED -->
<g id="edge12" class="edge"><title>n9277&#45;&gt;QED</title>
<path fill="none" stroke="black" d="M454.436,-304C501.647,-304 595.245,-304 648.051,-304"/>
<polygon fill="black" stroke="black" points="648.355,-307.5 658.355,-304 648.355,-300.5 648.355,-307.5"/>
<text text-anchor="middle" x="556.389" y="-307.8" font-family="Times New Roman,serif" font-size="14.00">|&#45; ( ph &#45;&gt; ( ps &#45;&gt; ( ch /\ th ) ) )</text>
</g>
<!-- n9266&#45;&gt;n9277 -->
<g id="edge2" class="edge"><title>n9266&#45;&gt;n9277</title>
<path fill="none" stroke="lightgray" d="M187.8,-484.901C232.11,-483.339 322.679,-473.905 376.594,-425 403.258,-400.813 414.907,-359.679 419.897,-332.177"/>
<polygon fill="lightgray" stroke="lightgray" points="423.399,-332.449 421.551,-322.017 416.49,-331.324 423.399,-332.449"/>
<text text-anchor="middle" x="294.594" y="-486.8" font-family="Times New Roman,serif" font-size="14.00" fill="lightgray">wff ps</text>
</g>
<!-- n9267 -->
<g id="node4" class="node"><title>n9267</title>
</g>
<!-- n9266&#45;&gt;n9267 -->
<g id="edge14" class="edge"><title>n9266&#45;&gt;n9267</title>
</g>
<!-- n9267&#45;&gt;n9277 -->
<g id="edge3" class="edge"><title>n9267&#45;&gt;n9277</title>
<path fill="none" stroke="lightgray" d="M187.636,-410.037C229.778,-404.285 314.8,-388.778 376.594,-352 387.018,-345.796 396.721,-336.697 404.565,-328.086"/>
<polygon fill="lightgray" stroke="lightgray" points="407.311,-330.261 411.213,-320.411 402.02,-325.678 407.311,-330.261"/>
<text text-anchor="middle" x="294.594" y="-409.8" font-family="Times New Roman,serif" font-size="14.00" fill="lightgray">wff ch</text>
</g>
<!-- n9268 -->
<g id="node5" class="node"><title>n9268</title>
</g>
<!-- n9267&#45;&gt;n9268 -->
<g id="edge15" class="edge"><title>n9267&#45;&gt;n9268</title>
</g>
<!-- n9268&#45;&gt;n9277 -->
<g id="edge4" class="edge"><title>n9268&#45;&gt;n9277</title>
<path fill="none" stroke="lightgray" d="M187.366,-337.385C233.521,-330.859 330.98,-317.08 385.147,-309.421"/>
<polygon fill="lightgray" stroke="lightgray" points="385.644,-312.886 395.056,-308.02 384.664,-305.955 385.644,-312.886"/>
<text text-anchor="middle" x="294.594" y="-336.8" font-family="Times New Roman,serif" font-size="14.00" fill="lightgray">wff th</text>
</g>
<!-- n9271 -->
<g id="node6" class="node"><title>n9271</title>
</g>
<!-- n9268&#45;&gt;n9271 -->
<g id="edge16" class="edge"><title>n9268&#45;&gt;n9271</title>
</g>
<!-- n9271&#45;&gt;n9277 -->
<g id="edge5" class="edge"><title>n9271&#45;&gt;n9277</title>
<path fill="none" stroke="lightgray" d="M187.666,-271.547C228.099,-275.66 308.678,-284.386 376.594,-295 379.609,-295.471 382.727,-295.993 385.856,-296.541"/>
<polygon fill="lightgray" stroke="lightgray" points="385.307,-299.999 395.773,-298.352 386.564,-293.113 385.307,-299.999"/>
<text text-anchor="middle" x="294.594" y="-298.8" font-family="Times New Roman,serif" font-size="14.00" fill="lightgray">wff ( ch /\ th )</text>
</g>
<!-- n9272 -->
<g id="node7" class="node"><title>n9272</title>
<ellipse fill="orange" stroke="black" cx="160.797" cy="-197" rx="32.4942" ry="18"/>
<text text-anchor="middle" x="160.797" y="-193.3" font-family="Times New Roman,serif" font-size="14.00">jcad.1</text>
</g>
<!-- n9271&#45;&gt;n9272 -->
<g id="edge17" class="edge"><title>n9271&#45;&gt;n9272</title>
</g>
<!-- n9272&#45;&gt;n9277 -->
<g id="edge6" class="edge"><title>n9272&#45;&gt;n9277</title>
<path fill="none" stroke="black" d="M192.951,-200.36C236.61,-206.178 317.29,-221.05 376.594,-256 387.045,-262.159 396.753,-271.249 404.593,-279.866"/>
<polygon fill="black" stroke="black" points="402.048,-282.274 411.236,-287.55 407.344,-277.696 402.048,-282.274"/>
<text text-anchor="middle" x="294.594" y="-259.8" font-family="Times New Roman,serif" font-size="14.00">|&#45; ( ph &#45;&gt; ( ps &#45;&gt; ch ) )</text>
</g>
<!-- n9273 -->
<g id="node8" class="node"><title>n9273</title>
<ellipse fill="orange" stroke="black" cx="160.797" cy="-125" rx="32.4942" ry="18"/>
<text text-anchor="middle" x="160.797" y="-121.3" font-family="Times New Roman,serif" font-size="14.00">jcad.2</text>
</g>
<!-- n9272&#45;&gt;n9273 -->
<g id="edge18" class="edge"><title>n9272&#45;&gt;n9273</title>
</g>
<!-- n9273&#45;&gt;n9277 -->
<g id="edge7" class="edge"><title>n9273&#45;&gt;n9277</title>
<path fill="none" stroke="black" d="M193.666,-125.383C239.673,-127.622 324.841,-138.322 376.594,-185 402.797,-208.634 414.54,-248.778 419.678,-275.83"/>
<polygon fill="black" stroke="black" points="416.255,-276.576 421.394,-285.842 423.154,-275.394 416.255,-276.576"/>
<text text-anchor="middle" x="294.594" y="-188.8" font-family="Times New Roman,serif" font-size="14.00">|&#45; ( ph &#45;&gt; ( ps &#45;&gt; th ) )</text>
</g>
<!-- n9276 -->
<g id="node10" class="node"><title>n9276</title>
<ellipse fill="cyan" stroke="black" cx="160.797" cy="-53" rx="33.5952" ry="18"/>
<text text-anchor="middle" x="160.797" y="-49.3" font-family="Times New Roman,serif" font-size="14.00">pm3.2</text>
</g>
<!-- n9273&#45;&gt;n9276 -->
<g id="edge19" class="edge"><title>n9273&#45;&gt;n9276</title>
</g>
<!-- n9274 -->
<g id="node9" class="node"><title>n9274</title>
</g>
<!-- n9274&#45;&gt;n9276 -->
<g id="edge8" class="edge"><title>n9274&#45;&gt;n9276</title>
<path fill="none" stroke="lightgray" d="M52.1736,-83.2136C71.249,-77.8585 98.2484,-70.2788 120.432,-64.0512"/>
<polygon fill="lightgray" stroke="lightgray" points="121.558,-67.3704 130.24,-61.2978 119.666,-60.631 121.558,-67.3704"/>
<text text-anchor="middle" x="90.5" y="-80.8" font-family="Times New Roman,serif" font-size="14.00" fill="lightgray">wff ch</text>
</g>
<!-- n9275 -->
<g id="node11" class="node"><title>n9275</title>
</g>
<!-- n9274&#45;&gt;n9275 -->
<g id="edge11" class="edge"><title>n9274&#45;&gt;n9275</title>
</g>
<!-- n9276&#45;&gt;n9277 -->
<g id="edge10" class="edge"><title>n9276&#45;&gt;n9277</title>
<path fill="none" stroke="black" d="M194.898,-51.7855C242.036,-51.9575 328.147,-59.6229 376.594,-109 399.662,-132.511 414.248,-227.773 420.29,-275.893"/>
<polygon fill="black" stroke="black" points="416.831,-276.447 421.514,-285.951 423.78,-275.601 416.831,-276.447"/>
<text text-anchor="middle" x="294.594" y="-112.8" font-family="Times New Roman,serif" font-size="14.00">|&#45; ( ch &#45;&gt; ( th &#45;&gt; ( ch /\ th ) ) )</text>
</g>
<!-- n9275&#45;&gt;n9276 -->
<g id="edge9" class="edge"><title>n9275&#45;&gt;n9276</title>
<path fill="none" stroke="lightgray" d="M52.4811,-24.5012C71.4605,-29.5414 98.1482,-36.6285 120.161,-42.4743"/>
<polygon fill="lightgray" stroke="lightgray" points="119.338,-45.8771 129.902,-45.061 121.135,-39.1116 119.338,-45.8771"/>
<text text-anchor="middle" x="90.5" y="-43.8" font-family="Times New Roman,serif" font-size="14.00" fill="lightgray">wff th</text>
</g>
</g>
</svg>
