<?xml version="1.0" encoding="UTF-8" standalone="no"?>
<!DOCTYPE svg PUBLIC "-//W3C//DTD SVG 1.1//EN"
 "http://www.w3.org/Graphics/SVG/1.1/DTD/svg11.dtd">
<!-- Generated by graphviz version 2.38.0 (20140413.2041)
 -->
<!-- Title: proof_looinv Pages: 1 -->
<svg width="1092pt" height="495pt"
 viewBox="0.00 0.00 1092.49 495.00" xmlns="http://www.w3.org/2000/svg" xmlns:xlink="http://www.w3.org/1999/xlink">
<g id="graph0" class="graph" transform="scale(1 1) rotate(0) translate(4 491)">
<title>proof_looinv</title>
<polygon fill="white" stroke="none" points="-4,4 -4,-491 1088.49,-491 1088.49,4 -4,4"/>
<!-- n2079 -->
<g id="node1" class="node"><title>n2079</title>
</g>
<!-- n2098 -->
<g id="node2" class="node"><title>n2098</title>
<ellipse fill="cyan" stroke="black" cx="684.994" cy="-269" rx="27" ry="18"/>
<text text-anchor="middle" x="684.994" y="-265.3" font-family="Times New Roman,serif" font-size="14.00">syl6</text>
</g>
<!-- n2079&#45;&gt;n2098 -->
<g id="edge1" class="edge"><title>n2079&#45;&gt;n2098</title>
<path fill="none" stroke="lightgray" d="M236.209,-455.664C307.795,-470.517 517.954,-502.959 639.994,-404 671.852,-378.168 680.885,-328.888 683.305,-297.552"/>
<polygon fill="lightgray" stroke="lightgray" points="686.816,-297.473 683.912,-287.284 679.828,-297.06 686.816,-297.473"/>
<text text-anchor="middle" x="450.494" y="-475.8" font-family="Times New Roman,serif" font-size="14.00" fill="lightgray">wff ( ( ph &#45;&gt; ps ) &#45;&gt; ps )</text>
</g>
<!-- n2082 -->
<g id="node3" class="node"><title>n2082</title>
</g>
<!-- n2079&#45;&gt;n2082 -->
<g id="edge16" class="edge"><title>n2079&#45;&gt;n2082</title>
</g>
<!-- QED -->
<g id="node13" class="node"><title>QED</title>
</g>
<!-- n2098&#45;&gt;QED -->
<g id="edge15" class="edge"><title>n2098&#45;&gt;QED</title>
<path fill="none" stroke="black" d="M712.182,-269C776.081,-269 940.239,-269 1015.5,-269"/>
<polygon fill="black" stroke="black" points="1015.93,-272.5 1025.93,-269 1015.93,-265.5 1015.93,-272.5"/>
<text text-anchor="middle" x="868.994" y="-272.8" font-family="Times New Roman,serif" font-size="14.00">|&#45; ( ( ( ph &#45;&gt; ps ) &#45;&gt; ps ) &#45;&gt; ( ( ps &#45;&gt; ph ) &#45;&gt; ph ) )</text>
</g>
<!-- n2082&#45;&gt;n2098 -->
<g id="edge2" class="edge"><title>n2082&#45;&gt;n2098</title>
<path fill="none" stroke="lightgray" d="M237.383,-380.849C307.298,-387.298 503.835,-397.081 639.994,-322 651.776,-315.503 661.7,-304.481 669.123,-294.166"/>
<polygon fill="lightgray" stroke="lightgray" points="672.085,-296.034 674.757,-285.782 666.275,-292.13 672.085,-296.034"/>
<text text-anchor="middle" x="450.494" y="-388.8" font-family="Times New Roman,serif" font-size="14.00" fill="lightgray">wff ( ps &#45;&gt; ph )</text>
</g>
<!-- n2087 -->
<g id="node4" class="node"><title>n2087</title>
</g>
<!-- n2082&#45;&gt;n2087 -->
<g id="edge17" class="edge"><title>n2082&#45;&gt;n2087</title>
</g>
<!-- n2087&#45;&gt;n2098 -->
<g id="edge3" class="edge"><title>n2087&#45;&gt;n2098</title>
<path fill="none" stroke="lightgray" d="M237.633,-304.687C304.627,-301.196 487.916,-290.854 639.994,-275 642.704,-274.717 645.505,-274.399 648.319,-274.059"/>
<polygon fill="lightgray" stroke="lightgray" points="648.959,-277.505 658.434,-272.764 648.071,-270.562 648.959,-277.505"/>
<text text-anchor="middle" x="450.494" y="-306.8" font-family="Times New Roman,serif" font-size="14.00" fill="lightgray">wff ( ( ph &#45;&gt; ps ) &#45;&gt; ph )</text>
</g>
<!-- n2088 -->
<g id="node5" class="node"><title>n2088</title>
</g>
<!-- n2087&#45;&gt;n2088 -->
<g id="edge18" class="edge"><title>n2087&#45;&gt;n2088</title>
</g>
<!-- n2088&#45;&gt;n2098 -->
<g id="edge4" class="edge"><title>n2088&#45;&gt;n2098</title>
<path fill="none" stroke="lightgray" d="M237.705,-234.305C304.868,-235.365 488.523,-240.015 639.994,-260 642.893,-260.382 645.887,-260.846 648.885,-261.359"/>
<polygon fill="lightgray" stroke="lightgray" points="648.495,-264.846 658.968,-263.244 649.782,-257.966 648.495,-264.846"/>
<text text-anchor="middle" x="450.494" y="-263.8" font-family="Times New Roman,serif" font-size="14.00" fill="lightgray">wff ph</text>
</g>
<!-- n2094 -->
<g id="node7" class="node"><title>n2094</title>
<ellipse fill="cyan" stroke="black" cx="210.497" cy="-162" rx="32.4942" ry="18"/>
<text text-anchor="middle" x="210.497" y="-158.3" font-family="Times New Roman,serif" font-size="14.00">imim1</text>
</g>
<!-- n2088&#45;&gt;n2094 -->
<g id="edge19" class="edge"><title>n2088&#45;&gt;n2094</title>
</g>
<!-- n2091 -->
<g id="node6" class="node"><title>n2091</title>
</g>
<!-- n2091&#45;&gt;n2094 -->
<g id="edge5" class="edge"><title>n2091&#45;&gt;n2094</title>
<path fill="none" stroke="lightgray" d="M51.0987,-279.596C78.8049,-268.802 125.788,-248.173 160,-221 172.097,-211.392 183.358,-198.437 192.073,-187.115"/>
<polygon fill="lightgray" stroke="lightgray" points="195.054,-188.97 198.212,-178.857 189.437,-184.794 195.054,-188.97"/>
<text text-anchor="middle" x="116" y="-272.8" font-family="Times New Roman,serif" font-size="14.00" fill="lightgray">wff ( ph &#45;&gt; ps )</text>
</g>
<!-- n2092 -->
<g id="node8" class="node"><title>n2092</title>
</g>
<!-- n2091&#45;&gt;n2092 -->
<g id="edge9" class="edge"><title>n2091&#45;&gt;n2092</title>
</g>
<!-- n2094&#45;&gt;n2098 -->
<g id="edge8" class="edge"><title>n2094&#45;&gt;n2098</title>
<path fill="none" stroke="black" d="M242.413,-158.353C316.359,-151.139 507.156,-141.552 639.994,-215 651.983,-221.629 661.977,-232.965 669.395,-243.544"/>
<polygon fill="black" stroke="black" points="666.606,-245.676 675.006,-252.133 672.467,-241.847 666.606,-245.676"/>
<text text-anchor="middle" x="450.494" y="-218.8" font-family="Times New Roman,serif" font-size="14.00">|&#45; ( ( ( ph &#45;&gt; ps ) &#45;&gt; ps ) &#45;&gt; ( ( ps &#45;&gt; ph ) &#45;&gt; ( ( ph &#45;&gt; ps ) &#45;&gt; ph ) ) )</text>
</g>
<!-- n2097 -->
<g id="node11" class="node"><title>n2097</title>
<ellipse fill="cyan" stroke="black" cx="210.497" cy="-90" rx="32.4942" ry="18"/>
<text text-anchor="middle" x="210.497" y="-86.3" font-family="Times New Roman,serif" font-size="14.00">peirce</text>
</g>
<!-- n2094&#45;&gt;n2097 -->
<g id="edge20" class="edge"><title>n2094&#45;&gt;n2097</title>
</g>
<!-- n2092&#45;&gt;n2094 -->
<g id="edge6" class="edge"><title>n2092&#45;&gt;n2094</title>
<path fill="none" stroke="lightgray" d="M52.1014,-208.829C82.6862,-199.729 135.781,-183.933 171.758,-173.228"/>
<polygon fill="lightgray" stroke="lightgray" points="172.832,-176.56 181.419,-170.354 170.836,-169.851 172.832,-176.56"/>
<text text-anchor="middle" x="116" y="-205.8" font-family="Times New Roman,serif" font-size="14.00" fill="lightgray">wff ps</text>
</g>
<!-- n2093 -->
<g id="node9" class="node"><title>n2093</title>
</g>
<!-- n2092&#45;&gt;n2093 -->
<g id="edge10" class="edge"><title>n2092&#45;&gt;n2093</title>
</g>
<!-- n2093&#45;&gt;n2094 -->
<g id="edge7" class="edge"><title>n2093&#45;&gt;n2094</title>
<path fill="none" stroke="lightgray" d="M54.0041,-146.579C83.762,-149.53 132.901,-154.404 167.973,-157.882"/>
<polygon fill="lightgray" stroke="lightgray" points="168.073,-161.409 178.369,-158.913 168.763,-154.443 168.073,-161.409"/>
<text text-anchor="middle" x="116" y="-160.8" font-family="Times New Roman,serif" font-size="14.00" fill="lightgray">wff ph</text>
</g>
<!-- n2095 -->
<g id="node10" class="node"><title>n2095</title>
</g>
<!-- n2095&#45;&gt;n2097 -->
<g id="edge11" class="edge"><title>n2095&#45;&gt;n2097</title>
<path fill="none" stroke="lightgray" d="M54.0041,-90C83.5843,-90 132.315,-90 167.344,-90"/>
<polygon fill="lightgray" stroke="lightgray" points="167.738,-93.5001 177.738,-90 167.738,-86.5001 167.738,-93.5001"/>
<text text-anchor="middle" x="116" y="-93.8" font-family="Times New Roman,serif" font-size="14.00" fill="lightgray">wff ph</text>
</g>
<!-- n2096 -->
<g id="node12" class="node"><title>n2096</title>
</g>
<!-- n2095&#45;&gt;n2096 -->
<g id="edge14" class="edge"><title>n2095&#45;&gt;n2096</title>
</g>
<!-- n2097&#45;&gt;n2098 -->
<g id="edge13" class="edge"><title>n2097&#45;&gt;n2098</title>
<path fill="none" stroke="black" d="M240.702,-83.3477C316.191,-67.9843 520.235,-38.3367 639.994,-135 671.696,-160.588 680.776,-209.518 683.248,-240.64"/>
<polygon fill="black" stroke="black" points="679.768,-241.071 683.873,-250.839 686.755,-240.643 679.768,-241.071"/>
<text text-anchor="middle" x="450.494" y="-138.8" font-family="Times New Roman,serif" font-size="14.00">|&#45; ( ( ( ph &#45;&gt; ps ) &#45;&gt; ph ) &#45;&gt; ph )</text>
</g>
<!-- n2096&#45;&gt;n2097 -->
<g id="edge12" class="edge"><title>n2096&#45;&gt;n2097</title>
<path fill="none" stroke="lightgray" d="M50.6198,-26.9733C81.6741,-39.2925 137.812,-61.5624 174.361,-76.0617"/>
<polygon fill="lightgray" stroke="lightgray" points="173.073,-79.3157 183.659,-79.7499 175.654,-72.809 173.073,-79.3157"/>
<text text-anchor="middle" x="116" y="-72.8" font-family="Times New Roman,serif" font-size="14.00" fill="lightgray">wff ps</text>
</g>
</g>
</svg>
