<?xml version="1.0" encoding="UTF-8" standalone="no"?>
<!DOCTYPE svg PUBLIC "-//W3C//DTD SVG 1.1//EN"
 "http://www.w3.org/Graphics/SVG/1.1/DTD/svg11.dtd">
<!-- Generated by graphviz version 2.38.0 (20140413.2041)
 -->
<!-- Title: proof_mp2and Pages: 1 -->
<svg width="780pt" height="511pt"
 viewBox="0.00 0.00 780.27 511.00" xmlns="http://www.w3.org/2000/svg" xmlns:xlink="http://www.w3.org/1999/xlink">
<g id="graph0" class="graph" transform="scale(1 1) rotate(0) translate(4 507)">
<title>proof_mp2and</title>
<polygon fill="white" stroke="none" points="-4,4 -4,-507 776.273,-507 776.273,4 -4,4"/>
<!-- n11609 -->
<g id="node1" class="node"><title>n11609</title>
</g>
<!-- n11620 -->
<g id="node2" class="node"><title>n11620</title>
<ellipse fill="cyan" stroke="black" cx="577.481" cy="-341" rx="27.0966" ry="18"/>
<text text-anchor="middle" x="577.481" y="-337.3" font-family="Times New Roman,serif" font-size="14.00">mpd</text>
</g>
<!-- n11609&#45;&gt;n11620 -->
<g id="edge1" class="edge"><title>n11609&#45;&gt;n11620</title>
<path fill="none" stroke="lightgray" d="M370.735,-481.012C409.376,-473.815 483.638,-455.473 532.183,-415 547.231,-402.454 558.469,-383.402 565.86,-367.771"/>
<polygon fill="lightgray" stroke="lightgray" points="569.087,-369.129 569.965,-358.57 562.694,-366.277 569.087,-369.129"/>
<text text-anchor="middle" x="470.683" y="-474.8" font-family="Times New Roman,serif" font-size="14.00" fill="lightgray">wff ph</text>
</g>
<!-- n11610 -->
<g id="node3" class="node"><title>n11610</title>
</g>
<!-- n11609&#45;&gt;n11610 -->
<g id="edge18" class="edge"><title>n11609&#45;&gt;n11610</title>
</g>
<!-- QED -->
<g id="node13" class="node"><title>QED</title>
</g>
<!-- n11620&#45;&gt;QED -->
<g id="edge17" class="edge"><title>n11620&#45;&gt;QED</title>
<path fill="none" stroke="black" d="M605.121,-341C631.84,-341 673.258,-341 703.544,-341"/>
<polygon fill="black" stroke="black" points="703.75,-344.5 713.75,-341 703.75,-337.5 703.75,-344.5"/>
<text text-anchor="middle" x="659.279" y="-344.8" font-family="Times New Roman,serif" font-size="14.00">|&#45; ( ph &#45;&gt; th )</text>
</g>
<!-- n11610&#45;&gt;n11620 -->
<g id="edge2" class="edge"><title>n11610&#45;&gt;n11620</title>
<path fill="none" stroke="lightgray" d="M370.182,-407.049C406.263,-398.145 475.155,-380.226 532.183,-360 536.469,-358.48 540.932,-356.749 545.303,-354.965"/>
<polygon fill="lightgray" stroke="lightgray" points="546.766,-358.147 554.621,-351.037 544.047,-351.696 546.766,-358.147"/>
<text text-anchor="middle" x="470.683" y="-399.8" font-family="Times New Roman,serif" font-size="14.00" fill="lightgray">wff ch</text>
</g>
<!-- n11611 -->
<g id="node4" class="node"><title>n11611</title>
</g>
<!-- n11610&#45;&gt;n11611 -->
<g id="edge19" class="edge"><title>n11610&#45;&gt;n11611</title>
</g>
<!-- n11611&#45;&gt;n11620 -->
<g id="edge3" class="edge"><title>n11611&#45;&gt;n11620</title>
<path fill="none" stroke="lightgray" d="M371.448,-341C412.71,-341 493.202,-341 540.123,-341"/>
<polygon fill="lightgray" stroke="lightgray" points="540.162,-344.5 550.162,-341 540.161,-337.5 540.162,-344.5"/>
<text text-anchor="middle" x="470.683" y="-344.8" font-family="Times New Roman,serif" font-size="14.00" fill="lightgray">wff th</text>
</g>
<!-- n11612 -->
<g id="node5" class="node"><title>n11612</title>
<ellipse fill="orange" stroke="black" cx="344.388" cy="-269" rx="46.5926" ry="18"/>
<text text-anchor="middle" x="344.388" y="-265.3" font-family="Times New Roman,serif" font-size="14.00">mp2and.2</text>
</g>
<!-- n11611&#45;&gt;n11612 -->
<g id="edge20" class="edge"><title>n11611&#45;&gt;n11612</title>
</g>
<!-- n11612&#45;&gt;n11620 -->
<g id="edge4" class="edge"><title>n11612&#45;&gt;n11620</title>
<path fill="none" stroke="black" d="M384.483,-278.527C422.596,-288.18 481.985,-304.196 532.183,-322 536.469,-323.52 540.932,-325.251 545.303,-327.035"/>
<polygon fill="black" stroke="black" points="544.047,-330.304 554.621,-330.963 546.766,-323.853 544.047,-330.304"/>
<text text-anchor="middle" x="470.683" y="-325.8" font-family="Times New Roman,serif" font-size="14.00">|&#45; ( ph &#45;&gt; ch )</text>
</g>
<!-- n11619 -->
<g id="node7" class="node"><title>n11619</title>
<ellipse fill="cyan" stroke="black" cx="344.388" cy="-197" rx="35.9954" ry="18"/>
<text text-anchor="middle" x="344.388" y="-193.3" font-family="Times New Roman,serif" font-size="14.00">mpand</text>
</g>
<!-- n11612&#45;&gt;n11619 -->
<g id="edge21" class="edge"><title>n11612&#45;&gt;n11619</title>
</g>
<!-- n11613 -->
<g id="node6" class="node"><title>n11613</title>
</g>
<!-- n11613&#45;&gt;n11619 -->
<g id="edge5" class="edge"><title>n11613&#45;&gt;n11619</title>
<path fill="none" stroke="lightgray" d="M73.8983,-378.898C121.768,-379.043 223.793,-372.133 279.592,-315 302.94,-291.094 281.047,-271.033 297.592,-242 302.374,-233.608 309.166,-225.741 316.059,-219.005"/>
<polygon fill="lightgray" stroke="lightgray" points="318.5,-221.516 323.489,-212.169 313.76,-216.365 318.5,-221.516"/>
<text text-anchor="middle" x="195.592" y="-380.8" font-family="Times New Roman,serif" font-size="14.00" fill="lightgray">wff ph</text>
</g>
<!-- n11614 -->
<g id="node8" class="node"><title>n11614</title>
</g>
<!-- n11613&#45;&gt;n11614 -->
<g id="edge12" class="edge"><title>n11613&#45;&gt;n11614</title>
</g>
<!-- n11619&#45;&gt;n11620 -->
<g id="edge11" class="edge"><title>n11619&#45;&gt;n11620</title>
<path fill="none" stroke="black" d="M378.836,-202.309C419.099,-210.162 486.932,-228.227 532.183,-266 547.47,-278.76 558.75,-298.235 566.101,-314.142"/>
<polygon fill="black" stroke="black" points="562.971,-315.721 570.171,-323.493 569.39,-312.927 562.971,-315.721"/>
<text text-anchor="middle" x="470.683" y="-269.8" font-family="Times New Roman,serif" font-size="14.00">|&#45; ( ph &#45;&gt; ( ch &#45;&gt; th ) )</text>
</g>
<!-- n11614&#45;&gt;n11619 -->
<g id="edge6" class="edge"><title>n11614&#45;&gt;n11619</title>
<path fill="none" stroke="lightgray" d="M73.6582,-302.755C117.764,-296.484 209.55,-280.191 279.592,-246 293.73,-239.098 307.779,-228.782 319.08,-219.392"/>
<polygon fill="lightgray" stroke="lightgray" points="321.475,-221.95 326.785,-212.782 316.916,-216.637 321.475,-221.95"/>
<text text-anchor="middle" x="195.592" y="-299.8" font-family="Times New Roman,serif" font-size="14.00" fill="lightgray">wff ps</text>
</g>
<!-- n11615 -->
<g id="node9" class="node"><title>n11615</title>
</g>
<!-- n11614&#45;&gt;n11615 -->
<g id="edge13" class="edge"><title>n11614&#45;&gt;n11615</title>
</g>
<!-- n11615&#45;&gt;n11619 -->
<g id="edge7" class="edge"><title>n11615&#45;&gt;n11619</title>
<path fill="none" stroke="lightgray" d="M73.5106,-230.781C124.071,-224.452 236.933,-210.325 299.503,-202.493"/>
<polygon fill="lightgray" stroke="lightgray" points="299.978,-205.961 309.466,-201.246 299.109,-199.015 299.978,-205.961"/>
<text text-anchor="middle" x="195.592" y="-230.8" font-family="Times New Roman,serif" font-size="14.00" fill="lightgray">wff ch</text>
</g>
<!-- n11616 -->
<g id="node10" class="node"><title>n11616</title>
</g>
<!-- n11615&#45;&gt;n11616 -->
<g id="edge14" class="edge"><title>n11615&#45;&gt;n11616</title>
</g>
<!-- n11616&#45;&gt;n11619 -->
<g id="edge8" class="edge"><title>n11616&#45;&gt;n11619</title>
<path fill="none" stroke="lightgray" d="M73.5499,-164.647C116.364,-169.102 204.868,-178.54 279.592,-188 286.073,-188.82 292.917,-189.735 299.622,-190.658"/>
<polygon fill="lightgray" stroke="lightgray" points="299.583,-194.186 309.971,-192.103 300.551,-187.254 299.583,-194.186"/>
<text text-anchor="middle" x="195.592" y="-191.8" font-family="Times New Roman,serif" font-size="14.00" fill="lightgray">wff th</text>
</g>
<!-- n11617 -->
<g id="node11" class="node"><title>n11617</title>
<ellipse fill="orange" stroke="black" cx="46.7958" cy="-90" rx="46.5926" ry="18"/>
<text text-anchor="middle" x="46.7958" y="-86.3" font-family="Times New Roman,serif" font-size="14.00">mp2and.1</text>
</g>
<!-- n11616&#45;&gt;n11617 -->
<g id="edge15" class="edge"><title>n11616&#45;&gt;n11617</title>
</g>
<!-- n11617&#45;&gt;n11619 -->
<g id="edge9" class="edge"><title>n11617&#45;&gt;n11619</title>
<path fill="none" stroke="black" d="M90.9284,-96.1113C138.792,-104.024 217.47,-120.441 279.592,-150 293.252,-156.5 306.949,-166.088 318.129,-174.912"/>
<polygon fill="black" stroke="black" points="316.184,-177.842 326.147,-181.447 320.607,-172.416 316.184,-177.842"/>
<text text-anchor="middle" x="195.592" y="-153.8" font-family="Times New Roman,serif" font-size="14.00">|&#45; ( ph &#45;&gt; ps )</text>
</g>
<!-- n11618 -->
<g id="node12" class="node"><title>n11618</title>
<ellipse fill="orange" stroke="black" cx="46.7958" cy="-18" rx="46.5926" ry="18"/>
<text text-anchor="middle" x="46.7958" y="-14.3" font-family="Times New Roman,serif" font-size="14.00">mp2and.3</text>
</g>
<!-- n11617&#45;&gt;n11618 -->
<g id="edge16" class="edge"><title>n11617&#45;&gt;n11618</title>
</g>
<!-- n11618&#45;&gt;n11619 -->
<g id="edge10" class="edge"><title>n11618&#45;&gt;n11619</title>
<path fill="none" stroke="black" d="M93.4272,-20.0121C143.876,-24.4111 225.189,-38.1922 279.592,-81 308.294,-103.585 325.944,-142.827 335.204,-169.345"/>
<polygon fill="black" stroke="black" points="331.989,-170.77 338.454,-179.164 338.635,-168.57 331.989,-170.77"/>
<text text-anchor="middle" x="195.592" y="-84.8" font-family="Times New Roman,serif" font-size="14.00">|&#45; ( ph &#45;&gt; ( ( ps /\ ch ) &#45;&gt; th ) )</text>
</g>
</g>
</svg>
