<?xml version="1.0" encoding="UTF-8" standalone="no"?>
<!DOCTYPE svg PUBLIC "-//W3C//DTD SVG 1.1//EN"
 "http://www.w3.org/Graphics/SVG/1.1/DTD/svg11.dtd">
<!-- Generated by graphviz version 2.38.0 (20140413.2041)
 -->
<!-- Title: proof_mpanr2 Pages: 1 -->
<svg width="739pt" height="404pt"
 viewBox="0.00 0.00 739.47 404.00" xmlns="http://www.w3.org/2000/svg" xmlns:xlink="http://www.w3.org/1999/xlink">
<g id="graph0" class="graph" transform="scale(1 1) rotate(0) translate(4 400)">
<title>proof_mpanr2</title>
<polygon fill="white" stroke="none" points="-4,4 -4,-400 735.473,-400 735.473,4 -4,4"/>
<!-- n11669 -->
<g id="node1" class="node"><title>n11669</title>
</g>
<!-- n11680 -->
<g id="node2" class="node"><title>n11680</title>
<ellipse fill="cyan" stroke="black" cx="485.181" cy="-197" rx="33.5952" ry="18"/>
<text text-anchor="middle" x="485.181" y="-193.3" font-family="Times New Roman,serif" font-size="14.00">sylan2</text>
</g>
<!-- n11669&#45;&gt;n11680 -->
<g id="edge1" class="edge"><title>n11669&#45;&gt;n11680</title>
<path fill="none" stroke="lightgray" d="M234.838,-377.831C280.665,-376.154 375.757,-366.36 433.384,-316 460.262,-292.511 473.345,-252.332 479.402,-225.233"/>
<polygon fill="lightgray" stroke="lightgray" points="482.879,-225.701 481.458,-215.202 476.021,-224.295 482.879,-225.701"/>
<text text-anchor="middle" x="351.884" y="-377.8" font-family="Times New Roman,serif" font-size="14.00" fill="lightgray">wff ps</text>
</g>
<!-- n11670 -->
<g id="node3" class="node"><title>n11670</title>
</g>
<!-- n11669&#45;&gt;n11670 -->
<g id="edge13" class="edge"><title>n11669&#45;&gt;n11670</title>
</g>
<!-- QED -->
<g id="node11" class="node"><title>QED</title>
</g>
<!-- n11680&#45;&gt;QED -->
<g id="edge12" class="edge"><title>n11680&#45;&gt;QED</title>
<path fill="none" stroke="black" d="M519.31,-197C558.003,-197 621.904,-197 662.755,-197"/>
<polygon fill="black" stroke="black" points="662.868,-200.5 672.868,-197 662.868,-193.5 662.868,-200.5"/>
<text text-anchor="middle" x="595.978" y="-200.8" font-family="Times New Roman,serif" font-size="14.00">|&#45; ( ( ph /\ ps ) &#45;&gt; th )</text>
</g>
<!-- n11670&#45;&gt;n11680 -->
<g id="edge2" class="edge"><title>n11670&#45;&gt;n11680</title>
<path fill="none" stroke="lightgray" d="M234.358,-303.156C277.846,-297.489 367.411,-281.99 433.384,-245 444.516,-238.758 455.076,-229.542 463.655,-220.849"/>
<polygon fill="lightgray" stroke="lightgray" points="466.334,-223.11 470.648,-213.433 461.241,-218.308 466.334,-223.11"/>
<text text-anchor="middle" x="351.884" y="-300.8" font-family="Times New Roman,serif" font-size="14.00" fill="lightgray">wff ph</text>
</g>
<!-- n11673 -->
<g id="node4" class="node"><title>n11673</title>
</g>
<!-- n11670&#45;&gt;n11673 -->
<g id="edge14" class="edge"><title>n11670&#45;&gt;n11673</title>
</g>
<!-- n11673&#45;&gt;n11680 -->
<g id="edge3" class="edge"><title>n11673&#45;&gt;n11680</title>
<path fill="none" stroke="lightgray" d="M234.47,-230.519C282.161,-224.118 384.184,-210.423 441.977,-202.665"/>
<polygon fill="lightgray" stroke="lightgray" points="442.785,-206.088 452.231,-201.289 441.854,-199.15 442.785,-206.088"/>
<text text-anchor="middle" x="351.884" y="-229.8" font-family="Times New Roman,serif" font-size="14.00" fill="lightgray">wff ( ps /\ ch )</text>
</g>
<!-- n11674 -->
<g id="node5" class="node"><title>n11674</title>
</g>
<!-- n11673&#45;&gt;n11674 -->
<g id="edge15" class="edge"><title>n11673&#45;&gt;n11674</title>
</g>
<!-- n11674&#45;&gt;n11680 -->
<g id="edge4" class="edge"><title>n11674&#45;&gt;n11680</title>
<path fill="none" stroke="lightgray" d="M234.571,-164.496C276.524,-168.634 361.647,-177.507 433.384,-188 436.574,-188.467 439.872,-188.98 443.184,-189.518"/>
<polygon fill="lightgray" stroke="lightgray" points="442.625,-192.973 453.067,-191.182 443.787,-186.07 442.625,-192.973"/>
<text text-anchor="middle" x="351.884" y="-191.8" font-family="Times New Roman,serif" font-size="14.00" fill="lightgray">wff th</text>
</g>
<!-- n11678 -->
<g id="node7" class="node"><title>n11678</title>
<ellipse fill="cyan" stroke="black" cx="207.538" cy="-90" rx="27" ry="18"/>
<text text-anchor="middle" x="207.538" y="-86.3" font-family="Times New Roman,serif" font-size="14.00">jctr</text>
</g>
<!-- n11674&#45;&gt;n11678 -->
<g id="edge16" class="edge"><title>n11674&#45;&gt;n11678</title>
</g>
<!-- n11675 -->
<g id="node6" class="node"><title>n11675</title>
</g>
<!-- n11675&#45;&gt;n11678 -->
<g id="edge5" class="edge"><title>n11675&#45;&gt;n11678</title>
<path fill="none" stroke="lightgray" d="M67.8526,-152.14C95.74,-139.644 143.972,-118.034 175.567,-103.877"/>
<polygon fill="lightgray" stroke="lightgray" points="177.103,-107.024 184.797,-99.7412 174.24,-100.636 177.103,-107.024"/>
<text text-anchor="middle" x="126.192" y="-136.8" font-family="Times New Roman,serif" font-size="14.00" fill="lightgray">wff ps</text>
</g>
<!-- n11676 -->
<g id="node8" class="node"><title>n11676</title>
</g>
<!-- n11675&#45;&gt;n11676 -->
<g id="edge9" class="edge"><title>n11675&#45;&gt;n11676</title>
</g>
<!-- n11678&#45;&gt;n11680 -->
<g id="edge8" class="edge"><title>n11678&#45;&gt;n11680</title>
<path fill="none" stroke="black" d="M234.315,-92.7795C277.741,-98.328 367.216,-113.535 433.384,-150 444.29,-156.01 454.691,-164.857 463.209,-173.259"/>
<polygon fill="black" stroke="black" points="460.701,-175.701 470.174,-180.446 465.727,-170.829 460.701,-175.701"/>
<text text-anchor="middle" x="351.884" y="-153.8" font-family="Times New Roman,serif" font-size="14.00">|&#45; ( ps &#45;&gt; ( ps /\ ch ) )</text>
</g>
<!-- n11679 -->
<g id="node10" class="node"><title>n11679</title>
<ellipse fill="orange" stroke="black" cx="207.538" cy="-18" rx="44.6926" ry="18"/>
<text text-anchor="middle" x="207.538" y="-14.3" font-family="Times New Roman,serif" font-size="14.00">mpanr2.2</text>
</g>
<!-- n11678&#45;&gt;n11679 -->
<g id="edge17" class="edge"><title>n11678&#45;&gt;n11679</title>
</g>
<!-- n11676&#45;&gt;n11678 -->
<g id="edge6" class="edge"><title>n11676&#45;&gt;n11678</title>
<path fill="none" stroke="lightgray" d="M72.0216,-90C98.7517,-90 140.455,-90 170.34,-90"/>
<polygon fill="lightgray" stroke="lightgray" points="170.374,-93.5001 180.374,-90 170.374,-86.5001 170.374,-93.5001"/>
<text text-anchor="middle" x="126.192" y="-93.8" font-family="Times New Roman,serif" font-size="14.00" fill="lightgray">wff ch</text>
</g>
<!-- n11677 -->
<g id="node9" class="node"><title>n11677</title>
<ellipse fill="orange" stroke="black" cx="44.846" cy="-18" rx="44.6926" ry="18"/>
<text text-anchor="middle" x="44.846" y="-14.3" font-family="Times New Roman,serif" font-size="14.00">mpanr2.1</text>
</g>
<!-- n11676&#45;&gt;n11677 -->
<g id="edge10" class="edge"><title>n11676&#45;&gt;n11677</title>
</g>
<!-- n11677&#45;&gt;n11678 -->
<g id="edge7" class="edge"><title>n11677&#45;&gt;n11678</title>
<path fill="none" stroke="black" d="M75.6944,-31.3739C104.072,-44.0889 146.584,-63.1367 175.385,-76.0415"/>
<polygon fill="black" stroke="black" points="174.03,-79.2694 184.587,-80.1644 176.892,-72.8813 174.03,-79.2694"/>
<text text-anchor="middle" x="126.192" y="-66.8" font-family="Times New Roman,serif" font-size="14.00">|&#45; ch</text>
</g>
<!-- n11679&#45;&gt;n11680 -->
<g id="edge11" class="edge"><title>n11679&#45;&gt;n11680</title>
<path fill="none" stroke="black" d="M252.658,-19.1927C302.201,-22.7849 382.328,-35.659 433.384,-80 459.952,-103.074 473.109,-142.583 479.268,-169.233"/>
<polygon fill="black" stroke="black" points="475.862,-170.045 481.365,-179.098 482.709,-168.589 475.862,-170.045"/>
<text text-anchor="middle" x="351.884" y="-83.8" font-family="Times New Roman,serif" font-size="14.00">|&#45; ( ( ph /\ ( ps /\ ch ) ) &#45;&gt; th )</text>
</g>
</g>
</svg>
