<?xml version="1.0" encoding="UTF-8" standalone="no"?>
<!DOCTYPE svg PUBLIC "-//W3C//DTD SVG 1.1//EN"
 "http://www.w3.org/Graphics/SVG/1.1/DTD/svg11.dtd">
<!-- Generated by graphviz version 2.38.0 (20140413.2041)
 -->
<!-- Title: proof_mpanr12 Pages: 1 -->
<svg width="796pt" height="511pt"
 viewBox="0.00 0.00 796.27 511.00" xmlns="http://www.w3.org/2000/svg" xmlns:xlink="http://www.w3.org/1999/xlink">
<g id="graph0" class="graph" transform="scale(1 1) rotate(0) translate(4 507)">
<title>proof_mpanr12</title>
<polygon fill="white" stroke="none" points="-4,4 -4,-507 792.271,-507 792.271,4 -4,4"/>
<!-- n11681 -->
<g id="node1" class="node"><title>n11681</title>
</g>
<!-- n11692 -->
<g id="node2" class="node"><title>n11692</title>
<ellipse fill="cyan" stroke="black" cx="585.679" cy="-341" rx="35.194" ry="18"/>
<text text-anchor="middle" x="585.679" y="-337.3" font-family="Times New Roman,serif" font-size="14.00">mpan2</text>
</g>
<!-- n11681&#45;&gt;n11692 -->
<g id="edge1" class="edge"><title>n11681&#45;&gt;n11692</title>
<path fill="none" stroke="lightgray" d="M373.068,-479.825C410.705,-471.033 482.978,-450.289 532.582,-412 548.218,-399.931 561.34,-381.963 570.503,-367.122"/>
<polygon fill="lightgray" stroke="lightgray" points="573.604,-368.755 575.684,-358.366 567.579,-365.19 573.604,-368.755"/>
<text text-anchor="middle" x="473.582" y="-470.8" font-family="Times New Roman,serif" font-size="14.00" fill="lightgray">wff ph</text>
</g>
<!-- n11682 -->
<g id="node3" class="node"><title>n11682</title>
</g>
<!-- n11681&#45;&gt;n11682 -->
<g id="edge18" class="edge"><title>n11681&#45;&gt;n11682</title>
</g>
<!-- QED -->
<g id="node13" class="node"><title>QED</title>
</g>
<!-- n11692&#45;&gt;QED -->
<g id="edge17" class="edge"><title>n11692&#45;&gt;QED</title>
<path fill="none" stroke="black" d="M620.942,-341C649.384,-341 689.823,-341 719.408,-341"/>
<polygon fill="black" stroke="black" points="719.774,-344.5 729.774,-341 719.774,-337.5 719.774,-344.5"/>
<text text-anchor="middle" x="675.276" y="-344.8" font-family="Times New Roman,serif" font-size="14.00">|&#45; ( ph &#45;&gt; th )</text>
</g>
<!-- n11682&#45;&gt;n11692 -->
<g id="edge2" class="edge"><title>n11682&#45;&gt;n11692</title>
<path fill="none" stroke="lightgray" d="M372.514,-406.59C407.948,-397.121 475.731,-378.512 532.582,-360 537.436,-358.42 542.513,-356.679 547.514,-354.912"/>
<polygon fill="lightgray" stroke="lightgray" points="548.73,-358.194 556.956,-351.518 546.362,-351.607 548.73,-358.194"/>
<text text-anchor="middle" x="473.582" y="-396.8" font-family="Times New Roman,serif" font-size="14.00" fill="lightgray">wff ch</text>
</g>
<!-- n11683 -->
<g id="node4" class="node"><title>n11683</title>
</g>
<!-- n11682&#45;&gt;n11683 -->
<g id="edge19" class="edge"><title>n11682&#45;&gt;n11683</title>
</g>
<!-- n11683&#45;&gt;n11692 -->
<g id="edge3" class="edge"><title>n11683&#45;&gt;n11692</title>
<path fill="none" stroke="lightgray" d="M374.399,-341C414.398,-341 491.164,-341 540.051,-341"/>
<polygon fill="lightgray" stroke="lightgray" points="540.337,-344.5 550.337,-341 540.337,-337.5 540.337,-344.5"/>
<text text-anchor="middle" x="473.582" y="-344.8" font-family="Times New Roman,serif" font-size="14.00" fill="lightgray">wff th</text>
</g>
<!-- n11684 -->
<g id="node5" class="node"><title>n11684</title>
<ellipse fill="orange" stroke="black" cx="347.187" cy="-269" rx="49.2915" ry="18"/>
<text text-anchor="middle" x="347.187" y="-265.3" font-family="Times New Roman,serif" font-size="14.00">mpanr12.2</text>
</g>
<!-- n11683&#45;&gt;n11684 -->
<g id="edge20" class="edge"><title>n11683&#45;&gt;n11684</title>
</g>
<!-- n11684&#45;&gt;n11692 -->
<g id="edge4" class="edge"><title>n11684&#45;&gt;n11692</title>
<path fill="none" stroke="black" d="M387.637,-279.481C425.139,-289.646 483.015,-305.86 532.582,-322 537.436,-323.58 542.513,-325.321 547.514,-327.088"/>
<polygon fill="black" stroke="black" points="546.362,-330.393 556.956,-330.482 548.73,-323.806 546.362,-330.393"/>
<text text-anchor="middle" x="473.582" y="-325.8" font-family="Times New Roman,serif" font-size="14.00">|&#45; ch</text>
</g>
<!-- n11691 -->
<g id="node7" class="node"><title>n11691</title>
<ellipse fill="cyan" stroke="black" cx="347.187" cy="-197" rx="38.1938" ry="18"/>
<text text-anchor="middle" x="347.187" y="-193.3" font-family="Times New Roman,serif" font-size="14.00">mpanr1</text>
</g>
<!-- n11684&#45;&gt;n11691 -->
<g id="edge21" class="edge"><title>n11684&#45;&gt;n11691</title>
</g>
<!-- n11685 -->
<g id="node6" class="node"><title>n11685</title>
</g>
<!-- n11685&#45;&gt;n11691 -->
<g id="edge5" class="edge"><title>n11685&#45;&gt;n11691</title>
<path fill="none" stroke="lightgray" d="M76.5911,-378.518C124.105,-377.964 224.669,-369.677 279.791,-313 302.488,-289.663 281.194,-270.005 297.791,-242 302.86,-233.447 310.043,-225.528 317.327,-218.795"/>
<polygon fill="lightgray" stroke="lightgray" points="319.921,-221.178 325.176,-211.979 315.331,-215.893 319.921,-221.178"/>
<text text-anchor="middle" x="198.291" y="-379.8" font-family="Times New Roman,serif" font-size="14.00" fill="lightgray">wff ph</text>
</g>
<!-- n11686 -->
<g id="node8" class="node"><title>n11686</title>
</g>
<!-- n11685&#45;&gt;n11686 -->
<g id="edge12" class="edge"><title>n11685&#45;&gt;n11686</title>
</g>
<!-- n11691&#45;&gt;n11692 -->
<g id="edge11" class="edge"><title>n11691&#45;&gt;n11692</title>
<path fill="none" stroke="black" d="M382.384,-204.152C421.772,-213.707 486.912,-233.676 532.582,-269 548.45,-281.273 561.638,-299.651 570.775,-314.767"/>
<polygon fill="black" stroke="black" points="567.891,-316.771 575.929,-323.674 573.95,-313.266 567.891,-316.771"/>
<text text-anchor="middle" x="473.582" y="-272.8" font-family="Times New Roman,serif" font-size="14.00">|&#45; ( ( ph /\ ch ) &#45;&gt; th )</text>
</g>
<!-- n11686&#45;&gt;n11691 -->
<g id="edge6" class="edge"><title>n11686&#45;&gt;n11691</title>
<path fill="none" stroke="lightgray" d="M75.8837,-302.348C119.374,-295.445 209.98,-278.116 279.791,-245 294.062,-238.23 308.445,-228.302 320.158,-219.229"/>
<polygon fill="lightgray" stroke="lightgray" points="322.542,-221.804 328.175,-212.831 318.176,-216.333 322.542,-221.804"/>
<text text-anchor="middle" x="198.291" y="-297.8" font-family="Times New Roman,serif" font-size="14.00" fill="lightgray">wff ps</text>
</g>
<!-- n11687 -->
<g id="node9" class="node"><title>n11687</title>
</g>
<!-- n11686&#45;&gt;n11687 -->
<g id="edge13" class="edge"><title>n11686&#45;&gt;n11687</title>
</g>
<!-- n11687&#45;&gt;n11691 -->
<g id="edge7" class="edge"><title>n11687&#45;&gt;n11691</title>
<path fill="none" stroke="lightgray" d="M76.1277,-230.781C126.056,-224.536 236.699,-210.696 299.775,-202.806"/>
<polygon fill="lightgray" stroke="lightgray" points="300.361,-206.26 309.849,-201.545 299.492,-199.314 300.361,-206.26"/>
<text text-anchor="middle" x="198.291" y="-229.8" font-family="Times New Roman,serif" font-size="14.00" fill="lightgray">wff ch</text>
</g>
<!-- n11688 -->
<g id="node10" class="node"><title>n11688</title>
</g>
<!-- n11687&#45;&gt;n11688 -->
<g id="edge14" class="edge"><title>n11687&#45;&gt;n11688</title>
</g>
<!-- n11688&#45;&gt;n11691 -->
<g id="edge8" class="edge"><title>n11688&#45;&gt;n11691</title>
<path fill="none" stroke="lightgray" d="M76.219,-164.741C118.708,-169.292 206.011,-178.819 279.791,-188 286.23,-188.801 293.016,-189.681 299.691,-190.566"/>
<polygon fill="lightgray" stroke="lightgray" points="299.647,-194.091 310.023,-191.952 300.578,-187.154 299.647,-194.091"/>
<text text-anchor="middle" x="198.291" y="-191.8" font-family="Times New Roman,serif" font-size="14.00" fill="lightgray">wff th</text>
</g>
<!-- n11689 -->
<g id="node11" class="node"><title>n11689</title>
<ellipse fill="orange" stroke="black" cx="49.3956" cy="-90" rx="49.2915" ry="18"/>
<text text-anchor="middle" x="49.3956" y="-86.3" font-family="Times New Roman,serif" font-size="14.00">mpanr12.1</text>
</g>
<!-- n11688&#45;&gt;n11689 -->
<g id="edge15" class="edge"><title>n11688&#45;&gt;n11689</title>
</g>
<!-- n11689&#45;&gt;n11691 -->
<g id="edge9" class="edge"><title>n11689&#45;&gt;n11691</title>
<path fill="none" stroke="black" d="M95.0805,-97.1456C142.489,-105.796 218.816,-122.821 279.791,-151 293.722,-157.438 307.876,-166.778 319.517,-175.362"/>
<polygon fill="black" stroke="black" points="317.427,-178.171 327.509,-181.427 321.659,-172.594 317.427,-178.171"/>
<text text-anchor="middle" x="198.291" y="-154.8" font-family="Times New Roman,serif" font-size="14.00">|&#45; ps</text>
</g>
<!-- n11690 -->
<g id="node12" class="node"><title>n11690</title>
<ellipse fill="orange" stroke="black" cx="49.3956" cy="-18" rx="49.2915" ry="18"/>
<text text-anchor="middle" x="49.3956" y="-14.3" font-family="Times New Roman,serif" font-size="14.00">mpanr12.3</text>
</g>
<!-- n11689&#45;&gt;n11690 -->
<g id="edge16" class="edge"><title>n11689&#45;&gt;n11690</title>
</g>
<!-- n11690&#45;&gt;n11691 -->
<g id="edge10" class="edge"><title>n11690&#45;&gt;n11691</title>
<path fill="none" stroke="black" d="M98.1146,-21.1288C148.057,-26.6012 226.479,-41.6449 279.791,-83 308.389,-105.184 326.98,-143.418 337.022,-169.435"/>
<polygon fill="black" stroke="black" points="333.834,-170.908 340.572,-179.084 340.403,-168.49 333.834,-170.908"/>
<text text-anchor="middle" x="198.291" y="-86.8" font-family="Times New Roman,serif" font-size="14.00">|&#45; ( ( ph /\ ( ps /\ ch ) ) &#45;&gt; th )</text>
</g>
</g>
</svg>
