<?xml version="1.0" encoding="UTF-8" standalone="no"?>
<!DOCTYPE svg PUBLIC "-//W3C//DTD SVG 1.1//EN"
 "http://www.w3.org/Graphics/SVG/1.1/DTD/svg11.dtd">
<!-- Generated by graphviz version 2.38.0 (20140413.2041)
 -->
<!-- Title: proof_mpbir2and Pages: 1 -->
<svg width="803pt" height="404pt"
 viewBox="0.00 0.00 802.77 404.00" xmlns="http://www.w3.org/2000/svg" xmlns:xlink="http://www.w3.org/1999/xlink">
<g id="graph0" class="graph" transform="scale(1 1) rotate(0) translate(4 400)">
<title>proof_mpbir2and</title>
<polygon fill="white" stroke="none" points="-4,4 -4,-400 798.768,-400 798.768,4 -4,4"/>
<!-- n16319 -->
<g id="node1" class="node"><title>n16319</title>
</g>
<!-- n16331 -->
<g id="node2" class="node"><title>n16331</title>
<ellipse fill="cyan" stroke="black" cx="587.227" cy="-234" rx="37.0935" ry="18"/>
<text text-anchor="middle" x="587.227" y="-230.3" font-family="Times New Roman,serif" font-size="14.00">mpbird</text>
</g>
<!-- n16319&#45;&gt;n16331 -->
<g id="edge1" class="edge"><title>n16319&#45;&gt;n16331</title>
<path fill="none" stroke="lightgray" d="M308.796,-376.927C357.138,-373.765 461.923,-361.282 532.18,-312 550.616,-299.068 564.772,-277.709 573.964,-260.609"/>
<polygon fill="lightgray" stroke="lightgray" points="577.12,-262.124 578.555,-251.627 570.887,-258.938 577.12,-262.124"/>
<text text-anchor="middle" x="444.18" y="-374.8" font-family="Times New Roman,serif" font-size="14.00" fill="lightgray">wff ph</text>
</g>
<!-- n16320 -->
<g id="node3" class="node"><title>n16320</title>
</g>
<!-- n16319&#45;&gt;n16320 -->
<g id="edge16" class="edge"><title>n16319&#45;&gt;n16320</title>
</g>
<!-- QED -->
<g id="node12" class="node"><title>QED</title>
</g>
<!-- n16331&#45;&gt;QED -->
<g id="edge15" class="edge"><title>n16331&#45;&gt;QED</title>
<path fill="none" stroke="black" d="M624.328,-234C653.885,-234 695.605,-234 725.841,-234"/>
<polygon fill="black" stroke="black" points="726.019,-237.5 736.019,-234 726.018,-230.5 726.019,-237.5"/>
<text text-anchor="middle" x="680.273" y="-237.8" font-family="Times New Roman,serif" font-size="14.00">|&#45; ( ph &#45;&gt; ps )</text>
</g>
<!-- n16320&#45;&gt;n16331 -->
<g id="edge2" class="edge"><title>n16320&#45;&gt;n16331</title>
<path fill="none" stroke="lightgray" d="M308.045,-301.721C353.461,-293.826 451.373,-275.683 532.18,-253 537.257,-251.575 542.549,-249.925 547.749,-248.205"/>
<polygon fill="lightgray" stroke="lightgray" points="549.226,-251.399 557.556,-244.851 546.961,-244.776 549.226,-251.399"/>
<text text-anchor="middle" x="444.18" y="-296.8" font-family="Times New Roman,serif" font-size="14.00" fill="lightgray">wff ps</text>
</g>
<!-- n16323 -->
<g id="node4" class="node"><title>n16323</title>
</g>
<!-- n16320&#45;&gt;n16323 -->
<g id="edge17" class="edge"><title>n16320&#45;&gt;n16323</title>
</g>
<!-- n16323&#45;&gt;n16331 -->
<g id="edge3" class="edge"><title>n16323&#45;&gt;n16331</title>
<path fill="none" stroke="lightgray" d="M308.782,-234C360.146,-234 474.835,-234 539.522,-234"/>
<polygon fill="lightgray" stroke="lightgray" points="539.842,-237.5 549.841,-234 539.841,-230.5 539.842,-237.5"/>
<text text-anchor="middle" x="444.18" y="-237.8" font-family="Times New Roman,serif" font-size="14.00" fill="lightgray">wff ( ch /\ th )</text>
</g>
<!-- n16329 -->
<g id="node6" class="node"><title>n16329</title>
<ellipse fill="cyan" stroke="black" cx="281.635" cy="-162" rx="27" ry="18"/>
<text text-anchor="middle" x="281.635" y="-158.3" font-family="Times New Roman,serif" font-size="14.00">jca</text>
</g>
<!-- n16323&#45;&gt;n16329 -->
<g id="edge18" class="edge"><title>n16323&#45;&gt;n16329</title>
</g>
<!-- n16324 -->
<g id="node5" class="node"><title>n16324</title>
</g>
<!-- n16324&#45;&gt;n16329 -->
<g id="edge4" class="edge"><title>n16324&#45;&gt;n16329</title>
<path fill="none" stroke="lightgray" d="M80.4087,-297.303C111.189,-284.906 166.742,-260.063 207.09,-228 216.714,-220.352 216.278,-215.571 225.09,-207 234.31,-198.032 245.169,-188.949 254.828,-181.315"/>
<polygon fill="lightgray" stroke="lightgray" points="257.185,-183.917 262.936,-175.019 252.891,-178.388 257.185,-183.917"/>
<text text-anchor="middle" x="169.09" y="-277.8" font-family="Times New Roman,serif" font-size="14.00" fill="lightgray">wff ph</text>
</g>
<!-- n16325 -->
<g id="node7" class="node"><title>n16325</title>
</g>
<!-- n16324&#45;&gt;n16325 -->
<g id="edge10" class="edge"><title>n16324&#45;&gt;n16325</title>
</g>
<!-- n16329&#45;&gt;n16331 -->
<g id="edge9" class="edge"><title>n16329&#45;&gt;n16331</title>
<path fill="none" stroke="black" d="M308.045,-166.279C353.461,-174.174 451.373,-192.317 532.18,-215 537.257,-216.425 542.549,-218.075 547.749,-219.795"/>
<polygon fill="black" stroke="black" points="546.961,-223.224 557.556,-223.149 549.226,-216.601 546.961,-223.224"/>
<text text-anchor="middle" x="444.18" y="-218.8" font-family="Times New Roman,serif" font-size="14.00">|&#45; ( ph &#45;&gt; ( ch /\ th ) )</text>
</g>
<!-- n16330 -->
<g id="node11" class="node"><title>n16330</title>
<ellipse fill="orange" stroke="black" cx="281.635" cy="-90" rx="56.59" ry="18"/>
<text text-anchor="middle" x="281.635" y="-86.3" font-family="Times New Roman,serif" font-size="14.00">mpbir2and.3</text>
</g>
<!-- n16329&#45;&gt;n16330 -->
<g id="edge19" class="edge"><title>n16329&#45;&gt;n16330</title>
</g>
<!-- n16325&#45;&gt;n16329 -->
<g id="edge5" class="edge"><title>n16325&#45;&gt;n16329</title>
<path fill="none" stroke="lightgray" d="M81.4195,-226.295C121.339,-213.411 201.728,-187.467 247.237,-172.779"/>
<polygon fill="lightgray" stroke="lightgray" points="248.49,-176.052 256.932,-169.65 246.34,-169.39 248.49,-176.052"/>
<text text-anchor="middle" x="169.09" y="-212.8" font-family="Times New Roman,serif" font-size="14.00" fill="lightgray">wff ch</text>
</g>
<!-- n16326 -->
<g id="node8" class="node"><title>n16326</title>
</g>
<!-- n16325&#45;&gt;n16326 -->
<g id="edge11" class="edge"><title>n16325&#45;&gt;n16326</title>
</g>
<!-- n16326&#45;&gt;n16329 -->
<g id="edge6" class="edge"><title>n16326&#45;&gt;n16329</title>
<path fill="none" stroke="lightgray" d="M83.5728,-162C123.263,-162 199.055,-162 244.196,-162"/>
<polygon fill="lightgray" stroke="lightgray" points="244.428,-165.5 254.428,-162 244.428,-158.5 244.428,-165.5"/>
<text text-anchor="middle" x="169.09" y="-165.8" font-family="Times New Roman,serif" font-size="14.00" fill="lightgray">wff th</text>
</g>
<!-- n16327 -->
<g id="node9" class="node"><title>n16327</title>
<ellipse fill="orange" stroke="black" cx="56.545" cy="-90" rx="56.59" ry="18"/>
<text text-anchor="middle" x="56.545" y="-86.3" font-family="Times New Roman,serif" font-size="14.00">mpbir2and.1</text>
</g>
<!-- n16326&#45;&gt;n16327 -->
<g id="edge12" class="edge"><title>n16326&#45;&gt;n16327</title>
</g>
<!-- n16327&#45;&gt;n16329 -->
<g id="edge7" class="edge"><title>n16327&#45;&gt;n16329</title>
<path fill="none" stroke="black" d="M96.9155,-102.706C139.697,-116.514 207.303,-138.333 247.477,-151.299"/>
<polygon fill="black" stroke="black" points="246.476,-154.653 257.068,-154.394 248.626,-147.992 246.476,-154.653"/>
<text text-anchor="middle" x="169.09" y="-140.8" font-family="Times New Roman,serif" font-size="14.00">|&#45; ( ph &#45;&gt; ch )</text>
</g>
<!-- n16328 -->
<g id="node10" class="node"><title>n16328</title>
<ellipse fill="orange" stroke="black" cx="56.545" cy="-18" rx="56.59" ry="18"/>
<text text-anchor="middle" x="56.545" y="-14.3" font-family="Times New Roman,serif" font-size="14.00">mpbir2and.2</text>
</g>
<!-- n16327&#45;&gt;n16328 -->
<g id="edge13" class="edge"><title>n16327&#45;&gt;n16328</title>
</g>
<!-- n16328&#45;&gt;n16329 -->
<g id="edge8" class="edge"><title>n16328&#45;&gt;n16329</title>
<path fill="none" stroke="black" d="M92.2465,-32.1235C123.942,-45.9644 171.191,-69.0241 207.09,-97 216.523,-104.351 216.417,-108.766 225.09,-117 234.418,-125.856 245.297,-134.917 254.943,-142.565"/>
<polygon fill="black" stroke="black" points="252.996,-145.486 263.031,-148.882 257.304,-139.969 252.996,-145.486"/>
<text text-anchor="middle" x="169.09" y="-101.8" font-family="Times New Roman,serif" font-size="14.00">|&#45; ( ph &#45;&gt; th )</text>
</g>
<!-- n16330&#45;&gt;n16331 -->
<g id="edge14" class="edge"><title>n16330&#45;&gt;n16331</title>
<path fill="none" stroke="black" d="M337.036,-93.8684C390.855,-100.016 473.466,-115.916 532.18,-157 550.19,-169.602 564.201,-190.236 573.44,-206.973"/>
<polygon fill="black" stroke="black" points="570.58,-209.055 578.323,-216.287 576.78,-205.805 570.58,-209.055"/>
<text text-anchor="middle" x="444.18" y="-160.8" font-family="Times New Roman,serif" font-size="14.00">|&#45; ( ph &#45;&gt; ( ps &lt;&#45;&gt; ( ch /\ th ) ) )</text>
</g>
</g>
</svg>
