<?xml version="1.0" encoding="UTF-8" standalone="no"?>
<!DOCTYPE svg PUBLIC "-//W3C//DTD SVG 1.1//EN"
 "http://www.w3.org/Graphics/SVG/1.1/DTD/svg11.dtd">
<!-- Generated by graphviz version 2.38.0 (20140413.2041)
 -->
<!-- Title: proof_mt3 Pages: 1 -->
<svg width="531pt" height="260pt"
 viewBox="0.00 0.00 530.88 260.00" xmlns="http://www.w3.org/2000/svg" xmlns:xlink="http://www.w3.org/1999/xlink">
<g id="graph0" class="graph" transform="scale(1 1) rotate(0) translate(4 256)">
<title>proof_mt3</title>
<polygon fill="white" stroke="none" points="-4,4 -4,-256 526.882,-256 526.882,4 -4,4"/>
<!-- n2056 -->
<g id="node1" class="node"><title>n2056</title>
</g>
<!-- n2063 -->
<g id="node2" class="node"><title>n2063</title>
<ellipse fill="cyan" stroke="black" cx="364.391" cy="-165" rx="38.9931" ry="18"/>
<text text-anchor="middle" x="364.391" y="-161.3" font-family="Times New Roman,serif" font-size="14.00">notnotri</text>
</g>
<!-- n2056&#45;&gt;n2063 -->
<g id="edge1" class="edge"><title>n2056&#45;&gt;n2063</title>
<path fill="none" stroke="lightgray" d="M239.333,-191.644C260.908,-187.01 292.632,-180.197 318.598,-174.62"/>
<polygon fill="lightgray" stroke="lightgray" points="319.555,-177.995 328.597,-172.473 318.085,-171.151 319.555,-177.995"/>
<text text-anchor="middle" x="282.894" y="-190.8" font-family="Times New Roman,serif" font-size="14.00" fill="lightgray">wff ph</text>
</g>
<!-- n2062 -->
<g id="node4" class="node"><title>n2062</title>
<ellipse fill="cyan" stroke="black" cx="213.394" cy="-125" rx="27" ry="18"/>
<text text-anchor="middle" x="213.394" y="-121.3" font-family="Times New Roman,serif" font-size="14.00">mto</text>
</g>
<!-- n2056&#45;&gt;n2062 -->
<g id="edge11" class="edge"><title>n2056&#45;&gt;n2062</title>
</g>
<!-- QED -->
<g id="node8" class="node"><title>QED</title>
</g>
<!-- n2063&#45;&gt;QED -->
<g id="edge10" class="edge"><title>n2063&#45;&gt;QED</title>
<path fill="none" stroke="black" d="M403.568,-165C419.542,-165 438.077,-165 454.089,-165"/>
<polygon fill="black" stroke="black" points="454.195,-168.5 464.195,-165 454.195,-161.5 454.195,-168.5"/>
<text text-anchor="middle" x="433.888" y="-168.8" font-family="Times New Roman,serif" font-size="14.00">|&#45; ph</text>
</g>
<!-- n2058 -->
<g id="node3" class="node"><title>n2058</title>
</g>
<!-- n2058&#45;&gt;n2062 -->
<g id="edge2" class="edge"><title>n2058&#45;&gt;n2062</title>
<path fill="none" stroke="lightgray" d="M55.8357,-226.432C84.2311,-216.649 132.52,-197.762 168.394,-172 177.519,-165.448 186.26,-156.797 193.513,-148.704"/>
<polygon fill="lightgray" stroke="lightgray" points="196.362,-150.76 200.229,-140.897 191.055,-146.195 196.362,-150.76"/>
<text text-anchor="middle" x="124.394" y="-219.8" font-family="Times New Roman,serif" font-size="14.00" fill="lightgray">wff &#45;. ph</text>
</g>
<!-- n2059 -->
<g id="node5" class="node"><title>n2059</title>
</g>
<!-- n2058&#45;&gt;n2059 -->
<g id="edge7" class="edge"><title>n2058&#45;&gt;n2059</title>
</g>
<!-- n2062&#45;&gt;n2063 -->
<g id="edge6" class="edge"><title>n2062&#45;&gt;n2063</title>
<path fill="none" stroke="black" d="M238.665,-131.516C260.747,-137.444 293.85,-146.331 320.404,-153.46"/>
<polygon fill="black" stroke="black" points="319.659,-156.883 330.224,-156.096 321.474,-150.123 319.659,-156.883"/>
<text text-anchor="middle" x="282.894" y="-153.8" font-family="Times New Roman,serif" font-size="14.00">|&#45; &#45;. &#45;. ph</text>
</g>
<!-- n2059&#45;&gt;n2062 -->
<g id="edge3" class="edge"><title>n2059&#45;&gt;n2062</title>
<path fill="none" stroke="lightgray" d="M57.2529,-156.855C88.499,-150.44 142.093,-139.435 177.385,-132.189"/>
<polygon fill="lightgray" stroke="lightgray" points="178.17,-135.6 187.262,-130.161 176.762,-128.743 178.17,-135.6"/>
<text text-anchor="middle" x="124.394" y="-156.8" font-family="Times New Roman,serif" font-size="14.00" fill="lightgray">wff ps</text>
</g>
<!-- n2060 -->
<g id="node6" class="node"><title>n2060</title>
<ellipse fill="orange" stroke="black" cx="31.1972" cy="-90" rx="31.3957" ry="18"/>
<text text-anchor="middle" x="31.1972" y="-86.3" font-family="Times New Roman,serif" font-size="14.00">mt3.1</text>
</g>
<!-- n2059&#45;&gt;n2060 -->
<g id="edge8" class="edge"><title>n2059&#45;&gt;n2060</title>
</g>
<!-- n2060&#45;&gt;n2062 -->
<g id="edge4" class="edge"><title>n2060&#45;&gt;n2062</title>
<path fill="none" stroke="black" d="M61.1786,-95.4184C88.7656,-100.603 131.437,-108.693 168.394,-116 171.263,-116.567 174.235,-117.161 177.219,-117.762"/>
<polygon fill="black" stroke="black" points="176.78,-121.244 187.276,-119.803 178.172,-114.384 176.78,-121.244"/>
<text text-anchor="middle" x="124.394" y="-119.8" font-family="Times New Roman,serif" font-size="14.00">|&#45; &#45;. ps</text>
</g>
<!-- n2061 -->
<g id="node7" class="node"><title>n2061</title>
<ellipse fill="orange" stroke="black" cx="31.1972" cy="-18" rx="31.3957" ry="18"/>
<text text-anchor="middle" x="31.1972" y="-14.3" font-family="Times New Roman,serif" font-size="14.00">mt3.2</text>
</g>
<!-- n2060&#45;&gt;n2061 -->
<g id="edge9" class="edge"><title>n2060&#45;&gt;n2061</title>
</g>
<!-- n2061&#45;&gt;n2062 -->
<g id="edge5" class="edge"><title>n2061&#45;&gt;n2062</title>
<path fill="none" stroke="black" d="M58.4884,-26.9914C87.0355,-37.4537 133.251,-56.4727 168.394,-81 176.852,-86.9026 185.121,-94.5219 192.165,-101.757"/>
<polygon fill="black" stroke="black" points="189.89,-104.448 199.28,-109.357 195.001,-99.6645 189.89,-104.448"/>
<text text-anchor="middle" x="124.394" y="-84.8" font-family="Times New Roman,serif" font-size="14.00">|&#45; ( &#45;. ph &#45;&gt; ps )</text>
</g>
</g>
</svg>
