<?xml version="1.0" encoding="UTF-8" standalone="no"?>
<!DOCTYPE svg PUBLIC "-//W3C//DTD SVG 1.1//EN"
 "http://www.w3.org/Graphics/SVG/1.1/DTD/svg11.dtd">
<!-- Generated by graphviz version 2.38.0 (20140413.2041)
 -->
<!-- Title: proof_mtbii Pages: 1 -->
<svg width="753pt" height="439pt"
 viewBox="0.00 0.00 753.28 439.00" xmlns="http://www.w3.org/2000/svg" xmlns:xlink="http://www.w3.org/1999/xlink">
<g id="graph0" class="graph" transform="scale(1 1) rotate(0) translate(4 435)">
<title>proof_mtbii</title>
<polygon fill="white" stroke="none" points="-4,4 -4,-435 749.279,-435 749.279,4 -4,4"/>
<!-- n5870 -->
<g id="node1" class="node"><title>n5870</title>
</g>
<!-- n5879 -->
<g id="node2" class="node"><title>n5879</title>
<ellipse fill="cyan" stroke="black" cx="535.784" cy="-269" rx="27" ry="18"/>
<text text-anchor="middle" x="535.784" y="-265.3" font-family="Times New Roman,serif" font-size="14.00">mtoi</text>
</g>
<!-- n5870&#45;&gt;n5879 -->
<g id="edge1" class="edge"><title>n5870&#45;&gt;n5879</title>
<path fill="none" stroke="lightgray" d="M329.031,-409.234C367.81,-402.358 442.303,-384.562 490.784,-344 506.03,-331.245 517.233,-311.77 524.518,-295.862"/>
<polygon fill="lightgray" stroke="lightgray" points="527.805,-297.078 528.549,-286.509 521.377,-294.307 527.805,-297.078"/>
<text text-anchor="middle" x="427.784" y="-404.8" font-family="Times New Roman,serif" font-size="14.00" fill="lightgray">wff ph</text>
</g>
<!-- n5871 -->
<g id="node3" class="node"><title>n5871</title>
</g>
<!-- n5870&#45;&gt;n5871 -->
<g id="edge14" class="edge"><title>n5870&#45;&gt;n5871</title>
</g>
<!-- QED -->
<g id="node11" class="node"><title>QED</title>
</g>
<!-- n5879&#45;&gt;QED -->
<g id="edge13" class="edge"><title>n5879&#45;&gt;QED</title>
<path fill="none" stroke="black" d="M563.085,-269C593.012,-269 642.168,-269 676.437,-269"/>
<polygon fill="black" stroke="black" points="676.557,-272.5 686.557,-269 676.557,-265.5 676.557,-272.5"/>
<text text-anchor="middle" x="624.784" y="-272.8" font-family="Times New Roman,serif" font-size="14.00">|&#45; ( ph &#45;&gt; &#45;. ch )</text>
</g>
<!-- n5871&#45;&gt;n5879 -->
<g id="edge2" class="edge"><title>n5871&#45;&gt;n5879</title>
<path fill="none" stroke="lightgray" d="M328.142,-335.148C364.226,-326.301 433.502,-308.377 490.784,-288 495.045,-286.485 499.479,-284.756 503.821,-282.974"/>
<polygon fill="lightgray" stroke="lightgray" points="505.239,-286.174 513.078,-279.047 502.505,-279.73 505.239,-286.174"/>
<text text-anchor="middle" x="427.784" y="-328.8" font-family="Times New Roman,serif" font-size="14.00" fill="lightgray">wff ch</text>
</g>
<!-- n5872 -->
<g id="node4" class="node"><title>n5872</title>
</g>
<!-- n5871&#45;&gt;n5872 -->
<g id="edge15" class="edge"><title>n5871&#45;&gt;n5872</title>
</g>
<!-- n5872&#45;&gt;n5879 -->
<g id="edge3" class="edge"><title>n5872&#45;&gt;n5879</title>
<path fill="none" stroke="lightgray" d="M329.66,-269C370.941,-269 451.469,-269 498.41,-269"/>
<polygon fill="lightgray" stroke="lightgray" points="498.453,-272.5 508.453,-269 498.453,-265.5 498.453,-272.5"/>
<text text-anchor="middle" x="427.784" y="-272.8" font-family="Times New Roman,serif" font-size="14.00" fill="lightgray">wff ps</text>
</g>
<!-- n5873 -->
<g id="node5" class="node"><title>n5873</title>
<ellipse fill="orange" stroke="black" cx="302.588" cy="-197" rx="44.393" ry="18"/>
<text text-anchor="middle" x="302.588" y="-193.3" font-family="Times New Roman,serif" font-size="14.00">mtbii.min</text>
</g>
<!-- n5872&#45;&gt;n5873 -->
<g id="edge16" class="edge"><title>n5872&#45;&gt;n5873</title>
</g>
<!-- n5873&#45;&gt;n5879 -->
<g id="edge4" class="edge"><title>n5873&#45;&gt;n5879</title>
<path fill="none" stroke="black" d="M340.981,-206.039C379.095,-215.611 439.708,-231.831 490.784,-250 495.045,-251.515 499.479,-253.244 503.821,-255.026"/>
<polygon fill="black" stroke="black" points="502.505,-258.27 513.078,-258.953 505.239,-251.826 502.505,-258.27"/>
<text text-anchor="middle" x="427.784" y="-253.8" font-family="Times New Roman,serif" font-size="14.00">|&#45; &#45;. ps</text>
</g>
<!-- n5878 -->
<g id="node7" class="node"><title>n5878</title>
<ellipse fill="cyan" stroke="black" cx="302.588" cy="-125" rx="38.9931" ry="18"/>
<text text-anchor="middle" x="302.588" y="-121.3" font-family="Times New Roman,serif" font-size="14.00">biimprd</text>
</g>
<!-- n5873&#45;&gt;n5878 -->
<g id="edge17" class="edge"><title>n5873&#45;&gt;n5878</title>
</g>
<!-- n5874 -->
<g id="node6" class="node"><title>n5874</title>
</g>
<!-- n5874&#45;&gt;n5878 -->
<g id="edge5" class="edge"><title>n5874&#45;&gt;n5878</title>
<path fill="none" stroke="lightgray" d="M70.3596,-229.193C108.668,-221.215 183.196,-203.069 240.392,-173 253.345,-166.191 266.298,-156.544 276.93,-147.683"/>
<polygon fill="lightgray" stroke="lightgray" points="279.265,-150.291 284.569,-141.12 274.703,-144.982 279.265,-150.291"/>
<text text-anchor="middle" x="173.392" y="-223.8" font-family="Times New Roman,serif" font-size="14.00" fill="lightgray">wff ph</text>
</g>
<!-- n5875 -->
<g id="node8" class="node"><title>n5875</title>
</g>
<!-- n5874&#45;&gt;n5875 -->
<g id="edge10" class="edge"><title>n5874&#45;&gt;n5875</title>
</g>
<!-- n5878&#45;&gt;n5879 -->
<g id="edge9" class="edge"><title>n5878&#45;&gt;n5879</title>
<path fill="none" stroke="black" d="M340.047,-130.568C380.738,-138.388 446.649,-156.034 490.784,-193 506.271,-205.971 517.514,-225.874 524.757,-242.059"/>
<polygon fill="black" stroke="black" points="521.65,-243.699 528.752,-251.561 528.102,-240.986 521.65,-243.699"/>
<text text-anchor="middle" x="427.784" y="-196.8" font-family="Times New Roman,serif" font-size="14.00">|&#45; ( ph &#45;&gt; ( ch &#45;&gt; ps ) )</text>
</g>
<!-- n5875&#45;&gt;n5878 -->
<g id="edge6" class="edge"><title>n5875&#45;&gt;n5878</title>
<path fill="none" stroke="lightgray" d="M70.7173,-158.317C113.674,-152.118 201.019,-139.513 255.1,-131.709"/>
<polygon fill="lightgray" stroke="lightgray" points="255.724,-135.155 265.122,-130.263 254.724,-128.227 255.724,-135.155"/>
<text text-anchor="middle" x="173.392" y="-157.8" font-family="Times New Roman,serif" font-size="14.00" fill="lightgray">wff ps</text>
</g>
<!-- n5876 -->
<g id="node9" class="node"><title>n5876</title>
</g>
<!-- n5875&#45;&gt;n5876 -->
<g id="edge11" class="edge"><title>n5875&#45;&gt;n5876</title>
</g>
<!-- n5876&#45;&gt;n5878 -->
<g id="edge7" class="edge"><title>n5876&#45;&gt;n5878</title>
<path fill="none" stroke="lightgray" d="M70.7898,-93.2963C108.104,-98.1277 179.619,-107.484 240.392,-116 245.191,-116.672 250.2,-117.387 255.195,-118.109"/>
<polygon fill="lightgray" stroke="lightgray" points="254.958,-121.611 265.358,-119.588 255.966,-114.684 254.958,-121.611"/>
<text text-anchor="middle" x="173.392" y="-119.8" font-family="Times New Roman,serif" font-size="14.00" fill="lightgray">wff ch</text>
</g>
<!-- n5877 -->
<g id="node10" class="node"><title>n5877</title>
<ellipse fill="orange" stroke="black" cx="44.1961" cy="-18" rx="44.393" ry="18"/>
<text text-anchor="middle" x="44.1961" y="-14.3" font-family="Times New Roman,serif" font-size="14.00">mtbii.maj</text>
</g>
<!-- n5876&#45;&gt;n5877 -->
<g id="edge12" class="edge"><title>n5876&#45;&gt;n5877</title>
</g>
<!-- n5877&#45;&gt;n5878 -->
<g id="edge8" class="edge"><title>n5877&#45;&gt;n5878</title>
<path fill="none" stroke="black" d="M83.684,-26.2818C124.128,-35.8738 188.899,-53.7912 240.392,-80 252.633,-86.2305 265.044,-94.8402 275.459,-102.862"/>
<polygon fill="black" stroke="black" points="273.333,-105.642 283.343,-109.112 277.682,-100.157 273.333,-105.642"/>
<text text-anchor="middle" x="173.392" y="-83.8" font-family="Times New Roman,serif" font-size="14.00">|&#45; ( ph &#45;&gt; ( ps &lt;&#45;&gt; ch ) )</text>
</g>
</g>
</svg>
