<?xml version="1.0" encoding="UTF-8" standalone="no"?>
<!DOCTYPE svg PUBLIC "-//W3C//DTD SVG 1.1//EN"
 "http://www.w3.org/Graphics/SVG/1.1/DTD/svg11.dtd">
<!-- Generated by graphviz version 2.38.0 (20140413.2041)
 -->
<!-- Title: proof_mtbi Pages: 1 -->
<svg width="566pt" height="332pt"
 viewBox="0.00 0.00 565.88 332.00" xmlns="http://www.w3.org/2000/svg" xmlns:xlink="http://www.w3.org/1999/xlink">
<g id="graph0" class="graph" transform="scale(1 1) rotate(0) translate(4 328)">
<title>proof_mtbi</title>
<polygon fill="white" stroke="none" points="-4,4 -4,-328 561.882,-328 561.882,4 -4,4"/>
<!-- n5834 -->
<g id="node1" class="node"><title>n5834</title>
</g>
<!-- n5841 -->
<g id="node2" class="node"><title>n5841</title>
<ellipse fill="cyan" stroke="black" cx="399.388" cy="-197" rx="27" ry="18"/>
<text text-anchor="middle" x="399.388" y="-193.3" font-family="Times New Roman,serif" font-size="14.00">mto</text>
</g>
<!-- n5834&#45;&gt;n5841 -->
<g id="edge1" class="edge"><title>n5834&#45;&gt;n5841</title>
<path fill="none" stroke="lightgray" d="M247.733,-297.2C274.585,-286.234 319.944,-265.874 354.388,-241 362.749,-234.962 370.993,-227.308 378.045,-220.083"/>
<polygon fill="lightgray" stroke="lightgray" points="380.87,-222.189 385.177,-212.509 375.774,-217.39 380.87,-222.189"/>
<text text-anchor="middle" x="316.388" y="-286.8" font-family="Times New Roman,serif" font-size="14.00" fill="lightgray">wff ps</text>
</g>
<!-- n5835 -->
<g id="node3" class="node"><title>n5835</title>
</g>
<!-- n5834&#45;&gt;n5835 -->
<g id="edge11" class="edge"><title>n5834&#45;&gt;n5835</title>
</g>
<!-- QED -->
<g id="node9" class="node"><title>QED</title>
</g>
<!-- n5841&#45;&gt;QED -->
<g id="edge10" class="edge"><title>n5841&#45;&gt;QED</title>
<path fill="none" stroke="black" d="M426.445,-197C444.401,-197 468.577,-197 488.795,-197"/>
<polygon fill="black" stroke="black" points="488.953,-200.5 498.953,-197 488.953,-193.5 488.953,-200.5"/>
<text text-anchor="middle" x="462.888" y="-200.8" font-family="Times New Roman,serif" font-size="14.00">|&#45; &#45;. ps</text>
</g>
<!-- n5835&#45;&gt;n5841 -->
<g id="edge2" class="edge"><title>n5835&#45;&gt;n5841</title>
<path fill="none" stroke="lightgray" d="M249.834,-228.699C279.622,-222.343 329.736,-211.649 363.422,-204.461"/>
<polygon fill="lightgray" stroke="lightgray" points="364.259,-207.861 373.309,-202.351 362.799,-201.015 364.259,-207.861"/>
<text text-anchor="middle" x="316.388" y="-225.8" font-family="Times New Roman,serif" font-size="14.00" fill="lightgray">wff ph</text>
</g>
<!-- n5836 -->
<g id="node4" class="node"><title>n5836</title>
<ellipse fill="orange" stroke="black" cx="223.991" cy="-162" rx="33.5952" ry="18"/>
<text text-anchor="middle" x="223.991" y="-158.3" font-family="Times New Roman,serif" font-size="14.00">mtbi.1</text>
</g>
<!-- n5835&#45;&gt;n5836 -->
<g id="edge12" class="edge"><title>n5835&#45;&gt;n5836</title>
</g>
<!-- n5836&#45;&gt;n5841 -->
<g id="edge3" class="edge"><title>n5836&#45;&gt;n5841</title>
<path fill="none" stroke="black" d="M255.848,-168.169C282.067,-173.418 320.702,-181.171 354.388,-188 357.253,-188.581 360.223,-189.185 363.206,-189.792"/>
<polygon fill="black" stroke="black" points="362.763,-193.274 373.261,-191.845 364.163,-186.416 362.763,-193.274"/>
<text text-anchor="middle" x="316.388" y="-191.8" font-family="Times New Roman,serif" font-size="14.00">|&#45; &#45;. ph</text>
</g>
<!-- n5840 -->
<g id="node6" class="node"><title>n5840</title>
<ellipse fill="cyan" stroke="black" cx="223.991" cy="-90" rx="36.2938" ry="18"/>
<text text-anchor="middle" x="223.991" y="-86.3" font-family="Times New Roman,serif" font-size="14.00">biimpri</text>
</g>
<!-- n5836&#45;&gt;n5840 -->
<g id="edge13" class="edge"><title>n5836&#45;&gt;n5840</title>
</g>
<!-- n5837 -->
<g id="node5" class="node"><title>n5837</title>
</g>
<!-- n5837&#45;&gt;n5840 -->
<g id="edge4" class="edge"><title>n5837&#45;&gt;n5840</title>
<path fill="none" stroke="lightgray" d="M57.4976,-153.315C89.0867,-141.23 146.718,-119.181 184.94,-104.558"/>
<polygon fill="lightgray" stroke="lightgray" points="186.6,-107.67 194.689,-100.828 184.099,-101.132 186.6,-107.67"/>
<text text-anchor="middle" x="127.594" y="-144.8" font-family="Times New Roman,serif" font-size="14.00" fill="lightgray">wff ph</text>
</g>
<!-- n5838 -->
<g id="node7" class="node"><title>n5838</title>
</g>
<!-- n5837&#45;&gt;n5838 -->
<g id="edge8" class="edge"><title>n5837&#45;&gt;n5838</title>
</g>
<!-- n5840&#45;&gt;n5841 -->
<g id="edge7" class="edge"><title>n5840&#45;&gt;n5841</title>
<path fill="none" stroke="black" d="M253.157,-100.889C280.363,-112.089 322.081,-131.101 354.388,-154 362.579,-159.806 370.687,-167.146 377.669,-174.11"/>
<polygon fill="black" stroke="black" points="375.283,-176.678 384.753,-181.429 380.313,-171.81 375.283,-176.678"/>
<text text-anchor="middle" x="316.388" y="-157.8" font-family="Times New Roman,serif" font-size="14.00">|&#45; ( ps &#45;&gt; ph )</text>
</g>
<!-- n5838&#45;&gt;n5840 -->
<g id="edge5" class="edge"><title>n5838&#45;&gt;n5840</title>
<path fill="none" stroke="lightgray" d="M60.9645,-90C90.9315,-90 140.58,-90 177.035,-90"/>
<polygon fill="lightgray" stroke="lightgray" points="177.413,-93.5001 187.413,-90 177.413,-86.5001 177.413,-93.5001"/>
<text text-anchor="middle" x="127.594" y="-93.8" font-family="Times New Roman,serif" font-size="14.00" fill="lightgray">wff ps</text>
</g>
<!-- n5839 -->
<g id="node8" class="node"><title>n5839</title>
<ellipse fill="orange" stroke="black" cx="33.797" cy="-18" rx="33.5952" ry="18"/>
<text text-anchor="middle" x="33.797" y="-14.3" font-family="Times New Roman,serif" font-size="14.00">mtbi.2</text>
</g>
<!-- n5838&#45;&gt;n5839 -->
<g id="edge9" class="edge"><title>n5838&#45;&gt;n5839</title>
</g>
<!-- n5839&#45;&gt;n5840 -->
<g id="edge6" class="edge"><title>n5839&#45;&gt;n5840</title>
<path fill="none" stroke="black" d="M61.7606,-28.3158C94.135,-40.7018 148.632,-61.5515 185.194,-75.5396"/>
<polygon fill="black" stroke="black" points="183.947,-78.8098 194.538,-79.1142 186.448,-72.272 183.947,-78.8098"/>
<text text-anchor="middle" x="127.594" y="-72.8" font-family="Times New Roman,serif" font-size="14.00">|&#45; ( ph &lt;&#45;&gt; ps )</text>
</g>
</g>
</svg>
