<?xml version="1.0" encoding="UTF-8" standalone="no"?>
<!DOCTYPE svg PUBLIC "-//W3C//DTD SVG 1.1//EN"
 "http://www.w3.org/Graphics/SVG/1.1/DTD/svg11.dtd">
<!-- Generated by graphviz version 2.38.0 (20140413.2041)
 -->
<!-- Title: proof_mtord Pages: 1 -->
<svg width="1215pt" height="725pt"
 viewBox="0.00 0.00 1215.17 725.00" xmlns="http://www.w3.org/2000/svg" xmlns:xlink="http://www.w3.org/1999/xlink">
<g id="graph0" class="graph" transform="scale(1 1) rotate(0) translate(4 721)">
<title>proof_mtord</title>
<polygon fill="white" stroke="none" points="-4,4 -4,-721 1211.17,-721 1211.17,4 -4,4"/>
<!-- n11379 -->
<g id="node1" class="node"><title>n11379</title>
</g>
<!-- n11404 -->
<g id="node2" class="node"><title>n11404</title>
<ellipse fill="cyan" stroke="black" cx="994.776" cy="-555" rx="29.795" ry="18"/>
<text text-anchor="middle" x="994.776" y="-551.3" font-family="Times New Roman,serif" font-size="14.00">mtod</text>
</g>
<!-- n11379&#45;&gt;n11404 -->
<g id="edge1" class="edge"><title>n11379&#45;&gt;n11404</title>
<path fill="none" stroke="lightgray" d="M792.411,-694.411C829.668,-686.555 900.104,-667.506 946.879,-629 962.244,-616.351 974.153,-597.301 982.126,-581.698"/>
<polygon fill="lightgray" stroke="lightgray" points="985.364,-583.041 986.577,-572.515 979.066,-579.987 985.364,-583.041"/>
<text text-anchor="middle" x="885.379" y="-688.8" font-family="Times New Roman,serif" font-size="14.00" fill="lightgray">wff ph</text>
</g>
<!-- n11380 -->
<g id="node3" class="node"><title>n11380</title>
</g>
<!-- n11379&#45;&gt;n11380 -->
<g id="edge32" class="edge"><title>n11379&#45;&gt;n11380</title>
</g>
<!-- QED -->
<g id="node21" class="node"><title>QED</title>
</g>
<!-- n11404&#45;&gt;QED -->
<g id="edge31" class="edge"><title>n11404&#45;&gt;QED</title>
<path fill="none" stroke="black" d="M1024.88,-555C1055.7,-555 1104.49,-555 1138.46,-555"/>
<polygon fill="black" stroke="black" points="1138.49,-558.5 1148.49,-555 1138.49,-551.5 1138.49,-558.5"/>
<text text-anchor="middle" x="1086.67" y="-558.8" font-family="Times New Roman,serif" font-size="14.00">|&#45; ( ph &#45;&gt; &#45;. ps )</text>
</g>
<!-- n11380&#45;&gt;n11404 -->
<g id="edge2" class="edge"><title>n11380&#45;&gt;n11404</title>
<path fill="none" stroke="lightgray" d="M791.59,-620.629C826.359,-611.352 892.079,-593.133 946.879,-574 951.194,-572.493 955.693,-570.814 960.122,-569.095"/>
<polygon fill="lightgray" stroke="lightgray" points="961.612,-572.269 969.608,-565.319 959.023,-565.765 961.612,-572.269"/>
<text text-anchor="middle" x="885.379" y="-613.8" font-family="Times New Roman,serif" font-size="14.00" fill="lightgray">wff ps</text>
</g>
<!-- n11381 -->
<g id="node4" class="node"><title>n11381</title>
</g>
<!-- n11380&#45;&gt;n11381 -->
<g id="edge33" class="edge"><title>n11380&#45;&gt;n11381</title>
</g>
<!-- n11381&#45;&gt;n11404 -->
<g id="edge3" class="edge"><title>n11381&#45;&gt;n11404</title>
<path fill="none" stroke="lightgray" d="M793.663,-555C833.295,-555 908.373,-555 954.452,-555"/>
<polygon fill="lightgray" stroke="lightgray" points="954.661,-558.5 964.661,-555 954.661,-551.5 954.661,-558.5"/>
<text text-anchor="middle" x="885.379" y="-558.8" font-family="Times New Roman,serif" font-size="14.00" fill="lightgray">wff th</text>
</g>
<!-- n11382 -->
<g id="node5" class="node"><title>n11382</title>
<ellipse fill="orange" stroke="black" cx="766.232" cy="-483" rx="39.7935" ry="18"/>
<text text-anchor="middle" x="766.232" y="-479.3" font-family="Times New Roman,serif" font-size="14.00">mtord.2</text>
</g>
<!-- n11381&#45;&gt;n11382 -->
<g id="edge34" class="edge"><title>n11381&#45;&gt;n11382</title>
</g>
<!-- n11382&#45;&gt;n11404 -->
<g id="edge4" class="edge"><title>n11382&#45;&gt;n11404</title>
<path fill="none" stroke="black" d="M800.986,-491.894C837.327,-501.717 896.684,-518.475 946.879,-536 951.194,-537.507 955.693,-539.186 960.122,-540.905"/>
<polygon fill="black" stroke="black" points="959.023,-544.235 969.608,-544.681 961.612,-537.731 959.023,-544.235"/>
<text text-anchor="middle" x="885.379" y="-539.8" font-family="Times New Roman,serif" font-size="14.00">|&#45; ( ph &#45;&gt; &#45;. th )</text>
</g>
<!-- n11403 -->
<g id="node7" class="node"><title>n11403</title>
<ellipse fill="cyan" stroke="black" cx="766.232" cy="-411" rx="29.4969" ry="18"/>
<text text-anchor="middle" x="766.232" y="-407.3" font-family="Times New Roman,serif" font-size="14.00">mpid</text>
</g>
<!-- n11382&#45;&gt;n11403 -->
<g id="edge35" class="edge"><title>n11382&#45;&gt;n11403</title>
</g>
<!-- n11383 -->
<g id="node6" class="node"><title>n11383</title>
</g>
<!-- n11383&#45;&gt;n11403 -->
<g id="edge5" class="edge"><title>n11383&#45;&gt;n11403</title>
<path fill="none" stroke="lightgray" d="M492.98,-593.663C542.363,-595.294 649.914,-591.31 708.586,-532 732.998,-507.322 710.832,-486.931 726.586,-456 730.684,-447.953 736.509,-440.139 742.397,-433.343"/>
<polygon fill="lightgray" stroke="lightgray" points="745.062,-435.616 749.238,-425.879 739.901,-430.886 745.062,-435.616"/>
<text text-anchor="middle" x="616.086" y="-596.8" font-family="Times New Roman,serif" font-size="14.00" fill="lightgray">wff ph</text>
</g>
<!-- n11384 -->
<g id="node8" class="node"><title>n11384</title>
</g>
<!-- n11383&#45;&gt;n11384 -->
<g id="edge26" class="edge"><title>n11383&#45;&gt;n11384</title>
</g>
<!-- n11403&#45;&gt;n11404 -->
<g id="edge25" class="edge"><title>n11403&#45;&gt;n11404</title>
<path fill="none" stroke="black" d="M794.64,-415.845C832.45,-423.696 901.117,-442.281 946.879,-480 962.482,-492.861 974.441,-512.333 982.377,-528.213"/>
<polygon fill="black" stroke="black" points="979.353,-530.005 986.795,-537.546 985.68,-527.01 979.353,-530.005"/>
<text text-anchor="middle" x="885.379" y="-483.8" font-family="Times New Roman,serif" font-size="14.00">|&#45; ( ph &#45;&gt; ( ps &#45;&gt; th ) )</text>
</g>
<!-- n11384&#45;&gt;n11403 -->
<g id="edge6" class="edge"><title>n11384&#45;&gt;n11403</title>
<path fill="none" stroke="lightgray" d="M492.988,-517.339C538.81,-511.83 635.866,-496.408 708.586,-459 721.249,-452.486 733.531,-442.656 743.403,-433.585"/>
<polygon fill="lightgray" stroke="lightgray" points="745.953,-435.989 750.765,-426.55 741.117,-430.928 745.953,-435.989"/>
<text text-anchor="middle" x="616.086" y="-516.8" font-family="Times New Roman,serif" font-size="14.00" fill="lightgray">wff ps</text>
</g>
<!-- n11386 -->
<g id="node9" class="node"><title>n11386</title>
</g>
<!-- n11384&#45;&gt;n11386 -->
<g id="edge27" class="edge"><title>n11384&#45;&gt;n11386</title>
</g>
<!-- n11386&#45;&gt;n11403 -->
<g id="edge7" class="edge"><title>n11386&#45;&gt;n11403</title>
<path fill="none" stroke="lightgray" d="M492.63,-444.813C545.264,-438.285 665.577,-423.361 727.25,-415.711"/>
<polygon fill="lightgray" stroke="lightgray" points="727.847,-419.164 737.34,-414.46 726.986,-412.217 727.847,-419.164"/>
<text text-anchor="middle" x="616.086" y="-443.8" font-family="Times New Roman,serif" font-size="14.00" fill="lightgray">wff &#45;. ch</text>
</g>
<!-- n11387 -->
<g id="node10" class="node"><title>n11387</title>
</g>
<!-- n11386&#45;&gt;n11387 -->
<g id="edge28" class="edge"><title>n11386&#45;&gt;n11387</title>
</g>
<!-- n11387&#45;&gt;n11403 -->
<g id="edge8" class="edge"><title>n11387&#45;&gt;n11403</title>
<path fill="none" stroke="lightgray" d="M492.74,-378.346C536.988,-382.464 630.163,-391.558 708.586,-402 714.869,-402.837 721.53,-403.814 727.993,-404.81"/>
<polygon fill="lightgray" stroke="lightgray" points="727.478,-408.272 737.901,-406.373 728.569,-401.357 727.478,-408.272"/>
<text text-anchor="middle" x="616.086" y="-405.8" font-family="Times New Roman,serif" font-size="14.00" fill="lightgray">wff th</text>
</g>
<!-- n11388 -->
<g id="node11" class="node"><title>n11388</title>
<ellipse fill="orange" stroke="black" cx="465.939" cy="-304" rx="39.7935" ry="18"/>
<text text-anchor="middle" x="465.939" y="-300.3" font-family="Times New Roman,serif" font-size="14.00">mtord.1</text>
</g>
<!-- n11387&#45;&gt;n11388 -->
<g id="edge29" class="edge"><title>n11387&#45;&gt;n11388</title>
</g>
<!-- n11388&#45;&gt;n11403 -->
<g id="edge9" class="edge"><title>n11388&#45;&gt;n11403</title>
<path fill="none" stroke="black" d="M504.88,-307.486C554.169,-313.239 641.804,-327.71 708.586,-362 721.364,-368.561 733.663,-378.584 743.516,-387.859"/>
<polygon fill="black" stroke="black" points="741.265,-390.555 750.856,-395.057 746.166,-385.557 741.265,-390.555"/>
<text text-anchor="middle" x="616.086" y="-365.8" font-family="Times New Roman,serif" font-size="14.00">|&#45; ( ph &#45;&gt; &#45;. ch )</text>
</g>
<!-- n11402 -->
<g id="node13" class="node"><title>n11402</title>
<ellipse fill="cyan" stroke="black" cx="465.939" cy="-232" rx="32.4942" ry="18"/>
<text text-anchor="middle" x="465.939" y="-228.3" font-family="Times New Roman,serif" font-size="14.00">syl6ib</text>
</g>
<!-- n11388&#45;&gt;n11402 -->
<g id="edge30" class="edge"><title>n11388&#45;&gt;n11402</title>
</g>
<!-- n11389 -->
<g id="node12" class="node"><title>n11389</title>
</g>
<!-- n11389&#45;&gt;n11402 -->
<g id="edge10" class="edge"><title>n11389&#45;&gt;n11402</title>
<path fill="none" stroke="lightgray" d="M193.577,-414.49C242.75,-415.805 349.848,-411.192 408.293,-352 432.378,-327.607 410.69,-307.523 426.293,-277 430.336,-269.091 436.041,-261.404 441.83,-254.686"/>
<polygon fill="lightgray" stroke="lightgray" points="444.421,-257.039 448.57,-247.29 439.247,-252.324 444.421,-257.039"/>
<text text-anchor="middle" x="316.293" y="-417.8" font-family="Times New Roman,serif" font-size="14.00" fill="lightgray">wff ph</text>
</g>
<!-- n11390 -->
<g id="node14" class="node"><title>n11390</title>
</g>
<!-- n11389&#45;&gt;n11390 -->
<g id="edge20" class="edge"><title>n11389&#45;&gt;n11390</title>
</g>
<!-- n11402&#45;&gt;n11403 -->
<g id="edge19" class="edge"><title>n11402&#45;&gt;n11403</title>
<path fill="none" stroke="black" d="M498.525,-231.271C548.617,-231.768 646.904,-239.685 708.586,-290 737.433,-313.531 752.374,-355.116 759.508,-382.869"/>
<polygon fill="black" stroke="black" points="756.143,-383.849 761.872,-392.762 762.952,-382.222 756.143,-383.849"/>
<text text-anchor="middle" x="616.086" y="-293.8" font-family="Times New Roman,serif" font-size="14.00">|&#45; ( ph &#45;&gt; ( ps &#45;&gt; ( &#45;. ch &#45;&gt; th ) ) )</text>
</g>
<!-- n11390&#45;&gt;n11402 -->
<g id="edge11" class="edge"><title>n11390&#45;&gt;n11402</title>
<path fill="none" stroke="lightgray" d="M193.588,-338.317C239.22,-332.772 335.874,-317.299 408.293,-280 420.772,-273.573 432.883,-263.929 442.683,-254.968"/>
<polygon fill="lightgray" stroke="lightgray" points="445.173,-257.429 450.009,-248.002 440.35,-252.356 445.173,-257.429"/>
<text text-anchor="middle" x="316.293" y="-336.8" font-family="Times New Roman,serif" font-size="14.00" fill="lightgray">wff ps</text>
</g>
<!-- n11393 -->
<g id="node15" class="node"><title>n11393</title>
</g>
<!-- n11390&#45;&gt;n11393 -->
<g id="edge21" class="edge"><title>n11390&#45;&gt;n11393</title>
</g>
<!-- n11393&#45;&gt;n11402 -->
<g id="edge12" class="edge"><title>n11393&#45;&gt;n11402</title>
<path fill="none" stroke="lightgray" d="M193.251,-265.813C244.777,-259.401 361.379,-244.889 423.754,-237.126"/>
<polygon fill="lightgray" stroke="lightgray" points="424.52,-240.558 434.012,-235.849 423.656,-233.611 424.52,-240.558"/>
<text text-anchor="middle" x="316.293" y="-264.8" font-family="Times New Roman,serif" font-size="14.00" fill="lightgray">wff ( ch \/ th )</text>
</g>
<!-- n11397 -->
<g id="node16" class="node"><title>n11397</title>
</g>
<!-- n11393&#45;&gt;n11397 -->
<g id="edge22" class="edge"><title>n11393&#45;&gt;n11397</title>
</g>
<!-- n11397&#45;&gt;n11402 -->
<g id="edge13" class="edge"><title>n11397&#45;&gt;n11402</title>
<path fill="none" stroke="lightgray" d="M193.693,-199.384C237.899,-203.527 330.402,-212.611 408.293,-223 413.526,-223.698 419.021,-224.493 424.445,-225.314"/>
<polygon fill="lightgray" stroke="lightgray" points="424.281,-228.831 434.7,-226.909 425.357,-221.914 424.281,-228.831"/>
<text text-anchor="middle" x="316.293" y="-226.8" font-family="Times New Roman,serif" font-size="14.00" fill="lightgray">wff ( &#45;. ch &#45;&gt; th )</text>
</g>
<!-- n11398 -->
<g id="node17" class="node"><title>n11398</title>
<ellipse fill="orange" stroke="black" cx="166.646" cy="-125" rx="39.7935" ry="18"/>
<text text-anchor="middle" x="166.646" y="-121.3" font-family="Times New Roman,serif" font-size="14.00">mtord.3</text>
</g>
<!-- n11397&#45;&gt;n11398 -->
<g id="edge23" class="edge"><title>n11397&#45;&gt;n11398</title>
</g>
<!-- n11398&#45;&gt;n11402 -->
<g id="edge14" class="edge"><title>n11398&#45;&gt;n11402</title>
<path fill="none" stroke="black" d="M205.801,-128.867C254.908,-135.042 341.81,-150.087 408.293,-184 420.797,-190.378 432.912,-200.015 442.707,-208.984"/>
<polygon fill="black" stroke="black" points="440.374,-211.595 450.029,-215.959 445.203,-206.527 440.374,-211.595"/>
<text text-anchor="middle" x="316.293" y="-187.8" font-family="Times New Roman,serif" font-size="14.00">|&#45; ( ph &#45;&gt; ( ps &#45;&gt; ( ch \/ th ) ) )</text>
</g>
<!-- n11401 -->
<g id="node19" class="node"><title>n11401</title>
<ellipse fill="lawngreen" stroke="black" cx="166.646" cy="-53" rx="29.4969" ry="18"/>
<text text-anchor="middle" x="166.646" y="-49.3" font-family="Times New Roman,serif" font-size="14.00">df&#45;or</text>
</g>
<!-- n11398&#45;&gt;n11401 -->
<g id="edge24" class="edge"><title>n11398&#45;&gt;n11401</title>
</g>
<!-- n11399 -->
<g id="node18" class="node"><title>n11399</title>
</g>
<!-- n11399&#45;&gt;n11401 -->
<g id="edge15" class="edge"><title>n11399&#45;&gt;n11401</title>
<path fill="none" stroke="lightgray" d="M52.2916,-83.4703C73.6315,-77.734 104.982,-69.307 129.307,-62.7683"/>
<polygon fill="lightgray" stroke="lightgray" points="130.503,-66.071 139.252,-60.095 128.686,-59.3109 130.503,-66.071"/>
<text text-anchor="middle" x="90.5" y="-82.8" font-family="Times New Roman,serif" font-size="14.00" fill="lightgray">wff ch</text>
</g>
<!-- n11400 -->
<g id="node20" class="node"><title>n11400</title>
</g>
<!-- n11399&#45;&gt;n11400 -->
<g id="edge18" class="edge"><title>n11399&#45;&gt;n11400</title>
</g>
<!-- n11401&#45;&gt;n11402 -->
<g id="edge17" class="edge"><title>n11401&#45;&gt;n11402</title>
<path fill="none" stroke="black" d="M195.901,-52.7559C244.661,-53.7965 345.414,-62.5524 408.293,-114 436.241,-136.867 451.319,-176.811 458.736,-203.822"/>
<polygon fill="black" stroke="black" points="455.426,-205.005 461.297,-213.824 462.207,-203.268 455.426,-205.005"/>
<text text-anchor="middle" x="316.293" y="-117.8" font-family="Times New Roman,serif" font-size="14.00">|&#45; ( ( ch \/ th ) &lt;&#45;&gt; ( &#45;. ch &#45;&gt; th ) )</text>
</g>
<!-- n11400&#45;&gt;n11401 -->
<g id="edge16" class="edge"><title>n11400&#45;&gt;n11401</title>
<path fill="none" stroke="lightgray" d="M52.6084,-24.2573C73.9897,-29.694 105.244,-37.6412 129.472,-43.8018"/>
<polygon fill="lightgray" stroke="lightgray" points="128.822,-47.2478 139.376,-46.3202 130.547,-40.4637 128.822,-47.2478"/>
<text text-anchor="middle" x="90.5" y="-42.8" font-family="Times New Roman,serif" font-size="14.00" fill="lightgray">wff th</text>
</g>
</g>
</svg>
