<?xml version="1.0" encoding="UTF-8" standalone="no"?>
<!DOCTYPE svg PUBLIC "-//W3C//DTD SVG 1.1//EN"
 "http://www.w3.org/Graphics/SVG/1.1/DTD/svg11.dtd">
<!-- Generated by graphviz version 2.38.0 (20140413.2041)
 -->
<!-- Title: proof_nbbn Pages: 1 -->
<svg width="866pt" height="563pt"
 viewBox="0.00 0.00 865.98 563.00" xmlns="http://www.w3.org/2000/svg" xmlns:xlink="http://www.w3.org/1999/xlink">
<g id="graph0" class="graph" transform="scale(1 1) rotate(0) translate(4 559)">
<title>proof_nbbn</title>
<polygon fill="white" stroke="none" points="-4,4 -4,-559 861.983,-559 861.983,4 -4,4"/>
<!-- n6827 -->
<g id="node1" class="node"><title>n6827</title>
</g>
<!-- n6850 -->
<g id="node2" class="node"><title>n6850</title>
<ellipse fill="cyan" stroke="black" cx="504.991" cy="-319" rx="32.4942" ry="18"/>
<text text-anchor="middle" x="504.991" y="-315.3" font-family="Times New Roman,serif" font-size="14.00">3bitrri</text>
</g>
<!-- n6827&#45;&gt;n6850 -->
<g id="edge1" class="edge"><title>n6827&#45;&gt;n6850</title>
<path fill="none" stroke="lightgray" d="M201.425,-538.148C255.511,-543.261 382.122,-547.02 454.494,-482 493.039,-447.371 502.008,-383.793 503.83,-347.111"/>
<polygon fill="lightgray" stroke="lightgray" points="507.329,-347.205 504.182,-337.089 500.333,-346.959 507.329,-347.205"/>
<text text-anchor="middle" x="341.494" y="-543.8" font-family="Times New Roman,serif" font-size="14.00" fill="lightgray">wff &#45;. ( ph &lt;&#45;&gt; ps )</text>
</g>
<!-- n6831 -->
<g id="node3" class="node"><title>n6831</title>
</g>
<!-- n6827&#45;&gt;n6831 -->
<g id="edge18" class="edge"><title>n6827&#45;&gt;n6831</title>
</g>
<!-- QED -->
<g id="node15" class="node"><title>QED</title>
</g>
<!-- n6850&#45;&gt;QED -->
<g id="edge17" class="edge"><title>n6850&#45;&gt;QED</title>
<path fill="none" stroke="black" d="M537.721,-319C597.041,-319 724.547,-319 788.897,-319"/>
<polygon fill="black" stroke="black" points="789.034,-322.5 799.034,-319 789.034,-315.5 789.034,-322.5"/>
<text text-anchor="middle" x="668.488" y="-322.8" font-family="Times New Roman,serif" font-size="14.00">|&#45; ( ( &#45;. ph &lt;&#45;&gt; ps ) &lt;&#45;&gt; &#45;. ( ph &lt;&#45;&gt; ps ) )</text>
</g>
<!-- n6831&#45;&gt;n6850 -->
<g id="edge2" class="edge"><title>n6831&#45;&gt;n6850</title>
<path fill="none" stroke="lightgray" d="M201.926,-463.874C254.787,-464.33 375.911,-458.607 454.494,-402 473.534,-388.285 486.543,-364.781 494.429,-346.279"/>
<polygon fill="lightgray" stroke="lightgray" points="497.726,-347.458 498.189,-336.873 491.227,-344.86 497.726,-347.458"/>
<text text-anchor="middle" x="341.494" y="-466.8" font-family="Times New Roman,serif" font-size="14.00" fill="lightgray">wff ( ph &lt;&#45;&gt; &#45;. ps )</text>
</g>
<!-- n6835 -->
<g id="node4" class="node"><title>n6835</title>
</g>
<!-- n6831&#45;&gt;n6835 -->
<g id="edge19" class="edge"><title>n6831&#45;&gt;n6835</title>
</g>
<!-- n6835&#45;&gt;n6850 -->
<g id="edge3" class="edge"><title>n6835&#45;&gt;n6850</title>
<path fill="none" stroke="lightgray" d="M201.468,-387.678C251.054,-380.93 363.05,-364.018 454.494,-338 459.225,-336.654 464.137,-335.042 468.949,-333.334"/>
<polygon fill="lightgray" stroke="lightgray" points="470.443,-336.512 478.596,-329.746 468.003,-329.951 470.443,-336.512"/>
<text text-anchor="middle" x="341.494" y="-386.8" font-family="Times New Roman,serif" font-size="14.00" fill="lightgray">wff ( ps &lt;&#45;&gt; &#45;. ph )</text>
</g>
<!-- n6839 -->
<g id="node5" class="node"><title>n6839</title>
</g>
<!-- n6835&#45;&gt;n6839 -->
<g id="edge20" class="edge"><title>n6835&#45;&gt;n6839</title>
</g>
<!-- n6839&#45;&gt;n6850 -->
<g id="edge4" class="edge"><title>n6839&#45;&gt;n6850</title>
<path fill="none" stroke="lightgray" d="M201.778,-319C258.46,-319 393.468,-319 462.216,-319"/>
<polygon fill="lightgray" stroke="lightgray" points="462.261,-322.5 472.261,-319 462.261,-315.5 462.261,-322.5"/>
<text text-anchor="middle" x="341.494" y="-322.8" font-family="Times New Roman,serif" font-size="14.00" fill="lightgray">wff ( &#45;. ph &lt;&#45;&gt; ps )</text>
</g>
<!-- n6842 -->
<g id="node7" class="node"><title>n6842</title>
<ellipse fill="cyan" stroke="black" cx="174.747" cy="-247" rx="27.0966" ry="18"/>
<text text-anchor="middle" x="174.747" y="-243.3" font-family="Times New Roman,serif" font-size="14.00">xor3</text>
</g>
<!-- n6839&#45;&gt;n6842 -->
<g id="edge21" class="edge"><title>n6839&#45;&gt;n6842</title>
</g>
<!-- n6840 -->
<g id="node6" class="node"><title>n6840</title>
</g>
<!-- n6840&#45;&gt;n6842 -->
<g id="edge5" class="edge"><title>n6840&#45;&gt;n6842</title>
<path fill="none" stroke="lightgray" d="M47.2832,-329.661C66.1245,-317.582 95.596,-298.622 121,-282 129.239,-276.609 138.172,-270.704 146.304,-265.306"/>
<polygon fill="lightgray" stroke="lightgray" points="148.353,-268.147 154.742,-259.695 144.477,-262.318 148.353,-268.147"/>
<text text-anchor="middle" x="96.5" y="-316.8" font-family="Times New Roman,serif" font-size="14.00" fill="lightgray">wff ph</text>
</g>
<!-- n6841 -->
<g id="node8" class="node"><title>n6841</title>
</g>
<!-- n6840&#45;&gt;n6841 -->
<g id="edge8" class="edge"><title>n6840&#45;&gt;n6841</title>
</g>
<!-- n6842&#45;&gt;n6850 -->
<g id="edge7" class="edge"><title>n6842&#45;&gt;n6850</title>
<path fill="none" stroke="black" d="M201.855,-250.375C251.634,-257.158 363.287,-274.049 454.494,-300 459.225,-301.346 464.137,-302.958 468.949,-304.666"/>
<polygon fill="black" stroke="black" points="468.003,-308.049 478.596,-308.254 470.443,-301.488 468.003,-308.049"/>
<text text-anchor="middle" x="341.494" y="-303.8" font-family="Times New Roman,serif" font-size="14.00">|&#45; ( &#45;. ( ph &lt;&#45;&gt; ps ) &lt;&#45;&gt; ( ph &lt;&#45;&gt; &#45;. ps ) )</text>
</g>
<!-- n6845 -->
<g id="node10" class="node"><title>n6845</title>
<ellipse fill="cyan" stroke="black" cx="174.747" cy="-175" rx="35.9954" ry="18"/>
<text text-anchor="middle" x="174.747" y="-171.3" font-family="Times New Roman,serif" font-size="14.00">con2bi</text>
</g>
<!-- n6842&#45;&gt;n6845 -->
<g id="edge22" class="edge"><title>n6842&#45;&gt;n6845</title>
</g>
<!-- n6841&#45;&gt;n6842 -->
<g id="edge6" class="edge"><title>n6841&#45;&gt;n6842</title>
<path fill="none" stroke="lightgray" d="M53.3872,-265.994C76.7152,-262.312 111.542,-256.816 137.74,-252.682"/>
<polygon fill="lightgray" stroke="lightgray" points="138.337,-256.131 147.669,-251.115 137.246,-249.217 138.337,-256.131"/>
<text text-anchor="middle" x="96.5" y="-266.8" font-family="Times New Roman,serif" font-size="14.00" fill="lightgray">wff ps</text>
</g>
<!-- n6843 -->
<g id="node9" class="node"><title>n6843</title>
</g>
<!-- n6843&#45;&gt;n6845 -->
<g id="edge9" class="edge"><title>n6843&#45;&gt;n6845</title>
<path fill="none" stroke="lightgray" d="M52.0671,-209.23C74.1485,-203.018 107.295,-193.694 133.418,-186.345"/>
<polygon fill="lightgray" stroke="lightgray" points="134.371,-189.713 143.049,-183.636 132.475,-182.974 134.371,-189.713"/>
<text text-anchor="middle" x="96.5" y="-206.8" font-family="Times New Roman,serif" font-size="14.00" fill="lightgray">wff ph</text>
</g>
<!-- n6844 -->
<g id="node11" class="node"><title>n6844</title>
</g>
<!-- n6843&#45;&gt;n6844 -->
<g id="edge12" class="edge"><title>n6843&#45;&gt;n6844</title>
</g>
<!-- n6845&#45;&gt;n6850 -->
<g id="edge11" class="edge"><title>n6845&#45;&gt;n6850</title>
<path fill="none" stroke="black" d="M210.559,-174.11C267.067,-174.388 379.93,-182.289 454.494,-236 473.534,-249.715 486.543,-273.219 494.429,-291.721"/>
<polygon fill="black" stroke="black" points="491.227,-293.14 498.189,-301.127 497.726,-290.542 491.227,-293.14"/>
<text text-anchor="middle" x="341.494" y="-239.8" font-family="Times New Roman,serif" font-size="14.00">|&#45; ( ( ph &lt;&#45;&gt; &#45;. ps ) &lt;&#45;&gt; ( ps &lt;&#45;&gt; &#45;. ph ) )</text>
</g>
<!-- n6849 -->
<g id="node13" class="node"><title>n6849</title>
<ellipse fill="cyan" stroke="black" cx="174.747" cy="-101" rx="33.5952" ry="18"/>
<text text-anchor="middle" x="174.747" y="-97.3" font-family="Times New Roman,serif" font-size="14.00">bicom</text>
</g>
<!-- n6845&#45;&gt;n6849 -->
<g id="edge23" class="edge"><title>n6845&#45;&gt;n6849</title>
</g>
<!-- n6844&#45;&gt;n6845 -->
<g id="edge10" class="edge"><title>n6844&#45;&gt;n6845</title>
<path fill="none" stroke="lightgray" d="M53.0548,-149.329C74.5863,-153.909 106.089,-160.609 131.511,-166.017"/>
<polygon fill="lightgray" stroke="lightgray" points="131.121,-169.512 141.63,-168.169 132.577,-162.665 131.121,-169.512"/>
<text text-anchor="middle" x="96.5" y="-167.8" font-family="Times New Roman,serif" font-size="14.00" fill="lightgray">wff ps</text>
</g>
<!-- n6846 -->
<g id="node12" class="node"><title>n6846</title>
</g>
<!-- n6846&#45;&gt;n6849 -->
<g id="edge13" class="edge"><title>n6846&#45;&gt;n6849</title>
<path fill="none" stroke="lightgray" d="M54.0566,-91.9666C75.3349,-93.5725 105.848,-95.8755 130.74,-97.7541"/>
<polygon fill="lightgray" stroke="lightgray" points="130.785,-101.267 141.02,-98.53 131.312,-94.2872 130.785,-101.267"/>
<text text-anchor="middle" x="96.5" y="-100.8" font-family="Times New Roman,serif" font-size="14.00" fill="lightgray">wff ps</text>
</g>
<!-- n6848 -->
<g id="node14" class="node"><title>n6848</title>
</g>
<!-- n6846&#45;&gt;n6848 -->
<g id="edge16" class="edge"><title>n6846&#45;&gt;n6848</title>
</g>
<!-- n6849&#45;&gt;n6850 -->
<g id="edge15" class="edge"><title>n6849&#45;&gt;n6850</title>
<path fill="none" stroke="black" d="M207.918,-97.5447C265.112,-93.2836 384.994,-93.1247 454.494,-156 492.919,-190.762 501.932,-254.291 503.794,-290.928"/>
<polygon fill="black" stroke="black" points="500.297,-291.072 504.158,-300.938 507.292,-290.818 500.297,-291.072"/>
<text text-anchor="middle" x="341.494" y="-159.8" font-family="Times New Roman,serif" font-size="14.00">|&#45; ( ( ps &lt;&#45;&gt; &#45;. ph ) &lt;&#45;&gt; ( &#45;. ph &lt;&#45;&gt; ps ) )</text>
</g>
<!-- n6848&#45;&gt;n6849 -->
<g id="edge14" class="edge"><title>n6848&#45;&gt;n6849</title>
<path fill="none" stroke="lightgray" d="M47.9599,-29.3668C72.1597,-43.1481 113.25,-66.5483 141.856,-82.8389"/>
<polygon fill="lightgray" stroke="lightgray" points="140.246,-85.9497 150.668,-87.857 143.71,-79.8669 140.246,-85.9497"/>
<text text-anchor="middle" x="96.5" y="-73.8" font-family="Times New Roman,serif" font-size="14.00" fill="lightgray">wff &#45;. ph</text>
</g>
</g>
</svg>
