<?xml version="1.0" encoding="UTF-8" standalone="no"?>
<!DOCTYPE svg PUBLIC "-//W3C//DTD SVG 1.1//EN"
 "http://www.w3.org/Graphics/SVG/1.1/DTD/svg11.dtd">
<!-- Generated by graphviz version 2.38.0 (20140413.2041)
 -->
<!-- Title: proof_notbi Pages: 1 -->
<svg width="1269pt" height="533pt"
 viewBox="0.00 0.00 1269.38 533.00" xmlns="http://www.w3.org/2000/svg" xmlns:xlink="http://www.w3.org/1999/xlink">
<g id="graph0" class="graph" transform="scale(1 1) rotate(0) translate(4 529)">
<title>proof_notbi</title>
<polygon fill="white" stroke="none" points="-4,4 -4,-529 1265.38,-529 1265.38,4 -4,4"/>
<!-- n5777 -->
<g id="node1" class="node"><title>n5777</title>
</g>
<!-- n5807 -->
<g id="node2" class="node"><title>n5807</title>
<ellipse fill="cyan" stroke="black" cx="907.74" cy="-358" rx="33.2948" ry="18"/>
<text text-anchor="middle" x="907.74" y="-354.3" font-family="Times New Roman,serif" font-size="14.00">impbii</text>
</g>
<!-- n5777&#45;&gt;n5807 -->
<g id="edge1" class="edge"><title>n5777&#45;&gt;n5807</title>
<path fill="none" stroke="lightgray" d="M608.516,-466.023C659.343,-463.141 773.571,-451.773 856.593,-407 868.028,-400.833 878.645,-391.291 887.138,-382.26"/>
<polygon fill="lightgray" stroke="lightgray" points="889.971,-384.342 894.022,-374.553 884.75,-379.679 889.971,-384.342"/>
<text text-anchor="middle" x="748.093" y="-466.8" font-family="Times New Roman,serif" font-size="14.00" fill="lightgray">wff ( ph &lt;&#45;&gt; ps )</text>
</g>
<!-- n5782 -->
<g id="node3" class="node"><title>n5782</title>
</g>
<!-- n5777&#45;&gt;n5782 -->
<g id="edge22" class="edge"><title>n5777&#45;&gt;n5782</title>
</g>
<!-- QED -->
<g id="node16" class="node"><title>QED</title>
</g>
<!-- n5807&#45;&gt;QED -->
<g id="edge21" class="edge"><title>n5807&#45;&gt;QED</title>
<path fill="none" stroke="black" d="M941.128,-358C1000.87,-358 1128.18,-358 1192.39,-358"/>
<polygon fill="black" stroke="black" points="1192.5,-361.5 1202.5,-358 1192.5,-354.5 1192.5,-361.5"/>
<text text-anchor="middle" x="1071.89" y="-361.8" font-family="Times New Roman,serif" font-size="14.00">|&#45; ( ( ph &lt;&#45;&gt; ps ) &lt;&#45;&gt; ( &#45;. ph &lt;&#45;&gt; &#45;. ps ) )</text>
</g>
<!-- n5782&#45;&gt;n5807 -->
<g id="edge2" class="edge"><title>n5782&#45;&gt;n5807</title>
<path fill="none" stroke="lightgray" d="M608.018,-392.15C656.602,-386.754 765.195,-374.632 856.593,-364 859.41,-363.672 862.315,-363.332 865.242,-362.986"/>
<polygon fill="lightgray" stroke="lightgray" points="865.66,-366.462 875.178,-361.808 864.835,-359.51 865.66,-366.462"/>
<text text-anchor="middle" x="748.093" y="-391.8" font-family="Times New Roman,serif" font-size="14.00" fill="lightgray">wff ( &#45;. ph &lt;&#45;&gt; &#45;. ps )</text>
</g>
<!-- n5792 -->
<g id="node5" class="node"><title>n5792</title>
<ellipse fill="cyan" stroke="black" cx="581.296" cy="-323" rx="34.394" ry="18"/>
<text text-anchor="middle" x="581.296" y="-319.3" font-family="Times New Roman,serif" font-size="14.00">notbid</text>
</g>
<!-- n5782&#45;&gt;n5792 -->
<g id="edge23" class="edge"><title>n5782&#45;&gt;n5792</title>
</g>
<!-- n5785 -->
<g id="node4" class="node"><title>n5785</title>
</g>
<!-- n5785&#45;&gt;n5792 -->
<g id="edge3" class="edge"><title>n5785&#45;&gt;n5792</title>
<path fill="none" stroke="lightgray" d="M263.818,-507.358C319.424,-513.027 451.263,-517.805 523,-448 549.119,-422.584 524.509,-400.5 541,-368 544.894,-360.326 550.392,-352.899 556.044,-346.366"/>
<polygon fill="lightgray" stroke="lightgray" points="558.98,-348.344 563.178,-338.617 553.83,-343.603 558.98,-348.344"/>
<text text-anchor="middle" x="402.5" y="-513.8" font-family="Times New Roman,serif" font-size="14.00" fill="lightgray">wff ( ph &lt;&#45;&gt; ps )</text>
</g>
<!-- n5786 -->
<g id="node6" class="node"><title>n5786</title>
</g>
<!-- n5785&#45;&gt;n5786 -->
<g id="edge9" class="edge"><title>n5785&#45;&gt;n5786</title>
</g>
<!-- n5792&#45;&gt;n5807 -->
<g id="edge8" class="edge"><title>n5792&#45;&gt;n5807</title>
<path fill="none" stroke="black" d="M615.756,-325.271C667.527,-328.988 770.102,-337.16 856.593,-349 859.792,-349.438 863.097,-349.934 866.415,-350.462"/>
<polygon fill="black" stroke="black" points="865.866,-353.919 876.307,-352.121 867.024,-347.016 865.866,-353.919"/>
<text text-anchor="middle" x="748.093" y="-352.8" font-family="Times New Roman,serif" font-size="14.00">|&#45; ( ( ph &lt;&#45;&gt; ps ) &#45;&gt; ( &#45;. ph &lt;&#45;&gt; &#45;. ps ) )</text>
</g>
<!-- n5806 -->
<g id="node11" class="node"><title>n5806</title>
<ellipse fill="cyan" stroke="black" cx="581.296" cy="-202" rx="40.0939" ry="18"/>
<text text-anchor="middle" x="581.296" y="-198.3" font-family="Times New Roman,serif" font-size="14.00">con4bid</text>
</g>
<!-- n5792&#45;&gt;n5806 -->
<g id="edge24" class="edge"><title>n5792&#45;&gt;n5806</title>
</g>
<!-- n5786&#45;&gt;n5792 -->
<g id="edge4" class="edge"><title>n5786&#45;&gt;n5792</title>
<path fill="none" stroke="lightgray" d="M264.201,-430.987C316.192,-428.055 434.974,-416.702 523,-373 536.192,-366.45 548.768,-356.114 558.759,-346.534"/>
<polygon fill="lightgray" stroke="lightgray" points="561.265,-348.978 565.863,-339.432 556.316,-344.027 561.265,-348.978"/>
<text text-anchor="middle" x="402.5" y="-432.8" font-family="Times New Roman,serif" font-size="14.00" fill="lightgray">wff ph</text>
</g>
<!-- n5787 -->
<g id="node7" class="node"><title>n5787</title>
</g>
<!-- n5786&#45;&gt;n5787 -->
<g id="edge10" class="edge"><title>n5786&#45;&gt;n5787</title>
</g>
<!-- n5787&#45;&gt;n5792 -->
<g id="edge5" class="edge"><title>n5787&#45;&gt;n5792</title>
<path fill="none" stroke="lightgray" d="M263.728,-357.219C322.115,-350.908 465.155,-335.446 537.259,-327.652"/>
<polygon fill="lightgray" stroke="lightgray" points="537.798,-331.114 547.364,-326.56 537.046,-324.155 537.798,-331.114"/>
<text text-anchor="middle" x="402.5" y="-357.8" font-family="Times New Roman,serif" font-size="14.00" fill="lightgray">wff ps</text>
</g>
<!-- n5791 -->
<g id="node9" class="node"><title>n5791</title>
<ellipse fill="cyan" stroke="black" cx="237" cy="-288" rx="27" ry="18"/>
<text text-anchor="middle" x="237" y="-284.3" font-family="Times New Roman,serif" font-size="14.00">id</text>
</g>
<!-- n5787&#45;&gt;n5791 -->
<g id="edge11" class="edge"><title>n5787&#45;&gt;n5791</title>
</g>
<!-- n5790 -->
<g id="node8" class="node"><title>n5790</title>
</g>
<!-- n5790&#45;&gt;n5791 -->
<g id="edge6" class="edge"><title>n5790&#45;&gt;n5791</title>
<path fill="none" stroke="lightgray" d="M54.3433,-288C91.1492,-288 158.103,-288 199.638,-288"/>
<polygon fill="lightgray" stroke="lightgray" points="199.871,-291.5 209.871,-288 199.871,-284.5 199.871,-291.5"/>
<text text-anchor="middle" x="132" y="-291.8" font-family="Times New Roman,serif" font-size="14.00" fill="lightgray">wff ( ph &lt;&#45;&gt; ps )</text>
</g>
<!-- n5791&#45;&gt;n5792 -->
<g id="edge7" class="edge"><title>n5791&#45;&gt;n5792</title>
<path fill="none" stroke="black" d="M263.996,-289.805C314.176,-293.413 427.838,-302.198 523,-314 527.865,-314.603 532.952,-315.303 538.001,-316.04"/>
<polygon fill="black" stroke="black" points="537.815,-319.552 548.226,-317.587 538.862,-312.63 537.815,-319.552"/>
<text text-anchor="middle" x="402.5" y="-317.8" font-family="Times New Roman,serif" font-size="14.00">|&#45; ( ( ph &lt;&#45;&gt; ps ) &#45;&gt; ( ph &lt;&#45;&gt; ps ) )</text>
</g>
<!-- n5797 -->
<g id="node10" class="node"><title>n5797</title>
</g>
<!-- n5797&#45;&gt;n5806 -->
<g id="edge12" class="edge"><title>n5797&#45;&gt;n5806</title>
<path fill="none" stroke="lightgray" d="M264.009,-231.569C320.962,-226.244 457.485,-213.481 531.162,-206.593"/>
<polygon fill="lightgray" stroke="lightgray" points="531.929,-210.037 541.559,-205.621 531.277,-203.067 531.929,-210.037"/>
<text text-anchor="middle" x="402.5" y="-233.8" font-family="Times New Roman,serif" font-size="14.00" fill="lightgray">wff ( &#45;. ph &lt;&#45;&gt; &#45;. ps )</text>
</g>
<!-- n5798 -->
<g id="node12" class="node"><title>n5798</title>
</g>
<!-- n5797&#45;&gt;n5798 -->
<g id="edge18" class="edge"><title>n5797&#45;&gt;n5798</title>
</g>
<!-- n5806&#45;&gt;n5807 -->
<g id="edge17" class="edge"><title>n5806&#45;&gt;n5807</title>
<path fill="none" stroke="black" d="M616.935,-210.405C671.169,-224.62 778.044,-256.946 856.593,-308 867.436,-315.047 877.835,-324.745 886.324,-333.725"/>
<polygon fill="black" stroke="black" points="883.938,-336.304 893.255,-341.347 889.116,-331.594 883.938,-336.304"/>
<text text-anchor="middle" x="748.093" y="-311.8" font-family="Times New Roman,serif" font-size="14.00">|&#45; ( ( &#45;. ph &lt;&#45;&gt; &#45;. ps ) &#45;&gt; ( ph &lt;&#45;&gt; ps ) )</text>
</g>
<!-- n5798&#45;&gt;n5806 -->
<g id="edge13" class="edge"><title>n5798&#45;&gt;n5806</title>
<path fill="none" stroke="lightgray" d="M264.077,-163.345C314.395,-166.189 428.284,-173.833 523,-189 527.136,-189.662 531.419,-190.447 535.696,-191.297"/>
<polygon fill="lightgray" stroke="lightgray" points="535.086,-194.745 545.591,-193.373 536.523,-187.894 535.086,-194.745"/>
<text text-anchor="middle" x="402.5" y="-192.8" font-family="Times New Roman,serif" font-size="14.00" fill="lightgray">wff ph</text>
</g>
<!-- n5799 -->
<g id="node13" class="node"><title>n5799</title>
</g>
<!-- n5798&#45;&gt;n5799 -->
<g id="edge19" class="edge"><title>n5798&#45;&gt;n5799</title>
</g>
<!-- n5799&#45;&gt;n5806 -->
<g id="edge14" class="edge"><title>n5799&#45;&gt;n5806</title>
<path fill="none" stroke="lightgray" d="M264.008,-90.23C316.161,-91.7034 435.964,-100.246 523,-146 537.365,-153.552 550.538,-165.853 560.622,-177.005"/>
<polygon fill="lightgray" stroke="lightgray" points="558.204,-179.56 567.391,-184.838 563.501,-174.984 558.204,-179.56"/>
<text text-anchor="middle" x="402.5" y="-149.8" font-family="Times New Roman,serif" font-size="14.00" fill="lightgray">wff ps</text>
</g>
<!-- n5805 -->
<g id="node15" class="node"><title>n5805</title>
<ellipse fill="cyan" stroke="black" cx="237" cy="-18" rx="27" ry="18"/>
<text text-anchor="middle" x="237" y="-14.3" font-family="Times New Roman,serif" font-size="14.00">id</text>
</g>
<!-- n5799&#45;&gt;n5805 -->
<g id="edge20" class="edge"><title>n5799&#45;&gt;n5805</title>
</g>
<!-- n5804 -->
<g id="node14" class="node"><title>n5804</title>
</g>
<!-- n5804&#45;&gt;n5805 -->
<g id="edge15" class="edge"><title>n5804&#45;&gt;n5805</title>
<path fill="none" stroke="lightgray" d="M54.3433,-18C91.1492,-18 158.103,-18 199.638,-18"/>
<polygon fill="lightgray" stroke="lightgray" points="199.871,-21.5001 209.871,-18 199.871,-14.5001 199.871,-21.5001"/>
<text text-anchor="middle" x="132" y="-21.8" font-family="Times New Roman,serif" font-size="14.00" fill="lightgray">wff ( &#45;. ph &lt;&#45;&gt; &#45;. ps )</text>
</g>
<!-- n5805&#45;&gt;n5806 -->
<g id="edge16" class="edge"><title>n5805&#45;&gt;n5806</title>
<path fill="none" stroke="black" d="M264.06,-15.4477C318.427,-11.5731 445.329,-10.2795 523,-72 554.783,-97.256 569.382,-143.775 575.755,-173.774"/>
<polygon fill="black" stroke="black" points="572.329,-174.491 577.681,-183.635 579.199,-173.149 572.329,-174.491"/>
<text text-anchor="middle" x="402.5" y="-75.8" font-family="Times New Roman,serif" font-size="14.00">|&#45; ( ( &#45;. ph &lt;&#45;&gt; &#45;. ps ) &#45;&gt; ( &#45;. ph &lt;&#45;&gt; &#45;. ps ) )</text>
</g>
</g>
</svg>
