<?xml version="1.0" encoding="UTF-8" standalone="no"?>
<!DOCTYPE svg PUBLIC "-//W3C//DTD SVG 1.1//EN"
 "http://www.w3.org/Graphics/SVG/1.1/DTD/svg11.dtd">
<!-- Generated by graphviz version 2.38.0 (20140413.2041)
 -->
<!-- Title: proof_notnot1 Pages: 1 -->
<svg width="593pt" height="188pt"
 viewBox="0.00 0.00 592.59 188.00" xmlns="http://www.w3.org/2000/svg" xmlns:xlink="http://www.w3.org/1999/xlink">
<g id="graph0" class="graph" transform="scale(1 1) rotate(0) translate(4 184)">
<title>proof_notnot1</title>
<polygon fill="white" stroke="none" points="-4,4 -4,-184 588.589,-184 588.589,4 -4,4"/>
<!-- n1377 -->
<g id="node1" class="node"><title>n1377</title>
</g>
<!-- n1382 -->
<g id="node2" class="node"><title>n1382</title>
<ellipse fill="cyan" stroke="black" cx="359.547" cy="-90" rx="30.5947" ry="18"/>
<text text-anchor="middle" x="359.547" y="-86.3" font-family="Times New Roman,serif" font-size="14.00">con2i</text>
</g>
<!-- n1377&#45;&gt;n1382 -->
<g id="edge1" class="edge"><title>n1377&#45;&gt;n1382</title>
<path fill="none" stroke="lightgray" d="M190.018,-153.749C218.507,-143.486 268.47,-125.321 311,-109 315.318,-107.343 319.845,-105.575 324.318,-103.809"/>
<polygon fill="lightgray" stroke="lightgray" points="325.921,-106.938 333.92,-99.9905 323.334,-100.433 325.921,-106.938"/>
<text text-anchor="middle" x="261" y="-148.8" font-family="Times New Roman,serif" font-size="14.00" fill="lightgray">wff &#45;. ph</text>
</g>
<!-- n1378 -->
<g id="node3" class="node"><title>n1378</title>
</g>
<!-- n1377&#45;&gt;n1378 -->
<g id="edge6" class="edge"><title>n1377&#45;&gt;n1378</title>
</g>
<!-- QED -->
<g id="node6" class="node"><title>QED</title>
</g>
<!-- n1382&#45;&gt;QED -->
<g id="edge5" class="edge"><title>n1382&#45;&gt;QED</title>
<path fill="none" stroke="black" d="M390.403,-90C424.032,-90 478.792,-90 515.669,-90"/>
<polygon fill="black" stroke="black" points="516.03,-93.5001 526.03,-90 516.03,-86.5001 516.03,-93.5001"/>
<text text-anchor="middle" x="458.095" y="-93.8" font-family="Times New Roman,serif" font-size="14.00">|&#45; ( ph &#45;&gt; &#45;. &#45;. ph )</text>
</g>
<!-- n1378&#45;&gt;n1382 -->
<g id="edge2" class="edge"><title>n1378&#45;&gt;n1382</title>
<path fill="none" stroke="lightgray" d="M193.232,-90C225.637,-90 281.086,-90 318.746,-90"/>
<polygon fill="lightgray" stroke="lightgray" points="318.863,-93.5001 328.863,-90 318.863,-86.5001 318.863,-93.5001"/>
<text text-anchor="middle" x="261" y="-93.8" font-family="Times New Roman,serif" font-size="14.00" fill="lightgray">wff ph</text>
</g>
<!-- n1381 -->
<g id="node5" class="node"><title>n1381</title>
<ellipse fill="cyan" stroke="black" cx="166" cy="-18" rx="27" ry="18"/>
<text text-anchor="middle" x="166" y="-14.3" font-family="Times New Roman,serif" font-size="14.00">id</text>
</g>
<!-- n1378&#45;&gt;n1381 -->
<g id="edge7" class="edge"><title>n1378&#45;&gt;n1381</title>
</g>
<!-- n1380 -->
<g id="node4" class="node"><title>n1380</title>
</g>
<!-- n1380&#45;&gt;n1381 -->
<g id="edge3" class="edge"><title>n1380&#45;&gt;n1381</title>
<path fill="none" stroke="lightgray" d="M54.0911,-18C75.0963,-18 104.873,-18 128.285,-18"/>
<polygon fill="lightgray" stroke="lightgray" points="128.539,-21.5001 138.539,-18 128.539,-14.5001 128.539,-21.5001"/>
<text text-anchor="middle" x="96.5" y="-21.8" font-family="Times New Roman,serif" font-size="14.00" fill="lightgray">wff &#45;. ph</text>
</g>
<!-- n1381&#45;&gt;n1382 -->
<g id="edge4" class="edge"><title>n1381&#45;&gt;n1382</title>
<path fill="none" stroke="black" d="M190.018,-26.251C218.507,-36.5145 268.47,-54.6794 311,-71 315.318,-72.6571 319.845,-74.4255 324.318,-76.1914"/>
<polygon fill="black" stroke="black" points="323.334,-79.5669 333.92,-80.0095 325.921,-73.0622 323.334,-79.5669"/>
<text text-anchor="middle" x="261" y="-74.8" font-family="Times New Roman,serif" font-size="14.00">|&#45; ( &#45;. ph &#45;&gt; &#45;. ph )</text>
</g>
</g>
</svg>
