<?xml version="1.0" encoding="UTF-8" standalone="no"?>
<!DOCTYPE svg PUBLIC "-//W3C//DTD SVG 1.1//EN"
 "http://www.w3.org/Graphics/SVG/1.1/DTD/svg11.dtd">
<!-- Generated by graphviz version 2.38.0 (20140413.2041)
 -->
<!-- Title: proof_olci Pages: 1 -->
<svg width="553pt" height="260pt"
 viewBox="0.00 0.00 553.19 260.00" xmlns="http://www.w3.org/2000/svg" xmlns:xlink="http://www.w3.org/1999/xlink">
<g id="graph0" class="graph" transform="scale(1 1) rotate(0) translate(4 256)">
<title>proof_olci</title>
<polygon fill="white" stroke="none" points="-4,4 -4,-256 549.189,-256 549.189,4 -4,4"/>
<!-- n7355 -->
<g id="node1" class="node"><title>n7355</title>
</g>
<!-- n7362 -->
<g id="node2" class="node"><title>n7362</title>
<ellipse fill="cyan" stroke="black" cx="353.694" cy="-162" rx="27" ry="18"/>
<text text-anchor="middle" x="353.694" y="-158.3" font-family="Times New Roman,serif" font-size="14.00">orri</text>
</g>
<!-- n7355&#45;&gt;n7362 -->
<g id="edge1" class="edge"><title>n7355&#45;&gt;n7362</title>
<path fill="none" stroke="lightgray" d="M199.66,-224.987C226.051,-214.581 270.625,-196.859 308.694,-181 312.868,-179.261 317.253,-177.404 321.571,-175.558"/>
<polygon fill="lightgray" stroke="lightgray" points="323.007,-178.751 330.809,-171.583 320.24,-172.321 323.007,-178.751"/>
<text text-anchor="middle" x="264.694" y="-219.8" font-family="Times New Roman,serif" font-size="14.00" fill="lightgray">wff ps</text>
</g>
<!-- n7356 -->
<g id="node3" class="node"><title>n7356</title>
</g>
<!-- n7355&#45;&gt;n7356 -->
<g id="edge10" class="edge"><title>n7355&#45;&gt;n7356</title>
</g>
<!-- QED -->
<g id="node8" class="node"><title>QED</title>
</g>
<!-- n7362&#45;&gt;QED -->
<g id="edge9" class="edge"><title>n7362&#45;&gt;QED</title>
<path fill="none" stroke="black" d="M380.798,-162C406.705,-162 446.718,-162 476.306,-162"/>
<polygon fill="black" stroke="black" points="476.69,-165.5 486.69,-162 476.69,-158.5 476.69,-165.5"/>
<text text-anchor="middle" x="433.694" y="-165.8" font-family="Times New Roman,serif" font-size="14.00">|&#45; ( ps \/ ph )</text>
</g>
<!-- n7356&#45;&gt;n7362 -->
<g id="edge2" class="edge"><title>n7356&#45;&gt;n7362</title>
<path fill="none" stroke="lightgray" d="M203.043,-162C233.069,-162 282.339,-162 316.086,-162"/>
<polygon fill="lightgray" stroke="lightgray" points="316.453,-165.5 326.453,-162 316.453,-158.5 316.453,-165.5"/>
<text text-anchor="middle" x="264.694" y="-165.8" font-family="Times New Roman,serif" font-size="14.00" fill="lightgray">wff ph</text>
</g>
<!-- n7361 -->
<g id="node5" class="node"><title>n7361</title>
<ellipse fill="cyan" stroke="black" cx="175.694" cy="-90" rx="27" ry="18"/>
<text text-anchor="middle" x="175.694" y="-86.3" font-family="Times New Roman,serif" font-size="14.00">a1i</text>
</g>
<!-- n7356&#45;&gt;n7361 -->
<g id="edge11" class="edge"><title>n7356&#45;&gt;n7361</title>
</g>
<!-- n7357 -->
<g id="node4" class="node"><title>n7357</title>
</g>
<!-- n7357&#45;&gt;n7361 -->
<g id="edge3" class="edge"><title>n7357&#45;&gt;n7361</title>
<path fill="none" stroke="lightgray" d="M53.7772,-151.376C77.7672,-139.199 117.284,-119.141 144.579,-105.286"/>
<polygon fill="lightgray" stroke="lightgray" points="146.346,-108.315 153.678,-100.667 143.177,-102.073 146.346,-108.315"/>
<text text-anchor="middle" x="106.194" y="-139.8" font-family="Times New Roman,serif" font-size="14.00" fill="lightgray">wff ph</text>
</g>
<!-- n7359 -->
<g id="node6" class="node"><title>n7359</title>
</g>
<!-- n7357&#45;&gt;n7359 -->
<g id="edge7" class="edge"><title>n7357&#45;&gt;n7359</title>
</g>
<!-- n7361&#45;&gt;n7362 -->
<g id="edge6" class="edge"><title>n7361&#45;&gt;n7362</title>
<path fill="none" stroke="black" d="M199.66,-99.013C226.051,-109.419 270.625,-127.141 308.694,-143 312.868,-144.739 317.253,-146.596 321.571,-148.442"/>
<polygon fill="black" stroke="black" points="320.24,-151.679 330.809,-152.417 323.007,-145.249 320.24,-151.679"/>
<text text-anchor="middle" x="264.694" y="-146.8" font-family="Times New Roman,serif" font-size="14.00">|&#45; ( &#45;. ps &#45;&gt; ph )</text>
</g>
<!-- n7359&#45;&gt;n7361 -->
<g id="edge4" class="edge"><title>n7359&#45;&gt;n7361</title>
<path fill="none" stroke="lightgray" d="M58.8641,-90C81.1187,-90 113.394,-90 138.226,-90"/>
<polygon fill="lightgray" stroke="lightgray" points="138.362,-93.5001 148.362,-90 138.362,-86.5001 138.362,-93.5001"/>
<text text-anchor="middle" x="106.194" y="-93.8" font-family="Times New Roman,serif" font-size="14.00" fill="lightgray">wff &#45;. ps</text>
</g>
<!-- n7360 -->
<g id="node7" class="node"><title>n7360</title>
<ellipse fill="orange" stroke="black" cx="31.8472" cy="-18" rx="31.6951" ry="18"/>
<text text-anchor="middle" x="31.8472" y="-14.3" font-family="Times New Roman,serif" font-size="14.00">orci.1</text>
</g>
<!-- n7359&#45;&gt;n7360 -->
<g id="edge8" class="edge"><title>n7359&#45;&gt;n7360</title>
</g>
<!-- n7360&#45;&gt;n7361 -->
<g id="edge5" class="edge"><title>n7360&#45;&gt;n7361</title>
<path fill="none" stroke="black" d="M56.2704,-29.8893C80.3786,-42.1264 118.039,-61.2422 144.4,-74.6227"/>
<polygon fill="black" stroke="black" points="143.053,-77.8642 153.554,-79.2695 146.221,-71.6223 143.053,-77.8642"/>
<text text-anchor="middle" x="106.194" y="-70.8" font-family="Times New Roman,serif" font-size="14.00">|&#45; ph</text>
</g>
</g>
</svg>
