<?xml version="1.0" encoding="UTF-8" standalone="no"?>
<!DOCTYPE svg PUBLIC "-//W3C//DTD SVG 1.1//EN"
 "http://www.w3.org/Graphics/SVG/1.1/DTD/svg11.dtd">
<!-- Generated by graphviz version 2.38.0 (20140413.2041)
 -->
<!-- Title: proof_oplem1 Pages: 1 -->
<svg width="1722pt" height="810pt"
 viewBox="0.00 0.00 1721.85 810.00" xmlns="http://www.w3.org/2000/svg" xmlns:xlink="http://www.w3.org/1999/xlink">
<g id="graph0" class="graph" transform="scale(1 1) rotate(0) translate(4 806)">
<title>proof_oplem1</title>
<polygon fill="white" stroke="none" points="-4,4 -4,-806 1717.85,-806 1717.85,4 -4,4"/>
<!-- n18089 -->
<g id="node1" class="node"><title>n18089</title>
</g>
<!-- n18136 -->
<g id="node2" class="node"><title>n18136</title>
<ellipse fill="cyan" stroke="black" cx="1512.81" cy="-640" rx="30.5947" ry="18"/>
<text text-anchor="middle" x="1512.81" y="-636.3" font-family="Times New Roman,serif" font-size="14.00">sylibr</text>
</g>
<!-- n18089&#45;&gt;n18136 -->
<g id="edge1" class="edge"><title>n18089&#45;&gt;n18136</title>
<path fill="none" stroke="lightgray" d="M1346.11,-775.514C1375.85,-763.739 1428.08,-740.201 1464.26,-708 1477.64,-696.096 1489.24,-679.718 1497.63,-666.019"/>
<polygon fill="lightgray" stroke="lightgray" points="1500.85,-667.444 1502.91,-657.05 1494.82,-663.892 1500.85,-667.444"/>
<text text-anchor="middle" x="1424.26" y="-762.8" font-family="Times New Roman,serif" font-size="14.00" fill="lightgray">wff ph</text>
</g>
<!-- n18090 -->
<g id="node3" class="node"><title>n18090</title>
</g>
<!-- n18089&#45;&gt;n18090 -->
<g id="edge71" class="edge"><title>n18089&#45;&gt;n18090</title>
</g>
<!-- QED -->
<g id="node43" class="node"><title>QED</title>
</g>
<!-- n18136&#45;&gt;QED -->
<g id="edge70" class="edge"><title>n18136&#45;&gt;QED</title>
<path fill="none" stroke="black" d="M1543.39,-640C1571.52,-640 1614.01,-640 1644.84,-640"/>
<polygon fill="black" stroke="black" points="1645.21,-643.5 1655.21,-640 1645.21,-636.5 1645.21,-643.5"/>
<text text-anchor="middle" x="1599.36" y="-643.8" font-family="Times New Roman,serif" font-size="14.00">|&#45; ( ph &#45;&gt; ps )</text>
</g>
<!-- n18090&#45;&gt;n18136 -->
<g id="edge2" class="edge"><title>n18090&#45;&gt;n18136</title>
<path fill="none" stroke="lightgray" d="M1346.11,-703.519C1374.11,-693.176 1422.76,-675.081 1464.26,-659 1468.57,-657.329 1473.1,-655.552 1477.57,-653.782"/>
<polygon fill="lightgray" stroke="lightgray" points="1479.17,-656.911 1487.17,-649.96 1476.58,-650.407 1479.17,-656.911"/>
<text text-anchor="middle" x="1424.26" y="-692.8" font-family="Times New Roman,serif" font-size="14.00" fill="lightgray">wff th</text>
</g>
<!-- n18091 -->
<g id="node4" class="node"><title>n18091</title>
</g>
<!-- n18090&#45;&gt;n18091 -->
<g id="edge72" class="edge"><title>n18090&#45;&gt;n18091</title>
</g>
<!-- n18091&#45;&gt;n18136 -->
<g id="edge3" class="edge"><title>n18091&#45;&gt;n18136</title>
<path fill="none" stroke="lightgray" d="M1349.31,-640C1381.02,-640 1434.72,-640 1471.65,-640"/>
<polygon fill="lightgray" stroke="lightgray" points="1472.06,-643.5 1482.06,-640 1472.06,-636.5 1472.06,-643.5"/>
<text text-anchor="middle" x="1424.26" y="-643.8" font-family="Times New Roman,serif" font-size="14.00" fill="lightgray">wff ps</text>
</g>
<!-- n18134 -->
<g id="node6" class="node"><title>n18134</title>
<ellipse fill="cyan" stroke="black" cx="1322.07" cy="-568" rx="42.7926" ry="18"/>
<text text-anchor="middle" x="1322.07" y="-564.3" font-family="Times New Roman,serif" font-size="14.00">pm2.18d</text>
</g>
<!-- n18091&#45;&gt;n18134 -->
<g id="edge73" class="edge"><title>n18091&#45;&gt;n18134</title>
</g>
<!-- n18092 -->
<g id="node5" class="node"><title>n18092</title>
</g>
<!-- n18092&#45;&gt;n18134 -->
<g id="edge4" class="edge"><title>n18092&#45;&gt;n18134</title>
<path fill="none" stroke="lightgray" d="M1107.8,-632.864C1141.68,-622.745 1205.55,-603.611 1259.87,-587 1265.53,-585.27 1271.47,-583.439 1277.35,-581.624"/>
<polygon fill="lightgray" stroke="lightgray" points="1278.58,-584.906 1287.09,-578.604 1276.51,-578.22 1278.58,-584.906"/>
<text text-anchor="middle" x="1193.87" y="-630.8" font-family="Times New Roman,serif" font-size="14.00" fill="lightgray">wff ph</text>
</g>
<!-- n18093 -->
<g id="node7" class="node"><title>n18093</title>
</g>
<!-- n18092&#45;&gt;n18093 -->
<g id="edge67" class="edge"><title>n18092&#45;&gt;n18093</title>
</g>
<!-- n18134&#45;&gt;n18136 -->
<g id="edge66" class="edge"><title>n18134&#45;&gt;n18136</title>
<path fill="none" stroke="black" d="M1354.82,-579.703C1383.49,-590.318 1426.78,-606.48 1464.26,-621 1468.57,-622.671 1473.1,-624.448 1477.57,-626.218"/>
<polygon fill="black" stroke="black" points="1476.58,-629.593 1487.17,-630.04 1479.17,-623.089 1476.58,-629.593"/>
<text text-anchor="middle" x="1424.26" y="-624.8" font-family="Times New Roman,serif" font-size="14.00">|&#45; ( ph &#45;&gt; th )</text>
</g>
<!-- n18135 -->
<g id="node42" class="node"><title>n18135</title>
<ellipse fill="orange" stroke="black" cx="1322.07" cy="-496" rx="44.393" ry="18"/>
<text text-anchor="middle" x="1322.07" y="-492.3" font-family="Times New Roman,serif" font-size="14.00">oplem1.3</text>
</g>
<!-- n18134&#45;&gt;n18135 -->
<g id="edge74" class="edge"><title>n18134&#45;&gt;n18135</title>
</g>
<!-- n18093&#45;&gt;n18134 -->
<g id="edge5" class="edge"><title>n18093&#45;&gt;n18134</title>
<path fill="none" stroke="lightgray" d="M1110.16,-568C1148.33,-568 1219.9,-568 1268.99,-568"/>
<polygon fill="lightgray" stroke="lightgray" points="1269.11,-571.5 1279.11,-568 1269.11,-564.5 1269.11,-571.5"/>
<text text-anchor="middle" x="1193.87" y="-571.8" font-family="Times New Roman,serif" font-size="14.00" fill="lightgray">wff th</text>
</g>
<!-- n18133 -->
<g id="node9" class="node"><title>n18133</title>
<ellipse fill="cyan" stroke="black" cx="1082.87" cy="-496" rx="27" ry="18"/>
<text text-anchor="middle" x="1082.87" y="-492.3" font-family="Times New Roman,serif" font-size="14.00">syl6</text>
</g>
<!-- n18093&#45;&gt;n18133 -->
<g id="edge68" class="edge"><title>n18093&#45;&gt;n18133</title>
</g>
<!-- n18094 -->
<g id="node8" class="node"><title>n18094</title>
</g>
<!-- n18094&#45;&gt;n18133 -->
<g id="edge6" class="edge"><title>n18094&#45;&gt;n18133</title>
<path fill="none" stroke="lightgray" d="M832.716,-686.972C880.725,-689.033 982.921,-685.948 1037.87,-629 1065.59,-600.272 1041.7,-578.322 1055.87,-541 1058.41,-534.312 1061.87,-527.451 1065.44,-521.165"/>
<polygon fill="lightgray" stroke="lightgray" points="1068.52,-522.833 1070.64,-512.454 1062.51,-519.241 1068.52,-522.833"/>
<text text-anchor="middle" x="949.87" y="-691.8" font-family="Times New Roman,serif" font-size="14.00" fill="lightgray">wff ph</text>
</g>
<!-- n18096 -->
<g id="node10" class="node"><title>n18096</title>
</g>
<!-- n18094&#45;&gt;n18096 -->
<g id="edge61" class="edge"><title>n18094&#45;&gt;n18096</title>
</g>
<!-- n18133&#45;&gt;n18134 -->
<g id="edge60" class="edge"><title>n18133&#45;&gt;n18134</title>
<path fill="none" stroke="black" d="M1107.8,-503.136C1141.68,-513.255 1205.55,-532.389 1259.87,-549 1265.53,-550.73 1271.47,-552.561 1277.35,-554.376"/>
<polygon fill="black" stroke="black" points="1276.51,-557.78 1287.09,-557.396 1278.58,-551.094 1276.51,-557.78"/>
<text text-anchor="middle" x="1193.87" y="-552.8" font-family="Times New Roman,serif" font-size="14.00">|&#45; ( ph &#45;&gt; ( &#45;. th &#45;&gt; th ) )</text>
</g>
<!-- n18096&#45;&gt;n18133 -->
<g id="edge7" class="edge"><title>n18096&#45;&gt;n18133</title>
<path fill="none" stroke="lightgray" d="M832.778,-612.247C878.267,-609.775 973.07,-599.369 1037.87,-556 1050.62,-547.469 1061,-533.945 1068.48,-521.894"/>
<polygon fill="lightgray" stroke="lightgray" points="1071.61,-523.475 1073.62,-513.073 1065.56,-519.951 1071.61,-523.475"/>
<text text-anchor="middle" x="949.87" y="-613.8" font-family="Times New Roman,serif" font-size="14.00" fill="lightgray">wff &#45;. th</text>
</g>
<!-- n18099 -->
<g id="node11" class="node"><title>n18099</title>
</g>
<!-- n18096&#45;&gt;n18099 -->
<g id="edge62" class="edge"><title>n18096&#45;&gt;n18099</title>
</g>
<!-- n18099&#45;&gt;n18133 -->
<g id="edge8" class="edge"><title>n18099&#45;&gt;n18133</title>
<path fill="none" stroke="lightgray" d="M832.459,-539.014C875.523,-535.385 964.323,-526.495 1037.87,-510 1041.53,-509.18 1045.31,-508.192 1049.07,-507.126"/>
<polygon fill="lightgray" stroke="lightgray" points="1050.23,-510.43 1058.79,-504.18 1048.2,-503.731 1050.23,-510.43"/>
<text text-anchor="middle" x="949.87" y="-540.8" font-family="Times New Roman,serif" font-size="14.00" fill="lightgray">wff ( ch /\ ta )</text>
</g>
<!-- n18100 -->
<g id="node12" class="node"><title>n18100</title>
</g>
<!-- n18099&#45;&gt;n18100 -->
<g id="edge63" class="edge"><title>n18099&#45;&gt;n18100</title>
</g>
<!-- n18100&#45;&gt;n18133 -->
<g id="edge9" class="edge"><title>n18100&#45;&gt;n18133</title>
<path fill="none" stroke="lightgray" d="M832.427,-471.54C881.728,-476.374 989.156,-486.909 1045.59,-492.442"/>
<polygon fill="lightgray" stroke="lightgray" points="1045.54,-495.954 1055.83,-493.447 1046.22,-488.988 1045.54,-495.954"/>
<text text-anchor="middle" x="949.87" y="-495.8" font-family="Times New Roman,serif" font-size="14.00" fill="lightgray">wff th</text>
</g>
<!-- n18127 -->
<g id="node14" class="node"><title>n18127</title>
<ellipse fill="cyan" stroke="black" cx="805.523" cy="-397" rx="27" ry="18"/>
<text text-anchor="middle" x="805.523" y="-393.3" font-family="Times New Roman,serif" font-size="14.00">jcad</text>
</g>
<!-- n18100&#45;&gt;n18127 -->
<g id="edge64" class="edge"><title>n18100&#45;&gt;n18127</title>
</g>
<!-- n18101 -->
<g id="node13" class="node"><title>n18101</title>
</g>
<!-- n18101&#45;&gt;n18127 -->
<g id="edge10" class="edge"><title>n18101&#45;&gt;n18127</title>
<path fill="none" stroke="lightgray" d="M579.092,-658.714C621.921,-658.329 706.583,-650.734 749.176,-600 771.899,-572.935 753.315,-474.506 767.176,-442 770.726,-433.677 776.33,-425.695 782.129,-418.825"/>
<polygon fill="lightgray" stroke="lightgray" points="784.805,-421.084 788.913,-411.318 779.612,-416.39 784.805,-421.084"/>
<text text-anchor="middle" x="681.676" y="-660.8" font-family="Times New Roman,serif" font-size="14.00" fill="lightgray">wff ph</text>
</g>
<!-- n18103 -->
<g id="node15" class="node"><title>n18103</title>
</g>
<!-- n18101&#45;&gt;n18103 -->
<g id="edge47" class="edge"><title>n18101&#45;&gt;n18103</title>
</g>
<!-- n18127&#45;&gt;n18133 -->
<g id="edge46" class="edge"><title>n18127&#45;&gt;n18133</title>
<path fill="none" stroke="black" d="M832.296,-399.46C876.65,-404.561 969.252,-419.068 1037.87,-456 1046.23,-460.501 1054.27,-466.933 1061.13,-473.327"/>
<polygon fill="black" stroke="black" points="1059.02,-476.163 1068.6,-480.697 1063.94,-471.181 1059.02,-476.163"/>
<text text-anchor="middle" x="949.87" y="-459.8" font-family="Times New Roman,serif" font-size="14.00">|&#45; ( ph &#45;&gt; ( &#45;. th &#45;&gt; ( ch /\ ta ) ) )</text>
</g>
<!-- n18132 -->
<g id="node38" class="node"><title>n18132</title>
<ellipse fill="cyan" stroke="black" cx="805.523" cy="-206" rx="38.1938" ry="18"/>
<text text-anchor="middle" x="805.523" y="-202.3" font-family="Times New Roman,serif" font-size="14.00">biimpar</text>
</g>
<!-- n18127&#45;&gt;n18132 -->
<g id="edge65" class="edge"><title>n18127&#45;&gt;n18132</title>
</g>
<!-- n18103&#45;&gt;n18127 -->
<g id="edge11" class="edge"><title>n18103&#45;&gt;n18127</title>
<path fill="none" stroke="lightgray" d="M579.241,-585.136C621.511,-582.265 704.42,-570.268 749.176,-521 773.39,-494.345 751.242,-474.294 767.176,-442 771.18,-433.886 776.923,-425.967 782.708,-419.091"/>
<polygon fill="lightgray" stroke="lightgray" points="785.386,-421.347 789.418,-411.55 780.156,-416.694 785.386,-421.347"/>
<text text-anchor="middle" x="681.676" y="-584.8" font-family="Times New Roman,serif" font-size="14.00" fill="lightgray">wff &#45;. th</text>
</g>
<!-- n18104 -->
<g id="node16" class="node"><title>n18104</title>
</g>
<!-- n18103&#45;&gt;n18104 -->
<g id="edge48" class="edge"><title>n18103&#45;&gt;n18104</title>
</g>
<!-- n18104&#45;&gt;n18127 -->
<g id="edge12" class="edge"><title>n18104&#45;&gt;n18127</title>
<path fill="none" stroke="lightgray" d="M578.419,-509.949C617.439,-502.89 693.4,-485.751 749.176,-452 762.886,-443.704 775.743,-431.332 785.608,-420.422"/>
<polygon fill="lightgray" stroke="lightgray" points="788.304,-422.655 792.232,-412.815 783.025,-418.058 788.304,-422.655"/>
<text text-anchor="middle" x="681.676" y="-505.8" font-family="Times New Roman,serif" font-size="14.00" fill="lightgray">wff ch</text>
</g>
<!-- n18105 -->
<g id="node17" class="node"><title>n18105</title>
</g>
<!-- n18104&#45;&gt;n18105 -->
<g id="edge49" class="edge"><title>n18104&#45;&gt;n18105</title>
</g>
<!-- n18105&#45;&gt;n18127 -->
<g id="edge13" class="edge"><title>n18105&#45;&gt;n18127</title>
<path fill="none" stroke="lightgray" d="M578.478,-438.415C616.003,-433.01 688.247,-422.11 749.176,-410 756.006,-408.643 763.275,-407.046 770.222,-405.445"/>
<polygon fill="lightgray" stroke="lightgray" points="771.149,-408.823 780.081,-403.124 769.545,-402.009 771.149,-408.823"/>
<text text-anchor="middle" x="681.676" y="-436.8" font-family="Times New Roman,serif" font-size="14.00" fill="lightgray">wff ta</text>
</g>
<!-- n18121 -->
<g id="node19" class="node"><title>n18121</title>
<ellipse fill="cyan" stroke="black" cx="551.98" cy="-370" rx="35.194" ry="18"/>
<text text-anchor="middle" x="551.98" y="-366.3" font-family="Times New Roman,serif" font-size="14.00">syl5bir</text>
</g>
<!-- n18105&#45;&gt;n18121 -->
<g id="edge50" class="edge"><title>n18105&#45;&gt;n18121</title>
</g>
<!-- n18107 -->
<g id="node18" class="node"><title>n18107</title>
</g>
<!-- n18107&#45;&gt;n18121 -->
<g id="edge14" class="edge"><title>n18107&#45;&gt;n18121</title>
<path fill="none" stroke="lightgray" d="M316.505,-686.557C359.914,-687.591 446.782,-682.617 489.784,-631 520.615,-593.993 487.966,-458.9 507.784,-415 511.563,-406.629 517.58,-398.865 523.936,-392.225"/>
<polygon fill="lightgray" stroke="lightgray" points="526.678,-394.443 531.44,-384.978 521.815,-389.407 526.678,-394.443"/>
<text text-anchor="middle" x="420.784" y="-689.8" font-family="Times New Roman,serif" font-size="14.00" fill="lightgray">wff &#45;. th</text>
</g>
<!-- n18109 -->
<g id="node20" class="node"><title>n18109</title>
</g>
<!-- n18107&#45;&gt;n18109 -->
<g id="edge33" class="edge"><title>n18107&#45;&gt;n18109</title>
</g>
<!-- n18121&#45;&gt;n18127 -->
<g id="edge32" class="edge"><title>n18121&#45;&gt;n18127</title>
<path fill="none" stroke="black" d="M586.383,-373.585C633.696,-378.664 719.873,-387.914 768.549,-393.139"/>
<polygon fill="black" stroke="black" points="768.312,-396.633 778.628,-394.22 769.059,-389.673 768.312,-396.633"/>
<text text-anchor="middle" x="681.676" y="-394.8" font-family="Times New Roman,serif" font-size="14.00">|&#45; ( ph &#45;&gt; ( &#45;. th &#45;&gt; ch ) )</text>
</g>
<!-- n18126 -->
<g id="node33" class="node"><title>n18126</title>
<ellipse fill="cyan" stroke="black" cx="551.98" cy="-288" rx="27" ry="18"/>
<text text-anchor="middle" x="551.98" y="-284.3" font-family="Times New Roman,serif" font-size="14.00">ord</text>
</g>
<!-- n18121&#45;&gt;n18126 -->
<g id="edge51" class="edge"><title>n18121&#45;&gt;n18126</title>
</g>
<!-- n18109&#45;&gt;n18121 -->
<g id="edge15" class="edge"><title>n18109&#45;&gt;n18121</title>
<path fill="none" stroke="lightgray" d="M316.666,-613.64C359.913,-613.153 446.035,-605.333 489.784,-554 530.191,-506.589 480.865,-471.177 507.784,-415 511.753,-406.717 517.834,-398.983 524.191,-392.344"/>
<polygon fill="lightgray" stroke="lightgray" points="526.932,-394.561 531.671,-385.085 522.057,-389.538 526.932,-394.561"/>
<text text-anchor="middle" x="420.784" y="-615.8" font-family="Times New Roman,serif" font-size="14.00" fill="lightgray">wff &#45;. ps</text>
</g>
<!-- n18110 -->
<g id="node21" class="node"><title>n18110</title>
</g>
<!-- n18109&#45;&gt;n18110 -->
<g id="edge34" class="edge"><title>n18109&#45;&gt;n18110</title>
</g>
<!-- n18110&#45;&gt;n18121 -->
<g id="edge16" class="edge"><title>n18110&#45;&gt;n18121</title>
<path fill="none" stroke="lightgray" d="M316.53,-539.794C358.802,-536.415 442.556,-523.593 489.784,-475 509.188,-455.035 493.753,-439.047 507.784,-415 512.413,-407.067 518.716,-399.451 525.076,-392.813"/>
<polygon fill="lightgray" stroke="lightgray" points="527.815,-395.027 532.471,-385.51 522.897,-390.046 527.815,-395.027"/>
<text text-anchor="middle" x="420.784" y="-538.8" font-family="Times New Roman,serif" font-size="14.00" fill="lightgray">wff ph</text>
</g>
<!-- n18111 -->
<g id="node22" class="node"><title>n18111</title>
</g>
<!-- n18110&#45;&gt;n18111 -->
<g id="edge35" class="edge"><title>n18110&#45;&gt;n18111</title>
</g>
<!-- n18111&#45;&gt;n18121 -->
<g id="edge17" class="edge"><title>n18111&#45;&gt;n18121</title>
<path fill="none" stroke="lightgray" d="M315.647,-464.039C354.248,-455.859 430.048,-437.646 489.784,-410 501.188,-404.722 512.924,-397.545 523.029,-390.726"/>
<polygon fill="lightgray" stroke="lightgray" points="525.224,-393.462 531.44,-384.882 521.231,-387.713 525.224,-393.462"/>
<text text-anchor="middle" x="420.784" y="-459.8" font-family="Times New Roman,serif" font-size="14.00" fill="lightgray">wff ch</text>
</g>
<!-- n18115 -->
<g id="node24" class="node"><title>n18115</title>
<ellipse fill="cyan" stroke="black" cx="289.588" cy="-397" rx="31.3957" ry="18"/>
<text text-anchor="middle" x="289.588" y="-393.3" font-family="Times New Roman,serif" font-size="14.00">notbii</text>
</g>
<!-- n18111&#45;&gt;n18115 -->
<g id="edge36" class="edge"><title>n18111&#45;&gt;n18115</title>
</g>
<!-- n18112 -->
<g id="node23" class="node"><title>n18112</title>
</g>
<!-- n18112&#45;&gt;n18115 -->
<g id="edge18" class="edge"><title>n18112&#45;&gt;n18115</title>
<path fill="none" stroke="lightgray" d="M70.3877,-536.371C108.049,-528.392 179.696,-509.008 227.392,-470 238.844,-460.634 236.227,-453.613 245.392,-442 251.502,-434.259 258.73,-426.331 265.509,-419.329"/>
<polygon fill="lightgray" stroke="lightgray" points="268.069,-421.718 272.614,-412.147 263.093,-416.795 268.069,-421.718"/>
<text text-anchor="middle" x="166.892" y="-531.8" font-family="Times New Roman,serif" font-size="14.00" fill="lightgray">wff ps</text>
</g>
<!-- n18113 -->
<g id="node25" class="node"><title>n18113</title>
</g>
<!-- n18112&#45;&gt;n18113 -->
<g id="edge22" class="edge"><title>n18112&#45;&gt;n18113</title>
</g>
<!-- n18115&#45;&gt;n18121 -->
<g id="edge21" class="edge"><title>n18115&#45;&gt;n18121</title>
<path fill="none" stroke="black" d="M320.459,-393.903C366.296,-389.15 454.228,-380.032 507.248,-374.535"/>
<polygon fill="black" stroke="black" points="507.778,-377.998 517.364,-373.486 507.056,-371.036 507.778,-377.998"/>
<text text-anchor="middle" x="420.784" y="-394.8" font-family="Times New Roman,serif" font-size="14.00">|&#45; ( &#45;. ps &lt;&#45;&gt; &#45;. th )</text>
</g>
<!-- n18120 -->
<g id="node28" class="node"><title>n18120</title>
<ellipse fill="cyan" stroke="black" cx="289.588" cy="-325" rx="27" ry="18"/>
<text text-anchor="middle" x="289.588" y="-321.3" font-family="Times New Roman,serif" font-size="14.00">ord</text>
</g>
<!-- n18115&#45;&gt;n18120 -->
<g id="edge37" class="edge"><title>n18115&#45;&gt;n18120</title>
</g>
<!-- n18113&#45;&gt;n18115 -->
<g id="edge19" class="edge"><title>n18113&#45;&gt;n18115</title>
<path fill="none" stroke="lightgray" d="M69.4036,-462.108C104.345,-452.126 170.922,-432.978 227.392,-416 235.421,-413.586 244.025,-410.947 252.171,-408.424"/>
<polygon fill="lightgray" stroke="lightgray" points="253.3,-411.739 261.81,-405.428 251.222,-405.054 253.3,-411.739"/>
<text text-anchor="middle" x="166.892" y="-454.8" font-family="Times New Roman,serif" font-size="14.00" fill="lightgray">wff th</text>
</g>
<!-- n18114 -->
<g id="node26" class="node"><title>n18114</title>
<ellipse fill="orange" stroke="black" cx="44.1961" cy="-397" rx="44.393" ry="18"/>
<text text-anchor="middle" x="44.1961" y="-393.3" font-family="Times New Roman,serif" font-size="14.00">oplem1.3</text>
</g>
<!-- n18113&#45;&gt;n18114 -->
<g id="edge23" class="edge"><title>n18113&#45;&gt;n18114</title>
</g>
<!-- n18114&#45;&gt;n18115 -->
<g id="edge20" class="edge"><title>n18114&#45;&gt;n18115</title>
<path fill="none" stroke="black" d="M88.4293,-397C133.577,-397 203.842,-397 247.984,-397"/>
<polygon fill="black" stroke="black" points="248.071,-400.5 258.071,-397 248.071,-393.5 248.071,-400.5"/>
<text text-anchor="middle" x="166.892" y="-400.8" font-family="Times New Roman,serif" font-size="14.00">|&#45; ( ps &lt;&#45;&gt; th )</text>
</g>
<!-- n18116 -->
<g id="node27" class="node"><title>n18116</title>
</g>
<!-- n18116&#45;&gt;n18120 -->
<g id="edge24" class="edge"><title>n18116&#45;&gt;n18120</title>
<path fill="none" stroke="lightgray" d="M71.2433,-341.074C114.887,-337.846 202.869,-331.339 252.464,-327.672"/>
<polygon fill="lightgray" stroke="lightgray" points="253.014,-331.141 262.728,-326.912 252.497,-324.16 253.014,-331.141"/>
<text text-anchor="middle" x="166.892" y="-342.8" font-family="Times New Roman,serif" font-size="14.00" fill="lightgray">wff ph</text>
</g>
<!-- n18117 -->
<g id="node29" class="node"><title>n18117</title>
</g>
<!-- n18116&#45;&gt;n18117 -->
<g id="edge29" class="edge"><title>n18116&#45;&gt;n18117</title>
</g>
<!-- n18120&#45;&gt;n18121 -->
<g id="edge28" class="edge"><title>n18120&#45;&gt;n18121</title>
<path fill="none" stroke="black" d="M316.1,-328.98C354.032,-334.953 427.522,-346.741 489.784,-358 496.007,-359.125 502.575,-360.362 509.008,-361.6"/>
<polygon fill="black" stroke="black" points="508.452,-365.057 518.936,-363.532 509.789,-358.186 508.452,-365.057"/>
<text text-anchor="middle" x="420.784" y="-361.8" font-family="Times New Roman,serif" font-size="14.00">|&#45; ( ph &#45;&gt; ( &#45;. ps &#45;&gt; ch ) )</text>
</g>
<!-- n18117&#45;&gt;n18120 -->
<g id="edge25" class="edge"><title>n18117&#45;&gt;n18120</title>
<path fill="none" stroke="lightgray" d="M70.262,-276.43C105.402,-284.059 171.301,-298.427 227.392,-311 236.03,-312.936 245.346,-315.053 254.041,-317.041"/>
<polygon fill="lightgray" stroke="lightgray" points="253.356,-320.475 263.886,-319.297 254.92,-313.651 253.356,-320.475"/>
<text text-anchor="middle" x="166.892" y="-314.8" font-family="Times New Roman,serif" font-size="14.00" fill="lightgray">wff ps</text>
</g>
<!-- n18118 -->
<g id="node30" class="node"><title>n18118</title>
</g>
<!-- n18117&#45;&gt;n18118 -->
<g id="edge30" class="edge"><title>n18117&#45;&gt;n18118</title>
</g>
<!-- n18118&#45;&gt;n18120 -->
<g id="edge26" class="edge"><title>n18118&#45;&gt;n18120</title>
<path fill="none" stroke="lightgray" d="M70.6076,-202.883C108.553,-209.816 180.562,-227.477 227.392,-267 239.568,-277.275 234.312,-286.552 245.392,-298 249.313,-302.051 253.96,-305.759 258.728,-309.043"/>
<polygon fill="lightgray" stroke="lightgray" points="256.99,-312.085 267.311,-314.48 260.736,-306.172 256.99,-312.085"/>
<text text-anchor="middle" x="166.892" y="-270.8" font-family="Times New Roman,serif" font-size="14.00" fill="lightgray">wff ch</text>
</g>
<!-- n18119 -->
<g id="node31" class="node"><title>n18119</title>
<ellipse fill="orange" stroke="black" cx="44.1961" cy="-127" rx="44.393" ry="18"/>
<text text-anchor="middle" x="44.1961" y="-123.3" font-family="Times New Roman,serif" font-size="14.00">oplem1.1</text>
</g>
<!-- n18118&#45;&gt;n18119 -->
<g id="edge31" class="edge"><title>n18118&#45;&gt;n18119</title>
</g>
<!-- n18119&#45;&gt;n18120 -->
<g id="edge27" class="edge"><title>n18119&#45;&gt;n18120</title>
<path fill="none" stroke="black" d="M87.8785,-130.15C129.925,-135.644 192.743,-150.709 227.392,-192 258.109,-228.605 218.799,-258.298 245.392,-298 248.53,-302.684 252.783,-306.71 257.403,-310.114"/>
<polygon fill="black" stroke="black" points="255.64,-313.141 265.95,-315.58 259.411,-307.244 255.64,-313.141"/>
<text text-anchor="middle" x="166.892" y="-195.8" font-family="Times New Roman,serif" font-size="14.00">|&#45; ( ph &#45;&gt; ( ps \/ ch ) )</text>
</g>
<!-- n18122 -->
<g id="node32" class="node"><title>n18122</title>
</g>
<!-- n18122&#45;&gt;n18126 -->
<g id="edge38" class="edge"><title>n18122&#45;&gt;n18126</title>
<path fill="none" stroke="lightgray" d="M316.508,-272.692C363.179,-275.739 461.444,-282.155 514.747,-285.634"/>
<polygon fill="lightgray" stroke="lightgray" points="514.573,-289.13 524.779,-286.289 515.029,-282.145 514.573,-289.13"/>
<text text-anchor="middle" x="420.784" y="-287.8" font-family="Times New Roman,serif" font-size="14.00" fill="lightgray">wff ph</text>
</g>
<!-- n18123 -->
<g id="node34" class="node"><title>n18123</title>
</g>
<!-- n18122&#45;&gt;n18123 -->
<g id="edge43" class="edge"><title>n18122&#45;&gt;n18123</title>
</g>
<!-- n18126&#45;&gt;n18127 -->
<g id="edge42" class="edge"><title>n18126&#45;&gt;n18127</title>
<path fill="none" stroke="black" d="M577.358,-294.64C615.29,-305.448 690.209,-328.716 749.176,-359 759.391,-364.246 769.94,-371.082 779.054,-377.507"/>
<polygon fill="black" stroke="black" points="777.142,-380.444 787.294,-383.476 781.249,-374.775 777.142,-380.444"/>
<text text-anchor="middle" x="681.676" y="-362.8" font-family="Times New Roman,serif" font-size="14.00">|&#45; ( ph &#45;&gt; ( &#45;. th &#45;&gt; ta ) )</text>
</g>
<!-- n18123&#45;&gt;n18126 -->
<g id="edge39" class="edge"><title>n18123&#45;&gt;n18126</title>
<path fill="none" stroke="lightgray" d="M315.3,-204.627C353.443,-213.659 428.645,-232.855 489.784,-257 500.445,-261.21 511.74,-266.636 521.684,-271.769"/>
<polygon fill="lightgray" stroke="lightgray" points="520.263,-274.976 530.74,-276.55 523.532,-268.786 520.263,-274.976"/>
<text text-anchor="middle" x="420.784" y="-260.8" font-family="Times New Roman,serif" font-size="14.00" fill="lightgray">wff th</text>
</g>
<!-- n18124 -->
<g id="node35" class="node"><title>n18124</title>
</g>
<!-- n18123&#45;&gt;n18124 -->
<g id="edge44" class="edge"><title>n18123&#45;&gt;n18124</title>
</g>
<!-- n18124&#45;&gt;n18126 -->
<g id="edge40" class="edge"><title>n18124&#45;&gt;n18126</title>
<path fill="none" stroke="lightgray" d="M316.674,-128.522C359.152,-132.432 443.197,-146.366 489.784,-196 510.299,-217.856 489.855,-236.977 507.784,-261 511.156,-265.518 515.528,-269.461 520.192,-272.834"/>
<polygon fill="lightgray" stroke="lightgray" points="518.436,-275.865 528.75,-278.292 522.2,-269.963 518.436,-275.865"/>
<text text-anchor="middle" x="420.784" y="-199.8" font-family="Times New Roman,serif" font-size="14.00" fill="lightgray">wff ta</text>
</g>
<!-- n18125 -->
<g id="node36" class="node"><title>n18125</title>
<ellipse fill="orange" stroke="black" cx="289.588" cy="-55" rx="44.393" ry="18"/>
<text text-anchor="middle" x="289.588" y="-51.3" font-family="Times New Roman,serif" font-size="14.00">oplem1.2</text>
</g>
<!-- n18124&#45;&gt;n18125 -->
<g id="edge45" class="edge"><title>n18124&#45;&gt;n18125</title>
</g>
<!-- n18125&#45;&gt;n18126 -->
<g id="edge41" class="edge"><title>n18125&#45;&gt;n18126</title>
<path fill="none" stroke="black" d="M334.063,-55.1068C380.16,-57.7542 451.489,-69.5755 489.784,-115 531.926,-164.987 472.646,-205.865 507.784,-261 510.874,-265.848 515.179,-269.974 519.884,-273.433"/>
<polygon fill="black" stroke="black" points="518.285,-276.563 528.607,-278.951 522.027,-270.647 518.285,-276.563"/>
<text text-anchor="middle" x="420.784" y="-118.8" font-family="Times New Roman,serif" font-size="14.00">|&#45; ( ph &#45;&gt; ( th \/ ta ) )</text>
</g>
<!-- n18128 -->
<g id="node37" class="node"><title>n18128</title>
</g>
<!-- n18128&#45;&gt;n18132 -->
<g id="edge52" class="edge"><title>n18128&#45;&gt;n18132</title>
<path fill="none" stroke="lightgray" d="M578.952,-231.109C621.082,-226.419 704.906,-217.089 757.659,-211.217"/>
<polygon fill="lightgray" stroke="lightgray" points="758.223,-214.676 767.774,-210.091 757.448,-207.719 758.223,-214.676"/>
<text text-anchor="middle" x="681.676" y="-230.8" font-family="Times New Roman,serif" font-size="14.00" fill="lightgray">wff ch</text>
</g>
<!-- n18129 -->
<g id="node39" class="node"><title>n18129</title>
</g>
<!-- n18128&#45;&gt;n18129 -->
<g id="edge57" class="edge"><title>n18128&#45;&gt;n18129</title>
</g>
<!-- n18132&#45;&gt;n18133 -->
<g id="edge56" class="edge"><title>n18132&#45;&gt;n18133</title>
<path fill="none" stroke="black" d="M831.656,-219.486C878.365,-245.712 979.124,-307.924 1037.87,-386 1056.61,-410.912 1068.59,-444.885 1075.23,-468.456"/>
<polygon fill="black" stroke="black" points="1071.87,-469.423 1077.84,-478.175 1078.63,-467.609 1071.87,-469.423"/>
<text text-anchor="middle" x="949.87" y="-389.8" font-family="Times New Roman,serif" font-size="14.00">|&#45; ( ( ch /\ ta ) &#45;&gt; th )</text>
</g>
<!-- n18129&#45;&gt;n18132 -->
<g id="edge53" class="edge"><title>n18129&#45;&gt;n18132</title>
<path fill="none" stroke="lightgray" d="M578.452,-165.723C615.943,-171.301 688.145,-182.415 749.176,-194 752.871,-194.701 756.698,-195.461 760.533,-196.246"/>
<polygon fill="lightgray" stroke="lightgray" points="760.121,-199.736 770.627,-198.36 761.556,-192.884 760.121,-199.736"/>
<text text-anchor="middle" x="681.676" y="-197.8" font-family="Times New Roman,serif" font-size="14.00" fill="lightgray">wff th</text>
</g>
<!-- n18130 -->
<g id="node40" class="node"><title>n18130</title>
</g>
<!-- n18129&#45;&gt;n18130 -->
<g id="edge58" class="edge"><title>n18129&#45;&gt;n18130</title>
</g>
<!-- n18130&#45;&gt;n18132 -->
<g id="edge54" class="edge"><title>n18130&#45;&gt;n18132</title>
<path fill="none" stroke="lightgray" d="M578.341,-94.335C617.258,-101.797 693.085,-119.588 749.176,-153 761.928,-160.596 774.076,-171.636 783.726,-181.677"/>
<polygon fill="lightgray" stroke="lightgray" points="781.224,-184.127 790.586,-189.087 786.361,-179.371 781.224,-184.127"/>
<text text-anchor="middle" x="681.676" y="-156.8" font-family="Times New Roman,serif" font-size="14.00" fill="lightgray">wff ta</text>
</g>
<!-- n18131 -->
<g id="node41" class="node"><title>n18131</title>
<ellipse fill="orange" stroke="black" cx="551.98" cy="-18" rx="44.393" ry="18"/>
<text text-anchor="middle" x="551.98" y="-14.3" font-family="Times New Roman,serif" font-size="14.00">oplem1.4</text>
</g>
<!-- n18130&#45;&gt;n18131 -->
<g id="edge59" class="edge"><title>n18130&#45;&gt;n18131</title>
</g>
<!-- n18131&#45;&gt;n18132 -->
<g id="edge55" class="edge"><title>n18131&#45;&gt;n18132</title>
<path fill="none" stroke="black" d="M595.037,-22.3146C638.47,-28.8101 705.843,-44.8516 749.176,-84 776.875,-109.024 791.597,-150.623 798.727,-178.179"/>
<polygon fill="black" stroke="black" points="795.346,-179.091 801.099,-187.988 802.15,-177.446 795.346,-179.091"/>
<text text-anchor="middle" x="681.676" y="-87.8" font-family="Times New Roman,serif" font-size="14.00">|&#45; ( ch &#45;&gt; ( th &lt;&#45;&gt; ta ) )</text>
</g>
<!-- n18135&#45;&gt;n18136 -->
<g id="edge69" class="edge"><title>n18135&#45;&gt;n18136</title>
<path fill="none" stroke="black" d="M1354.8,-508.33C1385.23,-521.235 1431.28,-543.698 1464.26,-573 1477.43,-584.7 1488.96,-600.705 1497.37,-614.137"/>
<polygon fill="black" stroke="black" points="1494.51,-616.181 1502.67,-622.941 1500.51,-612.569 1494.51,-616.181"/>
<text text-anchor="middle" x="1424.26" y="-576.8" font-family="Times New Roman,serif" font-size="14.00">|&#45; ( ps &lt;&#45;&gt; th )</text>
</g>
</g>
</svg>
