<?xml version="1.0" encoding="UTF-8" standalone="no"?>
<!DOCTYPE svg PUBLIC "-//W3C//DTD SVG 1.1//EN"
 "http://www.w3.org/Graphics/SVG/1.1/DTD/svg11.dtd">
<!-- Generated by graphviz version 2.38.0 (20140413.2041)
 -->
<!-- Title: proof_or42 Pages: 1 -->
<svg width="1353pt" height="608pt"
 viewBox="0.00 0.00 1353.08 608.00" xmlns="http://www.w3.org/2000/svg" xmlns:xlink="http://www.w3.org/1999/xlink">
<g id="graph0" class="graph" transform="scale(1 1) rotate(0) translate(4 604)">
<title>proof_or42</title>
<polygon fill="white" stroke="none" points="-4,4 -4,-604 1349.08,-604 1349.08,4 -4,4"/>
<!-- n9149 -->
<g id="node1" class="node"><title>n9149</title>
</g>
<!-- n9182 -->
<g id="node2" class="node"><title>n9182</title>
<ellipse fill="cyan" stroke="black" cx="874.588" cy="-430" rx="27" ry="18"/>
<text text-anchor="middle" x="874.588" y="-426.3" font-family="Times New Roman,serif" font-size="14.00">bitri</text>
</g>
<!-- n9149&#45;&gt;n9182 -->
<g id="edge1" class="edge"><title>n9149&#45;&gt;n9182</title>
<path fill="none" stroke="lightgray" d="M457.497,-577.961C525.5,-586.96 712.653,-602.1 829.588,-518 849.545,-503.647 860.969,-477.621 867.147,-457.582"/>
<polygon fill="lightgray" stroke="lightgray" points="870.576,-458.317 869.917,-447.743 863.838,-456.42 870.576,-458.317"/>
<text text-anchor="middle" x="655.088" y="-588.8" font-family="Times New Roman,serif" font-size="14.00" fill="lightgray">wff ( ( ph \/ ps ) \/ ( ch \/ th ) )</text>
</g>
<!-- n9156 -->
<g id="node3" class="node"><title>n9156</title>
</g>
<!-- n9149&#45;&gt;n9156 -->
<g id="edge24" class="edge"><title>n9149&#45;&gt;n9156</title>
</g>
<!-- QED -->
<g id="node17" class="node"><title>QED</title>
</g>
<!-- n9182&#45;&gt;QED -->
<g id="edge23" class="edge"><title>n9182&#45;&gt;QED</title>
<path fill="none" stroke="black" d="M901.75,-430C976.112,-430 1188.98,-430 1276.52,-430"/>
<polygon fill="black" stroke="black" points="1276.56,-433.5 1286.56,-430 1276.56,-426.5 1276.56,-433.5"/>
<text text-anchor="middle" x="1094.09" y="-433.8" font-family="Times New Roman,serif" font-size="14.00">|&#45; ( ( ( ph \/ ps ) \/ ( ch \/ th ) ) &lt;&#45;&gt; ( ( ph \/ ch ) \/ ( th \/ ps ) ) )</text>
</g>
<!-- n9156&#45;&gt;n9182 -->
<g id="edge2" class="edge"><title>n9156&#45;&gt;n9182</title>
<path fill="none" stroke="lightgray" d="M457.832,-501C522.136,-498.006 692.926,-486.827 829.588,-449 834.039,-447.768 838.628,-446.177 843.086,-444.441"/>
<polygon fill="lightgray" stroke="lightgray" points="844.656,-447.578 852.532,-440.491 841.955,-441.12 844.656,-447.578"/>
<text text-anchor="middle" x="655.088" y="-502.8" font-family="Times New Roman,serif" font-size="14.00" fill="lightgray">wff ( ( ph \/ ch ) \/ ( ps \/ th ) )</text>
</g>
<!-- n9163 -->
<g id="node4" class="node"><title>n9163</title>
</g>
<!-- n9156&#45;&gt;n9163 -->
<g id="edge25" class="edge"><title>n9156&#45;&gt;n9163</title>
</g>
<!-- n9163&#45;&gt;n9182 -->
<g id="edge3" class="edge"><title>n9163&#45;&gt;n9182</title>
<path fill="none" stroke="lightgray" d="M458.057,-430C533.498,-430 750.643,-430 837.271,-430"/>
<polygon fill="lightgray" stroke="lightgray" points="837.41,-433.5 847.41,-430 837.41,-426.5 837.41,-433.5"/>
<text text-anchor="middle" x="655.088" y="-433.8" font-family="Times New Roman,serif" font-size="14.00" fill="lightgray">wff ( ( ph \/ ch ) \/ ( th \/ ps ) )</text>
</g>
<!-- n9168 -->
<g id="node6" class="node"><title>n9168</title>
<ellipse fill="cyan" stroke="black" cx="430.741" cy="-358" rx="27" ry="18"/>
<text text-anchor="middle" x="430.741" y="-354.3" font-family="Times New Roman,serif" font-size="14.00">or4</text>
</g>
<!-- n9163&#45;&gt;n9168 -->
<g id="edge26" class="edge"><title>n9163&#45;&gt;n9168</title>
</g>
<!-- n9164 -->
<g id="node5" class="node"><title>n9164</title>
</g>
<!-- n9164&#45;&gt;n9168 -->
<g id="edge4" class="edge"><title>n9164&#45;&gt;n9168</title>
<path fill="none" stroke="lightgray" d="M188.533,-539.813C234.307,-539.738 329.137,-532.627 380.894,-479 405,-454.023 384.843,-434.741 398.894,-403 402.057,-395.855 406.385,-388.641 410.799,-382.146"/>
<polygon fill="lightgray" stroke="lightgray" points="413.793,-383.975 416.769,-373.807 408.102,-379.9 413.793,-383.975"/>
<text text-anchor="middle" x="297.394" y="-542.8" font-family="Times New Roman,serif" font-size="14.00" fill="lightgray">wff ph</text>
</g>
<!-- n9165 -->
<g id="node7" class="node"><title>n9165</title>
</g>
<!-- n9164&#45;&gt;n9165 -->
<g id="edge9" class="edge"><title>n9164&#45;&gt;n9165</title>
</g>
<!-- n9168&#45;&gt;n9182 -->
<g id="edge8" class="edge"><title>n9168&#45;&gt;n9182</title>
<path fill="none" stroke="black" d="M457.832,-359C522.136,-361.994 692.926,-373.173 829.588,-411 834.039,-412.232 838.628,-413.823 843.086,-415.559"/>
<polygon fill="black" stroke="black" points="841.955,-418.88 852.532,-419.509 844.656,-412.422 841.955,-418.88"/>
<text text-anchor="middle" x="655.088" y="-414.8" font-family="Times New Roman,serif" font-size="14.00">|&#45; ( ( ( ph \/ ps ) \/ ( ch \/ th ) ) &lt;&#45;&gt; ( ( ph \/ ch ) \/ ( ps \/ th ) ) )</text>
</g>
<!-- n9181 -->
<g id="node11" class="node"><title>n9181</title>
<ellipse fill="cyan" stroke="black" cx="430.741" cy="-237" rx="31.6951" ry="18"/>
<text text-anchor="middle" x="430.741" y="-233.3" font-family="Times New Roman,serif" font-size="14.00">orbi2i</text>
</g>
<!-- n9168&#45;&gt;n9181 -->
<g id="edge27" class="edge"><title>n9168&#45;&gt;n9181</title>
</g>
<!-- n9165&#45;&gt;n9168 -->
<g id="edge5" class="edge"><title>n9165&#45;&gt;n9168</title>
<path fill="none" stroke="lightgray" d="M188.294,-464.038C230.908,-458.258 317.499,-442.675 380.894,-406 391.878,-399.645 402.195,-390.246 410.49,-381.445"/>
<polygon fill="lightgray" stroke="lightgray" points="413.141,-383.732 417.226,-373.956 407.936,-379.05 413.141,-383.732"/>
<text text-anchor="middle" x="297.394" y="-463.8" font-family="Times New Roman,serif" font-size="14.00" fill="lightgray">wff ps</text>
</g>
<!-- n9166 -->
<g id="node8" class="node"><title>n9166</title>
</g>
<!-- n9165&#45;&gt;n9166 -->
<g id="edge10" class="edge"><title>n9165&#45;&gt;n9166</title>
</g>
<!-- n9166&#45;&gt;n9168 -->
<g id="edge6" class="edge"><title>n9166&#45;&gt;n9168</title>
<path fill="none" stroke="lightgray" d="M188.076,-391.452C236.074,-384.808 339.589,-370.479 394.256,-362.912"/>
<polygon fill="lightgray" stroke="lightgray" points="394.764,-366.375 404.189,-361.537 393.804,-359.441 394.764,-366.375"/>
<text text-anchor="middle" x="297.394" y="-390.8" font-family="Times New Roman,serif" font-size="14.00" fill="lightgray">wff ch</text>
</g>
<!-- n9167 -->
<g id="node9" class="node"><title>n9167</title>
</g>
<!-- n9166&#45;&gt;n9167 -->
<g id="edge11" class="edge"><title>n9166&#45;&gt;n9167</title>
</g>
<!-- n9167&#45;&gt;n9168 -->
<g id="edge7" class="edge"><title>n9167&#45;&gt;n9168</title>
<path fill="none" stroke="lightgray" d="M188.412,-325.549C229.408,-329.696 311.601,-338.504 380.894,-349 385.379,-349.679 390.084,-350.46 394.729,-351.271"/>
<polygon fill="lightgray" stroke="lightgray" points="394.229,-354.737 404.692,-353.068 395.472,-347.848 394.229,-354.737"/>
<text text-anchor="middle" x="297.394" y="-352.8" font-family="Times New Roman,serif" font-size="14.00" fill="lightgray">wff th</text>
</g>
<!-- n9171 -->
<g id="node10" class="node"><title>n9171</title>
</g>
<!-- n9171&#45;&gt;n9181 -->
<g id="edge12" class="edge"><title>n9171&#45;&gt;n9181</title>
<path fill="none" stroke="lightgray" d="M188.076,-265.932C234.601,-260.362 333.287,-248.547 389.088,-241.867"/>
<polygon fill="lightgray" stroke="lightgray" points="389.804,-245.306 399.317,-240.642 388.972,-238.356 389.804,-245.306"/>
<text text-anchor="middle" x="297.394" y="-266.8" font-family="Times New Roman,serif" font-size="14.00" fill="lightgray">wff ( ps \/ th )</text>
</g>
<!-- n9174 -->
<g id="node12" class="node"><title>n9174</title>
</g>
<!-- n9171&#45;&gt;n9174 -->
<g id="edge20" class="edge"><title>n9171&#45;&gt;n9174</title>
</g>
<!-- n9181&#45;&gt;n9182 -->
<g id="edge19" class="edge"><title>n9181&#45;&gt;n9182</title>
<path fill="none" stroke="black" d="M462.724,-236.775C535.168,-237.849 717.925,-250.023 829.588,-341 848.705,-356.576 860.197,-382.537 866.616,-402.413"/>
<polygon fill="black" stroke="black" points="863.312,-403.581 869.523,-412.164 870.02,-401.581 863.312,-403.581"/>
<text text-anchor="middle" x="655.088" y="-344.8" font-family="Times New Roman,serif" font-size="14.00">|&#45; ( ( ( ph \/ ch ) \/ ( ps \/ th ) ) &lt;&#45;&gt; ( ( ph \/ ch ) \/ ( th \/ ps ) ) )</text>
</g>
<!-- n9174&#45;&gt;n9181 -->
<g id="edge13" class="edge"><title>n9174&#45;&gt;n9181</title>
<path fill="none" stroke="lightgray" d="M188.488,-199.373C229.589,-203.335 311.919,-212.15 380.894,-225 384.497,-225.671 388.231,-226.445 391.957,-227.269"/>
<polygon fill="lightgray" stroke="lightgray" points="391.172,-230.68 401.704,-229.535 392.756,-223.862 391.172,-230.68"/>
<text text-anchor="middle" x="297.394" y="-228.8" font-family="Times New Roman,serif" font-size="14.00" fill="lightgray">wff ( th \/ ps )</text>
</g>
<!-- n9177 -->
<g id="node13" class="node"><title>n9177</title>
</g>
<!-- n9174&#45;&gt;n9177 -->
<g id="edge21" class="edge"><title>n9174&#45;&gt;n9177</title>
</g>
<!-- n9177&#45;&gt;n9181 -->
<g id="edge14" class="edge"><title>n9177&#45;&gt;n9181</title>
<path fill="none" stroke="lightgray" d="M188.498,-127.325C231.407,-132.14 318.411,-146.122 380.894,-184 392.765,-191.196 403.52,-202.109 411.898,-212.165"/>
<polygon fill="lightgray" stroke="lightgray" points="409.396,-214.643 418.348,-220.31 414.884,-210.298 409.396,-214.643"/>
<text text-anchor="middle" x="297.394" y="-187.8" font-family="Times New Roman,serif" font-size="14.00" fill="lightgray">wff ( ph \/ ch )</text>
</g>
<!-- n9180 -->
<g id="node15" class="node"><title>n9180</title>
<ellipse fill="cyan" stroke="black" cx="161.447" cy="-53" rx="34.394" ry="18"/>
<text text-anchor="middle" x="161.447" y="-49.3" font-family="Times New Roman,serif" font-size="14.00">orcom</text>
</g>
<!-- n9177&#45;&gt;n9180 -->
<g id="edge22" class="edge"><title>n9177&#45;&gt;n9180</title>
</g>
<!-- n9178 -->
<g id="node14" class="node"><title>n9178</title>
</g>
<!-- n9178&#45;&gt;n9180 -->
<g id="edge15" class="edge"><title>n9178&#45;&gt;n9180</title>
<path fill="none" stroke="lightgray" d="M52.2928,-83.2136C71.4623,-77.8585 98.5948,-70.2788 120.888,-64.0512"/>
<polygon fill="lightgray" stroke="lightgray" points="122.054,-67.3593 130.744,-61.2978 120.171,-60.6175 122.054,-67.3593"/>
<text text-anchor="middle" x="90.5" y="-80.8" font-family="Times New Roman,serif" font-size="14.00" fill="lightgray">wff ps</text>
</g>
<!-- n9179 -->
<g id="node16" class="node"><title>n9179</title>
</g>
<!-- n9178&#45;&gt;n9179 -->
<g id="edge18" class="edge"><title>n9178&#45;&gt;n9179</title>
</g>
<!-- n9180&#45;&gt;n9181 -->
<g id="edge17" class="edge"><title>n9180&#45;&gt;n9181</title>
<path fill="none" stroke="black" d="M196.033,-53.0761C243.081,-54.97 328.689,-65.1843 380.894,-112 408.888,-137.104 420.999,-180.233 426.128,-208.684"/>
<polygon fill="black" stroke="black" points="422.713,-209.491 427.77,-218.801 429.622,-208.37 422.713,-209.491"/>
<text text-anchor="middle" x="297.394" y="-115.8" font-family="Times New Roman,serif" font-size="14.00">|&#45; ( ( ps \/ th ) &lt;&#45;&gt; ( th \/ ps ) )</text>
</g>
<!-- n9179&#45;&gt;n9180 -->
<g id="edge16" class="edge"><title>n9179&#45;&gt;n9180</title>
<path fill="none" stroke="lightgray" d="M52.2928,-24.4195C71.3328,-29.451 98.2285,-36.5584 120.435,-42.4266"/>
<polygon fill="lightgray" stroke="lightgray" points="119.701,-45.8527 130.263,-45.0238 121.489,-39.085 119.701,-45.8527"/>
<text text-anchor="middle" x="90.5" y="-42.8" font-family="Times New Roman,serif" font-size="14.00" fill="lightgray">wff th</text>
</g>
</g>
</svg>
