<?xml version="1.0" encoding="UTF-8" standalone="no"?>
<!DOCTYPE svg PUBLIC "-//W3C//DTD SVG 1.1//EN"
 "http://www.w3.org/Graphics/SVG/1.1/DTD/svg11.dtd">
<!-- Generated by graphviz version 2.38.0 (20140413.2041)
 -->
<!-- Title: proof_orabs Pages: 1 -->
<svg width="701pt" height="223pt"
 viewBox="0.00 0.00 701.29 223.00" xmlns="http://www.w3.org/2000/svg" xmlns:xlink="http://www.w3.org/1999/xlink">
<g id="graph0" class="graph" transform="scale(1 1) rotate(0) translate(4 219)">
<title>proof_orabs</title>
<polygon fill="white" stroke="none" points="-4,4 -4,-219 697.287,-219 697.287,4 -4,4"/>
<!-- n14702 -->
<g id="node1" class="node"><title>n14702</title>
</g>
<!-- n14709 -->
<g id="node2" class="node"><title>n14709</title>
<ellipse fill="cyan" stroke="black" cx="380.896" cy="-125" rx="42.7926" ry="18"/>
<text text-anchor="middle" x="380.896" y="-121.3" font-family="Times New Roman,serif" font-size="14.00">pm4.71ri</text>
</g>
<!-- n14702&#45;&gt;n14709 -->
<g id="edge1" class="edge"><title>n14702&#45;&gt;n14709</title>
<path fill="none" stroke="lightgray" d="M178.643,-189.431C216.125,-177.431 289.749,-153.86 336.799,-138.797"/>
<polygon fill="lightgray" stroke="lightgray" points="337.956,-142.102 346.413,-135.72 335.822,-135.435 337.956,-142.102"/>
<text text-anchor="middle" x="259.5" y="-184.8" font-family="Times New Roman,serif" font-size="14.00" fill="lightgray">wff ph</text>
</g>
<!-- n14705 -->
<g id="node3" class="node"><title>n14705</title>
</g>
<!-- n14702&#45;&gt;n14705 -->
<g id="edge8" class="edge"><title>n14702&#45;&gt;n14705</title>
</g>
<!-- QED -->
<g id="node7" class="node"><title>QED</title>
</g>
<!-- n14709&#45;&gt;QED -->
<g id="edge7" class="edge"><title>n14709&#45;&gt;QED</title>
<path fill="none" stroke="black" d="M423.986,-125C478.301,-125 572.035,-125 624.541,-125"/>
<polygon fill="black" stroke="black" points="624.78,-128.5 634.78,-125 624.78,-121.5 624.78,-128.5"/>
<text text-anchor="middle" x="529.292" y="-128.8" font-family="Times New Roman,serif" font-size="14.00">|&#45; ( ph &lt;&#45;&gt; ( ( ph \/ ps ) /\ ph ) )</text>
</g>
<!-- n14705&#45;&gt;n14709 -->
<g id="edge2" class="edge"><title>n14705&#45;&gt;n14709</title>
<path fill="none" stroke="lightgray" d="M181.239,-125C217.002,-125 281.843,-125 327.705,-125"/>
<polygon fill="lightgray" stroke="lightgray" points="327.764,-128.5 337.764,-125 327.764,-121.5 327.764,-128.5"/>
<text text-anchor="middle" x="259.5" y="-128.8" font-family="Times New Roman,serif" font-size="14.00" fill="lightgray">wff ( ph \/ ps )</text>
</g>
<!-- n14708 -->
<g id="node5" class="node"><title>n14708</title>
<ellipse fill="cyan" stroke="black" cx="154" cy="-53" rx="27" ry="18"/>
<text text-anchor="middle" x="154" y="-49.3" font-family="Times New Roman,serif" font-size="14.00">orc</text>
</g>
<!-- n14705&#45;&gt;n14708 -->
<g id="edge9" class="edge"><title>n14705&#45;&gt;n14708</title>
</g>
<!-- n14706 -->
<g id="node4" class="node"><title>n14706</title>
</g>
<!-- n14706&#45;&gt;n14708 -->
<g id="edge3" class="edge"><title>n14706&#45;&gt;n14708</title>
<path fill="none" stroke="lightgray" d="M52.1013,-82.866C71.2097,-77.2099 98.1365,-69.2396 119.368,-62.9551"/>
<polygon fill="lightgray" stroke="lightgray" points="120.377,-66.3065 128.973,-60.1121 118.391,-59.5943 120.377,-66.3065"/>
<text text-anchor="middle" x="90.5" y="-80.8" font-family="Times New Roman,serif" font-size="14.00" fill="lightgray">wff ph</text>
</g>
<!-- n14707 -->
<g id="node6" class="node"><title>n14707</title>
</g>
<!-- n14706&#45;&gt;n14707 -->
<g id="edge6" class="edge"><title>n14706&#45;&gt;n14707</title>
</g>
<!-- n14708&#45;&gt;n14709 -->
<g id="edge5" class="edge"><title>n14708&#45;&gt;n14709</title>
<path fill="none" stroke="black" d="M178.643,-60.5692C216.125,-72.569 289.749,-96.1397 336.799,-111.203"/>
<polygon fill="black" stroke="black" points="335.822,-114.565 346.413,-114.28 337.956,-107.898 335.822,-114.565"/>
<text text-anchor="middle" x="259.5" y="-108.8" font-family="Times New Roman,serif" font-size="14.00">|&#45; ( ph &#45;&gt; ( ph \/ ps ) )</text>
</g>
<!-- n14707&#45;&gt;n14708 -->
<g id="edge4" class="edge"><title>n14707&#45;&gt;n14708</title>
<path fill="none" stroke="lightgray" d="M52.1013,-24.7484C71.0013,-30.0404 97.5501,-37.474 118.671,-43.3879"/>
<polygon fill="lightgray" stroke="lightgray" points="117.973,-46.8269 128.546,-46.1529 119.86,-40.0862 117.973,-46.8269"/>
<text text-anchor="middle" x="90.5" y="-44.8" font-family="Times New Roman,serif" font-size="14.00" fill="lightgray">wff ps</text>
</g>
</g>
</svg>
