<?xml version="1.0" encoding="UTF-8" standalone="no"?>
<!DOCTYPE svg PUBLIC "-//W3C//DTD SVG 1.1//EN"
 "http://www.w3.org/Graphics/SVG/1.1/DTD/svg11.dtd">
<!-- Generated by graphviz version 2.38.0 (20140413.2041)
 -->
<!-- Title: proof_orbidi Pages: 1 -->
<svg width="1451pt" height="958pt"
 viewBox="0.00 0.00 1451.28 958.00" xmlns="http://www.w3.org/2000/svg" xmlns:xlink="http://www.w3.org/1999/xlink">
<g id="graph0" class="graph" transform="scale(1 1) rotate(0) translate(4 954)">
<title>proof_orbidi</title>
<polygon fill="white" stroke="none" points="-4,4 -4,-954 1447.28,-954 1447.28,4 -4,4"/>
<!-- n16566 -->
<g id="node1" class="node"><title>n16566</title>
</g>
<!-- n16619 -->
<g id="node2" class="node"><title>n16619</title>
<ellipse fill="cyan" stroke="black" cx="977.985" cy="-695" rx="33.5952" ry="18"/>
<text text-anchor="middle" x="977.985" y="-691.3" font-family="Times New Roman,serif" font-size="14.00">3bitr4i</text>
</g>
<!-- n16566&#45;&gt;n16619 -->
<g id="edge1" class="edge"><title>n16566&#45;&gt;n16619</title>
<path fill="none" stroke="lightgray" d="M477.73,-916.602C554.537,-932.327 790.822,-968.783 926.188,-857 966.111,-824.032 975.163,-760.032 976.912,-723.11"/>
<polygon fill="lightgray" stroke="lightgray" points="980.413,-723.131 977.24,-713.023 973.417,-722.904 980.413,-723.131"/>
<text text-anchor="middle" x="717.188" y="-938.8" font-family="Times New Roman,serif" font-size="14.00" fill="lightgray">wff ( &#45;. ph &#45;&gt; ( ps &lt;&#45;&gt; ch ) )</text>
</g>
<!-- n16575 -->
<g id="node3" class="node"><title>n16575</title>
</g>
<!-- n16566&#45;&gt;n16575 -->
<g id="edge34" class="edge"><title>n16566&#45;&gt;n16575</title>
</g>
<!-- QED -->
<g id="node24" class="node"><title>QED</title>
</g>
<!-- n16619&#45;&gt;QED -->
<g id="edge33" class="edge"><title>n16619&#45;&gt;QED</title>
<path fill="none" stroke="black" d="M1011.97,-695C1090.89,-695 1290.31,-695 1374.54,-695"/>
<polygon fill="black" stroke="black" points="1374.7,-698.5 1384.7,-695 1374.7,-691.5 1374.7,-698.5"/>
<text text-anchor="middle" x="1198.28" y="-698.8" font-family="Times New Roman,serif" font-size="14.00">|&#45; ( ( ph \/ ( ps &lt;&#45;&gt; ch ) ) &lt;&#45;&gt; ( ( ph \/ ps ) &lt;&#45;&gt; ( ph \/ ch ) ) )</text>
</g>
<!-- n16575&#45;&gt;n16619 -->
<g id="edge2" class="edge"><title>n16575&#45;&gt;n16619</title>
<path fill="none" stroke="lightgray" d="M479.05,-838.996C567.232,-838.524 851.815,-833.144 926.188,-784 947.873,-769.671 961.351,-742.711 968.927,-722.204"/>
<polygon fill="lightgray" stroke="lightgray" points="972.24,-723.333 972.182,-712.739 965.62,-721.057 972.24,-723.333"/>
<text text-anchor="middle" x="717.188" y="-841.8" font-family="Times New Roman,serif" font-size="14.00" fill="lightgray">wff ( ( &#45;. ph &#45;&gt; ps ) &lt;&#45;&gt; ( &#45;. ph &#45;&gt; ch ) )</text>
</g>
<!-- n16580 -->
<g id="node4" class="node"><title>n16580</title>
</g>
<!-- n16575&#45;&gt;n16580 -->
<g id="edge35" class="edge"><title>n16575&#45;&gt;n16580</title>
</g>
<!-- n16580&#45;&gt;n16619 -->
<g id="edge3" class="edge"><title>n16580&#45;&gt;n16619</title>
<path fill="none" stroke="lightgray" d="M478.881,-766.328C550.974,-763.989 758.905,-754.001 926.188,-714 931.21,-712.799 936.412,-711.241 941.486,-709.533"/>
<polygon fill="lightgray" stroke="lightgray" points="942.773,-712.79 951.005,-706.12 940.41,-706.201 942.773,-712.79"/>
<text text-anchor="middle" x="717.188" y="-768.8" font-family="Times New Roman,serif" font-size="14.00" fill="lightgray">wff ( ph \/ ( ps &lt;&#45;&gt; ch ) )</text>
</g>
<!-- n16587 -->
<g id="node5" class="node"><title>n16587</title>
</g>
<!-- n16580&#45;&gt;n16587 -->
<g id="edge36" class="edge"><title>n16580&#45;&gt;n16587</title>
</g>
<!-- n16587&#45;&gt;n16619 -->
<g id="edge4" class="edge"><title>n16587&#45;&gt;n16619</title>
<path fill="none" stroke="lightgray" d="M479.193,-695C563.788,-695 829.059,-695 933.815,-695"/>
<polygon fill="lightgray" stroke="lightgray" points="934.027,-698.5 944.026,-695 934.026,-691.5 934.027,-698.5"/>
<text text-anchor="middle" x="717.188" y="-698.8" font-family="Times New Roman,serif" font-size="14.00" fill="lightgray">wff ( ( ph \/ ps ) &lt;&#45;&gt; ( ph \/ ch ) )</text>
</g>
<!-- n16592 -->
<g id="node7" class="node"><title>n16592</title>
<ellipse fill="cyan" stroke="black" cx="451.841" cy="-623" rx="38.1938" ry="18"/>
<text text-anchor="middle" x="451.841" y="-619.3" font-family="Times New Roman,serif" font-size="14.00">pm5.74</text>
</g>
<!-- n16587&#45;&gt;n16592 -->
<g id="edge37" class="edge"><title>n16587&#45;&gt;n16592</title>
</g>
<!-- n16589 -->
<g id="node6" class="node"><title>n16589</title>
</g>
<!-- n16589&#45;&gt;n16592 -->
<g id="edge5" class="edge"><title>n16589&#45;&gt;n16592</title>
<path fill="none" stroke="lightgray" d="M183.265,-766.851C230.68,-765.254 332.099,-755.563 395.495,-704 409.373,-692.712 403.719,-682.981 413.495,-668 418.098,-660.946 423.641,-653.737 429.03,-647.215"/>
<polygon fill="lightgray" stroke="lightgray" points="431.878,-649.27 435.692,-639.385 426.546,-644.734 431.878,-649.27"/>
<text text-anchor="middle" x="299.495" y="-768.8" font-family="Times New Roman,serif" font-size="14.00" fill="lightgray">wff &#45;. ph</text>
</g>
<!-- n16590 -->
<g id="node8" class="node"><title>n16590</title>
</g>
<!-- n16589&#45;&gt;n16590 -->
<g id="edge9" class="edge"><title>n16589&#45;&gt;n16590</title>
</g>
<!-- n16592&#45;&gt;n16619 -->
<g id="edge8" class="edge"><title>n16592&#45;&gt;n16619</title>
<path fill="none" stroke="black" d="M490.202,-624.065C570.874,-627.041 766.948,-637.922 926.188,-676 931.21,-677.201 936.412,-678.759 941.486,-680.467"/>
<polygon fill="black" stroke="black" points="940.41,-683.799 951.005,-683.88 942.773,-677.21 940.41,-683.799"/>
<text text-anchor="middle" x="717.188" y="-679.8" font-family="Times New Roman,serif" font-size="14.00">|&#45; ( ( &#45;. ph &#45;&gt; ( ps &lt;&#45;&gt; ch ) ) &lt;&#45;&gt; ( ( &#45;. ph &#45;&gt; ps ) &lt;&#45;&gt; ( &#45;. ph &#45;&gt; ch ) ) )</text>
</g>
<!-- n16597 -->
<g id="node11" class="node"><title>n16597</title>
<ellipse fill="lawngreen" stroke="black" cx="451.841" cy="-551" rx="29.4969" ry="18"/>
<text text-anchor="middle" x="451.841" y="-547.3" font-family="Times New Roman,serif" font-size="14.00">df&#45;or</text>
</g>
<!-- n16592&#45;&gt;n16597 -->
<g id="edge38" class="edge"><title>n16592&#45;&gt;n16597</title>
</g>
<!-- n16590&#45;&gt;n16592 -->
<g id="edge6" class="edge"><title>n16590&#45;&gt;n16592</title>
<path fill="none" stroke="lightgray" d="M182.517,-690.344C226.274,-682.067 318.821,-663.616 395.495,-642 400.751,-640.518 406.239,-638.821 411.631,-637.065"/>
<polygon fill="lightgray" stroke="lightgray" points="412.791,-640.367 421.161,-633.872 410.567,-633.73 412.791,-640.367"/>
<text text-anchor="middle" x="299.495" y="-688.8" font-family="Times New Roman,serif" font-size="14.00" fill="lightgray">wff ps</text>
</g>
<!-- n16591 -->
<g id="node9" class="node"><title>n16591</title>
</g>
<!-- n16590&#45;&gt;n16591 -->
<g id="edge10" class="edge"><title>n16590&#45;&gt;n16591</title>
</g>
<!-- n16591&#45;&gt;n16592 -->
<g id="edge7" class="edge"><title>n16591&#45;&gt;n16592</title>
<path fill="none" stroke="lightgray" d="M183.302,-623C232.755,-623 340.865,-623 403.467,-623"/>
<polygon fill="lightgray" stroke="lightgray" points="403.481,-626.5 413.481,-623 403.481,-619.5 403.481,-626.5"/>
<text text-anchor="middle" x="299.495" y="-626.8" font-family="Times New Roman,serif" font-size="14.00" fill="lightgray">wff ch</text>
</g>
<!-- n16593 -->
<g id="node10" class="node"><title>n16593</title>
</g>
<!-- n16593&#45;&gt;n16597 -->
<g id="edge11" class="edge"><title>n16593&#45;&gt;n16597</title>
<path fill="none" stroke="lightgray" d="M183.302,-567.403C235.199,-564.221 351.694,-557.079 412.402,-553.357"/>
<polygon fill="lightgray" stroke="lightgray" points="412.94,-556.83 422.707,-552.725 412.512,-549.843 412.94,-556.83"/>
<text text-anchor="middle" x="299.495" y="-568.8" font-family="Times New Roman,serif" font-size="14.00" fill="lightgray">wff ph</text>
</g>
<!-- n16596 -->
<g id="node12" class="node"><title>n16596</title>
</g>
<!-- n16593&#45;&gt;n16596 -->
<g id="edge14" class="edge"><title>n16593&#45;&gt;n16596</title>
</g>
<!-- n16597&#45;&gt;n16619 -->
<g id="edge13" class="edge"><title>n16597&#45;&gt;n16619</title>
<path fill="none" stroke="black" d="M480.277,-546.136C557.784,-533.943 782.093,-509.504 926.188,-605 948.037,-619.48 961.492,-646.744 969.018,-667.485"/>
<polygon fill="black" stroke="black" points="965.734,-668.701 972.247,-677.058 972.367,-666.464 965.734,-668.701"/>
<text text-anchor="middle" x="717.188" y="-608.8" font-family="Times New Roman,serif" font-size="14.00">|&#45; ( ( ph \/ ( ps &lt;&#45;&gt; ch ) ) &lt;&#45;&gt; ( &#45;. ph &#45;&gt; ( ps &lt;&#45;&gt; ch ) ) )</text>
</g>
<!-- n16618 -->
<g id="node14" class="node"><title>n16618</title>
<ellipse fill="cyan" stroke="black" cx="451.841" cy="-344" rx="35.194" ry="18"/>
<text text-anchor="middle" x="451.841" y="-340.3" font-family="Times New Roman,serif" font-size="14.00">bibi12i</text>
</g>
<!-- n16597&#45;&gt;n16618 -->
<g id="edge39" class="edge"><title>n16597&#45;&gt;n16618</title>
</g>
<!-- n16596&#45;&gt;n16597 -->
<g id="edge12" class="edge"><title>n16596&#45;&gt;n16597</title>
<path fill="none" stroke="lightgray" d="M183.182,-500.072C227.163,-505.518 319.054,-517.923 395.495,-535 401.965,-536.445 408.795,-538.215 415.364,-540.044"/>
<polygon fill="lightgray" stroke="lightgray" points="414.807,-543.525 425.385,-542.929 416.744,-536.799 414.807,-543.525"/>
<text text-anchor="middle" x="299.495" y="-538.8" font-family="Times New Roman,serif" font-size="14.00" fill="lightgray">wff ( ps &lt;&#45;&gt; ch )</text>
</g>
<!-- n16600 -->
<g id="node13" class="node"><title>n16600</title>
</g>
<!-- n16600&#45;&gt;n16618 -->
<g id="edge15" class="edge"><title>n16600&#45;&gt;n16618</title>
<path fill="none" stroke="lightgray" d="M183.09,-440.353C228.108,-434.987 323.03,-420.291 395.495,-386 406.347,-380.865 417.127,-373.374 426.25,-366.135"/>
<polygon fill="lightgray" stroke="lightgray" points="428.639,-368.702 434.118,-359.633 424.18,-363.306 428.639,-368.702"/>
<text text-anchor="middle" x="299.495" y="-440.8" font-family="Times New Roman,serif" font-size="14.00" fill="lightgray">wff ( ph \/ ps )</text>
</g>
<!-- n16604 -->
<g id="node15" class="node"><title>n16604</title>
</g>
<!-- n16600&#45;&gt;n16604 -->
<g id="edge28" class="edge"><title>n16600&#45;&gt;n16604</title>
</g>
<!-- n16618&#45;&gt;n16619 -->
<g id="edge27" class="edge"><title>n16618&#45;&gt;n16619</title>
<path fill="none" stroke="black" d="M486.867,-346.02C573.467,-353.032 803.997,-383.729 926.188,-515 965.52,-557.255 974.721,-627.633 976.672,-666.693"/>
<polygon fill="black" stroke="black" points="973.18,-666.967 977.049,-676.83 980.175,-666.707 973.18,-666.967"/>
<text text-anchor="middle" x="717.188" y="-518.8" font-family="Times New Roman,serif" font-size="14.00">|&#45; ( ( ( ph \/ ps ) &lt;&#45;&gt; ( ph \/ ch ) ) &lt;&#45;&gt; ( ( &#45;. ph &#45;&gt; ps ) &lt;&#45;&gt; ( &#45;. ph &#45;&gt; ch ) ) )</text>
</g>
<!-- n16604&#45;&gt;n16618 -->
<g id="edge16" class="edge"><title>n16604&#45;&gt;n16618</title>
<path fill="none" stroke="lightgray" d="M183.045,-368.628C233.309,-364.005 344.863,-353.746 406.963,-348.035"/>
<polygon fill="lightgray" stroke="lightgray" points="407.585,-351.493 417.223,-347.092 406.944,-344.522 407.585,-351.493"/>
<text text-anchor="middle" x="299.495" y="-370.8" font-family="Times New Roman,serif" font-size="14.00" fill="lightgray">wff ( &#45;. ph &#45;&gt; ps )</text>
</g>
<!-- n16607 -->
<g id="node16" class="node"><title>n16607</title>
</g>
<!-- n16604&#45;&gt;n16607 -->
<g id="edge29" class="edge"><title>n16604&#45;&gt;n16607</title>
</g>
<!-- n16607&#45;&gt;n16618 -->
<g id="edge17" class="edge"><title>n16607&#45;&gt;n16618</title>
<path fill="none" stroke="lightgray" d="M183.114,-301.641C226.996,-306.306 318.743,-316.866 395.495,-331 400.221,-331.87 405.151,-332.88 410.037,-333.944"/>
<polygon fill="lightgray" stroke="lightgray" points="409.399,-337.388 419.924,-336.178 410.942,-330.56 409.399,-337.388"/>
<text text-anchor="middle" x="299.495" y="-334.8" font-family="Times New Roman,serif" font-size="14.00" fill="lightgray">wff ( ph \/ ch )</text>
</g>
<!-- n16611 -->
<g id="node17" class="node"><title>n16611</title>
</g>
<!-- n16607&#45;&gt;n16611 -->
<g id="edge30" class="edge"><title>n16607&#45;&gt;n16611</title>
</g>
<!-- n16611&#45;&gt;n16618 -->
<g id="edge18" class="edge"><title>n16611&#45;&gt;n16618</title>
<path fill="none" stroke="lightgray" d="M183.349,-228.703C229.174,-232.684 325.836,-245.58 395.495,-286 409.735,-294.263 422.632,-307.273 432.387,-318.879"/>
<polygon fill="lightgray" stroke="lightgray" points="429.916,-321.392 438.909,-326.994 435.373,-317.007 429.916,-321.392"/>
<text text-anchor="middle" x="299.495" y="-289.8" font-family="Times New Roman,serif" font-size="14.00" fill="lightgray">wff ( &#45;. ph &#45;&gt; ch )</text>
</g>
<!-- n16614 -->
<g id="node19" class="node"><title>n16614</title>
<ellipse fill="lawngreen" stroke="black" cx="156.247" cy="-155" rx="29.4969" ry="18"/>
<text text-anchor="middle" x="156.247" y="-151.3" font-family="Times New Roman,serif" font-size="14.00">df&#45;or</text>
</g>
<!-- n16611&#45;&gt;n16614 -->
<g id="edge31" class="edge"><title>n16611&#45;&gt;n16614</title>
</g>
<!-- n16612 -->
<g id="node18" class="node"><title>n16612</title>
</g>
<!-- n16612&#45;&gt;n16614 -->
<g id="edge19" class="edge"><title>n16612&#45;&gt;n16614</title>
<path fill="none" stroke="lightgray" d="M49.2984,-207.455C69.6944,-197.357 100.711,-182.001 123.922,-170.509"/>
<polygon fill="lightgray" stroke="lightgray" points="125.615,-173.577 133.023,-166.003 122.509,-167.303 125.615,-173.577"/>
<text text-anchor="middle" x="90.5" y="-199.8" font-family="Times New Roman,serif" font-size="14.00" fill="lightgray">wff ph</text>
</g>
<!-- n16613 -->
<g id="node20" class="node"><title>n16613</title>
</g>
<!-- n16612&#45;&gt;n16613 -->
<g id="edge22" class="edge"><title>n16612&#45;&gt;n16613</title>
</g>
<!-- n16614&#45;&gt;n16618 -->
<g id="edge21" class="edge"><title>n16614&#45;&gt;n16618</title>
<path fill="none" stroke="black" d="M185.461,-153.972C234.105,-153.722 334.401,-160.091 395.495,-212 426.833,-238.627 440.783,-285.989 446.73,-316.152"/>
<polygon fill="black" stroke="black" points="443.295,-316.822 448.515,-326.041 450.183,-315.578 443.295,-316.822"/>
<text text-anchor="middle" x="299.495" y="-215.8" font-family="Times New Roman,serif" font-size="14.00">|&#45; ( ( ph \/ ps ) &lt;&#45;&gt; ( &#45;. ph &#45;&gt; ps ) )</text>
</g>
<!-- n16617 -->
<g id="node22" class="node"><title>n16617</title>
<ellipse fill="lawngreen" stroke="black" cx="156.247" cy="-83" rx="29.4969" ry="18"/>
<text text-anchor="middle" x="156.247" y="-79.3" font-family="Times New Roman,serif" font-size="14.00">df&#45;or</text>
</g>
<!-- n16614&#45;&gt;n16617 -->
<g id="edge32" class="edge"><title>n16614&#45;&gt;n16617</title>
</g>
<!-- n16613&#45;&gt;n16614 -->
<g id="edge20" class="edge"><title>n16613&#45;&gt;n16614</title>
<path fill="none" stroke="lightgray" d="M54.0575,-147.843C72.1375,-149.122 96.523,-150.847 116.825,-152.282"/>
<polygon fill="lightgray" stroke="lightgray" points="116.792,-155.789 127.014,-153.003 117.286,-148.806 116.792,-155.789"/>
<text text-anchor="middle" x="90.5" y="-155.8" font-family="Times New Roman,serif" font-size="14.00" fill="lightgray">wff ps</text>
</g>
<!-- n16615 -->
<g id="node21" class="node"><title>n16615</title>
</g>
<!-- n16615&#45;&gt;n16617 -->
<g id="edge23" class="edge"><title>n16615&#45;&gt;n16617</title>
<path fill="none" stroke="lightgray" d="M54.0575,-88.5666C72.1375,-87.572 96.523,-86.2305 116.825,-85.1136"/>
<polygon fill="lightgray" stroke="lightgray" points="117.222,-88.5972 127.014,-84.5531 116.837,-81.6078 117.222,-88.5972"/>
<text text-anchor="middle" x="90.5" y="-91.8" font-family="Times New Roman,serif" font-size="14.00" fill="lightgray">wff ph</text>
</g>
<!-- n16616 -->
<g id="node23" class="node"><title>n16616</title>
</g>
<!-- n16615&#45;&gt;n16616 -->
<g id="edge26" class="edge"><title>n16615&#45;&gt;n16616</title>
</g>
<!-- n16617&#45;&gt;n16618 -->
<g id="edge25" class="edge"><title>n16617&#45;&gt;n16618</title>
<path fill="none" stroke="black" d="M185.396,-80.616C234.848,-78.0737 337.559,-80.4016 395.495,-136 421.358,-160.82 439.541,-265.26 447.029,-316.041"/>
<polygon fill="black" stroke="black" points="443.576,-316.615 448.464,-326.015 450.505,-315.618 443.576,-316.615"/>
<text text-anchor="middle" x="299.495" y="-139.8" font-family="Times New Roman,serif" font-size="14.00">|&#45; ( ( ph \/ ch ) &lt;&#45;&gt; ( &#45;. ph &#45;&gt; ch ) )</text>
</g>
<!-- n16616&#45;&gt;n16617 -->
<g id="edge24" class="edge"><title>n16616&#45;&gt;n16617</title>
<path fill="none" stroke="lightgray" d="M49.0123,-28.7334C69.362,-39.1283 100.475,-55.0214 123.78,-66.9257"/>
<polygon fill="lightgray" stroke="lightgray" points="122.421,-70.162 132.919,-71.5942 125.606,-63.9282 122.421,-70.162"/>
<text text-anchor="middle" x="90.5" y="-62.8" font-family="Times New Roman,serif" font-size="14.00" fill="lightgray">wff ch</text>
</g>
</g>
</svg>
