<?xml version="1.0" encoding="UTF-8" standalone="no"?>
<!DOCTYPE svg PUBLIC "-//W3C//DTD SVG 1.1//EN"
 "http://www.w3.org/Graphics/SVG/1.1/DTD/svg11.dtd">
<!-- Generated by graphviz version 2.38.0 (20140413.2041)
 -->
<!-- Title: proof_orbidi Pages: 1 -->
<svg width="1324pt" height="767pt"
 viewBox="0.00 0.00 1324.28 767.00" xmlns="http://www.w3.org/2000/svg" xmlns:xlink="http://www.w3.org/1999/xlink">
<g id="graph0" class="graph" transform="scale(1 1) rotate(0) translate(4 763)">
<title>proof_orbidi</title>
<polygon fill="white" stroke="none" points="-4,4 -4,-763 1320.28,-763 1320.28,4 -4,4"/>
<!-- n16566 -->
<g id="node1" class="node"><title>n16566</title>
</g>
<!-- n16619 -->
<g id="node2" class="node"><title>n16619</title>
<ellipse fill="cyan" stroke="black" cx="850.985" cy="-504" rx="33.5952" ry="18"/>
<text text-anchor="middle" x="850.985" y="-500.3" font-family="Times New Roman,serif" font-size="14.00">3bitr4i</text>
</g>
<!-- n16566&#45;&gt;n16619 -->
<g id="edge1" class="edge"><title>n16566&#45;&gt;n16619</title>
<path fill="none" stroke="lightgray" d="M350.73,-725.602C427.537,-741.327 663.822,-777.783 799.188,-666 839.111,-633.032 848.163,-569.032 849.912,-532.11"/>
<polygon fill="lightgray" stroke="lightgray" points="853.413,-532.131 850.24,-522.023 846.417,-531.904 853.413,-532.131"/>
<text text-anchor="middle" x="590.188" y="-747.8" font-family="Times New Roman,serif" font-size="14.00" fill="lightgray">wff ( &#45;. ph &#45;&gt; ( ps &lt;&#45;&gt; ch ) )</text>
</g>
<!-- n16575 -->
<g id="node3" class="node"><title>n16575</title>
</g>
<!-- n16566&#45;&gt;n16575 -->
<g id="edge25" class="edge"><title>n16566&#45;&gt;n16575</title>
</g>
<!-- QED -->
<g id="node18" class="node"><title>QED</title>
</g>
<!-- n16619&#45;&gt;QED -->
<g id="edge24" class="edge"><title>n16619&#45;&gt;QED</title>
<path fill="none" stroke="black" d="M884.965,-504C963.888,-504 1163.31,-504 1247.54,-504"/>
<polygon fill="black" stroke="black" points="1247.7,-507.5 1257.7,-504 1247.7,-500.5 1247.7,-507.5"/>
<text text-anchor="middle" x="1071.28" y="-507.8" font-family="Times New Roman,serif" font-size="14.00">|&#45; ( ( ph \/ ( ps &lt;&#45;&gt; ch ) ) &lt;&#45;&gt; ( ( ph \/ ps ) &lt;&#45;&gt; ( ph \/ ch ) ) )</text>
</g>
<!-- n16575&#45;&gt;n16619 -->
<g id="edge2" class="edge"><title>n16575&#45;&gt;n16619</title>
<path fill="none" stroke="lightgray" d="M352.05,-647.996C440.232,-647.524 724.815,-642.144 799.188,-593 820.873,-578.671 834.351,-551.711 841.927,-531.204"/>
<polygon fill="lightgray" stroke="lightgray" points="845.24,-532.333 845.182,-521.739 838.62,-530.057 845.24,-532.333"/>
<text text-anchor="middle" x="590.188" y="-650.8" font-family="Times New Roman,serif" font-size="14.00" fill="lightgray">wff ( ( &#45;. ph &#45;&gt; ps ) &lt;&#45;&gt; ( &#45;. ph &#45;&gt; ch ) )</text>
</g>
<!-- n16580 -->
<g id="node4" class="node"><title>n16580</title>
</g>
<!-- n16575&#45;&gt;n16580 -->
<g id="edge26" class="edge"><title>n16575&#45;&gt;n16580</title>
</g>
<!-- n16580&#45;&gt;n16619 -->
<g id="edge3" class="edge"><title>n16580&#45;&gt;n16619</title>
<path fill="none" stroke="lightgray" d="M351.881,-575.328C423.974,-572.989 631.905,-563.001 799.188,-523 804.21,-521.799 809.412,-520.241 814.486,-518.533"/>
<polygon fill="lightgray" stroke="lightgray" points="815.773,-521.79 824.005,-515.12 813.41,-515.201 815.773,-521.79"/>
<text text-anchor="middle" x="590.188" y="-577.8" font-family="Times New Roman,serif" font-size="14.00" fill="lightgray">wff ( ph \/ ( ps &lt;&#45;&gt; ch ) )</text>
</g>
<!-- n16587 -->
<g id="node5" class="node"><title>n16587</title>
</g>
<!-- n16580&#45;&gt;n16587 -->
<g id="edge27" class="edge"><title>n16580&#45;&gt;n16587</title>
</g>
<!-- n16587&#45;&gt;n16619 -->
<g id="edge4" class="edge"><title>n16587&#45;&gt;n16619</title>
<path fill="none" stroke="lightgray" d="M352.193,-504C436.788,-504 702.059,-504 806.815,-504"/>
<polygon fill="lightgray" stroke="lightgray" points="807.027,-507.5 817.026,-504 807.026,-500.5 807.027,-507.5"/>
<text text-anchor="middle" x="590.188" y="-507.8" font-family="Times New Roman,serif" font-size="14.00" fill="lightgray">wff ( ( ph \/ ps ) &lt;&#45;&gt; ( ph \/ ch ) )</text>
</g>
<!-- n16592 -->
<g id="node7" class="node"><title>n16592</title>
<ellipse fill="cyan" stroke="black" cx="324.841" cy="-432" rx="38.1938" ry="18"/>
<text text-anchor="middle" x="324.841" y="-428.3" font-family="Times New Roman,serif" font-size="14.00">pm5.74</text>
</g>
<!-- n16587&#45;&gt;n16592 -->
<g id="edge28" class="edge"><title>n16587&#45;&gt;n16592</title>
</g>
<!-- n16589 -->
<g id="node6" class="node"><title>n16589</title>
</g>
<!-- n16589&#45;&gt;n16592 -->
<g id="edge5" class="edge"><title>n16589&#45;&gt;n16592</title>
<path fill="none" stroke="lightgray" d="M56.2649,-575.851C103.68,-574.254 205.099,-564.563 268.495,-513 282.373,-501.712 276.719,-491.981 286.495,-477 291.098,-469.946 296.641,-462.737 302.03,-456.215"/>
<polygon fill="lightgray" stroke="lightgray" points="304.878,-458.27 308.692,-448.385 299.546,-453.734 304.878,-458.27"/>
<text text-anchor="middle" x="172.495" y="-577.8" font-family="Times New Roman,serif" font-size="14.00" fill="lightgray">wff &#45;. ph</text>
</g>
<!-- n16590 -->
<g id="node8" class="node"><title>n16590</title>
</g>
<!-- n16589&#45;&gt;n16590 -->
<g id="edge9" class="edge"><title>n16589&#45;&gt;n16590</title>
</g>
<!-- n16592&#45;&gt;n16619 -->
<g id="edge8" class="edge"><title>n16592&#45;&gt;n16619</title>
<path fill="none" stroke="black" d="M363.202,-433.065C443.874,-436.041 639.948,-446.922 799.188,-485 804.21,-486.201 809.412,-487.759 814.486,-489.467"/>
<polygon fill="black" stroke="black" points="813.41,-492.799 824.005,-492.88 815.773,-486.21 813.41,-492.799"/>
<text text-anchor="middle" x="590.188" y="-488.8" font-family="Times New Roman,serif" font-size="14.00">|&#45; ( ( &#45;. ph &#45;&gt; ( ps &lt;&#45;&gt; ch ) ) &lt;&#45;&gt; ( ( &#45;. ph &#45;&gt; ps ) &lt;&#45;&gt; ( &#45;. ph &#45;&gt; ch ) ) )</text>
</g>
<!-- n16597 -->
<g id="node10" class="node"><title>n16597</title>
</g>
<!-- n16592&#45;&gt;n16597 -->
<g id="edge29" class="edge"><title>n16592&#45;&gt;n16597</title>
</g>
<!-- n16590&#45;&gt;n16592 -->
<g id="edge6" class="edge"><title>n16590&#45;&gt;n16592</title>
<path fill="none" stroke="lightgray" d="M55.5175,-499.344C99.2736,-491.067 191.821,-472.616 268.495,-451 273.751,-449.518 279.239,-447.821 284.631,-446.065"/>
<polygon fill="lightgray" stroke="lightgray" points="285.791,-449.367 294.161,-442.872 283.567,-442.73 285.791,-449.367"/>
<text text-anchor="middle" x="172.495" y="-497.8" font-family="Times New Roman,serif" font-size="14.00" fill="lightgray">wff ps</text>
</g>
<!-- n16591 -->
<g id="node9" class="node"><title>n16591</title>
</g>
<!-- n16590&#45;&gt;n16591 -->
<g id="edge10" class="edge"><title>n16590&#45;&gt;n16591</title>
</g>
<!-- n16591&#45;&gt;n16592 -->
<g id="edge7" class="edge"><title>n16591&#45;&gt;n16592</title>
<path fill="none" stroke="lightgray" d="M56.3019,-432C105.755,-432 213.865,-432 276.467,-432"/>
<polygon fill="lightgray" stroke="lightgray" points="276.481,-435.5 286.481,-432 276.481,-428.5 276.481,-435.5"/>
<text text-anchor="middle" x="172.495" y="-435.8" font-family="Times New Roman,serif" font-size="14.00" fill="lightgray">wff ch</text>
</g>
<!-- n16597&#45;&gt;n16619 -->
<g id="edge11" class="edge"><title>n16597&#45;&gt;n16619</title>
<path fill="none" stroke="lightgray" d="M353.277,-355.136C430.784,-342.943 655.093,-318.504 799.188,-414 821.037,-428.48 834.492,-455.744 842.018,-476.485"/>
<polygon fill="lightgray" stroke="lightgray" points="838.734,-477.701 845.247,-486.058 845.367,-475.464 838.734,-477.701"/>
<text text-anchor="middle" x="590.188" y="-417.8" font-family="Times New Roman,serif" font-size="14.00" fill="lightgray">|&#45; ( ( ph \/ ( ps &lt;&#45;&gt; ch ) ) &lt;&#45;&gt; ( &#45;. ph &#45;&gt; ( ps &lt;&#45;&gt; ch ) ) )</text>
</g>
<!-- n16618 -->
<g id="node12" class="node"><title>n16618</title>
<ellipse fill="cyan" stroke="black" cx="324.841" cy="-264" rx="35.194" ry="18"/>
<text text-anchor="middle" x="324.841" y="-260.3" font-family="Times New Roman,serif" font-size="14.00">bibi12i</text>
</g>
<!-- n16597&#45;&gt;n16618 -->
<g id="edge30" class="edge"><title>n16597&#45;&gt;n16618</title>
</g>
<!-- n16600 -->
<g id="node11" class="node"><title>n16600</title>
</g>
<!-- n16600&#45;&gt;n16618 -->
<g id="edge12" class="edge"><title>n16600&#45;&gt;n16618</title>
<path fill="none" stroke="lightgray" d="M56.3407,-376.697C102.154,-373.403 198.797,-361.89 268.495,-322 283.021,-313.686 296.112,-300.386 305.912,-288.617"/>
<polygon fill="lightgray" stroke="lightgray" points="308.651,-290.796 312.147,-280.795 303.177,-286.433 308.651,-290.796"/>
<text text-anchor="middle" x="172.495" y="-377.8" font-family="Times New Roman,serif" font-size="14.00" fill="lightgray">wff ( ph \/ ps )</text>
</g>
<!-- n16604 -->
<g id="node13" class="node"><title>n16604</title>
</g>
<!-- n16600&#45;&gt;n16604 -->
<g id="edge19" class="edge"><title>n16600&#45;&gt;n16604</title>
</g>
<!-- n16618&#45;&gt;n16619 -->
<g id="edge18" class="edge"><title>n16618&#45;&gt;n16619</title>
<path fill="none" stroke="black" d="M357.551,-257.343C441.069,-241.795 669.568,-212.381 799.188,-324 843.364,-362.041 850.561,-435.258 850.92,-475.6"/>
<polygon fill="black" stroke="black" points="847.419,-475.798 850.869,-485.815 854.419,-475.833 847.419,-475.798"/>
<text text-anchor="middle" x="590.188" y="-327.8" font-family="Times New Roman,serif" font-size="14.00">|&#45; ( ( ( ph \/ ps ) &lt;&#45;&gt; ( ph \/ ch ) ) &lt;&#45;&gt; ( ( &#45;. ph &#45;&gt; ps ) &lt;&#45;&gt; ( &#45;. ph &#45;&gt; ch ) ) )</text>
</g>
<!-- n16604&#45;&gt;n16618 -->
<g id="edge13" class="edge"><title>n16604&#45;&gt;n16618</title>
<path fill="none" stroke="lightgray" d="M56.1495,-304.072C100.084,-300.554 191.906,-292.124 268.495,-278 273.484,-277.08 278.691,-275.968 283.829,-274.778"/>
<polygon fill="lightgray" stroke="lightgray" points="284.655,-278.179 293.549,-272.422 283.006,-271.376 284.655,-278.179"/>
<text text-anchor="middle" x="172.495" y="-306.8" font-family="Times New Roman,serif" font-size="14.00" fill="lightgray">wff ( &#45;. ph &#45;&gt; ps )</text>
</g>
<!-- n16607 -->
<g id="node14" class="node"><title>n16607</title>
</g>
<!-- n16604&#45;&gt;n16607 -->
<g id="edge20" class="edge"><title>n16604&#45;&gt;n16607</title>
</g>
<!-- n16607&#45;&gt;n16618 -->
<g id="edge14" class="edge"><title>n16607&#45;&gt;n16618</title>
<path fill="none" stroke="lightgray" d="M56.0446,-236.636C106.309,-241.772 217.863,-253.171 279.963,-259.516"/>
<polygon fill="lightgray" stroke="lightgray" points="279.919,-263.03 290.223,-260.565 280.63,-256.066 279.919,-263.03"/>
<text text-anchor="middle" x="172.495" y="-262.8" font-family="Times New Roman,serif" font-size="14.00" fill="lightgray">wff ( ph \/ ch )</text>
</g>
<!-- n16611 -->
<g id="node15" class="node"><title>n16611</title>
</g>
<!-- n16607&#45;&gt;n16611 -->
<g id="edge21" class="edge"><title>n16607&#45;&gt;n16611</title>
</g>
<!-- n16611&#45;&gt;n16618 -->
<g id="edge15" class="edge"><title>n16611&#45;&gt;n16618</title>
<path fill="none" stroke="lightgray" d="M56.1304,-164.831C101.211,-170.525 196.225,-185.944 268.495,-221 279.391,-226.286 290.181,-233.961 299.3,-241.369"/>
<polygon fill="lightgray" stroke="lightgray" points="297.266,-244.233 307.16,-248.021 301.788,-238.889 297.266,-244.233"/>
<text text-anchor="middle" x="172.495" y="-224.8" font-family="Times New Roman,serif" font-size="14.00" fill="lightgray">wff ( &#45;. ph &#45;&gt; ch )</text>
</g>
<!-- n16614 -->
<g id="node16" class="node"><title>n16614</title>
</g>
<!-- n16611&#45;&gt;n16614 -->
<g id="edge22" class="edge"><title>n16611&#45;&gt;n16614</title>
</g>
<!-- n16614&#45;&gt;n16618 -->
<g id="edge16" class="edge"><title>n16614&#45;&gt;n16618</title>
<path fill="none" stroke="lightgray" d="M58.5782,-89.7418C106.956,-90.7632 206.281,-99.4054 268.495,-150 295.468,-171.936 310.23,-210.228 317.579,-236.326"/>
<polygon fill="lightgray" stroke="lightgray" points="314.196,-237.226 320.124,-246.007 320.966,-235.446 314.196,-237.226"/>
<text text-anchor="middle" x="172.495" y="-153.8" font-family="Times New Roman,serif" font-size="14.00" fill="lightgray">|&#45; ( ( ph \/ ps ) &lt;&#45;&gt; ( &#45;. ph &#45;&gt; ps ) )</text>
</g>
<!-- n16617 -->
<g id="node17" class="node"><title>n16617</title>
</g>
<!-- n16614&#45;&gt;n16617 -->
<g id="edge23" class="edge"><title>n16614&#45;&gt;n16617</title>
</g>
<!-- n16617&#45;&gt;n16618 -->
<g id="edge17" class="edge"><title>n16617&#45;&gt;n16618</title>
<path fill="none" stroke="lightgray" d="M58.2929,-15.871C107.583,-13.7508 210.047,-16.8348 268.495,-72 314.33,-115.262 322.984,-193.824 324.145,-235.791"/>
<polygon fill="lightgray" stroke="lightgray" points="320.646,-235.925 324.297,-245.871 327.646,-235.819 320.646,-235.925"/>
<text text-anchor="middle" x="172.495" y="-75.8" font-family="Times New Roman,serif" font-size="14.00" fill="lightgray">|&#45; ( ( ph \/ ch ) &lt;&#45;&gt; ( &#45;. ph &#45;&gt; ch ) )</text>
</g>
</g>
</svg>
