<?xml version="1.0" encoding="UTF-8" standalone="no"?>
<!DOCTYPE svg PUBLIC "-//W3C//DTD SVG 1.1//EN"
 "http://www.w3.org/Graphics/SVG/1.1/DTD/svg11.dtd">
<!-- Generated by graphviz version 2.38.0 (20140413.2041)
 -->
<!-- Title: proof_orbi12i Pages: 1 -->
<svg width="805pt" height="565pt"
 viewBox="0.00 0.00 804.98 565.00" xmlns="http://www.w3.org/2000/svg" xmlns:xlink="http://www.w3.org/1999/xlink">
<g id="graph0" class="graph" transform="scale(1 1) rotate(0) translate(4 561)">
<title>proof_orbi12i</title>
<polygon fill="white" stroke="none" points="-4,4 -4,-561 800.982,-561 800.982,4 -4,4"/>
<!-- n8916 -->
<g id="node1" class="node"><title>n8916</title>
</g>
<!-- n8933 -->
<g id="node2" class="node"><title>n8933</title>
<ellipse fill="cyan" stroke="black" cx="504.487" cy="-395" rx="27" ry="18"/>
<text text-anchor="middle" x="504.487" y="-391.3" font-family="Times New Roman,serif" font-size="14.00">bitri</text>
</g>
<!-- n8916&#45;&gt;n8933 -->
<g id="edge1" class="edge"><title>n8916&#45;&gt;n8933</title>
<path fill="none" stroke="lightgray" d="M264.727,-537.948C309.307,-534.877 400.992,-522.872 459.487,-476 476.503,-462.365 487.871,-440.297 494.782,-422.637"/>
<polygon fill="lightgray" stroke="lightgray" points="498.214,-423.439 498.345,-412.845 491.636,-421.045 498.214,-423.439"/>
<text text-anchor="middle" x="373.487" y="-538.8" font-family="Times New Roman,serif" font-size="14.00" fill="lightgray">wff ( ph \/ ch )</text>
</g>
<!-- n8919 -->
<g id="node3" class="node"><title>n8919</title>
</g>
<!-- n8916&#45;&gt;n8919 -->
<g id="edge21" class="edge"><title>n8916&#45;&gt;n8919</title>
</g>
<!-- QED -->
<g id="node15" class="node"><title>QED</title>
</g>
<!-- n8933&#45;&gt;QED -->
<g id="edge20" class="edge"><title>n8933&#45;&gt;QED</title>
<path fill="none" stroke="black" d="M531.491,-395C577.711,-395 674.365,-395 728.287,-395"/>
<polygon fill="black" stroke="black" points="728.473,-398.5 738.473,-395 728.473,-391.5 728.473,-398.5"/>
<text text-anchor="middle" x="634.987" y="-398.8" font-family="Times New Roman,serif" font-size="14.00">|&#45; ( ( ph \/ ch ) &lt;&#45;&gt; ( ps \/ th ) )</text>
</g>
<!-- n8919&#45;&gt;n8933 -->
<g id="edge2" class="edge"><title>n8919&#45;&gt;n8933</title>
<path fill="none" stroke="lightgray" d="M263.873,-462.415C305.308,-454.561 390.093,-437.118 459.487,-414 463.777,-412.571 468.228,-410.892 472.579,-409.134"/>
<polygon fill="lightgray" stroke="lightgray" points="473.989,-412.338 481.842,-405.226 471.268,-405.889 473.989,-412.338"/>
<text text-anchor="middle" x="373.487" y="-460.8" font-family="Times New Roman,serif" font-size="14.00" fill="lightgray">wff ( ph \/ th )</text>
</g>
<!-- n8922 -->
<g id="node4" class="node"><title>n8922</title>
</g>
<!-- n8919&#45;&gt;n8922 -->
<g id="edge22" class="edge"><title>n8919&#45;&gt;n8922</title>
</g>
<!-- n8922&#45;&gt;n8933 -->
<g id="edge3" class="edge"><title>n8922&#45;&gt;n8933</title>
<path fill="none" stroke="lightgray" d="M265.002,-395C312.595,-395 412.936,-395 467.053,-395"/>
<polygon fill="lightgray" stroke="lightgray" points="467.231,-398.5 477.231,-395 467.23,-391.5 467.231,-398.5"/>
<text text-anchor="middle" x="373.487" y="-398.8" font-family="Times New Roman,serif" font-size="14.00" fill="lightgray">wff ( ps \/ th )</text>
</g>
<!-- n8927 -->
<g id="node6" class="node"><title>n8927</title>
<ellipse fill="cyan" stroke="black" cx="237.64" cy="-323" rx="31.6951" ry="18"/>
<text text-anchor="middle" x="237.64" y="-319.3" font-family="Times New Roman,serif" font-size="14.00">orbi2i</text>
</g>
<!-- n8922&#45;&gt;n8927 -->
<g id="edge23" class="edge"><title>n8922&#45;&gt;n8927</title>
</g>
<!-- n8923 -->
<g id="node5" class="node"><title>n8923</title>
</g>
<!-- n8923&#45;&gt;n8927 -->
<g id="edge4" class="edge"><title>n8923&#45;&gt;n8927</title>
<path fill="none" stroke="lightgray" d="M68.2919,-497.542C100.36,-487.804 156.301,-466.298 187.792,-428 205.475,-406.495 193.778,-393.115 205.792,-368 209.108,-361.068 213.42,-354.011 217.764,-347.603"/>
<polygon fill="lightgray" stroke="lightgray" points="220.692,-349.525 223.617,-339.342 214.98,-345.478 220.692,-349.525"/>
<text text-anchor="middle" x="145.792" y="-486.8" font-family="Times New Roman,serif" font-size="14.00" fill="lightgray">wff ch</text>
</g>
<!-- n8924 -->
<g id="node7" class="node"><title>n8924</title>
</g>
<!-- n8923&#45;&gt;n8924 -->
<g id="edge9" class="edge"><title>n8923&#45;&gt;n8924</title>
</g>
<!-- n8927&#45;&gt;n8933 -->
<g id="edge8" class="edge"><title>n8927&#45;&gt;n8933</title>
<path fill="none" stroke="black" d="M268.386,-328.446C311.231,-336.668 392.525,-353.692 459.487,-376 463.777,-377.429 468.228,-379.108 472.579,-380.866"/>
<polygon fill="black" stroke="black" points="471.268,-384.111 481.842,-384.774 473.989,-377.662 471.268,-384.111"/>
<text text-anchor="middle" x="373.487" y="-379.8" font-family="Times New Roman,serif" font-size="14.00">|&#45; ( ( ph \/ ch ) &lt;&#45;&gt; ( ph \/ th ) )</text>
</g>
<!-- n8932 -->
<g id="node11" class="node"><title>n8932</title>
<ellipse fill="cyan" stroke="black" cx="237.64" cy="-202" rx="31.6951" ry="18"/>
<text text-anchor="middle" x="237.64" y="-198.3" font-family="Times New Roman,serif" font-size="14.00">orbi1i</text>
</g>
<!-- n8927&#45;&gt;n8932 -->
<g id="edge24" class="edge"><title>n8927&#45;&gt;n8932</title>
</g>
<!-- n8924&#45;&gt;n8927 -->
<g id="edge5" class="edge"><title>n8924&#45;&gt;n8927</title>
<path fill="none" stroke="lightgray" d="M67.2018,-424.021C96.6338,-413.386 148.207,-392.865 187.792,-367 196.965,-361.007 206.127,-353.321 213.997,-346.055"/>
<polygon fill="lightgray" stroke="lightgray" points="216.567,-348.441 221.389,-339.007 211.736,-343.375 216.567,-348.441"/>
<text text-anchor="middle" x="145.792" y="-412.8" font-family="Times New Roman,serif" font-size="14.00" fill="lightgray">wff th</text>
</g>
<!-- n8925 -->
<g id="node8" class="node"><title>n8925</title>
</g>
<!-- n8924&#45;&gt;n8925 -->
<g id="edge10" class="edge"><title>n8924&#45;&gt;n8925</title>
</g>
<!-- n8925&#45;&gt;n8927 -->
<g id="edge6" class="edge"><title>n8925&#45;&gt;n8927</title>
<path fill="none" stroke="lightgray" d="M69.094,-355.163C101.646,-348.914 158.677,-337.966 197.045,-330.601"/>
<polygon fill="lightgray" stroke="lightgray" points="198.176,-333.948 207.337,-328.625 196.856,-327.073 198.176,-333.948"/>
<text text-anchor="middle" x="145.792" y="-351.8" font-family="Times New Roman,serif" font-size="14.00" fill="lightgray">wff ph</text>
</g>
<!-- n8926 -->
<g id="node9" class="node"><title>n8926</title>
<ellipse fill="orange" stroke="black" cx="42.8962" cy="-288" rx="42.7926" ry="18"/>
<text text-anchor="middle" x="42.8962" y="-284.3" font-family="Times New Roman,serif" font-size="14.00">orbi12i.2</text>
</g>
<!-- n8925&#45;&gt;n8926 -->
<g id="edge11" class="edge"><title>n8925&#45;&gt;n8926</title>
</g>
<!-- n8926&#45;&gt;n8927 -->
<g id="edge7" class="edge"><title>n8926&#45;&gt;n8927</title>
<path fill="none" stroke="black" d="M82.6846,-294.971C111.65,-300.186 152.204,-307.506 187.792,-314 190.833,-314.555 193.98,-315.131 197.143,-315.711"/>
<polygon fill="black" stroke="black" points="196.728,-319.193 207.196,-317.558 197.993,-312.308 196.728,-319.193"/>
<text text-anchor="middle" x="145.792" y="-317.8" font-family="Times New Roman,serif" font-size="14.00">|&#45; ( ch &lt;&#45;&gt; th )</text>
</g>
<!-- n8928 -->
<g id="node10" class="node"><title>n8928</title>
</g>
<!-- n8928&#45;&gt;n8932 -->
<g id="edge12" class="edge"><title>n8928&#45;&gt;n8932</title>
<path fill="none" stroke="lightgray" d="M69.491,-229.751C101.971,-224.358 158.355,-214.997 196.562,-208.654"/>
<polygon fill="lightgray" stroke="lightgray" points="197.53,-212.041 206.821,-206.951 196.383,-205.136 197.53,-212.041"/>
<text text-anchor="middle" x="145.792" y="-227.8" font-family="Times New Roman,serif" font-size="14.00" fill="lightgray">wff ph</text>
</g>
<!-- n8929 -->
<g id="node12" class="node"><title>n8929</title>
</g>
<!-- n8928&#45;&gt;n8929 -->
<g id="edge17" class="edge"><title>n8928&#45;&gt;n8929</title>
</g>
<!-- n8932&#45;&gt;n8933 -->
<g id="edge16" class="edge"><title>n8932&#45;&gt;n8933</title>
<path fill="none" stroke="black" d="M266.319,-209.87C311.628,-223.955 402.298,-257.321 459.487,-313 475.163,-328.262 486.567,-350.324 493.831,-367.72"/>
<polygon fill="black" stroke="black" points="490.701,-369.323 497.631,-377.337 497.211,-366.75 490.701,-369.323"/>
<text text-anchor="middle" x="373.487" y="-316.8" font-family="Times New Roman,serif" font-size="14.00">|&#45; ( ( ph \/ th ) &lt;&#45;&gt; ( ps \/ th ) )</text>
</g>
<!-- n8929&#45;&gt;n8932 -->
<g id="edge13" class="edge"><title>n8929&#45;&gt;n8932</title>
<path fill="none" stroke="lightgray" d="M69.094,-167.229C101.785,-174.014 159.164,-185.922 197.536,-193.885"/>
<polygon fill="lightgray" stroke="lightgray" points="196.834,-197.314 207.337,-195.919 198.256,-190.46 196.834,-197.314"/>
<text text-anchor="middle" x="145.792" y="-195.8" font-family="Times New Roman,serif" font-size="14.00" fill="lightgray">wff ps</text>
</g>
<!-- n8930 -->
<g id="node13" class="node"><title>n8930</title>
</g>
<!-- n8929&#45;&gt;n8930 -->
<g id="edge18" class="edge"><title>n8929&#45;&gt;n8930</title>
</g>
<!-- n8930&#45;&gt;n8932 -->
<g id="edge14" class="edge"><title>n8930&#45;&gt;n8932</title>
<path fill="none" stroke="lightgray" d="M67.2854,-98.0315C96.8046,-108.756 148.469,-129.516 187.792,-156 197.358,-162.442 206.83,-170.781 214.851,-178.586"/>
<polygon fill="lightgray" stroke="lightgray" points="212.807,-181.495 222.337,-186.124 217.773,-176.562 212.807,-181.495"/>
<text text-anchor="middle" x="145.792" y="-159.8" font-family="Times New Roman,serif" font-size="14.00" fill="lightgray">wff th</text>
</g>
<!-- n8931 -->
<g id="node14" class="node"><title>n8931</title>
<ellipse fill="orange" stroke="black" cx="42.8962" cy="-18" rx="42.7926" ry="18"/>
<text text-anchor="middle" x="42.8962" y="-14.3" font-family="Times New Roman,serif" font-size="14.00">orbi12i.1</text>
</g>
<!-- n8930&#45;&gt;n8931 -->
<g id="edge19" class="edge"><title>n8930&#45;&gt;n8931</title>
</g>
<!-- n8931&#45;&gt;n8932 -->
<g id="edge15" class="edge"><title>n8931&#45;&gt;n8932</title>
<path fill="none" stroke="black" d="M77.8714,-28.7007C109.865,-40.2911 157.305,-61.5882 187.792,-94 209.163,-116.72 222.351,-150.395 229.554,-174.089"/>
<polygon fill="black" stroke="black" points="226.243,-175.238 232.366,-183.884 232.971,-173.307 226.243,-175.238"/>
<text text-anchor="middle" x="145.792" y="-97.8" font-family="Times New Roman,serif" font-size="14.00">|&#45; ( ph &lt;&#45;&gt; ps )</text>
</g>
</g>
</svg>
