<?xml version="1.0" encoding="UTF-8" standalone="no"?>
<!DOCTYPE svg PUBLIC "-//W3C//DTD SVG 1.1//EN"
 "http://www.w3.org/Graphics/SVG/1.1/DTD/svg11.dtd">
<!-- Generated by graphviz version 2.38.0 (20140413.2041)
 -->
<!-- Title: proof_orbi12d Pages: 1 -->
<svg width="945pt" height="746pt"
 viewBox="0.00 0.00 944.98 746.00" xmlns="http://www.w3.org/2000/svg" xmlns:xlink="http://www.w3.org/1999/xlink">
<g id="graph0" class="graph" transform="scale(1 1) rotate(0) translate(4 742)">
<title>proof_orbi12d</title>
<polygon fill="white" stroke="none" points="-4,4 -4,-742 940.977,-742 940.977,4 -4,4"/>
<!-- n12046 -->
<g id="node1" class="node"><title>n12046</title>
</g>
<!-- n12068 -->
<g id="node2" class="node"><title>n12068</title>
<ellipse fill="cyan" stroke="black" cx="597.535" cy="-539" rx="27.8951" ry="18"/>
<text text-anchor="middle" x="597.535" y="-535.3" font-family="Times New Roman,serif" font-size="14.00">bitrd</text>
</g>
<!-- n12046&#45;&gt;n12068 -->
<g id="edge1" class="edge"><title>n12046&#45;&gt;n12068</title>
<path fill="none" stroke="lightgray" d="M307.955,-722.334C360.504,-725.614 480.892,-725.415 551.587,-664 579.683,-639.592 590.218,-596.282 594.167,-567.601"/>
<polygon fill="lightgray" stroke="lightgray" points="597.676,-567.739 595.382,-557.396 590.725,-566.912 597.676,-567.739"/>
<text text-anchor="middle" x="442.587" y="-726.8" font-family="Times New Roman,serif" font-size="14.00" fill="lightgray">wff ph</text>
</g>
<!-- n12049 -->
<g id="node3" class="node"><title>n12049</title>
</g>
<!-- n12046&#45;&gt;n12049 -->
<g id="edge26" class="edge"><title>n12046&#45;&gt;n12049</title>
</g>
<!-- QED -->
<g id="node18" class="node"><title>QED</title>
</g>
<!-- n12068&#45;&gt;QED -->
<g id="edge25" class="edge"><title>n12068&#45;&gt;QED</title>
<path fill="none" stroke="black" d="M625.615,-539C680.323,-539 804.197,-539 867.657,-539"/>
<polygon fill="black" stroke="black" points="868.039,-542.5 878.039,-539 868.039,-535.5 868.039,-542.5"/>
<text text-anchor="middle" x="751.982" y="-542.8" font-family="Times New Roman,serif" font-size="14.00">|&#45; ( ph &#45;&gt; ( ( ps \/ th ) &lt;&#45;&gt; ( ch \/ ta ) ) )</text>
</g>
<!-- n12049&#45;&gt;n12068 -->
<g id="edge2" class="edge"><title>n12049&#45;&gt;n12068</title>
<path fill="none" stroke="lightgray" d="M308.511,-647.293C359.019,-644.873 471.494,-634.264 551.587,-588 562.149,-581.899 571.648,-572.488 579.164,-563.538"/>
<polygon fill="lightgray" stroke="lightgray" points="582.02,-565.569 585.482,-555.556 576.531,-561.225 582.02,-565.569"/>
<text text-anchor="middle" x="442.587" y="-648.8" font-family="Times New Roman,serif" font-size="14.00" fill="lightgray">wff ( ps \/ th )</text>
</g>
<!-- n12052 -->
<g id="node4" class="node"><title>n12052</title>
</g>
<!-- n12049&#45;&gt;n12052 -->
<g id="edge27" class="edge"><title>n12049&#45;&gt;n12052</title>
</g>
<!-- n12052&#45;&gt;n12068 -->
<g id="edge3" class="edge"><title>n12052&#45;&gt;n12068</title>
<path fill="none" stroke="lightgray" d="M308.17,-573.164C356.275,-567.888 462.336,-556.09 551.587,-545 554.278,-544.666 557.057,-544.313 559.854,-543.952"/>
<polygon fill="lightgray" stroke="lightgray" points="560.465,-547.402 569.926,-542.633 559.556,-540.462 560.465,-547.402"/>
<text text-anchor="middle" x="442.587" y="-572.8" font-family="Times New Roman,serif" font-size="14.00" fill="lightgray">wff ( ch \/ th )</text>
</g>
<!-- n12055 -->
<g id="node5" class="node"><title>n12055</title>
</g>
<!-- n12052&#45;&gt;n12055 -->
<g id="edge28" class="edge"><title>n12052&#45;&gt;n12055</title>
</g>
<!-- n12055&#45;&gt;n12068 -->
<g id="edge4" class="edge"><title>n12055&#45;&gt;n12068</title>
<path fill="none" stroke="lightgray" d="M308.258,-505.636C356.506,-508.855 462.791,-516.86 551.587,-530 554.638,-530.451 557.795,-530.972 560.956,-531.531"/>
<polygon fill="lightgray" stroke="lightgray" points="560.468,-535.001 570.942,-533.409 561.761,-528.122 560.468,-535.001"/>
<text text-anchor="middle" x="442.587" y="-533.8" font-family="Times New Roman,serif" font-size="14.00" fill="lightgray">wff ( ch \/ ta )</text>
</g>
<!-- n12061 -->
<g id="node7" class="node"><title>n12061</title>
<ellipse fill="cyan" stroke="black" cx="281.14" cy="-432" rx="34.394" ry="18"/>
<text text-anchor="middle" x="281.14" y="-428.3" font-family="Times New Roman,serif" font-size="14.00">orbi1d</text>
</g>
<!-- n12055&#45;&gt;n12061 -->
<g id="edge29" class="edge"><title>n12055&#45;&gt;n12061</title>
</g>
<!-- n12056 -->
<g id="node6" class="node"><title>n12056</title>
</g>
<!-- n12056&#45;&gt;n12061 -->
<g id="edge5" class="edge"><title>n12056&#45;&gt;n12061</title>
<path fill="none" stroke="lightgray" d="M65.3531,-647.237C106.715,-644.525 187.056,-632.86 228.693,-584 259.972,-547.296 227.784,-521.362 246.693,-477 249.737,-469.859 254.13,-462.8 258.737,-456.465"/>
<polygon fill="lightgray" stroke="lightgray" points="261.68,-458.381 265.044,-448.335 256.149,-454.091 261.68,-458.381"/>
<text text-anchor="middle" x="161.693" y="-646.8" font-family="Times New Roman,serif" font-size="14.00" fill="lightgray">wff ph</text>
</g>
<!-- n12057 -->
<g id="node8" class="node"><title>n12057</title>
</g>
<!-- n12056&#45;&gt;n12057 -->
<g id="edge11" class="edge"><title>n12056&#45;&gt;n12057</title>
</g>
<!-- n12061&#45;&gt;n12068 -->
<g id="edge10" class="edge"><title>n12061&#45;&gt;n12068</title>
<path fill="none" stroke="black" d="M315.621,-432.296C369.064,-434.162 475.381,-443.691 551.587,-488 562.635,-494.424 572.378,-504.537 579.944,-514.07"/>
<polygon fill="black" stroke="black" points="577.222,-516.274 586.01,-522.191 582.83,-512.085 577.222,-516.274"/>
<text text-anchor="middle" x="442.587" y="-491.8" font-family="Times New Roman,serif" font-size="14.00">|&#45; ( ph &#45;&gt; ( ( ps \/ th ) &lt;&#45;&gt; ( ch \/ th ) ) )</text>
</g>
<!-- n12067 -->
<g id="node13" class="node"><title>n12067</title>
<ellipse fill="cyan" stroke="black" cx="281.14" cy="-234" rx="34.394" ry="18"/>
<text text-anchor="middle" x="281.14" y="-230.3" font-family="Times New Roman,serif" font-size="14.00">orbi2d</text>
</g>
<!-- n12061&#45;&gt;n12067 -->
<g id="edge30" class="edge"><title>n12061&#45;&gt;n12067</title>
</g>
<!-- n12057&#45;&gt;n12061 -->
<g id="edge6" class="edge"><title>n12057&#45;&gt;n12061</title>
<path fill="none" stroke="lightgray" d="M65.0296,-572.253C104.185,-565.403 179.444,-547.64 228.693,-507 240.686,-497.103 238.045,-489.922 246.693,-477 251.085,-470.437 256.053,-463.515 260.789,-457.12"/>
<polygon fill="lightgray" stroke="lightgray" points="263.824,-458.908 267.03,-448.81 258.227,-454.704 263.824,-458.908"/>
<text text-anchor="middle" x="161.693" y="-568.8" font-family="Times New Roman,serif" font-size="14.00" fill="lightgray">wff ps</text>
</g>
<!-- n12058 -->
<g id="node9" class="node"><title>n12058</title>
</g>
<!-- n12057&#45;&gt;n12058 -->
<g id="edge12" class="edge"><title>n12057&#45;&gt;n12058</title>
</g>
<!-- n12058&#45;&gt;n12061 -->
<g id="edge7" class="edge"><title>n12058&#45;&gt;n12061</title>
<path fill="none" stroke="lightgray" d="M63.7449,-497.845C99.9884,-488.551 170.078,-469.993 228.693,-451 233.55,-449.426 238.63,-447.678 243.626,-445.897"/>
<polygon fill="lightgray" stroke="lightgray" points="244.847,-449.178 253.05,-442.471 242.455,-442.599 244.847,-449.178"/>
<text text-anchor="middle" x="161.693" y="-491.8" font-family="Times New Roman,serif" font-size="14.00" fill="lightgray">wff ch</text>
</g>
<!-- n12059 -->
<g id="node10" class="node"><title>n12059</title>
</g>
<!-- n12058&#45;&gt;n12059 -->
<g id="edge13" class="edge"><title>n12058&#45;&gt;n12059</title>
</g>
<!-- n12059&#45;&gt;n12061 -->
<g id="edge8" class="edge"><title>n12059&#45;&gt;n12061</title>
<path fill="none" stroke="lightgray" d="M65.5741,-432C106.655,-432 186.624,-432 236.484,-432"/>
<polygon fill="lightgray" stroke="lightgray" points="236.642,-435.5 246.642,-432 236.642,-428.5 236.642,-435.5"/>
<text text-anchor="middle" x="161.693" y="-435.8" font-family="Times New Roman,serif" font-size="14.00" fill="lightgray">wff th</text>
</g>
<!-- n12060 -->
<g id="node11" class="node"><title>n12060</title>
<ellipse fill="orange" stroke="black" cx="38.3466" cy="-360" rx="38.1938" ry="18"/>
<text text-anchor="middle" x="38.3466" y="-356.3" font-family="Times New Roman,serif" font-size="14.00">bi12d.1</text>
</g>
<!-- n12059&#45;&gt;n12060 -->
<g id="edge14" class="edge"><title>n12059&#45;&gt;n12060</title>
</g>
<!-- n12060&#45;&gt;n12061 -->
<g id="edge9" class="edge"><title>n12060&#45;&gt;n12061</title>
<path fill="none" stroke="black" d="M72.4261,-368.392C110.408,-378.227 174.462,-395.428 228.693,-413 233.55,-414.574 238.63,-416.322 243.626,-418.103"/>
<polygon fill="black" stroke="black" points="242.455,-421.401 253.05,-421.529 244.847,-414.822 242.455,-421.401"/>
<text text-anchor="middle" x="161.693" y="-416.8" font-family="Times New Roman,serif" font-size="14.00">|&#45; ( ph &#45;&gt; ( ps &lt;&#45;&gt; ch ) )</text>
</g>
<!-- n12062 -->
<g id="node12" class="node"><title>n12062</title>
</g>
<!-- n12062&#45;&gt;n12067 -->
<g id="edge15" class="edge"><title>n12062&#45;&gt;n12067</title>
<path fill="none" stroke="lightgray" d="M63.7449,-299.845C99.9884,-290.551 170.078,-271.993 228.693,-253 233.55,-251.426 238.63,-249.678 243.626,-247.897"/>
<polygon fill="lightgray" stroke="lightgray" points="244.847,-251.178 253.05,-244.471 242.455,-244.599 244.847,-251.178"/>
<text text-anchor="middle" x="161.693" y="-294.8" font-family="Times New Roman,serif" font-size="14.00" fill="lightgray">wff ph</text>
</g>
<!-- n12063 -->
<g id="node14" class="node"><title>n12063</title>
</g>
<!-- n12062&#45;&gt;n12063 -->
<g id="edge21" class="edge"><title>n12062&#45;&gt;n12063</title>
</g>
<!-- n12067&#45;&gt;n12068 -->
<g id="edge20" class="edge"><title>n12067&#45;&gt;n12068</title>
<path fill="none" stroke="black" d="M308.824,-244.89C362.431,-268.07 483.85,-327.353 551.587,-414 574.157,-442.871 586.026,-484.063 591.782,-511.156"/>
<polygon fill="black" stroke="black" points="588.383,-512.01 593.762,-521.138 595.25,-510.648 588.383,-512.01"/>
<text text-anchor="middle" x="442.587" y="-417.8" font-family="Times New Roman,serif" font-size="14.00">|&#45; ( ph &#45;&gt; ( ( ch \/ th ) &lt;&#45;&gt; ( ch \/ ta ) ) )</text>
</g>
<!-- n12063&#45;&gt;n12067 -->
<g id="edge16" class="edge"><title>n12063&#45;&gt;n12067</title>
<path fill="none" stroke="lightgray" d="M65.5741,-234C106.655,-234 186.624,-234 236.484,-234"/>
<polygon fill="lightgray" stroke="lightgray" points="236.642,-237.5 246.642,-234 236.642,-230.5 236.642,-237.5"/>
<text text-anchor="middle" x="161.693" y="-237.8" font-family="Times New Roman,serif" font-size="14.00" fill="lightgray">wff th</text>
</g>
<!-- n12064 -->
<g id="node15" class="node"><title>n12064</title>
</g>
<!-- n12063&#45;&gt;n12064 -->
<g id="edge22" class="edge"><title>n12063&#45;&gt;n12064</title>
</g>
<!-- n12064&#45;&gt;n12067 -->
<g id="edge17" class="edge"><title>n12064&#45;&gt;n12067</title>
<path fill="none" stroke="lightgray" d="M63.7449,-168.155C99.9884,-177.449 170.078,-196.007 228.693,-215 233.55,-216.574 238.63,-218.322 243.626,-220.103"/>
<polygon fill="lightgray" stroke="lightgray" points="242.455,-223.401 253.05,-223.529 244.847,-216.822 242.455,-223.401"/>
<text text-anchor="middle" x="161.693" y="-218.8" font-family="Times New Roman,serif" font-size="14.00" fill="lightgray">wff ta</text>
</g>
<!-- n12065 -->
<g id="node16" class="node"><title>n12065</title>
</g>
<!-- n12064&#45;&gt;n12065 -->
<g id="edge23" class="edge"><title>n12064&#45;&gt;n12065</title>
</g>
<!-- n12065&#45;&gt;n12067 -->
<g id="edge18" class="edge"><title>n12065&#45;&gt;n12067</title>
<path fill="none" stroke="lightgray" d="M64.7296,-94.1222C103.489,-101.468 178.231,-119.876 228.693,-159 245.279,-171.859 258.511,-191.583 267.4,-207.577"/>
<polygon fill="lightgray" stroke="lightgray" points="264.346,-209.289 272.125,-216.482 270.53,-206.008 264.346,-209.289"/>
<text text-anchor="middle" x="161.693" y="-162.8" font-family="Times New Roman,serif" font-size="14.00" fill="lightgray">wff ch</text>
</g>
<!-- n12066 -->
<g id="node17" class="node"><title>n12066</title>
<ellipse fill="orange" stroke="black" cx="38.3466" cy="-18" rx="38.1938" ry="18"/>
<text text-anchor="middle" x="38.3466" y="-14.3" font-family="Times New Roman,serif" font-size="14.00">bi12d.2</text>
</g>
<!-- n12065&#45;&gt;n12066 -->
<g id="edge24" class="edge"><title>n12065&#45;&gt;n12066</title>
</g>
<!-- n12066&#45;&gt;n12067 -->
<g id="edge19" class="edge"><title>n12066&#45;&gt;n12067</title>
<path fill="none" stroke="black" d="M76.4671,-21.1085C118.796,-26.5888 187.453,-41.6647 228.693,-83 262.053,-116.437 273.797,-172.337 277.921,-205.932"/>
<polygon fill="black" stroke="black" points="274.455,-206.434 279.01,-215.999 281.414,-205.681 274.455,-206.434"/>
<text text-anchor="middle" x="161.693" y="-86.8" font-family="Times New Roman,serif" font-size="14.00">|&#45; ( ph &#45;&gt; ( th &lt;&#45;&gt; ta ) )</text>
</g>
</g>
</svg>
