<?xml version="1.0" encoding="UTF-8" standalone="no"?>
<!DOCTYPE svg PUBLIC "-//W3C//DTD SVG 1.1//EN"
 "http://www.w3.org/Graphics/SVG/1.1/DTD/svg11.dtd">
<!-- Generated by graphviz version 2.38.0 (20140413.2041)
 -->
<!-- Title: proof_orbi1 Pages: 1 -->
<svg width="923pt" height="332pt"
 viewBox="0.00 0.00 923.39 332.00" xmlns="http://www.w3.org/2000/svg" xmlns:xlink="http://www.w3.org/1999/xlink">
<g id="graph0" class="graph" transform="scale(1 1) rotate(0) translate(4 328)">
<title>proof_orbi1</title>
<polygon fill="white" stroke="none" points="-4,4 -4,-328 919.389,-328 919.389,4 -4,4"/>
<!-- n12001 -->
<g id="node1" class="node"><title>n12001</title>
</g>
<!-- n12009 -->
<g id="node2" class="node"><title>n12009</title>
<ellipse fill="cyan" stroke="black" cx="503.447" cy="-162" rx="34.394" ry="18"/>
<text text-anchor="middle" x="503.447" y="-158.3" font-family="Times New Roman,serif" font-size="14.00">orbi1d</text>
</g>
<!-- n12001&#45;&gt;n12009 -->
<g id="edge1" class="edge"><title>n12001&#45;&gt;n12009</title>
<path fill="none" stroke="lightgray" d="M240.146,-305.296C286.861,-302.806 385.856,-291.814 451,-244 469.747,-230.24 483.259,-207.397 491.718,-189.311"/>
<polygon fill="lightgray" stroke="lightgray" points="495.062,-190.402 495.898,-179.84 488.658,-187.575 495.062,-190.402"/>
<text text-anchor="middle" x="354.5" y="-306.8" font-family="Times New Roman,serif" font-size="14.00" fill="lightgray">wff ( ph &lt;&#45;&gt; ps )</text>
</g>
<!-- n12002 -->
<g id="node3" class="node"><title>n12002</title>
</g>
<!-- n12001&#45;&gt;n12002 -->
<g id="edge8" class="edge"><title>n12001&#45;&gt;n12002</title>
</g>
<!-- QED -->
<g id="node8" class="node"><title>QED</title>
</g>
<!-- n12009&#45;&gt;QED -->
<g id="edge7" class="edge"><title>n12009&#45;&gt;QED</title>
<path fill="none" stroke="black" d="M537.897,-162C608.368,-162 771.747,-162 846.522,-162"/>
<polygon fill="black" stroke="black" points="846.89,-165.5 856.89,-162 846.89,-158.5 846.89,-165.5"/>
<text text-anchor="middle" x="697.394" y="-165.8" font-family="Times New Roman,serif" font-size="14.00">|&#45; ( ( ph &lt;&#45;&gt; ps ) &#45;&gt; ( ( ph \/ ch ) &lt;&#45;&gt; ( ps \/ ch ) ) )</text>
</g>
<!-- n12002&#45;&gt;n12009 -->
<g id="edge2" class="edge"><title>n12002&#45;&gt;n12009</title>
<path fill="none" stroke="lightgray" d="M239.19,-229.516C282.796,-221.499 374.975,-203.43 451,-181 455.897,-179.555 461,-177.882 466.008,-176.139"/>
<polygon fill="lightgray" stroke="lightgray" points="467.217,-179.424 475.441,-172.745 464.847,-172.838 467.217,-179.424"/>
<text text-anchor="middle" x="354.5" y="-228.8" font-family="Times New Roman,serif" font-size="14.00" fill="lightgray">wff ph</text>
</g>
<!-- n12003 -->
<g id="node4" class="node"><title>n12003</title>
</g>
<!-- n12002&#45;&gt;n12003 -->
<g id="edge9" class="edge"><title>n12002&#45;&gt;n12003</title>
</g>
<!-- n12003&#45;&gt;n12009 -->
<g id="edge3" class="edge"><title>n12003&#45;&gt;n12009</title>
<path fill="none" stroke="lightgray" d="M240.106,-162C289.661,-162 397.825,-162 458.655,-162"/>
<polygon fill="lightgray" stroke="lightgray" points="458.716,-165.5 468.716,-162 458.716,-158.5 458.716,-165.5"/>
<text text-anchor="middle" x="354.5" y="-165.8" font-family="Times New Roman,serif" font-size="14.00" fill="lightgray">wff ps</text>
</g>
<!-- n12004 -->
<g id="node5" class="node"><title>n12004</title>
</g>
<!-- n12003&#45;&gt;n12004 -->
<g id="edge10" class="edge"><title>n12003&#45;&gt;n12004</title>
</g>
<!-- n12004&#45;&gt;n12009 -->
<g id="edge4" class="edge"><title>n12004&#45;&gt;n12009</title>
<path fill="none" stroke="lightgray" d="M239.19,-94.4842C282.796,-102.501 374.975,-120.57 451,-143 455.897,-144.445 461,-146.118 466.008,-147.861"/>
<polygon fill="lightgray" stroke="lightgray" points="464.847,-151.162 475.441,-151.255 467.217,-144.576 464.847,-151.162"/>
<text text-anchor="middle" x="354.5" y="-146.8" font-family="Times New Roman,serif" font-size="14.00" fill="lightgray">wff ch</text>
</g>
<!-- n12008 -->
<g id="node7" class="node"><title>n12008</title>
<ellipse fill="cyan" stroke="black" cx="213" cy="-18" rx="27" ry="18"/>
<text text-anchor="middle" x="213" y="-14.3" font-family="Times New Roman,serif" font-size="14.00">id</text>
</g>
<!-- n12004&#45;&gt;n12008 -->
<g id="edge11" class="edge"><title>n12004&#45;&gt;n12008</title>
</g>
<!-- n12007 -->
<g id="node6" class="node"><title>n12007</title>
</g>
<!-- n12007&#45;&gt;n12008 -->
<g id="edge5" class="edge"><title>n12007&#45;&gt;n12008</title>
<path fill="none" stroke="lightgray" d="M54.3627,-18C86.2889,-18 140.22,-18 175.967,-18"/>
<polygon fill="lightgray" stroke="lightgray" points="175.983,-21.5001 185.983,-18 175.983,-14.5001 175.983,-21.5001"/>
<text text-anchor="middle" x="120" y="-21.8" font-family="Times New Roman,serif" font-size="14.00" fill="lightgray">wff ( ph &lt;&#45;&gt; ps )</text>
</g>
<!-- n12008&#45;&gt;n12009 -->
<g id="edge6" class="edge"><title>n12008&#45;&gt;n12009</title>
<path fill="none" stroke="black" d="M240.146,-18.7038C286.861,-21.1935 385.856,-32.1857 451,-80 469.747,-93.7603 483.259,-116.603 491.718,-134.689"/>
<polygon fill="black" stroke="black" points="488.658,-136.425 495.898,-144.16 495.062,-133.598 488.658,-136.425"/>
<text text-anchor="middle" x="354.5" y="-83.8" font-family="Times New Roman,serif" font-size="14.00">|&#45; ( ( ph &lt;&#45;&gt; ps ) &#45;&gt; ( ph &lt;&#45;&gt; ps ) )</text>
</g>
</g>
</svg>
