<?xml version="1.0" encoding="UTF-8" standalone="no"?>
<!DOCTYPE svg PUBLIC "-//W3C//DTD SVG 1.1//EN"
 "http://www.w3.org/Graphics/SVG/1.1/DTD/svg11.dtd">
<!-- Generated by graphviz version 2.38.0 (20140413.2041)
 -->
<!-- Title: proof_orcom Pages: 1 -->
<svg width="740pt" height="325pt"
 viewBox="0.00 0.00 740.38 325.00" xmlns="http://www.w3.org/2000/svg" xmlns:xlink="http://www.w3.org/1999/xlink">
<g id="graph0" class="graph" transform="scale(1 1) rotate(0) translate(4 321)">
<title>proof_orcom</title>
<polygon fill="white" stroke="none" points="-4,4 -4,-321 736.383,-321 736.383,4 -4,4"/>
<!-- n7313 -->
<g id="node1" class="node"><title>n7313</title>
</g>
<!-- n7323 -->
<g id="node2" class="node"><title>n7323</title>
<ellipse fill="cyan" stroke="black" cx="429.741" cy="-190" rx="33.2948" ry="18"/>
<text text-anchor="middle" x="429.741" y="-186.3" font-family="Times New Roman,serif" font-size="14.00">impbii</text>
</g>
<!-- n7313&#45;&gt;n7323 -->
<g id="edge1" class="edge"><title>n7313&#45;&gt;n7323</title>
<path fill="none" stroke="lightgray" d="M187.396,-295.902C229.612,-289.925 315.442,-274.067 378.594,-238 389.602,-231.713 400.03,-222.489 408.497,-213.803"/>
<polygon fill="lightgray" stroke="lightgray" points="411.142,-216.098 415.397,-206.395 406.02,-211.326 411.142,-216.098"/>
<text text-anchor="middle" x="295.594" y="-294.8" font-family="Times New Roman,serif" font-size="14.00" fill="lightgray">wff ( ph \/ ps )</text>
</g>
<!-- n7316 -->
<g id="node3" class="node"><title>n7316</title>
</g>
<!-- n7313&#45;&gt;n7316 -->
<g id="edge12" class="edge"><title>n7313&#45;&gt;n7316</title>
</g>
<!-- QED -->
<g id="node10" class="node"><title>QED</title>
</g>
<!-- n7323&#45;&gt;QED -->
<g id="edge11" class="edge"><title>n7323&#45;&gt;QED</title>
<path fill="none" stroke="black" d="M462.939,-190C513.092,-190 609.683,-190 663.51,-190"/>
<polygon fill="black" stroke="black" points="663.678,-193.5 673.678,-190 663.678,-186.5 663.678,-193.5"/>
<text text-anchor="middle" x="568.388" y="-193.8" font-family="Times New Roman,serif" font-size="14.00">|&#45; ( ( ph \/ ps ) &lt;&#45;&gt; ( ps \/ ph ) )</text>
</g>
<!-- n7316&#45;&gt;n7323 -->
<g id="edge2" class="edge"><title>n7316&#45;&gt;n7323</title>
<path fill="none" stroke="lightgray" d="M187.393,-223.452C233.707,-217.033 331.782,-203.439 387.603,-195.702"/>
<polygon fill="lightgray" stroke="lightgray" points="388.088,-199.168 397.513,-194.328 387.127,-192.235 388.088,-199.168"/>
<text text-anchor="middle" x="295.594" y="-222.8" font-family="Times New Roman,serif" font-size="14.00" fill="lightgray">wff ( ps \/ ph )</text>
</g>
<!-- n7319 -->
<g id="node5" class="node"><title>n7319</title>
<ellipse fill="cyan" stroke="black" cx="160.797" cy="-155" rx="33.5952" ry="18"/>
<text text-anchor="middle" x="160.797" y="-151.3" font-family="Times New Roman,serif" font-size="14.00">pm1.4</text>
</g>
<!-- n7316&#45;&gt;n7319 -->
<g id="edge13" class="edge"><title>n7316&#45;&gt;n7319</title>
</g>
<!-- n7317 -->
<g id="node4" class="node"><title>n7317</title>
</g>
<!-- n7317&#45;&gt;n7319 -->
<g id="edge3" class="edge"><title>n7317&#45;&gt;n7319</title>
<path fill="none" stroke="lightgray" d="M49.4688,-207.738C70.2037,-197.826 101.923,-182.664 126.039,-171.137"/>
<polygon fill="lightgray" stroke="lightgray" points="127.684,-174.23 135.197,-166.759 124.665,-167.914 127.684,-174.23"/>
<text text-anchor="middle" x="90.5" y="-198.8" font-family="Times New Roman,serif" font-size="14.00" fill="lightgray">wff ph</text>
</g>
<!-- n7318 -->
<g id="node6" class="node"><title>n7318</title>
</g>
<!-- n7317&#45;&gt;n7318 -->
<g id="edge6" class="edge"><title>n7317&#45;&gt;n7318</title>
</g>
<!-- n7319&#45;&gt;n7323 -->
<g id="edge5" class="edge"><title>n7319&#45;&gt;n7323</title>
<path fill="none" stroke="black" d="M194.198,-158.291C236.648,-162.738 313.36,-171.243 378.594,-181 381.787,-181.478 385.089,-182.002 388.404,-182.55"/>
<polygon fill="black" stroke="black" points="387.844,-186.005 398.291,-184.242 389.025,-179.105 387.844,-186.005"/>
<text text-anchor="middle" x="295.594" y="-184.8" font-family="Times New Roman,serif" font-size="14.00">|&#45; ( ( ph \/ ps ) &#45;&gt; ( ps \/ ph ) )</text>
</g>
<!-- n7322 -->
<g id="node8" class="node"><title>n7322</title>
<ellipse fill="cyan" stroke="black" cx="160.797" cy="-83" rx="33.5952" ry="18"/>
<text text-anchor="middle" x="160.797" y="-79.3" font-family="Times New Roman,serif" font-size="14.00">pm1.4</text>
</g>
<!-- n7319&#45;&gt;n7322 -->
<g id="edge14" class="edge"><title>n7319&#45;&gt;n7322</title>
</g>
<!-- n7318&#45;&gt;n7319 -->
<g id="edge4" class="edge"><title>n7318&#45;&gt;n7319</title>
<path fill="none" stroke="lightgray" d="M54.0388,-147.778C71.8799,-148.996 95.9645,-150.641 116.643,-152.053"/>
<polygon fill="lightgray" stroke="lightgray" points="116.571,-155.556 126.786,-152.746 117.048,-148.573 116.571,-155.556"/>
<text text-anchor="middle" x="90.5" y="-154.8" font-family="Times New Roman,serif" font-size="14.00" fill="lightgray">wff ps</text>
</g>
<!-- n7320 -->
<g id="node7" class="node"><title>n7320</title>
</g>
<!-- n7320&#45;&gt;n7322 -->
<g id="edge7" class="edge"><title>n7320&#45;&gt;n7322</title>
<path fill="none" stroke="lightgray" d="M54.0388,-88.617C71.8799,-87.6695 95.9645,-86.3903 116.643,-85.292"/>
<polygon fill="lightgray" stroke="lightgray" points="116.986,-88.7788 126.786,-84.7533 116.615,-81.7887 116.986,-88.7788"/>
<text text-anchor="middle" x="90.5" y="-91.8" font-family="Times New Roman,serif" font-size="14.00" fill="lightgray">wff ps</text>
</g>
<!-- n7321 -->
<g id="node9" class="node"><title>n7321</title>
</g>
<!-- n7320&#45;&gt;n7321 -->
<g id="edge10" class="edge"><title>n7320&#45;&gt;n7321</title>
</g>
<!-- n7322&#45;&gt;n7323 -->
<g id="edge9" class="edge"><title>n7322&#45;&gt;n7323</title>
<path fill="none" stroke="black" d="M194.245,-86.4617C238.424,-92.2958 318.835,-106.973 378.594,-141 389.72,-147.335 400.17,-156.737 408.62,-165.616"/>
<polygon fill="black" stroke="black" points="406.185,-168.141 415.498,-173.193 411.368,-163.436 406.185,-168.141"/>
<text text-anchor="middle" x="295.594" y="-144.8" font-family="Times New Roman,serif" font-size="14.00">|&#45; ( ( ps \/ ph ) &#45;&gt; ( ph \/ ps ) )</text>
</g>
<!-- n7321&#45;&gt;n7322 -->
<g id="edge8" class="edge"><title>n7321&#45;&gt;n7322</title>
<path fill="none" stroke="lightgray" d="M49.1755,-28.4434C69.9887,-38.7081 102.072,-54.5308 126.337,-66.4979"/>
<polygon fill="lightgray" stroke="lightgray" points="125.025,-69.7536 135.542,-71.0378 128.121,-63.4756 125.025,-69.7536"/>
<text text-anchor="middle" x="90.5" y="-60.8" font-family="Times New Roman,serif" font-size="14.00" fill="lightgray">wff ph</text>
</g>
</g>
</svg>
