<?xml version="1.0" encoding="UTF-8" standalone="no"?>
<!DOCTYPE svg PUBLIC "-//W3C//DTD SVG 1.1//EN"
 "http://www.w3.org/Graphics/SVG/1.1/DTD/svg11.dtd">
<!-- Generated by graphviz version 2.38.0 (20140413.2041)
 -->
<!-- Title: proof_ord Pages: 1 -->
<svg width="583pt" height="332pt"
 viewBox="0.00 0.00 583.48 332.00" xmlns="http://www.w3.org/2000/svg" xmlns:xlink="http://www.w3.org/1999/xlink">
<g id="graph0" class="graph" transform="scale(1 1) rotate(0) translate(4 328)">
<title>proof_ord</title>
<polygon fill="white" stroke="none" points="-4,4 -4,-328 579.484,-328 579.484,4 -4,4"/>
<!-- n7180 -->
<g id="node1" class="node"><title>n7180</title>
</g>
<!-- n7192 -->
<g id="node2" class="node"><title>n7192</title>
<ellipse fill="cyan" stroke="black" cx="315.042" cy="-162" rx="27.8951" ry="18"/>
<text text-anchor="middle" x="315.042" y="-158.3" font-family="Times New Roman,serif" font-size="14.00">sylib</text>
</g>
<!-- n7180&#45;&gt;n7192 -->
<g id="edge1" class="edge"><title>n7180&#45;&gt;n7192</title>
<path fill="none" stroke="lightgray" d="M57.6676,-305.707C104.79,-303.884 205.067,-293.933 269.095,-244 286.809,-230.185 298.506,-207.347 305.514,-189.276"/>
<polygon fill="lightgray" stroke="lightgray" points="308.826,-190.41 308.934,-179.815 302.243,-188.03 308.826,-190.41"/>
<text text-anchor="middle" x="174.095" y="-307.8" font-family="Times New Roman,serif" font-size="14.00" fill="lightgray">wff ph</text>
</g>
<!-- n7183 -->
<g id="node3" class="node"><title>n7183</title>
</g>
<!-- n7180&#45;&gt;n7183 -->
<g id="edge7" class="edge"><title>n7180&#45;&gt;n7183</title>
</g>
<!-- QED -->
<g id="node7" class="node"><title>QED</title>
</g>
<!-- n7192&#45;&gt;QED -->
<g id="edge6" class="edge"><title>n7192&#45;&gt;QED</title>
<path fill="none" stroke="black" d="M343.234,-162C383.717,-162 460.028,-162 506.387,-162"/>
<polygon fill="black" stroke="black" points="506.644,-165.5 516.644,-162 506.644,-158.5 506.644,-165.5"/>
<text text-anchor="middle" x="429.99" y="-165.8" font-family="Times New Roman,serif" font-size="14.00">|&#45; ( ph &#45;&gt; ( &#45;. ps &#45;&gt; ch ) )</text>
</g>
<!-- n7183&#45;&gt;n7192 -->
<g id="edge2" class="edge"><title>n7183&#45;&gt;n7192</title>
<path fill="none" stroke="lightgray" d="M56.9101,-229.893C100.79,-222.446 193.435,-205.213 269.095,-181 273.479,-179.597 278.028,-177.933 282.474,-176.183"/>
<polygon fill="lightgray" stroke="lightgray" points="284.026,-179.328 291.936,-172.28 281.357,-172.857 284.026,-179.328"/>
<text text-anchor="middle" x="174.095" y="-228.8" font-family="Times New Roman,serif" font-size="14.00" fill="lightgray">wff ( ps \/ ch )</text>
</g>
<!-- n7187 -->
<g id="node4" class="node"><title>n7187</title>
</g>
<!-- n7183&#45;&gt;n7187 -->
<g id="edge8" class="edge"><title>n7183&#45;&gt;n7187</title>
</g>
<!-- n7187&#45;&gt;n7192 -->
<g id="edge3" class="edge"><title>n7187&#45;&gt;n7192</title>
<path fill="none" stroke="lightgray" d="M57.6174,-162C107.895,-162 218.415,-162 276.572,-162"/>
<polygon fill="lightgray" stroke="lightgray" points="276.795,-165.5 286.795,-162 276.795,-158.5 276.795,-165.5"/>
<text text-anchor="middle" x="174.095" y="-165.8" font-family="Times New Roman,serif" font-size="14.00" fill="lightgray">wff ( &#45;. ps &#45;&gt; ch )</text>
</g>
<!-- n7188 -->
<g id="node5" class="node"><title>n7188</title>
<ellipse fill="orange" stroke="black" cx="30.5473" cy="-90" rx="30.5947" ry="18"/>
<text text-anchor="middle" x="30.5473" y="-86.3" font-family="Times New Roman,serif" font-size="14.00">ord.1</text>
</g>
<!-- n7187&#45;&gt;n7188 -->
<g id="edge9" class="edge"><title>n7187&#45;&gt;n7188</title>
</g>
<!-- n7188&#45;&gt;n7192 -->
<g id="edge4" class="edge"><title>n7188&#45;&gt;n7192</title>
<path fill="none" stroke="black" d="M60.1439,-94.6583C105.215,-102.383 195.246,-119.367 269.095,-143 273.479,-144.403 278.028,-146.067 282.474,-147.817"/>
<polygon fill="black" stroke="black" points="281.357,-151.143 291.936,-151.72 284.026,-144.672 281.357,-151.143"/>
<text text-anchor="middle" x="174.095" y="-146.8" font-family="Times New Roman,serif" font-size="14.00">|&#45; ( ph &#45;&gt; ( ps \/ ch ) )</text>
</g>
<!-- n7191 -->
<g id="node6" class="node"><title>n7191</title>
</g>
<!-- n7188&#45;&gt;n7191 -->
<g id="edge10" class="edge"><title>n7188&#45;&gt;n7191</title>
</g>
<!-- n7191&#45;&gt;n7192 -->
<g id="edge5" class="edge"><title>n7191&#45;&gt;n7192</title>
<path fill="none" stroke="lightgray" d="M59.9331,-18.3853C107.939,-20.4397 206.076,-30.8537 269.095,-80 286.809,-93.8149 298.506,-116.653 305.514,-134.724"/>
<polygon fill="lightgray" stroke="lightgray" points="302.243,-135.97 308.934,-144.185 308.826,-133.59 302.243,-135.97"/>
<text text-anchor="middle" x="174.095" y="-83.8" font-family="Times New Roman,serif" font-size="14.00" fill="lightgray">|&#45; ( ( ps \/ ch ) &lt;&#45;&gt; ( &#45;. ps &#45;&gt; ch ) )</text>
</g>
</g>
</svg>
