<?xml version="1.0" encoding="UTF-8" standalone="no"?>
<!DOCTYPE svg PUBLIC "-//W3C//DTD SVG 1.1//EN"
 "http://www.w3.org/Graphics/SVG/1.1/DTD/svg11.dtd">
<!-- Generated by graphviz version 2.38.0 (20140413.2041)
 -->
<!-- Title: proof_ordi Pages: 1 -->
<svg width="1266pt" height="763pt"
 viewBox="0.00 0.00 1266.38 763.00" xmlns="http://www.w3.org/2000/svg" xmlns:xlink="http://www.w3.org/1999/xlink">
<g id="graph0" class="graph" transform="scale(1 1) rotate(0) translate(4 759)">
<title>proof_ordi</title>
<polygon fill="white" stroke="none" points="-4,4 -4,-759 1262.38,-759 1262.38,4 -4,4"/>
<!-- n14823 -->
<g id="node1" class="node"><title>n14823</title>
</g>
<!-- n14876 -->
<g id="node2" class="node"><title>n14876</title>
<ellipse fill="cyan" stroke="black" cx="820.085" cy="-504" rx="33.5952" ry="18"/>
<text text-anchor="middle" x="820.085" y="-500.3" font-family="Times New Roman,serif" font-size="14.00">3bitr4i</text>
</g>
<!-- n14823&#45;&gt;n14876 -->
<g id="edge1" class="edge"><title>n14823&#45;&gt;n14876</title>
<path fill="none" stroke="lightgray" d="M348.835,-725.354C422.596,-739.631 642.374,-770.757 768.288,-666 807.988,-632.972 817.14,-569.272 818.963,-532.354"/>
<polygon fill="lightgray" stroke="lightgray" points="822.464,-532.374 819.311,-522.259 815.468,-532.133 822.464,-532.374"/>
<text text-anchor="middle" x="572.788" y="-743.8" font-family="Times New Roman,serif" font-size="14.00" fill="lightgray">wff ( &#45;. ph &#45;&gt; ( ps /\ ch ) )</text>
</g>
<!-- n14832 -->
<g id="node3" class="node"><title>n14832</title>
</g>
<!-- n14823&#45;&gt;n14832 -->
<g id="edge25" class="edge"><title>n14823&#45;&gt;n14832</title>
</g>
<!-- QED -->
<g id="node18" class="node"><title>QED</title>
</g>
<!-- n14876&#45;&gt;QED -->
<g id="edge24" class="edge"><title>n14876&#45;&gt;QED</title>
<path fill="none" stroke="black" d="M854.051,-504C928.677,-504 1110.22,-504 1189.74,-504"/>
<polygon fill="black" stroke="black" points="1189.82,-507.5 1199.82,-504 1189.82,-500.5 1189.82,-507.5"/>
<text text-anchor="middle" x="1026.88" y="-507.8" font-family="Times New Roman,serif" font-size="14.00">|&#45; ( ( ph \/ ( ps /\ ch ) ) &lt;&#45;&gt; ( ( ph \/ ps ) /\ ( ph \/ ch ) ) )</text>
</g>
<!-- n14832&#45;&gt;n14876 -->
<g id="edge2" class="edge"><title>n14832&#45;&gt;n14876</title>
<path fill="none" stroke="lightgray" d="M349.959,-647.695C434.389,-646.257 698.898,-638.091 768.288,-592 789.532,-577.889 802.982,-551.65 810.666,-531.482"/>
<polygon fill="lightgray" stroke="lightgray" points="814.032,-532.462 814.077,-521.867 807.435,-530.122 814.032,-532.462"/>
<text text-anchor="middle" x="572.788" y="-650.8" font-family="Times New Roman,serif" font-size="14.00" fill="lightgray">wff ( ( &#45;. ph &#45;&gt; ps ) /\ ( &#45;. ph &#45;&gt; ch ) )</text>
</g>
<!-- n14837 -->
<g id="node4" class="node"><title>n14837</title>
</g>
<!-- n14832&#45;&gt;n14837 -->
<g id="edge26" class="edge"><title>n14832&#45;&gt;n14837</title>
</g>
<!-- n14837&#45;&gt;n14876 -->
<g id="edge3" class="edge"><title>n14837&#45;&gt;n14876</title>
<path fill="none" stroke="lightgray" d="M350.327,-575.048C419.775,-572.078 612.752,-560.785 768.288,-523 773.306,-521.781 778.506,-520.212 783.578,-518.5"/>
<polygon fill="lightgray" stroke="lightgray" points="784.867,-521.756 793.096,-515.083 782.502,-515.167 784.867,-521.756"/>
<text text-anchor="middle" x="572.788" y="-576.8" font-family="Times New Roman,serif" font-size="14.00" fill="lightgray">wff ( ph \/ ( ps /\ ch ) )</text>
</g>
<!-- n14844 -->
<g id="node5" class="node"><title>n14844</title>
</g>
<!-- n14837&#45;&gt;n14844 -->
<g id="edge27" class="edge"><title>n14837&#45;&gt;n14844</title>
</g>
<!-- n14844&#45;&gt;n14876 -->
<g id="edge4" class="edge"><title>n14844&#45;&gt;n14876</title>
<path fill="none" stroke="lightgray" d="M350.166,-504C430.985,-504 676.441,-504 776.222,-504"/>
<polygon fill="lightgray" stroke="lightgray" points="776.255,-507.5 786.255,-504 776.255,-500.5 776.255,-507.5"/>
<text text-anchor="middle" x="572.788" y="-507.8" font-family="Times New Roman,serif" font-size="14.00" fill="lightgray">wff ( ( ph \/ ps ) /\ ( ph \/ ch ) )</text>
</g>
<!-- n14849 -->
<g id="node7" class="node"><title>n14849</title>
<ellipse fill="cyan" stroke="black" cx="322.892" cy="-432" rx="27" ry="18"/>
<text text-anchor="middle" x="322.892" y="-428.3" font-family="Times New Roman,serif" font-size="14.00">jcab</text>
</g>
<!-- n14844&#45;&gt;n14849 -->
<g id="edge28" class="edge"><title>n14844&#45;&gt;n14849</title>
</g>
<!-- n14846 -->
<g id="node6" class="node"><title>n14846</title>
</g>
<!-- n14846&#45;&gt;n14849 -->
<g id="edge5" class="edge"><title>n14846&#45;&gt;n14849</title>
<path fill="none" stroke="lightgray" d="M56.2649,-575.851C103.68,-574.254 205.099,-564.563 268.495,-513 282.373,-501.712 276.916,-492.108 286.495,-477 291.061,-469.799 296.541,-462.371 301.81,-455.677"/>
<polygon fill="lightgray" stroke="lightgray" points="304.724,-457.64 308.287,-447.663 299.279,-453.241 304.724,-457.64"/>
<text text-anchor="middle" x="172.495" y="-577.8" font-family="Times New Roman,serif" font-size="14.00" fill="lightgray">wff &#45;. ph</text>
</g>
<!-- n14847 -->
<g id="node8" class="node"><title>n14847</title>
</g>
<!-- n14846&#45;&gt;n14847 -->
<g id="edge9" class="edge"><title>n14846&#45;&gt;n14847</title>
</g>
<!-- n14849&#45;&gt;n14876 -->
<g id="edge8" class="edge"><title>n14849&#45;&gt;n14876</title>
<path fill="none" stroke="black" d="M350.327,-432.952C419.775,-435.922 612.752,-447.215 768.288,-485 773.306,-486.219 778.506,-487.788 783.578,-489.5"/>
<polygon fill="black" stroke="black" points="782.502,-492.833 793.096,-492.917 784.867,-486.244 782.502,-492.833"/>
<text text-anchor="middle" x="572.788" y="-488.8" font-family="Times New Roman,serif" font-size="14.00">|&#45; ( ( &#45;. ph &#45;&gt; ( ps /\ ch ) ) &lt;&#45;&gt; ( ( &#45;. ph &#45;&gt; ps ) /\ ( &#45;. ph &#45;&gt; ch ) ) )</text>
</g>
<!-- n14854 -->
<g id="node10" class="node"><title>n14854</title>
</g>
<!-- n14849&#45;&gt;n14854 -->
<g id="edge29" class="edge"><title>n14849&#45;&gt;n14854</title>
</g>
<!-- n14847&#45;&gt;n14849 -->
<g id="edge6" class="edge"><title>n14847&#45;&gt;n14849</title>
<path fill="none" stroke="lightgray" d="M55.5433,-499.434C99.3384,-491.294 191.943,-473.044 268.495,-451 275.356,-449.024 282.618,-446.642 289.501,-444.243"/>
<polygon fill="lightgray" stroke="lightgray" points="290.992,-447.427 299.226,-440.76 288.631,-440.836 290.992,-447.427"/>
<text text-anchor="middle" x="172.495" y="-497.8" font-family="Times New Roman,serif" font-size="14.00" fill="lightgray">wff ps</text>
</g>
<!-- n14848 -->
<g id="node9" class="node"><title>n14848</title>
</g>
<!-- n14847&#45;&gt;n14848 -->
<g id="edge10" class="edge"><title>n14847&#45;&gt;n14848</title>
</g>
<!-- n14848&#45;&gt;n14849 -->
<g id="edge7" class="edge"><title>n14848&#45;&gt;n14849</title>
<path fill="none" stroke="lightgray" d="M56.3855,-432C108.616,-432 225.973,-432 285.615,-432"/>
<polygon fill="lightgray" stroke="lightgray" points="285.707,-435.5 295.707,-432 285.707,-428.5 285.707,-435.5"/>
<text text-anchor="middle" x="172.495" y="-435.8" font-family="Times New Roman,serif" font-size="14.00" fill="lightgray">wff ch</text>
</g>
<!-- n14854&#45;&gt;n14876 -->
<g id="edge11" class="edge"><title>n14854&#45;&gt;n14876</title>
<path fill="none" stroke="lightgray" d="M351.243,-355.544C425.457,-344.979 634.037,-325.568 768.288,-415 789.695,-429.26 803.124,-455.799 810.759,-476.199"/>
<polygon fill="lightgray" stroke="lightgray" points="807.551,-477.631 814.143,-485.925 814.162,-475.33 807.551,-477.631"/>
<text text-anchor="middle" x="572.788" y="-418.8" font-family="Times New Roman,serif" font-size="14.00" fill="lightgray">|&#45; ( ( ph \/ ( ps /\ ch ) ) &lt;&#45;&gt; ( &#45;. ph &#45;&gt; ( ps /\ ch ) ) )</text>
</g>
<!-- n14875 -->
<g id="node12" class="node"><title>n14875</title>
<ellipse fill="cyan" stroke="black" cx="322.892" cy="-264" rx="36.2938" ry="18"/>
<text text-anchor="middle" x="322.892" y="-260.3" font-family="Times New Roman,serif" font-size="14.00">anbi12i</text>
</g>
<!-- n14854&#45;&gt;n14875 -->
<g id="edge30" class="edge"><title>n14854&#45;&gt;n14875</title>
</g>
<!-- n14857 -->
<g id="node11" class="node"><title>n14857</title>
</g>
<!-- n14857&#45;&gt;n14875 -->
<g id="edge12" class="edge"><title>n14857&#45;&gt;n14875</title>
<path fill="none" stroke="lightgray" d="M56.4146,-376.825C102.342,-373.729 199.157,-362.512 268.495,-322 282.474,-313.832 294.935,-300.829 304.296,-289.203"/>
<polygon fill="lightgray" stroke="lightgray" points="307.227,-291.133 310.542,-281.07 301.675,-286.87 307.227,-291.133"/>
<text text-anchor="middle" x="172.495" y="-378.8" font-family="Times New Roman,serif" font-size="14.00" fill="lightgray">wff ( ph \/ ps )</text>
</g>
<!-- n14861 -->
<g id="node13" class="node"><title>n14861</title>
</g>
<!-- n14857&#45;&gt;n14861 -->
<g id="edge19" class="edge"><title>n14857&#45;&gt;n14861</title>
</g>
<!-- n14875&#45;&gt;n14876 -->
<g id="edge18" class="edge"><title>n14875&#45;&gt;n14876</title>
<path fill="none" stroke="black" d="M357.202,-257.729C438.408,-244.496 648.661,-222.907 768.288,-327 811.478,-364.581 819.1,-436.199 819.781,-475.843"/>
<polygon fill="black" stroke="black" points="816.281,-475.902 819.815,-485.89 823.281,-475.878 816.281,-475.902"/>
<text text-anchor="middle" x="572.788" y="-330.8" font-family="Times New Roman,serif" font-size="14.00">|&#45; ( ( ( ph \/ ps ) /\ ( ph \/ ch ) ) &lt;&#45;&gt; ( ( &#45;. ph &#45;&gt; ps ) /\ ( &#45;. ph &#45;&gt; ch ) ) )</text>
</g>
<!-- n14861&#45;&gt;n14875 -->
<g id="edge13" class="edge"><title>n14861&#45;&gt;n14875</title>
<path fill="none" stroke="lightgray" d="M56.163,-304.145C100.117,-300.733 191.968,-292.456 268.495,-278 272.627,-277.22 276.91,-276.295 281.173,-275.3"/>
<polygon fill="lightgray" stroke="lightgray" points="282.125,-278.67 290.999,-272.88 280.452,-271.873 282.125,-278.67"/>
<text text-anchor="middle" x="172.495" y="-306.8" font-family="Times New Roman,serif" font-size="14.00" fill="lightgray">wff ( &#45;. ph &#45;&gt; ps )</text>
</g>
<!-- n14864 -->
<g id="node14" class="node"><title>n14864</title>
</g>
<!-- n14861&#45;&gt;n14864 -->
<g id="edge20" class="edge"><title>n14861&#45;&gt;n14864</title>
</g>
<!-- n14864&#45;&gt;n14875 -->
<g id="edge14" class="edge"><title>n14864&#45;&gt;n14875</title>
<path fill="none" stroke="lightgray" d="M56.1289,-236.662C105.811,-241.773 215.092,-253.014 276.931,-259.375"/>
<polygon fill="lightgray" stroke="lightgray" points="276.861,-262.886 287.167,-260.428 277.578,-255.923 276.861,-262.886"/>
<text text-anchor="middle" x="172.495" y="-262.8" font-family="Times New Roman,serif" font-size="14.00" fill="lightgray">wff ( ph \/ ch )</text>
</g>
<!-- n14868 -->
<g id="node15" class="node"><title>n14868</title>
</g>
<!-- n14864&#45;&gt;n14868 -->
<g id="edge21" class="edge"><title>n14864&#45;&gt;n14868</title>
</g>
<!-- n14868&#45;&gt;n14875 -->
<g id="edge15" class="edge"><title>n14868&#45;&gt;n14875</title>
<path fill="none" stroke="lightgray" d="M56.1948,-164.7C101.374,-170.193 196.534,-185.315 268.495,-221 279.108,-226.263 289.54,-233.934 298.328,-241.344"/>
<polygon fill="lightgray" stroke="lightgray" points="296.073,-244.022 305.893,-248 300.697,-238.767 296.073,-244.022"/>
<text text-anchor="middle" x="172.495" y="-224.8" font-family="Times New Roman,serif" font-size="14.00" fill="lightgray">wff ( &#45;. ph &#45;&gt; ch )</text>
</g>
<!-- n14871 -->
<g id="node16" class="node"><title>n14871</title>
</g>
<!-- n14868&#45;&gt;n14871 -->
<g id="edge22" class="edge"><title>n14868&#45;&gt;n14871</title>
</g>
<!-- n14871&#45;&gt;n14875 -->
<g id="edge16" class="edge"><title>n14871&#45;&gt;n14875</title>
<path fill="none" stroke="lightgray" d="M58.6532,-89.6504C107.144,-90.5336 206.635,-98.9732 268.495,-150 295.019,-171.879 309.109,-209.921 316.03,-235.997"/>
<polygon fill="lightgray" stroke="lightgray" points="312.708,-237.146 318.496,-246.02 319.505,-235.473 312.708,-237.146"/>
<text text-anchor="middle" x="172.495" y="-153.8" font-family="Times New Roman,serif" font-size="14.00" fill="lightgray">|&#45; ( ( ph \/ ps ) &lt;&#45;&gt; ( &#45;. ph &#45;&gt; ps ) )</text>
</g>
<!-- n14874 -->
<g id="node17" class="node"><title>n14874</title>
</g>
<!-- n14871&#45;&gt;n14874 -->
<g id="edge23" class="edge"><title>n14871&#45;&gt;n14874</title>
</g>
<!-- n14874&#45;&gt;n14875 -->
<g id="edge17" class="edge"><title>n14874&#45;&gt;n14875</title>
<path fill="none" stroke="lightgray" d="M58.3455,-15.8156C107.718,-13.6084 210.307,-16.5607 268.495,-72 314.005,-115.361 321.813,-193.882 322.51,-235.816"/>
<polygon fill="lightgray" stroke="lightgray" points="319.011,-235.902 322.551,-245.888 326.011,-235.874 319.011,-235.902"/>
<text text-anchor="middle" x="172.495" y="-75.8" font-family="Times New Roman,serif" font-size="14.00" fill="lightgray">|&#45; ( ( ph \/ ch ) &lt;&#45;&gt; ( &#45;. ph &#45;&gt; ch ) )</text>
</g>
</g>
</svg>
