<?xml version="1.0" encoding="UTF-8" standalone="no"?>
<!DOCTYPE svg PUBLIC "-//W3C//DTD SVG 1.1//EN"
 "http://www.w3.org/Graphics/SVG/1.1/DTD/svg11.dtd">
<!-- Generated by graphviz version 2.38.0 (20140413.2041)
 -->
<!-- Title: proof_orel2 Pages: 1 -->
<svg width="731pt" height="469pt"
 viewBox="0.00 0.00 731.19 469.00" xmlns="http://www.w3.org/2000/svg" xmlns:xlink="http://www.w3.org/1999/xlink">
<g id="graph0" class="graph" transform="scale(1 1) rotate(0) translate(4 465)">
<title>proof_orel2</title>
<polygon fill="white" stroke="none" points="-4,4 -4,-465 727.188,-465 727.188,4 -4,4"/>
<!-- n7272 -->
<g id="node1" class="node"><title>n7272</title>
</g>
<!-- n7283 -->
<g id="node2" class="node"><title>n7283</title>
<ellipse fill="cyan" stroke="black" cx="417.693" cy="-262" rx="27" ry="18"/>
<text text-anchor="middle" x="417.693" y="-258.3" font-family="Times New Roman,serif" font-size="14.00">jaod</text>
</g>
<!-- n7272&#45;&gt;n7283 -->
<g id="edge1" class="edge"><title>n7272&#45;&gt;n7283</title>
<path fill="none" stroke="lightgray" d="M204.291,-441.429C245.327,-437.586 325.396,-424.37 372.693,-379 397.332,-355.365 408.304,-316.593 413.103,-290.214"/>
<polygon fill="lightgray" stroke="lightgray" points="416.599,-290.522 414.754,-280.089 409.69,-289.395 416.599,-290.522"/>
<text text-anchor="middle" x="303.193" y="-440.8" font-family="Times New Roman,serif" font-size="14.00" fill="lightgray">wff &#45;. ph</text>
</g>
<!-- n7273 -->
<g id="node3" class="node"><title>n7273</title>
</g>
<!-- n7272&#45;&gt;n7273 -->
<g id="edge14" class="edge"><title>n7272&#45;&gt;n7273</title>
</g>
<!-- QED -->
<g id="node12" class="node"><title>QED</title>
</g>
<!-- n7283&#45;&gt;QED -->
<g id="edge13" class="edge"><title>n7283&#45;&gt;QED</title>
<path fill="none" stroke="black" d="M444.989,-262C493.605,-262 597.736,-262 654.357,-262"/>
<polygon fill="black" stroke="black" points="654.684,-265.5 664.684,-262 654.684,-258.5 654.684,-265.5"/>
<text text-anchor="middle" x="554.693" y="-265.8" font-family="Times New Roman,serif" font-size="14.00">|&#45; ( &#45;. ph &#45;&gt; ( ( ps \/ ph ) &#45;&gt; ps ) )</text>
</g>
<!-- n7273&#45;&gt;n7283 -->
<g id="edge2" class="edge"><title>n7273&#45;&gt;n7283</title>
<path fill="none" stroke="lightgray" d="M204.017,-367.085C242.963,-360.244 318.204,-343.434 372.693,-309 382.189,-302.999 391.011,-294.466 398.223,-286.314"/>
<polygon fill="lightgray" stroke="lightgray" points="401.12,-288.308 404.866,-278.397 395.757,-283.809 401.12,-288.308"/>
<text text-anchor="middle" x="303.193" y="-363.8" font-family="Times New Roman,serif" font-size="14.00" fill="lightgray">wff ps</text>
</g>
<!-- n7274 -->
<g id="node4" class="node"><title>n7274</title>
</g>
<!-- n7273&#45;&gt;n7274 -->
<g id="edge15" class="edge"><title>n7273&#45;&gt;n7274</title>
</g>
<!-- n7274&#45;&gt;n7283 -->
<g id="edge3" class="edge"><title>n7274&#45;&gt;n7283</title>
<path fill="none" stroke="lightgray" d="M203.854,-295.04C246.481,-288.423 332.3,-275.101 380.935,-267.551"/>
<polygon fill="lightgray" stroke="lightgray" points="381.664,-270.98 391.009,-265.987 380.591,-264.063 381.664,-270.98"/>
<text text-anchor="middle" x="303.193" y="-293.8" font-family="Times New Roman,serif" font-size="14.00" fill="lightgray">wff ps</text>
</g>
<!-- n7275 -->
<g id="node5" class="node"><title>n7275</title>
</g>
<!-- n7274&#45;&gt;n7275 -->
<g id="edge16" class="edge"><title>n7274&#45;&gt;n7275</title>
</g>
<!-- n7275&#45;&gt;n7283 -->
<g id="edge4" class="edge"><title>n7275&#45;&gt;n7283</title>
<path fill="none" stroke="lightgray" d="M204.21,-229.886C241.532,-234.182 312.611,-242.849 372.693,-253 375.576,-253.487 378.559,-254.025 381.55,-254.587"/>
<polygon fill="lightgray" stroke="lightgray" points="381.133,-258.072 391.619,-256.561 382.479,-251.203 381.133,-258.072"/>
<text text-anchor="middle" x="303.193" y="-256.8" font-family="Times New Roman,serif" font-size="14.00" fill="lightgray">wff ph</text>
</g>
<!-- n7279 -->
<g id="node7" class="node"><title>n7279</title>
<ellipse fill="cyan" stroke="black" cx="177.347" cy="-155" rx="27" ry="18"/>
<text text-anchor="middle" x="177.347" y="-151.3" font-family="Times New Roman,serif" font-size="14.00">idd</text>
</g>
<!-- n7275&#45;&gt;n7279 -->
<g id="edge17" class="edge"><title>n7275&#45;&gt;n7279</title>
</g>
<!-- n7277 -->
<g id="node6" class="node"><title>n7277</title>
</g>
<!-- n7277&#45;&gt;n7279 -->
<g id="edge5" class="edge"><title>n7277&#45;&gt;n7279</title>
<path fill="none" stroke="lightgray" d="M50.209,-208.568C75.2258,-197.944 116.091,-180.589 144.502,-168.524"/>
<polygon fill="lightgray" stroke="lightgray" points="146.15,-171.627 153.986,-164.496 143.413,-165.184 146.15,-171.627"/>
<text text-anchor="middle" x="96.5" y="-201.8" font-family="Times New Roman,serif" font-size="14.00" fill="lightgray">wff &#45;. ph</text>
</g>
<!-- n7278 -->
<g id="node8" class="node"><title>n7278</title>
</g>
<!-- n7277&#45;&gt;n7278 -->
<g id="edge8" class="edge"><title>n7277&#45;&gt;n7278</title>
</g>
<!-- n7279&#45;&gt;n7283 -->
<g id="edge7" class="edge"><title>n7279&#45;&gt;n7283</title>
<path fill="none" stroke="black" d="M204.061,-158.37C243.065,-164.415 318.381,-179.813 372.693,-214 382.553,-220.207 391.606,-229.195 398.903,-237.72"/>
<polygon fill="black" stroke="black" points="396.313,-240.083 405.33,-245.646 401.75,-235.674 396.313,-240.083"/>
<text text-anchor="middle" x="303.193" y="-217.8" font-family="Times New Roman,serif" font-size="14.00">|&#45; ( &#45;. ph &#45;&gt; ( ps &#45;&gt; ps ) )</text>
</g>
<!-- n7282 -->
<g id="node10" class="node"><title>n7282</title>
<ellipse fill="cyan" stroke="black" cx="177.347" cy="-83" rx="38.1938" ry="18"/>
<text text-anchor="middle" x="177.347" y="-79.3" font-family="Times New Roman,serif" font-size="14.00">pm2.21</text>
</g>
<!-- n7279&#45;&gt;n7282 -->
<g id="edge18" class="edge"><title>n7279&#45;&gt;n7282</title>
</g>
<!-- n7278&#45;&gt;n7279 -->
<g id="edge6" class="edge"><title>n7278&#45;&gt;n7279</title>
<path fill="none" stroke="lightgray" d="M54.1799,-147.588C78.1184,-149.041 113.745,-151.202 140.356,-152.816"/>
<polygon fill="lightgray" stroke="lightgray" points="140.235,-156.315 150.428,-153.428 140.659,-149.328 140.235,-156.315"/>
<text text-anchor="middle" x="96.5" y="-155.8" font-family="Times New Roman,serif" font-size="14.00" fill="lightgray">wff ps</text>
</g>
<!-- n7280 -->
<g id="node9" class="node"><title>n7280</title>
</g>
<!-- n7280&#45;&gt;n7282 -->
<g id="edge9" class="edge"><title>n7280&#45;&gt;n7282</title>
<path fill="none" stroke="lightgray" d="M54.1799,-88.7647C74.777,-87.7927 104.027,-86.4125 128.742,-85.2463"/>
<polygon fill="lightgray" stroke="lightgray" points="129.194,-88.729 139.018,-84.7614 128.864,-81.7367 129.194,-88.729"/>
<text text-anchor="middle" x="96.5" y="-91.8" font-family="Times New Roman,serif" font-size="14.00" fill="lightgray">wff ph</text>
</g>
<!-- n7281 -->
<g id="node11" class="node"><title>n7281</title>
</g>
<!-- n7280&#45;&gt;n7281 -->
<g id="edge12" class="edge"><title>n7280&#45;&gt;n7281</title>
</g>
<!-- n7282&#45;&gt;n7283 -->
<g id="edge11" class="edge"><title>n7282&#45;&gt;n7283</title>
<path fill="none" stroke="black" d="M215.386,-85.5616C258.488,-90.4503 329.28,-104.666 372.693,-146 397.235,-169.366 408.23,-207.823 413.06,-233.997"/>
<polygon fill="black" stroke="black" points="409.637,-234.752 414.724,-244.045 416.543,-233.608 409.637,-234.752"/>
<text text-anchor="middle" x="303.193" y="-149.8" font-family="Times New Roman,serif" font-size="14.00">|&#45; ( &#45;. ph &#45;&gt; ( ph &#45;&gt; ps ) )</text>
</g>
<!-- n7281&#45;&gt;n7282 -->
<g id="edge10" class="edge"><title>n7281&#45;&gt;n7282</title>
<path fill="none" stroke="lightgray" d="M49.8891,-27.591C73.3922,-37.8892 111.146,-54.4313 139.292,-66.7639"/>
<polygon fill="lightgray" stroke="lightgray" points="138.244,-70.1259 148.808,-70.9335 141.053,-63.7143 138.244,-70.1259"/>
<text text-anchor="middle" x="96.5" y="-62.8" font-family="Times New Roman,serif" font-size="14.00" fill="lightgray">wff ps</text>
</g>
</g>
</svg>
