<?xml version="1.0" encoding="UTF-8" standalone="no"?>
<!DOCTYPE svg PUBLIC "-//W3C//DTD SVG 1.1//EN"
 "http://www.w3.org/Graphics/SVG/1.1/DTD/svg11.dtd">
<!-- Generated by graphviz version 2.38.0 (20140413.2041)
 -->
<!-- Title: proof_orrd Pages: 1 -->
<svg width="699pt" height="367pt"
 viewBox="0.00 0.00 699.19 367.00" xmlns="http://www.w3.org/2000/svg" xmlns:xlink="http://www.w3.org/1999/xlink">
<g id="graph0" class="graph" transform="scale(1 1) rotate(0) translate(4 363)">
<title>proof_orrd</title>
<polygon fill="white" stroke="none" points="-4,4 -4,-363 695.188,-363 695.188,4 -4,4"/>
<!-- n7193 -->
<g id="node1" class="node"><title>n7193</title>
</g>
<!-- n7205 -->
<g id="node2" class="node"><title>n7205</title>
<ellipse fill="cyan" stroke="black" cx="448.693" cy="-197" rx="27" ry="18"/>
<text text-anchor="middle" x="448.693" y="-193.3" font-family="Times New Roman,serif" font-size="14.00">syl</text>
</g>
<!-- n7193&#45;&gt;n7205 -->
<g id="edge1" class="edge"><title>n7193&#45;&gt;n7205</title>
<path fill="none" stroke="lightgray" d="M192.47,-340.596C239.593,-338.574 339.849,-328.199 403.693,-278 420.94,-264.439 432.333,-242.173 439.196,-224.415"/>
<polygon fill="lightgray" stroke="lightgray" points="442.642,-225.174 442.723,-214.579 436.053,-222.811 442.642,-225.174"/>
<text text-anchor="middle" x="312.693" y="-341.8" font-family="Times New Roman,serif" font-size="14.00" fill="lightgray">wff ph</text>
</g>
<!-- n7197 -->
<g id="node3" class="node"><title>n7197</title>
</g>
<!-- n7193&#45;&gt;n7197 -->
<g id="edge10" class="edge"><title>n7193&#45;&gt;n7197</title>
</g>
<!-- QED -->
<g id="node9" class="node"><title>QED</title>
</g>
<!-- n7205&#45;&gt;QED -->
<g id="edge9" class="edge"><title>n7205&#45;&gt;QED</title>
<path fill="none" stroke="black" d="M476.021,-197C512.829,-197 579.914,-197 622.365,-197"/>
<polygon fill="black" stroke="black" points="622.594,-200.5 632.594,-197 622.594,-193.5 622.594,-200.5"/>
<text text-anchor="middle" x="554.193" y="-200.8" font-family="Times New Roman,serif" font-size="14.00">|&#45; ( ph &#45;&gt; ( ps \/ ch ) )</text>
</g>
<!-- n7197&#45;&gt;n7205 -->
<g id="edge2" class="edge"><title>n7197&#45;&gt;n7205</title>
<path fill="none" stroke="lightgray" d="M191.708,-264.952C235.58,-257.594 328.191,-240.491 403.693,-216 407.994,-214.605 412.452,-212.946 416.806,-211.198"/>
<polygon fill="lightgray" stroke="lightgray" points="418.213,-214.403 426.072,-207.297 415.497,-207.952 418.213,-214.403"/>
<text text-anchor="middle" x="312.693" y="-262.8" font-family="Times New Roman,serif" font-size="14.00" fill="lightgray">wff ( &#45;. ps &#45;&gt; ch )</text>
</g>
<!-- n7200 -->
<g id="node4" class="node"><title>n7200</title>
</g>
<!-- n7197&#45;&gt;n7200 -->
<g id="edge11" class="edge"><title>n7197&#45;&gt;n7200</title>
</g>
<!-- n7200&#45;&gt;n7205 -->
<g id="edge3" class="edge"><title>n7200&#45;&gt;n7205</title>
<path fill="none" stroke="lightgray" d="M192.562,-197C243.032,-197 353.78,-197 411.339,-197"/>
<polygon fill="lightgray" stroke="lightgray" points="411.442,-200.5 421.441,-197 411.441,-193.5 411.442,-200.5"/>
<text text-anchor="middle" x="312.693" y="-200.8" font-family="Times New Roman,serif" font-size="14.00" fill="lightgray">wff ( ps \/ ch )</text>
</g>
<!-- n7201 -->
<g id="node5" class="node"><title>n7201</title>
<ellipse fill="orange" stroke="black" cx="165.347" cy="-125" rx="33.2948" ry="18"/>
<text text-anchor="middle" x="165.347" y="-121.3" font-family="Times New Roman,serif" font-size="14.00">orrd.1</text>
</g>
<!-- n7200&#45;&gt;n7201 -->
<g id="edge12" class="edge"><title>n7200&#45;&gt;n7201</title>
</g>
<!-- n7201&#45;&gt;n7205 -->
<g id="edge4" class="edge"><title>n7201&#45;&gt;n7205</title>
<path fill="none" stroke="black" d="M197.568,-130.04C243.431,-137.875 331.404,-154.551 403.693,-178 407.994,-179.395 412.452,-181.054 416.806,-182.802"/>
<polygon fill="black" stroke="black" points="415.497,-186.048 426.072,-186.703 418.213,-179.597 415.497,-186.048"/>
<text text-anchor="middle" x="312.693" y="-181.8" font-family="Times New Roman,serif" font-size="14.00">|&#45; ( ph &#45;&gt; ( &#45;. ps &#45;&gt; ch ) )</text>
</g>
<!-- n7204 -->
<g id="node7" class="node"><title>n7204</title>
<ellipse fill="cyan" stroke="black" cx="165.347" cy="-53" rx="38.1938" ry="18"/>
<text text-anchor="middle" x="165.347" y="-49.3" font-family="Times New Roman,serif" font-size="14.00">pm2.54</text>
</g>
<!-- n7201&#45;&gt;n7204 -->
<g id="edge13" class="edge"><title>n7201&#45;&gt;n7204</title>
</g>
<!-- n7202 -->
<g id="node6" class="node"><title>n7202</title>
</g>
<!-- n7202&#45;&gt;n7204 -->
<g id="edge5" class="edge"><title>n7202&#45;&gt;n7204</title>
<path fill="none" stroke="lightgray" d="M52.376,-83.3851C71.6593,-78.1523 99.0498,-70.7194 121.913,-64.5151"/>
<polygon fill="lightgray" stroke="lightgray" points="122.99,-67.8494 131.725,-61.8525 121.157,-61.0937 122.99,-67.8494"/>
<text text-anchor="middle" x="90.5" y="-82.8" font-family="Times New Roman,serif" font-size="14.00" fill="lightgray">wff ps</text>
</g>
<!-- n7203 -->
<g id="node8" class="node"><title>n7203</title>
</g>
<!-- n7202&#45;&gt;n7203 -->
<g id="edge8" class="edge"><title>n7202&#45;&gt;n7203</title>
</g>
<!-- n7204&#45;&gt;n7205 -->
<g id="edge7" class="edge"><title>n7204&#45;&gt;n7205</title>
<path fill="none" stroke="black" d="M203.685,-53.9973C254.133,-57.1663 344.541,-69.4902 403.693,-116 420.94,-129.561 432.333,-151.827 439.196,-169.585"/>
<polygon fill="black" stroke="black" points="436.053,-171.189 442.723,-179.421 442.642,-168.826 436.053,-171.189"/>
<text text-anchor="middle" x="312.693" y="-119.8" font-family="Times New Roman,serif" font-size="14.00">|&#45; ( ( &#45;. ps &#45;&gt; ch ) &#45;&gt; ( ps \/ ch ) )</text>
</g>
<!-- n7203&#45;&gt;n7204 -->
<g id="edge6" class="edge"><title>n7203&#45;&gt;n7204</title>
<path fill="none" stroke="lightgray" d="M52.376,-24.2573C71.5925,-29.1901 98.8603,-36.1897 121.676,-42.0464"/>
<polygon fill="lightgray" stroke="lightgray" points="120.915,-45.4646 131.471,-44.5609 122.656,-38.6844 120.915,-45.4646"/>
<text text-anchor="middle" x="90.5" y="-42.8" font-family="Times New Roman,serif" font-size="14.00" fill="lightgray">wff ch</text>
</g>
</g>
</svg>
