<?xml version="1.0" encoding="UTF-8" standalone="no"?>
<!DOCTYPE svg PUBLIC "-//W3C//DTD SVG 1.1//EN"
 "http://www.w3.org/Graphics/SVG/1.1/DTD/svg11.dtd">
<!-- Generated by graphviz version 2.38.0 (20140413.2041)
 -->
<!-- Title: proof_orri Pages: 1 -->
<svg width="527pt" height="260pt"
 viewBox="0.00 0.00 526.58 260.00" xmlns="http://www.w3.org/2000/svg" xmlns:xlink="http://www.w3.org/1999/xlink">
<g id="graph0" class="graph" transform="scale(1 1) rotate(0) translate(4 256)">
<title>proof_orri</title>
<polygon fill="white" stroke="none" points="-4,4 -4,-256 522.584,-256 522.584,4 -4,4"/>
<!-- n7170 -->
<g id="node1" class="node"><title>n7170</title>
</g>
<!-- n7179 -->
<g id="node2" class="node"><title>n7179</title>
<ellipse fill="cyan" stroke="black" cx="321.592" cy="-125" rx="32.4942" ry="18"/>
<text text-anchor="middle" x="321.592" y="-121.3" font-family="Times New Roman,serif" font-size="14.00">mpbir</text>
</g>
<!-- n7170&#45;&gt;n7179 -->
<g id="edge1" class="edge"><title>n7170&#45;&gt;n7179</title>
<path fill="none" stroke="lightgray" d="M57.7143,-232.199C103.671,-228.064 200.683,-214.939 271.095,-175 282.434,-168.568 292.923,-158.807 301.298,-149.613"/>
<polygon fill="lightgray" stroke="lightgray" points="304.184,-151.627 308.083,-141.775 298.891,-147.045 304.184,-151.627"/>
<text text-anchor="middle" x="175.095" y="-232.8" font-family="Times New Roman,serif" font-size="14.00" fill="lightgray">wff ( ph \/ ps )</text>
</g>
<!-- n7174 -->
<g id="node3" class="node"><title>n7174</title>
</g>
<!-- n7170&#45;&gt;n7174 -->
<g id="edge6" class="edge"><title>n7170&#45;&gt;n7174</title>
</g>
<!-- QED -->
<g id="node6" class="node"><title>QED</title>
</g>
<!-- n7179&#45;&gt;QED -->
<g id="edge5" class="edge"><title>n7179&#45;&gt;QED</title>
<path fill="none" stroke="black" d="M354.157,-125C381.344,-125 420.676,-125 449.732,-125"/>
<polygon fill="black" stroke="black" points="449.93,-128.5 459.93,-125 449.93,-121.5 449.93,-128.5"/>
<text text-anchor="middle" x="407.089" y="-128.8" font-family="Times New Roman,serif" font-size="14.00">|&#45; ( ph \/ ps )</text>
</g>
<!-- n7174&#45;&gt;n7179 -->
<g id="edge2" class="edge"><title>n7174&#45;&gt;n7179</title>
<path fill="none" stroke="lightgray" d="M57.1981,-158.716C107.482,-152.28 219.367,-137.958 279.869,-130.213"/>
<polygon fill="lightgray" stroke="lightgray" points="280.358,-133.679 289.832,-128.937 279.469,-126.736 280.358,-133.679"/>
<text text-anchor="middle" x="175.095" y="-159.8" font-family="Times New Roman,serif" font-size="14.00" fill="lightgray">wff ( &#45;. ph &#45;&gt; ps )</text>
</g>
<!-- n7175 -->
<g id="node4" class="node"><title>n7175</title>
<ellipse fill="orange" stroke="black" cx="30.5473" cy="-90" rx="30.5947" ry="18"/>
<text text-anchor="middle" x="30.5473" y="-86.3" font-family="Times New Roman,serif" font-size="14.00">orri.1</text>
</g>
<!-- n7174&#45;&gt;n7175 -->
<g id="edge7" class="edge"><title>n7174&#45;&gt;n7175</title>
</g>
<!-- n7175&#45;&gt;n7179 -->
<g id="edge3" class="edge"><title>n7175&#45;&gt;n7179</title>
<path fill="none" stroke="black" d="M61.1359,-92.523C106.46,-96.5429 195.748,-105.075 271.095,-116 274.293,-116.464 277.6,-116.981 280.919,-117.528"/>
<polygon fill="black" stroke="black" points="280.362,-120.983 290.81,-119.228 281.547,-114.084 280.362,-120.983"/>
<text text-anchor="middle" x="175.095" y="-119.8" font-family="Times New Roman,serif" font-size="14.00">|&#45; ( &#45;. ph &#45;&gt; ps )</text>
</g>
<!-- n7178 -->
<g id="node5" class="node"><title>n7178</title>
</g>
<!-- n7175&#45;&gt;n7178 -->
<g id="edge8" class="edge"><title>n7175&#45;&gt;n7178</title>
</g>
<!-- n7178&#45;&gt;n7179 -->
<g id="edge4" class="edge"><title>n7178&#45;&gt;n7179</title>
<path fill="none" stroke="lightgray" d="M59.8945,-19.9394C106.631,-24.174 201.593,-37.2194 271.095,-76 282.365,-82.2887 292.842,-91.8512 301.227,-100.864"/>
<polygon fill="lightgray" stroke="lightgray" points="298.778,-103.378 308.025,-108.548 304.02,-98.7392 298.778,-103.378"/>
<text text-anchor="middle" x="175.095" y="-79.8" font-family="Times New Roman,serif" font-size="14.00" fill="lightgray">|&#45; ( ( ph \/ ps ) &lt;&#45;&gt; ( &#45;. ph &#45;&gt; ps ) )</text>
</g>
</g>
</svg>
