<?xml version="1.0" encoding="UTF-8" standalone="no"?>
<!DOCTYPE svg PUBLIC "-//W3C//DTD SVG 1.1//EN"
 "http://www.w3.org/Graphics/SVG/1.1/DTD/svg11.dtd">
<!-- Generated by graphviz version 2.38.0 (20140413.2041)
 -->
<!-- Title: proof_pm2_65 Pages: 1 -->
<svg width="882pt" height="469pt"
 viewBox="0.00 0.00 881.69 469.00" xmlns="http://www.w3.org/2000/svg" xmlns:xlink="http://www.w3.org/1999/xlink">
<g id="graph0" class="graph" transform="scale(1 1) rotate(0) translate(4 465)">
<title>proof_pm2_65</title>
<polygon fill="white" stroke="none" points="-4,4 -4,-465 877.69,-465 877.69,4 -4,4"/>
<!-- n1980 -->
<g id="node1" class="node"><title>n1980</title>
</g>
<!-- n1995 -->
<g id="node2" class="node"><title>n1995</title>
<ellipse fill="cyan" stroke="black" cx="500.195" cy="-262" rx="27" ry="18"/>
<text text-anchor="middle" x="500.195" y="-258.3" font-family="Times New Roman,serif" font-size="14.00">jad</text>
</g>
<!-- n1980&#45;&gt;n1995 -->
<g id="edge1" class="edge"><title>n1980&#45;&gt;n1995</title>
<path fill="none" stroke="lightgray" d="M233.659,-444.77C283.198,-446.665 391.664,-443.557 455.195,-387 482.927,-362.312 493.18,-319.075 496.971,-290.487"/>
<polygon fill="lightgray" stroke="lightgray" points="500.475,-290.649 498.131,-280.317 493.52,-289.856 500.475,-290.649"/>
<text text-anchor="middle" x="354.195" y="-448.8" font-family="Times New Roman,serif" font-size="14.00" fill="lightgray">wff ( ph &#45;&gt; ps )</text>
</g>
<!-- n1981 -->
<g id="node3" class="node"><title>n1981</title>
</g>
<!-- n1980&#45;&gt;n1981 -->
<g id="edge14" class="edge"><title>n1980&#45;&gt;n1981</title>
</g>
<!-- QED -->
<g id="node12" class="node"><title>QED</title>
</g>
<!-- n1995&#45;&gt;QED -->
<g id="edge13" class="edge"><title>n1995&#45;&gt;QED</title>
<path fill="none" stroke="black" d="M527.2,-262C586.996,-262 734.515,-262 804.888,-262"/>
<polygon fill="black" stroke="black" points="805.094,-265.5 815.094,-262 805.094,-258.5 805.094,-265.5"/>
<text text-anchor="middle" x="671.195" y="-265.8" font-family="Times New Roman,serif" font-size="14.00">|&#45; ( ( ph &#45;&gt; ps ) &#45;&gt; ( ( ph &#45;&gt; &#45;. ps ) &#45;&gt; &#45;. ph ) )</text>
</g>
<!-- n1981&#45;&gt;n1995 -->
<g id="edge2" class="edge"><title>n1981&#45;&gt;n1995</title>
<path fill="none" stroke="lightgray" d="M233.762,-369.911C281.176,-366.875 383.059,-355.391 455.195,-312 465.816,-305.611 475.256,-295.807 482.643,-286.567"/>
<polygon fill="lightgray" stroke="lightgray" points="485.607,-288.449 488.824,-278.355 480.014,-284.24 485.607,-288.449"/>
<text text-anchor="middle" x="354.195" y="-371.8" font-family="Times New Roman,serif" font-size="14.00" fill="lightgray">wff ph</text>
</g>
<!-- n1983 -->
<g id="node4" class="node"><title>n1983</title>
</g>
<!-- n1981&#45;&gt;n1983 -->
<g id="edge15" class="edge"><title>n1981&#45;&gt;n1983</title>
</g>
<!-- n1983&#45;&gt;n1995 -->
<g id="edge3" class="edge"><title>n1983&#45;&gt;n1995</title>
<path fill="none" stroke="lightgray" d="M233.273,-295.88C278.253,-290.392 374.224,-278.589 455.195,-268 457.897,-267.647 460.691,-267.277 463.501,-266.901"/>
<polygon fill="lightgray" stroke="lightgray" points="464.166,-270.343 473.608,-265.537 463.23,-263.406 464.166,-270.343"/>
<text text-anchor="middle" x="354.195" y="-296.8" font-family="Times New Roman,serif" font-size="14.00" fill="lightgray">wff &#45;. ps</text>
</g>
<!-- n1985 -->
<g id="node5" class="node"><title>n1985</title>
</g>
<!-- n1983&#45;&gt;n1985 -->
<g id="edge16" class="edge"><title>n1983&#45;&gt;n1985</title>
</g>
<!-- n1985&#45;&gt;n1995 -->
<g id="edge4" class="edge"><title>n1985&#45;&gt;n1995</title>
<path fill="none" stroke="lightgray" d="M233.727,-228.904C279.002,-232.391 374.889,-240.6 455.195,-253 458.085,-253.446 461.072,-253.955 464.066,-254.498"/>
<polygon fill="lightgray" stroke="lightgray" points="463.66,-257.984 474.141,-256.437 464.983,-251.11 463.66,-257.984"/>
<text text-anchor="middle" x="354.195" y="-256.8" font-family="Times New Roman,serif" font-size="14.00" fill="lightgray">wff &#45;. ph</text>
</g>
<!-- n1991 -->
<g id="node7" class="node"><title>n1991</title>
<ellipse fill="cyan" stroke="black" cx="206.597" cy="-155" rx="27" ry="18"/>
<text text-anchor="middle" x="206.597" y="-151.3" font-family="Times New Roman,serif" font-size="14.00">idd</text>
</g>
<!-- n1985&#45;&gt;n1991 -->
<g id="edge17" class="edge"><title>n1985&#45;&gt;n1991</title>
</g>
<!-- n1988 -->
<g id="node6" class="node"><title>n1988</title>
</g>
<!-- n1988&#45;&gt;n1991 -->
<g id="edge5" class="edge"><title>n1988&#45;&gt;n1991</title>
<path fill="none" stroke="lightgray" d="M51.4212,-210.008C77.8517,-200.951 122.103,-185.666 160,-172 164.227,-170.476 168.666,-168.851 173.046,-167.233"/>
<polygon fill="lightgray" stroke="lightgray" points="174.281,-170.508 182.436,-163.745 171.843,-163.946 174.281,-170.508"/>
<text text-anchor="middle" x="116" y="-206.8" font-family="Times New Roman,serif" font-size="14.00" fill="lightgray">wff ( ph &#45;&gt; ps )</text>
</g>
<!-- n1990 -->
<g id="node8" class="node"><title>n1990</title>
</g>
<!-- n1988&#45;&gt;n1990 -->
<g id="edge8" class="edge"><title>n1988&#45;&gt;n1990</title>
</g>
<!-- n1991&#45;&gt;n1995 -->
<g id="edge7" class="edge"><title>n1991&#45;&gt;n1995</title>
<path fill="none" stroke="black" d="M233.793,-155.635C281.255,-157.877 383.215,-167.785 455.195,-211 466.051,-217.518 475.595,-227.646 482.995,-237.164"/>
<polygon fill="black" stroke="black" points="480.195,-239.264 488.925,-245.266 485.843,-235.13 480.195,-239.264"/>
<text text-anchor="middle" x="354.195" y="-214.8" font-family="Times New Roman,serif" font-size="14.00">|&#45; ( ( ph &#45;&gt; ps ) &#45;&gt; ( &#45;. ph &#45;&gt; &#45;. ph ) )</text>
</g>
<!-- n1994 -->
<g id="node10" class="node"><title>n1994</title>
<ellipse fill="cyan" stroke="black" cx="206.597" cy="-83" rx="28.6953" ry="18"/>
<text text-anchor="middle" x="206.597" y="-79.3" font-family="Times New Roman,serif" font-size="14.00">con3</text>
</g>
<!-- n1991&#45;&gt;n1994 -->
<g id="edge18" class="edge"><title>n1991&#45;&gt;n1994</title>
</g>
<!-- n1990&#45;&gt;n1991 -->
<g id="edge6" class="edge"><title>n1990&#45;&gt;n1991</title>
<path fill="none" stroke="lightgray" d="M54.2051,-147.328C84.7224,-148.874 135.307,-151.438 169.522,-153.172"/>
<polygon fill="lightgray" stroke="lightgray" points="169.41,-156.671 179.574,-153.681 169.764,-149.68 169.41,-156.671"/>
<text text-anchor="middle" x="116" y="-156.8" font-family="Times New Roman,serif" font-size="14.00" fill="lightgray">wff &#45;. ph</text>
</g>
<!-- n1992 -->
<g id="node9" class="node"><title>n1992</title>
</g>
<!-- n1992&#45;&gt;n1994 -->
<g id="edge9" class="edge"><title>n1992&#45;&gt;n1994</title>
<path fill="none" stroke="lightgray" d="M54.2051,-88.9671C84.1977,-87.785 133.574,-85.8388 167.743,-84.492"/>
<polygon fill="lightgray" stroke="lightgray" points="167.966,-87.9861 177.82,-84.0948 167.69,-80.9915 167.966,-87.9861"/>
<text text-anchor="middle" x="116" y="-92.8" font-family="Times New Roman,serif" font-size="14.00" fill="lightgray">wff ph</text>
</g>
<!-- n1993 -->
<g id="node11" class="node"><title>n1993</title>
</g>
<!-- n1992&#45;&gt;n1993 -->
<g id="edge12" class="edge"><title>n1992&#45;&gt;n1993</title>
</g>
<!-- n1994&#45;&gt;n1995 -->
<g id="edge11" class="edge"><title>n1994&#45;&gt;n1995</title>
<path fill="none" stroke="black" d="M235.191,-81.2033C285.369,-79.486 392.18,-83.1895 455.195,-139 482.594,-163.267 492.934,-205.819 496.835,-233.958"/>
<polygon fill="black" stroke="black" points="493.369,-234.458 498.037,-243.969 500.32,-233.623 493.369,-234.458"/>
<text text-anchor="middle" x="354.195" y="-142.8" font-family="Times New Roman,serif" font-size="14.00">|&#45; ( ( ph &#45;&gt; ps ) &#45;&gt; ( &#45;. ps &#45;&gt; &#45;. ph ) )</text>
</g>
<!-- n1993&#45;&gt;n1994 -->
<g id="edge10" class="edge"><title>n1993&#45;&gt;n1994</title>
<path fill="none" stroke="lightgray" d="M51.3883,-26.4402C77.7893,-35.9827 122.015,-52.0128 160,-66 163.815,-67.4049 167.808,-68.8824 171.776,-70.3555"/>
<polygon fill="lightgray" stroke="lightgray" points="170.881,-73.757 181.474,-73.9645 173.322,-67.1965 170.881,-73.757"/>
<text text-anchor="middle" x="116" y="-69.8" font-family="Times New Roman,serif" font-size="14.00" fill="lightgray">wff ps</text>
</g>
</g>
</svg>
