<?xml version="1.0" encoding="UTF-8" standalone="no"?>
<!DOCTYPE svg PUBLIC "-//W3C//DTD SVG 1.1//EN"
 "http://www.w3.org/Graphics/SVG/1.1/DTD/svg11.dtd">
<!-- Generated by graphviz version 2.38.0 (20140413.2041)
 -->
<!-- Title: proof_pm2_61ddan Pages: 1 -->
<svg width="1218pt" height="818pt"
 viewBox="0.00 0.00 1217.76 818.00" xmlns="http://www.w3.org/2000/svg" xmlns:xlink="http://www.w3.org/1999/xlink">
<g id="graph0" class="graph" transform="scale(1 1) rotate(0) translate(4 814)">
<title>proof_pm2_61ddan</title>
<polygon fill="white" stroke="none" points="-4,4 -4,-814 1213.76,-814 1213.76,4 -4,4"/>
<!-- n13470 -->
<g id="node1" class="node"><title>n13470</title>
</g>
<!-- n13496 -->
<g id="node2" class="node"><title>n13496</title>
<ellipse fill="cyan" stroke="black" cx="990.916" cy="-648" rx="51.1914" ry="18"/>
<text text-anchor="middle" x="990.916" y="-644.3" font-family="Times New Roman,serif" font-size="14.00">pm2.61dan</text>
</g>
<!-- n13470&#45;&gt;n13496 -->
<g id="edge1" class="edge"><title>n13470&#45;&gt;n13496</title>
<path fill="none" stroke="lightgray" d="M736.82,-787.226C778.067,-778.596 861.259,-757.613 921.571,-719 940.537,-706.857 958.068,-688.432 970.625,-673.394"/>
<polygon fill="lightgray" stroke="lightgray" points="973.488,-675.421 977.068,-665.45 968.051,-671.012 973.488,-675.421"/>
<text text-anchor="middle" x="856.571" y="-775.8" font-family="Times New Roman,serif" font-size="14.00" fill="lightgray">wff ph</text>
</g>
<!-- n13471 -->
<g id="node3" class="node"><title>n13471</title>
</g>
<!-- n13470&#45;&gt;n13471 -->
<g id="edge34" class="edge"><title>n13470&#45;&gt;n13471</title>
</g>
<!-- QED -->
<g id="node22" class="node"><title>QED</title>
</g>
<!-- n13496&#45;&gt;QED -->
<g id="edge33" class="edge"><title>n13496&#45;&gt;QED</title>
<path fill="none" stroke="black" d="M1042.68,-648C1073.57,-648 1112.4,-648 1140.8,-648"/>
<polygon fill="black" stroke="black" points="1141.13,-651.5 1151.13,-648 1141.13,-644.5 1141.13,-651.5"/>
<text text-anchor="middle" x="1096.76" y="-651.8" font-family="Times New Roman,serif" font-size="14.00">|&#45; ( ph &#45;&gt; th )</text>
</g>
<!-- n13471&#45;&gt;n13496 -->
<g id="edge2" class="edge"><title>n13471&#45;&gt;n13496</title>
<path fill="none" stroke="lightgray" d="M736.152,-713.989C775.436,-704.355 854.681,-684.734 921.571,-667 927.664,-665.384 934.054,-663.655 940.377,-661.923"/>
<polygon fill="lightgray" stroke="lightgray" points="941.496,-665.245 950.206,-659.213 939.636,-658.496 941.496,-665.245"/>
<text text-anchor="middle" x="856.571" y="-703.8" font-family="Times New Roman,serif" font-size="14.00" fill="lightgray">wff ps</text>
</g>
<!-- n13472 -->
<g id="node4" class="node"><title>n13472</title>
</g>
<!-- n13471&#45;&gt;n13472 -->
<g id="edge35" class="edge"><title>n13471&#45;&gt;n13472</title>
</g>
<!-- n13472&#45;&gt;n13496 -->
<g id="edge3" class="edge"><title>n13472&#45;&gt;n13496</title>
<path fill="none" stroke="lightgray" d="M737.717,-648C781.284,-648 869.748,-648 929.44,-648"/>
<polygon fill="lightgray" stroke="lightgray" points="929.496,-651.5 939.496,-648 929.496,-644.5 929.496,-651.5"/>
<text text-anchor="middle" x="856.571" y="-651.8" font-family="Times New Roman,serif" font-size="14.00" fill="lightgray">wff th</text>
</g>
<!-- n13473 -->
<g id="node5" class="node"><title>n13473</title>
<ellipse fill="orange" stroke="black" cx="710.527" cy="-576" rx="63.0888" ry="18"/>
<text text-anchor="middle" x="710.527" y="-572.3" font-family="Times New Roman,serif" font-size="14.00">pm2.61ddan.1</text>
</g>
<!-- n13472&#45;&gt;n13473 -->
<g id="edge36" class="edge"><title>n13472&#45;&gt;n13473</title>
</g>
<!-- n13473&#45;&gt;n13496 -->
<g id="edge4" class="edge"><title>n13473&#45;&gt;n13496</title>
<path fill="none" stroke="black" d="M759.16,-587.674C801.788,-598.203 865.951,-614.254 921.571,-629 927.664,-630.616 934.054,-632.345 940.377,-634.077"/>
<polygon fill="black" stroke="black" points="939.636,-637.504 950.206,-636.787 941.496,-630.755 939.636,-637.504"/>
<text text-anchor="middle" x="856.571" y="-632.8" font-family="Times New Roman,serif" font-size="14.00">|&#45; ( ( ph /\ ps ) &#45;&gt; th )</text>
</g>
<!-- n13495 -->
<g id="node7" class="node"><title>n13495</title>
<ellipse fill="cyan" stroke="black" cx="710.527" cy="-504" rx="51.1914" ry="18"/>
<text text-anchor="middle" x="710.527" y="-500.3" font-family="Times New Roman,serif" font-size="14.00">pm2.61dan</text>
</g>
<!-- n13473&#45;&gt;n13495 -->
<g id="edge37" class="edge"><title>n13473&#45;&gt;n13495</title>
</g>
<!-- n13477 -->
<g id="node6" class="node"><title>n13477</title>
</g>
<!-- n13477&#45;&gt;n13495 -->
<g id="edge5" class="edge"><title>n13477&#45;&gt;n13495</title>
<path fill="none" stroke="lightgray" d="M414.014,-647.362C461.846,-644.905 564.311,-633.527 629.482,-582 642.587,-571.638 636.449,-561.546 647.482,-549 655.298,-540.112 665.173,-531.968 674.732,-525.124"/>
<polygon fill="lightgray" stroke="lightgray" points="676.725,-528.001 682.991,-519.458 672.765,-522.229 676.725,-528.001"/>
<text text-anchor="middle" x="535.982" y="-648.8" font-family="Times New Roman,serif" font-size="14.00" fill="lightgray">wff ( ph /\ &#45;. ps )</text>
</g>
<!-- n13478 -->
<g id="node8" class="node"><title>n13478</title>
</g>
<!-- n13477&#45;&gt;n13478 -->
<g id="edge29" class="edge"><title>n13477&#45;&gt;n13478</title>
</g>
<!-- n13495&#45;&gt;n13496 -->
<g id="edge28" class="edge"><title>n13495&#45;&gt;n13496</title>
<path fill="none" stroke="black" d="M755.674,-512.627C800.166,-522.756 869.509,-542.569 921.571,-576 940.782,-588.336 958.411,-607.184 970.952,-622.502"/>
<polygon fill="black" stroke="black" points="968.413,-624.932 977.374,-630.585 973.894,-620.578 968.413,-624.932"/>
<text text-anchor="middle" x="856.571" y="-579.8" font-family="Times New Roman,serif" font-size="14.00">|&#45; ( ( ph /\ &#45;. ps ) &#45;&gt; th )</text>
</g>
<!-- n13478&#45;&gt;n13495 -->
<g id="edge6" class="edge"><title>n13478&#45;&gt;n13495</title>
<path fill="none" stroke="lightgray" d="M412.869,-570.648C456.808,-561.24 550.537,-541.024 629.482,-523 638.583,-520.922 648.254,-518.667 657.612,-516.46"/>
<polygon fill="lightgray" stroke="lightgray" points="658.676,-519.805 667.6,-514.095 657.063,-512.993 658.676,-519.805"/>
<text text-anchor="middle" x="535.982" y="-566.8" font-family="Times New Roman,serif" font-size="14.00" fill="lightgray">wff ch</text>
</g>
<!-- n13479 -->
<g id="node9" class="node"><title>n13479</title>
</g>
<!-- n13478&#45;&gt;n13479 -->
<g id="edge30" class="edge"><title>n13478&#45;&gt;n13479</title>
</g>
<!-- n13479&#45;&gt;n13495 -->
<g id="edge7" class="edge"><title>n13479&#45;&gt;n13495</title>
<path fill="none" stroke="lightgray" d="M413.842,-504C464.675,-504 578.266,-504 648.928,-504"/>
<polygon fill="lightgray" stroke="lightgray" points="649.03,-507.5 659.03,-504 649.03,-500.5 649.03,-507.5"/>
<text text-anchor="middle" x="535.982" y="-507.8" font-family="Times New Roman,serif" font-size="14.00" fill="lightgray">wff th</text>
</g>
<!-- n13486 -->
<g id="node11" class="node"><title>n13486</title>
<ellipse fill="cyan" stroke="black" cx="386.785" cy="-432" rx="35.194" ry="18"/>
<text text-anchor="middle" x="386.785" y="-428.3" font-family="Times New Roman,serif" font-size="14.00">adantlr</text>
</g>
<!-- n13479&#45;&gt;n13486 -->
<g id="edge31" class="edge"><title>n13479&#45;&gt;n13486</title>
</g>
<!-- n13480 -->
<g id="node10" class="node"><title>n13480</title>
</g>
<!-- n13480&#45;&gt;n13486 -->
<g id="edge8" class="edge"><title>n13480&#45;&gt;n13486</title>
<path fill="none" stroke="lightgray" d="M89.8267,-650.999C143.352,-655.648 266.874,-657.909 331.089,-590 366.03,-553.049 328.304,-523.414 349.089,-477 352.449,-469.496 357.393,-462.206 362.571,-455.755"/>
<polygon fill="lightgray" stroke="lightgray" points="365.3,-457.949 369.153,-448.079 359.986,-453.392 365.3,-457.949"/>
<text text-anchor="middle" x="237.589" y="-655.8" font-family="Times New Roman,serif" font-size="14.00" fill="lightgray">wff ph</text>
</g>
<!-- n13481 -->
<g id="node12" class="node"><title>n13481</title>
</g>
<!-- n13480&#45;&gt;n13481 -->
<g id="edge14" class="edge"><title>n13480&#45;&gt;n13481</title>
</g>
<!-- n13486&#45;&gt;n13495 -->
<g id="edge13" class="edge"><title>n13486&#45;&gt;n13495</title>
<path fill="none" stroke="black" d="M419.496,-438.772C465.725,-448.685 554.306,-467.837 629.482,-485 638.583,-487.078 648.254,-489.333 657.612,-491.54"/>
<polygon fill="black" stroke="black" points="657.063,-495.007 667.6,-493.905 658.676,-488.195 657.063,-495.007"/>
<text text-anchor="middle" x="535.982" y="-488.8" font-family="Times New Roman,serif" font-size="14.00">|&#45; ( ( ( ph /\ &#45;. ps ) /\ ch ) &#45;&gt; th )</text>
</g>
<!-- n13494 -->
<g id="node17" class="node"><title>n13494</title>
<ellipse fill="cyan" stroke="black" cx="386.785" cy="-234" rx="37.8943" ry="18"/>
<text text-anchor="middle" x="386.785" y="-230.3" font-family="Times New Roman,serif" font-size="14.00">anassrs</text>
</g>
<!-- n13486&#45;&gt;n13494 -->
<g id="edge32" class="edge"><title>n13486&#45;&gt;n13494</title>
</g>
<!-- n13481&#45;&gt;n13486 -->
<g id="edge9" class="edge"><title>n13481&#45;&gt;n13486</title>
<path fill="none" stroke="lightgray" d="M90.0815,-576.026C141.436,-574.783 257.197,-565.42 331.089,-509 344.058,-499.097 339.899,-490.484 349.089,-477 353.799,-470.089 359.311,-462.93 364.61,-456.411"/>
<polygon fill="lightgray" stroke="lightgray" points="367.433,-458.491 371.132,-448.562 362.049,-454.017 367.433,-458.491"/>
<text text-anchor="middle" x="237.589" y="-574.8" font-family="Times New Roman,serif" font-size="14.00" fill="lightgray">wff ch</text>
</g>
<!-- n13482 -->
<g id="node13" class="node"><title>n13482</title>
</g>
<!-- n13481&#45;&gt;n13482 -->
<g id="edge15" class="edge"><title>n13481&#45;&gt;n13482</title>
</g>
<!-- n13482&#45;&gt;n13486 -->
<g id="edge10" class="edge"><title>n13482&#45;&gt;n13486</title>
<path fill="none" stroke="lightgray" d="M89.723,-500.119C137.64,-492.609 243.737,-474.718 331.089,-451 336.744,-449.464 342.661,-447.643 348.425,-445.745"/>
<polygon fill="lightgray" stroke="lightgray" points="349.572,-449.052 357.912,-442.517 347.317,-442.425 349.572,-449.052"/>
<text text-anchor="middle" x="237.589" y="-493.8" font-family="Times New Roman,serif" font-size="14.00" fill="lightgray">wff th</text>
</g>
<!-- n13484 -->
<g id="node14" class="node"><title>n13484</title>
</g>
<!-- n13482&#45;&gt;n13484 -->
<g id="edge16" class="edge"><title>n13482&#45;&gt;n13484</title>
</g>
<!-- n13484&#45;&gt;n13486 -->
<g id="edge11" class="edge"><title>n13484&#45;&gt;n13486</title>
<path fill="none" stroke="lightgray" d="M90.1013,-432C144.986,-432 273.032,-432 341.212,-432"/>
<polygon fill="lightgray" stroke="lightgray" points="341.62,-435.5 351.62,-432 341.62,-428.5 341.62,-435.5"/>
<text text-anchor="middle" x="237.589" y="-435.8" font-family="Times New Roman,serif" font-size="14.00" fill="lightgray">wff &#45;. ps</text>
</g>
<!-- n13485 -->
<g id="node15" class="node"><title>n13485</title>
<ellipse fill="orange" stroke="black" cx="63.0444" cy="-360" rx="63.0888" ry="18"/>
<text text-anchor="middle" x="63.0444" y="-356.3" font-family="Times New Roman,serif" font-size="14.00">pm2.61ddan.2</text>
</g>
<!-- n13484&#45;&gt;n13485 -->
<g id="edge17" class="edge"><title>n13484&#45;&gt;n13485</title>
</g>
<!-- n13485&#45;&gt;n13486 -->
<g id="edge12" class="edge"><title>n13485&#45;&gt;n13486</title>
<path fill="none" stroke="black" d="M118.771,-368.58C173.112,-377.632 258.562,-393.308 331.089,-413 336.744,-414.536 342.661,-416.357 348.425,-418.255"/>
<polygon fill="black" stroke="black" points="347.317,-421.575 357.912,-421.483 349.572,-414.948 347.317,-421.575"/>
<text text-anchor="middle" x="237.589" y="-416.8" font-family="Times New Roman,serif" font-size="14.00">|&#45; ( ( ph /\ ch ) &#45;&gt; th )</text>
</g>
<!-- n13487 -->
<g id="node16" class="node"><title>n13487</title>
</g>
<!-- n13487&#45;&gt;n13494 -->
<g id="edge18" class="edge"><title>n13487&#45;&gt;n13494</title>
<path fill="none" stroke="lightgray" d="M89.723,-302.119C137.64,-294.609 243.737,-276.718 331.089,-253 336.364,-251.568 341.866,-249.887 347.26,-248.127"/>
<polygon fill="lightgray" stroke="lightgray" points="348.427,-251.428 356.781,-244.912 346.187,-244.795 348.427,-251.428"/>
<text text-anchor="middle" x="237.589" y="-296.8" font-family="Times New Roman,serif" font-size="14.00" fill="lightgray">wff ph</text>
</g>
<!-- n13489 -->
<g id="node18" class="node"><title>n13489</title>
</g>
<!-- n13487&#45;&gt;n13489 -->
<g id="edge24" class="edge"><title>n13487&#45;&gt;n13489</title>
</g>
<!-- n13494&#45;&gt;n13495 -->
<g id="edge23" class="edge"><title>n13494&#45;&gt;n13495</title>
<path fill="none" stroke="black" d="M408.124,-248.879C450.476,-280.116 550.737,-355.404 629.482,-425 649.221,-442.446 670.388,-463.446 685.994,-479.408"/>
<polygon fill="black" stroke="black" points="683.699,-482.069 693.178,-486.802 688.72,-477.191 683.699,-482.069"/>
<text text-anchor="middle" x="535.982" y="-428.8" font-family="Times New Roman,serif" font-size="14.00">|&#45; ( ( ( ph /\ &#45;. ps ) /\ &#45;. ch ) &#45;&gt; th )</text>
</g>
<!-- n13489&#45;&gt;n13494 -->
<g id="edge19" class="edge"><title>n13489&#45;&gt;n13494</title>
<path fill="none" stroke="lightgray" d="M90.1013,-234C144.387,-234 270.248,-234 338.96,-234"/>
<polygon fill="lightgray" stroke="lightgray" points="339.073,-237.5 349.073,-234 339.073,-230.5 339.073,-237.5"/>
<text text-anchor="middle" x="237.589" y="-237.8" font-family="Times New Roman,serif" font-size="14.00" fill="lightgray">wff &#45;. ps</text>
</g>
<!-- n13491 -->
<g id="node19" class="node"><title>n13491</title>
</g>
<!-- n13489&#45;&gt;n13491 -->
<g id="edge25" class="edge"><title>n13489&#45;&gt;n13491</title>
</g>
<!-- n13491&#45;&gt;n13494 -->
<g id="edge20" class="edge"><title>n13491&#45;&gt;n13494</title>
<path fill="none" stroke="lightgray" d="M89.723,-165.881C137.64,-173.391 243.737,-191.282 331.089,-215 336.364,-216.432 341.866,-218.113 347.26,-219.873"/>
<polygon fill="lightgray" stroke="lightgray" points="346.187,-223.205 356.781,-223.088 348.427,-216.572 346.187,-223.205"/>
<text text-anchor="middle" x="237.589" y="-218.8" font-family="Times New Roman,serif" font-size="14.00" fill="lightgray">wff &#45;. ch</text>
</g>
<!-- n13492 -->
<g id="node20" class="node"><title>n13492</title>
</g>
<!-- n13491&#45;&gt;n13492 -->
<g id="edge26" class="edge"><title>n13491&#45;&gt;n13492</title>
</g>
<!-- n13492&#45;&gt;n13494 -->
<g id="edge21" class="edge"><title>n13492&#45;&gt;n13494</title>
<path fill="none" stroke="lightgray" d="M90.369,-90.6991C141.234,-93.2402 254.726,-104.815 331.089,-157 349.48,-169.568 363.754,-190.479 373.102,-207.341"/>
<polygon fill="lightgray" stroke="lightgray" points="370.021,-209.002 377.784,-216.213 376.212,-205.735 370.021,-209.002"/>
<text text-anchor="middle" x="237.589" y="-160.8" font-family="Times New Roman,serif" font-size="14.00" fill="lightgray">wff th</text>
</g>
<!-- n13493 -->
<g id="node21" class="node"><title>n13493</title>
<ellipse fill="orange" stroke="black" cx="63.0444" cy="-18" rx="63.0888" ry="18"/>
<text text-anchor="middle" x="63.0444" y="-14.3" font-family="Times New Roman,serif" font-size="14.00">pm2.61ddan.3</text>
</g>
<!-- n13492&#45;&gt;n13493 -->
<g id="edge27" class="edge"><title>n13492&#45;&gt;n13493</title>
</g>
<!-- n13493&#45;&gt;n13494 -->
<g id="edge22" class="edge"><title>n13493&#45;&gt;n13494</title>
<path fill="none" stroke="black" d="M125.703,-15.3939C185.31,-16.2383 274.658,-26.853 331.089,-77 368.435,-110.187 380.284,-170.272 384.042,-205.709"/>
<polygon fill="black" stroke="black" points="380.574,-206.217 384.968,-215.858 387.545,-205.581 380.574,-206.217"/>
<text text-anchor="middle" x="237.589" y="-80.8" font-family="Times New Roman,serif" font-size="14.00">|&#45; ( ( ph /\ ( &#45;. ps /\ &#45;. ch ) ) &#45;&gt; th )</text>
</g>
</g>
</svg>
