<?xml version="1.0" encoding="UTF-8" standalone="no"?>
<!DOCTYPE svg PUBLIC "-//W3C//DTD SVG 1.1//EN"
 "http://www.w3.org/Graphics/SVG/1.1/DTD/svg11.dtd">
<!-- Generated by graphviz version 2.38.0 (20140413.2041)
 -->
<!-- Title: proof_pm2_48 Pages: 1 -->
<svg width="731pt" height="295pt"
 viewBox="0.00 0.00 731.19 295.00" xmlns="http://www.w3.org/2000/svg" xmlns:xlink="http://www.w3.org/1999/xlink">
<g id="graph0" class="graph" transform="scale(1 1) rotate(0) translate(4 291)">
<title>proof_pm2_48</title>
<polygon fill="white" stroke="none" points="-4,4 -4,-291 727.188,-291 727.188,4 -4,4"/>
<!-- n7434 -->
<g id="node1" class="node"><title>n7434</title>
</g>
<!-- n7441 -->
<g id="node2" class="node"><title>n7441</title>
<ellipse fill="cyan" stroke="black" cx="411.693" cy="-160" rx="27" ry="18"/>
<text text-anchor="middle" x="411.693" y="-156.3" font-family="Times New Roman,serif" font-size="14.00">olcd</text>
</g>
<!-- n7434&#45;&gt;n7441 -->
<g id="edge1" class="edge"><title>n7434&#45;&gt;n7441</title>
<path fill="none" stroke="lightgray" d="M191.824,-265.427C231.678,-258.932 310.059,-242.446 366.693,-207 376.458,-200.888 385.492,-192.08 392.801,-183.737"/>
<polygon fill="lightgray" stroke="lightgray" points="395.545,-185.911 399.247,-175.984 390.162,-181.435 395.545,-185.911"/>
<text text-anchor="middle" x="294.193" y="-262.8" font-family="Times New Roman,serif" font-size="14.00" fill="lightgray">wff &#45;. ( ph \/ ps )</text>
</g>
<!-- n7436 -->
<g id="node3" class="node"><title>n7436</title>
</g>
<!-- n7434&#45;&gt;n7436 -->
<g id="edge9" class="edge"><title>n7434&#45;&gt;n7436</title>
</g>
<!-- QED -->
<g id="node8" class="node"><title>QED</title>
</g>
<!-- n7441&#45;&gt;QED -->
<g id="edge8" class="edge"><title>n7441&#45;&gt;QED</title>
<path fill="none" stroke="black" d="M438.807,-160C488.312,-160 596.04,-160 654.066,-160"/>
<polygon fill="black" stroke="black" points="654.297,-163.5 664.297,-160 654.297,-156.5 654.297,-163.5"/>
<text text-anchor="middle" x="551.693" y="-163.8" font-family="Times New Roman,serif" font-size="14.00">|&#45; ( &#45;. ( ph \/ ps ) &#45;&gt; ( ph \/ &#45;. ps ) )</text>
</g>
<!-- n7436&#45;&gt;n7441 -->
<g id="edge2" class="edge"><title>n7436&#45;&gt;n7441</title>
<path fill="none" stroke="lightgray" d="M192.034,-193.11C235.847,-186.476 325.109,-172.959 374.972,-165.409"/>
<polygon fill="lightgray" stroke="lightgray" points="375.62,-168.851 384.983,-163.893 374.572,-161.93 375.62,-168.851"/>
<text text-anchor="middle" x="294.193" y="-191.8" font-family="Times New Roman,serif" font-size="14.00" fill="lightgray">wff &#45;. ps</text>
</g>
<!-- n7437 -->
<g id="node4" class="node"><title>n7437</title>
</g>
<!-- n7436&#45;&gt;n7437 -->
<g id="edge10" class="edge"><title>n7436&#45;&gt;n7437</title>
</g>
<!-- n7437&#45;&gt;n7441 -->
<g id="edge3" class="edge"><title>n7437&#45;&gt;n7441</title>
<path fill="none" stroke="lightgray" d="M192.052,-127.73C230.261,-131.926 304.249,-140.576 366.693,-151 369.577,-151.481 372.56,-152.015 375.552,-152.575"/>
<polygon fill="lightgray" stroke="lightgray" points="375.137,-156.06 385.622,-154.544 376.48,-149.19 375.137,-156.06"/>
<text text-anchor="middle" x="294.193" y="-154.8" font-family="Times New Roman,serif" font-size="14.00" fill="lightgray">wff ph</text>
</g>
<!-- n7440 -->
<g id="node6" class="node"><title>n7440</title>
<ellipse fill="cyan" stroke="black" cx="165.347" cy="-53" rx="38.1938" ry="18"/>
<text text-anchor="middle" x="165.347" y="-49.3" font-family="Times New Roman,serif" font-size="14.00">pm2.46</text>
</g>
<!-- n7437&#45;&gt;n7440 -->
<g id="edge11" class="edge"><title>n7437&#45;&gt;n7440</title>
</g>
<!-- n7438 -->
<g id="node5" class="node"><title>n7438</title>
</g>
<!-- n7438&#45;&gt;n7440 -->
<g id="edge4" class="edge"><title>n7438&#45;&gt;n7440</title>
<path fill="none" stroke="lightgray" d="M52.376,-83.3851C71.6593,-78.1523 99.0498,-70.7194 121.913,-64.5151"/>
<polygon fill="lightgray" stroke="lightgray" points="122.99,-67.8494 131.725,-61.8525 121.157,-61.0937 122.99,-67.8494"/>
<text text-anchor="middle" x="90.5" y="-82.8" font-family="Times New Roman,serif" font-size="14.00" fill="lightgray">wff ph</text>
</g>
<!-- n7439 -->
<g id="node7" class="node"><title>n7439</title>
</g>
<!-- n7438&#45;&gt;n7439 -->
<g id="edge7" class="edge"><title>n7438&#45;&gt;n7439</title>
</g>
<!-- n7440&#45;&gt;n7441 -->
<g id="edge6" class="edge"><title>n7440&#45;&gt;n7441</title>
<path fill="none" stroke="black" d="M202.336,-57.9441C244.345,-64.9799 314.685,-80.7788 366.693,-113 376.486,-119.067 385.525,-127.867 392.83,-136.215"/>
<polygon fill="black" stroke="black" points="390.192,-138.517 399.271,-143.978 395.579,-134.047 390.192,-138.517"/>
<text text-anchor="middle" x="294.193" y="-116.8" font-family="Times New Roman,serif" font-size="14.00">|&#45; ( &#45;. ( ph \/ ps ) &#45;&gt; &#45;. ps )</text>
</g>
<!-- n7439&#45;&gt;n7440 -->
<g id="edge5" class="edge"><title>n7439&#45;&gt;n7440</title>
<path fill="none" stroke="lightgray" d="M52.376,-24.2573C71.5925,-29.1901 98.8603,-36.1897 121.676,-42.0464"/>
<polygon fill="lightgray" stroke="lightgray" points="120.915,-45.4646 131.471,-44.5609 122.656,-38.6844 120.915,-45.4646"/>
<text text-anchor="middle" x="90.5" y="-42.8" font-family="Times New Roman,serif" font-size="14.00" fill="lightgray">wff ps</text>
</g>
</g>
</svg>
