<?xml version="1.0" encoding="UTF-8" standalone="no"?>
<!DOCTYPE svg PUBLIC "-//W3C//DTD SVG 1.1//EN"
 "http://www.w3.org/Graphics/SVG/1.1/DTD/svg11.dtd">
<!-- Generated by graphviz version 2.38.0 (20140413.2041)
 -->
<!-- Title: proof_pm2_4 Pages: 1 -->
<svg width="796pt" height="332pt"
 viewBox="0.00 0.00 796.49 332.00" xmlns="http://www.w3.org/2000/svg" xmlns:xlink="http://www.w3.org/1999/xlink">
<g id="graph0" class="graph" transform="scale(1 1) rotate(0) translate(4 328)">
<title>proof_pm2_4</title>
<polygon fill="white" stroke="none" points="-4,4 -4,-328 792.495,-328 792.495,4 -4,4"/>
<!-- n9725 -->
<g id="node1" class="node"><title>n9725</title>
</g>
<!-- n9739 -->
<g id="node2" class="node"><title>n9739</title>
<ellipse fill="cyan" stroke="black" cx="455" cy="-162" rx="27" ry="18"/>
<text text-anchor="middle" x="455" y="-158.3" font-family="Times New Roman,serif" font-size="14.00">jaoi</text>
</g>
<!-- n9725&#45;&gt;n9739 -->
<g id="edge1" class="edge"><title>n9725&#45;&gt;n9739</title>
<path fill="none" stroke="lightgray" d="M226.192,-304.459C269.093,-300.673 355.053,-287.645 410,-243 426.924,-229.249 438.297,-207.189 445.234,-189.561"/>
<polygon fill="lightgray" stroke="lightgray" points="448.66,-190.384 448.814,-179.79 442.087,-187.975 448.66,-190.384"/>
<text text-anchor="middle" x="327" y="-305.8" font-family="Times New Roman,serif" font-size="14.00" fill="lightgray">wff ph</text>
</g>
<!-- n9728 -->
<g id="node3" class="node"><title>n9728</title>
</g>
<!-- n9725&#45;&gt;n9728 -->
<g id="edge11" class="edge"><title>n9725&#45;&gt;n9728</title>
</g>
<!-- QED -->
<g id="node10" class="node"><title>QED</title>
</g>
<!-- n9739&#45;&gt;QED -->
<g id="edge10" class="edge"><title>n9739&#45;&gt;QED</title>
<path fill="none" stroke="black" d="M482.031,-162C535.363,-162 657.271,-162 719.762,-162"/>
<polygon fill="black" stroke="black" points="719.986,-165.5 729.986,-162 719.986,-158.5 719.986,-165.5"/>
<text text-anchor="middle" x="606" y="-165.8" font-family="Times New Roman,serif" font-size="14.00">|&#45; ( ( ph \/ ( ph \/ ps ) ) &#45;&gt; ( ph \/ ps ) )</text>
</g>
<!-- n9728&#45;&gt;n9739 -->
<g id="edge2" class="edge"><title>n9728&#45;&gt;n9739</title>
<path fill="none" stroke="lightgray" d="M225.269,-228.995C265.097,-220.8 344.667,-203.19 410,-181 414.282,-179.546 418.728,-177.853 423.077,-176.088"/>
<polygon fill="lightgray" stroke="lightgray" points="424.489,-179.291 432.338,-172.174 421.764,-172.843 424.489,-179.291"/>
<text text-anchor="middle" x="327" y="-227.8" font-family="Times New Roman,serif" font-size="14.00" fill="lightgray">wff ( ph \/ ps )</text>
</g>
<!-- n9731 -->
<g id="node4" class="node"><title>n9731</title>
</g>
<!-- n9728&#45;&gt;n9731 -->
<g id="edge12" class="edge"><title>n9728&#45;&gt;n9731</title>
</g>
<!-- n9731&#45;&gt;n9739 -->
<g id="edge3" class="edge"><title>n9731&#45;&gt;n9739</title>
<path fill="none" stroke="lightgray" d="M226.226,-162C271.88,-162 366.024,-162 417.84,-162"/>
<polygon fill="lightgray" stroke="lightgray" points="417.917,-165.5 427.917,-162 417.917,-158.5 417.917,-165.5"/>
<text text-anchor="middle" x="327" y="-165.8" font-family="Times New Roman,serif" font-size="14.00" fill="lightgray">wff ( ph \/ ps )</text>
</g>
<!-- n9734 -->
<g id="node6" class="node"><title>n9734</title>
<ellipse fill="cyan" stroke="black" cx="199" cy="-90" rx="27" ry="18"/>
<text text-anchor="middle" x="199" y="-86.3" font-family="Times New Roman,serif" font-size="14.00">orc</text>
</g>
<!-- n9731&#45;&gt;n9734 -->
<g id="edge13" class="edge"><title>n9731&#45;&gt;n9734</title>
</g>
<!-- n9732 -->
<g id="node5" class="node"><title>n9732</title>
</g>
<!-- n9732&#45;&gt;n9734 -->
<g id="edge4" class="edge"><title>n9732&#45;&gt;n9734</title>
<path fill="none" stroke="lightgray" d="M51.2708,-144.651C76.5933,-135.532 118.249,-120.431 154,-107 157.773,-105.582 161.722,-104.082 165.639,-102.582"/>
<polygon fill="lightgray" stroke="lightgray" points="167.119,-105.763 175.194,-98.9043 164.604,-99.23 167.119,-105.763"/>
<text text-anchor="middle" x="113" y="-140.8" font-family="Times New Roman,serif" font-size="14.00" fill="lightgray">wff ph</text>
</g>
<!-- n9733 -->
<g id="node7" class="node"><title>n9733</title>
</g>
<!-- n9732&#45;&gt;n9733 -->
<g id="edge7" class="edge"><title>n9732&#45;&gt;n9733</title>
</g>
<!-- n9734&#45;&gt;n9739 -->
<g id="edge6" class="edge"><title>n9734&#45;&gt;n9739</title>
<path fill="none" stroke="black" d="M225.269,-95.0055C265.097,-103.2 344.667,-120.81 410,-143 414.282,-144.454 418.728,-146.147 423.077,-147.912"/>
<polygon fill="black" stroke="black" points="421.764,-151.157 432.338,-151.826 424.489,-144.709 421.764,-151.157"/>
<text text-anchor="middle" x="327" y="-146.8" font-family="Times New Roman,serif" font-size="14.00">|&#45; ( ph &#45;&gt; ( ph \/ ps ) )</text>
</g>
<!-- n9738 -->
<g id="node9" class="node"><title>n9738</title>
<ellipse fill="cyan" stroke="black" cx="199" cy="-18" rx="27" ry="18"/>
<text text-anchor="middle" x="199" y="-14.3" font-family="Times New Roman,serif" font-size="14.00">id</text>
</g>
<!-- n9734&#45;&gt;n9738 -->
<g id="edge14" class="edge"><title>n9734&#45;&gt;n9738</title>
</g>
<!-- n9733&#45;&gt;n9734 -->
<g id="edge5" class="edge"><title>n9733&#45;&gt;n9734</title>
<path fill="none" stroke="lightgray" d="M54.1899,-82.3865C82.9752,-83.9105 129.41,-86.3688 161.698,-88.0781"/>
<polygon fill="lightgray" stroke="lightgray" points="161.888,-91.593 172.059,-88.6267 162.258,-84.6028 161.888,-91.593"/>
<text text-anchor="middle" x="113" y="-91.8" font-family="Times New Roman,serif" font-size="14.00" fill="lightgray">wff ps</text>
</g>
<!-- n9737 -->
<g id="node8" class="node"><title>n9737</title>
</g>
<!-- n9737&#45;&gt;n9738 -->
<g id="edge8" class="edge"><title>n9737&#45;&gt;n9738</title>
<path fill="none" stroke="lightgray" d="M54.1899,-18C82.8915,-18 129.14,-18 161.416,-18"/>
<polygon fill="lightgray" stroke="lightgray" points="161.78,-21.5001 171.78,-18 161.78,-14.5001 161.78,-21.5001"/>
<text text-anchor="middle" x="113" y="-21.8" font-family="Times New Roman,serif" font-size="14.00" fill="lightgray">wff ( ph \/ ps )</text>
</g>
<!-- n9738&#45;&gt;n9739 -->
<g id="edge9" class="edge"><title>n9738&#45;&gt;n9739</title>
<path fill="none" stroke="black" d="M226.192,-19.5411C269.093,-23.3275 355.053,-36.355 410,-81 426.924,-94.7506 438.297,-116.811 445.234,-134.439"/>
<polygon fill="black" stroke="black" points="442.087,-136.025 448.814,-144.21 448.66,-133.616 442.087,-136.025"/>
<text text-anchor="middle" x="327" y="-84.8" font-family="Times New Roman,serif" font-size="14.00">|&#45; ( ( ph \/ ps ) &#45;&gt; ( ph \/ ps ) )</text>
</g>
</g>
</svg>
