<?xml version="1.0" encoding="UTF-8" standalone="no"?>
<!DOCTYPE svg PUBLIC "-//W3C//DTD SVG 1.1//EN"
 "http://www.w3.org/Graphics/SVG/1.1/DTD/svg11.dtd">
<!-- Generated by graphviz version 2.38.0 (20140413.2041)
 -->
<!-- Title: proof_pm2_81 Pages: 1 -->
<svg width="1211pt" height="557pt"
 viewBox="0.00 0.00 1211.19 557.00" xmlns="http://www.w3.org/2000/svg" xmlns:xlink="http://www.w3.org/1999/xlink">
<g id="graph0" class="graph" transform="scale(1 1) rotate(0) translate(4 553)">
<title>proof_pm2_81</title>
<polygon fill="white" stroke="none" points="-4,4 -4,-553 1207.19,-553 1207.19,4 -4,4"/>
<!-- n14598 -->
<g id="node1" class="node"><title>n14598</title>
</g>
<!-- n14624 -->
<g id="node2" class="node"><title>n14624</title>
<ellipse fill="cyan" stroke="black" cx="674.693" cy="-333" rx="27" ry="18"/>
<text text-anchor="middle" x="674.693" y="-329.3" font-family="Times New Roman,serif" font-size="14.00">syl6</text>
</g>
<!-- n14598&#45;&gt;n14624 -->
<g id="edge1" class="edge"><title>n14598&#45;&gt;n14624</title>
<path fill="none" stroke="lightgray" d="M238.115,-519.396C308.393,-533.167 511.597,-562.095 629.693,-466 661.081,-440.46 670.255,-391.937 672.832,-361.095"/>
<polygon fill="lightgray" stroke="lightgray" points="676.332,-361.197 673.493,-350.99 669.347,-360.74 676.332,-361.197"/>
<text text-anchor="middle" x="449.193" y="-537.8" font-family="Times New Roman,serif" font-size="14.00" fill="lightgray">wff ( ps &#45;&gt; ( ch &#45;&gt; th ) )</text>
</g>
<!-- n14601 -->
<g id="node3" class="node"><title>n14601</title>
</g>
<!-- n14598&#45;&gt;n14601 -->
<g id="edge18" class="edge"><title>n14598&#45;&gt;n14601</title>
</g>
<!-- QED -->
<g id="node14" class="node"><title>QED</title>
</g>
<!-- n14624&#45;&gt;QED -->
<g id="edge17" class="edge"><title>n14624&#45;&gt;QED</title>
<path fill="none" stroke="black" d="M701.727,-333C783.682,-333 1036.69,-333 1134.13,-333"/>
<polygon fill="black" stroke="black" points="1134.42,-336.5 1144.42,-333 1134.42,-329.5 1134.42,-336.5"/>
<text text-anchor="middle" x="923.193" y="-336.8" font-family="Times New Roman,serif" font-size="14.00">|&#45; ( ( ps &#45;&gt; ( ch &#45;&gt; th ) ) &#45;&gt; ( ( ph \/ ps ) &#45;&gt; ( ( ph \/ ch ) &#45;&gt; ( ph \/ th ) ) ) )</text>
</g>
<!-- n14601&#45;&gt;n14624 -->
<g id="edge2" class="edge"><title>n14601&#45;&gt;n14624</title>
<path fill="none" stroke="lightgray" d="M239.215,-444.566C307.725,-450.138 497.647,-457.532 629.693,-385 641.157,-378.703 650.928,-368.141 658.33,-358.174"/>
<polygon fill="lightgray" stroke="lightgray" points="661.389,-359.905 664.207,-349.692 655.635,-355.918 661.389,-359.905"/>
<text text-anchor="middle" x="449.193" y="-450.8" font-family="Times New Roman,serif" font-size="14.00" fill="lightgray">wff ( ph \/ ps )</text>
</g>
<!-- n14606 -->
<g id="node4" class="node"><title>n14606</title>
</g>
<!-- n14601&#45;&gt;n14606 -->
<g id="edge19" class="edge"><title>n14601&#45;&gt;n14606</title>
</g>
<!-- n14606&#45;&gt;n14624 -->
<g id="edge3" class="edge"><title>n14606&#45;&gt;n14624</title>
<path fill="none" stroke="lightgray" d="M239.701,-368.599C305.57,-364.977 482.642,-354.486 629.693,-339 632.403,-338.715 635.203,-338.394 638.017,-338.052"/>
<polygon fill="lightgray" stroke="lightgray" points="638.659,-341.499 648.132,-336.755 637.768,-334.556 638.659,-341.499"/>
<text text-anchor="middle" x="449.193" y="-369.8" font-family="Times New Roman,serif" font-size="14.00" fill="lightgray">wff ( ph \/ ( ch &#45;&gt; th ) )</text>
</g>
<!-- n14613 -->
<g id="node5" class="node"><title>n14613</title>
</g>
<!-- n14606&#45;&gt;n14613 -->
<g id="edge20" class="edge"><title>n14606&#45;&gt;n14613</title>
</g>
<!-- n14613&#45;&gt;n14624 -->
<g id="edge4" class="edge"><title>n14613&#45;&gt;n14624</title>
<path fill="none" stroke="lightgray" d="M239.775,-298.374C305.811,-299.586 483.236,-304.545 629.693,-324 632.592,-324.385 635.585,-324.85 638.583,-325.364"/>
<polygon fill="lightgray" stroke="lightgray" points="638.193,-328.852 648.666,-327.252 639.481,-321.971 638.193,-328.852"/>
<text text-anchor="middle" x="449.193" y="-327.8" font-family="Times New Roman,serif" font-size="14.00" fill="lightgray">wff ( ( ph \/ ch ) &#45;&gt; ( ph \/ th ) )</text>
</g>
<!-- n14619 -->
<g id="node7" class="node"><title>n14619</title>
<ellipse fill="cyan" stroke="black" cx="212.347" cy="-226" rx="31.6951" ry="18"/>
<text text-anchor="middle" x="212.347" y="-222.3" font-family="Times New Roman,serif" font-size="14.00">orim2</text>
</g>
<!-- n14613&#45;&gt;n14619 -->
<g id="edge21" class="edge"><title>n14613&#45;&gt;n14619</title>
</g>
<!-- n14614 -->
<g id="node6" class="node"><title>n14614</title>
</g>
<!-- n14614&#45;&gt;n14619 -->
<g id="edge5" class="edge"><title>n14614&#45;&gt;n14619</title>
<path fill="none" stroke="lightgray" d="M50.8505,-351.05C77.7533,-339.824 122.95,-318.762 156,-292 157.083,-291.123 175.693,-268.863 191.038,-250.435"/>
<polygon fill="lightgray" stroke="lightgray" points="194.078,-252.253 197.784,-242.328 188.697,-247.776 194.078,-252.253"/>
<text text-anchor="middle" x="114" y="-344.8" font-family="Times New Roman,serif" font-size="14.00" fill="lightgray">wff ph</text>
</g>
<!-- n14615 -->
<g id="node8" class="node"><title>n14615</title>
</g>
<!-- n14614&#45;&gt;n14615 -->
<g id="edge9" class="edge"><title>n14614&#45;&gt;n14615</title>
</g>
<!-- n14619&#45;&gt;n14624 -->
<g id="edge8" class="edge"><title>n14619&#45;&gt;n14624</title>
<path fill="none" stroke="black" d="M243.892,-222.713C316.06,-216.412 500.728,-208.967 629.693,-280 641.478,-286.491 651.402,-297.512 658.825,-307.829"/>
<polygon fill="black" stroke="black" points="655.977,-309.865 664.458,-316.214 661.787,-305.961 655.977,-309.865"/>
<text text-anchor="middle" x="449.193" y="-283.8" font-family="Times New Roman,serif" font-size="14.00">|&#45; ( ( ps &#45;&gt; ( ch &#45;&gt; th ) ) &#45;&gt; ( ( ph \/ ps ) &#45;&gt; ( ph \/ ( ch &#45;&gt; th ) ) ) )</text>
</g>
<!-- n14623 -->
<g id="node11" class="node"><title>n14623</title>
<ellipse fill="cyan" stroke="black" cx="212.347" cy="-154" rx="38.1938" ry="18"/>
<text text-anchor="middle" x="212.347" y="-150.3" font-family="Times New Roman,serif" font-size="14.00">pm2.76</text>
</g>
<!-- n14619&#45;&gt;n14623 -->
<g id="edge22" class="edge"><title>n14619&#45;&gt;n14623</title>
</g>
<!-- n14615&#45;&gt;n14619 -->
<g id="edge6" class="edge"><title>n14615&#45;&gt;n14619</title>
<path fill="none" stroke="lightgray" d="M51.594,-280.022C82.801,-269.469 138.121,-250.762 174.768,-238.369"/>
<polygon fill="lightgray" stroke="lightgray" points="176.222,-241.572 184.574,-235.053 173.979,-234.941 176.222,-241.572"/>
<text text-anchor="middle" x="114" y="-276.8" font-family="Times New Roman,serif" font-size="14.00" fill="lightgray">wff ps</text>
</g>
<!-- n14618 -->
<g id="node9" class="node"><title>n14618</title>
</g>
<!-- n14615&#45;&gt;n14618 -->
<g id="edge10" class="edge"><title>n14615&#45;&gt;n14618</title>
</g>
<!-- n14618&#45;&gt;n14619 -->
<g id="edge7" class="edge"><title>n14618&#45;&gt;n14619</title>
<path fill="none" stroke="lightgray" d="M54.2691,-217.433C84.64,-219.089 134.995,-221.836 170.49,-223.772"/>
<polygon fill="lightgray" stroke="lightgray" points="170.358,-227.27 180.534,-224.319 170.74,-220.28 170.358,-227.27"/>
<text text-anchor="middle" x="114" y="-225.8" font-family="Times New Roman,serif" font-size="14.00" fill="lightgray">wff ( ch &#45;&gt; th )</text>
</g>
<!-- n14620 -->
<g id="node10" class="node"><title>n14620</title>
</g>
<!-- n14620&#45;&gt;n14623 -->
<g id="edge11" class="edge"><title>n14620&#45;&gt;n14623</title>
<path fill="none" stroke="lightgray" d="M54.2691,-160.854C82.715,-159.613 128.692,-157.607 163.571,-156.085"/>
<polygon fill="lightgray" stroke="lightgray" points="164.169,-159.562 174.007,-155.629 163.864,-152.569 164.169,-159.562"/>
<text text-anchor="middle" x="114" y="-164.8" font-family="Times New Roman,serif" font-size="14.00" fill="lightgray">wff ph</text>
</g>
<!-- n14621 -->
<g id="node12" class="node"><title>n14621</title>
</g>
<!-- n14620&#45;&gt;n14621 -->
<g id="edge15" class="edge"><title>n14620&#45;&gt;n14621</title>
</g>
<!-- n14623&#45;&gt;n14624 -->
<g id="edge14" class="edge"><title>n14623&#45;&gt;n14624</title>
<path fill="none" stroke="black" d="M247.59,-146.61C325.171,-131.997 516.378,-108.241 629.693,-200 661.141,-225.466 670.297,-274.01 672.854,-304.877"/>
<polygon fill="black" stroke="black" points="669.37,-305.238 673.509,-314.991 676.355,-304.786 669.37,-305.238"/>
<text text-anchor="middle" x="449.193" y="-203.8" font-family="Times New Roman,serif" font-size="14.00">|&#45; ( ( ph \/ ( ch &#45;&gt; th ) ) &#45;&gt; ( ( ph \/ ch ) &#45;&gt; ( ph \/ th ) ) )</text>
</g>
<!-- n14621&#45;&gt;n14623 -->
<g id="edge12" class="edge"><title>n14621&#45;&gt;n14623</title>
<path fill="none" stroke="lightgray" d="M51.221,-98.1056C81.3438,-108.62 134.376,-127.132 171.113,-139.956"/>
<polygon fill="lightgray" stroke="lightgray" points="170.415,-143.419 181.01,-143.41 172.722,-136.81 170.415,-143.419"/>
<text text-anchor="middle" x="114" y="-137.8" font-family="Times New Roman,serif" font-size="14.00" fill="lightgray">wff ch</text>
</g>
<!-- n14622 -->
<g id="node13" class="node"><title>n14622</title>
</g>
<!-- n14621&#45;&gt;n14622 -->
<g id="edge16" class="edge"><title>n14621&#45;&gt;n14622</title>
</g>
<!-- n14622&#45;&gt;n14623 -->
<g id="edge13" class="edge"><title>n14622&#45;&gt;n14623</title>
<path fill="none" stroke="lightgray" d="M50.8761,-27.111C77.8035,-38.5292 123.024,-59.9285 156,-87 170.444,-98.8581 183.868,-114.927 193.878,-128.355"/>
<polygon fill="lightgray" stroke="lightgray" points="191.239,-130.68 199.939,-136.728 196.91,-126.575 191.239,-130.68"/>
<text text-anchor="middle" x="114" y="-90.8" font-family="Times New Roman,serif" font-size="14.00" fill="lightgray">wff th</text>
</g>
</g>
</svg>
