<?xml version="1.0" encoding="UTF-8" standalone="no"?>
<!DOCTYPE svg PUBLIC "-//W3C//DTD SVG 1.1//EN"
 "http://www.w3.org/Graphics/SVG/1.1/DTD/svg11.dtd">
<!-- Generated by graphviz version 2.38.0 (20140413.2041)
 -->
<!-- Title: proof_pm2_13 Pages: 1 -->
<svg width="639pt" height="188pt"
 viewBox="0.00 0.00 639.19 188.00" xmlns="http://www.w3.org/2000/svg" xmlns:xlink="http://www.w3.org/1999/xlink">
<g id="graph0" class="graph" transform="scale(1 1) rotate(0) translate(4 184)">
<title>proof_pm2_13</title>
<polygon fill="white" stroke="none" points="-4,4 -4,-184 635.188,-184 635.188,4 -4,4"/>
<!-- n7652 -->
<g id="node1" class="node"><title>n7652</title>
</g>
<!-- n7660 -->
<g id="node2" class="node"><title>n7660</title>
<ellipse fill="cyan" stroke="black" cx="402.693" cy="-90" rx="27" ry="18"/>
<text text-anchor="middle" x="402.693" y="-86.3" font-family="Times New Roman,serif" font-size="14.00">orri</text>
</g>
<!-- n7652&#45;&gt;n7660 -->
<g id="edge1" class="edge"><title>n7652&#45;&gt;n7660</title>
<path fill="none" stroke="lightgray" d="M202.723,-155.795C237.506,-146.717 303.202,-128.736 357.693,-109 361.945,-107.46 366.374,-105.718 370.714,-103.929"/>
<polygon fill="lightgray" stroke="lightgray" points="372.133,-107.128 379.968,-99.9964 369.396,-100.686 372.133,-107.128"/>
<text text-anchor="middle" x="295.693" y="-150.8" font-family="Times New Roman,serif" font-size="14.00" fill="lightgray">wff ph</text>
</g>
<!-- n7656 -->
<g id="node3" class="node"><title>n7656</title>
</g>
<!-- n7652&#45;&gt;n7656 -->
<g id="edge6" class="edge"><title>n7652&#45;&gt;n7656</title>
</g>
<!-- QED -->
<g id="node6" class="node"><title>QED</title>
</g>
<!-- n7660&#45;&gt;QED -->
<g id="edge5" class="edge"><title>n7660&#45;&gt;QED</title>
<path fill="none" stroke="black" d="M429.886,-90C463.772,-90 523.083,-90 562.188,-90"/>
<polygon fill="black" stroke="black" points="562.4,-93.5001 572.4,-90 562.4,-86.5001 562.4,-93.5001"/>
<text text-anchor="middle" x="501.193" y="-93.8" font-family="Times New Roman,serif" font-size="14.00">|&#45; ( ph \/ &#45;. &#45;. &#45;. ph )</text>
</g>
<!-- n7656&#45;&gt;n7660 -->
<g id="edge2" class="edge"><title>n7656&#45;&gt;n7660</title>
<path fill="none" stroke="lightgray" d="M204.404,-90C244.14,-90 320.019,-90 365.213,-90"/>
<polygon fill="lightgray" stroke="lightgray" points="365.456,-93.5001 375.456,-90 365.456,-86.5001 365.456,-93.5001"/>
<text text-anchor="middle" x="295.693" y="-93.8" font-family="Times New Roman,serif" font-size="14.00" fill="lightgray">wff &#45;. &#45;. &#45;. ph</text>
</g>
<!-- n7659 -->
<g id="node5" class="node"><title>n7659</title>
<ellipse fill="cyan" stroke="black" cx="177.347" cy="-18" rx="38.1938" ry="18"/>
<text text-anchor="middle" x="177.347" y="-14.3" font-family="Times New Roman,serif" font-size="14.00">notnot1</text>
</g>
<!-- n7656&#45;&gt;n7659 -->
<g id="edge7" class="edge"><title>n7656&#45;&gt;n7659</title>
</g>
<!-- n7658 -->
<g id="node4" class="node"><title>n7658</title>
</g>
<!-- n7658&#45;&gt;n7659 -->
<g id="edge3" class="edge"><title>n7658&#45;&gt;n7659</title>
<path fill="none" stroke="lightgray" d="M54.1799,-18C74.7042,-18 103.82,-18 128.48,-18"/>
<polygon fill="lightgray" stroke="lightgray" points="128.737,-21.5001 138.737,-18 128.737,-14.5001 128.737,-21.5001"/>
<text text-anchor="middle" x="96.5" y="-21.8" font-family="Times New Roman,serif" font-size="14.00" fill="lightgray">wff &#45;. ph</text>
</g>
<!-- n7659&#45;&gt;n7660 -->
<g id="edge4" class="edge"><title>n7659&#45;&gt;n7660</title>
<path fill="none" stroke="black" d="M211.457,-26.5018C247.742,-36.1146 307.476,-52.8123 357.693,-71 361.945,-72.5398 366.374,-74.2821 370.714,-76.0715"/>
<polygon fill="black" stroke="black" points="369.396,-79.3143 379.968,-80.0036 372.133,-72.8717 369.396,-79.3143"/>
<text text-anchor="middle" x="295.693" y="-74.8" font-family="Times New Roman,serif" font-size="14.00">|&#45; ( &#45;. ph &#45;&gt; &#45;. &#45;. &#45;. ph )</text>
</g>
</g>
</svg>
