<?xml version="1.0" encoding="UTF-8" standalone="no"?>
<!DOCTYPE svg PUBLIC "-//W3C//DTD SVG 1.1//EN"
 "http://www.w3.org/Graphics/SVG/1.1/DTD/svg11.dtd">
<!-- Generated by graphviz version 2.38.0 (20140413.2041)
 -->
<!-- Title: proof_pm2_83 Pages: 1 -->
<svg width="1092pt" height="404pt"
 viewBox="0.00 0.00 1092.38 404.00" xmlns="http://www.w3.org/2000/svg" xmlns:xlink="http://www.w3.org/1999/xlink">
<g id="graph0" class="graph" transform="scale(1 1) rotate(0) translate(4 400)">
<title>proof_pm2_83</title>
<polygon fill="white" stroke="none" points="-4,4 -4,-400 1088.38,-400 1088.38,4 -4,4"/>
<!-- n782 -->
<g id="node1" class="node"><title>n782</title>
</g>
<!-- n794 -->
<g id="node2" class="node"><title>n794</title>
<ellipse fill="cyan" stroke="black" cx="532.441" cy="-234" rx="34.394" ry="18"/>
<text text-anchor="middle" x="532.441" y="-230.3" font-family="Times New Roman,serif" font-size="14.00">imim3i</text>
</g>
<!-- n782&#45;&gt;n794 -->
<g id="edge1" class="edge"><title>n782&#45;&gt;n794</title>
<path fill="none" stroke="lightgray" d="M186.35,-379.971C244.382,-383.064 387.178,-383.123 479.994,-319 500.177,-305.057 513.812,-280.374 521.946,-261.187"/>
<polygon fill="lightgray" stroke="lightgray" points="525.26,-262.326 525.704,-251.74 518.756,-259.738 525.26,-262.326"/>
<text text-anchor="middle" x="344.994" y="-383.8" font-family="Times New Roman,serif" font-size="14.00" fill="lightgray">wff ( ps &#45;&gt; ch )</text>
</g>
<!-- n785 -->
<g id="node3" class="node"><title>n785</title>
</g>
<!-- n782&#45;&gt;n785 -->
<g id="edge12" class="edge"><title>n782&#45;&gt;n785</title>
</g>
<!-- QED -->
<g id="node10" class="node"><title>QED</title>
</g>
<!-- n794&#45;&gt;QED -->
<g id="edge11" class="edge"><title>n794&#45;&gt;QED</title>
<path fill="none" stroke="black" d="M567.204,-234C659.831,-234 917.546,-234 1015.6,-234"/>
<polygon fill="black" stroke="black" points="1015.66,-237.5 1025.66,-234 1015.66,-230.5 1015.66,-237.5"/>
<text text-anchor="middle" x="796.388" y="-237.8" font-family="Times New Roman,serif" font-size="14.00">|&#45; ( ( ph &#45;&gt; ( ps &#45;&gt; ch ) ) &#45;&gt; ( ( ph &#45;&gt; ( ch &#45;&gt; th ) ) &#45;&gt; ( ph &#45;&gt; ( ps &#45;&gt; th ) ) ) )</text>
</g>
<!-- n785&#45;&gt;n794 -->
<g id="edge2" class="edge"><title>n785&#45;&gt;n794</title>
<path fill="none" stroke="lightgray" d="M186.525,-303.374C241.443,-297.466 372.925,-281.377 479.994,-253 484.986,-251.677 490.171,-250.062 495.245,-248.338"/>
<polygon fill="lightgray" stroke="lightgray" points="496.54,-251.592 504.782,-244.936 494.188,-244.999 496.54,-251.592"/>
<text text-anchor="middle" x="344.994" y="-303.8" font-family="Times New Roman,serif" font-size="14.00" fill="lightgray">wff ( ch &#45;&gt; th )</text>
</g>
<!-- n788 -->
<g id="node4" class="node"><title>n788</title>
</g>
<!-- n785&#45;&gt;n788 -->
<g id="edge13" class="edge"><title>n785&#45;&gt;n788</title>
</g>
<!-- n788&#45;&gt;n794 -->
<g id="edge3" class="edge"><title>n788&#45;&gt;n794</title>
<path fill="none" stroke="lightgray" d="M186.581,-234C249.346,-234 409.36,-234 487.359,-234"/>
<polygon fill="lightgray" stroke="lightgray" points="487.802,-237.5 497.802,-234 487.802,-230.5 487.802,-237.5"/>
<text text-anchor="middle" x="344.994" y="-237.8" font-family="Times New Roman,serif" font-size="14.00" fill="lightgray">wff ( ps &#45;&gt; th )</text>
</g>
<!-- n789 -->
<g id="node5" class="node"><title>n789</title>
</g>
<!-- n788&#45;&gt;n789 -->
<g id="edge14" class="edge"><title>n788&#45;&gt;n789</title>
</g>
<!-- n789&#45;&gt;n794 -->
<g id="edge4" class="edge"><title>n789&#45;&gt;n794</title>
<path fill="none" stroke="lightgray" d="M186.525,-164.626C241.443,-170.534 372.925,-186.623 479.994,-215 484.986,-216.323 490.171,-217.938 495.245,-219.662"/>
<polygon fill="lightgray" stroke="lightgray" points="494.188,-223.001 504.782,-223.064 496.54,-216.408 494.188,-223.001"/>
<text text-anchor="middle" x="344.994" y="-218.8" font-family="Times New Roman,serif" font-size="14.00" fill="lightgray">wff ph</text>
</g>
<!-- n793 -->
<g id="node7" class="node"><title>n793</title>
<ellipse fill="cyan" stroke="black" cx="159.497" cy="-90" rx="32.4942" ry="18"/>
<text text-anchor="middle" x="159.497" y="-86.3" font-family="Times New Roman,serif" font-size="14.00">imim1</text>
</g>
<!-- n789&#45;&gt;n793 -->
<g id="edge15" class="edge"><title>n789&#45;&gt;n793</title>
</g>
<!-- n790 -->
<g id="node6" class="node"><title>n790</title>
</g>
<!-- n790&#45;&gt;n793 -->
<g id="edge5" class="edge"><title>n790&#45;&gt;n793</title>
<path fill="none" stroke="lightgray" d="M48.3902,-150.75C69.3662,-139.177 102.33,-120.989 126.728,-107.528"/>
<polygon fill="lightgray" stroke="lightgray" points="128.552,-110.519 135.617,-102.624 125.17,-104.39 128.552,-110.519"/>
<text text-anchor="middle" x="90.5" y="-140.8" font-family="Times New Roman,serif" font-size="14.00" fill="lightgray">wff ps</text>
</g>
<!-- n791 -->
<g id="node8" class="node"><title>n791</title>
</g>
<!-- n790&#45;&gt;n791 -->
<g id="edge9" class="edge"><title>n790&#45;&gt;n791</title>
</g>
<!-- n793&#45;&gt;n794 -->
<g id="edge8" class="edge"><title>n793&#45;&gt;n794</title>
<path fill="none" stroke="black" d="M191.798,-87.7608C252.904,-84.9898 389.962,-86.8009 479.994,-149 500.177,-162.943 513.812,-187.626 521.946,-206.813"/>
<polygon fill="black" stroke="black" points="518.756,-208.262 525.704,-216.26 525.26,-205.674 518.756,-208.262"/>
<text text-anchor="middle" x="344.994" y="-152.8" font-family="Times New Roman,serif" font-size="14.00">|&#45; ( ( ps &#45;&gt; ch ) &#45;&gt; ( ( ch &#45;&gt; th ) &#45;&gt; ( ps &#45;&gt; th ) ) )</text>
</g>
<!-- n791&#45;&gt;n793 -->
<g id="edge6" class="edge"><title>n791&#45;&gt;n793</title>
<path fill="none" stroke="lightgray" d="M54.0944,-90C72.0379,-90 96.2504,-90 116.841,-90"/>
<polygon fill="lightgray" stroke="lightgray" points="116.919,-93.5001 126.919,-90 116.919,-86.5001 116.919,-93.5001"/>
<text text-anchor="middle" x="90.5" y="-93.8" font-family="Times New Roman,serif" font-size="14.00" fill="lightgray">wff ch</text>
</g>
<!-- n792 -->
<g id="node9" class="node"><title>n792</title>
</g>
<!-- n791&#45;&gt;n792 -->
<g id="edge10" class="edge"><title>n791&#45;&gt;n792</title>
</g>
<!-- n792&#45;&gt;n793 -->
<g id="edge7" class="edge"><title>n792&#45;&gt;n793</title>
<path fill="none" stroke="lightgray" d="M48.3902,-29.25C69.3662,-40.8232 102.33,-59.0108 126.728,-72.4721"/>
<polygon fill="lightgray" stroke="lightgray" points="125.17,-75.6098 135.617,-77.3762 128.552,-69.4807 125.17,-75.6098"/>
<text text-anchor="middle" x="90.5" y="-66.8" font-family="Times New Roman,serif" font-size="14.00" fill="lightgray">wff th</text>
</g>
</g>
</svg>
