<?xml version="1.0" encoding="UTF-8" standalone="no"?>
<!DOCTYPE svg PUBLIC "-//W3C//DTD SVG 1.1//EN"
 "http://www.w3.org/Graphics/SVG/1.1/DTD/svg11.dtd">
<!-- Generated by graphviz version 2.38.0 (20140413.2041)
 -->
<!-- Title: proof_pm2_21d Pages: 1 -->
<svg width="760pt" height="367pt"
 viewBox="0.00 0.00 760.18 367.00" xmlns="http://www.w3.org/2000/svg" xmlns:xlink="http://www.w3.org/1999/xlink">
<g id="graph0" class="graph" transform="scale(1 1) rotate(0) translate(4 363)">
<title>proof_pm2_21d</title>
<polygon fill="white" stroke="none" points="-4,4 -4,-363 756.18,-363 756.18,4 -4,4"/>
<!-- n1195 -->
<g id="node1" class="node"><title>n1195</title>
</g>
<!-- n1205 -->
<g id="node2" class="node"><title>n1205</title>
<ellipse fill="cyan" stroke="black" cx="497.888" cy="-232" rx="33.5952" ry="18"/>
<text text-anchor="middle" x="497.888" y="-228.3" font-family="Times New Roman,serif" font-size="14.00">con4d</text>
</g>
<!-- n1195&#45;&gt;n1205 -->
<g id="edge1" class="edge"><title>n1195&#45;&gt;n1205</title>
<path fill="none" stroke="lightgray" d="M277.459,-336.811C316.001,-329.639 390.678,-312.533 446.091,-280 457.097,-273.538 467.635,-264.283 476.231,-255.621"/>
<polygon fill="lightgray" stroke="lightgray" points="478.89,-257.903 483.248,-248.246 473.819,-253.078 478.89,-257.903"/>
<text text-anchor="middle" x="371.091" y="-335.8" font-family="Times New Roman,serif" font-size="14.00" fill="lightgray">wff ph</text>
</g>
<!-- n1196 -->
<g id="node3" class="node"><title>n1196</title>
</g>
<!-- n1195&#45;&gt;n1196 -->
<g id="edge13" class="edge"><title>n1195&#45;&gt;n1196</title>
</g>
<!-- QED -->
<g id="node10" class="node"><title>QED</title>
</g>
<!-- n1205&#45;&gt;QED -->
<g id="edge12" class="edge"><title>n1205&#45;&gt;QED</title>
<path fill="none" stroke="black" d="M531.799,-232C572.212,-232 640.648,-232 683.454,-232"/>
<polygon fill="black" stroke="black" points="683.489,-235.5 693.489,-232 683.489,-228.5 683.489,-235.5"/>
<text text-anchor="middle" x="612.685" y="-235.8" font-family="Times New Roman,serif" font-size="14.00">|&#45; ( ph &#45;&gt; ( ps &#45;&gt; ch ) )</text>
</g>
<!-- n1196&#45;&gt;n1205 -->
<g id="edge2" class="edge"><title>n1196&#45;&gt;n1205</title>
<path fill="none" stroke="lightgray" d="M277.826,-265.11C319.973,-258.74 404.105,-246.024 454.959,-238.337"/>
<polygon fill="lightgray" stroke="lightgray" points="455.606,-241.779 464.971,-236.824 454.56,-234.858 455.606,-241.779"/>
<text text-anchor="middle" x="371.091" y="-264.8" font-family="Times New Roman,serif" font-size="14.00" fill="lightgray">wff ch</text>
</g>
<!-- n1197 -->
<g id="node4" class="node"><title>n1197</title>
</g>
<!-- n1196&#45;&gt;n1197 -->
<g id="edge14" class="edge"><title>n1196&#45;&gt;n1197</title>
</g>
<!-- n1197&#45;&gt;n1205 -->
<g id="edge3" class="edge"><title>n1197&#45;&gt;n1205</title>
<path fill="none" stroke="lightgray" d="M277.873,-200.105C315.086,-204.665 385.986,-213.652 446.091,-223 449.277,-223.496 452.572,-224.03 455.881,-224.582"/>
<polygon fill="lightgray" stroke="lightgray" points="455.314,-228.035 465.761,-226.271 456.494,-221.136 455.314,-228.035"/>
<text text-anchor="middle" x="371.091" y="-226.8" font-family="Times New Roman,serif" font-size="14.00" fill="lightgray">wff ps</text>
</g>
<!-- n1204 -->
<g id="node6" class="node"><title>n1204</title>
<ellipse fill="cyan" stroke="black" cx="251.091" cy="-125" rx="27" ry="18"/>
<text text-anchor="middle" x="251.091" y="-121.3" font-family="Times New Roman,serif" font-size="14.00">a1d</text>
</g>
<!-- n1197&#45;&gt;n1204 -->
<g id="edge15" class="edge"><title>n1197&#45;&gt;n1204</title>
</g>
<!-- n1198 -->
<g id="node5" class="node"><title>n1198</title>
</g>
<!-- n1198&#45;&gt;n1204 -->
<g id="edge4" class="edge"><title>n1198&#45;&gt;n1204</title>
<path fill="none" stroke="lightgray" d="M74.9969,-226.89C106.685,-216.817 163.498,-196.406 206.091,-168 214.575,-162.342 222.85,-154.924 229.892,-147.846"/>
<polygon fill="lightgray" stroke="lightgray" points="232.629,-150.048 237.002,-140.397 227.566,-145.214 232.629,-150.048"/>
<text text-anchor="middle" x="162.091" y="-213.8" font-family="Times New Roman,serif" font-size="14.00" fill="lightgray">wff ph</text>
</g>
<!-- n1200 -->
<g id="node7" class="node"><title>n1200</title>
</g>
<!-- n1198&#45;&gt;n1200 -->
<g id="edge9" class="edge"><title>n1198&#45;&gt;n1200</title>
</g>
<!-- n1204&#45;&gt;n1205 -->
<g id="edge8" class="edge"><title>n1204&#45;&gt;n1205</title>
<path fill="none" stroke="black" d="M277.823,-128.697C316.515,-135.106 391.007,-150.803 446.091,-183 457.219,-189.504 467.778,-198.936 476.357,-207.791"/>
<polygon fill="black" stroke="black" points="473.986,-210.382 483.351,-215.337 479.12,-205.624 473.986,-210.382"/>
<text text-anchor="middle" x="371.091" y="-186.8" font-family="Times New Roman,serif" font-size="14.00">|&#45; ( ph &#45;&gt; ( &#45;. ch &#45;&gt; &#45;. ps ) )</text>
</g>
<!-- n1200&#45;&gt;n1204 -->
<g id="edge5" class="edge"><title>n1200&#45;&gt;n1204</title>
<path fill="none" stroke="lightgray" d="M76.2548,-157.314C111.305,-150.798 174.927,-138.972 214.715,-131.576"/>
<polygon fill="lightgray" stroke="lightgray" points="215.581,-134.975 224.773,-129.706 214.302,-128.093 215.581,-134.975"/>
<text text-anchor="middle" x="162.091" y="-152.8" font-family="Times New Roman,serif" font-size="14.00" fill="lightgray">wff &#45;. ps</text>
</g>
<!-- n1202 -->
<g id="node8" class="node"><title>n1202</title>
</g>
<!-- n1200&#45;&gt;n1202 -->
<g id="edge10" class="edge"><title>n1200&#45;&gt;n1202</title>
</g>
<!-- n1202&#45;&gt;n1204 -->
<g id="edge6" class="edge"><title>n1202&#45;&gt;n1204</title>
<path fill="none" stroke="lightgray" d="M76.6098,-94.0008C107.385,-98.8832 160.609,-107.538 206.091,-116 208.966,-116.535 211.942,-117.106 214.929,-117.692"/>
<polygon fill="lightgray" stroke="lightgray" points="214.499,-121.175 224.992,-119.705 215.873,-114.311 214.499,-121.175"/>
<text text-anchor="middle" x="162.091" y="-119.8" font-family="Times New Roman,serif" font-size="14.00" fill="lightgray">wff &#45;. ch</text>
</g>
<!-- n1203 -->
<g id="node9" class="node"><title>n1203</title>
<ellipse fill="orange" stroke="black" cx="50.0456" cy="-18" rx="50.0912" ry="18"/>
<text text-anchor="middle" x="50.0456" y="-14.3" font-family="Times New Roman,serif" font-size="14.00">pm2.21d.1</text>
</g>
<!-- n1202&#45;&gt;n1203 -->
<g id="edge11" class="edge"><title>n1202&#45;&gt;n1203</title>
</g>
<!-- n1203&#45;&gt;n1204 -->
<g id="edge7" class="edge"><title>n1203&#45;&gt;n1204</title>
<path fill="none" stroke="black" d="M88.9642,-29.5447C121.585,-40.4648 169.093,-58.7832 206.091,-83 214.397,-88.4364 222.535,-95.5432 229.51,-102.361"/>
<polygon fill="black" stroke="black" points="227.069,-104.871 236.574,-109.552 232.063,-99.9654 227.069,-104.871"/>
<text text-anchor="middle" x="162.091" y="-86.8" font-family="Times New Roman,serif" font-size="14.00">|&#45; ( ph &#45;&gt; &#45;. ps )</text>
</g>
</g>
</svg>
