<?xml version="1.0" encoding="UTF-8" standalone="no"?>
<!DOCTYPE svg PUBLIC "-//W3C//DTD SVG 1.1//EN"
 "http://www.w3.org/Graphics/SVG/1.1/DTD/svg11.dtd">
<!-- Generated by graphviz version 2.38.0 (20140413.2041)
 -->
<!-- Title: proof_pm2_67_2 Pages: 1 -->
<svg width="731pt" height="295pt"
 viewBox="0.00 0.00 731.39 295.00" xmlns="http://www.w3.org/2000/svg" xmlns:xlink="http://www.w3.org/1999/xlink">
<g id="graph0" class="graph" transform="scale(1 1) rotate(0) translate(4 291)">
<title>proof_pm2_67_2</title>
<polygon fill="white" stroke="none" points="-4,4 -4,-291 727.389,-291 727.389,4 -4,4"/>
<!-- n7454 -->
<g id="node1" class="node"><title>n7454</title>
</g>
<!-- n7462 -->
<g id="node2" class="node"><title>n7462</title>
<ellipse fill="cyan" stroke="black" cx="372.447" cy="-160" rx="34.394" ry="18"/>
<text text-anchor="middle" x="372.447" y="-156.3" font-family="Times New Roman,serif" font-size="14.00">imim1i</text>
</g>
<!-- n7454&#45;&gt;n7462 -->
<g id="edge1" class="edge"><title>n7454&#45;&gt;n7462</title>
<path fill="none" stroke="lightgray" d="M179.579,-263.189C213.068,-254.565 274.114,-236.287 320,-208 330.777,-201.356 341.26,-192.225 349.921,-183.709"/>
<polygon fill="lightgray" stroke="lightgray" points="352.524,-186.053 357.025,-176.461 347.525,-181.153 352.524,-186.053"/>
<text text-anchor="middle" x="259.5" y="-260.8" font-family="Times New Roman,serif" font-size="14.00" fill="lightgray">wff ph</text>
</g>
<!-- n7457 -->
<g id="node3" class="node"><title>n7457</title>
</g>
<!-- n7454&#45;&gt;n7457 -->
<g id="edge9" class="edge"><title>n7454&#45;&gt;n7457</title>
</g>
<!-- QED -->
<g id="node8" class="node"><title>QED</title>
</g>
<!-- n7462&#45;&gt;QED -->
<g id="edge8" class="edge"><title>n7462&#45;&gt;QED</title>
<path fill="none" stroke="black" d="M407.056,-160C466.765,-160 590.994,-160 654.277,-160"/>
<polygon fill="black" stroke="black" points="654.623,-163.5 664.623,-160 654.623,-156.5 654.623,-163.5"/>
<text text-anchor="middle" x="535.894" y="-163.8" font-family="Times New Roman,serif" font-size="14.00">|&#45; ( ( ( ph \/ ch ) &#45;&gt; ps ) &#45;&gt; ( ph &#45;&gt; ps ) )</text>
</g>
<!-- n7457&#45;&gt;n7462 -->
<g id="edge2" class="edge"><title>n7457&#45;&gt;n7462</title>
<path fill="none" stroke="lightgray" d="M180.253,-192.683C216.877,-186.423 285.183,-174.746 329.458,-167.178"/>
<polygon fill="lightgray" stroke="lightgray" points="330.073,-170.623 339.34,-165.488 328.893,-163.724 330.073,-170.623"/>
<text text-anchor="middle" x="259.5" y="-192.8" font-family="Times New Roman,serif" font-size="14.00" fill="lightgray">wff ( ph \/ ch )</text>
</g>
<!-- n7458 -->
<g id="node4" class="node"><title>n7458</title>
</g>
<!-- n7457&#45;&gt;n7458 -->
<g id="edge10" class="edge"><title>n7457&#45;&gt;n7458</title>
</g>
<!-- n7458&#45;&gt;n7462 -->
<g id="edge3" class="edge"><title>n7458&#45;&gt;n7462</title>
<path fill="none" stroke="lightgray" d="M180.461,-128.876C212.892,-133.843 270.653,-142.796 320,-151 323.175,-151.528 326.459,-152.082 329.761,-152.646"/>
<polygon fill="lightgray" stroke="lightgray" points="329.177,-156.097 339.626,-154.347 330.366,-149.199 329.177,-156.097"/>
<text text-anchor="middle" x="259.5" y="-154.8" font-family="Times New Roman,serif" font-size="14.00" fill="lightgray">wff ps</text>
</g>
<!-- n7461 -->
<g id="node6" class="node"><title>n7461</title>
<ellipse fill="cyan" stroke="black" cx="154" cy="-53" rx="27" ry="18"/>
<text text-anchor="middle" x="154" y="-49.3" font-family="Times New Roman,serif" font-size="14.00">orc</text>
</g>
<!-- n7458&#45;&gt;n7461 -->
<g id="edge11" class="edge"><title>n7458&#45;&gt;n7461</title>
</g>
<!-- n7459 -->
<g id="node5" class="node"><title>n7459</title>
</g>
<!-- n7459&#45;&gt;n7461 -->
<g id="edge4" class="edge"><title>n7459&#45;&gt;n7461</title>
<path fill="none" stroke="lightgray" d="M52.1013,-82.866C71.2097,-77.2099 98.1365,-69.2396 119.368,-62.9551"/>
<polygon fill="lightgray" stroke="lightgray" points="120.377,-66.3065 128.973,-60.1121 118.391,-59.5943 120.377,-66.3065"/>
<text text-anchor="middle" x="90.5" y="-80.8" font-family="Times New Roman,serif" font-size="14.00" fill="lightgray">wff ph</text>
</g>
<!-- n7460 -->
<g id="node7" class="node"><title>n7460</title>
</g>
<!-- n7459&#45;&gt;n7460 -->
<g id="edge7" class="edge"><title>n7459&#45;&gt;n7460</title>
</g>
<!-- n7461&#45;&gt;n7462 -->
<g id="edge6" class="edge"><title>n7461&#45;&gt;n7462</title>
<path fill="none" stroke="black" d="M179.493,-58.9519C212.884,-67.7381 273.817,-86.2009 320,-114 330.374,-120.245 340.575,-128.728 349.123,-136.709"/>
<polygon fill="black" stroke="black" points="346.847,-139.377 356.466,-143.819 351.717,-134.348 346.847,-139.377"/>
<text text-anchor="middle" x="259.5" y="-117.8" font-family="Times New Roman,serif" font-size="14.00">|&#45; ( ph &#45;&gt; ( ph \/ ch ) )</text>
</g>
<!-- n7460&#45;&gt;n7461 -->
<g id="edge5" class="edge"><title>n7460&#45;&gt;n7461</title>
<path fill="none" stroke="lightgray" d="M52.1013,-24.7484C71.0013,-30.0404 97.5501,-37.474 118.671,-43.3879"/>
<polygon fill="lightgray" stroke="lightgray" points="117.973,-46.8269 128.546,-46.1529 119.86,-40.0862 117.973,-46.8269"/>
<text text-anchor="middle" x="90.5" y="-44.8" font-family="Times New Roman,serif" font-size="14.00" fill="lightgray">wff ch</text>
</g>
</g>
</svg>
