<?xml version="1.0" encoding="UTF-8" standalone="no"?>
<!DOCTYPE svg PUBLIC "-//W3C//DTD SVG 1.1//EN"
 "http://www.w3.org/Graphics/SVG/1.1/DTD/svg11.dtd">
<!-- Generated by graphviz version 2.38.0 (20140413.2041)
 -->
<!-- Title: proof_pm2_07 Pages: 1 -->
<svg width="405pt" height="116pt"
 viewBox="0.00 0.00 405.49 116.00" xmlns="http://www.w3.org/2000/svg" xmlns:xlink="http://www.w3.org/1999/xlink">
<g id="graph0" class="graph" transform="scale(1 1) rotate(0) translate(4 112)">
<title>proof_pm2_07</title>
<polygon fill="white" stroke="none" points="-4,4 -4,-112 401.495,-112 401.495,4 -4,4"/>
<!-- n7401 -->
<g id="node1" class="node"><title>n7401</title>
</g>
<!-- n7403 -->
<g id="node2" class="node"><title>n7403</title>
<ellipse fill="cyan" stroke="black" cx="154" cy="-58" rx="27" ry="18"/>
<text text-anchor="middle" x="154" y="-54.3" font-family="Times New Roman,serif" font-size="14.00">olc</text>
</g>
<!-- n7401&#45;&gt;n7403 -->
<g id="edge1" class="edge"><title>n7401&#45;&gt;n7403</title>
<path fill="none" stroke="lightgray" d="M52.398,-83.7541C71.326,-78.9085 97.7933,-72.1329 118.83,-66.7476"/>
<polygon fill="lightgray" stroke="lightgray" points="119.844,-70.1009 128.664,-64.2301 118.108,-63.3196 119.844,-70.1009"/>
<text text-anchor="middle" x="90.5" y="-81.8" font-family="Times New Roman,serif" font-size="14.00" fill="lightgray">wff ph</text>
</g>
<!-- n7402 -->
<g id="node3" class="node"><title>n7402</title>
</g>
<!-- n7401&#45;&gt;n7402 -->
<g id="edge4" class="edge"><title>n7401&#45;&gt;n7402</title>
</g>
<!-- QED -->
<g id="node4" class="node"><title>QED</title>
</g>
<!-- n7403&#45;&gt;QED -->
<g id="edge3" class="edge"><title>n7403&#45;&gt;QED</title>
<path fill="none" stroke="black" d="M181.026,-58C218.045,-58 286.153,-58 328.944,-58"/>
<polygon fill="black" stroke="black" points="328.98,-61.5001 338.98,-58 328.98,-54.5001 328.98,-61.5001"/>
<text text-anchor="middle" x="260" y="-61.8" font-family="Times New Roman,serif" font-size="14.00">|&#45; ( ph &#45;&gt; ( ph \/ ph ) )</text>
</g>
<!-- n7402&#45;&gt;n7403 -->
<g id="edge2" class="edge"><title>n7402&#45;&gt;n7403</title>
<path fill="none" stroke="lightgray" d="M51.8058,-25.6178C71.0071,-31.7623 98.2415,-40.4773 119.621,-47.3187"/>
<polygon fill="lightgray" stroke="lightgray" points="118.692,-50.6962 129.283,-50.4105 120.825,-44.0292 118.692,-50.6962"/>
<text text-anchor="middle" x="90.5" y="-47.8" font-family="Times New Roman,serif" font-size="14.00" fill="lightgray">wff ph</text>
</g>
</g>
</svg>
