<?xml version="1.0" encoding="UTF-8" standalone="no"?>
<!DOCTYPE svg PUBLIC "-//W3C//DTD SVG 1.1//EN"
 "http://www.w3.org/Graphics/SVG/1.1/DTD/svg11.dtd">
<!-- Generated by graphviz version 2.38.0 (20140413.2041)
 -->
<!-- Title: proof_pm3_14 Pages: 1 -->
<svg width="798pt" height="223pt"
 viewBox="0.00 0.00 798.18 223.00" xmlns="http://www.w3.org/2000/svg" xmlns:xlink="http://www.w3.org/1999/xlink">
<g id="graph0" class="graph" transform="scale(1 1) rotate(0) translate(4 219)">
<title>proof_pm3_14</title>
<polygon fill="white" stroke="none" points="-4,4 -4,-219 794.183,-219 794.183,4 -4,4"/>
<!-- n8656 -->
<g id="node1" class="node"><title>n8656</title>
</g>
<!-- n8665 -->
<g id="node2" class="node"><title>n8665</title>
<ellipse fill="cyan" stroke="black" cx="463.141" cy="-125" rx="30.5947" ry="18"/>
<text text-anchor="middle" x="463.141" y="-121.3" font-family="Times New Roman,serif" font-size="14.00">con2i</text>
</g>
<!-- n8656&#45;&gt;n8665 -->
<g id="edge1" class="edge"><title>n8656&#45;&gt;n8665</title>
<path fill="none" stroke="lightgray" d="M187.278,-193.162C233.289,-185.901 333.034,-168.642 414.594,-144 419.242,-142.596 424.072,-140.925 428.793,-139.167"/>
<polygon fill="lightgray" stroke="lightgray" points="430.192,-142.379 438.241,-135.49 427.653,-135.855 430.192,-142.379"/>
<text text-anchor="middle" x="313.594" y="-191.8" font-family="Times New Roman,serif" font-size="14.00" fill="lightgray">wff ( ph /\ ps )</text>
</g>
<!-- n8661 -->
<g id="node3" class="node"><title>n8661</title>
</g>
<!-- n8656&#45;&gt;n8661 -->
<g id="edge8" class="edge"><title>n8656&#45;&gt;n8661</title>
</g>
<!-- QED -->
<g id="node7" class="node"><title>QED</title>
</g>
<!-- n8665&#45;&gt;QED -->
<g id="edge7" class="edge"><title>n8665&#45;&gt;QED</title>
<path fill="none" stroke="black" d="M493.858,-125C547.757,-125 661.585,-125 721.383,-125"/>
<polygon fill="black" stroke="black" points="721.546,-128.5 731.546,-125 721.546,-121.5 721.546,-128.5"/>
<text text-anchor="middle" x="612.689" y="-128.8" font-family="Times New Roman,serif" font-size="14.00">|&#45; ( ( &#45;. ph \/ &#45;. ps ) &#45;&gt; &#45;. ( ph /\ ps ) )</text>
</g>
<!-- n8661&#45;&gt;n8665 -->
<g id="edge2" class="edge"><title>n8661&#45;&gt;n8665</title>
<path fill="none" stroke="lightgray" d="M187.925,-125C240.542,-125 359.562,-125 422.075,-125"/>
<polygon fill="lightgray" stroke="lightgray" points="422.334,-128.5 432.334,-125 422.334,-121.5 422.334,-128.5"/>
<text text-anchor="middle" x="313.594" y="-128.8" font-family="Times New Roman,serif" font-size="14.00" fill="lightgray">wff ( &#45;. ph \/ &#45;. ps )</text>
</g>
<!-- n8664 -->
<g id="node5" class="node"><title>n8664</title>
<ellipse fill="cyan" stroke="black" cx="160.797" cy="-53" rx="33.5952" ry="18"/>
<text text-anchor="middle" x="160.797" y="-49.3" font-family="Times New Roman,serif" font-size="14.00">pm3.1</text>
</g>
<!-- n8661&#45;&gt;n8664 -->
<g id="edge9" class="edge"><title>n8661&#45;&gt;n8664</title>
</g>
<!-- n8662 -->
<g id="node4" class="node"><title>n8662</title>
</g>
<!-- n8662&#45;&gt;n8664 -->
<g id="edge3" class="edge"><title>n8662&#45;&gt;n8664</title>
<path fill="none" stroke="lightgray" d="M52.1736,-83.2136C71.249,-77.8585 98.2484,-70.2788 120.432,-64.0512"/>
<polygon fill="lightgray" stroke="lightgray" points="121.558,-67.3704 130.24,-61.2978 119.666,-60.631 121.558,-67.3704"/>
<text text-anchor="middle" x="90.5" y="-80.8" font-family="Times New Roman,serif" font-size="14.00" fill="lightgray">wff ph</text>
</g>
<!-- n8663 -->
<g id="node6" class="node"><title>n8663</title>
</g>
<!-- n8662&#45;&gt;n8663 -->
<g id="edge6" class="edge"><title>n8662&#45;&gt;n8663</title>
</g>
<!-- n8664&#45;&gt;n8665 -->
<g id="edge5" class="edge"><title>n8664&#45;&gt;n8665</title>
<path fill="none" stroke="black" d="M193.37,-57.8084C241.656,-65.5659 336.469,-82.3957 414.594,-106 419.242,-107.404 424.072,-109.075 428.793,-110.833"/>
<polygon fill="black" stroke="black" points="427.653,-114.145 438.241,-114.51 430.192,-107.621 427.653,-114.145"/>
<text text-anchor="middle" x="313.594" y="-109.8" font-family="Times New Roman,serif" font-size="14.00">|&#45; ( ( ph /\ ps ) &#45;&gt; &#45;. ( &#45;. ph \/ &#45;. ps ) )</text>
</g>
<!-- n8663&#45;&gt;n8664 -->
<g id="edge4" class="edge"><title>n8663&#45;&gt;n8664</title>
<path fill="none" stroke="lightgray" d="M52.4811,-24.5012C71.4605,-29.5414 98.1482,-36.6285 120.161,-42.4743"/>
<polygon fill="lightgray" stroke="lightgray" points="119.338,-45.8771 129.902,-45.061 121.135,-39.1116 119.338,-45.8771"/>
<text text-anchor="middle" x="90.5" y="-42.8" font-family="Times New Roman,serif" font-size="14.00" fill="lightgray">wff ps</text>
</g>
</g>
</svg>
