<?xml version="1.0" encoding="UTF-8" standalone="no"?>
<!DOCTYPE svg PUBLIC "-//W3C//DTD SVG 1.1//EN"
 "http://www.w3.org/Graphics/SVG/1.1/DTD/svg11.dtd">
<!-- Generated by graphviz version 2.38.0 (20140413.2041)
 -->
<!-- Title: proof_pm3_34 Pages: 1 -->
<svg width="933pt" height="332pt"
 viewBox="0.00 0.00 933.49 332.00" xmlns="http://www.w3.org/2000/svg" xmlns:xlink="http://www.w3.org/1999/xlink">
<g id="graph0" class="graph" transform="scale(1 1) rotate(0) translate(4 328)">
<title>proof_pm3_34</title>
<polygon fill="white" stroke="none" points="-4,4 -4,-328 929.489,-328 929.489,4 -4,4"/>
<!-- n10128 -->
<g id="node1" class="node"><title>n10128</title>
</g>
<!-- n10139 -->
<g id="node2" class="node"><title>n10139</title>
<ellipse fill="cyan" stroke="black" cx="531.994" cy="-197" rx="27" ry="18"/>
<text text-anchor="middle" x="531.994" y="-193.3" font-family="Times New Roman,serif" font-size="14.00">imp</text>
</g>
<!-- n10128&#45;&gt;n10139 -->
<g id="edge1" class="edge"><title>n10128&#45;&gt;n10139</title>
<path fill="none" stroke="lightgray" d="M186.601,-307.073C244.649,-308.299 387.172,-304.807 486.994,-248 497.999,-241.737 507.567,-231.648 514.943,-222.09"/>
<polygon fill="lightgray" stroke="lightgray" points="517.816,-224.09 520.843,-213.937 512.145,-219.986 517.816,-224.09"/>
<text text-anchor="middle" x="348.494" y="-310.8" font-family="Times New Roman,serif" font-size="14.00" fill="lightgray">wff ( ps &#45;&gt; ch )</text>
</g>
<!-- n10131 -->
<g id="node3" class="node"><title>n10131</title>
</g>
<!-- n10128&#45;&gt;n10131 -->
<g id="edge11" class="edge"><title>n10128&#45;&gt;n10131</title>
</g>
<!-- QED -->
<g id="node9" class="node"><title>QED</title>
</g>
<!-- n10139&#45;&gt;QED -->
<g id="edge10" class="edge"><title>n10139&#45;&gt;QED</title>
<path fill="none" stroke="black" d="M559.046,-197C621.977,-197 782.54,-197 856.666,-197"/>
<polygon fill="black" stroke="black" points="856.953,-200.5 866.953,-197 856.953,-193.5 856.953,-200.5"/>
<text text-anchor="middle" x="712.994" y="-200.8" font-family="Times New Roman,serif" font-size="14.00">|&#45; ( ( ( ps &#45;&gt; ch ) /\ ( ph &#45;&gt; ps ) ) &#45;&gt; ( ph &#45;&gt; ch ) )</text>
</g>
<!-- n10131&#45;&gt;n10139 -->
<g id="edge2" class="edge"><title>n10131&#45;&gt;n10139</title>
<path fill="none" stroke="lightgray" d="M186.353,-231.907C241.612,-227.353 375.285,-215.914 486.994,-203 489.701,-202.687 492.499,-202.346 495.312,-201.991"/>
<polygon fill="lightgray" stroke="lightgray" points="495.963,-205.436 505.423,-200.667 495.054,-198.495 495.963,-205.436"/>
<text text-anchor="middle" x="348.494" y="-232.8" font-family="Times New Roman,serif" font-size="14.00" fill="lightgray">wff ( ph &#45;&gt; ps )</text>
</g>
<!-- n10134 -->
<g id="node4" class="node"><title>n10134</title>
</g>
<!-- n10131&#45;&gt;n10134 -->
<g id="edge12" class="edge"><title>n10131&#45;&gt;n10134</title>
</g>
<!-- n10134&#45;&gt;n10139 -->
<g id="edge3" class="edge"><title>n10134&#45;&gt;n10139</title>
<path fill="none" stroke="lightgray" d="M186.856,-163.005C242.525,-165.367 376.08,-172.3 486.994,-188 489.889,-188.41 492.88,-188.893 495.877,-189.418"/>
<polygon fill="lightgray" stroke="lightgray" points="495.48,-192.905 505.957,-191.327 496.783,-186.028 495.48,-192.905"/>
<text text-anchor="middle" x="348.494" y="-191.8" font-family="Times New Roman,serif" font-size="14.00" fill="lightgray">wff ( ph &#45;&gt; ch )</text>
</g>
<!-- n10138 -->
<g id="node6" class="node"><title>n10138</title>
<ellipse fill="cyan" stroke="black" cx="159.497" cy="-90" rx="32.4942" ry="18"/>
<text text-anchor="middle" x="159.497" y="-86.3" font-family="Times New Roman,serif" font-size="14.00">imim2</text>
</g>
<!-- n10134&#45;&gt;n10138 -->
<g id="edge13" class="edge"><title>n10134&#45;&gt;n10138</title>
</g>
<!-- n10135 -->
<g id="node5" class="node"><title>n10135</title>
</g>
<!-- n10135&#45;&gt;n10138 -->
<g id="edge4" class="edge"><title>n10135&#45;&gt;n10138</title>
<path fill="none" stroke="lightgray" d="M48.3902,-150.75C69.3662,-139.177 102.33,-120.989 126.728,-107.528"/>
<polygon fill="lightgray" stroke="lightgray" points="128.552,-110.519 135.617,-102.624 125.17,-104.39 128.552,-110.519"/>
<text text-anchor="middle" x="90.5" y="-140.8" font-family="Times New Roman,serif" font-size="14.00" fill="lightgray">wff ps</text>
</g>
<!-- n10136 -->
<g id="node7" class="node"><title>n10136</title>
</g>
<!-- n10135&#45;&gt;n10136 -->
<g id="edge8" class="edge"><title>n10135&#45;&gt;n10136</title>
</g>
<!-- n10138&#45;&gt;n10139 -->
<g id="edge7" class="edge"><title>n10138&#45;&gt;n10139</title>
<path fill="none" stroke="black" d="M192.094,-88.391C253.265,-86.6992 390.342,-89.9539 486.994,-145 498.28,-151.428 507.981,-161.911 515.379,-171.787"/>
<polygon fill="black" stroke="black" points="512.665,-174.012 521.27,-180.193 518.397,-169.995 512.665,-174.012"/>
<text text-anchor="middle" x="348.494" y="-148.8" font-family="Times New Roman,serif" font-size="14.00">|&#45; ( ( ps &#45;&gt; ch ) &#45;&gt; ( ( ph &#45;&gt; ps ) &#45;&gt; ( ph &#45;&gt; ch ) ) )</text>
</g>
<!-- n10136&#45;&gt;n10138 -->
<g id="edge5" class="edge"><title>n10136&#45;&gt;n10138</title>
<path fill="none" stroke="lightgray" d="M54.0944,-90C72.0379,-90 96.2504,-90 116.841,-90"/>
<polygon fill="lightgray" stroke="lightgray" points="116.919,-93.5001 126.919,-90 116.919,-86.5001 116.919,-93.5001"/>
<text text-anchor="middle" x="90.5" y="-93.8" font-family="Times New Roman,serif" font-size="14.00" fill="lightgray">wff ch</text>
</g>
<!-- n10137 -->
<g id="node8" class="node"><title>n10137</title>
</g>
<!-- n10136&#45;&gt;n10137 -->
<g id="edge9" class="edge"><title>n10136&#45;&gt;n10137</title>
</g>
<!-- n10137&#45;&gt;n10138 -->
<g id="edge6" class="edge"><title>n10137&#45;&gt;n10138</title>
<path fill="none" stroke="lightgray" d="M48.3902,-29.25C69.3662,-40.8232 102.33,-59.0108 126.728,-72.4721"/>
<polygon fill="lightgray" stroke="lightgray" points="125.17,-75.6098 135.617,-77.3762 128.552,-69.4807 125.17,-75.6098"/>
<text text-anchor="middle" x="90.5" y="-66.8" font-family="Times New Roman,serif" font-size="14.00" fill="lightgray">wff ph</text>
</g>
</g>
</svg>
