<?xml version="1.0" encoding="UTF-8" standalone="no"?>
<!DOCTYPE svg PUBLIC "-//W3C//DTD SVG 1.1//EN"
 "http://www.w3.org/Graphics/SVG/1.1/DTD/svg11.dtd">
<!-- Generated by graphviz version 2.38.0 (20140413.2041)
 -->
<!-- Title: proof_pm3_31 Pages: 1 -->
<svg width="1034pt" height="332pt"
 viewBox="0.00 0.00 1034.49 332.00" xmlns="http://www.w3.org/2000/svg" xmlns:xlink="http://www.w3.org/1999/xlink">
<g id="graph0" class="graph" transform="scale(1 1) rotate(0) translate(4 328)">
<title>proof_pm3_31</title>
<polygon fill="white" stroke="none" points="-4,4 -4,-328 1030.49,-328 1030.49,4 -4,4"/>
<!-- n7955 -->
<g id="node1" class="node"><title>n7955</title>
</g>
<!-- n7965 -->
<g id="node2" class="node"><title>n7965</title>
<ellipse fill="cyan" stroke="black" cx="627.497" cy="-162" rx="32.4942" ry="18"/>
<text text-anchor="middle" x="627.497" y="-158.3" font-family="Times New Roman,serif" font-size="14.00">imp3a</text>
</g>
<!-- n7955&#45;&gt;n7965 -->
<g id="edge1" class="edge"><title>n7955&#45;&gt;n7965</title>
<path fill="none" stroke="lightgray" d="M282.068,-308.251C340.565,-311.936 484.402,-313.224 577,-248 597.029,-233.892 610.08,-208.92 617.724,-189.507"/>
<polygon fill="lightgray" stroke="lightgray" points="621.073,-190.542 621.238,-179.949 614.502,-188.127 621.073,-190.542"/>
<text text-anchor="middle" x="438.5" y="-312.8" font-family="Times New Roman,serif" font-size="14.00" fill="lightgray">wff ( ph &#45;&gt; ( ps &#45;&gt; ch ) )</text>
</g>
<!-- n7956 -->
<g id="node3" class="node"><title>n7956</title>
</g>
<!-- n7955&#45;&gt;n7956 -->
<g id="edge8" class="edge"><title>n7955&#45;&gt;n7956</title>
</g>
<!-- QED -->
<g id="node8" class="node"><title>QED</title>
</g>
<!-- n7965&#45;&gt;QED -->
<g id="edge7" class="edge"><title>n7965&#45;&gt;QED</title>
<path fill="none" stroke="black" d="M660.169,-162C727.421,-162 884.296,-162 957.427,-162"/>
<polygon fill="black" stroke="black" points="957.588,-165.5 967.588,-162 957.588,-158.5 957.588,-165.5"/>
<text text-anchor="middle" x="813.994" y="-165.8" font-family="Times New Roman,serif" font-size="14.00">|&#45; ( ( ph &#45;&gt; ( ps &#45;&gt; ch ) ) &#45;&gt; ( ( ph /\ ps ) &#45;&gt; ch ) )</text>
</g>
<!-- n7956&#45;&gt;n7965 -->
<g id="edge2" class="edge"><title>n7956&#45;&gt;n7965</title>
<path fill="none" stroke="lightgray" d="M281.761,-231.54C336.741,-225.902 469.341,-210.225 577,-181 581.8,-179.697 586.778,-178.098 591.646,-176.385"/>
<polygon fill="lightgray" stroke="lightgray" points="593.233,-179.53 601.391,-172.77 590.798,-172.967 593.233,-179.53"/>
<text text-anchor="middle" x="438.5" y="-232.8" font-family="Times New Roman,serif" font-size="14.00" fill="lightgray">wff ph</text>
</g>
<!-- n7957 -->
<g id="node4" class="node"><title>n7957</title>
</g>
<!-- n7956&#45;&gt;n7957 -->
<g id="edge9" class="edge"><title>n7956&#45;&gt;n7957</title>
</g>
<!-- n7957&#45;&gt;n7965 -->
<g id="edge3" class="edge"><title>n7957&#45;&gt;n7965</title>
<path fill="none" stroke="lightgray" d="M282.053,-162C345.293,-162 507.378,-162 584.502,-162"/>
<polygon fill="lightgray" stroke="lightgray" points="584.801,-165.5 594.801,-162 584.801,-158.5 584.801,-165.5"/>
<text text-anchor="middle" x="438.5" y="-165.8" font-family="Times New Roman,serif" font-size="14.00" fill="lightgray">wff ps</text>
</g>
<!-- n7958 -->
<g id="node5" class="node"><title>n7958</title>
</g>
<!-- n7957&#45;&gt;n7958 -->
<g id="edge10" class="edge"><title>n7957&#45;&gt;n7958</title>
</g>
<!-- n7958&#45;&gt;n7965 -->
<g id="edge4" class="edge"><title>n7958&#45;&gt;n7965</title>
<path fill="none" stroke="lightgray" d="M281.761,-92.4596C336.741,-98.0981 469.341,-113.775 577,-143 581.8,-144.303 586.778,-145.902 591.646,-147.615"/>
<polygon fill="lightgray" stroke="lightgray" points="590.798,-151.033 601.391,-151.23 593.233,-144.47 590.798,-151.033"/>
<text text-anchor="middle" x="438.5" y="-146.8" font-family="Times New Roman,serif" font-size="14.00" fill="lightgray">wff ch</text>
</g>
<!-- n7964 -->
<g id="node7" class="node"><title>n7964</title>
<ellipse fill="cyan" stroke="black" cx="255" cy="-18" rx="27" ry="18"/>
<text text-anchor="middle" x="255" y="-14.3" font-family="Times New Roman,serif" font-size="14.00">id</text>
</g>
<!-- n7958&#45;&gt;n7964 -->
<g id="edge11" class="edge"><title>n7958&#45;&gt;n7964</title>
</g>
<!-- n7963 -->
<g id="node6" class="node"><title>n7963</title>
</g>
<!-- n7963&#45;&gt;n7964 -->
<g id="edge5" class="edge"><title>n7963&#45;&gt;n7964</title>
<path fill="none" stroke="lightgray" d="M54.3674,-18C94.7682,-18 172.093,-18 217.742,-18"/>
<polygon fill="lightgray" stroke="lightgray" points="217.801,-21.5001 227.801,-18 217.801,-14.5001 217.801,-21.5001"/>
<text text-anchor="middle" x="141" y="-21.8" font-family="Times New Roman,serif" font-size="14.00" fill="lightgray">wff ( ph &#45;&gt; ( ps &#45;&gt; ch ) )</text>
</g>
<!-- n7964&#45;&gt;n7965 -->
<g id="edge6" class="edge"><title>n7964&#45;&gt;n7965</title>
<path fill="none" stroke="black" d="M282.068,-15.7488C340.565,-12.0643 484.402,-10.7765 577,-76 597.029,-90.1077 610.08,-115.08 617.724,-134.493"/>
<polygon fill="black" stroke="black" points="614.502,-135.873 621.238,-144.051 621.073,-133.458 614.502,-135.873"/>
<text text-anchor="middle" x="438.5" y="-79.8" font-family="Times New Roman,serif" font-size="14.00">|&#45; ( ( ph &#45;&gt; ( ps &#45;&gt; ch ) ) &#45;&gt; ( ph &#45;&gt; ( ps &#45;&gt; ch ) ) )</text>
</g>
</g>
</svg>
