<?xml version="1.0" encoding="UTF-8" standalone="no"?>
<!DOCTYPE svg PUBLIC "-//W3C//DTD SVG 1.1//EN"
 "http://www.w3.org/Graphics/SVG/1.1/DTD/svg11.dtd">
<!-- Generated by graphviz version 2.38.0 (20140413.2041)
 -->
<!-- Title: proof_pm3_11 Pages: 1 -->
<svg width="805pt" height="223pt"
 viewBox="0.00 0.00 805.29 223.00" xmlns="http://www.w3.org/2000/svg" xmlns:xlink="http://www.w3.org/1999/xlink">
<g id="graph0" class="graph" transform="scale(1 1) rotate(0) translate(4 219)">
<title>proof_pm3_11</title>
<polygon fill="white" stroke="none" points="-4,4 -4,-219 801.288,-219 801.288,4 -4,4"/>
<!-- n8619 -->
<g id="node1" class="node"><title>n8619</title>
</g>
<!-- n8629 -->
<g id="node2" class="node"><title>n8629</title>
<ellipse fill="cyan" stroke="black" cx="464.397" cy="-125" rx="36.2938" ry="18"/>
<text text-anchor="middle" x="464.397" y="-121.3" font-family="Times New Roman,serif" font-size="14.00">biimpri</text>
</g>
<!-- n8619&#45;&gt;n8629 -->
<g id="edge1" class="edge"><title>n8619&#45;&gt;n8629</title>
<path fill="none" stroke="lightgray" d="M180.613,-192.873C226.882,-185.155 327.279,-167.196 410,-144 415.023,-142.592 420.255,-140.952 425.395,-139.236"/>
<polygon fill="lightgray" stroke="lightgray" points="426.778,-142.462 435.086,-135.886 424.491,-135.846 426.778,-142.462"/>
<text text-anchor="middle" x="304.5" y="-192.8" font-family="Times New Roman,serif" font-size="14.00" fill="lightgray">wff ( ph /\ ps )</text>
</g>
<!-- n8625 -->
<g id="node3" class="node"><title>n8625</title>
</g>
<!-- n8619&#45;&gt;n8625 -->
<g id="edge8" class="edge"><title>n8619&#45;&gt;n8625</title>
</g>
<!-- QED -->
<g id="node7" class="node"><title>QED</title>
</g>
<!-- n8629&#45;&gt;QED -->
<g id="edge7" class="edge"><title>n8629&#45;&gt;QED</title>
<path fill="none" stroke="black" d="M500.886,-125C557.889,-125 669.414,-125 728.373,-125"/>
<polygon fill="black" stroke="black" points="728.402,-128.5 738.402,-125 728.402,-121.5 728.402,-128.5"/>
<text text-anchor="middle" x="619.794" y="-128.8" font-family="Times New Roman,serif" font-size="14.00">|&#45; ( &#45;. ( &#45;. ph \/ &#45;. ps ) &#45;&gt; ( ph /\ ps ) )</text>
</g>
<!-- n8625&#45;&gt;n8629 -->
<g id="edge2" class="edge"><title>n8625&#45;&gt;n8629</title>
<path fill="none" stroke="lightgray" d="M181.028,-125C233.408,-125 352.129,-125 417.72,-125"/>
<polygon fill="lightgray" stroke="lightgray" points="417.773,-128.5 427.773,-125 417.773,-121.5 417.773,-128.5"/>
<text text-anchor="middle" x="304.5" y="-128.8" font-family="Times New Roman,serif" font-size="14.00" fill="lightgray">wff &#45;. ( &#45;. ph \/ &#45;. ps )</text>
</g>
<!-- n8628 -->
<g id="node5" class="node"><title>n8628</title>
<ellipse fill="cyan" stroke="black" cx="154" cy="-53" rx="27" ry="18"/>
<text text-anchor="middle" x="154" y="-49.3" font-family="Times New Roman,serif" font-size="14.00">anor</text>
</g>
<!-- n8625&#45;&gt;n8628 -->
<g id="edge9" class="edge"><title>n8625&#45;&gt;n8628</title>
</g>
<!-- n8626 -->
<g id="node4" class="node"><title>n8626</title>
</g>
<!-- n8626&#45;&gt;n8628 -->
<g id="edge3" class="edge"><title>n8626&#45;&gt;n8628</title>
<path fill="none" stroke="lightgray" d="M52.1013,-82.866C71.2097,-77.2099 98.1365,-69.2396 119.368,-62.9551"/>
<polygon fill="lightgray" stroke="lightgray" points="120.377,-66.3065 128.973,-60.1121 118.391,-59.5943 120.377,-66.3065"/>
<text text-anchor="middle" x="90.5" y="-80.8" font-family="Times New Roman,serif" font-size="14.00" fill="lightgray">wff ph</text>
</g>
<!-- n8627 -->
<g id="node6" class="node"><title>n8627</title>
</g>
<!-- n8626&#45;&gt;n8627 -->
<g id="edge6" class="edge"><title>n8626&#45;&gt;n8627</title>
</g>
<!-- n8628&#45;&gt;n8629 -->
<g id="edge5" class="edge"><title>n8628&#45;&gt;n8629</title>
<path fill="none" stroke="black" d="M180.613,-57.1265C226.882,-64.8449 327.279,-82.8039 410,-106 415.023,-107.408 420.255,-109.048 425.395,-110.764"/>
<polygon fill="black" stroke="black" points="424.491,-114.154 435.086,-114.114 426.778,-107.538 424.491,-114.154"/>
<text text-anchor="middle" x="304.5" y="-109.8" font-family="Times New Roman,serif" font-size="14.00">|&#45; ( ( ph /\ ps ) &lt;&#45;&gt; &#45;. ( &#45;. ph \/ &#45;. ps ) )</text>
</g>
<!-- n8627&#45;&gt;n8628 -->
<g id="edge4" class="edge"><title>n8627&#45;&gt;n8628</title>
<path fill="none" stroke="lightgray" d="M52.1013,-24.7484C71.0013,-30.0404 97.5501,-37.474 118.671,-43.3879"/>
<polygon fill="lightgray" stroke="lightgray" points="117.973,-46.8269 128.546,-46.1529 119.86,-40.0862 117.973,-46.8269"/>
<text text-anchor="middle" x="90.5" y="-44.8" font-family="Times New Roman,serif" font-size="14.00" fill="lightgray">wff ps</text>
</g>
</g>
</svg>
