<?xml version="1.0" encoding="UTF-8" standalone="no"?>
<!DOCTYPE svg PUBLIC "-//W3C//DTD SVG 1.1//EN"
 "http://www.w3.org/Graphics/SVG/1.1/DTD/svg11.dtd">
<!-- Generated by graphviz version 2.38.0 (20140413.2041)
 -->
<!-- Title: proof_pm4_83 Pages: 1 -->
<svg width="1167pt" height="475pt"
 viewBox="0.00 0.00 1166.98 475.00" xmlns="http://www.w3.org/2000/svg" xmlns:xlink="http://www.w3.org/1999/xlink">
<g id="graph0" class="graph" transform="scale(1 1) rotate(0) translate(4 471)">
<title>proof_pm4_83</title>
<polygon fill="white" stroke="none" points="-4,4 -4,-471 1162.98,-471 1162.98,4 -4,4"/>
<!-- n16477 -->
<g id="node1" class="node"><title>n16477</title>
</g>
<!-- n16505 -->
<g id="node2" class="node"><title>n16505</title>
<ellipse fill="cyan" stroke="black" cx="793.242" cy="-298" rx="29.4969" ry="18"/>
<text text-anchor="middle" x="793.242" y="-294.3" font-family="Times New Roman,serif" font-size="14.00">bitr2i</text>
</g>
<!-- n16477&#45;&gt;n16505 -->
<g id="edge1" class="edge"><title>n16477&#45;&gt;n16505</title>
<path fill="none" stroke="lightgray" d="M376.474,-445.77C443.768,-454.299 629.082,-468.389 745.994,-386 766.391,-371.626 778.499,-345.421 785.176,-325.333"/>
<polygon fill="lightgray" stroke="lightgray" points="788.526,-326.347 788.109,-315.761 781.833,-324.297 788.526,-326.347"/>
<text text-anchor="middle" x="570.494" y="-455.8" font-family="Times New Roman,serif" font-size="14.00" fill="lightgray">wff ps</text>
</g>
<!-- n16483 -->
<g id="node3" class="node"><title>n16483</title>
</g>
<!-- n16477&#45;&gt;n16483 -->
<g id="edge18" class="edge"><title>n16477&#45;&gt;n16483</title>
</g>
<!-- QED -->
<g id="node14" class="node"><title>QED</title>
</g>
<!-- n16505&#45;&gt;QED -->
<g id="edge17" class="edge"><title>n16505&#45;&gt;QED</title>
<path fill="none" stroke="black" d="M822.76,-298C882.747,-298 1022.03,-298 1090.01,-298"/>
<polygon fill="black" stroke="black" points="1090.29,-301.5 1100.29,-298 1090.29,-294.5 1090.29,-301.5"/>
<text text-anchor="middle" x="961.489" y="-301.8" font-family="Times New Roman,serif" font-size="14.00">|&#45; ( ( ( ph &#45;&gt; ps ) /\ ( &#45;. ph &#45;&gt; ps ) ) &lt;&#45;&gt; ps )</text>
</g>
<!-- n16483&#45;&gt;n16505 -->
<g id="edge2" class="edge"><title>n16483&#45;&gt;n16505</title>
<path fill="none" stroke="lightgray" d="M377.329,-368.797C441.439,-365.367 610.315,-353.325 745.994,-317 750.674,-315.747 755.512,-314.137 760.216,-312.386"/>
<polygon fill="lightgray" stroke="lightgray" points="761.589,-315.606 769.59,-308.661 759.004,-309.101 761.589,-315.606"/>
<text text-anchor="middle" x="570.494" y="-370.8" font-family="Times New Roman,serif" font-size="14.00" fill="lightgray">wff ( ( ph \/ &#45;. ph ) &#45;&gt; ps )</text>
</g>
<!-- n16491 -->
<g id="node4" class="node"><title>n16491</title>
</g>
<!-- n16483&#45;&gt;n16491 -->
<g id="edge19" class="edge"><title>n16483&#45;&gt;n16491</title>
</g>
<!-- n16491&#45;&gt;n16505 -->
<g id="edge3" class="edge"><title>n16491&#45;&gt;n16505</title>
<path fill="none" stroke="lightgray" d="M377.275,-298C451.976,-298 665.809,-298 753.753,-298"/>
<polygon fill="lightgray" stroke="lightgray" points="753.837,-301.5 763.836,-298 753.836,-294.5 753.837,-301.5"/>
<text text-anchor="middle" x="570.494" y="-301.8" font-family="Times New Roman,serif" font-size="14.00" fill="lightgray">wff ( ( ph &#45;&gt; ps ) /\ ( &#45;. ph &#45;&gt; ps ) )</text>
</g>
<!-- n16499 -->
<g id="node6" class="node"><title>n16499</title>
<ellipse fill="cyan" stroke="black" cx="349.994" cy="-226" rx="27" ry="18"/>
<text text-anchor="middle" x="349.994" y="-222.3" font-family="Times New Roman,serif" font-size="14.00">a1bi</text>
</g>
<!-- n16491&#45;&gt;n16499 -->
<g id="edge20" class="edge"><title>n16491&#45;&gt;n16499</title>
</g>
<!-- n16495 -->
<g id="node5" class="node"><title>n16495</title>
</g>
<!-- n16495&#45;&gt;n16499 -->
<g id="edge4" class="edge"><title>n16495&#45;&gt;n16499</title>
<path fill="none" stroke="lightgray" d="M184.455,-352.923C215.06,-342.972 268.436,-322.462 304.994,-291 312.031,-284.944 324.042,-266.92 333.739,-251.384"/>
<polygon fill="lightgray" stroke="lightgray" points="336.864,-252.985 339.126,-242.634 330.903,-249.315 336.864,-252.985"/>
<text text-anchor="middle" x="257.494" y="-345.8" font-family="Times New Roman,serif" font-size="14.00" fill="lightgray">wff ( ph \/ &#45;. ph )</text>
</g>
<!-- n16496 -->
<g id="node7" class="node"><title>n16496</title>
</g>
<!-- n16495&#45;&gt;n16496 -->
<g id="edge9" class="edge"><title>n16495&#45;&gt;n16496</title>
</g>
<!-- n16499&#45;&gt;n16505 -->
<g id="edge8" class="edge"><title>n16499&#45;&gt;n16505</title>
<path fill="none" stroke="black" d="M377.329,-227.203C441.439,-230.633 610.315,-242.675 745.994,-279 750.674,-280.253 755.512,-281.863 760.216,-283.614"/>
<polygon fill="black" stroke="black" points="759.004,-286.899 769.59,-287.339 761.589,-280.394 759.004,-286.899"/>
<text text-anchor="middle" x="570.494" y="-282.8" font-family="Times New Roman,serif" font-size="14.00">|&#45; ( ps &lt;&#45;&gt; ( ( ph \/ &#45;. ph ) &#45;&gt; ps ) )</text>
</g>
<!-- n16504 -->
<g id="node11" class="node"><title>n16504</title>
<ellipse fill="cyan" stroke="black" cx="349.994" cy="-154" rx="27" ry="18"/>
<text text-anchor="middle" x="349.994" y="-150.3" font-family="Times New Roman,serif" font-size="14.00">jaob</text>
</g>
<!-- n16499&#45;&gt;n16504 -->
<g id="edge21" class="edge"><title>n16499&#45;&gt;n16504</title>
</g>
<!-- n16496&#45;&gt;n16499 -->
<g id="edge5" class="edge"><title>n16496&#45;&gt;n16499</title>
<path fill="none" stroke="lightgray" d="M184.436,-281.078C213.228,-272.631 262.939,-257.655 304.994,-243 308.8,-241.674 312.769,-240.229 316.698,-238.76"/>
<polygon fill="lightgray" stroke="lightgray" points="318.166,-241.946 326.264,-235.115 315.674,-235.405 318.166,-241.946"/>
<text text-anchor="middle" x="257.494" y="-275.8" font-family="Times New Roman,serif" font-size="14.00" fill="lightgray">wff ps</text>
</g>
<!-- n16498 -->
<g id="node9" class="node"><title>n16498</title>
<ellipse fill="cyan" stroke="black" cx="159.497" cy="-216" rx="32.4942" ry="18"/>
<text text-anchor="middle" x="159.497" y="-212.3" font-family="Times New Roman,serif" font-size="14.00">exmid</text>
</g>
<!-- n16496&#45;&gt;n16498 -->
<g id="edge10" class="edge"><title>n16496&#45;&gt;n16498</title>
</g>
<!-- n16497 -->
<g id="node8" class="node"><title>n16497</title>
</g>
<!-- n16497&#45;&gt;n16498 -->
<g id="edge6" class="edge"><title>n16497&#45;&gt;n16498</title>
<path fill="none" stroke="lightgray" d="M54.0944,-216C72.0379,-216 96.2504,-216 116.841,-216"/>
<polygon fill="lightgray" stroke="lightgray" points="116.919,-219.5 126.919,-216 116.919,-212.5 116.919,-219.5"/>
<text text-anchor="middle" x="90.5" y="-219.8" font-family="Times New Roman,serif" font-size="14.00" fill="lightgray">wff ph</text>
</g>
<!-- n16498&#45;&gt;n16499 -->
<g id="edge7" class="edge"><title>n16498&#45;&gt;n16499</title>
<path fill="none" stroke="black" d="M192.047,-217.674C225.29,-219.437 277.579,-222.211 312.558,-224.067"/>
<polygon fill="black" stroke="black" points="312.646,-227.576 322.817,-224.611 313.017,-220.586 312.646,-227.576"/>
<text text-anchor="middle" x="257.494" y="-227.8" font-family="Times New Roman,serif" font-size="14.00">|&#45; ( ph \/ &#45;. ph )</text>
</g>
<!-- n16500 -->
<g id="node10" class="node"><title>n16500</title>
</g>
<!-- n16500&#45;&gt;n16504 -->
<g id="edge11" class="edge"><title>n16500&#45;&gt;n16504</title>
<path fill="none" stroke="lightgray" d="M186.707,-160.888C219.484,-159.497 275.77,-157.108 312.683,-155.541"/>
<polygon fill="lightgray" stroke="lightgray" points="313.165,-159.024 323.007,-155.103 312.868,-152.03 313.165,-159.024"/>
<text text-anchor="middle" x="257.494" y="-163.8" font-family="Times New Roman,serif" font-size="14.00" fill="lightgray">wff ph</text>
</g>
<!-- n16501 -->
<g id="node12" class="node"><title>n16501</title>
</g>
<!-- n16500&#45;&gt;n16501 -->
<g id="edge15" class="edge"><title>n16500&#45;&gt;n16501</title>
</g>
<!-- n16504&#45;&gt;n16505 -->
<g id="edge14" class="edge"><title>n16504&#45;&gt;n16505</title>
<path fill="none" stroke="black" d="M376.489,-150.122C443.818,-141.314 629.211,-126.513 745.994,-209 766.557,-223.524 778.644,-250.028 785.271,-270.349"/>
<polygon fill="black" stroke="black" points="781.95,-271.46 788.176,-280.032 788.654,-269.448 781.95,-271.46"/>
<text text-anchor="middle" x="570.494" y="-212.8" font-family="Times New Roman,serif" font-size="14.00">|&#45; ( ( ( ph \/ &#45;. ph ) &#45;&gt; ps ) &lt;&#45;&gt; ( ( ph &#45;&gt; ps ) /\ ( &#45;. ph &#45;&gt; ps ) ) )</text>
</g>
<!-- n16501&#45;&gt;n16504 -->
<g id="edge12" class="edge"><title>n16501&#45;&gt;n16504</title>
<path fill="none" stroke="lightgray" d="M184.41,-97.3415C213.177,-106.274 262.864,-122.022 304.994,-137 308.792,-138.35 312.756,-139.81 316.682,-141.286"/>
<polygon fill="lightgray" stroke="lightgray" points="315.654,-144.641 326.245,-144.94 318.153,-138.102 315.654,-144.641"/>
<text text-anchor="middle" x="257.494" y="-140.8" font-family="Times New Roman,serif" font-size="14.00" fill="lightgray">wff ps</text>
</g>
<!-- n16503 -->
<g id="node13" class="node"><title>n16503</title>
</g>
<!-- n16501&#45;&gt;n16503 -->
<g id="edge16" class="edge"><title>n16501&#45;&gt;n16503</title>
</g>
<!-- n16503&#45;&gt;n16504 -->
<g id="edge13" class="edge"><title>n16503&#45;&gt;n16504</title>
<path fill="none" stroke="lightgray" d="M184.487,-25.2227C215.126,-35.3647 268.538,-56.2209 304.994,-88 317.691,-99.068 328.3,-114.626 335.917,-127.857"/>
<polygon fill="lightgray" stroke="lightgray" points="333.044,-129.898 340.922,-136.983 339.182,-126.532 333.044,-129.898"/>
<text text-anchor="middle" x="257.494" y="-91.8" font-family="Times New Roman,serif" font-size="14.00" fill="lightgray">wff &#45;. ph</text>
</g>
</g>
</svg>
