<?xml version="1.0" encoding="UTF-8" standalone="no"?>
<!DOCTYPE svg PUBLIC "-//W3C//DTD SVG 1.1//EN"
 "http://www.w3.org/Graphics/SVG/1.1/DTD/svg11.dtd">
<!-- Generated by graphviz version 2.38.0 (20140413.2041)
 -->
<!-- Title: proof_pm4_55 Pages: 1 -->
<svg width="1158pt" height="295pt"
 viewBox="0.00 0.00 1158.07 295.00" xmlns="http://www.w3.org/2000/svg" xmlns:xlink="http://www.w3.org/1999/xlink">
<g id="graph0" class="graph" transform="scale(1 1) rotate(0) translate(4 291)">
<title>proof_pm4_55</title>
<polygon fill="white" stroke="none" points="-4,4 -4,-291 1154.07,-291 1154.07,4 -4,4"/>
<!-- n8547 -->
<g id="node1" class="node"><title>n8547</title>
</g>
<!-- n8565 -->
<g id="node2" class="node"><title>n8565</title>
<ellipse fill="cyan" stroke="black" cx="808.833" cy="-197" rx="35.9954" ry="18"/>
<text text-anchor="middle" x="808.833" y="-193.3" font-family="Times New Roman,serif" font-size="14.00">bicomi</text>
</g>
<!-- n8547&#45;&gt;n8565 -->
<g id="edge1" class="edge"><title>n8547&#45;&gt;n8565</title>
<path fill="none" stroke="lightgray" d="M514.964,-265.199C562.68,-257.822 668.306,-240.14 755.087,-216 760.115,-214.601 765.351,-212.955 770.488,-211.226"/>
<polygon fill="lightgray" stroke="lightgray" points="771.878,-214.448 780.161,-207.842 769.567,-207.84 771.878,-214.448"/>
<text text-anchor="middle" x="649.587" y="-263.8" font-family="Times New Roman,serif" font-size="14.00" fill="lightgray">wff ( ph \/ &#45;. ps )</text>
</g>
<!-- n8552 -->
<g id="node3" class="node"><title>n8552</title>
</g>
<!-- n8547&#45;&gt;n8552 -->
<g id="edge13" class="edge"><title>n8547&#45;&gt;n8552</title>
</g>
<!-- QED -->
<g id="node10" class="node"><title>QED</title>
</g>
<!-- n8565&#45;&gt;QED -->
<g id="edge12" class="edge"><title>n8565&#45;&gt;QED</title>
<path fill="none" stroke="black" d="M844.791,-197C903.196,-197 1020.19,-197 1081.05,-197"/>
<polygon fill="black" stroke="black" points="1081.38,-200.5 1091.38,-197 1081.38,-193.5 1081.38,-200.5"/>
<text text-anchor="middle" x="968.08" y="-200.8" font-family="Times New Roman,serif" font-size="14.00">|&#45; ( &#45;. ( &#45;. ph /\ ps ) &lt;&#45;&gt; ( ph \/ &#45;. ps ) )</text>
</g>
<!-- n8552&#45;&gt;n8565 -->
<g id="edge2" class="edge"><title>n8552&#45;&gt;n8565</title>
<path fill="none" stroke="lightgray" d="M515.449,-197C569.593,-197 694.832,-197 762.498,-197"/>
<polygon fill="lightgray" stroke="lightgray" points="762.843,-200.5 772.843,-197 762.843,-193.5 762.843,-200.5"/>
<text text-anchor="middle" x="649.587" y="-200.8" font-family="Times New Roman,serif" font-size="14.00" fill="lightgray">wff &#45;. ( &#45;. ph /\ ps )</text>
</g>
<!-- n8564 -->
<g id="node5" class="node"><title>n8564</title>
<ellipse fill="cyan" stroke="black" cx="488.39" cy="-125" rx="37.8943" ry="18"/>
<text text-anchor="middle" x="488.39" y="-121.3" font-family="Times New Roman,serif" font-size="14.00">con2bii</text>
</g>
<!-- n8552&#45;&gt;n8564 -->
<g id="edge14" class="edge"><title>n8552&#45;&gt;n8564</title>
</g>
<!-- n8556 -->
<g id="node4" class="node"><title>n8556</title>
</g>
<!-- n8556&#45;&gt;n8564 -->
<g id="edge3" class="edge"><title>n8556&#45;&gt;n8564</title>
<path fill="none" stroke="lightgray" d="M191.958,-193.112C239.749,-185.59 345.567,-167.68 432.693,-144 437.968,-142.566 443.47,-140.885 448.864,-139.125"/>
<polygon fill="lightgray" stroke="lightgray" points="450.03,-142.425 458.385,-135.909 447.791,-135.793 450.03,-142.425"/>
<text text-anchor="middle" x="327.193" y="-190.8" font-family="Times New Roman,serif" font-size="14.00" fill="lightgray">wff ( &#45;. ph /\ ps )</text>
</g>
<!-- n8560 -->
<g id="node6" class="node"><title>n8560</title>
</g>
<!-- n8556&#45;&gt;n8560 -->
<g id="edge10" class="edge"><title>n8556&#45;&gt;n8560</title>
</g>
<!-- n8564&#45;&gt;n8565 -->
<g id="edge9" class="edge"><title>n8564&#45;&gt;n8565</title>
<path fill="none" stroke="black" d="M524.597,-130.308C575.844,-138.42 673.744,-155.373 755.087,-178 760.115,-179.399 765.351,-181.045 770.488,-182.774"/>
<polygon fill="black" stroke="black" points="769.567,-186.16 780.161,-186.158 771.878,-179.552 769.567,-186.16"/>
<text text-anchor="middle" x="649.587" y="-181.8" font-family="Times New Roman,serif" font-size="14.00">|&#45; ( ( ph \/ &#45;. ps ) &lt;&#45;&gt; &#45;. ( &#45;. ph /\ ps ) )</text>
</g>
<!-- n8560&#45;&gt;n8564 -->
<g id="edge4" class="edge"><title>n8560&#45;&gt;n8564</title>
<path fill="none" stroke="lightgray" d="M192.347,-125C246.444,-125 371.774,-125 440.397,-125"/>
<polygon fill="lightgray" stroke="lightgray" points="440.499,-128.5 450.499,-125 440.499,-121.5 440.499,-128.5"/>
<text text-anchor="middle" x="327.193" y="-128.8" font-family="Times New Roman,serif" font-size="14.00" fill="lightgray">wff ( ph \/ &#45;. ps )</text>
</g>
<!-- n8563 -->
<g id="node8" class="node"><title>n8563</title>
<ellipse fill="cyan" stroke="black" cx="165.347" cy="-53" rx="38.1938" ry="18"/>
<text text-anchor="middle" x="165.347" y="-49.3" font-family="Times New Roman,serif" font-size="14.00">pm4.54</text>
</g>
<!-- n8560&#45;&gt;n8563 -->
<g id="edge11" class="edge"><title>n8560&#45;&gt;n8563</title>
</g>
<!-- n8561 -->
<g id="node7" class="node"><title>n8561</title>
</g>
<!-- n8561&#45;&gt;n8563 -->
<g id="edge5" class="edge"><title>n8561&#45;&gt;n8563</title>
<path fill="none" stroke="lightgray" d="M52.376,-83.3851C71.6593,-78.1523 99.0498,-70.7194 121.913,-64.5151"/>
<polygon fill="lightgray" stroke="lightgray" points="122.99,-67.8494 131.725,-61.8525 121.157,-61.0937 122.99,-67.8494"/>
<text text-anchor="middle" x="90.5" y="-82.8" font-family="Times New Roman,serif" font-size="14.00" fill="lightgray">wff ph</text>
</g>
<!-- n8562 -->
<g id="node9" class="node"><title>n8562</title>
</g>
<!-- n8561&#45;&gt;n8562 -->
<g id="edge8" class="edge"><title>n8561&#45;&gt;n8562</title>
</g>
<!-- n8563&#45;&gt;n8564 -->
<g id="edge7" class="edge"><title>n8563&#45;&gt;n8564</title>
<path fill="none" stroke="black" d="M202.037,-58.4928C253.484,-66.7728 351.254,-83.8658 432.693,-106 437.968,-107.434 443.47,-109.115 448.864,-110.875"/>
<polygon fill="black" stroke="black" points="447.791,-114.207 458.385,-114.091 450.03,-107.575 447.791,-114.207"/>
<text text-anchor="middle" x="327.193" y="-109.8" font-family="Times New Roman,serif" font-size="14.00">|&#45; ( ( &#45;. ph /\ ps ) &lt;&#45;&gt; &#45;. ( ph \/ &#45;. ps ) )</text>
</g>
<!-- n8562&#45;&gt;n8563 -->
<g id="edge6" class="edge"><title>n8562&#45;&gt;n8563</title>
<path fill="none" stroke="lightgray" d="M52.376,-24.2573C71.5925,-29.1901 98.8603,-36.1897 121.676,-42.0464"/>
<polygon fill="lightgray" stroke="lightgray" points="120.915,-45.4646 131.471,-44.5609 122.656,-38.6844 120.915,-45.4646"/>
<text text-anchor="middle" x="90.5" y="-42.8" font-family="Times New Roman,serif" font-size="14.00" fill="lightgray">wff ps</text>
</g>
</g>
</svg>
