<?xml version="1.0" encoding="UTF-8" standalone="no"?>
<!DOCTYPE svg PUBLIC "-//W3C//DTD SVG 1.1//EN"
 "http://www.w3.org/Graphics/SVG/1.1/DTD/svg11.dtd">
<!-- Generated by graphviz version 2.38.0 (20140413.2041)
 -->
<!-- Title: proof_pm4_78 Pages: 1 -->
<svg width="1411pt" height="953pt"
 viewBox="0.00 0.00 1410.68 953.00" xmlns="http://www.w3.org/2000/svg" xmlns:xlink="http://www.w3.org/1999/xlink">
<g id="graph0" class="graph" transform="scale(1 1) rotate(0) translate(4 949)">
<title>proof_pm4_78</title>
<polygon fill="white" stroke="none" points="-4,4 -4,-949 1406.68,-949 1406.68,4 -4,4"/>
<!-- n9913 -->
<g id="node1" class="node"><title>n9913</title>
</g>
<!-- n9966 -->
<g id="node2" class="node"><title>n9966</title>
<ellipse fill="cyan" stroke="black" cx="945.785" cy="-695" rx="36.2938" ry="18"/>
<text text-anchor="middle" x="945.785" y="-691.3" font-family="Times New Roman,serif" font-size="14.00">3bitr4ri</text>
</g>
<!-- n9913&#45;&gt;n9966 -->
<g id="edge1" class="edge"><title>n9913&#45;&gt;n9966</title>
<path fill="none" stroke="lightgray" d="M471.862,-916.19C545.422,-930.002 764.7,-959.89 891.389,-856 931.285,-823.283 941.582,-759.937 944.108,-723.211"/>
<polygon fill="lightgray" stroke="lightgray" points="947.606,-723.342 944.65,-713.168 940.616,-722.965 947.606,-723.342"/>
<text text-anchor="middle" x="695.889" y="-933.8" font-family="Times New Roman,serif" font-size="14.00" fill="lightgray">wff ( &#45;. ph \/ ( ps \/ ch ) )</text>
</g>
<!-- n9922 -->
<g id="node3" class="node"><title>n9922</title>
</g>
<!-- n9913&#45;&gt;n9922 -->
<g id="edge34" class="edge"><title>n9913&#45;&gt;n9922</title>
</g>
<!-- QED -->
<g id="node24" class="node"><title>QED</title>
</g>
<!-- n9966&#45;&gt;QED -->
<g id="edge33" class="edge"><title>n9966&#45;&gt;QED</title>
<path fill="none" stroke="black" d="M982.344,-695C1061.59,-695 1252.14,-695 1334,-695"/>
<polygon fill="black" stroke="black" points="1334.12,-698.5 1344.12,-695 1334.12,-691.5 1334.12,-698.5"/>
<text text-anchor="middle" x="1163.18" y="-698.8" font-family="Times New Roman,serif" font-size="14.00">|&#45; ( ( ( ph &#45;&gt; ps ) \/ ( ph &#45;&gt; ch ) ) &lt;&#45;&gt; ( ph &#45;&gt; ( ps \/ ch ) ) )</text>
</g>
<!-- n9922&#45;&gt;n9966 -->
<g id="edge2" class="edge"><title>n9922&#45;&gt;n9966</title>
<path fill="none" stroke="lightgray" d="M473.019,-838.634C557.326,-837.009 821.499,-828.33 891.389,-783 913.164,-768.877 927.418,-742.456 935.676,-722.235"/>
<polygon fill="lightgray" stroke="lightgray" points="938.948,-723.479 939.255,-712.888 932.411,-720.975 938.948,-723.479"/>
<text text-anchor="middle" x="695.889" y="-840.8" font-family="Times New Roman,serif" font-size="14.00" fill="lightgray">wff ( ( &#45;. ph \/ ps ) \/ ( &#45;. ph \/ ch ) )</text>
</g>
<!-- n9927 -->
<g id="node4" class="node"><title>n9927</title>
</g>
<!-- n9922&#45;&gt;n9927 -->
<g id="edge35" class="edge"><title>n9922&#45;&gt;n9927</title>
</g>
<!-- n9927&#45;&gt;n9966 -->
<g id="edge3" class="edge"><title>n9927&#45;&gt;n9966</title>
<path fill="none" stroke="lightgray" d="M473.393,-765.905C542.759,-762.59 735.554,-750.534 891.389,-714 896.718,-712.751 902.252,-711.147 907.65,-709.403"/>
<polygon fill="lightgray" stroke="lightgray" points="908.818,-712.702 917.148,-706.156 906.553,-706.079 908.818,-712.702"/>
<text text-anchor="middle" x="695.889" y="-767.8" font-family="Times New Roman,serif" font-size="14.00" fill="lightgray">wff ( ph &#45;&gt; ( ps \/ ch ) )</text>
</g>
<!-- n9934 -->
<g id="node5" class="node"><title>n9934</title>
</g>
<!-- n9927&#45;&gt;n9934 -->
<g id="edge36" class="edge"><title>n9927&#45;&gt;n9934</title>
</g>
<!-- n9934&#45;&gt;n9966 -->
<g id="edge4" class="edge"><title>n9934&#45;&gt;n9966</title>
<path fill="none" stroke="lightgray" d="M473.055,-695C553.237,-695 796.976,-695 899.054,-695"/>
<polygon fill="lightgray" stroke="lightgray" points="899.346,-698.5 909.346,-695 899.346,-691.5 899.346,-698.5"/>
<text text-anchor="middle" x="695.889" y="-698.8" font-family="Times New Roman,serif" font-size="14.00" fill="lightgray">wff ( ( ph &#45;&gt; ps ) \/ ( ph &#45;&gt; ch ) )</text>
</g>
<!-- n9939 -->
<g id="node7" class="node"><title>n9939</title>
<ellipse fill="cyan" stroke="black" cx="445.992" cy="-623" rx="33.2948" ry="18"/>
<text text-anchor="middle" x="445.992" y="-619.3" font-family="Times New Roman,serif" font-size="14.00">orordi</text>
</g>
<!-- n9934&#45;&gt;n9939 -->
<g id="edge37" class="edge"><title>n9934&#45;&gt;n9939</title>
</g>
<!-- n9936 -->
<g id="node6" class="node"><title>n9936</title>
</g>
<!-- n9936&#45;&gt;n9939 -->
<g id="edge5" class="edge"><title>n9936&#45;&gt;n9939</title>
<path fill="none" stroke="lightgray" d="M181.476,-766.773C228.665,-765.034 328.901,-755.099 391.595,-704 405.461,-692.698 400.016,-683.108 409.595,-668 414.086,-660.917 419.462,-653.615 424.651,-647.007"/>
<polygon fill="lightgray" stroke="lightgray" points="427.492,-649.059 431.044,-639.078 422.043,-644.666 427.492,-649.059"/>
<text text-anchor="middle" x="295.595" y="-768.8" font-family="Times New Roman,serif" font-size="14.00" fill="lightgray">wff &#45;. ph</text>
</g>
<!-- n9937 -->
<g id="node8" class="node"><title>n9937</title>
</g>
<!-- n9936&#45;&gt;n9937 -->
<g id="edge9" class="edge"><title>n9936&#45;&gt;n9937</title>
</g>
<!-- n9939&#45;&gt;n9966 -->
<g id="edge8" class="edge"><title>n9939&#45;&gt;n9966</title>
<path fill="none" stroke="black" d="M479.21,-624.379C553.028,-628.072 739.715,-640.442 891.389,-676 896.718,-677.249 902.252,-678.853 907.65,-680.597"/>
<polygon fill="black" stroke="black" points="906.553,-683.921 917.148,-683.844 908.818,-677.298 906.553,-683.921"/>
<text text-anchor="middle" x="695.889" y="-679.8" font-family="Times New Roman,serif" font-size="14.00">|&#45; ( ( &#45;. ph \/ ( ps \/ ch ) ) &lt;&#45;&gt; ( ( &#45;. ph \/ ps ) \/ ( &#45;. ph \/ ch ) ) )</text>
</g>
<!-- n9944 -->
<g id="node11" class="node"><title>n9944</title>
<ellipse fill="cyan" stroke="black" cx="445.992" cy="-551" rx="27.0966" ry="18"/>
<text text-anchor="middle" x="445.992" y="-547.3" font-family="Times New Roman,serif" font-size="14.00">imor</text>
</g>
<!-- n9939&#45;&gt;n9944 -->
<g id="edge38" class="edge"><title>n9939&#45;&gt;n9944</title>
</g>
<!-- n9937&#45;&gt;n9939 -->
<g id="edge6" class="edge"><title>n9937&#45;&gt;n9939</title>
<path fill="none" stroke="lightgray" d="M180.732,-690.346C224.306,-682.141 315.862,-663.88 391.595,-642 397.09,-640.413 402.842,-638.567 408.452,-636.661"/>
<polygon fill="lightgray" stroke="lightgray" points="410.026,-639.818 418.308,-633.21 407.713,-633.211 410.026,-639.818"/>
<text text-anchor="middle" x="295.595" y="-688.8" font-family="Times New Roman,serif" font-size="14.00" fill="lightgray">wff ps</text>
</g>
<!-- n9938 -->
<g id="node9" class="node"><title>n9938</title>
</g>
<!-- n9937&#45;&gt;n9938 -->
<g id="edge10" class="edge"><title>n9937&#45;&gt;n9938</title>
</g>
<!-- n9938&#45;&gt;n9939 -->
<g id="edge7" class="edge"><title>n9938&#45;&gt;n9939</title>
<path fill="none" stroke="lightgray" d="M181.517,-623C231.68,-623 341.646,-623 402.456,-623"/>
<polygon fill="lightgray" stroke="lightgray" points="402.495,-626.5 412.495,-623 402.495,-619.5 402.495,-626.5"/>
<text text-anchor="middle" x="295.595" y="-626.8" font-family="Times New Roman,serif" font-size="14.00" fill="lightgray">wff ch</text>
</g>
<!-- n9940 -->
<g id="node10" class="node"><title>n9940</title>
</g>
<!-- n9940&#45;&gt;n9944 -->
<g id="edge11" class="edge"><title>n9940&#45;&gt;n9944</title>
<path fill="none" stroke="lightgray" d="M181.261,-567.387C233.011,-564.171 349.126,-556.957 408.508,-553.267"/>
<polygon fill="lightgray" stroke="lightgray" points="408.801,-556.756 418.564,-552.642 408.366,-549.769 408.801,-556.756"/>
<text text-anchor="middle" x="295.595" y="-568.8" font-family="Times New Roman,serif" font-size="14.00" fill="lightgray">wff ph</text>
</g>
<!-- n9943 -->
<g id="node12" class="node"><title>n9943</title>
</g>
<!-- n9940&#45;&gt;n9943 -->
<g id="edge14" class="edge"><title>n9940&#45;&gt;n9943</title>
</g>
<!-- n9944&#45;&gt;n9966 -->
<g id="edge13" class="edge"><title>n9944&#45;&gt;n9966</title>
<path fill="none" stroke="black" d="M472.657,-546.921C545.181,-536.808 755.195,-517.397 891.389,-606 913.455,-620.355 927.725,-647.311 935.912,-667.811"/>
<polygon fill="black" stroke="black" points="932.669,-669.131 939.449,-677.272 939.225,-666.679 932.669,-669.131"/>
<text text-anchor="middle" x="695.889" y="-609.8" font-family="Times New Roman,serif" font-size="14.00">|&#45; ( ( ph &#45;&gt; ( ps \/ ch ) ) &lt;&#45;&gt; ( &#45;. ph \/ ( ps \/ ch ) ) )</text>
</g>
<!-- n9965 -->
<g id="node14" class="node"><title>n9965</title>
<ellipse fill="cyan" stroke="black" cx="445.992" cy="-344" rx="36.2938" ry="18"/>
<text text-anchor="middle" x="445.992" y="-340.3" font-family="Times New Roman,serif" font-size="14.00">orbi12i</text>
</g>
<!-- n9944&#45;&gt;n9965 -->
<g id="edge39" class="edge"><title>n9944&#45;&gt;n9965</title>
</g>
<!-- n9943&#45;&gt;n9944 -->
<g id="edge12" class="edge"><title>n9943&#45;&gt;n9944</title>
<path fill="none" stroke="lightgray" d="M181.037,-500.011C224.684,-505.367 315.858,-517.643 391.595,-535 398.033,-536.475 404.834,-538.301 411.346,-540.186"/>
<polygon fill="lightgray" stroke="lightgray" points="410.664,-543.636 421.248,-543.154 412.674,-536.93 410.664,-543.636"/>
<text text-anchor="middle" x="295.595" y="-538.8" font-family="Times New Roman,serif" font-size="14.00" fill="lightgray">wff ( ps \/ ch )</text>
</g>
<!-- n9947 -->
<g id="node13" class="node"><title>n9947</title>
</g>
<!-- n9947&#45;&gt;n9965 -->
<g id="edge15" class="edge"><title>n9947&#45;&gt;n9965</title>
<path fill="none" stroke="lightgray" d="M181.348,-440.4C226.236,-435.134 320.212,-420.623 391.595,-386 401.889,-381.007 412.048,-373.768 420.697,-366.702"/>
<polygon fill="lightgray" stroke="lightgray" points="423.146,-369.213 428.481,-360.059 418.602,-363.888 423.146,-369.213"/>
<text text-anchor="middle" x="295.595" y="-440.8" font-family="Times New Roman,serif" font-size="14.00" fill="lightgray">wff ( ph &#45;&gt; ps )</text>
</g>
<!-- n9951 -->
<g id="node15" class="node"><title>n9951</title>
</g>
<!-- n9947&#45;&gt;n9951 -->
<g id="edge28" class="edge"><title>n9947&#45;&gt;n9951</title>
</g>
<!-- n9965&#45;&gt;n9966 -->
<g id="edge27" class="edge"><title>n9965&#45;&gt;n9966</title>
<path fill="none" stroke="black" d="M481.888,-347.429C565.244,-357.5 777.46,-394.547 891.389,-518 929.824,-559.649 940.642,-628.048 943.654,-666.484"/>
<polygon fill="black" stroke="black" points="940.193,-667.185 944.338,-676.935 947.178,-666.728 940.193,-667.185"/>
<text text-anchor="middle" x="695.889" y="-521.8" font-family="Times New Roman,serif" font-size="14.00">|&#45; ( ( ( ph &#45;&gt; ps ) \/ ( ph &#45;&gt; ch ) ) &lt;&#45;&gt; ( ( &#45;. ph \/ ps ) \/ ( &#45;. ph \/ ch ) ) )</text>
</g>
<!-- n9951&#45;&gt;n9965 -->
<g id="edge16" class="edge"><title>n9951&#45;&gt;n9965</title>
<path fill="none" stroke="lightgray" d="M181.261,-368.58C230.624,-363.979 338.55,-353.921 399.94,-348.199"/>
<polygon fill="lightgray" stroke="lightgray" points="400.475,-351.664 410.107,-347.251 399.825,-344.695 400.475,-351.664"/>
<text text-anchor="middle" x="295.595" y="-370.8" font-family="Times New Roman,serif" font-size="14.00" fill="lightgray">wff ( &#45;. ph \/ ps )</text>
</g>
<!-- n9954 -->
<g id="node16" class="node"><title>n9954</title>
</g>
<!-- n9951&#45;&gt;n9954 -->
<g id="edge29" class="edge"><title>n9951&#45;&gt;n9954</title>
</g>
<!-- n9954&#45;&gt;n9965 -->
<g id="edge17" class="edge"><title>n9954&#45;&gt;n9965</title>
<path fill="none" stroke="lightgray" d="M181.314,-301.626C224.991,-306.235 315.729,-316.668 391.595,-331 395.492,-331.736 399.531,-332.576 403.563,-333.466"/>
<polygon fill="lightgray" stroke="lightgray" points="402.956,-336.918 413.487,-335.753 404.528,-330.097 402.956,-336.918"/>
<text text-anchor="middle" x="295.595" y="-334.8" font-family="Times New Roman,serif" font-size="14.00" fill="lightgray">wff ( ph &#45;&gt; ch )</text>
</g>
<!-- n9958 -->
<g id="node17" class="node"><title>n9958</title>
</g>
<!-- n9954&#45;&gt;n9958 -->
<g id="edge30" class="edge"><title>n9954&#45;&gt;n9958</title>
</g>
<!-- n9958&#45;&gt;n9965 -->
<g id="edge18" class="edge"><title>n9958&#45;&gt;n9965</title>
<path fill="none" stroke="lightgray" d="M181.261,-228.626C226.828,-232.49 322.875,-245.208 391.595,-286 405.517,-294.264 417.974,-307.274 427.347,-318.88"/>
<polygon fill="lightgray" stroke="lightgray" points="424.726,-321.213 433.604,-326.995 430.27,-316.939 424.726,-321.213"/>
<text text-anchor="middle" x="295.595" y="-289.8" font-family="Times New Roman,serif" font-size="14.00" fill="lightgray">wff ( &#45;. ph \/ ch )</text>
</g>
<!-- n9961 -->
<g id="node19" class="node"><title>n9961</title>
<ellipse fill="cyan" stroke="black" cx="154.298" cy="-155" rx="27.0966" ry="18"/>
<text text-anchor="middle" x="154.298" y="-151.3" font-family="Times New Roman,serif" font-size="14.00">imor</text>
</g>
<!-- n9958&#45;&gt;n9961 -->
<g id="edge31" class="edge"><title>n9958&#45;&gt;n9961</title>
</g>
<!-- n9959 -->
<g id="node18" class="node"><title>n9959</title>
</g>
<!-- n9959&#45;&gt;n9961 -->
<g id="edge19" class="edge"><title>n9959&#45;&gt;n9961</title>
<path fill="none" stroke="lightgray" d="M48.972,-207.455C69.178,-197.296 99.9696,-181.813 122.87,-170.299"/>
<polygon fill="lightgray" stroke="lightgray" points="124.475,-173.41 131.837,-165.79 121.331,-167.156 124.475,-173.41"/>
<text text-anchor="middle" x="90.5" y="-199.8" font-family="Times New Roman,serif" font-size="14.00" fill="lightgray">wff ph</text>
</g>
<!-- n9960 -->
<g id="node20" class="node"><title>n9960</title>
</g>
<!-- n9959&#45;&gt;n9960 -->
<g id="edge22" class="edge"><title>n9959&#45;&gt;n9960</title>
</g>
<!-- n9961&#45;&gt;n9965 -->
<g id="edge21" class="edge"><title>n9961&#45;&gt;n9965</title>
<path fill="none" stroke="black" d="M181.831,-153.975C229.59,-153.573 330.71,-159.503 391.595,-212 422.578,-238.714 435.818,-286.051 441.306,-316.184"/>
<polygon fill="black" stroke="black" points="437.855,-316.769 442.941,-326.063 444.762,-315.626 437.855,-316.769"/>
<text text-anchor="middle" x="295.595" y="-215.8" font-family="Times New Roman,serif" font-size="14.00">|&#45; ( ( ph &#45;&gt; ps ) &lt;&#45;&gt; ( &#45;. ph \/ ps ) )</text>
</g>
<!-- n9964 -->
<g id="node22" class="node"><title>n9964</title>
<ellipse fill="cyan" stroke="black" cx="154.298" cy="-83" rx="27.0966" ry="18"/>
<text text-anchor="middle" x="154.298" y="-79.3" font-family="Times New Roman,serif" font-size="14.00">imor</text>
</g>
<!-- n9961&#45;&gt;n9964 -->
<g id="edge32" class="edge"><title>n9961&#45;&gt;n9964</title>
</g>
<!-- n9960&#45;&gt;n9961 -->
<g id="edge20" class="edge"><title>n9960&#45;&gt;n9961</title>
<path fill="none" stroke="lightgray" d="M53.9617,-147.865C72.1518,-149.171 96.7129,-150.936 116.861,-152.383"/>
<polygon fill="lightgray" stroke="lightgray" points="116.713,-155.881 126.938,-153.107 117.215,-148.899 116.713,-155.881"/>
<text text-anchor="middle" x="90.5" y="-155.8" font-family="Times New Roman,serif" font-size="14.00" fill="lightgray">wff ps</text>
</g>
<!-- n9962 -->
<g id="node21" class="node"><title>n9962</title>
</g>
<!-- n9962&#45;&gt;n9964 -->
<g id="edge23" class="edge"><title>n9962&#45;&gt;n9964</title>
<path fill="none" stroke="lightgray" d="M53.9617,-88.5496C72.1518,-87.5334 96.7129,-86.1612 116.861,-85.0356"/>
<polygon fill="lightgray" stroke="lightgray" points="117.149,-88.5251 126.938,-84.4726 116.758,-81.536 117.149,-88.5251"/>
<text text-anchor="middle" x="90.5" y="-91.8" font-family="Times New Roman,serif" font-size="14.00" fill="lightgray">wff ph</text>
</g>
<!-- n9963 -->
<g id="node23" class="node"><title>n9963</title>
</g>
<!-- n9962&#45;&gt;n9963 -->
<g id="edge26" class="edge"><title>n9962&#45;&gt;n9963</title>
</g>
<!-- n9964&#45;&gt;n9965 -->
<g id="edge25" class="edge"><title>n9964&#45;&gt;n9965</title>
<path fill="none" stroke="black" d="M181.733,-80.7234C230.245,-78.0976 333.798,-79.948 391.595,-136 417.268,-160.898 434.451,-265.299 441.45,-316.056"/>
<polygon fill="black" stroke="black" points="437.989,-316.579 442.788,-326.025 444.927,-315.648 437.989,-316.579"/>
<text text-anchor="middle" x="295.595" y="-139.8" font-family="Times New Roman,serif" font-size="14.00">|&#45; ( ( ph &#45;&gt; ch ) &lt;&#45;&gt; ( &#45;. ph \/ ch ) )</text>
</g>
<!-- n9963&#45;&gt;n9964 -->
<g id="edge24" class="edge"><title>n9963&#45;&gt;n9964</title>
<path fill="none" stroke="lightgray" d="M48.6903,-28.7334C68.9725,-39.2551 100.113,-55.4098 123.148,-67.3594"/>
<polygon fill="lightgray" stroke="lightgray" points="121.669,-70.5353 132.158,-72.0334 124.893,-64.3216 121.669,-70.5353"/>
<text text-anchor="middle" x="90.5" y="-64.8" font-family="Times New Roman,serif" font-size="14.00" fill="lightgray">wff ch</text>
</g>
</g>
</svg>
