<?xml version="1.0" encoding="UTF-8" standalone="no"?>
<!DOCTYPE svg PUBLIC "-//W3C//DTD SVG 1.1//EN"
 "http://www.w3.org/Graphics/SVG/1.1/DTD/svg11.dtd">
<!-- Generated by graphviz version 2.38.0 (20140413.2041)
 -->
<!-- Title: proof_pm4_57 Pages: 1 -->
<svg width="813pt" height="223pt"
 viewBox="0.00 0.00 812.99 223.00" xmlns="http://www.w3.org/2000/svg" xmlns:xlink="http://www.w3.org/1999/xlink">
<g id="graph0" class="graph" transform="scale(1 1) rotate(0) translate(4 219)">
<title>proof_pm4_57</title>
<polygon fill="white" stroke="none" points="-4,4 -4,-219 808.988,-219 808.988,4 -4,4"/>
<!-- n8593 -->
<g id="node1" class="node"><title>n8593</title>
</g>
<!-- n8603 -->
<g id="node2" class="node"><title>n8603</title>
<ellipse fill="cyan" stroke="black" cx="463.747" cy="-125" rx="35.9954" ry="18"/>
<text text-anchor="middle" x="463.747" y="-121.3" font-family="Times New Roman,serif" font-size="14.00">bicomi</text>
</g>
<!-- n8593&#45;&gt;n8603 -->
<g id="edge1" class="edge"><title>n8593&#45;&gt;n8603</title>
<path fill="none" stroke="lightgray" d="M180.622,-192.906C226.905,-185.238 327.324,-167.357 410,-144 415.023,-142.581 420.256,-140.923 425.391,-139.188"/>
<polygon fill="lightgray" stroke="lightgray" points="426.782,-142.409 435.063,-135.8 424.468,-135.803 426.782,-142.409"/>
<text text-anchor="middle" x="304.5" y="-192.8" font-family="Times New Roman,serif" font-size="14.00" fill="lightgray">wff ( ph \/ ps )</text>
</g>
<!-- n8599 -->
<g id="node3" class="node"><title>n8599</title>
</g>
<!-- n8593&#45;&gt;n8599 -->
<g id="edge8" class="edge"><title>n8593&#45;&gt;n8599</title>
</g>
<!-- QED -->
<g id="node7" class="node"><title>QED</title>
</g>
<!-- n8603&#45;&gt;QED -->
<g id="edge7" class="edge"><title>n8603&#45;&gt;QED</title>
<path fill="none" stroke="black" d="M499.705,-125C558.11,-125 675.107,-125 735.962,-125"/>
<polygon fill="black" stroke="black" points="736.292,-128.5 746.292,-125 736.292,-121.5 736.292,-128.5"/>
<text text-anchor="middle" x="622.994" y="-128.8" font-family="Times New Roman,serif" font-size="14.00">|&#45; ( &#45;. ( &#45;. ph /\ &#45;. ps ) &lt;&#45;&gt; ( ph \/ ps ) )</text>
</g>
<!-- n8599&#45;&gt;n8603 -->
<g id="edge2" class="edge"><title>n8599&#45;&gt;n8603</title>
<path fill="none" stroke="lightgray" d="M181.238,-125C233.698,-125 352.077,-125 417.376,-125"/>
<polygon fill="lightgray" stroke="lightgray" points="417.767,-128.5 427.767,-125 417.767,-121.5 417.767,-128.5"/>
<text text-anchor="middle" x="304.5" y="-128.8" font-family="Times New Roman,serif" font-size="14.00" fill="lightgray">wff &#45;. ( &#45;. ph /\ &#45;. ps )</text>
</g>
<!-- n8602 -->
<g id="node5" class="node"><title>n8602</title>
<ellipse fill="cyan" stroke="black" cx="154" cy="-53" rx="27" ry="18"/>
<text text-anchor="middle" x="154" y="-49.3" font-family="Times New Roman,serif" font-size="14.00">oran</text>
</g>
<!-- n8599&#45;&gt;n8602 -->
<g id="edge9" class="edge"><title>n8599&#45;&gt;n8602</title>
</g>
<!-- n8600 -->
<g id="node4" class="node"><title>n8600</title>
</g>
<!-- n8600&#45;&gt;n8602 -->
<g id="edge3" class="edge"><title>n8600&#45;&gt;n8602</title>
<path fill="none" stroke="lightgray" d="M52.1013,-82.866C71.2097,-77.2099 98.1365,-69.2396 119.368,-62.9551"/>
<polygon fill="lightgray" stroke="lightgray" points="120.377,-66.3065 128.973,-60.1121 118.391,-59.5943 120.377,-66.3065"/>
<text text-anchor="middle" x="90.5" y="-80.8" font-family="Times New Roman,serif" font-size="14.00" fill="lightgray">wff ph</text>
</g>
<!-- n8601 -->
<g id="node6" class="node"><title>n8601</title>
</g>
<!-- n8600&#45;&gt;n8601 -->
<g id="edge6" class="edge"><title>n8600&#45;&gt;n8601</title>
</g>
<!-- n8602&#45;&gt;n8603 -->
<g id="edge5" class="edge"><title>n8602&#45;&gt;n8603</title>
<path fill="none" stroke="black" d="M180.622,-57.0945C226.905,-64.762 327.324,-82.6432 410,-106 415.023,-107.419 420.256,-109.077 425.391,-110.812"/>
<polygon fill="black" stroke="black" points="424.468,-114.197 435.063,-114.2 426.782,-107.591 424.468,-114.197"/>
<text text-anchor="middle" x="304.5" y="-109.8" font-family="Times New Roman,serif" font-size="14.00">|&#45; ( ( ph \/ ps ) &lt;&#45;&gt; &#45;. ( &#45;. ph /\ &#45;. ps ) )</text>
</g>
<!-- n8601&#45;&gt;n8602 -->
<g id="edge4" class="edge"><title>n8601&#45;&gt;n8602</title>
<path fill="none" stroke="lightgray" d="M52.1013,-24.7484C71.0013,-30.0404 97.5501,-37.474 118.671,-43.3879"/>
<polygon fill="lightgray" stroke="lightgray" points="117.973,-46.8269 128.546,-46.1529 119.86,-40.0862 117.973,-46.8269"/>
<text text-anchor="middle" x="90.5" y="-44.8" font-family="Times New Roman,serif" font-size="14.00" fill="lightgray">wff ps</text>
</g>
</g>
</svg>
