<?xml version="1.0" encoding="UTF-8" standalone="no"?>
<!DOCTYPE svg PUBLIC "-//W3C//DTD SVG 1.1//EN"
 "http://www.w3.org/Graphics/SVG/1.1/DTD/svg11.dtd">
<!-- Generated by graphviz version 2.38.0 (20140413.2041)
 -->
<!-- Title: proof_pm4_72 Pages: 1 -->
<svg width="1321pt" height="815pt"
 viewBox="0.00 0.00 1320.87 815.00" xmlns="http://www.w3.org/2000/svg" xmlns:xlink="http://www.w3.org/1999/xlink">
<g id="graph0" class="graph" transform="scale(1 1) rotate(0) translate(4 811)">
<title>proof_pm4_72</title>
<polygon fill="white" stroke="none" points="-4,4 -4,-811 1316.87,-811 1316.87,4 -4,4"/>
<!-- n15333 -->
<g id="node1" class="node"><title>n15333</title>
</g>
<!-- n15372 -->
<g id="node2" class="node"><title>n15372</title>
<ellipse fill="cyan" stroke="black" cx="947.232" cy="-600" rx="33.2948" ry="18"/>
<text text-anchor="middle" x="947.232" y="-596.3" font-family="Times New Roman,serif" font-size="14.00">impbii</text>
</g>
<!-- n15333&#45;&gt;n15372 -->
<g id="edge1" class="edge"><title>n15333&#45;&gt;n15372</title>
<path fill="none" stroke="lightgray" d="M635.017,-708.366C687.609,-706.092 808.41,-695.749 896.085,-649 907.549,-642.887 918.171,-633.354 926.66,-624.315"/>
<polygon fill="lightgray" stroke="lightgray" points="929.498,-626.391 933.539,-616.597 924.272,-621.734 929.498,-626.391"/>
<text text-anchor="middle" x="781.085" y="-709.8" font-family="Times New Roman,serif" font-size="14.00" fill="lightgray">wff ( ph &#45;&gt; ps )</text>
</g>
<!-- n15338 -->
<g id="node3" class="node"><title>n15338</title>
</g>
<!-- n15333&#45;&gt;n15338 -->
<g id="edge38" class="edge"><title>n15333&#45;&gt;n15338</title>
</g>
<!-- QED -->
<g id="node25" class="node"><title>QED</title>
</g>
<!-- n15372&#45;&gt;QED -->
<g id="edge37" class="edge"><title>n15372&#45;&gt;QED</title>
<path fill="none" stroke="black" d="M980.599,-600C1042.52,-600 1177.5,-600 1244.01,-600"/>
<polygon fill="black" stroke="black" points="1244.08,-603.5 1254.08,-600 1244.08,-596.5 1244.08,-603.5"/>
<text text-anchor="middle" x="1117.38" y="-603.8" font-family="Times New Roman,serif" font-size="14.00">|&#45; ( ( ph &#45;&gt; ps ) &lt;&#45;&gt; ( ps &lt;&#45;&gt; ( ph \/ ps ) ) )</text>
</g>
<!-- n15338&#45;&gt;n15372 -->
<g id="edge2" class="edge"><title>n15338&#45;&gt;n15372</title>
<path fill="none" stroke="lightgray" d="M634.553,-634.321C684.851,-629.069 799.634,-616.973 896.085,-606 898.903,-605.679 901.809,-605.344 904.737,-605.003"/>
<polygon fill="lightgray" stroke="lightgray" points="905.151,-608.478 914.673,-603.833 904.332,-601.526 905.151,-608.478"/>
<text text-anchor="middle" x="781.085" y="-633.8" font-family="Times New Roman,serif" font-size="14.00" fill="lightgray">wff ( ps &lt;&#45;&gt; ( ph \/ ps ) )</text>
</g>
<!-- n15352 -->
<g id="node5" class="node"><title>n15352</title>
<ellipse fill="cyan" stroke="black" cx="607.789" cy="-565" rx="40.0939" ry="18"/>
<text text-anchor="middle" x="607.789" y="-561.3" font-family="Times New Roman,serif" font-size="14.00">impbid2</text>
</g>
<!-- n15338&#45;&gt;n15352 -->
<g id="edge39" class="edge"><title>n15338&#45;&gt;n15352</title>
</g>
<!-- n15341 -->
<g id="node4" class="node"><title>n15341</title>
</g>
<!-- n15341&#45;&gt;n15352 -->
<g id="edge3" class="edge"><title>n15341&#45;&gt;n15352</title>
<path fill="none" stroke="lightgray" d="M240.574,-785.382C302.969,-794.583 465.125,-808.544 549.493,-723 585.203,-686.792 545.928,-656.057 567.493,-610 571.018,-602.471 576.188,-595.245 581.628,-588.87"/>
<polygon fill="lightgray" stroke="lightgray" points="584.392,-591.034 588.558,-581.292 579.226,-586.31 584.392,-591.034"/>
<text text-anchor="middle" x="411.993" y="-795.8" font-family="Times New Roman,serif" font-size="14.00" fill="lightgray">wff ( ph &#45;&gt; ps )</text>
</g>
<!-- n15342 -->
<g id="node6" class="node"><title>n15342</title>
</g>
<!-- n15341&#45;&gt;n15342 -->
<g id="edge15" class="edge"><title>n15341&#45;&gt;n15342</title>
</g>
<!-- n15352&#45;&gt;n15372 -->
<g id="edge14" class="edge"><title>n15352&#45;&gt;n15372</title>
<path fill="none" stroke="black" d="M647.944,-567.455C703.353,-571.177 807.738,-579.098 896.085,-591 899.285,-591.431 902.592,-591.922 905.91,-592.447"/>
<polygon fill="black" stroke="black" points="905.363,-595.904 915.803,-594.1 906.516,-589 905.363,-595.904"/>
<text text-anchor="middle" x="781.085" y="-594.8" font-family="Times New Roman,serif" font-size="14.00">|&#45; ( ( ph &#45;&gt; ps ) &#45;&gt; ( ps &lt;&#45;&gt; ( ph \/ ps ) ) )</text>
</g>
<!-- n15371 -->
<g id="node15" class="node"><title>n15371</title>
<ellipse fill="cyan" stroke="black" cx="607.789" cy="-340" rx="27" ry="18"/>
<text text-anchor="middle" x="607.789" y="-336.3" font-family="Times New Roman,serif" font-size="14.00">syl5</text>
</g>
<!-- n15352&#45;&gt;n15371 -->
<g id="edge40" class="edge"><title>n15352&#45;&gt;n15371</title>
</g>
<!-- n15342&#45;&gt;n15352 -->
<g id="edge4" class="edge"><title>n15342&#45;&gt;n15352</title>
<path fill="none" stroke="lightgray" d="M241.227,-707.4C311.103,-702.632 501.038,-686.451 549.493,-649 564.597,-637.325 557.108,-626.019 567.493,-610 572.094,-602.901 577.752,-595.758 583.327,-589.319"/>
<polygon fill="lightgray" stroke="lightgray" points="586.183,-591.377 590.258,-581.597 580.974,-586.701 586.183,-591.377"/>
<text text-anchor="middle" x="411.993" y="-707.8" font-family="Times New Roman,serif" font-size="14.00" fill="lightgray">wff ps</text>
</g>
<!-- n15345 -->
<g id="node7" class="node"><title>n15345</title>
</g>
<!-- n15342&#45;&gt;n15345 -->
<g id="edge16" class="edge"><title>n15342&#45;&gt;n15345</title>
</g>
<!-- n15345&#45;&gt;n15352 -->
<g id="edge5" class="edge"><title>n15345&#45;&gt;n15352</title>
<path fill="none" stroke="lightgray" d="M241.108,-634.354C297.628,-628.254 436.174,-611.578 549.493,-584 554.966,-582.668 560.666,-581.058 566.258,-579.345"/>
<polygon fill="lightgray" stroke="lightgray" points="567.672,-582.567 576.132,-576.189 565.541,-575.9 567.672,-582.567"/>
<text text-anchor="middle" x="411.993" y="-633.8" font-family="Times New Roman,serif" font-size="14.00" fill="lightgray">wff ( ph \/ ps )</text>
</g>
<!-- n15348 -->
<g id="node9" class="node"><title>n15348</title>
<ellipse fill="cyan" stroke="black" cx="214.246" cy="-565" rx="27" ry="18"/>
<text text-anchor="middle" x="214.246" y="-561.3" font-family="Times New Roman,serif" font-size="14.00">olc</text>
</g>
<!-- n15345&#45;&gt;n15348 -->
<g id="edge17" class="edge"><title>n15345&#45;&gt;n15348</title>
</g>
<!-- n15346 -->
<g id="node8" class="node"><title>n15346</title>
</g>
<!-- n15346&#45;&gt;n15348 -->
<g id="edge6" class="edge"><title>n15346&#45;&gt;n15348</title>
<path fill="none" stroke="lightgray" d="M51.087,-622.775C83.6231,-611.182 143.136,-589.979 180.309,-576.735"/>
<polygon fill="lightgray" stroke="lightgray" points="181.915,-579.878 190.16,-573.225 179.565,-573.284 181.915,-579.878"/>
<text text-anchor="middle" x="113" y="-618.8" font-family="Times New Roman,serif" font-size="14.00" fill="lightgray">wff ps</text>
</g>
<!-- n15347 -->
<g id="node10" class="node"><title>n15347</title>
</g>
<!-- n15346&#45;&gt;n15347 -->
<g id="edge9" class="edge"><title>n15346&#45;&gt;n15347</title>
</g>
<!-- n15348&#45;&gt;n15352 -->
<g id="edge8" class="edge"><title>n15348&#45;&gt;n15352</title>
<path fill="none" stroke="black" d="M241.544,-565C306.149,-565 473.469,-565 557.34,-565"/>
<polygon fill="black" stroke="black" points="557.385,-568.5 567.385,-565 557.385,-561.5 557.385,-568.5"/>
<text text-anchor="middle" x="411.993" y="-568.8" font-family="Times New Roman,serif" font-size="14.00">|&#45; ( ps &#45;&gt; ( ph \/ ps ) )</text>
</g>
<!-- n15351 -->
<g id="node12" class="node"><title>n15351</title>
<ellipse fill="cyan" stroke="black" cx="214.246" cy="-493" rx="42.4939" ry="18"/>
<text text-anchor="middle" x="214.246" y="-489.3" font-family="Times New Roman,serif" font-size="14.00">pm2.621</text>
</g>
<!-- n15348&#45;&gt;n15351 -->
<g id="edge18" class="edge"><title>n15348&#45;&gt;n15351</title>
</g>
<!-- n15347&#45;&gt;n15348 -->
<g id="edge7" class="edge"><title>n15347&#45;&gt;n15348</title>
<path fill="none" stroke="lightgray" d="M54.1484,-559.847C86.2818,-560.888 140.976,-562.659 177.112,-563.83"/>
<polygon fill="lightgray" stroke="lightgray" points="177.123,-567.332 187.231,-564.157 177.349,-560.335 177.123,-567.332"/>
<text text-anchor="middle" x="113" y="-566.8" font-family="Times New Roman,serif" font-size="14.00" fill="lightgray">wff ph</text>
</g>
<!-- n15349 -->
<g id="node11" class="node"><title>n15349</title>
</g>
<!-- n15349&#45;&gt;n15351 -->
<g id="edge10" class="edge"><title>n15349&#45;&gt;n15351</title>
<path fill="none" stroke="lightgray" d="M54.1484,-502.447C82.1063,-500.787 127.143,-498.113 162.175,-496.033"/>
<polygon fill="lightgray" stroke="lightgray" points="162.456,-499.522 172.231,-495.435 162.041,-492.535 162.456,-499.522"/>
<text text-anchor="middle" x="113" y="-504.8" font-family="Times New Roman,serif" font-size="14.00" fill="lightgray">wff ph</text>
</g>
<!-- n15350 -->
<g id="node13" class="node"><title>n15350</title>
</g>
<!-- n15349&#45;&gt;n15350 -->
<g id="edge13" class="edge"><title>n15349&#45;&gt;n15350</title>
</g>
<!-- n15351&#45;&gt;n15352 -->
<g id="edge12" class="edge"><title>n15351&#45;&gt;n15352</title>
<path fill="none" stroke="black" d="M255.539,-497.24C318.767,-504.373 444.88,-520.541 549.493,-546 554.966,-547.332 560.666,-548.942 566.258,-550.655"/>
<polygon fill="black" stroke="black" points="565.541,-554.1 576.132,-553.811 567.672,-547.433 565.541,-554.1"/>
<text text-anchor="middle" x="411.993" y="-549.8" font-family="Times New Roman,serif" font-size="14.00">|&#45; ( ( ph &#45;&gt; ps ) &#45;&gt; ( ( ph \/ ps ) &#45;&gt; ps ) )</text>
</g>
<!-- n15350&#45;&gt;n15351 -->
<g id="edge11" class="edge"><title>n15350&#45;&gt;n15351</title>
<path fill="none" stroke="lightgray" d="M51.4616,-439.726C81.401,-449.584 133.739,-466.819 170.77,-479.013"/>
<polygon fill="lightgray" stroke="lightgray" points="169.71,-482.349 180.303,-482.152 171.9,-475.7 169.71,-482.349"/>
<text text-anchor="middle" x="113" y="-476.8" font-family="Times New Roman,serif" font-size="14.00" fill="lightgray">wff ps</text>
</g>
<!-- n15353 -->
<g id="node14" class="node"><title>n15353</title>
</g>
<!-- n15353&#45;&gt;n15371 -->
<g id="edge19" class="edge"><title>n15353&#45;&gt;n15371</title>
<path fill="none" stroke="lightgray" d="M241.536,-438.577C299.487,-436.792 441.629,-427.697 549.493,-382 561.438,-376.939 573.24,-368.946 583,-361.285"/>
<polygon fill="lightgray" stroke="lightgray" points="585.492,-363.769 591.004,-354.721 581.052,-358.357 585.492,-363.769"/>
<text text-anchor="middle" x="411.993" y="-439.8" font-family="Times New Roman,serif" font-size="14.00" fill="lightgray">wff ph</text>
</g>
<!-- n15356 -->
<g id="node16" class="node"><title>n15356</title>
</g>
<!-- n15353&#45;&gt;n15356 -->
<g id="edge32" class="edge"><title>n15353&#45;&gt;n15356</title>
</g>
<!-- n15371&#45;&gt;n15372 -->
<g id="edge31" class="edge"><title>n15371&#45;&gt;n15372</title>
<path fill="none" stroke="black" d="M627.737,-352.198C674.93,-382.91 800.776,-466.851 896.085,-549 905.834,-557.402 915.908,-567.36 924.446,-576.237"/>
<polygon fill="black" stroke="black" points="922.09,-578.839 931.508,-583.693 927.173,-574.026 922.09,-578.839"/>
<text text-anchor="middle" x="781.085" y="-552.8" font-family="Times New Roman,serif" font-size="14.00">|&#45; ( ( ps &lt;&#45;&gt; ( ph \/ ps ) ) &#45;&gt; ( ph &#45;&gt; ps ) )</text>
</g>
<!-- n15356&#45;&gt;n15371 -->
<g id="edge20" class="edge"><title>n15356&#45;&gt;n15371</title>
<path fill="none" stroke="lightgray" d="M241.24,-365.208C309.182,-360.522 492.206,-347.901 570.478,-342.504"/>
<polygon fill="lightgray" stroke="lightgray" points="571.069,-345.972 580.805,-341.792 570.588,-338.988 571.069,-345.972"/>
<text text-anchor="middle" x="411.993" y="-366.8" font-family="Times New Roman,serif" font-size="14.00" fill="lightgray">wff ( ph \/ ps )</text>
</g>
<!-- n15361 -->
<g id="node17" class="node"><title>n15361</title>
</g>
<!-- n15356&#45;&gt;n15361 -->
<g id="edge33" class="edge"><title>n15356&#45;&gt;n15361</title>
</g>
<!-- n15361&#45;&gt;n15371 -->
<g id="edge21" class="edge"><title>n15361&#45;&gt;n15371</title>
<path fill="none" stroke="lightgray" d="M241.418,-296.115C297.978,-298.813 435.69,-306.926 549.493,-326 557.146,-327.283 565.29,-329.033 572.963,-330.862"/>
<polygon fill="lightgray" stroke="lightgray" points="572.149,-334.266 582.698,-333.278 573.835,-327.472 572.149,-334.266"/>
<text text-anchor="middle" x="411.993" y="-329.8" font-family="Times New Roman,serif" font-size="14.00" fill="lightgray">wff ( ps &lt;&#45;&gt; ( ph \/ ps ) )</text>
</g>
<!-- n15362 -->
<g id="node18" class="node"><title>n15362</title>
</g>
<!-- n15361&#45;&gt;n15362 -->
<g id="edge34" class="edge"><title>n15361&#45;&gt;n15362</title>
</g>
<!-- n15362&#45;&gt;n15371 -->
<g id="edge22" class="edge"><title>n15362&#45;&gt;n15371</title>
<path fill="none" stroke="lightgray" d="M241.308,-222.055C300.005,-221.029 445.539,-224.729 549.493,-280 565.454,-288.487 579.536,-303.073 589.746,-315.739"/>
<polygon fill="lightgray" stroke="lightgray" points="587.003,-317.913 595.877,-323.701 592.549,-313.643 587.003,-317.913"/>
<text text-anchor="middle" x="411.993" y="-283.8" font-family="Times New Roman,serif" font-size="14.00" fill="lightgray">wff ps</text>
</g>
<!-- n15365 -->
<g id="node20" class="node"><title>n15365</title>
<ellipse fill="cyan" stroke="black" cx="214.246" cy="-151" rx="27" ry="18"/>
<text text-anchor="middle" x="214.246" y="-147.3" font-family="Times New Roman,serif" font-size="14.00">orc</text>
</g>
<!-- n15362&#45;&gt;n15365 -->
<g id="edge35" class="edge"><title>n15362&#45;&gt;n15365</title>
</g>
<!-- n15363 -->
<g id="node19" class="node"><title>n15363</title>
</g>
<!-- n15363&#45;&gt;n15365 -->
<g id="edge23" class="edge"><title>n15363&#45;&gt;n15365</title>
<path fill="none" stroke="lightgray" d="M51.087,-209.65C83.6231,-197.882 143.136,-176.357 180.309,-162.913"/>
<polygon fill="lightgray" stroke="lightgray" points="181.947,-166.042 190.16,-159.35 179.566,-159.46 181.947,-166.042"/>
<text text-anchor="middle" x="113" y="-205.8" font-family="Times New Roman,serif" font-size="14.00" fill="lightgray">wff ph</text>
</g>
<!-- n15364 -->
<g id="node21" class="node"><title>n15364</title>
</g>
<!-- n15363&#45;&gt;n15364 -->
<g id="edge26" class="edge"><title>n15363&#45;&gt;n15364</title>
</g>
<!-- n15365&#45;&gt;n15371 -->
<g id="edge25" class="edge"><title>n15365&#45;&gt;n15371</title>
<path fill="none" stroke="black" d="M241.119,-147.308C301.973,-140.119 456.074,-130.797 549.493,-204 583.193,-230.408 597.311,-280.29 603.052,-311.747"/>
<polygon fill="black" stroke="black" points="599.605,-312.356 604.694,-321.649 606.51,-311.211 599.605,-312.356"/>
<text text-anchor="middle" x="411.993" y="-207.8" font-family="Times New Roman,serif" font-size="14.00">|&#45; ( ph &#45;&gt; ( ph \/ ps ) )</text>
</g>
<!-- n15370 -->
<g id="node23" class="node"><title>n15370</title>
<ellipse fill="cyan" stroke="black" cx="214.246" cy="-79" rx="27" ry="18"/>
<text text-anchor="middle" x="214.246" y="-75.3" font-family="Times New Roman,serif" font-size="14.00">bi2</text>
</g>
<!-- n15365&#45;&gt;n15370 -->
<g id="edge36" class="edge"><title>n15365&#45;&gt;n15370</title>
</g>
<!-- n15364&#45;&gt;n15365 -->
<g id="edge24" class="edge"><title>n15364&#45;&gt;n15365</title>
<path fill="none" stroke="lightgray" d="M54.1484,-146.706C86.2818,-147.573 140.976,-149.049 177.112,-150.025"/>
<polygon fill="lightgray" stroke="lightgray" points="177.14,-153.527 187.231,-150.298 177.329,-146.529 177.14,-153.527"/>
<text text-anchor="middle" x="113" y="-153.8" font-family="Times New Roman,serif" font-size="14.00" fill="lightgray">wff ps</text>
</g>
<!-- n15366 -->
<g id="node22" class="node"><title>n15366</title>
</g>
<!-- n15366&#45;&gt;n15370 -->
<g id="edge27" class="edge"><title>n15366&#45;&gt;n15370</title>
<path fill="none" stroke="lightgray" d="M54.1484,-88.4473C86.2818,-86.5392 140.976,-83.2914 177.112,-81.1457"/>
<polygon fill="lightgray" stroke="lightgray" points="177.456,-84.6315 187.231,-80.5448 177.041,-77.6438 177.456,-84.6315"/>
<text text-anchor="middle" x="113" y="-91.8" font-family="Times New Roman,serif" font-size="14.00" fill="lightgray">wff ps</text>
</g>
<!-- n15369 -->
<g id="node24" class="node"><title>n15369</title>
</g>
<!-- n15366&#45;&gt;n15369 -->
<g id="edge30" class="edge"><title>n15366&#45;&gt;n15369</title>
</g>
<!-- n15370&#45;&gt;n15371 -->
<g id="edge29" class="edge"><title>n15370&#45;&gt;n15371</title>
<path fill="none" stroke="black" d="M240.377,-73.9583C301.626,-63.2413 460.122,-45.193 549.493,-124 577.601,-148.786 595.916,-259.174 603.21,-311.849"/>
<polygon fill="black" stroke="black" points="599.756,-312.425 604.561,-321.867 606.693,-311.489 599.756,-312.425"/>
<text text-anchor="middle" x="411.993" y="-127.8" font-family="Times New Roman,serif" font-size="14.00">|&#45; ( ( ps &lt;&#45;&gt; ( ph \/ ps ) ) &#45;&gt; ( ( ph \/ ps ) &#45;&gt; ps ) )</text>
</g>
<!-- n15369&#45;&gt;n15370 -->
<g id="edge28" class="edge"><title>n15369&#45;&gt;n15370</title>
<path fill="none" stroke="lightgray" d="M51.4616,-25.7257C83.9433,-36.4217 142.79,-55.7993 179.849,-68.0024"/>
<polygon fill="lightgray" stroke="lightgray" points="179.09,-71.4376 189.683,-71.2409 181.28,-64.7888 179.09,-71.4376"/>
<text text-anchor="middle" x="113" y="-63.8" font-family="Times New Roman,serif" font-size="14.00" fill="lightgray">wff ( ph \/ ps )</text>
</g>
</g>
</svg>
