<?xml version="1.0" encoding="UTF-8" standalone="no"?>
<!DOCTYPE svg PUBLIC "-//W3C//DTD SVG 1.1//EN"
 "http://www.w3.org/Graphics/SVG/1.1/DTD/svg11.dtd">
<!-- Generated by graphviz version 2.38.0 (20140413.2041)
 -->
<!-- Title: proof_pm5_74i Pages: 1 -->
<svg width="956pt" height="333pt"
 viewBox="0.00 0.00 955.58 333.00" xmlns="http://www.w3.org/2000/svg" xmlns:xlink="http://www.w3.org/1999/xlink">
<g id="graph0" class="graph" transform="scale(1 1) rotate(0) translate(4 329)">
<title>proof_pm5_74i</title>
<polygon fill="white" stroke="none" points="-4,4 -4,-329 951.581,-329 951.581,4 -4,4"/>
<!-- n5084 -->
<g id="node1" class="node"><title>n5084</title>
</g>
<!-- n5097 -->
<g id="node2" class="node"><title>n5097</title>
<ellipse fill="cyan" stroke="black" cx="638.839" cy="-197" rx="29.4969" ry="18"/>
<text text-anchor="middle" x="638.839" y="-193.3" font-family="Times New Roman,serif" font-size="14.00">mpbi</text>
</g>
<!-- n5084&#45;&gt;n5097 -->
<g id="edge1" class="edge"><title>n5084&#45;&gt;n5097</title>
<path fill="none" stroke="lightgray" d="M201.057,-308.275C269.733,-313.029 458.537,-318.33 591.592,-248 603.197,-241.865 613.357,-231.608 621.175,-221.894"/>
<polygon fill="lightgray" stroke="lightgray" points="624.193,-223.706 627.421,-213.615 618.604,-219.49 624.193,-223.706"/>
<text text-anchor="middle" x="415.092" y="-313.8" font-family="Times New Roman,serif" font-size="14.00" fill="lightgray">wff ( ph &#45;&gt; ( ps &lt;&#45;&gt; ch ) )</text>
</g>
<!-- n5091 -->
<g id="node3" class="node"><title>n5091</title>
</g>
<!-- n5084&#45;&gt;n5091 -->
<g id="edge11" class="edge"><title>n5084&#45;&gt;n5091</title>
</g>
<!-- QED -->
<g id="node9" class="node"><title>QED</title>
</g>
<!-- n5097&#45;&gt;QED -->
<g id="edge10" class="edge"><title>n5097&#45;&gt;QED</title>
<path fill="none" stroke="black" d="M668.232,-197C718.193,-197 821.877,-197 878.45,-197"/>
<polygon fill="black" stroke="black" points="878.774,-200.5 888.774,-197 878.774,-193.5 878.774,-200.5"/>
<text text-anchor="middle" x="778.587" y="-200.8" font-family="Times New Roman,serif" font-size="14.00">|&#45; ( ( ph &#45;&gt; ps ) &lt;&#45;&gt; ( ph &#45;&gt; ch ) )</text>
</g>
<!-- n5091&#45;&gt;n5097 -->
<g id="edge2" class="edge"><title>n5091&#45;&gt;n5097</title>
<path fill="none" stroke="lightgray" d="M201.173,-232.541C267.098,-228.786 444.333,-218.017 591.592,-203 594.292,-202.725 597.079,-202.418 599.883,-202.094"/>
<polygon fill="lightgray" stroke="lightgray" points="600.484,-205.547 609.988,-200.864 599.639,-198.598 600.484,-205.547"/>
<text text-anchor="middle" x="415.092" y="-232.8" font-family="Times New Roman,serif" font-size="14.00" fill="lightgray">wff ( ( ph &#45;&gt; ps ) &lt;&#45;&gt; ( ph &#45;&gt; ch ) )</text>
</g>
<!-- n5092 -->
<g id="node4" class="node"><title>n5092</title>
<ellipse fill="orange" stroke="black" cx="173.796" cy="-162" rx="46.5926" ry="18"/>
<text text-anchor="middle" x="173.796" y="-158.3" font-family="Times New Roman,serif" font-size="14.00">pm5.74i.1</text>
</g>
<!-- n5091&#45;&gt;n5092 -->
<g id="edge12" class="edge"><title>n5091&#45;&gt;n5092</title>
</g>
<!-- n5092&#45;&gt;n5097 -->
<g id="edge3" class="edge"><title>n5092&#45;&gt;n5097</title>
<path fill="none" stroke="black" d="M220.619,-162.914C297.56,-164.884 457.471,-170.84 591.592,-188 594.657,-188.392 597.825,-188.865 600.998,-189.385"/>
<polygon fill="black" stroke="black" points="600.576,-192.865 611.034,-191.172 601.803,-185.973 600.576,-192.865"/>
<text text-anchor="middle" x="415.092" y="-191.8" font-family="Times New Roman,serif" font-size="14.00">|&#45; ( ph &#45;&gt; ( ps &lt;&#45;&gt; ch ) )</text>
</g>
<!-- n5096 -->
<g id="node6" class="node"><title>n5096</title>
<ellipse fill="cyan" stroke="black" cx="173.796" cy="-90" rx="38.1938" ry="18"/>
<text text-anchor="middle" x="173.796" y="-86.3" font-family="Times New Roman,serif" font-size="14.00">pm5.74</text>
</g>
<!-- n5092&#45;&gt;n5096 -->
<g id="edge13" class="edge"><title>n5092&#45;&gt;n5096</title>
</g>
<!-- n5093 -->
<g id="node5" class="node"><title>n5093</title>
</g>
<!-- n5093&#45;&gt;n5096 -->
<g id="edge4" class="edge"><title>n5093&#45;&gt;n5096</title>
<path fill="none" stroke="lightgray" d="M49.0546,-151.531C72.3093,-139.967 110.125,-121.163 137.84,-107.382"/>
<polygon fill="lightgray" stroke="lightgray" points="139.421,-110.505 146.817,-102.918 136.304,-104.237 139.421,-110.505"/>
<text text-anchor="middle" x="90.5" y="-142.8" font-family="Times New Roman,serif" font-size="14.00" fill="lightgray">wff ph</text>
</g>
<!-- n5094 -->
<g id="node7" class="node"><title>n5094</title>
</g>
<!-- n5093&#45;&gt;n5094 -->
<g id="edge8" class="edge"><title>n5093&#45;&gt;n5094</title>
</g>
<!-- n5096&#45;&gt;n5097 -->
<g id="edge7" class="edge"><title>n5096&#45;&gt;n5097</title>
<path fill="none" stroke="black" d="M211.386,-86.4377C287.254,-80.7545 465.159,-76.3858 591.592,-144 603.707,-150.479 614.105,-161.499 621.956,-171.817"/>
<polygon fill="black" stroke="black" points="619.279,-174.092 627.933,-180.205 624.98,-170.03 619.279,-174.092"/>
<text text-anchor="middle" x="415.092" y="-147.8" font-family="Times New Roman,serif" font-size="14.00">|&#45; ( ( ph &#45;&gt; ( ps &lt;&#45;&gt; ch ) ) &lt;&#45;&gt; ( ( ph &#45;&gt; ps ) &lt;&#45;&gt; ( ph &#45;&gt; ch ) ) )</text>
</g>
<!-- n5094&#45;&gt;n5096 -->
<g id="edge5" class="edge"><title>n5094&#45;&gt;n5096</title>
<path fill="none" stroke="lightgray" d="M54.2214,-90C73.9569,-90 101.55,-90 125.152,-90"/>
<polygon fill="lightgray" stroke="lightgray" points="125.329,-93.5001 135.329,-90 125.329,-86.5001 125.329,-93.5001"/>
<text text-anchor="middle" x="90.5" y="-93.8" font-family="Times New Roman,serif" font-size="14.00" fill="lightgray">wff ps</text>
</g>
<!-- n5095 -->
<g id="node8" class="node"><title>n5095</title>
</g>
<!-- n5094&#45;&gt;n5095 -->
<g id="edge9" class="edge"><title>n5094&#45;&gt;n5095</title>
</g>
<!-- n5095&#45;&gt;n5096 -->
<g id="edge6" class="edge"><title>n5095&#45;&gt;n5096</title>
<path fill="none" stroke="lightgray" d="M49.0546,-28.4694C72.3093,-40.0329 110.125,-58.8369 137.84,-72.6183"/>
<polygon fill="lightgray" stroke="lightgray" points="136.304,-75.7632 146.817,-77.0817 139.421,-69.4953 136.304,-75.7632"/>
<text text-anchor="middle" x="90.5" y="-62.8" font-family="Times New Roman,serif" font-size="14.00" fill="lightgray">wff ch</text>
</g>
</g>
</svg>
