<?xml version="1.0" encoding="UTF-8" standalone="no"?>
<!DOCTYPE svg PUBLIC "-//W3C//DTD SVG 1.1//EN"
 "http://www.w3.org/Graphics/SVG/1.1/DTD/svg11.dtd">
<!-- Generated by graphviz version 2.38.0 (20140413.2041)
 -->
<!-- Title: proof_pm5_32 Pages: 1 -->
<svg width="2086pt" height="956pt"
 viewBox="0.00 0.00 2086.37 955.62" xmlns="http://www.w3.org/2000/svg" xmlns:xlink="http://www.w3.org/1999/xlink">
<g id="graph0" class="graph" transform="scale(1 1) rotate(0) translate(4 951.619)">
<title>proof_pm5_32</title>
<polygon fill="white" stroke="none" points="-4,4 -4,-951.619 2082.37,-951.619 2082.37,4 -4,4"/>
<!-- n10929 -->
<g id="node1" class="node"><title>n10929</title>
</g>
<!-- n11032 -->
<g id="node2" class="node"><title>n11032</title>
<ellipse fill="cyan" stroke="black" cx="1611.63" cy="-679.619" rx="29.4969" ry="18"/>
<text text-anchor="middle" x="1611.63" y="-675.919" font-family="Times New Roman,serif" font-size="14.00">bitr4i</text>
</g>
<!-- n10929&#45;&gt;n11032 -->
<g id="edge1" class="edge"><title>n10929&#45;&gt;n11032</title>
<path fill="none" stroke="lightgray" d="M1095.44,-828.612C1173.21,-842.583 1413.64,-874.575 1564.38,-770.619 1585.7,-755.92 1597.74,-728.361 1604.16,-707.408"/>
<polygon fill="lightgray" stroke="lightgray" points="1607.54,-708.311 1606.88,-697.737 1600.8,-706.419 1607.54,-708.311"/>
<text text-anchor="middle" x="1343.38" y="-847.419" font-family="Times New Roman,serif" font-size="14.00" fill="lightgray">wff ( ph &#45;&gt; ( ps &lt;&#45;&gt; ch ) )</text>
</g>
<!-- n10940 -->
<g id="node3" class="node"><title>n10940</title>
</g>
<!-- n10929&#45;&gt;n10940 -->
<g id="edge49" class="edge"><title>n10929&#45;&gt;n10940</title>
</g>
<!-- QED -->
<g id="node31" class="node"><title>QED</title>
</g>
<!-- n11032&#45;&gt;QED -->
<g id="edge48" class="edge"><title>n11032&#45;&gt;QED</title>
<path fill="none" stroke="black" d="M1641.2,-679.619C1717.04,-679.619 1923.49,-679.619 2009.6,-679.619"/>
<polygon fill="black" stroke="black" points="2009.73,-683.119 2019.73,-679.619 2009.73,-676.119 2009.73,-683.119"/>
<text text-anchor="middle" x="1830.38" y="-683.419" font-family="Times New Roman,serif" font-size="14.00">|&#45; ( ( ph &#45;&gt; ( ps &lt;&#45;&gt; ch ) ) &lt;&#45;&gt; ( ( ph /\ ps ) &lt;&#45;&gt; ( ph /\ ch ) ) )</text>
</g>
<!-- n10940&#45;&gt;n11032 -->
<g id="edge2" class="edge"><title>n10940&#45;&gt;n11032</title>
<path fill="none" stroke="lightgray" d="M1096.46,-751.397C1170.88,-750.217 1389.6,-742.937 1564.38,-698.619 1569.08,-697.428 1573.92,-695.853 1578.63,-694.119"/>
<polygon fill="lightgray" stroke="lightgray" points="1580,-697.341 1588.01,-690.405 1577.42,-690.833 1580,-697.341"/>
<text text-anchor="middle" x="1343.38" y="-755.419" font-family="Times New Roman,serif" font-size="14.00" fill="lightgray">wff ( &#45;. ( ph &#45;&gt; &#45;. ps ) &lt;&#45;&gt; &#45;. ( ph &#45;&gt; &#45;. ch ) )</text>
</g>
<!-- n10947 -->
<g id="node4" class="node"><title>n10947</title>
</g>
<!-- n10940&#45;&gt;n10947 -->
<g id="edge50" class="edge"><title>n10940&#45;&gt;n10947</title>
</g>
<!-- n10947&#45;&gt;n11032 -->
<g id="edge3" class="edge"><title>n10947&#45;&gt;n11032</title>
<path fill="none" stroke="lightgray" d="M1096.35,-679.619C1183.99,-679.619 1468.36,-679.619 1572.21,-679.619"/>
<polygon fill="lightgray" stroke="lightgray" points="1572.26,-683.119 1582.26,-679.619 1572.26,-676.119 1572.26,-683.119"/>
<text text-anchor="middle" x="1343.38" y="-683.419" font-family="Times New Roman,serif" font-size="14.00" fill="lightgray">wff ( ( ph /\ ps ) &lt;&#45;&gt; ( ph /\ ch ) )</text>
</g>
<!-- n11008 -->
<g id="node6" class="node"><title>n11008</title>
<ellipse fill="cyan" stroke="black" cx="1069.28" cy="-607.619" rx="29.4969" ry="18"/>
<text text-anchor="middle" x="1069.28" y="-603.919" font-family="Times New Roman,serif" font-size="14.00">3bitri</text>
</g>
<!-- n10947&#45;&gt;n11008 -->
<g id="edge51" class="edge"><title>n10947&#45;&gt;n11008</title>
</g>
<!-- n10952 -->
<g id="node5" class="node"><title>n10952</title>
</g>
<!-- n10952&#45;&gt;n11008 -->
<g id="edge4" class="edge"><title>n10952&#45;&gt;n11008</title>
<path fill="none" stroke="lightgray" d="M509.072,-902.405C593.148,-924.321 874.853,-983.851 1016.19,-841.619 1045.93,-811.691 1018.87,-691.928 1034.19,-652.619 1037.19,-644.913 1041.92,-637.398 1046.91,-630.786"/>
<polygon fill="lightgray" stroke="lightgray" points="1049.68,-632.92 1053.26,-622.946 1044.24,-628.515 1049.68,-632.92"/>
<text text-anchor="middle" x="778.188" y="-936.419" font-family="Times New Roman,serif" font-size="14.00" fill="lightgray">wff ( ph &#45;&gt; ( ps &lt;&#45;&gt; ch ) )</text>
</g>
<!-- n10959 -->
<g id="node7" class="node"><title>n10959</title>
</g>
<!-- n10952&#45;&gt;n10959 -->
<g id="edge30" class="edge"><title>n10952&#45;&gt;n10959</title>
</g>
<!-- n11008&#45;&gt;n11032 -->
<g id="edge29" class="edge"><title>n11008&#45;&gt;n11032</title>
<path fill="none" stroke="black" d="M1098.64,-607.876C1175.06,-609.163 1391.28,-616.724 1564.38,-660.619 1569.08,-661.809 1573.92,-663.384 1578.63,-665.118"/>
<polygon fill="black" stroke="black" points="1577.42,-668.404 1588.01,-668.832 1580,-661.896 1577.42,-668.404"/>
<text text-anchor="middle" x="1343.38" y="-664.419" font-family="Times New Roman,serif" font-size="14.00">|&#45; ( ( ph &#45;&gt; ( ps &lt;&#45;&gt; ch ) ) &lt;&#45;&gt; ( &#45;. ( ph &#45;&gt; &#45;. ps ) &lt;&#45;&gt; &#45;. ( ph &#45;&gt; &#45;. ch ) ) )</text>
</g>
<!-- n11031 -->
<g id="node25" class="node"><title>n11031</title>
<ellipse fill="cyan" stroke="black" cx="1069.28" cy="-310.619" rx="35.194" ry="18"/>
<text text-anchor="middle" x="1069.28" y="-306.919" font-family="Times New Roman,serif" font-size="14.00">bibi12i</text>
</g>
<!-- n11008&#45;&gt;n11031 -->
<g id="edge52" class="edge"><title>n11008&#45;&gt;n11031</title>
</g>
<!-- n10959&#45;&gt;n11008 -->
<g id="edge5" class="edge"><title>n10959&#45;&gt;n11008</title>
<path fill="none" stroke="lightgray" d="M510.868,-822.915C612.542,-819.92 979.164,-806.746 1016.19,-771.619 1054.99,-734.802 1013.39,-701.902 1034.19,-652.619 1037.4,-644.999 1042.2,-637.513 1047.19,-630.902"/>
<polygon fill="lightgray" stroke="lightgray" points="1049.97,-633.035 1053.51,-623.05 1044.52,-628.646 1049.97,-633.035"/>
<text text-anchor="middle" x="778.188" y="-826.419" font-family="Times New Roman,serif" font-size="14.00" fill="lightgray">wff ( ph &#45;&gt; ( &#45;. ps &lt;&#45;&gt; &#45;. ch ) )</text>
</g>
<!-- n10968 -->
<g id="node8" class="node"><title>n10968</title>
</g>
<!-- n10959&#45;&gt;n10968 -->
<g id="edge31" class="edge"><title>n10959&#45;&gt;n10968</title>
</g>
<!-- n10968&#45;&gt;n11008 -->
<g id="edge6" class="edge"><title>n10968&#45;&gt;n11008</title>
<path fill="none" stroke="lightgray" d="M510.824,-752.415C606.161,-754.826 935.38,-758.514 1016.19,-697.619 1033.39,-684.655 1023.59,-671.371 1034.19,-652.619 1038.26,-645.419 1043.35,-638.077 1048.35,-631.468"/>
<polygon fill="lightgray" stroke="lightgray" points="1051.13,-633.587 1054.54,-623.555 1045.62,-629.271 1051.13,-633.587"/>
<text text-anchor="middle" x="778.188" y="-757.419" font-family="Times New Roman,serif" font-size="14.00" fill="lightgray">wff ( ( ph &#45;&gt; &#45;. ps ) &lt;&#45;&gt; ( ph &#45;&gt; &#45;. ch ) )</text>
</g>
<!-- n10979 -->
<g id="node9" class="node"><title>n10979</title>
</g>
<!-- n10968&#45;&gt;n10979 -->
<g id="edge32" class="edge"><title>n10968&#45;&gt;n10979</title>
</g>
<!-- n10979&#45;&gt;n11008 -->
<g id="edge7" class="edge"><title>n10979&#45;&gt;n11008</title>
<path fill="none" stroke="lightgray" d="M510.923,-679.314C588.745,-677.919 825.717,-670.126 1016.19,-626.619 1022.47,-625.183 1029.03,-623.2 1035.29,-621.053"/>
<polygon fill="lightgray" stroke="lightgray" points="1036.6,-624.302 1044.8,-617.599 1034.21,-617.722 1036.6,-624.302"/>
<text text-anchor="middle" x="778.188" y="-682.419" font-family="Times New Roman,serif" font-size="14.00" fill="lightgray">wff ( &#45;. ( ph &#45;&gt; &#45;. ps ) &lt;&#45;&gt; &#45;. ( ph &#45;&gt; &#45;. ch ) )</text>
</g>
<!-- n10992 -->
<g id="node11" class="node"><title>n10992</title>
<ellipse fill="cyan" stroke="black" cx="483.841" cy="-607.619" rx="32.4942" ry="18"/>
<text text-anchor="middle" x="483.841" y="-603.919" font-family="Times New Roman,serif" font-size="14.00">imbi2i</text>
</g>
<!-- n10979&#45;&gt;n10992 -->
<g id="edge33" class="edge"><title>n10979&#45;&gt;n10992</title>
</g>
<!-- n10982 -->
<g id="node10" class="node"><title>n10982</title>
</g>
<!-- n10982&#45;&gt;n10992 -->
<g id="edge8" class="edge"><title>n10982&#45;&gt;n10992</title>
<path fill="none" stroke="lightgray" d="M182.892,-827.373C236.767,-833.667 362.117,-839.663 427.495,-771.619 464.555,-733.047 423.614,-701.429 445.495,-652.619 448.941,-644.932 454.076,-637.501 459.443,-630.968"/>
<polygon fill="lightgray" stroke="lightgray" points="462.281,-633.041 466.256,-623.22 457.024,-628.418 462.281,-633.041"/>
<text text-anchor="middle" x="315.495" y="-834.419" font-family="Times New Roman,serif" font-size="14.00" fill="lightgray">wff ( ps &lt;&#45;&gt; ch )</text>
</g>
<!-- n10987 -->
<g id="node12" class="node"><title>n10987</title>
</g>
<!-- n10982&#45;&gt;n10987 -->
<g id="edge16" class="edge"><title>n10982&#45;&gt;n10987</title>
</g>
<!-- n10992&#45;&gt;n11008 -->
<g id="edge15" class="edge"><title>n10992&#45;&gt;n11008</title>
<path fill="none" stroke="black" d="M516.624,-607.619C616.157,-607.619 921.635,-607.619 1029.82,-607.619"/>
<polygon fill="black" stroke="black" points="1029.95,-611.119 1039.95,-607.619 1029.95,-604.119 1029.95,-611.119"/>
<text text-anchor="middle" x="778.188" y="-611.419" font-family="Times New Roman,serif" font-size="14.00">|&#45; ( ( ph &#45;&gt; ( ps &lt;&#45;&gt; ch ) ) &lt;&#45;&gt; ( ph &#45;&gt; ( &#45;. ps &lt;&#45;&gt; &#45;. ch ) ) )</text>
</g>
<!-- n10998 -->
<g id="node18" class="node"><title>n10998</title>
<ellipse fill="cyan" stroke="black" cx="483.841" cy="-535.619" rx="38.1938" ry="18"/>
<text text-anchor="middle" x="483.841" y="-531.919" font-family="Times New Roman,serif" font-size="14.00">pm5.74</text>
</g>
<!-- n10992&#45;&gt;n10998 -->
<g id="edge34" class="edge"><title>n10992&#45;&gt;n10998</title>
</g>
<!-- n10987&#45;&gt;n10992 -->
<g id="edge9" class="edge"><title>n10987&#45;&gt;n10992</title>
<path fill="none" stroke="lightgray" d="M183.539,-753.04C235.921,-754.46 354.53,-750.433 427.495,-691.619 442.358,-679.638 435.313,-668.767 445.495,-652.619 450.064,-645.372 455.678,-638.014 461.152,-631.406"/>
<polygon fill="lightgray" stroke="lightgray" points="464.076,-633.372 467.921,-623.5 458.759,-628.819 464.076,-633.372"/>
<text text-anchor="middle" x="315.495" y="-757.419" font-family="Times New Roman,serif" font-size="14.00" fill="lightgray">wff ( &#45;. ps &lt;&#45;&gt; &#45;. ch )</text>
</g>
<!-- n10988 -->
<g id="node13" class="node"><title>n10988</title>
</g>
<!-- n10987&#45;&gt;n10988 -->
<g id="edge17" class="edge"><title>n10987&#45;&gt;n10988</title>
</g>
<!-- n10988&#45;&gt;n10992 -->
<g id="edge10" class="edge"><title>n10988&#45;&gt;n10992</title>
<path fill="none" stroke="lightgray" d="M182.849,-675.798C231.15,-668.327 338.833,-650.411 427.495,-626.619 433.805,-624.925 440.438,-622.883 446.833,-620.775"/>
<polygon fill="lightgray" stroke="lightgray" points="448.267,-623.984 456.606,-617.448 446.011,-617.358 448.267,-623.984"/>
<text text-anchor="middle" x="315.495" y="-676.419" font-family="Times New Roman,serif" font-size="14.00" fill="lightgray">wff ph</text>
</g>
<!-- n10991 -->
<g id="node15" class="node"><title>n10991</title>
<ellipse fill="cyan" stroke="black" cx="156.247" cy="-607.619" rx="29.4969" ry="18"/>
<text text-anchor="middle" x="156.247" y="-603.919" font-family="Times New Roman,serif" font-size="14.00">notbi</text>
</g>
<!-- n10988&#45;&gt;n10991 -->
<g id="edge18" class="edge"><title>n10988&#45;&gt;n10991</title>
</g>
<!-- n10989 -->
<g id="node14" class="node"><title>n10989</title>
</g>
<!-- n10989&#45;&gt;n10991 -->
<g id="edge11" class="edge"><title>n10989&#45;&gt;n10991</title>
<path fill="none" stroke="lightgray" d="M51.3391,-644.365C70.7516,-637.5 98.6638,-627.629 120.672,-619.846"/>
<polygon fill="lightgray" stroke="lightgray" points="122.055,-623.069 130.316,-616.435 119.721,-616.47 122.055,-623.069"/>
<text text-anchor="middle" x="90.5" y="-641.419" font-family="Times New Roman,serif" font-size="14.00" fill="lightgray">wff ps</text>
</g>
<!-- n10990 -->
<g id="node16" class="node"><title>n10990</title>
</g>
<!-- n10989&#45;&gt;n10990 -->
<g id="edge14" class="edge"><title>n10989&#45;&gt;n10990</title>
</g>
<!-- n10991&#45;&gt;n10992 -->
<g id="edge13" class="edge"><title>n10991&#45;&gt;n10992</title>
<path fill="none" stroke="black" d="M185.572,-607.619C242.994,-607.619 373.372,-607.619 440.762,-607.619"/>
<polygon fill="black" stroke="black" points="441.017,-611.119 451.016,-607.619 441.016,-604.119 441.017,-611.119"/>
<text text-anchor="middle" x="315.495" y="-611.419" font-family="Times New Roman,serif" font-size="14.00">|&#45; ( ( ps &lt;&#45;&gt; ch ) &lt;&#45;&gt; ( &#45;. ps &lt;&#45;&gt; &#45;. ch ) )</text>
</g>
<!-- n10990&#45;&gt;n10991 -->
<g id="edge12" class="edge"><title>n10990&#45;&gt;n10991</title>
<path fill="none" stroke="lightgray" d="M52.8367,-585.888C71.4834,-589.845 97.3179,-595.327 118.374,-599.794"/>
<polygon fill="lightgray" stroke="lightgray" points="117.765,-603.243 128.274,-601.895 119.218,-596.396 117.765,-603.243"/>
<text text-anchor="middle" x="90.5" y="-601.419" font-family="Times New Roman,serif" font-size="14.00" fill="lightgray">wff ch</text>
</g>
<!-- n10993 -->
<g id="node17" class="node"><title>n10993</title>
</g>
<!-- n10993&#45;&gt;n10998 -->
<g id="edge19" class="edge"><title>n10993&#45;&gt;n10998</title>
<path fill="none" stroke="lightgray" d="M183.342,-552.176C238.1,-549.149 365.68,-542.096 435.354,-538.244"/>
<polygon fill="lightgray" stroke="lightgray" points="435.817,-541.724 445.609,-537.677 435.431,-534.734 435.817,-541.724"/>
<text text-anchor="middle" x="315.495" y="-555.419" font-family="Times New Roman,serif" font-size="14.00" fill="lightgray">wff ph</text>
</g>
<!-- n10995 -->
<g id="node19" class="node"><title>n10995</title>
</g>
<!-- n10993&#45;&gt;n10995 -->
<g id="edge23" class="edge"><title>n10993&#45;&gt;n10995</title>
</g>
<!-- n10998&#45;&gt;n11008 -->
<g id="edge22" class="edge"><title>n10998&#45;&gt;n11008</title>
<path fill="none" stroke="black" d="M522.398,-536.153C610.015,-538.094 834.303,-547.073 1016.19,-588.619 1022.47,-590.054 1029.03,-592.037 1035.29,-594.184"/>
<polygon fill="black" stroke="black" points="1034.21,-597.515 1044.8,-597.638 1036.6,-590.935 1034.21,-597.515"/>
<text text-anchor="middle" x="778.188" y="-592.419" font-family="Times New Roman,serif" font-size="14.00">|&#45; ( ( ph &#45;&gt; ( &#45;. ps &lt;&#45;&gt; &#45;. ch ) ) &lt;&#45;&gt; ( ( ph &#45;&gt; &#45;. ps ) &lt;&#45;&gt; ( ph &#45;&gt; &#45;. ch ) ) )</text>
</g>
<!-- n11007 -->
<g id="node22" class="node"><title>n11007</title>
<ellipse fill="cyan" stroke="black" cx="483.841" cy="-463.619" rx="29.4969" ry="18"/>
<text text-anchor="middle" x="483.841" y="-459.919" font-family="Times New Roman,serif" font-size="14.00">notbi</text>
</g>
<!-- n10998&#45;&gt;n11007 -->
<g id="edge35" class="edge"><title>n10998&#45;&gt;n11007</title>
</g>
<!-- n10995&#45;&gt;n10998 -->
<g id="edge20" class="edge"><title>n10995&#45;&gt;n10998</title>
<path fill="none" stroke="lightgray" d="M183.139,-484.296C231.476,-489.528 338.598,-502.229 427.495,-520.619 431.891,-521.528 436.456,-522.582 440.993,-523.703"/>
<polygon fill="lightgray" stroke="lightgray" points="440.25,-527.125 450.807,-526.229 441.995,-520.346 440.25,-527.125"/>
<text text-anchor="middle" x="315.495" y="-524.419" font-family="Times New Roman,serif" font-size="14.00" fill="lightgray">wff &#45;. ps</text>
</g>
<!-- n10997 -->
<g id="node20" class="node"><title>n10997</title>
</g>
<!-- n10995&#45;&gt;n10997 -->
<g id="edge24" class="edge"><title>n10995&#45;&gt;n10997</title>
</g>
<!-- n10997&#45;&gt;n10998 -->
<g id="edge21" class="edge"><title>n10997&#45;&gt;n10998</title>
<path fill="none" stroke="lightgray" d="M183.169,-413.063C242.503,-421.298 386.247,-443.329 427.495,-468.619 438.265,-475.222 437.461,-480.869 445.495,-490.619 450.942,-497.229 456.856,-504.371 462.337,-510.975"/>
<polygon fill="lightgray" stroke="lightgray" points="459.898,-513.516 468.98,-518.972 465.282,-509.044 459.898,-513.516"/>
<text text-anchor="middle" x="315.495" y="-473.419" font-family="Times New Roman,serif" font-size="14.00" fill="lightgray">wff &#45;. ch</text>
</g>
<!-- n11002 -->
<g id="node21" class="node"><title>n11002</title>
</g>
<!-- n11002&#45;&gt;n11007 -->
<g id="edge25" class="edge"><title>n11002&#45;&gt;n11007</title>
<path fill="none" stroke="lightgray" d="M183.045,-351.837C235.052,-345.697 353.793,-339.354 427.495,-395.619 443.313,-407.694 432.993,-421.135 445.495,-436.619 447.898,-439.595 450.706,-442.401 453.684,-444.997"/>
<polygon fill="lightgray" stroke="lightgray" points="451.771,-447.944 461.803,-451.35 456.085,-442.431 451.771,-447.944"/>
<text text-anchor="middle" x="315.495" y="-399.419" font-family="Times New Roman,serif" font-size="14.00" fill="lightgray">wff ( ph &#45;&gt; &#45;. ps )</text>
</g>
<!-- n11006 -->
<g id="node23" class="node"><title>n11006</title>
</g>
<!-- n11002&#45;&gt;n11006 -->
<g id="edge28" class="edge"><title>n11002&#45;&gt;n11006</title>
</g>
<!-- n11007&#45;&gt;n11008 -->
<g id="edge27" class="edge"><title>n11007&#45;&gt;n11008</title>
<path fill="none" stroke="black" d="M511.886,-458.5C594.975,-444.305 850.893,-412.161 1016.19,-518.619 1038.18,-532.781 1052.04,-559.764 1059.88,-580.323"/>
<polygon fill="black" stroke="black" points="1056.61,-581.567 1063.26,-589.814 1063.2,-579.22 1056.61,-581.567"/>
<text text-anchor="middle" x="778.188" y="-522.419" font-family="Times New Roman,serif" font-size="14.00">|&#45; ( ( ( ph &#45;&gt; &#45;. ps ) &lt;&#45;&gt; ( ph &#45;&gt; &#45;. ch ) ) &lt;&#45;&gt; ( &#45;. ( ph &#45;&gt; &#45;. ps ) &lt;&#45;&gt; &#45;. ( ph &#45;&gt; &#45;. ch ) ) )</text>
</g>
<!-- n11006&#45;&gt;n11007 -->
<g id="edge26" class="edge"><title>n11006&#45;&gt;n11007</title>
<path fill="none" stroke="lightgray" d="M182.732,-279.305C236.3,-271.834 361.094,-263.089 427.495,-329.619 461.561,-363.751 420.053,-395.652 445.495,-436.619 447.513,-439.868 450.08,-442.846 452.921,-445.54"/>
<polygon fill="lightgray" stroke="lightgray" points="450.917,-448.421 460.889,-452 455.325,-442.983 450.917,-448.421"/>
<text text-anchor="middle" x="315.495" y="-333.419" font-family="Times New Roman,serif" font-size="14.00" fill="lightgray">wff ( ph &#45;&gt; &#45;. ch )</text>
</g>
<!-- n11011 -->
<g id="node24" class="node"><title>n11011</title>
</g>
<!-- n11011&#45;&gt;n11031 -->
<g id="edge36" class="edge"><title>n11011&#45;&gt;n11031</title>
<path fill="none" stroke="lightgray" d="M510.782,-412.148C590.184,-418.825 835.484,-431.497 1016.19,-354.619 1027.36,-349.864 1037.95,-341.853 1046.62,-333.96"/>
<polygon fill="lightgray" stroke="lightgray" points="1049.24,-336.3 1054.01,-326.841 1044.38,-331.259 1049.24,-336.3"/>
<text text-anchor="middle" x="778.188" y="-421.419" font-family="Times New Roman,serif" font-size="14.00" fill="lightgray">wff ( ph /\ ps )</text>
</g>
<!-- n11016 -->
<g id="node26" class="node"><title>n11016</title>
</g>
<!-- n11011&#45;&gt;n11016 -->
<g id="edge43" class="edge"><title>n11011&#45;&gt;n11016</title>
</g>
<!-- n11031&#45;&gt;n11032 -->
<g id="edge42" class="edge"><title>n11031&#45;&gt;n11032</title>
<path fill="none" stroke="black" d="M1099.11,-320.164C1181.52,-348.721 1421.35,-440.841 1564.38,-589.619 1581.59,-607.52 1593.9,-633.094 1601.47,-652.408"/>
<polygon fill="black" stroke="black" points="1598.22,-653.718 1604.99,-661.864 1604.78,-651.271 1598.22,-653.718"/>
<text text-anchor="middle" x="1343.38" y="-593.419" font-family="Times New Roman,serif" font-size="14.00">|&#45; ( ( ( ph /\ ps ) &lt;&#45;&gt; ( ph /\ ch ) ) &lt;&#45;&gt; ( &#45;. ( ph &#45;&gt; &#45;. ps ) &lt;&#45;&gt; &#45;. ( ph &#45;&gt; &#45;. ch ) ) )</text>
</g>
<!-- n11016&#45;&gt;n11031 -->
<g id="edge37" class="edge"><title>n11016&#45;&gt;n11031</title>
<path fill="none" stroke="lightgray" d="M511.044,-336.406C602.536,-332.172 908.472,-318.014 1023.79,-312.677"/>
<polygon fill="lightgray" stroke="lightgray" points="1024.2,-316.163 1034.02,-312.204 1023.87,-309.17 1024.2,-316.163"/>
<text text-anchor="middle" x="778.188" y="-339.419" font-family="Times New Roman,serif" font-size="14.00" fill="lightgray">wff &#45;. ( ph &#45;&gt; &#45;. ps )</text>
</g>
<!-- n11019 -->
<g id="node27" class="node"><title>n11019</title>
</g>
<!-- n11016&#45;&gt;n11019 -->
<g id="edge44" class="edge"><title>n11016&#45;&gt;n11019</title>
</g>
<!-- n11019&#45;&gt;n11031 -->
<g id="edge38" class="edge"><title>n11019&#45;&gt;n11031</title>
<path fill="none" stroke="lightgray" d="M511.086,-264.81C588.876,-262.89 824.73,-260.52 1016.19,-294.619 1020.71,-295.424 1025.39,-296.5 1030.01,-297.714"/>
<polygon fill="lightgray" stroke="lightgray" points="1029.35,-301.166 1039.93,-300.543 1031.27,-294.435 1029.35,-301.166"/>
<text text-anchor="middle" x="778.188" y="-298.419" font-family="Times New Roman,serif" font-size="14.00" fill="lightgray">wff ( ph /\ ch )</text>
</g>
<!-- n11024 -->
<g id="node28" class="node"><title>n11024</title>
</g>
<!-- n11019&#45;&gt;n11024 -->
<g id="edge45" class="edge"><title>n11019&#45;&gt;n11024</title>
</g>
<!-- n11024&#45;&gt;n11031 -->
<g id="edge39" class="edge"><title>n11024&#45;&gt;n11031</title>
<path fill="none" stroke="lightgray" d="M510.94,-193.536C605.244,-193.636 927.451,-197.561 1016.19,-245.619 1032.36,-254.375 1045.32,-270.468 1054.27,-284.449"/>
<polygon fill="lightgray" stroke="lightgray" points="1051.4,-286.476 1059.56,-293.234 1057.4,-282.863 1051.4,-286.476"/>
<text text-anchor="middle" x="778.188" y="-249.419" font-family="Times New Roman,serif" font-size="14.00" fill="lightgray">wff &#45;. ( ph &#45;&gt; &#45;. ch )</text>
</g>
<!-- n11027 -->
<g id="node29" class="node"><title>n11027</title>
</g>
<!-- n11024&#45;&gt;n11027 -->
<g id="edge46" class="edge"><title>n11024&#45;&gt;n11027</title>
</g>
<!-- n11027&#45;&gt;n11031 -->
<g id="edge40" class="edge"><title>n11027&#45;&gt;n11031</title>
<path fill="none" stroke="lightgray" d="M512.086,-115.412C596.844,-97.786 859.557,-56.0786 1016.19,-175.619 1049.42,-200.978 1061.46,-250.399 1065.82,-281.893"/>
<polygon fill="lightgray" stroke="lightgray" points="1062.39,-282.707 1067.06,-292.216 1069.34,-281.869 1062.39,-282.707"/>
<text text-anchor="middle" x="778.188" y="-179.419" font-family="Times New Roman,serif" font-size="14.00" fill="lightgray">|&#45; ( ( ph /\ ps ) &lt;&#45;&gt; &#45;. ( ph &#45;&gt; &#45;. ps ) )</text>
</g>
<!-- n11030 -->
<g id="node30" class="node"><title>n11030</title>
</g>
<!-- n11027&#45;&gt;n11030 -->
<g id="edge47" class="edge"><title>n11027&#45;&gt;n11030</title>
</g>
<!-- n11030&#45;&gt;n11031 -->
<g id="edge41" class="edge"><title>n11030&#45;&gt;n11031</title>
<path fill="none" stroke="lightgray" d="M510.56,-41.2868C594.687,-15.7907 864.941,51.9731 1016.19,-75.6185 1047.55,-102.072 1061.45,-226.186 1066.22,-282.593"/>
<polygon fill="lightgray" stroke="lightgray" points="1062.74,-282.927 1067.04,-292.611 1069.72,-282.361 1062.74,-282.927"/>
<text text-anchor="middle" x="778.188" y="-79.4185" font-family="Times New Roman,serif" font-size="14.00" fill="lightgray">|&#45; ( ( ph /\ ch ) &lt;&#45;&gt; &#45;. ( ph &#45;&gt; &#45;. ch ) )</text>
</g>
</g>
</svg>
