<?xml version="1.0" encoding="UTF-8" standalone="no"?>
<!DOCTYPE svg PUBLIC "-//W3C//DTD SVG 1.1//EN"
 "http://www.w3.org/Graphics/SVG/1.1/DTD/svg11.dtd">
<!-- Generated by graphviz version 2.38.0 (20140413.2041)
 -->
<!-- Title: proof_pm5_6 Pages: 1 -->
<svg width="1275pt" height="568pt"
 viewBox="0.00 0.00 1274.88 568.00" xmlns="http://www.w3.org/2000/svg" xmlns:xlink="http://www.w3.org/1999/xlink">
<g id="graph0" class="graph" transform="scale(1 1) rotate(0) translate(4 564)">
<title>proof_pm5_6</title>
<polygon fill="white" stroke="none" points="-4,4 -4,-564 1270.88,-564 1270.88,4 -4,4"/>
<!-- n16196 -->
<g id="node1" class="node"><title>n16196</title>
</g>
<!-- n16225 -->
<g id="node2" class="node"><title>n16225</title>
<ellipse fill="cyan" stroke="black" cx="856.136" cy="-395" rx="29.4969" ry="18"/>
<text text-anchor="middle" x="856.136" y="-391.3" font-family="Times New Roman,serif" font-size="14.00">bitr4i</text>
</g>
<!-- n16196&#45;&gt;n16225 -->
<g id="edge1" class="edge"><title>n16196&#45;&gt;n16225</title>
<path fill="none" stroke="lightgray" d="M476.068,-542.078C539.339,-548.194 704.323,-555.469 808.888,-481 828.525,-467.015 840.617,-442.028 847.486,-422.579"/>
<polygon fill="lightgray" stroke="lightgray" points="850.837,-423.593 850.615,-413.001 844.183,-421.42 850.837,-423.593"/>
<text text-anchor="middle" x="656.888" y="-548.8" font-family="Times New Roman,serif" font-size="14.00" fill="lightgray">wff ( ( ph /\ &#45;. ps ) &#45;&gt; ch )</text>
</g>
<!-- n16202 -->
<g id="node3" class="node"><title>n16202</title>
</g>
<!-- n16196&#45;&gt;n16202 -->
<g id="edge22" class="edge"><title>n16196&#45;&gt;n16202</title>
</g>
<!-- QED -->
<g id="node16" class="node"><title>QED</title>
</g>
<!-- n16225&#45;&gt;QED -->
<g id="edge21" class="edge"><title>n16225&#45;&gt;QED</title>
<path fill="none" stroke="black" d="M885.659,-395C952.994,-395 1121.88,-395 1198.16,-395"/>
<polygon fill="black" stroke="black" points="1198.29,-398.5 1208.29,-395 1198.29,-391.5 1198.29,-398.5"/>
<text text-anchor="middle" x="1046.88" y="-398.8" font-family="Times New Roman,serif" font-size="14.00">|&#45; ( ( ( ph /\ &#45;. ps ) &#45;&gt; ch ) &lt;&#45;&gt; ( ph &#45;&gt; ( ps \/ ch ) ) )</text>
</g>
<!-- n16202&#45;&gt;n16225 -->
<g id="edge2" class="edge"><title>n16202&#45;&gt;n16225</title>
<path fill="none" stroke="lightgray" d="M476.299,-465.324C536.092,-461.016 687.188,-447.453 808.888,-414 813.56,-412.716 818.392,-411.089 823.094,-409.329"/>
<polygon fill="lightgray" stroke="lightgray" points="824.47,-412.548 832.467,-405.598 821.882,-406.044 824.47,-412.548"/>
<text text-anchor="middle" x="656.888" y="-465.8" font-family="Times New Roman,serif" font-size="14.00" fill="lightgray">wff ( ph &#45;&gt; ( &#45;. ps &#45;&gt; ch ) )</text>
</g>
<!-- n16207 -->
<g id="node4" class="node"><title>n16207</title>
</g>
<!-- n16202&#45;&gt;n16207 -->
<g id="edge23" class="edge"><title>n16202&#45;&gt;n16207</title>
</g>
<!-- n16207&#45;&gt;n16225 -->
<g id="edge3" class="edge"><title>n16207&#45;&gt;n16225</title>
<path fill="none" stroke="lightgray" d="M476.449,-395C545.889,-395 734.631,-395 816.447,-395"/>
<polygon fill="lightgray" stroke="lightgray" points="816.8,-398.5 826.8,-395 816.8,-391.5 816.8,-398.5"/>
<text text-anchor="middle" x="656.888" y="-398.8" font-family="Times New Roman,serif" font-size="14.00" fill="lightgray">wff ( ph &#45;&gt; ( ps \/ ch ) )</text>
</g>
<!-- n16212 -->
<g id="node6" class="node"><title>n16212</title>
<ellipse fill="cyan" stroke="black" cx="449.191" cy="-323" rx="37.8943" ry="18"/>
<text text-anchor="middle" x="449.191" y="-319.3" font-family="Times New Roman,serif" font-size="14.00">impexp</text>
</g>
<!-- n16207&#45;&gt;n16212 -->
<g id="edge24" class="edge"><title>n16207&#45;&gt;n16212</title>
</g>
<!-- n16208 -->
<g id="node5" class="node"><title>n16208</title>
</g>
<!-- n16208&#45;&gt;n16212 -->
<g id="edge4" class="edge"><title>n16208&#45;&gt;n16212</title>
<path fill="none" stroke="lightgray" d="M183.421,-466.771C230.599,-465.03 330.814,-455.09 393.495,-404 407.361,-392.698 401.783,-383.023 411.495,-368 416.036,-360.976 421.488,-353.778 426.783,-347.257"/>
<polygon fill="lightgray" stroke="lightgray" points="429.603,-349.341 433.327,-339.423 424.23,-344.854 429.603,-349.341"/>
<text text-anchor="middle" x="298.495" y="-468.8" font-family="Times New Roman,serif" font-size="14.00" fill="lightgray">wff ph</text>
</g>
<!-- n16210 -->
<g id="node7" class="node"><title>n16210</title>
</g>
<!-- n16208&#45;&gt;n16210 -->
<g id="edge8" class="edge"><title>n16208&#45;&gt;n16210</title>
</g>
<!-- n16212&#45;&gt;n16225 -->
<g id="edge7" class="edge"><title>n16212&#45;&gt;n16225</title>
<path fill="none" stroke="black" d="M486.685,-325.451C552.21,-330.496 693.713,-344.341 808.888,-376 813.56,-377.284 818.392,-378.911 823.094,-380.671"/>
<polygon fill="black" stroke="black" points="821.882,-383.956 832.467,-384.402 824.47,-377.452 821.882,-383.956"/>
<text text-anchor="middle" x="656.888" y="-379.8" font-family="Times New Roman,serif" font-size="14.00">|&#45; ( ( ( ph /\ &#45;. ps ) &#45;&gt; ch ) &lt;&#45;&gt; ( ph &#45;&gt; ( &#45;. ps &#45;&gt; ch ) ) )</text>
</g>
<!-- n16224 -->
<g id="node10" class="node"><title>n16224</title>
<ellipse fill="cyan" stroke="black" cx="449.191" cy="-230" rx="32.4942" ry="18"/>
<text text-anchor="middle" x="449.191" y="-226.3" font-family="Times New Roman,serif" font-size="14.00">imbi2i</text>
</g>
<!-- n16212&#45;&gt;n16224 -->
<g id="edge25" class="edge"><title>n16212&#45;&gt;n16224</title>
</g>
<!-- n16210&#45;&gt;n16212 -->
<g id="edge5" class="edge"><title>n16210&#45;&gt;n16212</title>
<path fill="none" stroke="lightgray" d="M182.659,-390.285C226.197,-381.987 317.695,-363.592 393.495,-342 398.561,-340.557 403.846,-338.908 409.046,-337.199"/>
<polygon fill="lightgray" stroke="lightgray" points="410.516,-340.397 418.865,-333.875 408.271,-333.766 410.516,-340.397"/>
<text text-anchor="middle" x="298.495" y="-388.8" font-family="Times New Roman,serif" font-size="14.00" fill="lightgray">wff &#45;. ps</text>
</g>
<!-- n16211 -->
<g id="node8" class="node"><title>n16211</title>
</g>
<!-- n16210&#45;&gt;n16211 -->
<g id="edge9" class="edge"><title>n16210&#45;&gt;n16211</title>
</g>
<!-- n16211&#45;&gt;n16212 -->
<g id="edge6" class="edge"><title>n16211&#45;&gt;n16212</title>
<path fill="none" stroke="lightgray" d="M183.323,-323C232.371,-323 338.991,-323 400.962,-323"/>
<polygon fill="lightgray" stroke="lightgray" points="401.249,-326.5 411.249,-323 401.249,-319.5 401.249,-326.5"/>
<text text-anchor="middle" x="298.495" y="-326.8" font-family="Times New Roman,serif" font-size="14.00" fill="lightgray">wff ch</text>
</g>
<!-- n16215 -->
<g id="node9" class="node"><title>n16215</title>
</g>
<!-- n16215&#45;&gt;n16224 -->
<g id="edge10" class="edge"><title>n16215&#45;&gt;n16224</title>
<path fill="none" stroke="lightgray" d="M183.211,-266.613C226.808,-262.45 317.428,-253.136 393.495,-241 398.379,-240.221 403.491,-239.315 408.545,-238.363"/>
<polygon fill="lightgray" stroke="lightgray" points="409.603,-241.723 418.748,-236.374 408.263,-234.853 409.603,-241.723"/>
<text text-anchor="middle" x="298.495" y="-267.8" font-family="Times New Roman,serif" font-size="14.00" fill="lightgray">wff ( ps \/ ch )</text>
</g>
<!-- n16219 -->
<g id="node11" class="node"><title>n16219</title>
</g>
<!-- n16215&#45;&gt;n16219 -->
<g id="edge18" class="edge"><title>n16215&#45;&gt;n16219</title>
</g>
<!-- n16224&#45;&gt;n16225 -->
<g id="edge17" class="edge"><title>n16224&#45;&gt;n16225</title>
<path fill="none" stroke="black" d="M481.594,-228.466C548.733,-226.821 708.295,-231.82 808.888,-308 828.281,-322.686 840.399,-347.903 847.341,-367.419"/>
<polygon fill="black" stroke="black" points="844.052,-368.62 850.51,-377.019 850.699,-366.426 844.052,-368.62"/>
<text text-anchor="middle" x="656.888" y="-311.8" font-family="Times New Roman,serif" font-size="14.00">|&#45; ( ( ph &#45;&gt; ( ps \/ ch ) ) &lt;&#45;&gt; ( ph &#45;&gt; ( &#45;. ps &#45;&gt; ch ) ) )</text>
</g>
<!-- n16219&#45;&gt;n16224 -->
<g id="edge11" class="edge"><title>n16219&#45;&gt;n16224</title>
<path fill="none" stroke="lightgray" d="M183.067,-199.929C233.681,-205.669 346.301,-218.443 407.202,-225.351"/>
<polygon fill="lightgray" stroke="lightgray" points="406.899,-228.839 417.23,-226.488 407.688,-221.883 406.899,-228.839"/>
<text text-anchor="middle" x="298.495" y="-227.8" font-family="Times New Roman,serif" font-size="14.00" fill="lightgray">wff ( &#45;. ps &#45;&gt; ch )</text>
</g>
<!-- n16220 -->
<g id="node12" class="node"><title>n16220</title>
</g>
<!-- n16219&#45;&gt;n16220 -->
<g id="edge19" class="edge"><title>n16219&#45;&gt;n16220</title>
</g>
<!-- n16220&#45;&gt;n16224 -->
<g id="edge12" class="edge"><title>n16220&#45;&gt;n16224</title>
<path fill="none" stroke="lightgray" d="M183.057,-127.586C227.978,-132.905 322.519,-147.769 393.495,-184 405.237,-189.994 416.654,-198.936 425.993,-207.347"/>
<polygon fill="lightgray" stroke="lightgray" points="423.623,-209.922 433.311,-214.211 428.411,-204.817 423.623,-209.922"/>
<text text-anchor="middle" x="298.495" y="-187.8" font-family="Times New Roman,serif" font-size="14.00" fill="lightgray">wff ph</text>
</g>
<!-- n16223 -->
<g id="node14" class="node"><title>n16223</title>
<ellipse fill="lawngreen" stroke="black" cx="156.247" cy="-53" rx="29.4969" ry="18"/>
<text text-anchor="middle" x="156.247" y="-49.3" font-family="Times New Roman,serif" font-size="14.00">df&#45;or</text>
</g>
<!-- n16220&#45;&gt;n16223 -->
<g id="edge20" class="edge"><title>n16220&#45;&gt;n16223</title>
</g>
<!-- n16221 -->
<g id="node13" class="node"><title>n16221</title>
</g>
<!-- n16221&#45;&gt;n16223 -->
<g id="edge13" class="edge"><title>n16221&#45;&gt;n16223</title>
<path fill="none" stroke="lightgray" d="M51.9343,-83.0406C70.9523,-77.5107 97.8477,-69.6902 119.429,-63.4149"/>
<polygon fill="lightgray" stroke="lightgray" points="120.606,-66.7179 129.231,-60.5649 118.651,-59.9963 120.606,-66.7179"/>
<text text-anchor="middle" x="90.5" y="-80.8" font-family="Times New Roman,serif" font-size="14.00" fill="lightgray">wff ps</text>
</g>
<!-- n16222 -->
<g id="node15" class="node"><title>n16222</title>
</g>
<!-- n16221&#45;&gt;n16222 -->
<g id="edge16" class="edge"><title>n16221&#45;&gt;n16222</title>
</g>
<!-- n16223&#45;&gt;n16224 -->
<g id="edge15" class="edge"><title>n16223&#45;&gt;n16224</title>
<path fill="none" stroke="black" d="M185.817,-52.565C234.066,-53.3242 332.399,-61.4994 393.495,-112 421.151,-134.86 435.548,-174.806 442.491,-201.819"/>
<polygon fill="black" stroke="black" points="439.152,-202.906 444.875,-211.822 445.961,-201.283 439.152,-202.906"/>
<text text-anchor="middle" x="298.495" y="-115.8" font-family="Times New Roman,serif" font-size="14.00">|&#45; ( ( ps \/ ch ) &lt;&#45;&gt; ( &#45;. ps &#45;&gt; ch ) )</text>
</g>
<!-- n16222&#45;&gt;n16223 -->
<g id="edge14" class="edge"><title>n16222&#45;&gt;n16223</title>
<path fill="none" stroke="lightgray" d="M52.2338,-24.6656C71.2823,-29.905 98.097,-37.2805 119.593,-43.1932"/>
<polygon fill="lightgray" stroke="lightgray" points="118.784,-46.6006 129.354,-45.878 120.641,-39.8512 118.784,-46.6006"/>
<text text-anchor="middle" x="90.5" y="-43.8" font-family="Times New Roman,serif" font-size="14.00" fill="lightgray">wff ch</text>
</g>
</g>
</svg>
