<?xml version="1.0" encoding="UTF-8" standalone="no"?>
<!DOCTYPE svg PUBLIC "-//W3C//DTD SVG 1.1//EN"
 "http://www.w3.org/Graphics/SVG/1.1/DTD/svg11.dtd">
<!-- Generated by graphviz version 2.38.0 (20140413.2041)
 -->
<!-- Title: proof_pm5_1im Pages: 1 -->
<svg width="732pt" height="469pt"
 viewBox="0.00 0.00 731.59 469.00" xmlns="http://www.w3.org/2000/svg" xmlns:xlink="http://www.w3.org/1999/xlink">
<g id="graph0" class="graph" transform="scale(1 1) rotate(0) translate(4 465)">
<title>proof_pm5_1im</title>
<polygon fill="white" stroke="none" points="-4,4 -4,-465 727.586,-465 727.586,4 -4,4"/>
<!-- n4927 -->
<g id="node1" class="node"><title>n4927</title>
</g>
<!-- n4937 -->
<g id="node2" class="node"><title>n4937</title>
<ellipse fill="cyan" stroke="black" cx="394.046" cy="-262" rx="50.0912" ry="18"/>
<text text-anchor="middle" x="394.046" y="-258.3" font-family="Times New Roman,serif" font-size="14.00">impbid21d</text>
</g>
<!-- n4927&#45;&gt;n4937 -->
<g id="edge1" class="edge"><title>n4927&#45;&gt;n4937</title>
<path fill="none" stroke="lightgray" d="M180.337,-438.705C216.314,-431.49 282.642,-413.941 326,-377 353.643,-353.448 372.612,-315.479 383.14,-289.667"/>
<polygon fill="lightgray" stroke="lightgray" points="386.502,-290.68 386.887,-280.092 379.983,-288.129 386.502,-290.68"/>
<text text-anchor="middle" x="262.5" y="-437.8" font-family="Times New Roman,serif" font-size="14.00" fill="lightgray">wff ph</text>
</g>
<!-- n4928 -->
<g id="node3" class="node"><title>n4928</title>
</g>
<!-- n4927&#45;&gt;n4928 -->
<g id="edge14" class="edge"><title>n4927&#45;&gt;n4928</title>
</g>
<!-- QED -->
<g id="node12" class="node"><title>QED</title>
</g>
<!-- n4937&#45;&gt;QED -->
<g id="edge13" class="edge"><title>n4937&#45;&gt;QED</title>
<path fill="none" stroke="black" d="M444.303,-262C503.253,-262 600.736,-262 654.589,-262"/>
<polygon fill="black" stroke="black" points="654.754,-265.5 664.754,-262 654.754,-258.5 654.754,-265.5"/>
<text text-anchor="middle" x="554.591" y="-265.8" font-family="Times New Roman,serif" font-size="14.00">|&#45; ( ph &#45;&gt; ( ps &#45;&gt; ( ph &lt;&#45;&gt; ps ) ) )</text>
</g>
<!-- n4928&#45;&gt;n4937 -->
<g id="edge2" class="edge"><title>n4928&#45;&gt;n4937</title>
<path fill="none" stroke="lightgray" d="M179.392,-364.626C213.39,-355.231 276.426,-335.934 326,-310 339.575,-302.898 353.518,-293.345 365.148,-284.632"/>
<polygon fill="lightgray" stroke="lightgray" points="367.363,-287.344 373.17,-278.482 363.104,-281.789 367.363,-287.344"/>
<text text-anchor="middle" x="262.5" y="-361.8" font-family="Times New Roman,serif" font-size="14.00" fill="lightgray">wff ps</text>
</g>
<!-- n4929 -->
<g id="node4" class="node"><title>n4929</title>
</g>
<!-- n4928&#45;&gt;n4929 -->
<g id="edge15" class="edge"><title>n4928&#45;&gt;n4929</title>
</g>
<!-- n4929&#45;&gt;n4937 -->
<g id="edge3" class="edge"><title>n4929&#45;&gt;n4937</title>
<path fill="none" stroke="lightgray" d="M180.475,-295.04C217.841,-289.233 288.436,-278.26 337.988,-270.558"/>
<polygon fill="lightgray" stroke="lightgray" points="338.569,-274.01 347.912,-269.015 337.493,-267.093 338.569,-274.01"/>
<text text-anchor="middle" x="262.5" y="-294.8" font-family="Times New Roman,serif" font-size="14.00" fill="lightgray">wff ph</text>
</g>
<!-- n4930 -->
<g id="node5" class="node"><title>n4930</title>
</g>
<!-- n4929&#45;&gt;n4930 -->
<g id="edge16" class="edge"><title>n4929&#45;&gt;n4930</title>
</g>
<!-- n4930&#45;&gt;n4937 -->
<g id="edge4" class="edge"><title>n4930&#45;&gt;n4937</title>
<path fill="none" stroke="lightgray" d="M180.475,-230.746C217.729,-236.223 288.012,-246.557 337.541,-253.839"/>
<polygon fill="lightgray" stroke="lightgray" points="337.062,-257.306 347.465,-255.298 338.08,-250.381 337.062,-257.306"/>
<text text-anchor="middle" x="262.5" y="-254.8" font-family="Times New Roman,serif" font-size="14.00" fill="lightgray">wff ps</text>
</g>
<!-- n4933 -->
<g id="node7" class="node"><title>n4933</title>
<ellipse fill="lawngreen" stroke="black" cx="154" cy="-155" rx="27" ry="18"/>
<text text-anchor="middle" x="154" y="-151.3" font-family="Times New Roman,serif" font-size="14.00">ax&#45;1</text>
</g>
<!-- n4930&#45;&gt;n4933 -->
<g id="edge17" class="edge"><title>n4930&#45;&gt;n4933</title>
</g>
<!-- n4931 -->
<g id="node6" class="node"><title>n4931</title>
</g>
<!-- n4931&#45;&gt;n4933 -->
<g id="edge5" class="edge"><title>n4931&#45;&gt;n4933</title>
<path fill="none" stroke="lightgray" d="M48.9222,-207.455C69.2023,-197.234 100.171,-181.626 123.059,-170.09"/>
<polygon fill="lightgray" stroke="lightgray" points="124.655,-173.205 132.01,-165.579 121.504,-166.954 124.655,-173.205"/>
<text text-anchor="middle" x="90.5" y="-199.8" font-family="Times New Roman,serif" font-size="14.00" fill="lightgray">wff ps</text>
</g>
<!-- n4932 -->
<g id="node8" class="node"><title>n4932</title>
</g>
<!-- n4931&#45;&gt;n4932 -->
<g id="edge8" class="edge"><title>n4931&#45;&gt;n4932</title>
</g>
<!-- n4933&#45;&gt;n4937 -->
<g id="edge7" class="edge"><title>n4933&#45;&gt;n4937</title>
<path fill="none" stroke="black" d="M179.693,-161.1C213.774,-170.051 276.613,-188.49 326,-214 339.612,-221.031 353.561,-230.573 365.185,-239.297"/>
<polygon fill="black" stroke="black" points="363.139,-242.138 373.201,-245.457 367.405,-236.588 363.139,-242.138"/>
<text text-anchor="middle" x="262.5" y="-217.8" font-family="Times New Roman,serif" font-size="14.00">|&#45; ( ps &#45;&gt; ( ph &#45;&gt; ps ) )</text>
</g>
<!-- n4936 -->
<g id="node10" class="node"><title>n4936</title>
<ellipse fill="lawngreen" stroke="black" cx="154" cy="-83" rx="27" ry="18"/>
<text text-anchor="middle" x="154" y="-79.3" font-family="Times New Roman,serif" font-size="14.00">ax&#45;1</text>
</g>
<!-- n4933&#45;&gt;n4936 -->
<g id="edge18" class="edge"><title>n4933&#45;&gt;n4936</title>
</g>
<!-- n4932&#45;&gt;n4933 -->
<g id="edge6" class="edge"><title>n4932&#45;&gt;n4933</title>
<path fill="none" stroke="lightgray" d="M53.9001,-147.865C72.1687,-149.18 96.8789,-150.959 117.054,-152.412"/>
<polygon fill="lightgray" stroke="lightgray" points="116.908,-155.91 127.133,-153.138 117.41,-148.928 116.908,-155.91"/>
<text text-anchor="middle" x="90.5" y="-155.8" font-family="Times New Roman,serif" font-size="14.00" fill="lightgray">wff ph</text>
</g>
<!-- n4934 -->
<g id="node9" class="node"><title>n4934</title>
</g>
<!-- n4934&#45;&gt;n4936 -->
<g id="edge9" class="edge"><title>n4934&#45;&gt;n4936</title>
<path fill="none" stroke="lightgray" d="M54.2041,-88.5326C72.3711,-87.5152 96.7994,-86.1472 116.82,-85.0261"/>
<polygon fill="lightgray" stroke="lightgray" points="117.042,-88.5192 126.83,-84.4655 116.65,-81.5302 117.042,-88.5192"/>
<text text-anchor="middle" x="90.5" y="-91.8" font-family="Times New Roman,serif" font-size="14.00" fill="lightgray">wff ph</text>
</g>
<!-- n4935 -->
<g id="node11" class="node"><title>n4935</title>
</g>
<!-- n4934&#45;&gt;n4935 -->
<g id="edge12" class="edge"><title>n4934&#45;&gt;n4935</title>
</g>
<!-- n4936&#45;&gt;n4937 -->
<g id="edge11" class="edge"><title>n4936&#45;&gt;n4937</title>
<path fill="none" stroke="black" d="M180.298,-87.34C216.229,-94.6097 282.501,-112.225 326,-149 353.22,-172.012 372.19,-209.032 382.84,-234.386"/>
<polygon fill="black" stroke="black" points="379.653,-235.842 386.641,-243.806 386.144,-233.222 379.653,-235.842"/>
<text text-anchor="middle" x="262.5" y="-152.8" font-family="Times New Roman,serif" font-size="14.00">|&#45; ( ph &#45;&gt; ( ps &#45;&gt; ph ) )</text>
</g>
<!-- n4935&#45;&gt;n4936 -->
<g id="edge10" class="edge"><title>n4935&#45;&gt;n4936</title>
<path fill="none" stroke="lightgray" d="M48.9222,-28.8795C69.2023,-39.4252 100.171,-55.5291 123.059,-67.4306"/>
<polygon fill="lightgray" stroke="lightgray" points="121.523,-70.5766 132.01,-72.085 124.752,-64.3661 121.523,-70.5766"/>
<text text-anchor="middle" x="90.5" y="-64.8" font-family="Times New Roman,serif" font-size="14.00" fill="lightgray">wff ps</text>
</g>
</g>
</svg>
