<?xml version="1.0" encoding="UTF-8" standalone="no"?>
<!DOCTYPE svg PUBLIC "-//W3C//DTD SVG 1.1//EN"
 "http://www.w3.org/Graphics/SVG/1.1/DTD/svg11.dtd">
<!-- Generated by graphviz version 2.38.0 (20140413.2041)
 -->
<!-- Title: proof_pm5_5 Pages: 1 -->
<svg width="769pt" height="295pt"
 viewBox="0.00 0.00 769.38 295.00" xmlns="http://www.w3.org/2000/svg" xmlns:xlink="http://www.w3.org/1999/xlink">
<g id="graph0" class="graph" transform="scale(1 1) rotate(0) translate(4 291)">
<title>proof_pm5_5</title>
<polygon fill="white" stroke="none" points="-4,4 -4,-291 765.383,-291 765.383,4 -4,4"/>
<!-- n6423 -->
<g id="node1" class="node"><title>n6423</title>
</g>
<!-- n6431 -->
<g id="node2" class="node"><title>n6431</title>
<ellipse fill="cyan" stroke="black" cx="443.542" cy="-160" rx="38.1938" ry="18"/>
<text text-anchor="middle" x="443.542" y="-156.3" font-family="Times New Roman,serif" font-size="14.00">bicomd</text>
</g>
<!-- n6423&#45;&gt;n6431 -->
<g id="edge1" class="edge"><title>n6423&#45;&gt;n6431</title>
<path fill="none" stroke="lightgray" d="M182.59,-266.246C226.861,-260.707 318.743,-245.476 387.195,-209 399.229,-202.588 410.807,-193.057 420.236,-184.102"/>
<polygon fill="lightgray" stroke="lightgray" points="422.97,-186.319 427.613,-176.796 418.045,-181.346 422.97,-186.319"/>
<text text-anchor="middle" x="294.695" y="-265.8" font-family="Times New Roman,serif" font-size="14.00" fill="lightgray">wff ph</text>
</g>
<!-- n6424 -->
<g id="node3" class="node"><title>n6424</title>
</g>
<!-- n6423&#45;&gt;n6424 -->
<g id="edge9" class="edge"><title>n6423&#45;&gt;n6424</title>
</g>
<!-- QED -->
<g id="node8" class="node"><title>QED</title>
</g>
<!-- n6431&#45;&gt;QED -->
<g id="edge8" class="edge"><title>n6431&#45;&gt;QED</title>
<path fill="none" stroke="black" d="M482.009,-160C536.602,-160 637.499,-160 692.657,-160"/>
<polygon fill="black" stroke="black" points="692.728,-163.5 702.728,-160 692.727,-156.5 692.728,-163.5"/>
<text text-anchor="middle" x="592.388" y="-163.8" font-family="Times New Roman,serif" font-size="14.00">|&#45; ( ph &#45;&gt; ( ( ph &#45;&gt; ps ) &lt;&#45;&gt; ps ) )</text>
</g>
<!-- n6424&#45;&gt;n6431 -->
<g id="edge2" class="edge"><title>n6424&#45;&gt;n6431</title>
<path fill="none" stroke="lightgray" d="M182.225,-193.684C230.43,-187.446 335.218,-173.887 396.123,-166.006"/>
<polygon fill="lightgray" stroke="lightgray" points="396.765,-169.453 406.234,-164.698 395.867,-162.51 396.765,-169.453"/>
<text text-anchor="middle" x="294.695" y="-193.8" font-family="Times New Roman,serif" font-size="14.00" fill="lightgray">wff ps</text>
</g>
<!-- n6427 -->
<g id="node4" class="node"><title>n6427</title>
</g>
<!-- n6424&#45;&gt;n6427 -->
<g id="edge10" class="edge"><title>n6424&#45;&gt;n6427</title>
</g>
<!-- n6427&#45;&gt;n6431 -->
<g id="edge3" class="edge"><title>n6427&#45;&gt;n6431</title>
<path fill="none" stroke="lightgray" d="M182.586,-127.512C225.34,-131.738 313.158,-140.813 387.195,-151 390.426,-151.445 393.759,-151.927 397.112,-152.429"/>
<polygon fill="lightgray" stroke="lightgray" points="396.732,-155.912 407.15,-153.981 397.801,-148.994 396.732,-155.912"/>
<text text-anchor="middle" x="294.695" y="-154.8" font-family="Times New Roman,serif" font-size="14.00" fill="lightgray">wff ( ph &#45;&gt; ps )</text>
</g>
<!-- n6430 -->
<g id="node6" class="node"><title>n6430</title>
<ellipse fill="cyan" stroke="black" cx="155.597" cy="-53" rx="28.6953" ry="18"/>
<text text-anchor="middle" x="155.597" y="-49.3" font-family="Times New Roman,serif" font-size="14.00">biimt</text>
</g>
<!-- n6427&#45;&gt;n6430 -->
<g id="edge11" class="edge"><title>n6427&#45;&gt;n6430</title>
</g>
<!-- n6428 -->
<g id="node5" class="node"><title>n6428</title>
</g>
<!-- n6428&#45;&gt;n6430 -->
<g id="edge4" class="edge"><title>n6428&#45;&gt;n6430</title>
<path fill="none" stroke="lightgray" d="M52.11,-82.9535C71.1851,-77.3785 98.0881,-69.5157 119.544,-63.2448"/>
<polygon fill="lightgray" stroke="lightgray" points="120.659,-66.5655 129.276,-60.4007 118.695,-59.8466 120.659,-66.5655"/>
<text text-anchor="middle" x="90.5" y="-80.8" font-family="Times New Roman,serif" font-size="14.00" fill="lightgray">wff ph</text>
</g>
<!-- n6429 -->
<g id="node7" class="node"><title>n6429</title>
</g>
<!-- n6428&#45;&gt;n6429 -->
<g id="edge7" class="edge"><title>n6428&#45;&gt;n6429</title>
</g>
<!-- n6430&#45;&gt;n6431 -->
<g id="edge6" class="edge"><title>n6430&#45;&gt;n6431</title>
<path fill="none" stroke="black" d="M184.022,-55.6426C228.815,-60.8636 319.468,-75.2634 387.195,-111 399.255,-117.363 410.838,-126.885 420.262,-135.848"/>
<polygon fill="black" stroke="black" points="418.071,-138.604 427.635,-143.163 423.001,-133.635 418.071,-138.604"/>
<text text-anchor="middle" x="294.695" y="-114.8" font-family="Times New Roman,serif" font-size="14.00">|&#45; ( ph &#45;&gt; ( ps &lt;&#45;&gt; ( ph &#45;&gt; ps ) ) )</text>
</g>
<!-- n6429&#45;&gt;n6430 -->
<g id="edge5" class="edge"><title>n6429&#45;&gt;n6430</title>
<path fill="none" stroke="lightgray" d="M52.11,-24.6656C71.0612,-29.905 97.739,-37.2805 119.126,-43.1932"/>
<polygon fill="lightgray" stroke="lightgray" points="118.266,-46.5867 128.837,-45.878 120.131,-39.8398 118.266,-46.5867"/>
<text text-anchor="middle" x="90.5" y="-43.8" font-family="Times New Roman,serif" font-size="14.00" fill="lightgray">wff ps</text>
</g>
</g>
</svg>
