<?xml version="1.0" encoding="UTF-8" standalone="no"?>
<!DOCTYPE svg PUBLIC "-//W3C//DTD SVG 1.1//EN"
 "http://www.w3.org/Graphics/SVG/1.1/DTD/svg11.dtd">
<!-- Generated by graphviz version 2.38.0 (20140413.2041)
 -->
<!-- Title: proof_pm5_15 Pages: 1 -->
<svg width="1119pt" height="295pt"
 viewBox="0.00 0.00 1119.38 295.00" xmlns="http://www.w3.org/2000/svg" xmlns:xlink="http://www.w3.org/1999/xlink">
<g id="graph0" class="graph" transform="scale(1 1) rotate(0) translate(4 291)">
<title>proof_pm5_15</title>
<polygon fill="white" stroke="none" points="-4,4 -4,-291 1115.38,-291 1115.38,4 -4,4"/>
<!-- n15648 -->
<g id="node1" class="node"><title>n15648</title>
</g>
<!-- n15665 -->
<g id="node2" class="node"><title>n15665</title>
<ellipse fill="cyan" stroke="black" cx="789.889" cy="-197" rx="27" ry="18"/>
<text text-anchor="middle" x="789.889" y="-193.3" font-family="Times New Roman,serif" font-size="14.00">orri</text>
</g>
<!-- n15648&#45;&gt;n15665 -->
<g id="edge1" class="edge"><title>n15648&#45;&gt;n15665</title>
<path fill="none" stroke="lightgray" d="M503.607,-265.727C551.834,-259.217 658.432,-242.909 744.889,-216 749.207,-214.656 753.674,-213.027 758.033,-211.293"/>
<polygon fill="lightgray" stroke="lightgray" points="759.435,-214.501 767.302,-207.404 756.726,-208.046 759.435,-214.501"/>
<text text-anchor="middle" x="636.389" y="-265.8" font-family="Times New Roman,serif" font-size="14.00" fill="lightgray">wff ( ph &lt;&#45;&gt; ps )</text>
</g>
<!-- n15652 -->
<g id="node3" class="node"><title>n15652</title>
</g>
<!-- n15648&#45;&gt;n15652 -->
<g id="edge13" class="edge"><title>n15648&#45;&gt;n15652</title>
</g>
<!-- QED -->
<g id="node10" class="node"><title>QED</title>
</g>
<!-- n15665&#45;&gt;QED -->
<g id="edge12" class="edge"><title>n15665&#45;&gt;QED</title>
<path fill="none" stroke="black" d="M816.902,-197C868.095,-197 982.153,-197 1042.3,-197"/>
<polygon fill="black" stroke="black" points="1042.52,-200.5 1052.52,-197 1042.52,-193.5 1042.52,-200.5"/>
<text text-anchor="middle" x="934.889" y="-200.8" font-family="Times New Roman,serif" font-size="14.00">|&#45; ( ( ph &lt;&#45;&gt; ps ) \/ ( ph &lt;&#45;&gt; &#45;. ps ) )</text>
</g>
<!-- n15652&#45;&gt;n15665 -->
<g id="edge2" class="edge"><title>n15652&#45;&gt;n15665</title>
<path fill="none" stroke="lightgray" d="M504.002,-197C559.54,-197 689.002,-197 752.482,-197"/>
<polygon fill="lightgray" stroke="lightgray" points="752.809,-200.5 762.809,-197 752.809,-193.5 752.809,-200.5"/>
<text text-anchor="middle" x="636.389" y="-200.8" font-family="Times New Roman,serif" font-size="14.00" fill="lightgray">wff ( ph &lt;&#45;&gt; &#45;. ps )</text>
</g>
<!-- n15664 -->
<g id="node5" class="node"><title>n15664</title>
<ellipse fill="cyan" stroke="black" cx="476.742" cy="-125" rx="33.2948" ry="18"/>
<text text-anchor="middle" x="476.742" y="-121.3" font-family="Times New Roman,serif" font-size="14.00">biimpi</text>
</g>
<!-- n15652&#45;&gt;n15664 -->
<g id="edge14" class="edge"><title>n15652&#45;&gt;n15664</title>
</g>
<!-- n15656 -->
<g id="node4" class="node"><title>n15656</title>
</g>
<!-- n15656&#45;&gt;n15664 -->
<g id="edge3" class="edge"><title>n15656&#45;&gt;n15664</title>
<path fill="none" stroke="lightgray" d="M180.977,-193.442C229.407,-186.407 337.303,-169.188 425.595,-144 430.505,-142.599 435.613,-140.927 440.609,-139.163"/>
<polygon fill="lightgray" stroke="lightgray" points="441.82,-142.447 449.995,-135.707 439.402,-135.878 441.82,-142.447"/>
<text text-anchor="middle" x="312.595" y="-193.8" font-family="Times New Roman,serif" font-size="14.00" fill="lightgray">wff &#45;. ( ph &lt;&#45;&gt; ps )</text>
</g>
<!-- n15660 -->
<g id="node6" class="node"><title>n15660</title>
</g>
<!-- n15656&#45;&gt;n15660 -->
<g id="edge10" class="edge"><title>n15656&#45;&gt;n15660</title>
</g>
<!-- n15664&#45;&gt;n15665 -->
<g id="edge9" class="edge"><title>n15664&#45;&gt;n15665</title>
<path fill="none" stroke="black" d="M509.126,-129.027C559.6,-135.989 661.592,-152.074 744.889,-178 749.207,-179.344 753.674,-180.973 758.033,-182.707"/>
<polygon fill="black" stroke="black" points="756.726,-185.954 767.302,-186.596 759.435,-179.499 756.726,-185.954"/>
<text text-anchor="middle" x="636.389" y="-181.8" font-family="Times New Roman,serif" font-size="14.00">|&#45; ( &#45;. ( ph &lt;&#45;&gt; ps ) &#45;&gt; ( ph &lt;&#45;&gt; &#45;. ps ) )</text>
</g>
<!-- n15660&#45;&gt;n15664 -->
<g id="edge4" class="edge"><title>n15660&#45;&gt;n15664</title>
<path fill="none" stroke="lightgray" d="M181.521,-125C236.856,-125 365.986,-125 433.27,-125"/>
<polygon fill="lightgray" stroke="lightgray" points="433.517,-128.5 443.517,-125 433.517,-121.5 433.517,-128.5"/>
<text text-anchor="middle" x="312.595" y="-128.8" font-family="Times New Roman,serif" font-size="14.00" fill="lightgray">wff ( ph &lt;&#45;&gt; &#45;. ps )</text>
</g>
<!-- n15663 -->
<g id="node8" class="node"><title>n15663</title>
<ellipse fill="cyan" stroke="black" cx="154.298" cy="-53" rx="27.0966" ry="18"/>
<text text-anchor="middle" x="154.298" y="-49.3" font-family="Times New Roman,serif" font-size="14.00">xor3</text>
</g>
<!-- n15660&#45;&gt;n15663 -->
<g id="edge11" class="edge"><title>n15660&#45;&gt;n15663</title>
</g>
<!-- n15661 -->
<g id="node7" class="node"><title>n15661</title>
</g>
<!-- n15661&#45;&gt;n15663 -->
<g id="edge5" class="edge"><title>n15661&#45;&gt;n15663</title>
<path fill="none" stroke="lightgray" d="M51.8624,-82.9535C70.9869,-77.3061 98.0613,-69.3111 119.429,-63.0013"/>
<polygon fill="lightgray" stroke="lightgray" points="120.498,-66.3352 129.097,-60.1463 118.515,-59.6217 120.498,-66.3352"/>
<text text-anchor="middle" x="90.5" y="-80.8" font-family="Times New Roman,serif" font-size="14.00" fill="lightgray">wff ph</text>
</g>
<!-- n15662 -->
<g id="node9" class="node"><title>n15662</title>
</g>
<!-- n15661&#45;&gt;n15662 -->
<g id="edge8" class="edge"><title>n15661&#45;&gt;n15662</title>
</g>
<!-- n15663&#45;&gt;n15664 -->
<g id="edge7" class="edge"><title>n15663&#45;&gt;n15664</title>
<path fill="none" stroke="black" d="M181.356,-56.6137C229.968,-63.6832 337.533,-80.8775 425.595,-106 430.505,-107.401 435.613,-109.073 440.609,-110.837"/>
<polygon fill="black" stroke="black" points="439.402,-114.122 449.995,-114.293 441.82,-107.553 439.402,-114.122"/>
<text text-anchor="middle" x="312.595" y="-109.8" font-family="Times New Roman,serif" font-size="14.00">|&#45; ( &#45;. ( ph &lt;&#45;&gt; ps ) &lt;&#45;&gt; ( ph &lt;&#45;&gt; &#45;. ps ) )</text>
</g>
<!-- n15662&#45;&gt;n15663 -->
<g id="edge6" class="edge"><title>n15662&#45;&gt;n15663</title>
<path fill="none" stroke="lightgray" d="M52.1586,-24.7484C71.1037,-30.0404 97.7157,-37.474 118.887,-43.3879"/>
<polygon fill="lightgray" stroke="lightgray" points="118.213,-46.8335 128.786,-46.1529 120.096,-40.0916 118.213,-46.8335"/>
<text text-anchor="middle" x="90.5" y="-44.8" font-family="Times New Roman,serif" font-size="14.00" fill="lightgray">wff ps</text>
</g>
</g>
</svg>
