<?xml version="1.0" encoding="UTF-8" standalone="no"?>
<!DOCTYPE svg PUBLIC "-//W3C//DTD SVG 1.1//EN"
 "http://www.w3.org/Graphics/SVG/1.1/DTD/svg11.dtd">
<!-- Generated by graphviz version 2.38.0 (20140413.2041)
 -->
<!-- Title: proof_simprr2 Pages: 1 -->
<svg width="825pt" height="367pt"
 viewBox="0.00 0.00 824.98 367.00" xmlns="http://www.w3.org/2000/svg" xmlns:xlink="http://www.w3.org/1999/xlink">
<g id="graph0" class="graph" transform="scale(1 1) rotate(0) translate(4 363)">
<title>proof_simprr2</title>
<polygon fill="white" stroke="none" points="-4,4 -4,-363 820.983,-363 820.983,4 -4,4"/>
<!-- n19847 -->
<g id="node1" class="node"><title>n19847</title>
</g>
<!-- n19855 -->
<g id="node2" class="node"><title>n19855</title>
<ellipse fill="cyan" stroke="black" cx="457.991" cy="-232" rx="32.4942" ry="18"/>
<text text-anchor="middle" x="457.991" y="-228.3" font-family="Times New Roman,serif" font-size="14.00">adantl</text>
</g>
<!-- n19847&#45;&gt;n19855 -->
<g id="edge1" class="edge"><title>n19847&#45;&gt;n19855</title>
<path fill="none" stroke="lightgray" d="M189.921,-338.925C236.402,-334.302 335.254,-320.184 407.494,-280 418.497,-273.879 428.815,-264.685 437.152,-255.975"/>
<polygon fill="lightgray" stroke="lightgray" points="439.785,-258.283 443.937,-248.536 434.613,-253.566 439.785,-258.283"/>
<text text-anchor="middle" x="311.994" y="-338.8" font-family="Times New Roman,serif" font-size="14.00" fill="lightgray">wff ( th /\ ( ph /\ ps /\ ch ) )</text>
</g>
<!-- n19848 -->
<g id="node3" class="node"><title>n19848</title>
</g>
<!-- n19847&#45;&gt;n19848 -->
<g id="edge13" class="edge"><title>n19847&#45;&gt;n19848</title>
</g>
<!-- QED -->
<g id="node10" class="node"><title>QED</title>
</g>
<!-- n19855&#45;&gt;QED -->
<g id="edge12" class="edge"><title>n19855&#45;&gt;QED</title>
<path fill="none" stroke="black" d="M490.714,-232C551.128,-232 682.495,-232 747.992,-232"/>
<polygon fill="black" stroke="black" points="748.294,-235.5 758.294,-232 748.294,-228.5 748.294,-235.5"/>
<text text-anchor="middle" x="624.488" y="-235.8" font-family="Times New Roman,serif" font-size="14.00">|&#45; ( ( ta /\ ( th /\ ( ph /\ ps /\ ch ) ) ) &#45;&gt; ps )</text>
</g>
<!-- n19848&#45;&gt;n19855 -->
<g id="edge2" class="edge"><title>n19848&#45;&gt;n19855</title>
<path fill="none" stroke="lightgray" d="M189.513,-265.749C240.51,-259.314 354.673,-244.91 416.065,-237.164"/>
<polygon fill="lightgray" stroke="lightgray" points="416.685,-240.613 426.168,-235.889 415.809,-233.668 416.685,-240.613"/>
<text text-anchor="middle" x="311.994" y="-264.8" font-family="Times New Roman,serif" font-size="14.00" fill="lightgray">wff ps</text>
</g>
<!-- n19849 -->
<g id="node4" class="node"><title>n19849</title>
</g>
<!-- n19848&#45;&gt;n19849 -->
<g id="edge14" class="edge"><title>n19848&#45;&gt;n19849</title>
</g>
<!-- n19849&#45;&gt;n19855 -->
<g id="edge3" class="edge"><title>n19849&#45;&gt;n19855</title>
<path fill="none" stroke="lightgray" d="M189.798,-199.145C234.471,-202.964 328.514,-211.623 407.494,-223 410.692,-223.461 414,-223.976 417.319,-224.521"/>
<polygon fill="lightgray" stroke="lightgray" points="416.762,-227.977 427.21,-226.219 417.946,-221.078 416.762,-227.977"/>
<text text-anchor="middle" x="311.994" y="-226.8" font-family="Times New Roman,serif" font-size="14.00" fill="lightgray">wff ta</text>
</g>
<!-- n19854 -->
<g id="node6" class="node"><title>n19854</title>
<ellipse fill="cyan" stroke="black" cx="162.747" cy="-125" rx="35.9954" ry="18"/>
<text text-anchor="middle" x="162.747" y="-121.3" font-family="Times New Roman,serif" font-size="14.00">simpr2</text>
</g>
<!-- n19849&#45;&gt;n19854 -->
<g id="edge15" class="edge"><title>n19849&#45;&gt;n19854</title>
</g>
<!-- n19850 -->
<g id="node5" class="node"><title>n19850</title>
</g>
<!-- n19850&#45;&gt;n19854 -->
<g id="edge4" class="edge"><title>n19850&#45;&gt;n19854</title>
<path fill="none" stroke="lightgray" d="M44.9391,-220.195C67.7444,-201.609 108.55,-168.354 135.386,-146.483"/>
<polygon fill="lightgray" stroke="lightgray" points="137.69,-149.12 143.231,-140.09 133.268,-143.694 137.69,-149.12"/>
<text text-anchor="middle" x="90.5" y="-198.8" font-family="Times New Roman,serif" font-size="14.00" fill="lightgray">wff th</text>
</g>
<!-- n19851 -->
<g id="node7" class="node"><title>n19851</title>
</g>
<!-- n19850&#45;&gt;n19851 -->
<g id="edge9" class="edge"><title>n19850&#45;&gt;n19851</title>
</g>
<!-- n19854&#45;&gt;n19855 -->
<g id="edge8" class="edge"><title>n19854&#45;&gt;n19855</title>
<path fill="none" stroke="black" d="M198.625,-127.095C247.999,-131.355 339.795,-144.124 407.494,-182 418.871,-188.365 429.366,-198.115 437.736,-207.319"/>
<polygon fill="black" stroke="black" points="435.329,-209.887 444.513,-215.169 440.627,-205.313 435.329,-209.887"/>
<text text-anchor="middle" x="311.994" y="-185.8" font-family="Times New Roman,serif" font-size="14.00">|&#45; ( ( th /\ ( ph /\ ps /\ ch ) ) &#45;&gt; ps )</text>
</g>
<!-- n19851&#45;&gt;n19854 -->
<g id="edge5" class="edge"><title>n19851&#45;&gt;n19854</title>
<path fill="none" stroke="lightgray" d="M52.2205,-155.3C71.4993,-149.966 98.8949,-142.387 121.464,-136.144"/>
<polygon fill="lightgray" stroke="lightgray" points="122.419,-139.511 131.124,-133.472 120.553,-132.765 122.419,-139.511"/>
<text text-anchor="middle" x="90.5" y="-152.8" font-family="Times New Roman,serif" font-size="14.00" fill="lightgray">wff ph</text>
</g>
<!-- n19852 -->
<g id="node8" class="node"><title>n19852</title>
</g>
<!-- n19851&#45;&gt;n19852 -->
<g id="edge10" class="edge"><title>n19851&#45;&gt;n19852</title>
</g>
<!-- n19852&#45;&gt;n19854 -->
<g id="edge6" class="edge"><title>n19852&#45;&gt;n19854</title>
<path fill="none" stroke="lightgray" d="M52.5312,-96.4195C71.6273,-101.417 98.5486,-108.462 120.884,-114.307"/>
<polygon fill="lightgray" stroke="lightgray" points="120.219,-117.75 130.779,-116.896 121.991,-110.978 120.219,-117.75"/>
<text text-anchor="middle" x="90.5" y="-114.8" font-family="Times New Roman,serif" font-size="14.00" fill="lightgray">wff ps</text>
</g>
<!-- n19853 -->
<g id="node9" class="node"><title>n19853</title>
</g>
<!-- n19852&#45;&gt;n19853 -->
<g id="edge11" class="edge"><title>n19852&#45;&gt;n19853</title>
</g>
<!-- n19853&#45;&gt;n19854 -->
<g id="edge7" class="edge"><title>n19853&#45;&gt;n19854</title>
<path fill="none" stroke="lightgray" d="M44.9391,-31.5516C67.617,-49.6944 108.095,-82.0773 134.935,-103.55"/>
<polygon fill="lightgray" stroke="lightgray" points="132.798,-106.322 142.793,-109.836 137.17,-100.856 132.798,-106.322"/>
<text text-anchor="middle" x="90.5" y="-85.8" font-family="Times New Roman,serif" font-size="14.00" fill="lightgray">wff ch</text>
</g>
</g>
</svg>
