<?xml version="1.0" encoding="UTF-8" standalone="no"?>
<!DOCTYPE svg PUBLIC "-//W3C//DTD SVG 1.1//EN"
 "http://www.w3.org/Graphics/SVG/1.1/DTD/svg11.dtd">
<!-- Generated by graphviz version 2.38.0 (20140413.2041)
 -->
<!-- Title: proof_simp12 Pages: 1 -->
<svg width="783pt" height="404pt"
 viewBox="0.00 0.00 782.58 404.00" xmlns="http://www.w3.org/2000/svg" xmlns:xlink="http://www.w3.org/1999/xlink">
<g id="graph0" class="graph" transform="scale(1 1) rotate(0) translate(4 400)">
<title>proof_simp12</title>
<polygon fill="white" stroke="none" points="-4,4 -4,-400 778.581,-400 778.581,4 -4,4"/>
<!-- n19609 -->
<g id="node1" class="node"><title>n19609</title>
</g>
<!-- n19617 -->
<g id="node2" class="node"><title>n19617</title>
<ellipse fill="cyan" stroke="black" cx="420.54" cy="-234" rx="43.5923" ry="18"/>
<text text-anchor="middle" x="420.54" y="-230.3" font-family="Times New Roman,serif" font-size="14.00">3ad2ant1</text>
</g>
<!-- n19609&#45;&gt;n19617 -->
<g id="edge1" class="edge"><title>n19609&#45;&gt;n19617</title>
<path fill="none" stroke="lightgray" d="M186.124,-374.188C226.13,-367.235 304.481,-349.507 358.994,-311 377.746,-297.754 393.558,-277.066 404.316,-260.468"/>
<polygon fill="lightgray" stroke="lightgray" points="407.436,-262.078 409.759,-251.741 401.497,-258.373 407.436,-262.078"/>
<text text-anchor="middle" x="284.494" y="-371.8" font-family="Times New Roman,serif" font-size="14.00" fill="lightgray">wff ( ph /\ ps /\ ch )</text>
</g>
<!-- n19610 -->
<g id="node3" class="node"><title>n19610</title>
</g>
<!-- n19609&#45;&gt;n19610 -->
<g id="edge12" class="edge"><title>n19609&#45;&gt;n19610</title>
</g>
<!-- QED -->
<g id="node10" class="node"><title>QED</title>
</g>
<!-- n19617&#45;&gt;QED -->
<g id="edge11" class="edge"><title>n19617&#45;&gt;QED</title>
<path fill="none" stroke="black" d="M464.405,-234C527.662,-234 645.059,-234 705.76,-234"/>
<polygon fill="black" stroke="black" points="706.056,-237.5 716.056,-234 706.056,-230.5 706.056,-237.5"/>
<text text-anchor="middle" x="590.087" y="-237.8" font-family="Times New Roman,serif" font-size="14.00">|&#45; ( ( ( ph /\ ps /\ ch ) /\ th /\ ta ) &#45;&gt; ps )</text>
</g>
<!-- n19610&#45;&gt;n19617 -->
<g id="edge2" class="edge"><title>n19610&#45;&gt;n19617</title>
<path fill="none" stroke="lightgray" d="M185.038,-299.811C222.625,-290.25 296.651,-271.096 358.994,-253 364.417,-251.426 370.094,-249.721 375.708,-248"/>
<polygon fill="lightgray" stroke="lightgray" points="377.159,-251.215 385.675,-244.911 375.087,-244.528 377.159,-251.215"/>
<text text-anchor="middle" x="284.494" y="-295.8" font-family="Times New Roman,serif" font-size="14.00" fill="lightgray">wff th</text>
</g>
<!-- n19611 -->
<g id="node4" class="node"><title>n19611</title>
</g>
<!-- n19610&#45;&gt;n19611 -->
<g id="edge13" class="edge"><title>n19610&#45;&gt;n19611</title>
</g>
<!-- n19611&#45;&gt;n19617 -->
<g id="edge3" class="edge"><title>n19611&#45;&gt;n19617</title>
<path fill="none" stroke="lightgray" d="M186.761,-234C228.813,-234 312.072,-234 366.768,-234"/>
<polygon fill="lightgray" stroke="lightgray" points="366.969,-237.5 376.969,-234 366.969,-230.5 366.969,-237.5"/>
<text text-anchor="middle" x="284.494" y="-237.8" font-family="Times New Roman,serif" font-size="14.00" fill="lightgray">wff ps</text>
</g>
<!-- n19612 -->
<g id="node5" class="node"><title>n19612</title>
</g>
<!-- n19611&#45;&gt;n19612 -->
<g id="edge14" class="edge"><title>n19611&#45;&gt;n19612</title>
</g>
<!-- n19612&#45;&gt;n19617 -->
<g id="edge4" class="edge"><title>n19612&#45;&gt;n19617</title>
<path fill="none" stroke="lightgray" d="M185.038,-168.189C222.625,-177.75 296.651,-196.904 358.994,-215 364.417,-216.574 370.094,-218.279 375.708,-220"/>
<polygon fill="lightgray" stroke="lightgray" points="375.087,-223.472 385.675,-223.089 377.159,-216.785 375.087,-223.472"/>
<text text-anchor="middle" x="284.494" y="-218.8" font-family="Times New Roman,serif" font-size="14.00" fill="lightgray">wff ta</text>
</g>
<!-- n19616 -->
<g id="node7" class="node"><title>n19616</title>
<ellipse fill="cyan" stroke="black" cx="159.497" cy="-90" rx="32.4942" ry="18"/>
<text text-anchor="middle" x="159.497" y="-86.3" font-family="Times New Roman,serif" font-size="14.00">simp2</text>
</g>
<!-- n19612&#45;&gt;n19616 -->
<g id="edge15" class="edge"><title>n19612&#45;&gt;n19616</title>
</g>
<!-- n19613 -->
<g id="node6" class="node"><title>n19613</title>
</g>
<!-- n19613&#45;&gt;n19616 -->
<g id="edge5" class="edge"><title>n19613&#45;&gt;n19616</title>
<path fill="none" stroke="lightgray" d="M48.3902,-150.75C69.3662,-139.177 102.33,-120.989 126.728,-107.528"/>
<polygon fill="lightgray" stroke="lightgray" points="128.552,-110.519 135.617,-102.624 125.17,-104.39 128.552,-110.519"/>
<text text-anchor="middle" x="90.5" y="-140.8" font-family="Times New Roman,serif" font-size="14.00" fill="lightgray">wff ph</text>
</g>
<!-- n19614 -->
<g id="node8" class="node"><title>n19614</title>
</g>
<!-- n19613&#45;&gt;n19614 -->
<g id="edge9" class="edge"><title>n19613&#45;&gt;n19614</title>
</g>
<!-- n19616&#45;&gt;n19617 -->
<g id="edge8" class="edge"><title>n19616&#45;&gt;n19617</title>
<path fill="none" stroke="black" d="M191.217,-94.7194C232.495,-102.249 306.709,-120.067 358.994,-157 377.746,-170.246 393.558,-190.934 404.316,-207.532"/>
<polygon fill="black" stroke="black" points="401.497,-209.627 409.759,-216.259 407.436,-205.922 401.497,-209.627"/>
<text text-anchor="middle" x="284.494" y="-160.8" font-family="Times New Roman,serif" font-size="14.00">|&#45; ( ( ph /\ ps /\ ch ) &#45;&gt; ps )</text>
</g>
<!-- n19614&#45;&gt;n19616 -->
<g id="edge6" class="edge"><title>n19614&#45;&gt;n19616</title>
<path fill="none" stroke="lightgray" d="M54.0944,-90C72.0379,-90 96.2504,-90 116.841,-90"/>
<polygon fill="lightgray" stroke="lightgray" points="116.919,-93.5001 126.919,-90 116.919,-86.5001 116.919,-93.5001"/>
<text text-anchor="middle" x="90.5" y="-93.8" font-family="Times New Roman,serif" font-size="14.00" fill="lightgray">wff ps</text>
</g>
<!-- n19615 -->
<g id="node9" class="node"><title>n19615</title>
</g>
<!-- n19614&#45;&gt;n19615 -->
<g id="edge10" class="edge"><title>n19614&#45;&gt;n19615</title>
</g>
<!-- n19615&#45;&gt;n19616 -->
<g id="edge7" class="edge"><title>n19615&#45;&gt;n19616</title>
<path fill="none" stroke="lightgray" d="M48.3902,-29.25C69.3662,-40.8232 102.33,-59.0108 126.728,-72.4721"/>
<polygon fill="lightgray" stroke="lightgray" points="125.17,-75.6098 135.617,-77.3762 128.552,-69.4807 125.17,-75.6098"/>
<text text-anchor="middle" x="90.5" y="-66.8" font-family="Times New Roman,serif" font-size="14.00" fill="lightgray">wff ch</text>
</g>
</g>
</svg>
