<?xml version="1.0" encoding="UTF-8" standalone="no"?>
<!DOCTYPE svg PUBLIC "-//W3C//DTD SVG 1.1//EN"
 "http://www.w3.org/Graphics/SVG/1.1/DTD/svg11.dtd">
<!-- Generated by graphviz version 2.38.0 (20140413.2041)
 -->
<!-- Title: proof_simprl2 Pages: 1 -->
<svg width="822pt" height="367pt"
 viewBox="0.00 0.00 822.38 367.00" xmlns="http://www.w3.org/2000/svg" xmlns:xlink="http://www.w3.org/1999/xlink">
<g id="graph0" class="graph" transform="scale(1 1) rotate(0) translate(4 363)">
<title>proof_simprl2</title>
<polygon fill="white" stroke="none" points="-4,4 -4,-363 818.383,-363 818.383,4 -4,4"/>
<!-- n19805 -->
<g id="node1" class="node"><title>n19805</title>
</g>
<!-- n19813 -->
<g id="node2" class="node"><title>n19813</title>
<ellipse fill="cyan" stroke="black" cx="455.391" cy="-232" rx="32.4942" ry="18"/>
<text text-anchor="middle" x="455.391" y="-228.3" font-family="Times New Roman,serif" font-size="14.00">adantl</text>
</g>
<!-- n19805&#45;&gt;n19813 -->
<g id="edge1" class="edge"><title>n19805&#45;&gt;n19813</title>
<path fill="none" stroke="lightgray" d="M188.482,-338.893C234.716,-334.22 333.042,-320.028 404.894,-280 415.894,-273.872 426.21,-264.676 434.549,-255.968"/>
<polygon fill="lightgray" stroke="lightgray" points="437.18,-258.277 441.334,-248.53 432.009,-253.559 437.18,-258.277"/>
<text text-anchor="middle" x="309.394" y="-338.8" font-family="Times New Roman,serif" font-size="14.00" fill="lightgray">wff ( ( ph /\ ps /\ ch ) /\ th )</text>
</g>
<!-- n19806 -->
<g id="node3" class="node"><title>n19806</title>
</g>
<!-- n19805&#45;&gt;n19806 -->
<g id="edge13" class="edge"><title>n19805&#45;&gt;n19806</title>
</g>
<!-- QED -->
<g id="node10" class="node"><title>QED</title>
</g>
<!-- n19813&#45;&gt;QED -->
<g id="edge12" class="edge"><title>n19813&#45;&gt;QED</title>
<path fill="none" stroke="black" d="M488.114,-232C548.528,-232 679.895,-232 745.392,-232"/>
<polygon fill="black" stroke="black" points="745.694,-235.5 755.694,-232 745.694,-228.5 745.694,-235.5"/>
<text text-anchor="middle" x="621.888" y="-235.8" font-family="Times New Roman,serif" font-size="14.00">|&#45; ( ( ta /\ ( ( ph /\ ps /\ ch ) /\ th ) ) &#45;&gt; ps )</text>
</g>
<!-- n19806&#45;&gt;n19813 -->
<g id="edge2" class="edge"><title>n19806&#45;&gt;n19813</title>
<path fill="none" stroke="lightgray" d="M188.099,-265.749C238.739,-259.331 351.938,-244.985 413.171,-237.224"/>
<polygon fill="lightgray" stroke="lightgray" points="413.774,-240.676 423.254,-235.946 412.894,-233.731 413.774,-240.676"/>
<text text-anchor="middle" x="309.394" y="-264.8" font-family="Times New Roman,serif" font-size="14.00" fill="lightgray">wff ps</text>
</g>
<!-- n19807 -->
<g id="node4" class="node"><title>n19807</title>
</g>
<!-- n19806&#45;&gt;n19807 -->
<g id="edge14" class="edge"><title>n19806&#45;&gt;n19807</title>
</g>
<!-- n19807&#45;&gt;n19813 -->
<g id="edge3" class="edge"><title>n19807&#45;&gt;n19813</title>
<path fill="none" stroke="lightgray" d="M188.359,-199.153C232.793,-202.984 326.334,-211.661 404.894,-223 408.092,-223.462 411.4,-223.978 414.719,-224.523"/>
<polygon fill="lightgray" stroke="lightgray" points="414.162,-227.979 424.61,-226.221 415.347,-221.08 414.162,-227.979"/>
<text text-anchor="middle" x="309.394" y="-226.8" font-family="Times New Roman,serif" font-size="14.00" fill="lightgray">wff ta</text>
</g>
<!-- n19812 -->
<g id="node6" class="node"><title>n19812</title>
<ellipse fill="cyan" stroke="black" cx="161.447" cy="-125" rx="34.394" ry="18"/>
<text text-anchor="middle" x="161.447" y="-121.3" font-family="Times New Roman,serif" font-size="14.00">simpl2</text>
</g>
<!-- n19807&#45;&gt;n19812 -->
<g id="edge15" class="edge"><title>n19807&#45;&gt;n19812</title>
</g>
<!-- n19808 -->
<g id="node5" class="node"><title>n19808</title>
</g>
<!-- n19808&#45;&gt;n19812 -->
<g id="edge4" class="edge"><title>n19808&#45;&gt;n19812</title>
<path fill="none" stroke="lightgray" d="M44.8042,-220.409C61.2211,-207.108 86.8947,-186.243 109,-168 117.35,-161.109 126.422,-153.55 134.591,-146.718"/>
<polygon fill="lightgray" stroke="lightgray" points="136.979,-149.283 142.398,-140.179 132.484,-143.917 136.979,-149.283"/>
<text text-anchor="middle" x="90.5" y="-200.8" font-family="Times New Roman,serif" font-size="14.00" fill="lightgray">wff ph</text>
</g>
<!-- n19809 -->
<g id="node7" class="node"><title>n19809</title>
</g>
<!-- n19808&#45;&gt;n19809 -->
<g id="edge9" class="edge"><title>n19808&#45;&gt;n19809</title>
</g>
<!-- n19812&#45;&gt;n19813 -->
<g id="edge8" class="edge"><title>n19812&#45;&gt;n19813</title>
<path fill="none" stroke="black" d="M195.911,-127.03C244.716,-131.233 336.994,-143.959 404.894,-182 416.268,-188.372 426.761,-198.122 435.132,-207.326"/>
<polygon fill="black" stroke="black" points="432.725,-209.894 441.91,-215.175 438.023,-205.319 432.725,-209.894"/>
<text text-anchor="middle" x="309.394" y="-185.8" font-family="Times New Roman,serif" font-size="14.00">|&#45; ( ( ( ph /\ ps /\ ch ) /\ th ) &#45;&gt; ps )</text>
</g>
<!-- n19809&#45;&gt;n19812 -->
<g id="edge5" class="edge"><title>n19809&#45;&gt;n19812</title>
<path fill="none" stroke="lightgray" d="M52.2928,-155.214C71.4623,-149.858 98.5948,-142.279 120.888,-136.051"/>
<polygon fill="lightgray" stroke="lightgray" points="122.054,-139.359 130.744,-133.298 120.171,-132.617 122.054,-139.359"/>
<text text-anchor="middle" x="90.5" y="-152.8" font-family="Times New Roman,serif" font-size="14.00" fill="lightgray">wff ps</text>
</g>
<!-- n19810 -->
<g id="node8" class="node"><title>n19810</title>
</g>
<!-- n19809&#45;&gt;n19810 -->
<g id="edge10" class="edge"><title>n19809&#45;&gt;n19810</title>
</g>
<!-- n19810&#45;&gt;n19812 -->
<g id="edge6" class="edge"><title>n19810&#45;&gt;n19812</title>
<path fill="none" stroke="lightgray" d="M52.2928,-96.4195C71.3328,-101.451 98.2285,-108.558 120.435,-114.427"/>
<polygon fill="lightgray" stroke="lightgray" points="119.701,-117.853 130.263,-117.024 121.489,-111.085 119.701,-117.853"/>
<text text-anchor="middle" x="90.5" y="-114.8" font-family="Times New Roman,serif" font-size="14.00" fill="lightgray">wff ch</text>
</g>
<!-- n19811 -->
<g id="node9" class="node"><title>n19811</title>
</g>
<!-- n19810&#45;&gt;n19811 -->
<g id="edge11" class="edge"><title>n19810&#45;&gt;n19811</title>
</g>
<!-- n19811&#45;&gt;n19812 -->
<g id="edge7" class="edge"><title>n19811&#45;&gt;n19812</title>
<path fill="none" stroke="lightgray" d="M44.7745,-31.5516C67.232,-49.6944 107.316,-82.0773 133.896,-103.55"/>
<polygon fill="lightgray" stroke="lightgray" points="131.699,-106.275 141.677,-109.836 136.098,-100.829 131.699,-106.275"/>
<text text-anchor="middle" x="90.5" y="-85.8" font-family="Times New Roman,serif" font-size="14.00" fill="lightgray">wff th</text>
</g>
</g>
</svg>
