<?xml version="1.0" encoding="UTF-8" standalone="no"?>
<!DOCTYPE svg PUBLIC "-//W3C//DTD SVG 1.1//EN"
 "http://www.w3.org/Graphics/SVG/1.1/DTD/svg11.dtd">
<!-- Generated by graphviz version 2.38.0 (20140413.2041)
 -->
<!-- Title: proof_simp_5r Pages: 1 -->
<svg width="947pt" height="404pt"
 viewBox="0.00 0.00 947.48 404.00" xmlns="http://www.w3.org/2000/svg" xmlns:xlink="http://www.w3.org/1999/xlink">
<g id="graph0" class="graph" transform="scale(1 1) rotate(0) translate(4 400)">
<title>proof_simp_5r</title>
<polygon fill="white" stroke="none" points="-4,4 -4,-400 943.482,-400 943.482,4 -4,4"/>
<!-- n12929 -->
<g id="node1" class="node"><title>n12929</title>
</g>
<!-- n12938 -->
<g id="node2" class="node"><title>n12938</title>
<ellipse fill="cyan" stroke="black" cx="521.84" cy="-269" rx="33.2948" ry="18"/>
<text text-anchor="middle" x="521.84" y="-265.3" font-family="Times New Roman,serif" font-size="14.00">adantr</text>
</g>
<!-- n12929&#45;&gt;n12938 -->
<g id="edge1" class="edge"><title>n12929&#45;&gt;n12938</title>
<path fill="none" stroke="lightgray" d="M192.467,-377.96C247.291,-376.84 377.026,-368.685 470.693,-319 482.572,-312.699 493.455,-302.655 502.023,-293.217"/>
<polygon fill="lightgray" stroke="lightgray" points="504.773,-295.387 508.648,-285.527 499.47,-290.819 504.773,-295.387"/>
<text text-anchor="middle" x="346.193" y="-379.8" font-family="Times New Roman,serif" font-size="14.00" fill="lightgray">wff ( ( ( ( ph /\ ps ) /\ ch ) /\ th ) /\ ta )</text>
</g>
<!-- n12930 -->
<g id="node3" class="node"><title>n12930</title>
</g>
<!-- n12929&#45;&gt;n12930 -->
<g id="edge15" class="edge"><title>n12929&#45;&gt;n12930</title>
</g>
<!-- QED -->
<g id="node11" class="node"><title>QED</title>
</g>
<!-- n12938&#45;&gt;QED -->
<g id="edge14" class="edge"><title>n12938&#45;&gt;QED</title>
<path fill="none" stroke="black" d="M555.119,-269C625.884,-269 794.423,-269 870.635,-269"/>
<polygon fill="black" stroke="black" points="870.757,-272.5 880.757,-269 870.757,-265.5 870.757,-272.5"/>
<text text-anchor="middle" x="717.987" y="-272.8" font-family="Times New Roman,serif" font-size="14.00">|&#45; ( ( ( ( ( ( ph /\ ps ) /\ ch ) /\ th ) /\ ta ) /\ et ) &#45;&gt; ps )</text>
</g>
<!-- n12930&#45;&gt;n12938 -->
<g id="edge2" class="edge"><title>n12930&#45;&gt;n12938</title>
<path fill="none" stroke="lightgray" d="M192.418,-303.5C245.05,-298.419 367.755,-286.4 470.693,-275 473.512,-274.688 476.419,-274.359 479.347,-274.022"/>
<polygon fill="lightgray" stroke="lightgray" points="479.758,-277.498 489.284,-272.861 478.946,-270.545 479.758,-277.498"/>
<text text-anchor="middle" x="346.193" y="-303.8" font-family="Times New Roman,serif" font-size="14.00" fill="lightgray">wff ps</text>
</g>
<!-- n12931 -->
<g id="node4" class="node"><title>n12931</title>
</g>
<!-- n12930&#45;&gt;n12931 -->
<g id="edge16" class="edge"><title>n12930&#45;&gt;n12931</title>
</g>
<!-- n12931&#45;&gt;n12938 -->
<g id="edge3" class="edge"><title>n12931&#45;&gt;n12938</title>
<path fill="none" stroke="lightgray" d="M192.49,-235.417C245.25,-238.457 368.175,-246.451 470.693,-260 473.894,-260.423 477.201,-260.908 480.52,-261.43"/>
<polygon fill="lightgray" stroke="lightgray" points="479.975,-264.887 490.414,-263.075 481.124,-257.982 479.975,-264.887"/>
<text text-anchor="middle" x="346.193" y="-263.8" font-family="Times New Roman,serif" font-size="14.00" fill="lightgray">wff et</text>
</g>
<!-- n12937 -->
<g id="node6" class="node"><title>n12937</title>
<ellipse fill="cyan" stroke="black" cx="165.347" cy="-162" rx="38.1938" ry="18"/>
<text text-anchor="middle" x="165.347" y="-158.3" font-family="Times New Roman,serif" font-size="14.00">simp&#45;4r</text>
</g>
<!-- n12931&#45;&gt;n12937 -->
<g id="edge17" class="edge"><title>n12931&#45;&gt;n12937</title>
</g>
<!-- n12932 -->
<g id="node5" class="node"><title>n12932</title>
</g>
<!-- n12932&#45;&gt;n12937 -->
<g id="edge4" class="edge"><title>n12932&#45;&gt;n12937</title>
<path fill="none" stroke="lightgray" d="M44.0932,-291.797C60.8593,-276.752 87.6156,-252.037 109,-229 117.595,-219.741 118.966,-216.75 127,-207 132.448,-200.389 138.361,-193.248 143.842,-186.644"/>
<polygon fill="lightgray" stroke="lightgray" points="146.788,-188.575 150.485,-178.646 141.403,-184.102 146.788,-188.575"/>
<text text-anchor="middle" x="90.5" y="-268.8" font-family="Times New Roman,serif" font-size="14.00" fill="lightgray">wff ph</text>
</g>
<!-- n12933 -->
<g id="node7" class="node"><title>n12933</title>
</g>
<!-- n12932&#45;&gt;n12933 -->
<g id="edge10" class="edge"><title>n12932&#45;&gt;n12933</title>
</g>
<!-- n12937&#45;&gt;n12938 -->
<g id="edge9" class="edge"><title>n12937&#45;&gt;n12938</title>
<path fill="none" stroke="black" d="M203.818,-161.791C263.703,-162.957 383.136,-171.534 470.693,-218 482.69,-224.367 493.589,-234.603 502.139,-244.239"/>
<polygon fill="black" stroke="black" points="499.628,-246.691 508.741,-252.095 504.987,-242.188 499.628,-246.691"/>
<text text-anchor="middle" x="346.193" y="-221.8" font-family="Times New Roman,serif" font-size="14.00">|&#45; ( ( ( ( ( ph /\ ps ) /\ ch ) /\ th ) /\ ta ) &#45;&gt; ps )</text>
</g>
<!-- n12933&#45;&gt;n12937 -->
<g id="edge5" class="edge"><title>n12933&#45;&gt;n12937</title>
<path fill="none" stroke="lightgray" d="M48.7081,-223.065C70.3379,-211.643 104.623,-193.538 130.254,-180.003"/>
<polygon fill="lightgray" stroke="lightgray" points="132.058,-183.009 139.267,-175.244 128.789,-176.819 132.058,-183.009"/>
<text text-anchor="middle" x="90.5" y="-213.8" font-family="Times New Roman,serif" font-size="14.00" fill="lightgray">wff ps</text>
</g>
<!-- n12934 -->
<g id="node8" class="node"><title>n12934</title>
</g>
<!-- n12933&#45;&gt;n12934 -->
<g id="edge11" class="edge"><title>n12933&#45;&gt;n12934</title>
</g>
<!-- n12934&#45;&gt;n12937 -->
<g id="edge6" class="edge"><title>n12934&#45;&gt;n12937</title>
<path fill="none" stroke="lightgray" d="M54.289,-162C71.9786,-162 95.8109,-162 116.775,-162"/>
<polygon fill="lightgray" stroke="lightgray" points="116.796,-165.5 126.796,-162 116.796,-158.5 116.796,-165.5"/>
<text text-anchor="middle" x="90.5" y="-165.8" font-family="Times New Roman,serif" font-size="14.00" fill="lightgray">wff ch</text>
</g>
<!-- n12935 -->
<g id="node9" class="node"><title>n12935</title>
</g>
<!-- n12934&#45;&gt;n12935 -->
<g id="edge12" class="edge"><title>n12934&#45;&gt;n12935</title>
</g>
<!-- n12935&#45;&gt;n12937 -->
<g id="edge7" class="edge"><title>n12935&#45;&gt;n12937</title>
<path fill="none" stroke="lightgray" d="M48.7081,-100.935C70.3379,-112.357 104.623,-130.462 130.254,-143.997"/>
<polygon fill="lightgray" stroke="lightgray" points="128.789,-147.181 139.267,-148.756 132.058,-140.991 128.789,-147.181"/>
<text text-anchor="middle" x="90.5" y="-136.8" font-family="Times New Roman,serif" font-size="14.00" fill="lightgray">wff th</text>
</g>
<!-- n12936 -->
<g id="node10" class="node"><title>n12936</title>
</g>
<!-- n12935&#45;&gt;n12936 -->
<g id="edge13" class="edge"><title>n12935&#45;&gt;n12936</title>
</g>
<!-- n12936&#45;&gt;n12937 -->
<g id="edge8" class="edge"><title>n12936&#45;&gt;n12937</title>
<path fill="none" stroke="lightgray" d="M44.0713,-32.2234C60.8195,-47.2847 87.5615,-72.0137 109,-95 121.493,-108.395 134.585,-124.154 144.897,-137.022"/>
<polygon fill="lightgray" stroke="lightgray" points="142.278,-139.352 151.238,-145.007 147.76,-134.999 142.278,-139.352"/>
<text text-anchor="middle" x="90.5" y="-98.8" font-family="Times New Roman,serif" font-size="14.00" fill="lightgray">wff ta</text>
</g>
</g>
</svg>
