<?xml version="1.0" encoding="UTF-8" standalone="no"?>
<!DOCTYPE svg PUBLIC "-//W3C//DTD SVG 1.1//EN"
 "http://www.w3.org/Graphics/SVG/1.1/DTD/svg11.dtd">
<!-- Generated by graphviz version 2.38.0 (20140413.2041)
 -->
<!-- Title: proof_simpr2l Pages: 1 -->
<svg width="824pt" height="367pt"
 viewBox="0.00 0.00 824.38 367.00" xmlns="http://www.w3.org/2000/svg" xmlns:xlink="http://www.w3.org/1999/xlink">
<g id="graph0" class="graph" transform="scale(1 1) rotate(0) translate(4 363)">
<title>proof_simpr2l</title>
<polygon fill="white" stroke="none" points="-4,4 -4,-363 820.383,-363 820.383,4 -4,4"/>
<!-- n19987 -->
<g id="node1" class="node"><title>n19987</title>
</g>
<!-- n19995 -->
<g id="node2" class="node"><title>n19995</title>
<ellipse fill="cyan" stroke="black" cx="456.391" cy="-232" rx="32.4942" ry="18"/>
<text text-anchor="middle" x="456.391" y="-228.3" font-family="Times New Roman,serif" font-size="14.00">adantl</text>
</g>
<!-- n19987&#45;&gt;n19995 -->
<g id="edge1" class="edge"><title>n19987&#45;&gt;n19995</title>
<path fill="none" stroke="lightgray" d="M188.589,-338.917C235.013,-334.283 333.743,-320.148 405.894,-280 416.896,-273.878 427.214,-264.683 435.552,-255.974"/>
<polygon fill="lightgray" stroke="lightgray" points="438.184,-258.282 442.337,-248.535 433.012,-253.565 438.184,-258.282"/>
<text text-anchor="middle" x="309.894" y="-338.8" font-family="Times New Roman,serif" font-size="14.00" fill="lightgray">wff ( ch /\ ( ph /\ ps ) /\ th )</text>
</g>
<!-- n19988 -->
<g id="node3" class="node"><title>n19988</title>
</g>
<!-- n19987&#45;&gt;n19988 -->
<g id="edge13" class="edge"><title>n19987&#45;&gt;n19988</title>
</g>
<!-- QED -->
<g id="node10" class="node"><title>QED</title>
</g>
<!-- n19995&#45;&gt;QED -->
<g id="edge12" class="edge"><title>n19995&#45;&gt;QED</title>
<path fill="none" stroke="black" d="M488.912,-232C549.349,-232 681.353,-232 747.187,-232"/>
<polygon fill="black" stroke="black" points="747.543,-235.5 757.543,-232 747.543,-228.5 747.543,-235.5"/>
<text text-anchor="middle" x="623.388" y="-235.8" font-family="Times New Roman,serif" font-size="14.00">|&#45; ( ( ta /\ ( ch /\ ( ph /\ ps ) /\ th ) ) &#45;&gt; ph )</text>
</g>
<!-- n19988&#45;&gt;n19995 -->
<g id="edge2" class="edge"><title>n19988&#45;&gt;n19995</title>
<path fill="none" stroke="lightgray" d="M188.187,-265.749C239.132,-259.314 353.177,-244.91 414.508,-237.164"/>
<polygon fill="lightgray" stroke="lightgray" points="415.117,-240.615 424.6,-235.889 414.24,-233.67 415.117,-240.615"/>
<text text-anchor="middle" x="309.894" y="-264.8" font-family="Times New Roman,serif" font-size="14.00" fill="lightgray">wff ph</text>
</g>
<!-- n19989 -->
<g id="node4" class="node"><title>n19989</title>
</g>
<!-- n19988&#45;&gt;n19989 -->
<g id="edge14" class="edge"><title>n19988&#45;&gt;n19989</title>
</g>
<!-- n19989&#45;&gt;n19995 -->
<g id="edge3" class="edge"><title>n19989&#45;&gt;n19995</title>
<path fill="none" stroke="lightgray" d="M188.466,-199.147C233.084,-202.969 327.011,-211.632 405.894,-223 409.092,-223.461 412.4,-223.977 415.719,-224.522"/>
<polygon fill="lightgray" stroke="lightgray" points="415.162,-227.977 425.61,-226.219 416.347,-221.078 415.162,-227.977"/>
<text text-anchor="middle" x="309.894" y="-226.8" font-family="Times New Roman,serif" font-size="14.00" fill="lightgray">wff ta</text>
</g>
<!-- n19994 -->
<g id="node6" class="node"><title>n19994</title>
<ellipse fill="cyan" stroke="black" cx="161.447" cy="-125" rx="34.394" ry="18"/>
<text text-anchor="middle" x="161.447" y="-121.3" font-family="Times New Roman,serif" font-size="14.00">simp2l</text>
</g>
<!-- n19989&#45;&gt;n19994 -->
<g id="edge15" class="edge"><title>n19989&#45;&gt;n19994</title>
</g>
<!-- n19990 -->
<g id="node5" class="node"><title>n19990</title>
</g>
<!-- n19990&#45;&gt;n19994 -->
<g id="edge4" class="edge"><title>n19990&#45;&gt;n19994</title>
<path fill="none" stroke="lightgray" d="M44.8042,-220.409C61.2211,-207.108 86.8947,-186.243 109,-168 117.35,-161.109 126.422,-153.55 134.591,-146.718"/>
<polygon fill="lightgray" stroke="lightgray" points="136.979,-149.283 142.398,-140.179 132.484,-143.917 136.979,-149.283"/>
<text text-anchor="middle" x="90.5" y="-200.8" font-family="Times New Roman,serif" font-size="14.00" fill="lightgray">wff ch</text>
</g>
<!-- n19991 -->
<g id="node7" class="node"><title>n19991</title>
</g>
<!-- n19990&#45;&gt;n19991 -->
<g id="edge9" class="edge"><title>n19990&#45;&gt;n19991</title>
</g>
<!-- n19994&#45;&gt;n19995 -->
<g id="edge8" class="edge"><title>n19994&#45;&gt;n19995</title>
<path fill="none" stroke="black" d="M196.048,-126.999C245.054,-131.163 337.711,-143.841 405.894,-182 417.271,-188.367 427.765,-198.116 436.135,-207.321"/>
<polygon fill="black" stroke="black" points="433.728,-209.889 442.912,-215.171 439.026,-205.314 433.728,-209.889"/>
<text text-anchor="middle" x="309.894" y="-185.8" font-family="Times New Roman,serif" font-size="14.00">|&#45; ( ( ch /\ ( ph /\ ps ) /\ th ) &#45;&gt; ph )</text>
</g>
<!-- n19991&#45;&gt;n19994 -->
<g id="edge5" class="edge"><title>n19991&#45;&gt;n19994</title>
<path fill="none" stroke="lightgray" d="M52.2928,-155.214C71.4623,-149.858 98.5948,-142.279 120.888,-136.051"/>
<polygon fill="lightgray" stroke="lightgray" points="122.054,-139.359 130.744,-133.298 120.171,-132.617 122.054,-139.359"/>
<text text-anchor="middle" x="90.5" y="-152.8" font-family="Times New Roman,serif" font-size="14.00" fill="lightgray">wff ph</text>
</g>
<!-- n19992 -->
<g id="node8" class="node"><title>n19992</title>
</g>
<!-- n19991&#45;&gt;n19992 -->
<g id="edge10" class="edge"><title>n19991&#45;&gt;n19992</title>
</g>
<!-- n19992&#45;&gt;n19994 -->
<g id="edge6" class="edge"><title>n19992&#45;&gt;n19994</title>
<path fill="none" stroke="lightgray" d="M52.2928,-96.4195C71.3328,-101.451 98.2285,-108.558 120.435,-114.427"/>
<polygon fill="lightgray" stroke="lightgray" points="119.701,-117.853 130.263,-117.024 121.489,-111.085 119.701,-117.853"/>
<text text-anchor="middle" x="90.5" y="-114.8" font-family="Times New Roman,serif" font-size="14.00" fill="lightgray">wff ps</text>
</g>
<!-- n19993 -->
<g id="node9" class="node"><title>n19993</title>
</g>
<!-- n19992&#45;&gt;n19993 -->
<g id="edge11" class="edge"><title>n19992&#45;&gt;n19993</title>
</g>
<!-- n19993&#45;&gt;n19994 -->
<g id="edge7" class="edge"><title>n19993&#45;&gt;n19994</title>
<path fill="none" stroke="lightgray" d="M44.7745,-31.5516C67.232,-49.6944 107.316,-82.0773 133.896,-103.55"/>
<polygon fill="lightgray" stroke="lightgray" points="131.699,-106.275 141.677,-109.836 136.098,-100.829 131.699,-106.275"/>
<text text-anchor="middle" x="90.5" y="-85.8" font-family="Times New Roman,serif" font-size="14.00" fill="lightgray">wff th</text>
</g>
</g>
</svg>
