<?xml version="1.0" encoding="UTF-8" standalone="no"?>
<!DOCTYPE svg PUBLIC "-//W3C//DTD SVG 1.1//EN"
 "http://www.w3.org/Graphics/SVG/1.1/DTD/svg11.dtd">
<!-- Generated by graphviz version 2.38.0 (20140413.2041)
 -->
<!-- Title: proof_simp_10r Pages: 1 -->
<svg width="1387pt" height="692pt"
 viewBox="0.00 0.00 1386.68 692.00" xmlns="http://www.w3.org/2000/svg" xmlns:xlink="http://www.w3.org/1999/xlink">
<g id="graph0" class="graph" transform="scale(1 1) rotate(0) translate(4 688)">
<title>proof_simp_10r</title>
<polygon fill="white" stroke="none" points="-4,4 -4,-688 1382.68,-688 1382.68,4 -4,4"/>
<!-- n13194 -->
<g id="node1" class="node"><title>n13194</title>
</g>
<!-- n13208 -->
<g id="node2" class="node"><title>n13208</title>
<ellipse fill="cyan" stroke="black" cx="745.035" cy="-448" rx="33.2948" ry="18"/>
<text text-anchor="middle" x="745.035" y="-444.3" font-family="Times New Roman,serif" font-size="14.00">adantr</text>
</g>
<!-- n13194&#45;&gt;n13208 -->
<g id="edge1" class="edge"><title>n13194&#45;&gt;n13208</title>
<path fill="none" stroke="lightgray" d="M198.126,-560.199C276.91,-568.857 520.963,-586.681 693.888,-501 706.785,-494.61 718.112,-483.451 726.723,-473.016"/>
<polygon fill="lightgray" stroke="lightgray" points="729.652,-474.951 733.024,-464.907 724.124,-470.656 729.652,-474.951"/>
<text text-anchor="middle" x="460.888" y="-570.8" font-family="Times New Roman,serif" font-size="14.00" fill="lightgray">wff ( ( ( ( ( ( ( ( ( ph /\ ps ) /\ ch ) /\ th ) /\ ta ) /\ et ) /\ ze ) /\ si ) /\ rh ) /\ mu )</text>
</g>
<!-- n13195 -->
<g id="node3" class="node"><title>n13195</title>
</g>
<!-- n13194&#45;&gt;n13195 -->
<g id="edge25" class="edge"><title>n13194&#45;&gt;n13195</title>
</g>
<!-- QED -->
<g id="node16" class="node"><title>QED</title>
</g>
<!-- n13208&#45;&gt;QED -->
<g id="edge24" class="edge"><title>n13208&#45;&gt;QED</title>
<path fill="none" stroke="black" d="M778.423,-448C881.17,-448 1199.54,-448 1310.12,-448"/>
<polygon fill="black" stroke="black" points="1310.16,-451.5 1320.16,-448 1310.16,-444.5 1310.16,-451.5"/>
<text text-anchor="middle" x="1049.18" y="-451.8" font-family="Times New Roman,serif" font-size="14.00">|&#45; ( ( ( ( ( ( ( ( ( ( ( ph /\ ps ) /\ ch ) /\ th ) /\ ta ) /\ et ) /\ ze ) /\ si ) /\ rh ) /\ mu ) /\ la ) &#45;&gt; ps )</text>
</g>
<!-- n13195&#45;&gt;n13208 -->
<g id="edge2" class="edge"><title>n13195&#45;&gt;n13208</title>
<path fill="none" stroke="lightgray" d="M198.621,-484.001C274.911,-480.959 504.236,-470.969 693.888,-454 696.713,-453.747 699.624,-453.463 702.555,-453.158"/>
<polygon fill="lightgray" stroke="lightgray" points="702.942,-456.637 712.5,-452.064 702.177,-449.679 702.942,-456.637"/>
<text text-anchor="middle" x="460.888" y="-485.8" font-family="Times New Roman,serif" font-size="14.00" fill="lightgray">wff ps</text>
</g>
<!-- n13196 -->
<g id="node4" class="node"><title>n13196</title>
</g>
<!-- n13195&#45;&gt;n13196 -->
<g id="edge26" class="edge"><title>n13195&#45;&gt;n13196</title>
</g>
<!-- n13196&#45;&gt;n13208 -->
<g id="edge3" class="edge"><title>n13196&#45;&gt;n13208</title>
<path fill="none" stroke="lightgray" d="M198.676,-413.125C275.116,-413.744 504.807,-417.407 693.888,-439 697.096,-439.366 700.408,-439.811 703.73,-440.305"/>
<polygon fill="lightgray" stroke="lightgray" points="703.201,-443.764 713.63,-441.901 704.315,-436.854 703.201,-443.764"/>
<text text-anchor="middle" x="460.888" y="-442.8" font-family="Times New Roman,serif" font-size="14.00" fill="lightgray">wff la</text>
</g>
<!-- n13207 -->
<g id="node6" class="node"><title>n13207</title>
<ellipse fill="cyan" stroke="black" cx="171.542" cy="-341" rx="38.1938" ry="18"/>
<text text-anchor="middle" x="171.542" y="-337.3" font-family="Times New Roman,serif" font-size="14.00">simp&#45;9r</text>
</g>
<!-- n13196&#45;&gt;n13207 -->
<g id="edge27" class="edge"><title>n13196&#45;&gt;n13207</title>
</g>
<!-- n13197 -->
<g id="node5" class="node"><title>n13197</title>
</g>
<!-- n13197&#45;&gt;n13207 -->
<g id="edge4" class="edge"><title>n13197&#45;&gt;n13207</title>
<path fill="none" stroke="lightgray" d="M46.9307,-652.549C67.2153,-635.696 99.9645,-604.771 115.195,-570 148.162,-494.735 101.567,-461.837 133.195,-386 136.382,-378.357 141.33,-371.017 146.592,-364.562"/>
<polygon fill="lightgray" stroke="lightgray" points="149.349,-366.726 153.317,-356.902 144.089,-362.107 149.349,-366.726"/>
<text text-anchor="middle" x="95.1949" y="-626.8" font-family="Times New Roman,serif" font-size="14.00" fill="lightgray">wff ph</text>
</g>
<!-- n13198 -->
<g id="node7" class="node"><title>n13198</title>
</g>
<!-- n13197&#45;&gt;n13198 -->
<g id="edge15" class="edge"><title>n13197&#45;&gt;n13198</title>
</g>
<!-- n13207&#45;&gt;n13208 -->
<g id="edge14" class="edge"><title>n13207&#45;&gt;n13208</title>
<path fill="none" stroke="black" d="M208.74,-336.328C297.037,-326.635 528.348,-311.603 693.888,-394 707.122,-400.587 718.626,-412.229 727.265,-423.021"/>
<polygon fill="black" stroke="black" points="724.477,-425.136 733.294,-431.01 730.064,-420.919 724.477,-425.136"/>
<text text-anchor="middle" x="460.888" y="-397.8" font-family="Times New Roman,serif" font-size="14.00">|&#45; ( ( ( ( ( ( ( ( ( ( ph /\ ps ) /\ ch ) /\ th ) /\ ta ) /\ et ) /\ ze ) /\ si ) /\ rh ) /\ mu ) &#45;&gt; ps )</text>
</g>
<!-- n13198&#45;&gt;n13207 -->
<g id="edge5" class="edge"><title>n13198&#45;&gt;n13207</title>
<path fill="none" stroke="lightgray" d="M46.5693,-580.384C66.498,-563.368 98.8969,-532.284 115.195,-498 136.841,-452.467 112.36,-431.91 133.195,-386 136.617,-378.46 141.65,-371.156 146.919,-364.704"/>
<polygon fill="lightgray" stroke="lightgray" points="149.676,-366.868 153.617,-357.033 144.403,-362.264 149.676,-366.868"/>
<text text-anchor="middle" x="95.1949" y="-554.8" font-family="Times New Roman,serif" font-size="14.00" fill="lightgray">wff ps</text>
</g>
<!-- n13199 -->
<g id="node8" class="node"><title>n13199</title>
</g>
<!-- n13198&#45;&gt;n13199 -->
<g id="edge16" class="edge"><title>n13198&#45;&gt;n13199</title>
</g>
<!-- n13199&#45;&gt;n13207 -->
<g id="edge6" class="edge"><title>n13199&#45;&gt;n13207</title>
<path fill="none" stroke="lightgray" d="M46.4816,-508.167C65.4231,-491.888 96.0012,-463.221 115.195,-433 127.187,-414.118 121.902,-405.308 133.195,-386 137.376,-378.852 142.683,-371.691 147.976,-365.251"/>
<polygon fill="lightgray" stroke="lightgray" points="150.738,-367.406 154.585,-357.534 145.422,-362.852 150.738,-367.406"/>
<text text-anchor="middle" x="95.1949" y="-482.8" font-family="Times New Roman,serif" font-size="14.00" fill="lightgray">wff ch</text>
</g>
<!-- n13200 -->
<g id="node9" class="node"><title>n13200</title>
</g>
<!-- n13199&#45;&gt;n13200 -->
<g id="edge17" class="edge"><title>n13199&#45;&gt;n13200</title>
</g>
<!-- n13200&#45;&gt;n13207 -->
<g id="edge7" class="edge"><title>n13200&#45;&gt;n13207</title>
<path fill="none" stroke="lightgray" d="M46.9896,-436.62C64.2945,-423.299 91.5999,-402.262 115.195,-384 124.164,-377.058 133.939,-369.471 142.744,-362.628"/>
<polygon fill="lightgray" stroke="lightgray" points="145.084,-365.242 150.831,-356.341 140.788,-359.716 145.084,-365.242"/>
<text text-anchor="middle" x="95.1949" y="-417.8" font-family="Times New Roman,serif" font-size="14.00" fill="lightgray">wff th</text>
</g>
<!-- n13201 -->
<g id="node10" class="node"><title>n13201</title>
</g>
<!-- n13200&#45;&gt;n13201 -->
<g id="edge18" class="edge"><title>n13200&#45;&gt;n13201</title>
</g>
<!-- n13201&#45;&gt;n13207 -->
<g id="edge8" class="edge"><title>n13201&#45;&gt;n13207</title>
<path fill="none" stroke="lightgray" d="M54.148,-371.555C74.4373,-366.229 103.721,-358.541 127.84,-352.21"/>
<polygon fill="lightgray" stroke="lightgray" points="129.035,-355.515 137.819,-349.59 127.258,-348.744 129.035,-355.515"/>
<text text-anchor="middle" x="95.1949" y="-368.8" font-family="Times New Roman,serif" font-size="14.00" fill="lightgray">wff ta</text>
</g>
<!-- n13202 -->
<g id="node11" class="node"><title>n13202</title>
</g>
<!-- n13201&#45;&gt;n13202 -->
<g id="edge19" class="edge"><title>n13201&#45;&gt;n13202</title>
</g>
<!-- n13202&#45;&gt;n13207 -->
<g id="edge9" class="edge"><title>n13202&#45;&gt;n13207</title>
<path fill="none" stroke="lightgray" d="M54.148,-312.097C74.2993,-317.101 103.323,-324.308 127.347,-330.274"/>
<polygon fill="lightgray" stroke="lightgray" points="126.747,-333.731 137.296,-332.744 128.434,-326.937 126.747,-333.731"/>
<text text-anchor="middle" x="95.1949" y="-330.8" font-family="Times New Roman,serif" font-size="14.00" fill="lightgray">wff et</text>
</g>
<!-- n13203 -->
<g id="node12" class="node"><title>n13203</title>
</g>
<!-- n13202&#45;&gt;n13203 -->
<g id="edge20" class="edge"><title>n13202&#45;&gt;n13203</title>
</g>
<!-- n13203&#45;&gt;n13207 -->
<g id="edge10" class="edge"><title>n13203&#45;&gt;n13207</title>
<path fill="none" stroke="lightgray" d="M47.1631,-247.335C70.9709,-265.409 113.763,-297.896 142.162,-319.455"/>
<polygon fill="lightgray" stroke="lightgray" points="140.395,-322.508 150.476,-325.767 144.628,-316.933 140.395,-322.508"/>
<text text-anchor="middle" x="95.1949" y="-301.8" font-family="Times New Roman,serif" font-size="14.00" fill="lightgray">wff ze</text>
</g>
<!-- n13204 -->
<g id="node13" class="node"><title>n13204</title>
</g>
<!-- n13203&#45;&gt;n13204 -->
<g id="edge21" class="edge"><title>n13203&#45;&gt;n13204</title>
</g>
<!-- n13204&#45;&gt;n13207 -->
<g id="edge11" class="edge"><title>n13204&#45;&gt;n13207</title>
<path fill="none" stroke="lightgray" d="M45.0868,-176.647C63.0089,-193.99 92.9081,-224.172 115.195,-253 130.423,-272.698 145.311,-296.721 155.804,-314.687"/>
<polygon fill="lightgray" stroke="lightgray" points="152.843,-316.559 160.868,-323.475 158.908,-313.063 152.843,-316.559"/>
<text text-anchor="middle" x="95.1949" y="-256.8" font-family="Times New Roman,serif" font-size="14.00" fill="lightgray">wff si</text>
</g>
<!-- n13205 -->
<g id="node14" class="node"><title>n13205</title>
</g>
<!-- n13204&#45;&gt;n13205 -->
<g id="edge22" class="edge"><title>n13204&#45;&gt;n13205</title>
</g>
<!-- n13205&#45;&gt;n13207 -->
<g id="edge12" class="edge"><title>n13205&#45;&gt;n13207</title>
<path fill="none" stroke="lightgray" d="M44.7611,-104.458C63.4782,-122.999 95.2685,-156.855 115.195,-191 138.449,-230.847 154.838,-282.183 163.474,-313.292"/>
<polygon fill="lightgray" stroke="lightgray" points="160.115,-314.281 166.104,-323.021 166.873,-312.454 160.115,-314.281"/>
<text text-anchor="middle" x="95.1949" y="-194.8" font-family="Times New Roman,serif" font-size="14.00" fill="lightgray">wff rh</text>
</g>
<!-- n13206 -->
<g id="node15" class="node"><title>n13206</title>
</g>
<!-- n13205&#45;&gt;n13206 -->
<g id="edge23" class="edge"><title>n13205&#45;&gt;n13206</title>
</g>
<!-- n13206&#45;&gt;n13207 -->
<g id="edge13" class="edge"><title>n13206&#45;&gt;n13207</title>
<path fill="none" stroke="lightgray" d="M45.6989,-32.6215C65.0723,-51.106 97.2288,-84.7873 115.195,-120 148.007,-184.31 162.166,-269.266 167.59,-312.732"/>
<polygon fill="lightgray" stroke="lightgray" points="164.136,-313.331 168.787,-322.85 171.088,-312.509 164.136,-313.331"/>
<text text-anchor="middle" x="95.1949" y="-123.8" font-family="Times New Roman,serif" font-size="14.00" fill="lightgray">wff mu</text>
</g>
</g>
</svg>
