<?xml version="1.0" encoding="UTF-8" standalone="no"?>
<!DOCTYPE svg PUBLIC "-//W3C//DTD SVG 1.1//EN"
 "http://www.w3.org/Graphics/SVG/1.1/DTD/svg11.dtd">
<!-- Generated by graphviz version 2.38.0 (20140413.2041)
 -->
<!-- Title: proof_simp_9r Pages: 1 -->
<svg width="1291pt" height="620pt"
 viewBox="0.00 0.00 1291.48 620.00" xmlns="http://www.w3.org/2000/svg" xmlns:xlink="http://www.w3.org/1999/xlink">
<g id="graph0" class="graph" transform="scale(1 1) rotate(0) translate(4 616)">
<title>proof_simp_9r</title>
<polygon fill="white" stroke="none" points="-4,4 -4,-616 1287.48,-616 1287.48,4 -4,4"/>
<!-- n13129 -->
<g id="node1" class="node"><title>n13129</title>
</g>
<!-- n13142 -->
<g id="node2" class="node"><title>n13142</title>
<ellipse fill="cyan" stroke="black" cx="689.84" cy="-413" rx="33.2948" ry="18"/>
<text text-anchor="middle" x="689.84" y="-409.3" font-family="Times New Roman,serif" font-size="14.00">adantr</text>
</g>
<!-- n13129&#45;&gt;n13142 -->
<g id="edge1" class="edge"><title>n13129&#45;&gt;n13142</title>
<path fill="none" stroke="lightgray" d="M192.104,-524.673C266.078,-531.184 483.775,-542.105 638.693,-465 651.362,-458.694 662.606,-447.845 671.219,-437.683"/>
<polygon fill="lightgray" stroke="lightgray" points="674.027,-439.775 677.539,-429.78 668.56,-435.403 674.027,-439.775"/>
<text text-anchor="middle" x="430.193" y="-532.8" font-family="Times New Roman,serif" font-size="14.00" fill="lightgray">wff ( ( ( ( ( ( ( ( ph /\ ps ) /\ ch ) /\ th ) /\ ta ) /\ et ) /\ ze ) /\ si ) /\ rh )</text>
</g>
<!-- n13130 -->
<g id="node3" class="node"><title>n13130</title>
</g>
<!-- n13129&#45;&gt;n13130 -->
<g id="edge23" class="edge"><title>n13129&#45;&gt;n13130</title>
</g>
<!-- QED -->
<g id="node15" class="node"><title>QED</title>
</g>
<!-- n13142&#45;&gt;QED -->
<g id="edge22" class="edge"><title>n13142&#45;&gt;QED</title>
<path fill="none" stroke="black" d="M723.097,-413C820.24,-413 1109.77,-413 1214.71,-413"/>
<polygon fill="black" stroke="black" points="1214.85,-416.5 1224.85,-413 1214.85,-409.5 1214.85,-416.5"/>
<text text-anchor="middle" x="973.987" y="-416.8" font-family="Times New Roman,serif" font-size="14.00">|&#45; ( ( ( ( ( ( ( ( ( ( ph /\ ps ) /\ ch ) /\ th ) /\ ta ) /\ et ) /\ ze ) /\ si ) /\ rh ) /\ mu ) &#45;&gt; ps )</text>
</g>
<!-- n13130&#45;&gt;n13142 -->
<g id="edge2" class="edge"><title>n13130&#45;&gt;n13142</title>
<path fill="none" stroke="lightgray" d="M192.5,-448.776C264.03,-445.322 468.894,-434.719 638.693,-419 641.517,-418.739 644.428,-418.447 647.359,-418.138"/>
<polygon fill="lightgray" stroke="lightgray" points="647.749,-421.617 657.302,-417.035 646.977,-414.659 647.749,-421.617"/>
<text text-anchor="middle" x="430.193" y="-449.8" font-family="Times New Roman,serif" font-size="14.00" fill="lightgray">wff ps</text>
</g>
<!-- n13131 -->
<g id="node4" class="node"><title>n13131</title>
</g>
<!-- n13130&#45;&gt;n13131 -->
<g id="edge24" class="edge"><title>n13130&#45;&gt;n13131</title>
</g>
<!-- n13131&#45;&gt;n13142 -->
<g id="edge3" class="edge"><title>n13131&#45;&gt;n13142</title>
<path fill="none" stroke="lightgray" d="M194.133,-378.342C267.197,-379.497 470.651,-384.371 638.693,-404 641.9,-404.375 645.212,-404.825 648.533,-405.323"/>
<polygon fill="lightgray" stroke="lightgray" points="648.001,-408.782 658.432,-406.927 649.121,-401.872 648.001,-408.782"/>
<text text-anchor="middle" x="430.193" y="-407.8" font-family="Times New Roman,serif" font-size="14.00" fill="lightgray">wff mu</text>
</g>
<!-- n13141 -->
<g id="node6" class="node"><title>n13141</title>
<ellipse fill="cyan" stroke="black" cx="165.347" cy="-306" rx="38.1938" ry="18"/>
<text text-anchor="middle" x="165.347" y="-302.3" font-family="Times New Roman,serif" font-size="14.00">simp&#45;8r</text>
</g>
<!-- n13131&#45;&gt;n13141 -->
<g id="edge25" class="edge"><title>n13131&#45;&gt;n13141</title>
</g>
<!-- n13132 -->
<g id="node5" class="node"><title>n13132</title>
</g>
<!-- n13132&#45;&gt;n13141 -->
<g id="edge4" class="edge"><title>n13132&#45;&gt;n13141</title>
<path fill="none" stroke="lightgray" d="M44.2514,-579.918C63.298,-562.367 94.142,-530.458 109,-496 134.713,-436.368 101.227,-410.606 127,-351 130.286,-343.399 135.27,-336.074 140.535,-329.62"/>
<polygon fill="lightgray" stroke="lightgray" points="143.292,-331.784 147.249,-321.956 138.027,-327.172 143.292,-331.784"/>
<text text-anchor="middle" x="90.5" y="-553.8" font-family="Times New Roman,serif" font-size="14.00" fill="lightgray">wff ph</text>
</g>
<!-- n13133 -->
<g id="node7" class="node"><title>n13133</title>
</g>
<!-- n13132&#45;&gt;n13133 -->
<g id="edge14" class="edge"><title>n13132&#45;&gt;n13133</title>
</g>
<!-- n13141&#45;&gt;n13142 -->
<g id="edge13" class="edge"><title>n13141&#45;&gt;n13142</title>
<path fill="none" stroke="black" d="M203.068,-302.028C285.792,-294.756 491.028,-286.206 638.693,-360 651.568,-366.434 662.893,-377.598 671.508,-388.025"/>
<polygon fill="black" stroke="black" points="668.909,-390.384 677.813,-396.125 674.432,-386.084 668.909,-390.384"/>
<text text-anchor="middle" x="430.193" y="-363.8" font-family="Times New Roman,serif" font-size="14.00">|&#45; ( ( ( ( ( ( ( ( ( ph /\ ps ) /\ ch ) /\ th ) /\ ta ) /\ et ) /\ ze ) /\ si ) /\ rh ) &#45;&gt; ps )</text>
</g>
<!-- n13133&#45;&gt;n13141 -->
<g id="edge5" class="edge"><title>n13133&#45;&gt;n13141</title>
<path fill="none" stroke="lightgray" d="M44.3182,-507.75C62.8378,-490.661 92.5951,-460.26 109,-428 124.931,-396.673 111.36,-382.473 127,-351 130.685,-343.584 135.813,-336.326 141.09,-329.878"/>
<polygon fill="lightgray" stroke="lightgray" points="143.848,-332.04 147.757,-322.192 138.561,-327.453 143.848,-332.04"/>
<text text-anchor="middle" x="90.5" y="-480.8" font-family="Times New Roman,serif" font-size="14.00" fill="lightgray">wff ps</text>
</g>
<!-- n13134 -->
<g id="node8" class="node"><title>n13134</title>
</g>
<!-- n13133&#45;&gt;n13134 -->
<g id="edge15" class="edge"><title>n13133&#45;&gt;n13134</title>
</g>
<!-- n13134&#45;&gt;n13141 -->
<g id="edge6" class="edge"><title>n13134&#45;&gt;n13141</title>
<path fill="none" stroke="lightgray" d="M44.0932,-435.797C60.8593,-420.752 87.6156,-396.037 109,-373 117.595,-363.741 118.966,-360.75 127,-351 132.448,-344.389 138.361,-337.248 143.842,-330.644"/>
<polygon fill="lightgray" stroke="lightgray" points="146.788,-332.575 150.485,-322.646 141.403,-328.102 146.788,-332.575"/>
<text text-anchor="middle" x="90.5" y="-412.8" font-family="Times New Roman,serif" font-size="14.00" fill="lightgray">wff ch</text>
</g>
<!-- n13135 -->
<g id="node9" class="node"><title>n13135</title>
</g>
<!-- n13134&#45;&gt;n13135 -->
<g id="edge16" class="edge"><title>n13134&#45;&gt;n13135</title>
</g>
<!-- n13135&#45;&gt;n13141 -->
<g id="edge7" class="edge"><title>n13135&#45;&gt;n13141</title>
<path fill="none" stroke="lightgray" d="M48.7081,-367.065C70.3379,-355.643 104.623,-337.538 130.254,-324.003"/>
<polygon fill="lightgray" stroke="lightgray" points="132.058,-327.009 139.267,-319.244 128.789,-320.819 132.058,-327.009"/>
<text text-anchor="middle" x="90.5" y="-357.8" font-family="Times New Roman,serif" font-size="14.00" fill="lightgray">wff th</text>
</g>
<!-- n13136 -->
<g id="node10" class="node"><title>n13136</title>
</g>
<!-- n13135&#45;&gt;n13136 -->
<g id="edge17" class="edge"><title>n13135&#45;&gt;n13136</title>
</g>
<!-- n13136&#45;&gt;n13141 -->
<g id="edge8" class="edge"><title>n13136&#45;&gt;n13141</title>
<path fill="none" stroke="lightgray" d="M54.289,-306C71.9786,-306 95.8109,-306 116.775,-306"/>
<polygon fill="lightgray" stroke="lightgray" points="116.796,-309.5 126.796,-306 116.796,-302.5 116.796,-309.5"/>
<text text-anchor="middle" x="90.5" y="-309.8" font-family="Times New Roman,serif" font-size="14.00" fill="lightgray">wff ta</text>
</g>
<!-- n13137 -->
<g id="node11" class="node"><title>n13137</title>
</g>
<!-- n13136&#45;&gt;n13137 -->
<g id="edge18" class="edge"><title>n13136&#45;&gt;n13137</title>
</g>
<!-- n13137&#45;&gt;n13141 -->
<g id="edge9" class="edge"><title>n13137&#45;&gt;n13141</title>
<path fill="none" stroke="lightgray" d="M48.7081,-244.935C70.3379,-256.357 104.623,-274.462 130.254,-287.997"/>
<polygon fill="lightgray" stroke="lightgray" points="128.789,-291.181 139.267,-292.756 132.058,-284.991 128.789,-291.181"/>
<text text-anchor="middle" x="90.5" y="-280.8" font-family="Times New Roman,serif" font-size="14.00" fill="lightgray">wff et</text>
</g>
<!-- n13138 -->
<g id="node12" class="node"><title>n13138</title>
</g>
<!-- n13137&#45;&gt;n13138 -->
<g id="edge19" class="edge"><title>n13137&#45;&gt;n13138</title>
</g>
<!-- n13138&#45;&gt;n13141 -->
<g id="edge10" class="edge"><title>n13138&#45;&gt;n13141</title>
<path fill="none" stroke="lightgray" d="M44.0713,-176.223C60.8195,-191.285 87.5615,-216.014 109,-239 121.493,-252.395 134.585,-268.154 144.897,-281.022"/>
<polygon fill="lightgray" stroke="lightgray" points="142.278,-283.352 151.238,-289.007 147.76,-278.999 142.278,-283.352"/>
<text text-anchor="middle" x="90.5" y="-242.8" font-family="Times New Roman,serif" font-size="14.00" fill="lightgray">wff ze</text>
</g>
<!-- n13139 -->
<g id="node13" class="node"><title>n13139</title>
</g>
<!-- n13138&#45;&gt;n13139 -->
<g id="edge20" class="edge"><title>n13138&#45;&gt;n13139</title>
</g>
<!-- n13139&#45;&gt;n13141 -->
<g id="edge11" class="edge"><title>n13139&#45;&gt;n13141</title>
<path fill="none" stroke="lightgray" d="M42.9146,-104.561C60.3761,-122.182 89.3975,-153.321 109,-184 128.568,-214.625 144.868,-253.317 154.6,-278.819"/>
<polygon fill="lightgray" stroke="lightgray" points="151.338,-280.088 158.12,-288.227 157.894,-277.635 151.338,-280.088"/>
<text text-anchor="middle" x="90.5" y="-187.8" font-family="Times New Roman,serif" font-size="14.00" fill="lightgray">wff si</text>
</g>
<!-- n13140 -->
<g id="node14" class="node"><title>n13140</title>
</g>
<!-- n13139&#45;&gt;n13140 -->
<g id="edge21" class="edge"><title>n13139&#45;&gt;n13140</title>
</g>
<!-- n13140&#45;&gt;n13141 -->
<g id="edge12" class="edge"><title>n13140&#45;&gt;n13141</title>
<path fill="none" stroke="lightgray" d="M42.9519,-32.925C60.9976,-51.7154 91.1377,-85.705 109,-120 136.268,-172.353 152.136,-240.167 159.436,-277.758"/>
<polygon fill="lightgray" stroke="lightgray" points="156.066,-278.779 161.35,-287.962 162.946,-277.489 156.066,-278.779"/>
<text text-anchor="middle" x="90.5" y="-123.8" font-family="Times New Roman,serif" font-size="14.00" fill="lightgray">wff rh</text>
</g>
</g>
</svg>
