<?xml version="1.0" encoding="UTF-8" standalone="no"?>
<!DOCTYPE svg PUBLIC "-//W3C//DTD SVG 1.1//EN"
 "http://www.w3.org/Graphics/SVG/1.1/DTD/svg11.dtd">
<!-- Generated by graphviz version 2.38.0 (20140413.2041)
 -->
<!-- Title: proof_syl5rbbr Pages: 1 -->
<svg width="789pt" height="404pt"
 viewBox="0.00 0.00 788.57 404.00" xmlns="http://www.w3.org/2000/svg" xmlns:xlink="http://www.w3.org/1999/xlink">
<g id="graph0" class="graph" transform="scale(1 1) rotate(0) translate(4 400)">
<title>proof_syl5rbbr</title>
<polygon fill="white" stroke="none" points="-4,4 -4,-400 784.571,-400 784.571,4 -4,4"/>
<!-- n5292 -->
<g id="node1" class="node"><title>n5292</title>
</g>
<!-- n5301 -->
<g id="node2" class="node"><title>n5301</title>
<ellipse fill="cyan" stroke="black" cx="516.73" cy="-197" rx="38.1938" ry="18"/>
<text text-anchor="middle" x="516.73" y="-193.3" font-family="Times New Roman,serif" font-size="14.00">syl5rbb</text>
</g>
<!-- n5292&#45;&gt;n5301 -->
<g id="edge1" class="edge"><title>n5292&#45;&gt;n5301</title>
<path fill="none" stroke="lightgray" d="M291.184,-375.279C331.817,-369.758 410.998,-353.784 460.383,-310 485.955,-287.328 500.942,-250.165 508.731,-224.69"/>
<polygon fill="lightgray" stroke="lightgray" points="512.148,-225.472 511.549,-214.894 505.421,-223.536 512.148,-225.472"/>
<text text-anchor="middle" x="395.383" y="-370.8" font-family="Times New Roman,serif" font-size="14.00" fill="lightgray">wff ph</text>
</g>
<!-- n5293 -->
<g id="node3" class="node"><title>n5293</title>
</g>
<!-- n5292&#45;&gt;n5293 -->
<g id="edge13" class="edge"><title>n5292&#45;&gt;n5293</title>
</g>
<!-- QED -->
<g id="node11" class="node"><title>QED</title>
</g>
<!-- n5301&#45;&gt;QED -->
<g id="edge12" class="edge"><title>n5301&#45;&gt;QED</title>
<path fill="none" stroke="black" d="M555.1,-197C598.045,-197 668.179,-197 711.661,-197"/>
<polygon fill="black" stroke="black" points="711.843,-200.5 721.843,-197 711.843,-193.5 711.843,-200.5"/>
<text text-anchor="middle" x="638.576" y="-200.8" font-family="Times New Roman,serif" font-size="14.00">|&#45; ( ch &#45;&gt; ( th &lt;&#45;&gt; ph ) )</text>
</g>
<!-- n5293&#45;&gt;n5301 -->
<g id="edge2" class="edge"><title>n5293&#45;&gt;n5301</title>
<path fill="none" stroke="lightgray" d="M290.584,-301.31C329.064,-293.457 403.801,-275.343 460.383,-244 471.927,-237.605 483.285,-228.581 492.679,-220.147"/>
<polygon fill="lightgray" stroke="lightgray" points="495.131,-222.646 500.068,-213.272 490.363,-217.521 495.131,-222.646"/>
<text text-anchor="middle" x="395.383" y="-294.8" font-family="Times New Roman,serif" font-size="14.00" fill="lightgray">wff ps</text>
</g>
<!-- n5294 -->
<g id="node4" class="node"><title>n5294</title>
</g>
<!-- n5293&#45;&gt;n5294 -->
<g id="edge14" class="edge"><title>n5293&#45;&gt;n5294</title>
</g>
<!-- n5294&#45;&gt;n5301 -->
<g id="edge3" class="edge"><title>n5294&#45;&gt;n5301</title>
<path fill="none" stroke="lightgray" d="M291.146,-230.18C333.325,-223.948 417.482,-211.515 469.948,-203.764"/>
<polygon fill="lightgray" stroke="lightgray" points="470.616,-207.203 479.997,-202.279 469.593,-200.278 470.616,-207.203"/>
<text text-anchor="middle" x="395.383" y="-228.8" font-family="Times New Roman,serif" font-size="14.00" fill="lightgray">wff ch</text>
</g>
<!-- n5295 -->
<g id="node5" class="node"><title>n5295</title>
</g>
<!-- n5294&#45;&gt;n5295 -->
<g id="edge15" class="edge"><title>n5294&#45;&gt;n5295</title>
</g>
<!-- n5295&#45;&gt;n5301 -->
<g id="edge4" class="edge"><title>n5295&#45;&gt;n5301</title>
<path fill="none" stroke="lightgray" d="M290.885,-165.173C328.203,-169.854 399.707,-179.026 460.383,-188 463.609,-188.477 466.939,-188.984 470.289,-189.503"/>
<polygon fill="lightgray" stroke="lightgray" points="469.899,-192.985 480.322,-191.087 470.99,-186.071 469.899,-192.985"/>
<text text-anchor="middle" x="395.383" y="-191.8" font-family="Times New Roman,serif" font-size="14.00" fill="lightgray">wff th</text>
</g>
<!-- n5299 -->
<g id="node7" class="node"><title>n5299</title>
<ellipse fill="cyan" stroke="black" cx="264.287" cy="-90" rx="35.9954" ry="18"/>
<text text-anchor="middle" x="264.287" y="-86.3" font-family="Times New Roman,serif" font-size="14.00">bicomi</text>
</g>
<!-- n5295&#45;&gt;n5299 -->
<g id="edge16" class="edge"><title>n5295&#45;&gt;n5299</title>
</g>
<!-- n5296 -->
<g id="node6" class="node"><title>n5296</title>
</g>
<!-- n5296&#45;&gt;n5299 -->
<g id="edge5" class="edge"><title>n5296&#45;&gt;n5299</title>
<path fill="none" stroke="lightgray" d="M72.4257,-154.158C109.017,-141.858 180.292,-117.899 224.631,-102.994"/>
<polygon fill="lightgray" stroke="lightgray" points="225.839,-106.281 234.203,-99.7767 223.609,-99.6454 225.839,-106.281"/>
<text text-anchor="middle" x="156.191" y="-142.8" font-family="Times New Roman,serif" font-size="14.00" fill="lightgray">wff ps</text>
</g>
<!-- n5297 -->
<g id="node8" class="node"><title>n5297</title>
</g>
<!-- n5296&#45;&gt;n5297 -->
<g id="edge9" class="edge"><title>n5296&#45;&gt;n5297</title>
</g>
<!-- n5299&#45;&gt;n5301 -->
<g id="edge8" class="edge"><title>n5299&#45;&gt;n5301</title>
<path fill="none" stroke="black" d="M297.844,-96.4154C337.825,-105.159 406.909,-123.121 460.383,-152 471.339,-157.917 482.227,-166.128 491.41,-173.918"/>
<polygon fill="black" stroke="black" points="489.177,-176.615 498.999,-180.587 493.798,-171.357 489.177,-176.615"/>
<text text-anchor="middle" x="395.383" y="-155.8" font-family="Times New Roman,serif" font-size="14.00">|&#45; ( ph &lt;&#45;&gt; ps )</text>
</g>
<!-- n5300 -->
<g id="node10" class="node"><title>n5300</title>
<ellipse fill="orange" stroke="black" cx="264.287" cy="-18" rx="48.1917" ry="18"/>
<text text-anchor="middle" x="264.287" y="-14.3" font-family="Times New Roman,serif" font-size="14.00">syl5rbbr.2</text>
</g>
<!-- n5299&#45;&gt;n5300 -->
<g id="edge17" class="edge"><title>n5299&#45;&gt;n5300</title>
</g>
<!-- n5297&#45;&gt;n5299 -->
<g id="edge6" class="edge"><title>n5297&#45;&gt;n5299</title>
<path fill="none" stroke="lightgray" d="M75.3598,-90C110.861,-90 174.693,-90 218.009,-90"/>
<polygon fill="lightgray" stroke="lightgray" points="218.277,-93.5001 228.277,-90 218.277,-86.5001 218.277,-93.5001"/>
<text text-anchor="middle" x="156.191" y="-93.8" font-family="Times New Roman,serif" font-size="14.00" fill="lightgray">wff ph</text>
</g>
<!-- n5298 -->
<g id="node9" class="node"><title>n5298</title>
<ellipse fill="orange" stroke="black" cx="48.0957" cy="-18" rx="48.1917" ry="18"/>
<text text-anchor="middle" x="48.0957" y="-14.3" font-family="Times New Roman,serif" font-size="14.00">syl5rbbr.1</text>
</g>
<!-- n5297&#45;&gt;n5298 -->
<g id="edge10" class="edge"><title>n5297&#45;&gt;n5298</title>
</g>
<!-- n5298&#45;&gt;n5299 -->
<g id="edge7" class="edge"><title>n5298&#45;&gt;n5299</title>
<path fill="none" stroke="black" d="M84.4651,-29.8893C123.023,-42.8503 184.536,-63.528 224.419,-76.9346"/>
<polygon fill="black" stroke="black" points="223.472,-80.3085 234.066,-80.1773 225.702,-73.6734 223.472,-80.3085"/>
<text text-anchor="middle" x="156.191" y="-70.8" font-family="Times New Roman,serif" font-size="14.00">|&#45; ( ps &lt;&#45;&gt; ph )</text>
</g>
<!-- n5300&#45;&gt;n5301 -->
<g id="edge11" class="edge"><title>n5300&#45;&gt;n5301</title>
<path fill="none" stroke="black" d="M310.059,-23.7306C353.09,-31.3189 417.709,-48.4346 460.383,-86 485.527,-108.134 500.55,-144.357 508.468,-169.372"/>
<polygon fill="black" stroke="black" points="505.13,-170.426 511.344,-179.007 511.837,-168.424 505.13,-170.426"/>
<text text-anchor="middle" x="395.383" y="-89.8" font-family="Times New Roman,serif" font-size="14.00">|&#45; ( ch &#45;&gt; ( ps &lt;&#45;&gt; th ) )</text>
</g>
</g>
</svg>
