<?xml version="1.0" encoding="UTF-8" standalone="no"?>
<!DOCTYPE svg PUBLIC "-//W3C//DTD SVG 1.1//EN"
 "http://www.w3.org/Graphics/SVG/1.1/DTD/svg11.dtd">
<!-- Generated by graphviz version 2.38.0 (20140413.2041)
 -->
<!-- Title: proof_syl5ibrcom Pages: 1 -->
<svg width="783pt" height="439pt"
 viewBox="0.00 0.00 782.67 439.00" xmlns="http://www.w3.org/2000/svg" xmlns:xlink="http://www.w3.org/1999/xlink">
<g id="graph0" class="graph" transform="scale(1 1) rotate(0) translate(4 435)">
<title>proof_syl5ibrcom</title>
<polygon fill="white" stroke="none" points="-4,4 -4,-435 778.675,-435 778.675,4 -4,4"/>
<!-- n4773 -->
<g id="node1" class="node"><title>n4773</title>
</g>
<!-- n4783 -->
<g id="node2" class="node"><title>n4783</title>
<ellipse fill="cyan" stroke="black" cx="518.433" cy="-304" rx="35.9954" ry="18"/>
<text text-anchor="middle" x="518.433" y="-300.3" font-family="Times New Roman,serif" font-size="14.00">com12</text>
</g>
<!-- n4773&#45;&gt;n4783 -->
<g id="edge1" class="edge"><title>n4773&#45;&gt;n4783</title>
<path fill="none" stroke="lightgray" d="M311.522,-407.607C347.222,-399.178 414.165,-380.698 464.686,-351 475.645,-344.558 486.376,-335.629 495.267,-327.282"/>
<polygon fill="lightgray" stroke="lightgray" points="497.844,-329.658 502.566,-320.174 492.96,-324.643 497.844,-329.658"/>
<text text-anchor="middle" x="401.686" y="-403.8" font-family="Times New Roman,serif" font-size="14.00" fill="lightgray">wff ch</text>
</g>
<!-- n4774 -->
<g id="node3" class="node"><title>n4774</title>
</g>
<!-- n4773&#45;&gt;n4774 -->
<g id="edge17" class="edge"><title>n4773&#45;&gt;n4774</title>
</g>
<!-- QED -->
<g id="node12" class="node"><title>QED</title>
</g>
<!-- n4783&#45;&gt;QED -->
<g id="edge16" class="edge"><title>n4783&#45;&gt;QED</title>
<path fill="none" stroke="black" d="M554.588,-304C595.606,-304 663.211,-304 705.701,-304"/>
<polygon fill="black" stroke="black" points="705.932,-307.5 715.932,-304 705.932,-300.5 705.932,-307.5"/>
<text text-anchor="middle" x="635.18" y="-307.8" font-family="Times New Roman,serif" font-size="14.00">|&#45; ( ph &#45;&gt; ( ch &#45;&gt; ps ) )</text>
</g>
<!-- n4774&#45;&gt;n4783 -->
<g id="edge2" class="edge"><title>n4774&#45;&gt;n4783</title>
<path fill="none" stroke="lightgray" d="M312.176,-336.899C351.219,-330.641 426.152,-318.631 473.871,-310.982"/>
<polygon fill="lightgray" stroke="lightgray" points="474.591,-314.412 483.911,-309.373 473.483,-307.5 474.591,-314.412"/>
<text text-anchor="middle" x="401.686" y="-335.8" font-family="Times New Roman,serif" font-size="14.00" fill="lightgray">wff ph</text>
</g>
<!-- n4775 -->
<g id="node4" class="node"><title>n4775</title>
</g>
<!-- n4774&#45;&gt;n4775 -->
<g id="edge18" class="edge"><title>n4774&#45;&gt;n4775</title>
</g>
<!-- n4775&#45;&gt;n4783 -->
<g id="edge3" class="edge"><title>n4775&#45;&gt;n4783</title>
<path fill="none" stroke="lightgray" d="M312.278,-272.553C346.921,-277.389 410.521,-286.427 464.686,-295 467.898,-295.508 471.217,-296.046 474.555,-296.595"/>
<polygon fill="lightgray" stroke="lightgray" points="474.093,-300.066 484.533,-298.261 475.245,-293.162 474.093,-300.066"/>
<text text-anchor="middle" x="401.686" y="-298.8" font-family="Times New Roman,serif" font-size="14.00" fill="lightgray">wff ps</text>
</g>
<!-- n4782 -->
<g id="node6" class="node"><title>n4782</title>
<ellipse fill="cyan" stroke="black" cx="285.589" cy="-197" rx="35.194" ry="18"/>
<text text-anchor="middle" x="285.589" y="-193.3" font-family="Times New Roman,serif" font-size="14.00">syl5ibr</text>
</g>
<!-- n4775&#45;&gt;n4782 -->
<g id="edge19" class="edge"><title>n4775&#45;&gt;n4782</title>
</g>
<!-- n4776 -->
<g id="node5" class="node"><title>n4776</title>
</g>
<!-- n4776&#45;&gt;n4782 -->
<g id="edge4" class="edge"><title>n4776&#45;&gt;n4782</title>
<path fill="none" stroke="lightgray" d="M69.4411,-376.291C110.328,-372.182 189.115,-358.235 232.493,-311 253.929,-287.657 236.656,-270.513 250.493,-242 253.905,-234.967 258.501,-227.949 263.211,-221.619"/>
<polygon fill="lightgray" stroke="lightgray" points="266.181,-223.503 269.604,-213.477 260.676,-219.18 266.181,-223.503"/>
<text text-anchor="middle" x="167.493" y="-374.8" font-family="Times New Roman,serif" font-size="14.00" fill="lightgray">wff ph</text>
</g>
<!-- n4777 -->
<g id="node7" class="node"><title>n4777</title>
</g>
<!-- n4776&#45;&gt;n4777 -->
<g id="edge11" class="edge"><title>n4776&#45;&gt;n4777</title>
</g>
<!-- n4782&#45;&gt;n4783 -->
<g id="edge10" class="edge"><title>n4782&#45;&gt;n4783</title>
<path fill="none" stroke="black" d="M318.455,-203.633C355.404,-212.227 417.293,-229.46 464.686,-257 475.677,-263.387 486.414,-272.306 495.301,-280.659"/>
<polygon fill="black" stroke="black" points="492.994,-283.298 502.595,-287.777 497.883,-278.288 492.994,-283.298"/>
<text text-anchor="middle" x="401.686" y="-260.8" font-family="Times New Roman,serif" font-size="14.00">|&#45; ( ch &#45;&gt; ( ph &#45;&gt; ps ) )</text>
</g>
<!-- n4777&#45;&gt;n4782 -->
<g id="edge5" class="edge"><title>n4777&#45;&gt;n4782</title>
<path fill="none" stroke="lightgray" d="M68.5174,-301.234C106.166,-293.381 178.352,-275.381 232.493,-244 243.415,-237.669 254.033,-228.761 262.802,-220.4"/>
<polygon fill="lightgray" stroke="lightgray" points="265.355,-222.797 269.993,-213.272 260.427,-217.826 265.355,-222.797"/>
<text text-anchor="middle" x="167.493" y="-295.8" font-family="Times New Roman,serif" font-size="14.00" fill="lightgray">wff ps</text>
</g>
<!-- n4778 -->
<g id="node8" class="node"><title>n4778</title>
</g>
<!-- n4777&#45;&gt;n4778 -->
<g id="edge12" class="edge"><title>n4777&#45;&gt;n4778</title>
</g>
<!-- n4778&#45;&gt;n4782 -->
<g id="edge6" class="edge"><title>n4778&#45;&gt;n4782</title>
<path fill="none" stroke="lightgray" d="M68.618,-230.11C109.718,-223.809 191.313,-211.3 241.601,-203.591"/>
<polygon fill="lightgray" stroke="lightgray" points="242.171,-207.044 251.525,-202.069 241.11,-200.125 242.171,-207.044"/>
<text text-anchor="middle" x="167.493" y="-228.8" font-family="Times New Roman,serif" font-size="14.00" fill="lightgray">wff ch</text>
</g>
<!-- n4779 -->
<g id="node9" class="node"><title>n4779</title>
</g>
<!-- n4778&#45;&gt;n4779 -->
<g id="edge13" class="edge"><title>n4778&#45;&gt;n4779</title>
</g>
<!-- n4779&#45;&gt;n4782 -->
<g id="edge7" class="edge"><title>n4779&#45;&gt;n4782</title>
<path fill="none" stroke="lightgray" d="M68.9997,-165.252C105.452,-169.919 174.158,-178.957 232.493,-188 235.568,-188.477 238.742,-188.985 241.936,-189.508"/>
<polygon fill="lightgray" stroke="lightgray" points="241.662,-193.011 252.103,-191.21 242.818,-186.107 241.662,-193.011"/>
<text text-anchor="middle" x="167.493" y="-191.8" font-family="Times New Roman,serif" font-size="14.00" fill="lightgray">wff th</text>
</g>
<!-- n4780 -->
<g id="node10" class="node"><title>n4780</title>
<ellipse fill="orange" stroke="black" cx="42.2463" cy="-90" rx="42.4939" ry="18"/>
<text text-anchor="middle" x="42.2463" y="-86.3" font-family="Times New Roman,serif" font-size="14.00">syl5ibr.1</text>
</g>
<!-- n4779&#45;&gt;n4780 -->
<g id="edge14" class="edge"><title>n4779&#45;&gt;n4780</title>
</g>
<!-- n4780&#45;&gt;n4782 -->
<g id="edge8" class="edge"><title>n4780&#45;&gt;n4782</title>
<path fill="none" stroke="black" d="M80.6031,-97.622C120.126,-106.715 183.434,-124.267 232.493,-152 243.007,-157.944 253.339,-166.208 261.994,-174.034"/>
<polygon fill="black" stroke="black" points="259.744,-176.722 269.428,-181.019 264.537,-171.621 259.744,-176.722"/>
<text text-anchor="middle" x="167.493" y="-155.8" font-family="Times New Roman,serif" font-size="14.00">|&#45; ( ph &#45;&gt; th )</text>
</g>
<!-- n4781 -->
<g id="node11" class="node"><title>n4781</title>
<ellipse fill="orange" stroke="black" cx="42.2463" cy="-18" rx="42.4939" ry="18"/>
<text text-anchor="middle" x="42.2463" y="-14.3" font-family="Times New Roman,serif" font-size="14.00">syl5ibr.2</text>
</g>
<!-- n4780&#45;&gt;n4781 -->
<g id="edge15" class="edge"><title>n4780&#45;&gt;n4781</title>
</g>
<!-- n4781&#45;&gt;n4782 -->
<g id="edge9" class="edge"><title>n4781&#45;&gt;n4782</title>
<path fill="none" stroke="black" d="M82.9991,-22.9065C124.828,-29.9685 190.328,-46.6663 232.493,-85 257.177,-107.442 271.099,-143.968 278.224,-169.173"/>
<polygon fill="black" stroke="black" points="274.85,-170.108 280.792,-178.88 281.618,-168.318 274.85,-170.108"/>
<text text-anchor="middle" x="167.493" y="-88.8" font-family="Times New Roman,serif" font-size="14.00">|&#45; ( ch &#45;&gt; ( ps &lt;&#45;&gt; th ) )</text>
</g>
</g>
</svg>
