<?xml version="1.0" encoding="UTF-8" standalone="no"?>
<!DOCTYPE svg PUBLIC "-//W3C//DTD SVG 1.1//EN"
 "http://www.w3.org/Graphics/SVG/1.1/DTD/svg11.dtd">
<!-- Generated by graphviz version 2.38.0 (20140413.2041)
 -->
<!-- Title: proof_sylan9 Pages: 1 -->
<svg width="822pt" height="476pt"
 viewBox="0.00 0.00 822.09 476.00" xmlns="http://www.w3.org/2000/svg" xmlns:xlink="http://www.w3.org/1999/xlink">
<g id="graph0" class="graph" transform="scale(1 1) rotate(0) translate(4 472)">
<title>proof_sylan9</title>
<polygon fill="white" stroke="none" points="-4,4 -4,-472 818.088,-472 818.088,4 -4,4"/>
<!-- n11341 -->
<g id="node1" class="node"><title>n11341</title>
</g>
<!-- n11354 -->
<g id="node2" class="node"><title>n11354</title>
<ellipse fill="cyan" stroke="black" cx="528.593" cy="-341" rx="27" ry="18"/>
<text text-anchor="middle" x="528.593" y="-337.3" font-family="Times New Roman,serif" font-size="14.00">imp</text>
</g>
<!-- n11341&#45;&gt;n11354 -->
<g id="edge1" class="edge"><title>n11341&#45;&gt;n11354</title>
<path fill="none" stroke="lightgray" d="M296.35,-447.209C338.331,-441.7 422.907,-426.532 483.593,-389 493.502,-382.872 502.564,-373.898 509.855,-365.363"/>
<polygon fill="lightgray" stroke="lightgray" points="512.709,-367.4 516.272,-357.422 507.264,-363 512.709,-367.4"/>
<text text-anchor="middle" x="399.093" y="-447.8" font-family="Times New Roman,serif" font-size="14.00" fill="lightgray">wff ph</text>
</g>
<!-- n11342 -->
<g id="node3" class="node"><title>n11342</title>
</g>
<!-- n11341&#45;&gt;n11342 -->
<g id="edge19" class="edge"><title>n11341&#45;&gt;n11342</title>
</g>
<!-- QED -->
<g id="node13" class="node"><title>QED</title>
</g>
<!-- n11354&#45;&gt;QED -->
<g id="edge18" class="edge"><title>n11354&#45;&gt;QED</title>
<path fill="none" stroke="black" d="M555.844,-341C600.83,-341 692.853,-341 745.19,-341"/>
<polygon fill="black" stroke="black" points="745.413,-344.5 755.413,-341 745.413,-337.5 745.413,-344.5"/>
<text text-anchor="middle" x="655.593" y="-344.8" font-family="Times New Roman,serif" font-size="14.00">|&#45; ( ( ph /\ th ) &#45;&gt; ( ps &#45;&gt; ta ) )</text>
</g>
<!-- n11342&#45;&gt;n11354 -->
<g id="edge2" class="edge"><title>n11342&#45;&gt;n11354</title>
<path fill="none" stroke="lightgray" d="M296.175,-374.317C342.261,-367.682 439.319,-353.709 491.91,-346.137"/>
<polygon fill="lightgray" stroke="lightgray" points="492.715,-349.557 502.115,-344.668 491.718,-342.629 492.715,-349.557"/>
<text text-anchor="middle" x="399.093" y="-373.8" font-family="Times New Roman,serif" font-size="14.00" fill="lightgray">wff th</text>
</g>
<!-- n11345 -->
<g id="node4" class="node"><title>n11345</title>
</g>
<!-- n11342&#45;&gt;n11345 -->
<g id="edge20" class="edge"><title>n11342&#45;&gt;n11345</title>
</g>
<!-- n11345&#45;&gt;n11354 -->
<g id="edge3" class="edge"><title>n11345&#45;&gt;n11354</title>
<path fill="none" stroke="lightgray" d="M296.591,-308.494C336.812,-312.505 416.491,-321.06 483.593,-332 486.479,-332.47 489.463,-332.996 492.455,-333.551"/>
<polygon fill="lightgray" stroke="lightgray" points="492.043,-337.036 502.527,-335.511 493.38,-330.165 492.043,-337.036"/>
<text text-anchor="middle" x="399.093" y="-335.8" font-family="Times New Roman,serif" font-size="14.00" fill="lightgray">wff ( ps &#45;&gt; ta )</text>
</g>
<!-- n11353 -->
<g id="node6" class="node"><title>n11353</title>
<ellipse fill="cyan" stroke="black" cx="269.593" cy="-234" rx="27" ry="18"/>
<text text-anchor="middle" x="269.593" y="-230.3" font-family="Times New Roman,serif" font-size="14.00">syl9</text>
</g>
<!-- n11345&#45;&gt;n11353 -->
<g id="edge21" class="edge"><title>n11345&#45;&gt;n11353</title>
</g>
<!-- n11346 -->
<g id="node5" class="node"><title>n11346</title>
</g>
<!-- n11346&#45;&gt;n11353 -->
<g id="edge4" class="edge"><title>n11346&#45;&gt;n11353</title>
<path fill="none" stroke="lightgray" d="M67.4769,-448.883C107.826,-445.66 184.711,-433.276 224.593,-386 255.688,-349.14 226.271,-324.377 242.593,-279 245.014,-272.269 248.429,-265.391 251.991,-259.103"/>
<polygon fill="lightgray" stroke="lightgray" points="255.07,-260.773 257.214,-250.398 249.068,-257.172 255.07,-260.773"/>
<text text-anchor="middle" x="161.593" y="-447.8" font-family="Times New Roman,serif" font-size="14.00" fill="lightgray">wff ph</text>
</g>
<!-- n11347 -->
<g id="node7" class="node"><title>n11347</title>
</g>
<!-- n11346&#45;&gt;n11347 -->
<g id="edge12" class="edge"><title>n11346&#45;&gt;n11347</title>
</g>
<!-- n11353&#45;&gt;n11354 -->
<g id="edge11" class="edge"><title>n11353&#45;&gt;n11354</title>
<path fill="none" stroke="black" d="M296.429,-236.07C338.521,-240.452 423.253,-253.563 483.593,-291 493.974,-297.441 503.281,-307.082 510.632,-316.185"/>
<polygon fill="black" stroke="black" points="507.962,-318.455 516.808,-324.286 513.529,-314.211 507.962,-318.455"/>
<text text-anchor="middle" x="399.093" y="-294.8" font-family="Times New Roman,serif" font-size="14.00">|&#45; ( ph &#45;&gt; ( th &#45;&gt; ( ps &#45;&gt; ta ) ) )</text>
</g>
<!-- n11347&#45;&gt;n11353 -->
<g id="edge5" class="edge"><title>n11347&#45;&gt;n11353</title>
<path fill="none" stroke="lightgray" d="M66.8667,-374.166C105.048,-367.297 177.5,-349.716 224.593,-310 224.735,-309.88 240.99,-281.775 253.7,-259.781"/>
<polygon fill="lightgray" stroke="lightgray" points="256.901,-261.238 258.873,-250.829 250.839,-257.736 256.901,-261.238"/>
<text text-anchor="middle" x="161.593" y="-370.8" font-family="Times New Roman,serif" font-size="14.00" fill="lightgray">wff ps</text>
</g>
<!-- n11348 -->
<g id="node8" class="node"><title>n11348</title>
</g>
<!-- n11347&#45;&gt;n11348 -->
<g id="edge13" class="edge"><title>n11347&#45;&gt;n11348</title>
</g>
<!-- n11348&#45;&gt;n11353 -->
<g id="edge6" class="edge"><title>n11348&#45;&gt;n11353</title>
<path fill="none" stroke="lightgray" d="M65.9216,-299.936C101.405,-290.96 168.782,-273.028 224.593,-253 228.849,-251.473 233.281,-249.738 237.622,-247.952"/>
<polygon fill="lightgray" stroke="lightgray" points="239.04,-251.152 246.877,-244.022 236.305,-244.709 239.04,-251.152"/>
<text text-anchor="middle" x="161.593" y="-294.8" font-family="Times New Roman,serif" font-size="14.00" fill="lightgray">wff ch</text>
</g>
<!-- n11349 -->
<g id="node9" class="node"><title>n11349</title>
</g>
<!-- n11348&#45;&gt;n11349 -->
<g id="edge14" class="edge"><title>n11348&#45;&gt;n11349</title>
</g>
<!-- n11349&#45;&gt;n11353 -->
<g id="edge7" class="edge"><title>n11349&#45;&gt;n11353</title>
<path fill="none" stroke="lightgray" d="M67.3702,-234C107.938,-234 186.282,-234 232.333,-234"/>
<polygon fill="lightgray" stroke="lightgray" points="232.474,-237.5 242.474,-234 232.474,-230.5 232.474,-237.5"/>
<text text-anchor="middle" x="161.593" y="-237.8" font-family="Times New Roman,serif" font-size="14.00" fill="lightgray">wff th</text>
</g>
<!-- n11350 -->
<g id="node10" class="node"><title>n11350</title>
</g>
<!-- n11349&#45;&gt;n11350 -->
<g id="edge15" class="edge"><title>n11349&#45;&gt;n11350</title>
</g>
<!-- n11350&#45;&gt;n11353 -->
<g id="edge8" class="edge"><title>n11350&#45;&gt;n11353</title>
<path fill="none" stroke="lightgray" d="M65.9216,-168.064C101.405,-177.04 168.782,-194.972 224.593,-215 228.849,-216.527 233.281,-218.262 237.622,-220.048"/>
<polygon fill="lightgray" stroke="lightgray" points="236.305,-223.291 246.877,-223.978 239.04,-216.848 236.305,-223.291"/>
<text text-anchor="middle" x="161.593" y="-218.8" font-family="Times New Roman,serif" font-size="14.00" fill="lightgray">wff ta</text>
</g>
<!-- n11351 -->
<g id="node11" class="node"><title>n11351</title>
<ellipse fill="orange" stroke="black" cx="40.2964" cy="-90" rx="40.0939" ry="18"/>
<text text-anchor="middle" x="40.2964" y="-86.3" font-family="Times New Roman,serif" font-size="14.00">sylan9.1</text>
</g>
<!-- n11350&#45;&gt;n11351 -->
<g id="edge16" class="edge"><title>n11350&#45;&gt;n11351</title>
</g>
<!-- n11351&#45;&gt;n11353 -->
<g id="edge9" class="edge"><title>n11351&#45;&gt;n11353</title>
<path fill="none" stroke="black" d="M78.4483,-96.0558C118.398,-104.191 181.911,-122.004 224.593,-158 240.035,-171.024 251.28,-190.925 258.534,-207.096"/>
<polygon fill="black" stroke="black" points="255.427,-208.734 262.538,-216.588 261.876,-206.014 255.427,-208.734"/>
<text text-anchor="middle" x="161.593" y="-161.8" font-family="Times New Roman,serif" font-size="14.00">|&#45; ( ph &#45;&gt; ( ps &#45;&gt; ch ) )</text>
</g>
<!-- n11352 -->
<g id="node12" class="node"><title>n11352</title>
<ellipse fill="orange" stroke="black" cx="40.2964" cy="-18" rx="40.0939" ry="18"/>
<text text-anchor="middle" x="40.2964" y="-14.3" font-family="Times New Roman,serif" font-size="14.00">sylan9.2</text>
</g>
<!-- n11351&#45;&gt;n11352 -->
<g id="edge17" class="edge"><title>n11351&#45;&gt;n11352</title>
</g>
<!-- n11352&#45;&gt;n11353 -->
<g id="edge10" class="edge"><title>n11352&#45;&gt;n11353</title>
<path fill="none" stroke="black" d="M80.1923,-21.2561C121.651,-26.7987 186.462,-41.746 224.593,-82 256.813,-116.014 265.631,-172.167 267.928,-205.866"/>
<polygon fill="black" stroke="black" points="264.439,-206.162 268.466,-215.961 271.429,-205.789 264.439,-206.162"/>
<text text-anchor="middle" x="161.593" y="-85.8" font-family="Times New Roman,serif" font-size="14.00">|&#45; ( th &#45;&gt; ( ch &#45;&gt; ta ) )</text>
</g>
</g>
</svg>
