<?xml version="1.0" encoding="UTF-8" standalone="no"?>
<!DOCTYPE svg PUBLIC "-//W3C//DTD SVG 1.1//EN"
 "http://www.w3.org/Graphics/SVG/1.1/DTD/svg11.dtd">
<!-- Generated by graphviz version 2.38.0 (20140413.2041)
 -->
<!-- Title: proof_sylancbr Pages: 1 -->
<svg width="735pt" height="548pt"
 viewBox="0.00 0.00 734.67 548.00" xmlns="http://www.w3.org/2000/svg" xmlns:xlink="http://www.w3.org/1999/xlink">
<g id="graph0" class="graph" transform="scale(1 1) rotate(0) translate(4 544)">
<title>proof_sylancbr</title>
<polygon fill="white" stroke="none" points="-4,4 -4,-544 730.672,-544 730.672,4 -4,4"/>
<!-- n11464 -->
<g id="node1" class="node"><title>n11464</title>
</g>
<!-- n11475 -->
<g id="node2" class="node"><title>n11475</title>
<ellipse fill="cyan" stroke="black" cx="522.781" cy="-341" rx="36.2938" ry="18"/>
<text text-anchor="middle" x="522.781" y="-337.3" font-family="Times New Roman,serif" font-size="14.00">anidms</text>
</g>
<!-- n11464&#45;&gt;n11475 -->
<g id="edge1" class="edge"><title>n11464&#45;&gt;n11475</title>
<path fill="none" stroke="lightgray" d="M315.901,-406.18C350.013,-396.437 414.24,-377.745 468.384,-360 473.284,-358.394 478.416,-356.649 483.479,-354.89"/>
<polygon fill="lightgray" stroke="lightgray" points="484.78,-358.142 493.052,-351.521 482.457,-351.539 484.78,-358.142"/>
<text text-anchor="middle" x="409.384" y="-399.8" font-family="Times New Roman,serif" font-size="14.00" fill="lightgray">wff ph</text>
</g>
<!-- n11465 -->
<g id="node3" class="node"><title>n11465</title>
</g>
<!-- n11464&#45;&gt;n11465 -->
<g id="edge20" class="edge"><title>n11464&#45;&gt;n11465</title>
</g>
<!-- QED -->
<g id="node13" class="node"><title>QED</title>
</g>
<!-- n11475&#45;&gt;QED -->
<g id="edge19" class="edge"><title>n11475&#45;&gt;QED</title>
<path fill="none" stroke="black" d="M559.553,-341C588.229,-341 628.397,-341 657.802,-341"/>
<polygon fill="black" stroke="black" points="658.107,-344.5 668.107,-341 658.107,-337.5 658.107,-344.5"/>
<text text-anchor="middle" x="613.678" y="-344.8" font-family="Times New Roman,serif" font-size="14.00">|&#45; ( ph &#45;&gt; th )</text>
</g>
<!-- n11465&#45;&gt;n11475 -->
<g id="edge2" class="edge"><title>n11465&#45;&gt;n11475</title>
<path fill="none" stroke="lightgray" d="M318.171,-341C356.674,-341 428.806,-341 476.06,-341"/>
<polygon fill="lightgray" stroke="lightgray" points="476.329,-344.5 486.329,-341 476.329,-337.5 476.329,-344.5"/>
<text text-anchor="middle" x="409.384" y="-344.8" font-family="Times New Roman,serif" font-size="14.00" fill="lightgray">wff th</text>
</g>
<!-- n11474 -->
<g id="node5" class="node"><title>n11474</title>
<ellipse fill="cyan" stroke="black" cx="290.788" cy="-269" rx="41.6928" ry="18"/>
<text text-anchor="middle" x="290.788" y="-265.3" font-family="Times New Roman,serif" font-size="14.00">syl2anbr</text>
</g>
<!-- n11465&#45;&gt;n11474 -->
<g id="edge21" class="edge"><title>n11465&#45;&gt;n11474</title>
</g>
<!-- n11466 -->
<g id="node4" class="node"><title>n11466</title>
</g>
<!-- n11466&#45;&gt;n11474 -->
<g id="edge3" class="edge"><title>n11466&#45;&gt;n11474</title>
<path fill="none" stroke="lightgray" d="M75.3582,-520.869C115.786,-517.6 192.624,-505.028 231.191,-457 271.299,-407.053 222.511,-372.236 249.191,-314 252.704,-306.332 257.997,-299.055 263.611,-292.675"/>
<polygon fill="lightgray" stroke="lightgray" points="266.443,-294.775 270.784,-285.111 261.363,-289.959 266.443,-294.775"/>
<text text-anchor="middle" x="172.691" y="-518.8" font-family="Times New Roman,serif" font-size="14.00" fill="lightgray">wff ph</text>
</g>
<!-- n11467 -->
<g id="node6" class="node"><title>n11467</title>
</g>
<!-- n11466&#45;&gt;n11467 -->
<g id="edge12" class="edge"><title>n11466&#45;&gt;n11467</title>
</g>
<!-- n11474&#45;&gt;n11475 -->
<g id="edge11" class="edge"><title>n11474&#45;&gt;n11475</title>
<path fill="none" stroke="black" d="M326.131,-278.752C361.833,-289.02 419.259,-305.9 468.384,-322 473.284,-323.606 478.416,-325.351 483.479,-327.11"/>
<polygon fill="black" stroke="black" points="482.457,-330.461 493.052,-330.479 484.78,-323.858 482.457,-330.461"/>
<text text-anchor="middle" x="409.384" y="-325.8" font-family="Times New Roman,serif" font-size="14.00">|&#45; ( ( ph /\ ph ) &#45;&gt; th )</text>
</g>
<!-- n11467&#45;&gt;n11474 -->
<g id="edge4" class="edge"><title>n11467&#45;&gt;n11474</title>
<path fill="none" stroke="lightgray" d="M74.9188,-447.214C114.403,-441.562 189.57,-425.081 231.191,-379 251.284,-356.755 234.766,-340.277 249.191,-314 253.321,-306.477 258.941,-299.18 264.681,-292.729"/>
<polygon fill="lightgray" stroke="lightgray" points="267.601,-294.733 271.914,-285.055 262.508,-289.932 267.601,-294.733"/>
<text text-anchor="middle" x="172.691" y="-441.8" font-family="Times New Roman,serif" font-size="14.00" fill="lightgray">wff ps</text>
</g>
<!-- n11468 -->
<g id="node7" class="node"><title>n11468</title>
</g>
<!-- n11467&#45;&gt;n11468 -->
<g id="edge13" class="edge"><title>n11467&#45;&gt;n11468</title>
</g>
<!-- n11468&#45;&gt;n11474 -->
<g id="edge5" class="edge"><title>n11468&#45;&gt;n11474</title>
<path fill="none" stroke="lightgray" d="M73.7364,-372.263C109.779,-363.265 178.329,-343.832 231.191,-315 242.9,-308.614 254.685,-299.908 264.583,-291.788"/>
<polygon fill="lightgray" stroke="lightgray" points="267.035,-294.298 272.412,-285.169 262.516,-288.953 267.035,-294.298"/>
<text text-anchor="middle" x="172.691" y="-363.8" font-family="Times New Roman,serif" font-size="14.00" fill="lightgray">wff ch</text>
</g>
<!-- n11469 -->
<g id="node8" class="node"><title>n11469</title>
</g>
<!-- n11468&#45;&gt;n11469 -->
<g id="edge14" class="edge"><title>n11468&#45;&gt;n11469</title>
</g>
<!-- n11469&#45;&gt;n11474 -->
<g id="edge6" class="edge"><title>n11469&#45;&gt;n11474</title>
<path fill="none" stroke="lightgray" d="M74.854,-302.04C114.45,-295.953 190.952,-284.193 241.187,-276.471"/>
<polygon fill="lightgray" stroke="lightgray" points="241.823,-279.915 251.175,-274.936 240.759,-272.996 241.823,-279.915"/>
<text text-anchor="middle" x="172.691" y="-299.8" font-family="Times New Roman,serif" font-size="14.00" fill="lightgray">wff th</text>
</g>
<!-- n11470 -->
<g id="node9" class="node"><title>n11470</title>
</g>
<!-- n11469&#45;&gt;n11470 -->
<g id="edge15" class="edge"><title>n11469&#45;&gt;n11470</title>
</g>
<!-- n11470&#45;&gt;n11474 -->
<g id="edge7" class="edge"><title>n11470&#45;&gt;n11474</title>
<path fill="none" stroke="lightgray" d="M74.7411,-237.575C110.004,-242.51 175.436,-251.738 231.191,-260 234.449,-260.483 237.808,-260.985 241.192,-261.496"/>
<polygon fill="lightgray" stroke="lightgray" points="240.931,-264.996 251.343,-263.036 241.981,-258.075 240.931,-264.996"/>
<text text-anchor="middle" x="172.691" y="-263.8" font-family="Times New Roman,serif" font-size="14.00" fill="lightgray">wff ph</text>
</g>
<!-- n11471 -->
<g id="node10" class="node"><title>n11471</title>
<ellipse fill="orange" stroke="black" cx="48.0957" cy="-162" rx="48.1917" ry="18"/>
<text text-anchor="middle" x="48.0957" y="-158.3" font-family="Times New Roman,serif" font-size="14.00">sylancbr.1</text>
</g>
<!-- n11470&#45;&gt;n11471 -->
<g id="edge16" class="edge"><title>n11470&#45;&gt;n11471</title>
</g>
<!-- n11471&#45;&gt;n11474 -->
<g id="edge8" class="edge"><title>n11471&#45;&gt;n11474</title>
<path fill="none" stroke="black" d="M88.5629,-171.82C126.465,-182.123 184.668,-200.27 231.191,-225 242.399,-230.958 253.771,-238.955 263.477,-246.497"/>
<polygon fill="black" stroke="black" points="261.538,-249.428 271.532,-252.945 265.913,-243.963 261.538,-249.428"/>
<text text-anchor="middle" x="172.691" y="-228.8" font-family="Times New Roman,serif" font-size="14.00">|&#45; ( ps &lt;&#45;&gt; ph )</text>
</g>
<!-- n11472 -->
<g id="node11" class="node"><title>n11472</title>
<ellipse fill="orange" stroke="black" cx="48.0957" cy="-90" rx="48.1917" ry="18"/>
<text text-anchor="middle" x="48.0957" y="-86.3" font-family="Times New Roman,serif" font-size="14.00">sylancbr.2</text>
</g>
<!-- n11471&#45;&gt;n11472 -->
<g id="edge17" class="edge"><title>n11471&#45;&gt;n11472</title>
</g>
<!-- n11472&#45;&gt;n11474 -->
<g id="edge9" class="edge"><title>n11472&#45;&gt;n11474</title>
<path fill="none" stroke="black" d="M91.805,-97.8329C131.8,-107.043 191.236,-125.763 231.191,-161 255.69,-182.605 271.846,-217.004 280.874,-241.162"/>
<polygon fill="black" stroke="black" points="277.661,-242.573 284.31,-250.821 284.256,-240.227 277.661,-242.573"/>
<text text-anchor="middle" x="172.691" y="-164.8" font-family="Times New Roman,serif" font-size="14.00">|&#45; ( ch &lt;&#45;&gt; ph )</text>
</g>
<!-- n11473 -->
<g id="node12" class="node"><title>n11473</title>
<ellipse fill="orange" stroke="black" cx="48.0957" cy="-18" rx="48.1917" ry="18"/>
<text text-anchor="middle" x="48.0957" y="-14.3" font-family="Times New Roman,serif" font-size="14.00">sylancbr.3</text>
</g>
<!-- n11472&#45;&gt;n11473 -->
<g id="edge18" class="edge"><title>n11472&#45;&gt;n11473</title>
</g>
<!-- n11473&#45;&gt;n11474 -->
<g id="edge10" class="edge"><title>n11473&#45;&gt;n11474</title>
<path fill="none" stroke="black" d="M94.1158,-23.3011C135.192,-30.4551 194.864,-47.0284 231.191,-85 272.694,-128.382 284.806,-201.11 288.337,-240.898"/>
<polygon fill="black" stroke="black" points="284.855,-241.259 289.108,-250.963 291.834,-240.725 284.855,-241.259"/>
<text text-anchor="middle" x="172.691" y="-88.8" font-family="Times New Roman,serif" font-size="14.00">|&#45; ( ( ps /\ ch ) &#45;&gt; th )</text>
</g>
</g>
</svg>
