<?xml version="1.0" encoding="UTF-8" standalone="no"?>
<!DOCTYPE svg PUBLIC "-//W3C//DTD SVG 1.1//EN"
 "http://www.w3.org/Graphics/SVG/1.1/DTD/svg11.dtd">
<!-- Generated by graphviz version 2.38.0 (20140413.2041)
 -->
<!-- Title: proof_xchnxbi Pages: 1 -->
<svg width="705pt" height="332pt"
 viewBox="0.00 0.00 704.57 332.00" xmlns="http://www.w3.org/2000/svg" xmlns:xlink="http://www.w3.org/1999/xlink">
<g id="graph0" class="graph" transform="scale(1 1) rotate(0) translate(4 328)">
<title>proof_xchnxbi</title>
<polygon fill="white" stroke="none" points="-4,4 -4,-328 700.573,-328 700.573,4 -4,4"/>
<!-- n5931 -->
<g id="node1" class="node"><title>n5931</title>
</g>
<!-- n5940 -->
<g id="node2" class="node"><title>n5940</title>
<ellipse fill="cyan" stroke="black" cx="477.831" cy="-162" rx="29.4969" ry="18"/>
<text text-anchor="middle" x="477.831" y="-158.3" font-family="Times New Roman,serif" font-size="14.00">bitr3i</text>
</g>
<!-- n5931&#45;&gt;n5940 -->
<g id="edge1" class="edge"><title>n5931&#45;&gt;n5940</title>
<path fill="none" stroke="lightgray" d="M284.287,-300.529C319.97,-291.651 386.292,-271.233 430.584,-234 445.136,-221.766 456.696,-203.772 464.619,-188.834"/>
<polygon fill="lightgray" stroke="lightgray" points="467.923,-190.055 469.295,-179.549 461.671,-186.906 467.923,-190.055"/>
<text text-anchor="middle" x="376.584" y="-291.8" font-family="Times New Roman,serif" font-size="14.00" fill="lightgray">wff &#45;. ch</text>
</g>
<!-- n5933 -->
<g id="node3" class="node"><title>n5933</title>
</g>
<!-- n5931&#45;&gt;n5933 -->
<g id="edge12" class="edge"><title>n5931&#45;&gt;n5933</title>
</g>
<!-- QED -->
<g id="node10" class="node"><title>QED</title>
</g>
<!-- n5940&#45;&gt;QED -->
<g id="edge11" class="edge"><title>n5940&#45;&gt;QED</title>
<path fill="none" stroke="black" d="M507.307,-162C539.475,-162 591.997,-162 627.808,-162"/>
<polygon fill="black" stroke="black" points="627.889,-165.5 637.889,-162 627.889,-158.5 627.889,-165.5"/>
<text text-anchor="middle" x="572.578" y="-165.8" font-family="Times New Roman,serif" font-size="14.00">|&#45; ( &#45;. ch &lt;&#45;&gt; ps )</text>
</g>
<!-- n5933&#45;&gt;n5940 -->
<g id="edge2" class="edge"><title>n5933&#45;&gt;n5940</title>
<path fill="none" stroke="lightgray" d="M283.755,-227.213C317.142,-217.727 378.919,-199.57 430.584,-181 434.928,-179.438 439.464,-177.705 443.924,-175.94"/>
<polygon fill="lightgray" stroke="lightgray" points="445.507,-179.075 453.462,-172.076 442.879,-172.587 445.507,-179.075"/>
<text text-anchor="middle" x="376.584" y="-218.8" font-family="Times New Roman,serif" font-size="14.00" fill="lightgray">wff &#45;. ph</text>
</g>
<!-- n5934 -->
<g id="node4" class="node"><title>n5934</title>
</g>
<!-- n5933&#45;&gt;n5934 -->
<g id="edge13" class="edge"><title>n5933&#45;&gt;n5934</title>
</g>
<!-- n5934&#45;&gt;n5940 -->
<g id="edge3" class="edge"><title>n5934&#45;&gt;n5940</title>
<path fill="none" stroke="lightgray" d="M285.66,-162C323.716,-162 394.491,-162 438.43,-162"/>
<polygon fill="lightgray" stroke="lightgray" points="438.449,-165.5 448.449,-162 438.449,-158.5 438.449,-165.5"/>
<text text-anchor="middle" x="376.584" y="-165.8" font-family="Times New Roman,serif" font-size="14.00" fill="lightgray">wff ps</text>
</g>
<!-- n5938 -->
<g id="node6" class="node"><title>n5938</title>
<ellipse fill="cyan" stroke="black" cx="258.438" cy="-90" rx="31.3957" ry="18"/>
<text text-anchor="middle" x="258.438" y="-86.3" font-family="Times New Roman,serif" font-size="14.00">notbii</text>
</g>
<!-- n5934&#45;&gt;n5938 -->
<g id="edge14" class="edge"><title>n5934&#45;&gt;n5938</title>
</g>
<!-- n5935 -->
<g id="node5" class="node"><title>n5935</title>
</g>
<!-- n5935&#45;&gt;n5938 -->
<g id="edge4" class="edge"><title>n5935&#45;&gt;n5938</title>
<path fill="none" stroke="lightgray" d="M70.4543,-154.02C107.063,-141.486 178.308,-117.092 221.507,-102.302"/>
<polygon fill="lightgray" stroke="lightgray" points="222.735,-105.581 231.062,-99.0306 220.467,-98.9586 222.735,-105.581"/>
<text text-anchor="middle" x="152.292" y="-142.8" font-family="Times New Roman,serif" font-size="14.00" fill="lightgray">wff ph</text>
</g>
<!-- n5936 -->
<g id="node7" class="node"><title>n5936</title>
</g>
<!-- n5935&#45;&gt;n5936 -->
<g id="edge8" class="edge"><title>n5935&#45;&gt;n5936</title>
</g>
<!-- n5938&#45;&gt;n5940 -->
<g id="edge7" class="edge"><title>n5938&#45;&gt;n5940</title>
<path fill="none" stroke="black" d="M286.957,-97.6984C320.982,-107.405 380.529,-125.008 430.584,-143 434.928,-144.562 439.464,-146.295 443.924,-148.06"/>
<polygon fill="black" stroke="black" points="442.879,-151.413 453.462,-151.924 445.507,-144.925 442.879,-151.413"/>
<text text-anchor="middle" x="376.584" y="-146.8" font-family="Times New Roman,serif" font-size="14.00">|&#45; ( &#45;. ph &lt;&#45;&gt; &#45;. ch )</text>
</g>
<!-- n5939 -->
<g id="node9" class="node"><title>n5939</title>
<ellipse fill="orange" stroke="black" cx="258.438" cy="-18" rx="46.2923" ry="18"/>
<text text-anchor="middle" x="258.438" y="-14.3" font-family="Times New Roman,serif" font-size="14.00">xchnxbi.1</text>
</g>
<!-- n5938&#45;&gt;n5939 -->
<g id="edge15" class="edge"><title>n5938&#45;&gt;n5939</title>
</g>
<!-- n5936&#45;&gt;n5938 -->
<g id="edge5" class="edge"><title>n5936&#45;&gt;n5938</title>
<path fill="none" stroke="lightgray" d="M73.3543,-90C109.387,-90 174.566,-90 216.91,-90"/>
<polygon fill="lightgray" stroke="lightgray" points="217.152,-93.5001 227.151,-90 217.151,-86.5001 217.152,-93.5001"/>
<text text-anchor="middle" x="152.292" y="-93.8" font-family="Times New Roman,serif" font-size="14.00" fill="lightgray">wff ch</text>
</g>
<!-- n5937 -->
<g id="node8" class="node"><title>n5937</title>
<ellipse fill="orange" stroke="black" cx="46.1459" cy="-18" rx="46.2923" ry="18"/>
<text text-anchor="middle" x="46.1459" y="-14.3" font-family="Times New Roman,serif" font-size="14.00">xchnxbi.2</text>
</g>
<!-- n5936&#45;&gt;n5937 -->
<g id="edge9" class="edge"><title>n5936&#45;&gt;n5937</title>
</g>
<!-- n5937&#45;&gt;n5938 -->
<g id="edge6" class="edge"><title>n5937&#45;&gt;n5938</title>
<path fill="none" stroke="black" d="M81.4009,-29.7283C119.944,-42.9247 182.276,-64.266 221.497,-77.6945"/>
<polygon fill="black" stroke="black" points="220.588,-81.0829 231.183,-81.0109 222.856,-74.4603 220.588,-81.0829"/>
<text text-anchor="middle" x="152.292" y="-70.8" font-family="Times New Roman,serif" font-size="14.00">|&#45; ( ph &lt;&#45;&gt; ch )</text>
</g>
<!-- n5939&#45;&gt;n5940 -->
<g id="edge10" class="edge"><title>n5939&#45;&gt;n5940</title>
<path fill="none" stroke="black" d="M298.337,-27.1673C335.542,-37.4819 391.597,-57.227 430.584,-90 445.136,-102.234 456.696,-120.228 464.619,-135.166"/>
<polygon fill="black" stroke="black" points="461.671,-137.094 469.295,-144.451 467.923,-133.945 461.671,-137.094"/>
<text text-anchor="middle" x="376.584" y="-93.8" font-family="Times New Roman,serif" font-size="14.00">|&#45; ( &#45;. ph &lt;&#45;&gt; ps )</text>
</g>
</g>
</svg>
